  0
SECTION
  2
HEADER
  9
$ACADVER
  1
AC1009
  9
$INSBASE
 10
0.000000
 20
0.000000
 30
0.000000
  9
$EXTMIN
 10
0.000000
 20
0.000000
 30
0.000000
  9
$EXTMAX
 10
99.500000
 20
185.500000
 30
0.000000
  0
ENDSEC
  0
SECTION
  2
TABLES
  0
TABLE
  2
LTYPE
 70
1
  0
LTYPE
  2
CONTINUOUS
 70
0
  3
Solid line
 72
65
 73
0
 40
0.000000
  0
ENDTAB
  0
TABLE
  2
LAYER
 70
3
  0
LAYER
  2
0
 70
0
 62
7
  6
CONTINUOUS
  0
LAYER
  2
1_ANYTOOL_1MMDEEP_LABELS_S
 70
0
 62
2
  6
CONTINUOUS
  0
LAYER
  2
4_ANYTOOL_CUTTHROUGH_OUTSI
 70
0
 62
5
  6
CONTINUOUS
  0
ENDTAB
  0
ENDSEC
  0
SECTION
  2
ENTITIES
  0
POLYLINE
  8
1_ANYTOOL_1MMDEEP_LABELS_S
 66
1
 10
0.000000
 20
0.000000
 30
0.000000
 70
1
  0
VERTEX
  8
1_ANYTOOL_1MMDEEP_LABELS_S
 10
40.480000
 20
161.535715
 30
0.000000
  0
VERTEX
  8
1_ANYTOOL_1MMDEEP_LABELS_S
 10
58.480000
 20
161.535715
 30
0.000000
  0
VERTEX
  8
1_ANYTOOL_1MMDEEP_LABELS_S
 10
58.428571
 20
166.652857
 30
0.000000
 42
0.046402
  0
VERTEX
  8
1_ANYTOOL_1MMDEEP_LABELS_S
 10
58.243666
 20
168.396682
 30
0.000000
 42
0.074650
  0
VERTEX
  8
1_ANYTOOL_1MMDEEP_LABELS_S
 10
57.650714
 20
170.034286
 30
0.000000
 42
0.077785
  0
VERTEX
  8
1_ANYTOOL_1MMDEEP_LABELS_S
 10
56.697301
 20
171.284077
 30
0.000000
 42
0.069150
  0
VERTEX
  8
1_ANYTOOL_1MMDEEP_LABELS_S
 10
55.420000
 20
172.207143
 30
0.000000
 42
0.061893
  0
VERTEX
  8
1_ANYTOOL_1MMDEEP_LABELS_S
 10
52.341059
 20
173.380390
 30
0.000000
 42
0.060182
  0
VERTEX
  8
1_ANYTOOL_1MMDEEP_LABELS_S
 10
49.068571
 20
173.775715
 30
0.000000
 42
0.068244
  0
VERTEX
  8
1_ANYTOOL_1MMDEEP_LABELS_S
 10
46.315547
 20
173.398204
 30
0.000000
 42
0.070187
  0
VERTEX
  8
1_ANYTOOL_1MMDEEP_LABELS_S
 10
43.771429
 20
172.284286
 30
0.000000
 42
0.042675
  0
VERTEX
  8
1_ANYTOOL_1MMDEEP_LABELS_S
 10
42.517578
 20
171.349196
 30
0.000000
 42
0.065683
  0
VERTEX
  8
1_ANYTOOL_1MMDEEP_LABELS_S
 10
41.498929
 20
170.172500
 30
0.000000
 42
0.068103
  0
VERTEX
  8
1_ANYTOOL_1MMDEEP_LABELS_S
 10
40.896584
 20
168.913864
 30
0.000000
 42
0.065471
  0
VERTEX
  8
1_ANYTOOL_1MMDEEP_LABELS_S
 10
40.647143
 20
167.540000
 30
0.000000
 42
0.005437
  0
VERTEX
  8
1_ANYTOOL_1MMDEEP_LABELS_S
 10
40.533110
 20
164.538728
 30
0.000000
 42
0.004710
  0
SEQEND
  8
1_ANYTOOL_1MMDEEP_LABELS_S
  0
LINE
  8
1_ANYTOOL_1MMDEEP_LABELS_S
 10
40.762857
 20
159.478572
 30
0.000000
 11
59.225714
 21
149.167143
 31
0.000000
  0
POLYLINE
  8
1_ANYTOOL_1MMDEEP_LABELS_S
 66
1
 10
0.000000
 20
0.000000
 30
0.000000
 70
0
  0
VERTEX
  8
1_ANYTOOL_1MMDEEP_LABELS_S
 10
58.480000
 20
136.104286
 30
0.000000
  0
VERTEX
  8
1_ANYTOOL_1MMDEEP_LABELS_S
 10
40.480000
 20
136.104286
 30
0.000000
  0
VERTEX
  8
1_ANYTOOL_1MMDEEP_LABELS_S
 10
40.480000
 20
142.918572
 30
0.000000
 42
-0.030274
  0
VERTEX
  8
1_ANYTOOL_1MMDEEP_LABELS_S
 10
40.544209
 20
143.978060
 30
0.000000
 42
-0.049000
  0
VERTEX
  8
1_ANYTOOL_1MMDEEP_LABELS_S
 10
40.774107
 20
145.011072
 30
0.000000
 42
-0.050774
  0
VERTEX
  8
1_ANYTOOL_1MMDEEP_LABELS_S
 10
41.129581
 20
145.810585
 30
0.000000
 42
-0.064450
  0
VERTEX
  8
1_ANYTOOL_1MMDEEP_LABELS_S
 10
41.656429
 20
146.505715
 30
0.000000
 42
-0.064600
  0
VERTEX
  8
1_ANYTOOL_1MMDEEP_LABELS_S
 10
42.338047
 20
147.039661
 30
0.000000
 42
-0.052254
  0
VERTEX
  8
1_ANYTOOL_1MMDEEP_LABELS_S
 10
43.126964
 20
147.402500
 30
0.000000
 42
-0.050381
  0
VERTEX
  8
1_ANYTOOL_1MMDEEP_LABELS_S
 10
44.142493
 20
147.635982
 30
0.000000
 42
-0.031337
  0
VERTEX
  8
1_ANYTOOL_1MMDEEP_LABELS_S
 10
45.185714
 20
147.701429
 30
0.000000
 42
-0.084508
  0
VERTEX
  8
1_ANYTOOL_1MMDEEP_LABELS_S
 10
46.826586
 20
147.422100
 30
0.000000
 42
-0.077447
  0
VERTEX
  8
1_ANYTOOL_1MMDEEP_LABELS_S
 10
48.297143
 20
146.634286
 30
0.000000
 42
-0.051097
  0
VERTEX
  8
1_ANYTOOL_1MMDEEP_LABELS_S
 10
48.905516
 20
146.069219
 30
0.000000
 42
-0.061981
  0
VERTEX
  8
1_ANYTOOL_1MMDEEP_LABELS_S
 10
49.370714
 20
145.383929
 30
0.000000
 42
-0.061813
  0
VERTEX
  8
1_ANYTOOL_1MMDEEP_LABELS_S
 10
49.656614
 20
144.598528
 30
0.000000
 42
-0.049309
  0
VERTEX
  8
1_ANYTOOL_1MMDEEP_LABELS_S
 10
49.762857
 20
143.767143
 30
0.000000
 42
-0.013248
  0
VERTEX
  8
1_ANYTOOL_1MMDEEP_LABELS_S
 10
49.814286
 20
141.504286
 30
0.000000
  0
VERTEX
  8
1_ANYTOOL_1MMDEEP_LABELS_S
 10
49.814286
 20
136.130000
 30
0.000000
  0
SEQEND
  8
1_ANYTOOL_1MMDEEP_LABELS_S
  0
LINE
  8
1_ANYTOOL_1MMDEEP_LABELS_S
 10
49.814286
 20
141.504286
 30
0.000000
 11
58.505714
 21
147.778572
 31
0.000000
  0
POLYLINE
  8
1_ANYTOOL_1MMDEEP_LABELS_S
 66
1
 10
0.000000
 20
0.000000
 30
0.000000
 70
0
  0
VERTEX
  8
1_ANYTOOL_1MMDEEP_LABELS_S
 10
43.437143
 20
122.835715
 30
0.000000
 42
-0.060092
  0
VERTEX
  8
1_ANYTOOL_1MMDEEP_LABELS_S
 10
42.185463
 20
123.668645
 30
0.000000
 42
-0.080583
  0
VERTEX
  8
1_ANYTOOL_1MMDEEP_LABELS_S
 10
41.219286
 20
124.809286
 30
0.000000
 42
-0.079919
  0
VERTEX
  8
1_ANYTOOL_1MMDEEP_LABELS_S
 10
40.650626
 20
126.222925
 30
0.000000
 42
-0.055798
  0
VERTEX
  8
1_ANYTOOL_1MMDEEP_LABELS_S
 10
40.480000
 20
127.747143
 30
0.000000
 42
-0.035013
  0
VERTEX
  8
1_ANYTOOL_1MMDEEP_LABELS_S
 10
40.545452
 20
128.680683
 30
0.000000
 42
-0.047512
  0
VERTEX
  8
1_ANYTOOL_1MMDEEP_LABELS_S
 10
40.762857
 20
129.588929
 30
0.000000
 42
-0.048382
  0
VERTEX
  8
1_ANYTOOL_1MMDEEP_LABELS_S
 10
41.114481
 20
130.362584
 30
0.000000
 42
-0.050886
  0
VERTEX
  8
1_ANYTOOL_1MMDEEP_LABELS_S
 10
41.611429
 20
131.051429
 30
0.000000
 42
-0.060051
  0
VERTEX
  8
1_ANYTOOL_1MMDEEP_LABELS_S
 10
42.239501
 20
131.606971
 30
0.000000
 42
-0.058597
  0
VERTEX
  8
1_ANYTOOL_1MMDEEP_LABELS_S
 10
42.980714
 20
131.999643
 30
0.000000
 42
-0.056917
  0
VERTEX
  8
1_ANYTOOL_1MMDEEP_LABELS_S
 10
43.887264
 20
132.237321
 30
0.000000
 42
-0.038780
  0
VERTEX
  8
1_ANYTOOL_1MMDEEP_LABELS_S
 10
44.825714
 20
132.298572
 30
0.000000
 42
-0.025440
  0
VERTEX
  8
1_ANYTOOL_1MMDEEP_LABELS_S
 10
45.568345
 20
132.260762
 30
0.000000
 42
-0.041152
  0
VERTEX
  8
1_ANYTOOL_1MMDEEP_LABELS_S
 10
46.297857
 20
132.125000
 30
0.000000
 42
-0.042175
  0
VERTEX
  8
1_ANYTOOL_1MMDEEP_LABELS_S
 10
46.862020
 20
131.918712
 30
0.000000
 42
-0.059142
  0
VERTEX
  8
1_ANYTOOL_1MMDEEP_LABELS_S
 10
47.371429
 20
131.604286
 30
0.000000
 42
-0.068767
  0
VERTEX
  8
1_ANYTOOL_1MMDEEP_LABELS_S
 10
48.110925
 20
130.829868
 30
0.000000
 42
-0.072211
  0
VERTEX
  8
1_ANYTOOL_1MMDEEP_LABELS_S
 10
48.605714
 20
129.881429
 30
0.000000
 42
-0.043093
  0
VERTEX
  8
1_ANYTOOL_1MMDEEP_LABELS_S
 10
48.886270
 20
128.785162
 30
0.000000
 42
-0.035742
  0
VERTEX
  8
1_ANYTOOL_1MMDEEP_LABELS_S
 10
48.991429
 20
127.657143
 30
0.000000
 42
-0.002283
  0
VERTEX
  8
1_ANYTOOL_1MMDEEP_LABELS_S
 10
49.010264
 20
126.545065
 30
0.000000
 42
-0.003092
  0
VERTEX
  8
1_ANYTOOL_1MMDEEP_LABELS_S
 10
49.017143
 20
125.432857
 30
0.000000
  0
SEQEND
  8
1_ANYTOOL_1MMDEEP_LABELS_S
  0
POLYLINE
  8
1_ANYTOOL_1MMDEEP_LABELS_S
 66
1
 10
0.000000
 20
0.000000
 30
0.000000
 70
0
  0
VERTEX
  8
1_ANYTOOL_1MMDEEP_LABELS_S
 10
49.017143
 20
127.104286
 30
0.000000
 42
-0.052004
  0
VERTEX
  8
1_ANYTOOL_1MMDEEP_LABELS_S
 10
49.324824
 20
129.104135
 30
0.000000
 42
-0.057563
  0
VERTEX
  8
1_ANYTOOL_1MMDEEP_LABELS_S
 10
50.058571
 20
130.987143
 30
0.000000
 42
-0.070633
  0
VERTEX
  8
1_ANYTOOL_1MMDEEP_LABELS_S
 10
50.613334
 20
131.751865
 30
0.000000
 42
-0.079113
  0
VERTEX
  8
1_ANYTOOL_1MMDEEP_LABELS_S
 10
51.366786
 20
132.317857
 30
0.000000
 42
-0.075641
  0
VERTEX
  8
1_ANYTOOL_1MMDEEP_LABELS_S
 10
52.359701
 20
132.663930
 30
0.000000
 42
-0.046128
  0
VERTEX
  8
1_ANYTOOL_1MMDEEP_LABELS_S
 10
53.414286
 20
132.761429
 30
0.000000
 42
-0.033924
  0
VERTEX
  8
1_ANYTOOL_1MMDEEP_LABELS_S
 10
54.594351
 20
132.681271
 30
0.000000
 42
-0.057836
  0
VERTEX
  8
1_ANYTOOL_1MMDEEP_LABELS_S
 10
55.735000
 20
132.388572
 30
0.000000
 42
-0.060832
  0
VERTEX
  8
1_ANYTOOL_1MMDEEP_LABELS_S
 10
56.592385
 20
131.933185
 30
0.000000
 42
-0.072757
  0
VERTEX
  8
1_ANYTOOL_1MMDEEP_LABELS_S
 10
57.297143
 20
131.270000
 30
0.000000
 42
-0.053580
  0
VERTEX
  8
1_ANYTOOL_1MMDEEP_LABELS_S
 10
57.825792
 20
130.433245
 30
0.000000
 42
-0.043301
  0
VERTEX
  8
1_ANYTOOL_1MMDEEP_LABELS_S
 10
58.184286
 20
129.508572
 30
0.000000
 42
-0.042335
  0
VERTEX
  8
1_ANYTOOL_1MMDEEP_LABELS_S
 10
58.413636
 20
128.369479
 30
0.000000
 42
-0.028525
  0
VERTEX
  8
1_ANYTOOL_1MMDEEP_LABELS_S
 10
58.480000
 20
127.207143
 30
0.000000
 42
-0.059964
  0
VERTEX
  8
1_ANYTOOL_1MMDEEP_LABELS_S
 10
58.284185
 20
125.580242
 30
0.000000
 42
-0.089395
  0
VERTEX
  8
1_ANYTOOL_1MMDEEP_LABELS_S
 10
57.625000
 20
124.095715
 30
0.000000
 42
-0.089624
  0
VERTEX
  8
1_ANYTOOL_1MMDEEP_LABELS_S
 10
56.494332
 20
122.941214
 30
0.000000
 42
-0.061164
  0
VERTEX
  8
1_ANYTOOL_1MMDEEP_LABELS_S
 10
55.060000
 20
122.167143
 30
0.000000
  0
SEQEND
  8
1_ANYTOOL_1MMDEEP_LABELS_S
  0
LINE
  8
1_ANYTOOL_1MMDEEP_LABELS_S
 10
50.148571
 20
119.852857
 30
0.000000
 11
50.200000
 21
114.581429
 31
0.000000
  0
POLYLINE
  8
1_ANYTOOL_1MMDEEP_LABELS_S
 66
1
 10
0.000000
 20
0.000000
 30
0.000000
 70
0
  0
VERTEX
  8
1_ANYTOOL_1MMDEEP_LABELS_S
 10
58.454286
 20
111.624286
 30
0.000000
  0
VERTEX
  8
1_ANYTOOL_1MMDEEP_LABELS_S
 10
58.428571
 20
100.644286
 30
0.000000
 42
-0.072153
  0
VERTEX
  8
1_ANYTOOL_1MMDEEP_LABELS_S
 10
56.406313
 20
101.590514
 30
0.000000
 42
-0.072823
  0
VERTEX
  8
1_ANYTOOL_1MMDEEP_LABELS_S
 10
54.738571
 20
103.074286
 30
0.000000
 42
-0.008590
  0
VERTEX
  8
1_ANYTOOL_1MMDEEP_LABELS_S
 10
53.299422
 20
104.849821
 30
0.000000
 42
-0.008791
  0
VERTEX
  8
1_ANYTOOL_1MMDEEP_LABELS_S
 10
51.922857
 20
106.674286
 30
0.000000
 42
0.020588
  0
VERTEX
  8
1_ANYTOOL_1MMDEEP_LABELS_S
 10
50.582792
 20
108.365859
 30
0.000000
 42
0.025206
  0
VERTEX
  8
1_ANYTOOL_1MMDEEP_LABELS_S
 10
49.094286
 20
109.927143
 30
0.000000
 42
0.046908
  0
VERTEX
  8
1_ANYTOOL_1MMDEEP_LABELS_S
 10
48.313541
 20
110.539500
 30
0.000000
 42
0.051091
  0
VERTEX
  8
1_ANYTOOL_1MMDEEP_LABELS_S
 10
47.429286
 20
110.987857
 30
0.000000
 42
0.050722
  0
VERTEX
  8
1_ANYTOOL_1MMDEEP_LABELS_S
 10
46.440381
 20
111.257097
 30
0.000000
 42
0.041139
  0
VERTEX
  8
1_ANYTOOL_1MMDEEP_LABELS_S
 10
45.417143
 20
111.341429
 30
0.000000
 42
0.039396
  0
VERTEX
  8
1_ANYTOOL_1MMDEEP_LABELS_S
 10
44.332591
 20
111.255842
 30
0.000000
 42
0.058519
  0
VERTEX
  8
1_ANYTOOL_1MMDEEP_LABELS_S
 10
43.289286
 20
110.962143
 30
0.000000
 42
0.060358
  0
VERTEX
  8
1_ANYTOOL_1MMDEEP_LABELS_S
 10
42.445016
 20
110.487809
 30
0.000000
 42
0.061397
  0
VERTEX
  8
1_ANYTOOL_1MMDEEP_LABELS_S
 10
41.740000
 20
109.824286
 30
0.000000
 42
0.048006
  0
VERTEX
  8
1_ANYTOOL_1MMDEEP_LABELS_S
 10
41.186824
 20
109.010712
 30
0.000000
 42
0.045901
  0
VERTEX
  8
1_ANYTOOL_1MMDEEP_LABELS_S
 10
40.795000
 20
108.107857
 30
0.000000
 42
0.045216
  0
VERTEX
  8
1_ANYTOOL_1MMDEEP_LABELS_S
 10
40.553464
 20
107.063821
 30
0.000000
 42
0.034258
  0
VERTEX
  8
1_ANYTOOL_1MMDEEP_LABELS_S
 10
40.480000
 20
105.992857
 30
0.000000
 42
0.055622
  0
VERTEX
  8
1_ANYTOOL_1MMDEEP_LABELS_S
 10
40.656392
 20
104.412115
 30
0.000000
 42
0.079896
  0
VERTEX
  8
1_ANYTOOL_1MMDEEP_LABELS_S
 10
41.245000
 20
102.945715
 30
0.000000
 42
0.080617
  0
VERTEX
  8
1_ANYTOOL_1MMDEEP_LABELS_S
 10
42.244420
 20
101.764082
 30
0.000000
 42
0.060287
  0
VERTEX
  8
1_ANYTOOL_1MMDEEP_LABELS_S
 10
43.540000
 20
100.901429
 30
0.000000
  0
SEQEND
  8
1_ANYTOOL_1MMDEEP_LABELS_S
  0
LINE
  8
1_ANYTOOL_1MMDEEP_LABELS_S
 10
53.285714
 20
83.904286
 30
0.000000
 11
53.285714
 21
96.967143
 31
0.000000
  0
POLYLINE
  8
1_ANYTOOL_1MMDEEP_LABELS_S
 66
1
 10
0.000000
 20
0.000000
 30
0.000000
 70
0
  0
VERTEX
  8
1_ANYTOOL_1MMDEEP_LABELS_S
 10
58.480000
 20
93.495715
 30
0.000000
  0
VERTEX
  8
1_ANYTOOL_1MMDEEP_LABELS_S
 10
40.454286
 20
93.521429
 30
0.000000
  0
VERTEX
  8
1_ANYTOOL_1MMDEEP_LABELS_S
 10
53.285714
 20
83.904286
 30
0.000000
  0
SEQEND
  8
1_ANYTOOL_1MMDEEP_LABELS_S
  0
LINE
  8
1_ANYTOOL_1MMDEEP_LABELS_S
 10
50.148571
 20
81.332857
 30
0.000000
 11
50.200000
 21
76.061429
 31
0.000000
  0
POLYLINE
  8
1_ANYTOOL_1MMDEEP_LABELS_S
 66
1
 10
0.000000
 20
0.000000
 30
0.000000
 70
0
  0
VERTEX
  8
1_ANYTOOL_1MMDEEP_LABELS_S
 10
43.231429
 20
73.644286
 30
0.000000
 42
0.071867
  0
VERTEX
  8
1_ANYTOOL_1MMDEEP_LABELS_S
 10
42.429465
 20
73.528418
 30
0.000000
 42
0.100684
  0
VERTEX
  8
1_ANYTOOL_1MMDEEP_LABELS_S
 10
41.720714
 20
73.152500
 30
0.000000
 42
0.047558
  0
VERTEX
  8
1_ANYTOOL_1MMDEEP_LABELS_S
 10
41.434844
 20
72.867768
 30
0.000000
 42
0.038563
  0
VERTEX
  8
1_ANYTOOL_1MMDEEP_LABELS_S
 10
41.201607
 20
72.537768
 30
0.000000
 42
0.037928
  0
VERTEX
  8
1_ANYTOOL_1MMDEEP_LABELS_S
 10
40.993126
 20
72.119455
 30
0.000000
 42
0.026634
  0
VERTEX
  8
1_ANYTOOL_1MMDEEP_LABELS_S
 10
40.840000
 20
71.677143
 30
0.000000
 42
0.028461
  0
VERTEX
  8
1_ANYTOOL_1MMDEEP_LABELS_S
 10
40.428410
 20
69.863143
 30
0.000000
 42
0.041577
  0
VERTEX
  8
1_ANYTOOL_1MMDEEP_LABELS_S
 10
40.274286
 20
68.012857
 30
0.000000
 42
0.077998
  0
VERTEX
  8
1_ANYTOOL_1MMDEEP_LABELS_S
 10
40.552414
 20
66.240794
 30
0.000000
 42
0.080426
  0
VERTEX
  8
1_ANYTOOL_1MMDEEP_LABELS_S
 10
41.367143
 20
64.644286
 30
0.000000
 42
0.057611
  0
VERTEX
  8
1_ANYTOOL_1MMDEEP_LABELS_S
 10
41.962285
 20
64.002194
 30
0.000000
 42
0.065808
  0
VERTEX
  8
1_ANYTOOL_1MMDEEP_LABELS_S
 10
42.694643
 20
63.525715
 30
0.000000
 42
0.064690
  0
VERTEX
  8
1_ANYTOOL_1MMDEEP_LABELS_S
 10
43.570376
 20
63.239217
 30
0.000000
 42
0.046778
  0
VERTEX
  8
1_ANYTOOL_1MMDEEP_LABELS_S
 10
44.491429
 20
63.152857
 30
0.000000
 42
0.052235
  0
VERTEX
  8
1_ANYTOOL_1MMDEEP_LABELS_S
 10
45.421334
 20
63.250271
 30
0.000000
 42
0.075448
  0
VERTEX
  8
1_ANYTOOL_1MMDEEP_LABELS_S
 10
46.291429
 20
63.577143
 30
0.000000
 42
0.076671
  0
VERTEX
  8
1_ANYTOOL_1MMDEEP_LABELS_S
 10
46.995260
 20
64.126798
 30
0.000000
 42
0.061023
  0
VERTEX
  8
1_ANYTOOL_1MMDEEP_LABELS_S
 10
47.525714
 20
64.850000
 30
0.000000
 42
0.021951
  0
VERTEX
  8
1_ANYTOOL_1MMDEEP_LABELS_S
 10
48.442122
 20
66.667313
 30
0.000000
 42
0.018213
  0
VERTEX
  8
1_ANYTOOL_1MMDEEP_LABELS_S
 10
49.210000
 20
68.552857
 30
0.000000
 42
-0.024050
  0
VERTEX
  8
1_ANYTOOL_1MMDEEP_LABELS_S
 10
49.993277
 20
70.413748
 30
0.000000
 42
-0.029810
  0
VERTEX
  8
1_ANYTOOL_1MMDEEP_LABELS_S
 10
50.971429
 20
72.178572
 30
0.000000
 42
-0.068439
  0
VERTEX
  8
1_ANYTOOL_1MMDEEP_LABELS_S
 10
51.550987
 20
72.863353
 30
0.000000
 42
-0.079282
  0
VERTEX
  8
1_ANYTOOL_1MMDEEP_LABELS_S
 10
52.302143
 20
73.348572
 30
0.000000
 42
-0.076308
  0
VERTEX
  8
1_ANYTOOL_1MMDEEP_LABELS_S
 10
53.249352
 20
73.603572
 30
0.000000
 42
-0.047772
  0
VERTEX
  8
1_ANYTOOL_1MMDEEP_LABELS_S
 10
54.237143
 20
73.618572
 30
0.000000
 42
-0.046243
  0
VERTEX
  8
1_ANYTOOL_1MMDEEP_LABELS_S
 10
55.245719
 20
73.442631
 30
0.000000
 42
-0.063590
  0
VERTEX
  8
1_ANYTOOL_1MMDEEP_LABELS_S
 10
56.188214
 20
73.052857
 30
0.000000
 42
-0.064671
  0
VERTEX
  8
1_ANYTOOL_1MMDEEP_LABELS_S
 10
56.958728
 20
72.469163
 30
0.000000
 42
-0.057073
  0
VERTEX
  8
1_ANYTOOL_1MMDEEP_LABELS_S
 10
57.567143
 20
71.715715
 30
0.000000
 42
-0.067522
  0
VERTEX
  8
1_ANYTOOL_1MMDEEP_LABELS_S
 10
58.384889
 20
69.934730
 30
0.000000
 42
-0.070793
  0
VERTEX
  8
1_ANYTOOL_1MMDEEP_LABELS_S
 10
58.685714
 20
68.000000
 30
0.000000
 42
-0.064027
  0
VERTEX
  8
1_ANYTOOL_1MMDEEP_LABELS_S
 10
58.468205
 20
66.116591
 30
0.000000
 42
-0.070447
  0
VERTEX
  8
1_ANYTOOL_1MMDEEP_LABELS_S
 10
57.760000
 20
64.361429
 30
0.000000
 42
-0.054374
  0
VERTEX
  8
1_ANYTOOL_1MMDEEP_LABELS_S
 10
57.250220
 20
63.666378
 30
0.000000
 42
-0.074742
  0
VERTEX
  8
1_ANYTOOL_1MMDEEP_LABELS_S
 10
56.583571
 20
63.127143
 30
0.000000
 42
-0.075199
  0
VERTEX
  8
1_ANYTOOL_1MMDEEP_LABELS_S
 10
55.799744
 20
62.813339
 30
0.000000
 42
-0.057737
  0
VERTEX
  8
1_ANYTOOL_1MMDEEP_LABELS_S
 10
54.957143
 20
62.715715
 30
0.000000
  0
SEQEND
  8
1_ANYTOOL_1MMDEEP_LABELS_S
  0
LINE
  8
1_ANYTOOL_1MMDEEP_LABELS_S
 10
40.480000
 20
60.067143
 30
0.000000
 11
58.480000
 21
48.727143
 31
0.000000
  0
LINE
  8
1_ANYTOOL_1MMDEEP_LABELS_S
 10
58.480000
 20
60.812857
 30
0.000000
 11
40.480000
 21
49.447143
 31
0.000000
  0
LINE
  8
1_ANYTOOL_1MMDEEP_LABELS_S
 10
40.480000
 20
46.438572
 30
0.000000
 11
58.480000
 21
35.098572
 31
0.000000
  0
LINE
  8
1_ANYTOOL_1MMDEEP_LABELS_S
 10
58.480000
 20
47.184286
 30
0.000000
 11
40.480000
 21
35.818572
 31
0.000000
  0
LINE
  8
1_ANYTOOL_1MMDEEP_LABELS_S
 10
50.148571
 20
33.041429
 30
0.000000
 11
50.200000
 21
27.770000
 31
0.000000
  0
POLYLINE
  8
1_ANYTOOL_1MMDEEP_LABELS_S
 66
1
 10
0.000000
 20
0.000000
 30
0.000000
 70
0
  0
VERTEX
  8
1_ANYTOOL_1MMDEEP_LABELS_S
 10
50.200000
 20
19.310000
 30
0.000000
  0
VERTEX
  8
1_ANYTOOL_1MMDEEP_LABELS_S
 10
50.225714
 20
25.172857
 30
0.000000
 42
-0.031732
  0
VERTEX
  8
1_ANYTOOL_1MMDEEP_LABELS_S
 10
52.030155
 20
25.011991
 30
0.000000
 42
-0.048764
  0
VERTEX
  8
1_ANYTOOL_1MMDEEP_LABELS_S
 10
53.780714
 20
24.565357
 30
0.000000
 42
-0.050291
  0
VERTEX
  8
1_ANYTOOL_1MMDEEP_LABELS_S
 10
55.167019
 20
23.899530
 30
0.000000
 42
-0.060119
  0
VERTEX
  8
1_ANYTOOL_1MMDEEP_LABELS_S
 10
56.371429
 20
22.948572
 30
0.000000
 42
-0.036578
  0
VERTEX
  8
1_ANYTOOL_1MMDEEP_LABELS_S
 10
57.263278
 20
21.909360
 30
0.000000
 42
-0.050793
  0
VERTEX
  8
1_ANYTOOL_1MMDEEP_LABELS_S
 10
57.959286
 20
20.733929
 30
0.000000
 42
-0.051881
  0
VERTEX
  8
1_ANYTOOL_1MMDEEP_LABELS_S
 10
58.359932
 20
19.562119
 30
0.000000
 42
-0.053919
  0
VERTEX
  8
1_ANYTOOL_1MMDEEP_LABELS_S
 10
58.505714
 20
18.332857
 30
0.000000
 42
-0.055881
  0
VERTEX
  8
1_ANYTOOL_1MMDEEP_LABELS_S
 10
58.381548
 20
17.111769
 30
0.000000
 42
-0.055271
  0
VERTEX
  8
1_ANYTOOL_1MMDEEP_LABELS_S
 10
57.991429
 20
15.947857
 30
0.000000
 42
-0.054030
  0
VERTEX
  8
1_ANYTOOL_1MMDEEP_LABELS_S
 10
57.295912
 20
14.792272
 30
0.000000
 42
-0.038531
  0
VERTEX
  8
1_ANYTOOL_1MMDEEP_LABELS_S
 10
56.397143
 20
13.781429
 30
0.000000
 42
-0.067281
  0
VERTEX
  8
1_ANYTOOL_1MMDEEP_LABELS_S
 10
55.130534
 20
12.852801
 30
0.000000
 42
-0.049165
  0
VERTEX
  8
1_ANYTOOL_1MMDEEP_LABELS_S
 10
53.677857
 20
12.238572
 30
0.000000
 42
-0.047412
  0
VERTEX
  8
1_ANYTOOL_1MMDEEP_LABELS_S
 10
51.755506
 20
11.834816
 30
0.000000
 42
-0.028075
  0
VERTEX
  8
1_ANYTOOL_1MMDEEP_LABELS_S
 10
49.788571
 20
11.724286
 30
0.000000
 42
-0.064070
  0
VERTEX
  8
1_ANYTOOL_1MMDEEP_LABELS_S
 10
46.548556
 20
12.141172
 30
0.000000
 42
-0.058297
  0
VERTEX
  8
1_ANYTOOL_1MMDEEP_LABELS_S
 10
43.501429
 20
13.331429
 30
0.000000
 42
-0.064555
  0
VERTEX
  8
1_ANYTOOL_1MMDEEP_LABELS_S
 10
42.210514
 20
14.248711
 30
0.000000
 42
-0.078906
  0
VERTEX
  8
1_ANYTOOL_1MMDEEP_LABELS_S
 10
41.235357
 20
15.488215
 30
0.000000
 42
-0.076878
  0
VERTEX
  8
1_ANYTOOL_1MMDEEP_LABELS_S
 10
40.650627
 20
17.062375
 30
0.000000
 42
-0.050594
  0
VERTEX
  8
1_ANYTOOL_1MMDEEP_LABELS_S
 10
40.480000
 20
18.744286
 30
0.000000
 42
-0.039946
  0
VERTEX
  8
1_ANYTOOL_1MMDEEP_LABELS_S
 10
40.559678
 20
19.740023
 30
0.000000
 42
-0.052714
  0
VERTEX
  8
1_ANYTOOL_1MMDEEP_LABELS_S
 10
40.820714
 20
20.701786
 30
0.000000
 42
-0.053511
  0
VERTEX
  8
1_ANYTOOL_1MMDEEP_LABELS_S
 10
41.249915
 20
21.531704
 30
0.000000
 42
-0.051530
  0
VERTEX
  8
1_ANYTOOL_1MMDEEP_LABELS_S
 10
41.842857
 20
22.254286
 30
0.000000
 42
-0.040443
  0
VERTEX
  8
1_ANYTOOL_1MMDEEP_LABELS_S
 10
43.296742
 20
23.478420
 30
0.000000
 42
-0.040350
  0
VERTEX
  8
1_ANYTOOL_1MMDEEP_LABELS_S
 10
44.928571
 20
24.452857
 30
0.000000
  0
SEQEND
  8
1_ANYTOOL_1MMDEEP_LABELS_S
  0
POLYLINE
  8
4_ANYTOOL_CUTTHROUGH_OUTSI
 66
1
 10
0.000000
 20
0.000000
 30
0.000000
 70
1
  0
VERTEX
  8
4_ANYTOOL_CUTTHROUGH_OUTSI
 10
12.500000
 20
18.000000
 30
0.000000
  0
VERTEX
  8
4_ANYTOOL_CUTTHROUGH_OUTSI
 10
12.500000
 20
23.750000
 30
0.000000
 42
-0.414214
  0
VERTEX
  8
4_ANYTOOL_CUTTHROUGH_OUTSI
 10
12.750000
 20
24.000000
 30
0.000000
  0
VERTEX
  8
4_ANYTOOL_CUTTHROUGH_OUTSI
 10
24.750000
 20
24.000000
 30
0.000000
 42
-0.414214
  0
VERTEX
  8
4_ANYTOOL_CUTTHROUGH_OUTSI
 10
25.000000
 20
23.750000
 30
0.000000
  0
VERTEX
  8
4_ANYTOOL_CUTTHROUGH_OUTSI
 10
25.000000
 20
0.000000
 30
0.000000
  0
VERTEX
  8
4_ANYTOOL_CUTTHROUGH_OUTSI
 10
74.500000
 20
0.000000
 30
0.000000
  0
VERTEX
  8
4_ANYTOOL_CUTTHROUGH_OUTSI
 10
74.500000
 20
23.750000
 30
0.000000
 42
-0.414214
  0
VERTEX
  8
4_ANYTOOL_CUTTHROUGH_OUTSI
 10
74.750000
 20
24.000000
 30
0.000000
  0
VERTEX
  8
4_ANYTOOL_CUTTHROUGH_OUTSI
 10
86.750000
 20
24.000000
 30
0.000000
 42
-0.414214
  0
VERTEX
  8
4_ANYTOOL_CUTTHROUGH_OUTSI
 10
87.000000
 20
23.750000
 30
0.000000
  0
VERTEX
  8
4_ANYTOOL_CUTTHROUGH_OUTSI
 10
87.000000
 20
18.000000
 30
0.000000
  0
VERTEX
  8
4_ANYTOOL_CUTTHROUGH_OUTSI
 10
99.500000
 20
18.000000
 30
0.000000
  0
VERTEX
  8
4_ANYTOOL_CUTTHROUGH_OUTSI
 10
99.500000
 20
167.500000
 30
0.000000
  0
VERTEX
  8
4_ANYTOOL_CUTTHROUGH_OUTSI
 10
87.000000
 20
167.500000
 30
0.000000
  0
VERTEX
  8
4_ANYTOOL_CUTTHROUGH_OUTSI
 10
87.000000
 20
161.750000
 30
0.000000
 42
-0.414214
  0
VERTEX
  8
4_ANYTOOL_CUTTHROUGH_OUTSI
 10
86.750000
 20
161.500000
 30
0.000000
  0
VERTEX
  8
4_ANYTOOL_CUTTHROUGH_OUTSI
 10
74.750000
 20
161.500000
 30
0.000000
 42
-0.414214
  0
VERTEX
  8
4_ANYTOOL_CUTTHROUGH_OUTSI
 10
74.500000
 20
161.750000
 30
0.000000
  0
VERTEX
  8
4_ANYTOOL_CUTTHROUGH_OUTSI
 10
74.500000
 20
185.500000
 30
0.000000
  0
VERTEX
  8
4_ANYTOOL_CUTTHROUGH_OUTSI
 10
25.000000
 20
185.500000
 30
0.000000
  0
VERTEX
  8
4_ANYTOOL_CUTTHROUGH_OUTSI
 10
25.000000
 20
161.750000
 30
0.000000
 42
-0.414214
  0
VERTEX
  8
4_ANYTOOL_CUTTHROUGH_OUTSI
 10
24.750000
 20
161.500000
 30
0.000000
  0
VERTEX
  8
4_ANYTOOL_CUTTHROUGH_OUTSI
 10
12.750000
 20
161.500000
 30
0.000000
 42
-0.414214
  0
VERTEX
  8
4_ANYTOOL_CUTTHROUGH_OUTSI
 10
12.500000
 20
161.750000
 30
0.000000
  0
VERTEX
  8
4_ANYTOOL_CUTTHROUGH_OUTSI
 10
12.500000
 20
167.500000
 30
0.000000
  0
VERTEX
  8
4_ANYTOOL_CUTTHROUGH_OUTSI
 10
0.000000
 20
167.500000
 30
0.000000
  0
VERTEX
  8
4_ANYTOOL_CUTTHROUGH_OUTSI
 10
0.000000
 20
18.000000
 30
0.000000
  0
SEQEND
  8
4_ANYTOOL_CUTTHROUGH_OUTSI
  0
ENDSEC
  0
EOF
