  0
SECTION
  2
HEADER
  9
$ACADVER
  1
AC1009
  9
$INSBASE
 10
0.000000
 20
0.000000
 30
0.000000
  9
$EXTMIN
 10
0.000000
 20
0.000000
 30
0.000000
  9
$EXTMAX
 10
325.112760
 20
185.500019
 30
0.000000
  0
ENDSEC
  0
SECTION
  2
TABLES
  0
TABLE
  2
LTYPE
 70
1
  0
LTYPE
  2
CONTINUOUS
 70
0
  3
Solid line
 72
65
 73
0
 40
0.000000
  0
ENDTAB
  0
TABLE
  2
LAYER
 70
4
  0
LAYER
  2
0
 70
0
 62
7
  6
CONTINUOUS
  0
LAYER
  2
1_ANYTOOL_1MMDEEP_LABELS_S
 70
0
 62
2
  6
CONTINUOUS
  0
LAYER
  2
5_ANYTOOL_HALF_MILL_9MM_IN
 70
0
 62
3
  6
CONTINUOUS
  0
LAYER
  2
4_ANYTOOL_CUTTHROUGH_OUTSI
 70
0
 62
5
  6
CONTINUOUS
  0
ENDTAB
  0
ENDSEC
  0
SECTION
  2
ENTITIES
  0
POLYLINE
  8
1_ANYTOOL_1MMDEEP_LABELS_S
 66
1
 10
0.000000
 20
0.000000
 30
0.000000
 70
0
  0
VERTEX
  8
1_ANYTOOL_1MMDEEP_LABELS_S
 10
287.773400
 20
86.164236
 30
0.000000
  0
VERTEX
  8
1_ANYTOOL_1MMDEEP_LABELS_S
 10
297.544829
 20
86.121379
 30
0.000000
 42
-0.031732
  0
VERTEX
  8
1_ANYTOOL_1MMDEEP_LABELS_S
 10
297.276718
 20
83.113977
 30
0.000000
 42
-0.048764
  0
VERTEX
  8
1_ANYTOOL_1MMDEEP_LABELS_S
 10
296.532329
 20
80.196379
 30
0.000000
 42
-0.050291
  0
VERTEX
  8
1_ANYTOOL_1MMDEEP_LABELS_S
 10
295.422616
 20
77.885871
 30
0.000000
 42
-0.060119
  0
VERTEX
  8
1_ANYTOOL_1MMDEEP_LABELS_S
 10
293.837686
 20
75.878522
 30
0.000000
 42
-0.036578
  0
VERTEX
  8
1_ANYTOOL_1MMDEEP_LABELS_S
 10
292.105666
 20
74.392105
 30
0.000000
 42
-0.050793
  0
VERTEX
  8
1_ANYTOOL_1MMDEEP_LABELS_S
 10
290.146615
 20
73.232093
 30
0.000000
 42
-0.051881
  0
VERTEX
  8
1_ANYTOOL_1MMDEEP_LABELS_S
 10
288.193598
 20
72.564349
 30
0.000000
 42
-0.053919
  0
VERTEX
  8
1_ANYTOOL_1MMDEEP_LABELS_S
 10
286.144829
 20
72.321379
 30
0.000000
 42
-0.055881
  0
VERTEX
  8
1_ANYTOOL_1MMDEEP_LABELS_S
 10
284.109682
 20
72.528323
 30
0.000000
 42
-0.055271
  0
VERTEX
  8
1_ANYTOOL_1MMDEEP_LABELS_S
 10
282.169829
 20
73.178522
 30
0.000000
 42
-0.054030
  0
VERTEX
  8
1_ANYTOOL_1MMDEEP_LABELS_S
 10
280.243853
 20
74.337715
 30
0.000000
 42
-0.038531
  0
VERTEX
  8
1_ANYTOOL_1MMDEEP_LABELS_S
 10
278.559115
 20
75.835665
 30
0.000000
 42
-0.067281
  0
VERTEX
  8
1_ANYTOOL_1MMDEEP_LABELS_S
 10
277.011401
 20
77.946679
 30
0.000000
 42
-0.049165
  0
VERTEX
  8
1_ANYTOOL_1MMDEEP_LABELS_S
 10
275.987686
 20
80.367808
 30
0.000000
 42
-0.047412
  0
VERTEX
  8
1_ANYTOOL_1MMDEEP_LABELS_S
 10
275.314759
 20
83.571726
 30
0.000000
 42
-0.028075
  0
VERTEX
  8
1_ANYTOOL_1MMDEEP_LABELS_S
 10
275.130543
 20
86.849950
 30
0.000000
 42
-0.031090
  0
VERTEX
  8
1_ANYTOOL_1MMDEEP_LABELS_S
 10
275.298070
 20
89.541530
 30
0.000000
 42
-0.031496
  0
VERTEX
  8
1_ANYTOOL_1MMDEEP_LABELS_S
 10
275.800186
 20
92.191022
 30
0.000000
 42
-0.031425
  0
VERTEX
  8
1_ANYTOOL_1MMDEEP_LABELS_S
 10
276.651059
 20
94.819266
 30
0.000000
 42
-0.028240
  0
VERTEX
  8
1_ANYTOOL_1MMDEEP_LABELS_S
 10
277.809115
 20
97.328522
 30
0.000000
 42
-0.064555
  0
VERTEX
  8
1_ANYTOOL_1MMDEEP_LABELS_S
 10
279.337918
 20
99.480047
 30
0.000000
 42
-0.078906
  0
VERTEX
  8
1_ANYTOOL_1MMDEEP_LABELS_S
 10
281.403757
 20
101.105308
 30
0.000000
 42
-0.076878
  0
VERTEX
  8
1_ANYTOOL_1MMDEEP_LABELS_S
 10
284.027359
 20
102.079857
 30
0.000000
 42
-0.050594
  0
VERTEX
  8
1_ANYTOOL_1MMDEEP_LABELS_S
 10
286.830543
 20
102.364236
 30
0.000000
 42
-0.039946
  0
VERTEX
  8
1_ANYTOOL_1MMDEEP_LABELS_S
 10
288.490104
 20
102.231439
 30
0.000000
 42
-0.052714
  0
VERTEX
  8
1_ANYTOOL_1MMDEEP_LABELS_S
 10
290.093043
 20
101.796379
 30
0.000000
 42
-0.053511
  0
VERTEX
  8
1_ANYTOOL_1MMDEEP_LABELS_S
 10
291.476240
 20
101.081045
 30
0.000000
 42
-0.051530
  0
VERTEX
  8
1_ANYTOOL_1MMDEEP_LABELS_S
 10
292.680543
 20
100.092808
 30
0.000000
 42
-0.040443
  0
VERTEX
  8
1_ANYTOOL_1MMDEEP_LABELS_S
 10
294.720767
 20
97.669666
 30
0.000000
 42
-0.040350
  0
VERTEX
  8
1_ANYTOOL_1MMDEEP_LABELS_S
 10
296.344829
 20
94.949950
 30
0.000000
  0
SEQEND
  8
1_ANYTOOL_1MMDEEP_LABELS_S
  0
LINE
  8
1_ANYTOOL_1MMDEEP_LABELS_S
 10
272.559115
 20
101.892808
 30
0.000000
 11
255.373400
 21
71.121379
 31
0.000000
  0
POLYLINE
  8
1_ANYTOOL_1MMDEEP_LABELS_S
 66
1
 10
0.000000
 20
0.000000
 30
0.000000
 70
0
  0
VERTEX
  8
1_ANYTOOL_1MMDEEP_LABELS_S
 10
233.601972
 20
72.364236
 30
0.000000
  0
VERTEX
  8
1_ANYTOOL_1MMDEEP_LABELS_S
 10
233.601972
 20
102.364236
 30
0.000000
  0
VERTEX
  8
1_ANYTOOL_1MMDEEP_LABELS_S
 10
244.959115
 20
102.364236
 30
0.000000
 42
-0.030274
  0
VERTEX
  8
1_ANYTOOL_1MMDEEP_LABELS_S
 10
246.724928
 20
102.257221
 30
0.000000
 42
-0.049000
  0
VERTEX
  8
1_ANYTOOL_1MMDEEP_LABELS_S
 10
248.446615
 20
101.874058
 30
0.000000
 42
-0.050774
  0
VERTEX
  8
1_ANYTOOL_1MMDEEP_LABELS_S
 10
249.779137
 20
101.281602
 30
0.000000
 42
-0.064450
  0
VERTEX
  8
1_ANYTOOL_1MMDEEP_LABELS_S
 10
250.937686
 20
100.403522
 30
0.000000
 42
-0.064600
  0
VERTEX
  8
1_ANYTOOL_1MMDEEP_LABELS_S
 10
251.827597
 20
99.267491
 30
0.000000
 42
-0.052254
  0
VERTEX
  8
1_ANYTOOL_1MMDEEP_LABELS_S
 10
252.432329
 20
97.952629
 30
0.000000
 42
-0.050381
  0
VERTEX
  8
1_ANYTOOL_1MMDEEP_LABELS_S
 10
252.821464
 20
96.260080
 30
0.000000
 42
-0.031337
  0
VERTEX
  8
1_ANYTOOL_1MMDEEP_LABELS_S
 10
252.930543
 20
94.521379
 30
0.000000
 42
-0.040022
  0
VERTEX
  8
1_ANYTOOL_1MMDEEP_LABELS_S
 10
252.820382
 20
93.147322
 30
0.000000
 42
-0.042626
  0
VERTEX
  8
1_ANYTOOL_1MMDEEP_LABELS_S
 10
252.485900
 20
91.810665
 30
0.000000
 42
-0.042470
  0
VERTEX
  8
1_ANYTOOL_1MMDEEP_LABELS_S
 10
251.917216
 20
90.520945
 30
0.000000
 42
-0.036572
  0
VERTEX
  8
1_ANYTOOL_1MMDEEP_LABELS_S
 10
251.151972
 20
89.335665
 30
0.000000
 42
-0.051097
  0
VERTEX
  8
1_ANYTOOL_1MMDEEP_LABELS_S
 10
250.210194
 20
88.321710
 30
0.000000
 42
-0.061981
  0
VERTEX
  8
1_ANYTOOL_1MMDEEP_LABELS_S
 10
249.068043
 20
87.546379
 30
0.000000
 42
-0.061813
  0
VERTEX
  8
1_ANYTOOL_1MMDEEP_LABELS_S
 10
247.759041
 20
87.069879
 30
0.000000
 42
-0.049309
  0
VERTEX
  8
1_ANYTOOL_1MMDEEP_LABELS_S
 10
246.373400
 20
86.892808
 30
0.000000
 42
-0.003273
  0
VERTEX
  8
1_ANYTOOL_1MMDEEP_LABELS_S
 10
245.505750
 20
86.855116
 30
0.000000
 42
-0.003121
  0
VERTEX
  8
1_ANYTOOL_1MMDEEP_LABELS_S
 10
244.637686
 20
86.828522
 30
0.000000
 42
-0.003882
  0
VERTEX
  8
1_ANYTOOL_1MMDEEP_LABELS_S
 10
243.619905
 20
86.811602
 30
0.000000
 42
-0.002215
  0
VERTEX
  8
1_ANYTOOL_1MMDEEP_LABELS_S
 10
242.601972
 20
86.807093
 30
0.000000
  0
VERTEX
  8
1_ANYTOOL_1MMDEEP_LABELS_S
 10
233.644829
 20
86.807093
 30
0.000000
  0
SEQEND
  8
1_ANYTOOL_1MMDEEP_LABELS_S
  0
LINE
  8
1_ANYTOOL_1MMDEEP_LABELS_S
 10
242.601972
 20
86.807093
 30
0.000000
 11
253.059115
 21
72.321379
 31
0.000000
  0
POLYLINE
  8
1_ANYTOOL_1MMDEEP_LABELS_S
 66
1
 10
0.000000
 20
0.000000
 30
0.000000
 70
0
  0
VERTEX
  8
1_ANYTOOL_1MMDEEP_LABELS_S
 10
211.487686
 20
97.435665
 30
0.000000
 42
-0.060092
  0
VERTEX
  8
1_ANYTOOL_1MMDEEP_LABELS_S
 10
212.875903
 20
99.521798
 30
0.000000
 42
-0.080583
  0
VERTEX
  8
1_ANYTOOL_1MMDEEP_LABELS_S
 10
214.776972
 20
101.132093
 30
0.000000
 42
-0.079919
  0
VERTEX
  8
1_ANYTOOL_1MMDEEP_LABELS_S
 10
217.133037
 20
102.079859
 30
0.000000
 42
-0.055798
  0
VERTEX
  8
1_ANYTOOL_1MMDEEP_LABELS_S
 10
219.673400
 20
102.364236
 30
0.000000
 42
-0.035013
  0
VERTEX
  8
1_ANYTOOL_1MMDEEP_LABELS_S
 10
221.229300
 20
102.255149
 30
0.000000
 42
-0.047512
  0
VERTEX
  8
1_ANYTOOL_1MMDEEP_LABELS_S
 10
222.743043
 20
101.892808
 30
0.000000
 42
-0.048382
  0
VERTEX
  8
1_ANYTOOL_1MMDEEP_LABELS_S
 10
224.032469
 20
101.306768
 30
0.000000
 42
-0.050886
  0
VERTEX
  8
1_ANYTOOL_1MMDEEP_LABELS_S
 10
225.180543
 20
100.478522
 30
0.000000
 42
-0.060051
  0
VERTEX
  8
1_ANYTOOL_1MMDEEP_LABELS_S
 10
226.106447
 20
99.431734
 30
0.000000
 42
-0.058597
  0
VERTEX
  8
1_ANYTOOL_1MMDEEP_LABELS_S
 10
226.760900
 20
98.196379
 30
0.000000
 42
-0.056917
  0
VERTEX
  8
1_ANYTOOL_1MMDEEP_LABELS_S
 10
227.157030
 20
96.685464
 30
0.000000
 42
-0.038780
  0
VERTEX
  8
1_ANYTOOL_1MMDEEP_LABELS_S
 10
227.259115
 20
95.121379
 30
0.000000
 42
-0.025440
  0
VERTEX
  8
1_ANYTOOL_1MMDEEP_LABELS_S
 10
227.196099
 20
93.883662
 30
0.000000
 42
-0.041152
  0
VERTEX
  8
1_ANYTOOL_1MMDEEP_LABELS_S
 10
226.969829
 20
92.667808
 30
0.000000
 42
-0.042175
  0
VERTEX
  8
1_ANYTOOL_1MMDEEP_LABELS_S
 10
226.626015
 20
91.727537
 30
0.000000
 42
-0.059142
  0
VERTEX
  8
1_ANYTOOL_1MMDEEP_LABELS_S
 10
226.101972
 20
90.878522
 30
0.000000
 42
-0.068767
  0
VERTEX
  8
1_ANYTOOL_1MMDEEP_LABELS_S
 10
224.811275
 20
89.646027
 30
0.000000
 42
-0.072211
  0
VERTEX
  8
1_ANYTOOL_1MMDEEP_LABELS_S
 10
223.230543
 20
88.821379
 30
0.000000
 42
-0.043093
  0
VERTEX
  8
1_ANYTOOL_1MMDEEP_LABELS_S
 10
221.403432
 20
88.353786
 30
0.000000
 42
-0.035742
  0
VERTEX
  8
1_ANYTOOL_1MMDEEP_LABELS_S
 10
219.523400
 20
88.178522
 30
0.000000
 42
-0.002283
  0
VERTEX
  8
1_ANYTOOL_1MMDEEP_LABELS_S
 10
217.669936
 20
88.147129
 30
0.000000
 42
-0.003092
  0
VERTEX
  8
1_ANYTOOL_1MMDEEP_LABELS_S
 10
215.816257
 20
88.135665
 30
0.000000
  0
SEQEND
  8
1_ANYTOOL_1MMDEEP_LABELS_S
  0
POLYLINE
  8
1_ANYTOOL_1MMDEEP_LABELS_S
 66
1
 10
0.000000
 20
0.000000
 30
0.000000
 70
0
  0
VERTEX
  8
1_ANYTOOL_1MMDEEP_LABELS_S
 10
218.601972
 20
88.135665
 30
0.000000
 42
-0.052004
  0
VERTEX
  8
1_ANYTOOL_1MMDEEP_LABELS_S
 10
221.935054
 20
87.622862
 30
0.000000
 42
-0.057563
  0
VERTEX
  8
1_ANYTOOL_1MMDEEP_LABELS_S
 10
225.073400
 20
86.399950
 30
0.000000
 42
-0.070633
  0
VERTEX
  8
1_ANYTOOL_1MMDEEP_LABELS_S
 10
226.347936
 20
85.475347
 30
0.000000
 42
-0.079113
  0
VERTEX
  8
1_ANYTOOL_1MMDEEP_LABELS_S
 10
227.291257
 20
84.219593
 30
0.000000
 42
-0.075641
  0
VERTEX
  8
1_ANYTOOL_1MMDEEP_LABELS_S
 10
227.868045
 20
82.564735
 30
0.000000
 42
-0.046128
  0
VERTEX
  8
1_ANYTOOL_1MMDEEP_LABELS_S
 10
228.030543
 20
80.807093
 30
0.000000
 42
-0.033924
  0
VERTEX
  8
1_ANYTOOL_1MMDEEP_LABELS_S
 10
227.896946
 20
78.840319
 30
0.000000
 42
-0.057836
  0
VERTEX
  8
1_ANYTOOL_1MMDEEP_LABELS_S
 10
227.409115
 20
76.939236
 30
0.000000
 42
-0.060832
  0
VERTEX
  8
1_ANYTOOL_1MMDEEP_LABELS_S
 10
226.650137
 20
75.510262
 30
0.000000
 42
-0.072757
  0
VERTEX
  8
1_ANYTOOL_1MMDEEP_LABELS_S
 10
225.544829
 20
74.335665
 30
0.000000
 42
-0.053580
  0
VERTEX
  8
1_ANYTOOL_1MMDEEP_LABELS_S
 10
224.150237
 20
73.454583
 30
0.000000
 42
-0.043301
  0
VERTEX
  8
1_ANYTOOL_1MMDEEP_LABELS_S
 10
222.609115
 20
72.857093
 30
0.000000
 42
-0.042335
  0
VERTEX
  8
1_ANYTOOL_1MMDEEP_LABELS_S
 10
220.710627
 20
72.474844
 30
0.000000
 42
-0.028525
  0
VERTEX
  8
1_ANYTOOL_1MMDEEP_LABELS_S
 10
218.773400
 20
72.364236
 30
0.000000
 42
-0.059964
  0
VERTEX
  8
1_ANYTOOL_1MMDEEP_LABELS_S
 10
216.061899
 20
72.690594
 30
0.000000
 42
-0.089395
  0
VERTEX
  8
1_ANYTOOL_1MMDEEP_LABELS_S
 10
213.587686
 20
73.789236
 30
0.000000
 42
-0.089624
  0
VERTEX
  8
1_ANYTOOL_1MMDEEP_LABELS_S
 10
211.663519
 20
75.673683
 30
0.000000
 42
-0.061164
  0
VERTEX
  8
1_ANYTOOL_1MMDEEP_LABELS_S
 10
210.373400
 20
78.064236
 30
0.000000
  0
SEQEND
  8
1_ANYTOOL_1MMDEEP_LABELS_S
  0
LINE
  8
1_ANYTOOL_1MMDEEP_LABELS_S
 10
206.516257
 20
86.249950
 30
0.000000
 11
197.730543
 21
86.164236
 31
0.000000
  0
POLYLINE
  8
1_ANYTOOL_1MMDEEP_LABELS_S
 66
1
 10
0.000000
 20
0.000000
 30
0.000000
 70
0
  0
VERTEX
  8
1_ANYTOOL_1MMDEEP_LABELS_S
 10
192.801972
 20
72.407093
 30
0.000000
  0
VERTEX
  8
1_ANYTOOL_1MMDEEP_LABELS_S
 10
174.501972
 20
72.449950
 30
0.000000
 42
-0.034491
  0
VERTEX
  8
1_ANYTOOL_1MMDEEP_LABELS_S
 10
175.164750
 20
74.197282
 30
0.000000
 42
-0.037732
  0
VERTEX
  8
1_ANYTOOL_1MMDEEP_LABELS_S
 10
176.071615
 20
75.830308
 30
0.000000
 42
-0.037744
  0
VERTEX
  8
1_ANYTOOL_1MMDEEP_LABELS_S
 10
177.210909
 20
77.304944
 30
0.000000
 42
-0.034820
  0
VERTEX
  8
1_ANYTOOL_1MMDEEP_LABELS_S
 10
178.551972
 20
78.599950
 30
0.000000
 42
-0.008590
  0
VERTEX
  8
1_ANYTOOL_1MMDEEP_LABELS_S
 10
181.511197
 20
80.998533
 30
0.000000
 42
-0.008791
  0
VERTEX
  8
1_ANYTOOL_1MMDEEP_LABELS_S
 10
184.551972
 20
83.292808
 30
0.000000
 42
0.020588
  0
VERTEX
  8
1_ANYTOOL_1MMDEEP_LABELS_S
 10
187.371260
 20
85.526250
 30
0.000000
 42
0.025206
  0
VERTEX
  8
1_ANYTOOL_1MMDEEP_LABELS_S
 10
189.973400
 20
88.007093
 30
0.000000
 42
0.046908
  0
VERTEX
  8
1_ANYTOOL_1MMDEEP_LABELS_S
 10
190.993995
 20
89.308335
 30
0.000000
 42
0.051091
  0
VERTEX
  8
1_ANYTOOL_1MMDEEP_LABELS_S
 10
191.741257
 20
90.782093
 30
0.000000
 42
0.050722
  0
VERTEX
  8
1_ANYTOOL_1MMDEEP_LABELS_S
 10
192.189990
 20
92.430268
 30
0.000000
 42
0.041139
  0
VERTEX
  8
1_ANYTOOL_1MMDEEP_LABELS_S
 10
192.330543
 20
94.135665
 30
0.000000
 42
0.039396
  0
VERTEX
  8
1_ANYTOOL_1MMDEEP_LABELS_S
 10
192.187898
 20
95.943251
 30
0.000000
 42
0.058519
  0
VERTEX
  8
1_ANYTOOL_1MMDEEP_LABELS_S
 10
191.698400
 20
97.682093
 30
0.000000
 42
0.060358
  0
VERTEX
  8
1_ANYTOOL_1MMDEEP_LABELS_S
 10
190.907843
 20
99.089209
 30
0.000000
 42
0.061397
  0
VERTEX
  8
1_ANYTOOL_1MMDEEP_LABELS_S
 10
189.801972
 20
100.264236
 30
0.000000
 42
0.048006
  0
VERTEX
  8
1_ANYTOOL_1MMDEEP_LABELS_S
 10
188.446015
 20
101.186196
 30
0.000000
 42
0.045901
  0
VERTEX
  8
1_ANYTOOL_1MMDEEP_LABELS_S
 10
186.941257
 20
101.839236
 30
0.000000
 42
0.045216
  0
VERTEX
  8
1_ANYTOOL_1MMDEEP_LABELS_S
 10
185.201196
 20
102.241796
 30
0.000000
 42
0.034258
  0
VERTEX
  8
1_ANYTOOL_1MMDEEP_LABELS_S
 10
183.416257
 20
102.364236
 30
0.000000
 42
0.055622
  0
VERTEX
  8
1_ANYTOOL_1MMDEEP_LABELS_S
 10
180.781687
 20
102.070249
 30
0.000000
 42
0.079896
  0
VERTEX
  8
1_ANYTOOL_1MMDEEP_LABELS_S
 10
178.337686
 20
101.089236
 30
0.000000
 42
0.080617
  0
VERTEX
  8
1_ANYTOOL_1MMDEEP_LABELS_S
 10
176.368299
 20
99.423536
 30
0.000000
 42
0.060287
  0
VERTEX
  8
1_ANYTOOL_1MMDEEP_LABELS_S
 10
174.930543
 20
97.264236
 30
0.000000
  0
SEQEND
  8
1_ANYTOOL_1MMDEEP_LABELS_S
  0
LINE
  8
1_ANYTOOL_1MMDEEP_LABELS_S
 10
146.601972
 20
81.021379
 30
0.000000
 11
168.373400
 21
81.021379
 31
0.000000
  0
POLYLINE
  8
1_ANYTOOL_1MMDEEP_LABELS_S
 66
1
 10
0.000000
 20
0.000000
 30
0.000000
 70
0
  0
VERTEX
  8
1_ANYTOOL_1MMDEEP_LABELS_S
 10
162.587686
 20
72.364236
 30
0.000000
  0
VERTEX
  8
1_ANYTOOL_1MMDEEP_LABELS_S
 10
162.630543
 20
102.407093
 30
0.000000
  0
VERTEX
  8
1_ANYTOOL_1MMDEEP_LABELS_S
 10
146.601972
 20
81.021379
 30
0.000000
  0
SEQEND
  8
1_ANYTOOL_1MMDEEP_LABELS_S
  0
LINE
  8
1_ANYTOOL_1MMDEEP_LABELS_S
 10
142.316257
 20
86.249950
 30
0.000000
 11
133.530543
 21
86.164236
 31
0.000000
  0
POLYLINE
  8
1_ANYTOOL_1MMDEEP_LABELS_S
 66
1
 10
0.000000
 20
0.000000
 30
0.000000
 70
0
  0
VERTEX
  8
1_ANYTOOL_1MMDEEP_LABELS_S
 10
129.501972
 20
97.778522
 30
0.000000
 42
0.071867
  0
VERTEX
  8
1_ANYTOOL_1MMDEEP_LABELS_S
 10
129.308858
 20
99.115129
 30
0.000000
 42
0.100684
  0
VERTEX
  8
1_ANYTOOL_1MMDEEP_LABELS_S
 10
128.682329
 20
100.296379
 30
0.000000
 42
0.047558
  0
VERTEX
  8
1_ANYTOOL_1MMDEEP_LABELS_S
 10
128.207775
 20
100.772829
 30
0.000000
 42
0.038563
  0
VERTEX
  8
1_ANYTOOL_1MMDEEP_LABELS_S
 10
127.657775
 20
101.161558
 30
0.000000
 42
0.037928
  0
VERTEX
  8
1_ANYTOOL_1MMDEEP_LABELS_S
 10
126.960588
 20
101.509026
 30
0.000000
 42
0.026634
  0
VERTEX
  8
1_ANYTOOL_1MMDEEP_LABELS_S
 10
126.223400
 20
101.764236
 30
0.000000
 42
0.028461
  0
VERTEX
  8
1_ANYTOOL_1MMDEEP_LABELS_S
 10
123.200067
 20
102.450219
 30
0.000000
 42
0.041577
  0
VERTEX
  8
1_ANYTOOL_1MMDEEP_LABELS_S
 10
120.116257
 20
102.707093
 30
0.000000
 42
0.036938
  0
VERTEX
  8
1_ANYTOOL_1MMDEEP_LABELS_S
 10
118.613898
 20
102.595954
 30
0.000000
 42
0.041531
  0
VERTEX
  8
1_ANYTOOL_1MMDEEP_LABELS_S
 10
117.148400
 20
102.251736
 30
0.000000
 42
0.041583
  0
VERTEX
  8
1_ANYTOOL_1MMDEEP_LABELS_S
 10
115.771023
 20
101.674528
 30
0.000000
 42
0.038125
  0
VERTEX
  8
1_ANYTOOL_1MMDEEP_LABELS_S
 10
114.501972
 20
100.885665
 30
0.000000
 42
0.057611
  0
VERTEX
  8
1_ANYTOOL_1MMDEEP_LABELS_S
 10
113.431819
 20
99.893760
 30
0.000000
 42
0.065808
  0
VERTEX
  8
1_ANYTOOL_1MMDEEP_LABELS_S
 10
112.637686
 20
98.673165
 30
0.000000
 42
0.064690
  0
VERTEX
  8
1_ANYTOOL_1MMDEEP_LABELS_S
 10
112.160190
 20
97.213610
 30
0.000000
 42
0.046778
  0
VERTEX
  8
1_ANYTOOL_1MMDEEP_LABELS_S
 10
112.016257
 20
95.678522
 30
0.000000
 42
0.052235
  0
VERTEX
  8
1_ANYTOOL_1MMDEEP_LABELS_S
 10
112.178613
 20
94.128680
 30
0.000000
 42
0.075448
  0
VERTEX
  8
1_ANYTOOL_1MMDEEP_LABELS_S
 10
112.723400
 20
92.678522
 30
0.000000
 42
0.076671
  0
VERTEX
  8
1_ANYTOOL_1MMDEEP_LABELS_S
 10
113.639492
 20
91.505469
 30
0.000000
 42
0.061023
  0
VERTEX
  8
1_ANYTOOL_1MMDEEP_LABELS_S
 10
114.844829
 20
90.621379
 30
0.000000
 42
0.021951
  0
VERTEX
  8
1_ANYTOOL_1MMDEEP_LABELS_S
 10
117.873683
 20
89.094033
 30
0.000000
 42
0.018213
  0
VERTEX
  8
1_ANYTOOL_1MMDEEP_LABELS_S
 10
121.016257
 20
87.814236
 30
0.000000
 42
-0.024050
  0
VERTEX
  8
1_ANYTOOL_1MMDEEP_LABELS_S
 10
124.117742
 20
86.508774
 30
0.000000
 42
-0.029810
  0
VERTEX
  8
1_ANYTOOL_1MMDEEP_LABELS_S
 10
127.059115
 20
84.878522
 30
0.000000
 42
-0.068439
  0
VERTEX
  8
1_ANYTOOL_1MMDEEP_LABELS_S
 10
128.200416
 20
83.912591
 30
0.000000
 42
-0.079282
  0
VERTEX
  8
1_ANYTOOL_1MMDEEP_LABELS_S
 10
129.009115
 20
82.660665
 30
0.000000
 42
-0.076308
  0
VERTEX
  8
1_ANYTOOL_1MMDEEP_LABELS_S
 10
129.434114
 20
81.081983
 30
0.000000
 42
-0.047772
  0
VERTEX
  8
1_ANYTOOL_1MMDEEP_LABELS_S
 10
129.459115
 20
79.435665
 30
0.000000
 42
-0.046243
  0
VERTEX
  8
1_ANYTOOL_1MMDEEP_LABELS_S
 10
129.165880
 20
77.754705
 30
0.000000
 42
-0.063590
  0
VERTEX
  8
1_ANYTOOL_1MMDEEP_LABELS_S
 10
128.516257
 20
76.183879
 30
0.000000
 42
-0.064671
  0
VERTEX
  8
1_ANYTOOL_1MMDEEP_LABELS_S
 10
127.543434
 20
74.899690
 30
0.000000
 42
-0.057073
  0
VERTEX
  8
1_ANYTOOL_1MMDEEP_LABELS_S
 10
126.287686
 20
73.885665
 30
0.000000
 42
-0.067522
  0
VERTEX
  8
1_ANYTOOL_1MMDEEP_LABELS_S
 10
123.319378
 20
72.522754
 30
0.000000
 42
-0.070793
  0
VERTEX
  8
1_ANYTOOL_1MMDEEP_LABELS_S
 10
120.094829
 20
72.021379
 30
0.000000
 42
-0.064027
  0
VERTEX
  8
1_ANYTOOL_1MMDEEP_LABELS_S
 10
116.955814
 20
72.383894
 30
0.000000
 42
-0.070447
  0
VERTEX
  8
1_ANYTOOL_1MMDEEP_LABELS_S
 10
114.030543
 20
73.564236
 30
0.000000
 42
-0.054374
  0
VERTEX
  8
1_ANYTOOL_1MMDEEP_LABELS_S
 10
112.872126
 20
74.413869
 30
0.000000
 42
-0.074742
  0
VERTEX
  8
1_ANYTOOL_1MMDEEP_LABELS_S
 10
111.973400
 20
75.524950
 30
0.000000
 42
-0.075199
  0
VERTEX
  8
1_ANYTOOL_1MMDEEP_LABELS_S
 10
111.450393
 20
76.831329
 30
0.000000
 42
-0.057737
  0
VERTEX
  8
1_ANYTOOL_1MMDEEP_LABELS_S
 10
111.287686
 20
78.235665
 30
0.000000
  0
SEQEND
  8
1_ANYTOOL_1MMDEEP_LABELS_S
  0
LINE
  8
1_ANYTOOL_1MMDEEP_LABELS_S
 10
106.873400
 20
102.364236
 30
0.000000
 11
87.973400
 21
72.364236
 31
0.000000
  0
LINE
  8
1_ANYTOOL_1MMDEEP_LABELS_S
 10
108.116257
 20
72.364236
 30
0.000000
 11
89.173400
 21
102.364236
 31
0.000000
  0
LINE
  8
1_ANYTOOL_1MMDEEP_LABELS_S
 10
84.159115
 20
102.364236
 30
0.000000
 11
65.259115
 21
72.364236
 31
0.000000
  0
LINE
  8
1_ANYTOOL_1MMDEEP_LABELS_S
 10
85.401972
 20
72.364236
 30
0.000000
 11
66.459115
 21
102.364236
 31
0.000000
  0
LINE
  8
1_ANYTOOL_1MMDEEP_LABELS_S
 10
61.830543
 20
86.249950
 30
0.000000
 11
53.044829
 21
86.164236
 31
0.000000
  0
POLYLINE
  8
1_ANYTOOL_1MMDEEP_LABELS_S
 66
1
 10
0.000000
 20
0.000000
 30
0.000000
 70
0
  0
VERTEX
  8
1_ANYTOOL_1MMDEEP_LABELS_S
 10
38.944829
 20
86.164236
 30
0.000000
  0
VERTEX
  8
1_ANYTOOL_1MMDEEP_LABELS_S
 10
48.716257
 20
86.121379
 30
0.000000
 42
-0.031732
  0
VERTEX
  8
1_ANYTOOL_1MMDEEP_LABELS_S
 10
48.448147
 20
83.113977
 30
0.000000
 42
-0.048764
  0
VERTEX
  8
1_ANYTOOL_1MMDEEP_LABELS_S
 10
47.703757
 20
80.196379
 30
0.000000
 42
-0.050291
  0
VERTEX
  8
1_ANYTOOL_1MMDEEP_LABELS_S
 10
46.594045
 20
77.885871
 30
0.000000
 42
-0.060119
  0
VERTEX
  8
1_ANYTOOL_1MMDEEP_LABELS_S
 10
45.009115
 20
75.878522
 30
0.000000
 42
-0.036578
  0
VERTEX
  8
1_ANYTOOL_1MMDEEP_LABELS_S
 10
43.277095
 20
74.392105
 30
0.000000
 42
-0.050793
  0
VERTEX
  8
1_ANYTOOL_1MMDEEP_LABELS_S
 10
41.318043
 20
73.232093
 30
0.000000
 42
-0.051881
  0
VERTEX
  8
1_ANYTOOL_1MMDEEP_LABELS_S
 10
39.365026
 20
72.564349
 30
0.000000
 42
-0.053919
  0
VERTEX
  8
1_ANYTOOL_1MMDEEP_LABELS_S
 10
37.316257
 20
72.321379
 30
0.000000
 42
-0.055881
  0
VERTEX
  8
1_ANYTOOL_1MMDEEP_LABELS_S
 10
35.281110
 20
72.528323
 30
0.000000
 42
-0.055271
  0
VERTEX
  8
1_ANYTOOL_1MMDEEP_LABELS_S
 10
33.341257
 20
73.178522
 30
0.000000
 42
-0.054030
  0
VERTEX
  8
1_ANYTOOL_1MMDEEP_LABELS_S
 10
31.415281
 20
74.337715
 30
0.000000
 42
-0.038531
  0
VERTEX
  8
1_ANYTOOL_1MMDEEP_LABELS_S
 10
29.730543
 20
75.835665
 30
0.000000
 42
-0.067281
  0
VERTEX
  8
1_ANYTOOL_1MMDEEP_LABELS_S
 10
28.182830
 20
77.946679
 30
0.000000
 42
-0.049165
  0
VERTEX
  8
1_ANYTOOL_1MMDEEP_LABELS_S
 10
27.159115
 20
80.367808
 30
0.000000
 42
-0.047412
  0
VERTEX
  8
1_ANYTOOL_1MMDEEP_LABELS_S
 10
26.486188
 20
83.571726
 30
0.000000
 42
-0.028075
  0
VERTEX
  8
1_ANYTOOL_1MMDEEP_LABELS_S
 10
26.301972
 20
86.849950
 30
0.000000
 42
-0.031090
  0
VERTEX
  8
1_ANYTOOL_1MMDEEP_LABELS_S
 10
26.469498
 20
89.541530
 30
0.000000
 42
-0.031496
  0
VERTEX
  8
1_ANYTOOL_1MMDEEP_LABELS_S
 10
26.971615
 20
92.191022
 30
0.000000
 42
-0.031425
  0
VERTEX
  8
1_ANYTOOL_1MMDEEP_LABELS_S
 10
27.822487
 20
94.819266
 30
0.000000
 42
-0.028240
  0
VERTEX
  8
1_ANYTOOL_1MMDEEP_LABELS_S
 10
28.980543
 20
97.328522
 30
0.000000
 42
-0.064555
  0
VERTEX
  8
1_ANYTOOL_1MMDEEP_LABELS_S
 10
30.509347
 20
99.480047
 30
0.000000
 42
-0.078906
  0
VERTEX
  8
1_ANYTOOL_1MMDEEP_LABELS_S
 10
32.575186
 20
101.105308
 30
0.000000
 42
-0.076878
  0
VERTEX
  8
1_ANYTOOL_1MMDEEP_LABELS_S
 10
35.198787
 20
102.079857
 30
0.000000
 42
-0.050594
  0
VERTEX
  8
1_ANYTOOL_1MMDEEP_LABELS_S
 10
38.001972
 20
102.364236
 30
0.000000
 42
-0.039946
  0
VERTEX
  8
1_ANYTOOL_1MMDEEP_LABELS_S
 10
39.661533
 20
102.231439
 30
0.000000
 42
-0.052714
  0
VERTEX
  8
1_ANYTOOL_1MMDEEP_LABELS_S
 10
41.264472
 20
101.796379
 30
0.000000
 42
-0.053511
  0
VERTEX
  8
1_ANYTOOL_1MMDEEP_LABELS_S
 10
42.647669
 20
101.081045
 30
0.000000
 42
-0.051530
  0
VERTEX
  8
1_ANYTOOL_1MMDEEP_LABELS_S
 10
43.851972
 20
100.092808
 30
0.000000
 42
-0.040443
  0
VERTEX
  8
1_ANYTOOL_1MMDEEP_LABELS_S
 10
45.892196
 20
97.669666
 30
0.000000
 42
-0.040350
  0
VERTEX
  8
1_ANYTOOL_1MMDEEP_LABELS_S
 10
47.516257
 20
94.949950
 30
0.000000
  0
SEQEND
  8
1_ANYTOOL_1MMDEEP_LABELS_S
  0
POLYLINE
  8
5_ANYTOOL_HALF_MILL_9MM_IN
 66
1
 10
0.000000
 20
0.000000
 30
0.000000
 70
1
  0
VERTEX
  8
5_ANYTOOL_HALF_MILL_9MM_IN
 10
233.743552
 20
129.750019
 30
0.000000
 42
1.000000
  0
VERTEX
  8
5_ANYTOOL_HALF_MILL_9MM_IN
 10
276.243552
 20
129.750019
 30
0.000000
  0
VERTEX
  8
5_ANYTOOL_HALF_MILL_9MM_IN
 10
276.243552
 20
136.000019
 30
0.000000
  0
VERTEX
  8
5_ANYTOOL_HALF_MILL_9MM_IN
 10
233.743552
 20
136.000019
 30
0.000000
  0
SEQEND
  8
5_ANYTOOL_HALF_MILL_9MM_IN
  0
POLYLINE
  8
4_ANYTOOL_CUTTHROUGH_OUTSI
 66
1
 10
0.000000
 20
0.000000
 30
0.000000
 70
1
  0
VERTEX
  8
4_ANYTOOL_CUTTHROUGH_OUTSI
 10
120.074134
 20
185.500019
 30
0.000000
  0
VERTEX
  8
4_ANYTOOL_CUTTHROUGH_OUTSI
 10
0.000000
 20
185.499999
 30
0.000000
  0
VERTEX
  8
4_ANYTOOL_CUTTHROUGH_OUTSI
 10
0.000000
 20
114.340143
 30
0.000000
  0
VERTEX
  8
4_ANYTOOL_CUTTHROUGH_OUTSI
 10
21.796350
 20
114.339674
 30
0.000000
 42
-0.414360
  0
VERTEX
  8
4_ANYTOOL_CUTTHROUGH_OUTSI
 10
22.046344
 20
114.089544
 30
0.000000
  0
VERTEX
  8
4_ANYTOOL_CUTTHROUGH_OUTSI
 10
22.040079
 20
102.089524
 30
0.000000
 42
-0.414061
  0
VERTEX
  8
4_ANYTOOL_CUTTHROUGH_OUTSI
 10
21.790079
 20
101.839655
 30
0.000000
  0
VERTEX
  8
4_ANYTOOL_CUTTHROUGH_OUTSI
 10
16.046344
 20
101.839655
 30
0.000000
  0
VERTEX
  8
4_ANYTOOL_CUTTHROUGH_OUTSI
 10
16.046344
 20
85.543428
 30
0.000000
  0
VERTEX
  8
4_ANYTOOL_CUTTHROUGH_OUTSI
 10
21.790079
 20
85.543428
 30
0.000000
 42
-0.414061
  0
VERTEX
  8
4_ANYTOOL_CUTTHROUGH_OUTSI
 10
22.040079
 20
85.293559
 30
0.000000
  0
VERTEX
  8
4_ANYTOOL_CUTTHROUGH_OUTSI
 10
22.046344
 20
73.293539
 30
0.000000
 42
-0.414373
  0
VERTEX
  8
4_ANYTOOL_CUTTHROUGH_OUTSI
 10
21.796339
 20
73.043409
 30
0.000000
  0
VERTEX
  8
4_ANYTOOL_CUTTHROUGH_OUTSI
 10
0.000000
 20
73.043878
 30
0.000000
  0
VERTEX
  8
4_ANYTOOL_CUTTHROUGH_OUTSI
 10
0.000000
 20
0.000000
 30
0.000000
  0
VERTEX
  8
4_ANYTOOL_CUTTHROUGH_OUTSI
 10
68.187075
 20
0.000489
 30
0.000000
  0
VERTEX
  8
4_ANYTOOL_CUTTHROUGH_OUTSI
 10
68.187075
 20
23.750492
 30
0.000000
 42
-0.414214
  0
VERTEX
  8
4_ANYTOOL_CUTTHROUGH_OUTSI
 10
68.437075
 20
24.000492
 30
0.000000
  0
VERTEX
  8
4_ANYTOOL_CUTTHROUGH_OUTSI
 10
80.437075
 20
24.000492
 30
0.000000
 42
-0.414214
  0
VERTEX
  8
4_ANYTOOL_CUTTHROUGH_OUTSI
 10
80.687075
 20
23.750492
 30
0.000000
  0
VERTEX
  8
4_ANYTOOL_CUTTHROUGH_OUTSI
 10
80.687075
 20
18.000492
 30
0.000000
  0
VERTEX
  8
4_ANYTOOL_CUTTHROUGH_OUTSI
 10
262.423894
 20
18.000492
 30
0.000000
  0
VERTEX
  8
4_ANYTOOL_CUTTHROUGH_OUTSI
 10
262.423894
 20
23.750492
 30
0.000000
 42
-0.414214
  0
VERTEX
  8
4_ANYTOOL_CUTTHROUGH_OUTSI
 10
262.673894
 20
24.000492
 30
0.000000
  0
VERTEX
  8
4_ANYTOOL_CUTTHROUGH_OUTSI
 10
274.673894
 20
24.000492
 30
0.000000
 42
-0.414214
  0
VERTEX
  8
4_ANYTOOL_CUTTHROUGH_OUTSI
 10
274.923894
 20
23.750492
 30
0.000000
  0
VERTEX
  8
4_ANYTOOL_CUTTHROUGH_OUTSI
 10
274.923894
 20
0.000492
 30
0.000000
  0
VERTEX
  8
4_ANYTOOL_CUTTHROUGH_OUTSI
 10
325.112760
 20
0.000492
 30
0.000000
  0
VERTEX
  8
4_ANYTOOL_CUTTHROUGH_OUTSI
 10
325.112760
 20
185.499999
 30
0.000000
  0
VERTEX
  8
4_ANYTOOL_CUTTHROUGH_OUTSI
 10
283.099157
 20
185.500019
 30
0.000000
 42
0.061036
  0
VERTEX
  8
4_ANYTOOL_CUTTHROUGH_OUTSI
 10
283.333983
 20
184.105149
 30
0.000000
  0
VERTEX
  8
4_ANYTOOL_CUTTHROUGH_OUTSI
 10
300.229516
 20
135.832606
 30
0.000000
 42
-0.084368
  0
VERTEX
  8
4_ANYTOOL_CUTTHROUGH_OUTSI
 10
300.243551
 20
135.750019
 30
0.000000
 42
-0.098999
  0
VERTEX
  8
4_ANYTOOL_CUTTHROUGH_OUTSI
 10
299.768665
 20
133.375076
 30
0.000000
 42
-0.096887
  0
VERTEX
  8
4_ANYTOOL_CUTTHROUGH_OUTSI
 10
298.424341
 20
131.358055
 30
0.000000
 42
-0.097972
  0
VERTEX
  8
4_ANYTOOL_CUTTHROUGH_OUTSI
 10
296.393814
 20
129.985456
 30
0.000000
 42
-0.100108
  0
VERTEX
  8
4_ANYTOOL_CUTTHROUGH_OUTSI
 10
293.993551
 20
129.500019
 30
0.000000
  0
VERTEX
  8
4_ANYTOOL_CUTTHROUGH_OUTSI
 10
215.993551
 20
129.500019
 30
0.000000
 42
-0.098999
  0
VERTEX
  8
4_ANYTOOL_CUTTHROUGH_OUTSI
 10
213.618609
 20
129.974906
 30
0.000000
 42
-0.096887
  0
VERTEX
  8
4_ANYTOOL_CUTTHROUGH_OUTSI
 10
211.601588
 20
131.319230
 30
0.000000
 42
-0.097972
  0
VERTEX
  8
4_ANYTOOL_CUTTHROUGH_OUTSI
 10
210.228988
 20
133.349756
 30
0.000000
 42
-0.100108
  0
VERTEX
  8
4_ANYTOOL_CUTTHROUGH_OUTSI
 10
209.743551
 20
135.750019
 30
0.000000
 42
-0.084368
  0
VERTEX
  8
4_ANYTOOL_CUTTHROUGH_OUTSI
 10
209.757587
 20
135.832606
 30
0.000000
  0
VERTEX
  8
4_ANYTOOL_CUTTHROUGH_OUTSI
 10
226.656700
 20
184.116214
 30
0.000000
 42
0.060046
  0
VERTEX
  8
4_ANYTOOL_CUTTHROUGH_OUTSI
 10
226.887861
 20
185.500019
 30
0.000000
  0
VERTEX
  8
4_ANYTOOL_CUTTHROUGH_OUTSI
 10
180.574134
 20
185.500019
 30
0.000000
  0
VERTEX
  8
4_ANYTOOL_CUTTHROUGH_OUTSI
 10
180.574134
 20
161.750000
 30
0.000000
 42
-0.414214
  0
VERTEX
  8
4_ANYTOOL_CUTTHROUGH_OUTSI
 10
180.324134
 20
161.500000
 30
0.000000
  0
VERTEX
  8
4_ANYTOOL_CUTTHROUGH_OUTSI
 10
168.324134
 20
161.500000
 30
0.000000
 42
-0.414214
  0
VERTEX
  8
4_ANYTOOL_CUTTHROUGH_OUTSI
 10
168.074134
 20
161.750000
 30
0.000000
  0
VERTEX
  8
4_ANYTOOL_CUTTHROUGH_OUTSI
 10
168.074134
 20
167.500000
 30
0.000000
  0
VERTEX
  8
4_ANYTOOL_CUTTHROUGH_OUTSI
 10
132.574134
 20
167.500000
 30
0.000000
  0
VERTEX
  8
4_ANYTOOL_CUTTHROUGH_OUTSI
 10
132.574134
 20
161.750000
 30
0.000000
 42
-0.414214
  0
VERTEX
  8
4_ANYTOOL_CUTTHROUGH_OUTSI
 10
132.324134
 20
161.500000
 30
0.000000
  0
VERTEX
  8
4_ANYTOOL_CUTTHROUGH_OUTSI
 10
120.324134
 20
161.500000
 30
0.000000
 42
-0.414214
  0
VERTEX
  8
4_ANYTOOL_CUTTHROUGH_OUTSI
 10
120.074134
 20
161.750000
 30
0.000000
  0
SEQEND
  8
4_ANYTOOL_CUTTHROUGH_OUTSI
  0
ENDSEC
  0
EOF
