<?xml version="1.0" encoding="utf-8"?>
<!-- Generator: Adobe Illustrator 25.4.8, SVG Export Plug-In . SVG Version: 6.00 Build 0)  -->
<svg version="1.1"
	 id="svg35575" xmlns:inkscape="http://www.inkscape.org/namespaces/inkscape" xmlns:sodipodi="http://sodipodi.sourceforge.net/DTD/sodipodi-0.dtd" xmlns:svg="http://www.w3.org/2000/svg"
	 xmlns="http://www.w3.org/2000/svg" xmlns:xlink="http://www.w3.org/1999/xlink" x="0px" y="0px" viewBox="0 0 392.7 392.7"
	 style="enable-background:new 0 0 392.7 392.7;" xml:space="preserve">
<style type="text/css">
	.st0{fill:none;stroke:#000000;stroke-width:0.225;}
	.st1{fill:none;stroke:#000000;stroke-width:0.75;}
</style>
<sodipodi:namedview  bordercolor="#666666" borderopacity="1.0" id="namedview35577" inkscape:current-layer="svg35575" inkscape:cx="635.6084" inkscape:cy="460.73755" inkscape:deskcolor="#d1d1d1" inkscape:document-units="pt" inkscape:pagecheckerboard="0" inkscape:pageopacity="0.0" inkscape:showpageshadow="2" inkscape:window-height="918" inkscape:window-maximized="0" inkscape:window-width="1312" inkscape:window-x="1926" inkscape:window-y="25" inkscape:zoom="0.47749526" pagecolor="#ffffff" showgrid="false">
	</sodipodi:namedview>
<path id="path25273" class="st0" d="M186.3,129.5l4.1-6.7"/>
<path id="path25275" class="st0" d="M198.6,134.4l-0.2,0.4"/>
<path id="path25277" class="st0" d="M199.2,134.8l-0.7-0.4"/>
<path id="path25279" class="st0" d="M209,140.4l-0.2,0.4"/>
<path id="path25281" class="st0" d="M209.7,140.8l-0.7-0.4"/>
<path id="path25283" class="st0" d="M222.8,140.4l-0.5,0.8"/>
<path id="path25285" class="st0" d="M225.4,136.2l-0.5,0.8"/>
<path id="path25287" class="st0" d="M198.6,134.4l0.6,0.4"/>
<path id="path25289" class="st0" d="M209,140.4l0.6,0.4"/>
<path id="path25291" class="st0" d="M208.7,142.4l0.7,0.5"/>
<path id="path25293" class="st0" d="M207.2,95.6l0.7,0.5"/>
<path id="path25295" class="st0" d="M204.9,99.4l-1.6,2.6"/>
<path id="path25297" class="st0" d="M203.8,103.3l-2.1,3.4"/>
<path id="path25299" class="st0" d="M200.2,107l-1.6,2.6l0.7,0.5"/>
<path id="path25301" class="st0" d="M202.1,110.6l-0.7,1.2"/>
<path id="path25303" class="st0" d="M229.2,126.2c0.1-0.2,0.4-0.3,0.6-0.2"/>
<path id="path25305" class="st0" d="M232.1,125.4l0.5-0.8"/>
<path id="path25307" class="st0" d="M235.3,118l0.7-1.2l1.7-2.8l0.7-1.2"/>
<path id="path25309" class="st0" d="M244.7,108l-33.3-19.2l-4.2,6.9"/>
<path id="path25311" class="st0" d="M237.4,113.7l-0.3-0.2"/>
<path id="path25313" class="st0" d="M237.4,113.7l-1.7,2.8"/>
<path id="path25315" class="st0" d="M237.1,113.5l0.7-1.2"/>
<path id="path25317" class="st0" d="M228.5,127.4l0.3,0.2"/>
<path id="path25319" class="st0" d="M208.3,100.7l-0.7,1.2"/>
<path id="path25321" class="st0" d="M199.7,114.6l-0.7,1.2"/>
<path id="path25323" class="st0" d="M196.3,113.3l-0.7,1.2l-2.1,3.3"/>
<path id="path25325" class="st0" d="M234.7,118.1c-0.2-0.1-0.2-0.4-0.1-0.6"/>
<path id="path25327" class="st0" d="M235.3,116.3c-0.6-0.3-0.7-1.4-0.2-2.1c0.4-0.7,1.5-1.1,2-0.7"/>
<path id="path25329" class="st0" d="M200.1,114.7l1.6-2.7"/>
<path id="path25331" class="st0" d="M235.5,116.4c-0.5-0.4-0.6-1.4-0.1-2c0.4-0.7,1.5-1.1,2-0.7"/>
<path id="path25333" class="st0" d="M200.1,273.5l-0.7-0.5"/>
<path id="path25335" class="st0" d="M206.3,263.5l-0.7-0.5"/>
<path id="path25337" class="st0" d="M126,226.9l3.1-5"/>
<path id="path25339" class="st0" d="M115,266.1l-1-0.6"/>
<path id="path25341" class="st0" d="M115,261.6l-1-0.6"/>
<path id="path25343" class="st0" d="M114,265.5V261"/>
<path id="path25345" class="st0" d="M115,254.7l-1-0.6"/>
<path id="path25347" class="st0" d="M115,246.8l-1-0.6"/>
<path id="path25349" class="st0" d="M114,254.1v-7.9l3.3-5.4"/>
<path id="path25351" class="st0" d="M135,214.5l-0.7-0.4"/>
<path id="path25353" class="st0" d="M137.1,208.9l-3.1,5"/>
<path id="path25355" class="st0" d="M158.8,173.9l3.1-5"/>
<path id="path25357" class="st0" d="M168.6,158.1l4.1-6.7"/>
<path id="path25359" class="st0" d="M143.8,198.1l8.2-13.3"/>
<path id="path25361" class="st0" d="M147.3,284.7l1,0.6"/>
<path id="path25363" class="st0" d="M147.3,273.3l1,0.6"/>
<path id="path25365" class="st0" d="M147.3,265.5l1,0.6"/>
<path id="path25367" class="st0" d="M164.5,234l-0.7-0.4"/>
<path id="path25369" class="st0" d="M274.6,152.8v-3.2"/>
<path id="path25371" class="st0" d="M274.6,152.8l-0.5,0.3"/>
<path id="path25373" class="st0" d="M257,161.2l0.7,0.5"/>
<path id="path25375" class="st0" d="M241.8,159.4l0.7,0.4"/>
<path id="path25377" class="st0" d="M241.6,159.8l0.2-0.4"/>
<path id="path25379" class="st0" d="M227.3,138.4l-2.1,3.4"/>
<path id="path25381" class="st0" d="M258.2,156.2l0.5-0.8"/>
<path id="path25383" class="st0" d="M255.6,160.4l0.5-0.8"/>
<path id="path25385" class="st0" d="M241.5,161.4l0.7,0.5"/>
<path id="path25387" class="st0" d="M241.8,159.4l0.6,0.4"/>
<path id="path25389" class="st0" d="M219.5,148.7l0.7,0.5"/>
<path id="path25391" class="st0" d="M256.4,159.8l0.7,0.5"/>
<path id="path25393" class="st0" d="M256.1,159.6l0.7,0.5"/>
<path id="path25395" class="st0" d="M271.1,131.5l-0.7,1.2"/>
<path id="path25397" class="st0" d="M271.8,132l-0.7,1.2l-1.7,2.8l-0.7,1.2"/>
<path id="path25399" class="st0" d="M267.9,136.7c-0.1,0.2-0.1,0.5,0.1,0.6"/>
<path id="path25401" class="st0" d="M271.4,137.8l0.7,0.5"/>
<path id="path25403" class="st0" d="M265.9,143.8l-0.5,0.8"/>
<path id="path25405" class="st0" d="M266.7,145.4l0.7,0.5"/>
<path id="path25407" class="st0" d="M263.1,145.2c-0.2-0.1-0.5,0-0.6,0.2"/>
<path id="path25409" class="st0" d="M262.8,151.7l0.7,0.5"/>
<path id="path25411" class="st0" d="M232.2,135l0.7-1.2"/>
<path id="path25413" class="st0" d="M244.7,108l33.3,19.2l0.7,0.5"/>
<path id="path25415" class="st0" d="M269,135.8l1.7-2.8l-0.3-0.2"/>
<path id="path25417" class="st0" d="M270.7,133c-0.5-0.4-1.6,0-2,0.7c-0.5,0.6-0.4,1.6,0.1,2"/>
<path id="path25419" class="st0" d="M261.7,146.7l0.3,0.2"/>
<path id="path25421" class="st0" d="M268.5,135.5c-0.6-0.3-0.7-1.4-0.2-2.1c0.4-0.7,1.5-1.1,2-0.7"/>
<path id="path25423" class="st0" d="M256.3,160.9l0.5-0.7"/>
<path id="path25425" class="st0" d="M256.4,159.8l0.3-0.5"/>
<path id="path25427" class="st0" d="M164.7,178.6l0.5-0.8"/>
<path id="path25429" class="st0" d="M168.3,172.8l0.5-0.8"/>
<path id="path25431" class="st0" d="M179.5,173.5l0.5-0.8"/>
<path id="path25433" class="st0" d="M169.7,189.3l0.5-0.8"/>
<path id="path25435" class="st0" d="M173.3,183.5l0.5-0.8"/>
<path id="path25437" class="st0" d="M175.9,179.3l0.5-0.8"/>
<path id="path25439" class="st0" d="M174.5,162.7l0.5-0.8"/>
<path id="path25441" class="st0" d="M183.2,148.6l0.5-0.8"/>
<path id="path25443" class="st0" d="M191.8,153.5l0.5-0.8"/>
<path id="path25445" class="st0" d="M182.1,169.3l0.5-0.8"/>
<path id="path25447" class="st0" d="M179.9,153.4l0-0.4"/>
<path id="path25449" class="st0" d="M185.7,163.5l0.5-0.8"/>
<path id="path25451" class="st0" d="M188.3,159.3l0.5-0.8"/>
<path id="path25453" class="st0" d="M194.4,149.3l0.5-0.8"/>
<path id="path25455" class="st0" d="M189.4,138.6l0.5-0.8"/>
<path id="path25457" class="st0" d="M193.7,134.6l0.4,0.3"/>
<path id="path25459" class="st0" d="M196.9,136.9l0.4,0.3"/>
<path id="path25461" class="st0" d="M149.8,202.7l0.5-0.8"/>
<path id="path25463" class="st0" d="M158.5,188.6l0.5-0.8"/>
<path id="path25465" class="st0" d="M167.1,193.5l0.5-0.8"/>
<path id="path25467" class="st0" d="M157.3,209.3l0.5-0.8"/>
<path id="path25469" class="st0" d="M155.2,193.4l0-0.4"/>
<path id="path25471" class="st0" d="M160.9,203.5l0.5-0.8"/>
<path id="path25473" class="st0" d="M163.5,199.3l0.5-0.8"/>
<path id="path25475" class="st0" d="M155.2,212.7l-0.5,0.8"/>
<path id="path25477" class="st0" d="M142.3,217.7l0.4,0.3"/>
<path id="path25479" class="st0" d="M202.3,140.1l-7.4,12l-12.4,20l-12.4,20l-12.4,20l-6.8,11"/>
<path id="path25481" class="st0" d="M177.5,157l0.3-0.2"/>
<path id="path25483" class="st0" d="M179.9,153l-0.3,0.2"/>
<path id="path25485" class="st0" d="M152.8,197l0.3-0.2"/>
<path id="path25487" class="st0" d="M155.2,193l-0.3,0.2"/>
<path id="path25489" class="st0" d="M197.2,136.5l0.5,0.3"/>
<path id="path25491" class="st0" d="M142.3,217.8l0.5,0.3"/>
<path id="path25493" class="st0" d="M267.1,146.8l0.5-0.8"/>
<path id="path25495" class="st0" d="M270.7,141l0.5-0.8"/>
<path id="path25497" class="st0" d="M276.1,131.8v14.4l-1,0.6"/>
<path id="path25499" class="st0" d="M275.1,147.6v8.6"/>
<path id="path25501" class="st0" d="M267.8,164.5l0.5-0.8"/>
<path id="path25503" class="st0" d="M260.9,156.8l0.5-0.8"/>
<path id="path25505" class="st0" d="M240.9,188.7l0-0.4"/>
<path id="path25507" class="st0" d="M244.2,183.8l0.5-0.8"/>
<path id="path25509" class="st0" d="M252.8,188.7l0.5-0.8"/>
<path id="path25511" class="st0" d="M247.6,196.4l-1.1,3.1"/>
<path id="path25513" class="st0" d="M239,194.8l0.2-0.4"/>
<path id="path25515" class="st0" d="M255.9,183.7l-0.5,0.8"/>
<path id="path25517" class="st0" d="M265.7,167.9l-0.5,0.8"/>
<path id="path25519" class="st0" d="M258.4,160.3l-1-0.6"/>
<path id="path25521" class="st0" d="M258.4,160.3l-0.8,1.3"/>
<path id="path25523" class="st0" d="M250.9,173l-0.5,0.8"/>
<path id="path25525" class="st0" d="M261.8,174.2l-0.5,0.8"/>
<path id="path25527" class="st0" d="M259.5,177.9l-0.5,0.8"/>
<path id="path25529" class="st0" d="M255.8,170l-0.5-0.3"/>
<path id="path25531" class="st0" d="M255.5,170.4l-0.4-0.3"/>
<path id="path25533" class="st0" d="M256.3,168.1l0.4,0.3L256.3,168.1z"/>
<path id="path25535" class="st0" d="M256.8,168.4l-0.2,0.4"/>
<path id="path25537" class="st0" d="M258.1,169.3l0.4,0.3L258.1,169.3z"/>
<path id="path25539" class="st0" d="M258.6,169.7l-0.2,0.4"/>
<path id="path25541" class="st0" d="M258.4,160.3l-0.7-0.5"/>
<path id="path25543" class="st0" d="M275.1,156.2l-6.9,11.1l-12.4,20l-6.2,10"/>
<path id="path25545" class="st0" d="M274.4,153.2l0.2-0.4"/>
<path id="path25547" class="st0" d="M275.4,141.9l0.2-0.4"/>
<path id="path25549" class="st0" d="M240.9,188.3l-0.3,0.2"/>
<path id="path25551" class="st0" d="M271.1,137.7l2.4-3.9"/>
<path id="path25553" class="st0" d="M127,227.5l0.5-0.8"/>
<path id="path25555" class="st0" d="M163.9,233.6l0.2-0.4"/>
<path id="path25557" class="st0" d="M147.3,284.7l-1-0.6"/>
<path id="path25559" class="st0" d="M115,246.8l2.8-4.6"/>
<path id="path25561" class="st0" d="M126.8,251.5l-0.7-0.4"/>
<path id="path25563" class="st0" d="M136.5,257.1l-0.2,0.4"/>
<path id="path25565" class="st0" d="M137.2,257.5l-0.7-0.4"/>
<path id="path25567" class="st0" d="M149.3,259.3l-0.5,0.8"/>
<path id="path25569" class="st0" d="M115,246.8l0.7,0.5"/>
<path id="path25571" class="st0" d="M126.1,251.1l0.6,0.4"/>
<path id="path25573" class="st0" d="M136.3,257.5l0.6,0.4"/>
<path id="path25575" class="st0" d="M136.5,257.1l0.6,0.4"/>
<path id="path25577" class="st0" d="M136.2,259.1l0.7,0.5"/>
<path id="path25579" class="st0" d="M156.8,226.3l9.9,5.7l1,0.6"/>
<path id="path25581" class="st0" d="M155.1,227.5l0.7,0.4"/>
<path id="path25583" class="st0" d="M133,215.6l0.7-1.2l0.3-0.5"/>
<path id="path25585" class="st0" d="M129.1,221.9l1.6-2.6"/>
<path id="path25587" class="st0" d="M127.5,226.7l2.1-3.4"/>
<path id="path25589" class="st0" d="M124.4,229.5l1.6-2.6"/>
<path id="path25591" class="st0" d="M155.6,246c-0.2-0.1-0.5,0-0.6,0.2l-0.7,1.2"/>
<path id="path25593" class="st0" d="M158.4,244.6l-0.5,0.8"/>
<path id="path25595" class="st0" d="M161,240.4l-0.5,0.8"/>
<path id="path25597" class="st0" d="M155.4,227.1l0.6,0.4"/>
<path id="path25599" class="st0" d="M134.4,214.1l0.6,0.4"/>
<path id="path25601" class="st0" d="M133,215.6l0.7,0.5"/>
<path id="path25603" class="st0" d="M124.4,229.5l0.7,0.5"/>
<path id="path25605" class="st0" d="M154.3,247.4c-0.5-0.4-1.6,0-2,0.7c-0.5,0.6-0.4,1.8,0.2,2.1"/>
<path id="path25607" class="st0" d="M154.6,247.6c-0.5-0.4-1.6,0-2,0.7c-0.5,0.6-0.4,1.6,0.1,2"/>
<path id="path25609" class="st0" d="M154.3,247.4l0.3,0.2"/>
<path id="path25611" class="st0" d="M152.9,250.4l1.7-2.8"/>
<path id="path25613" class="st0" d="M161.5,236.5l1.7-2.8l-0.3-0.2"/>
<path id="path25615" class="st0" d="M163.2,233.7c-0.5-0.4-1.6,0-2,0.7c-0.5,0.6-0.4,1.6,0.1,2"/>
<path id="path25617" class="st0" d="M117.4,240.9l4-6.4l0.7-1.2"/>
<path id="path25619" class="st0" d="M161.1,236.2c-0.6-0.3-0.7-1.4-0.2-2.1c0.4-0.7,1.5-1.1,2-0.7"/>
<path id="path25621" class="st0" d="M155.7,246.7l-0.7,1.2l-1.7,2.8l-0.7,1.2"/>
<path id="path25623" class="st0" d="M155,252.4l2.4-3.9"/>
<path id="path25625" class="st0" d="M219.8,209.2l3.1-5"/>
<path id="path25627" class="st0" d="M229.6,193.3l8.2-13.3"/>
<path id="path25629" class="st0" d="M248.3,165.3l-1-0.6"/>
<path id="path25631" class="st0" d="M204.8,233.3l8.2-13.3"/>
<path id="path25633" class="st0" d="M209.6,143l0.7,0.4"/>
<path id="path25635" class="st0" d="M220.7,149.7l0.4,0.3"/>
<path id="path25637" class="st0" d="M224,152l0.4,0.3"/>
<path id="path25639" class="st0" d="M206.3,142.2l-5.8-3.3"/>
<path id="path25641" class="st0" d="M243.1,162.4l-0.7-0.4"/>
<path id="path25643" class="st0" d="M231.3,155.6l-0.7-0.4"/>
<path id="path25645" class="st0" d="M217.4,148.6l10.9,6.3l10.9,6.3"/>
<path id="path25647" class="st0" d="M224.8,152.5l1,0.6"/>
<path id="path25649" class="st0" d="M243.4,203.5l-0.7-0.5"/>
<path id="path25651" class="st0" d="M255.7,183.5l-0.7-0.5"/>
<path id="path25653" class="st0" d="M261.6,174.1l-0.7-0.5"/>
<path id="path25655" class="st0" d="M218.6,243.5l-0.7-0.5"/>
<path id="path25657" class="st0" d="M224.8,233.5l-0.7-0.5"/>
<path id="path25659" class="st0" d="M212.4,253.5l-0.7-0.5"/>
<path id="path25661" class="st0" d="M231,223.5l-0.7-0.5"/>
<path id="path25663" class="st0" d="M237.2,213.5l-0.7-0.5"/>
<path id="path25665" class="st0" d="M192.9,266.8l0.5-0.8"/>
<path id="path25667" class="st0" d="M196.5,261l0.3-0.5"/>
<path id="path25669" class="st0" d="M203.4,268.7l0.5-0.8"/>
<path id="path25671" class="st0" d="M195.5,285v10.4l-3.5,2"/>
<path id="path25673" class="st0" d="M191.3,297.3v1.5"/>
<path id="path25675" class="st0" d="M187.5,299.9l1,0.6"/>
<path id="path25677" class="st0" d="M191.3,298.9l-2.8,1.6"/>
<path id="path25679" class="st0" d="M187.5,299.9V298"/>
<path id="path25681" class="st0" d="M188.5,298.2l-0.4,0.2"/>
<path id="path25683" class="st0" d="M187.1,297.8v-6.7"/>
<path id="path25685" class="st0" d="M186.1,292.5v7l-0.4,0.2v2.3"/>
<path id="path25687" class="st0" d="M182,303.1l1,0.6"/>
<path id="path25689" class="st0" d="M185.7,302.1l-2.8,1.6"/>
<path id="path25691" class="st0" d="M183,302.1l-0.7,0.4"/>
<path id="path25693" class="st0" d="M181.9,298.7v-0.8"/>
<path id="path25695" class="st0" d="M181.9,292.6v-0.8"/>
<path id="path25697" class="st0" d="M184.8,279.9l0.5-0.8"/>
<path id="path25699" class="st0" d="M197.2,278.7l0.5-0.8"/>
<path id="path25701" class="st0" d="M199.8,274.5l0.5-0.8"/>
<path id="path25703" class="st0" d="M194,293.5v-0.8"/>
<path id="path25705" class="st0" d="M194,290.4v-0.8"/>
<path id="path25707" class="st0" d="M206.5,263.7l-0.5,0.8"/>
<path id="path25709" class="st0" d="M216.2,247.9l-0.5,0.8"/>
<path id="path25711" class="st0" d="M205.1,247.2l-0.5,0.8"/>
<path id="path25713" class="st0" d="M212.7,253.7l-0.5,0.8"/>
<path id="path25715" class="st0" d="M210.4,257.4l-0.5,0.8"/>
<path id="path25717" class="st0" d="M202.9,255.5l-0.4-0.3"/>
<path id="path25719" class="st0" d="M203.7,253.2l0.4,0.3l-0.2,0.4"/>
<path id="path25721" class="st0" d="M225.7,213.8l0.5-0.8"/>
<path id="path25723" class="st0" d="M229.3,208l0.5-0.8"/>
<path id="path25725" class="st0" d="M240.5,208.7l0.5-0.8"/>
<path id="path25727" class="st0" d="M230.7,224.5l0.5-0.8"/>
<path id="path25729" class="st0" d="M234.3,218.7l0.5-0.8"/>
<path id="path25731" class="st0" d="M236.9,214.5l0.5-0.8"/>
<path id="path25733" class="st0" d="M239.2,189.9l0.3,0.2"/>
<path id="path25735" class="st0" d="M239.9,190.3l1.6,1.1l-0.1,0.6l-2.3,2.3"/>
<path id="path25737" class="st0" d="M246.1,194.9l-0.2,0.4l-2.3,2.3l-0.2,0.4"/>
<path id="path25739" class="st0" d="M243.1,204.5l0.5-0.8"/>
<path id="path25741" class="st0" d="M235.5,198l0.5-0.8"/>
<path id="path25743" class="st0" d="M210.8,238l0.5-0.8"/>
<path id="path25745" class="st0" d="M219.5,223.8l0.5-0.8"/>
<path id="path25747" class="st0" d="M228.1,228.7l0.5-0.8"/>
<path id="path25749" class="st0" d="M218.4,244.5l0.5-0.8"/>
<path id="path25751" class="st0" d="M216.2,228.7l0-0.4"/>
<path id="path25753" class="st0" d="M221.9,238.7l0.5-0.8"/>
<path id="path25755" class="st0" d="M224.5,234.5l0.5-0.8"/>
<path id="path25757" class="st0" d="M249.7,197.2l-6.2,10l-12.4,20l-12.4,20l-12.4,20l-8,13l-2.9,4.7"/>
<path id="path25759" class="st0" d="M238.5,192.2l0.3-0.2"/>
<path id="path25761" class="st0" d="M213.8,232.2l0.3-0.2"/>
<path id="path25763" class="st0" d="M216.2,228.2l-0.3,0.2"/>
<path id="path25765" class="st0" d="M187.5,291l0.7,0.4"/>
<path id="path25767" class="st0" d="M187.8,290.8l0.7,0.4"/>
<path id="path25769" class="st0" d="M202.7,254.8l0.5,0.3"/>
<path id="path25771" class="st0" d="M203.7,253.2l0.5,0.3"/>
<path id="path25773" class="st0" d="M127.5,232.1l-1.6,2.7"/>
<path id="path25775" class="st0" d="M257.6,171.3l-0.4-0.3"/>
<path id="path25777" class="st0" d="M231.1,153.8l0.2-0.4"/>
<path id="path25779" class="st0" d="M134.9,216.3l-2.8,4.5"/>
<path id="path25781" class="st0" d="M237.8,118.5l2.4-3.9"/>
<path id="path25783" class="st0" d="M257.1,171l0.5,0.3"/>
<path id="path25785" class="st0" d="M255.8,170l-0.4-0.3"/>
<path id="path25787" class="st0" d="M159.8,174.5l0.5-0.8"/>
<path id="path25789" class="st0" d="M169.6,158.7l0.5-0.8"/>
<path id="path25791" class="st0" d="M144.8,198.7l0.5-0.8"/>
<path id="path25793" class="st0" d="M160.3,246.7l0.5-0.8"/>
<path id="path25795" class="st0" d="M164.6,239l2.3-3.7"/>
<path id="path25797" class="st0" d="M220.8,209.7l0.5-0.8"/>
<path id="path25799" class="st0" d="M230.6,193.9l0.5-0.8"/>
<path id="path25801" class="st0" d="M245.5,169.7l0.5-0.8"/>
<path id="path25803" class="st0" d="M205.8,233.9l0.5-0.8"/>
<path id="path25805" class="st0" d="M205.9,254.8l-0.2,0.4"/>
<path id="path25807" class="st0" d="M182.1,279.3l0.5-0.8"/>
<path id="path25809" class="st0" d="M169.8,276.3l0.7,0.4"/>
<path id="path25811" class="st0" d="M169.6,276.7l0.2-0.4"/>
<path id="path25813" class="st0" d="M151.2,261.5l-2.8,4.6"/>
<path id="path25815" class="st0" d="M169.5,278.3l0.7,0.5"/>
<path id="path25817" class="st0" d="M169.8,276.3l0.6,0.4"/>
<path id="path25819" class="st0" d="M169.6,276.7l0.6,0.4"/>
<path id="path25821" class="st0" d="M148.3,266.1l0.7,0.5"/>
<path id="path25823" class="st0" d="M178.5,238.9l-9.9-5.7l-1-0.6"/>
<path id="path25825" class="st0" d="M188.6,246.9l-0.7-0.4"/>
<path id="path25827" class="st0" d="M193.8,260.4l0.5-0.8"/>
<path id="path25829" class="st0" d="M191.2,264.6l0.5-0.8"/>
<path id="path25831" class="st0" d="M162.9,242.5l-2.1,3.4"/>
<path id="path25833" class="st0" d="M188.2,246.1l0.6,0.4"/>
<path id="path25835" class="st0" d="M197.3,257.7l0.7,0.5"/>
<path id="path25837" class="st0" d="M192.6,265.4l0.7,0.5"/>
<path id="path25839" class="st0" d="M188.6,271.7l0.7,0.5"/>
<path id="path25841" class="st0" d="M187.6,266.6c-0.5-0.4-1.6,0-2,0.7c-0.5,0.6-0.4,1.8,0.2,2.1"/>
<path id="path25843" class="st0" d="M187.6,266.6l0.3,0.2l-1.7,2.8"/>
<path id="path25845" class="st0" d="M187.6,266.6l0.7-1.2c0.1-0.2,0.4-0.3,0.6-0.2"/>
<path id="path25847" class="st0" d="M196.5,252.9l-0.3-0.2"/>
<path id="path25849" class="st0" d="M196.5,252.9l-1.7,2.8"/>
<path id="path25851" class="st0" d="M194.3,255.4c-0.6-0.3-0.7-1.4-0.2-2.1c0.4-0.7,1.5-1.1,2-0.7"/>
<path id="path25853" class="st0" d="M159.1,253.9l1.6-2.7"/>
<path id="path25855" class="st0" d="M185.7,271.1l0.7-1.2l1.7-2.8l0.7-1.2"/>
<path id="path25857" class="st0" d="M186,269.5c-0.5-0.4-0.6-1.4-0.1-2c0.4-0.7,1.5-1.1,2-0.7"/>
<path id="path25859" class="st0" d="M194.6,255.6c-0.5-0.4-0.6-1.4-0.1-2c0.4-0.7,1.5-1.1,2-0.7"/>
<path id="path25861" class="st0" d="M189.6,245.3l-5.5-3.2l-5.5-3.2"/>
<path id="path25863" class="st0" d="M188.9,246.5l-0.7-0.4"/>
<path id="path25865" class="st0" d="M238.5,160.7l0.7,0.5l5.5,3.2l2,1.2"/>
<path id="path25867" class="st0" d="M267.4,163.1l0.7,0.5"/>
<path id="path25869" class="st0" d="M208.4,229.7l-2.1,3.4"/>
<path id="path25871" class="st0" d="M204.8,233.3l-9.5,15.3"/>
<path id="path25873" class="st0" d="M201.9,247.4l0.5-0.8"/>
<path id="path25875" class="st0" d="M210.4,236.5l0.7,0.5"/>
<path id="path25877" class="st0" d="M209,235.8l0.5-0.8"/>
<path id="path25879" class="st0" d="M211.6,231.6l0.5-0.8"/>
<path id="path25881" class="st0" d="M214.1,232l2.1-3.3"/>
<path id="path25883" class="st0" d="M214.2,227.4l0.5-0.8"/>
<path id="path25885" class="st0" d="M216.8,223.2l0.5-0.8"/>
<path id="path25887" class="st0" d="M225.3,212.4l0.7,0.5"/>
<path id="path25889" class="st0" d="M224,211.6l0.5-0.8"/>
<path id="path25891" class="st0" d="M226.6,207.4l0.5-0.8"/>
<path id="path25893" class="st0" d="M235.1,196.5l0.7,0.5"/>
<path id="path25895" class="st0" d="M233.8,195.8l0.5-0.8"/>
<path id="path25897" class="st0" d="M236.4,191.6l0.5-0.8"/>
<path id="path25899" class="st0" d="M238.9,187.4l0.5-0.8"/>
<path id="path25901" class="st0" d="M241.5,183.2l0.5-0.8"/>
<path id="path25903" class="st0" d="M250.1,172.4l0.7,0.5"/>
<path id="path25905" class="st0" d="M248.7,171.6l0.5-0.8"/>
<path id="path25907" class="st0" d="M244.5,169.2l-6.7,10.8"/>
<path id="path25909" class="st0" d="M238.3,181.4l-2.1,3.4"/>
<path id="path25911" class="st0" d="M233.2,189.7l-2.1,3.4"/>
<path id="path25913" class="st0" d="M229.6,193.3l-6.7,10.8"/>
<path id="path25915" class="st0" d="M223.4,205.5l-2.1,3.4"/>
<path id="path25917" class="st0" d="M219.8,209.2l-6.7,10.8"/>
<path id="path25919" class="st0" d="M213.6,221.4l-2.1,3.4"/>
<path id="path25921" class="st0" d="M238.5,191.8l0.3,0.2"/>
<path id="path25923" class="st0" d="M240.6,188.4l0.3,0.2"/>
<path id="path25925" class="st0" d="M213.8,231.8l0.3,0.2"/>
<path id="path25927" class="st0" d="M215.9,228.4l0.3,0.2"/>
<path id="path25929" class="st0" d="M226.8,153.7l-1-0.6"/>
<path id="path25931" class="st0" d="M223.1,151l-1-0.6"/>
<path id="path25933" class="st0" d="M188.5,158.3l-0.7-0.5"/>
<path id="path25935" class="st0" d="M182.3,168.3l-0.7-0.5"/>
<path id="path25937" class="st0" d="M194.7,148.3l-0.7-0.5"/>
<path id="path25939" class="st0" d="M163.8,198.3l-0.7-0.5"/>
<path id="path25941" class="st0" d="M160.7,203.3l-0.7-0.5"/>
<path id="path25943" class="st0" d="M157.6,208.3l-0.7-0.5"/>
<path id="path25945" class="st0" d="M176.2,178.3l-0.7-0.5"/>
<path id="path25947" class="st0" d="M173.1,183.3l-0.7-0.5"/>
<path id="path25949" class="st0" d="M170,188.3l-0.7-0.5"/>
<path id="path25951" class="st0" d="M186.3,292.1l-0.4,0.3"/>
<path id="path25953" class="st0" d="M167.8,240l1.6-2.7"/>
<path id="path25955" class="st0" d="M148.5,199.7l-0.5,0.8"/>
<path id="path25957" class="st0" d="M149.4,201.3l0.7,0.5"/>
<path id="path25959" class="st0" d="M135.4,214l2.3-3.7"/>
<path id="path25961" class="st0" d="M137.1,208.9l6.7-10.8"/>
<path id="path25963" class="st0" d="M145.3,197.9l2.1-3.4"/>
<path id="path25965" class="st0" d="M150.5,189.5l2.1-3.4"/>
<path id="path25967" class="st0" d="M152.1,184.8l6.7-10.8"/>
<path id="path25969" class="st0" d="M160.3,173.7l2.1-3.4"/>
<path id="path25971" class="st0" d="M161.9,168.9l6.7-10.8"/>
<path id="path25973" class="st0" d="M170,157.9l2.1-3.4"/>
<path id="path25975" class="st0" d="M176.8,144.8l6.7-10.8"/>
<path id="path25977" class="st0" d="M188.2,135.6l-0.5,0.8"/>
<path id="path25979" class="st0" d="M189,137.1l0.7,0.5"/>
<path id="path25981" class="st0" d="M181,147.2l-0.5,0.8"/>
<path id="path25983" class="st0" d="M178.4,151.4l-0.5,0.8"/>
<path id="path25985" class="st0" d="M175.9,155.5l-0.5,0.8"/>
<path id="path25987" class="st0" d="M173.3,159.7l-0.5,0.8"/>
<path id="path25989" class="st0" d="M174.1,161.3l0.7,0.5"/>
<path id="path25991" class="st0" d="M166.1,171.4l-0.5,0.8"/>
<path id="path25993" class="st0" d="M163.5,175.6l-0.5,0.8"/>
<path id="path25995" class="st0" d="M164.3,177.1l0.7,0.5"/>
<path id="path25997" class="st0" d="M156.3,187.2l-0.5,0.8"/>
<path id="path25999" class="st0" d="M153.7,191.4l-0.5,0.8"/>
<path id="path26001" class="st0" d="M155.2,193.4l-2.1,3.3l-0.4-0.2"/>
<path id="path26003" class="st0" d="M151.1,195.5l-0.5,0.8"/>
<path id="path26005" class="st0" d="M179.6,153.2l0.3,0.2"/>
<path id="path26007" class="st0" d="M177.5,156.5l0.3,0.2"/>
<path id="path26009" class="st0" d="M154.9,193.2l0.3,0.2"/>
<path id="path26011" class="st0" d="M152.8,196.5l0.3,0.2"/>
<path id="path26013" class="st0" d="M275.6,138.2v3.2"/>
<path id="path26015" class="st0" d="M275.6,138.2l-0.5,0.3"/>
<path id="path26017" class="st0" d="M275.6,141.4l-0.5,0.3"/>
<path id="path26019" class="st0" d="M205.7,141.7l0.7,0.5"/>
<path id="path26021" class="st0" d="M217.4,148.6l-5.5-3.2l-5.5-3.2"/>
<path id="path26023" class="st0" d="M200.2,107l3.1-5"/>
<path id="path26025" class="st0" d="M191.2,121.4l1,0.6"/>
<path id="path26027" class="st0" d="M191.2,121.4l2.3-3.7"/>
<path id="path26029" class="st0" d="M172.7,151.4l4.1-6.7"/>
<path id="path26031" class="st0" d="M191.9,121.9l-0.8,1.3"/>
<path id="path26033" class="st0" d="M186.3,129.5l-2.8,4.5l1,0.6"/>
<path id="path26035" class="st0" d="M191.9,121.9l-0.7-0.5"/>
<path id="path26037" class="st0" d="M185,133.7l-0.5,0.8"/>
<path id="path26039" class="st0" d="M117.1,256.9v1.2"/>
<path id="path26041" class="st0" d="M114,259.3l1-0.6"/>
<path id="path26043" class="st0" d="M114,259.3v1.7"/>
<path id="path26045" class="st0" d="M115,265.6v0.4l0.7,0.4l0.3,0.4l0.6,0.9l0.5,0"/>
<path id="path26047" class="st0" d="M117.6,267.5l0.7,0.4l1-0.6"/>
<path id="path26049" class="st0" d="M122,266.5l0.3,0.6l-0.9,2.6l7.7,4.6l1-0.6l-0.7-2.8"/>
<path id="path26051" class="st0" d="M133.2,273.3l-0.9,2.6l7.7,4.6l1-0.6l-0.7-2.8"/>
<path id="path26053" class="st0" d="M144,279.6l-0.9,2.6l0.7,0.5l0.3,0.4l0.6,0.9l0.5,0"/>
<path id="path26055" class="st0" d="M146,281.4v-0.8"/>
<path id="path26057" class="st0" d="M146,280.2v-0.8"/>
<path id="path26059" class="st0" d="M147.2,278.5l-2.7-0.5l1-0.6"/>
<path id="path26061" class="st0" d="M144.5,278.1l-0.3-0.6"/>
<path id="path26063" class="st0" d="M145.5,277.5l-0.3-0.6"/>
<path id="path26065" class="st0" d="M144.2,277.5v-1.2"/>
<path id="path26067" class="st0" d="M145.2,276.9v-4"/>
<path id="path26069" class="st0" d="M146,271.4v-0.8"/>
<path id="path26071" class="st0" d="M136.9,261l-0.7-0.4l1-0.6"/>
<path id="path26073" class="st0" d="M136.2,260.6v-1.5"/>
<path id="path26075" class="st0" d="M125.1,254.2l-0.7-0.4l0.7-0.4"/>
<path id="path26077" class="st0" d="M124.5,253.4l0.7-0.4"/>
<path id="path26079" class="st0" d="M115,248l0.9-0.5"/>
<path id="path26081" class="st0" d="M114,254.1v1.7"/>
<path id="path26083" class="st0" d="M117.1,260.7l0.8,0.1"/>
<path id="path26085" class="st0" d="M117.1,260.7l0.5-0.3"/>
<path id="path26087" class="st0" d="M144.2,273.6l0.5-0.3"/>
<path id="path26089" class="st0" d="M144.7,276v-2.7"/>
<path id="path26091" class="st0" d="M144.2,276.3l0.5-0.3"/>
<path id="path26093" class="st0" d="M140.8,276.8l1.7,1"/>
<path id="path26095" class="st0" d="M140.3,277.1l0.5-0.3"/>
<path id="path26097" class="st0" d="M142.6,278.4l1,0.6"/>
<path id="path26099" class="st0" d="M130,270.5l1.7,1"/>
<path id="path26101" class="st0" d="M129.5,270.8l0.5-0.3"/>
<path id="path26103" class="st0" d="M131.8,272.2l1,0.6"/>
<path id="path26105" class="st0" d="M118.7,264.6l0.5-0.3"/>
<path id="path26107" class="st0" d="M121,265.9l1,0.6"/>
<path id="path26109" class="st0" d="M143.4,273.6l-0.3,0.8c-0.1,0.6,0.6,1.8,1.2,2"/>
<path id="path26111" class="st0" d="M140.7,276.3l-0.3,0.8"/>
<path id="path26113" class="st0" d="M129.9,270.1l-0.3,0.8"/>
<path id="path26115" class="st0" d="M119,263.8l-0.3,0.8"/>
<path id="path26117" class="st0" d="M117.6,258.4v2"/>
<path id="path26119" class="st0" d="M117.6,267.5l-0.5,0.3"/>
<path id="path26121" class="st0" d="M150.4,276.1v1.2"/>
<path id="path26123" class="st0" d="M148.3,284.8v0.4l0.7,0.4l0.3,0.4l0.6,0.9l0.5,0"/>
<path id="path26125" class="st0" d="M150.9,286.8l0.7,0.4l1-0.6"/>
<path id="path26127" class="st0" d="M155.3,285.7l0.3,0.6l-0.9,2.6l7.7,4.6l1-0.6l-0.7-2.8"/>
<path id="path26129" class="st0" d="M166.4,292.5l-0.9,2.6l7.7,4.6l1-0.6l-0.7-2.8"/>
<path id="path26131" class="st0" d="M177.3,298.8l-0.9,2.6l0.7,0.5l0.3,0.4l0.6,0.9l0.5,0"/>
<path id="path26133" class="st0" d="M178.9,302.9l0.7,0.4"/>
<path id="path26135" class="st0" d="M179.3,300.6v-0.8"/>
<path id="path26137" class="st0" d="M179.3,299.4v-0.8"/>
<path id="path26139" class="st0" d="M180.6,299.4l1-0.6"/>
<path id="path26141" class="st0" d="M180.5,297.7l-2.7-0.5l1-0.6"/>
<path id="path26143" class="st0" d="M177.8,297.3l-0.3-0.6"/>
<path id="path26145" class="st0" d="M178.8,296.7l-0.3-0.6"/>
<path id="path26147" class="st0" d="M177.5,296.7v-1.2"/>
<path id="path26149" class="st0" d="M178.5,296.1v-4"/>
<path id="path26151" class="st0" d="M180.6,294.2l1-0.6"/>
<path id="path26153" class="st0" d="M179.3,290.6v-0.8"/>
<path id="path26155" class="st0" d="M170.2,280.2l-0.7-0.4l1-0.6"/>
<path id="path26157" class="st0" d="M169.5,279.8v-1.5"/>
<path id="path26159" class="st0" d="M158.4,273.4l-0.7-0.4l0.7-0.4"/>
<path id="path26161" class="st0" d="M157.7,272.7l0.7-0.4"/>
<path id="path26163" class="st0" d="M148.3,267.2l0.9-0.5"/>
<path id="path26165" class="st0" d="M150.4,279.9l0.8,0.1"/>
<path id="path26167" class="st0" d="M150.4,279.9l0.5-0.3"/>
<path id="path26169" class="st0" d="M181.1,289l0.5-0.3"/>
<path id="path26171" class="st0" d="M181.1,301.1l0.5-0.3"/>
<path id="path26173" class="st0" d="M177.5,292.8l0.5-0.3"/>
<path id="path26175" class="st0" d="M178,295.2v-2.7"/>
<path id="path26177" class="st0" d="M177.5,295.5l0.5-0.3"/>
<path id="path26179" class="st0" d="M174.1,296l1.7,1"/>
<path id="path26181" class="st0" d="M173.6,296.3l0.5-0.3"/>
<path id="path26183" class="st0" d="M175.9,297.6l1,0.6"/>
<path id="path26185" class="st0" d="M163.3,289.8l1.7,1"/>
<path id="path26187" class="st0" d="M162.8,290l0.5-0.3"/>
<path id="path26189" class="st0" d="M165.1,291.4l1,0.6"/>
<path id="path26191" class="st0" d="M152,283.8l0.5-0.3"/>
<path id="path26193" class="st0" d="M154.3,285.1l1,0.6"/>
<path id="path26195" class="st0" d="M176.7,292.8l-0.3,0.8c-0.1,0.6,0.6,1.8,1.2,2"/>
<path id="path26197" class="st0" d="M173.9,295.5l-0.3,0.8"/>
<path id="path26199" class="st0" d="M163.1,289.3l-0.3,0.8"/>
<path id="path26201" class="st0" d="M152.3,283l-0.3,0.8"/>
<path id="path26203" class="st0" d="M150.9,277.6v2"/>
<path id="path26205" class="st0" d="M150.9,286.8l-0.5,0.3"/>
<path id="path26207" class="st0" d="M178.9,302.9l-0.5,0.3"/>
<path id="path26209" class="st0" d="M177,292.7l-0.1,0.5c-0.1,0.6,0.6,1.8,1.2,2"/>
<path id="path26211" class="st0" d="M143.7,273.5l-0.1,0.5c-0.1,0.6,0.6,1.8,1.2,2"/>
<path id="path26213" class="st0" d="M175.2,149.6l2.1-3.4"/>
<path id="path26215" class="st0" d="M204.9,256.4l-0.4-0.3"/>
<path id="path26217" class="st0" d="M238.5,160.7l0.7,0.4"/>
<path id="path26219" class="st0" d="M226.8,153.7l-0.4-0.3"/>
<path id="path26221" class="st0" d="M234.5,126.7l0.5-0.8"/>
<path id="path26223" class="st0" d="M224.7,142.6l0.5-0.8"/>
<path id="path26225" class="st0" d="M193.7,293.7l-1,0.6"/>
<path id="path26227" class="st0" d="M192.7,290.4v0.8"/>
<path id="path26229" class="st0" d="M177.9,156.8l-0.4-0.2"/>
<path id="path26231" class="st0" d="M201.2,107.5l0.5-0.8"/>
<path id="path26233" class="st0" d="M119.6,264.6l-0.9,0.5"/>
<path id="path26235" class="st0" d="M115,258.8V256"/>
<path id="path26237" class="st0" d="M152.9,283.8l-0.9,0.5"/>
<path id="path26239" class="st0" d="M147.3,277.8V275"/>
<path id="path26241" class="st0" d="M180.6,297v-2.8"/>
<path id="path26243" class="st0" d="M116,259.7v-3.6"/>
<path id="path26245" class="st0" d="M115,248v-1.2"/>
<path id="path26247" class="st0" d="M115,253.5v-0.8"/>
<path id="path26249" class="st0" d="M156.8,253.9l2.8-4.5"/>
<path id="path26251" class="st0" d="M148.3,278v-2.8"/>
<path id="path26253" class="st0" d="M149.3,278.9v-3.6"/>
<path id="path26255" class="st0" d="M148.3,267.2v-1.2"/>
<path id="path26257" class="st0" d="M188.3,271.6l2.4-3.9"/>
<path id="path26259" class="st0" d="M189.3,272.1l2.3-3.7"/>
<path id="path26261" class="st0" d="M199.3,253.8l-2.4,3.9"/>
<path id="path26263" class="st0" d="M200.2,254.5l-2.3,3.7"/>
<path id="path26265" class="st0" d="M213.8,231.8l0.4,0.2"/>
<path id="path26267" class="st0" d="M238.5,191.8l0.4,0.2"/>
<path id="path26269" class="st0" d="M185.4,163.3l-0.7-0.5"/>
<path id="path26271" class="st0" d="M209.5,99.4v-3.1"/>
<path id="path26273" class="st0" d="M242.8,115.6v3.1"/>
<path id="path26275" class="st0" d="M204.5,256.1l0.5,0.3"/>
<path id="path26277" class="st0" d="M203.1,255.1l-0.4-0.3"/>
<path id="path26279" class="st0" d="M155.4,227.1l0.7,0.4"/>
<path id="path26281" class="st0" d="M264.6,148.3l-2.1-1.2"/>
<path id="path26283" class="st0" d="M223.5,151.4l-0.4-0.3"/>
<path id="path26285" class="st0" d="M229.2,127.8l2.1,1.2"/>
<path id="path26287" class="st0" d="M206.3,100.8l2.8-4.5"/>
<path id="path26289" class="st0" d="M197.7,114.7l2.8-4.5"/>
<path id="path26291" class="st0" d="M190.4,122.8l1,0.6"/>
<path id="path26293" class="st0" d="M197.6,136l-5.8-3.3"/>
<path id="path26295" class="st0" d="M199,135.2l0.2-0.4"/>
<path id="path26297" class="st0" d="M208.7,142.4l0.7-1.2l0.2-0.4"/>
<path id="path26299" class="st0" d="M219.5,148.7l-10.9-6.3"/>
<path id="path26301" class="st0" d="M222.7,141.4l1,0.6"/>
<path id="path26303" class="st0" d="M194.3,119.4l0.5-0.8"/>
<path id="path26305" class="st0" d="M191.9,122.6l2.1-3.4"/>
<path id="path26307" class="st0" d="M191.7,123.6l0.5-0.8"/>
<path id="path26309" class="st0" d="M198.2,136.5l-5.8-3.3"/>
<path id="path26311" class="st0" d="M220.2,149.2l-10.9-6.3"/>
<path id="path26313" class="st0" d="M207.3,95.7l0.7,0.5"/>
<path id="path26315" class="st0" d="M207.3,95.7l3.4,0.4"/>
<path id="path26317" class="st0" d="M208,96.1l2.9,0.4l-0.8,1.4"/>
<path id="path26319" class="st0" d="M207.5,101.9c-0.1,0.2-0.4,0.3-0.6,0.2l-2-2.7l0.7,0.5"/>
<path id="path26321" class="st0" d="M207.3,102.1l-1.6-2.2"/>
<path id="path26323" class="st0" d="M204.6,102.7l-0.5,0.8"/>
<path id="path26325" class="st0" d="M202,106.9l-0.5,0.8l-1.3-0.8"/>
<path id="path26327" class="st0" d="M198.7,109.6l0.7,0.5"/>
<path id="path26329" class="st0" d="M198.7,109.6l3.4,0.4"/>
<path id="path26331" class="st0" d="M199.3,110.1l2.9,0.4"/>
<path id="path26333" class="st0" d="M198.3,116l-2-2.7l0.7,0.5"/>
<path id="path26335" class="st0" d="M198.7,116l-1.6-2.2"/>
<path id="path26337" class="st0" d="M229.5,132.4l-3.4-0.4"/>
<path id="path26339" class="st0" d="M226,131.4l0.7-1.2"/>
<path id="path26341" class="st0" d="M226.7,131.9l0.7-1.2l1.7-2.8l0.7-1.2"/>
<path id="path26343" class="st0" d="M229.8,126l2,2.7"/>
<path id="path26345" class="st0" d="M233.5,126.2l-1.3-0.8"/>
<path id="path26347" class="st0" d="M234.7,121.2l0.5-0.8"/>
<path id="path26349" class="st0" d="M236.6,121.2l1.6-2.6l-3.5-0.5"/>
<path id="path26351" class="st0" d="M234.6,117.5l0.7-1.2"/>
<path id="path26353" class="st0" d="M238.4,112.1l2,2.7"/>
<path id="path26355" class="st0" d="M235.3,116.3l0.3,0.2"/>
<path id="path26357" class="st0" d="M228.5,127.4c-0.5-0.4-1.6,0-2,0.7c-0.5,0.6-0.4,1.8,0.2,2.1"/>
<path id="path26359" class="st0" d="M228.8,127.7l-1.7,2.8l-0.3-0.2"/>
<path id="path26361" class="st0" d="M228.5,127.4l0.7-1.2"/>
<path id="path26363" class="st0" d="M208.3,100.7c0.5,0.4,1.6,0,2-0.7c0.5-0.6,0.4-1.8-0.2-2.1"/>
<path id="path26365" class="st0" d="M208.7,100.8l1.6-2.7l-0.3-0.3"/>
<path id="path26367" class="st0" d="M204.9,99.4l0.7,0.5"/>
<path id="path26369" class="st0" d="M202.1,110c0.2,0.1,0.2,0.4,0.1,0.6"/>
<path id="path26371" class="st0" d="M196.3,113.3l0.7,0.5"/>
<path id="path26373" class="st0" d="M235.6,116.5l-0.3-0.2"/>
<path id="path26375" class="st0" d="M227,130.4l-0.3-0.2c-0.3-0.2-0.3-1.2,0.2-1.8c0.4-0.7,1.5-1.1,2-0.7"/>
<path id="path26377" class="st0" d="M201.5,111.9c0.6,0.3,0.7,1.4,0.2,2.1c-0.4,0.7-1.5,1.1-2,0.7"/>
<path id="path26379" class="st0" d="M200.1,273.5l-3.1,5"/>
<path id="path26381" class="st0" d="M199.4,273.1l-0.5,0.8"/>
<path id="path26383" class="st0" d="M196.8,277.3l-0.5,0.8"/>
<path id="path26385" class="st0" d="M197.4,253l0.2-0.4l1.4,0.8"/>
<path id="path26387" class="st0" d="M205.6,263.1l-0.5,0.8"/>
<path id="path26389" class="st0" d="M203,267.3l-0.5,0.8"/>
<path id="path26391" class="st0" d="M206.3,263.5l-1.5,2.5l-1.5,2.5"/>
<path id="path26393" class="st0" d="M123.5,234.7l2.8-4.5"/>
<path id="path26395" class="st0" d="M122.8,233.7l2.3-3.7"/>
<path id="path26397" class="st0" d="M129.6,223.3l0.5-0.8l-1-0.6"/>
<path id="path26399" class="st0" d="M115,265.6v-0.8"/>
<path id="path26401" class="st0" d="M115,263.6v-0.8"/>
<path id="path26403" class="st0" d="M115,262.3v-0.8"/>
<path id="path26405" class="st0" d="M115,254.7v-0.8"/>
<path id="path26407" class="st0" d="M115,251.4v-0.8"/>
<path id="path26409" class="st0" d="M117.9,242.2l0.5-0.8l-1-0.6"/>
<path id="path26411" class="st0" d="M127,252.6l0.3-0.2"/>
<path id="path26413" class="st0" d="M138.1,209.5l-1-0.6"/>
<path id="path26415" class="st0" d="M138.1,209.5l-0.5,0.8"/>
<path id="path26417" class="st0" d="M133.7,216.1l-2.3,3.7"/>
<path id="path26419" class="st0" d="M162.4,170.3l0.5-0.8l-1-0.6"/>
<path id="path26421" class="st0" d="M173.7,152l-1-0.6"/>
<path id="path26423" class="st0" d="M172.1,154.5l0.5-0.8"/>
<path id="path26425" class="st0" d="M147.4,194.5l0.5-0.8"/>
<path id="path26427" class="st0" d="M150,190.3l0.5-0.8"/>
<path id="path26429" class="st0" d="M152.6,186.1l0.5-0.8l-1-0.6"/>
<path id="path26431" class="st0" d="M156,252.9l2.3-3.7"/>
<path id="path26433" class="st0" d="M162.4,241.1l1,0.6"/>
<path id="path26435" class="st0" d="M162.9,242.5l0.5-0.8"/>
<path id="path26437" class="st0" d="M147.3,284.7v-4.5"/>
<path id="path26439" class="st0" d="M148.3,284.8v-0.8"/>
<path id="path26441" class="st0" d="M148.3,282.8V282"/>
<path id="path26443" class="st0" d="M148.3,281.6v-0.8"/>
<path id="path26445" class="st0" d="M147.3,273.3v-7.9"/>
<path id="path26447" class="st0" d="M148.3,273.9v-0.8"/>
<path id="path26449" class="st0" d="M148.3,272.7v-0.8"/>
<path id="path26451" class="st0" d="M148.3,270.6v-0.8"/>
<path id="path26453" class="st0" d="M147.3,265.5l3.3-5.4l1,0.6"/>
<path id="path26455" class="st0" d="M151.2,261.5l0.5-0.8"/>
<path id="path26457" class="st0" d="M160.6,271.6l-0.3,0.2"/>
<path id="path26459" class="st0" d="M165.4,240l2.8-4.5"/>
<path id="path26461" class="st0" d="M165.8,234.2l-1-0.6l-0.2,0.4"/>
<path id="path26463" class="st0" d="M274.6,149.6l-0.5,0.3"/>
<path id="path26465" class="st0" d="M257,161.2l-1-0.6"/>
<path id="path26467" class="st0" d="M252.8,167.9l4.1-6.7"/>
<path id="path26469" class="st0" d="M241.5,161.4l5.8,3.3"/>
<path id="path26471" class="st0" d="M242.5,159.8l-0.2,0.4l-0.7,1.2"/>
<path id="path26473" class="st0" d="M232.1,153.8l-0.2,0.4"/>
<path id="path26475" class="st0" d="M231.4,153.4l0.7,0.4"/>
<path id="path26477" class="st0" d="M219.5,148.7l10.9,6.3"/>
<path id="path26479" class="st0" d="M223.7,142l-4.1,6.7"/>
<path id="path26481" class="st0" d="M224.7,142.6l-1-0.6"/>
<path id="path26483" class="st0" d="M225.5,142l-0.5,0.8"/>
<path id="path26485" class="st0" d="M228.1,137.8l-0.5,0.8"/>
<path id="path26487" class="st0" d="M253.5,168.4l4.1-6.7"/>
<path id="path26489" class="st0" d="M242.2,161.8l5.1,2.9"/>
<path id="path26491" class="st0" d="M220.2,149.2l10.9,6.3"/>
<path id="path26493" class="st0" d="M231.4,153.4l0.6,0.4"/>
<path id="path26495" class="st0" d="M273.7,134.1l0.7,0.5"/>
<path id="path26497" class="st0" d="M273.7,134l-2-2.7"/>
<path id="path26499" class="st0" d="M268,137.3l3.4,0.4l-1.5,2.6"/>
<path id="path26501" class="st0" d="M272.1,138.2l-1.6,2.6"/>
<path id="path26503" class="st0" d="M268.5,139.6l-0.5,0.8"/>
<path id="path26505" class="st0" d="M265.4,144.6l1.3,0.8l-1.6,2.6l0.7,0.5"/>
<path id="path26507" class="st0" d="M267.4,145.9l-1.6,2.6"/>
<path id="path26509" class="st0" d="M265,147.9l-2-2.7"/>
<path id="path26511" class="st0" d="M262.5,145.5l-0.7,1.2"/>
<path id="path26513" class="st0" d="M263.2,145.9l-0.7,1.2l-1.7,2.8l-0.7,1.2"/>
<path id="path26515" class="st0" d="M259.4,151.2l3.4,0.4"/>
<path id="path26517" class="st0" d="M229.6,132.6l0.7,0.5"/>
<path id="path26519" class="st0" d="M229.6,132.6l2,2.7"/>
<path id="path26521" class="st0" d="M230.3,133l1.6,2.2"/>
<path id="path26523" class="st0" d="M235.4,129.8c0.1-0.2,0.1-0.5-0.1-0.6l-3.4-0.4l0.7,0.5"/>
<path id="path26525" class="st0" d="M235.5,129.6l-2.9-0.4"/>
<path id="path26527" class="st0" d="M231.9,128.8l0.7,0.5"/>
<path id="path26529" class="st0" d="M231.9,128.8l1.6-2.6l1.3,0.8l0.5-0.8"/>
<path id="path26531" class="st0" d="M235,125.9l2.1-3.4"/>
<path id="path26533" class="st0" d="M237.4,122.7l0.5-0.8"/>
<path id="path26535" class="st0" d="M238.3,118.6l0.7,0.5"/>
<path id="path26537" class="st0" d="M238.3,118.6l2,2.7"/>
<path id="path26539" class="st0" d="M238.9,119.1l1.6,2.2c-0.2,0.1,0.1,0,0.3-0.2l0.7-1.2"/>
<path id="path26541" class="st0" d="M243.9,115.3l-3.4-0.4l0.7,0.5"/>
<path id="path26543" class="st0" d="M244.1,115.7l-2.9-0.4"/>
<path id="path26545" class="st0" d="M240.5,114.9l0.7,0.5"/>
<path id="path26547" class="st0" d="M240.5,114.9l4.2-6.9"/>
<path id="path26549" class="st0" d="M278,127.2l-4.2,6.9"/>
<path id="path26551" class="st0" d="M278.7,127.7l-4.2,6.9"/>
<path id="path26553" class="st0" d="M241.6,119.9c0.5,0.4,1.6,0,2-0.7c0.5-0.6,0.4-1.8-0.2-2.1L242,120"/>
<path id="path26555" class="st0" d="M243.3,117.1l0.7-1.2"/>
<path id="path26557" class="st0" d="M235,131.3l-1.6,2.7"/>
<path id="path26559" class="st0" d="M234.7,131l0.7-1.2"/>
<path id="path26561" class="st0" d="M268.6,135.5l0.3,0.2"/>
<path id="path26563" class="st0" d="M268.6,135.5l-0.7,1.2"/>
<path id="path26565" class="st0" d="M261.7,146.7c-0.5-0.4-1.6,0-2,0.7c-0.5,0.6-0.4,1.8,0.2,2.1"/>
<path id="path26567" class="st0" d="M262.1,146.9c-0.5-0.4-1.6,0-2,0.7c-0.5,0.6-0.4,1.6,0.1,2l-0.2-0.1"/>
<path id="path26569" class="st0" d="M260.3,149.7l1.7-2.8"/>
<path id="path26571" class="st0" d="M260,149.5l-0.7,1.2"/>
<path id="path26573" class="st0" d="M229.6,132.5l-0.7,1.2l-2.1,3.3"/>
<path id="path26575" class="st0" d="M260.7,156.7l2.1-3.3l0.7-1.2"/>
<path id="path26577" class="st0" d="M262.8,151.7l-0.7,1.2l-2.1,3.3"/>
<path id="path26579" class="st0" d="M229.6,132.5l0.7,0.5"/>
<path id="path26581" class="st0" d="M238.2,118.6l0.7,0.5"/>
<path id="path26583" class="st0" d="M234.8,131.1c0.6,0.3,0.7,1.4,0.2,2.1c-0.4,0.7-1.5,1.1-2,0.7"/>
<path id="path26585" class="st0" d="M268.9,135.7l-0.3-0.2"/>
<path id="path26587" class="st0" d="M260.3,149.6l-0.3-0.2"/>
<path id="path26589" class="st0" d="M163.3,176.6l3.1-5l1,0.6"/>
<path id="path26591" class="st0" d="M164.3,177.1l3.1-5l0.9,0.6"/>
<path id="path26593" class="st0" d="M178.9,171.9l-0.5,0.8l0.4,0.3l0.4,0.3"/>
<path id="path26595" class="st0" d="M169.1,187.7l-0.5,0.8"/>
<path id="path26597" class="st0" d="M172.2,182.7l1.1,0.8"/>
<path id="path26599" class="st0" d="M175.3,177.7l-0.5,0.8l-1.9,3.6l-0.7,0.6"/>
<path id="path26601" class="st0" d="M173.1,160.7l8.2-13.3l1,0.6"/>
<path id="path26603" class="st0" d="M174.1,161.3l8.2-13.3l0.9,0.6"/>
<path id="path26605" class="st0" d="M191.2,151.9l-0.5,0.8l0.4,0.3l0.4,0.3"/>
<path id="path26607" class="st0" d="M181.5,167.7l-0.5,0.8"/>
<path id="path26609" class="st0" d="M179.6,153.2l-2.1,3.3l0,0.4"/>
<path id="path26611" class="st0" d="M185,161.9l-0.5,0.8"/>
<path id="path26613" class="st0" d="M187.6,157.7l-0.5,0.8l-1.9,3.6"/>
<path id="path26615" class="st0" d="M197.6,136.8l4.6,3.3"/>
<path id="path26617" class="st0" d="M194.7,148.3l-0.4-0.3l-0.4-0.3l-0.5,0.8"/>
<path id="path26619" class="st0" d="M188,136.6l2.8-4.5l1,0.6"/>
<path id="path26621" class="st0" d="M189,137.1l2.8-4.5l2.2,1.5l-0.2,0.4"/>
<path id="path26623" class="st0" d="M194.2,134.9l0.2-0.4"/>
<path id="path26625" class="st0" d="M197.2,136.4l-0.3,0.4"/>
<path id="path26627" class="st0" d="M197.4,137.2l0.2-0.4"/>
<path id="path26629" class="st0" d="M148.4,200.7l3.1-5"/>
<path id="path26631" class="st0" d="M153.5,192.4l3.1-5l1,0.6"/>
<path id="path26633" class="st0" d="M149.4,201.3l8.2-13.3l0.9,0.6"/>
<path id="path26635" class="st0" d="M166.5,191.9l-0.5,0.8l0.4,0.3l0.4,0.3"/>
<path id="path26637" class="st0" d="M156.7,207.7l-0.5,0.8"/>
<path id="path26639" class="st0" d="M154.9,193.2l-2.1,3.3l0,0.4"/>
<path id="path26641" class="st0" d="M160.3,201.9l-0.5,0.8"/>
<path id="path26643" class="st0" d="M163.8,198.3l-0.4-0.3l-0.4-0.3l-0.5,0.8l-1.9,3.6"/>
<path id="path26645" class="st0" d="M154.5,213.3l-0.4-0.3l-0.4-0.3l0.5-0.8"/>
<path id="path26647" class="st0" d="M168.8,188.6l-1.1,1.7l-1.1,1.7"/>
<path id="path26649" class="st0" d="M193.5,148.7l-1.1,1.7l-1.1,1.7"/>
<path id="path26651" class="st0" d="M154.3,212l1.1-1.7l1.1-1.7"/>
<path id="path26653" class="st0" d="M181.2,168.6l-1.1,1.7l-1.1,1.7"/>
<path id="path26655" class="st0" d="M266.7,145.4l3.1-5l-1-0.6"/>
<path id="path26657" class="st0" d="M265.7,144.8l3.1-5"/>
<path id="path26659" class="st0" d="M269.8,140.4l0.9,0.6"/>
<path id="path26661" class="st0" d="M272.1,138.2l2.3-3.7"/>
<path id="path26663" class="st0" d="M274.8,147v0.8"/>
<path id="path26665" class="st0" d="M267.2,162.9l-0.5,0.8"/>
<path id="path26667" class="st0" d="M257.8,159.9l-1-0.6"/>
<path id="path26669" class="st0" d="M257.8,159.9l2.3-3.7l-1-0.6"/>
<path id="path26671" class="st0" d="M256.8,159.3l2.3-3.7"/>
<path id="path26673" class="st0" d="M260,156.2l0.7,0.5"/>
<path id="path26675" class="st0" d="M263.5,152.2l2.3-3.7"/>
<path id="path26677" class="st0" d="M262.5,151.6l2.4-3.9"/>
<path id="path26679" class="st0" d="M274.1,149.9v3.2"/>
<path id="path26681" class="st0" d="M275.1,138.5v3.2"/>
<path id="path26683" class="st0" d="M240.6,188.4l-1,1.7"/>
<path id="path26685" class="st0" d="M239.2,189.9l4.1-6.7l-1-0.6"/>
<path id="path26687" class="st0" d="M238.2,189.3l4.1-6.7"/>
<path id="path26689" class="st0" d="M243.4,183.2l0.9,0.6"/>
<path id="path26691" class="st0" d="M252.2,187.1l-0.5,0.8l0.4,0.3l0.4,0.3"/>
<path id="path26693" class="st0" d="M243.1,193.3l-1.1,3.1"/>
<path id="path26695" class="st0" d="M254.3,183.7l0.5-0.8"/>
<path id="path26697" class="st0" d="M265,168.6l-0.4-0.3l-0.4-0.3l0.5-0.8"/>
<path id="path26699" class="st0" d="M257.4,159.8l-0.8,1.3"/>
<path id="path26701" class="st0" d="M254.2,167.7l-0.5,0.8l-0.9-0.6l-1-0.6"/>
<path id="path26703" class="st0" d="M252.8,167.9l-2.8,4.5"/>
<path id="path26705" class="st0" d="M251.8,167.3l-2.8,4.5"/>
<path id="path26707" class="st0" d="M259,178.7l-1.1-0.8l0.5-0.8l2-2.7l0.3-1"/>
<path id="path26709" class="st0" d="M256.9,171.3l0.2-0.4l-1.3-0.9l-0.2,0.4"/>
<path id="path26711" class="st0" d="M255.1,170.1l0.2-0.4l0.7-1.2l0.2-0.4"/>
<path id="path26713" class="st0" d="M257.9,169.7l0.2-0.4"/>
<path id="path26715" class="st0" d="M257.6,171.3l-0.2,0.4l-0.4-0.3"/>
<path id="path26717" class="st0" d="M257.4,159.8l-0.7-0.5"/>
<path id="path26719" class="st0" d="M266.9,163.9l-1.1,1.7l-1.1,1.7"/>
<path id="path26721" class="st0" d="M254.6,183.9l-1.1,1.7l-1.1,1.7"/>
<path id="path26723" class="st0" d="M274.4,149.4l-0.2,0.4"/>
<path id="path26725" class="st0" d="M275.4,138.1l-0.2,0.4"/>
<path id="path26727" class="st0" d="M159.3,246.1l3.1-5l-1-0.6"/>
<path id="path26729" class="st0" d="M158.3,245.6l3.1-5"/>
<path id="path26731" class="st0" d="M147.3,280.2l-1-0.6"/>
<path id="path26733" class="st0" d="M146.3,284.1v-2.5v-2"/>
<path id="path26735" class="st0" d="M147.3,273.3l-1-0.6"/>
<path id="path26737" class="st0" d="M147.3,265.5l-1-0.6"/>
<path id="path26739" class="st0" d="M146.3,272.8v-7.9"/>
<path id="path26741" class="st0" d="M150.7,260.1l-1-0.6"/>
<path id="path26743" class="st0" d="M146.3,264.9l3.3-5.4"/>
<path id="path26745" class="st0" d="M163.6,238.5l2.4-3.9"/>
<path id="path26747" class="st0" d="M118.2,242.4l0.5-0.8"/>
<path id="path26749" class="st0" d="M125.1,252.7l-10.1-5.8"/>
<path id="path26751" class="st0" d="M126.1,251.1l-0.2,0.4l-0.2,0.4l-0.5,0.8"/>
<path id="path26753" class="st0" d="M126.5,251.9l0.2-0.4"/>
<path id="path26755" class="st0" d="M136.3,257.5l-9.8-5.6"/>
<path id="path26757" class="st0" d="M136.2,259.1l0.5-0.8l0.2-0.4l0.2-0.4"/>
<path id="path26759" class="st0" d="M146.3,264.9l-10.1-5.8"/>
<path id="path26761" class="st0" d="M125.1,252.8l-9.4-5.4"/>
<path id="path26763" class="st0" d="M136.9,257.9l-9.7-5.6"/>
<path id="path26765" class="st0" d="M146.3,265l-9.4-5.4"/>
<path id="path26767" class="st0" d="M126.5,251.9l0.7,0.5"/>
<path id="path26769" class="st0" d="M155.8,227.9l1-1.6"/>
<path id="path26771" class="st0" d="M155.4,227.1l-0.2,0.4"/>
<path id="path26773" class="st0" d="M145.6,221.5l9.8,5.6"/>
<path id="path26775" class="st0" d="M145.4,221.9l0.2-0.4"/>
<path id="path26777" class="st0" d="M144.7,221.5l0.7,0.4"/>
<path id="path26779" class="st0" d="M144.9,221.1l-0.2,0.4"/>
<path id="path26781" class="st0" d="M139.9,216.6l5.8,3.3"/>
<path id="path26783" class="st0" d="M134.8,214.9l0.2-0.4l0.3-0.5"/>
<path id="path26785" class="st0" d="M134.1,214.5l0.7,0.4"/>
<path id="path26787" class="st0" d="M134.4,214.1l-0.2,0.4"/>
<path id="path26789" class="st0" d="M136.5,216.1l-3.4-0.4"/>
<path id="path26791" class="st0" d="M132.8,222.1c0.2,0.1,0.5,0,0.6-0.2l0.7-1.2"/>
<path id="path26793" class="st0" d="M130.8,219.4l2,2.7"/>
<path id="path26795" class="st0" d="M129.9,223.5l0.5-0.8"/>
<path id="path26797" class="st0" d="M127.3,227.7l0.5-0.8"/>
<path id="path26799" class="st0" d="M126,226.9l1.3,0.8"/>
<path id="path26801" class="st0" d="M127.9,230l-3.4-0.4"/>
<path id="path26803" class="st0" d="M124.7,235.8l0.7-1.2"/>
<path id="path26805" class="st0" d="M122.2,233.3l2,2.7"/>
<path id="path26807" class="st0" d="M151.9,252l3.4,0.4"/>
<path id="path26809" class="st0" d="M157.6,248.7l-2-2.7"/>
<path id="path26811" class="st0" d="M159.3,246.1l-1.6,2.6"/>
<path id="path26813" class="st0" d="M157.9,245.4l1.3,0.8"/>
<path id="path26815" class="st0" d="M164,238.5l-1.6,2.6"/>
<path id="path26817" class="st0" d="M160.5,238.1l3.4,0.4"/>
<path id="path26819" class="st0" d="M163.6,232.3l-0.7,1.2"/>
<path id="path26821" class="st0" d="M166.2,234.8l-2-2.7"/>
<path id="path26823" class="st0" d="M136.6,216.5l-2.9-0.4"/>
<path id="path26825" class="st0" d="M131.5,219.9l1.6,2.2"/>
<path id="path26827" class="st0" d="M128,230.4l-2.9-0.4"/>
<path id="path26829" class="st0" d="M122.8,233.8l1.6,2.2"/>
<path id="path26831" class="st0" d="M164.3,232.8l-0.7,1.2l-1.7,2.8l-0.7,1.2"/>
<path id="path26833" class="st0" d="M133.1,215.6l0.7,0.5"/>
<path id="path26835" class="st0" d="M130.8,219.4l0.7,0.5"/>
<path id="path26837" class="st0" d="M124.5,229.6l0.7,0.5"/>
<path id="path26839" class="st0" d="M122.2,233.3l0.7,0.5"/>
<path id="path26841" class="st0" d="M152.9,250.4l-0.3-0.2l-0.7,1.2"/>
<path id="path26843" class="st0" d="M161.2,236.3l0.3,0.2"/>
<path id="path26845" class="st0" d="M161.2,236.3l-0.7,1.2c-0.1,0.2-0.1,0.5,0.1,0.6"/>
<path id="path26847" class="st0" d="M127.2,231.8l0.3,0.2"/>
<path id="path26849" class="st0" d="M127.2,231.8l0.7-1.2c0.1-0.2,0.1-0.5-0.1-0.6"/>
<path id="path26851" class="st0" d="M134.1,220.7c0.5,0.4,1.6,0,2-0.7c0.5-0.6,0.4-1.8-0.2-2.1l-1.4,2.9"/>
<path id="path26853" class="st0" d="M135.8,217.9l0.7-1.2"/>
<path id="path26855" class="st0" d="M130.7,219.3l0.7,0.5"/>
<path id="path26857" class="st0" d="M122.1,233.3l0.7,0.5"/>
<path id="path26859" class="st0" d="M152.8,250.4l-0.3-0.2"/>
<path id="path26861" class="st0" d="M161.4,236.5l-0.3-0.2"/>
<path id="path26863" class="st0" d="M127.3,231.8c0.6,0.3,0.7,1.4,0.2,2.1c-0.4,0.7-1.5,1.1-2,0.7"/>
<path id="path26865" class="st0" d="M223.4,205.5l0.5-0.8l-1-0.6"/>
<path id="path26867" class="st0" d="M233.2,189.7l0.5-0.8"/>
<path id="path26869" class="st0" d="M235.7,185.6l0.5-0.8"/>
<path id="path26871" class="st0" d="M238.3,181.4l0.5-0.8l-1-0.6"/>
<path id="path26873" class="st0" d="M244.5,169.2l2.8-4.5"/>
<path id="path26875" class="st0" d="M208.4,229.7l0.5-0.8"/>
<path id="path26877" class="st0" d="M211,225.6l0.5-0.8"/>
<path id="path26879" class="st0" d="M213.6,221.4l0.5-0.8l-1-0.6"/>
<path id="path26881" class="st0" d="M197.6,251.9l0.7,0.5"/>
<path id="path26883" class="st0" d="M197.8,136.3l0.7,0.4l-0.9-0.6l0.7-1.2"/>
<path id="path26885" class="st0" d="M197.6,136l5.5,3.2l5.5,3.2"/>
<path id="path26887" class="st0" d="M198.3,134.8l5.5,3.2l5.5,3.2"/>
<path id="path26889" class="st0" d="M217.4,148.6l-0.7-0.5l-0.9-0.5l-4.7-2.7l-4.9-2.8l-0.9-0.5"/>
<path id="path26891" class="st0" d="M194.7,134.7l0.4,0.3"/>
<path id="path26893" class="st0" d="M194.8,134.8l1.9,1.3"/>
<path id="path26895" class="st0" d="M197.1,136.4l0.4,0.3"/>
<path id="path26897" class="st0" d="M257.6,171.3l0.7-1.2l-2.2-1.6"/>
<path id="path26899" class="st0" d="M241.5,161.4l-5.5-3.2l-5.5-3.2l0.7-1.2"/>
<path id="path26901" class="st0" d="M242.2,160.2l-5.5-3.2l-5.5-3.2"/>
<path id="path26903" class="st0" d="M230.4,155l0.9,0.6"/>
<path id="path26905" class="st0" d="M223.4,151.2l0.4,0.3"/>
<path id="path26907" class="st0" d="M223.5,151.4l2.8,2"/>
<path id="path26909" class="st0" d="M226.7,153.5l0.4,0.3"/>
<path id="path26911" class="st0" d="M238.3,160.5l0.7,0.4l5.1,3l2.8,1.6"/>
<path id="path26913" class="st0" d="M222.1,150.5l-1.3-0.8"/>
<path id="path26915" class="st0" d="M193.9,134.2l0.8,0.5"/>
<path id="path26917" class="st0" d="M224.8,152.5l-3.7-2.6"/>
<path id="path26919" class="st0" d="M232.5,125.6l3.1-5l1,0.6"/>
<path id="path26921" class="st0" d="M225.8,136.4l1,0.6"/>
<path id="path26923" class="st0" d="M229.2,132.4l2.4-3.9"/>
<path id="path26925" class="st0" d="M222.7,141.4l0.8-1.3l2.3-3.7"/>
<path id="path26927" class="st0" d="M258.8,178.5l2.8-4.5"/>
<path id="path26929" class="st0" d="M258.1,178.1l0.5-0.8"/>
<path id="path26931" class="st0" d="M260.4,174.4l0.5-0.8"/>
<path id="path26933" class="st0" d="M221.7,238.5l3.1-5"/>
<path id="path26935" class="st0" d="M221,238.1l0.5-0.8"/>
<path id="path26937" class="st0" d="M223.6,233.9l0.5-0.8"/>
<path id="path26939" class="st0" d="M209.7,258l2.8-4.5"/>
<path id="path26941" class="st0" d="M209,257.5l0.5-0.8"/>
<path id="path26943" class="st0" d="M211.3,253.9l0.5-0.8"/>
<path id="path26945" class="st0" d="M234.1,218.5l3.1-5"/>
<path id="path26947" class="st0" d="M233.4,218.1l0.5-0.8"/>
<path id="path26949" class="st0" d="M236,213.9l0.5-0.8"/>
<path id="path26951" class="st0" d="M252.6,188.5l1.5-2.5l1.5-2.5"/>
<path id="path26953" class="st0" d="M252,188.1l0.5-0.8"/>
<path id="path26955" class="st0" d="M254.6,183.9l0.5-0.8"/>
<path id="path26957" class="st0" d="M227.9,228.5l3.1-5"/>
<path id="path26959" class="st0" d="M227.2,228.1l0.5-0.8"/>
<path id="path26961" class="st0" d="M229.8,223.9l0.5-0.8"/>
<path id="path26963" class="st0" d="M215.5,248.5l1.5-2.5l1.5-2.5"/>
<path id="path26965" class="st0" d="M214.9,248.1l0.5-0.8"/>
<path id="path26967" class="st0" d="M217.5,243.9l0.5-0.8"/>
<path id="path26969" class="st0" d="M240.3,208.5l3.1-5"/>
<path id="path26971" class="st0" d="M239.6,208.1l0.5-0.8"/>
<path id="path26973" class="st0" d="M242.2,203.9l0.5-0.8"/>
<path id="path26975" class="st0" d="M191.6,264.8l3.1-5l1,0.6"/>
<path id="path26977" class="st0" d="M192.6,265.4l3.1-5l0.9,0.6"/>
<path id="path26979" class="st0" d="M202.8,267.1l-0.5,0.8l0.4,0.3l0.4,0.3"/>
<path id="path26981" class="st0" d="M192,297l-0.7,0.4"/>
<path id="path26983" class="st0" d="M188.5,300.5v-2.3"/>
<path id="path26985" class="st0" d="M187.1,297.8l1,0.6v-7"/>
<path id="path26987" class="st0" d="M188.5,291.2v-0.8l-2.7,1.5v0.8"/>
<path id="path26989" class="st0" d="M183,303.7v-1.5"/>
<path id="path26991" class="st0" d="M179.6,303.3l1,0.6"/>
<path id="path26993" class="st0" d="M182.3,302.9l-1.7,1"/>
<path id="path26995" class="st0" d="M179.6,303.3v-4.5"/>
<path id="path26997" class="st0" d="M180.6,303.9v-4.5"/>
<path id="path26999" class="st0" d="M181.6,298.1v-4.5"/>
<path id="path27001" class="st0" d="M179.6,292l1,0.6"/>
<path id="path27003" class="st0" d="M181.9,291.8l-1.3,0.8"/>
<path id="path27005" class="st0" d="M179.6,292v-7.9l1,0.6"/>
<path id="path27007" class="st0" d="M180.6,292.6v-7.9"/>
<path id="path27009" class="st0" d="M179.6,284.1l3.3-5.4l1,0.6"/>
<path id="path27011" class="st0" d="M180.6,284.7l3.3-5.4l0.9,0.6"/>
<path id="path27013" class="st0" d="M196.1,277.9l1.1,0.8"/>
<path id="path27015" class="st0" d="M199.2,272.9l-0.5,0.8l-1.9,3.6l-0.7,0.6"/>
<path id="path27017" class="st0" d="M194,289.6l-1.7,1v0.8"/>
<path id="path27019" class="st0" d="M192.7,291.2v2.3"/>
<path id="path27021" class="st0" d="M192.3,293.7v0.8"/>
<path id="path27023" class="st0" d="M181.1,301.1v1.3"/>
<path id="path27025" class="st0" d="M181.6,302.1v-1.3"/>
<path id="path27027" class="st0" d="M181.1,289v1.3"/>
<path id="path27029" class="st0" d="M204.9,263.7l0.5-0.8"/>
<path id="path27031" class="st0" d="M215.5,248.5l-0.4-0.3l-0.4-0.3l0.5-0.8"/>
<path id="path27033" class="st0" d="M202.7,246.8l1,0.6"/>
<path id="path27035" class="st0" d="M204.6,248l-0.9-0.6"/>
<path id="path27037" class="st0" d="M202.7,246.8l-3.1,5l0.7,0.4"/>
<path id="path27039" class="st0" d="M203.7,247.4l-3.1,5"/>
<path id="path27041" class="st0" d="M199.6,251.8l0.6,0.4"/>
<path id="path27043" class="st0" d="M201.5,253l-0.5,0.8"/>
<path id="path27045" class="st0" d="M208.8,257.4l0.5-0.8l2-2.7l0.3-1"/>
<path id="path27047" class="st0" d="M209.9,258.2l-1.1-0.8"/>
<path id="path27049" class="st0" d="M204.5,256.1l-1.3-0.9l-0.2,0.4"/>
<path id="path27051" class="st0" d="M205.2,254.9l0.2-0.4l0.4,0.3"/>
<path id="path27053" class="st0" d="M204.7,256.8l-0.4-0.3l0.2-0.4"/>
<path id="path27055" class="st0" d="M224.3,211.8l3.1-5l1,0.6"/>
<path id="path27057" class="st0" d="M225.3,212.4l3.1-5l0.9,0.6"/>
<path id="path27059" class="st0" d="M239.9,207.1l-0.5,0.8l0.4,0.3l0.4,0.3"/>
<path id="path27061" class="st0" d="M230.1,222.9l-0.5,0.8"/>
<path id="path27063" class="st0" d="M233.2,217.9l1.1,0.8"/>
<path id="path27065" class="st0" d="M236.3,212.9l-0.5,0.8l-1.9,3.6l-0.7,0.6"/>
<path id="path27067" class="st0" d="M238.2,189.3l1,0.6"/>
<path id="path27069" class="st0" d="M239.6,190.1l-1,1.7l0,0.4"/>
<path id="path27071" class="st0" d="M239.1,195.1l2.4,1.7"/>
<path id="path27073" class="st0" d="M243.6,193l2.4,1.7"/>
<path id="path27075" class="st0" d="M243.6,198.2l2.4,1.7"/>
<path id="path27077" class="st0" d="M248.1,196.1l1.6,1.1"/>
<path id="path27079" class="st0" d="M242.5,202.9l-0.5,0.8"/>
<path id="path27081" class="st0" d="M234.1,196l4.1-6.7"/>
<path id="path27083" class="st0" d="M235.1,196.5l4.1-6.7"/>
<path id="path27085" class="st0" d="M209.4,235.9l8.2-13.3l1,0.6"/>
<path id="path27087" class="st0" d="M210.4,236.5l8.2-13.3l0.9,0.6"/>
<path id="path27089" class="st0" d="M227.5,227.1l-0.5,0.8l0.4,0.3l0.4,0.3"/>
<path id="path27091" class="st0" d="M217.7,242.9l-0.5,0.8"/>
<path id="path27093" class="st0" d="M215.9,228.4l-2.1,3.3l0,0.4"/>
<path id="path27095" class="st0" d="M221.3,237.1l-0.5,0.8l0.4,0.3l0.4,0.3"/>
<path id="path27097" class="st0" d="M223.9,232.9l-0.5,0.8l-1.9,3.6"/>
<path id="path27099" class="st0" d="M205.1,263.9l-2.1,3.4"/>
<path id="path27101" class="st0" d="M229.8,223.9l-1.1,1.7l-1.1,1.7"/>
<path id="path27103" class="st0" d="M242.2,203.9l-1.1,1.7l-1.1,1.7"/>
<path id="path27105" class="st0" d="M215.4,247.3l1.1-1.7l1.1-1.7"/>
<path id="path27107" class="st0" d="M202.5,255.2l1.2-2"/>
<path id="path27109" class="st0" d="M204.9,256.4l-0.2,0.4"/>
<path id="path27111" class="st0" d="M205.4,254.5l0.5,0.3"/>
<path id="path27113" class="st0" d="M181.4,302.5l0.2-0.4"/>
<path id="path27115" class="st0" d="M181.2,300.8l-0.2,0.4"/>
<path id="path27117" class="st0" d="M181.4,290.3l0.2-0.4"/>
<path id="path27119" class="st0" d="M181.2,288.6l-0.2,0.4"/>
<path id="path27121" class="st0" d="M169.5,278.3l10.1,5.8"/>
<path id="path27123" class="st0" d="M170.5,276.7l-0.2,0.4l-0.2,0.4l-0.5,0.8"/>
<path id="path27125" class="st0" d="M159.8,271.1l9.8,5.6"/>
<path id="path27127" class="st0" d="M160.1,270.7l-0.2,0.4"/>
<path id="path27129" class="st0" d="M159.4,270.3l0.7,0.4"/>
<path id="path27131" class="st0" d="M158.4,271.9l0.5-0.8l0.2-0.4l0.2-0.4"/>
<path id="path27133" class="st0" d="M148.3,266.1l10.1,5.8"/>
<path id="path27135" class="st0" d="M152,260.9l-0.5,0.8"/>
<path id="path27137" class="st0" d="M170.2,278.8l9.4,5.4"/>
<path id="path27139" class="st0" d="M160.5,271.5l9.7,5.6"/>
<path id="path27141" class="st0" d="M149,266.5l9.4,5.4"/>
<path id="path27143" class="st0" d="M159.8,271.1l0.7,0.5"/>
<path id="path27145" class="st0" d="M159.4,270.3l0.6,0.4"/>
<path id="path27147" class="st0" d="M166.3,234.8l0.7,0.5"/>
<path id="path27149" class="st0" d="M167.6,232.6l-0.3,0.5l-0.3,0.5l-0.7,1.2"/>
<path id="path27151" class="st0" d="M177.5,240.5l0.2-0.4"/>
<path id="path27153" class="st0" d="M178.2,240.9l-0.7-0.4"/>
<path id="path27155" class="st0" d="M178.4,240.5l-0.2,0.4"/>
<path id="path27157" class="st0" d="M188.2,246.1l-9.8-5.6"/>
<path id="path27159" class="st0" d="M187.9,246.5l0.2-0.4"/>
<path id="path27161" class="st0" d="M189.6,245.3l-1,1.6"/>
<path id="path27163" class="st0" d="M199.9,251.2l-10.3-6"/>
<path id="path27165" class="st0" d="M199.3,252.2l0.2-0.4"/>
<path id="path27167" class="st0" d="M200,252.6l-0.7-0.4"/>
<path id="path27169" class="st0" d="M200.3,252.2l-0.2,0.4"/>
<path id="path27171" class="st0" d="M199.6,254l0.7-1.2l0.3-0.5"/>
<path id="path27173" class="st0" d="M197.5,251.3l2,2.7"/>
<path id="path27175" class="st0" d="M197.1,257.7l-3.4-0.4"/>
<path id="path27177" class="st0" d="M195.6,260.4l1.6-2.6"/>
<path id="path27179" class="st0" d="M192.6,265.4l-1.3-0.8"/>
<path id="path27181" class="st0" d="M190.9,268l1.6-2.6"/>
<path id="path27183" class="st0" d="M188.9,265.2l2,2.7"/>
<path id="path27185" class="st0" d="M188.5,271.6l-3.4-0.4"/>
<path id="path27187" class="st0" d="M157.4,255.2l-2-2.7"/>
<path id="path27189" class="st0" d="M157.8,248.8l3.4,0.4"/>
<path id="path27191" class="st0" d="M160.6,246.9l-1.3-0.8"/>
<path id="path27193" class="st0" d="M161.1,246.1l-0.5,0.8"/>
<path id="path27195" class="st0" d="M163.7,241.9l-0.5,0.8"/>
<path id="path27197" class="st0" d="M166,241.3l-2-2.7"/>
<path id="path27199" class="st0" d="M166.4,234.9l3.4,0.4"/>
<path id="path27201" class="st0" d="M200.2,254.5l0.7-1.2l0.3-0.5"/>
<path id="path27203" class="st0" d="M196.3,260.8l1.6-2.6"/>
<path id="path27205" class="st0" d="M191.6,268.4l1.6-2.6"/>
<path id="path27207" class="st0" d="M157.8,255.2l-1.6-2.2"/>
<path id="path27209" class="st0" d="M158.4,249.3l2.9,0.4"/>
<path id="path27211" class="st0" d="M166.4,241.3l-1.6-2.2"/>
<path id="path27213" class="st0" d="M167,235.3l2.9,0.4"/>
<path id="path27215" class="st0" d="M200.6,252.4l0.7,0.5"/>
<path id="path27217" class="st0" d="M199.6,254l0.7,0.5"/>
<path id="path27219" class="st0" d="M190.9,268l0.7,0.5"/>
<path id="path27221" class="st0" d="M155.5,252.5l0.7,0.5"/>
<path id="path27223" class="st0" d="M157.8,248.8l0.7,0.5"/>
<path id="path27225" class="st0" d="M157.7,248.7l0.7,0.5"/>
<path id="path27227" class="st0" d="M164.1,238.6l0.7,0.5"/>
<path id="path27229" class="st0" d="M166.4,234.9l0.7,0.5"/>
<path id="path27231" class="st0" d="M158.8,253.8L158,255"/>
<path id="path27233" class="st0" d="M167.4,239.9c0.5,0.4,1.6,0,2-0.7c0.5-0.6,0.4-1.8-0.2-2.1"/>
<path id="path27235" class="st0" d="M167.4,239.9l-0.7,1.2c-0.1,0.2-0.4,0.3-0.6,0.2"/>
<path id="path27237" class="st0" d="M186.2,269.7l-0.3-0.2"/>
<path id="path27239" class="st0" d="M194.4,255.5l0.3,0.2"/>
<path id="path27241" class="st0" d="M196.2,252.7l0.7-1.2"/>
<path id="path27243" class="st0" d="M155.4,252.5l-0.7,1.2l-4,6.4"/>
<path id="path27245" class="st0" d="M184.6,279.8l4-6.4l0.7-1.2"/>
<path id="path27247" class="st0" d="M183.9,279.3l4-6.4l0.7-1.2"/>
<path id="path27249" class="st0" d="M185.1,270.6l0.7-1.2"/>
<path id="path27251" class="st0" d="M155.4,252.5l0.7,0.5"/>
<path id="path27253" class="st0" d="M164,238.5l0.7,0.5"/>
<path id="path27255" class="st0" d="M169.8,235.9l-0.7,1.2"/>
<path id="path27257" class="st0" d="M160.6,251c0.6,0.3,0.7,1.4,0.2,2.1c-0.4,0.7-1.5,1.1-2,0.7"/>
<path id="path27259" class="st0" d="M161.2,249.2c0.2,0.1,0.2,0.4,0.1,0.6l-0.7,1.2"/>
<path id="path27261" class="st0" d="M186.1,269.6l-0.3-0.2"/>
<path id="path27263" class="st0" d="M194.7,255.7l-0.3-0.2"/>
<path id="path27265" class="st0" d="M194.4,257.2l0.7-1.2l1.7-2.8l0.7-1.2"/>
<path id="path27267" class="st0" d="M193.8,257.3c-0.2-0.1-0.2-0.4-0.1-0.6l0.7-1.2"/>
<path id="path27269" class="st0" d="M205.7,255.2l-0.7,1.2"/>
<path id="path27271" class="st0" d="M205.7,255.2l-2.2-1.6"/>
<path id="path27273" class="st0" d="M178.5,238.9l-0.7,1.2"/>
<path id="path27275" class="st0" d="M178.4,240.5l-0.7-0.4L178.4,240.5"/>
<path id="path27277" class="st0" d="M145.7,219.9l-0.7,1.2"/>
<path id="path27279" class="st0" d="M145.6,221.6l-0.6-0.4"/>
<path id="path27281" class="st0" d="M145.7,219.9l5.5,3.2l5.5,3.2"/>
<path id="path27283" class="st0" d="M144.9,221.1l0.7,0.4"/>
<path id="path27285" class="st0" d="M164.7,233.7l-0.6-0.4"/>
<path id="path27287" class="st0" d="M197.6,251.9l0.5,0.3"/>
<path id="path27289" class="st0" d="M264.3,168.1l0.5-0.8"/>
<path id="path27291" class="st0" d="M266.9,163.9l0.5-0.8"/>
<path id="path27293" class="st0" d="M265,168.6l1.5-2.5l1.5-2.5"/>
<path id="path27295" class="st0" d="M206.7,233.3l-0.5,0.8"/>
<path id="path27297" class="st0" d="M205.8,233.9l-1-0.6"/>
<path id="path27299" class="st0" d="M203.7,247.4l6.7-10.8"/>
<path id="path27301" class="st0" d="M204.3,247.8L211,237"/>
<path id="path27303" class="st0" d="M210.4,236.5l-1-0.6"/>
<path id="path27305" class="st0" d="M218.6,223.2l6.7-10.8"/>
<path id="path27307" class="st0" d="M219.3,223.7l6.7-10.8"/>
<path id="path27309" class="st0" d="M225.3,212.4l-1-0.6"/>
<path id="path27311" class="st0" d="M228.4,207.4l6.7-10.8"/>
<path id="path27313" class="st0" d="M229.1,207.8l6.7-10.8"/>
<path id="path27315" class="st0" d="M235.1,196.5l-1-0.6"/>
<path id="path27317" class="st0" d="M238.9,192l2.1-3.3"/>
<path id="path27319" class="st0" d="M243.4,183.2l6.7-10.8"/>
<path id="path27321" class="st0" d="M244,183.7l6.7-10.8"/>
<path id="path27323" class="st0" d="M250.1,172.4l-1-0.6"/>
<path id="path27325" class="st0" d="M251.8,167.3l-3.5-2l-2.3,3.7"/>
<path id="path27327" class="st0" d="M246.3,169.1l-0.5,0.8"/>
<path id="path27329" class="st0" d="M245.5,169.7l-1-0.6"/>
<path id="path27331" class="st0" d="M239.1,180.8l-0.5,0.8"/>
<path id="path27333" class="st0" d="M236.5,185l-0.5,0.8"/>
<path id="path27335" class="st0" d="M234,189.1l-0.5,0.8"/>
<path id="path27337" class="st0" d="M231.4,193.3l-0.5,0.8"/>
<path id="path27339" class="st0" d="M230.6,193.9l-1-0.6"/>
<path id="path27341" class="st0" d="M224.2,204.9l-0.5,0.8"/>
<path id="path27343" class="st0" d="M221.6,209.1l-0.5,0.8"/>
<path id="path27345" class="st0" d="M220.8,209.7l-1-0.6"/>
<path id="path27347" class="st0" d="M214.4,220.8l-0.5,0.8"/>
<path id="path27349" class="st0" d="M211.8,225l-0.5,0.8"/>
<path id="path27351" class="st0" d="M209.3,229.1l-0.5,0.8"/>
<path id="path27353" class="st0" d="M235.7,185.6l-2.1,3.3"/>
<path id="path27355" class="st0" d="M211,225.6l-2.1,3.3"/>
<path id="path27357" class="st0" d="M225.8,153.1l-3.7-2.6"/>
<path id="path27359" class="st0" d="M237.1,122.5l0.5-0.8l-1-0.6"/>
<path id="path27361" class="st0" d="M233.5,126.2l3.1-5"/>
<path id="path27363" class="st0" d="M239.6,120l2.8-4.5"/>
<path id="path27365" class="st0" d="M238.8,119l2.3-3.7"/>
<path id="path27367" class="st0" d="M227.8,137.6l-1-0.6"/>
<path id="path27369" class="st0" d="M231,133.9l2.8-4.5"/>
<path id="path27371" class="st0" d="M230.2,133l2.3-3.7"/>
<path id="path27373" class="st0" d="M227.3,138.4l0.5-0.8"/>
<path id="path27375" class="st0" d="M223.7,142l0.8-1.3l2.3-3.7"/>
<path id="path27377" class="st0" d="M188.5,158.3l-3.1,5"/>
<path id="path27379" class="st0" d="M187.9,157.8l-0.5,0.8"/>
<path id="path27381" class="st0" d="M185.3,162l-0.5,0.8"/>
<path id="path27383" class="st0" d="M163.8,198.3l-3.1,5"/>
<path id="path27385" class="st0" d="M163.1,197.8l-0.5,0.8"/>
<path id="path27387" class="st0" d="M160.5,202l-0.5,0.8"/>
<path id="path27389" class="st0" d="M176.2,178.3l-3.1,5"/>
<path id="path27391" class="st0" d="M175.5,177.8l-0.5,0.8"/>
<path id="path27393" class="st0" d="M172.9,182l-0.5,0.8"/>
<path id="path27395" class="st0" d="M194.7,148.3l-1.5,2.5l-1.5,2.5"/>
<path id="path27397" class="st0" d="M194,147.9l-0.5,0.8"/>
<path id="path27399" class="st0" d="M191.4,152.1l-0.5,0.8"/>
<path id="path27401" class="st0" d="M170,188.3l-3.1,5"/>
<path id="path27403" class="st0" d="M169.3,187.8l-0.5,0.8"/>
<path id="path27405" class="st0" d="M166.7,192l-0.5,0.8"/>
<path id="path27407" class="st0" d="M157.6,208.3l-1.5,2.5l-1.5,2.5"/>
<path id="path27409" class="st0" d="M156.9,207.8l-0.5,0.8"/>
<path id="path27411" class="st0" d="M154.3,212l-0.5,0.8"/>
<path id="path27413" class="st0" d="M182.3,168.3l-3.1,5"/>
<path id="path27415" class="st0" d="M181.7,167.8l-0.5,0.8"/>
<path id="path27417" class="st0" d="M179.1,172l-0.5,0.8"/>
<path id="path27419" class="st0" d="M127.5,252.7l-0.3-0.2"/>
<path id="path27421" class="st0" d="M186.3,292l-0.5,0.3"/>
<path id="path27423" class="st0" d="M193.7,289.8v3.8"/>
<path id="path27425" class="st0" d="M192.7,293.5v0.8"/>
<path id="path27427" class="st0" d="M148.4,200.7l1,0.6l-9.5,15.3"/>
<path id="path27429" class="st0" d="M150,201.8l-9.4,15.2"/>
<path id="path27431" class="st0" d="M139.9,216.6l-4.5-2.6"/>
<path id="path27433" class="st0" d="M138,210.5l0.5-0.8"/>
<path id="path27435" class="st0" d="M143.8,198.1l1,0.6"/>
<path id="path27437" class="st0" d="M145.2,198.9l0.5-0.8"/>
<path id="path27439" class="st0" d="M147.8,194.7l0.5-0.8"/>
<path id="path27441" class="st0" d="M150.3,190.5l0.5-0.8"/>
<path id="path27443" class="st0" d="M152.9,186.3l0.5-0.8"/>
<path id="path27445" class="st0" d="M158.8,173.9l1,0.6"/>
<path id="path27447" class="st0" d="M160.1,174.7l0.5-0.8"/>
<path id="path27449" class="st0" d="M162.7,170.5l0.5-0.8"/>
<path id="path27451" class="st0" d="M168.6,158.1l1,0.6"/>
<path id="path27453" class="st0" d="M169.9,158.9l0.5-0.8"/>
<path id="path27455" class="st0" d="M172.5,154.7l0.5-0.8"/>
<path id="path27457" class="st0" d="M175,150.5l0.5-0.8"/>
<path id="path27459" class="st0" d="M177.6,146.3l0.5-0.8"/>
<path id="path27461" class="st0" d="M184.8,134.7l0.5-0.8"/>
<path id="path27463" class="st0" d="M185,133.7l2.3-3.7l3.5,2"/>
<path id="path27465" class="st0" d="M188,136.6l1,0.6l-6.7,10.8"/>
<path id="path27467" class="st0" d="M189.7,137.6l-6.7,10.8"/>
<path id="path27469" class="st0" d="M179.9,153.4l-2.1,3.3"/>
<path id="path27471" class="st0" d="M173.1,160.7l1,0.6l-6.7,10.8"/>
<path id="path27473" class="st0" d="M174.8,161.8l-6.7,10.8"/>
<path id="path27475" class="st0" d="M163.3,176.6l1,0.6l-6.7,10.8"/>
<path id="path27477" class="st0" d="M165,177.6l-6.7,10.8"/>
<path id="path27479" class="st0" d="M172.6,153.7l2.1-3.3"/>
<path id="path27481" class="st0" d="M153.5,192.4l-2.1,3.3"/>
<path id="path27483" class="st0" d="M147.9,193.7l2.1-3.3"/>
<path id="path27485" class="st0" d="M216.8,148.1l-0.7-0.4"/>
<path id="path27487" class="st0" d="M206.3,142.1l-0.7-0.4"/>
<path id="path27489" class="st0" d="M203.3,102l1,0.6"/>
<path id="path27491" class="st0" d="M203.8,103.3l0.5-0.8"/>
<path id="path27493" class="st0" d="M205.6,99.8l2.3-3.7"/>
<path id="path27495" class="st0" d="M193.5,117.8l1,0.6"/>
<path id="path27497" class="st0" d="M194,119.2l0.5-0.8"/>
<path id="path27499" class="st0" d="M196.9,113.7l2.3-3.7"/>
<path id="path27501" class="st0" d="M176.8,144.8l1,0.6"/>
<path id="path27503" class="st0" d="M174.7,150.4l0.5-0.8"/>
<path id="path27505" class="st0" d="M177.3,146.2l0.5-0.8"/>
<path id="path27507" class="st0" d="M186.3,129.5l1,0.6"/>
<path id="path27509" class="st0" d="M114.1,255.8l2.7,0.5"/>
<path id="path27511" class="st0" d="M116.8,262l-2.7-2.6l1-0.6"/>
<path id="path27513" class="st0" d="M117.1,260.8l-2-2"/>
<path id="path27515" class="st0" d="M115.4,261.8v0.8"/>
<path id="path27517" class="st0" d="M115,262.3v0.4"/>
<path id="path27519" class="st0" d="M115.4,263v0.8"/>
<path id="path27521" class="st0" d="M115.4,265v0.8"/>
<path id="path27523" class="st0" d="M118.3,267.8l1-0.6"/>
<path id="path27525" class="st0" d="M118.3,267.8l-0.9-3.6"/>
<path id="path27527" class="st0" d="M119.3,267.3l-0.7-2.7"/>
<path id="path27529" class="st0" d="M117.7,264l1,0.6"/>
<path id="path27531" class="st0" d="M129.1,274.1l1-0.6"/>
<path id="path27533" class="st0" d="M129.1,274.1l-0.9-3.6"/>
<path id="path27535" class="st0" d="M128.5,270.3l1,0.6"/>
<path id="path27537" class="st0" d="M139.9,280.3l1-0.6"/>
<path id="path27539" class="st0" d="M139.9,280.3l-0.9-3.6"/>
<path id="path27541" class="st0" d="M139.3,276.5l1,0.6"/>
<path id="path27543" class="st0" d="M145.6,283.7l0.7,0.4"/>
<path id="path27545" class="st0" d="M146,283.5v-0.8"/>
<path id="path27547" class="st0" d="M147.2,278.5l1-0.6l-2.7-0.5"/>
<path id="path27549" class="st0" d="M144.5,272.3l2.7,2.6"/>
<path id="path27551" class="st0" d="M146,272.6v-0.8"/>
<path id="path27553" class="st0" d="M146,269.3v-0.8"/>
<path id="path27555" class="st0" d="M146.3,266.1l-9.4-5.4l0.9-0.5"/>
<path id="path27557" class="st0" d="M136.2,259.1l-11.1-6.4l1-0.6"/>
<path id="path27559" class="st0" d="M136.7,258.2l-10.6-6.1"/>
<path id="path27561" class="st0" d="M125.1,252.7v1.5"/>
<path id="path27563" class="st0" d="M124.5,253.4L115,248v2.7"/>
<path id="path27565" class="st0" d="M115.4,250.9v0.8"/>
<path id="path27567" class="st0" d="M115.4,252.9v0.8"/>
<path id="path27569" class="st0" d="M115,253.5v0.4"/>
<path id="path27571" class="st0" d="M115.4,254.1v0.8"/>
<path id="path27573" class="st0" d="M117.6,260.4l0.5,0.2"/>
<path id="path27575" class="st0" d="M117.1,260.7v1.2"/>
<path id="path27577" class="st0" d="M144.2,273.6l-0.8-0.1"/>
<path id="path27579" class="st0" d="M144.2,273.6v-1.2"/>
<path id="path27581" class="st0" d="M115,252.7v-1.3"/>
<path id="path27583" class="st0" d="M115,264.8v-1.3l0.5-0.3"/>
<path id="path27585" class="st0" d="M142.6,278.4c0.1-0.6-0.6-1.8-1.2-2l-0.8-0.1"/>
<path id="path27587" class="st0" d="M131.8,272.2c0.1-0.6-0.6-1.8-1.2-2l-0.8-0.1"/>
<path id="path27589" class="st0" d="M119.2,264.3l1.7,1"/>
<path id="path27591" class="st0" d="M121,265.9c0.1-0.6-0.6-1.8-1.2-2l-0.8-0.1"/>
<path id="path27593" class="st0" d="M145.6,283.7l-0.5,0.3"/>
<path id="path27595" class="st0" d="M118,260.8l0.3-0.8c0.1-0.6-0.6-1.8-1.2-2"/>
<path id="path27597" class="st0" d="M140.9,276.2l-0.1,0.5"/>
<path id="path27599" class="st0" d="M130.1,270l-0.1,0.5"/>
<path id="path27601" class="st0" d="M119.3,263.8l-0.1,0.5"/>
<path id="path27603" class="st0" d="M147.4,275l2.7,0.5"/>
<path id="path27605" class="st0" d="M150.1,281.3l-2.7-2.6l1-0.6"/>
<path id="path27607" class="st0" d="M150.4,280l-2-2"/>
<path id="path27609" class="st0" d="M147.3,278.6l1-0.6"/>
<path id="path27611" class="st0" d="M147.3,278.6v1.7l1.3,0.8v0.8"/>
<path id="path27613" class="st0" d="M148.3,281.6v0.4"/>
<path id="path27615" class="st0" d="M148.6,282.2v0.8"/>
<path id="path27617" class="st0" d="M148.6,284.2v0.8"/>
<path id="path27619" class="st0" d="M151.6,287l1-0.6"/>
<path id="path27621" class="st0" d="M151.6,287l-0.9-3.6"/>
<path id="path27623" class="st0" d="M152.6,286.5l-0.7-2.7"/>
<path id="path27625" class="st0" d="M151,283.2l1,0.6"/>
<path id="path27627" class="st0" d="M162.4,293.3l1-0.6"/>
<path id="path27629" class="st0" d="M162.4,293.3l-0.9-3.6"/>
<path id="path27631" class="st0" d="M161.8,289.5l1,0.6"/>
<path id="path27633" class="st0" d="M173.2,299.5l1-0.6"/>
<path id="path27635" class="st0" d="M173.2,299.5l-0.9-3.6"/>
<path id="path27637" class="st0" d="M172.6,295.7l1,0.6"/>
<path id="path27639" class="st0" d="M179.3,302.7v-0.8"/>
<path id="path27641" class="st0" d="M181.6,302.1v-1.3"/>
<path id="path27643" class="st0" d="M179.3,298.7l1.3,0.8v-1.7l1-0.6"/>
<path id="path27645" class="st0" d="M181.6,298.8v-1.7"/>
<path id="path27647" class="st0" d="M180.5,297.7l1-0.6l-2.7-0.5"/>
<path id="path27649" class="st0" d="M177.8,291.5l2.7,2.6l0.1-1.6"/>
<path id="path27651" class="st0" d="M181.6,293.6V292"/>
<path id="path27653" class="st0" d="M179.3,291.8V291"/>
<path id="path27655" class="st0" d="M181.6,290v-1.3"/>
<path id="path27657" class="st0" d="M179.3,288.5v-0.8"/>
<path id="path27659" class="st0" d="M179.6,285.3l-9.4-5.4l0.9-0.5"/>
<path id="path27661" class="st0" d="M169.5,278.3l-11.1-6.4l1-0.6"/>
<path id="path27663" class="st0" d="M170,277.4l-10.6-6.1"/>
<path id="path27665" class="st0" d="M158.4,271.9v1.5"/>
<path id="path27667" class="st0" d="M157.7,272.7l-9.4-5.4v2.7"/>
<path id="path27669" class="st0" d="M148.6,270.1v0.8"/>
<path id="path27671" class="st0" d="M148.6,272.1v0.8"/>
<path id="path27673" class="st0" d="M148.3,272.7v0.4"/>
<path id="path27675" class="st0" d="M148.6,273.3v0.8"/>
<path id="path27677" class="st0" d="M147.3,273.3v1.7"/>
<path id="path27679" class="st0" d="M150.9,279.6l0.5,0.2"/>
<path id="path27681" class="st0" d="M150.4,279.9v1.2"/>
<path id="path27683" class="st0" d="M181.1,290.3l0.5-0.3"/>
<path id="path27685" class="st0" d="M181.1,302.4l0.5-0.3"/>
<path id="path27687" class="st0" d="M177.5,292.8l-0.8-0.1"/>
<path id="path27689" class="st0" d="M177.5,292.8v-1.2"/>
<path id="path27691" class="st0" d="M148.3,271.9v-1.3"/>
<path id="path27693" class="st0" d="M148.3,284.1v-1.3l0.5-0.3"/>
<path id="path27695" class="st0" d="M175.9,297.6c0.1-0.6-0.6-1.8-1.2-2l-0.8-0.1"/>
<path id="path27697" class="st0" d="M165.1,291.4c0.1-0.6-0.6-1.8-1.2-2l-0.8-0.1"/>
<path id="path27699" class="st0" d="M152.5,283.5l1.7,1"/>
<path id="path27701" class="st0" d="M154.3,285.1c0.1-0.6-0.6-1.8-1.2-2l-0.8-0.1"/>
<path id="path27703" class="st0" d="M151.2,280l0.3-0.8c0.1-0.6-0.6-1.8-1.2-2"/>
<path id="path27705" class="st0" d="M174.2,295.4l-0.1,0.5"/>
<path id="path27707" class="st0" d="M163.4,289.2l-0.1,0.5"/>
<path id="path27709" class="st0" d="M152.6,283l-0.1,0.5"/>
<path id="path35567" class="st1" d="M249.7,197.2l-51.3,83l-2.9,4.7v2.1v2.1v2.1v2.1v2.1l-0.9,0.5l-0.9,0.5l-0.9,0.5l-0.9,0.5
	l-0.2-0.1l-0.2-0.1l-0.2,0.1l-0.2,0.1v0.4v0.4v0.4v0.4l-0.7,0.4l-0.7,0.4l-0.7,0.4l-0.7,0.4l-0.3-0.2l-0.3-0.2l-0.3-0.2v-0.6v-0.6
	v-0.6V298l-0.1,0l-0.2-0.1l-0.2-0.1v-1.8v-1.8v-1.8v-1.4l-0.7,0.4l-0.2,0.1l0.1,0.3l0,0l0,0v0l-0.1,0.1l-0.1,0.1l-0.1,0.1l-0.1,0
	l0.1,0.1l0.2,0.1v1.8v1.8v1.8v1.8l-0.1,0.1l-0.1,0.1l-0.1,0.1l-0.1,0.1v0.6v0.6v0.6v0.6l-0.7,0.4l-0.7,0.4l-0.7,0.4l-0.7,0.4
	l-0.2-0.1l-0.2-0.1l-0.2-0.1l-0.2-0.1l-0.2-0.1l-0.1,0.1l-0.4,0.2l-0.4,0.2l-0.4,0.2l-0.2-0.1l-0.2-0.1l-0.2-0.1l-0.2-0.1l0,0l0,0
	l-0.2-0.1l-0.2-0.1l-0.2-0.1l-0.2-0.1l0,0l-0.4,0.2l-0.1,0.1h-0.2l-0.2-0.1l-0.2-0.1l-0.2-0.2l-0.1-0.3l-0.1-0.3l0-0.1l-0.1-0.1
	l-0.1-0.1l-0.1-0.1l-0.2-0.1l-0.2-0.1l-0.2-0.1l-0.2-0.1v0l0,0l0,0l0.2-0.6l0.2-0.6l0.2-0.6l0.2-0.6l0-0.1l0-0.1l0-0.1l0-0.1
	l-0.1-0.1l-0.1-0.1l-0.1-0.1l-0.1,0l-0.5-0.3l-0.5-0.3l0-0.3l-0.1-0.3l0-0.1l-0.5-0.3l-0.6-0.3l-0.6-0.3l-0.2,0.1l-0.2,0.1l-0.1-0.1
	v0l0.2,0.9l0.2,0.9l0.2,0.9l0,0l0,0v0l-0.1,0.1l-0.1,0.1l-0.1,0.1l-0.1,0.1l-0.1,0.1l-0.1,0.1l-0.1,0.1l-0.1,0.1l-1.9-1.1l-1.9-1.1
	l-1.9-1.1l-1.9-1.1v0l0,0l0,0l0.2-0.6l0.2-0.6l0.2-0.6l0.2-0.6l0-0.1l0-0.1l0-0.1l0-0.1l-0.1-0.1l-0.1-0.1l-0.1-0.1l-0.1,0l-0.5-0.3
	l-0.5-0.3l0-0.3l-0.1-0.3l0-0.1l-0.5-0.3l-0.6-0.3l-0.6-0.3l-0.2,0.1l-0.2,0.1l-0.1-0.1v0l0.2,0.9l0.2,0.9l0.2,0.9l0,0l0,0v0
	l-0.1,0.1l-0.1,0.1l-0.1,0.1l-0.1,0.1l-0.1,0.1l-0.1,0.1l-0.1,0.1l-0.1,0.1l-1.9-1.1l-1.9-1.1l-1.9-1.1l-1.9-1.1v0l0,0l0,0l0.2-0.6
	l0.2-0.6l0.2-0.6l0.2-0.6l0-0.1l0-0.1l0-0.1l0-0.1l-0.1-0.1l-0.1-0.1l-0.1-0.1l-0.1,0l-0.5-0.3l-0.5-0.3l0-0.3l-0.1-0.3l0-0.1
	l-0.5-0.3l-0.6-0.3l-0.1-0.1l-0.1,0.1l-0.7,0.4l-0.1,0l0.1,0.4l0.2,0.9l0.2,0.9l0,0l0,0v0l-0.1,0.1l-0.1,0.1l-0.1,0.1l-0.1,0.1
	L152,287l-0.1,0.1l-0.1,0.1l-0.1,0.1l-0.2-0.1l-0.2-0.1l-0.2-0.1l-0.2-0.1l0,0l-0.4,0.2l-0.1,0.1h-0.2L150,287l-0.2-0.1l-0.2-0.2
	l-0.2-0.3l-0.1-0.3l0-0.1l-0.1-0.1l-0.1-0.1l-0.1-0.1l-0.2-0.1l-0.2-0.1l-0.2-0.1l-0.2-0.1l-0.2-0.1l-0.2-0.1l-0.2-0.1l-0.2-0.1
	l-0.2-0.1l-0.2-0.1l-0.2-0.1l-0.2-0.1l0,0l0,0l-0.2-0.1l-0.2-0.1l-0.2-0.1l-0.2-0.1l0,0l-0.4,0.2l-0.1,0.1h-0.2l-0.2-0.1l-0.2-0.1
	l-0.2-0.2l-0.1-0.3l-0.1-0.3l0-0.1l-0.1-0.1l-0.1-0.1l-0.1-0.1l-0.2-0.1l-0.2-0.1l-0.2-0.1l-0.2-0.1v0l0,0l0,0l0.2-0.6l0.2-0.6
	l0.2-0.6l0.2-0.6l0-0.1l0-0.1l0-0.1l0-0.1l-0.1-0.1l-0.1-0.1l-0.1-0.1l-0.1,0l-0.5-0.3l-0.5-0.3l0-0.3l-0.1-0.3l0-0.1l-0.5-0.3
	l-0.6-0.3l-0.6-0.3l-0.2,0.1l-0.2,0.1l-0.1-0.1v0l0.2,0.9l0.2,0.9l0.2,0.9l0,0l0,0v0l-0.1,0.1l-0.1,0.1l-0.1,0.1l-0.1,0.1l-0.1,0.1
	l-0.1,0.1l-0.1,0.1l-0.1,0.1l-1.9-1.1l-1.9-1.1l-1.9-1.1l-1.9-1.1v0l0,0l0,0l0.2-0.6l0.2-0.6l0.2-0.6l0.2-0.6l0-0.1l0-0.1l0-0.1
	l0-0.1l-0.1-0.1l-0.1-0.1l-0.1-0.1l-0.1,0l-0.5-0.3l-0.5-0.3l0-0.3l-0.1-0.3l0-0.1l-0.5-0.3l-0.6-0.3l-0.6-0.3l-0.2,0.1l-0.2,0.1
	l-0.1-0.1v0l0.2,0.9l0.2,0.9l0.2,0.9l0,0l0,0v0l-0.1,0.1l-0.1,0.1l-0.1,0.1l-0.1,0.1l-0.1,0.1l-0.1,0.1l-0.1,0.1l-0.1,0.1l-1.9-1.1
	l-1.9-1.1l-1.9-1.1l-1.9-1.1v0l0,0l0,0l0.2-0.6l0.2-0.6l0.2-0.6l0.2-0.6l0-0.1l0-0.1l0-0.1l0-0.1l-0.1-0.1l-0.1-0.1l-0.1-0.1l-0.1,0
	l-0.5-0.3l-0.5-0.3l0-0.3l-0.1-0.3l0-0.1l-0.5-0.3l-0.6-0.3l-0.1-0.1l-0.1,0.1l-0.7,0.4l-0.1,0l0.1,0.4l0.2,0.9l0.2,0.9l0,0l0,0v0
	l-0.1,0.1l-0.1,0.1l-0.1,0.1l-0.1,0.1l-0.1,0.1l-0.1,0.1l-0.1,0.1l-0.1,0.1l-0.2-0.1l-0.2-0.1l-0.2-0.1l-0.2-0.1l0,0l-0.4,0.2
	l-0.1,0.1l-0.2,0l-0.2-0.1l-0.2-0.1l-0.2-0.2l-0.2-0.3l-0.1-0.3l0-0.1l-0.1-0.1l-0.1-0.1l-0.1-0.1l-0.2-0.1l-0.2-0.1l-0.2-0.1
	l-0.2-0.1l-0.2-0.1l-0.2-0.1l-0.2-0.1l-0.2-0.1v-1.1v-1.1v-1.1V261v-0.4v-0.4v-0.4v-0.4l0.1-0.1l0.1-0.1l0.1-0.1l0.1-0.1l0.1-0.1
	l0.1-0.1l0.1-0.1l0.1-0.1v-0.4V257v-1l-0.2,0l-0.7-0.1l0,0l0,0l0,0v-0.4v-0.4v-0.4v-0.4v-2v-2v-2v-2l0.8-1.3l0.8-1.3l0.8-1.3
	l0.8-1.3l4-6.4l0.7-1.2l0,0l0.1,0l0,0l0,0l0.1,0.1l0.1,0.1l0.1,0.1l0.1,0.1l0,0l0,0l0,0l0.9-1.4l1.3-2.1l0.2-0.3h0l-0.1-0.1
	l-0.1-0.1l-0.1-0.1l-0.1-0.1l-0.1-0.1l-0.1-0.1l1.6-2.6l0.8-1.2l0.8-1.2l0.8-1.2l0.8-1.2l1.6-2.6l0,0l0,0l0,0l0.1,0l0.1,0.1l0.1,0.1
	l0.1,0.1l0.1,0.1l0,0l0,0l0,0l2.3-3.7l0,0l-0.1-0.1l-0.1-0.1l-0.1-0.1l-0.1-0.1l-0.1-0.1l-0.1-0.1l0.7-1.2l0.3-0.5l0,0l3.1-5l0,0
	l6.7-10.8l0,0l0,0l1.4-2.2l1.4-2.2l1.4-2.2l1.4-2.2l1.4-2.2l1.4-2.2v0v0l6.7-10.8l0,0l0,0l3.1-5v0l6.7-10.8v0l1-1.7l1-1.7l1-1.7
	l1-1.7v0l1-1.7l1-1.7l1-1.7l1-1.7v0l6.7-10.8l0,0l0,0l2.8-4.5l0,0l4.1-6.7l0.3,0.2l0.3,0.2l0,0l0.8-1.3l-0.2-0.1l-0.2-0.1l-0.2-0.1
	l-0.2-0.1l0.6-0.9l0.6-0.9l0.6-0.9l0.6-0.9l0,0l2.1-3.3l0.7-1.2l0.1,0.1l0.1,0l0.1,0.1l0.1,0.1l0.1,0.1l0.1,0.1l0.1,0l0,0l0.6-0.9
	l1.4-2.3l0.3-0.5l-0.1-0.1l-0.1-0.1l-0.1-0.1l-0.1-0.1l-0.1-0.1l-0.1-0.1l-0.1-0.1l-0.1-0.1l0.4-0.7l0.4-0.7l0.4-0.7l0.4-0.7v0v0
	l0.8-1.2l0.8-1.2l0.8-1.2l0.8-1.2l0,0l0.4-0.7l0.4-0.7l0.4-0.7l0.4-0.7l0,0l0.1,0l0,0l0,0l0.1,0.1l0.1,0.1l0.1,0.1l0.1,0.1l0.1,0
	l0,0l0.2-0.3l1.3-2.1l0.9-1.4l-0.1-0.1l-0.1-0.1l-0.1-0.1l-0.1-0.1l-0.1-0.1l-0.1-0.1l-0.1-0.1l-0.1-0.1l1.1-1.7l1.1-1.7l1.1-1.7
	l1.1-1.7l4.2,2.4l4.2,2.4l4.2,2.4l4.2,2.4l4.2,2.4l4.2,2.4l4.2,2.4l4.2,2.4l4.2,2.4l4.2,2.4l4.2,2.4l4.2,2.4l4.2,2.4l4.2,2.4
	l4.2,2.4l4.2,2.4l0.7,0.5l-1.1,1.7l-1.1,1.7l-0.4,0.7v2.4v2.4v2.4v2.4v2.4v2.4l-0.3,0.2l-0.3,0.2l-0.3,0.2l-0.3,0.2v0.2v0.2l0.2,0.1
	l0.2,0.1v2.2v2.2v2.2v2.2l-6.9,11.1l-12.4,20L249.7,197.2z"/>
<path id="path35569" class="st0" d="M239.2,161.1L239.2,161.1l-10.9-6.3l-10.9-6.3l0,0l-11.1-6.4v0l-5.8-3.3l1.7,1.2l-7.4,12
	l-12.4,20l-12.4,20l-12.4,20l-6.8,11l5.8,3.3v0l9.9,5.7l1,0.6l1,0.6l9.9,5.7l0,0l11.1,6.4l5.8,3.3l9.5-15.3l0,0l0,0l1.4-2.2l1.4-2.2
	l1.4-2.2l1.4-2.2l1.4-2.2l1.4-2.2v0v0l6.7-10.8v0v0l3.1-5l0,0l6.7-10.8v0l1.4-2.2l1.4-2.2l1.4-2.2l1.4-2.2l1.4-2.2l1.4-2.2l0,0
	l6.7-10.8l0,0l0,0l2.3-3.6L239.2,161.1z"/>
<path id="path35571" class="st0" d="M180.6,297v-0.8v-1.3v-0.6l0,0l0,0l0,0l0,0l-0.7-0.7l-0.7-0.7l-0.7-0.7v0v0.2v1.2v1.2v1.2l0,0.1
	l0,0.1l0,0.1l0,0.1l0.1,0.1l0.1,0.1l0.1,0.1l0.1,0l0.7,0.1l0.7,0.1L180.6,297z"/>
<path id="path35573" class="st0" d="M147.3,275L147.3,275L147.3,275L147.3,275L147.3,275l-0.8-0.7l-0.7-0.7l-0.7-0.7v0v0.2v1.2v1.2
	v1.2l0,0.1l0,0.1l0,0.1l0,0.1l0.1,0.1l0.1,0.1l0.1,0.1l0.1,0l0.7,0.1l0.7,0.1l0.4,0.1V277v-1.3L147.3,275z"/>
</svg>
