  0
SECTION
  2
HEADER
  9
$ACADVER
  1
AC1009
  9
$INSBASE
 10
0.000000
 20
0.000000
 30
0.000000
  9
$EXTMIN
 10
0.000000
 20
0.000000
 30
0.000000
  9
$EXTMAX
 10
599.500000
 20
185.500000
 30
0.000000
  0
ENDSEC
  0
SECTION
  2
TABLES
  0
TABLE
  2
LTYPE
 70
1
  0
LTYPE
  2
CONTINUOUS
 70
0
  3
Solid line
 72
65
 73
0
 40
0.000000
  0
ENDTAB
  0
TABLE
  2
LAYER
 70
3
  0
LAYER
  2
0
 70
0
 62
7
  6
CONTINUOUS
  0
LAYER
  2
1_ANYTOOL_1MMDEEP_LABELS_S
 70
0
 62
2
  6
CONTINUOUS
  0
LAYER
  2
4_ANYTOOL_CUTTHROUGH_OUTSI
 70
0
 62
5
  6
CONTINUOUS
  0
ENDTAB
  0
ENDSEC
  0
SECTION
  2
ENTITIES
  0
POLYLINE
  8
1_ANYTOOL_1MMDEEP_LABELS_S
 66
1
 10
0.000000
 20
0.000000
 30
0.000000
 70
0
  0
VERTEX
  8
1_ANYTOOL_1MMDEEP_LABELS_S
 10
400.935714
 20
100.699999
 30
0.000000
 42
0.059291
  0
VERTEX
  8
1_ANYTOOL_1MMDEEP_LABELS_S
 10
399.399553
 20
103.629416
 30
0.000000
 42
0.066881
  0
VERTEX
  8
1_ANYTOOL_1MMDEEP_LABELS_S
 10
397.185714
 20
106.078571
 30
0.000000
 42
0.045290
  0
VERTEX
  8
1_ANYTOOL_1MMDEEP_LABELS_S
 10
395.868728
 20
107.002448
 30
0.000000
 42
0.046757
  0
VERTEX
  8
1_ANYTOOL_1MMDEEP_LABELS_S
 10
394.405357
 20
107.669642
 30
0.000000
 42
0.046330
  0
VERTEX
  8
1_ANYTOOL_1MMDEEP_LABELS_S
 10
392.765445
 20
108.073974
 30
0.000000
 42
0.037303
  0
VERTEX
  8
1_ANYTOOL_1MMDEEP_LABELS_S
 10
391.078571
 20
108.199999
 30
0.000000
 42
0.054828
  0
VERTEX
  8
1_ANYTOOL_1MMDEEP_LABELS_S
 10
388.572931
 20
107.924414
 30
0.000000
 42
0.073548
  0
VERTEX
  8
1_ANYTOOL_1MMDEEP_LABELS_S
 10
386.230357
 20
107.026785
 30
0.000000
 42
0.073729
  0
VERTEX
  8
1_ANYTOOL_1MMDEEP_LABELS_S
 10
384.261035
 20
105.498552
 30
0.000000
 42
0.056205
  0
VERTEX
  8
1_ANYTOOL_1MMDEEP_LABELS_S
 10
382.742857
 20
103.507142
 30
0.000000
 42
0.033355
  0
VERTEX
  8
1_ANYTOOL_1MMDEEP_LABELS_S
 10
381.521688
 20
101.117266
 30
0.000000
 42
0.034965
  0
VERTEX
  8
1_ANYTOOL_1MMDEEP_LABELS_S
 10
380.637500
 20
98.583928
 30
0.000000
 42
0.034911
  0
VERTEX
  8
1_ANYTOOL_1MMDEEP_LABELS_S
 10
380.107472
 20
95.915921
 30
0.000000
 42
0.031589
  0
VERTEX
  8
1_ANYTOOL_1MMDEEP_LABELS_S
 10
379.935714
 20
93.199999
 30
0.000000
 42
0.032085
  0
VERTEX
  8
1_ANYTOOL_1MMDEEP_LABELS_S
 10
380.110217
 20
90.483371
 30
0.000000
 42
0.035383
  0
VERTEX
  8
1_ANYTOOL_1MMDEEP_LABELS_S
 10
380.648214
 20
87.816071
 30
0.000000
 42
0.035431
  0
VERTEX
  8
1_ANYTOOL_1MMDEEP_LABELS_S
 10
381.546703
 20
85.280914
 30
0.000000
 42
0.033598
  0
VERTEX
  8
1_ANYTOOL_1MMDEEP_LABELS_S
 10
382.785714
 20
82.892857
 30
0.000000
 42
0.058628
  0
VERTEX
  8
1_ANYTOOL_1MMDEEP_LABELS_S
 10
384.347915
 20
80.891971
 30
0.000000
 42
0.073381
  0
VERTEX
  8
1_ANYTOOL_1MMDEEP_LABELS_S
 10
386.369643
 20
79.373214
 30
0.000000
 42
0.072539
  0
VERTEX
  8
1_ANYTOOL_1MMDEEP_LABELS_S
 10
388.815616
 20
78.472160
 30
0.000000
 42
0.052080
  0
VERTEX
  8
1_ANYTOOL_1MMDEEP_LABELS_S
 10
391.421428
 20
78.199999
 30
0.000000
 42
0.033243
  0
VERTEX
  8
1_ANYTOOL_1MMDEEP_LABELS_S
 10
392.862803
 20
78.295936
 30
0.000000
 42
0.042283
  0
VERTEX
  8
1_ANYTOOL_1MMDEEP_LABELS_S
 10
394.271428
 20
78.607142
 30
0.000000
 42
0.042766
  0
VERTEX
  8
1_ANYTOOL_1MMDEEP_LABELS_S
 10
395.514125
 20
79.114232
 30
0.000000
 42
0.044269
  0
VERTEX
  8
1_ANYTOOL_1MMDEEP_LABELS_S
 10
396.650000
 20
79.828571
 30
0.000000
 42
0.055485
  0
VERTEX
  8
1_ANYTOOL_1MMDEEP_LABELS_S
 10
398.661795
 20
81.743472
 30
0.000000
 42
0.045948
  0
VERTEX
  8
1_ANYTOOL_1MMDEEP_LABELS_S
 10
400.250000
 20
84.028571
 30
0.000000
  0
SEQEND
  8
1_ANYTOOL_1MMDEEP_LABELS_S
  0
LINE
  8
1_ANYTOOL_1MMDEEP_LABELS_S
 10
377.321428
 20
107.728571
 30
0.000000
 11
360.135714
 21
76.957142
 31
0.000000
  0
POLYLINE
  8
1_ANYTOOL_1MMDEEP_LABELS_S
 66
1
 10
0.000000
 20
0.000000
 30
0.000000
 70
1
  0
VERTEX
  8
1_ANYTOOL_1MMDEEP_LABELS_S
 10
347.407143
 20
94.185714
 30
0.000000
 42
-0.031866
  0
VERTEX
  8
1_ANYTOOL_1MMDEEP_LABELS_S
 10
349.382997
 20
94.059661
 30
0.000000
 42
-0.044902
  0
VERTEX
  8
1_ANYTOOL_1MMDEEP_LABELS_S
 10
351.312500
 20
93.633928
 30
0.000000
 42
-0.045842
  0
VERTEX
  8
1_ANYTOOL_1MMDEEP_LABELS_S
 10
352.923863
 20
92.955447
 30
0.000000
 42
-0.051792
  0
VERTEX
  8
1_ANYTOOL_1MMDEEP_LABELS_S
 10
354.371428
 20
91.978571
 30
0.000000
 42
-0.051770
  0
VERTEX
  8
1_ANYTOOL_1MMDEEP_LABELS_S
 10
355.504341
 20
90.810727
 30
0.000000
 42
-0.060247
  0
VERTEX
  8
1_ANYTOOL_1MMDEEP_LABELS_S
 10
356.348214
 20
89.423214
 30
0.000000
 42
-0.059809
  0
VERTEX
  8
1_ANYTOOL_1MMDEEP_LABELS_S
 10
356.851061
 20
87.834827
 30
0.000000
 42
-0.046814
  0
VERTEX
  8
1_ANYTOOL_1MMDEEP_LABELS_S
 10
357.007143
 20
86.171428
 30
0.000000
 42
-0.046182
  0
VERTEX
  8
1_ANYTOOL_1MMDEEP_LABELS_S
 10
356.852161
 20
84.497077
 30
0.000000
 42
-0.060442
  0
VERTEX
  8
1_ANYTOOL_1MMDEEP_LABELS_S
 10
356.348214
 20
82.898214
 30
0.000000
 42
-0.061088
  0
VERTEX
  8
1_ANYTOOL_1MMDEEP_LABELS_S
 10
355.506165
 20
81.518912
 30
0.000000
 42
-0.053345
  0
VERTEX
  8
1_ANYTOOL_1MMDEEP_LABELS_S
 10
354.371428
 20
80.364285
 30
0.000000
 42
-0.051558
  0
VERTEX
  8
1_ANYTOOL_1MMDEEP_LABELS_S
 10
352.921536
 20
79.405065
 30
0.000000
 42
-0.045066
  0
VERTEX
  8
1_ANYTOOL_1MMDEEP_LABELS_S
 10
351.312500
 20
78.741071
 30
0.000000
 42
-0.044147
  0
VERTEX
  8
1_ANYTOOL_1MMDEEP_LABELS_S
 10
349.382152
 20
78.323432
 30
0.000000
 42
-0.031218
  0
VERTEX
  8
1_ANYTOOL_1MMDEEP_LABELS_S
 10
347.407143
 20
78.199999
 30
0.000000
 42
-0.031563
  0
VERTEX
  8
1_ANYTOOL_1MMDEEP_LABELS_S
 10
345.448127
 20
78.323788
 30
0.000000
 42
-0.044242
  0
VERTEX
  8
1_ANYTOOL_1MMDEEP_LABELS_S
 10
343.533928
 20
78.741071
 30
0.000000
 42
-0.045132
  0
VERTEX
  8
1_ANYTOOL_1MMDEEP_LABELS_S
 10
341.930701
 20
79.406211
 30
0.000000
 42
-0.051052
  0
VERTEX
  8
1_ANYTOOL_1MMDEEP_LABELS_S
 10
340.485714
 20
80.364285
 30
0.000000
 42
-0.053345
  0
VERTEX
  8
1_ANYTOOL_1MMDEEP_LABELS_S
 10
339.350977
 20
81.518912
 30
0.000000
 42
-0.061088
  0
VERTEX
  8
1_ANYTOOL_1MMDEEP_LABELS_S
 10
338.508928
 20
82.898214
 30
0.000000
 42
-0.060442
  0
VERTEX
  8
1_ANYTOOL_1MMDEEP_LABELS_S
 10
338.004981
 20
84.497077
 30
0.000000
 42
-0.046182
  0
VERTEX
  8
1_ANYTOOL_1MMDEEP_LABELS_S
 10
337.850000
 20
86.171428
 30
0.000000
 42
-0.046814
  0
VERTEX
  8
1_ANYTOOL_1MMDEEP_LABELS_S
 10
338.006082
 20
87.834827
 30
0.000000
 42
-0.059809
  0
VERTEX
  8
1_ANYTOOL_1MMDEEP_LABELS_S
 10
338.508928
 20
89.423214
 30
0.000000
 42
-0.060247
  0
VERTEX
  8
1_ANYTOOL_1MMDEEP_LABELS_S
 10
339.352801
 20
90.810727
 30
0.000000
 42
-0.051770
  0
VERTEX
  8
1_ANYTOOL_1MMDEEP_LABELS_S
 10
340.485714
 20
91.978571
 30
0.000000
 42
-0.051282
  0
VERTEX
  8
1_ANYTOOL_1MMDEEP_LABELS_S
 10
341.928388
 20
92.954286
 30
0.000000
 42
-0.045906
  0
VERTEX
  8
1_ANYTOOL_1MMDEEP_LABELS_S
 10
343.533928
 20
93.633928
 30
0.000000
 42
-0.044997
  0
VERTEX
  8
1_ANYTOOL_1MMDEEP_LABELS_S
 10
345.447279
 20
94.059298
 30
0.000000
 42
-0.032218
  0
SEQEND
  8
1_ANYTOOL_1MMDEEP_LABELS_S
  0
POLYLINE
  8
1_ANYTOOL_1MMDEEP_LABELS_S
 66
1
 10
0.000000
 20
0.000000
 30
0.000000
 70
1
  0
VERTEX
  8
1_ANYTOOL_1MMDEEP_LABELS_S
 10
347.535714
 20
108.199999
 30
0.000000
 42
-0.031422
  0
VERTEX
  8
1_ANYTOOL_1MMDEEP_LABELS_S
 10
349.094606
 20
108.101934
 30
0.000000
 42
-0.040430
  0
VERTEX
  8
1_ANYTOOL_1MMDEEP_LABELS_S
 10
350.621428
 20
107.782142
 30
0.000000
 42
-0.040915
  0
VERTEX
  8
1_ANYTOOL_1MMDEEP_LABELS_S
 10
351.960568
 20
107.264177
 30
0.000000
 42
-0.043686
  0
VERTEX
  8
1_ANYTOOL_1MMDEEP_LABELS_S
 10
353.192857
 20
106.528571
 30
0.000000
 42
-0.063742
  0
VERTEX
  8
1_ANYTOOL_1MMDEEP_LABELS_S
 10
354.198795
 20
105.586172
 30
0.000000
 42
-0.066270
  0
VERTEX
  8
1_ANYTOOL_1MMDEEP_LABELS_S
 10
354.928571
 20
104.417857
 30
0.000000
 42
-0.064120
  0
VERTEX
  8
1_ANYTOOL_1MMDEEP_LABELS_S
 10
355.376963
 20
102.957625
 30
0.000000
 42
-0.042492
  0
VERTEX
  8
1_ANYTOOL_1MMDEEP_LABELS_S
 10
355.507143
 20
101.428571
 30
0.000000
 42
-0.044610
  0
VERTEX
  8
1_ANYTOOL_1MMDEEP_LABELS_S
 10
355.361825
 20
99.803066
 30
0.000000
 42
-0.066622
  0
VERTEX
  8
1_ANYTOOL_1MMDEEP_LABELS_S
 10
354.864285
 20
98.257142
 30
0.000000
 42
-0.068664
  0
VERTEX
  8
1_ANYTOOL_1MMDEEP_LABELS_S
 10
354.048341
 20
97.015899
 30
0.000000
 42
-0.063259
  0
VERTEX
  8
1_ANYTOOL_1MMDEEP_LABELS_S
 10
352.935714
 20
96.028571
 30
0.000000
 42
-0.036959
  0
VERTEX
  8
1_ANYTOOL_1MMDEEP_LABELS_S
 10
351.619680
 20
95.265299
 30
0.000000
 42
-0.039228
  0
VERTEX
  8
1_ANYTOOL_1MMDEEP_LABELS_S
 10
350.203571
 20
94.710714
 30
0.000000
 42
-0.039137
  0
VERTEX
  8
1_ANYTOOL_1MMDEEP_LABELS_S
 10
348.693518
 20
94.378397
 30
0.000000
 42
-0.034609
  0
VERTEX
  8
1_ANYTOOL_1MMDEEP_LABELS_S
 10
347.150000
 20
94.271428
 30
0.000000
 42
-0.069668
  0
VERTEX
  8
1_ANYTOOL_1MMDEEP_LABELS_S
 10
344.195345
 20
94.685127
 30
0.000000
 42
-0.070768
  0
VERTEX
  8
1_ANYTOOL_1MMDEEP_LABELS_S
 10
341.471428
 20
95.899999
 30
0.000000
 42
-0.066313
  0
VERTEX
  8
1_ANYTOOL_1MMDEEP_LABELS_S
 10
340.350021
 20
96.831696
 30
0.000000
 42
-0.072121
  0
VERTEX
  8
1_ANYTOOL_1MMDEEP_LABELS_S
 10
339.526785
 20
98.032142
 30
0.000000
 42
-0.069559
  0
VERTEX
  8
1_ANYTOOL_1MMDEEP_LABELS_S
 10
339.023443
 20
99.560090
 30
0.000000
 42
-0.044863
  0
VERTEX
  8
1_ANYTOOL_1MMDEEP_LABELS_S
 10
338.878571
 20
101.171428
 30
0.000000
 42
-0.045769
  0
VERTEX
  8
1_ANYTOOL_1MMDEEP_LABELS_S
 10
339.027166
 20
102.791343
 30
0.000000
 42
-0.069077
  0
VERTEX
  8
1_ANYTOOL_1MMDEEP_LABELS_S
 10
339.537500
 20
104.326785
 30
0.000000
 42
-0.071249
  0
VERTEX
  8
1_ANYTOOL_1MMDEEP_LABELS_S
 10
340.376567
 20
105.550421
 30
0.000000
 42
-0.064222
  0
VERTEX
  8
1_ANYTOOL_1MMDEEP_LABELS_S
 10
341.514285
 20
106.507142
 30
0.000000
 42
-0.077102
  0
VERTEX
  8
1_ANYTOOL_1MMDEEP_LABELS_S
 10
344.398429
 20
107.784849
 30
0.000000
 42
-0.065877
  0
SEQEND
  8
1_ANYTOOL_1MMDEEP_LABELS_S
  0
LINE
  8
1_ANYTOOL_1MMDEEP_LABELS_S
 10
333.350000
 20
92.085714
 30
0.000000
 11
324.564285
 21
91.999999
 31
0.000000
  0
POLYLINE
  8
1_ANYTOOL_1MMDEEP_LABELS_S
 66
1
 10
0.000000
 20
0.000000
 30
0.000000
 70
0
  0
VERTEX
  8
1_ANYTOOL_1MMDEEP_LABELS_S
 10
319.635714
 20
78.242857
 30
0.000000
  0
VERTEX
  8
1_ANYTOOL_1MMDEEP_LABELS_S
 10
301.335714
 20
78.285714
 30
0.000000
 42
-0.034491
  0
VERTEX
  8
1_ANYTOOL_1MMDEEP_LABELS_S
 10
301.998492
 20
80.033046
 30
0.000000
 42
-0.037732
  0
VERTEX
  8
1_ANYTOOL_1MMDEEP_LABELS_S
 10
302.905357
 20
81.666071
 30
0.000000
 42
-0.037744
  0
VERTEX
  8
1_ANYTOOL_1MMDEEP_LABELS_S
 10
304.044651
 20
83.140707
 30
0.000000
 42
-0.034820
  0
VERTEX
  8
1_ANYTOOL_1MMDEEP_LABELS_S
 10
305.385714
 20
84.435714
 30
0.000000
 42
-0.008590
  0
VERTEX
  8
1_ANYTOOL_1MMDEEP_LABELS_S
 10
308.344939
 20
86.834297
 30
0.000000
 42
-0.008791
  0
VERTEX
  8
1_ANYTOOL_1MMDEEP_LABELS_S
 10
311.385714
 20
89.128571
 30
0.000000
 42
0.020588
  0
VERTEX
  8
1_ANYTOOL_1MMDEEP_LABELS_S
 10
314.205002
 20
91.362013
 30
0.000000
 42
0.025206
  0
VERTEX
  8
1_ANYTOOL_1MMDEEP_LABELS_S
 10
316.807143
 20
93.842857
 30
0.000000
 42
0.046908
  0
VERTEX
  8
1_ANYTOOL_1MMDEEP_LABELS_S
 10
317.827738
 20
95.144099
 30
0.000000
 42
0.051091
  0
VERTEX
  8
1_ANYTOOL_1MMDEEP_LABELS_S
 10
318.575000
 20
96.617857
 30
0.000000
 42
0.050722
  0
VERTEX
  8
1_ANYTOOL_1MMDEEP_LABELS_S
 10
319.023733
 20
98.266031
 30
0.000000
 42
0.041139
  0
VERTEX
  8
1_ANYTOOL_1MMDEEP_LABELS_S
 10
319.164285
 20
99.971428
 30
0.000000
 42
0.039396
  0
VERTEX
  8
1_ANYTOOL_1MMDEEP_LABELS_S
 10
319.021641
 20
101.779014
 30
0.000000
 42
0.058519
  0
VERTEX
  8
1_ANYTOOL_1MMDEEP_LABELS_S
 10
318.532143
 20
103.517857
 30
0.000000
 42
0.060358
  0
VERTEX
  8
1_ANYTOOL_1MMDEEP_LABELS_S
 10
317.741585
 20
104.924972
 30
0.000000
 42
0.061397
  0
VERTEX
  8
1_ANYTOOL_1MMDEEP_LABELS_S
 10
316.635714
 20
106.099999
 30
0.000000
 42
0.048006
  0
VERTEX
  8
1_ANYTOOL_1MMDEEP_LABELS_S
 10
315.279757
 20
107.021959
 30
0.000000
 42
0.045901
  0
VERTEX
  8
1_ANYTOOL_1MMDEEP_LABELS_S
 10
313.775000
 20
107.674999
 30
0.000000
 42
0.045216
  0
VERTEX
  8
1_ANYTOOL_1MMDEEP_LABELS_S
 10
312.034939
 20
108.077559
 30
0.000000
 42
0.034258
  0
VERTEX
  8
1_ANYTOOL_1MMDEEP_LABELS_S
 10
310.250000
 20
108.199999
 30
0.000000
 42
0.055622
  0
VERTEX
  8
1_ANYTOOL_1MMDEEP_LABELS_S
 10
307.615429
 20
107.906012
 30
0.000000
 42
0.079896
  0
VERTEX
  8
1_ANYTOOL_1MMDEEP_LABELS_S
 10
305.171428
 20
106.924999
 30
0.000000
 42
0.080617
  0
VERTEX
  8
1_ANYTOOL_1MMDEEP_LABELS_S
 10
303.202041
 20
105.259299
 30
0.000000
 42
0.060287
  0
VERTEX
  8
1_ANYTOOL_1MMDEEP_LABELS_S
 10
301.764285
 20
103.099999
 30
0.000000
  0
SEQEND
  8
1_ANYTOOL_1MMDEEP_LABELS_S
  0
LINE
  8
1_ANYTOOL_1MMDEEP_LABELS_S
 10
273.435714
 20
86.857142
 30
0.000000
 11
295.207143
 21
86.857142
 31
0.000000
  0
POLYLINE
  8
1_ANYTOOL_1MMDEEP_LABELS_S
 66
1
 10
0.000000
 20
0.000000
 30
0.000000
 70
0
  0
VERTEX
  8
1_ANYTOOL_1MMDEEP_LABELS_S
 10
289.421428
 20
78.199999
 30
0.000000
  0
VERTEX
  8
1_ANYTOOL_1MMDEEP_LABELS_S
 10
289.464285
 20
108.242857
 30
0.000000
  0
VERTEX
  8
1_ANYTOOL_1MMDEEP_LABELS_S
 10
273.435714
 20
86.857142
 30
0.000000
  0
SEQEND
  8
1_ANYTOOL_1MMDEEP_LABELS_S
  0
LINE
  8
1_ANYTOOL_1MMDEEP_LABELS_S
 10
269.150000
 20
92.085714
 30
0.000000
 11
260.364285
 21
91.999999
 31
0.000000
  0
POLYLINE
  8
1_ANYTOOL_1MMDEEP_LABELS_S
 66
1
 10
0.000000
 20
0.000000
 30
0.000000
 70
0
  0
VERTEX
  8
1_ANYTOOL_1MMDEEP_LABELS_S
 10
256.335714
 20
103.614285
 30
0.000000
 42
0.071867
  0
VERTEX
  8
1_ANYTOOL_1MMDEEP_LABELS_S
 10
256.142600
 20
104.950892
 30
0.000000
 42
0.100684
  0
VERTEX
  8
1_ANYTOOL_1MMDEEP_LABELS_S
 10
255.516071
 20
106.132142
 30
0.000000
 42
0.047558
  0
VERTEX
  8
1_ANYTOOL_1MMDEEP_LABELS_S
 10
255.041518
 20
106.608593
 30
0.000000
 42
0.038563
  0
VERTEX
  8
1_ANYTOOL_1MMDEEP_LABELS_S
 10
254.491518
 20
106.997321
 30
0.000000
 42
0.037928
  0
VERTEX
  8
1_ANYTOOL_1MMDEEP_LABELS_S
 10
253.794330
 20
107.344789
 30
0.000000
 42
0.026634
  0
VERTEX
  8
1_ANYTOOL_1MMDEEP_LABELS_S
 10
253.057143
 20
107.599999
 30
0.000000
 42
0.028461
  0
VERTEX
  8
1_ANYTOOL_1MMDEEP_LABELS_S
 10
250.033809
 20
108.285982
 30
0.000000
 42
0.041577
  0
VERTEX
  8
1_ANYTOOL_1MMDEEP_LABELS_S
 10
246.950000
 20
108.542857
 30
0.000000
 42
0.036938
  0
VERTEX
  8
1_ANYTOOL_1MMDEEP_LABELS_S
 10
245.447640
 20
108.431717
 30
0.000000
 42
0.041531
  0
VERTEX
  8
1_ANYTOOL_1MMDEEP_LABELS_S
 10
243.982143
 20
108.087499
 30
0.000000
 42
0.041583
  0
VERTEX
  8
1_ANYTOOL_1MMDEEP_LABELS_S
 10
242.604766
 20
107.510291
 30
0.000000
 42
0.038125
  0
VERTEX
  8
1_ANYTOOL_1MMDEEP_LABELS_S
 10
241.335714
 20
106.721428
 30
0.000000
 42
0.057611
  0
VERTEX
  8
1_ANYTOOL_1MMDEEP_LABELS_S
 10
240.265561
 20
105.729524
 30
0.000000
 42
0.065808
  0
VERTEX
  8
1_ANYTOOL_1MMDEEP_LABELS_S
 10
239.471428
 20
104.508928
 30
0.000000
 42
0.064690
  0
VERTEX
  8
1_ANYTOOL_1MMDEEP_LABELS_S
 10
238.993932
 20
103.049373
 30
0.000000
 42
0.046778
  0
VERTEX
  8
1_ANYTOOL_1MMDEEP_LABELS_S
 10
238.850000
 20
101.514285
 30
0.000000
 42
0.052235
  0
VERTEX
  8
1_ANYTOOL_1MMDEEP_LABELS_S
 10
239.012356
 20
99.964443
 30
0.000000
 42
0.075448
  0
VERTEX
  8
1_ANYTOOL_1MMDEEP_LABELS_S
 10
239.557143
 20
98.514285
 30
0.000000
 42
0.076671
  0
VERTEX
  8
1_ANYTOOL_1MMDEEP_LABELS_S
 10
240.473234
 20
97.341233
 30
0.000000
 42
0.061023
  0
VERTEX
  8
1_ANYTOOL_1MMDEEP_LABELS_S
 10
241.678571
 20
96.457142
 30
0.000000
 42
0.021951
  0
VERTEX
  8
1_ANYTOOL_1MMDEEP_LABELS_S
 10
244.707425
 20
94.929797
 30
0.000000
 42
0.018213
  0
VERTEX
  8
1_ANYTOOL_1MMDEEP_LABELS_S
 10
247.850000
 20
93.649999
 30
0.000000
 42
-0.024050
  0
VERTEX
  8
1_ANYTOOL_1MMDEEP_LABELS_S
 10
250.951484
 20
92.344537
 30
0.000000
 42
-0.029810
  0
VERTEX
  8
1_ANYTOOL_1MMDEEP_LABELS_S
 10
253.892857
 20
90.714285
 30
0.000000
 42
-0.068439
  0
VERTEX
  8
1_ANYTOOL_1MMDEEP_LABELS_S
 10
255.034159
 20
89.748355
 30
0.000000
 42
-0.079282
  0
VERTEX
  8
1_ANYTOOL_1MMDEEP_LABELS_S
 10
255.842857
 20
88.496428
 30
0.000000
 42
-0.076308
  0
VERTEX
  8
1_ANYTOOL_1MMDEEP_LABELS_S
 10
256.267857
 20
86.917746
 30
0.000000
 42
-0.047772
  0
VERTEX
  8
1_ANYTOOL_1MMDEEP_LABELS_S
 10
256.292857
 20
85.271428
 30
0.000000
 42
-0.046243
  0
VERTEX
  8
1_ANYTOOL_1MMDEEP_LABELS_S
 10
255.999622
 20
83.590469
 30
0.000000
 42
-0.063590
  0
VERTEX
  8
1_ANYTOOL_1MMDEEP_LABELS_S
 10
255.350000
 20
82.019642
 30
0.000000
 42
-0.064671
  0
VERTEX
  8
1_ANYTOOL_1MMDEEP_LABELS_S
 10
254.377176
 20
80.735453
 30
0.000000
 42
-0.057073
  0
VERTEX
  8
1_ANYTOOL_1MMDEEP_LABELS_S
 10
253.121428
 20
79.721428
 30
0.000000
 42
-0.067522
  0
VERTEX
  8
1_ANYTOOL_1MMDEEP_LABELS_S
 10
250.153120
 20
78.358518
 30
0.000000
 42
-0.070793
  0
VERTEX
  8
1_ANYTOOL_1MMDEEP_LABELS_S
 10
246.928571
 20
77.857142
 30
0.000000
 42
-0.064027
  0
VERTEX
  8
1_ANYTOOL_1MMDEEP_LABELS_S
 10
243.789556
 20
78.219657
 30
0.000000
 42
-0.070447
  0
VERTEX
  8
1_ANYTOOL_1MMDEEP_LABELS_S
 10
240.864285
 20
79.399999
 30
0.000000
 42
-0.054374
  0
VERTEX
  8
1_ANYTOOL_1MMDEEP_LABELS_S
 10
239.705868
 20
80.249632
 30
0.000000
 42
-0.074742
  0
VERTEX
  8
1_ANYTOOL_1MMDEEP_LABELS_S
 10
238.807143
 20
81.360714
 30
0.000000
 42
-0.075199
  0
VERTEX
  8
1_ANYTOOL_1MMDEEP_LABELS_S
 10
238.284135
 20
82.667092
 30
0.000000
 42
-0.057737
  0
VERTEX
  8
1_ANYTOOL_1MMDEEP_LABELS_S
 10
238.121428
 20
84.071428
 30
0.000000
  0
SEQEND
  8
1_ANYTOOL_1MMDEEP_LABELS_S
  0
LINE
  8
1_ANYTOOL_1MMDEEP_LABELS_S
 10
234.092857
 20
92.085714
 30
0.000000
 11
225.307143
 21
91.999999
 31
0.000000
  0
POLYLINE
  8
1_ANYTOOL_1MMDEEP_LABELS_S
 66
1
 10
0.000000
 20
0.000000
 30
0.000000
 70
0
  0
VERTEX
  8
1_ANYTOOL_1MMDEEP_LABELS_S
 10
211.207143
 20
91.999999
 30
0.000000
  0
VERTEX
  8
1_ANYTOOL_1MMDEEP_LABELS_S
 10
220.978571
 20
91.957142
 30
0.000000
 42
-0.031732
  0
VERTEX
  8
1_ANYTOOL_1MMDEEP_LABELS_S
 10
220.710460
 20
88.949740
 30
0.000000
 42
-0.048764
  0
VERTEX
  8
1_ANYTOOL_1MMDEEP_LABELS_S
 10
219.966071
 20
86.032142
 30
0.000000
 42
-0.050291
  0
VERTEX
  8
1_ANYTOOL_1MMDEEP_LABELS_S
 10
218.856358
 20
83.721634
 30
0.000000
 42
-0.060119
  0
VERTEX
  8
1_ANYTOOL_1MMDEEP_LABELS_S
 10
217.271428
 20
81.714285
 30
0.000000
 42
-0.036578
  0
VERTEX
  8
1_ANYTOOL_1MMDEEP_LABELS_S
 10
215.539409
 20
80.227869
 30
0.000000
 42
-0.050793
  0
VERTEX
  8
1_ANYTOOL_1MMDEEP_LABELS_S
 10
213.580357
 20
79.067857
 30
0.000000
 42
-0.051881
  0
VERTEX
  8
1_ANYTOOL_1MMDEEP_LABELS_S
 10
211.627340
 20
78.400112
 30
0.000000
 42
-0.053919
  0
VERTEX
  8
1_ANYTOOL_1MMDEEP_LABELS_S
 10
209.578571
 20
78.157142
 30
0.000000
 42
-0.055881
  0
VERTEX
  8
1_ANYTOOL_1MMDEEP_LABELS_S
 10
207.543424
 20
78.364086
 30
0.000000
 42
-0.055271
  0
VERTEX
  8
1_ANYTOOL_1MMDEEP_LABELS_S
 10
205.603571
 20
79.014285
 30
0.000000
 42
-0.054030
  0
VERTEX
  8
1_ANYTOOL_1MMDEEP_LABELS_S
 10
203.677595
 20
80.173479
 30
0.000000
 42
-0.038531
  0
VERTEX
  8
1_ANYTOOL_1MMDEEP_LABELS_S
 10
201.992857
 20
81.671428
 30
0.000000
 42
-0.067281
  0
VERTEX
  8
1_ANYTOOL_1MMDEEP_LABELS_S
 10
200.445144
 20
83.782442
 30
0.000000
 42
-0.049165
  0
VERTEX
  8
1_ANYTOOL_1MMDEEP_LABELS_S
 10
199.421428
 20
86.203571
 30
0.000000
 42
-0.047412
  0
VERTEX
  8
1_ANYTOOL_1MMDEEP_LABELS_S
 10
198.748502
 20
89.407490
 30
0.000000
 42
-0.028075
  0
VERTEX
  8
1_ANYTOOL_1MMDEEP_LABELS_S
 10
198.564285
 20
92.685714
 30
0.000000
 42
-0.031090
  0
VERTEX
  8
1_ANYTOOL_1MMDEEP_LABELS_S
 10
198.731812
 20
95.377293
 30
0.000000
 42
-0.031496
  0
VERTEX
  8
1_ANYTOOL_1MMDEEP_LABELS_S
 10
199.233928
 20
98.026785
 30
0.000000
 42
-0.031425
  0
VERTEX
  8
1_ANYTOOL_1MMDEEP_LABELS_S
 10
200.084801
 20
100.655030
 30
0.000000
 42
-0.028240
  0
VERTEX
  8
1_ANYTOOL_1MMDEEP_LABELS_S
 10
201.242857
 20
103.164285
 30
0.000000
 42
-0.064555
  0
VERTEX
  8
1_ANYTOOL_1MMDEEP_LABELS_S
 10
202.771660
 20
105.315810
 30
0.000000
 42
-0.078906
  0
VERTEX
  8
1_ANYTOOL_1MMDEEP_LABELS_S
 10
204.837500
 20
106.941071
 30
0.000000
 42
-0.076878
  0
VERTEX
  8
1_ANYTOOL_1MMDEEP_LABELS_S
 10
207.461101
 20
107.915621
 30
0.000000
 42
-0.050594
  0
VERTEX
  8
1_ANYTOOL_1MMDEEP_LABELS_S
 10
210.264285
 20
108.199999
 30
0.000000
 42
-0.039946
  0
VERTEX
  8
1_ANYTOOL_1MMDEEP_LABELS_S
 10
211.923846
 20
108.067203
 30
0.000000
 42
-0.052714
  0
VERTEX
  8
1_ANYTOOL_1MMDEEP_LABELS_S
 10
213.526785
 20
107.632142
 30
0.000000
 42
-0.053511
  0
VERTEX
  8
1_ANYTOOL_1MMDEEP_LABELS_S
 10
214.909983
 20
106.916808
 30
0.000000
 42
-0.051530
  0
VERTEX
  8
1_ANYTOOL_1MMDEEP_LABELS_S
 10
216.114285
 20
105.928571
 30
0.000000
 42
-0.040443
  0
VERTEX
  8
1_ANYTOOL_1MMDEEP_LABELS_S
 10
218.154509
 20
103.505429
 30
0.000000
 42
-0.040350
  0
VERTEX
  8
1_ANYTOOL_1MMDEEP_LABELS_S
 10
219.778571
 20
100.785714
 30
0.000000
  0
SEQEND
  8
1_ANYTOOL_1MMDEEP_LABELS_S
  0
POLYLINE
  8
4_ANYTOOL_CUTTHROUGH_OUTSI
 66
1
 10
0.000000
 20
0.000000
 30
0.000000
 70
1
  0
VERTEX
  8
4_ANYTOOL_CUTTHROUGH_OUTSI
 10
18.000000
 20
18.000000
 30
0.000000
  0
VERTEX
  8
4_ANYTOOL_CUTTHROUGH_OUTSI
 10
227.500000
 20
18.000000
 30
0.000000
  0
VERTEX
  8
4_ANYTOOL_CUTTHROUGH_OUTSI
 10
227.500000
 20
23.750000
 30
0.000000
 42
-0.414214
  0
VERTEX
  8
4_ANYTOOL_CUTTHROUGH_OUTSI
 10
227.750000
 20
24.000000
 30
0.000000
  0
VERTEX
  8
4_ANYTOOL_CUTTHROUGH_OUTSI
 10
239.750000
 20
24.000000
 30
0.000000
 42
-0.414214
  0
VERTEX
  8
4_ANYTOOL_CUTTHROUGH_OUTSI
 10
240.000000
 20
23.750000
 30
0.000000
  0
VERTEX
  8
4_ANYTOOL_CUTTHROUGH_OUTSI
 10
240.000000
 20
0.000000
 30
0.000000
  0
VERTEX
  8
4_ANYTOOL_CUTTHROUGH_OUTSI
 10
359.500000
 20
0.000000
 30
0.000000
  0
VERTEX
  8
4_ANYTOOL_CUTTHROUGH_OUTSI
 10
359.500000
 20
23.750000
 30
0.000000
 42
-0.414214
  0
VERTEX
  8
4_ANYTOOL_CUTTHROUGH_OUTSI
 10
359.750000
 20
24.000000
 30
0.000000
  0
VERTEX
  8
4_ANYTOOL_CUTTHROUGH_OUTSI
 10
371.750000
 20
24.000000
 30
0.000000
 42
-0.414214
  0
VERTEX
  8
4_ANYTOOL_CUTTHROUGH_OUTSI
 10
372.000000
 20
23.750000
 30
0.000000
  0
VERTEX
  8
4_ANYTOOL_CUTTHROUGH_OUTSI
 10
372.000000
 20
18.000000
 30
0.000000
  0
VERTEX
  8
4_ANYTOOL_CUTTHROUGH_OUTSI
 10
581.500000
 20
18.000000
 30
0.000000
  0
VERTEX
  8
4_ANYTOOL_CUTTHROUGH_OUTSI
 10
581.500000
 20
55.500000
 30
0.000000
  0
VERTEX
  8
4_ANYTOOL_CUTTHROUGH_OUTSI
 10
575.750000
 20
55.500000
 30
0.000000
 42
-0.414214
  0
VERTEX
  8
4_ANYTOOL_CUTTHROUGH_OUTSI
 10
575.500000
 20
55.750000
 30
0.000000
  0
VERTEX
  8
4_ANYTOOL_CUTTHROUGH_OUTSI
 10
575.500000
 20
67.750000
 30
0.000000
 42
-0.414214
  0
VERTEX
  8
4_ANYTOOL_CUTTHROUGH_OUTSI
 10
575.750000
 20
68.000000
 30
0.000000
  0
VERTEX
  8
4_ANYTOOL_CUTTHROUGH_OUTSI
 10
599.500000
 20
68.000000
 30
0.000000
  0
VERTEX
  8
4_ANYTOOL_CUTTHROUGH_OUTSI
 10
599.500000
 20
117.500000
 30
0.000000
  0
VERTEX
  8
4_ANYTOOL_CUTTHROUGH_OUTSI
 10
575.750000
 20
117.500000
 30
0.000000
 42
-0.414214
  0
VERTEX
  8
4_ANYTOOL_CUTTHROUGH_OUTSI
 10
575.500000
 20
117.750000
 30
0.000000
  0
VERTEX
  8
4_ANYTOOL_CUTTHROUGH_OUTSI
 10
575.500000
 20
129.750000
 30
0.000000
 42
-0.414214
  0
VERTEX
  8
4_ANYTOOL_CUTTHROUGH_OUTSI
 10
575.750000
 20
130.000000
 30
0.000000
  0
VERTEX
  8
4_ANYTOOL_CUTTHROUGH_OUTSI
 10
581.500000
 20
130.000000
 30
0.000000
  0
VERTEX
  8
4_ANYTOOL_CUTTHROUGH_OUTSI
 10
581.500000
 20
167.500000
 30
0.000000
  0
VERTEX
  8
4_ANYTOOL_CUTTHROUGH_OUTSI
 10
372.000000
 20
167.500000
 30
0.000000
  0
VERTEX
  8
4_ANYTOOL_CUTTHROUGH_OUTSI
 10
372.000000
 20
161.750000
 30
0.000000
 42
-0.414214
  0
VERTEX
  8
4_ANYTOOL_CUTTHROUGH_OUTSI
 10
371.750000
 20
161.500000
 30
0.000000
  0
VERTEX
  8
4_ANYTOOL_CUTTHROUGH_OUTSI
 10
359.750000
 20
161.500000
 30
0.000000
 42
-0.414214
  0
VERTEX
  8
4_ANYTOOL_CUTTHROUGH_OUTSI
 10
359.500000
 20
161.750000
 30
0.000000
  0
VERTEX
  8
4_ANYTOOL_CUTTHROUGH_OUTSI
 10
359.500000
 20
185.500000
 30
0.000000
  0
VERTEX
  8
4_ANYTOOL_CUTTHROUGH_OUTSI
 10
240.000000
 20
185.500000
 30
0.000000
  0
VERTEX
  8
4_ANYTOOL_CUTTHROUGH_OUTSI
 10
240.000000
 20
161.750000
 30
0.000000
 42
-0.414214
  0
VERTEX
  8
4_ANYTOOL_CUTTHROUGH_OUTSI
 10
239.750000
 20
161.500000
 30
0.000000
  0
VERTEX
  8
4_ANYTOOL_CUTTHROUGH_OUTSI
 10
227.750000
 20
161.500000
 30
0.000000
 42
-0.414214
  0
VERTEX
  8
4_ANYTOOL_CUTTHROUGH_OUTSI
 10
227.500000
 20
161.750000
 30
0.000000
  0
VERTEX
  8
4_ANYTOOL_CUTTHROUGH_OUTSI
 10
227.500000
 20
167.500000
 30
0.000000
  0
VERTEX
  8
4_ANYTOOL_CUTTHROUGH_OUTSI
 10
18.000000
 20
167.500000
 30
0.000000
  0
VERTEX
  8
4_ANYTOOL_CUTTHROUGH_OUTSI
 10
18.000000
 20
130.000000
 30
0.000000
  0
VERTEX
  8
4_ANYTOOL_CUTTHROUGH_OUTSI
 10
23.750000
 20
130.000000
 30
0.000000
 42
-0.414214
  0
VERTEX
  8
4_ANYTOOL_CUTTHROUGH_OUTSI
 10
24.000000
 20
129.750000
 30
0.000000
  0
VERTEX
  8
4_ANYTOOL_CUTTHROUGH_OUTSI
 10
24.000000
 20
117.750000
 30
0.000000
 42
-0.414214
  0
VERTEX
  8
4_ANYTOOL_CUTTHROUGH_OUTSI
 10
23.750000
 20
117.500000
 30
0.000000
  0
VERTEX
  8
4_ANYTOOL_CUTTHROUGH_OUTSI
 10
0.000000
 20
117.500000
 30
0.000000
  0
VERTEX
  8
4_ANYTOOL_CUTTHROUGH_OUTSI
 10
0.000000
 20
68.000000
 30
0.000000
  0
VERTEX
  8
4_ANYTOOL_CUTTHROUGH_OUTSI
 10
23.750000
 20
68.000000
 30
0.000000
 42
-0.414214
  0
VERTEX
  8
4_ANYTOOL_CUTTHROUGH_OUTSI
 10
24.000000
 20
67.750000
 30
0.000000
  0
VERTEX
  8
4_ANYTOOL_CUTTHROUGH_OUTSI
 10
24.000000
 20
55.750000
 30
0.000000
 42
-0.414214
  0
VERTEX
  8
4_ANYTOOL_CUTTHROUGH_OUTSI
 10
23.750000
 20
55.500000
 30
0.000000
  0
VERTEX
  8
4_ANYTOOL_CUTTHROUGH_OUTSI
 10
18.000000
 20
55.500000
 30
0.000000
  0
SEQEND
  8
4_ANYTOOL_CUTTHROUGH_OUTSI
  0
ENDSEC
  0
EOF
