  0
SECTION
  2
HEADER
  9
$ACADVER
  1
AC1009
  9
$INSBASE
 10
0.000000
 20
0.000000
 30
0.000000
  9
$EXTMIN
 10
0.000000
 20
-6.500000
 30
0.000000
  9
$EXTMAX
 10
1709.739796
 20
606.000000
 30
0.000000
  0
ENDSEC
  0
SECTION
  2
TABLES
  0
TABLE
  2
LTYPE
 70
1
  0
LTYPE
  2
CONTINUOUS
 70
0
  3
Solid line
 72
65
 73
0
 40
0.000000
  0
ENDTAB
  0
TABLE
  2
LAYER
 70
5
  0
LAYER
  2
0
 70
0
 62
7
  6
CONTINUOUS
  0
LAYER
  2
1_ANYTOOL_1MMDEEP_LABELS_S
 70
0
 62
2
  6
CONTINUOUS
  0
LAYER
  2
5_ANYTOOL_HALF_MILL_9MM_IN
 70
0
 62
3
  6
CONTINUOUS
  0
LAYER
  2
3_ANYTOOL_CUTTHROUGH_INSID
 70
0
 62
4
  6
CONTINUOUS
  0
LAYER
  2
4_ANYTOOL_CUTTHROUGH_OUTSI
 70
0
 62
5
  6
CONTINUOUS
  0
ENDTAB
  0
ENDSEC
  0
SECTION
  2
ENTITIES
  0
POLYLINE
  8
1_ANYTOOL_1MMDEEP_LABELS_S
 66
1
 10
0.000000
 20
0.000000
 30
0.000000
 70
0
  0
VERTEX
  8
1_ANYTOOL_1MMDEEP_LABELS_S
 10
711.345418
 20
281.803423
 30
0.000000
  0
VERTEX
  8
1_ANYTOOL_1MMDEEP_LABELS_S
 10
721.116846
 20
281.760566
 30
0.000000
 42
-0.031732
  0
VERTEX
  8
1_ANYTOOL_1MMDEEP_LABELS_S
 10
720.848735
 20
278.753164
 30
0.000000
 42
-0.048764
  0
VERTEX
  8
1_ANYTOOL_1MMDEEP_LABELS_S
 10
720.104346
 20
275.835566
 30
0.000000
 42
-0.050291
  0
VERTEX
  8
1_ANYTOOL_1MMDEEP_LABELS_S
 10
718.994633
 20
273.525058
 30
0.000000
 42
-0.060119
  0
VERTEX
  8
1_ANYTOOL_1MMDEEP_LABELS_S
 10
717.409703
 20
271.517709
 30
0.000000
 42
-0.036578
  0
VERTEX
  8
1_ANYTOOL_1MMDEEP_LABELS_S
 10
715.677684
 20
270.031292
 30
0.000000
 42
-0.050793
  0
VERTEX
  8
1_ANYTOOL_1MMDEEP_LABELS_S
 10
713.718632
 20
268.871280
 30
0.000000
 42
-0.051881
  0
VERTEX
  8
1_ANYTOOL_1MMDEEP_LABELS_S
 10
711.765615
 20
268.203536
 30
0.000000
 42
-0.053919
  0
VERTEX
  8
1_ANYTOOL_1MMDEEP_LABELS_S
 10
709.716846
 20
267.960566
 30
0.000000
 42
-0.055881
  0
VERTEX
  8
1_ANYTOOL_1MMDEEP_LABELS_S
 10
707.681699
 20
268.167510
 30
0.000000
 42
-0.055271
  0
VERTEX
  8
1_ANYTOOL_1MMDEEP_LABELS_S
 10
705.741846
 20
268.817709
 30
0.000000
 42
-0.054030
  0
VERTEX
  8
1_ANYTOOL_1MMDEEP_LABELS_S
 10
703.815870
 20
269.976903
 30
0.000000
 42
-0.038531
  0
VERTEX
  8
1_ANYTOOL_1MMDEEP_LABELS_S
 10
702.131132
 20
271.474852
 30
0.000000
 42
-0.067281
  0
VERTEX
  8
1_ANYTOOL_1MMDEEP_LABELS_S
 10
700.583418
 20
273.585866
 30
0.000000
 42
-0.049165
  0
VERTEX
  8
1_ANYTOOL_1MMDEEP_LABELS_S
 10
699.559703
 20
276.006995
 30
0.000000
 42
-0.047412
  0
VERTEX
  8
1_ANYTOOL_1MMDEEP_LABELS_S
 10
698.886777
 20
279.210913
 30
0.000000
 42
-0.028075
  0
VERTEX
  8
1_ANYTOOL_1MMDEEP_LABELS_S
 10
698.702560
 20
282.489138
 30
0.000000
 42
-0.031090
  0
VERTEX
  8
1_ANYTOOL_1MMDEEP_LABELS_S
 10
698.870087
 20
285.180717
 30
0.000000
 42
-0.031496
  0
VERTEX
  8
1_ANYTOOL_1MMDEEP_LABELS_S
 10
699.372203
 20
287.830209
 30
0.000000
 42
-0.031425
  0
VERTEX
  8
1_ANYTOOL_1MMDEEP_LABELS_S
 10
700.223076
 20
290.458453
 30
0.000000
 42
-0.028240
  0
VERTEX
  8
1_ANYTOOL_1MMDEEP_LABELS_S
 10
701.381132
 20
292.967709
 30
0.000000
 42
-0.064555
  0
VERTEX
  8
1_ANYTOOL_1MMDEEP_LABELS_S
 10
702.909935
 20
295.119234
 30
0.000000
 42
-0.078906
  0
VERTEX
  8
1_ANYTOOL_1MMDEEP_LABELS_S
 10
704.975775
 20
296.744495
 30
0.000000
 42
-0.076878
  0
VERTEX
  8
1_ANYTOOL_1MMDEEP_LABELS_S
 10
707.599376
 20
297.719044
 30
0.000000
 42
-0.050594
  0
VERTEX
  8
1_ANYTOOL_1MMDEEP_LABELS_S
 10
710.402560
 20
298.003423
 30
0.000000
 42
-0.039946
  0
VERTEX
  8
1_ANYTOOL_1MMDEEP_LABELS_S
 10
712.062121
 20
297.870627
 30
0.000000
 42
-0.052714
  0
VERTEX
  8
1_ANYTOOL_1MMDEEP_LABELS_S
 10
713.665060
 20
297.435566
 30
0.000000
 42
-0.053511
  0
VERTEX
  8
1_ANYTOOL_1MMDEEP_LABELS_S
 10
715.048258
 20
296.720232
 30
0.000000
 42
-0.051530
  0
VERTEX
  8
1_ANYTOOL_1MMDEEP_LABELS_S
 10
716.252560
 20
295.731995
 30
0.000000
 42
-0.040443
  0
VERTEX
  8
1_ANYTOOL_1MMDEEP_LABELS_S
 10
718.292784
 20
293.308853
 30
0.000000
 42
-0.040350
  0
VERTEX
  8
1_ANYTOOL_1MMDEEP_LABELS_S
 10
719.916846
 20
290.589138
 30
0.000000
  0
SEQEND
  8
1_ANYTOOL_1MMDEEP_LABELS_S
  0
LINE
  8
1_ANYTOOL_1MMDEEP_LABELS_S
 10
734.231132
 20
281.889138
 30
0.000000
 11
725.445418
 21
281.803423
 31
0.000000
  0
POLYLINE
  8
1_ANYTOOL_1MMDEEP_LABELS_S
 66
1
 10
0.000000
 20
0.000000
 30
0.000000
 70
0
  0
VERTEX
  8
1_ANYTOOL_1MMDEEP_LABELS_S
 10
756.473989
 20
293.417709
 30
0.000000
 42
0.071867
  0
VERTEX
  8
1_ANYTOOL_1MMDEEP_LABELS_S
 10
756.280875
 20
294.754316
 30
0.000000
 42
0.100684
  0
VERTEX
  8
1_ANYTOOL_1MMDEEP_LABELS_S
 10
755.654346
 20
295.935566
 30
0.000000
 42
0.047558
  0
VERTEX
  8
1_ANYTOOL_1MMDEEP_LABELS_S
 10
755.179793
 20
296.412016
 30
0.000000
 42
0.038563
  0
VERTEX
  8
1_ANYTOOL_1MMDEEP_LABELS_S
 10
754.629793
 20
296.800745
 30
0.000000
 42
0.037928
  0
VERTEX
  8
1_ANYTOOL_1MMDEEP_LABELS_S
 10
753.932605
 20
297.148213
 30
0.000000
 42
0.026634
  0
VERTEX
  8
1_ANYTOOL_1MMDEEP_LABELS_S
 10
753.195418
 20
297.403423
 30
0.000000
 42
0.028461
  0
VERTEX
  8
1_ANYTOOL_1MMDEEP_LABELS_S
 10
750.172084
 20
298.089406
 30
0.000000
 42
0.041577
  0
VERTEX
  8
1_ANYTOOL_1MMDEEP_LABELS_S
 10
747.088275
 20
298.346280
 30
0.000000
 42
0.036938
  0
VERTEX
  8
1_ANYTOOL_1MMDEEP_LABELS_S
 10
745.585915
 20
298.235141
 30
0.000000
 42
0.041531
  0
VERTEX
  8
1_ANYTOOL_1MMDEEP_LABELS_S
 10
744.120418
 20
297.890923
 30
0.000000
 42
0.041583
  0
VERTEX
  8
1_ANYTOOL_1MMDEEP_LABELS_S
 10
742.743041
 20
297.313715
 30
0.000000
 42
0.038125
  0
VERTEX
  8
1_ANYTOOL_1MMDEEP_LABELS_S
 10
741.473989
 20
296.524852
 30
0.000000
 42
0.057611
  0
VERTEX
  8
1_ANYTOOL_1MMDEEP_LABELS_S
 10
740.403836
 20
295.532948
 30
0.000000
 42
0.065808
  0
VERTEX
  8
1_ANYTOOL_1MMDEEP_LABELS_S
 10
739.609703
 20
294.312352
 30
0.000000
 42
0.064690
  0
VERTEX
  8
1_ANYTOOL_1MMDEEP_LABELS_S
 10
739.132207
 20
292.852797
 30
0.000000
 42
0.046778
  0
VERTEX
  8
1_ANYTOOL_1MMDEEP_LABELS_S
 10
738.988275
 20
291.317709
 30
0.000000
 42
0.052235
  0
VERTEX
  8
1_ANYTOOL_1MMDEEP_LABELS_S
 10
739.150631
 20
289.767867
 30
0.000000
 42
0.075448
  0
VERTEX
  8
1_ANYTOOL_1MMDEEP_LABELS_S
 10
739.695418
 20
288.317709
 30
0.000000
 42
0.076671
  0
VERTEX
  8
1_ANYTOOL_1MMDEEP_LABELS_S
 10
740.611509
 20
287.144656
 30
0.000000
 42
0.061023
  0
VERTEX
  8
1_ANYTOOL_1MMDEEP_LABELS_S
 10
741.816846
 20
286.260566
 30
0.000000
 42
0.021951
  0
VERTEX
  8
1_ANYTOOL_1MMDEEP_LABELS_S
 10
744.845700
 20
284.733220
 30
0.000000
 42
0.018213
  0
VERTEX
  8
1_ANYTOOL_1MMDEEP_LABELS_S
 10
747.988275
 20
283.453423
 30
0.000000
 42
-0.024050
  0
VERTEX
  8
1_ANYTOOL_1MMDEEP_LABELS_S
 10
751.089759
 20
282.147961
 30
0.000000
 42
-0.029810
  0
VERTEX
  8
1_ANYTOOL_1MMDEEP_LABELS_S
 10
754.031132
 20
280.517709
 30
0.000000
 42
-0.068439
  0
VERTEX
  8
1_ANYTOOL_1MMDEEP_LABELS_S
 10
755.172434
 20
279.551778
 30
0.000000
 42
-0.079282
  0
VERTEX
  8
1_ANYTOOL_1MMDEEP_LABELS_S
 10
755.981132
 20
278.299852
 30
0.000000
 42
-0.076308
  0
VERTEX
  8
1_ANYTOOL_1MMDEEP_LABELS_S
 10
756.406131
 20
276.721170
 30
0.000000
 42
-0.047772
  0
VERTEX
  8
1_ANYTOOL_1MMDEEP_LABELS_S
 10
756.431132
 20
275.074852
 30
0.000000
 42
-0.046243
  0
VERTEX
  8
1_ANYTOOL_1MMDEEP_LABELS_S
 10
756.137897
 20
273.393892
 30
0.000000
 42
-0.063590
  0
VERTEX
  8
1_ANYTOOL_1MMDEEP_LABELS_S
 10
755.488275
 20
271.823066
 30
0.000000
 42
-0.064671
  0
VERTEX
  8
1_ANYTOOL_1MMDEEP_LABELS_S
 10
754.515451
 20
270.538877
 30
0.000000
 42
-0.057073
  0
VERTEX
  8
1_ANYTOOL_1MMDEEP_LABELS_S
 10
753.259703
 20
269.524852
 30
0.000000
 42
-0.067522
  0
VERTEX
  8
1_ANYTOOL_1MMDEEP_LABELS_S
 10
750.291395
 20
268.161941
 30
0.000000
 42
-0.070793
  0
VERTEX
  8
1_ANYTOOL_1MMDEEP_LABELS_S
 10
747.066846
 20
267.660566
 30
0.000000
 42
-0.064027
  0
VERTEX
  8
1_ANYTOOL_1MMDEEP_LABELS_S
 10
743.927831
 20
268.023081
 30
0.000000
 42
-0.070447
  0
VERTEX
  8
1_ANYTOOL_1MMDEEP_LABELS_S
 10
741.002560
 20
269.203423
 30
0.000000
 42
-0.054374
  0
VERTEX
  8
1_ANYTOOL_1MMDEEP_LABELS_S
 10
739.844143
 20
270.053056
 30
0.000000
 42
-0.074742
  0
VERTEX
  8
1_ANYTOOL_1MMDEEP_LABELS_S
 10
738.945418
 20
271.164138
 30
0.000000
 42
-0.075199
  0
VERTEX
  8
1_ANYTOOL_1MMDEEP_LABELS_S
 10
738.422410
 20
272.470516
 30
0.000000
 42
-0.057737
  0
VERTEX
  8
1_ANYTOOL_1MMDEEP_LABELS_S
 10
738.259703
 20
273.874852
 30
0.000000
  0
SEQEND
  8
1_ANYTOOL_1MMDEEP_LABELS_S
  0
LINE
  8
1_ANYTOOL_1MMDEEP_LABELS_S
 10
769.288275
 20
281.889138
 30
0.000000
 11
760.502560
 21
281.803423
 31
0.000000
  0
POLYLINE
  8
1_ANYTOOL_1MMDEEP_LABELS_S
 66
1
 10
0.000000
 20
0.000000
 30
0.000000
 70
0
  0
VERTEX
  8
1_ANYTOOL_1MMDEEP_LABELS_S
 10
789.559703
 20
268.003423
 30
0.000000
  0
VERTEX
  8
1_ANYTOOL_1MMDEEP_LABELS_S
 10
789.602560
 20
298.046280
 30
0.000000
  0
VERTEX
  8
1_ANYTOOL_1MMDEEP_LABELS_S
 10
773.573989
 20
276.660566
 30
0.000000
  0
SEQEND
  8
1_ANYTOOL_1MMDEEP_LABELS_S
  0
LINE
  8
1_ANYTOOL_1MMDEEP_LABELS_S
 10
773.573989
 20
276.660566
 30
0.000000
 11
795.345418
 21
276.660566
 31
0.000000
  0
POLYLINE
  8
1_ANYTOOL_1MMDEEP_LABELS_S
 66
1
 10
0.000000
 20
0.000000
 30
0.000000
 70
0
  0
VERTEX
  8
1_ANYTOOL_1MMDEEP_LABELS_S
 10
819.773989
 20
268.046280
 30
0.000000
  0
VERTEX
  8
1_ANYTOOL_1MMDEEP_LABELS_S
 10
801.473989
 20
268.089138
 30
0.000000
 42
-0.034491
  0
VERTEX
  8
1_ANYTOOL_1MMDEEP_LABELS_S
 10
802.136767
 20
269.836469
 30
0.000000
 42
-0.037732
  0
VERTEX
  8
1_ANYTOOL_1MMDEEP_LABELS_S
 10
803.043632
 20
271.469495
 30
0.000000
 42
-0.037744
  0
VERTEX
  8
1_ANYTOOL_1MMDEEP_LABELS_S
 10
804.182926
 20
272.944131
 30
0.000000
 42
-0.034820
  0
VERTEX
  8
1_ANYTOOL_1MMDEEP_LABELS_S
 10
805.523989
 20
274.239138
 30
0.000000
 42
-0.008590
  0
VERTEX
  8
1_ANYTOOL_1MMDEEP_LABELS_S
 10
808.483214
 20
276.637720
 30
0.000000
 42
-0.008791
  0
VERTEX
  8
1_ANYTOOL_1MMDEEP_LABELS_S
 10
811.523989
 20
278.931995
 30
0.000000
 42
0.020588
  0
VERTEX
  8
1_ANYTOOL_1MMDEEP_LABELS_S
 10
814.343277
 20
281.165437
 30
0.000000
 42
0.025206
  0
VERTEX
  8
1_ANYTOOL_1MMDEEP_LABELS_S
 10
816.945418
 20
283.646280
 30
0.000000
 42
0.046908
  0
VERTEX
  8
1_ANYTOOL_1MMDEEP_LABELS_S
 10
817.966013
 20
284.947522
 30
0.000000
 42
0.051091
  0
VERTEX
  8
1_ANYTOOL_1MMDEEP_LABELS_S
 10
818.713275
 20
286.421280
 30
0.000000
 42
0.050722
  0
VERTEX
  8
1_ANYTOOL_1MMDEEP_LABELS_S
 10
819.162008
 20
288.069455
 30
0.000000
 42
0.041139
  0
VERTEX
  8
1_ANYTOOL_1MMDEEP_LABELS_S
 10
819.302560
 20
289.774852
 30
0.000000
 42
0.039396
  0
VERTEX
  8
1_ANYTOOL_1MMDEEP_LABELS_S
 10
819.159916
 20
291.582438
 30
0.000000
 42
0.058519
  0
VERTEX
  8
1_ANYTOOL_1MMDEEP_LABELS_S
 10
818.670418
 20
293.321280
 30
0.000000
 42
0.060358
  0
VERTEX
  8
1_ANYTOOL_1MMDEEP_LABELS_S
 10
817.879860
 20
294.728396
 30
0.000000
 42
0.061397
  0
VERTEX
  8
1_ANYTOOL_1MMDEEP_LABELS_S
 10
816.773989
 20
295.903423
 30
0.000000
 42
0.048006
  0
VERTEX
  8
1_ANYTOOL_1MMDEEP_LABELS_S
 10
815.418032
 20
296.825383
 30
0.000000
 42
0.045901
  0
VERTEX
  8
1_ANYTOOL_1MMDEEP_LABELS_S
 10
813.913275
 20
297.478423
 30
0.000000
 42
0.045216
  0
VERTEX
  8
1_ANYTOOL_1MMDEEP_LABELS_S
 10
812.173214
 20
297.880983
 30
0.000000
 42
0.034258
  0
VERTEX
  8
1_ANYTOOL_1MMDEEP_LABELS_S
 10
810.388275
 20
298.003423
 30
0.000000
 42
0.055622
  0
VERTEX
  8
1_ANYTOOL_1MMDEEP_LABELS_S
 10
807.753704
 20
297.709436
 30
0.000000
 42
0.079896
  0
VERTEX
  8
1_ANYTOOL_1MMDEEP_LABELS_S
 10
805.309703
 20
296.728423
 30
0.000000
 42
0.080617
  0
VERTEX
  8
1_ANYTOOL_1MMDEEP_LABELS_S
 10
803.340316
 20
295.062723
 30
0.000000
 42
0.060287
  0
VERTEX
  8
1_ANYTOOL_1MMDEEP_LABELS_S
 10
801.902560
 20
292.903423
 30
0.000000
  0
SEQEND
  8
1_ANYTOOL_1MMDEEP_LABELS_S
  0
LINE
  8
1_ANYTOOL_1MMDEEP_LABELS_S
 10
833.488275
 20
281.889138
 30
0.000000
 11
824.702560
 21
281.803423
 31
0.000000
  0
POLYLINE
  8
1_ANYTOOL_1MMDEEP_LABELS_S
 66
1
 10
0.000000
 20
0.000000
 30
0.000000
 70
1
  0
VERTEX
  8
1_ANYTOOL_1MMDEEP_LABELS_S
 10
847.673989
 20
298.003423
 30
0.000000
 42
-0.031422
  0
VERTEX
  8
1_ANYTOOL_1MMDEEP_LABELS_S
 10
849.232881
 20
297.905358
 30
0.000000
 42
-0.040430
  0
VERTEX
  8
1_ANYTOOL_1MMDEEP_LABELS_S
 10
850.759703
 20
297.585566
 30
0.000000
 42
-0.040915
  0
VERTEX
  8
1_ANYTOOL_1MMDEEP_LABELS_S
 10
852.098843
 20
297.067600
 30
0.000000
 42
-0.043686
  0
VERTEX
  8
1_ANYTOOL_1MMDEEP_LABELS_S
 10
853.331132
 20
296.331995
 30
0.000000
 42
-0.063742
  0
VERTEX
  8
1_ANYTOOL_1MMDEEP_LABELS_S
 10
854.337070
 20
295.389595
 30
0.000000
 42
-0.066270
  0
VERTEX
  8
1_ANYTOOL_1MMDEEP_LABELS_S
 10
855.066846
 20
294.221280
 30
0.000000
 42
-0.064120
  0
VERTEX
  8
1_ANYTOOL_1MMDEEP_LABELS_S
 10
855.515238
 20
292.761049
 30
0.000000
 42
-0.042492
  0
VERTEX
  8
1_ANYTOOL_1MMDEEP_LABELS_S
 10
855.645418
 20
291.231995
 30
0.000000
 42
-0.044610
  0
VERTEX
  8
1_ANYTOOL_1MMDEEP_LABELS_S
 10
855.500100
 20
289.606490
 30
0.000000
 42
-0.066622
  0
VERTEX
  8
1_ANYTOOL_1MMDEEP_LABELS_S
 10
855.002560
 20
288.060566
 30
0.000000
 42
-0.068664
  0
VERTEX
  8
1_ANYTOOL_1MMDEEP_LABELS_S
 10
854.186615
 20
286.819323
 30
0.000000
 42
-0.063259
  0
VERTEX
  8
1_ANYTOOL_1MMDEEP_LABELS_S
 10
853.073989
 20
285.831995
 30
0.000000
 42
-0.036959
  0
VERTEX
  8
1_ANYTOOL_1MMDEEP_LABELS_S
 10
851.757955
 20
285.068723
 30
0.000000
 42
-0.039228
  0
VERTEX
  8
1_ANYTOOL_1MMDEEP_LABELS_S
 10
850.341846
 20
284.514138
 30
0.000000
 42
-0.039137
  0
VERTEX
  8
1_ANYTOOL_1MMDEEP_LABELS_S
 10
848.831793
 20
284.181820
 30
0.000000
 42
-0.034609
  0
VERTEX
  8
1_ANYTOOL_1MMDEEP_LABELS_S
 10
847.288275
 20
284.074852
 30
0.000000
 42
-0.069668
  0
VERTEX
  8
1_ANYTOOL_1MMDEEP_LABELS_S
 10
844.333620
 20
284.488551
 30
0.000000
 42
-0.070768
  0
VERTEX
  8
1_ANYTOOL_1MMDEEP_LABELS_S
 10
841.609703
 20
285.703423
 30
0.000000
 42
-0.066313
  0
VERTEX
  8
1_ANYTOOL_1MMDEEP_LABELS_S
 10
840.488295
 20
286.635119
 30
0.000000
 42
-0.072121
  0
VERTEX
  8
1_ANYTOOL_1MMDEEP_LABELS_S
 10
839.665060
 20
287.835566
 30
0.000000
 42
-0.069559
  0
VERTEX
  8
1_ANYTOOL_1MMDEEP_LABELS_S
 10
839.161718
 20
289.363514
 30
0.000000
 42
-0.044863
  0
VERTEX
  8
1_ANYTOOL_1MMDEEP_LABELS_S
 10
839.016846
 20
290.974852
 30
0.000000
 42
-0.045769
  0
VERTEX
  8
1_ANYTOOL_1MMDEEP_LABELS_S
 10
839.165441
 20
292.594767
 30
0.000000
 42
-0.069077
  0
VERTEX
  8
1_ANYTOOL_1MMDEEP_LABELS_S
 10
839.675775
 20
294.130209
 30
0.000000
 42
-0.071249
  0
VERTEX
  8
1_ANYTOOL_1MMDEEP_LABELS_S
 10
840.514842
 20
295.353845
 30
0.000000
 42
-0.064222
  0
VERTEX
  8
1_ANYTOOL_1MMDEEP_LABELS_S
 10
841.652560
 20
296.310566
 30
0.000000
 42
-0.077102
  0
VERTEX
  8
1_ANYTOOL_1MMDEEP_LABELS_S
 10
844.536704
 20
297.588273
 30
0.000000
 42
-0.065877
  0
SEQEND
  8
1_ANYTOOL_1MMDEEP_LABELS_S
  0
POLYLINE
  8
1_ANYTOOL_1MMDEEP_LABELS_S
 66
1
 10
0.000000
 20
0.000000
 30
0.000000
 70
1
  0
VERTEX
  8
1_ANYTOOL_1MMDEEP_LABELS_S
 10
847.545418
 20
283.989138
 30
0.000000
 42
-0.031866
  0
VERTEX
  8
1_ANYTOOL_1MMDEEP_LABELS_S
 10
849.521272
 20
283.863085
 30
0.000000
 42
-0.044902
  0
VERTEX
  8
1_ANYTOOL_1MMDEEP_LABELS_S
 10
851.450775
 20
283.437352
 30
0.000000
 42
-0.045842
  0
VERTEX
  8
1_ANYTOOL_1MMDEEP_LABELS_S
 10
853.062138
 20
282.758871
 30
0.000000
 42
-0.051792
  0
VERTEX
  8
1_ANYTOOL_1MMDEEP_LABELS_S
 10
854.509703
 20
281.781995
 30
0.000000
 42
-0.051770
  0
VERTEX
  8
1_ANYTOOL_1MMDEEP_LABELS_S
 10
855.642616
 20
280.614151
 30
0.000000
 42
-0.060247
  0
VERTEX
  8
1_ANYTOOL_1MMDEEP_LABELS_S
 10
856.486489
 20
279.226638
 30
0.000000
 42
-0.059809
  0
VERTEX
  8
1_ANYTOOL_1MMDEEP_LABELS_S
 10
856.989336
 20
277.638250
 30
0.000000
 42
-0.046814
  0
VERTEX
  8
1_ANYTOOL_1MMDEEP_LABELS_S
 10
857.145418
 20
275.974852
 30
0.000000
 42
-0.046182
  0
VERTEX
  8
1_ANYTOOL_1MMDEEP_LABELS_S
 10
856.990436
 20
274.300501
 30
0.000000
 42
-0.060442
  0
VERTEX
  8
1_ANYTOOL_1MMDEEP_LABELS_S
 10
856.486489
 20
272.701638
 30
0.000000
 42
-0.061088
  0
VERTEX
  8
1_ANYTOOL_1MMDEEP_LABELS_S
 10
855.644440
 20
271.322336
 30
0.000000
 42
-0.053345
  0
VERTEX
  8
1_ANYTOOL_1MMDEEP_LABELS_S
 10
854.509703
 20
270.167709
 30
0.000000
 42
-0.051558
  0
VERTEX
  8
1_ANYTOOL_1MMDEEP_LABELS_S
 10
853.059811
 20
269.208489
 30
0.000000
 42
-0.045066
  0
VERTEX
  8
1_ANYTOOL_1MMDEEP_LABELS_S
 10
851.450775
 20
268.544495
 30
0.000000
 42
-0.044147
  0
VERTEX
  8
1_ANYTOOL_1MMDEEP_LABELS_S
 10
849.520427
 20
268.126856
 30
0.000000
 42
-0.031218
  0
VERTEX
  8
1_ANYTOOL_1MMDEEP_LABELS_S
 10
847.545418
 20
268.003423
 30
0.000000
 42
-0.031563
  0
VERTEX
  8
1_ANYTOOL_1MMDEEP_LABELS_S
 10
845.586402
 20
268.127212
 30
0.000000
 42
-0.044242
  0
VERTEX
  8
1_ANYTOOL_1MMDEEP_LABELS_S
 10
843.672203
 20
268.544495
 30
0.000000
 42
-0.045132
  0
VERTEX
  8
1_ANYTOOL_1MMDEEP_LABELS_S
 10
842.068976
 20
269.209635
 30
0.000000
 42
-0.051052
  0
VERTEX
  8
1_ANYTOOL_1MMDEEP_LABELS_S
 10
840.623989
 20
270.167709
 30
0.000000
 42
-0.053345
  0
VERTEX
  8
1_ANYTOOL_1MMDEEP_LABELS_S
 10
839.489252
 20
271.322336
 30
0.000000
 42
-0.061088
  0
VERTEX
  8
1_ANYTOOL_1MMDEEP_LABELS_S
 10
838.647203
 20
272.701638
 30
0.000000
 42
-0.060442
  0
VERTEX
  8
1_ANYTOOL_1MMDEEP_LABELS_S
 10
838.143256
 20
274.300501
 30
0.000000
 42
-0.046182
  0
VERTEX
  8
1_ANYTOOL_1MMDEEP_LABELS_S
 10
837.988275
 20
275.974852
 30
0.000000
 42
-0.046814
  0
VERTEX
  8
1_ANYTOOL_1MMDEEP_LABELS_S
 10
838.144356
 20
277.638250
 30
0.000000
 42
-0.059809
  0
VERTEX
  8
1_ANYTOOL_1MMDEEP_LABELS_S
 10
838.647203
 20
279.226638
 30
0.000000
 42
-0.060247
  0
VERTEX
  8
1_ANYTOOL_1MMDEEP_LABELS_S
 10
839.491076
 20
280.614151
 30
0.000000
 42
-0.051770
  0
VERTEX
  8
1_ANYTOOL_1MMDEEP_LABELS_S
 10
840.623989
 20
281.781995
 30
0.000000
 42
-0.051282
  0
VERTEX
  8
1_ANYTOOL_1MMDEEP_LABELS_S
 10
842.066663
 20
282.757710
 30
0.000000
 42
-0.045906
  0
VERTEX
  8
1_ANYTOOL_1MMDEEP_LABELS_S
 10
843.672203
 20
283.437352
 30
0.000000
 42
-0.044997
  0
VERTEX
  8
1_ANYTOOL_1MMDEEP_LABELS_S
 10
845.585554
 20
283.862722
 30
0.000000
 42
-0.032218
  0
SEQEND
  8
1_ANYTOOL_1MMDEEP_LABELS_S
  0
LINE
  8
1_ANYTOOL_1MMDEEP_LABELS_S
 10
877.459703
 20
297.531995
 30
0.000000
 11
860.273989
 21
266.760566
 31
0.000000
  0
POLYLINE
  8
1_ANYTOOL_1MMDEEP_LABELS_S
 66
1
 10
0.000000
 20
0.000000
 30
0.000000
 70
0
  0
VERTEX
  8
1_ANYTOOL_1MMDEEP_LABELS_S
 10
879.173989
 20
268.003423
 30
0.000000
  0
VERTEX
  8
1_ANYTOOL_1MMDEEP_LABELS_S
 10
890.059703
 20
298.003423
 30
0.000000
  0
VERTEX
  8
1_ANYTOOL_1MMDEEP_LABELS_S
 10
901.116846
 20
268.003423
 30
0.000000
  0
SEQEND
  8
1_ANYTOOL_1MMDEEP_LABELS_S
  0
LINE
  8
1_ANYTOOL_1MMDEEP_LABELS_S
 10
882.645418
 20
277.560566
 30
0.000000
 11
897.559703
 21
277.560566
 31
0.000000
  0
POLYLINE
  8
5_ANYTOOL_HALF_MILL_9MM_IN
 66
1
 10
0.000000
 20
0.000000
 30
0.000000
 70
1
  0
VERTEX
  8
5_ANYTOOL_HALF_MILL_9MM_IN
 10
65.467105
 20
18.000866
 30
0.000000
  0
VERTEX
  8
5_ANYTOOL_HALF_MILL_9MM_IN
 10
39.967105
 20
18.000866
 30
0.000000
  0
VERTEX
  8
5_ANYTOOL_HALF_MILL_9MM_IN
 10
33.967105
 20
18.000866
 30
0.000000
  0
VERTEX
  8
5_ANYTOOL_HALF_MILL_9MM_IN
 10
33.967105
 20
-6.499651
 30
0.000000
  0
VERTEX
  8
5_ANYTOOL_HALF_MILL_9MM_IN
 10
40.227105
 20
-6.499651
 30
0.000000
  0
VERTEX
  8
5_ANYTOOL_HALF_MILL_9MM_IN
 10
65.207105
 20
-6.499651
 30
0.000000
  0
VERTEX
  8
5_ANYTOOL_HALF_MILL_9MM_IN
 10
71.467105
 20
-6.499651
 30
0.000000
  0
VERTEX
  8
5_ANYTOOL_HALF_MILL_9MM_IN
 10
71.467105
 20
18.000866
 30
0.000000
  0
SEQEND
  8
5_ANYTOOL_HALF_MILL_9MM_IN
  0
POLYLINE
  8
5_ANYTOOL_HALF_MILL_9MM_IN
 66
1
 10
0.000000
 20
0.000000
 30
0.000000
 70
1
  0
VERTEX
  8
5_ANYTOOL_HALF_MILL_9MM_IN
 10
531.073130
 20
18.000000
 30
0.000000
  0
VERTEX
  8
5_ANYTOOL_HALF_MILL_9MM_IN
 10
480.573130
 20
18.000000
 30
0.000000
  0
VERTEX
  8
5_ANYTOOL_HALF_MILL_9MM_IN
 10
474.573130
 20
18.000000
 30
0.000000
  0
VERTEX
  8
5_ANYTOOL_HALF_MILL_9MM_IN
 10
474.573130
 20
-0.240000
 30
0.000000
  0
VERTEX
  8
5_ANYTOOL_HALF_MILL_9MM_IN
 10
474.573130
 20
-6.500000
 30
0.000000
  0
VERTEX
  8
5_ANYTOOL_HALF_MILL_9MM_IN
 10
530.813130
 20
-6.500000
 30
0.000000
  0
VERTEX
  8
5_ANYTOOL_HALF_MILL_9MM_IN
 10
537.073130
 20
-6.500000
 30
0.000000
  0
VERTEX
  8
5_ANYTOOL_HALF_MILL_9MM_IN
 10
537.073130
 20
18.000000
 30
0.000000
  0
SEQEND
  8
5_ANYTOOL_HALF_MILL_9MM_IN
  0
POLYLINE
  8
5_ANYTOOL_HALF_MILL_9MM_IN
 66
1
 10
0.000000
 20
0.000000
 30
0.000000
 70
1
  0
VERTEX
  8
5_ANYTOOL_HALF_MILL_9MM_IN
 10
331.526127
 20
55.500000
 30
0.000000
  0
VERTEX
  8
5_ANYTOOL_HALF_MILL_9MM_IN
 10
331.526127
 20
55.750000
 30
0.000000
 42
1.000000
  0
VERTEX
  8
5_ANYTOOL_HALF_MILL_9MM_IN
 10
289.026127
 20
55.750000
 30
0.000000
  0
VERTEX
  8
5_ANYTOOL_HALF_MILL_9MM_IN
 10
289.026127
 20
49.500000
 30
0.000000
  0
VERTEX
  8
5_ANYTOOL_HALF_MILL_9MM_IN
 10
331.526127
 20
49.500000
 30
0.000000
  0
SEQEND
  8
5_ANYTOOL_HALF_MILL_9MM_IN
  0
POLYLINE
  8
5_ANYTOOL_HALF_MILL_9MM_IN
 66
1
 10
0.000000
 20
0.000000
 30
0.000000
 70
1
  0
VERTEX
  8
5_ANYTOOL_HALF_MILL_9MM_IN
 10
580.209464
 20
581.499794
 30
0.000000
  0
VERTEX
  8
5_ANYTOOL_HALF_MILL_9MM_IN
 10
605.709464
 20
581.499794
 30
0.000000
  0
VERTEX
  8
5_ANYTOOL_HALF_MILL_9MM_IN
 10
611.709464
 20
581.499794
 30
0.000000
  0
VERTEX
  8
5_ANYTOOL_HALF_MILL_9MM_IN
 10
611.709464
 20
599.739792
 30
0.000000
  0
VERTEX
  8
5_ANYTOOL_HALF_MILL_9MM_IN
 10
611.709467
 20
605.999792
 30
0.000000
  0
VERTEX
  8
5_ANYTOOL_HALF_MILL_9MM_IN
 10
574.209467
 20
605.999807
 30
0.000000
  0
VERTEX
  8
5_ANYTOOL_HALF_MILL_9MM_IN
 10
574.209464
 20
599.739807
 30
0.000000
  0
VERTEX
  8
5_ANYTOOL_HALF_MILL_9MM_IN
 10
574.209464
 20
581.499794
 30
0.000000
  0
SEQEND
  8
5_ANYTOOL_HALF_MILL_9MM_IN
  0
POLYLINE
  8
5_ANYTOOL_HALF_MILL_9MM_IN
 66
1
 10
0.000000
 20
0.000000
 30
0.000000
 70
1
  0
VERTEX
  8
5_ANYTOOL_HALF_MILL_9MM_IN
 10
680.120130
 20
543.750000
 30
0.000000
 42
1.000000
  0
VERTEX
  8
5_ANYTOOL_HALF_MILL_9MM_IN
 10
722.620130
 20
543.750000
 30
0.000000
  0
VERTEX
  8
5_ANYTOOL_HALF_MILL_9MM_IN
 10
722.620130
 20
550.000000
 30
0.000000
  0
VERTEX
  8
5_ANYTOOL_HALF_MILL_9MM_IN
 10
680.120130
 20
550.000000
 30
0.000000
  0
SEQEND
  8
5_ANYTOOL_HALF_MILL_9MM_IN
  0
POLYLINE
  8
5_ANYTOOL_HALF_MILL_9MM_IN
 66
1
 10
0.000000
 20
0.000000
 30
0.000000
 70
1
  0
VERTEX
  8
5_ANYTOOL_HALF_MILL_9MM_IN
 10
889.026130
 20
543.750000
 30
0.000000
 42
1.000000
  0
VERTEX
  8
5_ANYTOOL_HALF_MILL_9MM_IN
 10
931.526130
 20
543.750000
 30
0.000000
  0
VERTEX
  8
5_ANYTOOL_HALF_MILL_9MM_IN
 10
931.526130
 20
550.000000
 30
0.000000
  0
VERTEX
  8
5_ANYTOOL_HALF_MILL_9MM_IN
 10
889.026130
 20
550.000000
 30
0.000000
  0
SEQEND
  8
5_ANYTOOL_HALF_MILL_9MM_IN
  0
POLYLINE
  8
5_ANYTOOL_HALF_MILL_9MM_IN
 66
1
 10
0.000000
 20
0.000000
 30
0.000000
 70
1
  0
VERTEX
  8
5_ANYTOOL_HALF_MILL_9MM_IN
 10
722.620130
 20
55.500000
 30
0.000000
  0
VERTEX
  8
5_ANYTOOL_HALF_MILL_9MM_IN
 10
722.620130
 20
55.750000
 30
0.000000
 42
1.000000
  0
VERTEX
  8
5_ANYTOOL_HALF_MILL_9MM_IN
 10
680.120130
 20
55.750000
 30
0.000000
  0
VERTEX
  8
5_ANYTOOL_HALF_MILL_9MM_IN
 10
680.120130
 20
49.500000
 30
0.000000
  0
VERTEX
  8
5_ANYTOOL_HALF_MILL_9MM_IN
 10
722.620130
 20
49.500000
 30
0.000000
  0
SEQEND
  8
5_ANYTOOL_HALF_MILL_9MM_IN
  0
POLYLINE
  8
5_ANYTOOL_HALF_MILL_9MM_IN
 66
1
 10
0.000000
 20
0.000000
 30
0.000000
 70
1
  0
VERTEX
  8
5_ANYTOOL_HALF_MILL_9MM_IN
 10
931.526130
 20
55.500000
 30
0.000000
  0
VERTEX
  8
5_ANYTOOL_HALF_MILL_9MM_IN
 10
931.526130
 20
55.750000
 30
0.000000
 42
1.000000
  0
VERTEX
  8
5_ANYTOOL_HALF_MILL_9MM_IN
 10
889.026130
 20
55.750000
 30
0.000000
  0
VERTEX
  8
5_ANYTOOL_HALF_MILL_9MM_IN
 10
889.026130
 20
49.500000
 30
0.000000
  0
VERTEX
  8
5_ANYTOOL_HALF_MILL_9MM_IN
 10
931.526130
 20
49.500000
 30
0.000000
  0
SEQEND
  8
5_ANYTOOL_HALF_MILL_9MM_IN
  0
POLYLINE
  8
5_ANYTOOL_HALF_MILL_9MM_IN
 66
1
 10
0.000000
 20
0.000000
 30
0.000000
 70
1
  0
VERTEX
  8
5_ANYTOOL_HALF_MILL_9MM_IN
 10
1131.073130
 20
18.000000
 30
0.000000
  0
VERTEX
  8
5_ANYTOOL_HALF_MILL_9MM_IN
 10
1080.573130
 20
18.000000
 30
0.000000
  0
VERTEX
  8
5_ANYTOOL_HALF_MILL_9MM_IN
 10
1074.573130
 20
18.000000
 30
0.000000
  0
VERTEX
  8
5_ANYTOOL_HALF_MILL_9MM_IN
 10
1074.573130
 20
-6.500000
 30
0.000000
  0
VERTEX
  8
5_ANYTOOL_HALF_MILL_9MM_IN
 10
1080.833130
 20
-6.500000
 30
0.000000
  0
VERTEX
  8
5_ANYTOOL_HALF_MILL_9MM_IN
 10
1130.813130
 20
-6.500000
 30
0.000000
  0
VERTEX
  8
5_ANYTOOL_HALF_MILL_9MM_IN
 10
1137.073130
 20
-6.500000
 30
0.000000
  0
VERTEX
  8
5_ANYTOOL_HALF_MILL_9MM_IN
 10
1137.073130
 20
18.000000
 30
0.000000
  0
SEQEND
  8
5_ANYTOOL_HALF_MILL_9MM_IN
  0
POLYLINE
  8
5_ANYTOOL_HALF_MILL_9MM_IN
 66
1
 10
0.000000
 20
0.000000
 30
0.000000
 70
1
  0
VERTEX
  8
5_ANYTOOL_HALF_MILL_9MM_IN
 10
1080.573130
 20
581.500000
 30
0.000000
  0
VERTEX
  8
5_ANYTOOL_HALF_MILL_9MM_IN
 10
1131.073130
 20
581.500000
 30
0.000000
  0
VERTEX
  8
5_ANYTOOL_HALF_MILL_9MM_IN
 10
1137.073130
 20
581.500000
 30
0.000000
  0
VERTEX
  8
5_ANYTOOL_HALF_MILL_9MM_IN
 10
1137.073130
 20
599.740000
 30
0.000000
  0
VERTEX
  8
5_ANYTOOL_HALF_MILL_9MM_IN
 10
1137.073130
 20
606.000000
 30
0.000000
  0
VERTEX
  8
5_ANYTOOL_HALF_MILL_9MM_IN
 10
1080.833130
 20
606.000000
 30
0.000000
  0
VERTEX
  8
5_ANYTOOL_HALF_MILL_9MM_IN
 10
1074.573130
 20
606.000000
 30
0.000000
  0
VERTEX
  8
5_ANYTOOL_HALF_MILL_9MM_IN
 10
1074.573130
 20
581.500000
 30
0.000000
  0
SEQEND
  8
5_ANYTOOL_HALF_MILL_9MM_IN
  0
POLYLINE
  8
5_ANYTOOL_HALF_MILL_9MM_IN
 66
1
 10
0.000000
 20
0.000000
 30
0.000000
 70
1
  0
VERTEX
  8
5_ANYTOOL_HALF_MILL_9MM_IN
 10
1280.120130
 20
543.750000
 30
0.000000
 42
1.000000
  0
VERTEX
  8
5_ANYTOOL_HALF_MILL_9MM_IN
 10
1322.620130
 20
543.750000
 30
0.000000
  0
VERTEX
  8
5_ANYTOOL_HALF_MILL_9MM_IN
 10
1322.620130
 20
550.000000
 30
0.000000
  0
VERTEX
  8
5_ANYTOOL_HALF_MILL_9MM_IN
 10
1280.120130
 20
550.000000
 30
0.000000
  0
SEQEND
  8
5_ANYTOOL_HALF_MILL_9MM_IN
  0
POLYLINE
  8
5_ANYTOOL_HALF_MILL_9MM_IN
 66
1
 10
0.000000
 20
0.000000
 30
0.000000
 70
1
  0
VERTEX
  8
5_ANYTOOL_HALF_MILL_9MM_IN
 10
1489.026130
 20
543.750000
 30
0.000000
 42
1.000000
  0
VERTEX
  8
5_ANYTOOL_HALF_MILL_9MM_IN
 10
1531.526130
 20
543.750000
 30
0.000000
  0
VERTEX
  8
5_ANYTOOL_HALF_MILL_9MM_IN
 10
1531.526130
 20
550.000000
 30
0.000000
  0
VERTEX
  8
5_ANYTOOL_HALF_MILL_9MM_IN
 10
1489.026130
 20
550.000000
 30
0.000000
  0
SEQEND
  8
5_ANYTOOL_HALF_MILL_9MM_IN
  0
POLYLINE
  8
5_ANYTOOL_HALF_MILL_9MM_IN
 66
1
 10
0.000000
 20
0.000000
 30
0.000000
 70
1
  0
VERTEX
  8
5_ANYTOOL_HALF_MILL_9MM_IN
 10
1322.620130
 20
55.500000
 30
0.000000
  0
VERTEX
  8
5_ANYTOOL_HALF_MILL_9MM_IN
 10
1322.620130
 20
55.750000
 30
0.000000
 42
1.000000
  0
VERTEX
  8
5_ANYTOOL_HALF_MILL_9MM_IN
 10
1280.120130
 20
55.750000
 30
0.000000
  0
VERTEX
  8
5_ANYTOOL_HALF_MILL_9MM_IN
 10
1280.120130
 20
49.500000
 30
0.000000
  0
VERTEX
  8
5_ANYTOOL_HALF_MILL_9MM_IN
 10
1322.620130
 20
49.500000
 30
0.000000
  0
SEQEND
  8
5_ANYTOOL_HALF_MILL_9MM_IN
  0
POLYLINE
  8
5_ANYTOOL_HALF_MILL_9MM_IN
 66
1
 10
0.000000
 20
0.000000
 30
0.000000
 70
1
  0
VERTEX
  8
5_ANYTOOL_HALF_MILL_9MM_IN
 10
1531.526130
 20
55.500000
 30
0.000000
  0
VERTEX
  8
5_ANYTOOL_HALF_MILL_9MM_IN
 10
1531.526130
 20
55.750000
 30
0.000000
 42
1.000000
  0
VERTEX
  8
5_ANYTOOL_HALF_MILL_9MM_IN
 10
1489.026130
 20
55.750000
 30
0.000000
  0
VERTEX
  8
5_ANYTOOL_HALF_MILL_9MM_IN
 10
1489.026130
 20
49.500000
 30
0.000000
  0
VERTEX
  8
5_ANYTOOL_HALF_MILL_9MM_IN
 10
1531.526130
 20
49.500000
 30
0.000000
  0
SEQEND
  8
5_ANYTOOL_HALF_MILL_9MM_IN
  0
POLYLINE
  8
5_ANYTOOL_HALF_MILL_9MM_IN
 66
1
 10
0.000000
 20
0.000000
 30
0.000000
 70
1
  0
VERTEX
  8
5_ANYTOOL_HALF_MILL_9MM_IN
 10
1649.823130
 20
321.000000
 30
0.000000
 42
1.000000
  0
VERTEX
  8
5_ANYTOOL_HALF_MILL_9MM_IN
 10
1649.823130
 20
278.500000
 30
0.000000
  0
VERTEX
  8
5_ANYTOOL_HALF_MILL_9MM_IN
 10
1656.073130
 20
278.500000
 30
0.000000
  0
VERTEX
  8
5_ANYTOOL_HALF_MILL_9MM_IN
 10
1656.073130
 20
321.000000
 30
0.000000
  0
SEQEND
  8
5_ANYTOOL_HALF_MILL_9MM_IN
  0
POLYLINE
  8
5_ANYTOOL_HALF_MILL_9MM_IN
 66
1
 10
0.000000
 20
0.000000
 30
0.000000
 70
1
  0
VERTEX
  8
5_ANYTOOL_HALF_MILL_9MM_IN
 10
1649.823130
 20
515.900000
 30
0.000000
 42
1.000000
  0
VERTEX
  8
5_ANYTOOL_HALF_MILL_9MM_IN
 10
1649.823130
 20
473.400000
 30
0.000000
  0
VERTEX
  8
5_ANYTOOL_HALF_MILL_9MM_IN
 10
1656.073130
 20
473.400000
 30
0.000000
  0
VERTEX
  8
5_ANYTOOL_HALF_MILL_9MM_IN
 10
1656.073130
 20
515.900000
 30
0.000000
  0
SEQEND
  8
5_ANYTOOL_HALF_MILL_9MM_IN
  0
POLYLINE
  8
5_ANYTOOL_HALF_MILL_9MM_IN
 66
1
 10
0.000000
 20
0.000000
 30
0.000000
 70
1
  0
VERTEX
  8
5_ANYTOOL_HALF_MILL_9MM_IN
 10
1649.823130
 20
126.100000
 30
0.000000
 42
1.000000
  0
VERTEX
  8
5_ANYTOOL_HALF_MILL_9MM_IN
 10
1649.823130
 20
83.600000
 30
0.000000
  0
VERTEX
  8
5_ANYTOOL_HALF_MILL_9MM_IN
 10
1656.073130
 20
83.600000
 30
0.000000
  0
VERTEX
  8
5_ANYTOOL_HALF_MILL_9MM_IN
 10
1656.073130
 20
126.100000
 30
0.000000
  0
SEQEND
  8
5_ANYTOOL_HALF_MILL_9MM_IN
  0
POLYLINE
  8
5_ANYTOOL_HALF_MILL_9MM_IN
 66
1
 10
0.000000
 20
0.000000
 30
0.000000
 70
1
  0
VERTEX
  8
5_ANYTOOL_HALF_MILL_9MM_IN
 10
1640.573130
 20
581.557870
 30
0.000000
  0
VERTEX
  8
5_ANYTOOL_HALF_MILL_9MM_IN
 10
1666.073130
 20
581.557870
 30
0.000000
  0
VERTEX
  8
5_ANYTOOL_HALF_MILL_9MM_IN
 10
1672.073130
 20
581.557870
 30
0.000000
  0
VERTEX
  8
5_ANYTOOL_HALF_MILL_9MM_IN
 10
1672.073130
 20
599.739939
 30
0.000000
  0
VERTEX
  8
5_ANYTOOL_HALF_MILL_9MM_IN
 10
1672.073130
 20
605.999939
 30
0.000000
  0
VERTEX
  8
5_ANYTOOL_HALF_MILL_9MM_IN
 10
1640.833130
 20
605.999939
 30
0.000000
  0
VERTEX
  8
5_ANYTOOL_HALF_MILL_9MM_IN
 10
1634.573130
 20
605.999939
 30
0.000000
  0
VERTEX
  8
5_ANYTOOL_HALF_MILL_9MM_IN
 10
1634.573130
 20
581.557870
 30
0.000000
  0
SEQEND
  8
5_ANYTOOL_HALF_MILL_9MM_IN
  0
POLYLINE
  8
5_ANYTOOL_HALF_MILL_9MM_IN
 66
1
 10
0.000000
 20
0.000000
 30
0.000000
 70
1
  0
VERTEX
  8
5_ANYTOOL_HALF_MILL_9MM_IN
 10
1666.073130
 20
17.942130
 30
0.000000
  0
VERTEX
  8
5_ANYTOOL_HALF_MILL_9MM_IN
 10
1640.573130
 20
17.942130
 30
0.000000
  0
VERTEX
  8
5_ANYTOOL_HALF_MILL_9MM_IN
 10
1634.573130
 20
17.942130
 30
0.000000
  0
VERTEX
  8
5_ANYTOOL_HALF_MILL_9MM_IN
 10
1634.573130
 20
-0.239939
 30
0.000000
  0
VERTEX
  8
5_ANYTOOL_HALF_MILL_9MM_IN
 10
1634.573130
 20
-6.499939
 30
0.000000
  0
VERTEX
  8
5_ANYTOOL_HALF_MILL_9MM_IN
 10
1665.813130
 20
-6.499939
 30
0.000000
  0
VERTEX
  8
5_ANYTOOL_HALF_MILL_9MM_IN
 10
1672.073130
 20
-6.499939
 30
0.000000
  0
VERTEX
  8
5_ANYTOOL_HALF_MILL_9MM_IN
 10
1672.073130
 20
17.942130
 30
0.000000
  0
SEQEND
  8
5_ANYTOOL_HALF_MILL_9MM_IN
  0
POLYLINE
  8
3_ANYTOOL_CUTTHROUGH_INSID
 66
1
 10
0.000000
 20
0.000000
 30
0.000000
 70
1
  0
VERTEX
  8
3_ANYTOOL_CUTTHROUGH_INSID
 10
1196.573130
 20
249.750003
 30
0.000000
 42
1.000000
  0
VERTEX
  8
3_ANYTOOL_CUTTHROUGH_INSID
 10
1215.073130
 20
249.750003
 30
0.000000
  0
VERTEX
  8
3_ANYTOOL_CUTTHROUGH_INSID
 10
1215.073130
 20
349.749997
 30
0.000000
 42
1.000000
  0
VERTEX
  8
3_ANYTOOL_CUTTHROUGH_INSID
 10
1196.573130
 20
349.749997
 30
0.000000
  0
SEQEND
  8
3_ANYTOOL_CUTTHROUGH_INSID
  0
POLYLINE
  8
3_ANYTOOL_CUTTHROUGH_INSID
 66
1
 10
0.000000
 20
0.000000
 30
0.000000
 70
1
  0
VERTEX
  8
3_ANYTOOL_CUTTHROUGH_INSID
 10
1015.073130
 20
249.750003
 30
0.000000
  0
VERTEX
  8
3_ANYTOOL_CUTTHROUGH_INSID
 10
1015.073130
 20
349.749997
 30
0.000000
 42
1.000000
  0
VERTEX
  8
3_ANYTOOL_CUTTHROUGH_INSID
 10
996.573130
 20
349.749997
 30
0.000000
  0
VERTEX
  8
3_ANYTOOL_CUTTHROUGH_INSID
 10
996.573130
 20
249.750003
 30
0.000000
 42
1.000000
  0
SEQEND
  8
3_ANYTOOL_CUTTHROUGH_INSID
  0
POLYLINE
  8
3_ANYTOOL_CUTTHROUGH_INSID
 66
1
 10
0.000000
 20
0.000000
 30
0.000000
 70
1
  0
VERTEX
  8
3_ANYTOOL_CUTTHROUGH_INSID
 10
1090.573130
 20
360.000000
 30
0.000000
  0
VERTEX
  8
3_ANYTOOL_CUTTHROUGH_INSID
 10
1090.573130
 20
347.500000
 30
0.000000
  0
VERTEX
  8
3_ANYTOOL_CUTTHROUGH_INSID
 10
1096.573130
 20
347.500000
 30
0.000000
  0
VERTEX
  8
3_ANYTOOL_CUTTHROUGH_INSID
 10
1096.573130
 20
252.000000
 30
0.000000
  0
VERTEX
  8
3_ANYTOOL_CUTTHROUGH_INSID
 10
1090.573130
 20
252.000000
 30
0.000000
  0
VERTEX
  8
3_ANYTOOL_CUTTHROUGH_INSID
 10
1090.573130
 20
239.500000
 30
0.000000
  0
VERTEX
  8
3_ANYTOOL_CUTTHROUGH_INSID
 10
1121.073130
 20
239.500000
 30
0.000000
  0
VERTEX
  8
3_ANYTOOL_CUTTHROUGH_INSID
 10
1121.073130
 20
252.000000
 30
0.000000
  0
VERTEX
  8
3_ANYTOOL_CUTTHROUGH_INSID
 10
1115.073130
 20
252.000000
 30
0.000000
  0
VERTEX
  8
3_ANYTOOL_CUTTHROUGH_INSID
 10
1115.073130
 20
347.500000
 30
0.000000
  0
VERTEX
  8
3_ANYTOOL_CUTTHROUGH_INSID
 10
1121.073130
 20
347.500000
 30
0.000000
  0
VERTEX
  8
3_ANYTOOL_CUTTHROUGH_INSID
 10
1121.073130
 20
360.000000
 30
0.000000
  0
SEQEND
  8
3_ANYTOOL_CUTTHROUGH_INSID
  0
POLYLINE
  8
4_ANYTOOL_CUTTHROUGH_OUTSI
 66
1
 10
0.000000
 20
0.000000
 30
0.000000
 70
1
  0
VERTEX
  8
4_ANYTOOL_CUTTHROUGH_OUTSI
 10
1704.178259
 20
522.989641
 30
0.000000
 42
0.061835
  0
VERTEX
  8
4_ANYTOOL_CUTTHROUGH_OUTSI
 10
1705.573130
 20
522.754790
 30
0.000000
  0
VERTEX
  8
4_ANYTOOL_CUTTHROUGH_OUTSI
 10
1705.573130
 20
535.153647
 30
0.000000
 42
-0.317837
  0
VERTEX
  8
4_ANYTOOL_CUTTHROUGH_OUTSI
 10
1709.739796
 20
541.046203
 30
0.000000
 42
0.707107
  0
VERTEX
  8
4_ANYTOOL_CUTTHROUGH_OUTSI
 10
1709.739796
 20
563.202216
 30
0.000000
 42
-0.317837
  0
VERTEX
  8
4_ANYTOOL_CUTTHROUGH_OUTSI
 10
1705.573130
 20
569.094772
 30
0.000000
  0
VERTEX
  8
4_ANYTOOL_CUTTHROUGH_OUTSI
 10
1705.573130
 20
581.499607
 30
0.000000
  0
VERTEX
  8
4_ANYTOOL_CUTTHROUGH_OUTSI
 10
1678.073130
 20
581.499863
 30
0.000000
  0
VERTEX
  8
4_ANYTOOL_CUTTHROUGH_OUTSI
 10
1678.073130
 20
575.749939
 30
0.000000
 42
-0.414214
  0
VERTEX
  8
4_ANYTOOL_CUTTHROUGH_OUTSI
 10
1677.823130
 20
575.499939
 30
0.000000
  0
VERTEX
  8
4_ANYTOOL_CUTTHROUGH_OUTSI
 10
1665.823130
 20
575.499939
 30
0.000000
 42
-0.414214
  0
VERTEX
  8
4_ANYTOOL_CUTTHROUGH_OUTSI
 10
1665.573130
 20
575.749939
 30
0.000000
  0
VERTEX
  8
4_ANYTOOL_CUTTHROUGH_OUTSI
 10
1665.573130
 20
599.499939
 30
0.000000
  0
VERTEX
  8
4_ANYTOOL_CUTTHROUGH_OUTSI
 10
1641.073130
 20
599.499939
 30
0.000000
  0
VERTEX
  8
4_ANYTOOL_CUTTHROUGH_OUTSI
 10
1641.073130
 20
575.749939
 30
0.000000
 42
-0.414214
  0
VERTEX
  8
4_ANYTOOL_CUTTHROUGH_OUTSI
 10
1640.823130
 20
575.499939
 30
0.000000
  0
VERTEX
  8
4_ANYTOOL_CUTTHROUGH_OUTSI
 10
1628.823130
 20
575.499939
 30
0.000000
 42
-0.414214
  0
VERTEX
  8
4_ANYTOOL_CUTTHROUGH_OUTSI
 10
1628.573130
 20
575.749939
 30
0.000000
  0
VERTEX
  8
4_ANYTOOL_CUTTHROUGH_OUTSI
 10
1628.573130
 20
581.499970
 30
0.000000
  0
VERTEX
  8
4_ANYTOOL_CUTTHROUGH_OUTSI
 10
1618.073130
 20
581.499999
 30
0.000000
  0
VERTEX
  8
4_ANYTOOL_CUTTHROUGH_OUTSI
 10
1618.073130
 20
575.750000
 30
0.000000
 42
-0.414214
  0
VERTEX
  8
4_ANYTOOL_CUTTHROUGH_OUTSI
 10
1617.823130
 20
575.500000
 30
0.000000
  0
VERTEX
  8
4_ANYTOOL_CUTTHROUGH_OUTSI
 10
1605.823130
 20
575.500000
 30
0.000000
 42
-0.414214
  0
VERTEX
  8
4_ANYTOOL_CUTTHROUGH_OUTSI
 10
1605.573130
 20
575.750000
 30
0.000000
  0
VERTEX
  8
4_ANYTOOL_CUTTHROUGH_OUTSI
 10
1605.573130
 20
599.500000
 30
0.000000
  0
VERTEX
  8
4_ANYTOOL_CUTTHROUGH_OUTSI
 10
1555.823130
 20
599.500000
 30
0.000000
  0
VERTEX
  8
4_ANYTOOL_CUTTHROUGH_OUTSI
 10
1538.381567
 20
599.500000
 30
0.000000
 42
0.061784
  0
VERTEX
  8
4_ANYTOOL_CUTTHROUGH_OUTSI
 10
1538.616561
 20
598.105130
 30
0.000000
  0
VERTEX
  8
4_ANYTOOL_CUTTHROUGH_OUTSI
 10
1555.512094
 20
549.832588
 30
0.000000
 42
-0.084368
  0
VERTEX
  8
4_ANYTOOL_CUTTHROUGH_OUTSI
 10
1555.526130
 20
549.750000
 30
0.000000
 42
-0.414214
  0
VERTEX
  8
4_ANYTOOL_CUTTHROUGH_OUTSI
 10
1549.276130
 20
543.500000
 30
0.000000
  0
VERTEX
  8
4_ANYTOOL_CUTTHROUGH_OUTSI
 10
1471.276130
 20
543.500000
 30
0.000000
 42
-0.414214
  0
VERTEX
  8
4_ANYTOOL_CUTTHROUGH_OUTSI
 10
1465.026130
 20
549.750000
 30
0.000000
 42
-0.084368
  0
VERTEX
  8
4_ANYTOOL_CUTTHROUGH_OUTSI
 10
1465.040165
 20
549.832588
 30
0.000000
  0
VERTEX
  8
4_ANYTOOL_CUTTHROUGH_OUTSI
 10
1481.939278
 20
598.116195
 30
0.000000
 42
0.061178
  0
VERTEX
  8
4_ANYTOOL_CUTTHROUGH_OUTSI
 10
1482.170692
 20
599.500000
 30
0.000000
  0
VERTEX
  8
4_ANYTOOL_CUTTHROUGH_OUTSI
 10
1443.573130
 20
599.500000
 30
0.000000
  0
VERTEX
  8
4_ANYTOOL_CUTTHROUGH_OUTSI
 10
1443.573130
 20
575.750000
 30
0.000000
 42
-0.414214
  0
VERTEX
  8
4_ANYTOOL_CUTTHROUGH_OUTSI
 10
1443.323130
 20
575.500000
 30
0.000000
  0
VERTEX
  8
4_ANYTOOL_CUTTHROUGH_OUTSI
 10
1431.323130
 20
575.500000
 30
0.000000
 42
-0.414214
  0
VERTEX
  8
4_ANYTOOL_CUTTHROUGH_OUTSI
 10
1431.073130
 20
575.750000
 30
0.000000
  0
VERTEX
  8
4_ANYTOOL_CUTTHROUGH_OUTSI
 10
1431.073130
 20
581.500000
 30
0.000000
  0
VERTEX
  8
4_ANYTOOL_CUTTHROUGH_OUTSI
 10
1380.573130
 20
581.500000
 30
0.000000
  0
VERTEX
  8
4_ANYTOOL_CUTTHROUGH_OUTSI
 10
1380.573130
 20
575.750000
 30
0.000000
 42
-0.414214
  0
VERTEX
  8
4_ANYTOOL_CUTTHROUGH_OUTSI
 10
1380.323130
 20
575.500000
 30
0.000000
  0
VERTEX
  8
4_ANYTOOL_CUTTHROUGH_OUTSI
 10
1368.323130
 20
575.500000
 30
0.000000
 42
-0.414214
  0
VERTEX
  8
4_ANYTOOL_CUTTHROUGH_OUTSI
 10
1368.073130
 20
575.750000
 30
0.000000
  0
VERTEX
  8
4_ANYTOOL_CUTTHROUGH_OUTSI
 10
1368.073130
 20
599.500000
 30
0.000000
  0
VERTEX
  8
4_ANYTOOL_CUTTHROUGH_OUTSI
 10
1329.475567
 20
599.500000
 30
0.000000
 42
0.061784
  0
VERTEX
  8
4_ANYTOOL_CUTTHROUGH_OUTSI
 10
1329.710561
 20
598.105130
 30
0.000000
  0
VERTEX
  8
4_ANYTOOL_CUTTHROUGH_OUTSI
 10
1346.606094
 20
549.832588
 30
0.000000
 42
-0.084368
  0
VERTEX
  8
4_ANYTOOL_CUTTHROUGH_OUTSI
 10
1346.620130
 20
549.750000
 30
0.000000
 42
-0.414214
  0
VERTEX
  8
4_ANYTOOL_CUTTHROUGH_OUTSI
 10
1340.370130
 20
543.500000
 30
0.000000
  0
VERTEX
  8
4_ANYTOOL_CUTTHROUGH_OUTSI
 10
1262.370130
 20
543.500000
 30
0.000000
 42
-0.414214
  0
VERTEX
  8
4_ANYTOOL_CUTTHROUGH_OUTSI
 10
1256.120130
 20
549.750000
 30
0.000000
 42
-0.084368
  0
VERTEX
  8
4_ANYTOOL_CUTTHROUGH_OUTSI
 10
1256.134165
 20
549.832588
 30
0.000000
  0
VERTEX
  8
4_ANYTOOL_CUTTHROUGH_OUTSI
 10
1273.033278
 20
598.116195
 30
0.000000
 42
0.061178
  0
VERTEX
  8
4_ANYTOOL_CUTTHROUGH_OUTSI
 10
1273.264692
 20
599.500000
 30
0.000000
  0
VERTEX
  8
4_ANYTOOL_CUTTHROUGH_OUTSI
 10
1255.823130
 20
599.500000
 30
0.000000
  0
VERTEX
  8
4_ANYTOOL_CUTTHROUGH_OUTSI
 10
1206.073130
 20
599.500000
 30
0.000000
  0
VERTEX
  8
4_ANYTOOL_CUTTHROUGH_OUTSI
 10
1206.073130
 20
575.750000
 30
0.000000
 42
-0.414214
  0
VERTEX
  8
4_ANYTOOL_CUTTHROUGH_OUTSI
 10
1205.823130
 20
575.500000
 30
0.000000
  0
VERTEX
  8
4_ANYTOOL_CUTTHROUGH_OUTSI
 10
1193.823130
 20
575.500000
 30
0.000000
 42
-0.414214
  0
VERTEX
  8
4_ANYTOOL_CUTTHROUGH_OUTSI
 10
1193.573130
 20
575.750000
 30
0.000000
  0
VERTEX
  8
4_ANYTOOL_CUTTHROUGH_OUTSI
 10
1193.573130
 20
581.500000
 30
0.000000
  0
VERTEX
  8
4_ANYTOOL_CUTTHROUGH_OUTSI
 10
1143.073130
 20
581.500000
 30
0.000000
  0
VERTEX
  8
4_ANYTOOL_CUTTHROUGH_OUTSI
 10
1143.073130
 20
575.750000
 30
0.000000
 42
-0.414214
  0
VERTEX
  8
4_ANYTOOL_CUTTHROUGH_OUTSI
 10
1142.823130
 20
575.500000
 30
0.000000
  0
VERTEX
  8
4_ANYTOOL_CUTTHROUGH_OUTSI
 10
1130.823130
 20
575.500000
 30
0.000000
 42
-0.414214
  0
VERTEX
  8
4_ANYTOOL_CUTTHROUGH_OUTSI
 10
1130.573130
 20
575.750000
 30
0.000000
  0
VERTEX
  8
4_ANYTOOL_CUTTHROUGH_OUTSI
 10
1130.573130
 20
599.500000
 30
0.000000
  0
VERTEX
  8
4_ANYTOOL_CUTTHROUGH_OUTSI
 10
1081.073130
 20
599.500000
 30
0.000000
  0
VERTEX
  8
4_ANYTOOL_CUTTHROUGH_OUTSI
 10
1081.073130
 20
575.750000
 30
0.000000
 42
-0.414214
  0
VERTEX
  8
4_ANYTOOL_CUTTHROUGH_OUTSI
 10
1080.823130
 20
575.500000
 30
0.000000
  0
VERTEX
  8
4_ANYTOOL_CUTTHROUGH_OUTSI
 10
1068.823130
 20
575.500000
 30
0.000000
 42
-0.414214
  0
VERTEX
  8
4_ANYTOOL_CUTTHROUGH_OUTSI
 10
1068.573130
 20
575.750000
 30
0.000000
  0
VERTEX
  8
4_ANYTOOL_CUTTHROUGH_OUTSI
 10
1068.573130
 20
581.500000
 30
0.000000
  0
VERTEX
  8
4_ANYTOOL_CUTTHROUGH_OUTSI
 10
1018.073130
 20
581.500000
 30
0.000000
  0
VERTEX
  8
4_ANYTOOL_CUTTHROUGH_OUTSI
 10
1018.073130
 20
575.750000
 30
0.000000
 42
-0.414214
  0
VERTEX
  8
4_ANYTOOL_CUTTHROUGH_OUTSI
 10
1017.823130
 20
575.500000
 30
0.000000
  0
VERTEX
  8
4_ANYTOOL_CUTTHROUGH_OUTSI
 10
1005.823130
 20
575.500000
 30
0.000000
 42
-0.414214
  0
VERTEX
  8
4_ANYTOOL_CUTTHROUGH_OUTSI
 10
1005.573130
 20
575.750000
 30
0.000000
  0
VERTEX
  8
4_ANYTOOL_CUTTHROUGH_OUTSI
 10
1005.573130
 20
599.500000
 30
0.000000
  0
VERTEX
  8
4_ANYTOOL_CUTTHROUGH_OUTSI
 10
938.381567
 20
599.500000
 30
0.000000
 42
0.061784
  0
VERTEX
  8
4_ANYTOOL_CUTTHROUGH_OUTSI
 10
938.616561
 20
598.105130
 30
0.000000
  0
VERTEX
  8
4_ANYTOOL_CUTTHROUGH_OUTSI
 10
955.512094
 20
549.832588
 30
0.000000
 42
-0.084368
  0
VERTEX
  8
4_ANYTOOL_CUTTHROUGH_OUTSI
 10
955.526130
 20
549.750000
 30
0.000000
 42
-0.414214
  0
VERTEX
  8
4_ANYTOOL_CUTTHROUGH_OUTSI
 10
949.276130
 20
543.500000
 30
0.000000
  0
VERTEX
  8
4_ANYTOOL_CUTTHROUGH_OUTSI
 10
871.276130
 20
543.500000
 30
0.000000
 42
-0.414214
  0
VERTEX
  8
4_ANYTOOL_CUTTHROUGH_OUTSI
 10
865.026130
 20
549.750000
 30
0.000000
 42
-0.084368
  0
VERTEX
  8
4_ANYTOOL_CUTTHROUGH_OUTSI
 10
865.040165
 20
549.832588
 30
0.000000
  0
VERTEX
  8
4_ANYTOOL_CUTTHROUGH_OUTSI
 10
881.939278
 20
598.116195
 30
0.000000
 42
0.061178
  0
VERTEX
  8
4_ANYTOOL_CUTTHROUGH_OUTSI
 10
882.170692
 20
599.500000
 30
0.000000
  0
VERTEX
  8
4_ANYTOOL_CUTTHROUGH_OUTSI
 10
843.573130
 20
599.500000
 30
0.000000
  0
VERTEX
  8
4_ANYTOOL_CUTTHROUGH_OUTSI
 10
843.573130
 20
575.750000
 30
0.000000
 42
-0.414214
  0
VERTEX
  8
4_ANYTOOL_CUTTHROUGH_OUTSI
 10
843.323130
 20
575.500000
 30
0.000000
  0
VERTEX
  8
4_ANYTOOL_CUTTHROUGH_OUTSI
 10
831.323130
 20
575.500000
 30
0.000000
 42
-0.414214
  0
VERTEX
  8
4_ANYTOOL_CUTTHROUGH_OUTSI
 10
831.073130
 20
575.750000
 30
0.000000
  0
VERTEX
  8
4_ANYTOOL_CUTTHROUGH_OUTSI
 10
831.073130
 20
581.500000
 30
0.000000
  0
VERTEX
  8
4_ANYTOOL_CUTTHROUGH_OUTSI
 10
780.573130
 20
581.500000
 30
0.000000
  0
VERTEX
  8
4_ANYTOOL_CUTTHROUGH_OUTSI
 10
780.573130
 20
575.750000
 30
0.000000
 42
-0.414214
  0
VERTEX
  8
4_ANYTOOL_CUTTHROUGH_OUTSI
 10
780.323130
 20
575.500000
 30
0.000000
  0
VERTEX
  8
4_ANYTOOL_CUTTHROUGH_OUTSI
 10
768.323130
 20
575.500000
 30
0.000000
 42
-0.414214
  0
VERTEX
  8
4_ANYTOOL_CUTTHROUGH_OUTSI
 10
768.073130
 20
575.750000
 30
0.000000
  0
VERTEX
  8
4_ANYTOOL_CUTTHROUGH_OUTSI
 10
768.073130
 20
599.500000
 30
0.000000
  0
VERTEX
  8
4_ANYTOOL_CUTTHROUGH_OUTSI
 10
729.475567
 20
599.500000
 30
0.000000
 42
0.061784
  0
VERTEX
  8
4_ANYTOOL_CUTTHROUGH_OUTSI
 10
729.710561
 20
598.105130
 30
0.000000
  0
VERTEX
  8
4_ANYTOOL_CUTTHROUGH_OUTSI
 10
746.606094
 20
549.832588
 30
0.000000
 42
-0.084368
  0
VERTEX
  8
4_ANYTOOL_CUTTHROUGH_OUTSI
 10
746.620130
 20
549.750000
 30
0.000000
 42
-0.414214
  0
VERTEX
  8
4_ANYTOOL_CUTTHROUGH_OUTSI
 10
740.370130
 20
543.500000
 30
0.000000
  0
VERTEX
  8
4_ANYTOOL_CUTTHROUGH_OUTSI
 10
662.370130
 20
543.500000
 30
0.000000
 42
-0.414214
  0
VERTEX
  8
4_ANYTOOL_CUTTHROUGH_OUTSI
 10
656.120130
 20
549.750000
 30
0.000000
 42
-0.084368
  0
VERTEX
  8
4_ANYTOOL_CUTTHROUGH_OUTSI
 10
656.134165
 20
549.832588
 30
0.000000
  0
VERTEX
  8
4_ANYTOOL_CUTTHROUGH_OUTSI
 10
673.033278
 20
598.116195
 30
0.000000
 42
0.061178
  0
VERTEX
  8
4_ANYTOOL_CUTTHROUGH_OUTSI
 10
673.264692
 20
599.500000
 30
0.000000
  0
VERTEX
  8
4_ANYTOOL_CUTTHROUGH_OUTSI
 10
655.823130
 20
599.499995
 30
0.000000
  0
VERTEX
  8
4_ANYTOOL_CUTTHROUGH_OUTSI
 10
640.709464
 20
599.499797
 30
0.000000
  0
VERTEX
  8
4_ANYTOOL_CUTTHROUGH_OUTSI
 10
640.709464
 20
575.749794
 30
0.000000
 42
-0.414214
  0
VERTEX
  8
4_ANYTOOL_CUTTHROUGH_OUTSI
 10
640.459464
 20
575.499794
 30
0.000000
  0
VERTEX
  8
4_ANYTOOL_CUTTHROUGH_OUTSI
 10
628.459464
 20
575.499794
 30
0.000000
 42
-0.414214
  0
VERTEX
  8
4_ANYTOOL_CUTTHROUGH_OUTSI
 10
628.209464
 20
575.749794
 30
0.000000
  0
VERTEX
  8
4_ANYTOOL_CUTTHROUGH_OUTSI
 10
628.209464
 20
581.499794
 30
0.000000
  0
VERTEX
  8
4_ANYTOOL_CUTTHROUGH_OUTSI
 10
617.709464
 20
581.499794
 30
0.000000
  0
VERTEX
  8
4_ANYTOOL_CUTTHROUGH_OUTSI
 10
617.709464
 20
575.749794
 30
0.000000
 42
-0.414214
  0
VERTEX
  8
4_ANYTOOL_CUTTHROUGH_OUTSI
 10
617.459464
 20
575.499794
 30
0.000000
  0
VERTEX
  8
4_ANYTOOL_CUTTHROUGH_OUTSI
 10
605.459464
 20
575.499794
 30
0.000000
 42
-0.414214
  0
VERTEX
  8
4_ANYTOOL_CUTTHROUGH_OUTSI
 10
605.209464
 20
575.749794
 30
0.000000
  0
VERTEX
  8
4_ANYTOOL_CUTTHROUGH_OUTSI
 10
605.209464
 20
599.499794
 30
0.000000
  0
VERTEX
  8
4_ANYTOOL_CUTTHROUGH_OUTSI
 10
580.709464
 20
599.499804
 30
0.000000
  0
VERTEX
  8
4_ANYTOOL_CUTTHROUGH_OUTSI
 10
580.709464
 20
575.749804
 30
0.000000
 42
-0.414214
  0
VERTEX
  8
4_ANYTOOL_CUTTHROUGH_OUTSI
 10
580.459464
 20
575.499804
 30
0.000000
  0
VERTEX
  8
4_ANYTOOL_CUTTHROUGH_OUTSI
 10
568.459464
 20
575.499804
 30
0.000000
 42
-0.414214
  0
VERTEX
  8
4_ANYTOOL_CUTTHROUGH_OUTSI
 10
568.209464
 20
575.749804
 30
0.000000
  0
VERTEX
  8
4_ANYTOOL_CUTTHROUGH_OUTSI
 10
568.209464
 20
581.499807
 30
0.000000
  0
VERTEX
  8
4_ANYTOOL_CUTTHROUGH_OUTSI
 10
507.377252
 20
581.500425
 30
0.000000
  0
VERTEX
  8
4_ANYTOOL_CUTTHROUGH_OUTSI
 10
474.172326
 20
544.622618
 30
0.000000
  0
VERTEX
  8
4_ANYTOOL_CUTTHROUGH_OUTSI
 10
478.445409
 20
540.775117
 30
0.000000
 42
-0.414214
  0
VERTEX
  8
4_ANYTOOL_CUTTHROUGH_OUTSI
 10
478.463912
 20
540.422048
 30
0.000000
  0
VERTEX
  8
4_ANYTOOL_CUTTHROUGH_OUTSI
 10
470.434345
 20
531.504310
 30
0.000000
 42
-0.414214
  0
VERTEX
  8
4_ANYTOOL_CUTTHROUGH_OUTSI
 10
470.081276
 20
531.485807
 30
0.000000
  0
VERTEX
  8
4_ANYTOOL_CUTTHROUGH_OUTSI
 10
465.622407
 20
535.500590
 30
0.000000
  0
VERTEX
  8
4_ANYTOOL_CUTTHROUGH_OUTSI
 10
452.431586
 20
547.377659
 30
0.000000
  0
VERTEX
  8
4_ANYTOOL_CUTTHROUGH_OUTSI
 10
314.766784
 20
394.485406
 30
0.000000
  0
VERTEX
  8
4_ANYTOOL_CUTTHROUGH_OUTSI
 10
332.416474
 20
378.593554
 30
0.000000
 42
-0.414214
  0
VERTEX
  8
4_ANYTOOL_CUTTHROUGH_OUTSI
 10
332.434977
 20
378.240486
 30
0.000000
  0
VERTEX
  8
4_ANYTOOL_CUTTHROUGH_OUTSI
 10
324.405410
 20
369.322748
 30
0.000000
 42
-0.414214
  0
VERTEX
  8
4_ANYTOOL_CUTTHROUGH_OUTSI
 10
324.052341
 20
369.304244
 30
0.000000
  0
VERTEX
  8
4_ANYTOOL_CUTTHROUGH_OUTSI
 10
319.779258
 20
373.151745
 30
0.000000
  0
VERTEX
  8
4_ANYTOOL_CUTTHROUGH_OUTSI
 10
296.025122
 20
346.770104
 30
0.000000
  0
VERTEX
  8
4_ANYTOOL_CUTTHROUGH_OUTSI
 10
300.298205
 20
342.922603
 30
0.000000
 42
-0.414214
  0
VERTEX
  8
4_ANYTOOL_CUTTHROUGH_OUTSI
 10
300.316708
 20
342.569534
 30
0.000000
  0
VERTEX
  8
4_ANYTOOL_CUTTHROUGH_OUTSI
 10
292.287141
 20
333.651796
 30
0.000000
 42
-0.414214
  0
VERTEX
  8
4_ANYTOOL_CUTTHROUGH_OUTSI
 10
291.934072
 20
333.633293
 30
0.000000
  0
VERTEX
  8
4_ANYTOOL_CUTTHROUGH_OUTSI
 10
274.284382
 20
349.525144
 30
0.000000
  0
VERTEX
  8
4_ANYTOOL_CUTTHROUGH_OUTSI
 10
184.349214
 20
249.642021
 30
0.000000
  0
VERTEX
  8
4_ANYTOOL_CUTTHROUGH_OUTSI
 10
201.998904
 20
233.750169
 30
0.000000
 42
-0.414214
  0
VERTEX
  8
4_ANYTOOL_CUTTHROUGH_OUTSI
 10
202.017407
 20
233.397100
 30
0.000000
  0
VERTEX
  8
4_ANYTOOL_CUTTHROUGH_OUTSI
 10
193.987840
 20
224.479362
 30
0.000000
 42
-0.414214
  0
VERTEX
  8
4_ANYTOOL_CUTTHROUGH_OUTSI
 10
193.634771
 20
224.460859
 30
0.000000
  0
VERTEX
  8
4_ANYTOOL_CUTTHROUGH_OUTSI
 10
189.361688
 20
228.308360
 30
0.000000
  0
VERTEX
  8
4_ANYTOOL_CUTTHROUGH_OUTSI
 10
165.607552
 20
201.926718
 30
0.000000
  0
VERTEX
  8
4_ANYTOOL_CUTTHROUGH_OUTSI
 10
169.880635
 20
198.079217
 30
0.000000
 42
-0.414214
  0
VERTEX
  8
4_ANYTOOL_CUTTHROUGH_OUTSI
 10
169.899138
 20
197.726149
 30
0.000000
  0
VERTEX
  8
4_ANYTOOL_CUTTHROUGH_OUTSI
 10
161.869571
 20
188.808411
 30
0.000000
 42
-0.414214
  0
VERTEX
  8
4_ANYTOOL_CUTTHROUGH_OUTSI
 10
161.516502
 20
188.789907
 30
0.000000
  0
VERTEX
  8
4_ANYTOOL_CUTTHROUGH_OUTSI
 10
143.866812
 20
204.681759
 30
0.000000
  0
VERTEX
  8
4_ANYTOOL_CUTTHROUGH_OUTSI
 10
6.202010
 20
51.789507
 30
0.000000
  0
VERTEX
  8
4_ANYTOOL_CUTTHROUGH_OUTSI
 10
23.851700
 20
35.897655
 30
0.000000
 42
-0.414214
  0
VERTEX
  8
4_ANYTOOL_CUTTHROUGH_OUTSI
 10
23.870203
 20
35.544586
 30
0.000000
  0
VERTEX
  8
4_ANYTOOL_CUTTHROUGH_OUTSI
 10
15.840636
 20
26.626848
 30
0.000000
 42
-0.414214
  0
VERTEX
  8
4_ANYTOOL_CUTTHROUGH_OUTSI
 10
15.487567
 20
26.608344
 30
0.000000
  0
VERTEX
  8
4_ANYTOOL_CUTTHROUGH_OUTSI
 10
11.214485
 20
30.455845
 30
0.000000
  0
VERTEX
  8
4_ANYTOOL_CUTTHROUGH_OUTSI
 10
0.000000
 20
18.000856
 30
0.000000
  0
VERTEX
  8
4_ANYTOOL_CUTTHROUGH_OUTSI
 10
27.967105
 20
18.000353
 30
0.000000
  0
VERTEX
  8
4_ANYTOOL_CUTTHROUGH_OUTSI
 10
27.967105
 20
23.750349
 30
0.000000
 42
-0.414214
  0
VERTEX
  8
4_ANYTOOL_CUTTHROUGH_OUTSI
 10
28.217105
 20
24.000349
 30
0.000000
  0
VERTEX
  8
4_ANYTOOL_CUTTHROUGH_OUTSI
 10
40.217105
 20
24.000349
 30
0.000000
 42
-0.414214
  0
VERTEX
  8
4_ANYTOOL_CUTTHROUGH_OUTSI
 10
40.467105
 20
23.750349
 30
0.000000
  0
VERTEX
  8
4_ANYTOOL_CUTTHROUGH_OUTSI
 10
40.467105
 20
0.000349
 30
0.000000
  0
VERTEX
  8
4_ANYTOOL_CUTTHROUGH_OUTSI
 10
64.967105
 20
0.000349
 30
0.000000
  0
VERTEX
  8
4_ANYTOOL_CUTTHROUGH_OUTSI
 10
64.967105
 20
23.750349
 30
0.000000
 42
-0.414214
  0
VERTEX
  8
4_ANYTOOL_CUTTHROUGH_OUTSI
 10
65.217105
 20
24.000349
 30
0.000000
  0
VERTEX
  8
4_ANYTOOL_CUTTHROUGH_OUTSI
 10
77.217105
 20
24.000349
 30
0.000000
 42
-0.414214
  0
VERTEX
  8
4_ANYTOOL_CUTTHROUGH_OUTSI
 10
77.467105
 20
23.750349
 30
0.000000
  0
VERTEX
  8
4_ANYTOOL_CUTTHROUGH_OUTSI
 10
77.467105
 20
18.000349
 30
0.000000
  0
VERTEX
  8
4_ANYTOOL_CUTTHROUGH_OUTSI
 10
87.967105
 20
18.000349
 30
0.000000
  0
VERTEX
  8
4_ANYTOOL_CUTTHROUGH_OUTSI
 10
87.967105
 20
23.750349
 30
0.000000
 42
-0.414214
  0
VERTEX
  8
4_ANYTOOL_CUTTHROUGH_OUTSI
 10
88.217105
 20
24.000349
 30
0.000000
  0
VERTEX
  8
4_ANYTOOL_CUTTHROUGH_OUTSI
 10
100.217105
 20
24.000349
 30
0.000000
 42
-0.414215
  0
VERTEX
  8
4_ANYTOOL_CUTTHROUGH_OUTSI
 10
100.467105
 20
23.750348
 30
0.000000
  0
VERTEX
  8
4_ANYTOOL_CUTTHROUGH_OUTSI
 10
100.466997
 20
0.000824
 30
0.000000
  0
VERTEX
  8
4_ANYTOOL_CUTTHROUGH_OUTSI
 10
168.073130
 20
0.000003
 30
0.000000
  0
VERTEX
  8
4_ANYTOOL_CUTTHROUGH_OUTSI
 10
168.073130
 20
23.750000
 30
0.000000
 42
-0.414214
  0
VERTEX
  8
4_ANYTOOL_CUTTHROUGH_OUTSI
 10
168.323130
 20
24.000000
 30
0.000000
  0
VERTEX
  8
4_ANYTOOL_CUTTHROUGH_OUTSI
 10
180.323130
 20
24.000000
 30
0.000000
 42
-0.414214
  0
VERTEX
  8
4_ANYTOOL_CUTTHROUGH_OUTSI
 10
180.573130
 20
23.750000
 30
0.000000
  0
VERTEX
  8
4_ANYTOOL_CUTTHROUGH_OUTSI
 10
180.573130
 20
18.000000
 30
0.000000
  0
VERTEX
  8
4_ANYTOOL_CUTTHROUGH_OUTSI
 10
231.073130
 20
18.000000
 30
0.000000
  0
VERTEX
  8
4_ANYTOOL_CUTTHROUGH_OUTSI
 10
231.073130
 20
23.750000
 30
0.000000
 42
-0.414214
  0
VERTEX
  8
4_ANYTOOL_CUTTHROUGH_OUTSI
 10
231.323130
 20
24.000000
 30
0.000000
  0
VERTEX
  8
4_ANYTOOL_CUTTHROUGH_OUTSI
 10
243.323130
 20
24.000000
 30
0.000000
 42
-0.414214
  0
VERTEX
  8
4_ANYTOOL_CUTTHROUGH_OUTSI
 10
243.573130
 20
23.750000
 30
0.000000
  0
VERTEX
  8
4_ANYTOOL_CUTTHROUGH_OUTSI
 10
243.573130
 20
0.000000
 30
0.000000
  0
VERTEX
  8
4_ANYTOOL_CUTTHROUGH_OUTSI
 10
282.170573
 20
0.000000
 30
0.000000
 42
0.061423
  0
VERTEX
  8
4_ANYTOOL_CUTTHROUGH_OUTSI
 10
281.935698
 20
1.394870
 30
0.000000
  0
VERTEX
  8
4_ANYTOOL_CUTTHROUGH_OUTSI
 10
265.040165
 20
49.667412
 30
0.000000
 42
-0.084368
  0
VERTEX
  8
4_ANYTOOL_CUTTHROUGH_OUTSI
 10
265.026130
 20
49.750000
 30
0.000000
 42
-0.414214
  0
VERTEX
  8
4_ANYTOOL_CUTTHROUGH_OUTSI
 10
271.276130
 20
56.000000
 30
0.000000
  0
VERTEX
  8
4_ANYTOOL_CUTTHROUGH_OUTSI
 10
349.276130
 20
56.000000
 30
0.000000
 42
-0.414214
  0
VERTEX
  8
4_ANYTOOL_CUTTHROUGH_OUTSI
 10
355.526130
 20
49.750000
 30
0.000000
 42
-0.084368
  0
VERTEX
  8
4_ANYTOOL_CUTTHROUGH_OUTSI
 10
355.512094
 20
49.667412
 30
0.000000
  0
VERTEX
  8
4_ANYTOOL_CUTTHROUGH_OUTSI
 10
338.612981
 20
1.383805
 30
0.000000
 42
0.061178
  0
VERTEX
  8
4_ANYTOOL_CUTTHROUGH_OUTSI
 10
338.381567
 20
0.000000
 30
0.000000
  0
VERTEX
  8
4_ANYTOOL_CUTTHROUGH_OUTSI
 10
405.573130
 20
0.000000
 30
0.000000
  0
VERTEX
  8
4_ANYTOOL_CUTTHROUGH_OUTSI
 10
405.573130
 20
23.750000
 30
0.000000
 42
-0.414214
  0
VERTEX
  8
4_ANYTOOL_CUTTHROUGH_OUTSI
 10
405.823130
 20
24.000000
 30
0.000000
  0
VERTEX
  8
4_ANYTOOL_CUTTHROUGH_OUTSI
 10
417.823130
 20
24.000000
 30
0.000000
 42
-0.414214
  0
VERTEX
  8
4_ANYTOOL_CUTTHROUGH_OUTSI
 10
418.073130
 20
23.750000
 30
0.000000
  0
VERTEX
  8
4_ANYTOOL_CUTTHROUGH_OUTSI
 10
418.073130
 20
18.000000
 30
0.000000
  0
VERTEX
  8
4_ANYTOOL_CUTTHROUGH_OUTSI
 10
468.573130
 20
18.000000
 30
0.000000
  0
VERTEX
  8
4_ANYTOOL_CUTTHROUGH_OUTSI
 10
468.573130
 20
23.750000
 30
0.000000
 42
-0.414214
  0
VERTEX
  8
4_ANYTOOL_CUTTHROUGH_OUTSI
 10
468.823130
 20
24.000000
 30
0.000000
  0
VERTEX
  8
4_ANYTOOL_CUTTHROUGH_OUTSI
 10
480.823130
 20
24.000000
 30
0.000000
 42
-0.414214
  0
VERTEX
  8
4_ANYTOOL_CUTTHROUGH_OUTSI
 10
481.073130
 20
23.750000
 30
0.000000
  0
VERTEX
  8
4_ANYTOOL_CUTTHROUGH_OUTSI
 10
481.073130
 20
0.000000
 30
0.000000
  0
VERTEX
  8
4_ANYTOOL_CUTTHROUGH_OUTSI
 10
530.573130
 20
0.000000
 30
0.000000
  0
VERTEX
  8
4_ANYTOOL_CUTTHROUGH_OUTSI
 10
530.573130
 20
23.750000
 30
0.000000
 42
-0.414214
  0
VERTEX
  8
4_ANYTOOL_CUTTHROUGH_OUTSI
 10
530.823130
 20
24.000000
 30
0.000000
  0
VERTEX
  8
4_ANYTOOL_CUTTHROUGH_OUTSI
 10
542.823130
 20
24.000000
 30
0.000000
 42
-0.414214
  0
VERTEX
  8
4_ANYTOOL_CUTTHROUGH_OUTSI
 10
543.073130
 20
23.750000
 30
0.000000
  0
VERTEX
  8
4_ANYTOOL_CUTTHROUGH_OUTSI
 10
543.073130
 20
18.000000
 30
0.000000
  0
VERTEX
  8
4_ANYTOOL_CUTTHROUGH_OUTSI
 10
593.573130
 20
18.000000
 30
0.000000
  0
VERTEX
  8
4_ANYTOOL_CUTTHROUGH_OUTSI
 10
593.573130
 20
23.750000
 30
0.000000
 42
-0.414214
  0
VERTEX
  8
4_ANYTOOL_CUTTHROUGH_OUTSI
 10
593.823130
 20
24.000000
 30
0.000000
  0
VERTEX
  8
4_ANYTOOL_CUTTHROUGH_OUTSI
 10
605.823130
 20
24.000000
 30
0.000000
 42
-0.414214
  0
VERTEX
  8
4_ANYTOOL_CUTTHROUGH_OUTSI
 10
606.073130
 20
23.750000
 30
0.000000
  0
VERTEX
  8
4_ANYTOOL_CUTTHROUGH_OUTSI
 10
606.073130
 20
0.000000
 30
0.000000
  0
VERTEX
  8
4_ANYTOOL_CUTTHROUGH_OUTSI
 10
673.264692
 20
0.000000
 30
0.000000
 42
0.061784
  0
VERTEX
  8
4_ANYTOOL_CUTTHROUGH_OUTSI
 10
673.029698
 20
1.394870
 30
0.000000
  0
VERTEX
  8
4_ANYTOOL_CUTTHROUGH_OUTSI
 10
656.134165
 20
49.667412
 30
0.000000
 42
-0.084368
  0
VERTEX
  8
4_ANYTOOL_CUTTHROUGH_OUTSI
 10
656.120130
 20
49.750000
 30
0.000000
 42
-0.414214
  0
VERTEX
  8
4_ANYTOOL_CUTTHROUGH_OUTSI
 10
662.370130
 20
56.000000
 30
0.000000
  0
VERTEX
  8
4_ANYTOOL_CUTTHROUGH_OUTSI
 10
740.370130
 20
56.000000
 30
0.000000
 42
-0.414214
  0
VERTEX
  8
4_ANYTOOL_CUTTHROUGH_OUTSI
 10
746.620130
 20
49.750000
 30
0.000000
 42
-0.084368
  0
VERTEX
  8
4_ANYTOOL_CUTTHROUGH_OUTSI
 10
746.606094
 20
49.667412
 30
0.000000
  0
VERTEX
  8
4_ANYTOOL_CUTTHROUGH_OUTSI
 10
729.706981
 20
1.383805
 30
0.000000
 42
0.061178
  0
VERTEX
  8
4_ANYTOOL_CUTTHROUGH_OUTSI
 10
729.475567
 20
0.000000
 30
0.000000
  0
VERTEX
  8
4_ANYTOOL_CUTTHROUGH_OUTSI
 10
768.073130
 20
0.000000
 30
0.000000
  0
VERTEX
  8
4_ANYTOOL_CUTTHROUGH_OUTSI
 10
768.073130
 20
23.750000
 30
0.000000
 42
-0.414214
  0
VERTEX
  8
4_ANYTOOL_CUTTHROUGH_OUTSI
 10
768.323130
 20
24.000000
 30
0.000000
  0
VERTEX
  8
4_ANYTOOL_CUTTHROUGH_OUTSI
 10
780.323130
 20
24.000000
 30
0.000000
 42
-0.414214
  0
VERTEX
  8
4_ANYTOOL_CUTTHROUGH_OUTSI
 10
780.573130
 20
23.750000
 30
0.000000
  0
VERTEX
  8
4_ANYTOOL_CUTTHROUGH_OUTSI
 10
780.573130
 20
18.000000
 30
0.000000
  0
VERTEX
  8
4_ANYTOOL_CUTTHROUGH_OUTSI
 10
831.073130
 20
18.000000
 30
0.000000
  0
VERTEX
  8
4_ANYTOOL_CUTTHROUGH_OUTSI
 10
831.073130
 20
23.750000
 30
0.000000
 42
-0.414214
  0
VERTEX
  8
4_ANYTOOL_CUTTHROUGH_OUTSI
 10
831.323130
 20
24.000000
 30
0.000000
  0
VERTEX
  8
4_ANYTOOL_CUTTHROUGH_OUTSI
 10
843.323130
 20
24.000000
 30
0.000000
 42
-0.414214
  0
VERTEX
  8
4_ANYTOOL_CUTTHROUGH_OUTSI
 10
843.573130
 20
23.750000
 30
0.000000
  0
VERTEX
  8
4_ANYTOOL_CUTTHROUGH_OUTSI
 10
843.573130
 20
0.000000
 30
0.000000
  0
VERTEX
  8
4_ANYTOOL_CUTTHROUGH_OUTSI
 10
882.170692
 20
0.000000
 30
0.000000
 42
0.061784
  0
VERTEX
  8
4_ANYTOOL_CUTTHROUGH_OUTSI
 10
881.935698
 20
1.394870
 30
0.000000
  0
VERTEX
  8
4_ANYTOOL_CUTTHROUGH_OUTSI
 10
865.040165
 20
49.667412
 30
0.000000
 42
-0.084368
  0
VERTEX
  8
4_ANYTOOL_CUTTHROUGH_OUTSI
 10
865.026130
 20
49.750000
 30
0.000000
 42
-0.414214
  0
VERTEX
  8
4_ANYTOOL_CUTTHROUGH_OUTSI
 10
871.276130
 20
56.000000
 30
0.000000
  0
VERTEX
  8
4_ANYTOOL_CUTTHROUGH_OUTSI
 10
949.276130
 20
56.000000
 30
0.000000
 42
-0.414214
  0
VERTEX
  8
4_ANYTOOL_CUTTHROUGH_OUTSI
 10
955.526130
 20
49.750000
 30
0.000000
 42
-0.084368
  0
VERTEX
  8
4_ANYTOOL_CUTTHROUGH_OUTSI
 10
955.512094
 20
49.667412
 30
0.000000
  0
VERTEX
  8
4_ANYTOOL_CUTTHROUGH_OUTSI
 10
938.612981
 20
1.383805
 30
0.000000
 42
0.061178
  0
VERTEX
  8
4_ANYTOOL_CUTTHROUGH_OUTSI
 10
938.381567
 20
0.000000
 30
0.000000
  0
VERTEX
  8
4_ANYTOOL_CUTTHROUGH_OUTSI
 10
1005.573130
 20
0.000000
 30
0.000000
  0
VERTEX
  8
4_ANYTOOL_CUTTHROUGH_OUTSI
 10
1005.573130
 20
23.750000
 30
0.000000
 42
-0.414214
  0
VERTEX
  8
4_ANYTOOL_CUTTHROUGH_OUTSI
 10
1005.823130
 20
24.000000
 30
0.000000
  0
VERTEX
  8
4_ANYTOOL_CUTTHROUGH_OUTSI
 10
1017.823130
 20
24.000000
 30
0.000000
 42
-0.414214
  0
VERTEX
  8
4_ANYTOOL_CUTTHROUGH_OUTSI
 10
1018.073130
 20
23.750000
 30
0.000000
  0
VERTEX
  8
4_ANYTOOL_CUTTHROUGH_OUTSI
 10
1018.073130
 20
18.000000
 30
0.000000
  0
VERTEX
  8
4_ANYTOOL_CUTTHROUGH_OUTSI
 10
1068.573130
 20
18.000000
 30
0.000000
  0
VERTEX
  8
4_ANYTOOL_CUTTHROUGH_OUTSI
 10
1068.573130
 20
23.750000
 30
0.000000
 42
-0.414214
  0
VERTEX
  8
4_ANYTOOL_CUTTHROUGH_OUTSI
 10
1068.823130
 20
24.000000
 30
0.000000
  0
VERTEX
  8
4_ANYTOOL_CUTTHROUGH_OUTSI
 10
1080.823130
 20
24.000000
 30
0.000000
 42
-0.414214
  0
VERTEX
  8
4_ANYTOOL_CUTTHROUGH_OUTSI
 10
1081.073130
 20
23.750000
 30
0.000000
  0
VERTEX
  8
4_ANYTOOL_CUTTHROUGH_OUTSI
 10
1081.073130
 20
0.000000
 30
0.000000
  0
VERTEX
  8
4_ANYTOOL_CUTTHROUGH_OUTSI
 10
1130.573130
 20
0.000000
 30
0.000000
  0
VERTEX
  8
4_ANYTOOL_CUTTHROUGH_OUTSI
 10
1130.573130
 20
23.750000
 30
0.000000
 42
-0.414214
  0
VERTEX
  8
4_ANYTOOL_CUTTHROUGH_OUTSI
 10
1130.823130
 20
24.000000
 30
0.000000
  0
VERTEX
  8
4_ANYTOOL_CUTTHROUGH_OUTSI
 10
1142.823130
 20
24.000000
 30
0.000000
 42
-0.414214
  0
VERTEX
  8
4_ANYTOOL_CUTTHROUGH_OUTSI
 10
1143.073130
 20
23.750000
 30
0.000000
  0
VERTEX
  8
4_ANYTOOL_CUTTHROUGH_OUTSI
 10
1143.073130
 20
18.000000
 30
0.000000
  0
VERTEX
  8
4_ANYTOOL_CUTTHROUGH_OUTSI
 10
1193.573130
 20
18.000000
 30
0.000000
  0
VERTEX
  8
4_ANYTOOL_CUTTHROUGH_OUTSI
 10
1193.573130
 20
23.750000
 30
0.000000
 42
-0.414214
  0
VERTEX
  8
4_ANYTOOL_CUTTHROUGH_OUTSI
 10
1193.823130
 20
24.000000
 30
0.000000
  0
VERTEX
  8
4_ANYTOOL_CUTTHROUGH_OUTSI
 10
1205.823130
 20
24.000000
 30
0.000000
 42
-0.414214
  0
VERTEX
  8
4_ANYTOOL_CUTTHROUGH_OUTSI
 10
1206.073130
 20
23.750000
 30
0.000000
  0
VERTEX
  8
4_ANYTOOL_CUTTHROUGH_OUTSI
 10
1206.073130
 20
0.000000
 30
0.000000
  0
VERTEX
  8
4_ANYTOOL_CUTTHROUGH_OUTSI
 10
1273.264692
 20
0.000000
 30
0.000000
 42
0.061784
  0
VERTEX
  8
4_ANYTOOL_CUTTHROUGH_OUTSI
 10
1273.029698
 20
1.394870
 30
0.000000
  0
VERTEX
  8
4_ANYTOOL_CUTTHROUGH_OUTSI
 10
1256.134165
 20
49.667412
 30
0.000000
 42
-0.084368
  0
VERTEX
  8
4_ANYTOOL_CUTTHROUGH_OUTSI
 10
1256.120130
 20
49.750000
 30
0.000000
 42
-0.414214
  0
VERTEX
  8
4_ANYTOOL_CUTTHROUGH_OUTSI
 10
1262.370130
 20
56.000000
 30
0.000000
  0
VERTEX
  8
4_ANYTOOL_CUTTHROUGH_OUTSI
 10
1340.370130
 20
56.000000
 30
0.000000
 42
-0.414214
  0
VERTEX
  8
4_ANYTOOL_CUTTHROUGH_OUTSI
 10
1346.620130
 20
49.750000
 30
0.000000
 42
-0.084368
  0
VERTEX
  8
4_ANYTOOL_CUTTHROUGH_OUTSI
 10
1346.606094
 20
49.667412
 30
0.000000
  0
VERTEX
  8
4_ANYTOOL_CUTTHROUGH_OUTSI
 10
1329.706981
 20
1.383805
 30
0.000000
 42
0.061178
  0
VERTEX
  8
4_ANYTOOL_CUTTHROUGH_OUTSI
 10
1329.475567
 20
0.000000
 30
0.000000
  0
VERTEX
  8
4_ANYTOOL_CUTTHROUGH_OUTSI
 10
1368.073130
 20
0.000000
 30
0.000000
  0
VERTEX
  8
4_ANYTOOL_CUTTHROUGH_OUTSI
 10
1368.073130
 20
23.750000
 30
0.000000
 42
-0.414214
  0
VERTEX
  8
4_ANYTOOL_CUTTHROUGH_OUTSI
 10
1368.323130
 20
24.000000
 30
0.000000
  0
VERTEX
  8
4_ANYTOOL_CUTTHROUGH_OUTSI
 10
1380.323130
 20
24.000000
 30
0.000000
 42
-0.414214
  0
VERTEX
  8
4_ANYTOOL_CUTTHROUGH_OUTSI
 10
1380.573130
 20
23.750000
 30
0.000000
  0
VERTEX
  8
4_ANYTOOL_CUTTHROUGH_OUTSI
 10
1380.573130
 20
18.000000
 30
0.000000
  0
VERTEX
  8
4_ANYTOOL_CUTTHROUGH_OUTSI
 10
1431.073130
 20
18.000000
 30
0.000000
  0
VERTEX
  8
4_ANYTOOL_CUTTHROUGH_OUTSI
 10
1431.073130
 20
23.750000
 30
0.000000
 42
-0.414214
  0
VERTEX
  8
4_ANYTOOL_CUTTHROUGH_OUTSI
 10
1431.323130
 20
24.000000
 30
0.000000
  0
VERTEX
  8
4_ANYTOOL_CUTTHROUGH_OUTSI
 10
1443.323130
 20
24.000000
 30
0.000000
 42
-0.414214
  0
VERTEX
  8
4_ANYTOOL_CUTTHROUGH_OUTSI
 10
1443.573130
 20
23.750000
 30
0.000000
  0
VERTEX
  8
4_ANYTOOL_CUTTHROUGH_OUTSI
 10
1443.573130
 20
0.000000
 30
0.000000
  0
VERTEX
  8
4_ANYTOOL_CUTTHROUGH_OUTSI
 10
1482.170692
 20
0.000000
 30
0.000000
 42
0.061784
  0
VERTEX
  8
4_ANYTOOL_CUTTHROUGH_OUTSI
 10
1481.935698
 20
1.394870
 30
0.000000
  0
VERTEX
  8
4_ANYTOOL_CUTTHROUGH_OUTSI
 10
1465.040165
 20
49.667412
 30
0.000000
 42
-0.084368
  0
VERTEX
  8
4_ANYTOOL_CUTTHROUGH_OUTSI
 10
1465.026130
 20
49.750000
 30
0.000000
 42
-0.414214
  0
VERTEX
  8
4_ANYTOOL_CUTTHROUGH_OUTSI
 10
1471.276130
 20
56.000000
 30
0.000000
  0
VERTEX
  8
4_ANYTOOL_CUTTHROUGH_OUTSI
 10
1549.276130
 20
56.000000
 30
0.000000
 42
-0.414214
  0
VERTEX
  8
4_ANYTOOL_CUTTHROUGH_OUTSI
 10
1555.526130
 20
49.750000
 30
0.000000
 42
-0.084368
  0
VERTEX
  8
4_ANYTOOL_CUTTHROUGH_OUTSI
 10
1555.512094
 20
49.667412
 30
0.000000
  0
VERTEX
  8
4_ANYTOOL_CUTTHROUGH_OUTSI
 10
1538.612981
 20
1.383805
 30
0.000000
 42
0.061178
  0
VERTEX
  8
4_ANYTOOL_CUTTHROUGH_OUTSI
 10
1538.381567
 20
0.000000
 30
0.000000
  0
VERTEX
  8
4_ANYTOOL_CUTTHROUGH_OUTSI
 10
1605.573130
 20
0.000000
 30
0.000000
  0
VERTEX
  8
4_ANYTOOL_CUTTHROUGH_OUTSI
 10
1605.573130
 20
23.750000
 30
0.000000
 42
-0.414214
  0
VERTEX
  8
4_ANYTOOL_CUTTHROUGH_OUTSI
 10
1605.823130
 20
24.000000
 30
0.000000
  0
VERTEX
  8
4_ANYTOOL_CUTTHROUGH_OUTSI
 10
1617.823130
 20
24.000000
 30
0.000000
 42
-0.414214
  0
VERTEX
  8
4_ANYTOOL_CUTTHROUGH_OUTSI
 10
1618.073130
 20
23.750000
 30
0.000000
  0
VERTEX
  8
4_ANYTOOL_CUTTHROUGH_OUTSI
 10
1618.073130
 20
18.000001
 30
0.000000
  0
VERTEX
  8
4_ANYTOOL_CUTTHROUGH_OUTSI
 10
1628.573130
 20
18.000030
 30
0.000000
  0
VERTEX
  8
4_ANYTOOL_CUTTHROUGH_OUTSI
 10
1628.573130
 20
23.750061
 30
0.000000
 42
-0.414214
  0
VERTEX
  8
4_ANYTOOL_CUTTHROUGH_OUTSI
 10
1628.823130
 20
24.000061
 30
0.000000
  0
VERTEX
  8
4_ANYTOOL_CUTTHROUGH_OUTSI
 10
1640.823130
 20
24.000061
 30
0.000000
 42
-0.414214
  0
VERTEX
  8
4_ANYTOOL_CUTTHROUGH_OUTSI
 10
1641.073130
 20
23.750061
 30
0.000000
  0
VERTEX
  8
4_ANYTOOL_CUTTHROUGH_OUTSI
 10
1641.073130
 20
0.000061
 30
0.000000
  0
VERTEX
  8
4_ANYTOOL_CUTTHROUGH_OUTSI
 10
1665.573130
 20
0.000061
 30
0.000000
  0
VERTEX
  8
4_ANYTOOL_CUTTHROUGH_OUTSI
 10
1665.573130
 20
23.750061
 30
0.000000
 42
-0.414214
  0
VERTEX
  8
4_ANYTOOL_CUTTHROUGH_OUTSI
 10
1665.823130
 20
24.000061
 30
0.000000
  0
VERTEX
  8
4_ANYTOOL_CUTTHROUGH_OUTSI
 10
1677.823130
 20
24.000061
 30
0.000000
 42
-0.414214
  0
VERTEX
  8
4_ANYTOOL_CUTTHROUGH_OUTSI
 10
1678.073130
 20
23.750061
 30
0.000000
  0
VERTEX
  8
4_ANYTOOL_CUTTHROUGH_OUTSI
 10
1678.073130
 20
18.000134
 30
0.000000
  0
VERTEX
  8
4_ANYTOOL_CUTTHROUGH_OUTSI
 10
1705.573130
 20
18.000001
 30
0.000000
  0
VERTEX
  8
4_ANYTOOL_CUTTHROUGH_OUTSI
 10
1705.573130
 20
30.403647
 30
0.000000
 42
-0.317837
  0
VERTEX
  8
4_ANYTOOL_CUTTHROUGH_OUTSI
 10
1709.739796
 20
36.296203
 30
0.000000
 42
0.707107
  0
VERTEX
  8
4_ANYTOOL_CUTTHROUGH_OUTSI
 10
1709.739796
 20
58.452216
 30
0.000000
 42
-0.317837
  0
VERTEX
  8
4_ANYTOOL_CUTTHROUGH_OUTSI
 10
1705.573130
 20
64.344772
 30
0.000000
  0
VERTEX
  8
4_ANYTOOL_CUTTHROUGH_OUTSI
 10
1705.573130
 20
76.744268
 30
0.000000
 42
0.061977
  0
VERTEX
  8
4_ANYTOOL_CUTTHROUGH_OUTSI
 10
1704.178362
 20
76.509208
 30
0.000000
  0
VERTEX
  8
4_ANYTOOL_CUTTHROUGH_OUTSI
 10
1655.905719
 20
59.613246
 30
0.000000
 42
-0.084370
  0
VERTEX
  8
4_ANYTOOL_CUTTHROUGH_OUTSI
 10
1655.823130
 20
59.599210
 30
0.000000
 42
-0.414214
  0
VERTEX
  8
4_ANYTOOL_CUTTHROUGH_OUTSI
 10
1649.573130
 20
65.849210
 30
0.000000
  0
VERTEX
  8
4_ANYTOOL_CUTTHROUGH_OUTSI
 10
1649.573130
 20
143.849210
 30
0.000000
 42
-0.414214
  0
VERTEX
  8
4_ANYTOOL_CUTTHROUGH_OUTSI
 10
1655.823130
 20
150.099210
 30
0.000000
 42
-0.084368
  0
VERTEX
  8
4_ANYTOOL_CUTTHROUGH_OUTSI
 10
1655.905717
 20
150.085174
 30
0.000000
  0
VERTEX
  8
4_ANYTOOL_CUTTHROUGH_OUTSI
 10
1704.189324
 20
133.186061
 30
0.000000
 42
0.061178
  0
VERTEX
  8
4_ANYTOOL_CUTTHROUGH_OUTSI
 10
1705.573130
 20
132.954647
 30
0.000000
  0
VERTEX
  8
4_ANYTOOL_CUTTHROUGH_OUTSI
 10
1705.573130
 20
271.643772
 30
0.000000
 42
0.061784
  0
VERTEX
  8
4_ANYTOOL_CUTTHROUGH_OUTSI
 10
1704.178259
 20
271.408778
 30
0.000000
  0
VERTEX
  8
4_ANYTOOL_CUTTHROUGH_OUTSI
 10
1655.905717
 20
254.513245
 30
0.000000
 42
-0.084368
  0
VERTEX
  8
4_ANYTOOL_CUTTHROUGH_OUTSI
 10
1655.823130
 20
254.499210
 30
0.000000
 42
-0.414214
  0
VERTEX
  8
4_ANYTOOL_CUTTHROUGH_OUTSI
 10
1649.573130
 20
260.749210
 30
0.000000
  0
VERTEX
  8
4_ANYTOOL_CUTTHROUGH_OUTSI
 10
1649.573130
 20
338.749210
 30
0.000000
 42
-0.414214
  0
VERTEX
  8
4_ANYTOOL_CUTTHROUGH_OUTSI
 10
1655.823130
 20
344.999210
 30
0.000000
 42
-0.084368
  0
VERTEX
  8
4_ANYTOOL_CUTTHROUGH_OUTSI
 10
1655.905717
 20
344.985174
 30
0.000000
  0
VERTEX
  8
4_ANYTOOL_CUTTHROUGH_OUTSI
 10
1704.189324
 20
328.086061
 30
0.000000
 42
0.061178
  0
VERTEX
  8
4_ANYTOOL_CUTTHROUGH_OUTSI
 10
1705.573130
 20
327.854647
 30
0.000000
  0
VERTEX
  8
4_ANYTOOL_CUTTHROUGH_OUTSI
 10
1705.573130
 20
466.543772
 30
0.000000
 42
0.061784
  0
VERTEX
  8
4_ANYTOOL_CUTTHROUGH_OUTSI
 10
1704.178259
 20
466.308778
 30
0.000000
  0
VERTEX
  8
4_ANYTOOL_CUTTHROUGH_OUTSI
 10
1655.905717
 20
449.413245
 30
0.000000
 42
-0.084368
  0
VERTEX
  8
4_ANYTOOL_CUTTHROUGH_OUTSI
 10
1655.823130
 20
449.399210
 30
0.000000
 42
-0.414214
  0
VERTEX
  8
4_ANYTOOL_CUTTHROUGH_OUTSI
 10
1649.573130
 20
455.649210
 30
0.000000
  0
VERTEX
  8
4_ANYTOOL_CUTTHROUGH_OUTSI
 10
1649.573130
 20
533.649210
 30
0.000000
 42
-0.414214
  0
VERTEX
  8
4_ANYTOOL_CUTTHROUGH_OUTSI
 10
1655.823130
 20
539.899210
 30
0.000000
 42
-0.084368
  0
VERTEX
  8
4_ANYTOOL_CUTTHROUGH_OUTSI
 10
1655.905717
 20
539.885174
 30
0.000000
  0
SEQEND
  8
4_ANYTOOL_CUTTHROUGH_OUTSI
  0
ENDSEC
  0
EOF
