  0
SECTION
  2
HEADER
  9
$ACADVER
  1
AC1009
  9
$INSBASE
 10
0.000000
 20
0.000000
 30
0.000000
  9
$EXTMIN
 10
0.000000
 20
0.000000
 30
0.000000
  9
$EXTMAX
 10
806.879616
 20
185.500000
 30
0.000000
  0
ENDSEC
  0
SECTION
  2
TABLES
  0
TABLE
  2
LTYPE
 70
1
  0
LTYPE
  2
CONTINUOUS
 70
0
  3
Solid line
 72
65
 73
0
 40
0.000000
  0
ENDTAB
  0
TABLE
  2
LAYER
 70
4
  0
LAYER
  2
0
 70
0
 62
7
  6
CONTINUOUS
  0
LAYER
  2
1_ANYTOOL_1MMDEEP_LABELS_S
 70
0
 62
2
  6
CONTINUOUS
  0
LAYER
  2
5_ANYTOOL_HALF_MILL_9MM_IN
 70
0
 62
3
  6
CONTINUOUS
  0
LAYER
  2
4_ANYTOOL_CUTTHROUGH_OUTSI
 70
0
 62
5
  6
CONTINUOUS
  0
ENDTAB
  0
ENDSEC
  0
SECTION
  2
ENTITIES
  0
LINE
  8
1_ANYTOOL_1MMDEEP_LABELS_S
 10
515.260597
 20
89.473804
 30
0.000000
 11
500.774883
 21
89.473804
 31
0.000000
  0
POLYLINE
  8
1_ANYTOOL_1MMDEEP_LABELS_S
 66
1
 10
0.000000
 20
0.000000
 30
0.000000
 70
0
  0
VERTEX
  8
1_ANYTOOL_1MMDEEP_LABELS_S
 10
518.432026
 20
103.445233
 30
0.000000
  0
VERTEX
  8
1_ANYTOOL_1MMDEEP_LABELS_S
 10
500.774883
 20
103.445233
 30
0.000000
  0
VERTEX
  8
1_ANYTOOL_1MMDEEP_LABELS_S
 10
500.774883
 20
73.445233
 30
0.000000
  0
SEQEND
  8
1_ANYTOOL_1MMDEEP_LABELS_S
  0
LINE
  8
1_ANYTOOL_1MMDEEP_LABELS_S
 10
497.174883
 20
102.973804
 30
0.000000
 11
479.989169
 21
72.202376
 31
0.000000
  0
POLYLINE
  8
1_ANYTOOL_1MMDEEP_LABELS_S
 66
1
 10
0.000000
 20
0.000000
 30
0.000000
 70
1
  0
VERTEX
  8
1_ANYTOOL_1MMDEEP_LABELS_S
 10
467.260597
 20
89.430947
 30
0.000000
 42
-0.031866
  0
VERTEX
  8
1_ANYTOOL_1MMDEEP_LABELS_S
 10
469.236452
 20
89.304895
 30
0.000000
 42
-0.044902
  0
VERTEX
  8
1_ANYTOOL_1MMDEEP_LABELS_S
 10
471.165954
 20
88.879161
 30
0.000000
 42
-0.045842
  0
VERTEX
  8
1_ANYTOOL_1MMDEEP_LABELS_S
 10
472.777318
 20
88.200681
 30
0.000000
 42
-0.051792
  0
VERTEX
  8
1_ANYTOOL_1MMDEEP_LABELS_S
 10
474.224883
 20
87.223804
 30
0.000000
 42
-0.051770
  0
VERTEX
  8
1_ANYTOOL_1MMDEEP_LABELS_S
 10
475.357796
 20
86.055960
 30
0.000000
 42
-0.060247
  0
VERTEX
  8
1_ANYTOOL_1MMDEEP_LABELS_S
 10
476.201669
 20
84.668447
 30
0.000000
 42
-0.059809
  0
VERTEX
  8
1_ANYTOOL_1MMDEEP_LABELS_S
 10
476.704516
 20
83.080060
 30
0.000000
 42
-0.046814
  0
VERTEX
  8
1_ANYTOOL_1MMDEEP_LABELS_S
 10
476.860597
 20
81.416661
 30
0.000000
 42
-0.046182
  0
VERTEX
  8
1_ANYTOOL_1MMDEEP_LABELS_S
 10
476.705616
 20
79.742310
 30
0.000000
 42
-0.060442
  0
VERTEX
  8
1_ANYTOOL_1MMDEEP_LABELS_S
 10
476.201669
 20
78.143447
 30
0.000000
 42
-0.061088
  0
VERTEX
  8
1_ANYTOOL_1MMDEEP_LABELS_S
 10
475.359620
 20
76.764146
 30
0.000000
 42
-0.053345
  0
VERTEX
  8
1_ANYTOOL_1MMDEEP_LABELS_S
 10
474.224883
 20
75.609519
 30
0.000000
 42
-0.051558
  0
VERTEX
  8
1_ANYTOOL_1MMDEEP_LABELS_S
 10
472.774990
 20
74.650299
 30
0.000000
 42
-0.045066
  0
VERTEX
  8
1_ANYTOOL_1MMDEEP_LABELS_S
 10
471.165954
 20
73.986304
 30
0.000000
 42
-0.044147
  0
VERTEX
  8
1_ANYTOOL_1MMDEEP_LABELS_S
 10
469.235607
 20
73.568666
 30
0.000000
 42
-0.031218
  0
VERTEX
  8
1_ANYTOOL_1MMDEEP_LABELS_S
 10
467.260597
 20
73.445233
 30
0.000000
 42
-0.031563
  0
VERTEX
  8
1_ANYTOOL_1MMDEEP_LABELS_S
 10
465.301582
 20
73.569021
 30
0.000000
 42
-0.044242
  0
VERTEX
  8
1_ANYTOOL_1MMDEEP_LABELS_S
 10
463.387383
 20
73.986304
 30
0.000000
 42
-0.045132
  0
VERTEX
  8
1_ANYTOOL_1MMDEEP_LABELS_S
 10
461.784156
 20
74.651444
 30
0.000000
 42
-0.051052
  0
VERTEX
  8
1_ANYTOOL_1MMDEEP_LABELS_S
 10
460.339169
 20
75.609519
 30
0.000000
 42
-0.053345
  0
VERTEX
  8
1_ANYTOOL_1MMDEEP_LABELS_S
 10
459.204432
 20
76.764146
 30
0.000000
 42
-0.061088
  0
VERTEX
  8
1_ANYTOOL_1MMDEEP_LABELS_S
 10
458.362383
 20
78.143447
 30
0.000000
 42
-0.060442
  0
VERTEX
  8
1_ANYTOOL_1MMDEEP_LABELS_S
 10
457.858436
 20
79.742310
 30
0.000000
 42
-0.046182
  0
VERTEX
  8
1_ANYTOOL_1MMDEEP_LABELS_S
 10
457.703454
 20
81.416661
 30
0.000000
 42
-0.046814
  0
VERTEX
  8
1_ANYTOOL_1MMDEEP_LABELS_S
 10
457.859536
 20
83.080060
 30
0.000000
 42
-0.059809
  0
VERTEX
  8
1_ANYTOOL_1MMDEEP_LABELS_S
 10
458.362383
 20
84.668447
 30
0.000000
 42
-0.060247
  0
VERTEX
  8
1_ANYTOOL_1MMDEEP_LABELS_S
 10
459.206256
 20
86.055960
 30
0.000000
 42
-0.051770
  0
VERTEX
  8
1_ANYTOOL_1MMDEEP_LABELS_S
 10
460.339169
 20
87.223804
 30
0.000000
 42
-0.051282
  0
VERTEX
  8
1_ANYTOOL_1MMDEEP_LABELS_S
 10
461.781842
 20
88.199520
 30
0.000000
 42
-0.045906
  0
VERTEX
  8
1_ANYTOOL_1MMDEEP_LABELS_S
 10
463.387383
 20
88.879161
 30
0.000000
 42
-0.044997
  0
VERTEX
  8
1_ANYTOOL_1MMDEEP_LABELS_S
 10
465.300734
 20
89.304531
 30
0.000000
 42
-0.032218
  0
SEQEND
  8
1_ANYTOOL_1MMDEEP_LABELS_S
  0
POLYLINE
  8
1_ANYTOOL_1MMDEEP_LABELS_S
 66
1
 10
0.000000
 20
0.000000
 30
0.000000
 70
1
  0
VERTEX
  8
1_ANYTOOL_1MMDEEP_LABELS_S
 10
467.389169
 20
103.445233
 30
0.000000
 42
-0.031422
  0
VERTEX
  8
1_ANYTOOL_1MMDEEP_LABELS_S
 10
468.948061
 20
103.347168
 30
0.000000
 42
-0.040430
  0
VERTEX
  8
1_ANYTOOL_1MMDEEP_LABELS_S
 10
470.474883
 20
103.027376
 30
0.000000
 42
-0.040915
  0
VERTEX
  8
1_ANYTOOL_1MMDEEP_LABELS_S
 10
471.814023
 20
102.509410
 30
0.000000
 42
-0.043686
  0
VERTEX
  8
1_ANYTOOL_1MMDEEP_LABELS_S
 10
473.046312
 20
101.773804
 30
0.000000
 42
-0.063742
  0
VERTEX
  8
1_ANYTOOL_1MMDEEP_LABELS_S
 10
474.052250
 20
100.831405
 30
0.000000
 42
-0.066270
  0
VERTEX
  8
1_ANYTOOL_1MMDEEP_LABELS_S
 10
474.782026
 20
99.663090
 30
0.000000
 42
-0.064120
  0
VERTEX
  8
1_ANYTOOL_1MMDEEP_LABELS_S
 10
475.230418
 20
98.202858
 30
0.000000
 42
-0.042492
  0
VERTEX
  8
1_ANYTOOL_1MMDEEP_LABELS_S
 10
475.360597
 20
96.673804
 30
0.000000
 42
-0.044610
  0
VERTEX
  8
1_ANYTOOL_1MMDEEP_LABELS_S
 10
475.215280
 20
95.048299
 30
0.000000
 42
-0.066622
  0
VERTEX
  8
1_ANYTOOL_1MMDEEP_LABELS_S
 10
474.717740
 20
93.502376
 30
0.000000
 42
-0.068664
  0
VERTEX
  8
1_ANYTOOL_1MMDEEP_LABELS_S
 10
473.901795
 20
92.261132
 30
0.000000
 42
-0.063259
  0
VERTEX
  8
1_ANYTOOL_1MMDEEP_LABELS_S
 10
472.789169
 20
91.273804
 30
0.000000
 42
-0.036959
  0
VERTEX
  8
1_ANYTOOL_1MMDEEP_LABELS_S
 10
471.473135
 20
90.510533
 30
0.000000
 42
-0.039228
  0
VERTEX
  8
1_ANYTOOL_1MMDEEP_LABELS_S
 10
470.057026
 20
89.955947
 30
0.000000
 42
-0.039137
  0
VERTEX
  8
1_ANYTOOL_1MMDEEP_LABELS_S
 10
468.546973
 20
89.623630
 30
0.000000
 42
-0.034609
  0
VERTEX
  8
1_ANYTOOL_1MMDEEP_LABELS_S
 10
467.003454
 20
89.516661
 30
0.000000
 42
-0.069668
  0
VERTEX
  8
1_ANYTOOL_1MMDEEP_LABELS_S
 10
464.048800
 20
89.930361
 30
0.000000
 42
-0.070768
  0
VERTEX
  8
1_ANYTOOL_1MMDEEP_LABELS_S
 10
461.324883
 20
91.145233
 30
0.000000
 42
-0.066313
  0
VERTEX
  8
1_ANYTOOL_1MMDEEP_LABELS_S
 10
460.203475
 20
92.076929
 30
0.000000
 42
-0.072121
  0
VERTEX
  8
1_ANYTOOL_1MMDEEP_LABELS_S
 10
459.380240
 20
93.277376
 30
0.000000
 42
-0.069559
  0
VERTEX
  8
1_ANYTOOL_1MMDEEP_LABELS_S
 10
458.876898
 20
94.805324
 30
0.000000
 42
-0.044863
  0
VERTEX
  8
1_ANYTOOL_1MMDEEP_LABELS_S
 10
458.732026
 20
96.416661
 30
0.000000
 42
-0.045769
  0
VERTEX
  8
1_ANYTOOL_1MMDEEP_LABELS_S
 10
458.880621
 20
98.036576
 30
0.000000
 42
-0.069077
  0
VERTEX
  8
1_ANYTOOL_1MMDEEP_LABELS_S
 10
459.390954
 20
99.572019
 30
0.000000
 42
-0.071249
  0
VERTEX
  8
1_ANYTOOL_1MMDEEP_LABELS_S
 10
460.230022
 20
100.795655
 30
0.000000
 42
-0.064222
  0
VERTEX
  8
1_ANYTOOL_1MMDEEP_LABELS_S
 10
461.367740
 20
101.752376
 30
0.000000
 42
-0.077102
  0
VERTEX
  8
1_ANYTOOL_1MMDEEP_LABELS_S
 10
464.251883
 20
103.030083
 30
0.000000
 42
-0.065877
  0
SEQEND
  8
1_ANYTOOL_1MMDEEP_LABELS_S
  0
LINE
  8
1_ANYTOOL_1MMDEEP_LABELS_S
 10
453.203454
 20
87.330947
 30
0.000000
 11
444.417740
 21
87.245233
 31
0.000000
  0
POLYLINE
  8
1_ANYTOOL_1MMDEEP_LABELS_S
 66
1
 10
0.000000
 20
0.000000
 30
0.000000
 70
0
  0
VERTEX
  8
1_ANYTOOL_1MMDEEP_LABELS_S
 10
439.489169
 20
73.488090
 30
0.000000
  0
VERTEX
  8
1_ANYTOOL_1MMDEEP_LABELS_S
 10
421.189169
 20
73.530947
 30
0.000000
 42
-0.034491
  0
VERTEX
  8
1_ANYTOOL_1MMDEEP_LABELS_S
 10
421.851947
 20
75.278279
 30
0.000000
 42
-0.037732
  0
VERTEX
  8
1_ANYTOOL_1MMDEEP_LABELS_S
 10
422.758812
 20
76.911304
 30
0.000000
 42
-0.037744
  0
VERTEX
  8
1_ANYTOOL_1MMDEEP_LABELS_S
 10
423.898106
 20
78.385940
 30
0.000000
 42
-0.034820
  0
VERTEX
  8
1_ANYTOOL_1MMDEEP_LABELS_S
 10
425.239169
 20
79.680947
 30
0.000000
 42
-0.008590
  0
VERTEX
  8
1_ANYTOOL_1MMDEEP_LABELS_S
 10
428.198394
 20
82.079530
 30
0.000000
 42
-0.008791
  0
VERTEX
  8
1_ANYTOOL_1MMDEEP_LABELS_S
 10
431.239169
 20
84.373804
 30
0.000000
 42
0.020588
  0
VERTEX
  8
1_ANYTOOL_1MMDEEP_LABELS_S
 10
434.058457
 20
86.607247
 30
0.000000
 42
0.025206
  0
VERTEX
  8
1_ANYTOOL_1MMDEEP_LABELS_S
 10
436.660597
 20
89.088090
 30
0.000000
 42
0.046908
  0
VERTEX
  8
1_ANYTOOL_1MMDEEP_LABELS_S
 10
437.681192
 20
90.389332
 30
0.000000
 42
0.051091
  0
VERTEX
  8
1_ANYTOOL_1MMDEEP_LABELS_S
 10
438.428454
 20
91.863090
 30
0.000000
 42
0.050722
  0
VERTEX
  8
1_ANYTOOL_1MMDEEP_LABELS_S
 10
438.877187
 20
93.511265
 30
0.000000
 42
0.041139
  0
VERTEX
  8
1_ANYTOOL_1MMDEEP_LABELS_S
 10
439.017740
 20
95.216661
 30
0.000000
 42
0.039396
  0
VERTEX
  8
1_ANYTOOL_1MMDEEP_LABELS_S
 10
438.875095
 20
97.024247
 30
0.000000
 42
0.058519
  0
VERTEX
  8
1_ANYTOOL_1MMDEEP_LABELS_S
 10
438.385597
 20
98.763090
 30
0.000000
 42
0.060358
  0
VERTEX
  8
1_ANYTOOL_1MMDEEP_LABELS_S
 10
437.595040
 20
100.170206
 30
0.000000
 42
0.061397
  0
VERTEX
  8
1_ANYTOOL_1MMDEEP_LABELS_S
 10
436.489169
 20
101.345233
 30
0.000000
 42
0.048006
  0
VERTEX
  8
1_ANYTOOL_1MMDEEP_LABELS_S
 10
435.133212
 20
102.267192
 30
0.000000
 42
0.045901
  0
VERTEX
  8
1_ANYTOOL_1MMDEEP_LABELS_S
 10
433.628454
 20
102.920233
 30
0.000000
 42
0.045216
  0
VERTEX
  8
1_ANYTOOL_1MMDEEP_LABELS_S
 10
431.888393
 20
103.322792
 30
0.000000
 42
0.034258
  0
VERTEX
  8
1_ANYTOOL_1MMDEEP_LABELS_S
 10
430.103454
 20
103.445233
 30
0.000000
 42
0.055622
  0
VERTEX
  8
1_ANYTOOL_1MMDEEP_LABELS_S
 10
427.468884
 20
103.151246
 30
0.000000
 42
0.079896
  0
VERTEX
  8
1_ANYTOOL_1MMDEEP_LABELS_S
 10
425.024883
 20
102.170233
 30
0.000000
 42
0.080617
  0
VERTEX
  8
1_ANYTOOL_1MMDEEP_LABELS_S
 10
423.055496
 20
100.504533
 30
0.000000
 42
0.060287
  0
VERTEX
  8
1_ANYTOOL_1MMDEEP_LABELS_S
 10
421.617740
 20
98.345233
 30
0.000000
  0
SEQEND
  8
1_ANYTOOL_1MMDEEP_LABELS_S
  0
LINE
  8
1_ANYTOOL_1MMDEEP_LABELS_S
 10
393.289169
 20
82.102376
 30
0.000000
 11
415.060597
 21
82.102376
 31
0.000000
  0
POLYLINE
  8
1_ANYTOOL_1MMDEEP_LABELS_S
 66
1
 10
0.000000
 20
0.000000
 30
0.000000
 70
0
  0
VERTEX
  8
1_ANYTOOL_1MMDEEP_LABELS_S
 10
409.274883
 20
73.445233
 30
0.000000
  0
VERTEX
  8
1_ANYTOOL_1MMDEEP_LABELS_S
 10
409.317740
 20
103.488090
 30
0.000000
  0
VERTEX
  8
1_ANYTOOL_1MMDEEP_LABELS_S
 10
393.289169
 20
82.102376
 30
0.000000
  0
SEQEND
  8
1_ANYTOOL_1MMDEEP_LABELS_S
  0
LINE
  8
1_ANYTOOL_1MMDEEP_LABELS_S
 10
389.003454
 20
87.330947
 30
0.000000
 11
380.217740
 21
87.245233
 31
0.000000
  0
POLYLINE
  8
1_ANYTOOL_1MMDEEP_LABELS_S
 66
1
 10
0.000000
 20
0.000000
 30
0.000000
 70
0
  0
VERTEX
  8
1_ANYTOOL_1MMDEEP_LABELS_S
 10
376.189169
 20
98.859519
 30
0.000000
 42
0.071867
  0
VERTEX
  8
1_ANYTOOL_1MMDEEP_LABELS_S
 10
375.996055
 20
100.196125
 30
0.000000
 42
0.100684
  0
VERTEX
  8
1_ANYTOOL_1MMDEEP_LABELS_S
 10
375.369526
 20
101.377376
 30
0.000000
 42
0.047558
  0
VERTEX
  8
1_ANYTOOL_1MMDEEP_LABELS_S
 10
374.894972
 20
101.853826
 30
0.000000
 42
0.038563
  0
VERTEX
  8
1_ANYTOOL_1MMDEEP_LABELS_S
 10
374.344972
 20
102.242554
 30
0.000000
 42
0.037928
  0
VERTEX
  8
1_ANYTOOL_1MMDEEP_LABELS_S
 10
373.647785
 20
102.590022
 30
0.000000
 42
0.026634
  0
VERTEX
  8
1_ANYTOOL_1MMDEEP_LABELS_S
 10
372.910597
 20
102.845233
 30
0.000000
 42
0.028461
  0
VERTEX
  8
1_ANYTOOL_1MMDEEP_LABELS_S
 10
369.887264
 20
103.531216
 30
0.000000
 42
0.041577
  0
VERTEX
  8
1_ANYTOOL_1MMDEEP_LABELS_S
 10
366.803454
 20
103.788090
 30
0.000000
 42
0.036938
  0
VERTEX
  8
1_ANYTOOL_1MMDEEP_LABELS_S
 10
365.301095
 20
103.676950
 30
0.000000
 42
0.041531
  0
VERTEX
  8
1_ANYTOOL_1MMDEEP_LABELS_S
 10
363.835597
 20
103.332733
 30
0.000000
 42
0.041583
  0
VERTEX
  8
1_ANYTOOL_1MMDEEP_LABELS_S
 10
362.458220
 20
102.755524
 30
0.000000
 42
0.038125
  0
VERTEX
  8
1_ANYTOOL_1MMDEEP_LABELS_S
 10
361.189169
 20
101.966661
 30
0.000000
 42
0.057611
  0
VERTEX
  8
1_ANYTOOL_1MMDEEP_LABELS_S
 10
360.119016
 20
100.974757
 30
0.000000
 42
0.065808
  0
VERTEX
  8
1_ANYTOOL_1MMDEEP_LABELS_S
 10
359.324883
 20
99.754161
 30
0.000000
 42
0.064690
  0
VERTEX
  8
1_ANYTOOL_1MMDEEP_LABELS_S
 10
358.847387
 20
98.294607
 30
0.000000
 42
0.046778
  0
VERTEX
  8
1_ANYTOOL_1MMDEEP_LABELS_S
 10
358.703454
 20
96.759519
 30
0.000000
 42
0.052235
  0
VERTEX
  8
1_ANYTOOL_1MMDEEP_LABELS_S
 10
358.865810
 20
95.209676
 30
0.000000
 42
0.075448
  0
VERTEX
  8
1_ANYTOOL_1MMDEEP_LABELS_S
 10
359.410597
 20
93.759519
 30
0.000000
 42
0.076671
  0
VERTEX
  8
1_ANYTOOL_1MMDEEP_LABELS_S
 10
360.326689
 20
92.586466
 30
0.000000
 42
0.061023
  0
VERTEX
  8
1_ANYTOOL_1MMDEEP_LABELS_S
 10
361.532026
 20
91.702376
 30
0.000000
 42
0.021951
  0
VERTEX
  8
1_ANYTOOL_1MMDEEP_LABELS_S
 10
364.560880
 20
90.175030
 30
0.000000
 42
0.018213
  0
VERTEX
  8
1_ANYTOOL_1MMDEEP_LABELS_S
 10
367.703454
 20
88.895233
 30
0.000000
 42
-0.024050
  0
VERTEX
  8
1_ANYTOOL_1MMDEEP_LABELS_S
 10
370.804939
 20
87.589771
 30
0.000000
 42
-0.029810
  0
VERTEX
  8
1_ANYTOOL_1MMDEEP_LABELS_S
 10
373.746312
 20
85.959519
 30
0.000000
 42
-0.068439
  0
VERTEX
  8
1_ANYTOOL_1MMDEEP_LABELS_S
 10
374.887613
 20
84.993588
 30
0.000000
 42
-0.079282
  0
VERTEX
  8
1_ANYTOOL_1MMDEEP_LABELS_S
 10
375.696312
 20
83.741661
 30
0.000000
 42
-0.076308
  0
VERTEX
  8
1_ANYTOOL_1MMDEEP_LABELS_S
 10
376.121311
 20
82.162979
 30
0.000000
 42
-0.047772
  0
VERTEX
  8
1_ANYTOOL_1MMDEEP_LABELS_S
 10
376.146312
 20
80.516661
 30
0.000000
 42
-0.046243
  0
VERTEX
  8
1_ANYTOOL_1MMDEEP_LABELS_S
 10
375.853077
 20
78.835702
 30
0.000000
 42
-0.063590
  0
VERTEX
  8
1_ANYTOOL_1MMDEEP_LABELS_S
 10
375.203454
 20
77.264876
 30
0.000000
 42
-0.064671
  0
VERTEX
  8
1_ANYTOOL_1MMDEEP_LABELS_S
 10
374.230631
 20
75.980687
 30
0.000000
 42
-0.057073
  0
VERTEX
  8
1_ANYTOOL_1MMDEEP_LABELS_S
 10
372.974883
 20
74.966661
 30
0.000000
 42
-0.067522
  0
VERTEX
  8
1_ANYTOOL_1MMDEEP_LABELS_S
 10
370.006575
 20
73.603751
 30
0.000000
 42
-0.070793
  0
VERTEX
  8
1_ANYTOOL_1MMDEEP_LABELS_S
 10
366.782026
 20
73.102376
 30
0.000000
 42
-0.064027
  0
VERTEX
  8
1_ANYTOOL_1MMDEEP_LABELS_S
 10
363.643011
 20
73.464891
 30
0.000000
 42
-0.070447
  0
VERTEX
  8
1_ANYTOOL_1MMDEEP_LABELS_S
 10
360.717740
 20
74.645233
 30
0.000000
 42
-0.054374
  0
VERTEX
  8
1_ANYTOOL_1MMDEEP_LABELS_S
 10
359.559323
 20
75.494866
 30
0.000000
 42
-0.074742
  0
VERTEX
  8
1_ANYTOOL_1MMDEEP_LABELS_S
 10
358.660597
 20
76.605947
 30
0.000000
 42
-0.075199
  0
VERTEX
  8
1_ANYTOOL_1MMDEEP_LABELS_S
 10
358.137590
 20
77.912326
 30
0.000000
 42
-0.057737
  0
VERTEX
  8
1_ANYTOOL_1MMDEEP_LABELS_S
 10
357.974883
 20
79.316661
 30
0.000000
  0
SEQEND
  8
1_ANYTOOL_1MMDEEP_LABELS_S
  0
LINE
  8
1_ANYTOOL_1MMDEEP_LABELS_S
 10
353.946312
 20
87.330947
 30
0.000000
 11
345.160597
 21
87.245233
 31
0.000000
  0
POLYLINE
  8
1_ANYTOOL_1MMDEEP_LABELS_S
 66
1
 10
0.000000
 20
0.000000
 30
0.000000
 70
0
  0
VERTEX
  8
1_ANYTOOL_1MMDEEP_LABELS_S
 10
331.060597
 20
87.245233
 30
0.000000
  0
VERTEX
  8
1_ANYTOOL_1MMDEEP_LABELS_S
 10
340.832026
 20
87.202376
 30
0.000000
 42
-0.031732
  0
VERTEX
  8
1_ANYTOOL_1MMDEEP_LABELS_S
 10
340.563915
 20
84.194974
 30
0.000000
 42
-0.048764
  0
VERTEX
  8
1_ANYTOOL_1MMDEEP_LABELS_S
 10
339.819526
 20
81.277376
 30
0.000000
 42
-0.050291
  0
VERTEX
  8
1_ANYTOOL_1MMDEEP_LABELS_S
 10
338.709813
 20
78.966868
 30
0.000000
 42
-0.060119
  0
VERTEX
  8
1_ANYTOOL_1MMDEEP_LABELS_S
 10
337.124883
 20
76.959519
 30
0.000000
 42
-0.036578
  0
VERTEX
  8
1_ANYTOOL_1MMDEEP_LABELS_S
 10
335.392863
 20
75.473102
 30
0.000000
 42
-0.050793
  0
VERTEX
  8
1_ANYTOOL_1MMDEEP_LABELS_S
 10
333.433812
 20
74.313090
 30
0.000000
 42
-0.051881
  0
VERTEX
  8
1_ANYTOOL_1MMDEEP_LABELS_S
 10
331.480795
 20
73.645345
 30
0.000000
 42
-0.053919
  0
VERTEX
  8
1_ANYTOOL_1MMDEEP_LABELS_S
 10
329.432026
 20
73.402376
 30
0.000000
 42
-0.055881
  0
VERTEX
  8
1_ANYTOOL_1MMDEEP_LABELS_S
 10
327.396878
 20
73.609320
 30
0.000000
 42
-0.055271
  0
VERTEX
  8
1_ANYTOOL_1MMDEEP_LABELS_S
 10
325.457026
 20
74.259519
 30
0.000000
 42
-0.054030
  0
VERTEX
  8
1_ANYTOOL_1MMDEEP_LABELS_S
 10
323.531050
 20
75.418712
 30
0.000000
 42
-0.038531
  0
VERTEX
  8
1_ANYTOOL_1MMDEEP_LABELS_S
 10
321.846312
 20
76.916661
 30
0.000000
 42
-0.067281
  0
VERTEX
  8
1_ANYTOOL_1MMDEEP_LABELS_S
 10
320.298598
 20
79.027676
 30
0.000000
 42
-0.049165
  0
VERTEX
  8
1_ANYTOOL_1MMDEEP_LABELS_S
 10
319.274883
 20
81.448804
 30
0.000000
 42
-0.047412
  0
VERTEX
  8
1_ANYTOOL_1MMDEEP_LABELS_S
 10
318.601956
 20
84.652723
 30
0.000000
 42
-0.028075
  0
VERTEX
  8
1_ANYTOOL_1MMDEEP_LABELS_S
 10
318.417740
 20
87.930947
 30
0.000000
 42
-0.031090
  0
VERTEX
  8
1_ANYTOOL_1MMDEEP_LABELS_S
 10
318.585267
 20
90.622527
 30
0.000000
 42
-0.031496
  0
VERTEX
  8
1_ANYTOOL_1MMDEEP_LABELS_S
 10
319.087383
 20
93.272019
 30
0.000000
 42
-0.031425
  0
VERTEX
  8
1_ANYTOOL_1MMDEEP_LABELS_S
 10
319.938256
 20
95.900263
 30
0.000000
 42
-0.028240
  0
VERTEX
  8
1_ANYTOOL_1MMDEEP_LABELS_S
 10
321.096312
 20
98.409519
 30
0.000000
 42
-0.064555
  0
VERTEX
  8
1_ANYTOOL_1MMDEEP_LABELS_S
 10
322.625115
 20
100.561043
 30
0.000000
 42
-0.078906
  0
VERTEX
  8
1_ANYTOOL_1MMDEEP_LABELS_S
 10
324.690954
 20
102.186304
 30
0.000000
 42
-0.076878
  0
VERTEX
  8
1_ANYTOOL_1MMDEEP_LABELS_S
 10
327.314556
 20
103.160854
 30
0.000000
 42
-0.050594
  0
VERTEX
  8
1_ANYTOOL_1MMDEEP_LABELS_S
 10
330.117740
 20
103.445233
 30
0.000000
 42
-0.039946
  0
VERTEX
  8
1_ANYTOOL_1MMDEEP_LABELS_S
 10
331.777301
 20
103.312436
 30
0.000000
 42
-0.052714
  0
VERTEX
  8
1_ANYTOOL_1MMDEEP_LABELS_S
 10
333.380240
 20
102.877376
 30
0.000000
 42
-0.053511
  0
VERTEX
  8
1_ANYTOOL_1MMDEEP_LABELS_S
 10
334.763437
 20
102.162041
 30
0.000000
 42
-0.051530
  0
VERTEX
  8
1_ANYTOOL_1MMDEEP_LABELS_S
 10
335.967740
 20
101.173804
 30
0.000000
 42
-0.040443
  0
VERTEX
  8
1_ANYTOOL_1MMDEEP_LABELS_S
 10
338.007964
 20
98.750663
 30
0.000000
 42
-0.040350
  0
VERTEX
  8
1_ANYTOOL_1MMDEEP_LABELS_S
 10
339.632026
 20
96.030947
 30
0.000000
  0
SEQEND
  8
1_ANYTOOL_1MMDEEP_LABELS_S
  0
POLYLINE
  8
5_ANYTOOL_HALF_MILL_9MM_IN
 66
1
 10
0.000000
 20
0.000000
 30
0.000000
 70
1
  0
VERTEX
  8
5_ANYTOOL_HALF_MILL_9MM_IN
 10
135.717484
 20
130.000000
 30
0.000000
  0
VERTEX
  8
5_ANYTOOL_HALF_MILL_9MM_IN
 10
135.717484
 20
129.750000
 30
0.000000
 42
1.000000
  0
VERTEX
  8
5_ANYTOOL_HALF_MILL_9MM_IN
 10
178.217484
 20
129.750000
 30
0.000000
  0
VERTEX
  8
5_ANYTOOL_HALF_MILL_9MM_IN
 10
178.217484
 20
136.000000
 30
0.000000
  0
VERTEX
  8
5_ANYTOOL_HALF_MILL_9MM_IN
 10
135.717484
 20
136.000000
 30
0.000000
  0
SEQEND
  8
5_ANYTOOL_HALF_MILL_9MM_IN
  0
POLYLINE
  8
5_ANYTOOL_HALF_MILL_9MM_IN
 66
1
 10
0.000000
 20
0.000000
 30
0.000000
 70
1
  0
VERTEX
  8
5_ANYTOOL_HALF_MILL_9MM_IN
 10
330.623484
 20
130.000000
 30
0.000000
  0
VERTEX
  8
5_ANYTOOL_HALF_MILL_9MM_IN
 10
330.623484
 20
129.750000
 30
0.000000
 42
1.000000
  0
VERTEX
  8
5_ANYTOOL_HALF_MILL_9MM_IN
 10
373.123484
 20
129.750000
 30
0.000000
  0
VERTEX
  8
5_ANYTOOL_HALF_MILL_9MM_IN
 10
373.123484
 20
136.000000
 30
0.000000
  0
VERTEX
  8
5_ANYTOOL_HALF_MILL_9MM_IN
 10
330.623484
 20
136.000000
 30
0.000000
  0
SEQEND
  8
5_ANYTOOL_HALF_MILL_9MM_IN
  0
POLYLINE
  8
4_ANYTOOL_CUTTHROUGH_OUTSI
 66
1
 10
0.000000
 20
0.000000
 30
0.000000
 70
1
  0
VERTEX
  8
4_ANYTOOL_CUTTHROUGH_OUTSI
 10
111.731519
 20
135.832588
 30
0.000000
  0
VERTEX
  8
4_ANYTOOL_CUTTHROUGH_OUTSI
 10
128.630632
 20
184.116195
 30
0.000000
 42
0.061178
  0
VERTEX
  8
4_ANYTOOL_CUTTHROUGH_OUTSI
 10
128.862046
 20
185.500000
 30
0.000000
  0
VERTEX
  8
4_ANYTOOL_CUTTHROUGH_OUTSI
 10
90.830751
 20
185.500000
 30
0.000000
  0
VERTEX
  8
4_ANYTOOL_CUTTHROUGH_OUTSI
 10
90.830751
 20
161.750000
 30
0.000000
 42
-0.414214
  0
VERTEX
  8
4_ANYTOOL_CUTTHROUGH_OUTSI
 10
90.580751
 20
161.500000
 30
0.000000
  0
VERTEX
  8
4_ANYTOOL_CUTTHROUGH_OUTSI
 10
78.580751
 20
161.500000
 30
0.000000
 42
-0.414214
  0
VERTEX
  8
4_ANYTOOL_CUTTHROUGH_OUTSI
 10
78.330751
 20
161.750000
 30
0.000000
  0
VERTEX
  8
4_ANYTOOL_CUTTHROUGH_OUTSI
 10
78.330751
 20
167.500000
 30
0.000000
  0
VERTEX
  8
4_ANYTOOL_CUTTHROUGH_OUTSI
 10
42.830751
 20
167.500000
 30
0.000000
  0
VERTEX
  8
4_ANYTOOL_CUTTHROUGH_OUTSI
 10
42.830751
 20
161.750000
 30
0.000000
 42
-0.414214
  0
VERTEX
  8
4_ANYTOOL_CUTTHROUGH_OUTSI
 10
42.580751
 20
161.500000
 30
0.000000
  0
VERTEX
  8
4_ANYTOOL_CUTTHROUGH_OUTSI
 10
30.580751
 20
161.500000
 30
0.000000
 42
-0.414214
  0
VERTEX
  8
4_ANYTOOL_CUTTHROUGH_OUTSI
 10
30.330751
 20
161.750000
 30
0.000000
  0
VERTEX
  8
4_ANYTOOL_CUTTHROUGH_OUTSI
 10
30.330751
 20
185.500000
 30
0.000000
  0
VERTEX
  8
4_ANYTOOL_CUTTHROUGH_OUTSI
 10
0.000000
 20
185.500000
 30
0.000000
  0
VERTEX
  8
4_ANYTOOL_CUTTHROUGH_OUTSI
 10
0.000000
 20
112.940625
 30
0.000000
  0
VERTEX
  8
4_ANYTOOL_CUTTHROUGH_OUTSI
 10
31.756265
 20
112.940625
 30
0.000000
 42
-0.414366
  0
VERTEX
  8
4_ANYTOOL_CUTTHROUGH_OUTSI
 10
32.006265
 20
112.690495
 30
0.000000
  0
VERTEX
  8
4_ANYTOOL_CUTTHROUGH_OUTSI
 10
32.000000
 20
100.690475
 30
0.000000
 42
-0.414061
  0
VERTEX
  8
4_ANYTOOL_CUTTHROUGH_OUTSI
 10
31.750000
 20
100.440605
 30
0.000000
  0
VERTEX
  8
4_ANYTOOL_CUTTHROUGH_OUTSI
 10
26.006265
 20
100.440605
 30
0.000000
  0
VERTEX
  8
4_ANYTOOL_CUTTHROUGH_OUTSI
 10
26.006265
 20
84.940605
 30
0.000000
  0
VERTEX
  8
4_ANYTOOL_CUTTHROUGH_OUTSI
 10
31.750000
 20
84.940605
 30
0.000000
 42
-0.414061
  0
VERTEX
  8
4_ANYTOOL_CUTTHROUGH_OUTSI
 10
32.000000
 20
84.690736
 30
0.000000
  0
VERTEX
  8
4_ANYTOOL_CUTTHROUGH_OUTSI
 10
32.006265
 20
72.690716
 30
0.000000
 42
-0.414366
  0
VERTEX
  8
4_ANYTOOL_CUTTHROUGH_OUTSI
 10
31.756265
 20
72.440586
 30
0.000000
  0
VERTEX
  8
4_ANYTOOL_CUTTHROUGH_OUTSI
 10
0.000000
 20
72.440586
 30
0.000000
  0
VERTEX
  8
4_ANYTOOL_CUTTHROUGH_OUTSI
 10
0.000000
 20
0.000000
 30
0.000000
  0
VERTEX
  8
4_ANYTOOL_CUTTHROUGH_OUTSI
 10
54.500000
 20
0.000000
 30
0.000000
  0
VERTEX
  8
4_ANYTOOL_CUTTHROUGH_OUTSI
 10
54.500000
 20
23.750000
 30
0.000000
 42
-0.414214
  0
VERTEX
  8
4_ANYTOOL_CUTTHROUGH_OUTSI
 10
54.750000
 20
24.000000
 30
0.000000
  0
VERTEX
  8
4_ANYTOOL_CUTTHROUGH_OUTSI
 10
66.750000
 20
24.000000
 30
0.000000
 42
-0.414214
  0
VERTEX
  8
4_ANYTOOL_CUTTHROUGH_OUTSI
 10
67.000000
 20
23.750000
 30
0.000000
  0
VERTEX
  8
4_ANYTOOL_CUTTHROUGH_OUTSI
 10
67.000000
 20
18.000000
 30
0.000000
  0
VERTEX
  8
4_ANYTOOL_CUTTHROUGH_OUTSI
 10
248.736819
 20
18.000000
 30
0.000000
  0
VERTEX
  8
4_ANYTOOL_CUTTHROUGH_OUTSI
 10
248.736819
 20
23.750000
 30
0.000000
 42
-0.414214
  0
VERTEX
  8
4_ANYTOOL_CUTTHROUGH_OUTSI
 10
248.986819
 20
24.000000
 30
0.000000
  0
VERTEX
  8
4_ANYTOOL_CUTTHROUGH_OUTSI
 10
260.986819
 20
24.000000
 30
0.000000
 42
-0.414214
  0
VERTEX
  8
4_ANYTOOL_CUTTHROUGH_OUTSI
 10
261.236819
 20
23.750000
 30
0.000000
  0
VERTEX
  8
4_ANYTOOL_CUTTHROUGH_OUTSI
 10
261.236819
 20
0.000000
 30
0.000000
  0
VERTEX
  8
4_ANYTOOL_CUTTHROUGH_OUTSI
 10
320.736819
 20
0.000000
 30
0.000000
  0
VERTEX
  8
4_ANYTOOL_CUTTHROUGH_OUTSI
 10
320.736819
 20
23.750000
 30
0.000000
 42
-0.414214
  0
VERTEX
  8
4_ANYTOOL_CUTTHROUGH_OUTSI
 10
320.986819
 20
24.000000
 30
0.000000
  0
VERTEX
  8
4_ANYTOOL_CUTTHROUGH_OUTSI
 10
332.986819
 20
24.000000
 30
0.000000
 42
-0.414214
  0
VERTEX
  8
4_ANYTOOL_CUTTHROUGH_OUTSI
 10
333.236819
 20
23.750000
 30
0.000000
  0
VERTEX
  8
4_ANYTOOL_CUTTHROUGH_OUTSI
 10
333.236819
 20
18.000000
 30
0.000000
  0
VERTEX
  8
4_ANYTOOL_CUTTHROUGH_OUTSI
 10
443.642819
 20
18.000000
 30
0.000000
  0
VERTEX
  8
4_ANYTOOL_CUTTHROUGH_OUTSI
 10
443.642819
 20
23.750000
 30
0.000000
 42
-0.414214
  0
VERTEX
  8
4_ANYTOOL_CUTTHROUGH_OUTSI
 10
443.892819
 20
24.000000
 30
0.000000
  0
VERTEX
  8
4_ANYTOOL_CUTTHROUGH_OUTSI
 10
455.892819
 20
24.000000
 30
0.000000
 42
-0.414214
  0
VERTEX
  8
4_ANYTOOL_CUTTHROUGH_OUTSI
 10
456.142819
 20
23.750000
 30
0.000000
  0
VERTEX
  8
4_ANYTOOL_CUTTHROUGH_OUTSI
 10
456.142819
 20
0.000000
 30
0.000000
  0
VERTEX
  8
4_ANYTOOL_CUTTHROUGH_OUTSI
 10
515.642819
 20
0.000000
 30
0.000000
  0
VERTEX
  8
4_ANYTOOL_CUTTHROUGH_OUTSI
 10
515.642819
 20
23.750000
 30
0.000000
 42
-0.414214
  0
VERTEX
  8
4_ANYTOOL_CUTTHROUGH_OUTSI
 10
515.892819
 20
24.000000
 30
0.000000
  0
VERTEX
  8
4_ANYTOOL_CUTTHROUGH_OUTSI
 10
527.892819
 20
24.000000
 30
0.000000
 42
-0.414214
  0
VERTEX
  8
4_ANYTOOL_CUTTHROUGH_OUTSI
 10
528.142819
 20
23.750000
 30
0.000000
  0
VERTEX
  8
4_ANYTOOL_CUTTHROUGH_OUTSI
 10
528.142819
 20
18.000000
 30
0.000000
  0
VERTEX
  8
4_ANYTOOL_CUTTHROUGH_OUTSI
 10
709.879638
 20
18.000000
 30
0.000000
  0
VERTEX
  8
4_ANYTOOL_CUTTHROUGH_OUTSI
 10
709.879638
 20
23.750000
 30
0.000000
 42
-0.414214
  0
VERTEX
  8
4_ANYTOOL_CUTTHROUGH_OUTSI
 10
710.129638
 20
24.000000
 30
0.000000
  0
VERTEX
  8
4_ANYTOOL_CUTTHROUGH_OUTSI
 10
722.129638
 20
24.000000
 30
0.000000
 42
-0.414214
  0
VERTEX
  8
4_ANYTOOL_CUTTHROUGH_OUTSI
 10
722.379638
 20
23.750000
 30
0.000000
  0
VERTEX
  8
4_ANYTOOL_CUTTHROUGH_OUTSI
 10
722.379638
 20
0.000000
 30
0.000000
  0
VERTEX
  8
4_ANYTOOL_CUTTHROUGH_OUTSI
 10
806.879616
 20
0.000000
 30
0.000000
  0
VERTEX
  8
4_ANYTOOL_CUTTHROUGH_OUTSI
 10
806.873394
 20
72.440586
 30
0.000000
  0
VERTEX
  8
4_ANYTOOL_CUTTHROUGH_OUTSI
 10
778.123372
 20
72.440586
 30
0.000000
 42
-0.414366
  0
VERTEX
  8
4_ANYTOOL_CUTTHROUGH_OUTSI
 10
777.873372
 20
72.690716
 30
0.000000
  0
VERTEX
  8
4_ANYTOOL_CUTTHROUGH_OUTSI
 10
777.879638
 20
84.690736
 30
0.000000
 42
-0.414061
  0
VERTEX
  8
4_ANYTOOL_CUTTHROUGH_OUTSI
 10
778.129638
 20
84.940605
 30
0.000000
  0
VERTEX
  8
4_ANYTOOL_CUTTHROUGH_OUTSI
 10
783.873372
 20
84.940605
 30
0.000000
  0
VERTEX
  8
4_ANYTOOL_CUTTHROUGH_OUTSI
 10
783.873372
 20
100.440605
 30
0.000000
  0
VERTEX
  8
4_ANYTOOL_CUTTHROUGH_OUTSI
 10
778.129638
 20
100.440605
 30
0.000000
 42
-0.414061
  0
VERTEX
  8
4_ANYTOOL_CUTTHROUGH_OUTSI
 10
777.879638
 20
100.690475
 30
0.000000
  0
VERTEX
  8
4_ANYTOOL_CUTTHROUGH_OUTSI
 10
777.873372
 20
112.690495
 30
0.000000
 42
-0.414366
  0
VERTEX
  8
4_ANYTOOL_CUTTHROUGH_OUTSI
 10
778.123372
 20
112.940625
 30
0.000000
  0
VERTEX
  8
4_ANYTOOL_CUTTHROUGH_OUTSI
 10
806.873394
 20
112.940625
 30
0.000000
  0
VERTEX
  8
4_ANYTOOL_CUTTHROUGH_OUTSI
 10
806.879616
 20
185.500000
 30
0.000000
  0
VERTEX
  8
4_ANYTOOL_CUTTHROUGH_OUTSI
 10
583.783824
 20
185.500000
 30
0.000000
  0
VERTEX
  8
4_ANYTOOL_CUTTHROUGH_OUTSI
 10
583.783824
 20
161.750000
 30
0.000000
 42
-0.414214
  0
VERTEX
  8
4_ANYTOOL_CUTTHROUGH_OUTSI
 10
583.533824
 20
161.500000
 30
0.000000
  0
VERTEX
  8
4_ANYTOOL_CUTTHROUGH_OUTSI
 10
571.533824
 20
161.500000
 30
0.000000
 42
-0.414214
  0
VERTEX
  8
4_ANYTOOL_CUTTHROUGH_OUTSI
 10
571.283824
 20
161.750000
 30
0.000000
  0
VERTEX
  8
4_ANYTOOL_CUTTHROUGH_OUTSI
 10
571.283824
 20
167.500000
 30
0.000000
  0
VERTEX
  8
4_ANYTOOL_CUTTHROUGH_OUTSI
 10
535.783824
 20
167.500000
 30
0.000000
  0
VERTEX
  8
4_ANYTOOL_CUTTHROUGH_OUTSI
 10
535.783824
 20
161.750000
 30
0.000000
 42
-0.414214
  0
VERTEX
  8
4_ANYTOOL_CUTTHROUGH_OUTSI
 10
535.533824
 20
161.500000
 30
0.000000
  0
VERTEX
  8
4_ANYTOOL_CUTTHROUGH_OUTSI
 10
523.533824
 20
161.500000
 30
0.000000
 42
-0.414214
  0
VERTEX
  8
4_ANYTOOL_CUTTHROUGH_OUTSI
 10
523.283824
 20
161.750000
 30
0.000000
  0
VERTEX
  8
4_ANYTOOL_CUTTHROUGH_OUTSI
 10
523.283824
 20
185.500000
 30
0.000000
  0
VERTEX
  8
4_ANYTOOL_CUTTHROUGH_OUTSI
 10
379.978921
 20
185.500000
 30
0.000000
 42
0.061784
  0
VERTEX
  8
4_ANYTOOL_CUTTHROUGH_OUTSI
 10
380.213915
 20
184.105130
 30
0.000000
  0
VERTEX
  8
4_ANYTOOL_CUTTHROUGH_OUTSI
 10
397.109448
 20
135.832588
 30
0.000000
 42
-0.084368
  0
VERTEX
  8
4_ANYTOOL_CUTTHROUGH_OUTSI
 10
397.123484
 20
135.750000
 30
0.000000
 42
-0.414214
  0
VERTEX
  8
4_ANYTOOL_CUTTHROUGH_OUTSI
 10
390.873484
 20
129.500000
 30
0.000000
  0
VERTEX
  8
4_ANYTOOL_CUTTHROUGH_OUTSI
 10
312.873484
 20
129.500000
 30
0.000000
 42
-0.414214
  0
VERTEX
  8
4_ANYTOOL_CUTTHROUGH_OUTSI
 10
306.623484
 20
135.750000
 30
0.000000
 42
-0.084368
  0
VERTEX
  8
4_ANYTOOL_CUTTHROUGH_OUTSI
 10
306.637519
 20
135.832588
 30
0.000000
  0
VERTEX
  8
4_ANYTOOL_CUTTHROUGH_OUTSI
 10
323.536632
 20
184.116195
 30
0.000000
 42
0.061178
  0
VERTEX
  8
4_ANYTOOL_CUTTHROUGH_OUTSI
 10
323.768046
 20
185.500000
 30
0.000000
  0
VERTEX
  8
4_ANYTOOL_CUTTHROUGH_OUTSI
 10
283.783484
 20
185.500000
 30
0.000000
  0
VERTEX
  8
4_ANYTOOL_CUTTHROUGH_OUTSI
 10
283.783484
 20
161.750000
 30
0.000000
 42
-0.414214
  0
VERTEX
  8
4_ANYTOOL_CUTTHROUGH_OUTSI
 10
283.533484
 20
161.500000
 30
0.000000
  0
VERTEX
  8
4_ANYTOOL_CUTTHROUGH_OUTSI
 10
271.533484
 20
161.500000
 30
0.000000
 42
-0.414214
  0
VERTEX
  8
4_ANYTOOL_CUTTHROUGH_OUTSI
 10
271.283484
 20
161.750000
 30
0.000000
  0
VERTEX
  8
4_ANYTOOL_CUTTHROUGH_OUTSI
 10
271.283484
 20
167.500000
 30
0.000000
  0
VERTEX
  8
4_ANYTOOL_CUTTHROUGH_OUTSI
 10
235.783484
 20
167.500000
 30
0.000000
  0
VERTEX
  8
4_ANYTOOL_CUTTHROUGH_OUTSI
 10
235.783484
 20
161.750000
 30
0.000000
 42
-0.414214
  0
VERTEX
  8
4_ANYTOOL_CUTTHROUGH_OUTSI
 10
235.533484
 20
161.500000
 30
0.000000
  0
VERTEX
  8
4_ANYTOOL_CUTTHROUGH_OUTSI
 10
223.533484
 20
161.500000
 30
0.000000
 42
-0.414214
  0
VERTEX
  8
4_ANYTOOL_CUTTHROUGH_OUTSI
 10
223.283484
 20
161.750000
 30
0.000000
  0
VERTEX
  8
4_ANYTOOL_CUTTHROUGH_OUTSI
 10
223.283484
 20
185.500000
 30
0.000000
  0
VERTEX
  8
4_ANYTOOL_CUTTHROUGH_OUTSI
 10
185.072921
 20
185.500000
 30
0.000000
 42
0.061784
  0
VERTEX
  8
4_ANYTOOL_CUTTHROUGH_OUTSI
 10
185.307915
 20
184.105130
 30
0.000000
  0
VERTEX
  8
4_ANYTOOL_CUTTHROUGH_OUTSI
 10
202.203448
 20
135.832588
 30
0.000000
 42
-0.084368
  0
VERTEX
  8
4_ANYTOOL_CUTTHROUGH_OUTSI
 10
202.217484
 20
135.750000
 30
0.000000
 42
-0.414214
  0
VERTEX
  8
4_ANYTOOL_CUTTHROUGH_OUTSI
 10
195.967484
 20
129.500000
 30
0.000000
  0
VERTEX
  8
4_ANYTOOL_CUTTHROUGH_OUTSI
 10
117.967484
 20
129.500000
 30
0.000000
 42
-0.414214
  0
VERTEX
  8
4_ANYTOOL_CUTTHROUGH_OUTSI
 10
111.717484
 20
135.750000
 30
0.000000
 42
-0.084368
  0
SEQEND
  8
4_ANYTOOL_CUTTHROUGH_OUTSI
  0
ENDSEC
  0
EOF
