  0
SECTION
  2
HEADER
  9
$ACADVER
  1
AC1009
  9
$INSBASE
 10
0.000000
 20
0.000000
 30
0.000000
  9
$EXTMIN
 10
0.000000
 20
0.000000
 30
0.000000
  9
$EXTMAX
 10
1199.499979
 20
289.499983
 30
0.000000
  0
ENDSEC
  0
SECTION
  2
TABLES
  0
TABLE
  2
LTYPE
 70
1
  0
LTYPE
  2
CONTINUOUS
 70
0
  3
Solid line
 72
65
 73
0
 40
0.000000
  0
ENDTAB
  0
TABLE
  2
LAYER
 70
3
  0
LAYER
  2
0
 70
0
 62
7
  6
CONTINUOUS
  0
LAYER
  2
1_ANYTOOL_1MMDEEP_LABELS_S
 70
0
 62
2
  6
CONTINUOUS
  0
LAYER
  2
4_ANYTOOL_CUTTHROUGH_OUTSI
 70
0
 62
5
  6
CONTINUOUS
  0
ENDTAB
  0
ENDSEC
  0
SECTION
  2
ENTITIES
  0
LINE
  8
1_ANYTOOL_1MMDEEP_LABELS_S
 10
695.385921
 20
153.103794
 30
0.000000
 11
680.900207
 21
153.103794
 31
0.000000
  0
POLYLINE
  8
1_ANYTOOL_1MMDEEP_LABELS_S
 66
1
 10
0.000000
 20
0.000000
 30
0.000000
 70
0
  0
VERTEX
  8
1_ANYTOOL_1MMDEEP_LABELS_S
 10
698.557350
 20
167.075223
 30
0.000000
  0
VERTEX
  8
1_ANYTOOL_1MMDEEP_LABELS_S
 10
680.900207
 20
167.075223
 30
0.000000
  0
VERTEX
  8
1_ANYTOOL_1MMDEEP_LABELS_S
 10
680.900207
 20
137.075223
 30
0.000000
  0
SEQEND
  8
1_ANYTOOL_1MMDEEP_LABELS_S
  0
LINE
  8
1_ANYTOOL_1MMDEEP_LABELS_S
 10
677.300207
 20
166.603794
 30
0.000000
 11
660.114493
 21
135.832366
 31
0.000000
  0
LINE
  8
1_ANYTOOL_1MMDEEP_LABELS_S
 10
633.114493
 20
145.732366
 30
0.000000
 11
654.885921
 21
145.732366
 31
0.000000
  0
POLYLINE
  8
1_ANYTOOL_1MMDEEP_LABELS_S
 66
1
 10
0.000000
 20
0.000000
 30
0.000000
 70
0
  0
VERTEX
  8
1_ANYTOOL_1MMDEEP_LABELS_S
 10
649.100207
 20
137.075223
 30
0.000000
  0
VERTEX
  8
1_ANYTOOL_1MMDEEP_LABELS_S
 10
649.143064
 20
167.118080
 30
0.000000
  0
VERTEX
  8
1_ANYTOOL_1MMDEEP_LABELS_S
 10
633.114493
 20
145.732366
 30
0.000000
  0
SEQEND
  8
1_ANYTOOL_1MMDEEP_LABELS_S
  0
LINE
  8
1_ANYTOOL_1MMDEEP_LABELS_S
 10
628.828779
 20
150.960937
 30
0.000000
 11
620.043064
 21
150.875223
 31
0.000000
  0
POLYLINE
  8
1_ANYTOOL_1MMDEEP_LABELS_S
 66
1
 10
0.000000
 20
0.000000
 30
0.000000
 70
0
  0
VERTEX
  8
1_ANYTOOL_1MMDEEP_LABELS_S
 10
590.471636
 20
137.075223
 30
0.000000
  0
VERTEX
  8
1_ANYTOOL_1MMDEEP_LABELS_S
 10
590.471636
 20
167.075223
 30
0.000000
  0
VERTEX
  8
1_ANYTOOL_1MMDEEP_LABELS_S
 10
602.471636
 20
138.703794
 30
0.000000
  0
VERTEX
  8
1_ANYTOOL_1MMDEEP_LABELS_S
 10
614.471636
 20
166.946652
 30
0.000000
  0
VERTEX
  8
1_ANYTOOL_1MMDEEP_LABELS_S
 10
614.471636
 20
137.075223
 30
0.000000
  0
SEQEND
  8
1_ANYTOOL_1MMDEEP_LABELS_S
  0
LINE
  8
1_ANYTOOL_1MMDEEP_LABELS_S
 10
585.328779
 20
150.960937
 30
0.000000
 11
576.543064
 21
150.875223
 31
0.000000
  0
POLYLINE
  8
1_ANYTOOL_1MMDEEP_LABELS_S
 66
1
 10
0.000000
 20
0.000000
 30
0.000000
 70
1
  0
VERTEX
  8
1_ANYTOOL_1MMDEEP_LABELS_S
 10
561.371636
 20
167.418080
 30
0.000000
 42
-0.064784
  0
VERTEX
  8
1_ANYTOOL_1MMDEEP_LABELS_S
 10
564.045591
 20
167.070159
 30
0.000000
 42
-0.088904
  0
VERTEX
  8
1_ANYTOOL_1MMDEEP_LABELS_S
 10
566.471636
 20
165.939509
 30
0.000000
 42
-0.054190
  0
VERTEX
  8
1_ANYTOOL_1MMDEEP_LABELS_S
 10
568.394200
 20
164.247379
 30
0.000000
 42
-0.051179
  0
VERTEX
  8
1_ANYTOOL_1MMDEEP_LABELS_S
 10
569.921636
 20
162.189509
 30
0.000000
 42
-0.041653
  0
VERTEX
  8
1_ANYTOOL_1MMDEEP_LABELS_S
 10
571.103835
 20
159.760736
 30
0.000000
 42
-0.036749
  0
VERTEX
  8
1_ANYTOOL_1MMDEEP_LABELS_S
 10
571.893064
 20
157.175223
 30
0.000000
 42
-0.024892
  0
VERTEX
  8
1_ANYTOOL_1MMDEEP_LABELS_S
 10
572.350844
 20
154.555960
 30
0.000000
 42
-0.030823
  0
VERTEX
  8
1_ANYTOOL_1MMDEEP_LABELS_S
 10
572.514493
 20
151.903794
 30
0.000000
 42
-0.034269
  0
VERTEX
  8
1_ANYTOOL_1MMDEEP_LABELS_S
 10
572.337973
 20
149.331298
 30
0.000000
 42
-0.031918
  0
VERTEX
  8
1_ANYTOOL_1MMDEEP_LABELS_S
 10
571.823421
 20
146.803794
 30
0.000000
 42
-0.031725
  0
VERTEX
  8
1_ANYTOOL_1MMDEEP_LABELS_S
 10
570.935234
 20
144.194398
 30
0.000000
 42
-0.026303
  0
VERTEX
  8
1_ANYTOOL_1MMDEEP_LABELS_S
 10
569.750207
 20
141.703794
 30
0.000000
 42
-0.058719
  0
VERTEX
  8
1_ANYTOOL_1MMDEEP_LABELS_S
 10
568.226427
 20
139.542047
 30
0.000000
 42
-0.077745
  0
VERTEX
  8
1_ANYTOOL_1MMDEEP_LABELS_S
 10
566.187707
 20
137.878794
 30
0.000000
 42
-0.077243
  0
VERTEX
  8
1_ANYTOOL_1MMDEEP_LABELS_S
 10
563.700719
 20
136.899957
 30
0.000000
 42
-0.055252
  0
VERTEX
  8
1_ANYTOOL_1MMDEEP_LABELS_S
 10
561.028779
 20
136.603794
 30
0.000000
 42
-0.054051
  0
VERTEX
  8
1_ANYTOOL_1MMDEEP_LABELS_S
 10
558.274854
 20
136.902374
 30
0.000000
 42
-0.077615
  0
VERTEX
  8
1_ANYTOOL_1MMDEEP_LABELS_S
 10
555.709136
 20
137.900223
 30
0.000000
 42
-0.078558
  0
VERTEX
  8
1_ANYTOOL_1MMDEEP_LABELS_S
 10
553.634062
 20
139.587296
 30
0.000000
 42
-0.060481
  0
VERTEX
  8
1_ANYTOOL_1MMDEEP_LABELS_S
 10
552.093064
 20
141.789509
 30
0.000000
 42
-0.026290
  0
VERTEX
  8
1_ANYTOOL_1MMDEEP_LABELS_S
 10
550.906404
 20
144.328728
 30
0.000000
 42
-0.031299
  0
VERTEX
  8
1_ANYTOOL_1MMDEEP_LABELS_S
 10
550.019850
 20
146.985937
 30
0.000000
 42
-0.031469
  0
VERTEX
  8
1_ANYTOOL_1MMDEEP_LABELS_S
 10
549.504811
 20
149.572753
 30
0.000000
 42
-0.033416
  0
VERTEX
  8
1_ANYTOOL_1MMDEEP_LABELS_S
 10
549.328779
 20
152.203794
 30
0.000000
 42
-0.032847
  0
VERTEX
  8
1_ANYTOOL_1MMDEEP_LABELS_S
 10
549.507456
 20
154.920743
 30
0.000000
 42
-0.035049
  0
VERTEX
  8
1_ANYTOOL_1MMDEEP_LABELS_S
 10
550.051993
 20
157.587723
 30
0.000000
 42
-0.035030
  0
VERTEX
  8
1_ANYTOOL_1MMDEEP_LABELS_S
 10
550.967967
 20
160.164762
 30
0.000000
 42
-0.032231
  0
VERTEX
  8
1_ANYTOOL_1MMDEEP_LABELS_S
 10
552.221636
 20
162.596652
 30
0.000000
 42
-0.062518
  0
VERTEX
  8
1_ANYTOOL_1MMDEEP_LABELS_S
 10
553.843524
 20
164.663746
 30
0.000000
 42
-0.074052
  0
VERTEX
  8
1_ANYTOOL_1MMDEEP_LABELS_S
 10
555.955564
 20
166.212723
 30
0.000000
 42
-0.072322
  0
VERTEX
  8
1_ANYTOOL_1MMDEEP_LABELS_S
 10
558.582418
 20
167.143614
 30
0.000000
 42
-0.049083
  0
SEQEND
  8
1_ANYTOOL_1MMDEEP_LABELS_S
  0
LINE
  8
1_ANYTOOL_1MMDEEP_LABELS_S
 10
545.300207
 20
150.960937
 30
0.000000
 11
536.514493
 21
150.875223
 31
0.000000
  0
POLYLINE
  8
1_ANYTOOL_1MMDEEP_LABELS_S
 66
1
 10
0.000000
 20
0.000000
 30
0.000000
 70
0
  0
VERTEX
  8
1_ANYTOOL_1MMDEEP_LABELS_S
 10
500.943064
 20
167.075223
 30
0.000000
  0
VERTEX
  8
1_ANYTOOL_1MMDEEP_LABELS_S
 10
508.657350
 20
137.075223
 30
0.000000
  0
VERTEX
  8
1_ANYTOOL_1MMDEEP_LABELS_S
 10
517.100207
 20
166.175223
 30
0.000000
  0
VERTEX
  8
1_ANYTOOL_1MMDEEP_LABELS_S
 10
525.585921
 20
137.075223
 30
0.000000
  0
VERTEX
  8
1_ANYTOOL_1MMDEEP_LABELS_S
 10
533.085921
 20
167.075223
 30
0.000000
  0
SEQEND
  8
1_ANYTOOL_1MMDEEP_LABELS_S
  0
POLYLINE
  8
4_ANYTOOL_CUTTHROUGH_OUTSI
 66
1
 10
0.000000
 20
0.000000
 30
0.000000
 70
1
  0
VERTEX
  8
4_ANYTOOL_CUTTHROUGH_OUTSI
 10
977.500000
 20
18.000000
 30
0.000000
  0
VERTEX
  8
4_ANYTOOL_CUTTHROUGH_OUTSI
 10
977.500000
 20
23.750000
 30
0.000000
 42
-0.414214
  0
VERTEX
  8
4_ANYTOOL_CUTTHROUGH_OUTSI
 10
977.750000
 20
24.000000
 30
0.000000
  0
VERTEX
  8
4_ANYTOOL_CUTTHROUGH_OUTSI
 10
989.750000
 20
24.000000
 30
0.000000
 42
-0.414214
  0
VERTEX
  8
4_ANYTOOL_CUTTHROUGH_OUTSI
 10
990.000000
 20
23.750000
 30
0.000000
  0
VERTEX
  8
4_ANYTOOL_CUTTHROUGH_OUTSI
 10
990.000000
 20
0.000000
 30
0.000000
  0
VERTEX
  8
4_ANYTOOL_CUTTHROUGH_OUTSI
 10
1049.500000
 20
0.000000
 30
0.000000
  0
VERTEX
  8
4_ANYTOOL_CUTTHROUGH_OUTSI
 10
1049.500000
 20
23.750000
 30
0.000000
 42
-0.414214
  0
VERTEX
  8
4_ANYTOOL_CUTTHROUGH_OUTSI
 10
1049.750000
 20
24.000000
 30
0.000000
  0
VERTEX
  8
4_ANYTOOL_CUTTHROUGH_OUTSI
 10
1061.750000
 20
24.000000
 30
0.000000
 42
-0.414214
  0
VERTEX
  8
4_ANYTOOL_CUTTHROUGH_OUTSI
 10
1062.000000
 20
23.750000
 30
0.000000
  0
VERTEX
  8
4_ANYTOOL_CUTTHROUGH_OUTSI
 10
1062.000000
 20
17.999993
 30
0.000000
  0
VERTEX
  8
4_ANYTOOL_CUTTHROUGH_OUTSI
 10
1163.499201
 20
17.997168
 30
0.000000
  0
VERTEX
  8
4_ANYTOOL_CUTTHROUGH_OUTSI
 10
1163.499234
 20
31.497162
 30
0.000000
  0
VERTEX
  8
4_ANYTOOL_CUTTHROUGH_OUTSI
 10
1157.749234
 20
31.497176
 30
0.000000
 42
-0.414214
  0
VERTEX
  8
4_ANYTOOL_CUTTHROUGH_OUTSI
 10
1157.499235
 20
31.747177
 30
0.000000
  0
VERTEX
  8
4_ANYTOOL_CUTTHROUGH_OUTSI
 10
1157.499264
 20
43.747177
 30
0.000000
 42
-0.414214
  0
VERTEX
  8
4_ANYTOOL_CUTTHROUGH_OUTSI
 10
1157.749265
 20
43.997176
 30
0.000000
  0
VERTEX
  8
4_ANYTOOL_CUTTHROUGH_OUTSI
 10
1199.499265
 20
43.997074
 30
0.000000
  0
VERTEX
  8
4_ANYTOOL_CUTTHROUGH_OUTSI
 10
1199.499385
 20
93.497074
 30
0.000000
  0
VERTEX
  8
4_ANYTOOL_CUTTHROUGH_OUTSI
 10
1157.749385
 20
93.497176
 30
0.000000
 42
-0.414214
  0
VERTEX
  8
4_ANYTOOL_CUTTHROUGH_OUTSI
 10
1157.499386
 20
93.747177
 30
0.000000
  0
VERTEX
  8
4_ANYTOOL_CUTTHROUGH_OUTSI
 10
1157.499415
 20
105.747177
 30
0.000000
 42
-0.414214
  0
VERTEX
  8
4_ANYTOOL_CUTTHROUGH_OUTSI
 10
1157.749416
 20
105.997176
 30
0.000000
  0
VERTEX
  8
4_ANYTOOL_CUTTHROUGH_OUTSI
 10
1163.499416
 20
105.997162
 30
0.000000
  0
VERTEX
  8
4_ANYTOOL_CUTTHROUGH_OUTSI
 10
1163.499493
 20
137.496829
 30
0.000000
  0
VERTEX
  8
4_ANYTOOL_CUTTHROUGH_OUTSI
 10
1157.749493
 20
137.496843
 30
0.000000
 42
-0.414214
  0
VERTEX
  8
4_ANYTOOL_CUTTHROUGH_OUTSI
 10
1157.499493
 20
137.746844
 30
0.000000
  0
VERTEX
  8
4_ANYTOOL_CUTTHROUGH_OUTSI
 10
1157.499523
 20
149.746844
 30
0.000000
 42
-0.414214
  0
VERTEX
  8
4_ANYTOOL_CUTTHROUGH_OUTSI
 10
1157.749524
 20
149.996843
 30
0.000000
  0
VERTEX
  8
4_ANYTOOL_CUTTHROUGH_OUTSI
 10
1199.499285
 20
149.996692
 30
0.000000
  0
VERTEX
  8
4_ANYTOOL_CUTTHROUGH_OUTSI
 10
1199.499979
 20
289.499983
 30
0.000000
  0
VERTEX
  8
4_ANYTOOL_CUTTHROUGH_OUTSI
 10
0.000007
 20
289.499983
 30
0.000000
  0
VERTEX
  8
4_ANYTOOL_CUTTHROUGH_OUTSI
 10
0.000238
 20
149.999617
 30
0.000000
  0
VERTEX
  8
4_ANYTOOL_CUTTHROUGH_OUTSI
 10
41.750000
 20
149.999667
 30
0.000000
 42
-0.414214
  0
VERTEX
  8
4_ANYTOOL_CUTTHROUGH_OUTSI
 10
42.000000
 20
149.749667
 30
0.000000
  0
VERTEX
  8
4_ANYTOOL_CUTTHROUGH_OUTSI
 10
42.000000
 20
137.749667
 30
0.000000
 42
-0.414214
  0
VERTEX
  8
4_ANYTOOL_CUTTHROUGH_OUTSI
 10
41.750000
 20
137.499667
 30
0.000000
  0
VERTEX
  8
4_ANYTOOL_CUTTHROUGH_OUTSI
 10
36.000000
 20
137.499667
 30
0.000000
  0
VERTEX
  8
4_ANYTOOL_CUTTHROUGH_OUTSI
 10
36.000000
 20
106.000000
 30
0.000000
  0
VERTEX
  8
4_ANYTOOL_CUTTHROUGH_OUTSI
 10
41.750000
 20
106.000000
 30
0.000000
 42
-0.414214
  0
VERTEX
  8
4_ANYTOOL_CUTTHROUGH_OUTSI
 10
42.000000
 20
105.750000
 30
0.000000
  0
VERTEX
  8
4_ANYTOOL_CUTTHROUGH_OUTSI
 10
42.000000
 20
93.750000
 30
0.000000
 42
-0.414214
  0
VERTEX
  8
4_ANYTOOL_CUTTHROUGH_OUTSI
 10
41.750000
 20
93.500000
 30
0.000000
  0
VERTEX
  8
4_ANYTOOL_CUTTHROUGH_OUTSI
 10
0.000000
 20
93.500000
 30
0.000000
  0
VERTEX
  8
4_ANYTOOL_CUTTHROUGH_OUTSI
 10
0.000000
 20
44.000000
 30
0.000000
  0
VERTEX
  8
4_ANYTOOL_CUTTHROUGH_OUTSI
 10
41.750000
 20
44.000000
 30
0.000000
 42
-0.414214
  0
VERTEX
  8
4_ANYTOOL_CUTTHROUGH_OUTSI
 10
42.000000
 20
43.750000
 30
0.000000
  0
VERTEX
  8
4_ANYTOOL_CUTTHROUGH_OUTSI
 10
42.000000
 20
31.750000
 30
0.000000
 42
-0.414214
  0
VERTEX
  8
4_ANYTOOL_CUTTHROUGH_OUTSI
 10
41.750000
 20
31.500000
 30
0.000000
  0
VERTEX
  8
4_ANYTOOL_CUTTHROUGH_OUTSI
 10
36.000000
 20
31.500000
 30
0.000000
  0
VERTEX
  8
4_ANYTOOL_CUTTHROUGH_OUTSI
 10
36.000000
 20
18.000000
 30
0.000000
  0
VERTEX
  8
4_ANYTOOL_CUTTHROUGH_OUTSI
 10
137.500000
 20
18.000000
 30
0.000000
  0
VERTEX
  8
4_ANYTOOL_CUTTHROUGH_OUTSI
 10
137.500000
 20
23.750000
 30
0.000000
 42
-0.414214
  0
VERTEX
  8
4_ANYTOOL_CUTTHROUGH_OUTSI
 10
137.750000
 20
24.000000
 30
0.000000
  0
VERTEX
  8
4_ANYTOOL_CUTTHROUGH_OUTSI
 10
149.750000
 20
24.000000
 30
0.000000
 42
-0.414214
  0
VERTEX
  8
4_ANYTOOL_CUTTHROUGH_OUTSI
 10
150.000000
 20
23.750000
 30
0.000000
  0
VERTEX
  8
4_ANYTOOL_CUTTHROUGH_OUTSI
 10
150.000000
 20
0.000000
 30
0.000000
  0
VERTEX
  8
4_ANYTOOL_CUTTHROUGH_OUTSI
 10
209.500000
 20
0.000000
 30
0.000000
  0
VERTEX
  8
4_ANYTOOL_CUTTHROUGH_OUTSI
 10
209.500000
 20
23.750000
 30
0.000000
 42
-0.414214
  0
VERTEX
  8
4_ANYTOOL_CUTTHROUGH_OUTSI
 10
209.750000
 20
24.000000
 30
0.000000
  0
VERTEX
  8
4_ANYTOOL_CUTTHROUGH_OUTSI
 10
221.750000
 20
24.000000
 30
0.000000
 42
-0.414214
  0
VERTEX
  8
4_ANYTOOL_CUTTHROUGH_OUTSI
 10
222.000000
 20
23.750000
 30
0.000000
  0
VERTEX
  8
4_ANYTOOL_CUTTHROUGH_OUTSI
 10
222.000000
 20
18.000000
 30
0.000000
  0
VERTEX
  8
4_ANYTOOL_CUTTHROUGH_OUTSI
 10
257.500000
 20
18.000000
 30
0.000000
  0
VERTEX
  8
4_ANYTOOL_CUTTHROUGH_OUTSI
 10
257.500000
 20
23.750000
 30
0.000000
 42
-0.414214
  0
VERTEX
  8
4_ANYTOOL_CUTTHROUGH_OUTSI
 10
257.750000
 20
24.000000
 30
0.000000
  0
VERTEX
  8
4_ANYTOOL_CUTTHROUGH_OUTSI
 10
269.750000
 20
24.000000
 30
0.000000
 42
-0.414214
  0
VERTEX
  8
4_ANYTOOL_CUTTHROUGH_OUTSI
 10
270.000000
 20
23.750000
 30
0.000000
  0
VERTEX
  8
4_ANYTOOL_CUTTHROUGH_OUTSI
 10
270.000000
 20
0.000000
 30
0.000000
  0
VERTEX
  8
4_ANYTOOL_CUTTHROUGH_OUTSI
 10
329.500000
 20
0.000000
 30
0.000000
  0
VERTEX
  8
4_ANYTOOL_CUTTHROUGH_OUTSI
 10
329.500000
 20
23.750000
 30
0.000000
 42
-0.414214
  0
VERTEX
  8
4_ANYTOOL_CUTTHROUGH_OUTSI
 10
329.750000
 20
24.000000
 30
0.000000
  0
VERTEX
  8
4_ANYTOOL_CUTTHROUGH_OUTSI
 10
341.750000
 20
24.000000
 30
0.000000
 42
-0.414214
  0
VERTEX
  8
4_ANYTOOL_CUTTHROUGH_OUTSI
 10
342.000000
 20
23.750000
 30
0.000000
  0
VERTEX
  8
4_ANYTOOL_CUTTHROUGH_OUTSI
 10
342.000000
 20
18.000000
 30
0.000000
  0
VERTEX
  8
4_ANYTOOL_CUTTHROUGH_OUTSI
 10
377.500000
 20
18.000000
 30
0.000000
  0
VERTEX
  8
4_ANYTOOL_CUTTHROUGH_OUTSI
 10
377.500000
 20
23.750000
 30
0.000000
 42
-0.414214
  0
VERTEX
  8
4_ANYTOOL_CUTTHROUGH_OUTSI
 10
377.750000
 20
24.000000
 30
0.000000
  0
VERTEX
  8
4_ANYTOOL_CUTTHROUGH_OUTSI
 10
389.750000
 20
24.000000
 30
0.000000
 42
-0.414214
  0
VERTEX
  8
4_ANYTOOL_CUTTHROUGH_OUTSI
 10
390.000000
 20
23.750000
 30
0.000000
  0
VERTEX
  8
4_ANYTOOL_CUTTHROUGH_OUTSI
 10
390.000000
 20
0.000000
 30
0.000000
  0
VERTEX
  8
4_ANYTOOL_CUTTHROUGH_OUTSI
 10
449.500000
 20
0.000000
 30
0.000000
  0
VERTEX
  8
4_ANYTOOL_CUTTHROUGH_OUTSI
 10
449.500000
 20
23.750000
 30
0.000000
 42
-0.414214
  0
VERTEX
  8
4_ANYTOOL_CUTTHROUGH_OUTSI
 10
449.750000
 20
24.000000
 30
0.000000
  0
VERTEX
  8
4_ANYTOOL_CUTTHROUGH_OUTSI
 10
461.750000
 20
24.000000
 30
0.000000
 42
-0.414214
  0
VERTEX
  8
4_ANYTOOL_CUTTHROUGH_OUTSI
 10
462.000000
 20
23.750000
 30
0.000000
  0
VERTEX
  8
4_ANYTOOL_CUTTHROUGH_OUTSI
 10
462.000000
 20
18.000000
 30
0.000000
  0
VERTEX
  8
4_ANYTOOL_CUTTHROUGH_OUTSI
 10
497.500000
 20
18.000000
 30
0.000000
  0
VERTEX
  8
4_ANYTOOL_CUTTHROUGH_OUTSI
 10
497.500000
 20
23.750000
 30
0.000000
 42
-0.414214
  0
VERTEX
  8
4_ANYTOOL_CUTTHROUGH_OUTSI
 10
497.750000
 20
24.000000
 30
0.000000
  0
VERTEX
  8
4_ANYTOOL_CUTTHROUGH_OUTSI
 10
509.750000
 20
24.000000
 30
0.000000
 42
-0.414214
  0
VERTEX
  8
4_ANYTOOL_CUTTHROUGH_OUTSI
 10
510.000000
 20
23.750000
 30
0.000000
  0
VERTEX
  8
4_ANYTOOL_CUTTHROUGH_OUTSI
 10
510.000000
 20
0.000000
 30
0.000000
  0
VERTEX
  8
4_ANYTOOL_CUTTHROUGH_OUTSI
 10
569.500000
 20
0.000000
 30
0.000000
  0
VERTEX
  8
4_ANYTOOL_CUTTHROUGH_OUTSI
 10
569.500000
 20
23.750000
 30
0.000000
 42
-0.414214
  0
VERTEX
  8
4_ANYTOOL_CUTTHROUGH_OUTSI
 10
569.750000
 20
24.000000
 30
0.000000
  0
VERTEX
  8
4_ANYTOOL_CUTTHROUGH_OUTSI
 10
581.750000
 20
24.000000
 30
0.000000
 42
-0.414214
  0
VERTEX
  8
4_ANYTOOL_CUTTHROUGH_OUTSI
 10
582.000000
 20
23.750000
 30
0.000000
  0
VERTEX
  8
4_ANYTOOL_CUTTHROUGH_OUTSI
 10
582.000000
 20
18.000000
 30
0.000000
  0
VERTEX
  8
4_ANYTOOL_CUTTHROUGH_OUTSI
 10
617.500000
 20
18.000000
 30
0.000000
  0
VERTEX
  8
4_ANYTOOL_CUTTHROUGH_OUTSI
 10
617.500000
 20
23.750000
 30
0.000000
 42
-0.414214
  0
VERTEX
  8
4_ANYTOOL_CUTTHROUGH_OUTSI
 10
617.750000
 20
24.000000
 30
0.000000
  0
VERTEX
  8
4_ANYTOOL_CUTTHROUGH_OUTSI
 10
629.750000
 20
24.000000
 30
0.000000
 42
-0.414214
  0
VERTEX
  8
4_ANYTOOL_CUTTHROUGH_OUTSI
 10
630.000000
 20
23.750000
 30
0.000000
  0
VERTEX
  8
4_ANYTOOL_CUTTHROUGH_OUTSI
 10
630.000000
 20
0.000000
 30
0.000000
  0
VERTEX
  8
4_ANYTOOL_CUTTHROUGH_OUTSI
 10
689.500000
 20
0.000000
 30
0.000000
  0
VERTEX
  8
4_ANYTOOL_CUTTHROUGH_OUTSI
 10
689.500000
 20
23.750000
 30
0.000000
 42
-0.414214
  0
VERTEX
  8
4_ANYTOOL_CUTTHROUGH_OUTSI
 10
689.750000
 20
24.000000
 30
0.000000
  0
VERTEX
  8
4_ANYTOOL_CUTTHROUGH_OUTSI
 10
701.750000
 20
24.000000
 30
0.000000
 42
-0.414214
  0
VERTEX
  8
4_ANYTOOL_CUTTHROUGH_OUTSI
 10
702.000000
 20
23.750000
 30
0.000000
  0
VERTEX
  8
4_ANYTOOL_CUTTHROUGH_OUTSI
 10
702.000000
 20
18.000000
 30
0.000000
  0
VERTEX
  8
4_ANYTOOL_CUTTHROUGH_OUTSI
 10
737.500000
 20
18.000000
 30
0.000000
  0
VERTEX
  8
4_ANYTOOL_CUTTHROUGH_OUTSI
 10
737.500000
 20
23.750000
 30
0.000000
 42
-0.414214
  0
VERTEX
  8
4_ANYTOOL_CUTTHROUGH_OUTSI
 10
737.750000
 20
24.000000
 30
0.000000
  0
VERTEX
  8
4_ANYTOOL_CUTTHROUGH_OUTSI
 10
749.750000
 20
24.000000
 30
0.000000
 42
-0.414214
  0
VERTEX
  8
4_ANYTOOL_CUTTHROUGH_OUTSI
 10
750.000000
 20
23.750000
 30
0.000000
  0
VERTEX
  8
4_ANYTOOL_CUTTHROUGH_OUTSI
 10
750.000000
 20
0.000000
 30
0.000000
  0
VERTEX
  8
4_ANYTOOL_CUTTHROUGH_OUTSI
 10
809.500000
 20
0.000000
 30
0.000000
  0
VERTEX
  8
4_ANYTOOL_CUTTHROUGH_OUTSI
 10
809.500000
 20
23.750000
 30
0.000000
 42
-0.414214
  0
VERTEX
  8
4_ANYTOOL_CUTTHROUGH_OUTSI
 10
809.750000
 20
24.000000
 30
0.000000
  0
VERTEX
  8
4_ANYTOOL_CUTTHROUGH_OUTSI
 10
821.750000
 20
24.000000
 30
0.000000
 42
-0.414214
  0
VERTEX
  8
4_ANYTOOL_CUTTHROUGH_OUTSI
 10
822.000000
 20
23.750000
 30
0.000000
  0
VERTEX
  8
4_ANYTOOL_CUTTHROUGH_OUTSI
 10
822.000000
 20
18.000000
 30
0.000000
  0
VERTEX
  8
4_ANYTOOL_CUTTHROUGH_OUTSI
 10
857.500000
 20
18.000000
 30
0.000000
  0
VERTEX
  8
4_ANYTOOL_CUTTHROUGH_OUTSI
 10
857.500000
 20
23.750000
 30
0.000000
 42
-0.414214
  0
VERTEX
  8
4_ANYTOOL_CUTTHROUGH_OUTSI
 10
857.750000
 20
24.000000
 30
0.000000
  0
VERTEX
  8
4_ANYTOOL_CUTTHROUGH_OUTSI
 10
869.750000
 20
24.000000
 30
0.000000
 42
-0.414214
  0
VERTEX
  8
4_ANYTOOL_CUTTHROUGH_OUTSI
 10
870.000000
 20
23.750000
 30
0.000000
  0
VERTEX
  8
4_ANYTOOL_CUTTHROUGH_OUTSI
 10
870.000000
 20
0.000000
 30
0.000000
  0
VERTEX
  8
4_ANYTOOL_CUTTHROUGH_OUTSI
 10
929.500000
 20
0.000000
 30
0.000000
  0
VERTEX
  8
4_ANYTOOL_CUTTHROUGH_OUTSI
 10
929.500000
 20
23.750000
 30
0.000000
 42
-0.414214
  0
VERTEX
  8
4_ANYTOOL_CUTTHROUGH_OUTSI
 10
929.750000
 20
24.000000
 30
0.000000
  0
VERTEX
  8
4_ANYTOOL_CUTTHROUGH_OUTSI
 10
941.750000
 20
24.000000
 30
0.000000
 42
-0.414214
  0
VERTEX
  8
4_ANYTOOL_CUTTHROUGH_OUTSI
 10
942.000000
 20
23.750000
 30
0.000000
  0
VERTEX
  8
4_ANYTOOL_CUTTHROUGH_OUTSI
 10
942.000000
 20
18.000000
 30
0.000000
  0
SEQEND
  8
4_ANYTOOL_CUTTHROUGH_OUTSI
  0
ENDSEC
  0
EOF
