<svg id="Layer_1" data-name="Layer 1" xmlns="http://www.w3.org/2000/svg" viewBox="0 0 212.6 425.2"><defs><style>.cls-1,.cls-2{fill:none;stroke:#1d1d1b;stroke-miterlimit:10;}.cls-1{stroke-width:0.25px;}.cls-2{stroke-width:0.5px;}.cls-3{font-size:5.3px;fill:#1d1d1b;font-family:Monotxt;}</style></defs><g id="POLYLINE"><rect class="cls-1" x="15.93" y="30.95" width="183.55" height="367.11"/></g><g id="POLYLINE-2" data-name="POLYLINE"><path class="cls-2" d="M197.68,347.43a1.72,1.72,0,0,0,1.73-1.73V330.36a1.72,1.72,0,0,0-1.73-1.73H181.81v.9h-2v-48.9h2v.91h15.87a1.73,1.73,0,0,0,1.73-1.73V264.46a1.72,1.72,0,0,0-1.73-1.73H165v.9h-2v-7.37h2v.9h32.72a1.72,1.72,0,0,0,1.73-1.73V240.09a1.72,1.72,0,0,0-1.73-1.73H181.81v.9h-2V214.88H108.69v40.54a1.72,1.72,0,0,0,1.73,1.73h5.94v-.9h2v7.37h-2v-.9h-5.94a1.72,1.72,0,0,0-1.73,1.73V345.7a1.72,1.72,0,0,0,1.73,1.73h5.94v-.9h2v7.37h-2V353h-5.94a1.73,1.73,0,0,0-1.73,1.73v38.82a1.73,1.73,0,0,0,1.73,1.73h5.94v-.9h2V398H163v-3.61h2v.9h13.16a1.73,1.73,0,0,0,1.73-1.73V381.06a1.73,1.73,0,0,0-1.73-1.73H144.8v.9h-2v-7.37h2v.9h33.32a1.72,1.72,0,0,0,1.73-1.73v-17.3a1.73,1.73,0,0,0-1.73-1.73H165v.9h-2v-7.37h2v.9Z"/></g><g id="POLYLINE-3" data-name="POLYLINE"><path class="cls-2" d="M17.74,347.43A1.72,1.72,0,0,1,16,345.7V330.36a1.72,1.72,0,0,1,1.73-1.73H33.61v.9h2v-48.9h-2v.91H17.74A1.73,1.73,0,0,1,16,279.81V264.46a1.72,1.72,0,0,1,1.73-1.73H50.46v.9h2v-7.37h-2v.9H17.74A1.72,1.72,0,0,1,16,255.43V240.09a1.72,1.72,0,0,1,1.73-1.73H33.61v.9h2V214.88h71.16v40.54a1.72,1.72,0,0,1-1.73,1.73H99.06v-.9h-2v7.37h2v-.9H105a1.72,1.72,0,0,1,1.73,1.73V345.7a1.72,1.72,0,0,1-1.73,1.73H99.06v-.9h-2v7.37h2V353H105a1.73,1.73,0,0,1,1.73,1.73v38.82a1.73,1.73,0,0,1-1.73,1.73H99.06v-.9h-2V398H52.42v-3.61h-2v.9H37.3a1.73,1.73,0,0,1-1.73-1.73V381.06a1.73,1.73,0,0,1,1.73-1.73H70.62v.9h2v-7.37h-2v.9H37.3A1.72,1.72,0,0,1,35.57,372v-17.3A1.73,1.73,0,0,1,37.3,353H50.46v.9h2v-7.37h-2v.9Z"/></g><g id="POLYLINE-4" data-name="POLYLINE"><polygon class="cls-2" points="119.11 335.13 119.11 334.23 120.99 334.23 120.99 341.53 119.11 341.53 119.11 340.63 113.77 340.63 113.77 341.53 111.88 341.53 111.88 334.23 113.77 334.23 113.77 335.13 119.11 335.13"/></g><g id="POLYLINE-5" data-name="POLYLINE"><polygon class="cls-2" points="187.11 341.53 187.11 334.23 188.99 334.23 188.99 335.13 194.33 335.13 194.33 334.23 196.21 334.23 196.21 341.53 194.33 341.53 194.33 340.63 188.99 340.63 188.99 341.53 187.11 341.53"/></g><g id="POLYLINE-6" data-name="POLYLINE"><polygon class="cls-2" points="187.11 268.63 188.99 268.63 188.99 269.54 194.33 269.54 194.33 268.63 196.21 268.63 196.21 275.93 194.33 275.93 194.33 275.03 188.99 275.03 188.99 275.93 187.11 275.93 187.11 268.63"/></g><g id="POLYLINE-7" data-name="POLYLINE"><polygon class="cls-2" points="119.11 275.03 113.77 275.03 113.77 275.93 111.88 275.93 111.88 268.63 113.77 268.63 113.77 269.54 119.11 269.54 119.11 268.63 120.99 268.63 120.99 275.93 119.11 275.93 119.11 275.03"/></g><g id="POLYLINE-8" data-name="POLYLINE"><polygon class="cls-2" points="119.11 244.86 119.11 243.96 120.99 243.96 120.99 251.26 119.11 251.26 119.11 250.35 113.77 250.35 113.77 251.26 111.88 251.26 111.88 243.96 113.77 243.96 113.77 244.86 119.11 244.86"/></g><g id="POLYLINE-9" data-name="POLYLINE"><polygon class="cls-2" points="187.11 251.26 187.11 243.96 188.99 243.96 188.99 244.86 194.33 244.86 194.33 243.96 196.21 243.96 196.21 251.26 194.33 251.26 194.33 250.35 188.99 250.35 188.99 251.26 187.11 251.26"/></g><g id="POLYLINE-10" data-name="POLYLINE"><polygon class="cls-2" points="96.31 335.13 96.31 334.23 94.43 334.23 94.43 341.53 96.31 341.53 96.31 340.63 101.65 340.63 101.65 341.53 103.53 341.53 103.53 334.23 101.65 334.23 101.65 335.13 96.31 335.13"/></g><g id="POLYLINE-11" data-name="POLYLINE"><polygon class="cls-2" points="28.31 341.53 28.31 334.23 26.43 334.23 26.43 335.13 21.09 335.13 21.09 334.23 19.2 334.23 19.2 341.53 21.09 341.53 21.09 340.63 26.43 340.63 26.43 341.53 28.31 341.53"/></g><g id="POLYLINE-12" data-name="POLYLINE"><polygon class="cls-2" points="28.31 268.63 26.43 268.63 26.43 269.54 21.09 269.54 21.09 268.63 19.2 268.63 19.2 275.93 21.09 275.93 21.09 275.03 26.43 275.03 26.43 275.93 28.31 275.93 28.31 268.63"/></g><g id="POLYLINE-13" data-name="POLYLINE"><polygon class="cls-2" points="96.31 275.03 101.65 275.03 101.65 275.93 103.53 275.93 103.53 268.63 101.65 268.63 101.65 269.54 96.31 269.54 96.31 268.63 94.43 268.63 94.43 275.93 96.31 275.93 96.31 275.03"/></g><g id="POLYLINE-14" data-name="POLYLINE"><polygon class="cls-2" points="96.31 244.86 96.31 243.96 94.43 243.96 94.43 251.26 96.31 251.26 96.31 250.35 101.65 250.35 101.65 251.26 103.53 251.26 103.53 243.96 101.65 243.96 101.65 244.86 96.31 244.86"/></g><g id="POLYLINE-15" data-name="POLYLINE"><polygon class="cls-2" points="28.31 251.26 28.31 243.96 26.43 243.96 26.43 244.86 21.09 244.86 21.09 243.96 19.2 243.96 19.2 251.26 21.09 251.26 21.09 250.35 26.43 250.35 26.43 251.26 28.31 251.26"/></g><g id="MTEXT"><text class="cls-3" transform="translate(70.44 340.72) rotate(-90)">COMB-B/END-Y1</text></g><g id="MTEXT-2" data-name="MTEXT"><text class="cls-3" transform="translate(144.98 268.74) rotate(90)">COMB-B/END-Y1</text></g></svg>