<svg id="Layer_1" data-name="Layer 1" xmlns="http://www.w3.org/2000/svg" viewBox="0 0 425.2 425.2"><defs><style>.cls-1,.cls-2{fill:none;stroke-linecap:round;stroke-linejoin:round;}.cls-1{stroke:#000;stroke-width:0.25px;}.cls-2{stroke:#1d1d1b;}</style></defs><line class="cls-1" x1="200.64" y1="193.46" x2="200.64" y2="182.64"/><line class="cls-1" x1="200.64" y1="182.64" x2="200.57" y2="182.14"/><line class="cls-1" x1="200.57" y1="182.14" x2="200.33" y2="181.59"/><line class="cls-1" x1="200.33" y1="181.59" x2="199.97" y2="181.11"/><line class="cls-1" x1="199.97" y1="181.11" x2="199.58" y2="180.8"/><line class="cls-1" x1="199.58" y1="180.8" x2="190.55" y2="175.59"/><line class="cls-1" x1="190.55" y1="175.59" x2="190.16" y2="175.45"/><line class="cls-1" x1="190.16" y1="175.45" x2="189.8" y2="175.52"/><line class="cls-1" x1="189.8" y1="175.52" x2="189.57" y2="175.79"/><line class="cls-1" x1="189.57" y1="175.79" x2="189.49" y2="176.2"/><line class="cls-1" x1="186.31" y1="196.63" x2="186.31" y2="187.64"/><line class="cls-1" x1="186.31" y1="187.64" x2="186.24" y2="187.15"/><line class="cls-1" x1="186.24" y1="187.15" x2="186" y2="186.59"/><line class="cls-1" x1="186" y1="186.59" x2="185.64" y2="186.11"/><line class="cls-1" x1="185.64" y1="186.11" x2="185.25" y2="185.8"/><line class="cls-1" x1="185.25" y1="185.8" x2="175.08" y2="179.93"/><line class="cls-1" x1="175.08" y1="179.93" x2="174.69" y2="179.79"/><line class="cls-1" x1="174.69" y1="179.79" x2="174.33" y2="179.86"/><line class="cls-1" x1="174.33" y1="179.86" x2="174.09" y2="180.13"/><line class="cls-1" x1="174.09" y1="180.13" x2="174.02" y2="180.54"/><line class="cls-1" x1="170.83" y1="201.38" x2="170.83" y2="178.7"/><line class="cls-1" x1="170.83" y1="178.7" x2="170.76" y2="178.21"/><line class="cls-1" x1="170.76" y1="178.21" x2="170.52" y2="177.66"/><line class="cls-1" x1="170.52" y1="177.66" x2="170.16" y2="177.18"/><line class="cls-1" x1="170.16" y1="177.18" x2="169.77" y2="176.87"/><line class="cls-1" x1="169.77" y1="176.87" x2="162.43" y2="172.63"/><line class="cls-1" x1="162.43" y1="172.63" x2="162.04" y2="172.49"/><line class="cls-1" x1="162.04" y1="172.49" x2="161.68" y2="172.55"/><line class="cls-1" x1="161.68" y1="172.55" x2="161.44" y2="172.83"/><line class="cls-1" x1="161.44" y1="172.83" x2="161.37" y2="173.24"/><line class="cls-1" x1="161.37" y1="215.12" x2="161.37" y2="219.2"/><line class="cls-1" x1="161.37" y1="219.2" x2="161.44" y2="219.7"/><line class="cls-1" x1="161.44" y1="219.7" x2="161.68" y2="220.25"/><line class="cls-1" x1="161.68" y1="220.25" x2="162.04" y2="220.73"/><line class="cls-1" x1="162.04" y1="220.73" x2="162.43" y2="221.04"/><line class="cls-1" x1="162.43" y1="221.04" x2="185.25" y2="234.21"/><line class="cls-1" x1="185.25" y1="234.21" x2="185.64" y2="234.35"/><line class="cls-1" x1="185.64" y1="234.35" x2="186" y2="234.29"/><line class="cls-1" x1="186" y1="234.29" x2="186.24" y2="234.01"/><line class="cls-1" x1="186.24" y1="234.01" x2="186.31" y2="233.6"/><line class="cls-1" x1="186.31" y1="233.6" x2="186.31" y2="229.52"/><line class="cls-1" x1="185.78" y1="227.99" x2="186.84" y2="228.6"/><line class="cls-1" x1="189.49" y1="231.36" x2="189.49" y2="235.44"/><line class="cls-1" x1="189.49" y1="235.44" x2="189.57" y2="235.93"/><line class="cls-1" x1="189.57" y1="235.93" x2="189.8" y2="236.49"/><line class="cls-1" x1="189.8" y1="236.49" x2="190.16" y2="236.97"/><line class="cls-1" x1="190.16" y1="236.97" x2="190.55" y2="237.28"/><line class="cls-1" x1="190.55" y1="237.28" x2="238.32" y2="264.86"/><line class="cls-1" x1="238.32" y1="264.86" x2="238.71" y2="265"/><line class="cls-1" x1="238.71" y1="265" x2="239.07" y2="264.93"/><line class="cls-1" x1="239.07" y1="264.93" x2="239.31" y2="264.65"/><line class="cls-1" x1="239.31" y1="264.65" x2="239.38" y2="264.24"/><line class="cls-1" x1="239.38" y1="264.24" x2="239.38" y2="260.16"/><line class="cls-1" x1="238.85" y1="258.63" x2="239.91" y2="259.24"/><line class="cls-1" x1="242.56" y1="262" x2="242.56" y2="266.08"/><line class="cls-1" x1="242.56" y1="266.08" x2="242.64" y2="266.58"/><line class="cls-1" x1="242.64" y1="266.58" x2="242.88" y2="267.13"/><line class="cls-1" x1="242.88" y1="267.13" x2="243.24" y2="267.61"/><line class="cls-1" x1="243.24" y1="267.61" x2="243.63" y2="267.92"/><line class="cls-1" x1="243.63" y1="267.92" x2="267.51" y2="281.71"/><line class="cls-1" x1="253.71" y1="224.1" x2="253.71" y2="213.28"/><line class="cls-1" x1="253.71" y1="213.28" x2="253.64" y2="212.78"/><line class="cls-1" x1="253.64" y1="212.78" x2="253.4" y2="212.23"/><line class="cls-1" x1="253.4" y1="212.23" x2="253.04" y2="211.75"/><line class="cls-1" x1="253.04" y1="211.75" x2="252.65" y2="211.44"/><line class="cls-1" x1="252.65" y1="211.44" x2="243.63" y2="206.23"/><line class="cls-1" x1="243.63" y1="206.23" x2="243.24" y2="206.09"/><line class="cls-1" x1="243.24" y1="206.09" x2="242.88" y2="206.16"/><line class="cls-1" x1="242.88" y1="206.16" x2="242.64" y2="206.43"/><line class="cls-1" x1="242.64" y1="206.43" x2="242.56" y2="206.84"/><line class="cls-1" x1="239.38" y1="227.27" x2="239.38" y2="205"/><line class="cls-1" x1="239.38" y1="205" x2="239.31" y2="204.51"/><line class="cls-1" x1="239.31" y1="204.51" x2="239.07" y2="203.96"/><line class="cls-1" x1="239.07" y1="203.96" x2="238.71" y2="203.48"/><line class="cls-1" x1="238.71" y1="203.48" x2="238.32" y2="203.17"/><line class="cls-1" x1="238.32" y1="203.17" x2="229.3" y2="197.96"/><line class="cls-1" x1="229.3" y1="197.96" x2="228.91" y2="197.82"/><line class="cls-1" x1="228.91" y1="197.82" x2="228.55" y2="197.88"/><line class="cls-1" x1="228.55" y1="197.88" x2="228.31" y2="198.16"/><line class="cls-1" x1="228.31" y1="198.16" x2="228.24" y2="198.57"/><line class="cls-1" x1="250.35" y1="264.65" x2="249.82" y2="264.35"/><line class="cls-1" x1="249.82" y1="268.02" x2="250.35" y2="268.33"/><line class="cls-1" x1="250.35" y1="268.33" x2="250.35" y2="269.56"/><line class="cls-1" x1="250.35" y1="269.56" x2="246.1" y2="267.1"/><line class="cls-1" x1="246.1" y1="267.1" x2="246.1" y2="265.88"/><line class="cls-1" x1="246.1" y1="265.88" x2="246.64" y2="266.18"/><line class="cls-1" x1="246.64" y1="266.18" x2="246.64" y2="262.51"/><line class="cls-1" x1="246.64" y1="262.51" x2="246.1" y2="262.2"/><line class="cls-1" x1="246.1" y1="262.2" x2="246.1" y2="260.97"/><line class="cls-1" x1="249.82" y1="216.96" x2="250.35" y2="217.26"/><line class="cls-1" x1="250.35" y1="217.26" x2="250.35" y2="218.49"/><line class="cls-1" x1="250.35" y1="218.49" x2="246.1" y2="216.04"/><line class="cls-1" x1="246.1" y1="216.04" x2="246.1" y2="214.81"/><line class="cls-1" x1="246.1" y1="214.81" x2="246.64" y2="215.12"/><line class="cls-1" x1="246.64" y1="215.12" x2="246.64" y2="211.44"/><line class="cls-1" x1="246.64" y1="211.44" x2="246.1" y2="211.13"/><line class="cls-1" x1="246.1" y1="211.13" x2="246.1" y2="209.91"/><line class="cls-1" x1="250.35" y1="213.59" x2="249.82" y2="213.28"/><line class="cls-1" x1="197.28" y1="234.01" x2="196.75" y2="233.7"/><line class="cls-1" x1="196.75" y1="237.38" x2="197.28" y2="237.69"/><line class="cls-1" x1="197.28" y1="237.69" x2="197.28" y2="238.91"/><line class="cls-1" x1="197.28" y1="238.91" x2="193.03" y2="236.46"/><line class="cls-1" x1="193.03" y1="236.46" x2="193.03" y2="235.24"/><line class="cls-1" x1="193.03" y1="235.24" x2="193.56" y2="235.54"/><line class="cls-1" x1="193.56" y1="235.54" x2="193.56" y2="231.87"/><line class="cls-1" x1="193.56" y1="231.87" x2="193.03" y2="231.56"/><line class="cls-1" x1="193.03" y1="231.56" x2="193.03" y2="230.33"/><line class="cls-1" x1="231.6" y1="258.73" x2="231.6" y2="257.5"/><line class="cls-1" x1="231.6" y1="257.5" x2="232.13" y2="257.81"/><line class="cls-1" x1="232.13" y1="257.81" x2="232.13" y2="254.13"/><line class="cls-1" x1="232.13" y1="254.13" x2="231.6" y2="253.83"/><line class="cls-1" x1="231.6" y1="253.83" x2="231.6" y2="252.6"/><line class="cls-1" x1="235.84" y1="256.28" x2="235.31" y2="255.97"/><line class="cls-1" x1="235.31" y1="259.65" x2="235.84" y2="259.95"/><line class="cls-1" x1="235.84" y1="259.95" x2="235.84" y2="261.18"/><line class="cls-1" x1="235.84" y1="261.18" x2="231.6" y2="258.73"/><line class="cls-1" x1="196.75" y1="186.31" x2="197.28" y2="186.62"/><line class="cls-1" x1="197.28" y1="186.62" x2="197.28" y2="187.85"/><line class="cls-1" x1="197.28" y1="187.85" x2="193.03" y2="185.39"/><line class="cls-1" x1="193.03" y1="185.39" x2="193.03" y2="184.17"/><line class="cls-1" x1="193.03" y1="184.17" x2="193.56" y2="184.47"/><line class="cls-1" x1="193.56" y1="184.47" x2="193.56" y2="180.8"/><line class="cls-1" x1="193.56" y1="180.8" x2="193.03" y2="180.49"/><line class="cls-1" x1="193.03" y1="180.49" x2="193.03" y2="179.27"/><line class="cls-1" x1="197.28" y1="182.94" x2="196.75" y2="182.64"/><line class="cls-1" x1="235.31" y1="208.58" x2="235.84" y2="208.89"/><line class="cls-1" x1="235.84" y1="208.89" x2="235.84" y2="210.11"/><line class="cls-1" x1="235.84" y1="210.11" x2="231.6" y2="207.66"/><line class="cls-1" x1="231.6" y1="207.66" x2="231.6" y2="206.43"/><line class="cls-1" x1="231.6" y1="206.43" x2="232.13" y2="206.74"/><line class="cls-1" x1="232.13" y1="206.74" x2="232.13" y2="203.06"/><line class="cls-1" x1="232.13" y1="203.06" x2="231.6" y2="202.76"/><line class="cls-1" x1="231.6" y1="202.76" x2="231.6" y2="201.53"/><line class="cls-1" x1="235.84" y1="205.21" x2="235.31" y2="204.9"/><line class="cls-1" x1="202.23" y1="192.55" x2="202.23" y2="181.72"/><line class="cls-1" x1="201.92" y1="180.67" x2="201.56" y2="180.19"/><line class="cls-1" x1="202.23" y1="181.72" x2="202.16" y2="181.22"/><line class="cls-1" x1="201.17" y1="179.88" x2="192.15" y2="174.67"/><line class="cls-1" x1="192.15" y1="174.67" x2="191.76" y2="174.53"/><line class="cls-1" x1="191.76" y1="174.53" x2="191.4" y2="174.6"/><line class="cls-1" x1="191.4" y1="174.6" x2="191.16" y2="174.88"/><line class="cls-1" x1="202.16" y1="181.22" x2="201.92" y2="180.67"/><line class="cls-1" x1="201.56" y1="180.19" x2="201.17" y2="179.88"/><line class="cls-1" x1="201.7" y1="193.46" x2="201.7" y2="192.85"/><line class="cls-1" x1="228.24" y1="208.78" x2="201.7" y2="193.46"/><line class="cls-1" x1="240.97" y1="204.09" x2="240.9" y2="203.59"/><line class="cls-1" x1="239.91" y1="202.25" x2="230.89" y2="197.04"/><line class="cls-1" x1="229.9" y1="197.24" x2="229.87" y2="197.42"/><line class="cls-1" x1="240.97" y1="226.35" x2="240.97" y2="204.09"/><line class="cls-1" x1="240.9" y1="203.59" x2="240.66" y2="203.04"/><line class="cls-1" x1="240.3" y1="202.56" x2="239.91" y2="202.25"/><line class="cls-1" x1="240.66" y1="203.04" x2="240.3" y2="202.56"/><line class="cls-1" x1="230.89" y1="197.04" x2="230.5" y2="196.9"/><line class="cls-1" x1="230.04" y1="197.08" x2="229.98" y2="197.15"/><line class="cls-1" x1="230.5" y1="196.9" x2="230.14" y2="196.96"/><line class="cls-1" x1="238.98" y1="226.89" x2="238.98" y2="226.89"/><line class="cls-1" x1="240.44" y1="227.27" x2="240.44" y2="226.66"/><line class="cls-1" x1="242.57" y1="228.5" x2="240.44" y2="227.27"/><line class="cls-1" x1="255.3" y1="212.36" x2="255.23" y2="211.87"/><line class="cls-1" x1="254.24" y1="210.52" x2="245.22" y2="205.31"/><line class="cls-1" x1="255.3" y1="223.19" x2="255.3" y2="212.36"/><line class="cls-1" x1="255.23" y1="211.87" x2="254.99" y2="211.31"/><line class="cls-1" x1="254.63" y1="210.83" x2="254.24" y2="210.52"/><line class="cls-1" x1="254.99" y1="211.31" x2="254.63" y2="210.83"/><line class="cls-1" x1="245.22" y1="205.31" x2="244.83" y2="205.17"/><line class="cls-1" x1="244.83" y1="205.17" x2="244.47" y2="205.24"/><line class="cls-1" x1="244.37" y1="205.35" x2="244.31" y2="205.42"/><line class="cls-1" x1="244.23" y1="205.52" x2="244.2" y2="205.69"/><line class="cls-1" x1="254.77" y1="224.1" x2="254.77" y2="223.49"/><line class="cls-1" x1="267.51" y1="233.3" x2="269.1" y2="232.38"/><line class="cls-1" x1="269.1" y1="232.38" x2="254.77" y2="224.1"/><line class="cls-1" x1="267.51" y1="281.71" x2="269.1" y2="280.79"/><line class="cls-1" x1="269.1" y1="280.79" x2="269.1" y2="232.38"/><line class="cls-1" x1="239.38" y1="260.16" x2="239.65" y2="260"/><line class="cls-1" x1="239.91" y1="263.94" x2="240.03" y2="263.98"/><line class="cls-1" x1="240.37" y1="264.06" x2="240.66" y2="264.01"/><line class="cls-1" x1="240.66" y1="264.01" x2="240.9" y2="263.73"/><line class="cls-1" x1="240.9" y1="263.73" x2="240.97" y2="263.33"/><line class="cls-1" x1="240.97" y1="263.33" x2="240.97" y2="259.85"/><line class="cls-1" x1="186.31" y1="229.52" x2="186.58" y2="229.36"/><line class="cls-1" x1="187.83" y1="233.09" x2="187.9" y2="232.68"/><line class="cls-1" x1="186.84" y1="233.3" x2="186.96" y2="233.34"/><line class="cls-1" x1="187.35" y1="233.41" x2="187.59" y2="233.37"/><line class="cls-1" x1="187.59" y1="233.37" x2="187.83" y2="233.09"/><line class="cls-1" x1="187.9" y1="232.68" x2="187.9" y2="229.21"/><line class="cls-1" x1="159.77" y1="182.53" x2="161.37" y2="181.62"/><line class="cls-1" x1="172.42" y1="177.79" x2="172.35" y2="177.29"/><line class="cls-1" x1="171.36" y1="175.95" x2="164.02" y2="171.71"/><line class="cls-1" x1="172.42" y1="200.46" x2="172.42" y2="177.79"/><line class="cls-1" x1="172.35" y1="177.29" x2="172.11" y2="176.74"/><line class="cls-1" x1="171.75" y1="176.26" x2="171.36" y2="175.95"/><line class="cls-1" x1="172.11" y1="176.74" x2="171.75" y2="176.26"/><line class="cls-1" x1="164.02" y1="171.71" x2="163.63" y2="171.57"/><line class="cls-1" x1="163.63" y1="171.57" x2="163.27" y2="171.64"/><line class="cls-1" x1="163.17" y1="171.75" x2="163.11" y2="171.82"/><line class="cls-1" x1="171.89" y1="201.38" x2="171.89" y2="200.77"/><line class="cls-1" x1="170.43" y1="200.99" x2="170.43" y2="201"/><line class="cls-1" x1="174.02" y1="202.61" x2="171.89" y2="201.38"/><line class="cls-1" x1="187.9" y1="186.72" x2="187.83" y2="186.23"/><line class="cls-1" x1="186.84" y1="184.88" x2="176.67" y2="179.01"/><line class="cls-1" x1="187.9" y1="195.71" x2="187.9" y2="186.72"/><line class="cls-1" x1="187.83" y1="186.23" x2="187.59" y2="185.68"/><line class="cls-1" x1="187.23" y1="185.2" x2="186.84" y2="184.88"/><line class="cls-1" x1="187.59" y1="185.68" x2="187.23" y2="185.2"/><line class="cls-1" x1="176.67" y1="179.01" x2="176.28" y2="178.87"/><line class="cls-1" x1="175.92" y1="178.94" x2="175.68" y2="179.22"/><line class="cls-1" x1="176.28" y1="178.87" x2="175.92" y2="178.94"/><line class="cls-1" x1="186.88" y1="195.69" x2="187.11" y2="195.56"/><line class="cls-1" x1="187.37" y1="196.63" x2="187.37" y2="196.02"/><line class="cls-1" x1="189.49" y1="197.86" x2="187.37" y2="196.63"/><line class="cls-1" x1="235.31" y1="204.9" x2="235.84" y2="204.6"/><line class="cls-1" x1="231.6" y1="202.76" x2="232.66" y2="202.14"/><line class="cls-1" x1="232.13" y1="203.06" x2="233.19" y2="202.45"/><line class="cls-1" x1="233.72" y1="205.82" x2="233.72" y2="202.76"/><line class="cls-1" x1="231.6" y1="207.66" x2="233.19" y2="206.74"/><line class="cls-1" x1="233.19" y1="206.74" x2="233.19" y2="206.13"/><line class="cls-1" x1="235.31" y1="207.97" x2="233.19" y2="206.74"/><line class="cls-1" x1="194.62" y1="184.47" x2="193.03" y2="185.39"/><line class="cls-1" x1="196.75" y1="185.7" x2="194.62" y2="184.47"/><line class="cls-1" x1="196.75" y1="182.64" x2="197.28" y2="182.33"/><line class="cls-1" x1="193.03" y1="180.49" x2="194.09" y2="179.88"/><line class="cls-1" x1="193.56" y1="180.8" x2="194.62" y2="180.19"/><line class="cls-1" x1="195.15" y1="183.56" x2="195.15" y2="180.49"/><line class="cls-1" x1="194.62" y1="184.47" x2="194.62" y2="183.86"/><line class="cls-1" x1="233.19" y1="253.52" x2="232.13" y2="254.13"/><line class="cls-1" x1="233.72" y1="256.89" x2="233.72" y2="253.83"/><line class="cls-1" x1="231.6" y1="258.73" x2="233.19" y2="257.81"/><line class="cls-1" x1="233.19" y1="257.81" x2="233.19" y2="257.2"/><line class="cls-1" x1="235.31" y1="259.03" x2="233.19" y2="257.81"/><line class="cls-1" x1="235.31" y1="255.97" x2="235.84" y2="255.66"/><line class="cls-1" x1="231.6" y1="253.83" x2="232.66" y2="253.21"/><line class="cls-1" x1="197.28" y1="233.4" x2="196.75" y2="233.7"/><line class="cls-1" x1="193.03" y1="231.56" x2="194.09" y2="230.95"/><line class="cls-1" x1="193.56" y1="231.87" x2="194.62" y2="231.25"/><line class="cls-1" x1="195.15" y1="234.62" x2="195.15" y2="231.56"/><line class="cls-1" x1="193.03" y1="236.46" x2="194.62" y2="235.54"/><line class="cls-1" x1="194.62" y1="235.54" x2="194.62" y2="234.93"/><line class="cls-1" x1="196.75" y1="236.77" x2="194.62" y2="235.54"/><line class="cls-1" x1="247.7" y1="215.12" x2="246.1" y2="216.04"/><line class="cls-1" x1="249.82" y1="216.34" x2="247.7" y2="215.12"/><line class="cls-1" x1="249.82" y1="213.28" x2="250.35" y2="212.97"/><line class="cls-1" x1="246.1" y1="211.13" x2="247.17" y2="210.52"/><line class="cls-1" x1="246.64" y1="211.44" x2="247.7" y2="210.83"/><line class="cls-1" x1="248.23" y1="214.2" x2="248.23" y2="211.13"/><line class="cls-1" x1="247.7" y1="215.12" x2="247.7" y2="214.5"/><line class="cls-1" x1="250.35" y1="264.04" x2="249.82" y2="264.35"/><line class="cls-1" x1="246.1" y1="262.2" x2="247.17" y2="261.59"/><line class="cls-1" x1="246.64" y1="262.51" x2="247.7" y2="261.9"/><line class="cls-1" x1="248.23" y1="265.27" x2="248.23" y2="262.2"/><line class="cls-1" x1="246.1" y1="267.1" x2="247.7" y2="266.18"/><line class="cls-1" x1="247.7" y1="266.18" x2="247.7" y2="265.57"/><line class="cls-1" x1="249.82" y1="267.41" x2="247.7" y2="266.18"/><line class="cls-1" x1="189.49" y1="197.86" x2="189.49" y2="198.47"/><line class="cls-1" x1="174.02" y1="180.54" x2="174.02" y2="202.61"/><line class="cls-1" x1="174.02" y1="202.61" x2="174.02" y2="203.22"/><line class="cls-1" x1="161.37" y1="173.24" x2="161.37" y2="181.62"/><line class="cls-1" x1="161.37" y1="181.62" x2="161.37" y2="182.23"/><line class="cls-1" x1="161.9" y1="214.81" x2="161.9" y2="215.42"/><line class="cls-1" x1="186.84" y1="228.6" x2="187.37" y2="228.9"/><line class="cls-1" x1="190.02" y1="231.05" x2="190.02" y2="231.66"/><line class="cls-1" x1="239.91" y1="259.24" x2="240.44" y2="259.54"/><line class="cls-1" x1="243.1" y1="261.69" x2="243.1" y2="262.3"/><line class="cls-1" x1="242.56" y1="206.84" x2="242.57" y2="228.5"/><line class="cls-1" x1="242.57" y1="228.5" x2="242.56" y2="229.11"/><line class="cls-1" x1="228.24" y1="198.57" x2="228.24" y2="208.78"/><line class="cls-1" x1="228.24" y1="208.78" x2="228.24" y2="209.4"/><line class="cls-1" x1="248.23" y1="262.2" x2="250.35" y2="263.43"/><line class="cls-1" x1="250.35" y1="263.43" x2="250.35" y2="264.04"/><line class="cls-1" x1="250.35" y1="264.04" x2="250.35" y2="264.65"/><line class="cls-1" x1="249.82" y1="264.35" x2="249.82" y2="267.41"/><line class="cls-1" x1="249.82" y1="267.41" x2="249.82" y2="268.02"/><line class="cls-1" x1="248.23" y1="211.13" x2="250.35" y2="212.36"/><line class="cls-1" x1="250.35" y1="212.36" x2="250.35" y2="212.97"/><line class="cls-1" x1="250.35" y1="212.97" x2="250.35" y2="213.59"/><line class="cls-1" x1="249.82" y1="213.28" x2="249.82" y2="216.34"/><line class="cls-1" x1="249.82" y1="216.34" x2="249.82" y2="216.96"/><line class="cls-1" x1="193.03" y1="230.33" x2="194.09" y2="230.95"/><line class="cls-1" x1="197.28" y1="232.78" x2="197.28" y2="233.4"/><line class="cls-1" x1="197.28" y1="233.4" x2="197.28" y2="234.01"/><line class="cls-1" x1="196.75" y1="233.7" x2="196.75" y2="236.77"/><line class="cls-1" x1="196.75" y1="236.77" x2="196.75" y2="237.38"/><line class="cls-1" x1="235.84" y1="255.05" x2="235.84" y2="255.66"/><line class="cls-1" x1="235.84" y1="255.66" x2="235.84" y2="256.28"/><line class="cls-1" x1="235.31" y1="255.97" x2="235.31" y2="259.03"/><line class="cls-1" x1="235.31" y1="259.03" x2="235.31" y2="259.65"/><line class="cls-1" x1="193.03" y1="179.27" x2="194.09" y2="179.88"/><line class="cls-1" x1="197.28" y1="181.72" x2="197.28" y2="182.33"/><line class="cls-1" x1="197.28" y1="182.33" x2="197.28" y2="182.94"/><line class="cls-1" x1="196.75" y1="182.64" x2="196.75" y2="185.7"/><line class="cls-1" x1="196.75" y1="185.7" x2="196.75" y2="186.31"/><line class="cls-1" x1="235.31" y1="204.9" x2="235.31" y2="207.97"/><line class="cls-1" x1="235.31" y1="207.97" x2="235.31" y2="208.58"/><line class="cls-1" x1="231.6" y1="201.53" x2="232.66" y2="202.14"/><line class="cls-1" x1="235.84" y1="203.98" x2="235.84" y2="204.6"/><line class="cls-1" x1="235.84" y1="204.6" x2="235.84" y2="205.21"/><line class="cls-1" x1="189.8" y1="175.52" x2="191.1" y2="175.2"/><line class="cls-1" x1="191.1" y1="175.2" x2="191.35" y2="175.13"/><line class="cls-1" x1="232.13" y1="206.74" x2="233.19" y2="206.13"/><line class="cls-1" x1="233.19" y1="206.13" x2="233.72" y2="205.82"/><line class="cls-1" x1="193.56" y1="184.47" x2="194.62" y2="183.86"/><line class="cls-1" x1="194.62" y1="183.86" x2="195.15" y2="183.56"/><line class="cls-1" x1="232.13" y1="257.81" x2="233.19" y2="257.2"/><line class="cls-1" x1="233.19" y1="257.2" x2="233.72" y2="256.89"/><line class="cls-1" x1="193.56" y1="235.54" x2="194.62" y2="234.93"/><line class="cls-1" x1="194.62" y1="234.93" x2="195.15" y2="234.62"/><line class="cls-1" x1="246.64" y1="215.12" x2="247.7" y2="214.5"/><line class="cls-1" x1="247.7" y1="214.5" x2="248.23" y2="214.2"/><line class="cls-1" x1="246.64" y1="266.18" x2="247.7" y2="265.57"/><line class="cls-1" x1="247.7" y1="265.57" x2="248.23" y2="265.27"/><line class="cls-1" x1="187.37" y1="228.9" x2="187.9" y2="229.21"/><line class="cls-1" x1="187.9" y1="229.21" x2="190.02" y2="230.44"/><line class="cls-1" x1="240.44" y1="259.54" x2="240.97" y2="259.85"/><line class="cls-1" x1="240.97" y1="259.85" x2="243.1" y2="261.08"/><line class="cls-1" x1="246.1" y1="260.97" x2="247.17" y2="261.59"/><line class="cls-1" x1="246.1" y1="209.91" x2="247.17" y2="210.52"/><line class="cls-1" x1="194.09" y1="230.95" x2="194.62" y2="231.25"/><line class="cls-1" x1="231.6" y1="252.6" x2="232.66" y2="253.21"/><line class="cls-1" x1="232.66" y1="253.21" x2="233.19" y2="253.52"/><line class="cls-1" x1="233.19" y1="253.52" x2="233.72" y2="253.83"/><line class="cls-1" x1="233.72" y1="253.83" x2="235.84" y2="255.05"/><line class="cls-1" x1="194.09" y1="179.88" x2="194.62" y2="180.19"/><line class="cls-1" x1="232.66" y1="202.14" x2="233.19" y2="202.45"/><line class="cls-1" x1="247.17" y1="261.59" x2="247.7" y2="261.9"/><line class="cls-1" x1="247.7" y1="261.9" x2="248.23" y2="262.2"/><line class="cls-1" x1="247.17" y1="210.52" x2="247.7" y2="210.83"/><line class="cls-1" x1="247.7" y1="210.83" x2="248.23" y2="211.13"/><line class="cls-1" x1="194.62" y1="231.25" x2="195.15" y2="231.56"/><line class="cls-1" x1="195.15" y1="231.56" x2="197.28" y2="232.78"/><line class="cls-1" x1="194.62" y1="180.19" x2="195.15" y2="180.49"/><line class="cls-1" x1="195.15" y1="180.49" x2="197.28" y2="181.72"/><line class="cls-1" x1="233.19" y1="202.45" x2="233.72" y2="202.76"/><line class="cls-1" x1="233.72" y1="202.76" x2="235.84" y2="203.98"/><line class="cls-1" x1="200.64" y1="193.46" x2="200.11" y2="193.16"/><line class="cls-1" x1="189.49" y1="176.2" x2="189.49" y2="197.86"/><line class="cls-1" x1="189.49" y1="198.47" x2="190.02" y2="198.77"/><line class="cls-1" x1="190.02" y1="198.77" x2="190.02" y2="200"/><line class="cls-1" x1="190.02" y1="200" x2="185.78" y2="197.55"/><line class="cls-1" x1="185.78" y1="197.55" x2="185.78" y2="196.32"/><line class="cls-1" x1="185.78" y1="196.32" x2="186.31" y2="196.63"/><line class="cls-1" x1="174.02" y1="203.22" x2="174.55" y2="203.52"/><line class="cls-1" x1="174.55" y1="203.52" x2="174.55" y2="204.75"/><line class="cls-1" x1="174.55" y1="204.75" x2="170.3" y2="202.3"/><line class="cls-1" x1="170.3" y1="202.3" x2="170.3" y2="201.07"/><line class="cls-1" x1="170.3" y1="201.07" x2="170.83" y2="201.38"/><line class="cls-1" x1="161.37" y1="182.23" x2="161.9" y2="182.53"/><line class="cls-1" x1="161.9" y1="182.53" x2="161.9" y2="183.76"/><line class="cls-1" x1="161.9" y1="183.76" x2="159.77" y2="182.53"/><line class="cls-1" x1="159.77" y1="182.53" x2="159.77" y2="212.97"/><line class="cls-1" x1="159.77" y1="212.97" x2="161.9" y2="214.2"/><line class="cls-1" x1="161.9" y1="214.2" x2="161.9" y2="214.81"/><line class="cls-1" x1="161.9" y1="215.42" x2="161.37" y2="215.12"/><line class="cls-1" x1="186.31" y1="229.52" x2="185.78" y2="229.21"/><line class="cls-1" x1="185.78" y1="229.21" x2="185.78" y2="227.99"/><line class="cls-1" x1="190.02" y1="230.44" x2="190.02" y2="231.05"/><line class="cls-1" x1="190.02" y1="231.66" x2="189.49" y2="231.36"/><line class="cls-1" x1="239.38" y1="260.16" x2="238.85" y2="259.85"/><line class="cls-1" x1="238.85" y1="259.85" x2="238.85" y2="258.63"/><line class="cls-1" x1="243.1" y1="261.08" x2="243.1" y2="261.69"/><line class="cls-1" x1="243.1" y1="262.3" x2="242.56" y2="262"/><line class="cls-1" x1="267.51" y1="281.71" x2="267.51" y2="233.3"/><line class="cls-1" x1="267.51" y1="233.3" x2="253.18" y2="225.02"/><line class="cls-1" x1="253.18" y1="225.02" x2="253.18" y2="223.8"/><line class="cls-1" x1="253.18" y1="223.8" x2="253.71" y2="224.1"/><line class="cls-1" x1="242.56" y1="229.11" x2="243.1" y2="229.41"/><line class="cls-1" x1="243.1" y1="229.41" x2="243.1" y2="230.64"/><line class="cls-1" x1="243.1" y1="230.64" x2="238.85" y2="228.19"/><line class="cls-1" x1="238.85" y1="228.19" x2="238.85" y2="226.96"/><line class="cls-1" x1="238.85" y1="226.96" x2="239.38" y2="227.27"/><line class="cls-1" x1="228.24" y1="209.4" x2="228.77" y2="209.7"/><line class="cls-1" x1="228.77" y1="209.7" x2="228.77" y2="210.93"/><line class="cls-1" x1="228.77" y1="210.93" x2="200.11" y2="194.38"/><line class="cls-1" x1="200.11" y1="194.38" x2="200.11" y2="193.16"/><line class="cls-1" x1="201.7" y1="192.85" x2="200.64" y2="193.46"/><line class="cls-1" x1="201.7" y1="192.85" x2="202.23" y2="192.55"/><line class="cls-1" x1="201.7" y1="193.46" x2="200.11" y2="194.38"/><line class="cls-1" x1="230.14" y1="196.96" x2="228.55" y2="197.88"/><line class="cls-1" x1="240.44" y1="226.66" x2="239.38" y2="227.27"/><line class="cls-1" x1="240.44" y1="226.66" x2="240.97" y2="226.35"/><line class="cls-1" x1="240.44" y1="227.27" x2="238.85" y2="228.19"/><line class="cls-1" x1="244.47" y1="205.24" x2="242.88" y2="206.16"/><line class="cls-1" x1="254.77" y1="223.49" x2="253.71" y2="224.1"/><line class="cls-1" x1="254.77" y1="223.49" x2="255.3" y2="223.19"/><line class="cls-1" x1="254.77" y1="224.1" x2="253.18" y2="225.02"/><line class="cls-1" x1="243.1" y1="261.69" x2="242.56" y2="262"/><line class="cls-1" x1="239.91" y1="259.24" x2="238.85" y2="259.85"/><line class="cls-1" x1="240.66" y1="264.01" x2="239.07" y2="264.93"/><line class="cls-1" x1="190.02" y1="231.05" x2="189.49" y2="231.36"/><line class="cls-1" x1="239.65" y1="260" x2="240.44" y2="259.54"/><line class="cls-1" x1="186.84" y1="228.6" x2="185.78" y2="229.21"/><line class="cls-1" x1="187.59" y1="233.37" x2="186" y2="234.29"/><line class="cls-1" x1="161.9" y1="214.81" x2="161.37" y2="215.12"/><line class="cls-1" x1="186.58" y1="229.36" x2="187.37" y2="228.9"/><line class="cls-1" x1="163.27" y1="171.64" x2="161.68" y2="172.55"/><line class="cls-1" x1="171.89" y1="200.77" x2="170.83" y2="201.38"/><line class="cls-1" x1="171.89" y1="200.77" x2="172.42" y2="200.46"/><line class="cls-1" x1="171.89" y1="201.38" x2="170.3" y2="202.3"/><line class="cls-1" x1="175.92" y1="178.94" x2="174.33" y2="179.86"/><line class="cls-1" x1="187.37" y1="196.02" x2="187.9" y2="195.71"/><line class="cls-1" x1="187.37" y1="196.02" x2="186.31" y2="196.63"/><line class="cls-1" x1="187.37" y1="196.63" x2="185.78" y2="197.55"/><line class="cls-1" x1="191.16" y1="174.88" x2="191.1" y2="175.2"/><polygon class="cls-2" points="174.09 203.1 174.09 181.04 174.16 180.63 174.4 180.35 175.99 179.43 176.35 179.37 176.74 179.51 186.91 185.38 187.3 185.69 187.66 186.17 187.9 186.72 187.97 187.22 187.97 196.21 187.44 196.51 187.44 197.13 189.57 198.35 189.57 176.7 189.64 176.29 189.88 176.01 191.17 175.69 191.24 175.37 191.47 175.09 191.83 175.03 192.22 175.17 201.24 180.37 201.63 180.69 201.99 181.17 202.23 181.72 202.3 182.21 202.3 193.04 201.77 193.35 201.77 193.96 228.31 209.28 228.31 199.07 228.38 198.66 228.62 198.38 230.21 197.46 230.57 197.39 230.96 197.53 239.99 202.74 240.37 203.05 240.74 203.53 240.97 204.09 241.04 204.58 241.04 226.85 240.51 227.15 240.51 227.77 242.64 228.99 242.64 207.34 242.71 206.93 242.95 206.65 244.54 205.73 244.9 205.67 245.29 205.81 254.31 211.01 254.7 211.33 255.06 211.81 255.3 212.36 255.38 212.85 255.38 223.68 254.84 223.99 254.84 224.6 269.17 232.87 269.17 281.28 267.58 282.2 243.7 268.42 243.31 268.1 242.95 267.62 242.71 267.07 242.64 266.58 242.64 262.49 243.17 262.19 243.17 261.57 241.04 260.35 241.04 263.82 240.97 264.23 240.74 264.5 239.14 265.43 238.78 265.49 238.39 265.35 190.63 237.78 190.24 237.46 189.88 236.98 189.64 236.43 189.57 235.94 189.57 231.85 190.1 231.54 190.1 230.93 187.97 229.71 187.97 233.18 187.9 233.59 187.66 233.87 186.07 234.78 185.71 234.85 185.32 234.71 162.5 221.54 162.11 221.22 161.75 220.74 161.51 220.19 161.44 219.7 161.44 215.61 161.97 215.31 161.97 214.69 159.85 213.47 159.85 183.03 161.44 182.11 161.44 173.74 161.51 173.33 161.75 173.05 163.34 172.13 163.7 172.06 164.09 172.2 171.44 176.44 171.82 176.75 172.19 177.23 172.42 177.79 172.5 178.28 172.5 200.95 171.97 201.26 171.97 201.87 174.09 203.1"/></svg>