<?xml version="1.0" encoding="utf-8"?>
<!-- Generator: Adobe Illustrator 25.4.8, SVG Export Plug-In . SVG Version: 6.00 Build 0)  -->
<svg version="1.1"
	 id="svg35575" xmlns:inkscape="http://www.inkscape.org/namespaces/inkscape" xmlns:sodipodi="http://sodipodi.sourceforge.net/DTD/sodipodi-0.dtd" xmlns:svg="http://www.w3.org/2000/svg"
	 xmlns="http://www.w3.org/2000/svg" xmlns:xlink="http://www.w3.org/1999/xlink" x="0px" y="0px" viewBox="0 0 392.7 392.7"
	 style="enable-background:new 0 0 392.7 392.7;" xml:space="preserve">
<style type="text/css">
	.st0{fill:none;stroke:#000000;stroke-width:0.225;}
	.st1{fill:none;stroke:#000000;stroke-width:0.75;}
</style>
<sodipodi:namedview  bordercolor="#666666" borderopacity="1.0" id="namedview35577" inkscape:current-layer="svg35575" inkscape:cx="360.75361" inkscape:cy="259.32434" inkscape:deskcolor="#d1d1d1" inkscape:document-units="pt" inkscape:pagecheckerboard="0" inkscape:pageopacity="0.0" inkscape:showpageshadow="2" inkscape:window-height="918" inkscape:window-maximized="0" inkscape:window-width="1312" inkscape:window-x="1926" inkscape:window-y="25" inkscape:zoom="0.47816569" pagecolor="#ffffff" showgrid="false">
	</sodipodi:namedview>
<path id="path27711" class="st0" d="M178,305.6l-0.4,0.3"/>
<path id="path27713" class="st0" d="M142.1,289.6v1.2"/>
<path id="path27715" class="st0" d="M140,298.3v0.4l0.7,0.4l0.3,0.4l0.6,0.9l0.5,0"/>
<path id="path27717" class="st0" d="M142.5,300.3l0.7,0.4l1-0.6"/>
<path id="path27719" class="st0" d="M147,299.2l0.3,0.6l-0.9,2.6l7.7,4.6l1-0.6l-0.7-2.8"/>
<path id="path27721" class="st0" d="M158.1,306l-0.9,2.6l7.7,4.6l1-0.6l-0.7-2.8"/>
<path id="path27723" class="st0" d="M168.9,312.3l-0.9,2.6l0.7,0.5l0.3,0.4l0.6,0.9l0.5,0"/>
<path id="path27725" class="st0" d="M170.5,316.4l0.7,0.4"/>
<path id="path27727" class="st0" d="M170.9,314.1v-0.8"/>
<path id="path27729" class="st0" d="M170.9,312.9v-0.8"/>
<path id="path27731" class="st0" d="M172.2,312.9l1-0.6"/>
<path id="path27733" class="st0" d="M172.2,311.2l-2.7-0.5l1-0.6"/>
<path id="path27735" class="st0" d="M169.5,310.8l-0.3-0.6"/>
<path id="path27737" class="st0" d="M170.5,310.2l-0.3-0.6"/>
<path id="path27739" class="st0" d="M169.1,310.2V309"/>
<path id="path27741" class="st0" d="M170.1,309.6v-4"/>
<path id="path27743" class="st0" d="M172.2,307.7l1-0.6"/>
<path id="path27745" class="st0" d="M170.9,304.1v-0.8"/>
<path id="path27747" class="st0" d="M161.8,293.7l-0.7-0.4l1-0.6"/>
<path id="path27749" class="st0" d="M161.2,293.3v-1.5"/>
<path id="path27751" class="st0" d="M150.1,286.9l-0.7-0.4l0.7-0.4"/>
<path id="path27753" class="st0" d="M149.4,286.1l0.7-0.4"/>
<path id="path27755" class="st0" d="M140,280.7l0.9-0.5"/>
<path id="path27757" class="st0" d="M142.1,293.4l0.8,0.1"/>
<path id="path27759" class="st0" d="M142.1,293.4l0.5-0.3"/>
<path id="path27761" class="st0" d="M172.7,302.5l0.5-0.3"/>
<path id="path27763" class="st0" d="M172.7,314.6l0.5-0.3"/>
<path id="path27765" class="st0" d="M169.1,306.3l0.5-0.3"/>
<path id="path27767" class="st0" d="M169.6,308.7v-2.7"/>
<path id="path27769" class="st0" d="M169.1,309l0.5-0.3"/>
<path id="path27771" class="st0" d="M165.8,309.5l1.7,1"/>
<path id="path27773" class="st0" d="M165.3,309.8l0.5-0.3"/>
<path id="path27775" class="st0" d="M167.6,311.1l1,0.6"/>
<path id="path27777" class="st0" d="M154.9,303.2l1.7,1"/>
<path id="path27779" class="st0" d="M154.4,303.5l0.5-0.3"/>
<path id="path27781" class="st0" d="M156.8,304.9l1,0.6"/>
<path id="path27783" class="st0" d="M143.6,297.3l0.5-0.3"/>
<path id="path27785" class="st0" d="M146,298.6l1,0.6"/>
<path id="path27787" class="st0" d="M168.3,306.3L168,307c-0.1,0.6,0.6,1.8,1.2,2"/>
<path id="path27789" class="st0" d="M165.6,309l-0.3,0.8"/>
<path id="path27791" class="st0" d="M154.8,302.8l-0.3,0.8"/>
<path id="path27793" class="st0" d="M144,296.5l-0.3,0.8"/>
<path id="path27795" class="st0" d="M142.6,291.1v2"/>
<path id="path27797" class="st0" d="M142.5,300.3l-0.5,0.3"/>
<path id="path27799" class="st0" d="M170.5,316.4l-0.5,0.3"/>
<path id="path27801" class="st0" d="M168.6,306.2l-0.1,0.5c-0.1,0.6,0.6,1.8,1.2,2"/>
<path id="path27803" class="st0" d="M185.3,307.2l-1,0.6"/>
<path id="path27805" class="st0" d="M173.1,165.1l0.5-0.8"/>
<path id="path27807" class="st0" d="M176.6,159.3l0.5-0.8"/>
<path id="path27809" class="st0" d="M187.8,160l0.5-0.8"/>
<path id="path27811" class="st0" d="M178.1,175.8l0.5-0.8"/>
<path id="path27813" class="st0" d="M181.6,170l0.5-0.8"/>
<path id="path27815" class="st0" d="M184.2,165.8l0.5-0.8"/>
<path id="path27817" class="st0" d="M182.8,149.2l0.5-0.8"/>
<path id="path27819" class="st0" d="M191.6,135.1l0.5-0.8"/>
<path id="path27821" class="st0" d="M200.2,140l0.5-0.8"/>
<path id="path27823" class="st0" d="M190.4,155.8l0.5-0.8"/>
<path id="path27825" class="st0" d="M188.3,140l0-0.4"/>
<path id="path27827" class="st0" d="M194,150l0.5-0.8"/>
<path id="path27829" class="st0" d="M196.6,145.8l0.5-0.8"/>
<path id="path27831" class="st0" d="M202.8,135.8l0.5-0.8"/>
<path id="path27833" class="st0" d="M197.8,125.1l0.5-0.8"/>
<path id="path27835" class="st0" d="M202.1,121.1l0.4,0.3"/>
<path id="path27837" class="st0" d="M205.3,123.4l0.4,0.3"/>
<path id="path27839" class="st0" d="M158.1,189.2l0.5-0.8"/>
<path id="path27841" class="st0" d="M166.8,175.1l0.5-0.8"/>
<path id="path27843" class="st0" d="M175.5,180l0.5-0.8"/>
<path id="path27845" class="st0" d="M165.7,195.8l0.5-0.8"/>
<path id="path27847" class="st0" d="M163.5,179.9l0-0.4"/>
<path id="path27849" class="st0" d="M169.3,190l0.5-0.8"/>
<path id="path27851" class="st0" d="M171.9,185.8l0.5-0.8"/>
<path id="path27853" class="st0" d="M163.6,199.2l-0.5,0.8"/>
<path id="path27855" class="st0" d="M150.7,204.2l0.4,0.3"/>
<path id="path27857" class="st0" d="M210.6,126.6l-7.4,12l-12.4,20l-12.4,20l-12.4,20l-6.8,11"/>
<path id="path27859" class="st0" d="M185.9,143.5l0.3-0.2"/>
<path id="path27861" class="st0" d="M188.3,139.5l-0.3,0.2"/>
<path id="path27863" class="st0" d="M161.1,183.5l0.3-0.2"/>
<path id="path27865" class="st0" d="M163.5,179.5l-0.3,0.2"/>
<path id="path27867" class="st0" d="M205.5,123l0.5,0.3"/>
<path id="path27869" class="st0" d="M150.6,204.3l0.5,0.3"/>
<path id="path27871" class="st0" d="M228.1,195.7l3.1-5"/>
<path id="path27873" class="st0" d="M238.9,180.4l-1-0.6l8.2-13.3"/>
<path id="path27875" class="st0" d="M256.6,151.8l-1-0.6"/>
<path id="path27877" class="st0" d="M171.4,219.7l-0.7,1.2"/>
<path id="path27879" class="st0" d="M172.1,220.2l-0.7,1.2l-1.7,2.8l-0.7,1.2"/>
<path id="path27881" class="st0" d="M168.2,224.9c-0.1,0.2-0.1,0.5,0.1,0.6"/>
<path id="path27883" class="st0" d="M141.1,209.3l0.7-1.2"/>
<path id="path27885" class="st0" d="M140.8,203l0.7,0.5"/>
<path id="path27887" class="st0" d="M140.8,203l1.6-2.6"/>
<path id="path27889" class="st0" d="M142.7,200.6l0.6,0.4"/>
<path id="path27891" class="st0" d="M163.7,213.7l0.6,0.4"/>
<path id="path27893" class="st0" d="M163.5,214.1l0.7,0.4"/>
<path id="path27895" class="st0" d="M165.1,212.8l9.9,5.7l0.7,0.5"/>
<path id="path27897" class="st0" d="M174.4,219.5l0.7,0.4"/>
<path id="path27899" class="st0" d="M171,221.2l-1.7,2.8"/>
<path id="path27901" class="st0" d="M170.7,220.9c-0.5-0.4-1.6,0-2,0.7c-0.5,0.6-0.4,1.8,0.2,2.1"/>
<path id="path27903" class="st0" d="M170.7,220.9l0.3,0.2"/>
<path id="path27905" class="st0" d="M136.2,212.6l-2.1,3.4"/>
<path id="path27907" class="st0" d="M131,221l-2.1,3.4"/>
<path id="path27909" class="st0" d="M159.4,243l0.5-0.8"/>
<path id="path27911" class="st0" d="M162,238.8l0.5-0.8"/>
<path id="path27913" class="st0" d="M164.5,234.7l0.5-0.8"/>
<path id="path27915" class="st0" d="M167.1,230.5l0.5-0.8"/>
<path id="path27917" class="st0" d="M147.2,259.5c-0.2-0.1-0.5,0-0.6,0.2l-0.7,1.2"/>
<path id="path27919" class="st0" d="M147.3,260.2l-0.7,1.2l-1.7,2.8l-0.7,1.2"/>
<path id="path27921" class="st0" d="M116.4,249.3l0.7-1.2"/>
<path id="path27923" class="st0" d="M116,243l0.7,0.5"/>
<path id="path27925" class="st0" d="M116,243l1.6-2.6"/>
<path id="path27927" class="st0" d="M119.1,240.2l2.1-3.4"/>
<path id="path27929" class="st0" d="M120.7,235.4l1.6-2.6"/>
<path id="path27931" class="st0" d="M125,235.4l0.7-1.2"/>
<path id="path27933" class="st0" d="M124.6,229.1l0.7,0.5"/>
<path id="path27935" class="st0" d="M155.3,245.8l-0.7,1.2"/>
<path id="path27937" class="st0" d="M155.9,246.3l-0.7,1.2l-1.7,2.8l-0.7,1.2"/>
<path id="path27939" class="st0" d="M152.1,251c-0.1,0.2-0.1,0.5,0.1,0.6"/>
<path id="path27941" class="st0" d="M152.7,253.9l-0.5,0.8"/>
<path id="path27943" class="st0" d="M150.1,258.1l-0.5,0.8"/>
<path id="path27945" class="st0" d="M127.5,231.4l0.7-1.2"/>
<path id="path27947" class="st0" d="M118.9,245.3l0.7-1.2"/>
<path id="path27949" class="st0" d="M153.1,250l1.7-2.8l-0.3-0.2"/>
<path id="path27951" class="st0" d="M154.9,247.2c-0.5-0.4-1.6,0-2,0.7c-0.5,0.6-0.4,1.6,0.1,2"/>
<path id="path27953" class="st0" d="M154.5,247l-1.1-0.1l-1,0.8l-0.3,1.2l0.5,0.8"/>
<path id="path27955" class="st0" d="M144.5,263.9l1.7-2.8l-0.3-0.2"/>
<path id="path27957" class="st0" d="M146.3,261.1c-0.5-0.4-1.6,0-2,0.7c-0.5,0.6-0.4,1.6,0.1,2"/>
<path id="path27959" class="st0" d="M145.9,260.9l-1.1-0.1l-1,0.8l-0.3,1.2l0.5,0.8"/>
<path id="path27961" class="st0" d="M106.7,260.3l2.8-4.6"/>
<path id="path27963" class="st0" d="M118.4,265l-0.7-0.4"/>
<path id="path27965" class="st0" d="M128.2,270.6L128,271"/>
<path id="path27967" class="st0" d="M128.9,271l-0.7-0.4"/>
<path id="path27969" class="st0" d="M141,272.8l-0.5,0.8"/>
<path id="path27971" class="st0" d="M106.7,260.3l0.7,0.5"/>
<path id="path27973" class="st0" d="M117.8,264.6l0.6,0.4"/>
<path id="path27975" class="st0" d="M128,271l0.6,0.4"/>
<path id="path27977" class="st0" d="M128.2,270.6l0.6,0.4"/>
<path id="path27979" class="st0" d="M127.9,272.6l0.7,0.5"/>
<path id="path27981" class="st0" d="M143.6,205.3l0.7-1.2"/>
<path id="path27983" class="st0" d="M138.5,206.8l-0.7,1.2l-2.1,3.3"/>
<path id="path27985" class="st0" d="M109,254.4l4-6.4l0.7-1.2"/>
<path id="path27987" class="st0" d="M124.6,229.1l0.7-1.2l2.1-3.3"/>
<path id="path27989" class="st0" d="M127.6,231.4l0.3,0.2"/>
<path id="path27991" class="st0" d="M118.9,245.3l0.3,0.2"/>
<path id="path27993" class="st0" d="M143.9,205.6l-1.6,2.7"/>
<path id="path27995" class="st0" d="M119.2,245.5l-1.6,2.7"/>
<path id="path27997" class="st0" d="M169.1,223.8c-0.5-0.4-0.6-1.4-0.1-2c0.4-0.7,1.5-1.1,2-0.7"/>
<path id="path27999" class="st0" d="M196.2,144.4l0.7,0.5"/>
<path id="path28001" class="st0" d="M190,154.4l0.7,0.5"/>
<path id="path28003" class="st0" d="M202.4,134.4l0.7,0.5"/>
<path id="path28005" class="st0" d="M171.5,184.3l0.7,0.5"/>
<path id="path28007" class="st0" d="M168.4,189.3l0.7,0.5"/>
<path id="path28009" class="st0" d="M165.3,194.3l0.7,0.5"/>
<path id="path28011" class="st0" d="M183.8,164.3l0.7,0.5"/>
<path id="path28013" class="st0" d="M177.7,174.3l0.7,0.5"/>
<path id="path28015" class="st0" d="M251.2,101.4v3.8"/>
<path id="path28017" class="st0" d="M283.9,124.8l-0.5,0.3"/>
<path id="path28019" class="st0" d="M283.9,128l-0.5,0.3"/>
<path id="path28021" class="st0" d="M214,128.2l0.7,0.5"/>
<path id="path28023" class="st0" d="M283,139.3v-3.2"/>
<path id="path28025" class="st0" d="M283,139.3l-0.5,0.3"/>
<path id="path28027" class="st0" d="M283,136.1l-0.5,0.3"/>
<path id="path28029" class="st0" d="M235.1,140.2l-1-0.6"/>
<path id="path28031" class="st0" d="M233.1,139l1,0.6"/>
<path id="path28033" class="st0" d="M127.8,231.6l-1.6,2.7"/>
<path id="path28035" class="st0" d="M229.1,127.2l-0.3-0.2"/>
<path id="path28037" class="st0" d="M217,128.9l0.7,0.5"/>
<path id="path28039" class="st0" d="M218,127.3l-0.7-0.4L218,127.3"/>
<path id="path28041" class="st0" d="M217.3,126.9l-0.2,0.4"/>
<path id="path28043" class="st0" d="M207.6,121.3l-0.7-0.4L207.6,121.3"/>
<path id="path28045" class="st0" d="M194.6,116l1.9-3.1"/>
<path id="path28047" class="st0" d="M199.2,115.4l0.7-1.2"/>
<path id="path28049" class="st0" d="M230.1,125.6c-0.2-0.1-0.5,0-0.6,0.2l-0.7,1.2"/>
<path id="path28051" class="st0" d="M201.7,111.4l0.7-1.2"/>
<path id="path28053" class="st0" d="M227.3,130l1.7-2.8c-0.5-0.4-1.6,0-2,0.7c-0.5,0.6-0.4,1.6,0.1,2"/>
<path id="path28055" class="st0" d="M228.7,127c-0.5-0.4-1.6,0-2,0.7c-0.5,0.6-0.4,1.8,0.2,2.1"/>
<path id="path28057" class="st0" d="M241.8,109.7l-0.5,0.8"/>
<path id="path28059" class="st0" d="M239.2,113.9l-0.5,0.8"/>
<path id="path28061" class="st0" d="M236.7,118.1l-0.5,0.8"/>
<path id="path28063" class="st0" d="M234.1,122.3l-0.5,0.8"/>
<path id="path28065" class="st0" d="M203.1,104.4l2.1-3.4"/>
<path id="path28067" class="st0" d="M208.3,96.1l2.1-3.4"/>
<path id="path28069" class="st0" d="M216,81.4l0.7,0.5"/>
<path id="path28071" class="st0" d="M219.8,75.3l-3.8,6.1"/>
<path id="path28073" class="st0" d="M253.1,94.5l-33.3-19.2"/>
<path id="path28075" class="st0" d="M245.9,99.3c-0.5-0.4-1.6,0-2,0.7c-0.5,0.6-0.4,1.8,0.2,2.1"/>
<path id="path28077" class="st0" d="M245.9,99.3l0.3,0.2c-0.5-0.4-1.6,0-2,0.7c-0.5,0.6-0.4,1.6,0.1,2l1.9-2.7"/>
<path id="path28079" class="st0" d="M230.1,126.3l-0.7,1.2l-1.7,2.8l-0.7,1.2"/>
<path id="path28081" class="st0" d="M213.7,85.1l-1.7,2.8l-2.1,3.3"/>
<path id="path28083" class="st0" d="M202,111.7l-1.7,2.7"/>
<path id="path28085" class="st0" d="M140,279.6l-1-0.6"/>
<path id="path28087" class="st0" d="M140,287.4l-1-0.6"/>
<path id="path28089" class="st0" d="M140,298.8l-1-0.6"/>
<path id="path28091" class="st0" d="M151.9,260.2l-1-0.6"/>
<path id="path28093" class="st0" d="M189.9,290l-0.7-0.5"/>
<path id="path28095" class="st0" d="M196.1,280l-0.7-0.5"/>
<path id="path28097" class="st0" d="M214.6,250l-0.7-0.5"/>
<path id="path28099" class="st0" d="M202.2,270l-0.7-0.5"/>
<path id="path28101" class="st0" d="M208.4,260l-0.7-0.5"/>
<path id="path28103" class="st0" d="M181,137.9l4.1-6.7"/>
<path id="path28105" class="st0" d="M194.6,116l-2.8,4.5"/>
<path id="path28107" class="st0" d="M202.6,105.2l0.5-0.8"/>
<path id="path28109" class="st0" d="M201.6,104.6l8.2-13.3"/>
<path id="path28111" class="st0" d="M108.8,270.4v1.2"/>
<path id="path28113" class="st0" d="M105.7,272.8l1-0.6"/>
<path id="path28115" class="st0" d="M105.7,272.8v1.7"/>
<path id="path28117" class="st0" d="M106.7,279.1v0.4l0.7,0.4l0.3,0.4l0.6,0.9l0.5,0"/>
<path id="path28119" class="st0" d="M109.3,281l0.7,0.4l1-0.6"/>
<path id="path28121" class="st0" d="M113.7,280l0.3,0.6l-0.9,2.6l7.7,4.6l1-0.6l-0.7-2.8"/>
<path id="path28123" class="st0" d="M124.8,286.8l-0.9,2.6l7.7,4.6l1-0.6l-0.7-2.8"/>
<path id="path28125" class="st0" d="M135.6,293.1l-0.9,2.6l0.7,0.5l0.3,0.4l0.6,0.9l0.5,0"/>
<path id="path28127" class="st0" d="M137.6,294.9v-0.8"/>
<path id="path28129" class="st0" d="M137.6,293.7v-0.8"/>
<path id="path28131" class="st0" d="M138.9,292l-2.7-0.5l1-0.6"/>
<path id="path28133" class="st0" d="M136.2,291.6l-0.3-0.6"/>
<path id="path28135" class="st0" d="M137.2,291l-0.3-0.6"/>
<path id="path28137" class="st0" d="M135.9,291v-1.2"/>
<path id="path28139" class="st0" d="M136.9,290.4v-4"/>
<path id="path28141" class="st0" d="M137.6,284.8v-0.8"/>
<path id="path28143" class="st0" d="M128.5,274.5l-0.7-0.4l1-0.6"/>
<path id="path28145" class="st0" d="M127.9,274.1v-1.5"/>
<path id="path28147" class="st0" d="M116.8,267.7l-0.7-0.4l0.7-0.4"/>
<path id="path28149" class="st0" d="M116.1,266.9l0.7-0.4"/>
<path id="path28151" class="st0" d="M106.7,261.5l0.9-0.5"/>
<path id="path28153" class="st0" d="M105.7,267.6v1.7"/>
<path id="path28155" class="st0" d="M108.8,274.2l0.8,0.1"/>
<path id="path28157" class="st0" d="M108.8,274.2l0.5-0.3"/>
<path id="path28159" class="st0" d="M135.9,287.1l0.5-0.3"/>
<path id="path28161" class="st0" d="M136.4,289.5v-2.7"/>
<path id="path28163" class="st0" d="M135.9,289.8l0.5-0.3"/>
<path id="path28165" class="st0" d="M132.5,290.3l1.7,1"/>
<path id="path28167" class="st0" d="M132,290.6l0.5-0.3"/>
<path id="path28169" class="st0" d="M134.3,291.9l1,0.6"/>
<path id="path28171" class="st0" d="M121.7,284l1.7,1"/>
<path id="path28173" class="st0" d="M121.2,284.3l0.5-0.3"/>
<path id="path28175" class="st0" d="M123.5,285.7l1,0.6"/>
<path id="path28177" class="st0" d="M110.4,278.1l0.5-0.3"/>
<path id="path28179" class="st0" d="M112.7,279.4l1,0.6"/>
<path id="path28181" class="st0" d="M135,287l-0.3,0.8c-0.1,0.6,0.6,1.8,1.2,2"/>
<path id="path28183" class="st0" d="M132.3,289.8l-0.3,0.8"/>
<path id="path28185" class="st0" d="M121.5,283.6l-0.3,0.8"/>
<path id="path28187" class="st0" d="M110.7,277.3l-0.3,0.8"/>
<path id="path28189" class="st0" d="M109.3,271.9v2"/>
<path id="path28191" class="st0" d="M109.3,281l-0.5,0.3"/>
<path id="path28193" class="st0" d="M135.3,287l-0.1,0.5c-0.1,0.6,0.6,1.8,1.2,2"/>
<path id="path28195" class="st0" d="M268.6,144.5l0.5-0.8"/>
<path id="path28197" class="st0" d="M284.4,118.3v14.4l-1,0.6"/>
<path id="path28199" class="st0" d="M283.5,134.1v8.6"/>
<path id="path28201" class="st0" d="M276.2,151l0.5-0.8"/>
<path id="path28203" class="st0" d="M283.9,128v-3.2"/>
<path id="path28205" class="st0" d="M249.3,175.2l0-0.4"/>
<path id="path28207" class="st0" d="M252.6,170.3l0.5-0.8"/>
<path id="path28209" class="st0" d="M261.2,175.2l0.5-0.8"/>
<path id="path28211" class="st0" d="M255.9,182.9l-1.1,3.1"/>
<path id="path28213" class="st0" d="M252,184.1l2.3-2.3"/>
<path id="path28215" class="st0" d="M247.5,180.9l2.3-2.3l0.2-0.4"/>
<path id="path28217" class="st0" d="M264.3,170.2l-0.5,0.8"/>
<path id="path28219" class="st0" d="M274.1,154.4l-0.5,0.8"/>
<path id="path28221" class="st0" d="M259.3,159.5l-0.5,0.8"/>
<path id="path28223" class="st0" d="M270.1,160.7l-0.5,0.8"/>
<path id="path28225" class="st0" d="M267.9,164.4l-0.5,0.8"/>
<path id="path28227" class="st0" d="M264.1,156.5l-0.5-0.3"/>
<path id="path28229" class="st0" d="M263.9,156.9l-0.4-0.3"/>
<path id="path28231" class="st0" d="M264.7,154.6l0.4,0.3L264.7,154.6z"/>
<path id="path28233" class="st0" d="M265.1,154.9l-0.2,0.4"/>
<path id="path28235" class="st0" d="M266.5,155.8l0.4,0.3L266.5,155.8z"/>
<path id="path28237" class="st0" d="M266.9,156.2l-0.2,0.4"/>
<path id="path28239" class="st0" d="M283.5,142.7l-6.9,11.1l-12.4,20l-6.2,10"/>
<path id="path28241" class="st0" d="M274,134.8l-0.3,0.2"/>
<path id="path28243" class="st0" d="M282.7,139.7l0.2-0.4"/>
<path id="path28245" class="st0" d="M283.7,128.4l0.2-0.4"/>
<path id="path28247" class="st0" d="M249.3,174.8l-0.3,0.2"/>
<path id="path28249" class="st0" d="M198.8,109.1l0.7,0.5"/>
<path id="path28251" class="st0" d="M140,279.6v1.2"/>
<path id="path28253" class="st0" d="M215.1,86.6l2.8-4.5"/>
<path id="path28255" class="st0" d="M200.8,109.8l-2.8,4.5"/>
<path id="path28257" class="st0" d="M246.6,104.3l2.4-3.9"/>
<path id="path28259" class="st0" d="M229.5,132l2.4-3.9"/>
<path id="path28261" class="st0" d="M172.6,220.4l-0.4-0.2"/>
<path id="path28263" class="st0" d="M141,288.9v3.6"/>
<path id="path28265" class="st0" d="M174.7,222.7l-2.3,3.7"/>
<path id="path28267" class="st0" d="M184.3,303.9v0.8"/>
<path id="path28269" class="st0" d="M229.1,196.2l0.5-0.8"/>
<path id="path28271" class="st0" d="M238.9,180.4l0.5-0.8"/>
<path id="path28273" class="st0" d="M253.8,156.3l0.5-0.8"/>
<path id="path28275" class="st0" d="M214.2,220.4l0.5-0.8"/>
<path id="path28277" class="st0" d="M225.1,134.6l-0.7-0.4"/>
<path id="path28279" class="st0" d="M235.1,140.2l-0.4-0.3"/>
<path id="path28281" class="st0" d="M235.9,124.4l0.5-0.8"/>
<path id="path28283" class="st0" d="M206.9,120.9l-0.2,0.4"/>
<path id="path28285" class="st0" d="M271.6,138.7l0.3-0.2"/>
<path id="path28287" class="st0" d="M179.8,304.9l-0.7-0.4"/>
<path id="path28289" class="st0" d="M179.8,311.9l0.4-0.2"/>
<path id="path28291" class="st0" d="M180.2,314l-1-0.6"/>
<path id="path28293" class="st0" d="M180.2,314l2.8-1.6v-1.5"/>
<path id="path28295" class="st0" d="M183.6,310.8l3.5-2v-10.4"/>
<path id="path28297" class="st0" d="M187.5,294.4l-0.5,0.8"/>
<path id="path28299" class="st0" d="M177,292.6l-0.5,0.8"/>
<path id="path28301" class="st0" d="M173.6,305.3v0.8"/>
<path id="path28303" class="st0" d="M173.6,311.4v0.8"/>
<path id="path28305" class="st0" d="M172.2,317.4l-1-0.6"/>
<path id="path28307" class="st0" d="M174,316l0.7-0.4"/>
<path id="path28309" class="st0" d="M174.6,317.2l-1-0.6"/>
<path id="path28311" class="st0" d="M174.6,317.2l2.8-1.6v-2.3l0.4-0.2v-7"/>
<path id="path28313" class="st0" d="M180.1,304.7l-0.7-0.4"/>
<path id="path28315" class="st0" d="M185.7,303.1v0.8"/>
<path id="path28317" class="st0" d="M185.7,306.2v0.8"/>
<path id="path28319" class="st0" d="M247.6,176.4l0.3,0.2"/>
<path id="path28321" class="st0" d="M248.2,176.8l1.6,1.1"/>
<path id="path28323" class="st0" d="M247.5,180.9l-0.2,0.4"/>
<path id="path28325" class="st0" d="M254.4,181.4l-0.2,0.4"/>
<path id="path28327" class="st0" d="M252,184.1l-0.2,0.4"/>
<path id="path28329" class="st0" d="M251.4,191l0.5-0.8"/>
<path id="path28331" class="st0" d="M243.9,184.5l0.5-0.8"/>
<path id="path28333" class="st0" d="M219.1,224.5l0.5-0.8"/>
<path id="path28335" class="st0" d="M227.9,210.3l0.5-0.8"/>
<path id="path28337" class="st0" d="M236.5,215.2l0.5-0.8"/>
<path id="path28339" class="st0" d="M226.7,231l0.5-0.8"/>
<path id="path28341" class="st0" d="M224.5,215.2l0-0.4"/>
<path id="path28343" class="st0" d="M230.3,225.2l0.5-0.8"/>
<path id="path28345" class="st0" d="M232.9,221l0.5-0.8"/>
<path id="path28347" class="st0" d="M234.1,200.3l0.5-0.8"/>
<path id="path28349" class="st0" d="M237.6,194.5l0.5-0.8"/>
<path id="path28351" class="st0" d="M248.8,195.2l0.5-0.8"/>
<path id="path28353" class="st0" d="M239.1,211l0.5-0.8"/>
<path id="path28355" class="st0" d="M242.6,205.2l0.5-0.8"/>
<path id="path28357" class="st0" d="M245.2,201l0.5-0.8"/>
<path id="path28359" class="st0" d="M194.4,264.4l0.5-0.8"/>
<path id="path28361" class="st0" d="M203.1,250.3l0.5-0.8"/>
<path id="path28363" class="st0" d="M211.7,255.2l0.5-0.8"/>
<path id="path28365" class="st0" d="M202,271l0.5-0.8"/>
<path id="path28367" class="st0" d="M199.8,255.2l0-0.4"/>
<path id="path28369" class="st0" d="M205.6,265.2l0.5-0.8"/>
<path id="path28371" class="st0" d="M208.1,261l0.5-0.8"/>
<path id="path28373" class="st0" d="M214.8,250.2l-0.5,0.8"/>
<path id="path28375" class="st0" d="M224.6,234.4l-0.5,0.8"/>
<path id="path28377" class="st0" d="M213.4,233.7l-0.5,0.8"/>
<path id="path28379" class="st0" d="M221,240.2l-0.5,0.8"/>
<path id="path28381" class="st0" d="M218.7,243.9l-0.5,0.8"/>
<path id="path28383" class="st0" d="M212.5,240l-0.2,0.4"/>
<path id="path28385" class="st0" d="M212,239.7l0.4,0.3"/>
<path id="path28387" class="st0" d="M211.2,242l-0.4-0.3"/>
<path id="path28389" class="st0" d="M184.6,280.3l0.5-0.8"/>
<path id="path28391" class="st0" d="M188.2,274.5l0.5-0.8"/>
<path id="path28393" class="st0" d="M199.4,275.2l0.5-0.8"/>
<path id="path28395" class="st0" d="M189.6,291l0.5-0.8"/>
<path id="path28397" class="st0" d="M193.2,285.2l0.5-0.8"/>
<path id="path28399" class="st0" d="M195.8,281l0.5-0.8"/>
<path id="path28401" class="st0" d="M211.5,241.6l-0.5-0.3"/>
<path id="path28403" class="st0" d="M212.5,240l-0.5-0.3"/>
<path id="path28405" class="st0" d="M187.1,298.5l2.9-4.7l12.4-20l12.4-20l12.4-20l12.4-20l12.4-20l6.2-10"/>
<path id="path28407" class="st0" d="M214.3,241.3l-0.2,0.4"/>
<path id="path28409" class="st0" d="M246.9,178.7l0.3-0.2"/>
<path id="path28411" class="st0" d="M222.1,218.7l0.3-0.2"/>
<path id="path28413" class="st0" d="M224.6,214.7l-0.3,0.2"/>
<path id="path28415" class="st0" d="M197.4,258.7l0.3-0.2"/>
<path id="path28417" class="st0" d="M199.8,254.7l-0.3,0.2"/>
<path id="path28419" class="st0" d="M178.8,304.7v6.7"/>
<path id="path28421" class="st0" d="M179.2,311.5v1.9"/>
<path id="path28423" class="st0" d="M246.8,147.2l0.7,0.5l5.5,3.2l2,1.2"/>
<path id="path28425" class="st0" d="M275.8,149.6l0.7,0.5"/>
<path id="path28427" class="st0" d="M225.1,209.7l0.5-0.8"/>
<path id="path28429" class="st0" d="M233.7,198.9l0.7,0.5"/>
<path id="path28431" class="st0" d="M232.3,198.1l0.5-0.8"/>
<path id="path28433" class="st0" d="M234.9,193.9l0.5-0.8"/>
<path id="path28435" class="st0" d="M243.5,183l0.7,0.5"/>
<path id="path28437" class="st0" d="M242.1,182.3l0.5-0.8"/>
<path id="path28439" class="st0" d="M244.7,178.1l0.5-0.8"/>
<path id="path28441" class="st0" d="M247.3,173.9l0.5-0.8"/>
<path id="path28443" class="st0" d="M249.9,169.7l0.5-0.8"/>
<path id="path28445" class="st0" d="M258.4,158.9l0.7,0.5"/>
<path id="path28447" class="st0" d="M257.1,158.1l0.5-0.8"/>
<path id="path28449" class="st0" d="M252.9,155.7l-6.7,10.8"/>
<path id="path28451" class="st0" d="M246.7,167.9l-2.1,3.4"/>
<path id="path28453" class="st0" d="M241.5,176.2l-2.1,3.4"/>
<path id="path28455" class="st0" d="M237.9,179.8l-6.7,10.8"/>
<path id="path28457" class="st0" d="M231.7,192l-2.1,3.4"/>
<path id="path28459" class="st0" d="M228.1,195.7l-6.7,10.8"/>
<path id="path28461" class="st0" d="M221.9,207.9l-2.1,3.4"/>
<path id="path28463" class="st0" d="M216.8,216.2l-2.1,3.4"/>
<path id="path28465" class="st0" d="M210.2,233.9l0.5-0.8"/>
<path id="path28467" class="st0" d="M218.7,223l0.7,0.5"/>
<path id="path28469" class="st0" d="M217.4,222.3l0.5-0.8"/>
<path id="path28471" class="st0" d="M220,218.1l0.5-0.8"/>
<path id="path28473" class="st0" d="M222.5,218.5l2.1-3.3"/>
<path id="path28475" class="st0" d="M222.5,213.9l0.5-0.8"/>
<path id="path28477" class="st0" d="M246.9,178.3l0.3,0.2"/>
<path id="path28479" class="st0" d="M248.9,174.9l0.3,0.2"/>
<path id="path28481" class="st0" d="M222.2,218.3l0.3,0.2"/>
<path id="path28483" class="st0" d="M224.2,214.9l0.3,0.2"/>
<path id="path28485" class="st0" d="M246.9,178.3l0.4,0.2"/>
<path id="path28487" class="st0" d="M222.1,218.3l0.4,0.2"/>
<path id="path28489" class="st0" d="M109,254.4l-3.3,5.4l1,0.6"/>
<path id="path28491" class="st0" d="M105.7,259.8v7.9"/>
<path id="path28493" class="st0" d="M105.7,274.5v4.5l1,0.6"/>
<path id="path28495" class="st0" d="M176.9,144.6l4.1-6.7"/>
<path id="path28497" class="st0" d="M152.2,184.6l8.2-13.3"/>
<path id="path28499" class="st0" d="M167.1,160.4l3.1-5"/>
<path id="path28501" class="st0" d="M127.4,224.6l8.2-13.3"/>
<path id="path28503" class="st0" d="M142.4,200.4l1,0.6"/>
<path id="path28505" class="st0" d="M117.6,240.4l3.1-5"/>
<path id="path28507" class="st0" d="M177.6,223.3l-0.7,1.2"/>
<path id="path28509" class="st0" d="M205,245.2l0.7,0.5"/>
<path id="path28511" class="st0" d="M203.9,240.1l0.3,0.2"/>
<path id="path28513" class="st0" d="M197,233.4l-0.7-0.4"/>
<path id="path28515" class="st0" d="M196.5,232.6l0.6,0.4"/>
<path id="path28517" class="st0" d="M186.9,225.4l-9.9-5.7"/>
<path id="path28519" class="st0" d="M176,219.8l0.6,0.4"/>
<path id="path28521" class="st0" d="M175.1,227.3l-0.7,1.2"/>
<path id="path28523" class="st0" d="M204.3,240.4l-1.7,2.8"/>
<path id="path28525" class="st0" d="M200.9,248.9l-0.5,0.8"/>
<path id="path28527" class="st0" d="M198.3,253.1l-0.5,0.8"/>
<path id="path28529" class="st0" d="M199.8,255.2l-2.1,3.3"/>
<path id="path28531" class="st0" d="M195.8,257.3l-0.5,0.8"/>
<path id="path28533" class="st0" d="M193.2,261.5l-0.5,0.8"/>
<path id="path28535" class="st0" d="M194,263l0.7,0.5"/>
<path id="path28537" class="st0" d="M162.2,243.6l2.1-3.4"/>
<path id="path28539" class="st0" d="M167.4,235.3l2.1-3.4"/>
<path id="path28541" class="st0" d="M199.5,254.9l0.3,0.2"/>
<path id="path28543" class="st0" d="M152.9,263.3l-0.7,1.2"/>
<path id="path28545" class="st0" d="M180.3,285.2l0.7,0.5"/>
<path id="path28547" class="st0" d="M177.4,284.6l0.7-1.2l1.7-2.8l0.7-1.2"/>
<path id="path28549" class="st0" d="M179.9,278.9c0.1-0.2,0.4-0.3,0.6-0.2"/>
<path id="path28551" class="st0" d="M184.2,278.8l0.7,0.5"/>
<path id="path28553" class="st0" d="M182.9,278.1l0.5-0.8"/>
<path id="path28555" class="st0" d="M185.5,273.9l0.5-0.8"/>
<path id="path28557" class="st0" d="M188.9,271.2l0.7,0.5"/>
<path id="path28559" class="st0" d="M186,270.7l0.7-1.2l1.7-2.8l0.7-1.2"/>
<path id="path28561" class="st0" d="M161.5,249.4l-0.7,1.2"/>
<path id="path28563" class="st0" d="M154.5,256l-2.1,3.4"/>
<path id="path28565" class="st0" d="M188.2,266.4l-0.3-0.2"/>
<path id="path28567" class="st0" d="M188.2,266.4l-1.7,2.8"/>
<path id="path28569" class="st0" d="M187.8,266.2l0.7-1.2"/>
<path id="path28571" class="st0" d="M179.5,280.4l-0.3-0.2"/>
<path id="path28573" class="st0" d="M179.5,280.4l-1.7,2.8"/>
<path id="path28575" class="st0" d="M179.2,280.1l0.7-1.2"/>
<path id="path28577" class="st0" d="M159,253.4l-0.7,1.2"/>
<path id="path28579" class="st0" d="M150.4,267.3l-0.7,1.2"/>
<path id="path28581" class="st0" d="M173.8,292.8l0.5-0.8"/>
<path id="path28583" class="st0" d="M161.5,289.8l0.7,0.4"/>
<path id="path28585" class="st0" d="M161.2,290.2l0.2-0.4"/>
<path id="path28587" class="st0" d="M142.8,275l-2.8,4.6"/>
<path id="path28589" class="st0" d="M161.2,291.8l0.7,0.5"/>
<path id="path28591" class="st0" d="M161.5,289.8l0.6,0.4"/>
<path id="path28593" class="st0" d="M161.2,290.2l0.6,0.4"/>
<path id="path28595" class="st0" d="M140,279.6l0.7,0.5"/>
<path id="path28597" class="st0" d="M203.9,240.1l0.7-1.2"/>
<path id="path28599" class="st0" d="M202.1,244.6l0.7-1.2l1.7-2.8l0.7-1.2"/>
<path id="path28601" class="st0" d="M201.5,244.7c-0.2-0.1-0.2-0.4-0.1-0.6"/>
<path id="path28603" class="st0" d="M202.1,242.9c-0.6-0.3-0.7-1.4-0.2-2.1c0.4-0.7,1.5-1.1,2-0.7"/>
<path id="path28605" class="st0" d="M185.4,270.8c-0.2-0.1-0.2-0.4-0.1-0.6"/>
<path id="path28607" class="st0" d="M186,268.9l-0.5-0.8l0.3-1.2l1-0.8l1.1,0.1"/>
<path id="path28609" class="st0" d="M177.4,282.9l-0.5-0.8l0.3-1.2l1-0.8l1.1,0.1"/>
<path id="path28611" class="st0" d="M160.8,250.6l0.3,0.2"/>
<path id="path28613" class="st0" d="M177.2,224.8l-1.6,2.7"/>
<path id="path28615" class="st0" d="M159.4,253.5l1.6-2.7"/>
<path id="path28617" class="st0" d="M150.8,267.4l1.6-2.7"/>
<path id="path28619" class="st0" d="M202.4,243c-0.5-0.4-0.6-1.4-0.1-2c0.4-0.7,1.5-1.1,2-0.7"/>
<path id="path28621" class="st0" d="M186.3,269.1c-0.5-0.4-0.6-1.4-0.1-2c0.4-0.7,1.5-1.1,2-0.7"/>
<path id="path28623" class="st0" d="M177.6,283c-0.5-0.4-0.6-1.4-0.1-2c0.4-0.7,1.5-1.1,2-0.7"/>
<path id="path28625" class="st0" d="M179.9,285.1l2.4-3.9"/>
<path id="path28627" class="st0" d="M204.7,245.1l2.4-3.9"/>
<path id="path28629" class="st0" d="M188.6,271.2l2.4-3.9"/>
<path id="path28631" class="st0" d="M181,285.6l2.3-3.7"/>
<path id="path28633" class="st0" d="M205.7,245.6l2.3-3.7"/>
<path id="path28635" class="st0" d="M189.6,271.7l2.3-3.7"/>
<path id="path28637" class="st0" d="M246.8,147.2l0.7,0.4"/>
<path id="path28639" class="st0" d="M105.7,267.6l1,0.6"/>
<path id="path28641" class="st0" d="M177.9,145.2l0.5-0.8"/>
<path id="path28643" class="st0" d="M168.1,161l0.5-0.8"/>
<path id="path28645" class="st0" d="M249.9,146.3l0.2-0.4l0.6,0.4"/>
<path id="path28647" class="st0" d="M250.2,145.9l0.7,0.4"/>
<path id="path28649" class="st0" d="M263.1,151.3l0.7,0.5"/>
<path id="path28651" class="st0" d="M260.2,150.7l0.7-1.2l1.7-2.8l0.7-1.2"/>
<path id="path28653" class="st0" d="M262.7,145c0.1-0.2,0.4-0.3,0.6-0.2"/>
<path id="path28655" class="st0" d="M235.7,129.4l-0.7,1.2"/>
<path id="path28657" class="st0" d="M262.3,146.5l-0.3-0.2"/>
<path id="path28659" class="st0" d="M262.3,146.5l-1.7,2.8"/>
<path id="path28661" class="st0" d="M262,146.2l0.7-1.2"/>
<path id="path28663" class="st0" d="M233.2,133.4l-0.7,1.2"/>
<path id="path28665" class="st0" d="M243.7,111.9l-2.1,3.4"/>
<path id="path28667" class="st0" d="M238.5,120.2l-2.1,3.4"/>
<path id="path28669" class="st0" d="M268.2,143l0.7,0.5"/>
<path id="path28671" class="st0" d="M266.9,142.3l0.5-0.8"/>
<path id="path28673" class="st0" d="M269.5,138.1l0.5-0.8"/>
<path id="path28675" class="st0" d="M272,133.9l0.5-0.8"/>
<path id="path28677" class="st0" d="M274.6,129.7l0.5-0.8"/>
<path id="path28679" class="st0" d="M271.6,138.3l0.3,0.2"/>
<path id="path28681" class="st0" d="M273.7,135l0.3,0.2"/>
<path id="path28683" class="st0" d="M253.1,94.5l33.3,19.2l0.7,0.5"/>
<path id="path28685" class="st0" d="M280.2,123.6l0.7,0.5"/>
<path id="path28687" class="st0" d="M279.1,118.5c-0.5-0.4-1.6,0-2,0.7c-0.5,0.6-0.4,1.8,0.2,2.1"/>
<path id="path28689" class="st0" d="M279.1,118.5l0.3,0.2l-1.7,2.8"/>
<path id="path28691" class="st0" d="M260.2,149c-0.6-0.3-0.7-1.4-0.2-2.1c0.4-0.7,1.5-1.1,2-0.7"/>
<path id="path28693" class="st0" d="M233.6,133.5l1.6-2.7"/>
<path id="path28695" class="st0" d="M260.4,149.1c-0.5-0.4-0.6-1.4-0.1-2c0.4-0.7,1.5-1.1,2-0.7"/>
<path id="path28697" class="st0" d="M277.6,121.4c-0.5-0.4-0.6-1.4-0.1-2c0.4-0.7,1.5-1.1,2-0.7"/>
<path id="path28699" class="st0" d="M252.8,101.1l0.7,0.5"/>
<path id="path28701" class="st0" d="M138,297.6l1,0.6"/>
<path id="path28703" class="st0" d="M251,189.6l0.7,0.5"/>
<path id="path28705" class="st0" d="M263.4,169.6l0.7,0.5"/>
<path id="path28707" class="st0" d="M269.2,160.1l0.7,0.5"/>
<path id="path28709" class="st0" d="M226.3,229.6l0.7,0.5"/>
<path id="path28711" class="st0" d="M232.5,219.6l0.7,0.5"/>
<path id="path28713" class="st0" d="M220.1,239.6l0.7,0.5"/>
<path id="path28715" class="st0" d="M238.7,209.6l0.7,0.5"/>
<path id="path28717" class="st0" d="M244.8,199.6l0.7,0.5"/>
<path id="path28719" class="st0" d="M197.9,231.8l-5.5-3.2l-5.5-3.2"/>
<path id="path28721" class="st0" d="M217.9,129.5l0.7,0.4"/>
<path id="path28723" class="st0" d="M229.1,136.2l0.4,0.3"/>
<path id="path28725" class="st0" d="M232.3,138.5l0.4,0.3"/>
<path id="path28727" class="st0" d="M214.7,128.7l-5.8-3.3"/>
<path id="path28729" class="st0" d="M251.4,148.9l-0.7-0.4"/>
<path id="path28731" class="st0" d="M239.6,142.1l-0.7-0.4"/>
<path id="path28733" class="st0" d="M225.8,135.1l10.9,6.3l10.9,6.3"/>
<path id="path28735" class="st0" d="M158.8,176l2.1-3.4"/>
<path id="path28737" class="st0" d="M160.4,171.3l6.7-10.8"/>
<path id="path28739" class="st0" d="M168.6,160.2l2.1-3.4"/>
<path id="path28741" class="st0" d="M170.2,155.4l6.7-10.8"/>
<path id="path28743" class="st0" d="M178.4,144.4l2.1-3.4"/>
<path id="path28745" class="st0" d="M183.5,136.1l2.1-3.4"/>
<path id="path28747" class="st0" d="M185.1,131.3l6.7-10.8"/>
<path id="path28749" class="st0" d="M196.6,122.1l-0.5,0.8"/>
<path id="path28751" class="st0" d="M197.4,123.7l0.7,0.5"/>
<path id="path28753" class="st0" d="M189.4,133.7l-0.5,0.8"/>
<path id="path28755" class="st0" d="M186.8,137.9l-0.5,0.8"/>
<path id="path28757" class="st0" d="M184.2,142l-0.5,0.8"/>
<path id="path28759" class="st0" d="M181.6,146.2l-0.5,0.8"/>
<path id="path28761" class="st0" d="M182.4,147.8l0.7,0.5"/>
<path id="path28763" class="st0" d="M174.4,157.9l-0.5,0.8"/>
<path id="path28765" class="st0" d="M171.8,162.1l-0.5,0.8"/>
<path id="path28767" class="st0" d="M172.7,163.6l0.7,0.5"/>
<path id="path28769" class="st0" d="M164.6,173.7l-0.5,0.8"/>
<path id="path28771" class="st0" d="M162,177.9l-0.5,0.8"/>
<path id="path28773" class="st0" d="M163.5,179.9l-2.1,3.3l-0.4-0.2"/>
<path id="path28775" class="st0" d="M159.5,182l-0.5,0.8"/>
<path id="path28777" class="st0" d="M156.9,186.2l-0.5,0.8"/>
<path id="path28779" class="st0" d="M157.7,187.8l0.7,0.5"/>
<path id="path28781" class="st0" d="M143.7,200.5l2.3-3.7"/>
<path id="path28783" class="st0" d="M153.7,184.4l2.1-3.4"/>
<path id="path28785" class="st0" d="M187.9,139.7l0.3,0.2"/>
<path id="path28787" class="st0" d="M185.9,143.1l0.3,0.2"/>
<path id="path28789" class="st0" d="M163.2,179.7l0.3,0.2"/>
<path id="path28791" class="st0" d="M161.1,183l0.3,0.2"/>
<path id="path28793" class="st0" d="M239.5,140.3l0.2-0.4"/>
<path id="path28795" class="st0" d="M227.9,135.2l0.7,0.5"/>
<path id="path28797" class="st0" d="M249.8,147.9l0.7,0.5"/>
<path id="path28799" class="st0" d="M213.3,242.9l-0.4-0.3"/>
<path id="path28801" class="st0" d="M197.2,233l-0.7-0.4"/>
<path id="path28803" class="st0" d="M176.7,219.6l-1-0.6"/>
<path id="path28805" class="st0" d="M212.8,242.6l0.5,0.3"/>
<path id="path28807" class="st0" d="M211.5,241.6l-0.4-0.3"/>
<path id="path28809" class="st0" d="M106.7,260.3v1.2"/>
<path id="path28811" class="st0" d="M128.4,225.2l0.5-0.8"/>
<path id="path28813" class="st0" d="M118.6,241l0.5-0.8"/>
<path id="path28815" class="st0" d="M265.9,157.8l-0.4-0.3"/>
<path id="path28817" class="st0" d="M186.2,143.3l-0.4-0.2"/>
<path id="path28819" class="st0" d="M213.2,219.8l8.2-13.3"/>
<path id="path28821" class="st0" d="M180.7,169.3l0.7,0.5"/>
<path id="path28823" class="st0" d="M225.8,135.1l-5.5-3.2l-5.5-3.2"/>
<path id="path28825" class="st0" d="M282,119.1l-1.6-0.9"/>
<path id="path28827" class="st0" d="M214.7,128.6l-0.7-0.4"/>
<path id="path28829" class="st0" d="M231.8,137.9l-0.4-0.3"/>
<path id="path28831" class="st0" d="M231.2,133.5l2.8-4.5"/>
<path id="path28833" class="st0" d="M176,222.9l-2.8,4.5"/>
<path id="path28835" class="st0" d="M162.2,243.6l-0.5,0.8"/>
<path id="path28837" class="st0" d="M167.4,235.3l-0.5,0.8"/>
<path id="path28839" class="st0" d="M159.8,249l-2.8,4.5"/>
<path id="path28841" class="st0" d="M158.6,248.8l-2.3,3.7"/>
<path id="path28843" class="st0" d="M152.4,259.4l-0.5,0.8"/>
<path id="path28845" class="st0" d="M151.2,262.9l-2.8,4.5"/>
<path id="path28847" class="st0" d="M193.3,120.2l-0.5,0.8"/>
<path id="path28849" class="st0" d="M279.9,123.5l2.4-3.9"/>
<path id="path28851" class="st0" d="M266.1,148l-2.3,3.7"/>
<path id="path28853" class="st0" d="M265.2,147.3l-2.4,3.9"/>
<path id="path28855" class="st0" d="M274,135.2l0-0.4"/>
<path id="path28857" class="st0" d="M110.4,278.6l0.9-0.5"/>
<path id="path28859" class="st0" d="M106.7,269.5v2.8"/>
<path id="path28861" class="st0" d="M271.6,138.3l0.4,0.2"/>
<path id="path28863" class="st0" d="M157.7,248.1l-2.4,3.9"/>
<path id="path28865" class="st0" d="M149.1,262l-2.4,3.9"/>
<path id="path28867" class="st0" d="M139,288.5v2.8"/>
<path id="path28869" class="st0" d="M217.9,85.9v-3.8"/>
<path id="path28871" class="st0" d="M172.2,307.7v2.8"/>
<path id="path28873" class="st0" d="M106.7,266.2v0.8"/>
<path id="path28875" class="st0" d="M107.7,269.6v3.6"/>
<path id="path28877" class="st0" d="M115.2,248.2l2.8-4.5"/>
<path id="path28879" class="st0" d="M139.9,208.2l2.8-4.5"/>
<path id="path28881" class="st0" d="M123.8,234.3l2.8-4.5"/>
<path id="path28883" class="st0" d="M173.8,222l-2.4,3.9"/>
<path id="path28885" class="st0" d="M247,99l1.6,0.9"/>
<path id="path28887" class="st0" d="M163.7,213.7l0.7,0.4"/>
<path id="path28889" class="st0" d="M265.4,157.5l0.5,0.3"/>
<path id="path28891" class="st0" d="M264.1,156.5l-0.4-0.3"/>
<path id="path28893" class="st0" d="M177.9,305.5l-0.5,0.3"/>
<path id="path28895" class="st0" d="M185.3,303.3v3.8"/>
<path id="path28897" class="st0" d="M184.3,307v0.8"/>
<path id="path28899" class="st0" d="M139.1,288.5l2.7,0.5"/>
<path id="path28901" class="st0" d="M141.7,294.8l-2.7-2.6l1-0.6"/>
<path id="path28903" class="st0" d="M142.1,293.5l-2-2"/>
<path id="path28905" class="st0" d="M139,292.1l1-0.6"/>
<path id="path28907" class="st0" d="M139,292.1v1.7l1.3,0.8v0.8"/>
<path id="path28909" class="st0" d="M140,295.1v0.4"/>
<path id="path28911" class="st0" d="M140.3,295.7v0.8"/>
<path id="path28913" class="st0" d="M140.3,297.7v0.8"/>
<path id="path28915" class="st0" d="M143.2,300.5l1-0.6"/>
<path id="path28917" class="st0" d="M143.2,300.5l-0.9-3.6"/>
<path id="path28919" class="st0" d="M144.2,300l-0.7-2.7"/>
<path id="path28921" class="st0" d="M142.6,296.7l1,0.6"/>
<path id="path28923" class="st0" d="M154,306.8l1-0.6"/>
<path id="path28925" class="st0" d="M154,306.8l-0.9-3.6"/>
<path id="path28927" class="st0" d="M153.4,303l1,0.6"/>
<path id="path28929" class="st0" d="M164.9,313l1-0.6"/>
<path id="path28931" class="st0" d="M164.9,313l-0.9-3.6"/>
<path id="path28933" class="st0" d="M164.3,309.2l1,0.6"/>
<path id="path28935" class="st0" d="M170.9,316.2v-0.8"/>
<path id="path28937" class="st0" d="M173.2,315.6v-1.3"/>
<path id="path28939" class="st0" d="M170.9,312.2l1.3,0.8v-1.7l1-0.6"/>
<path id="path28941" class="st0" d="M173.2,312.3v-1.7"/>
<path id="path28943" class="st0" d="M172.2,311.2l1-0.6l-2.7-0.5"/>
<path id="path28945" class="st0" d="M169.5,305l2.7,2.6l0.1-1.6"/>
<path id="path28947" class="st0" d="M173.2,307.1v-1.7"/>
<path id="path28949" class="st0" d="M170.9,305.3v-0.8"/>
<path id="path28951" class="st0" d="M173.2,303.5v-1.3"/>
<path id="path28953" class="st0" d="M170.9,302v-0.8"/>
<path id="path28955" class="st0" d="M171.2,298.8l-9.4-5.4l0.9-0.5"/>
<path id="path28957" class="st0" d="M161.2,291.8l-11.1-6.4l1-0.6"/>
<path id="path28959" class="st0" d="M161.7,290.9l-10.6-6.1"/>
<path id="path28961" class="st0" d="M150.1,285.4v1.5"/>
<path id="path28963" class="st0" d="M149.4,286.1l-9.4-5.4v2.7"/>
<path id="path28965" class="st0" d="M140.3,283.6v0.8"/>
<path id="path28967" class="st0" d="M140.3,285.6v0.8"/>
<path id="path28969" class="st0" d="M140,286.2v0.4"/>
<path id="path28971" class="st0" d="M140.3,286.8v0.8"/>
<path id="path28973" class="st0" d="M139,286.8v1.7"/>
<path id="path28975" class="st0" d="M142.6,293.1l0.5,0.2"/>
<path id="path28977" class="st0" d="M142.1,293.4v1.2"/>
<path id="path28979" class="st0" d="M172.7,303.8l0.5-0.3"/>
<path id="path28981" class="st0" d="M172.7,315.9l0.5-0.3"/>
<path id="path28983" class="st0" d="M169.1,306.3l-0.8-0.1"/>
<path id="path28985" class="st0" d="M169.1,306.3v-1.2"/>
<path id="path28987" class="st0" d="M140,285.4v-1.3"/>
<path id="path28989" class="st0" d="M140,297.5v-1.3"/>
<path id="path28991" class="st0" d="M167.6,311.1c0.1-0.6-0.6-1.8-1.2-2l-0.8-0.1"/>
<path id="path28993" class="st0" d="M156.8,304.9c0.1-0.6-0.6-1.8-1.2-2l-0.8-0.1"/>
<path id="path28995" class="st0" d="M144.1,297l1.7,1"/>
<path id="path28997" class="st0" d="M146,298.6c0.1-0.6-0.6-1.8-1.2-2l-0.8-0.1"/>
<path id="path28999" class="st0" d="M142.9,293.5l0.3-0.8c0.1-0.6-0.6-1.8-1.2-2"/>
<path id="path29001" class="st0" d="M165.9,308.9l-0.1,0.5"/>
<path id="path29003" class="st0" d="M155.1,302.7l-0.1,0.5"/>
<path id="path29005" class="st0" d="M144.3,296.5l-0.1,0.5"/>
<path id="path29007" class="st0" d="M171.7,163.1l3.1-5l1,0.6"/>
<path id="path29009" class="st0" d="M172.7,163.6l3.1-5l0.9,0.6"/>
<path id="path29011" class="st0" d="M187.2,158.4l-0.5,0.8l0.4,0.3l0.4,0.3"/>
<path id="path29013" class="st0" d="M177.4,174.2l-0.5,0.8"/>
<path id="path29015" class="st0" d="M183.6,164.2l-0.5,0.8l-1.9,3.6l-0.7,0.6"/>
<path id="path29017" class="st0" d="M181.4,147.2l0.5-0.8"/>
<path id="path29019" class="st0" d="M184,143l3.1-4.9"/>
<path id="path29021" class="st0" d="M189.2,134.7l0.5-0.8l1,0.6"/>
<path id="path29023" class="st0" d="M182.4,147.8l8.2-13.3l0.9,0.6"/>
<path id="path29025" class="st0" d="M199.6,138.4l-0.5,0.8l0.4,0.3l0.4,0.3"/>
<path id="path29027" class="st0" d="M189.8,154.2l-0.5,0.8"/>
<path id="path29029" class="st0" d="M187.9,139.7l-2.1,3.3l0,0.4"/>
<path id="path29031" class="st0" d="M193.4,148.4l-0.5,0.8l0.4,0.3l0.4,0.3"/>
<path id="path29033" class="st0" d="M196,144.2l-0.5,0.8l-1.9,3.6"/>
<path id="path29035" class="st0" d="M206,123.3l4.6,3.3"/>
<path id="path29037" class="st0" d="M202.2,134.2l-0.5,0.8"/>
<path id="path29039" class="st0" d="M196.4,123.1l1,0.6"/>
<path id="path29041" class="st0" d="M196.4,123.1l2.8-4.5l1,0.6"/>
<path id="path29043" class="st0" d="M197.4,123.7l2.8-4.5l2.2,1.5l-0.2,0.4"/>
<path id="path29045" class="st0" d="M202.5,121.4l0.2-0.4"/>
<path id="path29047" class="st0" d="M205.5,122.9l-0.3,0.4"/>
<path id="path29049" class="st0" d="M205.7,123.7l0.2-0.4"/>
<path id="path29051" class="st0" d="M156.7,187.2l8.2-13.3l1,0.6"/>
<path id="path29053" class="st0" d="M157.7,187.8l8.2-13.3l0.9,0.6"/>
<path id="path29055" class="st0" d="M174.8,178.4l-0.5,0.8l0.4,0.3l0.4,0.3"/>
<path id="path29057" class="st0" d="M165.1,194.2l-0.5,0.8"/>
<path id="path29059" class="st0" d="M161.1,183l0,0.4"/>
<path id="path29061" class="st0" d="M168.7,188.4l-0.5,0.8"/>
<path id="path29063" class="st0" d="M171.3,184.2l-0.5,0.8l-1.9,3.6"/>
<path id="path29065" class="st0" d="M162.9,199.8l-0.4-0.3l-0.4-0.3l0.5-0.8"/>
<path id="path29067" class="st0" d="M177.2,175.1l-1.1,1.7l-1.1,1.7"/>
<path id="path29069" class="st0" d="M201.9,135.2l-1.1,1.7l-1.1,1.7"/>
<path id="path29071" class="st0" d="M162.7,198.5l1.1-1.7l1.1-1.7"/>
<path id="path29073" class="st0" d="M189.5,155.2l-1.1,1.7l-1.1,1.7"/>
<path id="path29075" class="st0" d="M231.7,192l0.5-0.8l-1-0.6"/>
<path id="path29077" class="st0" d="M241.5,176.2l0.5-0.8"/>
<path id="path29079" class="st0" d="M244.1,172.1l0.5-0.8"/>
<path id="path29081" class="st0" d="M246.7,167.9l0.5-0.8l-1-0.6"/>
<path id="path29083" class="st0" d="M252.9,155.7l2.8-4.5"/>
<path id="path29085" class="st0" d="M216.8,216.2l0.5-0.8"/>
<path id="path29087" class="st0" d="M219.3,212.1l0.5-0.8"/>
<path id="path29089" class="st0" d="M221.9,207.9l0.5-0.8l-1-0.6"/>
<path id="path29091" class="st0" d="M174,222.2l-2-2.7"/>
<path id="path29093" class="st0" d="M168.3,225.5l3.4,0.4"/>
<path id="path29095" class="st0" d="M138.6,206.8l0.7,0.5"/>
<path id="path29097" class="st0" d="M138.6,206.8l2,2.7"/>
<path id="path29099" class="st0" d="M139.2,207.3l1.6,2.2c-0.2,0.1,0.1,0,0.3-0.2"/>
<path id="path29101" class="st0" d="M143.6,205.3l0.3,0.2"/>
<path id="path29103" class="st0" d="M144.2,203.5l-3.4-0.4l0.7,0.5"/>
<path id="path29105" class="st0" d="M144.4,203.9l-2.9-0.4"/>
<path id="path29107" class="st0" d="M142.7,200.6l-0.2,0.4l0.7,0.4l0.2-0.4l0.3-0.5l10.3,6"/>
<path id="path29109" class="st0" d="M153.3,207.6L153,208l0.7,0.4l0.2-0.4l9.8,5.6l-0.2,0.4"/>
<path id="path29111" class="st0" d="M164.1,214.4l0.2-0.4l0.7-1.2"/>
<path id="path29113" class="st0" d="M175,218.5l-0.3,0.5l-0.2,0.4"/>
<path id="path29115" class="st0" d="M175.7,219l-0.3,0.5"/>
<path id="path29117" class="st0" d="M175.1,219.9l0.2-0.4"/>
<path id="path29119" class="st0" d="M169.3,223.9l-0.3-0.2l-0.7,1.2"/>
<path id="path29121" class="st0" d="M141.9,208.1c0.5,0.4,1.6,0,2-0.7c0.5-0.6,0.4-1.8-0.2-2.1"/>
<path id="path29123" class="st0" d="M137,212l-0.5,0.8"/>
<path id="path29125" class="st0" d="M134.4,216.2l-0.5,0.8"/>
<path id="path29127" class="st0" d="M131.9,220.4l-0.5,0.8"/>
<path id="path29129" class="st0" d="M129.3,224.6l-0.5,0.8l-1.3-0.8"/>
<path id="path29131" class="st0" d="M160.7,243.8l-1.3-0.8"/>
<path id="path29133" class="st0" d="M131.5,220.2l2.1-3.3"/>
<path id="path29135" class="st0" d="M149.2,262.2l-2-2.7"/>
<path id="path29137" class="st0" d="M143.5,265.5l3.4,0.4"/>
<path id="path29139" class="st0" d="M113.8,246.8l0.7,0.5"/>
<path id="path29141" class="st0" d="M113.8,246.8l2,2.7"/>
<path id="path29143" class="st0" d="M114.5,247.3l1.6,2.2"/>
<path id="path29145" class="st0" d="M119.6,244.1c0.1-0.2,0.1-0.5-0.1-0.6l-3.4-0.4l0.7,0.5"/>
<path id="path29147" class="st0" d="M119.7,243.9l-2.9-0.4"/>
<path id="path29149" class="st0" d="M117.6,240.4l1.3,0.8l0.5-0.8"/>
<path id="path29151" class="st0" d="M121.6,237l0.5-0.8"/>
<path id="path29153" class="st0" d="M122.4,232.9l0.7,0.5"/>
<path id="path29155" class="st0" d="M122.4,232.9l2,2.7"/>
<path id="path29157" class="st0" d="M123.1,233.4l1.6,2.2c-0.2,0.1,0.1,0,0.3-0.2"/>
<path id="path29159" class="st0" d="M128.1,229.6l-3.4-0.4l0.7,0.5"/>
<path id="path29161" class="st0" d="M128.3,230l-2.9-0.4"/>
<path id="path29163" class="st0" d="M157.8,248.2l-2-2.7"/>
<path id="path29165" class="st0" d="M152.2,251.6l3.4,0.4"/>
<path id="path29167" class="st0" d="M152.5,254.9l-2.1,3.4"/>
<path id="path29169" class="st0" d="M149.6,258.9l1.3,0.8"/>
<path id="path29171" class="st0" d="M127.8,231.6l-0.3-0.2"/>
<path id="path29173" class="st0" d="M125.7,234.2l1.1,0.1l1-0.8l0.3-1.2l-0.5-0.8"/>
<path id="path29175" class="st0" d="M119.2,245.5l-0.3-0.2"/>
<path id="path29177" class="st0" d="M117.1,248.1l1.1,0.1l1-0.8l0.3-1.2l-0.5-0.8"/>
<path id="path29179" class="st0" d="M152.8,249.8l-0.7,1.2"/>
<path id="path29181" class="st0" d="M152.8,249.8l0.3,0.2"/>
<path id="path29183" class="st0" d="M144.2,263.7l-0.7,1.2"/>
<path id="path29185" class="st0" d="M144.2,263.7l0.3,0.2"/>
<path id="path29187" class="st0" d="M142.3,273.6l-1.3-0.8"/>
<path id="path29189" class="st0" d="M109.9,255.9l0.5-0.8"/>
<path id="path29191" class="st0" d="M116.8,266.2l-10.1-5.8"/>
<path id="path29193" class="st0" d="M117.8,264.6l-0.2,0.4l-0.2,0.4l-0.5,0.8"/>
<path id="path29195" class="st0" d="M118.2,265.4l0.2-0.4"/>
<path id="path29197" class="st0" d="M128,271l-9.8-5.6"/>
<path id="path29199" class="st0" d="M127.9,272.6l0.5-0.8l0.2-0.4l0.2-0.4"/>
<path id="path29201" class="st0" d="M138,278.4l-10.1-5.8"/>
<path id="path29203" class="st0" d="M140.8,273.8l-2.8,4.6"/>
<path id="path29205" class="st0" d="M116.8,266.3l-9.4-5.4"/>
<path id="path29207" class="st0" d="M128.6,271.4l-9.7-5.6"/>
<path id="path29209" class="st0" d="M138,278.5l-9.4-5.4"/>
<path id="path29211" class="st0" d="M118.2,265.4l0.7,0.5"/>
<path id="path29213" class="st0" d="M138.5,206.8l0.7,0.5"/>
<path id="path29215" class="st0" d="M169.2,223.9l-0.3-0.2"/>
<path id="path29217" class="st0" d="M113.8,246.8l0.7,0.5"/>
<path id="path29219" class="st0" d="M122.4,232.8l0.7,0.5"/>
<path id="path29221" class="st0" d="M153.1,250l-0.3-0.2"/>
<path id="path29223" class="st0" d="M144.4,263.9l-0.3-0.2"/>
<path id="path29225" class="st0" d="M196.2,144.4l-0.5,0.8"/>
<path id="path29227" class="st0" d="M193.6,148.6l-0.5,0.8"/>
<path id="path29229" class="st0" d="M196.9,144.8l-3.1,5"/>
<path id="path29231" class="st0" d="M171.5,184.3l-0.5,0.8"/>
<path id="path29233" class="st0" d="M168.9,188.5l-0.5,0.8"/>
<path id="path29235" class="st0" d="M172.1,184.8l-3.1,5"/>
<path id="path29237" class="st0" d="M183.8,164.3l-0.5,0.8"/>
<path id="path29239" class="st0" d="M181.2,168.5l-0.5,0.8"/>
<path id="path29241" class="st0" d="M184.5,164.8l-3.1,5"/>
<path id="path29243" class="st0" d="M202.4,134.4l-0.5,0.8"/>
<path id="path29245" class="st0" d="M199.8,138.6l-0.5,0.8"/>
<path id="path29247" class="st0" d="M203.1,134.8l-1.5,2.5l-1.5,2.5"/>
<path id="path29249" class="st0" d="M177.7,174.3l-0.5,0.8"/>
<path id="path29251" class="st0" d="M175.1,178.5l-0.5,0.8"/>
<path id="path29253" class="st0" d="M178.3,174.8l-3.1,5"/>
<path id="path29255" class="st0" d="M165.3,194.3l-0.5,0.8"/>
<path id="path29257" class="st0" d="M162.7,198.5l-0.5,0.8"/>
<path id="path29259" class="st0" d="M166,194.8l-1.5,2.5l-1.5,2.5"/>
<path id="path29261" class="st0" d="M190,154.4l-0.5,0.8"/>
<path id="path29263" class="st0" d="M187.4,158.6l-0.5,0.8"/>
<path id="path29265" class="st0" d="M190.7,154.8l-3.1,5"/>
<path id="path29267" class="st0" d="M252.5,102.1l-1.4-0.8"/>
<path id="path29269" class="st0" d="M282.5,139.6v-3.2"/>
<path id="path29271" class="st0" d="M234.1,139.6l-3.7-2.6"/>
<path id="path29273" class="st0" d="M238.5,120.2l0.5-0.8"/>
<path id="path29275" class="st0" d="M241.1,116.1l0.5-0.8"/>
<path id="path29277" class="st0" d="M243.7,111.9l0.5-0.8l-1-0.6"/>
<path id="path29279" class="st0" d="M248.4,105.8l2.8-4.5"/>
<path id="path29281" class="st0" d="M247.6,104.8l2.3-3.7"/>
<path id="path29283" class="st0" d="M233.1,139l-3.7-2.6"/>
<path id="path29285" class="st0" d="M233.9,123.3l8.2-13.3l1,0.6"/>
<path id="path29287" class="st0" d="M234.9,123.8l8.2-13.3"/>
<path id="path29289" class="st0" d="M230.5,132.5l2.3-3.7"/>
<path id="path29291" class="st0" d="M226.3,131.6l3.4,0.4"/>
<path id="path29293" class="st0" d="M227.9,135.2l-10.9-6.3"/>
<path id="path29295" class="st0" d="M228.6,135.7l-10.9-6.3"/>
<path id="path29297" class="st0" d="M217,128.9l0.7-1.2l0.2-0.4"/>
<path id="path29299" class="st0" d="M207.3,121.7l0.2-0.4"/>
<path id="path29301" class="st0" d="M205.9,122.5l-5.8-3.3"/>
<path id="path29303" class="st0" d="M206.6,123l-5.8-3.3"/>
<path id="path29305" class="st0" d="M196.6,112.9l0.7,0.5"/>
<path id="path29307" class="st0" d="M196.6,112.9l2,2.7"/>
<path id="path29309" class="st0" d="M197.3,113.4l1.6,2.2"/>
<path id="path29311" class="st0" d="M202.4,110.2c0.1-0.2,0.1-0.5-0.1-0.6l-3.4-0.4l0.7,0.5"/>
<path id="path29313" class="st0" d="M202.5,110l-2.9-0.4"/>
<path id="path29315" class="st0" d="M232,128.3l-2-2.7"/>
<path id="path29317" class="st0" d="M199.9,114.2c0.5,0.4,1.6,0,2-0.7c0.5-0.6,0.4-1.8-0.2-2.1"/>
<path id="path29319" class="st0" d="M227,129.8l0.3,0.2"/>
<path id="path29321" class="st0" d="M227,129.8l-0.7,1.2"/>
<path id="path29323" class="st0" d="M233.6,123.1l1.3,0.8"/>
<path id="path29325" class="st0" d="M201.6,104.6l1.3,0.8l0.5-0.8"/>
<path id="path29327" class="st0" d="M205.6,101.2l0.5-0.8"/>
<path id="path29329" class="st0" d="M208.1,97.1l0.5-0.8"/>
<path id="path29331" class="st0" d="M210.7,92.9l0.5-0.8"/>
<path id="path29333" class="st0" d="M205.7,100.2l2.1-3.3"/>
<path id="path29335" class="st0" d="M249.2,100.6l3.8-6.1"/>
<path id="path29337" class="st0" d="M247.2,97.9l2,2.7"/>
<path id="path29339" class="st0" d="M246.8,104.3l-3.4-0.4"/>
<path id="path29341" class="st0" d="M215.7,87.9l-2-2.7"/>
<path id="path29343" class="st0" d="M216.1,81.5l3.4,0.4"/>
<path id="path29345" class="st0" d="M216.1,87.9l-1.6-2.2"/>
<path id="path29347" class="st0" d="M216.7,81.9l2.9,0.4"/>
<path id="path29349" class="st0" d="M213.8,85.2l0.7,0.5"/>
<path id="path29351" class="st0" d="M216.1,81.5l0.7,0.5"/>
<path id="path29353" class="st0" d="M244.5,102.3l-0.3-0.2"/>
<path id="path29355" class="st0" d="M245.9,99.3l0.7-1.2c0.1-0.2,0.4-0.3,0.6-0.2"/>
<path id="path29357" class="st0" d="M219.1,84l-1.6,2.7"/>
<path id="path29359" class="st0" d="M217.1,86.5l-0.7,1.2"/>
<path id="path29361" class="st0" d="M198.8,109.1l0.7-1.2l2.1-3.3"/>
<path id="path29363" class="st0" d="M196.6,112.9l0.7,0.5"/>
<path id="path29365" class="st0" d="M227.2,130l-0.3-0.2"/>
<path id="path29367" class="st0" d="M244.1,103.8l0.7-1.2l1.7-2.8l0.7-1.2"/>
<path id="path29369" class="st0" d="M243.4,103.3l0.7-1.2"/>
<path id="path29371" class="st0" d="M213.7,85.2l0.7,0.5"/>
<path id="path29373" class="st0" d="M244.4,102.3l-0.3-0.2"/>
<path id="path29375" class="st0" d="M218.9,83.7c0.6,0.3,0.7,1.4,0.2,2.1c-0.4,0.7-1.5,1.1-2,0.7"/>
<path id="path29377" class="st0" d="M219.5,81.9c0.2,0.1,0.2,0.4,0.1,0.6l-0.7,1.2"/>
<path id="path29379" class="st0" d="M143.3,274.2l-1-0.6"/>
<path id="path29381" class="st0" d="M143.3,274.2l-0.5,0.8"/>
<path id="path29383" class="st0" d="M142.3,273.6L139,279"/>
<path id="path29385" class="st0" d="M140,283.4v0.8"/>
<path id="path29387" class="st0" d="M140,285.4v0.8"/>
<path id="path29389" class="st0" d="M140,286.6v0.8"/>
<path id="path29391" class="st0" d="M140,294.3v0.8"/>
<path id="path29393" class="st0" d="M140,295.5v0.8"/>
<path id="path29395" class="st0" d="M140,297.5v0.8"/>
<path id="path29397" class="st0" d="M143.7,297.8l0.9-0.5"/>
<path id="path29399" class="st0" d="M170,231.1l-1-0.6"/>
<path id="path29401" class="st0" d="M170,231.1l-0.5,0.8"/>
<path id="path29403" class="st0" d="M164.8,239.4l-0.5,0.8"/>
<path id="path29405" class="st0" d="M155,255.2l-1-0.6"/>
<path id="path29407" class="st0" d="M155,255.2l-0.5,0.8"/>
<path id="path29409" class="st0" d="M151.9,285.3l0.3-0.2"/>
<path id="path29411" class="st0" d="M193,285l3.1-5"/>
<path id="path29413" class="st0" d="M192.3,284.6l0.5-0.8"/>
<path id="path29415" class="st0" d="M194.9,280.4l0.5-0.8"/>
<path id="path29417" class="st0" d="M205.3,265l3.1-5"/>
<path id="path29419" class="st0" d="M204.7,264.6l0.5-0.8"/>
<path id="path29421" class="st0" d="M207.3,260.4l0.5-0.8"/>
<path id="path29423" class="st0" d="M186.8,295l3.1-5"/>
<path id="path29425" class="st0" d="M186.1,294.6l0.5-0.8"/>
<path id="path29427" class="st0" d="M188.7,290.4l0.5-0.8"/>
<path id="path29429" class="st0" d="M214.6,250l-1.5,2.5l-1.5,2.5"/>
<path id="path29431" class="st0" d="M213.9,249.6l-0.5,0.8"/>
<path id="path29433" class="st0" d="M211.3,253.8l-0.5,0.8"/>
<path id="path29435" class="st0" d="M199.1,275l3.1-5"/>
<path id="path29437" class="st0" d="M198.5,274.6l0.5-0.8"/>
<path id="path29439" class="st0" d="M201.1,270.4l0.5-0.8"/>
<path id="path29441" class="st0" d="M209.9,91.3l1,0.6"/>
<path id="path29443" class="st0" d="M205.2,101l0.5-0.8"/>
<path id="path29445" class="st0" d="M207.8,96.9l0.5-0.8"/>
<path id="path29447" class="st0" d="M210.4,92.7l0.5-0.8"/>
<path id="path29449" class="st0" d="M214.3,85.6l2.3-3.7"/>
<path id="path29451" class="st0" d="M185.1,131.3l1,0.6"/>
<path id="path29453" class="st0" d="M183,136.9l0.5-0.8"/>
<path id="path29455" class="st0" d="M185.6,132.7l0.5-0.8"/>
<path id="path29457" class="st0" d="M194.6,116l1,0.6"/>
<path id="path29459" class="st0" d="M199.5,109.6l-2.3,3.7"/>
<path id="path29461" class="st0" d="M105.8,269.3l2.7,0.5"/>
<path id="path29463" class="st0" d="M108.5,275.5l-2.7-2.6l1-0.6"/>
<path id="path29465" class="st0" d="M108.8,274.3l-2-2"/>
<path id="path29467" class="st0" d="M105.7,274.5l1.3,0.8v0.8"/>
<path id="path29469" class="st0" d="M106.7,275.8v0.4"/>
<path id="path29471" class="st0" d="M107,276.5v0.8"/>
<path id="path29473" class="st0" d="M107,278.5v0.8"/>
<path id="path29475" class="st0" d="M110,281.3l1-0.6"/>
<path id="path29477" class="st0" d="M110,281.3l-0.9-3.6"/>
<path id="path29479" class="st0" d="M111,280.8l-0.7-2.7"/>
<path id="path29481" class="st0" d="M109.4,277.5l1,0.6"/>
<path id="path29483" class="st0" d="M120.8,287.6l1-0.6"/>
<path id="path29485" class="st0" d="M120.8,287.6l-0.9-3.6"/>
<path id="path29487" class="st0" d="M120.2,283.7l1,0.6"/>
<path id="path29489" class="st0" d="M131.6,293.8l1-0.6"/>
<path id="path29491" class="st0" d="M131.6,293.8l-0.9-3.6"/>
<path id="path29493" class="st0" d="M131,290l1,0.6"/>
<path id="path29495" class="st0" d="M137.3,297.2l0.7,0.4"/>
<path id="path29497" class="st0" d="M137.6,297v-0.8"/>
<path id="path29499" class="st0" d="M137.6,292.9l1.3,0.8"/>
<path id="path29501" class="st0" d="M138.9,292l1-0.6l-2.7-0.5"/>
<path id="path29503" class="st0" d="M136.2,285.8l2.7,2.6"/>
<path id="path29505" class="st0" d="M137.6,286.1v-0.8"/>
<path id="path29507" class="st0" d="M137.6,282.8V282"/>
<path id="path29509" class="st0" d="M138,279.6l-9.4-5.4l0.9-0.5"/>
<path id="path29511" class="st0" d="M127.9,272.6l-11.1-6.4l1-0.6"/>
<path id="path29513" class="st0" d="M128.4,271.7l-10.6-6.1"/>
<path id="path29515" class="st0" d="M116.8,266.2v1.5"/>
<path id="path29517" class="st0" d="M116.1,266.9l-9.4-5.4v2.7"/>
<path id="path29519" class="st0" d="M107,264.4v0.8"/>
<path id="path29521" class="st0" d="M107,266.4v0.8"/>
<path id="path29523" class="st0" d="M106.7,267v0.4"/>
<path id="path29525" class="st0" d="M107,267.6v0.8"/>
<path id="path29527" class="st0" d="M109.3,273.9l0.5,0.2"/>
<path id="path29529" class="st0" d="M108.8,274.2v1.2"/>
<path id="path29531" class="st0" d="M135.9,287.1L135,287"/>
<path id="path29533" class="st0" d="M135.9,287.1V286"/>
<path id="path29535" class="st0" d="M106.7,266.2v-1.3"/>
<path id="path29537" class="st0" d="M106.7,278.3v-1.3"/>
<path id="path29539" class="st0" d="M134.3,291.9c0.1-0.6-0.6-1.8-1.2-2l-0.8-0.1"/>
<path id="path29541" class="st0" d="M123.5,285.7c0.1-0.6-0.6-1.8-1.2-2l-0.8-0.1"/>
<path id="path29543" class="st0" d="M110.9,277.8l1.7,1"/>
<path id="path29545" class="st0" d="M112.7,279.4c0.1-0.6-0.6-1.8-1.2-2l-0.8-0.1"/>
<path id="path29547" class="st0" d="M137.3,297.2l-0.5,0.3"/>
<path id="path29549" class="st0" d="M109.6,274.3l0.3-0.8c0.1-0.6-0.6-1.8-1.2-2"/>
<path id="path29551" class="st0" d="M132.6,289.7l-0.1,0.5"/>
<path id="path29553" class="st0" d="M121.8,283.5l-0.1,0.5"/>
<path id="path29555" class="st0" d="M111,277.3l-0.1,0.5"/>
<path id="path29557" class="st0" d="M119.1,266.2l-0.3-0.2"/>
<path id="path29559" class="st0" d="M268.2,143l8.2-13.3l-1-0.6"/>
<path id="path29561" class="st0" d="M267.2,142.5l8.2-13.3"/>
<path id="path29563" class="st0" d="M276.4,129.7l0.9,0.6l0.5-0.8"/>
<path id="path29565" class="st0" d="M280.9,124l2.3-3.7"/>
<path id="path29567" class="st0" d="M283.1,133.5v0.8"/>
<path id="path29569" class="st0" d="M275.5,149.4l-0.5,0.8"/>
<path id="path29571" class="st0" d="M273.7,135l-2.1,3.3l0,0.4"/>
<path id="path29573" class="st0" d="M283.5,125v3.2"/>
<path id="path29575" class="st0" d="M248.9,174.9l-1,1.7"/>
<path id="path29577" class="st0" d="M247.6,176.4l4.1-6.7l-1-0.6"/>
<path id="path29579" class="st0" d="M246.6,175.8l4.1-6.7"/>
<path id="path29581" class="st0" d="M251.7,169.7l0.9,0.6"/>
<path id="path29583" class="st0" d="M260.6,173.6l-0.5,0.8l0.4,0.3l0.4,0.3"/>
<path id="path29585" class="st0" d="M251.5,179.8l-1.1,3.1"/>
<path id="path29587" class="st0" d="M262.7,170.2l0.5-0.8"/>
<path id="path29589" class="st0" d="M273.3,155.1l-0.4-0.3l-0.4-0.3l0.5-0.8"/>
<path id="path29591" class="st0" d="M262.5,154.2l-0.5,0.8l-0.9-0.6l-1-0.6"/>
<path id="path29593" class="st0" d="M261.2,154.4l-2.8,4.5"/>
<path id="path29595" class="st0" d="M260.2,153.8l-2.3,3.7l-0.5,0.8"/>
<path id="path29597" class="st0" d="M267.4,165.2l-1.1-0.8l0.5-0.8l2-2.7l0.3-1"/>
<path id="path29599" class="st0" d="M265.2,157.8l0.2-0.4l-1.3-0.9l-0.2,0.4"/>
<path id="path29601" class="st0" d="M263.4,156.6l0.2-0.4l0.7-1.2l0.2-0.4"/>
<path id="path29603" class="st0" d="M266.2,156.2l0.2-0.4"/>
<path id="path29605" class="st0" d="M265.9,157.8l-0.2,0.4l-0.4-0.3"/>
<path id="path29607" class="st0" d="M275.3,150.4l-1.1,1.7l-1.1,1.7"/>
<path id="path29609" class="st0" d="M262.9,170.4l-1.1,1.7l-1.1,1.7"/>
<path id="path29611" class="st0" d="M282.7,135.9l-0.2,0.4"/>
<path id="path29613" class="st0" d="M283.7,124.6l-0.2,0.4"/>
<path id="path29615" class="st0" d="M179.8,304.9v7l-1-0.6"/>
<path id="path29617" class="st0" d="M180.2,311.7v2.3"/>
<path id="path29619" class="st0" d="M183,310.8l0.7-0.4"/>
<path id="path29621" class="st0" d="M186.8,295l-0.4-0.3l-0.4-0.3l0.5-0.8"/>
<path id="path29623" class="st0" d="M176.5,293.4l-0.9-0.6l-1-0.6"/>
<path id="path29625" class="st0" d="M175.6,292.8l-3.3,5.4l-1-0.6"/>
<path id="path29627" class="st0" d="M174.6,292.2l-0.5,0.8"/>
<path id="path29629" class="st0" d="M172.2,298.2v7.9l-1-0.6"/>
<path id="path29631" class="st0" d="M171.2,297.6v7.9"/>
<path id="path29633" class="st0" d="M172.2,306l1.3-0.8"/>
<path id="path29635" class="st0" d="M173.2,307.1v4.5"/>
<path id="path29637" class="st0" d="M172.2,312.9v4.5"/>
<path id="path29639" class="st0" d="M171.2,312.3v4.5"/>
<path id="path29641" class="st0" d="M172.2,317.4l1.7-1"/>
<path id="path29643" class="st0" d="M174.6,315.6v1.5"/>
<path id="path29645" class="st0" d="M177.5,306.2v-0.8l2.7-1.5v0.8"/>
<path id="path29647" class="st0" d="M184,307.9v-0.8"/>
<path id="path29649" class="st0" d="M184.3,307v-2.3"/>
<path id="path29651" class="st0" d="M184,304.8v-0.8l1.7-1"/>
<path id="path29653" class="st0" d="M172.7,314.6l0.2-0.4l0.2,1.4L173,316L172.7,314.6z"/>
<path id="path29655" class="st0" d="M172.7,303.8v-1.3l0.2-0.4"/>
<path id="path29657" class="st0" d="M173.2,303.5l-0.2,0.4"/>
<path id="path29659" class="st0" d="M247.6,176.4l-1-0.6"/>
<path id="path29661" class="st0" d="M247.9,176.6l-1,1.7l0,0.4"/>
<path id="path29663" class="st0" d="M247.5,181.6l2.4,1.7"/>
<path id="path29665" class="st0" d="M252,179.5l2.4,1.7"/>
<path id="path29667" class="st0" d="M251.9,184.7l2.4,1.7"/>
<path id="path29669" class="st0" d="M256.4,182.6l1.6,1.1"/>
<path id="path29671" class="st0" d="M250.8,189.4l-0.5,0.8"/>
<path id="path29673" class="st0" d="M243.5,183l4.1-6.7"/>
<path id="path29675" class="st0" d="M242.5,182.5l4.1-6.7"/>
<path id="path29677" class="st0" d="M218.7,223l8.2-13.3l-1-0.6"/>
<path id="path29679" class="st0" d="M217.7,222.5l5.2-8.3l3.1-5"/>
<path id="path29681" class="st0" d="M227,209.7l0.9,0.6"/>
<path id="path29683" class="st0" d="M235.8,213.6l-0.5,0.8l0.4,0.3l0.4,0.3"/>
<path id="path29685" class="st0" d="M226.1,229.4l-0.5,0.8"/>
<path id="path29687" class="st0" d="M222.2,218.3l0,0.4"/>
<path id="path29689" class="st0" d="M229.7,223.6l-0.5,0.8l0.4,0.3l0.4,0.3"/>
<path id="path29691" class="st0" d="M232.3,219.4l-0.5,0.8l-1.9,3.6"/>
<path id="path29693" class="st0" d="M233.7,198.9l3.1-5l-1-0.6"/>
<path id="path29695" class="st0" d="M232.7,198.3l3.1-5"/>
<path id="path29697" class="st0" d="M236.8,193.9l0.9,0.6"/>
<path id="path29699" class="st0" d="M248.2,193.6l-0.5,0.8l0.4,0.3l0.4,0.3"/>
<path id="path29701" class="st0" d="M238.4,209.4l-0.5,0.8"/>
<path id="path29703" class="st0" d="M241.5,204.4l1.1,0.8"/>
<path id="path29705" class="st0" d="M244.6,199.4l-0.5,0.8l-1.9,3.6l-0.7,0.6"/>
<path id="path29707" class="st0" d="M194,263l8.2-13.3l-1-0.6"/>
<path id="path29709" class="st0" d="M193,262.4l8.2-13.3"/>
<path id="path29711" class="st0" d="M202.2,249.7l0.9,0.6"/>
<path id="path29713" class="st0" d="M211.1,253.6l-0.5,0.8l0.4,0.3l0.4,0.3"/>
<path id="path29715" class="st0" d="M201.3,269.4l-0.5,0.8"/>
<path id="path29717" class="st0" d="M199.5,254.9l-2.1,3.3l0,0.4"/>
<path id="path29719" class="st0" d="M204.9,263.6l-0.5,0.8l0.4,0.3l0.4,0.3"/>
<path id="path29721" class="st0" d="M207.5,259.4l-0.5,0.8l-1.9,3.6"/>
<path id="path29723" class="st0" d="M213.2,250.2l0.5-0.8"/>
<path id="path29725" class="st0" d="M223.9,235l-0.4-0.3l-0.4-0.3l0.5-0.8"/>
<path id="path29727" class="st0" d="M212.9,234.5l-0.9-0.6l-1-0.6"/>
<path id="path29729" class="st0" d="M212,233.9l-3.1,5l-1-0.6"/>
<path id="path29731" class="st0" d="M211,233.3l-3.1,5"/>
<path id="path29733" class="st0" d="M208.9,238.9l0.9,0.6"/>
<path id="path29735" class="st0" d="M207.9,238.3l0.6,0.4"/>
<path id="path29737" class="st0" d="M209.8,239.5l-0.5,0.8"/>
<path id="path29739" class="st0" d="M217.1,243.9l0.5-0.8l2-2.7l0.3-1"/>
<path id="path29741" class="st0" d="M218.2,244.7l-1.1-0.8"/>
<path id="path29743" class="st0" d="M212.6,243l0.2-0.4"/>
<path id="path29745" class="st0" d="M213,243.3l-0.4-0.3"/>
<path id="path29747" class="st0" d="M213.8,241l0.4,0.3"/>
<path id="path29749" class="st0" d="M213.6,241.4l0.2-0.4"/>
<path id="path29751" class="st0" d="M211.5,241.6l-0.2,0.4"/>
<path id="path29753" class="st0" d="M212.8,242.6l-1.3-0.9"/>
<path id="path29755" class="st0" d="M184.2,278.8l3.1-5l-1-0.6"/>
<path id="path29757" class="st0" d="M183.2,278.3l3.1-5"/>
<path id="path29759" class="st0" d="M187.3,273.8l0.9,0.6"/>
<path id="path29761" class="st0" d="M198.8,273.6l-0.5,0.8l0.4,0.3l0.4,0.3"/>
<path id="path29763" class="st0" d="M189,289.4l-0.5,0.8"/>
<path id="path29765" class="st0" d="M192.1,284.4l1.1,0.8"/>
<path id="path29767" class="st0" d="M195.2,279.4l-0.5,0.8l-1.9,3.6l-0.7,0.6"/>
<path id="path29769" class="st0" d="M186.6,293.8l1.1-1.7l1.1-1.7"/>
<path id="path29771" class="st0" d="M250.5,190.4l-1.1,1.7l-1.1,1.7"/>
<path id="path29773" class="st0" d="M238.2,210.4l-1.1,1.7l-1.1,1.7"/>
<path id="path29775" class="st0" d="M213.4,250.4l-1.1,1.7l-1.1,1.7"/>
<path id="path29777" class="st0" d="M201.1,270.4l-1.1,1.7l-1.1,1.7"/>
<path id="path29779" class="st0" d="M225.8,230.4l-1.1,1.7l-1.1,1.7"/>
<path id="path29781" class="st0" d="M213.3,242.9l-0.2,0.4"/>
<path id="path29783" class="st0" d="M214.3,241.3l-0.5-0.3"/>
<path id="path29785" class="st0" d="M210.8,241.7l1.2-2"/>
<path id="path29787" class="st0" d="M272.7,154.6l0.5-0.8"/>
<path id="path29789" class="st0" d="M275.3,150.4l0.5-0.8"/>
<path id="path29791" class="st0" d="M273.3,155.1l1.5-2.5l1.5-2.5"/>
<path id="path29793" class="st0" d="M227,209.7l6.7-10.8"/>
<path id="path29795" class="st0" d="M227.6,210.2l6.7-10.8"/>
<path id="path29797" class="st0" d="M233.7,198.9l-1-0.6"/>
<path id="path29799" class="st0" d="M236.8,193.9l6.7-10.8"/>
<path id="path29801" class="st0" d="M237.4,194.3l6.7-10.8"/>
<path id="path29803" class="st0" d="M243.5,183l-1-0.6"/>
<path id="path29805" class="st0" d="M247.2,178.5l2.1-3.3"/>
<path id="path29807" class="st0" d="M251.7,169.7l6.7-10.8"/>
<path id="path29809" class="st0" d="M252.4,170.2l6.7-10.8"/>
<path id="path29811" class="st0" d="M258.4,158.9l-1-0.6"/>
<path id="path29813" class="st0" d="M260.2,153.8l-3.5-2l-2.3,3.7"/>
<path id="path29815" class="st0" d="M254.7,155.6l-0.5,0.8"/>
<path id="path29817" class="st0" d="M253.8,156.3l-1-0.6"/>
<path id="path29819" class="st0" d="M247.5,167.3l-0.5,0.8"/>
<path id="path29821" class="st0" d="M244.9,171.5l-0.5,0.8"/>
<path id="path29823" class="st0" d="M242.3,175.6l-0.5,0.8"/>
<path id="path29825" class="st0" d="M239.7,179.8l-0.5,0.8"/>
<path id="path29827" class="st0" d="M238.9,180.4l-1-0.6"/>
<path id="path29829" class="st0" d="M232.5,191.4l-0.5,0.8"/>
<path id="path29831" class="st0" d="M229.9,195.6l-0.5,0.8"/>
<path id="path29833" class="st0" d="M229.1,196.2l-1-0.6"/>
<path id="path29835" class="st0" d="M222.8,207.3l-0.5,0.8"/>
<path id="path29837" class="st0" d="M220.2,211.5l-0.5,0.8"/>
<path id="path29839" class="st0" d="M217.6,215.6l-0.5,0.8"/>
<path id="path29841" class="st0" d="M215,219.8l-0.5,0.8"/>
<path id="path29843" class="st0" d="M214.2,220.4l-1-0.6l-9.5,15.3"/>
<path id="path29845" class="st0" d="M212,233.9l6.7-10.8"/>
<path id="path29847" class="st0" d="M212.7,234.3l6.7-10.8"/>
<path id="path29849" class="st0" d="M218.7,223l-1-0.6"/>
<path id="path29851" class="st0" d="M244.1,172.1l-2.1,3.3"/>
<path id="path29853" class="st0" d="M224.2,214.9l-2.1,3.3"/>
<path id="path29855" class="st0" d="M219.3,212.1l-2.1,3.3"/>
<path id="path29857" class="st0" d="M109,254.4l1,0.6l-0.5,0.8"/>
<path id="path29859" class="st0" d="M106.7,264.2v0.8"/>
<path id="path29861" class="st0" d="M106.7,267.4v0.8"/>
<path id="path29863" class="st0" d="M106.7,275.1v0.8"/>
<path id="path29865" class="st0" d="M106.7,276.3v0.8"/>
<path id="path29867" class="st0" d="M106.7,278.3v0.8"/>
<path id="path29869" class="st0" d="M118.7,266.1l0.3-0.2"/>
<path id="path29871" class="st0" d="M181,137.9l1,0.6"/>
<path id="path29873" class="st0" d="M180.5,141l0.5-0.8"/>
<path id="path29875" class="st0" d="M160.4,171.3l1,0.6"/>
<path id="path29877" class="st0" d="M153.2,185.2l0.5-0.8"/>
<path id="path29879" class="st0" d="M155.8,181l0.5-0.8"/>
<path id="path29881" class="st0" d="M158.3,176.8l0.5-0.8"/>
<path id="path29883" class="st0" d="M160.9,172.6l0.5-0.8"/>
<path id="path29885" class="st0" d="M170.2,155.4l1,0.6"/>
<path id="path29887" class="st0" d="M170.7,156.8l0.5-0.8"/>
<path id="path29889" class="st0" d="M135.7,211.3l1,0.6"/>
<path id="path29891" class="st0" d="M131,221l0.5-0.8"/>
<path id="path29893" class="st0" d="M133.6,216.8l0.5-0.8"/>
<path id="path29895" class="st0" d="M136.2,212.6l0.5-0.8"/>
<path id="path29897" class="st0" d="M145.5,195.4l1,0.6"/>
<path id="path29899" class="st0" d="M145.5,195.4l-3.1,5"/>
<path id="path29901" class="st0" d="M146.5,196l-0.5,0.8"/>
<path id="path29903" class="st0" d="M120.7,235.4l1,0.6"/>
<path id="path29905" class="st0" d="M121.2,236.8l0.5-0.8"/>
<path id="path29907" class="st0" d="M114.4,247.2l2.3-3.7"/>
<path id="path29909" class="st0" d="M139.1,207.2l2.3-3.7"/>
<path id="path29911" class="st0" d="M123,233.3l2.3-3.7"/>
<path id="path29913" class="st0" d="M174.2,222.3l3.4,0.4"/>
<path id="path29915" class="st0" d="M174.8,222.8l2.9,0.4"/>
<path id="path29917" class="st0" d="M174.2,222.3l0.7,0.5"/>
<path id="path29919" class="st0" d="M174.4,228.5c-0.1,0.2-0.4,0.3-0.6,0.2l-2-2.7l0.7,0.5"/>
<path id="path29921" class="st0" d="M174.1,228.7l-1.6-2.2"/>
<path id="path29923" class="st0" d="M204.9,245.1l-3.4-0.4"/>
<path id="path29925" class="st0" d="M201.5,244.1l0.7-1.2"/>
<path id="path29927" class="st0" d="M205.3,238.7l2,2.7l0.8,0.5"/>
<path id="path29929" class="st0" d="M207.3,241.5l1.6-2.6l0.7,0.5"/>
<path id="path29931" class="st0" d="M208,241.9l1.6-2.6"/>
<path id="path29933" class="st0" d="M208.6,238.7l-0.2,0.4l-0.7-0.4l0.2-0.4"/>
<path id="path29935" class="st0" d="M208.3,237.8l-10.3-6l-1,1.6"/>
<path id="path29937" class="st0" d="M196.3,233l0.2-0.4l-9.8-5.6l-0.2,0.4l-0.7-0.4l0.2-0.4"/>
<path id="path29939" class="st0" d="M177,219.7l-0.3,0.5l-0.2,0.4l-0.7-0.4l0.2-0.4"/>
<path id="path29941" class="st0" d="M175.7,219.6l-1.6,2.6l0.7,0.5"/>
<path id="path29943" class="st0" d="M202.5,243.2l-0.3-0.2"/>
<path id="path29945" class="st0" d="M197.8,258.5l-0.4-0.2"/>
<path id="path29947" class="st0" d="M192.7,262.3l1.3,0.8"/>
<path id="path29949" class="st0" d="M160.7,243.8l1.3,0.8l0.5-0.8"/>
<path id="path29951" class="st0" d="M164.6,240.4l0.5-0.8"/>
<path id="path29953" class="st0" d="M167.2,236.2l0.5-0.8"/>
<path id="path29955" class="st0" d="M169.8,232l0.5-0.8"/>
<path id="path29957" class="st0" d="M164.8,239.4l2.1-3.3"/>
<path id="path29959" class="st0" d="M197.4,258.3l0.3,0.2"/>
<path id="path29961" class="st0" d="M149.4,262.3l0.7,0.5"/>
<path id="path29963" class="st0" d="M149.3,262.2l0.7,0.5"/>
<path id="path29965" class="st0" d="M149.4,262.3l3.4,0.4"/>
<path id="path29967" class="st0" d="M150.1,262.8l2.9,0.4"/>
<path id="path29969" class="st0" d="M149.1,268.7l-2-2.7l0.7,0.5"/>
<path id="path29971" class="st0" d="M149.4,268.7l-1.6-2.2"/>
<path id="path29973" class="st0" d="M180.2,285.1l-3.4-0.4"/>
<path id="path29975" class="st0" d="M176.7,284.1l0.7-1.2"/>
<path id="path29977" class="st0" d="M180.5,278.7l2,2.7l0.8,0.5"/>
<path id="path29979" class="st0" d="M182.6,281.5l1.6-2.6"/>
<path id="path29981" class="st0" d="M183.3,281.9l1.6-2.6"/>
<path id="path29983" class="st0" d="M184.2,278.8l-1.3-0.8"/>
<path id="path29985" class="st0" d="M187.3,273.8l1.6-2.6"/>
<path id="path29987" class="st0" d="M188,274.3l1.6-2.6"/>
<path id="path29989" class="st0" d="M188.8,271.2l-3.4-0.4"/>
<path id="path29991" class="st0" d="M185.3,270.2l0.7-1.2"/>
<path id="path29993" class="st0" d="M189.1,264.8l2,2.7l0.8,0.5"/>
<path id="path29995" class="st0" d="M157.9,248.3l0.7,0.5"/>
<path id="path29997" class="st0" d="M158,248.4l0.7,0.5"/>
<path id="path29999" class="st0" d="M158,248.4l3.4,0.4"/>
<path id="path30001" class="st0" d="M158.7,248.8l2.9,0.4"/>
<path id="path30003" class="st0" d="M158.3,254.6c-0.1,0.2-0.4,0.3-0.6,0.2l-2-2.7l0.7,0.5"/>
<path id="path30005" class="st0" d="M158,254.8l-1.6-2.2"/>
<path id="path30007" class="st0" d="M155.6,252l-1.6,2.6"/>
<path id="path30009" class="st0" d="M155.3,255.4l-0.5,0.8"/>
<path id="path30011" class="st0" d="M152.8,259.6l-0.5,0.8"/>
<path id="path30013" class="st0" d="M150.9,259.6l-1.6,2.6"/>
<path id="path30015" class="st0" d="M186.1,269l0.3,0.2"/>
<path id="path30017" class="st0" d="M177.5,282.9l0.3,0.2"/>
<path id="path30019" class="st0" d="M161.1,250.8l-0.3-0.2"/>
<path id="path30021" class="st0" d="M152.5,264.7l-0.3-0.2"/>
<path id="path30023" class="st0" d="M142.3,273.6l1.3,0.8"/>
<path id="path30025" class="st0" d="M171.2,297.6l2.8-4.6"/>
<path id="path30027" class="st0" d="M161.2,291.8l10.1,5.8"/>
<path id="path30029" class="st0" d="M162.1,290.2l-0.2,0.4l-0.2,0.4l-0.5,0.8"/>
<path id="path30031" class="st0" d="M151.5,284.6l9.8,5.6"/>
<path id="path30033" class="st0" d="M151.7,284.2l-0.2,0.4"/>
<path id="path30035" class="st0" d="M151,283.8l0.7,0.4"/>
<path id="path30037" class="st0" d="M150.1,285.4l0.5-0.8l0.2-0.4l0.2-0.4"/>
<path id="path30039" class="st0" d="M140,279.6l10.1,5.8"/>
<path id="path30041" class="st0" d="M143.6,274.3l-0.5,0.8"/>
<path id="path30043" class="st0" d="M161.8,292.3l9.4,5.4"/>
<path id="path30045" class="st0" d="M152.1,285l9.7,5.6"/>
<path id="path30047" class="st0" d="M140.6,280l9.4,5.4"/>
<path id="path30049" class="st0" d="M151.5,284.6l0.7,0.5"/>
<path id="path30051" class="st0" d="M151,283.8l0.6,0.4"/>
<path id="path30053" class="st0" d="M171.8,226l-0.7,1.2l-2.1,3.3"/>
<path id="path30055" class="st0" d="M205,245.2l-0.7,1.2l-2.1,3.3"/>
<path id="path30057" class="st0" d="M205.7,245.6l-0.7,1.2l-2.1,3.3"/>
<path id="path30059" class="st0" d="M147,266l-0.7,1.2l-4,6.4"/>
<path id="path30061" class="st0" d="M175.6,292.8l4-6.4l0.7-1.2"/>
<path id="path30063" class="st0" d="M176.3,293.3l4-6.4l0.7-1.2"/>
<path id="path30065" class="st0" d="M157.9,248.3l0.7-1.2l2.1-3.3"/>
<path id="path30067" class="st0" d="M191.2,267.5l0.7-1.2l2.1-3.3"/>
<path id="path30069" class="st0" d="M191.9,268l0.7-1.2l2.1-3.3"/>
<path id="path30071" class="st0" d="M171.8,226l0.7,0.5"/>
<path id="path30073" class="st0" d="M177,224.6c0.6,0.3,0.7,1.4,0.2,2.1c-0.4,0.7-1.5,1.1-2,0.7"/>
<path id="path30075" class="st0" d="M202.5,243.1l-0.3-0.2"/>
<path id="path30077" class="st0" d="M152.8,262.7c0.2,0.1,0.2,0.4,0.1,0.6"/>
<path id="path30079" class="st0" d="M147,266l0.7,0.5"/>
<path id="path30081" class="st0" d="M155.7,252l0.7,0.5"/>
<path id="path30083" class="st0" d="M186.3,269.2l-0.3-0.2"/>
<path id="path30085" class="st0" d="M177.7,283.1l-0.3-0.2"/>
<path id="path30087" class="st0" d="M160.8,250.6l0.5,0.8l-0.3,1.2l-1,0.8l-1.1-0.1"/>
<path id="path30089" class="st0" d="M152.2,264.5l0.5,0.8l-0.3,1.2l-1,0.8l-1.1-0.1"/>
<path id="path30091" class="st0" d="M231.9,134.8l-2-2.7l0.7,0.5"/>
<path id="path30093" class="st0" d="M232.2,134.8l-1.6-2.2"/>
<path id="path30095" class="st0" d="M229.8,132.1l-1.9,3.1l10.9,6.3"/>
<path id="path30097" class="st0" d="M228.6,135.7l10.9,6.3"/>
<path id="path30099" class="st0" d="M239.7,139.9l0.6,0.4"/>
<path id="path30101" class="st0" d="M239.7,139.9l0.7,0.4l-0.2,0.4"/>
<path id="path30103" class="st0" d="M250.8,146.3l-0.2,0.4l-0.7,1.2l5.8,3.3"/>
<path id="path30105" class="st0" d="M250.5,148.3l5.1,2.9"/>
<path id="path30107" class="st0" d="M261.2,154.4l1.9-3.1"/>
<path id="path30109" class="st0" d="M261.8,154.9l1.9-3.1"/>
<path id="path30111" class="st0" d="M263,151.2l-3.4-0.4"/>
<path id="path30113" class="st0" d="M259.5,150.2l0.7-1.2"/>
<path id="path30115" class="st0" d="M263.3,144.8l2,2.7l0.8,0.5"/>
<path id="path30117" class="st0" d="M232.1,128.3l0.7,0.5"/>
<path id="path30119" class="st0" d="M232.2,128.4l0.7,0.5"/>
<path id="path30121" class="st0" d="M232.2,128.4l3.4,0.4"/>
<path id="path30123" class="st0" d="M232.9,128.9l2.9,0.4"/>
<path id="path30125" class="st0" d="M260.3,149l0.3,0.2"/>
<path id="path30127" class="st0" d="M244.5,111.3l-0.5,0.8"/>
<path id="path30129" class="st0" d="M241.9,115.5l-0.5,0.8"/>
<path id="path30131" class="st0" d="M239.3,119.6l-0.5,0.8"/>
<path id="path30133" class="st0" d="M236.7,123.8l-0.5,0.8l-1.3-0.8"/>
<path id="path30135" class="st0" d="M268.2,143l-1.3-0.8"/>
<path id="path30137" class="st0" d="M271.9,138.5l2.1-3.3"/>
<path id="path30139" class="st0" d="M239,119.4l2.1-3.3"/>
<path id="path30141" class="st0" d="M282.5,119.9l0.7,0.5"/>
<path id="path30143" class="st0" d="M286.3,113.7l-3.8,6.1"/>
<path id="path30145" class="st0" d="M252.7,101.1l-3.4-0.4"/>
<path id="path30147" class="st0" d="M249.6,106.9l0.7-1.2"/>
<path id="path30149" class="st0" d="M247,104.4l2,2.7"/>
<path id="path30151" class="st0" d="M276.8,123.1l3.4,0.4"/>
<path id="path30153" class="st0" d="M280.5,117.1c-0.2-0.1-0.5,0-0.6,0.2l-0.7,1.2"/>
<path id="path30155" class="st0" d="M282.4,119.8l-2-2.7"/>
<path id="path30157" class="st0" d="M287,114.2l-3.8,6.1"/>
<path id="path30159" class="st0" d="M252.9,101.5l-2.9-0.4"/>
<path id="path30161" class="st0" d="M247.7,104.9l1.6,2.2"/>
<path id="path30163" class="st0" d="M280.5,117.8l-0.7,1.2l-1.7,2.8l-0.7,1.2"/>
<path id="path30165" class="st0" d="M249.2,100.6l0.7,0.5"/>
<path id="path30167" class="st0" d="M249.4,100.7l0.7,0.5"/>
<path id="path30169" class="st0" d="M249,107.1l0.7,0.5"/>
<path id="path30171" class="st0" d="M247,104.4l0.7,0.5"/>
<path id="path30173" class="st0" d="M252.1,102.9l0.3,0.2"/>
<path id="path30175" class="st0" d="M250.7,105.9l-0.3-0.2"/>
<path id="path30177" class="st0" d="M250.7,105.9l1.7-2.8"/>
<path id="path30179" class="st0" d="M252.1,102.9l0.7-1.2c0.1-0.2,0.1-0.5-0.1-0.6"/>
<path id="path30181" class="st0" d="M277.7,121.6l-0.3-0.2l-0.7,1.2"/>
<path id="path30183" class="st0" d="M265.4,147.6l0.7-1.2l2.1-3.3"/>
<path id="path30185" class="st0" d="M234.9,123.8l-2.1,3.3l-0.7,1.2"/>
<path id="path30187" class="st0" d="M266.1,148l0.7-1.2l2.1-3.3"/>
<path id="path30189" class="st0" d="M280.9,124l-1.7,2.8l-2.1,3.3"/>
<path id="path30191" class="st0" d="M280.2,123.6l-1.7,2.8l-2.1,3.3"/>
<path id="path30193" class="st0" d="M247,104.4l-1.7,2.8l-2.1,3.3"/>
<path id="path30195" class="st0" d="M229.8,132.1l0.7,0.5"/>
<path id="path30197" class="st0" d="M235.6,128.8c0.2,0.1,0.2,0.4,0.1,0.6"/>
<path id="path30199" class="st0" d="M260.5,149.2l-0.3-0.2"/>
<path id="path30201" class="st0" d="M235,130.7c0.6,0.3,0.7,1.4,0.2,2.1c-0.4,0.7-1.5,1.1-2,0.7"/>
<path id="path30203" class="st0" d="M247,104.4l0.7,0.5"/>
<path id="path30205" class="st0" d="M252.2,103c0.6,0.3,0.7,1.4,0.2,2.1c-0.4,0.7-1.5,1.1-2,0.7"/>
<path id="path30207" class="st0" d="M277.7,121.5l-0.3-0.2"/>
<path id="path30209" class="st0" d="M141.3,273l1,0.6"/>
<path id="path30211" class="st0" d="M141.3,273l-3.3,5.4l1,0.6"/>
<path id="path30213" class="st0" d="M138,278.4v7.9l1,0.6"/>
<path id="path30215" class="st0" d="M139,279v7.9"/>
<path id="path30217" class="st0" d="M140,288.7v2.8"/>
<path id="path30219" class="st0" d="M138,293.1v4.5"/>
<path id="path30221" class="st0" d="M139,293.7v4.5"/>
<path id="path30223" class="st0" d="M168,229.9l1,0.6"/>
<path id="path30225" class="st0" d="M168,229.9l-8.2,13.3"/>
<path id="path30227" class="st0" d="M169,230.5l-8.2,13.3"/>
<path id="path30229" class="st0" d="M153,254.1l1,0.6"/>
<path id="path30231" class="st0" d="M153,254.1l-3.1,5"/>
<path id="path30233" class="st0" d="M154,254.6l-3.1,5"/>
<path id="path30235" class="st0" d="M150,262.7l-2.3,3.7"/>
<path id="path30237" class="st0" d="M217.9,82.1l1.4,0.8"/>
<path id="path30239" class="st0" d="M266.5,164.6l0.5-0.8"/>
<path id="path30241" class="st0" d="M268.8,160.9l0.5-0.8"/>
<path id="path30243" class="st0" d="M267.2,165.1l2.8-4.5"/>
<path id="path30245" class="st0" d="M229.4,224.6l0.5-0.8"/>
<path id="path30247" class="st0" d="M232,220.4l0.5-0.8"/>
<path id="path30249" class="st0" d="M230.1,225l3.1-5"/>
<path id="path30251" class="st0" d="M217.4,244l0.5-0.8"/>
<path id="path30253" class="st0" d="M219.6,240.4l0.5-0.8"/>
<path id="path30255" class="st0" d="M218,244.5l2.8-4.5"/>
<path id="path30257" class="st0" d="M241.8,204.6l0.5-0.8"/>
<path id="path30259" class="st0" d="M244.4,200.4l0.5-0.8"/>
<path id="path30261" class="st0" d="M242.4,205l3.1-5"/>
<path id="path30263" class="st0" d="M260.3,174.6l0.5-0.8"/>
<path id="path30265" class="st0" d="M262.9,170.4l0.5-0.8"/>
<path id="path30267" class="st0" d="M261,175.1l1.5-2.5l1.5-2.5"/>
<path id="path30269" class="st0" d="M235.6,214.6l0.5-0.8"/>
<path id="path30271" class="st0" d="M238.2,210.4l0.5-0.8"/>
<path id="path30273" class="st0" d="M236.2,215l3.1-5"/>
<path id="path30275" class="st0" d="M223.2,234.6l0.5-0.8"/>
<path id="path30277" class="st0" d="M225.8,230.4l0.5-0.8"/>
<path id="path30279" class="st0" d="M223.9,235l1.5-2.5l1.5-2.5"/>
<path id="path30281" class="st0" d="M247.9,194.6l0.5-0.8"/>
<path id="path30283" class="st0" d="M250.5,190.4l0.5-0.8"/>
<path id="path30285" class="st0" d="M248.6,195l3.1-5"/>
<path id="path30287" class="st0" d="M214,241.7l-0.7,1.2"/>
<path id="path30289" class="st0" d="M214,241.7l-2.2-1.6"/>
<path id="path30291" class="st0" d="M186.9,225.4l-0.7,1.2"/>
<path id="path30293" class="st0" d="M186.8,227l-0.7-0.4L186.8,227"/>
<path id="path30295" class="st0" d="M154,206.4l-0.7,1.2"/>
<path id="path30297" class="st0" d="M153.9,208.1l-0.6-0.4"/>
<path id="path30299" class="st0" d="M154,206.4l5.5,3.2l5.5,3.2"/>
<path id="path30301" class="st0" d="M153.3,207.6l0.7,0.4"/>
<path id="path30303" class="st0" d="M206.1,122.8l0.7,0.4l-0.9-0.6l0.7-1.2"/>
<path id="path30305" class="st0" d="M205.9,122.5l5.5,3.2l5.5,3.2"/>
<path id="path30307" class="st0" d="M206.7,121.3l5.5,3.2l5.5,3.2"/>
<path id="path30309" class="st0" d="M225.8,135.1l-0.7-0.5l-0.9-0.5l-4.7-2.7l-4.9-2.8l-0.9-0.5"/>
<path id="path30311" class="st0" d="M203.1,121.2l0.4,0.3"/>
<path id="path30313" class="st0" d="M203.2,121.3l1.9,1.3"/>
<path id="path30315" class="st0" d="M205.4,122.9l0.4,0.3"/>
<path id="path30317" class="st0" d="M265.9,157.8l0.7-1.2l-2.2-1.6"/>
<path id="path30319" class="st0" d="M249.8,147.9l-5.5-3.2l-5.5-3.2l0.7-1.2"/>
<path id="path30321" class="st0" d="M250.6,146.7l-5.5-3.2l-5.5-3.2"/>
<path id="path30323" class="st0" d="M238.8,141.5l0.9,0.6"/>
<path id="path30325" class="st0" d="M231.7,137.7l0.4,0.3"/>
<path id="path30327" class="st0" d="M231.8,137.9l2.8,2"/>
<path id="path30329" class="st0" d="M235,140l0.4,0.3"/>
<path id="path30331" class="st0" d="M246.6,147l0.7,0.4l5.1,3l2.8,1.6"/>
<path id="path30333" class="st0" d="M231.7,137.7l-1.3-0.8l-1.3-0.8"/>
<path id="path30335" class="st0" d="M202.3,120.7l0.8,0.5"/>
<path id="path30337" class="st0" d="M161.2,172.8l0.5-0.8"/>
<path id="path30339" class="st0" d="M167.1,160.4l1,0.6"/>
<path id="path30341" class="st0" d="M168.4,161.2l0.5-0.8"/>
<path id="path30343" class="st0" d="M171,157l0.5-0.8"/>
<path id="path30345" class="st0" d="M176.9,144.6l1,0.6"/>
<path id="path30347" class="st0" d="M178.2,145.4l0.5-0.8"/>
<path id="path30349" class="st0" d="M180.8,141.2l0.5-0.8"/>
<path id="path30351" class="st0" d="M183.4,137l0.5-0.8"/>
<path id="path30353" class="st0" d="M186,132.9l0.5-0.8"/>
<path id="path30355" class="st0" d="M191.8,120.5l1,0.6"/>
<path id="path30357" class="st0" d="M193.2,121.2l0.5-0.8"/>
<path id="path30359" class="st0" d="M193.3,120.2l2.3-3.7l3.5,2"/>
<path id="path30361" class="st0" d="M196.4,123.1l1,0.6l-6.7,10.8"/>
<path id="path30363" class="st0" d="M198.1,124.1l-6.7,10.8"/>
<path id="path30365" class="st0" d="M189.2,134.7l-2.1,3.4"/>
<path id="path30367" class="st0" d="M188.3,140l-2.1,3.3"/>
<path id="path30369" class="st0" d="M184,143l-2.1,3.4"/>
<path id="path30371" class="st0" d="M181.4,147.2l1,0.6l-6.7,10.8"/>
<path id="path30373" class="st0" d="M183.1,148.3l-6.7,10.8"/>
<path id="path30375" class="st0" d="M171.7,163.1l1,0.6l-6.7,10.8"/>
<path id="path30377" class="st0" d="M173.3,164.1l-6.7,10.8"/>
<path id="path30379" class="st0" d="M156.7,187.2l1,0.6l-9.5,15.3"/>
<path id="path30381" class="st0" d="M158.4,188.3l-9.4,15.2"/>
<path id="path30383" class="st0" d="M146.3,197l0.5-0.8"/>
<path id="path30385" class="st0" d="M145.5,195.4l6.7-10.8l1,0.6"/>
<path id="path30387" class="st0" d="M153.5,185.4l0.5-0.8"/>
<path id="path30389" class="st0" d="M156.1,181.2l0.5-0.8"/>
<path id="path30391" class="st0" d="M158.7,177l0.5-0.8"/>
<path id="path30393" class="st0" d="M181,140.2l2.1-3.3"/>
<path id="path30395" class="st0" d="M156.3,180.2l2.1-3.3"/>
<path id="path30397" class="st0" d="M161.1,183l2.1-3.3"/>
<path id="path35537" class="st1" d="M139,298.2l-0.2-0.1l-0.2-0.1l-0.2-0.1l-0.2-0.1l0,0l0,0l-0.2-0.1l-0.2-0.1l-0.2-0.1l-0.2-0.1
	l0,0l-0.4,0.2l-0.1,0.1h-0.2l-0.2-0.1l-0.2-0.1l-0.2-0.2l-0.2-0.3l-0.1-0.3l0-0.1l-0.1-0.1l-0.1-0.1l-0.1-0.1l-0.2-0.1l-0.2-0.1
	l-0.2-0.1l-0.2-0.1v0l0,0l0,0l0.2-0.6l0.2-0.6l0.2-0.6l0.2-0.6l0-0.1l0-0.1l0-0.1l0-0.1l0-0.1l-0.1-0.1l-0.1-0.1l-0.1,0l-0.5-0.3
	l-0.5-0.3l0-0.3l-0.1-0.3l0-0.1l-0.5-0.3l-0.6-0.3l-0.6-0.3l-0.2,0.1l-0.2,0.1l-0.1-0.1v0l0.2,0.9l0.2,0.9l0.2,0.9l0,0l0,0v0
	l-0.1,0.1l-0.1,0.1l-0.1,0.1l-0.1,0.1l-0.1,0.1l-0.1,0.1l-0.1,0.1l-0.1,0.1l-1.9-1.1l-1.9-1.1l-1.9-1.1l-1.9-1.1v0l0,0l0,0l0.2-0.6
	l0.2-0.6l0.2-0.6l0.2-0.6l0-0.1l0-0.1l0-0.1l0-0.1l-0.1-0.1l-0.1-0.1l-0.1-0.1l-0.1,0L124,286l-0.5-0.3l0-0.3l-0.1-0.3l0-0.1
	l-0.5-0.3l-0.6-0.3l-0.6-0.3l-0.2,0.1l-0.2,0.1l-0.1-0.1v0l0.2,0.9l0.2,0.9l0.2,0.9l0,0l0,0v0l-0.1,0.1l-0.1,0.1l-0.1,0.1l-0.1,0.1
	l-0.1,0.1l-0.1,0.1l-0.1,0.1l-0.1,0.1l-1.9-1.1l-1.9-1.1l-1.9-1.1l-1.9-1.1v0l0,0l0,0l0.2-0.6l0.2-0.6l0.2-0.6l0.2-0.6l0-0.1l0-0.1
	l0-0.1l0-0.1l-0.1-0.1l-0.1-0.1l-0.1-0.1l-0.1,0l-0.5-0.3l-0.5-0.3l0-0.3l-0.1-0.3l0-0.1l-0.5-0.3l-0.6-0.3l-0.1-0.1l-0.1,0.1
	l-0.7,0.4l-0.1,0l0.1,0.4l0.2,0.9l0.2,0.9l0,0l0,0v0l-0.1,0.1l-0.1,0.1l-0.1,0.1l-0.1,0.1l-0.1,0.1l-0.1,0.1l-0.1,0.1l-0.1,0.1
	l-0.2-0.1l-0.2-0.1l-0.2-0.1l-0.2-0.1l0,0l-0.4,0.2l-0.1,0.1h-0.2l-0.2-0.1l-0.2-0.1l-0.2-0.2l-0.1-0.3l-0.1-0.3l0-0.1l-0.1-0.1
	l-0.1-0.1l-0.1-0.1l-0.2-0.1l-0.2-0.1l-0.2-0.1l-0.2-0.1l-0.2-0.1l-0.2-0.1l-0.2-0.1l-0.2-0.1v-1.1v-1.1v-1.1v-1.1v-0.4v-0.4v-0.4
	v-0.4l0.1-0.1l0.1-0.1l0.1-0.1l0.1-0.1l0.1-0.1l0.1-0.1l0.1-0.1l0.1-0.1v-0.4v-1.3v-1l-0.2,0l-0.7-0.1l0,0l0,0l0,0v-0.4v-0.4V268
	v-0.4l0,0v-2v-2v-2v-2l0.8-1.3l0.8-1.3l0.8-1.3l0.8-1.3l0,0l4-6.4l0.7-1.2l0,0l0,0l0,0l0.1,0l0.1,0.1l0.1,0.1l0.1,0.1l0.1,0.1l0,0
	l0,0l0,0l2.3-3.7l-0.1-0.1l-0.1-0.1l-0.1-0.1l-0.1-0.1l-0.1-0.1l-0.1-0.1l-0.1-0.1l-0.1-0.1l0.4-0.7l0.4-0.7l0.4-0.7l0.4-0.7l0,0
	l0,0l3.1-5l0,0l0.4-0.7l0.4-0.7l0.4-0.7l0.4-0.7l0,0l0.1,0l0,0l0,0l0.1,0.1l0.1,0.1l0.1,0.1l0.1,0.1l0.1,0l0,0l2.3-3.7l-0.1-0.1
	l-0.1-0.1l-0.1-0.1l-0.1-0.1l-0.1-0.1l-0.1-0.1l0.7-1.2l2.1-3.3h0h0l1.4-2.2l1.4-2.2l1.4-2.2l1.4-2.2l1.4-2.2l1.4-2.2l0,0l2.1-3.3
	l0.7-1.2l0,0l0.1,0l0,0l0,0l0.1,0.1l0.1,0.1l0.1,0.1l0.1,0.1l0.1,0l0,0l2.3-3.7l-0.1-0.1l-0.1-0.1l-0.1-0.1l-0.1-0.1l-0.1-0.1
	l-0.1-0.1l-0.1-0.1l-0.1-0.1l0.4-0.7l0.4-0.7l0.4-0.7l0.4-0.7l0,0l0,0l3.1-5l0,0l6.7-10.8l0,0v0l1.4-2.2l1.4-2.2l1.4-2.2l1.4-2.2
	l1.4-2.2l1.4-2.2l0,0l6.7-10.8l0,0l0,0l3.1-5l0,0l6.7-10.8h0h0l1-1.7l1-1.7l1-1.7l1-1.7l0,0l1-1.7l1-1.7l1-1.7l1-1.7l0,0l6.7-10.8v0
	v0l2.8-4.5l1.9-3.1l0,0l0,0l0,0l0.1,0l0.1,0.1l0.1,0.1l0.1,0.1l0.1,0.1l0,0l0,0l0,0l2.3-3.7l0,0l-0.1-0.1l-0.1-0.1l-0.1-0.1
	l-0.1-0.1l-0.1-0.1l-0.1-0.1l0.7-1.2l2.1-3.3v0v0l1.4-2.2l1.4-2.2l1.4-2.2l1.4-2.2l1.4-2.2l1.4-2.2l0,0l2.1-3.3l1.7-2.8l0,0l0,0l0,0
	l0.1,0l0.1,0.1l0.1,0.1l0.1,0.1l0.1,0.1l0.1,0l0,0l0.8-1.3l1.4-2.2l0.1-0.2l0,0l-0.1-0.1l-0.1-0.1l-0.1-0.1l-0.1-0.1l-0.1-0.1
	l-0.1-0.1l3.8-6.2l33.3,19.2l33.3,19.2l0.7,0.5l-2.5,4.1v2.4v2.4v2.4v2.4v2.4v2.4l-0.3,0.2l-0.3,0.2l-0.3,0.2l-0.3,0.2v0.2v0.2
	l0.2,0.1l0.2,0.1v2.2v2.2v2.2v2.2l-6.9,11.1l-12.4,20l-6.2,10l-6.2,10l-12.4,20l-12.4,20l-12.4,20l-12.4,20l-12.4,20l-2.9,4.7v2.1
	v2.1v2.1v2.1v2.1l-0.9,0.5l-0.9,0.5l-0.9,0.5l-0.9,0.5l-0.2-0.1l-0.2-0.1l-0.2,0.1l-0.2,0.1v0.4v0.4v0.4v0.4l-0.7,0.4l-0.7,0.4
	l-0.7,0.4l-0.7,0.4l-0.3-0.2l-0.3-0.2l-0.3-0.2v-0.6v-0.6v-0.6v-0.1l-0.1-0.1l-0.2-0.1v-6.7l-0.7,0.4l-0.2,0.1l0.1,0.3l0,0l0,0v0
	l-0.1,0.1l-0.1,0.1l-0.1,0.1l-0.1,0l0,0l0.2,0.1v7l-0.1,0.1l-0.1,0.1l-0.1,0.1l-0.1,0.1v0.6v0.6v0.6v0.6l-0.7,0.4l-0.7,0.4l-0.7,0.4
	l-0.7,0.4l-0.2-0.1l-0.2-0.1l-0.2-0.1l-0.2-0.1l-0.2-0.1l-0.1,0.1l-0.4,0.2l-0.4,0.2l-0.4,0.2l-0.2-0.1l-0.2-0.1l-0.2-0.1l-0.2-0.1
	l0,0l0,0l-0.2-0.1l-0.2-0.1l-0.2-0.1l-0.2-0.1l0,0l-0.4,0.2l-0.1,0.1h-0.2l-0.2-0.1l-0.2-0.1l-0.2-0.2l-0.2-0.3l-0.1-0.3l0-0.1
	l-0.1-0.1l-0.1-0.1l-0.1-0.1l-0.2-0.1l-0.2-0.1l-0.2-0.1l-0.2-0.1v0l0,0l0,0l0.2-0.6l0.2-0.6l0.2-0.6l0.2-0.6l0-0.1l0-0.1l0-0.1
	l0-0.1l0-0.1l-0.1-0.1l-0.1-0.1l-0.1,0l-0.5-0.3l-0.5-0.3l0-0.3l-0.1-0.3l0-0.1l-0.5-0.3l-0.6-0.3l-0.6-0.3l-0.2,0.1l-0.3,0.1
	l-0.1-0.1v0l0.2,0.9l0.2,0.9l0.2,0.9l0,0l0,0v0l-0.1,0.1l-0.1,0.1l-0.1,0.1l-0.1,0.1l-0.1,0.1l-0.1,0.1l-0.1,0.1l-0.1,0.1L163,312
	l-1.9-1.1l-1.9-1.1l-1.9-1.1v0l0,0l0,0l0.2-0.6l0.2-0.6l0.2-0.6l0.2-0.6l0-0.1l0-0.1l0-0.1l0-0.1l-0.1-0.1l-0.1-0.1l-0.1-0.1l-0.1,0
	l-0.5-0.3l-0.5-0.3l0-0.3l-0.1-0.3l0-0.1l-0.5-0.3l-0.6-0.3l-0.6-0.3l-0.2,0.1l-0.2,0.1l-0.1-0.1v0l0.2,0.9l0.2,0.9l0.2,0.9l0,0l0,0
	v0l-0.1,0.1l-0.1,0.1l-0.1,0.1l-0.1,0.1l-0.1,0.1l-0.1,0.1l-0.1,0.1l-0.1,0.1l-1.9-1.1l-1.9-1.1l-1.9-1.1l-1.9-1.1v0l0,0l0,0
	l0.2-0.6l0.2-0.6l0.2-0.6l0.2-0.6l0-0.1l0-0.1l0-0.1l0-0.1l-0.1-0.1l-0.1-0.1l-0.1-0.1l-0.1,0l-0.5-0.3l-0.5-0.3l0-0.3l-0.1-0.3
	l0-0.1l-0.5-0.3l-0.6-0.3l-0.1-0.1l-0.1,0.1l-0.7,0.4l-0.1,0l0.1,0.4l0.2,0.9l0.2,0.9l0,0l0,0v0l-0.1,0.1l-0.1,0.1l-0.1,0.1
	l-0.1,0.1l-0.1,0.1l-0.1,0.1l-0.1,0.1l-0.1,0.1l-0.2-0.1l-0.2-0.1l-0.2-0.1l-0.2-0.1l0,0l-0.4,0.2l-0.1,0.1h-0.2l-0.2-0.1l-0.2-0.1
	l-0.2-0.2l-0.1-0.3l-0.1-0.3l0-0.1l-0.1-0.1l-0.1-0.1l-0.1-0.1l-0.2-0.1l-0.2-0.1l-0.2-0.1l-0.2-0.1l-0.2-0.1l-0.2-0.1l-0.2-0.1
	L139,298.2z"/>
<path id="path35539" class="st0" d="M247.5,147.6L247.5,147.6l-10.9-6.3l-10.9-6.3l0,0l-11.1-6.4l0,0l-5.8-3.3l1.7,1.2l-7.4,12
	l-12.4,20l-12.4,20l-12.4,20l-6.8,11l5.8,3.3l0,0l9.9,5.7l0.2,0.1l0.2,0.1l0.2,0.1l0.2,0.1l1,0.6l0.3,0.2l0-0.1l9.9,5.7l0,0l0,0
	l11.1,6.4l5.8,3.3l9.5-15.3l0,0l0,0l1.4-2.2l1.4-2.2l1.4-2.2l1.4-2.2l1.4-2.2l1.4-2.2l0,0l6.7-10.8h0h0l3.1-5l0,0l6.7-10.8l0,0l0,0
	l1.4-2.2l1.4-2.2l1.4-2.2l1.4-2.2l1.4-2.2l1.4-2.2l0,0l6.7-10.8h0l0,0l2.3-3.6L247.5,147.6z"/>
<path id="path35541" class="st0" d="M139,291.3v-0.8v-1.3v-0.6l0,0l0,0l0,0l0,0l0,0l-0.7-0.7l-0.7-0.7l-0.7-0.7l0,0v0.2v1.2v1.2v1.2
	l0,0.1l0,0.1l0,0.1l0,0.1l0.1,0.1l0.1,0.1l0.1,0.1l0.1,0l0.7,0.1l0.7,0.1L139,291.3z"/>
<path id="path35543" class="st0" d="M172.2,310.5v-0.8v-1.3v-0.6h0l0,0l0,0l0,0l-0.7-0.7l-0.7-0.7l-0.7-0.7l0,0v0.2v1.2v1.2v1.2
	l0,0.1l0,0.1l0,0.1l0,0.1l0.1,0.1l0.1,0.1l0.1,0.1l0.1,0l0.7,0.1l0.7,0.1L172.2,310.5z"/>
</svg>
