<?xml version="1.0" encoding="utf-8"?>
<!-- Generator: Adobe Illustrator 25.4.8, SVG Export Plug-In . SVG Version: 6.00 Build 0)  -->
<svg version="1.1"
	 id="svg35575" xmlns:inkscape="http://www.inkscape.org/namespaces/inkscape" xmlns:sodipodi="http://sodipodi.sourceforge.net/DTD/sodipodi-0.dtd" xmlns:svg="http://www.w3.org/2000/svg"
	 xmlns="http://www.w3.org/2000/svg" xmlns:xlink="http://www.w3.org/1999/xlink" x="0px" y="0px" viewBox="0 0 392.7 392.7"
	 style="enable-background:new 0 0 392.7 392.7;" xml:space="preserve">
<style type="text/css">
	.st0{fill:none;stroke:#000000;stroke-width:0.225;}
	.st1{fill:none;stroke:#000000;stroke-width:0.75;}
</style>
<sodipodi:namedview  bordercolor="#666666" borderopacity="1.0" id="namedview35577" inkscape:current-layer="svg35575" inkscape:cx="556.0336" inkscape:cy="180.89078" inkscape:deskcolor="#d1d1d1" inkscape:document-units="pt" inkscape:pagecheckerboard="0" inkscape:pageopacity="0.0" inkscape:showpageshadow="2" inkscape:window-height="918" inkscape:window-maximized="0" inkscape:window-width="1312" inkscape:window-x="1926" inkscape:window-y="25" inkscape:zoom="0.48648139" pagecolor="#ffffff" showgrid="false">
	</sodipodi:namedview>
<path id="path30399" class="st0" d="M219.8,209.1l3.1-5"/>
<path id="path30401" class="st0" d="M248.3,165.2l-1-0.6"/>
<path id="path30403" class="st0" d="M226.8,153.6l-1-0.6"/>
<path id="path30405" class="st0" d="M260.5,84.6l-1-0.6"/>
<path id="path30407" class="st0" d="M260.5,84.6v0.7"/>
<path id="path30409" class="st0" d="M243.4,203.5l-0.7-0.5"/>
<path id="path30411" class="st0" d="M255.8,183.5l-0.7-0.5"/>
<path id="path30413" class="st0" d="M261.6,174l-0.7-0.5"/>
<path id="path30415" class="st0" d="M218.7,243.4L218,243"/>
<path id="path30417" class="st0" d="M224.9,233.5l-0.7-0.5"/>
<path id="path30419" class="st0" d="M212.5,253.4l-0.7-0.5"/>
<path id="path30421" class="st0" d="M231,223.5l-0.7-0.5"/>
<path id="path30423" class="st0" d="M237.2,213.5l-0.7-0.5"/>
<path id="path30425" class="st0" d="M181.6,303.4l-0.7-0.5"/>
<path id="path30427" class="st0" d="M187.8,293.4l-0.7-0.5"/>
<path id="path30429" class="st0" d="M206.3,263.4l-0.7-0.5"/>
<path id="path30431" class="st0" d="M193.9,283.4l-0.7-0.5"/>
<path id="path30433" class="st0" d="M200.1,273.4l-0.7-0.5"/>
<path id="path30435" class="st0" d="M137.2,208.8l-3.1,5"/>
<path id="path30437" class="st0" d="M109.4,253.8l3.1-5"/>
<path id="path30439" class="st0" d="M100.7,267.8l-3.3,5.4l1,0.6"/>
<path id="path30441" class="st0" d="M97.4,273.2v7.9"/>
<path id="path30443" class="st0" d="M97.4,287.9v4.5l1,0.6"/>
<path id="path30445" class="st0" d="M119.1,238l8.2-13.3"/>
<path id="path30447" class="st0" d="M129.7,311l1,0.6"/>
<path id="path30449" class="st0" d="M189.7,245.2l-5.5-3.2l-5.5-3.2"/>
<path id="path30451" class="st0" d="M206.5,263.6l-0.5,0.8"/>
<path id="path30453" class="st0" d="M216.3,247.8l-0.5,0.8"/>
<path id="path30455" class="st0" d="M205.1,247.1l-0.5,0.8"/>
<path id="path30457" class="st0" d="M212.7,253.6l-0.5,0.8"/>
<path id="path30459" class="st0" d="M210.4,257.3l-0.5,0.8"/>
<path id="path30461" class="st0" d="M204.2,253.4l-0.2,0.4"/>
<path id="path30463" class="st0" d="M203.7,253.1l0.4,0.3"/>
<path id="path30465" class="st0" d="M203,255.4l-0.4-0.3"/>
<path id="path30467" class="st0" d="M176.3,293.7l0.5-0.8"/>
<path id="path30469" class="st0" d="M179.9,287.9l0.5-0.8"/>
<path id="path30471" class="st0" d="M191.1,288.6l0.5-0.8"/>
<path id="path30473" class="st0" d="M181.3,304.4l0.5-0.8"/>
<path id="path30475" class="st0" d="M184.9,298.6l0.5-0.8"/>
<path id="path30477" class="st0" d="M187.5,294.4l0.5-0.8"/>
<path id="path30479" class="st0" d="M171.5,318.3l-0.7-0.4"/>
<path id="path30481" class="st0" d="M171.5,325.3l0.4-0.2"/>
<path id="path30483" class="st0" d="M171.9,327.4l-1-0.6"/>
<path id="path30485" class="st0" d="M171.9,327.4l2.8-1.6v-1.5"/>
<path id="path30487" class="st0" d="M175.3,324.2l3.5-2v-10.4"/>
<path id="path30489" class="st0" d="M179.2,307.8l-0.5,0.8"/>
<path id="path30491" class="st0" d="M168.7,306l-0.5,0.8"/>
<path id="path30493" class="st0" d="M165.3,318.7v0.8"/>
<path id="path30495" class="st0" d="M165.3,324.8v0.8"/>
<path id="path30497" class="st0" d="M165.7,329.4l0.7-0.4"/>
<path id="path30499" class="st0" d="M166.3,330.6l-1-0.6"/>
<path id="path30501" class="st0" d="M166.3,330.6l2.8-1.6v-2.3l0.4-0.2v-7"/>
<path id="path30503" class="st0" d="M171.8,318.1l-0.7-0.4"/>
<path id="path30505" class="st0" d="M177.4,316.5v0.8"/>
<path id="path30507" class="st0" d="M177.4,319.6v0.8"/>
<path id="path30509" class="st0" d="M186.1,277.9l0.5-0.8"/>
<path id="path30511" class="st0" d="M194.8,263.7l0.5-0.8"/>
<path id="path30513" class="st0" d="M203.4,268.6l0.5-0.8"/>
<path id="path30515" class="st0" d="M193.7,284.4l0.5-0.8"/>
<path id="path30517" class="st0" d="M191.5,268.6l0-0.4"/>
<path id="path30519" class="st0" d="M197.3,278.6l0.5-0.8"/>
<path id="path30521" class="st0" d="M199.9,274.4l0.5-0.8"/>
<path id="path30523" class="st0" d="M225.8,213.7l0.5-0.8"/>
<path id="path30525" class="st0" d="M229.4,207.9l0.5-0.8"/>
<path id="path30527" class="st0" d="M240.5,208.6l0.5-0.8"/>
<path id="path30529" class="st0" d="M230.8,224.4l0.5-0.8"/>
<path id="path30531" class="st0" d="M234.4,218.6l0.5-0.8"/>
<path id="path30533" class="st0" d="M237,214.4l0.5-0.8"/>
<path id="path30535" class="st0" d="M238.6,191.7l0,0.4"/>
<path id="path30537" class="st0" d="M240,190.3l-0.4-0.2"/>
<path id="path30539" class="st0" d="M240,190.3l1.6,1.1l-0.1,0.6"/>
<path id="path30541" class="st0" d="M246.1,194.8l-0.2,0.4l-2.3,2.3l-0.2,0.4"/>
<path id="path30543" class="st0" d="M243.1,204.4l0.5-0.8"/>
<path id="path30545" class="st0" d="M235.6,197.9l0.5-0.8"/>
<path id="path30547" class="st0" d="M210.8,237.9l0.5-0.8"/>
<path id="path30549" class="st0" d="M219.6,223.7l0.5-0.8"/>
<path id="path30551" class="st0" d="M228.2,228.6l0.5-0.8"/>
<path id="path30553" class="st0" d="M218.4,244.4l0.5-0.8"/>
<path id="path30555" class="st0" d="M213.9,231.7l0,0.4"/>
<path id="path30557" class="st0" d="M214.2,231.9l2.1-3.3l0-0.4"/>
<path id="path30559" class="st0" d="M222,238.6l0.5-0.8"/>
<path id="path30561" class="st0" d="M224.6,234.4l0.5-0.8"/>
<path id="path30563" class="st0" d="M203.2,255l-0.5-0.3"/>
<path id="path30565" class="st0" d="M204.2,253.4l-0.5-0.3"/>
<path id="path30567" class="st0" d="M206,254.7l-0.2,0.4"/>
<path id="path30569" class="st0" d="M249.7,197.2l-6.2,10l-12.4,20l-12.4,20l-12.4,20l-12.4,20l-12.4,20l-2.9,4.7"/>
<path id="path30571" class="st0" d="M189.1,272.1l0.3-0.2"/>
<path id="path30573" class="st0" d="M191.5,268.1l-0.3,0.2"/>
<path id="path30575" class="st0" d="M238.6,192.1l0.3-0.2"/>
<path id="path30577" class="st0" d="M213.8,232.1l0.3-0.2"/>
<path id="path30579" class="st0" d="M216.3,228.2l-0.3,0.2"/>
<path id="path30581" class="st0" d="M170.5,318.1v6.7"/>
<path id="path30583" class="st0" d="M170.9,325v1.9"/>
<path id="path30585" class="st0" d="M204.5,256l0.5,0.3"/>
<path id="path30587" class="st0" d="M220.8,209.7l0.5-0.8"/>
<path id="path30589" class="st0" d="M230.6,193.8l0.5-0.8"/>
<path id="path30591" class="st0" d="M245.6,169.7l0.5-0.8"/>
<path id="path30593" class="st0" d="M159.8,174.4l0.5-0.8"/>
<path id="path30595" class="st0" d="M169.6,158.6l0.5-0.8"/>
<path id="path30597" class="st0" d="M144.9,198.6l0.5-0.8"/>
<path id="path30599" class="st0" d="M237.9,112.9c-0.2-0.1-0.5,0-0.6,0.2l-0.7,1.2"/>
<path id="path30601" class="st0" d="M238,113.6l-0.7,1.2l-1.7,2.8l-0.7,1.2"/>
<path id="path30603" class="st0" d="M207,102.7l0.7-1.2"/>
<path id="path30605" class="st0" d="M206.7,96.5l0.7,0.5"/>
<path id="path30607" class="st0" d="M206.7,96.5l1.6-2.6"/>
<path id="path30609" class="st0" d="M209.8,93.6l2.1-3.4"/>
<path id="path30611" class="st0" d="M211.4,88.9l1.6-2.6"/>
<path id="path30613" class="st0" d="M215.6,88.8l0.7-1.2"/>
<path id="path30615" class="st0" d="M215.3,82.6l0.7,0.5"/>
<path id="path30617" class="st0" d="M242.7,104.4c-0.1,0.2-0.1,0.5,0.1,0.6"/>
<path id="path30619" class="st0" d="M243.3,107.3l-0.5,0.8"/>
<path id="path30621" class="st0" d="M240.7,111.5l-0.5,0.8"/>
<path id="path30623" class="st0" d="M218.1,84.8l0.7-1.2"/>
<path id="path30625" class="st0" d="M209.5,98.7l0.7-1.2"/>
<path id="path30627" class="st0" d="M235.2,117.4l1.7-2.8l-0.3-0.2"/>
<path id="path30629" class="st0" d="M236.9,114.6c-0.5-0.4-1.6,0-2,0.7c-0.5,0.6-0.4,1.6,0.1,2"/>
<path id="path30631" class="st0" d="M236.6,114.4l-1.1-0.1l-1,0.8l-0.3,1.2l0.5,0.8"/>
<path id="path30633" class="st0" d="M255.7,87.4l-0.5,0.8"/>
<path id="path30635" class="st0" d="M253.1,91.5l-0.5,0.8"/>
<path id="path30637" class="st0" d="M219.6,77.8l2.1-3.4"/>
<path id="path30639" class="st0" d="M226.3,64.7l0.7,0.5"/>
<path id="path30641" class="st0" d="M226.3,64.7l1.8-2.8l33.3,19.2"/>
<path id="path30643" class="st0" d="M259.6,83.9l-1.3-0.8l0.7,0.5"/>
<path id="path30645" class="st0" d="M260.3,84.4l-1.3-0.8"/>
<path id="path30647" class="st0" d="M258.3,83.2l-0.5,0.8"/>
<path id="path30649" class="st0" d="M233.5,123.1l-0.5,0.8"/>
<path id="path30651" class="st0" d="M230.9,127.3l-0.5,0.8"/>
<path id="path30653" class="st0" d="M228.4,131.5l-0.5,0.8"/>
<path id="path30655" class="st0" d="M225.8,135.7l-0.5,0.8"/>
<path id="path30657" class="st0" d="M194.8,117.8l2.1-3.4"/>
<path id="path30659" class="st0" d="M200,109.5l2.1-3.4"/>
<path id="path30661" class="st0" d="M220.8,140.7l-0.3-0.2"/>
<path id="path30663" class="st0" d="M208.7,142.3l0.7,0.5"/>
<path id="path30665" class="st0" d="M209.7,140.7l-0.7-0.4L209.7,140.7"/>
<path id="path30667" class="st0" d="M209,140.3l-0.2,0.4"/>
<path id="path30669" class="st0" d="M199.3,134.7l-0.7-0.4L199.3,134.7"/>
<path id="path30671" class="st0" d="M190.9,128.8l0.7-1.2"/>
<path id="path30673" class="st0" d="M190.5,122.5l0.7,0.5"/>
<path id="path30675" class="st0" d="M221.8,139c-0.2-0.1-0.5,0-0.6,0.2l-0.7,1.2"/>
<path id="path30677" class="st0" d="M193.4,124.8l0.7-1.2"/>
<path id="path30679" class="st0" d="M219,143.5l1.7-2.8c-0.5-0.4-1.6,0-2,0.7c-0.5,0.6-0.4,1.6,0.1,2"/>
<path id="path30681" class="st0" d="M220.4,140.4c-0.5-0.4-1.6,0-2,0.7c-0.5,0.6-0.4,1.8,0.2,2.1"/>
<path id="path30683" class="st0" d="M201.6,104.7l2.1-3.3l0.7-1.2"/>
<path id="path30685" class="st0" d="M215.3,82.6l0.7-1.2l2.1-3.3"/>
<path id="path30687" class="st0" d="M221.8,139.7l-0.7,1.2l-1.7,2.8l-0.7,1.2"/>
<path id="path30689" class="st0" d="M190.5,122.5l0.7-1.2l2.1-3.3"/>
<path id="path30691" class="st0" d="M193.5,124.8l0.3,0.2"/>
<path id="path30693" class="st0" d="M218.4,85.1l-1.6,2.7"/>
<path id="path30695" class="st0" d="M209.8,99l-1.6,2.7"/>
<path id="path30697" class="st0" d="M273.7,153l0.7,0.5"/>
<path id="path30699" class="st0" d="M279.8,143l0.7,0.5"/>
<path id="path30701" class="st0" d="M238.6,160.6l0.7,0.5l5.5,3.2l2,1.2"/>
<path id="path30703" class="st0" d="M150.5,189.5l2.1-3.4"/>
<path id="path30705" class="st0" d="M152.1,184.7l6.7-10.8"/>
<path id="path30707" class="st0" d="M160.3,173.6l2.1-3.4"/>
<path id="path30709" class="st0" d="M170.1,157.8l2.1-3.4"/>
<path id="path30711" class="st0" d="M175.3,149.5l2.1-3.4"/>
<path id="path30713" class="st0" d="M176.8,144.7l6.7-10.8"/>
<path id="path30715" class="st0" d="M188.3,135.5l-0.5,0.8"/>
<path id="path30717" class="st0" d="M189.8,137.5l-0.7-0.5"/>
<path id="path30719" class="st0" d="M181.1,147.1l-0.5,0.8"/>
<path id="path30721" class="st0" d="M178.5,151.3l-0.5,0.8"/>
<path id="path30723" class="st0" d="M175.9,155.5l-0.5,0.8"/>
<path id="path30725" class="st0" d="M173.3,159.7l-0.5,0.8"/>
<path id="path30727" class="st0" d="M174.8,161.7l-0.7-0.5"/>
<path id="path30729" class="st0" d="M166.1,171.3l-0.5,0.8"/>
<path id="path30731" class="st0" d="M163.5,175.5l-0.5,0.8"/>
<path id="path30733" class="st0" d="M156.3,187.1l-0.5,0.8"/>
<path id="path30735" class="st0" d="M153.7,191.3l-0.5,0.8"/>
<path id="path30737" class="st0" d="M151.2,195.4l-0.5,0.8"/>
<path id="path30739" class="st0" d="M148.6,199.6l-0.5,0.8"/>
<path id="path30741" class="st0" d="M150.1,201.7l-0.7-0.5"/>
<path id="path30743" class="st0" d="M135.4,213.9l2.3-3.7"/>
<path id="path30745" class="st0" d="M137.2,208.8l6.7-10.8"/>
<path id="path30747" class="st0" d="M179.6,153.1l-0.3-0.2"/>
<path id="path30749" class="st0" d="M152.8,196.5l2.1-3.3l-0.3-0.2"/>
<path id="path30751" class="st0" d="M152.8,196.5l-0.3-0.2"/>
<path id="path30753" class="st0" d="M216.8,223.1l0.5-0.8"/>
<path id="path30755" class="st0" d="M226,212.7l-0.7-0.5"/>
<path id="path30757" class="st0" d="M224,211.5l0.5-0.8"/>
<path id="path30759" class="st0" d="M226.6,207.3l0.5-0.8"/>
<path id="path30761" class="st0" d="M235.8,196.9l-0.7-0.5"/>
<path id="path30763" class="st0" d="M233.8,195.7l0.5-0.8"/>
<path id="path30765" class="st0" d="M236.4,191.5l0.5-0.8"/>
<path id="path30767" class="st0" d="M239,187.3l0.5-0.8"/>
<path id="path30769" class="st0" d="M241.6,183.1l0.5-0.8"/>
<path id="path30771" class="st0" d="M250.8,172.8l-0.7-0.5"/>
<path id="path30773" class="st0" d="M248.8,171.5l0.5-0.8"/>
<path id="path30775" class="st0" d="M238.4,181.3l-2.1,3.4"/>
<path id="path30777" class="st0" d="M233.2,189.6l-2.1,3.4"/>
<path id="path30779" class="st0" d="M219.8,209.1l-6.7,10.8"/>
<path id="path30781" class="st0" d="M213.6,221.3l-2.1,3.4"/>
<path id="path30783" class="st0" d="M204.9,233.2l-9.5,15.3"/>
<path id="path30785" class="st0" d="M201.9,247.3l0.5-0.8"/>
<path id="path30787" class="st0" d="M211.1,236.9l-0.7-0.5"/>
<path id="path30789" class="st0" d="M209.1,235.7l0.5-0.8"/>
<path id="path30791" class="st0" d="M211.7,231.5l0.5-0.8"/>
<path id="path30793" class="st0" d="M214.3,227.3l0.5-0.8"/>
<path id="path30795" class="st0" d="M238.6,191.7l-0.3-0.2"/>
<path id="path30797" class="st0" d="M240.6,188.4l-0.3-0.2"/>
<path id="path30799" class="st0" d="M215.9,228.3l-2.1,3.3l-0.3-0.2"/>
<path id="path30801" class="st0" d="M215.9,228.3l-0.3-0.2"/>
<path id="path30803" class="st0" d="M185.5,163.2l-0.7-0.5"/>
<path id="path30805" class="st0" d="M182.4,168.2l-0.7-0.5"/>
<path id="path30807" class="st0" d="M194.8,148.2l-0.7-0.5"/>
<path id="path30809" class="st0" d="M163.8,198.2l-0.7-0.5"/>
<path id="path30811" class="st0" d="M160.8,203.2l-0.7-0.5"/>
<path id="path30813" class="st0" d="M173.1,183.2l-0.7-0.5"/>
<path id="path30815" class="st0" d="M144.6,276.7l-0.7,1.2"/>
<path id="path30817" class="st0" d="M172,298.6l0.7,0.5"/>
<path id="path30819" class="st0" d="M169.1,298l0.7-1.2l1.7-2.8l0.7-1.2"/>
<path id="path30821" class="st0" d="M171.7,292.3c0.1-0.2,0.4-0.3,0.6-0.2"/>
<path id="path30823" class="st0" d="M175.9,292.3l0.7,0.5"/>
<path id="path30825" class="st0" d="M174.6,291.5l0.5-0.8"/>
<path id="path30827" class="st0" d="M177.2,287.3l0.5-0.8"/>
<path id="path30829" class="st0" d="M180.6,284.7l0.7,0.5"/>
<path id="path30831" class="st0" d="M177.7,284.1l0.7-1.2l1.7-2.8l0.7-1.2"/>
<path id="path30833" class="st0" d="M153.2,262.8l-0.7,1.2"/>
<path id="path30835" class="st0" d="M146.2,269.4l-2.1,3.4"/>
<path id="path30837" class="st0" d="M179.9,279.8l-0.3-0.2"/>
<path id="path30839" class="st0" d="M179.9,279.8l-1.7,2.8"/>
<path id="path30841" class="st0" d="M179.5,279.6l0.7-1.2"/>
<path id="path30843" class="st0" d="M171.2,293.8l-0.3-0.2"/>
<path id="path30845" class="st0" d="M171.2,293.8l-1.7,2.8"/>
<path id="path30847" class="st0" d="M170.9,293.5l0.7-1.2"/>
<path id="path30849" class="st0" d="M150.7,266.8L150,268"/>
<path id="path30851" class="st0" d="M142.1,280.7l-0.7,1.2"/>
<path id="path30853" class="st0" d="M168.7,233.1l9.9,5.7"/>
<path id="path30855" class="st0" d="M188,246.4l0.7,0.4"/>
<path id="path30857" class="st0" d="M192.6,262.3l-0.5,0.8"/>
<path id="path30859" class="st0" d="M190,266.5l-0.5,0.8"/>
<path id="path30861" class="st0" d="M191.5,268.6l-2.1,3.3l-0.4-0.2"/>
<path id="path30863" class="st0" d="M187.5,270.7l-0.5,0.8"/>
<path id="path30865" class="st0" d="M184.9,274.9l-0.5,0.8"/>
<path id="path30867" class="st0" d="M185.7,276.4l0.7,0.5"/>
<path id="path30869" class="st0" d="M153.9,257l2.1-3.4"/>
<path id="path30871" class="st0" d="M159.1,248.7l2.1-3.4"/>
<path id="path30873" class="st0" d="M191.2,268.3l0.3,0.2"/>
<path id="path30875" class="st0" d="M189.1,271.7l0.3,0.2"/>
<path id="path30877" class="st0" d="M165.5,306.2l0.5-0.8"/>
<path id="path30879" class="st0" d="M153.2,303.2l0.7,0.4"/>
<path id="path30881" class="st0" d="M152.9,303.6l0.2-0.4"/>
<path id="path30883" class="st0" d="M134.5,288.4l-2.8,4.6"/>
<path id="path30885" class="st0" d="M152.9,305.2l0.7,0.5"/>
<path id="path30887" class="st0" d="M153.2,303.2l0.6,0.4"/>
<path id="path30889" class="st0" d="M152.9,303.6l0.6,0.4"/>
<path id="path30891" class="st0" d="M131.7,293l0.7,0.5"/>
<path id="path30893" class="st0" d="M177.1,284.2c-0.2-0.1-0.2-0.4-0.1-0.6"/>
<path id="path30895" class="st0" d="M177.7,282.4l-0.5-0.8l0.3-1.2l1-0.8l1.1,0.1"/>
<path id="path30897" class="st0" d="M169.1,296.3l-0.5-0.8l0.3-1.2l1-0.8l1.1,0.1"/>
<path id="path30899" class="st0" d="M152.5,264l0.3,0.2"/>
<path id="path30901" class="st0" d="M151.1,266.9l1.6-2.7"/>
<path id="path30903" class="st0" d="M142.5,280.8l1.6-2.7"/>
<path id="path30905" class="st0" d="M178,282.5c-0.5-0.4-0.6-1.4-0.1-2c0.4-0.7,1.5-1.1,2-0.7"/>
<path id="path30907" class="st0" d="M169.4,296.4c-0.5-0.4-0.6-1.4-0.1-2c0.4-0.7,1.5-1.1,2-0.7"/>
<path id="path30909" class="st0" d="M205.7,141.6l0.7,0.5"/>
<path id="path30911" class="st0" d="M217.5,148.5l-5.5-3.2l-5.5-3.2"/>
<path id="path30913" class="st0" d="M256,183.6l-0.5,0.8"/>
<path id="path30915" class="st0" d="M265.8,167.8l-0.5,0.8"/>
<path id="path30917" class="st0" d="M251,172.9l-0.5,0.8"/>
<path id="path30919" class="st0" d="M261.8,174.2l-0.5,0.8"/>
<path id="path30921" class="st0" d="M259.6,177.8l-0.5,0.8"/>
<path id="path30923" class="st0" d="M255.8,169.9l-0.5-0.3"/>
<path id="path30925" class="st0" d="M255.6,170.3l-0.4-0.3"/>
<path id="path30927" class="st0" d="M256.4,168l0.4,0.3L256.4,168z"/>
<path id="path30929" class="st0" d="M256.8,168.3l-0.2,0.4"/>
<path id="path30931" class="st0" d="M258.2,169.3l0.4,0.3L258.2,169.3z"/>
<path id="path30933" class="st0" d="M240,190.3l1-1.7l0-0.4"/>
<path id="path30935" class="st0" d="M239.6,190l-0.3-0.2"/>
<path id="path30937" class="st0" d="M244.3,183.7l0.5-0.8"/>
<path id="path30939" class="st0" d="M252.9,188.6l0.5-0.8"/>
<path id="path30941" class="st0" d="M247.6,196.3l-1.1,3.1"/>
<path id="path30943" class="st0" d="M239.2,194.3l2.3-2.3"/>
<path id="path30945" class="st0" d="M275.2,133.7l0.5-0.8"/>
<path id="path30947" class="st0" d="M278.8,127.9l0.5-0.8"/>
<path id="path30949" class="st0" d="M285,117.9l0.5-0.8"/>
<path id="path30951" class="st0" d="M292.8,103.3v16l-1,0.6"/>
<path id="path30953" class="st0" d="M291.8,120.6v8.6"/>
<path id="path30955" class="st0" d="M280.2,144.4l0.5-0.8"/>
<path id="path30957" class="st0" d="M290.4,108.6l0-0.4"/>
<path id="path30959" class="st0" d="M283.8,138.6l0.5-0.8"/>
<path id="path30961" class="st0" d="M286.4,134.4l0.5-0.8"/>
<path id="path30963" class="st0" d="M260.3,157.9l0.5-0.8"/>
<path id="path30965" class="st0" d="M269,143.8l0.5-0.8"/>
<path id="path30967" class="st0" d="M277.6,148.6l0.5-0.8"/>
<path id="path30969" class="st0" d="M267.9,164.4l0.5-0.8"/>
<path id="path30971" class="st0" d="M265.7,148.6l0-0.4"/>
<path id="path30973" class="st0" d="M271.5,158.6l0.5-0.8"/>
<path id="path30975" class="st0" d="M274,154.4l0.5-0.8"/>
<path id="path30977" class="st0" d="M291.8,129.2l-7.8,12.6l-2.5,4l-0.9,1.4l-12.4,20l-12.4,20l-6.2,10"/>
<path id="path30979" class="st0" d="M241,188.2l-0.3,0.2"/>
<path id="path30981" class="st0" d="M288,112.1l0.3-0.2"/>
<path id="path30983" class="st0" d="M290.5,108.2l-0.3,0.2"/>
<path id="path30985" class="st0" d="M292,114.9l0.2-0.4"/>
<path id="path30987" class="st0" d="M291,126.2l0.2-0.4"/>
<path id="path30989" class="st0" d="M263.3,152.1l0.3-0.2"/>
<path id="path30991" class="st0" d="M164.8,178.5l0.5-0.8"/>
<path id="path30993" class="st0" d="M168.3,172.7l0.5-0.8"/>
<path id="path30995" class="st0" d="M179.5,173.4l0.5-0.8"/>
<path id="path30997" class="st0" d="M169.8,189.2l0.5-0.8"/>
<path id="path30999" class="st0" d="M173.3,183.4l0.5-0.8"/>
<path id="path31001" class="st0" d="M175.9,179.2l0.5-0.8"/>
<path id="path31003" class="st0" d="M174.5,162.7l0.5-0.8"/>
<path id="path31005" class="st0" d="M183.3,148.5l0.5-0.8"/>
<path id="path31007" class="st0" d="M191.9,153.4l0.5-0.8"/>
<path id="path31009" class="st0" d="M182.1,169.2l0.5-0.8"/>
<path id="path31011" class="st0" d="M177.6,156.5l0,0.4"/>
<path id="path31013" class="st0" d="M180,153.4l0-0.4"/>
<path id="path31015" class="st0" d="M185.7,163.4l0.5-0.8"/>
<path id="path31017" class="st0" d="M188.3,159.2l0.5-0.8"/>
<path id="path31019" class="st0" d="M194.5,149.2l0.5-0.8"/>
<path id="path31021" class="st0" d="M189.5,138.5l0.5-0.8"/>
<path id="path31023" class="st0" d="M193.8,134.5l0.4,0.3"/>
<path id="path31025" class="st0" d="M197,136.8l0.4,0.3"/>
<path id="path31027" class="st0" d="M149.8,202.6l0.5-0.8"/>
<path id="path31029" class="st0" d="M158.6,188.5l0.5-0.8"/>
<path id="path31031" class="st0" d="M167.2,193.4l0.5-0.8"/>
<path id="path31033" class="st0" d="M157.4,209.2l0.5-0.8"/>
<path id="path31035" class="st0" d="M152.8,196.5l0,0.4"/>
<path id="path31037" class="st0" d="M153.2,196.7l2.1-3.3l0-0.4"/>
<path id="path31039" class="st0" d="M161,203.4l0.5-0.8"/>
<path id="path31041" class="st0" d="M163.6,199.2l0.5-0.8"/>
<path id="path31043" class="st0" d="M155.3,212.6l-0.5,0.8"/>
<path id="path31045" class="st0" d="M142.4,217.6l0.4,0.3"/>
<path id="path31047" class="st0" d="M202.3,140l-7.4,12l-12.4,20l-12.4,20l-12.4,20l-6.8,11"/>
<path id="path31049" class="st0" d="M177.6,156.9l0.3-0.2"/>
<path id="path31051" class="st0" d="M180,152.9l-0.3,0.2"/>
<path id="path31053" class="st0" d="M152.8,196.9l0.3-0.2"/>
<path id="path31055" class="st0" d="M155.3,192.9l-0.3,0.2"/>
<path id="path31057" class="st0" d="M197.2,136.4l0.5,0.3"/>
<path id="path31059" class="st0" d="M142.3,217.7l0.5,0.3"/>
<path id="path31061" class="st0" d="M193.7,125.1l-1.6,2.7"/>
<path id="path31063" class="st0" d="M245.9,100.8l2.1,1.2"/>
<path id="path31065" class="st0" d="M227.6,65.5l-0.6-0.4"/>
<path id="path31067" class="st0" d="M165,177.5l-0.7-0.5"/>
<path id="path31069" class="st0" d="M170,188.2l-0.7-0.5"/>
<path id="path31071" class="st0" d="M239.2,194.3l-0.2,0.4"/>
<path id="path31073" class="st0" d="M180.3,284.6l2.4-3.9"/>
<path id="path31075" class="st0" d="M135.4,213.9l-0.3,0.5"/>
<path id="path31077" class="st0" d="M172.7,299l2.3-3.7"/>
<path id="path31079" class="st0" d="M171.7,298.5l2.4-3.9"/>
<path id="path31081" class="st0" d="M181.3,285.1l2.3-3.7"/>
<path id="path31083" class="st0" d="M172.7,151.4l1-1.7"/>
<path id="path31085" class="st0" d="M205.9,233.8l0.5-0.8"/>
<path id="path31087" class="st0" d="M227.6,137.8l0.5-0.8"/>
<path id="path31089" class="st0" d="M226.8,153.6l-0.4-0.3"/>
<path id="path31091" class="st0" d="M242.6,113.7l0.5-0.8"/>
<path id="path31093" class="st0" d="M110.4,254.4l0.5-0.8"/>
<path id="path31095" class="st0" d="M98.4,273.7v1.2"/>
<path id="path31097" class="st0" d="M120.1,238.6l0.5-0.8"/>
<path id="path31099" class="st0" d="M198.6,134.3l-0.2,0.4"/>
<path id="path31101" class="st0" d="M281.3,121.2l-2.1-1.2"/>
<path id="path31103" class="st0" d="M286,133l0.7,0.5"/>
<path id="path31105" class="st0" d="M238.6,160.6l0.7,0.4"/>
<path id="path31107" class="st0" d="M244.6,169.1l-6.7,10.8"/>
<path id="path31109" class="st0" d="M229.6,193.2l-6.7,10.8"/>
<path id="path31111" class="st0" d="M157.7,208.2l-0.7-0.5"/>
<path id="path31113" class="st0" d="M176.2,178.2l-0.7-0.5"/>
<path id="path31115" class="st0" d="M216.8,148l-0.7-0.4"/>
<path id="path31117" class="st0" d="M258.6,169.6l-0.2,0.4"/>
<path id="path31119" class="st0" d="M139,272.9c-0.2-0.1-0.5,0-0.6,0.2l-0.7,1.2"/>
<path id="path31121" class="st0" d="M139,273.6l-0.7,1.2l-1.7,2.8l-0.7,1.2"/>
<path id="path31123" class="st0" d="M108.1,262.7l0.7-1.2"/>
<path id="path31125" class="st0" d="M107.7,256.4l0.7,0.5"/>
<path id="path31127" class="st0" d="M107.7,256.4l1.6-2.6"/>
<path id="path31129" class="st0" d="M110.8,253.6l2.1-3.4"/>
<path id="path31131" class="st0" d="M112.4,248.8l1.6-2.6"/>
<path id="path31133" class="st0" d="M116.7,248.8l0.7-1.2"/>
<path id="path31135" class="st0" d="M116.4,242.5l0.7,0.5"/>
<path id="path31137" class="st0" d="M147,259.2l-0.7,1.2"/>
<path id="path31139" class="st0" d="M147.7,259.7l-0.7,1.2l-1.7,2.8l-0.7,1.2"/>
<path id="path31141" class="st0" d="M143.8,264.4c-0.1,0.2-0.1,0.5,0.1,0.6"/>
<path id="path31143" class="st0" d="M144.4,267.3l-0.5,0.8"/>
<path id="path31145" class="st0" d="M141.8,271.5l-0.5,0.8"/>
<path id="path31147" class="st0" d="M119.2,244.8l0.7-1.2"/>
<path id="path31149" class="st0" d="M110.6,258.7l0.7-1.2"/>
<path id="path31151" class="st0" d="M144.8,263.4l1.7-2.8l-0.3-0.2"/>
<path id="path31153" class="st0" d="M146.6,260.6c-0.5-0.4-1.6,0-2,0.7c-0.5,0.6-0.4,1.6,0.1,2"/>
<path id="path31155" class="st0" d="M146.2,260.4l-1.1-0.1l-1,0.8l-0.3,1.2l0.5,0.8"/>
<path id="path31157" class="st0" d="M136.2,277.4l1.7-2.8l-0.3-0.2"/>
<path id="path31159" class="st0" d="M138,274.6c-0.5-0.4-1.6,0-2,0.7c-0.5,0.6-0.4,1.6,0.1,2"/>
<path id="path31161" class="st0" d="M137.6,274.3l-1.1-0.1l-1,0.8l-0.3,1.2l0.5,0.8"/>
<path id="path31163" class="st0" d="M135.4,213.9l-0.3,0.5l-1-0.6"/>
<path id="path31165" class="st0" d="M155.8,227.8l-0.7-0.4"/>
<path id="path31167" class="st0" d="M155.4,227.1l0.6,0.4"/>
<path id="path31169" class="st0" d="M127.9,226l-2.1,3.4"/>
<path id="path31171" class="st0" d="M122.7,234.4l-2.1,3.4"/>
<path id="path31173" class="st0" d="M151.1,256.4l0.5-0.8"/>
<path id="path31175" class="st0" d="M153.7,252.2l0.5-0.8"/>
<path id="path31177" class="st0" d="M156.2,248.1l0.5-0.8"/>
<path id="path31179" class="st0" d="M158.8,243.9l0.5-0.8"/>
<path id="path31181" class="st0" d="M98.4,273.7l2.8-4.6"/>
<path id="path31183" class="st0" d="M110.1,278.4l-0.7-0.4"/>
<path id="path31185" class="st0" d="M119.9,284l-0.2,0.4"/>
<path id="path31187" class="st0" d="M120.6,284.4l-0.7-0.4"/>
<path id="path31189" class="st0" d="M132.7,286.2l-0.5,0.8"/>
<path id="path31191" class="st0" d="M98.4,273.7l0.7,0.5"/>
<path id="path31193" class="st0" d="M109.5,278l0.6,0.4"/>
<path id="path31195" class="st0" d="M119.7,284.4l0.6,0.4"/>
<path id="path31197" class="st0" d="M119.9,284l0.6,0.4"/>
<path id="path31199" class="st0" d="M119.6,286l0.7,0.5"/>
<path id="path31201" class="st0" d="M100.7,267.8l4-6.4l0.7-1.2"/>
<path id="path31203" class="st0" d="M134.1,213.8l-4.6,7.5l-2.1,3.3"/>
<path id="path31205" class="st0" d="M116.4,242.5l0.7-1.2l2.1-3.3"/>
<path id="path31207" class="st0" d="M119.3,244.8l0.3,0.2"/>
<path id="path31209" class="st0" d="M110.7,258.7l0.3,0.2l-1.8,2.6"/>
<path id="path31211" class="st0" d="M292.3,111.3v3.2"/>
<path id="path31213" class="st0" d="M292.3,111.3l-0.5,0.3"/>
<path id="path31215" class="st0" d="M292.3,114.5l-0.5,0.3"/>
<path id="path31217" class="st0" d="M243.1,162.3l-0.7-0.4"/>
<path id="path31219" class="st0" d="M231.4,155.5l-0.7-0.4"/>
<path id="path31221" class="st0" d="M209.6,143l0.7,0.4"/>
<path id="path31223" class="st0" d="M220.8,149.6l0.4,0.3"/>
<path id="path31225" class="st0" d="M224,151.9l0.4,0.3"/>
<path id="path31227" class="st0" d="M239.2,161.1l-10.9-6.3l-10.9-6.3"/>
<path id="path31229" class="st0" d="M168.7,233.1l-1-0.6"/>
<path id="path31231" class="st0" d="M165.8,237.8l-1-0.6"/>
<path id="path31233" class="st0" d="M131.7,293l-1-0.6"/>
<path id="path31235" class="st0" d="M131.7,312.2l-1-0.6"/>
<path id="path31237" class="st0" d="M131.7,293v1.2"/>
<path id="path31239" class="st0" d="M291.3,125.8l-0.5,0.3"/>
<path id="path31241" class="st0" d="M133.8,303v1.2"/>
<path id="path31243" class="st0" d="M131.7,311.7v0.4l0.7,0.4l0.3,0.4l0.6,0.9l0.5,0"/>
<path id="path31245" class="st0" d="M134.3,313.7l0.7,0.4l1-0.6"/>
<path id="path31247" class="st0" d="M138.7,312.6l0.3,0.6l-0.9,2.6l7.7,4.6l1-0.6l-0.7-2.8"/>
<path id="path31249" class="st0" d="M149.8,319.4l-0.9,2.6l7.7,4.6l1-0.6l-0.7-2.8"/>
<path id="path31251" class="st0" d="M160.6,325.7l-0.9,2.6l0.7,0.5l0.3,0.4l0.6,0.9l0.5,0"/>
<path id="path31253" class="st0" d="M162.6,327.5v-0.8"/>
<path id="path31255" class="st0" d="M162.6,326.3v-0.8"/>
<path id="path31257" class="st0" d="M164,326.3l1-0.6"/>
<path id="path31259" class="st0" d="M163.9,324.6l-2.7-0.5l1-0.6"/>
<path id="path31261" class="st0" d="M161.2,324.2l-0.3-0.6"/>
<path id="path31263" class="st0" d="M162.2,323.6l-0.3-0.6"/>
<path id="path31265" class="st0" d="M160.8,323.6v-1.2"/>
<path id="path31267" class="st0" d="M161.8,323v-4"/>
<path id="path31269" class="st0" d="M164,321.1l1-0.6"/>
<path id="path31271" class="st0" d="M162.6,317.5v-0.8"/>
<path id="path31273" class="st0" d="M153.5,307.1l-0.7-0.4l1-0.6"/>
<path id="path31275" class="st0" d="M152.9,306.7v-1.5"/>
<path id="path31277" class="st0" d="M141.8,300.3l-0.7-0.4l0.7-0.4"/>
<path id="path31279" class="st0" d="M141.1,299.6l0.7-0.4"/>
<path id="path31281" class="st0" d="M133.8,306.8l0.8,0.1"/>
<path id="path31283" class="st0" d="M133.8,306.8l0.5-0.3"/>
<path id="path31285" class="st0" d="M164.5,315.9l0.5-0.3"/>
<path id="path31287" class="st0" d="M164.5,328l0.5-0.3"/>
<path id="path31289" class="st0" d="M160.8,319.8l0.5-0.3"/>
<path id="path31291" class="st0" d="M161.3,322.2v-2.7"/>
<path id="path31293" class="st0" d="M160.8,322.4l0.5-0.3"/>
<path id="path31295" class="st0" d="M157.5,322.9l1.7,1"/>
<path id="path31297" class="st0" d="M157,323.2l0.5-0.3"/>
<path id="path31299" class="st0" d="M159.3,324.5l1,0.6"/>
<path id="path31301" class="st0" d="M146.6,316.7l1.7,1"/>
<path id="path31303" class="st0" d="M146.1,316.9l0.5-0.3"/>
<path id="path31305" class="st0" d="M148.5,318.3l1,0.6"/>
<path id="path31307" class="st0" d="M135.3,310.7l0.5-0.3"/>
<path id="path31309" class="st0" d="M137.7,312.1l1,0.6"/>
<path id="path31311" class="st0" d="M160,319.7l-0.3,0.8c-0.1,0.6,0.6,1.8,1.2,2"/>
<path id="path31313" class="st0" d="M157.3,322.4l-0.3,0.8"/>
<path id="path31315" class="st0" d="M146.5,316.2l-0.3,0.8"/>
<path id="path31317" class="st0" d="M135.7,310l-0.3,0.8"/>
<path id="path31319" class="st0" d="M134.3,304.5v2"/>
<path id="path31321" class="st0" d="M134.3,313.7l-0.5,0.3"/>
<path id="path31323" class="st0" d="M169.7,319l-0.4,0.3"/>
<path id="path31325" class="st0" d="M160.3,319.6l-0.1,0.5c-0.1,0.6,0.6,1.8,1.2,2"/>
<path id="path31327" class="st0" d="M162.3,329.8l0.7,0.4"/>
<path id="path31329" class="st0" d="M162.3,329.8l-0.5,0.3"/>
<path id="path31331" class="st0" d="M135.4,311.2l0.9-0.5"/>
<path id="path31333" class="st0" d="M131.7,302.1v2.8"/>
<path id="path31335" class="st0" d="M132.7,302.3v3.6"/>
<path id="path31337" class="st0" d="M224.8,152.4l1,0.6"/>
<path id="path31339" class="st0" d="M186.3,129.4l-2.8,4.5"/>
<path id="path31341" class="st0" d="M208.3,93.9l3.1-5"/>
<path id="path31343" class="st0" d="M218.1,78l8.2-13.2l1,0.6"/>
<path id="path31345" class="st0" d="M193.3,118l8.2-13.3"/>
<path id="path31347" class="st0" d="M227.2,65.4v0.7"/>
<path id="path31349" class="st0" d="M243.5,116.7l-0.7,1.2"/>
<path id="path31351" class="st0" d="M270.9,138.6l0.7,0.5"/>
<path id="path31353" class="st0" d="M268,138l0.7-1.2l1.7-2.8l0.7-1.2"/>
<path id="path31355" class="st0" d="M270.6,132.4c0.1-0.2,0.4-0.3,0.6-0.2"/>
<path id="path31357" class="st0" d="M274.8,132.3l0.7,0.5"/>
<path id="path31359" class="st0" d="M273.5,131.5l0.5-0.8"/>
<path id="path31361" class="st0" d="M276.1,127.3l0.5-0.8"/>
<path id="path31363" class="st0" d="M245.2,109.5l-2.1,3.4"/>
<path id="path31365" class="st0" d="M270.2,133.8l-0.3-0.2"/>
<path id="path31367" class="st0" d="M270.2,133.8l-1.7,2.8"/>
<path id="path31369" class="st0" d="M269.8,133.6l0.7-1.2"/>
<path id="path31371" class="st0" d="M249.6,106.8l-0.7,1.2"/>
<path id="path31373" class="st0" d="M241,120.7l-0.7,1.2"/>
<path id="path31375" class="st0" d="M284.6,116.5l0.7,0.5"/>
<path id="path31377" class="st0" d="M285.9,111.5l0.5-0.8"/>
<path id="path31379" class="st0" d="M288.4,111.9l2.1-3.3"/>
<path id="path31381" class="st0" d="M288.4,107.4l0.5-0.8"/>
<path id="path31383" class="st0" d="M291,103.2l0.5-0.8l0.7,0.5"/>
<path id="path31385" class="st0" d="M291.5,102.4l1.3,0.8l0.7,0.5"/>
<path id="path31387" class="st0" d="M292.2,102.8l1.3,0.8"/>
<path id="path31389" class="st0" d="M294.6,100.3l0.7,0.5"/>
<path id="path31391" class="st0" d="M293.5,103.6l1.8-2.8"/>
<path id="path31393" class="st0" d="M294.6,100.3l-33.3-19.2"/>
<path id="path31395" class="st0" d="M259.6,83.9l0.7,0.5"/>
<path id="path31397" class="st0" d="M288,111.7l0.3,0.2"/>
<path id="path31399" class="st0" d="M290.1,108.4l0.3,0.2"/>
<path id="path31401" class="st0" d="M235.4,125.3l-2.1,3.4"/>
<path id="path31403" class="st0" d="M230.2,133.6l-2.1,3.4"/>
<path id="path31405" class="st0" d="M258.6,155.7l0.5-0.8"/>
<path id="path31407" class="st0" d="M261.2,151.5l0.5-0.8"/>
<path id="path31409" class="st0" d="M263.7,151.9l2.1-3.3"/>
<path id="path31411" class="st0" d="M263.7,147.4l0.5-0.8"/>
<path id="path31413" class="st0" d="M266.3,143.2l0.5-0.8"/>
<path id="path31415" class="st0" d="M263.3,151.7l0.3,0.2"/>
<path id="path31417" class="st0" d="M265.4,148.4l0.3,0.2"/>
<path id="path31419" class="st0" d="M241.6,159.7l0.2-0.4l0.6,0.4"/>
<path id="path31421" class="st0" d="M241.9,159.3l0.7,0.4"/>
<path id="path31423" class="st0" d="M241.6,161.3l0.7,0.5"/>
<path id="path31425" class="st0" d="M254.8,164.7l0.7,0.5"/>
<path id="path31427" class="st0" d="M251.9,164.1l0.7-1.2l1.7-2.8l0.7-1.2"/>
<path id="path31429" class="st0" d="M254.5,158.4c0.1-0.2,0.4-0.3,0.6-0.2"/>
<path id="path31431" class="st0" d="M227.4,142.8l-0.7,1.2"/>
<path id="path31433" class="st0" d="M254,159.9l-0.3-0.2"/>
<path id="path31435" class="st0" d="M254,159.9l-1.7,2.8"/>
<path id="path31437" class="st0" d="M253.7,159.6l0.7-1.2"/>
<path id="path31439" class="st0" d="M224.9,146.8l-0.7,1.2"/>
<path id="path31441" class="st0" d="M276,124.2c-0.2-0.1-0.2-0.4-0.1-0.6"/>
<path id="path31443" class="st0" d="M268,136.3l-0.5-0.8l0.3-1.2l1-0.8l1.1,0.1"/>
<path id="path31445" class="st0" d="M251.9,162.4c-0.6-0.3-0.7-1.4-0.2-2.1c0.4-0.7,1.5-1.1,2-0.7"/>
<path id="path31447" class="st0" d="M226.7,144.1l0.3,0.2"/>
<path id="path31449" class="st0" d="M241.4,120.9l1.6-2.7"/>
<path id="path31451" class="st0" d="M225.3,146.9l1.6-2.7"/>
<path id="path31453" class="st0" d="M268.3,136.5c-0.5-0.4-0.6-1.4-0.1-2c0.4-0.7,1.5-1.1,2-0.7"/>
<path id="path31455" class="st0" d="M252.2,162.6c-0.5-0.4-0.6-1.4-0.1-2c0.4-0.7,1.5-1.1,2-0.7"/>
<path id="path31457" class="st0" d="M100.5,283.8v1.2"/>
<path id="path31459" class="st0" d="M97.4,286.3l1-0.6"/>
<path id="path31461" class="st0" d="M97.4,286.3v1.7"/>
<path id="path31463" class="st0" d="M98.4,292.5v0.4l0.7,0.4l0.3,0.4l0.6,0.9l0.5,0"/>
<path id="path31465" class="st0" d="M101,294.5l0.7,0.4l1-0.6"/>
<path id="path31467" class="st0" d="M105.4,293.4l0.3,0.6l-0.9,2.6l7.7,4.6l1-0.6l-0.7-2.8"/>
<path id="path31469" class="st0" d="M116.5,300.2l-0.9,2.6l7.7,4.6l1-0.6l-0.7-2.8"/>
<path id="path31471" class="st0" d="M127.3,306.5l-0.9,2.6l0.7,0.5l0.3,0.4l0.6,0.9l0.5,0"/>
<path id="path31473" class="st0" d="M129.3,308.3v-0.8"/>
<path id="path31475" class="st0" d="M129.3,307.1v-0.8"/>
<path id="path31477" class="st0" d="M130.6,305.4l-2.7-0.5l1-0.6"/>
<path id="path31479" class="st0" d="M127.9,305l-0.3-0.6"/>
<path id="path31481" class="st0" d="M128.9,304.4l-0.3-0.6"/>
<path id="path31483" class="st0" d="M127.6,304.4v-1.2"/>
<path id="path31485" class="st0" d="M128.6,303.8v-4"/>
<path id="path31487" class="st0" d="M129.3,298.3v-0.8"/>
<path id="path31489" class="st0" d="M120.2,287.9l-0.7-0.4l1-0.6"/>
<path id="path31491" class="st0" d="M119.6,287.5V286"/>
<path id="path31493" class="st0" d="M108.5,281.1l-0.7-0.4l0.7-0.4"/>
<path id="path31495" class="st0" d="M107.8,280.3l0.7-0.4"/>
<path id="path31497" class="st0" d="M98.4,274.9l0.9-0.5"/>
<path id="path31499" class="st0" d="M97.4,281v1.7"/>
<path id="path31501" class="st0" d="M100.5,287.6l0.8,0.1"/>
<path id="path31503" class="st0" d="M100.5,287.6l0.5-0.3"/>
<path id="path31505" class="st0" d="M127.6,300.5l0.5-0.3"/>
<path id="path31507" class="st0" d="M128.1,302.9v-2.7"/>
<path id="path31509" class="st0" d="M127.6,303.2l0.5-0.3"/>
<path id="path31511" class="st0" d="M124.2,303.7l1.7,1"/>
<path id="path31513" class="st0" d="M123.7,304l0.5-0.3"/>
<path id="path31515" class="st0" d="M126,305.3l1,0.6"/>
<path id="path31517" class="st0" d="M113.4,297.4l1.7,1"/>
<path id="path31519" class="st0" d="M112.9,297.7l0.5-0.3"/>
<path id="path31521" class="st0" d="M115.2,299.1l1,0.6"/>
<path id="path31523" class="st0" d="M102.1,291.5l0.5-0.3"/>
<path id="path31525" class="st0" d="M104.4,292.8l1,0.6"/>
<path id="path31527" class="st0" d="M126.7,300.5l-0.3,0.8c-0.1,0.6,0.6,1.8,1.2,2"/>
<path id="path31529" class="st0" d="M124,303.2l-0.3,0.8"/>
<path id="path31531" class="st0" d="M113.2,297l-0.3,0.8"/>
<path id="path31533" class="st0" d="M102.4,290.7l-0.3,0.8"/>
<path id="path31535" class="st0" d="M101,285.3v2"/>
<path id="path31537" class="st0" d="M101,294.5l-0.5,0.3"/>
<path id="path31539" class="st0" d="M127,300.4l-0.1,0.5c-0.1,0.6,0.6,1.8,1.2,2"/>
<path id="path31541" class="st0" d="M231.2,153.7l0.2-0.4"/>
<path id="path31543" class="st0" d="M257.6,171.2l-0.4-0.3"/>
<path id="path31545" class="st0" d="M206.4,142.1l-5.8-3.3"/>
<path id="path31547" class="st0" d="M177,320.6l-1,0.6"/>
<path id="path31549" class="st0" d="M176,317.3v0.8"/>
<path id="path31551" class="st0" d="M219.1,78.6l0.5-0.8"/>
<path id="path31553" class="st0" d="M194.3,118.6l0.5-0.8"/>
<path id="path31555" class="st0" d="M102.1,292l0.9-0.5"/>
<path id="path31557" class="st0" d="M98.4,282.9v2.8"/>
<path id="path31559" class="st0" d="M149.4,261.5l-2.4,3.9"/>
<path id="path31561" class="st0" d="M130.7,301.9v2.8"/>
<path id="path31563" class="st0" d="M164,321.1v2.8"/>
<path id="path31565" class="st0" d="M161.9,168.9l6.7-10.8"/>
<path id="path31567" class="st0" d="M270.6,138.5l2.4-3.9"/>
<path id="path31569" class="st0" d="M223.6,151.3l-0.4-0.3"/>
<path id="path31571" class="st0" d="M260.1,85.3l0.4-0.7"/>
<path id="path31573" class="st0" d="M239.1,120.8l2.8-4.5"/>
<path id="path31575" class="st0" d="M223,146.9l2.8-4.5"/>
<path id="path31577" class="st0" d="M98.4,279.6v0.8"/>
<path id="path31579" class="st0" d="M99.4,283.1v3.6"/>
<path id="path31581" class="st0" d="M106.9,261.6l2.8-4.5"/>
<path id="path31583" class="st0" d="M115.5,247.7l2.8-4.5"/>
<path id="path31585" class="st0" d="M140.8,275.4l-2.4,3.9"/>
<path id="path31587" class="st0" d="M206.4,142l-0.7-0.4"/>
<path id="path31589" class="st0" d="M271.6,139.1l2.3-3.7"/>
<path id="path31591" class="st0" d="M257.8,161.4l-2.3,3.7"/>
<path id="path31593" class="st0" d="M256.9,160.7l-2.4,3.9"/>
<path id="path31595" class="st0" d="M237.3,119.3l2.4-3.9"/>
<path id="path31597" class="st0" d="M221.2,145.4l2.4-3.9"/>
<path id="path31599" class="st0" d="M173.8,149.7l3.1-5"/>
<path id="path31601" class="st0" d="M288,111.7l0.4,0.2"/>
<path id="path31603" class="st0" d="M263.3,151.7l0.4,0.2"/>
<path id="path31605" class="st0" d="M257.1,170.9l0.5,0.3"/>
<path id="path31607" class="st0" d="M255.8,169.9l-0.4-0.3"/>
<path id="path31609" class="st0" d="M153.9,257l-0.5,0.8"/>
<path id="path31611" class="st0" d="M159.1,248.7l-0.5,0.8"/>
<path id="path31613" class="st0" d="M151.5,262.4l-2.8,4.5"/>
<path id="path31615" class="st0" d="M144.1,272.8l-0.5,0.8"/>
<path id="path31617" class="st0" d="M142.9,276.3l-2.8,4.5"/>
<path id="path31619" class="st0" d="M185,133.6l-0.5,0.8"/>
<path id="path31621" class="st0" d="M214.4,87.7l2.8-4.5"/>
<path id="path31623" class="st0" d="M226.8,66.1l0.4-0.7"/>
<path id="path31625" class="st0" d="M205.8,101.6l2.8-4.5"/>
<path id="path31627" class="st0" d="M192.5,123.2l-2.8,4.5"/>
<path id="path31629" class="st0" d="M145.4,197.8l2.1-3.4"/>
<path id="path31631" class="st0" d="M223.4,205.5l-2.1,3.4"/>
<path id="path31633" class="st0" d="M208.5,229.6l-2.1,3.4"/>
<path id="path31635" class="st0" d="M259.9,156.5l0.7,0.5"/>
<path id="path31637" class="st0" d="M219.6,148.6l0.7,0.5"/>
<path id="path31639" class="st0" d="M166.7,231.9l1,0.6"/>
<path id="path31641" class="st0" d="M223.4,205.5l0.5-0.8l-1-0.6"/>
<path id="path31643" class="st0" d="M233.2,189.6l3-4.9"/>
<path id="path31645" class="st0" d="M238.4,181.3l0.5-0.8l-1-0.6"/>
<path id="path31647" class="st0" d="M229.6,193.2l8.2-13.3"/>
<path id="path31649" class="st0" d="M244.6,169.1l2.8-4.5"/>
<path id="path31651" class="st0" d="M208.5,229.6l3-4.9"/>
<path id="path31653" class="st0" d="M213.6,221.3l0.5-0.8l-1-0.6"/>
<path id="path31655" class="st0" d="M204.9,233.2l8.2-13.3"/>
<path id="path31657" class="st0" d="M226.6,137.2l8.2-13.3l1,0.6"/>
<path id="path31659" class="st0" d="M230.2,133.6l0.5-0.8"/>
<path id="path31661" class="st0" d="M232.8,129.5l0.5-0.8"/>
<path id="path31663" class="st0" d="M235.4,125.3l0.5-0.8"/>
<path id="path31665" class="st0" d="M225.8,153l-3.7-2.6"/>
<path id="path31667" class="st0" d="M245.2,109.5l0.5-0.8l-1-0.6"/>
<path id="path31669" class="st0" d="M241.6,113.1l3.1-5"/>
<path id="path31671" class="st0" d="M247.7,106.9l2.8-4.5"/>
<path id="path31673" class="st0" d="M246.9,106l2.3-3.7"/>
<path id="path31675" class="st0" d="M252.3,97.8l0.5-0.8"/>
<path id="path31677" class="st0" d="M254.9,93.6l0.5-0.8"/>
<path id="path31679" class="st0" d="M257.5,89.5l0.5-0.8"/>
<path id="path31681" class="st0" d="M222.2,145.9l2.3-3.7"/>
<path id="path31683" class="st0" d="M258.9,178.5l2.8-4.5"/>
<path id="path31685" class="st0" d="M258.2,178l0.5-0.8"/>
<path id="path31687" class="st0" d="M260.5,174.3l0.5-0.8"/>
<path id="path31689" class="st0" d="M221.8,238.4l3.1-5"/>
<path id="path31691" class="st0" d="M221.1,238l0.5-0.8"/>
<path id="path31693" class="st0" d="M223.7,233.8l0.5-0.8"/>
<path id="path31695" class="st0" d="M209.7,257.9l2.8-4.5"/>
<path id="path31697" class="st0" d="M209.1,257.4l0.5-0.8"/>
<path id="path31699" class="st0" d="M211.3,253.8l0.5-0.8"/>
<path id="path31701" class="st0" d="M234.1,218.5l3.1-5"/>
<path id="path31703" class="st0" d="M233.5,218l0.5-0.8"/>
<path id="path31705" class="st0" d="M236.1,213.8l0.5-0.8"/>
<path id="path31707" class="st0" d="M252.7,188.5l1.5-2.5l1.5-2.5"/>
<path id="path31709" class="st0" d="M252,188l0.5-0.8"/>
<path id="path31711" class="st0" d="M254.6,183.8l0.5-0.8"/>
<path id="path31713" class="st0" d="M227.9,228.5l3.1-5"/>
<path id="path31715" class="st0" d="M227.3,228l0.5-0.8"/>
<path id="path31717" class="st0" d="M229.9,223.8l0.5-0.8"/>
<path id="path31719" class="st0" d="M215.6,248.4l1.5-2.5l1.5-2.5"/>
<path id="path31721" class="st0" d="M214.9,248l0.5-0.8"/>
<path id="path31723" class="st0" d="M217.5,243.8l0.5-0.8"/>
<path id="path31725" class="st0" d="M240.3,208.5l3.1-5"/>
<path id="path31727" class="st0" d="M239.6,208l0.5-0.8"/>
<path id="path31729" class="st0" d="M242.2,203.8l0.5-0.8"/>
<path id="path31731" class="st0" d="M184.7,298.4l3.1-5"/>
<path id="path31733" class="st0" d="M184,298l0.5-0.8"/>
<path id="path31735" class="st0" d="M186.6,293.8l0.5-0.8"/>
<path id="path31737" class="st0" d="M197,278.4l3.1-5"/>
<path id="path31739" class="st0" d="M196.4,278l0.5-0.8"/>
<path id="path31741" class="st0" d="M199,273.8l0.5-0.8"/>
<path id="path31743" class="st0" d="M178.5,308.4l3.1-5"/>
<path id="path31745" class="st0" d="M177.8,308l0.5-0.8"/>
<path id="path31747" class="st0" d="M180.4,303.8l0.5-0.8"/>
<path id="path31749" class="st0" d="M206.3,263.4l-1.5,2.5l-1.5,2.5"/>
<path id="path31751" class="st0" d="M205.6,263l-0.5,0.8"/>
<path id="path31753" class="st0" d="M203,267.2l-0.5,0.8"/>
<path id="path31755" class="st0" d="M190.9,288.4l3.1-5"/>
<path id="path31757" class="st0" d="M190.2,288l0.5-0.8"/>
<path id="path31759" class="st0" d="M192.8,283.8l0.5-0.8"/>
<path id="path31761" class="st0" d="M137.2,208.8l1,0.6l-0.5,0.8"/>
<path id="path31763" class="st0" d="M112.4,248.8l1,0.6"/>
<path id="path31765" class="st0" d="M113,250.2l0.5-0.8"/>
<path id="path31767" class="st0" d="M100.7,267.8l1,0.6l-0.5,0.8"/>
<path id="path31769" class="st0" d="M97.4,281l1,0.6"/>
<path id="path31771" class="st0" d="M98.4,277.6v0.8"/>
<path id="path31773" class="st0" d="M98.4,280.8v0.8"/>
<path id="path31775" class="st0" d="M98.4,288.5v0.8"/>
<path id="path31777" class="st0" d="M98.4,289.7v0.8"/>
<path id="path31779" class="st0" d="M98.4,291.7v0.8"/>
<path id="path31781" class="st0" d="M110.4,279.5l0.3-0.2"/>
<path id="path31783" class="st0" d="M127.4,224.7l1,0.6"/>
<path id="path31785" class="st0" d="M122.7,234.4l0.5-0.8"/>
<path id="path31787" class="st0" d="M125.3,230.2l0.5-0.8"/>
<path id="path31789" class="st0" d="M127.9,226l0.5-0.8"/>
<path id="path31791" class="st0" d="M158.8,173.9l3.1-5l1,0.6"/>
<path id="path31793" class="st0" d="M162.4,170.2l0.5-0.8"/>
<path id="path31795" class="st0" d="M172.7,151.4l1,0.6"/>
<path id="path31797" class="st0" d="M168.6,158l4.1-6.7"/>
<path id="path31799" class="st0" d="M172.2,154.4l0.5-0.8"/>
<path id="path31801" class="st0" d="M143.9,198l8.2-13.3l1,0.6"/>
<path id="path31803" class="st0" d="M147.5,194.4l3.1-4.9"/>
<path id="path31805" class="st0" d="M152.6,186.1l0.5-0.8"/>
<path id="path31807" class="st0" d="M106.1,260.6l2.3-3.7"/>
<path id="path31809" class="st0" d="M114.7,246.7l2.3-3.7"/>
<path id="path31811" class="st0" d="M166.7,231.9l-2.9,4.7l1,0.6"/>
<path id="path31813" class="st0" d="M159.7,243.3l1,0.6"/>
<path id="path31815" class="st0" d="M159.7,243.3l-3.1,5"/>
<path id="path31817" class="st0" d="M154.5,251.6l-3.1,5"/>
<path id="path31819" class="st0" d="M144.7,267.5l1,0.6"/>
<path id="path31821" class="st0" d="M144.7,267.5l-3.1,5"/>
<path id="path31823" class="st0" d="M133,286.4l1,0.6"/>
<path id="path31825" class="st0" d="M133,286.4l-3.3,5.4l1,0.6"/>
<path id="path31827" class="st0" d="M129.7,291.8v7.9l1,0.6"/>
<path id="path31829" class="st0" d="M129.7,306.5v4.5"/>
<path id="path31831" class="st0" d="M145.7,219.8L145,221"/>
<path id="path31833" class="st0" d="M145.6,221.5L145,221"/>
<path id="path31835" class="st0" d="M145.7,219.8l5.5,3.2l5.5,3.2l-0.7,1.2"/>
<path id="path31837" class="st0" d="M145,221l0.7,0.4"/>
<path id="path31839" class="st0" d="M155.4,227.1l0.7,0.4"/>
<path id="path31841" class="st0" d="M205.7,255.1l-0.7,1.2"/>
<path id="path31843" class="st0" d="M205.7,255.1l-2.2-1.6l-0.7,1.2"/>
<path id="path31845" class="st0" d="M205,256.3l-2.2-1.6"/>
<path id="path31847" class="st0" d="M178.6,238.8l-0.7,1.2"/>
<path id="path31849" class="st0" d="M188.9,246.4l-0.7-0.4"/>
<path id="path31851" class="st0" d="M178.5,240.4l-0.7-0.4L178.5,240.4"/>
<path id="path31853" class="st0" d="M204.9,263.6l0.5-0.8"/>
<path id="path31855" class="st0" d="M215.6,248.4l-0.4-0.3l-0.4-0.3l0.5-0.8"/>
<path id="path31857" class="st0" d="M204.6,247.9l-0.9-0.6l-1-0.6"/>
<path id="path31859" class="st0" d="M203.7,247.3l-3.1,5"/>
<path id="path31861" class="st0" d="M202.7,246.7l-3.1,5"/>
<path id="path31863" class="st0" d="M201.5,252.9l-0.5,0.8"/>
<path id="path31865" class="st0" d="M208.8,257.3l0.5-0.8l2-2.7l0.3-1"/>
<path id="path31867" class="st0" d="M210,258.1l-1.1-0.8"/>
<path id="path31869" class="st0" d="M204.3,256.4l0.2-0.4"/>
<path id="path31871" class="st0" d="M204.7,256.7l-0.4-0.3"/>
<path id="path31873" class="st0" d="M205.5,254.4l0.4,0.3"/>
<path id="path31875" class="st0" d="M205.3,254.8l0.2-0.4"/>
<path id="path31877" class="st0" d="M203.2,255l-0.2,0.4"/>
<path id="path31879" class="st0" d="M175.9,292.3l3.1-5l-1-0.6"/>
<path id="path31881" class="st0" d="M174.9,291.7l3.1-5"/>
<path id="path31883" class="st0" d="M179,287.3l0.9,0.6"/>
<path id="path31885" class="st0" d="M190.5,287l-0.5,0.8l0.4,0.3l0.4,0.3"/>
<path id="path31887" class="st0" d="M180.7,302.8l-0.5,0.8"/>
<path id="path31889" class="st0" d="M183.8,297.8l1.1,0.8"/>
<path id="path31891" class="st0" d="M186.9,292.8l-0.5,0.8l-1.9,3.6l-0.7,0.6"/>
<path id="path31893" class="st0" d="M171.5,318.3v7l-1-0.6"/>
<path id="path31895" class="st0" d="M171.9,325.1v2.3"/>
<path id="path31897" class="st0" d="M174.7,324.2l0.7-0.4"/>
<path id="path31899" class="st0" d="M178.5,308.4l-0.4-0.3l-0.4-0.3l0.5-0.8"/>
<path id="path31901" class="st0" d="M168.2,306.8l-0.9-0.6l-1-0.6"/>
<path id="path31903" class="st0" d="M167.3,306.2l-3.3,5.4l-1-0.6"/>
<path id="path31905" class="st0" d="M166.3,305.6L163,311"/>
<path id="path31907" class="st0" d="M164,311.6v7.9l-1-0.6"/>
<path id="path31909" class="st0" d="M163,311v7.9"/>
<path id="path31911" class="st0" d="M164,319.5l1.3-0.8"/>
<path id="path31913" class="st0" d="M165,320.5v4.5"/>
<path id="path31915" class="st0" d="M164,326.3v4.5l-1-0.6"/>
<path id="path31917" class="st0" d="M163,325.8v4.5"/>
<path id="path31919" class="st0" d="M164,330.8l1.7-1"/>
<path id="path31921" class="st0" d="M166.3,329.1v1.5"/>
<path id="path31923" class="st0" d="M169.2,319.6v-0.8l2.7-1.5v0.8"/>
<path id="path31925" class="st0" d="M175.7,321.3v-0.8"/>
<path id="path31927" class="st0" d="M176,320.4v-2.3"/>
<path id="path31929" class="st0" d="M175.7,318.3v-0.8l1.7-1"/>
<path id="path31931" class="st0" d="M164.5,328l0.2-0.4l0.2,1.4l-0.2,0.4L164.5,328z"/>
<path id="path31933" class="st0" d="M164.5,317.2v-1.3l0.2-0.4"/>
<path id="path31935" class="st0" d="M165,316.9l-0.2,0.4"/>
<path id="path31937" class="st0" d="M185.7,276.4l8.2-13.3l-1-0.6"/>
<path id="path31939" class="st0" d="M184.7,275.9l0.5-0.8"/>
<path id="path31941" class="st0" d="M187.3,271.7l5.6-9.1"/>
<path id="path31943" class="st0" d="M193.9,263.1l0.9,0.6"/>
<path id="path31945" class="st0" d="M202.8,267l-0.5,0.8l0.4,0.3l0.4,0.3"/>
<path id="path31947" class="st0" d="M193.1,282.8l-0.5,0.8"/>
<path id="path31949" class="st0" d="M189.1,271.7l0,0.4"/>
<path id="path31951" class="st0" d="M196.6,277l-0.5,0.8l0.4,0.3l0.4,0.3"/>
<path id="path31953" class="st0" d="M199.2,272.8l-0.5,0.8l-1.9,3.6"/>
<path id="path31955" class="st0" d="M225.4,212.3l3.1-5l-1-0.6"/>
<path id="path31957" class="st0" d="M224.4,211.7l3.1-5"/>
<path id="path31959" class="st0" d="M228.5,207.3l0.9,0.6"/>
<path id="path31961" class="st0" d="M239.9,207l-0.5,0.8l0.4,0.3l0.4,0.3"/>
<path id="path31963" class="st0" d="M230.1,222.8l-0.5,0.8"/>
<path id="path31965" class="st0" d="M233.2,217.8l1.1,0.8"/>
<path id="path31967" class="st0" d="M236.3,212.8l-0.5,0.8l-1.9,3.6l-0.7,0.6"/>
<path id="path31969" class="st0" d="M239.3,189.8l-1-0.6"/>
<path id="path31971" class="st0" d="M238.9,191.9l1-1.7"/>
<path id="path31973" class="st0" d="M243.7,192.9l2.4,1.7"/>
<path id="path31975" class="st0" d="M243.6,198.1l2.4,1.7"/>
<path id="path31977" class="st0" d="M248.1,196l1.6,1.1"/>
<path id="path31979" class="st0" d="M242.5,202.8l-0.5,0.8"/>
<path id="path31981" class="st0" d="M235.2,196.4l3.1-5"/>
<path id="path31983" class="st0" d="M234.2,195.9l3.1-5"/>
<path id="path31985" class="st0" d="M210.4,236.4l3.1-5"/>
<path id="path31987" class="st0" d="M215.6,228.1l3.1-5l-1-0.6"/>
<path id="path31989" class="st0" d="M209.4,235.9l8.2-13.3"/>
<path id="path31991" class="st0" d="M218.7,223.1l0.9,0.6"/>
<path id="path31993" class="st0" d="M227.6,227l-0.5,0.8l0.4,0.3l0.4,0.3"/>
<path id="path31995" class="st0" d="M217.8,242.8l-0.5,0.8"/>
<path id="path31997" class="st0" d="M221.4,237l-0.5,0.8l0.4,0.3l0.4,0.3"/>
<path id="path31999" class="st0" d="M224,232.8l-0.5,0.8l-1.9,3.6"/>
<path id="path32001" class="st0" d="M203,267.2l1.1-1.7l1.1-1.7"/>
<path id="path32003" class="st0" d="M180.4,303.8l-1.1,1.7l-1.1,1.7"/>
<path id="path32005" class="st0" d="M229.9,223.8l-1.1,1.7l-1.1,1.7"/>
<path id="path32007" class="st0" d="M242.2,203.8l-1.1,1.7l-1.1,1.7"/>
<path id="path32009" class="st0" d="M215.4,247.2l1.1-1.7l1.1-1.7"/>
<path id="path32011" class="st0" d="M205,256.3l-0.2,0.4"/>
<path id="path32013" class="st0" d="M206,254.7l-0.5-0.3"/>
<path id="path32015" class="st0" d="M202.5,255.1l1.2-2"/>
<path id="path32017" class="st0" d="M192.8,283.8l-1.1,1.7l-1.1,1.7"/>
<path id="path32019" class="st0" d="M239.9,115.6l-2-2.7"/>
<path id="path32021" class="st0" d="M234.2,118.9l3.4,0.4"/>
<path id="path32023" class="st0" d="M204.5,100.3l0.7,0.5"/>
<path id="path32025" class="st0" d="M204.5,100.3l2,2.7"/>
<path id="path32027" class="st0" d="M205.1,100.7l1.6,2.2"/>
<path id="path32029" class="st0" d="M210.2,97.5c0.1-0.2,0.1-0.5-0.1-0.6l-3.4-0.4l0.7,0.5"/>
<path id="path32031" class="st0" d="M210.3,97.3l-2.9-0.4"/>
<path id="path32033" class="st0" d="M208.3,93.9l1.3,0.8l0.5-0.8"/>
<path id="path32035" class="st0" d="M212.2,90.4l0.5-0.8"/>
<path id="path32037" class="st0" d="M213.1,86.3l0.7,0.5"/>
<path id="path32039" class="st0" d="M213.1,86.3l2,2.7"/>
<path id="path32041" class="st0" d="M213.7,86.8l1.6,2.2c-0.2,0.1,0.1,0,0.3-0.2"/>
<path id="path32043" class="st0" d="M218.8,83l-3.4-0.4l0.7,0.5"/>
<path id="path32045" class="st0" d="M218.9,83.4l-2.9-0.4"/>
<path id="path32047" class="st0" d="M248.5,101.7l-2-2.7"/>
<path id="path32049" class="st0" d="M245.9,99.2l-0.7,1.2"/>
<path id="path32051" class="st0" d="M246.6,99.7l-0.7,1.2l-1.7,2.8l-0.7,1.2"/>
<path id="path32053" class="st0" d="M242.8,105l3.4,0.4l-1.5,2.6"/>
<path id="path32055" class="st0" d="M240.2,112.3l1.3,0.8"/>
<path id="path32057" class="st0" d="M216.4,87.6l1.1,0.1l1-0.8l0.3-1.2l-0.5-0.8"/>
<path id="path32059" class="st0" d="M207.8,101.5l1.1,0.1l1-0.8l0.3-1.2l-0.5-0.8"/>
<path id="path32061" class="st0" d="M243.8,103.5l1.7-2.8l-0.3-0.2"/>
<path id="path32063" class="st0" d="M245.5,100.7c-0.5-0.4-1.6,0-2,0.7c-0.5,0.6-0.4,1.6,0.1,2"/>
<path id="path32065" class="st0" d="M245.2,100.4l-1.1-0.1l-1,0.8l-0.3,1.2l0.5,0.8l-0.7,1.3"/>
<path id="path32067" class="st0" d="M243.4,103.2l0.3,0.2"/>
<path id="path32069" class="st0" d="M234.8,117.2l-0.7,1.2"/>
<path id="path32071" class="st0" d="M234.8,117.2l0.3,0.2"/>
<path id="path32073" class="st0" d="M250.5,95.7l-0.5,0.8l1.3,0.8"/>
<path id="path32075" class="st0" d="M218.1,78l1.3,0.8l0.5-0.8"/>
<path id="path32077" class="st0" d="M222,74.6l0.5-0.8"/>
<path id="path32079" class="st0" d="M224.6,70.5l0.5-0.8"/>
<path id="path32081" class="st0" d="M224.7,69.5l2.1-3.4"/>
<path id="path32083" class="st0" d="M227.1,66.3l0.5-0.8l-1.3-0.8"/>
<path id="path32085" class="st0" d="M261.3,81.1l-1.8,2.8"/>
<path id="path32087" class="st0" d="M222.2,73.6l2.1-3.3"/>
<path id="path32089" class="st0" d="M225.3,136.5l1.3,0.8"/>
<path id="path32091" class="st0" d="M193.3,118l1.3,0.8l0.5-0.8"/>
<path id="path32093" class="st0" d="M197.3,114.6l0.5-0.8"/>
<path id="path32095" class="st0" d="M199.8,110.5l0.5-0.8"/>
<path id="path32097" class="st0" d="M202.4,106.3l0.5-0.8"/>
<path id="path32099" class="st0" d="M197.4,113.6l2.1-3.3"/>
<path id="path32101" class="st0" d="M218,145l3.4,0.4"/>
<path id="path32103" class="st0" d="M219.6,148.6l-10.9-6.3"/>
<path id="path32105" class="st0" d="M220.3,149.1l-10.9-6.3"/>
<path id="path32107" class="st0" d="M208.7,142.3l0.7-1.2l0.2-0.4"/>
<path id="path32109" class="st0" d="M199,135.1l0.2-0.4"/>
<path id="path32111" class="st0" d="M197.6,135.9l-5.8-3.3"/>
<path id="path32113" class="st0" d="M198.3,136.4l-5.8-3.3"/>
<path id="path32115" class="st0" d="M186.3,129.4l1.9-3.1l0.8,0.5"/>
<path id="path32117" class="st0" d="M188.3,126.3l2,2.7"/>
<path id="path32119" class="st0" d="M189,126.8l1.6,2.2"/>
<path id="path32121" class="st0" d="M194.1,123.6c0.1-0.2,0.1-0.5-0.1-0.6l-3.4-0.4l0.7,0.5"/>
<path id="path32123" class="st0" d="M194.2,123.4l-2.9-0.4"/>
<path id="path32125" class="st0" d="M223.7,141.7l-2-2.7"/>
<path id="path32127" class="st0" d="M193.7,125l-0.3-0.2"/>
<path id="path32129" class="st0" d="M191.6,127.6c0.5,0.4,1.6,0,2-0.7c0.5-0.6,0.4-1.8-0.2-2.1"/>
<path id="path32131" class="st0" d="M218.7,143.2l0.3,0.2"/>
<path id="path32133" class="st0" d="M218.7,143.2l-0.7,1.2"/>
<path id="path32135" class="st0" d="M204.4,100.2l0.7,0.5"/>
<path id="path32137" class="st0" d="M213,86.3l0.7,0.5"/>
<path id="path32139" class="st0" d="M243.7,103.4l-0.3-0.2"/>
<path id="path32141" class="st0" d="M235.1,117.3l-0.3-0.2"/>
<path id="path32143" class="st0" d="M188.3,126.3l0.7,0.5"/>
<path id="path32145" class="st0" d="M219,143.4l-0.3-0.2"/>
<path id="path32147" class="st0" d="M267.5,163l0.7,0.5"/>
<path id="path32149" class="st0" d="M270.6,158l0.5-0.8"/>
<path id="path32151" class="st0" d="M273.2,153.8l0.5-0.8"/>
<path id="path32153" class="st0" d="M271.2,158.5l3.1-5"/>
<path id="path32155" class="st0" d="M282.9,138l0.5-0.8"/>
<path id="path32157" class="st0" d="M285.5,133.8l0.5-0.8"/>
<path id="path32159" class="st0" d="M283.6,138.5l3.1-5"/>
<path id="path32161" class="st0" d="M264.4,168l0.5-0.8"/>
<path id="path32163" class="st0" d="M267,163.8l0.5-0.8"/>
<path id="path32165" class="st0" d="M265,168.5l0.5-0.8"/>
<path id="path32167" class="st0" d="M267.6,164.3l0.5-0.8"/>
<path id="path32169" class="st0" d="M276.7,148l0.5-0.8"/>
<path id="path32171" class="st0" d="M279.3,143.8l0.5-0.8"/>
<path id="path32173" class="st0" d="M277.4,148.5l3.1-5"/>
<path id="path32175" class="st0" d="M153,186.3l0.5-0.8"/>
<path id="path32177" class="st0" d="M158.8,173.9l1,0.6"/>
<path id="path32179" class="st0" d="M160.1,174.6l0.5-0.8"/>
<path id="path32181" class="st0" d="M162.7,170.4l0.5-0.8"/>
<path id="path32183" class="st0" d="M168.6,158l1,0.6"/>
<path id="path32185" class="st0" d="M169.9,158.8l0.5-0.8"/>
<path id="path32187" class="st0" d="M172.5,154.6l0.5-0.8"/>
<path id="path32189" class="st0" d="M172.7,153.6l-1-0.6"/>
<path id="path32191" class="st0" d="M173.8,149.7l1,0.6"/>
<path id="path32193" class="st0" d="M175.1,150.5l0.5-0.8"/>
<path id="path32195" class="st0" d="M177.7,146.3l0.5-0.8"/>
<path id="path32197" class="st0" d="M183.5,133.9l1,0.6"/>
<path id="path32199" class="st0" d="M184.9,134.6l0.5-0.8"/>
<path id="path32201" class="st0" d="M185,133.6l2.3-3.7l3.5,2"/>
<path id="path32203" class="st0" d="M188.1,136.5l1,0.6"/>
<path id="path32205" class="st0" d="M189.8,137.5l-6.7,10.8"/>
<path id="path32207" class="st0" d="M189.1,137.1l-6.7,10.8"/>
<path id="path32209" class="st0" d="M178.3,152.3l1,0.6l-2.1,3.3l-1-0.6"/>
<path id="path32211" class="st0" d="M173.2,160.6l1,0.6"/>
<path id="path32213" class="st0" d="M174.8,161.7l-6.7,10.8"/>
<path id="path32215" class="st0" d="M174.2,161.2l-6.7,10.8"/>
<path id="path32217" class="st0" d="M163.4,176.5l1,0.6"/>
<path id="path32219" class="st0" d="M165,177.5l-6.7,10.8"/>
<path id="path32221" class="st0" d="M164.4,177.1l-6.7,10.8"/>
<path id="path32223" class="st0" d="M153.6,192.3l1,0.6"/>
<path id="path32225" class="st0" d="M152.5,196.2l-1-0.6"/>
<path id="path32227" class="st0" d="M148.4,200.6l1,0.6"/>
<path id="path32229" class="st0" d="M150.1,201.7l-9.4,15.2"/>
<path id="path32231" class="st0" d="M149.4,201.2l-9.5,15.3"/>
<path id="path32233" class="st0" d="M138,210.4l0.5-0.8"/>
<path id="path32235" class="st0" d="M143.9,198l1,0.6"/>
<path id="path32237" class="st0" d="M145.2,198.8l0.5-0.8"/>
<path id="path32239" class="st0" d="M147.8,194.6l0.5-0.8"/>
<path id="path32241" class="st0" d="M148,193.6l-1-0.6"/>
<path id="path32243" class="st0" d="M149,189.7l1,0.6"/>
<path id="path32245" class="st0" d="M150.4,190.5l0.5-0.8"/>
<path id="path32247" class="st0" d="M177.6,156.5l2.1-3.3"/>
<path id="path32249" class="st0" d="M177.6,156.5l-0.3-0.2"/>
<path id="path32251" class="st0" d="M219.3,223.6l6.7-10.8"/>
<path id="path32253" class="st0" d="M218.7,223.1l6.7-10.8l-1-0.6"/>
<path id="path32255" class="st0" d="M229.1,207.8l6.7-10.8"/>
<path id="path32257" class="st0" d="M228.5,207.3l6.7-10.8l-1-0.6"/>
<path id="path32259" class="st0" d="M237.3,190.9l1,0.6"/>
<path id="path32261" class="st0" d="M239.3,189.8l1-1.7l-1-0.6"/>
<path id="path32263" class="st0" d="M244.1,183.6l6.7-10.8"/>
<path id="path32265" class="st0" d="M243.4,183.1l6.7-10.8l-1-0.6"/>
<path id="path32267" class="st0" d="M251.9,167.2l-3.5-2l-2.3,3.7"/>
<path id="path32269" class="st0" d="M246.4,169.1l-0.5,0.8"/>
<path id="path32271" class="st0" d="M245.6,169.7l-1-0.6"/>
<path id="path32273" class="st0" d="M239.2,180.7l-0.5,0.8"/>
<path id="path32275" class="st0" d="M236.6,184.9l-0.5,0.8"/>
<path id="path32277" class="st0" d="M235.8,185.5l-1-0.6"/>
<path id="path32279" class="st0" d="M232.7,188.2l1,0.6"/>
<path id="path32281" class="st0" d="M234,189l-0.5,0.8"/>
<path id="path32283" class="st0" d="M231.4,193.2l-0.5,0.8"/>
<path id="path32285" class="st0" d="M230.6,193.8l-1-0.6"/>
<path id="path32287" class="st0" d="M224.2,204.8l-0.5,0.8"/>
<path id="path32289" class="st0" d="M221.7,209l-0.5,0.8"/>
<path id="path32291" class="st0" d="M220.8,209.7l-1-0.6"/>
<path id="path32293" class="st0" d="M214.5,220.7l-0.5,0.8"/>
<path id="path32295" class="st0" d="M211.9,224.9l-0.5,0.8"/>
<path id="path32297" class="st0" d="M211,225.5l-1-0.6"/>
<path id="path32299" class="st0" d="M208,228.2l1,0.6"/>
<path id="path32301" class="st0" d="M209.3,229l-0.5,0.8"/>
<path id="path32303" class="st0" d="M206.7,233.2l-0.5,0.8"/>
<path id="path32305" class="st0" d="M205.9,233.8l-1-0.6"/>
<path id="path32307" class="st0" d="M204.4,247.7l6.7-10.8"/>
<path id="path32309" class="st0" d="M203.7,247.3l6.7-10.8l-1-0.6"/>
<path id="path32311" class="st0" d="M212.5,230.9l1,0.6"/>
<path id="path32313" class="st0" d="M215.6,228.1l-1-0.6"/>
<path id="path32315" class="st0" d="M240.6,188.4l-2.1,3.3"/>
<path id="path32317" class="st0" d="M188.6,158.2l-0.7-0.5"/>
<path id="path32319" class="st0" d="M188.6,158.2l-3.1,5"/>
<path id="path32321" class="st0" d="M187.9,157.8l-0.5,0.8"/>
<path id="path32323" class="st0" d="M185.3,162l-0.5,0.8"/>
<path id="path32325" class="st0" d="M163.8,198.2l-3.1,5"/>
<path id="path32327" class="st0" d="M163.2,197.8l-0.5,0.8"/>
<path id="path32329" class="st0" d="M160.6,202l-0.5,0.8"/>
<path id="path32331" class="st0" d="M176.2,178.2l-3.1,5"/>
<path id="path32333" class="st0" d="M175.5,177.8l-0.5,0.8"/>
<path id="path32335" class="st0" d="M172.9,182l-0.5,0.8"/>
<path id="path32337" class="st0" d="M194.8,148.2l-1.5,2.5l-1.5,2.5"/>
<path id="path32339" class="st0" d="M194.1,147.8l-0.5,0.8"/>
<path id="path32341" class="st0" d="M191.5,152l-0.5,0.8"/>
<path id="path32343" class="st0" d="M170,188.2l-3.1,5"/>
<path id="path32345" class="st0" d="M169.4,187.8l-0.5,0.8"/>
<path id="path32347" class="st0" d="M166.8,192l-0.5,0.8"/>
<path id="path32349" class="st0" d="M157.7,208.2l-1.5,2.5l-1.5,2.5"/>
<path id="path32351" class="st0" d="M157,207.8l-0.5,0.8"/>
<path id="path32353" class="st0" d="M154.4,212l-0.5,0.8"/>
<path id="path32355" class="st0" d="M182.4,168.2l-3.1,5"/>
<path id="path32357" class="st0" d="M181.7,167.8l-0.5,0.8"/>
<path id="path32359" class="st0" d="M179.1,172l-0.5,0.8"/>
<path id="path32361" class="st0" d="M141.1,275.7l0.7,0.5"/>
<path id="path32363" class="st0" d="M141,275.7l0.7,0.5"/>
<path id="path32365" class="st0" d="M141.1,275.7l3.4,0.4"/>
<path id="path32367" class="st0" d="M141.8,276.2l2.9,0.4"/>
<path id="path32369" class="st0" d="M140.8,282.1l-2-2.7l0.7,0.5"/>
<path id="path32371" class="st0" d="M141.1,282.1l-1.6-2.2"/>
<path id="path32373" class="st0" d="M171.9,298.5l-3.4-0.4"/>
<path id="path32375" class="st0" d="M168.4,297.5l0.7-1.2"/>
<path id="path32377" class="st0" d="M172.2,292.1l2,2.7l0.8,0.5"/>
<path id="path32379" class="st0" d="M174.3,294.9l1.6-2.6"/>
<path id="path32381" class="st0" d="M175,295.3l1.6-2.6"/>
<path id="path32383" class="st0" d="M175.9,292.3l-1.3-0.8"/>
<path id="path32385" class="st0" d="M179,287.3l1.6-2.6"/>
<path id="path32387" class="st0" d="M179.7,287.7l1.6-2.6"/>
<path id="path32389" class="st0" d="M180.5,284.6l-3.4-0.4"/>
<path id="path32391" class="st0" d="M177,283.6l0.7-1.2"/>
<path id="path32393" class="st0" d="M180.8,278.2l2,2.7l0.8,0.5"/>
<path id="path32395" class="st0" d="M149.6,261.7l0.7,0.5"/>
<path id="path32397" class="st0" d="M149.7,261.8l0.7,0.5"/>
<path id="path32399" class="st0" d="M149.7,261.8l3.4,0.4"/>
<path id="path32401" class="st0" d="M150.4,262.2l2.9,0.4"/>
<path id="path32403" class="st0" d="M150,268c-0.1,0.2-0.4,0.3-0.6,0.2l-2-2.7l0.7,0.5"/>
<path id="path32405" class="st0" d="M149.7,268.2l-1.6-2.2"/>
<path id="path32407" class="st0" d="M147.3,265.4l-1.6,2.6"/>
<path id="path32409" class="st0" d="M147.1,268.8l-0.5,0.8"/>
<path id="path32411" class="st0" d="M144.5,273l-0.5,0.8l-1.3-0.8"/>
<path id="path32413" class="st0" d="M177.8,282.4l0.3,0.2"/>
<path id="path32415" class="st0" d="M169.2,296.3l0.3,0.2"/>
<path id="path32417" class="st0" d="M152.8,264.2l-0.3-0.2"/>
<path id="path32419" class="st0" d="M200,251.2l-0.3,0.5l1,0.6l0.7,0.5"/>
<path id="path32421" class="st0" d="M165.8,237.8l2.9-4.7"/>
<path id="path32423" class="st0" d="M177.8,240l-0.2,0.4l0.7,0.4l0.2-0.4l9.8,5.6l0.6,0.4"/>
<path id="path32425" class="st0" d="M188.3,246l-0.2,0.4"/>
<path id="path32427" class="st0" d="M188.7,246.8l0.2-0.4l0.7-1.2l10.3,6"/>
<path id="path32429" class="st0" d="M187.3,271.7l-2.1,3.4"/>
<path id="path32431" class="st0" d="M184.4,275.7l1.3,0.8"/>
<path id="path32433" class="st0" d="M152.4,257.2l1.3,0.8l0.5-0.8"/>
<path id="path32435" class="st0" d="M156.4,253.8l0.5-0.8"/>
<path id="path32437" class="st0" d="M158.9,249.7l0.5-0.8"/>
<path id="path32439" class="st0" d="M161.5,245.5l0.5-0.8"/>
<path id="path32441" class="st0" d="M156.5,252.8l2.1-3.3"/>
<path id="path32443" class="st0" d="M189.1,271.7l2.1-3.3"/>
<path id="path32445" class="st0" d="M134,287l1.3,0.8"/>
<path id="path32447" class="st0" d="M152.9,305.2L163,311"/>
<path id="path32449" class="st0" d="M153.8,303.6l-0.2,0.4l-0.2,0.4l-0.5,0.8"/>
<path id="path32451" class="st0" d="M143.2,298l9.8,5.6"/>
<path id="path32453" class="st0" d="M143.4,297.6l-0.2,0.4"/>
<path id="path32455" class="st0" d="M142.8,297.2l0.7,0.4"/>
<path id="path32457" class="st0" d="M141.8,298.8l0.5-0.8l0.2-0.4l0.2-0.4"/>
<path id="path32459" class="st0" d="M131.7,293l10.1,5.8"/>
<path id="path32461" class="st0" d="M135.3,287.8l-0.5,0.8"/>
<path id="path32463" class="st0" d="M153.5,305.7l9.4,5.4"/>
<path id="path32465" class="st0" d="M143.8,298.4l9.7,5.6"/>
<path id="path32467" class="st0" d="M132.3,293.4l9.4,5.4"/>
<path id="path32469" class="st0" d="M143.2,298l0.7,0.5"/>
<path id="path32471" class="st0" d="M142.8,297.2l0.6,0.4"/>
<path id="path32473" class="st0" d="M138.7,279.4l-0.7,1.2l-4,6.4"/>
<path id="path32475" class="st0" d="M167.3,306.2l4-6.4l0.7-1.2"/>
<path id="path32477" class="st0" d="M168,306.7l4-6.4l0.7-1.2"/>
<path id="path32479" class="st0" d="M200.6,252.3l-4.6,7.5l-2.1,3.3"/>
<path id="path32481" class="st0" d="M160.7,243.9l2.1-3.3l2.1-3.3"/>
<path id="path32483" class="st0" d="M201.3,252.7l-4.6,7.5l-2.1,3.3"/>
<path id="path32485" class="st0" d="M182.9,280.9l0.7-1.2l2.1-3.3"/>
<path id="path32487" class="st0" d="M149.6,261.7l0.7-1.2l2.1-3.3"/>
<path id="path32489" class="st0" d="M183.6,281.4l0.7-1.2l2.1-3.3"/>
<path id="path32491" class="st0" d="M144.5,276.1c0.2,0.1,0.2,0.4,0.1,0.6"/>
<path id="path32493" class="st0" d="M138.8,279.4l0.7,0.5"/>
<path id="path32495" class="st0" d="M147.4,265.5l0.7,0.5"/>
<path id="path32497" class="st0" d="M178,282.6l-0.3-0.2"/>
<path id="path32499" class="st0" d="M169.4,296.5l-0.3-0.2"/>
<path id="path32501" class="st0" d="M152.5,264l0.5,0.8l-0.3,1.2l-1,0.8l-1.1-0.1"/>
<path id="path32503" class="st0" d="M143.9,278l0.5,0.8l-0.3,1.2l-1,0.8l-1.1-0.1"/>
<path id="path32505" class="st0" d="M254.4,183.6l0.5-0.8"/>
<path id="path32507" class="st0" d="M265,168.5l-0.4-0.3l-0.4-0.3l0.5-0.8"/>
<path id="path32509" class="st0" d="M254.3,167.6l-0.5,0.8l-0.9-0.6l-1-0.6"/>
<path id="path32511" class="st0" d="M252.9,167.8l-2.8,4.5"/>
<path id="path32513" class="st0" d="M251.9,167.2l-2.8,4.5"/>
<path id="path32515" class="st0" d="M259.1,178.6l-1.1-0.8l0.5-0.8l2-2.7l0.3-1"/>
<path id="path32517" class="st0" d="M256.9,171.3l0.2-0.4l-1.3-0.9l-0.2,0.4"/>
<path id="path32519" class="st0" d="M255.1,170l0.2-0.4"/>
<path id="path32521" class="st0" d="M256.1,168.4l0.2-0.4"/>
<path id="path32523" class="st0" d="M257.9,169.7l0.2-0.4"/>
<path id="path32525" class="st0" d="M257.6,171.2l-0.2,0.4l-0.4-0.3"/>
<path id="path32527" class="st0" d="M240.3,188.1l3.1-5l-1-0.6"/>
<path id="path32529" class="st0" d="M239.3,187.5l3.1-5"/>
<path id="path32531" class="st0" d="M243.4,183.1l0.9,0.6"/>
<path id="path32533" class="st0" d="M252.3,187l-0.5,0.8l0.4,0.3l0.4,0.3"/>
<path id="path32535" class="st0" d="M243.2,193.2l-1.1,3.1"/>
<path id="path32537" class="st0" d="M241.5,196.6l-2.4-1.7"/>
<path id="path32539" class="st0" d="M274.8,132.3l3.1-5l-1-0.6"/>
<path id="path32541" class="st0" d="M273.8,131.7l3.1-5"/>
<path id="path32543" class="st0" d="M277.9,127.3l0.9,0.6"/>
<path id="path32545" class="st0" d="M280.2,125.2l2.3-3.7"/>
<path id="path32547" class="st0" d="M279.2,124.6l2.4-3.9"/>
<path id="path32549" class="st0" d="M284.6,116.5l8.2-13.2l-1-0.6"/>
<path id="path32551" class="st0" d="M283.6,115.9l8.2-13.2"/>
<path id="path32553" class="st0" d="M291.5,120v0.8"/>
<path id="path32555" class="st0" d="M279.6,142.8l-0.5,0.8"/>
<path id="path32557" class="st0" d="M290.1,108.4l-2.1,3.3l0,0.4"/>
<path id="path32559" class="st0" d="M291.8,111.5v3.2"/>
<path id="path32561" class="st0" d="M290.8,122.9v3.2"/>
<path id="path32563" class="st0" d="M283.2,137l-0.5,0.8l0.4,0.3l0.4,0.3"/>
<path id="path32565" class="st0" d="M285.8,132.8l-0.5,0.8l-1.9,3.6"/>
<path id="path32567" class="st0" d="M259.9,156.5l8.2-13.3l-1-0.6"/>
<path id="path32569" class="st0" d="M258.9,155.9l8.2-13.3"/>
<path id="path32571" class="st0" d="M268.1,143.1l0.9,0.6"/>
<path id="path32573" class="st0" d="M277,147l-0.5,0.8l0.4,0.3l0.4,0.3"/>
<path id="path32575" class="st0" d="M267.2,162.8l-0.5,0.8"/>
<path id="path32577" class="st0" d="M265.4,148.4l-2.1,3.3l0,0.4"/>
<path id="path32579" class="st0" d="M270.8,157l-0.5,0.8l0.4,0.3l0.4,0.3"/>
<path id="path32581" class="st0" d="M273.4,152.8l-0.5,0.8l-1.9,3.6"/>
<path id="path32583" class="st0" d="M252.5,187.2l1.1-1.7l1.1-1.7"/>
<path id="path32585" class="st0" d="M279.3,143.8l-1.1,1.7l-1.1,1.7"/>
<path id="path32587" class="st0" d="M267.6,164.3l-1.1,1.7l-1.1,1.7"/>
<path id="path32589" class="st0" d="M264.9,167.2l1.1-1.7l1.1-1.7"/>
<path id="path32591" class="st0" d="M292,111.1l-0.2,0.4"/>
<path id="path32593" class="st0" d="M291,122.4l-0.2,0.4"/>
<path id="path32595" class="st0" d="M265.7,148.2l-0.3,0.2"/>
<path id="path32597" class="st0" d="M163.4,176.5l3.1-5l1,0.6"/>
<path id="path32599" class="st0" d="M164.4,177.1l3.1-5l0.9,0.6"/>
<path id="path32601" class="st0" d="M178.9,171.8l-0.5,0.8l0.4,0.3l0.4,0.3"/>
<path id="path32603" class="st0" d="M169.1,187.6l-0.5,0.8"/>
<path id="path32605" class="st0" d="M175.3,177.6l-0.5,0.8l-1.9,3.6l-0.7,0.6"/>
<path id="path32607" class="st0" d="M173.2,160.6l8.2-13.3l1,0.6"/>
<path id="path32609" class="st0" d="M174.2,161.2l3.1-5"/>
<path id="path32611" class="st0" d="M179.3,152.9l3.1-5l0.9,0.6"/>
<path id="path32613" class="st0" d="M191.3,151.8l-0.5,0.8l0.4,0.3l0.4,0.3"/>
<path id="path32615" class="st0" d="M181.5,167.6l-0.5,0.8"/>
<path id="path32617" class="st0" d="M177.9,156.7l2.1-3.3"/>
<path id="path32619" class="st0" d="M185.1,161.8l-0.5,0.8"/>
<path id="path32621" class="st0" d="M187.7,157.6l-0.5,0.8l-1.9,3.6"/>
<path id="path32623" class="st0" d="M197.7,136.7l4.6,3.3"/>
<path id="path32625" class="st0" d="M193.9,147.6l-0.5,0.8"/>
<path id="path32627" class="st0" d="M188.1,136.5l2.8-4.5l1,0.6"/>
<path id="path32629" class="st0" d="M189.1,137.1l2.8-4.5l2.2,1.5l-0.2,0.4"/>
<path id="path32631" class="st0" d="M194.2,134.8l0.2-0.4"/>
<path id="path32633" class="st0" d="M197.3,136.4l-0.3,0.4"/>
<path id="path32635" class="st0" d="M197.4,137.1l0.2-0.4"/>
<path id="path32637" class="st0" d="M148.4,200.6l8.2-13.3l1,0.6"/>
<path id="path32639" class="st0" d="M149.4,201.2l8.2-13.3l0.9,0.6"/>
<path id="path32641" class="st0" d="M166.5,191.8l-0.5,0.8l0.4,0.3l0.4,0.3"/>
<path id="path32643" class="st0" d="M156.8,207.6l-0.5,0.8"/>
<path id="path32645" class="st0" d="M160.4,201.8l-0.5,0.8"/>
<path id="path32647" class="st0" d="M163,197.6l-0.5,0.8l-1.9,3.6"/>
<path id="path32649" class="st0" d="M154.6,213.2l-0.4-0.3l-0.4-0.3l0.5-0.8"/>
<path id="path32651" class="st0" d="M168.9,188.6l-1.1,1.7l-1.1,1.7"/>
<path id="path32653" class="st0" d="M193.6,148.6l-1.1,1.7l-1.1,1.7"/>
<path id="path32655" class="st0" d="M154.4,212l1.1-1.7l1.1-1.7"/>
<path id="path32657" class="st0" d="M181.2,168.6l-1.1,1.7l-1.1,1.7"/>
<path id="path32659" class="st0" d="M140.9,275.6l-2-2.7"/>
<path id="path32661" class="st0" d="M135.2,278.9l3.4,0.4"/>
<path id="path32663" class="st0" d="M105.5,260.2l0.7,0.5"/>
<path id="path32665" class="st0" d="M105.5,260.2l2,2.7"/>
<path id="path32667" class="st0" d="M106.2,260.7l1.6,2.2"/>
<path id="path32669" class="st0" d="M111.3,257.5c0.1-0.2,0.1-0.5-0.1-0.6l-3.4-0.4l0.7,0.5"/>
<path id="path32671" class="st0" d="M111.4,257.3l-2.9-0.4"/>
<path id="path32673" class="st0" d="M109.4,253.8l1.3,0.8l0.5-0.8"/>
<path id="path32675" class="st0" d="M113.3,250.4l0.5-0.8"/>
<path id="path32677" class="st0" d="M114.1,246.3l0.7,0.5"/>
<path id="path32679" class="st0" d="M114.1,246.3l2,2.7"/>
<path id="path32681" class="st0" d="M114.8,246.8l1.6,2.2c-0.2,0.1,0.1,0,0.3-0.2"/>
<path id="path32683" class="st0" d="M119.8,243l-3.4-0.4l0.7,0.5"/>
<path id="path32685" class="st0" d="M120,243.4l-2.9-0.4"/>
<path id="path32687" class="st0" d="M149.5,261.7l-2-2.7"/>
<path id="path32689" class="st0" d="M143.9,265l3.4,0.4"/>
<path id="path32691" class="st0" d="M141.3,272.3l1.3,0.8l-1.6,2.6"/>
<path id="path32693" class="st0" d="M119.5,245l-1.6,2.7"/>
<path id="path32695" class="st0" d="M117.4,247.6l1.1,0.1l1-0.8l0.3-1.2l-0.5-0.8"/>
<path id="path32697" class="st0" d="M110.9,258.9l-0.3-0.2"/>
<path id="path32699" class="st0" d="M108.8,261.5l1.1,0.1l1-0.8l0.3-1.2l-0.5-0.8"/>
<path id="path32701" class="st0" d="M144.5,263.2l-0.7,1.2"/>
<path id="path32703" class="st0" d="M144.5,263.2l0.3,0.2"/>
<path id="path32705" class="st0" d="M135.9,277.1l-0.7,1.2"/>
<path id="path32707" class="st0" d="M135.9,277.1l0.3,0.2"/>
<path id="path32709" class="st0" d="M166.7,231.9l-9.9-5.7l-0.7,1.2l-0.2,0.4"/>
<path id="path32711" class="st0" d="M155.2,227.5l0.2-0.4l-9.8-5.6l-0.2,0.4l-0.7-0.4l0.2-0.4l0.7-1.2l-10.3-6"/>
<path id="path32713" class="st0" d="M128.7,225.4l-0.5,0.8"/>
<path id="path32715" class="st0" d="M126.1,229.6l-0.5,0.8"/>
<path id="path32717" class="st0" d="M123.6,233.8l-0.5,0.8"/>
<path id="path32719" class="st0" d="M121,238l-0.5,0.8l-1.3-0.8"/>
<path id="path32721" class="st0" d="M152.4,257.2l-1.3-0.8"/>
<path id="path32723" class="st0" d="M154.5,251.6l2.1-3.3"/>
<path id="path32725" class="st0" d="M123.2,233.6l2.1-3.3"/>
<path id="path32727" class="st0" d="M134,287l-1.3-0.8"/>
<path id="path32729" class="st0" d="M101.6,269.3l0.5-0.8"/>
<path id="path32731" class="st0" d="M108.5,279.6l-10.1-5.8"/>
<path id="path32733" class="st0" d="M109.5,278l-0.2,0.4l-0.2,0.4l-0.5,0.8"/>
<path id="path32735" class="st0" d="M109.9,278.8l0.2-0.4"/>
<path id="path32737" class="st0" d="M119.7,284.4l-9.8-5.6"/>
<path id="path32739" class="st0" d="M119.6,286l0.5-0.8l0.2-0.4l0.2-0.4"/>
<path id="path32741" class="st0" d="M129.7,291.8l-10.1-5.8"/>
<path id="path32743" class="st0" d="M132.5,287.2l-2.8,4.6"/>
<path id="path32745" class="st0" d="M108.5,279.7l-9.4-5.4"/>
<path id="path32747" class="st0" d="M120.3,284.8l-9.7-5.6"/>
<path id="path32749" class="st0" d="M129.7,291.9l-9.4-5.4"/>
<path id="path32751" class="st0" d="M109.9,278.8l0.7,0.5"/>
<path id="path32753" class="st0" d="M105.5,260.2l0.7,0.5"/>
<path id="path32755" class="st0" d="M114.1,246.2l0.7,0.5"/>
<path id="path32757" class="st0" d="M144.8,263.4l-0.3-0.2"/>
<path id="path32759" class="st0" d="M136.2,277.3l-0.3-0.2"/>
<path id="path32761" class="st0" d="M257.6,171.2l0.7-1.2"/>
<path id="path32763" class="st0" d="M255.4,169.6l0.7-1.2"/>
<path id="path32765" class="st0" d="M258.4,170l-2.2-1.6"/>
<path id="path32767" class="st0" d="M241.6,161.3l-5.5-3.2l-5.5-3.2l0.7-1.2"/>
<path id="path32769" class="st0" d="M242.3,160.1l-5.5-3.2l-5.5-3.2"/>
<path id="path32771" class="st0" d="M230.5,154.9l0.9,0.6"/>
<path id="path32773" class="st0" d="M223.4,151.2l0.4,0.3"/>
<path id="path32775" class="st0" d="M223.6,151.3l2.8,2"/>
<path id="path32777" class="st0" d="M226.7,153.5l0.4,0.3"/>
<path id="path32779" class="st0" d="M238.3,160.4l0.7,0.4l5.1,3l2.8,1.6"/>
<path id="path32781" class="st0" d="M197.9,136.2l0.7,0.4l-0.9-0.6l0.7-1.2"/>
<path id="path32783" class="st0" d="M197.6,135.9l5.5,3.2l5.5,3.2"/>
<path id="path32785" class="st0" d="M198.4,134.7l5.5,3.2l5.5,3.2"/>
<path id="path32787" class="st0" d="M217.5,148.5l-0.7-0.5l-0.9-0.5l-4.7-2.7l-4.9-2.8l-0.9-0.5"/>
<path id="path32789" class="st0" d="M194.8,134.6l0.4,0.3"/>
<path id="path32791" class="st0" d="M194.9,134.7l1.9,1.3"/>
<path id="path32793" class="st0" d="M197.1,136.3l0.4,0.3"/>
<path id="path32795" class="st0" d="M220.8,149.6l1.3,0.8l1,0.6"/>
<path id="path32797" class="st0" d="M194,134.2l0.8,0.5"/>
<path id="path32799" class="st0" d="M167.7,232.5l-2.9,4.7"/>
<path id="path32801" class="st0" d="M161.7,244.5l-1-0.6"/>
<path id="path32803" class="st0" d="M161.7,244.5l-0.5,0.8"/>
<path id="path32805" class="st0" d="M156.5,252.8l-0.5,0.8"/>
<path id="path32807" class="st0" d="M160.7,243.9l-8.2,13.3"/>
<path id="path32809" class="st0" d="M150.3,262.2l-2.3,3.7"/>
<path id="path32811" class="st0" d="M146.7,268.6l-1-0.6"/>
<path id="path32813" class="st0" d="M146.7,268.6l-0.5,0.8"/>
<path id="path32815" class="st0" d="M145.7,268l-3.1,5"/>
<path id="path32817" class="st0" d="M141.7,276.1l-2.3,3.7"/>
<path id="path32819" class="st0" d="M135,287.6l-1-0.6"/>
<path id="path32821" class="st0" d="M135,287.6l-0.5,0.8"/>
<path id="path32823" class="st0" d="M134,287l-3.3,5.4"/>
<path id="path32825" class="st0" d="M131.7,296.8v0.8"/>
<path id="path32827" class="st0" d="M131.7,298.8v0.8"/>
<path id="path32829" class="st0" d="M131.7,300.1v0.8l-1-0.6"/>
<path id="path32831" class="st0" d="M130.7,292.4v7.9"/>
<path id="path32833" class="st0" d="M131.7,307.7v0.8"/>
<path id="path32835" class="st0" d="M131.7,308.9v0.8"/>
<path id="path32837" class="st0" d="M131.7,311v0.8"/>
<path id="path32839" class="st0" d="M130.7,307.1v4.5"/>
<path id="path32841" class="st0" d="M143.7,298.7l0.3-0.2"/>
<path id="path32843" class="st0" d="M291.3,125.8v-3.2l-0.5,0.3"/>
<path id="path32845" class="st0" d="M130.8,301.9l2.7,0.5"/>
<path id="path32847" class="st0" d="M133.4,308.2l-2.7-2.6l1-0.6"/>
<path id="path32849" class="st0" d="M133.8,306.9l-2-2"/>
<path id="path32851" class="st0" d="M130.7,305.5l1-0.6"/>
<path id="path32853" class="st0" d="M130.7,305.5v1.7l1.3,0.8v0.8"/>
<path id="path32855" class="st0" d="M131.7,308.5v0.4"/>
<path id="path32857" class="st0" d="M132,309.1v0.8"/>
<path id="path32859" class="st0" d="M132,311.2v0.8"/>
<path id="path32861" class="st0" d="M134.9,314l1-0.6"/>
<path id="path32863" class="st0" d="M134.9,314l-0.9-3.6"/>
<path id="path32865" class="st0" d="M135.9,313.4l-0.7-2.7"/>
<path id="path32867" class="st0" d="M134.3,310.1l1,0.6"/>
<path id="path32869" class="st0" d="M145.8,320.2l1-0.6"/>
<path id="path32871" class="st0" d="M145.8,320.2l-0.9-3.6"/>
<path id="path32873" class="st0" d="M145.1,316.4l1,0.6"/>
<path id="path32875" class="st0" d="M156.6,326.4l1-0.6"/>
<path id="path32877" class="st0" d="M156.6,326.4l-0.9-3.6"/>
<path id="path32879" class="st0" d="M156,322.6l1,0.6"/>
<path id="path32881" class="st0" d="M162.6,329.6v-0.8"/>
<path id="path32883" class="st0" d="M165,329v-1.3"/>
<path id="path32885" class="st0" d="M162.6,325.6l1.3,0.8v-1.7l1-0.6"/>
<path id="path32887" class="st0" d="M165,325.8v-1.7"/>
<path id="path32889" class="st0" d="M163.9,324.6l1-0.6l-2.7-0.5"/>
<path id="path32891" class="st0" d="M161.2,318.4l2.7,2.6l0.1-1.6"/>
<path id="path32893" class="st0" d="M165,320.5l0-1.7"/>
<path id="path32895" class="st0" d="M162.6,318.7v-0.8"/>
<path id="path32897" class="st0" d="M165,316.9v-1.3"/>
<path id="path32899" class="st0" d="M162.6,315.4v-0.8"/>
<path id="path32901" class="st0" d="M163,312.2l-9.4-5.4l0.9-0.5"/>
<path id="path32903" class="st0" d="M152.9,305.2l-11.1-6.4l1-0.6"/>
<path id="path32905" class="st0" d="M153.4,304.3l-10.6-6.1"/>
<path id="path32907" class="st0" d="M141.8,298.8v1.5"/>
<path id="path32909" class="st0" d="M141.1,299.6l-9.4-5.4l0.9-0.5"/>
<path id="path32911" class="st0" d="M131.7,294.1v2.7"/>
<path id="path32913" class="st0" d="M132,297v0.8"/>
<path id="path32915" class="st0" d="M132,299v0.8"/>
<path id="path32917" class="st0" d="M131.7,299.6v0.4"/>
<path id="path32919" class="st0" d="M132,300.2v0.8"/>
<path id="path32921" class="st0" d="M134.3,306.5l0.5,0.2"/>
<path id="path32923" class="st0" d="M133.8,306.8v1.2"/>
<path id="path32925" class="st0" d="M164.5,317.2l0.5-0.3"/>
<path id="path32927" class="st0" d="M164.5,329.3l0.5-0.3"/>
<path id="path32929" class="st0" d="M160.8,319.8l-0.8-0.1"/>
<path id="path32931" class="st0" d="M160.8,319.8v-1.2"/>
<path id="path32933" class="st0" d="M131.7,298.8v-1.3"/>
<path id="path32935" class="st0" d="M131.7,311v-1.3"/>
<path id="path32937" class="st0" d="M159.3,324.5c0.1-0.6-0.6-1.8-1.2-2l-0.8-0.1"/>
<path id="path32939" class="st0" d="M148.5,318.3c0.1-0.6-0.6-1.8-1.2-2l-0.8-0.1"/>
<path id="path32941" class="st0" d="M135.8,310.4l1.7,1"/>
<path id="path32943" class="st0" d="M137.7,312.1c0.1-0.6-0.6-1.8-1.2-2l-0.8-0.1"/>
<path id="path32945" class="st0" d="M134.6,306.9l0.3-0.8c0.1-0.6-0.6-1.8-1.2-2"/>
<path id="path32947" class="st0" d="M157.6,322.4l-0.1,0.5"/>
<path id="path32949" class="st0" d="M146.8,316.1l-0.1,0.5"/>
<path id="path32951" class="st0" d="M136,309.9l-0.1,0.5"/>
<path id="path32953" class="st0" d="M169.7,318.9l-0.5,0.3"/>
<path id="path32955" class="st0" d="M177,316.7v3.8"/>
<path id="path32957" class="st0" d="M176,320.4v0.8"/>
<path id="path32959" class="st0" d="M110.8,279.6l-0.3-0.2"/>
<path id="path32961" class="st0" d="M234.9,123.9l-1-0.6"/>
<path id="path32963" class="st0" d="M225.6,136.7l8.2-13.3"/>
<path id="path32965" class="st0" d="M224.8,152.4l-3.7-2.6"/>
<path id="path32967" class="st0" d="M240.6,112.5l3.1-5l1,0.6"/>
<path id="path32969" class="st0" d="M245.9,105.4l2.4-3.9"/>
<path id="path32971" class="st0" d="M250.3,96.7l8.2-13.2l1,0.6"/>
<path id="path32973" class="st0" d="M251.3,97.3l8.2-13.2"/>
<path id="path32975" class="st0" d="M238.3,119.9l2.3-3.7"/>
<path id="path32977" class="st0" d="M186.3,129.4l1,0.6"/>
<path id="path32979" class="st0" d="M176.8,144.7l1,0.6"/>
<path id="path32981" class="st0" d="M174.8,150.3l0.5-0.8"/>
<path id="path32983" class="st0" d="M177.4,146.1l0.5-0.8"/>
<path id="path32985" class="st0" d="M211.4,88.9l1,0.6"/>
<path id="path32987" class="st0" d="M209.3,94.4l0.5-0.8"/>
<path id="path32989" class="st0" d="M211.9,90.2l0.5-0.8"/>
<path id="path32991" class="st0" d="M213.6,86.7l2.3-3.7"/>
<path id="path32993" class="st0" d="M221.7,74.4l0.5-0.8"/>
<path id="path32995" class="st0" d="M224.2,70.3l0.5-0.8"/>
<path id="path32997" class="st0" d="M201.6,104.7l1,0.6"/>
<path id="path32999" class="st0" d="M196.9,114.4l0.5-0.8"/>
<path id="path33001" class="st0" d="M199.5,110.3l0.5-0.8"/>
<path id="path33003" class="st0" d="M202.1,106.1l0.5-0.8"/>
<path id="path33005" class="st0" d="M205,100.7l2.3-3.7"/>
<path id="path33007" class="st0" d="M191.2,123l-2.3,3.7"/>
<path id="path33009" class="st0" d="M240,115.7l0.7,0.5"/>
<path id="path33011" class="st0" d="M239.9,115.7l0.7,0.5"/>
<path id="path33013" class="st0" d="M240,115.7l3.4,0.4"/>
<path id="path33015" class="st0" d="M240.7,116.2l2.9,0.4"/>
<path id="path33017" class="st0" d="M239.7,122.1l-2-2.7l0.7,0.5"/>
<path id="path33019" class="st0" d="M240,122.2l-1.6-2.2"/>
<path id="path33021" class="st0" d="M270.8,138.6l-3.4-0.4"/>
<path id="path33023" class="st0" d="M267.4,137.6l0.7-1.2"/>
<path id="path33025" class="st0" d="M271.2,132.2l2,2.7l0.8,0.5"/>
<path id="path33027" class="st0" d="M273.2,134.9l1.6-2.6"/>
<path id="path33029" class="st0" d="M273.9,135.4l1.6-2.6"/>
<path id="path33031" class="st0" d="M274.8,132.3l-1.3-0.8"/>
<path id="path33033" class="st0" d="M277.9,127.3l1.6-2.6l0.7,0.5"/>
<path id="path33035" class="st0" d="M278.6,127.8l1.6-2.6"/>
<path id="path33037" class="st0" d="M279.4,124.7l-3.4-0.4"/>
<path id="path33039" class="st0" d="M276,123.6l0.7-1.2"/>
<path id="path33041" class="st0" d="M276.6,124.1l0.7-1.2l1.7-2.8l0.7-1.2"/>
<path id="path33043" class="st0" d="M279.8,118.2l2,2.7l0.8,0.5"/>
<path id="path33045" class="st0" d="M248.6,101.8l0.7,0.5"/>
<path id="path33047" class="st0" d="M248.7,101.8l0.7,0.5"/>
<path id="path33049" class="st0" d="M248.7,101.8l3.4,0.4"/>
<path id="path33051" class="st0" d="M249.3,102.3l2.9,0.4l-0.8,1.4"/>
<path id="path33053" class="st0" d="M248.9,108c-0.1,0.2-0.4,0.3-0.6,0.2l-2-2.7l0.7,0.5"/>
<path id="path33055" class="st0" d="M248.7,108.2L247,106"/>
<path id="path33057" class="st0" d="M246,108.9l-0.5,0.8"/>
<path id="path33059" class="st0" d="M243.4,113.1l-0.5,0.8l-1.3-0.8l-1.6,2.6"/>
<path id="path33061" class="st0" d="M278.8,119.9l-0.3-0.2"/>
<path id="path33063" class="st0" d="M278.8,119.9l-1.7,2.8"/>
<path id="path33065" class="st0" d="M276.7,122.4l0.3,0.2"/>
<path id="path33067" class="st0" d="M278.4,119.6l0.7-1.2"/>
<path id="path33069" class="st0" d="M268.1,136.4l0.3,0.2"/>
<path id="path33071" class="st0" d="M250,107l1.6-2.7l-0.3-0.3"/>
<path id="path33073" class="st0" d="M260.1,85.3l-2.1,3.4"/>
<path id="path33075" class="st0" d="M258.3,88.9l-0.5,0.8"/>
<path id="path33077" class="st0" d="M255.8,93l-0.5,0.8"/>
<path id="path33079" class="st0" d="M254.9,93.6l-2.1,3.4"/>
<path id="path33081" class="st0" d="M253.2,97.2l-0.5,0.8l-1.3-0.8"/>
<path id="path33083" class="st0" d="M284.6,116.5l-1.3-0.8l0.5-0.8"/>
<path id="path33085" class="st0" d="M292.9,103.1l1.8-2.8"/>
<path id="path33087" class="st0" d="M259.6,83.9l1.3,0.8"/>
<path id="path33089" class="st0" d="M260.3,84.4l0.6,0.4l-0.5,0.7"/>
<path id="path33091" class="st0" d="M255.4,92.8l2.1-3.3"/>
<path id="path33093" class="st0" d="M236.2,124.7l-0.5,0.8"/>
<path id="path33095" class="st0" d="M233.6,128.9l-0.5,0.8"/>
<path id="path33097" class="st0" d="M231,133l-0.5,0.8"/>
<path id="path33099" class="st0" d="M228.4,137.2l-0.5,0.8l-1.3-0.8"/>
<path id="path33101" class="st0" d="M259.9,156.5l-1.3-0.8"/>
<path id="path33103" class="st0" d="M230.7,132.8l2.1-3.3"/>
<path id="path33105" class="st0" d="M227,144.2l-0.3-0.2"/>
<path id="path33107" class="st0" d="M223.6,148.2l-2-2.7l0.7,0.5"/>
<path id="path33109" class="st0" d="M223.9,148.2l-1.6-2.2"/>
<path id="path33111" class="st0" d="M221.5,145.5l-1.9,3.1l10.9,6.3"/>
<path id="path33113" class="st0" d="M220.3,149.1l10.9,6.3"/>
<path id="path33115" class="st0" d="M231.4,153.3l0.6,0.4"/>
<path id="path33117" class="st0" d="M231.4,153.3l0.7,0.4l-0.2,0.4"/>
<path id="path33119" class="st0" d="M242.5,159.7l-0.2,0.4l-0.7,1.2l5.8,3.3"/>
<path id="path33121" class="st0" d="M242.2,161.8l5.1,2.9"/>
<path id="path33123" class="st0" d="M252.9,167.8l1.9-3.1"/>
<path id="path33125" class="st0" d="M253.5,168.3l1.9-3.1"/>
<path id="path33127" class="st0" d="M254.7,164.6l-3.4-0.4"/>
<path id="path33129" class="st0" d="M251.2,163.6l0.7-1.2"/>
<path id="path33131" class="st0" d="M255,158.2l2,2.7l0.8,0.5"/>
<path id="path33133" class="st0" d="M223.8,141.8l0.7,0.5"/>
<path id="path33135" class="st0" d="M223.9,141.8l0.7,0.5"/>
<path id="path33137" class="st0" d="M223.9,141.8l3.4,0.4"/>
<path id="path33139" class="st0" d="M224.6,142.3l2.9,0.4"/>
<path id="path33141" class="st0" d="M252,162.4l0.3,0.2"/>
<path id="path33143" class="st0" d="M237.6,119.4l-0.7,1.2l-2.1,3.3"/>
<path id="path33145" class="st0" d="M268.1,143.1l2.1-3.3l0.7-1.2"/>
<path id="path33147" class="st0" d="M268.8,143.6l2.1-3.3l0.7-1.2"/>
<path id="path33149" class="st0" d="M282.5,121.5l0.7-1.2l2.1-3.3"/>
<path id="path33151" class="st0" d="M251.3,97.3l-2.1,3.3l-0.7,1.2"/>
<path id="path33153" class="st0" d="M281.8,121l0.7-1.2l2.1-3.3"/>
<path id="path33155" class="st0" d="M257.1,161l0.7-1.2l2.1-3.3"/>
<path id="path33157" class="st0" d="M226.6,137.2l-2.1,3.3l-0.7,1.2"/>
<path id="path33159" class="st0" d="M257.8,161.4l0.7-1.2l2.1-3.3"/>
<path id="path33161" class="st0" d="M243.4,116.2c0.2,0.1,0.2,0.4,0.1,0.6"/>
<path id="path33163" class="st0" d="M237.7,119.4l0.7,0.5"/>
<path id="path33165" class="st0" d="M246.3,105.5l0.7,0.5"/>
<path id="path33167" class="st0" d="M277,122.6l-0.3-0.2c-0.3-0.2-0.3-1.2,0.2-1.8c0.4-0.7,1.5-1.1,2-0.7"/>
<path id="path33169" class="st0" d="M276.6,122.4l-0.5-0.8l0.3-1.2l1-0.8l1.1,0.1"/>
<path id="path33171" class="st0" d="M268.4,136.5l-0.3-0.2"/>
<path id="path33173" class="st0" d="M251.5,104.1l0.5,0.8l-0.3,1.2l-1,0.8l-1.1-0.1"/>
<path id="path33175" class="st0" d="M242.9,118l0.5,0.8l-0.3,1.2l-1,0.8l-1.1-0.1"/>
<path id="path33177" class="st0" d="M221.6,145.5l0.7,0.5"/>
<path id="path33179" class="st0" d="M227.3,142.2c0.2,0.1,0.2,0.4,0.1,0.6"/>
<path id="path33181" class="st0" d="M252.2,162.6l-0.3-0.2"/>
<path id="path33183" class="st0" d="M226.7,144.1c0.6,0.3,0.7,1.4,0.2,2.1c-0.4,0.7-1.5,1.1-2,0.7"/>
<path id="path33185" class="st0" d="M97.5,282.7l2.7,0.5"/>
<path id="path33187" class="st0" d="M100.2,288.9l-2.7-2.6l1-0.6"/>
<path id="path33189" class="st0" d="M100.5,287.7l-2-2"/>
<path id="path33191" class="st0" d="M97.4,287.9l1.3,0.8v0.8"/>
<path id="path33193" class="st0" d="M98.4,289.2v0.4"/>
<path id="path33195" class="st0" d="M98.7,289.9v0.8"/>
<path id="path33197" class="st0" d="M98.7,291.9v0.8"/>
<path id="path33199" class="st0" d="M101.7,294.7l1-0.6"/>
<path id="path33201" class="st0" d="M101.7,294.7l-0.9-3.6"/>
<path id="path33203" class="st0" d="M102.7,294.2l-0.7-2.7"/>
<path id="path33205" class="st0" d="M101.1,290.9l1,0.6"/>
<path id="path33207" class="st0" d="M112.5,301l1-0.6"/>
<path id="path33209" class="st0" d="M112.5,301l-0.9-3.6"/>
<path id="path33211" class="st0" d="M111.9,297.2l1,0.6"/>
<path id="path33213" class="st0" d="M123.3,307.2l1-0.6"/>
<path id="path33215" class="st0" d="M123.3,307.2l-0.9-3.6"/>
<path id="path33217" class="st0" d="M122.7,303.4l1,0.6"/>
<path id="path33219" class="st0" d="M129,310.6l0.7,0.4"/>
<path id="path33221" class="st0" d="M129.3,310.4v-0.8"/>
<path id="path33223" class="st0" d="M129.3,306.3l1.3,0.8"/>
<path id="path33225" class="st0" d="M130.6,305.4l1-0.6l-2.7-0.5"/>
<path id="path33227" class="st0" d="M127.9,299.2l2.7,2.6l0.1-1.6"/>
<path id="path33229" class="st0" d="M129.3,299.5v-0.8"/>
<path id="path33231" class="st0" d="M129.3,296.2v-0.8"/>
<path id="path33233" class="st0" d="M129.7,293l-9.4-5.4l0.9-0.5"/>
<path id="path33235" class="st0" d="M119.6,286l-11.1-6.4l1-0.6"/>
<path id="path33237" class="st0" d="M120.1,285.1l-10.6-6.1"/>
<path id="path33239" class="st0" d="M108.5,279.6v1.5"/>
<path id="path33241" class="st0" d="M107.8,280.3l-9.4-5.4l0,2.7"/>
<path id="path33243" class="st0" d="M98.7,277.8v0.8"/>
<path id="path33245" class="st0" d="M98.7,279.8v0.8"/>
<path id="path33247" class="st0" d="M98.4,280.4l0,0.4"/>
<path id="path33249" class="st0" d="M98.7,281v0.8"/>
<path id="path33251" class="st0" d="M101,287.3l0.5,0.2"/>
<path id="path33253" class="st0" d="M100.5,287.6v1.2"/>
<path id="path33255" class="st0" d="M127.6,300.5l-0.8-0.1"/>
<path id="path33257" class="st0" d="M127.6,300.5v-1.2"/>
<path id="path33259" class="st0" d="M98.4,279.6v-1.3"/>
<path id="path33261" class="st0" d="M98.4,291.7v-1.3"/>
<path id="path33263" class="st0" d="M126,305.3c0.1-0.6-0.6-1.8-1.2-2l-0.8-0.1"/>
<path id="path33265" class="st0" d="M115.2,299.1c0.1-0.6-0.6-1.8-1.2-2l-0.8-0.1"/>
<path id="path33267" class="st0" d="M102.6,291.2l1.7,1"/>
<path id="path33269" class="st0" d="M104.4,292.8c0.1-0.6-0.6-1.8-1.2-2l-0.8-0.1"/>
<path id="path33271" class="st0" d="M129,310.6l-0.5,0.3"/>
<path id="path33273" class="st0" d="M101.3,287.7l0.3-0.8c0.1-0.6-0.6-1.8-1.2-2"/>
<path id="path33275" class="st0" d="M124.3,303.1l-0.1,0.5"/>
<path id="path33277" class="st0" d="M113.5,296.9l-0.1,0.5"/>
<path id="path33279" class="st0" d="M102.7,290.7l-0.1,0.5"/>
<path id="path35545" class="st1" d="M186.3,129.4l0.5-0.8l0.5-0.8l0.5-0.8l0.5-0.8l0,0l0.1,0l0,0l0,0l0.1,0.1l0.1,0.1l0.1,0.1
	l0.1,0.1l0,0l0,0l0,0l2.3-3.7l0,0l-0.1-0.1l-0.1-0.1l-0.1-0.1l-0.1-0.1l-0.1-0.1l-0.1-0.1l0.7-1.2l2.1-3.3v0v0l1.4-2.2l1.4-2.2
	l1.4-2.2l1.4-2.2l1.4-2.2l1.4-2.2l0,0l0,0l2.1-3.3l0.7-1.2l0,0l0,0l0,0l0.1,0l0.1,0.1l0.1,0.1l0.1,0.1l0.1,0.1l0,0l0,0l0,0l2.3-3.7
	l-0.1-0.1l-0.1-0.1l-0.1-0.1l-0.1-0.1l-0.1-0.1l-0.1-0.1l-0.1-0.1l-0.1-0.1l0.4-0.7l0.4-0.7l0.4-0.7l0.4-0.7l0,0l0,0l0.8-1.2
	l0.8-1.2l0.8-1.3l0.8-1.2h0l0.4-0.7l0.4-0.7l0.4-0.7l0.4-0.7l0,0l0,0l0,0l0.1,0l0.1,0.1l0.1,0.1l0.1,0.1l0.1,0.1l0.1,0l0,0l0.3-0.5
	l1.4-2.3l0.6-0.9l-0.1-0.1l-0.1-0.1l-0.1-0.1l-0.1-0.1l-0.1-0.1l-0.1-0.1l0.7-1.2l2.1-3.3l0,0l0,0l1.4-2.2l1.4-2.2l1.4-2.2l1.4-2.2
	l1.4-2.2l1.4-2.2l1,0.6v0.7l0-0.1l0.1-0.2l0.1-0.2l0.1-0.1l-0.3-0.2l-0.3-0.2l-0.2-0.1l-0.2-0.1l-0.2-0.1l-0.2-0.1l0.4-0.7l0.4-0.7
	l0.4-0.7l0.4-0.7l2.8,1.6l2.8,1.6l2.8,1.6l2.8,1.6l2.8,1.6l2.8,1.6l2.8,1.6l2.8,1.6l2.8,1.6l2.8,1.6l2.8,1.6l2.8,1.6l2.8,1.6
	l2.8,1.6l2.8,1.6l2.8,1.6l2.8,1.6l2.8,1.6l2.8,1.6l2.8,1.6l2.8,1.6l2.8,1.6l2.8,1.6l2.8,1.6l0.2,0.2l0.2,0.2l0.2,0.2l-0.4,0.7
	l-0.4,0.7l-0.4,0.7l-0.4,0.7l-0.3-0.2l-0.3-0.2l-0.3-0.2l-0.3-0.2l0,0.1l0.6,0.4v2.7v2.7v2.7v2.7v2.7v2.7l-0.3,0.2l-0.3,0.2
	l-0.3,0.2l-0.3,0.2v0.2v0.2l0.2,0.1l0.2,0.1v2.2v2.2v2.2v2.2l-7.8,12.6l-2.5,4l-0.9,1.4l-12.4,20l-12.4,20l-6.2,10h0l-6.2,10
	l-12.4,20l-12.4,20l-12.4,20l-12.4,20l-12.4,20l-2.9,4.7v2.1v2.1v2.1v2.1v2.1l-0.9,0.5l-0.9,0.5l-0.9,0.5l-0.9,0.5l-0.2-0.1
	l-0.2-0.1l-0.2,0.1l-0.2,0.1v0.4v0.4v0.4v0.4l-0.7,0.4l-0.7,0.4l-0.7,0.4l-0.7,0.4l-0.3-0.2l-0.3-0.2l-0.3-0.2v-0.6v-0.6v-0.6V325
	l-0.1-0.1l-0.2-0.1v-6.7l-0.7,0.4l-0.2,0.1l0.1,0.3l0,0l0,0v0l-0.1,0.1l-0.1,0.1l-0.1,0.1l-0.1,0l0,0l0.2,0.1v7l-0.1,0.1l-0.1,0.1
	l-0.1,0.1l-0.1,0.1v0.6v0.6v0.6v0.6l-0.7,0.4l-0.7,0.4l-0.7,0.4l-0.7,0.4l-0.2-0.1l-0.2-0.1l-0.2-0.1l-0.2-0.1l-0.2-0.1l-0.1,0.1
	l-0.4,0.2l-0.4,0.2l-0.4,0.2l-0.2-0.1l-0.2-0.1l-0.2-0.1l-0.2-0.1l0,0l0,0l-0.2-0.1l-0.2-0.1l-0.2-0.1l-0.2-0.1l0,0l-0.4,0.2
	l-0.1,0.1h-0.2l-0.2-0.1l-0.2-0.1l-0.2-0.2l-0.1-0.3l-0.1-0.3l0-0.1l-0.1-0.1l-0.1-0.1l-0.1-0.1l-0.2-0.1l-0.2-0.1l-0.2-0.1
	l-0.2-0.1v0l0,0l0,0l0.2-0.6l0.2-0.6l0.2-0.6l0.2-0.6l0-0.1l0-0.1l0-0.1l0-0.1l-0.1-0.1l-0.1-0.1l-0.1-0.1l-0.1,0l-0.5-0.3l-0.5-0.3
	l0-0.3l-0.1-0.3l0-0.1l-0.5-0.3l-0.6-0.3l-0.6-0.3l-0.2,0.1l-0.2,0.1l-0.1-0.1v0l0.2,0.9l0.2,0.9l0.2,0.9l0,0l0,0v0l-0.1,0.1
	l-0.1,0.1l-0.1,0.1l-0.1,0.1l-0.1,0.1l-0.1,0.1l-0.1,0.1l-0.1,0.1l-1.9-1.1l-1.9-1.1l-1.9-1.1l-1.9-1.1v0l0,0l0,0l0.2-0.6l0.2-0.6
	l0.2-0.6l0.2-0.6l0-0.1l0-0.1l0-0.1l0-0.1l-0.1-0.1l-0.1-0.1l-0.1-0.1l-0.1,0l-0.5-0.3l-0.5-0.3l0-0.3l-0.1-0.3l0-0.1l-0.5-0.3
	l-0.6-0.3l-0.6-0.3l-0.2,0.1l-0.2,0.1l-0.1-0.1v0l0.2,0.9l0.2,0.9l0.2,0.9l0,0l0,0v0l-0.1,0.1l-0.1,0.1l-0.1,0.1l-0.1,0.1l-0.1,0.1
	l-0.1,0.1l-0.1,0.1l-0.1,0.1l-1.9-1.1l-1.9-1.1L140,317l-1.9-1.1v0l0,0l0,0l0.2-0.6l0.2-0.6l0.2-0.6l0.2-0.6l0-0.1l0-0.1l0-0.1
	l0-0.1l-0.1-0.1l-0.1-0.1l-0.1-0.1l-0.1,0l-0.5-0.3l-0.5-0.3l0-0.3l-0.1-0.3l0-0.1l-0.5-0.3l-0.6-0.3l-0.1-0.1l-0.1,0.1l-0.7,0.4
	l-0.1,0l0.1,0.4l0.2,0.9l0.2,0.9l0,0l0,0v0l-0.1,0.1l-0.1,0.1l-0.1,0.1l-0.1,0.1l-0.1,0.1l-0.1,0.1l-0.1,0.1l-0.1,0.1l-0.2-0.1
	l-0.2-0.1l-0.2-0.1l-0.2-0.1l0,0l-0.4,0.2l-0.1,0.1h-0.2l-0.2-0.1l-0.2-0.1l-0.2-0.2l-0.1-0.3l-0.1-0.3l0-0.1l-0.1-0.1l-0.1-0.1
	l-0.1-0.1l-0.2-0.1l-0.2-0.1l-0.2-0.1l-0.2-0.1l-0.2-0.1l-0.2-0.1l-0.2-0.1l-0.2-0.1l0,0l0,0l-0.2-0.1l-0.2-0.1l-0.2-0.1l-0.2-0.1
	l-0.2-0.1l-0.2-0.1l-0.2-0.1l-0.2-0.1l0,0l-0.4,0.2l-0.1,0.1h-0.2l-0.2-0.1l-0.2-0.1l-0.2-0.2l-0.1-0.3l-0.1-0.3l0-0.1l-0.1-0.1
	l-0.1-0.1l-0.1-0.1l-0.2-0.1l-0.2-0.1l-0.2-0.1l-0.2-0.1v0l0,0l0,0l0.2-0.6l0.2-0.6l0.2-0.6l0.2-0.6l0-0.1l0-0.1l0-0.1l0-0.1
	l-0.1-0.1l-0.1-0.1l-0.1-0.1l-0.1,0l-0.5-0.3l-0.5-0.3l0-0.3l-0.1-0.3l0-0.1l-0.5-0.3l-0.6-0.3l-0.6-0.3l-0.2,0.1l-0.2,0.1l-0.1-0.1
	v0l0.2,0.9l0.2,0.9l0.2,0.9l0,0l0,0v0l-0.1,0.1l-0.1,0.1L124,307l-0.1,0.1l-0.1,0.1l-0.1,0.1l-0.1,0.1l-0.1,0.1l-1.9-1.1l-1.9-1.1
	l-1.9-1.1l-1.9-1.1v0l0,0l0,0l0.2-0.6l0.2-0.6l0.2-0.6l0.2-0.6l0-0.1l0-0.1l0-0.1l0-0.1l-0.1-0.1l-0.1-0.1l-0.1-0.1l-0.1,0l-0.5-0.3
	l-0.5-0.3l0-0.3l-0.1-0.3l0-0.1l-0.5-0.3l-0.6-0.3l-0.6-0.3l-0.2,0.1l-0.2,0.1l-0.1-0.1v0l0.2,0.9l0.2,0.9l0.2,0.9l0,0l0,0v0
	l-0.1,0.1l-0.1,0.1l-0.1,0.1l-0.1,0.1l-0.1,0.1l-0.1,0.1l-0.1,0.1l-0.1,0.1l-1.9-1.1l-1.9-1.1l-1.9-1.1l-1.9-1.1v0l0,0l0,0l0.2-0.6
	l0.2-0.6l0.2-0.6l0.2-0.6l0-0.1l0-0.1l0-0.1l0-0.1l-0.1-0.1l-0.1-0.1l-0.1-0.1l-0.1,0l-0.5-0.3l-0.5-0.3l0-0.3l-0.1-0.3l0-0.1
	l-0.5-0.3l-0.6-0.3l-0.1-0.1l-0.1,0.1l-0.7,0.4l-0.1,0l0.1,0.4l0.2,0.9l0.2,0.9l0,0l0,0v0l-0.1,0.1l-0.1,0.1l-0.1,0.1l-0.1,0.1
	l-0.1,0.1l-0.1,0.1l-0.1,0.1l-0.1,0.1l-0.2-0.1l-0.2-0.1l-0.2-0.1l-0.2-0.1l0,0l-0.4,0.2l-0.1,0.1h-0.2l-0.2-0.1l-0.2-0.1l-0.2-0.2
	l-0.1-0.3l-0.1-0.3l0-0.1l-0.1-0.1l-0.1-0.1l-0.1-0.1l-0.2-0.1l-0.2-0.1l-0.2-0.1l-0.2-0.1l-0.2-0.1l-0.2-0.1l-0.2-0.1l-0.2-0.1
	v-1.1v-1.1V289v-1.1v-0.4v-0.4v-0.4v-0.4l0.1-0.1l0.1-0.1l0.1-0.1l0.1-0.1l0.1-0.1l0.1-0.1l0.1-0.1l0.1-0.1v-0.5v-1.3v-1l-0.2,0
	l-0.7-0.1l0,0l0,0l0,0v-0.4v-0.4v-0.4V281l0,0v-2v-2v-2v-2l0.8-1.3l0.8-1.3l0.8-1.3l0.8-1.3l0,0l4-6.4l0.7-1.2l0,0l0,0l0,0l0.1,0
	l0.1,0.1l0.1,0.1l0.1,0.1l0.1,0.1l0.1,0l0,0l2.3-3.7l-0.1-0.1l-0.1-0.1l-0.1-0.1l-0.1-0.1l-0.1-0.1l-0.1-0.1l-0.1-0.1l-0.1-0.1
	l0.4-0.7l0.4-0.7l0.4-0.7l0.4-0.7l0,0l0,0l3.1-5l0,0l0.4-0.7l0.4-0.7l0.4-0.7l0.4-0.7l0,0l0.1,0l0,0l0,0l0.1,0.1l0.1,0.1l0.1,0.1
	l0.1,0.1l0.1,0l0,0l2.3-3.7l-0.1-0.1l-0.1-0.1l-0.1-0.1l-0.1-0.1l-0.1-0.1l-0.1-0.1l0.7-1.2l2.1-3.3v0v0l1.4-2.2l1.4-2.2l1.4-2.2
	l1.4-2.2l1.4-2.2l1.4-2.2l0,0l2.1-3.3l4.6-7.5l0,0l0,0l3.1-5l6.7-10.8l1.4-2.2l1.4-2.2l1.4-2.2l1-1.7l0,0l0.3-0.6l1.4-2.2l1.4-2.2
	l6.7-10.8l3.1-5l6.7-10.8l1-1.7l1-1.7l1-1.7l2.1-3.3l1-1.7l1-1.7l1-1.7l6.7-10.8L186.3,129.4z"/>
<path id="path35547" class="st0" d="M260.3,84.4l-0.3-0.2l-0.3-0.2l-0.3-0.2l-0.3-0.2l0,0.1l0.6,0.4l1,0.6v0.7l0-0.1l0.1-0.2
	l0.1-0.2l0.1-0.1l-0.3-0.2L260.3,84.4z"/>
<path id="path35549" class="st0" d="M239.2,161.1l-38.6-22.3l1.7,1.2l-7.4,12l-12.4,20l-12.4,20l-12.4,20l-6.8,11l5.8,3.3l9.9,5.7
	l0,0l0.2,0.1l0.2,0.1l0.2,0.1l0.2,0.1l0.2,0.1l0.2,0.1l0,0l0,0l0.2,0.1l0.2,0.1l0.2,0.1l0.2,0.1l0.2,0.1l0.2,0.1l0,0l9.9,5.7
	l11.1,6.4l0,0l5.8,3.3l0,0l9.5-15.3l0,0l1.4-2.2l1.4-2.2l1.2-2l1.2-1.9h0l0.3-0.6l1.4-2.2l1.4-2.2l0,0l0,0l6.7-10.8l0,0l3.1-5l0,0
	l0,0l6.7-10.8l0,0l1.4-2.2l1.4-2.2l1.2-2l0.2-0.4l1.3-2.1l1.4-2.2l1.4-2.2l0,0l0,0l6.7-10.8l0,0l2.3-3.6L239.2,161.1L239.2,161.1z"
	/>
<path id="path35551" class="st0" d="M164,321.1L164,321.1L164,321.1L164,321.1L164,321.1l-0.8-0.7l-0.7-0.7l-0.7-0.7l0,0v0.2v1.2
	v1.2v1.2l0,0.1l0,0.1l0,0.1l0,0.1l0.1,0.1l0.1,0.1l0.1,0.1l0.1,0l0.7,0.1l0.7,0.1l0.4,0.1v-0.8v-1.3L164,321.1z"/>
<path id="path35553" class="st0" d="M130.7,301.9L130.7,301.9L130.7,301.9L130.7,301.9l-0.8-0.7l-0.7-0.7l-0.7-0.7l0,0v0.2v1.2v1.2
	v1.2l0,0.1l0,0.1l0,0.1l0,0.1l0.1,0.1l0.1,0.1l0.1,0.1l0.1,0l0.7,0.1l0.7,0.1l0.4,0.1v-0.8v-1.3L130.7,301.9z"/>
</svg>
