<svg id="Layer_1" data-name="Layer 1" xmlns="http://www.w3.org/2000/svg" viewBox="0 0 880.5 425.2"><defs><style>.cls-1,.cls-3{fill:none;stroke:#1d1d1b;stroke-miterlimit:10;}.cls-1{stroke-width:0.5px;}.cls-2{font-size:5.3px;fill:#1d1d1b;font-family:Monotxt;}.cls-3{stroke-width:0.25px;}</style></defs><g id="POLYLINE"><path class="cls-1" d="M839,272.81a.94.94,0,0,1-.08.36.9.9,0,0,1-1.18.46l-9.26-4h-5.41l-9.25,4a.94.94,0,0,1-.36.08.9.9,0,0,1-.9-.9v-6.94a3,3,0,1,1,0-6v-6.94a.86.86,0,0,1,.07-.36.9.9,0,0,1,1.19-.47l9.25,4h5.41l9.26-4a.86.86,0,0,1,.36-.07.9.9,0,0,1,.9.9v6.94a3,3,0,0,1,0,6Z"/></g><g id="POLYLINE-2" data-name="POLYLINE"><path class="cls-1" d="M839,298.35a.94.94,0,0,1-.08.36.91.91,0,0,1-1.18.47l-9.26-4h-5.41l-9.25,4a.92.92,0,0,1-.36.07.9.9,0,0,1-.9-.9v-6.94a3,3,0,1,1,0-6v-6.94a.89.89,0,0,1,.07-.36.9.9,0,0,1,1.19-.47l9.25,4h5.41l9.26-4a.86.86,0,0,1,.36-.07.9.9,0,0,1,.9.9v6.94a3,3,0,0,1,0,6Z"/></g><g id="POLYLINE-3" data-name="POLYLINE"><path class="cls-1" d="M839,323.89a.91.91,0,0,1-1.26.83l-9.26-4h-5.41l-9.25,4a.92.92,0,0,1-.36.07.9.9,0,0,1-.9-.9V317a3,3,0,1,1,0-6V304a.89.89,0,0,1,.07-.36.9.9,0,0,1,1.19-.47l9.25,4h5.41l9.26-4a.86.86,0,0,1,.36-.07.9.9,0,0,1,.9.9v6.94a3,3,0,0,1,0,6Z"/></g><g id="POLYLINE-4" data-name="POLYLINE"><path class="cls-1" d="M839,68.48a.91.91,0,0,1-1.26.83l-9.26-4h-5.41l-9.25,4a.92.92,0,0,1-.36.07.9.9,0,0,1-.9-.9V61.54a3,3,0,1,1,0-6V48.59a.9.9,0,0,1,1.26-.83l9.25,4h5.41l9.26-4a.86.86,0,0,1,.36-.07.9.9,0,0,1,.9.9v6.94a3,3,0,0,1,0,6Z"/></g><g id="POLYLINE-5" data-name="POLYLINE"><path class="cls-1" d="M839,94a.86.86,0,0,1-.08.36.89.89,0,0,1-1.18.47l-9.26-4h-5.41l-9.25,4a.92.92,0,0,1-.36.07.9.9,0,0,1-.9-.9V87.08a3,3,0,1,1,0-6V74.13a.9.9,0,0,1,1.26-.83l9.25,4h5.41l9.26-4a1,1,0,0,1,.36-.07.9.9,0,0,1,.9.9v6.94a3,3,0,0,1,0,6Z"/></g><g id="POLYLINE-6" data-name="POLYLINE"><path class="cls-1" d="M839,119.56a.86.86,0,0,1-.08.36.89.89,0,0,1-1.18.47l-9.26-4h-5.41l-9.25,4a.92.92,0,0,1-.36.07.9.9,0,0,1-.9-.9v-6.94a3,3,0,1,1,0-6V99.67a.92.92,0,0,1,.07-.36.91.91,0,0,1,1.19-.46l9.25,4h5.41l9.26-4a.86.86,0,0,1,.36-.08.91.91,0,0,1,.9.9v6.94a3,3,0,0,1,0,6Z"/></g><g id="POLYLINE-7" data-name="POLYLINE"><path class="cls-1" d="M839,145.1a.86.86,0,0,1-.08.36.89.89,0,0,1-1.18.47l-9.26-4h-5.41l-9.25,4a.94.94,0,0,1-.36.08.9.9,0,0,1-.9-.91v-6.94a3,3,0,1,1,0-6v-6.94a.84.84,0,0,1,.07-.35.9.9,0,0,1,1.19-.47l9.25,4h5.41l9.26-4a.86.86,0,0,1,.36-.08.91.91,0,0,1,.9.9v6.94a3,3,0,0,1,0,6Z"/></g><g id="POLYLINE-8" data-name="POLYLINE"><path class="cls-1" d="M839,170.65a.85.85,0,0,1-.08.35.89.89,0,0,1-1.18.47l-9.26-4h-5.41l-9.25,4a.94.94,0,0,1-.36.08.9.9,0,0,1-.9-.9v-6.94a3,3,0,1,1,0-6v-6.94a.86.86,0,0,1,.07-.36.9.9,0,0,1,1.19-.47l9.25,4h5.41l9.26-4a.86.86,0,0,1,.36-.08.91.91,0,0,1,.9.91v6.94a3,3,0,0,1,0,6Z"/></g><g id="POLYLINE-9" data-name="POLYLINE"><path class="cls-1" d="M839,196.19a.94.94,0,0,1-.08.36.9.9,0,0,1-1.18.46l-9.26-4h-5.41l-9.25,4a.94.94,0,0,1-.36.08.9.9,0,0,1-.9-.9v-6.94a3,3,0,1,1,0-6V176.3a.86.86,0,0,1,.07-.36.9.9,0,0,1,1.19-.47l9.25,4h5.41l9.26-4a.86.86,0,0,1,.36-.07.9.9,0,0,1,.9.9v6.94a3,3,0,0,1,0,6Z"/></g><g id="POLYLINE-10" data-name="POLYLINE"><path class="cls-1" d="M839,221.73a.94.94,0,0,1-.08.36.91.91,0,0,1-1.18.47l-9.26-4h-5.41l-9.25,4a1.15,1.15,0,0,1-.36.07.9.9,0,0,1-.9-.9v-6.94a3,3,0,1,1,0-6v-6.94a.86.86,0,0,1,.07-.36.9.9,0,0,1,1.19-.47l9.25,4h5.41l9.26-4a.86.86,0,0,1,.36-.07.9.9,0,0,1,.9.9v6.94a3,3,0,0,1,0,6Z"/></g><g id="POLYLINE-11" data-name="POLYLINE"><path class="cls-1" d="M839,247.27a.94.94,0,0,1-.08.36.9.9,0,0,1-1.18.46l-9.26-4h-5.41l-9.25,4a.94.94,0,0,1-.36.08.9.9,0,0,1-.9-.9v-6.94a3,3,0,1,1,0-6v-6.94a.86.86,0,0,1,.07-.36.9.9,0,0,1,1.19-.47l9.25,4h5.41l9.26-4a.86.86,0,0,1,.36-.08.91.91,0,0,1,.9.91v6.94a3,3,0,0,1,0,6Z"/></g><g id="POLYLINE-12" data-name="POLYLINE"><path class="cls-1" d="M541.09,382.36a1,1,0,0,1-.07.35.9.9,0,0,1-1.19.47l-9.26-4h-5.41l-9.25,4a.94.94,0,0,1-.36.08.9.9,0,0,1-.9-.9v-6.95a3,3,0,1,1,0-6v-6.94a.84.84,0,0,1,.07-.35.9.9,0,0,1,1.19-.47l9.25,4h5.41l9.26-4a.89.89,0,0,1,1.26.82v6.94a3,3,0,0,1,0,6Z"/></g><g id="POLYLINE-13" data-name="POLYLINE"><path class="cls-1" d="M581,382.36a.85.85,0,0,1-.08.35.89.89,0,0,1-1.18.47l-9.26-4h-5.41l-9.25,4a.94.94,0,0,1-.36.08.9.9,0,0,1-.9-.9v-6.95a3,3,0,1,1,0-6v-6.94a.84.84,0,0,1,.07-.35.9.9,0,0,1,1.19-.47l9.25,4h5.41l9.26-4a.86.86,0,0,1,.36-.08.91.91,0,0,1,.9.9v6.94a3,3,0,0,1,0,6Z"/></g><g id="POLYLINE-14" data-name="POLYLINE"><path class="cls-1" d="M620.93,382.36a.85.85,0,0,1-.08.35.89.89,0,0,1-1.18.47l-9.26-4H605l-9.26,4a.86.86,0,0,1-.36.08.91.91,0,0,1-.9-.9v-6.95a3,3,0,0,1,0-6v-6.94a.85.85,0,0,1,.08-.35.89.89,0,0,1,1.18-.47l9.26,4h5.41l9.26-4a.85.85,0,0,1,.35-.08.91.91,0,0,1,.91.9v6.94a3,3,0,0,1,0,6Z"/></g><g id="POLYLINE-15" data-name="POLYLINE"><path class="cls-1" d="M114.4,382.36a.84.84,0,0,1-.07.35.9.9,0,0,1-1.19.47l-9.26-4h-5.4l-9.26,4a.89.89,0,0,1-1.26-.82v-6.95a3,3,0,1,1,0-6v-6.94a.84.84,0,0,1,.07-.35.9.9,0,0,1,1.19-.47l9.26,4h5.4l9.26-4a.89.89,0,0,1,1.26.82v6.94a3,3,0,1,1,0,6Z"/></g><g id="POLYLINE-16" data-name="POLYLINE"><path class="cls-1" d="M154.32,382.36a1,1,0,0,1-.07.35.9.9,0,0,1-1.19.47l-9.26-4h-5.41l-9.25,4a.94.94,0,0,1-.36.08.9.9,0,0,1-.9-.9v-6.95a3,3,0,1,1,0-6v-6.94a.84.84,0,0,1,.07-.35.9.9,0,0,1,1.19-.47l9.25,4h5.41l9.26-4a.86.86,0,0,1,.36-.08.9.9,0,0,1,.9.9v6.94a3,3,0,0,1,0,6Z"/></g><g id="POLYLINE-17" data-name="POLYLINE"><path class="cls-1" d="M194.24,382.36a.85.85,0,0,1-.08.35.89.89,0,0,1-1.18.47l-9.26-4h-5.41l-9.26,4a.85.85,0,0,1-.35.08.91.91,0,0,1-.91-.9v-6.95a3,3,0,0,1,0-6v-6.94a.85.85,0,0,1,.08-.35.89.89,0,0,1,1.18-.47l9.26,4h5.41l9.26-4a.86.86,0,0,1,.36-.08.91.91,0,0,1,.9.9v6.94a3,3,0,0,1,0,6Z"/></g><g id="POLYLINE-18" data-name="POLYLINE"><polygon class="cls-1" points="87.46 346.42 86.56 346.42 86.56 321.4 87.46 321.4 87.46 319.52 83.86 319.52 83.86 289.55 87.46 289.55 87.46 287.67 86.56 287.67 86.56 262.66 87.46 262.66 87.46 260.78 83.86 260.78 83.86 258.15 87.46 258.15 87.46 256.27 86.56 256.27 86.56 231.26 87.46 231.26 87.46 229.38 83.86 229.38 83.86 199.41 87.46 199.41 87.46 197.53 86.56 197.53 86.56 172.51 87.46 172.51 87.46 170.63 83.86 170.63 83.86 168.01 87.46 168.01 87.46 166.13 86.56 166.13 86.56 141.11 87.46 141.11 87.46 139.23 83.86 139.23 83.86 109.26 87.46 109.26 87.46 107.38 86.56 107.38 86.56 82.37 87.46 82.37 87.46 80.49 83.86 80.49 83.86 63.74 84.76 63.74 84.76 61.86 81.15 61.86 81.15 43.91 84.76 43.91 84.76 42.03 83.86 42.03 83.86 31.43 140.87 31.43 140.87 42.03 139.97 42.03 139.97 43.91 143.58 43.91 143.58 50.14 105.19 50.14 105.19 49.24 103.31 49.24 103.31 56.53 105.19 56.53 105.19 55.62 143.58 55.62 143.58 61.86 139.97 61.86 139.97 63.74 140.87 63.74 140.87 80.04 139.97 80.04 139.97 81.92 143.58 81.92 143.58 87.85 139.97 87.85 139.97 89.73 140.87 89.73 140.87 158.77 139.97 158.77 139.97 160.65 143.58 160.65 143.58 166.58 139.97 166.58 139.97 168.46 140.87 168.46 140.87 170.18 139.97 170.18 139.97 172.06 143.58 172.06 143.58 178 139.97 178 139.97 179.87 140.87 179.88 140.87 248.91 139.97 248.91 139.97 250.79 143.58 250.79 143.58 256.73 139.97 256.73 139.97 258.6 140.87 258.6 140.87 260.33 139.97 260.33 139.97 262.21 143.58 262.21 143.58 268.14 139.97 268.14 139.97 270.02 140.87 270.02 140.87 339.06 139.97 339.06 139.97 340.94 143.58 340.94 143.58 346.87 139.97 346.87 139.97 348.75 140.87 348.75 140.87 349.57 120.97 349.57 120.97 345.97 119.09 345.97 119.09 346.87 105.64 346.87 105.64 345.97 103.76 345.97 103.76 349.57 83.86 349.57 83.86 348.3 87.46 348.3 87.46 346.42"/></g><g id="POLYLINE-19" data-name="POLYLINE"><path class="cls-1" d="M503.57,299.63a.72.72,0,1,0-1.43,0v6h-9.69V302h-1.88v.9h-4.43V285.54h.9v-1.88h-7.29v1.88h.91v17.35h-4.44V302h-1.87v3.62H457.14v-30h3.61v-1.87h-.9v-6.37l9.2,4a.93.93,0,0,0,1.31-.86V250.62a.94.94,0,0,0-.94-.94.83.83,0,0,0-.37.08l-9.2,4v-6.36h.9V245.5h-3.61v-60h3.61V183.6h-.9v-6.36l9.2,4a.94.94,0,0,0,1.24-.48,1,1,0,0,0,.07-.38V160.47a.94.94,0,0,0-.94-.94,1,1,0,0,0-.37.08l-9.2,4v-6.37h.9v-1.87h-3.61v-60h3.61V93.46h-.9V87.09l9.2,4a1,1,0,0,0,1.24-.49.94.94,0,0,0,.07-.37V70.33a.94.94,0,0,0-.94-.94,1,1,0,0,0-.37.07l-9.2,4V67.09h.9V65.21h-3.61V36.59h3.61V34.71h-.9V32.53h14.49v6.31h1.88v-.9h4.43V55.29h-.9v1.88H487V55.29h-.9V37.94h4.43v.9h1.88V32.53h9.69v.83h-.9v1.88h3.6V50.19h-3.6v1.87h.9v12.4a15.81,15.81,0,0,0,0,31.62v12.4h-.9v1.88h3.6v30h-3.6v1.88h.9V154.6a15.82,15.82,0,0,0,0,31.63v12.4h-.9v1.87h3.6v30h-3.6v1.87h.9v12.4a15.82,15.82,0,0,0,0,31.63v12.39h-.9v1.88h3.6v15h-1.27Z"/></g><g id="POLYLINE-20" data-name="POLYLINE"><path class="cls-1" d="M76.88,37.75a.72.72,0,1,1-1.43,0v-6H65.76v3.61H63.88v-.9H59.45V51.84h.9v1.88H53.06V51.84H54V34.49H49.53v.9H47.66V31.77H30.45v30h3.61v1.88h-.9V70l9.2-4a1,1,0,0,1,.38-.08.94.94,0,0,1,.93.94V86.76a.9.9,0,0,1-.07.37.94.94,0,0,1-1.24.49l-9.2-4V90h.9v1.88H30.45v60h3.61v1.88h-.9v6.36l9.2-4a1,1,0,0,1,.38-.07.94.94,0,0,1,.93.94v19.89a.94.94,0,0,1-.07.37,1,1,0,0,1-1.24.49l-9.2-4v6.37h.9V182H30.45v60h3.61v1.87h-.9v6.37l9.2-4a1,1,0,0,1,.38-.08.94.94,0,0,1,.93.94v19.89a1,1,0,0,1-.07.38.94.94,0,0,1-1.24.48l-9.2-4v6.36h.9v1.88H30.45v28.62h3.61v1.88h-.9v2.18h14.5v-6.31h1.87v.9H54V282.09h-.91v-1.88h7.29v1.88h-.9v17.35h4.43v-.9h1.88v6.31h9.69V304h-.9v-1.88h3.6V287.19h-3.6v-1.87h.9v-12.4a15.82,15.82,0,0,1,0-31.63V228.9h-.9V227h3.61v-30H74.55v-1.88h.9v-12.4a15.81,15.81,0,0,1,0-31.62v-12.4h-.9v-1.87h3.61v-30H74.55V105h.9V92.63a15.82,15.82,0,0,1,0-31.63V48.61h-.9V46.73h3.61V31.78H76.88Z"/></g><g id="POLYLINE-21" data-name="POLYLINE"><polygon class="cls-1" points="300.89 44.15 301.8 44.15 301.8 113.18 300.89 113.18 300.9 115.06 304.5 115.06 304.5 121 301.83 121 300.89 121 300.89 122.87 301.8 122.87 301.8 124.6 300.89 124.6 300.89 126.48 301.83 126.48 304.5 126.48 304.5 132.42 300.9 132.41 300.89 134.29 301.8 134.29 301.8 203.33 300.89 203.33 300.9 205.21 304.5 205.21 304.5 211.14 301.83 211.14 300.89 211.14 300.89 213.02 301.8 213.02 301.8 214.75 300.89 214.75 300.89 216.63 301.83 216.63 304.5 216.63 304.5 222.56 300.9 222.56 300.89 224.44 301.8 224.44 301.8 293.48 300.89 293.48 300.9 295.35 304.5 295.35 304.5 301.29 301.83 301.29 300.89 301.29 300.89 303.17 301.8 303.17 301.8 303.99 281.89 303.99 281.89 300.39 280.01 300.39 280.01 301.29 266.56 301.29 266.56 300.39 264.69 300.39 264.69 303.99 247.48 303.99 247.48 275.82 248.39 275.82 248.39 273.94 244.78 273.94 244.78 265.76 248.39 265.76 248.39 263.88 247.48 263.88 247.48 262.15 248.39 262.15 248.39 260.27 244.78 260.27 244.78 257.64 248.39 257.64 248.39 255.76 247.48 255.76 247.48 254.04 248.39 254.04 248.39 252.16 244.78 252.16 244.78 243.97 248.39 243.97 248.39 242.09 247.48 242.09 247.48 185.68 248.39 185.68 248.39 183.8 244.78 183.8 244.78 175.61 248.39 175.61 248.39 173.73 247.48 173.73 247.48 172 248.39 172 248.39 170.13 244.78 170.13 244.78 167.5 248.39 167.5 248.39 165.62 247.48 165.62 247.48 163.89 248.39 163.89 248.39 162.01 244.78 162.01 244.78 153.82 248.39 153.82 248.39 151.95 247.48 151.95 247.48 95.53 248.39 95.53 248.39 93.65 244.78 93.65 244.78 85.46 248.39 85.46 248.39 83.59 247.48 83.59 247.48 81.86 248.39 81.86 248.39 79.98 244.78 79.98 244.78 77.35 248.39 77.35 248.39 75.47 247.48 75.47 247.48 73.75 248.39 73.75 248.39 71.87 244.78 71.87 244.78 63.68 248.39 63.68 248.39 61.8 247.48 61.8 247.48 33.63 264.69 33.63 264.69 37.24 266.56 37.24 266.56 36.34 280.01 36.34 280.01 37.24 281.89 37.24 281.89 33.63 301.8 33.63 301.8 34.46 300.89 34.46 300.89 36.34 301.83 36.34 304.5 36.34 304.5 42.27 300.9 42.27 300.89 44.15"/></g><g id="POLYLINE-22" data-name="POLYLINE"><path class="cls-1" d="M613.11,45.13a.9.9,0,0,1,.07.37.94.94,0,0,1-.94.94H592.35a1,1,0,0,1-.37-.08.94.94,0,0,1-.49-1.23l4-9.21h-4.87v.9h-1.88v-3.6h-15v5.93h3.61V41h-.91v5.33h.91v1.88h-3.61V61.39h.9v1.88h-3.6v30h3.6v1.88h-.9v13.14h3.61v1.88h-.91v5.34h.91v1.87h-3.61v12h3.61v1.88h-.91v5.33h.91v1.88h-3.61v13.14h.9v1.88h-3.6v30h3.6v1.88h-.9v13.15h3.61v1.88h-.91v5.33h.91v1.88h-3.61v11.94h3.61v1.88h-.91v7.21h-2.7v13.15h.9v1.88h-3.6v30h3.6v1.88h-.9v13.14h3.61v1.88h-.91v11.35h.91v1.87h-3.61v15.4h.9v1.88h-3.6v18h3.6v1.87h-.9v10.6h57v-10.6h-.9v-1.87h3.6v-6.24H595.11v.9h-1.87v-7.29h1.87v.91H633.5v-6.24h-3.6v-1.88h.9V275.41h-.9v-1.88h3.6v-30h-3.6v-1.88h.9V185.26h-.9v-1.88h3.6v-30h-3.6v-1.88h.9V95.12h-.9V93.24h3.6v-30h-3.6V61.39h.9V33.22H615.85v3.6H614v-.9h-4.85l4,9.21Z"/></g><g id="POLYLINE-23" data-name="POLYLINE"><polygon class="cls-1" points="204.11 224.03 204.11 293.06 203.21 293.06 203.21 294.94 206.81 294.94 206.81 298 206.81 300.88 204.15 300.88 203.2 300.87 203.2 302.75 204.11 302.75 204.11 319.05 203.21 319.05 203.21 320.93 206.81 320.93 206.81 327.17 168.43 327.17 168.43 326.26 166.55 326.26 166.55 333.55 168.43 333.55 168.43 332.65 206.81 332.65 206.81 338.89 203.21 338.89 203.21 340.76 204.11 340.76 204.11 351.36 147.09 351.36 147.09 340.76 147.99 340.76 147.99 338.89 144.39 338.89 144.39 320.93 147.99 320.93 147.99 319.05 147.09 319.05 147.09 302.3 150.7 302.3 150.7 300.42 149.8 300.42 149.8 275.41 150.7 275.41 150.7 273.53 147.09 273.53 147.09 265.34 150.7 265.34 150.7 263.46 149.8 263.46 149.8 261.74 150.7 261.74 150.7 259.86 147.09 259.86 147.09 257.23 150.7 257.23 150.7 255.35 149.8 255.35 149.8 253.62 150.7 253.62 150.7 251.75 147.09 251.75 147.09 243.56 150.7 243.56 150.7 241.68 149.8 241.68 149.8 185.26 150.7 185.26 150.7 183.38 147.09 183.38 147.09 175.2 150.7 175.2 150.7 173.32 149.8 173.32 149.8 171.59 150.7 171.59 150.7 169.71 147.09 169.71 147.09 167.08 150.7 167.08 150.7 165.21 149.8 165.21 149.8 163.48 150.7 163.48 150.7 161.6 147.09 161.6 147.09 153.41 150.7 153.41 150.7 151.53 149.8 151.53 149.8 95.12 150.7 95.12 150.7 93.24 147.09 93.24 147.09 85.05 150.7 85.05 150.7 83.17 149.8 83.17 149.8 81.45 150.7 81.45 150.7 79.57 147.09 79.57 147.09 76.94 150.7 76.94 150.7 75.06 149.8 75.06 149.8 73.33 150.7 73.33 150.7 71.45 147.09 71.45 147.09 63.27 150.7 63.27 150.7 61.39 149.8 61.39 149.8 33.22 167 33.22 167 36.82 168.88 36.82 168.88 35.92 182.32 35.92 182.32 36.82 184.2 36.82 184.2 33.22 204.11 33.22 204.11 34.04 203.2 34.04 203.2 35.92 204.15 35.92 206.81 35.92 206.81 38.8 206.81 41.86 203.21 41.86 203.21 43.73 204.11 43.73 204.11 112.77 203.21 112.77 203.21 114.65 206.81 114.65 206.81 117.71 206.81 120.58 204.15 120.58 203.2 120.58 203.2 122.46 204.11 122.46 204.11 124.19 203.2 124.19 203.2 126.07 204.15 126.07 206.81 126.07 206.81 128.94 206.81 132 203.21 132 203.21 133.88 204.11 133.88 204.11 202.92 203.21 202.92 203.21 204.79 206.81 204.79 206.81 207.85 206.81 210.73 204.15 210.73 203.2 210.73 203.2 212.61 204.11 212.61 204.11 214.34 203.2 214.34 203.2 216.21 204.15 216.21 206.81 216.21 206.81 219.09 206.81 222.15 203.21 222.15 203.21 224.03 204.11 224.03"/></g><g id="POLYLINE-24" data-name="POLYLINE"><path class="cls-1" d="M403.34,289.38a.93.93,0,0,0-.48-1.23.84.84,0,0,0-.38-.08H382.59a.93.93,0,0,0-.86,1.31l4,9.2h-4.87v-.9H379v3.61H364v-5.94h3.6v-1.87h-.9v-5.34h.9v-1.88H364V273.12h.9v-1.88h-3.61v-30h3.61v-1.88H364V226.24h3.6v-1.87h-.9V219h.9v-1.88H364V205.21h3.6v-1.88h-.9V198h.9v-1.88H364V183h.9V181.1h-3.61v-30h3.61v-1.88H364V136.1h3.6v-1.88h-.9v-5.33h.9V127H364v-12h3.6v-1.87h-.9v-5.34h.9V106H364V92.83h.9V91h-3.61V61h3.61V59.1H364V46h3.6V44.07h-.9V38.74h.9V36.86H364V30.93h15v3.6h1.88v-.9h4.87l-4,9.21h0a.93.93,0,0,0,.49,1.23,1,1,0,0,0,.37.08h19.89a.94.94,0,0,0,.94-.94.91.91,0,0,0-.08-.37l-4-9.21h4.86v.9h1.88v-3.6h15V59.1h-.91V61h3.61V91h-3.61v1.88H421v56.41h-.91v1.88h3.61v30h-3.61V183H421v56.42h-.91v1.88h3.61v30h-3.61v1.88H421v28.17h-15v-3.61h-1.88v.9h-4.86l4-9.2Z"/></g><g id="POLYLINE-25" data-name="POLYLINE"><path class="cls-1" d="M549.87,337.66a.94.94,0,0,0-.49-1.23,1,1,0,0,0-.37-.08H529.12a.94.94,0,0,0-.94.94.9.9,0,0,0,.07.37l4,9.21h-4.87V346h-1.88v3.6H510.54v-5.93h3.61v-1.88h-.9v-5.33h.9v-1.88h-3.61V321.4h.9v-1.88h-3.6v-30h3.6v-1.88h-.9V274.53h3.61v-1.88h-.9v-5.33h.9v-1.88h-3.61V253.49h3.61v-1.87h-.9v-5.34h.9V244.4h-3.61V231.26h.9v-1.88h-3.6v-30h3.6v-1.88h-.9V184.38h3.61V182.5h-.9v-5.33h.9v-1.88h-3.61V163.35h3.61v-1.88h-.9v-7.21h-2.71V141.11h.9v-1.88h-3.6v-30h3.6v-1.88h-.9V94.24h3.61V92.36h-.9V81h.9V79.14h-3.61V63.74h.9V61.86h-3.6v-18h3.6V42h-.9V31.44h57V42h-.9V43.9h3.6v6.24H531.88v-.9H530v7.29h1.88v-.91h38.38v6.24h-3.6v1.88h.9v43.64h-.9v1.88h3.6v30h-3.6v1.88h.9v56.42h-.9v1.88h3.6v30h-3.6v1.88h.9v56.41h-.9v1.88h3.6v30h-3.6v1.88h.9v28.17H552.61V346h-1.88v.9h-4.85l4-9.21Z"/></g><g id="POLYLINE-26" data-name="POLYLINE"><path class="cls-1" d="M354.26,185v12.4h-.9v1.88H357v30h-3.61v1.88h.9v12.39h0a15.82,15.82,0,0,0,0,31.63v12.4h-.9v1.87H357v14.95h-1.28v-6h0a.72.72,0,0,0-1.43,0v6h-9.69v-3.6h-1.87v.9h-4.44V284.27h.91v-1.88h-7.29v1.88h.9v17.35h-4.43v-.9h-1.88v3.61h-17.2v-30h3.6v-1.88H312v-6.36l9.21,4h0a.93.93,0,0,0,1.23-.48,1,1,0,0,0,.08-.38V249.34a.94.94,0,0,0-.94-.94.91.91,0,0,0-.37.08l-9.21,4V246.1h.9v-1.87h-3.6v-60h3.6v-1.87H312V176l9.21,4h0a.94.94,0,0,0,1.31-.86V159.2a.94.94,0,0,0-.94-.94.9.9,0,0,0-.37.07l-9.21,4V156h.9v-1.88h-3.6v-60h3.6V92.18H312V85.81l9.21,4h0a.93.93,0,0,0,1.23-.49.91.91,0,0,0,.08-.37V69.05a.94.94,0,0,0-.94-.94.91.91,0,0,0-.37.08l-9.21,4V65.81h.9V63.93h-3.6V34l17.2,0v3.62h1.88v-.9h4.43V54h-.9V55.9h7.29V54h-.91V36.67h4.44v.9h1.87V34h9.69v6h0a.72.72,0,1,0,1.43,0V34H357V48.91h-3.61v1.88h.9V63.18h0a15.82,15.82,0,0,0,0,31.63V107.2h-.9v1.88H357v30h-3.61v1.87h.9v12.4h0a15.81,15.81,0,0,0,0,31.62Z"/></g><g id="POLYLINE-27" data-name="POLYLINE"><polygon class="cls-1" points="34.29 351.77 34.29 369.88 46.98 369.88 46.98 368.98 48.86 368.98 48.86 372.58 55.09 372.58 55.09 334.2 54.19 334.2 54.19 332.32 61.48 332.32 61.48 334.2 60.58 334.2 60.58 372.58 66.81 372.58 66.81 368.98 68.69 368.98 68.69 369.88 76.58 369.88 76.58 356.73 75.68 356.73 75.68 354.86 79.28 354.86 79.28 327.89 75.68 327.89 75.68 326.01 76.58 326.01 76.58 312.86 68.69 312.86 68.69 313.76 66.81 313.76 66.81 310.16 48.86 310.16 48.86 313.76 46.98 313.76 46.98 312.86 34.29 312.86 34.29 330.97 35.19 330.97 35.19 332.84 31.58 332.84 31.58 349.9 35.19 349.9 35.19 351.77 34.29 351.77"/></g><g id="POLYLINE-28" data-name="POLYLINE"><polygon class="cls-1" points="461.48 351.77 461.48 369.88 474.18 369.88 474.18 368.98 476.05 368.98 476.05 372.58 482.29 372.58 482.29 334.2 481.39 334.2 481.39 332.32 488.67 332.32 488.67 334.2 487.77 334.2 487.77 372.58 494.01 372.58 494.01 368.98 495.89 368.98 495.89 369.88 503.77 369.88 503.77 356.73 502.87 356.73 502.87 354.86 506.48 354.86 506.48 327.89 502.87 327.89 502.87 326.01 503.77 326.01 503.77 312.86 495.89 312.86 495.89 313.76 494.01 313.76 494.01 310.16 476.05 310.16 476.05 313.76 474.18 313.76 474.18 312.86 461.48 312.86 461.48 330.97 462.38 330.97 462.38 332.84 458.78 332.84 458.78 349.9 462.38 349.9 462.38 351.77 461.48 351.77"/></g><g id="POLYLINE-29" data-name="POLYLINE"><polygon class="cls-1" points="288.38 335.4 287.48 335.4 287.48 337.27 291.08 337.27 291.08 339.91 287.48 339.91 287.48 341.79 288.38 341.79 288.38 343.52 287.48 343.52 287.48 345.4 291.08 345.4 291.08 352.09 287.48 352.09 287.48 353.97 288.38 353.97 288.38 367.12 280.49 367.12 280.49 366.21 278.61 366.21 278.61 369.82 272.38 369.82 272.38 331.43 273.28 331.43 273.28 329.56 265.99 329.56 265.99 331.43 266.89 331.43 266.89 369.82 260.66 369.82 260.66 366.21 258.78 366.21 258.78 367.12 246.09 367.12 246.09 364.45 246.09 349.01 246.99 349.01 246.99 347.13 243.38 347.13 243.38 330.08 246.99 330.08 246.99 328.2 246.09 328.2 246.09 312.8 258.78 312.8 258.78 313.7 260.66 313.7 260.66 307.39 278.61 307.39 278.61 313.7 280.49 313.7 280.49 312.8 288.38 312.8 288.38 323.25 287.48 323.25 287.48 325.12 291.08 325.12 291.08 331.8 287.48 331.8 287.48 333.68 288.38 333.68 288.38 335.4"/></g><g id="POLYLINE-30" data-name="POLYLINE"><polygon class="cls-1" points="340.49 335.4 339.58 335.4 339.58 337.27 343.19 337.27 343.19 339.91 339.58 339.91 339.58 341.79 340.49 341.79 340.49 343.52 339.58 343.52 339.58 345.4 343.19 345.4 343.19 352.09 339.58 352.09 339.58 353.97 340.49 353.97 340.49 367.12 332.6 367.12 332.6 366.21 330.72 366.21 330.72 369.82 324.48 369.82 324.48 331.43 325.38 331.43 325.38 329.56 318.1 329.56 318.1 331.43 319 331.43 319 369.82 312.76 369.82 312.76 366.21 310.89 366.21 310.89 367.12 298.19 367.12 298.19 364.45 298.19 349.01 299.1 349.01 299.1 347.13 295.49 347.13 295.49 330.08 299.09 330.08 299.09 328.2 298.19 328.2 298.19 312.8 310.89 312.8 310.89 313.7 312.76 313.7 312.76 307.39 330.72 307.39 330.72 313.7 332.6 313.7 332.6 312.8 340.49 312.8 340.49 323.25 339.58 323.25 339.58 325.12 343.19 325.12 343.19 331.8 339.58 331.8 339.58 333.68 340.49 333.68 340.49 335.4"/></g><g id="POLYLINE-31" data-name="POLYLINE"><polygon class="cls-1" points="392.59 335.4 391.69 335.4 391.69 337.27 395.3 337.27 395.3 339.91 391.69 339.91 391.69 341.79 392.59 341.79 392.59 343.52 391.69 343.52 391.69 345.4 395.3 345.4 395.3 352.09 391.69 352.09 391.69 353.97 392.59 353.97 392.59 367.12 384.7 367.12 384.7 366.21 382.82 366.21 382.82 369.82 376.59 369.82 376.59 331.43 377.49 331.43 377.49 329.56 370.2 329.56 370.2 331.43 371.11 331.43 371.11 369.82 364.87 369.82 364.87 366.21 362.99 366.21 362.99 367.12 350.3 367.12 350.3 364.45 350.3 349.01 351.2 349.01 351.2 347.13 347.59 347.13 347.59 330.08 351.2 330.08 351.2 328.2 350.3 328.2 350.3 312.8 362.99 312.8 362.99 313.7 364.87 313.7 364.87 307.39 382.82 307.39 382.82 313.7 384.7 313.7 384.7 312.8 392.59 312.8 392.59 323.25 391.69 323.25 391.69 325.12 395.3 325.12 395.3 331.8 391.69 331.8 391.69 333.68 392.59 333.68 392.59 335.4"/></g><g id="POLYLINE-32" data-name="POLYLINE"><polygon class="cls-1" points="697.94 349.21 697.94 350.11 699.82 350.11 699.82 346.51 702.46 346.51 702.46 350.11 704.34 350.11 704.34 349.21 706.07 349.21 706.07 350.11 707.94 350.11 707.94 346.51 714.64 346.51 714.64 350.11 716.52 350.11 716.52 349.21 729.66 349.21 729.66 357.1 728.76 357.1 728.76 358.98 732.37 358.98 732.37 365.21 693.98 365.21 693.98 364.31 692.1 364.31 692.1 371.6 693.98 371.6 693.98 370.7 732.37 370.7 732.37 376.93 728.76 376.93 728.76 378.81 729.66 378.81 729.66 391.5 727 391.5 711.56 391.5 711.56 390.6 709.68 390.6 709.68 394.21 692.63 394.21 692.63 390.6 690.75 390.6 690.75 391.5 675.35 391.5 675.35 378.81 676.25 378.81 676.25 376.93 669.94 376.93 669.94 358.98 676.25 358.98 676.25 357.1 675.35 357.1 675.35 349.21 685.79 349.21 685.79 350.11 687.67 350.11 687.67 346.51 694.35 346.51 694.35 350.11 696.22 350.11 696.22 349.21 697.94 349.21"/></g><g id="POLYLINE-33" data-name="POLYLINE"><polygon class="cls-1" points="697.94 299.67 697.94 300.57 699.82 300.57 699.82 296.96 702.46 296.96 702.46 300.57 704.34 300.57 704.34 299.67 706.07 299.67 706.07 300.57 707.94 300.57 707.94 296.96 714.64 296.96 714.64 300.57 716.52 300.57 716.52 299.67 729.66 299.67 729.66 307.56 728.76 307.56 728.76 309.44 732.37 309.44 732.37 315.67 693.98 315.67 693.98 314.77 692.1 314.77 692.1 322.06 693.98 322.06 693.98 321.15 732.37 321.15 732.37 327.39 728.76 327.39 728.76 329.27 729.66 329.27 729.66 341.96 727 341.96 711.56 341.96 711.56 341.06 709.68 341.06 709.68 344.67 692.63 344.67 692.63 341.06 690.75 341.06 690.75 341.96 675.35 341.96 675.35 329.27 676.25 329.27 676.25 327.39 669.94 327.39 669.94 309.44 676.25 309.44 676.25 307.56 675.35 307.56 675.35 299.67 685.79 299.67 685.79 300.57 687.67 300.57 687.67 296.96 694.35 296.96 694.35 300.57 696.22 300.57 696.22 299.67 697.94 299.67"/></g><g id="POLYLINE-34" data-name="POLYLINE"><polygon class="cls-1" points="697.94 250.13 697.94 251.03 699.82 251.03 699.82 247.42 702.46 247.42 702.46 251.03 704.34 251.03 704.34 250.13 706.07 250.13 706.07 251.03 707.94 251.03 707.94 247.42 714.64 247.42 714.64 251.03 716.52 251.03 716.52 250.13 729.66 250.13 729.66 258.01 728.76 258.01 728.76 259.89 732.37 259.89 732.37 266.13 693.98 266.13 693.98 265.23 692.1 265.23 692.1 272.51 693.98 272.51 693.98 271.61 732.37 271.61 732.37 277.85 728.76 277.85 728.76 279.72 729.66 279.72 729.66 292.42 727 292.42 711.56 292.42 711.56 291.51 709.68 291.51 709.68 295.12 692.63 295.12 692.63 291.52 690.75 291.52 690.75 292.42 675.35 292.42 675.35 279.72 676.25 279.72 676.25 277.85 669.94 277.85 669.94 259.89 676.25 259.89 676.25 258.01 675.35 258.01 675.35 250.13 685.79 250.13 685.79 251.03 687.67 251.03 687.67 247.42 694.35 247.42 694.35 251.03 696.22 251.03 696.22 250.13 697.94 250.13"/></g><g id="POLYLINE-35" data-name="POLYLINE"><polygon class="cls-1" points="697.94 200.58 697.94 201.49 699.82 201.49 699.82 197.88 702.46 197.88 702.46 201.49 704.34 201.49 704.34 200.58 706.07 200.58 706.07 201.49 707.94 201.49 707.94 197.88 714.64 197.88 714.64 201.49 716.52 201.49 716.52 200.58 729.66 200.58 729.66 208.47 728.76 208.47 728.76 210.35 732.37 210.35 732.37 216.59 693.98 216.59 693.98 215.68 692.1 215.68 692.1 222.97 693.98 222.97 693.98 222.07 732.37 222.07 732.37 228.3 728.76 228.3 728.76 230.18 729.66 230.18 729.66 242.88 727 242.87 711.56 242.87 711.56 241.97 709.68 241.97 709.68 245.58 692.63 245.58 692.63 241.98 690.75 241.98 690.75 242.88 675.35 242.88 675.35 230.18 676.25 230.18 676.25 228.3 669.94 228.3 669.94 210.35 676.25 210.35 676.25 208.47 675.35 208.47 675.35 200.58 685.79 200.58 685.79 201.49 687.67 201.49 687.67 197.88 694.35 197.88 694.35 201.49 696.22 201.49 696.22 200.58 697.94 200.58"/></g><g id="POLYLINE-36" data-name="POLYLINE"><polygon class="cls-1" points="697.94 151.04 697.94 151.94 699.82 151.94 699.82 148.34 702.46 148.34 702.46 151.94 704.34 151.94 704.34 151.04 706.07 151.04 706.07 151.94 707.94 151.94 707.94 148.34 714.64 148.34 714.64 151.94 716.52 151.94 716.52 151.04 729.66 151.04 729.66 158.93 728.76 158.93 728.76 160.81 732.37 160.81 732.37 167.04 693.98 167.04 693.98 166.14 692.1 166.14 692.1 173.43 693.98 173.43 693.98 172.53 732.37 172.53 732.37 178.76 728.76 178.76 728.76 180.64 729.66 180.64 729.66 193.33 727 193.33 711.56 193.33 711.56 192.43 709.68 192.43 709.68 196.04 692.63 196.04 692.63 192.43 690.75 192.43 690.75 193.34 675.35 193.34 675.35 180.64 676.25 180.64 676.25 178.76 669.94 178.76 669.94 160.81 676.25 160.81 676.25 158.93 675.35 158.93 675.35 151.04 685.79 151.04 685.79 151.94 687.67 151.94 687.67 148.34 694.35 148.34 694.35 151.94 696.22 151.94 696.22 151.04 697.94 151.04"/></g><g id="POLYLINE-37" data-name="POLYLINE"><polygon class="cls-1" points="697.94 101.5 697.94 102.4 699.82 102.4 699.82 98.8 702.46 98.8 702.46 102.4 704.34 102.4 704.34 101.5 706.07 101.5 706.07 102.4 707.94 102.4 707.94 98.8 714.64 98.8 714.64 102.4 716.52 102.4 716.52 101.5 729.66 101.5 729.66 109.39 728.76 109.39 728.76 111.27 732.37 111.27 732.37 117.5 693.98 117.5 693.98 116.6 692.1 116.6 692.1 123.89 693.98 123.89 693.98 122.98 732.37 122.98 732.37 129.22 728.76 129.22 728.76 131.1 729.66 131.1 729.66 143.79 727 143.79 711.56 143.79 711.56 142.89 709.68 142.89 709.68 146.5 692.63 146.5 692.63 142.89 690.75 142.89 690.75 143.79 675.35 143.79 675.35 131.1 676.25 131.1 676.25 129.22 669.94 129.22 669.94 111.27 676.25 111.27 676.25 109.39 675.35 109.39 675.35 101.5 685.79 101.5 685.79 102.4 687.67 102.4 687.67 98.8 694.35 98.8 694.35 102.4 696.22 102.4 696.22 101.5 697.94 101.5"/></g><g id="POLYLINE-38" data-name="POLYLINE"><polygon class="cls-1" points="697.94 51.96 697.94 52.86 699.82 52.86 699.82 49.25 702.46 49.25 702.46 52.86 704.34 52.86 704.34 51.96 706.07 51.96 706.07 52.86 707.94 52.86 707.94 49.25 714.64 49.25 714.64 52.86 716.52 52.86 716.52 51.96 729.66 51.96 729.66 59.84 728.76 59.84 728.76 61.72 732.37 61.72 732.37 67.96 693.98 67.96 693.98 67.06 692.1 67.06 692.1 74.34 693.98 74.34 693.98 73.44 732.37 73.44 732.37 79.68 728.76 79.68 728.76 81.56 729.66 81.56 729.66 94.25 727 94.25 711.56 94.25 711.56 93.34 709.68 93.34 709.68 96.95 692.63 96.95 692.63 93.35 690.75 93.35 690.75 94.25 675.35 94.25 675.35 81.56 676.25 81.56 676.25 79.68 669.94 79.68 669.94 61.72 676.25 61.72 676.25 59.84 675.35 59.84 675.35 51.96 685.79 51.96 685.79 52.86 687.67 52.86 687.67 49.25 694.35 49.25 694.35 52.86 696.22 52.86 696.22 51.96 697.94 51.96"/></g><g id="POLYLINE-39" data-name="POLYLINE"><polygon class="cls-1" points="764.34 50.38 764.34 51.28 766.22 51.28 766.22 47.67 768.86 47.67 768.86 51.28 770.73 51.28 770.73 50.38 772.46 50.38 772.46 51.28 774.34 51.28 774.34 47.67 781.03 47.67 781.03 51.28 782.91 51.28 782.91 50.38 796.06 50.38 796.06 58.27 795.16 58.27 795.16 60.15 798.76 60.15 798.76 66.38 760.38 66.38 760.38 65.48 758.5 65.48 758.5 72.77 760.38 72.77 760.38 71.86 798.76 71.86 798.76 78.1 795.16 78.1 795.16 79.98 796.06 79.98 796.06 92.67 793.39 92.67 777.95 92.67 777.95 91.77 776.08 91.77 776.08 95.38 759.02 95.38 759.02 91.77 757.14 91.77 757.14 92.67 741.75 92.67 741.75 79.98 742.65 79.98 742.65 78.1 736.34 78.1 736.34 60.15 742.65 60.15 742.65 58.27 741.75 58.27 741.75 50.38 752.19 50.38 752.19 51.28 754.07 51.28 754.07 47.67 760.74 47.67 760.74 51.28 762.62 51.28 762.62 50.38 764.34 50.38"/></g><g id="POLYLINE-40" data-name="POLYLINE"><polygon class="cls-1" points="764.34 99.92 764.34 100.82 766.22 100.82 766.22 97.22 768.86 97.22 768.86 100.82 770.73 100.82 770.73 99.92 772.46 99.92 772.46 100.82 774.34 100.82 774.34 97.22 781.03 97.22 781.03 100.82 782.91 100.82 782.91 99.92 796.06 99.92 796.06 107.81 795.16 107.81 795.16 109.69 798.76 109.69 798.76 115.92 760.38 115.92 760.38 115.02 758.5 115.02 758.5 122.31 760.38 122.31 760.38 121.41 798.76 121.41 798.76 127.64 795.16 127.64 795.16 129.52 796.06 129.52 796.06 142.21 793.39 142.21 777.95 142.21 777.95 141.31 776.08 141.31 776.08 144.92 759.02 144.92 759.02 141.31 757.14 141.31 757.14 142.22 741.75 142.22 741.75 129.52 742.65 129.52 742.65 127.64 736.34 127.64 736.34 109.69 742.65 109.69 742.65 107.81 741.75 107.81 741.75 99.92 752.19 99.92 752.19 100.82 754.07 100.82 754.07 97.22 760.74 97.22 760.74 100.82 762.62 100.82 762.62 99.92 764.34 99.92"/></g><g id="POLYLINE-41" data-name="POLYLINE"><polygon class="cls-1" points="764.34 149.46 764.34 150.37 766.22 150.37 766.22 146.76 768.86 146.76 768.86 150.37 770.73 150.37 770.73 149.46 772.46 149.46 772.46 150.37 774.34 150.37 774.34 146.76 781.03 146.76 781.03 150.37 782.91 150.37 782.91 149.46 796.06 149.46 796.06 157.35 795.16 157.35 795.16 159.23 798.76 159.23 798.76 165.47 760.38 165.47 760.38 164.56 758.5 164.56 758.5 171.85 760.38 171.85 760.38 170.95 798.76 170.95 798.76 177.18 795.16 177.18 795.16 179.06 796.06 179.06 796.06 191.75 793.39 191.75 777.95 191.75 777.95 190.85 776.08 190.85 776.08 194.46 759.02 194.46 759.02 190.86 757.14 190.86 757.14 191.76 741.75 191.76 741.75 179.06 742.65 179.06 742.65 177.18 736.34 177.18 736.34 159.23 742.65 159.23 742.65 157.35 741.75 157.35 741.75 149.46 752.19 149.46 752.19 150.37 754.07 150.37 754.07 146.76 760.74 146.76 760.74 150.37 762.62 150.37 762.62 149.46 764.34 149.46"/></g><g id="POLYLINE-42" data-name="POLYLINE"><polygon class="cls-1" points="764.34 199.01 764.34 199.91 766.22 199.91 766.22 196.3 768.86 196.3 768.86 199.91 770.73 199.91 770.73 199.01 772.46 199.01 772.46 199.91 774.34 199.91 774.34 196.3 781.03 196.3 781.03 199.91 782.91 199.91 782.91 199.01 796.06 199.01 796.06 206.89 795.16 206.89 795.16 208.77 798.76 208.77 798.76 215.01 760.38 215.01 760.38 214.11 758.5 214.11 758.5 221.39 760.38 221.39 760.38 220.49 798.76 220.49 798.76 226.73 795.16 226.73 795.16 228.6 796.06 228.6 796.06 241.3 793.39 241.3 777.95 241.3 777.95 240.39 776.08 240.39 776.08 244 759.02 244 759.02 240.4 757.14 240.4 757.14 241.3 741.75 241.3 741.75 228.6 742.65 228.6 742.65 226.73 736.34 226.73 736.34 208.77 742.65 208.77 742.65 206.89 741.75 206.89 741.75 199.01 752.19 199.01 752.19 199.91 754.07 199.91 754.07 196.3 760.74 196.3 760.74 199.91 762.62 199.91 762.62 199.01 764.34 199.01"/></g><g id="POLYLINE-43" data-name="POLYLINE"><polygon class="cls-1" points="764.34 248.55 764.34 249.45 766.22 249.45 766.22 245.84 768.86 245.84 768.86 249.45 770.73 249.45 770.73 248.55 772.46 248.55 772.46 249.45 774.34 249.45 774.34 245.84 781.03 245.84 781.03 249.45 782.91 249.45 782.91 248.55 796.06 248.55 796.06 256.44 795.16 256.44 795.16 258.31 798.76 258.31 798.76 264.55 760.38 264.55 760.38 263.65 758.5 263.65 758.5 270.94 760.38 270.94 760.38 270.03 798.76 270.03 798.76 276.27 795.16 276.27 795.16 278.15 796.06 278.15 796.06 290.84 793.39 290.84 777.95 290.84 777.95 289.94 776.08 289.94 776.08 293.55 759.02 293.55 759.02 289.94 757.14 289.94 757.14 290.84 741.75 290.84 741.75 278.15 742.65 278.15 742.65 276.27 736.34 276.27 736.34 258.31 742.65 258.31 742.65 256.44 741.75 256.44 741.75 248.55 752.19 248.55 752.19 249.45 754.07 249.45 754.07 245.84 760.74 245.84 760.74 249.45 762.62 249.45 762.62 248.55 764.34 248.55"/></g><g id="POLYLINE-44" data-name="POLYLINE"><polygon class="cls-1" points="764.34 298.09 764.34 298.99 766.22 298.99 766.22 295.39 768.86 295.39 768.86 298.99 770.73 298.99 770.73 298.09 772.46 298.09 772.46 298.99 774.34 298.99 774.34 295.39 781.03 295.39 781.03 298.99 782.91 298.99 782.91 298.09 796.06 298.09 796.06 305.98 795.16 305.98 795.16 307.86 798.76 307.86 798.76 314.09 760.38 314.09 760.38 313.19 758.5 313.19 758.5 320.48 760.38 320.48 760.38 319.58 798.76 319.58 798.76 325.81 795.16 325.81 795.16 327.69 796.06 327.69 796.06 340.38 793.39 340.38 777.95 340.38 777.95 339.48 776.08 339.48 776.08 343.09 759.02 343.09 759.02 339.48 757.14 339.48 757.14 340.38 741.75 340.38 741.75 327.69 742.65 327.69 742.65 325.81 736.34 325.81 736.34 307.86 742.65 307.86 742.65 305.98 741.75 305.98 741.75 298.09 752.19 298.09 752.19 298.99 754.07 298.99 754.07 295.39 760.74 295.39 760.74 298.99 762.62 298.99 762.62 298.09 764.34 298.09"/></g><g id="POLYLINE-45" data-name="POLYLINE"><polygon class="cls-1" points="764.34 347.63 764.34 348.54 766.22 348.54 766.22 344.93 768.86 344.93 768.86 348.54 770.73 348.54 770.73 347.63 772.46 347.63 772.46 348.54 774.34 348.54 774.34 344.93 781.03 344.93 781.03 348.54 782.91 348.54 782.91 347.63 796.06 347.63 796.06 355.52 795.16 355.52 795.16 357.4 798.76 357.4 798.76 363.63 760.38 363.63 760.38 362.73 758.5 362.73 758.5 370.02 760.38 370.02 760.38 369.12 798.76 369.12 798.76 375.35 795.16 375.35 795.16 377.23 796.06 377.23 796.06 389.93 793.39 389.92 777.95 389.92 777.95 389.02 776.08 389.02 776.08 392.63 759.02 392.63 759.02 389.03 757.14 389.03 757.14 389.93 741.75 389.93 741.75 377.23 742.65 377.23 742.65 375.35 736.34 375.35 736.34 357.4 742.65 357.4 742.65 355.52 741.75 355.52 741.75 347.63 752.19 347.63 752.19 348.54 754.07 348.54 754.07 344.93 760.74 344.93 760.74 348.54 762.62 348.54 762.62 347.63 764.34 347.63"/></g><g id="POLYLINE-46" data-name="POLYLINE"><polygon class="cls-1" points="846.61 358.09 845.71 358.09 845.71 359.96 849.31 359.96 849.31 362.6 845.71 362.6 845.71 364.48 846.61 364.48 846.61 366.21 845.71 366.21 845.71 368.09 849.31 368.09 849.31 374.78 845.71 374.78 845.71 376.66 846.61 376.66 846.61 389.81 838.72 389.81 838.72 388.9 836.84 388.9 836.84 392.51 830.61 392.51 830.61 354.12 831.51 354.12 831.51 352.25 824.22 352.25 824.22 354.12 825.13 354.12 825.13 392.51 818.89 392.51 818.89 388.9 817.01 388.9 817.01 389.81 804.32 389.81 804.32 387.14 804.32 371.7 805.22 371.7 805.22 369.82 801.61 369.82 801.61 352.77 805.22 352.77 805.22 350.89 804.32 350.89 804.32 335.49 817.01 335.49 817.01 336.39 818.89 336.39 818.89 330.08 836.84 330.08 836.84 336.39 838.72 336.39 838.72 335.49 846.61 335.49 846.61 345.93 845.71 345.93 845.71 347.81 849.31 347.81 849.31 354.49 845.71 354.49 845.71 356.37 846.61 356.37 846.61 358.09"/></g><g id="POLYLINE-47" data-name="POLYLINE"><polygon class="cls-1" points="827.07 261.46 824.5 261.47 824.5 260.61 823.08 260.61 823.08 265.12 824.5 265.12 824.5 264.25 827.07 264.24 827.07 265.11 828.49 265.11 828.49 260.6 827.07 260.6 827.07 261.46"/></g><g id="POLYLINE-48" data-name="POLYLINE"><polygon class="cls-1" points="827.07 287 824.5 287.01 824.5 286.15 823.08 286.15 823.08 290.66 824.5 290.66 824.5 289.79 827.07 289.78 827.07 290.65 828.49 290.65 828.49 286.14 827.07 286.14 827.07 287"/></g><g id="POLYLINE-49" data-name="POLYLINE"><polygon class="cls-1" points="827.07 312.55 824.5 312.56 824.5 311.69 823.08 311.69 823.08 316.2 824.5 316.2 824.5 315.33 827.07 315.32 827.07 316.19 828.49 316.19 828.49 311.68 827.07 311.68 827.07 312.55"/></g><g id="POLYLINE-50" data-name="POLYLINE"><polygon class="cls-1" points="827.07 57.13 824.5 57.15 824.5 56.28 823.08 56.28 823.08 60.79 824.5 60.79 824.5 59.92 827.07 59.91 827.07 60.78 828.49 60.78 828.49 56.27 827.07 56.27 827.07 57.13"/></g><g id="POLYLINE-51" data-name="POLYLINE"><polygon class="cls-1" points="827.07 82.68 824.5 82.69 824.5 81.82 823.08 81.82 823.08 86.33 824.5 86.33 824.5 85.47 827.07 85.46 827.07 86.32 828.49 86.32 828.49 81.81 827.07 81.81 827.07 82.68"/></g><g id="POLYLINE-52" data-name="POLYLINE"><polygon class="cls-1" points="827.07 108.22 824.5 108.23 824.5 107.36 823.08 107.36 823.08 111.87 824.5 111.87 824.5 111.01 827.07 111 827.07 111.86 828.49 111.86 828.49 107.35 827.07 107.35 827.07 108.22"/></g><g id="POLYLINE-53" data-name="POLYLINE"><polygon class="cls-1" points="827.07 133.76 824.5 133.77 824.5 132.9 823.08 132.9 823.08 137.41 824.5 137.41 824.5 136.55 827.07 136.54 827.07 137.41 828.49 137.41 828.49 132.89 827.07 132.89 827.07 133.76"/></g><g id="POLYLINE-54" data-name="POLYLINE"><polygon class="cls-1" points="827.07 159.3 824.5 159.31 824.5 158.44 823.08 158.44 823.08 162.96 824.5 162.96 824.5 162.09 827.07 162.08 827.07 162.95 828.49 162.95 828.49 158.43 827.07 158.43 827.07 159.3"/></g><g id="POLYLINE-55" data-name="POLYLINE"><polygon class="cls-1" points="827.07 184.84 824.5 184.85 824.5 183.99 823.08 183.99 823.08 188.5 824.5 188.5 824.5 187.63 827.07 187.62 827.07 188.49 828.49 188.49 828.49 183.97 827.07 183.97 827.07 184.84"/></g><g id="POLYLINE-56" data-name="POLYLINE"><polygon class="cls-1" points="827.07 210.38 824.5 210.39 824.5 209.53 823.08 209.53 823.08 214.04 824.5 214.04 824.5 213.17 827.07 213.16 827.07 214.03 828.49 214.03 828.49 209.52 827.07 209.52 827.07 210.38"/></g><g id="POLYLINE-57" data-name="POLYLINE"><polygon class="cls-1" points="827.07 235.92 824.5 235.93 824.5 235.06 823.08 235.06 823.08 239.58 824.5 239.58 824.5 238.71 827.07 238.7 827.07 239.57 828.49 239.57 828.49 235.06 827.07 235.06 827.07 235.92"/></g><g id="POLYLINE-58" data-name="POLYLINE"><polygon class="cls-1" points="529.15 371.01 526.59 371.02 526.59 370.15 525.16 370.15 525.16 374.67 526.59 374.67 526.59 373.8 529.15 373.79 529.15 374.65 530.57 374.65 530.57 370.14 529.15 370.14 529.15 371.01"/></g><g id="POLYLINE-59" data-name="POLYLINE"><polygon class="cls-1" points="569.07 371.01 566.5 371.02 566.5 370.15 565.08 370.15 565.08 374.67 566.5 374.67 566.5 373.8 569.07 373.79 569.07 374.65 570.49 374.65 570.49 370.14 569.07 370.14 569.07 371.01"/></g><g id="POLYLINE-60" data-name="POLYLINE"><polygon class="cls-1" points="608.99 371.01 606.42 371.02 606.42 370.15 605 370.15 605 374.67 606.42 374.67 606.42 373.8 608.99 373.79 608.99 374.65 610.41 374.65 610.41 370.14 608.99 370.14 608.99 371.01"/></g><g id="POLYLINE-61" data-name="POLYLINE"><polygon class="cls-1" points="102.46 371.01 99.9 371.02 99.9 370.15 98.48 370.15 98.48 374.67 99.9 374.67 99.9 373.8 102.46 373.79 102.46 374.65 103.89 374.65 103.89 370.14 102.46 370.14 102.46 371.01"/></g><g id="POLYLINE-62" data-name="POLYLINE"><polygon class="cls-1" points="142.38 371.01 139.82 371.02 139.82 370.15 138.39 370.15 138.39 374.67 139.82 374.67 139.82 373.8 142.38 373.79 142.38 374.65 143.8 374.65 143.8 370.14 142.38 370.14 142.38 371.01"/></g><g id="POLYLINE-63" data-name="POLYLINE"><polygon class="cls-1" points="182.3 371.01 179.73 371.02 179.73 370.15 178.31 370.15 178.31 374.67 179.73 374.67 179.73 373.8 182.3 373.79 182.3 374.65 183.72 374.65 183.72 370.14 182.3 370.14 182.3 371.01"/></g><g id="POLYLINE-64" data-name="POLYLINE"><polygon class="cls-1" points="60.35 101.79 59.45 101.79 59.45 119.15 63.88 119.15 63.88 118.25 65.76 118.25 65.76 125.53 63.88 125.53 63.88 124.63 59.45 124.63 59.45 141.98 60.35 141.98 60.35 143.86 53.06 143.86 53.06 141.98 53.97 141.98 53.97 124.63 49.53 124.63 49.53 125.53 47.66 125.53 47.66 118.25 49.53 118.25 49.53 119.15 53.97 119.15 53.97 101.79 53.06 101.79 53.06 99.92 60.35 99.92 60.35 101.79"/></g><g id="POLYLINE-65" data-name="POLYLINE"><polygon class="cls-1" points="60.35 191.94 59.45 191.94 59.45 209.29 63.88 209.29 63.88 208.39 65.76 208.39 65.76 215.68 63.88 215.68 63.88 214.78 59.45 214.78 59.45 232.13 60.35 232.13 60.35 234.01 53.06 234.01 53.06 232.13 53.97 232.13 53.97 214.78 49.53 214.78 49.53 215.68 47.66 215.68 47.66 208.39 49.53 208.39 49.53 209.29 53.97 209.29 53.97 191.94 53.06 191.94 53.06 190.06 60.35 190.06 60.35 191.94"/></g><g id="POLYLINE-66" data-name="POLYLINE"><path class="cls-1" d="M75.45,127.9v-12a.72.72,0,0,1,1.43,0v12a.72.72,0,0,1-1.43,0Z"/></g><g id="POLYLINE-67" data-name="POLYLINE"><path class="cls-1" d="M75.45,218V206a.72.72,0,0,1,1.43,0v12a.72.72,0,1,1-1.43,0Z"/></g><g id="POLYLINE-68" data-name="POLYLINE"><polygon class="cls-1" points="280.01 211.14 266.56 211.14 266.56 210.24 264.69 210.24 264.69 217.53 266.56 217.53 266.56 216.63 280.01 216.63 280.01 217.53 281.89 217.53 281.89 210.24 280.01 210.24 280.01 211.14"/></g><g id="POLYLINE-69" data-name="POLYLINE"><polygon class="cls-1" points="280.01 121 266.56 121 266.56 120.09 264.69 120.09 264.69 127.38 266.56 127.38 266.56 126.48 280.01 126.48 280.01 127.38 281.89 127.38 281.89 120.09 280.01 120.09 280.01 121"/></g><g id="POLYLINE-70" data-name="POLYLINE"><polygon class="cls-1" points="590.61 126.07 590.61 126.97 588.73 126.97 588.73 119.68 590.61 119.68 590.61 120.58 613.97 120.58 613.97 119.68 615.85 119.68 615.85 126.97 613.97 126.97 613.97 126.07 590.61 126.07"/></g><g id="POLYLINE-71" data-name="POLYLINE"><polygon class="cls-1" points="615.85 299.97 615.85 307.26 613.97 307.26 613.97 306.36 590.61 306.36 590.61 307.26 588.73 307.26 588.73 299.97 590.61 299.97 590.61 300.88 613.97 300.88 613.97 299.97 615.85 299.97"/></g><g id="POLYLINE-72" data-name="POLYLINE"><polygon class="cls-1" points="590.61 216.21 590.61 217.11 588.73 217.11 588.73 209.83 590.61 209.83 590.61 210.73 613.97 210.73 613.97 209.83 615.85 209.83 615.85 217.11 613.97 217.11 613.97 216.21 590.61 216.21"/></g><g id="POLYLINE-73" data-name="POLYLINE"><path class="cls-1" d="M588.77,350.08a.72.72,0,1,1,0-1.43h27a.72.72,0,0,1,0,1.43Z"/></g><g id="POLYLINE-74" data-name="POLYLINE"><polygon class="cls-1" points="168.88 210.73 168.88 209.83 167 209.83 167 217.11 168.88 217.11 168.88 216.21 182.32 216.21 182.32 217.11 184.2 217.11 184.2 209.83 182.32 209.83 182.32 210.73 168.88 210.73"/></g><g id="POLYLINE-75" data-name="POLYLINE"><polygon class="cls-1" points="168.88 120.58 168.88 119.68 167 119.68 167 126.97 168.88 126.97 168.88 126.07 182.32 126.07 182.32 126.97 184.2 126.97 184.2 119.68 182.32 119.68 182.32 120.58 168.88 120.58"/></g><g id="POLYLINE-76" data-name="POLYLINE"><polygon class="cls-1" points="182.32 299.97 182.32 300.88 168.88 300.88 168.88 299.97 167 299.97 167 307.26 168.88 307.26 168.88 306.36 182.32 306.36 182.32 307.26 184.2 307.26 184.2 299.97 182.32 299.97"/></g><g id="POLYLINE-77" data-name="POLYLINE"><path class="cls-1" d="M167,350.08h17.12a.72.72,0,1,0,0-1.43H167a.72.72,0,1,0,0,1.43Z"/></g><g id="POLYLINE-78" data-name="POLYLINE"><polygon class="cls-1" points="119.09 262.21 105.64 262.21 105.64 263.11 103.76 263.11 103.76 255.82 105.64 255.82 105.64 256.72 119.09 256.72 119.09 255.82 120.97 255.82 120.97 263.11 119.09 263.11 119.09 262.21"/></g><g id="POLYLINE-79" data-name="POLYLINE"><polygon class="cls-1" points="119.09 172.06 105.64 172.06 105.64 172.96 103.76 172.96 103.76 165.68 105.64 165.68 105.64 166.58 119.09 166.58 119.09 165.68 120.97 165.68 120.97 172.96 119.09 172.96 119.09 172.06"/></g><g id="POLYLINE-80" data-name="POLYLINE"><polygon class="cls-1" points="119.09 81.92 105.64 81.92 105.64 82.82 103.76 82.82 103.76 75.53 105.64 75.53 105.64 76.43 119.09 76.43 119.09 75.53 120.97 75.53 120.97 82.82 119.09 82.82 119.09 81.92"/></g><g id="POLYLINE-81" data-name="POLYLINE"><path class="cls-1" d="M103.8,32.71h17.13a.72.72,0,0,1,0,1.43H103.8a.72.72,0,0,1,0-1.43Z"/></g><g id="POLYLINE-82" data-name="POLYLINE"><polygon class="cls-1" points="404.21 118.29 380.85 118.29 380.85 117.39 378.97 117.39 378.97 124.68 380.85 124.68 380.85 123.78 404.21 123.78 404.21 124.68 406.09 124.68 406.09 117.39 404.21 117.39 404.21 118.29"/></g><g id="POLYLINE-83" data-name="POLYLINE"><polygon class="cls-1" points="404.21 214.82 406.09 214.82 406.09 207.54 404.21 207.54 404.21 208.44 380.85 208.44 380.85 207.54 378.97 207.54 378.97 214.82 380.85 214.82 380.85 213.92 404.21 213.92 404.21 214.82"/></g><g id="POLYLINE-84" data-name="POLYLINE"><polygon class="cls-1" points="527.37 256.72 527.37 255.82 525.49 255.82 525.49 263.11 527.37 263.11 527.37 262.21 550.73 262.21 550.73 263.11 552.61 263.11 552.61 255.82 550.73 255.82 550.73 256.72 527.37 256.72"/></g><g id="POLYLINE-85" data-name="POLYLINE"><polygon class="cls-1" points="552.61 82.82 552.61 75.53 550.73 75.53 550.73 76.43 527.37 76.43 527.37 75.53 525.49 75.53 525.49 82.82 527.37 82.82 527.37 81.92 550.73 81.92 550.73 82.82 552.61 82.82"/></g><g id="POLYLINE-86" data-name="POLYLINE"><polygon class="cls-1" points="527.37 166.58 527.37 165.68 525.49 165.68 525.49 172.96 527.37 172.96 527.37 172.06 550.73 172.06 550.73 172.96 552.61 172.96 552.61 165.68 550.73 165.68 550.73 166.58 527.37 166.58"/></g><g id="POLYLINE-87" data-name="POLYLINE"><path class="cls-1" d="M525.53,32.71a.72.72,0,0,0,0,1.43h27a.72.72,0,1,0,0-1.43Z"/></g><g id="POLYLINE-88" data-name="POLYLINE"><polygon class="cls-1" points="331.87 194.12 332.77 194.12 332.77 211.47 328.34 211.47 328.34 210.57 326.46 210.57 326.46 217.86 328.34 217.86 328.34 216.96 332.77 216.96 332.77 234.31 331.87 234.31 331.87 236.19 339.15 236.19 339.15 234.31 338.25 234.31 338.25 216.96 342.69 216.96 342.69 217.86 344.56 217.86 344.56 210.57 342.69 210.57 342.69 211.47 338.25 211.47 338.25 194.12 339.15 194.12 339.15 192.24 331.87 192.24 331.87 194.12"/></g><g id="POLYLINE-89" data-name="POLYLINE"><polygon class="cls-1" points="331.87 103.97 332.77 103.97 332.77 121.33 328.34 121.33 328.34 120.43 326.46 120.43 326.46 127.71 328.34 127.71 328.34 126.81 332.77 126.81 332.77 144.16 331.87 144.16 331.87 146.04 339.15 146.04 339.15 144.16 338.25 144.16 338.25 126.81 342.69 126.81 342.69 127.71 344.56 127.71 344.56 120.43 342.69 120.43 342.69 121.33 338.25 121.33 338.25 103.97 339.15 103.97 339.15 102.1 331.87 102.1 331.87 103.97"/></g><g id="POLYLINE-90" data-name="POLYLINE"><path class="cls-1" d="M355.68,220.22v-12a.72.72,0,0,0-1.43,0v12a.72.72,0,1,0,1.43,0Z"/></g><g id="POLYLINE-91" data-name="POLYLINE"><path class="cls-1" d="M355.68,130.08v-12a.72.72,0,0,0-1.43,0v12a.72.72,0,0,0,1.43,0Z"/></g><g id="POLYLINE-92" data-name="POLYLINE"><polygon class="cls-1" points="487.04 235.59 486.14 235.59 486.14 218.23 490.57 218.23 490.57 219.13 492.45 219.13 492.45 211.85 490.57 211.85 490.57 212.75 486.14 212.75 486.14 195.4 487.04 195.4 487.04 193.52 479.75 193.52 479.75 195.4 480.65 195.4 480.65 212.75 476.22 212.75 476.22 211.85 474.35 211.85 474.35 219.13 476.22 219.13 476.22 218.23 480.65 218.23 480.65 235.59 479.75 235.59 479.75 237.46 487.04 237.46 487.04 235.59"/></g><g id="POLYLINE-93" data-name="POLYLINE"><polygon class="cls-1" points="487.04 145.44 486.14 145.44 486.14 128.09 490.57 128.09 490.57 128.99 492.45 128.99 492.45 121.7 490.57 121.7 490.57 122.6 486.14 122.6 486.14 105.25 487.04 105.25 487.04 103.37 479.75 103.37 479.75 105.25 480.65 105.25 480.65 122.6 476.22 122.6 476.22 121.7 474.35 121.7 474.35 128.99 476.22 128.99 476.22 128.09 480.65 128.09 480.65 145.44 479.75 145.44 479.75 147.32 487.04 147.32 487.04 145.44"/></g><g id="POLYLINE-94" data-name="POLYLINE"><path class="cls-1" d="M502.14,209.48v12a.72.72,0,0,0,1.43,0v-12a.72.72,0,0,0-1.43,0Z"/></g><g id="POLYLINE-95" data-name="POLYLINE"><path class="cls-1" d="M502.14,119.33v12a.72.72,0,1,0,1.43,0v-12a.72.72,0,0,0-1.43,0Z"/></g><g id="MTEXT"><text class="cls-2" transform="translate(42.3 323.77)">END-L/B</text></g><g id="MTEXT-2" data-name="MTEXT"><text class="cls-2" transform="translate(812.04 346.38)">END-L/A</text></g><g id="MTEXT-3" data-name="MTEXT"><text class="cls-2" transform="translate(686.24 383.78) rotate(-90)">END-L/A</text></g><g id="MTEXT-4" data-name="MTEXT"><text class="cls-2" transform="translate(752.63 382.2) rotate(-90)">END-L/A</text></g><g id="MTEXT-5" data-name="MTEXT"><text class="cls-2" transform="translate(752.63 332.66) rotate(-90)">END-L/A</text></g><g id="MTEXT-6" data-name="MTEXT"><text class="cls-2" transform="translate(686.24 334.23) rotate(-90)">END-L/A</text></g><g id="MTEXT-7" data-name="MTEXT"><text class="cls-2" transform="translate(686.24 284.69) rotate(-90)">END-L/A</text></g><g id="MTEXT-8" data-name="MTEXT"><text class="cls-2" transform="translate(752.63 283.11) rotate(-90)">END-L/A</text></g><g id="MTEXT-9" data-name="MTEXT"><text class="cls-2" transform="translate(752.63 233.57) rotate(-90)">END-L/A</text></g><g id="MTEXT-10" data-name="MTEXT"><text class="cls-2" transform="translate(686.24 235.15) rotate(-90)">END-L/A</text></g><g id="MTEXT-11" data-name="MTEXT"><text class="cls-2" transform="translate(752.63 184.03) rotate(-90)">END-L/A</text></g><g id="MTEXT-12" data-name="MTEXT"><text class="cls-2" transform="translate(686.24 185.61) rotate(-90)">END-L/A</text></g><g id="MTEXT-13" data-name="MTEXT"><text class="cls-2" transform="translate(752.63 134.49) rotate(-90)">END-L/A</text></g><g id="MTEXT-14" data-name="MTEXT"><text class="cls-2" transform="translate(686.24 136.06) rotate(-90)">END-L/A</text></g><g id="MTEXT-15" data-name="MTEXT"><text class="cls-2" transform="translate(752.63 84.95) rotate(-90)">END-L/A</text></g><g id="MTEXT-16" data-name="MTEXT"><text class="cls-2" transform="translate(686.24 86.52) rotate(-90)">END-L/A</text></g><g id="MTEXT-17" data-name="MTEXT"><text class="cls-2" transform="translate(541.06 229.06) rotate(-90)">END-L3/C</text></g><g id="MTEXT-18" data-name="MTEXT"><text class="cls-2" transform="translate(604.29 182.79) rotate(-90)">END-L1/C</text></g><g id="MTEXT-19" data-name="MTEXT"><text class="cls-2" transform="translate(481.44 184.61) rotate(-90)">END-L3/E</text></g><g id="MTEXT-20" data-name="MTEXT"><text class="cls-2" transform="translate(469.49 324.22)">END-L/B</text></g><g id="MTEXT-21" data-name="MTEXT"><text class="cls-2" transform="translate(358.02 323.84)">END-L/A</text></g><g id="MTEXT-22" data-name="MTEXT"><text class="cls-2" transform="translate(305.92 323.84)">END-L/A</text></g><g id="MTEXT-23" data-name="MTEXT"><text class="cls-2" transform="translate(253.81 323.84)">END-L/A</text></g><g id="MTEXT-24" data-name="MTEXT"><text class="cls-2" transform="translate(394.7 181.25) rotate(-90)">END-L2/B</text></g><g id="MTEXT-25" data-name="MTEXT"><text class="cls-2" transform="translate(333.52 184.29) rotate(-90)">END-L2/D</text></g><g id="MTEXT-26" data-name="MTEXT"><text class="cls-2" transform="translate(276.42 183.94) rotate(-90)">END-L2/C</text></g><g id="MTEXT-27" data-name="MTEXT"><text class="cls-2" transform="translate(178.41 184.15) rotate(-90)">END-L3/D</text></g><g id="MTEXT-28" data-name="MTEXT"><text class="cls-2" transform="translate(113.19 228.36) rotate(-90)">END-L1/D</text></g><g id="MTEXT-29" data-name="MTEXT"><text class="cls-2" transform="translate(54.75 182.97) rotate(-90)">END-L1/E</text></g><g id="POLYLINE-96" data-name="POLYLINE"><rect class="cls-3" x="667.89" y="29.42" width="183.3" height="366.59"/></g><g id="POLYLINE-97" data-name="POLYLINE"><rect class="cls-3" x="241.21" y="29.42" width="183.3" height="366.59"/></g><g id="POLYLINE-98" data-name="POLYLINE"><rect class="cls-3" x="454.55" y="29.42" width="183.3" height="366.59"/></g><g id="POLYLINE-99" data-name="POLYLINE"><rect class="cls-3" x="27.86" y="29.42" width="183.3" height="366.59"/></g></svg>