<svg id="Layer_1" data-name="Layer 1" xmlns="http://www.w3.org/2000/svg" viewBox="0 0 212.6 425.2"><defs><style>.cls-1,.cls-2{fill:none;stroke:#1d1d1b;stroke-miterlimit:10;}.cls-1{stroke-width:0.5px;}.cls-2{stroke-width:0.25px;}.cls-3{font-size:5.3px;fill:#1d1d1b;font-family:Monotxt;}</style></defs><g id="POLYLINE"><path class="cls-1" d="M197.68,170.92a1.73,1.73,0,0,1,1.73,1.73V188a1.73,1.73,0,0,1-1.73,1.73H181.81v-.9h-2v48.89h2v-.9h15.87a1.72,1.72,0,0,1,1.73,1.73V253.9a1.73,1.73,0,0,1-1.73,1.73H165v-.91h-2v7.38h2v-.91h32.72a1.73,1.73,0,0,1,1.73,1.73v15.35a1.72,1.72,0,0,1-1.73,1.73H181.81v-.9h-2V328h2v-.91h15.87a1.73,1.73,0,0,1,1.73,1.73v15.35a1.73,1.73,0,0,1-1.73,1.73H165V345h-2v7.37h2v-.9h32.72a1.72,1.72,0,0,1,1.73,1.73v15.34a1.72,1.72,0,0,1-1.73,1.73H181.81v-.9h-2v24.37H108.69V353.2a1.72,1.72,0,0,1,1.73-1.73h5.94v.9h2V345h-2v.9h-5.94a1.73,1.73,0,0,1-1.73-1.73V262.92a1.73,1.73,0,0,1,1.73-1.73h5.94v.91h2v-7.38h-2v.91h-5.94a1.73,1.73,0,0,1-1.73-1.73V172.65a1.73,1.73,0,0,1,1.73-1.73h5.94v.9h2v-7.37h-2v.91h-5.94a1.73,1.73,0,0,1-1.73-1.74V124.81a1.72,1.72,0,0,1,1.73-1.73h5.94v.9h2v-3.61H163V124h2v-.9h13.16a1.72,1.72,0,0,1,1.73,1.73V137.3a1.73,1.73,0,0,1-1.73,1.73H144.8v-.91h-2v7.37h2v-.9h33.32a1.73,1.73,0,0,1,1.73,1.73v17.3a1.73,1.73,0,0,1-1.73,1.74H165v-.91h-2v7.37h2v-.9Z"/></g><g id="POLYLINE-2" data-name="POLYLINE"><path class="cls-1" d="M17.74,170.92A1.73,1.73,0,0,0,16,172.65V188a1.73,1.73,0,0,0,1.73,1.73H33.61v-.9h2v48.89h-2v-.9H17.74A1.72,1.72,0,0,0,16,238.55V253.9a1.73,1.73,0,0,0,1.73,1.73H50.46v-.91h2v7.38h-2v-.91H17.74A1.73,1.73,0,0,0,16,262.92v15.35A1.72,1.72,0,0,0,17.74,280H33.61v-.9h2V328h-2v-.91H17.74A1.73,1.73,0,0,0,16,328.82v15.35a1.73,1.73,0,0,0,1.73,1.73H50.46V345h2v7.37h-2v-.9H17.74A1.72,1.72,0,0,0,16,353.2v15.34a1.72,1.72,0,0,0,1.73,1.73H33.61v-.9h2v24.37h71.16V353.2a1.72,1.72,0,0,0-1.73-1.73H99.06v.9h-2V345h2v.9H105a1.73,1.73,0,0,0,1.73-1.73V262.92a1.73,1.73,0,0,0-1.73-1.73H99.06v.91h-2v-7.38h2v.91H105a1.73,1.73,0,0,0,1.73-1.73V172.65a1.73,1.73,0,0,0-1.73-1.73H99.06v.9h-2v-7.37h2v.91H105a1.73,1.73,0,0,0,1.73-1.74V124.81a1.72,1.72,0,0,0-1.73-1.73H99.06v.9h-2v-3.61H52.42V124h-2v-.9H37.3a1.72,1.72,0,0,0-1.73,1.73V137.3A1.73,1.73,0,0,0,37.3,139H70.62v-.91h2v7.37h-2v-.9H37.3a1.73,1.73,0,0,0-1.73,1.73v17.3a1.73,1.73,0,0,0,1.73,1.74H50.46v-.91h2v7.37h-2v-.9Z"/></g><g id="POLYLINE-3" data-name="POLYLINE"><rect class="cls-2" x="15.93" y="27.61" width="183.55" height="367.11"/></g><g id="POLYLINE-4" data-name="POLYLINE"><polygon class="cls-1" points="96.31 183.22 96.31 184.12 94.43 184.12 94.43 176.83 96.31 176.83 96.31 177.73 101.65 177.73 101.65 176.83 103.53 176.83 103.53 184.12 101.65 184.12 101.65 183.22 96.31 183.22"/></g><g id="POLYLINE-5" data-name="POLYLINE"><polygon class="cls-1" points="28.31 176.83 28.31 184.12 26.43 184.12 26.43 183.22 21.09 183.22 21.09 184.12 19.2 184.12 19.2 176.83 21.09 176.83 21.09 177.73 26.43 177.73 26.43 176.83 28.31 176.83"/></g><g id="POLYLINE-6" data-name="POLYLINE"><polygon class="cls-1" points="28.31 249.72 26.43 249.72 26.43 248.82 21.09 248.82 21.09 249.72 19.2 249.72 19.2 242.43 21.09 242.43 21.09 243.33 26.43 243.33 26.43 242.43 28.31 242.43 28.31 249.72"/></g><g id="POLYLINE-7" data-name="POLYLINE"><polygon class="cls-1" points="96.31 243.33 101.65 243.33 101.65 242.43 103.53 242.43 103.53 249.72 101.65 249.72 101.65 248.82 96.31 248.82 96.31 249.72 94.43 249.72 94.43 242.43 96.31 242.43 96.31 243.33"/></g><g id="POLYLINE-8" data-name="POLYLINE"><polygon class="cls-1" points="96.31 273.49 96.31 274.4 94.43 274.4 94.43 267.1 96.31 267.1 96.31 268 101.65 268 101.65 267.1 103.53 267.1 103.53 274.4 101.65 274.4 101.65 273.49 96.31 273.49"/></g><g id="POLYLINE-9" data-name="POLYLINE"><polygon class="cls-1" points="28.31 267.1 28.31 274.4 26.43 274.4 26.43 273.49 21.09 273.49 21.09 274.4 19.2 274.4 19.2 267.1 21.09 267.1 21.09 268 26.43 268 26.43 267.1 28.31 267.1"/></g><g id="POLYLINE-10" data-name="POLYLINE"><polygon class="cls-1" points="28.31 339.99 26.43 339.99 26.43 339.09 21.09 339.09 21.09 339.99 19.2 339.99 19.2 332.7 21.09 332.7 21.09 333.6 26.43 333.6 26.43 332.7 28.31 332.7 28.31 339.99"/></g><g id="POLYLINE-11" data-name="POLYLINE"><polygon class="cls-1" points="96.31 333.6 101.65 333.6 101.65 332.7 103.53 332.7 103.53 339.99 101.65 339.99 101.65 339.09 96.31 339.09 96.31 339.99 94.43 339.99 94.43 332.7 96.31 332.7 96.31 333.6"/></g><g id="POLYLINE-12" data-name="POLYLINE"><polygon class="cls-1" points="28.31 357.37 26.43 357.37 26.43 358.27 21.09 358.27 21.09 357.37 19.2 357.37 19.2 364.67 21.09 364.67 21.09 363.77 26.43 363.77 26.43 364.67 28.31 364.67 28.31 357.37"/></g><g id="POLYLINE-13" data-name="POLYLINE"><polygon class="cls-1" points="96.31 363.77 101.65 363.77 101.65 364.67 103.53 364.67 103.53 357.37 101.65 357.37 101.65 358.27 96.31 358.27 96.31 357.37 94.43 357.37 94.43 364.67 96.31 364.67 96.31 363.77"/></g><g id="POLYLINE-14" data-name="POLYLINE"><polygon class="cls-1" points="119.11 183.22 119.11 184.12 120.99 184.12 120.99 176.83 119.11 176.83 119.11 177.73 113.77 177.73 113.77 176.83 111.88 176.83 111.88 184.12 113.77 184.12 113.77 183.22 119.11 183.22"/></g><g id="POLYLINE-15" data-name="POLYLINE"><polygon class="cls-1" points="187.11 176.83 187.11 184.12 188.99 184.12 188.99 183.22 194.33 183.22 194.33 184.12 196.21 184.12 196.21 176.83 194.33 176.83 194.33 177.73 188.99 177.73 188.99 176.83 187.11 176.83"/></g><g id="POLYLINE-16" data-name="POLYLINE"><polygon class="cls-1" points="187.11 249.72 188.99 249.72 188.99 248.82 194.33 248.82 194.33 249.72 196.21 249.72 196.21 242.43 194.33 242.43 194.33 243.33 188.99 243.33 188.99 242.43 187.11 242.43 187.11 249.72"/></g><g id="POLYLINE-17" data-name="POLYLINE"><polygon class="cls-1" points="119.11 243.33 113.77 243.33 113.77 242.43 111.88 242.43 111.88 249.72 113.77 249.72 113.77 248.82 119.11 248.82 119.11 249.72 120.99 249.72 120.99 242.43 119.11 242.43 119.11 243.33"/></g><g id="POLYLINE-18" data-name="POLYLINE"><polygon class="cls-1" points="119.11 273.49 119.11 274.4 120.99 274.4 120.99 267.1 119.11 267.1 119.11 268 113.77 268 113.77 267.1 111.88 267.1 111.88 274.4 113.77 274.4 113.77 273.49 119.11 273.49"/></g><g id="POLYLINE-19" data-name="POLYLINE"><polygon class="cls-1" points="187.11 267.1 187.11 274.4 188.99 274.4 188.99 273.49 194.33 273.49 194.33 274.4 196.21 274.4 196.21 267.1 194.33 267.1 194.33 268 188.99 268 188.99 267.1 187.11 267.1"/></g><g id="POLYLINE-20" data-name="POLYLINE"><polygon class="cls-1" points="187.11 339.99 188.99 339.99 188.99 339.09 194.33 339.09 194.33 339.99 196.21 339.99 196.21 332.7 194.33 332.7 194.33 333.6 188.99 333.6 188.99 332.7 187.11 332.7 187.11 339.99"/></g><g id="POLYLINE-21" data-name="POLYLINE"><polygon class="cls-1" points="119.11 333.6 113.77 333.6 113.77 332.7 111.88 332.7 111.88 339.99 113.77 339.99 113.77 339.09 119.11 339.09 119.11 339.99 120.99 339.99 120.99 332.7 119.11 332.7 119.11 333.6"/></g><g id="POLYLINE-22" data-name="POLYLINE"><polygon class="cls-1" points="187.11 357.37 188.99 357.37 188.99 358.27 194.33 358.27 194.33 357.37 196.21 357.37 196.21 364.67 194.33 364.67 194.33 363.77 188.99 363.77 188.99 364.67 187.11 364.67 187.11 357.37"/></g><g id="POLYLINE-23" data-name="POLYLINE"><polygon class="cls-1" points="119.11 363.77 113.77 363.77 113.77 364.67 111.88 364.67 111.88 357.37 113.77 357.37 113.77 358.27 119.11 358.27 119.11 357.37 120.99 357.37 120.99 364.67 119.11 364.67 119.11 363.77"/></g><g id="MTEXT"><text class="cls-3" transform="translate(76.89 296.42) rotate(-90)">COMB-B/END-Y2</text></g><g id="MTEXT-2" data-name="MTEXT"><text class="cls-3" transform="translate(141.29 217.9) rotate(90)">COMB-B/END-Y2</text></g></svg>