<svg id="Layer_1" data-name="Layer 1" xmlns="http://www.w3.org/2000/svg" viewBox="0 0 425.2 425.2"><defs><style>.cls-1,.cls-2{fill:none;stroke-linecap:round;stroke-linejoin:round;}.cls-1{stroke:#000;stroke-width:0.25px;}.cls-2{stroke:#1d1d1b;}</style></defs><line class="cls-1" x1="164.73" y1="180.29" x2="164.73" y2="169.46"/><line class="cls-1" x1="164.73" y1="169.46" x2="164.65" y2="168.96"/><line class="cls-1" x1="164.65" y1="168.96" x2="164.41" y2="168.41"/><line class="cls-1" x1="164.41" y1="168.41" x2="164.05" y2="167.93"/><line class="cls-1" x1="164.05" y1="167.93" x2="163.66" y2="167.62"/><line class="cls-1" x1="163.66" y1="167.62" x2="154.64" y2="162.41"/><line class="cls-1" x1="154.64" y1="162.41" x2="154.25" y2="162.27"/><line class="cls-1" x1="154.25" y1="162.27" x2="153.89" y2="162.34"/><line class="cls-1" x1="153.89" y1="162.34" x2="153.66" y2="162.62"/><line class="cls-1" x1="153.66" y1="162.62" x2="153.58" y2="163.03"/><line class="cls-1" x1="150.4" y1="183.45" x2="150.4" y2="174.46"/><line class="cls-1" x1="150.4" y1="174.46" x2="150.32" y2="173.97"/><line class="cls-1" x1="150.32" y1="173.97" x2="150.09" y2="173.42"/><line class="cls-1" x1="150.09" y1="173.42" x2="149.73" y2="172.94"/><line class="cls-1" x1="149.73" y1="172.94" x2="149.34" y2="172.62"/><line class="cls-1" x1="149.34" y1="172.62" x2="139.16" y2="166.75"/><line class="cls-1" x1="139.16" y1="166.75" x2="138.77" y2="166.61"/><line class="cls-1" x1="138.77" y1="166.61" x2="138.41" y2="166.68"/><line class="cls-1" x1="138.41" y1="166.68" x2="138.18" y2="166.96"/><line class="cls-1" x1="138.18" y1="166.96" x2="138.1" y2="167.37"/><line class="cls-1" x1="134.92" y1="188.2" x2="134.92" y2="165.53"/><line class="cls-1" x1="134.92" y1="165.53" x2="134.84" y2="165.03"/><line class="cls-1" x1="134.84" y1="165.03" x2="134.61" y2="164.48"/><line class="cls-1" x1="134.61" y1="164.48" x2="134.25" y2="164"/><line class="cls-1" x1="134.25" y1="164" x2="133.86" y2="163.69"/><line class="cls-1" x1="133.86" y1="163.69" x2="126.52" y2="159.45"/><line class="cls-1" x1="126.52" y1="159.45" x2="126.13" y2="159.31"/><line class="cls-1" x1="126.13" y1="159.31" x2="125.77" y2="159.38"/><line class="cls-1" x1="125.77" y1="159.38" x2="125.53" y2="159.66"/><line class="cls-1" x1="125.53" y1="159.66" x2="125.45" y2="160.06"/><line class="cls-1" x1="125.45" y1="201.94" x2="125.45" y2="206.02"/><line class="cls-1" x1="125.45" y1="206.02" x2="125.53" y2="206.52"/><line class="cls-1" x1="125.53" y1="206.52" x2="125.77" y2="207.07"/><line class="cls-1" x1="125.77" y1="207.07" x2="126.13" y2="207.55"/><line class="cls-1" x1="126.13" y1="207.55" x2="126.52" y2="207.86"/><line class="cls-1" x1="126.52" y1="207.86" x2="149.34" y2="221.04"/><line class="cls-1" x1="149.34" y1="221.04" x2="149.73" y2="221.18"/><line class="cls-1" x1="149.73" y1="221.18" x2="150.09" y2="221.11"/><line class="cls-1" x1="150.09" y1="221.11" x2="150.32" y2="220.83"/><line class="cls-1" x1="150.32" y1="220.83" x2="150.4" y2="220.42"/><line class="cls-1" x1="150.4" y1="220.42" x2="150.4" y2="216.34"/><line class="cls-1" x1="149.87" y1="214.81" x2="150.93" y2="215.42"/><line class="cls-1" x1="153.58" y1="218.18" x2="153.58" y2="222.26"/><line class="cls-1" x1="153.58" y1="222.26" x2="153.66" y2="222.76"/><line class="cls-1" x1="153.66" y1="222.76" x2="153.89" y2="223.31"/><line class="cls-1" x1="153.89" y1="223.31" x2="154.25" y2="223.79"/><line class="cls-1" x1="154.25" y1="223.79" x2="154.64" y2="224.1"/><line class="cls-1" x1="154.64" y1="224.1" x2="202.41" y2="251.68"/><line class="cls-1" x1="202.41" y1="251.68" x2="202.8" y2="251.82"/><line class="cls-1" x1="202.8" y1="251.82" x2="203.16" y2="251.75"/><line class="cls-1" x1="203.16" y1="251.75" x2="203.39" y2="251.48"/><line class="cls-1" x1="203.39" y1="251.48" x2="203.47" y2="251.07"/><line class="cls-1" x1="203.47" y1="251.07" x2="203.47" y2="246.98"/><line class="cls-1" x1="202.94" y1="245.45" x2="204" y2="246.06"/><line class="cls-1" x1="206.65" y1="248.82" x2="206.65" y2="252.91"/><line class="cls-1" x1="206.65" y1="252.91" x2="206.73" y2="253.4"/><line class="cls-1" x1="206.73" y1="253.4" x2="206.96" y2="253.95"/><line class="cls-1" x1="206.96" y1="253.95" x2="207.32" y2="254.43"/><line class="cls-1" x1="207.32" y1="254.43" x2="207.71" y2="254.74"/><line class="cls-1" x1="207.71" y1="254.74" x2="255.48" y2="282.32"/><line class="cls-1" x1="255.48" y1="282.32" x2="255.87" y2="282.46"/><line class="cls-1" x1="255.87" y1="282.46" x2="256.23" y2="282.39"/><line class="cls-1" x1="256.23" y1="282.39" x2="256.46" y2="282.12"/><line class="cls-1" x1="256.46" y1="282.12" x2="256.54" y2="281.71"/><line class="cls-1" x1="256.01" y1="276.09" x2="257.07" y2="276.7"/><line class="cls-1" x1="259.72" y1="279.46" x2="259.72" y2="283.55"/><line class="cls-1" x1="259.72" y1="283.55" x2="259.8" y2="284.04"/><line class="cls-1" x1="259.8" y1="284.04" x2="260.03" y2="284.59"/><line class="cls-1" x1="260.03" y1="284.59" x2="260.39" y2="285.07"/><line class="cls-1" x1="260.39" y1="285.07" x2="260.78" y2="285.38"/><line class="cls-1" x1="260.78" y1="285.38" x2="284.67" y2="299.17"/><line class="cls-1" x1="270.87" y1="241.57" x2="270.87" y2="230.74"/><line class="cls-1" x1="270.87" y1="230.74" x2="270.79" y2="230.25"/><line class="cls-1" x1="270.79" y1="230.25" x2="270.56" y2="229.7"/><line class="cls-1" x1="270.56" y1="229.7" x2="270.2" y2="229.21"/><line class="cls-1" x1="270.2" y1="229.21" x2="269.81" y2="228.9"/><line class="cls-1" x1="269.81" y1="228.9" x2="260.78" y2="223.69"/><line class="cls-1" x1="260.78" y1="223.69" x2="260.39" y2="223.55"/><line class="cls-1" x1="260.39" y1="223.55" x2="260.03" y2="223.62"/><line class="cls-1" x1="260.03" y1="223.62" x2="259.8" y2="223.9"/><line class="cls-1" x1="259.8" y1="223.9" x2="259.72" y2="224.31"/><line class="cls-1" x1="256.54" y1="244.73" x2="256.54" y2="222.47"/><line class="cls-1" x1="256.54" y1="222.47" x2="256.46" y2="221.97"/><line class="cls-1" x1="256.46" y1="221.97" x2="256.23" y2="221.42"/><line class="cls-1" x1="256.23" y1="221.42" x2="255.87" y2="220.94"/><line class="cls-1" x1="255.87" y1="220.94" x2="255.48" y2="220.63"/><line class="cls-1" x1="255.48" y1="220.63" x2="246.46" y2="215.42"/><line class="cls-1" x1="246.46" y1="215.42" x2="246.07" y2="215.28"/><line class="cls-1" x1="246.07" y1="215.28" x2="245.71" y2="215.35"/><line class="cls-1" x1="245.71" y1="215.35" x2="245.47" y2="215.62"/><line class="cls-1" x1="245.47" y1="215.62" x2="245.39" y2="216.03"/><line class="cls-1" x1="217.8" y1="210.93" x2="217.8" y2="200.1"/><line class="cls-1" x1="217.8" y1="200.1" x2="217.72" y2="199.6"/><line class="cls-1" x1="217.72" y1="199.6" x2="217.49" y2="199.05"/><line class="cls-1" x1="217.49" y1="199.05" x2="217.13" y2="198.57"/><line class="cls-1" x1="217.13" y1="198.57" x2="216.73" y2="198.26"/><line class="cls-1" x1="216.73" y1="198.26" x2="207.71" y2="193.05"/><line class="cls-1" x1="207.71" y1="193.05" x2="207.32" y2="192.91"/><line class="cls-1" x1="207.32" y1="192.91" x2="206.96" y2="192.98"/><line class="cls-1" x1="206.96" y1="192.98" x2="206.73" y2="193.26"/><line class="cls-1" x1="206.73" y1="193.26" x2="206.65" y2="193.67"/><line class="cls-1" x1="203.47" y1="214.09" x2="203.47" y2="191.83"/><line class="cls-1" x1="203.47" y1="191.83" x2="203.39" y2="191.33"/><line class="cls-1" x1="203.39" y1="191.33" x2="203.16" y2="190.78"/><line class="cls-1" x1="203.16" y1="190.78" x2="202.8" y2="190.3"/><line class="cls-1" x1="202.8" y1="190.3" x2="202.41" y2="189.99"/><line class="cls-1" x1="202.41" y1="189.99" x2="193.38" y2="184.78"/><line class="cls-1" x1="193.38" y1="184.78" x2="192.99" y2="184.64"/><line class="cls-1" x1="192.99" y1="184.64" x2="192.63" y2="184.71"/><line class="cls-1" x1="192.63" y1="184.71" x2="192.4" y2="184.98"/><line class="cls-1" x1="192.4" y1="184.98" x2="192.32" y2="185.39"/><line class="cls-1" x1="199.4" y1="195.4" x2="199.93" y2="195.71"/><line class="cls-1" x1="199.93" y1="195.71" x2="199.93" y2="196.93"/><line class="cls-1" x1="199.93" y1="196.93" x2="195.68" y2="194.48"/><line class="cls-1" x1="195.68" y1="194.48" x2="195.68" y2="193.26"/><line class="cls-1" x1="195.68" y1="193.26" x2="196.21" y2="193.56"/><line class="cls-1" x1="196.21" y1="193.56" x2="196.21" y2="189.89"/><line class="cls-1" x1="196.21" y1="189.89" x2="195.68" y2="189.58"/><line class="cls-1" x1="195.68" y1="189.58" x2="195.68" y2="188.35"/><line class="cls-1" x1="199.93" y1="192.03" x2="199.4" y2="191.72"/><line class="cls-1" x1="160.83" y1="173.14" x2="161.36" y2="173.44"/><line class="cls-1" x1="161.36" y1="173.44" x2="161.36" y2="174.67"/><line class="cls-1" x1="161.36" y1="174.67" x2="157.12" y2="172.22"/><line class="cls-1" x1="157.12" y1="172.22" x2="157.12" y2="170.99"/><line class="cls-1" x1="157.12" y1="170.99" x2="157.65" y2="171.3"/><line class="cls-1" x1="157.65" y1="171.3" x2="157.65" y2="167.62"/><line class="cls-1" x1="157.65" y1="167.62" x2="157.12" y2="167.31"/><line class="cls-1" x1="157.12" y1="167.31" x2="157.12" y2="166.09"/><line class="cls-1" x1="161.36" y1="169.77" x2="160.83" y2="169.46"/><line class="cls-1" x1="195.68" y1="245.55" x2="195.68" y2="244.32"/><line class="cls-1" x1="195.68" y1="244.32" x2="196.21" y2="244.63"/><line class="cls-1" x1="196.21" y1="244.63" x2="196.21" y2="240.95"/><line class="cls-1" x1="196.21" y1="240.95" x2="195.68" y2="240.65"/><line class="cls-1" x1="195.68" y1="240.65" x2="195.68" y2="239.42"/><line class="cls-1" x1="199.93" y1="243.1" x2="199.4" y2="242.79"/><line class="cls-1" x1="199.4" y1="246.47" x2="199.93" y2="246.78"/><line class="cls-1" x1="199.93" y1="246.78" x2="199.93" y2="248"/><line class="cls-1" x1="199.93" y1="248" x2="195.68" y2="245.55"/><line class="cls-1" x1="161.36" y1="220.83" x2="160.83" y2="220.53"/><line class="cls-1" x1="160.83" y1="224.2" x2="161.36" y2="224.51"/><line class="cls-1" x1="161.36" y1="224.51" x2="161.36" y2="225.74"/><line class="cls-1" x1="161.36" y1="225.74" x2="157.12" y2="223.28"/><line class="cls-1" x1="157.12" y1="223.28" x2="157.12" y2="222.06"/><line class="cls-1" x1="157.12" y1="222.06" x2="157.65" y2="222.36"/><line class="cls-1" x1="157.65" y1="222.36" x2="157.65" y2="218.69"/><line class="cls-1" x1="157.65" y1="218.69" x2="157.12" y2="218.38"/><line class="cls-1" x1="157.12" y1="218.38" x2="157.12" y2="217.16"/><line class="cls-1" x1="252.47" y1="226.04" x2="253" y2="226.35"/><line class="cls-1" x1="253" y1="226.35" x2="253" y2="227.58"/><line class="cls-1" x1="253" y1="227.58" x2="248.76" y2="225.12"/><line class="cls-1" x1="248.76" y1="225.12" x2="248.76" y2="223.9"/><line class="cls-1" x1="248.76" y1="223.9" x2="249.29" y2="224.2"/><line class="cls-1" x1="249.29" y1="224.2" x2="249.29" y2="220.53"/><line class="cls-1" x1="249.29" y1="220.53" x2="248.76" y2="220.22"/><line class="cls-1" x1="248.76" y1="220.22" x2="248.76" y2="218.99"/><line class="cls-1" x1="253" y1="222.67" x2="252.47" y2="222.36"/><line class="cls-1" x1="213.9" y1="203.78" x2="214.44" y2="204.08"/><line class="cls-1" x1="214.44" y1="204.08" x2="214.44" y2="205.31"/><line class="cls-1" x1="214.44" y1="205.31" x2="210.19" y2="202.86"/><line class="cls-1" x1="210.19" y1="202.86" x2="210.19" y2="201.63"/><line class="cls-1" x1="210.19" y1="201.63" x2="210.72" y2="201.94"/><line class="cls-1" x1="210.72" y1="201.94" x2="210.72" y2="198.26"/><line class="cls-1" x1="210.72" y1="198.26" x2="210.19" y2="197.95"/><line class="cls-1" x1="210.19" y1="197.95" x2="210.19" y2="196.73"/><line class="cls-1" x1="214.44" y1="200.41" x2="213.9" y2="200.1"/><line class="cls-1" x1="248.76" y1="276.19" x2="248.76" y2="274.97"/><line class="cls-1" x1="248.76" y1="274.97" x2="249.29" y2="275.27"/><line class="cls-1" x1="249.29" y1="275.27" x2="249.29" y2="271.59"/><line class="cls-1" x1="249.29" y1="271.59" x2="248.76" y2="271.29"/><line class="cls-1" x1="248.76" y1="271.29" x2="248.76" y2="270.06"/><line class="cls-1" x1="253" y1="273.74" x2="252.47" y2="273.43"/><line class="cls-1" x1="252.47" y1="277.11" x2="253" y2="277.42"/><line class="cls-1" x1="253" y1="277.42" x2="253" y2="278.64"/><line class="cls-1" x1="253" y1="278.64" x2="248.76" y2="276.19"/><line class="cls-1" x1="214.44" y1="251.48" x2="213.9" y2="251.17"/><line class="cls-1" x1="213.9" y1="254.85" x2="214.44" y2="255.15"/><line class="cls-1" x1="214.44" y1="255.15" x2="214.44" y2="256.38"/><line class="cls-1" x1="214.44" y1="256.38" x2="210.19" y2="253.93"/><line class="cls-1" x1="210.19" y1="253.93" x2="210.19" y2="252.7"/><line class="cls-1" x1="210.19" y1="252.7" x2="210.72" y2="253.01"/><line class="cls-1" x1="210.72" y1="253.01" x2="210.72" y2="249.33"/><line class="cls-1" x1="210.72" y1="249.33" x2="210.19" y2="249.02"/><line class="cls-1" x1="210.19" y1="249.02" x2="210.19" y2="247.8"/><line class="cls-1" x1="263.79" y1="232.58" x2="263.79" y2="228.9"/><line class="cls-1" x1="263.79" y1="228.9" x2="263.26" y2="228.6"/><line class="cls-1" x1="263.26" y1="228.6" x2="263.26" y2="227.37"/><line class="cls-1" x1="267.51" y1="231.05" x2="266.98" y2="230.74"/><line class="cls-1" x1="266.98" y1="234.42" x2="267.51" y2="234.72"/><line class="cls-1" x1="267.51" y1="234.72" x2="267.51" y2="235.95"/><line class="cls-1" x1="267.51" y1="235.95" x2="263.26" y2="233.5"/><line class="cls-1" x1="263.26" y1="233.5" x2="263.26" y2="232.27"/><line class="cls-1" x1="263.26" y1="232.27" x2="263.79" y2="232.58"/><line class="cls-1" x1="267.51" y1="285.79" x2="267.51" y2="287.02"/><line class="cls-1" x1="267.51" y1="287.02" x2="263.26" y2="284.57"/><line class="cls-1" x1="263.26" y1="284.57" x2="263.26" y2="283.34"/><line class="cls-1" x1="263.26" y1="283.34" x2="263.79" y2="283.65"/><line class="cls-1" x1="263.79" y1="283.65" x2="263.79" y2="279.97"/><line class="cls-1" x1="263.79" y1="279.97" x2="263.26" y2="279.66"/><line class="cls-1" x1="263.26" y1="279.66" x2="263.26" y2="278.44"/><line class="cls-1" x1="267.51" y1="282.12" x2="266.98" y2="281.81"/><line class="cls-1" x1="266.98" y1="285.49" x2="267.51" y2="285.79"/><line class="cls-1" x1="166.32" y1="179.37" x2="166.32" y2="168.54"/><line class="cls-1" x1="166.32" y1="168.54" x2="166.24" y2="168.05"/><line class="cls-1" x1="166.01" y1="167.49" x2="165.65" y2="167.01"/><line class="cls-1" x1="165.26" y1="166.7" x2="156.23" y2="161.49"/><line class="cls-1" x1="156.23" y1="161.49" x2="155.84" y2="161.35"/><line class="cls-1" x1="155.48" y1="161.42" x2="155.25" y2="161.7"/><line class="cls-1" x1="155.84" y1="161.35" x2="155.48" y2="161.42"/><line class="cls-1" x1="166.24" y1="168.05" x2="166.01" y2="167.49"/><line class="cls-1" x1="165.65" y1="167.01" x2="165.26" y2="166.7"/><line class="cls-1" x1="165.79" y1="180.29" x2="165.79" y2="179.67"/><line class="cls-1" x1="192.32" y1="195.61" x2="165.79" y2="180.29"/><line class="cls-1" x1="205.06" y1="190.91" x2="204.99" y2="190.41"/><line class="cls-1" x1="204" y1="189.07" x2="194.98" y2="183.86"/><line class="cls-1" x1="205.06" y1="213.17" x2="205.06" y2="190.91"/><line class="cls-1" x1="204.99" y1="190.41" x2="204.75" y2="189.86"/><line class="cls-1" x1="204.39" y1="189.38" x2="204" y2="189.07"/><line class="cls-1" x1="204.75" y1="189.86" x2="204.39" y2="189.38"/><line class="cls-1" x1="194.98" y1="183.86" x2="194.58" y2="183.72"/><line class="cls-1" x1="194.22" y1="183.79" x2="194.13" y2="183.9"/><line class="cls-1" x1="194.07" y1="183.97" x2="193.99" y2="184.07"/><line class="cls-1" x1="194.58" y1="183.72" x2="194.22" y2="183.79"/><line class="cls-1" x1="204.53" y1="214.09" x2="204.53" y2="213.48"/><line class="cls-1" x1="206.65" y1="215.32" x2="204.53" y2="214.09"/><line class="cls-1" x1="218.72" y1="197.65" x2="218.33" y2="197.34"/><line class="cls-1" x1="208.56" y1="192.06" x2="208.4" y2="192.25"/><line class="cls-1" x1="219.39" y1="210.01" x2="219.39" y2="199.18"/><line class="cls-1" x1="219.31" y1="198.69" x2="219.08" y2="198.13"/><line class="cls-1" x1="219.08" y1="198.13" x2="218.72" y2="197.65"/><line class="cls-1" x1="219.39" y1="199.18" x2="219.31" y2="198.69"/><line class="cls-1" x1="209.31" y1="192.13" x2="208.91" y2="191.99"/><line class="cls-1" x1="208.91" y1="191.99" x2="208.56" y2="192.06"/><line class="cls-1" x1="218.33" y1="197.34" x2="209.31" y2="192.13"/><line class="cls-1" x1="208.32" y1="192.34" x2="208.29" y2="192.51"/><line class="cls-1" x1="218.88" y1="209.71" x2="219.11" y2="209.85"/><line class="cls-1" x1="218.86" y1="210.93" x2="218.86" y2="210.31"/><line class="cls-1" x1="245.39" y1="226.25" x2="218.86" y2="210.93"/><line class="cls-1" x1="258.13" y1="221.55" x2="258.06" y2="221.05"/><line class="cls-1" x1="257.07" y1="219.71" x2="248.05" y2="214.5"/><line class="cls-1" x1="258.13" y1="243.81" x2="258.13" y2="221.55"/><line class="cls-1" x1="258.06" y1="221.05" x2="257.82" y2="220.5"/><line class="cls-1" x1="257.46" y1="220.02" x2="257.07" y2="219.71"/><line class="cls-1" x1="257.82" y1="220.5" x2="257.46" y2="220.02"/><line class="cls-1" x1="248.05" y1="214.5" x2="247.66" y2="214.36"/><line class="cls-1" x1="247.66" y1="214.36" x2="247.3" y2="214.43"/><line class="cls-1" x1="247.3" y1="214.43" x2="247.2" y2="214.54"/><line class="cls-1" x1="247.14" y1="214.61" x2="247.06" y2="214.71"/><line class="cls-1" x1="247.03" y1="214.88" x2="246.99" y2="215.11"/><line class="cls-1" x1="256.82" y1="243.96" x2="257.05" y2="243.82"/><line class="cls-1" x1="257.6" y1="244.73" x2="257.6" y2="244.12"/><line class="cls-1" x1="259.72" y1="245.96" x2="257.6" y2="244.73"/><line class="cls-1" x1="272.46" y1="229.82" x2="272.39" y2="229.33"/><line class="cls-1" x1="271.4" y1="227.98" x2="262.38" y2="222.77"/><line class="cls-1" x1="261.39" y1="222.98" x2="261.36" y2="223.15"/><line class="cls-1" x1="272.46" y1="240.65" x2="272.46" y2="229.82"/><line class="cls-1" x1="272.39" y1="229.33" x2="272.15" y2="228.78"/><line class="cls-1" x1="271.79" y1="228.3" x2="271.4" y2="227.98"/><line class="cls-1" x1="272.15" y1="228.78" x2="271.79" y2="228.3"/><line class="cls-1" x1="262.38" y1="222.77" x2="261.99" y2="222.63"/><line class="cls-1" x1="261.63" y1="222.7" x2="261.47" y2="222.89"/><line class="cls-1" x1="261.99" y1="222.63" x2="261.63" y2="222.7"/><line class="cls-1" x1="271.93" y1="241.57" x2="271.93" y2="240.95"/><line class="cls-1" x1="284.67" y1="250.76" x2="286.26" y2="249.84"/><line class="cls-1" x1="286.26" y1="249.84" x2="271.93" y2="241.57"/><line class="cls-1" x1="284.67" y1="299.17" x2="286.26" y2="298.25"/><line class="cls-1" x1="256.54" y1="277.62" x2="256.8" y2="277.47"/><line class="cls-1" x1="256.54" y1="281.09" x2="256.58" y2="281.12"/><line class="cls-1" x1="256.93" y1="281.32" x2="256.94" y2="281.33"/><line class="cls-1" x1="258.13" y1="280.79" x2="258.13" y2="277.32"/><line class="cls-1" x1="257.07" y1="281.4" x2="257.19" y2="281.44"/><line class="cls-1" x1="257.58" y1="281.52" x2="257.82" y2="281.47"/><line class="cls-1" x1="257.82" y1="281.47" x2="258.06" y2="281.2"/><line class="cls-1" x1="258.06" y1="281.2" x2="258.13" y2="280.79"/><line class="cls-1" x1="203.47" y1="246.98" x2="203.73" y2="246.83"/><line class="cls-1" x1="205.06" y1="250.15" x2="205.06" y2="246.67"/><line class="cls-1" x1="204" y1="250.76" x2="204.12" y2="250.8"/><line class="cls-1" x1="204.51" y1="250.88" x2="204.75" y2="250.83"/><line class="cls-1" x1="204.75" y1="250.83" x2="204.99" y2="250.56"/><line class="cls-1" x1="204.99" y1="250.56" x2="205.06" y2="250.15"/><line class="cls-1" x1="150.4" y1="216.34" x2="150.66" y2="216.19"/><line class="cls-1" x1="151.99" y1="219.51" x2="151.99" y2="216.03"/><line class="cls-1" x1="151.32" y1="220.26" x2="151.39" y2="220.24"/><line class="cls-1" x1="151.44" y1="220.24" x2="151.68" y2="220.19"/><line class="cls-1" x1="151.68" y1="220.19" x2="151.92" y2="219.91"/><line class="cls-1" x1="151.92" y1="219.91" x2="151.99" y2="219.51"/><line class="cls-1" x1="123.86" y1="169.36" x2="125.45" y2="168.44"/><line class="cls-1" x1="136.51" y1="164.61" x2="136.44" y2="164.11"/><line class="cls-1" x1="135.45" y1="162.77" x2="128.11" y2="158.53"/><line class="cls-1" x1="136.51" y1="187.28" x2="136.51" y2="164.61"/><line class="cls-1" x1="136.44" y1="164.11" x2="136.2" y2="163.56"/><line class="cls-1" x1="135.84" y1="163.08" x2="135.45" y2="162.77"/><line class="cls-1" x1="136.2" y1="163.56" x2="135.84" y2="163.08"/><line class="cls-1" x1="128.11" y1="158.53" x2="127.72" y2="158.39"/><line class="cls-1" x1="127.72" y1="158.39" x2="127.36" y2="158.46"/><line class="cls-1" x1="127.26" y1="158.57" x2="127.12" y2="158.74"/><line class="cls-1" x1="127.09" y1="158.91" x2="127.05" y2="159.14"/><line class="cls-1" x1="135.98" y1="188.2" x2="135.98" y2="187.59"/><line class="cls-1" x1="138.1" y1="189.43" x2="135.98" y2="188.2"/><line class="cls-1" x1="151.99" y1="173.54" x2="151.92" y2="173.05"/><line class="cls-1" x1="150.93" y1="171.71" x2="140.75" y2="165.83"/><line class="cls-1" x1="139.74" y1="166.21" x2="139.69" y2="166.45"/><line class="cls-1" x1="151.99" y1="182.53" x2="151.99" y2="173.54"/><line class="cls-1" x1="151.92" y1="173.05" x2="151.68" y2="172.5"/><line class="cls-1" x1="151.32" y1="172.02" x2="150.93" y2="171.71"/><line class="cls-1" x1="151.68" y1="172.5" x2="151.32" y2="172.02"/><line class="cls-1" x1="140.75" y1="165.83" x2="140.36" y2="165.69"/><line class="cls-1" x1="140" y1="165.76" x2="139.91" y2="165.87"/><line class="cls-1" x1="139.85" y1="165.95" x2="139.77" y2="166.04"/><line class="cls-1" x1="140.36" y1="165.69" x2="140" y2="165.76"/><line class="cls-1" x1="151.46" y1="183.45" x2="151.46" y2="182.84"/><line class="cls-1" x1="153.58" y1="184.68" x2="151.46" y2="183.45"/><line class="cls-1" x1="267.51" y1="281.5" x2="266.98" y2="281.81"/><line class="cls-1" x1="263.26" y1="279.66" x2="264.32" y2="279.05"/><line class="cls-1" x1="263.79" y1="279.97" x2="264.85" y2="279.36"/><line class="cls-1" x1="265.38" y1="282.73" x2="265.38" y2="279.66"/><line class="cls-1" x1="263.26" y1="284.57" x2="264.85" y2="283.65"/><line class="cls-1" x1="264.85" y1="283.65" x2="264.85" y2="283.03"/><line class="cls-1" x1="266.98" y1="284.87" x2="264.85" y2="283.65"/><line class="cls-1" x1="264.85" y1="232.58" x2="263.26" y2="233.5"/><line class="cls-1" x1="266.98" y1="233.81" x2="264.85" y2="232.58"/><line class="cls-1" x1="266.98" y1="230.74" x2="267.51" y2="230.44"/><line class="cls-1" x1="263.26" y1="228.6" x2="264.32" y2="227.98"/><line class="cls-1" x1="263.79" y1="228.9" x2="264.85" y2="228.29"/><line class="cls-1" x1="265.38" y1="231.66" x2="265.38" y2="228.6"/><line class="cls-1" x1="264.85" y1="232.58" x2="264.85" y2="231.97"/><line class="cls-1" x1="214.44" y1="250.86" x2="213.9" y2="251.17"/><line class="cls-1" x1="210.19" y1="249.02" x2="211.25" y2="248.41"/><line class="cls-1" x1="210.72" y1="249.33" x2="211.78" y2="248.72"/><line class="cls-1" x1="212.31" y1="252.09" x2="212.31" y2="249.02"/><line class="cls-1" x1="210.19" y1="253.93" x2="211.78" y2="253.01"/><line class="cls-1" x1="211.78" y1="253.01" x2="211.78" y2="252.39"/><line class="cls-1" x1="213.9" y1="254.23" x2="211.78" y2="253.01"/><line class="cls-1" x1="250.35" y1="270.98" x2="249.29" y2="271.59"/><line class="cls-1" x1="250.88" y1="274.35" x2="250.88" y2="271.29"/><line class="cls-1" x1="248.76" y1="276.19" x2="250.35" y2="275.27"/><line class="cls-1" x1="250.35" y1="275.27" x2="250.35" y2="274.66"/><line class="cls-1" x1="252.47" y1="276.5" x2="250.35" y2="275.27"/><line class="cls-1" x1="252.47" y1="273.43" x2="253" y2="273.13"/><line class="cls-1" x1="248.76" y1="271.29" x2="249.82" y2="270.67"/><line class="cls-1" x1="211.78" y1="201.94" x2="210.19" y2="202.86"/><line class="cls-1" x1="213.9" y1="203.17" x2="211.78" y2="201.94"/><line class="cls-1" x1="213.9" y1="200.1" x2="214.44" y2="199.8"/><line class="cls-1" x1="210.19" y1="197.95" x2="211.25" y2="197.34"/><line class="cls-1" x1="210.72" y1="198.26" x2="211.78" y2="197.65"/><line class="cls-1" x1="212.31" y1="201.02" x2="212.31" y2="197.95"/><line class="cls-1" x1="211.78" y1="201.94" x2="211.78" y2="201.33"/><line class="cls-1" x1="252.47" y1="222.36" x2="253" y2="222.06"/><line class="cls-1" x1="248.76" y1="220.22" x2="249.82" y2="219.61"/><line class="cls-1" x1="249.29" y1="220.53" x2="250.35" y2="219.91"/><line class="cls-1" x1="250.88" y1="223.28" x2="250.88" y2="220.22"/><line class="cls-1" x1="248.76" y1="225.12" x2="250.35" y2="224.2"/><line class="cls-1" x1="250.35" y1="224.2" x2="250.35" y2="223.59"/><line class="cls-1" x1="252.47" y1="225.43" x2="250.35" y2="224.2"/><line class="cls-1" x1="161.36" y1="220.22" x2="160.83" y2="220.53"/><line class="cls-1" x1="157.12" y1="218.38" x2="158.18" y2="217.77"/><line class="cls-1" x1="157.65" y1="218.69" x2="158.71" y2="218.08"/><line class="cls-1" x1="159.24" y1="221.45" x2="159.24" y2="218.38"/><line class="cls-1" x1="157.12" y1="223.28" x2="158.71" y2="222.36"/><line class="cls-1" x1="158.71" y1="222.36" x2="158.71" y2="221.75"/><line class="cls-1" x1="160.83" y1="223.59" x2="158.71" y2="222.36"/><line class="cls-1" x1="197.28" y1="240.34" x2="196.21" y2="240.95"/><line class="cls-1" x1="197.81" y1="243.71" x2="197.81" y2="240.65"/><line class="cls-1" x1="195.68" y1="245.55" x2="197.28" y2="244.63"/><line class="cls-1" x1="197.28" y1="244.63" x2="197.28" y2="244.02"/><line class="cls-1" x1="199.4" y1="245.86" x2="197.28" y2="244.63"/><line class="cls-1" x1="199.4" y1="242.79" x2="199.93" y2="242.49"/><line class="cls-1" x1="195.68" y1="240.65" x2="196.75" y2="240.03"/><line class="cls-1" x1="158.71" y1="171.3" x2="157.12" y2="172.22"/><line class="cls-1" x1="160.83" y1="172.52" x2="158.71" y2="171.3"/><line class="cls-1" x1="160.83" y1="169.46" x2="161.36" y2="169.15"/><line class="cls-1" x1="157.12" y1="167.31" x2="158.18" y2="166.7"/><line class="cls-1" x1="157.65" y1="167.62" x2="158.71" y2="167.01"/><line class="cls-1" x1="159.24" y1="170.38" x2="159.24" y2="167.31"/><line class="cls-1" x1="158.71" y1="171.3" x2="158.71" y2="170.68"/><line class="cls-1" x1="199.4" y1="191.72" x2="199.93" y2="191.42"/><line class="cls-1" x1="195.68" y1="189.58" x2="196.75" y2="188.97"/><line class="cls-1" x1="196.21" y1="189.89" x2="197.28" y2="189.27"/><line class="cls-1" x1="197.81" y1="192.64" x2="197.81" y2="189.58"/><line class="cls-1" x1="195.68" y1="194.48" x2="197.28" y2="193.56"/><line class="cls-1" x1="197.28" y1="193.56" x2="197.28" y2="192.95"/><line class="cls-1" x1="199.4" y1="194.79" x2="197.28" y2="193.56"/><line class="cls-1" x1="153.58" y1="184.68" x2="153.58" y2="185.29"/><line class="cls-1" x1="138.1" y1="167.37" x2="138.1" y2="189.43"/><line class="cls-1" x1="138.1" y1="189.43" x2="138.1" y2="190.04"/><line class="cls-1" x1="125.45" y1="160.06" x2="125.45" y2="168.44"/><line class="cls-1" x1="125.45" y1="168.44" x2="125.45" y2="169.05"/><line class="cls-1" x1="125.99" y1="201.63" x2="125.99" y2="202.25"/><line class="cls-1" x1="150.93" y1="215.42" x2="151.46" y2="215.73"/><line class="cls-1" x1="154.11" y1="217.87" x2="154.11" y2="218.48"/><line class="cls-1" x1="204" y1="246.06" x2="204.53" y2="246.37"/><line class="cls-1" x1="207.18" y1="248.51" x2="207.18" y2="249.13"/><line class="cls-1" x1="256.54" y1="281.71" x2="256.54" y2="281.09"/><line class="cls-1" x1="256.54" y1="281.09" x2="256.54" y2="277.62"/><line class="cls-1" x1="257.07" y1="276.7" x2="257.6" y2="277.01"/><line class="cls-1" x1="260.25" y1="279.15" x2="260.25" y2="279.77"/><line class="cls-1" x1="259.72" y1="224.31" x2="259.72" y2="245.96"/><line class="cls-1" x1="259.72" y1="245.96" x2="259.72" y2="246.57"/><line class="cls-1" x1="245.39" y1="216.03" x2="245.39" y2="226.25"/><line class="cls-1" x1="245.39" y1="226.25" x2="245.39" y2="226.86"/><line class="cls-1" x1="206.65" y1="193.67" x2="206.65" y2="215.32"/><line class="cls-1" x1="206.65" y1="215.32" x2="206.65" y2="215.93"/><line class="cls-1" x1="192.32" y1="185.39" x2="192.32" y2="195.61"/><line class="cls-1" x1="192.32" y1="195.61" x2="192.32" y2="196.22"/><line class="cls-1" x1="199.4" y1="191.72" x2="199.4" y2="194.79"/><line class="cls-1" x1="199.4" y1="194.79" x2="199.4" y2="195.4"/><line class="cls-1" x1="195.68" y1="188.35" x2="196.75" y2="188.97"/><line class="cls-1" x1="199.93" y1="190.81" x2="199.93" y2="191.42"/><line class="cls-1" x1="199.93" y1="191.42" x2="199.93" y2="192.03"/><line class="cls-1" x1="157.12" y1="166.09" x2="158.18" y2="166.7"/><line class="cls-1" x1="161.36" y1="168.54" x2="161.36" y2="169.15"/><line class="cls-1" x1="161.36" y1="169.15" x2="161.36" y2="169.77"/><line class="cls-1" x1="160.83" y1="169.46" x2="160.83" y2="172.52"/><line class="cls-1" x1="160.83" y1="172.52" x2="160.83" y2="173.14"/><line class="cls-1" x1="199.93" y1="241.87" x2="199.93" y2="242.49"/><line class="cls-1" x1="199.93" y1="242.49" x2="199.93" y2="243.1"/><line class="cls-1" x1="199.4" y1="242.79" x2="199.4" y2="245.86"/><line class="cls-1" x1="199.4" y1="245.86" x2="199.4" y2="246.47"/><line class="cls-1" x1="159.24" y1="218.38" x2="161.36" y2="219.61"/><line class="cls-1" x1="161.36" y1="219.61" x2="161.36" y2="220.22"/><line class="cls-1" x1="161.36" y1="220.22" x2="161.36" y2="220.83"/><line class="cls-1" x1="160.83" y1="220.53" x2="160.83" y2="223.59"/><line class="cls-1" x1="160.83" y1="223.59" x2="160.83" y2="224.2"/><line class="cls-1" x1="252.47" y1="222.36" x2="252.47" y2="225.43"/><line class="cls-1" x1="252.47" y1="225.43" x2="252.47" y2="226.04"/><line class="cls-1" x1="248.76" y1="218.99" x2="249.82" y2="219.61"/><line class="cls-1" x1="253" y1="221.45" x2="253" y2="222.06"/><line class="cls-1" x1="253" y1="222.06" x2="253" y2="222.67"/><line class="cls-1" x1="210.19" y1="196.73" x2="211.25" y2="197.34"/><line class="cls-1" x1="214.44" y1="199.18" x2="214.44" y2="199.8"/><line class="cls-1" x1="214.44" y1="199.8" x2="214.44" y2="200.41"/><line class="cls-1" x1="213.9" y1="200.1" x2="213.9" y2="203.17"/><line class="cls-1" x1="213.9" y1="203.17" x2="213.9" y2="203.78"/><line class="cls-1" x1="250.88" y1="271.29" x2="253" y2="272.51"/><line class="cls-1" x1="253" y1="272.51" x2="253" y2="273.13"/><line class="cls-1" x1="253" y1="273.13" x2="253" y2="273.74"/><line class="cls-1" x1="252.47" y1="273.43" x2="252.47" y2="276.5"/><line class="cls-1" x1="252.47" y1="276.5" x2="252.47" y2="277.11"/><line class="cls-1" x1="212.31" y1="249.02" x2="214.44" y2="250.25"/><line class="cls-1" x1="214.44" y1="250.25" x2="214.44" y2="250.86"/><line class="cls-1" x1="214.44" y1="250.86" x2="214.44" y2="251.48"/><line class="cls-1" x1="213.9" y1="251.17" x2="213.9" y2="254.23"/><line class="cls-1" x1="213.9" y1="254.23" x2="213.9" y2="254.85"/><line class="cls-1" x1="263.26" y1="227.37" x2="264.32" y2="227.98"/><line class="cls-1" x1="267.51" y1="229.82" x2="267.51" y2="230.44"/><line class="cls-1" x1="267.51" y1="230.44" x2="267.51" y2="231.05"/><line class="cls-1" x1="266.98" y1="230.74" x2="266.98" y2="233.81"/><line class="cls-1" x1="266.98" y1="233.81" x2="266.98" y2="234.42"/><line class="cls-1" x1="265.38" y1="279.66" x2="267.51" y2="280.89"/><line class="cls-1" x1="267.51" y1="280.89" x2="267.51" y2="281.5"/><line class="cls-1" x1="267.51" y1="281.5" x2="267.51" y2="282.12"/><line class="cls-1" x1="266.98" y1="281.81" x2="266.98" y2="284.87"/><line class="cls-1" x1="266.98" y1="284.87" x2="266.98" y2="285.49"/><line class="cls-1" x1="153.89" y1="162.34" x2="155.19" y2="162.02"/><line class="cls-1" x1="155.19" y1="162.02" x2="155.44" y2="161.95"/><line class="cls-1" x1="263.79" y1="283.65" x2="264.85" y2="283.03"/><line class="cls-1" x1="264.85" y1="283.03" x2="265.38" y2="282.73"/><line class="cls-1" x1="263.79" y1="232.58" x2="264.85" y2="231.97"/><line class="cls-1" x1="264.85" y1="231.97" x2="265.38" y2="231.66"/><line class="cls-1" x1="210.72" y1="253.01" x2="211.78" y2="252.39"/><line class="cls-1" x1="211.78" y1="252.39" x2="212.31" y2="252.09"/><line class="cls-1" x1="249.29" y1="275.27" x2="250.35" y2="274.66"/><line class="cls-1" x1="250.35" y1="274.66" x2="250.88" y2="274.35"/><line class="cls-1" x1="210.72" y1="201.94" x2="211.78" y2="201.33"/><line class="cls-1" x1="211.78" y1="201.33" x2="212.31" y2="201.02"/><line class="cls-1" x1="249.29" y1="224.2" x2="250.35" y2="223.59"/><line class="cls-1" x1="250.35" y1="223.59" x2="250.88" y2="223.28"/><line class="cls-1" x1="157.65" y1="222.36" x2="158.71" y2="221.75"/><line class="cls-1" x1="158.71" y1="221.75" x2="159.24" y2="221.45"/><line class="cls-1" x1="196.21" y1="244.63" x2="197.28" y2="244.02"/><line class="cls-1" x1="197.28" y1="244.02" x2="197.81" y2="243.71"/><line class="cls-1" x1="157.65" y1="171.3" x2="158.71" y2="170.68"/><line class="cls-1" x1="158.71" y1="170.68" x2="159.24" y2="170.38"/><line class="cls-1" x1="196.21" y1="193.56" x2="197.28" y2="192.95"/><line class="cls-1" x1="197.28" y1="192.95" x2="197.81" y2="192.64"/><line class="cls-1" x1="151.46" y1="215.73" x2="151.99" y2="216.03"/><line class="cls-1" x1="151.99" y1="216.03" x2="154.11" y2="217.26"/><line class="cls-1" x1="204.53" y1="246.37" x2="205.06" y2="246.67"/><line class="cls-1" x1="205.06" y1="246.67" x2="207.18" y2="247.9"/><line class="cls-1" x1="257.6" y1="277.01" x2="258.13" y2="277.32"/><line class="cls-1" x1="258.13" y1="277.32" x2="260.25" y2="278.54"/><line class="cls-1" x1="196.75" y1="188.97" x2="197.28" y2="189.27"/><line class="cls-1" x1="158.18" y1="166.7" x2="158.71" y2="167.01"/><line class="cls-1" x1="195.68" y1="239.42" x2="196.75" y2="240.03"/><line class="cls-1" x1="196.75" y1="240.03" x2="197.28" y2="240.34"/><line class="cls-1" x1="197.28" y1="240.34" x2="197.81" y2="240.65"/><line class="cls-1" x1="197.81" y1="240.65" x2="199.93" y2="241.87"/><line class="cls-1" x1="157.12" y1="217.16" x2="158.18" y2="217.77"/><line class="cls-1" x1="249.82" y1="219.61" x2="250.35" y2="219.91"/><line class="cls-1" x1="211.25" y1="197.34" x2="211.78" y2="197.65"/><line class="cls-1" x1="250.35" y1="270.98" x2="250.88" y2="271.29"/><line class="cls-1" x1="211.78" y1="248.72" x2="212.31" y2="249.02"/><line class="cls-1" x1="264.32" y1="227.98" x2="264.85" y2="228.29"/><line class="cls-1" x1="263.26" y1="278.44" x2="264.32" y2="279.05"/><line class="cls-1" x1="197.28" y1="189.27" x2="197.81" y2="189.58"/><line class="cls-1" x1="197.81" y1="189.58" x2="199.93" y2="190.81"/><line class="cls-1" x1="158.71" y1="167.01" x2="159.24" y2="167.31"/><line class="cls-1" x1="159.24" y1="167.31" x2="161.36" y2="168.54"/><line class="cls-1" x1="158.18" y1="217.77" x2="158.71" y2="218.08"/><line class="cls-1" x1="158.71" y1="218.08" x2="159.24" y2="218.38"/><line class="cls-1" x1="250.35" y1="219.91" x2="250.88" y2="220.22"/><line class="cls-1" x1="250.88" y1="220.22" x2="253" y2="221.45"/><line class="cls-1" x1="211.78" y1="197.65" x2="212.31" y2="197.95"/><line class="cls-1" x1="212.31" y1="197.95" x2="214.44" y2="199.18"/><line class="cls-1" x1="248.76" y1="270.06" x2="249.82" y2="270.67"/><line class="cls-1" x1="249.82" y1="270.67" x2="250.35" y2="270.98"/><line class="cls-1" x1="210.19" y1="247.8" x2="211.25" y2="248.41"/><line class="cls-1" x1="211.25" y1="248.41" x2="211.78" y2="248.72"/><line class="cls-1" x1="264.85" y1="228.29" x2="265.38" y2="228.6"/><line class="cls-1" x1="265.38" y1="228.6" x2="267.51" y2="229.82"/><line class="cls-1" x1="264.32" y1="279.05" x2="264.85" y2="279.36"/><line class="cls-1" x1="264.85" y1="279.36" x2="265.38" y2="279.66"/><line class="cls-1" x1="164.73" y1="180.29" x2="164.19" y2="179.98"/><line class="cls-1" x1="153.58" y1="163.03" x2="153.58" y2="184.68"/><line class="cls-1" x1="153.58" y1="185.29" x2="154.11" y2="185.6"/><line class="cls-1" x1="154.11" y1="185.6" x2="154.11" y2="186.82"/><line class="cls-1" x1="154.11" y1="186.82" x2="149.87" y2="184.37"/><line class="cls-1" x1="149.87" y1="184.37" x2="149.87" y2="183.15"/><line class="cls-1" x1="149.87" y1="183.15" x2="150.4" y2="183.45"/><line class="cls-1" x1="138.1" y1="190.04" x2="138.63" y2="190.35"/><line class="cls-1" x1="138.63" y1="190.35" x2="138.63" y2="191.57"/><line class="cls-1" x1="138.63" y1="191.57" x2="134.39" y2="189.12"/><line class="cls-1" x1="134.39" y1="189.12" x2="134.39" y2="187.9"/><line class="cls-1" x1="134.39" y1="187.9" x2="134.92" y2="188.2"/><line class="cls-1" x1="125.45" y1="169.05" x2="125.99" y2="169.36"/><line class="cls-1" x1="125.99" y1="169.36" x2="125.99" y2="170.58"/><line class="cls-1" x1="125.99" y1="170.58" x2="123.86" y2="169.36"/><line class="cls-1" x1="123.86" y1="169.36" x2="123.86" y2="199.8"/><line class="cls-1" x1="123.86" y1="199.8" x2="125.99" y2="201.02"/><line class="cls-1" x1="125.99" y1="201.02" x2="125.99" y2="201.63"/><line class="cls-1" x1="125.99" y1="202.25" x2="125.45" y2="201.94"/><line class="cls-1" x1="150.4" y1="216.34" x2="149.87" y2="216.03"/><line class="cls-1" x1="149.87" y1="216.03" x2="149.87" y2="214.81"/><line class="cls-1" x1="154.11" y1="217.26" x2="154.11" y2="217.87"/><line class="cls-1" x1="154.11" y1="218.48" x2="153.58" y2="218.18"/><line class="cls-1" x1="203.47" y1="246.98" x2="202.94" y2="246.67"/><line class="cls-1" x1="202.94" y1="246.67" x2="202.94" y2="245.45"/><line class="cls-1" x1="207.18" y1="247.9" x2="207.18" y2="248.51"/><line class="cls-1" x1="207.18" y1="249.13" x2="206.65" y2="248.82"/><line class="cls-1" x1="256.54" y1="277.62" x2="256.01" y2="277.32"/><line class="cls-1" x1="256.01" y1="277.32" x2="256.01" y2="276.09"/><line class="cls-1" x1="260.25" y1="278.54" x2="260.25" y2="279.15"/><line class="cls-1" x1="260.25" y1="279.77" x2="259.72" y2="279.46"/><line class="cls-1" x1="284.67" y1="299.17" x2="284.67" y2="274.97"/><line class="cls-1" x1="284.67" y1="274.97" x2="284.67" y2="250.76"/><line class="cls-1" x1="284.67" y1="250.76" x2="270.34" y2="242.49"/><line class="cls-1" x1="270.34" y1="242.49" x2="270.34" y2="241.26"/><line class="cls-1" x1="270.34" y1="241.26" x2="270.87" y2="241.57"/><line class="cls-1" x1="259.72" y1="246.57" x2="260.25" y2="246.88"/><line class="cls-1" x1="260.25" y1="246.88" x2="260.25" y2="248.1"/><line class="cls-1" x1="260.25" y1="248.1" x2="256.01" y2="245.65"/><line class="cls-1" x1="256.01" y1="245.65" x2="256.01" y2="244.43"/><line class="cls-1" x1="256.01" y1="244.43" x2="256.54" y2="244.73"/><line class="cls-1" x1="245.39" y1="226.86" x2="245.93" y2="227.17"/><line class="cls-1" x1="245.93" y1="227.17" x2="245.93" y2="228.39"/><line class="cls-1" x1="245.93" y1="228.39" x2="217.27" y2="211.85"/><line class="cls-1" x1="217.27" y1="211.85" x2="217.27" y2="210.62"/><line class="cls-1" x1="217.27" y1="210.62" x2="217.8" y2="210.93"/><line class="cls-1" x1="206.65" y1="215.93" x2="207.18" y2="216.24"/><line class="cls-1" x1="207.18" y1="216.24" x2="207.18" y2="217.46"/><line class="cls-1" x1="207.18" y1="217.46" x2="202.94" y2="215.01"/><line class="cls-1" x1="202.94" y1="215.01" x2="202.94" y2="213.79"/><line class="cls-1" x1="202.94" y1="213.79" x2="203.47" y2="214.09"/><line class="cls-1" x1="192.32" y1="196.22" x2="192.85" y2="196.52"/><line class="cls-1" x1="192.85" y1="196.52" x2="192.85" y2="197.75"/><line class="cls-1" x1="192.85" y1="197.75" x2="164.19" y2="181.21"/><line class="cls-1" x1="164.19" y1="181.21" x2="164.19" y2="179.98"/><line class="cls-1" x1="165.79" y1="179.67" x2="164.73" y2="180.29"/><line class="cls-1" x1="166.32" y1="179.37" x2="165.79" y2="179.67"/><line class="cls-1" x1="165.79" y1="180.29" x2="164.19" y2="181.21"/><line class="cls-1" x1="194.22" y1="183.79" x2="192.63" y2="184.71"/><line class="cls-1" x1="204.53" y1="213.48" x2="203.47" y2="214.09"/><line class="cls-1" x1="204.53" y1="213.48" x2="205.06" y2="213.17"/><line class="cls-1" x1="204.53" y1="214.09" x2="202.94" y2="215.01"/><line class="cls-1" x1="208.56" y1="192.06" x2="206.96" y2="192.98"/><line class="cls-1" x1="219.39" y1="210.01" x2="218.86" y2="210.31"/><line class="cls-1" x1="218.86" y1="210.31" x2="217.8" y2="210.93"/><line class="cls-1" x1="218.86" y1="210.93" x2="217.27" y2="211.85"/><line class="cls-1" x1="247.3" y1="214.43" x2="245.71" y2="215.35"/><line class="cls-1" x1="257.6" y1="244.12" x2="256.54" y2="244.73"/><line class="cls-1" x1="257.6" y1="244.12" x2="258.13" y2="243.81"/><line class="cls-1" x1="257.6" y1="244.73" x2="256.01" y2="245.65"/><line class="cls-1" x1="261.63" y1="222.7" x2="260.03" y2="223.62"/><line class="cls-1" x1="271.93" y1="240.95" x2="272.46" y2="240.65"/><line class="cls-1" x1="271.93" y1="240.95" x2="270.87" y2="241.57"/><line class="cls-1" x1="271.93" y1="241.57" x2="270.34" y2="242.49"/><line class="cls-1" x1="286.26" y1="249.84" x2="286.26" y2="298.25"/><line class="cls-1" x1="260.25" y1="279.15" x2="259.72" y2="279.46"/><line class="cls-1" x1="257.07" y1="276.7" x2="256.01" y2="277.32"/><line class="cls-1" x1="257.82" y1="281.47" x2="256.23" y2="282.39"/><line class="cls-1" x1="207.18" y1="248.51" x2="206.65" y2="248.82"/><line class="cls-1" x1="256.8" y1="277.47" x2="257.6" y2="277.01"/><line class="cls-1" x1="204" y1="246.06" x2="202.94" y2="246.67"/><line class="cls-1" x1="204.75" y1="250.83" x2="203.16" y2="251.75"/><line class="cls-1" x1="154.11" y1="217.87" x2="153.58" y2="218.18"/><line class="cls-1" x1="204.53" y1="246.37" x2="203.73" y2="246.83"/><line class="cls-1" x1="150.93" y1="215.42" x2="149.87" y2="216.03"/><line class="cls-1" x1="151.68" y1="220.19" x2="150.09" y2="221.11"/><line class="cls-1" x1="125.99" y1="201.63" x2="125.45" y2="201.94"/><line class="cls-1" x1="150.66" y1="216.19" x2="151.46" y2="215.73"/><line class="cls-1" x1="127.36" y1="158.46" x2="125.77" y2="159.38"/><line class="cls-1" x1="135.98" y1="187.59" x2="134.92" y2="188.2"/><line class="cls-1" x1="135.98" y1="187.59" x2="136.51" y2="187.28"/><line class="cls-1" x1="135.98" y1="188.2" x2="134.39" y2="189.12"/><line class="cls-1" x1="140" y1="165.76" x2="138.41" y2="166.68"/><line class="cls-1" x1="151.46" y1="182.84" x2="150.4" y2="183.45"/><line class="cls-1" x1="151.46" y1="182.84" x2="151.99" y2="182.53"/><line class="cls-1" x1="151.46" y1="183.45" x2="149.87" y2="184.37"/><line class="cls-1" x1="155.25" y1="161.7" x2="155.19" y2="162.02"/><polygon class="cls-2" points="258.2 277.81 258.2 281.28 258.13 281.69 257.89 281.97 256.3 282.89 255.94 282.95 255.55 282.81 207.79 255.24 207.4 254.93 207.04 254.45 206.8 253.89 206.72 253.4 206.72 249.31 207.26 249.01 207.26 248.4 205.13 247.17 205.13 250.64 205.06 251.05 204.82 251.33 203.23 252.25 202.87 252.31 202.48 252.17 154.72 224.6 154.32 224.28 153.96 223.81 153.73 223.25 153.65 222.76 153.65 218.68 154.18 218.37 154.18 217.75 152.06 216.53 152.06 220 151.99 220.41 151.75 220.69 150.16 221.61 149.8 221.67 149.41 221.53 126.59 208.36 126.2 208.05 125.84 207.57 125.6 207.01 125.53 206.52 125.53 202.43 126.06 202.13 126.06 201.51 123.94 200.29 123.94 169.85 125.53 168.93 125.53 160.56 125.6 160.15 125.84 159.87 127.43 158.95 127.79 158.89 128.18 159.03 135.52 163.26 135.91 163.58 136.27 164.06 136.51 164.61 136.58 165.1 136.58 187.78 136.05 188.08 136.05 188.7 138.17 189.92 138.17 167.86 138.25 167.45 138.48 167.17 140.08 166.25 140.44 166.19 140.83 166.33 151 172.2 151.39 172.51 151.75 173 151.99 173.54 152.06 174.04 152.06 183.03 151.53 183.33 151.53 183.95 153.65 185.17 153.65 163.52 153.73 163.11 153.96 162.83 155.26 162.52 155.32 162.19 155.56 161.91 155.92 161.85 156.31 161.99 165.33 167.2 165.72 167.51 166.08 167.99 166.32 168.54 166.39 169.03 166.39 179.86 165.86 180.17 165.86 180.78 192.4 196.1 192.4 185.89 192.47 185.48 192.71 185.2 194.3 184.28 194.66 184.22 195.05 184.36 204.07 189.56 204.46 189.88 204.82 190.36 205.06 190.91 205.13 191.4 205.13 213.67 204.6 213.97 204.6 214.59 206.72 215.81 206.72 194.16 206.8 193.75 207.04 193.47 208.63 192.55 208.99 192.49 209.38 192.63 218.4 197.84 218.79 198.15 219.15 198.63 219.39 199.18 219.46 199.68 219.46 210.5 218.93 210.81 218.93 211.42 245.47 226.74 245.47 216.53 245.54 216.12 245.78 215.84 247.37 214.92 247.73 214.86 248.12 215 257.14 220.21 257.53 220.52 257.89 221 258.13 221.55 258.2 222.04 258.2 244.31 257.67 244.61 257.67 245.23 259.8 246.46 259.8 224.8 259.87 224.39 260.11 224.12 261.7 223.19 262.06 223.13 262.45 223.27 271.47 228.48 271.86 228.79 272.22 229.27 272.46 229.82 272.53 230.32 272.53 241.14 272 241.45 272 242.06 286.33 250.34 286.33 298.75 284.74 299.67 260.86 285.88 260.47 285.57 260.11 285.09 259.87 284.53 259.8 284.04 259.8 279.96 260.33 279.65 260.33 279.04 258.2 277.81"/></svg>