<svg id="Layer_1" data-name="Layer 1" xmlns="http://www.w3.org/2000/svg" viewBox="0 0 425.2 425.2"><defs><style>.cls-1,.cls-4{fill:none;stroke:#1d1d1b;stroke-miterlimit:10;}.cls-1{stroke-width:0.5px;}.cls-2{font-size:6px;}.cls-2,.cls-3{fill:#1d1d1b;font-family:Monotxt;}.cls-3{font-size:8.47px;}.cls-4{stroke-width:0.25px;}</style></defs><g id="POLYLINE"><path class="cls-1" d="M44.6,239a1.1,1.1,0,0,1-.07.36.9.9,0,0,1-1.19.47l-9.24-4H28.69l-9.24,4a.91.91,0,0,1-1.26-.83v-6.93a3,3,0,1,1,0-6v-6.93a1,1,0,0,1,.07-.36.9.9,0,0,1,1.19-.47l9.24,4H34.1l9.24-4a.91.91,0,0,1,1.26.83v6.93a3,3,0,1,1,0,6Z"/></g><g id="POLYLINE-2" data-name="POLYLINE"><path class="cls-1" d="M44.6,213.53a1,1,0,0,1-.07.36.9.9,0,0,1-1.19.47l-9.24-4H28.69l-9.24,4a.89.89,0,0,1-1.26-.83V206.6a3,3,0,0,1,0-6v-6.93a1.1,1.1,0,0,1,.07-.36.92.92,0,0,1,1.19-.47l9.24,4H34.1l9.24-4a.91.91,0,0,1,1.26.83v6.93a3,3,0,0,1,0,6Z"/></g><g id="POLYLINE-3" data-name="POLYLINE"><path class="cls-1" d="M44.6,188a1,1,0,0,1-.07.35.9.9,0,0,1-1.19.47l-9.24-4H28.69l-9.24,4a.89.89,0,0,1-1.26-.82v-6.94a3,3,0,0,1,0-6v-6.93a1.15,1.15,0,0,1,.07-.36.92.92,0,0,1,1.19-.47l9.24,4H34.1l9.24-4a1.1,1.1,0,0,1,.36-.07.9.9,0,0,1,.9.9v6.93a3,3,0,0,1,0,6Z"/></g><g id="POLYLINE-4" data-name="POLYLINE"><path class="cls-1" d="M44.6,162.52a1,1,0,0,1-.07.35.9.9,0,0,1-1.19.47l-9.24-4H28.69l-9.24,4a.89.89,0,0,1-1.26-.82v-6.94a3,3,0,0,1,0-6v-6.93a1.15,1.15,0,0,1,.07-.36.92.92,0,0,1,1.19-.47l9.24,4H34.1l9.24-4a1.1,1.1,0,0,1,.36-.07.9.9,0,0,1,.9.9v6.93a3,3,0,0,1,0,6Z"/></g><g id="POLYLINE-5" data-name="POLYLINE"><path class="cls-1" d="M44.6,137a1.15,1.15,0,0,1-.07.36.91.91,0,0,1-1.19.46l-9.24-4H28.69l-9.24,4a.89.89,0,0,1-1.26-.82v-6.93a3,3,0,0,1,0-6v-6.93a1.15,1.15,0,0,1,.07-.36.91.91,0,0,1,1.19-.46l9.24,4H34.1l9.24-4a.89.89,0,0,1,1.26.82v6.93a3,3,0,0,1,0,6Z"/></g><g id="POLYLINE-6" data-name="POLYLINE"><path class="cls-1" d="M44.6,111.5a1.15,1.15,0,0,1-.07.36.91.91,0,0,1-1.19.46l-9.24-4H28.69l-9.24,4a.89.89,0,0,1-1.26-.82v-6.93a3,3,0,0,1,0-6V91.63a1.15,1.15,0,0,1,.07-.36.91.91,0,0,1,1.19-.46l9.24,4H34.1l9.24-4a.89.89,0,0,1,1.26.82v6.93a3,3,0,0,1,0,6Z"/></g><g id="POLYLINE-7" data-name="POLYLINE"><path class="cls-1" d="M44.6,86a1.15,1.15,0,0,1-.07.36.91.91,0,0,1-1.19.46l-9.24-4H28.69l-9.24,4A.89.89,0,0,1,18.19,86V79.06a3,3,0,0,1,0-6V66.12a1,1,0,0,1,.07-.35.9.9,0,0,1,1.19-.47l9.24,4H34.1l9.24-4a.89.89,0,0,1,1.26.82v6.93a3,3,0,0,1,0,6Z"/></g><g id="POLYLINE-8" data-name="POLYLINE"><path class="cls-1" d="M44.6,60.48a1.15,1.15,0,0,1-.07.36.92.92,0,0,1-1.19.47l-9.24-4H28.69l-9.24,4a1.1,1.1,0,0,1-.36.07.9.9,0,0,1-.9-.9V53.55a3,3,0,0,1,0-6V40.61a1,1,0,0,1,.07-.35.9.9,0,0,1,1.19-.47l9.24,4H34.1l9.24-4a.89.89,0,0,1,1.26.82v6.94a3,3,0,1,1,0,6Z"/></g><g id="POLYLINE-9" data-name="POLYLINE"><path class="cls-1" d="M44.6,392.1a1,1,0,0,1-.07.35.9.9,0,0,1-1.19.47l-9.24-4H28.69l-9.24,4a.89.89,0,0,1-1.26-.82v-6.94a3,3,0,1,1,0-6v-6.93a1.15,1.15,0,0,1,.07-.36.92.92,0,0,1,1.19-.47l9.24,4H34.1l9.24-4a1.1,1.1,0,0,1,.36-.07.9.9,0,0,1,.9.9v6.93a3,3,0,1,1,0,6Z"/></g><g id="POLYLINE-10" data-name="POLYLINE"><path class="cls-1" d="M44.6,366.59a1.15,1.15,0,0,1-.07.36.91.91,0,0,1-1.19.46l-9.24-4H28.69l-9.24,4a.89.89,0,0,1-1.26-.82v-6.93a3,3,0,0,1,0-6v-6.93a1.15,1.15,0,0,1,.07-.36.91.91,0,0,1,1.19-.46l9.24,4H34.1l9.24-4a.89.89,0,0,1,1.26.82v6.93a3,3,0,0,1,0,6Z"/></g><g id="POLYLINE-11" data-name="POLYLINE"><path class="cls-1" d="M44.6,341.08a1.15,1.15,0,0,1-.07.36.91.91,0,0,1-1.19.46l-9.24-4H28.69l-9.24,4a.89.89,0,0,1-1.26-.82v-6.93a3,3,0,0,1,0-6v-6.93a1.15,1.15,0,0,1,.07-.36.91.91,0,0,1,1.19-.46l9.24,4H34.1l9.24-4a.89.89,0,0,1,1.26.82v6.93a3,3,0,0,1,0,6Z"/></g><g id="POLYLINE-12" data-name="POLYLINE"><path class="cls-1" d="M44.6,315.57a1.15,1.15,0,0,1-.07.36.92.92,0,0,1-1.19.47l-9.24-4H28.69l-9.24,4a1.1,1.1,0,0,1-.36.07.9.9,0,0,1-.9-.9v-6.93a3,3,0,1,1,0-6V295.7a1,1,0,0,1,.07-.35.9.9,0,0,1,1.19-.47l9.24,4H34.1l9.24-4a.89.89,0,0,1,1.26.82v6.94a3,3,0,1,1,0,6Z"/></g><g id="POLYLINE-13" data-name="POLYLINE"><path class="cls-1" d="M44.6,290.06a1.15,1.15,0,0,1-.07.36.92.92,0,0,1-1.19.47l-9.24-4H28.69l-9.24,4a1.1,1.1,0,0,1-.36.07.9.9,0,0,1-.9-.9v-6.93a3,3,0,1,1,0-6v-6.94a1,1,0,0,1,.07-.35.9.9,0,0,1,1.19-.47l9.24,4H34.1l9.24-4a.89.89,0,0,1,1.26.82v6.94a3,3,0,1,1,0,6Z"/></g><g id="POLYLINE-14" data-name="POLYLINE"><path class="cls-1" d="M44.6,264.55a1.1,1.1,0,0,1-.07.36.92.92,0,0,1-1.19.47l-9.24-4H28.69l-9.24,4a.91.91,0,0,1-1.26-.83v-6.93a3,3,0,1,1,0-6v-6.94a1,1,0,0,1,.07-.35.9.9,0,0,1,1.19-.47l9.24,4H34.1l9.24-4a.89.89,0,0,1,1.26.82v6.94a3,3,0,1,1,0,6Z"/></g><g id="POLYLINE-15" data-name="POLYLINE"><path class="cls-1" d="M148.19,218.9h3.6v1.87h-.9v7.58h.9v1.88h-3.6v14.93h3.6V247h-.9v6.36l9.2-4h0a.77.77,0,0,1,.37-.08.94.94,0,0,1,.94.94v19.86a.91.91,0,0,1-.08.37.93.93,0,0,1-1.23.49l-9.2-4v6.36h.9v1.87h-3.6v14.93h3.6v1.88h-.9v7.58h.9v1.87h-3.6v7.43h3.6v1.87h-.9v7.58h.9v1.88h-3.6v14.93h3.6v1.87h-.9v6.36l9.2-4h0a.91.91,0,0,1,.37-.08.94.94,0,0,1,.94.94v19.86a1,1,0,0,1-.08.38.93.93,0,0,1-1.23.48l-9.2-4v6.36h.9v1.87h-3.6V380.2h3.6v1.88h-.9v13.13h14.48v-3.6h1.88v.9h4.46v-2.7h-.9V388H178v1.8h-.9v2.7h4.47v-.9h1.87v3.6h9.68V382.08h-.9V380.2h3.6V365.27h-3.6V363.4h.9v-7.58h-.9V354h3.6v-7.43h-3.6v-1.88h.9v-7.58h-.9v-1.87h3.6V320.26h-3.6v-1.88h.9V310.8h-.9v-1.87h3.6V301.5h-3.6v-1.87h.9v-7.58h-.9v-1.88h3.6V275.24h-3.6v-1.87h.9v-7.58h-.9v-1.88h3.6v-7.43h-3.6v-1.87h.9V247h-.9v-1.87h3.6V230.23h-3.6v-1.88h.9v-7.58h-.9V218.9h3.6v-7.43h-3.6v-1.88h.9V202h-.9v-1.88h3.6V185.21h-3.6v-1.88h.9v-7.57h-.9v-1.88h3.6v-7.43h-3.6v-1.87h.9V157h-.9v-1.88h3.6V140.19h-3.6v-1.87h.9v-7.58h-.9v-1.88h3.6v-7.42h-3.6v-1.88h.9V112h-.9v-1.87h3.6V95.18h-3.6V93.3h.9V80.17h-9.68v3.6h-1.87v-.9h-4.47v2.7h.9v1.8h-7.2v-1.8h.9v-2.7h-4.46v.9h-1.88v-3.6H150.89V93.3h.9v1.88h-3.6v14.93h3.6V112h-.9v7.58h.9v1.88h-3.6v7.42h3.6v1.88h-.9v7.58h.9v1.87h-3.6v14.93h3.6V157h-.9v6.36l9.2-4h0a.9.9,0,0,1,.37-.07.94.94,0,0,1,.94.93V180.1a1,1,0,0,1-.08.37.93.93,0,0,1-1.23.49l-9.2-4v6.35h.9v1.88h-3.6v14.93h3.6V202h-.9v7.57h.9v1.88h-3.6"/></g><g id="POLYLINE-16" data-name="POLYLINE"><path class="cls-1" d="M99,95.1h3.61V97h-.9v11.33h.9v1.87H99v29.94h3.61V142h-.9v11.33h.9v1.88H99v29.93h3.61V187h-.9v11.33h.9v1.87H99v29.94h3.61V232h-.9v11.33h.9v1.87H99v29.94h3.61V277h-.9v11.33h.9v1.88H99v29.93h3.61v1.88h-.9v11.33h.9v1.87H99V365.2h3.61v1.87h-.9V378.4h.9v1.88H99v14.93h12.38v-3.6h1.88v.9h4.46v-2.7h-.9V388H124v1.8h-.9v2.7h4.47v-.9h1.87v3.6h14.48V382.08H143V380.2h3.61V365.27H143V363.4h.9V357l-9.19,4h0a.8.8,0,0,1-.37.08.94.94,0,0,1-.94-.94V340.3a.91.91,0,0,1,.08-.37.93.93,0,0,1,1.23-.49l9.19,4v-6.36H143v-1.87h3.61V320.26H143v-1.88h.9V310.8H143v-1.87h3.61V301.5H143v-1.87h.9v-7.58H143v-1.88h3.61V275.24H143v-1.87h.9V267l-9.19,4h0a.93.93,0,0,1-1.31-.86V250.27a1,1,0,0,1,.08-.38.93.93,0,0,1,1.23-.48l9.19,4V247H143v-1.87h3.61V230.23H143v-1.88h.9v-7.58H143V218.9h3.61v-7.43H143v-1.88h.9V202H143v-1.88h3.61V185.21H143v-1.88h.9V177l-9.19,4h0a.93.93,0,0,1-1.31-.86V160.23a1,1,0,0,1,.08-.37.94.94,0,0,1,1.23-.49l9.19,4V157H143v-1.88h3.61V140.19H143v-1.87h.9v-7.58H143v-1.88h3.61v-7.42H143v-1.88h.9V112H143v-1.87h3.61V95.18H143V93.3h.9V80.17H129.43v3.6h-1.87v-.9h-4.47v2.7h.9v1.8h-7.2v-1.8h.9v-2.7h-4.46v.9h-1.88v-3.6H99V95.1Z"/></g><g id="POLYLINE-17" data-name="POLYLINE"><polygon class="cls-1" points="73.65 82.87 73.65 85.57 74.55 85.57 74.55 87.37 67.35 87.37 67.35 85.57 68.25 85.57 68.25 82.87 63.79 82.87 63.79 83.77 61.91 83.77 61.91 80.17 49.53 80.17 49.53 95.1 53.13 95.1 53.13 96.98 52.23 96.98 52.23 108.31 53.13 108.31 53.13 110.18 49.53 110.18 49.53 140.12 53.13 140.12 53.13 141.99 52.23 141.99 52.23 153.32 53.13 153.32 53.13 155.2 49.53 155.2 49.53 163.38 53.13 163.38 53.13 165.25 52.23 165.25 52.23 166.98 53.13 166.98 53.13 168.85 49.53 168.85 49.53 171.48 53.13 171.48 53.13 173.35 52.23 173.35 52.23 175.08 53.13 175.08 53.13 176.96 49.53 176.96 49.53 185.13 53.13 185.13 53.13 187.01 52.23 187.01 52.23 198.34 53.13 198.34 53.13 200.21 49.53 200.21 49.53 230.15 53.13 230.15 53.13 232.03 52.23 232.03 52.23 243.35 53.13 243.35 53.13 245.23 49.53 245.23 49.53 253.41 53.13 253.41 53.13 255.28 52.23 255.28 52.23 257.01 53.13 257.01 53.13 258.89 49.53 258.89 49.53 261.51 53.13 261.51 53.13 263.39 52.23 263.39 52.23 265.11 53.13 265.11 53.13 266.99 49.53 266.99 49.53 275.17 53.13 275.17 53.13 277.04 52.23 277.04 52.23 288.37 53.13 288.37 53.13 290.25 49.53 290.25 49.53 320.18 53.13 320.18 53.13 322.06 52.23 322.06 52.23 333.39 53.13 333.39 53.13 335.26 49.53 335.26 49.53 343.44 53.13 343.44 53.13 345.32 52.23 345.32 52.23 347.04 53.13 347.04 53.13 348.92 49.53 348.92 49.53 351.54 53.13 351.54 53.13 353.42 52.23 353.42 52.23 355.15 53.13 355.15 53.13 357.02 49.53 357.02 49.53 365.2 53.13 365.2 53.13 367.07 52.23 367.07 52.23 378.4 53.13 378.4 53.13 380.28 49.53 380.28 49.53 395.21 61.91 395.21 61.91 391.61 63.79 391.61 63.79 392.51 68.25 392.51 68.25 389.81 67.35 389.81 67.35 388.01 74.55 388.01 74.55 389.81 73.65 389.81 73.65 392.51 78.12 392.51 78.12 391.61 79.99 391.61 79.99 395.21 97.17 395.21 97.17 380.28 93.57 380.28 93.57 378.4 94.47 378.4 94.47 367.07 93.57 367.07 93.57 365.2 97.17 365.2 97.17 335.26 93.57 335.26 93.57 333.39 94.47 333.39 94.47 322.06 93.57 322.06 93.57 320.18 97.17 320.18 97.17 290.25 93.57 290.25 93.57 288.37 94.47 288.37 94.47 277.04 93.57 277.04 93.57 275.17 97.17 275.17 97.17 245.23 93.57 245.23 93.57 243.35 94.47 243.35 94.47 232.03 93.57 232.03 93.57 230.15 97.17 230.15 97.17 200.21 93.57 200.21 93.57 198.34 94.47 198.34 94.47 187.01 93.57 187.01 93.57 185.13 97.17 185.13 97.17 155.2 93.57 155.2 93.57 153.32 94.47 153.32 94.47 141.99 93.57 141.99 93.57 140.12 97.17 140.12 97.17 110.18 93.57 110.18 93.57 108.31 94.47 108.31 94.47 96.98 93.57 96.98 93.57 95.1 97.17 95.1 97.17 80.17 79.99 80.17 79.99 83.77 78.12 83.77 78.12 82.87 73.65 82.87"/></g><g id="POLYLINE-18" data-name="POLYLINE"><path class="cls-1" d="M233.17,45a.9.9,0,0,0-.9.9v7.2a.9.9,0,0,0,.9.9l42,.07V44.88Z"/></g><g id="POLYLINE-19" data-name="POLYLINE"><path class="cls-1" d="M233.07,55.91a.9.9,0,0,0-.9.9V64a.9.9,0,0,0,.9.9l42,.08V55.83Z"/></g><g id="POLYLINE-20" data-name="POLYLINE"><path class="cls-1" d="M233.07,66.86a.9.9,0,0,0-.9.9V75a.9.9,0,0,0,.9.9l42,.07V66.79Z"/></g><g id="POLYLINE-21" data-name="POLYLINE"><path class="cls-1" d="M233.26,34a.9.9,0,0,0-.9.9v7.2a.91.91,0,0,0,.9.91l42,.07V33.93Z"/></g><g id="POLYLINE-22" data-name="POLYLINE"><polygon class="cls-1" points="262.52 392.51 258.05 392.51 258.05 389.81 258.95 389.81 258.95 388.01 251.75 388.01 251.75 389.81 252.65 389.81 252.65 392.51 248.19 392.51 248.19 391.61 246.31 391.61 246.31 395.21 231.83 395.21 231.83 382.08 232.73 382.08 232.73 380.2 229.13 380.2 229.13 365.27 232.73 365.27 232.73 363.4 231.83 363.4 231.83 355.82 232.73 355.82 232.73 353.94 229.13 353.94 229.13 346.52 232.73 346.52 232.73 344.64 231.83 344.64 231.83 337.06 232.73 337.06 232.73 335.19 229.13 335.19 229.13 320.26 232.73 320.26 232.73 318.38 231.83 318.38 231.83 310.8 232.73 310.8 232.73 308.93 229.13 308.93 229.13 301.5 232.73 301.5 232.73 299.63 231.83 299.63 231.83 292.05 232.73 292.05 232.73 290.17 229.13 290.17 229.13 275.24 232.73 275.24 232.73 273.37 231.83 273.37 231.83 265.79 232.73 265.79 232.73 263.91 229.13 263.91 229.13 256.49 232.73 256.49 232.73 254.61 231.83 254.61 231.83 247.03 232.73 247.03 232.73 245.16 229.13 245.16 229.13 230.22 232.73 230.22 232.73 228.35 231.83 228.35 231.83 220.77 232.73 220.77 232.73 218.9 229.13 218.9 229.13 211.47 232.73 211.47 232.73 209.59 231.83 209.59 231.83 202.01 232.73 202.01 232.73 200.14 229.13 200.14 229.13 185.21 232.73 185.21 232.73 183.33 231.83 183.33 231.83 175.76 232.73 175.76 232.73 173.88 229.13 173.88 229.13 166.45 232.73 166.45 232.73 164.58 231.83 164.58 231.83 157 232.73 157 232.73 155.12 229.13 155.12 229.13 140.19 232.73 140.19 232.73 138.32 231.83 138.32 231.83 130.74 232.73 130.74 232.73 128.86 229.13 128.86 229.13 121.44 232.73 121.44 232.73 119.56 231.83 119.56 231.83 111.98 232.73 111.98 232.73 110.11 229.13 110.11 229.13 95.18 232.73 95.18 232.73 93.3 231.83 93.3 231.83 80.17 246.31 80.17 246.31 83.77 248.19 83.77 248.19 82.87 252.65 82.87 252.65 85.57 251.75 85.57 251.75 87.37 258.95 87.37 258.95 85.57 258.05 85.57 258.05 82.87 262.52 82.87 262.52 83.77 264.39 83.77 264.39 80.17 276.77 80.17 276.77 95.1 273.17 95.1 273.17 96.98 274.07 96.98 274.07 108.31 273.17 108.31 273.17 110.18 276.77 110.18 276.77 118.36 273.17 118.36 273.17 120.24 274.07 120.24 274.07 121.96 273.17 121.96 273.17 123.84 276.77 123.84 276.77 126.46 273.17 126.46 273.17 128.34 274.07 128.34 274.07 130.06 273.17 130.06 273.17 131.94 276.77 131.94 276.77 140.12 273.17 140.12 273.17 141.99 274.07 141.99 274.07 153.32 273.17 153.32 273.17 155.2 276.77 155.2 276.77 185.13 273.17 185.13 273.17 187.01 274.07 187.01 274.07 198.34 273.17 198.34 273.17 200.21 276.77 200.21 276.77 208.39 273.17 208.39 273.17 210.27 274.07 210.27 274.07 211.99 273.17 211.99 273.17 213.87 276.77 213.87 276.77 216.5 273.17 216.5 273.17 218.37 274.07 218.37 274.07 220.1 273.17 220.1 273.17 221.97 276.77 221.97 276.77 230.15 273.17 230.15 273.17 232.03 274.07 232.03 274.07 243.35 273.17 243.35 273.17 245.23 276.77 245.23 276.77 275.17 273.17 275.17 273.17 277.04 274.07 277.04 274.07 288.37 273.17 288.37 273.17 290.25 276.77 290.25 276.77 298.43 273.17 298.43 273.17 300.3 274.07 300.3 274.07 302.03 273.17 302.03 273.17 303.9 276.77 303.9 276.77 306.53 273.17 306.53 273.17 308.4 274.07 308.4 274.07 310.13 273.17 310.13 273.17 312 276.77 312 276.77 320.18 273.17 320.18 273.17 322.06 274.07 322.06 274.07 333.39 273.17 333.39 273.17 335.26 276.77 335.26 276.77 365.2 273.17 365.2 273.17 367.07 274.07 367.07 274.07 378.4 273.17 378.4 273.17 380.28 276.77 380.28 276.77 395.21 264.39 395.21 264.39 391.61 262.52 391.61 262.52 392.51"/></g><g id="POLYLINE-23" data-name="POLYLINE"><polygon class="cls-1" points="32.67 227.71 30.11 227.72 30.11 226.85 28.69 226.85 28.69 231.36 30.11 231.36 30.11 230.5 32.67 230.49 32.67 231.35 34.1 231.35 34.1 226.84 32.67 226.84 32.67 227.71"/></g><g id="POLYLINE-24" data-name="POLYLINE"><polygon class="cls-1" points="32.67 202.2 30.11 202.21 30.11 201.35 28.69 201.35 28.69 205.85 30.11 205.85 30.11 204.99 32.67 204.98 32.67 205.84 34.1 205.84 34.1 201.34 32.67 201.34 32.67 202.2"/></g><g id="POLYLINE-25" data-name="POLYLINE"><polygon class="cls-1" points="32.67 176.69 30.11 176.71 30.11 175.84 28.69 175.84 28.69 180.35 30.11 180.35 30.11 179.48 32.67 179.47 32.67 180.34 34.1 180.34 34.1 175.83 32.67 175.83 32.67 176.69"/></g><g id="POLYLINE-26" data-name="POLYLINE"><polygon class="cls-1" points="32.67 151.19 30.11 151.2 30.11 150.33 28.69 150.33 28.69 154.84 30.11 154.84 30.11 153.97 32.67 153.96 32.67 154.83 34.1 154.83 34.1 150.32 32.67 150.32 32.67 151.19"/></g><g id="POLYLINE-27" data-name="POLYLINE"><polygon class="cls-1" points="32.67 125.68 30.11 125.69 30.11 124.82 28.69 124.82 28.69 129.33 30.11 129.33 30.11 128.46 32.67 128.45 32.67 129.32 34.1 129.32 34.1 124.81 32.67 124.81 32.67 125.68"/></g><g id="POLYLINE-28" data-name="POLYLINE"><polygon class="cls-1" points="32.67 100.17 30.11 100.18 30.11 99.31 28.69 99.31 28.69 103.82 30.11 103.82 30.11 102.95 32.67 102.94 32.67 103.81 34.1 103.81 34.1 99.3 32.67 99.3 32.67 100.17"/></g><g id="POLYLINE-29" data-name="POLYLINE"><polygon class="cls-1" points="32.67 74.66 30.11 74.67 30.11 73.8 28.69 73.8 28.69 78.31 30.11 78.31 30.11 77.44 32.67 77.43 32.67 78.3 34.1 78.3 34.1 73.79 32.67 73.79 32.67 74.66"/></g><g id="POLYLINE-30" data-name="POLYLINE"><polygon class="cls-1" points="32.67 49.15 30.11 49.16 30.11 48.29 28.69 48.29 28.69 52.8 30.11 52.8 30.11 51.94 32.67 51.92 32.67 52.79 34.1 52.79 34.1 48.28 32.67 48.28 32.67 49.15"/></g><g id="POLYLINE-31" data-name="POLYLINE"><polygon class="cls-1" points="32.67 380.76 30.11 380.78 30.11 379.91 28.69 379.91 28.69 384.42 30.11 384.42 30.11 383.55 32.67 383.54 32.67 384.41 34.1 384.41 34.1 379.9 32.67 379.9 32.67 380.76"/></g><g id="POLYLINE-32" data-name="POLYLINE"><polygon class="cls-1" points="32.67 355.26 30.11 355.27 30.11 354.4 28.69 354.4 28.69 358.91 30.11 358.91 30.11 358.04 32.67 358.03 32.67 358.9 34.1 358.9 34.1 354.39 32.67 354.39 32.67 355.26"/></g><g id="POLYLINE-33" data-name="POLYLINE"><polygon class="cls-1" points="32.67 329.75 30.11 329.76 30.11 328.89 28.69 328.89 28.69 333.4 30.11 333.4 30.11 332.53 32.67 332.52 32.67 333.39 34.1 333.39 34.1 328.88 32.67 328.88 32.67 329.75"/></g><g id="POLYLINE-34" data-name="POLYLINE"><polygon class="cls-1" points="32.67 304.24 30.11 304.25 30.11 303.38 28.69 303.38 28.69 307.89 30.11 307.89 30.11 307.02 32.67 307.01 32.67 307.88 34.1 307.88 34.1 303.37 32.67 303.37 32.67 304.24"/></g><g id="POLYLINE-35" data-name="POLYLINE"><polygon class="cls-1" points="32.67 278.73 30.11 278.74 30.11 277.87 28.69 277.87 28.69 282.38 30.11 282.38 30.11 281.51 32.67 281.5 32.67 282.37 34.1 282.37 34.1 277.86 32.67 277.86 32.67 278.73"/></g><g id="POLYLINE-36" data-name="POLYLINE"><polygon class="cls-1" points="32.67 253.22 30.11 253.23 30.11 252.36 28.69 252.36 28.69 256.87 30.11 256.87 30.11 256.01 32.67 256 32.67 256.86 34.1 256.86 34.1 252.35 32.67 252.35 32.67 253.22"/></g><g id="POLYLINE-37" data-name="POLYLINE"><path class="cls-1" d="M101.68,121.4v7.5a.72.72,0,0,1-1.43,0v-7.5a.72.72,0,0,1,1.43,0Z"/></g><g id="POLYLINE-38" data-name="POLYLINE"><path class="cls-1" d="M101.68,166.41v7.51a.72.72,0,0,1-1.43,0v-7.51a.72.72,0,0,1,1.43,0Z"/></g><g id="POLYLINE-39" data-name="POLYLINE"><path class="cls-1" d="M101.68,211.43v7.5a.72.72,0,1,1-1.43,0v-7.5a.72.72,0,0,1,1.43,0Z"/></g><g id="POLYLINE-40" data-name="POLYLINE"><path class="cls-1" d="M101.68,256.45V264a.72.72,0,0,1-1.43,0v-7.5a.72.72,0,1,1,1.43,0Z"/></g><g id="POLYLINE-41" data-name="POLYLINE"><path class="cls-1" d="M101.68,301.46V309a.72.72,0,0,1-1.43,0v-7.51a.72.72,0,0,1,1.43,0Z"/></g><g id="POLYLINE-42" data-name="POLYLINE"><path class="cls-1" d="M101.68,346.48V354a.72.72,0,1,1-1.43,0v-7.5a.72.72,0,0,1,1.43,0Z"/></g><g id="POLYLINE-43" data-name="POLYLINE"><path class="cls-1" d="M52.23,309a.71.71,0,0,1-1.42,0v-7.51a.71.71,0,0,1,1.42,0Z"/></g><g id="POLYLINE-44" data-name="POLYLINE"><path class="cls-1" d="M52.23,218.93a.71.71,0,1,1-1.42,0v-7.5a.71.71,0,1,1,1.42,0Z"/></g><g id="POLYLINE-45" data-name="POLYLINE"><path class="cls-1" d="M52.23,128.9a.71.71,0,0,1-1.42,0v-7.5a.71.71,0,0,1,1.42,0Z"/></g><g id="POLYLINE-46" data-name="POLYLINE"><path class="cls-1" d="M94.47,354v-7.5a.72.72,0,0,1,1.43,0V354a.72.72,0,1,1-1.43,0Z"/></g><g id="POLYLINE-47" data-name="POLYLINE"><path class="cls-1" d="M94.47,309v-7.51a.72.72,0,0,1,1.43,0V309a.72.72,0,0,1-1.43,0Z"/></g><g id="POLYLINE-48" data-name="POLYLINE"><path class="cls-1" d="M94.47,264v-7.5a.72.72,0,1,1,1.43,0V264a.72.72,0,0,1-1.43,0Z"/></g><g id="POLYLINE-49" data-name="POLYLINE"><path class="cls-1" d="M94.47,218.93v-7.5a.72.72,0,0,1,1.43,0v7.5a.72.72,0,1,1-1.43,0Z"/></g><g id="POLYLINE-50" data-name="POLYLINE"><path class="cls-1" d="M94.47,173.92v-7.51a.72.72,0,0,1,1.43,0v7.51a.72.72,0,0,1-1.43,0Z"/></g><g id="POLYLINE-51" data-name="POLYLINE"><path class="cls-1" d="M94.47,128.9v-7.5a.72.72,0,0,1,1.43,0v7.5a.72.72,0,0,1-1.43,0Z"/></g><g id="POLYLINE-52" data-name="POLYLINE"><path class="cls-1" d="M274.07,354a.72.72,0,1,0,1.43,0v-7.5a.72.72,0,0,0-1.43,0Z"/></g><g id="POLYLINE-53" data-name="POLYLINE"><path class="cls-1" d="M274.07,264a.72.72,0,0,0,1.43,0v-7.5a.72.72,0,1,0-1.43,0Z"/></g><g id="POLYLINE-54" data-name="POLYLINE"><path class="cls-1" d="M274.07,173.92a.72.72,0,0,0,1.43,0v-7.51a.72.72,0,0,0-1.43,0Z"/></g><g id="MTEXT"><text class="cls-2" transform="translate(119.9 217.75) rotate(90)">CORNER-S/A</text></g><g id="MTEXT-2" data-name="MTEXT"><text class="cls-2" transform="translate(174.71 255.64) rotate(-90)">CORNER-S/B</text></g><g id="MTEXT-3" data-name="MTEXT"><text class="cls-2" transform="translate(71.65 218.63) rotate(90)">CORNER-S/C</text></g><g id="MTEXT-4" data-name="MTEXT"><text class="cls-3" transform="translate(239.1 52.6)">&lt;PEG</text></g><g id="MTEXT-5" data-name="MTEXT"><text class="cls-3" transform="translate(239 63.56)">&lt;PEG</text></g><g id="MTEXT-6" data-name="MTEXT"><text class="cls-3" transform="translate(239 74.51)">&lt;PEG</text></g><g id="MTEXT-7" data-name="MTEXT"><text class="cls-3" transform="translate(239.2 41.65)">&lt;PEG</text></g><g id="MTEXT-8" data-name="MTEXT"><text class="cls-2" transform="translate(254.93 256.77) rotate(-90)">CORNER-S/D</text></g><g id="POLYLINE-55" data-name="POLYLINE"><rect class="cls-4" x="13.67" y="30.62" width="183.07" height="366.13"/></g><g id="POLYLINE-56" data-name="POLYLINE"><rect class="cls-4" x="226.74" y="30.62" width="183.07" height="366.13"/></g></svg>