<svg id="Layer_1" data-name="Layer 1" xmlns="http://www.w3.org/2000/svg" viewBox="0 0 425.2 425.2"><defs><style>.cls-1,.cls-3{fill:none;stroke:#1d1d1b;stroke-miterlimit:10;}.cls-1{stroke-width:0.5px;}.cls-2{font-size:6px;fill:#1d1d1b;font-family:Monotxt;}.cls-3{stroke-width:0.25px;}</style></defs><g id="POLYLINE"><polygon class="cls-1" points="248.39 389.72 252.85 389.72 252.85 387.02 251.96 387.02 251.96 385.22 259.15 385.22 259.15 387.02 258.25 387.02 258.25 389.72 262.72 389.72 262.72 388.82 264.59 388.82 264.59 392.42 276.97 392.42 276.97 377.49 273.37 377.49 273.37 375.62 274.27 375.62 274.27 364.29 273.37 364.29 273.37 362.42 276.97 362.42 276.97 354.24 273.37 354.24 273.37 352.37 274.27 352.37 274.27 350.64 273.37 350.64 273.37 348.77 276.97 348.77 276.97 346.14 273.37 346.14 273.37 344.27 274.27 344.27 274.27 342.54 273.37 342.54 273.37 340.67 276.97 340.67 276.97 332.49 273.37 332.49 273.37 330.62 274.27 330.62 274.27 319.29 273.37 319.29 273.37 317.42 276.97 317.42 276.97 287.49 273.37 287.49 273.37 285.62 274.27 285.62 274.27 274.29 273.37 274.29 273.37 272.42 276.97 272.42 276.97 264.24 273.37 264.24 273.37 262.37 274.27 262.37 274.27 260.64 273.37 260.64 273.37 258.77 276.97 258.77 276.97 256.14 273.37 256.14 273.37 254.27 274.27 254.27 274.27 252.54 273.37 252.54 273.37 250.67 276.97 250.67 276.97 242.49 273.37 242.49 273.37 240.62 274.27 240.62 274.27 229.29 273.37 229.29 273.37 227.42 276.97 227.42 276.97 197.49 273.37 197.49 273.37 195.62 274.27 195.62 274.27 184.29 273.37 184.29 273.37 182.42 276.97 182.42 276.97 174.24 273.37 174.24 273.37 172.37 274.27 172.37 274.27 170.64 273.37 170.64 273.37 168.77 276.97 168.77 276.97 166.14 273.37 166.14 273.37 164.27 274.27 164.27 274.27 162.54 273.37 162.54 273.37 160.67 276.97 160.67 276.97 152.49 273.37 152.49 273.37 150.62 274.27 150.62 274.27 139.29 273.37 139.29 273.37 137.42 276.97 137.42 276.97 107.49 273.37 107.49 273.37 105.62 274.27 105.62 274.27 94.29 273.37 94.29 273.37 92.42 276.97 92.42 276.97 84.24 273.37 84.24 273.37 82.37 274.27 82.37 274.27 80.64 273.37 80.64 273.37 78.77 276.97 78.77 276.97 76.14 273.37 76.14 273.37 74.27 274.27 74.27 274.27 72.54 273.37 72.54 273.37 70.67 276.97 70.67 276.97 62.49 273.37 62.49 273.37 60.62 274.27 60.62 274.27 49.29 273.37 49.29 273.37 47.42 276.97 47.42 276.97 32.49 264.59 32.49 264.59 36.09 262.72 36.09 262.72 35.19 258.25 35.19 258.25 37.89 259.15 37.89 259.15 39.69 251.96 39.69 251.96 37.89 252.85 37.89 252.85 35.19 248.39 35.19 248.39 36.09 246.52 36.09 246.52 32.49 232.04 32.49 232.04 45.62 232.94 45.62 232.94 47.49 229.34 47.49 229.34 62.42 232.94 62.42 232.94 64.29 232.04 64.29 232.04 71.87 232.94 71.87 232.94 73.74 229.34 73.74 229.34 81.17 232.94 81.17 232.94 83.04 232.04 83.04 232.04 90.62 232.94 90.62 232.94 92.49 229.34 92.49 229.34 107.42 232.94 107.42 232.94 109.29 232.04 109.29 232.04 116.87 232.94 116.87 232.94 118.74 229.34 118.74 229.34 126.17 232.94 126.17 232.94 128.04 232.04 128.04 232.04 135.62 232.94 135.62 232.94 137.49 229.34 137.49 229.34 152.42 232.94 152.42 232.94 154.29 232.04 154.29 232.04 161.87 232.94 161.87 232.94 163.74 229.34 163.74 229.34 171.17 232.94 171.17 232.94 173.04 232.04 173.04 232.04 180.62 232.94 180.62 232.94 182.49 229.34 182.49 229.34 197.42 232.94 197.42 232.94 199.29 232.04 199.29 232.04 206.87 232.94 206.87 232.94 208.74 229.34 208.74 229.34 216.17 232.94 216.17 232.94 218.04 232.04 218.04 232.04 225.62 232.94 225.62 232.94 227.49 229.34 227.49 229.34 242.42 232.94 242.42 232.94 244.29 232.04 244.29 232.04 251.87 232.94 251.87 232.94 253.74 229.34 253.74 229.34 261.17 232.94 261.17 232.94 263.04 232.04 263.04 232.04 270.62 232.94 270.62 232.94 272.49 229.34 272.49 229.34 287.42 232.94 287.42 232.94 289.29 232.04 289.29 232.04 296.87 232.94 296.87 232.94 298.74 229.34 298.74 229.34 306.17 232.94 306.17 232.94 308.04 232.04 308.04 232.04 315.62 232.94 315.62 232.94 317.49 229.34 317.49 229.34 332.42 232.94 332.42 232.94 334.29 232.04 334.29 232.04 341.87 232.94 341.87 232.94 343.74 229.34 343.74 229.34 351.17 232.94 351.17 232.94 353.04 232.04 353.04 232.04 360.62 232.94 360.62 232.94 362.49 229.34 362.49 229.34 377.42 232.94 377.42 232.94 379.29 232.04 379.29 232.04 392.42 246.52 392.42 246.52 388.82 248.39 388.82 248.39 389.72"/></g><g id="POLYLINE-2" data-name="POLYLINE"><path class="cls-1" d="M148.29,215h3.6v1.87H151v7.58h.9v1.87h-3.6v14.93h3.6v1.87H151v6.36l9.19-4h0a1,1,0,0,1,.37-.07.94.94,0,0,1,.94.93v19.86a.91.91,0,0,1-.08.37.92.92,0,0,1-1.23.49l-9.19-4v6.36h.9v1.87h-3.6v14.93h3.6v1.87H151v7.58h.9v1.87h-3.6V305h3.6v1.87H151v7.58h.9v1.87h-3.6v14.93h3.6v1.87H151v6.36l9.19-4h0a1,1,0,0,1,.37-.07.94.94,0,0,1,.94.93v19.86a.91.91,0,0,1-.08.37.92.92,0,0,1-1.23.49l-9.19-4v6.36h.9v1.87h-3.6v14.93h3.6v1.87H151v13.13h14.48v-3.6h1.87v.9h4.46v-2.7h-.9v-1.8h7.2v1.8h-.9v2.7h4.47v-.9h1.87v3.6h9.68V378.15h-.9v-1.87h3.6V361.35h-3.6v-1.87h.9V351.9h-.9V350h3.6V342.6h-3.6v-1.87h.9v-7.58h-.9v-1.87h3.6V316.35h-3.6v-1.87h.9V306.9h-.9V305h3.6V297.6h-3.6v-1.87h.9v-7.58h-.9v-1.87h3.6V271.35h-3.6v-1.87h.9V261.9h-.9V260h3.6V252.6h-3.6v-1.87h.9v-7.58h-.9v-1.87h3.6V226.35h-3.6v-1.87h.9V216.9h-.9V215h3.6V207.6h-3.6v-1.87h.9v-7.58h-.9v-1.87h3.6V181.35h-3.6v-1.87h.9V171.9h-.9V170h3.6V162.6h-3.6v-1.87h.9v-7.58h-.9v-1.87h3.6V136.35h-3.6v-1.87h.9V126.9h-.9V125h3.6V117.6h-3.6v-1.87h.9v-7.58h-.9v-1.87h3.6V91.35h-3.6V89.48h.9V81.9h-.9V80h3.6V72.6h-3.6V70.73h.9V63.15h-.9V61.28h3.6V46.35h-3.6V44.48h.9V31.35h-9.68V35h-1.87v-.9H177.2v2.7h.9v1.8h-7.2v-1.8h.9v-2.7h-4.46V35h-1.87v-3.6H151V44.48h.9v1.87h-3.6V61.28h3.6v1.87H151v6.36l9.19-4h0a1,1,0,0,1,.37-.07.94.94,0,0,1,.94.93V86.24a.91.91,0,0,1-.08.37.92.92,0,0,1-1.23.49l-9.19-4v6.36h.9v1.87h-3.6v14.93h3.6v1.87H151v7.58h.9v1.87h-3.6V125h3.6v1.87H151v7.58h.9v1.87h-3.6v14.93h3.6v1.87H151v6.36l9.19-4h0a1,1,0,0,1,.37-.07.94.94,0,0,1,.94.93v19.86a.91.91,0,0,1-.08.37.92.92,0,0,1-1.23.49l-9.19-4v6.36h.9v1.87h-3.6v14.93h3.6v1.87H151v7.58h.9v1.87h-3.6"/></g><g id="POLYLINE-3" data-name="POLYLINE"><path class="cls-1" d="M134.83,357.1a1,1,0,0,1-.38.08.94.94,0,0,1-.93-.94V336.38a1,1,0,0,1,.07-.37,1,1,0,0,1,1.24-.49l9.19,4v-6.36h-.9v-1.87h3.6V316.35h-3.6v-1.87h.9V306.9h-.9V305h3.6V297.6h-3.6v-1.87h.9v-7.58h-.9v-1.87h3.6V271.35h-3.6v-1.87h.9v-6.36l-9.19,4h0a1,1,0,0,1-.38.08.94.94,0,0,1-.93-.94V246.38a1,1,0,0,1,.07-.37,1,1,0,0,1,1.24-.49l9.19,4v-6.36h-.9v-1.87h3.6V226.35h-3.6v-1.87h.9V216.9h-.9V215h3.6V207.6h-3.6v-1.87h.9v-7.58h-.9v-1.87h3.6V181.35h-3.6v-1.87h.9v-6.36l-9.19,4h0a1,1,0,0,1-.38.08.94.94,0,0,1-.93-.94V156.38a1,1,0,0,1,.07-.37,1,1,0,0,1,1.24-.49l9.19,4v-6.36h-.9v-1.87h3.6V136.35h-3.6v-1.87h.9V126.9h-.9V125h3.6V117.6h-3.6v-1.87h.9v-7.58h-.9v-1.87h3.6V91.35h-3.6V89.48h.9V83.12l-9.19,4h0a1,1,0,0,1-.38.08.94.94,0,0,1-.93-.94V66.38a1,1,0,0,1,.07-.37,1,1,0,0,1,1.24-.49l9.19,4V63.15h-.9V61.28h3.6V46.35h-3.6V44.48h.9V31.35H129.54V35h-1.87v-.9H123.2v2.7h.9v1.8h-7.2v-1.8h.9v-2.7h-4.46V35h-1.87v-3.6H99.09V46.28h3.6v1.87h-.9V59.48h.9v1.87h-3.6V91.28h3.6v1.87h-.9v11.33h.9v1.87h-3.6v29.93h3.6v1.87h-.9v11.33h.9v1.87h-3.6v29.93h3.6v1.87h-.9v11.33h.9v1.87h-3.6v29.93h3.6v1.87h-.9v11.33h.9v1.87h-3.6v29.93h3.6v1.87h-.9v11.33h.9v1.87h-3.6v29.93h3.6v1.87h-.9v11.33h.9v1.87h-3.6v29.93h3.6v1.87h-.9v11.33h.9v1.87h-3.6v14.93h12.38v-3.6h1.87v.9h4.46v-2.7h-.9v-1.8h7.2v1.8h-.9v2.7h4.47v-.9h1.87v3.6H144V378.15h-.9v-1.87h3.6V361.35h-3.6v-1.87h.9v-6.36l-9.19,4Z"/></g><g id="POLYLINE-4" data-name="POLYLINE"><polygon class="cls-1" points="64.14 388.57 68.61 388.57 68.61 385.88 67.7 385.88 67.7 384.07 74.91 384.07 74.91 385.88 74 385.88 74 388.57 78.47 388.57 78.47 387.68 80.34 387.68 80.34 391.27 97.52 391.27 97.52 376.35 93.92 376.35 93.92 374.48 94.82 374.48 94.82 363.15 93.92 363.15 93.92 361.27 97.52 361.27 97.52 331.35 93.92 331.35 93.92 329.48 94.82 329.48 94.82 318.15 93.92 318.15 93.92 316.27 97.52 316.27 97.52 286.35 93.92 286.35 93.92 284.48 94.82 284.48 94.82 273.15 93.92 273.15 93.92 271.27 97.52 271.27 97.52 241.35 93.92 241.35 93.92 239.47 94.82 239.47 94.82 228.15 93.92 228.15 93.92 226.28 97.52 226.28 97.52 196.35 93.92 196.35 93.92 194.47 94.82 194.47 94.82 183.15 93.92 183.15 93.92 181.28 97.52 181.28 97.52 151.35 93.92 151.35 93.92 149.47 94.82 149.47 94.82 138.15 93.92 138.15 93.92 136.28 97.52 136.28 97.52 106.35 93.92 106.35 93.92 104.47 94.82 104.47 94.82 93.15 93.92 93.15 93.92 91.28 97.52 91.28 97.52 61.35 93.92 61.35 93.92 59.48 94.82 59.48 94.82 48.15 93.92 48.15 93.92 46.27 97.52 46.27 97.52 31.35 80.34 31.35 80.34 34.95 78.47 34.95 78.47 34.05 74 34.05 74 36.75 74.91 36.75 74.91 38.55 67.7 38.55 67.7 36.75 68.61 36.75 68.61 34.05 64.14 34.05 64.14 34.95 62.27 34.95 62.27 31.35 49.89 31.35 49.89 46.27 53.49 46.27 53.49 48.15 52.59 48.15 52.59 59.48 53.49 59.48 53.49 61.35 49.89 61.35 49.89 69.53 53.49 69.53 53.49 71.4 52.59 71.4 52.59 73.13 53.49 73.13 53.49 75 49.89 75 49.89 77.63 53.49 77.63 53.49 79.5 52.59 79.5 52.59 81.22 53.49 81.22 53.49 83.1 49.89 83.1 49.89 91.28 53.49 91.28 53.49 93.15 52.59 93.15 52.59 104.47 53.49 104.47 53.49 106.35 49.89 106.35 49.89 136.28 53.49 136.28 53.49 138.15 52.59 138.15 52.59 149.47 53.49 149.47 53.49 151.35 49.89 151.35 49.89 159.53 53.49 159.53 53.49 161.4 52.59 161.4 52.59 163.13 53.49 163.13 53.49 165 49.89 165 49.89 167.63 53.49 167.63 53.49 169.5 52.59 169.5 52.59 171.22 53.49 171.22 53.49 173.1 49.89 173.1 49.89 181.28 53.49 181.28 53.49 183.15 52.59 183.15 52.59 194.47 53.49 194.47 53.49 196.35 49.89 196.35 49.89 226.28 53.49 226.28 53.49 228.15 52.59 228.15 52.59 239.47 53.49 239.47 53.49 241.35 49.89 241.35 49.89 249.53 53.49 249.53 53.49 251.4 52.59 251.4 52.59 253.13 53.49 253.13 53.49 255 49.89 255 49.89 257.63 53.49 257.63 53.49 259.5 52.59 259.5 52.59 261.23 53.49 261.23 53.49 263.1 49.89 263.1 49.89 271.27 53.49 271.27 53.49 273.15 52.59 273.15 52.59 284.48 53.49 284.48 53.49 286.35 49.89 286.35 49.89 316.27 53.49 316.27 53.49 318.15 52.59 318.15 52.59 329.48 53.49 329.48 53.49 331.35 49.89 331.35 49.89 339.52 53.49 339.52 53.49 341.4 52.59 341.4 52.59 343.13 53.49 343.13 53.49 345 49.89 345 49.89 347.63 53.49 347.63 53.49 349.5 52.59 349.5 52.59 351.23 53.49 351.23 53.49 353.1 49.89 353.1 49.89 361.27 53.49 361.27 53.49 363.15 52.59 363.15 52.59 374.48 53.49 374.48 53.49 376.35 49.89 376.35 49.89 391.27 62.27 391.27 62.27 387.68 64.14 387.68 64.14 388.57"/></g><g id="POLYLINE-5" data-name="POLYLINE"><path class="cls-1" d="M45.2,257a.92.92,0,0,1-.07.36.9.9,0,0,1-1.18.46l-9.25-4H29.3l-9.24,4a.86.86,0,0,1-.36.08.91.91,0,0,1-.9-.9v-6.93a3,3,0,0,1,0-6v-6.93a.9.9,0,0,1,.08-.36.91.91,0,0,1,1.18-.47l9.24,4h5.4l9.25-4a.84.84,0,0,1,.35-.07.9.9,0,0,1,.9.9v6.93a3,3,0,0,1,0,6Z"/></g><g id="POLYLINE-6" data-name="POLYLINE"><path class="cls-1" d="M45.2,282.54a.92.92,0,0,1-.07.36.9.9,0,0,1-1.18.46l-9.25-4H29.3l-9.24,4a.86.86,0,0,1-.36.08.91.91,0,0,1-.9-.9v-6.93a3,3,0,0,1,0-6v-6.93a.9.9,0,0,1,.08-.36.91.91,0,0,1,1.18-.47l9.24,4h5.4l9.25-4a.84.84,0,0,1,.35-.07.9.9,0,0,1,.9.9v6.93a3,3,0,0,1,0,6Z"/></g><g id="POLYLINE-7" data-name="POLYLINE"><path class="cls-1" d="M45.2,308a.92.92,0,0,1-.07.36.9.9,0,0,1-1.18.46l-9.25-4H29.3l-9.24,4a.86.86,0,0,1-.36.08.91.91,0,0,1-.9-.9v-6.93a3,3,0,0,1,0-6v-6.93a.9.9,0,0,1,.08-.36.91.91,0,0,1,1.18-.47l9.24,4h5.4l9.25-4a.84.84,0,0,1,.35-.07.9.9,0,0,1,.9.9v6.93a3,3,0,0,1,0,6Z"/></g><g id="POLYLINE-8" data-name="POLYLINE"><path class="cls-1" d="M45.2,333.54a.92.92,0,0,1-.07.36.9.9,0,0,1-1.18.46l-9.25-4H29.3l-9.24,4a.86.86,0,0,1-.36.08.91.91,0,0,1-.9-.9v-6.93a3,3,0,0,1,0-6v-6.93a.9.9,0,0,1,.08-.36.91.91,0,0,1,1.18-.47l9.24,4h5.4l9.25-4a.84.84,0,0,1,.35-.07.9.9,0,0,1,.9.9v6.93a3,3,0,0,1,0,6Z"/></g><g id="POLYLINE-9" data-name="POLYLINE"><path class="cls-1" d="M45.2,359a.92.92,0,0,1-.07.36.9.9,0,0,1-1.18.46l-9.25-4H29.3l-9.24,4a.86.86,0,0,1-.36.08.91.91,0,0,1-.9-.9v-6.93a3,3,0,0,1,0-6v-6.93a.9.9,0,0,1,.08-.36.91.91,0,0,1,1.18-.47l9.24,4h5.4l9.25-4a.84.84,0,0,1,.35-.07.9.9,0,0,1,.9.9v6.93a3,3,0,0,1,0,6Z"/></g><g id="POLYLINE-10" data-name="POLYLINE"><path class="cls-1" d="M45.2,384.54a.92.92,0,0,1-.07.36.9.9,0,0,1-1.18.46l-9.25-4H29.3l-9.24,4a.86.86,0,0,1-.36.08.91.91,0,0,1-.9-.9v-6.93a3,3,0,0,1,0-6v-6.93a.9.9,0,0,1,.08-.36.91.91,0,0,1,1.18-.47l9.24,4h5.4l9.25-4a.84.84,0,0,1,.35-.07.9.9,0,0,1,.9.9v6.93a3,3,0,0,1,0,6Z"/></g><g id="POLYLINE-11" data-name="POLYLINE"><path class="cls-1" d="M45.2,53a.89.89,0,0,1-.07.36.91.91,0,0,1-1.18.47l-9.25-4H29.3l-9.24,4a.86.86,0,0,1-.36.07.9.9,0,0,1-.9-.9V46.11a3,3,0,1,1,0-6V33.18a.94.94,0,0,1,.08-.36.9.9,0,0,1,1.18-.46l9.24,4h5.4l9.25-4a.85.85,0,0,1,.35-.08.9.9,0,0,1,.9.9v6.93a3,3,0,0,1,0,6Z"/></g><g id="POLYLINE-12" data-name="POLYLINE"><path class="cls-1" d="M45.2,78.54a.89.89,0,0,1-.07.36.91.91,0,0,1-1.18.47l-9.25-4H29.3l-9.24,4a.86.86,0,0,1-.36.07.9.9,0,0,1-.9-.9V71.61a3,3,0,1,1,0-6V58.68a.94.94,0,0,1,.08-.36.9.9,0,0,1,1.18-.46l9.24,4h5.4l9.25-4a.85.85,0,0,1,.35-.08.9.9,0,0,1,.9.9v6.93a3,3,0,0,1,0,6Z"/></g><g id="POLYLINE-13" data-name="POLYLINE"><path class="cls-1" d="M45.2,104a.89.89,0,0,1-.07.36.91.91,0,0,1-1.18.47l-9.25-4H29.3l-9.24,4a.86.86,0,0,1-.36.07.9.9,0,0,1-.9-.9V97.11a3,3,0,1,1,0-6V84.18a.94.94,0,0,1,.08-.36.9.9,0,0,1,1.18-.46l9.24,4h5.4l9.25-4a.85.85,0,0,1,.35-.08.9.9,0,0,1,.9.9v6.93a3,3,0,0,1,0,6Z"/></g><g id="POLYLINE-14" data-name="POLYLINE"><path class="cls-1" d="M45.2,129.54a.89.89,0,0,1-.07.36.91.91,0,0,1-1.18.47l-9.25-4H29.3l-9.24,4a.86.86,0,0,1-.36.07.9.9,0,0,1-.9-.9v-6.93a3,3,0,1,1,0-6v-6.93a.94.94,0,0,1,.08-.36.9.9,0,0,1,1.18-.46l9.24,4h5.4l9.25-4a.85.85,0,0,1,.35-.08.9.9,0,0,1,.9.9v6.93a3,3,0,0,1,0,6Z"/></g><g id="POLYLINE-15" data-name="POLYLINE"><path class="cls-1" d="M45.2,155a.89.89,0,0,1-.07.36.91.91,0,0,1-1.18.47l-9.25-4H29.3l-9.24,4a.86.86,0,0,1-.36.07.9.9,0,0,1-.9-.9v-6.93a3,3,0,0,1,0-6v-6.93a.94.94,0,0,1,.08-.36.9.9,0,0,1,1.18-.46l9.24,4h5.4l9.25-4a.85.85,0,0,1,.35-.08.9.9,0,0,1,.9.9v6.93a3,3,0,0,1,0,6Z"/></g><g id="POLYLINE-16" data-name="POLYLINE"><path class="cls-1" d="M45.2,180.54a.89.89,0,0,1-.07.36.91.91,0,0,1-1.18.47l-9.25-4H29.3l-9.24,4a.86.86,0,0,1-.36.07.9.9,0,0,1-.9-.9v-6.93a3,3,0,0,1,0-6v-6.93a.94.94,0,0,1,.08-.36.9.9,0,0,1,1.18-.46l9.24,4h5.4l9.25-4a.85.85,0,0,1,.35-.08.9.9,0,0,1,.9.9v6.93a3,3,0,0,1,0,6Z"/></g><g id="POLYLINE-17" data-name="POLYLINE"><path class="cls-1" d="M45.2,206a.89.89,0,0,1-.07.36.91.91,0,0,1-1.18.47l-9.25-4H29.3l-9.24,4a.86.86,0,0,1-.36.07.9.9,0,0,1-.9-.9v-6.93a3,3,0,0,1,0-6v-6.93a.94.94,0,0,1,.08-.36.9.9,0,0,1,1.18-.46l9.24,4h5.4l9.25-4a.85.85,0,0,1,.35-.08.9.9,0,0,1,.9.9v6.93a3,3,0,0,1,0,6Z"/></g><g id="POLYLINE-18" data-name="POLYLINE"><path class="cls-1" d="M45.2,231.54a.92.92,0,0,1-.07.36.9.9,0,0,1-1.18.46l-9.25-4H29.3l-9.24,4a.86.86,0,0,1-.36.08.91.91,0,0,1-.9-.9v-6.93a3,3,0,0,1,0-6v-6.93a.9.9,0,0,1,.08-.36.91.91,0,0,1,1.18-.47l9.24,4h5.4l9.25-4a.84.84,0,0,1,.35-.07.9.9,0,0,1,.9.9v6.93a3,3,0,0,1,0,6Z"/></g><g id="POLYLINE-19" data-name="POLYLINE"><polygon class="cls-1" points="33.28 245.71 30.72 245.72 30.72 244.86 29.3 244.86 29.3 249.36 30.72 249.36 30.72 248.5 33.28 248.49 33.28 249.35 34.7 249.35 34.7 244.85 33.28 244.85 33.28 245.71"/></g><g id="POLYLINE-20" data-name="POLYLINE"><polygon class="cls-1" points="33.28 271.21 30.72 271.22 30.72 270.36 29.3 270.36 29.3 274.86 30.72 274.86 30.72 274 33.28 273.99 33.28 274.85 34.7 274.85 34.7 270.35 33.28 270.35 33.28 271.21"/></g><g id="POLYLINE-21" data-name="POLYLINE"><polygon class="cls-1" points="33.28 296.71 30.72 296.72 30.72 295.86 29.3 295.86 29.3 300.36 30.72 300.36 30.72 299.5 33.28 299.49 33.28 300.35 34.7 300.35 34.7 295.85 33.28 295.85 33.28 296.71"/></g><g id="POLYLINE-22" data-name="POLYLINE"><polygon class="cls-1" points="33.28 322.21 30.72 322.22 30.72 321.36 29.3 321.36 29.3 325.86 30.72 325.86 30.72 325 33.28 324.99 33.28 325.85 34.7 325.85 34.7 321.35 33.28 321.35 33.28 322.21"/></g><g id="POLYLINE-23" data-name="POLYLINE"><polygon class="cls-1" points="33.28 347.71 30.72 347.72 30.72 346.86 29.3 346.86 29.3 351.36 30.72 351.36 30.72 350.5 33.28 350.49 33.28 351.35 34.7 351.35 34.7 346.85 33.28 346.85 33.28 347.71"/></g><g id="POLYLINE-24" data-name="POLYLINE"><polygon class="cls-1" points="33.28 373.21 30.72 373.22 30.72 372.36 29.3 372.36 29.3 376.86 30.72 376.86 30.72 376 33.28 375.99 33.28 376.85 34.7 376.85 34.7 372.35 33.28 372.35 33.28 373.21"/></g><g id="POLYLINE-25" data-name="POLYLINE"><polygon class="cls-1" points="33.28 41.71 30.72 41.72 30.72 40.86 29.3 40.86 29.3 45.36 30.72 45.36 30.72 44.5 33.28 44.49 33.28 45.35 34.7 45.35 34.7 40.85 33.28 40.85 33.28 41.71"/></g><g id="POLYLINE-26" data-name="POLYLINE"><polygon class="cls-1" points="33.28 67.21 30.72 67.22 30.72 66.36 29.3 66.36 29.3 70.86 30.72 70.86 30.72 70 33.28 69.99 33.28 70.85 34.7 70.85 34.7 66.35 33.28 66.35 33.28 67.21"/></g><g id="POLYLINE-27" data-name="POLYLINE"><polygon class="cls-1" points="33.28 92.71 30.72 92.72 30.72 91.86 29.3 91.86 29.3 96.36 30.72 96.36 30.72 95.5 33.28 95.49 33.28 96.35 34.7 96.35 34.7 91.85 33.28 91.85 33.28 92.71"/></g><g id="POLYLINE-28" data-name="POLYLINE"><polygon class="cls-1" points="33.28 118.21 30.72 118.22 30.72 117.36 29.3 117.36 29.3 121.86 30.72 121.86 30.72 121 33.28 120.99 33.28 121.85 34.7 121.85 34.7 117.35 33.28 117.35 33.28 118.21"/></g><g id="POLYLINE-29" data-name="POLYLINE"><polygon class="cls-1" points="33.28 143.71 30.72 143.72 30.72 142.86 29.3 142.86 29.3 147.36 30.72 147.36 30.72 146.5 33.28 146.49 33.28 147.35 34.7 147.35 34.7 142.85 33.28 142.85 33.28 143.71"/></g><g id="POLYLINE-30" data-name="POLYLINE"><polygon class="cls-1" points="33.28 169.21 30.72 169.22 30.72 168.36 29.3 168.36 29.3 172.86 30.72 172.86 30.72 172 33.28 171.99 33.28 172.85 34.7 172.85 34.7 168.35 33.28 168.35 33.28 169.21"/></g><g id="POLYLINE-31" data-name="POLYLINE"><polygon class="cls-1" points="33.28 194.71 30.72 194.72 30.72 193.86 29.3 193.86 29.3 198.36 30.72 198.36 30.72 197.5 33.28 197.49 33.28 198.35 34.7 198.35 34.7 193.85 33.28 193.85 33.28 194.71"/></g><g id="POLYLINE-32" data-name="POLYLINE"><polygon class="cls-1" points="33.28 220.21 30.72 220.22 30.72 219.36 29.3 219.36 29.3 223.86 30.72 223.86 30.72 223 33.28 222.99 33.28 223.85 34.7 223.85 34.7 219.35 33.28 219.35 33.28 220.21"/></g><g id="POLYLINE-33" data-name="POLYLINE"><path class="cls-1" d="M52.59,305.06v-7.5a.71.71,0,1,0-1.42,0v7.5a.71.71,0,1,0,1.42,0Z"/></g><g id="POLYLINE-34" data-name="POLYLINE"><path class="cls-1" d="M52.59,215.06v-7.5a.71.71,0,0,0-1.42,0v7.5a.71.71,0,1,0,1.42,0Z"/></g><g id="POLYLINE-35" data-name="POLYLINE"><path class="cls-1" d="M52.59,125.06v-7.5a.71.71,0,1,0-1.42,0v7.5a.71.71,0,1,0,1.42,0Z"/></g><g id="POLYLINE-36" data-name="POLYLINE"><path class="cls-1" d="M94.82,350.06v-7.5a.71.71,0,0,1,1.42,0v7.5a.71.71,0,1,1-1.42,0Z"/></g><g id="POLYLINE-37" data-name="POLYLINE"><path class="cls-1" d="M94.82,305.06v-7.5a.71.71,0,0,1,1.42,0v7.5a.71.71,0,1,1-1.42,0Z"/></g><g id="POLYLINE-38" data-name="POLYLINE"><path class="cls-1" d="M94.82,260.06v-7.5a.71.71,0,1,1,1.42,0v7.5a.71.71,0,1,1-1.42,0Z"/></g><g id="POLYLINE-39" data-name="POLYLINE"><path class="cls-1" d="M94.82,215.06v-7.5a.71.71,0,1,1,1.42,0v7.5a.71.71,0,1,1-1.42,0Z"/></g><g id="POLYLINE-40" data-name="POLYLINE"><path class="cls-1" d="M94.82,170.06v-7.5a.71.71,0,1,1,1.42,0v7.5a.71.71,0,1,1-1.42,0Z"/></g><g id="POLYLINE-41" data-name="POLYLINE"><path class="cls-1" d="M94.82,125.06v-7.5a.71.71,0,0,1,1.42,0v7.5a.71.71,0,1,1-1.42,0Z"/></g><g id="POLYLINE-42" data-name="POLYLINE"><path class="cls-1" d="M94.82,80.06v-7.5a.71.71,0,0,1,1.42,0v7.5a.71.71,0,1,1-1.42,0Z"/></g><g id="POLYLINE-43" data-name="POLYLINE"><path class="cls-1" d="M101.79,72.56v7.5a.71.71,0,1,1-1.42,0v-7.5a.71.71,0,1,1,1.42,0Z"/></g><g id="POLYLINE-44" data-name="POLYLINE"><path class="cls-1" d="M101.79,117.56v7.5a.71.71,0,1,1-1.42,0v-7.5a.71.71,0,1,1,1.42,0Z"/></g><g id="POLYLINE-45" data-name="POLYLINE"><path class="cls-1" d="M101.79,162.56v7.5a.71.71,0,1,1-1.42,0v-7.5a.71.71,0,1,1,1.42,0Z"/></g><g id="POLYLINE-46" data-name="POLYLINE"><path class="cls-1" d="M101.79,207.56v7.5a.71.71,0,1,1-1.42,0v-7.5a.71.71,0,0,1,1.42,0Z"/></g><g id="POLYLINE-47" data-name="POLYLINE"><path class="cls-1" d="M101.79,252.56v7.5a.71.71,0,1,1-1.42,0v-7.5a.71.71,0,1,1,1.42,0Z"/></g><g id="POLYLINE-48" data-name="POLYLINE"><path class="cls-1" d="M101.79,297.56v7.5a.71.71,0,1,1-1.42,0v-7.5a.71.71,0,1,1,1.42,0Z"/></g><g id="POLYLINE-49" data-name="POLYLINE"><path class="cls-1" d="M101.79,342.56v7.5a.71.71,0,1,1-1.42,0v-7.5a.71.71,0,1,1,1.42,0Z"/></g><g id="POLYLINE-50" data-name="POLYLINE"><path class="cls-1" d="M274.27,298.7v7.5a.71.71,0,1,0,1.42,0v-7.5a.71.71,0,0,0-1.42,0Z"/></g><g id="POLYLINE-51" data-name="POLYLINE"><path class="cls-1" d="M274.27,208.7v7.5a.71.71,0,1,0,1.42,0v-7.5a.71.71,0,0,0-1.42,0Z"/></g><g id="POLYLINE-52" data-name="POLYLINE"><path class="cls-1" d="M274.27,118.7v7.5a.71.71,0,1,0,1.42,0v-7.5a.71.71,0,0,0-1.42,0Z"/></g><g id="MTEXT"><text class="cls-2" transform="translate(255.1 231.36) rotate(-90)">CORNER-M/D</text></g><g id="MTEXT-2" data-name="MTEXT"><text class="cls-2" transform="translate(174.92 230.22) rotate(-90)">CORNER-M/A</text></g><g id="MTEXT-3" data-name="MTEXT"><text class="cls-2" transform="translate(123.64 230.22) rotate(-90)">CORNER-M/B</text></g><g id="MTEXT-4" data-name="MTEXT"><text class="cls-2" transform="translate(75.78 230.2) rotate(-90)">CORNER-M/C</text></g><g id="POLYLINE-53" data-name="POLYLINE"><rect class="cls-3" x="227.28" y="29.55" width="183" height="366"/></g><g id="POLYLINE-54" data-name="POLYLINE"><rect class="cls-3" x="14.28" y="29.55" width="183" height="366"/></g></svg>