<svg xmlns="http://www.w3.org/2000/svg" xmlns:xlink="http://www.w3.org/1999/xlink" width="500" height="500" viewBox = " 0 0 500 500" preserveAspectRatio="xMinYMin meet">
<rect id="background" x="0" y="0" width="500" height="500" style="fill:none; stroke:none;" />
<polyline id="f56598db-7528-49d6-8f84-e893cbb177d3" points="292.4264 283.7424 291.1536 284.4772 289.8808 285.2121 207.5736 237.692 207.5736 234.7526 206.3008 235.4875 205.028 236.2223 199.2298 232.8747 199.2297 211.4403 200.5025 210.7054 201.7753 209.9706 300.7703 267.1253 300.7703 288.5597 299.4975 289.2946 298.2247 290.0294 292.4264 286.6818 292.4264 283.7424 "  class="cls-30449002" >  </polyline>
<polyline id="5a1c6c02-afc7-4069-9df6-cbd068f4f622" points="207.5736 228.6683 207.9979 228.4234 207.9979 227.9335 207.5736 227.6886 207.5736 228.6683 "  class="cls-30449002" >  </polyline>
<polyline id="9d39dee0-664b-40c4-89eb-f798c979f9c1" points="292.4264 277.6581 292.8507 277.4132 292.8507 276.9233 292.4264 276.6783 292.4264 277.6581 "  class="cls-30449002" >  </polyline>
<polyline id="3c4cb1d6-7375-44d4-a281-7ba8f7f02844" points="289.8808 285.2121 207.5736 237.692 "  class="cls-1008689814" >  </polyline>
<polyline id="76c0b71a-1647-442d-9b62-6d1a276b5dfd" points="289.8808 285.2121 291.1536 284.4772 "  class="cls-1008689814" >  </polyline>
<polyline id="79a2292b-26d3-4301-9b58-3ddb36ce0c01" points="207.5736 228.6683 207.9983 228.4231 "  class="cls-1008689814" >  </polyline>
<polyline id="a346bc44-c3b4-409a-b9b0-b60957169469" points="207.5736 228.6683 207.9979 228.9133 "  class="cls-1008689814" >  </polyline>
<polyline id="df1044ca-45d9-4ce7-aae1-7fc3243eea96" points="204.6037 225.9739 204.6037 226.9537 "  class="cls-1008689814" >  </polyline>
<polyline id="d6d25ec6-e40c-41e0-bf49-f7ebf13aa78e" points="204.6037 226.9537 205.4526 226.4636 "  class="cls-1008689814" >  </polyline>
<polyline id="13fcdfdf-1b20-499f-81f3-34bb90ed1975" points="204.6037 226.9537 205.028 227.1987 "  class="cls-1008689814" >  </polyline>
<polyline id="7d2573fe-191e-49e0-a0c0-f7784abc7503" points="205.028 227.1987 205.8769 226.7085 "  class="cls-1008689814" >  </polyline>
<polyline id="65441d04-2b0d-4836-9351-626eda17db13" points="205.028 236.2223 206.3008 235.4875 "  class="cls-1008689814" >  </polyline>
<polyline id="5dc0da12-7c6a-451e-91fa-b11feb454694" points="205.028 236.2223 199.2298 232.8747 "  class="cls-1008689814" >  </polyline>
<polyline id="810c5d5d-97e3-46dc-a658-514738777516" points="199.2298 232.8747 199.2297 211.4403 "  class="cls-1008689814" >  </polyline>
<polyline id="099fa8e4-62e3-4902-b513-728e18149ce3" points="199.2297 211.4403 200.5025 210.7054 "  class="cls-1008689814" >  </polyline>
<polyline id="34a1d7d9-4fc2-408a-ae8f-51a282eed3d2" points="298.2247 268.595 299.4975 267.8602 "  class="cls-1008689814" >  </polyline>
<polyline id="80cfceba-b8ca-4707-a82c-50c818350959" points="298.2247 290.0294 299.4975 289.2946 "  class="cls-1008689814" >  </polyline>
<polyline id="7481fcf3-b05b-4997-8261-64f8d82e73b1" points="298.2247 290.0294 292.4264 286.6818 "  class="cls-1008689814" >  </polyline>
<polyline id="8ce18f50-6458-4b5c-bf9c-648b4e6f0dfa" points="292.4264 277.6581 292.8511 277.413 "  class="cls-1008689814" >  </polyline>
<polyline id="d7ba9a22-ffb8-4002-8bb9-aff3c5ee0550" points="292.4264 277.6581 292.8507 277.9031 "  class="cls-1008689814" >  </polyline>
<polyline id="076e43c6-3054-436b-a719-73999132f6ac" points="289.4566 274.9637 289.4566 275.9435 "  class="cls-1008689814" >  </polyline>
<polyline id="b5b6248b-eabe-4010-8cc1-be35457d094e" points="289.4566 275.9435 290.3053 275.4534 "  class="cls-1008689814" >  </polyline>
<polyline id="c0220c8a-09f8-4ba4-a14c-28aad5a6c548" points="289.4566 275.9435 289.8808 276.1884 "  class="cls-1008689814" >  </polyline>
<polyline id="129fecbf-3403-4e39-839b-05ec4480ee0f" points="289.8808 276.1884 290.7297 275.6983 "  class="cls-1008689814" >  </polyline>
<polyline id="35ffbf3a-d33c-4bac-a828-41f74a23133f" points="291.1536 284.4772 292.4264 283.7424 "  class="cls-1008689814" >  </polyline>
<polyline id="d0b0ea34-e8c8-44ec-b68a-19d79a391b2b" points="206.3008 235.4875 207.5736 234.7526 "  class="cls-1008689814" >  </polyline>
<polyline id="e954547a-4f08-468b-a67e-68aca0f8df60" points="200.5025 210.7054 201.7753 209.9706 "  class="cls-1008689814" >  </polyline>
<polyline id="453221d5-f367-4c05-a707-7b98d0b1f3b1" points="299.4975 267.8602 300.7703 267.1253 "  class="cls-1008689814" >  </polyline>
<polyline id="5e9b74ae-992f-45f9-ae0b-eeffc04699dd" points="201.7753 209.9706 300.7703 267.1253 "  class="cls-1008689814" >  </polyline>
<polyline id="ee693acf-e81f-4de9-b9e2-f32d75542059" points="299.4975 289.2946 300.7703 288.5597 "  class="cls-1008689814" >  </polyline>
<polyline id="d4414b2f-87b4-4a3f-a998-067d81f456a6" points="300.7703 267.1253 300.7703 288.5597 "  class="cls-1008689814" >  </polyline>
<polyline id="d7d59585-98f0-4a57-8a43-4c6f016e537a" points="207.5736 227.6885 207.5736 228.6683 "  class="cls-1008689814" >  </polyline>
<polyline id="dc844ec9-5a17-4263-a8c0-be10fcdd50fb" points="292.4264 276.6783 292.4264 277.6581 "  class="cls-1008689814" >  </polyline>
<polyline id="22b4f469-626d-4453-8c49-fb2811111dee" points="207.5736 237.692 207.5736 228.6683 "  class="cls-1008689814" >  </polyline>
<polyline id="c638b233-967c-492f-8e53-17cac109136d" points="207.9979 228.9133 207.9979 227.9335 "  class="cls-1008689814" >  </polyline>
<polyline id="87a62fbd-4533-4363-b013-d65b9999d6f2" points="207.9979 227.9335 204.6037 225.9739 "  class="cls-1008689814" >  </polyline>
<polyline id="4e4bd409-8bfc-47f7-b128-aa4eec3b631e" points="205.028 227.1987 205.028 236.2223 "  class="cls-1008689814" >  </polyline>
<polyline id="4039a4ec-25fd-46bb-8394-f66d23836a47" points="199.2297 211.4403 298.2247 268.595 "  class="cls-1008689814" >  </polyline>
<polyline id="f2f6ba72-d474-4f6d-9dad-983afd096625" points="298.2247 268.595 298.2247 290.0294 "  class="cls-1008689814" >  </polyline>
<polyline id="e28bee35-250b-4fd0-8f9c-c308af05e2d7" points="292.4264 286.6818 292.4264 277.6581 "  class="cls-1008689814" >  </polyline>
<polyline id="86d819b5-dbea-4a51-8887-aae5622833fc" points="292.8507 277.9031 292.8507 276.9233 "  class="cls-1008689814" >  </polyline>
<polyline id="9d918df6-6a9f-48a2-bffd-151c13e1dcc5" points="292.8507 276.9233 289.4566 274.9637 "  class="cls-1008689814" >  </polyline>
<polyline id="e24726c4-56bf-432e-bbb8-ea63cf512696" points="289.8808 276.1884 289.8808 285.2121 "  class="cls-1008689814" >  </polyline>
<polyline id="d0dea8ce-7003-43ae-820f-559830d9c5d3" points="206.3008 226.9537 206.3008 235.4875 "  class="cls-1008689814" >  </polyline>
<polyline id="9179c2ba-4829-4117-a41e-e9482b6308ff" points="200.5025 210.7054 299.4975 267.8602 "  class="cls-1008689814" >  </polyline>
<polyline id="f37c8ac6-2e0a-4045-882f-dc0b2eb53b65" points="299.4975 267.8602 299.4975 289.2946 "  class="cls-1008689814" >  </polyline>
<polyline id="b8e49bb5-9e5c-45d2-8dbd-c8c37bc9c74f" points="291.1536 275.9435 291.1536 284.4772 "  class="cls-1008689814" >  </polyline>
<defs>
<style> .cls-30449002{stroke:#000000 ; stroke-opacity:1; stroke-width:1; stroke-linecap:round; stroke-linejoin:round; fill:none; } </style>
<style> .cls-1008689814{stroke:#000000 ; stroke-opacity:1; stroke-width:0.3; stroke-linecap:round; stroke-linejoin:round; fill:none; } </style>
</defs>
</svg>