<svg xmlns="http://www.w3.org/2000/svg" xmlns:xlink="http://www.w3.org/1999/xlink" width="203.3333" height="406.6667" viewBox = " 0 0 203.3333 406.6667" preserveAspectRatio="xMinYMin meet">
<rect id="background" x="0" y="0" width="203.3333" height="406.6667" style="fill:none; stroke:none;" />
<polyline id="5a5c8ffc-7abe-4ac3-82fd-6233a40e1964" points="81.9181 188.5794 100.2578 188.5794 100.2578 382.5348 81.9181 382.5348 81.9181 381.5346 79.8343 381.5346 79.8343 389.6196 81.9181 389.6196 81.9181 388.6194 100.2578 388.6193 100.2578 402.2054 56.5797 402.2054 56.5797 168.9088 100.2578 168.9088 100.2578 182.4948 81.9181 182.4948 81.9181 181.4946 79.8343 181.4946 79.8343 189.5796 81.9181 189.5796 81.9181 188.5794 "  class="cls-1059021462" >  </polyline>
<polyline id="9f5aeded-4557-4356-a436-12dd60f67018" points="29.7143 188.5794 48.0541 188.5794 48.054 382.5348 29.7143 382.5348 29.7143 381.5346 27.6305 381.5346 27.6305 389.6196 29.7143 389.6196 29.7143 388.6194 48.0541 388.6193 48.054 402.2054 4.3759 402.2054 4.3759 168.9088 48.0541 168.9088 48.0541 182.4948 29.7143 182.4948 29.7143 181.4946 27.6305 181.4946 27.6305 189.5796 29.7143 189.5796 29.7143 188.5794 "  class="cls-1059021462" >  </polyline>
<polyline id="79f8353e-365e-4187-9bbc-b87bae80ee7f" points="0 406.748 203.374 406.748 203.374 0 0 0 0 406.748 "  class="cls-1008689814" >  </polyline>
<defs>
<style> .cls-1059021462{stroke:#000000 ; stroke-opacity:1; stroke-width:0.5; stroke-linecap:round; stroke-linejoin:round; fill:none; } </style>
<style> .cls-1008689814{stroke:#000000 ; stroke-opacity:1; stroke-width:0.3; stroke-linecap:round; stroke-linejoin:round; fill:none; } </style>
</defs>
</svg>