<svg id="Layer_1" data-name="Layer 1" xmlns="http://www.w3.org/2000/svg" viewBox="0 0 654.86 425.2"><defs><style>.cls-1,.cls-3{fill:none;stroke:#1d1d1b;stroke-miterlimit:10;}.cls-1{stroke-width:0.5px;}.cls-2{font-size:5.3px;fill:#1d1d1b;font-family:Monotxt;}.cls-3{stroke-width:0.25px;}</style></defs><g id="POLYLINE"><polygon class="cls-1" points="609.4 195.91 606.83 195.92 606.83 195.05 605.41 195.05 605.41 199.56 606.83 199.56 606.83 198.7 609.4 198.69 609.4 199.55 610.82 199.55 610.82 195.04 609.4 195.04 609.4 195.91"/></g><g id="POLYLINE-2" data-name="POLYLINE"><polygon class="cls-1" points="609.4 169.07 606.83 169.08 606.83 168.21 605.41 168.21 605.41 172.72 606.83 172.72 606.83 171.86 609.4 171.85 609.4 172.71 610.82 172.71 610.82 168.2 609.4 168.2 609.4 169.07"/></g><g id="POLYLINE-3" data-name="POLYLINE"><polygon class="cls-1" points="113.68 217.84 113.68 216.94 100.23 216.94 100.23 217.84 98.35 217.84 98.35 210.55 100.23 210.55 100.23 211.46 113.68 211.46 113.68 210.55 115.56 210.55 115.56 217.84 113.68 217.84"/></g><g id="POLYLINE-4" data-name="POLYLINE"><polygon class="cls-1" points="100.23 307.12 100.23 308.02 98.35 308.02 98.35 300.73 100.23 300.73 100.23 301.63 113.68 301.63 113.68 300.73 115.56 300.73 115.56 308.02 113.68 308.02 113.68 307.12 100.23 307.12"/></g><g id="POLYLINE-5" data-name="POLYLINE"><path class="cls-1" d="M98.38,167.72h17.14a.72.72,0,0,1,0,1.43H98.38a.72.72,0,0,1,0-1.43Z"/></g><g id="POLYLINE-6" data-name="POLYLINE"><polygon class="cls-1" points="53.94 281.79 53.04 281.79 53.04 299.15 57.47 299.15 57.47 298.25 59.35 298.25 59.35 305.54 57.47 305.54 57.47 304.64 53.04 304.64 53.04 322 53.94 322 53.94 323.87 46.65 323.87 46.65 322 47.55 322 47.55 304.64 43.12 304.64 43.12 305.54 41.24 305.54 41.24 298.25 43.12 298.25 43.12 299.15 47.55 299.15 47.55 281.79 46.65 281.79 46.65 279.91 53.94 279.91 53.94 281.79"/></g><g id="POLYLINE-7" data-name="POLYLINE"><path class="cls-1" d="M69.05,307.91v-12a.71.71,0,0,1,1.42,0v12a.71.71,0,0,1-1.42,0Z"/></g><g id="POLYLINE-8" data-name="POLYLINE"><polygon class="cls-1" points="182.96 259.92 159.59 259.92 159.59 260.82 157.71 260.82 157.71 253.53 159.59 253.53 159.59 254.43 182.96 254.43 182.96 253.53 184.84 253.53 184.84 260.82 182.96 260.82 182.96 259.92"/></g><g id="POLYLINE-9" data-name="POLYLINE"><polygon class="cls-1" points="184.84 350.99 182.96 350.99 182.96 350.09 159.59 350.09 159.59 350.99 157.71 350.99 157.71 343.7 159.59 343.7 159.59 344.61 182.96 344.61 182.96 343.7 184.84 343.7 184.84 350.99"/></g><g id="POLYLINE-10" data-name="POLYLINE"><path class="cls-1" d="M157.75,393.83a.72.72,0,0,1,0-1.43H184.8a.72.72,0,1,1,0,1.43Z"/></g><g id="POLYLINE-11" data-name="POLYLINE"><polygon class="cls-1" points="256.83 256.99 280.2 256.99 280.2 257.89 282.08 257.89 282.08 250.6 280.2 250.6 280.2 251.5 256.83 251.5 256.83 250.6 254.95 250.6 254.95 257.89 256.83 257.89 256.83 256.99"/></g><g id="POLYLINE-12" data-name="POLYLINE"><polygon class="cls-1" points="254.95 348.06 256.83 348.06 256.83 347.16 280.2 347.16 280.2 348.06 282.08 348.06 282.08 340.77 280.2 340.77 280.2 341.68 256.83 341.68 256.83 340.77 254.95 340.77 254.95 348.06"/></g><g id="POLYLINE-13" data-name="POLYLINE"><path class="cls-1" d="M282,390.9a.72.72,0,0,0,0-1.43H255a.72.72,0,1,0,0,1.43Z"/></g><g id="POLYLINE-14" data-name="POLYLINE"><polygon class="cls-1" points="326.56 217.84 326.56 216.94 340.01 216.94 340.01 217.84 341.89 217.84 341.89 210.55 340.01 210.55 340.01 211.46 326.56 211.46 326.56 210.55 324.69 210.55 324.69 217.84 326.56 217.84"/></g><g id="POLYLINE-15" data-name="POLYLINE"><polygon class="cls-1" points="340.01 307.12 340.01 308.02 341.89 308.02 341.89 300.73 340.01 300.73 340.01 301.63 326.56 301.63 326.56 300.73 324.69 300.73 324.69 308.02 326.56 308.02 326.56 307.12 340.01 307.12"/></g><g id="POLYLINE-16" data-name="POLYLINE"><path class="cls-1" d="M341.86,167.72H324.72a.72.72,0,0,0,0,1.43h17.14a.72.72,0,0,0,0-1.43Z"/></g><g id="POLYLINE-17" data-name="POLYLINE"><polygon class="cls-1" points="397.65 323.62 396.75 323.62 396.75 306.26 401.19 306.26 401.19 307.16 403.06 307.16 403.06 299.87 401.19 299.87 401.19 300.77 396.75 300.77 396.75 283.41 397.65 283.41 397.65 281.53 390.37 281.53 390.37 283.41 391.27 283.41 391.27 300.77 386.83 300.77 386.83 299.87 384.95 299.87 384.95 307.16 386.83 307.16 386.83 306.26 391.27 306.26 391.27 323.62 390.37 323.62 390.37 325.49 397.65 325.49 397.65 323.62"/></g><g id="POLYLINE-18" data-name="POLYLINE"><path class="cls-1" d="M412.76,297.5v12a.72.72,0,0,0,1.43,0v-12a.72.72,0,0,0-1.43,0Z"/></g><g id="POLYLINE-19" data-name="POLYLINE"><polygon class="cls-1" points="487.98 301.53 474.53 301.53 474.53 300.63 472.65 300.63 472.65 307.92 474.53 307.92 474.53 307.02 487.98 307.02 487.98 307.92 489.86 307.92 489.86 300.63 487.98 300.63 487.98 301.53"/></g><g id="POLYLINE-20" data-name="POLYLINE"><polygon class="cls-1" points="610.07 283.17 609.17 283.17 609.17 300.53 613.6 300.53 613.6 299.63 615.48 299.63 615.48 306.92 613.6 306.92 613.6 306.01 609.17 306.01 609.17 323.37 610.07 323.37 610.07 325.25 602.78 325.25 602.78 323.37 603.68 323.37 603.68 306.01 599.25 306.01 599.25 306.92 597.37 306.92 597.37 299.63 599.25 299.63 599.25 300.53 603.68 300.53 603.68 283.17 602.78 283.17 602.78 281.29 610.07 281.29 610.07 283.17"/></g><g id="POLYLINE-21" data-name="POLYLINE"><path class="cls-1" d="M625.18,309.28v-12a.71.71,0,1,1,1.42,0v12a.71.71,0,1,1-1.42,0Z"/></g><g id="POLYLINE-22" data-name="POLYLINE"><polygon class="cls-1" points="558.29 307.92 558.29 300.63 556.41 300.63 556.41 301.53 533.04 301.53 533.04 300.63 531.17 300.63 531.17 307.92 533.04 307.92 533.04 307.02 556.41 307.02 556.41 307.92 558.29 307.92"/></g><g id="POLYLINE-23" data-name="POLYLINE"><path class="cls-1" d="M621.34,207.26a.92.92,0,0,1-.07.36.91.91,0,0,1-1.19.46l-9.26-4h-5.41l-9.26,4a.86.86,0,0,1-.36.08.9.9,0,0,1-.9-.9v-6.95a3,3,0,1,1,0-6v-6.94A1.1,1.1,0,0,1,595,187a.9.9,0,0,1,1.19-.47l9.26,4h5.41l9.26-4a.91.91,0,0,1,1.26.83v6.94a3,3,0,1,1,0,6Z"/></g><g id="POLYLINE-24" data-name="POLYLINE"><path class="cls-1" d="M621.34,180.42a.84.84,0,0,1-.07.35.9.9,0,0,1-1.19.47l-9.26-4h-5.41l-9.26,4a.86.86,0,0,1-.36.08.9.9,0,0,1-.9-.9v-6.95a3,3,0,1,1,0-6v-6.94a1,1,0,0,1,.07-.36.9.9,0,0,1,1.19-.47l9.26,4h5.41l9.26-4a.91.91,0,0,1,1.26.83v6.94a3,3,0,1,1,0,6Z"/></g><g id="POLYLINE-25" data-name="POLYLINE"><path class="cls-1" d="M69.05,272.62a15.82,15.82,0,0,1,0-31.63v-12.4h-.91v-1.88h3.61v-15H70.47v6h0a.71.71,0,0,1-1.42,0v-6h-9.7v3.61H57.47v-.9H53v17.36h.9v1.88H46.65v-1.88h.9V214.46H43.12v.9H41.24v-3.61H24v30h3.61v1.88h-.9V250L36,246h0a.9.9,0,0,1,.37-.07.94.94,0,0,1,.94.94v19.89a1,1,0,0,1-.08.38,1,1,0,0,1-1.23.49l-9.21-4V270h.9v1.88H24v60h3.61v1.88h-.9v6.37l9.21-4h0a.91.91,0,0,1,.37-.08.94.94,0,0,1,.94.94v19.9a.91.91,0,0,1-.08.37.93.93,0,0,1-1.23.49l-9.21-4v6.37h.9v1.88H24v28.63h3.61v1.88h-.9v2.18h14.5v-6.31h1.88v.9h4.43V372h-.9v-1.88h7.29V372H53v17.36h4.43v-.9h1.88v6.31H69v-.83h-.9V392h3.61V377.08H68.14V375.2h.91V362.8h0a15.82,15.82,0,0,1,0-31.64v-12.4h-.91v-1.87h3.61v-30H68.14V285h.91v-12.4Z"/></g><g id="POLYLINE-26" data-name="POLYLINE"><polygon class="cls-1" points="81.14 394.51 98.35 394.51 98.35 390.9 100.23 390.9 100.23 391.81 113.68 391.81 113.68 390.9 115.56 390.9 115.56 394.51 135.47 394.51 135.47 393.69 134.56 393.69 134.56 391.81 135.51 391.81 138.17 391.81 138.17 388.93 138.17 385.87 134.57 385.87 134.57 383.99 135.47 383.99 135.47 314.93 134.57 314.93 134.57 313.05 138.17 313.05 138.17 309.99 138.17 307.12 135.51 307.12 134.56 307.12 134.56 305.24 135.47 305.24 135.47 303.51 134.56 303.51 134.56 301.63 135.51 301.63 138.17 301.63 138.17 298.75 138.17 295.69 134.57 295.69 134.57 293.82 135.47 293.82 135.47 224.76 134.57 224.75 134.57 222.88 138.17 222.88 138.17 219.82 138.17 216.94 135.51 216.94 134.56 216.94 134.56 215.06 135.47 215.06 135.47 198.75 134.57 198.75 134.57 196.88 138.18 196.88 138.18 190.64 99.78 190.64 99.78 191.54 97.9 191.54 97.9 184.25 99.78 184.25 99.78 185.15 138.18 185.15 138.18 178.92 134.57 178.92 134.57 177.04 135.47 177.04 135.47 166.44 78.43 166.44 78.43 177.04 79.33 177.04 79.33 178.92 75.73 178.92 75.73 196.88 79.33 196.88 79.33 198.75 78.43 198.75 78.43 215.51 82.04 215.51 82.04 217.39 81.14 217.39 81.14 242.41 82.04 242.41 82.04 244.29 78.43 244.29 78.43 252.49 82.04 252.49 82.04 254.36 81.14 254.36 81.14 256.09 82.04 256.09 82.04 257.97 78.43 257.97 78.43 260.6 82.04 260.6 82.04 262.48 81.14 262.48 81.14 264.21 82.04 264.21 82.04 266.09 78.43 266.09 78.43 274.28 82.04 274.28 82.04 276.16 81.14 276.16 81.14 332.59 82.04 332.59 82.04 334.47 78.43 334.47 78.43 342.66 82.04 342.66 82.04 344.54 81.14 344.54 81.14 346.27 82.04 346.27 82.04 348.15 78.43 348.15 78.43 350.78 82.04 350.78 82.04 352.65 81.14 352.65 81.14 354.38 82.04 354.38 82.04 356.26 78.43 356.26 78.43 364.45 82.04 364.45 82.04 366.33 81.14 366.33 81.14 394.51"/></g><g id="POLYLINE-27" data-name="POLYLINE"><polygon class="cls-1" points="69.55 179.52 68.65 179.52 68.65 177.64 72.25 177.64 72.25 175 68.65 175 68.65 173.12 69.55 173.12 69.55 171.39 68.65 171.39 68.65 169.51 72.25 169.51 72.25 162.82 68.65 162.82 68.65 160.94 69.55 160.94 69.55 147.79 61.66 147.79 61.66 148.69 59.78 148.69 59.78 145.08 53.54 145.08 53.54 183.48 54.45 183.48 54.45 185.36 47.16 185.36 47.16 183.48 48.06 183.48 48.06 145.08 41.82 145.08 41.82 148.69 39.94 148.69 39.94 147.79 27.24 147.78 27.25 150.45 27.25 165.9 28.15 165.9 28.15 167.78 24.54 167.78 24.54 184.84 28.14 184.84 28.14 186.71 27.24 186.71 27.24 202.12 39.94 202.12 39.94 201.22 41.82 201.22 41.82 207.53 59.78 207.53 59.78 201.22 61.66 201.22 61.66 202.12 69.55 202.12 69.55 191.67 68.65 191.67 68.65 189.79 72.25 189.79 72.25 183.12 68.65 183.12 68.65 181.24 69.55 181.24 69.55 179.52"/></g><g id="POLYLINE-28" data-name="POLYLINE"><polygon class="cls-1" points="58.77 90.12 58.77 91.02 56.89 91.02 56.89 87.41 54.25 87.41 54.25 91.02 52.38 91.02 52.38 90.12 50.65 90.12 50.65 91.02 48.77 91.02 48.77 87.41 42.07 87.41 42.07 91.02 40.19 91.02 40.19 90.12 27.04 90.12 27.04 98.01 27.94 98.01 27.94 99.89 24.34 99.89 24.34 106.13 62.74 106.13 62.74 105.22 64.61 105.22 64.61 112.51 62.74 112.51 62.74 111.61 24.34 111.61 24.34 117.85 27.94 117.85 27.94 119.73 27.04 119.73 27.04 132.42 29.71 132.42 45.15 132.42 45.15 131.52 47.03 131.52 47.03 135.13 64.09 135.13 64.09 131.53 65.97 131.53 65.97 132.43 81.37 132.43 81.37 119.73 80.47 119.73 80.47 117.85 86.78 117.85 86.78 99.89 80.47 99.89 80.47 98.01 81.37 98.01 81.37 90.12 70.93 90.12 70.93 91.02 69.05 91.02 69.05 87.41 62.37 87.41 62.37 91.02 60.49 91.02 60.49 90.12 58.77 90.12"/></g><g id="POLYLINE-29" data-name="POLYLINE"><polygon class="cls-1" points="150.58 130.46 149.68 130.46 149.68 128.58 153.28 128.58 153.28 125.94 149.68 125.94 149.68 124.06 150.58 124.06 150.58 122.33 149.68 122.33 149.68 120.45 153.28 120.45 153.28 113.76 149.68 113.76 149.68 111.88 150.58 111.88 150.58 98.73 142.69 98.73 142.69 99.63 140.81 99.63 140.81 96.02 134.57 96.02 134.57 134.42 135.48 134.42 135.48 136.3 128.19 136.3 128.19 134.42 129.09 134.42 129.09 96.02 122.85 96.02 122.85 99.63 120.97 99.63 120.97 98.73 108.28 98.72 108.28 101.39 108.28 116.84 109.18 116.84 109.18 118.72 105.57 118.72 105.57 135.77 109.17 135.77 109.17 137.65 108.27 137.65 108.27 153.06 120.97 153.06 120.97 152.16 122.85 152.16 122.85 158.47 140.81 158.47 140.81 152.16 142.69 152.16 142.69 153.06 150.58 153.06 150.58 142.61 149.68 142.61 149.68 140.73 153.28 140.73 153.28 134.06 149.68 134.06 149.68 132.18 150.58 132.18 150.58 130.46"/></g><g id="POLYLINE-30" data-name="POLYLINE"><polygon class="cls-1" points="200.63 130.46 199.73 130.46 199.73 128.58 203.33 128.58 203.33 125.94 199.73 125.94 199.73 124.06 200.63 124.06 200.63 122.33 199.73 122.33 199.73 120.45 203.33 120.45 203.33 113.76 199.73 113.76 199.73 111.88 200.63 111.88 200.63 98.73 192.74 98.73 192.74 99.63 190.86 99.63 190.86 96.02 184.62 96.02 184.62 134.42 185.52 134.42 185.52 136.3 178.23 136.3 178.23 134.42 179.14 134.42 179.14 96.02 172.9 96.02 172.9 99.63 171.02 99.63 171.02 98.73 158.32 98.72 158.32 101.39 158.32 116.84 159.23 116.84 159.23 118.72 155.62 118.72 155.62 135.77 159.22 135.77 159.22 137.65 158.32 137.65 158.32 153.06 171.02 153.06 171.02 152.16 172.9 152.16 172.9 158.47 190.86 158.47 190.86 152.16 192.74 152.16 192.74 153.06 200.63 153.06 200.63 142.61 199.73 142.61 199.73 140.73 203.33 140.73 203.33 134.06 199.73 134.06 199.73 132.18 200.63 132.18 200.63 130.46"/></g><g id="POLYLINE-31" data-name="POLYLINE"><polygon class="cls-1" points="150.58 65.68 149.68 65.68 149.68 63.8 153.28 63.8 153.28 61.16 149.68 61.16 149.68 59.28 150.58 59.28 150.58 57.55 149.68 57.55 149.68 55.68 153.28 55.68 153.28 48.98 149.68 48.98 149.68 47.1 150.58 47.1 150.58 33.95 142.69 33.95 142.69 34.85 140.81 34.85 140.81 31.25 134.57 31.25 134.57 69.64 135.48 69.64 135.48 71.52 128.19 71.52 128.19 69.64 129.09 69.64 129.09 31.25 122.85 31.25 122.85 34.85 120.97 34.85 120.97 33.95 108.28 33.95 108.28 36.62 108.28 52.06 109.18 52.06 109.18 53.94 105.57 53.94 105.57 71 109.17 71 109.17 72.88 108.27 72.88 108.27 88.28 120.97 88.28 120.97 87.38 122.85 87.38 122.85 93.69 140.81 93.69 140.81 87.38 142.69 87.38 142.69 88.28 150.58 88.28 150.58 77.84 149.68 77.84 149.68 75.96 153.28 75.96 153.28 69.28 149.68 69.28 149.68 67.4 150.58 67.4 150.58 65.68"/></g><g id="POLYLINE-32" data-name="POLYLINE"><polygon class="cls-1" points="200.63 65.68 199.73 65.68 199.73 63.8 203.33 63.8 203.33 61.16 199.73 61.16 199.73 59.28 200.63 59.28 200.63 57.55 199.73 57.55 199.73 55.68 203.33 55.68 203.33 48.98 199.73 48.98 199.73 47.1 200.63 47.1 200.63 33.95 192.74 33.95 192.74 34.85 190.86 34.85 190.86 31.25 184.62 31.25 184.62 69.64 185.52 69.64 185.52 71.52 178.23 71.52 178.23 69.64 179.14 69.64 179.14 31.25 172.9 31.25 172.9 34.85 171.02 34.85 171.02 33.95 158.32 33.95 158.32 36.62 158.32 52.06 159.23 52.06 159.23 53.94 155.62 53.94 155.62 71 159.22 71 159.22 72.88 158.32 72.88 158.32 88.28 171.02 88.28 171.02 87.38 172.9 87.38 172.9 93.69 190.86 93.69 190.86 87.38 192.74 87.38 192.74 88.28 200.63 88.28 200.63 77.84 199.73 77.84 199.73 75.96 203.33 75.96 203.33 69.28 199.73 69.28 199.73 67.4 200.63 67.4 200.63 65.68"/></g><g id="POLYLINE-33" data-name="POLYLINE"><polygon class="cls-1" points="57.43 37.68 57.43 38.59 55.55 38.59 55.55 34.98 52.91 34.98 52.91 38.59 51.03 38.59 51.03 37.68 49.3 37.68 49.3 38.59 47.43 38.59 47.43 34.98 40.73 34.98 40.73 38.59 38.85 38.59 38.85 37.68 25.7 37.68 25.7 45.57 26.6 45.57 26.6 47.45 23 47.45 23 53.69 61.4 53.69 61.4 52.79 63.27 52.79 63.27 60.08 61.4 60.08 61.4 59.18 23 59.18 23 65.41 26.6 65.41 26.6 67.29 25.7 67.29 25.7 79.99 28.37 79.99 43.81 79.99 43.81 79.09 45.69 79.09 45.69 82.7 62.75 82.7 62.75 79.09 64.63 79.09 64.63 79.99 80.03 79.99 80.03 67.29 79.13 67.29 79.13 65.41 85.44 65.41 85.44 47.45 79.13 47.45 79.13 45.57 80.03 45.57 80.03 37.68 69.59 37.68 69.59 38.59 67.71 38.59 67.71 34.98 61.03 34.98 61.03 38.59 59.15 38.59 59.15 37.68 57.43 37.68"/></g><g id="POLYLINE-34" data-name="POLYLINE"><path class="cls-1" d="M182.1,179a1,1,0,0,1-.87,1.31H161.34a1,1,0,0,1-.38-.08.94.94,0,0,1-.49-1.23l4-9.21h-4.87v.9h-1.88V167h-15V173h3.6v1.88h-.9v5.34h.9v1.87h-3.6v13.15h.9v1.88h-3.61v30h3.61V229h-.9v13.15h3.6V244h-.9v5.33h.9v1.88h-3.6v11.95h3.6V265h-.9v7.21h-2.7v13.15h.9v1.88h-3.61v30h3.61v1.88h-.9v13.15h3.6v1.88h-.9v11.35h.9v1.88h-3.6v15.4h.9v1.88h-3.61v18h3.61v1.88h-.9v10.6h57v-10.6h-.9v-1.88h3.61v-6.24H164.1v.9h-1.88V370h1.88v.9h38.4v-6.24h-3.61v-1.88h.9V319.13h-.9v-1.88h3.61v-30h-3.61v-1.88h.9V229h-.9v-1.88h3.61v-30h-3.61v-1.88h.9V167H184.84v3.61H183v-.9h-4.85l4,9.21Z"/></g><g id="POLYLINE-35" data-name="POLYLINE"><path class="cls-1" d="M257.69,176a.94.94,0,0,0,.49,1.23,1,1,0,0,0,.37.08h19.9a.94.94,0,0,0,.94-.94.8.8,0,0,0-.08-.37l-4-9.21h4.88v.9h1.88V164.1H297V170h-3.61v1.88h.91v5.34h-.91v1.87H297v13.15h-.9v1.88h3.61v30h-3.61V226h.9v13.15h-3.61v1.87h.91v5.34h-.91v1.88H297v12h-3.61v1.88h.91v7.21H297v13.15h-.9v1.88h3.61v30h-3.61v1.88h.9v13.15h-3.61v1.88h.91v11.35h-.91v1.88H297v15.4h-.9v1.88h3.61v18h-3.61v1.88h.9v10.59H240V381.58h.91V379.7h-3.61v-6.24h38.4v.9h1.88v-7.28h-1.88v.9h-38.4v-6.24h3.61v-1.88H240V316.2h.91v-1.88h-3.61v-30h3.61v-1.88H240V226h.91v-1.88h-3.61v-30h3.61v-1.88H240V164.1h15v3.61h1.88v-.9h4.85l-4,9.21Z"/></g><g id="POLYLINE-36" data-name="POLYLINE"><polygon class="cls-1" points="359.1 394.51 341.89 394.51 341.89 390.91 340.01 390.91 340.01 391.81 326.56 391.81 326.56 390.91 324.69 390.91 324.69 394.51 304.77 394.51 304.77 393.69 305.68 393.69 305.68 391.81 304.73 391.81 302.07 391.81 302.07 388.93 302.07 385.87 305.67 385.87 305.67 383.99 304.77 383.99 304.77 314.93 305.67 314.93 305.67 313.05 302.07 313.05 302.07 309.99 302.07 307.12 304.73 307.12 305.68 307.12 305.68 305.24 304.77 305.24 304.77 303.51 305.68 303.51 305.68 301.63 304.73 301.63 302.07 301.63 302.07 298.75 302.07 295.69 305.67 295.69 305.67 293.82 304.77 293.82 304.77 224.76 305.67 224.75 305.67 222.88 302.07 222.88 302.07 219.82 302.07 216.94 304.73 216.94 305.68 216.94 305.68 215.06 304.77 215.06 304.77 198.75 305.67 198.75 305.67 196.88 302.07 196.88 302.07 190.64 340.47 190.64 340.47 191.54 342.35 191.54 342.35 184.25 340.47 184.25 340.47 185.15 302.07 185.15 302.07 178.92 305.67 178.92 305.67 177.04 304.77 177.04 304.77 166.44 361.81 166.44 361.81 177.04 360.91 177.04 360.91 178.92 364.51 178.92 364.51 196.88 360.91 196.88 360.91 198.75 361.81 198.75 361.81 215.51 358.2 215.51 358.2 217.39 359.1 217.39 359.1 242.41 358.2 242.41 358.2 244.29 361.81 244.29 361.81 252.49 358.2 252.49 358.2 254.36 359.1 254.36 359.1 256.09 358.2 256.09 358.2 257.97 361.81 257.97 361.81 260.6 358.2 260.6 358.2 262.48 359.1 262.48 359.1 264.21 358.2 264.21 358.2 266.09 361.81 266.09 361.81 274.28 358.2 274.28 358.2 276.16 359.1 276.16 359.1 332.59 358.2 332.59 358.2 334.47 361.81 334.47 361.81 342.66 358.2 342.66 358.2 344.54 359.1 344.54 359.1 346.27 358.2 346.27 358.2 348.15 361.81 348.15 361.81 350.78 358.2 350.78 358.2 352.66 359.1 352.66 359.1 354.38 358.2 354.38 358.2 356.26 361.81 356.26 361.81 364.45 358.2 364.45 358.2 366.33 359.1 366.33 359.1 394.51"/></g><g id="POLYLINE-37" data-name="POLYLINE"><polygon class="cls-1" points="369.57 179.52 370.47 179.52 370.47 177.64 366.87 177.64 366.87 175 370.47 175 370.47 173.12 369.57 173.12 369.57 171.39 370.47 171.39 370.47 169.51 366.87 169.51 366.87 162.82 370.47 162.82 370.47 160.94 369.57 160.94 369.57 147.79 377.46 147.79 377.46 148.69 379.34 148.69 379.34 145.08 385.58 145.08 385.58 183.48 384.68 183.48 384.68 185.36 391.96 185.36 391.96 183.48 391.06 183.48 391.06 145.08 397.3 145.08 397.3 148.69 399.18 148.69 399.18 147.79 411.88 147.78 411.87 150.45 411.87 165.9 410.97 165.9 410.97 167.78 414.58 167.78 414.58 184.84 410.98 184.84 410.98 186.71 411.88 186.71 411.88 202.12 399.18 202.12 399.18 201.22 397.3 201.22 397.3 207.53 379.34 207.53 379.34 201.22 377.46 201.22 377.46 202.12 369.57 202.12 369.57 191.67 370.47 191.67 370.47 189.79 366.87 189.79 366.87 183.12 370.47 183.12 370.47 181.24 369.57 181.24 369.57 179.52"/></g><g id="POLYLINE-38" data-name="POLYLINE"><polygon class="cls-1" points="380.35 90.12 380.35 91.02 382.23 91.02 382.23 87.41 384.87 87.41 384.87 91.02 386.75 91.02 386.75 90.12 388.47 90.12 388.47 91.02 390.35 91.02 390.35 87.41 397.05 87.41 397.05 91.02 398.93 91.02 398.93 90.12 412.08 90.12 412.08 98.01 411.18 98.01 411.18 99.89 414.78 99.89 414.78 106.13 376.38 106.13 376.38 105.22 374.5 105.22 374.5 112.51 376.38 112.51 376.38 111.61 414.78 111.61 414.78 117.85 411.18 117.85 411.18 119.73 412.08 119.73 412.08 132.42 409.41 132.42 393.97 132.42 393.97 131.52 392.09 131.52 392.09 135.13 375.03 135.13 375.03 131.53 373.15 131.53 373.15 132.43 357.75 132.43 357.75 119.73 358.65 119.73 358.65 117.85 352.34 117.85 352.34 99.89 358.65 99.89 358.65 98.01 357.75 98.01 357.75 90.12 368.19 90.12 368.19 91.02 370.07 91.02 370.07 87.41 376.75 87.41 376.75 91.02 378.63 91.02 378.63 90.12 380.35 90.12"/></g><g id="POLYLINE-39" data-name="POLYLINE"><polygon class="cls-1" points="288.54 130.46 289.44 130.46 289.44 128.58 285.83 128.58 285.83 125.94 289.44 125.94 289.44 124.06 288.54 124.06 288.54 122.33 289.44 122.33 289.44 120.45 285.83 120.45 285.83 113.76 289.44 113.76 289.44 111.88 288.54 111.88 288.54 98.73 296.43 98.73 296.43 99.63 298.31 99.63 298.31 96.02 304.55 96.02 304.55 134.42 303.64 134.42 303.64 136.3 310.93 136.3 310.93 134.42 310.03 134.42 310.03 96.02 316.27 96.02 316.27 99.63 318.15 99.63 318.15 98.73 330.85 98.72 330.84 101.39 330.84 116.84 329.94 116.84 329.94 118.72 333.55 118.72 333.55 135.77 329.95 135.77 329.95 137.65 330.85 137.65 330.85 153.06 318.15 153.06 318.15 152.16 316.27 152.16 316.27 158.47 298.31 158.47 298.31 152.16 296.43 152.16 296.43 153.06 288.54 153.06 288.54 142.61 289.44 142.61 289.44 140.73 285.83 140.73 285.83 134.06 289.44 134.06 289.44 132.18 288.54 132.18 288.54 130.46"/></g><g id="POLYLINE-40" data-name="POLYLINE"><polygon class="cls-1" points="238.49 130.46 239.39 130.46 239.39 128.58 235.79 128.58 235.79 125.94 239.39 125.94 239.39 124.06 238.49 124.06 238.49 122.33 239.39 122.33 239.39 120.45 235.79 120.45 235.79 113.76 239.39 113.76 239.39 111.88 238.49 111.88 238.49 98.73 246.38 98.73 246.38 99.63 248.26 99.63 248.26 96.02 254.5 96.02 254.5 134.42 253.6 134.42 253.6 136.3 260.89 136.3 260.89 134.42 259.98 134.42 259.98 96.02 266.22 96.02 266.22 99.63 268.1 99.63 268.1 98.73 280.8 98.72 280.8 101.39 280.8 116.84 279.89 116.84 279.89 118.72 283.5 118.72 283.5 135.77 279.9 135.77 279.9 137.65 280.8 137.65 280.8 153.06 268.1 153.06 268.1 152.16 266.22 152.16 266.22 158.47 248.26 158.47 248.26 152.16 246.38 152.16 246.38 153.06 238.49 153.06 238.49 142.61 239.39 142.61 239.39 140.73 235.79 140.73 235.79 134.06 239.39 134.06 239.39 132.18 238.49 132.18 238.49 130.46"/></g><g id="POLYLINE-41" data-name="POLYLINE"><polygon class="cls-1" points="288.54 65.68 289.44 65.68 289.44 63.8 285.83 63.8 285.83 61.16 289.44 61.16 289.44 59.28 288.54 59.28 288.54 57.55 289.44 57.55 289.44 55.68 285.83 55.68 285.83 48.98 289.44 48.98 289.44 47.1 288.54 47.1 288.54 33.95 296.43 33.95 296.43 34.85 298.31 34.85 298.31 31.25 304.55 31.25 304.55 69.64 303.64 69.64 303.64 71.52 310.93 71.52 310.93 69.64 310.03 69.64 310.03 31.25 316.27 31.25 316.27 34.85 318.15 34.85 318.15 33.95 330.85 33.95 330.84 36.62 330.84 52.06 329.94 52.06 329.94 53.94 333.55 53.94 333.55 71 329.95 71 329.95 72.88 330.85 72.88 330.85 88.28 318.15 88.28 318.15 87.38 316.27 87.38 316.27 93.69 298.31 93.69 298.31 87.38 296.43 87.38 296.43 88.28 288.54 88.28 288.54 77.84 289.44 77.84 289.44 75.96 285.83 75.96 285.83 69.28 289.44 69.28 289.44 67.4 288.54 67.4 288.54 65.68"/></g><g id="POLYLINE-42" data-name="POLYLINE"><polygon class="cls-1" points="238.49 65.68 239.39 65.68 239.39 63.8 235.79 63.8 235.79 61.16 239.39 61.16 239.39 59.28 238.49 59.28 238.49 57.55 239.39 57.55 239.39 55.68 235.79 55.68 235.79 48.98 239.39 48.98 239.39 47.1 238.49 47.1 238.49 33.95 246.38 33.95 246.38 34.85 248.26 34.85 248.26 31.25 254.5 31.25 254.5 69.64 253.6 69.64 253.6 71.52 260.89 71.52 260.89 69.64 259.98 69.64 259.98 31.25 266.22 31.25 266.22 34.85 268.1 34.85 268.1 33.95 280.8 33.95 280.8 36.62 280.8 52.06 279.89 52.06 279.89 53.94 283.5 53.94 283.5 71 279.9 71 279.9 72.88 280.8 72.88 280.8 88.28 268.1 88.28 268.1 87.38 266.22 87.38 266.22 93.69 248.26 93.69 248.26 87.38 246.38 87.38 246.38 88.28 238.49 88.28 238.49 77.84 239.39 77.84 239.39 75.96 235.79 75.96 235.79 69.28 239.39 69.28 239.39 67.4 238.49 67.4 238.49 65.68"/></g><g id="POLYLINE-43" data-name="POLYLINE"><polygon class="cls-1" points="381.69 37.68 381.69 38.59 383.57 38.59 383.57 34.98 386.21 34.98 386.21 38.59 388.09 38.59 388.09 37.68 389.81 37.68 389.81 38.59 391.69 38.59 391.69 34.98 398.39 34.98 398.39 38.59 400.27 38.59 400.27 37.68 413.42 37.68 413.42 45.57 412.52 45.57 412.52 47.45 416.13 47.45 416.13 53.69 377.73 53.69 377.73 52.79 375.85 52.79 375.85 60.08 377.73 60.08 377.73 59.18 416.13 59.18 416.13 65.41 412.52 65.41 412.52 67.29 413.42 67.29 413.42 79.99 410.75 79.99 395.31 79.99 395.31 79.09 393.43 79.09 393.43 82.7 376.37 82.7 376.37 79.09 374.49 79.09 374.49 79.99 359.09 79.99 359.09 67.29 359.99 67.29 359.99 65.41 353.68 65.41 353.68 47.45 359.99 47.45 359.99 45.57 359.09 45.57 359.09 37.68 369.53 37.68 369.53 38.59 371.41 38.59 371.41 34.98 378.09 34.98 378.09 38.59 379.97 38.59 379.97 37.68 381.69 37.68"/></g><g id="POLYLINE-44" data-name="POLYLINE"><path class="cls-1" d="M412.76,332.78a15.82,15.82,0,0,0,0,31.64v12.4h-.9v1.88h3.6v14.95h-1.27v-6h0a.72.72,0,1,0-1.43,0v6h-9.7v-3.6h-1.87v.9h-4.44V373.59h.9v-1.88h-7.29v1.88h.91V391h-4.44v-.9H385v3.61h-17.2v-30h3.6v-1.88h-.9v-6.37l9.21,4h0a.93.93,0,0,0,1.23-.49.91.91,0,0,0,.08-.37v-19.9a.93.93,0,0,0-1.31-.86l-9.21,4v-6.37h.9v-1.88h-3.6v-60h3.6v-1.88h-.9v-6.36l9.21,4h0a.94.94,0,0,0,1.23-.49,1,1,0,0,0,.08-.38V248.48a.94.94,0,0,0-.94-.94.8.8,0,0,0-.37.08l-9.21,4v-6.37h.9v-1.88h-3.6V214.73h3.6v-1.88h-.9v-2.18H385V217h1.88v-.9h4.44v17.36h-.91v1.88h7.29v-1.88h-.9V216.08h4.44v.9h1.87v-6.31h9.7v.83h-.9v1.88h3.6v15h-3.6v1.88h.9v12.4h0a15.82,15.82,0,0,0,0,31.63v12.4h-.9v1.88h3.6v30h-3.6v1.87h.9v12.4Z"/></g><g id="POLYLINE-45" data-name="POLYLINE"><polygon class="cls-1" points="560.71 208.57 578.82 208.57 578.82 195.87 577.91 195.87 577.91 193.99 581.52 193.99 581.52 187.75 543.12 187.75 543.12 188.65 541.24 188.65 541.24 181.36 543.12 181.36 543.12 182.26 581.52 182.26 581.52 176.03 577.91 176.03 577.91 174.15 578.82 174.15 578.82 166.26 565.66 166.26 565.66 167.16 563.79 167.16 563.79 163.55 536.81 163.55 536.81 167.16 534.93 167.16 534.93 166.26 521.78 166.26 521.78 174.15 522.68 174.15 522.68 176.03 519.07 176.03 519.07 193.99 522.68 193.99 522.68 195.87 521.78 195.87 521.78 208.57 539.89 208.57 539.89 207.66 541.77 207.66 541.77 211.27 558.83 211.27 558.83 207.66 560.71 207.66 560.71 208.57"/></g><g id="POLYLINE-46" data-name="POLYLINE"><polygon class="cls-1" points="456.35 242.31 455.44 242.31 455.44 214.14 472.65 214.13 472.65 217.74 474.53 217.74 474.53 216.84 487.98 216.84 487.98 217.74 489.86 217.74 489.86 214.14 509.77 214.13 509.77 214.96 508.87 214.96 508.87 216.84 509.81 216.84 512.48 216.84 512.48 222.78 508.87 222.78 508.87 224.66 509.77 224.66 509.77 293.72 508.87 293.72 508.87 295.6 512.48 295.6 512.48 301.53 509.81 301.53 508.87 301.53 508.87 303.41 509.77 303.41 509.77 305.14 508.87 305.14 508.87 307.02 509.81 307.02 512.48 307.02 512.48 312.95 508.87 312.95 508.87 314.83 509.77 314.83 509.77 383.89 508.87 383.89 508.87 385.77 512.48 385.77 512.48 391.71 509.81 391.71 508.87 391.71 508.87 393.59 509.77 393.59 509.77 394.41 489.86 394.41 489.86 390.81 487.98 390.81 487.98 391.71 474.53 391.71 474.53 390.81 472.65 390.81 472.65 394.41 455.44 394.41 455.44 366.23 456.35 366.23 456.35 364.35 452.74 364.35 452.74 356.16 456.35 356.16 456.35 354.29 455.44 354.29 455.44 352.56 456.35 352.56 456.35 350.68 452.74 350.68 452.74 348.05 456.35 348.05 456.35 346.17 455.44 346.17 455.44 344.44 456.35 344.44 456.35 342.56 452.74 342.56 452.74 334.37 456.35 334.37 456.35 332.49 455.44 332.49 455.44 276.06 456.35 276.06 456.35 274.18 452.74 274.18 452.74 265.99 456.35 265.99 456.35 264.11 455.44 264.11 455.44 262.38 456.35 262.38 456.35 260.5 452.74 260.5 452.74 257.87 456.35 257.87 456.35 255.99 455.44 255.99 455.44 254.26 456.35 254.26 456.35 252.38 452.74 252.38 452.74 244.19 456.35 244.19 456.35 242.31"/></g><g id="POLYLINE-47" data-name="POLYLINE"><path class="cls-1" d="M625.18,364.18a15.82,15.82,0,0,1,0-31.64v-12.4h-.91v-1.88h3.61v-30h-3.61V286.4h.91V274h0a15.82,15.82,0,0,1,0-31.63V230h-.91v-1.88h3.61v-15H626.6v6h0a.71.71,0,0,1-1.42,0v-6h-9.7v3.61H613.6v-.9h-4.43V233.2h.9v1.88h-7.29V233.2h.9V215.84h-4.43v.9h-1.88v-3.62H580.16v30h3.61V245h-.9v6.36l9.21-4h0a.9.9,0,0,1,.37-.07.94.94,0,0,1,.94.93v19.9a1,1,0,0,1-.08.38.93.93,0,0,1-1.23.48l-9.21-4v6.37h.9v1.88h-3.61v60h3.61v1.88h-.9v6.37l9.21-4h0a.91.91,0,0,1,.37-.08.94.94,0,0,1,.94.94v19.9a1,1,0,0,1-.08.37.93.93,0,0,1-1.23.49l-9.21-4v6.37h.9v1.88h-3.61v30h17.21V389.8h1.88v.9h4.43V373.35h-.9v-1.88h7.29v1.88h-.9V390.7h4.43v-.9h1.88v3.61h9.7v-6h0a.71.71,0,1,1,1.42,0v6h1.28v-15h-3.61v-1.88h.91v-12.4Z"/></g><g id="POLYLINE-48" data-name="POLYLINE"><path class="cls-1" d="M555.55,382.5a.93.93,0,0,0-.86-1.31h-19.9a.93.93,0,0,0-.86,1.31l4,9.21H533v-.9h-1.87v3.6h-15v-5.93h3.61V386.6h-.9v-5.34h.9v-1.88h-3.61V366.23h.9v-1.88h-3.6v-30h3.6v-1.88h-.9V319.34h3.61v-1.88h-.9v-5.33h.9v-1.88h-3.61V298.3h3.61v-1.88h-.9v-5.33h.9v-1.88h-3.61V276.06h.9v-1.88h-3.6v-30h3.6v-1.87h-.9V229.17h3.61v-1.88h-.9V222h.9v-1.88h-3.61v-5.93h15v3.6H533v-.9h4.88l-4,9.21h0a.93.93,0,0,0,.49,1.23.77.77,0,0,0,.37.08h19.9a.93.93,0,0,0,.86-1.31l-4-9.21h4.86v.9h1.87v-3.6h15v28.18h-.9v1.87H576v30h-3.6v1.88h.9v56.43h-.9v1.88H576v30h-3.6v1.88h.9v28.18h-15v-3.6h-1.87v.9h-4.86l4-9.21Z"/></g><g id="POLYLINE-49" data-name="POLYLINE"><polygon class="cls-1" points="493.29 208.6 511.4 208.6 511.4 195.9 510.5 195.9 510.5 194.03 514.1 194.03 514.1 187.79 475.7 187.79 475.7 188.69 473.82 188.69 473.82 181.4 475.7 181.4 475.7 182.3 514.1 182.3 514.1 176.06 510.5 176.06 510.5 174.19 511.4 174.19 511.4 166.3 498.25 166.3 498.25 167.2 496.37 167.2 496.37 163.59 469.39 163.59 469.39 167.2 467.51 167.2 467.51 166.3 454.36 166.3 454.36 174.19 455.26 174.19 455.26 176.06 451.66 176.06 451.66 194.03 455.26 194.03 455.26 195.9 454.36 195.9 454.36 208.6 472.47 208.6 472.47 207.7 474.35 207.7 474.35 211.31 491.41 211.31 491.41 207.7 493.29 207.7 493.29 208.6"/></g><g id="MTEXT"><text class="cls-2" transform="translate(61.49 191.97) rotate(180)">END-S/A</text></g><g id="MTEXT-2" data-name="MTEXT"><text class="cls-2" transform="translate(369.36 72.26) rotate(-90)">END-S/A</text></g><g id="MTEXT-3" data-name="MTEXT"><text class="cls-2" transform="translate(404.15 191.63) rotate(180)">END-S/A</text></g><g id="MTEXT-4" data-name="MTEXT"><text class="cls-2" transform="translate(369.14 124.7) rotate(-90)">END-S/A</text></g><g id="MTEXT-5" data-name="MTEXT"><text class="cls-2" transform="translate(533.44 200.55) rotate(-90)">END-S/B</text></g><g id="MTEXT-6" data-name="MTEXT"><text class="cls-2" transform="translate(467.08 200.58) rotate(-90)">END-S/B</text></g><g id="MTEXT-7" data-name="MTEXT"><text class="cls-2" transform="translate(271.68 142.76) rotate(180)">END-S/A</text></g><g id="MTEXT-8" data-name="MTEXT"><text class="cls-2" transform="translate(321.73 142.76) rotate(180)">END-S/A</text></g><g id="MTEXT-9" data-name="MTEXT"><text class="cls-2" transform="translate(271.68 77.99) rotate(180)">END-S/A</text></g><g id="MTEXT-10" data-name="MTEXT"><text class="cls-2" transform="translate(321.73 77.99) rotate(180)">END-S/A</text></g><g id="MTEXT-11" data-name="MTEXT"><text class="cls-2" transform="translate(142.52 77.99) rotate(180)">END-S/A</text></g><g id="MTEXT-12" data-name="MTEXT"><text class="cls-2" transform="translate(192.57 77.99) rotate(180)">END-S/A</text></g><g id="MTEXT-13" data-name="MTEXT"><text class="cls-2" transform="translate(192.57 142.76) rotate(180)">END-S/A</text></g><g id="MTEXT-14" data-name="MTEXT"><text class="cls-2" transform="translate(71.38 98.18) rotate(90)">END-S/A</text></g><g id="MTEXT-15" data-name="MTEXT"><text class="cls-2" transform="translate(142.52 142.76) rotate(180)">END-S/A</text></g><g id="MTEXT-16" data-name="MTEXT"><text class="cls-2" transform="translate(70.04 45.75) rotate(90)">END-S/A</text></g><g id="MTEXT-17" data-name="MTEXT"><text class="cls-2" transform="translate(546.91 279.15) rotate(-90)">END-S2/B</text></g><g id="MTEXT-18" data-name="MTEXT"><text class="cls-2" transform="translate(484.4 278.83) rotate(-90)">END-S2/C</text></g><g id="MTEXT-19" data-name="MTEXT"><text class="cls-2" transform="translate(587.81 288.12) rotate(90)">END-S2/D</text></g><g id="MTEXT-20" data-name="MTEXT"><text class="cls-2" transform="translate(375.26 287.48) rotate(90)">END-S3/E</text></g><g id="MTEXT-21" data-name="MTEXT"><text class="cls-2" transform="translate(330.6 246.22) rotate(90)">END-S3/D</text></g><g id="MTEXT-22" data-name="MTEXT"><text class="cls-2" transform="translate(266.55 282.17) rotate(90)">END-S3/C</text></g><g id="MTEXT-23" data-name="MTEXT"><text class="cls-2" transform="translate(173.22 318.08) rotate(-90)">END-S1/C</text></g><g id="MTEXT-24" data-name="MTEXT"><text class="cls-2" transform="translate(109.64 275.62) rotate(-90)">END-S1/D</text></g><g id="MTEXT-25" data-name="MTEXT"><text class="cls-2" transform="translate(32.6 287.7) rotate(90)">END-S1/E</text></g><g id="POLYLINE-50" data-name="POLYLINE"><rect class="cls-3" x="448.01" y="29.34" width="183.36" height="366.72"/></g><g id="POLYLINE-51" data-name="POLYLINE"><rect class="cls-3" x="234.59" y="29.34" width="183.36" height="366.72"/></g><g id="POLYLINE-52" data-name="POLYLINE"><rect class="cls-3" x="21.17" y="29.34" width="183.36" height="366.72"/></g></svg>