  0
SECTION
  2
HEADER
  9
$ACADVER
  1
AC1009
  9
$INSBASE
 10
0.000000
 20
0.000000
 30
0.000000
  9
$EXTMIN
 10
0.000000
 20
0.000000
 30
0.000000
  9
$EXTMAX
 10
235.500000
 20
599.500000
 30
0.000000
  0
ENDSEC
  0
SECTION
  2
TABLES
  0
TABLE
  2
LTYPE
 70
1
  0
LTYPE
  2
CONTINUOUS
 70
0
  3
Solid line
 72
65
 73
0
 40
0.000000
  0
ENDTAB
  0
TABLE
  2
LAYER
 70
4
  0
LAYER
  2
0
 70
0
 62
7
  6
CONTINUOUS
  0
LAYER
  2
1_ANYTOOL_1MMDEEP_LABELS_S
 70
0
 62
2
  6
CONTINUOUS
  0
LAYER
  2
3_ANYTOOL_CUTTHROUGH_INSID
 70
0
 62
4
  6
CONTINUOUS
  0
LAYER
  2
4_ANYTOOL_CUTTHROUGH_OUTSI
 70
0
 62
5
  6
CONTINUOUS
  0
ENDTAB
  0
ENDSEC
  0
SECTION
  2
ENTITIES
  0
POLYLINE
  8
1_ANYTOOL_1MMDEEP_LABELS_S
 66
1
 10
0.000000
 20
0.000000
 30
0.000000
 70
0
  0
VERTEX
  8
1_ANYTOOL_1MMDEEP_LABELS_S
 10
61.717091
 20
370.700000
 30
0.000000
 42
0.059291
  0
VERTEX
  8
1_ANYTOOL_1MMDEEP_LABELS_S
 10
58.787674
 20
369.163839
 30
0.000000
 42
0.066881
  0
VERTEX
  8
1_ANYTOOL_1MMDEEP_LABELS_S
 10
56.338520
 20
366.950000
 30
0.000000
 42
0.045290
  0
VERTEX
  8
1_ANYTOOL_1MMDEEP_LABELS_S
 10
55.414642
 20
365.633014
 30
0.000000
 42
0.046757
  0
VERTEX
  8
1_ANYTOOL_1MMDEEP_LABELS_S
 10
54.747448
 20
364.169643
 30
0.000000
 42
0.046330
  0
VERTEX
  8
1_ANYTOOL_1MMDEEP_LABELS_S
 10
54.343117
 20
362.529731
 30
0.000000
 42
0.037303
  0
VERTEX
  8
1_ANYTOOL_1MMDEEP_LABELS_S
 10
54.217091
 20
360.842857
 30
0.000000
 42
0.054828
  0
VERTEX
  8
1_ANYTOOL_1MMDEEP_LABELS_S
 10
54.492676
 20
358.337217
 30
0.000000
 42
0.073548
  0
VERTEX
  8
1_ANYTOOL_1MMDEEP_LABELS_S
 10
55.390305
 20
355.994643
 30
0.000000
 42
0.073729
  0
VERTEX
  8
1_ANYTOOL_1MMDEEP_LABELS_S
 10
56.918538
 20
354.025321
 30
0.000000
 42
0.056205
  0
VERTEX
  8
1_ANYTOOL_1MMDEEP_LABELS_S
 10
58.909948
 20
352.507143
 30
0.000000
 42
0.033355
  0
VERTEX
  8
1_ANYTOOL_1MMDEEP_LABELS_S
 10
61.299824
 20
351.285974
 30
0.000000
 42
0.034965
  0
VERTEX
  8
1_ANYTOOL_1MMDEEP_LABELS_S
 10
63.833162
 20
350.401786
 30
0.000000
 42
0.034911
  0
VERTEX
  8
1_ANYTOOL_1MMDEEP_LABELS_S
 10
66.501169
 20
349.871758
 30
0.000000
 42
0.031589
  0
VERTEX
  8
1_ANYTOOL_1MMDEEP_LABELS_S
 10
69.217091
 20
349.700000
 30
0.000000
 42
0.032085
  0
VERTEX
  8
1_ANYTOOL_1MMDEEP_LABELS_S
 10
71.933720
 20
349.874503
 30
0.000000
 42
0.035383
  0
VERTEX
  8
1_ANYTOOL_1MMDEEP_LABELS_S
 10
74.601020
 20
350.412500
 30
0.000000
 42
0.035431
  0
VERTEX
  8
1_ANYTOOL_1MMDEEP_LABELS_S
 10
77.136177
 20
351.310989
 30
0.000000
 42
0.033598
  0
VERTEX
  8
1_ANYTOOL_1MMDEEP_LABELS_S
 10
79.524234
 20
352.550000
 30
0.000000
 42
0.058628
  0
VERTEX
  8
1_ANYTOOL_1MMDEEP_LABELS_S
 10
81.525119
 20
354.112201
 30
0.000000
 42
0.073381
  0
VERTEX
  8
1_ANYTOOL_1MMDEEP_LABELS_S
 10
83.043877
 20
356.133929
 30
0.000000
 42
0.072539
  0
VERTEX
  8
1_ANYTOOL_1MMDEEP_LABELS_S
 10
83.944931
 20
358.579902
 30
0.000000
 42
0.052080
  0
VERTEX
  8
1_ANYTOOL_1MMDEEP_LABELS_S
 10
84.217091
 20
361.185714
 30
0.000000
 42
0.033243
  0
VERTEX
  8
1_ANYTOOL_1MMDEEP_LABELS_S
 10
84.121155
 20
362.627089
 30
0.000000
 42
0.042283
  0
VERTEX
  8
1_ANYTOOL_1MMDEEP_LABELS_S
 10
83.809948
 20
364.035714
 30
0.000000
 42
0.042766
  0
VERTEX
  8
1_ANYTOOL_1MMDEEP_LABELS_S
 10
83.302859
 20
365.278411
 30
0.000000
 42
0.044269
  0
VERTEX
  8
1_ANYTOOL_1MMDEEP_LABELS_S
 10
82.588520
 20
366.414286
 30
0.000000
 42
0.055485
  0
VERTEX
  8
1_ANYTOOL_1MMDEEP_LABELS_S
 10
80.673619
 20
368.426081
 30
0.000000
 42
0.045948
  0
VERTEX
  8
1_ANYTOOL_1MMDEEP_LABELS_S
 10
78.388520
 20
370.014286
 30
0.000000
  0
SEQEND
  8
1_ANYTOOL_1MMDEEP_LABELS_S
  0
LINE
  8
1_ANYTOOL_1MMDEEP_LABELS_S
 10
54.688520
 20
347.085714
 30
0.000000
 11
85.459948
 21
329.900000
 31
0.000000
  0
POLYLINE
  8
1_ANYTOOL_1MMDEEP_LABELS_S
 66
1
 10
0.000000
 20
0.000000
 30
0.000000
 70
0
  0
VERTEX
  8
1_ANYTOOL_1MMDEEP_LABELS_S
 10
58.802805
 20
326.771429
 30
0.000000
 42
0.071867
  0
VERTEX
  8
1_ANYTOOL_1MMDEEP_LABELS_S
 10
57.466199
 20
326.578315
 30
0.000000
 42
0.100684
  0
VERTEX
  8
1_ANYTOOL_1MMDEEP_LABELS_S
 10
56.284948
 20
325.951786
 30
0.000000
 42
0.047558
  0
VERTEX
  8
1_ANYTOOL_1MMDEEP_LABELS_S
 10
55.808498
 20
325.477232
 30
0.000000
 42
0.038563
  0
VERTEX
  8
1_ANYTOOL_1MMDEEP_LABELS_S
 10
55.419770
 20
324.927232
 30
0.000000
 42
0.037928
  0
VERTEX
  8
1_ANYTOOL_1MMDEEP_LABELS_S
 10
55.072301
 20
324.230044
 30
0.000000
 42
0.026634
  0
VERTEX
  8
1_ANYTOOL_1MMDEEP_LABELS_S
 10
54.817091
 20
323.492857
 30
0.000000
 42
0.028461
  0
VERTEX
  8
1_ANYTOOL_1MMDEEP_LABELS_S
 10
54.131108
 20
320.469524
 30
0.000000
 42
0.041577
  0
VERTEX
  8
1_ANYTOOL_1MMDEEP_LABELS_S
 10
53.874234
 20
317.385714
 30
0.000000
 42
0.036938
  0
VERTEX
  8
1_ANYTOOL_1MMDEEP_LABELS_S
 10
53.985373
 20
315.883354
 30
0.000000
 42
0.041531
  0
VERTEX
  8
1_ANYTOOL_1MMDEEP_LABELS_S
 10
54.329591
 20
314.417857
 30
0.000000
 42
0.041583
  0
VERTEX
  8
1_ANYTOOL_1MMDEEP_LABELS_S
 10
54.906799
 20
313.040480
 30
0.000000
 42
0.038125
  0
VERTEX
  8
1_ANYTOOL_1MMDEEP_LABELS_S
 10
55.695662
 20
311.771429
 30
0.000000
 42
0.057611
  0
VERTEX
  8
1_ANYTOOL_1MMDEEP_LABELS_S
 10
56.687567
 20
310.701276
 30
0.000000
 42
0.065808
  0
VERTEX
  8
1_ANYTOOL_1MMDEEP_LABELS_S
 10
57.908162
 20
309.907143
 30
0.000000
 42
0.064690
  0
VERTEX
  8
1_ANYTOOL_1MMDEEP_LABELS_S
 10
59.367717
 20
309.429647
 30
0.000000
 42
0.046778
  0
VERTEX
  8
1_ANYTOOL_1MMDEEP_LABELS_S
 10
60.902805
 20
309.285714
 30
0.000000
 42
0.052235
  0
VERTEX
  8
1_ANYTOOL_1MMDEEP_LABELS_S
 10
62.452647
 20
309.448070
 30
0.000000
 42
0.075448
  0
VERTEX
  8
1_ANYTOOL_1MMDEEP_LABELS_S
 10
63.902805
 20
309.992857
 30
0.000000
 42
0.076671
  0
VERTEX
  8
1_ANYTOOL_1MMDEEP_LABELS_S
 10
65.075858
 20
310.908949
 30
0.000000
 42
0.061023
  0
VERTEX
  8
1_ANYTOOL_1MMDEEP_LABELS_S
 10
65.959948
 20
312.114286
 30
0.000000
 42
0.021951
  0
VERTEX
  8
1_ANYTOOL_1MMDEEP_LABELS_S
 10
67.487294
 20
315.143140
 30
0.000000
 42
0.018213
  0
VERTEX
  8
1_ANYTOOL_1MMDEEP_LABELS_S
 10
68.767091
 20
318.285714
 30
0.000000
 42
-0.024050
  0
VERTEX
  8
1_ANYTOOL_1MMDEEP_LABELS_S
 10
70.072553
 20
321.387199
 30
0.000000
 42
-0.029810
  0
VERTEX
  8
1_ANYTOOL_1MMDEEP_LABELS_S
 10
71.702805
 20
324.328571
 30
0.000000
 42
-0.068439
  0
VERTEX
  8
1_ANYTOOL_1MMDEEP_LABELS_S
 10
72.668736
 20
325.469873
 30
0.000000
 42
-0.079282
  0
VERTEX
  8
1_ANYTOOL_1MMDEEP_LABELS_S
 10
73.920662
 20
326.278571
 30
0.000000
 42
-0.076308
  0
VERTEX
  8
1_ANYTOOL_1MMDEEP_LABELS_S
 10
75.499344
 20
326.703571
 30
0.000000
 42
-0.047772
  0
VERTEX
  8
1_ANYTOOL_1MMDEEP_LABELS_S
 10
77.145662
 20
326.728571
 30
0.000000
 42
-0.046243
  0
VERTEX
  8
1_ANYTOOL_1MMDEEP_LABELS_S
 10
78.826622
 20
326.435337
 30
0.000000
 42
-0.063590
  0
VERTEX
  8
1_ANYTOOL_1MMDEEP_LABELS_S
 10
80.397448
 20
325.785714
 30
0.000000
 42
-0.064671
  0
VERTEX
  8
1_ANYTOOL_1MMDEEP_LABELS_S
 10
81.681637
 20
324.812890
 30
0.000000
 42
-0.057073
  0
VERTEX
  8
1_ANYTOOL_1MMDEEP_LABELS_S
 10
82.695662
 20
323.557143
 30
0.000000
 42
-0.067522
  0
VERTEX
  8
1_ANYTOOL_1MMDEEP_LABELS_S
 10
84.058573
 20
320.588834
 30
0.000000
 42
-0.070793
  0
VERTEX
  8
1_ANYTOOL_1MMDEEP_LABELS_S
 10
84.559948
 20
317.364286
 30
0.000000
 42
-0.064027
  0
VERTEX
  8
1_ANYTOOL_1MMDEEP_LABELS_S
 10
84.197433
 20
314.225271
 30
0.000000
 42
-0.070447
  0
VERTEX
  8
1_ANYTOOL_1MMDEEP_LABELS_S
 10
83.017091
 20
311.300000
 30
0.000000
 42
-0.054374
  0
VERTEX
  8
1_ANYTOOL_1MMDEEP_LABELS_S
 10
82.167458
 20
310.141583
 30
0.000000
 42
-0.074742
  0
VERTEX
  8
1_ANYTOOL_1MMDEEP_LABELS_S
 10
81.056377
 20
309.242857
 30
0.000000
 42
-0.075199
  0
VERTEX
  8
1_ANYTOOL_1MMDEEP_LABELS_S
 10
79.749998
 20
308.719850
 30
0.000000
 42
-0.057737
  0
VERTEX
  8
1_ANYTOOL_1MMDEEP_LABELS_S
 10
78.345662
 20
308.557143
 30
0.000000
  0
SEQEND
  8
1_ANYTOOL_1MMDEEP_LABELS_S
  0
LINE
  8
1_ANYTOOL_1MMDEEP_LABELS_S
 10
54.217091
 20
304.142857
 30
0.000000
 11
84.217091
 21
285.242857
 31
0.000000
  0
LINE
  8
1_ANYTOOL_1MMDEEP_LABELS_S
 10
84.217091
 20
305.385714
 30
0.000000
 11
54.217091
 21
286.442857
 31
0.000000
  0
LINE
  8
1_ANYTOOL_1MMDEEP_LABELS_S
 10
54.217091
 20
281.428571
 30
0.000000
 11
84.217091
 21
262.528571
 31
0.000000
  0
LINE
  8
1_ANYTOOL_1MMDEEP_LABELS_S
 10
84.217091
 20
282.671429
 30
0.000000
 11
54.217091
 21
263.728571
 31
0.000000
  0
LINE
  8
1_ANYTOOL_1MMDEEP_LABELS_S
 10
70.331377
 20
259.100000
 30
0.000000
 11
70.417091
 21
250.314286
 31
0.000000
  0
LINE
  8
1_ANYTOOL_1MMDEEP_LABELS_S
 10
68.188520
 20
243.285714
 30
0.000000
 11
68.188520
 21
228.800000
 31
0.000000
  0
POLYLINE
  8
1_ANYTOOL_1MMDEEP_LABELS_S
 66
1
 10
0.000000
 20
0.000000
 30
0.000000
 70
0
  0
VERTEX
  8
1_ANYTOOL_1MMDEEP_LABELS_S
 10
54.217091
 20
246.457143
 30
0.000000
  0
VERTEX
  8
1_ANYTOOL_1MMDEEP_LABELS_S
 10
54.217091
 20
228.800000
 30
0.000000
  0
VERTEX
  8
1_ANYTOOL_1MMDEEP_LABELS_S
 10
84.217091
 20
228.800000
 30
0.000000
  0
SEQEND
  8
1_ANYTOOL_1MMDEEP_LABELS_S
  0
POLYLINE
  8
3_ANYTOOL_CUTTHROUGH_INSID
 66
1
 10
0.000000
 20
0.000000
 30
0.000000
 70
1
  0
VERTEX
  8
3_ANYTOOL_CUTTHROUGH_INSID
 10
153.783706
 20
199.750000
 30
0.000000
  0
VERTEX
  8
3_ANYTOOL_CUTTHROUGH_INSID
 10
153.783706
 20
399.750000
 30
0.000000
 42
1.000000
  0
VERTEX
  8
3_ANYTOOL_CUTTHROUGH_INSID
 10
92.500000
 20
399.750000
 30
0.000000
  0
VERTEX
  8
3_ANYTOOL_CUTTHROUGH_INSID
 10
92.500000
 20
199.750000
 30
0.000000
 42
1.000000
  0
SEQEND
  8
3_ANYTOOL_CUTTHROUGH_INSID
  0
POLYLINE
  8
4_ANYTOOL_CUTTHROUGH_OUTSI
 66
1
 10
0.000000
 20
0.000000
 30
0.000000
 70
1
  0
VERTEX
  8
4_ANYTOOL_CUTTHROUGH_OUTSI
 10
217.500000
 20
299.750000
 30
0.000000
  0
VERTEX
  8
4_ANYTOOL_CUTTHROUGH_OUTSI
 10
217.500000
 20
387.500000
 30
0.000000
  0
VERTEX
  8
4_ANYTOOL_CUTTHROUGH_OUTSI
 10
211.750000
 20
387.500000
 30
0.000000
 42
-0.414214
  0
VERTEX
  8
4_ANYTOOL_CUTTHROUGH_OUTSI
 10
211.500000
 20
387.750000
 30
0.000000
  0
VERTEX
  8
4_ANYTOOL_CUTTHROUGH_OUTSI
 10
211.500000
 20
399.750000
 30
0.000000
 42
-0.414214
  0
VERTEX
  8
4_ANYTOOL_CUTTHROUGH_OUTSI
 10
211.750000
 20
400.000000
 30
0.000000
  0
VERTEX
  8
4_ANYTOOL_CUTTHROUGH_OUTSI
 10
235.500000
 20
400.000000
 30
0.000000
  0
VERTEX
  8
4_ANYTOOL_CUTTHROUGH_OUTSI
 10
235.500000
 20
581.500000
 30
0.000000
  0
VERTEX
  8
4_ANYTOOL_CUTTHROUGH_OUTSI
 10
128.000000
 20
581.500000
 30
0.000000
  0
VERTEX
  8
4_ANYTOOL_CUTTHROUGH_OUTSI
 10
128.000000
 20
575.750000
 30
0.000000
 42
-0.414214
  0
VERTEX
  8
4_ANYTOOL_CUTTHROUGH_OUTSI
 10
127.750000
 20
575.500000
 30
0.000000
  0
VERTEX
  8
4_ANYTOOL_CUTTHROUGH_OUTSI
 10
115.750000
 20
575.500000
 30
0.000000
 42
-0.414214
  0
VERTEX
  8
4_ANYTOOL_CUTTHROUGH_OUTSI
 10
115.500000
 20
575.750000
 30
0.000000
  0
VERTEX
  8
4_ANYTOOL_CUTTHROUGH_OUTSI
 10
115.500000
 20
599.500000
 30
0.000000
  0
VERTEX
  8
4_ANYTOOL_CUTTHROUGH_OUTSI
 10
46.000000
 20
599.500000
 30
0.000000
  0
VERTEX
  8
4_ANYTOOL_CUTTHROUGH_OUTSI
 10
46.000000
 20
575.750000
 30
0.000000
 42
-0.414214
  0
VERTEX
  8
4_ANYTOOL_CUTTHROUGH_OUTSI
 10
45.750000
 20
575.500000
 30
0.000000
  0
VERTEX
  8
4_ANYTOOL_CUTTHROUGH_OUTSI
 10
33.750000
 20
575.500000
 30
0.000000
 42
-0.414214
  0
VERTEX
  8
4_ANYTOOL_CUTTHROUGH_OUTSI
 10
33.500000
 20
575.750000
 30
0.000000
  0
VERTEX
  8
4_ANYTOOL_CUTTHROUGH_OUTSI
 10
33.500000
 20
581.500000
 30
0.000000
  0
VERTEX
  8
4_ANYTOOL_CUTTHROUGH_OUTSI
 10
18.000000
 20
581.500000
 30
0.000000
  0
VERTEX
  8
4_ANYTOOL_CUTTHROUGH_OUTSI
 10
18.000000
 20
412.000000
 30
0.000000
  0
VERTEX
  8
4_ANYTOOL_CUTTHROUGH_OUTSI
 10
23.750000
 20
412.000000
 30
0.000000
 42
-0.414214
  0
VERTEX
  8
4_ANYTOOL_CUTTHROUGH_OUTSI
 10
24.000000
 20
411.750000
 30
0.000000
  0
VERTEX
  8
4_ANYTOOL_CUTTHROUGH_OUTSI
 10
24.000000
 20
399.750000
 30
0.000000
 42
-0.414214
  0
VERTEX
  8
4_ANYTOOL_CUTTHROUGH_OUTSI
 10
23.750000
 20
399.500000
 30
0.000000
  0
VERTEX
  8
4_ANYTOOL_CUTTHROUGH_OUTSI
 10
0.000000
 20
399.500000
 30
0.000000
  0
VERTEX
  8
4_ANYTOOL_CUTTHROUGH_OUTSI
 10
0.000000
 20
200.000000
 30
0.000000
  0
VERTEX
  8
4_ANYTOOL_CUTTHROUGH_OUTSI
 10
23.750000
 20
200.000000
 30
0.000000
 42
-0.414214
  0
VERTEX
  8
4_ANYTOOL_CUTTHROUGH_OUTSI
 10
24.000000
 20
199.750000
 30
0.000000
  0
VERTEX
  8
4_ANYTOOL_CUTTHROUGH_OUTSI
 10
24.000000
 20
187.750000
 30
0.000000
 42
-0.414214
  0
VERTEX
  8
4_ANYTOOL_CUTTHROUGH_OUTSI
 10
23.750000
 20
187.500000
 30
0.000000
  0
VERTEX
  8
4_ANYTOOL_CUTTHROUGH_OUTSI
 10
18.000000
 20
187.500000
 30
0.000000
  0
VERTEX
  8
4_ANYTOOL_CUTTHROUGH_OUTSI
 10
18.000000
 20
18.000000
 30
0.000000
  0
VERTEX
  8
4_ANYTOOL_CUTTHROUGH_OUTSI
 10
33.500000
 20
18.000000
 30
0.000000
  0
VERTEX
  8
4_ANYTOOL_CUTTHROUGH_OUTSI
 10
33.500000
 20
23.750000
 30
0.000000
 42
-0.414214
  0
VERTEX
  8
4_ANYTOOL_CUTTHROUGH_OUTSI
 10
33.750000
 20
24.000000
 30
0.000000
  0
VERTEX
  8
4_ANYTOOL_CUTTHROUGH_OUTSI
 10
45.750000
 20
24.000000
 30
0.000000
 42
-0.414214
  0
VERTEX
  8
4_ANYTOOL_CUTTHROUGH_OUTSI
 10
46.000000
 20
23.750000
 30
0.000000
  0
VERTEX
  8
4_ANYTOOL_CUTTHROUGH_OUTSI
 10
46.000000
 20
0.000000
 30
0.000000
  0
VERTEX
  8
4_ANYTOOL_CUTTHROUGH_OUTSI
 10
115.500000
 20
0.000000
 30
0.000000
  0
VERTEX
  8
4_ANYTOOL_CUTTHROUGH_OUTSI
 10
115.500000
 20
23.750000
 30
0.000000
 42
-0.414214
  0
VERTEX
  8
4_ANYTOOL_CUTTHROUGH_OUTSI
 10
115.750000
 20
24.000000
 30
0.000000
  0
VERTEX
  8
4_ANYTOOL_CUTTHROUGH_OUTSI
 10
127.750000
 20
24.000000
 30
0.000000
 42
-0.414214
  0
VERTEX
  8
4_ANYTOOL_CUTTHROUGH_OUTSI
 10
128.000000
 20
23.750000
 30
0.000000
  0
VERTEX
  8
4_ANYTOOL_CUTTHROUGH_OUTSI
 10
128.000000
 20
18.000000
 30
0.000000
  0
VERTEX
  8
4_ANYTOOL_CUTTHROUGH_OUTSI
 10
235.500000
 20
18.000000
 30
0.000000
  0
VERTEX
  8
4_ANYTOOL_CUTTHROUGH_OUTSI
 10
235.500000
 20
199.500000
 30
0.000000
  0
VERTEX
  8
4_ANYTOOL_CUTTHROUGH_OUTSI
 10
211.750000
 20
199.500000
 30
0.000000
 42
-0.414214
  0
VERTEX
  8
4_ANYTOOL_CUTTHROUGH_OUTSI
 10
211.500000
 20
199.750000
 30
0.000000
  0
VERTEX
  8
4_ANYTOOL_CUTTHROUGH_OUTSI
 10
211.500000
 20
211.750000
 30
0.000000
 42
-0.414214
  0
VERTEX
  8
4_ANYTOOL_CUTTHROUGH_OUTSI
 10
211.750000
 20
212.000000
 30
0.000000
  0
VERTEX
  8
4_ANYTOOL_CUTTHROUGH_OUTSI
 10
217.500000
 20
212.000000
 30
0.000000
  0
SEQEND
  8
4_ANYTOOL_CUTTHROUGH_OUTSI
  0
ENDSEC
  0
EOF
