  0
SECTION
  2
HEADER
  9
$ACADVER
  1
AC1009
  9
$INSBASE
 10
0.000000
 20
0.000000
 30
0.000000
  9
$EXTMIN
 10
0.000000
 20
0.000000
 30
0.000000
  9
$EXTMAX
 10
1177.330751
 20
785.501067
 30
0.000000
  0
ENDSEC
  0
SECTION
  2
TABLES
  0
TABLE
  2
LTYPE
 70
1
  0
LTYPE
  2
CONTINUOUS
 70
0
  3
Solid line
 72
65
 73
0
 40
0.000000
  0
ENDTAB
  0
TABLE
  2
LAYER
 70
4
  0
LAYER
  2
0
 70
0
 62
7
  6
CONTINUOUS
  0
LAYER
  2
1_ANYTOOL_1MMDEEP_LABELS_S
 70
0
 62
2
  6
CONTINUOUS
  0
LAYER
  2
3_ANYTOOL_CUTTHROUGH_INSID
 70
0
 62
4
  6
CONTINUOUS
  0
LAYER
  2
4_ANYTOOL_CUTTHROUGH_OUTSI
 70
0
 62
5
  6
CONTINUOUS
  0
ENDTAB
  0
ENDSEC
  0
SECTION
  2
ENTITIES
  0
LINE
  8
1_ANYTOOL_1MMDEEP_LABELS_S
 10
842.174693
 20
432.737741
 30
0.000000
 11
842.174693
 21
447.652027
 31
0.000000
  0
POLYLINE
  8
1_ANYTOOL_1MMDEEP_LABELS_S
 66
1
 10
0.000000
 20
0.000000
 30
0.000000
 70
0
  0
VERTEX
  8
1_ANYTOOL_1MMDEEP_LABELS_S
 10
851.731836
 20
429.266313
 30
0.000000
  0
VERTEX
  8
1_ANYTOOL_1MMDEEP_LABELS_S
 10
821.731836
 20
440.152027
 30
0.000000
  0
VERTEX
  8
1_ANYTOOL_1MMDEEP_LABELS_S
 10
851.731836
 20
451.209170
 30
0.000000
  0
SEQEND
  8
1_ANYTOOL_1MMDEEP_LABELS_S
  0
LINE
  8
1_ANYTOOL_1MMDEEP_LABELS_S
 10
822.203264
 20
427.552027
 30
0.000000
 11
852.974693
 21
410.366313
 31
0.000000
  0
POLYLINE
  8
1_ANYTOOL_1MMDEEP_LABELS_S
 66
1
 10
0.000000
 20
0.000000
 30
0.000000
 70
0
  0
VERTEX
  8
1_ANYTOOL_1MMDEEP_LABELS_S
 10
831.117550
 20
387.052027
 30
0.000000
 42
-0.040355
  0
VERTEX
  8
1_ANYTOOL_1MMDEEP_LABELS_S
 10
829.142214
 20
387.211718
 30
0.000000
 42
-0.055523
  0
VERTEX
  8
1_ANYTOOL_1MMDEEP_LABELS_S
 10
827.238978
 20
387.743099
 30
0.000000
 42
-0.056647
  0
VERTEX
  8
1_ANYTOOL_1MMDEEP_LABELS_S
 10
825.633698
 20
388.612517
 30
0.000000
 42
-0.055146
  0
VERTEX
  8
1_ANYTOOL_1MMDEEP_LABELS_S
 10
824.260407
 20
389.816313
 30
0.000000
 42
-0.049075
  0
VERTEX
  8
1_ANYTOOL_1MMDEEP_LABELS_S
 10
823.157062
 20
391.289526
 30
0.000000
 42
-0.049650
  0
VERTEX
  8
1_ANYTOOL_1MMDEEP_LABELS_S
 10
822.363978
 20
392.950241
 30
0.000000
 42
-0.048973
  0
VERTEX
  8
1_ANYTOOL_1MMDEEP_LABELS_S
 10
821.880131
 20
394.857503
 30
0.000000
 42
-0.037662
  0
VERTEX
  8
1_ANYTOOL_1MMDEEP_LABELS_S
 10
821.731836
 20
396.823456
 30
0.000000
 42
-0.043877
  0
VERTEX
  8
1_ANYTOOL_1MMDEEP_LABELS_S
 10
821.943832
 20
399.234617
 30
0.000000
 42
-0.070253
  0
VERTEX
  8
1_ANYTOOL_1MMDEEP_LABELS_S
 10
822.690764
 20
401.521670
 30
0.000000
 42
-0.073302
  0
VERTEX
  8
1_ANYTOOL_1MMDEEP_LABELS_S
 10
823.905036
 20
403.287874
 30
0.000000
 42
-0.068908
  0
VERTEX
  8
1_ANYTOOL_1MMDEEP_LABELS_S
 10
825.567550
 20
404.644884
 30
0.000000
 42
-0.035863
  0
VERTEX
  8
1_ANYTOOL_1MMDEEP_LABELS_S
 10
827.554024
 20
405.667151
 30
0.000000
 42
-0.035490
  0
VERTEX
  8
1_ANYTOOL_1MMDEEP_LABELS_S
 10
829.665764
 20
406.396670
 30
0.000000
 42
-0.035312
  0
VERTEX
  8
1_ANYTOOL_1MMDEEP_LABELS_S
 10
831.957457
 20
406.839972
 30
0.000000
 42
-0.030130
  0
VERTEX
  8
1_ANYTOOL_1MMDEEP_LABELS_S
 10
834.288978
 20
406.980599
 30
0.000000
 42
-0.014893
  0
VERTEX
  8
1_ANYTOOL_1MMDEEP_LABELS_S
 10
835.651434
 20
406.940008
 30
0.000000
 42
-0.010384
  0
VERTEX
  8
1_ANYTOOL_1MMDEEP_LABELS_S
 10
837.010407
 20
406.830599
 30
0.000000
 42
-0.008363
  0
VERTEX
  8
1_ANYTOOL_1MMDEEP_LABELS_S
 10
838.290018
 20
406.679123
 30
0.000000
 42
-0.015712
  0
VERTEX
  8
1_ANYTOOL_1MMDEEP_LABELS_S
 10
839.560407
 20
406.466313
 30
0.000000
 42
-0.031684
  0
VERTEX
  8
1_ANYTOOL_1MMDEEP_LABELS_S
 10
841.951843
 20
405.903239
 30
0.000000
 42
-0.036749
  0
VERTEX
  8
1_ANYTOOL_1MMDEEP_LABELS_S
 10
844.242550
 20
405.019884
 30
0.000000
 42
-0.036911
  0
VERTEX
  8
1_ANYTOOL_1MMDEEP_LABELS_S
 10
846.304962
 20
403.851846
 30
0.000000
 42
-0.036445
  0
VERTEX
  8
1_ANYTOOL_1MMDEEP_LABELS_S
 10
848.174693
 20
402.394884
 30
0.000000
 42
-0.047628
  0
VERTEX
  8
1_ANYTOOL_1MMDEEP_LABELS_S
 10
849.699417
 20
400.727723
 30
0.000000
 42
-0.057034
  0
VERTEX
  8
1_ANYTOOL_1MMDEEP_LABELS_S
 10
850.842550
 20
398.784170
 30
0.000000
 42
-0.057024
  0
VERTEX
  8
1_ANYTOOL_1MMDEEP_LABELS_S
 10
851.517522
 20
396.631204
 30
0.000000
 42
-0.047505
  0
VERTEX
  8
1_ANYTOOL_1MMDEEP_LABELS_S
 10
851.731836
 20
394.380599
 30
0.000000
 42
-0.070437
  0
VERTEX
  8
1_ANYTOOL_1MMDEEP_LABELS_S
 10
851.362911
 20
391.774761
 30
0.000000
 42
-0.082548
  0
VERTEX
  8
1_ANYTOOL_1MMDEEP_LABELS_S
 10
850.231836
 20
389.409170
 30
0.000000
  0
SEQEND
  8
1_ANYTOOL_1MMDEEP_LABELS_S
  0
POLYLINE
  8
1_ANYTOOL_1MMDEEP_LABELS_S
 66
1
 10
0.000000
 20
0.000000
 30
0.000000
 70
0
  0
VERTEX
  8
1_ANYTOOL_1MMDEEP_LABELS_S
 10
832.874693
 20
406.937741
 30
0.000000
 42
-0.065468
  0
VERTEX
  8
1_ANYTOOL_1MMDEEP_LABELS_S
 10
835.661524
 20
405.441109
 30
0.000000
 42
-0.050402
  0
VERTEX
  8
1_ANYTOOL_1MMDEEP_LABELS_S
 10
838.038978
 20
403.337741
 30
0.000000
 42
-0.050491
  0
VERTEX
  8
1_ANYTOOL_1MMDEEP_LABELS_S
 10
839.060499
 20
401.979604
 30
0.000000
 42
-0.049967
  0
VERTEX
  8
1_ANYTOOL_1MMDEEP_LABELS_S
 10
839.790764
 20
400.444884
 30
0.000000
 42
-0.049164
  0
VERTEX
  8
1_ANYTOOL_1MMDEEP_LABELS_S
 10
840.238650
 20
398.661278
 30
0.000000
 42
-0.036961
  0
VERTEX
  8
1_ANYTOOL_1MMDEEP_LABELS_S
 10
840.374693
 20
396.823456
 30
0.000000
 42
-0.035579
  0
VERTEX
  8
1_ANYTOOL_1MMDEEP_LABELS_S
 10
840.233828
 20
394.846364
 30
0.000000
 42
-0.047416
  0
VERTEX
  8
1_ANYTOOL_1MMDEEP_LABELS_S
 10
839.769336
 20
392.923456
 30
0.000000
 42
-0.048195
  0
VERTEX
  8
1_ANYTOOL_1MMDEEP_LABELS_S
 10
839.014740
 20
391.269780
 30
0.000000
 42
-0.049749
  0
VERTEX
  8
1_ANYTOOL_1MMDEEP_LABELS_S
 10
837.953264
 20
389.794884
 30
0.000000
 42
-0.058696
  0
VERTEX
  8
1_ANYTOOL_1MMDEEP_LABELS_S
 10
836.613941
 20
388.595574
 30
0.000000
 42
-0.057929
  0
VERTEX
  8
1_ANYTOOL_1MMDEEP_LABELS_S
 10
835.033621
 20
387.737741
 30
0.000000
 42
-0.056403
  0
VERTEX
  8
1_ANYTOOL_1MMDEEP_LABELS_S
 10
833.111662
 20
387.208098
 30
0.000000
 42
-0.039073
  0
VERTEX
  8
1_ANYTOOL_1MMDEEP_LABELS_S
 10
831.117550
 20
387.052027
 30
0.000000
  0
SEQEND
  8
1_ANYTOOL_1MMDEEP_LABELS_S
  0
LINE
  8
1_ANYTOOL_1MMDEEP_LABELS_S
 10
837.846121
 20
382.766313
 30
0.000000
 11
837.931836
 21
373.980599
 31
0.000000
  0
POLYLINE
  8
1_ANYTOOL_1MMDEEP_LABELS_S
 66
1
 10
0.000000
 20
0.000000
 30
0.000000
 70
0
  0
VERTEX
  8
1_ANYTOOL_1MMDEEP_LABELS_S
 10
851.688978
 20
369.052027
 30
0.000000
  0
VERTEX
  8
1_ANYTOOL_1MMDEEP_LABELS_S
 10
851.646121
 20
350.752027
 30
0.000000
 42
-0.034491
  0
VERTEX
  8
1_ANYTOOL_1MMDEEP_LABELS_S
 10
849.898789
 20
351.414805
 30
0.000000
 42
-0.037732
  0
VERTEX
  8
1_ANYTOOL_1MMDEEP_LABELS_S
 10
848.265764
 20
352.321670
 30
0.000000
 42
-0.037744
  0
VERTEX
  8
1_ANYTOOL_1MMDEEP_LABELS_S
 10
846.791128
 20
353.460964
 30
0.000000
 42
-0.034820
  0
VERTEX
  8
1_ANYTOOL_1MMDEEP_LABELS_S
 10
845.496121
 20
354.802027
 30
0.000000
 42
-0.008590
  0
VERTEX
  8
1_ANYTOOL_1MMDEEP_LABELS_S
 10
843.097539
 20
357.761252
 30
0.000000
 42
-0.008791
  0
VERTEX
  8
1_ANYTOOL_1MMDEEP_LABELS_S
 10
840.803264
 20
360.802027
 30
0.000000
 42
0.020588
  0
VERTEX
  8
1_ANYTOOL_1MMDEEP_LABELS_S
 10
838.569822
 20
363.621316
 30
0.000000
 42
0.025206
  0
VERTEX
  8
1_ANYTOOL_1MMDEEP_LABELS_S
 10
836.088978
 20
366.223456
 30
0.000000
 42
0.046908
  0
VERTEX
  8
1_ANYTOOL_1MMDEEP_LABELS_S
 10
834.787737
 20
367.244051
 30
0.000000
 42
0.051091
  0
VERTEX
  8
1_ANYTOOL_1MMDEEP_LABELS_S
 10
833.313978
 20
367.991313
 30
0.000000
 42
0.050722
  0
VERTEX
  8
1_ANYTOOL_1MMDEEP_LABELS_S
 10
831.665804
 20
368.440046
 30
0.000000
 42
0.041139
  0
VERTEX
  8
1_ANYTOOL_1MMDEEP_LABELS_S
 10
829.960407
 20
368.580599
 30
0.000000
 42
0.039396
  0
VERTEX
  8
1_ANYTOOL_1MMDEEP_LABELS_S
 10
828.152821
 20
368.437954
 30
0.000000
 42
0.058519
  0
VERTEX
  8
1_ANYTOOL_1MMDEEP_LABELS_S
 10
826.413978
 20
367.948456
 30
0.000000
 42
0.060358
  0
VERTEX
  8
1_ANYTOOL_1MMDEEP_LABELS_S
 10
825.006863
 20
367.157898
 30
0.000000
 42
0.061397
  0
VERTEX
  8
1_ANYTOOL_1MMDEEP_LABELS_S
 10
823.831836
 20
366.052027
 30
0.000000
 42
0.048006
  0
VERTEX
  8
1_ANYTOOL_1MMDEEP_LABELS_S
 10
822.909876
 20
364.696070
 30
0.000000
 42
0.045901
  0
VERTEX
  8
1_ANYTOOL_1MMDEEP_LABELS_S
 10
822.256836
 20
363.191313
 30
0.000000
 42
0.045216
  0
VERTEX
  8
1_ANYTOOL_1MMDEEP_LABELS_S
 10
821.854276
 20
361.451252
 30
0.000000
 42
0.034258
  0
VERTEX
  8
1_ANYTOOL_1MMDEEP_LABELS_S
 10
821.731836
 20
359.666313
 30
0.000000
 42
0.055622
  0
VERTEX
  8
1_ANYTOOL_1MMDEEP_LABELS_S
 10
822.025823
 20
357.031742
 30
0.000000
 42
0.079896
  0
VERTEX
  8
1_ANYTOOL_1MMDEEP_LABELS_S
 10
823.006836
 20
354.587741
 30
0.000000
 42
0.080617
  0
VERTEX
  8
1_ANYTOOL_1MMDEEP_LABELS_S
 10
824.672536
 20
352.618354
 30
0.000000
 42
0.060287
  0
VERTEX
  8
1_ANYTOOL_1MMDEEP_LABELS_S
 10
826.831836
 20
351.180599
 30
0.000000
  0
SEQEND
  8
1_ANYTOOL_1MMDEEP_LABELS_S
  0
LINE
  8
1_ANYTOOL_1MMDEEP_LABELS_S
 10
843.074693
 20
322.852027
 30
0.000000
 11
843.074693
 21
344.623456
 31
0.000000
  0
POLYLINE
  8
1_ANYTOOL_1MMDEEP_LABELS_S
 66
1
 10
0.000000
 20
0.000000
 30
0.000000
 70
0
  0
VERTEX
  8
1_ANYTOOL_1MMDEEP_LABELS_S
 10
851.731836
 20
338.837741
 30
0.000000
  0
VERTEX
  8
1_ANYTOOL_1MMDEEP_LABELS_S
 10
821.688978
 20
338.880599
 30
0.000000
  0
VERTEX
  8
1_ANYTOOL_1MMDEEP_LABELS_S
 10
843.074693
 20
322.852027
 30
0.000000
  0
SEQEND
  8
1_ANYTOOL_1MMDEEP_LABELS_S
  0
LINE
  8
1_ANYTOOL_1MMDEEP_LABELS_S
 10
837.846121
 20
318.566313
 30
0.000000
 11
837.931836
 21
309.780599
 31
0.000000
  0
POLYLINE
  8
1_ANYTOOL_1MMDEEP_LABELS_S
 66
1
 10
0.000000
 20
0.000000
 30
0.000000
 70
0
  0
VERTEX
  8
1_ANYTOOL_1MMDEEP_LABELS_S
 10
826.317550
 20
305.752027
 30
0.000000
 42
0.071867
  0
VERTEX
  8
1_ANYTOOL_1MMDEEP_LABELS_S
 10
824.980943
 20
305.558914
 30
0.000000
 42
0.100684
  0
VERTEX
  8
1_ANYTOOL_1MMDEEP_LABELS_S
 10
823.799693
 20
304.932384
 30
0.000000
 42
0.047558
  0
VERTEX
  8
1_ANYTOOL_1MMDEEP_LABELS_S
 10
823.323242
 20
304.457831
 30
0.000000
 42
0.038563
  0
VERTEX
  8
1_ANYTOOL_1MMDEEP_LABELS_S
 10
822.934514
 20
303.907831
 30
0.000000
 42
0.037928
  0
VERTEX
  8
1_ANYTOOL_1MMDEEP_LABELS_S
 10
822.587046
 20
303.210643
 30
0.000000
 42
0.026634
  0
VERTEX
  8
1_ANYTOOL_1MMDEEP_LABELS_S
 10
822.331836
 20
302.473456
 30
0.000000
 42
0.028461
  0
VERTEX
  8
1_ANYTOOL_1MMDEEP_LABELS_S
 10
821.645853
 20
299.450122
 30
0.000000
 42
0.041577
  0
VERTEX
  8
1_ANYTOOL_1MMDEEP_LABELS_S
 10
821.388978
 20
296.366313
 30
0.000000
 42
0.036938
  0
VERTEX
  8
1_ANYTOOL_1MMDEEP_LABELS_S
 10
821.500118
 20
294.863953
 30
0.000000
 42
0.041531
  0
VERTEX
  8
1_ANYTOOL_1MMDEEP_LABELS_S
 10
821.844336
 20
293.398456
 30
0.000000
 42
0.041583
  0
VERTEX
  8
1_ANYTOOL_1MMDEEP_LABELS_S
 10
822.421544
 20
292.021079
 30
0.000000
 42
0.038125
  0
VERTEX
  8
1_ANYTOOL_1MMDEEP_LABELS_S
 10
823.210407
 20
290.752027
 30
0.000000
 42
0.057611
  0
VERTEX
  8
1_ANYTOOL_1MMDEEP_LABELS_S
 10
824.202311
 20
289.681875
 30
0.000000
 42
0.065808
  0
VERTEX
  8
1_ANYTOOL_1MMDEEP_LABELS_S
 10
825.422907
 20
288.887741
 30
0.000000
 42
0.064690
  0
VERTEX
  8
1_ANYTOOL_1MMDEEP_LABELS_S
 10
826.882462
 20
288.410245
 30
0.000000
 42
0.046778
  0
VERTEX
  8
1_ANYTOOL_1MMDEEP_LABELS_S
 10
828.417550
 20
288.266313
 30
0.000000
 42
0.052235
  0
VERTEX
  8
1_ANYTOOL_1MMDEEP_LABELS_S
 10
829.967392
 20
288.428669
 30
0.000000
 42
0.075448
  0
VERTEX
  8
1_ANYTOOL_1MMDEEP_LABELS_S
 10
831.417550
 20
288.973456
 30
0.000000
 42
0.076671
  0
VERTEX
  8
1_ANYTOOL_1MMDEEP_LABELS_S
 10
832.590602
 20
289.889548
 30
0.000000
 42
0.061023
  0
VERTEX
  8
1_ANYTOOL_1MMDEEP_LABELS_S
 10
833.474693
 20
291.094884
 30
0.000000
 42
0.021951
  0
VERTEX
  8
1_ANYTOOL_1MMDEEP_LABELS_S
 10
835.002038
 20
294.123738
 30
0.000000
 42
0.018213
  0
VERTEX
  8
1_ANYTOOL_1MMDEEP_LABELS_S
 10
836.281836
 20
297.266313
 30
0.000000
 42
-0.024050
  0
VERTEX
  8
1_ANYTOOL_1MMDEEP_LABELS_S
 10
837.587298
 20
300.367797
 30
0.000000
 42
-0.029810
  0
VERTEX
  8
1_ANYTOOL_1MMDEEP_LABELS_S
 10
839.217550
 20
303.309170
 30
0.000000
 42
-0.068439
  0
VERTEX
  8
1_ANYTOOL_1MMDEEP_LABELS_S
 10
840.183480
 20
304.450472
 30
0.000000
 42
-0.079282
  0
VERTEX
  8
1_ANYTOOL_1MMDEEP_LABELS_S
 10
841.435407
 20
305.259170
 30
0.000000
 42
-0.076308
  0
VERTEX
  8
1_ANYTOOL_1MMDEEP_LABELS_S
 10
843.014089
 20
305.684170
 30
0.000000
 42
-0.047772
  0
VERTEX
  8
1_ANYTOOL_1MMDEEP_LABELS_S
 10
844.660407
 20
305.709170
 30
0.000000
 42
-0.046243
  0
VERTEX
  8
1_ANYTOOL_1MMDEEP_LABELS_S
 10
846.341366
 20
305.415935
 30
0.000000
 42
-0.063590
  0
VERTEX
  8
1_ANYTOOL_1MMDEEP_LABELS_S
 10
847.912193
 20
304.766313
 30
0.000000
 42
-0.064671
  0
VERTEX
  8
1_ANYTOOL_1MMDEEP_LABELS_S
 10
849.196382
 20
303.793489
 30
0.000000
 42
-0.057073
  0
VERTEX
  8
1_ANYTOOL_1MMDEEP_LABELS_S
 10
850.210407
 20
302.537741
 30
0.000000
 42
-0.067522
  0
VERTEX
  8
1_ANYTOOL_1MMDEEP_LABELS_S
 10
851.573317
 20
299.569433
 30
0.000000
 42
-0.070793
  0
VERTEX
  8
1_ANYTOOL_1MMDEEP_LABELS_S
 10
852.074693
 20
296.344884
 30
0.000000
 42
-0.064027
  0
VERTEX
  8
1_ANYTOOL_1MMDEEP_LABELS_S
 10
851.712178
 20
293.205869
 30
0.000000
 42
-0.070447
  0
VERTEX
  8
1_ANYTOOL_1MMDEEP_LABELS_S
 10
850.531836
 20
290.280599
 30
0.000000
 42
-0.054374
  0
VERTEX
  8
1_ANYTOOL_1MMDEEP_LABELS_S
 10
849.682203
 20
289.122181
 30
0.000000
 42
-0.074742
  0
VERTEX
  8
1_ANYTOOL_1MMDEEP_LABELS_S
 10
848.571121
 20
288.223456
 30
0.000000
 42
-0.075199
  0
VERTEX
  8
1_ANYTOOL_1MMDEEP_LABELS_S
 10
847.264743
 20
287.700449
 30
0.000000
 42
-0.057737
  0
VERTEX
  8
1_ANYTOOL_1MMDEEP_LABELS_S
 10
845.860407
 20
287.537741
 30
0.000000
  0
SEQEND
  8
1_ANYTOOL_1MMDEEP_LABELS_S
  0
LINE
  8
1_ANYTOOL_1MMDEEP_LABELS_S
 10
837.846121
 20
283.509170
 30
0.000000
 11
837.931836
 21
274.723456
 31
0.000000
  0
POLYLINE
  8
1_ANYTOOL_1MMDEEP_LABELS_S
 66
1
 10
0.000000
 20
0.000000
 30
0.000000
 70
0
  0
VERTEX
  8
1_ANYTOOL_1MMDEEP_LABELS_S
 10
837.931836
 20
260.623456
 30
0.000000
  0
VERTEX
  8
1_ANYTOOL_1MMDEEP_LABELS_S
 10
837.974693
 20
270.394884
 30
0.000000
 42
-0.031732
  0
VERTEX
  8
1_ANYTOOL_1MMDEEP_LABELS_S
 10
840.982095
 20
270.126774
 30
0.000000
 42
-0.048764
  0
VERTEX
  8
1_ANYTOOL_1MMDEEP_LABELS_S
 10
843.899693
 20
269.382384
 30
0.000000
 42
-0.050291
  0
VERTEX
  8
1_ANYTOOL_1MMDEEP_LABELS_S
 10
846.210201
 20
268.272672
 30
0.000000
 42
-0.060119
  0
VERTEX
  8
1_ANYTOOL_1MMDEEP_LABELS_S
 10
848.217550
 20
266.687741
 30
0.000000
 42
-0.036578
  0
VERTEX
  8
1_ANYTOOL_1MMDEEP_LABELS_S
 10
849.703966
 20
264.955722
 30
0.000000
 42
-0.050793
  0
VERTEX
  8
1_ANYTOOL_1MMDEEP_LABELS_S
 10
850.863978
 20
262.996670
 30
0.000000
 42
-0.051881
  0
VERTEX
  8
1_ANYTOOL_1MMDEEP_LABELS_S
 10
851.531723
 20
261.043653
 30
0.000000
 42
-0.053919
  0
VERTEX
  8
1_ANYTOOL_1MMDEEP_LABELS_S
 10
851.774693
 20
258.994884
 30
0.000000
 42
-0.055881
  0
VERTEX
  8
1_ANYTOOL_1MMDEEP_LABELS_S
 10
851.567749
 20
256.959737
 30
0.000000
 42
-0.055271
  0
VERTEX
  8
1_ANYTOOL_1MMDEEP_LABELS_S
 10
850.917550
 20
255.019884
 30
0.000000
 42
-0.054030
  0
VERTEX
  8
1_ANYTOOL_1MMDEEP_LABELS_S
 10
849.758356
 20
253.093908
 30
0.000000
 42
-0.038531
  0
VERTEX
  8
1_ANYTOOL_1MMDEEP_LABELS_S
 10
848.260407
 20
251.409170
 30
0.000000
 42
-0.067281
  0
VERTEX
  8
1_ANYTOOL_1MMDEEP_LABELS_S
 10
846.149393
 20
249.861457
 30
0.000000
 42
-0.049165
  0
VERTEX
  8
1_ANYTOOL_1MMDEEP_LABELS_S
 10
843.728264
 20
248.837741
 30
0.000000
 42
-0.047412
  0
VERTEX
  8
1_ANYTOOL_1MMDEEP_LABELS_S
 10
840.524346
 20
248.164815
 30
0.000000
 42
-0.028075
  0
VERTEX
  8
1_ANYTOOL_1MMDEEP_LABELS_S
 10
837.246121
 20
247.980599
 30
0.000000
 42
-0.031090
  0
VERTEX
  8
1_ANYTOOL_1MMDEEP_LABELS_S
 10
834.554542
 20
248.148125
 30
0.000000
 42
-0.031496
  0
VERTEX
  8
1_ANYTOOL_1MMDEEP_LABELS_S
 10
831.905050
 20
248.650241
 30
0.000000
 42
-0.031425
  0
VERTEX
  8
1_ANYTOOL_1MMDEEP_LABELS_S
 10
829.276805
 20
249.501114
 30
0.000000
 42
-0.028240
  0
VERTEX
  8
1_ANYTOOL_1MMDEEP_LABELS_S
 10
826.767550
 20
250.659170
 30
0.000000
 42
-0.064555
  0
VERTEX
  8
1_ANYTOOL_1MMDEEP_LABELS_S
 10
824.616025
 20
252.187973
 30
0.000000
 42
-0.078906
  0
VERTEX
  8
1_ANYTOOL_1MMDEEP_LABELS_S
 10
822.990764
 20
254.253813
 30
0.000000
 42
-0.076878
  0
VERTEX
  8
1_ANYTOOL_1MMDEEP_LABELS_S
 10
822.016214
 20
256.877414
 30
0.000000
 42
-0.050594
  0
VERTEX
  8
1_ANYTOOL_1MMDEEP_LABELS_S
 10
821.731836
 20
259.680599
 30
0.000000
 42
-0.039946
  0
VERTEX
  8
1_ANYTOOL_1MMDEEP_LABELS_S
 10
821.864632
 20
261.340160
 30
0.000000
 42
-0.052714
  0
VERTEX
  8
1_ANYTOOL_1MMDEEP_LABELS_S
 10
822.299693
 20
262.943099
 30
0.000000
 42
-0.053511
  0
VERTEX
  8
1_ANYTOOL_1MMDEEP_LABELS_S
 10
823.015027
 20
264.326296
 30
0.000000
 42
-0.051530
  0
VERTEX
  8
1_ANYTOOL_1MMDEEP_LABELS_S
 10
824.003264
 20
265.530599
 30
0.000000
 42
-0.040443
  0
VERTEX
  8
1_ANYTOOL_1MMDEEP_LABELS_S
 10
826.426406
 20
267.570822
 30
0.000000
 42
-0.040350
  0
VERTEX
  8
1_ANYTOOL_1MMDEEP_LABELS_S
 10
829.146121
 20
269.194884
 30
0.000000
  0
SEQEND
  8
1_ANYTOOL_1MMDEEP_LABELS_S
  0
POLYLINE
  8
3_ANYTOOL_CUTTHROUGH_INSID
 66
1
 10
0.000000
 20
0.000000
 30
0.000000
 70
1
  0
VERTEX
  8
3_ANYTOOL_CUTTHROUGH_INSID
 10
761.807876
 20
777.001065
 30
0.000000
 42
0.198912
  0
VERTEX
  8
3_ANYTOOL_CUTTHROUGH_INSID
 10
758.449115
 20
775.609827
 30
0.000000
 42
0.198912
  0
VERTEX
  8
3_ANYTOOL_CUTTHROUGH_INSID
 10
757.057867
 20
772.251069
 30
0.000000
 42
0.198912
  0
VERTEX
  8
3_ANYTOOL_CUTTHROUGH_INSID
 10
758.449108
 20
768.892309
 30
0.000000
 42
0.198912
  0
VERTEX
  8
3_ANYTOOL_CUTTHROUGH_INSID
 10
761.807867
 20
767.501065
 30
0.000000
  0
VERTEX
  8
3_ANYTOOL_CUTTHROUGH_INSID
 10
801.807867
 20
767.501065
 30
0.000000
 42
0.198913
  0
VERTEX
  8
3_ANYTOOL_CUTTHROUGH_INSID
 10
805.166629
 20
768.892305
 30
0.000000
 42
0.198913
  0
VERTEX
  8
3_ANYTOOL_CUTTHROUGH_INSID
 10
806.557874
 20
772.251065
 30
0.000000
 42
0.198913
  0
VERTEX
  8
3_ANYTOOL_CUTTHROUGH_INSID
 10
805.166628
 20
775.609825
 30
0.000000
 42
0.198913
  0
VERTEX
  8
3_ANYTOOL_CUTTHROUGH_INSID
 10
801.807866
 20
777.001065
 30
0.000000
  0
SEQEND
  8
3_ANYTOOL_CUTTHROUGH_INSID
  0
POLYLINE
  8
3_ANYTOOL_CUTTHROUGH_INSID
 66
1
 10
0.000000
 20
0.000000
 30
0.000000
 70
1
  0
VERTEX
  8
3_ANYTOOL_CUTTHROUGH_INSID
 10
1053.073622
 20
777.001065
 30
0.000000
  0
VERTEX
  8
3_ANYTOOL_CUTTHROUGH_INSID
 10
1013.073632
 20
777.001065
 30
0.000000
 42
0.198913
  0
VERTEX
  8
3_ANYTOOL_CUTTHROUGH_INSID
 10
1009.714870
 20
775.609825
 30
0.000000
 42
0.414214
  0
VERTEX
  8
3_ANYTOOL_CUTTHROUGH_INSID
 10
1009.714869
 20
768.892305
 30
0.000000
 42
0.198913
  0
VERTEX
  8
3_ANYTOOL_CUTTHROUGH_INSID
 10
1013.073631
 20
767.501065
 30
0.000000
  0
VERTEX
  8
3_ANYTOOL_CUTTHROUGH_INSID
 10
1053.073631
 20
767.501065
 30
0.000000
 42
0.198912
  0
VERTEX
  8
3_ANYTOOL_CUTTHROUGH_INSID
 10
1056.432390
 20
768.892309
 30
0.000000
 42
0.198912
  0
VERTEX
  8
3_ANYTOOL_CUTTHROUGH_INSID
 10
1057.823631
 20
772.251069
 30
0.000000
 42
0.198912
  0
VERTEX
  8
3_ANYTOOL_CUTTHROUGH_INSID
 10
1056.432383
 20
775.609827
 30
0.000000
 42
0.198912
  0
SEQEND
  8
3_ANYTOOL_CUTTHROUGH_INSID
  0
POLYLINE
  8
3_ANYTOOL_CUTTHROUGH_INSID
 66
1
 10
0.000000
 20
0.000000
 30
0.000000
 70
1
  0
VERTEX
  8
3_ANYTOOL_CUTTHROUGH_INSID
 10
674.830751
 20
349.750200
 30
0.000000
 42
0.198912
  0
VERTEX
  8
3_ANYTOOL_CUTTHROUGH_INSID
 10
670.364130
 20
360.533580
 30
0.000000
 42
0.198912
  0
VERTEX
  8
3_ANYTOOL_CUTTHROUGH_INSID
 10
659.580751
 20
365.000203
 30
0.000000
 42
0.198912
  0
VERTEX
  8
3_ANYTOOL_CUTTHROUGH_INSID
 10
648.797371
 20
360.533580
 30
0.000000
 42
0.198912
  0
VERTEX
  8
3_ANYTOOL_CUTTHROUGH_INSID
 10
644.330751
 20
349.750199
 30
0.000000
  0
VERTEX
  8
3_ANYTOOL_CUTTHROUGH_INSID
 10
644.330751
 20
249.750212
 30
0.000000
 42
0.198912
  0
VERTEX
  8
3_ANYTOOL_CUTTHROUGH_INSID
 10
648.797371
 20
238.966832
 30
0.000000
 42
0.198912
  0
VERTEX
  8
3_ANYTOOL_CUTTHROUGH_INSID
 10
659.580751
 20
234.500209
 30
0.000000
 42
0.198912
  0
VERTEX
  8
3_ANYTOOL_CUTTHROUGH_INSID
 10
670.364131
 20
238.966831
 30
0.000000
 42
0.198912
  0
VERTEX
  8
3_ANYTOOL_CUTTHROUGH_INSID
 10
674.830751
 20
249.750212
 30
0.000000
  0
SEQEND
  8
3_ANYTOOL_CUTTHROUGH_INSID
  0
POLYLINE
  8
3_ANYTOOL_CUTTHROUGH_INSID
 66
1
 10
0.000000
 20
0.000000
 30
0.000000
 70
1
  0
VERTEX
  8
3_ANYTOOL_CUTTHROUGH_INSID
 10
486.830751
 20
349.750200
 30
0.000000
 42
0.198912
  0
VERTEX
  8
3_ANYTOOL_CUTTHROUGH_INSID
 10
482.364130
 20
360.533580
 30
0.000000
 42
0.198912
  0
VERTEX
  8
3_ANYTOOL_CUTTHROUGH_INSID
 10
471.580751
 20
365.000203
 30
0.000000
 42
0.198912
  0
VERTEX
  8
3_ANYTOOL_CUTTHROUGH_INSID
 10
460.797371
 20
360.533580
 30
0.000000
 42
0.198912
  0
VERTEX
  8
3_ANYTOOL_CUTTHROUGH_INSID
 10
456.330751
 20
349.750199
 30
0.000000
  0
VERTEX
  8
3_ANYTOOL_CUTTHROUGH_INSID
 10
456.330751
 20
249.750212
 30
0.000000
 42
0.198912
  0
VERTEX
  8
3_ANYTOOL_CUTTHROUGH_INSID
 10
460.797371
 20
238.966832
 30
0.000000
 42
0.198912
  0
VERTEX
  8
3_ANYTOOL_CUTTHROUGH_INSID
 10
471.580751
 20
234.500209
 30
0.000000
 42
0.198912
  0
VERTEX
  8
3_ANYTOOL_CUTTHROUGH_INSID
 10
482.364131
 20
238.966831
 30
0.000000
 42
0.198912
  0
VERTEX
  8
3_ANYTOOL_CUTTHROUGH_INSID
 10
486.830751
 20
249.750212
 30
0.000000
  0
SEQEND
  8
3_ANYTOOL_CUTTHROUGH_INSID
  0
POLYLINE
  8
4_ANYTOOL_CUTTHROUGH_OUTSI
 66
1
 10
0.000000
 20
0.000000
 30
0.000000
 70
1
  0
VERTEX
  8
4_ANYTOOL_CUTTHROUGH_OUTSI
 10
133.022192
 20
0.000654
 30
0.000000
 42
0.061375
  0
VERTEX
  8
4_ANYTOOL_CUTTHROUGH_OUTSI
 10
132.787221
 20
1.395289
 30
0.000000
  0
VERTEX
  8
4_ANYTOOL_CUTTHROUGH_OUTSI
 10
115.891687
 20
49.667831
 30
0.000000
 42
-0.084368
  0
VERTEX
  8
4_ANYTOOL_CUTTHROUGH_OUTSI
 10
115.877652
 20
49.750418
 30
0.000000
 42
-0.414214
  0
VERTEX
  8
4_ANYTOOL_CUTTHROUGH_OUTSI
 10
122.127652
 20
56.000418
 30
0.000000
  0
VERTEX
  8
4_ANYTOOL_CUTTHROUGH_OUTSI
 10
200.127652
 20
56.000418
 30
0.000000
 42
-0.414214
  0
VERTEX
  8
4_ANYTOOL_CUTTHROUGH_OUTSI
 10
206.377652
 20
49.750418
 30
0.000000
 42
-0.084368
  0
VERTEX
  8
4_ANYTOOL_CUTTHROUGH_OUTSI
 10
206.363616
 20
49.667831
 30
0.000000
  0
VERTEX
  8
4_ANYTOOL_CUTTHROUGH_OUTSI
 10
189.464503
 20
1.384224
 30
0.000000
 42
0.061229
  0
VERTEX
  8
4_ANYTOOL_CUTTHROUGH_OUTSI
 10
189.233233
 20
0.000418
 30
0.000000
  0
VERTEX
  8
4_ANYTOOL_CUTTHROUGH_OUTSI
 10
227.830850
 20
0.000418
 30
0.000000
  0
VERTEX
  8
4_ANYTOOL_CUTTHROUGH_OUTSI
 10
227.830850
 20
23.750418
 30
0.000000
 42
-0.414214
  0
VERTEX
  8
4_ANYTOOL_CUTTHROUGH_OUTSI
 10
228.080850
 20
24.000418
 30
0.000000
  0
VERTEX
  8
4_ANYTOOL_CUTTHROUGH_OUTSI
 10
240.080850
 20
24.000418
 30
0.000000
 42
-0.414214
  0
VERTEX
  8
4_ANYTOOL_CUTTHROUGH_OUTSI
 10
240.330850
 20
23.750418
 30
0.000000
  0
VERTEX
  8
4_ANYTOOL_CUTTHROUGH_OUTSI
 10
240.330850
 20
18.000418
 30
0.000000
  0
VERTEX
  8
4_ANYTOOL_CUTTHROUGH_OUTSI
 10
290.830850
 20
18.000418
 30
0.000000
  0
VERTEX
  8
4_ANYTOOL_CUTTHROUGH_OUTSI
 10
290.830850
 20
23.750418
 30
0.000000
 42
-0.414214
  0
VERTEX
  8
4_ANYTOOL_CUTTHROUGH_OUTSI
 10
291.080850
 20
24.000418
 30
0.000000
  0
VERTEX
  8
4_ANYTOOL_CUTTHROUGH_OUTSI
 10
303.080850
 20
24.000418
 30
0.000000
 42
-0.414214
  0
VERTEX
  8
4_ANYTOOL_CUTTHROUGH_OUTSI
 10
303.330850
 20
23.750418
 30
0.000000
  0
VERTEX
  8
4_ANYTOOL_CUTTHROUGH_OUTSI
 10
303.330850
 20
0.000417
 30
0.000000
  0
VERTEX
  8
4_ANYTOOL_CUTTHROUGH_OUTSI
 10
341.928314
 20
0.000207
 30
0.000000
 42
0.061784
  0
VERTEX
  8
4_ANYTOOL_CUTTHROUGH_OUTSI
 10
341.693320
 20
1.395076
 30
0.000000
  0
VERTEX
  8
4_ANYTOOL_CUTTHROUGH_OUTSI
 10
324.797786
 20
49.667618
 30
0.000000
 42
-0.084368
  0
VERTEX
  8
4_ANYTOOL_CUTTHROUGH_OUTSI
 10
324.783751
 20
49.750206
 30
0.000000
 42
-0.414214
  0
VERTEX
  8
4_ANYTOOL_CUTTHROUGH_OUTSI
 10
331.033751
 20
56.000206
 30
0.000000
  0
VERTEX
  8
4_ANYTOOL_CUTTHROUGH_OUTSI
 10
409.033751
 20
56.000206
 30
0.000000
 42
-0.414214
  0
VERTEX
  8
4_ANYTOOL_CUTTHROUGH_OUTSI
 10
415.283751
 20
49.750206
 30
0.000000
 42
-0.084368
  0
VERTEX
  8
4_ANYTOOL_CUTTHROUGH_OUTSI
 10
415.269715
 20
49.667618
 30
0.000000
  0
VERTEX
  8
4_ANYTOOL_CUTTHROUGH_OUTSI
 10
398.370603
 20
1.384011
 30
0.000000
 42
0.061178
  0
VERTEX
  8
4_ANYTOOL_CUTTHROUGH_OUTSI
 10
398.139188
 20
0.000206
 30
0.000000
  0
VERTEX
  8
4_ANYTOOL_CUTTHROUGH_OUTSI
 10
465.330751
 20
0.000212
 30
0.000000
  0
VERTEX
  8
4_ANYTOOL_CUTTHROUGH_OUTSI
 10
465.330751
 20
23.750212
 30
0.000000
 42
-0.414214
  0
VERTEX
  8
4_ANYTOOL_CUTTHROUGH_OUTSI
 10
465.580751
 20
24.000212
 30
0.000000
  0
VERTEX
  8
4_ANYTOOL_CUTTHROUGH_OUTSI
 10
477.580751
 20
24.000212
 30
0.000000
 42
-0.414214
  0
VERTEX
  8
4_ANYTOOL_CUTTHROUGH_OUTSI
 10
477.830751
 20
23.750212
 30
0.000000
  0
VERTEX
  8
4_ANYTOOL_CUTTHROUGH_OUTSI
 10
477.830751
 20
18.000212
 30
0.000000
  0
VERTEX
  8
4_ANYTOOL_CUTTHROUGH_OUTSI
 10
528.330751
 20
18.000206
 30
0.000000
  0
VERTEX
  8
4_ANYTOOL_CUTTHROUGH_OUTSI
 10
528.330751
 20
23.750206
 30
0.000000
 42
-0.414214
  0
VERTEX
  8
4_ANYTOOL_CUTTHROUGH_OUTSI
 10
528.580751
 20
24.000206
 30
0.000000
  0
VERTEX
  8
4_ANYTOOL_CUTTHROUGH_OUTSI
 10
540.580751
 20
24.000206
 30
0.000000
 42
-0.414214
  0
VERTEX
  8
4_ANYTOOL_CUTTHROUGH_OUTSI
 10
540.830751
 20
23.750206
 30
0.000000
  0
VERTEX
  8
4_ANYTOOL_CUTTHROUGH_OUTSI
 10
540.830751
 20
0.000206
 30
0.000000
  0
VERTEX
  8
4_ANYTOOL_CUTTHROUGH_OUTSI
 10
590.330751
 20
0.000206
 30
0.000000
  0
VERTEX
  8
4_ANYTOOL_CUTTHROUGH_OUTSI
 10
590.330751
 20
23.750206
 30
0.000000
 42
-0.414214
  0
VERTEX
  8
4_ANYTOOL_CUTTHROUGH_OUTSI
 10
590.580751
 20
24.000206
 30
0.000000
  0
VERTEX
  8
4_ANYTOOL_CUTTHROUGH_OUTSI
 10
602.580751
 20
24.000206
 30
0.000000
 42
-0.414214
  0
VERTEX
  8
4_ANYTOOL_CUTTHROUGH_OUTSI
 10
602.830751
 20
23.750206
 30
0.000000
  0
VERTEX
  8
4_ANYTOOL_CUTTHROUGH_OUTSI
 10
602.830751
 20
18.000210
 30
0.000000
  0
VERTEX
  8
4_ANYTOOL_CUTTHROUGH_OUTSI
 10
653.330751
 20
18.001053
 30
0.000000
  0
VERTEX
  8
4_ANYTOOL_CUTTHROUGH_OUTSI
 10
653.330751
 20
23.751057
 30
0.000000
 42
-0.414214
  0
VERTEX
  8
4_ANYTOOL_CUTTHROUGH_OUTSI
 10
653.580751
 20
24.001057
 30
0.000000
  0
VERTEX
  8
4_ANYTOOL_CUTTHROUGH_OUTSI
 10
665.580751
 20
24.001057
 30
0.000000
 42
-0.414214
  0
VERTEX
  8
4_ANYTOOL_CUTTHROUGH_OUTSI
 10
665.830751
 20
23.751057
 30
0.000000
  0
VERTEX
  8
4_ANYTOOL_CUTTHROUGH_OUTSI
 10
665.830751
 20
0.001057
 30
0.000000
  0
VERTEX
  8
4_ANYTOOL_CUTTHROUGH_OUTSI
 10
733.022104
 20
0.001057
 30
0.000000
 42
0.061385
  0
VERTEX
  8
4_ANYTOOL_CUTTHROUGH_OUTSI
 10
732.787121
 20
1.395927
 30
0.000000
  0
VERTEX
  8
4_ANYTOOL_CUTTHROUGH_OUTSI
 10
715.891588
 20
49.668469
 30
0.000000
 42
-0.084368
  0
VERTEX
  8
4_ANYTOOL_CUTTHROUGH_OUTSI
 10
715.877553
 20
49.751057
 30
0.000000
 42
-0.414214
  0
VERTEX
  8
4_ANYTOOL_CUTTHROUGH_OUTSI
 10
722.127553
 20
56.001057
 30
0.000000
  0
VERTEX
  8
4_ANYTOOL_CUTTHROUGH_OUTSI
 10
800.127553
 20
56.001057
 30
0.000000
 42
-0.414214
  0
VERTEX
  8
4_ANYTOOL_CUTTHROUGH_OUTSI
 10
806.377553
 20
49.751057
 30
0.000000
 42
-0.084368
  0
VERTEX
  8
4_ANYTOOL_CUTTHROUGH_OUTSI
 10
806.363517
 20
49.668469
 30
0.000000
  0
VERTEX
  8
4_ANYTOOL_CUTTHROUGH_OUTSI
 10
789.464404
 20
1.384862
 30
0.000000
 42
0.061229
  0
VERTEX
  8
4_ANYTOOL_CUTTHROUGH_OUTSI
 10
789.233134
 20
0.001057
 30
0.000000
  0
VERTEX
  8
4_ANYTOOL_CUTTHROUGH_OUTSI
 10
827.830751
 20
0.001057
 30
0.000000
  0
VERTEX
  8
4_ANYTOOL_CUTTHROUGH_OUTSI
 10
827.830751
 20
23.751057
 30
0.000000
 42
-0.414214
  0
VERTEX
  8
4_ANYTOOL_CUTTHROUGH_OUTSI
 10
828.080751
 20
24.001057
 30
0.000000
  0
VERTEX
  8
4_ANYTOOL_CUTTHROUGH_OUTSI
 10
840.080751
 20
24.001057
 30
0.000000
 42
-0.414214
  0
VERTEX
  8
4_ANYTOOL_CUTTHROUGH_OUTSI
 10
840.330751
 20
23.751057
 30
0.000000
  0
VERTEX
  8
4_ANYTOOL_CUTTHROUGH_OUTSI
 10
840.330751
 20
18.001057
 30
0.000000
  0
VERTEX
  8
4_ANYTOOL_CUTTHROUGH_OUTSI
 10
890.830751
 20
18.001057
 30
0.000000
  0
VERTEX
  8
4_ANYTOOL_CUTTHROUGH_OUTSI
 10
890.830751
 20
23.751057
 30
0.000000
 42
-0.414214
  0
VERTEX
  8
4_ANYTOOL_CUTTHROUGH_OUTSI
 10
891.080751
 20
24.001057
 30
0.000000
  0
VERTEX
  8
4_ANYTOOL_CUTTHROUGH_OUTSI
 10
903.080751
 20
24.001057
 30
0.000000
 42
-0.414214
  0
VERTEX
  8
4_ANYTOOL_CUTTHROUGH_OUTSI
 10
903.330751
 20
23.751057
 30
0.000000
  0
VERTEX
  8
4_ANYTOOL_CUTTHROUGH_OUTSI
 10
903.330751
 20
0.001056
 30
0.000000
  0
VERTEX
  8
4_ANYTOOL_CUTTHROUGH_OUTSI
 10
941.928094
 20
0.000846
 30
0.000000
 42
0.061376
  0
VERTEX
  8
4_ANYTOOL_CUTTHROUGH_OUTSI
 10
941.693121
 20
1.395502
 30
0.000000
  0
VERTEX
  8
4_ANYTOOL_CUTTHROUGH_OUTSI
 10
924.797588
 20
49.668044
 30
0.000000
 42
-0.084368
  0
VERTEX
  8
4_ANYTOOL_CUTTHROUGH_OUTSI
 10
924.783553
 20
49.750631
 30
0.000000
 42
-0.414214
  0
VERTEX
  8
4_ANYTOOL_CUTTHROUGH_OUTSI
 10
931.033553
 20
56.000631
 30
0.000000
  0
VERTEX
  8
4_ANYTOOL_CUTTHROUGH_OUTSI
 10
1009.033553
 20
56.000631
 30
0.000000
 42
-0.414214
  0
VERTEX
  8
4_ANYTOOL_CUTTHROUGH_OUTSI
 10
1015.283553
 20
49.750631
 30
0.000000
 42
-0.084368
  0
VERTEX
  8
4_ANYTOOL_CUTTHROUGH_OUTSI
 10
1015.269517
 20
49.668044
 30
0.000000
  0
VERTEX
  8
4_ANYTOOL_CUTTHROUGH_OUTSI
 10
998.370404
 20
1.384437
 30
0.000000
 42
0.061229
  0
VERTEX
  8
4_ANYTOOL_CUTTHROUGH_OUTSI
 10
998.139134
 20
0.000634
 30
0.000000
  0
VERTEX
  8
4_ANYTOOL_CUTTHROUGH_OUTSI
 10
1042.544203
 20
0.001057
 30
0.000000
  0
VERTEX
  8
4_ANYTOOL_CUTTHROUGH_OUTSI
 10
1065.330751
 20
0.001057
 30
0.000000
  0
VERTEX
  8
4_ANYTOOL_CUTTHROUGH_OUTSI
 10
1065.330751
 20
23.751057
 30
0.000000
 42
-0.414214
  0
VERTEX
  8
4_ANYTOOL_CUTTHROUGH_OUTSI
 10
1065.580751
 20
24.001057
 30
0.000000
  0
VERTEX
  8
4_ANYTOOL_CUTTHROUGH_OUTSI
 10
1077.580751
 20
24.001057
 30
0.000000
 42
-0.414214
  0
VERTEX
  8
4_ANYTOOL_CUTTHROUGH_OUTSI
 10
1077.830751
 20
23.751057
 30
0.000000
  0
VERTEX
  8
4_ANYTOOL_CUTTHROUGH_OUTSI
 10
1077.830751
 20
18.001058
 30
0.000000
  0
VERTEX
  8
4_ANYTOOL_CUTTHROUGH_OUTSI
 10
1088.330751
 20
18.001087
 30
0.000000
  0
VERTEX
  8
4_ANYTOOL_CUTTHROUGH_OUTSI
 10
1088.330751
 20
23.751118
 30
0.000000
 42
-0.414214
  0
VERTEX
  8
4_ANYTOOL_CUTTHROUGH_OUTSI
 10
1088.580751
 20
24.001118
 30
0.000000
  0
VERTEX
  8
4_ANYTOOL_CUTTHROUGH_OUTSI
 10
1100.580751
 20
24.001118
 30
0.000000
 42
-0.414214
  0
VERTEX
  8
4_ANYTOOL_CUTTHROUGH_OUTSI
 10
1100.830751
 20
23.751118
 30
0.000000
  0
VERTEX
  8
4_ANYTOOL_CUTTHROUGH_OUTSI
 10
1100.830751
 20
0.001118
 30
0.000000
  0
VERTEX
  8
4_ANYTOOL_CUTTHROUGH_OUTSI
 10
1125.330751
 20
0.001118
 30
0.000000
  0
VERTEX
  8
4_ANYTOOL_CUTTHROUGH_OUTSI
 10
1125.330751
 20
23.751118
 30
0.000000
 42
-0.414214
  0
VERTEX
  8
4_ANYTOOL_CUTTHROUGH_OUTSI
 10
1125.580751
 20
24.001118
 30
0.000000
  0
VERTEX
  8
4_ANYTOOL_CUTTHROUGH_OUTSI
 10
1137.580751
 20
24.001118
 30
0.000000
 42
-0.414214
  0
VERTEX
  8
4_ANYTOOL_CUTTHROUGH_OUTSI
 10
1137.830751
 20
23.751118
 30
0.000000
  0
VERTEX
  8
4_ANYTOOL_CUTTHROUGH_OUTSI
 10
1137.830751
 20
18.001191
 30
0.000000
  0
VERTEX
  8
4_ANYTOOL_CUTTHROUGH_OUTSI
 10
1165.330751
 20
18.001058
 30
0.000000
  0
VERTEX
  8
4_ANYTOOL_CUTTHROUGH_OUTSI
 10
1165.330751
 20
30.404704
 30
0.000000
 42
-0.317837
  0
VERTEX
  8
4_ANYTOOL_CUTTHROUGH_OUTSI
 10
1169.497418
 20
36.297260
 30
0.000000
 42
0.317837
  0
VERTEX
  8
4_ANYTOOL_CUTTHROUGH_OUTSI
 10
1177.330751
 20
47.375267
 30
0.000000
 42
0.317837
  0
VERTEX
  8
4_ANYTOOL_CUTTHROUGH_OUTSI
 10
1169.497418
 20
58.453273
 30
0.000000
 42
-0.317837
  0
VERTEX
  8
4_ANYTOOL_CUTTHROUGH_OUTSI
 10
1165.330751
 20
64.345829
 30
0.000000
  0
VERTEX
  8
4_ANYTOOL_CUTTHROUGH_OUTSI
 10
1165.330751
 20
76.745267
 30
0.000000
 42
0.061436
  0
VERTEX
  8
4_ANYTOOL_CUTTHROUGH_OUTSI
 10
1163.935881
 20
76.510429
 30
0.000000
  0
VERTEX
  8
4_ANYTOOL_CUTTHROUGH_OUTSI
 10
1115.663339
 20
59.614895
 30
0.000000
 42
-0.084368
  0
VERTEX
  8
4_ANYTOOL_CUTTHROUGH_OUTSI
 10
1115.580751
 20
59.600860
 30
0.000000
 42
-0.414214
  0
VERTEX
  8
4_ANYTOOL_CUTTHROUGH_OUTSI
 10
1109.330751
 20
65.850860
 30
0.000000
  0
VERTEX
  8
4_ANYTOOL_CUTTHROUGH_OUTSI
 10
1109.330751
 20
143.850860
 30
0.000000
 42
-0.414214
  0
VERTEX
  8
4_ANYTOOL_CUTTHROUGH_OUTSI
 10
1115.580751
 20
150.100860
 30
0.000000
 42
-0.084368
  0
VERTEX
  8
4_ANYTOOL_CUTTHROUGH_OUTSI
 10
1115.663339
 20
150.086825
 30
0.000000
  0
VERTEX
  8
4_ANYTOOL_CUTTHROUGH_OUTSI
 10
1163.946946
 20
133.187712
 30
0.000000
 42
0.061229
  0
VERTEX
  8
4_ANYTOOL_CUTTHROUGH_OUTSI
 10
1165.330751
 20
132.956441
 30
0.000000
  0
VERTEX
  8
4_ANYTOOL_CUTTHROUGH_OUTSI
 10
1165.330751
 20
271.645412
 30
0.000000
 42
0.061385
  0
VERTEX
  8
4_ANYTOOL_CUTTHROUGH_OUTSI
 10
1163.935881
 20
271.410430
 30
0.000000
  0
VERTEX
  8
4_ANYTOOL_CUTTHROUGH_OUTSI
 10
1115.663339
 20
254.514896
 30
0.000000
 42
-0.084368
  0
VERTEX
  8
4_ANYTOOL_CUTTHROUGH_OUTSI
 10
1115.580751
 20
254.500861
 30
0.000000
 42
-0.414214
  0
VERTEX
  8
4_ANYTOOL_CUTTHROUGH_OUTSI
 10
1109.330751
 20
260.750861
 30
0.000000
  0
VERTEX
  8
4_ANYTOOL_CUTTHROUGH_OUTSI
 10
1109.330751
 20
338.750861
 30
0.000000
 42
-0.414214
  0
VERTEX
  8
4_ANYTOOL_CUTTHROUGH_OUTSI
 10
1115.580751
 20
345.000861
 30
0.000000
 42
-0.084368
  0
VERTEX
  8
4_ANYTOOL_CUTTHROUGH_OUTSI
 10
1115.663339
 20
344.986826
 30
0.000000
  0
VERTEX
  8
4_ANYTOOL_CUTTHROUGH_OUTSI
 10
1163.946946
 20
328.087713
 30
0.000000
 42
0.061229
  0
VERTEX
  8
4_ANYTOOL_CUTTHROUGH_OUTSI
 10
1165.330751
 20
327.856442
 30
0.000000
  0
VERTEX
  8
4_ANYTOOL_CUTTHROUGH_OUTSI
 10
1165.330751
 20
466.545159
 30
0.000000
 42
0.061335
  0
VERTEX
  8
4_ANYTOOL_CUTTHROUGH_OUTSI
 10
1163.935881
 20
466.310033
 30
0.000000
  0
VERTEX
  8
4_ANYTOOL_CUTTHROUGH_OUTSI
 10
1115.663339
 20
449.414500
 30
0.000000
 42
-0.084368
  0
VERTEX
  8
4_ANYTOOL_CUTTHROUGH_OUTSI
 10
1115.580751
 20
449.400465
 30
0.000000
 42
-0.414214
  0
VERTEX
  8
4_ANYTOOL_CUTTHROUGH_OUTSI
 10
1109.330751
 20
455.650465
 30
0.000000
  0
VERTEX
  8
4_ANYTOOL_CUTTHROUGH_OUTSI
 10
1109.330751
 20
533.650465
 30
0.000000
 42
-0.414214
  0
VERTEX
  8
4_ANYTOOL_CUTTHROUGH_OUTSI
 10
1115.580751
 20
539.900465
 30
0.000000
 42
-0.084368
  0
VERTEX
  8
4_ANYTOOL_CUTTHROUGH_OUTSI
 10
1115.663339
 20
539.886429
 30
0.000000
  0
VERTEX
  8
4_ANYTOOL_CUTTHROUGH_OUTSI
 10
1163.946946
 20
522.987316
 30
0.000000
 42
0.061229
  0
VERTEX
  8
4_ANYTOOL_CUTTHROUGH_OUTSI
 10
1165.330751
 20
522.756046
 30
0.000000
  0
VERTEX
  8
4_ANYTOOL_CUTTHROUGH_OUTSI
 10
1165.330751
 20
535.154704
 30
0.000000
 42
-0.317837
  0
VERTEX
  8
4_ANYTOOL_CUTTHROUGH_OUTSI
 10
1169.497418
 20
541.047260
 30
0.000000
 42
0.317837
  0
VERTEX
  8
4_ANYTOOL_CUTTHROUGH_OUTSI
 10
1177.330751
 20
552.125267
 30
0.000000
 42
0.317837
  0
VERTEX
  8
4_ANYTOOL_CUTTHROUGH_OUTSI
 10
1169.497418
 20
563.203273
 30
0.000000
 42
-0.317837
  0
VERTEX
  8
4_ANYTOOL_CUTTHROUGH_OUTSI
 10
1165.330751
 20
569.095829
 30
0.000000
  0
VERTEX
  8
4_ANYTOOL_CUTTHROUGH_OUTSI
 10
1165.330751
 20
646.500267
 30
0.000000
  0
VERTEX
  8
4_ANYTOOL_CUTTHROUGH_OUTSI
 10
1141.580751
 20
646.500267
 30
0.000000
 42
-0.414214
  0
VERTEX
  8
4_ANYTOOL_CUTTHROUGH_OUTSI
 10
1141.330751
 20
646.750267
 30
0.000000
  0
VERTEX
  8
4_ANYTOOL_CUTTHROUGH_OUTSI
 10
1141.330751
 20
658.750267
 30
0.000000
 42
-0.414214
  0
VERTEX
  8
4_ANYTOOL_CUTTHROUGH_OUTSI
 10
1141.580751
 20
659.000267
 30
0.000000
  0
VERTEX
  8
4_ANYTOOL_CUTTHROUGH_OUTSI
 10
1147.330751
 20
659.000267
 30
0.000000
  0
VERTEX
  8
4_ANYTOOL_CUTTHROUGH_OUTSI
 10
1147.330751
 20
669.500267
 30
0.000000
  0
VERTEX
  8
4_ANYTOOL_CUTTHROUGH_OUTSI
 10
1141.580751
 20
669.500267
 30
0.000000
 42
-0.414214
  0
VERTEX
  8
4_ANYTOOL_CUTTHROUGH_OUTSI
 10
1141.330751
 20
669.750267
 30
0.000000
  0
VERTEX
  8
4_ANYTOOL_CUTTHROUGH_OUTSI
 10
1141.330751
 20
681.750267
 30
0.000000
 42
-0.414214
  0
VERTEX
  8
4_ANYTOOL_CUTTHROUGH_OUTSI
 10
1141.580751
 20
682.000267
 30
0.000000
  0
VERTEX
  8
4_ANYTOOL_CUTTHROUGH_OUTSI
 10
1165.330751
 20
682.000267
 30
0.000000
  0
VERTEX
  8
4_ANYTOOL_CUTTHROUGH_OUTSI
 10
1165.330751
 20
719.412267
 30
0.000000
  0
VERTEX
  8
4_ANYTOOL_CUTTHROUGH_OUTSI
 10
1141.580751
 20
719.412267
 30
0.000000
 42
-0.414214
  0
VERTEX
  8
4_ANYTOOL_CUTTHROUGH_OUTSI
 10
1141.330751
 20
719.662267
 30
0.000000
  0
VERTEX
  8
4_ANYTOOL_CUTTHROUGH_OUTSI
 10
1141.330751
 20
731.662267
 30
0.000000
 42
-0.414214
  0
VERTEX
  8
4_ANYTOOL_CUTTHROUGH_OUTSI
 10
1141.580751
 20
731.912267
 30
0.000000
  0
VERTEX
  8
4_ANYTOOL_CUTTHROUGH_OUTSI
 10
1147.330751
 20
731.912267
 30
0.000000
  0
VERTEX
  8
4_ANYTOOL_CUTTHROUGH_OUTSI
 10
1147.330751
 20
739.500267
 30
0.000000
  0
VERTEX
  8
4_ANYTOOL_CUTTHROUGH_OUTSI
 10
1141.580751
 20
739.500267
 30
0.000000
 42
-0.414214
  0
VERTEX
  8
4_ANYTOOL_CUTTHROUGH_OUTSI
 10
1141.330751
 20
739.750267
 30
0.000000
  0
VERTEX
  8
4_ANYTOOL_CUTTHROUGH_OUTSI
 10
1141.330751
 20
751.750267
 30
0.000000
 42
-0.414214
  0
VERTEX
  8
4_ANYTOOL_CUTTHROUGH_OUTSI
 10
1141.580751
 20
752.000267
 30
0.000000
  0
VERTEX
  8
4_ANYTOOL_CUTTHROUGH_OUTSI
 10
1165.330751
 20
752.000267
 30
0.000000
  0
VERTEX
  8
4_ANYTOOL_CUTTHROUGH_OUTSI
 10
1165.330751
 20
785.500667
 30
0.000000
  0
VERTEX
  8
4_ANYTOOL_CUTTHROUGH_OUTSI
 10
967.690749
 20
785.501067
 30
0.000000
  0
VERTEX
  8
4_ANYTOOL_CUTTHROUGH_OUTSI
 10
967.690749
 20
761.751065
 30
0.000000
 42
-0.414214
  0
VERTEX
  8
4_ANYTOOL_CUTTHROUGH_OUTSI
 10
967.440749
 20
761.501065
 30
0.000000
  0
VERTEX
  8
4_ANYTOOL_CUTTHROUGH_OUTSI
 10
955.440749
 20
761.501065
 30
0.000000
 42
-0.414214
  0
VERTEX
  8
4_ANYTOOL_CUTTHROUGH_OUTSI
 10
955.190749
 20
761.751065
 30
0.000000
  0
VERTEX
  8
4_ANYTOOL_CUTTHROUGH_OUTSI
 10
955.190749
 20
767.501065
 30
0.000000
  0
VERTEX
  8
4_ANYTOOL_CUTTHROUGH_OUTSI
 10
859.690749
 20
767.501065
 30
0.000000
  0
VERTEX
  8
4_ANYTOOL_CUTTHROUGH_OUTSI
 10
859.690749
 20
761.751065
 30
0.000000
 42
-0.414214
  0
VERTEX
  8
4_ANYTOOL_CUTTHROUGH_OUTSI
 10
859.440749
 20
761.501065
 30
0.000000
  0
VERTEX
  8
4_ANYTOOL_CUTTHROUGH_OUTSI
 10
847.440749
 20
761.501065
 30
0.000000
 42
-0.414214
  0
VERTEX
  8
4_ANYTOOL_CUTTHROUGH_OUTSI
 10
847.190749
 20
761.751065
 30
0.000000
  0
VERTEX
  8
4_ANYTOOL_CUTTHROUGH_OUTSI
 10
847.190749
 20
785.501065
 30
0.000000
  0
VERTEX
  8
4_ANYTOOL_CUTTHROUGH_OUTSI
 10
666.838724
 20
785.501067
 30
0.000000
  0
VERTEX
  8
4_ANYTOOL_CUTTHROUGH_OUTSI
 10
546.444476
 20
651.789708
 30
0.000000
  0
VERTEX
  8
4_ANYTOOL_CUTTHROUGH_OUTSI
 10
564.094165
 20
635.897856
 30
0.000000
 42
-0.414214
  0
VERTEX
  8
4_ANYTOOL_CUTTHROUGH_OUTSI
 10
564.112669
 20
635.544788
 30
0.000000
  0
VERTEX
  8
4_ANYTOOL_CUTTHROUGH_OUTSI
 10
556.083102
 20
626.627050
 30
0.000000
 42
-0.414214
  0
VERTEX
  8
4_ANYTOOL_CUTTHROUGH_OUTSI
 10
555.730033
 20
626.608546
 30
0.000000
  0
VERTEX
  8
4_ANYTOOL_CUTTHROUGH_OUTSI
 10
551.456950
 20
630.456047
 30
0.000000
  0
VERTEX
  8
4_ANYTOOL_CUTTHROUGH_OUTSI
 10
474.172365
 20
544.622820
 30
0.000000
  0
VERTEX
  8
4_ANYTOOL_CUTTHROUGH_OUTSI
 10
478.445448
 20
540.775319
 30
0.000000
 42
-0.414214
  0
VERTEX
  8
4_ANYTOOL_CUTTHROUGH_OUTSI
 10
478.463951
 20
540.422250
 30
0.000000
  0
VERTEX
  8
4_ANYTOOL_CUTTHROUGH_OUTSI
 10
470.434384
 20
531.504512
 30
0.000000
 42
-0.414214
  0
VERTEX
  8
4_ANYTOOL_CUTTHROUGH_OUTSI
 10
470.081315
 20
531.486009
 30
0.000000
  0
VERTEX
  8
4_ANYTOOL_CUTTHROUGH_OUTSI
 10
465.622446
 20
535.500792
 30
0.000000
  0
VERTEX
  8
4_ANYTOOL_CUTTHROUGH_OUTSI
 10
452.431625
 20
547.377861
 30
0.000000
  0
VERTEX
  8
4_ANYTOOL_CUTTHROUGH_OUTSI
 10
314.766823
 20
394.485608
 30
0.000000
  0
VERTEX
  8
4_ANYTOOL_CUTTHROUGH_OUTSI
 10
332.416513
 20
378.593756
 30
0.000000
 42
-0.414214
  0
VERTEX
  8
4_ANYTOOL_CUTTHROUGH_OUTSI
 10
332.435016
 20
378.240687
 30
0.000000
  0
VERTEX
  8
4_ANYTOOL_CUTTHROUGH_OUTSI
 10
324.405449
 20
369.322950
 30
0.000000
 42
-0.414214
  0
VERTEX
  8
4_ANYTOOL_CUTTHROUGH_OUTSI
 10
324.052380
 20
369.304446
 30
0.000000
  0
VERTEX
  8
4_ANYTOOL_CUTTHROUGH_OUTSI
 10
319.779297
 20
373.151947
 30
0.000000
  0
VERTEX
  8
4_ANYTOOL_CUTTHROUGH_OUTSI
 10
296.025161
 20
346.770306
 30
0.000000
  0
VERTEX
  8
4_ANYTOOL_CUTTHROUGH_OUTSI
 10
300.298243
 20
342.922805
 30
0.000000
 42
-0.414214
  0
VERTEX
  8
4_ANYTOOL_CUTTHROUGH_OUTSI
 10
300.316747
 20
342.569736
 30
0.000000
  0
VERTEX
  8
4_ANYTOOL_CUTTHROUGH_OUTSI
 10
292.287180
 20
333.651998
 30
0.000000
 42
-0.414214
  0
VERTEX
  8
4_ANYTOOL_CUTTHROUGH_OUTSI
 10
291.934111
 20
333.633494
 30
0.000000
  0
VERTEX
  8
4_ANYTOOL_CUTTHROUGH_OUTSI
 10
274.284421
 20
349.525346
 30
0.000000
  0
VERTEX
  8
4_ANYTOOL_CUTTHROUGH_OUTSI
 10
184.349253
 20
249.642223
 30
0.000000
  0
VERTEX
  8
4_ANYTOOL_CUTTHROUGH_OUTSI
 10
201.998943
 20
233.750371
 30
0.000000
 42
-0.414214
  0
VERTEX
  8
4_ANYTOOL_CUTTHROUGH_OUTSI
 10
202.017446
 20
233.397302
 30
0.000000
  0
VERTEX
  8
4_ANYTOOL_CUTTHROUGH_OUTSI
 10
193.987879
 20
224.479564
 30
0.000000
 42
-0.414214
  0
VERTEX
  8
4_ANYTOOL_CUTTHROUGH_OUTSI
 10
193.634810
 20
224.461061
 30
0.000000
  0
VERTEX
  8
4_ANYTOOL_CUTTHROUGH_OUTSI
 10
189.361727
 20
228.308562
 30
0.000000
  0
VERTEX
  8
4_ANYTOOL_CUTTHROUGH_OUTSI
 10
165.607591
 20
201.926920
 30
0.000000
  0
VERTEX
  8
4_ANYTOOL_CUTTHROUGH_OUTSI
 10
169.880673
 20
198.079419
 30
0.000000
 42
-0.414214
  0
VERTEX
  8
4_ANYTOOL_CUTTHROUGH_OUTSI
 10
169.899177
 20
197.726350
 30
0.000000
  0
VERTEX
  8
4_ANYTOOL_CUTTHROUGH_OUTSI
 10
161.869610
 20
188.808613
 30
0.000000
 42
-0.414214
  0
VERTEX
  8
4_ANYTOOL_CUTTHROUGH_OUTSI
 10
161.516541
 20
188.790109
 30
0.000000
  0
VERTEX
  8
4_ANYTOOL_CUTTHROUGH_OUTSI
 10
143.866851
 20
204.681961
 30
0.000000
  0
VERTEX
  8
4_ANYTOOL_CUTTHROUGH_OUTSI
 10
6.202049
 20
51.789709
 30
0.000000
  0
VERTEX
  8
4_ANYTOOL_CUTTHROUGH_OUTSI
 10
23.851739
 20
35.897857
 30
0.000000
 42
-0.414214
  0
VERTEX
  8
4_ANYTOOL_CUTTHROUGH_OUTSI
 10
23.870242
 20
35.544788
 30
0.000000
  0
VERTEX
  8
4_ANYTOOL_CUTTHROUGH_OUTSI
 10
15.840675
 20
26.627050
 30
0.000000
 42
-0.414214
  0
VERTEX
  8
4_ANYTOOL_CUTTHROUGH_OUTSI
 10
15.487606
 20
26.608546
 30
0.000000
  0
VERTEX
  8
4_ANYTOOL_CUTTHROUGH_OUTSI
 10
11.214523
 20
30.456047
 30
0.000000
  0
VERTEX
  8
4_ANYTOOL_CUTTHROUGH_OUTSI
 10
0.000000
 20
18.001057
 30
0.000000
  0
VERTEX
  8
4_ANYTOOL_CUTTHROUGH_OUTSI
 10
27.967086
 20
18.000573
 30
0.000000
  0
VERTEX
  8
4_ANYTOOL_CUTTHROUGH_OUTSI
 10
27.967086
 20
23.750010
 30
0.000000
 42
-0.414214
  0
VERTEX
  8
4_ANYTOOL_CUTTHROUGH_OUTSI
 10
28.217086
 20
24.000010
 30
0.000000
  0
VERTEX
  8
4_ANYTOOL_CUTTHROUGH_OUTSI
 10
40.217086
 20
24.000010
 30
0.000000
 42
-0.414214
  0
VERTEX
  8
4_ANYTOOL_CUTTHROUGH_OUTSI
 10
40.467086
 20
23.750010
 30
0.000000
  0
VERTEX
  8
4_ANYTOOL_CUTTHROUGH_OUTSI
 10
40.467086
 20
0.000010
 30
0.000000
  0
VERTEX
  8
4_ANYTOOL_CUTTHROUGH_OUTSI
 10
64.967086
 20
0.000000
 30
0.000000
  0
VERTEX
  8
4_ANYTOOL_CUTTHROUGH_OUTSI
 10
64.967086
 20
23.750000
 30
0.000000
 42
-0.414212
  0
VERTEX
  8
4_ANYTOOL_CUTTHROUGH_OUTSI
 10
65.217085
 20
24.000000
 30
0.000000
  0
VERTEX
  8
4_ANYTOOL_CUTTHROUGH_OUTSI
 10
77.217085
 20
24.000050
 30
0.000000
 42
-0.414215
  0
VERTEX
  8
4_ANYTOOL_CUTTHROUGH_OUTSI
 10
77.467086
 20
23.750050
 30
0.000000
  0
VERTEX
  8
4_ANYTOOL_CUTTHROUGH_OUTSI
 10
77.467086
 20
18.000077
 30
0.000000
  0
VERTEX
  8
4_ANYTOOL_CUTTHROUGH_OUTSI
 10
87.967079
 20
18.001225
 30
0.000000
  0
VERTEX
  8
4_ANYTOOL_CUTTHROUGH_OUTSI
 10
87.967079
 20
23.751253
 30
0.000000
 42
-0.414214
  0
VERTEX
  8
4_ANYTOOL_CUTTHROUGH_OUTSI
 10
88.217079
 20
24.001253
 30
0.000000
  0
VERTEX
  8
4_ANYTOOL_CUTTHROUGH_OUTSI
 10
100.217079
 20
24.001253
 30
0.000000
 42
-0.414214
  0
VERTEX
  8
4_ANYTOOL_CUTTHROUGH_OUTSI
 10
100.467079
 20
23.751253
 30
0.000000
  0
VERTEX
  8
4_ANYTOOL_CUTTHROUGH_OUTSI
 10
100.467079
 20
0.001248
 30
0.000000
  0
SEQEND
  8
4_ANYTOOL_CUTTHROUGH_OUTSI
  0
ENDSEC
  0
EOF
