<svg id="Layer_1" data-name="Layer 1" xmlns="http://www.w3.org/2000/svg" viewBox="0 0 500 500"><defs><style>.cls-1,.cls-2{fill:none;stroke:#000;stroke-linecap:round;stroke-linejoin:round;}.cls-2{stroke-width:0.3px;}</style></defs><polygon class="cls-1" points="398.4 144.6 398.5 144.7 398.5 144.5 398.4 144.6"/><polygon class="cls-1" points="76.8 330.3 76.7 330.4 76.8 330.4 76.8 330.3"/><polygon class="cls-1" points="109.6 360 108.6 359.4 101.5 363.5 101.5 365.5 101.5 368.9 101.5 372.4 101.5 375.8 101.1 376 100.7 376.2 100.3 376.5 57.9 352 57.9 348.6 57.9 345.2 57.9 341.8 57.9 338.4 57.9 335 57.9 331.6 57.9 328.9 57.9 326.3 57.9 323.6 57.9 321 58.7 320.5 59.5 320 60.3 319.5 61.2 319.1 61.4 319.2 61.6 319.3 61.8 319.2 62 319.1 62 318.6 62 318.1 62 317.6 62 317.1 63.1 316.5 64.1 315.9 65.2 315.3 66.3 314.6 66.6 314.8 66.9 315 67.2 315.2 67.5 315.4 67.8 315.3 68.4 314.9 69 314.5 69.7 314.2 69.9 314.3 70.1 314.4 70.3 314.3 70.5 314.2 70.5 313.7 70.5 313.2 70.5 312.7 70.5 312.2 71.6 311.6 72.6 311 73.7 310.4 74.7 309.7 75 309.9 75.3 310 75.5 310.2 75.8 310.3 76 310.5 78 309.4 80.3 308 82.7 306.6 85 305.3 87.4 303.9 90.9 301.9 92.7 300.9 92.7 300.9 92.8 300.9 92.8 300.9 93.3 301.6 93.5 301.8 96.6 300.1 96.6 299.9 96.6 299.7 96.6 299.5 96.6 299.3 96.6 299.1 96.6 299 96.6 298.8 96.6 298.6 97.3 298.2 98 297.8 98.7 297.4 99.4 297 100.5 296.4 101.5 295.7 102.6 295.1 103.7 294.5 104.4 294.1 105.1 293.7 105.8 293.3 106.5 292.9 106.5 292.9 106.5 293 106.6 293 107.1 293.6 107.3 293.9 110.4 292.1 110.4 291.9 110.4 291.6 110.4 291.4 110.4 291.1 110.4 290.9 110.4 290.6 115.7 287.6 118 286.2 120.4 284.9 122.8 283.5 125.1 282.1 127.5 280.8 129.8 279.4 135.1 276.4 135.1 276.4 135.2 276.4 135.2 276.4 135.8 277.1 136 277.3 136.1 277.3 139 275.6 139 275.4 139 275.2 139 275 139 274.8 139 274.6 139 274.5 139 274.3 139 274.1 139.7 273.7 140.4 273.3 141.1 272.9 141.8 272.5 142.4 272.2 142.9 271.9 143.4 271.6 144 271.3 146.1 270 146.8 269.6 147.5 269.2 148.2 268.8 148.9 268.4 148.9 268.4 149 268.5 149 268.5 149.5 269.2 149.7 269.4 151.9 268.1 152.8 267.6 152.8 267.4 152.8 267.1 152.8 266.9 152.8 266.6 152.8 266.4 152.8 266.1 158.1 263.1 160.5 261.7 162.8 260.4 165.2 259 167.5 257.6 169.9 256.3 172.3 254.9 177.5 251.9 177.6 251.9 177.6 251.9 177.6 252 178.2 252.6 178.4 252.9 181.5 251.1 181.5 250.9 181.5 250.7 181.5 250.5 181.5 250.3 181.5 250.2 181.5 250 181.5 249.8 181.5 249.6 182.2 249.2 182.9 248.8 183.6 248.4 184.3 248 185.3 247.4 186.4 246.8 187.5 246.1 188.5 245.5 189.2 245.1 189.9 244.7 190.6 244.3 191.3 243.9 191.4 243.9 191.4 244 191.4 244 192 244.7 192.2 244.9 195.3 243.1 195.3 242.9 195.3 242.6 195.3 242.4 195.3 242.1 195.3 241.9 195.3 241.6 197 240.6 200.5 238.6 202.9 237.2 205.2 235.9 207.6 234.5 210 233.2 212.3 231.8 214.7 230.4 218.2 228.4 220 227.4 220 227.4 220 227.4 220.1 227.5 220.6 228.1 220.8 228.4 223.9 226.6 223.9 226.4 223.9 226.2 223.9 226 223.9 225.8 223.9 225.7 223.9 225.5 223.9 225.3 223.9 225.1 224.6 224.7 225.3 224.3 226 223.9 226.7 223.5 227.8 222.9 228.8 222.3 229.9 221.7 230.9 221 231.6 220.6 232.3 220.2 233 219.8 233.7 219.4 233.8 219.4 233.8 219.5 233.8 219.5 234.4 220.2 234.6 220.4 237.7 218.6 237.7 218.4 237.7 218.1 237.7 217.9 237.7 217.6 237.7 217.4 237.7 217.2 239.4 216.1 243 214.1 245.3 212.7 247.7 211.4 250 210 252.4 208.7 254.7 207.3 257.1 205.9 260.6 203.9 262.4 202.9 262.4 202.9 262.4 202.9 262.5 203 263 203.6 263.2 203.9 266.3 202.1 266.3 201.9 266.3 201.7 266.3 201.5 266.3 201.3 266.3 201.2 266.3 201 266.3 200.8 266.3 200.6 267 200.2 267.7 199.8 268.4 199.4 269.1 199 270.2 198.4 271.2 197.8 272.3 197.2 273.4 196.5 274.1 196.1 274.8 195.7 275.5 195.3 276.2 194.9 276.2 195 276.2 195 276.3 195 276.8 195.7 277 195.9 280.1 194.1 280.1 193.9 280.1 193.6 280.1 193.4 280.1 193.1 280.1 192.9 280.1 192.7 285.4 189.6 287.7 188.2 290.1 186.9 292.4 185.5 294.8 184.2 297.2 182.8 299.5 181.4 304.8 178.4 304.8 178.4 304.9 178.4 304.9 178.5 305.5 179.1 305.7 179.4 305.7 179.3 308.7 177.6 308.7 177.4 308.7 177.2 308.7 177 308.7 176.9 308.7 176.7 308.7 176.5 308.7 176.3 308.7 176.1 309.4 175.7 310.1 175.3 310.8 174.9 311.5 174.5 313.7 173.3 314.2 173 314.7 172.7 315.2 172.4 315.8 172.1 316.5 171.7 317.2 171.2 317.9 170.8 318.6 170.4 318.6 170.5 318.7 170.5 318.7 170.5 319.2 171.2 319.4 171.4 321.6 170.2 322.5 169.6 322.5 169.4 322.5 169.1 322.5 168.9 322.5 168.7 322.5 168.4 322.5 168.2 327.8 165.1 330.2 163.8 332.5 162.4 334.9 161 337.2 159.7 339.6 158.3 341.9 157 347.2 153.9 347.3 153.9 347.3 154 347.3 154 347.9 154.6 348.1 154.9 351.2 153.1 351.2 152.9 351.2 152.7 351.2 152.5 351.2 152.4 351.2 152.2 351.2 152 351.2 151.8 351.2 151.6 351.9 151.2 352.6 150.8 353.3 150.4 354 150 355 149.4 356.1 148.8 357.1 148.2 358.2 147.6 358.9 147.2 359.6 146.8 360.3 146.4 361 145.9 361 146 361.1 146 361.1 146 361.7 146.7 361.9 146.9 364.9 145.1 364.9 144.9 364.9 144.7 364.9 144.4 364.9 144.2 364.9 143.9 364.9 143.7 366.7 142.7 370.2 140.6 372.6 139.3 374.9 137.9 377.3 136.5 379.7 135.2 382 133.8 382.2 133.9 382.5 134.1 382.7 133.9 382.9 133.8 382.9 133.3 382.9 132.8 382.9 132.3 382.9 131.8 383.9 131.2 385 130.6 386.1 130 387.1 129.4 387.4 129.6 387.8 129.8 388.1 129.9 388.4 130.1 388.6 130 389.2 129.6 389.9 129.3 390.5 128.9 390.7 129 390.9 129.2 391.1 129 391.4 128.9 391.4 128.4 391.4 127.9 391.4 127.4 391.4 126.9 392.4 126.3 393.5 125.7 394.5 125.1 395.6 124.5 395.9 124.7 396.2 124.9 396.6 125.1 396.9 125.2 397.3 125 398.1 124.5 398.9 124 399.8 123.6 400.2 123.8 400.6 124 401 124.3 402.1 124.9 403.1 125.5 404.2 126.1 405.2 126.7 405.2 126.8 405.2 126.8 405.2 126.8 404.9 127.7 404.6 128.5 404.3 129.3 404 130.1 404 130.2 404.1 130.3 404.1 130.4 404.2 130.5 404.2 130.6 404.3 130.7 404.4 130.8 404.4 130.8 405.7 131.6 405.7 131.9 405.8 132.3 405.9 132.4 406.1 132.5 407.1 133.1 408.1 133.6 408.4 133.5 408.7 133.3 408.8 133.4 408.8 133.3 408.5 132.2 408.2 131 407.9 129.9 407.9 129.8 407.9 129.8 407.9 129.7 408.1 129.6 408.2 129.5 408.4 129.4 408.5 129.4 408.7 129.3 408.9 129.2 409 129.1 409.2 129 411.6 130.4 414.1 131.8 416.6 133.3 419 134.7 419 134.7 419 134.8 419 134.8 418.7 135.6 418.4 136.4 418.1 137.2 417.8 138.1 417.8 138.1 417.8 138.3 417.9 138.4 417.9 138.5 418 138.6 418.1 138.7 418.2 138.7 418.2 138.8 419.5 139.5 419.5 139.9 419.6 140.2 419.7 140.3 421.8 141.6 422.2 141.4 422.5 141.2 422.6 141.3 422.6 141.3 422.3 140.1 422 139 421.7 137.8 421.7 137.8 421.7 137.7 421.7 137.7 421.8 137.6 422 137.5 422.2 137.4 422.3 137.3 422.5 137.2 422.6 137.1 422.8 137 423 136.9 425.4 138.4 427.9 139.8 430.3 141.2 432.8 142.6 432.8 142.7 432.8 142.7 432.8 142.8 432.5 143.6 432.2 144.4 431.9 145.2 431.6 146 431.6 146.1 431.6 146.2 431.7 146.3 431.7 146.4 431.8 146.5 431.8 146.6 431.9 146.7 432 146.7 432.6 147.1 433.3 147.5 433.3 147.8 433.4 148.2 433.4 148.3 433.6 148.4 434.6 149 435.1 149.2 436.2 148.6 436.1 148.1 435.8 146.9 435.5 145.8 435.5 145.7 435.5 145.7 435.5 145.6 435.6 145.5 435.8 145.5 435.9 145.4 436.1 145.3 436.3 145.2 436.4 145.1 436.6 145 436.7 144.9 437.8 145.5 438.8 146.1 439.9 146.7 440.9 147.3 442.2 148.1 442.2 158.7 442.2 162.1 442.2 165.5 442.2 168.9 442.2 172.3 442.2 175.7 442.2 179.1 441.8 179.3 441.3 179.6 440.9 179.8 430.3 173.7 422.8 178 422.8 178.5 423.2 178.8 423.2 190 409.1 198.2 387.9 210.4 356.1 228.8 186.4 326.8 154.6 345.1 133.4 357.4 119.2 365.5 117.9 364.8 117.9 356.6 110.9 360.7 109.6 360"/><line class="cls-2" x1="152.8" y1="266.1" x2="152.8" y2="267.6"/><path class="cls-2" d="M135.1,276.4h.1"/><path class="cls-2" d="M137.4,279.1h.9"/><path class="cls-2" d="M138.3,279.1l1.3-.7"/><line class="cls-2" x1="143.8" y1="275.4" x2="143.8" y2="275.9"/><path class="cls-2" d="M139.2,274.2H139"/><line class="cls-2" x1="139" y1="274.1" x2="139" y2="275.6"/><path class="cls-2" d="M139.2,275.6H139"/><path class="cls-2" d="M139,274.1l2.8-1.6"/><path class="cls-2" d="M144.4,273l-.4-.3"/><line class="cls-2" x1="144" y1="272.7" x2="144" y2="273.2"/><path class="cls-2" d="M146.5,271.2l.4.3"/><path class="cls-2" d="M146.1,270l2.8-1.6"/><path class="cls-2" d="M148.9,268.4h.1"/><path class="cls-2" d="M151.2,271.1a.7.7,0,0,0,.9,0"/><path class="cls-2" d="M152.1,271.1l1.2-.7"/><path class="cls-2" d="M157.6,268c.1-.1.2-.2.2-.3"/><line class="cls-2" x1="157.6" y1="267.5" x2="157.6" y2="268"/><path class="cls-2" d="M153,266.2h-.2"/><path class="cls-2" d="M153,267.7h-.2"/><line class="cls-2" x1="156.3" y1="268.7" x2="156.3" y2="269.4"/><line class="cls-2" x1="156.3" y1="269.4" x2="154.1" y2="270.7"/><path class="cls-2" d="M209.5,235.6l.2.3"/><path class="cls-2" d="M209.4,236.2l-.7.2"/><path class="cls-2" d="M212,238.9a1,1,0,0,0,.9-.1"/><path class="cls-2" d="M212.9,238.8c.5-.5.9-1.1,1.4-1.7"/><path class="cls-2" d="M214.3,237.1a.8.8,0,0,1,.9,0"/><path class="cls-2" d="M215.2,237.1l3.5,1.9"/><path class="cls-2" d="M218.7,239c0,.1.1.2.1.3"/><path class="cls-2" d="M218.9,242.9a1.1,1.1,0,0,0,1-.1"/><path class="cls-2" d="M219.9,242.8l1.3-1.6"/><path class="cls-2" d="M221.2,241.2a.8.8,0,0,1,1-.1"/><path class="cls-2" d="M222.2,241.1l3.4,1.9"/><path class="cls-2" d="M225.6,243c.1.1.2.2.2.3"/><path class="cls-2" d="M228.1,245.1a.9.9,0,0,1,1,0"/><path class="cls-2" d="M203.1,239.1l-.4-.3"/><line class="cls-2" x1="202.7" y1="238.8" x2="202.7" y2="239.3"/><path class="cls-2" d="M206.3,236.8l.4.2"/><path class="cls-2" d="M207.5,236.5l-.4-.2"/><line class="cls-2" x1="207.1" y1="236.3" x2="207.1" y2="236.8"/><line class="cls-2" x1="195.3" y1="241.6" x2="195.3" y2="243.1"/><path class="cls-2" d="M177.5,251.9h.1"/><path class="cls-2" d="M179.9,254.6h.8"/><path class="cls-2" d="M180.7,254.6l1.3-.7"/><path class="cls-2" d="M186.2,251.4a.2.2,0,0,0,.2-.2"/><line class="cls-2" x1="186.2" y1="250.9" x2="186.2" y2="251.4"/><path class="cls-2" d="M181.6,249.7h-.1"/><line class="cls-2" x1="181.5" y1="249.6" x2="181.5" y2="251.1"/><path class="cls-2" d="M181.6,251.1h-.1"/><path class="cls-2" d="M181.5,249.6l2.8-1.6"/><path class="cls-2" d="M186.8,248.5l-.4-.3"/><line class="cls-2" x1="186.4" y1="248.2" x2="186.4" y2="248.7"/><path class="cls-2" d="M188.9,246.8l.5.2"/><path class="cls-2" d="M188.5,245.5l2.8-1.6"/><path class="cls-2" d="M191.3,243.9h.1"/><path class="cls-2" d="M193.6,246.7a1.4,1.4,0,0,0,.9,0"/><path class="cls-2" d="M194.5,246.7l1.3-.8"/><path class="cls-2" d="M200,243.5c.1-.1.2-.2.2-.3"/><line class="cls-2" x1="200" y1="243" x2="200" y2="243.5"/><path class="cls-2" d="M195.4,241.7h-.1"/><path class="cls-2" d="M195.4,243.2h-.1"/><line class="cls-2" x1="184.9" y1="252.2" x2="184.9" y2="252.9"/><line class="cls-2" x1="184.9" y1="252.9" x2="182.8" y2="254.2"/><line class="cls-2" x1="198.7" y1="244.2" x2="198.7" y2="244.9"/><line class="cls-2" x1="198.7" y1="244.9" x2="196.5" y2="246.2"/><path class="cls-2" d="M160.7,263.6l-.5-.3"/><line class="cls-2" x1="160.2" y1="263.3" x2="160.2" y2="263.8"/><path class="cls-2" d="M163.8,261.3l.5.2"/><path class="cls-2" d="M169.5,258.5l-.4-.3"/><line class="cls-2" x1="169.1" y1="258.2" x2="169.1" y2="258.7"/><path class="cls-2" d="M172.7,256.1l.4.3"/><line class="cls-2" x1="164.7" y1="260.8" x2="164.7" y2="261.3"/><path class="cls-2" d="M168.2,258.7l.4.3"/><path class="cls-2" d="M88.3,305.4l-.5-.3"/><line class="cls-2" x1="81.6" y1="308.7" x2="81.6" y2="310.2"/><line class="cls-2" x1="92" y1="312.8" x2="92" y2="313.3"/><path class="cls-2" d="M92,312.8l.8.5"/><path class="cls-2" d="M92.8,313.3l-.4.2"/><line class="cls-2" x1="104.4" y1="321.9" x2="104.4" y2="323.4"/><line class="cls-2" x1="110.4" y1="290.6" x2="110.4" y2="292.1"/><path class="cls-2" d="M92.7,300.9h.1"/><path class="cls-2" d="M95,303.6h.9"/><path class="cls-2" d="M95.9,303.6l1.2-.7"/><line class="cls-2" x1="101.4" y1="299.9" x2="101.4" y2="300.4"/><path class="cls-2" d="M96.8,298.6h-.2"/><line class="cls-2" x1="96.6" y1="298.6" x2="96.6" y2="300.1"/><path class="cls-2" d="M96.8,300.1h-.2"/><path class="cls-2" d="M96.6,298.6l2.8-1.6"/><path class="cls-2" d="M102,297.5l-.5-.3"/><line class="cls-2" x1="101.5" y1="297.2" x2="101.5" y2="297.7"/><path class="cls-2" d="M104.1,295.7l.4.3"/><path class="cls-2" d="M103.7,294.5l2.8-1.6"/><path class="cls-2" d="M106.5,292.9h.1"/><path class="cls-2" d="M108.8,295.6a.6.6,0,0,0,.8,0"/><path class="cls-2" d="M109.6,295.6l1.3-.7"/><path class="cls-2" d="M115.2,292.5c0-.1.1-.2.1-.3"/><line class="cls-2" x1="115.2" y1="292" x2="115.2" y2="292.5"/><path class="cls-2" d="M110.5,290.7h-.1"/><path class="cls-2" d="M110.5,292.2h-.1"/><line class="cls-2" x1="100.1" y1="301.1" x2="100.1" y2="301.9"/><line class="cls-2" x1="100.1" y1="301.9" x2="97.9" y2="303.1"/><line class="cls-2" x1="113.9" y1="293.2" x2="113.9" y2="293.9"/><line class="cls-2" x1="113.9" y1="293.9" x2="111.7" y2="295.2"/><path class="cls-2" d="M118.2,288.1l-.4-.3"/><line class="cls-2" x1="117.8" y1="287.8" x2="117.8" y2="288.3"/><path class="cls-2" d="M121.4,285.7l.4.3"/><path class="cls-2" d="M122.7,285.5l-.4-.2"/><path class="cls-2" d="M127.1,283l-.5-.3"/><line class="cls-2" x1="126.6" y1="282.7" x2="126.6" y2="283.2"/><path class="cls-2" d="M130.3,280.6l.4.3"/><line class="cls-2" x1="122.3" y1="285.3" x2="122.3" y2="285.7"/><path class="cls-2" d="M125.8,283.2l.4.3"/><line class="cls-2" x1="152.8" y1="266.1" x2="158.1" y2="263.1"/><path class="cls-2" d="M195.3,241.6l5.2-3"/><path class="cls-2" d="M87.4,303.9l5.3-3"/><line class="cls-2" x1="129.8" y1="279.4" x2="135.1" y2="276.4"/><line class="cls-2" x1="172.2" y1="254.9" x2="177.5" y2="251.9"/><line class="cls-2" x1="110.4" y1="290.6" x2="115.7" y2="287.6"/><path class="cls-2" d="M157.8,267.7l-.2-.2"/><line class="cls-2" x1="156.9" y1="269.6" x2="156.9" y2="269.8"/><path class="cls-2" d="M156.9,269.6a1.1,1.1,0,0,0-.6-.9"/><path class="cls-2" d="M218.8,239.3a.3.3,0,0,1-.3.3"/><path class="cls-2" d="M215.3,240.7a.2.2,0,0,0,.2.2"/><path class="cls-2" d="M225.8,243.3c0,.2-.2.3-.4.3"/><path class="cls-2" d="M222.2,244.7a.2.2,0,0,0,.2.2"/><path class="cls-2" d="M186.4,251.2l-.2-.3"/><path class="cls-2" d="M200.2,243.2l-.2-.2"/><line class="cls-2" x1="199.3" y1="245.1" x2="199.3" y2="245.3"/><path class="cls-2" d="M199.3,245.1a1.1,1.1,0,0,0-.6-.9"/><path class="cls-2" d="M101.5,300.2a.4.4,0,0,0-.1-.3"/><path class="cls-2" d="M115.3,292.2V292"/><path class="cls-2" d="M114.5,294.1a1.1,1.1,0,0,0-.6-.9"/><path class="cls-2" d="M186.4,319.9a.8.8,0,0,1,.4-.7"/><path class="cls-2" d="M186.8,319.2l3.6-.6"/><path class="cls-2" d="M190.4,318.6a1.2,1.2,0,0,0,.4-.8"/><path class="cls-2" d="M190.8,311.5a1,1,0,0,0-.1-.3"/><path class="cls-2" d="M186.4,308.1a1.2,1.2,0,0,1,.4-.8"/><line class="cls-2" x1="122.8" y1="332.5" x2="122.8" y2="324.3"/><line class="cls-2" x1="122.8" y1="324.3" x2="121.5" y2="323.6"/><line class="cls-2" x1="122.8" y1="332.5" x2="121.5" y2="331.7"/><line class="cls-2" x1="119.2" y1="365.5" x2="117.9" y2="364.8"/><line class="cls-2" x1="119.2" y1="354.3" x2="118.4" y2="353.8"/><line class="cls-2" x1="119.2" y1="354.3" x2="119.6" y2="354"/><line class="cls-2" x1="119.6" y1="354" x2="118.8" y2="353.5"/><line class="cls-2" x1="119.6" y1="354" x2="119.6" y2="353.1"/><line class="cls-2" x1="101.5" y1="356.3" x2="102" y2="356.1"/><line class="cls-2" x1="102" y1="356.1" x2="101.5" y2="355.8"/><line class="cls-2" x1="100.3" y1="345.5" x2="99" y2="344.7"/><line class="cls-2" x1="104.4" y1="343.5" x2="103.2" y2="342.8"/><polyline class="cls-2" points="104.4 343.5 104.4 343.1 104.4 341.6"/><line class="cls-2" x1="104.4" y1="341.6" x2="103.2" y2="340.9"/><polyline class="cls-2" points="103.2 342.8 103.2 342.3 103.2 340.9"/><line class="cls-2" x1="108.7" y1="339.1" x2="107.4" y2="338.4"/><line class="cls-2" x1="103.2" y1="340.9" x2="107.4" y2="338.4"/><line class="cls-2" x1="108.7" y1="341.1" x2="109.5" y2="340.6"/><line class="cls-2" x1="109.5" y1="340.6" x2="108.7" y2="340.1"/><line class="cls-2" x1="109.5" y1="340.6" x2="109.5" y2="340.1"/><line class="cls-2" x1="109.5" y1="340.1" x2="108.7" y2="339.6"/><line class="cls-2" x1="112.1" y1="338.6" x2="112.1" y2="339.1"/><line class="cls-2" x1="112.1" y1="339.1" x2="112.9" y2="338.6"/><line class="cls-2" x1="112.9" y1="338.6" x2="111.7" y2="337.9"/><polyline class="cls-2" points="112.9 338.6 112.9 338.2 112.9 336.7"/><line class="cls-2" x1="112.9" y1="336.7" x2="111.7" y2="336"/><polyline class="cls-2" points="111.7 337.9 111.7 337.4 111.7 336"/><line class="cls-2" x1="117.2" y1="334.2" x2="115.9" y2="333.5"/><line class="cls-2" x1="118" y1="335.7" x2="118" y2="335.2"/><path class="cls-2" d="M101.5,348v-.2"/><path class="cls-2" d="M131.4,337.3a2.8,2.8,0,0,0,1.2-1.6,1.5,1.5,0,0,0,.2-.9,1.1,1.1,0,0,0-.4-.9"/><path class="cls-2" d="M130.1,336.5a3.2,3.2,0,0,0,1.5-2.6"/><path class="cls-2" d="M131.4,334l-4.2,2.5"/><path class="cls-2" d="M127.2,339.7l4.2-2.4"/><path class="cls-2" d="M125.9,339l4.2-2.5"/><line class="cls-2" x1="119.6" y1="343.6" x2="119.6" y2="344.1"/><line class="cls-2" x1="118.8" y1="345.5" x2="119.2" y2="345.3"/><line class="cls-2" x1="119.2" y1="345.3" x2="118.8" y2="345.1"/><line class="cls-2" x1="119.6" y1="350.3" x2="120.5" y2="349.8"/><line class="cls-2" x1="120.5" y1="349.8" x2="120.1" y2="349.5"/><line class="cls-2" x1="120.5" y1="349.8" x2="120.5" y2="349.3"/><polyline class="cls-2" points="186.4 326.8 154.6 345.1 133.4 357.4 119.2 365.5"/><path class="cls-2" d="M101,352.6c.1.1.3,0,.4-.1a.6.6,0,0,0,.1-.4"/><path class="cls-2" d="M126.2,339.8a.9.9,0,0,0,1-.1"/><line class="cls-2" x1="102.7" y1="343.1" x2="103.2" y2="342.8"/><line class="cls-2" x1="108.7" y1="339.1" x2="110.8" y2="337.9"/><line class="cls-2" x1="111.2" y1="338.2" x2="111.7" y2="337.9"/><path class="cls-2" d="M125.8,339.1a.1.1,0,0,1,.1-.1"/><path class="cls-2" d="M62.1,327.5a.8.8,0,0,0,.4.7"/><path class="cls-2" d="M63.4,326.8a1,1,0,0,0,.4.7"/><line class="cls-2" x1="62.1" y1="327.5" x2="63.4" y2="326.8"/><path class="cls-2" d="M62.5,328.2l1.3.8"/><path class="cls-2" d="M68,331.4h.3"/><path class="cls-2" d="M67.3,326.5h0"/><line class="cls-2" x1="67.3" y1="326.4" x2="68.5" y2="325.7"/><path class="cls-2" d="M77.1,332.1h0"/><path class="cls-2" d="M78.4,331.3v.2"/><path class="cls-2" d="M75.9,335.5a1,1,0,0,0,.4.7"/><path class="cls-2" d="M77.2,334.7a.9.9,0,0,0,.4.8"/><path class="cls-2" d="M57.9,352V331.6"/><path class="cls-2" d="M59.5,331.6l-.4-.3"/><line class="cls-2" x1="59.1" y1="330" x2="59.5" y2="329.8"/><path class="cls-2" d="M59.1,330l.4.3"/><path class="cls-2" d="M59.5,329.3l-.4-.2"/><path class="cls-2" d="M59.5,324.2l-.4-.2"/><line class="cls-2" x1="59.1" y1="321.7" x2="60.4" y2="321"/><line class="cls-2" x1="63.3" y1="324.1" x2="64.6" y2="323.4"/><path class="cls-2" d="M60.4,321l4.2,2.4"/><path class="cls-2" d="M63.3,324.1v.2"/><line class="cls-2" x1="63.3" y1="324.3" x2="64.6" y2="323.5"/><path class="cls-2" d="M64.6,323.4h0"/><path class="cls-2" d="M63.3,324.3l-1.2,3.2"/><path class="cls-2" d="M64.6,323.5l-1.2,3.3"/><path class="cls-2" d="M64.4,328.6a3.1,3.1,0,0,0,.7,1.8,2.3,2.3,0,0,0,1.5,1"/><line class="cls-2" x1="66.8" y1="330.7" x2="67.4" y2="330.3"/><line class="cls-2" x1="67.4" y1="330.3" x2="64.4" y2="328.6"/><line class="cls-2" x1="64.4" y1="328.6" x2="63.8" y2="329"/><path class="cls-2" d="M59.1,325l.4.2"/><path class="cls-2" d="M96,347.1a.4.4,0,0,1-.1.3"/><path class="cls-2" d="M90.1,344.2a1.2,1.2,0,0,1-.4-.8"/><line class="cls-2" x1="89.7" y1="343.4" x2="90.9" y2="342.7"/><path class="cls-2" d="M91.4,343.4a.8.8,0,0,1-.5-.7"/><path class="cls-2" d="M89.7,343.4l1.2-3.2"/><path class="cls-2" d="M90.9,340.2V340"/><path class="cls-2" d="M92.1,339.4h0"/><path class="cls-2" d="M81,334.4h0"/><path class="cls-2" d="M82.2,339.1c0,.1,0,.3-.1.3"/><line class="cls-2" x1="100.3" y1="376.5" x2="101.5" y2="375.8"/><line class="cls-2" x1="98.6" y1="355.1" x2="99" y2="354.9"/><line class="cls-2" x1="101.5" y1="355.3" x2="101.5" y2="355.3"/><path class="cls-2" d="M98.6,355.1v-1"/><path class="cls-2" d="M98.6,354.1l.4.3"/><line class="cls-2" x1="98.6" y1="352.8" x2="99" y2="352.6"/><line class="cls-2" x1="98.6" y1="347.7" x2="99" y2="347.5"/><path class="cls-2" d="M101.5,348l-.3-.2"/><path class="cls-2" d="M98.6,347.7v-.9"/><path class="cls-2" d="M98.6,346.8l.4.2"/><path class="cls-2" d="M100.3,344l-4.2-2.4"/><path class="cls-2" d="M94.8,342.3v.2"/><line class="cls-2" x1="80.5" y1="338.6" x2="81.2" y2="338.3"/><path class="cls-2" d="M91.4,344.9a3.2,3.2,0,0,0,.7,1.9,2.7,2.7,0,0,0,.8.7,1.7,1.7,0,0,0,1,.1"/><line class="cls-2" x1="91.4" y1="344.9" x2="92" y2="344.5"/><line class="cls-2" x1="92" y1="344.5" x2="95" y2="346.2"/><line class="cls-2" x1="95" y1="346.2" x2="94.3" y2="346.6"/><path class="cls-2" d="M91.4,344.9l-1.3-.7"/><line class="cls-2" x1="100.9" y1="352.4" x2="101.5" y2="352.1"/><line class="cls-2" x1="100.9" y1="348.4" x2="101.5" y2="348"/><line class="cls-2" x1="57.9" y1="352" x2="100.3" y2="376.5"/><path class="cls-2" d="M68.3,331.5c.1-.1.2-.2.2-.3"/><path class="cls-2" d="M66.3,331.7a1.7,1.7,0,0,1-1-.1l-.8-.7a3.2,3.2,0,0,1-.7-1.9"/><path class="cls-2" d="M95.9,347.4h-.3"/><path class="cls-2" d="M82.1,339.4c-.1.1-.2,0-.3,0"/><line class="cls-2" x1="59.5" y1="324.7" x2="59.1" y2="325"/><path class="cls-2" d="M95.7,345.9l-4.3-2.5"/><path class="cls-2" d="M94.2,347.3a2.3,2.3,0,0,1-1.6-1,3.9,3.9,0,0,1-.6-1.8"/><path class="cls-2" d="M99,355.3l-.4-.2"/><line class="cls-2" x1="100.9" y1="348.4" x2="100.9" y2="348.4"/><path class="cls-2" d="M99,348l-.4-.3"/><line class="cls-2" x1="100.3" y1="356.1" x2="99" y2="355.3"/><path class="cls-2" d="M133,316.9h0"/><path class="cls-2" d="M165.1,261l-.4-.2"/><line class="cls-2" x1="364.9" y1="143.7" x2="364.9" y2="145.1"/><path class="cls-2" d="M364.9,143.7h.2"/><path class="cls-2" d="M364.9,145.1h.2"/><line class="cls-2" x1="369.7" y1="145" x2="369.7" y2="145.5"/><path class="cls-2" d="M369.7,145c.1.1.2.1.2.3"/><path class="cls-2" d="M364.2,148.7a1.4,1.4,0,0,1-.9,0"/><path class="cls-2" d="M361.1,146H361"/><path class="cls-2" d="M361,145.9l-2.8,1.7"/><path class="cls-2" d="M359,149l-.4-.2"/><line class="cls-2" x1="356.1" y1="150.3" x2="356.1" y2="150.7"/><path class="cls-2" d="M356.1,150.3l.4.2"/><path class="cls-2" d="M355.7,151l-.5-.3"/><path class="cls-2" d="M354,150l-2.8,1.6"/><line class="cls-2" x1="351.2" y1="151.6" x2="351.2" y2="153.1"/><path class="cls-2" d="M351.2,151.6h.1"/><path class="cls-2" d="M351.2,153.1h.1"/><line class="cls-2" x1="355.9" y1="153" x2="355.9" y2="153.5"/><path class="cls-2" d="M355.9,153l.2.2"/><path class="cls-2" d="M350.4,156.6a.7.7,0,0,1-.9,0"/><path class="cls-2" d="M347.3,154h-.1"/><path class="cls-2" d="M368.4,146.2a1.1,1.1,0,0,1,.6.9"/><line class="cls-2" x1="368.4" y1="147" x2="368.4" y2="146.2"/><path class="cls-2" d="M365.4,148l-1.2.7"/><line class="cls-2" x1="354.6" y1="154.9" x2="354.6" y2="154.2"/><path class="cls-2" d="M351.7,155.9l-1.3.7"/><line class="cls-2" x1="280.1" y1="192.7" x2="280.1" y2="194.1"/><path class="cls-2" d="M280.1,192.7h.1"/><path class="cls-2" d="M280.1,194.1h.1"/><line class="cls-2" x1="284.8" y1="194" x2="284.8" y2="194.5"/><path class="cls-2" d="M284.8,194l.2.2"/><path class="cls-2" d="M279.3,197.7a1.1,1.1,0,0,1-.8,0"/><path class="cls-2" d="M276.3,195h-.1"/><path class="cls-2" d="M276.2,194.9l-2.8,1.6"/><path class="cls-2" d="M274.2,198l-.4-.2"/><line class="cls-2" x1="271.2" y1="199.2" x2="271.2" y2="199.7"/><path class="cls-2" d="M271.2,199.2l.5.3"/><path class="cls-2" d="M270.8,200l-.4-.3"/><path class="cls-2" d="M269.1,199l-2.8,1.6"/><line class="cls-2" x1="266.3" y1="200.6" x2="266.3" y2="202.1"/><path class="cls-2" d="M266.3,200.6h.2"/><path class="cls-2" d="M266.3,202.1h.2"/><line class="cls-2" x1="271.1" y1="202" x2="271.1" y2="202.4"/><path class="cls-2" d="M271.1,202v.2"/><path class="cls-2" d="M265.5,205.6a.6.6,0,0,1-.8,0"/><path class="cls-2" d="M262.5,203h-.1"/><path class="cls-2" d="M283.6,195.2a1.1,1.1,0,0,1,.6.9"/><line class="cls-2" x1="283.6" y1="196" x2="283.6" y2="195.2"/><path class="cls-2" d="M280.6,196.9l-1.3.8"/><line class="cls-2" x1="269.8" y1="203.9" x2="269.8" y2="203.2"/><path class="cls-2" d="M266.8,204.9l-1.3.7"/><path class="cls-2" d="M300.4,182.9l-.5-.2"/><line class="cls-2" x1="296.3" y1="184.8" x2="296.3" y2="185.2"/><path class="cls-2" d="M296.3,184.8l.5.2"/><path class="cls-2" d="M295.9,185.5l-.4-.3"/><path class="cls-2" d="M291.5,188l-.4-.2"/><line class="cls-2" x1="287.5" y1="189.9" x2="287.5" y2="190.3"/><path class="cls-2" d="M287.5,189.9l.4.2"/><path class="cls-2" d="M292,187.3l.4.2"/><line class="cls-2" x1="322.5" y1="168.2" x2="322.5" y2="169.6"/><path class="cls-2" d="M322.5,168.2h.2"/><path class="cls-2" d="M322.5,169.6h.2"/><line class="cls-2" x1="327.3" y1="169.5" x2="327.3" y2="170"/><path class="cls-2" d="M327.3,169.5c.1.1.1.1.1.3"/><path class="cls-2" d="M321.7,173.2a1.1,1.1,0,0,1-.8,0"/><path class="cls-2" d="M318.7,170.5h-.1"/><path class="cls-2" d="M318.6,170.4l-2.8,1.7"/><path class="cls-2" d="M316.6,173.5l-.4-.2"/><line class="cls-2" x1="313.7" y1="174.7" x2="313.7" y2="175.2"/><path class="cls-2" d="M313.7,174.7l.4.3"/><path class="cls-2" d="M311.5,174.5l-2.8,1.6"/><line class="cls-2" x1="308.7" y1="176.1" x2="308.7" y2="177.6"/><path class="cls-2" d="M308.7,176.1h.2"/><path class="cls-2" d="M308.7,177.6h.2"/><line class="cls-2" x1="313.5" y1="177.5" x2="313.5" y2="178"/><path class="cls-2" d="M308,181.1a.7.7,0,0,1-.9,0"/><path class="cls-2" d="M304.9,178.5h-.1"/><path class="cls-2" d="M326,170.7a1.1,1.1,0,0,1,.6.9"/><line class="cls-2" x1="326" y1="171.5" x2="326" y2="170.7"/><path class="cls-2" d="M323,172.4l-1.3.8"/><path class="cls-2" d="M312.2,178.7c.3.2.6.5.6.8"/><line class="cls-2" x1="312.2" y1="179.4" x2="312.2" y2="178.7"/><path class="cls-2" d="M309.2,180.4l-1.2.7"/><path class="cls-2" d="M342.8,158.4l-.4-.2"/><line class="cls-2" x1="338.8" y1="160.3" x2="338.8" y2="160.7"/><path class="cls-2" d="M338.8,160.3l.4.2"/><path class="cls-2" d="M338.3,161l-.4-.3"/><path class="cls-2" d="M333.9,163.5l-.4-.2"/><line class="cls-2" x1="329.9" y1="165.4" x2="329.9" y2="165.9"/><path class="cls-2" d="M329.9,165.4l.4.2"/><path class="cls-2" d="M334.4,162.8l.4.2"/><path class="cls-2" d="M251.8,211.7l-.7.2"/><path class="cls-2" d="M258.1,215.9h-.2"/><path class="cls-2" d="M271.9,223.9h-.1"/><path class="cls-2" d="M257.9,207.4a.5.5,0,0,0-.4-.2"/><line class="cls-2" x1="253.9" y1="209.2" x2="253.9" y2="209.7"/><path class="cls-2" d="M253.9,209.2l.4.3"/><path class="cls-2" d="M253.5,210l-.4-.3"/><path class="cls-2" d="M372.8,141.1l-.5-.2"/><line class="cls-2" x1="372.3" y1="140.9" x2="372.3" y2="141.4"/><line class="cls-2" x1="372.3" y1="140.9" x2="378.6" y2="137.3"/><path class="cls-2" d="M386.4,143.8l.4-.3"/><line class="cls-2" x1="399.3" y1="150.7" x2="399.3" y2="151.2"/><path class="cls-2" d="M399.3,150.7l-.4.3"/><line class="cls-2" x1="347.2" y1="153.9" x2="341.9" y2="157"/><path class="cls-2" d="M262.4,202.9l-5.3,3"/><line class="cls-2" x1="285.4" y1="189.6" x2="280.1" y2="192.7"/><line class="cls-2" x1="304.8" y1="178.4" x2="299.5" y2="181.4"/><path class="cls-2" d="M370.2,140.6l-5.3,3.1"/><line class="cls-2" x1="327.8" y1="165.1" x2="322.5" y2="168.2"/><path class="cls-2" d="M369.9,145.3a.2.2,0,0,1-.2.2"/><path class="cls-2" d="M356.1,153.2c0,.1-.1.2-.2.3"/><path class="cls-2" d="M285,194.2c0,.2-.1.2-.2.3"/><path class="cls-2" d="M271.2,202.2a.3.3,0,0,1-.1.2"/><path class="cls-2" d="M327.4,169.8v.2"/><line class="cls-2" x1="326.6" y1="171.6" x2="326.6" y2="171.8"/><path class="cls-2" d="M268.2,218.8l-.2.3"/><line class="cls-2" x1="366.2" y1="148.2" x2="368.4" y2="147"/><line class="cls-2" x1="352.4" y1="156.2" x2="354.6" y2="154.9"/><line class="cls-2" x1="281.4" y1="197.2" x2="283.6" y2="196"/><line class="cls-2" x1="267.6" y1="205.2" x2="269.8" y2="203.9"/><line class="cls-2" x1="292" y1="187.8" x2="292" y2="187.3"/><line class="cls-2" x1="323.8" y1="172.7" x2="326" y2="171.5"/><line class="cls-2" x1="310" y1="180.7" x2="312.2" y2="179.4"/><path class="cls-2" d="M99,353.1l-.4-.3"/><path class="cls-2" d="M101.5,352.1V348"/><line class="cls-2" x1="142.7" y1="276.6" x2="142.6" y2="276.6"/><path class="cls-2" d="M101.4,300.4c.1,0,.1-.1.1-.2"/><path class="cls-2" d="M100.9,352.4c0,.1,0,.2.1.2"/><line class="cls-2" x1="118.8" y1="350.3" x2="119.2" y2="350"/><path class="cls-2" d="M302.7,219l-.5-.3"/><path class="cls-2" d="M313.3,212.9l-.5-.3"/><path class="cls-2" d="M323.9,206.7l-.4-.2"/><path class="cls-2" d="M334.5,200.6l-.4-.2"/><line class="cls-2" x1="192.2" y1="282.8" x2="191.7" y2="282.5"/><line class="cls-2" x1="192.2" y1="282.8" x2="192.2" y2="282.3"/><line class="cls-2" x1="206.4" y1="274.1" x2="206.4" y2="274.6"/><line class="cls-2" x1="202.8" y1="276.7" x2="202.8" y2="276.2"/><line class="cls-2" x1="323" y1="206.7" x2="323" y2="207.2"/><line class="cls-2" x1="319.4" y1="209.3" x2="319.4" y2="208.8"/><line class="cls-2" x1="330" y1="203.2" x2="329.6" y2="202.9"/><line class="cls-2" x1="330" y1="203.2" x2="330" y2="202.7"/><line class="cls-2" x1="340.6" y1="196.6" x2="340.6" y2="197.1"/><line class="cls-2" x1="340.6" y1="197.1" x2="340.2" y2="196.8"/><line class="cls-2" x1="345.1" y1="194" x2="345.1" y2="194.5"/><line class="cls-2" x1="312.4" y1="212.9" x2="312.4" y2="213.3"/><line class="cls-2" x1="301.8" y1="219" x2="301.8" y2="219.5"/><line class="cls-2" x1="298.2" y1="221.6" x2="297.8" y2="221.3"/><line class="cls-2" x1="280.6" y1="231.2" x2="280.6" y2="231.7"/><line class="cls-2" x1="277" y1="233.8" x2="276.6" y2="233.6"/><line class="cls-2" x1="277" y1="233.8" x2="277" y2="233.3"/><line class="cls-2" x1="291.2" y1="225.1" x2="291.2" y2="225.6"/><line class="cls-2" x1="287.6" y1="227.7" x2="287.6" y2="227.2"/><line class="cls-2" x1="270" y1="237.3" x2="270" y2="237.8"/><line class="cls-2" x1="266.4" y1="239.9" x2="266" y2="239.7"/><line class="cls-2" x1="266.4" y1="239.9" x2="266.4" y2="239.4"/><line class="cls-2" x1="259.4" y1="243.5" x2="259.4" y2="244"/><line class="cls-2" x1="255.8" y1="246" x2="255.4" y2="245.8"/><line class="cls-2" x1="238.2" y1="255.7" x2="238.2" y2="256.2"/><line class="cls-2" x1="234.6" y1="258.3" x2="234.2" y2="258"/><line class="cls-2" x1="234.6" y1="258.3" x2="234.6" y2="257.8"/><line class="cls-2" x1="248.8" y1="249.6" x2="248.8" y2="250.1"/><line class="cls-2" x1="245.2" y1="252.2" x2="244.8" y2="251.9"/><line class="cls-2" x1="245.2" y1="252.2" x2="245.2" y2="251.7"/><line class="cls-2" x1="227.6" y1="261.8" x2="227.6" y2="262.3"/><line class="cls-2" x1="224" y1="264.4" x2="223.5" y2="264.2"/><line class="cls-2" x1="224" y1="264.4" x2="224" y2="263.9"/><line class="cls-2" x1="217" y1="268" x2="217" y2="268.5"/><line class="cls-2" x1="213.4" y1="270.5" x2="212.9" y2="270.3"/><line class="cls-2" x1="185.2" y1="286.3" x2="185.2" y2="286.8"/><line class="cls-2" x1="181.5" y1="288.9" x2="181.1" y2="288.7"/><line class="cls-2" x1="181.5" y1="288.9" x2="181.5" y2="288.4"/><line class="cls-2" x1="191.3" y1="282.8" x2="191.3" y2="283.3"/><line class="cls-2" x1="201.9" y1="276.7" x2="201.9" y2="277.1"/><line class="cls-2" x1="318.6" y1="209.3" x2="318.6" y2="209.8"/><line class="cls-2" x1="329.2" y1="203.2" x2="329.2" y2="203.7"/><line class="cls-2" x1="297.4" y1="221.6" x2="297.4" y2="222"/><line class="cls-2" x1="286.8" y1="227.7" x2="286.8" y2="228.2"/><line class="cls-2" x1="265.5" y1="239.9" x2="265.5" y2="240.4"/><line class="cls-2" x1="233.7" y1="258.3" x2="233.7" y2="258.8"/><line class="cls-2" x1="244.3" y1="252.2" x2="244.3" y2="252.7"/><line class="cls-2" x1="223.1" y1="264.4" x2="223.1" y2="264.9"/><line class="cls-2" x1="212.5" y1="270.5" x2="212.5" y2="271"/><path class="cls-2" d="M355.7,205.4l-3.6.6"/><path class="cls-2" d="M355.7,217.2l-3.6.6"/><path class="cls-2" d="M355.7,221.7h0"/><line class="cls-2" x1="356.1" y1="189.6" x2="356.1" y2="204.6"/><path class="cls-2" d="M190.4,311.2h.3"/><line class="cls-2" x1="356.1" y1="228.8" x2="186.4" y2="326.8"/><line class="cls-2" x1="186.5" y1="302.9" x2="186.5" y2="302.9"/><path class="cls-2" d="M186.5,302.9h.3"/><path class="cls-2" d="M190.7,299.3c0,.1.1.2.1.3"/><path class="cls-2" d="M186.5,314.7c.1.1.2,0,.3,0"/><path class="cls-2" d="M385,138.4h0"/><line class="cls-2" x1="385" y1="138.5" x2="386.3" y2="137.8"/><path class="cls-2" d="M386.3,137.7h0"/><line class="cls-2" x1="385" y1="138.4" x2="386.3" y2="137.7"/><path class="cls-2" d="M385,138.5l-.8,2.1"/><path class="cls-2" d="M386.3,137.8l-1.2,3.2"/><path class="cls-2" d="M389,140.8h0"/><line class="cls-2" x1="389" y1="140.7" x2="390.2" y2="139.9"/><path class="cls-2" d="M398.8,146.3v.2"/><path class="cls-2" d="M400.1,145.6h0"/><path class="cls-2" d="M402.8,148.8v-.2"/><line class="cls-2" x1="402.7" y1="148.6" x2="404" y2="147.9"/><line class="cls-2" x1="412.6" y1="154.3" x2="413.8" y2="153.6"/><path class="cls-2" d="M404,147.9l2.6,1.5"/><path class="cls-2" d="M412.6,154.3h0"/><line class="cls-2" x1="412.6" y1="154.4" x2="413.8" y2="153.7"/><path class="cls-2" d="M413.8,153.6h0"/><path class="cls-2" d="M412.6,154.4l-.6,1.4"/><path class="cls-2" d="M413.8,153.7a7.8,7.8,0,0,1-.5,1.4"/><line class="cls-2" x1="380.8" y1="136" x2="382.1" y2="135.2"/><path class="cls-2" d="M382.1,135.2l4.2,2.5"/><path class="cls-2" d="M389.7,143.7c-.2-1-.5-1.9-.7-2.9"/><path class="cls-2" d="M404,130.1a.8.8,0,0,0,.4.7"/><path class="cls-2" d="M402.8,130.8a.9.9,0,0,0,.4.8"/><line class="cls-2" x1="404" y1="130.1" x2="402.8" y2="130.8"/><path class="cls-2" d="M404.4,130.8l1.3.8"/><path class="cls-2" d="M408.7,134.7h.3"/><line class="cls-2" x1="409.2" y1="129" x2="407.9" y2="129.7"/><path class="cls-2" d="M407.9,129.9v-.2"/><path class="cls-2" d="M409.2,129l9.8,5.7"/><line class="cls-2" x1="419" y1="134.7" x2="417.7" y2="135.4"/><path class="cls-2" d="M419,134.7h0"/><line class="cls-2" x1="419" y1="134.8" x2="417.7" y2="135.5"/><path class="cls-2" d="M417.7,135.4h0"/><path class="cls-2" d="M419,134.8l-1.2,3.3"/><line class="cls-2" x1="417.8" y1="138.1" x2="416.5" y2="138.8"/><path class="cls-2" d="M417.7,135.5l-1.2,3.3"/><path class="cls-2" d="M417.8,138.1a1,1,0,0,0,.4.7"/><path class="cls-2" d="M416.5,138.8a.8.8,0,0,0,.5.7"/><path class="cls-2" d="M418.2,138.8l1.3.7"/><path class="cls-2" d="M399.8,133.4l.4.2"/><path class="cls-2" d="M400.2,127.6l-.4-.3"/><line class="cls-2" x1="401" y1="124.3" x2="399.8" y2="125"/><path class="cls-2" d="M399.8,127.3V125"/><path class="cls-2" d="M401,124.3l4.2,2.4"/><line class="cls-2" x1="405.2" y1="126.7" x2="404" y2="127.4"/><path class="cls-2" d="M405.2,126.7h0"/><line class="cls-2" x1="405.2" y1="126.8" x2="403.9" y2="127.6"/><path class="cls-2" d="M404,127.4v.2"/><path class="cls-2" d="M405.2,126.8l-1.2,3.3"/><path class="cls-2" d="M403.9,127.6c-.4,1.1-.8,2.1-1.1,3.2"/><path class="cls-2" d="M419.5,139.5c0,.3.1.6.1.8"/><line class="cls-2" x1="419.5" y1="139.5" x2="418.9" y2="139.9"/><line class="cls-2" x1="408.7" y1="133.3" x2="408.1" y2="133.6"/><line class="cls-2" x1="405.1" y1="131.9" x2="405.7" y2="131.6"/><path class="cls-2" d="M408.7,133.3h.1"/><path class="cls-2" d="M432,146.7a.8.8,0,0,1-.4-.7"/><line class="cls-2" x1="431.6" y1="146" x2="430.3" y2="146.7"/><path class="cls-2" d="M430.7,147.5a1.2,1.2,0,0,1-.4-.8"/><path class="cls-2" d="M431.6,146l1.2-3.2"/><line class="cls-2" x1="432.8" y1="142.8" x2="431.5" y2="143.5"/><path class="cls-2" d="M430.3,146.7l1.2-3.2"/><path class="cls-2" d="M432.8,142.8v-.2"/><line class="cls-2" x1="432.8" y1="142.6" x2="431.5" y2="143.4"/><path class="cls-2" d="M431.5,143.5h0"/><path class="cls-2" d="M432.8,142.6l-9.8-5.7"/><line class="cls-2" x1="423" y1="136.9" x2="421.7" y2="137.7"/><path class="cls-2" d="M421.7,137.7h0"/><path class="cls-2" d="M422.9,142.5c0,.1,0,.2-.1.2"/><line class="cls-2" x1="442.2" y1="179.1" x2="440.9" y2="179.8"/><path class="cls-2" d="M442.2,179.1V158.7"/><line class="cls-2" x1="440.9" y1="159.4" x2="440.9" y2="159.4"/><path class="cls-2" d="M440.9,147.3l-4.2-2.4"/><line class="cls-2" x1="436.7" y1="144.9" x2="435.5" y2="145.6"/><path class="cls-2" d="M435.5,145.6v.2"/><line class="cls-2" x1="422.5" y1="141.2" x2="421.8" y2="141.6"/><path class="cls-2" d="M433.3,147.5a2.2,2.2,0,0,0,.1.8"/><line class="cls-2" x1="433.3" y1="147.5" x2="432.6" y2="147.8"/><path class="cls-2" d="M433.3,147.5l-1.3-.8"/><line class="cls-2" x1="441.6" y1="151.7" x2="441.6" y2="155.8"/><line class="cls-2" x1="441.6" y1="151.7" x2="440.9" y2="152.1"/><path class="cls-2" d="M409,134.8a.4.4,0,0,0,.1-.3"/><path class="cls-2" d="M422.8,142.7a.2.2,0,0,1-.3,0"/><line class="cls-2" x1="400.2" y1="133.1" x2="399.8" y2="133.4"/><path class="cls-2" d="M422.6,141.3a.1.1,0,0,1-.1-.1"/><path class="cls-2" d="M405.9,132.4a2.4,2.4,0,0,1-.2-.8"/><path class="cls-2" d="M83.5,312.4v.2"/><path class="cls-2" d="M82.3,313.2a.1.1,0,0,1-.1.1"/><path class="cls-2" d="M82.3,315.8a1.2,1.2,0,0,0,.4.8"/><path class="cls-2" d="M87,320.5c.1,0,.2.1.3,0"/><line class="cls-2" x1="87.5" y1="314.7" x2="86.2" y2="315.5"/><path class="cls-2" d="M86.2,315.6h0"/><line class="cls-2" x1="97.3" y1="320.4" x2="96" y2="321.1"/><path class="cls-2" d="M97.3,320.4h0"/><line class="cls-2" x1="97.3" y1="320.5" x2="96" y2="321.3"/><path class="cls-2" d="M96,321.1v.2"/><path class="cls-2" d="M97.3,320.5l-1.2,3.3"/><path class="cls-2" d="M100.8,328.4h.3"/><path class="cls-2" d="M100,323.6v-.2"/><line class="cls-2" x1="111.1" y1="328.4" x2="109.8" y2="329.1"/><path class="cls-2" d="M111.1,328.4h0"/><line class="cls-2" x1="111.1" y1="328.5" x2="109.8" y2="329.2"/><path class="cls-2" d="M109.8,329.1h0"/><path class="cls-2" d="M111.1,328.5l-1.2,3.2"/><line class="cls-2" x1="109.9" y1="331.7" x2="108.6" y2="332.5"/><path class="cls-2" d="M109.8,329.2l-1.2,3.3"/><path class="cls-2" d="M109.9,331.7a1.2,1.2,0,0,0,.4.8"/><path class="cls-2" d="M108.6,332.5a1,1,0,0,0,.4.7"/><path class="cls-2" d="M110.3,332.5l1.3.7"/><path class="cls-2" d="M113.8,331.5h0"/><path class="cls-2" d="M115,330.6l4.2,2.5"/><line class="cls-2" x1="120.5" y1="343.6" x2="119.6" y2="344.1"/><path class="cls-2" d="M109.6,360l-1-.6"/><path class="cls-2" d="M78.1,327.3l.4.2"/><path class="cls-2" d="M78.5,319.8l-.4-.2"/><line class="cls-2" x1="79.3" y1="310" x2="78.1" y2="310.8"/><path class="cls-2" d="M111.6,333.2a1.9,1.9,0,0,0,.1.8"/><line class="cls-2" x1="111.6" y1="333.2" x2="110.9" y2="333.6"/><line class="cls-2" x1="87" y1="319" x2="86.4" y2="319.4"/><line class="cls-2" x1="83.4" y1="317.7" x2="84" y2="317.3"/><path class="cls-2" d="M87,319h.1"/><line class="cls-2" x1="100.8" y1="327" x2="100.1" y2="327.3"/><line class="cls-2" x1="97.2" y1="325.6" x2="97.8" y2="325.3"/><path class="cls-2" d="M100.8,327h.1"/><path class="cls-2" d="M87.3,320.5c.1,0,.1-.2.1-.3"/><path class="cls-2" d="M101.1,328.5a.4.4,0,0,0,.1-.3"/><path class="cls-2" d="M84.2,318.1a1.9,1.9,0,0,1-.2-.8"/><path class="cls-2" d="M97.9,326.1c0-.3-.1-.6-.1-.8"/><line class="cls-2" x1="400.2" y1="127.8" x2="400.1" y2="127.7"/><path class="cls-2" d="M398.5,144.7v-.2"/><line class="cls-2" x1="196.6" y1="280.2" x2="196.6" y2="279.7"/><line class="cls-2" x1="207.2" y1="274.1" x2="207.2" y2="273.6"/><line class="cls-2" x1="323.9" y1="206.7" x2="323.9" y2="206.2"/><line class="cls-2" x1="334.5" y1="200.6" x2="334.5" y2="200.1"/><line class="cls-2" x1="313.3" y1="212.9" x2="313.3" y2="212.4"/><line class="cls-2" x1="308.8" y1="215.4" x2="308.8" y2="214.9"/><line class="cls-2" x1="302.7" y1="219" x2="302.7" y2="218.5"/><line class="cls-2" x1="281.5" y1="231.2" x2="281.5" y2="230.7"/><line class="cls-2" x1="292.1" y1="225.1" x2="292.1" y2="224.6"/><line class="cls-2" x1="270.8" y1="237.3" x2="270.8" y2="236.9"/><line class="cls-2" x1="260.2" y1="243.5" x2="260.2" y2="243"/><line class="cls-2" x1="239" y1="255.7" x2="239" y2="255.2"/><line class="cls-2" x1="249.6" y1="249.6" x2="249.6" y2="249.1"/><line class="cls-2" x1="228.4" y1="261.8" x2="228.4" y2="261.4"/><line class="cls-2" x1="217.8" y1="268" x2="217.8" y2="267.5"/><line class="cls-2" x1="186" y1="286.3" x2="186" y2="285.8"/><line class="cls-2" x1="202.8" y1="276.7" x2="202.3" y2="276.4"/><line class="cls-2" x1="319.4" y1="209.3" x2="319" y2="209.1"/><line class="cls-2" x1="339.8" y1="197.5" x2="339.8" y2="197.1"/><line class="cls-2" x1="308" y1="215.4" x2="308" y2="215.9"/><line class="cls-2" x1="276.1" y1="233.8" x2="276.1" y2="234.3"/><line class="cls-2" x1="287.6" y1="227.7" x2="287.2" y2="227.4"/><line class="cls-2" x1="254.9" y1="246" x2="254.9" y2="246.5"/><line class="cls-2" x1="180.7" y1="288.9" x2="180.7" y2="289.4"/><path class="cls-2" d="M119.2,344.3v1"/><path class="cls-2" d="M119.2,350l-.4-.2"/><path class="cls-2" d="M200.6,277.9h0"/><line class="cls-2" x1="120.5" y1="343.6" x2="120.5" y2="343.1"/><path class="cls-2" d="M185.6,286.1l.4.2"/><path class="cls-2" d="M238.6,255.5l.4.2"/><path class="cls-2" d="M228,261.6l.4.2"/><path class="cls-2" d="M217.4,267.7l.4.3"/><path class="cls-2" d="M206.8,273.8l.4.3"/><path class="cls-2" d="M196.2,280l.4.2"/><path class="cls-2" d="M345.1,194.5l-.4-.3"/><path class="cls-2" d="M386,143l-.4.3"/><path class="cls-2" d="M120.1,343.3l.4.3"/><line class="cls-2" x1="119.6" y1="349.8" x2="119.2" y2="350"/><path class="cls-2" d="M78.1,335.7v-3.5"/><line class="cls-2" x1="308.8" y1="215.4" x2="308.4" y2="215.2"/><line class="cls-2" x1="386" y1="143.5" x2="386" y2="143"/><path class="cls-2" d="M380.8,138.6V136"/><line class="cls-2" x1="140.9" y1="278.3" x2="140.9" y2="276.1"/><path class="cls-2" d="M147.8,271l-.4-.2"/><path class="cls-2" d="M190.2,246.5l-.4-.2"/><path class="cls-2" d="M173.9,255.9l-.4-.2"/><path class="cls-2" d="M105.4,295.5l-.5-.2"/><path class="cls-2" d="M131.5,280.4l-.4-.3"/><path class="cls-2" d="M98.6,351.8l.4.3"/><path class="cls-2" d="M398.1,163.9l-.4-.3"/><path class="cls-2" d="M355.7,188.4l-.4-.3"/><path class="cls-2" d="M366.3,182.2l-.4-.2"/><path class="cls-2" d="M376.9,176.1l-.4-.2"/><line class="cls-2" x1="401.4" y1="150.5" x2="403" y2="151.4"/><line class="cls-2" x1="333.6" y1="200.6" x2="333.6" y2="201.1"/><line class="cls-2" x1="420.7" y1="159" x2="420.7" y2="159"/><path class="cls-2" d="M435.5,145.8c.2.9.5,1.8.7,2.8"/><line class="cls-2" x1="188.5" y1="245.5" x2="189.8" y2="246.3"/><path class="cls-2" d="M188.5,245.5l-4.2,2.5"/><line class="cls-2" x1="184.3" y1="248" x2="185.5" y2="248.7"/><path class="cls-2" d="M158.1,263.1l14.1-8.2"/><line class="cls-2" x1="173.5" y1="255.7" x2="172.2" y2="254.9"/><line class="cls-2" x1="146.1" y1="270" x2="147.4" y2="270.8"/><line class="cls-2" x1="146.1" y1="270" x2="144" y2="271.2"/><path class="cls-2" d="M200.5,238.6l14.2-8.2"/><line class="cls-2" x1="215.9" y1="231.2" x2="214.7" y2="230.4"/><line class="cls-2" x1="230.9" y1="221" x2="232.2" y2="221.8"/><path class="cls-2" d="M230.9,221l-4.2,2.5"/><line class="cls-2" x1="273.4" y1="196.5" x2="274.6" y2="197.3"/><path class="cls-2" d="M273.4,196.5l-4.3,2.5"/><line class="cls-2" x1="269.1" y1="199" x2="270.4" y2="199.7"/><path class="cls-2" d="M285.4,189.6l14.1-8.2"/><line class="cls-2" x1="300.8" y1="182.2" x2="299.5" y2="181.4"/><line class="cls-2" x1="311.5" y1="174.5" x2="313.7" y2="173.3"/><line class="cls-2" x1="313.7" y1="173.3" x2="314.9" y2="174"/><path class="cls-2" d="M243,214.1l14.1-8.2"/><line class="cls-2" x1="244.2" y1="214.8" x2="243" y2="214.1"/><line class="cls-2" x1="258.4" y1="206.7" x2="257.1" y2="205.9"/><path class="cls-2" d="M215.9,231.2v.5"/><path class="cls-2" d="M244.2,214.8l.9-.5"/><path class="cls-2" d="M313.7,173.3l2.1-1.2"/><line class="cls-2" x1="315.8" y1="172.1" x2="317.1" y2="172.8"/><path class="cls-2" d="M327.8,165.1l14.1-8.1"/><line class="cls-2" x1="343.2" y1="157.7" x2="341.9" y2="157"/><line class="cls-2" x1="358.2" y1="147.6" x2="359.5" y2="148.3"/><path class="cls-2" d="M358.2,147.6,354,150"/><line class="cls-2" x1="354" y1="150" x2="355.2" y2="150.7"/><path class="cls-2" d="M370.2,140.6c4-2.2,7.9-4.5,11.8-6.8"/><path class="cls-2" d="M383.3,134.5v.5"/><line class="cls-2" x1="382.9" y1="133.8" x2="384.1" y2="134.5"/><path class="cls-2" d="M383.3,135l.8-.5"/><path class="cls-2" d="M382.9,133.8v-2"/><line class="cls-2" x1="382.9" y1="131.8" x2="384.1" y2="132.6"/><path class="cls-2" d="M384.1,134.5v-1.9"/><path class="cls-2" d="M382.9,131.8l4.2-2.4"/><line class="cls-2" x1="387.1" y1="129.4" x2="388.4" y2="130.1"/><path class="cls-2" d="M388.4,132.1l.8-.5"/><path class="cls-2" d="M389.2,131.6v-.5"/><path class="cls-2" d="M391.8,129.6v.5"/><line class="cls-2" x1="391.4" y1="128.9" x2="392.6" y2="129.6"/><path class="cls-2" d="M391.8,130.1l.8-.5"/><path class="cls-2" d="M391.4,128.9v-2"/><line class="cls-2" x1="391.4" y1="126.9" x2="392.6" y2="127.7"/><path class="cls-2" d="M392.6,129.6v-1.9"/><path class="cls-2" d="M391.4,126.9l4.2-2.4"/><line class="cls-2" x1="395.6" y1="124.5" x2="396.9" y2="125.2"/><path class="cls-2" d="M396.9,127.2l.8-.5"/><path class="cls-2" d="M397.7,126.7v-.5"/><line class="cls-2" x1="399.8" y1="123.6" x2="401" y2="124.3"/><path class="cls-2" d="M399.4,136.9l.4-.3"/><path class="cls-2" d="M399.8,136.6v7.2"/><path class="cls-2" d="M399.9,132.6h.2"/><path class="cls-2" d="M382.5,134.1l.4-.3"/><line class="cls-2" x1="388.4" y1="131.1" x2="389.2" y2="131.6"/><line class="cls-2" x1="388.4" y1="130.6" x2="389.2" y2="131.1"/><path class="cls-2" d="M388.4,130.1l2.1-1.2"/><path class="cls-2" d="M390.9,129.2l.5-.3"/><line class="cls-2" x1="396.9" y1="126.2" x2="397.7" y2="126.7"/><line class="cls-2" x1="396.9" y1="125.7" x2="397.7" y2="126.2"/><path class="cls-2" d="M396.9,125.2l2.9-1.6"/><line class="cls-2" x1="399.4" y1="136.4" x2="399.8" y2="136.6"/><path class="cls-2" d="M252,211.1v.3"/><path class="cls-2" d="M254.4,214.4c.3.1.8.2,1-.1"/><path class="cls-2" d="M255.4,214.3l1.3-1.6"/><path class="cls-2" d="M256.7,212.7a.8.8,0,0,1,1-.1"/><path class="cls-2" d="M257.7,212.6l3.4,2"/><path class="cls-2" d="M261.1,214.6a.2.2,0,0,1,.2.2"/><path class="cls-2" d="M261.3,218.4c.3.1.8.2,1-.1"/><path class="cls-2" d="M262.3,218.3l1.3-1.6"/><path class="cls-2" d="M263.6,216.7a.8.8,0,0,1,1-.1"/><path class="cls-2" d="M264.6,216.6l3.4,2"/><path class="cls-2" d="M268,218.6a.2.2,0,0,1,.2.2"/><path class="cls-2" d="M265,219.9a.3.3,0,0,0-.3.3"/><path class="cls-2" d="M270.6,220.7a.6.6,0,0,1,.9-.1"/><line class="cls-2" x1="245.1" y1="214.3" x2="245.1" y2="214.8"/><path class="cls-2" d="M248.7,212.3l.4.2"/><path class="cls-2" d="M250,212l-.5-.2"/><line class="cls-2" x1="249.5" y1="211.8" x2="249.5" y2="212.3"/><line class="cls-2" x1="237.7" y1="217.2" x2="237.7" y2="218.6"/><path class="cls-2" d="M237.7,217.2h.1"/><path class="cls-2" d="M237.7,218.6h.1"/><line class="cls-2" x1="242.4" y1="218.5" x2="242.4" y2="219"/><path class="cls-2" d="M242.4,218.5l.2.2"/><path class="cls-2" d="M236.9,222.2a1.1,1.1,0,0,1-.8,0"/><path class="cls-2" d="M233.8,219.5h-.1"/><path class="cls-2" d="M233.7,219.4l-2.8,1.6"/><path class="cls-2" d="M231.8,222.5l-.4-.2"/><line class="cls-2" x1="228.8" y1="223.7" x2="228.8" y2="224.2"/><path class="cls-2" d="M226.7,223.5l-2.8,1.6"/><path class="cls-2" d="M223.9,225.1h.1"/><line class="cls-2" x1="228.6" y1="226.4" x2="228.6" y2="226.9"/><path class="cls-2" d="M228.6,226.4l.2.3"/><path class="cls-2" d="M223.1,230.1a.6.6,0,0,1-.8,0"/><path class="cls-2" d="M220.1,227.5H220"/><path class="cls-2" d="M241.1,219.7c.3.2.7.5.7.9"/><line class="cls-2" x1="241.1" y1="220.5" x2="241.1" y2="219.7"/><path class="cls-2" d="M238.2,221.4l-1.3.8"/><line class="cls-2" x1="227.4" y1="228.4" x2="227.4" y2="227.7"/><path class="cls-2" d="M224.4,229.4l-1.3.7"/><path class="cls-2" d="M215.6,240.4a.3.3,0,0,0-.3.3"/><path class="cls-2" d="M222.6,244.4h-.1"/><path class="cls-2" d="M229.5,248.4h-.1"/><path class="cls-2" d="M215.5,231.9l-.4-.2"/><line class="cls-2" x1="211.5" y1="233.7" x2="211.5" y2="234.2"/><path class="cls-2" d="M211.1,234.5l-.5-.3"/><path class="cls-2" d="M243,214.1l-5.3,3.1"/><path class="cls-2" d="M220,227.4l-5.3,3"/><path class="cls-2" d="M252.1,211.4a.3.3,0,0,1-.3.3"/><path class="cls-2" d="M261.3,214.8l-.2.3"/><path class="cls-2" d="M257.7,216.2a.2.2,0,0,0,.2.2"/><path class="cls-2" d="M264.7,220.2a.3.3,0,0,0,.1.2"/><path class="cls-2" d="M275.1,222.8a.3.3,0,0,1-.3.3"/><path class="cls-2" d="M242.6,218.7c0,.1-.1.2-.2.3"/><path class="cls-2" d="M228.8,226.7a.2.2,0,0,1-.2.2"/><line class="cls-2" x1="241.8" y1="220.6" x2="241.8" y2="220.8"/><path class="cls-2" d="M209.7,235.9l-.2.2"/><path class="cls-2" d="M232.7,247.3a.3.3,0,0,1-.3.3"/><line class="cls-2" x1="239" y1="221.7" x2="241.1" y2="220.5"/><line class="cls-2" x1="225.2" y1="229.7" x2="227.4" y2="228.4"/><path class="cls-2" d="M210.6,234.2l.9-.5"/><path class="cls-2" d="M232.2,222.3v-.5"/><path class="cls-2" d="M221.6,229.3l4-2.2"/><line class="cls-2" x1="235.4" y1="221.4" x2="239.4" y2="219.1"/><path class="cls-2" d="M244.2,214.8l.5.3"/><path class="cls-2" d="M232.2,221.8l.4.2"/><path class="cls-2" d="M215.9,231.2l.5.2"/><line class="cls-2" x1="144" y1="271.2" x2="145.2" y2="272"/><path class="cls-2" d="M144,271.2l-2.2,1.3"/><line class="cls-2" x1="141.8" y1="272.5" x2="143.1" y2="273.2"/><path class="cls-2" d="M129.8,279.4l-14.1,8.2"/><line class="cls-2" x1="131.1" y1="280.1" x2="129.8" y2="279.4"/><line class="cls-2" x1="117" y1="288.3" x2="115.7" y2="287.6"/><path class="cls-2" d="M99.4,297l4.3-2.5"/><line class="cls-2" x1="103.7" y1="294.5" x2="104.9" y2="295.3"/><line class="cls-2" x1="87.4" y1="303.9" x2="88.7" y2="304.6"/><path class="cls-2" d="M87.4,303.9,76,310.5"/><path class="cls-2" d="M76.9,311.5v.4"/><path class="cls-2" d="M76.9,311.9l-.9.5"/><line class="cls-2" x1="74.7" y1="309.7" x2="76" y2="310.5"/><path class="cls-2" d="M74.7,309.7l-4.2,2.5"/><line class="cls-2" x1="70.5" y1="312.2" x2="71.8" y2="312.9"/><path class="cls-2" d="M70.5,312.2v2"/><line class="cls-2" x1="70.5" y1="314.2" x2="71.8" y2="314.9"/><path class="cls-2" d="M71.8,312.9v2"/><path class="cls-2" d="M70.5,314.2l-.4.2"/><path class="cls-2" d="M71.8,314.9l-.9.5"/><path class="cls-2" d="M70.9,315.4v-.5"/><path class="cls-2" d="M69.7,314.2l-2.2,1.2"/><path class="cls-2" d="M68.4,316.4v.4"/><path class="cls-2" d="M68.4,316.8l-.9.5"/><line class="cls-2" x1="66.3" y1="314.6" x2="67.5" y2="315.4"/><path class="cls-2" d="M66.3,314.6,62,317.1"/><line class="cls-2" x1="62" y1="317.1" x2="63.3" y2="317.8"/><path class="cls-2" d="M62,317.1v2"/><line class="cls-2" x1="62" y1="319.1" x2="63.3" y2="319.8"/><path class="cls-2" d="M63.3,317.8v2"/><path class="cls-2" d="M62,319.1l-.4.2"/><path class="cls-2" d="M63.3,319.8l-.9.5"/><path class="cls-2" d="M62.4,320.3v-.5"/><path class="cls-2" d="M61.2,319.1,57.9,321"/><line class="cls-2" x1="57.9" y1="321" x2="59.1" y2="321.7"/><path class="cls-2" d="M57.9,321v10.6"/><line class="cls-2" x1="57.9" y1="331.6" x2="59.1" y2="332.3"/><line class="cls-2" x1="78.1" y1="321.5" x2="77.6" y2="321.3"/><line class="cls-2" x1="77.6" y1="325.5" x2="78.1" y2="325.3"/><line class="cls-2" x1="78.1" y1="321.5" x2="77.6" y2="321.8"/><line class="cls-2" x1="76" y1="311" x2="76.9" y2="311.5"/><line class="cls-2" x1="76" y1="311.5" x2="76.9" y2="311.9"/><line class="cls-2" x1="67.5" y1="315.9" x2="68.4" y2="316.4"/><line class="cls-2" x1="67.5" y1="316.4" x2="68.4" y2="316.8"/><line class="cls-2" x1="77.6" y1="329.8" x2="78.1" y2="330"/><line class="cls-2" x1="77.2" y1="330" x2="78.1" y2="330.5"/><path class="cls-2" d="M76.8,330.3h0"/><line class="cls-2" x1="351.2" y1="190.4" x2="351.2" y2="190.9"/><line class="cls-2" x1="355.7" y1="187.9" x2="355.7" y2="188.4"/><line class="cls-2" x1="372.4" y1="178.2" x2="372.4" y2="178.7"/><line class="cls-2" x1="376.1" y1="176.6" x2="376.1" y2="176.1"/><line class="cls-2" x1="376.9" y1="175.6" x2="376.9" y2="176.1"/><line class="cls-2" x1="361.8" y1="184.3" x2="361.8" y2="184.8"/><line class="cls-2" x1="361.8" y1="184.8" x2="361.4" y2="184.6"/><line class="cls-2" x1="366.3" y1="181.8" x2="366.3" y2="182.2"/><line class="cls-2" x1="397.3" y1="163.9" x2="397.3" y2="164.4"/><line class="cls-2" x1="383.1" y1="172.6" x2="382.6" y2="172.3"/><line class="cls-2" x1="411.4" y1="148.1" x2="410.1" y2="147.3"/><line class="cls-2" x1="392.8" y1="166.4" x2="392.8" y2="166.9"/><line class="cls-2" x1="382.2" y1="172.6" x2="382.2" y2="173.1"/><line class="cls-2" x1="174.5" y1="292.5" x2="174.5" y2="292.9"/><line class="cls-2" x1="170.9" y1="295" x2="170.5" y2="294.8"/><line class="cls-2" x1="170.9" y1="295" x2="170.9" y2="294.5"/><line class="cls-2" x1="153.3" y1="304.7" x2="153.3" y2="305.2"/><line class="cls-2" x1="163.9" y1="298.6" x2="163.9" y2="299.1"/><line class="cls-2" x1="160.3" y1="301.2" x2="159.9" y2="300.9"/><line class="cls-2" x1="160.3" y1="301.2" x2="160.3" y2="300.7"/><line class="cls-2" x1="128.5" y1="319.5" x2="128.1" y2="319.3"/><line class="cls-2" x1="132.1" y1="317.4" x2="132.1" y2="316.9"/><polyline class="cls-2" points="133 316.5 133 316.9 133 316.9"/><line class="cls-2" x1="139.1" y1="312.9" x2="139.1" y2="313.4"/><line class="cls-2" x1="139.1" y1="313.4" x2="138.7" y2="313.2"/><line class="cls-2" x1="142.7" y1="311.3" x2="142.7" y2="310.8"/><polyline class="cls-2" points="143.6 310.3 143.6 310.8 143.6 310.8"/><line class="cls-2" x1="110.9" y1="360.7" x2="109.6" y2="360"/><line class="cls-2" x1="142.3" y1="311.6" x2="142.3" y2="311.6"/><path class="cls-2" d="M352.1,225.2h-.3"/><path class="cls-2" d="M351.7,218.5a1,1,0,0,1,.4-.7"/><path class="cls-2" d="M355.7,217.2a1,1,0,0,0,.4-.7"/><path class="cls-2" d="M356.1,210.1a.4.4,0,0,0-.1-.3"/><path class="cls-2" d="M352.1,213.3h-.3"/><path class="cls-2" d="M351.7,206.7a.8.8,0,0,1,.4-.7"/><line class="cls-2" x1="419.7" y1="152.9" x2="418.4" y2="152.1"/><line class="cls-2" x1="423.2" y1="190" x2="423.2" y2="178.8"/><line class="cls-2" x1="423.2" y1="178.8" x2="422.8" y2="178.5"/><line class="cls-2" x1="423.2" y1="178.8" x2="422.8" y2="179"/><polyline class="cls-2" points="440.9 167.6 440.9 162 440.9 160.4"/><line class="cls-2" x1="440.9" y1="160.4" x2="440.5" y2="160.1"/><line class="cls-2" x1="440.9" y1="160.4" x2="440.5" y2="160.6"/><line class="cls-2" x1="442.2" y1="158.7" x2="442.2" y2="148.1"/><line class="cls-2" x1="442.2" y1="148.1" x2="440.9" y2="147.3"/><line class="cls-2" x1="438.9" y1="150" x2="438" y2="149.5"/><line class="cls-2" x1="438.9" y1="150" x2="438.9" y2="150.5"/><line class="cls-2" x1="438.9" y1="150.5" x2="438" y2="150"/><line class="cls-2" x1="438.9" y1="150.5" x2="438" y2="151"/><line class="cls-2" x1="433.8" y1="151.4" x2="432.5" y2="150.7"/><polyline class="cls-2" points="433.8 151.4 433.8 152.9 433.8 153.4"/><line class="cls-2" x1="433.8" y1="153.4" x2="432.5" y2="152.7"/><polyline class="cls-2" points="432.5 150.7 432.5 152.2 432.5 152.7"/><line class="cls-2" x1="433.8" y1="153.4" x2="432.9" y2="153.9"/><line class="cls-2" x1="432.5" y1="152.7" x2="432.1" y2="152.9"/><line class="cls-2" x1="432.9" y1="153.9" x2="432.9" y2="153.4"/><line class="cls-2" x1="430.4" y1="154.9" x2="429.5" y2="154.4"/><line class="cls-2" x1="431.7" y1="152.7" x2="429.5" y2="153.9"/><line class="cls-2" x1="430.4" y1="154.9" x2="430.4" y2="155.4"/><line class="cls-2" x1="430.4" y1="155.4" x2="429.5" y2="154.9"/><line class="cls-2" x1="430.4" y1="155.4" x2="429.5" y2="155.8"/><line class="cls-2" x1="429.5" y1="153.9" x2="428.3" y2="153.2"/><line class="cls-2" x1="425.3" y1="156.3" x2="424" y2="155.6"/><line class="cls-2" x1="428.3" y1="153.2" x2="424" y2="155.6"/><polyline class="cls-2" points="425.3 156.3 425.3 157.8 425.3 158.3"/><line class="cls-2" x1="425.3" y1="158.3" x2="424" y2="157.6"/><polyline class="cls-2" points="424 155.6 424 157.1 424 157.6"/><line class="cls-2" x1="425.3" y1="158.3" x2="424.5" y2="158.8"/><line class="cls-2" x1="424" y1="157.6" x2="423.6" y2="157.8"/><line class="cls-2" x1="424.5" y1="158.8" x2="424.5" y2="158.3"/><path class="cls-2" d="M441.6,155.8l-.2.4c-.1.1-.2.2-.4.1"/><path class="cls-2" d="M409.8,175.1h-.2"/><line class="cls-2" x1="422.8" y1="168.5" x2="422.8" y2="169"/><line class="cls-2" x1="422.8" y1="169" x2="422.4" y2="168.8"/><line class="cls-2" x1="423.7" y1="168.5" x2="423.7" y2="169.5"/><line class="cls-2" x1="423.7" y1="169.5" x2="423.2" y2="169.3"/><line class="cls-2" x1="423.2" y1="173.5" x2="423.7" y2="173.3"/><line class="cls-2" x1="423.7" y1="173.3" x2="423.7" y2="174.3"/><line class="cls-2" x1="423.7" y1="174.3" x2="423.2" y2="174"/><line class="cls-2" x1="423.7" y1="174.3" x2="423.2" y2="174.5"/><line class="cls-2" x1="422.8" y1="174.7" x2="422.8" y2="175.2"/><line class="cls-2" x1="422.8" y1="175.2" x2="422.4" y2="175"/><line class="cls-2" x1="422.8" y1="175.2" x2="422" y2="175.7"/><polyline class="cls-2" points="356.1 228.8 387.9 210.4 409.1 198.2 423.2 190"/><path class="cls-2" d="M356,221.7h-.3"/><path class="cls-2" d="M351.8,225.2a.4.4,0,0,1-.1-.3"/><path class="cls-2" d="M356,209.8h-.3"/><path class="cls-2" d="M441.5,151.5v.2"/><line class="cls-2" x1="105.3" y1="323.9" x2="105.3" y2="324.4"/><line class="cls-2" x1="105.3" y1="324.4" x2="104.4" y2="323.9"/><line class="cls-2" x1="104.4" y1="323.9" x2="104.9" y2="323.6"/><line class="cls-2" x1="104.4" y1="323.9" x2="104.4" y2="323.4"/><line class="cls-2" x1="89.5" y1="314.7" x2="89.5" y2="315.2"/><line class="cls-2" x1="89.5" y1="315.2" x2="89.9" y2="315"/><line class="cls-2" x1="89.5" y1="315.2" x2="90.3" y2="315.7"/><line class="cls-2" x1="90.3" y1="313.7" x2="91.6" y2="313"/><line class="cls-2" x1="149.7" y1="307.3" x2="149.7" y2="306.8"/><line class="cls-2" x1="354.8" y1="188.9" x2="354.8" y2="188.4"/><line class="cls-2" x1="398.1" y1="163.9" x2="398.1" y2="163.4"/><line class="cls-2" x1="387.5" y1="170" x2="387.5" y2="169.5"/><line class="cls-2" x1="371.6" y1="179.2" x2="371.6" y2="178.7"/><line class="cls-2" x1="361" y1="185.3" x2="361" y2="184.8"/><path class="cls-2" d="M228.8,223.7l-.8.5"/><path class="cls-2" d="M159.4,263.8l.8-.5"/><path class="cls-2" d="M173.5,255.7v.4"/><path class="cls-2" d="M201.8,239.3l.9-.5"/><line class="cls-2" x1="272.8" y1="223.6" x2="272.8" y2="223.6"/><path class="cls-2" d="M286.6,190.3l.9-.4"/><path class="cls-2" d="M300.8,182.2v.5"/><line class="cls-2" x1="312.8" y1="175.2" x2="313.7" y2="174.7"/><path class="cls-2" d="M258.4,206.7v.5"/><path class="cls-2" d="M220.8,228.4l3.1-1.8"/><path class="cls-2" d="M317.1,172.8v.5"/><path class="cls-2" d="M329.1,165.9l.8-.5"/><path class="cls-2" d="M343.2,157.7v.5"/><path class="cls-2" d="M371.5,141.4l.8-.5"/><path class="cls-2" d="M397.7,126.2l2.1-1.2"/><path class="cls-2" d="M245.5,214.6l-.4-.3"/><path class="cls-2" d="M260.2,243.5l-.4-.3"/><path class="cls-2" d="M270.8,237.3l-.4-.2"/><path class="cls-2" d="M228.8,223.7l.4.3"/><line class="cls-2" x1="223.9" y1="225.1" x2="223.9" y2="226.6"/><path class="cls-2" d="M223.9,226.6h.1"/><path class="cls-2" d="M208.7,236.4h-.1"/><path class="cls-2" d="M249.6,249.6l-.4-.2"/><path class="cls-2" d="M211.5,233.7l.4.3"/><path class="cls-2" d="M100.7,297.7l.8-.5"/><path class="cls-2" d="M104.9,295.3v.4"/><path class="cls-2" d="M59.1,332.3l.4-.2"/><line class="cls-2" x1="372.4" y1="178.7" x2="372" y2="178.4"/><line class="cls-2" x1="148.9" y1="307.3" x2="148.9" y2="307.8"/><line class="cls-2" x1="159.5" y1="301.2" x2="159.5" y2="301.6"/><path class="cls-2" d="M143.1,273.2l.4.3"/><path class="cls-2" d="M222.5,244.4c-.1.1-.3.1-.3.3"/><path class="cls-2" d="M229.4,248.4c-.1.1-.2.1-.2.3"/><path class="cls-2" d="M185.5,248.7l.5.3"/><path class="cls-2" d="M91.6,313l.4-.2"/><path class="cls-2" d="M117,288.3l.4.3"/><path class="cls-2" d="M209.5,236.1h-.1"/><path class="cls-2" d="M361,185.3h0"/><path class="cls-2" d="M261.1,215.1h-.2"/><path class="cls-2" d="M411.4,152.1l2.4,1.5"/><path class="cls-2" d="M419.7,157l2.3,1.3"/><line class="cls-2" x1="430.3" y1="173.7" x2="440.9" y2="179.8"/><path class="cls-2" d="M403.4,151.2l-.6-2.4"/><path class="cls-2" d="M175,292.2l.4.3"/><path class="cls-2" d="M88.7,304.6l.4.3"/><path class="cls-2" d="M143.2,310.6l.4.2"/><path class="cls-2" d="M132.5,316.7l.5.2"/><path class="cls-2" d="M164.4,298.3l.4.3"/><path class="cls-2" d="M153.8,304.5l.4.2"/><path class="cls-2" d="M59.1,332.3l.4.3"/><path class="cls-2" d="M387.5,170l-.4-.3"/><path class="cls-2" d="M359.5,148.3l.4.2"/><path class="cls-2" d="M274.6,197.3l.5.2"/><path class="cls-2" d="M300.8,182.2l.4.2"/><path class="cls-2" d="M317.1,172.8l.4.2"/><path class="cls-2" d="M343.2,157.7l.4.2"/><path class="cls-2" d="M258.4,206.7l.4.2"/><path class="cls-2" d="M411.4,153.6l1.2.7"/><path class="cls-2" d="M399.8,135.6l.4.3"/><path class="cls-2" d="M399.8,128.3l.4.2"/><line class="cls-2" x1="441.2" y1="151.5" x2="441.6" y2="151.7"/><path class="cls-2" d="M78.1,320.6l.4.2"/><path class="cls-2" d="M181.5,251.1l-3.1,1.7"/><line class="cls-2" x1="266.3" y1="202.1" x2="263.2" y2="203.9"/><path class="cls-2" d="M280.1,194.1l-3.1,1.8"/><polyline class="cls-2" points="149.7 269.4 151.9 268.1 152.8 267.6"/><polyline class="cls-2" points="305.7 179.4 305.7 179.3 308.7 177.6"/><line class="cls-2" x1="192.2" y1="244.9" x2="195.2" y2="243.1"/><line class="cls-2" x1="351.2" y1="153.1" x2="348.1" y2="154.9"/><path class="cls-2" d="M364.9,145.1l-3,1.8"/><path class="cls-2" d="M319.4,171.4l3.1-1.8"/><path class="cls-2" d="M257.9,215.9l-.2.3"/><path class="cls-2" d="M271.8,223.9l-.2.3"/><path class="cls-2" d="M268,219.1h-.1"/><path class="cls-2" d="M139,275.6l-3,1.7"/><line class="cls-2" x1="107.3" y1="293.9" x2="110.4" y2="292.1"/><path class="cls-2" d="M93.5,301.8l3.1-1.7"/><line class="cls-2" x1="351.2" y1="190.9" x2="350.8" y2="190.7"/><line class="cls-2" x1="393.7" y1="166.4" x2="393.7" y2="166"/><polyline class="cls-2" points="175.4 292.5 175.4 292.5 175.4 292"/><polyline class="cls-2" points="154.2 304.7 154.2 304.7 154.2 304.2"/><polyline class="cls-2" points="164.8 298.6 164.8 298.6 164.8 298.1"/><line class="cls-2" x1="117.9" y1="356.6" x2="110.9" y2="360.7"/><line class="cls-2" x1="441.6" y1="155.8" x2="441.6" y2="155.8"/><path class="cls-2" d="M189.8,246.8v-.5"/><path class="cls-2" d="M186.4,248.2l-.9.5"/><path class="cls-2" d="M168.2,258.7l.9-.5"/><line class="cls-2" x1="147.4" y1="271.2" x2="147.4" y2="270.8"/><path class="cls-2" d="M274.6,197.8v-.5"/><path class="cls-2" d="M271.2,199.2l-.8.5"/><path class="cls-2" d="M295.5,185.2l.8-.4"/><path class="cls-2" d="M253.1,209.7l.8-.5"/><path class="cls-2" d="M183.2,251.6l-4,2.2"/><polyline class="cls-2" points="150.6 270.4 153.2 268.9 154.5 268.1"/><line class="cls-2" x1="268" y1="202.6" x2="264.1" y2="204.9"/><polyline class="cls-2" points="306.5 180.4 307 180.1 310.4 178.1"/><line class="cls-2" x1="193" y1="245.9" x2="196.9" y2="243.6"/><path class="cls-2" d="M281.8,194.6l-4,2.3"/><path class="cls-2" d="M337.9,160.7l.9-.4"/><path class="cls-2" d="M359.5,148.8v-.5"/><path class="cls-2" d="M356.1,150.3l-.9.4"/><path class="cls-2" d="M378.6,137.3l2.2-1.3"/><path class="cls-2" d="M320.3,172.4l3.9-2.3"/><line class="cls-2" x1="352.9" y1="153.6" x2="348.9" y2="155.9"/><path class="cls-2" d="M366.6,145.6l-3.9,2.3"/><path class="cls-2" d="M281,231l.5.2"/><path class="cls-2" d="M144,272.7l-.9.5"/><path class="cls-2" d="M131.1,280.6v-.5"/><path class="cls-2" d="M117.8,287.8l-.8.5"/><path class="cls-2" d="M126.6,282.7l-.8.5"/><path class="cls-2" d="M88.7,305.1v-.5"/><path class="cls-2" d="M78.1,310.8l-1.2.7"/><path class="cls-2" d="M81.6,308.7a17.1,17.1,0,0,1-2.3,1.3"/><path class="cls-2" d="M59.1,329.1v.9"/><line class="cls-2" x1="78.1" y1="326.3" x2="77.6" y2="326.5"/><path class="cls-2" d="M140.7,276.1l-3.9,2.2"/><line class="cls-2" x1="108.1" y1="294.9" x2="112.1" y2="292.6"/><path class="cls-2" d="M94.4,302.8l3.9-2.3"/><line class="cls-2" x1="127.7" y1="320" x2="127.7" y2="319.5"/><line class="cls-2" x1="109.6" y1="358.9" x2="109.6" y2="360"/><line class="cls-2" x1="114.4" y1="334" x2="114.4" y2="334.4"/><line class="cls-2" x1="81.6" y1="311.3" x2="81.6" y2="310.2"/><line class="cls-2" x1="334.4" y1="163.3" x2="334.4" y2="162.8"/><path class="cls-2" d="M356.1,204.6a1.2,1.2,0,0,1-.4.8"/><path class="cls-2" d="M356,221.7c.1,0,.1.1.1.2"/><line class="cls-2" x1="149.7" y1="307.3" x2="149.3" y2="307"/><path class="cls-2" d="M351.8,213.3c-.1,0-.1-.1-.1-.2"/><path class="cls-2" d="M135.2,276.4l2.2,2.7"/><path class="cls-2" d="M143.8,275.9a.2.2,0,0,0,.2-.2"/><path class="cls-2" d="M143.8,275.4l-4.6-1.2"/><line class="cls-2" x1="139.2" y1="274.2" x2="139.2" y2="275.6"/><path class="cls-2" d="M141.7,276.3l-2.5-.7"/><path class="cls-2" d="M143.5,273.5l.9-.5"/><path class="cls-2" d="M144,272.7l2.5-1.5"/><path class="cls-2" d="M146.9,271.5l.9-.5"/><path class="cls-2" d="M149,268.5l2.2,2.6"/><path class="cls-2" d="M157.6,267.5l-4.6-1.3"/><line class="cls-2" x1="153" y1="266.2" x2="153" y2="267.7"/><path class="cls-2" d="M156.4,268.6l-3.4-.9"/><path class="cls-2" d="M139.6,278.4a3.3,3.3,0,0,0,2,.3l1-.4a.8.8,0,0,0,.5-.8"/><line class="cls-2" x1="142.5" y1="276.7" x2="142.5" y2="277.4"/><line class="cls-2" x1="142.5" y1="277.4" x2="140.3" y2="278.7"/><path class="cls-2" d="M142.5,276.7l1.3-.8"/><path class="cls-2" d="M153.3,270.4a3,3,0,0,0,2.1.3l1-.3c.2-.2.5-.5.5-.8"/><path class="cls-2" d="M156.3,268.7l1.3-.7"/><path class="cls-2" d="M208.6,236.4c-.1.1-.2.1-.2.3"/><path class="cls-2" d="M208.6,236.9l3.4,2"/><path class="cls-2" d="M215.5,240.9l3.4,2"/><path class="cls-2" d="M222.4,244.9l3.5,2"/><path class="cls-2" d="M225.9,246.9a1,1,0,0,0,.9-.1"/><path class="cls-2" d="M226.8,246.8l1.3-1.7"/><path class="cls-2" d="M229.1,245.1l3.4,1.9"/><path class="cls-2" d="M232.5,247c.1.1.2.2.2.3"/><path class="cls-2" d="M229.4,248.9l2.3,1.4"/><path class="cls-2" d="M200.5,238.6a9.5,9.5,0,0,1,1.7,1"/><path class="cls-2" d="M202.2,239.6l.9-.5"/><path class="cls-2" d="M202.7,238.8l3.6-2"/><path class="cls-2" d="M206.7,237l.8-.5"/><line class="cls-2" x1="207.1" y1="236.3" x2="208.9" y2="235.2"/><path class="cls-2" d="M208.9,235.2l.6.4"/><path class="cls-2" d="M177.6,252l2.3,2.6"/><path class="cls-2" d="M186.2,250.9l-4.6-1.2"/><line class="cls-2" x1="181.6" y1="249.7" x2="181.6" y2="251.1"/><path class="cls-2" d="M185.1,252.1l-3.5-1"/><path class="cls-2" d="M186,249l.8-.5"/><path class="cls-2" d="M186.4,248.2l2.5-1.4"/><path class="cls-2" d="M189.4,247l.8-.5"/><path class="cls-2" d="M191.4,244l2.2,2.7"/><path class="cls-2" d="M200,243l-4.6-1.3"/><line class="cls-2" x1="195.4" y1="241.7" x2="195.4" y2="243.2"/><path class="cls-2" d="M198.9,244.1l-3.5-.9"/><path class="cls-2" d="M182,253.9a3.5,3.5,0,0,0,2,.3l1-.3a1.1,1.1,0,0,0,.6-.9"/><path class="cls-2" d="M184.9,252.2l1.3-.8"/><path class="cls-2" d="M195.8,245.9a2.7,2.7,0,0,0,2,.3,1.9,1.9,0,0,0,1-.3,1,1,0,0,0,.5-.8"/><path class="cls-2" d="M198.7,244.2l1.3-.7"/><path class="cls-2" d="M158.1,263.1l1.7,1"/><path class="cls-2" d="M159.8,264.1l.9-.5"/><path class="cls-2" d="M160.2,263.3l3.6-2"/><path class="cls-2" d="M164.3,261.5l.8-.5"/><path class="cls-2" d="M168.6,259l.9-.5"/><path class="cls-2" d="M169.1,258.2l3.6-2.1"/><path class="cls-2" d="M173.1,256.4l.8-.5"/><line class="cls-2" x1="164.7" y1="260.8" x2="168.2" y2="258.7"/><line class="cls-2" x1="89.1" y1="304.9" x2="88.3" y2="305.4"/><line class="cls-2" x1="87.8" y1="305.1" x2="81.6" y2="308.7"/><line class="cls-2" x1="81.6" y1="308.7" x2="90.3" y2="313.7"/><line class="cls-2" x1="81.6" y1="310.2" x2="90.3" y2="315.2"/><path class="cls-2" d="M104.9,320.7l.4-.3"/><line class="cls-2" x1="105.3" y1="320.4" x2="105.3" y2="320.9"/><path class="cls-2" d="M105.3,320.4l.8.5"/><path class="cls-2" d="M106.1,320.9a9.5,9.5,0,0,1-1.7,1"/><line class="cls-2" x1="104.4" y1="321.9" x2="113.1" y2="326.9"/><line class="cls-2" x1="104.4" y1="323.4" x2="113.1" y2="328.4"/><path class="cls-2" d="M92.8,300.9l2.2,2.7"/><path class="cls-2" d="M101.4,299.9l-4.6-1.3"/><line class="cls-2" x1="96.8" y1="298.6" x2="96.8" y2="300.1"/><path class="cls-2" d="M100.2,301.1l-3.4-1"/><path class="cls-2" d="M99.4,297l1.7.9"/><path class="cls-2" d="M101.1,297.9l.9-.4"/><path class="cls-2" d="M101.5,297.2l2.6-1.5"/><path class="cls-2" d="M104.5,296l.9-.5"/><path class="cls-2" d="M106.6,293l2.2,2.6"/><path class="cls-2" d="M115.2,292l-4.7-1.3"/><line class="cls-2" x1="110.5" y1="290.7" x2="110.5" y2="292.2"/><path class="cls-2" d="M114,293.1l-3.5-.9"/><path class="cls-2" d="M97.1,302.9a3.7,3.7,0,0,0,2.1.3l.9-.4a.9.9,0,0,0,.6-.8"/><path class="cls-2" d="M100.1,301.1l1.3-.7"/><path class="cls-2" d="M110.9,294.9a3.5,3.5,0,0,0,2,.3,1.7,1.7,0,0,0,1-.3c.3-.2.6-.5.6-.8"/><path class="cls-2" d="M113.9,293.2l1.3-.7"/><path class="cls-2" d="M117.4,288.6l.8-.5"/><path class="cls-2" d="M117.8,287.8l3.6-2.1"/><path class="cls-2" d="M121.8,286l.9-.5"/><path class="cls-2" d="M126.2,283.5l.9-.5"/><path class="cls-2" d="M126.6,282.7l3.7-2.1"/><path class="cls-2" d="M130.7,280.9l.8-.5"/><line class="cls-2" x1="122.3" y1="285.3" x2="125.8" y2="283.2"/><path class="cls-2" d="M144,275.7l-.2-.3"/><path class="cls-2" d="M143.1,277.5a.9.9,0,0,0-.6-.8"/><path class="cls-2" d="M143,277.9l-.5-.5"/><path class="cls-2" d="M156.8,269.9l-.5-.5"/><path class="cls-2" d="M208.4,236.7a.2.2,0,0,0,.2.2"/><path class="cls-2" d="M229.2,248.7a.2.2,0,0,0,.2.2"/><path class="cls-2" d="M185.6,253a1,1,0,0,0-.7-.8"/><path class="cls-2" d="M185.5,253.4c-.2-.2-.3-.4-.6-.5"/><path class="cls-2" d="M199.2,245.4c-.1-.2-.3-.3-.5-.5"/><path class="cls-2" d="M100.7,302a1.1,1.1,0,0,0-.6-.9"/><path class="cls-2" d="M100.6,302.4a.8.8,0,0,0-.5-.5"/><path class="cls-2" d="M114.4,294.4l-.5-.5"/><line class="cls-2" x1="186.4" y1="302.6" x2="186.4" y2="287.6"/><line class="cls-2" x1="186.4" y1="287.6" x2="185.1" y2="286.8"/><path class="cls-2" d="M186.4,326.8v-6.9"/><path class="cls-2" d="M186.8,307.3l3.6-.6"/><line class="cls-2" x1="121.5" y1="331.7" x2="121.5" y2="323.6"/><line class="cls-2" x1="119.2" y1="365.5" x2="119.2" y2="354.3"/><line class="cls-2" x1="117.9" y1="364.8" x2="117.9" y2="354"/><polyline class="cls-2" points="119.6 353.1 119.2 353.3 112.9 356.9 101.5 363.5"/><line class="cls-2" x1="102" y1="356.1" x2="102" y2="355.1"/><line class="cls-2" x1="102" y1="355.1" x2="100.3" y2="356.1"/><line class="cls-2" x1="100.3" y1="356.1" x2="100.3" y2="345.5"/><line class="cls-2" x1="99" y1="355.3" x2="99" y2="344.7"/><line class="cls-2" x1="100.3" y1="345.5" x2="103.6" y2="343.5"/><line class="cls-2" x1="103.6" y1="343.5" x2="102.3" y2="342.8"/><line class="cls-2" x1="99" y1="344.7" x2="102.3" y2="342.8"/><line class="cls-2" x1="103.6" y1="343.5" x2="103.6" y2="344"/><line class="cls-2" x1="103.6" y1="344" x2="104.4" y2="343.5"/><line class="cls-2" x1="104.4" y1="341.6" x2="108.7" y2="339.1"/><polyline class="cls-2" points="108.7 339.1 108.7 340.6 108.7 341.1"/><line class="cls-2" x1="109.5" y1="340.1" x2="112.1" y2="338.6"/><line class="cls-2" x1="112.1" y1="338.6" x2="110.8" y2="337.9"/><line class="cls-2" x1="112.9" y1="336.7" x2="117.2" y2="334.2"/><line class="cls-2" x1="111.7" y1="336" x2="115.9" y2="333.5"/><polyline class="cls-2" points="117.2 334.2 117.2 335.7 117.2 336.2"/><line class="cls-2" x1="117.2" y1="336.2" x2="118" y2="335.7"/><line class="cls-2" x1="118" y1="335.7" x2="117.2" y2="335.2"/><line class="cls-2" x1="118" y1="335.2" x2="117.2" y2="334.7"/><line class="cls-2" x1="118" y1="335.2" x2="122.8" y2="332.5"/><line class="cls-2" x1="117.2" y1="334.2" x2="121.5" y2="331.7"/><path class="cls-2" d="M100.9,348.4v4"/><path class="cls-2" d="M127.2,336.5a3.2,3.2,0,0,0-1.3,1.5,3.1,3.1,0,0,0-.1,1,.9.9,0,0,0,.4.8"/><line class="cls-2" x1="118.8" y1="344.6" x2="118.8" y2="345.5"/><line class="cls-2" x1="119.2" y1="345.3" x2="119.2" y2="349.1"/><line class="cls-2" x1="119.2" y1="349.1" x2="118.8" y2="349.3"/><line class="cls-2" x1="118.8" y1="349.3" x2="118.8" y2="350.3"/><line class="cls-2" x1="119.6" y1="349.8" x2="119.6" y2="350.3"/><line class="cls-2" x1="120.5" y1="343.1" x2="119.6" y2="343.6"/><path class="cls-2" d="M186.4,287.6l-31.8,18.3-31.8,18.4"/><path class="cls-2" d="M185.1,286.8l-31.8,18.4-31.8,18.4"/><path class="cls-2" d="M186.5,302.9a.4.4,0,0,1-.1-.3"/><path class="cls-2" d="M101.5,347.8a.3.3,0,0,0-.4.2.5.5,0,0,0-.2.4"/><path class="cls-2" d="M132.4,333.9a.9.9,0,0,0-1,.1"/><path class="cls-2" d="M63.8,327.5l4.4,2.5"/><path class="cls-2" d="M68.5,331.2l-1.2-4.7"/><path class="cls-2" d="M67.3,326.4l9.8,5.7"/><line class="cls-2" x1="77.1" y1="332.1" x2="78.4" y2="331.3"/><path class="cls-2" d="M68.5,325.7l9.9,5.6"/><line class="cls-2" x1="77.1" y1="332.2" x2="78.3" y2="331.5"/><path class="cls-2" d="M77.1,332.2l-1.2,3.3"/><line class="cls-2" x1="75.9" y1="335.5" x2="77.2" y2="334.7"/><path class="cls-2" d="M78.3,331.5l-1.1,3.2"/><path class="cls-2" d="M76.3,336.2l1.3.7"/><path class="cls-2" d="M59.5,332.6v-1"/><path class="cls-2" d="M59.1,331.3V330"/><path class="cls-2" d="M59.5,330.3v-1"/><path class="cls-2" d="M59.5,325.2v-1"/><path class="cls-2" d="M59.1,324v-2.3"/><path class="cls-2" d="M59.1,321.7l4.2,2.4"/><path class="cls-2" d="M77.6,336.9a3.1,3.1,0,0,0,1.5,2.6"/><path class="cls-2" d="M78.2,336.6a3.2,3.2,0,0,0,1.5,2.5"/><line class="cls-2" x1="77.6" y1="336.9" x2="78.2" y2="336.6"/><path class="cls-2" d="M66.8,330.7a1.1,1.1,0,0,1-.5,1"/><path class="cls-2" d="M66.8,330.7l1.2.7"/><line class="cls-2" x1="59.1" y1="329.1" x2="59.1" y2="325"/><path class="cls-2" d="M95.6,347.3l-1.3-.7"/><line class="cls-2" x1="90.9" y1="340.2" x2="92.1" y2="339.4"/><path class="cls-2" d="M90.9,342.7l1.2-3.3"/><line class="cls-2" x1="90.9" y1="340" x2="92.1" y2="339.3"/><path class="cls-2" d="M90.9,340,81,334.4"/><line class="cls-2" x1="81" y1="334.4" x2="82.3" y2="333.6"/><path class="cls-2" d="M92.1,339.3l-9.8-5.7"/><path class="cls-2" d="M81,334.5l1.2,4.6"/><path class="cls-2" d="M81.8,339.4l-1.3-.8"/><path class="cls-2" d="M100.3,376.5V356.1"/><path class="cls-2" d="M101.5,375.8V355.3"/><path class="cls-2" d="M98.6,352.8v-1"/><path class="cls-2" d="M99,344.7l-4.2-2.4"/><line class="cls-2" x1="94.8" y1="342.3" x2="96.1" y2="341.6"/><path class="cls-2" d="M94.8,342.5l1.2,4.6"/><path class="cls-2" d="M80.5,338.6c0,.4,0,.8-.4,1"/><line class="cls-2" x1="77.6" y1="335.5" x2="81.9" y2="338"/><line class="cls-2" x1="78.2" y1="336.6" x2="81.2" y2="338.3"/><path class="cls-2" d="M80.4,339.3a.8.8,0,0,1-.7-.2"/><path class="cls-2" d="M80.1,339.6a.9.9,0,0,1-1-.1"/><path class="cls-2" d="M93.9,347.6a1.3,1.3,0,0,0,.4-1"/><line class="cls-2" x1="365.1" y1="143.7" x2="365.1" y2="145.2"/><path class="cls-2" d="M365.1,143.7l4.6,1.3"/><path class="cls-2" d="M365.1,145.2l3.4,1"/><path class="cls-2" d="M369.7,145.5l-1.3.7"/><path class="cls-2" d="M363.3,148.7l-2.2-2.7"/><path class="cls-2" d="M359.9,148.5l-.9.5"/><path class="cls-2" d="M358.6,148.8l-2.5,1.5"/><path class="cls-2" d="M356.5,150.5l-.8.5"/><line class="cls-2" x1="351.3" y1="151.7" x2="351.3" y2="153.2"/><path class="cls-2" d="M351.3,151.7l4.6,1.3"/><path class="cls-2" d="M351.3,153.2l3.5.9"/><path class="cls-2" d="M355.9,153.5l-1.3.7"/><path class="cls-2" d="M349.5,156.6l-2.2-2.6"/><path class="cls-2" d="M368.4,147a.8.8,0,0,1,.5.5"/><path class="cls-2" d="M354.6,154.2a1.1,1.1,0,0,1,.6.9"/><path class="cls-2" d="M354.6,154.9l.5.5"/><line class="cls-2" x1="280.2" y1="192.7" x2="280.2" y2="194.2"/><path class="cls-2" d="M280.2,192.7l4.6,1.3"/><path class="cls-2" d="M280.2,194.2l3.5,1"/><path class="cls-2" d="M284.8,194.5l-1.2.7"/><path class="cls-2" d="M278.5,197.7l-2.2-2.7"/><path class="cls-2" d="M275.1,197.5l-.9.5"/><path class="cls-2" d="M273.8,197.8l-2.6,1.4"/><path class="cls-2" d="M271.7,199.5l-.9.5"/><line class="cls-2" x1="266.5" y1="200.7" x2="266.5" y2="202.1"/><path class="cls-2" d="M266.5,200.7l4.6,1.3"/><path class="cls-2" d="M266.5,202.1l3.4,1"/><path class="cls-2" d="M271.1,202.4l-1.3.8"/><path class="cls-2" d="M264.7,205.6l-2.2-2.6"/><path class="cls-2" d="M283.6,196a1,1,0,0,1,.5.4"/><path class="cls-2" d="M269.8,203.2c.3.2.6.4.6.8"/><path class="cls-2" d="M269.8,203.9l.5.5"/><path class="cls-2" d="M301.2,182.4l-.8.5"/><path class="cls-2" d="M299.9,182.7l-3.6,2.1"/><path class="cls-2" d="M296.8,185l-.9.5"/><path class="cls-2" d="M292.4,187.5l-.9.5"/><path class="cls-2" d="M291.1,187.8l-3.6,2.1"/><path class="cls-2" d="M287.9,190.1l-.8.5"/><path class="cls-2" d="M287.1,190.6l-1.7-1"/><line class="cls-2" x1="295.5" y1="185.2" x2="292" y2="187.3"/><line class="cls-2" x1="322.7" y1="168.2" x2="322.7" y2="169.7"/><path class="cls-2" d="M322.7,168.2l4.6,1.3"/><path class="cls-2" d="M322.7,169.7l3.4,1"/><path class="cls-2" d="M327.3,170l-1.3.7"/><path class="cls-2" d="M320.9,173.2l-2.2-2.7"/><path class="cls-2" d="M317.5,173l-.9.5"/><path class="cls-2" d="M316.2,173.3l-2.5,1.4"/><path class="cls-2" d="M314.1,175l-.9.5"/><path class="cls-2" d="M313.2,175.5l-1.7-1"/><line class="cls-2" x1="308.9" y1="176.2" x2="308.9" y2="177.7"/><path class="cls-2" d="M308.9,176.2l4.6,1.3"/><path class="cls-2" d="M308.9,177.7l3.4.9"/><path class="cls-2" d="M313.5,177.5a.2.2,0,0,1,.2.2"/><path class="cls-2" d="M313.5,178l-1.3.7"/><path class="cls-2" d="M307.1,181.1l-2.2-2.6"/><path class="cls-2" d="M326,171.5a.8.8,0,0,1,.5.5"/><path class="cls-2" d="M312.2,179.4a1.2,1.2,0,0,1,.5.5"/><path class="cls-2" d="M343.6,157.9l-.8.5"/><path class="cls-2" d="M342.4,158.2l-3.6,2.1"/><path class="cls-2" d="M339.2,160.5l-.9.5"/><path class="cls-2" d="M334.8,163l-.9.5"/><path class="cls-2" d="M333.5,163.3l-3.6,2.1"/><path class="cls-2" d="M330.3,165.6l-.8.5"/><path class="cls-2" d="M329.5,166.1l-1.7-1"/><line class="cls-2" x1="337.9" y1="160.7" x2="334.4" y2="162.8"/><path class="cls-2" d="M267.9,219.1l-2.9.8"/><path class="cls-2" d="M292.1,225.1l-.5-.2"/><path class="cls-2" d="M258.8,206.9l-.9.5"/><path class="cls-2" d="M257.5,207.2l-3.6,2"/><path class="cls-2" d="M254.3,209.5l-.8.5"/><line class="cls-2" x1="253.1" y1="209.7" x2="251.3" y2="210.8"/><path class="cls-2" d="M370.2,140.6l1.7,1"/><line class="cls-2" x1="371.9" y1="141.6" x2="372.8" y2="141.1"/><line class="cls-2" x1="378.6" y1="137.3" x2="387.3" y2="142.3"/><path class="cls-2" d="M385.6,143.3l.8.5"/><line class="cls-2" x1="386.8" y1="143.5" x2="399.3" y2="150.7"/><path class="cls-2" d="M398.9,151l.8.4"/><path class="cls-2" d="M399.7,151.4l1.7-.9"/><path class="cls-2" d="M369,147.1a1,1,0,0,1-.5.8l-1,.4a3.7,3.7,0,0,1-2.1-.3"/><path class="cls-2" d="M355.2,155.1a1,1,0,0,1-.5.8,1.7,1.7,0,0,1-1,.3,3.5,3.5,0,0,1-2-.3"/><path class="cls-2" d="M284.2,196.1c0,.4-.3.6-.6.8l-1,.4a2.9,2.9,0,0,1-2-.4"/><path class="cls-2" d="M270.4,204a1.1,1.1,0,0,1-.6.9l-.9.3a3.7,3.7,0,0,1-2.1-.3"/><path class="cls-2" d="M313.7,177.7c0,.1-.1.2-.2.3"/><path class="cls-2" d="M326.6,171.6c0,.4-.3.6-.6.8l-.9.4a3.1,3.1,0,0,1-2.1-.4"/><path class="cls-2" d="M312.8,179.5a1.3,1.3,0,0,1-.5.9,1.9,1.9,0,0,1-1,.3,3.7,3.7,0,0,1-2.1-.3"/><line class="cls-2" x1="196.6" y1="279.7" x2="195.8" y2="280.2"/><line class="cls-2" x1="195.8" y1="280.2" x2="195.8" y2="280.7"/><line class="cls-2" x1="192.2" y1="282.3" x2="191.3" y2="282.8"/><line class="cls-2" x1="207.2" y1="273.6" x2="206.4" y2="274.1"/><line class="cls-2" x1="202.8" y1="276.2" x2="201.9" y2="276.7"/><line class="cls-2" x1="323.9" y1="206.2" x2="323" y2="206.7"/><line class="cls-2" x1="319.4" y1="208.8" x2="318.6" y2="209.3"/><line class="cls-2" x1="334.5" y1="200.1" x2="333.6" y2="200.6"/><line class="cls-2" x1="330" y1="202.7" x2="329.2" y2="203.2"/><path class="cls-2" d="M347.7,193v-8.2"/><line class="cls-2" x1="347.7" y1="184.8" x2="346.5" y2="184.1"/><line class="cls-2" x1="339.8" y1="197.1" x2="340.6" y2="196.6"/><line class="cls-2" x1="344.2" y1="195" x2="344.2" y2="194.5"/><line class="cls-2" x1="344.2" y1="194.5" x2="345.1" y2="194"/><line class="cls-2" x1="313.3" y1="212.4" x2="312.4" y2="212.9"/><line class="cls-2" x1="308.8" y1="214.9" x2="308" y2="215.4"/><line class="cls-2" x1="302.7" y1="218.5" x2="301.8" y2="219"/><line class="cls-2" x1="298.2" y1="221.6" x2="298.2" y2="221.1"/><line class="cls-2" x1="298.2" y1="221.1" x2="297.4" y2="221.6"/><line class="cls-2" x1="281.5" y1="230.7" x2="280.6" y2="231.2"/><line class="cls-2" x1="277" y1="233.3" x2="276.1" y2="233.8"/><line class="cls-2" x1="292.1" y1="224.6" x2="291.2" y2="225.1"/><line class="cls-2" x1="287.6" y1="227.2" x2="286.8" y2="227.7"/><line class="cls-2" x1="270.8" y1="236.9" x2="270" y2="237.3"/><line class="cls-2" x1="266.4" y1="239.4" x2="265.5" y2="239.9"/><line class="cls-2" x1="260.2" y1="243" x2="259.4" y2="243.5"/><line class="cls-2" x1="255.8" y1="246" x2="255.8" y2="245.6"/><line class="cls-2" x1="255.8" y1="245.6" x2="254.9" y2="246"/><line class="cls-2" x1="239" y1="255.2" x2="238.2" y2="255.7"/><line class="cls-2" x1="234.6" y1="257.8" x2="233.7" y2="258.3"/><line class="cls-2" x1="249.6" y1="249.1" x2="248.8" y2="249.6"/><line class="cls-2" x1="245.2" y1="251.7" x2="244.3" y2="252.2"/><line class="cls-2" x1="228.4" y1="261.4" x2="227.6" y2="261.8"/><line class="cls-2" x1="224" y1="263.9" x2="223.1" y2="264.4"/><line class="cls-2" x1="217.8" y1="267.5" x2="217" y2="268"/><line class="cls-2" x1="213.4" y1="270.5" x2="213.4" y2="270"/><line class="cls-2" x1="213.4" y1="270" x2="212.5" y2="270.5"/><line class="cls-2" x1="186" y1="285.8" x2="185.2" y2="286.3"/><line class="cls-2" x1="181.5" y1="288.4" x2="180.7" y2="288.9"/><path class="cls-2" d="M178,282.8l169.7-98"/><path class="cls-2" d="M176.8,282l169.7-97.9"/><line class="cls-2" x1="387.3" y1="142.3" x2="386" y2="143"/><line class="cls-2" x1="401.4" y1="150.5" x2="387.3" y2="142.3"/><line class="cls-2" x1="400.1" y1="151.2" x2="399.3" y2="150.7"/><line class="cls-2" x1="386.8" y1="143.5" x2="386" y2="143"/><path class="cls-2" d="M356.1,221.9v6.9"/><line class="cls-2" x1="356.1" y1="189.6" x2="354.8" y2="188.9"/><path class="cls-2" d="M186.8,302.8l3.6-3.4"/><path class="cls-2" d="M190.4,299.4h.3"/><path class="cls-2" d="M190.8,299.6V306"/><path class="cls-2" d="M190.8,306a.8.8,0,0,1-.4.7"/><path class="cls-2" d="M186.4,308.1v6.3"/><path class="cls-2" d="M186.4,314.4c0,.1,0,.3.1.3"/><path class="cls-2" d="M186.8,314.7l3.6-3.5"/><path class="cls-2" d="M190.8,311.5v6.3"/><polyline class="cls-2" points="186.4 287.6 239.4 257 303.1 220.2 356.1 189.6"/><polyline class="cls-2" points="185.1 286.8 238.1 256.2 301.8 219.5 354.8 188.9"/><path class="cls-2" d="M389,140.7l9.8,5.6"/><line class="cls-2" x1="398.8" y1="146.3" x2="400.1" y2="145.6"/><path class="cls-2" d="M390.2,139.9l9.9,5.7"/><line class="cls-2" x1="398.8" y1="146.5" x2="400.1" y2="145.7"/><path class="cls-2" d="M398.8,146.5l-.8,2"/><path class="cls-2" d="M400.1,145.7l-1.2,3.3"/><path class="cls-2" d="M402.7,148.6l2.6,1.5"/><path class="cls-2" d="M419.7,158.4l1,.6"/><line class="cls-2" x1="422" y1="169.5" x2="422.8" y2="169"/><line class="cls-2" x1="422" y1="175.2" x2="423.2" y2="174.5"/><path class="cls-2" d="M423.2,168.8v5.7"/><path class="cls-2" d="M380.8,136l4.2,2.4"/><line class="cls-2" x1="141.7" y1="276.3" x2="142.5" y2="276.8"/><path class="cls-2" d="M403.2,131.6l5.5,3.1"/><path class="cls-2" d="M409.1,134.5l-1.2-4.6"/><path class="cls-2" d="M407.9,129.7l9.8,5.7"/><path class="cls-2" d="M400.2,135.9v-1"/><path class="cls-2" d="M400.2,134.9l-.4-.2"/><path class="cls-2" d="M399.8,134.7v-1.3"/><path class="cls-2" d="M400.2,133.6v-1"/><path class="cls-2" d="M400.2,132.6l-.4-.2"/><path class="cls-2" d="M400.2,128.5v-.9"/><path class="cls-2" d="M399.8,125l4.2,2.4"/><line class="cls-2" x1="408.1" y1="133.6" x2="405.1" y2="131.9"/><path class="cls-2" d="M434.4,149.6l-3.7-2.1"/><path class="cls-2" d="M431.5,143.4l-9.8-5.7"/><path class="cls-2" d="M421.7,137.8l1.2,4.7"/><path class="cls-2" d="M440.9,179.8V167.6"/><path class="cls-2" d="M440.9,160.4v-1"/><path class="cls-2" d="M439.7,148.1l-4.2-2.5"/><line class="cls-2" x1="432.6" y1="147.8" x2="435.1" y2="149.2"/><line class="cls-2" x1="441.6" y1="155.8" x2="440.9" y2="156.1"/><line class="cls-2" x1="417" y1="139.5" x2="422.5" y2="142.7"/><line class="cls-2" x1="418.9" y1="139.9" x2="421.8" y2="141.6"/><line class="cls-2" x1="83.5" y1="312.6" x2="82.2" y2="313.3"/><line class="cls-2" x1="83.5" y1="312.4" x2="82.3" y2="313.2"/><path class="cls-2" d="M83.5,312.6l-1.2,3.2"/><line class="cls-2" x1="82.3" y1="315.8" x2="81" y2="316.6"/><path class="cls-2" d="M82.2,313.3,81,316.6"/><path class="cls-2" d="M81,316.6a.9.9,0,0,0,.5.7"/><path class="cls-2" d="M82.7,316.6l1.3.7"/><path class="cls-2" d="M81.5,317.3l5.5,3.2"/><path class="cls-2" d="M87.4,320.2l-1.2-4.6"/><path class="cls-2" d="M87.5,314.7l9.8,5.7"/><path class="cls-2" d="M86.2,315.5l9.8,5.6"/><line class="cls-2" x1="96.1" y1="323.8" x2="94.8" y2="324.5"/><path class="cls-2" d="M96,321.3l-1.2,3.2"/><path class="cls-2" d="M96.1,323.8a.8.8,0,0,0,.4.7"/><path class="cls-2" d="M94.8,324.5a1,1,0,0,0,.5.8"/><path class="cls-2" d="M96.5,324.5l1.3.8"/><path class="cls-2" d="M95.3,325.3l5.5,3.1"/><path class="cls-2" d="M101.2,328.2l-1.2-4.6"/><line class="cls-2" x1="101.3" y1="322.7" x2="100" y2="323.4"/><path class="cls-2" d="M101.3,322.7l9.8,5.7"/><path class="cls-2" d="M100,323.4l9.8,5.7"/><path class="cls-2" d="M109,333.2l3.7,2.1"/><path class="cls-2" d="M114.5,334.3c-.2-.9-.5-1.8-.7-2.8"/><line class="cls-2" x1="115" y1="330.6" x2="113.8" y2="331.4"/><path class="cls-2" d="M113.8,331.4l4.1,2.4"/><path class="cls-2" d="M120.5,343.6v5.7"/><line class="cls-2" x1="120.5" y1="349.3" x2="119.6" y2="349.8"/><path class="cls-2" d="M119.2,349.1v.9"/><line class="cls-2" x1="78.5" y1="327" x2="78.1" y2="327.3"/><path class="cls-2" d="M78.1,331.2v-3.9"/><path class="cls-2" d="M78.5,327.5v-1"/><path class="cls-2" d="M78.5,326.5l-.9-.5"/><path class="cls-2" d="M78.5,320.8v-1"/><path class="cls-2" d="M78.1,319.6v-8.8"/><path class="cls-2" d="M79.3,310l4.2,2.4"/><path class="cls-2" d="M78.1,310.8l4.2,2.4"/><line class="cls-2" x1="113.4" y1="335" x2="110.9" y2="333.6"/><line class="cls-2" x1="86.4" y1="319.4" x2="83.4" y2="317.7"/><line class="cls-2" x1="100.1" y1="327.3" x2="97.2" y2="325.6"/><path class="cls-2" d="M189.8,246.3l-.9.5"/><path class="cls-2" d="M163.8,261.3l.9-.5"/><path class="cls-2" d="M172.7,256.1l.8-.4"/><line class="cls-2" x1="147.4" y1="270.8" x2="146.5" y2="271.2"/><path class="cls-2" d="M206.3,236.8l.8-.5"/><path class="cls-2" d="M215.1,231.7l.8-.5"/><path class="cls-2" d="M232.2,221.8l-.8.5"/><path class="cls-2" d="M274.6,197.3l-.8.5"/><path class="cls-2" d="M291.1,187.8l.9-.5"/><path class="cls-2" d="M299.9,182.7l.9-.5"/><path class="cls-2" d="M248.7,212.3l.8-.5"/><path class="cls-2" d="M257.5,207.2l.9-.5"/><line class="cls-2" x1="234.6" y1="220.4" x2="237.7" y2="218.6"/><path class="cls-2" d="M316.2,173.3l.9-.5"/><path class="cls-2" d="M333.5,163.3l.9-.5"/><path class="cls-2" d="M342.4,158.2l.8-.5"/><path class="cls-2" d="M359.5,148.3l-.9.5"/><line class="cls-2" x1="382" y1="133.8" x2="383.3" y2="134.5"/><path class="cls-2" d="M382.1,135.2l1.2-.7"/><path class="cls-2" d="M384.1,132.6l4.3-2.5"/><path class="cls-2" d="M388.4,130.1v2"/><line class="cls-2" x1="390.5" y1="128.9" x2="391.8" y2="129.6"/><path class="cls-2" d="M389.2,131.1l2.6-1.5"/><path class="cls-2" d="M392.6,127.7l4.3-2.5"/><path class="cls-2" d="M396.9,125.2v2"/><path class="cls-2" d="M400.2,135.4l-.8.5"/><path class="cls-2" d="M399.4,135.9v1"/><path class="cls-2" d="M399.8,143.8l-1.4.8"/><path class="cls-2" d="M399.8,132.4v.2"/><line class="cls-2" x1="399.8" y1="128.3" x2="399.8" y2="132.4"/><path class="cls-2" d="M400.2,127.7c-.2,0-.4.4-.4.6"/><path class="cls-2" d="M251.1,211.9a.3.3,0,0,0-.3.3"/><path class="cls-2" d="M251,212.4l3.4,2"/><path class="cls-2" d="M260.9,215.1l-2.8.8"/><path class="cls-2" d="M257.9,216.4l3.4,2"/><path class="cls-2" d="M264.8,220.4l3.5,2"/><path class="cls-2" d="M268.3,222.4c.2.1.7.2.9-.1"/><path class="cls-2" d="M269.2,222.3l1.4-1.6"/><path class="cls-2" d="M271.5,220.6a37.9,37.9,0,0,1,3.4,2"/><path class="cls-2" d="M274.9,222.6a.2.2,0,0,1,.2.2"/><path class="cls-2" d="M274.8,223.1l-2.9.8"/><path class="cls-2" d="M271.8,224.4l2.4,1.4"/><path class="cls-2" d="M244.7,215.1l.8-.5"/><path class="cls-2" d="M245.1,214.3l3.6-2"/><path class="cls-2" d="M249.1,212.5l.9-.5"/><line class="cls-2" x1="249.5" y1="211.8" x2="251.3" y2="210.8"/><path class="cls-2" d="M251.3,210.8l.7.3"/><line class="cls-2" x1="237.8" y1="217.2" x2="237.8" y2="218.7"/><path class="cls-2" d="M237.8,217.2l4.6,1.3"/><path class="cls-2" d="M237.8,218.7l3.5.9"/><path class="cls-2" d="M242.4,219l-1.3.7"/><path class="cls-2" d="M236.1,222.2l-2.3-2.7"/><path class="cls-2" d="M232.6,222l-.8.5"/><path class="cls-2" d="M231.4,222.3l-2.6,1.4"/><path class="cls-2" d="M229.2,224l-.8.5"/><path class="cls-2" d="M228.4,224.5l-1.7-1"/><line class="cls-2" x1="224" y1="225.2" x2="224" y2="226.6"/><path class="cls-2" d="M224,225.2l4.6,1.2"/><path class="cls-2" d="M224,226.6l3.5,1"/><path class="cls-2" d="M228.6,226.9l-1.2.8"/><path class="cls-2" d="M222.3,230.1l-2.2-2.6"/><path class="cls-2" d="M241.1,220.5a1.3,1.3,0,0,1,.6.4"/><path class="cls-2" d="M227.4,227.7a.9.9,0,0,1,.6.8"/><path class="cls-2" d="M227.4,228.4a1.2,1.2,0,0,1,.5.5"/><path class="cls-2" d="M218.5,239.6l-2.9.8"/><path class="cls-2" d="M225.4,243.6l-2.8.8"/><path class="cls-2" d="M232.4,247.6l-2.9.8"/><path class="cls-2" d="M216.4,231.4l-.9.5"/><path class="cls-2" d="M215.1,231.7l-3.6,2"/><path class="cls-2" d="M211.9,234l-.8.5"/><line class="cls-2" x1="210.6" y1="234.2" x2="208.9" y2="235.2"/><path class="cls-2" d="M250.8,212.2a.2.2,0,0,0,.2.2"/><path class="cls-2" d="M271.6,224.2a.2.2,0,0,0,.2.2"/><path class="cls-2" d="M241.8,220.6c0,.3-.3.6-.6.8a1.7,1.7,0,0,1-1,.3,2.8,2.8,0,0,1-2-.3"/><path class="cls-2" d="M228,228.5a1.1,1.1,0,0,1-.6.9l-1,.3a3.5,3.5,0,0,1-2-.3"/><path class="cls-2" d="M131.1,280.1l-.8.5"/><path class="cls-2" d="M122.3,285.3l-.9.4"/><path class="cls-2" d="M104.1,295.7l.8-.4"/><path class="cls-2" d="M88.7,304.6l-.9.5"/><path class="cls-2" d="M76,312.4v-1.9"/><path class="cls-2" d="M76,310.5l-4.2,2.4"/><line class="cls-2" x1="69.7" y1="314.2" x2="70.9" y2="314.9"/><path class="cls-2" d="M70.9,314.9l-2.5,1.5"/><path class="cls-2" d="M67.5,317.3v-1.9"/><path class="cls-2" d="M67.5,315.4l-4.2,2.4"/><line class="cls-2" x1="61.2" y1="319.1" x2="62.4" y2="319.8"/><path class="cls-2" d="M62.4,319.8l-2,1.2"/><path class="cls-2" d="M59.1,324v1"/><path class="cls-2" d="M59.1,331.3v1"/><path class="cls-2" d="M76.7,330.4l1.4-.9"/><line class="cls-2" x1="77.6" y1="326.5" x2="77.6" y2="325.5"/><line class="cls-2" x1="78.1" y1="325.3" x2="78.1" y2="321.5"/><line class="cls-2" x1="77.6" y1="321.8" x2="77.6" y2="320.8"/><line class="cls-2" x1="77.6" y1="320.8" x2="78.5" y2="320.3"/><line class="cls-2" x1="350.4" y1="191.4" x2="350.4" y2="190.9"/><line class="cls-2" x1="350.4" y1="190.9" x2="351.2" y2="190.4"/><line class="cls-2" x1="354.8" y1="188.4" x2="355.7" y2="187.9"/><line class="cls-2" x1="371.6" y1="178.7" x2="372.4" y2="178.2"/><line class="cls-2" x1="376.1" y1="176.1" x2="376.9" y2="175.6"/><line class="cls-2" x1="361" y1="184.8" x2="361.8" y2="184.3"/><line class="cls-2" x1="365.4" y1="182.7" x2="365.4" y2="182.2"/><line class="cls-2" x1="365.4" y1="182.2" x2="366.3" y2="181.8"/><line class="cls-2" x1="398.1" y1="163.4" x2="397.3" y2="163.9"/><line class="cls-2" x1="393.7" y1="166.4" x2="393.2" y2="166.2"/><line class="cls-2" x1="393.7" y1="166" x2="392.8" y2="166.4"/><line class="cls-2" x1="387.5" y1="169.5" x2="386.7" y2="170"/><line class="cls-2" x1="386.7" y1="170" x2="386.7" y2="170.5"/><line class="cls-2" x1="383.1" y1="172.6" x2="383.1" y2="172.1"/><line class="cls-2" x1="383.1" y1="172.1" x2="382.2" y2="172.6"/><line class="cls-2" x1="411.4" y1="148.1" x2="411.4" y2="156.2"/><line class="cls-2" x1="413.6" y1="171.1" x2="413.6" y2="172.9"/><path class="cls-2" d="M347.7,184.8l31.9-18.4,31.8-18.3"/><path class="cls-2" d="M346.5,184.1l31.8-18.4,31.8-18.4"/><line class="cls-2" x1="178" y1="282.8" x2="176.8" y2="282"/><path class="cls-2" d="M178,282.8v8.1"/><line class="cls-2" x1="175.4" y1="292" x2="174.5" y2="292.5"/><line class="cls-2" x1="170.9" y1="294.5" x2="170.1" y2="295"/><polyline class="cls-2" points="170.1 295 170.1 295.5 170.1 295.5"/><line class="cls-2" x1="154.2" y1="304.2" x2="153.3" y2="304.7"/><line class="cls-2" x1="149.7" y1="306.8" x2="148.9" y2="307.3"/><line class="cls-2" x1="164.8" y1="298.1" x2="163.9" y2="298.6"/><line class="cls-2" x1="160.3" y1="300.7" x2="159.5" y2="301.2"/><line class="cls-2" x1="127.7" y1="319.5" x2="128.5" y2="319"/><line class="cls-2" x1="128.5" y1="319" x2="128.5" y2="319.5"/><line class="cls-2" x1="132.1" y1="316.9" x2="133" y2="316.5"/><polyline class="cls-2" points="138.3 313.9 138.3 313.9 138.3 313.4"/><line class="cls-2" x1="138.3" y1="313.4" x2="139.1" y2="312.9"/><line class="cls-2" x1="142.7" y1="310.8" x2="143.6" y2="310.3"/><line class="cls-2" x1="110.9" y1="358.1" x2="110.9" y2="360.7"/><line class="cls-2" x1="114.4" y1="319.5" x2="113.1" y2="318.8"/><line class="cls-2" x1="114.4" y1="319.5" x2="114.4" y2="331"/><line class="cls-2" x1="113.1" y1="318.8" x2="113.1" y2="334.8"/><path class="cls-2" d="M178,282.8l-31.8,18.3-31.8,18.4"/><path class="cls-2" d="M176.8,282,145,300.4l-31.9,18.4"/><path class="cls-2" d="M355.7,221.7l-3.6,3.5"/><path class="cls-2" d="M351.7,224.9v-6.4"/><path class="cls-2" d="M356.1,216.5v-6.4"/><path class="cls-2" d="M355.7,209.8l-3.6,3.5"/><path class="cls-2" d="M351.7,213.1v-6.4"/><line class="cls-2" x1="419.7" y1="161" x2="419.7" y2="152.9"/><line class="cls-2" x1="422.8" y1="179" x2="422.8" y2="178"/><polyline class="cls-2" points="422.8 178 423.2 177.8 429.5 174.1 440.9 167.6"/><line class="cls-2" x1="440.5" y1="160.6" x2="440.5" y2="159.6"/><line class="cls-2" x1="440.5" y1="159.6" x2="442.2" y2="158.7"/><line class="cls-2" x1="442.2" y1="148.1" x2="438.9" y2="150"/><line class="cls-2" x1="440.9" y1="147.3" x2="438" y2="149"/><polyline class="cls-2" points="438 151 438 150.5 438 149"/><line class="cls-2" x1="438" y1="149" x2="436.8" y2="148.3"/><line class="cls-2" x1="438" y1="149" x2="433.8" y2="151.4"/><line class="cls-2" x1="436.8" y1="148.3" x2="432.5" y2="150.7"/><line class="cls-2" x1="432.9" y1="153.4" x2="431.7" y2="152.7"/><line class="cls-2" x1="432.9" y1="153.4" x2="430.4" y2="154.9"/><polyline class="cls-2" points="429.5 155.8 429.5 155.4 429.5 153.9"/><line class="cls-2" x1="429.5" y1="153.9" x2="425.3" y2="156.3"/><line class="cls-2" x1="424.5" y1="158.3" x2="423.2" y2="157.6"/><line class="cls-2" x1="424.5" y1="158.3" x2="419.7" y2="161"/><line class="cls-2" x1="423.2" y1="157.6" x2="419.7" y2="159.6"/><path class="cls-2" d="M440.9,152.1c0-.2.1-.3.2-.5s.2-.2.4-.1"/><path class="cls-2" d="M440.9,156.1v-4"/><path class="cls-2" d="M411.1,175.8a.9.9,0,0,1-1,.1"/><path class="cls-2" d="M411.1,172.6l4.2-2.5"/><path class="cls-2" d="M415.3,170.1c.3-.1.7-.3,1-.1"/><path class="cls-2" d="M415.3,173.4l-4.2,2.4"/><path class="cls-2" d="M414,172.6l-4.2,2.5"/><line class="cls-2" x1="422.8" y1="169" x2="423.7" y2="168.5"/><line class="cls-2" x1="423.7" y1="169.5" x2="423.2" y2="169.8"/><line class="cls-2" x1="422" y1="175.7" x2="422" y2="169"/><line class="cls-2" x1="422" y1="169" x2="422.8" y2="168.5"/><path class="cls-2" d="M356.1,189.6l31.8-18.4,31.8-18.3"/><path class="cls-2" d="M354.8,188.9l31.8-18.4,31.8-18.4"/><path class="cls-2" d="M441,156.3c-.1,0-.1-.1-.1-.2"/><path class="cls-2" d="M410.1,175.9a.7.7,0,0,1-.5-.8,3,3,0,0,1,.2-1,2.7,2.7,0,0,1,1.3-1.5"/><path class="cls-2" d="M415.4,170a2.9,2.9,0,0,1-1.4,2.6"/><path class="cls-2" d="M416.3,170a1.1,1.1,0,0,1,.4.9,4.4,4.4,0,0,1-.2,1,2.9,2.9,0,0,1-1.2,1.5"/><line class="cls-2" x1="90.3" y1="315.7" x2="90.3" y2="313.7"/><line class="cls-2" x1="104.4" y1="321.9" x2="90.3" y2="313.7"/><line class="cls-2" x1="105.7" y1="321.2" x2="91.6" y2="313"/><line class="cls-2" x1="119.6" y1="344.1" x2="118.8" y2="344.6"/></svg>