<svg id="Layer_1" data-name="Layer 1" xmlns="http://www.w3.org/2000/svg" viewBox="0 0 425.2 425.2"><defs><style>.cls-1,.cls-3{fill:none;stroke:#1d1d1b;stroke-miterlimit:10;}.cls-1{stroke-width:0.5px;}.cls-2{font-size:6px;}.cls-2,.cls-4{fill:#1d1d1b;font-family:Monotxt;}.cls-3{stroke-width:0.25px;}.cls-4{font-size:8.47px;}</style></defs><g id="POLYLINE"><polygon class="cls-1" points="307.17 81.5 307.17 82.4 309.05 82.4 309.05 78.8 326.23 78.8 326.23 162.46 317.82 162.46 317.82 164.33 318.73 164.33 318.73 166.06 317.82 166.06 317.82 167.93 321.43 167.93 321.43 170.56 317.82 170.56 317.82 172.43 318.73 172.43 318.73 174.16 317.82 174.16 317.82 176.03 326.23 176.03 326.23 252.49 317.82 252.49 317.82 254.36 318.73 254.36 318.73 256.09 317.82 256.09 317.82 257.96 321.43 257.96 321.43 260.59 317.82 260.59 317.82 262.47 318.73 262.47 318.73 264.19 317.82 264.19 317.82 266.07 326.23 266.07 326.23 342.52 317.82 342.52 317.82 344.4 318.73 344.4 318.73 346.12 317.82 346.12 317.82 348 321.43 348 321.43 350.62 317.82 350.62 317.82 352.5 318.73 352.5 318.73 354.23 317.82 354.23 317.82 356.1 326.23 356.1 326.23 394.29 309.05 394.29 309.05 390.69 307.17 390.69 307.17 391.59 302.71 391.59 302.71 388.89 303.61 388.89 303.61 387.09 296.4 387.09 296.4 388.89 297.31 388.89 297.31 391.59 292.84 391.59 292.84 390.69 290.96 390.69 290.96 394.29 278.59 394.29 278.59 379.36 282.19 379.36 282.19 377.48 281.29 377.48 281.29 366.15 282.19 366.15 282.19 364.28 278.59 364.28 278.59 356.1 282.19 356.1 282.19 354.23 281.29 354.23 281.29 352.5 282.19 352.5 282.19 350.62 278.59 350.62 278.59 348 282.19 348 282.19 346.12 281.29 346.12 281.29 344.4 282.19 344.4 282.19 342.52 278.59 342.52 278.59 334.34 282.19 334.34 282.19 332.47 281.29 332.47 281.29 321.14 282.19 321.14 282.19 319.26 278.59 319.26 278.59 289.33 282.19 289.33 282.19 287.45 281.29 287.45 281.29 276.12 282.19 276.12 282.19 274.25 278.59 274.25 278.59 266.07 282.19 266.07 282.19 264.19 281.29 264.19 281.29 262.47 282.19 262.47 282.19 260.59 278.59 260.59 278.59 257.96 282.19 257.96 282.19 256.09 281.29 256.09 281.29 254.36 282.19 254.36 282.19 252.49 278.59 252.49 278.59 244.31 282.19 244.31 282.19 242.43 281.29 242.43 281.29 231.1 282.19 231.1 282.19 229.23 278.59 229.23 278.59 199.29 282.19 199.29 282.19 197.42 281.29 197.42 281.29 186.09 282.19 186.09 282.19 184.21 278.59 184.21 278.59 176.03 282.19 176.03 282.19 174.16 281.29 174.16 281.29 172.43 282.19 172.43 282.19 170.56 278.59 170.56 278.59 167.93 282.19 167.93 282.19 166.06 281.29 166.06 281.29 164.33 282.19 164.33 282.19 162.46 278.59 162.46 278.59 154.28 282.19 154.28 282.19 152.4 281.29 152.4 281.29 141.07 282.19 141.07 282.19 139.2 278.59 139.2 278.59 109.26 282.19 109.26 282.19 107.39 281.29 107.39 281.29 96.06 282.19 96.06 282.19 94.18 278.59 94.18 278.59 78.8 290.96 78.8 290.96 82.4 291 82.4 292.84 82.4 292.84 81.5 297.31 81.5 297.31 84.2 296.4 84.2 296.4 86 303.61 86 303.61 84.2 302.71 84.2 302.71 81.5 307.17 81.5"/></g><g id="POLYLINE-2" data-name="POLYLINE"><polygon class="cls-1" points="257.65 81.5 257.65 82.4 259.53 82.4 259.53 78.8 276.71 78.8 276.71 162.46 268.31 162.46 268.31 164.33 269.21 164.33 269.21 166.06 268.31 166.06 268.31 167.93 271.91 167.93 271.91 170.56 268.31 170.56 268.31 172.43 269.21 172.43 269.21 174.16 268.31 174.16 268.31 176.03 276.71 176.03 276.71 252.49 268.31 252.49 268.31 254.36 269.21 254.36 269.21 256.09 268.31 256.09 268.31 257.96 271.91 257.96 271.91 260.59 268.31 260.59 268.31 262.47 269.21 262.47 269.21 264.19 268.31 264.19 268.31 266.07 276.71 266.07 276.71 342.52 268.31 342.52 268.31 344.4 269.21 344.4 269.21 346.12 268.31 346.12 268.31 348 271.91 348 271.91 350.62 268.31 350.62 268.31 352.5 269.21 352.5 269.21 354.23 268.31 354.23 268.31 356.1 276.71 356.1 276.71 394.29 259.53 394.29 259.53 390.69 257.65 390.69 257.65 391.59 253.19 391.59 253.19 388.89 254.09 388.89 254.09 387.09 246.89 387.09 246.89 388.89 247.79 388.89 247.79 391.59 243.32 391.59 243.32 390.69 241.45 390.69 241.45 394.29 229.07 394.29 229.07 379.36 232.67 379.36 232.67 377.48 231.77 377.48 231.77 366.15 232.67 366.15 232.67 364.28 229.07 364.28 229.07 356.1 232.67 356.1 232.67 354.23 231.77 354.23 231.77 352.5 232.67 352.5 232.67 350.62 229.07 350.62 229.07 348 232.67 348 232.67 346.12 231.77 346.12 231.77 344.4 232.67 344.4 232.67 342.52 229.07 342.52 229.07 334.34 232.67 334.34 232.67 332.47 231.77 332.47 231.77 321.14 232.67 321.14 232.67 319.26 229.07 319.26 229.07 289.33 232.67 289.33 232.67 287.45 231.77 287.45 231.77 276.12 232.67 276.12 232.67 274.25 229.07 274.25 229.07 266.07 232.67 266.07 232.67 264.19 231.77 264.19 231.77 262.47 232.67 262.47 232.67 260.59 229.07 260.59 229.07 257.96 232.67 257.96 232.67 256.09 231.77 256.09 231.77 254.36 232.67 254.36 232.67 252.49 229.07 252.49 229.07 244.31 232.67 244.31 232.67 242.43 231.77 242.43 231.77 231.1 232.67 231.1 232.67 229.23 229.07 229.23 229.07 199.29 232.67 199.29 232.67 197.42 231.77 197.42 231.77 186.09 232.67 186.09 232.67 184.21 229.07 184.21 229.07 176.03 232.67 176.03 232.67 174.16 231.77 174.16 231.77 172.43 232.67 172.43 232.67 170.56 229.07 170.56 229.07 167.93 232.67 167.93 232.67 166.06 231.77 166.06 231.77 164.33 232.67 164.33 232.67 162.46 229.07 162.46 229.07 154.28 232.67 154.28 232.67 152.4 231.77 152.4 231.77 141.07 232.67 141.07 232.67 139.2 229.07 139.2 229.07 109.26 232.67 109.26 232.67 107.39 231.77 107.39 231.77 96.06 232.67 96.06 232.67 94.18 229.07 94.18 229.07 78.8 241.45 78.8 241.45 82.4 241.49 82.4 243.32 82.4 243.32 81.5 247.79 81.5 247.79 84.2 246.89 84.2 246.89 86 254.09 86 254.09 84.2 253.19 84.2 253.19 81.5 257.65 81.5"/></g><g id="POLYLINE-3" data-name="POLYLINE"><polygon class="cls-1" points="254.61 75.87 269.54 75.87 269.54 72.27 271.42 72.27 271.42 73.17 283.35 73.17 283.35 72.27 285.22 72.27 285.22 75.87 300.15 75.87 300.15 72.27 302.03 72.27 302.03 73.17 319.66 73.17 319.66 60.04 318.76 60.04 318.76 58.17 322.36 58.17 322.36 50.74 318.76 50.74 318.76 48.86 319.66 48.86 319.66 35.73 302.03 35.73 302.03 36.63 300.15 36.63 300.15 33.03 285.22 33.03 285.22 36.63 283.35 36.63 283.35 35.73 271.42 35.73 271.42 36.63 269.54 36.63 269.54 33.03 254.61 33.03 254.61 36.63 252.74 36.63 252.74 35.73 235.1 35.73 235.1 48.86 236 48.86 236 50.74 232.4 50.74 232.4 58.17 236 58.17 236 60.04 235.1 60.04 235.1 73.17 252.74 73.17 252.74 72.27 254.61 72.27 254.61 75.87"/></g><g id="POLYLINE-4" data-name="POLYLINE"><path class="cls-1" d="M26.05,158a.93.93,0,0,1,1.31.86v19.87a1,1,0,0,1-.08.37.94.94,0,0,1-1.23.49l-9.19-4V182h.9v1.88h-3.6v14.93h3.6v1.87h-.9v7.58h.9v1.88h-3.6v7.43h3.6v1.87h-.9V227h.9v1.87h-3.6v14.94h3.6v1.87h-.9V252l9.19-4h0a1,1,0,0,1,1.31.87v19.86a.91.91,0,0,1-.08.37.93.93,0,0,1-1.23.49l-9.19-4V272h.9v1.87h-3.6V288.8h3.6v1.88h-.9v7.57h.9v1.88h-3.6v7.43h3.6v1.87h-.9V317h.9v1.88h-3.6v14.93h3.6v1.87h-.9v6.36l9.19-4h0a.93.93,0,0,1,1.31.86v19.86a1,1,0,0,1-.08.38.93.93,0,0,1-1.23.48l-9.19-4V362h.9v1.87h-3.6v14.93h3.6v1.88h-.9v13.13H44.09v-3.6H46v.9H72.3v-.9h1.88v3.6h27.23V380.71h-.9v-1.88h3.6V363.9h-3.6V362h.9v-6.36l-9.19,4h0a1,1,0,0,1-.37.08.94.94,0,0,1-.94-.94V338.93a.84.84,0,0,1,.08-.38.93.93,0,0,1,1.23-.48l9.19,4v-6.36h-.9v-1.87h3.6V318.89h-3.6V317h.9v-7.58h-.9v-1.87h3.6v-7.43h-3.6v-1.88h.9v-7.57h-.9V288.8h3.6V273.87h-3.6V272h.9v-6.36l-9.19,4h0a1,1,0,0,1-.37.08.94.94,0,0,1-.94-.94V248.9a.84.84,0,0,1,.08-.38.94.94,0,0,1,1.23-.49l9.19,4v-6.36h-.9v-1.87h3.6V228.85h-3.6V227h.9V219.4h-.9v-1.87h3.6V210.1h-3.6v-1.88h.9v-7.58h-.9v-1.87h3.6V183.84h-3.6V182h.9v-6.35l-9.19,4h0a1,1,0,0,1-.37.08.94.94,0,0,1-.94-.94V158.86a.8.8,0,0,1,.08-.37.93.93,0,0,1,1.23-.49l9.19,4v-6.36h-.9v-1.88h3.6V138.82h-3.6V137h.9v-7.58h-.9v-1.88h3.6v-7.42h-3.6v-1.88h.9v-7.58h-.9v-1.87h3.6V93.81h-3.6V91.93h.9V78.8H74.18v3.6H72.3v-.9H46v.9H44.09V78.8H16.86V91.93h.9v1.88h-3.6v14.93h3.6v1.87h-.9v7.58h.9v1.88h-3.6v7.42h3.6v1.88h-.9V137h.9v1.87h-3.6v14.93h3.6v1.88h-.9V162l9.19-4Z"/></g><g id="POLYLINE-5" data-name="POLYLINE"><path class="cls-1" d="M117.88,158a1,1,0,0,1,.38-.08.94.94,0,0,1,.93.94v19.87a.94.94,0,0,1-.07.37,1,1,0,0,1-1.24.49l-9.19-4V182h.9v1.88H106v14.93h3.6v1.87h-.9v7.58h.9v1.88H106v7.43h3.6v1.87h-.9V227h.9v1.87H106v14.94h3.6v1.87h-.9V252l9.19-4h0a1,1,0,0,1,.38-.07.94.94,0,0,1,.93.94v19.86a.9.9,0,0,1-.07.37.94.94,0,0,1-1.24.49l-9.19-4V272h.9v1.87H106V288.8h3.6v1.88h-.9v7.57h.9v1.88H106v7.43h3.6v1.87h-.9V317h.9v1.88H106v14.93h3.6v1.87h-.9v6.36l9.19-4h0a1,1,0,0,1,.38-.08.94.94,0,0,1,.93.94v19.86a1,1,0,0,1-.07.38.94.94,0,0,1-1.24.48l-9.19-4V362h.9v1.87H106v14.93h3.6v1.88h-.9v13.13h27.23v-3.6h1.88v.9h26.33v-.9H166v3.6h27.24V380.71h-.91v-1.88H196V363.9h-3.61V362h.91v-6.36l-9.2,4h0a.93.93,0,0,1-1.31-.86V338.93a1,1,0,0,1,.08-.38.93.93,0,0,1,1.23-.48l9.2,4v-6.36h-.91v-1.87H196V318.89h-3.61V317h.91v-7.58h-.91v-1.87H196v-7.43h-3.61v-1.88h.91v-7.57h-.91V288.8H196V273.87h-3.61V272h.91v-6.36l-9.2,4h0a.93.93,0,0,1-1.31-.86V248.9a1,1,0,0,1,.08-.38.94.94,0,0,1,1.23-.49l9.2,4v-6.36h-.91v-1.87H196V228.85h-3.61V227h.91V219.4h-.91v-1.87H196V210.1h-3.61v-1.88h.91v-7.58h-.91v-1.87H196V183.84h-3.61V182h.91v-6.35l-9.2,4h0a.93.93,0,0,1-1.31-.86V158.86a1,1,0,0,1,.08-.37.94.94,0,0,1,1.23-.49l9.2,4v-6.36h-.91v-1.88H196V138.82h-3.61V137h.91v-7.58h-.91v-1.88H196v-7.42h-3.61v-1.88h.91v-7.58h-.91v-1.87H196V93.81h-3.61V91.93h.91V78.8H166v3.6h-1.88v-.9H137.8v.9h-1.88V78.8H108.69V91.93h.9v1.88H106v14.93h3.6v1.87h-.9v7.58h.9v1.88H106v7.42h3.6v1.88h-.9V137h.9v1.87H106v14.93h3.6v1.88h-.9V162l9.19-4Z"/></g><g id="POLYLINE-6" data-name="POLYLINE"><polygon class="cls-1" points="128.42 75.87 143.35 75.87 143.35 72.27 145.22 72.27 145.22 73.17 157.15 73.17 157.15 72.27 159.03 72.27 159.03 75.87 173.96 75.87 173.96 72.27 175.83 72.27 175.83 73.17 193.47 73.17 193.47 60.04 192.56 60.04 192.56 58.17 196.17 58.17 196.17 50.74 192.56 50.74 192.56 48.86 193.47 48.86 193.47 35.73 175.83 35.73 175.83 36.63 173.96 36.63 173.96 33.03 159.03 33.03 159.03 36.63 157.15 36.63 157.15 35.73 145.22 35.73 145.22 36.63 143.35 36.63 143.35 33.03 128.42 33.03 128.42 36.63 126.54 36.63 126.54 35.73 108.91 35.73 108.91 48.86 109.81 48.86 109.81 50.74 106.21 50.74 106.21 58.17 109.81 58.17 109.81 60.04 108.91 60.04 108.91 73.17 126.54 73.17 126.54 72.27 128.42 72.27 128.42 75.87"/></g><g id="POLYLINE-7" data-name="POLYLINE"><polygon class="cls-1" points="36.58 75.87 51.51 75.87 51.51 72.27 53.39 72.27 53.39 73.17 65.32 73.17 65.32 72.27 67.19 72.27 67.19 75.87 82.13 75.87 82.13 72.27 84 72.27 84 73.17 101.63 73.17 101.63 60.04 100.73 60.04 100.73 58.17 104.33 58.17 104.33 50.74 100.73 50.74 100.73 48.86 101.63 48.86 101.63 35.73 84 35.73 84 36.63 82.13 36.63 82.13 33.03 67.19 33.03 67.19 36.63 65.32 36.63 65.32 35.73 53.39 35.73 53.39 36.63 51.51 36.63 51.51 33.03 36.58 33.03 36.58 36.63 34.71 36.63 34.71 35.73 17.08 35.73 17.08 48.86 17.98 48.86 17.98 50.74 14.38 50.74 14.38 58.17 17.98 58.17 17.98 60.04 17.08 60.04 17.08 73.17 34.71 73.17 34.71 72.27 36.58 72.27 36.58 75.87"/></g><g id="MTEXT"><text class="cls-2" transform="translate(262.25 56.33)">WALL-S/B</text></g><g id="MTEXT-2" data-name="MTEXT"><text class="cls-2" transform="translate(251.85 273.93) rotate(-90)">WALL-S/C</text></g><g id="MTEXT-3" data-name="MTEXT"><text class="cls-2" transform="translate(302.47 273.93) rotate(-90)">WALL-S/C</text></g><g id="MTEXT-4" data-name="MTEXT"><text class="cls-2" transform="translate(135.84 237.13)">WALL-S/A</text></g><g id="MTEXT-5" data-name="MTEXT"><text class="cls-2" transform="translate(44 237.13)">WALL-S/A</text></g><g id="MTEXT-6" data-name="MTEXT"><text class="cls-2" transform="translate(44.22 56.33)">WALL-S/B</text></g><g id="MTEXT-7" data-name="MTEXT"><text class="cls-2" transform="translate(136.06 56.33)">WALL-S/B</text></g><g id="POLYLINE-8" data-name="POLYLINE"><path class="cls-1" d="M318.73,120.48V128a.71.71,0,0,0,1.42,0v-7.5a.71.71,0,1,0-1.42,0Z"/></g><g id="POLYLINE-9" data-name="POLYLINE"><path class="cls-1" d="M318.73,210.51V218a.71.71,0,1,0,1.42,0v-7.5a.71.71,0,1,0-1.42,0Z"/></g><g id="POLYLINE-10" data-name="POLYLINE"><path class="cls-1" d="M318.73,300.54v7.51a.71.71,0,0,0,1.42,0v-7.51a.71.71,0,0,0-1.42,0Z"/></g><g id="POLYLINE-11" data-name="POLYLINE"><path class="cls-1" d="M279.86,120.48V128a.72.72,0,0,0,1.43,0v-7.5a.72.72,0,1,0-1.43,0Z"/></g><g id="POLYLINE-12" data-name="POLYLINE"><path class="cls-1" d="M279.86,210.51V218a.72.72,0,1,0,1.43,0v-7.5a.72.72,0,0,0-1.43,0Z"/></g><g id="POLYLINE-13" data-name="POLYLINE"><path class="cls-1" d="M279.86,300.54v7.51a.72.72,0,0,0,1.43,0v-7.51a.72.72,0,0,0-1.43,0Z"/></g><g id="POLYLINE-14" data-name="POLYLINE"><polygon class="cls-1" points="317.82 364.28 317.82 366.15 318.73 366.15 318.73 377.48 317.82 377.48 317.82 379.36 319.63 379.36 319.63 380.26 321.5 380.26 321.5 363.38 319.63 363.38 319.63 364.28 317.82 364.28"/></g><g id="POLYLINE-15" data-name="POLYLINE"><polygon class="cls-1" points="301.92 305.68 301.92 306.58 303.8 306.58 303.8 302.01 301.92 302.01 301.92 302.91 298.09 302.91 298.09 302.01 296.22 302.01 296.22 306.58 298.09 306.58 298.09 305.68 301.92 305.68"/></g><g id="POLYLINE-16" data-name="POLYLINE"><polygon class="cls-1" points="298.09 212.87 298.09 211.97 296.22 211.97 296.22 216.55 298.09 216.55 298.09 215.65 301.92 215.65 301.92 216.55 303.8 216.55 303.8 211.97 301.92 211.97 301.92 212.87 298.09 212.87"/></g><g id="POLYLINE-17" data-name="POLYLINE"><polygon class="cls-1" points="298.09 122.84 298.09 121.94 296.22 121.94 296.22 126.52 298.09 126.52 298.09 125.62 301.92 125.62 301.92 126.52 303.8 126.52 303.8 121.94 301.92 121.94 301.92 122.84 298.09 122.84"/></g><g id="POLYLINE-18" data-name="POLYLINE"><polygon class="cls-1" points="319.63 318.36 319.63 319.26 317.82 319.26 317.82 321.14 318.73 321.14 318.73 332.47 317.82 332.47 317.82 334.34 319.63 334.34 319.63 335.24 321.5 335.24 321.5 318.36 319.63 318.36"/></g><g id="POLYLINE-19" data-name="POLYLINE"><polygon class="cls-1" points="319.63 273.35 319.63 274.25 317.82 274.25 317.82 276.12 318.73 276.12 318.73 287.45 317.82 287.45 317.82 289.33 319.63 289.33 319.63 290.23 321.5 290.23 321.5 273.35 319.63 273.35"/></g><g id="POLYLINE-20" data-name="POLYLINE"><polygon class="cls-1" points="319.63 228.33 319.63 229.23 317.82 229.23 317.82 231.1 318.73 231.1 318.73 242.43 317.82 242.43 317.82 244.31 319.63 244.31 319.63 245.21 321.5 245.21 321.5 228.33 319.63 228.33"/></g><g id="POLYLINE-21" data-name="POLYLINE"><polygon class="cls-1" points="319.63 138.3 319.63 139.2 317.82 139.2 317.82 141.07 318.73 141.07 318.73 152.4 317.82 152.4 317.82 154.28 319.63 154.28 319.63 155.18 321.5 155.18 321.5 138.3 319.63 138.3"/></g><g id="POLYLINE-22" data-name="POLYLINE"><polygon class="cls-1" points="318.73 96.06 318.73 107.39 317.82 107.39 317.82 109.26 319.63 109.26 319.63 110.16 321.5 110.16 321.5 93.28 319.63 93.28 319.63 94.18 317.82 94.18 317.82 96.06 318.73 96.06"/></g><g id="POLYLINE-23" data-name="POLYLINE"><polygon class="cls-1" points="319.63 199.29 317.82 199.29 317.82 197.42 318.73 197.42 318.73 186.09 317.82 186.09 317.82 184.21 319.63 184.21 319.63 183.31 321.5 183.31 321.5 200.19 319.63 200.19 319.63 199.29"/></g><g id="POLYLINE-24" data-name="POLYLINE"><path class="cls-1" d="M269.21,120.48V128a.71.71,0,0,0,1.42,0v-7.5a.71.71,0,1,0-1.42,0Z"/></g><g id="POLYLINE-25" data-name="POLYLINE"><path class="cls-1" d="M269.21,210.51V218a.71.71,0,1,0,1.42,0v-7.5a.71.71,0,1,0-1.42,0Z"/></g><g id="POLYLINE-26" data-name="POLYLINE"><path class="cls-1" d="M269.21,300.54v7.51a.71.71,0,0,0,1.42,0v-7.51a.71.71,0,0,0-1.42,0Z"/></g><g id="POLYLINE-27" data-name="POLYLINE"><path class="cls-1" d="M230.34,120.48V128a.72.72,0,0,0,1.43,0v-7.5a.72.72,0,1,0-1.43,0Z"/></g><g id="POLYLINE-28" data-name="POLYLINE"><path class="cls-1" d="M230.34,210.51V218a.72.72,0,1,0,1.43,0v-7.5a.72.72,0,0,0-1.43,0Z"/></g><g id="POLYLINE-29" data-name="POLYLINE"><path class="cls-1" d="M230.34,300.54v7.51a.72.72,0,0,0,1.43,0v-7.51a.72.72,0,0,0-1.43,0Z"/></g><g id="POLYLINE-30" data-name="POLYLINE"><polygon class="cls-1" points="268.31 364.28 268.31 366.15 269.21 366.15 269.21 377.48 268.31 377.48 268.31 379.36 270.11 379.36 270.11 380.26 271.98 380.26 271.98 363.38 270.11 363.38 270.11 364.28 268.31 364.28"/></g><g id="POLYLINE-31" data-name="POLYLINE"><polygon class="cls-1" points="252.4 305.68 252.4 306.58 254.28 306.58 254.28 302.01 252.4 302.01 252.4 302.91 248.57 302.91 248.57 302.01 246.7 302.01 246.7 306.58 248.57 306.58 248.57 305.68 252.4 305.68"/></g><g id="POLYLINE-32" data-name="POLYLINE"><polygon class="cls-1" points="248.57 212.87 248.57 211.97 246.7 211.97 246.7 216.55 248.57 216.55 248.57 215.65 252.4 215.65 252.4 216.55 254.28 216.55 254.28 211.97 252.4 211.97 252.4 212.87 248.57 212.87"/></g><g id="POLYLINE-33" data-name="POLYLINE"><polygon class="cls-1" points="248.57 122.84 248.57 121.94 246.7 121.94 246.7 126.52 248.57 126.52 248.57 125.62 252.4 125.62 252.4 126.52 254.28 126.52 254.28 121.94 252.4 121.94 252.4 122.84 248.57 122.84"/></g><g id="POLYLINE-34" data-name="POLYLINE"><polygon class="cls-1" points="270.11 318.36 270.11 319.26 268.31 319.26 268.31 321.14 269.21 321.14 269.21 332.47 268.31 332.47 268.31 334.34 270.11 334.34 270.11 335.24 271.98 335.24 271.98 318.36 270.11 318.36"/></g><g id="POLYLINE-35" data-name="POLYLINE"><polygon class="cls-1" points="270.11 273.35 270.11 274.25 268.31 274.25 268.31 276.12 269.21 276.12 269.21 287.45 268.31 287.45 268.31 289.33 270.11 289.33 270.11 290.23 271.98 290.23 271.98 273.35 270.11 273.35"/></g><g id="POLYLINE-36" data-name="POLYLINE"><polygon class="cls-1" points="270.11 228.33 270.11 229.23 268.31 229.23 268.31 231.1 269.21 231.1 269.21 242.43 268.31 242.43 268.31 244.31 270.11 244.31 270.11 245.21 271.98 245.21 271.98 228.33 270.11 228.33"/></g><g id="POLYLINE-37" data-name="POLYLINE"><polygon class="cls-1" points="270.11 138.3 270.11 139.2 268.31 139.2 268.31 141.07 269.21 141.07 269.21 152.4 268.31 152.4 268.31 154.28 270.11 154.28 270.11 155.18 271.98 155.18 271.98 138.3 270.11 138.3"/></g><g id="POLYLINE-38" data-name="POLYLINE"><polygon class="cls-1" points="269.21 96.06 269.21 107.39 268.31 107.39 268.31 109.26 270.11 109.26 270.11 110.16 271.98 110.16 271.98 93.28 270.11 93.28 270.11 94.18 268.31 94.18 268.31 96.06 269.21 96.06"/></g><g id="POLYLINE-39" data-name="POLYLINE"><polygon class="cls-1" points="270.11 199.29 268.31 199.29 268.31 197.42 269.21 197.42 269.21 186.09 268.31 186.09 268.31 184.21 270.11 184.21 270.11 183.31 271.98 183.31 271.98 200.19 270.11 200.19 270.11 199.29"/></g><g id="POLYLINE-40" data-name="POLYLINE"><polygon class="cls-1" points="80.1 121.49 81.98 121.49 81.98 126.07 80.1 126.07 80.1 125.17 68.78 125.17 68.78 126.07 66.9 126.07 66.9 121.49 68.78 121.49 68.78 122.39 80.1 122.39 80.1 121.49"/></g><g id="POLYLINE-41" data-name="POLYLINE"><polygon class="cls-1" points="38.16 122.39 49.49 122.39 49.49 121.49 51.37 121.49 51.37 126.07 49.49 126.07 49.49 125.17 38.16 125.17 38.16 126.07 36.29 126.07 36.29 121.49 38.16 121.49 38.16 122.39"/></g><g id="POLYLINE-42" data-name="POLYLINE"><polygon class="cls-1" points="80.1 301.56 81.98 301.56 81.98 306.13 80.1 306.13 80.1 305.23 68.78 305.23 68.78 306.13 66.9 306.13 66.9 301.56 68.78 301.56 68.78 302.46 80.1 302.46 80.1 301.56"/></g><g id="POLYLINE-43" data-name="POLYLINE"><polygon class="cls-1" points="38.16 302.46 49.49 302.46 49.49 301.56 51.37 301.56 51.37 306.13 49.49 306.13 49.49 305.23 38.16 305.23 38.16 306.13 36.29 306.13 36.29 301.56 38.16 301.56 38.16 302.46"/></g><g id="POLYLINE-44" data-name="POLYLINE"><polygon class="cls-1" points="80.1 211.52 81.98 211.52 81.98 216.1 80.1 216.1 80.1 215.2 68.78 215.2 68.78 216.1 66.9 216.1 66.9 211.52 68.78 211.52 68.78 212.42 80.1 212.42 80.1 211.52"/></g><g id="POLYLINE-45" data-name="POLYLINE"><polygon class="cls-1" points="38.16 212.42 49.49 212.42 49.49 211.52 51.37 211.52 51.37 216.1 49.49 216.1 49.49 215.2 38.16 215.2 38.16 216.1 36.29 216.1 36.29 211.52 38.16 211.52 38.16 212.42"/></g><g id="POLYLINE-46" data-name="POLYLINE"><polygon class="cls-1" points="29.16 90.43 30.06 90.43 30.06 92.31 22.78 92.31 22.78 90.43 23.68 90.43 23.68 85.1 22.78 85.1 22.78 83.23 30.06 83.23 30.06 85.1 29.16 85.1 29.16 90.43"/></g><g id="POLYLINE-47" data-name="POLYLINE"><polygon class="cls-1" points="88.21 83.23 95.48 83.23 95.48 85.1 94.58 85.1 94.58 90.43 95.48 90.43 95.48 92.31 88.21 92.31 88.21 90.43 89.11 90.43 89.11 85.1 88.21 85.1 88.21 83.23"/></g><g id="POLYLINE-48" data-name="POLYLINE"><polygon class="cls-1" points="94.58 382.21 94.58 387.54 95.48 387.54 95.48 389.41 88.21 389.41 88.21 387.54 89.11 387.54 89.11 382.21 88.21 382.21 88.21 380.33 95.48 380.33 95.48 382.21 94.58 382.21"/></g><g id="POLYLINE-49" data-name="POLYLINE"><polygon class="cls-1" points="22.78 382.21 22.78 380.33 30.06 380.33 30.06 382.21 29.16 382.21 29.16 387.54 30.06 387.54 30.06 389.41 22.78 389.41 22.78 387.54 23.68 387.54 23.68 382.21 22.78 382.21"/></g><g id="POLYLINE-50" data-name="POLYLINE"><polygon class="cls-1" points="171.94 121.49 173.81 121.49 173.81 126.07 171.94 126.07 171.94 125.17 160.61 125.17 160.61 126.07 158.73 126.07 158.73 121.49 160.61 121.49 160.61 122.39 171.94 122.39 171.94 121.49"/></g><g id="POLYLINE-51" data-name="POLYLINE"><polygon class="cls-1" points="130 122.39 141.33 122.39 141.33 121.49 143.2 121.49 143.2 126.07 141.33 126.07 141.33 125.17 130 125.17 130 126.07 128.12 126.07 128.12 121.49 130 121.49 130 122.39"/></g><g id="POLYLINE-52" data-name="POLYLINE"><polygon class="cls-1" points="171.94 301.56 173.81 301.56 173.81 306.13 171.94 306.13 171.94 305.23 160.61 305.23 160.61 306.13 158.73 306.13 158.73 301.56 160.61 301.56 160.61 302.46 171.94 302.46 171.94 301.56"/></g><g id="POLYLINE-53" data-name="POLYLINE"><polygon class="cls-1" points="130 302.46 141.33 302.46 141.33 301.56 143.2 301.56 143.2 306.13 141.33 306.13 141.33 305.23 130 305.23 130 306.13 128.12 306.13 128.12 301.56 130 301.56 130 302.46"/></g><g id="POLYLINE-54" data-name="POLYLINE"><polygon class="cls-1" points="171.94 211.52 173.81 211.52 173.81 216.1 171.94 216.1 171.94 215.2 160.61 215.2 160.61 216.1 158.73 216.1 158.73 211.52 160.61 211.52 160.61 212.42 171.94 212.42 171.94 211.52"/></g><g id="POLYLINE-55" data-name="POLYLINE"><polygon class="cls-1" points="130 212.42 141.33 212.42 141.33 211.52 143.2 211.52 143.2 216.1 141.33 216.1 141.33 215.2 130 215.2 130 216.1 128.12 216.1 128.12 211.52 130 211.52 130 212.42"/></g><g id="POLYLINE-56" data-name="POLYLINE"><polygon class="cls-1" points="120.99 90.43 121.89 90.43 121.89 92.31 114.62 92.31 114.62 90.43 115.52 90.43 115.52 85.1 114.62 85.1 114.62 83.23 121.89 83.23 121.89 85.1 120.99 85.1 120.99 90.43"/></g><g id="POLYLINE-57" data-name="POLYLINE"><polygon class="cls-1" points="180.04 83.23 187.32 83.23 187.32 85.1 186.42 85.1 186.42 90.43 187.32 90.43 187.32 92.31 180.04 92.31 180.04 90.43 180.94 90.43 180.94 85.1 180.04 85.1 180.04 83.23"/></g><g id="POLYLINE-58" data-name="POLYLINE"><polygon class="cls-1" points="186.42 382.21 186.42 387.54 187.32 387.54 187.32 389.41 180.04 389.41 180.04 387.54 180.94 387.54 180.94 382.21 180.04 382.21 180.04 380.33 187.32 380.33 187.32 382.21 186.42 382.21"/></g><g id="POLYLINE-59" data-name="POLYLINE"><polygon class="cls-1" points="114.62 382.21 114.62 380.33 121.89 380.33 121.89 382.21 120.99 382.21 120.99 387.54 121.89 387.54 121.89 389.41 114.62 389.41 114.62 387.54 115.52 387.54 115.52 382.21 114.62 382.21"/></g><g id="POLYLINE-60" data-name="POLYLINE"><rect class="cls-3" x="13.67" y="30.75" width="183.07" height="366.13"/></g><g id="POLYLINE-61" data-name="POLYLINE"><rect class="cls-3" x="226.74" y="30.75" width="183.07" height="366.13"/></g><g id="POLYLINE-62" data-name="POLYLINE"><path class="cls-1" d="M359.91,242.24a.89.89,0,0,1-.07.36.92.92,0,0,1-1.19.47l-9.24-4H344l-9.25,4a.86.86,0,0,1-.36.07.9.9,0,0,1-.9-.9v-6.93a3,3,0,0,1,0-6v-6.94a.85.85,0,0,1,.08-.35.89.89,0,0,1,1.18-.47l9.25,4h5.4l9.24-4a.94.94,0,0,1,.36-.08.9.9,0,0,1,.9.9v6.94a3,3,0,0,1,0,6Z"/></g><g id="POLYLINE-63" data-name="POLYLINE"><path class="cls-1" d="M359.91,216.73a.86.86,0,0,1-.07.36.9.9,0,0,1-1.19.47l-9.24-4H344l-9.25,4a.86.86,0,0,1-.36.07.9.9,0,0,1-.9-.9V209.8a3,3,0,0,1,0-6v-6.93a.9.9,0,0,1,.08-.36.89.89,0,0,1,1.18-.47l9.25,4h5.4l9.24-4A.92.92,0,0,1,359,196a.9.9,0,0,1,.9.9v6.93a3,3,0,0,1,0,6Z"/></g><g id="POLYLINE-64" data-name="POLYLINE"><path class="cls-1" d="M359.91,191.22a.86.86,0,0,1-.07.36.9.9,0,0,1-1.19.47l-9.24-4H344l-9.25,4a.86.86,0,0,1-.36.08.91.91,0,0,1-.9-.91v-6.93a3,3,0,0,1,0-6v-6.93a.91.91,0,0,1,1.26-.83l9.25,4h5.4l9.24-4a.92.92,0,0,1,.36-.07.9.9,0,0,1,.9.9v6.93a3,3,0,0,1,0,6Z"/></g><g id="POLYLINE-65" data-name="POLYLINE"><path class="cls-1" d="M359.91,165.72a.84.84,0,0,1-.07.35.9.9,0,0,1-1.19.47l-9.24-4H344l-9.25,4a.86.86,0,0,1-.36.08.91.91,0,0,1-.9-.9v-6.94a3,3,0,0,1,0-6v-6.93a.94.94,0,0,1,.08-.36.9.9,0,0,1,1.18-.47l9.25,4h5.4l9.24-4A1.15,1.15,0,0,1,359,145a.9.9,0,0,1,.9.9v6.93a3,3,0,0,1,0,6Z"/></g><g id="POLYLINE-66" data-name="POLYLINE"><path class="cls-1" d="M359.91,141.21a.84.84,0,0,1-.07.35.9.9,0,0,1-1.19.47l-9.24-4H344l-9.25,4a.86.86,0,0,1-.36.08.91.91,0,0,1-.9-.9v-6.94a3,3,0,0,1,0-6v-6.93a.94.94,0,0,1,.08-.36.9.9,0,0,1,1.18-.47l9.25,4h5.4l9.24-4a1.15,1.15,0,0,1,.36-.07.9.9,0,0,1,.9.9v6.93a3,3,0,0,1,0,6Z"/></g><g id="POLYLINE-67" data-name="POLYLINE"><path class="cls-1" d="M359.91,394.3a.84.84,0,0,1-.07.35.9.9,0,0,1-1.19.47l-9.24-4H344l-9.25,4a.86.86,0,0,1-.36.08.91.91,0,0,1-.9-.9v-6.94a3,3,0,0,1,0-6v-6.93a.94.94,0,0,1,.08-.36.9.9,0,0,1,1.18-.47l9.25,4h5.4l9.24-4a1.15,1.15,0,0,1,.36-.07.9.9,0,0,1,.9.9v6.93a3,3,0,0,1,0,6Z"/></g><g id="POLYLINE-68" data-name="POLYLINE"><path class="cls-1" d="M359.91,369.79a.84.84,0,0,1-.07.35.9.9,0,0,1-1.19.47l-9.24-4H344l-9.25,4a.86.86,0,0,1-.36.08.91.91,0,0,1-.9-.9v-6.94a3,3,0,0,1,0-6v-6.93a.94.94,0,0,1,.08-.36.9.9,0,0,1,1.18-.47l9.25,4h5.4l9.24-4A1.15,1.15,0,0,1,359,349a.9.9,0,0,1,.9.9v6.93a3,3,0,0,1,0,6Z"/></g><g id="POLYLINE-69" data-name="POLYLINE"><path class="cls-1" d="M359.91,344.28a.92.92,0,0,1-.07.36.91.91,0,0,1-1.19.46l-9.24-4H344l-9.25,4a.86.86,0,0,1-.36.08.91.91,0,0,1-.9-.9v-6.93a3,3,0,0,1,0-6v-6.93a.94.94,0,0,1,.08-.36.89.89,0,0,1,1.18-.46l9.25,4h5.4l9.24-4a.94.94,0,0,1,.36-.08.9.9,0,0,1,.9.9v6.93a3,3,0,0,1,0,6Z"/></g><g id="POLYLINE-70" data-name="POLYLINE"><path class="cls-1" d="M359.91,318.77a.92.92,0,0,1-.07.36.91.91,0,0,1-1.19.46l-9.24-4H344l-9.25,4a.86.86,0,0,1-.36.08.9.9,0,0,1-.9-.9v-6.93a3,3,0,0,1,0-6V298.9a.94.94,0,0,1,.08-.36.89.89,0,0,1,1.18-.46l9.25,4h5.4l9.24-4A.94.94,0,0,1,359,298a.9.9,0,0,1,.9.9v6.93a3,3,0,0,1,0,6Z"/></g><g id="POLYLINE-71" data-name="POLYLINE"><path class="cls-1" d="M359.91,293.26a.9.9,0,0,1-1.26.83l-9.24-4H344l-9.25,4a1,1,0,0,1-.36.07.9.9,0,0,1-.9-.9v-6.93a3,3,0,0,1,0-6v-6.94a.85.85,0,0,1,.08-.35.89.89,0,0,1,1.18-.47l9.25,4h5.4l9.24-4a.94.94,0,0,1,.36-.08.9.9,0,0,1,.9.9v6.94a3,3,0,0,1,0,6Z"/></g><g id="POLYLINE-72" data-name="POLYLINE"><path class="cls-1" d="M359.91,267.75a.9.9,0,0,1-1.26.83l-9.24-4H344l-9.25,4a1,1,0,0,1-.36.07.9.9,0,0,1-.9-.9v-6.93a3,3,0,0,1,0-6v-6.94a.85.85,0,0,1,.08-.35.89.89,0,0,1,1.18-.47l9.25,4h5.4l9.24-4A.94.94,0,0,1,359,247a.9.9,0,0,1,.9.9v6.94a3,3,0,0,1,0,6Z"/></g><g id="POLYLINE-73" data-name="POLYLINE"><polygon class="cls-1" points="347.99 230.91 345.43 230.92 345.43 230.05 344.01 230.05 344.01 234.56 345.43 234.56 345.43 233.7 347.99 233.69 347.99 234.55 349.41 234.55 349.41 230.04 347.99 230.04 347.99 230.91"/></g><g id="POLYLINE-74" data-name="POLYLINE"><polygon class="cls-1" points="347.99 205.4 345.43 205.41 345.43 204.55 344.01 204.55 344.01 209.06 345.43 209.06 345.43 208.19 347.99 208.18 347.99 209.04 349.41 209.04 349.41 204.54 347.99 204.54 347.99 205.4"/></g><g id="POLYLINE-75" data-name="POLYLINE"><polygon class="cls-1" points="347.99 179.89 345.43 179.9 345.43 179.04 344.01 179.04 344.01 183.54 345.43 183.54 345.43 182.68 347.99 182.67 347.99 183.53 349.41 183.53 349.41 179.03 347.99 179.03 347.99 179.89"/></g><g id="POLYLINE-76" data-name="POLYLINE"><polygon class="cls-1" points="347.99 154.38 345.43 154.4 345.43 153.53 344.01 153.53 344.01 158.04 345.43 158.04 345.43 157.17 347.99 157.16 347.99 158.03 349.41 158.03 349.41 153.52 347.99 153.52 347.99 154.38"/></g><g id="POLYLINE-77" data-name="POLYLINE"><polygon class="cls-1" points="347.99 129.88 345.43 129.89 345.43 129.02 344.01 129.02 344.01 133.53 345.43 133.53 345.43 132.66 347.99 132.65 347.99 133.52 349.41 133.52 349.41 129.01 347.99 129.01 347.99 129.88"/></g><g id="POLYLINE-78" data-name="POLYLINE"><polygon class="cls-1" points="347.99 382.96 345.43 382.98 345.43 382.11 344.01 382.11 344.01 386.62 345.43 386.62 345.43 385.75 347.99 385.74 347.99 386.61 349.41 386.61 349.41 382.1 347.99 382.1 347.99 382.96"/></g><g id="POLYLINE-79" data-name="POLYLINE"><polygon class="cls-1" points="347.99 358.45 345.43 358.47 345.43 357.6 344.01 357.6 344.01 362.11 345.43 362.11 345.43 361.24 347.99 361.23 347.99 362.1 349.41 362.1 349.41 357.59 347.99 357.59 347.99 358.45"/></g><g id="POLYLINE-80" data-name="POLYLINE"><polygon class="cls-1" points="347.99 332.95 345.43 332.96 345.43 332.09 344.01 332.09 344.01 336.6 345.43 336.6 345.43 335.73 347.99 335.72 347.99 336.59 349.41 336.59 349.41 332.08 347.99 332.08 347.99 332.95"/></g><g id="POLYLINE-81" data-name="POLYLINE"><polygon class="cls-1" points="347.99 307.44 345.43 307.45 345.43 306.58 344.01 306.58 344.01 311.09 345.43 311.09 345.43 310.22 347.99 310.21 347.99 311.08 349.41 311.08 349.41 306.57 347.99 306.57 347.99 307.44"/></g><g id="POLYLINE-82" data-name="POLYLINE"><polygon class="cls-1" points="347.99 281.93 345.43 281.94 345.43 281.07 344.01 281.07 344.01 285.58 345.43 285.58 345.43 284.71 347.99 284.7 347.99 285.57 349.41 285.57 349.41 281.06 347.99 281.06 347.99 281.93"/></g><g id="POLYLINE-83" data-name="POLYLINE"><polygon class="cls-1" points="347.99 256.42 345.43 256.43 345.43 255.56 344.01 255.56 344.01 260.07 345.43 260.07 345.43 259.2 347.99 259.19 347.99 260.06 349.41 260.06 349.41 255.55 347.99 255.55 347.99 256.42"/></g><g id="MTEXT-8" data-name="MTEXT"><text class="cls-4" transform="translate(334.83 40.69)">&lt;PEG</text></g><g id="MTEXT-9" data-name="MTEXT"><text class="cls-4" transform="translate(334.83 51.64)">&lt;PEG</text></g><g id="MTEXT-10" data-name="MTEXT"><text class="cls-4" transform="translate(334.83 62.59)">&lt;PEG</text></g><g id="MTEXT-11" data-name="MTEXT"><text class="cls-4" transform="translate(334.83 73.54)">&lt;PEG</text></g><g id="MTEXT-12" data-name="MTEXT"><text class="cls-4" transform="translate(334.83 84.49)">&lt;PEG</text></g><g id="MTEXT-13" data-name="MTEXT"><text class="cls-4" transform="translate(334.83 95.44)">&lt;PEG</text></g><g id="MTEXT-14" data-name="MTEXT"><text class="cls-4" transform="translate(334.73 106.39)">&lt;PEG</text></g><g id="MTEXT-15" data-name="MTEXT"><text class="cls-4" transform="translate(334.73 117.34)">&lt;PEG</text></g><g id="POLYLINE-84" data-name="POLYLINE"><path class="cls-1" d="M328.9,33.05a.9.9,0,0,0-.9.9v7.2a.9.9,0,0,0,.9.9l42,.07V33Z"/></g><g id="POLYLINE-85" data-name="POLYLINE"><path class="cls-1" d="M328.9,44a.9.9,0,0,0-.9.9v7.2a.9.9,0,0,0,.9.9l42,.07V43.92Z"/></g><g id="POLYLINE-86" data-name="POLYLINE"><path class="cls-1" d="M328.9,55a.9.9,0,0,0-.9.9v7.2a.9.9,0,0,0,.9.9l42,.07V54.87Z"/></g><g id="POLYLINE-87" data-name="POLYLINE"><path class="cls-1" d="M328.9,65.9a.9.9,0,0,0-.9.9V74a.9.9,0,0,0,.9.9l42,.07V65.82Z"/></g><g id="POLYLINE-88" data-name="POLYLINE"><path class="cls-1" d="M328.9,76.85a.9.9,0,0,0-.9.9V85a.9.9,0,0,0,.9.9l42,.07V76.77Z"/></g><g id="POLYLINE-89" data-name="POLYLINE"><path class="cls-1" d="M328.9,87.8a.9.9,0,0,0-.9.9v7.2a.9.9,0,0,0,.9.9l42,.07V87.72Z"/></g><g id="POLYLINE-90" data-name="POLYLINE"><path class="cls-1" d="M328.8,98.75a.9.9,0,0,0-.9.9v7.2a.9.9,0,0,0,.9.9l42,.07V98.67Z"/></g><g id="POLYLINE-91" data-name="POLYLINE"><path class="cls-1" d="M328.8,109.7a.9.9,0,0,0-.9.9v7.2a.9.9,0,0,0,.9.9l42,.07v-9.15Z"/></g></svg>