<svg id="Layer_1" data-name="Layer 1" xmlns="http://www.w3.org/2000/svg" viewBox="0 0 500 500"><defs><style>.cls-1,.cls-2{fill:none;stroke:#000;stroke-linecap:round;stroke-linejoin:round;}.cls-2{stroke-width:0.3px;}</style></defs><polygon class="cls-1" points="356 169 355.9 169.1 356 169.2 356 169"/><polygon class="cls-1" points="119.2 305.7 119 305.8 119.2 305.9 119.2 305.7"/><polygon class="cls-1" points="160.3 332.1 153.3 336.2 152 335.5 151 334.9 143.9 339 143.9 339 143.9 341 143.9 344.4 143.9 347.8 143.9 351.2 143.5 351.5 143.1 351.7 142.6 351.9 100.2 327.5 100.2 324.1 100.2 320.6 100.2 317.2 100.2 313.8 100.2 310.4 100.2 307 100.2 307 100.2 304.4 100.2 301.7 100.2 299.1 100.2 296.4 101.1 296 101.9 295.5 102.7 295 103.5 294.5 103.8 294.6 104 294.8 104.2 294.6 104.4 294.5 104.4 294 104.4 293.5 104.4 293 104.4 292.6 105.5 291.9 106.5 291.3 107.6 290.7 108.6 290.1 109 290.3 109.3 290.5 109.6 290.7 109.9 290.8 110.1 290.7 110.8 290.3 111.4 290 112 289.6 112.2 289.7 112.5 289.9 112.7 289.7 112.9 289.6 112.9 289.1 112.9 288.6 112.9 288.1 112.9 287.7 113.9 287 115 286.4 116.1 285.8 117.1 285.2 117.4 285.4 117.6 285.5 117.9 285.6 118.1 285.8 118.4 285.9 120.3 284.8 122.7 283.5 125.1 282.1 127.4 280.7 129.8 279.4 133.3 277.3 135.1 276.3 135.1 276.3 135.1 276.4 135.2 276.4 135.7 277.1 135.9 277.3 139 275.5 139 275.3 139 275.1 139 275 139 274.8 139 274.6 139 274.4 139 274.2 139 274 139.7 273.6 140.4 273.2 141.1 272.8 141.8 272.4 142.9 271.8 143.9 271.2 145 270.6 146 270 146.7 269.6 147.4 269.2 148.1 268.8 148.8 268.4 148.9 268.4 148.9 268.4 148.9 268.4 149.5 269.1 149.7 269.3 152.8 267.6 152.8 267.3 152.8 267.1 152.8 266.8 152.8 266.6 152.8 266.3 152.8 266.1 158.1 263 159.8 262 161.6 261 163.4 260 165.1 259 166.9 257.9 168.7 256.9 170.4 255.9 172.2 254.9 177.5 251.8 177.5 251.8 177.6 251.9 177.6 251.9 178.1 252.6 178.3 252.8 181.4 251 181.4 250.8 181.4 250.7 181.4 250.5 181.4 250.3 181.4 250.1 181.4 249.9 181.4 249.7 181.4 249.6 182.1 249.1 182.8 248.7 183.5 248.3 184.2 247.9 185.3 247.3 186.3 246.7 187.4 246.1 188.5 245.5 189.2 245.1 189.9 244.7 190.6 244.3 191.3 243.9 191.3 243.9 191.3 243.9 191.4 243.9 191.9 244.6 192.1 244.8 195.2 243.1 195.2 242.8 195.2 242.6 195.2 242.3 195.2 242.1 195.2 241.8 195.2 241.6 196.9 240.6 200.5 238.5 202.8 237.2 205.2 235.8 207.6 234.5 209.9 233.1 212.3 231.7 214.6 230.4 218.2 228.3 219.9 227.3 219.9 227.4 220 227.4 220 227.4 220.6 228.1 220.8 228.3 223.8 226.5 223.8 226.3 223.8 226.2 223.8 226 223.8 225.8 223.8 225.6 223.8 225.4 223.8 225.2 223.8 225.1 224.5 224.7 225.2 224.3 225.9 223.8 226.6 223.4 227.7 222.8 228.8 222.2 229.8 221.6 230.9 221 231.6 220.6 232.3 220.2 233 219.8 233.7 219.4 233.7 219.4 233.8 219.4 233.8 219.5 234.3 220.1 234.5 220.4 237.6 218.6 237.6 218.3 237.6 218.1 237.6 217.8 237.6 217.6 237.6 217.3 237.6 217.1 239.4 216.1 242.9 214.1 245.3 212.7 247.6 211.3 250 210 252.3 208.6 254.7 207.3 257 205.9 260.6 203.8 262.3 202.8 262.4 202.9 262.4 202.9 262.4 202.9 263 203.6 263.2 203.8 266.3 202 266.3 201.9 266.3 201.7 266.3 201.5 266.3 201.3 266.3 201.1 266.3 200.9 266.3 200.8 266.3 200.6 267 200.2 267.7 199.8 268.4 199.4 269.1 198.9 270.1 198.3 271.2 197.7 272.2 197.1 273.3 196.5 274 196.1 274.7 195.7 275.4 195.3 276.1 194.9 276.1 194.9 276.2 194.9 276.2 195 276.8 195.6 277 195.9 280 194.1 280 193.8 280 193.6 280 193.3 280 193.1 280 192.9 280 192.6 285.3 189.6 287.1 188.5 288.9 187.5 290.6 186.5 292.4 185.5 294.2 184.5 295.9 183.4 297.7 182.4 299.5 181.4 304.8 178.3 304.8 178.4 304.8 178.4 304.9 178.4 305.4 179.1 305.6 179.3 308.7 177.5 308.7 177.4 308.7 177.2 308.7 177 308.7 176.8 308.7 176.6 308.7 176.4 308.7 176.3 308.7 176.1 309.4 175.7 310.1 175.3 310.8 174.9 311.5 174.5 312.6 173.8 313.6 173.2 314.7 172.6 315.7 172 316.4 171.6 317.1 171.2 317.8 170.8 318.5 170.4 318.6 170.4 318.6 170.4 318.6 170.5 319.2 171.1 319.4 171.4 322.5 169.6 322.5 169.3 322.5 169.1 322.5 168.9 322.5 168.6 322.5 168.4 322.5 168.1 324.2 167.1 327.8 165.1 330.1 163.7 332.5 162.3 334.8 161 337.2 159.6 339.6 158.3 339.8 158.4 340 158.5 340.2 158.4 340.4 158.3 340.4 157.8 340.4 157.3 340.4 156.8 340.4 156.3 341.5 155.7 342.5 155.1 343.6 154.5 344.6 153.8 345 154 345.3 154.2 345.6 154.4 345.9 154.6 346.1 154.5 346.8 154.1 347.4 153.7 348 153.4 348.3 153.5 348.5 153.6 348.7 153.5 348.9 153.4 348.9 152.9 348.9 152.4 348.9 151.9 348.9 151.4 350 150.8 351 150.2 352.1 149.6 353.1 148.9 353.5 149.1 353.8 149.3 354.1 149.5 354.4 149.7 354.8 149.4 355.6 149 356.5 148.5 357.3 148 357.7 148.3 358.2 148.5 358.6 148.7 359.6 149.3 360.7 149.9 361.7 150.6 362.8 151.2 362.8 151.2 362.8 151.2 362.8 151.3 362.5 152.1 362.2 152.9 361.9 153.7 361.6 154.5 361.6 154.6 361.6 154.7 361.6 154.9 361.7 155 361.7 155.1 361.8 155.2 361.9 155.2 362 155.3 363.3 156 363.3 156.4 363.4 156.7 363.4 156.8 363.6 156.9 364.6 157.5 365.6 158.1 365.9 157.9 366.2 157.7 366.3 157.8 366.3 157.8 366 156.6 365.7 155.5 365.4 154.3 365.4 154.3 365.4 154.2 365.4 154.2 365.6 154.1 365.8 154 365.9 153.9 366.1 153.8 366.2 153.7 366.4 153.6 366.5 153.5 366.7 153.4 369.2 154.9 371.6 156.3 374.1 157.7 376.5 159.1 376.5 159.2 376.5 159.2 376.5 159.2 376.2 160.1 375.9 160.9 375.6 161.7 375.3 162.5 375.3 162.6 375.4 162.7 375.4 162.8 375.5 162.9 375.5 163 375.6 163.1 375.7 163.2 375.8 163.2 377 164 377.1 164.3 377.1 164.7 377.2 164.8 379.4 166 379.7 165.9 380 165.7 380.1 165.8 380.1 165.7 379.8 164.6 379.5 163.4 379.2 162.3 379.2 162.2 379.2 162.2 379.2 162.1 379.4 162 379.5 161.9 379.7 161.8 379.8 161.8 380 161.7 380.2 161.6 380.3 161.5 380.5 161.4 382.9 162.8 385.4 164.2 387.9 165.7 390.3 167.1 390.3 167.1 390.3 167.2 390.3 167.2 390 168 389.7 168.8 389.4 169.6 389.1 170.5 389.1 170.5 389.1 170.6 389.2 170.8 389.2 170.9 389.3 171 389.4 171.1 389.5 171.1 389.5 171.2 390.2 171.6 390.8 171.9 390.8 172.3 390.9 172.7 391 172.7 391.2 172.9 392.2 173.4 392.6 173.7 393.7 173 393.6 172.5 393.3 171.4 393 170.2 393 170.2 393 170.1 393 170.1 393.2 170 393.3 169.9 393.5 169.8 393.6 169.7 393.8 169.6 393.9 169.5 394.1 169.4 394.3 169.3 395.3 169.9 396.4 170.6 397.4 171.2 398.5 171.8 398.5 171.8 398.5 171.8 399.7 172.5 399.7 183.1 399.7 183.1 399.7 186.5 399.7 189.9 399.7 193.3 399.7 196.7 399.7 200.1 399.7 203.5 399.3 203.8 398.9 204 398.5 204.3 387.9 198.1 380.4 202.5 380.4 202.9 380.8 203.2 380.8 214.5 366.6 222.6 334.8 241 260.6 283.9 207.6 314.5 175.7 332.8 161.6 341 160.3 340.3 160.3 332.1"/><path class="cls-2" d="M388.3,171.9a.8.8,0,0,1-.5-.7"/><path class="cls-2" d="M389.1,170.5l1.2-3.3"/><line class="cls-2" x1="390.3" y1="167.2" x2="389" y2="167.9"/><path class="cls-2" d="M387.8,171.2l1.2-3.3"/><path class="cls-2" d="M390.3,167.2h0"/><line class="cls-2" x1="390.3" y1="167.1" x2="389.1" y2="167.8"/><path class="cls-2" d="M389,167.9h.1"/><path class="cls-2" d="M390.3,167.1l-9.8-5.7"/><line class="cls-2" x1="380.5" y1="161.4" x2="379.2" y2="162.1"/><path class="cls-2" d="M379.2,162.1v.2"/><path class="cls-2" d="M380.4,166.9a.4.4,0,0,1-.1.3"/><line class="cls-2" x1="399.7" y1="203.5" x2="398.5" y2="204.3"/><path class="cls-2" d="M399.7,203.5V183.1"/><path class="cls-2" d="M398.5,171.8l-4.2-2.5"/><line class="cls-2" x1="394.3" y1="169.3" x2="393" y2="170.1"/><path class="cls-2" d="M393,170.1h0"/><line class="cls-2" x1="380" y1="165.7" x2="379.4" y2="166"/><path class="cls-2" d="M390.8,171.9a1.9,1.9,0,0,0,.2.8"/><line class="cls-2" x1="390.8" y1="171.9" x2="390.2" y2="172.3"/><path class="cls-2" d="M390.8,171.9l-1.3-.7"/><line class="cls-2" x1="399.1" y1="176.1" x2="399.1" y2="180.2"/><line class="cls-2" x1="399.1" y1="180.2" x2="398.5" y2="180.6"/><line class="cls-2" x1="399.1" y1="176.1" x2="398.5" y2="176.5"/><path class="cls-2" d="M361.6,154.5a.9.9,0,0,0,.4.8"/><path class="cls-2" d="M360.3,155.3a1,1,0,0,0,.4.7"/><line class="cls-2" x1="361.6" y1="154.5" x2="360.3" y2="155.3"/><path class="cls-2" d="M362,155.3l1.3.7"/><path class="cls-2" d="M366.2,159.2c.1,0,.2.1.3,0"/><line class="cls-2" x1="366.7" y1="153.4" x2="365.4" y2="154.2"/><path class="cls-2" d="M365.4,154.3h0"/><path class="cls-2" d="M366.7,153.4l9.8,5.7"/><line class="cls-2" x1="376.5" y1="159.1" x2="375.3" y2="159.8"/><path class="cls-2" d="M376.5,159.1h0"/><line class="cls-2" x1="376.5" y1="159.2" x2="375.3" y2="160"/><path class="cls-2" d="M375.3,159.8v.2"/><path class="cls-2" d="M376.5,159.2l-1.2,3.3"/><line class="cls-2" x1="375.3" y1="162.5" x2="374.1" y2="163.2"/><path class="cls-2" d="M375.3,160l-1.2,3.2"/><path class="cls-2" d="M375.3,162.5a.8.8,0,0,0,.5.7"/><path class="cls-2" d="M374.1,163.2a1.2,1.2,0,0,0,.4.8"/><path class="cls-2" d="M375.8,163.2l1.2.8"/><path class="cls-2" d="M357.7,159.4l-.4-.3"/><path class="cls-2" d="M357.3,157.8l.4.2"/><path class="cls-2" d="M357.7,152l-.4-.2"/><line class="cls-2" x1="358.6" y1="148.7" x2="357.3" y2="149.5"/><path class="cls-2" d="M357.3,151.8v-2.3"/><path class="cls-2" d="M358.6,148.7l4.2,2.5"/><line class="cls-2" x1="362.8" y1="151.2" x2="361.5" y2="151.9"/><path class="cls-2" d="M362.8,151.2h-.1"/><line class="cls-2" x1="362.7" y1="151.3" x2="361.5" y2="152"/><path class="cls-2" d="M361.5,151.9h0"/><path class="cls-2" d="M362.7,151.3a30.1,30.1,0,0,1-1.1,3.2"/><path class="cls-2" d="M361.5,152l-1.2,3.3"/><path class="cls-2" d="M377,164a2.4,2.4,0,0,0,.2.8"/><line class="cls-2" x1="377" y1="164" x2="376.4" y2="164.3"/><line class="cls-2" x1="366.2" y1="157.7" x2="365.6" y2="158.1"/><line class="cls-2" x1="362.6" y1="156.4" x2="363.3" y2="156"/><path class="cls-2" d="M366.2,157.7a.1.1,0,0,1,.1.1"/><line class="cls-2" x1="398.5" y1="204.3" x2="387.8" y2="198.1"/><path class="cls-2" d="M380.3,167.2H380"/><path class="cls-2" d="M366.5,159.2c.1,0,.1-.2.1-.3"/><path class="cls-2" d="M363.4,156.8a1.9,1.9,0,0,1-.1-.8"/><line class="cls-2" x1="357.7" y1="152.3" x2="357.6" y2="152.2"/><path class="cls-2" d="M334.8,234.1a1,1,0,0,1,.4-.7"/><path class="cls-2" d="M335.2,233.4l3.6-.6"/><path class="cls-2" d="M339.2,213.8c0-.1,0-.2-.1-.2"/><path class="cls-2" d="M203.6,310.8h-.3"/><path class="cls-2" d="M203.2,304.2a.8.8,0,0,1,.4-.7"/><path class="cls-2" d="M207.6,295.8c0-.1-.1-.2-.2-.3"/><polyline class="cls-2" points="334.8 241 260.6 283.9 207.6 314.5"/><path class="cls-2" d="M334.9,217.1a.4.4,0,0,1-.1-.3"/><path class="cls-2" d="M207.4,307.3h-.3"/><path class="cls-2" d="M203.3,310.9a.4.4,0,0,1-.1-.3"/><path class="cls-2" d="M207.1,291l-3.5.6"/><path class="cls-2" d="M203.6,291.6a1.2,1.2,0,0,0-.4.8"/><path class="cls-2" d="M203.2,298.8s0,.2.1.2"/><path class="cls-2" d="M207.6,302.1a1,1,0,0,1-.5.8"/><path class="cls-2" d="M207.1,302.9l-3.5.6"/><line class="cls-2" x1="207.6" y1="275.3" x2="207.6" y2="290.3"/><line class="cls-2" x1="165.1" y1="307.9" x2="165.1" y2="299.8"/><line class="cls-2" x1="165.1" y1="299.8" x2="163.9" y2="299"/><line class="cls-2" x1="163.9" y1="307.2" x2="163.9" y2="299"/><line class="cls-2" x1="165.1" y1="307.9" x2="163.9" y2="307.2"/><line class="cls-2" x1="161.6" y1="341" x2="160.3" y2="340.3"/><line class="cls-2" x1="161.6" y1="329.7" x2="160.7" y2="329.3"/><line class="cls-2" x1="161.6" y1="329.7" x2="162" y2="329.5"/><line class="cls-2" x1="162" y1="329.5" x2="161.2" y2="329"/><line class="cls-2" x1="162" y1="329.5" x2="162" y2="328.5"/><line class="cls-2" x1="143.9" y1="331.8" x2="144.3" y2="331.5"/><line class="cls-2" x1="144.3" y1="331.5" x2="143.9" y2="331.3"/><line class="cls-2" x1="142.6" y1="331.5" x2="141.4" y2="330.8"/><line class="cls-2" x1="142.6" y1="320.9" x2="141.4" y2="320.2"/><line class="cls-2" x1="146.8" y1="319" x2="145.5" y2="318.3"/><polyline class="cls-2" points="146.8 319 146.8 318.5 146.8 317"/><line class="cls-2" x1="146.8" y1="317" x2="145.5" y2="316.3"/><polyline class="cls-2" points="145.5 318.3 145.5 317.8 145.5 316.3"/><line class="cls-2" x1="151.1" y1="314.6" x2="149.8" y2="313.9"/><line class="cls-2" x1="145.5" y1="316.3" x2="149.8" y2="313.9"/><line class="cls-2" x1="151.1" y1="316.6" x2="151.9" y2="316.1"/><line class="cls-2" x1="151.9" y1="316.1" x2="151.1" y2="315.6"/><line class="cls-2" x1="151.9" y1="316.1" x2="151.9" y2="315.6"/><line class="cls-2" x1="151.9" y1="315.6" x2="151.1" y2="315.1"/><line class="cls-2" x1="154.5" y1="314.1" x2="154.5" y2="314.6"/><line class="cls-2" x1="154.5" y1="314.6" x2="155.3" y2="314.1"/><line class="cls-2" x1="155.3" y1="314.1" x2="154" y2="313.4"/><polyline class="cls-2" points="155.3 314.1 155.3 313.6 155.3 312.1"/><line class="cls-2" x1="155.3" y1="312.1" x2="154" y2="311.4"/><polyline class="cls-2" points="154 313.4 154 312.9 154 311.4"/><line class="cls-2" x1="159.5" y1="309.7" x2="158.3" y2="309"/><line class="cls-2" x1="160.4" y1="311.2" x2="160.4" y2="310.7"/><path class="cls-2" d="M143.9,323.5a.4.4,0,0,0-.1-.3"/><path class="cls-2" d="M143.3,327.9c0,.1,0,.2.1.2"/><path class="cls-2" d="M173.8,312.7a2.6,2.6,0,0,0,1.2-1.5,3,3,0,0,0,.2-1,.9.9,0,0,0-.4-.8"/><path class="cls-2" d="M172.5,312a3.1,3.1,0,0,0,1.4-2.6"/><path class="cls-2" d="M173.8,309.5l-4.2,2.4"/><path class="cls-2" d="M169.6,315.2l4.2-2.5"/><path class="cls-2" d="M168.3,314.5l4.2-2.5"/><line class="cls-2" x1="162" y1="319" x2="162" y2="319.5"/><line class="cls-2" x1="161.2" y1="321" x2="161.6" y2="320.8"/><line class="cls-2" x1="161.6" y1="320.8" x2="161.2" y2="320.5"/><line class="cls-2" x1="161.6" y1="324.5" x2="161.2" y2="324.8"/><line class="cls-2" x1="162" y1="325.3" x2="162" y2="325.7"/><line class="cls-2" x1="162" y1="325.7" x2="162.9" y2="325.3"/><line class="cls-2" x1="162.9" y1="325.3" x2="162.4" y2="325"/><line class="cls-2" x1="162.9" y1="325.3" x2="162.9" y2="324.8"/><polyline class="cls-2" points="207.6 314.5 175.7 332.8 161.6 341"/><path class="cls-2" d="M143.4,328.1c.1.1.3-.1.4-.2s.1-.2.1-.4"/><path class="cls-2" d="M168.6,315.3a.9.9,0,0,0,1-.1"/><line class="cls-2" x1="145.1" y1="318.5" x2="145.5" y2="318.3"/><line class="cls-2" x1="151.1" y1="314.6" x2="153.2" y2="313.4"/><line class="cls-2" x1="153.6" y1="313.6" x2="154" y2="313.4"/><path class="cls-2" d="M168.1,314.5h.2"/><path class="cls-2" d="M342.5,162.8v.2"/><line class="cls-2" x1="342.5" y1="163" x2="343.8" y2="162.2"/><path class="cls-2" d="M343.8,162.1h0"/><line class="cls-2" x1="342.5" y1="162.8" x2="343.8" y2="162.1"/><path class="cls-2" d="M342.5,163c-.2.6-.5,1.3-.7,2"/><path class="cls-2" d="M343.8,162.2l-1.2,3.3"/><path class="cls-2" d="M346.5,165.3v-.2"/><line class="cls-2" x1="346.5" y1="165.1" x2="347.8" y2="164.4"/><path class="cls-2" d="M356.3,170.8h0"/><path class="cls-2" d="M357.6,170.1h0"/><path class="cls-2" d="M360.3,173.2h0"/><line class="cls-2" x1="360.3" y1="173.1" x2="361.5" y2="172.3"/><line class="cls-2" x1="370.1" y1="178.7" x2="371.4" y2="178"/><path class="cls-2" d="M361.5,172.3l2.6,1.5"/><path class="cls-2" d="M370.1,178.7v.2"/><line class="cls-2" x1="370.1" y1="178.9" x2="371.4" y2="178.1"/><path class="cls-2" d="M371.4,178h0"/><path class="cls-2" d="M370.1,178.9a5.8,5.8,0,0,0-.5,1.4"/><path class="cls-2" d="M371.4,178.1l-.6,1.4"/><line class="cls-2" x1="338.4" y1="160.4" x2="339.6" y2="159.7"/><path class="cls-2" d="M339.6,159.7l4.2,2.4"/><path class="cls-2" d="M347.3,168.2c-.3-1-.5-2-.8-2.9"/><path class="cls-2" d="M203.6,299c-.1,0-.2.1-.3,0"/><path class="cls-2" d="M207.6,290.3a.8.8,0,0,1-.5.7"/><path class="cls-2" d="M207.4,307.3c.1.1.2.2.2.3"/><path class="cls-2" d="M356,169.2V169"/><path class="cls-2" d="M368.9,176.6l2.5,1.4"/><path class="cls-2" d="M360.9,175.6l-.6-2.4"/><path class="cls-2" d="M368.9,178.1l1.2.6"/><line class="cls-2" x1="329.1" y1="203.1" x2="329.1" y2="203.6"/><line class="cls-2" x1="161.2" y1="325.7" x2="161.6" y2="325.5"/><path class="cls-2" d="M251.9,211.1a.2.2,0,0,1,.2.2"/><path class="cls-2" d="M251.7,211.6l-.6.2"/><path class="cls-2" d="M254.4,214.4a1,1,0,0,0,.9-.1"/><path class="cls-2" d="M255.3,214.3l1.4-1.7"/><path class="cls-2" d="M256.7,212.6a1,1,0,0,1,.9-.1"/><path class="cls-2" d="M261,214.5c.1.1.2.1.2.3"/><path class="cls-2" d="M261.3,218.4a1.2,1.2,0,0,0,1-.1"/><path class="cls-2" d="M262.3,218.3l1.3-1.7"/><path class="cls-2" d="M263.6,216.6a1,1,0,0,1,.9-.1"/><path class="cls-2" d="M268,218.5c0,.1.1.1.1.3"/><path class="cls-2" d="M264.9,219.8l-.3.3"/><path class="cls-2" d="M270.5,220.6a1.1,1.1,0,0,1,1-.1"/><path class="cls-2" d="M271.9,223.8q-.3.1-.3.3"/><path class="cls-2" d="M245.5,214.5l-.5-.2"/><line class="cls-2" x1="245" y1="214.3" x2="245" y2="214.8"/><path class="cls-2" d="M248.6,212.2l.5.3"/><path class="cls-2" d="M249.9,212l-.4-.3"/><line class="cls-2" x1="249.5" y1="211.7" x2="249.5" y2="212.2"/><line class="cls-2" x1="237.6" y1="217.1" x2="237.6" y2="218.6"/><path class="cls-2" d="M219.9,227.3h.1"/><path class="cls-2" d="M222.2,230.1h.9"/><path class="cls-2" d="M223.1,230.1l1.3-.8"/><path class="cls-2" d="M228.6,226.9c.1-.1.2-.1.2-.3"/><line class="cls-2" x1="228.6" y1="226.4" x2="228.6" y2="226.9"/><path class="cls-2" d="M224,225.1h-.2"/><line class="cls-2" x1="223.8" y1="225.1" x2="223.8" y2="226.5"/><path class="cls-2" d="M224,226.6h-.2"/><path class="cls-2" d="M223.8,225.1l2.8-1.7"/><path class="cls-2" d="M229.2,223.9l-.4-.2"/><line class="cls-2" x1="228.8" y1="223.7" x2="228.8" y2="224.2"/><path class="cls-2" d="M231.3,222.2l.4.3"/><path class="cls-2" d="M230.9,221l2.8-1.6"/><path class="cls-2" d="M233.7,219.4h.1"/><path class="cls-2" d="M236,222.1a.7.7,0,0,0,.9,0"/><path class="cls-2" d="M236.9,222.1l1.2-.7"/><path class="cls-2" d="M242.4,218.9c.1,0,.1-.1.1-.2"/><path class="cls-2" d="M237.8,217.2h-.2"/><path class="cls-2" d="M237.8,218.6h-.2"/><line class="cls-2" x1="227.3" y1="227.6" x2="227.3" y2="228.4"/><line class="cls-2" x1="227.3" y1="228.4" x2="225.1" y2="229.6"/><line class="cls-2" x1="241.1" y1="219.7" x2="241.1" y2="220.4"/><line class="cls-2" x1="241.1" y1="220.4" x2="238.9" y2="221.7"/><path class="cls-2" d="M209.3,236.1l-.6.2"/><path class="cls-2" d="M222.5,244.3l-.3.3"/><path class="cls-2" d="M215.5,231.9l-.5-.3"/><line class="cls-2" x1="211.4" y1="233.7" x2="211.4" y2="234.2"/><path class="cls-2" d="M211.4,233.7l.5.2"/><path class="cls-2" d="M211,234.4l-.4-.2"/><path class="cls-2" d="M237.6,217.1l5.3-3"/><path class="cls-2" d="M214.6,230.4l5.3-3.1"/><path class="cls-2" d="M252.1,211.3c0,.2-.1.2-.2.3"/><path class="cls-2" d="M257.7,216.1l.2.3"/><path class="cls-2" d="M264.6,220.1l.2.3"/><path class="cls-2" d="M275.1,222.8l-.2.2"/><path class="cls-2" d="M228.8,226.6l-.2-.2"/><path class="cls-2" d="M242.5,218.7a.4.4,0,0,0-.1-.3"/><path class="cls-2" d="M241.7,220.5a.9.9,0,0,0-.6-.8"/><path class="cls-2" d="M209.7,235.8c0,.2-.2.3-.4.3"/><path class="cls-2" d="M218.8,239.2c0,.2-.2.3-.3.4"/><path class="cls-2" d="M232.6,247.2c0,.2-.1.3-.2.3"/><path class="cls-2" d="M138.4,322.6c0,.1,0,.2-.1.2"/><path class="cls-2" d="M132.5,319.6a.9.9,0,0,1-.5-.7"/><line class="cls-2" x1="132" y1="318.9" x2="133.3" y2="318.1"/><path class="cls-2" d="M133.7,318.9a1.2,1.2,0,0,1-.4-.8"/><path class="cls-2" d="M132,318.9l1.2-3.3"/><path class="cls-2" d="M133.2,315.6h0"/><path class="cls-2" d="M134.5,314.9h0"/><path class="cls-2" d="M123.4,309.8v.2"/><path class="cls-2" d="M124.6,314.6a.4.4,0,0,1-.1.3"/><line class="cls-2" x1="142.6" y1="351.9" x2="143.9" y2="351.2"/><line class="cls-2" x1="141" y1="330.6" x2="141.4" y2="330.3"/><path class="cls-2" d="M141,330.6v-1"/><path class="cls-2" d="M141,329.6l.4.2"/><path class="cls-2" d="M141.4,328.5l-.4-.2"/><path class="cls-2" d="M141,327.3a.5.5,0,0,0,.4.2"/><path class="cls-2" d="M143.9,327.5v-4"/><line class="cls-2" x1="141" y1="323.2" x2="141.4" y2="323"/><path class="cls-2" d="M143.9,323.5l-.3-.2"/><path class="cls-2" d="M141,323.2v-1"/><path class="cls-2" d="M141,322.2l.4.3"/><path class="cls-2" d="M142.6,319.5c-1.3-.9-2.7-1.7-4.1-2.5"/><path class="cls-2" d="M137.2,317.8h0"/><line class="cls-2" x1="122.9" y1="314.1" x2="123.6" y2="313.7"/><path class="cls-2" d="M133.7,320.3a3.6,3.6,0,0,0,.8,2,1.7,1.7,0,0,0,.8.6.9.9,0,0,0,1,.1"/><line class="cls-2" x1="133.7" y1="320.3" x2="134.4" y2="320"/><line class="cls-2" x1="134.4" y1="320" x2="137.3" y2="321.7"/><line class="cls-2" x1="137.3" y1="321.7" x2="136.7" y2="322.1"/><path class="cls-2" d="M133.7,320.3l-1.2-.7"/><line class="cls-2" x1="143.3" y1="327.9" x2="143.9" y2="327.5"/><line class="cls-2" x1="143.3" y1="323.8" x2="143.9" y2="323.5"/><path class="cls-2" d="M141.4,323.5l-.4-.3"/><path class="cls-2" d="M104.5,303a1,1,0,0,0,.4.7"/><path class="cls-2" d="M105.7,302.2a1,1,0,0,0,.5.8"/><line class="cls-2" x1="104.5" y1="303" x2="105.7" y2="302.2"/><path class="cls-2" d="M104.9,303.7l1.3.7"/><path class="cls-2" d="M106.2,303l4.3,2.5"/><path class="cls-2" d="M110.4,306.9c.1,0,.2.1.3,0"/><path class="cls-2" d="M109.6,302h0"/><line class="cls-2" x1="109.6" y1="301.9" x2="110.9" y2="301.1"/><path class="cls-2" d="M119.5,307.5v.2"/><path class="cls-2" d="M120.7,306.8h0"/><path class="cls-2" d="M118.3,310.9a.9.9,0,0,0,.4.8"/><path class="cls-2" d="M119.5,310.2a.8.8,0,0,0,.5.7"/><path class="cls-2" d="M100.2,327.5V307"/><path class="cls-2" d="M101.9,307l-.4-.2"/><line class="cls-2" x1="101.5" y1="305.5" x2="101.9" y2="305.2"/><path class="cls-2" d="M101.9,304.8l-.4-.3"/><line class="cls-2" x1="101.5" y1="297.2" x2="102.8" y2="296.4"/><line class="cls-2" x1="105.7" y1="299.6" x2="107" y2="298.8"/><path class="cls-2" d="M102.8,296.4l4.2,2.4"/><path class="cls-2" d="M105.7,299.6h0"/><line class="cls-2" x1="105.7" y1="299.7" x2="106.9" y2="299"/><path class="cls-2" d="M107,298.8v.2"/><path class="cls-2" d="M105.7,299.7l-1.2,3.3"/><path class="cls-2" d="M106.9,299l-1.2,3.2"/><path class="cls-2" d="M106.8,304.1a3.5,3.5,0,0,0,.6,1.7c.4.5.9,1.1,1.6,1"/><line class="cls-2" x1="109.1" y1="306.1" x2="109.8" y2="305.8"/><line class="cls-2" x1="109.8" y1="305.8" x2="106.8" y2="304.1"/><line class="cls-2" x1="106.8" y1="304.1" x2="106.2" y2="304.4"/><path class="cls-2" d="M101.5,300.4l.4.3"/><line class="cls-2" x1="142.6" y1="351.9" x2="100.2" y2="327.5"/><path class="cls-2" d="M138.3,322.8H138"/><path class="cls-2" d="M124.5,314.9h-.3"/><path class="cls-2" d="M110.7,306.9c.1,0,.1-.2.1-.3"/><path class="cls-2" d="M108.7,307.1a.9.9,0,0,1-1-.1,2.4,2.4,0,0,1-.8-.6,3.7,3.7,0,0,1-.7-2"/><line class="cls-2" x1="101.9" y1="300.2" x2="101.5" y2="300.4"/><path class="cls-2" d="M136.5,322.8a2.1,2.1,0,0,1-1.5-1.1,2.5,2.5,0,0,1-.6-1.7"/><path class="cls-2" d="M125.9,287.9h0"/><path class="cls-2" d="M124.6,288.6v.2"/><path class="cls-2" d="M124.7,291.3a.8.8,0,0,0,.4.7"/><path class="cls-2" d="M129.4,295.9c0,.1.2.1.3.1"/><line class="cls-2" x1="129.8" y1="290.2" x2="128.6" y2="290.9"/><path class="cls-2" d="M128.6,291.1v-.2"/><line class="cls-2" x1="139.7" y1="295.9" x2="138.4" y2="296.6"/><path class="cls-2" d="M139.7,295.9h0"/><line class="cls-2" x1="139.7" y1="296" x2="138.4" y2="296.7"/><path class="cls-2" d="M138.4,296.6h0"/><path class="cls-2" d="M139.7,296l-1.2,3.2"/><path class="cls-2" d="M143.1,303.9c.1,0,.2.1.3,0"/><path class="cls-2" d="M142.4,299h0"/><line class="cls-2" x1="153.5" y1="303.8" x2="152.2" y2="304.6"/><path class="cls-2" d="M153.5,303.8v.2"/><line class="cls-2" x1="153.5" y1="304" x2="152.2" y2="304.7"/><path class="cls-2" d="M152.2,304.6h0"/><path class="cls-2" d="M153.5,304l-1.2,3.2"/><line class="cls-2" x1="152.3" y1="307.2" x2="151" y2="307.9"/><path class="cls-2" d="M152.2,304.7l-1.2,3.2"/><path class="cls-2" d="M152.3,307.2a.7.7,0,0,0,.4.7"/><path class="cls-2" d="M151,307.9a1.2,1.2,0,0,0,.4.8"/><path class="cls-2" d="M152.7,307.9l1.3.8"/><path class="cls-2" d="M156.2,307v-.2"/><path class="cls-2" d="M157.4,306.1l4.2,2.4"/><line class="cls-2" x1="162.9" y1="319" x2="162" y2="319.5"/><path class="cls-2" d="M152,335.5l-1-.6"/><path class="cls-2" d="M120.4,302.7l.5.3"/><line class="cls-2" x1="121.7" y1="285.5" x2="120.4" y2="286.2"/><path class="cls-2" d="M154,308.7a2.2,2.2,0,0,0,.1.8"/><line class="cls-2" x1="154" y1="308.7" x2="153.3" y2="309"/><line class="cls-2" x1="129.4" y1="294.5" x2="128.7" y2="294.8"/><line class="cls-2" x1="125.8" y1="293.1" x2="126.4" y2="292.8"/><path class="cls-2" d="M129.4,294.5h.1"/><line class="cls-2" x1="143.1" y1="302.4" x2="142.5" y2="302.8"/><line class="cls-2" x1="139.5" y1="301.1" x2="140.2" y2="300.7"/><path class="cls-2" d="M143.1,302.4h.2"/><path class="cls-2" d="M129.7,296a.4.4,0,0,0,.1-.3"/><path class="cls-2" d="M143.4,303.9a.2.2,0,0,0,.2-.2"/><path class="cls-2" d="M126.5,293.6a2.5,2.5,0,0,1-.1-.8"/><path class="cls-2" d="M140.3,301.5a1.9,1.9,0,0,1-.1-.8"/><path class="cls-2" d="M120.4,311.2v-3.5"/><line class="cls-2" x1="141" y1="328.3" x2="141.4" y2="328"/><path class="cls-2" d="M161.6,319.8v1"/><path class="cls-2" d="M161.6,325.5l-.4-.2"/><path class="cls-2" d="M380.1,165.8a.1.1,0,0,0-.1-.1"/><line class="cls-2" x1="162.9" y1="319" x2="162.9" y2="318.6"/><path class="cls-2" d="M141.4,330.8l-.4-.2"/><line class="cls-2" x1="141.4" y1="323.5" x2="141.4" y2="323.5"/><path class="cls-2" d="M162.4,318.8l.5.2"/><path class="cls-2" d="M232.6,222l-.4-.3"/><path class="cls-2" d="M249.6,249.5l-.4-.2"/><line class="cls-2" x1="202.7" y1="276.1" x2="202.7" y2="276.6"/><line class="cls-2" x1="202.7" y1="276.6" x2="202.3" y2="276.4"/><line class="cls-2" x1="207.2" y1="273.5" x2="207.2" y2="274"/><line class="cls-2" x1="323" y1="206.7" x2="323" y2="207.2"/><line class="cls-2" x1="319.4" y1="209.3" x2="318.9" y2="209"/><line class="cls-2" x1="319.4" y1="209.3" x2="319.4" y2="208.8"/><line class="cls-2" x1="270" y1="237.3" x2="270" y2="237.8"/><line class="cls-2" x1="266.3" y1="239.9" x2="265.9" y2="239.6"/><line class="cls-2" x1="259.3" y1="243.4" x2="259.3" y2="243.9"/><line class="cls-2" x1="255.7" y1="246" x2="255.3" y2="245.8"/><line class="cls-2" x1="280.6" y1="231.2" x2="280.6" y2="231.7"/><line class="cls-2" x1="277" y1="233.8" x2="276.5" y2="233.5"/><line class="cls-2" x1="277" y1="233.8" x2="277" y2="233.3"/><line class="cls-2" x1="291.2" y1="225.1" x2="291.2" y2="225.5"/><line class="cls-2" x1="287.6" y1="227.6" x2="287.1" y2="227.4"/><line class="cls-2" x1="287.6" y1="227.6" x2="287.6" y2="227.1"/><line class="cls-2" x1="312.4" y1="212.8" x2="312.4" y2="213.3"/><line class="cls-2" x1="308.8" y1="215.4" x2="308.3" y2="215.1"/><line class="cls-2" x1="308.8" y1="215.4" x2="308.8" y2="214.9"/><line class="cls-2" x1="301.8" y1="218.9" x2="301.8" y2="219.4"/><line class="cls-2" x1="298.2" y1="221.5" x2="297.7" y2="221.3"/><line class="cls-2" x1="238.1" y1="255.7" x2="238.1" y2="256.2"/><line class="cls-2" x1="234.5" y1="258.2" x2="234.1" y2="258"/><line class="cls-2" x1="248.7" y1="249.5" x2="248.7" y2="250"/><line class="cls-2" x1="245.1" y1="252.1" x2="244.7" y2="251.9"/><line class="cls-2" x1="227.5" y1="261.8" x2="227.5" y2="262.3"/><line class="cls-2" x1="223.9" y1="264.4" x2="223.5" y2="264.1"/><line class="cls-2" x1="223.9" y1="264.4" x2="223.9" y2="263.9"/><line class="cls-2" x1="216.9" y1="267.9" x2="216.9" y2="268.4"/><line class="cls-2" x1="213.3" y1="270.5" x2="212.9" y2="270.2"/><line class="cls-2" x1="188.5" y1="245.5" x2="189.7" y2="246.2"/><path class="cls-2" d="M188.5,245.5l-4.3,2.4"/><line class="cls-2" x1="184.2" y1="247.9" x2="185.5" y2="248.7"/><line class="cls-2" x1="172.2" y1="254.9" x2="173.5" y2="255.6"/><path class="cls-2" d="M172.2,254.9l-7.1,4.1"/><path class="cls-2" d="M200.5,238.5l14.1-8.1"/><line class="cls-2" x1="215.9" y1="231.1" x2="214.6" y2="230.4"/><line class="cls-2" x1="230.9" y1="221" x2="232.2" y2="221.7"/><path class="cls-2" d="M230.9,221l-4.3,2.4"/><line class="cls-2" x1="273.3" y1="196.5" x2="274.6" y2="197.2"/><path class="cls-2" d="M273.3,196.5l-4.2,2.5"/><line class="cls-2" x1="269.1" y1="199" x2="270.3" y2="199.7"/><path class="cls-2" d="M242.9,214.1l14.1-8.2"/><line class="cls-2" x1="258.3" y1="206.6" x2="257" y2="205.9"/><path class="cls-2" d="M285.3,189.6l7.1-4.1"/><line class="cls-2" x1="266.3" y1="239.9" x2="266.3" y2="239.4"/><line class="cls-2" x1="265.5" y1="239.9" x2="265.5" y2="240.4"/><line class="cls-2" x1="254.9" y1="246" x2="254.9" y2="246.5"/><line class="cls-2" x1="286.7" y1="227.6" x2="286.7" y2="228.1"/><line class="cls-2" x1="297.3" y1="221.5" x2="297.3" y2="222"/><line class="cls-2" x1="233.7" y1="258.2" x2="233.7" y2="258.7"/><line class="cls-2" x1="245.1" y1="252.1" x2="245.1" y2="251.6"/><line class="cls-2" x1="223.1" y1="264.4" x2="223.1" y2="264.9"/><line class="cls-2" x1="212.5" y1="270.5" x2="212.5" y2="271"/><path class="cls-2" d="M215.9,231.1v.5"/><path class="cls-2" d="M244.2,214.8l.8-.5"/><path class="cls-2" d="M281,230.9l.4.3"/><path class="cls-2" d="M270.4,237.1l.4.2"/><path class="cls-2" d="M259.8,243.2l.4.2"/><path class="cls-2" d="M215.9,231.1l.4.3"/><line class="cls-2" x1="323.8" y1="206.7" x2="323.8" y2="206.2"/><line class="cls-2" x1="270.8" y1="237.3" x2="270.8" y2="236.8"/><line class="cls-2" x1="260.2" y1="243.4" x2="260.2" y2="242.9"/><line class="cls-2" x1="281.4" y1="231.2" x2="281.4" y2="230.7"/><line class="cls-2" x1="292" y1="225.1" x2="292" y2="224.6"/><line class="cls-2" x1="313.2" y1="212.8" x2="313.2" y2="212.3"/><line class="cls-2" x1="302.6" y1="218.9" x2="302.6" y2="218.4"/><line class="cls-2" x1="239" y1="255.7" x2="239" y2="255.2"/><line class="cls-2" x1="234.5" y1="258.2" x2="234.5" y2="257.8"/><polyline class="cls-2" points="249.6 249.5 249.6 249.5 249.6 249.1"/><line class="cls-2" x1="228.4" y1="261.8" x2="228.4" y2="261.3"/><line class="cls-2" x1="217.8" y1="267.9" x2="217.8" y2="267.4"/><path class="cls-2" d="M237.6,218.6l-3.1,1.8"/><path class="cls-2" d="M220.8,228.3l3-1.8"/><line class="cls-2" x1="201.9" y1="277.1" x2="201.9" y2="276.6"/><path class="cls-2" d="M210.6,234.2l.8-.5"/><path class="cls-2" d="M228.8,223.7l-.9.5"/><path class="cls-2" d="M221.6,229.3l3.9-2.3"/><path class="cls-2" d="M239.3,219.1l-3.9,2.2"/><polyline class="cls-2" points="345 193.9 345 194.4 345 194.4"/><path class="cls-2" d="M393,170.2c.3,1,.5,1.9.7,2.8"/><line class="cls-2" x1="337.4" y1="189.2" x2="337.4" y2="189.2"/><line class="cls-2" x1="379.5" y1="199.7" x2="379.5" y2="199.7"/><line class="cls-2" x1="318.5" y1="209.3" x2="318.5" y2="209.7"/><line class="cls-2" x1="276.1" y1="233.8" x2="276.1" y2="234.2"/><line class="cls-2" x1="307.9" y1="215.4" x2="307.9" y2="215.9"/><line class="cls-2" x1="244.3" y1="252.1" x2="244.3" y2="252.6"/><path class="cls-2" d="M166.4,259.7h0"/><path class="cls-2" d="M201.8,239.3l.8-.5"/><path class="cls-2" d="M258.3,206.6v.5"/><path class="cls-2" d="M286.6,190.3l.8-.5"/><line class="cls-2" x1="147.7" y1="299.3" x2="147.7" y2="299.8"/><line class="cls-2" x1="147.7" y1="299.8" x2="146.8" y2="299.3"/><line class="cls-2" x1="146.8" y1="299.3" x2="147.2" y2="299.1"/><line class="cls-2" x1="146.8" y1="299.3" x2="146.8" y2="298.8"/><line class="cls-2" x1="131.8" y1="290.2" x2="131.8" y2="290.7"/><line class="cls-2" x1="131.8" y1="290.7" x2="132.3" y2="290.4"/><line class="cls-2" x1="131.8" y1="290.7" x2="132.7" y2="291.2"/><line class="cls-2" x1="132.7" y1="289.2" x2="134" y2="288.5"/><path class="cls-2" d="M338.8,213.6h.3"/><path class="cls-2" d="M335.2,221.6a.8.8,0,0,0-.4.7"/><path class="cls-2" d="M334.8,228.7c0,.1,0,.2.1.2"/><path class="cls-2" d="M339.2,232a1.2,1.2,0,0,1-.4.8"/><line class="cls-2" x1="377.2" y1="177.3" x2="376" y2="176.6"/><line class="cls-2" x1="380.8" y1="214.5" x2="380.8" y2="203.2"/><line class="cls-2" x1="380.8" y1="203.2" x2="380.4" y2="202.9"/><line class="cls-2" x1="380.8" y1="203.2" x2="380.4" y2="203.4"/><polyline class="cls-2" points="398.5 192 398.5 186.5 398.5 184.8"/><line class="cls-2" x1="398.5" y1="184.8" x2="398" y2="184.6"/><line class="cls-2" x1="398.5" y1="184.8" x2="398" y2="185.1"/><line class="cls-2" x1="399.7" y1="183.1" x2="399.7" y2="172.5"/><line class="cls-2" x1="399.7" y1="172.5" x2="398.5" y2="171.8"/><line class="cls-2" x1="396.4" y1="174.4" x2="395.6" y2="173.9"/><line class="cls-2" x1="396.4" y1="174.4" x2="396.4" y2="174.9"/><line class="cls-2" x1="396.4" y1="174.9" x2="395.6" y2="174.4"/><line class="cls-2" x1="396.4" y1="174.9" x2="395.6" y2="175.4"/><line class="cls-2" x1="391.3" y1="175.9" x2="390" y2="175.2"/><polyline class="cls-2" points="391.3 175.9 391.3 177.4 391.3 177.8"/><line class="cls-2" x1="391.3" y1="177.8" x2="390" y2="177.1"/><polyline class="cls-2" points="390 175.2 390 176.6 390 177.1"/><line class="cls-2" x1="391.3" y1="177.8" x2="390.5" y2="178.3"/><line class="cls-2" x1="390" y1="177.1" x2="389.6" y2="177.4"/><line class="cls-2" x1="390.5" y1="178.3" x2="390.5" y2="177.8"/><line class="cls-2" x1="387.9" y1="179.3" x2="387.1" y2="178.8"/><line class="cls-2" x1="389.2" y1="177.1" x2="387.1" y2="178.3"/><line class="cls-2" x1="387.9" y1="179.3" x2="387.9" y2="179.8"/><line class="cls-2" x1="387.9" y1="179.8" x2="387.1" y2="179.3"/><line class="cls-2" x1="387.9" y1="179.8" x2="387.1" y2="180.3"/><line class="cls-2" x1="387.1" y1="178.3" x2="385.8" y2="177.6"/><line class="cls-2" x1="382.8" y1="180.8" x2="381.6" y2="180"/><line class="cls-2" x1="385.8" y1="177.6" x2="381.6" y2="180"/><polyline class="cls-2" points="382.8 180.8 382.8 182.3 382.8 182.7"/><line class="cls-2" x1="382.8" y1="182.7" x2="381.6" y2="182"/><polyline class="cls-2" points="381.6 180.1 381.6 181.5 381.6 182"/><line class="cls-2" x1="382.8" y1="182.7" x2="382" y2="183.2"/><line class="cls-2" x1="381.6" y1="182" x2="381.1" y2="182.3"/><line class="cls-2" x1="382" y1="183.2" x2="382" y2="182.7"/><path class="cls-2" d="M399.1,180.2a.5.5,0,0,1-.2.4.3.3,0,0,1-.4.2"/><path class="cls-2" d="M367.3,199.5h-.1"/><line class="cls-2" x1="380.4" y1="193" x2="380.4" y2="193.5"/><line class="cls-2" x1="380.4" y1="193.5" x2="379.9" y2="193.2"/><line class="cls-2" x1="381.2" y1="193" x2="381.2" y2="194"/><line class="cls-2" x1="381.2" y1="194" x2="380.8" y2="193.7"/><line class="cls-2" x1="380.8" y1="198" x2="381.2" y2="197.7"/><line class="cls-2" x1="381.2" y1="197.7" x2="381.2" y2="198.7"/><line class="cls-2" x1="381.2" y1="198.7" x2="380.8" y2="198.5"/><line class="cls-2" x1="381.2" y1="198.7" x2="380.8" y2="199"/><line class="cls-2" x1="380.4" y1="199.2" x2="380.4" y2="199.7"/><line class="cls-2" x1="380.4" y1="199.7" x2="379.9" y2="199.4"/><line class="cls-2" x1="380.4" y1="199.7" x2="379.5" y2="200.2"/><polyline class="cls-2" points="334.8 241 366.6 222.6 380.8 214.5"/><path class="cls-2" d="M334.9,217.1h.3"/><path class="cls-2" d="M334.9,228.9h.3"/><path class="cls-2" d="M339.1,225.4a.4.4,0,0,1,.1.3"/><path class="cls-2" d="M399,175.9v.2"/><path class="cls-2" d="M165.1,259l-7,4"/><line class="cls-2" x1="158.1" y1="263" x2="159.3" y2="263.8"/><line class="cls-2" x1="129.8" y1="279.4" x2="131.1" y2="280.1"/><path class="cls-2" d="M129.8,279.4l-11.4,6.5"/><path class="cls-2" d="M119.2,286.9v.5"/><path class="cls-2" d="M119.2,287.4l-.8.5"/><line class="cls-2" x1="117.1" y1="285.2" x2="118.4" y2="285.9"/><path class="cls-2" d="M117.1,285.2l-4.2,2.5"/><line class="cls-2" x1="112.9" y1="287.7" x2="114.2" y2="288.4"/><path class="cls-2" d="M112.9,287.7v1.9"/><line class="cls-2" x1="112.9" y1="289.6" x2="114.2" y2="290.3"/><path class="cls-2" d="M114.2,288.4v1.9"/><path class="cls-2" d="M112.9,289.6l-.4.3"/><path class="cls-2" d="M114.2,290.3l-.9.5"/><path class="cls-2" d="M113.3,290.8v-.5"/><path class="cls-2" d="M112,289.6l-2.1,1.2"/><path class="cls-2" d="M110.8,291.8v.5"/><path class="cls-2" d="M110.8,292.3l-.9.5"/><line class="cls-2" x1="108.6" y1="290.1" x2="109.9" y2="290.8"/><path class="cls-2" d="M108.6,290.1l-4.2,2.5"/><line class="cls-2" x1="104.4" y1="292.6" x2="105.7" y2="293.3"/><path class="cls-2" d="M104.4,292.6v1.9"/><line class="cls-2" x1="104.4" y1="294.5" x2="105.7" y2="295.2"/><path class="cls-2" d="M105.7,293.3v1.9"/><path class="cls-2" d="M104.4,294.5l-.4.3"/><path class="cls-2" d="M105.7,295.2l-.9.5"/><path class="cls-2" d="M104.8,295.7v-.5"/><path class="cls-2" d="M103.5,294.5l-3.3,1.9"/><line class="cls-2" x1="100.2" y1="296.4" x2="101.5" y2="297.2"/><path class="cls-2" d="M100.2,296.4V307"/><line class="cls-2" x1="100.2" y1="307" x2="101.5" y2="307.8"/><line class="cls-2" x1="120.4" y1="297" x2="120" y2="296.8"/><line class="cls-2" x1="120.4" y1="297" x2="120" y2="297.2"/><path class="cls-2" d="M141.8,272.4,146,270"/><line class="cls-2" x1="146" y1="270" x2="147.3" y2="270.7"/><line class="cls-2" x1="118.4" y1="286.4" x2="119.2" y2="286.9"/><line class="cls-2" x1="118.4" y1="286.9" x2="119.2" y2="287.4"/><line class="cls-2" x1="109.9" y1="291.3" x2="110.8" y2="291.8"/><line class="cls-2" x1="109.9" y1="291.8" x2="110.8" y2="292.3"/><line class="cls-2" x1="120" y1="305.2" x2="120.4" y2="305.5"/><line class="cls-2" x1="119.6" y1="305.5" x2="120.4" y2="306"/><path class="cls-2" d="M119.2,305.7v.2"/><line class="cls-2" x1="120" y1="301" x2="120.4" y2="300.8"/><line class="cls-2" x1="192.1" y1="282.2" x2="192.1" y2="282.7"/><line class="cls-2" x1="192.1" y1="282.7" x2="191.7" y2="282.5"/><line class="cls-2" x1="195.7" y1="280.7" x2="195.7" y2="280.2"/><polyline class="cls-2" points="196.6 279.7 196.6 280.2 196.6 280.2"/><line class="cls-2" x1="153.3" y1="336.2" x2="152" y2="335.5"/><line class="cls-2" x1="185.1" y1="286.3" x2="185.1" y2="286.8"/><line class="cls-2" x1="181.5" y1="288.9" x2="181.1" y2="288.6"/><line class="cls-2" x1="181.5" y1="288.9" x2="181.5" y2="288.4"/><line class="cls-2" x1="174.5" y1="292.4" x2="174.5" y2="292.9"/><line class="cls-2" x1="170.9" y1="295" x2="170.5" y2="294.7"/><polyline class="cls-2" points="153.3 336.2 154.5 335.5 160.3 332.1"/><path class="cls-2" d="M292.4,185.5l7.1-4.1"/><line class="cls-2" x1="299.5" y1="181.4" x2="300.7" y2="182.1"/><path class="cls-2" d="M327.8,165.1c3.9-2.3,7.8-4.6,11.8-6.8"/><path class="cls-2" d="M340.8,159v.5"/><line class="cls-2" x1="340.4" y1="158.3" x2="341.7" y2="159"/><path class="cls-2" d="M340.8,159.5l.9-.5"/><path class="cls-2" d="M340.4,158.3v-2"/><line class="cls-2" x1="340.4" y1="156.3" x2="341.7" y2="157"/><path class="cls-2" d="M341.7,159v-2"/><path class="cls-2" d="M340.4,156.3l4.2-2.5"/><line class="cls-2" x1="344.6" y1="153.8" x2="345.9" y2="154.6"/><path class="cls-2" d="M345.9,156.5l.9-.5"/><path class="cls-2" d="M346.8,156v-.4"/><path class="cls-2" d="M349.3,154.1v.5"/><line class="cls-2" x1="348.9" y1="153.4" x2="350.2" y2="154.1"/><path class="cls-2" d="M349.3,154.6l.9-.5"/><path class="cls-2" d="M348.9,153.4v-2"/><line class="cls-2" x1="348.9" y1="151.4" x2="350.2" y2="152.1"/><path class="cls-2" d="M350.2,154.1v-2"/><path class="cls-2" d="M348.9,151.4l4.2-2.5"/><line class="cls-2" x1="353.1" y1="148.9" x2="354.4" y2="149.7"/><path class="cls-2" d="M354.4,151.6l.9-.5"/><path class="cls-2" d="M355.3,151.1v-.4"/><line class="cls-2" x1="357.3" y1="148" x2="358.6" y2="148.7"/><path class="cls-2" d="M357.3,156.8c0,.1,0,.2.1.2"/><line class="cls-2" x1="315.7" y1="172" x2="317" y2="172.7"/><path class="cls-2" d="M315.7,172l-4.2,2.5"/><line class="cls-2" x1="311.5" y1="174.5" x2="312.8" y2="175.2"/><path class="cls-2" d="M357.4,157h.2"/><path class="cls-2" d="M340,158.5l.4-.2"/><line class="cls-2" x1="345.9" y1="155.6" x2="346.8" y2="156"/><line class="cls-2" x1="345.9" y1="155.1" x2="346.8" y2="155.6"/><path class="cls-2" d="M345.9,154.6l2.1-1.2"/><path class="cls-2" d="M348.5,153.6l.4-.2"/><line class="cls-2" x1="354.4" y1="150.7" x2="355.3" y2="151.1"/><line class="cls-2" x1="354.4" y1="150.2" x2="355.3" y2="150.7"/><path class="cls-2" d="M354.4,149.7l2.9-1.7"/><path class="cls-2" d="M143.1,273.2l.8-.5"/><path class="cls-2" d="M147.3,270.7v.5"/><path class="cls-2" d="M300.7,182.1v.5"/><path class="cls-2" d="M329,165.8l.9-.5"/><path class="cls-2" d="M160.6,263.5l-.4-.2"/><line class="cls-2" x1="160.2" y1="263.3" x2="160.2" y2="263.8"/><path class="cls-2" d="M163.8,261.2l.4.2"/><path class="cls-2" d="M165.1,261l-.5-.3"/><path class="cls-2" d="M169.4,258.4l-.4-.2"/><line class="cls-2" x1="169" y1="258.2" x2="169" y2="258.7"/><path class="cls-2" d="M172.6,256.1l.5.2"/><line class="cls-2" x1="164.6" y1="260.7" x2="164.6" y2="261.2"/><path class="cls-2" d="M168.2,258.7l.4.2"/><line class="cls-2" x1="195.2" y1="241.6" x2="195.2" y2="243.1"/><path class="cls-2" d="M177.5,251.8h.1"/><path class="cls-2" d="M179.8,254.6h.9"/><path class="cls-2" d="M180.7,254.6l1.2-.8"/><path class="cls-2" d="M186.2,251.4a.4.4,0,0,0,.1-.3"/><line class="cls-2" x1="186.2" y1="250.9" x2="186.2" y2="251.4"/><path class="cls-2" d="M181.6,249.6h-.2"/><line class="cls-2" x1="181.4" y1="249.6" x2="181.4" y2="251"/><path class="cls-2" d="M181.6,251.1h-.2"/><path class="cls-2" d="M181.4,249.6l2.8-1.7"/><path class="cls-2" d="M186.8,248.4l-.5-.2"/><line class="cls-2" x1="186.3" y1="248.2" x2="186.3" y2="248.7"/><path class="cls-2" d="M188.9,246.7l.4.3"/><path class="cls-2" d="M188.5,245.5l2.8-1.6"/><path class="cls-2" d="M191.3,243.9h.1"/><path class="cls-2" d="M193.6,246.6h.8"/><path class="cls-2" d="M194.4,246.6l1.3-.7"/><path class="cls-2" d="M199.9,243.4a.2.2,0,0,0,.2-.2"/><path class="cls-2" d="M195.3,241.7h-.1"/><path class="cls-2" d="M195.3,243.1h-.1"/><line class="cls-2" x1="184.9" y1="252.1" x2="184.9" y2="252.9"/><line class="cls-2" x1="184.9" y1="252.9" x2="182.7" y2="254.1"/><line class="cls-2" x1="198.7" y1="244.2" x2="198.7" y2="244.9"/><line class="cls-2" x1="198.7" y1="244.9" x2="196.5" y2="246.2"/><path class="cls-2" d="M209.5,235.6a.2.2,0,0,1,.2.2"/><path class="cls-2" d="M211.9,238.8a.9.9,0,0,0,1,0"/><path class="cls-2" d="M212.9,238.8l1.3-1.7"/><path class="cls-2" d="M214.2,237.1a1.1,1.1,0,0,1,1-.1"/><path class="cls-2" d="M215.2,237l3.4,2"/><path class="cls-2" d="M218.6,239l.2.2"/><path class="cls-2" d="M215.6,240.3h-.1"/><path class="cls-2" d="M218.9,242.8a.7.7,0,0,0,.9,0"/><path class="cls-2" d="M219.8,242.8l1.4-1.7"/><path class="cls-2" d="M221.2,241.1a1,1,0,0,1,.9-.1"/><path class="cls-2" d="M222.1,241l3.4,2"/><path class="cls-2" d="M225.5,243l.2.2"/><path class="cls-2" d="M228.1,245.1a1,1,0,0,1,.9-.1"/><path class="cls-2" d="M229.4,248.3h-.1"/><path class="cls-2" d="M203,239l-.4-.2"/><line class="cls-2" x1="202.6" y1="238.8" x2="202.6" y2="239.3"/><path class="cls-2" d="M206.2,236.7l.4.3"/><path class="cls-2" d="M207.5,236.5l-.4-.3"/><line class="cls-2" x1="207.1" y1="236.2" x2="207.1" y2="236.7"/><line class="cls-2" x1="152.8" y1="266.1" x2="152.8" y2="267.6"/><path class="cls-2" d="M135.1,276.3h.1"/><path class="cls-2" d="M137.4,279.1h.8"/><path class="cls-2" d="M138.2,279.1l1.3-.8"/><path class="cls-2" d="M143.7,275.9l.2-.3"/><line class="cls-2" x1="143.7" y1="275.4" x2="143.7" y2="275.9"/><path class="cls-2" d="M139.1,274.1a.1.1,0,0,1-.1-.1"/><line class="cls-2" x1="139" y1="274" x2="139" y2="275.5"/><path class="cls-2" d="M139.1,275.6H139"/><path class="cls-2" d="M139,274l2.8-1.6"/><path class="cls-2" d="M144.3,272.9l-.4-.2"/><line class="cls-2" x1="143.9" y1="272.7" x2="143.9" y2="273.2"/><path class="cls-2" d="M146.5,271.2a.5.5,0,0,0,.4.2"/><path class="cls-2" d="M146,270l2.8-1.6"/><path class="cls-2" d="M148.8,268.4h.1"/><path class="cls-2" d="M151.2,271.1h.8"/><path class="cls-2" d="M152,271.1l1.3-.7"/><path class="cls-2" d="M157.5,267.9a.2.2,0,0,0,.2-.2"/><line class="cls-2" x1="157.5" y1="267.4" x2="157.5" y2="267.9"/><path class="cls-2" d="M152.9,266.1h-.1"/><path class="cls-2" d="M152.9,267.6h-.1"/><line class="cls-2" x1="142.5" y1="276.6" x2="142.5" y2="277.3"/><line class="cls-2" x1="142.5" y1="277.3" x2="140.3" y2="278.6"/><line class="cls-2" x1="156.3" y1="268.7" x2="156.3" y2="269.4"/><line class="cls-2" x1="156.3" y1="269.4" x2="154.1" y2="270.7"/><path class="cls-2" d="M130.6,280.8l-.4-.2"/><line class="cls-2" x1="124" y1="284.2" x2="124" y2="285.7"/><line class="cls-2" x1="134.4" y1="288.2" x2="134.4" y2="288.7"/><path class="cls-2" d="M134.4,288.2l.8.5"/><path class="cls-2" d="M135.2,288.7l-.4.3"/><line class="cls-2" x1="146.8" y1="297.4" x2="146.8" y2="298.8"/><line class="cls-2" x1="172.2" y1="254.9" x2="177.5" y2="251.8"/><path class="cls-2" d="M195.2,241.6l5.3-3.1"/><line class="cls-2" x1="152.8" y1="266.1" x2="158.1" y2="263"/><path class="cls-2" d="M129.8,279.4l5.3-3.1"/><path class="cls-2" d="M186.3,251.1c0-.1,0-.2-.1-.2"/><path class="cls-2" d="M200.1,243.2l-.2-.3"/><path class="cls-2" d="M199.3,245a.9.9,0,0,0-.6-.8"/><path class="cls-2" d="M215.3,240.6v.3"/><path class="cls-2" d="M225.7,243.2c0,.2-.1.3-.2.3"/><path class="cls-2" d="M222.2,244.6l.2.3"/><path class="cls-2" d="M143.9,275.6a.2.2,0,0,0-.2-.2"/><path class="cls-2" d="M157.7,267.7l-.2-.3"/><path class="cls-2" d="M156.9,269.5a.9.9,0,0,0-.6-.8"/><line class="cls-2" x1="280" y1="192.6" x2="280" y2="194.1"/><path class="cls-2" d="M280,192.6h.2"/><path class="cls-2" d="M280,194.1h.2"/><line class="cls-2" x1="284.8" y1="194" x2="284.8" y2="194.4"/><path class="cls-2" d="M284.8,194l.2.2"/><path class="cls-2" d="M279.3,197.6a.7.7,0,0,1-.9,0"/><path class="cls-2" d="M276.2,195h-.1"/><path class="cls-2" d="M276.1,194.9l-2.8,1.6"/><path class="cls-2" d="M274.2,198l-.5-.3"/><line class="cls-2" x1="271.2" y1="199.2" x2="271.2" y2="199.7"/><path class="cls-2" d="M271.2,199.2l.4.2"/><path class="cls-2" d="M270.8,199.9l-.5-.2"/><path class="cls-2" d="M269.1,199l-2.8,1.6"/><line class="cls-2" x1="266.3" y1="200.6" x2="266.3" y2="202"/><path class="cls-2" d="M266.3,200.6h.1"/><path class="cls-2" d="M266.3,202h.1"/><line class="cls-2" x1="271" y1="201.9" x2="271" y2="202.4"/><path class="cls-2" d="M271,201.9c.1.1.2.1.2.3"/><path class="cls-2" d="M265.5,205.6h-.8"/><path class="cls-2" d="M262.4,202.9h-.1"/><path class="cls-2" d="M283.5,195.2a.9.9,0,0,1,.6.8"/><line class="cls-2" x1="283.5" y1="195.9" x2="283.5" y2="195.2"/><path class="cls-2" d="M280.6,196.9l-1.3.7"/><line class="cls-2" x1="269.7" y1="203.9" x2="269.7" y2="203.1"/><path class="cls-2" d="M266.8,204.8l-1.3.8"/><path class="cls-2" d="M330.3,165.6l-.4-.3"/><line class="cls-2" x1="329.9" y1="165.3" x2="329.9" y2="165.8"/><line class="cls-2" x1="329.9" y1="165.3" x2="336.1" y2="161.7"/><path class="cls-2" d="M343.9,168.2l.5-.2"/><line class="cls-2" x1="356.8" y1="175.2" x2="356.8" y2="175.6"/><path class="cls-2" d="M356.8,175.2l-.4.2"/><line class="cls-2" x1="358.9" y1="174.9" x2="360.6" y2="175.8"/><line class="cls-2" x1="322.5" y1="168.1" x2="322.5" y2="169.6"/><path class="cls-2" d="M322.5,168.1h.1"/><path class="cls-2" d="M322.5,169.6h.1"/><path class="cls-2" d="M327.2,169.5a.2.2,0,0,1,.2.2"/><path class="cls-2" d="M321.7,173.1a.6.6,0,0,1-.8,0"/><path class="cls-2" d="M318.6,170.5h-.1"/><path class="cls-2" d="M318.5,170.4l-2.8,1.6"/><path class="cls-2" d="M316.6,173.5l-.4-.3"/><line class="cls-2" x1="313.6" y1="174.7" x2="313.6" y2="175.2"/><path class="cls-2" d="M313.6,174.7l.4.2"/><path class="cls-2" d="M313.2,175.4l-.4-.2"/><path class="cls-2" d="M311.5,174.5l-2.8,1.6"/><line class="cls-2" x1="308.7" y1="176.1" x2="308.7" y2="177.5"/><path class="cls-2" d="M308.7,176.1h.1"/><path class="cls-2" d="M308.7,177.5h.1"/><line class="cls-2" x1="313.4" y1="177.4" x2="313.4" y2="177.9"/><path class="cls-2" d="M313.4,177.4c.1.1.2.1.2.3"/><path class="cls-2" d="M307.9,181.1h-.8"/><path class="cls-2" d="M304.9,178.4h-.1"/><path class="cls-2" d="M325.9,170.7c.3.2.7.4.7.8"/><line class="cls-2" x1="325.9" y1="171.4" x2="325.9" y2="170.7"/><path class="cls-2" d="M323,172.4l-1.3.7"/><line class="cls-2" x1="312.2" y1="179.4" x2="312.2" y2="178.6"/><path class="cls-2" d="M309.2,180.4l-1.3.7"/><path class="cls-2" d="M300.3,182.9l-.4-.3"/><line class="cls-2" x1="296.3" y1="184.7" x2="296.3" y2="185.2"/><path class="cls-2" d="M296.3,184.7l.4.2"/><path class="cls-2" d="M295.9,185.4l-.5-.2"/><path class="cls-2" d="M291.5,188l-.4-.3"/><line class="cls-2" x1="287.5" y1="189.8" x2="287.5" y2="190.3"/><path class="cls-2" d="M287.5,189.8l.4.3"/><line class="cls-2" x1="261" y1="214.5" x2="261" y2="214.5"/><path class="cls-2" d="M258,215.8l-.3.3"/><path class="cls-2" d="M257.9,207.4l-.4-.3"/><line class="cls-2" x1="253.9" y1="209.2" x2="253.9" y2="209.7"/><path class="cls-2" d="M253.9,209.2a.5.5,0,0,0,.4.2"/><path class="cls-2" d="M253.4,209.9l-.4-.2"/><path class="cls-2" d="M262.3,202.8c-1.7,1.1-3.5,2.1-5.3,3.1"/><path class="cls-2" d="M327.8,165.1l-5.3,3"/><line class="cls-2" x1="285.3" y1="189.6" x2="280" y2="192.6"/><line class="cls-2" x1="304.8" y1="178.3" x2="299.5" y2="181.4"/><path class="cls-2" d="M285,194.2a.2.2,0,0,1-.2.2"/><path class="cls-2" d="M271.2,202.2c0,.1-.1.1-.2.2"/><line class="cls-2" x1="284.1" y1="196" x2="284.1" y2="196.3"/><path class="cls-2" d="M327.4,169.7a.2.2,0,0,1-.2.2"/><path class="cls-2" d="M313.6,177.7a.2.2,0,0,1-.2.2"/><line class="cls-2" x1="326.6" y1="171.5" x2="326.6" y2="171.8"/><line class="cls-2" x1="281.3" y1="197.2" x2="283.5" y2="195.9"/><line class="cls-2" x1="267.6" y1="205.1" x2="269.7" y2="203.9"/><line class="cls-2" x1="323.8" y1="172.7" x2="325.9" y2="171.4"/><line class="cls-2" x1="310" y1="180.6" x2="312.2" y2="179.4"/><path class="cls-2" d="M147.7,271l-.4-.3"/><path class="cls-2" d="M152.8,267.6l-3.1,1.7"/><path class="cls-2" d="M135.9,277.3l3.1-1.8"/><polyline class="cls-2" points="186 286.3 186 286.3 186 285.8"/><polyline class="cls-2" points="175.3 292.4 175.3 292.4 175.3 291.9"/><path class="cls-2" d="M322.5,169.6l-3.1,1.8"/><path class="cls-2" d="M305.6,179.3l3.1-1.8"/><path class="cls-2" d="M160.2,263.3l-.9.5"/><path class="cls-2" d="M131.1,280.6v-.5"/><path class="cls-2" d="M124,284.2l-2.3,1.3"/><path class="cls-2" d="M154.5,268l-4,2.3"/><path class="cls-2" d="M136.7,278.3l4-2.3"/><path class="cls-2" d="M295.4,185.2l.9-.5"/><path class="cls-2" d="M317,173.2v-.5"/><path class="cls-2" d="M313.6,174.7l-.8.5"/><path class="cls-2" d="M306.4,180.3l4-2.3"/><path class="cls-2" d="M324.2,170.1c-1.4.7-2.7,1.5-4,2.3"/><path class="cls-2" d="M159.3,263.8l.5.2"/><path class="cls-2" d="M134,288.5l.4-.3"/><path class="cls-2" d="M196.1,279.9l.5.3"/><path class="cls-2" d="M185.5,286l.5.3"/><path class="cls-2" d="M174.9,292.2l.4.2"/><path class="cls-2" d="M131.1,280.1l.4.2"/><path class="cls-2" d="M317,172.7l.4.3"/><path class="cls-2" d="M300.7,182.1l.5.3"/><path class="cls-2" d="M398.5,180.8v-.2"/><path class="cls-2" d="M101.5,307.8l.4-.3"/><line class="cls-2" x1="170" y1="295" x2="170" y2="295.5"/><path class="cls-2" d="M336.1,161.7l2.3-1.3"/><path class="cls-2" d="M355.3,150.7l2-1.2"/><path class="cls-2" d="M173.9,255.9l-.4-.3"/><path class="cls-2" d="M190.2,246.5l-.5-.3"/><line class="cls-2" x1="199.9" y1="242.9" x2="199.9" y2="243.4"/><path class="cls-2" d="M302.6,218.9l-.4-.2"/><path class="cls-2" d="M313.2,212.8l-.4-.2"/><path class="cls-2" d="M345,194.4l-.4-.2"/><line class="cls-2" x1="327.2" y1="169.5" x2="327.2" y2="169.9"/><path class="cls-2" d="M323.8,206.7l-.4-.3"/><path class="cls-2" d="M334.4,200.6l-.4-.3"/><path class="cls-2" d="M291.9,187.2l.4.3"/><path class="cls-2" d="M292,225.1l-.4-.3"/><path class="cls-2" d="M377.2,181.4l2.3,1.3"/><polyline class="cls-2" points="334.4 200.6 334.4 200.6 334.4 200.1"/><path class="cls-2" d="M215.5,240.4l-.2.2"/><path class="cls-2" d="M229.3,248.4l-.2.2"/><path class="cls-2" d="M225.5,243.5h-.1"/><path class="cls-2" d="M138.1,321.4l-4.4-2.5"/><path class="cls-2" d="M398.5,184.8v-1"/><path class="cls-2" d="M181.4,251l-3.1,1.8"/><line class="cls-2" x1="266.3" y1="202" x2="263.2" y2="203.8"/><path class="cls-2" d="M280,194.1l-3,1.8"/><line class="cls-2" x1="192.1" y1="244.8" x2="195.2" y2="243.1"/><line class="cls-2" x1="350.3" y1="191.4" x2="350.3" y2="190.9"/><line class="cls-2" x1="398.8" y1="175.9" x2="399.1" y2="176.1"/><path class="cls-2" d="M357.3,160.1l.4.2"/><path class="cls-2" d="M357.3,152.7l.4.3"/><line class="cls-2" x1="343.5" y1="168" x2="343.5" y2="167.5"/><path class="cls-2" d="M377.2,182.9l1,.5"/><path class="cls-2" d="M338.4,163v-2.6"/><path class="cls-2" d="M101.5,307.8l.4.2"/><path class="cls-2" d="M120.4,296l.5.3"/><path class="cls-2" d="M189.7,246.7v-.5"/><path class="cls-2" d="M186.3,248.2l-.8.5"/><path class="cls-2" d="M173.5,256.1v-.5"/><path class="cls-2" d="M169,258.2l-.8.5"/><path class="cls-2" d="M274.6,197.7v-.5"/><path class="cls-2" d="M271.2,199.2l-.9.5"/><path class="cls-2" d="M253,209.7l.9-.5"/><path class="cls-2" d="M183.1,251.5l-3.9,2.3"/><line class="cls-2" x1="268" y1="202.5" x2="264" y2="204.8"/><path class="cls-2" d="M281.7,194.6l-3.9,2.3"/><line class="cls-2" x1="192.9" y1="245.8" x2="196.9" y2="243.6"/><line class="cls-2" x1="174.1" y1="293.1" x2="174.1" y2="293.1"/><path class="cls-2" d="M185.5,248.7l.4.2"/><path class="cls-2" d="M232.4,247.5h-.1"/><line class="cls-2" x1="338.5" y1="198.2" x2="338.5" y2="198.2"/><line class="cls-2" x1="261.2" y1="214.8" x2="261.2" y2="214.8"/><line class="cls-2" x1="268.1" y1="218.8" x2="268.1" y2="218.8"/><path class="cls-2" d="M251.9,211.6h-.2"/><path class="cls-2" d="M274.9,223h-.1"/><path class="cls-2" d="M120.4,286.2l-1.2.7"/><line class="cls-2" x1="124" y1="286.8" x2="124" y2="285.7"/><path class="cls-2" d="M101.5,304.5v1"/><line class="cls-2" x1="120.4" y1="301.7" x2="120" y2="302"/><line class="cls-2" x1="191.3" y1="283.2" x2="191.3" y2="282.7"/><line class="cls-2" x1="152" y1="334.3" x2="152" y2="335.5"/><line class="cls-2" x1="156.8" y1="309.4" x2="156.8" y2="309.8"/><path class="cls-2" d="M206.7,273.8l.5.2"/><path class="cls-2" d="M228,261.5l.4.3"/><path class="cls-2" d="M217.3,267.7l.5.2"/><path class="cls-2" d="M238.6,255.4l.4.3"/><path class="cls-2" d="M274.6,197.2l.4.3"/><path class="cls-2" d="M343.5,167.5l-.4.2"/><path class="cls-2" d="M258.3,206.6l.4.3"/><line class="cls-2" x1="339.7" y1="197.5" x2="339.7" y2="197"/><line class="cls-2" x1="351.2" y1="190.9" x2="350.8" y2="190.6"/><path class="cls-2" d="M101.9,299.7l-.4-.2"/><line class="cls-2" x1="291.9" y1="187.7" x2="291.9" y2="187.2"/><path class="cls-2" d="M101.5,305.5l.4.2"/><line class="cls-2" x1="334.4" y1="200.1" x2="333.6" y2="200.6"/><line class="cls-2" x1="330" y1="202.6" x2="329.1" y2="203.1"/><line class="cls-2" x1="368.9" y1="172.5" x2="368.9" y2="180.7"/><line class="cls-2" x1="371.2" y1="195.5" x2="371.2" y2="197.3"/><line class="cls-2" x1="339.7" y1="197" x2="340.6" y2="196.5"/><line class="cls-2" x1="340.6" y1="196.5" x2="340.6" y2="197"/><line class="cls-2" x1="344.2" y1="194.9" x2="344.2" y2="194.4"/><line class="cls-2" x1="344.2" y1="194.4" x2="345" y2="193.9"/><line class="cls-2" x1="350.3" y1="190.9" x2="351.2" y2="190.4"/><line class="cls-2" x1="354.8" y1="188.3" x2="355.6" y2="187.8"/><line class="cls-2" x1="326.5" y1="197" x2="368.9" y2="172.5"/><line class="cls-2" x1="325.2" y1="196.3" x2="367.6" y2="171.8"/><path class="cls-2" d="M392,174l-3.7-2.1"/><path class="cls-2" d="M389.1,167.8l-9.9-5.7"/><path class="cls-2" d="M379.2,162.3l1.2,4.6"/><path class="cls-2" d="M398.5,204.3V192"/><path class="cls-2" d="M397.2,172.5l-4.2-2.4"/><line class="cls-2" x1="390.2" y1="172.3" x2="392.6" y2="173.7"/><path class="cls-2" d="M360.7,156l5.5,3.2"/><path class="cls-2" d="M366.6,158.9l-1.2-4.6"/><path class="cls-2" d="M365.4,154.2l9.9,5.6"/><path class="cls-2" d="M357.7,160.3v-.9"/><line class="cls-2" x1="357.7" y1="157.6" x2="357.3" y2="157.8"/><path class="cls-2" d="M357.3,159.1v-1.3"/><path class="cls-2" d="M357.7,158v-.9"/><path class="cls-2" d="M357.7,157.1l-.4-.3"/><path class="cls-2" d="M357.7,153v-1"/><path class="cls-2" d="M357.3,149.5l4.2,2.4"/><line class="cls-2" x1="365.6" y1="158.1" x2="362.6" y2="156.4"/><line class="cls-2" x1="380" y1="167.1" x2="374.5" y2="164"/><line class="cls-2" x1="379.4" y1="166" x2="376.4" y2="164.3"/><line class="cls-2" x1="334.8" y1="216.8" x2="334.8" y2="201.8"/><line class="cls-2" x1="334.8" y1="201.8" x2="333.5" y2="201.1"/><path class="cls-2" d="M334.8,241v-6.9"/><path class="cls-2" d="M334.8,228.7v-6.4"/><path class="cls-2" d="M335.2,221.6l3.6-.7"/><path class="cls-2" d="M207.1,307.4l-3.5,3.4"/><path class="cls-2" d="M203.2,310.6v-6.4"/><path class="cls-2" d="M207.6,302.1v-6.3"/><path class="cls-2" d="M207.1,295.5l-3.5,3.5"/><path class="cls-2" d="M203.2,298.8v-6.4"/><path class="cls-2" d="M207.6,275.3l127.2-73.5"/><path class="cls-2" d="M206.3,274.6l127.2-73.5"/><path class="cls-2" d="M207.4,295.5c-.1-.1-.2,0-.3,0"/><line class="cls-2" x1="344.8" y1="166.7" x2="343.5" y2="167.5"/><line class="cls-2" x1="358.9" y1="174.9" x2="344.8" y2="166.7"/><line class="cls-2" x1="357.7" y1="175.6" x2="356.8" y2="175.2"/><line class="cls-2" x1="344.4" y1="168" x2="343.5" y2="167.5"/><path class="cls-2" d="M207.6,307.6v6.9"/><line class="cls-2" x1="207.6" y1="275.3" x2="206.3" y2="274.6"/><line class="cls-2" x1="161.6" y1="341" x2="161.6" y2="329.7"/><line class="cls-2" x1="160.3" y1="340.3" x2="160.3" y2="329.5"/><polyline class="cls-2" points="162 328.5 161.6 328.8 155.3 332.4 143.9 339"/><line class="cls-2" x1="144.3" y1="331.5" x2="144.3" y2="330.6"/><line class="cls-2" x1="144.3" y1="330.6" x2="142.6" y2="331.5"/><line class="cls-2" x1="142.6" y1="331.5" x2="142.6" y2="320.9"/><line class="cls-2" x1="141.4" y1="330.8" x2="141.4" y2="320.2"/><line class="cls-2" x1="142.6" y1="320.9" x2="146" y2="319"/><line class="cls-2" x1="146" y1="319" x2="144.7" y2="318.3"/><line class="cls-2" x1="141.4" y1="320.2" x2="144.7" y2="318.3"/><line class="cls-2" x1="146" y1="319" x2="146" y2="319.5"/><line class="cls-2" x1="146" y1="319.5" x2="146.8" y2="319"/><line class="cls-2" x1="146.8" y1="317" x2="151.1" y2="314.6"/><polyline class="cls-2" points="151.1 314.6 151.1 316.1 151.1 316.6"/><line class="cls-2" x1="151.9" y1="315.6" x2="154.5" y2="314.1"/><line class="cls-2" x1="154.5" y1="314.1" x2="153.2" y2="313.4"/><line class="cls-2" x1="155.3" y1="312.1" x2="159.5" y2="309.7"/><line class="cls-2" x1="154" y1="311.4" x2="158.3" y2="309"/><polyline class="cls-2" points="159.5 309.7 159.5 311.2 159.5 311.7"/><line class="cls-2" x1="159.5" y1="311.7" x2="160.4" y2="311.2"/><line class="cls-2" x1="160.4" y1="311.2" x2="159.5" y2="310.7"/><line class="cls-2" x1="160.4" y1="310.7" x2="159.5" y2="310.2"/><line class="cls-2" x1="160.4" y1="310.7" x2="165.1" y2="307.9"/><line class="cls-2" x1="159.5" y1="309.7" x2="163.9" y2="307.2"/><path class="cls-2" d="M143.3,323.8v4.1"/><path class="cls-2" d="M169.6,311.9a3.3,3.3,0,0,0-1.5,2.5,1,1,0,0,0,.5.9"/><line class="cls-2" x1="162" y1="319.5" x2="161.2" y2="320"/><line class="cls-2" x1="161.2" y1="320" x2="161.2" y2="321"/><line class="cls-2" x1="161.6" y1="320.8" x2="161.6" y2="324.5"/><line class="cls-2" x1="161.2" y1="324.8" x2="161.2" y2="325.7"/><line class="cls-2" x1="162.9" y1="318.6" x2="162" y2="319"/><line class="cls-2" x1="165.1" y1="299.8" x2="207.6" y2="275.3"/><line class="cls-2" x1="163.9" y1="299" x2="206.3" y2="274.6"/><path class="cls-2" d="M143.8,323.2l-.4.2c0,.1-.1.3-.1.4"/><path class="cls-2" d="M174.8,309.4a.9.9,0,0,0-1,.1"/><path class="cls-2" d="M346.5,165.1l9.8,5.7"/><line class="cls-2" x1="356.3" y1="170.8" x2="357.6" y2="170.1"/><path class="cls-2" d="M347.8,164.4l9.8,5.7"/><line class="cls-2" x1="356.3" y1="170.9" x2="357.6" y2="170.2"/><path class="cls-2" d="M356.3,170.9c-.2.7-.5,1.4-.7,2.1"/><path class="cls-2" d="M357.6,170.2l-1.2,3.2"/><path class="cls-2" d="M360.3,173.1l2.5,1.4"/><line class="cls-2" x1="379.5" y1="194" x2="380.4" y2="193.5"/><line class="cls-2" x1="379.5" y1="199.7" x2="380.8" y2="199"/><path class="cls-2" d="M380.8,193.2V199"/><path class="cls-2" d="M338.4,160.4l4.1,2.4"/><path class="cls-2" d="M251.1,211.8l-.3.3"/><path class="cls-2" d="M250.9,212.4l3.5,2"/><path class="cls-2" d="M257.6,212.5l3.4,2"/><path class="cls-2" d="M257.9,216.4l3.4,2"/><path class="cls-2" d="M264.5,216.5l3.5,2"/><path class="cls-2" d="M264.8,220.4l3.4,2"/><path class="cls-2" d="M268.2,222.4a1.1,1.1,0,0,0,1-.1"/><path class="cls-2" d="M269.2,222.3l1.3-1.7"/><path class="cls-2" d="M271.5,220.5l3.4,2"/><path class="cls-2" d="M274.9,222.5c.1.1.2.1.2.3"/><path class="cls-2" d="M271.7,224.4l2.4,1.4"/><path class="cls-2" d="M242.9,214.1l1.7.9"/><path class="cls-2" d="M244.6,215l.9-.5"/><path class="cls-2" d="M245,214.3l3.6-2.1"/><path class="cls-2" d="M249.1,212.5l.8-.5"/><line class="cls-2" x1="249.5" y1="211.7" x2="251.2" y2="210.7"/><path class="cls-2" d="M251.2,210.7l.7.4"/><path class="cls-2" d="M220,227.4l2.2,2.7"/><path class="cls-2" d="M228.6,226.4l-4.6-1.3"/><line class="cls-2" x1="224" y1="225.1" x2="224" y2="226.6"/><path class="cls-2" d="M227.4,227.6l-3.4-1"/><path class="cls-2" d="M226.6,223.4l1.7,1"/><path class="cls-2" d="M228.3,224.4l.9-.5"/><path class="cls-2" d="M228.8,223.7l2.5-1.5"/><path class="cls-2" d="M231.7,222.5l.9-.5"/><path class="cls-2" d="M233.8,219.5l2.2,2.6"/><line class="cls-2" x1="242.4" y1="218.4" x2="242.4" y2="218.9"/><path class="cls-2" d="M242.4,218.4l-4.6-1.2"/><line class="cls-2" x1="237.8" y1="217.2" x2="237.8" y2="218.6"/><path class="cls-2" d="M241.2,219.6l-3.4-1"/><path class="cls-2" d="M224.4,229.3a2.7,2.7,0,0,0,2,.4l1-.4c.2-.2.5-.4.5-.8"/><path class="cls-2" d="M227.3,227.6l1.3-.7"/><path class="cls-2" d="M238.1,221.4a3.7,3.7,0,0,0,2.1.3l.9-.3a1.1,1.1,0,0,0,.6-.9"/><path class="cls-2" d="M241.1,219.7l1.3-.8"/><path class="cls-2" d="M208.7,236.3l-.4.3"/><path class="cls-2" d="M218.5,239.6l-2.9.7"/><path class="cls-2" d="M225.4,243.6l-2.9.7"/><path class="cls-2" d="M232.3,247.6l-2.9.7"/><path class="cls-2" d="M216.3,231.4l-.8.5"/><path class="cls-2" d="M215,231.6l-3.6,2.1"/><path class="cls-2" d="M211.9,233.9l-.9.5"/><line class="cls-2" x1="210.6" y1="234.2" x2="208.8" y2="235.2"/><path class="cls-2" d="M250.8,212.1v.3"/><path class="cls-2" d="M261.2,214.8l-.3.3"/><path class="cls-2" d="M268.1,218.8l-.3.3"/><path class="cls-2" d="M271.6,224.1a.4.4,0,0,0,.1.3"/><line class="cls-2" x1="227.9" y1="228.5" x2="227.9" y2="228.7"/><path class="cls-2" d="M227.9,228.5a1.1,1.1,0,0,0-.6-.9"/><path class="cls-2" d="M227.8,228.8a1,1,0,0,0-.5-.4"/><path class="cls-2" d="M241.6,220.9a1.2,1.2,0,0,0-.5-.5"/><path class="cls-2" d="M138,322.8l-1.3-.7"/><line class="cls-2" x1="133.2" y1="315.6" x2="134.5" y2="314.9"/><path class="cls-2" d="M133.3,318.1l1.2-3.2"/><line class="cls-2" x1="133.2" y1="315.5" x2="134.5" y2="314.8"/><path class="cls-2" d="M133.2,315.5l-9.8-5.7"/><line class="cls-2" x1="123.4" y1="309.8" x2="124.7" y2="309.1"/><path class="cls-2" d="M134.5,314.8l-9.8-5.7"/><path class="cls-2" d="M123.4,310l1.2,4.6"/><path class="cls-2" d="M124.2,314.8l-1.3-.7"/><path class="cls-2" d="M142.6,351.9V331.5"/><path class="cls-2" d="M143.9,351.2V330.8"/><path class="cls-2" d="M141,328.3v-1"/><path class="cls-2" d="M141.4,320.2l-4.2-2.4"/><line class="cls-2" x1="137.2" y1="317.8" x2="138.5" y2="317"/><path class="cls-2" d="M137.2,317.9l1.2,4.7"/><path class="cls-2" d="M122.9,314.1a1.3,1.3,0,0,1-.4,1"/><path class="cls-2" d="M110.8,306.6l-1.2-4.6"/><path class="cls-2" d="M109.6,301.9l9.9,5.6"/><line class="cls-2" x1="119.5" y1="307.5" x2="120.7" y2="306.8"/><path class="cls-2" d="M110.9,301.1l9.8,5.7"/><line class="cls-2" x1="119.5" y1="307.7" x2="120.7" y2="306.9"/><path class="cls-2" d="M119.5,307.7l-1.2,3.2"/><line class="cls-2" x1="118.3" y1="310.9" x2="119.5" y2="310.2"/><path class="cls-2" d="M120.7,306.9l-1.2,3.3"/><path class="cls-2" d="M118.7,311.7l1.3.7"/><path class="cls-2" d="M101.9,308v-1"/><path class="cls-2" d="M101.5,306.8v-1.3"/><path class="cls-2" d="M101.9,305.7v-.9"/><path class="cls-2" d="M101.9,300.7v-1"/><path class="cls-2" d="M101.5,299.5v-2.3"/><path class="cls-2" d="M101.5,297.2l4.2,2.4"/><path class="cls-2" d="M120,312.4a3.4,3.4,0,0,0,1.4,2.6"/><path class="cls-2" d="M120.6,312a3.4,3.4,0,0,0,1.5,2.6"/><line class="cls-2" x1="120" y1="312.4" x2="120.6" y2="312"/><path class="cls-2" d="M109.1,306.1a1.2,1.2,0,0,1-.4,1"/><path class="cls-2" d="M109.1,306.1l1.3.8"/><line class="cls-2" x1="101.5" y1="304.5" x2="101.5" y2="300.4"/><line class="cls-2" x1="124.3" y1="313.4" x2="120" y2="310.9"/><line class="cls-2" x1="123.6" y1="313.7" x2="120.6" y2="312"/><path class="cls-2" d="M122.8,314.8l-.7-.2"/><path class="cls-2" d="M122.5,315.1a1.4,1.4,0,0,1-1.1-.1"/><path class="cls-2" d="M136.3,323a1.1,1.1,0,0,0,.4-.9"/><line class="cls-2" x1="125.9" y1="288" x2="124.6" y2="288.8"/><line class="cls-2" x1="125.9" y1="287.9" x2="124.6" y2="288.6"/><path class="cls-2" d="M125.9,288l-1.2,3.3"/><line class="cls-2" x1="124.7" y1="291.3" x2="123.4" y2="292"/><path class="cls-2" d="M124.6,288.8l-1.2,3.2"/><path class="cls-2" d="M123.4,292a1.2,1.2,0,0,0,.4.8"/><path class="cls-2" d="M125.1,292l1.3.8"/><path class="cls-2" d="M123.8,292.8l5.6,3.1"/><path class="cls-2" d="M129.8,295.7l-1.2-4.6"/><path class="cls-2" d="M129.8,290.2l9.9,5.7"/><path class="cls-2" d="M128.6,290.9l9.8,5.7"/><line class="cls-2" x1="138.5" y1="299.2" x2="137.2" y2="300"/><path class="cls-2" d="M138.4,296.7l-1.2,3.3"/><path class="cls-2" d="M138.5,299.2a1.2,1.2,0,0,0,.4.8"/><path class="cls-2" d="M137.2,300a.8.8,0,0,0,.4.7"/><path class="cls-2" d="M138.9,300l1.3.7"/><path class="cls-2" d="M137.6,300.7l5.5,3.2"/><path class="cls-2" d="M143.6,303.7l-1.2-4.7"/><line class="cls-2" x1="143.6" y1="298.1" x2="142.4" y2="298.9"/><path class="cls-2" d="M143.6,298.1l9.9,5.7"/><path class="cls-2" d="M142.4,298.9l9.8,5.7"/><path class="cls-2" d="M151.4,308.7l3.7,2.1"/><path class="cls-2" d="M156.9,309.8c-.3-1-.5-1.9-.7-2.8"/><line class="cls-2" x1="157.4" y1="306.1" x2="156.1" y2="306.8"/><path class="cls-2" d="M156.1,306.8l4.2,2.4"/><path class="cls-2" d="M162.9,319v5.8"/><line class="cls-2" x1="162.9" y1="324.8" x2="161.6" y2="325.5"/><path class="cls-2" d="M161.6,324.5v1"/><line class="cls-2" x1="120.9" y1="302.5" x2="120.4" y2="302.7"/><path class="cls-2" d="M120.4,306.6v-3.9"/><path class="cls-2" d="M120.9,303v-1"/><path class="cls-2" d="M120.9,302l-.9-.5"/><path class="cls-2" d="M120.9,296.3v-1"/><path class="cls-2" d="M120.9,295.3l-.5-.3"/><path class="cls-2" d="M120.4,295v-8.8"/><path class="cls-2" d="M121.7,285.5l4.2,2.4"/><path class="cls-2" d="M120.4,286.2l4.2,2.4"/><line class="cls-2" x1="155.7" y1="310.4" x2="153.3" y2="309"/><line class="cls-2" x1="128.7" y1="294.8" x2="125.8" y2="293.1"/><line class="cls-2" x1="142.5" y1="302.8" x2="139.5" y2="301.1"/><line class="cls-2" x1="201.9" y1="276.6" x2="202.7" y2="276.1"/><line class="cls-2" x1="206.3" y1="274.5" x2="206.3" y2="274"/><line class="cls-2" x1="206.3" y1="274" x2="207.2" y2="273.5"/><line class="cls-2" x1="326.5" y1="197" x2="325.2" y2="196.3"/><path class="cls-2" d="M326.5,197v8.2"/><line class="cls-2" x1="323.8" y1="206.2" x2="323" y2="206.7"/><line class="cls-2" x1="319.4" y1="208.8" x2="318.5" y2="209.3"/><line class="cls-2" x1="270.8" y1="236.8" x2="270" y2="237.3"/><line class="cls-2" x1="266.3" y1="239.4" x2="265.5" y2="239.9"/><line class="cls-2" x1="260.2" y1="242.9" x2="259.3" y2="243.4"/><line class="cls-2" x1="255.7" y1="246" x2="255.7" y2="245.5"/><line class="cls-2" x1="255.7" y1="245.5" x2="254.9" y2="246"/><line class="cls-2" x1="281.4" y1="230.7" x2="280.6" y2="231.2"/><line class="cls-2" x1="277" y1="233.3" x2="276.1" y2="233.8"/><line class="cls-2" x1="292" y1="224.6" x2="291.2" y2="225.1"/><line class="cls-2" x1="287.6" y1="227.1" x2="286.7" y2="227.6"/><line class="cls-2" x1="313.2" y1="212.3" x2="312.4" y2="212.8"/><line class="cls-2" x1="308.8" y1="214.9" x2="307.9" y2="215.4"/><line class="cls-2" x1="302.6" y1="218.4" x2="301.8" y2="218.9"/><line class="cls-2" x1="298.2" y1="221.5" x2="298.2" y2="221"/><line class="cls-2" x1="298.2" y1="221" x2="297.3" y2="221.5"/><line class="cls-2" x1="239" y1="255.2" x2="238.1" y2="255.7"/><line class="cls-2" x1="234.5" y1="257.8" x2="233.7" y2="258.2"/><line class="cls-2" x1="249.6" y1="249.1" x2="248.7" y2="249.5"/><line class="cls-2" x1="245.1" y1="251.6" x2="244.3" y2="252.1"/><line class="cls-2" x1="228.4" y1="261.3" x2="227.5" y2="261.8"/><line class="cls-2" x1="223.9" y1="263.9" x2="223.1" y2="264.4"/><line class="cls-2" x1="217.8" y1="267.4" x2="216.9" y2="267.9"/><line class="cls-2" x1="213.3" y1="270.5" x2="213.3" y2="270"/><line class="cls-2" x1="213.3" y1="270" x2="212.5" y2="270.5"/><path class="cls-2" d="M199.2,270.5,326.5,197"/><path class="cls-2" d="M197.9,269.7l127.3-73.4"/><path class="cls-2" d="M189.7,246.2l-.8.5"/><path class="cls-2" d="M173.5,255.6l-.9.5"/><path class="cls-2" d="M206.2,236.7l.9-.5"/><path class="cls-2" d="M215,231.6l.9-.5"/><path class="cls-2" d="M232.2,222.2v-.5"/><path class="cls-2" d="M232.2,221.7l-.9.5"/><path class="cls-2" d="M274.6,197.2l-.9.5"/><path class="cls-2" d="M248.6,212.2l.9-.5"/><path class="cls-2" d="M257.5,207.1l.8-.5"/><line class="cls-2" x1="292.4" y1="185.5" x2="293.7" y2="186.2"/><path class="cls-2" d="M291.1,187.7l.8-.5"/><line class="cls-2" x1="132.7" y1="291.2" x2="132.7" y2="289.2"/><line class="cls-2" x1="146.8" y1="297.4" x2="132.7" y2="289.2"/><line class="cls-2" x1="148.1" y1="296.6" x2="134" y2="288.5"/><path class="cls-2" d="M335.2,217.1l3.6-3.5"/><path class="cls-2" d="M339.2,213.8v6.4"/><path class="cls-2" d="M339.2,220.2a.8.8,0,0,1-.4.7"/><path class="cls-2" d="M335.2,228.9l3.6-3.5"/><path class="cls-2" d="M338.8,225.4h.3"/><path class="cls-2" d="M339.2,225.7V232"/><line class="cls-2" x1="377.2" y1="185.5" x2="377.2" y2="177.3"/><line class="cls-2" x1="380.4" y1="203.4" x2="380.4" y2="202.5"/><polyline class="cls-2" points="380.4 202.5 380.8 202.2 387.1 198.6 398.5 192"/><line class="cls-2" x1="398" y1="185.1" x2="398" y2="184.1"/><line class="cls-2" x1="398" y1="184.1" x2="399.7" y2="183.1"/><line class="cls-2" x1="399.7" y1="172.5" x2="396.4" y2="174.4"/><line class="cls-2" x1="398.5" y1="171.8" x2="395.6" y2="173.4"/><polyline class="cls-2" points="395.6 175.4 395.6 174.9 395.6 173.4"/><line class="cls-2" x1="395.6" y1="173.4" x2="394.3" y2="172.7"/><line class="cls-2" x1="395.6" y1="173.4" x2="391.3" y2="175.9"/><line class="cls-2" x1="394.3" y1="172.7" x2="390" y2="175.2"/><line class="cls-2" x1="390.5" y1="177.8" x2="389.2" y2="177.1"/><line class="cls-2" x1="390.5" y1="177.8" x2="387.9" y2="179.3"/><polyline class="cls-2" points="387.1 180.3 387.1 179.8 387.1 178.3"/><line class="cls-2" x1="387.1" y1="178.3" x2="382.8" y2="180.8"/><line class="cls-2" x1="382" y1="182.7" x2="380.7" y2="182"/><line class="cls-2" x1="382" y1="182.7" x2="377.2" y2="185.5"/><line class="cls-2" x1="380.7" y1="182" x2="377.2" y2="184"/><path class="cls-2" d="M398.5,176.5a.6.6,0,0,1,.1-.4c.1-.1.3-.3.4-.2"/><path class="cls-2" d="M398.5,180.6v-4.1"/><path class="cls-2" d="M368.6,200.3c-.3.1-.7.3-1,.1"/><path class="cls-2" d="M368.6,197l4.2-2.4"/><path class="cls-2" d="M372.8,194.6a.9.9,0,0,1,1-.1"/><path class="cls-2" d="M372.8,197.8l-4.2,2.5"/><path class="cls-2" d="M371.6,197.1l-4.3,2.4"/><line class="cls-2" x1="380.4" y1="193.5" x2="381.2" y2="193"/><line class="cls-2" x1="381.2" y1="194" x2="380.8" y2="194.2"/><line class="cls-2" x1="379.5" y1="200.2" x2="379.5" y2="193.5"/><line class="cls-2" x1="379.5" y1="193.5" x2="380.4" y2="193"/><line class="cls-2" x1="377.2" y1="177.3" x2="334.8" y2="201.8"/><line class="cls-2" x1="376" y1="176.6" x2="333.5" y2="201.1"/><path class="cls-2" d="M367.6,200.4a1.1,1.1,0,0,1-.4-.9,2,2,0,0,1,.2-1,2.9,2.9,0,0,1,1.2-1.5"/><path class="cls-2" d="M373,194.5a3.4,3.4,0,0,1-1.4,2.6"/><path class="cls-2" d="M373.8,194.5c.3.1.4.5.4.8a3.1,3.1,0,0,1-.1,1,3.2,3.2,0,0,1-1.3,1.5"/><line class="cls-2" x1="165.1" y1="259" x2="166.4" y2="259.7"/><path class="cls-2" d="M164.6,260.7l-.8.5"/><path class="cls-2" d="M131.1,280.1l-.9.5"/><path class="cls-2" d="M118.4,287.9v-2"/><path class="cls-2" d="M118.4,285.9l-4.2,2.5"/><line class="cls-2" x1="112" y1="289.6" x2="113.3" y2="290.3"/><path class="cls-2" d="M113.3,290.3l-2.5,1.5"/><path class="cls-2" d="M109.9,292.8v-2"/><path class="cls-2" d="M109.9,290.8l-4.2,2.5"/><line class="cls-2" x1="103.5" y1="294.5" x2="104.8" y2="295.2"/><path class="cls-2" d="M104.8,295.2l-2,1.2"/><path class="cls-2" d="M101.5,299.5v.9"/><path class="cls-2" d="M101.5,306.8v1"/><path class="cls-2" d="M119,305.8l1.4-.8"/><line class="cls-2" x1="120" y1="302" x2="120" y2="301"/><line class="cls-2" x1="120.4" y1="300.8" x2="120.4" y2="297"/><line class="cls-2" x1="120" y1="297.2" x2="120" y2="296.3"/><line class="cls-2" x1="120" y1="296.3" x2="120.9" y2="295.8"/><path class="cls-2" d="M146.5,271.2l.8-.5"/><path class="cls-2" d="M199.2,278.6v-8.1"/><line class="cls-2" x1="199.2" y1="270.5" x2="197.9" y2="269.7"/><line class="cls-2" x1="191.3" y1="282.7" x2="192.1" y2="282.2"/><line class="cls-2" x1="195.7" y1="280.2" x2="196.6" y2="279.7"/><line class="cls-2" x1="153.3" y1="333.6" x2="153.3" y2="336.2"/><line class="cls-2" x1="156.8" y1="295" x2="155.5" y2="294.2"/><line class="cls-2" x1="156.8" y1="295" x2="156.8" y2="306.5"/><line class="cls-2" x1="155.5" y1="294.2" x2="155.5" y2="310.3"/><line class="cls-2" x1="186" y1="285.8" x2="185.1" y2="286.3"/><line class="cls-2" x1="181.5" y1="288.4" x2="180.7" y2="288.9"/><polyline class="cls-2" points="180.7 288.9 180.7 289.3 180.7 289.3"/><line class="cls-2" x1="175.3" y1="291.9" x2="174.5" y2="292.4"/><line class="cls-2" x1="170.9" y1="295" x2="170.9" y2="294.5"/><line class="cls-2" x1="170.9" y1="294.5" x2="170" y2="295"/><line class="cls-2" x1="199.2" y1="270.5" x2="156.8" y2="295"/><line class="cls-2" x1="197.9" y1="269.7" x2="155.5" y2="294.2"/><path class="cls-2" d="M299.9,182.6l.8-.5"/><line class="cls-2" x1="339.6" y1="158.3" x2="340.8" y2="159"/><path class="cls-2" d="M339.6,159.7l1.2-.7"/><path class="cls-2" d="M341.7,157l4.2-2.4"/><path class="cls-2" d="M345.9,154.6v1.9"/><line class="cls-2" x1="348" y1="153.4" x2="349.3" y2="154.1"/><path class="cls-2" d="M346.8,155.6l2.5-1.5"/><path class="cls-2" d="M350.2,152.1l4.2-2.4"/><path class="cls-2" d="M354.4,149.7v1.9"/><path class="cls-2" d="M357.7,159.8l-.8.5"/><path class="cls-2" d="M356.9,160.3v1"/><line class="cls-2" x1="356.9" y1="160.8" x2="357.3" y2="161.1"/><path class="cls-2" d="M356.9,161.3l.4-.2"/><path class="cls-2" d="M357.3,161.1v7.2"/><path class="cls-2" d="M357.3,168.3l-1.4.8"/><line class="cls-2" x1="357.3" y1="152.7" x2="357.3" y2="156.8"/><path class="cls-2" d="M317,172.7l-.8.5"/><path class="cls-2" d="M357.7,152.1a.8.8,0,0,0-.4.6"/><path class="cls-2" d="M159.8,264l.8-.5"/><path class="cls-2" d="M160.2,263.3l3.6-2.1"/><path class="cls-2" d="M164.2,261.4l.9-.4"/><path class="cls-2" d="M168.6,258.9l.8-.5"/><path class="cls-2" d="M169,258.2l3.6-2.1"/><path class="cls-2" d="M173.1,256.3l.8-.4"/><line class="cls-2" x1="164.6" y1="260.7" x2="168.2" y2="258.7"/><path class="cls-2" d="M177.6,251.9l2.2,2.7"/><path class="cls-2" d="M186.2,250.9l-4.6-1.3"/><line class="cls-2" x1="181.6" y1="249.6" x2="181.6" y2="251.1"/><path class="cls-2" d="M185,252l-3.4-.9"/><path class="cls-2" d="M185.9,248.9l.9-.5"/><path class="cls-2" d="M186.3,248.2l2.6-1.5"/><path class="cls-2" d="M189.3,247l.9-.5"/><path class="cls-2" d="M191.4,244l2.2,2.6"/><path class="cls-2" d="M199.9,242.9l-4.6-1.2"/><line class="cls-2" x1="195.3" y1="241.7" x2="195.3" y2="243.1"/><path class="cls-2" d="M198.8,244.1l-3.5-1"/><path class="cls-2" d="M181.9,253.8a3,3,0,0,0,2.1.3l.9-.3c.3-.2.6-.5.6-.8"/><path class="cls-2" d="M184.9,252.1l1.3-.7"/><path class="cls-2" d="M195.7,245.9a3.5,3.5,0,0,0,2,.3l1-.4a.9.9,0,0,0,.6-.8"/><path class="cls-2" d="M198.7,244.2l1.2-.8"/><path class="cls-2" d="M208.5,236.9l3.4,1.9"/><path class="cls-2" d="M215.4,240.9l3.5,1.9"/><path class="cls-2" d="M222.4,244.9l3.4,1.9"/><path class="cls-2" d="M225.8,246.8a.9.9,0,0,0,1,0"/><path class="cls-2" d="M226.8,246.8l1.3-1.7"/><path class="cls-2" d="M229,245l3.5,2"/><path class="cls-2" d="M232.5,247v.2"/><path class="cls-2" d="M229.3,248.9l2.4,1.3"/><path class="cls-2" d="M200.5,238.5a9.5,9.5,0,0,0,1.7,1"/><path class="cls-2" d="M202.2,239.5l.8-.5"/><path class="cls-2" d="M202.6,238.8l3.6-2.1"/><path class="cls-2" d="M206.6,237l.9-.5"/><line class="cls-2" x1="207.1" y1="236.2" x2="208.8" y2="235.2"/><path class="cls-2" d="M208.8,235.2l.7.4"/><path class="cls-2" d="M135.2,276.4l2.2,2.7"/><path class="cls-2" d="M143.7,275.4l-4.6-1.3"/><line class="cls-2" x1="139.1" y1="274.1" x2="139.1" y2="275.6"/><path class="cls-2" d="M142.6,276.5l-3.5-.9"/><path class="cls-2" d="M141.8,272.4l1.7,1"/><path class="cls-2" d="M143.5,273.4l.8-.5"/><path class="cls-2" d="M143.9,272.7l2.6-1.5"/><path class="cls-2" d="M146.9,271.4l.8-.4"/><path class="cls-2" d="M148.9,268.4l2.3,2.7"/><path class="cls-2" d="M157.5,267.4l-4.6-1.3"/><line class="cls-2" x1="152.9" y1="266.1" x2="152.9" y2="267.6"/><path class="cls-2" d="M156.4,268.6l-3.5-1"/><path class="cls-2" d="M139.5,278.3a2.8,2.8,0,0,0,2,.3,1.7,1.7,0,0,0,1-.3c.3-.2.6-.5.6-.8"/><path class="cls-2" d="M142.5,276.6l1.2-.7"/><path class="cls-2" d="M153.3,270.4a3.5,3.5,0,0,0,2,.3l1-.4a.9.9,0,0,0,.6-.8"/><path class="cls-2" d="M156.3,268.7l1.2-.8"/><line class="cls-2" x1="131.5" y1="280.3" x2="130.6" y2="280.8"/><line class="cls-2" x1="130.2" y1="280.6" x2="124" y2="284.2"/><line class="cls-2" x1="124" y1="284.2" x2="132.7" y2="289.2"/><line class="cls-2" x1="124" y1="285.7" x2="132.7" y2="290.7"/><path class="cls-2" d="M147.2,296.1l.5-.2"/><line class="cls-2" x1="147.7" y1="295.9" x2="147.7" y2="296.4"/><path class="cls-2" d="M147.7,295.9l.8.5"/><path class="cls-2" d="M148.5,296.4l-1.7,1"/><line class="cls-2" x1="146.8" y1="297.4" x2="155.5" y2="302.4"/><line class="cls-2" x1="146.8" y1="298.8" x2="155.5" y2="303.9"/><line class="cls-2" x1="185.5" y1="253" x2="185.5" y2="253.2"/><path class="cls-2" d="M185.5,253a1.1,1.1,0,0,0-.6-.9"/><path class="cls-2" d="M185.4,253.3a1,1,0,0,0-.5-.4"/><path class="cls-2" d="M199.2,245.4a1.2,1.2,0,0,0-.5-.5"/><path class="cls-2" d="M208.3,236.6l.2.3"/><path class="cls-2" d="M229.1,248.6l.2.3"/><path class="cls-2" d="M143.1,277.5a1.1,1.1,0,0,0-.6-.9"/><path class="cls-2" d="M143,277.8c-.1-.2-.3-.3-.5-.5"/><path class="cls-2" d="M156.8,269.9l-.5-.5"/><line class="cls-2" x1="280.2" y1="192.7" x2="280.2" y2="194.1"/><path class="cls-2" d="M280.2,192.7l4.6,1.3"/><path class="cls-2" d="M280.2,194.1l3.4,1"/><path class="cls-2" d="M284.8,194.4l-1.3.8"/><path class="cls-2" d="M278.4,197.6l-2.2-2.6"/><path class="cls-2" d="M275,197.5l-.8.5"/><path class="cls-2" d="M273.7,197.7l-2.5,1.5"/><path class="cls-2" d="M271.6,199.4l-.8.5"/><line class="cls-2" x1="266.4" y1="200.6" x2="266.4" y2="202.1"/><path class="cls-2" d="M266.4,200.6l4.6,1.3"/><path class="cls-2" d="M266.4,202.1l3.5,1"/><path class="cls-2" d="M271,202.4l-1.3.7"/><path class="cls-2" d="M264.7,205.6l-2.3-2.7"/><path class="cls-2" d="M283.5,195.9l.5.5"/><path class="cls-2" d="M269.7,203.1c.3.2.7.5.7.9"/><path class="cls-2" d="M269.7,203.9a1,1,0,0,1,.6.5"/><path class="cls-2" d="M327.8,165.1l1.6.9"/><line class="cls-2" x1="329.4" y1="166" x2="330.3" y2="165.6"/><line class="cls-2" x1="336.1" y1="161.7" x2="344.8" y2="166.7"/><path class="cls-2" d="M343.1,167.7l.8.5"/><line class="cls-2" x1="344.4" y1="168" x2="356.8" y2="175.2"/><path class="cls-2" d="M356.4,175.4l.8.5"/><path class="cls-2" d="M357.2,175.9l1.7-1"/><path class="cls-2" d="M355.6,188.3l-.4-.2"/><line class="cls-2" x1="322.6" y1="168.2" x2="322.6" y2="169.6"/><path class="cls-2" d="M322.6,168.2l4.6,1.3"/><path class="cls-2" d="M322.6,169.6l3.5,1"/><path class="cls-2" d="M327.2,169.9l-1.3.8"/><path class="cls-2" d="M320.9,173.1l-2.3-2.6"/><path class="cls-2" d="M317.4,173l-.8.5"/><path class="cls-2" d="M316.2,173.2l-2.6,1.5"/><path class="cls-2" d="M314,174.9l-.8.5"/><line class="cls-2" x1="308.8" y1="176.1" x2="308.8" y2="177.6"/><path class="cls-2" d="M308.8,176.1l4.6,1.3"/><path class="cls-2" d="M308.8,177.6l3.5,1"/><path class="cls-2" d="M313.4,177.9l-1.2.7"/><path class="cls-2" d="M307.1,181.1l-2.2-2.7"/><path class="cls-2" d="M325.9,171.4c.3.1.4.3.6.5"/><path class="cls-2" d="M312.2,178.6a1.1,1.1,0,0,1,.6.9"/><path class="cls-2" d="M312.2,179.4a.8.8,0,0,1,.5.5"/><path class="cls-2" d="M301.2,182.4l-.9.5"/><path class="cls-2" d="M299.9,182.6l-3.6,2.1"/><path class="cls-2" d="M296.7,184.9l-.8.5"/><path class="cls-2" d="M292.3,187.5l-.8.5"/><path class="cls-2" d="M291.1,187.7l-3.6,2.1"/><path class="cls-2" d="M287.9,190.1l-.9.4"/><path class="cls-2" d="M287,190.5l-1.7-.9"/><line class="cls-2" x1="295.4" y1="185.2" x2="291.9" y2="187.2"/><path class="cls-2" d="M260.9,215.1l-2.9.7"/><line class="cls-2" x1="268" y1="218.5" x2="268" y2="218.5"/><path class="cls-2" d="M267.8,219.1l-2.9.7"/><path class="cls-2" d="M274.8,223.1l-2.9.7"/><path class="cls-2" d="M258.7,206.9l-.8.5"/><path class="cls-2" d="M257.5,207.1l-3.6,2.1"/><path class="cls-2" d="M254.3,209.4l-.9.5"/><line class="cls-2" x1="253" y1="209.7" x2="251.2" y2="210.7"/><path class="cls-2" d="M284.1,196a1.1,1.1,0,0,1-.5.9,3.8,3.8,0,0,1-1,.3,3.3,3.3,0,0,1-2-.3"/><line class="cls-2" x1="270.4" y1="204" x2="270.4" y2="204.2"/><path class="cls-2" d="M270.4,204c0,.4-.3.6-.6.8l-1,.4a2.9,2.9,0,0,1-2-.4"/><path class="cls-2" d="M326.6,171.5a1.1,1.1,0,0,1-.6.9,1.7,1.7,0,0,1-1,.3,3.5,3.5,0,0,1-2-.3"/><path class="cls-2" d="M312.8,179.5a.9.9,0,0,1-.6.8l-1,.4a3.5,3.5,0,0,1-2-.3"/><line class="cls-2" x1="389.1" y1="170.5" x2="387.8" y2="171.2"/><path class="cls-2" d="M389.5,171.2a1,1,0,0,1-.4-.7"/><polyline class="cls-2" points="355.6 187.8 355.6 188.3 355.6 188.3"/><line class="cls-2" x1="354.8" y1="188.8" x2="354.8" y2="188.3"/><line class="cls-2" x1="351.2" y1="190.4" x2="351.2" y2="190.9"/><line class="cls-2" x1="340.6" y1="197" x2="340.2" y2="196.8"/><line class="cls-2" x1="368.9" y1="172.5" x2="367.6" y2="171.8"/><line class="cls-2" x1="330" y1="203.1" x2="330" y2="202.6"/><line class="cls-2" x1="330" y1="203.1" x2="329.6" y2="202.9"/><line class="cls-2" x1="333.6" y1="200.6" x2="333.6" y2="201.1"/></svg>