<svg id="Layer_1" data-name="Layer 1" xmlns="http://www.w3.org/2000/svg" viewBox="0 0 212.6 425.2"><defs><style>.cls-1{font-size:5.3px;fill:#1d1d1b;font-family:Monotxt;}.cls-2,.cls-3{fill:none;stroke:#1d1d1b;stroke-miterlimit:10;}.cls-2{stroke-width:0.5px;}.cls-3{stroke-width:0.25px;}</style></defs><g id="MTEXT"><text class="cls-1" transform="translate(143.32 188.64) rotate(90)">COMB-G/MID-Y1</text></g><g id="MTEXT-2" data-name="MTEXT"><text class="cls-1" transform="translate(72.21 236.57) rotate(-90)">COMB-G/MID-Y1</text></g><g id="POLYLINE"><polygon class="cls-2" points="175.08 356.51 173.2 356.51 173.2 363.8 175.08 363.8 175.08 362.9 180.41 362.9 180.41 363.8 182.29 363.8 182.29 356.51 180.41 356.51 180.41 357.42 175.08 357.42 175.08 356.51"/></g><g id="POLYLINE-2" data-name="POLYLINE"><polygon class="cls-2" points="175.08 339.16 175.08 338.26 180.41 338.26 180.41 339.16 182.29 339.16 182.29 331.87 180.41 331.87 180.41 332.77 175.08 332.77 175.08 331.87 173.2 331.87 173.2 339.16 175.08 339.16"/></g><g id="POLYLINE-3" data-name="POLYLINE"><polygon class="cls-2" points="118.73 362.9 124.07 362.9 124.07 363.8 125.94 363.8 125.94 356.51 124.07 356.51 124.07 357.42 118.73 357.42 118.73 356.51 116.85 356.51 116.85 363.8 118.73 363.8 118.73 362.9"/></g><g id="POLYLINE-4" data-name="POLYLINE"><polygon class="cls-2" points="118.73 332.77 118.73 331.87 116.85 331.87 116.85 339.16 118.73 339.16 118.73 338.26 124.07 338.26 124.07 339.16 125.94 339.16 125.94 331.87 124.07 331.87 124.07 332.77 118.73 332.77"/></g><g id="POLYLINE-5" data-name="POLYLINE"><polygon class="cls-2" points="175.08 266.36 173.2 266.36 173.2 273.65 175.08 273.65 175.08 272.75 180.41 272.75 180.41 273.65 182.29 273.65 182.29 266.36 180.41 266.36 180.41 267.26 175.08 267.26 175.08 266.36"/></g><g id="POLYLINE-6" data-name="POLYLINE"><polygon class="cls-2" points="175.08 249.01 175.08 248.1 180.41 248.1 180.41 249.01 182.29 249.01 182.29 241.72 180.41 241.72 180.41 242.62 175.08 242.62 175.08 241.72 173.2 241.72 173.2 249.01 175.08 249.01"/></g><g id="POLYLINE-7" data-name="POLYLINE"><polygon class="cls-2" points="118.73 272.75 124.07 272.75 124.07 273.65 125.94 273.65 125.94 266.36 124.07 266.36 124.07 267.26 118.73 267.26 118.73 266.36 116.85 266.36 116.85 273.65 118.73 273.65 118.73 272.75"/></g><g id="POLYLINE-8" data-name="POLYLINE"><polygon class="cls-2" points="118.73 242.62 118.73 241.72 116.85 241.72 116.85 249.01 118.73 249.01 118.73 248.1 124.07 248.1 124.07 249.01 125.94 249.01 125.94 241.72 124.07 241.72 124.07 242.62 118.73 242.62"/></g><g id="POLYLINE-9" data-name="POLYLINE"><polygon class="cls-2" points="175.08 176.21 173.2 176.21 173.2 183.5 175.08 183.5 175.08 182.59 180.41 182.59 180.41 183.5 182.29 183.5 182.29 176.21 180.41 176.21 180.41 177.11 175.08 177.11 175.08 176.21"/></g><g id="POLYLINE-10" data-name="POLYLINE"><polygon class="cls-2" points="175.08 158.85 175.08 157.95 180.41 157.95 180.41 158.85 182.29 158.85 182.29 151.57 180.41 151.57 180.41 152.47 175.08 152.47 175.08 151.57 173.2 151.57 173.2 158.85 175.08 158.85"/></g><g id="POLYLINE-11" data-name="POLYLINE"><polygon class="cls-2" points="118.73 182.59 124.07 182.59 124.07 183.5 125.94 183.5 125.94 176.21 124.07 176.21 124.07 177.11 118.73 177.11 118.73 176.21 116.85 176.21 116.85 183.5 118.73 183.5 118.73 182.59"/></g><g id="POLYLINE-12" data-name="POLYLINE"><polygon class="cls-2" points="118.73 152.47 118.73 151.57 116.85 151.57 116.85 158.85 118.73 158.85 118.73 157.95 124.07 157.95 124.07 158.85 125.94 158.85 125.94 151.57 124.07 151.57 124.07 152.47 118.73 152.47"/></g><g id="POLYLINE-13" data-name="POLYLINE"><polygon class="cls-2" points="175.08 86.06 173.2 86.06 173.2 93.34 175.08 93.34 175.08 92.44 180.41 92.44 180.41 93.34 182.29 93.34 182.29 86.06 180.41 86.06 180.41 86.96 175.08 86.96 175.08 86.06"/></g><g id="POLYLINE-14" data-name="POLYLINE"><polygon class="cls-2" points="175.08 68.7 175.08 67.8 180.41 67.8 180.41 68.7 182.29 68.7 182.29 61.41 180.41 61.41 180.41 62.31 175.08 62.31 175.08 61.41 173.2 61.41 173.2 68.7 175.08 68.7"/></g><g id="POLYLINE-15" data-name="POLYLINE"><polygon class="cls-2" points="118.73 92.44 124.07 92.44 124.07 93.34 125.94 93.34 125.94 86.06 124.07 86.06 124.07 86.96 118.73 86.96 118.73 86.06 116.85 86.06 116.85 93.34 118.73 93.34 118.73 92.44"/></g><g id="POLYLINE-16" data-name="POLYLINE"><polygon class="cls-2" points="118.73 62.31 118.73 61.41 116.85 61.41 116.85 68.7 118.73 68.7 118.73 67.8 124.07 67.8 124.07 68.7 125.94 68.7 125.94 61.41 124.07 61.41 124.07 62.31 118.73 62.31"/></g><g id="POLYLINE-17" data-name="POLYLINE"><polygon class="cls-2" points="40.48 356.51 42.36 356.51 42.36 363.8 40.48 363.8 40.48 362.9 35.15 362.9 35.15 363.8 33.27 363.8 33.27 356.51 35.15 356.51 35.15 357.42 40.48 357.42 40.48 356.51"/></g><g id="POLYLINE-18" data-name="POLYLINE"><polygon class="cls-2" points="40.48 339.16 40.48 338.26 35.15 338.26 35.15 339.16 33.27 339.16 33.27 331.87 35.15 331.87 35.15 332.77 40.48 332.77 40.48 331.87 42.36 331.87 42.36 339.16 40.48 339.16"/></g><g id="POLYLINE-19" data-name="POLYLINE"><polygon class="cls-2" points="96.83 362.9 91.49 362.9 91.49 363.8 89.62 363.8 89.62 356.51 91.49 356.51 91.49 357.42 96.83 357.42 96.83 356.51 98.71 356.51 98.71 363.8 96.83 363.8 96.83 362.9"/></g><g id="POLYLINE-20" data-name="POLYLINE"><polygon class="cls-2" points="96.83 332.77 96.83 331.87 98.71 331.87 98.71 339.16 96.83 339.16 96.83 338.26 91.49 338.26 91.49 339.16 89.62 339.16 89.62 331.87 91.49 331.87 91.49 332.77 96.83 332.77"/></g><g id="POLYLINE-21" data-name="POLYLINE"><polygon class="cls-2" points="40.48 266.36 42.36 266.36 42.36 273.65 40.48 273.65 40.48 272.75 35.15 272.75 35.15 273.65 33.27 273.65 33.27 266.36 35.15 266.36 35.15 267.26 40.48 267.26 40.48 266.36"/></g><g id="POLYLINE-22" data-name="POLYLINE"><polygon class="cls-2" points="40.48 249.01 40.48 248.1 35.15 248.1 35.15 249.01 33.27 249.01 33.27 241.72 35.15 241.72 35.15 242.62 40.48 242.62 40.48 241.72 42.36 241.72 42.36 249.01 40.48 249.01"/></g><g id="POLYLINE-23" data-name="POLYLINE"><polygon class="cls-2" points="96.83 272.75 91.49 272.75 91.49 273.65 89.62 273.65 89.62 266.36 91.49 266.36 91.49 267.26 96.83 267.26 96.83 266.36 98.71 266.36 98.71 273.65 96.83 273.65 96.83 272.75"/></g><g id="POLYLINE-24" data-name="POLYLINE"><polygon class="cls-2" points="96.83 242.62 96.83 241.72 98.71 241.72 98.71 249.01 96.83 249.01 96.83 248.1 91.49 248.1 91.49 249.01 89.62 249.01 89.62 241.72 91.49 241.72 91.49 242.62 96.83 242.62"/></g><g id="POLYLINE-25" data-name="POLYLINE"><polygon class="cls-2" points="40.48 176.21 42.36 176.21 42.36 183.5 40.48 183.5 40.48 182.59 35.15 182.59 35.15 183.5 33.27 183.5 33.27 176.21 35.15 176.21 35.15 177.11 40.48 177.11 40.48 176.21"/></g><g id="POLYLINE-26" data-name="POLYLINE"><polygon class="cls-2" points="40.48 158.85 40.48 157.95 35.15 157.95 35.15 158.85 33.27 158.85 33.27 151.57 35.15 151.57 35.15 152.47 40.48 152.47 40.48 151.57 42.36 151.57 42.36 158.85 40.48 158.85"/></g><g id="POLYLINE-27" data-name="POLYLINE"><polygon class="cls-2" points="96.83 182.59 91.49 182.59 91.49 183.5 89.62 183.5 89.62 176.21 91.49 176.21 91.49 177.11 96.83 177.11 96.83 176.21 98.71 176.21 98.71 183.5 96.83 183.5 96.83 182.59"/></g><g id="POLYLINE-28" data-name="POLYLINE"><polygon class="cls-2" points="96.83 152.47 96.83 151.57 98.71 151.57 98.71 158.85 96.83 158.85 96.83 157.95 91.49 157.95 91.49 158.85 89.62 158.85 89.62 151.57 91.49 151.57 91.49 152.47 96.83 152.47"/></g><g id="POLYLINE-29" data-name="POLYLINE"><polygon class="cls-2" points="40.48 86.06 42.36 86.06 42.36 93.34 40.48 93.34 40.48 92.44 35.15 92.44 35.15 93.34 33.27 93.34 33.27 86.06 35.15 86.06 35.15 86.96 40.48 86.96 40.48 86.06"/></g><g id="POLYLINE-30" data-name="POLYLINE"><polygon class="cls-2" points="40.48 68.7 40.48 67.8 35.15 67.8 35.15 68.7 33.27 68.7 33.27 61.41 35.15 61.41 35.15 62.31 40.48 62.31 40.48 61.41 42.36 61.41 42.36 68.7 40.48 68.7"/></g><g id="POLYLINE-31" data-name="POLYLINE"><polygon class="cls-2" points="96.83 92.44 91.49 92.44 91.49 93.34 89.62 93.34 89.62 86.06 91.49 86.06 91.49 86.96 96.83 86.96 96.83 86.06 98.71 86.06 98.71 93.34 96.83 93.34 96.83 92.44"/></g><g id="POLYLINE-32" data-name="POLYLINE"><polygon class="cls-2" points="96.83 62.31 96.83 61.41 98.71 61.41 98.71 68.7 96.83 68.7 96.83 67.8 91.49 67.8 91.49 68.7 89.62 68.7 89.62 61.41 91.49 61.41 91.49 62.31 96.83 62.31"/></g><g id="POLYLINE-33" data-name="POLYLINE"><path class="cls-2" d="M121.36,74.64h-6a1.77,1.77,0,0,1-1.77-1.77V32.34H166V56.68h1.88v-.9h15.89a1.76,1.76,0,0,1,1.76,1.76V72.87a1.76,1.76,0,0,1-1.76,1.77H167.87v-.91H166V81h1.88v-.9h15.89a1.76,1.76,0,0,1,1.76,1.77V97.21A1.76,1.76,0,0,1,183.76,99H167.87v-.9H166v48.75h1.88v-.9h15.89a1.76,1.76,0,0,1,1.76,1.77V163a1.76,1.76,0,0,1-1.76,1.77H167.87v-.9H166v7.28h1.88v-.9h15.89a1.76,1.76,0,0,1,1.76,1.77v15.32a1.76,1.76,0,0,1-1.76,1.77H167.87v-.9H166V237h1.88v-.91h15.89a1.76,1.76,0,0,1,1.76,1.77v15.33a1.76,1.76,0,0,1-1.76,1.76H167.87V254H166v7.29h1.88v-.9h15.89a1.76,1.76,0,0,1,1.76,1.76v15.33a1.76,1.76,0,0,1-1.76,1.76H167.87v-.9H166v48.76h1.88v-.9h15.89a1.76,1.76,0,0,1,1.76,1.76v15.33a1.76,1.76,0,0,1-1.76,1.76H167.87v-.9H166v7.29h1.88v-.9h15.89a1.76,1.76,0,0,1,1.76,1.76v15.33a1.76,1.76,0,0,1-1.76,1.77H167.87v-.91H166v24.35H113.62V352.34a1.76,1.76,0,0,1,1.77-1.76h6v.9h1.88v-7.29h-1.88v.9h-6a1.76,1.76,0,0,1-1.77-1.76V262.19a1.76,1.76,0,0,1,1.77-1.76h6v.9h1.88V254h-1.88v.9h-6a1.76,1.76,0,0,1-1.77-1.76V172a1.77,1.77,0,0,1,1.77-1.77h6v.9h1.88v-7.28h-1.88v.9h-6a1.77,1.77,0,0,1-1.77-1.77V81.89a1.77,1.77,0,0,1,1.77-1.77h6V81h1.88V73.73h-1.88v.91Z"/></g><g id="POLYLINE-34" data-name="POLYLINE"><path class="cls-2" d="M94.2,74.64h6a1.77,1.77,0,0,0,1.77-1.77V32.34H49.57V56.68H47.7v-.9H31.81A1.76,1.76,0,0,0,30,57.54V72.87a1.77,1.77,0,0,0,1.77,1.77H47.7v-.91h1.87V81H47.7v-.9H31.81A1.77,1.77,0,0,0,30,81.89V97.21A1.77,1.77,0,0,0,31.81,99H47.7v-.9h1.87v48.75H47.7v-.9H31.81A1.77,1.77,0,0,0,30,147.7V163a1.77,1.77,0,0,0,1.77,1.77H47.7v-.9h1.87v7.28H47.7v-.9H31.81A1.77,1.77,0,0,0,30,172v15.32a1.77,1.77,0,0,0,1.77,1.77H47.7v-.9h1.87V237H47.7v-.91H31.81A1.77,1.77,0,0,0,30,237.85v15.33a1.76,1.76,0,0,0,1.77,1.76H47.7V254h1.87v7.29H47.7v-.9H31.81A1.76,1.76,0,0,0,30,262.19v15.33a1.76,1.76,0,0,0,1.77,1.76H47.7v-.9h1.87v48.76H47.7v-.9H31.81A1.76,1.76,0,0,0,30,328v15.33a1.76,1.76,0,0,0,1.77,1.76H47.7v-.9h1.87v7.29H47.7v-.9H31.81A1.76,1.76,0,0,0,30,352.34v15.33a1.77,1.77,0,0,0,1.77,1.77H47.7v-.91h1.87v24.35h52.37V352.34a1.76,1.76,0,0,0-1.77-1.76h-6v.9H92.32v-7.29H94.2v.9h6a1.76,1.76,0,0,0,1.77-1.76V262.19a1.76,1.76,0,0,0-1.77-1.76h-6v.9H92.32V254H94.2v.9h6a1.76,1.76,0,0,0,1.77-1.76V172a1.77,1.77,0,0,0-1.77-1.77h-6v.9H92.32v-7.28H94.2v.9h6a1.77,1.77,0,0,0,1.77-1.77V81.89a1.77,1.77,0,0,0-1.77-1.77h-6V81H92.32V73.73H94.2v.91Z"/></g><g id="POLYLINE-35" data-name="POLYLINE"><rect class="cls-3" x="16.12" y="30.02" width="183.31" height="366.62"/></g></svg>