<svg id="Layer_1" data-name="Layer 1" xmlns="http://www.w3.org/2000/svg" viewBox="0 0 425.2 425.2"><defs><style>.cls-1,.cls-2{fill:none;stroke-linecap:round;stroke-linejoin:round;}.cls-1{stroke:#000;stroke-width:0.25px;}.cls-2{stroke:#1d1d1b;}</style></defs><line class="cls-1" x1="293.42" y1="269.83" x2="293.42" y2="273.3"/><line class="cls-1" x1="293.42" y1="273.3" x2="293.34" y2="273.71"/><line class="cls-1" x1="293.34" y1="273.71" x2="293.11" y2="273.99"/><line class="cls-1" x1="293.11" y1="273.99" x2="292.82" y2="274.04"/><line class="cls-1" x1="240.34" y1="239.19" x2="240.34" y2="242.66"/><line class="cls-1" x1="240.34" y1="242.66" x2="240.27" y2="243.07"/><line class="cls-1" x1="240.27" y1="243.07" x2="240.03" y2="243.35"/><line class="cls-1" x1="239.79" y1="243.4" x2="239.74" y2="243.4"/><line class="cls-1" x1="187.27" y1="208.55" x2="187.27" y2="212.02"/><line class="cls-1" x1="187.27" y1="212.02" x2="187.2" y2="212.43"/><line class="cls-1" x1="187.2" y1="212.43" x2="186.96" y2="212.71"/><line class="cls-1" x1="186.96" y1="212.71" x2="186.67" y2="212.76"/><line class="cls-1" x1="134.2" y1="177.91" x2="134.2" y2="181.38"/><line class="cls-1" x1="134.2" y1="181.38" x2="134.13" y2="181.79"/><line class="cls-1" x1="134.13" y1="181.79" x2="133.89" y2="182.07"/><line class="cls-1" x1="133.89" y1="182.07" x2="133.6" y2="182.12"/><line class="cls-1" x1="123.23" y1="127.95" x2="123.37" y2="127.79"/><line class="cls-1" x1="123.37" y1="127.79" x2="123.73" y2="127.73"/><line class="cls-1" x1="123.73" y1="127.73" x2="124.12" y2="127.87"/><line class="cls-1" x1="124.12" y1="127.87" x2="133.14" y2="133.07"/><line class="cls-1" x1="133.14" y1="133.07" x2="133.53" y2="133.39"/><line class="cls-1" x1="133.53" y1="133.39" x2="133.89" y2="133.87"/><line class="cls-1" x1="133.89" y1="133.87" x2="134.13" y2="134.42"/><line class="cls-1" x1="134.13" y1="134.42" x2="134.2" y2="134.91"/><line class="cls-1" x1="134.2" y1="134.91" x2="134.2" y2="145.74"/><line class="cls-1" x1="133.67" y1="146.04" x2="133.67" y2="146.66"/><line class="cls-1" x1="137.46" y1="136.34" x2="137.56" y2="136.22"/><line class="cls-1" x1="137.7" y1="136.06" x2="138.06" y2="136"/><line class="cls-1" x1="138.06" y1="136" x2="138.45" y2="136.14"/><line class="cls-1" x1="138.45" y1="136.14" x2="147.47" y2="141.35"/><line class="cls-1" x1="147.47" y1="141.35" x2="147.86" y2="141.66"/><line class="cls-1" x1="147.86" y1="141.66" x2="148.22" y2="142.14"/><line class="cls-1" x1="148.22" y1="142.14" x2="148.46" y2="142.69"/><line class="cls-1" x1="148.46" y1="142.69" x2="148.53" y2="143.18"/><line class="cls-1" x1="148.53" y1="143.18" x2="148.53" y2="154.01"/><line class="cls-1" x1="148" y1="154.32" x2="148" y2="154.93"/><line class="cls-1" x1="176.2" y1="158.71" x2="176.31" y2="158.59"/><line class="cls-1" x1="176.44" y1="158.43" x2="176.8" y2="158.37"/><line class="cls-1" x1="176.8" y1="158.37" x2="177.19" y2="158.51"/><line class="cls-1" x1="177.19" y1="158.51" x2="186.21" y2="163.71"/><line class="cls-1" x1="186.21" y1="163.71" x2="186.6" y2="164.03"/><line class="cls-1" x1="186.6" y1="164.03" x2="186.96" y2="164.51"/><line class="cls-1" x1="186.96" y1="164.51" x2="187.2" y2="165.06"/><line class="cls-1" x1="187.2" y1="165.06" x2="187.27" y2="165.55"/><line class="cls-1" x1="187.27" y1="165.55" x2="187.27" y2="176.38"/><line class="cls-1" x1="186.74" y1="176.69" x2="186.74" y2="177.3"/><line class="cls-1" x1="190.53" y1="166.98" x2="190.63" y2="166.86"/><line class="cls-1" x1="190.77" y1="166.7" x2="191.13" y2="166.64"/><line class="cls-1" x1="191.13" y1="166.64" x2="191.52" y2="166.78"/><line class="cls-1" x1="191.52" y1="166.78" x2="200.54" y2="171.99"/><line class="cls-1" x1="200.54" y1="171.99" x2="200.93" y2="172.3"/><line class="cls-1" x1="200.93" y1="172.3" x2="201.29" y2="172.78"/><line class="cls-1" x1="201.29" y1="172.78" x2="201.53" y2="173.33"/><line class="cls-1" x1="201.53" y1="173.33" x2="201.6" y2="173.82"/><line class="cls-1" x1="201.6" y1="173.82" x2="201.6" y2="184.65"/><line class="cls-1" x1="201.07" y1="184.96" x2="201.07" y2="185.57"/><line class="cls-1" x1="229.28" y1="189.35" x2="229.38" y2="189.23"/><line class="cls-1" x1="229.51" y1="189.07" x2="229.87" y2="189.01"/><line class="cls-1" x1="229.87" y1="189.01" x2="230.26" y2="189.15"/><line class="cls-1" x1="230.26" y1="189.15" x2="239.28" y2="194.35"/><line class="cls-1" x1="239.28" y1="194.35" x2="239.67" y2="194.67"/><line class="cls-1" x1="239.67" y1="194.67" x2="240.03" y2="195.15"/><line class="cls-1" x1="240.03" y1="195.15" x2="240.27" y2="195.7"/><line class="cls-1" x1="240.27" y1="195.7" x2="240.34" y2="196.19"/><line class="cls-1" x1="240.34" y1="196.19" x2="240.34" y2="207.02"/><line class="cls-1" x1="239.81" y1="207.33" x2="239.81" y2="207.94"/><line class="cls-1" x1="243.84" y1="197.34" x2="244.2" y2="197.28"/><line class="cls-1" x1="244.2" y1="197.28" x2="244.59" y2="197.42"/><line class="cls-1" x1="244.59" y1="197.42" x2="253.61" y2="202.63"/><line class="cls-1" x1="253.61" y1="202.63" x2="254" y2="202.94"/><line class="cls-1" x1="254" y1="202.94" x2="254.36" y2="203.42"/><line class="cls-1" x1="254.36" y1="203.42" x2="254.6" y2="203.97"/><line class="cls-1" x1="254.6" y1="203.97" x2="254.67" y2="204.47"/><line class="cls-1" x1="254.67" y1="204.47" x2="254.67" y2="215.29"/><line class="cls-1" x1="254.14" y1="215.6" x2="254.14" y2="216.21"/><line class="cls-1" x1="282.35" y1="219.99" x2="282.45" y2="219.87"/><line class="cls-1" x1="282.58" y1="219.71" x2="282.94" y2="219.65"/><line class="cls-1" x1="282.94" y1="219.65" x2="283.33" y2="219.79"/><line class="cls-1" x1="283.33" y1="219.79" x2="292.36" y2="225"/><line class="cls-1" x1="292.36" y1="225" x2="292.75" y2="225.31"/><line class="cls-1" x1="292.75" y1="225.31" x2="293.11" y2="225.79"/><line class="cls-1" x1="293.11" y1="225.79" x2="293.34" y2="226.34"/><line class="cls-1" x1="293.34" y1="226.34" x2="293.42" y2="226.84"/><line class="cls-1" x1="293.42" y1="226.84" x2="293.42" y2="237.66"/><line class="cls-1" x1="292.89" y1="237.97" x2="292.89" y2="238.58"/><line class="cls-1" x1="296.78" y1="228.15" x2="296.91" y2="227.99"/><line class="cls-1" x1="296.91" y1="227.99" x2="297.27" y2="227.92"/><line class="cls-1" x1="297.27" y1="227.92" x2="297.66" y2="228.06"/><line class="cls-1" x1="297.66" y1="228.06" x2="306.68" y2="233.27"/><line class="cls-1" x1="306.68" y1="233.27" x2="307.07" y2="233.58"/><line class="cls-1" x1="307.07" y1="233.58" x2="307.43" y2="234.06"/><line class="cls-1" x1="307.43" y1="234.06" x2="307.67" y2="234.61"/><line class="cls-1" x1="307.67" y1="234.61" x2="307.74" y2="235.11"/><line class="cls-1" x1="307.74" y1="235.11" x2="307.74" y2="245.93"/><line class="cls-1" x1="307.21" y1="246.24" x2="307.21" y2="246.85"/><line class="cls-1" x1="126.42" y1="136.96" x2="126.42" y2="137.57"/><line class="cls-1" x1="126.42" y1="137.57" x2="128.54" y2="138.79"/><line class="cls-1" x1="126.95" y1="133.58" x2="126.95" y2="136.65"/><line class="cls-1" x1="141.45" y1="141.96" x2="141.45" y2="145.02"/><line class="cls-1" x1="140.92" y1="145.33" x2="140.92" y2="145.94"/><line class="cls-1" x1="140.92" y1="145.94" x2="143.05" y2="147.17"/><line class="cls-1" x1="126.95" y1="171.88" x2="126.95" y2="174.95"/><line class="cls-1" x1="126.42" y1="175.25" x2="126.42" y2="175.87"/><line class="cls-1" x1="126.42" y1="175.87" x2="128.54" y2="177.1"/><line class="cls-1" x1="140.92" y1="184.24" x2="143.05" y2="185.47"/><line class="cls-1" x1="141.45" y1="180.26" x2="141.45" y2="183.32"/><line class="cls-1" x1="140.92" y1="183.63" x2="140.92" y2="184.24"/><line class="cls-1" x1="179.49" y1="167.6" x2="179.49" y2="168.21"/><line class="cls-1" x1="179.49" y1="168.21" x2="181.61" y2="169.43"/><line class="cls-1" x1="180.02" y1="164.22" x2="180.02" y2="167.29"/><line class="cls-1" x1="194.53" y1="172.6" x2="194.53" y2="175.66"/><line class="cls-1" x1="194" y1="175.97" x2="194" y2="176.58"/><line class="cls-1" x1="194" y1="176.58" x2="196.12" y2="177.81"/><line class="cls-1" x1="180.02" y1="202.53" x2="180.02" y2="205.59"/><line class="cls-1" x1="179.49" y1="205.9" x2="179.49" y2="206.51"/><line class="cls-1" x1="179.49" y1="206.51" x2="181.61" y2="207.74"/><line class="cls-1" x1="194" y1="214.88" x2="196.12" y2="216.11"/><line class="cls-1" x1="194.53" y1="210.9" x2="194.53" y2="213.96"/><line class="cls-1" x1="194" y1="214.27" x2="194" y2="214.88"/><line class="cls-1" x1="232.56" y1="198.24" x2="232.56" y2="198.85"/><line class="cls-1" x1="232.56" y1="198.85" x2="234.68" y2="200.07"/><line class="cls-1" x1="233.09" y1="194.87" x2="233.09" y2="197.93"/><line class="cls-1" x1="247.6" y1="203.24" x2="247.6" y2="206.31"/><line class="cls-1" x1="247.07" y1="206.61" x2="247.07" y2="207.22"/><line class="cls-1" x1="247.07" y1="207.22" x2="249.19" y2="208.45"/><line class="cls-1" x1="233.09" y1="233.17" x2="233.09" y2="236.23"/><line class="cls-1" x1="232.56" y1="236.54" x2="232.56" y2="237.15"/><line class="cls-1" x1="232.56" y1="237.15" x2="234.68" y2="238.38"/><line class="cls-1" x1="247.07" y1="245.52" x2="249.19" y2="246.75"/><line class="cls-1" x1="247.6" y1="241.54" x2="247.6" y2="244.6"/><line class="cls-1" x1="247.07" y1="244.91" x2="247.07" y2="245.52"/><line class="cls-1" x1="285.63" y1="228.88" x2="285.63" y2="229.49"/><line class="cls-1" x1="285.63" y1="229.49" x2="287.75" y2="230.72"/><line class="cls-1" x1="286.16" y1="225.51" x2="286.16" y2="228.57"/><line class="cls-1" x1="300.67" y1="233.88" x2="300.67" y2="236.95"/><line class="cls-1" x1="300.14" y1="237.25" x2="300.14" y2="237.86"/><line class="cls-1" x1="300.14" y1="237.86" x2="302.26" y2="239.09"/><line class="cls-1" x1="286.16" y1="263.81" x2="286.16" y2="266.87"/><line class="cls-1" x1="285.63" y1="267.18" x2="285.63" y2="267.79"/><line class="cls-1" x1="285.63" y1="267.79" x2="287.75" y2="269.02"/><line class="cls-1" x1="300.14" y1="276.17" x2="302.26" y2="277.39"/><line class="cls-1" x1="300.67" y1="272.18" x2="300.67" y2="275.25"/><line class="cls-1" x1="300.14" y1="275.55" x2="300.14" y2="276.17"/><line class="cls-1" x1="321.54" y1="290.77" x2="319.95" y2="291.69"/><line class="cls-1" x1="295.68" y1="277.59" x2="295.32" y2="277.11"/><line class="cls-1" x1="295.08" y1="276.56" x2="295.01" y2="276.06"/><line class="cls-1" x1="319.95" y1="291.69" x2="296.07" y2="277.9"/><line class="cls-1" x1="296.07" y1="277.9" x2="295.68" y2="277.59"/><line class="cls-1" x1="295.32" y1="277.11" x2="295.08" y2="276.56"/><line class="cls-1" x1="295.01" y1="276.06" x2="295.01" y2="271.98"/><line class="cls-1" x1="321.54" y1="255.13" x2="319.95" y2="256.05"/><line class="cls-1" x1="319.95" y1="256.05" x2="319.95" y2="291.69"/><line class="cls-1" x1="305.62" y1="247.77" x2="319.95" y2="256.05"/><line class="cls-1" x1="305.62" y1="246.55" x2="305.62" y2="247.77"/><line class="cls-1" x1="306.15" y1="246.85" x2="305.62" y2="246.55"/><line class="cls-1" x1="295.01" y1="229.59" x2="295.08" y2="229.18"/><line class="cls-1" x1="296.07" y1="228.98" x2="305.09" y2="234.19"/><line class="cls-1" x1="305.84" y1="234.98" x2="306.08" y2="235.53"/><line class="cls-1" x1="306.08" y1="235.53" x2="306.15" y2="236.03"/><line class="cls-1" x1="306.15" y1="236.03" x2="306.15" y2="246.85"/><line class="cls-1" x1="295.32" y1="228.91" x2="295.68" y2="228.84"/><line class="cls-1" x1="295.68" y1="228.84" x2="296.07" y2="228.98"/><line class="cls-1" x1="295.08" y1="229.18" x2="295.32" y2="228.91"/><line class="cls-1" x1="305.09" y1="234.19" x2="305.48" y2="234.5"/><line class="cls-1" x1="305.48" y1="234.5" x2="305.84" y2="234.98"/><line class="cls-1" x1="295.54" y1="240.72" x2="295.01" y2="240.42"/><line class="cls-1" x1="295.54" y1="241.95" x2="295.54" y2="240.72"/><line class="cls-1" x1="291.29" y1="239.5" x2="295.54" y2="241.95"/><line class="cls-1" x1="291.29" y1="238.27" x2="291.29" y2="239.5"/><line class="cls-1" x1="291.83" y1="238.58" x2="291.29" y2="238.27"/><line class="cls-1" x1="280.68" y1="221.32" x2="280.75" y2="220.91"/><line class="cls-1" x1="281.74" y1="220.71" x2="290.76" y2="225.92"/><line class="cls-1" x1="291.51" y1="226.71" x2="291.75" y2="227.26"/><line class="cls-1" x1="291.75" y1="227.26" x2="291.83" y2="227.75"/><line class="cls-1" x1="291.83" y1="227.75" x2="291.83" y2="238.58"/><line class="cls-1" x1="280.99" y1="220.63" x2="281.35" y2="220.57"/><line class="cls-1" x1="281.35" y1="220.57" x2="281.74" y2="220.71"/><line class="cls-1" x1="280.75" y1="220.91" x2="280.99" y2="220.63"/><line class="cls-1" x1="290.76" y1="225.92" x2="291.15" y2="226.23"/><line class="cls-1" x1="291.15" y1="226.23" x2="291.51" y2="226.71"/><line class="cls-1" x1="281.21" y1="232.45" x2="280.68" y2="232.15"/><line class="cls-1" x1="281.21" y1="233.68" x2="281.21" y2="232.45"/><line class="cls-1" x1="252.55" y1="217.13" x2="281.21" y2="233.68"/><line class="cls-1" x1="252.55" y1="215.91" x2="252.55" y2="217.13"/><line class="cls-1" x1="253.08" y1="216.21" x2="252.55" y2="215.91"/><line class="cls-1" x1="241.94" y1="198.95" x2="242.01" y2="198.54"/><line class="cls-1" x1="243" y1="198.34" x2="252.02" y2="203.55"/><line class="cls-1" x1="252.77" y1="204.34" x2="253.01" y2="204.89"/><line class="cls-1" x1="253.01" y1="204.89" x2="253.08" y2="205.39"/><line class="cls-1" x1="253.08" y1="205.39" x2="253.08" y2="216.21"/><line class="cls-1" x1="242.25" y1="198.26" x2="242.61" y2="198.2"/><line class="cls-1" x1="242.61" y1="198.2" x2="243" y2="198.34"/><line class="cls-1" x1="242.01" y1="198.54" x2="242.25" y2="198.26"/><line class="cls-1" x1="252.02" y1="203.55" x2="252.41" y2="203.86"/><line class="cls-1" x1="252.41" y1="203.86" x2="252.77" y2="204.34"/><line class="cls-1" x1="242.47" y1="210.08" x2="241.94" y2="209.78"/><line class="cls-1" x1="242.47" y1="211.31" x2="242.47" y2="210.08"/><line class="cls-1" x1="238.22" y1="208.86" x2="242.47" y2="211.31"/><line class="cls-1" x1="238.22" y1="207.63" x2="238.22" y2="208.86"/><line class="cls-1" x1="238.75" y1="207.94" x2="238.22" y2="207.63"/><line class="cls-1" x1="227.61" y1="190.68" x2="227.68" y2="190.27"/><line class="cls-1" x1="228.67" y1="190.07" x2="237.69" y2="195.27"/><line class="cls-1" x1="238.44" y1="196.07" x2="238.68" y2="196.62"/><line class="cls-1" x1="238.68" y1="196.62" x2="238.75" y2="197.11"/><line class="cls-1" x1="238.75" y1="197.11" x2="238.75" y2="207.94"/><line class="cls-1" x1="227.92" y1="189.99" x2="228.28" y2="189.93"/><line class="cls-1" x1="228.28" y1="189.93" x2="228.67" y2="190.07"/><line class="cls-1" x1="227.68" y1="190.27" x2="227.92" y2="189.99"/><line class="cls-1" x1="237.69" y1="195.27" x2="238.08" y2="195.59"/><line class="cls-1" x1="238.08" y1="195.59" x2="238.44" y2="196.07"/><line class="cls-1" x1="228.14" y1="201.81" x2="227.61" y2="201.51"/><line class="cls-1" x1="228.14" y1="203.04" x2="228.14" y2="201.81"/><line class="cls-1" x1="199.48" y1="186.49" x2="228.14" y2="203.04"/><line class="cls-1" x1="199.48" y1="185.27" x2="199.48" y2="186.49"/><line class="cls-1" x1="200.01" y1="185.57" x2="199.48" y2="185.27"/><line class="cls-1" x1="188.87" y1="168.31" x2="188.94" y2="167.9"/><line class="cls-1" x1="189.93" y1="167.7" x2="198.95" y2="172.91"/><line class="cls-1" x1="199.7" y1="173.7" x2="199.94" y2="174.25"/><line class="cls-1" x1="199.94" y1="174.25" x2="200.01" y2="174.74"/><line class="cls-1" x1="200.01" y1="174.74" x2="200.01" y2="185.57"/><line class="cls-1" x1="189.18" y1="167.62" x2="189.54" y2="167.56"/><line class="cls-1" x1="189.54" y1="167.56" x2="189.93" y2="167.7"/><line class="cls-1" x1="188.94" y1="167.9" x2="189.18" y2="167.62"/><line class="cls-1" x1="198.95" y1="172.91" x2="199.34" y2="173.22"/><line class="cls-1" x1="199.34" y1="173.22" x2="199.7" y2="173.7"/><line class="cls-1" x1="189.4" y1="179.44" x2="188.87" y2="179.14"/><line class="cls-1" x1="189.4" y1="180.67" x2="189.4" y2="179.44"/><line class="cls-1" x1="185.15" y1="178.22" x2="189.4" y2="180.67"/><line class="cls-1" x1="185.15" y1="176.99" x2="185.15" y2="178.22"/><line class="cls-1" x1="185.68" y1="177.3" x2="185.15" y2="176.99"/><line class="cls-1" x1="174.54" y1="160.04" x2="174.61" y2="159.63"/><line class="cls-1" x1="175.6" y1="159.43" x2="184.62" y2="164.63"/><line class="cls-1" x1="185.37" y1="165.43" x2="185.61" y2="165.98"/><line class="cls-1" x1="185.61" y1="165.98" x2="185.68" y2="166.47"/><line class="cls-1" x1="185.68" y1="166.47" x2="185.68" y2="177.3"/><line class="cls-1" x1="174.85" y1="159.35" x2="175.21" y2="159.29"/><line class="cls-1" x1="175.21" y1="159.29" x2="175.6" y2="159.43"/><line class="cls-1" x1="174.61" y1="159.63" x2="174.85" y2="159.35"/><line class="cls-1" x1="184.62" y1="164.63" x2="185.01" y2="164.95"/><line class="cls-1" x1="185.01" y1="164.95" x2="185.37" y2="165.43"/><line class="cls-1" x1="175.07" y1="171.17" x2="174.54" y2="170.86"/><line class="cls-1" x1="175.07" y1="172.39" x2="175.07" y2="171.17"/><line class="cls-1" x1="146.41" y1="155.85" x2="175.07" y2="172.39"/><line class="cls-1" x1="146.41" y1="154.63" x2="146.41" y2="155.85"/><line class="cls-1" x1="146.94" y1="154.93" x2="146.41" y2="154.63"/><line class="cls-1" x1="135.79" y1="137.67" x2="135.87" y2="137.26"/><line class="cls-1" x1="136.86" y1="137.06" x2="145.88" y2="142.27"/><line class="cls-1" x1="146.63" y1="143.06" x2="146.87" y2="143.61"/><line class="cls-1" x1="146.87" y1="143.61" x2="146.94" y2="144.1"/><line class="cls-1" x1="146.94" y1="144.1" x2="146.94" y2="154.93"/><line class="cls-1" x1="136.11" y1="136.98" x2="136.46" y2="136.92"/><line class="cls-1" x1="136.46" y1="136.92" x2="136.86" y2="137.06"/><line class="cls-1" x1="135.87" y1="137.26" x2="136.11" y2="136.98"/><line class="cls-1" x1="145.88" y1="142.27" x2="146.27" y2="142.58"/><line class="cls-1" x1="146.27" y1="142.58" x2="146.63" y2="143.06"/><line class="cls-1" x1="136.32" y1="148.8" x2="135.79" y2="148.5"/><line class="cls-1" x1="136.32" y1="150.03" x2="136.32" y2="148.8"/><line class="cls-1" x1="132.08" y1="147.58" x2="136.32" y2="150.03"/><line class="cls-1" x1="132.08" y1="146.35" x2="132.08" y2="147.58"/><line class="cls-1" x1="132.61" y1="146.66" x2="132.08" y2="146.35"/><line class="cls-1" x1="121.47" y1="129.4" x2="121.54" y2="128.99"/><line class="cls-1" x1="122.53" y1="128.79" x2="131.55" y2="133.99"/><line class="cls-1" x1="132.3" y1="134.79" x2="132.54" y2="135.34"/><line class="cls-1" x1="132.54" y1="135.34" x2="132.61" y2="135.83"/><line class="cls-1" x1="132.61" y1="135.83" x2="132.61" y2="146.66"/><line class="cls-1" x1="121.78" y1="128.71" x2="122.14" y2="128.65"/><line class="cls-1" x1="122.14" y1="128.65" x2="122.53" y2="128.79"/><line class="cls-1" x1="121.54" y1="128.99" x2="121.78" y2="128.71"/><line class="cls-1" x1="131.55" y1="133.99" x2="131.94" y2="134.31"/><line class="cls-1" x1="131.94" y1="134.31" x2="132.3" y2="134.79"/><line class="cls-1" x1="122" y1="140.53" x2="121.47" y2="140.22"/><line class="cls-1" x1="122" y1="141.75" x2="122" y2="140.53"/><line class="cls-1" x1="109.26" y1="132.56" x2="107.67" y2="133.48"/><line class="cls-1" x1="107.67" y1="133.48" x2="122" y2="141.75"/><line class="cls-1" x1="132.61" y1="178.22" x2="132.61" y2="182.3"/><line class="cls-1" x1="132.88" y1="178.07" x2="132.61" y2="178.22"/><line class="cls-1" x1="132.54" y1="182.71" x2="132.3" y2="182.99"/><line class="cls-1" x1="131.94" y1="183.06" x2="131.55" y2="182.92"/><line class="cls-1" x1="131.55" y1="182.92" x2="107.67" y2="169.13"/><line class="cls-1" x1="132.61" y1="182.3" x2="132.54" y2="182.71"/><line class="cls-1" x1="132.3" y1="182.99" x2="131.94" y2="183.06"/><line class="cls-1" x1="132.08" y1="177.91" x2="132.61" y2="178.22"/><line class="cls-1" x1="132.08" y1="176.69" x2="132.08" y2="177.91"/><line class="cls-1" x1="135.79" y1="180.06" x2="136.32" y2="180.36"/><line class="cls-1" x1="185.95" y1="208.71" x2="185.68" y2="208.86"/><line class="cls-1" x1="185.68" y1="208.86" x2="185.68" y2="212.94"/><line class="cls-1" x1="185.68" y1="212.94" x2="185.61" y2="213.35"/><line class="cls-1" x1="135.79" y1="184.14" x2="135.79" y2="180.06"/><line class="cls-1" x1="185.61" y1="213.35" x2="185.37" y2="213.63"/><line class="cls-1" x1="185.01" y1="213.7" x2="184.62" y2="213.56"/><line class="cls-1" x1="185.37" y1="213.63" x2="185.01" y2="213.7"/><line class="cls-1" x1="136.86" y1="185.98" x2="136.46" y2="185.67"/><line class="cls-1" x1="136.46" y1="185.67" x2="136.11" y2="185.19"/><line class="cls-1" x1="135.87" y1="184.64" x2="135.79" y2="184.14"/><line class="cls-1" x1="136.11" y1="185.19" x2="135.87" y2="184.64"/><line class="cls-1" x1="185.15" y1="208.55" x2="185.68" y2="208.86"/><line class="cls-1" x1="185.15" y1="207.33" x2="185.15" y2="208.55"/><line class="cls-1" x1="188.87" y1="210.7" x2="189.4" y2="211"/><line class="cls-1" x1="238.75" y1="239.5" x2="238.75" y2="243.58"/><line class="cls-1" x1="239.02" y1="239.35" x2="238.75" y2="239.5"/><line class="cls-1" x1="238.75" y1="243.58" x2="238.68" y2="243.99"/><line class="cls-1" x1="188.87" y1="214.78" x2="188.87" y2="210.7"/><line class="cls-1" x1="238.68" y1="243.99" x2="238.44" y2="244.27"/><line class="cls-1" x1="238.08" y1="244.34" x2="237.69" y2="244.2"/><line class="cls-1" x1="238.44" y1="244.27" x2="238.08" y2="244.34"/><line class="cls-1" x1="189.93" y1="216.62" x2="189.54" y2="216.31"/><line class="cls-1" x1="189.54" y1="216.31" x2="189.18" y2="215.83"/><line class="cls-1" x1="188.94" y1="215.28" x2="188.87" y2="214.78"/><line class="cls-1" x1="189.18" y1="215.83" x2="188.94" y2="215.28"/><line class="cls-1" x1="238.22" y1="239.19" x2="238.75" y2="239.5"/><line class="cls-1" x1="238.22" y1="237.97" x2="238.22" y2="239.19"/><line class="cls-1" x1="241.94" y1="241.34" x2="242.47" y2="241.64"/><line class="cls-1" x1="291.83" y1="270.14" x2="291.83" y2="274.22"/><line class="cls-1" x1="292.09" y1="269.99" x2="291.83" y2="270.14"/><line class="cls-1" x1="291.83" y1="274.22" x2="291.75" y2="274.63"/><line class="cls-1" x1="241.94" y1="245.42" x2="241.94" y2="241.34"/><line class="cls-1" x1="291.75" y1="274.63" x2="291.51" y2="274.91"/><line class="cls-1" x1="291.15" y1="274.98" x2="290.76" y2="274.84"/><line class="cls-1" x1="291.51" y1="274.91" x2="291.15" y2="274.98"/><line class="cls-1" x1="243" y1="247.26" x2="242.61" y2="246.95"/><line class="cls-1" x1="242.61" y1="246.95" x2="242.25" y2="246.47"/><line class="cls-1" x1="242.01" y1="245.92" x2="241.94" y2="245.42"/><line class="cls-1" x1="242.25" y1="246.47" x2="242.01" y2="245.92"/><line class="cls-1" x1="291.29" y1="269.83" x2="291.83" y2="270.14"/><line class="cls-1" x1="291.29" y1="268.61" x2="291.29" y2="269.83"/><line class="cls-1" x1="302.79" y1="278.31" x2="302.26" y2="278"/><line class="cls-1" x1="302.79" y1="279.54" x2="302.79" y2="278.31"/><line class="cls-1" x1="300.14" y1="276.17" x2="298.55" y2="277.09"/><line class="cls-1" x1="298.55" y1="277.09" x2="302.79" y2="279.54"/><line class="cls-1" x1="298.55" y1="275.86" x2="298.55" y2="277.09"/><line class="cls-1" x1="299.08" y1="276.17" x2="298.55" y2="275.86"/><line class="cls-1" x1="300.14" y1="271.87" x2="299.08" y2="272.49"/><line class="cls-1" x1="299.08" y1="272.49" x2="299.08" y2="276.17"/><line class="cls-1" x1="299.61" y1="271.57" x2="298.55" y2="272.18"/><line class="cls-1" x1="298.55" y1="272.18" x2="299.08" y2="272.49"/><line class="cls-1" x1="298.55" y1="270.96" x2="298.55" y2="272.18"/><line class="cls-1" x1="302.79" y1="274.02" x2="302.26" y2="274.33"/><line class="cls-1" x1="302.26" y1="274.33" x2="302.79" y2="274.63"/><line class="cls-1" x1="285.63" y1="263.5" x2="284.57" y2="264.11"/><line class="cls-1" x1="284.57" y1="264.11" x2="284.57" y2="267.79"/><line class="cls-1" x1="285.1" y1="263.19" x2="284.04" y2="263.81"/><line class="cls-1" x1="284.04" y1="263.81" x2="284.57" y2="264.11"/><line class="cls-1" x1="284.04" y1="262.58" x2="284.04" y2="263.81"/><line class="cls-1" x1="288.28" y1="265.65" x2="287.75" y2="265.95"/><line class="cls-1" x1="287.75" y1="265.95" x2="288.28" y2="266.26"/><line class="cls-1" x1="288.28" y1="269.93" x2="287.75" y2="269.63"/><line class="cls-1" x1="288.28" y1="271.16" x2="288.28" y2="269.93"/><line class="cls-1" x1="285.63" y1="267.79" x2="284.04" y2="268.71"/><line class="cls-1" x1="284.04" y1="268.71" x2="288.28" y2="271.16"/><line class="cls-1" x1="284.04" y1="267.48" x2="284.04" y2="268.71"/><line class="cls-1" x1="284.57" y1="267.79" x2="284.04" y2="267.48"/><line class="cls-1" x1="299.08" y1="237.86" x2="298.55" y2="237.56"/><line class="cls-1" x1="300.14" y1="233.58" x2="299.08" y2="234.19"/><line class="cls-1" x1="299.08" y1="234.19" x2="299.08" y2="237.86"/><line class="cls-1" x1="299.61" y1="233.27" x2="298.55" y2="233.88"/><line class="cls-1" x1="298.55" y1="233.88" x2="299.08" y2="234.19"/><line class="cls-1" x1="298.55" y1="232.66" x2="298.55" y2="233.88"/><line class="cls-1" x1="302.79" y1="235.72" x2="302.26" y2="236.03"/><line class="cls-1" x1="302.26" y1="236.03" x2="302.79" y2="236.33"/><line class="cls-1" x1="302.79" y1="240.01" x2="302.26" y2="239.7"/><line class="cls-1" x1="302.79" y1="241.23" x2="302.79" y2="240.01"/><line class="cls-1" x1="300.14" y1="237.86" x2="298.55" y2="238.78"/><line class="cls-1" x1="298.55" y1="238.78" x2="302.79" y2="241.23"/><line class="cls-1" x1="298.55" y1="237.56" x2="298.55" y2="238.78"/><line class="cls-1" x1="288.28" y1="232.86" x2="288.28" y2="231.64"/><line class="cls-1" x1="285.63" y1="229.49" x2="284.04" y2="230.41"/><line class="cls-1" x1="284.04" y1="230.41" x2="288.28" y2="232.86"/><line class="cls-1" x1="284.04" y1="229.18" x2="284.04" y2="230.41"/><line class="cls-1" x1="284.57" y1="229.49" x2="284.04" y2="229.18"/><line class="cls-1" x1="285.63" y1="225.2" x2="284.57" y2="225.81"/><line class="cls-1" x1="284.57" y1="225.81" x2="284.57" y2="229.49"/><line class="cls-1" x1="285.1" y1="224.89" x2="284.04" y2="225.51"/><line class="cls-1" x1="284.04" y1="225.51" x2="284.57" y2="225.81"/><line class="cls-1" x1="284.04" y1="224.28" x2="284.04" y2="225.51"/><line class="cls-1" x1="288.28" y1="227.35" x2="287.75" y2="227.65"/><line class="cls-1" x1="287.75" y1="227.65" x2="288.28" y2="227.96"/><line class="cls-1" x1="288.28" y1="231.64" x2="287.75" y2="231.33"/><line class="cls-1" x1="249.72" y1="247.67" x2="249.19" y2="247.36"/><line class="cls-1" x1="249.72" y1="248.89" x2="249.72" y2="247.67"/><line class="cls-1" x1="247.07" y1="245.52" x2="245.48" y2="246.44"/><line class="cls-1" x1="245.48" y1="246.44" x2="249.72" y2="248.89"/><line class="cls-1" x1="245.48" y1="245.22" x2="245.48" y2="246.44"/><line class="cls-1" x1="246.01" y1="245.52" x2="245.48" y2="245.22"/><line class="cls-1" x1="247.07" y1="241.23" x2="246.01" y2="241.85"/><line class="cls-1" x1="246.01" y1="241.85" x2="246.01" y2="245.52"/><line class="cls-1" x1="246.54" y1="240.93" x2="245.48" y2="241.54"/><line class="cls-1" x1="245.48" y1="241.54" x2="246.01" y2="241.85"/><line class="cls-1" x1="245.48" y1="240.32" x2="245.48" y2="241.54"/><line class="cls-1" x1="249.72" y1="243.38" x2="249.19" y2="243.69"/><line class="cls-1" x1="249.19" y1="243.69" x2="249.72" y2="243.99"/><line class="cls-1" x1="232.56" y1="232.86" x2="231.5" y2="233.47"/><line class="cls-1" x1="231.5" y1="233.47" x2="231.5" y2="237.15"/><line class="cls-1" x1="232.03" y1="232.55" x2="230.97" y2="233.17"/><line class="cls-1" x1="230.97" y1="233.17" x2="231.5" y2="233.47"/><line class="cls-1" x1="230.97" y1="231.94" x2="230.97" y2="233.17"/><line class="cls-1" x1="235.21" y1="235.01" x2="234.68" y2="235.31"/><line class="cls-1" x1="234.68" y1="235.31" x2="235.21" y2="235.62"/><line class="cls-1" x1="235.21" y1="239.29" x2="234.68" y2="238.99"/><line class="cls-1" x1="235.21" y1="240.52" x2="235.21" y2="239.29"/><line class="cls-1" x1="232.56" y1="237.15" x2="230.97" y2="238.07"/><line class="cls-1" x1="230.97" y1="238.07" x2="235.21" y2="240.52"/><line class="cls-1" x1="230.97" y1="236.84" x2="230.97" y2="238.07"/><line class="cls-1" x1="231.5" y1="237.15" x2="230.97" y2="236.84"/><line class="cls-1" x1="246.01" y1="207.22" x2="245.48" y2="206.92"/><line class="cls-1" x1="247.07" y1="202.94" x2="246.01" y2="203.55"/><line class="cls-1" x1="246.01" y1="203.55" x2="246.01" y2="207.22"/><line class="cls-1" x1="246.54" y1="202.63" x2="245.48" y2="203.24"/><line class="cls-1" x1="245.48" y1="203.24" x2="246.01" y2="203.55"/><line class="cls-1" x1="245.48" y1="202.02" x2="245.48" y2="203.24"/><line class="cls-1" x1="249.72" y1="205.08" x2="249.19" y2="205.39"/><line class="cls-1" x1="249.19" y1="205.39" x2="249.72" y2="205.69"/><line class="cls-1" x1="249.72" y1="209.37" x2="249.19" y2="209.06"/><line class="cls-1" x1="249.72" y1="210.59" x2="249.72" y2="209.37"/><line class="cls-1" x1="247.07" y1="207.22" x2="245.48" y2="208.14"/><line class="cls-1" x1="245.48" y1="208.14" x2="249.72" y2="210.59"/><line class="cls-1" x1="245.48" y1="206.92" x2="245.48" y2="208.14"/><line class="cls-1" x1="235.21" y1="202.22" x2="235.21" y2="201"/><line class="cls-1" x1="232.56" y1="198.85" x2="230.97" y2="199.77"/><line class="cls-1" x1="230.97" y1="199.77" x2="235.21" y2="202.22"/><line class="cls-1" x1="230.97" y1="198.54" x2="230.97" y2="199.77"/><line class="cls-1" x1="231.5" y1="198.85" x2="230.97" y2="198.54"/><line class="cls-1" x1="232.56" y1="194.56" x2="231.5" y2="195.17"/><line class="cls-1" x1="231.5" y1="195.17" x2="231.5" y2="198.85"/><line class="cls-1" x1="232.03" y1="194.25" x2="230.97" y2="194.87"/><line class="cls-1" x1="230.97" y1="194.87" x2="231.5" y2="195.17"/><line class="cls-1" x1="230.97" y1="193.64" x2="230.97" y2="194.87"/><line class="cls-1" x1="235.21" y1="196.7" x2="234.68" y2="197.01"/><line class="cls-1" x1="234.68" y1="197.01" x2="235.21" y2="197.32"/><line class="cls-1" x1="235.21" y1="201" x2="234.68" y2="200.69"/><line class="cls-1" x1="196.65" y1="217.03" x2="196.12" y2="216.72"/><line class="cls-1" x1="196.65" y1="218.25" x2="196.65" y2="217.03"/><line class="cls-1" x1="194" y1="214.88" x2="192.41" y2="215.8"/><line class="cls-1" x1="192.41" y1="215.8" x2="196.65" y2="218.25"/><line class="cls-1" x1="192.41" y1="214.58" x2="192.41" y2="215.8"/><line class="cls-1" x1="192.94" y1="214.88" x2="192.41" y2="214.58"/><line class="cls-1" x1="194" y1="210.59" x2="192.94" y2="211.21"/><line class="cls-1" x1="192.94" y1="211.21" x2="192.94" y2="214.88"/><line class="cls-1" x1="193.47" y1="210.29" x2="192.41" y2="210.9"/><line class="cls-1" x1="192.41" y1="210.9" x2="192.94" y2="211.21"/><line class="cls-1" x1="192.41" y1="209.68" x2="192.41" y2="210.9"/><line class="cls-1" x1="196.65" y1="212.74" x2="196.12" y2="213.05"/><line class="cls-1" x1="196.12" y1="213.05" x2="196.65" y2="213.35"/><line class="cls-1" x1="179.49" y1="202.22" x2="178.43" y2="202.83"/><line class="cls-1" x1="178.43" y1="202.83" x2="178.43" y2="206.51"/><line class="cls-1" x1="178.96" y1="201.91" x2="177.9" y2="202.53"/><line class="cls-1" x1="177.9" y1="202.53" x2="178.43" y2="202.83"/><line class="cls-1" x1="177.9" y1="201.3" x2="177.9" y2="202.53"/><line class="cls-1" x1="182.14" y1="204.37" x2="181.61" y2="204.67"/><line class="cls-1" x1="181.61" y1="204.67" x2="182.14" y2="204.98"/><line class="cls-1" x1="182.14" y1="208.65" x2="181.61" y2="208.35"/><line class="cls-1" x1="182.14" y1="209.88" x2="182.14" y2="208.65"/><line class="cls-1" x1="179.49" y1="206.51" x2="177.9" y2="207.43"/><line class="cls-1" x1="177.9" y1="207.43" x2="182.14" y2="209.88"/><line class="cls-1" x1="177.9" y1="206.2" x2="177.9" y2="207.43"/><line class="cls-1" x1="178.43" y1="206.51" x2="177.9" y2="206.2"/><line class="cls-1" x1="192.94" y1="176.58" x2="192.41" y2="176.28"/><line class="cls-1" x1="194" y1="172.29" x2="192.94" y2="172.91"/><line class="cls-1" x1="192.94" y1="172.91" x2="192.94" y2="176.58"/><line class="cls-1" x1="193.47" y1="171.99" x2="192.41" y2="172.6"/><line class="cls-1" x1="192.41" y1="172.6" x2="192.94" y2="172.91"/><line class="cls-1" x1="192.41" y1="171.37" x2="192.41" y2="172.6"/><line class="cls-1" x1="196.65" y1="174.44" x2="196.12" y2="174.74"/><line class="cls-1" x1="196.12" y1="174.74" x2="196.65" y2="175.05"/><line class="cls-1" x1="196.65" y1="178.73" x2="196.12" y2="178.42"/><line class="cls-1" x1="196.65" y1="179.95" x2="196.65" y2="178.73"/><line class="cls-1" x1="194" y1="176.58" x2="192.41" y2="177.5"/><line class="cls-1" x1="192.41" y1="177.5" x2="196.65" y2="179.95"/><line class="cls-1" x1="192.41" y1="176.28" x2="192.41" y2="177.5"/><line class="cls-1" x1="182.14" y1="171.58" x2="182.14" y2="170.35"/><line class="cls-1" x1="179.49" y1="168.21" x2="177.9" y2="169.13"/><line class="cls-1" x1="177.9" y1="169.13" x2="182.14" y2="171.58"/><line class="cls-1" x1="177.9" y1="167.9" x2="177.9" y2="169.13"/><line class="cls-1" x1="178.43" y1="168.21" x2="177.9" y2="167.9"/><line class="cls-1" x1="179.49" y1="163.92" x2="178.43" y2="164.53"/><line class="cls-1" x1="178.43" y1="164.53" x2="178.43" y2="168.21"/><line class="cls-1" x1="178.96" y1="163.61" x2="177.9" y2="164.22"/><line class="cls-1" x1="177.9" y1="164.22" x2="178.43" y2="164.53"/><line class="cls-1" x1="177.9" y1="163" x2="177.9" y2="164.22"/><line class="cls-1" x1="182.14" y1="166.06" x2="181.61" y2="166.37"/><line class="cls-1" x1="181.61" y1="166.37" x2="182.14" y2="166.68"/><line class="cls-1" x1="182.14" y1="170.35" x2="181.61" y2="170.05"/><line class="cls-1" x1="143.58" y1="186.39" x2="143.05" y2="186.08"/><line class="cls-1" x1="143.58" y1="187.61" x2="143.58" y2="186.39"/><line class="cls-1" x1="140.92" y1="184.24" x2="139.33" y2="185.16"/><line class="cls-1" x1="139.33" y1="185.16" x2="143.58" y2="187.61"/><line class="cls-1" x1="139.33" y1="183.94" x2="139.33" y2="185.16"/><line class="cls-1" x1="139.86" y1="184.24" x2="139.33" y2="183.94"/><line class="cls-1" x1="140.92" y1="179.95" x2="139.86" y2="180.57"/><line class="cls-1" x1="139.86" y1="180.57" x2="139.86" y2="184.24"/><line class="cls-1" x1="140.39" y1="179.65" x2="139.33" y2="180.26"/><line class="cls-1" x1="139.33" y1="180.26" x2="139.86" y2="180.57"/><line class="cls-1" x1="139.33" y1="179.04" x2="139.33" y2="180.26"/><line class="cls-1" x1="143.58" y1="182.1" x2="143.05" y2="182.41"/><line class="cls-1" x1="143.05" y1="182.41" x2="143.58" y2="182.71"/><line class="cls-1" x1="126.42" y1="171.58" x2="125.36" y2="172.19"/><line class="cls-1" x1="125.36" y1="172.19" x2="125.36" y2="175.87"/><line class="cls-1" x1="125.89" y1="171.27" x2="124.83" y2="171.88"/><line class="cls-1" x1="124.83" y1="171.88" x2="125.36" y2="172.19"/><line class="cls-1" x1="124.83" y1="170.66" x2="124.83" y2="171.88"/><line class="cls-1" x1="129.07" y1="173.72" x2="128.54" y2="174.03"/><line class="cls-1" x1="128.54" y1="174.03" x2="129.07" y2="174.34"/><line class="cls-1" x1="129.07" y1="178.01" x2="128.54" y2="177.71"/><line class="cls-1" x1="129.07" y1="179.24" x2="129.07" y2="178.01"/><line class="cls-1" x1="126.42" y1="175.87" x2="124.83" y2="176.79"/><line class="cls-1" x1="124.83" y1="176.79" x2="129.07" y2="179.24"/><line class="cls-1" x1="124.83" y1="175.56" x2="124.83" y2="176.79"/><line class="cls-1" x1="125.36" y1="175.87" x2="124.83" y2="175.56"/><line class="cls-1" x1="139.86" y1="145.94" x2="139.33" y2="145.64"/><line class="cls-1" x1="140.92" y1="141.65" x2="139.86" y2="142.27"/><line class="cls-1" x1="139.86" y1="142.27" x2="139.86" y2="145.94"/><line class="cls-1" x1="140.39" y1="141.35" x2="139.33" y2="141.96"/><line class="cls-1" x1="139.33" y1="141.96" x2="139.86" y2="142.27"/><line class="cls-1" x1="139.33" y1="140.73" x2="139.33" y2="141.96"/><line class="cls-1" x1="143.58" y1="143.8" x2="143.05" y2="144.1"/><line class="cls-1" x1="143.05" y1="144.1" x2="143.58" y2="144.41"/><line class="cls-1" x1="143.58" y1="148.09" x2="143.05" y2="147.78"/><line class="cls-1" x1="143.58" y1="149.31" x2="143.58" y2="148.09"/><line class="cls-1" x1="140.92" y1="145.94" x2="139.33" y2="146.86"/><line class="cls-1" x1="139.33" y1="146.86" x2="143.58" y2="149.31"/><line class="cls-1" x1="139.33" y1="145.64" x2="139.33" y2="146.86"/><line class="cls-1" x1="129.07" y1="140.94" x2="129.07" y2="139.71"/><line class="cls-1" x1="126.42" y1="137.57" x2="124.83" y2="138.49"/><line class="cls-1" x1="124.83" y1="138.49" x2="129.07" y2="140.94"/><line class="cls-1" x1="124.83" y1="137.26" x2="124.83" y2="138.49"/><line class="cls-1" x1="125.36" y1="137.57" x2="124.83" y2="137.26"/><line class="cls-1" x1="126.42" y1="133.28" x2="125.36" y2="133.89"/><line class="cls-1" x1="125.36" y1="133.89" x2="125.36" y2="137.57"/><line class="cls-1" x1="125.89" y1="132.97" x2="124.83" y2="133.58"/><line class="cls-1" x1="124.83" y1="133.58" x2="125.36" y2="133.89"/><line class="cls-1" x1="124.83" y1="132.36" x2="124.83" y2="133.58"/><line class="cls-1" x1="129.07" y1="135.42" x2="128.54" y2="135.73"/><line class="cls-1" x1="128.54" y1="135.73" x2="129.07" y2="136.04"/><line class="cls-1" x1="129.07" y1="139.71" x2="128.54" y2="139.41"/><line class="cls-1" x1="295.01" y1="240.42" x2="295.01" y2="239.81"/><line class="cls-1" x1="295.01" y1="239.81" x2="295.01" y2="229.59"/><line class="cls-1" x1="280.68" y1="232.15" x2="280.68" y2="231.53"/><line class="cls-1" x1="280.68" y1="231.53" x2="280.68" y2="221.32"/><line class="cls-1" x1="241.94" y1="209.78" x2="241.94" y2="209.17"/><line class="cls-1" x1="241.94" y1="209.17" x2="241.94" y2="198.95"/><line class="cls-1" x1="227.61" y1="201.51" x2="227.61" y2="200.89"/><line class="cls-1" x1="227.61" y1="200.89" x2="227.61" y2="190.68"/><line class="cls-1" x1="188.87" y1="179.14" x2="188.87" y2="178.52"/><line class="cls-1" x1="188.87" y1="178.52" x2="188.87" y2="168.31"/><line class="cls-1" x1="174.54" y1="170.86" x2="174.54" y2="170.25"/><line class="cls-1" x1="174.54" y1="170.25" x2="174.54" y2="160.04"/><line class="cls-1" x1="135.79" y1="148.5" x2="135.79" y2="147.88"/><line class="cls-1" x1="135.79" y1="147.88" x2="135.79" y2="137.67"/><line class="cls-1" x1="121.47" y1="140.22" x2="121.47" y2="139.61"/><line class="cls-1" x1="121.47" y1="139.61" x2="121.47" y2="129.4"/><line class="cls-1" x1="136.32" y1="179.14" x2="134.2" y2="177.91"/><line class="cls-1" x1="136.32" y1="180.36" x2="136.32" y2="179.75"/><line class="cls-1" x1="136.32" y1="179.75" x2="136.32" y2="179.14"/><line class="cls-1" x1="189.4" y1="209.78" x2="187.27" y2="208.55"/><line class="cls-1" x1="189.4" y1="211" x2="189.4" y2="210.39"/><line class="cls-1" x1="189.4" y1="210.39" x2="189.4" y2="209.78"/><line class="cls-1" x1="242.47" y1="240.42" x2="240.34" y2="239.19"/><line class="cls-1" x1="242.47" y1="241.64" x2="242.47" y2="241.03"/><line class="cls-1" x1="242.47" y1="241.03" x2="242.47" y2="240.42"/><line class="cls-1" x1="295.54" y1="271.06" x2="293.42" y2="269.83"/><line class="cls-1" x1="295.54" y1="272.28" x2="295.54" y2="271.67"/><line class="cls-1" x1="295.54" y1="271.67" x2="295.54" y2="271.06"/><line class="cls-1" x1="300.67" y1="275.25" x2="300.14" y2="275.55"/><line class="cls-1" x1="300.14" y1="275.55" x2="299.08" y2="276.17"/><line class="cls-1" x1="302.79" y1="273.41" x2="300.67" y2="272.18"/><line class="cls-1" x1="302.79" y1="274.63" x2="302.79" y2="274.02"/><line class="cls-1" x1="302.79" y1="274.02" x2="302.79" y2="273.41"/><line class="cls-1" x1="302.26" y1="278" x2="302.26" y2="277.39"/><line class="cls-1" x1="302.26" y1="277.39" x2="302.26" y2="274.33"/><line class="cls-1" x1="284.57" y1="267.79" x2="285.63" y2="267.18"/><line class="cls-1" x1="285.63" y1="267.18" x2="286.16" y2="266.87"/><line class="cls-1" x1="288.28" y1="265.03" x2="286.16" y2="263.81"/><line class="cls-1" x1="288.28" y1="266.26" x2="288.28" y2="265.65"/><line class="cls-1" x1="288.28" y1="265.65" x2="288.28" y2="265.03"/><line class="cls-1" x1="287.75" y1="269.63" x2="287.75" y2="269.02"/><line class="cls-1" x1="287.75" y1="269.02" x2="287.75" y2="265.95"/><line class="cls-1" x1="300.67" y1="236.95" x2="300.14" y2="237.25"/><line class="cls-1" x1="300.14" y1="237.25" x2="299.08" y2="237.86"/><line class="cls-1" x1="302.79" y1="235.11" x2="300.67" y2="233.88"/><line class="cls-1" x1="302.79" y1="236.33" x2="302.79" y2="235.72"/><line class="cls-1" x1="302.79" y1="235.72" x2="302.79" y2="235.11"/><line class="cls-1" x1="302.26" y1="239.7" x2="302.26" y2="239.09"/><line class="cls-1" x1="302.26" y1="239.09" x2="302.26" y2="236.03"/><line class="cls-1" x1="286.16" y1="228.57" x2="285.63" y2="228.88"/><line class="cls-1" x1="285.63" y1="228.88" x2="284.57" y2="229.49"/><line class="cls-1" x1="288.28" y1="226.73" x2="286.16" y2="225.51"/><line class="cls-1" x1="288.28" y1="227.96" x2="288.28" y2="227.35"/><line class="cls-1" x1="288.28" y1="227.35" x2="288.28" y2="226.73"/><line class="cls-1" x1="287.75" y1="231.33" x2="287.75" y2="230.72"/><line class="cls-1" x1="287.75" y1="230.72" x2="287.75" y2="227.65"/><line class="cls-1" x1="247.6" y1="244.6" x2="247.07" y2="244.91"/><line class="cls-1" x1="247.07" y1="244.91" x2="246.01" y2="245.52"/><line class="cls-1" x1="249.72" y1="242.77" x2="247.6" y2="241.54"/><line class="cls-1" x1="249.72" y1="243.99" x2="249.72" y2="243.38"/><line class="cls-1" x1="249.72" y1="243.38" x2="249.72" y2="242.77"/><line class="cls-1" x1="249.19" y1="247.36" x2="249.19" y2="246.75"/><line class="cls-1" x1="249.19" y1="246.75" x2="249.19" y2="243.69"/><line class="cls-1" x1="231.5" y1="237.15" x2="232.56" y2="236.54"/><line class="cls-1" x1="232.56" y1="236.54" x2="233.09" y2="236.23"/><line class="cls-1" x1="235.21" y1="234.39" x2="233.09" y2="233.17"/><line class="cls-1" x1="235.21" y1="235.62" x2="235.21" y2="235.01"/><line class="cls-1" x1="235.21" y1="235.01" x2="235.21" y2="234.39"/><line class="cls-1" x1="234.68" y1="238.99" x2="234.68" y2="238.38"/><line class="cls-1" x1="234.68" y1="238.38" x2="234.68" y2="235.31"/><line class="cls-1" x1="247.6" y1="206.31" x2="247.07" y2="206.61"/><line class="cls-1" x1="247.07" y1="206.61" x2="246.01" y2="207.22"/><line class="cls-1" x1="249.72" y1="204.47" x2="247.6" y2="203.24"/><line class="cls-1" x1="249.72" y1="205.69" x2="249.72" y2="205.08"/><line class="cls-1" x1="249.72" y1="205.08" x2="249.72" y2="204.47"/><line class="cls-1" x1="249.19" y1="209.06" x2="249.19" y2="208.45"/><line class="cls-1" x1="249.19" y1="208.45" x2="249.19" y2="205.39"/><line class="cls-1" x1="233.09" y1="197.93" x2="232.56" y2="198.24"/><line class="cls-1" x1="232.56" y1="198.24" x2="231.5" y2="198.85"/><line class="cls-1" x1="235.21" y1="196.09" x2="233.09" y2="194.87"/><line class="cls-1" x1="235.21" y1="197.32" x2="235.21" y2="196.7"/><line class="cls-1" x1="235.21" y1="196.7" x2="235.21" y2="196.09"/><line class="cls-1" x1="234.68" y1="200.69" x2="234.68" y2="200.07"/><line class="cls-1" x1="234.68" y1="200.07" x2="234.68" y2="197.01"/><line class="cls-1" x1="194.53" y1="213.96" x2="194" y2="214.27"/><line class="cls-1" x1="194" y1="214.27" x2="192.94" y2="214.88"/><line class="cls-1" x1="196.65" y1="212.13" x2="194.53" y2="210.9"/><line class="cls-1" x1="196.65" y1="213.35" x2="196.65" y2="212.74"/><line class="cls-1" x1="196.65" y1="212.74" x2="196.65" y2="212.13"/><line class="cls-1" x1="196.12" y1="216.72" x2="196.12" y2="216.11"/><line class="cls-1" x1="196.12" y1="216.11" x2="196.12" y2="213.05"/><line class="cls-1" x1="178.43" y1="206.51" x2="179.49" y2="205.9"/><line class="cls-1" x1="179.49" y1="205.9" x2="180.02" y2="205.59"/><line class="cls-1" x1="182.14" y1="203.75" x2="180.02" y2="202.53"/><line class="cls-1" x1="182.14" y1="204.98" x2="182.14" y2="204.37"/><line class="cls-1" x1="182.14" y1="204.37" x2="182.14" y2="203.75"/><line class="cls-1" x1="181.61" y1="208.35" x2="181.61" y2="207.74"/><line class="cls-1" x1="181.61" y1="207.74" x2="181.61" y2="204.67"/><line class="cls-1" x1="194.53" y1="175.66" x2="194" y2="175.97"/><line class="cls-1" x1="194" y1="175.97" x2="192.94" y2="176.58"/><line class="cls-1" x1="196.65" y1="173.82" x2="194.53" y2="172.6"/><line class="cls-1" x1="196.65" y1="175.05" x2="196.65" y2="174.44"/><line class="cls-1" x1="196.65" y1="174.44" x2="196.65" y2="173.82"/><line class="cls-1" x1="196.12" y1="178.42" x2="196.12" y2="177.81"/><line class="cls-1" x1="196.12" y1="177.81" x2="196.12" y2="174.74"/><line class="cls-1" x1="180.02" y1="167.29" x2="179.49" y2="167.6"/><line class="cls-1" x1="179.49" y1="167.6" x2="178.43" y2="168.21"/><line class="cls-1" x1="182.14" y1="165.45" x2="180.02" y2="164.22"/><line class="cls-1" x1="182.14" y1="166.68" x2="182.14" y2="166.06"/><line class="cls-1" x1="182.14" y1="166.06" x2="182.14" y2="165.45"/><line class="cls-1" x1="181.61" y1="170.05" x2="181.61" y2="169.43"/><line class="cls-1" x1="181.61" y1="169.43" x2="181.61" y2="166.37"/><line class="cls-1" x1="141.45" y1="183.32" x2="140.92" y2="183.63"/><line class="cls-1" x1="140.92" y1="183.63" x2="139.86" y2="184.24"/><line class="cls-1" x1="143.58" y1="181.49" x2="141.45" y2="180.26"/><line class="cls-1" x1="143.58" y1="182.71" x2="143.58" y2="182.1"/><line class="cls-1" x1="143.58" y1="182.1" x2="143.58" y2="181.49"/><line class="cls-1" x1="143.05" y1="186.08" x2="143.05" y2="185.47"/><line class="cls-1" x1="143.05" y1="185.47" x2="143.05" y2="182.41"/><line class="cls-1" x1="125.36" y1="175.87" x2="126.42" y2="175.25"/><line class="cls-1" x1="126.42" y1="175.25" x2="126.95" y2="174.95"/><line class="cls-1" x1="129.07" y1="173.11" x2="126.95" y2="171.88"/><line class="cls-1" x1="129.07" y1="174.34" x2="129.07" y2="173.72"/><line class="cls-1" x1="129.07" y1="173.72" x2="129.07" y2="173.11"/><line class="cls-1" x1="128.54" y1="177.71" x2="128.54" y2="177.1"/><line class="cls-1" x1="128.54" y1="177.1" x2="128.54" y2="174.03"/><line class="cls-1" x1="141.45" y1="145.02" x2="140.92" y2="145.33"/><line class="cls-1" x1="140.92" y1="145.33" x2="139.86" y2="145.94"/><line class="cls-1" x1="143.58" y1="143.18" x2="141.45" y2="141.96"/><line class="cls-1" x1="143.58" y1="144.41" x2="143.58" y2="143.8"/><line class="cls-1" x1="143.58" y1="143.8" x2="143.58" y2="143.18"/><line class="cls-1" x1="143.05" y1="147.78" x2="143.05" y2="147.17"/><line class="cls-1" x1="143.05" y1="147.17" x2="143.05" y2="144.1"/><line class="cls-1" x1="126.95" y1="136.65" x2="126.42" y2="136.96"/><line class="cls-1" x1="126.42" y1="136.96" x2="125.36" y2="137.57"/><line class="cls-1" x1="129.07" y1="134.81" x2="126.95" y2="133.58"/><line class="cls-1" x1="129.07" y1="136.04" x2="129.07" y2="135.42"/><line class="cls-1" x1="129.07" y1="135.42" x2="129.07" y2="134.81"/><line class="cls-1" x1="128.54" y1="139.41" x2="128.54" y2="138.79"/><line class="cls-1" x1="128.54" y1="138.79" x2="128.54" y2="135.73"/><line class="cls-1" x1="133.14" y1="177.3" x2="132.08" y2="176.69"/><line class="cls-1" x1="187.27" y1="208.55" x2="186.74" y2="208.25"/><line class="cls-1" x1="240.34" y1="239.19" x2="239.81" y2="238.89"/><line class="cls-1" x1="293.42" y1="269.83" x2="292.89" y2="269.53"/><line class="cls-1" x1="300.67" y1="272.18" x2="300.14" y2="271.87"/><line class="cls-1" x1="286.16" y1="263.81" x2="285.63" y2="263.5"/><line class="cls-1" x1="300.67" y1="233.88" x2="300.14" y2="233.58"/><line class="cls-1" x1="286.16" y1="225.51" x2="285.63" y2="225.2"/><line class="cls-1" x1="247.6" y1="241.54" x2="247.07" y2="241.23"/><line class="cls-1" x1="233.09" y1="233.17" x2="232.56" y2="232.86"/><line class="cls-1" x1="247.6" y1="203.24" x2="247.07" y2="202.94"/><line class="cls-1" x1="233.09" y1="194.87" x2="232.56" y2="194.56"/><line class="cls-1" x1="194.53" y1="210.9" x2="194" y2="210.59"/><line class="cls-1" x1="180.02" y1="202.53" x2="179.49" y2="202.22"/><line class="cls-1" x1="194.53" y1="172.6" x2="194" y2="172.29"/><line class="cls-1" x1="180.02" y1="164.22" x2="179.49" y2="163.92"/><line class="cls-1" x1="141.45" y1="180.26" x2="140.92" y2="179.95"/><line class="cls-1" x1="126.95" y1="171.88" x2="126.42" y2="171.58"/><line class="cls-1" x1="141.45" y1="141.96" x2="140.92" y2="141.65"/><line class="cls-1" x1="126.95" y1="133.58" x2="126.42" y2="133.28"/><line class="cls-1" x1="134.2" y1="177.91" x2="133.67" y2="177.61"/><line class="cls-1" x1="133.67" y1="177.61" x2="133.14" y2="177.3"/><line class="cls-1" x1="186.74" y1="208.25" x2="186.21" y2="207.94"/><line class="cls-1" x1="186.21" y1="207.94" x2="185.15" y2="207.33"/><line class="cls-1" x1="239.81" y1="238.89" x2="239.28" y2="238.58"/><line class="cls-1" x1="239.28" y1="238.58" x2="238.22" y2="237.97"/><line class="cls-1" x1="292.89" y1="269.53" x2="292.36" y2="269.22"/><line class="cls-1" x1="292.36" y1="269.22" x2="291.29" y2="268.61"/><line class="cls-1" x1="300.14" y1="271.87" x2="299.61" y2="271.57"/><line class="cls-1" x1="299.61" y1="271.57" x2="298.55" y2="270.96"/><line class="cls-1" x1="285.63" y1="263.5" x2="285.1" y2="263.19"/><line class="cls-1" x1="285.1" y1="263.19" x2="284.04" y2="262.58"/><line class="cls-1" x1="300.14" y1="233.58" x2="299.61" y2="233.27"/><line class="cls-1" x1="299.61" y1="233.27" x2="298.55" y2="232.66"/><line class="cls-1" x1="285.63" y1="225.2" x2="285.1" y2="224.89"/><line class="cls-1" x1="285.1" y1="224.89" x2="284.04" y2="224.28"/><line class="cls-1" x1="247.07" y1="241.23" x2="246.54" y2="240.93"/><line class="cls-1" x1="246.54" y1="240.93" x2="245.48" y2="240.32"/><line class="cls-1" x1="232.56" y1="232.86" x2="232.03" y2="232.55"/><line class="cls-1" x1="232.03" y1="232.55" x2="230.97" y2="231.94"/><line class="cls-1" x1="247.07" y1="202.94" x2="246.54" y2="202.63"/><line class="cls-1" x1="246.54" y1="202.63" x2="245.48" y2="202.02"/><line class="cls-1" x1="232.56" y1="194.56" x2="232.03" y2="194.25"/><line class="cls-1" x1="232.03" y1="194.25" x2="230.97" y2="193.64"/><line class="cls-1" x1="194" y1="210.59" x2="193.47" y2="210.29"/><line class="cls-1" x1="193.47" y1="210.29" x2="192.41" y2="209.68"/><line class="cls-1" x1="179.49" y1="202.22" x2="178.96" y2="201.91"/><line class="cls-1" x1="178.96" y1="201.91" x2="177.9" y2="201.3"/><line class="cls-1" x1="194" y1="172.29" x2="193.47" y2="171.99"/><line class="cls-1" x1="193.47" y1="171.99" x2="192.41" y2="171.37"/><line class="cls-1" x1="179.49" y1="163.92" x2="178.96" y2="163.61"/><line class="cls-1" x1="178.96" y1="163.61" x2="177.9" y2="163"/><line class="cls-1" x1="140.92" y1="179.95" x2="140.39" y2="179.65"/><line class="cls-1" x1="140.39" y1="179.65" x2="139.33" y2="179.04"/><line class="cls-1" x1="126.42" y1="171.58" x2="125.89" y2="171.27"/><line class="cls-1" x1="125.89" y1="171.27" x2="124.83" y2="170.66"/><line class="cls-1" x1="140.92" y1="141.65" x2="140.39" y2="141.35"/><line class="cls-1" x1="140.39" y1="141.35" x2="139.33" y2="140.73"/><line class="cls-1" x1="126.42" y1="133.28" x2="125.89" y2="132.97"/><line class="cls-1" x1="125.89" y1="132.97" x2="124.83" y2="132.36"/><line class="cls-1" x1="321.54" y1="290.77" x2="321.54" y2="255.13"/><line class="cls-1" x1="109.26" y1="132.56" x2="121.47" y2="139.61"/><line class="cls-1" x1="133.67" y1="146.66" x2="135.79" y2="147.88"/><line class="cls-1" x1="148" y1="154.93" x2="174.54" y2="170.25"/><line class="cls-1" x1="186.74" y1="177.3" x2="188.87" y2="178.52"/><line class="cls-1" x1="201.07" y1="185.57" x2="227.61" y2="200.89"/><line class="cls-1" x1="239.81" y1="207.94" x2="241.94" y2="209.17"/><line class="cls-1" x1="254.14" y1="216.21" x2="280.68" y2="231.53"/><line class="cls-1" x1="292.89" y1="238.58" x2="295.01" y2="239.81"/><line class="cls-1" x1="307.21" y1="246.85" x2="321.54" y2="255.13"/><line class="cls-1" x1="295.54" y1="271.67" x2="295.01" y2="271.98"/><line class="cls-1" x1="305.62" y1="247.77" x2="307.21" y2="246.85"/><line class="cls-1" x1="307.74" y1="245.93" x2="307.21" y2="246.24"/><line class="cls-1" x1="296.91" y1="227.99" x2="295.32" y2="228.91"/><line class="cls-1" x1="306.15" y1="246.85" x2="307.21" y2="246.24"/><line class="cls-1" x1="291.29" y1="239.5" x2="292.89" y2="238.58"/><line class="cls-1" x1="293.42" y1="237.66" x2="292.89" y2="237.97"/><line class="cls-1" x1="282.58" y1="219.71" x2="280.99" y2="220.63"/><line class="cls-1" x1="291.83" y1="238.58" x2="292.89" y2="237.97"/><line class="cls-1" x1="252.55" y1="217.13" x2="254.14" y2="216.21"/><line class="cls-1" x1="254.67" y1="215.29" x2="254.14" y2="215.6"/><line class="cls-1" x1="243.84" y1="197.34" x2="242.25" y2="198.26"/><line class="cls-1" x1="253.08" y1="216.21" x2="254.14" y2="215.6"/><line class="cls-1" x1="238.22" y1="208.86" x2="239.81" y2="207.94"/><line class="cls-1" x1="240.34" y1="207.02" x2="239.81" y2="207.33"/><line class="cls-1" x1="229.51" y1="189.07" x2="227.92" y2="189.99"/><line class="cls-1" x1="238.75" y1="207.94" x2="239.81" y2="207.33"/><line class="cls-1" x1="199.48" y1="186.49" x2="201.07" y2="185.57"/><line class="cls-1" x1="201.6" y1="184.65" x2="201.07" y2="184.96"/><line class="cls-1" x1="190.77" y1="166.7" x2="189.18" y2="167.62"/><line class="cls-1" x1="200.01" y1="185.57" x2="201.07" y2="184.96"/><line class="cls-1" x1="185.15" y1="178.22" x2="186.74" y2="177.3"/><line class="cls-1" x1="187.27" y1="176.38" x2="186.74" y2="176.69"/><line class="cls-1" x1="176.44" y1="158.43" x2="174.85" y2="159.35"/><line class="cls-1" x1="185.68" y1="177.3" x2="186.74" y2="176.69"/><line class="cls-1" x1="146.41" y1="155.85" x2="148" y2="154.93"/><line class="cls-1" x1="148.53" y1="154.01" x2="148" y2="154.32"/><line class="cls-1" x1="137.7" y1="136.06" x2="136.11" y2="136.98"/><line class="cls-1" x1="146.94" y1="154.93" x2="148" y2="154.32"/><line class="cls-1" x1="132.08" y1="147.58" x2="133.67" y2="146.66"/><line class="cls-1" x1="134.2" y1="145.74" x2="133.67" y2="146.04"/><line class="cls-1" x1="123.37" y1="127.79" x2="121.78" y2="128.71"/><line class="cls-1" x1="132.61" y1="146.66" x2="133.67" y2="146.04"/><line class="cls-1" x1="107.67" y1="133.48" x2="107.67" y2="169.13"/><line class="cls-1" x1="132.3" y1="182.99" x2="133.89" y2="182.07"/><line class="cls-1" x1="133.67" y1="177.61" x2="132.88" y2="178.07"/><line class="cls-1" x1="132.08" y1="177.91" x2="133.14" y2="177.3"/><line class="cls-1" x1="185.37" y1="213.63" x2="186.96" y2="212.71"/><line class="cls-1" x1="184.62" y1="213.56" x2="136.86" y2="185.98"/><line class="cls-1" x1="136.32" y1="179.75" x2="135.79" y2="180.06"/><line class="cls-1" x1="186.74" y1="208.25" x2="185.95" y2="208.71"/><line class="cls-1" x1="185.15" y1="208.55" x2="186.21" y2="207.94"/><line class="cls-1" x1="238.44" y1="244.27" x2="240.03" y2="243.35"/><line class="cls-1" x1="237.69" y1="244.2" x2="189.93" y2="216.62"/><line class="cls-1" x1="189.4" y1="210.39" x2="188.87" y2="210.7"/><line class="cls-1" x1="239.81" y1="238.89" x2="239.02" y2="239.35"/><line class="cls-1" x1="238.22" y1="239.19" x2="239.28" y2="238.58"/><line class="cls-1" x1="291.51" y1="274.91" x2="293.11" y2="273.99"/><line class="cls-1" x1="290.76" y1="274.84" x2="243" y2="247.26"/><line class="cls-1" x1="242.47" y1="241.03" x2="241.94" y2="241.34"/><line class="cls-1" x1="292.89" y1="269.53" x2="292.09" y2="269.99"/><line class="cls-1" x1="291.29" y1="269.83" x2="292.36" y2="269.22"/><line class="cls-1" x1="295.01" y1="271.98" x2="295.54" y2="272.28"/><polygon class="cls-2" points="321.62 291.27 320.02 292.18 296.14 278.4 295.75 278.09 295.39 277.61 295.16 277.05 295.08 276.56 295.08 272.47 295.61 272.17 295.61 271.56 293.49 270.33 293.49 273.8 293.41 274.21 293.18 274.49 291.58 275.41 291.23 275.47 290.83 275.33 243.07 247.76 242.68 247.44 242.32 246.97 242.09 246.41 242.01 245.92 242.01 241.83 242.54 241.53 242.54 240.91 240.42 239.69 240.42 243.16 240.34 243.57 240.11 243.85 238.51 244.77 238.16 244.83 237.76 244.69 190 217.12 189.61 216.8 189.25 216.32 189.01 215.77 188.94 215.28 188.94 211.19 189.47 210.89 189.47 210.27 187.35 209.05 187.35 212.52 187.27 212.93 187.03 213.21 185.44 214.13 185.08 214.19 184.69 214.05 136.93 186.48 136.54 186.16 136.18 185.68 135.94 185.13 135.87 184.64 135.87 180.55 136.4 180.25 136.4 179.63 134.27 178.41 134.27 181.88 134.2 182.29 133.96 182.57 132.37 183.49 132.01 183.55 131.62 183.41 107.74 169.62 107.74 133.98 109.33 133.06 121.54 140.11 121.54 129.89 121.61 129.49 121.85 129.21 123.44 128.28 123.8 128.22 124.19 128.36 133.21 133.57 133.6 133.88 133.96 134.36 134.2 134.91 134.27 135.41 134.27 146.23 133.74 146.54 133.74 147.15 135.87 148.38 135.87 138.16 135.94 137.76 136.18 137.48 137.77 136.56 138.13 136.49 138.52 136.63 147.54 141.84 147.93 142.15 148.29 142.63 148.53 143.19 148.61 143.68 148.61 154.5 148.07 154.81 148.07 155.43 174.61 170.75 174.61 160.53 174.68 160.13 174.92 159.85 176.51 158.93 176.87 158.86 177.26 159 186.28 164.21 186.67 164.52 187.03 165 187.27 165.55 187.35 166.05 187.35 176.88 186.81 177.18 186.81 177.79 188.94 179.02 188.94 168.8 189.01 168.4 189.25 168.12 190.84 167.2 191.2 167.13 191.59 167.27 200.61 172.48 201.01 172.79 201.36 173.28 201.6 173.83 201.68 174.32 201.68 185.15 201.15 185.45 201.15 186.07 227.68 201.39 227.68 191.17 227.76 190.77 227.99 190.49 229.58 189.57 229.94 189.5 230.33 189.64 239.36 194.85 239.75 195.16 240.11 195.64 240.34 196.19 240.42 196.69 240.42 207.52 239.89 207.82 239.89 208.43 242.01 209.66 242.01 199.45 242.09 199.04 242.32 198.76 243.91 197.84 244.27 197.78 244.66 197.91 253.69 203.12 254.08 203.44 254.44 203.91 254.67 204.47 254.75 204.96 254.75 215.79 254.22 216.09 254.22 216.71 280.75 232.03 280.75 221.81 280.83 221.41 281.06 221.13 282.65 220.21 283.01 220.14 283.4 220.28 292.43 225.49 292.82 225.8 293.18 226.28 293.41 226.84 293.49 227.33 293.49 238.16 292.96 238.46 292.96 239.07 295.08 240.3 295.08 230.09 295.16 229.68 295.39 229.4 296.98 228.48 297.34 228.41 297.73 228.56 306.76 233.76 307.15 234.08 307.51 234.56 307.74 235.11 307.82 235.6 307.82 246.43 307.29 246.74 307.29 247.35 321.62 255.62 321.62 291.27"/></svg>