<svg xmlns="http://www.w3.org/2000/svg" xmlns:xlink="http://www.w3.org/1999/xlink" width="500" height="500" viewBox = " 0 0 500 500" preserveAspectRatio="xMinYMin meet">
<rect id="background" x="0" y="0" width="500" height="500" style="fill:none; stroke:none;" />
<polyline id="017af7e5-9de7-426d-81d0-6e819301c1c0" points="179.9257 196.0493 181.1985 195.3145 322.6199 276.9641 322.6199 302.481 321.3471 303.2158 320.0743 303.9507 318.8015 304.6855 313.0032 301.3379 313.0032 298.3985 311.7304 299.1334 310.4576 299.8682 185.724 227.8532 185.724 224.9138 184.4512 225.6487 183.1784 226.3835 177.3801 223.0359 177.3801 197.519 178.6529 196.7842 179.9257 196.0493 "  class="cls-30449002" >  </polyline>
<polyline id="771c89fd-6946-4309-b80e-598db455ea3a" points="311.7304 299.1334 313.0032 298.3985 "  class="cls-1008689814" >  </polyline>
<polyline id="d8de1cf2-4b4e-4c4c-bf07-0bcf18728f1d" points="184.4512 225.6487 185.724 224.9138 "  class="cls-1008689814" >  </polyline>
<polyline id="95bd7ba4-d410-4607-a7e0-4db8394913c3" points="178.6529 196.7842 179.9257 196.0493 "  class="cls-1008689814" >  </polyline>
<polyline id="a8896bde-f981-4b3d-a751-244c742f1ad3" points="320.0743 278.4338 321.3471 277.699 "  class="cls-1008689814" >  </polyline>
<polyline id="9c271ff1-27b4-459b-bef2-a41c54ebfa65" points="320.0743 303.9507 321.3471 303.2158 "  class="cls-1008689814" >  </polyline>
<polyline id="2152b0d5-50d6-41ac-97aa-647e0b0a66b6" points="179.9257 196.0493 181.1985 195.3145 "  class="cls-1008689814" >  </polyline>
<polyline id="5b2a19ab-9f22-4174-9c5d-fe2679e7b786" points="321.3471 277.699 322.6199 276.9641 "  class="cls-1008689814" >  </polyline>
<polyline id="86fc1c80-1fa1-47ce-a7c7-0cd29a76b27e" points="181.1985 195.3145 322.6199 276.9641 "  class="cls-1008689814" >  </polyline>
<polyline id="cb4312fe-1103-4448-83f9-ce70dbabdd8a" points="321.3471 303.2158 322.6199 302.481 "  class="cls-1008689814" >  </polyline>
<polyline id="0959f311-e8e1-4761-a98c-9916d3d86ba0" points="322.6199 276.9641 322.6199 302.481 "  class="cls-1008689814" >  </polyline>
<polyline id="e392c3c5-21ae-4c73-a838-d3cd80737e03" points="310.4576 299.8682 185.724 227.8532 "  class="cls-1008689814" >  </polyline>
<polyline id="e25de26b-2e82-44bf-90b8-e90f387ce8d4" points="310.4576 299.8682 311.7304 299.1334 "  class="cls-1008689814" >  </polyline>
<polyline id="a702bcb2-992b-41a2-ba1c-661f8671acb0" points="185.724 218.8296 186.1483 218.5846 "  class="cls-1008689814" >  </polyline>
<polyline id="e392d0f1-b6c6-407e-9086-8c3c99c4c3a0" points="185.724 218.8296 186.1483 219.0745 "  class="cls-1008689814" >  </polyline>
<polyline id="a5468901-3c0d-48a7-b5f7-cc8fda7272c3" points="182.7541 216.1351 182.7541 217.1149 "  class="cls-1008689814" >  </polyline>
<polyline id="217f0ae7-cfc4-425a-b352-4e846240fd31" points="182.7541 217.1149 183.6033 216.6247 "  class="cls-1008689814" >  </polyline>
<polyline id="5ea08d37-8260-4007-9989-40b4587e9dd0" points="182.7541 217.1149 183.1784 217.3599 "  class="cls-1008689814" >  </polyline>
<polyline id="407d6643-a8cd-48dd-ab88-34b1068ce72c" points="183.1784 217.3599 184.0277 216.8695 "  class="cls-1008689814" >  </polyline>
<polyline id="037adc62-4552-4d9e-8147-8262fb715024" points="183.1784 226.3835 184.4512 225.6487 "  class="cls-1008689814" >  </polyline>
<polyline id="980acf0a-df0b-4774-9cc6-21f2f629f162" points="183.1784 226.3835 177.3802 223.0359 "  class="cls-1008689814" >  </polyline>
<polyline id="e91b837d-036f-402e-9b3d-e6ca75b2d237" points="177.3802 223.0359 177.3801 197.519 "  class="cls-1008689814" >  </polyline>
<polyline id="db7f74c3-5505-464e-8a57-ccb1aa0acba5" points="177.3801 197.519 178.6529 196.7842 "  class="cls-1008689814" >  </polyline>
<polyline id="1f53304f-f61a-4776-8883-34a862f146ee" points="318.8015 279.1687 320.0743 278.4338 "  class="cls-1008689814" >  </polyline>
<polyline id="35b3f18e-06a8-4c27-b948-d711c8145919" points="318.8015 304.6855 320.0743 303.9507 "  class="cls-1008689814" >  </polyline>
<polyline id="dab2233d-2e72-40dd-b4dc-b140d3684d79" points="318.8015 304.6855 313.0032 301.3379 "  class="cls-1008689814" >  </polyline>
<polyline id="2c790c24-2940-4213-9748-b7833c1c2c2c" points="313.0032 292.3143 313.4278 292.0691 "  class="cls-1008689814" >  </polyline>
<polyline id="e7df21c2-a065-4204-8d62-0431abedbfcd" points="313.0032 292.3143 313.4275 292.5592 "  class="cls-1008689814" >  </polyline>
<polyline id="492c12f4-6376-4410-8f69-ce2a2936fbbd" points="310.0334 289.6198 310.0334 290.5996 "  class="cls-1008689814" >  </polyline>
<polyline id="40b6c3ee-f4f5-4244-bb53-a9bd5065204e" points="310.0334 290.5996 310.8821 290.1096 "  class="cls-1008689814" >  </polyline>
<polyline id="e8f0d618-761a-41b9-a625-bc1b3f204871" points="310.0334 290.5996 310.4576 290.8446 "  class="cls-1008689814" >  </polyline>
<polyline id="caf76307-b431-4429-897d-65380736c1d0" points="310.4576 290.8446 311.3065 290.3545 "  class="cls-1008689814" >  </polyline>
<polyline id="5a8b1446-9e30-4c4c-843c-ba7e8bdf578c" points="185.724 217.8498 185.724 218.8296 "  class="cls-1008689814" >  </polyline>
<polyline id="549cd66d-7e82-44f7-bceb-1a9ebc738acf" points="313.0032 291.3345 313.0032 292.3143 "  class="cls-1008689814" >  </polyline>
<polyline id="c6666024-56fa-404e-91d5-2ce15a64edb9" points="321.3471 277.699 321.3471 303.2158 "  class="cls-1008689814" >  </polyline>
<polyline id="fdc28877-e8aa-4e1b-a0f0-9127e289b944" points="311.7304 290.5996 311.7304 299.1334 "  class="cls-1008689814" >  </polyline>
<polyline id="9913307f-ec70-4e8b-a700-edf221f067a1" points="179.9257 196.0493 321.3471 277.699 "  class="cls-1008689814" >  </polyline>
<polyline id="cb89c76d-b2cb-425f-8ace-cf8c099b03ce" points="185.724 227.8532 185.724 218.8296 "  class="cls-1008689814" >  </polyline>
<polyline id="a0b12b4c-aae4-413b-b5a0-eb1b5cae8f79" points="186.1483 219.0745 186.1483 218.0947 "  class="cls-1008689814" >  </polyline>
<polyline id="0d1c017c-cb9b-4b7d-a024-7a6970410a09" points="186.1483 218.0947 182.7541 216.1351 "  class="cls-1008689814" >  </polyline>
<polyline id="2cc64980-16e9-4e97-a2f9-e44a3ba13479" points="183.1784 217.3599 183.1784 226.3835 "  class="cls-1008689814" >  </polyline>
<polyline id="cb761d62-f0f8-41f0-b58f-23a4542b2b28" points="184.4512 217.1149 184.4512 225.6487 "  class="cls-1008689814" >  </polyline>
<polyline id="2a305ea1-02ba-4016-9fec-6a23b9b2b303" points="177.3801 197.519 318.8015 279.1687 "  class="cls-1008689814" >  </polyline>
<polyline id="67bc87b7-19b9-4a9c-8bc2-9e49a496b34f" points="178.6529 196.7842 320.0743 278.4338 "  class="cls-1008689814" >  </polyline>
<polyline id="4e8ce295-5751-4341-8639-9d917a9945d6" points="318.8015 279.1687 318.8015 304.6855 "  class="cls-1008689814" >  </polyline>
<polyline id="26724985-79a5-4b36-b9ce-84900e1027aa" points="320.0743 278.4338 320.0743 303.9507 "  class="cls-1008689814" >  </polyline>
<polyline id="dea30030-77c2-48c8-a56c-ce0a69141310" points="313.0032 301.3379 313.0032 292.3143 "  class="cls-1008689814" >  </polyline>
<polyline id="757ae359-2afd-4eb9-a488-44239b9c0f61" points="313.4275 292.5592 313.4275 291.5794 "  class="cls-1008689814" >  </polyline>
<polyline id="bb2ad410-cd7c-4684-b128-ccc090fddd7d" points="313.4275 291.5794 310.0334 289.6198 "  class="cls-1008689814" >  </polyline>
<polyline id="6a4adef8-adba-4896-a8e6-cd4ecfd93ec3" points="310.4576 290.8446 310.4576 299.8682 "  class="cls-1008689814" >  </polyline>
<defs>
<style> .cls-30449002{stroke:#000000 ; stroke-opacity:1; stroke-width:1; stroke-linecap:round; stroke-linejoin:round; fill:none; } </style>
<style> .cls-1008689814{stroke:#000000 ; stroke-opacity:1; stroke-width:0.3; stroke-linecap:round; stroke-linejoin:round; fill:none; } </style>
</defs>
</svg>