  0
SECTION
  2
HEADER
  9
$ACADVER
  1
AC1014
  9
$ACADMAINTVER
 70
     9
  9
$DWGCODEPAGE
  3
ANSI_1252
  9
$INSBASE
 10
0.0
 20
0.0
 30
0.0
  9
$EXTMIN
 10
-29.51888476929162
 20
0.0
 30
-0.0000002511302797
  9
$EXTMAX
 10
22235.69850653505
 20
23679.27570363466
 30
0.0
  9
$LIMMIN
 10
0.0
 20
0.0
  9
$LIMMAX
 10
12.0
 20
9.0
  9
$ORTHOMODE
 70
     0
  9
$REGENMODE
 70
     1
  9
$FILLMODE
 70
     1
  9
$QTEXTMODE
 70
     0
  9
$MIRRTEXT
 70
     1
  9
$DRAGMODE
 70
     2
  9
$LTSCALE
 40
1.0
  9
$OSMODE
 70
    37
  9
$ATTMODE
 70
     1
  9
$TEXTSIZE
 40
0.2
  9
$TRACEWID
 40
0.05
  9
$TEXTSTYLE
  7
STANDARD
  9
$CLAYER
  8
0
  9
$CELTYPE
  6
BYLAYER
  9
$CECOLOR
 62
   256
  9
$CELTSCALE
 40
1.0
  9
$DELOBJ
 70
     1
  9
$DISPSILH
 70
     0
  9
$DIMSCALE
 40
1.0
  9
$DIMASZ
 40
0.18
  9
$DIMEXO
 40
0.0625
  9
$DIMDLI
 40
0.38
  9
$DIMRND
 40
0.0
  9
$DIMDLE
 40
0.0
  9
$DIMEXE
 40
0.18
  9
$DIMTP
 40
0.0
  9
$DIMTM
 40
0.0
  9
$DIMTXT
 40
0.18
  9
$DIMCEN
 40
0.09
  9
$DIMTSZ
 40
0.0
  9
$DIMTOL
 70
     0
  9
$DIMLIM
 70
     0
  9
$DIMTIH
 70
     1
  9
$DIMTOH
 70
     1
  9
$DIMSE1
 70
     0
  9
$DIMSE2
 70
     0
  9
$DIMTAD
 70
     0
  9
$DIMZIN
 70
     0
  9
$DIMBLK
  1

  9
$DIMASO
 70
     1
  9
$DIMSHO
 70
     1
  9
$DIMPOST
  1

  9
$DIMAPOST
  1

  9
$DIMALT
 70
     0
  9
$DIMALTD
 70
     2
  9
$DIMALTF
 40
25.4
  9
$DIMLFAC
 40
1.0
  9
$DIMTOFL
 70
     0
  9
$DIMTVP
 40
0.0
  9
$DIMTIX
 70
     0
  9
$DIMSOXD
 70
     0
  9
$DIMSAH
 70
     0
  9
$DIMBLK1
  1

  9
$DIMBLK2
  1

  9
$DIMSTYLE
  2
STANDARD_ACAD
  9
$DIMCLRD
 70
     0
  9
$DIMCLRE
 70
     0
  9
$DIMCLRT
 70
     0
  9
$DIMTFAC
 40
1.0
  9
$DIMGAP
 40
0.09
  9
$DIMJUST
 70
     0
  9
$DIMSD1
 70
     0
  9
$DIMSD2
 70
     0
  9
$DIMTOLJ
 70
     1
  9
$DIMTZIN
 70
     0
  9
$DIMALTZ
 70
     0
  9
$DIMALTTZ
 70
     0
  9
$DIMFIT
 70
     5
  9
$DIMUPT
 70
     0
  9
$DIMUNIT
 70
     2
  9
$DIMDEC
 70
     4
  9
$DIMTDEC
 70
     4
  9
$DIMALTU
 70
     2
  9
$DIMALTTD
 70
     2
  9
$DIMTXSTY
  7
STANDARD
  9
$DIMAUNIT
 70
     0
  9
$LUNITS
 70
     2
  9
$LUPREC
 70
     3
  9
$SKETCHINC
 40
0.1
  9
$FILLETRAD
 40
0.0
  9
$AUNITS
 70
     0
  9
$AUPREC
 70
     0
  9
$MENU
  1
.
  9
$ELEVATION
 40
0.0
  9
$PELEVATION
 40
0.0
  9
$THICKNESS
 40
0.0
  9
$LIMCHECK
 70
     0
  9
$CHAMFERA
 40
0.0
  9
$CHAMFERB
 40
0.0
  9
$CHAMFERC
 40
0.0
  9
$CHAMFERD
 40
0.0
  9
$SKPOLY
 70
     0
  9
$TDCREATE
 40
2459619.47745919
  9
$TDUPDATE
 40
2459619.477506863
  9
$TDINDWG
 40
0.0000000116
  9
$TDUSRTIMER
 40
0.0000000116
  9
$USRTIMER
 70
     1
  9
$ANGBASE
 50
0.0
  9
$ANGDIR
 70
     0
  9
$PDMODE
 70
     0
  9
$PDSIZE
 40
0.0
  9
$PLINEWID
 40
0.0
  9
$COORDS
 70
     1
  9
$SPLFRAME
 70
     0
  9
$SPLINETYPE
 70
     6
  9
$SPLINESEGS
 70
     8
  9
$ATTDIA
 70
     0
  9
$ATTREQ
 70
     1
  9
$HANDLING
 70
     1
  9
$HANDSEED
  5
317
  9
$SURFTAB1
 70
     6
  9
$SURFTAB2
 70
     6
  9
$SURFTYPE
 70
     6
  9
$SURFU
 70
     6
  9
$SURFV
 70
     6
  9
$UCSNAME
  2

  9
$UCSORG
 10
0.0
 20
0.0
 30
0.0
  9
$UCSXDIR
 10
1.0
 20
0.0
 30
0.0
  9
$UCSYDIR
 10
0.0
 20
1.0
 30
0.0
  9
$PUCSNAME
  2

  9
$PUCSORG
 10
0.0
 20
0.0
 30
0.0
  9
$PUCSXDIR
 10
1.0
 20
0.0
 30
0.0
  9
$PUCSYDIR
 10
0.0
 20
1.0
 30
0.0
  9
$USERI1
 70
     0
  9
$USERI2
 70
     0
  9
$USERI3
 70
     0
  9
$USERI4
 70
     0
  9
$USERI5
 70
     0
  9
$USERR1
 40
0.0
  9
$USERR2
 40
0.0
  9
$USERR3
 40
0.0
  9
$USERR4
 40
0.0
  9
$USERR5
 40
0.0
  9
$WORLDVIEW
 70
     1
  9
$SHADEDGE
 70
     3
  9
$SHADEDIF
 70
    70
  9
$TILEMODE
 70
     1
  9
$MAXACTVP
 70
    64
  9
$PINSBASE
 10
0.0
 20
0.0
 30
0.0
  9
$PLIMCHECK
 70
     0
  9
$PEXTMIN
 10
1.000000000000000E+20
 20
1.000000000000000E+20
 30
1.000000000000000E+20
  9
$PEXTMAX
 10
-1.000000000000000E+20
 20
-1.000000000000000E+20
 30
-1.000000000000000E+20
  9
$PLIMMIN
 10
0.0
 20
0.0
  9
$PLIMMAX
 10
12.0
 20
9.0
  9
$UNITMODE
 70
     0
  9
$VISRETAIN
 70
     1
  9
$PLINEGEN
 70
     0
  9
$PSLTSCALE
 70
     1
  9
$TREEDEPTH
 70
  3020
  9
$PICKSTYLE
 70
     1
  9
$CMLSTYLE
  2
STANDARD
  9
$CMLJUST
 70
     0
  9
$CMLSCALE
 40
1.0
  9
$PROXYGRAPHICS
 70
     1
  9
$MEASUREMENT
 70
     1
  0
ENDSEC
  0
SECTION
  2
CLASSES
  0
CLASS
  1
ACDBDICTIONARYWDFLT
  2
AcDbDictionaryWithDefault
  3
ObjectDBX Classes
 90
        0
280
     0
281
     0
  0
CLASS
  1
VISUALSTYLE
  2
AcDbVisualStyle
  3
ObjectDBX Classes
 90
     4095
280
     0
281
     0
  0
CLASS
  1
MATERIAL
  2
AcDbMaterial
  3
ObjectDBX Classes
 90
     1153
280
     0
281
     0
  0
CLASS
  1
SCALE
  2
AcDbScale
  3
ObjectDBX Classes
 90
     1153
280
     0
281
     0
  0
CLASS
  1
TABLESTYLE
  2
AcDbTableStyle
  3
ObjectDBX Classes
 90
     4095
280
     0
281
     0
  0
CLASS
  1
MLEADERSTYLE
  2
AcDbMLeaderStyle
  3
ACDB_MLEADERSTYLE_CLASS
 90
     4095
280
     0
281
     0
  0
CLASS
  1
SUN
  2
AcDbSun
  3
SCENEOE
 90
     1153
280
     0
281
     0
  0
CLASS
  1
DICTIONARYVAR
  2
AcDbDictionaryVar
  3
ObjectDBX Classes
 90
        0
280
     0
281
     0
  0
CLASS
  1
XRECORD
  2
AcDbXrecord
  3
ObjectDBX Classes
 90
        0
280
     0
281
     0
  0
CLASS
  1
LWPOLYLINE
  2
AcDbPolyline
  3
ObjectDBX Classes
 90
        0
280
     0
281
     1
  0
CLASS
  1
HATCH
  2
AcDbHatch
  3
ObjectDBX Classes
 90
        0
280
     0
281
     1
  0
CLASS
  1
ACDBPLACEHOLDER
  2
AcDbPlaceHolder
  3
ObjectDBX Classes
 90
        0
280
     0
281
     0
  0
CLASS
  1
LAYOUT
  2
AcDbLayout
  3
ObjectDBX Classes
 90
        0
280
     0
281
     0
  0
ENDSEC
  0
SECTION
  2
TABLES
  0
TABLE
  2
VPORT
  5
8
102
{ACAD_XDICTIONARY
360
30C
102
}
330
0
100
AcDbSymbolTable
 70
     1
  0
VPORT
  5
29
330
8
100
AcDbSymbolTableRecord
100
AcDbViewportTableRecord
  2
*ACTIVE
 70
     0
 10
0.0
 20
0.0
 11
1.0
 21
1.0
 12
10.42990654205607
 22
4.5
 13
0.0
 23
0.0
 14
0.5
 24
0.5
 15
0.5
 25
0.5
 16
0.0
 26
0.0
 36
1.0
 17
0.0
 27
0.0
 37
0.0
 40
9.0
 41
1.972972972850329
 42
50.0
 43
0.0
 44
0.0
 50
0.0
 51
0.0
 71
     0
 72
   100
 73
     1
 74
     3
 75
     0
 76
     0
 77
     0
 78
     0
  0
ENDTAB
  0
TABLE
  2
LTYPE
  5
5
330
0
100
AcDbSymbolTable
 70
     1
  0
LTYPE
  5
14
330
5
100
AcDbSymbolTableRecord
100
AcDbLinetypeTableRecord
  2
BYBLOCK
 70
     0
  3

 72
    65
 73
     0
 40
0.0
  0
LTYPE
  5
15
330
5
100
AcDbSymbolTableRecord
100
AcDbLinetypeTableRecord
  2
BYLAYER
 70
     0
  3

 72
    65
 73
     0
 40
0.0
  0
LTYPE
  5
16
330
5
100
AcDbSymbolTableRecord
100
AcDbLinetypeTableRecord
  2
CONTINUOUS
 70
     0
  3
Solid line
 72
    65
 73
     0
 40
0.0
  0
ENDTAB
  0
TABLE
  2
LAYER
  5
2
330
0
100
AcDbSymbolTable
 70
     6
  0
LAYER
  5
10
330
2
100
AcDbSymbolTableRecord
100
AcDbLayerTableRecord
  2
0
 70
     0
 62
     7
  6
CONTINUOUS
  0
LAYER
  5
5F
330
2
100
AcDbSymbolTableRecord
100
AcDbLayerTableRecord
  2
DONOTCUT
 70
     0
 62
     7
  6
CONTINUOUS
  0
LAYER
  5
63
330
2
100
AcDbSymbolTableRecord
100
AcDbLayerTableRecord
  2
4_ANYTOOL_CUTTHROUGH_OUTSI
 70
     0
 62
     5
  6
CONTINUOUS
  0
LAYER
  5
17E
330
2
100
AcDbSymbolTableRecord
100
AcDbLayerTableRecord
  2
1_ANYTOOL_1MMDEEP_LABELS_S
 70
     0
 62
     2
  6
CONTINUOUS
  0
LAYER
  5
182
330
2
100
AcDbSymbolTableRecord
100
AcDbLayerTableRecord
  2
3_ANYTOOL_CUTTHROUGH_INSID
 70
     0
 62
     4
  6
CONTINUOUS
  0
LAYER
  5
2D4
330
2
100
AcDbSymbolTableRecord
100
AcDbLayerTableRecord
  2
0_SHEET_SPRUCEPLY_2440X122
 70
     0
 62
     1
  6
CONTINUOUS
  0
ENDTAB
  0
TABLE
  2
STYLE
  5
3
330
0
100
AcDbSymbolTable
 70
     3
  0
STYLE
  5
11
330
3
100
AcDbSymbolTableRecord
100
AcDbTextStyleTableRecord
  2
STANDARD
 70
     0
 40
0.0
 41
1.0
 50
0.0
 71
     0
 42
0.2
  3
txt
  4

  0
STYLE
  5
60
330
3
100
AcDbSymbolTableRecord
100
AcDbTextStyleTableRecord
  2
ARIAL_REGULAR
 70
     0
 40
0.0
 41
1.0
 50
0.0
 71
     0
 42
0.2
  3

  4

1001
ACAD
1000
Arial
1071
      256
  0
STYLE
  5
17F
330
3
100
AcDbSymbolTableRecord
100
AcDbTextStyleTableRecord
  2
MONOTXT_REGULAR
 70
     0
 40
0.0
 41
1.0
 50
0.0
 71
     0
 42
0.2
  3

  4

1001
ACAD
1000
Monotxt
1071
      256
  0
ENDTAB
  0
TABLE
  2
VIEW
  5
6
330
0
100
AcDbSymbolTable
 70
     0
  0
ENDTAB
  0
TABLE
  2
UCS
  5
7
330
0
100
AcDbSymbolTable
 70
     0
  0
ENDTAB
  0
TABLE
  2
APPID
  5
9
330
0
100
AcDbSymbolTable
 70
     3
  0
APPID
  5
12
330
9
100
AcDbSymbolTableRecord
100
AcDbRegAppTableRecord
  2
ACAD
 70
     0
  0
APPID
  5
5E
330
9
100
AcDbSymbolTableRecord
100
AcDbRegAppTableRecord
  2
RHINO
 70
     0
  0
APPID
  5
316
330
9
100
AcDbSymbolTableRecord
100
AcDbRegAppTableRecord
  2
ACAD_MLEADERVER
 70
     0
  0
ENDTAB
  0
TABLE
  2
DIMSTYLE
  5
A
330
0
100
AcDbSymbolTable
 70
     1
  0
DIMSTYLE
105
27
330
A
100
AcDbSymbolTableRecord
100
AcDbDimStyleTableRecord
  2
STANDARD_ACAD
 70
     0
  3

  4

  5

  6

  7

 40
1.0
 41
0.18
 42
0.0625
 43
0.38
 44
0.18
 45
0.0
 46
0.0
 47
0.0
 48
0.0
140
0.18
141
0.09
142
0.0
143
25.4
144
1.0
145
0.0
146
1.0
147
0.09
 71
     0
 72
     0
 73
     1
 74
     1
 75
     0
 76
     0
 77
     0
 78
     0
170
     0
171
     2
172
     0
173
     0
174
     0
175
     0
176
     0
177
     0
178
     0
270
     2
271
     4
272
     4
273
     2
274
     2
340
11
275
     0
280
     0
281
     0
282
     0
283
     1
284
     0
285
     0
286
     0
287
     3
288
     0
  0
ENDTAB
  0
TABLE
  2
BLOCK_RECORD
  5
1
330
0
100
AcDbSymbolTable
 70
     0
  0
BLOCK_RECORD
  5
1F
330
1
100
AcDbSymbolTableRecord
100
AcDbBlockTableRecord
  2
*MODEL_SPACE
  0
BLOCK_RECORD
  5
1B
330
1
100
AcDbSymbolTableRecord
100
AcDbBlockTableRecord
  2
*PAPER_SPACE
  0
ENDTAB
  0
ENDSEC
  0
SECTION
  2
BLOCKS
  0
BLOCK
  5
20
330
1F
100
AcDbEntity
  8
0
100
AcDbBlockBegin
  2
*MODEL_SPACE
 70
     0
 10
0.0
 20
0.0
 30
0.0
  3
*MODEL_SPACE
  1

  0
ENDBLK
  5
21
330
1F
100
AcDbEntity
  8
0
100
AcDbBlockEnd
  0
BLOCK
  5
1C
330
1B
100
AcDbEntity
 67
     1
  8
0
100
AcDbBlockBegin
  2
*PAPER_SPACE
 70
     0
 10
0.0
 20
0.0
 30
0.0
  3
*PAPER_SPACE
  1

  0
ENDBLK
  5
1D
330
1B
100
AcDbEntity
 67
     1
  8
0
100
AcDbBlockEnd
  0
ENDSEC
  0
SECTION
  2
ENTITIES
  0
MTEXT
  5
61
330
1F
100
AcDbEntity
  8
DONOTCUT
100
AcDbMText
 10
-29.51888476929162
 20
23679.27570363466
 30
0.0
 40
250.0
 41
12895.38043478261
 71
     1
 72
     1
  3
{\fArial;WIKIHOUSE SKYLARK BLOCKS}\P{\fArial;CNC MANUFACTURING FILES}\P{\fArial;WIKIHOUSE SKYLARK SYSTEM v0.1.0 (www.wikihouse.cc)}\P{\fArial;Developed by Open Systems Lab}\P\P{\fArial;CC-BY-SA 4.0}\P{\fArial;GENERAL RELEASE v0.1.0}\P{\fArial;ISSUED
  3
: 21/01/2022}\P\P{\fArial;BY USING THIS INFORMATION YOU AGREE }\P{\fArial;TO THE FULL WIKIHOUSE TERMS OF USE:}\P{\fArial;https://www.wikihouse.cc/Terms-of-Use}\P\P{\fArial;WikiHouse information and files are shared }{\fArial;‘as is}{\fArial;’, witho
  3
ut warranties, guarantees }\P{\fArial;or certifications of any kind, express or implied. This includes, without limitation, }\P{\fArial;warranties that the content is accurate, complete, free of defects, fit for a particular }\P{\fArial;purpose or n
  3
on-infringing in relation to the use of WikiHouse information or the }\P{\fArial;results of such use. You are wholly responsible for checking WikiHouse }\P{\fArial;information and for using WikiHouse information in a safe way, and for satisfying }\P
  3
{\fArial;yourself that you meet all relevant regulations, including planning regulations, }\P{\fArial;building codes and health & safety legislation; as well as for working with }\P{\fArial;appropriate equipment and materials and appropriately compe
  1
tent persons. Every }\P{\fArial;project should always be checked by a structural engineer. For more specific }\P{\fArial;advice, the End User should engage relevant qualified professionals or competent }\P{\fArial;persons.}\P
  7
ARIAL_REGULAR
1001
ACAD
1000
ACAD_MTEXT_DEFINED_HEIGHT_BEGIN
1070
    46
1040
9773.369565217392
1000
ACAD_MTEXT_DEFINED_HEIGHT_END
  0
MTEXT
  5
62
330
1F
100
AcDbEntity
  8
DONOTCUT
100
AcDbMText
 10
-29.51888476929162
 20
13042.05652182333
 30
0.0
 40
150.0
 41
22265.21739130434
 71
     1
 72
     1
  3
{\fArial;CNC Information:}\P\P{\fArial;All geometry have tolerance offsets pre-applied for manufacture. 'Dog-bone' pockets have been added on}\P{\fArial;internal corners to mitigate any filleting caused by router bit. Follow the layer information be
  3
low for}\P{\fArial;guidance on recommended settings.}\P\P\P{\fArial;Layer Information:}\P\P{\fArial;DONOTCUT: Information for instruction purposes only}\P\P{\fArial;0_SHEET_SPRUCEPLY_2440X1220X18: Plywood material boundary for reference}\P\P{\fArial
  3
;1_ANYTOOL_1MMDEEP_LABELS: Text labels, convert to curves and engrave at 1mm depth}\P\P{\fArial;2_ANYTOOL_1MMDEEP_SCREWMARKS: Marker 'dinks' for nails/screws during assembly. Pre-mark using 2-3mm bit}\P\P{\fArial;3_ANYTOOL_CUTTHROUGH_INSIDE: Interna
  1
l slots, cut through inside line}\P\P{\fArial;4_ANYTOOL_CUTTHROUGH_OUTSIDE: External profile of parts, cut through outside line}\P\P{\fArial;5_ANYTOOL_HALF_MILL_9MM_INSIDE: Mill out area to 9MM depth}
  7
ARIAL_REGULAR
1001
ACAD
1000
ACAD_MTEXT_DEFINED_HEIGHT_BEGIN
1070
    46
1040
5144.021739130435
1000
ACAD_MTEXT_DEFINED_HEIGHT_END
  0
POLYLINE
  5
64
330
1F
100
AcDbEntity
  8
4_ANYTOOL_CUTTHROUGH_OUTSI
100
AcDb2dPolyline
 66
     1
 10
0.0
 20
0.0
 30
0.0
 70
     1
  0
VERTEX
  5
65
330
64
100
AcDbEntity
  8
4_ANYTOOL_CUTTHROUGH_OUTSI
100
AcDbVertex
100
AcDb2dVertex
 10
4633.159943183717
 20
3349.614516282738
 30
0.0
 42
0.4142135623716442
  0
VERTEX
  5
66
330
64
100
AcDbEntity
  8
4_ANYTOOL_CUTTHROUGH_OUTSI
100
AcDbVertex
100
AcDb2dVertex
 10
4621.409943183717
 20
3337.864516282738
 30
0.0
  0
VERTEX
  5
67
330
64
100
AcDbEntity
  8
4_ANYTOOL_CUTTHROUGH_OUTSI
100
AcDbVertex
100
AcDb2dVertex
 10
4621.40994318372
 20
3222.864516284404
 30
0.0
 42
0.4142135623748116
  0
VERTEX
  5
68
330
64
100
AcDbEntity
  8
4_ANYTOOL_CUTTHROUGH_OUTSI
100
AcDbVertex
100
AcDb2dVertex
 10
4633.159943183717
 20
3211.11451628439
 30
0.0
  0
VERTEX
  5
69
330
64
100
AcDbEntity
  8
4_ANYTOOL_CUTTHROUGH_OUTSI
100
AcDbVertex
100
AcDb2dVertex
 10
4672.909943183371
 20
3211.114516284382
 30
0.0
  0
VERTEX
  5
6A
330
64
100
AcDbEntity
  8
4_ANYTOOL_CUTTHROUGH_OUTSI
100
AcDbVertex
100
AcDb2dVertex
 10
4672.909943183375
 20
3217.11451628439
 30
0.0
  0
VERTEX
  5
6B
330
64
100
AcDbEntity
  8
4_ANYTOOL_CUTTHROUGH_OUTSI
100
AcDbVertex
100
AcDb2dVertex
 10
4685.409943183375
 20
3217.11451628439
 30
0.0
  0
VERTEX
  5
6C
330
64
100
AcDbEntity
  8
4_ANYTOOL_CUTTHROUGH_OUTSI
100
AcDbVertex
100
AcDb2dVertex
 10
4685.409943183357
 20
3168.614516284404
 30
0.0
  0
VERTEX
  5
6D
330
64
100
AcDbEntity
  8
4_ANYTOOL_CUTTHROUGH_OUTSI
100
AcDbVertex
100
AcDb2dVertex
 10
4672.909943183357
 20
3168.614516284419
 30
0.0
  0
VERTEX
  5
6E
330
64
100
AcDbEntity
  8
4_ANYTOOL_CUTTHROUGH_OUTSI
100
AcDbVertex
100
AcDb2dVertex
 10
4672.90994318336
 20
3174.614516284419
 30
0.0
  0
VERTEX
  5
6F
330
64
100
AcDbEntity
  8
4_ANYTOOL_CUTTHROUGH_OUTSI
100
AcDbVertex
100
AcDb2dVertex
 10
4633.159943183717
 20
3174.614516284419
 30
0.0
 42
0.4142135623720068
  0
VERTEX
  5
70
330
64
100
AcDbEntity
  8
4_ANYTOOL_CUTTHROUGH_OUTSI
100
AcDbVertex
100
AcDb2dVertex
 10
4621.409943183713
 20
3162.864516284419
 30
0.0
  0
VERTEX
  5
71
330
64
100
AcDbEntity
  8
4_ANYTOOL_CUTTHROUGH_OUTSI
100
AcDbVertex
100
AcDb2dVertex
 10
4621.409943183651
 20
2622.864516284419
 30
0.0
 42
0.4142135623713876
  0
VERTEX
  5
72
330
64
100
AcDbEntity
  8
4_ANYTOOL_CUTTHROUGH_OUTSI
100
AcDbVertex
100
AcDb2dVertex
 10
4633.159943183651
 20
2611.114516284411
 30
0.0
  0
VERTEX
  5
73
330
64
100
AcDbEntity
  8
4_ANYTOOL_CUTTHROUGH_OUTSI
100
AcDbVertex
100
AcDb2dVertex
 10
4672.909943183295
 20
2611.114516284411
 30
0.0
  0
VERTEX
  5
74
330
64
100
AcDbEntity
  8
4_ANYTOOL_CUTTHROUGH_OUTSI
100
AcDbVertex
100
AcDb2dVertex
 10
4672.909943183298
 20
2617.114516284411
 30
0.0
  0
VERTEX
  5
75
330
64
100
AcDbEntity
  8
4_ANYTOOL_CUTTHROUGH_OUTSI
100
AcDbVertex
100
AcDb2dVertex
 10
4685.409943183298
 20
2617.114516284382
 30
0.0
  0
VERTEX
  5
76
330
64
100
AcDbEntity
  8
4_ANYTOOL_CUTTHROUGH_OUTSI
100
AcDbVertex
100
AcDb2dVertex
 10
4685.409943183284
 20
2568.614516284397
 30
0.0
  0
VERTEX
  5
77
330
64
100
AcDbEntity
  8
4_ANYTOOL_CUTTHROUGH_OUTSI
100
AcDbVertex
100
AcDb2dVertex
 10
4672.909943183284
 20
2568.614516284404
 30
0.0
  0
VERTEX
  5
78
330
64
100
AcDbEntity
  8
4_ANYTOOL_CUTTHROUGH_OUTSI
100
AcDbVertex
100
AcDb2dVertex
 10
4672.909943183287
 20
2574.614516284404
 30
0.0
  0
VERTEX
  5
79
330
64
100
AcDbEntity
  8
4_ANYTOOL_CUTTHROUGH_OUTSI
100
AcDbVertex
100
AcDb2dVertex
 10
4633.15994318364
 20
2574.614516284411
 30
0.0
 42
0.4142135623717988
  0
VERTEX
  5
7A
330
64
100
AcDbEntity
  8
4_ANYTOOL_CUTTHROUGH_OUTSI
100
AcDbVertex
100
AcDb2dVertex
 10
4621.40994318364
 20
2562.864516284411
 30
0.0
  0
VERTEX
  5
7B
330
64
100
AcDbEntity
  8
4_ANYTOOL_CUTTHROUGH_OUTSI
100
AcDbVertex
100
AcDb2dVertex
 10
4621.409943183575
 20
2022.864516284397
 30
0.0
 42
0.4142135623734047
  0
VERTEX
  5
7C
330
64
100
AcDbEntity
  8
4_ANYTOOL_CUTTHROUGH_OUTSI
100
AcDbVertex
100
AcDb2dVertex
 10
4633.159943183575
 20
2011.114516284404
 30
0.0
  0
VERTEX
  5
7D
330
64
100
AcDbEntity
  8
4_ANYTOOL_CUTTHROUGH_OUTSI
100
AcDbVertex
100
AcDb2dVertex
 10
4672.909943183236
 20
2011.114516284397
 30
0.0
  0
VERTEX
  5
7E
330
64
100
AcDbEntity
  8
4_ANYTOOL_CUTTHROUGH_OUTSI
100
AcDbVertex
100
AcDb2dVertex
 10
4672.909943183262
 20
2017.114516284397
 30
0.0
  0
VERTEX
  5
7F
330
64
100
AcDbEntity
  8
4_ANYTOOL_CUTTHROUGH_OUTSI
100
AcDbVertex
100
AcDb2dVertex
 10
4685.409943183262
 20
2017.114516284368
 30
0.0
  0
VERTEX
  5
80
330
64
100
AcDbEntity
  8
4_ANYTOOL_CUTTHROUGH_OUTSI
100
AcDbVertex
100
AcDb2dVertex
 10
4685.409943183244
 20
1968.614516284382
 30
0.0
  0
VERTEX
  5
81
330
64
100
AcDbEntity
  8
4_ANYTOOL_CUTTHROUGH_OUTSI
100
AcDbVertex
100
AcDb2dVertex
 10
4672.909943183244
 20
1968.61451628439
 30
0.0
  0
VERTEX
  5
82
330
64
100
AcDbEntity
  8
4_ANYTOOL_CUTTHROUGH_OUTSI
100
AcDbVertex
100
AcDb2dVertex
 10
4672.909943183247
 20
1974.61451628439
 30
0.0
  0
VERTEX
  5
83
330
64
100
AcDbEntity
  8
4_ANYTOOL_CUTTHROUGH_OUTSI
100
AcDbVertex
100
AcDb2dVertex
 10
4633.159943183604
 20
1974.614516284397
 30
0.0
 42
0.4142135623723696
  0
VERTEX
  5
84
330
64
100
AcDbEntity
  8
4_ANYTOOL_CUTTHROUGH_OUTSI
100
AcDbVertex
100
AcDb2dVertex
 10
4621.409943183604
 20
1962.864516284397
 30
0.0
  0
VERTEX
  5
85
330
64
100
AcDbEntity
  8
4_ANYTOOL_CUTTHROUGH_OUTSI
100
AcDbVertex
100
AcDb2dVertex
 10
4621.409943183538
 20
1422.864516284382
 30
0.0
 42
0.4142135623721352
  0
VERTEX
  5
86
330
64
100
AcDbEntity
  8
4_ANYTOOL_CUTTHROUGH_OUTSI
100
AcDbVertex
100
AcDb2dVertex
 10
4633.159943183538
 20
1411.11451628439
 30
0.0
  0
VERTEX
  5
87
330
64
100
AcDbEntity
  8
4_ANYTOOL_CUTTHROUGH_OUTSI
100
AcDbVertex
100
AcDb2dVertex
 10
4672.909943183182
 20
1411.114516284382
 30
0.0
  0
VERTEX
  5
88
330
64
100
AcDbEntity
  8
4_ANYTOOL_CUTTHROUGH_OUTSI
100
AcDbVertex
100
AcDb2dVertex
 10
4672.909943183186
 20
1417.114516284375
 30
0.0
  0
VERTEX
  5
89
330
64
100
AcDbEntity
  8
4_ANYTOOL_CUTTHROUGH_OUTSI
100
AcDbVertex
100
AcDb2dVertex
 10
4685.409943183186
 20
1417.114516284353
 30
0.0
  0
VERTEX
  5
8A
330
64
100
AcDbEntity
  8
4_ANYTOOL_CUTTHROUGH_OUTSI
100
AcDbVertex
100
AcDb2dVertex
 10
4685.409943183178
 20
1368.614516284368
 30
0.0
  0
VERTEX
  5
8B
330
64
100
AcDbEntity
  8
4_ANYTOOL_CUTTHROUGH_OUTSI
100
AcDbVertex
100
AcDb2dVertex
 10
4672.909943183178
 20
1368.614516284375
 30
0.0
  0
VERTEX
  5
8C
330
64
100
AcDbEntity
  8
4_ANYTOOL_CUTTHROUGH_OUTSI
100
AcDbVertex
100
AcDb2dVertex
 10
4672.909943183182
 20
1374.614516284375
 30
0.0
  0
VERTEX
  5
8D
330
64
100
AcDbEntity
  8
4_ANYTOOL_CUTTHROUGH_OUTSI
100
AcDbVertex
100
AcDb2dVertex
 10
4633.159943183538
 20
1374.614516284382
 30
0.0
 42
0.4142135623732763
  0
VERTEX
  5
8E
330
64
100
AcDbEntity
  8
4_ANYTOOL_CUTTHROUGH_OUTSI
100
AcDbVertex
100
AcDb2dVertex
 10
4621.409943183535
 20
1362.864516284382
 30
0.0
  0
VERTEX
  5
8F
330
64
100
AcDbEntity
  8
4_ANYTOOL_CUTTHROUGH_OUTSI
100
AcDbVertex
100
AcDb2dVertex
 10
4621.409943183502
 20
1093.114516074791
 30
0.0
  0
VERTEX
  5
90
330
64
100
AcDbEntity
  8
4_ANYTOOL_CUTTHROUGH_OUTSI
100
AcDbVertex
100
AcDb2dVertex
 10
5094.909943181767
 20
1093.114119107668
 30
0.0
  0
VERTEX
  5
91
330
64
100
AcDbEntity
  8
4_ANYTOOL_CUTTHROUGH_OUTSI
100
AcDbVertex
100
AcDb2dVertex
 10
5094.909943181701
 20
1255.113721511771
 30
0.0
  0
VERTEX
  5
92
330
64
100
AcDbEntity
  8
4_ANYTOOL_CUTTHROUGH_OUTSI
100
AcDbVertex
100
AcDb2dVertex
 10
5107.409943181701
 20
1255.113721511792
 30
0.0
  0
VERTEX
  5
93
330
64
100
AcDbEntity
  8
4_ANYTOOL_CUTTHROUGH_OUTSI
100
AcDbVertex
100
AcDb2dVertex
 10
5107.409943181698
 20
1249.113721511792
 30
0.0
  0
VERTEX
  5
94
330
64
100
AcDbEntity
  8
4_ANYTOOL_CUTTHROUGH_OUTSI
100
AcDbVertex
100
AcDb2dVertex
 10
5213.159943181749
 20
1249.113721511778
 30
0.0
 42
0.4142135623732764
  0
VERTEX
  5
95
330
64
100
AcDbEntity
  8
4_ANYTOOL_CUTTHROUGH_OUTSI
100
AcDbVertex
100
AcDb2dVertex
 10
5224.909943181745
 20
1260.863721511778
 30
0.0
  0
VERTEX
  5
96
330
64
100
AcDbEntity
  8
4_ANYTOOL_CUTTHROUGH_OUTSI
100
AcDbVertex
100
AcDb2dVertex
 10
5224.909943181781
 20
1362.864516284404
 30
0.0
 42
0.4142135623723806
  0
VERTEX
  5
97
330
64
100
AcDbEntity
  8
4_ANYTOOL_CUTTHROUGH_OUTSI
100
AcDbVertex
100
AcDb2dVertex
 10
5213.159943181778
 20
1374.614516284404
 30
0.0
  0
VERTEX
  5
98
330
64
100
AcDbEntity
  8
4_ANYTOOL_CUTTHROUGH_OUTSI
100
AcDbVertex
100
AcDb2dVertex
 10
4995.409943183182
 20
1374.614516284331
 30
0.0
  0
VERTEX
  5
99
330
64
100
AcDbEntity
  8
4_ANYTOOL_CUTTHROUGH_OUTSI
100
AcDbVertex
100
AcDb2dVertex
 10
4995.409943183178
 20
1368.614516284317
 30
0.0
  0
VERTEX
  5
9A
330
64
100
AcDbEntity
  8
4_ANYTOOL_CUTTHROUGH_OUTSI
100
AcDbVertex
100
AcDb2dVertex
 10
4982.909943183178
 20
1368.614516284331
 30
0.0
  0
VERTEX
  5
9B
330
64
100
AcDbEntity
  8
4_ANYTOOL_CUTTHROUGH_OUTSI
100
AcDbVertex
100
AcDb2dVertex
 10
4982.909943183186
 20
1417.114516284331
 30
0.0
  0
VERTEX
  5
9C
330
64
100
AcDbEntity
  8
4_ANYTOOL_CUTTHROUGH_OUTSI
100
AcDbVertex
100
AcDb2dVertex
 10
4995.409943183186
 20
1417.114516284331
 30
0.0
  0
VERTEX
  5
9D
330
64
100
AcDbEntity
  8
4_ANYTOOL_CUTTHROUGH_OUTSI
100
AcDbVertex
100
AcDb2dVertex
 10
4995.409943183186
 20
1411.114516284324
 30
0.0
  0
VERTEX
  5
9E
330
64
100
AcDbEntity
  8
4_ANYTOOL_CUTTHROUGH_OUTSI
100
AcDbVertex
100
AcDb2dVertex
 10
5213.159943181756
 20
1411.114516284375
 30
0.0
 42
0.4142135623737187
  0
VERTEX
  5
9F
330
64
100
AcDbEntity
  8
4_ANYTOOL_CUTTHROUGH_OUTSI
100
AcDbVertex
100
AcDb2dVertex
 10
5224.909943181756
 20
1422.864516284375
 30
0.0
  0
VERTEX
  5
A0
330
64
100
AcDbEntity
  8
4_ANYTOOL_CUTTHROUGH_OUTSI
100
AcDbVertex
100
AcDb2dVertex
 10
5224.909943181778
 20
1524.864516284411
 30
0.0
 42
0.4142135623727964
  0
VERTEX
  5
A1
330
64
100
AcDbEntity
  8
4_ANYTOOL_CUTTHROUGH_OUTSI
100
AcDbVertex
100
AcDb2dVertex
 10
5213.159943181778
 20
1536.614516284411
 30
0.0
  0
VERTEX
  5
A2
330
64
100
AcDbEntity
  8
4_ANYTOOL_CUTTHROUGH_OUTSI
100
AcDbVertex
100
AcDb2dVertex
 10
5107.409943181909
 20
1536.614516284411
 30
0.0
  0
VERTEX
  5
A3
330
64
100
AcDbEntity
  8
4_ANYTOOL_CUTTHROUGH_OUTSI
100
AcDbVertex
100
AcDb2dVertex
 10
5107.409943181901
 20
1530.614516284411
 30
0.0
  0
VERTEX
  5
A4
330
64
100
AcDbEntity
  8
4_ANYTOOL_CUTTHROUGH_OUTSI
100
AcDbVertex
100
AcDb2dVertex
 10
5094.909943181901
 20
1530.61451628439
 30
0.0
  0
VERTEX
  5
A5
330
64
100
AcDbEntity
  8
4_ANYTOOL_CUTTHROUGH_OUTSI
100
AcDbVertex
100
AcDb2dVertex
 10
5094.909943181767
 20
1855.113721511785
 30
0.0
  0
VERTEX
  5
A6
330
64
100
AcDbEntity
  8
4_ANYTOOL_CUTTHROUGH_OUTSI
100
AcDbVertex
100
AcDb2dVertex
 10
5107.409943181767
 20
1855.113721511807
 30
0.0
  0
VERTEX
  5
A7
330
64
100
AcDbEntity
  8
4_ANYTOOL_CUTTHROUGH_OUTSI
100
AcDbVertex
100
AcDb2dVertex
 10
5107.409943181767
 20
1849.113721511807
 30
0.0
  0
VERTEX
  5
A8
330
64
100
AcDbEntity
  8
4_ANYTOOL_CUTTHROUGH_OUTSI
100
AcDbVertex
100
AcDb2dVertex
 10
5213.159943181814
 20
1849.113721511792
 30
0.0
 42
0.414213562373794
  0
VERTEX
  5
A9
330
64
100
AcDbEntity
  8
4_ANYTOOL_CUTTHROUGH_OUTSI
100
AcDbVertex
100
AcDb2dVertex
 10
5224.909943181814
 20
1860.863721511792
 30
0.0
  0
VERTEX
  5
AA
330
64
100
AcDbEntity
  8
4_ANYTOOL_CUTTHROUGH_OUTSI
100
AcDbVertex
100
AcDb2dVertex
 10
5224.909943181847
 20
1962.864516284419
 30
0.0
 42
0.4142135623742473
  0
VERTEX
  5
AB
330
64
100
AcDbEntity
  8
4_ANYTOOL_CUTTHROUGH_OUTSI
100
AcDbVertex
100
AcDb2dVertex
 10
5213.159943181843
 20
1974.614516284419
 30
0.0
  0
VERTEX
  5
AC
330
64
100
AcDbEntity
  8
4_ANYTOOL_CUTTHROUGH_OUTSI
100
AcDbVertex
100
AcDb2dVertex
 10
4995.409943183247
 20
1974.614516284346
 30
0.0
  0
VERTEX
  5
AD
330
64
100
AcDbEntity
  8
4_ANYTOOL_CUTTHROUGH_OUTSI
100
AcDbVertex
100
AcDb2dVertex
 10
4995.409943183244
 20
1968.614516284339
 30
0.0
  0
VERTEX
  5
AE
330
64
100
AcDbEntity
  8
4_ANYTOOL_CUTTHROUGH_OUTSI
100
AcDbVertex
100
AcDb2dVertex
 10
4982.909943183244
 20
1968.614516284346
 30
0.0
  0
VERTEX
  5
AF
330
64
100
AcDbEntity
  8
4_ANYTOOL_CUTTHROUGH_OUTSI
100
AcDbVertex
100
AcDb2dVertex
 10
4982.909943183262
 20
2017.114516284346
 30
0.0
  0
VERTEX
  5
B0
330
64
100
AcDbEntity
  8
4_ANYTOOL_CUTTHROUGH_OUTSI
100
AcDbVertex
100
AcDb2dVertex
 10
4995.409943183262
 20
2017.114516284346
 30
0.0
  0
VERTEX
  5
B1
330
64
100
AcDbEntity
  8
4_ANYTOOL_CUTTHROUGH_OUTSI
100
AcDbVertex
100
AcDb2dVertex
 10
4995.409943183258
 20
2011.114516284339
 30
0.0
  0
VERTEX
  5
B2
330
64
100
AcDbEntity
  8
4_ANYTOOL_CUTTHROUGH_OUTSI
100
AcDbVertex
100
AcDb2dVertex
 10
5213.159943181836
 20
2011.114516284397
 30
0.0
 42
0.4142135623732233
  0
VERTEX
  5
B3
330
64
100
AcDbEntity
  8
4_ANYTOOL_CUTTHROUGH_OUTSI
100
AcDbVertex
100
AcDb2dVertex
 10
5224.909943181825
 20
2022.864516284397
 30
0.0
  0
VERTEX
  5
B4
330
64
100
AcDbEntity
  8
4_ANYTOOL_CUTTHROUGH_OUTSI
100
AcDbVertex
100
AcDb2dVertex
 10
5224.90994318185
 20
2124.864516284419
 30
0.0
 42
0.4142135623730419
  0
VERTEX
  5
B5
330
64
100
AcDbEntity
  8
4_ANYTOOL_CUTTHROUGH_OUTSI
100
AcDbVertex
100
AcDb2dVertex
 10
5213.15994318185
 20
2136.614516284419
 30
0.0
  0
VERTEX
  5
B6
330
64
100
AcDbEntity
  8
4_ANYTOOL_CUTTHROUGH_OUTSI
100
AcDbVertex
100
AcDb2dVertex
 10
5107.409943181981
 20
2136.614516284426
 30
0.0
  0
VERTEX
  5
B7
330
64
100
AcDbEntity
  8
4_ANYTOOL_CUTTHROUGH_OUTSI
100
AcDbVertex
100
AcDb2dVertex
 10
5107.409943181974
 20
2130.614516284426
 30
0.0
  0
VERTEX
  5
B8
330
64
100
AcDbEntity
  8
4_ANYTOOL_CUTTHROUGH_OUTSI
100
AcDbVertex
100
AcDb2dVertex
 10
5094.909943181956
 20
2130.614516284397
 30
0.0
  0
VERTEX
  5
B9
330
64
100
AcDbEntity
  8
4_ANYTOOL_CUTTHROUGH_OUTSI
100
AcDbVertex
100
AcDb2dVertex
 10
5094.909943181807
 20
2455.113721511792
 30
0.0
  0
VERTEX
  5
BA
330
64
100
AcDbEntity
  8
4_ANYTOOL_CUTTHROUGH_OUTSI
100
AcDbVertex
100
AcDb2dVertex
 10
5107.409943181807
 20
2455.113721511814
 30
0.0
  0
VERTEX
  5
BB
330
64
100
AcDbEntity
  8
4_ANYTOOL_CUTTHROUGH_OUTSI
100
AcDbVertex
100
AcDb2dVertex
 10
5107.409943181803
 20
2449.113721511814
 30
0.0
  0
VERTEX
  5
BC
330
64
100
AcDbEntity
  8
4_ANYTOOL_CUTTHROUGH_OUTSI
100
AcDbVertex
100
AcDb2dVertex
 10
5213.15994318185
 20
2449.1137215118
 30
0.0
 42
0.4142135623732233
  0
VERTEX
  5
BD
330
64
100
AcDbEntity
  8
4_ANYTOOL_CUTTHROUGH_OUTSI
100
AcDbVertex
100
AcDb2dVertex
 10
5224.909943181854
 20
2460.8637215118
 30
0.0
  0
VERTEX
  5
BE
330
64
100
AcDbEntity
  8
4_ANYTOOL_CUTTHROUGH_OUTSI
100
AcDbVertex
100
AcDb2dVertex
 10
5224.909943181883
 20
2562.864516284433
 30
0.0
 42
0.4142135623751542
  0
VERTEX
  5
BF
330
64
100
AcDbEntity
  8
4_ANYTOOL_CUTTHROUGH_OUTSI
100
AcDbVertex
100
AcDb2dVertex
 10
5213.159943181879
 20
2574.614516284433
 30
0.0
  0
VERTEX
  5
C0
330
64
100
AcDbEntity
  8
4_ANYTOOL_CUTTHROUGH_OUTSI
100
AcDbVertex
100
AcDb2dVertex
 10
4995.409943183287
 20
2574.61451628436
 30
0.0
  0
VERTEX
  5
C1
330
64
100
AcDbEntity
  8
4_ANYTOOL_CUTTHROUGH_OUTSI
100
AcDbVertex
100
AcDb2dVertex
 10
4995.409943183284
 20
2568.614516284353
 30
0.0
  0
VERTEX
  5
C2
330
64
100
AcDbEntity
  8
4_ANYTOOL_CUTTHROUGH_OUTSI
100
AcDbVertex
100
AcDb2dVertex
 10
4982.909943183284
 20
2568.61451628436
 30
0.0
  0
VERTEX
  5
C3
330
64
100
AcDbEntity
  8
4_ANYTOOL_CUTTHROUGH_OUTSI
100
AcDbVertex
100
AcDb2dVertex
 10
4982.909943183298
 20
2617.11451628436
 30
0.0
  0
VERTEX
  5
C4
330
64
100
AcDbEntity
  8
4_ANYTOOL_CUTTHROUGH_OUTSI
100
AcDbVertex
100
AcDb2dVertex
 10
4995.409943183298
 20
2617.11451628436
 30
0.0
  0
VERTEX
  5
C5
330
64
100
AcDbEntity
  8
4_ANYTOOL_CUTTHROUGH_OUTSI
100
AcDbVertex
100
AcDb2dVertex
 10
4995.409943183295
 20
2611.114516284353
 30
0.0
  0
VERTEX
  5
C6
330
64
100
AcDbEntity
  8
4_ANYTOOL_CUTTHROUGH_OUTSI
100
AcDbVertex
100
AcDb2dVertex
 10
5213.159943181872
 20
2611.114516284411
 30
0.0
 42
0.4142135623727057
  0
VERTEX
  5
C7
330
64
100
AcDbEntity
  8
4_ANYTOOL_CUTTHROUGH_OUTSI
100
AcDbVertex
100
AcDb2dVertex
 10
5224.909943181865
 20
2622.864516284411
 30
0.0
  0
VERTEX
  5
C8
330
64
100
AcDbEntity
  8
4_ANYTOOL_CUTTHROUGH_OUTSI
100
AcDbVertex
100
AcDb2dVertex
 10
5224.909943181887
 20
2724.864516284433
 30
0.0
 42
0.4142135623748116
  0
VERTEX
  5
C9
330
64
100
AcDbEntity
  8
4_ANYTOOL_CUTTHROUGH_OUTSI
100
AcDbVertex
100
AcDb2dVertex
 10
5213.15994318189
 20
2736.614516284448
 30
0.0
  0
VERTEX
  5
CA
330
64
100
AcDbEntity
  8
4_ANYTOOL_CUTTHROUGH_OUTSI
100
AcDbVertex
100
AcDb2dVertex
 10
5107.409943182021
 20
2736.61451628444
 30
0.0
  0
VERTEX
  5
CB
330
64
100
AcDbEntity
  8
4_ANYTOOL_CUTTHROUGH_OUTSI
100
AcDbVertex
100
AcDb2dVertex
 10
5107.40994318201
 20
2730.61451628444
 30
0.0
  0
VERTEX
  5
CC
330
64
100
AcDbEntity
  8
4_ANYTOOL_CUTTHROUGH_OUTSI
100
AcDbVertex
100
AcDb2dVertex
 10
5094.90994318201
 20
2730.614516284419
 30
0.0
  0
VERTEX
  5
CD
330
64
100
AcDbEntity
  8
4_ANYTOOL_CUTTHROUGH_OUTSI
100
AcDbVertex
100
AcDb2dVertex
 10
5094.909943181876
 20
3055.113721511807
 30
0.0
  0
VERTEX
  5
CE
330
64
100
AcDbEntity
  8
4_ANYTOOL_CUTTHROUGH_OUTSI
100
AcDbVertex
100
AcDb2dVertex
 10
5107.409943181876
 20
3055.113721511829
 30
0.0
  0
VERTEX
  5
CF
330
64
100
AcDbEntity
  8
4_ANYTOOL_CUTTHROUGH_OUTSI
100
AcDbVertex
100
AcDb2dVertex
 10
5107.409943181876
 20
3049.113721511829
 30
0.0
  0
VERTEX
  5
D0
330
64
100
AcDbEntity
  8
4_ANYTOOL_CUTTHROUGH_OUTSI
100
AcDbVertex
100
AcDb2dVertex
 10
5213.159943181927
 20
3049.113721511821
 30
0.0
 42
0.414213562373564
  0
VERTEX
  5
D1
330
64
100
AcDbEntity
  8
4_ANYTOOL_CUTTHROUGH_OUTSI
100
AcDbVertex
100
AcDb2dVertex
 10
5224.909943181927
 20
3060.863721511814
 30
0.0
  0
VERTEX
  5
D2
330
64
100
AcDbEntity
  8
4_ANYTOOL_CUTTHROUGH_OUTSI
100
AcDbVertex
100
AcDb2dVertex
 10
5224.90994318196
 20
3162.86451628444
 30
0.0
 42
0.4142135623721352
  0
VERTEX
  5
D3
330
64
100
AcDbEntity
  8
4_ANYTOOL_CUTTHROUGH_OUTSI
100
AcDbVertex
100
AcDb2dVertex
 10
5213.159943181956
 20
3174.61451628444
 30
0.0
  0
VERTEX
  5
D4
330
64
100
AcDbEntity
  8
4_ANYTOOL_CUTTHROUGH_OUTSI
100
AcDbVertex
100
AcDb2dVertex
 10
4995.40994318336
 20
3174.614516284368
 30
0.0
  0
VERTEX
  5
D5
330
64
100
AcDbEntity
  8
4_ANYTOOL_CUTTHROUGH_OUTSI
100
AcDbVertex
100
AcDb2dVertex
 10
4995.409943183357
 20
3168.61451628436
 30
0.0
  0
VERTEX
  5
D6
330
64
100
AcDbEntity
  8
4_ANYTOOL_CUTTHROUGH_OUTSI
100
AcDbVertex
100
AcDb2dVertex
 10
4982.909943183357
 20
3168.614516284375
 30
0.0
  0
VERTEX
  5
D7
330
64
100
AcDbEntity
  8
4_ANYTOOL_CUTTHROUGH_OUTSI
100
AcDbVertex
100
AcDb2dVertex
 10
4982.909943183375
 20
3217.114516284353
 30
0.0
  0
VERTEX
  5
D8
330
64
100
AcDbEntity
  8
4_ANYTOOL_CUTTHROUGH_OUTSI
100
AcDbVertex
100
AcDb2dVertex
 10
4995.409943183375
 20
3217.114516284353
 30
0.0
  0
VERTEX
  5
D9
330
64
100
AcDbEntity
  8
4_ANYTOOL_CUTTHROUGH_OUTSI
100
AcDbVertex
100
AcDb2dVertex
 10
4995.409943183371
 20
3211.114516284346
 30
0.0
  0
VERTEX
  5
DA
330
64
100
AcDbEntity
  8
4_ANYTOOL_CUTTHROUGH_OUTSI
100
AcDbVertex
100
AcDb2dVertex
 10
5083.159943181083
 20
3211.114516283982
 30
0.0
 42
0.4142135623759924
  0
VERTEX
  5
DB
330
64
100
AcDbEntity
  8
4_ANYTOOL_CUTTHROUGH_OUTSI
100
AcDbVertex
100
AcDb2dVertex
 10
5094.909943181141
 20
3222.864516284055
 30
0.0
  0
VERTEX
  5
DC
330
64
100
AcDbEntity
  8
4_ANYTOOL_CUTTHROUGH_OUTSI
100
AcDbVertex
100
AcDb2dVertex
 10
5094.909943179842
 20
3480.856516280968
 30
0.0
 42
0.4142135623697131
  0
VERTEX
  5
DD
330
64
100
AcDbEntity
  8
4_ANYTOOL_CUTTHROUGH_OUTSI
100
AcDbVertex
100
AcDb2dVertex
 10
5083.159943179893
 20
3492.60651628091
 30
0.0
  0
VERTEX
  5
DE
330
64
100
AcDbEntity
  8
4_ANYTOOL_CUTTHROUGH_OUTSI
100
AcDbVertex
100
AcDb2dVertex
 10
4995.409943182021
 20
3492.606516281267
 30
0.0
  0
VERTEX
  5
DF
330
64
100
AcDbEntity
  8
4_ANYTOOL_CUTTHROUGH_OUTSI
100
AcDbVertex
100
AcDb2dVertex
 10
4995.409943182014
 20
3486.606516281267
 30
0.0
  0
VERTEX
  5
E0
330
64
100
AcDbEntity
  8
4_ANYTOOL_CUTTHROUGH_OUTSI
100
AcDbVertex
100
AcDb2dVertex
 10
4982.909943182014
 20
3486.606516281267
 30
0.0
  0
VERTEX
  5
E1
330
64
100
AcDbEntity
  8
4_ANYTOOL_CUTTHROUGH_OUTSI
100
AcDbVertex
100
AcDb2dVertex
 10
4982.909943182025
 20
3510.606516281267
 30
0.0
  0
VERTEX
  5
E2
330
64
100
AcDbEntity
  8
4_ANYTOOL_CUTTHROUGH_OUTSI
100
AcDbVertex
100
AcDb2dVertex
 10
4685.409943182021
 20
3510.606516281303
 30
0.0
  0
VERTEX
  5
E3
330
64
100
AcDbEntity
  8
4_ANYTOOL_CUTTHROUGH_OUTSI
100
AcDbVertex
100
AcDb2dVertex
 10
4685.409943182014
 20
3486.606516281303
 30
0.0
  0
VERTEX
  5
E4
330
64
100
AcDbEntity
  8
4_ANYTOOL_CUTTHROUGH_OUTSI
100
AcDbVertex
100
AcDb2dVertex
 10
4672.909943182014
 20
3486.606516281303
 30
0.0
  0
VERTEX
  5
E5
330
64
100
AcDbEntity
  8
4_ANYTOOL_CUTTHROUGH_OUTSI
100
AcDbVertex
100
AcDb2dVertex
 10
4672.909943182021
 20
3492.606516281303
 30
0.0
  0
VERTEX
  5
E6
330
64
100
AcDbEntity
  8
4_ANYTOOL_CUTTHROUGH_OUTSI
100
AcDbVertex
100
AcDb2dVertex
 10
4633.15994318252
 20
3492.60651628131
 30
0.0
 42
0.4142135623779555
  0
VERTEX
  5
E7
330
64
100
AcDbEntity
  8
4_ANYTOOL_CUTTHROUGH_OUTSI
100
AcDbVertex
100
AcDb2dVertex
 10
4621.409943182516
 20
3480.856516281165
 30
0.0
  0
VERTEX
  5
E8
330
64
100
AcDbEntity
  8
4_ANYTOOL_CUTTHROUGH_OUTSI
100
AcDbVertex
100
AcDb2dVertex
 10
4621.40994318356
 20
3397.864516282723
 30
0.0
 42
0.4142135623719559
  0
VERTEX
  5
E9
330
64
100
AcDbEntity
  8
4_ANYTOOL_CUTTHROUGH_OUTSI
100
AcDbVertex
100
AcDb2dVertex
 10
4633.159943183717
 20
3386.114516282876
 30
0.0
  0
VERTEX
  5
EA
330
64
100
AcDbEntity
  8
4_ANYTOOL_CUTTHROUGH_OUTSI
100
AcDbVertex
100
AcDb2dVertex
 10
4836.909943183389
 20
3386.114516282716
 30
0.0
  0
VERTEX
  5
EB
330
64
100
AcDbEntity
  8
4_ANYTOOL_CUTTHROUGH_OUTSI
100
AcDbVertex
100
AcDb2dVertex
 10
4836.909943183393
 20
3392.114516282716
 30
0.0
  0
VERTEX
  5
EC
330
64
100
AcDbEntity
  8
4_ANYTOOL_CUTTHROUGH_OUTSI
100
AcDbVertex
100
AcDb2dVertex
 10
4849.409943183393
 20
3392.114516282709
 30
0.0
  0
VERTEX
  5
ED
330
64
100
AcDbEntity
  8
4_ANYTOOL_CUTTHROUGH_OUTSI
100
AcDbVertex
100
AcDb2dVertex
 10
4849.409943183386
 20
3343.614516282709
 30
0.0
  0
VERTEX
  5
EE
330
64
100
AcDbEntity
  8
4_ANYTOOL_CUTTHROUGH_OUTSI
100
AcDbVertex
100
AcDb2dVertex
 10
4836.909943183386
 20
3343.614516282716
 30
0.0
  0
VERTEX
  5
EF
330
64
100
AcDbEntity
  8
4_ANYTOOL_CUTTHROUGH_OUTSI
100
AcDbVertex
100
AcDb2dVertex
 10
4836.909943183382
 20
3349.614516282716
 30
0.0
  0
SEQEND
  5
F0
330
64
100
AcDbEntity
  8
4_ANYTOOL_CUTTHROUGH_OUTSI
  0
POLYLINE
  5
F1
330
1F
100
AcDbEntity
  8
4_ANYTOOL_CUTTHROUGH_OUTSI
100
AcDb2dPolyline
 66
     1
 10
0.0
 20
0.0
 30
0.0
 70
     1
  0
VERTEX
  5
F2
330
F1
100
AcDbEntity
  8
4_ANYTOOL_CUTTHROUGH_OUTSI
100
AcDbVertex
100
AcDb2dVertex
 10
4597.159943179977
 20
3349.614516282738
 30
0.0
 42
-0.414213562373564
  0
VERTEX
  5
F3
330
F1
100
AcDbEntity
  8
4_ANYTOOL_CUTTHROUGH_OUTSI
100
AcDbVertex
100
AcDb2dVertex
 10
4608.90994317998
 20
3337.864516282738
 30
0.0
  0
VERTEX
  5
F4
330
F1
100
AcDbEntity
  8
4_ANYTOOL_CUTTHROUGH_OUTSI
100
AcDbVertex
100
AcDb2dVertex
 10
4608.909943179973
 20
3222.864516284404
 30
0.0
 42
-0.4142135623732123
  0
VERTEX
  5
F5
330
F1
100
AcDbEntity
  8
4_ANYTOOL_CUTTHROUGH_OUTSI
100
AcDbVertex
100
AcDb2dVertex
 10
4597.159943179977
 20
3211.114516284404
 30
0.0
  0
VERTEX
  5
F6
330
F1
100
AcDbEntity
  8
4_ANYTOOL_CUTTHROUGH_OUTSI
100
AcDbVertex
100
AcDb2dVertex
 10
4557.409943180322
 20
3211.114516284382
 30
0.0
  0
VERTEX
  5
F7
330
F1
100
AcDbEntity
  8
4_ANYTOOL_CUTTHROUGH_OUTSI
100
AcDbVertex
100
AcDb2dVertex
 10
4557.409943180319
 20
3217.11451628439
 30
0.0
  0
VERTEX
  5
F8
330
F1
100
AcDbEntity
  8
4_ANYTOOL_CUTTHROUGH_OUTSI
100
AcDbVertex
100
AcDb2dVertex
 10
4544.909943180319
 20
3217.11451628439
 30
0.0
  0
VERTEX
  5
F9
330
F1
100
AcDbEntity
  8
4_ANYTOOL_CUTTHROUGH_OUTSI
100
AcDbVertex
100
AcDb2dVertex
 10
4544.909943180337
 20
3168.614516284404
 30
0.0
  0
VERTEX
  5
FA
330
F1
100
AcDbEntity
  8
4_ANYTOOL_CUTTHROUGH_OUTSI
100
AcDbVertex
100
AcDb2dVertex
 10
4557.409943180337
 20
3168.614516284419
 30
0.0
  0
VERTEX
  5
FB
330
F1
100
AcDbEntity
  8
4_ANYTOOL_CUTTHROUGH_OUTSI
100
AcDbVertex
100
AcDb2dVertex
 10
4557.409943180333
 20
3174.614516284419
 30
0.0
  0
VERTEX
  5
FC
330
F1
100
AcDbEntity
  8
4_ANYTOOL_CUTTHROUGH_OUTSI
100
AcDbVertex
100
AcDb2dVertex
 10
4597.159943179977
 20
3174.614516284419
 30
0.0
 42
-0.4142135623731216
  0
VERTEX
  5
FD
330
F1
100
AcDbEntity
  8
4_ANYTOOL_CUTTHROUGH_OUTSI
100
AcDbVertex
100
AcDb2dVertex
 10
4608.909943179984
 20
3162.864516284426
 30
0.0
  0
VERTEX
  5
FE
330
F1
100
AcDbEntity
  8
4_ANYTOOL_CUTTHROUGH_OUTSI
100
AcDbVertex
100
AcDb2dVertex
 10
4608.909943180042
 20
2622.864516284419
 30
0.0
 42
-0.414213562372124
  0
VERTEX
  5
FF
330
F1
100
AcDbEntity
  8
4_ANYTOOL_CUTTHROUGH_OUTSI
100
AcDbVertex
100
AcDb2dVertex
 10
4597.159943180042
 20
2611.114516284411
 30
0.0
  0
VERTEX
  5
100
330
F1
100
AcDbEntity
  8
4_ANYTOOL_CUTTHROUGH_OUTSI
100
AcDbVertex
100
AcDb2dVertex
 10
4557.409943180399
 20
2611.114516284411
 30
0.0
  0
VERTEX
  5
101
330
F1
100
AcDbEntity
  8
4_ANYTOOL_CUTTHROUGH_OUTSI
100
AcDbVertex
100
AcDb2dVertex
 10
4557.409943180395
 20
2617.114516284411
 30
0.0
  0
VERTEX
  5
102
330
F1
100
AcDbEntity
  8
4_ANYTOOL_CUTTHROUGH_OUTSI
100
AcDbVertex
100
AcDb2dVertex
 10
4544.909943180395
 20
2617.114516284382
 30
0.0
  0
VERTEX
  5
103
330
F1
100
AcDbEntity
  8
4_ANYTOOL_CUTTHROUGH_OUTSI
100
AcDbVertex
100
AcDb2dVertex
 10
4544.90994318041
 20
2568.614516284397
 30
0.0
  0
VERTEX
  5
104
330
F1
100
AcDbEntity
  8
4_ANYTOOL_CUTTHROUGH_OUTSI
100
AcDbVertex
100
AcDb2dVertex
 10
4557.40994318041
 20
2568.614516284404
 30
0.0
  0
VERTEX
  5
105
330
F1
100
AcDbEntity
  8
4_ANYTOOL_CUTTHROUGH_OUTSI
100
AcDbVertex
100
AcDb2dVertex
 10
4557.409943180406
 20
2574.614516284404
 30
0.0
  0
VERTEX
  5
106
330
F1
100
AcDbEntity
  8
4_ANYTOOL_CUTTHROUGH_OUTSI
100
AcDbVertex
100
AcDb2dVertex
 10
4597.159943180053
 20
2574.614516284411
 30
0.0
 42
-0.4142135623720289
  0
VERTEX
  5
107
330
F1
100
AcDbEntity
  8
4_ANYTOOL_CUTTHROUGH_OUTSI
100
AcDbVertex
100
AcDb2dVertex
 10
4608.90994318005
 20
2562.864516284404
 30
0.0
  0
VERTEX
  5
108
330
F1
100
AcDbEntity
  8
4_ANYTOOL_CUTTHROUGH_OUTSI
100
AcDbVertex
100
AcDb2dVertex
 10
4608.909943180119
 20
2022.864516284397
 30
0.0
 42
-0.414213562373148
  0
VERTEX
  5
109
330
F1
100
AcDbEntity
  8
4_ANYTOOL_CUTTHROUGH_OUTSI
100
AcDbVertex
100
AcDb2dVertex
 10
4597.159943180119
 20
2011.114516284397
 30
0.0
  0
VERTEX
  5
10A
330
F1
100
AcDbEntity
  8
4_ANYTOOL_CUTTHROUGH_OUTSI
100
AcDbVertex
100
AcDb2dVertex
 10
4557.409943180457
 20
2011.114516284397
 30
0.0
  0
VERTEX
  5
10B
330
F1
100
AcDbEntity
  8
4_ANYTOOL_CUTTHROUGH_OUTSI
100
AcDbVertex
100
AcDb2dVertex
 10
4557.409943180432
 20
2017.114516284397
 30
0.0
  0
VERTEX
  5
10C
330
F1
100
AcDbEntity
  8
4_ANYTOOL_CUTTHROUGH_OUTSI
100
AcDbVertex
100
AcDb2dVertex
 10
4544.909943180432
 20
2017.114516284368
 30
0.0
  0
VERTEX
  5
10D
330
F1
100
AcDbEntity
  8
4_ANYTOOL_CUTTHROUGH_OUTSI
100
AcDbVertex
100
AcDb2dVertex
 10
4544.90994318045
 20
1968.614516284382
 30
0.0
  0
VERTEX
  5
10E
330
F1
100
AcDbEntity
  8
4_ANYTOOL_CUTTHROUGH_OUTSI
100
AcDbVertex
100
AcDb2dVertex
 10
4557.40994318045
 20
1968.61451628439
 30
0.0
  0
VERTEX
  5
10F
330
F1
100
AcDbEntity
  8
4_ANYTOOL_CUTTHROUGH_OUTSI
100
AcDbVertex
100
AcDb2dVertex
 10
4557.409943180446
 20
1974.61451628439
 30
0.0
  0
VERTEX
  5
110
330
F1
100
AcDbEntity
  8
4_ANYTOOL_CUTTHROUGH_OUTSI
100
AcDbVertex
100
AcDb2dVertex
 10
4597.15994318009
 20
1974.614516284397
 30
0.0
 42
-0.4142135623727588
  0
VERTEX
  5
111
330
F1
100
AcDbEntity
  8
4_ANYTOOL_CUTTHROUGH_OUTSI
100
AcDbVertex
100
AcDb2dVertex
 10
4608.90994318009
 20
1962.864516284397
 30
0.0
  0
VERTEX
  5
112
330
F1
100
AcDbEntity
  8
4_ANYTOOL_CUTTHROUGH_OUTSI
100
AcDbVertex
100
AcDb2dVertex
 10
4608.909943180155
 20
1422.864516284382
 30
0.0
 42
-0.4142135623739268
  0
VERTEX
  5
113
330
F1
100
AcDbEntity
  8
4_ANYTOOL_CUTTHROUGH_OUTSI
100
AcDbVertex
100
AcDb2dVertex
 10
4597.159943180155
 20
1411.114516284375
 30
0.0
  0
VERTEX
  5
114
330
F1
100
AcDbEntity
  8
4_ANYTOOL_CUTTHROUGH_OUTSI
100
AcDbVertex
100
AcDb2dVertex
 10
4557.409943180512
 20
1411.114516284382
 30
0.0
  0
VERTEX
  5
115
330
F1
100
AcDbEntity
  8
4_ANYTOOL_CUTTHROUGH_OUTSI
100
AcDbVertex
100
AcDb2dVertex
 10
4557.409943180508
 20
1417.114516284375
 30
0.0
  0
VERTEX
  5
116
330
F1
100
AcDbEntity
  8
4_ANYTOOL_CUTTHROUGH_OUTSI
100
AcDbVertex
100
AcDb2dVertex
 10
4544.909943180508
 20
1417.114516284353
 30
0.0
  0
VERTEX
  5
117
330
F1
100
AcDbEntity
  8
4_ANYTOOL_CUTTHROUGH_OUTSI
100
AcDbVertex
100
AcDb2dVertex
 10
4544.909943180515
 20
1368.614516284368
 30
0.0
  0
VERTEX
  5
118
330
F1
100
AcDbEntity
  8
4_ANYTOOL_CUTTHROUGH_OUTSI
100
AcDbVertex
100
AcDb2dVertex
 10
4557.409943180515
 20
1368.614516284375
 30
0.0
  0
VERTEX
  5
119
330
F1
100
AcDbEntity
  8
4_ANYTOOL_CUTTHROUGH_OUTSI
100
AcDbVertex
100
AcDb2dVertex
 10
4557.409943180512
 20
1374.614516284375
 30
0.0
  0
VERTEX
  5
11A
330
F1
100
AcDbEntity
  8
4_ANYTOOL_CUTTHROUGH_OUTSI
100
AcDbVertex
100
AcDb2dVertex
 10
4597.159943180155
 20
1374.614516284382
 30
0.0
 42
-0.414213562373564
  0
VERTEX
  5
11B
330
F1
100
AcDbEntity
  8
4_ANYTOOL_CUTTHROUGH_OUTSI
100
AcDbVertex
100
AcDb2dVertex
 10
4608.909943180162
 20
1362.86451628439
 30
0.0
  0
VERTEX
  5
11C
330
F1
100
AcDbEntity
  8
4_ANYTOOL_CUTTHROUGH_OUTSI
100
AcDbVertex
100
AcDb2dVertex
 10
4608.909943180191
 20
1093.114516074791
 30
0.0
  0
VERTEX
  5
11D
330
F1
100
AcDbEntity
  8
4_ANYTOOL_CUTTHROUGH_OUTSI
100
AcDbVertex
100
AcDb2dVertex
 10
4135.409943181927
 20
1093.114119107668
 30
0.0
  0
VERTEX
  5
11E
330
F1
100
AcDbEntity
  8
4_ANYTOOL_CUTTHROUGH_OUTSI
100
AcDbVertex
100
AcDb2dVertex
 10
4135.409943181992
 20
1255.113721511771
 30
0.0
  0
VERTEX
  5
11F
330
F1
100
AcDbEntity
  8
4_ANYTOOL_CUTTHROUGH_OUTSI
100
AcDbVertex
100
AcDb2dVertex
 10
4122.909943181992
 20
1255.113721511792
 30
0.0
  0
VERTEX
  5
120
330
F1
100
AcDbEntity
  8
4_ANYTOOL_CUTTHROUGH_OUTSI
100
AcDbVertex
100
AcDb2dVertex
 10
4122.909943181996
 20
1249.113721511792
 30
0.0
  0
VERTEX
  5
121
330
F1
100
AcDbEntity
  8
4_ANYTOOL_CUTTHROUGH_OUTSI
100
AcDbVertex
100
AcDb2dVertex
 10
4017.159943181945
 20
1249.113721511778
 30
0.0
 42
-0.4142135623724493
  0
VERTEX
  5
122
330
F1
100
AcDbEntity
  8
4_ANYTOOL_CUTTHROUGH_OUTSI
100
AcDbVertex
100
AcDb2dVertex
 10
4005.409943181941
 20
1260.863721511778
 30
0.0
  0
VERTEX
  5
123
330
F1
100
AcDbEntity
  8
4_ANYTOOL_CUTTHROUGH_OUTSI
100
AcDbVertex
100
AcDb2dVertex
 10
4005.409943181912
 20
1362.864516284404
 30
0.0
 42
-0.4142135623728715
  0
VERTEX
  5
124
330
F1
100
AcDbEntity
  8
4_ANYTOOL_CUTTHROUGH_OUTSI
100
AcDbVertex
100
AcDb2dVertex
 10
4017.159943181916
 20
1374.614516284404
 30
0.0
  0
VERTEX
  5
125
330
F1
100
AcDbEntity
  8
4_ANYTOOL_CUTTHROUGH_OUTSI
100
AcDbVertex
100
AcDb2dVertex
 10
4234.909943180512
 20
1374.614516284331
 30
0.0
  0
VERTEX
  5
126
330
F1
100
AcDbEntity
  8
4_ANYTOOL_CUTTHROUGH_OUTSI
100
AcDbVertex
100
AcDb2dVertex
 10
4234.909943180515
 20
1368.614516284317
 30
0.0
  0
VERTEX
  5
127
330
F1
100
AcDbEntity
  8
4_ANYTOOL_CUTTHROUGH_OUTSI
100
AcDbVertex
100
AcDb2dVertex
 10
4247.409943180515
 20
1368.614516284331
 30
0.0
  0
VERTEX
  5
128
330
F1
100
AcDbEntity
  8
4_ANYTOOL_CUTTHROUGH_OUTSI
100
AcDbVertex
100
AcDb2dVertex
 10
4247.409943180508
 20
1417.114516284331
 30
0.0
  0
VERTEX
  5
129
330
F1
100
AcDbEntity
  8
4_ANYTOOL_CUTTHROUGH_OUTSI
100
AcDbVertex
100
AcDb2dVertex
 10
4234.909943180508
 20
1417.114516284331
 30
0.0
  0
VERTEX
  5
12A
330
F1
100
AcDbEntity
  8
4_ANYTOOL_CUTTHROUGH_OUTSI
100
AcDbVertex
100
AcDb2dVertex
 10
4234.909943180508
 20
1411.114516284324
 30
0.0
  0
VERTEX
  5
12B
330
F1
100
AcDbEntity
  8
4_ANYTOOL_CUTTHROUGH_OUTSI
100
AcDbVertex
100
AcDb2dVertex
 10
4017.159943181938
 20
1411.114516284375
 30
0.0
 42
-0.4142135623738736
  0
VERTEX
  5
12C
330
F1
100
AcDbEntity
  8
4_ANYTOOL_CUTTHROUGH_OUTSI
100
AcDbVertex
100
AcDb2dVertex
 10
4005.409943181938
 20
1422.864516284375
 30
0.0
  0
VERTEX
  5
12D
330
F1
100
AcDbEntity
  8
4_ANYTOOL_CUTTHROUGH_OUTSI
100
AcDbVertex
100
AcDb2dVertex
 10
4005.409943181916
 20
1524.864516284411
 30
0.0
 42
-0.4142135623724337
  0
VERTEX
  5
12E
330
F1
100
AcDbEntity
  8
4_ANYTOOL_CUTTHROUGH_OUTSI
100
AcDbVertex
100
AcDb2dVertex
 10
4017.159943181916
 20
1536.614516284404
 30
0.0
  0
VERTEX
  5
12F
330
F1
100
AcDbEntity
  8
4_ANYTOOL_CUTTHROUGH_OUTSI
100
AcDbVertex
100
AcDb2dVertex
 10
4122.909943181785
 20
1536.614516284411
 30
0.0
  0
VERTEX
  5
130
330
F1
100
AcDbEntity
  8
4_ANYTOOL_CUTTHROUGH_OUTSI
100
AcDbVertex
100
AcDb2dVertex
 10
4122.909943181792
 20
1530.614516284411
 30
0.0
  0
VERTEX
  5
131
330
F1
100
AcDbEntity
  8
4_ANYTOOL_CUTTHROUGH_OUTSI
100
AcDbVertex
100
AcDb2dVertex
 10
4135.409943181792
 20
1530.61451628439
 30
0.0
  0
VERTEX
  5
132
330
F1
100
AcDbEntity
  8
4_ANYTOOL_CUTTHROUGH_OUTSI
100
AcDbVertex
100
AcDb2dVertex
 10
4135.409943181927
 20
1855.113721511785
 30
0.0
  0
VERTEX
  5
133
330
F1
100
AcDbEntity
  8
4_ANYTOOL_CUTTHROUGH_OUTSI
100
AcDbVertex
100
AcDb2dVertex
 10
4122.909943181927
 20
1855.113721511807
 30
0.0
  0
VERTEX
  5
134
330
F1
100
AcDbEntity
  8
4_ANYTOOL_CUTTHROUGH_OUTSI
100
AcDbVertex
100
AcDb2dVertex
 10
4122.909943181927
 20
1849.113721511807
 30
0.0
  0
VERTEX
  5
135
330
F1
100
AcDbEntity
  8
4_ANYTOOL_CUTTHROUGH_OUTSI
100
AcDbVertex
100
AcDb2dVertex
 10
4017.159943181879
 20
1849.113721511792
 30
0.0
 42
-0.4142135623721616
  0
VERTEX
  5
136
330
F1
100
AcDbEntity
  8
4_ANYTOOL_CUTTHROUGH_OUTSI
100
AcDbVertex
100
AcDb2dVertex
 10
4005.409943181883
 20
1860.863721511792
 30
0.0
  0
VERTEX
  5
137
330
F1
100
AcDbEntity
  8
4_ANYTOOL_CUTTHROUGH_OUTSI
100
AcDbVertex
100
AcDb2dVertex
 10
4005.409943181847
 20
1962.864516284419
 30
0.0
 42
-0.4142135623742473
  0
VERTEX
  5
138
330
F1
100
AcDbEntity
  8
4_ANYTOOL_CUTTHROUGH_OUTSI
100
AcDbVertex
100
AcDb2dVertex
 10
4017.15994318185
 20
1974.614516284419
 30
0.0
  0
VERTEX
  5
139
330
F1
100
AcDbEntity
  8
4_ANYTOOL_CUTTHROUGH_OUTSI
100
AcDbVertex
100
AcDb2dVertex
 10
4234.909943180446
 20
1974.614516284346
 30
0.0
  0
VERTEX
  5
13A
330
F1
100
AcDbEntity
  8
4_ANYTOOL_CUTTHROUGH_OUTSI
100
AcDbVertex
100
AcDb2dVertex
 10
4234.90994318045
 20
1968.614516284339
 30
0.0
  0
VERTEX
  5
13B
330
F1
100
AcDbEntity
  8
4_ANYTOOL_CUTTHROUGH_OUTSI
100
AcDbVertex
100
AcDb2dVertex
 10
4247.40994318045
 20
1968.614516284346
 30
0.0
  0
VERTEX
  5
13C
330
F1
100
AcDbEntity
  8
4_ANYTOOL_CUTTHROUGH_OUTSI
100
AcDbVertex
100
AcDb2dVertex
 10
4247.409943180432
 20
2017.114516284346
 30
0.0
  0
VERTEX
  5
13D
330
F1
100
AcDbEntity
  8
4_ANYTOOL_CUTTHROUGH_OUTSI
100
AcDbVertex
100
AcDb2dVertex
 10
4234.909943180432
 20
2017.114516284346
 30
0.0
  0
VERTEX
  5
13E
330
F1
100
AcDbEntity
  8
4_ANYTOOL_CUTTHROUGH_OUTSI
100
AcDbVertex
100
AcDb2dVertex
 10
4234.909943180435
 20
2011.114516284339
 30
0.0
  0
VERTEX
  5
13F
330
F1
100
AcDbEntity
  8
4_ANYTOOL_CUTTHROUGH_OUTSI
100
AcDbVertex
100
AcDb2dVertex
 10
4017.159943181858
 20
2011.114516284397
 30
0.0
 42
-0.4142135623732763
  0
VERTEX
  5
140
330
F1
100
AcDbEntity
  8
4_ANYTOOL_CUTTHROUGH_OUTSI
100
AcDbVertex
100
AcDb2dVertex
 10
4005.409943181858
 20
2022.864516284404
 30
0.0
  0
VERTEX
  5
141
330
F1
100
AcDbEntity
  8
4_ANYTOOL_CUTTHROUGH_OUTSI
100
AcDbVertex
100
AcDb2dVertex
 10
4005.409943181843
 20
2124.864516284419
 30
0.0
 42
-0.4142135623733406
  0
VERTEX
  5
142
330
F1
100
AcDbEntity
  8
4_ANYTOOL_CUTTHROUGH_OUTSI
100
AcDbVertex
100
AcDb2dVertex
 10
4017.159943181843
 20
2136.614516284419
 30
0.0
  0
VERTEX
  5
143
330
F1
100
AcDbEntity
  8
4_ANYTOOL_CUTTHROUGH_OUTSI
100
AcDbVertex
100
AcDb2dVertex
 10
4122.909943181712
 20
2136.614516284426
 30
0.0
  0
VERTEX
  5
144
330
F1
100
AcDbEntity
  8
4_ANYTOOL_CUTTHROUGH_OUTSI
100
AcDbVertex
100
AcDb2dVertex
 10
4122.909943181719
 20
2130.614516284426
 30
0.0
  0
VERTEX
  5
145
330
F1
100
AcDbEntity
  8
4_ANYTOOL_CUTTHROUGH_OUTSI
100
AcDbVertex
100
AcDb2dVertex
 10
4135.409943181738
 20
2130.614516284397
 30
0.0
  0
VERTEX
  5
146
330
F1
100
AcDbEntity
  8
4_ANYTOOL_CUTTHROUGH_OUTSI
100
AcDbVertex
100
AcDb2dVertex
 10
4135.409943181887
 20
2455.113721511792
 30
0.0
  0
VERTEX
  5
147
330
F1
100
AcDbEntity
  8
4_ANYTOOL_CUTTHROUGH_OUTSI
100
AcDbVertex
100
AcDb2dVertex
 10
4122.909943181887
 20
2455.113721511814
 30
0.0
  0
VERTEX
  5
148
330
F1
100
AcDbEntity
  8
4_ANYTOOL_CUTTHROUGH_OUTSI
100
AcDbVertex
100
AcDb2dVertex
 10
4122.90994318189
 20
2449.113721511814
 30
0.0
  0
VERTEX
  5
149
330
F1
100
AcDbEntity
  8
4_ANYTOOL_CUTTHROUGH_OUTSI
100
AcDbVertex
100
AcDb2dVertex
 10
4017.159943181843
 20
2449.1137215118
 30
0.0
 42
-0.4142135623716442
  0
VERTEX
  5
14A
330
F1
100
AcDbEntity
  8
4_ANYTOOL_CUTTHROUGH_OUTSI
100
AcDbVertex
100
AcDb2dVertex
 10
4005.409943181839
 20
2460.8637215118
 30
0.0
  0
VERTEX
  5
14B
330
F1
100
AcDbEntity
  8
4_ANYTOOL_CUTTHROUGH_OUTSI
100
AcDbVertex
100
AcDb2dVertex
 10
4005.40994318181
 20
2562.864516284433
 30
0.0
 42
-0.4142135623731281
  0
VERTEX
  5
14C
330
F1
100
AcDbEntity
  8
4_ANYTOOL_CUTTHROUGH_OUTSI
100
AcDbVertex
100
AcDb2dVertex
 10
4017.159943181814
 20
2574.614516284433
 30
0.0
  0
VERTEX
  5
14D
330
F1
100
AcDbEntity
  8
4_ANYTOOL_CUTTHROUGH_OUTSI
100
AcDbVertex
100
AcDb2dVertex
 10
4234.909943180406
 20
2574.61451628436
 30
0.0
  0
VERTEX
  5
14E
330
F1
100
AcDbEntity
  8
4_ANYTOOL_CUTTHROUGH_OUTSI
100
AcDbVertex
100
AcDb2dVertex
 10
4234.90994318041
 20
2568.614516284353
 30
0.0
  0
VERTEX
  5
14F
330
F1
100
AcDbEntity
  8
4_ANYTOOL_CUTTHROUGH_OUTSI
100
AcDbVertex
100
AcDb2dVertex
 10
4247.40994318041
 20
2568.61451628436
 30
0.0
  0
VERTEX
  5
150
330
F1
100
AcDbEntity
  8
4_ANYTOOL_CUTTHROUGH_OUTSI
100
AcDbVertex
100
AcDb2dVertex
 10
4247.409943180395
 20
2617.11451628436
 30
0.0
  0
VERTEX
  5
151
330
F1
100
AcDbEntity
  8
4_ANYTOOL_CUTTHROUGH_OUTSI
100
AcDbVertex
100
AcDb2dVertex
 10
4234.909943180395
 20
2617.11451628436
 30
0.0
  0
VERTEX
  5
152
330
F1
100
AcDbEntity
  8
4_ANYTOOL_CUTTHROUGH_OUTSI
100
AcDbVertex
100
AcDb2dVertex
 10
4234.909943180399
 20
2611.114516284353
 30
0.0
  0
VERTEX
  5
153
330
F1
100
AcDbEntity
  8
4_ANYTOOL_CUTTHROUGH_OUTSI
100
AcDbVertex
100
AcDb2dVertex
 10
4017.159943181821
 20
2611.114516284411
 30
0.0
 42
-0.4142135623712329
  0
VERTEX
  5
154
330
F1
100
AcDbEntity
  8
4_ANYTOOL_CUTTHROUGH_OUTSI
100
AcDbVertex
100
AcDb2dVertex
 10
4005.409943181825
 20
2622.864516284404
 30
0.0
  0
VERTEX
  5
155
330
F1
100
AcDbEntity
  8
4_ANYTOOL_CUTTHROUGH_OUTSI
100
AcDbVertex
100
AcDb2dVertex
 10
4005.409943181807
 20
2724.864516284433
 30
0.0
 42
-0.4142135623726041
  0
VERTEX
  5
156
330
F1
100
AcDbEntity
  8
4_ANYTOOL_CUTTHROUGH_OUTSI
100
AcDbVertex
100
AcDb2dVertex
 10
4017.159943181803
 20
2736.614516284433
 30
0.0
  0
VERTEX
  5
157
330
F1
100
AcDbEntity
  8
4_ANYTOOL_CUTTHROUGH_OUTSI
100
AcDbVertex
100
AcDb2dVertex
 10
4122.909943181672
 20
2736.61451628444
 30
0.0
  0
VERTEX
  5
158
330
F1
100
AcDbEntity
  8
4_ANYTOOL_CUTTHROUGH_OUTSI
100
AcDbVertex
100
AcDb2dVertex
 10
4122.909943181683
 20
2730.61451628444
 30
0.0
  0
VERTEX
  5
159
330
F1
100
AcDbEntity
  8
4_ANYTOOL_CUTTHROUGH_OUTSI
100
AcDbVertex
100
AcDb2dVertex
 10
4135.409943181683
 20
2730.614516284419
 30
0.0
  0
VERTEX
  5
15A
330
F1
100
AcDbEntity
  8
4_ANYTOOL_CUTTHROUGH_OUTSI
100
AcDbVertex
100
AcDb2dVertex
 10
4135.409943181818
 20
3055.113721511807
 30
0.0
  0
VERTEX
  5
15B
330
F1
100
AcDbEntity
  8
4_ANYTOOL_CUTTHROUGH_OUTSI
100
AcDbVertex
100
AcDb2dVertex
 10
4122.909943181818
 20
3055.113721511829
 30
0.0
  0
VERTEX
  5
15C
330
F1
100
AcDbEntity
  8
4_ANYTOOL_CUTTHROUGH_OUTSI
100
AcDbVertex
100
AcDb2dVertex
 10
4122.909943181818
 20
3049.113721511829
 30
0.0
  0
VERTEX
  5
15D
330
F1
100
AcDbEntity
  8
4_ANYTOOL_CUTTHROUGH_OUTSI
100
AcDbVertex
100
AcDb2dVertex
 10
4017.159943181767
 20
3049.113721511821
 30
0.0
 42
-0.4142135623715205
  0
VERTEX
  5
15E
330
F1
100
AcDbEntity
  8
4_ANYTOOL_CUTTHROUGH_OUTSI
100
AcDbVertex
100
AcDb2dVertex
 10
4005.409943181767
 20
3060.863721511807
 30
0.0
  0
VERTEX
  5
15F
330
F1
100
AcDbEntity
  8
4_ANYTOOL_CUTTHROUGH_OUTSI
100
AcDbVertex
100
AcDb2dVertex
 10
4005.409943181734
 20
3162.86451628444
 30
0.0
 42
-0.4142135623721352
  0
VERTEX
  5
160
330
F1
100
AcDbEntity
  8
4_ANYTOOL_CUTTHROUGH_OUTSI
100
AcDbVertex
100
AcDb2dVertex
 10
4017.159943181738
 20
3174.614516284448
 30
0.0
  0
VERTEX
  5
161
330
F1
100
AcDbEntity
  8
4_ANYTOOL_CUTTHROUGH_OUTSI
100
AcDbVertex
100
AcDb2dVertex
 10
4234.909943180333
 20
3174.614516284368
 30
0.0
  0
VERTEX
  5
162
330
F1
100
AcDbEntity
  8
4_ANYTOOL_CUTTHROUGH_OUTSI
100
AcDbVertex
100
AcDb2dVertex
 10
4234.909943180337
 20
3168.61451628436
 30
0.0
  0
VERTEX
  5
163
330
F1
100
AcDbEntity
  8
4_ANYTOOL_CUTTHROUGH_OUTSI
100
AcDbVertex
100
AcDb2dVertex
 10
4247.409943180337
 20
3168.614516284375
 30
0.0
  0
VERTEX
  5
164
330
F1
100
AcDbEntity
  8
4_ANYTOOL_CUTTHROUGH_OUTSI
100
AcDbVertex
100
AcDb2dVertex
 10
4247.409943180319
 20
3217.114516284353
 30
0.0
  0
VERTEX
  5
165
330
F1
100
AcDbEntity
  8
4_ANYTOOL_CUTTHROUGH_OUTSI
100
AcDbVertex
100
AcDb2dVertex
 10
4234.909943180319
 20
3217.114516284353
 30
0.0
  0
VERTEX
  5
166
330
F1
100
AcDbEntity
  8
4_ANYTOOL_CUTTHROUGH_OUTSI
100
AcDbVertex
100
AcDb2dVertex
 10
4234.909943180322
 20
3211.114516284346
 30
0.0
  0
VERTEX
  5
167
330
F1
100
AcDbEntity
  8
4_ANYTOOL_CUTTHROUGH_OUTSI
100
AcDbVertex
100
AcDb2dVertex
 10
4147.159943182611
 20
3211.114516283982
 30
0.0
 42
-0.4142135623746476
  0
VERTEX
  5
168
330
F1
100
AcDbEntity
  8
4_ANYTOOL_CUTTHROUGH_OUTSI
100
AcDbVertex
100
AcDb2dVertex
 10
4135.40994318256
 20
3222.86451628404
 30
0.0
  0
VERTEX
  5
169
330
F1
100
AcDbEntity
  8
4_ANYTOOL_CUTTHROUGH_OUTSI
100
AcDbVertex
100
AcDb2dVertex
 10
4135.409943183851
 20
3480.856516280968
 30
0.0
 42
-0.4142135623695848
  0
VERTEX
  5
16A
330
F1
100
AcDbEntity
  8
4_ANYTOOL_CUTTHROUGH_OUTSI
100
AcDbVertex
100
AcDb2dVertex
 10
4147.1599431838
 20
3492.60651628091
 30
0.0
  0
VERTEX
  5
16B
330
F1
100
AcDbEntity
  8
4_ANYTOOL_CUTTHROUGH_OUTSI
100
AcDbVertex
100
AcDb2dVertex
 10
4234.909943181672
 20
3492.606516281267
 30
0.0
  0
VERTEX
  5
16C
330
F1
100
AcDbEntity
  8
4_ANYTOOL_CUTTHROUGH_OUTSI
100
AcDbVertex
100
AcDb2dVertex
 10
4234.909943181679
 20
3486.606516281267
 30
0.0
  0
VERTEX
  5
16D
330
F1
100
AcDbEntity
  8
4_ANYTOOL_CUTTHROUGH_OUTSI
100
AcDbVertex
100
AcDb2dVertex
 10
4247.409943181679
 20
3486.606516281267
 30
0.0
  0
VERTEX
  5
16E
330
F1
100
AcDbEntity
  8
4_ANYTOOL_CUTTHROUGH_OUTSI
100
AcDbVertex
100
AcDb2dVertex
 10
4247.409943181668
 20
3510.606516281267
 30
0.0
  0
VERTEX
  5
16F
330
F1
100
AcDbEntity
  8
4_ANYTOOL_CUTTHROUGH_OUTSI
100
AcDbVertex
100
AcDb2dVertex
 10
4544.909943181672
 20
3510.606516281303
 30
0.0
  0
VERTEX
  5
170
330
F1
100
AcDbEntity
  8
4_ANYTOOL_CUTTHROUGH_OUTSI
100
AcDbVertex
100
AcDb2dVertex
 10
4544.909943181679
 20
3486.606516281303
 30
0.0
  0
VERTEX
  5
171
330
F1
100
AcDbEntity
  8
4_ANYTOOL_CUTTHROUGH_OUTSI
100
AcDbVertex
100
AcDb2dVertex
 10
4557.409943181679
 20
3486.606516281303
 30
0.0
  0
VERTEX
  5
172
330
F1
100
AcDbEntity
  8
4_ANYTOOL_CUTTHROUGH_OUTSI
100
AcDbVertex
100
AcDb2dVertex
 10
4557.409943181672
 20
3492.606516281303
 30
0.0
  0
VERTEX
  5
173
330
F1
100
AcDbEntity
  8
4_ANYTOOL_CUTTHROUGH_OUTSI
100
AcDbVertex
100
AcDb2dVertex
 10
4597.159943181174
 20
3492.60651628131
 30
0.0
 42
-0.4142135623761994
  0
VERTEX
  5
174
330
F1
100
AcDbEntity
  8
4_ANYTOOL_CUTTHROUGH_OUTSI
100
AcDbVertex
100
AcDb2dVertex
 10
4608.909943181181
 20
3480.856516281172
 30
0.0
  0
VERTEX
  5
175
330
F1
100
AcDbEntity
  8
4_ANYTOOL_CUTTHROUGH_OUTSI
100
AcDbVertex
100
AcDb2dVertex
 10
4608.909943180133
 20
3397.864516282723
 30
0.0
 42
-0.4142135623729489
  0
VERTEX
  5
176
330
F1
100
AcDbEntity
  8
4_ANYTOOL_CUTTHROUGH_OUTSI
100
AcDbVertex
100
AcDb2dVertex
 10
4597.159943179977
 20
3386.114516282876
 30
0.0
  0
VERTEX
  5
177
330
F1
100
AcDbEntity
  8
4_ANYTOOL_CUTTHROUGH_OUTSI
100
AcDbVertex
100
AcDb2dVertex
 10
4393.409943180304
 20
3386.114516282716
 30
0.0
  0
VERTEX
  5
178
330
F1
100
AcDbEntity
  8
4_ANYTOOL_CUTTHROUGH_OUTSI
100
AcDbVertex
100
AcDb2dVertex
 10
4393.409943180301
 20
3392.114516282716
 30
0.0
  0
VERTEX
  5
179
330
F1
100
AcDbEntity
  8
4_ANYTOOL_CUTTHROUGH_OUTSI
100
AcDbVertex
100
AcDb2dVertex
 10
4380.909943180301
 20
3392.114516282709
 30
0.0
  0
VERTEX
  5
17A
330
F1
100
AcDbEntity
  8
4_ANYTOOL_CUTTHROUGH_OUTSI
100
AcDbVertex
100
AcDb2dVertex
 10
4380.909943180308
 20
3343.614516282709
 30
0.0
  0
VERTEX
  5
17B
330
F1
100
AcDbEntity
  8
4_ANYTOOL_CUTTHROUGH_OUTSI
100
AcDbVertex
100
AcDb2dVertex
 10
4393.409943180308
 20
3343.614516282716
 30
0.0
  0
VERTEX
  5
17C
330
F1
100
AcDbEntity
  8
4_ANYTOOL_CUTTHROUGH_OUTSI
100
AcDbVertex
100
AcDb2dVertex
 10
4393.409943180312
 20
3349.614516282716
 30
0.0
  0
SEQEND
  5
17D
330
F1
100
AcDbEntity
  8
4_ANYTOOL_CUTTHROUGH_OUTSI
  0
MTEXT
  5
180
330
1F
100
AcDbEntity
  8
1_ANYTOOL_1MMDEEP_LABELS_S
100
AcDbMText
 10
4888.996836786297
 20
2274.73316882689
 30
0.0
 40
25.0
 41
687.8378378378378
 71
     5
 72
     1
  1
COMB-B/END-X3
  7
MONOTXT_REGULAR
 11
1.095292225679978E-13
 21
-1.0
 31
0.0
1001
ACAD
1000
ACAD_MTEXT_DEFINED_HEIGHT_BEGIN
1070
    46
1040
10.54054054054054
1000
ACAD_MTEXT_DEFINED_HEIGHT_END
  0
MTEXT
  5
181
330
1F
100
AcDbEntity
  8
1_ANYTOOL_1MMDEEP_LABELS_S
100
AcDbMText
 10
4341.187914442256
 20
2274.868303962023
 30
0.0
 40
25.0
 41
687.8378378378378
 71
     5
 72
     1
  1
COMB-B/END-X3
  7
MONOTXT_REGULAR
 11
6.356598934851632E-14
 21
1.0
 31
0.0
1001
ACAD
1000
ACAD_MTEXT_DEFINED_HEIGHT_BEGIN
1070
    46
1040
10.54054054054054
1000
ACAD_MTEXT_DEFINED_HEIGHT_END
  0
POLYLINE
  5
183
330
1F
100
AcDbEntity
  8
3_ANYTOOL_CUTTHROUGH_INSID
100
AcDb2dPolyline
 66
     1
 10
0.0
 20
0.0
 30
0.0
 70
     1
  0
VERTEX
  5
184
330
183
100
AcDbEntity
  8
3_ANYTOOL_CUTTHROUGH_INSID
100
AcDbVertex
100
AcDb2dVertex
 10
5203.409943181821
 20
2050.614516284404
 30
0.0
  0
VERTEX
  5
185
330
183
100
AcDbEntity
  8
3_ANYTOOL_CUTTHROUGH_INSID
100
AcDbVertex
100
AcDb2dVertex
 10
5190.909943181821
 20
2050.614516284411
 30
0.0
  0
VERTEX
  5
186
330
183
100
AcDbEntity
  8
3_ANYTOOL_CUTTHROUGH_INSID
100
AcDbVertex
100
AcDb2dVertex
 10
5190.909943181825
 20
2056.614516284411
 30
0.0
  0
VERTEX
  5
187
330
183
100
AcDbEntity
  8
3_ANYTOOL_CUTTHROUGH_INSID
100
AcDbVertex
100
AcDb2dVertex
 10
5155.409943181829
 20
2056.614516284411
 30
0.0
  0
VERTEX
  5
188
330
183
100
AcDbEntity
  8
3_ANYTOOL_CUTTHROUGH_INSID
100
AcDbVertex
100
AcDb2dVertex
 10
5155.409943181821
 20
2050.614516284411
 30
0.0
  0
VERTEX
  5
189
330
183
100
AcDbEntity
  8
3_ANYTOOL_CUTTHROUGH_INSID
100
AcDbVertex
100
AcDb2dVertex
 10
5142.909943181821
 20
2050.614516284411
 30
0.0
  0
VERTEX
  5
18A
330
183
100
AcDbEntity
  8
3_ANYTOOL_CUTTHROUGH_INSID
100
AcDbVertex
100
AcDb2dVertex
 10
5142.909943181832
 20
2099.114516284411
 30
0.0
  0
VERTEX
  5
18B
330
183
100
AcDbEntity
  8
3_ANYTOOL_CUTTHROUGH_INSID
100
AcDbVertex
100
AcDb2dVertex
 10
5155.409943181832
 20
2099.114516284411
 30
0.0
  0
VERTEX
  5
18C
330
183
100
AcDbEntity
  8
3_ANYTOOL_CUTTHROUGH_INSID
100
AcDbVertex
100
AcDb2dVertex
 10
5155.409943181829
 20
2093.114516284411
 30
0.0
  0
VERTEX
  5
18D
330
183
100
AcDbEntity
  8
3_ANYTOOL_CUTTHROUGH_INSID
100
AcDbVertex
100
AcDb2dVertex
 10
5190.909943181829
 20
2093.114516284404
 30
0.0
  0
VERTEX
  5
18E
330
183
100
AcDbEntity
  8
3_ANYTOOL_CUTTHROUGH_INSID
100
AcDbVertex
100
AcDb2dVertex
 10
5190.909943181832
 20
2099.114516284411
 30
0.0
  0
VERTEX
  5
18F
330
183
100
AcDbEntity
  8
3_ANYTOOL_CUTTHROUGH_INSID
100
AcDbVertex
100
AcDb2dVertex
 10
5203.409943181832
 20
2099.114516284404
 30
0.0
  0
SEQEND
  5
190
330
183
100
AcDbEntity
  8
3_ANYTOOL_CUTTHROUGH_INSID
  0
POLYLINE
  5
191
330
1F
100
AcDbEntity
  8
3_ANYTOOL_CUTTHROUGH_INSID
100
AcDb2dPolyline
 66
     1
 10
0.0
 20
0.0
 30
0.0
 70
     1
  0
VERTEX
  5
192
330
191
100
AcDbEntity
  8
3_ANYTOOL_CUTTHROUGH_INSID
100
AcDbVertex
100
AcDb2dVertex
 10
5155.409943181803
 20
1929.114516284404
 30
0.0
  0
VERTEX
  5
193
330
191
100
AcDbEntity
  8
3_ANYTOOL_CUTTHROUGH_INSID
100
AcDbVertex
100
AcDb2dVertex
 10
5190.909943181781
 20
1929.114516284404
 30
0.0
  0
VERTEX
  5
194
330
191
100
AcDbEntity
  8
3_ANYTOOL_CUTTHROUGH_INSID
100
AcDbVertex
100
AcDb2dVertex
 10
5190.909943181785
 20
1935.114516284404
 30
0.0
  0
VERTEX
  5
195
330
191
100
AcDbEntity
  8
3_ANYTOOL_CUTTHROUGH_INSID
100
AcDbVertex
100
AcDb2dVertex
 10
5203.409943181785
 20
1935.114516284397
 30
0.0
  0
VERTEX
  5
196
330
191
100
AcDbEntity
  8
3_ANYTOOL_CUTTHROUGH_INSID
100
AcDbVertex
100
AcDb2dVertex
 10
5203.409943181778
 20
1886.614516284397
 30
0.0
  0
VERTEX
  5
197
330
191
100
AcDbEntity
  8
3_ANYTOOL_CUTTHROUGH_INSID
100
AcDbVertex
100
AcDb2dVertex
 10
5190.909943181778
 20
1886.614516284404
 30
0.0
  0
VERTEX
  5
198
330
191
100
AcDbEntity
  8
3_ANYTOOL_CUTTHROUGH_INSID
100
AcDbVertex
100
AcDb2dVertex
 10
5190.909943181778
 20
1892.614516284397
 30
0.0
  0
VERTEX
  5
199
330
191
100
AcDbEntity
  8
3_ANYTOOL_CUTTHROUGH_INSID
100
AcDbVertex
100
AcDb2dVertex
 10
5155.409943181799
 20
1892.614516284404
 30
0.0
  0
VERTEX
  5
19A
330
191
100
AcDbEntity
  8
3_ANYTOOL_CUTTHROUGH_INSID
100
AcDbVertex
100
AcDb2dVertex
 10
5155.409943181799
 20
1886.614516284404
 30
0.0
  0
VERTEX
  5
19B
330
191
100
AcDbEntity
  8
3_ANYTOOL_CUTTHROUGH_INSID
100
AcDbVertex
100
AcDb2dVertex
 10
5142.909943181799
 20
1886.614516284404
 30
0.0
  0
VERTEX
  5
19C
330
191
100
AcDbEntity
  8
3_ANYTOOL_CUTTHROUGH_INSID
100
AcDbVertex
100
AcDb2dVertex
 10
5142.909943181803
 20
1935.114516284404
 30
0.0
  0
VERTEX
  5
19D
330
191
100
AcDbEntity
  8
3_ANYTOOL_CUTTHROUGH_INSID
100
AcDbVertex
100
AcDb2dVertex
 10
5155.409943181803
 20
1935.114516284404
 30
0.0
  0
SEQEND
  5
19E
330
191
100
AcDbEntity
  8
3_ANYTOOL_CUTTHROUGH_INSID
  0
POLYLINE
  5
19F
330
1F
100
AcDbEntity
  8
3_ANYTOOL_CUTTHROUGH_INSID
100
AcDb2dPolyline
 66
     1
 10
0.0
 20
0.0
 30
0.0
 70
     1
  0
VERTEX
  5
1A0
330
19F
100
AcDbEntity
  8
3_ANYTOOL_CUTTHROUGH_INSID
100
AcDbVertex
100
AcDb2dVertex
 10
5155.409943181738
 20
1329.11451628439
 30
0.0
  0
VERTEX
  5
1A1
330
19F
100
AcDbEntity
  8
3_ANYTOOL_CUTTHROUGH_INSID
100
AcDbVertex
100
AcDb2dVertex
 10
5190.909943181716
 20
1329.11451628439
 30
0.0
  0
VERTEX
  5
1A2
330
19F
100
AcDbEntity
  8
3_ANYTOOL_CUTTHROUGH_INSID
100
AcDbVertex
100
AcDb2dVertex
 10
5190.909943181716
 20
1335.11451628439
 30
0.0
  0
VERTEX
  5
1A3
330
19F
100
AcDbEntity
  8
3_ANYTOOL_CUTTHROUGH_INSID
100
AcDbVertex
100
AcDb2dVertex
 10
5203.409943181716
 20
1335.114516284382
 30
0.0
  0
VERTEX
  5
1A4
330
19F
100
AcDbEntity
  8
3_ANYTOOL_CUTTHROUGH_INSID
100
AcDbVertex
100
AcDb2dVertex
 10
5203.409943181712
 20
1286.614516284382
 30
0.0
  0
VERTEX
  5
1A5
330
19F
100
AcDbEntity
  8
3_ANYTOOL_CUTTHROUGH_INSID
100
AcDbVertex
100
AcDb2dVertex
 10
5190.909943181712
 20
1286.614516284382
 30
0.0
  0
VERTEX
  5
1A6
330
19F
100
AcDbEntity
  8
3_ANYTOOL_CUTTHROUGH_INSID
100
AcDbVertex
100
AcDb2dVertex
 10
5190.909943181712
 20
1292.614516284382
 30
0.0
  0
VERTEX
  5
1A7
330
19F
100
AcDbEntity
  8
3_ANYTOOL_CUTTHROUGH_INSID
100
AcDbVertex
100
AcDb2dVertex
 10
5155.40994318173
 20
1292.61451628439
 30
0.0
  0
VERTEX
  5
1A8
330
19F
100
AcDbEntity
  8
3_ANYTOOL_CUTTHROUGH_INSID
100
AcDbVertex
100
AcDb2dVertex
 10
5155.409943181734
 20
1286.61451628439
 30
0.0
  0
VERTEX
  5
1A9
330
19F
100
AcDbEntity
  8
3_ANYTOOL_CUTTHROUGH_INSID
100
AcDbVertex
100
AcDb2dVertex
 10
5142.909943181734
 20
1286.61451628439
 30
0.0
  0
VERTEX
  5
1AA
330
19F
100
AcDbEntity
  8
3_ANYTOOL_CUTTHROUGH_INSID
100
AcDbVertex
100
AcDb2dVertex
 10
5142.909943181738
 20
1335.11451628439
 30
0.0
  0
VERTEX
  5
1AB
330
19F
100
AcDbEntity
  8
3_ANYTOOL_CUTTHROUGH_INSID
100
AcDbVertex
100
AcDb2dVertex
 10
5155.409943181738
 20
1335.11451628439
 30
0.0
  0
SEQEND
  5
1AC
330
19F
100
AcDbEntity
  8
3_ANYTOOL_CUTTHROUGH_INSID
  0
POLYLINE
  5
1AD
330
1F
100
AcDbEntity
  8
3_ANYTOOL_CUTTHROUGH_INSID
100
AcDb2dPolyline
 66
     1
 10
0.0
 20
0.0
 30
0.0
 70
     1
  0
VERTEX
  5
1AE
330
1AD
100
AcDbEntity
  8
3_ANYTOOL_CUTTHROUGH_INSID
100
AcDbVertex
100
AcDb2dVertex
 10
4655.409943183524
 20
1329.11451628436
 30
0.0
  0
VERTEX
  5
1AF
330
1AD
100
AcDbEntity
  8
3_ANYTOOL_CUTTHROUGH_INSID
100
AcDbVertex
100
AcDb2dVertex
 10
4690.909943183178
 20
1329.11451628436
 30
0.0
  0
VERTEX
  5
1B0
330
1AD
100
AcDbEntity
  8
3_ANYTOOL_CUTTHROUGH_INSID
100
AcDbVertex
100
AcDb2dVertex
 10
4690.909943183175
 20
1335.11451628436
 30
0.0
  0
VERTEX
  5
1B1
330
1AD
100
AcDbEntity
  8
3_ANYTOOL_CUTTHROUGH_INSID
100
AcDbVertex
100
AcDb2dVertex
 10
4703.409943183175
 20
1335.114516284375
 30
0.0
  0
VERTEX
  5
1B2
330
1AD
100
AcDbEntity
  8
3_ANYTOOL_CUTTHROUGH_INSID
100
AcDbVertex
100
AcDb2dVertex
 10
4703.409943183167
 20
1286.614516284375
 30
0.0
  0
VERTEX
  5
1B3
330
1AD
100
AcDbEntity
  8
3_ANYTOOL_CUTTHROUGH_INSID
100
AcDbVertex
100
AcDb2dVertex
 10
4690.909943183167
 20
1286.61451628436
 30
0.0
  0
VERTEX
  5
1B4
330
1AD
100
AcDbEntity
  8
3_ANYTOOL_CUTTHROUGH_INSID
100
AcDbVertex
100
AcDb2dVertex
 10
4690.909943183171
 20
1292.61451628436
 30
0.0
  0
VERTEX
  5
1B5
330
1AD
100
AcDbEntity
  8
3_ANYTOOL_CUTTHROUGH_INSID
100
AcDbVertex
100
AcDb2dVertex
 10
4655.40994318352
 20
1292.614516284353
 30
0.0
  0
VERTEX
  5
1B6
330
1AD
100
AcDbEntity
  8
3_ANYTOOL_CUTTHROUGH_INSID
100
AcDbVertex
100
AcDb2dVertex
 10
4655.409943183517
 20
1286.614516284353
 30
0.0
  0
VERTEX
  5
1B7
330
1AD
100
AcDbEntity
  8
3_ANYTOOL_CUTTHROUGH_INSID
100
AcDbVertex
100
AcDb2dVertex
 10
4642.909943183517
 20
1286.614516284353
 30
0.0
  0
VERTEX
  5
1B8
330
1AD
100
AcDbEntity
  8
3_ANYTOOL_CUTTHROUGH_INSID
100
AcDbVertex
100
AcDb2dVertex
 10
4642.909943183524
 20
1335.114516284353
 30
0.0
  0
VERTEX
  5
1B9
330
1AD
100
AcDbEntity
  8
3_ANYTOOL_CUTTHROUGH_INSID
100
AcDbVertex
100
AcDb2dVertex
 10
4655.409943183524
 20
1335.114516284353
 30
0.0
  0
SEQEND
  5
1BA
330
1AD
100
AcDbEntity
  8
3_ANYTOOL_CUTTHROUGH_INSID
  0
POLYLINE
  5
1BB
330
1F
100
AcDbEntity
  8
3_ANYTOOL_CUTTHROUGH_INSID
100
AcDb2dPolyline
 66
     1
 10
0.0
 20
0.0
 30
0.0
 70
     1
  0
VERTEX
  5
1BC
330
1BB
100
AcDbEntity
  8
3_ANYTOOL_CUTTHROUGH_INSID
100
AcDbVertex
100
AcDb2dVertex
 10
5155.409943181759
 20
1499.114516284404
 30
0.0
  0
VERTEX
  5
1BD
330
1BB
100
AcDbEntity
  8
3_ANYTOOL_CUTTHROUGH_INSID
100
AcDbVertex
100
AcDb2dVertex
 10
5155.409943181756
 20
1493.114516284404
 30
0.0
  0
VERTEX
  5
1BE
330
1BB
100
AcDbEntity
  8
3_ANYTOOL_CUTTHROUGH_INSID
100
AcDbVertex
100
AcDb2dVertex
 10
5190.909943181752
 20
1493.11451628439
 30
0.0
  0
VERTEX
  5
1BF
330
1BB
100
AcDbEntity
  8
3_ANYTOOL_CUTTHROUGH_INSID
100
AcDbVertex
100
AcDb2dVertex
 10
5190.909943181759
 20
1499.114516284404
 30
0.0
  0
VERTEX
  5
1C0
330
1BB
100
AcDbEntity
  8
3_ANYTOOL_CUTTHROUGH_INSID
100
AcDbVertex
100
AcDb2dVertex
 10
5203.409943181759
 20
1499.114516284397
 30
0.0
  0
VERTEX
  5
1C1
330
1BB
100
AcDbEntity
  8
3_ANYTOOL_CUTTHROUGH_INSID
100
AcDbVertex
100
AcDb2dVertex
 10
5203.409943181749
 20
1450.614516284397
 30
0.0
  0
VERTEX
  5
1C2
330
1BB
100
AcDbEntity
  8
3_ANYTOOL_CUTTHROUGH_INSID
100
AcDbVertex
100
AcDb2dVertex
 10
5190.909943181749
 20
1450.614516284404
 30
0.0
  0
VERTEX
  5
1C3
330
1BB
100
AcDbEntity
  8
3_ANYTOOL_CUTTHROUGH_INSID
100
AcDbVertex
100
AcDb2dVertex
 10
5190.909943181756
 20
1456.614516284397
 30
0.0
  0
VERTEX
  5
1C4
330
1BB
100
AcDbEntity
  8
3_ANYTOOL_CUTTHROUGH_INSID
100
AcDbVertex
100
AcDb2dVertex
 10
5155.409943181756
 20
1456.614516284404
 30
0.0
  0
VERTEX
  5
1C5
330
1BB
100
AcDbEntity
  8
3_ANYTOOL_CUTTHROUGH_INSID
100
AcDbVertex
100
AcDb2dVertex
 10
5155.409943181749
 20
1450.614516284404
 30
0.0
  0
VERTEX
  5
1C6
330
1BB
100
AcDbEntity
  8
3_ANYTOOL_CUTTHROUGH_INSID
100
AcDbVertex
100
AcDb2dVertex
 10
5142.909943181749
 20
1450.614516284404
 30
0.0
  0
VERTEX
  5
1C7
330
1BB
100
AcDbEntity
  8
3_ANYTOOL_CUTTHROUGH_INSID
100
AcDbVertex
100
AcDb2dVertex
 10
5142.909943181759
 20
1499.114516284404
 30
0.0
  0
SEQEND
  5
1C8
330
1BB
100
AcDbEntity
  8
3_ANYTOOL_CUTTHROUGH_INSID
  0
POLYLINE
  5
1C9
330
1F
100
AcDbEntity
  8
3_ANYTOOL_CUTTHROUGH_INSID
100
AcDb2dPolyline
 66
     1
 10
0.0
 20
0.0
 30
0.0
 70
     1
  0
VERTEX
  5
1CA
330
1C9
100
AcDbEntity
  8
3_ANYTOOL_CUTTHROUGH_INSID
100
AcDbVertex
100
AcDb2dVertex
 10
4655.409943183546
 20
1499.114516284375
 30
0.0
  0
VERTEX
  5
1CB
330
1C9
100
AcDbEntity
  8
3_ANYTOOL_CUTTHROUGH_INSID
100
AcDbVertex
100
AcDb2dVertex
 10
4655.409943183546
 20
1493.11451628436
 30
0.0
  0
VERTEX
  5
1CC
330
1C9
100
AcDbEntity
  8
3_ANYTOOL_CUTTHROUGH_INSID
100
AcDbVertex
100
AcDb2dVertex
 10
4690.909943183193
 20
1493.114516284368
 30
0.0
  0
VERTEX
  5
1CD
330
1C9
100
AcDbEntity
  8
3_ANYTOOL_CUTTHROUGH_INSID
100
AcDbVertex
100
AcDb2dVertex
 10
4690.909943183196
 20
1499.114516284375
 30
0.0
  0
VERTEX
  5
1CE
330
1C9
100
AcDbEntity
  8
3_ANYTOOL_CUTTHROUGH_INSID
100
AcDbVertex
100
AcDb2dVertex
 10
4703.409943183196
 20
1499.11451628439
 30
0.0
  0
VERTEX
  5
1CF
330
1C9
100
AcDbEntity
  8
3_ANYTOOL_CUTTHROUGH_INSID
100
AcDbVertex
100
AcDb2dVertex
 10
4703.409943183182
 20
1450.61451628439
 30
0.0
  0
VERTEX
  5
1D0
330
1C9
100
AcDbEntity
  8
3_ANYTOOL_CUTTHROUGH_INSID
100
AcDbVertex
100
AcDb2dVertex
 10
4690.909943183182
 20
1450.614516284375
 30
0.0
  0
VERTEX
  5
1D1
330
1C9
100
AcDbEntity
  8
3_ANYTOOL_CUTTHROUGH_INSID
100
AcDbVertex
100
AcDb2dVertex
 10
4690.909943183193
 20
1456.614516284375
 30
0.0
  0
VERTEX
  5
1D2
330
1C9
100
AcDbEntity
  8
3_ANYTOOL_CUTTHROUGH_INSID
100
AcDbVertex
100
AcDb2dVertex
 10
4655.409943183542
 20
1456.614516284368
 30
0.0
  0
VERTEX
  5
1D3
330
1C9
100
AcDbEntity
  8
3_ANYTOOL_CUTTHROUGH_INSID
100
AcDbVertex
100
AcDb2dVertex
 10
4655.409943183535
 20
1450.614516284375
 30
0.0
  0
VERTEX
  5
1D4
330
1C9
100
AcDbEntity
  8
3_ANYTOOL_CUTTHROUGH_INSID
100
AcDbVertex
100
AcDb2dVertex
 10
4642.909943183535
 20
1450.614516284375
 30
0.0
  0
VERTEX
  5
1D5
330
1C9
100
AcDbEntity
  8
3_ANYTOOL_CUTTHROUGH_INSID
100
AcDbVertex
100
AcDb2dVertex
 10
4642.909943183546
 20
1499.114516284375
 30
0.0
  0
SEQEND
  5
1D6
330
1C9
100
AcDbEntity
  8
3_ANYTOOL_CUTTHROUGH_INSID
  0
POLYLINE
  5
1D7
330
1F
100
AcDbEntity
  8
3_ANYTOOL_CUTTHROUGH_INSID
100
AcDb2dPolyline
 66
     1
 10
0.0
 20
0.0
 30
0.0
 70
     1
  0
VERTEX
  5
1D8
330
1D7
100
AcDbEntity
  8
3_ANYTOOL_CUTTHROUGH_INSID
100
AcDbVertex
100
AcDb2dVertex
 10
4690.909943183309
 20
2699.114516284404
 30
0.0
  0
VERTEX
  5
1D9
330
1D7
100
AcDbEntity
  8
3_ANYTOOL_CUTTHROUGH_INSID
100
AcDbVertex
100
AcDb2dVertex
 10
4703.409943183309
 20
2699.114516284411
 30
0.0
  0
VERTEX
  5
1DA
330
1D7
100
AcDbEntity
  8
3_ANYTOOL_CUTTHROUGH_INSID
100
AcDbVertex
100
AcDb2dVertex
 10
4703.409943183295
 20
2650.614516284411
 30
0.0
  0
VERTEX
  5
1DB
330
1D7
100
AcDbEntity
  8
3_ANYTOOL_CUTTHROUGH_INSID
100
AcDbVertex
100
AcDb2dVertex
 10
4690.909943183295
 20
2650.614516284404
 30
0.0
  0
VERTEX
  5
1DC
330
1D7
100
AcDbEntity
  8
3_ANYTOOL_CUTTHROUGH_INSID
100
AcDbVertex
100
AcDb2dVertex
 10
4690.909943183302
 20
2656.614516284397
 30
0.0
  0
VERTEX
  5
1DD
330
1D7
100
AcDbEntity
  8
3_ANYTOOL_CUTTHROUGH_INSID
100
AcDbVertex
100
AcDb2dVertex
 10
4655.409943183651
 20
2656.614516284397
 30
0.0
  0
VERTEX
  5
1DE
330
1D7
100
AcDbEntity
  8
3_ANYTOOL_CUTTHROUGH_INSID
100
AcDbVertex
100
AcDb2dVertex
 10
4655.409943183644
 20
2650.614516284397
 30
0.0
  0
VERTEX
  5
1DF
330
1D7
100
AcDbEntity
  8
3_ANYTOOL_CUTTHROUGH_INSID
100
AcDbVertex
100
AcDb2dVertex
 10
4642.909943183644
 20
2650.614516284397
 30
0.0
  0
VERTEX
  5
1E0
330
1D7
100
AcDbEntity
  8
3_ANYTOOL_CUTTHROUGH_INSID
100
AcDbVertex
100
AcDb2dVertex
 10
4642.909943183658
 20
2699.114516284397
 30
0.0
  0
VERTEX
  5
1E1
330
1D7
100
AcDbEntity
  8
3_ANYTOOL_CUTTHROUGH_INSID
100
AcDbVertex
100
AcDb2dVertex
 10
4655.409943183658
 20
2699.114516284397
 30
0.0
  0
VERTEX
  5
1E2
330
1D7
100
AcDbEntity
  8
3_ANYTOOL_CUTTHROUGH_INSID
100
AcDbVertex
100
AcDb2dVertex
 10
4655.409943183655
 20
2693.114516284382
 30
0.0
  0
VERTEX
  5
1E3
330
1D7
100
AcDbEntity
  8
3_ANYTOOL_CUTTHROUGH_INSID
100
AcDbVertex
100
AcDb2dVertex
 10
4690.909943183302
 20
2693.11451628439
 30
0.0
  0
SEQEND
  5
1E4
330
1D7
100
AcDbEntity
  8
3_ANYTOOL_CUTTHROUGH_INSID
  0
POLYLINE
  5
1E5
330
1F
100
AcDbEntity
  8
3_ANYTOOL_CUTTHROUGH_INSID
100
AcDb2dPolyline
 66
     1
 10
0.0
 20
0.0
 30
0.0
 70
     1
  0
VERTEX
  5
1E6
330
1E5
100
AcDbEntity
  8
3_ANYTOOL_CUTTHROUGH_INSID
100
AcDbVertex
100
AcDb2dVertex
 10
4655.409943183702
 20
3129.114516284397
 30
0.0
  0
VERTEX
  5
1E7
330
1E5
100
AcDbEntity
  8
3_ANYTOOL_CUTTHROUGH_INSID
100
AcDbVertex
100
AcDb2dVertex
 10
4690.909943183353
 20
3129.114516284404
 30
0.0
  0
VERTEX
  5
1E8
330
1E5
100
AcDbEntity
  8
3_ANYTOOL_CUTTHROUGH_INSID
100
AcDbVertex
100
AcDb2dVertex
 10
4690.909943183353
 20
3135.114516284404
 30
0.0
  0
VERTEX
  5
1E9
330
1E5
100
AcDbEntity
  8
3_ANYTOOL_CUTTHROUGH_INSID
100
AcDbVertex
100
AcDb2dVertex
 10
4703.409943183353
 20
3135.114516284411
 30
0.0
  0
VERTEX
  5
1EA
330
1E5
100
AcDbEntity
  8
3_ANYTOOL_CUTTHROUGH_INSID
100
AcDbVertex
100
AcDb2dVertex
 10
4703.409943183346
 20
3086.614516284411
 30
0.0
  0
VERTEX
  5
1EB
330
1E5
100
AcDbEntity
  8
3_ANYTOOL_CUTTHROUGH_INSID
100
AcDbVertex
100
AcDb2dVertex
 10
4690.909943183346
 20
3086.614516284404
 30
0.0
  0
VERTEX
  5
1EC
330
1E5
100
AcDbEntity
  8
3_ANYTOOL_CUTTHROUGH_INSID
100
AcDbVertex
100
AcDb2dVertex
 10
4690.909943183349
 20
3092.614516284397
 30
0.0
  0
VERTEX
  5
1ED
330
1E5
100
AcDbEntity
  8
3_ANYTOOL_CUTTHROUGH_INSID
100
AcDbVertex
100
AcDb2dVertex
 10
4655.409943183698
 20
3092.614516284397
 30
0.0
  0
VERTEX
  5
1EE
330
1E5
100
AcDbEntity
  8
3_ANYTOOL_CUTTHROUGH_INSID
100
AcDbVertex
100
AcDb2dVertex
 10
4655.409943183695
 20
3086.614516284397
 30
0.0
  0
VERTEX
  5
1EF
330
1E5
100
AcDbEntity
  8
3_ANYTOOL_CUTTHROUGH_INSID
100
AcDbVertex
100
AcDb2dVertex
 10
4642.909943183698
 20
3086.614516284397
 30
0.0
  0
VERTEX
  5
1F0
330
1E5
100
AcDbEntity
  8
3_ANYTOOL_CUTTHROUGH_INSID
100
AcDbVertex
100
AcDb2dVertex
 10
4642.909943183702
 20
3135.114516284397
 30
0.0
  0
VERTEX
  5
1F1
330
1E5
100
AcDbEntity
  8
3_ANYTOOL_CUTTHROUGH_INSID
100
AcDbVertex
100
AcDb2dVertex
 10
4655.409943183702
 20
3135.114516284397
 30
0.0
  0
SEQEND
  5
1F2
330
1E5
100
AcDbEntity
  8
3_ANYTOOL_CUTTHROUGH_INSID
  0
POLYLINE
  5
1F3
330
1F
100
AcDbEntity
  8
3_ANYTOOL_CUTTHROUGH_INSID
100
AcDb2dPolyline
 66
     1
 10
0.0
 20
0.0
 30
0.0
 70
     1
  0
VERTEX
  5
1F4
330
1F3
100
AcDbEntity
  8
3_ANYTOOL_CUTTHROUGH_INSID
100
AcDbVertex
100
AcDb2dVertex
 10
5203.409943181861
 20
2650.614516284419
 30
0.0
  0
VERTEX
  5
1F5
330
1F3
100
AcDbEntity
  8
3_ANYTOOL_CUTTHROUGH_INSID
100
AcDbVertex
100
AcDb2dVertex
 10
5190.909943181861
 20
2650.614516284426
 30
0.0
  0
VERTEX
  5
1F6
330
1F3
100
AcDbEntity
  8
3_ANYTOOL_CUTTHROUGH_INSID
100
AcDbVertex
100
AcDb2dVertex
 10
5190.909943181865
 20
2656.614516284426
 30
0.0
  0
VERTEX
  5
1F7
330
1F3
100
AcDbEntity
  8
3_ANYTOOL_CUTTHROUGH_INSID
100
AcDbVertex
100
AcDb2dVertex
 10
5155.409943181865
 20
2656.614516284426
 30
0.0
  0
VERTEX
  5
1F8
330
1F3
100
AcDbEntity
  8
3_ANYTOOL_CUTTHROUGH_INSID
100
AcDbVertex
100
AcDb2dVertex
 10
5155.409943181861
 20
2650.614516284426
 30
0.0
  0
VERTEX
  5
1F9
330
1F3
100
AcDbEntity
  8
3_ANYTOOL_CUTTHROUGH_INSID
100
AcDbVertex
100
AcDb2dVertex
 10
5142.909943181861
 20
2650.614516284426
 30
0.0
  0
VERTEX
  5
1FA
330
1F3
100
AcDbEntity
  8
3_ANYTOOL_CUTTHROUGH_INSID
100
AcDbVertex
100
AcDb2dVertex
 10
5142.909943181872
 20
2699.114516284426
 30
0.0
  0
VERTEX
  5
1FB
330
1F3
100
AcDbEntity
  8
3_ANYTOOL_CUTTHROUGH_INSID
100
AcDbVertex
100
AcDb2dVertex
 10
5155.409943181872
 20
2699.114516284426
 30
0.0
  0
VERTEX
  5
1FC
330
1F3
100
AcDbEntity
  8
3_ANYTOOL_CUTTHROUGH_INSID
100
AcDbVertex
100
AcDb2dVertex
 10
5155.409943181865
 20
2693.114516284426
 30
0.0
  0
VERTEX
  5
1FD
330
1F3
100
AcDbEntity
  8
3_ANYTOOL_CUTTHROUGH_INSID
100
AcDbVertex
100
AcDb2dVertex
 10
5190.909943181865
 20
2693.114516284419
 30
0.0
  0
VERTEX
  5
1FE
330
1F3
100
AcDbEntity
  8
3_ANYTOOL_CUTTHROUGH_INSID
100
AcDbVertex
100
AcDb2dVertex
 10
5190.909943181869
 20
2699.114516284426
 30
0.0
  0
VERTEX
  5
1FF
330
1F3
100
AcDbEntity
  8
3_ANYTOOL_CUTTHROUGH_INSID
100
AcDbVertex
100
AcDb2dVertex
 10
5203.409943181869
 20
2699.114516284419
 30
0.0
  0
SEQEND
  5
200
330
1F3
100
AcDbEntity
  8
3_ANYTOOL_CUTTHROUGH_INSID
  0
POLYLINE
  5
201
330
1F
100
AcDbEntity
  8
3_ANYTOOL_CUTTHROUGH_INSID
100
AcDb2dPolyline
 66
     1
 10
0.0
 20
0.0
 30
0.0
 70
     1
  0
VERTEX
  5
202
330
201
100
AcDbEntity
  8
3_ANYTOOL_CUTTHROUGH_INSID
100
AcDbVertex
100
AcDb2dVertex
 10
5190.90994318189
 20
3092.614516284426
 30
0.0
  0
VERTEX
  5
203
330
201
100
AcDbEntity
  8
3_ANYTOOL_CUTTHROUGH_INSID
100
AcDbVertex
100
AcDb2dVertex
 10
5155.409943181912
 20
3092.614516284426
 30
0.0
  0
VERTEX
  5
204
330
201
100
AcDbEntity
  8
3_ANYTOOL_CUTTHROUGH_INSID
100
AcDbVertex
100
AcDb2dVertex
 10
5155.409943181912
 20
3086.614516284426
 30
0.0
  0
VERTEX
  5
205
330
201
100
AcDbEntity
  8
3_ANYTOOL_CUTTHROUGH_INSID
100
AcDbVertex
100
AcDb2dVertex
 10
5142.909943181912
 20
3086.614516284426
 30
0.0
  0
VERTEX
  5
206
330
201
100
AcDbEntity
  8
3_ANYTOOL_CUTTHROUGH_INSID
100
AcDbVertex
100
AcDb2dVertex
 10
5142.909943181916
 20
3135.114516284426
 30
0.0
  0
VERTEX
  5
207
330
201
100
AcDbEntity
  8
3_ANYTOOL_CUTTHROUGH_INSID
100
AcDbVertex
100
AcDb2dVertex
 10
5155.409943181916
 20
3135.114516284426
 30
0.0
  0
VERTEX
  5
208
330
201
100
AcDbEntity
  8
3_ANYTOOL_CUTTHROUGH_INSID
100
AcDbVertex
100
AcDb2dVertex
 10
5155.409943181916
 20
3129.114516284426
 30
0.0
  0
VERTEX
  5
209
330
201
100
AcDbEntity
  8
3_ANYTOOL_CUTTHROUGH_INSID
100
AcDbVertex
100
AcDb2dVertex
 10
5190.909943181894
 20
3129.114516284426
 30
0.0
  0
VERTEX
  5
20A
330
201
100
AcDbEntity
  8
3_ANYTOOL_CUTTHROUGH_INSID
100
AcDbVertex
100
AcDb2dVertex
 10
5190.909943181894
 20
3135.114516284426
 30
0.0
  0
VERTEX
  5
20B
330
201
100
AcDbEntity
  8
3_ANYTOOL_CUTTHROUGH_INSID
100
AcDbVertex
100
AcDb2dVertex
 10
5203.409943181894
 20
3135.114516284419
 30
0.0
  0
VERTEX
  5
20C
330
201
100
AcDbEntity
  8
3_ANYTOOL_CUTTHROUGH_INSID
100
AcDbVertex
100
AcDb2dVertex
 10
5203.40994318189
 20
3086.614516284419
 30
0.0
  0
VERTEX
  5
20D
330
201
100
AcDbEntity
  8
3_ANYTOOL_CUTTHROUGH_INSID
100
AcDbVertex
100
AcDb2dVertex
 10
5190.90994318189
 20
3086.614516284426
 30
0.0
  0
SEQEND
  5
20E
330
201
100
AcDbEntity
  8
3_ANYTOOL_CUTTHROUGH_INSID
  0
POLYLINE
  5
20F
330
1F
100
AcDbEntity
  8
3_ANYTOOL_CUTTHROUGH_INSID
100
AcDb2dPolyline
 66
     1
 10
0.0
 20
0.0
 30
0.0
 70
     1
  0
VERTEX
  5
210
330
20F
100
AcDbEntity
  8
3_ANYTOOL_CUTTHROUGH_INSID
100
AcDbVertex
100
AcDb2dVertex
 10
4655.409943183629
 20
2529.11451628439
 30
0.0
  0
VERTEX
  5
211
330
20F
100
AcDbEntity
  8
3_ANYTOOL_CUTTHROUGH_INSID
100
AcDbVertex
100
AcDb2dVertex
 10
4690.90994318328
 20
2529.114516284397
 30
0.0
  0
VERTEX
  5
212
330
20F
100
AcDbEntity
  8
3_ANYTOOL_CUTTHROUGH_INSID
100
AcDbVertex
100
AcDb2dVertex
 10
4690.909943183276
 20
2535.11451628439
 30
0.0
  0
VERTEX
  5
213
330
20F
100
AcDbEntity
  8
3_ANYTOOL_CUTTHROUGH_INSID
100
AcDbVertex
100
AcDb2dVertex
 10
4703.409943183276
 20
2535.114516284404
 30
0.0
  0
VERTEX
  5
214
330
20F
100
AcDbEntity
  8
3_ANYTOOL_CUTTHROUGH_INSID
100
AcDbVertex
100
AcDb2dVertex
 10
4703.409943183273
 20
2486.614516284397
 30
0.0
  0
VERTEX
  5
215
330
20F
100
AcDbEntity
  8
3_ANYTOOL_CUTTHROUGH_INSID
100
AcDbVertex
100
AcDb2dVertex
 10
4690.909943183273
 20
2486.614516284382
 30
0.0
  0
VERTEX
  5
216
330
20F
100
AcDbEntity
  8
3_ANYTOOL_CUTTHROUGH_INSID
100
AcDbVertex
100
AcDb2dVertex
 10
4690.909943183276
 20
2492.614516284382
 30
0.0
  0
VERTEX
  5
217
330
20F
100
AcDbEntity
  8
3_ANYTOOL_CUTTHROUGH_INSID
100
AcDbVertex
100
AcDb2dVertex
 10
4655.409943183626
 20
2492.614516284375
 30
0.0
  0
VERTEX
  5
218
330
20F
100
AcDbEntity
  8
3_ANYTOOL_CUTTHROUGH_INSID
100
AcDbVertex
100
AcDb2dVertex
 10
4655.409943183622
 20
2486.614516284382
 30
0.0
  0
VERTEX
  5
219
330
20F
100
AcDbEntity
  8
3_ANYTOOL_CUTTHROUGH_INSID
100
AcDbVertex
100
AcDb2dVertex
 10
4642.909943183622
 20
2486.614516284382
 30
0.0
  0
VERTEX
  5
21A
330
20F
100
AcDbEntity
  8
3_ANYTOOL_CUTTHROUGH_INSID
100
AcDbVertex
100
AcDb2dVertex
 10
4642.909943183626
 20
2535.11451628439
 30
0.0
  0
VERTEX
  5
21B
330
20F
100
AcDbEntity
  8
3_ANYTOOL_CUTTHROUGH_INSID
100
AcDbVertex
100
AcDb2dVertex
 10
4655.409943183626
 20
2535.11451628439
 30
0.0
  0
SEQEND
  5
21C
330
20F
100
AcDbEntity
  8
3_ANYTOOL_CUTTHROUGH_INSID
  0
POLYLINE
  5
21D
330
1F
100
AcDbEntity
  8
3_ANYTOOL_CUTTHROUGH_INSID
100
AcDb2dPolyline
 66
     1
 10
0.0
 20
0.0
 30
0.0
 70
     1
  0
VERTEX
  5
21E
330
21D
100
AcDbEntity
  8
3_ANYTOOL_CUTTHROUGH_INSID
100
AcDbVertex
100
AcDb2dVertex
 10
5155.409943181843
 20
2529.114516284419
 30
0.0
  0
VERTEX
  5
21F
330
21D
100
AcDbEntity
  8
3_ANYTOOL_CUTTHROUGH_INSID
100
AcDbVertex
100
AcDb2dVertex
 10
5190.909943181821
 20
2529.114516284419
 30
0.0
  0
VERTEX
  5
220
330
21D
100
AcDbEntity
  8
3_ANYTOOL_CUTTHROUGH_INSID
100
AcDbVertex
100
AcDb2dVertex
 10
5190.909943181821
 20
2535.114516284419
 30
0.0
  0
VERTEX
  5
221
330
21D
100
AcDbEntity
  8
3_ANYTOOL_CUTTHROUGH_INSID
100
AcDbVertex
100
AcDb2dVertex
 10
5203.409943181821
 20
2535.114516284411
 30
0.0
  0
VERTEX
  5
222
330
21D
100
AcDbEntity
  8
3_ANYTOOL_CUTTHROUGH_INSID
100
AcDbVertex
100
AcDb2dVertex
 10
5203.409943181818
 20
2486.614516284404
 30
0.0
  0
VERTEX
  5
223
330
21D
100
AcDbEntity
  8
3_ANYTOOL_CUTTHROUGH_INSID
100
AcDbVertex
100
AcDb2dVertex
 10
5190.909943181818
 20
2486.614516284411
 30
0.0
  0
VERTEX
  5
224
330
21D
100
AcDbEntity
  8
3_ANYTOOL_CUTTHROUGH_INSID
100
AcDbVertex
100
AcDb2dVertex
 10
5190.909943181818
 20
2492.614516284404
 30
0.0
  0
VERTEX
  5
225
330
21D
100
AcDbEntity
  8
3_ANYTOOL_CUTTHROUGH_INSID
100
AcDbVertex
100
AcDb2dVertex
 10
5155.409943181839
 20
2492.614516284411
 30
0.0
  0
VERTEX
  5
226
330
21D
100
AcDbEntity
  8
3_ANYTOOL_CUTTHROUGH_INSID
100
AcDbVertex
100
AcDb2dVertex
 10
5155.409943181839
 20
2486.614516284411
 30
0.0
  0
VERTEX
  5
227
330
21D
100
AcDbEntity
  8
3_ANYTOOL_CUTTHROUGH_INSID
100
AcDbVertex
100
AcDb2dVertex
 10
5142.909943181839
 20
2486.614516284411
 30
0.0
  0
VERTEX
  5
228
330
21D
100
AcDbEntity
  8
3_ANYTOOL_CUTTHROUGH_INSID
100
AcDbVertex
100
AcDb2dVertex
 10
5142.909943181839
 20
2535.114516284419
 30
0.0
  0
VERTEX
  5
229
330
21D
100
AcDbEntity
  8
3_ANYTOOL_CUTTHROUGH_INSID
100
AcDbVertex
100
AcDb2dVertex
 10
5155.409943181839
 20
2535.114516284419
 30
0.0
  0
SEQEND
  5
22A
330
21D
100
AcDbEntity
  8
3_ANYTOOL_CUTTHROUGH_INSID
  0
POLYLINE
  5
22B
330
1F
100
AcDbEntity
  8
3_ANYTOOL_CUTTHROUGH_INSID
100
AcDb2dPolyline
 66
     1
 10
0.0
 20
0.0
 30
0.0
 70
     1
  0
VERTEX
  5
22C
330
22B
100
AcDbEntity
  8
3_ANYTOOL_CUTTHROUGH_INSID
100
AcDbVertex
100
AcDb2dVertex
 10
4026.909943181872
 20
2050.614516284404
 30
0.0
  0
VERTEX
  5
22D
330
22B
100
AcDbEntity
  8
3_ANYTOOL_CUTTHROUGH_INSID
100
AcDbVertex
100
AcDb2dVertex
 10
4039.409943181872
 20
2050.614516284411
 30
0.0
  0
VERTEX
  5
22E
330
22B
100
AcDbEntity
  8
3_ANYTOOL_CUTTHROUGH_INSID
100
AcDbVertex
100
AcDb2dVertex
 10
4039.409943181869
 20
2056.614516284411
 30
0.0
  0
VERTEX
  5
22F
330
22B
100
AcDbEntity
  8
3_ANYTOOL_CUTTHROUGH_INSID
100
AcDbVertex
100
AcDb2dVertex
 10
4074.909943181865
 20
2056.614516284411
 30
0.0
  0
VERTEX
  5
230
330
22B
100
AcDbEntity
  8
3_ANYTOOL_CUTTHROUGH_INSID
100
AcDbVertex
100
AcDb2dVertex
 10
4074.909943181872
 20
2050.614516284411
 30
0.0
  0
VERTEX
  5
231
330
22B
100
AcDbEntity
  8
3_ANYTOOL_CUTTHROUGH_INSID
100
AcDbVertex
100
AcDb2dVertex
 10
4087.409943181872
 20
2050.614516284411
 30
0.0
  0
VERTEX
  5
232
330
22B
100
AcDbEntity
  8
3_ANYTOOL_CUTTHROUGH_INSID
100
AcDbVertex
100
AcDb2dVertex
 10
4087.409943181861
 20
2099.114516284411
 30
0.0
  0
VERTEX
  5
233
330
22B
100
AcDbEntity
  8
3_ANYTOOL_CUTTHROUGH_INSID
100
AcDbVertex
100
AcDb2dVertex
 10
4074.909943181861
 20
2099.114516284411
 30
0.0
  0
VERTEX
  5
234
330
22B
100
AcDbEntity
  8
3_ANYTOOL_CUTTHROUGH_INSID
100
AcDbVertex
100
AcDb2dVertex
 10
4074.909943181865
 20
2093.114516284411
 30
0.0
  0
VERTEX
  5
235
330
22B
100
AcDbEntity
  8
3_ANYTOOL_CUTTHROUGH_INSID
100
AcDbVertex
100
AcDb2dVertex
 10
4039.409943181865
 20
2093.114516284404
 30
0.0
  0
VERTEX
  5
236
330
22B
100
AcDbEntity
  8
3_ANYTOOL_CUTTHROUGH_INSID
100
AcDbVertex
100
AcDb2dVertex
 10
4039.409943181861
 20
2099.114516284411
 30
0.0
  0
VERTEX
  5
237
330
22B
100
AcDbEntity
  8
3_ANYTOOL_CUTTHROUGH_INSID
100
AcDbVertex
100
AcDb2dVertex
 10
4026.909943181861
 20
2099.114516284404
 30
0.0
  0
SEQEND
  5
238
330
22B
100
AcDbEntity
  8
3_ANYTOOL_CUTTHROUGH_INSID
  0
POLYLINE
  5
239
330
1F
100
AcDbEntity
  8
3_ANYTOOL_CUTTHROUGH_INSID
100
AcDb2dPolyline
 66
     1
 10
0.0
 20
0.0
 30
0.0
 70
     1
  0
VERTEX
  5
23A
330
239
100
AcDbEntity
  8
3_ANYTOOL_CUTTHROUGH_INSID
100
AcDbVertex
100
AcDb2dVertex
 10
4074.90994318189
 20
1929.114516284404
 30
0.0
  0
VERTEX
  5
23B
330
239
100
AcDbEntity
  8
3_ANYTOOL_CUTTHROUGH_INSID
100
AcDbVertex
100
AcDb2dVertex
 10
4039.409943181912
 20
1929.114516284404
 30
0.0
  0
VERTEX
  5
23C
330
239
100
AcDbEntity
  8
3_ANYTOOL_CUTTHROUGH_INSID
100
AcDbVertex
100
AcDb2dVertex
 10
4039.409943181909
 20
1935.114516284404
 30
0.0
  0
VERTEX
  5
23D
330
239
100
AcDbEntity
  8
3_ANYTOOL_CUTTHROUGH_INSID
100
AcDbVertex
100
AcDb2dVertex
 10
4026.909943181909
 20
1935.114516284397
 30
0.0
  0
VERTEX
  5
23E
330
239
100
AcDbEntity
  8
3_ANYTOOL_CUTTHROUGH_INSID
100
AcDbVertex
100
AcDb2dVertex
 10
4026.909943181916
 20
1886.614516284397
 30
0.0
  0
VERTEX
  5
23F
330
239
100
AcDbEntity
  8
3_ANYTOOL_CUTTHROUGH_INSID
100
AcDbVertex
100
AcDb2dVertex
 10
4039.409943181916
 20
1886.614516284404
 30
0.0
  0
VERTEX
  5
240
330
239
100
AcDbEntity
  8
3_ANYTOOL_CUTTHROUGH_INSID
100
AcDbVertex
100
AcDb2dVertex
 10
4039.409943181916
 20
1892.614516284397
 30
0.0
  0
VERTEX
  5
241
330
239
100
AcDbEntity
  8
3_ANYTOOL_CUTTHROUGH_INSID
100
AcDbVertex
100
AcDb2dVertex
 10
4074.909943181894
 20
1892.614516284404
 30
0.0
  0
VERTEX
  5
242
330
239
100
AcDbEntity
  8
3_ANYTOOL_CUTTHROUGH_INSID
100
AcDbVertex
100
AcDb2dVertex
 10
4074.909943181894
 20
1886.614516284404
 30
0.0
  0
VERTEX
  5
243
330
239
100
AcDbEntity
  8
3_ANYTOOL_CUTTHROUGH_INSID
100
AcDbVertex
100
AcDb2dVertex
 10
4087.409943181894
 20
1886.614516284404
 30
0.0
  0
VERTEX
  5
244
330
239
100
AcDbEntity
  8
3_ANYTOOL_CUTTHROUGH_INSID
100
AcDbVertex
100
AcDb2dVertex
 10
4087.40994318189
 20
1935.114516284404
 30
0.0
  0
VERTEX
  5
245
330
239
100
AcDbEntity
  8
3_ANYTOOL_CUTTHROUGH_INSID
100
AcDbVertex
100
AcDb2dVertex
 10
4074.90994318189
 20
1935.114516284404
 30
0.0
  0
SEQEND
  5
246
330
239
100
AcDbEntity
  8
3_ANYTOOL_CUTTHROUGH_INSID
  0
POLYLINE
  5
247
330
1F
100
AcDbEntity
  8
3_ANYTOOL_CUTTHROUGH_INSID
100
AcDb2dPolyline
 66
     1
 10
0.0
 20
0.0
 30
0.0
 70
     1
  0
VERTEX
  5
248
330
247
100
AcDbEntity
  8
3_ANYTOOL_CUTTHROUGH_INSID
100
AcDbVertex
100
AcDb2dVertex
 10
4074.909943181956
 20
1329.11451628439
 30
0.0
  0
VERTEX
  5
249
330
247
100
AcDbEntity
  8
3_ANYTOOL_CUTTHROUGH_INSID
100
AcDbVertex
100
AcDb2dVertex
 10
4039.409943181978
 20
1329.11451628439
 30
0.0
  0
VERTEX
  5
24A
330
247
100
AcDbEntity
  8
3_ANYTOOL_CUTTHROUGH_INSID
100
AcDbVertex
100
AcDb2dVertex
 10
4039.409943181978
 20
1335.11451628439
 30
0.0
  0
VERTEX
  5
24B
330
247
100
AcDbEntity
  8
3_ANYTOOL_CUTTHROUGH_INSID
100
AcDbVertex
100
AcDb2dVertex
 10
4026.909943181978
 20
1335.114516284382
 30
0.0
  0
VERTEX
  5
24C
330
247
100
AcDbEntity
  8
3_ANYTOOL_CUTTHROUGH_INSID
100
AcDbVertex
100
AcDb2dVertex
 10
4026.909943181981
 20
1286.614516284382
 30
0.0
  0
VERTEX
  5
24D
330
247
100
AcDbEntity
  8
3_ANYTOOL_CUTTHROUGH_INSID
100
AcDbVertex
100
AcDb2dVertex
 10
4039.409943181981
 20
1286.614516284382
 30
0.0
  0
VERTEX
  5
24E
330
247
100
AcDbEntity
  8
3_ANYTOOL_CUTTHROUGH_INSID
100
AcDbVertex
100
AcDb2dVertex
 10
4039.409943181981
 20
1292.614516284382
 30
0.0
  0
VERTEX
  5
24F
330
247
100
AcDbEntity
  8
3_ANYTOOL_CUTTHROUGH_INSID
100
AcDbVertex
100
AcDb2dVertex
 10
4074.909943181963
 20
1292.61451628439
 30
0.0
  0
VERTEX
  5
250
330
247
100
AcDbEntity
  8
3_ANYTOOL_CUTTHROUGH_INSID
100
AcDbVertex
100
AcDb2dVertex
 10
4074.90994318196
 20
1286.61451628439
 30
0.0
  0
VERTEX
  5
251
330
247
100
AcDbEntity
  8
3_ANYTOOL_CUTTHROUGH_INSID
100
AcDbVertex
100
AcDb2dVertex
 10
4087.40994318196
 20
1286.61451628439
 30
0.0
  0
VERTEX
  5
252
330
247
100
AcDbEntity
  8
3_ANYTOOL_CUTTHROUGH_INSID
100
AcDbVertex
100
AcDb2dVertex
 10
4087.409943181956
 20
1335.11451628439
 30
0.0
  0
VERTEX
  5
253
330
247
100
AcDbEntity
  8
3_ANYTOOL_CUTTHROUGH_INSID
100
AcDbVertex
100
AcDb2dVertex
 10
4074.909943181956
 20
1335.11451628439
 30
0.0
  0
SEQEND
  5
254
330
247
100
AcDbEntity
  8
3_ANYTOOL_CUTTHROUGH_INSID
  0
POLYLINE
  5
255
330
1F
100
AcDbEntity
  8
3_ANYTOOL_CUTTHROUGH_INSID
100
AcDb2dPolyline
 66
     1
 10
0.0
 20
0.0
 30
0.0
 70
     1
  0
VERTEX
  5
256
330
255
100
AcDbEntity
  8
3_ANYTOOL_CUTTHROUGH_INSID
100
AcDbVertex
100
AcDb2dVertex
 10
4574.90994318017
 20
1329.11451628436
 30
0.0
  0
VERTEX
  5
257
330
255
100
AcDbEntity
  8
3_ANYTOOL_CUTTHROUGH_INSID
100
AcDbVertex
100
AcDb2dVertex
 10
4539.409943180515
 20
1329.11451628436
 30
0.0
  0
VERTEX
  5
258
330
255
100
AcDbEntity
  8
3_ANYTOOL_CUTTHROUGH_INSID
100
AcDbVertex
100
AcDb2dVertex
 10
4539.409943180519
 20
1335.11451628436
 30
0.0
  0
VERTEX
  5
259
330
255
100
AcDbEntity
  8
3_ANYTOOL_CUTTHROUGH_INSID
100
AcDbVertex
100
AcDb2dVertex
 10
4526.909943180519
 20
1335.114516284375
 30
0.0
  0
VERTEX
  5
25A
330
255
100
AcDbEntity
  8
3_ANYTOOL_CUTTHROUGH_INSID
100
AcDbVertex
100
AcDb2dVertex
 10
4526.909943180526
 20
1286.614516284375
 30
0.0
  0
VERTEX
  5
25B
330
255
100
AcDbEntity
  8
3_ANYTOOL_CUTTHROUGH_INSID
100
AcDbVertex
100
AcDb2dVertex
 10
4539.409943180526
 20
1286.61451628436
 30
0.0
  0
VERTEX
  5
25C
330
255
100
AcDbEntity
  8
3_ANYTOOL_CUTTHROUGH_INSID
100
AcDbVertex
100
AcDb2dVertex
 10
4539.409943180523
 20
1292.61451628436
 30
0.0
  0
VERTEX
  5
25D
330
255
100
AcDbEntity
  8
3_ANYTOOL_CUTTHROUGH_INSID
100
AcDbVertex
100
AcDb2dVertex
 10
4574.909943180173
 20
1292.614516284353
 30
0.0
  0
VERTEX
  5
25E
330
255
100
AcDbEntity
  8
3_ANYTOOL_CUTTHROUGH_INSID
100
AcDbVertex
100
AcDb2dVertex
 10
4574.909943180177
 20
1286.614516284353
 30
0.0
  0
VERTEX
  5
25F
330
255
100
AcDbEntity
  8
3_ANYTOOL_CUTTHROUGH_INSID
100
AcDbVertex
100
AcDb2dVertex
 10
4587.409943180177
 20
1286.614516284353
 30
0.0
  0
VERTEX
  5
260
330
255
100
AcDbEntity
  8
3_ANYTOOL_CUTTHROUGH_INSID
100
AcDbVertex
100
AcDb2dVertex
 10
4587.40994318017
 20
1335.114516284353
 30
0.0
  0
VERTEX
  5
261
330
255
100
AcDbEntity
  8
3_ANYTOOL_CUTTHROUGH_INSID
100
AcDbVertex
100
AcDb2dVertex
 10
4574.90994318017
 20
1335.114516284353
 30
0.0
  0
SEQEND
  5
262
330
255
100
AcDbEntity
  8
3_ANYTOOL_CUTTHROUGH_INSID
  0
POLYLINE
  5
263
330
1F
100
AcDbEntity
  8
3_ANYTOOL_CUTTHROUGH_INSID
100
AcDb2dPolyline
 66
     1
 10
0.0
 20
0.0
 30
0.0
 70
     1
  0
VERTEX
  5
264
330
263
100
AcDbEntity
  8
3_ANYTOOL_CUTTHROUGH_INSID
100
AcDbVertex
100
AcDb2dVertex
 10
4074.909943181934
 20
1499.114516284404
 30
0.0
  0
VERTEX
  5
265
330
263
100
AcDbEntity
  8
3_ANYTOOL_CUTTHROUGH_INSID
100
AcDbVertex
100
AcDb2dVertex
 10
4074.909943181938
 20
1493.114516284404
 30
0.0
  0
VERTEX
  5
266
330
263
100
AcDbEntity
  8
3_ANYTOOL_CUTTHROUGH_INSID
100
AcDbVertex
100
AcDb2dVertex
 10
4039.409943181941
 20
1493.11451628439
 30
0.0
  0
VERTEX
  5
267
330
263
100
AcDbEntity
  8
3_ANYTOOL_CUTTHROUGH_INSID
100
AcDbVertex
100
AcDb2dVertex
 10
4039.409943181934
 20
1499.114516284404
 30
0.0
  0
VERTEX
  5
268
330
263
100
AcDbEntity
  8
3_ANYTOOL_CUTTHROUGH_INSID
100
AcDbVertex
100
AcDb2dVertex
 10
4026.909943181934
 20
1499.114516284397
 30
0.0
  0
VERTEX
  5
269
330
263
100
AcDbEntity
  8
3_ANYTOOL_CUTTHROUGH_INSID
100
AcDbVertex
100
AcDb2dVertex
 10
4026.909943181945
 20
1450.614516284397
 30
0.0
  0
VERTEX
  5
26A
330
263
100
AcDbEntity
  8
3_ANYTOOL_CUTTHROUGH_INSID
100
AcDbVertex
100
AcDb2dVertex
 10
4039.409943181945
 20
1450.614516284404
 30
0.0
  0
VERTEX
  5
26B
330
263
100
AcDbEntity
  8
3_ANYTOOL_CUTTHROUGH_INSID
100
AcDbVertex
100
AcDb2dVertex
 10
4039.409943181938
 20
1456.614516284397
 30
0.0
  0
VERTEX
  5
26C
330
263
100
AcDbEntity
  8
3_ANYTOOL_CUTTHROUGH_INSID
100
AcDbVertex
100
AcDb2dVertex
 10
4074.909943181938
 20
1456.614516284404
 30
0.0
  0
VERTEX
  5
26D
330
263
100
AcDbEntity
  8
3_ANYTOOL_CUTTHROUGH_INSID
100
AcDbVertex
100
AcDb2dVertex
 10
4074.909943181945
 20
1450.614516284404
 30
0.0
  0
VERTEX
  5
26E
330
263
100
AcDbEntity
  8
3_ANYTOOL_CUTTHROUGH_INSID
100
AcDbVertex
100
AcDb2dVertex
 10
4087.409943181945
 20
1450.614516284404
 30
0.0
  0
VERTEX
  5
26F
330
263
100
AcDbEntity
  8
3_ANYTOOL_CUTTHROUGH_INSID
100
AcDbVertex
100
AcDb2dVertex
 10
4087.409943181934
 20
1499.114516284404
 30
0.0
  0
SEQEND
  5
270
330
263
100
AcDbEntity
  8
3_ANYTOOL_CUTTHROUGH_INSID
  0
POLYLINE
  5
271
330
1F
100
AcDbEntity
  8
3_ANYTOOL_CUTTHROUGH_INSID
100
AcDb2dPolyline
 66
     1
 10
0.0
 20
0.0
 30
0.0
 70
     1
  0
VERTEX
  5
272
330
271
100
AcDbEntity
  8
3_ANYTOOL_CUTTHROUGH_INSID
100
AcDbVertex
100
AcDb2dVertex
 10
4574.909943180148
 20
1499.114516284375
 30
0.0
  0
VERTEX
  5
273
330
271
100
AcDbEntity
  8
3_ANYTOOL_CUTTHROUGH_INSID
100
AcDbVertex
100
AcDb2dVertex
 10
4574.909943180148
 20
1493.11451628436
 30
0.0
  0
VERTEX
  5
274
330
271
100
AcDbEntity
  8
3_ANYTOOL_CUTTHROUGH_INSID
100
AcDbVertex
100
AcDb2dVertex
 10
4539.409943180501
 20
1493.114516284368
 30
0.0
  0
VERTEX
  5
275
330
271
100
AcDbEntity
  8
3_ANYTOOL_CUTTHROUGH_INSID
100
AcDbVertex
100
AcDb2dVertex
 10
4539.409943180497
 20
1499.114516284375
 30
0.0
  0
VERTEX
  5
276
330
271
100
AcDbEntity
  8
3_ANYTOOL_CUTTHROUGH_INSID
100
AcDbVertex
100
AcDb2dVertex
 10
4526.909943180497
 20
1499.11451628439
 30
0.0
  0
VERTEX
  5
277
330
271
100
AcDbEntity
  8
3_ANYTOOL_CUTTHROUGH_INSID
100
AcDbVertex
100
AcDb2dVertex
 10
4526.909943180512
 20
1450.61451628439
 30
0.0
  0
VERTEX
  5
278
330
271
100
AcDbEntity
  8
3_ANYTOOL_CUTTHROUGH_INSID
100
AcDbVertex
100
AcDb2dVertex
 10
4539.409943180512
 20
1450.614516284375
 30
0.0
  0
VERTEX
  5
279
330
271
100
AcDbEntity
  8
3_ANYTOOL_CUTTHROUGH_INSID
100
AcDbVertex
100
AcDb2dVertex
 10
4539.409943180501
 20
1456.614516284375
 30
0.0
  0
VERTEX
  5
27A
330
271
100
AcDbEntity
  8
3_ANYTOOL_CUTTHROUGH_INSID
100
AcDbVertex
100
AcDb2dVertex
 10
4574.909943180151
 20
1456.614516284368
 30
0.0
  0
VERTEX
  5
27B
330
271
100
AcDbEntity
  8
3_ANYTOOL_CUTTHROUGH_INSID
100
AcDbVertex
100
AcDb2dVertex
 10
4574.909943180159
 20
1450.614516284375
 30
0.0
  0
VERTEX
  5
27C
330
271
100
AcDbEntity
  8
3_ANYTOOL_CUTTHROUGH_INSID
100
AcDbVertex
100
AcDb2dVertex
 10
4587.409943180159
 20
1450.614516284375
 30
0.0
  0
VERTEX
  5
27D
330
271
100
AcDbEntity
  8
3_ANYTOOL_CUTTHROUGH_INSID
100
AcDbVertex
100
AcDb2dVertex
 10
4587.409943180148
 20
1499.114516284375
 30
0.0
  0
SEQEND
  5
27E
330
271
100
AcDbEntity
  8
3_ANYTOOL_CUTTHROUGH_INSID
  0
POLYLINE
  5
27F
330
1F
100
AcDbEntity
  8
3_ANYTOOL_CUTTHROUGH_INSID
100
AcDb2dPolyline
 66
     1
 10
0.0
 20
0.0
 30
0.0
 70
     1
  0
VERTEX
  5
280
330
27F
100
AcDbEntity
  8
3_ANYTOOL_CUTTHROUGH_INSID
100
AcDbVertex
100
AcDb2dVertex
 10
4539.409943180384
 20
2699.114516284404
 30
0.0
  0
VERTEX
  5
281
330
27F
100
AcDbEntity
  8
3_ANYTOOL_CUTTHROUGH_INSID
100
AcDbVertex
100
AcDb2dVertex
 10
4526.909943180384
 20
2699.114516284411
 30
0.0
  0
VERTEX
  5
282
330
27F
100
AcDbEntity
  8
3_ANYTOOL_CUTTHROUGH_INSID
100
AcDbVertex
100
AcDb2dVertex
 10
4526.909943180399
 20
2650.614516284411
 30
0.0
  0
VERTEX
  5
283
330
27F
100
AcDbEntity
  8
3_ANYTOOL_CUTTHROUGH_INSID
100
AcDbVertex
100
AcDb2dVertex
 10
4539.409943180399
 20
2650.614516284404
 30
0.0
  0
VERTEX
  5
284
330
27F
100
AcDbEntity
  8
3_ANYTOOL_CUTTHROUGH_INSID
100
AcDbVertex
100
AcDb2dVertex
 10
4539.409943180392
 20
2656.614516284397
 30
0.0
  0
VERTEX
  5
285
330
27F
100
AcDbEntity
  8
3_ANYTOOL_CUTTHROUGH_INSID
100
AcDbVertex
100
AcDb2dVertex
 10
4574.909943180042
 20
2656.614516284397
 30
0.0
  0
VERTEX
  5
286
330
27F
100
AcDbEntity
  8
3_ANYTOOL_CUTTHROUGH_INSID
100
AcDbVertex
100
AcDb2dVertex
 10
4574.90994318005
 20
2650.614516284397
 30
0.0
  0
VERTEX
  5
287
330
27F
100
AcDbEntity
  8
3_ANYTOOL_CUTTHROUGH_INSID
100
AcDbVertex
100
AcDb2dVertex
 10
4587.40994318005
 20
2650.614516284397
 30
0.0
  0
VERTEX
  5
288
330
27F
100
AcDbEntity
  8
3_ANYTOOL_CUTTHROUGH_INSID
100
AcDbVertex
100
AcDb2dVertex
 10
4587.409943180035
 20
2699.114516284397
 30
0.0
  0
VERTEX
  5
289
330
27F
100
AcDbEntity
  8
3_ANYTOOL_CUTTHROUGH_INSID
100
AcDbVertex
100
AcDb2dVertex
 10
4574.909943180035
 20
2699.114516284397
 30
0.0
  0
VERTEX
  5
28A
330
27F
100
AcDbEntity
  8
3_ANYTOOL_CUTTHROUGH_INSID
100
AcDbVertex
100
AcDb2dVertex
 10
4574.909943180039
 20
2693.114516284382
 30
0.0
  0
VERTEX
  5
28B
330
27F
100
AcDbEntity
  8
3_ANYTOOL_CUTTHROUGH_INSID
100
AcDbVertex
100
AcDb2dVertex
 10
4539.409943180392
 20
2693.11451628439
 30
0.0
  0
SEQEND
  5
28C
330
27F
100
AcDbEntity
  8
3_ANYTOOL_CUTTHROUGH_INSID
  0
POLYLINE
  5
28D
330
1F
100
AcDbEntity
  8
3_ANYTOOL_CUTTHROUGH_INSID
100
AcDb2dPolyline
 66
     1
 10
0.0
 20
0.0
 30
0.0
 70
     1
  0
VERTEX
  5
28E
330
28D
100
AcDbEntity
  8
3_ANYTOOL_CUTTHROUGH_INSID
100
AcDbVertex
100
AcDb2dVertex
 10
4574.909943179991
 20
3129.114516284397
 30
0.0
  0
VERTEX
  5
28F
330
28D
100
AcDbEntity
  8
3_ANYTOOL_CUTTHROUGH_INSID
100
AcDbVertex
100
AcDb2dVertex
 10
4539.409943180341
 20
3129.114516284404
 30
0.0
  0
VERTEX
  5
290
330
28D
100
AcDbEntity
  8
3_ANYTOOL_CUTTHROUGH_INSID
100
AcDbVertex
100
AcDb2dVertex
 10
4539.409943180341
 20
3135.114516284404
 30
0.0
  0
VERTEX
  5
291
330
28D
100
AcDbEntity
  8
3_ANYTOOL_CUTTHROUGH_INSID
100
AcDbVertex
100
AcDb2dVertex
 10
4526.909943180341
 20
3135.114516284411
 30
0.0
  0
VERTEX
  5
292
330
28D
100
AcDbEntity
  8
3_ANYTOOL_CUTTHROUGH_INSID
100
AcDbVertex
100
AcDb2dVertex
 10
4526.909943180348
 20
3086.614516284411
 30
0.0
  0
VERTEX
  5
293
330
28D
100
AcDbEntity
  8
3_ANYTOOL_CUTTHROUGH_INSID
100
AcDbVertex
100
AcDb2dVertex
 10
4539.409943180348
 20
3086.614516284404
 30
0.0
  0
VERTEX
  5
294
330
28D
100
AcDbEntity
  8
3_ANYTOOL_CUTTHROUGH_INSID
100
AcDbVertex
100
AcDb2dVertex
 10
4539.409943180344
 20
3092.614516284397
 30
0.0
  0
VERTEX
  5
295
330
28D
100
AcDbEntity
  8
3_ANYTOOL_CUTTHROUGH_INSID
100
AcDbVertex
100
AcDb2dVertex
 10
4574.909943179995
 20
3092.614516284397
 30
0.0
  0
VERTEX
  5
296
330
28D
100
AcDbEntity
  8
3_ANYTOOL_CUTTHROUGH_INSID
100
AcDbVertex
100
AcDb2dVertex
 10
4574.909943179999
 20
3086.614516284397
 30
0.0
  0
VERTEX
  5
297
330
28D
100
AcDbEntity
  8
3_ANYTOOL_CUTTHROUGH_INSID
100
AcDbVertex
100
AcDb2dVertex
 10
4587.409943179995
 20
3086.614516284397
 30
0.0
  0
VERTEX
  5
298
330
28D
100
AcDbEntity
  8
3_ANYTOOL_CUTTHROUGH_INSID
100
AcDbVertex
100
AcDb2dVertex
 10
4587.409943179991
 20
3135.114516284397
 30
0.0
  0
VERTEX
  5
299
330
28D
100
AcDbEntity
  8
3_ANYTOOL_CUTTHROUGH_INSID
100
AcDbVertex
100
AcDb2dVertex
 10
4574.909943179991
 20
3135.114516284397
 30
0.0
  0
SEQEND
  5
29A
330
28D
100
AcDbEntity
  8
3_ANYTOOL_CUTTHROUGH_INSID
  0
POLYLINE
  5
29B
330
1F
100
AcDbEntity
  8
3_ANYTOOL_CUTTHROUGH_INSID
100
AcDb2dPolyline
 66
     1
 10
0.0
 20
0.0
 30
0.0
 70
     1
  0
VERTEX
  5
29C
330
29B
100
AcDbEntity
  8
3_ANYTOOL_CUTTHROUGH_INSID
100
AcDbVertex
100
AcDb2dVertex
 10
4026.909943181832
 20
2650.614516284419
 30
0.0
  0
VERTEX
  5
29D
330
29B
100
AcDbEntity
  8
3_ANYTOOL_CUTTHROUGH_INSID
100
AcDbVertex
100
AcDb2dVertex
 10
4039.409943181832
 20
2650.614516284426
 30
0.0
  0
VERTEX
  5
29E
330
29B
100
AcDbEntity
  8
3_ANYTOOL_CUTTHROUGH_INSID
100
AcDbVertex
100
AcDb2dVertex
 10
4039.409943181829
 20
2656.614516284426
 30
0.0
  0
VERTEX
  5
29F
330
29B
100
AcDbEntity
  8
3_ANYTOOL_CUTTHROUGH_INSID
100
AcDbVertex
100
AcDb2dVertex
 10
4074.909943181829
 20
2656.614516284426
 30
0.0
  0
VERTEX
  5
2A0
330
29B
100
AcDbEntity
  8
3_ANYTOOL_CUTTHROUGH_INSID
100
AcDbVertex
100
AcDb2dVertex
 10
4074.909943181832
 20
2650.614516284426
 30
0.0
  0
VERTEX
  5
2A1
330
29B
100
AcDbEntity
  8
3_ANYTOOL_CUTTHROUGH_INSID
100
AcDbVertex
100
AcDb2dVertex
 10
4087.409943181832
 20
2650.614516284426
 30
0.0
  0
VERTEX
  5
2A2
330
29B
100
AcDbEntity
  8
3_ANYTOOL_CUTTHROUGH_INSID
100
AcDbVertex
100
AcDb2dVertex
 10
4087.409943181821
 20
2699.114516284426
 30
0.0
  0
VERTEX
  5
2A3
330
29B
100
AcDbEntity
  8
3_ANYTOOL_CUTTHROUGH_INSID
100
AcDbVertex
100
AcDb2dVertex
 10
4074.909943181821
 20
2699.114516284426
 30
0.0
  0
VERTEX
  5
2A4
330
29B
100
AcDbEntity
  8
3_ANYTOOL_CUTTHROUGH_INSID
100
AcDbVertex
100
AcDb2dVertex
 10
4074.909943181829
 20
2693.114516284426
 30
0.0
  0
VERTEX
  5
2A5
330
29B
100
AcDbEntity
  8
3_ANYTOOL_CUTTHROUGH_INSID
100
AcDbVertex
100
AcDb2dVertex
 10
4039.409943181829
 20
2693.114516284419
 30
0.0
  0
VERTEX
  5
2A6
330
29B
100
AcDbEntity
  8
3_ANYTOOL_CUTTHROUGH_INSID
100
AcDbVertex
100
AcDb2dVertex
 10
4039.409943181825
 20
2699.114516284426
 30
0.0
  0
VERTEX
  5
2A7
330
29B
100
AcDbEntity
  8
3_ANYTOOL_CUTTHROUGH_INSID
100
AcDbVertex
100
AcDb2dVertex
 10
4026.909943181825
 20
2699.114516284419
 30
0.0
  0
SEQEND
  5
2A8
330
29B
100
AcDbEntity
  8
3_ANYTOOL_CUTTHROUGH_INSID
  0
POLYLINE
  5
2A9
330
1F
100
AcDbEntity
  8
3_ANYTOOL_CUTTHROUGH_INSID
100
AcDb2dPolyline
 66
     1
 10
0.0
 20
0.0
 30
0.0
 70
     1
  0
VERTEX
  5
2AA
330
2A9
100
AcDbEntity
  8
3_ANYTOOL_CUTTHROUGH_INSID
100
AcDbVertex
100
AcDb2dVertex
 10
4039.409943181803
 20
3092.614516284426
 30
0.0
  0
VERTEX
  5
2AB
330
2A9
100
AcDbEntity
  8
3_ANYTOOL_CUTTHROUGH_INSID
100
AcDbVertex
100
AcDb2dVertex
 10
4074.909943181781
 20
3092.614516284426
 30
0.0
  0
VERTEX
  5
2AC
330
2A9
100
AcDbEntity
  8
3_ANYTOOL_CUTTHROUGH_INSID
100
AcDbVertex
100
AcDb2dVertex
 10
4074.909943181781
 20
3086.614516284426
 30
0.0
  0
VERTEX
  5
2AD
330
2A9
100
AcDbEntity
  8
3_ANYTOOL_CUTTHROUGH_INSID
100
AcDbVertex
100
AcDb2dVertex
 10
4087.409943181781
 20
3086.614516284426
 30
0.0
  0
VERTEX
  5
2AE
330
2A9
100
AcDbEntity
  8
3_ANYTOOL_CUTTHROUGH_INSID
100
AcDbVertex
100
AcDb2dVertex
 10
4087.409943181778
 20
3135.114516284426
 30
0.0
  0
VERTEX
  5
2AF
330
2A9
100
AcDbEntity
  8
3_ANYTOOL_CUTTHROUGH_INSID
100
AcDbVertex
100
AcDb2dVertex
 10
4074.909943181778
 20
3135.114516284426
 30
0.0
  0
VERTEX
  5
2B0
330
2A9
100
AcDbEntity
  8
3_ANYTOOL_CUTTHROUGH_INSID
100
AcDbVertex
100
AcDb2dVertex
 10
4074.909943181778
 20
3129.114516284426
 30
0.0
  0
VERTEX
  5
2B1
330
2A9
100
AcDbEntity
  8
3_ANYTOOL_CUTTHROUGH_INSID
100
AcDbVertex
100
AcDb2dVertex
 10
4039.409943181799
 20
3129.114516284426
 30
0.0
  0
VERTEX
  5
2B2
330
2A9
100
AcDbEntity
  8
3_ANYTOOL_CUTTHROUGH_INSID
100
AcDbVertex
100
AcDb2dVertex
 10
4039.409943181799
 20
3135.114516284426
 30
0.0
  0
VERTEX
  5
2B3
330
2A9
100
AcDbEntity
  8
3_ANYTOOL_CUTTHROUGH_INSID
100
AcDbVertex
100
AcDb2dVertex
 10
4026.909943181799
 20
3135.114516284419
 30
0.0
  0
VERTEX
  5
2B4
330
2A9
100
AcDbEntity
  8
3_ANYTOOL_CUTTHROUGH_INSID
100
AcDbVertex
100
AcDb2dVertex
 10
4026.909943181803
 20
3086.614516284419
 30
0.0
  0
VERTEX
  5
2B5
330
2A9
100
AcDbEntity
  8
3_ANYTOOL_CUTTHROUGH_INSID
100
AcDbVertex
100
AcDb2dVertex
 10
4039.409943181803
 20
3086.614516284426
 30
0.0
  0
SEQEND
  5
2B6
330
2A9
100
AcDbEntity
  8
3_ANYTOOL_CUTTHROUGH_INSID
  0
POLYLINE
  5
2B7
330
1F
100
AcDbEntity
  8
3_ANYTOOL_CUTTHROUGH_INSID
100
AcDb2dPolyline
 66
     1
 10
0.0
 20
0.0
 30
0.0
 70
     1
  0
VERTEX
  5
2B8
330
2B7
100
AcDbEntity
  8
3_ANYTOOL_CUTTHROUGH_INSID
100
AcDbVertex
100
AcDb2dVertex
 10
4574.909943180064
 20
2529.11451628439
 30
0.0
  0
VERTEX
  5
2B9
330
2B7
100
AcDbEntity
  8
3_ANYTOOL_CUTTHROUGH_INSID
100
AcDbVertex
100
AcDb2dVertex
 10
4539.409943180413
 20
2529.114516284397
 30
0.0
  0
VERTEX
  5
2BA
330
2B7
100
AcDbEntity
  8
3_ANYTOOL_CUTTHROUGH_INSID
100
AcDbVertex
100
AcDb2dVertex
 10
4539.409943180417
 20
2535.11451628439
 30
0.0
  0
VERTEX
  5
2BB
330
2B7
100
AcDbEntity
  8
3_ANYTOOL_CUTTHROUGH_INSID
100
AcDbVertex
100
AcDb2dVertex
 10
4526.909943180417
 20
2535.114516284404
 30
0.0
  0
VERTEX
  5
2BC
330
2B7
100
AcDbEntity
  8
3_ANYTOOL_CUTTHROUGH_INSID
100
AcDbVertex
100
AcDb2dVertex
 10
4526.909943180421
 20
2486.614516284397
 30
0.0
  0
VERTEX
  5
2BD
330
2B7
100
AcDbEntity
  8
3_ANYTOOL_CUTTHROUGH_INSID
100
AcDbVertex
100
AcDb2dVertex
 10
4539.409943180421
 20
2486.614516284382
 30
0.0
  0
VERTEX
  5
2BE
330
2B7
100
AcDbEntity
  8
3_ANYTOOL_CUTTHROUGH_INSID
100
AcDbVertex
100
AcDb2dVertex
 10
4539.409943180417
 20
2492.614516284382
 30
0.0
  0
VERTEX
  5
2BF
330
2B7
100
AcDbEntity
  8
3_ANYTOOL_CUTTHROUGH_INSID
100
AcDbVertex
100
AcDb2dVertex
 10
4574.909943180068
 20
2492.614516284375
 30
0.0
  0
VERTEX
  5
2C0
330
2B7
100
AcDbEntity
  8
3_ANYTOOL_CUTTHROUGH_INSID
100
AcDbVertex
100
AcDb2dVertex
 10
4574.909943180071
 20
2486.614516284382
 30
0.0
  0
VERTEX
  5
2C1
330
2B7
100
AcDbEntity
  8
3_ANYTOOL_CUTTHROUGH_INSID
100
AcDbVertex
100
AcDb2dVertex
 10
4587.409943180071
 20
2486.614516284382
 30
0.0
  0
VERTEX
  5
2C2
330
2B7
100
AcDbEntity
  8
3_ANYTOOL_CUTTHROUGH_INSID
100
AcDbVertex
100
AcDb2dVertex
 10
4587.409943180068
 20
2535.11451628439
 30
0.0
  0
VERTEX
  5
2C3
330
2B7
100
AcDbEntity
  8
3_ANYTOOL_CUTTHROUGH_INSID
100
AcDbVertex
100
AcDb2dVertex
 10
4574.909943180068
 20
2535.11451628439
 30
0.0
  0
SEQEND
  5
2C4
330
2B7
100
AcDbEntity
  8
3_ANYTOOL_CUTTHROUGH_INSID
  0
POLYLINE
  5
2C5
330
1F
100
AcDbEntity
  8
3_ANYTOOL_CUTTHROUGH_INSID
100
AcDb2dPolyline
 66
     1
 10
0.0
 20
0.0
 30
0.0
 70
     1
  0
VERTEX
  5
2C6
330
2C5
100
AcDbEntity
  8
3_ANYTOOL_CUTTHROUGH_INSID
100
AcDbVertex
100
AcDb2dVertex
 10
4074.90994318185
 20
2529.114516284419
 30
0.0
  0
VERTEX
  5
2C7
330
2C5
100
AcDbEntity
  8
3_ANYTOOL_CUTTHROUGH_INSID
100
AcDbVertex
100
AcDb2dVertex
 10
4039.409943181872
 20
2529.114516284419
 30
0.0
  0
VERTEX
  5
2C8
330
2C5
100
AcDbEntity
  8
3_ANYTOOL_CUTTHROUGH_INSID
100
AcDbVertex
100
AcDb2dVertex
 10
4039.409943181872
 20
2535.114516284419
 30
0.0
  0
VERTEX
  5
2C9
330
2C5
100
AcDbEntity
  8
3_ANYTOOL_CUTTHROUGH_INSID
100
AcDbVertex
100
AcDb2dVertex
 10
4026.909943181872
 20
2535.114516284411
 30
0.0
  0
VERTEX
  5
2CA
330
2C5
100
AcDbEntity
  8
3_ANYTOOL_CUTTHROUGH_INSID
100
AcDbVertex
100
AcDb2dVertex
 10
4026.909943181876
 20
2486.614516284404
 30
0.0
  0
VERTEX
  5
2CB
330
2C5
100
AcDbEntity
  8
3_ANYTOOL_CUTTHROUGH_INSID
100
AcDbVertex
100
AcDb2dVertex
 10
4039.409943181876
 20
2486.614516284411
 30
0.0
  0
VERTEX
  5
2CC
330
2C5
100
AcDbEntity
  8
3_ANYTOOL_CUTTHROUGH_INSID
100
AcDbVertex
100
AcDb2dVertex
 10
4039.409943181876
 20
2492.614516284404
 30
0.0
  0
VERTEX
  5
2CD
330
2C5
100
AcDbEntity
  8
3_ANYTOOL_CUTTHROUGH_INSID
100
AcDbVertex
100
AcDb2dVertex
 10
4074.909943181854
 20
2492.614516284411
 30
0.0
  0
VERTEX
  5
2CE
330
2C5
100
AcDbEntity
  8
3_ANYTOOL_CUTTHROUGH_INSID
100
AcDbVertex
100
AcDb2dVertex
 10
4074.909943181854
 20
2486.614516284411
 30
0.0
  0
VERTEX
  5
2CF
330
2C5
100
AcDbEntity
  8
3_ANYTOOL_CUTTHROUGH_INSID
100
AcDbVertex
100
AcDb2dVertex
 10
4087.409943181854
 20
2486.614516284411
 30
0.0
  0
VERTEX
  5
2D0
330
2C5
100
AcDbEntity
  8
3_ANYTOOL_CUTTHROUGH_INSID
100
AcDbVertex
100
AcDb2dVertex
 10
4087.409943181854
 20
2535.114516284419
 30
0.0
  0
VERTEX
  5
2D1
330
2C5
100
AcDbEntity
  8
3_ANYTOOL_CUTTHROUGH_INSID
100
AcDbVertex
100
AcDb2dVertex
 10
4074.909943181854
 20
2535.114516284419
 30
0.0
  0
SEQEND
  5
2D2
330
2C5
100
AcDbEntity
  8
3_ANYTOOL_CUTTHROUGH_INSID
  0
MTEXT
  5
2D3
330
1F
100
AcDbEntity
  8
DONOTCUT
100
AcDbMText
 10
4005.159943181847
 20
3975.921088101015
 30
0.0
 40
80.0
 41
2460.869565217391
 71
     1
 72
     1
  1
{\fArial;COMB-B/END-X3}\P{\fArial;TOTAL 1 NO. SHEETS}
  7
ARIAL_REGULAR
1001
ACAD
1000
ACAD_MTEXT_DEFINED_HEIGHT_BEGIN
1070
    46
1040
163.0434782608696
1000
ACAD_MTEXT_DEFINED_HEIGHT_END
  0
POLYLINE
  5
2D5
330
1F
100
AcDbEntity
  8
0_SHEET_SPRUCEPLY_2440X122
100
AcDb2dPolyline
 66
     1
 10
0.0
 20
0.0
 30
0.0
 70
     1
  0
VERTEX
  5
2D6
330
2D5
100
AcDbEntity
  8
0_SHEET_SPRUCEPLY_2440X122
100
AcDbVertex
100
AcDb2dVertex
 10
4005.159943181847
 20
1083.028383860357
 30
0.0
  0
VERTEX
  5
2D7
330
2D5
100
AcDbEntity
  8
0_SHEET_SPRUCEPLY_2440X122
100
AcDbVertex
100
AcDb2dVertex
 10
5225.159943181847
 20
1083.028383860357
 30
0.0
  0
VERTEX
  5
2D8
330
2D5
100
AcDbEntity
  8
0_SHEET_SPRUCEPLY_2440X122
100
AcDbVertex
100
AcDb2dVertex
 10
5225.159943181847
 20
3523.028383860357
 30
0.0
  0
VERTEX
  5
2D9
330
2D5
100
AcDbEntity
  8
0_SHEET_SPRUCEPLY_2440X122
100
AcDbVertex
100
AcDb2dVertex
 10
4005.159943181847
 20
3523.028383860357
 30
0.0
  0
SEQEND
  5
2DA
330
2D5
100
AcDbEntity
  8
0_SHEET_SPRUCEPLY_2440X122
  0
POLYLINE
  5
2DB
330
1F
100
AcDbEntity
  8
DONOTCUT
100
AcDb2dPolyline
 66
     1
 10
0.0
 20
0.0
 30
0.0
 70
     1
  0
VERTEX
  5
2DC
330
2DB
100
AcDbEntity
  8
DONOTCUT
100
AcDbVertex
100
AcDb2dVertex
 10
0.0
 20
0.0
 30
0.0
  0
VERTEX
  5
2DD
330
2DB
100
AcDbEntity
  8
DONOTCUT
100
AcDbVertex
100
AcDb2dVertex
 10
6173.0595026581
 20
0.0
 30
0.0
  0
VERTEX
  5
2DE
330
2DB
100
AcDbEntity
  8
DONOTCUT
100
AcDbVertex
100
AcDb2dVertex
 10
6173.0595026581
 20
5593.432680773098
 30
0.0
  0
VERTEX
  5
2DF
330
2DB
100
AcDbEntity
  8
DONOTCUT
100
AcDbVertex
100
AcDb2dVertex
 10
0.0
 20
5593.432680773098
 30
0.0
  0
SEQEND
  5
2E0
330
2DB
100
AcDbEntity
  8
DONOTCUT
  0
MTEXT
  5
2E1
330
1F
100
AcDbEntity
  8
DONOTCUT
100
AcDbMText
 10
128.6829092621047
 20
5449.459298090529
 30
-0.0000002511302797
 40
150.0
 41
3150.0
 71
     1
 72
     1
  1
CNC CUTTING
  7
ARIAL_REGULAR
1001
ACAD
1000
ACAD_MTEXT_DEFINED_HEIGHT_BEGIN
1070
    46
1040
65.70652173913042
1000
ACAD_MTEXT_DEFINED_HEIGHT_END
  0
MTEXT
  5
2E2
330
1F
100
AcDbEntity
  8
DONOTCUT
100
AcDbMText
 10
128.6829092621047
 20
6110.032510824472
 30
-0.0000002511302797
 40
200.0
 41
8160.869565217391
 71
     1
 72
     1
  1
SKYLARK250 COMB-B/END-X
  7
ARIAL_REGULAR
1001
ACAD
1000
ACAD_MTEXT_DEFINED_HEIGHT_BEGIN
1070
    46
1040
87.60869565217389
1000
ACAD_MTEXT_DEFINED_HEIGHT_END
  0
ENDSEC
  0
SECTION
  2
OBJECTS
  0
DICTIONARY
  5
C
330
0
100
AcDbDictionary
  3
ACAD_GROUP
350
D
  3
ACAD_LAYOUT
350
1A
  3
ACAD_MATERIAL
350
43
  3
ACAD_MLEADERSTYLE
350
5B
  3
ACAD_MLINESTYLE
350
17
  3
ACAD_PLOTSETTINGS
350
19
  3
ACAD_SCALELIST
350
47
  3
ACAD_VISUALSTYLE
350
2A
  3
ACDBHEADERROUNDTRIPXREC
350
2E3
  3
ACDBVARIABLEDICTIONARY
350
304
  3
DWGPROPS
350
30B
  0
DICTIONARY
  5
30C
330
8
100
AcDbDictionary
280
     1
  3
ACAD_XREC_ROUNDTRIP
360
30D
  0
DICTIONARY
  5
D
102
{ACAD_REACTORS
330
C
102
}
330
C
100
AcDbDictionary
  0
DICTIONARY
  5
1A
102
{ACAD_REACTORS
330
C
102
}
330
C
100
AcDbDictionary
  0
DICTIONARY
  5
43
102
{ACAD_REACTORS
330
C
102
}
330
C
100
AcDbDictionary
  3
BYBLOCK
350
45
  3
BYLAYER
350
44
  3
GLOBAL
350
46
  0
DICTIONARY
  5
5B
102
{ACAD_REACTORS
330
C
102
}
330
C
100
AcDbDictionary
  3
STANDARD
350
5C
  0
DICTIONARY
  5
17
102
{ACAD_REACTORS
330
C
102
}
330
C
100
AcDbDictionary
  3
STANDARD
350
18
  0
DICTIONARY
  5
19
102
{ACAD_REACTORS
330
C
102
}
330
C
100
AcDbDictionary
  0
DICTIONARY
  5
47
102
{ACAD_REACTORS
330
C
102
}
330
C
100
AcDbDictionary
  3
A0
350
48
  3
A1
350
49
  3
A2
350
4A
  3
A3
350
4B
  3
A4
350
4C
  3
A5
350
4D
  3
A6
350
4E
  3
A7
350
4F
  3
A8
350
50
  3
A9
350
51
  3
B1
350
52
  3
B2
350
53
  3
B3
350
54
  3
B4
350
55
  3
B5
350
56
  3
B6
350
57
  3
B7
350
58
  0
DICTIONARY
  5
2A
102
{ACAD_REACTORS
330
C
102
}
330
C
100
AcDbDictionary
  3
2DWIREFRAME
350
2F
  3
BASIC
350
32
  3
BRIGHTEN
350
36
  3
COLORCHANGE
350
3A
  3
CONCEPTUAL
350
34
  3
DIM
350
35
  3
EDGECOLOROFF
350
3D
  3
FACEPATTERN
350
39
  3
FLAT
350
2B
  3
FLATWITHEDGES
350
2C
  3
GOURAUD
350
2D
  3
GOURAUDWITHEDGES
350
2E
  3
HIDDEN
350
31
  3
JITTEROFF
350
3B
  3
LINEPATTERN
350
38
  3
OVERHANGOFF
350
3C
  3
REALISTIC
350
33
  3
SHADED
350
42
  3
SHADED_WITH_EDGES
350
41
  3
SHADES_OF_GRAY
350
3E
  3
SKETCHY
350
3F
  3
THICKEN
350
37
  3
WIREFRAME
350
30
  3
X-RAY
350
40
  0
DICTIONARY
  5
2E3
102
{ACAD_REACTORS
330
C
102
}
330
C
100
AcDbDictionary
  3
CEPSNID
350
2ED
  3
CEPSNTYPE
350
2EC
  3
DIMSTYLEDATA
350
303
  3
FINGERPRINTGUID
350
2EE
  3
HYPERLINKBASE
350
2E6
  3
INSUNITS
350
2EB
  3
LAYOUTDICT
350
2E8
  3
LWETCUNION
350
2EA
  3
PLOTSETDICT
350
2E9
  3
PSVPSCALE
350
2F0
  3
PUCSBASE
350
2F3
  3
PUCSORGBACK
350
2F9
  3
PUCSORGBOTTOM
350
2F5
  3
PUCSORGFRONT
350
2F8
  3
PUCSORGLEFT
350
2F6
  3
PUCSORGRIGHT
350
2F7
  3
PUCSORGTOP
350
2F4
  3
PUCSORTHOREF
350
2F1
  3
PUCSORTHOVIEW
350
2F2
  3
STYLESHEET
350
2E7
  3
TSTACKALIGN
350
2E4
  3
TSTACKSIZE
350
2E5
  3
UCSBASE
350
2FC
  3
UCSORGBACK
350
302
  3
UCSORGBOTTOM
350
2FE
  3
UCSORGFRONT
350
301
  3
UCSORGLEFT
350
2FF
  3
UCSORGRIGHT
350
300
  3
UCSORGTOP
350
2FD
  3
UCSORTHOREF
350
2FA
  3
UCSORTHOVIEW
350
2FB
  3
VERSIONGUID
350
2EF
  0
DICTIONARY
  5
304
102
{ACAD_REACTORS
330
C
102
}
330
C
100
AcDbDictionary
  3
CANNOSCALE
350
30E
  3
CMLEADERSTYLE
350
306
  3
CTABLESTYLE
350
305
  3
DIMASSOC
350
309
  3
HIDETEXT
350
30A
  3
MSLTSCALE
350
30F
  0
XRECORD
  5
30B
102
{ACAD_REACTORS
330
C
102
}
330
C
100
AcDbXrecord
  1
DWGPROPS COOKIE
  2

  3

  4

  6

  7

  8
clayt
  9

300
=
301
=
302
=
303
=
304
=
305
=
306
=
307
=
308
=
309
=
 40
0.0
 41
2459619.47745919
 42
2459619.477506863
  1

 90
        0
  0
XRECORD
  5
30D
102
{ACAD_REACTORS
330
30C
102
}
330
30C
100
AcDbXrecord
102
VTR_0.000_0.000_1.000_1.000_VISUALSTYLE
340
2F
102
VTR_0.000_0.000_1.000_1.000_GRIDDISPLAY
 70
     3
102
VTR_0.000_0.000_1.000_1.000_GRIDMAJOR
 70
     5
102
VTR_0.000_0.000_1.000_1.000_DEFAULTLIGHTING
280
     1
102
VTR_0.000_0.000_1.000_1.000_DEFAULTLIGHTINGTYPE
 70
     1
102
VTR_0.000_0.000_1.000_1.000_BRIGHTNESS
141
0.0
102
VTR_0.000_0.000_1.000_1.000_CONTRAST
142
0.0
  0
MATERIAL
  5
45
102
{ACAD_REACTORS
330
43
102
}
102
{ACAD_XDICTIONARY
360
312
102
}
330
43
100
AcDbMaterial
  1
BYBLOCK
  0
MATERIAL
  5
44
102
{ACAD_REACTORS
330
43
102
}
102
{ACAD_XDICTIONARY
360
310
102
}
330
43
100
AcDbMaterial
  1
BYLAYER
  0
MATERIAL
  5
46
102
{ACAD_REACTORS
330
43
102
}
102
{ACAD_XDICTIONARY
360
314
102
}
330
43
100
AcDbMaterial
  1
GLOBAL
  0
ACAD_PROXY_OBJECT
  5
5C
102
{ACAD_REACTORS
330
5B
102
}
330
5B
100
AcDbProxyObject
 90
      499
 91
      505
 93
      610
310
40901902A4063FBFFFFFE056BD1B81E855B9FC0AD7A3703D0AD73F4214DD185B99185C9900AD7A3703D0AC73F90141901A02B5E8DC0F42B1CFC02B5E8DC0F42B1CFE5764000000000000300FC0
340
14
340
0
340
11
340
0
 94
        0
1001
ACAD_MLEADERVER
1070
     2
  0
MLINESTYLE
  5
18
102
{ACAD_REACTORS
330
17
102
}
330
17
100
AcDbMlineStyle
  2
Standard
 70
     0
  3

 62
   256
 51
90.0
 52
90.0
 71
     2
 49
0.5
 62
   256
  6
BYLAYER
 49
-0.5
 62
   256
  6
BYLAYER
  0
ACAD_PROXY_OBJECT
  5
48
102
{ACAD_REACTORS
330
47
102
}
330
47
100
AcDbProxyObject
 90
      499
 91
      503
 93
       41
310
903313A31580
  0
ACAD_PROXY_OBJECT
  5
49
102
{ACAD_REACTORS
330
47
102
}
330
47
100
AcDbProxyObject
 90
      499
 91
      503
 93
      257
310
90E312F31323822203D2031272D3022000000000000200FC000000000000284000
  0
ACAD_PROXY_OBJECT
  5
4A
102
{ACAD_REACTORS
330
47
102
}
330
47
100
AcDbProxyObject
 90
      499
 91
      503
 93
      249
310
90D312F363422203D2031272D3022000000000000240FC000000000000284000
  0
ACAD_PROXY_OBJECT
  5
4B
102
{ACAD_REACTORS
330
47
102
}
330
47
100
AcDbProxyObject
 90
      499
 91
      503
 93
      249
310
90D312F333222203D2031272D3022000000000000280FC000000000000284000
  0
ACAD_PROXY_OBJECT
  5
4C
102
{ACAD_REACTORS
330
47
102
}
330
47
100
AcDbProxyObject
 90
      499
 91
      503
 93
      249
310
90D312F313622203D2031272D30220000000000002C0FC000000000000284000
  0
ACAD_PROXY_OBJECT
  5
4D
102
{ACAD_REACTORS
330
47
102
}
330
47
100
AcDbProxyObject
 90
      499
 91
      503
 93
      249
310
90D332F333222203D2031272D30220000000000002E0FC000000000000284000
  0
ACAD_PROXY_OBJECT
  5
4E
102
{ACAD_REACTORS
330
47
102
}
330
47
100
AcDbProxyObject
 90
      499
 91
      503
 93
      241
310
90C312F3822203D2031272D3022000000000000300FC000000000000284000
  0
ACAD_PROXY_OBJECT
  5
4F
102
{ACAD_REACTORS
330
47
102
}
330
47
100
AcDbProxyObject
 90
      499
 91
      503
 93
      249
310
90D332F313622203D2031272D3022000000000000320FC000000000000284000
  0
ACAD_PROXY_OBJECT
  5
50
102
{ACAD_REACTORS
330
47
102
}
330
47
100
AcDbProxyObject
 90
      499
 91
      503
 93
      241
310
90C312F3422203D2031272D3022000000000000340FC000000000000284000
  0
ACAD_PROXY_OBJECT
  5
51
102
{ACAD_REACTORS
330
47
102
}
330
47
100
AcDbProxyObject
 90
      499
 91
      503
 93
      241
310
90C332F3822203D2031272D3022000000000000360FC000000000000284000
  0
ACAD_PROXY_OBJECT
  5
52
102
{ACAD_REACTORS
330
47
102
}
330
47
100
AcDbProxyObject
 90
      499
 91
      503
 93
      241
310
90C312F3222203D2031272D3022000000000000380FC000000000000284000
  0
ACAD_PROXY_OBJECT
  5
53
102
{ACAD_REACTORS
330
47
102
}
330
47
100
AcDbProxyObject
 90
      499
 91
      503
 93
      241
310
90C332F3422203D2031272D30220000000000003A0FC000000000000284000
  0
ACAD_PROXY_OBJECT
  5
54
102
{ACAD_REACTORS
330
47
102
}
330
47
100
AcDbProxyObject
 90
      499
 91
      503
 93
      161
310
90A3122203D2031272D30224000000000000284000
  0
ACAD_PROXY_OBJECT
  5
55
102
{ACAD_REACTORS
330
47
102
}
330
47
100
AcDbProxyObject
 90
      499
 91
      503
 93
      257
310
90E312D312F3222203D2031272D30220000000000003E0FC000000000000284000
  0
ACAD_PROXY_OBJECT
  5
56
102
{ACAD_REACTORS
330
47
102
}
330
47
100
AcDbProxyObject
 90
      499
 91
      503
 93
      225
310
90A3322203D2031272D302200000000000002100000000000000284000
  0
ACAD_PROXY_OBJECT
  5
57
102
{ACAD_REACTORS
330
47
102
}
330
47
100
AcDbProxyObject
 90
      499
 91
      503
 93
      225
310
90A3622203D2031272D302200000000000006100000000000000284000
  0
ACAD_PROXY_OBJECT
  5
58
102
{ACAD_REACTORS
330
47
102
}
330
47
100
AcDbProxyObject
 90
      499
 91
      503
 93
      249
310
90D31272D3022203D2031272D30220000000000000A100000000000000284000
  0
ACAD_PROXY_OBJECT
  5
2F
102
{ACAD_REACTORS
330
2A
102
}
330
2A
100
AcDbProxyObject
 90
      499
 91
      501
 93
      436
310
42CC9915DA5C99599C985B595049028333333333333E33F0000000000000F90107901411070040501600405405064090741402480A0340
1001
ACAD
1000
AcDbSavedByObjectVersion
1070
     0
  0
ACAD_PROXY_OBJECT
  5
32
102
{ACAD_REACTORS
330
2A
102
}
330
2A
100
AcDbProxyObject
 90
      499
 91
      501
 93
      388
310
4150985CDA58D07406404333333333333E33F0000000000000F90107A41107004050150841D405064090741402480A0350
1001
ACAD
1000
AcDbSavedByObjectVersion
1070
     0
  0
ACAD_PROXY_OBJECT
  5
36
102
{ACAD_REACTORS
330
2A
102
}
330
2A
100
AcDbProxyObject
 90
      499
 91
      501
 93
      428
310
42109C9A59DA1D195B90C409028333333333333E33F0000000000000F9010790141107004050150841D405064090741402480A029950
1001
ACAD
1000
AcDbSavedByObjectVersion
1070
     0
  0
ACAD_PROXY_OBJECT
  5
3A
102
{ACAD_REACTORS
330
2A
102
}
330
2A
100
AcDbProxyObject
 90
      499
 91
      501
 93
      452
310
42D0DBDB1BDC90DA185B99D95104090240C333333333333E33F0000000000000F90108901411070040501508421405064090741402480A0350
1001
ACAD
1000
AcDbSavedByObjectVersion
1070
     0
  0
ACAD_PROXY_OBJECT
  5
34
102
{ACAD_REACTORS
330
2A
102
}
330
2A
100
AcDbProxyObject
 90
      499
 91
      501
 93
      500
310
4290DBDB98D95C1D1D585B10940D028333333333333E33F0000000000000F90107902409070040501000000000018199010841D405064090740C02480A0340
1001
ACAD
1000
AcDbSavedByObjectVersion
1070
     0
  0
ACAD_PROXY_OBJECT
  5
35
102
{ACAD_REACTORS
330
2A
102
}
330
2A
100
AcDbProxyObject
 90
      499
 91
      501
 93
      412
310
40D11A5B50B409028333333333333E33F0000000000000F9010790141107004050150841D405064090741402480A02677FFFFFD0
1001
ACAD
1000
AcDbSavedByObjectVersion
1070
     0
  0
ACAD_PROXY_OBJECT
  5
3D
102
{ACAD_REACTORS
330
2A
102
}
330
2A
100
AcDbProxyObject
 90
      499
 91
      501
 93
      452
310
43115919D950DBDB1BDC93D999916409028333333333333E33F0000000000000F9010790141107004050150841D405064090741402480A0350
1001
ACAD
1000
AcDbSavedByObjectVersion
1070
     0
  0
ACAD_PROXY_OBJECT
  5
39
102
{ACAD_REACTORS
330
2A
102
}
330
2A
100
AcDbProxyObject
 90
      499
 91
      501
 93
      444
310
42D19858D95C185D1D195C9B90F409028333333333333E33F0000000000000F9010790141107004050150841D405064090741402480A0350
1001
ACAD
1000
AcDbSavedByObjectVersion
1070
     0
  0
ACAD_PROXY_OBJECT
  5
2B
102
{ACAD_REACTORS
330
2A
102
}
330
2A
100
AcDbProxyObject
 90
      499
 91
      501
 93
      380
310
41119B185D240901404333333333333E33F0000000000000F9010740A907004050150841D405064090741402480A1B50
1001
ACAD
1000
AcDbSavedByObjectVersion
1070
     0
  0
ACAD_PROXY_OBJECT
  5
2C
102
{ACAD_REACTORS
330
2A
102
}
330
2A
100
AcDbProxyObject
 90
      499
 91
      501
 93
      468
310
43519B185D15DA5D1A115919D95CD0140901404333333333333E33F0000000000000F90107409019070040501600405405064090741402480A1B50
1001
ACAD
1000
AcDbSavedByObjectVersion
1070
     0
  0
ACAD_PROXY_OBJECT
  5
2D
102
{ACAD_REACTORS
330
2A
102
}
330
2A
100
AcDbProxyObject
 90
      499
 91
      501
 93
      404
310
41D1DBDD5C985D5910240902404333333333333E33F0000000000000F9010740A9070040501641D405064090741402480A1B50
1001
ACAD
1000
AcDbSavedByObjectVersion
1070
     0
  0
ACAD_PROXY_OBJECT
  5
2E
102
{ACAD_REACTORS
330
2A
102
}
330
2A
100
AcDbProxyObject
 90
      499
 91
      501
 93
      492
310
4411DBDD5C985D5915DA5D1A115919D95CD0340902404333333333333E33F0000000000000F90107409019070040501600405405064090741402480A1B50
1001
ACAD
1000
AcDbSavedByObjectVersion
1070
     0
  0
ACAD_PROXY_OBJECT
  5
31
102
{ACAD_REACTORS
330
2A
102
}
330
2A
100
AcDbProxyObject
 90
      499
 91
      501
 93
      476
310
41921A5919195B90640502408333333333333E33F0000000000000F901079024090700405020000000000001110200405405064090740C02480A0340
1001
ACAD
1000
AcDbSavedByObjectVersion
1070
     0
  0
ACAD_PROXY_OBJECT
  5
3B
102
{ACAD_REACTORS
330
2A
102
}
330
2A
100
AcDbProxyObject
 90
      499
 91
      501
 93
      428
310
42529A5D1D195C93D999914409028333333333333E33F0000000000000F9010790141107004050150A41D405064090741402480A0350
1001
ACAD
1000
AcDbSavedByObjectVersion
1070
     0
  0
ACAD_PROXY_OBJECT
  5
38
102
{ACAD_REACTORS
330
2A
102
}
330
2A
100
AcDbProxyObject
 90
      499
 91
      501
 93
      444
310
42D31A5B995C185D1D195C9B90E409028333333333333E33F0000000000000F9010790141107004050750841D405064090741402483A0350
1001
ACAD
1000
AcDbSavedByObjectVersion
1070
     0
  0
ACAD_PROXY_OBJECT
  5
3C
102
{ACAD_REACTORS
330
2A
102
}
330
2A
100
AcDbProxyObject
 90
      499
 91
      501
 93
      444
310
42D3DD995C9A185B99D3D999915409028333333333333E33F0000000000000F9010790141107004050150941D405064090741402480A0350
1001
ACAD
1000
AcDbSavedByObjectVersion
1070
     0
  0
ACAD_PROXY_OBJECT
  5
33
102
{ACAD_REACTORS
330
2A
102
}
330
2A
100
AcDbProxyObject
 90
      499
 91
      501
 93
      428
310
425499585B1A5CDD1A58D08409038333333333333E33F0000000000000F9010740A907004050150800405405064090740C02480A1B40
1001
ACAD
1000
AcDbSavedByObjectVersion
1070
     0
  0
ACAD_PROXY_OBJECT
  5
42
102
{ACAD_REACTORS
330
2A
102
}
330
2A
100
AcDbProxyObject
 90
      499
 91
      501
 93
      420
310
4194DA1859195911B40902404333333333333E33F0000000000000F9010740A41107004050150800405405064090840C02480A0B40
1001
ACAD
1000
AcDbSavedByObjectVersion
1070
     0
  0
ACAD_PROXY_OBJECT
  5
41
102
{ACAD_REACTORS
330
2A
102
}
330
2A
100
AcDbProxyObject
 90
      499
 91
      501
 93
      516
310
4454DA18591959081DDA5D1A08195919D95CD1A40902404333333333333E33F0000000000000F901074090142907004050250800405405064090740C02480A0B40
1001
ACAD
1000
AcDbSavedByObjectVersion
1070
     0
  0
ACAD_PROXY_OBJECT
  5
3E
102
{ACAD_REACTORS
330
2A
102
}
330
2A
100
AcDbProxyObject
 90
      499
 91
      501
 93
      532
310
4394DA1859195CC81BD98811DC985E5174090240C333333333333E33F0000000000000F901079024090741D01000000000000111010841D405064090740C02480A0340
1001
ACAD
1000
AcDbSavedByObjectVersion
1070
     0
  0
ACAD_PROXY_OBJECT
  5
3F
102
{ACAD_REACTORS
330
2A
102
}
330
2A
100
AcDbProxyObject
 90
      499
 91
      501
 93
      476
310
41D4DAD95D18DA1E51840502408333333333333E33F0000000000000F901079024090741D01000000000000111010B41D405064090741802480A0340
1001
ACAD
1000
AcDbSavedByObjectVersion
1070
     0
  0
ACAD_PROXY_OBJECT
  5
37
102
{ACAD_REACTORS
330
2A
102
}
330
2A
100
AcDbProxyObject
 90
      499
 91
      501
 93
      412
310
41D51A1A58DAD95B90D409028333333333333E33F0000000000000F9010790141107004050150C41D405064090741402480A0350
1001
ACAD
1000
AcDbSavedByObjectVersion
1070
     0
  0
ACAD_PROXY_OBJECT
  5
30
102
{ACAD_REACTORS
330
2A
102
}
330
2A
100
AcDbProxyObject
 90
      499
 91
      501
 93
      420
310
4255DA5C99599C985B595059028333333333333E33F0000000000000F90107901411070040501600405405064090740C02480A0340
1001
ACAD
1000
AcDbSavedByObjectVersion
1070
     0
  0
ACAD_PROXY_OBJECT
  5
40
102
{ACAD_REACTORS
330
2A
102
}
330
2A
100
AcDbProxyObject
 90
      499
 91
      501
 93
      404
310
41560B54985E51940902404000000000000E03F0000000000000F9010740501907004050150841D405064090740C02480A1B40
1001
ACAD
1000
AcDbSavedByObjectVersion
1070
     0
  0
XRECORD
  5
2ED
102
{ACAD_REACTORS
330
2E3
102
}
330
2E3
100
AcDbXrecord
340
0
  0
XRECORD
  5
2EC
102
{ACAD_REACTORS
330
2E3
102
}
330
2E3
100
AcDbXrecord
 90
        0
  0
XRECORD
  5
303
102
{ACAD_REACTORS
330
2E3
102
}
330
2E3
100
AcDbXrecord
1000
DSTYLE
1002
{
1070
   171
 70
     2
1070
   143
 40
25.4
1070
   274
 70
     2
1070
    41
 40
0.18
1070
   141
 40
0.09
1070
   271
 70
     4
1070
    43
 40
0.38
1070
   278
 70
    46
1070
    44
 40
0.18
1070
    42
 40
0.0625
1070
   147
 40
0.09
1070
    77
 70
     0
1070
   272
 70
     4
1070
    73
 70
     1
1070
   279
 70
     2
1070
   172
 70
     0
1070
    74
 70
     1
1070
   283
 70
     1
1070
   340
340
11
1070
   140
 40
0.18
1070
   284
 70
     0
1070
    78
 70
     0
1002
}
  0
XRECORD
  5
2EE
102
{ACAD_REACTORS
330
2E3
102
}
330
2E3
100
AcDbXrecord
  1
{f998520f-5609-4e54-992b-af3dd754011d}
  0
XRECORD
  5
2E6
102
{ACAD_REACTORS
330
2E3
102
}
330
2E3
100
AcDbXrecord
  1

  0
XRECORD
  5
2EB
102
{ACAD_REACTORS
330
2E3
102
}
330
2E3
100
AcDbXrecord
 90
        4
  0
XRECORD
  5
2E8
102
{ACAD_REACTORS
330
2E3
102
}
330
2E3
100
AcDbXrecord
340
1A
  0
XRECORD
  5
2EA
102
{ACAD_REACTORS
330
2E3
102
}
330
2E3
100
AcDbXrecord
 90
    10781
  0
XRECORD
  5
2E9
102
{ACAD_REACTORS
330
2E3
102
}
330
2E3
100
AcDbXrecord
340
19
  0
XRECORD
  5
2F0
102
{ACAD_REACTORS
330
2E3
102
}
330
2E3
100
AcDbXrecord
 40
0.0
  0
XRECORD
  5
2F3
102
{ACAD_REACTORS
330
2E3
102
}
330
2E3
100
AcDbXrecord
340
0
  0
XRECORD
  5
2F9
102
{ACAD_REACTORS
330
2E3
102
}
330
2E3
100
AcDbXrecord
 10
0.0
 20
0.0
 30
0.0
  0
XRECORD
  5
2F5
102
{ACAD_REACTORS
330
2E3
102
}
330
2E3
100
AcDbXrecord
 10
0.0
 20
0.0
 30
0.0
  0
XRECORD
  5
2F8
102
{ACAD_REACTORS
330
2E3
102
}
330
2E3
100
AcDbXrecord
 10
0.0
 20
0.0
 30
0.0
  0
XRECORD
  5
2F6
102
{ACAD_REACTORS
330
2E3
102
}
330
2E3
100
AcDbXrecord
 10
0.0
 20
0.0
 30
0.0
  0
XRECORD
  5
2F7
102
{ACAD_REACTORS
330
2E3
102
}
330
2E3
100
AcDbXrecord
 10
0.0
 20
0.0
 30
0.0
  0
XRECORD
  5
2F4
102
{ACAD_REACTORS
330
2E3
102
}
330
2E3
100
AcDbXrecord
 10
0.0
 20
0.0
 30
0.0
  0
XRECORD
  5
2F1
102
{ACAD_REACTORS
330
2E3
102
}
330
2E3
100
AcDbXrecord
340
0
  0
XRECORD
  5
2F2
102
{ACAD_REACTORS
330
2E3
102
}
330
2E3
100
AcDbXrecord
 70
     0
  0
XRECORD
  5
2E7
102
{ACAD_REACTORS
330
2E3
102
}
330
2E3
100
AcDbXrecord
  1

  0
XRECORD
  5
2E4
102
{ACAD_REACTORS
330
2E3
102
}
330
2E3
100
AcDbXrecord
 90
        1
  0
XRECORD
  5
2E5
102
{ACAD_REACTORS
330
2E3
102
}
330
2E3
100
AcDbXrecord
 90
       70
  0
XRECORD
  5
2FC
102
{ACAD_REACTORS
330
2E3
102
}
330
2E3
100
AcDbXrecord
340
0
  0
XRECORD
  5
302
102
{ACAD_REACTORS
330
2E3
102
}
330
2E3
100
AcDbXrecord
 10
0.0
 20
0.0
 30
0.0
  0
XRECORD
  5
2FE
102
{ACAD_REACTORS
330
2E3
102
}
330
2E3
100
AcDbXrecord
 10
0.0
 20
0.0
 30
0.0
  0
XRECORD
  5
301
102
{ACAD_REACTORS
330
2E3
102
}
330
2E3
100
AcDbXrecord
 10
0.0
 20
0.0
 30
0.0
  0
XRECORD
  5
2FF
102
{ACAD_REACTORS
330
2E3
102
}
330
2E3
100
AcDbXrecord
 10
0.0
 20
0.0
 30
0.0
  0
XRECORD
  5
300
102
{ACAD_REACTORS
330
2E3
102
}
330
2E3
100
AcDbXrecord
 10
0.0
 20
0.0
 30
0.0
  0
XRECORD
  5
2FD
102
{ACAD_REACTORS
330
2E3
102
}
330
2E3
100
AcDbXrecord
 10
0.0
 20
0.0
 30
0.0
  0
XRECORD
  5
2FA
102
{ACAD_REACTORS
330
2E3
102
}
330
2E3
100
AcDbXrecord
340
0
  0
XRECORD
  5
2FB
102
{ACAD_REACTORS
330
2E3
102
}
330
2E3
100
AcDbXrecord
 70
     0
  0
XRECORD
  5
2EF
102
{ACAD_REACTORS
330
2E3
102
}
330
2E3
100
AcDbXrecord
  1
{FAEB1C32-E019-11D5-929B-00C0DF256EC4}
  0
DICTIONARYVAR
  5
30E
102
{ACAD_REACTORS
330
304
102
}
330
304
100
DictionaryVariables
280
     0
  1
1:1
  0
DICTIONARYVAR
  5
306
102
{ACAD_REACTORS
330
304
102
}
330
304
100
DictionaryVariables
280
     0
  1
Standard
  0
DICTIONARYVAR
  5
305
102
{ACAD_REACTORS
330
304
102
}
330
304
100
DictionaryVariables
280
     0
  1
Standard
  0
DICTIONARYVAR
  5
309
102
{ACAD_REACTORS
330
304
102
}
330
304
100
DictionaryVariables
280
     0
  1
2
  0
DICTIONARYVAR
  5
30A
102
{ACAD_REACTORS
330
304
102
}
330
304
100
DictionaryVariables
280
     0
  1
1
  0
DICTIONARYVAR
  5
30F
102
{ACAD_REACTORS
330
304
102
}
330
304
100
DictionaryVariables
280
     0
  1
1
  0
DICTIONARY
  5
312
330
45
100
AcDbDictionary
280
     1
  3
ACAD_XREC_ROUNDTRIP
360
313
  0
DICTIONARY
  5
310
330
44
100
AcDbDictionary
280
     1
  3
ACAD_XREC_ROUNDTRIP
360
311
  0
DICTIONARY
  5
314
330
46
100
AcDbDictionary
280
     1
  3
ACAD_XREC_ROUNDTRIP
360
315
  0
XRECORD
  5
313
102
{ACAD_REACTORS
330
312
102
}
330
312
100
AcDbXrecord
102
MATERIAL
148
0.0
149
0.0
149
0.0
 93
        0
 94
      127
282
     0
 72
     1
 77
     1
171
     1
175
     1
179
     1
273
     0
  0
XRECORD
  5
311
102
{ACAD_REACTORS
330
310
102
}
330
310
100
AcDbXrecord
102
MATERIAL
148
0.0
149
0.0
149
0.0
 93
        0
 94
      127
282
     0
 72
     1
 77
     1
171
     1
175
     1
179
     1
273
     0
  0
XRECORD
  5
315
102
{ACAD_REACTORS
330
314
102
}
330
314
100
AcDbXrecord
102
MATERIAL
148
0.0
149
0.0
149
0.0
 93
        0
 94
      127
282
     0
 72
     1
 77
     1
171
     1
175
     1
179
     1
273
     0
  0
ENDSEC
  0
EOF
