<svg id="Layer_1" data-name="Layer 1" xmlns="http://www.w3.org/2000/svg" viewBox="0 0 425.2 425.2"><defs><style>.cls-1,.cls-2{fill:none;stroke-linecap:round;stroke-linejoin:round;}.cls-1{stroke:#000;stroke-width:0.25px;}.cls-2{stroke:#1d1d1b;}</style></defs><line class="cls-1" x1="229.46" y1="189.92" x2="229.1" y2="189.99"/><line class="cls-1" x1="241.83" y1="199.18" x2="241.6" y2="199.46"/><line class="cls-1" x1="253.2" y1="203.55" x2="244.17" y2="198.34"/><line class="cls-1" x1="242.19" y1="199.12" x2="241.83" y2="199.18"/><line class="cls-1" x1="254.26" y1="216.21" x2="254.26" y2="205.38"/><line class="cls-1" x1="254.26" y1="205.38" x2="254.18" y2="204.89"/><line class="cls-1" x1="243.17" y1="198.64" x2="243.16" y2="198.72"/><line class="cls-1" x1="243.14" y1="198.82" x2="243.11" y2="198.95"/><line class="cls-1" x1="252.67" y1="206.3" x2="252.59" y2="205.81"/><line class="cls-1" x1="227.27" y1="191.19" x2="227.19" y2="191.59"/><line class="cls-1" x1="242.58" y1="199.26" x2="242.19" y2="199.12"/><line class="cls-1" x1="229.85" y1="190.06" x2="229.46" y2="189.92"/><line class="cls-1" x1="252.59" y1="205.81" x2="252.36" y2="205.26"/><line class="cls-1" x1="252.36" y1="205.26" x2="251.99" y2="204.78"/><line class="cls-1" x1="241.52" y1="221.52" x2="239.4" y2="220.29"/><line class="cls-1" x1="239.62" y1="196.06" x2="239.26" y2="195.58"/><line class="cls-1" x1="228.81" y1="190.55" x2="228.79" y2="190.68"/><line class="cls-1" x1="237.28" y1="196.19" x2="228.25" y2="190.98"/><line class="cls-1" x1="238.34" y1="220.29" x2="238.34" y2="198.03"/><line class="cls-1" x1="227.5" y1="190.91" x2="227.27" y2="191.19"/><line class="cls-1" x1="227.19" y1="201.81" x2="200.66" y2="186.49"/><line class="cls-1" x1="239.93" y1="197.11" x2="239.85" y2="196.62"/><line class="cls-1" x1="239.26" y1="195.58" x2="238.87" y2="195.27"/><line class="cls-1" x1="229.1" y1="189.99" x2="228.94" y2="190.17"/><line class="cls-1" x1="228.91" y1="190.21" x2="228.86" y2="190.27"/><line class="cls-1" x1="238.03" y1="196.98" x2="237.67" y2="196.5"/><line class="cls-1" x1="239.85" y1="196.62" x2="239.62" y2="196.06"/><line class="cls-1" x1="199.59" y1="175.66" x2="199.52" y2="175.17"/><line class="cls-1" x1="200.88" y1="173.7" x2="200.52" y2="173.22"/><line class="cls-1" x1="199.28" y1="174.62" x2="198.92" y2="174.14"/><line class="cls-1" x1="188.52" y1="168.82" x2="188.45" y2="169.23"/><line class="cls-1" x1="198.92" y1="174.14" x2="198.53" y2="173.82"/><line class="cls-1" x1="198.53" y1="173.82" x2="189.51" y2="168.61"/><line class="cls-1" x1="239.93" y1="219.38" x2="239.93" y2="197.11"/><line class="cls-1" x1="227.86" y1="190.84" x2="227.5" y2="190.91"/><line class="cls-1" x1="228.25" y1="190.98" x2="227.86" y2="190.84"/><line class="cls-1" x1="238.87" y1="195.27" x2="229.85" y2="190.06"/><line class="cls-1" x1="238.26" y1="197.54" x2="238.03" y2="196.98"/><line class="cls-1" x1="189.51" y1="168.61" x2="189.12" y2="168.47"/><line class="cls-1" x1="190.35" y1="167.62" x2="190.2" y2="167.81"/><line class="cls-1" x1="190.16" y1="167.84" x2="190.12" y2="167.9"/><line class="cls-1" x1="199.52" y1="175.17" x2="199.28" y2="174.62"/><line class="cls-1" x1="200.66" y1="186.49" x2="200.66" y2="185.88"/><line class="cls-1" x1="238.34" y1="198.03" x2="238.26" y2="197.54"/><line class="cls-1" x1="237.67" y1="196.5" x2="237.28" y2="196.19"/><line class="cls-1" x1="190.71" y1="167.56" x2="190.35" y2="167.62"/><line class="cls-1" x1="188.76" y1="168.54" x2="188.52" y2="168.82"/><line class="cls-1" x1="191.1" y1="167.69" x2="190.71" y2="167.56"/><line class="cls-1" x1="189.12" y1="168.47" x2="188.76" y2="168.54"/><line class="cls-1" x1="201.19" y1="185.57" x2="201.19" y2="174.74"/><line class="cls-1" x1="201.19" y1="174.74" x2="201.11" y2="174.25"/><line class="cls-1" x1="190.07" y1="168.18" x2="190.04" y2="168.31"/><line class="cls-1" x1="188.45" y1="190.88" x2="186.33" y2="189.65"/><line class="cls-1" x1="186.33" y1="189.65" x2="186.33" y2="189.04"/><line class="cls-1" x1="199.59" y1="186.49" x2="199.59" y2="175.66"/><line class="cls-1" x1="200.52" y1="173.22" x2="200.13" y2="172.91"/><line class="cls-1" x1="200.13" y1="172.91" x2="191.1" y2="167.69"/><line class="cls-1" x1="201.11" y1="174.25" x2="200.88" y2="173.7"/><line class="cls-1" x1="321.13" y1="256.04" x2="306.8" y2="247.77"/><line class="cls-1" x1="253.73" y1="217.13" x2="253.73" y2="216.52"/><line class="cls-1" x1="307.33" y1="246.85" x2="307.33" y2="236.02"/><line class="cls-1" x1="306.27" y1="234.19" x2="297.24" y2="228.98"/><line class="cls-1" x1="285.75" y1="229.49" x2="285.75" y2="226.42"/><line class="cls-1" x1="296.85" y1="228.84" x2="296.49" y2="228.9"/><line class="cls-1" x1="321.13" y1="304.46" x2="321.13" y2="256.04"/><line class="cls-1" x1="306.8" y1="247.77" x2="306.8" y2="247.16"/><line class="cls-1" x1="306.66" y1="234.5" x2="306.27" y2="234.19"/><line class="cls-1" x1="301.85" y1="240.01" x2="299.72" y2="238.78"/><line class="cls-1" x1="176.38" y1="159.28" x2="176.02" y2="159.35"/><line class="cls-1" x1="175.86" y1="159.53" x2="175.79" y2="159.63"/><line class="cls-1" x1="307.26" y1="235.53" x2="307.02" y2="234.98"/><line class="cls-1" x1="287.34" y1="231.63" x2="285.22" y2="230.41"/><line class="cls-1" x1="285.75" y1="280.56" x2="285.75" y2="277.49"/><line class="cls-1" x1="301.85" y1="291.07" x2="299.72" y2="289.85"/><line class="cls-1" x1="307.33" y1="236.02" x2="307.26" y2="235.53"/><line class="cls-1" x1="297.24" y1="228.98" x2="296.85" y2="228.84"/><line class="cls-1" x1="292.47" y1="250.94" x2="292.47" y2="250.32"/><line class="cls-1" x1="294.59" y1="252.16" x2="292.47" y2="250.94"/><line class="cls-1" x1="307.02" y1="234.98" x2="306.66" y2="234.5"/><line class="cls-1" x1="176.77" y1="159.42" x2="176.38" y2="159.28"/><line class="cls-1" x1="186.78" y1="165.98" x2="186.55" y2="165.42"/><line class="cls-1" x1="186.86" y1="166.47" x2="186.78" y2="165.98"/><line class="cls-1" x1="174.12" y1="171.17" x2="147.58" y2="155.85"/><line class="cls-1" x1="185.8" y1="164.63" x2="176.77" y2="159.42"/><line class="cls-1" x1="186.19" y1="164.94" x2="185.8" y2="164.63"/><line class="cls-1" x1="147.58" y1="155.85" x2="147.58" y2="155.24"/><line class="cls-1" x1="186.55" y1="165.42" x2="186.19" y2="164.94"/><line class="cls-1" x1="186.86" y1="188.74" x2="186.86" y2="166.47"/><line class="cls-1" x1="119.9" y1="188.89" x2="119.97" y2="189.38"/><line class="cls-1" x1="116.64" y1="187.46" x2="116.72" y2="187.05"/><line class="cls-1" x1="116.4" y1="187.74" x2="116.64" y2="187.46"/><line class="cls-1" x1="120.21" y1="189.93" x2="120.57" y2="190.41"/><line class="cls-1" x1="116.04" y1="187.8" x2="116.4" y2="187.74"/><line class="cls-1" x1="191.99" y1="178.42" x2="191.99" y2="177.19"/><line class="cls-1" x1="119.97" y1="189.38" x2="120.21" y2="189.93"/><line class="cls-1" x1="196.23" y1="180.87" x2="191.99" y2="178.42"/><line class="cls-1" x1="108.31" y1="183.42" x2="115.65" y2="187.66"/><line class="cls-1" x1="132.12" y1="196.39" x2="132.2" y2="195.99"/><line class="cls-1" x1="131.13" y1="196.6" x2="131.52" y2="196.74"/><line class="cls-1" x1="115.65" y1="187.66" x2="116.04" y2="187.8"/><line class="cls-1" x1="132.2" y1="195.99" x2="132.2" y2="191.9"/><line class="cls-1" x1="196.23" y1="175.97" x2="195.7" y2="175.66"/><line class="cls-1" x1="116.72" y1="187.05" x2="116.72" y2="166.21"/><line class="cls-1" x1="107.33" y1="182.08" x2="107.56" y2="182.63"/><line class="cls-1" x1="196.23" y1="179.65" x2="196.23" y2="180.87"/><line class="cls-1" x1="107.92" y1="183.11" x2="108.31" y2="183.42"/><line class="cls-1" x1="107.25" y1="177.5" x2="107.25" y2="181.59"/><line class="cls-1" x1="131.52" y1="196.74" x2="131.88" y2="196.67"/><line class="cls-1" x1="195.7" y1="179.34" x2="196.23" y2="179.65"/><line class="cls-1" x1="107.56" y1="182.63" x2="107.92" y2="183.11"/><line class="cls-1" x1="191.99" y1="173.52" x2="191.99" y2="172.29"/><line class="cls-1" x1="107.25" y1="181.59" x2="107.33" y2="182.08"/><line class="cls-1" x1="131.88" y1="196.67" x2="132.12" y2="196.39"/><line class="cls-1" x1="120.57" y1="190.41" x2="120.96" y2="190.73"/><line class="cls-1" x1="120.96" y1="190.73" x2="131.13" y2="196.6"/><line class="cls-1" x1="146.52" y1="145.02" x2="146.45" y2="144.53"/><line class="cls-1" x1="145.46" y1="143.18" x2="136.44" y2="137.97"/><line class="cls-1" x1="146.21" y1="143.97" x2="145.85" y2="143.49"/><line class="cls-1" x1="145.85" y1="143.49" x2="145.46" y2="143.18"/><line class="cls-1" x1="136.05" y1="137.83" x2="135.69" y2="137.9"/><line class="cls-1" x1="146.52" y1="155.85" x2="146.52" y2="145.02"/><line class="cls-1" x1="136.44" y1="137.97" x2="136.05" y2="137.83"/><line class="cls-1" x1="135.45" y1="138.18" x2="135.38" y2="138.59"/><line class="cls-1" x1="135.69" y1="137.9" x2="135.45" y2="138.18"/><line class="cls-1" x1="174.79" y1="160.2" x2="174.43" y2="160.27"/><line class="cls-1" x1="175.18" y1="160.34" x2="174.79" y2="160.2"/><line class="cls-1" x1="192.52" y1="228.57" x2="192.52" y2="224.89"/><line class="cls-1" x1="234.8" y1="254.2" x2="230.55" y2="251.75"/><line class="cls-1" x1="184.6" y1="165.86" x2="184.2" y2="165.55"/><line class="cls-1" x1="249.3" y1="261.35" x2="249.3" y2="262.58"/><line class="cls-1" x1="184.96" y1="166.34" x2="184.6" y2="165.86"/><line class="cls-1" x1="195.7" y1="230.41" x2="196.23" y2="230.71"/><line class="cls-1" x1="230.55" y1="246.85" x2="230.55" y2="245.62"/><line class="cls-1" x1="231.08" y1="250.83" x2="231.08" y2="247.16"/><line class="cls-1" x1="146.45" y1="144.53" x2="146.21" y2="143.97"/><line class="cls-1" x1="174.43" y1="160.27" x2="174.19" y2="160.55"/><line class="cls-1" x1="192.52" y1="173.82" x2="191.99" y2="173.52"/><line class="cls-1" x1="234.8" y1="201.91" x2="234.8" y2="203.14"/><line class="cls-1" x1="196.23" y1="227.04" x2="195.7" y2="226.73"/><line class="cls-1" x1="196.23" y1="231.94" x2="191.99" y2="229.49"/><line class="cls-1" x1="184.2" y1="165.55" x2="175.18" y2="160.34"/><line class="cls-1" x1="231.08" y1="247.16" x2="230.55" y2="246.85"/><line class="cls-1" x1="196.23" y1="230.71" x2="196.23" y2="231.94"/><line class="cls-1" x1="185.19" y1="166.89" x2="184.96" y2="166.34"/><line class="cls-1" x1="249.3" y1="257.68" x2="248.77" y2="257.37"/><line class="cls-1" x1="231.08" y1="196.09" x2="230.55" y2="195.78"/><line class="cls-1" x1="191.99" y1="224.59" x2="191.99" y2="223.36"/><line class="cls-1" x1="248.77" y1="261.05" x2="249.3" y2="261.35"/><line class="cls-1" x1="234.8" y1="249.3" x2="234.27" y2="249"/><line class="cls-1" x1="191.99" y1="177.19" x2="192.52" y2="177.5"/><line class="cls-1" x1="231.08" y1="199.77" x2="231.08" y2="196.09"/><line class="cls-1" x1="230.55" y1="250.53" x2="231.08" y2="250.83"/><line class="cls-1" x1="192.52" y1="224.89" x2="191.99" y2="224.59"/><line class="cls-1" x1="245.06" y1="255.23" x2="245.06" y2="254"/><line class="cls-1" x1="234.27" y1="201.61" x2="234.8" y2="201.91"/><line class="cls-1" x1="230.55" y1="251.75" x2="230.55" y2="250.53"/><line class="cls-1" x1="174.19" y1="160.55" x2="174.12" y2="160.95"/><line class="cls-1" x1="191.99" y1="228.26" x2="192.52" y2="228.57"/><line class="cls-1" x1="185.27" y1="189.65" x2="185.27" y2="167.39"/><line class="cls-1" x1="185.27" y1="167.39" x2="185.19" y2="166.89"/><line class="cls-1" x1="234.8" y1="252.98" x2="234.8" y2="254.2"/><line class="cls-1" x1="234.27" y1="252.67" x2="234.8" y2="252.98"/><line class="cls-1" x1="230.55" y1="195.78" x2="230.55" y2="194.56"/><line class="cls-1" x1="186.86" y1="225.71" x2="186.86" y2="222.24"/><line class="cls-1" x1="230.55" y1="200.69" x2="230.55" y2="199.46"/><line class="cls-1" x1="186.55" y1="226.4" x2="186.78" y2="226.12"/><line class="cls-1" x1="186.19" y1="226.46" x2="186.31" y2="226.44"/><line class="cls-1" x1="234.8" y1="203.14" x2="230.55" y2="200.69"/><line class="cls-1" x1="234.8" y1="198.24" x2="234.27" y2="197.93"/><line class="cls-1" x1="230.55" y1="199.46" x2="231.08" y2="199.77"/><line class="cls-1" x1="191.99" y1="229.49" x2="191.99" y2="228.26"/><line class="cls-1" x1="192.52" y1="177.5" x2="192.52" y2="173.82"/><line class="cls-1" x1="186.78" y1="226.12" x2="186.86" y2="225.71"/><line class="cls-1" x1="135.45" y1="198.32" x2="135.69" y2="198.87"/><line class="cls-1" x1="136.44" y1="199.66" x2="184.2" y2="227.24"/><line class="cls-1" x1="184.2" y1="227.24" x2="184.6" y2="227.38"/><line class="cls-1" x1="135.69" y1="198.87" x2="136.05" y2="199.35"/><line class="cls-1" x1="136.05" y1="199.35" x2="136.44" y2="199.66"/><line class="cls-1" x1="135.38" y1="193.74" x2="135.38" y2="197.83"/><line class="cls-1" x1="135.38" y1="197.83" x2="135.45" y2="198.32"/><line class="cls-1" x1="241.6" y1="199.46" x2="241.52" y2="199.87"/><line class="cls-1" x1="238.03" y1="257.96" x2="238.26" y2="257.68"/><line class="cls-1" x1="241.83" y1="260.15" x2="242.19" y2="260.63"/><line class="cls-1" x1="242.19" y1="260.63" x2="242.58" y2="260.95"/><line class="cls-1" x1="251.99" y1="204.78" x2="251.6" y2="204.47"/><line class="cls-1" x1="252.67" y1="217.13" x2="252.67" y2="206.3"/><line class="cls-1" x1="241.52" y1="255.02" x2="241.52" y2="259.11"/><line class="cls-1" x1="238.26" y1="257.68" x2="238.34" y2="257.27"/><line class="cls-1" x1="238.34" y1="257.27" x2="238.34" y2="253.18"/><line class="cls-1" x1="241.6" y1="259.6" x2="241.83" y2="260.15"/><line class="cls-1" x1="241.52" y1="259.11" x2="241.6" y2="259.6"/><line class="cls-1" x1="251.6" y1="204.47" x2="242.58" y2="199.26"/><line class="cls-1" x1="132.2" y1="159.01" x2="132.2" y2="150.03"/><line class="cls-1" x1="132.2" y1="150.03" x2="132.12" y2="149.53"/><line class="cls-1" x1="132.12" y1="149.53" x2="131.88" y2="148.98"/><line class="cls-1" x1="131.13" y1="148.19" x2="108.31" y2="135.01"/><line class="cls-1" x1="107.56" y1="134.94" x2="107.33" y2="135.22"/><line class="cls-1" x1="107.33" y1="135.22" x2="107.25" y2="135.63"/><line class="cls-1" x1="131.52" y1="148.5" x2="131.13" y2="148.19"/><line class="cls-1" x1="107.92" y1="134.87" x2="107.56" y2="134.94"/><line class="cls-1" x1="131.88" y1="148.98" x2="131.52" y2="148.5"/><line class="cls-1" x1="108.31" y1="135.01" x2="107.92" y2="134.87"/><line class="cls-1" x1="245.59" y1="208.14" x2="245.59" y2="204.46"/><line class="cls-1" x1="245.06" y1="258.9" x2="245.59" y2="259.21"/><line class="cls-1" x1="189.51" y1="230.3" x2="237.28" y2="257.88"/><line class="cls-1" x1="178.01" y1="165.45" x2="177.48" y2="165.14"/><line class="cls-1" x1="188.76" y1="229.51" x2="189.12" y2="229.99"/><line class="cls-1" x1="249.3" y1="211.51" x2="245.06" y2="209.06"/><line class="cls-1" x1="143.16" y1="145.33" x2="142.63" y2="145.02"/><line class="cls-1" x1="181.2" y1="170.96" x2="181.73" y2="171.27"/><line class="cls-1" x1="177.48" y1="168.82" x2="178.01" y2="169.12"/><line class="cls-1" x1="245.06" y1="260.13" x2="245.06" y2="258.9"/><line class="cls-1" x1="249.3" y1="262.58" x2="245.06" y2="260.13"/><line class="cls-1" x1="143.16" y1="149.01" x2="143.16" y2="150.23"/><line class="cls-1" x1="249.3" y1="206.61" x2="248.77" y2="206.3"/><line class="cls-1" x1="143.16" y1="196.39" x2="142.63" y2="196.09"/><line class="cls-1" x1="138.92" y1="146.55" x2="139.45" y2="146.86"/><line class="cls-1" x1="245.06" y1="204.16" x2="245.06" y2="202.93"/><line class="cls-1" x1="139.45" y1="146.86" x2="139.45" y2="143.18"/><line class="cls-1" x1="138.92" y1="142.88" x2="138.92" y2="141.65"/><line class="cls-1" x1="178.01" y1="169.12" x2="178.01" y2="165.45"/><line class="cls-1" x1="181.73" y1="171.27" x2="181.73" y2="172.5"/><line class="cls-1" x1="249.3" y1="210.29" x2="249.3" y2="211.51"/><line class="cls-1" x1="142.63" y1="148.7" x2="143.16" y2="149.01"/><line class="cls-1" x1="237.28" y1="257.88" x2="237.67" y2="258.02"/><line class="cls-1" x1="184.6" y1="227.38" x2="184.96" y2="227.32"/><line class="cls-1" x1="181.73" y1="172.5" x2="177.48" y2="170.04"/><line class="cls-1" x1="245.59" y1="204.46" x2="245.06" y2="204.16"/><line class="cls-1" x1="177.48" y1="170.04" x2="177.48" y2="168.82"/><line class="cls-1" x1="177.48" y1="165.14" x2="177.48" y2="163.92"/><line class="cls-1" x1="245.06" y1="207.83" x2="245.59" y2="208.14"/><line class="cls-1" x1="245.59" y1="259.21" x2="245.59" y2="255.53"/><line class="cls-1" x1="138.92" y1="147.78" x2="138.92" y2="146.55"/><line class="cls-1" x1="181.73" y1="167.59" x2="181.2" y2="167.29"/><line class="cls-1" x1="143.16" y1="150.23" x2="138.92" y2="147.78"/><line class="cls-1" x1="245.06" y1="209.06" x2="245.06" y2="207.83"/><line class="cls-1" x1="189.12" y1="229.99" x2="189.51" y2="230.3"/><line class="cls-1" x1="245.59" y1="255.53" x2="245.06" y2="255.23"/><line class="cls-1" x1="185.27" y1="226.63" x2="185.27" y2="222.54"/><line class="cls-1" x1="237.67" y1="258.02" x2="238.03" y2="257.96"/><line class="cls-1" x1="248.77" y1="209.98" x2="249.3" y2="210.29"/><line class="cls-1" x1="185.19" y1="227.04" x2="185.27" y2="226.63"/><line class="cls-1" x1="138.92" y1="193.94" x2="138.92" y2="192.72"/><line class="cls-1" x1="188.45" y1="228.47" x2="188.52" y2="228.96"/><line class="cls-1" x1="139.45" y1="143.18" x2="138.92" y2="142.88"/><line class="cls-1" x1="239.26" y1="257.1" x2="239.38" y2="257.08"/><line class="cls-1" x1="239.47" y1="257.06" x2="239.62" y2="257.04"/><line class="cls-1" x1="184.96" y1="227.32" x2="185.19" y2="227.04"/><line class="cls-1" x1="188.52" y1="228.96" x2="188.76" y2="229.51"/><line class="cls-1" x1="239.93" y1="256.35" x2="239.93" y2="252.88"/><line class="cls-1" x1="239.62" y1="257.04" x2="239.85" y2="256.76"/><line class="cls-1" x1="239.85" y1="256.76" x2="239.93" y2="256.35"/><line class="cls-1" x1="188.45" y1="224.38" x2="188.45" y2="228.47"/><line class="cls-1" x1="133.71" y1="195.48" x2="133.79" y2="195.07"/><line class="cls-1" x1="133.06" y1="195.8" x2="133.12" y2="195.82"/><line class="cls-1" x1="177.48" y1="219.89" x2="178.01" y2="220.19"/><line class="cls-1" x1="181.73" y1="222.34" x2="181.73" y2="223.56"/><line class="cls-1" x1="139.45" y1="194.25" x2="138.92" y2="193.94"/><line class="cls-1" x1="177.48" y1="216.21" x2="177.48" y2="214.98"/><line class="cls-1" x1="177.48" y1="221.11" x2="177.48" y2="219.89"/><line class="cls-1" x1="133.79" y1="195.07" x2="133.79" y2="191.59"/><line class="cls-1" x1="133.48" y1="195.75" x2="133.71" y2="195.48"/><line class="cls-1" x1="181.73" y1="223.56" x2="177.48" y2="221.11"/><line class="cls-1" x1="143.16" y1="201.3" x2="138.92" y2="198.85"/><line class="cls-1" x1="142.63" y1="199.77" x2="143.16" y2="200.07"/><line class="cls-1" x1="178.01" y1="220.19" x2="178.01" y2="216.52"/><line class="cls-1" x1="143.16" y1="200.07" x2="143.16" y2="201.3"/><line class="cls-1" x1="138.92" y1="198.85" x2="138.92" y2="197.62"/><line class="cls-1" x1="178.01" y1="216.52" x2="177.48" y2="216.21"/><line class="cls-1" x1="181.73" y1="218.66" x2="181.2" y2="218.35"/><line class="cls-1" x1="181.2" y1="222.03" x2="181.73" y2="222.34"/><line class="cls-1" x1="138.92" y1="197.62" x2="139.45" y2="197.93"/><line class="cls-1" x1="139.45" y1="197.93" x2="139.45" y2="194.25"/><line class="cls-1" x1="280.26" y1="232.45" x2="253.73" y2="217.13"/><line class="cls-1" x1="194.11" y1="176.58" x2="194.11" y2="173.52"/><line class="cls-1" x1="137.64" y1="136.92" x2="137.28" y2="136.98"/><line class="cls-1" x1="136.99" y1="137.54" x2="136.97" y2="137.67"/><line class="cls-1" x1="137.28" y1="136.98" x2="137.12" y2="137.17"/><line class="cls-1" x1="137.09" y1="137.2" x2="137.05" y2="137.26"/><line class="cls-1" x1="148.12" y1="154.93" x2="148.12" y2="144.1"/><line class="cls-1" x1="147.44" y1="142.57" x2="147.05" y2="142.26"/><line class="cls-1" x1="135.38" y1="160.24" x2="133.26" y2="159.01"/><line class="cls-1" x1="147.05" y1="142.26" x2="138.03" y2="137.05"/><line class="cls-1" x1="133.26" y1="159.01" x2="133.26" y2="158.4"/><line class="cls-1" x1="138.03" y1="137.05" x2="137.64" y2="136.92"/><line class="cls-1" x1="147.8" y1="143.06" x2="147.44" y2="142.57"/><line class="cls-1" x1="148.12" y1="144.1" x2="148.04" y2="143.61"/><line class="cls-1" x1="148.04" y1="143.61" x2="147.8" y2="143.06"/><line class="cls-1" x1="292.33" y1="226.23" x2="291.94" y2="225.91"/><line class="cls-1" x1="292.69" y1="287.68" x2="292.93" y2="287.4"/><line class="cls-1" x1="292.69" y1="226.71" x2="292.33" y2="226.23"/><line class="cls-1" x1="299.72" y1="289.85" x2="299.72" y2="289.24"/><line class="cls-1" x1="298.66" y1="286.17" x2="298.13" y2="285.87"/><line class="cls-1" x1="287.34" y1="282.7" x2="285.22" y2="281.47"/><line class="cls-1" x1="293" y1="227.75" x2="292.93" y2="227.26"/><line class="cls-1" x1="290.88" y1="283.52" x2="290.88" y2="282.29"/><line class="cls-1" x1="285.22" y1="230.41" x2="285.22" y2="229.79"/><line class="cls-1" x1="285.22" y1="281.47" x2="285.22" y2="280.86"/><line class="cls-1" x1="302.38" y1="242.15" x2="298.13" y2="239.7"/><line class="cls-1" x1="319.53" y1="256.96" x2="305.21" y2="248.69"/><line class="cls-1" x1="284.16" y1="281.47" x2="284.16" y2="277.8"/><line class="cls-1" x1="295.65" y1="229.9" x2="295.26" y2="229.76"/><line class="cls-1" x1="299.72" y1="238.78" x2="299.72" y2="238.17"/><line class="cls-1" x1="292.93" y1="227.26" x2="292.69" y2="226.71"/><line class="cls-1" x1="319.53" y1="305.37" x2="319.53" y2="256.96"/><line class="cls-1" x1="291.94" y1="225.91" x2="282.92" y2="220.7"/><line class="cls-1" x1="300.25" y1="288.93" x2="300.25" y2="285.87"/><line class="cls-1" x1="294.59" y1="252.77" x2="295.12" y2="253.08"/><line class="cls-1" x1="293" y1="286.99" x2="293" y2="283.52"/><line class="cls-1" x1="292.93" y1="287.4" x2="293" y2="286.99"/><line class="cls-1" x1="300.25" y1="237.86" x2="300.25" y2="234.8"/><line class="cls-1" x1="293" y1="250.02" x2="293" y2="227.75"/><line class="cls-1" x1="305.21" y1="248.69" x2="305.21" y2="247.46"/><line class="cls-1" x1="282.92" y1="220.7" x2="282.53" y2="220.56"/><line class="cls-1" x1="282.53" y1="220.56" x2="282.17" y2="220.63"/><line class="cls-1" x1="295.26" y1="229.76" x2="294.9" y2="229.82"/><line class="cls-1" x1="280.57" y1="221.55" x2="280.34" y2="221.83"/><line class="cls-1" x1="291.33" y1="228.18" x2="291.1" y2="227.63"/><line class="cls-1" x1="298.66" y1="289.85" x2="298.66" y2="286.17"/><line class="cls-1" x1="305.07" y1="235.42" x2="304.68" y2="235.1"/><line class="cls-1" x1="301.85" y1="240.62" x2="302.38" y2="240.93"/><line class="cls-1" x1="287.87" y1="233.78" x2="283.62" y2="231.33"/><line class="cls-1" x1="295.65" y1="291.58" x2="319.53" y2="305.37"/><line class="cls-1" x1="302.38" y1="288.32" x2="301.85" y2="288.01"/><line class="cls-1" x1="305.66" y1="236.45" x2="305.43" y2="235.9"/><line class="cls-1" x1="296.49" y1="228.9" x2="294.9" y2="229.82"/><line class="cls-1" x1="298.66" y1="235.1" x2="298.13" y2="234.8"/><line class="cls-1" x1="283.62" y1="226.42" x2="283.62" y2="225.2"/><line class="cls-1" x1="305.74" y1="236.94" x2="305.66" y2="236.45"/><line class="cls-1" x1="290.35" y1="226.83" x2="281.33" y2="221.62"/><line class="cls-1" x1="302.38" y1="293.22" x2="298.13" y2="290.77"/><line class="cls-1" x1="291.41" y1="228.67" x2="291.33" y2="228.18"/><line class="cls-1" x1="294.67" y1="230.1" x2="294.59" y2="230.51"/><line class="cls-1" x1="292.69" y1="226.71" x2="291.1" y2="227.63"/><line class="cls-1" x1="305.43" y1="235.9" x2="305.07" y2="235.42"/><line class="cls-1" x1="304.68" y1="235.1" x2="295.65" y2="229.9"/><line class="cls-1" x1="283.62" y1="231.33" x2="283.62" y2="230.1"/><line class="cls-1" x1="294.67" y1="290.24" x2="294.9" y2="290.79"/><line class="cls-1" x1="295.26" y1="291.27" x2="295.65" y2="291.58"/><line class="cls-1" x1="302.38" y1="237.25" x2="301.85" y2="236.94"/><line class="cls-1" x1="291.41" y1="283.82" x2="290.88" y2="283.52"/><line class="cls-1" x1="294.59" y1="289.75" x2="294.67" y2="290.24"/><line class="cls-1" x1="281.33" y1="221.62" x2="280.93" y2="221.48"/><line class="cls-1" x1="287.87" y1="228.88" x2="287.34" y2="228.57"/><line class="cls-1" x1="290.74" y1="227.14" x2="290.35" y2="226.83"/><line class="cls-1" x1="284.16" y1="277.8" x2="283.62" y2="277.49"/><line class="cls-1" x1="301.85" y1="291.69" x2="302.38" y2="291.99"/><line class="cls-1" x1="295.12" y1="253.08" x2="295.12" y2="254.31"/><line class="cls-1" x1="290.88" y1="250.63" x2="291.41" y2="250.94"/><line class="cls-1" x1="287.87" y1="279.94" x2="287.34" y2="279.64"/><line class="cls-1" x1="295.12" y1="285.97" x2="294.59" y2="285.66"/><line class="cls-1" x1="305.21" y1="247.46" x2="305.74" y2="247.77"/><line class="cls-1" x1="294.9" y1="229.82" x2="294.67" y2="230.1"/><line class="cls-1" x1="291.1" y1="288.6" x2="291.33" y2="288.32"/><line class="cls-1" x1="290.74" y1="288.66" x2="291.1" y2="288.6"/><line class="cls-1" x1="295.12" y1="254.31" x2="290.88" y2="251.86"/><line class="cls-1" x1="298.13" y1="290.77" x2="298.13" y2="289.54"/><line class="cls-1" x1="294.9" y1="290.79" x2="295.26" y2="291.27"/><line class="cls-1" x1="290.35" y1="288.52" x2="290.74" y2="288.66"/><line class="cls-1" x1="287.87" y1="283.62" x2="287.87" y2="284.84"/><line class="cls-1" x1="305.74" y1="247.77" x2="305.74" y2="236.94"/><line class="cls-1" x1="302.38" y1="291.99" x2="302.38" y2="293.22"/><line class="cls-1" x1="283.62" y1="230.1" x2="284.16" y2="230.41"/><line class="cls-1" x1="280.34" y1="221.83" x2="280.26" y2="222.24"/><line class="cls-1" x1="287.87" y1="284.84" x2="283.62" y2="282.39"/><line class="cls-1" x1="294.59" y1="285.66" x2="294.59" y2="289.75"/><line class="cls-1" x1="290.88" y1="251.86" x2="290.88" y2="250.63"/><line class="cls-1" x1="284.16" y1="230.41" x2="284.16" y2="226.73"/><line class="cls-1" x1="283.62" y1="282.39" x2="283.62" y2="281.17"/><line class="cls-1" x1="306.66" y1="234.5" x2="305.07" y2="235.42"/><line class="cls-1" x1="321.13" y1="256.04" x2="319.53" y2="256.96"/><line class="cls-1" x1="306.8" y1="247.77" x2="305.21" y2="248.69"/><line class="cls-1" x1="307.26" y1="235.53" x2="305.66" y2="236.45"/><line class="cls-1" x1="291.41" y1="250.94" x2="291.41" y2="228.67"/><line class="cls-1" x1="298.66" y1="238.78" x2="298.66" y2="235.1"/><line class="cls-1" x1="306.27" y1="234.19" x2="304.68" y2="235.1"/><line class="cls-1" x1="298.13" y1="238.47" x2="298.66" y2="238.78"/><line class="cls-1" x1="307.33" y1="236.02" x2="305.74" y2="236.94"/><line class="cls-1" x1="283.62" y1="277.49" x2="283.62" y2="276.27"/><line class="cls-1" x1="287.87" y1="232.55" x2="287.87" y2="233.78"/><line class="cls-1" x1="280.93" y1="221.48" x2="280.57" y2="221.55"/><line class="cls-1" x1="298.13" y1="239.7" x2="298.13" y2="238.47"/><line class="cls-1" x1="292.47" y1="250.94" x2="290.88" y2="251.86"/><line class="cls-1" x1="298.13" y1="285.87" x2="298.13" y2="284.64"/><line class="cls-1" x1="291.1" y1="227.63" x2="290.74" y2="227.14"/><line class="cls-1" x1="283.62" y1="281.17" x2="284.16" y2="281.47"/><line class="cls-1" x1="298.13" y1="234.8" x2="298.13" y2="233.57"/><line class="cls-1" x1="291.33" y1="288.32" x2="291.41" y2="287.91"/><line class="cls-1" x1="292.33" y1="226.23" x2="290.74" y2="227.14"/><line class="cls-1" x1="302.38" y1="240.93" x2="302.38" y2="242.15"/><line class="cls-1" x1="307.02" y1="234.98" x2="305.43" y2="235.9"/><line class="cls-1" x1="287.34" y1="232.25" x2="287.87" y2="232.55"/><line class="cls-1" x1="282.92" y1="220.7" x2="281.33" y2="221.62"/><line class="cls-1" x1="280.79" y1="233.37" x2="280.79" y2="234.59"/><line class="cls-1" x1="298.13" y1="289.54" x2="298.66" y2="289.85"/><line class="cls-1" x1="284.16" y1="226.73" x2="283.62" y2="226.42"/><line class="cls-1" x1="287.34" y1="283.31" x2="287.87" y2="283.62"/><line class="cls-1" x1="292.93" y1="227.26" x2="291.33" y2="228.18"/><line class="cls-1" x1="293" y1="227.75" x2="291.41" y2="228.67"/><line class="cls-1" x1="280.26" y1="233.06" x2="280.79" y2="233.37"/><line class="cls-1" x1="297.24" y1="228.98" x2="295.65" y2="229.9"/><line class="cls-1" x1="282.53" y1="220.56" x2="280.93" y2="221.48"/><line class="cls-1" x1="285.22" y1="281.47" x2="283.62" y2="282.39"/><line class="cls-1" x1="291.94" y1="225.91" x2="290.35" y2="226.83"/><line class="cls-1" x1="291.41" y1="287.91" x2="291.41" y2="283.82"/><line class="cls-1" x1="282.17" y1="220.63" x2="280.57" y2="221.55"/><line class="cls-1" x1="284.69" y1="225.81" x2="283.62" y2="226.42"/><line class="cls-1" x1="299.72" y1="285.56" x2="298.66" y2="286.17"/><line class="cls-1" x1="291.94" y1="282.9" x2="290.88" y2="283.52"/><line class="cls-1" x1="287.87" y1="279.33" x2="287.34" y2="279.64"/><line class="cls-1" x1="299.72" y1="289.85" x2="298.13" y2="290.77"/><line class="cls-1" x1="296.85" y1="228.84" x2="295.26" y2="229.76"/><line class="cls-1" x1="302.38" y1="236.64" x2="301.85" y2="236.94"/><line class="cls-1" x1="299.72" y1="238.78" x2="298.13" y2="239.7"/><line class="cls-1" x1="285.22" y1="226.12" x2="284.16" y2="226.73"/><line class="cls-1" x1="284.69" y1="276.88" x2="283.62" y2="277.49"/><line class="cls-1" x1="292.47" y1="283.21" x2="291.41" y2="283.82"/><line class="cls-1" x1="295.12" y1="285.36" x2="294.59" y2="285.66"/><line class="cls-1" x1="302.38" y1="287.7" x2="301.85" y2="288.01"/><line class="cls-1" x1="287.87" y1="228.26" x2="287.34" y2="228.57"/><line class="cls-1" x1="285.22" y1="277.19" x2="284.16" y2="277.8"/><line class="cls-1" x1="299.72" y1="234.49" x2="298.66" y2="235.1"/><line class="cls-1" x1="292.93" y1="287.4" x2="291.33" y2="288.32"/><line class="cls-1" x1="285.22" y1="230.41" x2="283.62" y2="231.33"/><line class="cls-1" x1="292.69" y1="287.68" x2="291.1" y2="288.6"/><line class="cls-1" x1="299.19" y1="285.25" x2="298.13" y2="285.87"/><line class="cls-1" x1="293" y1="286.99" x2="291.41" y2="287.91"/><line class="cls-1" x1="321.13" y1="304.46" x2="319.53" y2="305.37"/><line class="cls-1" x1="299.19" y1="234.19" x2="298.13" y2="234.8"/><line class="cls-1" x1="109.52" y1="133.95" x2="109.16" y2="134.02"/><line class="cls-1" x1="133.79" y1="158.1" x2="133.79" y2="149.11"/><line class="cls-1" x1="253.59" y1="203.86" x2="253.2" y2="203.55"/><line class="cls-1" x1="142.63" y1="199.15" x2="140.51" y2="197.93"/><line class="cls-1" x1="118.31" y1="186.13" x2="118.31" y2="165.91"/><line class="cls-1" x1="239.4" y1="220.29" x2="239.4" y2="219.68"/><line class="cls-1" x1="244.17" y1="198.34" x2="243.78" y2="198.2"/><line class="cls-1" x1="133.48" y1="148.06" x2="133.12" y2="147.58"/><line class="cls-1" x1="109.16" y1="134.02" x2="108.97" y2="134.24"/><line class="cls-1" x1="253.95" y1="204.34" x2="253.59" y2="203.86"/><line class="cls-1" x1="109.91" y1="134.09" x2="109.52" y2="133.95"/><line class="cls-1" x1="179.07" y1="220.19" x2="179.07" y2="219.58"/><line class="cls-1" x1="140.51" y1="197.93" x2="140.51" y2="197.32"/><line class="cls-1" x1="254.18" y1="204.89" x2="253.95" y2="204.34"/><line class="cls-1" x1="118.23" y1="186.54" x2="118.31" y2="186.13"/><line class="cls-1" x1="117.76" y1="186.86" x2="118" y2="186.82"/><line class="cls-1" x1="118" y1="186.82" x2="118.23" y2="186.54"/><line class="cls-1" x1="108.92" y1="134.3" x2="108.9" y2="134.39"/><line class="cls-1" x1="108.87" y1="134.58" x2="108.84" y2="134.71"/><line class="cls-1" x1="132.73" y1="147.27" x2="109.91" y2="134.09"/><line class="cls-1" x1="133.12" y1="147.58" x2="132.73" y2="147.27"/><line class="cls-1" x1="243.42" y1="198.26" x2="243.23" y2="198.49"/><line class="cls-1" x1="243.78" y1="198.2" x2="243.42" y2="198.26"/><line class="cls-1" x1="108.84" y1="134.86" x2="108.84" y2="134.86"/><line class="cls-1" x1="133.79" y1="149.11" x2="133.71" y2="148.61"/><line class="cls-1" x1="179.61" y1="219.27" x2="179.61" y2="216.21"/><line class="cls-1" x1="133.71" y1="148.61" x2="133.48" y2="148.06"/><line class="cls-1" x1="181.2" y1="221.42" x2="179.07" y2="220.19"/><line class="cls-1" x1="179.07" y1="169.12" x2="179.07" y2="168.51"/><line class="cls-1" x1="246.65" y1="259.21" x2="246.65" y2="258.6"/><line class="cls-1" x1="248.77" y1="260.43" x2="246.65" y2="259.21"/><line class="cls-1" x1="247.18" y1="258.29" x2="247.18" y2="255.23"/><line class="cls-1" x1="179.61" y1="168.21" x2="179.61" y2="165.14"/><line class="cls-1" x1="140.51" y1="146.86" x2="140.51" y2="146.25"/><line class="cls-1" x1="142.63" y1="148.09" x2="140.51" y2="146.86"/><line class="cls-1" x1="246.65" y1="208.14" x2="246.65" y2="207.53"/><line class="cls-1" x1="247.18" y1="207.22" x2="247.18" y2="204.16"/><line class="cls-1" x1="181.2" y1="170.35" x2="179.07" y2="169.12"/><line class="cls-1" x1="234.27" y1="200.99" x2="232.15" y2="199.77"/><line class="cls-1" x1="248.77" y1="209.37" x2="246.65" y2="208.14"/><line class="cls-1" x1="141.04" y1="145.94" x2="141.04" y2="142.88"/><line class="cls-1" x1="232.68" y1="198.85" x2="232.68" y2="195.78"/><line class="cls-1" x1="141.04" y1="197.01" x2="141.04" y2="193.94"/><line class="cls-1" x1="193.58" y1="177.5" x2="193.58" y2="176.89"/><line class="cls-1" x1="195.7" y1="178.73" x2="193.58" y2="177.5"/><line class="cls-1" x1="193.58" y1="228.57" x2="193.58" y2="227.96"/><line class="cls-1" x1="195.7" y1="229.79" x2="193.58" y2="228.57"/><line class="cls-1" x1="232.68" y1="249.92" x2="232.68" y2="246.85"/><line class="cls-1" x1="194.11" y1="227.65" x2="194.11" y2="224.59"/><line class="cls-1" x1="232.15" y1="250.83" x2="232.15" y2="250.22"/><line class="cls-1" x1="232.15" y1="199.77" x2="232.15" y2="199.15"/><line class="cls-1" x1="234.27" y1="252.06" x2="232.15" y2="250.83"/><line class="cls-1" x1="179.07" y1="215.9" x2="178.01" y2="216.52"/><line class="cls-1" x1="177.48" y1="216.21" x2="178.54" y2="215.6"/><line class="cls-1" x1="139.98" y1="193.33" x2="138.92" y2="193.94"/><line class="cls-1" x1="179.07" y1="220.19" x2="177.48" y2="221.11"/><line class="cls-1" x1="181.73" y1="218.05" x2="181.2" y2="218.35"/><line class="cls-1" x1="246.65" y1="254.92" x2="245.59" y2="255.53"/><line class="cls-1" x1="181.73" y1="166.98" x2="181.2" y2="167.29"/><line class="cls-1" x1="140.51" y1="197.93" x2="138.92" y2="198.85"/><line class="cls-1" x1="246.12" y1="254.61" x2="245.06" y2="255.23"/><line class="cls-1" x1="140.51" y1="193.64" x2="139.45" y2="194.25"/><line class="cls-1" x1="179.07" y1="164.84" x2="178.01" y2="165.45"/><line class="cls-1" x1="246.65" y1="259.21" x2="245.06" y2="260.13"/><line class="cls-1" x1="249.3" y1="206" x2="248.77" y2="206.3"/><line class="cls-1" x1="143.16" y1="195.78" x2="142.63" y2="196.09"/><line class="cls-1" x1="196.23" y1="226.42" x2="195.7" y2="226.73"/><line class="cls-1" x1="193.05" y1="172.91" x2="191.99" y2="173.52"/><line class="cls-1" x1="234.8" y1="197.62" x2="234.27" y2="197.93"/><line class="cls-1" x1="246.12" y1="203.55" x2="245.06" y2="204.16"/><line class="cls-1" x1="193.05" y1="223.97" x2="191.99" y2="224.59"/><line class="cls-1" x1="196.23" y1="175.36" x2="195.7" y2="175.66"/><line class="cls-1" x1="142.63" y1="145.02" x2="143.16" y2="144.71"/><line class="cls-1" x1="193.58" y1="224.28" x2="192.52" y2="224.89"/><line class="cls-1" x1="139.98" y1="142.26" x2="138.92" y2="142.88"/><line class="cls-1" x1="232.15" y1="246.55" x2="231.08" y2="247.16"/><line class="cls-1" x1="178.54" y1="164.53" x2="177.48" y2="165.14"/><line class="cls-1" x1="246.65" y1="203.85" x2="245.59" y2="204.46"/><line class="cls-1" x1="246.65" y1="208.14" x2="245.06" y2="209.06"/><line class="cls-1" x1="193.58" y1="228.57" x2="191.99" y2="229.49"/><line class="cls-1" x1="193.58" y1="173.21" x2="192.52" y2="173.82"/><line class="cls-1" x1="232.15" y1="199.77" x2="230.55" y2="200.69"/><line class="cls-1" x1="140.51" y1="146.86" x2="138.92" y2="147.78"/><line class="cls-1" x1="231.62" y1="195.17" x2="230.55" y2="195.78"/><line class="cls-1" x1="140.51" y1="142.57" x2="139.45" y2="143.18"/><line class="cls-1" x1="179.07" y1="169.12" x2="177.48" y2="170.04"/><line class="cls-1" x1="232.15" y1="195.48" x2="231.08" y2="196.09"/><line class="cls-1" x1="249.3" y1="257.06" x2="248.77" y2="257.37"/><line class="cls-1" x1="231.62" y1="246.24" x2="230.55" y2="246.85"/><line class="cls-1" x1="193.58" y1="177.5" x2="191.99" y2="178.42"/><line class="cls-1" x1="234.8" y1="248.69" x2="234.27" y2="249"/><line class="cls-1" x1="232.15" y1="250.83" x2="230.55" y2="251.75"/><line class="cls-1" x1="227.19" y1="191.59" x2="227.19" y2="201.81"/><line class="cls-1" x1="227.19" y1="201.81" x2="227.19" y2="202.42"/><line class="cls-1" x1="188.45" y1="169.23" x2="188.45" y2="190.88"/><line class="cls-1" x1="188.45" y1="190.88" x2="188.45" y2="191.49"/><line class="cls-1" x1="135.91" y1="193.43" x2="135.91" y2="192.82"/><line class="cls-1" x1="242.05" y1="254.72" x2="242.05" y2="254.1"/><line class="cls-1" x1="107.78" y1="177.2" x2="107.78" y2="176.58"/><line class="cls-1" x1="188.98" y1="224.08" x2="188.98" y2="223.46"/><line class="cls-1" x1="117.25" y1="165.29" x2="116.18" y2="164.68"/><line class="cls-1" x1="120.43" y1="167.75" x2="120.43" y2="167.13"/><line class="cls-1" x1="194.11" y1="173.52" x2="196.23" y2="174.74"/><line class="cls-1" x1="196.23" y1="174.74" x2="196.23" y2="175.36"/><line class="cls-1" x1="196.23" y1="175.36" x2="196.23" y2="175.97"/><line class="cls-1" x1="195.7" y1="175.66" x2="195.7" y2="178.73"/><line class="cls-1" x1="195.7" y1="178.73" x2="195.7" y2="179.34"/><line class="cls-1" x1="135.38" y1="138.59" x2="135.38" y2="160.24"/><line class="cls-1" x1="135.38" y1="160.24" x2="135.38" y2="160.85"/><line class="cls-1" x1="174.12" y1="160.95" x2="174.12" y2="171.17"/><line class="cls-1" x1="174.12" y1="171.17" x2="174.12" y2="171.78"/><line class="cls-1" x1="232.68" y1="195.78" x2="234.8" y2="197.01"/><line class="cls-1" x1="249.3" y1="256.45" x2="249.3" y2="257.06"/><line class="cls-1" x1="249.3" y1="257.06" x2="249.3" y2="257.68"/><line class="cls-1" x1="194.11" y1="224.59" x2="196.23" y2="225.81"/><line class="cls-1" x1="247.18" y1="255.23" x2="249.3" y2="256.45"/><line class="cls-1" x1="234.8" y1="197.01" x2="234.8" y2="197.62"/><line class="cls-1" x1="234.8" y1="197.62" x2="234.8" y2="198.24"/><line class="cls-1" x1="234.27" y1="249" x2="234.27" y2="252.06"/><line class="cls-1" x1="234.27" y1="252.06" x2="234.27" y2="252.67"/><line class="cls-1" x1="248.77" y1="257.37" x2="248.77" y2="260.43"/><line class="cls-1" x1="248.77" y1="260.43" x2="248.77" y2="261.05"/><line class="cls-1" x1="234.8" y1="248.08" x2="234.8" y2="248.69"/><line class="cls-1" x1="234.8" y1="248.69" x2="234.8" y2="249.3"/><line class="cls-1" x1="234.27" y1="197.93" x2="234.27" y2="200.99"/><line class="cls-1" x1="234.27" y1="200.99" x2="234.27" y2="201.61"/><line class="cls-1" x1="195.7" y1="226.73" x2="195.7" y2="229.79"/><line class="cls-1" x1="195.7" y1="229.79" x2="195.7" y2="230.41"/><line class="cls-1" x1="232.68" y1="246.85" x2="234.8" y2="248.08"/><line class="cls-1" x1="196.23" y1="225.81" x2="196.23" y2="226.42"/><line class="cls-1" x1="196.23" y1="226.42" x2="196.23" y2="227.04"/><line class="cls-1" x1="241.52" y1="199.87" x2="241.52" y2="221.52"/><line class="cls-1" x1="241.52" y1="221.52" x2="241.52" y2="222.13"/><line class="cls-1" x1="107.25" y1="135.63" x2="107.25" y2="144"/><line class="cls-1" x1="107.25" y1="144" x2="107.25" y2="144.61"/><line class="cls-1" x1="142.63" y1="145.02" x2="142.63" y2="148.09"/><line class="cls-1" x1="142.63" y1="148.09" x2="142.63" y2="148.7"/><line class="cls-1" x1="249.3" y1="205.38" x2="249.3" y2="206"/><line class="cls-1" x1="249.3" y1="206" x2="249.3" y2="206.61"/><line class="cls-1" x1="247.18" y1="204.16" x2="249.3" y2="205.38"/><line class="cls-1" x1="181.2" y1="167.29" x2="181.2" y2="170.35"/><line class="cls-1" x1="181.2" y1="170.35" x2="181.2" y2="170.96"/><line class="cls-1" x1="179.61" y1="165.14" x2="181.73" y2="166.37"/><line class="cls-1" x1="248.77" y1="206.3" x2="248.77" y2="209.37"/><line class="cls-1" x1="248.77" y1="209.37" x2="248.77" y2="209.98"/><line class="cls-1" x1="141.04" y1="193.94" x2="143.16" y2="195.17"/><line class="cls-1" x1="181.73" y1="166.37" x2="181.73" y2="166.98"/><line class="cls-1" x1="181.73" y1="166.98" x2="181.73" y2="167.59"/><line class="cls-1" x1="143.16" y1="144.1" x2="143.16" y2="144.71"/><line class="cls-1" x1="143.16" y1="144.71" x2="143.16" y2="145.33"/><line class="cls-1" x1="141.04" y1="142.88" x2="143.16" y2="144.1"/><line class="cls-1" x1="143.16" y1="195.17" x2="143.16" y2="195.78"/><line class="cls-1" x1="143.16" y1="195.78" x2="143.16" y2="196.39"/><line class="cls-1" x1="142.63" y1="196.09" x2="142.63" y2="199.15"/><line class="cls-1" x1="142.63" y1="199.15" x2="142.63" y2="199.77"/><line class="cls-1" x1="179.61" y1="216.21" x2="181.73" y2="217.43"/><line class="cls-1" x1="181.73" y1="217.43" x2="181.73" y2="218.05"/><line class="cls-1" x1="181.73" y1="218.05" x2="181.73" y2="218.66"/><line class="cls-1" x1="181.2" y1="218.35" x2="181.2" y2="221.42"/><line class="cls-1" x1="181.2" y1="221.42" x2="181.2" y2="222.03"/><line class="cls-1" x1="280.26" y1="222.24" x2="280.26" y2="232.45"/><line class="cls-1" x1="280.26" y1="232.45" x2="280.26" y2="233.06"/><line class="cls-1" x1="285.75" y1="277.49" x2="287.87" y2="278.72"/><line class="cls-1" x1="295.12" y1="284.74" x2="295.12" y2="285.36"/><line class="cls-1" x1="295.12" y1="285.36" x2="295.12" y2="285.97"/><line class="cls-1" x1="300.25" y1="234.8" x2="302.38" y2="236.02"/><line class="cls-1" x1="293" y1="283.52" x2="295.12" y2="284.74"/><line class="cls-1" x1="287.34" y1="279.64" x2="287.34" y2="282.7"/><line class="cls-1" x1="287.34" y1="282.7" x2="287.34" y2="283.31"/><line class="cls-1" x1="301.85" y1="236.94" x2="301.85" y2="240.01"/><line class="cls-1" x1="301.85" y1="240.01" x2="301.85" y2="240.62"/><line class="cls-1" x1="294.59" y1="230.51" x2="294.59" y2="252.16"/><line class="cls-1" x1="294.59" y1="252.16" x2="294.59" y2="252.77"/><line class="cls-1" x1="301.85" y1="288.01" x2="301.85" y2="291.07"/><line class="cls-1" x1="301.85" y1="291.07" x2="301.85" y2="291.69"/><line class="cls-1" x1="302.38" y1="287.09" x2="302.38" y2="287.7"/><line class="cls-1" x1="302.38" y1="287.7" x2="302.38" y2="288.32"/><line class="cls-1" x1="287.87" y1="227.65" x2="287.87" y2="228.26"/><line class="cls-1" x1="287.87" y1="228.26" x2="287.87" y2="228.88"/><line class="cls-1" x1="287.34" y1="228.57" x2="287.34" y2="231.63"/><line class="cls-1" x1="287.34" y1="231.63" x2="287.34" y2="232.25"/><line class="cls-1" x1="300.25" y1="285.87" x2="302.38" y2="287.09"/><line class="cls-1" x1="307.33" y1="246.85" x2="306.8" y2="247.16"/><line class="cls-1" x1="306.8" y1="247.16" x2="305.74" y2="247.77"/><line class="cls-1" x1="287.87" y1="278.72" x2="287.87" y2="279.33"/><line class="cls-1" x1="287.87" y1="279.33" x2="287.87" y2="279.94"/><line class="cls-1" x1="293" y1="250.02" x2="292.47" y2="250.32"/><line class="cls-1" x1="292.47" y1="250.32" x2="291.41" y2="250.94"/><line class="cls-1" x1="302.38" y1="236.02" x2="302.38" y2="236.64"/><line class="cls-1" x1="302.38" y1="236.64" x2="302.38" y2="237.25"/><line class="cls-1" x1="285.75" y1="226.42" x2="287.87" y2="227.65"/><line class="cls-1" x1="300.25" y1="237.86" x2="299.72" y2="238.17"/><line class="cls-1" x1="299.72" y1="238.17" x2="298.66" y2="238.78"/><line class="cls-1" x1="300.25" y1="288.93" x2="299.72" y2="289.24"/><line class="cls-1" x1="299.72" y1="289.24" x2="298.66" y2="289.85"/><line class="cls-1" x1="285.75" y1="280.56" x2="285.22" y2="280.86"/><line class="cls-1" x1="285.22" y1="280.86" x2="284.16" y2="281.47"/><line class="cls-1" x1="285.75" y1="229.49" x2="285.22" y2="229.79"/><line class="cls-1" x1="285.22" y1="229.79" x2="284.16" y2="230.41"/><line class="cls-1" x1="179.61" y1="168.21" x2="179.07" y2="168.51"/><line class="cls-1" x1="179.07" y1="168.51" x2="178.01" y2="169.12"/><line class="cls-1" x1="179.61" y1="219.27" x2="179.07" y2="219.58"/><line class="cls-1" x1="179.07" y1="219.58" x2="178.01" y2="220.19"/><line class="cls-1" x1="245.59" y1="259.21" x2="246.65" y2="258.6"/><line class="cls-1" x1="246.65" y1="258.6" x2="247.18" y2="258.29"/><line class="cls-1" x1="139.45" y1="197.93" x2="140.51" y2="197.32"/><line class="cls-1" x1="140.51" y1="197.32" x2="141.04" y2="197.01"/><line class="cls-1" x1="192.52" y1="228.57" x2="193.58" y2="227.96"/><line class="cls-1" x1="193.58" y1="227.96" x2="194.11" y2="227.65"/><line class="cls-1" x1="232.68" y1="249.92" x2="232.15" y2="250.22"/><line class="cls-1" x1="232.15" y1="250.22" x2="231.08" y2="250.83"/><line class="cls-1" x1="141.04" y1="145.94" x2="140.51" y2="146.25"/><line class="cls-1" x1="140.51" y1="146.25" x2="139.45" y2="146.86"/><line class="cls-1" x1="245.59" y1="208.14" x2="246.65" y2="207.53"/><line class="cls-1" x1="246.65" y1="207.53" x2="247.18" y2="207.22"/><line class="cls-1" x1="232.68" y1="198.85" x2="232.15" y2="199.15"/><line class="cls-1" x1="232.15" y1="199.15" x2="231.08" y2="199.77"/><line class="cls-1" x1="192.52" y1="177.5" x2="193.58" y2="176.89"/><line class="cls-1" x1="193.58" y1="176.89" x2="194.11" y2="176.58"/><line class="cls-1" x1="133.79" y1="191.59" x2="133.26" y2="191.29"/><line class="cls-1" x1="185.8" y1="221.62" x2="184.74" y2="221.01"/><line class="cls-1" x1="238.87" y1="252.26" x2="237.81" y2="251.65"/><line class="cls-1" x1="191.99" y1="172.29" x2="193.05" y2="172.91"/><line class="cls-1" x1="232.15" y1="195.48" x2="232.68" y2="195.78"/><line class="cls-1" x1="193.58" y1="224.28" x2="194.11" y2="224.59"/><line class="cls-1" x1="246.65" y1="254.92" x2="247.18" y2="255.23"/><line class="cls-1" x1="232.15" y1="246.55" x2="232.68" y2="246.85"/><line class="cls-1" x1="246.65" y1="203.85" x2="247.18" y2="204.16"/><line class="cls-1" x1="179.07" y1="164.84" x2="179.61" y2="165.14"/><line class="cls-1" x1="140.51" y1="193.64" x2="141.04" y2="193.94"/><line class="cls-1" x1="138.92" y1="141.65" x2="139.98" y2="142.26"/><line class="cls-1" x1="179.07" y1="215.9" x2="179.61" y2="216.21"/><line class="cls-1" x1="283.62" y1="276.27" x2="284.69" y2="276.88"/><line class="cls-1" x1="299.72" y1="234.49" x2="300.25" y2="234.8"/><line class="cls-1" x1="292.47" y1="283.21" x2="293" y2="283.52"/><line class="cls-1" x1="299.72" y1="285.56" x2="300.25" y2="285.87"/><line class="cls-1" x1="283.62" y1="225.2" x2="284.69" y2="225.81"/><line class="cls-1" x1="133.26" y1="191.29" x2="132.73" y2="190.98"/><line class="cls-1" x1="132.73" y1="190.98" x2="131.66" y2="190.37"/><line class="cls-1" x1="186.86" y1="222.24" x2="186.33" y2="221.93"/><line class="cls-1" x1="186.33" y1="221.93" x2="185.8" y2="221.62"/><line class="cls-1" x1="239.93" y1="252.88" x2="239.4" y2="252.57"/><line class="cls-1" x1="239.4" y1="252.57" x2="238.87" y2="252.26"/><line class="cls-1" x1="118.31" y1="165.91" x2="117.78" y2="165.6"/><line class="cls-1" x1="117.78" y1="165.6" x2="117.25" y2="165.29"/><line class="cls-1" x1="193.05" y1="172.91" x2="193.58" y2="173.21"/><line class="cls-1" x1="193.58" y1="173.21" x2="194.11" y2="173.52"/><line class="cls-1" x1="230.55" y1="194.56" x2="231.62" y2="195.17"/><line class="cls-1" x1="231.62" y1="195.17" x2="232.15" y2="195.48"/><line class="cls-1" x1="191.99" y1="223.36" x2="193.05" y2="223.97"/><line class="cls-1" x1="193.05" y1="223.97" x2="193.58" y2="224.28"/><line class="cls-1" x1="245.06" y1="254" x2="246.12" y2="254.61"/><line class="cls-1" x1="246.12" y1="254.61" x2="246.65" y2="254.92"/><line class="cls-1" x1="230.55" y1="245.62" x2="231.62" y2="246.24"/><line class="cls-1" x1="231.62" y1="246.24" x2="232.15" y2="246.55"/><line class="cls-1" x1="245.06" y1="202.93" x2="246.12" y2="203.55"/><line class="cls-1" x1="246.12" y1="203.55" x2="246.65" y2="203.85"/><line class="cls-1" x1="177.48" y1="163.92" x2="178.54" y2="164.53"/><line class="cls-1" x1="178.54" y1="164.53" x2="179.07" y2="164.84"/><line class="cls-1" x1="138.92" y1="192.72" x2="139.98" y2="193.33"/><line class="cls-1" x1="139.98" y1="193.33" x2="140.51" y2="193.64"/><line class="cls-1" x1="139.98" y1="142.26" x2="140.51" y2="142.57"/><line class="cls-1" x1="140.51" y1="142.57" x2="141.04" y2="142.88"/><line class="cls-1" x1="177.48" y1="214.98" x2="178.54" y2="215.6"/><line class="cls-1" x1="178.54" y1="215.6" x2="179.07" y2="215.9"/><line class="cls-1" x1="284.69" y1="276.88" x2="285.22" y2="277.19"/><line class="cls-1" x1="285.22" y1="277.19" x2="285.75" y2="277.49"/><line class="cls-1" x1="298.13" y1="233.57" x2="299.19" y2="234.19"/><line class="cls-1" x1="299.19" y1="234.19" x2="299.72" y2="234.49"/><line class="cls-1" x1="290.88" y1="282.29" x2="291.94" y2="282.9"/><line class="cls-1" x1="291.94" y1="282.9" x2="292.47" y2="283.21"/><line class="cls-1" x1="298.13" y1="284.64" x2="299.19" y2="285.25"/><line class="cls-1" x1="299.19" y1="285.25" x2="299.72" y2="285.56"/><line class="cls-1" x1="284.69" y1="225.81" x2="285.22" y2="226.12"/><line class="cls-1" x1="285.22" y1="226.12" x2="285.75" y2="226.42"/><line class="cls-1" x1="253.73" y1="216.52" x2="254.26" y2="216.21"/><line class="cls-1" x1="242.05" y1="222.44" x2="241.52" y2="222.13"/><line class="cls-1" x1="243.42" y1="198.26" x2="241.83" y2="199.18"/><line class="cls-1" x1="227.5" y1="190.91" x2="229.1" y2="189.99"/><line class="cls-1" x1="237.81" y1="221.22" x2="242.05" y2="223.67"/><line class="cls-1" x1="239.4" y1="220.29" x2="237.81" y2="221.22"/><line class="cls-1" x1="238.34" y1="220.29" x2="239.4" y2="219.68"/><line class="cls-1" x1="239.93" y1="219.38" x2="239.4" y2="219.68"/><line class="cls-1" x1="199.06" y1="187.41" x2="227.72" y2="203.95"/><line class="cls-1" x1="200.66" y1="186.49" x2="199.06" y2="187.41"/><line class="cls-1" x1="199.59" y1="186.49" x2="199.06" y2="186.18"/><line class="cls-1" x1="201.19" y1="185.57" x2="200.66" y2="185.88"/><line class="cls-1" x1="199.59" y1="186.49" x2="200.66" y2="185.88"/><line class="cls-1" x1="227.72" y1="202.73" x2="227.19" y2="202.42"/><line class="cls-1" x1="227.72" y1="203.95" x2="227.72" y2="202.73"/><line class="cls-1" x1="190.35" y1="167.62" x2="188.76" y2="168.54"/><line class="cls-1" x1="199.06" y1="186.18" x2="199.06" y2="187.41"/><line class="cls-1" x1="188.98" y1="193.02" x2="188.98" y2="191.8"/><line class="cls-1" x1="184.74" y1="190.57" x2="188.98" y2="193.02"/><line class="cls-1" x1="186.33" y1="189.65" x2="184.74" y2="190.57"/><line class="cls-1" x1="184.74" y1="189.35" x2="184.74" y2="190.57"/><line class="cls-1" x1="185.27" y1="189.65" x2="184.74" y2="189.35"/><line class="cls-1" x1="186.86" y1="188.74" x2="186.33" y2="189.04"/><line class="cls-1" x1="185.27" y1="189.65" x2="186.33" y2="189.04"/><line class="cls-1" x1="188.98" y1="191.8" x2="188.45" y2="191.49"/><line class="cls-1" x1="145.99" y1="155.54" x2="146.52" y2="155.85"/><line class="cls-1" x1="252.67" y1="217.13" x2="253.73" y2="216.52"/><line class="cls-1" x1="147.58" y1="155.85" x2="145.99" y2="156.77"/><line class="cls-1" x1="174.65" y1="172.09" x2="174.65" y2="173.31"/><line class="cls-1" x1="174.12" y1="171.78" x2="174.65" y2="172.09"/><line class="cls-1" x1="135.91" y1="193.43" x2="135.38" y2="193.74"/><line class="cls-1" x1="174.65" y1="173.31" x2="145.99" y2="156.77"/><line class="cls-1" x1="145.99" y1="156.77" x2="145.99" y2="155.54"/><line class="cls-1" x1="135.91" y1="194.05" x2="135.38" y2="193.74"/><line class="cls-1" x1="135.91" y1="194.05" x2="135.91" y2="193.43"/><line class="cls-1" x1="237.81" y1="221.22" x2="237.81" y2="219.99"/><line class="cls-1" x1="252.13" y1="218.05" x2="252.13" y2="216.82"/><line class="cls-1" x1="252.13" y1="216.82" x2="252.67" y2="217.13"/><line class="cls-1" x1="132.2" y1="191.9" x2="131.66" y2="191.59"/><line class="cls-1" x1="131.66" y1="191.59" x2="131.66" y2="190.37"/><line class="cls-1" x1="132.73" y1="190.98" x2="131.66" y2="191.59"/><line class="cls-1" x1="135.91" y1="192.82" x2="133.79" y2="191.59"/><line class="cls-1" x1="188.98" y1="224.69" x2="188.45" y2="224.38"/><line class="cls-1" x1="133.26" y1="158.4" x2="133.79" y2="158.1"/><line class="cls-1" x1="237.81" y1="219.99" x2="238.34" y2="220.29"/><line class="cls-1" x1="242.05" y1="254.72" x2="241.52" y2="255.02"/><line class="cls-1" x1="105.66" y1="144.92" x2="107.25" y2="144"/><line class="cls-1" x1="188.98" y1="224.08" x2="188.45" y2="224.38"/><line class="cls-1" x1="107.78" y1="177.2" x2="107.25" y2="177.5"/><line class="cls-1" x1="107.78" y1="146.14" x2="105.66" y2="144.92"/><line class="cls-1" x1="188.98" y1="223.46" x2="186.86" y2="222.24"/><line class="cls-1" x1="242.05" y1="254.1" x2="239.93" y2="252.88"/><line class="cls-1" x1="147.58" y1="155.24" x2="146.52" y2="155.85"/><line class="cls-1" x1="147.58" y1="155.24" x2="148.12" y2="154.93"/><line class="cls-1" x1="105.66" y1="144.92" x2="105.66" y2="175.36"/><line class="cls-1" x1="133.26" y1="158.4" x2="132.2" y2="159.01"/><line class="cls-1" x1="242.05" y1="255.33" x2="242.05" y2="254.72"/><line class="cls-1" x1="252.13" y1="218.05" x2="253.73" y2="217.13"/><line class="cls-1" x1="242.05" y1="222.44" x2="242.05" y2="223.67"/><line class="cls-1" x1="107.78" y1="177.81" x2="107.25" y2="177.5"/><line class="cls-1" x1="133.26" y1="159.01" x2="131.66" y2="159.93"/><line class="cls-1" x1="131.66" y1="159.93" x2="131.66" y2="158.71"/><line class="cls-1" x1="120.43" y1="168.36" x2="119.9" y2="168.05"/><line class="cls-1" x1="238.87" y1="252.26" x2="237.81" y2="252.88"/><line class="cls-1" x1="131.66" y1="158.71" x2="132.2" y2="159.01"/><line class="cls-1" x1="135.91" y1="162.38" x2="131.66" y2="159.93"/><line class="cls-1" x1="107.78" y1="177.81" x2="107.78" y2="177.2"/><line class="cls-1" x1="238.34" y1="253.18" x2="237.81" y2="252.88"/><line class="cls-1" x1="107.78" y1="144.92" x2="107.78" y2="146.14"/><line class="cls-1" x1="188.98" y1="224.69" x2="188.98" y2="224.08"/><line class="cls-1" x1="185.27" y1="222.54" x2="184.74" y2="222.24"/><line class="cls-1" x1="185.8" y1="221.62" x2="184.74" y2="222.24"/><line class="cls-1" x1="184.74" y1="222.24" x2="184.74" y2="221.01"/><line class="cls-1" x1="242.05" y1="255.33" x2="241.52" y2="255.02"/><line class="cls-1" x1="237.81" y1="252.88" x2="237.81" y2="251.65"/><line class="cls-1" x1="135.38" y1="160.85" x2="135.91" y2="161.16"/><line class="cls-1" x1="105.66" y1="175.36" x2="107.78" y2="176.58"/><line class="cls-1" x1="107.25" y1="144.61" x2="107.78" y2="144.92"/><line class="cls-1" x1="135.91" y1="161.16" x2="135.91" y2="162.38"/><line class="cls-1" x1="239.4" y1="252.57" x2="238.34" y2="253.18"/><line class="cls-1" x1="119.9" y1="168.05" x2="119.9" y2="188.89"/><line class="cls-1" x1="116.72" y1="166.21" x2="117.78" y2="165.6"/><line class="cls-1" x1="120.43" y1="167.13" x2="118.31" y2="165.91"/><line class="cls-1" x1="186.33" y1="221.93" x2="185.27" y2="222.54"/><line class="cls-1" x1="116.72" y1="166.21" x2="116.18" y2="165.91"/><line class="cls-1" x1="120.43" y1="167.75" x2="119.9" y2="168.05"/><line class="cls-1" x1="133.26" y1="191.29" x2="132.2" y2="191.9"/><line class="cls-1" x1="116.18" y1="165.91" x2="116.18" y2="164.68"/><line class="cls-1" x1="117.25" y1="165.29" x2="116.18" y2="165.91"/><line class="cls-1" x1="120.43" y1="168.36" x2="120.43" y2="167.75"/><line class="cls-1" x1="252.13" y1="218.05" x2="280.79" y2="234.59"/><line class="cls-1" x1="176.02" y1="159.35" x2="174.43" y2="160.27"/><line class="cls-1" x1="242.58" y1="260.95" x2="290.35" y2="288.52"/><line class="cls-1" x1="133.48" y1="195.75" x2="131.88" y2="196.67"/><line class="cls-1" x1="186.55" y1="226.4" x2="184.96" y2="227.32"/><line class="cls-1" x1="238.03" y1="257.96" x2="239.62" y2="257.04"/><line class="cls-1" x1="135.69" y1="137.9" x2="137.28" y2="136.98"/><line class="cls-1" x1="107.56" y1="134.94" x2="109.16" y2="134.02"/><line class="cls-1" x1="116.4" y1="187.74" x2="118" y2="186.82"/><polygon class="cls-2" points="105.73 145.41 107.33 144.5 107.33 136.12 107.4 135.71 107.64 135.43 109.23 134.51 109.59 134.45 109.98 134.59 132.8 147.76 133.19 148.07 133.55 148.56 133.78 149.11 133.86 149.6 133.86 158.59 133.33 158.9 133.33 159.51 135.45 160.73 135.45 139.08 135.53 138.67 135.76 138.39 137.35 137.48 137.71 137.41 138.11 137.55 147.13 142.76 147.52 143.07 147.88 143.55 148.11 144.1 148.19 144.6 148.19 155.42 147.66 155.73 147.66 156.34 174.19 171.66 174.19 161.45 174.27 161.04 174.5 160.76 176.1 159.84 176.46 159.78 176.85 159.92 185.87 165.13 186.26 165.44 186.62 165.92 186.86 166.47 186.93 166.96 186.93 189.23 186.4 189.54 186.4 190.15 188.52 191.37 188.52 169.72 188.6 169.31 188.83 169.03 190.43 168.12 190.79 168.05 191.18 168.19 200.2 173.4 200.59 173.71 200.95 174.19 201.19 174.74 201.26 175.24 201.26 186.06 200.73 186.37 200.73 186.98 227.26 202.3 227.26 192.09 227.34 191.68 227.57 191.41 229.17 190.48 229.53 190.42 229.92 190.56 238.94 195.77 239.33 196.08 239.69 196.56 239.93 197.11 240 197.6 240 219.87 239.47 220.18 239.47 220.79 241.59 222.01 241.59 200.36 241.67 199.96 241.9 199.68 243.5 198.76 243.86 198.69 244.25 198.83 253.27 204.04 253.66 204.35 254.02 204.83 254.25 205.38 254.33 205.88 254.33 216.7 253.8 217.01 253.8 217.63 280.33 232.94 280.33 222.73 280.41 222.32 280.64 222.04 282.24 221.13 282.6 221.06 282.99 221.2 292.01 226.41 292.4 226.72 292.76 227.2 293 227.75 293.07 228.25 293.07 250.51 292.54 250.82 292.54 251.43 294.66 252.66 294.66 231 294.74 230.6 294.97 230.32 296.57 229.4 296.93 229.33 297.32 229.47 306.34 234.68 306.73 234.99 307.09 235.47 307.33 236.02 307.4 236.52 307.4 247.34 306.87 247.65 306.87 248.26 321.2 256.54 321.2 304.95 319.61 305.87 295.73 292.08 295.33 291.77 294.97 291.29 294.74 290.74 294.66 290.24 294.66 286.16 295.19 285.85 295.19 285.24 293.07 284.01 293.07 287.48 293 287.89 292.76 288.17 291.17 289.09 290.81 289.16 290.42 289.02 242.65 261.44 242.26 261.13 241.9 260.65 241.67 260.1 241.59 259.6 241.59 255.52 242.12 255.21 242.12 254.6 240 253.37 240 256.84 239.93 257.25 239.69 257.53 238.1 258.45 237.74 258.52 237.35 258.38 189.58 230.8 189.19 230.49 188.83 230.01 188.6 229.46 188.52 228.96 188.52 224.88 189.05 224.57 189.05 223.96 186.93 222.73 186.93 226.2 186.86 226.61 186.62 226.89 185.03 227.81 184.67 227.88 184.28 227.74 136.51 200.16 136.12 199.85 135.76 199.37 135.53 198.81 135.45 198.32 135.45 194.24 135.98 193.93 135.98 193.32 133.86 192.09 133.86 195.56 133.78 195.97 133.55 196.25 131.96 197.17 131.59 197.24 131.21 197.09 121.03 191.22 120.64 190.91 120.28 190.43 120.05 189.88 119.97 189.38 119.97 168.55 120.5 168.24 120.5 167.63 118.38 166.4 118.38 186.63 118.31 187.03 118.07 187.31 116.48 188.23 116.12 188.3 115.73 188.16 108.39 183.92 108 183.61 107.64 183.13 107.4 182.58 107.33 182.08 107.33 178 107.86 177.69 107.86 177.08 105.73 175.85 105.73 145.41"/></svg>