<svg id="Layer_1" data-name="Layer 1" xmlns="http://www.w3.org/2000/svg" viewBox="0 0 212.6 425.2"><defs><style>.cls-1,.cls-3{fill:none;stroke:#1d1d1b;stroke-miterlimit:10;}.cls-1{stroke-width:0.5px;}.cls-2{font-size:5.3px;fill:#1d1d1b;font-family:Monotxt;}.cls-3{stroke-width:0.25px;}</style></defs><g id="POLYLINE"><path class="cls-1" d="M109.48,55a1.77,1.77,0,0,0-1.77,1.77V74a1.77,1.77,0,0,0,1.77,1.77h6v-.91h1.88v7.29h-1.88v-.9h-6A1.77,1.77,0,0,0,107.71,83v81.16a1.77,1.77,0,0,0,1.77,1.77h6v-.91h1.88v7.29h-1.88v-.9h-6a1.77,1.77,0,0,0-1.77,1.77v81.16a1.77,1.77,0,0,0,1.77,1.77h6v-.91h1.88v7.29h-1.88v-.9h-6a1.77,1.77,0,0,0-1.77,1.77v81.16a1.76,1.76,0,0,0,1.77,1.76h6v-.9h1.88v7.29h-1.88v-.9h-6a1.77,1.77,0,0,0-1.77,1.77v40.54h71.17V369.76h1.87v.9h15.9a1.76,1.76,0,0,0,1.76-1.76V353.57a1.76,1.76,0,0,0-1.76-1.77H163.92v.9H162v-7.29h1.88v.9h32.73a1.76,1.76,0,0,0,1.76-1.76V329.22a1.76,1.76,0,0,0-1.76-1.77h-15.9v.9h-1.87V279.58h1.87v.9h15.9a1.76,1.76,0,0,0,1.76-1.76V263.39a1.76,1.76,0,0,0-1.76-1.77H163.92v.9H162v-7.29h1.88v.91h32.73a1.77,1.77,0,0,0,1.76-1.77V239a1.76,1.76,0,0,0-1.76-1.77h-15.9v.9h-1.87V189.4h1.87v.9h15.9a1.76,1.76,0,0,0,1.76-1.76V173.21a1.76,1.76,0,0,0-1.76-1.77H163.92v.9H162v-7.29h1.88V166h32.73a1.76,1.76,0,0,0,1.76-1.77V148.86a1.76,1.76,0,0,0-1.76-1.77h-15.9V148h-1.87V99.22h1.87v.9h15.9a1.76,1.76,0,0,0,1.76-1.76V83a1.76,1.76,0,0,0-1.76-1.77H163.92v.9H162V74.87h1.88v.91h13.19A1.77,1.77,0,0,0,178.88,74V35.23a1.76,1.76,0,0,0-1.77-1.76H163.92v.9H162V30.76H117.33v3.61h-1.88v-.9h-6a1.76,1.76,0,0,0-1.77,1.76h0V47.71a1.76,1.76,0,0,0,1.77,1.76H140.1v-.9H142v7.29H140.1V55Z"/></g><g id="POLYLINE-2" data-name="POLYLINE"><path class="cls-1" d="M104.06,55a1.77,1.77,0,0,1,1.77,1.77V74a1.77,1.77,0,0,1-1.77,1.77h-6v-.91H96.21v7.29h1.88v-.9h6A1.77,1.77,0,0,1,105.83,83v81.16a1.77,1.77,0,0,1-1.77,1.77h-6v-.91H96.21v7.29h1.88v-.9h6a1.77,1.77,0,0,1,1.77,1.77v81.16a1.77,1.77,0,0,1-1.77,1.77h-6v-.91H96.21v7.29h1.88v-.9h6a1.77,1.77,0,0,1,1.77,1.77v81.16a1.76,1.76,0,0,1-1.77,1.76h-6v-.9H96.21v7.29h1.88v-.9h6a1.77,1.77,0,0,1,1.77,1.77v40.54H34.66V369.76H32.79v.9H16.89a1.76,1.76,0,0,1-1.76-1.76V353.57a1.76,1.76,0,0,1,1.76-1.77H49.62v.9H51.5v-7.29H49.62v.9H16.89a1.76,1.76,0,0,1-1.76-1.76V329.22a1.76,1.76,0,0,1,1.76-1.77h15.9v.9h1.87V279.58H32.79v.9H16.89a1.76,1.76,0,0,1-1.76-1.76V263.39a1.76,1.76,0,0,1,1.76-1.77H49.62v.9H51.5v-7.29H49.62v.91H16.89a1.77,1.77,0,0,1-1.76-1.77V239a1.76,1.76,0,0,1,1.76-1.77h15.9v.9h1.87V189.4H32.79v.9H16.89a1.76,1.76,0,0,1-1.76-1.76V173.21a1.76,1.76,0,0,1,1.76-1.77H49.62v.9H51.5v-7.29H49.62V166H16.89a1.76,1.76,0,0,1-1.76-1.77V148.86a1.76,1.76,0,0,1,1.76-1.77h15.9V148h1.87V99.22H32.79v.9H16.89a1.76,1.76,0,0,1-1.76-1.76V83a1.76,1.76,0,0,1,1.76-1.77H49.62v.9H51.5V74.87H49.62v.91H36.43A1.77,1.77,0,0,1,34.66,74V35.23a1.76,1.76,0,0,1,1.77-1.76H49.62v.9H51.5V30.76H96.21v3.61h1.88v-.9h6a1.76,1.76,0,0,1,1.77,1.76V47.71a1.76,1.76,0,0,1-1.77,1.76H73.44v-.9H71.56v7.29h1.88V55Z"/></g><g id="MTEXT"><text class="cls-2" transform="translate(146.05 191.89) rotate(90)">COMB-B/END-X3</text></g><g id="MTEXT-2" data-name="MTEXT"><text class="cls-2" transform="translate(67.47 241.12) rotate(-90)">COMB-B/END-X3</text></g><g id="POLYLINE-3" data-name="POLYLINE"><polygon class="cls-1" points="195.18 250.2 193.31 250.2 193.31 249.3 187.97 249.3 187.97 250.2 186.09 250.2 186.09 242.91 187.97 242.91 187.97 243.81 193.31 243.81 193.31 242.91 195.18 242.91 195.18 250.2"/></g><g id="POLYLINE-4" data-name="POLYLINE"><polygon class="cls-1" points="187.97 268.46 193.31 268.46 193.31 267.56 195.18 267.56 195.18 274.85 193.31 274.85 193.31 273.95 187.97 273.95 187.97 274.85 186.09 274.85 186.09 267.56 187.97 267.56 187.97 268.46"/></g><g id="POLYLINE-5" data-name="POLYLINE"><polygon class="cls-1" points="187.97 358.64 193.31 358.64 193.31 357.74 195.18 357.74 195.18 365.03 193.31 365.03 193.31 364.13 187.97 364.13 187.97 365.03 186.09 365.03 186.09 357.74 187.97 357.74 187.97 358.64"/></g><g id="POLYLINE-6" data-name="POLYLINE"><polygon class="cls-1" points="112.82 358.64 118.16 358.64 118.16 357.74 120.03 357.74 120.03 365.03 118.16 365.03 118.16 364.13 112.82 364.13 112.82 365.03 110.94 365.03 110.94 357.74 112.82 357.74 112.82 358.64"/></g><g id="POLYLINE-7" data-name="POLYLINE"><polygon class="cls-1" points="187.97 333.09 187.97 333.99 193.31 333.99 193.31 333.09 195.18 333.09 195.18 340.38 193.31 340.38 193.31 339.48 187.97 339.48 187.97 340.38 186.09 340.38 186.09 333.09 187.97 333.09"/></g><g id="POLYLINE-8" data-name="POLYLINE"><polygon class="cls-1" points="112.82 333.09 112.82 333.99 118.16 333.99 118.16 333.09 120.03 333.09 120.03 340.38 118.16 340.38 118.16 339.48 112.82 339.48 112.82 340.38 110.94 340.38 110.94 333.09 112.82 333.09"/></g><g id="POLYLINE-9" data-name="POLYLINE"><polygon class="cls-1" points="118.16 152.73 120.03 152.73 120.03 160.02 118.16 160.02 118.16 159.12 112.82 159.12 112.82 160.02 110.94 160.02 110.94 152.73 112.82 152.73 112.82 153.63 118.16 153.63 118.16 152.73"/></g><g id="POLYLINE-10" data-name="POLYLINE"><polygon class="cls-1" points="112.82 88.1 118.16 88.1 118.16 87.2 120.03 87.2 120.03 94.49 118.16 94.49 118.16 93.59 112.82 93.59 112.82 94.49 110.94 94.49 110.94 87.2 112.82 87.2 112.82 88.1"/></g><g id="POLYLINE-11" data-name="POLYLINE"><polygon class="cls-1" points="195.18 160.02 193.31 160.02 193.31 159.12 187.97 159.12 187.97 160.02 186.09 160.02 186.09 152.73 187.97 152.73 187.97 153.63 193.31 153.63 193.31 152.73 195.18 152.73 195.18 160.02"/></g><g id="POLYLINE-12" data-name="POLYLINE"><polygon class="cls-1" points="193.31 93.59 187.97 93.59 187.97 94.49 186.09 94.49 186.09 87.2 187.97 87.2 187.97 88.1 193.31 88.1 193.31 87.2 195.18 87.2 195.18 94.49 193.31 94.49 193.31 93.59"/></g><g id="POLYLINE-13" data-name="POLYLINE"><polygon class="cls-1" points="112.82 178.28 118.16 178.28 118.16 177.38 120.03 177.38 120.03 184.67 118.16 184.67 118.16 183.77 112.82 183.77 112.82 184.67 110.94 184.67 110.94 177.38 112.82 177.38 112.82 178.28"/></g><g id="POLYLINE-14" data-name="POLYLINE"><polygon class="cls-1" points="187.97 178.28 193.31 178.28 193.31 177.38 195.18 177.38 195.18 184.67 193.31 184.67 193.31 183.77 187.97 183.77 187.97 184.67 186.09 184.67 186.09 177.38 187.97 177.38 187.97 178.28"/></g><g id="POLYLINE-15" data-name="POLYLINE"><polygon class="cls-1" points="18.36 250.2 20.23 250.2 20.23 249.3 25.57 249.3 25.57 250.2 27.45 250.2 27.45 242.91 25.57 242.91 25.57 243.81 20.23 243.81 20.23 242.91 18.36 242.91 18.36 250.2"/></g><g id="POLYLINE-16" data-name="POLYLINE"><polygon class="cls-1" points="25.57 268.46 20.23 268.46 20.23 267.56 18.36 267.56 18.36 274.85 20.23 274.85 20.23 273.95 25.57 273.95 25.57 274.85 27.45 274.85 27.45 267.56 25.57 267.56 25.57 268.46"/></g><g id="POLYLINE-17" data-name="POLYLINE"><polygon class="cls-1" points="25.57 358.64 20.23 358.64 20.23 357.74 18.36 357.74 18.36 365.03 20.23 365.03 20.23 364.13 25.57 364.13 25.57 365.03 27.45 365.03 27.45 357.74 25.57 357.74 25.57 358.64"/></g><g id="POLYLINE-18" data-name="POLYLINE"><polygon class="cls-1" points="100.72 358.64 95.39 358.64 95.39 357.74 93.51 357.74 93.51 365.03 95.39 365.03 95.39 364.13 100.72 364.13 100.72 365.03 102.6 365.03 102.6 357.74 100.72 357.74 100.72 358.64"/></g><g id="POLYLINE-19" data-name="POLYLINE"><polygon class="cls-1" points="25.57 333.09 25.57 333.99 20.23 333.99 20.23 333.09 18.36 333.09 18.36 340.38 20.23 340.38 20.23 339.48 25.57 339.48 25.57 340.38 27.45 340.38 27.45 333.09 25.57 333.09"/></g><g id="POLYLINE-20" data-name="POLYLINE"><polygon class="cls-1" points="100.72 333.09 100.72 333.99 95.39 333.99 95.39 333.09 93.51 333.09 93.51 340.38 95.39 340.38 95.39 339.48 100.72 339.48 100.72 340.38 102.6 340.38 102.6 333.09 100.72 333.09"/></g><g id="POLYLINE-21" data-name="POLYLINE"><polygon class="cls-1" points="95.39 152.73 93.51 152.73 93.51 160.02 95.39 160.02 95.39 159.12 100.72 159.12 100.72 160.02 102.6 160.02 102.6 152.73 100.72 152.73 100.72 153.63 95.39 153.63 95.39 152.73"/></g><g id="POLYLINE-22" data-name="POLYLINE"><polygon class="cls-1" points="100.72 88.1 95.39 88.1 95.39 87.2 93.51 87.2 93.51 94.49 95.39 94.49 95.39 93.59 100.72 93.59 100.72 94.49 102.6 94.49 102.6 87.2 100.72 87.2 100.72 88.1"/></g><g id="POLYLINE-23" data-name="POLYLINE"><polygon class="cls-1" points="18.36 160.02 20.23 160.02 20.23 159.12 25.57 159.12 25.57 160.02 27.45 160.02 27.45 152.73 25.57 152.73 25.57 153.63 20.23 153.63 20.23 152.73 18.36 152.73 18.36 160.02"/></g><g id="POLYLINE-24" data-name="POLYLINE"><polygon class="cls-1" points="20.23 93.59 25.57 93.59 25.57 94.49 27.45 94.49 27.45 87.2 25.57 87.2 25.57 88.1 20.23 88.1 20.23 87.2 18.36 87.2 18.36 94.49 20.23 94.49 20.23 93.59"/></g><g id="POLYLINE-25" data-name="POLYLINE"><polygon class="cls-1" points="100.72 178.28 95.39 178.28 95.39 177.38 93.51 177.38 93.51 184.67 95.39 184.67 95.39 183.77 100.72 183.77 100.72 184.67 102.6 184.67 102.6 177.38 100.72 177.38 100.72 178.28"/></g><g id="POLYLINE-26" data-name="POLYLINE"><polygon class="cls-1" points="25.57 178.28 20.23 178.28 20.23 177.38 18.36 177.38 18.36 184.67 20.23 184.67 20.23 183.77 25.57 183.77 25.57 184.67 27.45 184.67 27.45 177.38 25.57 177.38 25.57 178.28"/></g><g id="POLYLINE-27" data-name="POLYLINE"><rect class="cls-3" x="15.09" y="28.9" width="183.36" height="366.73"/></g></svg>