<svg id="Layer_1" data-name="Layer 1" xmlns="http://www.w3.org/2000/svg" viewBox="0 0 870.34 425.2"><defs><style>.cls-1{font-size:5.3px;font-family:Monotxt;}.cls-1,.cls-3{fill:#1d1d1b;}.cls-2,.cls-4{fill:none;stroke:#1d1d1b;stroke-miterlimit:10;}.cls-2{stroke-width:0.5px;}.cls-3{font-size:0.15px;font-family:ArialMT, Arial;}.cls-4{stroke-width:0.25px;}</style></defs><g id="MTEXT"><text class="cls-1" transform="translate(812.21 298.97) rotate(-90)">FLOOR-M/E</text></g><g id="MTEXT-2" data-name="MTEXT"><text class="cls-1" transform="translate(755.66 239.79) rotate(90)">FLOOR-M/F</text></g><g id="MTEXT-3" data-name="MTEXT"><text class="cls-1" transform="translate(696.64 261.99) rotate(90)">FLOOR-M/G</text></g><g id="MTEXT-4" data-name="MTEXT"><text class="cls-1" transform="translate(597.39 302.41) rotate(-90)">FLOOR-M/E</text></g><g id="MTEXT-5" data-name="MTEXT"><text class="cls-1" transform="translate(541.74 239.79) rotate(90)">FLOOR-M/F</text></g><g id="MTEXT-6" data-name="MTEXT"><text class="cls-1" transform="translate(484.07 268.15) rotate(90)">FLOOR-M/G</text></g><g id="MTEXT-7" data-name="MTEXT"><text class="cls-1" transform="translate(478.5 45.78)">FLOOR-M/C</text></g><g id="MTEXT-8" data-name="MTEXT"><text class="cls-1" transform="translate(691.52 46.98)">FLOOR-M/C</text></g><g id="MTEXT-9" data-name="MTEXT"><text class="cls-1" transform="translate(52.84 216.55)">FLOOR-M/B</text></g><g id="MTEXT-10" data-name="MTEXT"><text class="cls-1" transform="translate(144.65 216.55)">FLOOR-M/B</text></g><g id="MTEXT-11" data-name="MTEXT"><text class="cls-1" transform="translate(265.77 217.05)">FLOOR-M/A</text></g><g id="MTEXT-12" data-name="MTEXT"><text class="cls-1" transform="translate(357.28 217.05)">FLOOR-M/A</text></g><g id="MTEXT-13" data-name="MTEXT"><text class="cls-1" transform="translate(570.3 65.25)">FLOOR-M/D</text></g><g id="MTEXT-14" data-name="MTEXT"><text class="cls-1" transform="translate(783.32 65.25)">FLOOR-M/D</text></g><g id="POLYLINE"><polygon class="cls-2" points="675.53 246.22 680.06 246.22 680.06 248.1 679.16 248.1 679.16 259.43 680.06 259.43 680.06 261.3 675.49 261.3 675.49 259.43 676.39 259.43 676.39 248.1 675.49 248.1 675.49 246.22 675.53 246.22"/></g><g id="POLYLINE-2" data-name="POLYLINE"><path class="cls-2" d="M285.79,115.12h-6a11.29,11.29,0,1,0,0,22.57h6a11.29,11.29,0,0,0,0-22.57Z"/></g><g id="POLYLINE-3" data-name="POLYLINE"><path class="cls-2" d="M285.79,295.14h-6a11.29,11.29,0,1,0,0,22.57h6a11.29,11.29,0,0,0,0-22.57Z"/></g><g id="POLYLINE-4" data-name="POLYLINE"><path class="cls-2" d="M377.3,115.12h-6a11.29,11.29,0,0,0,0,22.57h6a11.29,11.29,0,0,0,0-22.57Z"/></g><g id="POLYLINE-5" data-name="POLYLINE"><path class="cls-2" d="M377.3,295.14h-6a11.29,11.29,0,0,0,0,22.57h6a11.29,11.29,0,0,0,0-22.57Z"/></g><g id="POLYLINE-6" data-name="POLYLINE"><path class="cls-2" d="M480.51,52.81h30a4.6,4.6,0,1,1,0,9.19h-30a4.6,4.6,0,1,1,0-9.19Z"/></g><g id="POLYLINE-7" data-name="POLYLINE"><path class="cls-2" d="M723.53,52.81h-30a4.6,4.6,0,1,0,0,9.19h30a4.6,4.6,0,1,0,0-9.19Z"/></g><g id="POLYLINE-8" data-name="POLYLINE"><polygon class="cls-2" points="616.98 217.25 616.08 217.25 616.08 219.13 620.66 219.13 620.66 217.25 619.76 217.25 619.76 205.92 620.66 205.92 620.66 204.05 616.08 204.05 616.08 205.92 616.98 205.92 616.98 217.25"/></g><g id="POLYLINE-9" data-name="POLYLINE"><polygon class="cls-2" points="589.53 146.44 589.53 148.32 603.41 148.32 603.41 146.44 602.51 146.44 602.51 144.64 600.63 144.64 600.63 145.54 592.3 145.54 592.3 144.64 590.43 144.64 590.43 146.44 589.53 146.44"/></g><g id="POLYLINE-10" data-name="POLYLINE"><polygon class="cls-2" points="616.08 172.25 616.08 174.12 620.66 174.12 620.66 172.25 619.76 172.25 619.76 160.92 620.66 160.92 620.66 159.04 616.08 159.04 616.08 160.92 616.98 160.92 616.98 172.25 616.08 172.25"/></g><g id="POLYLINE-11" data-name="POLYLINE"><polygon class="cls-2" points="616.08 352.26 616.08 354.14 620.66 354.14 620.66 352.26 619.76 352.26 619.76 340.94 620.66 340.94 620.66 339.06 616.08 339.06 616.08 340.94 616.98 340.94 616.98 352.26 616.08 352.26"/></g><g id="POLYLINE-12" data-name="POLYLINE"><polygon class="cls-2" points="620.62 249.05 616.08 249.05 616.08 250.93 616.98 250.93 616.98 262.25 616.08 262.25 616.08 264.13 620.66 264.13 620.66 262.25 619.76 262.25 619.76 250.93 620.66 250.93 620.66 249.05 620.62 249.05"/></g><g id="POLYLINE-13" data-name="POLYLINE"><polygon class="cls-2" points="616.08 294.1 616.08 295.93 616.98 295.93 616.98 307.26 616.08 307.26 616.08 309.13 620.66 309.13 620.66 307.26 619.76 307.26 619.76 295.93 620.66 295.93 620.66 294.06 616.08 294.06 616.08 294.1"/></g><g id="CIRCLE"><circle class="cls-2" cx="596.47" cy="234.09" r="9.79"/></g><g id="POLYLINE-14" data-name="POLYLINE"><path class="cls-2" d="M592.75,171.83v-10.5a3,3,0,1,0-6.07,0v10.5a3,3,0,1,0,6.07,0Z"/></g><g id="POLYLINE-15" data-name="POLYLINE"><path class="cls-2" d="M595.72,97.69a.71.71,0,0,0-.71.71v0h0v0h0v0h0v0h0v0h0v0h0v0h0v0h0v0h0v0h0v0h0v0h0v0h.06v0h12.87l0,0h0v0h0v0h0v0h0v0h0v0h0v0h0v0h0v0h0v0h0v0h0v0h0v0h0v0a.71.71,0,0,0-.71-.71Z"/></g><g id="POLYLINE-16" data-name="POLYLINE"><path class="cls-2" d="M574.53,237.84v-7.5a.71.71,0,0,1,1.42,0v7.5a.71.71,0,1,1-1.42,0Z"/></g><g id="POLYLINE-17" data-name="POLYLINE"><path class="cls-2" d="M574.53,327.85v-7.5a.71.71,0,0,1,1.42,0v7.5a.71.71,0,0,1-1.42,0Z"/></g><g id="POLYLINE-18" data-name="POLYLINE"><polygon class="cls-2" points="522.17 138.59 522.17 149.91 521.27 149.91 521.27 151.79 525.85 151.79 525.85 149.91 524.95 149.91 524.95 138.59 525.85 138.59 525.85 136.71 521.27 136.71 521.27 138.59 522.17 138.59"/></g><g id="POLYLINE-19" data-name="POLYLINE"><polygon class="cls-2" points="525.85 331.77 525.85 329.93 524.95 329.93 524.95 318.61 525.85 318.61 525.85 316.73 521.27 316.73 521.27 318.61 522.17 318.61 522.17 329.93 521.27 329.93 521.27 331.81 525.85 331.81 525.85 331.77"/></g><g id="POLYLINE-20" data-name="POLYLINE"><polygon class="cls-2" points="525.81 181.72 521.27 181.72 521.27 183.59 522.17 183.59 522.17 194.92 521.27 194.92 521.27 196.79 525.85 196.79 525.85 194.92 524.95 194.92 524.95 183.59 525.85 183.59 525.85 181.72 525.81 181.72"/></g><g id="POLYLINE-21" data-name="POLYLINE"><polygon class="cls-2" points="525.85 376.77 525.85 374.94 524.95 374.94 524.95 363.61 525.85 363.61 525.85 361.74 521.27 361.74 521.27 363.61 522.17 363.61 522.17 374.94 521.27 374.94 521.27 376.81 525.85 376.81 525.85 376.77"/></g><g id="POLYLINE-22" data-name="POLYLINE"><polygon class="cls-2" points="521.31 241.8 525.85 241.8 525.85 239.92 524.95 239.92 524.95 228.6 525.85 228.6 525.85 226.72 521.27 226.72 521.27 228.6 522.17 228.6 522.17 239.92 521.27 239.92 521.27 241.8 521.31 241.8"/></g><g id="POLYLINE-23" data-name="POLYLINE"><polygon class="cls-2" points="525.81 271.73 521.27 271.73 521.27 273.6 522.17 273.6 522.17 284.93 521.27 284.93 521.27 286.8 525.85 286.8 525.85 284.93 524.95 284.93 524.95 273.6 525.85 273.6 525.85 271.73 525.81 271.73"/></g><g id="POLYLINE-24" data-name="POLYLINE"><path class="cls-2" d="M567.4,350.52V343a.71.71,0,0,0-1.42,0v7.5a.71.71,0,0,0,1.42,0Z"/></g><g id="POLYLINE-25" data-name="POLYLINE"><path class="cls-2" d="M567.4,260.51V253a.71.71,0,0,0-1.42,0v7.5a.71.71,0,1,0,1.42,0Z"/></g><g id="POLYLINE-26" data-name="POLYLINE"><path class="cls-2" d="M567.4,170.5V163a.71.71,0,0,0-1.42,0v7.5a.71.71,0,1,0,1.42,0Z"/></g><g id="CIRCLE-2" data-name="CIRCLE"><circle class="cls-2" cx="545.46" cy="346.77" r="9.79"/></g><g id="CIRCLE-3" data-name="CIRCLE"><circle class="cls-2" cx="545.46" cy="166.75" r="9.79"/></g><g id="POLYLINE-27" data-name="POLYLINE"><polygon class="cls-2" points="830 217.25 829.1 217.25 829.1 219.13 833.68 219.13 833.68 217.25 832.78 217.25 832.78 205.92 833.68 205.92 833.68 204.05 829.1 204.05 829.1 205.92 830 205.92 830 217.25"/></g><g id="POLYLINE-28" data-name="POLYLINE"><polygon class="cls-2" points="802.55 146.44 802.55 148.32 816.43 148.32 816.43 146.44 815.53 146.44 815.53 144.64 813.65 144.64 813.65 145.54 805.33 145.54 805.33 144.64 803.45 144.64 803.45 146.44 802.55 146.44"/></g><g id="POLYLINE-29" data-name="POLYLINE"><polygon class="cls-2" points="829.1 172.25 829.1 174.12 833.68 174.12 833.68 172.25 832.78 172.25 832.78 160.92 833.68 160.92 833.68 159.04 829.1 159.04 829.1 160.92 830 160.92 830 172.25 829.1 172.25"/></g><g id="POLYLINE-30" data-name="POLYLINE"><polygon class="cls-2" points="829.1 352.26 829.1 354.14 833.68 354.14 833.68 352.26 832.78 352.26 832.78 340.94 833.68 340.94 833.68 339.06 829.1 339.06 829.1 340.94 830 340.94 830 352.26 829.1 352.26"/></g><g id="POLYLINE-31" data-name="POLYLINE"><polygon class="cls-2" points="833.64 249.05 829.1 249.05 829.1 250.93 830 250.93 830 262.25 829.1 262.25 829.1 264.13 833.68 264.13 833.68 262.25 832.78 262.25 832.78 250.93 833.68 250.93 833.68 249.05 833.64 249.05"/></g><g id="POLYLINE-32" data-name="POLYLINE"><polygon class="cls-2" points="829.1 294.1 829.1 295.93 830 295.93 830 307.26 829.1 307.26 829.1 309.13 833.68 309.13 833.68 307.26 832.78 307.26 832.78 295.93 833.68 295.93 833.68 294.06 829.1 294.06 829.1 294.1"/></g><g id="CIRCLE-4" data-name="CIRCLE"><circle class="cls-2" cx="809.49" cy="234.09" r="9.79"/></g><g id="POLYLINE-33" data-name="POLYLINE"><path class="cls-2" d="M805.78,171.83v-10.5a3,3,0,1,0-6.08,0v10.5a3,3,0,1,0,6.08,0Z"/></g><g id="POLYLINE-34" data-name="POLYLINE"><path class="cls-2" d="M808.74,97.69a.71.71,0,0,0-.71.71v0h0v0h0v0h0v0h0v0h0v0h0v0h0v0h0v0h0v0h0v0h0v0h0l0,0h0v0h12.88v0h0v0h0v0h0l0,0h0v0h0v0h0v0h0v0h0v0h0v0h0v0h0v0h0v0h0v0a.71.71,0,0,0-.71-.71Z"/></g><g id="POLYLINE-35" data-name="POLYLINE"><path class="cls-2" d="M787.55,237.84v-7.5a.71.71,0,0,1,1.42,0v7.5a.71.71,0,1,1-1.42,0Z"/></g><g id="POLYLINE-36" data-name="POLYLINE"><path class="cls-2" d="M787.55,327.85v-7.5a.71.71,0,0,1,1.42,0v7.5a.71.71,0,1,1-1.42,0Z"/></g><g id="POLYLINE-37" data-name="POLYLINE"><polygon class="cls-2" points="735.19 138.59 735.19 149.91 734.29 149.91 734.29 151.79 738.87 151.79 738.87 149.91 737.97 149.91 737.97 138.59 738.87 138.59 738.87 136.71 734.29 136.71 734.29 138.59 735.19 138.59"/></g><g id="POLYLINE-38" data-name="POLYLINE"><polygon class="cls-2" points="738.87 331.77 738.87 329.93 737.97 329.93 737.97 318.61 738.87 318.61 738.87 316.73 734.29 316.73 734.29 318.61 735.19 318.61 735.19 329.93 734.29 329.93 734.29 331.81 738.87 331.81 738.87 331.77"/></g><g id="POLYLINE-39" data-name="POLYLINE"><polygon class="cls-2" points="738.83 181.72 734.29 181.72 734.29 183.59 735.19 183.59 735.19 194.92 734.29 194.92 734.29 196.79 738.87 196.79 738.87 194.92 737.97 194.92 737.97 183.59 738.87 183.59 738.87 181.72 738.83 181.72"/></g><g id="POLYLINE-40" data-name="POLYLINE"><polygon class="cls-2" points="738.87 376.77 738.87 374.94 737.97 374.94 737.97 363.61 738.87 363.61 738.87 361.74 734.29 361.74 734.29 363.61 735.19 363.61 735.19 374.94 734.29 374.94 734.29 376.81 738.87 376.81 738.87 376.77"/></g><g id="POLYLINE-41" data-name="POLYLINE"><polygon class="cls-2" points="734.33 241.8 738.87 241.8 738.87 239.92 737.97 239.92 737.97 228.6 738.87 228.6 738.87 226.72 734.29 226.72 734.29 228.6 735.19 228.6 735.19 239.92 734.29 239.92 734.29 241.8 734.33 241.8"/></g><g id="POLYLINE-42" data-name="POLYLINE"><polygon class="cls-2" points="738.83 271.73 734.29 271.73 734.29 273.6 735.19 273.6 735.19 284.93 734.29 284.93 734.29 286.8 738.87 286.8 738.87 284.93 737.97 284.93 737.97 273.6 738.87 273.6 738.87 271.73 738.83 271.73"/></g><g id="POLYLINE-43" data-name="POLYLINE"><path class="cls-2" d="M780.42,350.52V343a.71.71,0,1,0-1.42,0v7.5a.71.71,0,0,0,1.42,0Z"/></g><g id="POLYLINE-44" data-name="POLYLINE"><path class="cls-2" d="M780.42,260.51V253a.71.71,0,1,0-1.42,0v7.5a.71.71,0,1,0,1.42,0Z"/></g><g id="POLYLINE-45" data-name="POLYLINE"><path class="cls-2" d="M780.42,170.5V163a.71.71,0,1,0-1.42,0v7.5a.71.71,0,1,0,1.42,0Z"/></g><g id="CIRCLE-5" data-name="CIRCLE"><circle class="cls-2" cx="758.48" cy="346.77" r="9.79"/></g><g id="CIRCLE-6" data-name="CIRCLE"><circle class="cls-2" cx="758.48" cy="166.75" r="9.79"/></g><g id="POLYLINE-46" data-name="POLYLINE"><polygon class="cls-2" points="679.16 214.42 680.06 214.42 680.06 216.29 675.49 216.29 675.49 214.42 676.39 214.42 676.39 203.09 675.49 203.09 675.49 201.22 680.06 201.22 680.06 203.09 679.16 203.09 679.16 214.42"/></g><g id="POLYLINE-47" data-name="POLYLINE"><polygon class="cls-2" points="706.62 143.61 706.62 145.49 692.74 145.49 692.74 143.61 693.64 143.61 693.64 141.81 695.51 141.81 695.51 142.71 703.84 142.71 703.84 141.81 705.72 141.81 705.72 143.61 706.62 143.61"/></g><g id="POLYLINE-48" data-name="POLYLINE"><polygon class="cls-2" points="680.06 169.42 680.06 171.29 675.49 171.29 675.49 169.42 676.39 169.42 676.39 158.09 675.49 158.09 675.49 156.21 680.06 156.21 680.06 158.09 679.16 158.09 679.16 169.42 680.06 169.42"/></g><g id="POLYLINE-49" data-name="POLYLINE"><polygon class="cls-2" points="680.06 349.43 680.06 351.31 675.49 351.31 675.49 349.43 676.39 349.43 676.39 338.11 675.49 338.11 675.49 336.23 680.06 336.23 680.06 338.11 679.16 338.11 679.16 349.43 680.06 349.43"/></g><g id="POLYLINE-50" data-name="POLYLINE"><polygon class="cls-2" points="680.06 291.27 680.06 293.1 679.16 293.1 679.16 304.43 680.06 304.43 680.06 306.31 675.49 306.31 675.49 304.43 676.39 304.43 676.39 293.1 675.49 293.1 675.49 291.23 680.06 291.23 680.06 291.27"/></g><g id="CIRCLE-7" data-name="CIRCLE"><circle class="cls-2" cx="699.68" cy="231.26" r="9.79"/></g><g id="POLYLINE-51" data-name="POLYLINE"><path class="cls-2" d="M703.39,169V158.5a3,3,0,0,1,6.08,0V169a3,3,0,0,1-6.08,0Z"/></g><g id="POLYLINE-52" data-name="POLYLINE"><path class="cls-2" d="M700.43,94.86a.71.71,0,0,1,.71.71v0h0v0h0v0h0v0h0v0h0v0h0v0h0v0h0v0h0v0h0v0h0v0h0l0,0h0l0,0H688v0h0l0,0h0v0h0v0h0v0h0v0h0v0h0v0h0v0h0v0h0v0h0v0h0v0h0v0a.71.71,0,0,1,.72-.71Z"/></g><g id="POLYLINE-53" data-name="POLYLINE"><path class="cls-2" d="M721.62,235v-7.5a.72.72,0,0,0-1.43,0V235a.72.72,0,0,0,1.43,0Z"/></g><g id="POLYLINE-54" data-name="POLYLINE"><path class="cls-2" d="M721.62,325v-7.5a.72.72,0,0,0-1.43,0V325a.72.72,0,0,0,1.43,0Z"/></g><g id="POLYLINE-55" data-name="POLYLINE"><polygon class="cls-2" points="466.14 214.42 467.04 214.42 467.04 216.29 462.47 216.29 462.47 214.42 463.37 214.42 463.37 203.09 462.47 203.09 462.47 201.22 467.04 201.22 467.04 203.09 466.14 203.09 466.14 214.42"/></g><g id="POLYLINE-56" data-name="POLYLINE"><polygon class="cls-2" points="493.6 143.61 493.6 145.49 479.72 145.49 479.72 143.61 480.62 143.61 480.62 141.81 482.49 141.81 482.49 142.71 490.82 142.71 490.82 141.81 492.69 141.81 492.69 143.61 493.6 143.61"/></g><g id="POLYLINE-57" data-name="POLYLINE"><polygon class="cls-2" points="467.04 169.42 467.04 171.29 462.47 171.29 462.47 169.42 463.37 169.42 463.37 158.09 462.47 158.09 462.47 156.21 467.04 156.21 467.04 158.09 466.14 158.09 466.14 169.42 467.04 169.42"/></g><g id="POLYLINE-58" data-name="POLYLINE"><polygon class="cls-2" points="467.04 349.43 467.04 351.31 462.47 351.31 462.47 349.43 463.37 349.43 463.37 338.11 462.47 338.11 462.47 336.23 467.04 336.23 467.04 338.11 466.14 338.11 466.14 349.43 467.04 349.43"/></g><g id="POLYLINE-59" data-name="POLYLINE"><polygon class="cls-2" points="462.5 246.22 467.04 246.22 467.04 248.1 466.14 248.1 466.14 259.43 467.04 259.43 467.04 261.3 462.47 261.3 462.47 259.43 463.37 259.43 463.37 248.1 462.47 248.1 462.47 246.22 462.5 246.22"/></g><g id="POLYLINE-60" data-name="POLYLINE"><polygon class="cls-2" points="467.04 291.27 467.04 293.1 466.14 293.1 466.14 304.43 467.04 304.43 467.04 306.31 462.47 306.31 462.47 304.43 463.37 304.43 463.37 293.1 462.47 293.1 462.47 291.23 467.04 291.23 467.04 291.27"/></g><g id="CIRCLE-8" data-name="CIRCLE"><circle class="cls-2" cx="486.66" cy="231.26" r="9.79"/></g><g id="POLYLINE-61" data-name="POLYLINE"><path class="cls-2" d="M490.37,169V158.5a3,3,0,1,1,6.07,0V169a3,3,0,1,1-6.07,0Z"/></g><g id="POLYLINE-62" data-name="POLYLINE"><path class="cls-2" d="M487.41,94.86a.71.71,0,0,1,.71.71v0h0v0h0v0h0v0h0v0h0v0h0v0h0v0h0v0h0v0h0v0h0v0h0v0h-.05l0,0H475v0h0v0h0l0,0h0v0h0v0h0v0h0v0h0v0h0v0h0v0h0v0h0v0h0v0h0v0a.71.71,0,0,1,.72-.71Z"/></g><g id="POLYLINE-63" data-name="POLYLINE"><path class="cls-2" d="M508.6,235v-7.5a.72.72,0,0,0-1.43,0V235a.72.72,0,0,0,1.43,0Z"/></g><g id="POLYLINE-64" data-name="POLYLINE"><path class="cls-2" d="M508.6,325v-7.5a.72.72,0,0,0-1.43,0V325a.72.72,0,0,0,1.43,0Z"/></g><g id="POLYLINE-65" data-name="POLYLINE"><path class="cls-2" d="M41.26,39.11a.94.94,0,0,0,.94-.94.9.9,0,0,0-.09-.4l-1.64-3.43a1,1,0,0,1-.08-.37.86.86,0,0,1,.86-.86h9.51a.91.91,0,0,1,.37.08.86.86,0,0,1,.41,1.15l-1.63,3.43A1,1,0,0,0,50.35,39a1,1,0,0,0,.41.09h9.51a.94.94,0,0,0,.93-.94.9.9,0,0,0-.09-.4l-1.63-3.43A1,1,0,0,1,59.4,34a.85.85,0,0,1,.86-.86h9.51a.91.91,0,0,1,.37.08.87.87,0,0,1,.41,1.15l-1.63,3.43a.93.93,0,0,0,.84,1.34h9.51a.94.94,0,0,0,.94-.94.9.9,0,0,0-.09-.4l-1.63-3.43A.81.81,0,0,1,78.4,34a.86.86,0,0,1,.87-.86h9.51a1,1,0,0,1,.37.08.87.87,0,0,1,.41,1.15l-1.64,3.43A1,1,0,0,0,88.37,39a.9.9,0,0,0,.4.09h9.51a.94.94,0,0,0,.94-.94.9.9,0,0,0-.09-.4L97.5,34.34a.81.81,0,0,1-.09-.37.86.86,0,0,1,.86-.86h16.46v6.67h-3.6v1.88h.9v7.57h-.9v1.88h3.6V66h-3.6v1.87h.9v6.36l-9.19-4h0a.94.94,0,0,0-1.23.49,1,1,0,0,0-.08.37V91a.94.94,0,0,0,.94.94.8.8,0,0,0,.37-.08l9.19-4v6.36h-.9v1.87h3.6V111h-3.6v1.88h.9v7.57h-.9v1.88h3.6v7.42h-3.6v1.88h.9v7.57h-.9v1.88h3.6V156h-3.6v1.88h.9v6.36l-9.19-4h0a.94.94,0,0,0-1.23.49,1,1,0,0,0-.08.37V181a.94.94,0,0,0,.94.94.8.8,0,0,0,.37-.08l9.19-4v6.36h-.9v1.87h3.6v14.93h-3.6v1.87h.9v7.58h-.9v1.88h3.6v7.42h-3.6v1.88h.9v7.57h-.9v1.88h3.6v14.92h-3.6v1.88h.9v6.35l-9.19-4h0a.93.93,0,0,0-1.23.49,1,1,0,0,0-.08.37V271a.93.93,0,0,0,1.31.86l9.19-4v6.36h-.9v1.87h3.6v14.93h-3.6v1.87h.9v7.58h-.9v1.87h3.6v7.43h-3.6v1.88h.9v7.57h-.9v1.88h3.6v14.92h-3.6v1.88h.9v6.35l-9.19-4h0a.93.93,0,0,0-1.23.49,1,1,0,0,0-.08.37V361a.93.93,0,0,0,1.31.86l9.19-4v6.36h-.9v1.87h3.6v14.93h-3.6v3.37h.9v10.13H84.8V391H82.93v.9H56.6V391H54.72v3.6H27.5V384.44h.9v-3.37H24.8V366.14h3.6v-1.87h-.9v-6.36l9.19,4h0a.93.93,0,0,0,1.23-.48A1,1,0,0,0,38,361V341.17a.93.93,0,0,0-1.31-.86l-9.19,4v-6.35h.9v-1.88H24.8V321.14h3.6v-1.88h-.9v-7.57h.9v-1.88H24.8v-7.43h3.6v-1.87h-.9v-7.58h.9v-1.87H24.8V276.13h3.6v-1.87h-.9V267.9l9.19,4h0a.93.93,0,0,0,1.23-.48A1,1,0,0,0,38,271V251.16a.93.93,0,0,0-1.31-.86l-9.19,4v-6.35h.9v-1.88H24.8V231.13h3.6v-1.88h-.9v-7.57h.9V219.8H24.8v-7.42h3.6V210.5h-.9v-7.58h.9v-1.87H24.8V186.12h3.6v-1.87h-.9v-6.36l9.19,4h0a.93.93,0,0,0,1.23-.48A1,1,0,0,0,38,181V161.15a1,1,0,0,0-1.31-.86l-9.19,4v-6.36h.9V156H24.8V141.12h3.6v-1.88h-.9v-7.57h.9v-1.88H24.8v-7.42h3.6v-1.88h-.9v-7.57h.9V111H24.8V96.11h3.6V94.24h-.9V87.88l9.19,4h0a.93.93,0,0,0,1.23-.48A1,1,0,0,0,38,91V71.14a1,1,0,0,0-1.31-.86l-9.19,4V67.91h.9V66H24.8V51.11h3.6V49.23h-.9V39.11Z"/></g><g id="POLYLINE-66" data-name="POLYLINE"><path class="cls-2" d="M133.07,39.11a.94.94,0,0,0,.94-.94.9.9,0,0,0-.09-.4l-1.64-3.43a1,1,0,0,1-.08-.37.86.86,0,0,1,.86-.86h9.51a.91.91,0,0,1,.37.08.86.86,0,0,1,.41,1.15l-1.63,3.43a1,1,0,0,0,.44,1.25,1,1,0,0,0,.41.09h9.51a.94.94,0,0,0,.93-.94.9.9,0,0,0-.09-.4l-1.63-3.43a1,1,0,0,1-.08-.37.85.85,0,0,1,.86-.86h9.51a1,1,0,0,1,.37.08.87.87,0,0,1,.41,1.15l-1.63,3.43a.93.93,0,0,0,.84,1.34h9.51a.94.94,0,0,0,.94-.94.9.9,0,0,0-.09-.4l-1.63-3.43a.81.81,0,0,1-.09-.37.86.86,0,0,1,.87-.86h9.51a1,1,0,0,1,.37.08.87.87,0,0,1,.41,1.15l-1.64,3.43a1,1,0,0,0,.45,1.25.9.9,0,0,0,.4.09h9.51a.94.94,0,0,0,.94-.94.9.9,0,0,0-.09-.4l-1.64-3.43a1,1,0,0,1-.08-.37.86.86,0,0,1,.86-.86h16.46v6.67h-3.6v1.88h.9v7.57h-.9v1.88h3.6V66h-3.6v1.87h.9v6.36l-9.19-4h0a.94.94,0,0,0-1.23.49,1,1,0,0,0-.08.37V91a.94.94,0,0,0,.94.94.83.83,0,0,0,.37-.08l9.19-4v6.36h-.9v1.87h3.6V111h-3.6v1.88h.9v7.57h-.9v1.88h3.6v7.42h-3.6v1.88h.9v7.57h-.9v1.88h3.6V156h-3.6v1.88h.9v6.36l-9.19-4h0a.94.94,0,0,0-1.23.49,1,1,0,0,0-.08.37V181a.94.94,0,0,0,.94.94.83.83,0,0,0,.37-.08l9.19-4v6.36h-.9v1.87h3.6v14.93h-3.6v1.87h.9v7.58h-.9v1.88h3.6v7.42h-3.6v1.88h.9v7.57h-.9v1.88h3.6v14.92h-3.6v1.88h.9v6.35l-9.19-4h0a.93.93,0,0,0-1.23.49,1,1,0,0,0-.08.37V271a.94.94,0,0,0,.94.94,1,1,0,0,0,.37-.08l9.19-4v6.36h-.9v1.87h3.6v14.93h-3.6v1.87h.9v7.58h-.9v1.87h3.6v7.43h-3.6v1.88h.9v7.57h-.9v1.88h3.6v14.92h-3.6v1.88h.9v6.35l-9.19-4h0a.93.93,0,0,0-1.23.49,1,1,0,0,0-.08.37V361a.94.94,0,0,0,.94.94,1,1,0,0,0,.37-.08l9.19-4v6.36h-.9v1.87h3.6v14.93h-3.6v3.37h.9v10.13H176.61V391h-1.87v.9H148.41V391h-1.88v3.6H119.31V384.44h.9v-3.37h-3.6V366.14h3.6v-1.87h-.9v-6.36l9.19,4h0a.93.93,0,0,0,1.23-.48,1,1,0,0,0,.08-.38V341.17a.94.94,0,0,0-.94-.94.91.91,0,0,0-.37.08l-9.19,4v-6.35h.9v-1.88h-3.6V321.14h3.6v-1.88h-.9v-7.57h.9v-1.88h-3.6v-7.43h3.6v-1.87h-.9v-7.58h.9v-1.87h-3.6V276.13h3.6v-1.87h-.9V267.9l9.19,4h0a.93.93,0,0,0,1.23-.48,1,1,0,0,0,.08-.38V251.16a.94.94,0,0,0-.94-.94.91.91,0,0,0-.37.08l-9.19,4v-6.35h.9v-1.88h-3.6V231.13h3.6v-1.88h-.9v-7.57h.9V219.8h-3.6v-7.42h3.6V210.5h-.9v-7.58h.9v-1.87h-3.6V186.12h3.6v-1.87h-.9v-6.36l9.19,4h0a.93.93,0,0,0,1.23-.48,1,1,0,0,0,.08-.38V161.15a.94.94,0,0,0-.94-.93.9.9,0,0,0-.37.07l-9.19,4v-6.36h.9V156h-3.6V141.12h3.6v-1.88h-.9v-7.57h.9v-1.88h-3.6v-7.42h3.6v-1.88h-.9v-7.57h.9V111h-3.6V96.11h3.6V94.24h-.9V87.88l9.19,4h0a.93.93,0,0,0,1.23-.48,1,1,0,0,0,.08-.38V71.14a.94.94,0,0,0-.94-.93.9.9,0,0,0-.37.07l-9.19,4V67.91h.9V66h-3.6V51.11h3.6V49.23h-.9V39.11Z"/></g><g id="POLYLINE-67" data-name="POLYLINE"><path class="cls-2" d="M320.73,33.11h4.32V49.56h-.9v1.88h3.6V66.36h-3.6v1.88h.9V94.57h-.9v1.87h3.6v14.93h-3.6v1.87h.9v26.33h-.9v1.88h3.6v14.92h-3.6v1.88h.9v26.32h-.9v1.88h3.6v14.93h-3.6v1.87h.9v26.33h-.9v1.87h3.6v14.93h-3.6v1.88h.9v26.32h-.9v1.88h3.6v14.93h-3.6v1.87h.9v26.33h-.9v1.87h3.6v14.93h-3.6v1.88h.9v26.32h-.9v1.88h3.6v14.92h-3.6v1.88h.9V394.9H297.82v-3.6H296v.9H269.62v-.9h-1.87v3.6H240.52V383.27h.9v-1.88h-3.6V366.47h3.6v-1.88h-.9V338.27h.9v-1.88h-3.6V321.46h3.6v-1.87h-.9V293.26h.9v-1.87h-3.6V276.46h3.6v-1.88h-.9V248.26h.9v-1.88h-3.6V231.45h3.6v-1.87h-.9V203.25h.9v-1.87h-3.6V186.45h3.6v-1.88h-.9V158.25h.9v-1.88h-3.6V141.45h3.6v-1.88h-.9V113.24h.9v-1.87h-3.6V96.44h3.6V94.57h-.9V68.24h.9V66.36h-3.6V51.44h3.6V49.56h-.9V39.75h4.32a.93.93,0,0,0,.93-.93,1,1,0,0,0-.07-.38l-1.78-4.13a.8.8,0,0,1-.07-.34.86.86,0,0,1,.86-.86h9.63a.8.8,0,0,1,.34.07.85.85,0,0,1,.45,1.13l-1.78,4.13a1,1,0,0,0,.5,1.24.9.9,0,0,0,.37.07h9.62a.93.93,0,0,0,.93-.93,1,1,0,0,0-.07-.38l-1.78-4.13a.8.8,0,0,1-.07-.34.86.86,0,0,1,.86-.86h9.63a.8.8,0,0,1,.34.07.85.85,0,0,1,.45,1.13l-1.78,4.13a1,1,0,0,0,.5,1.24.9.9,0,0,0,.37.07h9.62a.94.94,0,0,0,.94-.93.84.84,0,0,0-.08-.38l-1.77-4.13a.8.8,0,0,1-.07-.34.85.85,0,0,1,.86-.86h9.63a.83.83,0,0,1,.34.07.85.85,0,0,1,.45,1.13l-1.78,4.13a1,1,0,0,0,.49,1.24,1,1,0,0,0,.37.07h9.63a.94.94,0,0,0,.94-.93,1,1,0,0,0-.08-.38l-1.78-4.13a1,1,0,0,1-.07-.34.86.86,0,0,1,.87-.86h9.62a.77.77,0,0,1,.34.07.87.87,0,0,1,.46,1.13l-1.78,4.13a.93.93,0,0,0,.86,1.31h9.63a.93.93,0,0,0,.93-.93,1,1,0,0,0-.07-.38l-1.78-4.13a.8.8,0,0,1-.07-.34A.86.86,0,0,1,320.73,33.11Z"/></g><g id="POLYLINE-68" data-name="POLYLINE"><path class="cls-2" d="M412.24,33.11h4.32V49.56h-.9v1.88h3.6V66.36h-3.6v1.88h.9V94.57h-.9v1.87h3.6v14.93h-3.6v1.87h.9v26.33h-.9v1.88h3.6v14.92h-3.6v1.88h.9v26.32h-.9v1.88h3.6v14.93h-3.6v1.87h.9v26.33h-.9v1.87h3.6v14.93h-3.6v1.88h.9v26.32h-.9v1.88h3.6v14.93h-3.6v1.87h.9v26.33h-.9v1.87h3.6v14.93h-3.6v1.88h.9v26.32h-.9v1.88h3.6v14.92h-3.6v1.88h.9V394.9H389.33v-3.6h-1.87v.9H361.13v-.9h-1.87v3.6H332V383.27h.9v-1.88h-3.6V366.47h3.6v-1.88H332V338.27h.9v-1.88h-3.6V321.46h3.6v-1.87H332V293.26h.9v-1.87h-3.6V276.46h3.6v-1.88H332V248.26h.9v-1.88h-3.6V231.45h3.6v-1.87H332V203.25h.9v-1.87h-3.6V186.45h3.6v-1.88H332V158.25h.9v-1.88h-3.6V141.45h3.6v-1.88H332V113.24h.9v-1.87h-3.6V96.44h3.6V94.57H332V68.24h.9V66.36h-3.6V51.44h3.6V49.56H332V39.75h4.32a.93.93,0,0,0,.93-.93,1,1,0,0,0-.07-.38l-1.78-4.13a.8.8,0,0,1-.07-.34.86.86,0,0,1,.86-.86h9.63a.8.8,0,0,1,.34.07.85.85,0,0,1,.45,1.13l-1.78,4.13a1,1,0,0,0,.49,1.24,1,1,0,0,0,.38.07h9.62a.93.93,0,0,0,.93-.93,1,1,0,0,0-.07-.38l-1.78-4.13a.8.8,0,0,1-.07-.34.86.86,0,0,1,.86-.86h9.63a.8.8,0,0,1,.34.07.85.85,0,0,1,.45,1.13l-1.78,4.13a1,1,0,0,0,.49,1.24,1,1,0,0,0,.38.07h9.62a.94.94,0,0,0,.94-.93,1,1,0,0,0-.08-.38l-1.77-4.13a.8.8,0,0,1-.07-.34.85.85,0,0,1,.86-.86h9.63a.83.83,0,0,1,.34.07.86.86,0,0,1,.45,1.13l-1.78,4.13a1,1,0,0,0,.49,1.24.94.94,0,0,0,.37.07h9.63a.94.94,0,0,0,.94-.93,1,1,0,0,0-.08-.38l-1.78-4.13a1,1,0,0,1-.07-.34.86.86,0,0,1,.87-.86h9.62a.77.77,0,0,1,.34.07.87.87,0,0,1,.46,1.13l-1.78,4.13a.93.93,0,0,0,.86,1.31h9.63a.93.93,0,0,0,.93-.93,1,1,0,0,0-.07-.38l-1.78-4.13a.8.8,0,0,1-.07-.34A.86.86,0,0,1,412.24,33.11Z"/></g><g id="POLYLINE-69" data-name="POLYLINE"><polygon class="cls-2" points="628.68 76.54 629.58 76.54 629.58 71.21 628.68 71.21 628.68 69.34 632.28 69.34 632.28 57.41 628.68 57.41 628.68 55.53 629.58 55.53 629.58 50.21 628.68 50.21 628.68 48.33 632.28 48.33 632.28 40.91 628.68 40.91 628.68 39.03 629.58 39.03 629.58 34.91 604.16 34.91 604.16 35.81 602.28 35.81 602.28 32.21 572.35 32.21 572.35 35.81 570.48 35.81 570.48 34.91 545.05 34.91 545.05 39.03 545.95 39.03 545.95 40.91 542.35 40.91 542.35 48.33 545.95 48.33 545.95 50.21 545.05 50.21 545.05 55.53 545.95 55.53 545.95 57.41 542.35 57.41 542.35 69.34 545.95 69.34 545.95 71.21 545.05 71.21 545.05 76.54 545.95 76.54 545.95 78.41 542.35 78.41 542.35 85.84 545.95 85.84 545.95 87.71 545.05 87.71 545.05 91.84 570.48 91.84 570.48 90.94 572.35 90.94 572.35 94.54 602.28 94.54 602.28 90.94 604.16 90.94 604.16 91.84 629.58 91.84 629.58 87.71 628.68 87.71 628.68 85.84 632.28 85.84 632.28 78.41 628.68 78.41 628.68 76.54"/></g><g id="POLYLINE-70" data-name="POLYLINE"><polygon class="cls-2" points="758.97 76.54 758.07 76.54 758.07 71.21 758.97 71.21 758.97 69.34 755.37 69.34 755.37 57.41 758.97 57.41 758.97 55.53 758.07 55.53 758.07 50.21 758.97 50.21 758.97 48.33 755.37 48.33 755.37 40.91 758.97 40.91 758.97 39.03 758.07 39.03 758.07 34.91 783.5 34.91 783.5 35.81 785.37 35.81 785.37 32.21 815.3 32.21 815.3 35.81 817.18 35.81 817.18 34.91 842.61 34.91 842.61 39.03 841.71 39.03 841.71 40.91 845.31 40.91 845.31 48.33 841.71 48.33 841.71 50.21 842.61 50.21 842.61 55.53 841.71 55.53 841.71 57.41 845.31 57.41 845.31 69.34 841.71 69.34 841.71 71.21 842.61 71.21 842.61 76.54 841.71 76.54 841.71 78.41 845.31 78.41 845.31 85.84 841.71 85.84 841.71 87.71 842.61 87.71 842.61 91.84 817.18 91.84 817.18 90.94 815.3 90.94 815.3 94.54 785.37 94.54 785.37 90.94 783.5 90.94 783.5 91.84 758.07 91.84 758.07 87.71 758.97 87.71 758.97 85.84 755.37 85.84 755.37 78.41 758.97 78.41 758.97 76.54"/></g><g id="POLYLINE-71" data-name="POLYLINE"><polygon class="cls-2" points="512.35 77.02 512.35 77.92 537.77 77.92 537.77 65.25 536.87 65.25 536.87 63.37 540.47 63.37 540.47 51.45 536.87 51.45 536.87 49.57 537.77 49.57 537.77 36.89 512.35 36.89 512.35 37.79 510.47 37.79 510.47 34.19 480.54 34.19 480.54 37.79 478.67 37.79 478.67 36.89 453.24 36.89 453.24 49.57 454.14 49.57 454.14 51.45 450.54 51.45 450.54 63.37 454.14 63.37 454.14 65.25 453.24 65.25 453.24 77.92 478.67 77.92 478.67 77.02 480.54 77.02 480.54 80.62 510.47 80.62 510.47 77.02 512.35 77.02"/></g><g id="POLYLINE-72" data-name="POLYLINE"><polygon class="cls-2" points="691.69 77.02 691.69 77.92 666.26 77.92 666.26 65.25 667.16 65.25 667.16 63.37 663.56 63.37 663.56 51.45 667.16 51.45 667.16 49.57 666.26 49.57 666.26 36.89 691.69 36.89 691.69 37.79 693.57 37.79 693.57 34.19 723.49 34.19 723.49 37.79 725.37 37.79 725.37 36.89 750.8 36.89 750.8 49.57 749.9 49.57 749.9 51.45 753.5 51.45 753.5 63.37 749.9 63.37 749.9 65.25 750.8 65.25 750.8 77.92 725.37 77.92 725.37 77.02 723.49 77.02 723.49 80.62 693.57 80.62 693.57 77.02 691.69 77.02"/></g><g id="POLYLINE-73" data-name="POLYLINE"><path class="cls-2" d="M583.48,374a.86.86,0,0,0,.86-.87.71.71,0,0,0,0-.14l-1.3-7.8a.86.86,0,0,1,0-.16.93.93,0,0,1,.93-.93h11.68a.94.94,0,0,1,.78,1.08L595.1,373a.86.86,0,0,0,.71,1l.15,0h11.52a.86.86,0,0,0,.86-.87.71.71,0,0,0,0-.14l-1.3-7.8a.86.86,0,0,1,0-.16.93.93,0,0,1,.94-.93h11.68a.94.94,0,0,1,.77,1.08l-1.3,7.8a.85.85,0,0,0,.71,1l.14,0h10.22V128.67h-.9v-1.88h3.6v-6.22H594.55v.9h-1.87v-7.28h1.87v.9h38.33v-6.23h-3.6V107h.9V96.41h-5.92V100h-1.88v-.9h-3.82v.9h-1.88v-3.6H586.75V100h-1.87v-.9h-3.83v.9h-1.87v-3.6h-5.93V107h.9v1.87h-3.6v17.93h3.6v1.88h-.9V159h3.6v1.88H576v11.33h.9v1.87h-3.6v8.18h3.6v1.87H576v1.73h.9v1.87h-3.6v2.63h3.6v1.87H576V194h.9v1.87h-3.6v8.18h3.6v1.87H576v11.33h.9v1.88h-3.6v29.92h3.6v1.88H576v11.32h.9v1.88h-3.6v8.18h3.6v1.87H576v1.73h.9v1.87h-3.6v2.63h3.6v1.87H576V284h.9v1.87h-3.6v8.18h3.6v1.87H576v11.33h.9v1.87h-3.6v29.93h3.6v1.88H576v11.32h.9v1.88h-3.6v8.18h3.6v1.87H576v1.73h.9v1.87h-3.6v2.63h3.6v1.87H576V374Z"/></g><g id="POLYLINE-74" data-name="POLYLINE"><path class="cls-2" d="M522,126.74a.94.94,0,0,0,.94-.94.92.92,0,0,0,0-.16l-1.3-7.8a.68.68,0,0,1,0-.14.86.86,0,0,1,.87-.86h11.67a.85.85,0,0,1,.7,1l-1.3,7.8a.93.93,0,0,0,.77,1.08l.16,0H546a.94.94,0,0,0,.93-.94.92.92,0,0,0,0-.16l-1.3-7.8a.66.66,0,0,1,0-.14.85.85,0,0,1,.86-.86h11.67a.86.86,0,0,1,.71,1l-1.3,7.8a.93.93,0,0,0,.77,1.08l.15,0h6.63v1.8h3.6v8.17h-3.6v1.88h.9v11.32h-.9v1.88h3.6v29.93h-3.6v1.87h.9v11.33h-.9v1.87h3.6V205h-3.6v1.87h.9v1.73h-.9v1.87h3.6v2.63h-3.6V215h.9v1.72h-.9v1.88h3.6v8.17h-3.6v1.88h.9v11.32h-.9v1.88h3.6v29.93h-3.6v1.87h.9v11.33h-.9v1.87h3.6V295h-3.6v1.87h.9v1.73h-.9v1.87h3.6v2.63h-3.6V305h.9v1.73h-.9v1.87h3.6v8.18h-3.6v1.88h.9v11.32h-.9v1.88h3.6v29.93h-3.6v1.87h.9v11.33h-.9v1.87h3.6V385h-3.6v1.8h-6.63a.94.94,0,0,0-.94.94.77.77,0,0,0,0,.15l1.3,7.8a.76.76,0,0,1,0,.15.87.87,0,0,1-.86.86H546.31a.87.87,0,0,1-.71-1l1.3-7.8a.94.94,0,0,0-.77-1.08H534.45a.94.94,0,0,0-.94.94s0,.1,0,.15l1.3,7.8a.77.77,0,0,1,0,.15.87.87,0,0,1-.87.86H522.31a.87.87,0,0,1-.71-1l1.3-7.8a1,1,0,0,0-.77-1.08H511.75v-260Z"/></g><g id="POLYLINE-75" data-name="POLYLINE"><path class="cls-2" d="M796.5,374a.86.86,0,0,0,.86-.87.71.71,0,0,0,0-.14l-1.3-7.8a.86.86,0,0,1,0-.16.93.93,0,0,1,.94-.93h11.68a.94.94,0,0,1,.77,1.08l-1.3,7.8a.86.86,0,0,0,.7,1l.15,0H820.5a.87.87,0,0,0,.87-.87.78.78,0,0,0,0-.14l-1.3-7.8a.86.86,0,0,1,0-.16.93.93,0,0,1,.94-.93h11.68a.94.94,0,0,1,.77,1.08l-1.3,7.8a.85.85,0,0,0,.71,1l.14,0h10.23V128.67h-.9v-1.88h3.6v-6.22H807.58v.9H805.7v-7.28h1.88v.9h38.33v-6.23h-3.6V107h.9V96.41h-5.93V100H835.4v-.9h-3.82v.9H829.7v-3.6H799.78V100H797.9v-.9h-3.82v.9H792.2v-3.6h-5.93V107h.9v1.87h-3.6v17.93h3.6v1.88h-.9V159h3.6v1.88H789v11.33h.9v1.87h-3.6v8.18h3.6v1.87H789v1.73h.9v1.87h-3.6v2.63h3.6v1.87H789V194h.9v1.87h-3.6v8.18h3.6v1.87H789v11.33h.9v1.88h-3.6v29.92h3.6v1.88H789v11.32h.9v1.88h-3.6v8.18h3.6v1.87H789v1.73h.9v1.87h-3.6v2.63h3.6v1.87H789V284h.9v1.87h-3.6v8.18h3.6v1.87H789v11.33h.9v1.87h-3.6v29.93h3.6v1.88H789v11.32h.9v1.88h-3.6v8.18h3.6v1.87H789v1.73h.9v1.87h-3.6v2.63h3.6v1.87H789V374Z"/></g><g id="POLYLINE-76" data-name="POLYLINE"><path class="cls-2" d="M735,126.74a.94.94,0,0,0,.94-.94.92.92,0,0,0,0-.16l-1.3-7.8a.66.66,0,0,1,0-.14.85.85,0,0,1,.86-.86h11.67a.87.87,0,0,1,.71,1l-1.3,7.8a.93.93,0,0,0,.77,1.08l.15,0H759a.94.94,0,0,0,.93-.94.92.92,0,0,0,0-.16l-1.3-7.8a.66.66,0,0,1,0-.14.86.86,0,0,1,.86-.86h11.67a.86.86,0,0,1,.71,1l-1.3,7.8a.93.93,0,0,0,.77,1.08l.15,0h6.63v1.8h3.6v8.17h-3.6v1.88h.9v11.32h-.9v1.88h3.6v29.93h-3.6v1.87h.9v11.33h-.9v1.87h3.6V205h-3.6v1.87h.9v1.73h-.9v1.87h3.6v2.63h-3.6V215h.9v1.72h-.9v1.88h3.6v8.17h-3.6v1.88h.9v11.32h-.9v1.88h3.6v29.93h-3.6v1.87h.9v11.33h-.9v1.87h3.6V295h-3.6v1.87h.9v1.73h-.9v1.87h3.6v2.63h-3.6V305h.9v1.73h-.9v1.87h3.6v8.18h-3.6v1.88h.9v11.32h-.9v1.88h3.6v29.93h-3.6v1.87h.9v11.33h-.9v1.87h3.6V385h-3.6v1.8h-6.63a.94.94,0,0,0-.93.94.76.76,0,0,0,0,.15l1.3,7.8a.76.76,0,0,1,0,.15.87.87,0,0,1-.86.86H759.33a.87.87,0,0,1-.71-1l1.3-7.8a.94.94,0,0,0-.77-1.08H747.47a.94.94,0,0,0-.94.94.77.77,0,0,0,0,.15l1.3,7.8c0,.05,0,.1,0,.15a.87.87,0,0,1-.86.86H735.33a.87.87,0,0,1-.71-1l1.3-7.8a1,1,0,0,0-.77-1.08H724.77v-260Z"/></g><g id="POLYLINE-77" data-name="POLYLINE"><path class="cls-2" d="M712.67,371.19l-.14,0a.85.85,0,0,1-.71-1l1.3-7.8a.94.94,0,0,0-.77-1.08H700.67a.93.93,0,0,0-.94.93.86.86,0,0,0,0,.16l1.3,7.8a.71.71,0,0,1,0,.14.86.86,0,0,1-.86.87H688.66l-.14,0a.86.86,0,0,1-.71-1l1.3-7.8a.93.93,0,0,0-.77-1.08H676.66a.93.93,0,0,0-.93.93.86.86,0,0,0,0,.16l1.3,7.8a.71.71,0,0,1,0,.14.87.87,0,0,1-.86.87H666V125.84h.9V124h-3.6v-6.22h38.33v.9h1.88v-7.28h-1.88v.9H663.26V106h3.6v-1.87H666V93.58h5.93v3.6h1.87v-.9h3.83v.9h1.87v-3.6h29.93v3.6h1.88v-.9h3.82v.9H717v-3.6h5.92v10.58H722V106h3.6V124H722v1.88h.9v30.37h-3.6v1.88h.9v11.33h-.9v1.87h3.6v8.18h-3.6v1.87h.9v1.73h-.9v1.87h3.6v2.63h-3.6v1.87h.9v1.73h-.9V193h3.6v8.18h-3.6v1.87h.9v11.33h-.9v1.88h3.6v29.92h-3.6v1.88h.9v11.32h-.9v1.88h3.6v8.18h-3.6v1.87h.9v1.73h-.9V275h3.6v2.63h-3.6v1.87h.9v1.73h-.9v1.87h3.6v8.18h-3.6v1.87h.9v11.33h-.9v1.87h3.6v29.93h-3.6v1.88h.9v11.32h-.9v1.88h3.6v8.18h-3.6v1.87h.9v1.73h-.9V365h3.6v2.63h-3.6v1.87h.9v1.73Z"/></g><g id="POLYLINE-78" data-name="POLYLINE"><path class="cls-2" d="M499.65,371.19l-.15,0a.86.86,0,0,1-.71-1l1.31-7.8a.94.94,0,0,0-.78-1.08H487.64a.93.93,0,0,0-.93.93.86.86,0,0,0,0,.16l1.3,7.8a.71.71,0,0,1,0,.14.86.86,0,0,1-.86.87H475.64l-.14,0a.85.85,0,0,1-.71-1l1.3-7.8a.93.93,0,0,0-.77-1.08H463.64a.93.93,0,0,0-.94.93.88.88,0,0,0,0,.16l1.3,7.8a.71.71,0,0,1,0,.14.87.87,0,0,1-.86.87H452.94V125.84h.9V124h-3.6v-6.22h38.33v.9h1.87v-7.28h-1.87v.9H450.24V106h3.6v-1.87h-.9V93.58h5.93v3.6h1.87v-.9h3.83v.9h1.87v-3.6h29.93v3.6h1.88v-.9h3.82v.9H504v-3.6h5.92v10.58H509V106h3.6V124H509v1.88h.9v30.37h-3.6v1.88h.9v11.33h-.9v1.87h3.6v8.18h-3.6v1.87h.9v1.73h-.9v1.87h3.6v2.63h-3.6v1.87h.9v1.73h-.9V193h3.6v8.18h-3.6v1.87h.9v11.33h-.9v1.88h3.6v29.92h-3.6v1.88h.9v11.32h-.9v1.88h3.6v8.18h-3.6v1.87h.9v1.73h-.9V275h3.6v2.63h-3.6v1.87h.9v1.73h-.9v1.87h3.6v8.18h-3.6v1.87h.9v11.33h-.9v1.87h3.6v29.93h-3.6v1.88h.9v11.32h-.9v1.88h3.6v8.18h-3.6v1.87h.9v1.73h-.9V365h3.6v2.63h-3.6v1.87h.9v1.73Z"/></g><g id="MTEXT-15" data-name="MTEXT"><text class="cls-3" transform="translate(663.07 19.75)">004 x1</text></g><g id="MTEXT-16" data-name="MTEXT"><text class="cls-3" transform="translate(450.05 19.75)">003 x1</text></g><g id="MTEXT-17" data-name="MTEXT"><text class="cls-3" transform="translate(237.03 19.75)">002 x1</text></g><g id="MTEXT-18" data-name="MTEXT"><text class="cls-3" transform="translate(24 19.75)">001 x1</text></g><g id="POLYLINE-79" data-name="POLYLINE"><rect class="cls-4" x="663.07" y="31.27" width="183.02" height="366.04"/></g><g id="POLYLINE-80" data-name="POLYLINE"><rect class="cls-4" x="450.05" y="31.27" width="183.02" height="366.04"/></g><g id="POLYLINE-81" data-name="POLYLINE"><rect class="cls-4" x="237.03" y="31.27" width="183.02" height="366.04"/></g><g id="POLYLINE-82" data-name="POLYLINE"><rect class="cls-4" x="24.01" y="31.27" width="183.02" height="366.04"/></g><g id="POLYLINE-83" data-name="POLYLINE"><path class="cls-2" d="M542.94,111.72a.92.92,0,0,1-.07.36.91.91,0,0,1-1.18.47l-9.25-4H527l-9.24,4a1.1,1.1,0,0,1-.36.07.9.9,0,0,1-.9-.9v-6.93a3,3,0,0,1,0-6V91.86a1.1,1.1,0,0,1,.07-.36A.9.9,0,0,1,517.8,91L527,95h5.4l9.25-4A.84.84,0,0,1,542,91a.9.9,0,0,1,.9.9v6.93a3,3,0,0,1,0,6Z"/></g><g id="POLYLINE-84" data-name="POLYLINE"><polygon class="cls-2" points="531.02 100.39 528.46 100.4 528.46 99.54 527.04 99.54 527.04 104.04 528.46 104.04 528.46 103.18 531.02 103.17 531.02 104.03 532.44 104.03 532.44 99.53 531.02 99.53 531.02 100.39"/></g><g id="POLYLINE-85" data-name="POLYLINE"><path class="cls-2" d="M614.92,394.78a1.15,1.15,0,0,1-.07.36.91.91,0,0,1-1.19.46l-9.24-4H599l-9.25,4a.85.85,0,0,1-.35.08.9.9,0,0,1-.9-.9v-6.93a3,3,0,0,1,0-6v-6.93a.86.86,0,0,1,.07-.36.89.89,0,0,1,1.18-.47l9.25,4h5.4l9.24-4a.91.91,0,0,1,1.26.83v6.93a3,3,0,0,1,0,6Z"/></g><g id="POLYLINE-86" data-name="POLYLINE"><polygon class="cls-2" points="603 383.45 600.44 383.46 600.44 382.59 599.02 382.59 599.02 387.1 600.44 387.1 600.44 386.24 603 386.22 603 387.09 604.42 387.09 604.42 382.58 603 382.58 603 383.45"/></g><g id="POLYLINE-87" data-name="POLYLINE"><path class="cls-2" d="M494.61,394.78a.94.94,0,0,1-.08.36.89.89,0,0,1-1.18.46l-9.24-4h-5.4l-9.25,4a.86.86,0,0,1-.36.08.9.9,0,0,1-.9-.9v-6.93a3,3,0,1,1,0-6v-6.93a.86.86,0,0,1,.08-.36.89.89,0,0,1,1.18-.47l9.25,4h5.4l9.24-4a.86.86,0,0,1,.36-.07.9.9,0,0,1,.9.9v6.93a3,3,0,0,1,0,6Z"/></g><g id="POLYLINE-88" data-name="POLYLINE"><polygon class="cls-2" points="482.69 383.45 480.13 383.46 480.13 382.59 478.71 382.59 478.71 387.1 480.13 387.1 480.13 386.24 482.69 386.22 482.69 387.09 484.11 387.09 484.11 382.58 482.69 382.58 482.69 383.45"/></g><g id="POLYLINE-89" data-name="POLYLINE"><path class="cls-2" d="M756,111.92a.94.94,0,0,1-.08.36.9.9,0,0,1-1.18.46l-9.25-4h-5.4l-9.24,4a.86.86,0,0,1-.36.08.91.91,0,0,1-.9-.9V105a3,3,0,0,1,0-6V92.06a.86.86,0,0,1,.08-.36.89.89,0,0,1,1.18-.47l9.24,4h5.4l9.25-4a.86.86,0,0,1,.36-.07.9.9,0,0,1,.9.9V99a3,3,0,0,1,0,6Z"/></g><g id="POLYLINE-90" data-name="POLYLINE"><polygon class="cls-2" points="744.04 100.59 741.48 100.6 741.48 99.73 740.06 99.73 740.06 104.24 741.48 104.24 741.48 103.38 744.04 103.36 744.04 104.23 745.46 104.23 745.46 99.72 744.04 99.72 744.04 100.59"/></g><g id="POLYLINE-91" data-name="POLYLINE"><path class="cls-2" d="M827.94,395a.84.84,0,0,1-.07.35.9.9,0,0,1-1.19.47l-9.24-4H812l-9.24,4a.94.94,0,0,1-.36.08.9.9,0,0,1-.9-.9v-6.93a3,3,0,0,1,0-6v-6.93a.84.84,0,0,1,.07-.35.9.9,0,0,1,1.19-.47l9.24,4h5.4l9.24-4a.94.94,0,0,1,.36-.08.9.9,0,0,1,.9.9V382a3,3,0,0,1,0,6Z"/></g><g id="POLYLINE-92" data-name="POLYLINE"><polygon class="cls-2" points="816.02 383.65 813.46 383.66 813.46 382.79 812.04 382.79 812.04 387.3 813.46 387.3 813.46 386.43 816.02 386.42 816.02 387.29 817.44 387.29 817.44 382.78 816.02 382.78 816.02 383.65"/></g><g id="POLYLINE-93" data-name="POLYLINE"><path class="cls-2" d="M707.63,395a1,1,0,0,1-.07.35.9.9,0,0,1-1.19.47l-9.24-4h-5.4l-9.25,4a.85.85,0,0,1-.35.08.9.9,0,0,1-.9-.9v-6.93a3,3,0,0,1,0-6v-6.93a.84.84,0,0,1,.07-.35.89.89,0,0,1,1.18-.47l9.25,4h5.4l9.24-4a.89.89,0,0,1,1.26.82V382a3,3,0,0,1,0,6Z"/></g><g id="POLYLINE-94" data-name="POLYLINE"><polygon class="cls-2" points="695.71 383.65 693.15 383.66 693.15 382.79 691.73 382.79 691.73 387.3 693.15 387.3 693.15 386.43 695.71 386.42 695.71 387.29 697.13 387.29 697.13 382.78 695.71 382.78 695.71 383.65"/></g></svg>