  0
SECTION
  2
HEADER
  9
$ACADVER
  1
AC1009
  9
$INSBASE
 10
0.000000
 20
0.000000
 30
0.000000
  9
$EXTMIN
 10
0.000000
 20
0.000000
 30
0.000000
  9
$EXTMAX
 10
1782.949996
 20
389.685138
 30
0.000000
  0
ENDSEC
  0
SECTION
  2
TABLES
  0
TABLE
  2
LTYPE
 70
1
  0
LTYPE
  2
CONTINUOUS
 70
0
  3
Solid line
 72
65
 73
0
 40
0.000000
  0
ENDTAB
  0
TABLE
  2
LAYER
 70
5
  0
LAYER
  2
0
 70
0
 62
7
  6
CONTINUOUS
  0
LAYER
  2
1_ANYTOOL_1MMDEEP_LABELS_S
 70
0
 62
2
  6
CONTINUOUS
  0
LAYER
  2
5_ANYTOOL_HALF_MILL_9MM_IN
 70
0
 62
3
  6
CONTINUOUS
  0
LAYER
  2
3_ANYTOOL_CUTTHROUGH_INSID
 70
0
 62
4
  6
CONTINUOUS
  0
LAYER
  2
4_ANYTOOL_CUTTHROUGH_OUTSI
 70
0
 62
5
  6
CONTINUOUS
  0
ENDTAB
  0
ENDSEC
  0
SECTION
  2
ENTITIES
  0
LINE
  8
1_ANYTOOL_1MMDEEP_LABELS_S
 10
955.715167
 20
192.723913
 30
0.000000
 11
941.058024
 21
192.723913
 31
0.000000
  0
POLYLINE
  8
1_ANYTOOL_1MMDEEP_LABELS_S
 66
1
 10
0.000000
 20
0.000000
 30
0.000000
 70
0
  0
VERTEX
  8
1_ANYTOOL_1MMDEEP_LABELS_S
 10
960.000882
 20
176.652485
 30
0.000000
  0
VERTEX
  8
1_ANYTOOL_1MMDEEP_LABELS_S
 10
941.058024
 20
176.652485
 30
0.000000
  0
VERTEX
  8
1_ANYTOOL_1MMDEEP_LABELS_S
 10
941.058024
 20
206.652485
 30
0.000000
  0
VERTEX
  8
1_ANYTOOL_1MMDEEP_LABELS_S
 10
958.886596
 20
206.652485
 30
0.000000
  0
SEQEND
  8
1_ANYTOOL_1MMDEEP_LABELS_S
  0
LINE
  8
1_ANYTOOL_1MMDEEP_LABELS_S
 10
937.629453
 20
206.181056
 30
0.000000
 11
920.443739
 21
175.409628
 31
0.000000
  0
POLYLINE
  8
1_ANYTOOL_1MMDEEP_LABELS_S
 66
1
 10
0.000000
 20
0.000000
 30
0.000000
 70
0
  0
VERTEX
  8
1_ANYTOOL_1MMDEEP_LABELS_S
 10
916.415167
 20
176.695342
 30
0.000000
  0
VERTEX
  8
1_ANYTOOL_1MMDEEP_LABELS_S
 10
898.115167
 20
176.738199
 30
0.000000
 42
-0.034491
  0
VERTEX
  8
1_ANYTOOL_1MMDEEP_LABELS_S
 10
898.777945
 20
178.485531
 30
0.000000
 42
-0.037732
  0
VERTEX
  8
1_ANYTOOL_1MMDEEP_LABELS_S
 10
899.684810
 20
180.118556
 30
0.000000
 42
-0.037744
  0
VERTEX
  8
1_ANYTOOL_1MMDEEP_LABELS_S
 10
900.824104
 20
181.593192
 30
0.000000
 42
-0.034820
  0
VERTEX
  8
1_ANYTOOL_1MMDEEP_LABELS_S
 10
902.165167
 20
182.888199
 30
0.000000
 42
-0.008590
  0
VERTEX
  8
1_ANYTOOL_1MMDEEP_LABELS_S
 10
905.124392
 20
185.286782
 30
0.000000
 42
-0.008791
  0
VERTEX
  8
1_ANYTOOL_1MMDEEP_LABELS_S
 10
908.165167
 20
187.581056
 30
0.000000
 42
0.020588
  0
VERTEX
  8
1_ANYTOOL_1MMDEEP_LABELS_S
 10
910.984456
 20
189.814499
 30
0.000000
 42
0.025206
  0
VERTEX
  8
1_ANYTOOL_1MMDEEP_LABELS_S
 10
913.586596
 20
192.295342
 30
0.000000
 42
0.046908
  0
VERTEX
  8
1_ANYTOOL_1MMDEEP_LABELS_S
 10
914.607191
 20
193.596584
 30
0.000000
 42
0.051091
  0
VERTEX
  8
1_ANYTOOL_1MMDEEP_LABELS_S
 10
915.354453
 20
195.070342
 30
0.000000
 42
0.050722
  0
VERTEX
  8
1_ANYTOOL_1MMDEEP_LABELS_S
 10
915.803186
 20
196.718516
 30
0.000000
 42
0.041139
  0
VERTEX
  8
1_ANYTOOL_1MMDEEP_LABELS_S
 10
915.943739
 20
198.423913
 30
0.000000
 42
0.039396
  0
VERTEX
  8
1_ANYTOOL_1MMDEEP_LABELS_S
 10
915.801094
 20
200.231499
 30
0.000000
 42
0.058519
  0
VERTEX
  8
1_ANYTOOL_1MMDEEP_LABELS_S
 10
915.311596
 20
201.970342
 30
0.000000
 42
0.060358
  0
VERTEX
  8
1_ANYTOOL_1MMDEEP_LABELS_S
 10
914.521038
 20
203.377458
 30
0.000000
 42
0.061397
  0
VERTEX
  8
1_ANYTOOL_1MMDEEP_LABELS_S
 10
913.415167
 20
204.552485
 30
0.000000
 42
0.048006
  0
VERTEX
  8
1_ANYTOOL_1MMDEEP_LABELS_S
 10
912.059210
 20
205.474444
 30
0.000000
 42
0.045901
  0
VERTEX
  8
1_ANYTOOL_1MMDEEP_LABELS_S
 10
910.554453
 20
206.127485
 30
0.000000
 42
0.045216
  0
VERTEX
  8
1_ANYTOOL_1MMDEEP_LABELS_S
 10
908.814392
 20
206.530044
 30
0.000000
 42
0.034258
  0
VERTEX
  8
1_ANYTOOL_1MMDEEP_LABELS_S
 10
907.029453
 20
206.652485
 30
0.000000
 42
0.055622
  0
VERTEX
  8
1_ANYTOOL_1MMDEEP_LABELS_S
 10
904.394882
 20
206.358498
 30
0.000000
 42
0.079896
  0
VERTEX
  8
1_ANYTOOL_1MMDEEP_LABELS_S
 10
901.950882
 20
205.377485
 30
0.000000
 42
0.080617
  0
VERTEX
  8
1_ANYTOOL_1MMDEEP_LABELS_S
 10
899.981494
 20
203.711785
 30
0.000000
 42
0.060287
  0
VERTEX
  8
1_ANYTOOL_1MMDEEP_LABELS_S
 10
898.543739
 20
201.552485
 30
0.000000
  0
SEQEND
  8
1_ANYTOOL_1MMDEEP_LABELS_S
  0
LINE
  8
1_ANYTOOL_1MMDEEP_LABELS_S
 10
893.829453
 20
190.538199
 30
0.000000
 11
885.043739
 21
190.452485
 31
0.000000
  0
POLYLINE
  8
1_ANYTOOL_1MMDEEP_LABELS_S
 66
1
 10
0.000000
 20
0.000000
 30
0.000000
 70
0
  0
VERTEX
  8
1_ANYTOOL_1MMDEEP_LABELS_S
 10
864.086596
 20
206.652485
 30
0.000000
  0
VERTEX
  8
1_ANYTOOL_1MMDEEP_LABELS_S
 10
864.086596
 20
176.652485
 30
0.000000
  0
VERTEX
  8
1_ANYTOOL_1MMDEEP_LABELS_S
 10
881.186596
 20
176.652485
 30
0.000000
  0
SEQEND
  8
1_ANYTOOL_1MMDEEP_LABELS_S
  0
LINE
  8
1_ANYTOOL_1MMDEEP_LABELS_S
 10
858.943739
 20
190.538199
 30
0.000000
 11
850.158024
 21
190.452485
 31
0.000000
  0
POLYLINE
  8
1_ANYTOOL_1MMDEEP_LABELS_S
 66
1
 10
0.000000
 20
0.000000
 30
0.000000
 70
0
  0
VERTEX
  8
1_ANYTOOL_1MMDEEP_LABELS_S
 10
825.815167
 20
206.652485
 30
0.000000
  0
VERTEX
  8
1_ANYTOOL_1MMDEEP_LABELS_S
 10
836.186596
 20
176.652485
 30
0.000000
  0
VERTEX
  8
1_ANYTOOL_1MMDEEP_LABELS_S
 10
846.729453
 20
206.652485
 30
0.000000
  0
SEQEND
  8
1_ANYTOOL_1MMDEEP_LABELS_S
  0
POLYLINE
  8
5_ANYTOOL_HALF_MILL_9MM_IN
 66
1
 10
0.000000
 20
0.000000
 30
0.000000
 70
1
  0
VERTEX
  8
5_ANYTOOL_HALF_MILL_9MM_IN
 10
269.599995
 20
316.185138
 30
0.000000
  0
VERTEX
  8
5_ANYTOOL_HALF_MILL_9MM_IN
 10
269.599995
 20
315.935138
 30
0.000000
 42
1.000000
  0
VERTEX
  8
5_ANYTOOL_HALF_MILL_9MM_IN
 10
312.099995
 20
315.935138
 30
0.000000
  0
VERTEX
  8
5_ANYTOOL_HALF_MILL_9MM_IN
 10
312.099995
 20
322.185138
 30
0.000000
  0
VERTEX
  8
5_ANYTOOL_HALF_MILL_9MM_IN
 10
269.599995
 20
322.185138
 30
0.000000
  0
SEQEND
  8
5_ANYTOOL_HALF_MILL_9MM_IN
  0
POLYLINE
  8
5_ANYTOOL_HALF_MILL_9MM_IN
 66
1
 10
0.000000
 20
0.000000
 30
0.000000
 70
1
  0
VERTEX
  8
5_ANYTOOL_HALF_MILL_9MM_IN
 10
464.499995
 20
316.185138
 30
0.000000
  0
VERTEX
  8
5_ANYTOOL_HALF_MILL_9MM_IN
 10
464.499995
 20
315.935138
 30
0.000000
 42
1.000000
  0
VERTEX
  8
5_ANYTOOL_HALF_MILL_9MM_IN
 10
506.999995
 20
315.935138
 30
0.000000
  0
VERTEX
  8
5_ANYTOOL_HALF_MILL_9MM_IN
 10
506.999995
 20
322.185138
 30
0.000000
  0
VERTEX
  8
5_ANYTOOL_HALF_MILL_9MM_IN
 10
464.499995
 20
322.185138
 30
0.000000
  0
SEQEND
  8
5_ANYTOOL_HALF_MILL_9MM_IN
  0
POLYLINE
  8
5_ANYTOOL_HALF_MILL_9MM_IN
 66
1
 10
0.000000
 20
0.000000
 30
0.000000
 70
1
  0
VERTEX
  8
5_ANYTOOL_HALF_MILL_9MM_IN
 10
659.399995
 20
316.185138
 30
0.000000
  0
VERTEX
  8
5_ANYTOOL_HALF_MILL_9MM_IN
 10
659.399995
 20
315.935138
 30
0.000000
 42
1.000000
  0
VERTEX
  8
5_ANYTOOL_HALF_MILL_9MM_IN
 10
701.899995
 20
315.935138
 30
0.000000
  0
VERTEX
  8
5_ANYTOOL_HALF_MILL_9MM_IN
 10
701.899995
 20
322.185138
 30
0.000000
  0
VERTEX
  8
5_ANYTOOL_HALF_MILL_9MM_IN
 10
659.399995
 20
322.185138
 30
0.000000
  0
SEQEND
  8
5_ANYTOOL_HALF_MILL_9MM_IN
  0
POLYLINE
  8
5_ANYTOOL_HALF_MILL_9MM_IN
 66
1
 10
0.000000
 20
0.000000
 30
0.000000
 70
1
  0
VERTEX
  8
5_ANYTOOL_HALF_MILL_9MM_IN
 10
869.599995
 20
316.185138
 30
0.000000
  0
VERTEX
  8
5_ANYTOOL_HALF_MILL_9MM_IN
 10
869.599995
 20
315.935138
 30
0.000000
 42
1.000000
  0
VERTEX
  8
5_ANYTOOL_HALF_MILL_9MM_IN
 10
912.099995
 20
315.935138
 30
0.000000
  0
VERTEX
  8
5_ANYTOOL_HALF_MILL_9MM_IN
 10
912.099995
 20
322.185138
 30
0.000000
  0
VERTEX
  8
5_ANYTOOL_HALF_MILL_9MM_IN
 10
869.599995
 20
322.185138
 30
0.000000
  0
SEQEND
  8
5_ANYTOOL_HALF_MILL_9MM_IN
  0
POLYLINE
  8
5_ANYTOOL_HALF_MILL_9MM_IN
 66
1
 10
0.000000
 20
0.000000
 30
0.000000
 70
1
  0
VERTEX
  8
5_ANYTOOL_HALF_MILL_9MM_IN
 10
1064.499995
 20
316.185138
 30
0.000000
  0
VERTEX
  8
5_ANYTOOL_HALF_MILL_9MM_IN
 10
1064.499995
 20
315.935138
 30
0.000000
 42
1.000000
  0
VERTEX
  8
5_ANYTOOL_HALF_MILL_9MM_IN
 10
1106.999995
 20
315.935138
 30
0.000000
  0
VERTEX
  8
5_ANYTOOL_HALF_MILL_9MM_IN
 10
1106.999995
 20
322.185138
 30
0.000000
  0
VERTEX
  8
5_ANYTOOL_HALF_MILL_9MM_IN
 10
1064.499995
 20
322.185138
 30
0.000000
  0
SEQEND
  8
5_ANYTOOL_HALF_MILL_9MM_IN
  0
POLYLINE
  8
5_ANYTOOL_HALF_MILL_9MM_IN
 66
1
 10
0.000000
 20
0.000000
 30
0.000000
 70
1
  0
VERTEX
  8
5_ANYTOOL_HALF_MILL_9MM_IN
 10
1259.399995
 20
316.185138
 30
0.000000
  0
VERTEX
  8
5_ANYTOOL_HALF_MILL_9MM_IN
 10
1259.399995
 20
315.935138
 30
0.000000
 42
1.000000
  0
VERTEX
  8
5_ANYTOOL_HALF_MILL_9MM_IN
 10
1301.899995
 20
315.935138
 30
0.000000
  0
VERTEX
  8
5_ANYTOOL_HALF_MILL_9MM_IN
 10
1301.899995
 20
322.185138
 30
0.000000
  0
VERTEX
  8
5_ANYTOOL_HALF_MILL_9MM_IN
 10
1259.399995
 20
322.185138
 30
0.000000
  0
SEQEND
  8
5_ANYTOOL_HALF_MILL_9MM_IN
  0
POLYLINE
  8
5_ANYTOOL_HALF_MILL_9MM_IN
 66
1
 10
0.000000
 20
0.000000
 30
0.000000
 70
1
  0
VERTEX
  8
5_ANYTOOL_HALF_MILL_9MM_IN
 10
1469.599995
 20
316.185138
 30
0.000000
  0
VERTEX
  8
5_ANYTOOL_HALF_MILL_9MM_IN
 10
1469.599995
 20
315.935138
 30
0.000000
 42
1.000000
  0
VERTEX
  8
5_ANYTOOL_HALF_MILL_9MM_IN
 10
1512.099995
 20
315.935138
 30
0.000000
  0
VERTEX
  8
5_ANYTOOL_HALF_MILL_9MM_IN
 10
1512.099995
 20
322.185138
 30
0.000000
  0
VERTEX
  8
5_ANYTOOL_HALF_MILL_9MM_IN
 10
1469.599995
 20
322.185138
 30
0.000000
  0
SEQEND
  8
5_ANYTOOL_HALF_MILL_9MM_IN
  0
POLYLINE
  8
5_ANYTOOL_HALF_MILL_9MM_IN
 66
1
 10
0.000000
 20
0.000000
 30
0.000000
 70
1
  0
VERTEX
  8
5_ANYTOOL_HALF_MILL_9MM_IN
 10
1664.499995
 20
316.185138
 30
0.000000
  0
VERTEX
  8
5_ANYTOOL_HALF_MILL_9MM_IN
 10
1664.499995
 20
315.935138
 30
0.000000
 42
1.000000
  0
VERTEX
  8
5_ANYTOOL_HALF_MILL_9MM_IN
 10
1706.999995
 20
315.935138
 30
0.000000
  0
VERTEX
  8
5_ANYTOOL_HALF_MILL_9MM_IN
 10
1706.999995
 20
322.185138
 30
0.000000
  0
VERTEX
  8
5_ANYTOOL_HALF_MILL_9MM_IN
 10
1664.499995
 20
322.185138
 30
0.000000
  0
SEQEND
  8
5_ANYTOOL_HALF_MILL_9MM_IN
  0
POLYLINE
  8
3_ANYTOOL_CUTTHROUGH_INSID
 66
1
 10
0.000000
 20
0.000000
 30
0.000000
 70
1
  0
VERTEX
  8
3_ANYTOOL_CUTTHROUGH_INSID
 10
809.999995
 20
180.228683
 30
0.000000
  0
VERTEX
  8
3_ANYTOOL_CUTTHROUGH_INSID
 10
809.999995
 20
192.728683
 30
0.000000
  0
VERTEX
  8
3_ANYTOOL_CUTTHROUGH_INSID
 10
779.499995
 20
192.728683
 30
0.000000
  0
VERTEX
  8
3_ANYTOOL_CUTTHROUGH_INSID
 10
779.499995
 20
180.228683
 30
0.000000
  0
VERTEX
  8
3_ANYTOOL_CUTTHROUGH_INSID
 10
785.499995
 20
180.228683
 30
0.000000
  0
VERTEX
  8
3_ANYTOOL_CUTTHROUGH_INSID
 10
785.499995
 20
169.728683
 30
0.000000
  0
VERTEX
  8
3_ANYTOOL_CUTTHROUGH_INSID
 10
779.499995
 20
169.728683
 30
0.000000
  0
VERTEX
  8
3_ANYTOOL_CUTTHROUGH_INSID
 10
779.499995
 20
157.228683
 30
0.000000
  0
VERTEX
  8
3_ANYTOOL_CUTTHROUGH_INSID
 10
809.999995
 20
157.228683
 30
0.000000
  0
VERTEX
  8
3_ANYTOOL_CUTTHROUGH_INSID
 10
809.999995
 20
169.728683
 30
0.000000
  0
VERTEX
  8
3_ANYTOOL_CUTTHROUGH_INSID
 10
803.999995
 20
169.728683
 30
0.000000
  0
VERTEX
  8
3_ANYTOOL_CUTTHROUGH_INSID
 10
803.999995
 20
180.228683
 30
0.000000
  0
SEQEND
  8
3_ANYTOOL_CUTTHROUGH_INSID
  0
POLYLINE
  8
3_ANYTOOL_CUTTHROUGH_INSID
 66
1
 10
0.000000
 20
0.000000
 30
0.000000
 70
1
  0
VERTEX
  8
3_ANYTOOL_CUTTHROUGH_INSID
 10
1409.999995
 20
180.228683
 30
0.000000
  0
VERTEX
  8
3_ANYTOOL_CUTTHROUGH_INSID
 10
1409.999995
 20
192.728683
 30
0.000000
  0
VERTEX
  8
3_ANYTOOL_CUTTHROUGH_INSID
 10
1379.499995
 20
192.728683
 30
0.000000
  0
VERTEX
  8
3_ANYTOOL_CUTTHROUGH_INSID
 10
1379.499995
 20
180.228683
 30
0.000000
  0
VERTEX
  8
3_ANYTOOL_CUTTHROUGH_INSID
 10
1385.499995
 20
180.228683
 30
0.000000
  0
VERTEX
  8
3_ANYTOOL_CUTTHROUGH_INSID
 10
1385.499995
 20
169.728683
 30
0.000000
  0
VERTEX
  8
3_ANYTOOL_CUTTHROUGH_INSID
 10
1379.499995
 20
169.728683
 30
0.000000
  0
VERTEX
  8
3_ANYTOOL_CUTTHROUGH_INSID
 10
1379.499995
 20
157.228683
 30
0.000000
  0
VERTEX
  8
3_ANYTOOL_CUTTHROUGH_INSID
 10
1409.999995
 20
157.228683
 30
0.000000
  0
VERTEX
  8
3_ANYTOOL_CUTTHROUGH_INSID
 10
1409.999995
 20
169.728683
 30
0.000000
  0
VERTEX
  8
3_ANYTOOL_CUTTHROUGH_INSID
 10
1403.999995
 20
169.728683
 30
0.000000
  0
VERTEX
  8
3_ANYTOOL_CUTTHROUGH_INSID
 10
1403.999995
 20
180.228683
 30
0.000000
  0
SEQEND
  8
3_ANYTOOL_CUTTHROUGH_INSID
  0
POLYLINE
  8
4_ANYTOOL_CUTTHROUGH_OUTSI
 66
1
 10
0.000000
 20
0.000000
 30
0.000000
 70
1
  0
VERTEX
  8
4_ANYTOOL_CUTTHROUGH_OUTSI
 10
136.640198
 20
40.464900
 30
0.000000
  0
VERTEX
  8
4_ANYTOOL_CUTTHROUGH_OUTSI
 10
136.740533
 20
46.214023
 30
0.000000
 42
-0.414214
  0
VERTEX
  8
4_ANYTOOL_CUTTHROUGH_OUTSI
 10
136.994857
 20
46.459623
 30
0.000000
  0
VERTEX
  8
4_ANYTOOL_CUTTHROUGH_OUTSI
 10
148.993030
 20
46.250228
 30
0.000000
 42
-0.414214
  0
VERTEX
  8
4_ANYTOOL_CUTTHROUGH_OUTSI
 10
149.238629
 20
45.995904
 30
0.000000
  0
VERTEX
  8
4_ANYTOOL_CUTTHROUGH_OUTSI
 10
148.824202
 20
22.249433
 30
0.000000
  0
VERTEX
  8
4_ANYTOOL_CUTTHROUGH_OUTSI
 10
223.312855
 20
20.949229
 30
0.000000
  0
VERTEX
  8
4_ANYTOOL_CUTTHROUGH_OUTSI
 10
223.727281
 20
44.695577
 30
0.000000
 42
-0.414214
  0
VERTEX
  8
4_ANYTOOL_CUTTHROUGH_OUTSI
 10
223.981605
 20
44.941177
 30
0.000000
  0
VERTEX
  8
4_ANYTOOL_CUTTHROUGH_OUTSI
 10
235.979778
 20
44.731783
 30
0.000000
 42
-0.414214
  0
VERTEX
  8
4_ANYTOOL_CUTTHROUGH_OUTSI
 10
236.225377
 20
44.477458
 30
0.000000
  0
VERTEX
  8
4_ANYTOOL_CUTTHROUGH_OUTSI
 10
236.125041
 20
38.728228
 30
0.000000
  0
VERTEX
  8
4_ANYTOOL_CUTTHROUGH_OUTSI
 10
736.640198
 20
29.990286
 30
0.000000
  0
VERTEX
  8
4_ANYTOOL_CUTTHROUGH_OUTSI
 10
736.740533
 20
35.739409
 30
0.000000
 42
-0.414214
  0
VERTEX
  8
4_ANYTOOL_CUTTHROUGH_OUTSI
 10
736.994857
 20
35.985008
 30
0.000000
  0
VERTEX
  8
4_ANYTOOL_CUTTHROUGH_OUTSI
 10
748.993030
 20
35.775614
 30
0.000000
 42
-0.414214
  0
VERTEX
  8
4_ANYTOOL_CUTTHROUGH_OUTSI
 10
749.238629
 20
35.521290
 30
0.000000
  0
VERTEX
  8
4_ANYTOOL_CUTTHROUGH_OUTSI
 10
748.824202
 20
11.774819
 30
0.000000
  0
VERTEX
  8
4_ANYTOOL_CUTTHROUGH_OUTSI
 10
823.312855
 20
10.474614
 30
0.000000
  0
VERTEX
  8
4_ANYTOOL_CUTTHROUGH_OUTSI
 10
823.727281
 20
34.220963
 30
0.000000
 42
-0.414214
  0
VERTEX
  8
4_ANYTOOL_CUTTHROUGH_OUTSI
 10
823.981605
 20
34.466563
 30
0.000000
  0
VERTEX
  8
4_ANYTOOL_CUTTHROUGH_OUTSI
 10
835.979778
 20
34.257168
 30
0.000000
 42
-0.414214
  0
VERTEX
  8
4_ANYTOOL_CUTTHROUGH_OUTSI
 10
836.225377
 20
34.002844
 30
0.000000
  0
VERTEX
  8
4_ANYTOOL_CUTTHROUGH_OUTSI
 10
836.125041
 20
28.253614
 30
0.000000
  0
VERTEX
  8
4_ANYTOOL_CUTTHROUGH_OUTSI
 10
1336.640198
 20
19.515671
 30
0.000000
  0
VERTEX
  8
4_ANYTOOL_CUTTHROUGH_OUTSI
 10
1336.740533
 20
25.264795
 30
0.000000
 42
-0.414214
  0
VERTEX
  8
4_ANYTOOL_CUTTHROUGH_OUTSI
 10
1336.994857
 20
25.510394
 30
0.000000
  0
VERTEX
  8
4_ANYTOOL_CUTTHROUGH_OUTSI
 10
1348.993030
 20
25.301000
 30
0.000000
 42
-0.414214
  0
VERTEX
  8
4_ANYTOOL_CUTTHROUGH_OUTSI
 10
1349.238629
 20
25.046675
 30
0.000000
  0
VERTEX
  8
4_ANYTOOL_CUTTHROUGH_OUTSI
 10
1348.824202
 20
1.300204
 30
0.000000
  0
VERTEX
  8
4_ANYTOOL_CUTTHROUGH_OUTSI
 10
1423.312855
 20
0.000000
 30
0.000000
  0
VERTEX
  8
4_ANYTOOL_CUTTHROUGH_OUTSI
 10
1423.727281
 20
23.746349
 30
0.000000
 42
-0.414214
  0
VERTEX
  8
4_ANYTOOL_CUTTHROUGH_OUTSI
 10
1423.981605
 20
23.991948
 30
0.000000
  0
VERTEX
  8
4_ANYTOOL_CUTTHROUGH_OUTSI
 10
1435.979778
 20
23.782554
 30
0.000000
 42
-0.414214
  0
VERTEX
  8
4_ANYTOOL_CUTTHROUGH_OUTSI
 10
1436.225377
 20
23.528230
 30
0.000000
  0
VERTEX
  8
4_ANYTOOL_CUTTHROUGH_OUTSI
 10
1436.125041
 20
17.779000
 30
0.000000
  0
VERTEX
  8
4_ANYTOOL_CUTTHROUGH_OUTSI
 10
1782.625045
 20
11.729838
 30
0.000000
  0
VERTEX
  8
4_ANYTOOL_CUTTHROUGH_OUTSI
 10
1782.949996
 20
91.896427
 30
0.000000
 42
0.237079
  0
VERTEX
  8
4_ANYTOOL_CUTTHROUGH_OUTSI
 10
1780.632346
 20
96.509105
 30
0.000000
 42
0.237104
  0
VERTEX
  8
4_ANYTOOL_CUTTHROUGH_OUTSI
 10
1775.547830
 20
97.403193
 30
0.000000
  0
VERTEX
  8
4_ANYTOOL_CUTTHROUGH_OUTSI
 10
1745.786943
 20
86.408143
 30
0.000000
 42
-0.015611
  0
VERTEX
  8
4_ANYTOOL_CUTTHROUGH_OUTSI
 10
1745.772142
 20
86.403195
 30
0.000000
 42
-0.237077
  0
VERTEX
  8
4_ANYTOOL_CUTTHROUGH_OUTSI
 10
1740.245548
 20
87.375279
 30
0.000000
 42
-0.237079
  0
VERTEX
  8
4_ANYTOOL_CUTTHROUGH_OUTSI
 10
1737.726364
 20
92.389608
 30
0.000000
  0
VERTEX
  8
4_ANYTOOL_CUTTHROUGH_OUTSI
 10
1737.725908
 20
140.895693
 30
0.000000
 42
-0.237079
  0
VERTEX
  8
4_ANYTOOL_CUTTHROUGH_OUTSI
 10
1740.245092
 20
145.910025
 30
0.000000
 42
-0.237079
  0
VERTEX
  8
4_ANYTOOL_CUTTHROUGH_OUTSI
 10
1745.771832
 20
146.882108
 30
0.000000
 42
-0.015604
  0
VERTEX
  8
4_ANYTOOL_CUTTHROUGH_OUTSI
 10
1745.786628
 20
146.877162
 30
0.000000
  0
VERTEX
  8
4_ANYTOOL_CUTTHROUGH_OUTSI
 10
1775.562613
 20
135.877631
 30
0.000000
 42
0.236338
  0
VERTEX
  8
4_ANYTOOL_CUTTHROUGH_OUTSI
 10
1780.632346
 20
136.776651
 30
0.000000
 42
0.237079
  0
VERTEX
  8
4_ANYTOOL_CUTTHROUGH_OUTSI
 10
1782.949995
 20
141.389836
 30
0.000000
  0
VERTEX
  8
4_ANYTOOL_CUTTHROUGH_OUTSI
 10
1782.949995
 20
189.895836
 30
0.000000
 42
0.237079
  0
VERTEX
  8
4_ANYTOOL_CUTTHROUGH_OUTSI
 10
1780.632346
 20
194.509020
 30
0.000000
 42
0.237104
  0
VERTEX
  8
4_ANYTOOL_CUTTHROUGH_OUTSI
 10
1775.547830
 20
195.403108
 30
0.000000
  0
VERTEX
  8
4_ANYTOOL_CUTTHROUGH_OUTSI
 10
1745.786943
 20
184.408059
 30
0.000000
 42
-0.015611
  0
VERTEX
  8
4_ANYTOOL_CUTTHROUGH_OUTSI
 10
1745.772142
 20
184.403110
 30
0.000000
 42
-0.237077
  0
VERTEX
  8
4_ANYTOOL_CUTTHROUGH_OUTSI
 10
1740.245548
 20
185.375194
 30
0.000000
 42
-0.237079
  0
VERTEX
  8
4_ANYTOOL_CUTTHROUGH_OUTSI
 10
1737.726364
 20
190.389524
 30
0.000000
  0
VERTEX
  8
4_ANYTOOL_CUTTHROUGH_OUTSI
 10
1737.725908
 20
238.895608
 30
0.000000
 42
-0.237079
  0
VERTEX
  8
4_ANYTOOL_CUTTHROUGH_OUTSI
 10
1740.245092
 20
243.909940
 30
0.000000
 42
-0.237079
  0
VERTEX
  8
4_ANYTOOL_CUTTHROUGH_OUTSI
 10
1745.771832
 20
244.882024
 30
0.000000
 42
-0.015604
  0
VERTEX
  8
4_ANYTOOL_CUTTHROUGH_OUTSI
 10
1745.786628
 20
244.877077
 30
0.000000
  0
VERTEX
  8
4_ANYTOOL_CUTTHROUGH_OUTSI
 10
1775.562613
 20
233.877547
 30
0.000000
 42
0.236338
  0
VERTEX
  8
4_ANYTOOL_CUTTHROUGH_OUTSI
 10
1780.632346
 20
234.776567
 30
0.000000
 42
0.237079
  0
VERTEX
  8
4_ANYTOOL_CUTTHROUGH_OUTSI
 10
1782.949995
 20
239.389751
 30
0.000000
  0
VERTEX
  8
4_ANYTOOL_CUTTHROUGH_OUTSI
 10
1782.949995
 20
371.685138
 30
0.000000
  0
VERTEX
  8
4_ANYTOOL_CUTTHROUGH_OUTSI
 10
1713.855516
 20
371.685138
 30
0.000000
 42
0.061410
  0
VERTEX
  8
4_ANYTOOL_CUTTHROUGH_OUTSI
 10
1714.090427
 20
370.290268
 30
0.000000
  0
VERTEX
  8
4_ANYTOOL_CUTTHROUGH_OUTSI
 10
1730.985960
 20
322.017726
 30
0.000000
 42
-0.084368
  0
VERTEX
  8
4_ANYTOOL_CUTTHROUGH_OUTSI
 10
1730.999995
 20
321.935138
 30
0.000000
 42
-0.414214
  0
VERTEX
  8
4_ANYTOOL_CUTTHROUGH_OUTSI
 10
1724.749995
 20
315.685138
 30
0.000000
  0
VERTEX
  8
4_ANYTOOL_CUTTHROUGH_OUTSI
 10
1646.749995
 20
315.685138
 30
0.000000
 42
-0.414214
  0
VERTEX
  8
4_ANYTOOL_CUTTHROUGH_OUTSI
 10
1640.499995
 20
321.935138
 30
0.000000
 42
-0.084368
  0
VERTEX
  8
4_ANYTOOL_CUTTHROUGH_OUTSI
 10
1640.514031
 20
322.017726
 30
0.000000
  0
VERTEX
  8
4_ANYTOOL_CUTTHROUGH_OUTSI
 10
1657.413144
 20
370.301333
 30
0.000000
 42
0.060800
  0
VERTEX
  8
4_ANYTOOL_CUTTHROUGH_OUTSI
 10
1657.644474
 20
371.685138
 30
0.000000
  0
VERTEX
  8
4_ANYTOOL_CUTTHROUGH_OUTSI
 10
1518.955516
 20
371.685138
 30
0.000000
 42
0.061410
  0
VERTEX
  8
4_ANYTOOL_CUTTHROUGH_OUTSI
 10
1519.190427
 20
370.290268
 30
0.000000
  0
VERTEX
  8
4_ANYTOOL_CUTTHROUGH_OUTSI
 10
1536.085960
 20
322.017726
 30
0.000000
 42
-0.084368
  0
VERTEX
  8
4_ANYTOOL_CUTTHROUGH_OUTSI
 10
1536.099995
 20
321.935138
 30
0.000000
 42
-0.414214
  0
VERTEX
  8
4_ANYTOOL_CUTTHROUGH_OUTSI
 10
1529.849995
 20
315.685138
 30
0.000000
  0
VERTEX
  8
4_ANYTOOL_CUTTHROUGH_OUTSI
 10
1451.849995
 20
315.685138
 30
0.000000
 42
-0.414214
  0
VERTEX
  8
4_ANYTOOL_CUTTHROUGH_OUTSI
 10
1445.599995
 20
321.935138
 30
0.000000
 42
-0.084368
  0
VERTEX
  8
4_ANYTOOL_CUTTHROUGH_OUTSI
 10
1445.614031
 20
322.017726
 30
0.000000
  0
VERTEX
  8
4_ANYTOOL_CUTTHROUGH_OUTSI
 10
1462.513144
 20
370.301333
 30
0.000000
 42
0.060900
  0
VERTEX
  8
4_ANYTOOL_CUTTHROUGH_OUTSI
 10
1462.744189
 20
371.685138
 30
0.000000
  0
VERTEX
  8
4_ANYTOOL_CUTTHROUGH_OUTSI
 10
1450.344768
 20
371.685138
 30
0.000000
 42
-0.317837
  0
VERTEX
  8
4_ANYTOOL_CUTTHROUGH_OUTSI
 10
1444.452211
 20
375.851805
 30
0.000000
 42
0.707107
  0
VERTEX
  8
4_ANYTOOL_CUTTHROUGH_OUTSI
 10
1422.296199
 20
375.851805
 30
0.000000
 42
-0.317837
  0
VERTEX
  8
4_ANYTOOL_CUTTHROUGH_OUTSI
 10
1416.403642
 20
371.685138
 30
0.000000
  0
VERTEX
  8
4_ANYTOOL_CUTTHROUGH_OUTSI
 10
1403.749995
 20
371.685138
 30
0.000000
  0
VERTEX
  8
4_ANYTOOL_CUTTHROUGH_OUTSI
 10
1367.749600
 20
371.685138
 30
0.000000
  0
VERTEX
  8
4_ANYTOOL_CUTTHROUGH_OUTSI
 10
1355.094768
 20
371.685138
 30
0.000000
 42
-0.317837
  0
VERTEX
  8
4_ANYTOOL_CUTTHROUGH_OUTSI
 10
1349.202211
 20
375.851805
 30
0.000000
 42
0.707107
  0
VERTEX
  8
4_ANYTOOL_CUTTHROUGH_OUTSI
 10
1327.046199
 20
375.851805
 30
0.000000
 42
-0.317837
  0
VERTEX
  8
4_ANYTOOL_CUTTHROUGH_OUTSI
 10
1321.153642
 20
371.685138
 30
0.000000
  0
VERTEX
  8
4_ANYTOOL_CUTTHROUGH_OUTSI
 10
1308.755302
 20
371.685138
 30
0.000000
 42
0.061335
  0
VERTEX
  8
4_ANYTOOL_CUTTHROUGH_OUTSI
 10
1308.990427
 20
370.290268
 30
0.000000
  0
VERTEX
  8
4_ANYTOOL_CUTTHROUGH_OUTSI
 10
1325.885960
 20
322.017726
 30
0.000000
 42
-0.084368
  0
VERTEX
  8
4_ANYTOOL_CUTTHROUGH_OUTSI
 10
1325.899995
 20
321.935138
 30
0.000000
 42
-0.414214
  0
VERTEX
  8
4_ANYTOOL_CUTTHROUGH_OUTSI
 10
1319.649995
 20
315.685138
 30
0.000000
  0
VERTEX
  8
4_ANYTOOL_CUTTHROUGH_OUTSI
 10
1241.649995
 20
315.685138
 30
0.000000
 42
-0.414214
  0
VERTEX
  8
4_ANYTOOL_CUTTHROUGH_OUTSI
 10
1235.399995
 20
321.935138
 30
0.000000
 42
-0.084368
  0
VERTEX
  8
4_ANYTOOL_CUTTHROUGH_OUTSI
 10
1235.414031
 20
322.017726
 30
0.000000
  0
VERTEX
  8
4_ANYTOOL_CUTTHROUGH_OUTSI
 10
1252.313144
 20
370.301333
 30
0.000000
 42
0.060800
  0
VERTEX
  8
4_ANYTOOL_CUTTHROUGH_OUTSI
 10
1252.544474
 20
371.685138
 30
0.000000
  0
VERTEX
  8
4_ANYTOOL_CUTTHROUGH_OUTSI
 10
1113.855516
 20
371.685138
 30
0.000000
 42
0.061410
  0
VERTEX
  8
4_ANYTOOL_CUTTHROUGH_OUTSI
 10
1114.090427
 20
370.290268
 30
0.000000
  0
VERTEX
  8
4_ANYTOOL_CUTTHROUGH_OUTSI
 10
1130.985960
 20
322.017726
 30
0.000000
 42
-0.084368
  0
VERTEX
  8
4_ANYTOOL_CUTTHROUGH_OUTSI
 10
1130.999995
 20
321.935138
 30
0.000000
 42
-0.414214
  0
VERTEX
  8
4_ANYTOOL_CUTTHROUGH_OUTSI
 10
1124.749995
 20
315.685138
 30
0.000000
  0
VERTEX
  8
4_ANYTOOL_CUTTHROUGH_OUTSI
 10
1046.749995
 20
315.685138
 30
0.000000
 42
-0.414214
  0
VERTEX
  8
4_ANYTOOL_CUTTHROUGH_OUTSI
 10
1040.499995
 20
321.935138
 30
0.000000
 42
-0.084368
  0
VERTEX
  8
4_ANYTOOL_CUTTHROUGH_OUTSI
 10
1040.514031
 20
322.017726
 30
0.000000
  0
VERTEX
  8
4_ANYTOOL_CUTTHROUGH_OUTSI
 10
1057.413144
 20
370.301333
 30
0.000000
 42
0.060800
  0
VERTEX
  8
4_ANYTOOL_CUTTHROUGH_OUTSI
 10
1057.644474
 20
371.685138
 30
0.000000
  0
VERTEX
  8
4_ANYTOOL_CUTTHROUGH_OUTSI
 10
918.955516
 20
371.685138
 30
0.000000
 42
0.061410
  0
VERTEX
  8
4_ANYTOOL_CUTTHROUGH_OUTSI
 10
919.190427
 20
370.290268
 30
0.000000
  0
VERTEX
  8
4_ANYTOOL_CUTTHROUGH_OUTSI
 10
936.085960
 20
322.017726
 30
0.000000
 42
-0.084368
  0
VERTEX
  8
4_ANYTOOL_CUTTHROUGH_OUTSI
 10
936.099995
 20
321.935138
 30
0.000000
 42
-0.414214
  0
VERTEX
  8
4_ANYTOOL_CUTTHROUGH_OUTSI
 10
929.849995
 20
315.685138
 30
0.000000
  0
VERTEX
  8
4_ANYTOOL_CUTTHROUGH_OUTSI
 10
851.849995
 20
315.685138
 30
0.000000
 42
-0.414214
  0
VERTEX
  8
4_ANYTOOL_CUTTHROUGH_OUTSI
 10
845.599995
 20
321.935138
 30
0.000000
 42
-0.084368
  0
VERTEX
  8
4_ANYTOOL_CUTTHROUGH_OUTSI
 10
845.614031
 20
322.017726
 30
0.000000
  0
VERTEX
  8
4_ANYTOOL_CUTTHROUGH_OUTSI
 10
862.513144
 20
370.301333
 30
0.000000
 42
0.060900
  0
VERTEX
  8
4_ANYTOOL_CUTTHROUGH_OUTSI
 10
862.744189
 20
371.685138
 30
0.000000
  0
VERTEX
  8
4_ANYTOOL_CUTTHROUGH_OUTSI
 10
850.344768
 20
371.685138
 30
0.000000
 42
-0.317837
  0
VERTEX
  8
4_ANYTOOL_CUTTHROUGH_OUTSI
 10
844.452211
 20
375.851805
 30
0.000000
 42
0.317837
  0
VERTEX
  8
4_ANYTOOL_CUTTHROUGH_OUTSI
 10
833.374205
 20
383.685138
 30
0.000000
 42
0.317837
  0
VERTEX
  8
4_ANYTOOL_CUTTHROUGH_OUTSI
 10
822.296199
 20
375.851805
 30
0.000000
 42
-0.317837
  0
VERTEX
  8
4_ANYTOOL_CUTTHROUGH_OUTSI
 10
816.403642
 20
371.685138
 30
0.000000
  0
VERTEX
  8
4_ANYTOOL_CUTTHROUGH_OUTSI
 10
803.749995
 20
371.685138
 30
0.000000
  0
VERTEX
  8
4_ANYTOOL_CUTTHROUGH_OUTSI
 10
767.749600
 20
371.685138
 30
0.000000
  0
VERTEX
  8
4_ANYTOOL_CUTTHROUGH_OUTSI
 10
755.094768
 20
371.685138
 30
0.000000
 42
-0.317837
  0
VERTEX
  8
4_ANYTOOL_CUTTHROUGH_OUTSI
 10
749.202211
 20
375.851805
 30
0.000000
 42
0.707107
  0
VERTEX
  8
4_ANYTOOL_CUTTHROUGH_OUTSI
 10
727.046199
 20
375.851805
 30
0.000000
 42
-0.317837
  0
VERTEX
  8
4_ANYTOOL_CUTTHROUGH_OUTSI
 10
721.153642
 20
371.685138
 30
0.000000
  0
VERTEX
  8
4_ANYTOOL_CUTTHROUGH_OUTSI
 10
708.755302
 20
371.685138
 30
0.000000
 42
0.061335
  0
VERTEX
  8
4_ANYTOOL_CUTTHROUGH_OUTSI
 10
708.990427
 20
370.290268
 30
0.000000
  0
VERTEX
  8
4_ANYTOOL_CUTTHROUGH_OUTSI
 10
725.885960
 20
322.017726
 30
0.000000
 42
-0.084368
  0
VERTEX
  8
4_ANYTOOL_CUTTHROUGH_OUTSI
 10
725.899995
 20
321.935138
 30
0.000000
 42
-0.414214
  0
VERTEX
  8
4_ANYTOOL_CUTTHROUGH_OUTSI
 10
719.649995
 20
315.685138
 30
0.000000
  0
VERTEX
  8
4_ANYTOOL_CUTTHROUGH_OUTSI
 10
641.649995
 20
315.685138
 30
0.000000
 42
-0.414214
  0
VERTEX
  8
4_ANYTOOL_CUTTHROUGH_OUTSI
 10
635.399995
 20
321.935138
 30
0.000000
 42
-0.084368
  0
VERTEX
  8
4_ANYTOOL_CUTTHROUGH_OUTSI
 10
635.414031
 20
322.017726
 30
0.000000
  0
VERTEX
  8
4_ANYTOOL_CUTTHROUGH_OUTSI
 10
652.313144
 20
370.301333
 30
0.000000
 42
0.060800
  0
VERTEX
  8
4_ANYTOOL_CUTTHROUGH_OUTSI
 10
652.544474
 20
371.685138
 30
0.000000
  0
VERTEX
  8
4_ANYTOOL_CUTTHROUGH_OUTSI
 10
513.855516
 20
371.685138
 30
0.000000
 42
0.061410
  0
VERTEX
  8
4_ANYTOOL_CUTTHROUGH_OUTSI
 10
514.090427
 20
370.290268
 30
0.000000
  0
VERTEX
  8
4_ANYTOOL_CUTTHROUGH_OUTSI
 10
530.985960
 20
322.017726
 30
0.000000
 42
-0.084368
  0
VERTEX
  8
4_ANYTOOL_CUTTHROUGH_OUTSI
 10
530.999995
 20
321.935138
 30
0.000000
 42
-0.414214
  0
VERTEX
  8
4_ANYTOOL_CUTTHROUGH_OUTSI
 10
524.749995
 20
315.685138
 30
0.000000
  0
VERTEX
  8
4_ANYTOOL_CUTTHROUGH_OUTSI
 10
446.749995
 20
315.685138
 30
0.000000
 42
-0.414214
  0
VERTEX
  8
4_ANYTOOL_CUTTHROUGH_OUTSI
 10
440.499995
 20
321.935138
 30
0.000000
 42
-0.084368
  0
VERTEX
  8
4_ANYTOOL_CUTTHROUGH_OUTSI
 10
440.514031
 20
322.017726
 30
0.000000
  0
VERTEX
  8
4_ANYTOOL_CUTTHROUGH_OUTSI
 10
457.413144
 20
370.301333
 30
0.000000
 42
0.060800
  0
VERTEX
  8
4_ANYTOOL_CUTTHROUGH_OUTSI
 10
457.644474
 20
371.685138
 30
0.000000
  0
VERTEX
  8
4_ANYTOOL_CUTTHROUGH_OUTSI
 10
318.955516
 20
371.685138
 30
0.000000
 42
0.061410
  0
VERTEX
  8
4_ANYTOOL_CUTTHROUGH_OUTSI
 10
319.190427
 20
370.290268
 30
0.000000
  0
VERTEX
  8
4_ANYTOOL_CUTTHROUGH_OUTSI
 10
336.085960
 20
322.017726
 30
0.000000
 42
-0.084368
  0
VERTEX
  8
4_ANYTOOL_CUTTHROUGH_OUTSI
 10
336.099995
 20
321.935138
 30
0.000000
 42
-0.414214
  0
VERTEX
  8
4_ANYTOOL_CUTTHROUGH_OUTSI
 10
329.849995
 20
315.685138
 30
0.000000
  0
VERTEX
  8
4_ANYTOOL_CUTTHROUGH_OUTSI
 10
251.849995
 20
315.685138
 30
0.000000
 42
-0.414214
  0
VERTEX
  8
4_ANYTOOL_CUTTHROUGH_OUTSI
 10
245.599995
 20
321.935138
 30
0.000000
 42
-0.084368
  0
VERTEX
  8
4_ANYTOOL_CUTTHROUGH_OUTSI
 10
245.614031
 20
322.017726
 30
0.000000
  0
VERTEX
  8
4_ANYTOOL_CUTTHROUGH_OUTSI
 10
262.513144
 20
370.301333
 30
0.000000
 42
0.060900
  0
VERTEX
  8
4_ANYTOOL_CUTTHROUGH_OUTSI
 10
262.744189
 20
371.685138
 30
0.000000
  0
VERTEX
  8
4_ANYTOOL_CUTTHROUGH_OUTSI
 10
250.344768
 20
371.685138
 30
0.000000
 42
-0.317837
  0
VERTEX
  8
4_ANYTOOL_CUTTHROUGH_OUTSI
 10
244.452211
 20
375.851805
 30
0.000000
 42
0.317837
  0
VERTEX
  8
4_ANYTOOL_CUTTHROUGH_OUTSI
 10
233.374205
 20
383.685138
 30
0.000000
 42
0.317837
  0
VERTEX
  8
4_ANYTOOL_CUTTHROUGH_OUTSI
 10
222.296199
 20
375.851805
 30
0.000000
 42
-0.317837
  0
VERTEX
  8
4_ANYTOOL_CUTTHROUGH_OUTSI
 10
216.403737
 20
371.685138
 30
0.000000
  0
VERTEX
  8
4_ANYTOOL_CUTTHROUGH_OUTSI
 10
203.750122
 20
371.675566
 30
0.000000
  0
VERTEX
  8
4_ANYTOOL_CUTTHROUGH_OUTSI
 10
150.999114
 20
371.661898
 30
0.000000
  0
VERTEX
  8
4_ANYTOOL_CUTTHROUGH_OUTSI
 10
151.000000
 20
365.919125
 30
0.000000
 42
-0.414259
  0
VERTEX
  8
4_ANYTOOL_CUTTHROUGH_OUTSI
 10
150.750000
 20
365.669087
 30
0.000000
  0
VERTEX
  8
4_ANYTOOL_CUTTHROUGH_OUTSI
 10
138.750000
 20
365.669087
 30
0.000000
 42
-0.414214
  0
VERTEX
  8
4_ANYTOOL_CUTTHROUGH_OUTSI
 10
138.500000
 20
365.919087
 30
0.000000
  0
VERTEX
  8
4_ANYTOOL_CUTTHROUGH_OUTSI
 10
138.500000
 20
389.685138
 30
0.000000
  0
VERTEX
  8
4_ANYTOOL_CUTTHROUGH_OUTSI
 10
104.000000
 20
389.685138
 30
0.000000
  0
VERTEX
  8
4_ANYTOOL_CUTTHROUGH_OUTSI
 10
104.000000
 20
365.919087
 30
0.000000
 42
-0.414214
  0
VERTEX
  8
4_ANYTOOL_CUTTHROUGH_OUTSI
 10
103.750000
 20
365.669087
 30
0.000000
  0
VERTEX
  8
4_ANYTOOL_CUTTHROUGH_OUTSI
 10
91.750000
 20
365.669087
 30
0.000000
 42
-0.414259
  0
VERTEX
  8
4_ANYTOOL_CUTTHROUGH_OUTSI
 10
91.500000
 20
365.919125
 30
0.000000
  0
VERTEX
  8
4_ANYTOOL_CUTTHROUGH_OUTSI
 10
91.500888
 20
371.670947
 30
0.000000
  0
VERTEX
  8
4_ANYTOOL_CUTTHROUGH_OUTSI
 10
78.087112
 20
371.671394
 30
0.000000
  0
VERTEX
  8
4_ANYTOOL_CUTTHROUGH_OUTSI
 10
78.088000
 20
365.919125
 30
0.000000
 42
-0.414259
  0
VERTEX
  8
4_ANYTOOL_CUTTHROUGH_OUTSI
 10
77.838000
 20
365.669087
 30
0.000000
  0
VERTEX
  8
4_ANYTOOL_CUTTHROUGH_OUTSI
 10
65.838000
 20
365.669087
 30
0.000000
 42
-0.414214
  0
VERTEX
  8
4_ANYTOOL_CUTTHROUGH_OUTSI
 10
65.588000
 20
365.919087
 30
0.000000
  0
VERTEX
  8
4_ANYTOOL_CUTTHROUGH_OUTSI
 10
65.588000
 20
389.685138
 30
0.000000
  0
VERTEX
  8
4_ANYTOOL_CUTTHROUGH_OUTSI
 10
34.000000
 20
389.685138
 30
0.000000
  0
VERTEX
  8
4_ANYTOOL_CUTTHROUGH_OUTSI
 10
34.000000
 20
365.919087
 30
0.000000
 42
-0.414214
  0
VERTEX
  8
4_ANYTOOL_CUTTHROUGH_OUTSI
 10
33.750000
 20
365.669087
 30
0.000000
  0
VERTEX
  8
4_ANYTOOL_CUTTHROUGH_OUTSI
 10
21.750000
 20
365.669087
 30
0.000000
 42
-0.414257
  0
VERTEX
  8
4_ANYTOOL_CUTTHROUGH_OUTSI
 10
21.500000
 20
365.919124
 30
0.000000
  0
VERTEX
  8
4_ANYTOOL_CUTTHROUGH_OUTSI
 10
21.500853
 20
371.681781
 30
0.000000
  0
VERTEX
  8
4_ANYTOOL_CUTTHROUGH_OUTSI
 10
0.000000
 20
371.685100
 30
0.000000
  0
VERTEX
  8
4_ANYTOOL_CUTTHROUGH_OUTSI
 10
0.000000
 20
371.109260
 30
0.000000
  0
VERTEX
  8
4_ANYTOOL_CUTTHROUGH_OUTSI
 10
0.114928
 20
172.728683
 30
0.000000
  0
VERTEX
  8
4_ANYTOOL_CUTTHROUGH_OUTSI
 10
23.865073
 20
172.728683
 30
0.000000
 42
-0.414214
  0
VERTEX
  8
4_ANYTOOL_CUTTHROUGH_OUTSI
 10
24.115073
 20
172.478683
 30
0.000000
  0
VERTEX
  8
4_ANYTOOL_CUTTHROUGH_OUTSI
 10
24.115073
 20
160.478683
 30
0.000000
 42
-0.414214
  0
VERTEX
  8
4_ANYTOOL_CUTTHROUGH_OUTSI
 10
23.865073
 20
160.228683
 30
0.000000
  0
VERTEX
  8
4_ANYTOOL_CUTTHROUGH_OUTSI
 10
18.115073
 20
160.228683
 30
0.000000
  0
VERTEX
  8
4_ANYTOOL_CUTTHROUGH_OUTSI
 10
18.115073
 20
149.728683
 30
0.000000
  0
VERTEX
  8
4_ANYTOOL_CUTTHROUGH_OUTSI
 10
23.865073
 20
149.728683
 30
0.000000
 42
-0.414214
  0
VERTEX
  8
4_ANYTOOL_CUTTHROUGH_OUTSI
 10
24.115073
 20
149.478683
 30
0.000000
  0
VERTEX
  8
4_ANYTOOL_CUTTHROUGH_OUTSI
 10
24.115073
 20
137.478683
 30
0.000000
 42
-0.414214
  0
VERTEX
  8
4_ANYTOOL_CUTTHROUGH_OUTSI
 10
23.865073
 20
137.228683
 30
0.000000
  0
VERTEX
  8
4_ANYTOOL_CUTTHROUGH_OUTSI
 10
0.165044
 20
137.228683
 30
0.000000
  0
VERTEX
  8
4_ANYTOOL_CUTTHROUGH_OUTSI
 10
0.313999
 20
42.844841
 30
0.000000
  0
SEQEND
  8
4_ANYTOOL_CUTTHROUGH_OUTSI
  0
ENDSEC
  0
EOF
