  0
SECTION
  2
HEADER
  9
$ACADVER
  1
AC1009
  9
$INSBASE
 10
0.000000
 20
0.000000
 30
0.000000
  9
$EXTMIN
 10
0.000000
 20
0.000000
 30
0.000000
  9
$EXTMAX
 10
599.500000
 20
185.500000
 30
0.000000
  0
ENDSEC
  0
SECTION
  2
TABLES
  0
TABLE
  2
LTYPE
 70
1
  0
LTYPE
  2
CONTINUOUS
 70
0
  3
Solid line
 72
65
 73
0
 40
0.000000
  0
ENDTAB
  0
TABLE
  2
LAYER
 70
4
  0
LAYER
  2
0
 70
0
 62
7
  6
CONTINUOUS
  0
LAYER
  2
1_ANYTOOL_1MMDEEP_LABELS_S
 70
0
 62
2
  6
CONTINUOUS
  0
LAYER
  2
3_ANYTOOL_CUTTHROUGH_INSID
 70
0
 62
4
  6
CONTINUOUS
  0
LAYER
  2
4_ANYTOOL_CUTTHROUGH_OUTSI
 70
0
 62
5
  6
CONTINUOUS
  0
ENDTAB
  0
ENDSEC
  0
SECTION
  2
ENTITIES
  0
LINE
  8
1_ANYTOOL_1MMDEEP_LABELS_S
 10
388.100000
 20
94.228572
 30
0.000000
 11
373.614286
 21
94.228572
 31
0.000000
  0
POLYLINE
  8
1_ANYTOOL_1MMDEEP_LABELS_S
 66
1
 10
0.000000
 20
0.000000
 30
0.000000
 70
0
  0
VERTEX
  8
1_ANYTOOL_1MMDEEP_LABELS_S
 10
391.271429
 20
108.200000
 30
0.000000
  0
VERTEX
  8
1_ANYTOOL_1MMDEEP_LABELS_S
 10
373.614286
 20
108.200000
 30
0.000000
  0
VERTEX
  8
1_ANYTOOL_1MMDEEP_LABELS_S
 10
373.614286
 20
78.200000
 30
0.000000
  0
SEQEND
  8
1_ANYTOOL_1MMDEEP_LABELS_S
  0
LINE
  8
1_ANYTOOL_1MMDEEP_LABELS_S
 10
370.014286
 20
107.728572
 30
0.000000
 11
352.828572
 21
76.957143
 31
0.000000
  0
POLYLINE
  8
1_ANYTOOL_1MMDEEP_LABELS_S
 66
1
 10
0.000000
 20
0.000000
 30
0.000000
 70
0
  0
VERTEX
  8
1_ANYTOOL_1MMDEEP_LABELS_S
 10
332.471429
 20
103.271429
 30
0.000000
 42
-0.060092
  0
VERTEX
  8
1_ANYTOOL_1MMDEEP_LABELS_S
 10
333.859646
 20
105.357562
 30
0.000000
 42
-0.080583
  0
VERTEX
  8
1_ANYTOOL_1MMDEEP_LABELS_S
 10
335.760714
 20
106.967858
 30
0.000000
 42
-0.079919
  0
VERTEX
  8
1_ANYTOOL_1MMDEEP_LABELS_S
 10
338.116780
 20
107.915623
 30
0.000000
 42
-0.055798
  0
VERTEX
  8
1_ANYTOOL_1MMDEEP_LABELS_S
 10
340.657143
 20
108.200000
 30
0.000000
 42
-0.035013
  0
VERTEX
  8
1_ANYTOOL_1MMDEEP_LABELS_S
 10
342.213043
 20
108.090913
 30
0.000000
 42
-0.047512
  0
VERTEX
  8
1_ANYTOOL_1MMDEEP_LABELS_S
 10
343.726786
 20
107.728572
 30
0.000000
 42
-0.048382
  0
VERTEX
  8
1_ANYTOOL_1MMDEEP_LABELS_S
 10
345.016211
 20
107.142532
 30
0.000000
 42
-0.050886
  0
VERTEX
  8
1_ANYTOOL_1MMDEEP_LABELS_S
 10
346.164286
 20
106.314286
 30
0.000000
 42
-0.060051
  0
VERTEX
  8
1_ANYTOOL_1MMDEEP_LABELS_S
 10
347.090190
 20
105.267498
 30
0.000000
 42
-0.058597
  0
VERTEX
  8
1_ANYTOOL_1MMDEEP_LABELS_S
 10
347.744643
 20
104.032143
 30
0.000000
 42
-0.056917
  0
VERTEX
  8
1_ANYTOOL_1MMDEEP_LABELS_S
 10
348.140773
 20
102.521228
 30
0.000000
 42
-0.038780
  0
VERTEX
  8
1_ANYTOOL_1MMDEEP_LABELS_S
 10
348.242857
 20
100.957143
 30
0.000000
 42
-0.025440
  0
VERTEX
  8
1_ANYTOOL_1MMDEEP_LABELS_S
 10
348.179842
 20
99.719426
 30
0.000000
 42
-0.041152
  0
VERTEX
  8
1_ANYTOOL_1MMDEEP_LABELS_S
 10
347.953572
 20
98.503572
 30
0.000000
 42
-0.042175
  0
VERTEX
  8
1_ANYTOOL_1MMDEEP_LABELS_S
 10
347.609758
 20
97.563301
 30
0.000000
 42
-0.059142
  0
VERTEX
  8
1_ANYTOOL_1MMDEEP_LABELS_S
 10
347.085714
 20
96.714286
 30
0.000000
 42
-0.068767
  0
VERTEX
  8
1_ANYTOOL_1MMDEEP_LABELS_S
 10
345.795018
 20
95.481791
 30
0.000000
 42
-0.072211
  0
VERTEX
  8
1_ANYTOOL_1MMDEEP_LABELS_S
 10
344.214286
 20
94.657143
 30
0.000000
 42
-0.043093
  0
VERTEX
  8
1_ANYTOOL_1MMDEEP_LABELS_S
 10
342.387174
 20
94.189550
 30
0.000000
 42
-0.035742
  0
VERTEX
  8
1_ANYTOOL_1MMDEEP_LABELS_S
 10
340.507143
 20
94.014286
 30
0.000000
 42
-0.002283
  0
VERTEX
  8
1_ANYTOOL_1MMDEEP_LABELS_S
 10
338.653679
 20
93.982893
 30
0.000000
 42
-0.003092
  0
VERTEX
  8
1_ANYTOOL_1MMDEEP_LABELS_S
 10
336.800000
 20
93.971429
 30
0.000000
  0
SEQEND
  8
1_ANYTOOL_1MMDEEP_LABELS_S
  0
POLYLINE
  8
1_ANYTOOL_1MMDEEP_LABELS_S
 66
1
 10
0.000000
 20
0.000000
 30
0.000000
 70
0
  0
VERTEX
  8
1_ANYTOOL_1MMDEEP_LABELS_S
 10
339.585714
 20
93.971429
 30
0.000000
 42
-0.052004
  0
VERTEX
  8
1_ANYTOOL_1MMDEEP_LABELS_S
 10
342.918797
 20
93.458626
 30
0.000000
 42
-0.057563
  0
VERTEX
  8
1_ANYTOOL_1MMDEEP_LABELS_S
 10
346.057143
 20
92.235715
 30
0.000000
 42
-0.070633
  0
VERTEX
  8
1_ANYTOOL_1MMDEEP_LABELS_S
 10
347.331679
 20
91.311111
 30
0.000000
 42
-0.079113
  0
VERTEX
  8
1_ANYTOOL_1MMDEEP_LABELS_S
 10
348.275000
 20
90.055358
 30
0.000000
 42
-0.075641
  0
VERTEX
  8
1_ANYTOOL_1MMDEEP_LABELS_S
 10
348.851788
 20
88.400499
 30
0.000000
 42
-0.046128
  0
VERTEX
  8
1_ANYTOOL_1MMDEEP_LABELS_S
 10
349.014286
 20
86.642858
 30
0.000000
 42
-0.033924
  0
VERTEX
  8
1_ANYTOOL_1MMDEEP_LABELS_S
 10
348.880689
 20
84.676083
 30
0.000000
 42
-0.057836
  0
VERTEX
  8
1_ANYTOOL_1MMDEEP_LABELS_S
 10
348.392857
 20
82.775000
 30
0.000000
 42
-0.060832
  0
VERTEX
  8
1_ANYTOOL_1MMDEEP_LABELS_S
 10
347.633880
 20
81.346026
 30
0.000000
 42
-0.072757
  0
VERTEX
  8
1_ANYTOOL_1MMDEEP_LABELS_S
 10
346.528572
 20
80.171429
 30
0.000000
 42
-0.053580
  0
VERTEX
  8
1_ANYTOOL_1MMDEEP_LABELS_S
 10
345.133980
 20
79.290347
 30
0.000000
 42
-0.043301
  0
VERTEX
  8
1_ANYTOOL_1MMDEEP_LABELS_S
 10
343.592857
 20
78.692858
 30
0.000000
 42
-0.042335
  0
VERTEX
  8
1_ANYTOOL_1MMDEEP_LABELS_S
 10
341.694369
 20
78.310608
 30
0.000000
 42
-0.028525
  0
VERTEX
  8
1_ANYTOOL_1MMDEEP_LABELS_S
 10
339.757143
 20
78.200000
 30
0.000000
 42
-0.059964
  0
VERTEX
  8
1_ANYTOOL_1MMDEEP_LABELS_S
 10
337.045642
 20
78.526358
 30
0.000000
 42
-0.089395
  0
VERTEX
  8
1_ANYTOOL_1MMDEEP_LABELS_S
 10
334.571429
 20
79.625000
 30
0.000000
 42
-0.089624
  0
VERTEX
  8
1_ANYTOOL_1MMDEEP_LABELS_S
 10
332.647261
 20
81.509447
 30
0.000000
 42
-0.061164
  0
VERTEX
  8
1_ANYTOOL_1MMDEEP_LABELS_S
 10
331.357143
 20
83.900000
 30
0.000000
  0
SEQEND
  8
1_ANYTOOL_1MMDEEP_LABELS_S
  0
LINE
  8
1_ANYTOOL_1MMDEEP_LABELS_S
 10
327.500000
 20
92.085715
 30
0.000000
 11
318.714286
 21
92.000000
 31
0.000000
  0
POLYLINE
  8
1_ANYTOOL_1MMDEEP_LABELS_S
 66
1
 10
0.000000
 20
0.000000
 30
0.000000
 70
0
  0
VERTEX
  8
1_ANYTOOL_1MMDEEP_LABELS_S
 10
297.757143
 20
108.200000
 30
0.000000
  0
VERTEX
  8
1_ANYTOOL_1MMDEEP_LABELS_S
 10
297.757143
 20
78.200000
 30
0.000000
  0
VERTEX
  8
1_ANYTOOL_1MMDEEP_LABELS_S
 10
314.857143
 20
78.200000
 30
0.000000
  0
SEQEND
  8
1_ANYTOOL_1MMDEEP_LABELS_S
  0
LINE
  8
1_ANYTOOL_1MMDEEP_LABELS_S
 10
292.614286
 20
92.085715
 30
0.000000
 11
283.828572
 21
92.000000
 31
0.000000
  0
POLYLINE
  8
1_ANYTOOL_1MMDEEP_LABELS_S
 66
1
 10
0.000000
 20
0.000000
 30
0.000000
 70
1
  0
VERTEX
  8
1_ANYTOOL_1MMDEEP_LABELS_S
 10
268.657143
 20
108.542858
 30
0.000000
 42
-0.064784
  0
VERTEX
  8
1_ANYTOOL_1MMDEEP_LABELS_S
 10
271.331098
 20
108.194936
 30
0.000000
 42
-0.088904
  0
VERTEX
  8
1_ANYTOOL_1MMDEEP_LABELS_S
 10
273.757143
 20
107.064286
 30
0.000000
 42
-0.054190
  0
VERTEX
  8
1_ANYTOOL_1MMDEEP_LABELS_S
 10
275.679708
 20
105.372156
 30
0.000000
 42
-0.051179
  0
VERTEX
  8
1_ANYTOOL_1MMDEEP_LABELS_S
 10
277.207143
 20
103.314286
 30
0.000000
 42
-0.041653
  0
VERTEX
  8
1_ANYTOOL_1MMDEEP_LABELS_S
 10
278.389342
 20
100.885514
 30
0.000000
 42
-0.036749
  0
VERTEX
  8
1_ANYTOOL_1MMDEEP_LABELS_S
 10
279.178572
 20
98.300000
 30
0.000000
 42
-0.024892
  0
VERTEX
  8
1_ANYTOOL_1MMDEEP_LABELS_S
 10
279.636351
 20
95.680737
 30
0.000000
 42
-0.030823
  0
VERTEX
  8
1_ANYTOOL_1MMDEEP_LABELS_S
 10
279.800000
 20
93.028572
 30
0.000000
 42
-0.034269
  0
VERTEX
  8
1_ANYTOOL_1MMDEEP_LABELS_S
 10
279.623480
 20
90.456075
 30
0.000000
 42
-0.031918
  0
VERTEX
  8
1_ANYTOOL_1MMDEEP_LABELS_S
 10
279.108929
 20
87.928572
 30
0.000000
 42
-0.031725
  0
VERTEX
  8
1_ANYTOOL_1MMDEEP_LABELS_S
 10
278.220742
 20
85.319175
 30
0.000000
 42
-0.026303
  0
VERTEX
  8
1_ANYTOOL_1MMDEEP_LABELS_S
 10
277.035714
 20
82.828572
 30
0.000000
 42
-0.058719
  0
VERTEX
  8
1_ANYTOOL_1MMDEEP_LABELS_S
 10
275.511934
 20
80.666824
 30
0.000000
 42
-0.077745
  0
VERTEX
  8
1_ANYTOOL_1MMDEEP_LABELS_S
 10
273.473214
 20
79.003572
 30
0.000000
 42
-0.077243
  0
VERTEX
  8
1_ANYTOOL_1MMDEEP_LABELS_S
 10
270.986226
 20
78.024734
 30
0.000000
 42
-0.055252
  0
VERTEX
  8
1_ANYTOOL_1MMDEEP_LABELS_S
 10
268.314286
 20
77.728572
 30
0.000000
 42
-0.054051
  0
VERTEX
  8
1_ANYTOOL_1MMDEEP_LABELS_S
 10
265.560361
 20
78.027151
 30
0.000000
 42
-0.077615
  0
VERTEX
  8
1_ANYTOOL_1MMDEEP_LABELS_S
 10
262.994643
 20
79.025000
 30
0.000000
 42
-0.078558
  0
VERTEX
  8
1_ANYTOOL_1MMDEEP_LABELS_S
 10
260.919570
 20
80.712074
 30
0.000000
 42
-0.060481
  0
VERTEX
  8
1_ANYTOOL_1MMDEEP_LABELS_S
 10
259.378572
 20
82.914286
 30
0.000000
 42
-0.026290
  0
VERTEX
  8
1_ANYTOOL_1MMDEEP_LABELS_S
 10
258.191911
 20
85.453505
 30
0.000000
 42
-0.031299
  0
VERTEX
  8
1_ANYTOOL_1MMDEEP_LABELS_S
 10
257.305357
 20
88.110715
 30
0.000000
 42
-0.031469
  0
VERTEX
  8
1_ANYTOOL_1MMDEEP_LABELS_S
 10
256.790319
 20
90.697530
 30
0.000000
 42
-0.033416
  0
VERTEX
  8
1_ANYTOOL_1MMDEEP_LABELS_S
 10
256.614286
 20
93.328572
 30
0.000000
 42
-0.032847
  0
VERTEX
  8
1_ANYTOOL_1MMDEEP_LABELS_S
 10
256.792964
 20
96.045520
 30
0.000000
 42
-0.035049
  0
VERTEX
  8
1_ANYTOOL_1MMDEEP_LABELS_S
 10
257.337500
 20
98.712500
 30
0.000000
 42
-0.035030
  0
VERTEX
  8
1_ANYTOOL_1MMDEEP_LABELS_S
 10
258.253474
 20
101.289539
 30
0.000000
 42
-0.032231
  0
VERTEX
  8
1_ANYTOOL_1MMDEEP_LABELS_S
 10
259.507143
 20
103.721429
 30
0.000000
 42
-0.062518
  0
VERTEX
  8
1_ANYTOOL_1MMDEEP_LABELS_S
 10
261.129032
 20
105.788523
 30
0.000000
 42
-0.074052
  0
VERTEX
  8
1_ANYTOOL_1MMDEEP_LABELS_S
 10
263.241072
 20
107.337500
 30
0.000000
 42
-0.072322
  0
VERTEX
  8
1_ANYTOOL_1MMDEEP_LABELS_S
 10
265.867925
 20
108.268391
 30
0.000000
 42
-0.049083
  0
SEQEND
  8
1_ANYTOOL_1MMDEEP_LABELS_S
  0
LINE
  8
1_ANYTOOL_1MMDEEP_LABELS_S
 10
252.585714
 20
92.085715
 30
0.000000
 11
243.800000
 21
92.000000
 31
0.000000
  0
POLYLINE
  8
1_ANYTOOL_1MMDEEP_LABELS_S
 66
1
 10
0.000000
 20
0.000000
 30
0.000000
 70
0
  0
VERTEX
  8
1_ANYTOOL_1MMDEEP_LABELS_S
 10
208.228572
 20
108.200000
 30
0.000000
  0
VERTEX
  8
1_ANYTOOL_1MMDEEP_LABELS_S
 10
215.942857
 20
78.200000
 30
0.000000
  0
VERTEX
  8
1_ANYTOOL_1MMDEEP_LABELS_S
 10
224.385714
 20
107.300000
 30
0.000000
  0
VERTEX
  8
1_ANYTOOL_1MMDEEP_LABELS_S
 10
232.871429
 20
78.200000
 30
0.000000
  0
VERTEX
  8
1_ANYTOOL_1MMDEEP_LABELS_S
 10
240.371429
 20
108.200000
 30
0.000000
  0
SEQEND
  8
1_ANYTOOL_1MMDEEP_LABELS_S
  0
POLYLINE
  8
3_ANYTOOL_CUTTHROUGH_INSID
 66
1
 10
0.000000
 20
0.000000
 30
0.000000
 70
1
  0
VERTEX
  8
3_ANYTOOL_CUTTHROUGH_INSID
 10
383.750000
 20
167.500000
 30
0.000000
  0
VERTEX
  8
3_ANYTOOL_CUTTHROUGH_INSID
 10
423.750000
 20
167.500000
 30
0.000000
 42
1.000000
  0
VERTEX
  8
3_ANYTOOL_CUTTHROUGH_INSID
 10
423.750000
 20
177.000000
 30
0.000000
  0
VERTEX
  8
3_ANYTOOL_CUTTHROUGH_INSID
 10
383.750000
 20
177.000000
 30
0.000000
 42
1.000000
  0
SEQEND
  8
3_ANYTOOL_CUTTHROUGH_INSID
  0
POLYLINE
  8
3_ANYTOOL_CUTTHROUGH_INSID
 66
1
 10
0.000000
 20
0.000000
 30
0.000000
 70
1
  0
VERTEX
  8
3_ANYTOOL_CUTTHROUGH_INSID
 10
175.750000
 20
167.500000
 30
0.000000
  0
VERTEX
  8
3_ANYTOOL_CUTTHROUGH_INSID
 10
215.750000
 20
167.500000
 30
0.000000
 42
1.000000
  0
VERTEX
  8
3_ANYTOOL_CUTTHROUGH_INSID
 10
215.750000
 20
177.000000
 30
0.000000
  0
VERTEX
  8
3_ANYTOOL_CUTTHROUGH_INSID
 10
175.750000
 20
177.000000
 30
0.000000
 42
1.000000
  0
SEQEND
  8
3_ANYTOOL_CUTTHROUGH_INSID
  0
POLYLINE
  8
3_ANYTOOL_CUTTHROUGH_INSID
 66
1
 10
0.000000
 20
0.000000
 30
0.000000
 70
1
  0
VERTEX
  8
3_ANYTOOL_CUTTHROUGH_INSID
 10
383.750000
 20
18.000000
 30
0.000000
 42
1.000000
  0
VERTEX
  8
3_ANYTOOL_CUTTHROUGH_INSID
 10
383.750000
 20
8.500000
 30
0.000000
  0
VERTEX
  8
3_ANYTOOL_CUTTHROUGH_INSID
 10
423.750000
 20
8.500000
 30
0.000000
 42
1.000000
  0
VERTEX
  8
3_ANYTOOL_CUTTHROUGH_INSID
 10
423.750000
 20
18.000000
 30
0.000000
  0
SEQEND
  8
3_ANYTOOL_CUTTHROUGH_INSID
  0
POLYLINE
  8
3_ANYTOOL_CUTTHROUGH_INSID
 66
1
 10
0.000000
 20
0.000000
 30
0.000000
 70
1
  0
VERTEX
  8
3_ANYTOOL_CUTTHROUGH_INSID
 10
175.750000
 20
18.000000
 30
0.000000
 42
1.000000
  0
VERTEX
  8
3_ANYTOOL_CUTTHROUGH_INSID
 10
175.750000
 20
8.500000
 30
0.000000
  0
VERTEX
  8
3_ANYTOOL_CUTTHROUGH_INSID
 10
215.750000
 20
8.500000
 30
0.000000
 42
0.414214
  0
VERTEX
  8
3_ANYTOOL_CUTTHROUGH_INSID
 10
220.500000
 20
13.250000
 30
0.000000
 42
0.414214
  0
VERTEX
  8
3_ANYTOOL_CUTTHROUGH_INSID
 10
215.750000
 20
18.000000
 30
0.000000
  0
SEQEND
  8
3_ANYTOOL_CUTTHROUGH_INSID
  0
POLYLINE
  8
4_ANYTOOL_CUTTHROUGH_OUTSI
 66
1
 10
0.000000
 20
0.000000
 30
0.000000
 70
1
  0
VERTEX
  8
4_ANYTOOL_CUTTHROUGH_OUTSI
 10
0.000000
 20
56.000000
 30
0.000000
  0
VERTEX
  8
4_ANYTOOL_CUTTHROUGH_OUTSI
 10
41.750000
 20
56.000000
 30
0.000000
 42
-0.414214
  0
VERTEX
  8
4_ANYTOOL_CUTTHROUGH_OUTSI
 10
42.000000
 20
55.750000
 30
0.000000
  0
VERTEX
  8
4_ANYTOOL_CUTTHROUGH_OUTSI
 10
42.000000
 20
43.750000
 30
0.000000
 42
-0.414214
  0
VERTEX
  8
4_ANYTOOL_CUTTHROUGH_OUTSI
 10
41.750000
 20
43.500000
 30
0.000000
  0
VERTEX
  8
4_ANYTOOL_CUTTHROUGH_OUTSI
 10
36.000000
 20
43.500000
 30
0.000000
  0
VERTEX
  8
4_ANYTOOL_CUTTHROUGH_OUTSI
 10
36.000000
 20
18.000000
 30
0.000000
  0
VERTEX
  8
4_ANYTOOL_CUTTHROUGH_OUTSI
 10
129.500000
 20
18.000000
 30
0.000000
  0
VERTEX
  8
4_ANYTOOL_CUTTHROUGH_OUTSI
 10
129.500000
 20
23.750000
 30
0.000000
 42
-0.414214
  0
VERTEX
  8
4_ANYTOOL_CUTTHROUGH_OUTSI
 10
129.750000
 20
24.000000
 30
0.000000
  0
VERTEX
  8
4_ANYTOOL_CUTTHROUGH_OUTSI
 10
141.750000
 20
24.000000
 30
0.000000
 42
-0.414214
  0
VERTEX
  8
4_ANYTOOL_CUTTHROUGH_OUTSI
 10
142.000000
 20
23.750000
 30
0.000000
  0
VERTEX
  8
4_ANYTOOL_CUTTHROUGH_OUTSI
 10
142.000000
 20
0.000000
 30
0.000000
  0
VERTEX
  8
4_ANYTOOL_CUTTHROUGH_OUTSI
 10
249.500000
 20
0.000000
 30
0.000000
  0
VERTEX
  8
4_ANYTOOL_CUTTHROUGH_OUTSI
 10
249.500000
 20
23.750000
 30
0.000000
 42
-0.414214
  0
VERTEX
  8
4_ANYTOOL_CUTTHROUGH_OUTSI
 10
249.750000
 20
24.000000
 30
0.000000
  0
VERTEX
  8
4_ANYTOOL_CUTTHROUGH_OUTSI
 10
261.750000
 20
24.000000
 30
0.000000
 42
-0.414214
  0
VERTEX
  8
4_ANYTOOL_CUTTHROUGH_OUTSI
 10
262.000000
 20
23.750000
 30
0.000000
  0
VERTEX
  8
4_ANYTOOL_CUTTHROUGH_OUTSI
 10
262.000000
 20
18.000000
 30
0.000000
  0
VERTEX
  8
4_ANYTOOL_CUTTHROUGH_OUTSI
 10
337.500000
 20
18.000000
 30
0.000000
  0
VERTEX
  8
4_ANYTOOL_CUTTHROUGH_OUTSI
 10
337.500000
 20
23.750000
 30
0.000000
 42
-0.414214
  0
VERTEX
  8
4_ANYTOOL_CUTTHROUGH_OUTSI
 10
337.750000
 20
24.000000
 30
0.000000
  0
VERTEX
  8
4_ANYTOOL_CUTTHROUGH_OUTSI
 10
349.750000
 20
24.000000
 30
0.000000
 42
-0.414214
  0
VERTEX
  8
4_ANYTOOL_CUTTHROUGH_OUTSI
 10
350.000000
 20
23.750000
 30
0.000000
  0
VERTEX
  8
4_ANYTOOL_CUTTHROUGH_OUTSI
 10
350.000000
 20
0.000000
 30
0.000000
  0
VERTEX
  8
4_ANYTOOL_CUTTHROUGH_OUTSI
 10
457.500000
 20
0.000000
 30
0.000000
  0
VERTEX
  8
4_ANYTOOL_CUTTHROUGH_OUTSI
 10
457.500000
 20
23.750000
 30
0.000000
 42
-0.414214
  0
VERTEX
  8
4_ANYTOOL_CUTTHROUGH_OUTSI
 10
457.750000
 20
24.000000
 30
0.000000
  0
VERTEX
  8
4_ANYTOOL_CUTTHROUGH_OUTSI
 10
469.750000
 20
24.000000
 30
0.000000
 42
-0.414214
  0
VERTEX
  8
4_ANYTOOL_CUTTHROUGH_OUTSI
 10
470.000000
 20
23.750000
 30
0.000000
  0
VERTEX
  8
4_ANYTOOL_CUTTHROUGH_OUTSI
 10
470.000000
 20
18.000000
 30
0.000000
  0
VERTEX
  8
4_ANYTOOL_CUTTHROUGH_OUTSI
 10
563.500000
 20
18.000000
 30
0.000000
  0
VERTEX
  8
4_ANYTOOL_CUTTHROUGH_OUTSI
 10
563.500000
 20
43.500000
 30
0.000000
  0
VERTEX
  8
4_ANYTOOL_CUTTHROUGH_OUTSI
 10
557.750000
 20
43.500000
 30
0.000000
 42
-0.414214
  0
VERTEX
  8
4_ANYTOOL_CUTTHROUGH_OUTSI
 10
557.500000
 20
43.750000
 30
0.000000
  0
VERTEX
  8
4_ANYTOOL_CUTTHROUGH_OUTSI
 10
557.500000
 20
55.750000
 30
0.000000
 42
-0.414214
  0
VERTEX
  8
4_ANYTOOL_CUTTHROUGH_OUTSI
 10
557.750000
 20
56.000000
 30
0.000000
  0
VERTEX
  8
4_ANYTOOL_CUTTHROUGH_OUTSI
 10
599.500000
 20
56.000000
 30
0.000000
  0
VERTEX
  8
4_ANYTOOL_CUTTHROUGH_OUTSI
 10
599.500000
 20
129.500000
 30
0.000000
  0
VERTEX
  8
4_ANYTOOL_CUTTHROUGH_OUTSI
 10
557.750000
 20
129.500000
 30
0.000000
 42
-0.414214
  0
VERTEX
  8
4_ANYTOOL_CUTTHROUGH_OUTSI
 10
557.500000
 20
129.750000
 30
0.000000
  0
VERTEX
  8
4_ANYTOOL_CUTTHROUGH_OUTSI
 10
557.500000
 20
141.750000
 30
0.000000
 42
-0.414214
  0
VERTEX
  8
4_ANYTOOL_CUTTHROUGH_OUTSI
 10
557.750000
 20
142.000000
 30
0.000000
  0
VERTEX
  8
4_ANYTOOL_CUTTHROUGH_OUTSI
 10
563.500000
 20
142.000000
 30
0.000000
  0
VERTEX
  8
4_ANYTOOL_CUTTHROUGH_OUTSI
 10
563.500000
 20
167.500000
 30
0.000000
  0
VERTEX
  8
4_ANYTOOL_CUTTHROUGH_OUTSI
 10
470.000000
 20
167.500000
 30
0.000000
  0
VERTEX
  8
4_ANYTOOL_CUTTHROUGH_OUTSI
 10
470.000000
 20
161.750000
 30
0.000000
 42
-0.414214
  0
VERTEX
  8
4_ANYTOOL_CUTTHROUGH_OUTSI
 10
469.750000
 20
161.500000
 30
0.000000
  0
VERTEX
  8
4_ANYTOOL_CUTTHROUGH_OUTSI
 10
457.750000
 20
161.500000
 30
0.000000
 42
-0.414214
  0
VERTEX
  8
4_ANYTOOL_CUTTHROUGH_OUTSI
 10
457.500000
 20
161.750000
 30
0.000000
  0
VERTEX
  8
4_ANYTOOL_CUTTHROUGH_OUTSI
 10
457.500000
 20
185.500000
 30
0.000000
  0
VERTEX
  8
4_ANYTOOL_CUTTHROUGH_OUTSI
 10
350.000000
 20
185.500000
 30
0.000000
  0
VERTEX
  8
4_ANYTOOL_CUTTHROUGH_OUTSI
 10
350.000000
 20
161.750000
 30
0.000000
 42
-0.414214
  0
VERTEX
  8
4_ANYTOOL_CUTTHROUGH_OUTSI
 10
349.750000
 20
161.500000
 30
0.000000
  0
VERTEX
  8
4_ANYTOOL_CUTTHROUGH_OUTSI
 10
337.750000
 20
161.500000
 30
0.000000
 42
-0.414214
  0
VERTEX
  8
4_ANYTOOL_CUTTHROUGH_OUTSI
 10
337.500000
 20
161.750000
 30
0.000000
  0
VERTEX
  8
4_ANYTOOL_CUTTHROUGH_OUTSI
 10
337.500000
 20
167.500000
 30
0.000000
  0
VERTEX
  8
4_ANYTOOL_CUTTHROUGH_OUTSI
 10
262.000000
 20
167.500000
 30
0.000000
  0
VERTEX
  8
4_ANYTOOL_CUTTHROUGH_OUTSI
 10
262.000000
 20
161.750000
 30
0.000000
 42
-0.414214
  0
VERTEX
  8
4_ANYTOOL_CUTTHROUGH_OUTSI
 10
261.750000
 20
161.500000
 30
0.000000
  0
VERTEX
  8
4_ANYTOOL_CUTTHROUGH_OUTSI
 10
249.750000
 20
161.500000
 30
0.000000
 42
-0.414214
  0
VERTEX
  8
4_ANYTOOL_CUTTHROUGH_OUTSI
 10
249.500000
 20
161.750000
 30
0.000000
  0
VERTEX
  8
4_ANYTOOL_CUTTHROUGH_OUTSI
 10
249.500000
 20
185.500000
 30
0.000000
  0
VERTEX
  8
4_ANYTOOL_CUTTHROUGH_OUTSI
 10
142.000000
 20
185.500000
 30
0.000000
  0
VERTEX
  8
4_ANYTOOL_CUTTHROUGH_OUTSI
 10
142.000000
 20
161.750000
 30
0.000000
 42
-0.414214
  0
VERTEX
  8
4_ANYTOOL_CUTTHROUGH_OUTSI
 10
141.750000
 20
161.500000
 30
0.000000
  0
VERTEX
  8
4_ANYTOOL_CUTTHROUGH_OUTSI
 10
129.750000
 20
161.500000
 30
0.000000
 42
-0.414214
  0
VERTEX
  8
4_ANYTOOL_CUTTHROUGH_OUTSI
 10
129.500000
 20
161.750000
 30
0.000000
  0
VERTEX
  8
4_ANYTOOL_CUTTHROUGH_OUTSI
 10
129.500000
 20
167.500000
 30
0.000000
  0
VERTEX
  8
4_ANYTOOL_CUTTHROUGH_OUTSI
 10
36.000000
 20
167.500000
 30
0.000000
  0
VERTEX
  8
4_ANYTOOL_CUTTHROUGH_OUTSI
 10
36.000000
 20
142.000000
 30
0.000000
  0
VERTEX
  8
4_ANYTOOL_CUTTHROUGH_OUTSI
 10
41.750000
 20
142.000000
 30
0.000000
 42
-0.414214
  0
VERTEX
  8
4_ANYTOOL_CUTTHROUGH_OUTSI
 10
42.000000
 20
141.750000
 30
0.000000
  0
VERTEX
  8
4_ANYTOOL_CUTTHROUGH_OUTSI
 10
42.000000
 20
129.750000
 30
0.000000
 42
-0.414214
  0
VERTEX
  8
4_ANYTOOL_CUTTHROUGH_OUTSI
 10
41.750000
 20
129.500000
 30
0.000000
  0
VERTEX
  8
4_ANYTOOL_CUTTHROUGH_OUTSI
 10
0.000000
 20
129.500000
 30
0.000000
  0
SEQEND
  8
4_ANYTOOL_CUTTHROUGH_OUTSI
  0
ENDSEC
  0
EOF
