  0
SECTION
  2
HEADER
  9
$ACADVER
  1
AC1009
  9
$INSBASE
 10
0.000000
 20
0.000000
 30
0.000000
  9
$EXTMIN
 10
0.000000
 20
0.000000
 30
0.000000
  9
$EXTMAX
 10
1667.500000
 20
185.500000
 30
0.000000
  0
ENDSEC
  0
SECTION
  2
TABLES
  0
TABLE
  2
LTYPE
 70
1
  0
LTYPE
  2
CONTINUOUS
 70
0
  3
Solid line
 72
65
 73
0
 40
0.000000
  0
ENDTAB
  0
TABLE
  2
LAYER
 70
4
  0
LAYER
  2
0
 70
0
 62
7
  6
CONTINUOUS
  0
LAYER
  2
1_ANYTOOL_1MMDEEP_LABELS_S
 70
0
 62
2
  6
CONTINUOUS
  0
LAYER
  2
3_ANYTOOL_CUTTHROUGH_INSID
 70
0
 62
4
  6
CONTINUOUS
  0
LAYER
  2
4_ANYTOOL_CUTTHROUGH_OUTSI
 70
0
 62
5
  6
CONTINUOUS
  0
ENDTAB
  0
ENDSEC
  0
SECTION
  2
ENTITIES
  0
POLYLINE
  8
1_ANYTOOL_1MMDEEP_LABELS_S
 66
1
 10
0.000000
 20
0.000000
 30
0.000000
 70
0
  0
VERTEX
  8
1_ANYTOOL_1MMDEEP_LABELS_S
 10
929.269664
 20
92.037540
 30
0.000000
  0
VERTEX
  8
1_ANYTOOL_1MMDEEP_LABELS_S
 10
939.041092
 20
91.994683
 30
0.000000
 42
-0.031732
  0
VERTEX
  8
1_ANYTOOL_1MMDEEP_LABELS_S
 10
938.772981
 20
88.987281
 30
0.000000
 42
-0.048764
  0
VERTEX
  8
1_ANYTOOL_1MMDEEP_LABELS_S
 10
938.028592
 20
86.069683
 30
0.000000
 42
-0.050291
  0
VERTEX
  8
1_ANYTOOL_1MMDEEP_LABELS_S
 10
936.918879
 20
83.759175
 30
0.000000
 42
-0.060119
  0
VERTEX
  8
1_ANYTOOL_1MMDEEP_LABELS_S
 10
935.333949
 20
81.751825
 30
0.000000
 42
-0.036578
  0
VERTEX
  8
1_ANYTOOL_1MMDEEP_LABELS_S
 10
933.601930
 20
80.265409
 30
0.000000
 42
-0.050793
  0
VERTEX
  8
1_ANYTOOL_1MMDEEP_LABELS_S
 10
931.642878
 20
79.105397
 30
0.000000
 42
-0.051881
  0
VERTEX
  8
1_ANYTOOL_1MMDEEP_LABELS_S
 10
929.689861
 20
78.437652
 30
0.000000
 42
-0.053919
  0
VERTEX
  8
1_ANYTOOL_1MMDEEP_LABELS_S
 10
927.641092
 20
78.194683
 30
0.000000
 42
-0.055881
  0
VERTEX
  8
1_ANYTOOL_1MMDEEP_LABELS_S
 10
925.605945
 20
78.401627
 30
0.000000
 42
-0.055271
  0
VERTEX
  8
1_ANYTOOL_1MMDEEP_LABELS_S
 10
923.666092
 20
79.051825
 30
0.000000
 42
-0.054030
  0
VERTEX
  8
1_ANYTOOL_1MMDEEP_LABELS_S
 10
921.740116
 20
80.211019
 30
0.000000
 42
-0.038531
  0
VERTEX
  8
1_ANYTOOL_1MMDEEP_LABELS_S
 10
920.055378
 20
81.708968
 30
0.000000
 42
-0.067281
  0
VERTEX
  8
1_ANYTOOL_1MMDEEP_LABELS_S
 10
918.507664
 20
83.819982
 30
0.000000
 42
-0.049165
  0
VERTEX
  8
1_ANYTOOL_1MMDEEP_LABELS_S
 10
917.483949
 20
86.241111
 30
0.000000
 42
-0.047412
  0
VERTEX
  8
1_ANYTOOL_1MMDEEP_LABELS_S
 10
916.811023
 20
89.445030
 30
0.000000
 42
-0.028075
  0
VERTEX
  8
1_ANYTOOL_1MMDEEP_LABELS_S
 10
916.626806
 20
92.723254
 30
0.000000
 42
-0.031090
  0
VERTEX
  8
1_ANYTOOL_1MMDEEP_LABELS_S
 10
916.794333
 20
95.414834
 30
0.000000
 42
-0.031496
  0
VERTEX
  8
1_ANYTOOL_1MMDEEP_LABELS_S
 10
917.296449
 20
98.064325
 30
0.000000
 42
-0.031425
  0
VERTEX
  8
1_ANYTOOL_1MMDEEP_LABELS_S
 10
918.147322
 20
100.692570
 30
0.000000
 42
-0.028240
  0
VERTEX
  8
1_ANYTOOL_1MMDEEP_LABELS_S
 10
919.305378
 20
103.201825
 30
0.000000
 42
-0.064555
  0
VERTEX
  8
1_ANYTOOL_1MMDEEP_LABELS_S
 10
920.834181
 20
105.353350
 30
0.000000
 42
-0.078906
  0
VERTEX
  8
1_ANYTOOL_1MMDEEP_LABELS_S
 10
922.900021
 20
106.978611
 30
0.000000
 42
-0.076878
  0
VERTEX
  8
1_ANYTOOL_1MMDEEP_LABELS_S
 10
925.523622
 20
107.953161
 30
0.000000
 42
-0.050594
  0
VERTEX
  8
1_ANYTOOL_1MMDEEP_LABELS_S
 10
928.326806
 20
108.237540
 30
0.000000
 42
-0.039946
  0
VERTEX
  8
1_ANYTOOL_1MMDEEP_LABELS_S
 10
929.986367
 20
108.104743
 30
0.000000
 42
-0.052714
  0
VERTEX
  8
1_ANYTOOL_1MMDEEP_LABELS_S
 10
931.589306
 20
107.669683
 30
0.000000
 42
-0.053511
  0
VERTEX
  8
1_ANYTOOL_1MMDEEP_LABELS_S
 10
932.972504
 20
106.954348
 30
0.000000
 42
-0.051530
  0
VERTEX
  8
1_ANYTOOL_1MMDEEP_LABELS_S
 10
934.176806
 20
105.966111
 30
0.000000
 42
-0.040443
  0
VERTEX
  8
1_ANYTOOL_1MMDEEP_LABELS_S
 10
936.217030
 20
103.542970
 30
0.000000
 42
-0.040350
  0
VERTEX
  8
1_ANYTOOL_1MMDEEP_LABELS_S
 10
937.841092
 20
100.823254
 30
0.000000
  0
SEQEND
  8
1_ANYTOOL_1MMDEEP_LABELS_S
  0
LINE
  8
1_ANYTOOL_1MMDEEP_LABELS_S
 10
914.055378
 20
107.766111
 30
0.000000
 11
896.869664
 21
76.994683
 31
0.000000
  0
POLYLINE
  8
1_ANYTOOL_1MMDEEP_LABELS_S
 66
1
 10
0.000000
 20
0.000000
 30
0.000000
 70
0
  0
VERTEX
  8
1_ANYTOOL_1MMDEEP_LABELS_S
 10
876.512521
 20
103.308968
 30
0.000000
 42
-0.060092
  0
VERTEX
  8
1_ANYTOOL_1MMDEEP_LABELS_S
 10
877.900738
 20
105.395102
 30
0.000000
 42
-0.080583
  0
VERTEX
  8
1_ANYTOOL_1MMDEEP_LABELS_S
 10
879.801806
 20
107.005397
 30
0.000000
 42
-0.079919
  0
VERTEX
  8
1_ANYTOOL_1MMDEEP_LABELS_S
 10
882.157872
 20
107.953162
 30
0.000000
 42
-0.055798
  0
VERTEX
  8
1_ANYTOOL_1MMDEEP_LABELS_S
 10
884.698235
 20
108.237540
 30
0.000000
 42
-0.035013
  0
VERTEX
  8
1_ANYTOOL_1MMDEEP_LABELS_S
 10
886.254135
 20
108.128452
 30
0.000000
 42
-0.047512
  0
VERTEX
  8
1_ANYTOOL_1MMDEEP_LABELS_S
 10
887.767878
 20
107.766111
 30
0.000000
 42
-0.048382
  0
VERTEX
  8
1_ANYTOOL_1MMDEEP_LABELS_S
 10
889.057303
 20
107.180071
 30
0.000000
 42
-0.050886
  0
VERTEX
  8
1_ANYTOOL_1MMDEEP_LABELS_S
 10
890.205378
 20
106.351825
 30
0.000000
 42
-0.060051
  0
VERTEX
  8
1_ANYTOOL_1MMDEEP_LABELS_S
 10
891.131282
 20
105.305038
 30
0.000000
 42
-0.058597
  0
VERTEX
  8
1_ANYTOOL_1MMDEEP_LABELS_S
 10
891.785735
 20
104.069683
 30
0.000000
 42
-0.056917
  0
VERTEX
  8
1_ANYTOOL_1MMDEEP_LABELS_S
 10
892.181865
 20
102.558767
 30
0.000000
 42
-0.038780
  0
VERTEX
  8
1_ANYTOOL_1MMDEEP_LABELS_S
 10
892.283949
 20
100.994683
 30
0.000000
 42
-0.025440
  0
VERTEX
  8
1_ANYTOOL_1MMDEEP_LABELS_S
 10
892.220934
 20
99.756966
 30
0.000000
 42
-0.041152
  0
VERTEX
  8
1_ANYTOOL_1MMDEEP_LABELS_S
 10
891.994664
 20
98.541111
 30
0.000000
 42
-0.042175
  0
VERTEX
  8
1_ANYTOOL_1MMDEEP_LABELS_S
 10
891.650850
 20
97.600840
 30
0.000000
 42
-0.059142
  0
VERTEX
  8
1_ANYTOOL_1MMDEEP_LABELS_S
 10
891.126806
 20
96.751825
 30
0.000000
 42
-0.068767
  0
VERTEX
  8
1_ANYTOOL_1MMDEEP_LABELS_S
 10
889.836110
 20
95.519331
 30
0.000000
 42
-0.072211
  0
VERTEX
  8
1_ANYTOOL_1MMDEEP_LABELS_S
 10
888.255378
 20
94.694683
 30
0.000000
 42
-0.043093
  0
VERTEX
  8
1_ANYTOOL_1MMDEEP_LABELS_S
 10
886.428266
 20
94.227090
 30
0.000000
 42
-0.035742
  0
VERTEX
  8
1_ANYTOOL_1MMDEEP_LABELS_S
 10
884.548235
 20
94.051825
 30
0.000000
 42
-0.002283
  0
VERTEX
  8
1_ANYTOOL_1MMDEEP_LABELS_S
 10
882.694771
 20
94.020433
 30
0.000000
 42
-0.003092
  0
VERTEX
  8
1_ANYTOOL_1MMDEEP_LABELS_S
 10
880.841092
 20
94.008968
 30
0.000000
  0
SEQEND
  8
1_ANYTOOL_1MMDEEP_LABELS_S
  0
POLYLINE
  8
1_ANYTOOL_1MMDEEP_LABELS_S
 66
1
 10
0.000000
 20
0.000000
 30
0.000000
 70
0
  0
VERTEX
  8
1_ANYTOOL_1MMDEEP_LABELS_S
 10
883.626806
 20
94.008968
 30
0.000000
 42
-0.052004
  0
VERTEX
  8
1_ANYTOOL_1MMDEEP_LABELS_S
 10
886.959889
 20
93.496166
 30
0.000000
 42
-0.057563
  0
VERTEX
  8
1_ANYTOOL_1MMDEEP_LABELS_S
 10
890.098235
 20
92.273254
 30
0.000000
 42
-0.070633
  0
VERTEX
  8
1_ANYTOOL_1MMDEEP_LABELS_S
 10
891.372771
 20
91.348651
 30
0.000000
 42
-0.079113
  0
VERTEX
  8
1_ANYTOOL_1MMDEEP_LABELS_S
 10
892.316092
 20
90.092897
 30
0.000000
 42
-0.075641
  0
VERTEX
  8
1_ANYTOOL_1MMDEEP_LABELS_S
 10
892.892880
 20
88.438039
 30
0.000000
 42
-0.046128
  0
VERTEX
  8
1_ANYTOOL_1MMDEEP_LABELS_S
 10
893.055378
 20
86.680397
 30
0.000000
 42
-0.033924
  0
VERTEX
  8
1_ANYTOOL_1MMDEEP_LABELS_S
 10
892.921781
 20
84.713622
 30
0.000000
 42
-0.057836
  0
VERTEX
  8
1_ANYTOOL_1MMDEEP_LABELS_S
 10
892.433949
 20
82.812540
 30
0.000000
 42
-0.060832
  0
VERTEX
  8
1_ANYTOOL_1MMDEEP_LABELS_S
 10
891.674972
 20
81.383565
 30
0.000000
 42
-0.072757
  0
VERTEX
  8
1_ANYTOOL_1MMDEEP_LABELS_S
 10
890.569664
 20
80.208968
 30
0.000000
 42
-0.053580
  0
VERTEX
  8
1_ANYTOOL_1MMDEEP_LABELS_S
 10
889.175072
 20
79.327887
 30
0.000000
 42
-0.043301
  0
VERTEX
  8
1_ANYTOOL_1MMDEEP_LABELS_S
 10
887.633949
 20
78.730397
 30
0.000000
 42
-0.042335
  0
VERTEX
  8
1_ANYTOOL_1MMDEEP_LABELS_S
 10
885.735461
 20
78.348147
 30
0.000000
 42
-0.028525
  0
VERTEX
  8
1_ANYTOOL_1MMDEEP_LABELS_S
 10
883.798235
 20
78.237540
 30
0.000000
 42
-0.059964
  0
VERTEX
  8
1_ANYTOOL_1MMDEEP_LABELS_S
 10
881.086734
 20
78.563898
 30
0.000000
 42
-0.089395
  0
VERTEX
  8
1_ANYTOOL_1MMDEEP_LABELS_S
 10
878.612521
 20
79.662540
 30
0.000000
 42
-0.089624
  0
VERTEX
  8
1_ANYTOOL_1MMDEEP_LABELS_S
 10
876.688353
 20
81.546986
 30
0.000000
 42
-0.061164
  0
VERTEX
  8
1_ANYTOOL_1MMDEEP_LABELS_S
 10
875.398235
 20
83.937540
 30
0.000000
  0
SEQEND
  8
1_ANYTOOL_1MMDEEP_LABELS_S
  0
LINE
  8
1_ANYTOOL_1MMDEEP_LABELS_S
 10
871.541092
 20
92.123254
 30
0.000000
 11
862.755378
 21
92.037540
 31
0.000000
  0
POLYLINE
  8
1_ANYTOOL_1MMDEEP_LABELS_S
 66
1
 10
0.000000
 20
0.000000
 30
0.000000
 70
0
  0
VERTEX
  8
1_ANYTOOL_1MMDEEP_LABELS_S
 10
841.798235
 20
108.237540
 30
0.000000
  0
VERTEX
  8
1_ANYTOOL_1MMDEEP_LABELS_S
 10
841.798235
 20
78.237540
 30
0.000000
  0
VERTEX
  8
1_ANYTOOL_1MMDEEP_LABELS_S
 10
858.898235
 20
78.237540
 30
0.000000
  0
SEQEND
  8
1_ANYTOOL_1MMDEEP_LABELS_S
  0
LINE
  8
1_ANYTOOL_1MMDEEP_LABELS_S
 10
836.655378
 20
92.123254
 30
0.000000
 11
827.869664
 21
92.037540
 31
0.000000
  0
POLYLINE
  8
1_ANYTOOL_1MMDEEP_LABELS_S
 66
1
 10
0.000000
 20
0.000000
 30
0.000000
 70
1
  0
VERTEX
  8
1_ANYTOOL_1MMDEEP_LABELS_S
 10
812.698235
 20
108.580397
 30
0.000000
 42
-0.064784
  0
VERTEX
  8
1_ANYTOOL_1MMDEEP_LABELS_S
 10
815.372190
 20
108.232476
 30
0.000000
 42
-0.088904
  0
VERTEX
  8
1_ANYTOOL_1MMDEEP_LABELS_S
 10
817.798235
 20
107.101825
 30
0.000000
 42
-0.054190
  0
VERTEX
  8
1_ANYTOOL_1MMDEEP_LABELS_S
 10
819.720800
 20
105.409695
 30
0.000000
 42
-0.051179
  0
VERTEX
  8
1_ANYTOOL_1MMDEEP_LABELS_S
 10
821.248235
 20
103.351825
 30
0.000000
 42
-0.041653
  0
VERTEX
  8
1_ANYTOOL_1MMDEEP_LABELS_S
 10
822.430434
 20
100.923053
 30
0.000000
 42
-0.036749
  0
VERTEX
  8
1_ANYTOOL_1MMDEEP_LABELS_S
 10
823.219664
 20
98.337540
 30
0.000000
 42
-0.024892
  0
VERTEX
  8
1_ANYTOOL_1MMDEEP_LABELS_S
 10
823.677443
 20
95.718277
 30
0.000000
 42
-0.030823
  0
VERTEX
  8
1_ANYTOOL_1MMDEEP_LABELS_S
 10
823.841092
 20
93.066111
 30
0.000000
 42
-0.034269
  0
VERTEX
  8
1_ANYTOOL_1MMDEEP_LABELS_S
 10
823.664572
 20
90.493615
 30
0.000000
 42
-0.031918
  0
VERTEX
  8
1_ANYTOOL_1MMDEEP_LABELS_S
 10
823.150021
 20
87.966111
 30
0.000000
 42
-0.031725
  0
VERTEX
  8
1_ANYTOOL_1MMDEEP_LABELS_S
 10
822.261834
 20
85.356715
 30
0.000000
 42
-0.026303
  0
VERTEX
  8
1_ANYTOOL_1MMDEEP_LABELS_S
 10
821.076806
 20
82.866111
 30
0.000000
 42
-0.058719
  0
VERTEX
  8
1_ANYTOOL_1MMDEEP_LABELS_S
 10
819.553026
 20
80.704364
 30
0.000000
 42
-0.077745
  0
VERTEX
  8
1_ANYTOOL_1MMDEEP_LABELS_S
 10
817.514306
 20
79.041111
 30
0.000000
 42
-0.077243
  0
VERTEX
  8
1_ANYTOOL_1MMDEEP_LABELS_S
 10
815.027318
 20
78.062274
 30
0.000000
 42
-0.055252
  0
VERTEX
  8
1_ANYTOOL_1MMDEEP_LABELS_S
 10
812.355378
 20
77.766111
 30
0.000000
 42
-0.054051
  0
VERTEX
  8
1_ANYTOOL_1MMDEEP_LABELS_S
 10
809.601453
 20
78.064690
 30
0.000000
 42
-0.077615
  0
VERTEX
  8
1_ANYTOOL_1MMDEEP_LABELS_S
 10
807.035735
 20
79.062540
 30
0.000000
 42
-0.078558
  0
VERTEX
  8
1_ANYTOOL_1MMDEEP_LABELS_S
 10
804.960662
 20
80.749613
 30
0.000000
 42
-0.060481
  0
VERTEX
  8
1_ANYTOOL_1MMDEEP_LABELS_S
 10
803.419664
 20
82.951825
 30
0.000000
 42
-0.026290
  0
VERTEX
  8
1_ANYTOOL_1MMDEEP_LABELS_S
 10
802.233003
 20
85.491045
 30
0.000000
 42
-0.031299
  0
VERTEX
  8
1_ANYTOOL_1MMDEEP_LABELS_S
 10
801.346449
 20
88.148254
 30
0.000000
 42
-0.031469
  0
VERTEX
  8
1_ANYTOOL_1MMDEEP_LABELS_S
 10
800.831411
 20
90.735070
 30
0.000000
 42
-0.033416
  0
VERTEX
  8
1_ANYTOOL_1MMDEEP_LABELS_S
 10
800.655378
 20
93.366111
 30
0.000000
 42
-0.032847
  0
VERTEX
  8
1_ANYTOOL_1MMDEEP_LABELS_S
 10
800.834056
 20
96.083060
 30
0.000000
 42
-0.035049
  0
VERTEX
  8
1_ANYTOOL_1MMDEEP_LABELS_S
 10
801.378592
 20
98.750040
 30
0.000000
 42
-0.035030
  0
VERTEX
  8
1_ANYTOOL_1MMDEEP_LABELS_S
 10
802.294566
 20
101.327079
 30
0.000000
 42
-0.032231
  0
VERTEX
  8
1_ANYTOOL_1MMDEEP_LABELS_S
 10
803.548235
 20
103.758968
 30
0.000000
 42
-0.062518
  0
VERTEX
  8
1_ANYTOOL_1MMDEEP_LABELS_S
 10
805.170124
 20
105.826063
 30
0.000000
 42
-0.074052
  0
VERTEX
  8
1_ANYTOOL_1MMDEEP_LABELS_S
 10
807.282164
 20
107.375040
 30
0.000000
 42
-0.072322
  0
VERTEX
  8
1_ANYTOOL_1MMDEEP_LABELS_S
 10
809.909017
 20
108.305931
 30
0.000000
 42
-0.049083
  0
SEQEND
  8
1_ANYTOOL_1MMDEEP_LABELS_S
  0
LINE
  8
1_ANYTOOL_1MMDEEP_LABELS_S
 10
796.626806
 20
92.123254
 30
0.000000
 11
787.841092
 21
92.037540
 31
0.000000
  0
POLYLINE
  8
1_ANYTOOL_1MMDEEP_LABELS_S
 66
1
 10
0.000000
 20
0.000000
 30
0.000000
 70
0
  0
VERTEX
  8
1_ANYTOOL_1MMDEEP_LABELS_S
 10
752.269664
 20
108.237540
 30
0.000000
  0
VERTEX
  8
1_ANYTOOL_1MMDEEP_LABELS_S
 10
759.983949
 20
78.237540
 30
0.000000
  0
VERTEX
  8
1_ANYTOOL_1MMDEEP_LABELS_S
 10
768.426806
 20
107.337540
 30
0.000000
  0
VERTEX
  8
1_ANYTOOL_1MMDEEP_LABELS_S
 10
776.912521
 20
78.237540
 30
0.000000
  0
VERTEX
  8
1_ANYTOOL_1MMDEEP_LABELS_S
 10
784.412521
 20
108.237540
 30
0.000000
  0
SEQEND
  8
1_ANYTOOL_1MMDEEP_LABELS_S
  0
POLYLINE
  8
3_ANYTOOL_CUTTHROUGH_INSID
 66
1
 10
0.000000
 20
0.000000
 30
0.000000
 70
1
  0
VERTEX
  8
3_ANYTOOL_CUTTHROUGH_INSID
 10
55.500029
 20
108.000002
 30
0.000000
  0
VERTEX
  8
3_ANYTOOL_CUTTHROUGH_INSID
 10
55.500029
 20
59.500002
 30
0.000000
  0
VERTEX
  8
3_ANYTOOL_CUTTHROUGH_INSID
 10
68.000029
 20
59.500002
 30
0.000000
  0
VERTEX
  8
3_ANYTOOL_CUTTHROUGH_INSID
 10
68.000029
 20
65.500002
 30
0.000000
  0
VERTEX
  8
3_ANYTOOL_CUTTHROUGH_INSID
 10
93.500029
 20
65.500002
 30
0.000000
  0
VERTEX
  8
3_ANYTOOL_CUTTHROUGH_INSID
 10
93.500029
 20
59.500002
 30
0.000000
  0
VERTEX
  8
3_ANYTOOL_CUTTHROUGH_INSID
 10
106.000029
 20
59.500002
 30
0.000000
  0
VERTEX
  8
3_ANYTOOL_CUTTHROUGH_INSID
 10
106.000029
 20
65.750002
 30
0.000000
  0
VERTEX
  8
3_ANYTOOL_CUTTHROUGH_INSID
 10
106.000029
 20
83.500002
 30
0.000000
  0
VERTEX
  8
3_ANYTOOL_CUTTHROUGH_INSID
 10
131.500029
 20
83.500002
 30
0.000000
  0
VERTEX
  8
3_ANYTOOL_CUTTHROUGH_INSID
 10
131.500029
 20
49.544255
 30
0.000000
  0
VERTEX
  8
3_ANYTOOL_CUTTHROUGH_INSID
 10
144.000029
 20
49.544255
 30
0.000000
  0
VERTEX
  8
3_ANYTOOL_CUTTHROUGH_INSID
 10
144.000029
 20
55.544255
 30
0.000000
  0
VERTEX
  8
3_ANYTOOL_CUTTHROUGH_INSID
 10
149.750029
 20
55.544253
 30
0.000000
  0
VERTEX
  8
3_ANYTOOL_CUTTHROUGH_INSID
 10
156.000000
 20
55.544253
 30
0.000000
  0
VERTEX
  8
3_ANYTOOL_CUTTHROUGH_INSID
 10
156.000000
 20
68.044253
 30
0.000000
  0
VERTEX
  8
3_ANYTOOL_CUTTHROUGH_INSID
 10
150.000000
 20
68.044253
 30
0.000000
  0
VERTEX
  8
3_ANYTOOL_CUTTHROUGH_INSID
 10
150.000000
 20
117.544253
 30
0.000000
  0
VERTEX
  8
3_ANYTOOL_CUTTHROUGH_INSID
 10
156.000000
 20
117.544253
 30
0.000000
  0
VERTEX
  8
3_ANYTOOL_CUTTHROUGH_INSID
 10
156.000000
 20
130.044253
 30
0.000000
  0
VERTEX
  8
3_ANYTOOL_CUTTHROUGH_INSID
 10
149.750000
 20
130.044253
 30
0.000000
  0
VERTEX
  8
3_ANYTOOL_CUTTHROUGH_INSID
 10
144.000029
 20
130.044255
 30
0.000000
  0
VERTEX
  8
3_ANYTOOL_CUTTHROUGH_INSID
 10
144.000029
 20
136.044255
 30
0.000000
  0
VERTEX
  8
3_ANYTOOL_CUTTHROUGH_INSID
 10
131.500029
 20
136.044255
 30
0.000000
  0
VERTEX
  8
3_ANYTOOL_CUTTHROUGH_INSID
 10
131.500029
 20
102.000002
 30
0.000000
  0
VERTEX
  8
3_ANYTOOL_CUTTHROUGH_INSID
 10
68.000029
 20
102.000002
 30
0.000000
  0
VERTEX
  8
3_ANYTOOL_CUTTHROUGH_INSID
 10
68.000029
 20
108.000002
 30
0.000000
  0
SEQEND
  8
3_ANYTOOL_CUTTHROUGH_INSID
  0
POLYLINE
  8
4_ANYTOOL_CUTTHROUGH_OUTSI
 66
1
 10
0.000000
 20
0.000000
 30
0.000000
 70
1
  0
VERTEX
  8
4_ANYTOOL_CUTTHROUGH_OUTSI
 10
150.000000
 20
23.838506
 30
0.000000
  0
VERTEX
  8
4_ANYTOOL_CUTTHROUGH_OUTSI
 10
150.000000
 20
0.000000
 30
0.000000
  0
VERTEX
  8
4_ANYTOOL_CUTTHROUGH_OUTSI
 10
449.750000
 20
0.000000
 30
0.000000
  0
VERTEX
  8
4_ANYTOOL_CUTTHROUGH_OUTSI
 10
749.750000
 20
0.000000
 30
0.000000
  0
VERTEX
  8
4_ANYTOOL_CUTTHROUGH_OUTSI
 10
1349.750000
 20
0.000000
 30
0.000000
  0
VERTEX
  8
4_ANYTOOL_CUTTHROUGH_OUTSI
 10
1649.500000
 20
0.000000
 30
0.000000
  0
VERTEX
  8
4_ANYTOOL_CUTTHROUGH_OUTSI
 10
1649.500000
 20
5.500000
 30
0.000000
  0
VERTEX
  8
4_ANYTOOL_CUTTHROUGH_OUTSI
 10
1643.750000
 20
5.500000
 30
0.000000
 42
-0.414214
  0
VERTEX
  8
4_ANYTOOL_CUTTHROUGH_OUTSI
 10
1643.500000
 20
5.750000
 30
0.000000
  0
VERTEX
  8
4_ANYTOOL_CUTTHROUGH_OUTSI
 10
1643.500000
 20
17.750000
 30
0.000000
 42
-0.414214
  0
VERTEX
  8
4_ANYTOOL_CUTTHROUGH_OUTSI
 10
1643.750000
 20
18.000000
 30
0.000000
  0
VERTEX
  8
4_ANYTOOL_CUTTHROUGH_OUTSI
 10
1667.500000
 20
18.000000
 30
0.000000
  0
VERTEX
  8
4_ANYTOOL_CUTTHROUGH_OUTSI
 10
1667.500000
 20
55.500000
 30
0.000000
  0
VERTEX
  8
4_ANYTOOL_CUTTHROUGH_OUTSI
 10
1643.750000
 20
55.500000
 30
0.000000
 42
-0.414214
  0
VERTEX
  8
4_ANYTOOL_CUTTHROUGH_OUTSI
 10
1643.500000
 20
55.750000
 30
0.000000
  0
VERTEX
  8
4_ANYTOOL_CUTTHROUGH_OUTSI
 10
1643.500000
 20
67.750000
 30
0.000000
 42
-0.414214
  0
VERTEX
  8
4_ANYTOOL_CUTTHROUGH_OUTSI
 10
1643.750000
 20
68.000000
 30
0.000000
  0
VERTEX
  8
4_ANYTOOL_CUTTHROUGH_OUTSI
 10
1649.500000
 20
68.000000
 30
0.000000
  0
VERTEX
  8
4_ANYTOOL_CUTTHROUGH_OUTSI
 10
1649.500000
 20
117.500000
 30
0.000000
  0
VERTEX
  8
4_ANYTOOL_CUTTHROUGH_OUTSI
 10
1643.750000
 20
117.500000
 30
0.000000
 42
-0.414214
  0
VERTEX
  8
4_ANYTOOL_CUTTHROUGH_OUTSI
 10
1643.500000
 20
117.750000
 30
0.000000
  0
VERTEX
  8
4_ANYTOOL_CUTTHROUGH_OUTSI
 10
1643.500000
 20
129.750000
 30
0.000000
 42
-0.414214
  0
VERTEX
  8
4_ANYTOOL_CUTTHROUGH_OUTSI
 10
1643.750000
 20
130.000000
 30
0.000000
  0
VERTEX
  8
4_ANYTOOL_CUTTHROUGH_OUTSI
 10
1667.500000
 20
130.000000
 30
0.000000
  0
VERTEX
  8
4_ANYTOOL_CUTTHROUGH_OUTSI
 10
1667.500000
 20
167.500000
 30
0.000000
  0
VERTEX
  8
4_ANYTOOL_CUTTHROUGH_OUTSI
 10
1643.750000
 20
167.500000
 30
0.000000
 42
-0.414214
  0
VERTEX
  8
4_ANYTOOL_CUTTHROUGH_OUTSI
 10
1643.500000
 20
167.750000
 30
0.000000
  0
VERTEX
  8
4_ANYTOOL_CUTTHROUGH_OUTSI
 10
1643.500000
 20
179.750000
 30
0.000000
 42
-0.414214
  0
VERTEX
  8
4_ANYTOOL_CUTTHROUGH_OUTSI
 10
1643.750000
 20
180.000000
 30
0.000000
  0
VERTEX
  8
4_ANYTOOL_CUTTHROUGH_OUTSI
 10
1649.500000
 20
180.000000
 30
0.000000
  0
VERTEX
  8
4_ANYTOOL_CUTTHROUGH_OUTSI
 10
1649.500000
 20
185.500000
 30
0.000000
  0
VERTEX
  8
4_ANYTOOL_CUTTHROUGH_OUTSI
 10
1349.750000
 20
185.500000
 30
0.000000
  0
VERTEX
  8
4_ANYTOOL_CUTTHROUGH_OUTSI
 10
1049.750000
 20
185.500000
 30
0.000000
  0
VERTEX
  8
4_ANYTOOL_CUTTHROUGH_OUTSI
 10
749.750000
 20
185.500000
 30
0.000000
  0
VERTEX
  8
4_ANYTOOL_CUTTHROUGH_OUTSI
 10
449.750000
 20
185.500000
 30
0.000000
  0
VERTEX
  8
4_ANYTOOL_CUTTHROUGH_OUTSI
 10
150.000000
 20
185.500000
 30
0.000000
  0
VERTEX
  8
4_ANYTOOL_CUTTHROUGH_OUTSI
 10
150.000000
 20
161.838506
 30
0.000000
 42
-0.414214
  0
VERTEX
  8
4_ANYTOOL_CUTTHROUGH_OUTSI
 10
149.750000
 20
161.588506
 30
0.000000
  0
VERTEX
  8
4_ANYTOOL_CUTTHROUGH_OUTSI
 10
137.750000
 20
161.588506
 30
0.000000
 42
-0.414214
  0
VERTEX
  8
4_ANYTOOL_CUTTHROUGH_OUTSI
 10
137.500000
 20
161.838506
 30
0.000000
  0
VERTEX
  8
4_ANYTOOL_CUTTHROUGH_OUTSI
 10
137.500000
 20
167.588506
 30
0.000000
  0
VERTEX
  8
4_ANYTOOL_CUTTHROUGH_OUTSI
 10
0.000000
 20
167.588506
 30
0.000000
  0
VERTEX
  8
4_ANYTOOL_CUTTHROUGH_OUTSI
 10
0.000000
 20
138.911506
 30
0.000000
  0
VERTEX
  8
4_ANYTOOL_CUTTHROUGH_OUTSI
 10
23.750000
 20
138.911506
 30
0.000000
 42
-0.414214
  0
VERTEX
  8
4_ANYTOOL_CUTTHROUGH_OUTSI
 10
24.000000
 20
138.661506
 30
0.000000
  0
VERTEX
  8
4_ANYTOOL_CUTTHROUGH_OUTSI
 10
24.000000
 20
126.661506
 30
0.000000
 42
-0.414214
  0
VERTEX
  8
4_ANYTOOL_CUTTHROUGH_OUTSI
 10
23.750000
 20
126.411506
 30
0.000000
  0
VERTEX
  8
4_ANYTOOL_CUTTHROUGH_OUTSI
 10
18.000000
 20
126.411506
 30
0.000000
  0
VERTEX
  8
4_ANYTOOL_CUTTHROUGH_OUTSI
 10
18.000000
 20
115.911506
 30
0.000000
  0
VERTEX
  8
4_ANYTOOL_CUTTHROUGH_OUTSI
 10
23.750000
 20
115.911506
 30
0.000000
 42
-0.414214
  0
VERTEX
  8
4_ANYTOOL_CUTTHROUGH_OUTSI
 10
24.000000
 20
115.661506
 30
0.000000
  0
VERTEX
  8
4_ANYTOOL_CUTTHROUGH_OUTSI
 10
24.000000
 20
103.661506
 30
0.000000
 42
-0.414214
  0
VERTEX
  8
4_ANYTOOL_CUTTHROUGH_OUTSI
 10
23.750000
 20
103.411506
 30
0.000000
  0
VERTEX
  8
4_ANYTOOL_CUTTHROUGH_OUTSI
 10
0.000000
 20
103.411506
 30
0.000000
  0
VERTEX
  8
4_ANYTOOL_CUTTHROUGH_OUTSI
 10
0.000000
 20
66.000506
 30
0.000000
  0
VERTEX
  8
4_ANYTOOL_CUTTHROUGH_OUTSI
 10
23.750000
 20
66.000506
 30
0.000000
 42
-0.414214
  0
VERTEX
  8
4_ANYTOOL_CUTTHROUGH_OUTSI
 10
24.000000
 20
65.750506
 30
0.000000
  0
VERTEX
  8
4_ANYTOOL_CUTTHROUGH_OUTSI
 10
24.000000
 20
53.750506
 30
0.000000
 42
-0.414214
  0
VERTEX
  8
4_ANYTOOL_CUTTHROUGH_OUTSI
 10
23.750000
 20
53.500506
 30
0.000000
  0
VERTEX
  8
4_ANYTOOL_CUTTHROUGH_OUTSI
 10
18.000000
 20
53.500506
 30
0.000000
  0
VERTEX
  8
4_ANYTOOL_CUTTHROUGH_OUTSI
 10
18.000000
 20
45.911506
 30
0.000000
  0
VERTEX
  8
4_ANYTOOL_CUTTHROUGH_OUTSI
 10
23.750000
 20
45.911506
 30
0.000000
 42
-0.414214
  0
VERTEX
  8
4_ANYTOOL_CUTTHROUGH_OUTSI
 10
24.000000
 20
45.661506
 30
0.000000
  0
VERTEX
  8
4_ANYTOOL_CUTTHROUGH_OUTSI
 10
24.000000
 20
33.661506
 30
0.000000
 42
-0.414214
  0
VERTEX
  8
4_ANYTOOL_CUTTHROUGH_OUTSI
 10
23.750000
 20
33.411506
 30
0.000000
  0
VERTEX
  8
4_ANYTOOL_CUTTHROUGH_OUTSI
 10
0.000000
 20
33.411506
 30
0.000000
  0
VERTEX
  8
4_ANYTOOL_CUTTHROUGH_OUTSI
 10
0.000000
 20
18.088506
 30
0.000000
  0
VERTEX
  8
4_ANYTOOL_CUTTHROUGH_OUTSI
 10
137.500000
 20
18.088506
 30
0.000000
  0
VERTEX
  8
4_ANYTOOL_CUTTHROUGH_OUTSI
 10
137.500000
 20
23.838506
 30
0.000000
 42
-0.414214
  0
VERTEX
  8
4_ANYTOOL_CUTTHROUGH_OUTSI
 10
137.750000
 20
24.088506
 30
0.000000
  0
VERTEX
  8
4_ANYTOOL_CUTTHROUGH_OUTSI
 10
149.750000
 20
24.088506
 30
0.000000
 42
-0.414214
  0
SEQEND
  8
4_ANYTOOL_CUTTHROUGH_OUTSI
  0
ENDSEC
  0
EOF
