<svg id="Layer_1" data-name="Layer 1" xmlns="http://www.w3.org/2000/svg" viewBox="0 0 425.2 425.2"><defs><style>.cls-1,.cls-2{fill:none;stroke-linecap:round;stroke-linejoin:round;}.cls-1{stroke:#000;stroke-width:0.25px;}.cls-2{stroke:#1d1d1b;}</style></defs><line class="cls-1" x1="135.62" y1="139.77" x2="135.98" y2="139.7"/><line class="cls-1" x1="135.98" y1="139.7" x2="136.37" y2="139.84"/><line class="cls-1" x1="136.37" y1="139.84" x2="145.39" y2="145.05"/><line class="cls-1" x1="145.39" y1="145.05" x2="145.78" y2="145.36"/><line class="cls-1" x1="145.78" y1="145.36" x2="146.14" y2="145.84"/><line class="cls-1" x1="146.14" y1="145.84" x2="146.38" y2="146.4"/><line class="cls-1" x1="146.38" y1="146.4" x2="146.45" y2="146.89"/><line class="cls-1" x1="145.92" y1="158.02" x2="145.92" y2="158.63"/><line class="cls-1" x1="174.2" y1="162.32" x2="174.36" y2="162.13"/><line class="cls-1" x1="174.36" y1="162.13" x2="174.72" y2="162.07"/><line class="cls-1" x1="174.72" y1="162.07" x2="175.11" y2="162.21"/><line class="cls-1" x1="175.11" y1="162.21" x2="184.13" y2="167.42"/><line class="cls-1" x1="184.13" y1="167.42" x2="184.52" y2="167.73"/><line class="cls-1" x1="184.52" y1="167.73" x2="184.88" y2="168.21"/><line class="cls-1" x1="184.88" y1="168.21" x2="185.12" y2="168.76"/><line class="cls-1" x1="185.12" y1="168.76" x2="185.19" y2="169.26"/><line class="cls-1" x1="185.19" y1="169.26" x2="185.19" y2="191.52"/><line class="cls-1" x1="184.66" y1="191.83" x2="184.66" y2="192.44"/><line class="cls-1" x1="188.69" y1="170.41" x2="189.05" y2="170.34"/><line class="cls-1" x1="189.05" y1="170.34" x2="189.44" y2="170.48"/><line class="cls-1" x1="189.44" y1="170.48" x2="198.46" y2="175.69"/><line class="cls-1" x1="198.46" y1="175.69" x2="198.85" y2="176"/><line class="cls-1" x1="198.85" y1="176" x2="199.21" y2="176.48"/><line class="cls-1" x1="199.21" y1="176.48" x2="199.45" y2="177.04"/><line class="cls-1" x1="199.45" y1="177.04" x2="199.52" y2="177.53"/><line class="cls-1" x1="199.52" y1="177.53" x2="199.52" y2="188.36"/><line class="cls-1" x1="198.99" y1="188.66" x2="198.99" y2="189.27"/><line class="cls-1" x1="227.27" y1="192.96" x2="227.43" y2="192.78"/><line class="cls-1" x1="227.43" y1="192.78" x2="227.79" y2="192.71"/><line class="cls-1" x1="227.79" y1="192.71" x2="228.18" y2="192.85"/><line class="cls-1" x1="228.18" y1="192.85" x2="237.2" y2="198.06"/><line class="cls-1" x1="237.2" y1="198.06" x2="237.59" y2="198.37"/><line class="cls-1" x1="237.59" y1="198.37" x2="237.95" y2="198.85"/><line class="cls-1" x1="237.95" y1="198.85" x2="238.19" y2="199.4"/><line class="cls-1" x1="238.19" y1="199.4" x2="238.26" y2="199.9"/><line class="cls-1" x1="238.26" y1="199.9" x2="238.26" y2="222.16"/><line class="cls-1" x1="237.73" y1="222.47" x2="237.73" y2="223.08"/><line class="cls-1" x1="241.52" y1="201.33" x2="241.66" y2="201.16"/><line class="cls-1" x1="241.76" y1="201.05" x2="242.12" y2="200.98"/><line class="cls-1" x1="242.12" y1="200.98" x2="242.51" y2="201.12"/><line class="cls-1" x1="242.51" y1="201.12" x2="251.53" y2="206.33"/><line class="cls-1" x1="251.53" y1="206.33" x2="251.92" y2="206.64"/><line class="cls-1" x1="251.92" y1="206.64" x2="252.28" y2="207.12"/><line class="cls-1" x1="252.28" y1="207.12" x2="252.52" y2="207.68"/><line class="cls-1" x1="252.52" y1="207.68" x2="252.59" y2="208.17"/><line class="cls-1" x1="252.59" y1="208.17" x2="252.59" y2="219"/><line class="cls-1" x1="252.06" y1="219.3" x2="252.06" y2="219.92"/><line class="cls-1" x1="280.5" y1="223.42" x2="280.86" y2="223.35"/><line class="cls-1" x1="280.86" y1="223.35" x2="281.25" y2="223.49"/><line class="cls-1" x1="281.25" y1="223.49" x2="290.27" y2="228.7"/><line class="cls-1" x1="290.27" y1="228.7" x2="290.66" y2="229.01"/><line class="cls-1" x1="290.66" y1="229.01" x2="291.02" y2="229.49"/><line class="cls-1" x1="291.02" y1="229.49" x2="291.26" y2="230.04"/><line class="cls-1" x1="291.26" y1="230.04" x2="291.33" y2="230.54"/><line class="cls-1" x1="291.33" y1="230.54" x2="291.33" y2="252.8"/><line class="cls-1" x1="290.8" y1="253.11" x2="290.8" y2="253.72"/><line class="cls-1" x1="294.52" y1="232.38" x2="294.56" y2="232.14"/><line class="cls-1" x1="294.59" y1="231.97" x2="294.67" y2="231.88"/><line class="cls-1" x1="294.74" y1="231.8" x2="294.83" y2="231.69"/><line class="cls-1" x1="294.83" y1="231.69" x2="295.19" y2="231.62"/><line class="cls-1" x1="295.19" y1="231.62" x2="295.58" y2="231.76"/><line class="cls-1" x1="295.58" y1="231.76" x2="304.6" y2="236.97"/><line class="cls-1" x1="304.6" y1="236.97" x2="304.99" y2="237.28"/><line class="cls-1" x1="304.99" y1="237.28" x2="305.35" y2="237.76"/><line class="cls-1" x1="305.35" y1="237.76" x2="305.59" y2="238.32"/><line class="cls-1" x1="305.59" y1="238.32" x2="305.67" y2="238.81"/><line class="cls-1" x1="305.67" y1="238.81" x2="305.67" y2="249.64"/><line class="cls-1" x1="305.13" y1="249.94" x2="305.13" y2="250.56"/><line class="cls-1" x1="131.59" y1="161.19" x2="131.59" y2="161.8"/><line class="cls-1" x1="245.52" y1="206.94" x2="245.52" y2="210.01"/><line class="cls-1" x1="244.99" y1="210.31" x2="244.99" y2="210.93"/><line class="cls-1" x1="244.99" y1="210.93" x2="247.11" y2="212.15"/><line class="cls-1" x1="231.01" y1="198.57" x2="231.01" y2="201.63"/><line class="cls-1" x1="230.48" y1="201.94" x2="230.48" y2="202.55"/><line class="cls-1" x1="230.48" y1="202.55" x2="232.6" y2="203.78"/><line class="cls-1" x1="284.08" y1="229.21" x2="284.08" y2="232.27"/><line class="cls-1" x1="283.55" y1="232.58" x2="283.55" y2="233.19"/><line class="cls-1" x1="283.55" y1="233.19" x2="285.67" y2="234.42"/><line class="cls-1" x1="298.06" y1="240.96" x2="298.06" y2="241.57"/><line class="cls-1" x1="298.06" y1="241.57" x2="300.18" y2="242.8"/><line class="cls-1" x1="298.59" y1="237.58" x2="298.59" y2="240.65"/><line class="cls-1" x1="192.45" y1="176.3" x2="192.45" y2="179.37"/><line class="cls-1" x1="191.91" y1="179.67" x2="191.91" y2="180.29"/><line class="cls-1" x1="191.91" y1="180.29" x2="194.04" y2="181.51"/><line class="cls-1" x1="139.37" y1="145.66" x2="139.37" y2="148.73"/><line class="cls-1" x1="138.84" y1="149.03" x2="138.84" y2="149.65"/><line class="cls-1" x1="138.84" y1="149.65" x2="140.97" y2="150.87"/><line class="cls-1" x1="177.94" y1="167.93" x2="177.94" y2="170.99"/><line class="cls-1" x1="177.41" y1="171.3" x2="177.41" y2="171.91"/><line class="cls-1" x1="177.41" y1="171.91" x2="179.53" y2="173.14"/><line class="cls-1" x1="134.03" y1="140.69" x2="134.39" y2="140.62"/><line class="cls-1" x1="144.86" y1="147.81" x2="146.45" y2="146.89"/><line class="cls-1" x1="143.8" y1="145.97" x2="144.19" y2="146.28"/><line class="cls-1" x1="144.78" y1="147.31" x2="144.86" y2="147.81"/><line class="cls-1" x1="133.71" y1="141.37" x2="133.79" y2="140.96"/><line class="cls-1" x1="133.79" y1="140.96" x2="134.03" y2="140.69"/><line class="cls-1" x1="134.39" y1="140.62" x2="134.78" y2="140.76"/><line class="cls-1" x1="134.78" y1="140.76" x2="143.8" y2="145.97"/><line class="cls-1" x1="144.19" y1="146.28" x2="144.55" y2="146.76"/><line class="cls-1" x1="144.55" y1="146.76" x2="144.78" y2="147.31"/><line class="cls-1" x1="134.25" y1="163.94" x2="133.71" y2="163.64"/><line class="cls-1" x1="134.25" y1="165.17" x2="134.25" y2="163.94"/><line class="cls-1" x1="130" y1="162.72" x2="134.25" y2="165.17"/><line class="cls-1" x1="130" y1="161.49" x2="130" y2="162.72"/><line class="cls-1" x1="130.53" y1="161.8" x2="130" y2="161.49"/><line class="cls-1" x1="132.12" y1="150.67" x2="130.53" y2="151.59"/><line class="cls-1" x1="130.53" y1="151.59" x2="130.53" y2="161.8"/><line class="cls-1" x1="107.18" y1="136.27" x2="105.59" y2="137.19"/><line class="cls-1" x1="105.59" y1="137.19" x2="130.53" y2="151.59"/><line class="cls-1" x1="106.12" y1="147.71" x2="105.59" y2="147.4"/><line class="cls-1" x1="106.12" y1="148.93" x2="106.12" y2="147.71"/><line class="cls-1" x1="103.99" y1="147.71" x2="106.12" y2="148.93"/><line class="cls-1" x1="103.99" y1="175.08" x2="103.99" y2="147.71"/><line class="cls-1" x1="116.64" y1="180.54" x2="115.05" y2="181.46"/><line class="cls-1" x1="115.05" y1="181.46" x2="103.99" y2="175.08"/><line class="cls-1" x1="115.05" y1="160.12" x2="115.05" y2="181.46"/><line class="cls-1" x1="114.52" y1="159.81" x2="115.05" y2="160.12"/><line class="cls-1" x1="114.52" y1="158.58" x2="114.52" y2="159.81"/><line class="cls-1" x1="118.23" y1="161.95" x2="118.77" y2="162.26"/><line class="cls-1" x1="118.23" y1="183.3" x2="118.23" y2="161.95"/><line class="cls-1" x1="319.46" y1="297.64" x2="317.87" y2="298.56"/><line class="cls-1" x1="319.46" y1="258.83" x2="317.87" y2="259.75"/><line class="cls-1" x1="317.87" y1="259.75" x2="317.87" y2="298.56"/><line class="cls-1" x1="303.54" y1="251.48" x2="317.87" y2="259.75"/><line class="cls-1" x1="303.54" y1="250.25" x2="303.54" y2="251.48"/><line class="cls-1" x1="304.07" y1="250.56" x2="303.54" y2="250.25"/><line class="cls-1" x1="292.93" y1="233.3" x2="293" y2="232.89"/><line class="cls-1" x1="293.99" y1="232.68" x2="303.01" y2="237.89"/><line class="cls-1" x1="304.07" y1="239.73" x2="304.07" y2="250.56"/><line class="cls-1" x1="293" y1="232.89" x2="293.24" y2="232.61"/><line class="cls-1" x1="293.6" y1="232.54" x2="293.99" y2="232.68"/><line class="cls-1" x1="293.24" y1="232.61" x2="293.6" y2="232.54"/><line class="cls-1" x1="303.01" y1="237.89" x2="303.4" y2="238.2"/><line class="cls-1" x1="303.4" y1="238.2" x2="303.76" y2="238.68"/><line class="cls-1" x1="303.76" y1="238.68" x2="304" y2="239.24"/><line class="cls-1" x1="304" y1="239.24" x2="304.07" y2="239.73"/><line class="cls-1" x1="293.46" y1="255.87" x2="292.93" y2="255.56"/><line class="cls-1" x1="293.46" y1="257.09" x2="293.46" y2="255.87"/><line class="cls-1" x1="289.21" y1="254.64" x2="293.46" y2="257.09"/><line class="cls-1" x1="289.21" y1="253.42" x2="289.21" y2="254.64"/><line class="cls-1" x1="289.74" y1="253.72" x2="289.21" y2="253.42"/><line class="cls-1" x1="278.6" y1="225.02" x2="278.67" y2="224.62"/><line class="cls-1" x1="279.66" y1="224.41" x2="288.68" y2="229.62"/><line class="cls-1" x1="289.67" y1="230.96" x2="289.74" y2="231.46"/><line class="cls-1" x1="289.74" y1="231.46" x2="289.74" y2="253.72"/><line class="cls-1" x1="278.67" y1="224.62" x2="278.91" y2="224.34"/><line class="cls-1" x1="279.27" y1="224.27" x2="279.66" y2="224.41"/><line class="cls-1" x1="278.91" y1="224.34" x2="279.27" y2="224.27"/><line class="cls-1" x1="288.68" y1="229.62" x2="289.07" y2="229.93"/><line class="cls-1" x1="289.43" y1="230.41" x2="289.67" y2="230.96"/><line class="cls-1" x1="289.07" y1="229.93" x2="289.43" y2="230.41"/><line class="cls-1" x1="279.13" y1="236.15" x2="278.6" y2="235.85"/><line class="cls-1" x1="279.13" y1="237.38" x2="279.13" y2="236.15"/><line class="cls-1" x1="250.47" y1="220.84" x2="279.13" y2="237.38"/><line class="cls-1" x1="250.47" y1="219.61" x2="250.47" y2="220.84"/><line class="cls-1" x1="251" y1="219.92" x2="250.47" y2="219.61"/><line class="cls-1" x1="239.86" y1="202.66" x2="239.93" y2="202.25"/><line class="cls-1" x1="240.92" y1="202.04" x2="249.94" y2="207.25"/><line class="cls-1" x1="251" y1="209.09" x2="251" y2="219.92"/><line class="cls-1" x1="239.93" y1="202.25" x2="240.17" y2="201.97"/><line class="cls-1" x1="240.53" y1="201.9" x2="240.92" y2="202.04"/><line class="cls-1" x1="240.17" y1="201.97" x2="240.53" y2="201.9"/><line class="cls-1" x1="249.94" y1="207.25" x2="250.33" y2="207.56"/><line class="cls-1" x1="250.33" y1="207.56" x2="250.69" y2="208.04"/><line class="cls-1" x1="250.69" y1="208.04" x2="250.93" y2="208.6"/><line class="cls-1" x1="250.93" y1="208.6" x2="251" y2="209.09"/><line class="cls-1" x1="240.39" y1="225.23" x2="239.86" y2="224.92"/><line class="cls-1" x1="240.39" y1="226.45" x2="240.39" y2="225.23"/><line class="cls-1" x1="236.14" y1="224" x2="240.39" y2="226.45"/><line class="cls-1" x1="236.14" y1="222.78" x2="236.14" y2="224"/><line class="cls-1" x1="236.67" y1="223.08" x2="236.14" y2="222.78"/><line class="cls-1" x1="225.53" y1="194.38" x2="225.6" y2="193.98"/><line class="cls-1" x1="226.59" y1="193.77" x2="235.61" y2="198.98"/><line class="cls-1" x1="236.6" y1="200.32" x2="236.67" y2="200.82"/><line class="cls-1" x1="236.67" y1="200.82" x2="236.67" y2="223.08"/><line class="cls-1" x1="225.6" y1="193.98" x2="225.84" y2="193.7"/><line class="cls-1" x1="226.2" y1="193.63" x2="226.59" y2="193.77"/><line class="cls-1" x1="225.84" y1="193.7" x2="226.2" y2="193.63"/><line class="cls-1" x1="235.61" y1="198.98" x2="236" y2="199.29"/><line class="cls-1" x1="236.36" y1="199.77" x2="236.6" y2="200.32"/><line class="cls-1" x1="236" y1="199.29" x2="236.36" y2="199.77"/><line class="cls-1" x1="226.06" y1="205.51" x2="225.53" y2="205.21"/><line class="cls-1" x1="226.06" y1="206.74" x2="226.06" y2="205.51"/><line class="cls-1" x1="197.4" y1="190.19" x2="226.06" y2="206.74"/><line class="cls-1" x1="197.4" y1="188.97" x2="197.4" y2="190.19"/><line class="cls-1" x1="197.93" y1="189.27" x2="197.4" y2="188.97"/><line class="cls-1" x1="186.79" y1="172.02" x2="186.86" y2="171.61"/><line class="cls-1" x1="187.85" y1="171.4" x2="196.87" y2="176.61"/><line class="cls-1" x1="197.93" y1="178.45" x2="197.93" y2="189.27"/><line class="cls-1" x1="186.86" y1="171.61" x2="187.1" y2="171.33"/><line class="cls-1" x1="187.46" y1="171.26" x2="187.85" y2="171.4"/><line class="cls-1" x1="187.1" y1="171.33" x2="187.46" y2="171.26"/><line class="cls-1" x1="196.87" y1="176.61" x2="197.26" y2="176.92"/><line class="cls-1" x1="197.26" y1="176.92" x2="197.62" y2="177.4"/><line class="cls-1" x1="197.62" y1="177.4" x2="197.85" y2="177.96"/><line class="cls-1" x1="197.85" y1="177.96" x2="197.93" y2="178.45"/><line class="cls-1" x1="187.32" y1="194.59" x2="186.79" y2="194.28"/><line class="cls-1" x1="187.32" y1="195.81" x2="187.32" y2="194.59"/><line class="cls-1" x1="183.07" y1="193.36" x2="187.32" y2="195.81"/><line class="cls-1" x1="183.07" y1="192.14" x2="183.07" y2="193.36"/><line class="cls-1" x1="183.6" y1="192.44" x2="183.07" y2="192.14"/><line class="cls-1" x1="172.46" y1="163.74" x2="172.53" y2="163.33"/><line class="cls-1" x1="173.52" y1="163.13" x2="182.54" y2="168.34"/><line class="cls-1" x1="183.53" y1="169.68" x2="183.6" y2="170.18"/><line class="cls-1" x1="183.6" y1="170.18" x2="183.6" y2="192.44"/><line class="cls-1" x1="172.53" y1="163.33" x2="172.77" y2="163.05"/><line class="cls-1" x1="173.13" y1="162.99" x2="173.52" y2="163.13"/><line class="cls-1" x1="172.77" y1="163.05" x2="173.13" y2="162.99"/><line class="cls-1" x1="182.54" y1="168.34" x2="182.93" y2="168.65"/><line class="cls-1" x1="183.29" y1="169.13" x2="183.53" y2="169.68"/><line class="cls-1" x1="182.93" y1="168.65" x2="183.29" y2="169.13"/><line class="cls-1" x1="172.99" y1="174.87" x2="172.46" y2="174.57"/><line class="cls-1" x1="172.99" y1="176.1" x2="172.99" y2="174.87"/><line class="cls-1" x1="144.33" y1="159.55" x2="172.99" y2="176.1"/><line class="cls-1" x1="144.33" y1="158.33" x2="144.33" y2="159.55"/><line class="cls-1" x1="144.86" y1="158.63" x2="144.33" y2="158.33"/><line class="cls-1" x1="175.82" y1="167.93" x2="176.88" y2="167.32"/><line class="cls-1" x1="175.82" y1="166.7" x2="175.82" y2="167.93"/><line class="cls-1" x1="180.06" y1="169.77" x2="179.53" y2="170.07"/><line class="cls-1" x1="179.53" y1="170.07" x2="180.06" y2="170.38"/><line class="cls-1" x1="180.06" y1="174.06" x2="179.53" y2="173.75"/><line class="cls-1" x1="180.06" y1="175.28" x2="180.06" y2="174.06"/><line class="cls-1" x1="177.41" y1="171.91" x2="175.82" y2="172.83"/><line class="cls-1" x1="175.82" y1="172.83" x2="180.06" y2="175.28"/><line class="cls-1" x1="175.82" y1="171.61" x2="175.82" y2="172.83"/><line class="cls-1" x1="176.35" y1="171.91" x2="175.82" y2="171.61"/><line class="cls-1" x1="177.41" y1="167.62" x2="176.35" y2="168.24"/><line class="cls-1" x1="176.35" y1="168.24" x2="176.35" y2="171.91"/><line class="cls-1" x1="175.82" y1="167.93" x2="176.35" y2="168.24"/><line class="cls-1" x1="141.5" y1="147.5" x2="140.97" y2="147.81"/><line class="cls-1" x1="140.97" y1="147.81" x2="141.5" y2="148.12"/><line class="cls-1" x1="141.5" y1="151.79" x2="140.97" y2="151.49"/><line class="cls-1" x1="141.5" y1="153.02" x2="141.5" y2="151.79"/><line class="cls-1" x1="138.84" y1="149.65" x2="137.25" y2="150.57"/><line class="cls-1" x1="137.25" y1="150.57" x2="141.5" y2="153.02"/><line class="cls-1" x1="137.25" y1="149.34" x2="137.25" y2="150.57"/><line class="cls-1" x1="137.78" y1="149.65" x2="137.25" y2="149.34"/><line class="cls-1" x1="138.84" y1="145.36" x2="137.78" y2="145.97"/><line class="cls-1" x1="137.78" y1="145.97" x2="137.78" y2="149.65"/><line class="cls-1" x1="138.31" y1="145.05" x2="137.25" y2="145.66"/><line class="cls-1" x1="137.25" y1="145.66" x2="137.78" y2="145.97"/><line class="cls-1" x1="137.25" y1="144.44" x2="137.25" y2="145.66"/><line class="cls-1" x1="190.32" y1="181.21" x2="191.91" y2="180.29"/><line class="cls-1" x1="190.32" y1="179.98" x2="190.32" y2="181.21"/><line class="cls-1" x1="190.85" y1="180.29" x2="190.32" y2="179.98"/><line class="cls-1" x1="191.91" y1="176" x2="190.85" y2="176.61"/><line class="cls-1" x1="190.85" y1="176.61" x2="190.85" y2="180.29"/><line class="cls-1" x1="191.38" y1="175.69" x2="190.32" y2="176.3"/><line class="cls-1" x1="190.32" y1="176.3" x2="190.85" y2="176.61"/><line class="cls-1" x1="190.32" y1="175.08" x2="190.32" y2="176.3"/><line class="cls-1" x1="194.57" y1="178.14" x2="194.04" y2="178.45"/><line class="cls-1" x1="194.04" y1="178.45" x2="194.57" y2="178.76"/><line class="cls-1" x1="194.57" y1="182.43" x2="194.04" y2="182.13"/><line class="cls-1" x1="194.57" y1="183.66" x2="194.57" y2="182.43"/><line class="cls-1" x1="190.32" y1="181.21" x2="194.57" y2="183.66"/><line class="cls-1" x1="297" y1="237.89" x2="298.06" y2="237.28"/><line class="cls-1" x1="297.53" y1="236.97" x2="296.46" y2="237.58"/><line class="cls-1" x1="296.46" y1="237.58" x2="297" y2="237.89"/><line class="cls-1" x1="296.46" y1="236.36" x2="296.46" y2="237.58"/><line class="cls-1" x1="300.71" y1="239.42" x2="300.18" y2="239.73"/><line class="cls-1" x1="300.18" y1="239.73" x2="300.71" y2="240.04"/><line class="cls-1" x1="300.71" y1="243.71" x2="300.18" y2="243.41"/><line class="cls-1" x1="300.71" y1="244.94" x2="300.71" y2="243.71"/><line class="cls-1" x1="298.06" y1="241.57" x2="296.46" y2="242.49"/><line class="cls-1" x1="296.46" y1="242.49" x2="300.71" y2="244.94"/><line class="cls-1" x1="296.46" y1="241.26" x2="296.46" y2="242.49"/><line class="cls-1" x1="297" y1="241.57" x2="296.46" y2="241.26"/><line class="cls-1" x1="297" y1="237.89" x2="297" y2="241.57"/><line class="cls-1" x1="285.67" y1="231.35" x2="286.21" y2="231.05"/><line class="cls-1" x1="286.21" y1="235.34" x2="285.67" y2="235.03"/><line class="cls-1" x1="286.21" y1="236.56" x2="286.21" y2="235.34"/><line class="cls-1" x1="283.55" y1="233.19" x2="281.96" y2="234.11"/><line class="cls-1" x1="281.96" y1="234.11" x2="286.21" y2="236.56"/><line class="cls-1" x1="281.96" y1="232.89" x2="281.96" y2="234.11"/><line class="cls-1" x1="282.49" y1="233.19" x2="281.96" y2="232.89"/><line class="cls-1" x1="283.55" y1="228.9" x2="282.49" y2="229.52"/><line class="cls-1" x1="282.49" y1="229.52" x2="282.49" y2="233.19"/><line class="cls-1" x1="283.02" y1="228.6" x2="281.96" y2="229.21"/><line class="cls-1" x1="281.96" y1="229.21" x2="282.49" y2="229.52"/><line class="cls-1" x1="281.96" y1="227.98" x2="281.96" y2="229.21"/><line class="cls-1" x1="285.67" y1="231.35" x2="286.21" y2="231.66"/><line class="cls-1" x1="228.89" y1="198.57" x2="229.95" y2="197.96"/><line class="cls-1" x1="228.89" y1="197.34" x2="228.89" y2="198.57"/><line class="cls-1" x1="233.13" y1="200.41" x2="232.6" y2="200.71"/><line class="cls-1" x1="232.6" y1="200.71" x2="233.13" y2="201.02"/><line class="cls-1" x1="233.13" y1="204.7" x2="232.6" y2="204.39"/><line class="cls-1" x1="233.13" y1="205.92" x2="233.13" y2="204.7"/><line class="cls-1" x1="230.48" y1="202.55" x2="228.89" y2="203.47"/><line class="cls-1" x1="228.89" y1="203.47" x2="233.13" y2="205.92"/><line class="cls-1" x1="228.89" y1="202.25" x2="228.89" y2="203.47"/><line class="cls-1" x1="229.42" y1="202.55" x2="228.89" y2="202.25"/><line class="cls-1" x1="230.48" y1="198.26" x2="229.42" y2="198.88"/><line class="cls-1" x1="229.42" y1="198.88" x2="229.42" y2="202.55"/><line class="cls-1" x1="228.89" y1="198.57" x2="229.42" y2="198.88"/><line class="cls-1" x1="243.39" y1="211.85" x2="244.99" y2="210.93"/><line class="cls-1" x1="243.39" y1="210.62" x2="243.39" y2="211.85"/><line class="cls-1" x1="243.92" y1="210.93" x2="243.39" y2="210.62"/><line class="cls-1" x1="244.99" y1="206.64" x2="243.92" y2="207.25"/><line class="cls-1" x1="243.92" y1="207.25" x2="243.92" y2="210.93"/><line class="cls-1" x1="244.46" y1="206.33" x2="243.39" y2="206.94"/><line class="cls-1" x1="243.39" y1="206.94" x2="243.92" y2="207.25"/><line class="cls-1" x1="243.39" y1="205.72" x2="243.39" y2="206.94"/><line class="cls-1" x1="247.64" y1="208.78" x2="247.11" y2="209.09"/><line class="cls-1" x1="247.11" y1="209.09" x2="247.64" y2="209.4"/><line class="cls-1" x1="247.64" y1="213.07" x2="247.11" y2="212.77"/><line class="cls-1" x1="247.64" y1="214.3" x2="247.64" y2="213.07"/><line class="cls-1" x1="243.39" y1="211.85" x2="247.64" y2="214.3"/><line class="cls-1" x1="133.71" y1="163.64" x2="133.71" y2="163.03"/><line class="cls-1" x1="133.71" y1="163.03" x2="133.71" y2="141.37"/><line class="cls-1" x1="105.59" y1="147.4" x2="105.59" y2="146.79"/><line class="cls-1" x1="105.59" y1="146.79" x2="105.59" y2="137.19"/><line class="cls-1" x1="118.77" y1="161.03" x2="116.64" y2="159.81"/><line class="cls-1" x1="118.77" y1="162.26" x2="118.77" y2="161.65"/><line class="cls-1" x1="118.77" y1="161.65" x2="118.77" y2="161.03"/><line class="cls-1" x1="292.93" y1="255.56" x2="292.93" y2="254.95"/><line class="cls-1" x1="292.93" y1="254.95" x2="292.93" y2="233.3"/><line class="cls-1" x1="278.6" y1="235.85" x2="278.6" y2="235.24"/><line class="cls-1" x1="278.6" y1="235.24" x2="278.6" y2="225.02"/><line class="cls-1" x1="239.86" y1="224.92" x2="239.86" y2="224.31"/><line class="cls-1" x1="239.86" y1="224.31" x2="239.86" y2="202.66"/><line class="cls-1" x1="225.53" y1="205.21" x2="225.53" y2="204.6"/><line class="cls-1" x1="225.53" y1="204.6" x2="225.53" y2="194.38"/><line class="cls-1" x1="186.79" y1="194.28" x2="186.79" y2="193.67"/><line class="cls-1" x1="186.79" y1="193.67" x2="186.79" y2="172.02"/><line class="cls-1" x1="172.46" y1="174.57" x2="172.46" y2="173.96"/><line class="cls-1" x1="172.46" y1="173.96" x2="172.46" y2="163.74"/><line class="cls-1" x1="180.06" y1="169.16" x2="177.94" y2="167.93"/><line class="cls-1" x1="180.06" y1="170.38" x2="180.06" y2="169.77"/><line class="cls-1" x1="180.06" y1="169.77" x2="180.06" y2="169.16"/><line class="cls-1" x1="179.53" y1="173.75" x2="179.53" y2="173.14"/><line class="cls-1" x1="179.53" y1="173.14" x2="179.53" y2="170.07"/><line class="cls-1" x1="177.94" y1="170.99" x2="177.41" y2="171.3"/><line class="cls-1" x1="177.41" y1="171.3" x2="176.35" y2="171.91"/><line class="cls-1" x1="141.5" y1="146.89" x2="139.37" y2="145.66"/><line class="cls-1" x1="141.5" y1="148.12" x2="141.5" y2="147.5"/><line class="cls-1" x1="141.5" y1="147.5" x2="141.5" y2="146.89"/><line class="cls-1" x1="140.97" y1="151.49" x2="140.97" y2="150.87"/><line class="cls-1" x1="140.97" y1="150.87" x2="140.97" y2="147.81"/><line class="cls-1" x1="139.37" y1="148.73" x2="138.84" y2="149.03"/><line class="cls-1" x1="138.84" y1="149.03" x2="137.78" y2="149.65"/><line class="cls-1" x1="192.45" y1="179.37" x2="191.91" y2="179.67"/><line class="cls-1" x1="191.91" y1="179.67" x2="190.85" y2="180.29"/><line class="cls-1" x1="194.57" y1="177.53" x2="192.45" y2="176.3"/><line class="cls-1" x1="194.57" y1="178.76" x2="194.57" y2="178.14"/><line class="cls-1" x1="194.57" y1="178.14" x2="194.57" y2="177.53"/><line class="cls-1" x1="194.04" y1="182.13" x2="194.04" y2="181.51"/><line class="cls-1" x1="194.04" y1="181.51" x2="194.04" y2="178.45"/><line class="cls-1" x1="300.71" y1="238.81" x2="298.59" y2="237.58"/><line class="cls-1" x1="300.71" y1="240.04" x2="300.71" y2="239.42"/><line class="cls-1" x1="300.71" y1="239.42" x2="300.71" y2="238.81"/><line class="cls-1" x1="300.18" y1="243.41" x2="300.18" y2="242.8"/><line class="cls-1" x1="300.18" y1="242.8" x2="300.18" y2="239.73"/><line class="cls-1" x1="298.59" y1="240.65" x2="298.06" y2="240.96"/><line class="cls-1" x1="298.06" y1="240.96" x2="297" y2="241.57"/><line class="cls-1" x1="285.67" y1="235.03" x2="285.67" y2="234.42"/><line class="cls-1" x1="285.67" y1="234.42" x2="285.67" y2="231.35"/><line class="cls-1" x1="284.08" y1="232.27" x2="283.55" y2="232.58"/><line class="cls-1" x1="283.55" y1="232.58" x2="282.49" y2="233.19"/><line class="cls-1" x1="286.21" y1="230.44" x2="284.08" y2="229.21"/><line class="cls-1" x1="286.21" y1="231.66" x2="286.21" y2="231.05"/><line class="cls-1" x1="286.21" y1="231.05" x2="286.21" y2="230.44"/><line class="cls-1" x1="233.13" y1="199.8" x2="231.01" y2="198.57"/><line class="cls-1" x1="233.13" y1="201.02" x2="233.13" y2="200.41"/><line class="cls-1" x1="233.13" y1="200.41" x2="233.13" y2="199.8"/><line class="cls-1" x1="232.6" y1="204.39" x2="232.6" y2="203.78"/><line class="cls-1" x1="232.6" y1="203.78" x2="232.6" y2="200.71"/><line class="cls-1" x1="231.01" y1="201.63" x2="230.48" y2="201.94"/><line class="cls-1" x1="230.48" y1="201.94" x2="229.42" y2="202.55"/><line class="cls-1" x1="245.52" y1="210.01" x2="244.99" y2="210.31"/><line class="cls-1" x1="244.99" y1="210.31" x2="243.92" y2="210.93"/><line class="cls-1" x1="247.64" y1="208.17" x2="245.52" y2="206.94"/><line class="cls-1" x1="247.64" y1="209.4" x2="247.64" y2="208.78"/><line class="cls-1" x1="247.64" y1="208.78" x2="247.64" y2="208.17"/><line class="cls-1" x1="247.11" y1="212.77" x2="247.11" y2="212.15"/><line class="cls-1" x1="247.11" y1="212.15" x2="247.11" y2="209.09"/><line class="cls-1" x1="116.64" y1="159.81" x2="116.11" y2="159.5"/><line class="cls-1" x1="177.94" y1="167.93" x2="177.41" y2="167.62"/><line class="cls-1" x1="139.37" y1="145.66" x2="138.84" y2="145.36"/><line class="cls-1" x1="192.45" y1="176.3" x2="191.91" y2="176"/><line class="cls-1" x1="298.59" y1="237.58" x2="298.06" y2="237.28"/><line class="cls-1" x1="284.08" y1="229.21" x2="283.55" y2="228.9"/><line class="cls-1" x1="231.01" y1="198.57" x2="230.48" y2="198.26"/><line class="cls-1" x1="245.52" y1="206.94" x2="244.99" y2="206.64"/><line class="cls-1" x1="116.11" y1="159.5" x2="115.58" y2="159.2"/><line class="cls-1" x1="115.58" y1="159.2" x2="114.52" y2="158.58"/><line class="cls-1" x1="177.41" y1="167.62" x2="176.88" y2="167.32"/><line class="cls-1" x1="176.88" y1="167.32" x2="175.82" y2="166.7"/><line class="cls-1" x1="138.84" y1="145.36" x2="138.31" y2="145.05"/><line class="cls-1" x1="138.31" y1="145.05" x2="137.25" y2="144.44"/><line class="cls-1" x1="191.91" y1="176" x2="191.38" y2="175.69"/><line class="cls-1" x1="191.38" y1="175.69" x2="190.32" y2="175.08"/><line class="cls-1" x1="298.06" y1="237.28" x2="297.53" y2="236.97"/><line class="cls-1" x1="297.53" y1="236.97" x2="296.46" y2="236.36"/><line class="cls-1" x1="283.55" y1="228.9" x2="283.02" y2="228.6"/><line class="cls-1" x1="283.02" y1="228.6" x2="281.96" y2="227.98"/><line class="cls-1" x1="230.48" y1="198.26" x2="229.95" y2="197.96"/><line class="cls-1" x1="229.95" y1="197.96" x2="228.89" y2="197.34"/><line class="cls-1" x1="244.99" y1="206.64" x2="244.46" y2="206.33"/><line class="cls-1" x1="244.46" y1="206.33" x2="243.39" y2="205.72"/><line class="cls-1" x1="146.45" y1="146.89" x2="146.45" y2="157.72"/><line class="cls-1" x1="145.92" y1="158.63" x2="172.46" y2="173.96"/><line class="cls-1" x1="184.66" y1="192.44" x2="186.79" y2="193.67"/><line class="cls-1" x1="198.99" y1="189.27" x2="225.53" y2="204.6"/><line class="cls-1" x1="237.73" y1="223.08" x2="239.86" y2="224.31"/><line class="cls-1" x1="252.06" y1="219.92" x2="278.6" y2="235.24"/><line class="cls-1" x1="290.8" y1="253.72" x2="292.93" y2="254.95"/><line class="cls-1" x1="305.13" y1="250.56" x2="319.46" y2="258.83"/><line class="cls-1" x1="319.46" y1="258.83" x2="319.46" y2="297.64"/><line class="cls-1" x1="116.64" y1="159.81" x2="116.64" y2="180.54"/><line class="cls-1" x1="107.18" y1="136.27" x2="132.12" y2="150.67"/><line class="cls-1" x1="132.12" y1="150.67" x2="132.12" y2="160.88"/><line class="cls-1" x1="131.59" y1="161.8" x2="133.71" y2="163.03"/><line class="cls-1" x1="134.03" y1="140.69" x2="135.62" y2="139.77"/><line class="cls-1" x1="130" y1="162.72" x2="131.59" y2="161.8"/><line class="cls-1" x1="132.12" y1="160.88" x2="131.59" y2="161.19"/><line class="cls-1" x1="130.53" y1="161.8" x2="131.59" y2="161.19"/><line class="cls-1" x1="103.99" y1="147.71" x2="105.59" y2="146.79"/><line class="cls-1" x1="115.05" y1="160.12" x2="116.11" y2="159.5"/><line class="cls-1" x1="114.52" y1="159.81" x2="115.58" y2="159.2"/><line class="cls-1" x1="118.77" y1="161.65" x2="118.23" y2="161.95"/><line class="cls-1" x1="118.23" y1="183.3" x2="317.87" y2="298.56"/><line class="cls-1" x1="303.54" y1="251.48" x2="305.13" y2="250.56"/><line class="cls-1" x1="305.67" y1="249.64" x2="305.13" y2="249.94"/><line class="cls-1" x1="293.24" y1="232.61" x2="294.83" y2="231.69"/><line class="cls-1" x1="304.07" y1="250.56" x2="305.13" y2="249.94"/><line class="cls-1" x1="289.21" y1="254.64" x2="290.8" y2="253.72"/><line class="cls-1" x1="291.33" y1="252.8" x2="290.8" y2="253.11"/><line class="cls-1" x1="278.91" y1="224.34" x2="280.5" y2="223.42"/><line class="cls-1" x1="289.74" y1="253.72" x2="290.8" y2="253.11"/><line class="cls-1" x1="250.47" y1="220.84" x2="252.06" y2="219.92"/><line class="cls-1" x1="252.59" y1="219" x2="252.06" y2="219.3"/><line class="cls-1" x1="240.17" y1="201.97" x2="241.76" y2="201.05"/><line class="cls-1" x1="251" y1="219.92" x2="252.06" y2="219.3"/><line class="cls-1" x1="236.14" y1="224" x2="237.73" y2="223.08"/><line class="cls-1" x1="238.26" y1="222.16" x2="237.73" y2="222.47"/><line class="cls-1" x1="225.84" y1="193.7" x2="227.43" y2="192.78"/><line class="cls-1" x1="236.67" y1="223.08" x2="237.73" y2="222.47"/><line class="cls-1" x1="197.4" y1="190.19" x2="198.99" y2="189.27"/><line class="cls-1" x1="199.52" y1="188.36" x2="198.99" y2="188.66"/><line class="cls-1" x1="187.1" y1="171.33" x2="188.69" y2="170.41"/><line class="cls-1" x1="197.93" y1="189.27" x2="198.99" y2="188.66"/><line class="cls-1" x1="183.07" y1="193.36" x2="184.66" y2="192.44"/><line class="cls-1" x1="185.19" y1="191.52" x2="184.66" y2="191.83"/><line class="cls-1" x1="172.77" y1="163.05" x2="174.36" y2="162.13"/><line class="cls-1" x1="183.6" y1="192.44" x2="184.66" y2="191.83"/><line class="cls-1" x1="144.33" y1="159.55" x2="145.92" y2="158.63"/><line class="cls-1" x1="146.45" y1="157.72" x2="145.92" y2="158.02"/><line class="cls-1" x1="144.86" y1="158.63" x2="145.92" y2="158.02"/><line class="cls-1" x1="144.86" y1="147.81" x2="144.86" y2="158.63"/><polygon class="cls-2" points="104.07 148.2 105.66 147.28 105.66 137.68 107.25 136.76 132.19 151.16 132.19 161.38 131.66 161.68 131.66 162.3 133.78 163.52 133.78 141.87 133.86 141.46 134.1 141.18 135.69 140.26 136.05 140.2 136.44 140.34 145.46 145.54 145.85 145.86 146.21 146.34 146.45 146.89 146.52 147.38 146.52 158.21 145.99 158.52 145.99 159.13 172.53 174.45 172.53 164.24 172.6 163.83 172.84 163.55 174.43 162.63 174.79 162.56 175.18 162.71 184.2 167.91 184.6 168.22 184.95 168.71 185.19 169.26 185.27 169.75 185.27 192.02 184.74 192.32 184.74 192.94 186.86 194.16 186.86 172.51 186.93 172.1 187.17 171.82 188.76 170.9 189.12 170.84 189.51 170.98 198.53 176.19 198.93 176.5 199.28 176.98 199.52 177.53 199.59 178.03 199.59 188.85 199.06 189.16 199.06 189.77 225.6 205.09 225.6 194.88 225.68 194.47 225.91 194.19 227.5 193.27 227.86 193.21 228.25 193.34 237.28 198.55 237.67 198.87 238.03 199.35 238.26 199.9 238.34 200.39 238.34 222.66 237.81 222.97 237.81 223.58 239.93 224.8 239.93 203.15 240 202.74 240.24 202.46 241.83 201.54 242.19 201.48 242.58 201.62 251.6 206.83 252 207.14 252.35 207.62 252.59 208.17 252.66 208.67 252.66 219.49 252.13 219.8 252.13 220.41 278.67 235.73 278.67 225.52 278.75 225.11 278.98 224.83 280.57 223.91 280.93 223.85 281.32 223.99 290.35 229.19 290.74 229.51 291.1 229.99 291.33 230.54 291.41 231.03 291.41 253.3 290.88 253.61 290.88 254.22 293 255.44 293 233.79 293.07 233.38 293.31 233.1 294.9 232.18 295.26 232.12 295.65 232.26 304.68 237.47 305.06 237.78 305.43 238.26 305.66 238.81 305.74 239.31 305.74 250.13 305.2 250.44 305.2 251.05 319.53 259.32 319.53 298.14 317.94 299.06 118.31 183.8 118.31 162.45 118.84 162.14 118.84 161.53 116.72 160.3 116.72 181.04 115.12 181.96 104.07 175.57 104.07 148.2"/></svg>