<svg id="Layer_1" data-name="Layer 1" xmlns="http://www.w3.org/2000/svg" viewBox="0 0 212.6 425.2"><defs><style>.cls-1{font-size:5.3px;fill:#1d1d1b;font-family:Monotxt;}.cls-2,.cls-3{fill:none;stroke:#1d1d1b;stroke-miterlimit:10;}.cls-2{stroke-width:0.5px;}.cls-3{stroke-width:0.25px;}</style></defs><g id="MTEXT"><text class="cls-1" transform="translate(77.68 248.89) rotate(-90)">COMB-A/END-X3</text></g><g id="MTEXT-2" data-name="MTEXT"><text class="cls-1" transform="translate(134.24 199.63) rotate(90)">COMB-A/END-X3</text></g><g id="POLYLINE"><polygon class="cls-2" points="177.49 274.92 179.37 274.92 179.37 275.83 184.71 275.83 184.71 274.92 186.59 274.92 186.59 282.22 184.71 282.22 184.71 281.31 179.37 281.31 179.37 282.22 177.49 282.22 177.49 274.92"/></g><g id="POLYLINE-2" data-name="POLYLINE"><polygon class="cls-2" points="184.71 250.26 186.59 250.26 186.59 257.55 184.71 257.55 184.71 256.65 179.37 256.65 179.37 257.55 177.49 257.55 177.49 250.26 179.37 250.26 179.37 251.16 184.71 251.16 184.71 250.26"/></g><g id="POLYLINE-3" data-name="POLYLINE"><polygon class="cls-2" points="184.71 346.89 179.37 346.89 179.37 347.79 177.49 347.79 177.49 340.5 179.37 340.5 179.37 341.4 184.71 341.4 184.71 340.5 186.59 340.5 186.59 347.79 184.71 347.79 184.71 346.89"/></g><g id="POLYLINE-4" data-name="POLYLINE"><polygon class="cls-2" points="184.71 366.06 179.37 366.06 179.37 365.16 177.49 365.16 177.49 372.46 179.37 372.46 179.37 371.55 184.71 371.55 184.71 372.46 186.59 372.46 186.59 365.16 184.71 365.16 184.71 366.06"/></g><g id="POLYLINE-5" data-name="POLYLINE"><polygon class="cls-2" points="177.49 184.69 179.37 184.69 179.37 185.59 184.71 185.59 184.71 184.69 186.59 184.69 186.59 191.98 184.71 191.98 184.71 191.08 179.37 191.08 179.37 191.98 177.49 191.98 177.49 184.69"/></g><g id="POLYLINE-6" data-name="POLYLINE"><polygon class="cls-2" points="186.59 94.45 186.59 101.74 184.71 101.74 184.71 100.84 179.37 100.84 179.37 101.74 177.49 101.74 177.49 94.45 179.37 94.45 179.37 95.35 184.71 95.35 184.71 94.45 186.59 94.45"/></g><g id="POLYLINE-7" data-name="POLYLINE"><polygon class="cls-2" points="184.71 160.02 186.59 160.02 186.59 167.31 184.71 167.31 184.71 166.41 179.37 166.41 179.37 167.31 177.49 167.31 177.49 160.02 179.37 160.02 179.37 160.92 184.71 160.92 184.71 160.02"/></g><g id="POLYLINE-8" data-name="POLYLINE"><polygon class="cls-2" points="31.73 274.92 29.85 274.92 29.85 275.83 24.51 275.83 24.51 274.92 22.63 274.92 22.63 282.22 24.51 282.22 24.51 281.31 29.85 281.31 29.85 282.22 31.73 282.22 31.73 274.92"/></g><g id="POLYLINE-9" data-name="POLYLINE"><polygon class="cls-2" points="24.51 250.26 22.63 250.26 22.63 257.55 24.51 257.55 24.51 256.65 29.85 256.65 29.85 257.55 31.73 257.55 31.73 250.26 29.85 250.26 29.85 251.16 24.51 251.16 24.51 250.26"/></g><g id="POLYLINE-10" data-name="POLYLINE"><polygon class="cls-2" points="24.51 346.89 29.85 346.89 29.85 347.79 31.73 347.79 31.73 340.5 29.85 340.5 29.85 341.4 24.51 341.4 24.51 340.5 22.63 340.5 22.63 347.79 24.51 347.79 24.51 346.89"/></g><g id="POLYLINE-11" data-name="POLYLINE"><polygon class="cls-2" points="24.51 366.06 29.85 366.06 29.85 365.16 31.73 365.16 31.73 372.46 29.85 372.46 29.85 371.55 24.51 371.55 24.51 372.46 22.63 372.46 22.63 365.16 24.51 365.16 24.51 366.06"/></g><g id="POLYLINE-12" data-name="POLYLINE"><polygon class="cls-2" points="31.73 184.69 29.85 184.69 29.85 185.59 24.51 185.59 24.51 184.69 22.63 184.69 22.63 191.98 24.51 191.98 24.51 191.08 29.85 191.08 29.85 191.98 31.73 191.98 31.73 184.69"/></g><g id="POLYLINE-13" data-name="POLYLINE"><polygon class="cls-2" points="22.63 94.45 22.63 101.74 24.51 101.74 24.51 100.84 29.85 100.84 29.85 101.74 31.73 101.74 31.73 94.45 29.85 94.45 29.85 95.35 24.51 95.35 24.51 94.45 22.63 94.45"/></g><g id="POLYLINE-14" data-name="POLYLINE"><polygon class="cls-2" points="24.51 160.02 22.63 160.02 22.63 167.31 24.51 167.31 24.51 166.41 29.85 166.41 29.85 167.31 31.73 167.31 31.73 160.02 29.85 160.02 29.85 160.92 24.51 160.92 24.51 160.02"/></g><g id="POLYLINE-15" data-name="POLYLINE"><path class="cls-2" d="M188.06,107.38a1.77,1.77,0,0,0,1.77-1.77V90.27a1.77,1.77,0,0,0-1.77-1.76H155.31v.9h-1.88v-7.3h1.88V83h15V40.68h-15v.9h-1.88V38H113.2V56.7h31.36v-.91h1.88v7.3h-1.88v-.9H113.2V401.56h57.07V377.19h1.88v.91h15.91a1.77,1.77,0,0,0,1.77-1.77V361a1.77,1.77,0,0,0-1.77-1.77H155.31v.9h-1.88v-7.29h1.88v.9h32.75a1.77,1.77,0,0,0,1.77-1.76V336.62a1.77,1.77,0,0,0-1.77-1.76H172.15v.9h-1.88V287h1.88v.9h15.91a1.77,1.77,0,0,0,1.77-1.77V270.75a1.77,1.77,0,0,0-1.77-1.77H155.31v.91h-1.88v-7.3h1.88v.9h32.75a1.77,1.77,0,0,0,1.77-1.76V246.39a1.77,1.77,0,0,0-1.77-1.77H172.15v.9h-1.88v-48.8h1.88v.9h15.91a1.77,1.77,0,0,0,1.77-1.77V180.51a1.78,1.78,0,0,0-1.77-1.77H155.31v.91h-1.88v-7.3h1.88v.9h32.75a1.77,1.77,0,0,0,1.77-1.76V156.15a1.77,1.77,0,0,0-1.77-1.77H172.15v.9h-1.88v-48.8h1.88v.9Z"/></g><g id="POLYLINE-16" data-name="POLYLINE"><path class="cls-2" d="M21.16,107.38a1.77,1.77,0,0,1-1.77-1.77V90.27a1.76,1.76,0,0,1,1.77-1.76H53.91v.9h1.88v-7.3H53.91V83h-15V40.68h15v.9h1.88V38H96V56.7H64.66v-.91H62.78v7.3h1.88v-.9H96V401.56H38.94V377.19H37.06v.91H21.16a1.77,1.77,0,0,1-1.77-1.77V361a1.77,1.77,0,0,1,1.77-1.77H53.91v.9h1.88v-7.29H53.91v.9H21.16A1.76,1.76,0,0,1,19.39,352V336.62a1.76,1.76,0,0,1,1.77-1.76h15.9v.9h1.88V287H37.06v.9H21.16a1.77,1.77,0,0,1-1.77-1.77V270.75A1.77,1.77,0,0,1,21.16,269H53.91v.91h1.88v-7.3H53.91v.9H21.16a1.76,1.76,0,0,1-1.77-1.76V246.39a1.77,1.77,0,0,1,1.77-1.77h15.9v.9h1.88v-48.8H37.06v.9H21.16a1.77,1.77,0,0,1-1.77-1.77V180.51a1.77,1.77,0,0,1,1.77-1.77H53.91v.91h1.88v-7.3H53.91v.9H21.16a1.76,1.76,0,0,1-1.77-1.76V156.15a1.77,1.77,0,0,1,1.77-1.77h15.9v.9h1.88v-48.8H37.06v.9Z"/></g><g id="POLYLINE-17" data-name="POLYLINE"><rect class="cls-3" x="12.87" y="36.43" width="183.49" height="366.97"/></g></svg>