<svg id="Layer_1" data-name="Layer 1" xmlns="http://www.w3.org/2000/svg" viewBox="0 0 212.6 425.2"><defs><style>.cls-1,.cls-2{fill:none;stroke:#1d1d1b;stroke-miterlimit:10;}.cls-1{stroke-width:0.5px;}.cls-2{stroke-width:0.25px;}.cls-3{font-size:5.3px;fill:#1d1d1b;font-family:Monotxt;}</style></defs><g id="POLYLINE"><path class="cls-1" d="M108.54,76.77A1.72,1.72,0,0,1,106.81,75V34.54H177.9V58.89h2V58h15.85a1.73,1.73,0,0,1,1.73,1.73V75a1.72,1.72,0,0,1-1.73,1.73H163v-.9h-2v7.36h2v-.9h32.69a1.73,1.73,0,0,1,1.73,1.73V99.39a1.72,1.72,0,0,1-1.73,1.73H179.86v-.9h-2v48.85h2v-.91h15.85a1.73,1.73,0,0,1,1.73,1.73v15.33a1.72,1.72,0,0,1-1.73,1.73H163v-.9h-2v7.36h2v-.9h32.69a1.73,1.73,0,0,1,1.73,1.73v15.33a1.72,1.72,0,0,1-1.73,1.73H179.86v-.9h-2v48.84h2v-.9h15.85a1.73,1.73,0,0,1,1.73,1.73V255.4a1.72,1.72,0,0,1-1.73,1.73H163v-.9h-2v7.36h2v-.9h32.69a1.73,1.73,0,0,1,1.73,1.73v15.33a1.72,1.72,0,0,1-1.73,1.73H179.86v-.9h-2v48.84h2v-.9h15.85a1.73,1.73,0,0,1,1.73,1.73v15.33a1.72,1.72,0,0,1-1.73,1.73H163v-.9h-2v7.36h2v-.9h32.69a1.72,1.72,0,0,1,1.73,1.73v15.33a1.73,1.73,0,0,1-1.73,1.73H179.86v-.9h-2V395.1H106.81V354.6a1.72,1.72,0,0,1,1.73-1.73h5.93v.9h2v-7.36h-2v.9h-5.93a1.72,1.72,0,0,1-1.73-1.73V264.42a1.73,1.73,0,0,1,1.73-1.73h5.93v.9h2v-7.36h-2v.9h-5.93a1.72,1.72,0,0,1-1.73-1.73V174.24a1.73,1.73,0,0,1,1.73-1.73h5.93v.9h2v-7.36h-2v.9h-5.93a1.72,1.72,0,0,1-1.73-1.73V84.06a1.73,1.73,0,0,1,1.73-1.73h5.93v.9h2V75.87h-2v.9Z"/></g><g id="POLYLINE-2" data-name="POLYLINE"><path class="cls-1" d="M103.13,76.77A1.73,1.73,0,0,0,104.86,75V34.54H33.76V58.89H31.81V58H16a1.73,1.73,0,0,0-1.72,1.73V75A1.72,1.72,0,0,0,16,76.77H48.64v-.9h2v7.36h-2v-.9H16a1.73,1.73,0,0,0-1.72,1.73V99.39A1.72,1.72,0,0,0,16,101.12H31.81v-.9h1.95v48.85H31.81v-.91H16a1.73,1.73,0,0,0-1.72,1.73v15.33A1.72,1.72,0,0,0,16,167H48.64v-.9h2v7.36h-2v-.9H16a1.73,1.73,0,0,0-1.72,1.73v15.33A1.72,1.72,0,0,0,16,191.3H31.81v-.9h1.95v48.84H31.81v-.9H16a1.73,1.73,0,0,0-1.72,1.73V255.4A1.72,1.72,0,0,0,16,257.13H48.64v-.9h2v7.36h-2v-.9H16a1.73,1.73,0,0,0-1.72,1.73v15.33A1.72,1.72,0,0,0,16,281.48H31.81v-.9h1.95v48.84H31.81v-.9H16a1.73,1.73,0,0,0-1.72,1.73v15.33A1.72,1.72,0,0,0,16,347.31H48.64v-.9h2v7.36h-2v-.9H16a1.72,1.72,0,0,0-1.72,1.73v15.33A1.73,1.73,0,0,0,16,371.66H31.81v-.9h1.95V395.1h71.1V354.6a1.73,1.73,0,0,0-1.73-1.73H97.19v.9h-2v-7.36h2v.9h5.94a1.73,1.73,0,0,0,1.73-1.73V264.42a1.74,1.74,0,0,0-1.73-1.73H97.19v.9h-2v-7.36h2v.9h5.94a1.73,1.73,0,0,0,1.73-1.73V174.24a1.74,1.74,0,0,0-1.73-1.73H97.19v.9h-2v-7.36h2v.9h5.94a1.73,1.73,0,0,0,1.73-1.73V84.06a1.74,1.74,0,0,0-1.73-1.73H97.19v.9h-2V75.87h2v.9Z"/></g><g id="POLYLINE-3" data-name="POLYLINE"><rect class="cls-2" x="14.15" y="29.95" width="183.36" height="366.73"/></g><g id="POLYLINE-4" data-name="POLYLINE"><polygon class="cls-1" points="117.22 184.8 117.22 185.7 119.1 185.7 119.1 178.41 117.22 178.41 117.22 179.31 111.88 179.31 111.88 178.41 110 178.41 110 185.7 111.88 185.7 111.88 184.8 117.22 184.8"/></g><g id="POLYLINE-5" data-name="POLYLINE"><polygon class="cls-1" points="185.15 178.41 185.15 185.7 187.03 185.7 187.03 184.8 192.37 184.8 192.37 185.7 194.25 185.7 194.25 178.41 192.37 178.41 192.37 179.31 187.03 179.31 187.03 178.41 185.15 178.41"/></g><g id="POLYLINE-6" data-name="POLYLINE"><polygon class="cls-1" points="185.15 251.23 187.03 251.23 187.03 250.33 192.37 250.33 192.37 251.23 194.25 251.23 194.25 243.94 192.37 243.94 192.37 244.84 187.03 244.84 187.03 243.94 185.15 243.94 185.15 251.23"/></g><g id="POLYLINE-7" data-name="POLYLINE"><polygon class="cls-1" points="117.22 244.84 111.88 244.84 111.88 243.94 110 243.94 110 251.23 111.88 251.23 111.88 250.33 117.22 250.33 117.22 251.23 119.1 251.23 119.1 243.94 117.22 243.94 117.22 244.84"/></g><g id="POLYLINE-8" data-name="POLYLINE"><polygon class="cls-1" points="111.88 275.88 111.88 274.98 117.22 274.98 117.22 275.88 119.1 275.88 119.1 268.59 117.22 268.59 117.22 269.49 111.88 269.49 111.88 268.59 110 268.59 110 275.88 111.88 275.88"/></g><g id="POLYLINE-9" data-name="POLYLINE"><polygon class="cls-1" points="187.03 274.98 192.37 274.98 192.37 275.88 194.25 275.88 194.25 268.59 192.37 268.59 192.37 269.49 187.03 269.49 187.03 268.59 185.15 268.59 185.15 275.88 187.03 275.88 187.03 274.98"/></g><g id="POLYLINE-10" data-name="POLYLINE"><polygon class="cls-1" points="187.03 341.41 187.03 340.51 192.37 340.51 192.37 341.41 194.25 341.41 194.25 334.12 192.37 334.12 192.37 335.02 187.03 335.02 187.03 334.12 185.15 334.12 185.15 341.41 187.03 341.41"/></g><g id="POLYLINE-11" data-name="POLYLINE"><polygon class="cls-1" points="111.88 334.12 110 334.12 110 341.41 111.88 341.41 111.88 340.51 117.22 340.51 117.22 341.41 119.1 341.41 119.1 334.12 117.22 334.12 117.22 335.02 111.88 335.02 111.88 334.12"/></g><g id="POLYLINE-12" data-name="POLYLINE"><polygon class="cls-1" points="192.37 359.67 187.03 359.67 187.03 358.77 185.15 358.77 185.15 366.06 187.03 366.06 187.03 365.16 192.37 365.16 192.37 366.06 194.25 366.06 194.25 358.77 192.37 358.77 192.37 359.67"/></g><g id="POLYLINE-13" data-name="POLYLINE"><polygon class="cls-1" points="111.88 366.06 111.88 365.16 117.22 365.16 117.22 366.06 119.1 366.06 119.1 358.77 117.22 358.77 117.22 359.67 111.88 359.67 111.88 358.77 110 358.77 110 366.06 111.88 366.06"/></g><g id="POLYLINE-14" data-name="POLYLINE"><polygon class="cls-1" points="117.22 94.62 117.22 95.52 119.1 95.52 119.1 88.23 117.22 88.23 117.22 89.13 111.88 89.13 111.88 88.23 110 88.23 110 95.52 111.88 95.52 111.88 94.62 117.22 94.62"/></g><g id="POLYLINE-15" data-name="POLYLINE"><polygon class="cls-1" points="185.15 88.23 185.15 95.52 187.03 95.52 187.03 94.62 192.37 94.62 192.37 95.52 194.25 95.52 194.25 88.23 192.37 88.23 192.37 89.13 187.03 89.13 187.03 88.23 185.15 88.23"/></g><g id="POLYLINE-16" data-name="POLYLINE"><polygon class="cls-1" points="185.15 161.05 187.03 161.05 187.03 160.15 192.37 160.15 192.37 161.05 194.25 161.05 194.25 153.76 192.37 153.76 192.37 154.66 187.03 154.66 187.03 153.76 185.15 153.76 185.15 161.05"/></g><g id="POLYLINE-17" data-name="POLYLINE"><polygon class="cls-1" points="117.22 154.66 111.88 154.66 111.88 153.76 110 153.76 110 161.05 111.88 161.05 111.88 160.15 117.22 160.15 117.22 161.05 119.1 161.05 119.1 153.76 117.22 153.76 117.22 154.66"/></g><g id="POLYLINE-18" data-name="POLYLINE"><polygon class="cls-1" points="192.37 69.97 187.03 69.97 187.03 70.87 185.15 70.87 185.15 63.58 187.03 63.58 187.03 64.48 192.37 64.48 192.37 63.58 194.25 63.58 194.25 70.87 192.37 70.87 192.37 69.97"/></g><g id="POLYLINE-19" data-name="POLYLINE"><polygon class="cls-1" points="111.88 63.58 111.88 64.48 117.22 64.48 117.22 63.58 119.1 63.58 119.1 70.87 117.22 70.87 117.22 69.97 111.88 69.97 111.88 70.87 110 70.87 110 63.58 111.88 63.58"/></g><g id="POLYLINE-20" data-name="POLYLINE"><polygon class="cls-1" points="94.45 184.8 94.45 185.7 92.57 185.7 92.57 178.41 94.45 178.41 94.45 179.31 99.78 179.31 99.78 178.41 101.66 178.41 101.66 185.7 99.78 185.7 99.78 184.8 94.45 184.8"/></g><g id="POLYLINE-21" data-name="POLYLINE"><polygon class="cls-1" points="26.51 178.41 26.51 185.7 24.63 185.7 24.63 184.8 19.3 184.8 19.3 185.7 17.42 185.7 17.42 178.41 19.3 178.41 19.3 179.31 24.63 179.31 24.63 178.41 26.51 178.41"/></g><g id="POLYLINE-22" data-name="POLYLINE"><polygon class="cls-1" points="26.51 251.23 24.63 251.23 24.63 250.33 19.3 250.33 19.3 251.23 17.42 251.23 17.42 243.94 19.3 243.94 19.3 244.84 24.63 244.84 24.63 243.94 26.51 243.94 26.51 251.23"/></g><g id="POLYLINE-23" data-name="POLYLINE"><polygon class="cls-1" points="94.45 244.84 99.78 244.84 99.78 243.94 101.66 243.94 101.66 251.23 99.78 251.23 99.78 250.33 94.45 250.33 94.45 251.23 92.57 251.23 92.57 243.94 94.45 243.94 94.45 244.84"/></g><g id="POLYLINE-24" data-name="POLYLINE"><polygon class="cls-1" points="99.78 275.88 99.78 274.98 94.45 274.98 94.45 275.88 92.57 275.88 92.57 268.59 94.45 268.59 94.45 269.49 99.78 269.49 99.78 268.59 101.66 268.59 101.66 275.88 99.78 275.88"/></g><g id="POLYLINE-25" data-name="POLYLINE"><polygon class="cls-1" points="24.63 274.98 19.3 274.98 19.3 275.88 17.42 275.88 17.42 268.59 19.3 268.59 19.3 269.49 24.63 269.49 24.63 268.59 26.51 268.59 26.51 275.88 24.63 275.88 24.63 274.98"/></g><g id="POLYLINE-26" data-name="POLYLINE"><polygon class="cls-1" points="24.63 341.41 24.63 340.51 19.3 340.51 19.3 341.41 17.42 341.41 17.42 334.12 19.3 334.12 19.3 335.02 24.63 335.02 24.63 334.12 26.51 334.12 26.51 341.41 24.63 341.41"/></g><g id="POLYLINE-27" data-name="POLYLINE"><polygon class="cls-1" points="99.78 334.12 101.66 334.12 101.66 341.41 99.78 341.41 99.78 340.51 94.45 340.51 94.45 341.41 92.57 341.41 92.57 334.12 94.45 334.12 94.45 335.02 99.78 335.02 99.78 334.12"/></g><g id="POLYLINE-28" data-name="POLYLINE"><polygon class="cls-1" points="19.3 359.67 24.63 359.67 24.63 358.77 26.51 358.77 26.51 366.06 24.63 366.06 24.63 365.16 19.3 365.16 19.3 366.06 17.42 366.06 17.42 358.77 19.3 358.77 19.3 359.67"/></g><g id="POLYLINE-29" data-name="POLYLINE"><polygon class="cls-1" points="99.78 366.06 99.78 365.16 94.45 365.16 94.45 366.06 92.57 366.06 92.57 358.77 94.45 358.77 94.45 359.67 99.78 359.67 99.78 358.77 101.66 358.77 101.66 366.06 99.78 366.06"/></g><g id="POLYLINE-30" data-name="POLYLINE"><polygon class="cls-1" points="94.45 94.62 94.45 95.52 92.57 95.52 92.57 88.23 94.45 88.23 94.45 89.13 99.78 89.13 99.78 88.23 101.66 88.23 101.66 95.52 99.78 95.52 99.78 94.62 94.45 94.62"/></g><g id="POLYLINE-31" data-name="POLYLINE"><polygon class="cls-1" points="26.51 88.23 26.51 95.52 24.63 95.52 24.63 94.62 19.3 94.62 19.3 95.52 17.42 95.52 17.42 88.23 19.3 88.23 19.3 89.13 24.63 89.13 24.63 88.23 26.51 88.23"/></g><g id="POLYLINE-32" data-name="POLYLINE"><polygon class="cls-1" points="26.51 161.05 24.63 161.05 24.63 160.15 19.3 160.15 19.3 161.05 17.42 161.05 17.42 153.76 19.3 153.76 19.3 154.66 24.63 154.66 24.63 153.76 26.51 153.76 26.51 161.05"/></g><g id="POLYLINE-33" data-name="POLYLINE"><polygon class="cls-1" points="94.45 154.66 99.78 154.66 99.78 153.76 101.66 153.76 101.66 161.05 99.78 161.05 99.78 160.15 94.45 160.15 94.45 161.05 92.57 161.05 92.57 153.76 94.45 153.76 94.45 154.66"/></g><g id="POLYLINE-34" data-name="POLYLINE"><polygon class="cls-1" points="19.3 69.97 24.63 69.97 24.63 70.87 26.51 70.87 26.51 63.58 24.63 63.58 24.63 64.48 19.3 64.48 19.3 63.58 17.42 63.58 17.42 70.87 19.3 70.87 19.3 69.97"/></g><g id="POLYLINE-35" data-name="POLYLINE"><polygon class="cls-1" points="99.78 63.58 99.78 64.48 94.45 64.48 94.45 63.58 92.57 63.58 92.57 70.87 94.45 70.87 94.45 69.97 99.78 69.97 99.78 70.87 101.66 70.87 101.66 63.58 99.78 63.58"/></g><g id="MTEXT"><text class="cls-3" transform="translate(75.05 251.1) rotate(-90)">COMB-B/MID-1</text></g><g id="MTEXT-2" data-name="MTEXT"><text class="cls-3" transform="translate(139.38 180.26) rotate(90)">COMB-B/MID-1</text></g></svg>