<svg id="Layer_1" data-name="Layer 1" xmlns="http://www.w3.org/2000/svg" viewBox="0 0 425.2 425.2"><defs><style>.cls-1,.cls-2{fill:none;stroke-linecap:round;stroke-linejoin:round;}.cls-1{stroke:#000;stroke-width:0.25px;}.cls-2{stroke:#1d1d1b;}</style></defs><line class="cls-1" x1="291.41" y1="279.11" x2="291.41" y2="282.58"/><line class="cls-1" x1="291.41" y1="282.58" x2="291.33" y2="282.99"/><line class="cls-1" x1="291.33" y1="282.99" x2="291.1" y2="283.27"/><line class="cls-1" x1="290.86" y1="283.31" x2="290.74" y2="283.33"/><line class="cls-1" x1="290.65" y1="283.3" x2="290.57" y2="283.27"/><line class="cls-1" x1="238.34" y1="248.47" x2="238.34" y2="251.94"/><line class="cls-1" x1="238.34" y1="251.94" x2="238.26" y2="252.35"/><line class="cls-1" x1="238.26" y1="252.35" x2="238.03" y2="252.63"/><line class="cls-1" x1="237.79" y1="252.67" x2="237.67" y2="252.69"/><line class="cls-1" x1="185.27" y1="217.83" x2="185.27" y2="221.3"/><line class="cls-1" x1="185.27" y1="221.3" x2="185.19" y2="221.71"/><line class="cls-1" x1="185.19" y1="221.71" x2="184.96" y2="221.99"/><line class="cls-1" x1="184.72" y1="222.03" x2="184.6" y2="222.05"/><line class="cls-1" x1="184.43" y1="221.99" x2="184.33" y2="221.95"/><line class="cls-1" x1="184.08" y1="221.84" x2="184.07" y2="221.83"/><line class="cls-1" x1="132.2" y1="187.19" x2="132.2" y2="190.66"/><line class="cls-1" x1="132.2" y1="190.66" x2="132.12" y2="191.07"/><line class="cls-1" x1="132.12" y1="191.07" x2="131.89" y2="191.35"/><line class="cls-1" x1="131.65" y1="191.39" x2="131.53" y2="191.41"/><line class="cls-1" x1="131.36" y1="191.35" x2="131.26" y2="191.31"/><line class="cls-1" x1="121.2" y1="124.48" x2="121.36" y2="124.3"/><line class="cls-1" x1="121.36" y1="124.3" x2="121.72" y2="124.23"/><line class="cls-1" x1="121.72" y1="124.23" x2="122.11" y2="124.37"/><line class="cls-1" x1="122.11" y1="124.37" x2="131.14" y2="129.58"/><line class="cls-1" x1="131.14" y1="129.58" x2="131.53" y2="129.89"/><line class="cls-1" x1="131.53" y1="129.89" x2="131.89" y2="130.37"/><line class="cls-1" x1="131.89" y1="130.37" x2="132.12" y2="130.93"/><line class="cls-1" x1="132.12" y1="130.93" x2="132.2" y2="131.42"/><line class="cls-1" x1="132.2" y1="131.42" x2="132.2" y2="153.68"/><line class="cls-1" x1="131.67" y1="153.99" x2="131.67" y2="154.61"/><line class="cls-1" x1="135.38" y1="133.26" x2="135.42" y2="133.03"/><line class="cls-1" x1="135.46" y1="132.85" x2="135.6" y2="132.68"/><line class="cls-1" x1="135.69" y1="132.57" x2="136.05" y2="132.51"/><line class="cls-1" x1="136.05" y1="132.51" x2="136.44" y2="132.65"/><line class="cls-1" x1="136.44" y1="132.65" x2="145.46" y2="137.86"/><line class="cls-1" x1="145.46" y1="137.86" x2="145.85" y2="138.17"/><line class="cls-1" x1="145.85" y1="138.17" x2="146.21" y2="138.65"/><line class="cls-1" x1="146.21" y1="138.65" x2="146.45" y2="139.2"/><line class="cls-1" x1="146.45" y1="139.2" x2="146.52" y2="139.69"/><line class="cls-1" x1="146.52" y1="139.69" x2="146.52" y2="150.52"/><line class="cls-1" x1="145.99" y1="150.83" x2="145.99" y2="151.44"/><line class="cls-1" x1="174.12" y1="155.63" x2="174.16" y2="155.39"/><line class="cls-1" x1="174.2" y1="155.22" x2="174.34" y2="155.05"/><line class="cls-1" x1="174.43" y1="154.94" x2="174.79" y2="154.87"/><line class="cls-1" x1="174.79" y1="154.87" x2="175.18" y2="155.01"/><line class="cls-1" x1="175.18" y1="155.01" x2="184.21" y2="160.22"/><line class="cls-1" x1="184.21" y1="160.22" x2="184.6" y2="160.53"/><line class="cls-1" x1="184.6" y1="160.53" x2="184.96" y2="161.01"/><line class="cls-1" x1="184.96" y1="161.01" x2="185.19" y2="161.57"/><line class="cls-1" x1="185.19" y1="161.57" x2="185.27" y2="162.06"/><line class="cls-1" x1="185.27" y1="162.06" x2="185.27" y2="184.33"/><line class="cls-1" x1="184.99" y1="184.17" x2="184.76" y2="184.03"/><line class="cls-1" x1="184.74" y1="184.63" x2="184.74" y2="185.25"/><line class="cls-1" x1="188.45" y1="163.9" x2="188.49" y2="163.67"/><line class="cls-1" x1="188.53" y1="163.49" x2="188.6" y2="163.4"/><line class="cls-1" x1="188.67" y1="163.32" x2="188.76" y2="163.21"/><line class="cls-1" x1="188.76" y1="163.21" x2="189.12" y2="163.15"/><line class="cls-1" x1="189.12" y1="163.15" x2="189.51" y2="163.29"/><line class="cls-1" x1="189.51" y1="163.29" x2="198.53" y2="168.5"/><line class="cls-1" x1="198.53" y1="168.5" x2="198.92" y2="168.81"/><line class="cls-1" x1="198.92" y1="168.81" x2="199.28" y2="169.29"/><line class="cls-1" x1="199.28" y1="169.29" x2="199.52" y2="169.84"/><line class="cls-1" x1="199.52" y1="169.84" x2="199.6" y2="170.33"/><line class="cls-1" x1="199.6" y1="170.33" x2="199.6" y2="181.16"/><line class="cls-1" x1="199.07" y1="181.47" x2="199.07" y2="182.08"/><line class="cls-1" x1="227.19" y1="186.27" x2="227.23" y2="186.03"/><line class="cls-1" x1="227.27" y1="185.86" x2="227.41" y2="185.69"/><line class="cls-1" x1="227.5" y1="185.58" x2="227.86" y2="185.51"/><line class="cls-1" x1="227.86" y1="185.51" x2="228.25" y2="185.65"/><line class="cls-1" x1="228.25" y1="185.65" x2="237.28" y2="190.86"/><line class="cls-1" x1="237.28" y1="190.86" x2="237.67" y2="191.17"/><line class="cls-1" x1="237.67" y1="191.17" x2="238.03" y2="191.65"/><line class="cls-1" x1="238.03" y1="191.65" x2="238.26" y2="192.21"/><line class="cls-1" x1="238.26" y1="192.21" x2="238.34" y2="192.7"/><line class="cls-1" x1="238.34" y1="192.7" x2="238.34" y2="214.97"/><line class="cls-1" x1="237.81" y1="215.27" x2="237.81" y2="215.89"/><line class="cls-1" x1="241.56" y1="194.31" x2="241.6" y2="194.13"/><line class="cls-1" x1="241.68" y1="194.04" x2="241.83" y2="193.85"/><line class="cls-1" x1="241.83" y1="193.85" x2="242.19" y2="193.79"/><line class="cls-1" x1="242.19" y1="193.79" x2="242.58" y2="193.93"/><line class="cls-1" x1="242.58" y1="193.93" x2="251.6" y2="199.14"/><line class="cls-1" x1="251.6" y1="199.14" x2="252" y2="199.45"/><line class="cls-1" x1="252" y1="199.45" x2="252.36" y2="199.93"/><line class="cls-1" x1="252.36" y1="199.93" x2="252.59" y2="200.48"/><line class="cls-1" x1="252.59" y1="200.48" x2="252.67" y2="200.97"/><line class="cls-1" x1="252.67" y1="200.97" x2="252.67" y2="211.8"/><line class="cls-1" x1="252.14" y1="212.11" x2="252.14" y2="212.72"/><line class="cls-1" x1="280.31" y1="216.67" x2="280.34" y2="216.5"/><line class="cls-1" x1="280.34" y1="216.5" x2="280.42" y2="216.41"/><line class="cls-1" x1="280.48" y1="216.33" x2="280.58" y2="216.22"/><line class="cls-1" x1="280.58" y1="216.22" x2="280.94" y2="216.15"/><line class="cls-1" x1="280.94" y1="216.15" x2="281.33" y2="216.29"/><line class="cls-1" x1="281.33" y1="216.29" x2="290.35" y2="221.5"/><line class="cls-1" x1="290.35" y1="221.5" x2="290.74" y2="221.81"/><line class="cls-1" x1="290.74" y1="221.81" x2="291.1" y2="222.29"/><line class="cls-1" x1="291.1" y1="222.29" x2="291.33" y2="222.85"/><line class="cls-1" x1="291.33" y1="222.85" x2="291.41" y2="223.34"/><line class="cls-1" x1="291.41" y1="223.34" x2="291.41" y2="245.61"/><line class="cls-1" x1="290.88" y1="245.91" x2="290.88" y2="246.53"/><line class="cls-1" x1="294.75" y1="224.68" x2="294.81" y2="224.6"/><line class="cls-1" x1="294.9" y1="224.49" x2="295.26" y2="224.43"/><line class="cls-1" x1="295.26" y1="224.43" x2="295.65" y2="224.57"/><line class="cls-1" x1="295.65" y1="224.57" x2="304.68" y2="229.78"/><line class="cls-1" x1="304.68" y1="229.78" x2="305.07" y2="230.09"/><line class="cls-1" x1="305.07" y1="230.09" x2="305.43" y2="230.57"/><line class="cls-1" x1="305.43" y1="230.57" x2="305.66" y2="231.12"/><line class="cls-1" x1="305.66" y1="231.12" x2="305.74" y2="231.62"/><line class="cls-1" x1="305.74" y1="231.62" x2="305.74" y2="242.44"/><line class="cls-1" x1="305.21" y1="242.75" x2="305.21" y2="243.36"/><line class="cls-1" x1="192.52" y1="169.11" x2="192.52" y2="172.17"/><line class="cls-1" x1="191.99" y1="172.48" x2="191.99" y2="173.09"/><line class="cls-1" x1="191.99" y1="173.09" x2="194.11" y2="174.32"/><line class="cls-1" x1="230.56" y1="194.74" x2="230.56" y2="195.36"/><line class="cls-1" x1="230.56" y1="195.36" x2="232.68" y2="196.58"/><line class="cls-1" x1="231.09" y1="191.37" x2="231.09" y2="194.44"/><line class="cls-1" x1="192.52" y1="220.18" x2="192.52" y2="223.24"/><line class="cls-1" x1="191.99" y1="223.55" x2="191.99" y2="224.16"/><line class="cls-1" x1="191.99" y1="224.16" x2="194.11" y2="225.38"/><line class="cls-1" x1="231.09" y1="242.44" x2="231.09" y2="245.51"/><line class="cls-1" x1="230.56" y1="245.81" x2="230.56" y2="246.42"/><line class="cls-1" x1="230.56" y1="246.42" x2="232.68" y2="247.65"/><line class="cls-1" x1="178.01" y1="160.73" x2="178.01" y2="163.8"/><line class="cls-1" x1="177.48" y1="164.1" x2="177.48" y2="164.72"/><line class="cls-1" x1="177.48" y1="164.72" x2="179.61" y2="165.94"/><line class="cls-1" x1="138.92" y1="192.91" x2="138.92" y2="193.52"/><line class="cls-1" x1="138.92" y1="193.52" x2="141.04" y2="194.74"/><line class="cls-1" x1="139.45" y1="189.54" x2="139.45" y2="192.6"/><line class="cls-1" x1="139.45" y1="138.47" x2="139.45" y2="141.53"/><line class="cls-1" x1="138.92" y1="141.84" x2="138.92" y2="142.45"/><line class="cls-1" x1="138.92" y1="142.45" x2="141.04" y2="143.68"/><line class="cls-1" x1="178.01" y1="211.8" x2="178.01" y2="214.86"/><line class="cls-1" x1="177.48" y1="215.17" x2="177.48" y2="215.78"/><line class="cls-1" x1="177.48" y1="215.78" x2="179.61" y2="217.01"/><line class="cls-1" x1="124.94" y1="130.09" x2="124.94" y2="133.16"/><line class="cls-1" x1="124.41" y1="133.46" x2="124.41" y2="134.08"/><line class="cls-1" x1="124.41" y1="134.08" x2="126.53" y2="135.3"/><line class="cls-1" x1="124.94" y1="181.16" x2="124.94" y2="184.22"/><line class="cls-1" x1="124.41" y1="184.53" x2="124.41" y2="185.14"/><line class="cls-1" x1="124.41" y1="185.14" x2="126.53" y2="186.37"/><line class="cls-1" x1="245.59" y1="199.75" x2="245.59" y2="202.81"/><line class="cls-1" x1="245.06" y1="203.12" x2="245.06" y2="203.73"/><line class="cls-1" x1="245.06" y1="203.73" x2="247.18" y2="204.96"/><line class="cls-1" x1="283.63" y1="225.38" x2="283.63" y2="226"/><line class="cls-1" x1="283.63" y1="226" x2="285.75" y2="227.22"/><line class="cls-1" x1="284.16" y1="222.01" x2="284.16" y2="225.08"/><line class="cls-1" x1="245.59" y1="250.82" x2="245.59" y2="253.88"/><line class="cls-1" x1="245.06" y1="254.19" x2="245.06" y2="254.8"/><line class="cls-1" x1="245.06" y1="254.8" x2="247.18" y2="256.03"/><line class="cls-1" x1="284.16" y1="273.08" x2="284.16" y2="276.14"/><line class="cls-1" x1="283.63" y1="276.45" x2="283.63" y2="277.07"/><line class="cls-1" x1="283.63" y1="277.07" x2="285.75" y2="278.29"/><line class="cls-1" x1="298.13" y1="233.76" x2="298.13" y2="234.37"/><line class="cls-1" x1="298.13" y1="234.37" x2="300.25" y2="235.6"/><line class="cls-1" x1="298.66" y1="230.39" x2="298.66" y2="233.45"/><line class="cls-1" x1="298.66" y1="281.46" x2="298.66" y2="284.52"/><line class="cls-1" x1="298.13" y1="284.83" x2="298.13" y2="285.44"/><line class="cls-1" x1="298.13" y1="285.44" x2="300.25" y2="286.67"/><line class="cls-1" x1="319.54" y1="300.04" x2="317.94" y2="300.96"/><line class="cls-1" x1="293.31" y1="286.38" x2="293.08" y2="285.83"/><line class="cls-1" x1="317.94" y1="300.96" x2="294.06" y2="287.18"/><line class="cls-1" x1="294.06" y1="287.18" x2="293.67" y2="286.87"/><line class="cls-1" x1="293.67" y1="286.87" x2="293.31" y2="286.38"/><line class="cls-1" x1="293.08" y1="285.83" x2="293" y2="285.34"/><line class="cls-1" x1="319.54" y1="251.63" x2="317.94" y2="252.55"/><line class="cls-1" x1="317.94" y1="252.55" x2="317.94" y2="300.96"/><line class="cls-1" x1="303.62" y1="244.28" x2="317.94" y2="252.55"/><line class="cls-1" x1="303.62" y1="243.05" x2="303.62" y2="244.28"/><line class="cls-1" x1="304.15" y1="243.36" x2="303.62" y2="243.05"/><line class="cls-1" x1="293" y1="226.1" x2="293.08" y2="225.69"/><line class="cls-1" x1="294.06" y1="225.49" x2="303.09" y2="230.7"/><line class="cls-1" x1="304.07" y1="232.04" x2="304.15" y2="232.53"/><line class="cls-1" x1="304.15" y1="232.53" x2="304.15" y2="243.36"/><line class="cls-1" x1="293.08" y1="225.69" x2="293.31" y2="225.41"/><line class="cls-1" x1="293.67" y1="225.35" x2="294.06" y2="225.49"/><line class="cls-1" x1="293.31" y1="225.41" x2="293.67" y2="225.35"/><line class="cls-1" x1="303.09" y1="230.7" x2="303.48" y2="231.01"/><line class="cls-1" x1="303.84" y1="231.49" x2="304.07" y2="232.04"/><line class="cls-1" x1="303.48" y1="231.01" x2="303.84" y2="231.49"/><line class="cls-1" x1="293.53" y1="248.67" x2="293" y2="248.36"/><line class="cls-1" x1="293.53" y1="249.9" x2="293.53" y2="248.67"/><line class="cls-1" x1="289.29" y1="247.45" x2="293.53" y2="249.9"/><line class="cls-1" x1="289.29" y1="246.22" x2="289.29" y2="247.45"/><line class="cls-1" x1="289.82" y1="246.53" x2="289.29" y2="246.22"/><line class="cls-1" x1="278.67" y1="217.83" x2="278.75" y2="217.42"/><line class="cls-1" x1="279.73" y1="217.21" x2="288.76" y2="222.42"/><line class="cls-1" x1="289.74" y1="223.77" x2="289.82" y2="224.26"/><line class="cls-1" x1="289.82" y1="224.26" x2="289.82" y2="246.53"/><line class="cls-1" x1="278.75" y1="217.42" x2="278.98" y2="217.14"/><line class="cls-1" x1="279.34" y1="217.07" x2="279.73" y2="217.21"/><line class="cls-1" x1="278.98" y1="217.14" x2="279.34" y2="217.07"/><line class="cls-1" x1="288.76" y1="222.42" x2="289.15" y2="222.73"/><line class="cls-1" x1="289.51" y1="223.21" x2="289.74" y2="223.77"/><line class="cls-1" x1="289.15" y1="222.73" x2="289.51" y2="223.21"/><line class="cls-1" x1="279.2" y1="228.96" x2="278.67" y2="228.65"/><line class="cls-1" x1="279.2" y1="230.19" x2="279.2" y2="228.96"/><line class="cls-1" x1="250.54" y1="213.64" x2="279.2" y2="230.19"/><line class="cls-1" x1="250.54" y1="212.41" x2="250.54" y2="213.64"/><line class="cls-1" x1="251.07" y1="212.72" x2="250.54" y2="212.41"/><line class="cls-1" x1="240.6" y1="194.71" x2="240.99" y2="194.85"/><line class="cls-1" x1="250.76" y1="200.85" x2="251" y2="201.4"/><line class="cls-1" x1="251.07" y1="201.89" x2="251.07" y2="212.72"/><line class="cls-1" x1="240" y1="195.05" x2="240.24" y2="194.77"/><line class="cls-1" x1="240.24" y1="194.77" x2="240.6" y2="194.71"/><line class="cls-1" x1="239.93" y1="195.46" x2="240" y2="195.05"/><line class="cls-1" x1="250.01" y1="200.05" x2="250.4" y2="200.37"/><line class="cls-1" x1="250.4" y1="200.37" x2="250.76" y2="200.85"/><line class="cls-1" x1="240.99" y1="194.85" x2="250.01" y2="200.05"/><line class="cls-1" x1="251" y1="201.4" x2="251.07" y2="201.89"/><line class="cls-1" x1="240.46" y1="218.03" x2="239.93" y2="217.72"/><line class="cls-1" x1="240.46" y1="219.26" x2="240.46" y2="218.03"/><line class="cls-1" x1="236.22" y1="216.81" x2="240.46" y2="219.26"/><line class="cls-1" x1="236.22" y1="215.58" x2="236.22" y2="216.81"/><line class="cls-1" x1="236.75" y1="215.89" x2="236.22" y2="215.58"/><line class="cls-1" x1="225.6" y1="187.19" x2="225.67" y2="186.78"/><line class="cls-1" x1="226.66" y1="186.57" x2="235.69" y2="191.78"/><line class="cls-1" x1="236.67" y1="193.13" x2="236.75" y2="193.62"/><line class="cls-1" x1="236.75" y1="193.62" x2="236.75" y2="215.89"/><line class="cls-1" x1="225.67" y1="186.78" x2="225.91" y2="186.5"/><line class="cls-1" x1="226.27" y1="186.43" x2="226.66" y2="186.57"/><line class="cls-1" x1="225.91" y1="186.5" x2="226.27" y2="186.43"/><line class="cls-1" x1="235.69" y1="191.78" x2="236.08" y2="192.09"/><line class="cls-1" x1="236.44" y1="192.57" x2="236.67" y2="193.13"/><line class="cls-1" x1="236.08" y1="192.09" x2="236.44" y2="192.57"/><line class="cls-1" x1="226.13" y1="198.32" x2="225.6" y2="198.01"/><line class="cls-1" x1="226.13" y1="199.54" x2="226.13" y2="198.32"/><line class="cls-1" x1="197.47" y1="183" x2="226.13" y2="199.54"/><line class="cls-1" x1="197.47" y1="181.77" x2="197.47" y2="183"/><line class="cls-1" x1="198" y1="182.08" x2="197.47" y2="181.77"/><line class="cls-1" x1="186.86" y1="164.82" x2="186.93" y2="164.41"/><line class="cls-1" x1="187.92" y1="164.21" x2="196.94" y2="169.41"/><line class="cls-1" x1="197.93" y1="170.76" x2="198" y2="171.25"/><line class="cls-1" x1="198" y1="171.25" x2="198" y2="182.08"/><line class="cls-1" x1="186.93" y1="164.41" x2="187.17" y2="164.13"/><line class="cls-1" x1="187.53" y1="164.07" x2="187.92" y2="164.21"/><line class="cls-1" x1="187.17" y1="164.13" x2="187.53" y2="164.07"/><line class="cls-1" x1="196.94" y1="169.41" x2="197.33" y2="169.73"/><line class="cls-1" x1="197.69" y1="170.21" x2="197.93" y2="170.76"/><line class="cls-1" x1="197.33" y1="169.73" x2="197.69" y2="170.21"/><line class="cls-1" x1="187.39" y1="187.39" x2="186.86" y2="187.08"/><line class="cls-1" x1="187.39" y1="188.62" x2="187.39" y2="187.39"/><line class="cls-1" x1="183.15" y1="186.17" x2="187.39" y2="188.62"/><line class="cls-1" x1="183.15" y1="184.94" x2="183.15" y2="186.17"/><line class="cls-1" x1="183.68" y1="185.25" x2="183.15" y2="184.94"/><line class="cls-1" x1="173.2" y1="155.79" x2="173.59" y2="155.93"/><line class="cls-1" x1="183.37" y1="161.93" x2="183.6" y2="162.49"/><line class="cls-1" x1="172.6" y1="156.14" x2="172.84" y2="155.86"/><line class="cls-1" x1="172.84" y1="155.86" x2="173.2" y2="155.79"/><line class="cls-1" x1="172.53" y1="156.55" x2="172.6" y2="156.14"/><line class="cls-1" x1="182.61" y1="161.14" x2="183.01" y2="161.45"/><line class="cls-1" x1="183.01" y1="161.45" x2="183.37" y2="161.93"/><line class="cls-1" x1="173.59" y1="155.93" x2="182.61" y2="161.14"/><line class="cls-1" x1="183.68" y1="162.98" x2="183.68" y2="185.25"/><line class="cls-1" x1="183.6" y1="162.49" x2="183.68" y2="162.98"/><line class="cls-1" x1="173.06" y1="167.68" x2="172.53" y2="167.37"/><line class="cls-1" x1="173.06" y1="168.9" x2="173.06" y2="167.68"/><line class="cls-1" x1="144.4" y1="152.36" x2="173.06" y2="168.9"/><line class="cls-1" x1="144.4" y1="151.13" x2="144.4" y2="152.36"/><line class="cls-1" x1="144.93" y1="151.44" x2="144.4" y2="151.13"/><line class="cls-1" x1="133.79" y1="134.18" x2="133.86" y2="133.77"/><line class="cls-1" x1="134.85" y1="133.57" x2="143.87" y2="138.77"/><line class="cls-1" x1="144.93" y1="140.61" x2="144.93" y2="151.44"/><line class="cls-1" x1="133.86" y1="133.77" x2="134.1" y2="133.49"/><line class="cls-1" x1="134.46" y1="133.43" x2="134.85" y2="133.57"/><line class="cls-1" x1="134.1" y1="133.49" x2="134.46" y2="133.43"/><line class="cls-1" x1="143.87" y1="138.77" x2="144.26" y2="139.09"/><line class="cls-1" x1="144.26" y1="139.09" x2="144.62" y2="139.57"/><line class="cls-1" x1="144.62" y1="139.57" x2="144.86" y2="140.12"/><line class="cls-1" x1="144.86" y1="140.12" x2="144.93" y2="140.61"/><line class="cls-1" x1="134.32" y1="156.75" x2="133.79" y2="156.44"/><line class="cls-1" x1="134.32" y1="157.98" x2="134.32" y2="156.75"/><line class="cls-1" x1="130.07" y1="155.53" x2="134.32" y2="157.98"/><line class="cls-1" x1="130.07" y1="154.3" x2="130.07" y2="155.53"/><line class="cls-1" x1="130.61" y1="154.61" x2="130.07" y2="154.3"/><line class="cls-1" x1="120.13" y1="125.15" x2="120.52" y2="125.29"/><line class="cls-1" x1="130.29" y1="131.29" x2="130.53" y2="131.85"/><line class="cls-1" x1="119.53" y1="125.5" x2="119.77" y2="125.22"/><line class="cls-1" x1="119.77" y1="125.22" x2="120.13" y2="125.15"/><line class="cls-1" x1="119.46" y1="125.9" x2="119.53" y2="125.5"/><line class="cls-1" x1="129.54" y1="130.5" x2="129.93" y2="130.81"/><line class="cls-1" x1="129.93" y1="130.81" x2="130.29" y2="131.29"/><line class="cls-1" x1="120.52" y1="125.29" x2="129.54" y2="130.5"/><line class="cls-1" x1="130.61" y1="132.34" x2="130.61" y2="154.61"/><line class="cls-1" x1="130.53" y1="131.85" x2="130.61" y2="132.34"/><line class="cls-1" x1="119.99" y1="137.04" x2="119.46" y2="136.73"/><line class="cls-1" x1="119.99" y1="138.26" x2="119.99" y2="137.04"/><line class="cls-1" x1="107.25" y1="129.07" x2="105.66" y2="129.99"/><line class="cls-1" x1="105.66" y1="129.99" x2="119.99" y2="138.26"/><line class="cls-1" x1="105.66" y1="178.4" x2="105.66" y2="129.99"/><line class="cls-1" x1="130.61" y1="187.49" x2="130.61" y2="191.58"/><line class="cls-1" x1="130.87" y1="187.34" x2="130.61" y2="187.49"/><line class="cls-1" x1="130.53" y1="191.99" x2="130.29" y2="192.26"/><line class="cls-1" x1="129.93" y1="192.33" x2="129.54" y2="192.19"/><line class="cls-1" x1="129.54" y1="192.19" x2="105.66" y2="178.4"/><line class="cls-1" x1="130.61" y1="191.58" x2="130.53" y2="191.99"/><line class="cls-1" x1="130.29" y1="192.26" x2="129.93" y2="192.33"/><line class="cls-1" x1="130.07" y1="187.19" x2="130.61" y2="187.49"/><line class="cls-1" x1="130.07" y1="185.96" x2="130.07" y2="187.19"/><line class="cls-1" x1="133.79" y1="189.33" x2="134.32" y2="189.64"/><line class="cls-1" x1="183.68" y1="218.13" x2="183.68" y2="222.22"/><line class="cls-1" x1="183.94" y1="217.98" x2="183.68" y2="218.13"/><line class="cls-1" x1="182.61" y1="222.83" x2="134.85" y2="195.25"/><line class="cls-1" x1="183.68" y1="222.22" x2="183.6" y2="222.63"/><line class="cls-1" x1="183.37" y1="222.9" x2="183.01" y2="222.97"/><line class="cls-1" x1="183.01" y1="222.97" x2="182.61" y2="222.83"/><line class="cls-1" x1="183.6" y1="222.63" x2="183.37" y2="222.9"/><line class="cls-1" x1="134.85" y1="195.25" x2="134.46" y2="194.94"/><line class="cls-1" x1="134.46" y1="194.94" x2="134.1" y2="194.46"/><line class="cls-1" x1="134.1" y1="194.46" x2="133.86" y2="193.91"/><line class="cls-1" x1="133.86" y1="193.91" x2="133.79" y2="193.42"/><line class="cls-1" x1="133.79" y1="193.42" x2="133.79" y2="189.33"/><line class="cls-1" x1="183.15" y1="217.83" x2="183.68" y2="218.13"/><line class="cls-1" x1="183.15" y1="216.6" x2="183.15" y2="217.83"/><line class="cls-1" x1="186.86" y1="219.97" x2="187.39" y2="220.28"/><line class="cls-1" x1="236.75" y1="248.77" x2="236.75" y2="252.86"/><line class="cls-1" x1="237.01" y1="248.62" x2="236.75" y2="248.77"/><line class="cls-1" x1="235.69" y1="253.47" x2="187.92" y2="225.89"/><line class="cls-1" x1="236.75" y1="252.86" x2="236.67" y2="253.27"/><line class="cls-1" x1="236.44" y1="253.55" x2="236.08" y2="253.61"/><line class="cls-1" x1="236.08" y1="253.61" x2="235.69" y2="253.47"/><line class="cls-1" x1="236.67" y1="253.27" x2="236.44" y2="253.55"/><line class="cls-1" x1="187.92" y1="225.89" x2="187.53" y2="225.58"/><line class="cls-1" x1="187.53" y1="225.58" x2="187.17" y2="225.1"/><line class="cls-1" x1="187.17" y1="225.1" x2="186.93" y2="224.55"/><line class="cls-1" x1="186.93" y1="224.55" x2="186.86" y2="224.06"/><line class="cls-1" x1="186.86" y1="224.06" x2="186.86" y2="219.97"/><line class="cls-1" x1="236.22" y1="248.47" x2="236.75" y2="248.77"/><line class="cls-1" x1="236.22" y1="247.24" x2="236.22" y2="248.47"/><line class="cls-1" x1="239.93" y1="250.61" x2="240.46" y2="250.92"/><line class="cls-1" x1="289.82" y1="279.42" x2="289.82" y2="283.5"/><line class="cls-1" x1="290.08" y1="279.26" x2="289.82" y2="279.42"/><line class="cls-1" x1="288.76" y1="284.11" x2="240.99" y2="256.54"/><line class="cls-1" x1="289.82" y1="283.5" x2="289.74" y2="283.91"/><line class="cls-1" x1="289.51" y1="284.19" x2="289.15" y2="284.25"/><line class="cls-1" x1="289.15" y1="284.25" x2="288.76" y2="284.11"/><line class="cls-1" x1="289.74" y1="283.91" x2="289.51" y2="284.19"/><line class="cls-1" x1="240.99" y1="256.54" x2="240.6" y2="256.23"/><line class="cls-1" x1="240.6" y1="256.23" x2="240.24" y2="255.74"/><line class="cls-1" x1="240.24" y1="255.74" x2="240" y2="255.19"/><line class="cls-1" x1="240" y1="255.19" x2="239.93" y2="254.7"/><line class="cls-1" x1="239.93" y1="254.7" x2="239.93" y2="250.61"/><line class="cls-1" x1="289.29" y1="279.11" x2="289.82" y2="279.42"/><line class="cls-1" x1="289.29" y1="277.88" x2="289.29" y2="279.11"/><line class="cls-1" x1="293" y1="281.25" x2="293.53" y2="281.56"/><line class="cls-1" x1="300.78" y1="288.81" x2="300.78" y2="287.59"/><line class="cls-1" x1="298.13" y1="285.44" x2="296.54" y2="286.36"/><line class="cls-1" x1="296.54" y1="286.36" x2="300.78" y2="288.81"/><line class="cls-1" x1="296.54" y1="285.13" x2="296.54" y2="286.36"/><line class="cls-1" x1="297.07" y1="285.44" x2="296.54" y2="285.13"/><line class="cls-1" x1="298.13" y1="281.15" x2="297.07" y2="281.76"/><line class="cls-1" x1="297.07" y1="281.76" x2="297.07" y2="285.44"/><line class="cls-1" x1="297.6" y1="280.85" x2="296.54" y2="281.46"/><line class="cls-1" x1="296.54" y1="281.46" x2="297.07" y2="281.76"/><line class="cls-1" x1="296.54" y1="280.23" x2="296.54" y2="281.46"/><line class="cls-1" x1="300.78" y1="283.3" x2="300.25" y2="283.6"/><line class="cls-1" x1="300.25" y1="283.6" x2="300.78" y2="283.91"/><line class="cls-1" x1="300.78" y1="287.59" x2="300.25" y2="287.28"/><line class="cls-1" x1="297.07" y1="230.7" x2="298.13" y2="230.08"/><line class="cls-1" x1="297.6" y1="229.78" x2="296.54" y2="230.39"/><line class="cls-1" x1="296.54" y1="230.39" x2="297.07" y2="230.7"/><line class="cls-1" x1="296.54" y1="229.16" x2="296.54" y2="230.39"/><line class="cls-1" x1="300.78" y1="232.23" x2="300.25" y2="232.53"/><line class="cls-1" x1="300.25" y1="232.53" x2="300.78" y2="232.84"/><line class="cls-1" x1="300.78" y1="236.52" x2="300.25" y2="236.21"/><line class="cls-1" x1="300.78" y1="237.74" x2="300.78" y2="236.52"/><line class="cls-1" x1="298.13" y1="234.37" x2="296.54" y2="235.29"/><line class="cls-1" x1="296.54" y1="235.29" x2="300.78" y2="237.74"/><line class="cls-1" x1="296.54" y1="234.07" x2="296.54" y2="235.29"/><line class="cls-1" x1="297.07" y1="234.37" x2="296.54" y2="234.07"/><line class="cls-1" x1="297.07" y1="230.7" x2="297.07" y2="234.37"/><line class="cls-1" x1="282.56" y1="273.39" x2="283.63" y2="272.77"/><line class="cls-1" x1="283.1" y1="272.47" x2="282.03" y2="273.08"/><line class="cls-1" x1="282.03" y1="273.08" x2="282.56" y2="273.39"/><line class="cls-1" x1="282.03" y1="271.86" x2="282.03" y2="273.08"/><line class="cls-1" x1="286.28" y1="274.92" x2="285.75" y2="275.23"/><line class="cls-1" x1="285.75" y1="275.23" x2="286.28" y2="275.53"/><line class="cls-1" x1="286.28" y1="279.21" x2="285.75" y2="278.9"/><line class="cls-1" x1="286.28" y1="280.44" x2="286.28" y2="279.21"/><line class="cls-1" x1="283.63" y1="277.07" x2="282.03" y2="277.99"/><line class="cls-1" x1="282.03" y1="277.99" x2="286.28" y2="280.44"/><line class="cls-1" x1="282.03" y1="276.76" x2="282.03" y2="277.99"/><line class="cls-1" x1="282.56" y1="277.07" x2="282.03" y2="276.76"/><line class="cls-1" x1="282.56" y1="273.39" x2="282.56" y2="277.07"/><line class="cls-1" x1="247.18" y1="252.96" x2="247.71" y2="252.65"/><line class="cls-1" x1="247.71" y1="256.95" x2="247.18" y2="256.64"/><line class="cls-1" x1="247.71" y1="258.17" x2="247.71" y2="256.95"/><line class="cls-1" x1="245.06" y1="254.8" x2="243.47" y2="255.72"/><line class="cls-1" x1="243.47" y1="255.72" x2="247.71" y2="258.17"/><line class="cls-1" x1="243.47" y1="254.49" x2="243.47" y2="255.72"/><line class="cls-1" x1="244" y1="254.8" x2="243.47" y2="254.49"/><line class="cls-1" x1="245.06" y1="250.51" x2="244" y2="251.12"/><line class="cls-1" x1="244" y1="251.12" x2="244" y2="254.8"/><line class="cls-1" x1="244.53" y1="250.2" x2="243.47" y2="250.82"/><line class="cls-1" x1="243.47" y1="250.82" x2="244" y2="251.12"/><line class="cls-1" x1="243.47" y1="249.59" x2="243.47" y2="250.82"/><line class="cls-1" x1="247.18" y1="252.96" x2="247.71" y2="253.27"/><line class="cls-1" x1="283.63" y1="226" x2="282.03" y2="226.92"/><line class="cls-1" x1="282.03" y1="226.92" x2="286.28" y2="229.37"/><line class="cls-1" x1="282.03" y1="225.69" x2="282.03" y2="226.92"/><line class="cls-1" x1="282.56" y1="226" x2="282.03" y2="225.69"/><line class="cls-1" x1="283.63" y1="221.71" x2="282.56" y2="222.32"/><line class="cls-1" x1="282.56" y1="222.32" x2="282.56" y2="226"/><line class="cls-1" x1="283.1" y1="221.4" x2="282.03" y2="222.01"/><line class="cls-1" x1="282.03" y1="222.01" x2="282.56" y2="222.32"/><line class="cls-1" x1="282.03" y1="220.79" x2="282.03" y2="222.01"/><line class="cls-1" x1="286.28" y1="223.85" x2="285.75" y2="224.16"/><line class="cls-1" x1="285.75" y1="224.16" x2="286.28" y2="224.46"/><line class="cls-1" x1="286.28" y1="228.14" x2="285.75" y2="227.83"/><line class="cls-1" x1="286.28" y1="229.37" x2="286.28" y2="228.14"/><line class="cls-1" x1="243.47" y1="204.65" x2="245.06" y2="203.73"/><line class="cls-1" x1="243.47" y1="203.43" x2="243.47" y2="204.65"/><line class="cls-1" x1="244" y1="203.73" x2="243.47" y2="203.43"/><line class="cls-1" x1="245.06" y1="199.44" x2="244" y2="200.05"/><line class="cls-1" x1="244" y1="200.05" x2="244" y2="203.73"/><line class="cls-1" x1="244.53" y1="199.14" x2="243.47" y2="199.75"/><line class="cls-1" x1="243.47" y1="199.75" x2="244" y2="200.05"/><line class="cls-1" x1="243.47" y1="198.52" x2="243.47" y2="199.75"/><line class="cls-1" x1="247.71" y1="201.59" x2="247.18" y2="201.89"/><line class="cls-1" x1="247.18" y1="201.89" x2="247.71" y2="202.2"/><line class="cls-1" x1="247.71" y1="205.88" x2="247.18" y2="205.57"/><line class="cls-1" x1="247.71" y1="207.1" x2="247.71" y2="205.88"/><line class="cls-1" x1="243.47" y1="204.65" x2="247.71" y2="207.1"/><line class="cls-1" x1="123.35" y1="185.14" x2="122.82" y2="184.84"/><line class="cls-1" x1="124.41" y1="180.85" x2="123.35" y2="181.47"/><line class="cls-1" x1="123.35" y1="181.47" x2="123.35" y2="185.14"/><line class="cls-1" x1="123.88" y1="180.55" x2="122.82" y2="181.16"/><line class="cls-1" x1="122.82" y1="181.16" x2="123.35" y2="181.47"/><line class="cls-1" x1="122.82" y1="179.94" x2="122.82" y2="181.16"/><line class="cls-1" x1="127.07" y1="183" x2="126.53" y2="183.31"/><line class="cls-1" x1="126.53" y1="183.31" x2="127.07" y2="183.61"/><line class="cls-1" x1="127.07" y1="187.29" x2="126.53" y2="186.98"/><line class="cls-1" x1="127.07" y1="188.51" x2="127.07" y2="187.29"/><line class="cls-1" x1="124.41" y1="185.14" x2="122.82" y2="186.06"/><line class="cls-1" x1="122.82" y1="186.06" x2="127.07" y2="188.51"/><line class="cls-1" x1="122.82" y1="184.84" x2="122.82" y2="186.06"/><line class="cls-1" x1="126.53" y1="132.24" x2="127.07" y2="131.93"/><line class="cls-1" x1="127.07" y1="136.22" x2="126.53" y2="135.91"/><line class="cls-1" x1="127.07" y1="137.45" x2="127.07" y2="136.22"/><line class="cls-1" x1="124.41" y1="134.08" x2="122.82" y2="135"/><line class="cls-1" x1="122.82" y1="135" x2="127.07" y2="137.45"/><line class="cls-1" x1="122.82" y1="133.77" x2="122.82" y2="135"/><line class="cls-1" x1="123.35" y1="134.08" x2="122.82" y2="133.77"/><line class="cls-1" x1="124.41" y1="129.78" x2="123.35" y2="130.4"/><line class="cls-1" x1="123.35" y1="130.4" x2="123.35" y2="134.08"/><line class="cls-1" x1="123.88" y1="129.48" x2="122.82" y2="130.09"/><line class="cls-1" x1="122.82" y1="130.09" x2="123.35" y2="130.4"/><line class="cls-1" x1="122.82" y1="128.87" x2="122.82" y2="130.09"/><line class="cls-1" x1="126.53" y1="132.24" x2="127.07" y2="132.54"/><line class="cls-1" x1="176.42" y1="215.78" x2="175.89" y2="215.48"/><line class="cls-1" x1="177.48" y1="211.49" x2="176.42" y2="212.11"/><line class="cls-1" x1="176.42" y1="212.11" x2="176.42" y2="215.78"/><line class="cls-1" x1="176.95" y1="211.19" x2="175.89" y2="211.8"/><line class="cls-1" x1="175.89" y1="211.8" x2="176.42" y2="212.11"/><line class="cls-1" x1="175.89" y1="210.58" x2="175.89" y2="211.8"/><line class="cls-1" x1="180.14" y1="213.64" x2="179.61" y2="213.95"/><line class="cls-1" x1="179.61" y1="213.95" x2="180.14" y2="214.25"/><line class="cls-1" x1="180.14" y1="217.93" x2="179.61" y2="217.62"/><line class="cls-1" x1="180.14" y1="219.15" x2="180.14" y2="217.93"/><line class="cls-1" x1="177.48" y1="215.78" x2="175.89" y2="216.7"/><line class="cls-1" x1="175.89" y1="216.7" x2="180.14" y2="219.15"/><line class="cls-1" x1="175.89" y1="215.48" x2="175.89" y2="216.7"/><line class="cls-1" x1="137.86" y1="142.45" x2="137.33" y2="142.14"/><line class="cls-1" x1="138.92" y1="138.16" x2="137.86" y2="138.77"/><line class="cls-1" x1="137.86" y1="138.77" x2="137.86" y2="142.45"/><line class="cls-1" x1="138.39" y1="137.86" x2="137.33" y2="138.47"/><line class="cls-1" x1="137.33" y1="138.47" x2="137.86" y2="138.77"/><line class="cls-1" x1="137.33" y1="137.24" x2="137.33" y2="138.47"/><line class="cls-1" x1="141.57" y1="140.31" x2="141.04" y2="140.61"/><line class="cls-1" x1="141.04" y1="140.61" x2="141.57" y2="140.92"/><line class="cls-1" x1="141.57" y1="144.6" x2="141.04" y2="144.29"/><line class="cls-1" x1="141.57" y1="145.82" x2="141.57" y2="144.6"/><line class="cls-1" x1="138.92" y1="142.45" x2="137.33" y2="143.37"/><line class="cls-1" x1="137.33" y1="143.37" x2="141.57" y2="145.82"/><line class="cls-1" x1="137.33" y1="142.14" x2="137.33" y2="143.37"/><line class="cls-1" x1="141.57" y1="196.89" x2="141.57" y2="195.66"/><line class="cls-1" x1="138.92" y1="193.52" x2="137.33" y2="194.44"/><line class="cls-1" x1="137.33" y1="194.44" x2="141.57" y2="196.89"/><line class="cls-1" x1="137.33" y1="193.21" x2="137.33" y2="194.44"/><line class="cls-1" x1="137.86" y1="193.52" x2="137.33" y2="193.21"/><line class="cls-1" x1="138.92" y1="189.23" x2="137.86" y2="189.84"/><line class="cls-1" x1="137.86" y1="189.84" x2="137.86" y2="193.52"/><line class="cls-1" x1="138.39" y1="188.92" x2="137.33" y2="189.54"/><line class="cls-1" x1="137.33" y1="189.54" x2="137.86" y2="189.84"/><line class="cls-1" x1="137.33" y1="188.31" x2="137.33" y2="189.54"/><line class="cls-1" x1="141.57" y1="191.37" x2="141.04" y2="191.68"/><line class="cls-1" x1="141.04" y1="191.68" x2="141.57" y2="191.99"/><line class="cls-1" x1="141.57" y1="195.66" x2="141.04" y2="195.36"/><line class="cls-1" x1="177.48" y1="160.43" x2="176.42" y2="161.04"/><line class="cls-1" x1="176.42" y1="161.04" x2="176.42" y2="164.72"/><line class="cls-1" x1="176.95" y1="160.12" x2="175.89" y2="160.73"/><line class="cls-1" x1="175.89" y1="160.73" x2="176.42" y2="161.04"/><line class="cls-1" x1="175.89" y1="159.51" x2="175.89" y2="160.73"/><line class="cls-1" x1="180.14" y1="162.57" x2="179.61" y2="162.88"/><line class="cls-1" x1="179.61" y1="162.88" x2="180.14" y2="163.18"/><line class="cls-1" x1="180.14" y1="166.86" x2="179.61" y2="166.55"/><line class="cls-1" x1="180.14" y1="168.09" x2="180.14" y2="166.86"/><line class="cls-1" x1="177.48" y1="164.72" x2="175.89" y2="165.64"/><line class="cls-1" x1="175.89" y1="165.64" x2="180.14" y2="168.09"/><line class="cls-1" x1="175.89" y1="164.41" x2="175.89" y2="165.64"/><line class="cls-1" x1="176.42" y1="164.72" x2="175.89" y2="164.41"/><line class="cls-1" x1="229.49" y1="242.75" x2="230.56" y2="242.13"/><line class="cls-1" x1="230.03" y1="241.83" x2="228.96" y2="242.44"/><line class="cls-1" x1="228.96" y1="242.44" x2="229.49" y2="242.75"/><line class="cls-1" x1="228.96" y1="241.22" x2="228.96" y2="242.44"/><line class="cls-1" x1="233.21" y1="244.28" x2="232.68" y2="244.59"/><line class="cls-1" x1="232.68" y1="244.59" x2="233.21" y2="244.89"/><line class="cls-1" x1="233.21" y1="248.57" x2="232.68" y2="248.26"/><line class="cls-1" x1="233.21" y1="249.79" x2="233.21" y2="248.57"/><line class="cls-1" x1="230.56" y1="246.42" x2="228.96" y2="247.34"/><line class="cls-1" x1="228.96" y1="247.34" x2="233.21" y2="249.79"/><line class="cls-1" x1="228.96" y1="246.12" x2="228.96" y2="247.34"/><line class="cls-1" x1="229.49" y1="246.42" x2="228.96" y2="246.12"/><line class="cls-1" x1="229.49" y1="242.75" x2="229.49" y2="246.42"/><line class="cls-1" x1="194.11" y1="222.32" x2="194.64" y2="222.01"/><line class="cls-1" x1="194.64" y1="226.3" x2="194.11" y2="226"/><line class="cls-1" x1="194.64" y1="227.53" x2="194.64" y2="226.3"/><line class="cls-1" x1="191.99" y1="224.16" x2="190.4" y2="225.08"/><line class="cls-1" x1="190.4" y1="225.08" x2="194.64" y2="227.53"/><line class="cls-1" x1="190.4" y1="223.85" x2="190.4" y2="225.08"/><line class="cls-1" x1="190.93" y1="224.16" x2="190.4" y2="223.85"/><line class="cls-1" x1="191.99" y1="219.87" x2="190.93" y2="220.48"/><line class="cls-1" x1="190.93" y1="220.48" x2="190.93" y2="224.16"/><line class="cls-1" x1="191.46" y1="219.56" x2="190.4" y2="220.18"/><line class="cls-1" x1="190.4" y1="220.18" x2="190.93" y2="220.48"/><line class="cls-1" x1="190.4" y1="218.95" x2="190.4" y2="220.18"/><line class="cls-1" x1="194.11" y1="222.32" x2="194.64" y2="222.63"/><line class="cls-1" x1="230.56" y1="195.36" x2="228.96" y2="196.28"/><line class="cls-1" x1="228.96" y1="196.28" x2="233.21" y2="198.73"/><line class="cls-1" x1="228.96" y1="195.05" x2="228.96" y2="196.28"/><line class="cls-1" x1="229.49" y1="195.36" x2="228.96" y2="195.05"/><line class="cls-1" x1="230.56" y1="191.07" x2="229.49" y2="191.68"/><line class="cls-1" x1="229.49" y1="191.68" x2="229.49" y2="195.36"/><line class="cls-1" x1="230.03" y1="190.76" x2="228.96" y2="191.37"/><line class="cls-1" x1="228.96" y1="191.37" x2="229.49" y2="191.68"/><line class="cls-1" x1="228.96" y1="190.15" x2="228.96" y2="191.37"/><line class="cls-1" x1="233.21" y1="193.21" x2="232.68" y2="193.52"/><line class="cls-1" x1="232.68" y1="193.52" x2="233.21" y2="193.82"/><line class="cls-1" x1="233.21" y1="197.5" x2="232.68" y2="197.19"/><line class="cls-1" x1="233.21" y1="198.73" x2="233.21" y2="197.5"/><line class="cls-1" x1="190.4" y1="174.01" x2="191.99" y2="173.09"/><line class="cls-1" x1="190.4" y1="172.78" x2="190.4" y2="174.01"/><line class="cls-1" x1="190.93" y1="173.09" x2="190.4" y2="172.78"/><line class="cls-1" x1="191.99" y1="168.8" x2="190.93" y2="169.41"/><line class="cls-1" x1="190.93" y1="169.41" x2="190.93" y2="173.09"/><line class="cls-1" x1="191.46" y1="168.5" x2="190.4" y2="169.11"/><line class="cls-1" x1="190.4" y1="169.11" x2="190.93" y2="169.41"/><line class="cls-1" x1="190.4" y1="167.88" x2="190.4" y2="169.11"/><line class="cls-1" x1="194.64" y1="170.95" x2="194.11" y2="171.25"/><line class="cls-1" x1="194.11" y1="171.25" x2="194.64" y2="171.56"/><line class="cls-1" x1="194.64" y1="175.24" x2="194.11" y2="174.93"/><line class="cls-1" x1="194.64" y1="176.46" x2="194.64" y2="175.24"/><line class="cls-1" x1="190.4" y1="174.01" x2="194.64" y2="176.46"/><line class="cls-1" x1="293" y1="248.36" x2="293" y2="247.75"/><line class="cls-1" x1="293" y1="247.75" x2="293" y2="226.1"/><line class="cls-1" x1="278.67" y1="228.65" x2="278.67" y2="228.04"/><line class="cls-1" x1="278.67" y1="228.04" x2="278.67" y2="217.83"/><line class="cls-1" x1="239.93" y1="217.72" x2="239.93" y2="217.11"/><line class="cls-1" x1="239.93" y1="217.11" x2="239.93" y2="195.46"/><line class="cls-1" x1="225.6" y1="198.01" x2="225.6" y2="197.4"/><line class="cls-1" x1="225.6" y1="197.4" x2="225.6" y2="187.19"/><line class="cls-1" x1="186.86" y1="187.08" x2="186.86" y2="186.47"/><line class="cls-1" x1="186.86" y1="186.47" x2="186.86" y2="164.82"/><line class="cls-1" x1="172.53" y1="167.37" x2="172.53" y2="166.76"/><line class="cls-1" x1="172.53" y1="166.76" x2="172.53" y2="156.55"/><line class="cls-1" x1="133.79" y1="156.44" x2="133.79" y2="155.83"/><line class="cls-1" x1="133.79" y1="155.83" x2="133.79" y2="134.18"/><line class="cls-1" x1="119.46" y1="136.73" x2="119.46" y2="136.12"/><line class="cls-1" x1="119.46" y1="136.12" x2="119.46" y2="125.9"/><line class="cls-1" x1="134.32" y1="188.41" x2="132.2" y2="187.19"/><line class="cls-1" x1="134.32" y1="189.64" x2="134.32" y2="189.02"/><line class="cls-1" x1="134.32" y1="189.02" x2="134.32" y2="188.41"/><line class="cls-1" x1="187.39" y1="219.05" x2="185.27" y2="217.83"/><line class="cls-1" x1="187.39" y1="220.28" x2="187.39" y2="219.66"/><line class="cls-1" x1="187.39" y1="219.66" x2="187.39" y2="219.05"/><line class="cls-1" x1="240.46" y1="249.69" x2="238.34" y2="248.47"/><line class="cls-1" x1="240.46" y1="250.92" x2="240.46" y2="250.3"/><line class="cls-1" x1="240.46" y1="250.3" x2="240.46" y2="249.69"/><line class="cls-1" x1="293.53" y1="280.33" x2="291.41" y2="279.11"/><line class="cls-1" x1="293.53" y1="281.56" x2="293.53" y2="280.95"/><line class="cls-1" x1="293.53" y1="280.95" x2="293.53" y2="280.33"/><line class="cls-1" x1="298.66" y1="284.52" x2="298.13" y2="284.83"/><line class="cls-1" x1="298.13" y1="284.83" x2="297.07" y2="285.44"/><line class="cls-1" x1="300.78" y1="282.68" x2="298.66" y2="281.46"/><line class="cls-1" x1="300.78" y1="283.91" x2="300.78" y2="283.3"/><line class="cls-1" x1="300.78" y1="283.3" x2="300.78" y2="282.68"/><line class="cls-1" x1="300.25" y1="287.28" x2="300.25" y2="286.67"/><line class="cls-1" x1="300.25" y1="286.67" x2="300.25" y2="283.6"/><line class="cls-1" x1="300.78" y1="231.62" x2="298.66" y2="230.39"/><line class="cls-1" x1="300.78" y1="232.84" x2="300.78" y2="232.23"/><line class="cls-1" x1="300.78" y1="232.23" x2="300.78" y2="231.62"/><line class="cls-1" x1="300.25" y1="236.21" x2="300.25" y2="235.6"/><line class="cls-1" x1="300.25" y1="235.6" x2="300.25" y2="232.53"/><line class="cls-1" x1="298.66" y1="233.45" x2="298.13" y2="233.76"/><line class="cls-1" x1="298.13" y1="233.76" x2="297.07" y2="234.37"/><line class="cls-1" x1="286.28" y1="274.31" x2="284.16" y2="273.08"/><line class="cls-1" x1="286.28" y1="275.53" x2="286.28" y2="274.92"/><line class="cls-1" x1="286.28" y1="274.92" x2="286.28" y2="274.31"/><line class="cls-1" x1="285.75" y1="278.9" x2="285.75" y2="278.29"/><line class="cls-1" x1="285.75" y1="278.29" x2="285.75" y2="275.23"/><line class="cls-1" x1="284.16" y1="276.14" x2="283.63" y2="276.45"/><line class="cls-1" x1="283.63" y1="276.45" x2="282.56" y2="277.07"/><line class="cls-1" x1="247.18" y1="256.64" x2="247.18" y2="256.03"/><line class="cls-1" x1="247.18" y1="256.03" x2="247.18" y2="252.96"/><line class="cls-1" x1="245.59" y1="253.88" x2="245.06" y2="254.19"/><line class="cls-1" x1="245.06" y1="254.19" x2="244" y2="254.8"/><line class="cls-1" x1="247.71" y1="252.04" x2="245.59" y2="250.82"/><line class="cls-1" x1="247.71" y1="253.27" x2="247.71" y2="252.65"/><line class="cls-1" x1="247.71" y1="252.65" x2="247.71" y2="252.04"/><line class="cls-1" x1="284.16" y1="225.08" x2="283.63" y2="225.38"/><line class="cls-1" x1="283.63" y1="225.38" x2="282.56" y2="226"/><line class="cls-1" x1="283.1" y1="221.4" x2="282.03" y2="220.79"/><line class="cls-1" x1="286.28" y1="224.46" x2="286.28" y2="223.85"/><line class="cls-1" x1="286.28" y1="223.85" x2="286.28" y2="223.24"/><line class="cls-1" x1="285.75" y1="227.83" x2="285.75" y2="227.22"/><line class="cls-1" x1="285.75" y1="227.22" x2="285.75" y2="224.16"/><line class="cls-1" x1="245.59" y1="202.81" x2="245.06" y2="203.12"/><line class="cls-1" x1="245.06" y1="203.12" x2="244" y2="203.73"/><line class="cls-1" x1="247.71" y1="200.97" x2="245.59" y2="199.75"/><line class="cls-1" x1="247.71" y1="202.2" x2="247.71" y2="201.59"/><line class="cls-1" x1="247.71" y1="201.59" x2="247.71" y2="200.97"/><line class="cls-1" x1="247.18" y1="205.57" x2="247.18" y2="204.96"/><line class="cls-1" x1="247.18" y1="204.96" x2="247.18" y2="201.89"/><line class="cls-1" x1="124.94" y1="184.22" x2="124.41" y2="184.53"/><line class="cls-1" x1="124.41" y1="184.53" x2="123.35" y2="185.14"/><line class="cls-1" x1="127.07" y1="182.39" x2="124.94" y2="181.16"/><line class="cls-1" x1="127.07" y1="183.61" x2="127.07" y2="183"/><line class="cls-1" x1="127.07" y1="183" x2="127.07" y2="182.39"/><line class="cls-1" x1="126.53" y1="186.98" x2="126.53" y2="186.37"/><line class="cls-1" x1="126.53" y1="186.37" x2="126.53" y2="183.31"/><line class="cls-1" x1="126.53" y1="135.91" x2="126.53" y2="135.3"/><line class="cls-1" x1="126.53" y1="135.3" x2="126.53" y2="132.24"/><line class="cls-1" x1="124.94" y1="133.16" x2="124.41" y2="133.46"/><line class="cls-1" x1="124.41" y1="133.46" x2="123.35" y2="134.08"/><line class="cls-1" x1="127.07" y1="131.32" x2="124.94" y2="130.09"/><line class="cls-1" x1="127.07" y1="132.54" x2="127.07" y2="131.93"/><line class="cls-1" x1="127.07" y1="131.93" x2="127.07" y2="131.32"/><line class="cls-1" x1="178.01" y1="214.86" x2="177.48" y2="215.17"/><line class="cls-1" x1="177.48" y1="215.17" x2="176.42" y2="215.78"/><line class="cls-1" x1="180.14" y1="213.03" x2="178.01" y2="211.8"/><line class="cls-1" x1="180.14" y1="214.25" x2="180.14" y2="213.64"/><line class="cls-1" x1="180.14" y1="213.64" x2="180.14" y2="213.03"/><line class="cls-1" x1="179.61" y1="217.62" x2="179.61" y2="217.01"/><line class="cls-1" x1="179.61" y1="217.01" x2="179.61" y2="213.95"/><line class="cls-1" x1="139.45" y1="141.53" x2="138.92" y2="141.84"/><line class="cls-1" x1="138.92" y1="141.84" x2="137.86" y2="142.45"/><line class="cls-1" x1="141.57" y1="139.69" x2="139.45" y2="138.47"/><line class="cls-1" x1="141.57" y1="140.92" x2="141.57" y2="140.31"/><line class="cls-1" x1="141.57" y1="140.31" x2="141.57" y2="139.69"/><line class="cls-1" x1="141.04" y1="144.29" x2="141.04" y2="143.68"/><line class="cls-1" x1="141.04" y1="143.68" x2="141.04" y2="140.61"/><line class="cls-1" x1="139.45" y1="192.6" x2="138.92" y2="192.91"/><line class="cls-1" x1="138.92" y1="192.91" x2="137.86" y2="193.52"/><line class="cls-1" x1="141.57" y1="190.76" x2="139.45" y2="189.54"/><line class="cls-1" x1="141.57" y1="191.99" x2="141.57" y2="191.37"/><line class="cls-1" x1="141.57" y1="191.37" x2="141.57" y2="190.76"/><line class="cls-1" x1="141.04" y1="195.36" x2="141.04" y2="194.74"/><line class="cls-1" x1="141.04" y1="194.74" x2="141.04" y2="191.68"/><line class="cls-1" x1="176.42" y1="164.72" x2="177.48" y2="164.1"/><line class="cls-1" x1="177.48" y1="164.1" x2="178.01" y2="163.8"/><line class="cls-1" x1="180.14" y1="161.96" x2="178.01" y2="160.73"/><line class="cls-1" x1="180.14" y1="163.18" x2="180.14" y2="162.57"/><line class="cls-1" x1="180.14" y1="162.57" x2="180.14" y2="161.96"/><line class="cls-1" x1="179.61" y1="166.55" x2="179.61" y2="165.94"/><line class="cls-1" x1="179.61" y1="165.94" x2="179.61" y2="162.88"/><line class="cls-1" x1="233.21" y1="243.67" x2="231.09" y2="242.44"/><line class="cls-1" x1="233.21" y1="244.89" x2="233.21" y2="244.28"/><line class="cls-1" x1="233.21" y1="244.28" x2="233.21" y2="243.67"/><line class="cls-1" x1="232.68" y1="248.26" x2="232.68" y2="247.65"/><line class="cls-1" x1="232.68" y1="247.65" x2="232.68" y2="244.59"/><line class="cls-1" x1="231.09" y1="245.51" x2="230.56" y2="245.81"/><line class="cls-1" x1="230.56" y1="245.81" x2="229.49" y2="246.42"/><line class="cls-1" x1="194.11" y1="226" x2="194.11" y2="225.38"/><line class="cls-1" x1="194.11" y1="225.38" x2="194.11" y2="222.32"/><line class="cls-1" x1="192.52" y1="223.24" x2="191.99" y2="223.55"/><line class="cls-1" x1="191.99" y1="223.55" x2="190.93" y2="224.16"/><line class="cls-1" x1="194.64" y1="221.4" x2="192.52" y2="220.18"/><line class="cls-1" x1="194.64" y1="222.63" x2="194.64" y2="222.01"/><line class="cls-1" x1="194.64" y1="222.01" x2="194.64" y2="221.4"/><line class="cls-1" x1="231.09" y1="194.44" x2="230.56" y2="194.74"/><line class="cls-1" x1="230.56" y1="194.74" x2="229.49" y2="195.36"/><line class="cls-1" x1="233.21" y1="192.6" x2="231.09" y2="191.37"/><line class="cls-1" x1="233.21" y1="193.82" x2="233.21" y2="193.21"/><line class="cls-1" x1="233.21" y1="193.21" x2="233.21" y2="192.6"/><line class="cls-1" x1="232.68" y1="197.19" x2="232.68" y2="196.58"/><line class="cls-1" x1="232.68" y1="196.58" x2="232.68" y2="193.52"/><line class="cls-1" x1="192.52" y1="172.17" x2="191.99" y2="172.48"/><line class="cls-1" x1="191.99" y1="172.48" x2="190.93" y2="173.09"/><line class="cls-1" x1="194.64" y1="170.33" x2="192.52" y2="169.11"/><line class="cls-1" x1="194.64" y1="171.56" x2="194.64" y2="170.95"/><line class="cls-1" x1="194.64" y1="170.95" x2="194.64" y2="170.33"/><line class="cls-1" x1="194.11" y1="174.93" x2="194.11" y2="174.32"/><line class="cls-1" x1="194.11" y1="174.32" x2="194.11" y2="171.25"/><line class="cls-1" x1="131.14" y1="186.57" x2="130.07" y2="185.96"/><line class="cls-1" x1="184.21" y1="217.21" x2="183.15" y2="216.6"/><line class="cls-1" x1="237.28" y1="247.85" x2="236.22" y2="247.24"/><line class="cls-1" x1="290.35" y1="278.5" x2="289.29" y2="277.88"/><line class="cls-1" x1="298.66" y1="281.46" x2="298.13" y2="281.15"/><line class="cls-1" x1="298.66" y1="230.39" x2="298.13" y2="230.08"/><line class="cls-1" x1="284.16" y1="273.08" x2="283.63" y2="272.77"/><line class="cls-1" x1="245.59" y1="250.82" x2="245.06" y2="250.51"/><line class="cls-1" x1="286.28" y1="223.24" x2="284.16" y2="222.01"/><line class="cls-1" x1="245.59" y1="199.75" x2="245.06" y2="199.44"/><line class="cls-1" x1="124.94" y1="181.16" x2="124.41" y2="180.85"/><line class="cls-1" x1="124.94" y1="130.09" x2="124.41" y2="129.78"/><line class="cls-1" x1="178.01" y1="211.8" x2="177.48" y2="211.49"/><line class="cls-1" x1="139.45" y1="138.47" x2="138.92" y2="138.16"/><line class="cls-1" x1="139.45" y1="189.54" x2="138.92" y2="189.23"/><line class="cls-1" x1="178.01" y1="160.73" x2="177.48" y2="160.43"/><line class="cls-1" x1="231.09" y1="242.44" x2="230.56" y2="242.13"/><line class="cls-1" x1="192.52" y1="220.18" x2="191.99" y2="219.87"/><line class="cls-1" x1="231.09" y1="191.37" x2="230.56" y2="191.07"/><line class="cls-1" x1="192.52" y1="169.11" x2="191.99" y2="168.8"/><line class="cls-1" x1="132.2" y1="187.19" x2="131.67" y2="186.88"/><line class="cls-1" x1="131.67" y1="186.88" x2="131.14" y2="186.57"/><line class="cls-1" x1="185.27" y1="217.83" x2="184.74" y2="217.52"/><line class="cls-1" x1="184.74" y1="217.52" x2="184.21" y2="217.21"/><line class="cls-1" x1="238.34" y1="248.47" x2="237.81" y2="248.16"/><line class="cls-1" x1="237.81" y1="248.16" x2="237.28" y2="247.85"/><line class="cls-1" x1="291.41" y1="279.11" x2="290.88" y2="278.8"/><line class="cls-1" x1="290.88" y1="278.8" x2="290.35" y2="278.5"/><line class="cls-1" x1="298.13" y1="281.15" x2="297.6" y2="280.85"/><line class="cls-1" x1="297.6" y1="280.85" x2="296.54" y2="280.23"/><line class="cls-1" x1="298.13" y1="230.08" x2="297.6" y2="229.78"/><line class="cls-1" x1="297.6" y1="229.78" x2="296.54" y2="229.16"/><line class="cls-1" x1="283.63" y1="272.77" x2="283.1" y2="272.47"/><line class="cls-1" x1="283.1" y1="272.47" x2="282.03" y2="271.86"/><line class="cls-1" x1="245.06" y1="250.51" x2="244.53" y2="250.2"/><line class="cls-1" x1="244.53" y1="250.2" x2="243.47" y2="249.59"/><line class="cls-1" x1="284.16" y1="222.01" x2="283.63" y2="221.71"/><line class="cls-1" x1="283.63" y1="221.71" x2="283.1" y2="221.4"/><line class="cls-1" x1="245.06" y1="199.44" x2="244.53" y2="199.14"/><line class="cls-1" x1="244.53" y1="199.14" x2="243.47" y2="198.52"/><line class="cls-1" x1="124.41" y1="180.85" x2="123.88" y2="180.55"/><line class="cls-1" x1="123.88" y1="180.55" x2="122.82" y2="179.94"/><line class="cls-1" x1="124.41" y1="129.78" x2="123.88" y2="129.48"/><line class="cls-1" x1="123.88" y1="129.48" x2="122.82" y2="128.87"/><line class="cls-1" x1="177.48" y1="211.49" x2="176.95" y2="211.19"/><line class="cls-1" x1="176.95" y1="211.19" x2="175.89" y2="210.58"/><line class="cls-1" x1="138.92" y1="138.16" x2="138.39" y2="137.86"/><line class="cls-1" x1="138.39" y1="137.86" x2="137.33" y2="137.24"/><line class="cls-1" x1="138.92" y1="189.23" x2="138.39" y2="188.92"/><line class="cls-1" x1="138.39" y1="188.92" x2="137.33" y2="188.31"/><line class="cls-1" x1="177.48" y1="160.43" x2="176.95" y2="160.12"/><line class="cls-1" x1="176.95" y1="160.12" x2="175.89" y2="159.51"/><line class="cls-1" x1="230.56" y1="242.13" x2="230.03" y2="241.83"/><line class="cls-1" x1="230.03" y1="241.83" x2="228.96" y2="241.22"/><line class="cls-1" x1="191.99" y1="219.87" x2="191.46" y2="219.56"/><line class="cls-1" x1="191.46" y1="219.56" x2="190.4" y2="218.95"/><line class="cls-1" x1="230.56" y1="191.07" x2="230.03" y2="190.76"/><line class="cls-1" x1="230.03" y1="190.76" x2="228.96" y2="190.15"/><line class="cls-1" x1="191.99" y1="168.8" x2="191.46" y2="168.5"/><line class="cls-1" x1="191.46" y1="168.5" x2="190.4" y2="167.88"/><line class="cls-1" x1="319.54" y1="300.04" x2="319.54" y2="251.63"/><line class="cls-1" x1="107.25" y1="129.07" x2="119.46" y2="136.12"/><line class="cls-1" x1="131.67" y1="154.61" x2="133.79" y2="155.83"/><line class="cls-1" x1="145.99" y1="151.44" x2="172.53" y2="166.76"/><line class="cls-1" x1="184.74" y1="185.25" x2="186.86" y2="186.47"/><line class="cls-1" x1="199.07" y1="182.08" x2="225.6" y2="197.4"/><line class="cls-1" x1="237.81" y1="215.89" x2="239.93" y2="217.11"/><line class="cls-1" x1="252.14" y1="212.72" x2="278.67" y2="228.04"/><line class="cls-1" x1="290.88" y1="246.53" x2="293" y2="247.75"/><line class="cls-1" x1="305.21" y1="243.36" x2="319.54" y2="251.63"/><line class="cls-1" x1="303.62" y1="244.28" x2="305.21" y2="243.36"/><line class="cls-1" x1="305.74" y1="242.44" x2="305.21" y2="242.75"/><line class="cls-1" x1="293.31" y1="225.41" x2="294.9" y2="224.49"/><line class="cls-1" x1="304.15" y1="243.36" x2="305.21" y2="242.75"/><line class="cls-1" x1="289.29" y1="247.45" x2="290.88" y2="246.53"/><line class="cls-1" x1="291.41" y1="245.61" x2="290.88" y2="245.91"/><line class="cls-1" x1="278.98" y1="217.14" x2="280.58" y2="216.22"/><line class="cls-1" x1="289.82" y1="246.53" x2="290.88" y2="245.91"/><line class="cls-1" x1="250.54" y1="213.64" x2="252.14" y2="212.72"/><line class="cls-1" x1="252.67" y1="211.8" x2="252.14" y2="212.11"/><line class="cls-1" x1="240.24" y1="194.77" x2="241.83" y2="193.85"/><line class="cls-1" x1="251.07" y1="212.72" x2="252.14" y2="212.11"/><line class="cls-1" x1="236.22" y1="216.81" x2="237.81" y2="215.89"/><line class="cls-1" x1="238.34" y1="214.97" x2="237.81" y2="215.27"/><line class="cls-1" x1="225.91" y1="186.5" x2="227.5" y2="185.58"/><line class="cls-1" x1="236.75" y1="215.89" x2="237.81" y2="215.27"/><line class="cls-1" x1="197.47" y1="183" x2="199.07" y2="182.08"/><line class="cls-1" x1="199.6" y1="181.16" x2="199.07" y2="181.47"/><line class="cls-1" x1="187.17" y1="164.13" x2="188.76" y2="163.21"/><line class="cls-1" x1="198" y1="182.08" x2="199.07" y2="181.47"/><line class="cls-1" x1="183.15" y1="186.17" x2="184.74" y2="185.25"/><line class="cls-1" x1="185.27" y1="184.33" x2="184.74" y2="184.63"/><line class="cls-1" x1="172.84" y1="155.86" x2="174.43" y2="154.94"/><line class="cls-1" x1="183.68" y1="185.25" x2="184.74" y2="184.63"/><line class="cls-1" x1="144.4" y1="152.36" x2="145.99" y2="151.44"/><line class="cls-1" x1="146.52" y1="150.52" x2="145.99" y2="150.83"/><line class="cls-1" x1="134.1" y1="133.49" x2="135.69" y2="132.57"/><line class="cls-1" x1="144.93" y1="151.44" x2="145.99" y2="150.83"/><line class="cls-1" x1="130.07" y1="155.53" x2="131.67" y2="154.61"/><line class="cls-1" x1="132.2" y1="153.68" x2="131.67" y2="153.99"/><line class="cls-1" x1="119.77" y1="125.22" x2="121.36" y2="124.3"/><line class="cls-1" x1="130.61" y1="154.61" x2="131.67" y2="153.99"/><line class="cls-1" x1="130.29" y1="192.26" x2="131.89" y2="191.35"/><line class="cls-1" x1="131.67" y1="186.88" x2="130.87" y2="187.34"/><line class="cls-1" x1="130.07" y1="187.19" x2="131.14" y2="186.57"/><line class="cls-1" x1="183.37" y1="222.9" x2="184.96" y2="221.99"/><line class="cls-1" x1="183.94" y1="217.98" x2="184.74" y2="217.52"/><line class="cls-1" x1="134.32" y1="189.02" x2="133.79" y2="189.33"/><line class="cls-1" x1="183.15" y1="217.83" x2="184.21" y2="217.21"/><line class="cls-1" x1="236.44" y1="253.55" x2="238.03" y2="252.63"/><line class="cls-1" x1="237.01" y1="248.62" x2="237.81" y2="248.16"/><line class="cls-1" x1="187.39" y1="219.66" x2="186.86" y2="219.97"/><line class="cls-1" x1="236.22" y1="248.47" x2="237.28" y2="247.85"/><line class="cls-1" x1="289.51" y1="284.19" x2="291.1" y2="283.27"/><line class="cls-1" x1="290.08" y1="279.26" x2="290.88" y2="278.8"/><line class="cls-1" x1="240.46" y1="250.3" x2="239.93" y2="250.61"/><line class="cls-1" x1="289.29" y1="279.11" x2="290.35" y2="278.5"/><line class="cls-1" x1="293.53" y1="280.95" x2="293" y2="281.25"/><line class="cls-1" x1="293" y1="285.34" x2="293" y2="281.25"/><polygon class="cls-2" points="105.73 130.49 107.33 129.56 119.53 136.61 119.53 126.4 119.61 125.99 119.84 125.71 121.43 124.79 121.79 124.73 122.18 124.87 131.21 130.08 131.6 130.39 131.96 130.87 132.19 131.42 132.27 131.91 132.27 154.18 131.74 154.49 131.74 155.1 133.86 156.32 133.86 134.67 133.94 134.26 134.17 133.99 135.76 133.06 136.12 133 136.51 133.14 145.54 138.35 145.93 138.66 146.29 139.14 146.52 139.69 146.6 140.19 146.6 151.01 146.07 151.32 146.07 151.94 172.6 167.25 172.6 157.04 172.68 156.63 172.91 156.35 174.5 155.43 174.87 155.37 175.26 155.51 184.28 160.72 184.67 161.03 185.03 161.51 185.27 162.06 185.34 162.56 185.34 184.82 184.81 185.13 184.81 185.74 186.93 186.97 186.93 165.31 187.01 164.91 187.24 164.63 188.83 163.71 189.19 163.64 189.59 163.78 198.61 168.99 199 169.3 199.36 169.78 199.59 170.33 199.67 170.83 199.67 181.66 199.14 181.96 199.14 182.57 225.68 197.89 225.68 187.68 225.75 187.27 225.99 186.99 227.58 186.07 227.94 186.01 228.33 186.15 237.35 191.36 237.74 191.67 238.1 192.15 238.34 192.7 238.41 193.2 238.41 215.46 237.88 215.77 237.88 216.38 240 217.61 240 195.95 240.08 195.55 240.31 195.27 241.91 194.35 242.27 194.28 242.66 194.42 251.68 199.63 252.07 199.94 252.43 200.42 252.66 200.97 252.74 201.47 252.74 212.3 252.21 212.6 252.21 213.22 278.75 228.53 278.75 218.32 278.82 217.91 279.06 217.63 280.65 216.71 281.01 216.65 281.4 216.79 290.42 222 290.81 222.31 291.17 222.79 291.41 223.34 291.48 223.84 291.48 246.1 290.95 246.41 290.95 247.02 293.07 248.25 293.07 226.59 293.15 226.19 293.38 225.91 294.98 224.99 295.34 224.92 295.73 225.06 304.75 230.27 305.14 230.58 305.5 231.06 305.74 231.62 305.81 232.11 305.81 242.94 305.28 243.24 305.28 243.86 319.61 252.13 319.61 300.54 318.02 301.46 294.13 287.67 293.74 287.36 293.38 286.88 293.15 286.33 293.07 285.83 293.07 281.75 293.6 281.44 293.6 280.83 291.48 279.6 291.48 283.08 291.41 283.48 291.17 283.76 289.58 284.68 289.22 284.75 288.83 284.61 241.06 257.03 240.67 256.72 240.31 256.24 240.08 255.69 240 255.19 240 251.11 240.53 250.8 240.53 250.19 238.41 248.96 238.41 252.44 238.34 252.84 238.1 253.12 236.51 254.04 236.15 254.11 235.76 253.97 187.99 226.39 187.6 226.08 187.24 225.6 187.01 225.04 186.93 224.55 186.93 220.47 187.46 220.16 187.46 219.55 185.34 218.32 185.34 221.79 185.27 222.2 185.03 222.48 183.44 223.4 183.08 223.47 182.69 223.33 134.92 195.75 134.53 195.44 134.17 194.96 133.94 194.4 133.86 193.91 133.86 189.83 134.39 189.52 134.39 188.91 132.27 187.68 132.27 191.15 132.19 191.56 131.96 191.84 130.37 192.76 130 192.82 129.62 192.69 105.73 178.9 105.73 130.49"/></svg>