<svg xmlns="http://www.w3.org/2000/svg" xmlns:xlink="http://www.w3.org/1999/xlink" width="500" height="500" viewBox = " 0 0 500 500" preserveAspectRatio="xMinYMin meet">
<rect id="background" x="0" y="0" width="500" height="500" style="fill:none; stroke:none;" />
<polyline id="3c93545d-2346-44fb-9fc0-fdfd46f287c4" points="290.5172 286.8859 289.2444 287.6208 206.9372 240.1007 206.9372 237.1613 205.6644 237.8961 204.3916 238.631 198.5933 235.2833 198.5933 209.7665 199.8661 209.0316 201.1389 208.2968 202.4117 207.5619 301.4067 264.7167 301.4067 290.2335 300.1339 290.9684 298.8611 291.7032 297.5883 292.4381 291.79 289.0905 291.79 286.1511 290.5172 286.8859 "  class="cls-30449002" >  </polyline>
<polyline id="d6f19dbd-c19f-4fc0-a8d5-e93375837c52" points="289.2444 287.6208 206.9372 240.1007 "  class="cls-1008689814" >  </polyline>
<polyline id="f484d434-5572-49f1-85e0-e6c303d02b80" points="289.2444 287.6208 290.5172 286.8859 "  class="cls-1008689814" >  </polyline>
<polyline id="b0c14452-c739-432d-a207-3d5fc1b747ae" points="206.9372 231.077 207.3619 230.8318 "  class="cls-1008689814" >  </polyline>
<polyline id="ee12367d-16c6-457d-a950-680b52f9f679" points="206.9372 231.077 207.3615 231.322 "  class="cls-1008689814" >  </polyline>
<polyline id="ce08cb96-9ca1-4adb-874f-8f4c790fabeb" points="203.9673 228.3826 203.9673 229.3624 "  class="cls-1008689814" >  </polyline>
<polyline id="477faa65-1a3b-4f11-b6fe-2df5b61b56f8" points="203.9673 229.3624 204.8162 228.8723 "  class="cls-1008689814" >  </polyline>
<polyline id="a4145ca2-dc0c-47c9-9b64-9dc8cb886d4a" points="203.9673 229.3624 204.3916 229.6073 "  class="cls-1008689814" >  </polyline>
<polyline id="36f8d171-afb1-48f0-b4af-648dd22fe7b6" points="204.3916 229.6073 205.2405 229.1172 "  class="cls-1008689814" >  </polyline>
<polyline id="9271da44-6201-4f5d-b8e1-f1b93d01e852" points="204.3916 238.631 205.6644 237.8961 "  class="cls-1008689814" >  </polyline>
<polyline id="4889e717-9cbe-43f1-85a2-9d642c793996" points="204.3916 238.631 198.5934 235.2833 "  class="cls-1008689814" >  </polyline>
<polyline id="94e13b6a-5850-4774-9216-c69861eb66da" points="198.5934 235.2833 198.5933 209.7665 "  class="cls-1008689814" >  </polyline>
<polyline id="32750e24-630d-4368-8105-b542e03f320d" points="198.5933 209.7665 199.8661 209.0316 "  class="cls-1008689814" >  </polyline>
<polyline id="d2b6c320-6409-4d79-9c39-52e9760a5012" points="297.5883 266.9212 298.8611 266.1864 "  class="cls-1008689814" >  </polyline>
<polyline id="3fdff0ff-2404-4885-83bf-b7b977b3b465" points="297.5883 292.4381 298.8611 291.7032 "  class="cls-1008689814" >  </polyline>
<polyline id="46121c89-6ca8-4520-aa24-17862e219fe9" points="297.5883 292.4381 291.79 289.0905 "  class="cls-1008689814" >  </polyline>
<polyline id="2c04fd7a-78b7-443e-a191-8351c592a8dd" points="291.79 280.0668 292.2147 279.8216 "  class="cls-1008689814" >  </polyline>
<polyline id="e00c3678-558f-4ec2-89d1-6dab028107af" points="291.79 280.0668 292.2143 280.3118 "  class="cls-1008689814" >  </polyline>
<polyline id="0b31afd1-32ae-444a-9a92-c850b5c60669" points="288.8202 277.3724 288.8202 278.3522 "  class="cls-1008689814" >  </polyline>
<polyline id="7e68fd4a-67ee-46b7-9f87-fd48dbfd0f00" points="288.8202 278.3522 289.669 277.8621 "  class="cls-1008689814" >  </polyline>
<polyline id="6932ba7c-dc8c-46d9-a45e-5212bbe5be06" points="288.8202 278.3522 289.2444 278.5971 "  class="cls-1008689814" >  </polyline>
<polyline id="f3ee9a55-933f-4201-9f47-0f782b836714" points="289.2444 278.5971 290.0933 278.107 "  class="cls-1008689814" >  </polyline>
<polyline id="a87fce42-8953-4dd0-9d3b-82482effb496" points="290.5172 286.8859 291.79 286.1511 "  class="cls-1008689814" >  </polyline>
<polyline id="37bcd787-c12d-4abf-b66a-c79da2d8bbf8" points="205.6644 237.8961 206.9372 237.1613 "  class="cls-1008689814" >  </polyline>
<polyline id="8afe3ef3-d09e-4bc3-bc9c-9daac6ef8db3" points="199.8661 209.0316 201.1389 208.2968 "  class="cls-1008689814" >  </polyline>
<polyline id="ed50c086-ca71-451e-b30f-bd22038a43f7" points="298.8611 266.1864 300.1339 265.4515 "  class="cls-1008689814" >  </polyline>
<polyline id="dfafe06e-83e4-4387-92b1-b7e93fb3639e" points="298.8611 291.7032 300.1339 290.9684 "  class="cls-1008689814" >  </polyline>
<polyline id="a50919f1-5f78-42ab-8bbd-f9e82a631f0e" points="206.9372 230.0972 206.9372 231.077 "  class="cls-1008689814" >  </polyline>
<polyline id="a753d33c-692b-4ade-93d1-8aabe3c200c7" points="291.79 279.087 291.79 280.0668 "  class="cls-1008689814" >  </polyline>
<polyline id="f7d69cd0-9ea0-4d5f-ba26-c6372e05da95" points="201.1389 208.2968 202.4117 207.5619 "  class="cls-1008689814" >  </polyline>
<polyline id="5c7d2198-4434-4a2d-bafa-53e17d8ef582" points="300.1339 265.4515 301.4067 264.7167 "  class="cls-1008689814" >  </polyline>
<polyline id="cb47f15d-dc12-433d-ae7b-313fca93bb4c" points="202.4117 207.5619 301.4067 264.7167 "  class="cls-1008689814" >  </polyline>
<polyline id="cadf0aba-09ba-485f-8eca-c7fdd639abe9" points="300.1339 290.9684 301.4067 290.2335 "  class="cls-1008689814" >  </polyline>
<polyline id="89320b1f-64fe-4b3d-8b30-b2a399a5c5d3" points="301.4067 264.7167 301.4067 290.2335 "  class="cls-1008689814" >  </polyline>
<polyline id="3cb43c48-a1c5-4f05-951e-934ac92eb490" points="206.9372 240.1007 206.9372 231.077 "  class="cls-1008689814" >  </polyline>
<polyline id="12834513-5756-4a24-ad5d-2e1427aed700" points="207.3615 231.322 207.3615 230.3422 "  class="cls-1008689814" >  </polyline>
<polyline id="8f91b9ac-fc2b-4528-9dbd-4838adef2f99" points="207.3615 230.3422 203.9673 228.3826 "  class="cls-1008689814" >  </polyline>
<polyline id="cab65fd3-d449-4f90-9b03-7acf304aa169" points="204.3916 229.6073 204.3916 238.631 "  class="cls-1008689814" >  </polyline>
<polyline id="3cab15fa-f921-46ae-940b-e2dbcd775a8c" points="198.5933 209.7665 297.5883 266.9212 "  class="cls-1008689814" >  </polyline>
<polyline id="cf5f8e00-fe1c-48f0-a551-19adc413cbab" points="297.5883 266.9212 297.5883 292.4381 "  class="cls-1008689814" >  </polyline>
<polyline id="cb157b05-c07b-4028-b297-3dd55b315529" points="291.79 289.0905 291.79 280.0668 "  class="cls-1008689814" >  </polyline>
<polyline id="778d4348-aba9-46d4-a2da-7f24af83952e" points="292.2143 280.3118 292.2143 279.332 "  class="cls-1008689814" >  </polyline>
<polyline id="8393ee3e-253e-484c-9ebb-2c0009bc8069" points="292.2143 279.332 288.8202 277.3724 "  class="cls-1008689814" >  </polyline>
<polyline id="97d28d42-6e4c-4be8-9f0f-a705bbde0e06" points="289.2444 278.5971 289.2444 287.6208 "  class="cls-1008689814" >  </polyline>
<polyline id="6dbba765-bf68-46d6-8cd2-0b6629a1875c" points="205.6644 229.3624 205.6644 237.8961 "  class="cls-1008689814" >  </polyline>
<polyline id="d22e3fc0-e656-47c1-a4ac-7062764cfe14" points="199.8661 209.0316 298.8611 266.1864 "  class="cls-1008689814" >  </polyline>
<polyline id="b6bcd171-fa13-4916-bf79-40ab6f5464af" points="298.8611 266.1864 298.8611 291.7032 "  class="cls-1008689814" >  </polyline>
<polyline id="5e8665df-1571-4871-8ac7-a1b92fc0c251" points="300.1339 265.4515 300.1339 290.9684 "  class="cls-1008689814" >  </polyline>
<polyline id="29991a90-a438-464f-83c4-13231a71e010" points="290.5172 278.3522 290.5172 286.8859 "  class="cls-1008689814" >  </polyline>
<polyline id="6f84b8a1-08f8-4475-85db-1c9321f79235" points="201.1389 208.2968 300.1339 265.4515 "  class="cls-1008689814" >  </polyline>
<defs>
<style> .cls-30449002{stroke:#000000 ; stroke-opacity:1; stroke-width:1; stroke-linecap:round; stroke-linejoin:round; fill:none; } </style>
<style> .cls-1008689814{stroke:#000000 ; stroke-opacity:1; stroke-width:0.3; stroke-linecap:round; stroke-linejoin:round; fill:none; } </style>
</defs>
</svg>