<svg id="Layer_1" data-name="Layer 1" xmlns="http://www.w3.org/2000/svg" viewBox="0 0 425.2 425.2"><defs><style>.cls-1,.cls-2{fill:none;stroke-linecap:round;stroke-linejoin:round;}.cls-1{stroke:#000;stroke-width:0.25px;}.cls-2{stroke:#1d1d1b;}</style></defs><line class="cls-1" x1="139.4" y1="153.95" x2="139.55" y2="153.76"/><line class="cls-1" x1="139.55" y1="153.76" x2="139.91" y2="153.69"/><line class="cls-1" x1="139.91" y1="153.69" x2="140.3" y2="153.83"/><line class="cls-1" x1="140.3" y1="153.83" x2="149.33" y2="159.04"/><line class="cls-1" x1="149.33" y1="159.04" x2="149.72" y2="159.35"/><line class="cls-1" x1="149.72" y1="159.35" x2="150.08" y2="159.83"/><line class="cls-1" x1="150.08" y1="159.83" x2="150.31" y2="160.39"/><line class="cls-1" x1="150.31" y1="160.39" x2="150.39" y2="160.88"/><line class="cls-1" x1="149.86" y1="172.01" x2="149.86" y2="172.63"/><line class="cls-1" x1="178.06" y1="176.41" x2="178.14" y2="176.31"/><line class="cls-1" x1="178.29" y1="176.13" x2="178.65" y2="176.06"/><line class="cls-1" x1="178.65" y1="176.06" x2="179.04" y2="176.2"/><line class="cls-1" x1="179.04" y1="176.2" x2="188.07" y2="181.41"/><line class="cls-1" x1="188.07" y1="181.41" x2="188.46" y2="181.72"/><line class="cls-1" x1="188.46" y1="181.72" x2="188.82" y2="182.2"/><line class="cls-1" x1="188.82" y1="182.2" x2="189.05" y2="182.75"/><line class="cls-1" x1="189.05" y1="182.75" x2="189.13" y2="183.25"/><line class="cls-1" x1="189.13" y1="183.25" x2="189.13" y2="205.51"/><line class="cls-1" x1="188.6" y1="205.82" x2="188.6" y2="206.43"/><line class="cls-1" x1="192.47" y1="184.59" x2="192.53" y2="184.51"/><line class="cls-1" x1="192.62" y1="184.4" x2="192.98" y2="184.33"/><line class="cls-1" x1="192.98" y1="184.33" x2="193.37" y2="184.47"/><line class="cls-1" x1="193.37" y1="184.47" x2="202.4" y2="189.68"/><line class="cls-1" x1="202.4" y1="189.68" x2="202.79" y2="190"/><line class="cls-1" x1="202.79" y1="190" x2="203.15" y2="190.48"/><line class="cls-1" x1="203.15" y1="190.48" x2="203.38" y2="191.03"/><line class="cls-1" x1="203.38" y1="191.03" x2="203.46" y2="191.52"/><line class="cls-1" x1="203.46" y1="191.52" x2="203.46" y2="202.35"/><line class="cls-1" x1="202.93" y1="202.65" x2="202.93" y2="203.27"/><line class="cls-1" x1="231.21" y1="206.95" x2="231.37" y2="206.77"/><line class="cls-1" x1="231.37" y1="206.77" x2="231.73" y2="206.7"/><line class="cls-1" x1="231.73" y1="206.7" x2="232.12" y2="206.84"/><line class="cls-1" x1="232.12" y1="206.84" x2="241.14" y2="212.05"/><line class="cls-1" x1="241.14" y1="212.05" x2="241.53" y2="212.36"/><line class="cls-1" x1="241.53" y1="212.36" x2="241.89" y2="212.84"/><line class="cls-1" x1="241.89" y1="212.84" x2="242.13" y2="213.39"/><line class="cls-1" x1="242.13" y1="213.39" x2="242.2" y2="213.89"/><line class="cls-1" x1="242.2" y1="213.89" x2="242.2" y2="236.15"/><line class="cls-1" x1="241.67" y1="236.46" x2="241.67" y2="237.07"/><line class="cls-1" x1="245.46" y1="215.32" x2="245.7" y2="215.04"/><line class="cls-1" x1="245.7" y1="215.04" x2="246.05" y2="214.98"/><line class="cls-1" x1="246.05" y1="214.98" x2="246.45" y2="215.12"/><line class="cls-1" x1="246.45" y1="215.12" x2="255.47" y2="220.32"/><line class="cls-1" x1="255.47" y1="220.32" x2="255.86" y2="220.64"/><line class="cls-1" x1="255.86" y1="220.64" x2="256.22" y2="221.12"/><line class="cls-1" x1="256.22" y1="221.12" x2="256.46" y2="221.67"/><line class="cls-1" x1="256.46" y1="221.67" x2="256.53" y2="222.16"/><line class="cls-1" x1="256.53" y1="222.16" x2="256.53" y2="232.99"/><line class="cls-1" x1="256" y1="233.29" x2="256" y2="233.91"/><line class="cls-1" x1="284.2" y1="237.69" x2="284.34" y2="237.52"/><line class="cls-1" x1="284.44" y1="237.41" x2="284.8" y2="237.34"/><line class="cls-1" x1="284.8" y1="237.34" x2="285.19" y2="237.48"/><line class="cls-1" x1="285.19" y1="237.48" x2="294.21" y2="242.69"/><line class="cls-1" x1="294.21" y1="242.69" x2="294.6" y2="243"/><line class="cls-1" x1="294.6" y1="243" x2="294.96" y2="243.48"/><line class="cls-1" x1="294.96" y1="243.48" x2="295.2" y2="244.04"/><line class="cls-1" x1="295.2" y1="244.04" x2="295.27" y2="244.53"/><line class="cls-1" x1="295.27" y1="244.53" x2="295.27" y2="266.8"/><line class="cls-1" x1="294.74" y1="267.1" x2="294.74" y2="267.72"/><line class="cls-1" x1="298.53" y1="245.96" x2="298.61" y2="245.87"/><line class="cls-1" x1="298.67" y1="245.79" x2="298.77" y2="245.68"/><line class="cls-1" x1="298.77" y1="245.68" x2="299.13" y2="245.62"/><line class="cls-1" x1="299.13" y1="245.62" x2="299.52" y2="245.76"/><line class="cls-1" x1="299.52" y1="245.76" x2="308.54" y2="250.96"/><line class="cls-1" x1="308.54" y1="250.96" x2="308.93" y2="251.28"/><line class="cls-1" x1="308.93" y1="251.28" x2="309.29" y2="251.76"/><line class="cls-1" x1="309.29" y1="251.76" x2="309.53" y2="252.31"/><line class="cls-1" x1="309.53" y1="252.31" x2="309.6" y2="252.8"/><line class="cls-1" x1="309.6" y1="252.8" x2="309.6" y2="263.63"/><line class="cls-1" x1="309.07" y1="263.94" x2="309.07" y2="264.55"/><line class="cls-1" x1="124.91" y1="146.17" x2="124.95" y2="145.94"/><line class="cls-1" x1="124.99" y1="145.77" x2="125.22" y2="145.49"/><line class="cls-1" x1="125.22" y1="145.49" x2="125.58" y2="145.42"/><line class="cls-1" x1="125.58" y1="145.42" x2="125.97" y2="145.56"/><line class="cls-1" x1="125.97" y1="145.56" x2="135" y2="150.77"/><line class="cls-1" x1="135" y1="150.77" x2="135.39" y2="151.08"/><line class="cls-1" x1="135.39" y1="151.08" x2="135.75" y2="151.56"/><line class="cls-1" x1="135.75" y1="151.56" x2="135.98" y2="152.11"/><line class="cls-1" x1="135.98" y1="152.11" x2="136.06" y2="152.61"/><line class="cls-1" x1="136.06" y1="152.61" x2="136.06" y2="174.87"/><line class="cls-1" x1="135.53" y1="175.18" x2="135.53" y2="175.79"/><line class="cls-1" x1="181.88" y1="181.92" x2="181.88" y2="184.98"/><line class="cls-1" x1="181.35" y1="185.29" x2="181.35" y2="185.9"/><line class="cls-1" x1="181.35" y1="185.9" x2="183.47" y2="187.13"/><line class="cls-1" x1="143.31" y1="159.65" x2="143.31" y2="162.72"/><line class="cls-1" x1="142.78" y1="163.02" x2="142.78" y2="163.64"/><line class="cls-1" x1="142.78" y1="163.64" x2="144.9" y2="164.87"/><line class="cls-1" x1="302" y1="254.95" x2="302" y2="255.56"/><line class="cls-1" x1="302" y1="255.56" x2="304.12" y2="256.79"/><line class="cls-1" x1="302.53" y1="251.58" x2="302.53" y2="254.64"/><line class="cls-1" x1="234.95" y1="212.56" x2="234.95" y2="215.63"/><line class="cls-1" x1="234.42" y1="215.93" x2="234.42" y2="216.55"/><line class="cls-1" x1="234.42" y1="216.55" x2="236.54" y2="217.77"/><line class="cls-1" x1="196.38" y1="190.3" x2="196.38" y2="193.36"/><line class="cls-1" x1="195.85" y1="193.67" x2="195.85" y2="194.28"/><line class="cls-1" x1="195.85" y1="194.28" x2="197.97" y2="195.51"/><line class="cls-1" x1="249.45" y1="220.94" x2="249.45" y2="224"/><line class="cls-1" x1="248.92" y1="224.31" x2="248.92" y2="224.92"/><line class="cls-1" x1="248.92" y1="224.92" x2="251.04" y2="226.15"/><line class="cls-1" x1="288.02" y1="243.2" x2="288.02" y2="246.27"/><line class="cls-1" x1="287.49" y1="246.57" x2="287.49" y2="247.19"/><line class="cls-1" x1="287.49" y1="247.19" x2="289.61" y2="248.41"/><line class="cls-1" x1="128.8" y1="151.28" x2="128.8" y2="154.34"/><line class="cls-1" x1="128.27" y1="154.65" x2="128.27" y2="155.26"/><line class="cls-1" x1="128.27" y1="155.26" x2="130.4" y2="156.49"/><line class="cls-1" x1="137.96" y1="154.68" x2="138.32" y2="154.61"/><line class="cls-1" x1="148.79" y1="161.8" x2="150.39" y2="160.88"/><line class="cls-1" x1="147.73" y1="159.96" x2="148.12" y2="160.27"/><line class="cls-1" x1="148.72" y1="161.3" x2="148.79" y2="161.8"/><line class="cls-1" x1="137.65" y1="155.36" x2="137.73" y2="154.96"/><line class="cls-1" x1="137.73" y1="154.96" x2="137.96" y2="154.68"/><line class="cls-1" x1="138.32" y1="154.61" x2="138.71" y2="154.75"/><line class="cls-1" x1="138.71" y1="154.75" x2="147.73" y2="159.96"/><line class="cls-1" x1="148.12" y1="160.27" x2="148.48" y2="160.75"/><line class="cls-1" x1="148.48" y1="160.75" x2="148.72" y2="161.3"/><line class="cls-1" x1="138.18" y1="177.94" x2="137.65" y2="177.63"/><line class="cls-1" x1="138.18" y1="179.16" x2="138.18" y2="177.94"/><line class="cls-1" x1="133.94" y1="176.71" x2="138.18" y2="179.16"/><line class="cls-1" x1="133.94" y1="175.49" x2="133.94" y2="176.71"/><line class="cls-1" x1="134.47" y1="175.79" x2="133.94" y2="175.49"/><line class="cls-1" x1="123.32" y1="147.09" x2="123.39" y2="146.68"/><line class="cls-1" x1="124.38" y1="146.48" x2="133.41" y2="151.69"/><line class="cls-1" x1="123.39" y1="146.68" x2="123.63" y2="146.41"/><line class="cls-1" x1="123.99" y1="146.34" x2="124.38" y2="146.48"/><line class="cls-1" x1="123.63" y1="146.41" x2="123.99" y2="146.34"/><line class="cls-1" x1="133.41" y1="151.69" x2="133.8" y2="152"/><line class="cls-1" x1="133.8" y1="152" x2="134.16" y2="152.48"/><line class="cls-1" x1="134.16" y1="152.48" x2="134.39" y2="153.03"/><line class="cls-1" x1="134.47" y1="153.53" x2="134.47" y2="175.79"/><line class="cls-1" x1="134.39" y1="153.03" x2="134.47" y2="153.53"/><line class="cls-1" x1="123.85" y1="158.22" x2="123.32" y2="157.92"/><line class="cls-1" x1="123.85" y1="159.45" x2="123.85" y2="158.22"/><line class="cls-1" x1="111.12" y1="150.26" x2="109.52" y2="151.18"/><line class="cls-1" x1="109.52" y1="151.18" x2="123.85" y2="159.45"/><line class="cls-1" x1="109.52" y1="189.99" x2="109.52" y2="151.18"/><line class="cls-1" x1="323.4" y1="311.63" x2="321.81" y2="312.55"/><line class="cls-1" x1="321.81" y1="312.55" x2="109.52" y2="189.99"/><line class="cls-1" x1="323.4" y1="272.82" x2="321.81" y2="273.74"/><line class="cls-1" x1="321.81" y1="273.74" x2="321.81" y2="312.55"/><line class="cls-1" x1="307.48" y1="265.47" x2="321.81" y2="273.74"/><line class="cls-1" x1="307.48" y1="264.24" x2="307.48" y2="265.47"/><line class="cls-1" x1="308.01" y1="264.55" x2="307.48" y2="264.24"/><line class="cls-1" x1="296.86" y1="247.29" x2="296.94" y2="246.88"/><line class="cls-1" x1="297.92" y1="246.67" x2="306.95" y2="251.88"/><line class="cls-1" x1="307.93" y1="253.23" x2="308.01" y2="253.72"/><line class="cls-1" x1="308.01" y1="253.72" x2="308.01" y2="264.55"/><line class="cls-1" x1="296.94" y1="246.88" x2="297.17" y2="246.6"/><line class="cls-1" x1="297.53" y1="246.54" x2="297.92" y2="246.67"/><line class="cls-1" x1="297.17" y1="246.6" x2="297.53" y2="246.54"/><line class="cls-1" x1="306.95" y1="251.88" x2="307.34" y2="252.19"/><line class="cls-1" x1="307.7" y1="252.68" x2="307.93" y2="253.23"/><line class="cls-1" x1="307.34" y1="252.19" x2="307.7" y2="252.68"/><line class="cls-1" x1="297.39" y1="269.86" x2="296.86" y2="269.55"/><line class="cls-1" x1="297.39" y1="271.09" x2="297.39" y2="269.86"/><line class="cls-1" x1="293.15" y1="268.63" x2="297.39" y2="271.09"/><line class="cls-1" x1="293.15" y1="267.41" x2="293.15" y2="268.63"/><line class="cls-1" x1="293.68" y1="267.72" x2="293.15" y2="267.41"/><line class="cls-1" x1="282.54" y1="239.02" x2="282.61" y2="238.61"/><line class="cls-1" x1="283.6" y1="238.4" x2="292.62" y2="243.61"/><line class="cls-1" x1="282.61" y1="238.61" x2="282.85" y2="238.33"/><line class="cls-1" x1="283.21" y1="238.26" x2="283.6" y2="238.4"/><line class="cls-1" x1="282.85" y1="238.33" x2="283.21" y2="238.26"/><line class="cls-1" x1="292.62" y1="243.61" x2="293.01" y2="243.92"/><line class="cls-1" x1="293.01" y1="243.92" x2="293.37" y2="244.4"/><line class="cls-1" x1="293.37" y1="244.4" x2="293.6" y2="244.96"/><line class="cls-1" x1="293.68" y1="245.45" x2="293.68" y2="267.72"/><line class="cls-1" x1="293.6" y1="244.96" x2="293.68" y2="245.45"/><line class="cls-1" x1="283.07" y1="250.15" x2="282.54" y2="249.84"/><line class="cls-1" x1="283.07" y1="251.37" x2="283.07" y2="250.15"/><line class="cls-1" x1="254.41" y1="234.83" x2="283.07" y2="251.37"/><line class="cls-1" x1="255.45" y1="233" x2="255.22" y2="233.13"/><line class="cls-1" x1="254.41" y1="233.6" x2="254.41" y2="234.83"/><line class="cls-1" x1="254.94" y1="233.91" x2="254.41" y2="233.6"/><line class="cls-1" x1="243.79" y1="216.65" x2="243.87" y2="216.24"/><line class="cls-1" x1="244.85" y1="216.03" x2="253.88" y2="221.24"/><line class="cls-1" x1="254.94" y1="223.08" x2="254.94" y2="233.91"/><line class="cls-1" x1="243.87" y1="216.24" x2="244.1" y2="215.96"/><line class="cls-1" x1="244.46" y1="215.9" x2="244.85" y2="216.03"/><line class="cls-1" x1="244.1" y1="215.96" x2="244.46" y2="215.9"/><line class="cls-1" x1="253.88" y1="221.24" x2="254.27" y2="221.55"/><line class="cls-1" x1="254.27" y1="221.55" x2="254.63" y2="222.04"/><line class="cls-1" x1="254.63" y1="222.04" x2="254.86" y2="222.59"/><line class="cls-1" x1="254.86" y1="222.59" x2="254.94" y2="223.08"/><line class="cls-1" x1="244.32" y1="239.22" x2="243.79" y2="238.91"/><line class="cls-1" x1="244.32" y1="240.45" x2="244.32" y2="239.22"/><line class="cls-1" x1="240.08" y1="237.99" x2="244.32" y2="240.45"/><line class="cls-1" x1="240.08" y1="236.77" x2="240.08" y2="237.99"/><line class="cls-1" x1="240.61" y1="237.07" x2="240.08" y2="236.77"/><line class="cls-1" x1="229.46" y1="208.37" x2="229.54" y2="207.96"/><line class="cls-1" x1="230.53" y1="207.76" x2="239.55" y2="212.97"/><line class="cls-1" x1="229.54" y1="207.96" x2="229.78" y2="207.69"/><line class="cls-1" x1="230.14" y1="207.62" x2="230.53" y2="207.76"/><line class="cls-1" x1="229.78" y1="207.69" x2="230.14" y2="207.62"/><line class="cls-1" x1="239.55" y1="212.97" x2="239.94" y2="213.28"/><line class="cls-1" x1="239.94" y1="213.28" x2="240.3" y2="213.76"/><line class="cls-1" x1="240.3" y1="213.76" x2="240.53" y2="214.32"/><line class="cls-1" x1="240.61" y1="214.81" x2="240.61" y2="237.07"/><line class="cls-1" x1="240.53" y1="214.32" x2="240.61" y2="214.81"/><line class="cls-1" x1="230" y1="219.51" x2="229.46" y2="219.2"/><line class="cls-1" x1="230" y1="220.73" x2="230" y2="219.51"/><line class="cls-1" x1="201.33" y1="204.19" x2="230" y2="220.73"/><line class="cls-1" x1="201.33" y1="202.96" x2="201.33" y2="204.19"/><line class="cls-1" x1="201.87" y1="203.27" x2="201.33" y2="202.96"/><line class="cls-1" x1="190.72" y1="186" x2="190.8" y2="185.6"/><line class="cls-1" x1="191.78" y1="185.39" x2="200.8" y2="190.6"/><line class="cls-1" x1="201.87" y1="192.44" x2="201.87" y2="203.27"/><line class="cls-1" x1="190.8" y1="185.6" x2="191.03" y2="185.32"/><line class="cls-1" x1="191.39" y1="185.25" x2="191.78" y2="185.39"/><line class="cls-1" x1="191.03" y1="185.32" x2="191.39" y2="185.25"/><line class="cls-1" x1="200.8" y1="190.6" x2="201.19" y2="190.91"/><line class="cls-1" x1="201.19" y1="190.91" x2="201.55" y2="191.4"/><line class="cls-1" x1="201.55" y1="191.4" x2="201.79" y2="191.95"/><line class="cls-1" x1="201.79" y1="191.95" x2="201.87" y2="192.44"/><line class="cls-1" x1="191.25" y1="208.58" x2="190.72" y2="208.27"/><line class="cls-1" x1="191.25" y1="209.8" x2="191.25" y2="208.58"/><line class="cls-1" x1="187.01" y1="207.35" x2="191.25" y2="209.8"/><line class="cls-1" x1="187.01" y1="206.13" x2="187.01" y2="207.35"/><line class="cls-1" x1="187.54" y1="206.43" x2="187.01" y2="206.13"/><line class="cls-1" x1="176.39" y1="177.73" x2="176.47" y2="177.32"/><line class="cls-1" x1="177.45" y1="177.12" x2="186.48" y2="182.33"/><line class="cls-1" x1="176.47" y1="177.32" x2="176.7" y2="177.05"/><line class="cls-1" x1="177.06" y1="176.98" x2="177.45" y2="177.12"/><line class="cls-1" x1="176.7" y1="177.05" x2="177.06" y2="176.98"/><line class="cls-1" x1="186.48" y1="182.33" x2="186.87" y2="182.64"/><line class="cls-1" x1="186.87" y1="182.64" x2="187.23" y2="183.12"/><line class="cls-1" x1="187.23" y1="183.12" x2="187.46" y2="183.67"/><line class="cls-1" x1="187.54" y1="184.17" x2="187.54" y2="206.43"/><line class="cls-1" x1="187.46" y1="183.67" x2="187.54" y2="184.17"/><line class="cls-1" x1="176.92" y1="188.87" x2="176.39" y2="188.56"/><line class="cls-1" x1="176.92" y1="190.09" x2="176.92" y2="188.87"/><line class="cls-1" x1="148.26" y1="173.55" x2="176.92" y2="190.09"/><line class="cls-1" x1="148.26" y1="172.32" x2="148.26" y2="173.55"/><line class="cls-1" x1="148.79" y1="172.63" x2="148.26" y2="172.32"/><line class="cls-1" x1="130.4" y1="153.42" x2="130.93" y2="153.12"/><line class="cls-1" x1="130.93" y1="157.41" x2="130.4" y2="157.1"/><line class="cls-1" x1="130.93" y1="158.63" x2="130.93" y2="157.41"/><line class="cls-1" x1="128.27" y1="155.26" x2="126.68" y2="156.18"/><line class="cls-1" x1="126.68" y1="156.18" x2="130.93" y2="158.63"/><line class="cls-1" x1="126.68" y1="154.96" x2="126.68" y2="156.18"/><line class="cls-1" x1="127.21" y1="155.26" x2="126.68" y2="154.96"/><line class="cls-1" x1="128.27" y1="150.97" x2="127.21" y2="151.59"/><line class="cls-1" x1="127.21" y1="151.59" x2="127.21" y2="155.26"/><line class="cls-1" x1="127.74" y1="150.67" x2="126.68" y2="151.28"/><line class="cls-1" x1="126.68" y1="151.28" x2="127.21" y2="151.59"/><line class="cls-1" x1="126.68" y1="150.05" x2="126.68" y2="151.28"/><line class="cls-1" x1="130.4" y1="153.42" x2="130.93" y2="153.73"/><line class="cls-1" x1="289.61" y1="245.35" x2="290.14" y2="245.04"/><line class="cls-1" x1="290.14" y1="249.33" x2="289.61" y2="249.02"/><line class="cls-1" x1="290.14" y1="250.56" x2="290.14" y2="249.33"/><line class="cls-1" x1="287.49" y1="247.19" x2="285.9" y2="248.1"/><line class="cls-1" x1="285.9" y1="248.1" x2="290.14" y2="250.56"/><line class="cls-1" x1="285.9" y1="246.88" x2="285.9" y2="248.1"/><line class="cls-1" x1="286.43" y1="247.19" x2="285.9" y2="246.88"/><line class="cls-1" x1="287.49" y1="242.9" x2="286.43" y2="243.51"/><line class="cls-1" x1="286.43" y1="243.51" x2="286.43" y2="247.19"/><line class="cls-1" x1="286.96" y1="242.59" x2="285.9" y2="243.2"/><line class="cls-1" x1="285.9" y1="243.2" x2="286.43" y2="243.51"/><line class="cls-1" x1="285.9" y1="241.98" x2="285.9" y2="243.2"/><line class="cls-1" x1="289.61" y1="245.35" x2="290.14" y2="245.65"/><line class="cls-1" x1="247.33" y1="225.84" x2="248.92" y2="224.92"/><line class="cls-1" x1="247.33" y1="224.61" x2="247.33" y2="225.84"/><line class="cls-1" x1="247.86" y1="224.92" x2="247.33" y2="224.61"/><line class="cls-1" x1="248.92" y1="220.63" x2="247.86" y2="221.24"/><line class="cls-1" x1="247.86" y1="221.24" x2="247.86" y2="224.92"/><line class="cls-1" x1="248.39" y1="220.32" x2="247.33" y2="220.94"/><line class="cls-1" x1="247.33" y1="220.94" x2="247.86" y2="221.24"/><line class="cls-1" x1="247.33" y1="219.71" x2="247.33" y2="220.94"/><line class="cls-1" x1="251.58" y1="222.78" x2="251.04" y2="223.08"/><line class="cls-1" x1="251.04" y1="223.08" x2="251.58" y2="223.39"/><line class="cls-1" x1="251.58" y1="227.06" x2="251.04" y2="226.76"/><line class="cls-1" x1="251.58" y1="228.29" x2="251.58" y2="227.06"/><line class="cls-1" x1="247.33" y1="225.84" x2="251.58" y2="228.29"/><line class="cls-1" x1="198.5" y1="192.13" x2="197.97" y2="192.44"/><line class="cls-1" x1="197.97" y1="192.44" x2="198.5" y2="192.75"/><line class="cls-1" x1="198.5" y1="196.42" x2="197.97" y2="196.12"/><line class="cls-1" x1="198.5" y1="197.65" x2="198.5" y2="196.42"/><line class="cls-1" x1="195.85" y1="194.28" x2="194.26" y2="195.2"/><line class="cls-1" x1="194.26" y1="195.2" x2="198.5" y2="197.65"/><line class="cls-1" x1="194.26" y1="193.97" x2="194.26" y2="195.2"/><line class="cls-1" x1="194.79" y1="194.28" x2="194.26" y2="193.97"/><line class="cls-1" x1="195.85" y1="189.99" x2="194.79" y2="190.6"/><line class="cls-1" x1="194.79" y1="190.6" x2="194.79" y2="194.28"/><line class="cls-1" x1="195.32" y1="189.68" x2="194.26" y2="190.3"/><line class="cls-1" x1="194.26" y1="190.3" x2="194.79" y2="190.6"/><line class="cls-1" x1="194.26" y1="189.07" x2="194.26" y2="190.3"/><line class="cls-1" x1="232.83" y1="212.56" x2="233.89" y2="211.95"/><line class="cls-1" x1="232.83" y1="211.33" x2="232.83" y2="212.56"/><line class="cls-1" x1="237.07" y1="214.4" x2="236.54" y2="214.71"/><line class="cls-1" x1="236.54" y1="214.71" x2="237.07" y2="215.01"/><line class="cls-1" x1="237.07" y1="218.69" x2="236.54" y2="218.38"/><line class="cls-1" x1="237.07" y1="219.92" x2="237.07" y2="218.69"/><line class="cls-1" x1="234.42" y1="216.55" x2="232.83" y2="217.46"/><line class="cls-1" x1="232.83" y1="217.46" x2="237.07" y2="219.92"/><line class="cls-1" x1="232.83" y1="216.24" x2="232.83" y2="217.46"/><line class="cls-1" x1="233.36" y1="216.55" x2="232.83" y2="216.24"/><line class="cls-1" x1="234.42" y1="212.25" x2="233.36" y2="212.87"/><line class="cls-1" x1="233.36" y1="212.87" x2="233.36" y2="216.55"/><line class="cls-1" x1="232.83" y1="212.56" x2="233.36" y2="212.87"/><line class="cls-1" x1="300.93" y1="251.88" x2="302" y2="251.27"/><line class="cls-1" x1="301.46" y1="250.96" x2="300.4" y2="251.58"/><line class="cls-1" x1="300.4" y1="251.58" x2="300.93" y2="251.88"/><line class="cls-1" x1="300.4" y1="250.35" x2="300.4" y2="251.58"/><line class="cls-1" x1="304.65" y1="253.42" x2="304.12" y2="253.72"/><line class="cls-1" x1="304.12" y1="253.72" x2="304.65" y2="254.03"/><line class="cls-1" x1="304.65" y1="257.7" x2="304.12" y2="257.4"/><line class="cls-1" x1="304.65" y1="258.93" x2="304.65" y2="257.7"/><line class="cls-1" x1="302" y1="255.56" x2="300.4" y2="256.48"/><line class="cls-1" x1="300.4" y1="256.48" x2="304.65" y2="258.93"/><line class="cls-1" x1="300.4" y1="255.25" x2="300.4" y2="256.48"/><line class="cls-1" x1="300.93" y1="255.56" x2="300.4" y2="255.25"/><line class="cls-1" x1="300.93" y1="251.88" x2="300.93" y2="255.56"/><line class="cls-1" x1="145.43" y1="161.49" x2="144.9" y2="161.8"/><line class="cls-1" x1="144.9" y1="161.8" x2="145.43" y2="162.11"/><line class="cls-1" x1="145.43" y1="165.78" x2="144.9" y2="165.48"/><line class="cls-1" x1="145.43" y1="167.01" x2="145.43" y2="165.78"/><line class="cls-1" x1="142.78" y1="163.64" x2="141.19" y2="164.56"/><line class="cls-1" x1="141.19" y1="164.56" x2="145.43" y2="167.01"/><line class="cls-1" x1="141.19" y1="163.33" x2="141.19" y2="164.56"/><line class="cls-1" x1="141.72" y1="163.64" x2="141.19" y2="163.33"/><line class="cls-1" x1="142.78" y1="159.35" x2="141.72" y2="159.96"/><line class="cls-1" x1="141.72" y1="159.96" x2="141.72" y2="163.64"/><line class="cls-1" x1="142.25" y1="159.04" x2="141.19" y2="159.65"/><line class="cls-1" x1="141.19" y1="159.65" x2="141.72" y2="159.96"/><line class="cls-1" x1="141.19" y1="158.43" x2="141.19" y2="159.65"/><line class="cls-1" x1="179.75" y1="181.92" x2="180.82" y2="181.31"/><line class="cls-1" x1="179.75" y1="180.69" x2="179.75" y2="181.92"/><line class="cls-1" x1="184" y1="183.76" x2="183.47" y2="184.06"/><line class="cls-1" x1="183.47" y1="184.06" x2="184" y2="184.37"/><line class="cls-1" x1="184" y1="188.05" x2="183.47" y2="187.74"/><line class="cls-1" x1="184" y1="189.28" x2="184" y2="188.05"/><line class="cls-1" x1="181.35" y1="185.9" x2="179.75" y2="186.82"/><line class="cls-1" x1="179.75" y1="186.82" x2="184" y2="189.28"/><line class="cls-1" x1="179.75" y1="185.6" x2="179.75" y2="186.82"/><line class="cls-1" x1="180.29" y1="185.9" x2="179.75" y2="185.6"/><line class="cls-1" x1="181.35" y1="181.61" x2="180.29" y2="182.23"/><line class="cls-1" x1="180.29" y1="182.23" x2="180.29" y2="185.9"/><line class="cls-1" x1="179.75" y1="181.92" x2="180.29" y2="182.23"/><line class="cls-1" x1="137.65" y1="177.63" x2="137.65" y2="177.02"/><line class="cls-1" x1="137.65" y1="177.02" x2="137.65" y2="155.36"/><line class="cls-1" x1="123.32" y1="157.92" x2="123.32" y2="157.31"/><line class="cls-1" x1="123.32" y1="157.31" x2="123.32" y2="147.09"/><line class="cls-1" x1="296.86" y1="269.55" x2="296.86" y2="268.94"/><line class="cls-1" x1="296.86" y1="268.94" x2="296.86" y2="247.29"/><line class="cls-1" x1="282.54" y1="249.84" x2="282.54" y2="249.23"/><line class="cls-1" x1="282.54" y1="249.23" x2="282.54" y2="239.02"/><line class="cls-1" x1="243.79" y1="238.91" x2="243.79" y2="238.3"/><line class="cls-1" x1="243.79" y1="238.3" x2="243.79" y2="216.65"/><line class="cls-1" x1="229.46" y1="219.2" x2="229.46" y2="218.59"/><line class="cls-1" x1="229.46" y1="218.59" x2="229.46" y2="208.37"/><line class="cls-1" x1="190.72" y1="208.27" x2="190.72" y2="207.66"/><line class="cls-1" x1="190.72" y1="207.66" x2="190.72" y2="186"/><line class="cls-1" x1="176.39" y1="188.56" x2="176.39" y2="187.95"/><line class="cls-1" x1="176.39" y1="187.95" x2="176.39" y2="177.73"/><line class="cls-1" x1="130.4" y1="157.1" x2="130.4" y2="156.49"/><line class="cls-1" x1="130.4" y1="156.49" x2="130.4" y2="153.42"/><line class="cls-1" x1="128.8" y1="154.34" x2="128.27" y2="154.65"/><line class="cls-1" x1="128.27" y1="154.65" x2="127.21" y2="155.26"/><line class="cls-1" x1="130.93" y1="152.51" x2="128.8" y2="151.28"/><line class="cls-1" x1="130.93" y1="153.73" x2="130.93" y2="153.12"/><line class="cls-1" x1="130.93" y1="153.12" x2="130.93" y2="152.51"/><line class="cls-1" x1="289.61" y1="249.02" x2="289.61" y2="248.41"/><line class="cls-1" x1="289.61" y1="248.41" x2="289.61" y2="245.35"/><line class="cls-1" x1="288.02" y1="246.27" x2="287.49" y2="246.57"/><line class="cls-1" x1="287.49" y1="246.57" x2="286.43" y2="247.19"/><line class="cls-1" x1="290.14" y1="244.43" x2="288.02" y2="243.2"/><line class="cls-1" x1="290.14" y1="245.65" x2="290.14" y2="245.04"/><line class="cls-1" x1="290.14" y1="245.04" x2="290.14" y2="244.43"/><line class="cls-1" x1="249.45" y1="224" x2="248.92" y2="224.31"/><line class="cls-1" x1="248.92" y1="224.31" x2="247.86" y2="224.92"/><line class="cls-1" x1="251.58" y1="222.16" x2="249.45" y2="220.94"/><line class="cls-1" x1="251.58" y1="223.39" x2="251.58" y2="222.78"/><line class="cls-1" x1="251.58" y1="222.78" x2="251.58" y2="222.16"/><line class="cls-1" x1="251.04" y1="226.76" x2="251.04" y2="226.15"/><line class="cls-1" x1="251.04" y1="226.15" x2="251.04" y2="223.08"/><line class="cls-1" x1="198.5" y1="191.52" x2="196.38" y2="190.3"/><line class="cls-1" x1="198.5" y1="192.75" x2="198.5" y2="192.13"/><line class="cls-1" x1="198.5" y1="192.13" x2="198.5" y2="191.52"/><line class="cls-1" x1="197.97" y1="196.12" x2="197.97" y2="195.51"/><line class="cls-1" x1="197.97" y1="195.51" x2="197.97" y2="192.44"/><line class="cls-1" x1="196.38" y1="193.36" x2="195.85" y2="193.67"/><line class="cls-1" x1="195.85" y1="193.67" x2="194.79" y2="194.28"/><line class="cls-1" x1="237.07" y1="213.79" x2="234.95" y2="212.56"/><line class="cls-1" x1="237.07" y1="215.01" x2="237.07" y2="214.4"/><line class="cls-1" x1="237.07" y1="214.4" x2="237.07" y2="213.79"/><line class="cls-1" x1="236.54" y1="218.38" x2="236.54" y2="217.77"/><line class="cls-1" x1="236.54" y1="217.77" x2="236.54" y2="214.71"/><line class="cls-1" x1="234.95" y1="215.63" x2="234.42" y2="215.93"/><line class="cls-1" x1="234.42" y1="215.93" x2="233.36" y2="216.55"/><line class="cls-1" x1="304.65" y1="254.03" x2="304.65" y2="253.42"/><line class="cls-1" x1="304.65" y1="253.42" x2="304.65" y2="252.8"/><line class="cls-1" x1="304.12" y1="257.4" x2="304.12" y2="256.79"/><line class="cls-1" x1="304.12" y1="256.79" x2="304.12" y2="253.72"/><line class="cls-1" x1="302.53" y1="254.64" x2="302" y2="254.95"/><line class="cls-1" x1="302" y1="254.95" x2="300.93" y2="255.56"/><line class="cls-1" x1="145.43" y1="160.88" x2="143.31" y2="159.65"/><line class="cls-1" x1="145.43" y1="162.11" x2="145.43" y2="161.49"/><line class="cls-1" x1="145.43" y1="161.49" x2="145.43" y2="160.88"/><line class="cls-1" x1="144.9" y1="165.48" x2="144.9" y2="164.87"/><line class="cls-1" x1="144.9" y1="164.87" x2="144.9" y2="161.8"/><line class="cls-1" x1="143.31" y1="162.72" x2="142.78" y2="163.02"/><line class="cls-1" x1="142.78" y1="163.02" x2="141.72" y2="163.64"/><line class="cls-1" x1="184" y1="183.15" x2="181.88" y2="181.92"/><line class="cls-1" x1="184" y1="184.37" x2="184" y2="183.76"/><line class="cls-1" x1="184" y1="183.76" x2="184" y2="183.15"/><line class="cls-1" x1="183.47" y1="187.74" x2="183.47" y2="187.13"/><line class="cls-1" x1="183.47" y1="187.13" x2="183.47" y2="184.06"/><line class="cls-1" x1="181.88" y1="184.98" x2="181.35" y2="185.29"/><line class="cls-1" x1="181.35" y1="185.29" x2="180.29" y2="185.9"/><line class="cls-1" x1="128.8" y1="151.28" x2="128.27" y2="150.97"/><line class="cls-1" x1="288.02" y1="243.2" x2="287.49" y2="242.9"/><line class="cls-1" x1="249.45" y1="220.94" x2="248.92" y2="220.63"/><line class="cls-1" x1="196.38" y1="190.3" x2="195.85" y2="189.99"/><line class="cls-1" x1="234.95" y1="212.56" x2="234.42" y2="212.25"/><line class="cls-1" x1="304.65" y1="252.8" x2="302.53" y2="251.58"/><line class="cls-1" x1="302.53" y1="251.58" x2="302" y2="251.27"/><line class="cls-1" x1="302" y1="251.27" x2="301.46" y2="250.96"/><line class="cls-1" x1="301.46" y1="250.96" x2="300.4" y2="250.35"/><line class="cls-1" x1="143.31" y1="159.65" x2="142.78" y2="159.35"/><line class="cls-1" x1="181.88" y1="181.92" x2="181.35" y2="181.61"/><line class="cls-1" x1="128.27" y1="150.97" x2="127.74" y2="150.67"/><line class="cls-1" x1="127.74" y1="150.67" x2="126.68" y2="150.05"/><line class="cls-1" x1="287.49" y1="242.9" x2="286.96" y2="242.59"/><line class="cls-1" x1="286.96" y1="242.59" x2="285.9" y2="241.98"/><line class="cls-1" x1="248.92" y1="220.63" x2="248.39" y2="220.32"/><line class="cls-1" x1="248.39" y1="220.32" x2="247.33" y2="219.71"/><line class="cls-1" x1="195.85" y1="189.99" x2="195.32" y2="189.68"/><line class="cls-1" x1="195.32" y1="189.68" x2="194.26" y2="189.07"/><line class="cls-1" x1="234.42" y1="212.25" x2="233.89" y2="211.95"/><line class="cls-1" x1="233.89" y1="211.95" x2="232.83" y2="211.33"/><line class="cls-1" x1="142.78" y1="159.35" x2="142.25" y2="159.04"/><line class="cls-1" x1="142.25" y1="159.04" x2="141.19" y2="158.43"/><line class="cls-1" x1="181.35" y1="181.61" x2="180.82" y2="181.31"/><line class="cls-1" x1="180.82" y1="181.31" x2="179.75" y2="180.69"/><line class="cls-1" x1="150.39" y1="160.88" x2="150.39" y2="171.71"/><line class="cls-1" x1="149.86" y1="172.63" x2="176.39" y2="187.95"/><line class="cls-1" x1="188.6" y1="206.43" x2="190.72" y2="207.66"/><line class="cls-1" x1="202.93" y1="203.27" x2="229.46" y2="218.59"/><line class="cls-1" x1="241.67" y1="237.07" x2="243.79" y2="238.3"/><line class="cls-1" x1="256" y1="233.91" x2="282.54" y2="249.23"/><line class="cls-1" x1="294.74" y1="267.72" x2="296.86" y2="268.94"/><line class="cls-1" x1="309.07" y1="264.55" x2="323.4" y2="272.82"/><line class="cls-1" x1="323.4" y1="272.82" x2="323.4" y2="311.63"/><line class="cls-1" x1="111.12" y1="150.26" x2="123.32" y2="157.31"/><line class="cls-1" x1="135.53" y1="175.79" x2="137.65" y2="177.02"/><line class="cls-1" x1="137.96" y1="154.68" x2="139.55" y2="153.76"/><line class="cls-1" x1="133.94" y1="176.71" x2="135.53" y2="175.79"/><line class="cls-1" x1="136.06" y1="174.87" x2="135.53" y2="175.18"/><line class="cls-1" x1="123.63" y1="146.41" x2="125.22" y2="145.49"/><line class="cls-1" x1="134.47" y1="175.79" x2="135.53" y2="175.18"/><line class="cls-1" x1="307.48" y1="265.47" x2="309.07" y2="264.55"/><line class="cls-1" x1="309.6" y1="263.63" x2="309.07" y2="263.94"/><line class="cls-1" x1="297.17" y1="246.6" x2="298.77" y2="245.68"/><line class="cls-1" x1="308.01" y1="264.55" x2="309.07" y2="263.94"/><line class="cls-1" x1="293.15" y1="268.63" x2="294.74" y2="267.72"/><line class="cls-1" x1="295.27" y1="266.8" x2="294.74" y2="267.1"/><line class="cls-1" x1="282.85" y1="238.33" x2="284.44" y2="237.41"/><line class="cls-1" x1="293.68" y1="267.72" x2="294.74" y2="267.1"/><line class="cls-1" x1="254.41" y1="234.83" x2="256" y2="233.91"/><line class="cls-1" x1="256.53" y1="232.99" x2="256" y2="233.29"/><line class="cls-1" x1="244.1" y1="215.96" x2="245.7" y2="215.04"/><line class="cls-1" x1="254.94" y1="233.91" x2="256" y2="233.29"/><line class="cls-1" x1="240.08" y1="237.99" x2="241.67" y2="237.07"/><line class="cls-1" x1="242.2" y1="236.15" x2="241.67" y2="236.46"/><line class="cls-1" x1="229.78" y1="207.69" x2="231.37" y2="206.77"/><line class="cls-1" x1="240.61" y1="237.07" x2="241.67" y2="236.46"/><line class="cls-1" x1="201.33" y1="204.19" x2="202.93" y2="203.27"/><line class="cls-1" x1="203.46" y1="202.35" x2="202.93" y2="202.65"/><line class="cls-1" x1="191.03" y1="185.32" x2="192.62" y2="184.4"/><line class="cls-1" x1="201.87" y1="203.27" x2="202.93" y2="202.65"/><line class="cls-1" x1="187.01" y1="207.35" x2="188.6" y2="206.43"/><line class="cls-1" x1="189.13" y1="205.51" x2="188.6" y2="205.82"/><line class="cls-1" x1="176.7" y1="177.05" x2="178.29" y2="176.13"/><line class="cls-1" x1="187.54" y1="206.43" x2="188.6" y2="205.82"/><line class="cls-1" x1="148.26" y1="173.55" x2="149.86" y2="172.63"/><line class="cls-1" x1="150.39" y1="171.71" x2="149.86" y2="172.01"/><line class="cls-1" x1="148.79" y1="172.63" x2="149.86" y2="172.01"/><line class="cls-1" x1="148.79" y1="161.8" x2="148.79" y2="172.63"/><polygon class="cls-2" points="109.59 190.49 109.59 151.67 111.19 150.75 123.39 157.8 123.39 147.59 123.47 147.18 123.7 146.9 125.3 145.98 125.66 145.92 126.05 146.06 135.07 151.26 135.46 151.58 135.82 152.06 136.06 152.61 136.13 153.1 136.13 175.37 135.6 175.67 135.6 176.29 137.72 177.51 137.72 155.86 137.8 155.45 138.03 155.17 139.63 154.25 139.99 154.19 140.38 154.33 149.4 159.54 149.79 159.85 150.15 160.33 150.38 160.88 150.46 161.38 150.46 172.2 149.93 172.51 149.93 173.12 176.47 188.44 176.47 178.23 176.54 177.82 176.78 177.54 178.37 176.62 178.73 176.56 179.12 176.7 188.14 181.9 188.53 182.22 188.89 182.7 189.13 183.25 189.2 183.74 189.2 206.01 188.67 206.31 188.67 206.93 190.79 208.16 190.79 186.5 190.87 186.09 191.1 185.81 192.7 184.9 193.06 184.83 193.45 184.97 202.47 190.18 202.86 190.49 203.22 190.97 203.46 191.52 203.53 192.01 203.53 202.84 203 203.15 203 203.76 229.53 219.08 229.53 208.87 229.61 208.46 229.85 208.18 231.44 207.26 231.8 207.2 232.19 207.34 241.21 212.54 241.6 212.86 241.96 213.34 242.2 213.89 242.27 214.38 242.27 236.65 241.74 236.96 241.74 237.57 243.86 238.79 243.86 217.14 243.94 216.73 244.18 216.46 245.77 215.53 246.13 215.47 246.52 215.61 255.54 220.82 255.93 221.13 256.29 221.61 256.53 222.16 256.6 222.66 256.6 233.49 256.07 233.79 256.07 234.4 282.61 249.72 282.61 239.51 282.68 239.1 282.92 238.82 284.51 237.9 284.87 237.84 285.26 237.98 294.28 243.19 294.67 243.5 295.03 243.98 295.27 244.53 295.34 245.03 295.34 267.29 294.81 267.6 294.81 268.21 296.94 269.44 296.94 247.78 297.01 247.37 297.25 247.1 298.84 246.18 299.2 246.11 299.59 246.25 308.61 251.46 309 251.77 309.36 252.25 309.6 252.8 309.67 253.3 309.67 264.13 309.14 264.43 309.14 265.04 323.47 273.32 323.47 312.13 321.88 313.05 109.59 190.49"/></svg>