<svg id="Layer_1" data-name="Layer 1" xmlns="http://www.w3.org/2000/svg" viewBox="0 0 212.6 425.2"><defs><style>.cls-1{font-size:5.3px;fill:#1d1d1b;font-family:Monotxt;}.cls-2,.cls-3{fill:none;stroke:#1d1d1b;stroke-miterlimit:10;}.cls-2{stroke-width:0.25px;}.cls-3{stroke-width:0.5px;}</style></defs><g id="MTEXT"><text class="cls-1" transform="translate(129.35 177.54) rotate(90)">COMB-A/MID-1</text></g><g id="MTEXT-2" data-name="MTEXT"><text class="cls-1" transform="translate(81.14 250.42) rotate(-90)">COMB-A/MID-1</text></g><g id="POLYLINE"><rect class="cls-2" x="14.56" y="30.46" width="183.49" height="366.97"/></g><g id="POLYLINE-2" data-name="POLYLINE"><polygon class="cls-3" points="26.93 359.51 32.27 359.51 32.27 358.61 34.15 358.61 34.15 365.91 32.27 365.91 32.27 365 26.93 365 26.93 365.91 25.05 365.91 25.05 358.61 26.93 358.61 26.93 359.51"/></g><g id="POLYLINE-3" data-name="POLYLINE"><polygon class="cls-3" points="25.05 251 25.05 243.71 26.93 243.71 26.93 244.61 32.27 244.61 32.27 243.71 34.15 243.71 34.15 251 32.27 251 32.27 250.1 26.93 250.1 26.93 251 25.05 251"/></g><g id="POLYLINE-4" data-name="POLYLINE"><polygon class="cls-3" points="26.93 185.43 25.05 185.43 25.05 178.13 26.93 178.13 26.93 179.04 32.27 179.04 32.27 178.13 34.15 178.13 34.15 185.43 32.27 185.43 32.27 184.53 26.93 184.53 26.93 185.43"/></g><g id="POLYLINE-5" data-name="POLYLINE"><polygon class="cls-3" points="34.15 160.76 32.27 160.76 32.27 159.86 26.93 159.86 26.93 160.76 25.05 160.76 25.05 153.47 26.93 153.47 26.93 154.37 32.27 154.37 32.27 153.47 34.15 153.47 34.15 160.76"/></g><g id="POLYLINE-6" data-name="POLYLINE"><polygon class="cls-3" points="26.93 88.8 32.27 88.8 32.27 87.9 34.15 87.9 34.15 95.19 32.27 95.19 32.27 94.29 26.93 94.29 26.93 95.19 25.05 95.19 25.05 87.9 26.93 87.9 26.93 88.8"/></g><g id="POLYLINE-7" data-name="POLYLINE"><polygon class="cls-3" points="26.93 69.62 32.27 69.62 32.27 70.53 34.15 70.53 34.15 63.23 32.27 63.23 32.27 64.13 26.93 64.13 26.93 63.23 25.05 63.23 25.05 70.53 26.93 70.53 26.93 69.62"/></g><g id="POLYLINE-8" data-name="POLYLINE"><polygon class="cls-3" points="25.05 341.24 25.05 333.95 26.93 333.95 26.93 334.85 32.27 334.85 32.27 333.95 34.15 333.95 34.15 341.24 32.27 341.24 32.27 340.34 26.93 340.34 26.93 341.24 25.05 341.24"/></g><g id="POLYLINE-9" data-name="POLYLINE"><polygon class="cls-3" points="26.93 275.67 25.05 275.67 25.05 268.37 26.93 268.37 26.93 269.28 32.27 269.28 32.27 268.37 34.15 268.37 34.15 275.67 32.27 275.67 32.27 274.77 26.93 274.77 26.93 275.67"/></g><g id="POLYLINE-10" data-name="POLYLINE"><polygon class="cls-3" points="185.68 359.51 180.34 359.51 180.34 358.61 178.46 358.61 178.46 365.91 180.34 365.91 180.34 365 185.68 365 185.68 365.91 187.56 365.91 187.56 358.61 185.68 358.61 185.68 359.51"/></g><g id="POLYLINE-11" data-name="POLYLINE"><polygon class="cls-3" points="187.56 251 187.56 243.71 185.68 243.71 185.68 244.61 180.34 244.61 180.34 243.71 178.46 243.71 178.46 251 180.34 251 180.34 250.1 185.68 250.1 185.68 251 187.56 251"/></g><g id="POLYLINE-12" data-name="POLYLINE"><polygon class="cls-3" points="185.68 185.43 187.56 185.43 187.56 178.13 185.68 178.13 185.68 179.04 180.34 179.04 180.34 178.13 178.46 178.13 178.46 185.43 180.34 185.43 180.34 184.53 185.68 184.53 185.68 185.43"/></g><g id="POLYLINE-13" data-name="POLYLINE"><polygon class="cls-3" points="178.46 160.76 180.34 160.76 180.34 159.86 185.68 159.86 185.68 160.76 187.56 160.76 187.56 153.47 185.68 153.47 185.68 154.37 180.34 154.37 180.34 153.47 178.46 153.47 178.46 160.76"/></g><g id="POLYLINE-14" data-name="POLYLINE"><polygon class="cls-3" points="185.68 88.8 180.34 88.8 180.34 87.9 178.46 87.9 178.46 95.19 180.34 95.19 180.34 94.29 185.68 94.29 185.68 95.19 187.56 95.19 187.56 87.9 185.68 87.9 185.68 88.8"/></g><g id="POLYLINE-15" data-name="POLYLINE"><polygon class="cls-3" points="185.68 69.62 180.34 69.62 180.34 70.53 178.46 70.53 178.46 63.23 180.34 63.23 180.34 64.13 185.68 64.13 185.68 63.23 187.56 63.23 187.56 70.53 185.68 70.53 185.68 69.62"/></g><g id="POLYLINE-16" data-name="POLYLINE"><polygon class="cls-3" points="187.56 341.24 187.56 333.95 185.68 333.95 185.68 334.85 180.34 334.85 180.34 333.95 178.46 333.95 178.46 341.24 180.34 341.24 180.34 340.34 185.68 340.34 185.68 341.24 187.56 341.24"/></g><g id="POLYLINE-17" data-name="POLYLINE"><polygon class="cls-3" points="185.68 275.67 187.56 275.67 187.56 268.37 185.68 268.37 185.68 269.28 180.34 269.28 180.34 268.37 178.46 268.37 178.46 275.67 180.34 275.67 180.34 274.77 185.68 274.77 185.68 275.67"/></g><g id="POLYLINE-18" data-name="POLYLINE"><path class="cls-3" d="M23.58,328.35a1.73,1.73,0,0,0-1.73,1.72v15.35a1.74,1.74,0,0,0,1.73,1.73H56.29v-.91h2v7.37h-2v-.9H23.58a1.73,1.73,0,0,0-1.73,1.73v15.34a1.73,1.73,0,0,0,1.73,1.73H39.45v-.9H41.4V395h57V34.17h-57V58.53H39.45v-.9H23.58a1.73,1.73,0,0,0-1.73,1.73V74.7a1.74,1.74,0,0,0,1.73,1.73H56.29v-.9h2V82.9h-2V82H23.58a1.74,1.74,0,0,0-1.73,1.73V99.06a1.73,1.73,0,0,0,1.73,1.73H39.45v-.9H41.4v48.88H39.45v-.9H23.58a1.73,1.73,0,0,0-1.73,1.73v15.34a1.74,1.74,0,0,0,1.73,1.73H56.29v-.91h2v7.37h-2v-.9H23.58A1.74,1.74,0,0,0,21.85,174V189.3A1.73,1.73,0,0,0,23.58,191H39.45v-.9H41.4V239H39.45v-.9H23.58a1.73,1.73,0,0,0-1.73,1.73v15.34a1.74,1.74,0,0,0,1.73,1.73H56.29V256h2v7.37h-2v-.9H23.58a1.74,1.74,0,0,0-1.73,1.73v15.34a1.73,1.73,0,0,0,1.73,1.73H39.45v-.9H41.4v48.88H39.45v-.9Z"/></g><g id="POLYLINE-19" data-name="POLYLINE"><path class="cls-3" d="M189,328.35a1.72,1.72,0,0,1,1.73,1.72v15.35a1.73,1.73,0,0,1-1.73,1.73H156.31v-.91h-1.95v7.37h1.95v-.9H189a1.72,1.72,0,0,1,1.73,1.73v15.34a1.72,1.72,0,0,1-1.73,1.73H173.16v-.9h-2V395h-57V34.17h57V58.53h2v-.9H189a1.72,1.72,0,0,1,1.73,1.73V74.7A1.73,1.73,0,0,1,189,76.43H156.31v-.9h-1.95V82.9h1.95V82H189a1.73,1.73,0,0,1,1.73,1.73V99.06a1.72,1.72,0,0,1-1.73,1.73H173.16v-.9h-2v48.88h2v-.9H189a1.72,1.72,0,0,1,1.73,1.73v15.34a1.73,1.73,0,0,1-1.73,1.73H156.31v-.91h-1.95v7.37h1.95v-.9H189a1.73,1.73,0,0,1,1.73,1.73V189.3A1.72,1.72,0,0,1,189,191H173.16v-.9h-2V239h2v-.9H189a1.72,1.72,0,0,1,1.73,1.73v15.34a1.73,1.73,0,0,1-1.73,1.73H156.31V256h-1.95v7.37h1.95v-.9H189a1.73,1.73,0,0,1,1.73,1.73v15.34a1.72,1.72,0,0,1-1.73,1.73H173.16v-.9h-2v48.88h2v-.9Z"/></g></svg>