  0
SECTION
  2
HEADER
  9
$ACADVER
  1
AC1014
  9
$ACADMAINTVER
 70
     9
  9
$DWGCODEPAGE
  3
ANSI_1252
  9
$INSBASE
 10
0.0
 20
0.0
 30
0.0
  9
$EXTMIN
 10
30465.42961667245
 20
-3703.170065272592
 30
-0.0000002511302797
  9
$EXTMAX
 10
52730.6470079768
 20
19976.10563836208
 30
0.0
  9
$LIMMIN
 10
0.0
 20
0.0
  9
$LIMMAX
 10
12.0
 20
9.0
  9
$ORTHOMODE
 70
     0
  9
$REGENMODE
 70
     1
  9
$FILLMODE
 70
     1
  9
$QTEXTMODE
 70
     0
  9
$MIRRTEXT
 70
     1
  9
$DRAGMODE
 70
     2
  9
$LTSCALE
 40
1.0
  9
$OSMODE
 70
    37
  9
$ATTMODE
 70
     1
  9
$TEXTSIZE
 40
0.2
  9
$TRACEWID
 40
0.05
  9
$TEXTSTYLE
  7
STANDARD
  9
$CLAYER
  8
4_ANYTOOL_CUTTHROUGH_OUTSI
  9
$CELTYPE
  6
BYLAYER
  9
$CECOLOR
 62
   256
  9
$CELTSCALE
 40
1.0
  9
$DELOBJ
 70
     1
  9
$DISPSILH
 70
     0
  9
$DIMSCALE
 40
1.0
  9
$DIMASZ
 40
0.18
  9
$DIMEXO
 40
0.0625
  9
$DIMDLI
 40
0.38
  9
$DIMRND
 40
0.0
  9
$DIMDLE
 40
0.0
  9
$DIMEXE
 40
0.18
  9
$DIMTP
 40
0.0
  9
$DIMTM
 40
0.0
  9
$DIMTXT
 40
0.18
  9
$DIMCEN
 40
0.09
  9
$DIMTSZ
 40
0.0
  9
$DIMTOL
 70
     0
  9
$DIMLIM
 70
     0
  9
$DIMTIH
 70
     1
  9
$DIMTOH
 70
     1
  9
$DIMSE1
 70
     0
  9
$DIMSE2
 70
     0
  9
$DIMTAD
 70
     0
  9
$DIMZIN
 70
     0
  9
$DIMBLK
  1

  9
$DIMASO
 70
     1
  9
$DIMSHO
 70
     1
  9
$DIMPOST
  1

  9
$DIMAPOST
  1

  9
$DIMALT
 70
     0
  9
$DIMALTD
 70
     2
  9
$DIMALTF
 40
25.4
  9
$DIMLFAC
 40
1.0
  9
$DIMTOFL
 70
     0
  9
$DIMTVP
 40
0.0
  9
$DIMTIX
 70
     0
  9
$DIMSOXD
 70
     0
  9
$DIMSAH
 70
     0
  9
$DIMBLK1
  1

  9
$DIMBLK2
  1

  9
$DIMSTYLE
  2
STANDARD_ACAD
  9
$DIMCLRD
 70
     0
  9
$DIMCLRE
 70
     0
  9
$DIMCLRT
 70
     0
  9
$DIMTFAC
 40
1.0
  9
$DIMGAP
 40
0.09
  9
$DIMJUST
 70
     0
  9
$DIMSD1
 70
     0
  9
$DIMSD2
 70
     0
  9
$DIMTOLJ
 70
     1
  9
$DIMTZIN
 70
     0
  9
$DIMALTZ
 70
     0
  9
$DIMALTTZ
 70
     0
  9
$DIMFIT
 70
     5
  9
$DIMUPT
 70
     0
  9
$DIMUNIT
 70
     2
  9
$DIMDEC
 70
     4
  9
$DIMTDEC
 70
     4
  9
$DIMALTU
 70
     2
  9
$DIMALTTD
 70
     2
  9
$DIMTXSTY
  7
STANDARD
  9
$DIMAUNIT
 70
     0
  9
$LUNITS
 70
     2
  9
$LUPREC
 70
     3
  9
$SKETCHINC
 40
0.1
  9
$FILLETRAD
 40
0.0
  9
$AUNITS
 70
     0
  9
$AUPREC
 70
     0
  9
$MENU
  1
.
  9
$ELEVATION
 40
0.0
  9
$PELEVATION
 40
0.0
  9
$THICKNESS
 40
0.0
  9
$LIMCHECK
 70
     0
  9
$CHAMFERA
 40
0.0
  9
$CHAMFERB
 40
0.0
  9
$CHAMFERC
 40
0.0
  9
$CHAMFERD
 40
0.0
  9
$SKPOLY
 70
     0
  9
$TDCREATE
 40
2459604.872206956
  9
$TDUPDATE
 40
2459604.872219676
  9
$TDINDWG
 40
0.0000000116
  9
$TDUSRTIMER
 40
0.0000000116
  9
$USRTIMER
 70
     1
  9
$ANGBASE
 50
0.0
  9
$ANGDIR
 70
     0
  9
$PDMODE
 70
     0
  9
$PDSIZE
 40
0.0
  9
$PLINEWID
 40
0.0
  9
$COORDS
 70
     1
  9
$SPLFRAME
 70
     0
  9
$SPLINETYPE
 70
     6
  9
$SPLINESEGS
 70
     8
  9
$ATTDIA
 70
     0
  9
$ATTREQ
 70
     1
  9
$HANDLING
 70
     1
  9
$HANDSEED
  5
4AC
  9
$SURFTAB1
 70
     6
  9
$SURFTAB2
 70
     6
  9
$SURFTYPE
 70
     6
  9
$SURFU
 70
     6
  9
$SURFV
 70
     6
  9
$UCSNAME
  2

  9
$UCSORG
 10
0.0
 20
0.0
 30
0.0
  9
$UCSXDIR
 10
1.0
 20
0.0
 30
0.0
  9
$UCSYDIR
 10
0.0
 20
1.0
 30
0.0
  9
$PUCSNAME
  2

  9
$PUCSORG
 10
0.0
 20
0.0
 30
0.0
  9
$PUCSXDIR
 10
1.0
 20
0.0
 30
0.0
  9
$PUCSYDIR
 10
0.0
 20
1.0
 30
0.0
  9
$USERI1
 70
     0
  9
$USERI2
 70
     0
  9
$USERI3
 70
     0
  9
$USERI4
 70
     0
  9
$USERI5
 70
     0
  9
$USERR1
 40
0.0
  9
$USERR2
 40
0.0
  9
$USERR3
 40
0.0
  9
$USERR4
 40
0.0
  9
$USERR5
 40
0.0
  9
$WORLDVIEW
 70
     1
  9
$SHADEDGE
 70
     3
  9
$SHADEDIF
 70
    70
  9
$TILEMODE
 70
     1
  9
$MAXACTVP
 70
    64
  9
$PINSBASE
 10
0.0
 20
0.0
 30
0.0
  9
$PLIMCHECK
 70
     0
  9
$PEXTMIN
 10
1.000000000000000E+20
 20
1.000000000000000E+20
 30
1.000000000000000E+20
  9
$PEXTMAX
 10
-1.000000000000000E+20
 20
-1.000000000000000E+20
 30
-1.000000000000000E+20
  9
$PLIMMIN
 10
0.0
 20
0.0
  9
$PLIMMAX
 10
12.0
 20
9.0
  9
$UNITMODE
 70
     0
  9
$VISRETAIN
 70
     1
  9
$PLINEGEN
 70
     0
  9
$PSLTSCALE
 70
     1
  9
$TREEDEPTH
 70
  3020
  9
$PICKSTYLE
 70
     1
  9
$CMLSTYLE
  2
STANDARD
  9
$CMLJUST
 70
     0
  9
$CMLSCALE
 40
1.0
  9
$PROXYGRAPHICS
 70
     1
  9
$MEASUREMENT
 70
     1
  0
ENDSEC
  0
SECTION
  2
CLASSES
  0
CLASS
  1
ACDBDICTIONARYWDFLT
  2
AcDbDictionaryWithDefault
  3
ObjectDBX Classes
 90
        0
280
     0
281
     0
  0
CLASS
  1
VISUALSTYLE
  2
AcDbVisualStyle
  3
ObjectDBX Classes
 90
     4095
280
     0
281
     0
  0
CLASS
  1
MATERIAL
  2
AcDbMaterial
  3
ObjectDBX Classes
 90
     1153
280
     0
281
     0
  0
CLASS
  1
SCALE
  2
AcDbScale
  3
ObjectDBX Classes
 90
     1153
280
     0
281
     0
  0
CLASS
  1
TABLESTYLE
  2
AcDbTableStyle
  3
ObjectDBX Classes
 90
     4095
280
     0
281
     0
  0
CLASS
  1
MLEADERSTYLE
  2
AcDbMLeaderStyle
  3
ACDB_MLEADERSTYLE_CLASS
 90
     4095
280
     0
281
     0
  0
CLASS
  1
SUN
  2
AcDbSun
  3
SCENEOE
 90
     1153
280
     0
281
     0
  0
CLASS
  1
DICTIONARYVAR
  2
AcDbDictionaryVar
  3
ObjectDBX Classes
 90
        0
280
     0
281
     0
  0
CLASS
  1
XRECORD
  2
AcDbXrecord
  3
ObjectDBX Classes
 90
        0
280
     0
281
     0
  0
CLASS
  1
LWPOLYLINE
  2
AcDbPolyline
  3
ObjectDBX Classes
 90
        0
280
     0
281
     1
  0
CLASS
  1
HATCH
  2
AcDbHatch
  3
ObjectDBX Classes
 90
        0
280
     0
281
     1
  0
CLASS
  1
ACDBPLACEHOLDER
  2
AcDbPlaceHolder
  3
ObjectDBX Classes
 90
        0
280
     0
281
     0
  0
CLASS
  1
LAYOUT
  2
AcDbLayout
  3
ObjectDBX Classes
 90
        0
280
     0
281
     0
  0
ENDSEC
  0
SECTION
  2
TABLES
  0
TABLE
  2
VPORT
  5
8
102
{ACAD_XDICTIONARY
360
4A1
102
}
330
0
100
AcDbSymbolTable
 70
     1
  0
VPORT
  5
29
330
8
100
AcDbSymbolTableRecord
100
AcDbViewportTableRecord
  2
*ACTIVE
 70
     0
 10
0.0
 20
0.0
 11
1.0
 21
1.0
 12
10.42990654205607
 22
4.5
 13
0.0
 23
0.0
 14
0.5
 24
0.5
 15
0.5
 25
0.5
 16
0.0
 26
0.0
 36
1.0
 17
0.0
 27
0.0
 37
0.0
 40
9.0
 41
1.972972972850329
 42
50.0
 43
0.0
 44
0.0
 50
0.0
 51
0.0
 71
     0
 72
   100
 73
     1
 74
     3
 75
     0
 76
     0
 77
     0
 78
     0
  0
ENDTAB
  0
TABLE
  2
LTYPE
  5
5
330
0
100
AcDbSymbolTable
 70
     1
  0
LTYPE
  5
14
330
5
100
AcDbSymbolTableRecord
100
AcDbLinetypeTableRecord
  2
BYBLOCK
 70
     0
  3

 72
    65
 73
     0
 40
0.0
  0
LTYPE
  5
15
330
5
100
AcDbSymbolTableRecord
100
AcDbLinetypeTableRecord
  2
BYLAYER
 70
     0
  3

 72
    65
 73
     0
 40
0.0
  0
LTYPE
  5
16
330
5
100
AcDbSymbolTableRecord
100
AcDbLinetypeTableRecord
  2
CONTINUOUS
 70
     0
  3
Solid line
 72
    65
 73
     0
 40
0.0
  0
ENDTAB
  0
TABLE
  2
LAYER
  5
2
330
0
100
AcDbSymbolTable
 70
     7
  0
LAYER
  5
10
330
2
100
AcDbSymbolTableRecord
100
AcDbLayerTableRecord
  2
0
 70
     0
 62
     7
  6
CONTINUOUS
  0
LAYER
  5
5F
330
2
100
AcDbSymbolTableRecord
100
AcDbLayerTableRecord
  2
DONOTCUT
 70
     0
 62
     7
  6
CONTINUOUS
  0
LAYER
  5
63
330
2
100
AcDbSymbolTableRecord
100
AcDbLayerTableRecord
  2
4_ANYTOOL_CUTTHROUGH_OUTSI
 70
     0
 62
     5
  6
CONTINUOUS
  0
LAYER
  5
1C0
330
2
100
AcDbSymbolTableRecord
100
AcDbLayerTableRecord
  2
5_ANYTOOL_HALF_MILL_9MM_IN
 70
     0
 62
     3
  6
CONTINUOUS
  0
LAYER
  5
261
330
2
100
AcDbSymbolTableRecord
100
AcDbLayerTableRecord
  2
1_ANYTOOL_1MMDEEP_LABELS_S
 70
     0
 62
     2
  6
CONTINUOUS
  0
LAYER
  5
28B
330
2
100
AcDbSymbolTableRecord
100
AcDbLayerTableRecord
  2
3_ANYTOOL_CUTTHROUGH_INSID
 70
     0
 62
     4
  6
CONTINUOUS
  0
LAYER
  5
46F
330
2
100
AcDbSymbolTableRecord
100
AcDbLayerTableRecord
  2
0_SHEET_SPRUCEPLY_2440X122
 70
     0
 62
     1
  6
CONTINUOUS
  0
ENDTAB
  0
TABLE
  2
STYLE
  5
3
330
0
100
AcDbSymbolTable
 70
     3
  0
STYLE
  5
11
330
3
100
AcDbSymbolTableRecord
100
AcDbTextStyleTableRecord
  2
STANDARD
 70
     0
 40
0.0
 41
1.0
 50
0.0
 71
     0
 42
0.2
  3
txt
  4

  0
STYLE
  5
60
330
3
100
AcDbSymbolTableRecord
100
AcDbTextStyleTableRecord
  2
ARIAL_REGULAR
 70
     0
 40
0.0
 41
1.0
 50
0.0
 71
     0
 42
0.2
  3

  4

1001
ACAD
1000
Arial
1071
      256
  0
STYLE
  5
262
330
3
100
AcDbSymbolTableRecord
100
AcDbTextStyleTableRecord
  2
MONOTXT_REGULAR
 70
     0
 40
0.0
 41
1.0
 50
0.0
 71
     0
 42
0.2
  3

  4

1001
ACAD
1000
Monotxt
1071
      256
  0
ENDTAB
  0
TABLE
  2
VIEW
  5
6
330
0
100
AcDbSymbolTable
 70
     0
  0
ENDTAB
  0
TABLE
  2
UCS
  5
7
330
0
100
AcDbSymbolTable
 70
     0
  0
ENDTAB
  0
TABLE
  2
APPID
  5
9
330
0
100
AcDbSymbolTable
 70
     3
  0
APPID
  5
12
330
9
100
AcDbSymbolTableRecord
100
AcDbRegAppTableRecord
  2
ACAD
 70
     0
  0
APPID
  5
5E
330
9
100
AcDbSymbolTableRecord
100
AcDbRegAppTableRecord
  2
RHINO
 70
     0
  0
APPID
  5
4AB
330
9
100
AcDbSymbolTableRecord
100
AcDbRegAppTableRecord
  2
ACAD_MLEADERVER
 70
     0
  0
ENDTAB
  0
TABLE
  2
DIMSTYLE
  5
A
330
0
100
AcDbSymbolTable
 70
     1
  0
DIMSTYLE
105
27
330
A
100
AcDbSymbolTableRecord
100
AcDbDimStyleTableRecord
  2
STANDARD_ACAD
 70
     0
  3

  4

  5

  6

  7

 40
1.0
 41
0.18
 42
0.0625
 43
0.38
 44
0.18
 45
0.0
 46
0.0
 47
0.0
 48
0.0
140
0.18
141
0.09
142
0.0
143
25.4
144
1.0
145
0.0
146
1.0
147
0.09
 71
     0
 72
     0
 73
     1
 74
     1
 75
     0
 76
     0
 77
     0
 78
     0
170
     0
171
     2
172
     0
173
     0
174
     0
175
     0
176
     0
177
     0
178
     0
270
     2
271
     4
272
     4
273
     2
274
     2
340
11
275
     0
280
     0
281
     0
282
     0
283
     1
284
     0
285
     0
286
     0
287
     3
288
     0
  0
ENDTAB
  0
TABLE
  2
BLOCK_RECORD
  5
1
330
0
100
AcDbSymbolTable
 70
     0
  0
BLOCK_RECORD
  5
1F
330
1
100
AcDbSymbolTableRecord
100
AcDbBlockTableRecord
  2
*MODEL_SPACE
  0
BLOCK_RECORD
  5
1B
330
1
100
AcDbSymbolTableRecord
100
AcDbBlockTableRecord
  2
*PAPER_SPACE
  0
ENDTAB
  0
ENDSEC
  0
SECTION
  2
BLOCKS
  0
BLOCK
  5
20
330
1F
100
AcDbEntity
  8
0
100
AcDbBlockBegin
  2
*MODEL_SPACE
 70
     0
 10
0.0
 20
0.0
 30
0.0
  3
*MODEL_SPACE
  1

  0
ENDBLK
  5
21
330
1F
100
AcDbEntity
  8
0
100
AcDbBlockEnd
  0
BLOCK
  5
1C
330
1B
100
AcDbEntity
 67
     1
  8
0
100
AcDbBlockBegin
  2
*PAPER_SPACE
 70
     0
 10
0.0
 20
0.0
 30
0.0
  3
*PAPER_SPACE
  1

  0
ENDBLK
  5
1D
330
1B
100
AcDbEntity
 67
     1
  8
0
100
AcDbBlockEnd
  0
ENDSEC
  0
SECTION
  2
ENTITIES
  0
MTEXT
  5
61
330
1F
100
AcDbEntity
  8
DONOTCUT
100
AcDbMText
 10
30465.42961667245
 20
9338.886456550745
 30
0.0
 40
150.0
 41
22265.21739130434
 71
     1
 72
     1
  3
{\fArial;CNC Information:}\P\P{\fArial;All geometry have tolerance offsets pre-applied for manufacture. 'Dog-bone' pockets have been added on}\P{\fArial;internal corners to mitigate any filleting caused by router bit. Follow the layer information be
  3
low for}\P{\fArial;guidance on recommended settings.}\P\P\P{\fArial;Layer Information:}\P\P{\fArial;DONOTCUT: Information for instruction purposes only}\P\P{\fArial;0_SHEET_SPRUCEPLY_2440X1220X18: Plywood material boundary for reference}\P\P{\fArial
  3
;1_ANYTOOL_1MMDEEP_LABELS: Text labels, convert to curves and engrave at 1mm depth}\P\P{\fArial;2_ANYTOOL_1MMDEEP_SCREWMARKS: Marker 'dinks' for nails/screws during assembly. Pre-mark using 2-3mm bit}\P\P{\fArial;3_ANYTOOL_CUTTHROUGH_INSIDE: Interna
  1
l slots, cut through inside line}\P\P{\fArial;4_ANYTOOL_CUTTHROUGH_OUTSIDE: External profile of parts, cut through outside line}\P\P{\fArial;5_ANYTOOL_HALF_MILL_9MM_INSIDE: Mill out area to 9MM depth}
  7
ARIAL_REGULAR
1001
ACAD
1000
ACAD_MTEXT_DEFINED_HEIGHT_BEGIN
1070
    46
1040
5144.021739130435
1000
ACAD_MTEXT_DEFINED_HEIGHT_END
  0
MTEXT
  5
62
330
1F
100
AcDbEntity
  8
DONOTCUT
100
AcDbMText
 10
30465.42961667245
 20
19976.10563836208
 30
0.0
 40
250.0
 41
12895.38043478261
 71
     1
 72
     1
  3
{\fArial;WIKIHOUSE SKYLARK BLOCKS}\P{\fArial;CNC MANUFACTURING FILES}\P{\fArial;WIKIHOUSE SKYLARK SYSTEM v0.1.0 (www.wikihouse.cc)}\P{\fArial;Developed by Open Systems Lab}\P\P{\fArial;CC-BY-SA 4.0}\P{\fArial;GENERAL RELEASE v0.1.0}\P{\fArial;ISSUED
  3
: 21/01/2022}\P\P{\fArial;BY USING THIS INFORMATION YOU AGREE }\P{\fArial;TO THE FULL WIKIHOUSE TERMS OF USE:}\P{\fArial;https://www.wikihouse.cc/Terms-of-Use}\P\P{\fArial;WikiHouse information and files are shared }{\fArial;‘as is}{\fArial;’, witho
  3
ut warranties, guarantees }\P{\fArial;or certifications of any kind, express or implied. This includes, without limitation, }\P{\fArial;warranties that the content is accurate, complete, free of defects, fit for a particular }\P{\fArial;purpose or n
  3
on-infringing in relation to the use of WikiHouse information or the }\P{\fArial;results of such use. You are wholly responsible for checking WikiHouse }\P{\fArial;information and for using WikiHouse information in a safe way, and for satisfying }\P
  3
{\fArial;yourself that you meet all relevant regulations, including planning regulations, }\P{\fArial;building codes and health & safety legislation; as well as for working with }\P{\fArial;appropriate equipment and materials and appropriately compe
  1
tent persons. Every }\P{\fArial;project should always be checked by a structural engineer. For more specific }\P{\fArial;advice, the End User should engage relevant qualified professionals or competent }\P{\fArial;persons.}\P
  7
ARIAL_REGULAR
1001
ACAD
1000
ACAD_MTEXT_DEFINED_HEIGHT_BEGIN
1070
    46
1040
9773.369565217392
1000
ACAD_MTEXT_DEFINED_HEIGHT_END
  0
POLYLINE
  5
64
330
1F
100
AcDbEntity
  8
4_ANYTOOL_CUTTHROUGH_OUTSI
100
AcDb2dPolyline
 66
     1
 10
0.0
 20
0.0
 30
0.0
 70
     1
  0
VERTEX
  5
65
330
64
100
AcDbEntity
  8
4_ANYTOOL_CUTTHROUGH_OUTSI
100
AcDbVertex
100
AcDb2dVertex
 10
32754.67369869829
 20
-2341.80926571026
 30
0.0
  0
VERTEX
  5
66
330
64
100
AcDbEntity
  8
4_ANYTOOL_CUTTHROUGH_OUTSI
100
AcDbVertex
100
AcDb2dVertex
 10
32754.67369869829
 20
-2335.809265710267
 30
0.0
  0
VERTEX
  5
67
330
64
100
AcDbEntity
  8
4_ANYTOOL_CUTTHROUGH_OUTSI
100
AcDbVertex
100
AcDb2dVertex
 10
32767.17369869828
 20
-2335.809265710261
 30
0.0
  0
VERTEX
  5
68
330
64
100
AcDbEntity
  8
4_ANYTOOL_CUTTHROUGH_OUTSI
100
AcDbVertex
100
AcDb2dVertex
 10
32767.17369869828
 20
-2359.809265710082
 30
0.0
  0
VERTEX
  5
69
330
64
100
AcDbEntity
  8
4_ANYTOOL_CUTTHROUGH_OUTSI
100
AcDbVertex
100
AcDb2dVertex
 10
32881.67369869825
 20
-2359.809265710314
 30
0.0
  0
VERTEX
  5
6A
330
64
100
AcDbEntity
  8
4_ANYTOOL_CUTTHROUGH_OUTSI
100
AcDbVertex
100
AcDb2dVertex
 10
32881.67369869835
 20
-2105.309265710269
 30
0.0
  0
VERTEX
  5
6B
330
64
100
AcDbEntity
  8
4_ANYTOOL_CUTTHROUGH_OUTSI
100
AcDbVertex
100
AcDb2dVertex
 10
32825.67369869834
 20
-2105.309265710272
 30
0.0
  0
VERTEX
  5
6C
330
64
100
AcDbEntity
  8
4_ANYTOOL_CUTTHROUGH_OUTSI
100
AcDbVertex
100
AcDb2dVertex
 10
32825.67369869834
 20
-2092.809265710316
 30
0.0
  0
VERTEX
  5
6D
330
64
100
AcDbEntity
  8
4_ANYTOOL_CUTTHROUGH_OUTSI
100
AcDbVertex
100
AcDb2dVertex
 10
32831.67369869832
 20
-2092.809265710313
 30
0.0
  0
VERTEX
  5
6E
330
64
100
AcDbEntity
  8
4_ANYTOOL_CUTTHROUGH_OUTSI
100
AcDbVertex
100
AcDb2dVertex
 10
32831.67369869833
 20
-2081.309265710351
 30
0.0
  0
VERTEX
  5
6F
330
64
100
AcDbEntity
  8
4_ANYTOOL_CUTTHROUGH_OUTSI
100
AcDbVertex
100
AcDb2dVertex
 10
32825.67369869833
 20
-2081.309265710366
 30
0.0
  0
VERTEX
  5
70
330
64
100
AcDbEntity
  8
4_ANYTOOL_CUTTHROUGH_OUTSI
100
AcDbVertex
100
AcDb2dVertex
 10
32825.67369869833
 20
-2068.809265710287
 30
0.0
  0
VERTEX
  5
71
330
64
100
AcDbEntity
  8
4_ANYTOOL_CUTTHROUGH_OUTSI
100
AcDbVertex
100
AcDb2dVertex
 10
32849.67369869833
 20
-2068.809265710278
 30
0.0
  0
VERTEX
  5
72
330
64
100
AcDbEntity
  8
4_ANYTOOL_CUTTHROUGH_OUTSI
100
AcDbVertex
100
AcDb2dVertex
 10
32849.67369869833
 20
-2051.309265710276
 30
0.0
  0
VERTEX
  5
73
330
64
100
AcDbEntity
  8
4_ANYTOOL_CUTTHROUGH_OUTSI
100
AcDbVertex
100
AcDb2dVertex
 10
32825.67369869833
 20
-2051.309265710279
 30
0.0
  0
VERTEX
  5
74
330
64
100
AcDbEntity
  8
4_ANYTOOL_CUTTHROUGH_OUTSI
100
AcDbVertex
100
AcDb2dVertex
 10
32825.67369869833
 20
-2038.809265710281
 30
0.0
  0
VERTEX
  5
75
330
64
100
AcDbEntity
  8
4_ANYTOOL_CUTTHROUGH_OUTSI
100
AcDbVertex
100
AcDb2dVertex
 10
32831.67369869832
 20
-2038.809265710285
 30
0.0
  0
VERTEX
  5
76
330
64
100
AcDbEntity
  8
4_ANYTOOL_CUTTHROUGH_OUTSI
100
AcDbVertex
100
AcDb2dVertex
 10
32831.67369869833
 20
-2027.309265710287
 30
0.0
  0
VERTEX
  5
77
330
64
100
AcDbEntity
  8
4_ANYTOOL_CUTTHROUGH_OUTSI
100
AcDbVertex
100
AcDb2dVertex
 10
32825.67369869834
 20
-2027.309265710291
 30
0.0
  0
VERTEX
  5
78
330
64
100
AcDbEntity
  8
4_ANYTOOL_CUTTHROUGH_OUTSI
100
AcDbVertex
100
AcDb2dVertex
 10
32825.67369869834
 20
-2014.809265710292
 30
0.0
  0
VERTEX
  5
79
330
64
100
AcDbEntity
  8
4_ANYTOOL_CUTTHROUGH_OUTSI
100
AcDbVertex
100
AcDb2dVertex
 10
32881.67369869834
 20
-2014.809265710282
 30
0.0
  0
VERTEX
  5
7A
330
64
100
AcDbEntity
  8
4_ANYTOOL_CUTTHROUGH_OUTSI
100
AcDbVertex
100
AcDb2dVertex
 10
32881.67369869843
 20
-1505.309265710282
 30
0.0
  0
VERTEX
  5
7B
330
64
100
AcDbEntity
  8
4_ANYTOOL_CUTTHROUGH_OUTSI
100
AcDbVertex
100
AcDb2dVertex
 10
32825.67369869843
 20
-1505.309265710276
 30
0.0
  0
VERTEX
  5
7C
330
64
100
AcDbEntity
  8
4_ANYTOOL_CUTTHROUGH_OUTSI
100
AcDbVertex
100
AcDb2dVertex
 10
32825.67369869843
 20
-1492.809265710313
 30
0.0
  0
VERTEX
  5
7D
330
64
100
AcDbEntity
  8
4_ANYTOOL_CUTTHROUGH_OUTSI
100
AcDbVertex
100
AcDb2dVertex
 10
32831.67369869843
 20
-1492.809265710311
 30
0.0
  0
VERTEX
  5
7E
330
64
100
AcDbEntity
  8
4_ANYTOOL_CUTTHROUGH_OUTSI
100
AcDbVertex
100
AcDb2dVertex
 10
32831.67369869843
 20
-1481.309265710355
 30
0.0
  0
VERTEX
  5
7F
330
64
100
AcDbEntity
  8
4_ANYTOOL_CUTTHROUGH_OUTSI
100
AcDbVertex
100
AcDb2dVertex
 10
32825.67369869843
 20
-1481.309265710363
 30
0.0
  0
VERTEX
  5
80
330
64
100
AcDbEntity
  8
4_ANYTOOL_CUTTHROUGH_OUTSI
100
AcDbVertex
100
AcDb2dVertex
 10
32825.67369869841
 20
-1468.809265710284
 30
0.0
  0
VERTEX
  5
81
330
64
100
AcDbEntity
  8
4_ANYTOOL_CUTTHROUGH_OUTSI
100
AcDbVertex
100
AcDb2dVertex
 10
32849.67369869843
 20
-1468.809265710277
 30
0.0
  0
VERTEX
  5
82
330
64
100
AcDbEntity
  8
4_ANYTOOL_CUTTHROUGH_OUTSI
100
AcDbVertex
100
AcDb2dVertex
 10
32849.67369869843
 20
-1451.309265710273
 30
0.0
  0
VERTEX
  5
83
330
64
100
AcDbEntity
  8
4_ANYTOOL_CUTTHROUGH_OUTSI
100
AcDbVertex
100
AcDb2dVertex
 10
32825.67369869842
 20
-1451.309265710276
 30
0.0
  0
VERTEX
  5
84
330
64
100
AcDbEntity
  8
4_ANYTOOL_CUTTHROUGH_OUTSI
100
AcDbVertex
100
AcDb2dVertex
 10
32825.67369869843
 20
-1438.809265710279
 30
0.0
  0
VERTEX
  5
85
330
64
100
AcDbEntity
  8
4_ANYTOOL_CUTTHROUGH_OUTSI
100
AcDbVertex
100
AcDb2dVertex
 10
32831.67369869841
 20
-1438.809265710282
 30
0.0
  0
VERTEX
  5
86
330
64
100
AcDbEntity
  8
4_ANYTOOL_CUTTHROUGH_OUTSI
100
AcDbVertex
100
AcDb2dVertex
 10
32831.67369869841
 20
-1427.309265710283
 30
0.0
  0
VERTEX
  5
87
330
64
100
AcDbEntity
  8
4_ANYTOOL_CUTTHROUGH_OUTSI
100
AcDbVertex
100
AcDb2dVertex
 10
32825.67369869843
 20
-1427.309265710285
 30
0.0
  0
VERTEX
  5
88
330
64
100
AcDbEntity
  8
4_ANYTOOL_CUTTHROUGH_OUTSI
100
AcDbVertex
100
AcDb2dVertex
 10
32825.67369869843
 20
-1414.809265710289
 30
0.0
  0
VERTEX
  5
89
330
64
100
AcDbEntity
  8
4_ANYTOOL_CUTTHROUGH_OUTSI
100
AcDbVertex
100
AcDb2dVertex
 10
32881.67369869844
 20
-1414.809265710295
 30
0.0
  0
VERTEX
  5
8A
330
64
100
AcDbEntity
  8
4_ANYTOOL_CUTTHROUGH_OUTSI
100
AcDbVertex
100
AcDb2dVertex
 10
32881.67369869827
 20
-905.3092657102609
 30
0.0
  0
VERTEX
  5
8B
330
64
100
AcDbEntity
  8
4_ANYTOOL_CUTTHROUGH_OUTSI
100
AcDbVertex
100
AcDb2dVertex
 10
32825.67369869825
 20
-905.3092657102543
 30
0.0
  0
VERTEX
  5
8C
330
64
100
AcDbEntity
  8
4_ANYTOOL_CUTTHROUGH_OUTSI
100
AcDbVertex
100
AcDb2dVertex
 10
32825.67369869827
 20
-892.8092657102925
 30
0.0
  0
VERTEX
  5
8D
330
64
100
AcDbEntity
  8
4_ANYTOOL_CUTTHROUGH_OUTSI
100
AcDbVertex
100
AcDb2dVertex
 10
32831.67369869827
 20
-892.8092657102977
 30
0.0
  0
VERTEX
  5
8E
330
64
100
AcDbEntity
  8
4_ANYTOOL_CUTTHROUGH_OUTSI
100
AcDbVertex
100
AcDb2dVertex
 10
32831.67369869827
 20
-881.3092657103346
 30
0.0
  0
VERTEX
  5
8F
330
64
100
AcDbEntity
  8
4_ANYTOOL_CUTTHROUGH_OUTSI
100
AcDbVertex
100
AcDb2dVertex
 10
32825.67369869827
 20
-881.3092657103409
 30
0.0
  0
VERTEX
  5
90
330
64
100
AcDbEntity
  8
4_ANYTOOL_CUTTHROUGH_OUTSI
100
AcDbVertex
100
AcDb2dVertex
 10
32825.67369869827
 20
-868.8092657102688
 30
0.0
  0
VERTEX
  5
91
330
64
100
AcDbEntity
  8
4_ANYTOOL_CUTTHROUGH_OUTSI
100
AcDbVertex
100
AcDb2dVertex
 10
32849.67369869833
 20
-868.8092657102629
 30
0.0
  0
VERTEX
  5
92
330
64
100
AcDbEntity
  8
4_ANYTOOL_CUTTHROUGH_OUTSI
100
AcDbVertex
100
AcDb2dVertex
 10
32849.67369869833
 20
-851.3092657102593
 30
0.0
  0
VERTEX
  5
93
330
64
100
AcDbEntity
  8
4_ANYTOOL_CUTTHROUGH_OUTSI
100
AcDbVertex
100
AcDb2dVertex
 10
32825.67369869826
 20
-851.3092657102618
 30
0.0
  0
VERTEX
  5
94
330
64
100
AcDbEntity
  8
4_ANYTOOL_CUTTHROUGH_OUTSI
100
AcDbVertex
100
AcDb2dVertex
 10
32825.67369869827
 20
-838.8092657102634
 30
0.0
  0
VERTEX
  5
95
330
64
100
AcDbEntity
  8
4_ANYTOOL_CUTTHROUGH_OUTSI
100
AcDbVertex
100
AcDb2dVertex
 10
32831.67369869825
 20
-838.8092657102634
 30
0.0
  0
VERTEX
  5
96
330
64
100
AcDbEntity
  8
4_ANYTOOL_CUTTHROUGH_OUTSI
100
AcDbVertex
100
AcDb2dVertex
 10
32831.67369869828
 20
-827.3092657102725
 30
0.0
  0
VERTEX
  5
97
330
64
100
AcDbEntity
  8
4_ANYTOOL_CUTTHROUGH_OUTSI
100
AcDbVertex
100
AcDb2dVertex
 10
32825.67369869827
 20
-827.3092657102727
 30
0.0
  0
VERTEX
  5
98
330
64
100
AcDbEntity
  8
4_ANYTOOL_CUTTHROUGH_OUTSI
100
AcDbVertex
100
AcDb2dVertex
 10
32825.67369869828
 20
-814.8092657102745
 30
0.0
  0
VERTEX
  5
99
330
64
100
AcDbEntity
  8
4_ANYTOOL_CUTTHROUGH_OUTSI
100
AcDbVertex
100
AcDb2dVertex
 10
32881.67369869823
 20
-814.8092657102754
 30
0.0
  0
VERTEX
  5
9A
330
64
100
AcDbEntity
  8
4_ANYTOOL_CUTTHROUGH_OUTSI
100
AcDbVertex
100
AcDb2dVertex
 10
32881.67369869838
 20
-305.3092657102611
 30
0.0
  0
VERTEX
  5
9B
330
64
100
AcDbEntity
  8
4_ANYTOOL_CUTTHROUGH_OUTSI
100
AcDbVertex
100
AcDb2dVertex
 10
32825.67369869837
 20
-305.3092657102552
 30
0.0
  0
VERTEX
  5
9C
330
64
100
AcDbEntity
  8
4_ANYTOOL_CUTTHROUGH_OUTSI
100
AcDbVertex
100
AcDb2dVertex
 10
32825.67369869839
 20
-292.8092657102925
 30
0.0
  0
VERTEX
  5
9D
330
64
100
AcDbEntity
  8
4_ANYTOOL_CUTTHROUGH_OUTSI
100
AcDbVertex
100
AcDb2dVertex
 10
32831.67369869838
 20
-292.809265710298
 30
0.0
  0
VERTEX
  5
9E
330
64
100
AcDbEntity
  8
4_ANYTOOL_CUTTHROUGH_OUTSI
100
AcDbVertex
100
AcDb2dVertex
 10
32831.67369869838
 20
-281.3092657103361
 30
0.0
  0
VERTEX
  5
9F
330
64
100
AcDbEntity
  8
4_ANYTOOL_CUTTHROUGH_OUTSI
100
AcDbVertex
100
AcDb2dVertex
 10
32825.67369869839
 20
-281.3092657103418
 30
0.0
  0
VERTEX
  5
A0
330
64
100
AcDbEntity
  8
4_ANYTOOL_CUTTHROUGH_OUTSI
100
AcDbVertex
100
AcDb2dVertex
 10
32825.67369869839
 20
-268.8092657102688
 30
0.0
  0
VERTEX
  5
A1
330
64
100
AcDbEntity
  8
4_ANYTOOL_CUTTHROUGH_OUTSI
100
AcDbVertex
100
AcDb2dVertex
 10
32849.67369869838
 20
-268.809265710265
 30
0.0
  0
VERTEX
  5
A2
330
64
100
AcDbEntity
  8
4_ANYTOOL_CUTTHROUGH_OUTSI
100
AcDbVertex
100
AcDb2dVertex
 10
32849.67369869837
 20
-251.3092657102595
 30
0.0
  0
VERTEX
  5
A3
330
64
100
AcDbEntity
  8
4_ANYTOOL_CUTTHROUGH_OUTSI
100
AcDbVertex
100
AcDb2dVertex
 10
32825.67369869837
 20
-251.3092657102618
 30
0.0
  0
VERTEX
  5
A4
330
64
100
AcDbEntity
  8
4_ANYTOOL_CUTTHROUGH_OUTSI
100
AcDbVertex
100
AcDb2dVertex
 10
32825.67369869839
 20
-238.8092657102645
 30
0.0
  0
VERTEX
  5
A5
330
64
100
AcDbEntity
  8
4_ANYTOOL_CUTTHROUGH_OUTSI
100
AcDbVertex
100
AcDb2dVertex
 10
32831.67369869837
 20
-238.8092657102641
 30
0.0
  0
VERTEX
  5
A6
330
64
100
AcDbEntity
  8
4_ANYTOOL_CUTTHROUGH_OUTSI
100
AcDbVertex
100
AcDb2dVertex
 10
32831.6736986984
 20
-227.3092657102723
 30
0.0
  0
VERTEX
  5
A7
330
64
100
AcDbEntity
  8
4_ANYTOOL_CUTTHROUGH_OUTSI
100
AcDbVertex
100
AcDb2dVertex
 10
32825.67369869839
 20
-227.3092657102725
 30
0.0
  0
VERTEX
  5
A8
330
64
100
AcDbEntity
  8
4_ANYTOOL_CUTTHROUGH_OUTSI
100
AcDbVertex
100
AcDb2dVertex
 10
32825.6736986984
 20
-214.8092657102761
 30
0.0
  0
VERTEX
  5
A9
330
64
100
AcDbEntity
  8
4_ANYTOOL_CUTTHROUGH_OUTSI
100
AcDbVertex
100
AcDb2dVertex
 10
32881.67369869835
 20
-214.8092657102759
 30
0.0
  0
VERTEX
  5
AA
330
64
100
AcDbEntity
  8
4_ANYTOOL_CUTTHROUGH_OUTSI
100
AcDbVertex
100
AcDb2dVertex
 10
32881.67369869844
 20
39.69073428961246
 30
0.0
  0
VERTEX
  5
AB
330
64
100
AcDbEntity
  8
4_ANYTOOL_CUTTHROUGH_OUTSI
100
AcDbVertex
100
AcDb2dVertex
 10
32767.1736986978
 20
39.69073428893807
 30
0.0
  0
VERTEX
  5
AC
330
64
100
AcDbEntity
  8
4_ANYTOOL_CUTTHROUGH_OUTSI
100
AcDbVertex
100
AcDb2dVertex
 10
32767.17369869781
 20
15.6907342890795
 30
0.0
  0
VERTEX
  5
AD
330
64
100
AcDbEntity
  8
4_ANYTOOL_CUTTHROUGH_OUTSI
100
AcDbVertex
100
AcDb2dVertex
 10
32754.6736986978
 20
15.69073428907996
 30
0.0
  0
VERTEX
  5
AE
330
64
100
AcDbEntity
  8
4_ANYTOOL_CUTTHROUGH_OUTSI
100
AcDbVertex
100
AcDb2dVertex
 10
32754.6736986978
 20
21.69073428929767
 30
0.0
  0
VERTEX
  5
AF
330
64
100
AcDbEntity
  8
4_ANYTOOL_CUTTHROUGH_OUTSI
100
AcDbVertex
100
AcDb2dVertex
 10
32724.92369869833
 20
21.690734289396
 30
0.0
  0
VERTEX
  5
B0
330
64
100
AcDbEntity
  8
4_ANYTOOL_CUTTHROUGH_OUTSI
100
AcDbVertex
100
AcDb2dVertex
 10
32724.9236986984
 20
3.690734289396005
 30
0.0
  0
VERTEX
  5
B1
330
64
100
AcDbEntity
  8
4_ANYTOOL_CUTTHROUGH_OUTSI
100
AcDbVertex
100
AcDb2dVertex
 10
32730.9236986984
 20
3.690734289420107
 30
0.0
  0
VERTEX
  5
B2
330
64
100
AcDbEntity
  8
4_ANYTOOL_CUTTHROUGH_OUTSI
100
AcDbVertex
100
AcDb2dVertex
 10
32730.92369869845
 20
-8.309265710579893
 30
0.0
  0
VERTEX
  5
B3
330
64
100
AcDbEntity
  8
4_ANYTOOL_CUTTHROUGH_OUTSI
100
AcDbVertex
100
AcDb2dVertex
 10
32682.92369869845
 20
-8.309265710772479
 30
0.0
  0
VERTEX
  5
B4
330
64
100
AcDbEntity
  8
4_ANYTOOL_CUTTHROUGH_OUTSI
100
AcDbVertex
100
AcDb2dVertex
 10
32682.9236986984
 20
3.690734289227521
 30
0.0
  0
VERTEX
  5
B5
330
64
100
AcDbEntity
  8
4_ANYTOOL_CUTTHROUGH_OUTSI
100
AcDbVertex
100
AcDb2dVertex
 10
32688.9236986984
 20
3.690734289251623
 30
0.0
  0
VERTEX
  5
B6
330
64
100
AcDbEntity
  8
4_ANYTOOL_CUTTHROUGH_OUTSI
100
AcDbVertex
100
AcDb2dVertex
 10
32688.92369869833
 20
21.69073428925162
 30
0.0
  0
VERTEX
  5
B7
330
64
100
AcDbEntity
  8
4_ANYTOOL_CUTTHROUGH_OUTSI
100
AcDbVertex
100
AcDb2dVertex
 10
32659.17369869781
 20
21.6907342891061
 30
0.0
  0
VERTEX
  5
B8
330
64
100
AcDbEntity
  8
4_ANYTOOL_CUTTHROUGH_OUTSI
100
AcDbVertex
100
AcDb2dVertex
 10
32659.17369869781
 20
15.69073428909633
 30
0.0
  0
VERTEX
  5
B9
330
64
100
AcDbEntity
  8
4_ANYTOOL_CUTTHROUGH_OUTSI
100
AcDbVertex
100
AcDb2dVertex
 10
32646.6736986978
 20
15.69073428909633
 30
0.0
  0
VERTEX
  5
BA
330
64
100
AcDbEntity
  8
4_ANYTOOL_CUTTHROUGH_OUTSI
100
AcDbVertex
100
AcDb2dVertex
 10
32646.6736986978
 20
39.69073428895535
 30
0.0
  0
VERTEX
  5
BB
330
64
100
AcDbEntity
  8
4_ANYTOOL_CUTTHROUGH_OUTSI
100
AcDbVertex
100
AcDb2dVertex
 10
32564.17369869844
 20
39.69073429162108
 30
0.0
  0
VERTEX
  5
BC
330
64
100
AcDbEntity
  8
4_ANYTOOL_CUTTHROUGH_OUTSI
100
AcDbVertex
100
AcDb2dVertex
 10
32564.17369869836
 20
-214.809265710348
 30
0.0
  0
VERTEX
  5
BD
330
64
100
AcDbEntity
  8
4_ANYTOOL_CUTTHROUGH_OUTSI
100
AcDbVertex
100
AcDb2dVertex
 10
32588.17369869835
 20
-214.8092657103607
 30
0.0
  0
VERTEX
  5
BE
330
64
100
AcDbEntity
  8
4_ANYTOOL_CUTTHROUGH_OUTSI
100
AcDbVertex
100
AcDb2dVertex
 10
32588.17369869835
 20
-227.3092657103634
 30
0.0
  0
VERTEX
  5
BF
330
64
100
AcDbEntity
  8
4_ANYTOOL_CUTTHROUGH_OUTSI
100
AcDbVertex
100
AcDb2dVertex
 10
32582.17369869835
 20
-227.3092657103571
 30
0.0
  0
VERTEX
  5
C0
330
64
100
AcDbEntity
  8
4_ANYTOOL_CUTTHROUGH_OUTSI
100
AcDbVertex
100
AcDb2dVertex
 10
32582.17369869835
 20
-238.8092657103607
 30
0.0
  0
VERTEX
  5
C1
330
64
100
AcDbEntity
  8
4_ANYTOOL_CUTTHROUGH_OUTSI
100
AcDbVertex
100
AcDb2dVertex
 10
32588.17369869835
 20
-238.8092657103605
 30
0.0
  0
VERTEX
  5
C2
330
64
100
AcDbEntity
  8
4_ANYTOOL_CUTTHROUGH_OUTSI
100
AcDbVertex
100
AcDb2dVertex
 10
32588.17369869835
 20
-251.3092657103643
 30
0.0
  0
VERTEX
  5
C3
330
64
100
AcDbEntity
  8
4_ANYTOOL_CUTTHROUGH_OUTSI
100
AcDbVertex
100
AcDb2dVertex
 10
32564.17369869834
 20
-251.3092657102634
 30
0.0
  0
VERTEX
  5
C4
330
64
100
AcDbEntity
  8
4_ANYTOOL_CUTTHROUGH_OUTSI
100
AcDbVertex
100
AcDb2dVertex
 10
32564.17369869834
 20
-268.8092657103571
 30
0.0
  0
VERTEX
  5
C5
330
64
100
AcDbEntity
  8
4_ANYTOOL_CUTTHROUGH_OUTSI
100
AcDbVertex
100
AcDb2dVertex
 10
32588.17369869835
 20
-268.8092657103589
 30
0.0
  0
VERTEX
  5
C6
330
64
100
AcDbEntity
  8
4_ANYTOOL_CUTTHROUGH_OUTSI
100
AcDbVertex
100
AcDb2dVertex
 10
32588.17369869835
 20
-281.3092657103621
 30
0.0
  0
VERTEX
  5
C7
330
64
100
AcDbEntity
  8
4_ANYTOOL_CUTTHROUGH_OUTSI
100
AcDbVertex
100
AcDb2dVertex
 10
32582.17369869835
 20
-281.3092657103575
 30
0.0
  0
VERTEX
  5
C8
330
64
100
AcDbEntity
  8
4_ANYTOOL_CUTTHROUGH_OUTSI
100
AcDbVertex
100
AcDb2dVertex
 10
32582.17369869835
 20
-292.8092657103598
 30
0.0
  0
VERTEX
  5
C9
330
64
100
AcDbEntity
  8
4_ANYTOOL_CUTTHROUGH_OUTSI
100
AcDbVertex
100
AcDb2dVertex
 10
32588.17369869835
 20
-292.8092657103593
 30
0.0
  0
VERTEX
  5
CA
330
64
100
AcDbEntity
  8
4_ANYTOOL_CUTTHROUGH_OUTSI
100
AcDbVertex
100
AcDb2dVertex
 10
32588.17369869835
 20
-305.3092657103623
 30
0.0
  0
VERTEX
  5
CB
330
64
100
AcDbEntity
  8
4_ANYTOOL_CUTTHROUGH_OUTSI
100
AcDbVertex
100
AcDb2dVertex
 10
32564.17369869835
 20
-305.3092657103452
 30
0.0
  0
VERTEX
  5
CC
330
64
100
AcDbEntity
  8
4_ANYTOOL_CUTTHROUGH_OUTSI
100
AcDbVertex
100
AcDb2dVertex
 10
32564.17369869825
 20
-814.8092657103591
 30
0.0
  0
VERTEX
  5
CD
330
64
100
AcDbEntity
  8
4_ANYTOOL_CUTTHROUGH_OUTSI
100
AcDbVertex
100
AcDb2dVertex
 10
32588.17369869824
 20
-814.8092657103589
 30
0.0
  0
VERTEX
  5
CE
330
64
100
AcDbEntity
  8
4_ANYTOOL_CUTTHROUGH_OUTSI
100
AcDbVertex
100
AcDb2dVertex
 10
32588.17369869824
 20
-827.3092657103628
 30
0.0
  0
VERTEX
  5
CF
330
64
100
AcDbEntity
  8
4_ANYTOOL_CUTTHROUGH_OUTSI
100
AcDbVertex
100
AcDb2dVertex
 10
32582.17369869824
 20
-827.3092657103571
 30
0.0
  0
VERTEX
  5
D0
330
64
100
AcDbEntity
  8
4_ANYTOOL_CUTTHROUGH_OUTSI
100
AcDbVertex
100
AcDb2dVertex
 10
32582.17369869824
 20
-838.8092657103598
 30
0.0
  0
VERTEX
  5
D1
330
64
100
AcDbEntity
  8
4_ANYTOOL_CUTTHROUGH_OUTSI
100
AcDbVertex
100
AcDb2dVertex
 10
32588.17369869824
 20
-838.8092657103598
 30
0.0
  0
VERTEX
  5
D2
330
64
100
AcDbEntity
  8
4_ANYTOOL_CUTTHROUGH_OUTSI
100
AcDbVertex
100
AcDb2dVertex
 10
32588.17369869824
 20
-851.3092657103625
 30
0.0
  0
VERTEX
  5
D3
330
64
100
AcDbEntity
  8
4_ANYTOOL_CUTTHROUGH_OUTSI
100
AcDbVertex
100
AcDb2dVertex
 10
32564.17369869823
 20
-851.3092657103609
 30
0.0
  0
VERTEX
  5
D4
330
64
100
AcDbEntity
  8
4_ANYTOOL_CUTTHROUGH_OUTSI
100
AcDbVertex
100
AcDb2dVertex
 10
32564.17369869823
 20
-868.8092657103591
 30
0.0
  0
VERTEX
  5
D5
330
64
100
AcDbEntity
  8
4_ANYTOOL_CUTTHROUGH_OUTSI
100
AcDbVertex
100
AcDb2dVertex
 10
32588.17369869824
 20
-868.8092657103589
 30
0.0
  0
VERTEX
  5
D6
330
64
100
AcDbEntity
  8
4_ANYTOOL_CUTTHROUGH_OUTSI
100
AcDbVertex
100
AcDb2dVertex
 10
32588.17369869823
 20
-881.3092657103618
 30
0.0
  0
VERTEX
  5
D7
330
64
100
AcDbEntity
  8
4_ANYTOOL_CUTTHROUGH_OUTSI
100
AcDbVertex
100
AcDb2dVertex
 10
32582.17369869823
 20
-881.3092657103562
 30
0.0
  0
VERTEX
  5
D8
330
64
100
AcDbEntity
  8
4_ANYTOOL_CUTTHROUGH_OUTSI
100
AcDbVertex
100
AcDb2dVertex
 10
32582.17369869823
 20
-892.8092657103589
 30
0.0
  0
VERTEX
  5
D9
330
64
100
AcDbEntity
  8
4_ANYTOOL_CUTTHROUGH_OUTSI
100
AcDbVertex
100
AcDb2dVertex
 10
32588.17369869823
 20
-892.8092657103589
 30
0.0
  0
VERTEX
  5
DA
330
64
100
AcDbEntity
  8
4_ANYTOOL_CUTTHROUGH_OUTSI
100
AcDbVertex
100
AcDb2dVertex
 10
32588.17369869823
 20
-905.3092657103625
 30
0.0
  0
VERTEX
  5
DB
330
64
100
AcDbEntity
  8
4_ANYTOOL_CUTTHROUGH_OUTSI
100
AcDbVertex
100
AcDb2dVertex
 10
32564.17369869823
 20
-905.3092657103566
 30
0.0
  0
VERTEX
  5
DC
330
64
100
AcDbEntity
  8
4_ANYTOOL_CUTTHROUGH_OUTSI
100
AcDbVertex
100
AcDb2dVertex
 10
32564.17369869839
 20
-1414.809265710363
 30
0.0
  0
VERTEX
  5
DD
330
64
100
AcDbEntity
  8
4_ANYTOOL_CUTTHROUGH_OUTSI
100
AcDbVertex
100
AcDb2dVertex
 10
32588.17369869839
 20
-1414.809265710352
 30
0.0
  0
VERTEX
  5
DE
330
64
100
AcDbEntity
  8
4_ANYTOOL_CUTTHROUGH_OUTSI
100
AcDbVertex
100
AcDb2dVertex
 10
32588.17369869839
 20
-1427.309265710349
 30
0.0
  0
VERTEX
  5
DF
330
64
100
AcDbEntity
  8
4_ANYTOOL_CUTTHROUGH_OUTSI
100
AcDbVertex
100
AcDb2dVertex
 10
32582.17369869839
 20
-1427.30926571035
 30
0.0
  0
VERTEX
  5
E0
330
64
100
AcDbEntity
  8
4_ANYTOOL_CUTTHROUGH_OUTSI
100
AcDbVertex
100
AcDb2dVertex
 10
32582.17369869839
 20
-1438.809265710348
 30
0.0
  0
VERTEX
  5
E1
330
64
100
AcDbEntity
  8
4_ANYTOOL_CUTTHROUGH_OUTSI
100
AcDbVertex
100
AcDb2dVertex
 10
32588.17369869839
 20
-1438.809265710354
 30
0.0
  0
VERTEX
  5
E2
330
64
100
AcDbEntity
  8
4_ANYTOOL_CUTTHROUGH_OUTSI
100
AcDbVertex
100
AcDb2dVertex
 10
32588.17369869839
 20
-1451.309265710351
 30
0.0
  0
VERTEX
  5
E3
330
64
100
AcDbEntity
  8
4_ANYTOOL_CUTTHROUGH_OUTSI
100
AcDbVertex
100
AcDb2dVertex
 10
32564.17369869832
 20
-1451.309265710354
 30
0.0
  0
VERTEX
  5
E4
330
64
100
AcDbEntity
  8
4_ANYTOOL_CUTTHROUGH_OUTSI
100
AcDbVertex
100
AcDb2dVertex
 10
32564.17369869832
 20
-1468.809265710352
 30
0.0
  0
VERTEX
  5
E5
330
64
100
AcDbEntity
  8
4_ANYTOOL_CUTTHROUGH_OUTSI
100
AcDbVertex
100
AcDb2dVertex
 10
32588.17369869839
 20
-1468.80926571035
 30
0.0
  0
VERTEX
  5
E6
330
64
100
AcDbEntity
  8
4_ANYTOOL_CUTTHROUGH_OUTSI
100
AcDbVertex
100
AcDb2dVertex
 10
32588.17369869839
 20
-1481.309265710348
 30
0.0
  0
VERTEX
  5
E7
330
64
100
AcDbEntity
  8
4_ANYTOOL_CUTTHROUGH_OUTSI
100
AcDbVertex
100
AcDb2dVertex
 10
32582.17369869839
 20
-1481.309265710348
 30
0.0
  0
VERTEX
  5
E8
330
64
100
AcDbEntity
  8
4_ANYTOOL_CUTTHROUGH_OUTSI
100
AcDbVertex
100
AcDb2dVertex
 10
32582.17369869839
 20
-1492.809265710346
 30
0.0
  0
VERTEX
  5
E9
330
64
100
AcDbEntity
  8
4_ANYTOOL_CUTTHROUGH_OUTSI
100
AcDbVertex
100
AcDb2dVertex
 10
32588.17369869839
 20
-1492.80926571035
 30
0.0
  0
VERTEX
  5
EA
330
64
100
AcDbEntity
  8
4_ANYTOOL_CUTTHROUGH_OUTSI
100
AcDbVertex
100
AcDb2dVertex
 10
32588.17369869839
 20
-1505.309265710348
 30
0.0
  0
VERTEX
  5
EB
330
64
100
AcDbEntity
  8
4_ANYTOOL_CUTTHROUGH_OUTSI
100
AcDbVertex
100
AcDb2dVertex
 10
32564.1736986984
 20
-1505.309265710357
 30
0.0
  0
VERTEX
  5
EC
330
64
100
AcDbEntity
  8
4_ANYTOOL_CUTTHROUGH_OUTSI
100
AcDbVertex
100
AcDb2dVertex
 10
32564.17369869831
 20
-2014.809265710351
 30
0.0
  0
VERTEX
  5
ED
330
64
100
AcDbEntity
  8
4_ANYTOOL_CUTTHROUGH_OUTSI
100
AcDbVertex
100
AcDb2dVertex
 10
32588.1736986983
 20
-2014.809265710347
 30
0.0
  0
VERTEX
  5
EE
330
64
100
AcDbEntity
  8
4_ANYTOOL_CUTTHROUGH_OUTSI
100
AcDbVertex
100
AcDb2dVertex
 10
32588.1736986983
 20
-2027.30926571035
 30
0.0
  0
VERTEX
  5
EF
330
64
100
AcDbEntity
  8
4_ANYTOOL_CUTTHROUGH_OUTSI
100
AcDbVertex
100
AcDb2dVertex
 10
32582.17369869831
 20
-2027.309265710352
 30
0.0
  0
VERTEX
  5
F0
330
64
100
AcDbEntity
  8
4_ANYTOOL_CUTTHROUGH_OUTSI
100
AcDbVertex
100
AcDb2dVertex
 10
32582.17369869832
 20
-2038.809265710348
 30
0.0
  0
VERTEX
  5
F1
330
64
100
AcDbEntity
  8
4_ANYTOOL_CUTTHROUGH_OUTSI
100
AcDbVertex
100
AcDb2dVertex
 10
32588.1736986983
 20
-2038.809265710348
 30
0.0
  0
VERTEX
  5
F2
330
64
100
AcDbEntity
  8
4_ANYTOOL_CUTTHROUGH_OUTSI
100
AcDbVertex
100
AcDb2dVertex
 10
32588.17369869832
 20
-2051.30926571035
 30
0.0
  0
VERTEX
  5
F3
330
64
100
AcDbEntity
  8
4_ANYTOOL_CUTTHROUGH_OUTSI
100
AcDbVertex
100
AcDb2dVertex
 10
32564.17369869824
 20
-2051.309265710352
 30
0.0
  0
VERTEX
  5
F4
330
64
100
AcDbEntity
  8
4_ANYTOOL_CUTTHROUGH_OUTSI
100
AcDbVertex
100
AcDb2dVertex
 10
32564.17369869824
 20
-2068.809265710348
 30
0.0
  0
VERTEX
  5
F5
330
64
100
AcDbEntity
  8
4_ANYTOOL_CUTTHROUGH_OUTSI
100
AcDbVertex
100
AcDb2dVertex
 10
32588.17369869832
 20
-2068.809265710346
 30
0.0
  0
VERTEX
  5
F6
330
64
100
AcDbEntity
  8
4_ANYTOOL_CUTTHROUGH_OUTSI
100
AcDbVertex
100
AcDb2dVertex
 10
32588.1736986983
 20
-2081.30926571035
 30
0.0
  0
VERTEX
  5
F7
330
64
100
AcDbEntity
  8
4_ANYTOOL_CUTTHROUGH_OUTSI
100
AcDbVertex
100
AcDb2dVertex
 10
32582.17369869829
 20
-2081.30926571035
 30
0.0
  0
VERTEX
  5
F8
330
64
100
AcDbEntity
  8
4_ANYTOOL_CUTTHROUGH_OUTSI
100
AcDbVertex
100
AcDb2dVertex
 10
32582.1736986983
 20
-2092.809265710348
 30
0.0
  0
VERTEX
  5
F9
330
64
100
AcDbEntity
  8
4_ANYTOOL_CUTTHROUGH_OUTSI
100
AcDbVertex
100
AcDb2dVertex
 10
32588.1736986983
 20
-2092.809265710346
 30
0.0
  0
VERTEX
  5
FA
330
64
100
AcDbEntity
  8
4_ANYTOOL_CUTTHROUGH_OUTSI
100
AcDbVertex
100
AcDb2dVertex
 10
32588.17369869832
 20
-2105.30926571035
 30
0.0
  0
VERTEX
  5
FB
330
64
100
AcDbEntity
  8
4_ANYTOOL_CUTTHROUGH_OUTSI
100
AcDbVertex
100
AcDb2dVertex
 10
32564.17369869831
 20
-2105.309265710353
 30
0.0
  0
VERTEX
  5
FC
330
64
100
AcDbEntity
  8
4_ANYTOOL_CUTTHROUGH_OUTSI
100
AcDbVertex
100
AcDb2dVertex
 10
32564.17369869831
 20
-2159.809265710352
 30
0.0
  0
VERTEX
  5
FD
330
64
100
AcDbEntity
  8
4_ANYTOOL_CUTTHROUGH_OUTSI
100
AcDbVertex
100
AcDb2dVertex
 10
32588.1736986983
 20
-2159.809265710349
 30
0.0
  0
VERTEX
  5
FE
330
64
100
AcDbEntity
  8
4_ANYTOOL_CUTTHROUGH_OUTSI
100
AcDbVertex
100
AcDb2dVertex
 10
32588.17369869829
 20
-2172.309265710352
 30
0.0
  0
VERTEX
  5
FF
330
64
100
AcDbEntity
  8
4_ANYTOOL_CUTTHROUGH_OUTSI
100
AcDbVertex
100
AcDb2dVertex
 10
32582.17369869829
 20
-2172.309265710353
 30
0.0
  0
VERTEX
  5
100
330
64
100
AcDbEntity
  8
4_ANYTOOL_CUTTHROUGH_OUTSI
100
AcDbVertex
100
AcDb2dVertex
 10
32582.17369869824
 20
-2247.809265710341
 30
0.0
  0
VERTEX
  5
101
330
64
100
AcDbEntity
  8
4_ANYTOOL_CUTTHROUGH_OUTSI
100
AcDbVertex
100
AcDb2dVertex
 10
32588.17369869824
 20
-2247.809265710341
 30
0.0
  0
VERTEX
  5
102
330
64
100
AcDbEntity
  8
4_ANYTOOL_CUTTHROUGH_OUTSI
100
AcDbVertex
100
AcDb2dVertex
 10
32588.17369869824
 20
-2260.309265710343
 30
0.0
  0
VERTEX
  5
103
330
64
100
AcDbEntity
  8
4_ANYTOOL_CUTTHROUGH_OUTSI
100
AcDbVertex
100
AcDb2dVertex
 10
32564.17369869824
 20
-2260.309265710353
 30
0.0
  0
VERTEX
  5
104
330
64
100
AcDbEntity
  8
4_ANYTOOL_CUTTHROUGH_OUTSI
100
AcDbVertex
100
AcDb2dVertex
 10
32564.17369869824
 20
-2359.80926571038
 30
0.0
  0
VERTEX
  5
105
330
64
100
AcDbEntity
  8
4_ANYTOOL_CUTTHROUGH_OUTSI
100
AcDbVertex
100
AcDb2dVertex
 10
32646.67369869829
 20
-2359.809265710091
 30
0.0
  0
VERTEX
  5
106
330
64
100
AcDbEntity
  8
4_ANYTOOL_CUTTHROUGH_OUTSI
100
AcDbVertex
100
AcDb2dVertex
 10
32646.67369869829
 20
-2335.809265710275
 30
0.0
  0
VERTEX
  5
107
330
64
100
AcDbEntity
  8
4_ANYTOOL_CUTTHROUGH_OUTSI
100
AcDbVertex
100
AcDb2dVertex
 10
32659.17369869828
 20
-2335.809265710271
 30
0.0
  0
VERTEX
  5
108
330
64
100
AcDbEntity
  8
4_ANYTOOL_CUTTHROUGH_OUTSI
100
AcDbVertex
100
AcDb2dVertex
 10
32659.17369869778
 20
-2341.809265710252
 30
0.0
  0
VERTEX
  5
109
330
64
100
AcDbEntity
  8
4_ANYTOOL_CUTTHROUGH_OUTSI
100
AcDbVertex
100
AcDb2dVertex
 10
32688.9236986978
 20
-2341.809265710234
 30
0.0
  0
VERTEX
  5
10A
330
64
100
AcDbEntity
  8
4_ANYTOOL_CUTTHROUGH_OUTSI
100
AcDbVertex
100
AcDb2dVertex
 10
32688.9236986978
 20
-2323.809265710234
 30
0.0
  0
VERTEX
  5
10B
330
64
100
AcDbEntity
  8
4_ANYTOOL_CUTTHROUGH_OUTSI
100
AcDbVertex
100
AcDb2dVertex
 10
32682.9236986978
 20
-2323.809265710234
 30
0.0
  0
VERTEX
  5
10C
330
64
100
AcDbEntity
  8
4_ANYTOOL_CUTTHROUGH_OUTSI
100
AcDbVertex
100
AcDb2dVertex
 10
32682.9236986978
 20
-2311.809265710234
 30
0.0
  0
VERTEX
  5
10D
330
64
100
AcDbEntity
  8
4_ANYTOOL_CUTTHROUGH_OUTSI
100
AcDbVertex
100
AcDb2dVertex
 10
32730.9236986978
 20
-2311.809265710234
 30
0.0
  0
VERTEX
  5
10E
330
64
100
AcDbEntity
  8
4_ANYTOOL_CUTTHROUGH_OUTSI
100
AcDbVertex
100
AcDb2dVertex
 10
32730.9236986978
 20
-2323.809265710234
 30
0.0
  0
VERTEX
  5
10F
330
64
100
AcDbEntity
  8
4_ANYTOOL_CUTTHROUGH_OUTSI
100
AcDbVertex
100
AcDb2dVertex
 10
32724.9236986978
 20
-2323.809265710234
 30
0.0
  0
VERTEX
  5
110
330
64
100
AcDbEntity
  8
4_ANYTOOL_CUTTHROUGH_OUTSI
100
AcDbVertex
100
AcDb2dVertex
 10
32724.9236986978
 20
-2341.809265710234
 30
0.0
  0
SEQEND
  5
111
330
64
100
AcDbEntity
  8
4_ANYTOOL_CUTTHROUGH_OUTSI
  0
POLYLINE
  5
112
330
1F
100
AcDbEntity
  8
4_ANYTOOL_CUTTHROUGH_OUTSI
100
AcDb2dPolyline
 66
     1
 10
0.0
 20
0.0
 30
0.0
 70
     1
  0
VERTEX
  5
113
330
112
100
AcDbEntity
  8
4_ANYTOOL_CUTTHROUGH_OUTSI
100
AcDbVertex
100
AcDb2dVertex
 10
32458.67369869884
 20
21.69073428908723
 30
0.0
  0
VERTEX
  5
114
330
112
100
AcDbEntity
  8
4_ANYTOOL_CUTTHROUGH_OUTSI
100
AcDbVertex
100
AcDb2dVertex
 10
32458.67369869884
 20
15.69073428909996
 30
0.0
  0
VERTEX
  5
115
330
112
100
AcDbEntity
  8
4_ANYTOOL_CUTTHROUGH_OUTSI
100
AcDbVertex
100
AcDb2dVertex
 10
32471.17369869885
 20
15.69073428909996
 30
0.0
  0
VERTEX
  5
116
330
112
100
AcDbEntity
  8
4_ANYTOOL_CUTTHROUGH_OUTSI
100
AcDbVertex
100
AcDb2dVertex
 10
32471.17369869885
 20
39.69073428895899
 30
0.0
  0
VERTEX
  5
117
330
112
100
AcDbEntity
  8
4_ANYTOOL_CUTTHROUGH_OUTSI
100
AcDbVertex
100
AcDb2dVertex
 10
32553.67369869822
 20
39.69073429162654
 30
0.0
  0
VERTEX
  5
118
330
112
100
AcDbEntity
  8
4_ANYTOOL_CUTTHROUGH_OUTSI
100
AcDbVertex
100
AcDb2dVertex
 10
32553.6736986983
 20
-214.809265710343
 30
0.0
  0
VERTEX
  5
119
330
112
100
AcDbEntity
  8
4_ANYTOOL_CUTTHROUGH_OUTSI
100
AcDbVertex
100
AcDb2dVertex
 10
32529.67369869831
 20
-214.8092657103559
 30
0.0
  0
VERTEX
  5
11A
330
112
100
AcDbEntity
  8
4_ANYTOOL_CUTTHROUGH_OUTSI
100
AcDbVertex
100
AcDb2dVertex
 10
32529.67369869831
 20
-227.3092657103587
 30
0.0
  0
VERTEX
  5
11B
330
112
100
AcDbEntity
  8
4_ANYTOOL_CUTTHROUGH_OUTSI
100
AcDbVertex
100
AcDb2dVertex
 10
32535.67369869831
 20
-227.3092657103525
 30
0.0
  0
VERTEX
  5
11C
330
112
100
AcDbEntity
  8
4_ANYTOOL_CUTTHROUGH_OUTSI
100
AcDbVertex
100
AcDb2dVertex
 10
32535.67369869831
 20
-238.8092657103557
 30
0.0
  0
VERTEX
  5
11D
330
112
100
AcDbEntity
  8
4_ANYTOOL_CUTTHROUGH_OUTSI
100
AcDbVertex
100
AcDb2dVertex
 10
32529.67369869831
 20
-238.8092657103557
 30
0.0
  0
VERTEX
  5
11E
330
112
100
AcDbEntity
  8
4_ANYTOOL_CUTTHROUGH_OUTSI
100
AcDbVertex
100
AcDb2dVertex
 10
32529.67369869831
 20
-251.3092657103596
 30
0.0
  0
VERTEX
  5
11F
330
112
100
AcDbEntity
  8
4_ANYTOOL_CUTTHROUGH_OUTSI
100
AcDbVertex
100
AcDb2dVertex
 10
32553.67369869832
 20
-251.3092657102586
 30
0.0
  0
VERTEX
  5
120
330
112
100
AcDbEntity
  8
4_ANYTOOL_CUTTHROUGH_OUTSI
100
AcDbVertex
100
AcDb2dVertex
 10
32553.67369869832
 20
-268.8092657103521
 30
0.0
  0
VERTEX
  5
121
330
112
100
AcDbEntity
  8
4_ANYTOOL_CUTTHROUGH_OUTSI
100
AcDbVertex
100
AcDb2dVertex
 10
32529.67369869831
 20
-268.8092657103539
 30
0.0
  0
VERTEX
  5
122
330
112
100
AcDbEntity
  8
4_ANYTOOL_CUTTHROUGH_OUTSI
100
AcDbVertex
100
AcDb2dVertex
 10
32529.67369869832
 20
-281.3092657103575
 30
0.0
  0
VERTEX
  5
123
330
112
100
AcDbEntity
  8
4_ANYTOOL_CUTTHROUGH_OUTSI
100
AcDbVertex
100
AcDb2dVertex
 10
32535.67369869832
 20
-281.3092657103521
 30
0.0
  0
VERTEX
  5
124
330
112
100
AcDbEntity
  8
4_ANYTOOL_CUTTHROUGH_OUTSI
100
AcDbVertex
100
AcDb2dVertex
 10
32535.67369869832
 20
-292.8092657103548
 30
0.0
  0
VERTEX
  5
125
330
112
100
AcDbEntity
  8
4_ANYTOOL_CUTTHROUGH_OUTSI
100
AcDbVertex
100
AcDb2dVertex
 10
32529.67369869832
 20
-292.8092657103548
 30
0.0
  0
VERTEX
  5
126
330
112
100
AcDbEntity
  8
4_ANYTOOL_CUTTHROUGH_OUTSI
100
AcDbVertex
100
AcDb2dVertex
 10
32529.67369869832
 20
-305.3092657103577
 30
0.0
  0
VERTEX
  5
127
330
112
100
AcDbEntity
  8
4_ANYTOOL_CUTTHROUGH_OUTSI
100
AcDbVertex
100
AcDb2dVertex
 10
32553.67369869832
 20
-305.3092657103407
 30
0.0
  0
VERTEX
  5
128
330
112
100
AcDbEntity
  8
4_ANYTOOL_CUTTHROUGH_OUTSI
100
AcDbVertex
100
AcDb2dVertex
 10
32553.67369869843
 20
-814.8092657103539
 30
0.0
  0
VERTEX
  5
129
330
112
100
AcDbEntity
  8
4_ANYTOOL_CUTTHROUGH_OUTSI
100
AcDbVertex
100
AcDb2dVertex
 10
32529.67369869843
 20
-814.8092657103541
 30
0.0
  0
VERTEX
  5
12A
330
112
100
AcDbEntity
  8
4_ANYTOOL_CUTTHROUGH_OUTSI
100
AcDbVertex
100
AcDb2dVertex
 10
32529.67369869843
 20
-827.309265710358
 30
0.0
  0
VERTEX
  5
12B
330
112
100
AcDbEntity
  8
4_ANYTOOL_CUTTHROUGH_OUTSI
100
AcDbVertex
100
AcDb2dVertex
 10
32535.67369869843
 20
-827.3092657103525
 30
0.0
  0
VERTEX
  5
12C
330
112
100
AcDbEntity
  8
4_ANYTOOL_CUTTHROUGH_OUTSI
100
AcDbVertex
100
AcDb2dVertex
 10
32535.67369869843
 20
-838.809265710355
 30
0.0
  0
VERTEX
  5
12D
330
112
100
AcDbEntity
  8
4_ANYTOOL_CUTTHROUGH_OUTSI
100
AcDbVertex
100
AcDb2dVertex
 10
32529.67369869843
 20
-838.809265710355
 30
0.0
  0
VERTEX
  5
12E
330
112
100
AcDbEntity
  8
4_ANYTOOL_CUTTHROUGH_OUTSI
100
AcDbVertex
100
AcDb2dVertex
 10
32529.67369869843
 20
-851.3092657103577
 30
0.0
  0
VERTEX
  5
12F
330
112
100
AcDbEntity
  8
4_ANYTOOL_CUTTHROUGH_OUTSI
100
AcDbVertex
100
AcDb2dVertex
 10
32553.67369869844
 20
-851.3092657103557
 30
0.0
  0
VERTEX
  5
130
330
112
100
AcDbEntity
  8
4_ANYTOOL_CUTTHROUGH_OUTSI
100
AcDbVertex
100
AcDb2dVertex
 10
32553.67369869844
 20
-868.8092657103539
 30
0.0
  0
VERTEX
  5
131
330
112
100
AcDbEntity
  8
4_ANYTOOL_CUTTHROUGH_OUTSI
100
AcDbVertex
100
AcDb2dVertex
 10
32529.67369869843
 20
-868.8092657103543
 30
0.0
  0
VERTEX
  5
132
330
112
100
AcDbEntity
  8
4_ANYTOOL_CUTTHROUGH_OUTSI
100
AcDbVertex
100
AcDb2dVertex
 10
32529.67369869844
 20
-881.3092657103571
 30
0.0
  0
VERTEX
  5
133
330
112
100
AcDbEntity
  8
4_ANYTOOL_CUTTHROUGH_OUTSI
100
AcDbVertex
100
AcDb2dVertex
 10
32535.67369869844
 20
-881.3092657103516
 30
0.0
  0
VERTEX
  5
134
330
112
100
AcDbEntity
  8
4_ANYTOOL_CUTTHROUGH_OUTSI
100
AcDbVertex
100
AcDb2dVertex
 10
32535.67369869844
 20
-892.8092657103541
 30
0.0
  0
VERTEX
  5
135
330
112
100
AcDbEntity
  8
4_ANYTOOL_CUTTHROUGH_OUTSI
100
AcDbVertex
100
AcDb2dVertex
 10
32529.67369869844
 20
-892.8092657103541
 30
0.0
  0
VERTEX
  5
136
330
112
100
AcDbEntity
  8
4_ANYTOOL_CUTTHROUGH_OUTSI
100
AcDbVertex
100
AcDb2dVertex
 10
32529.67369869844
 20
-905.3092657103575
 30
0.0
  0
VERTEX
  5
137
330
112
100
AcDbEntity
  8
4_ANYTOOL_CUTTHROUGH_OUTSI
100
AcDbVertex
100
AcDb2dVertex
 10
32553.67369869844
 20
-905.3092657103512
 30
0.0
  0
VERTEX
  5
138
330
112
100
AcDbEntity
  8
4_ANYTOOL_CUTTHROUGH_OUTSI
100
AcDbVertex
100
AcDb2dVertex
 10
32553.6736986983
 20
-1414.809265710358
 30
0.0
  0
VERTEX
  5
139
330
112
100
AcDbEntity
  8
4_ANYTOOL_CUTTHROUGH_OUTSI
100
AcDbVertex
100
AcDb2dVertex
 10
32529.67369869829
 20
-1414.809265710347
 30
0.0
  0
VERTEX
  5
13A
330
112
100
AcDbEntity
  8
4_ANYTOOL_CUTTHROUGH_OUTSI
100
AcDbVertex
100
AcDb2dVertex
 10
32529.67369869829
 20
-1427.309265710344
 30
0.0
  0
VERTEX
  5
13B
330
112
100
AcDbEntity
  8
4_ANYTOOL_CUTTHROUGH_OUTSI
100
AcDbVertex
100
AcDb2dVertex
 10
32535.67369869829
 20
-1427.309265710345
 30
0.0
  0
VERTEX
  5
13C
330
112
100
AcDbEntity
  8
4_ANYTOOL_CUTTHROUGH_OUTSI
100
AcDbVertex
100
AcDb2dVertex
 10
32535.67369869829
 20
-1438.809265710343
 30
0.0
  0
VERTEX
  5
13D
330
112
100
AcDbEntity
  8
4_ANYTOOL_CUTTHROUGH_OUTSI
100
AcDbVertex
100
AcDb2dVertex
 10
32529.67369869829
 20
-1438.809265710349
 30
0.0
  0
VERTEX
  5
13E
330
112
100
AcDbEntity
  8
4_ANYTOOL_CUTTHROUGH_OUTSI
100
AcDbVertex
100
AcDb2dVertex
 10
32529.67369869829
 20
-1451.309265710346
 30
0.0
  0
VERTEX
  5
13F
330
112
100
AcDbEntity
  8
4_ANYTOOL_CUTTHROUGH_OUTSI
100
AcDbVertex
100
AcDb2dVertex
 10
32553.67369869837
 20
-1451.309265710348
 30
0.0
  0
VERTEX
  5
140
330
112
100
AcDbEntity
  8
4_ANYTOOL_CUTTHROUGH_OUTSI
100
AcDbVertex
100
AcDb2dVertex
 10
32553.67369869837
 20
-1468.809265710347
 30
0.0
  0
VERTEX
  5
141
330
112
100
AcDbEntity
  8
4_ANYTOOL_CUTTHROUGH_OUTSI
100
AcDbVertex
100
AcDb2dVertex
 10
32529.67369869829
 20
-1468.809265710345
 30
0.0
  0
VERTEX
  5
142
330
112
100
AcDbEntity
  8
4_ANYTOOL_CUTTHROUGH_OUTSI
100
AcDbVertex
100
AcDb2dVertex
 10
32529.67369869829
 20
-1481.309265710343
 30
0.0
  0
VERTEX
  5
143
330
112
100
AcDbEntity
  8
4_ANYTOOL_CUTTHROUGH_OUTSI
100
AcDbVertex
100
AcDb2dVertex
 10
32535.67369869829
 20
-1481.309265710343
 30
0.0
  0
VERTEX
  5
144
330
112
100
AcDbEntity
  8
4_ANYTOOL_CUTTHROUGH_OUTSI
100
AcDbVertex
100
AcDb2dVertex
 10
32535.67369869829
 20
-1492.809265710341
 30
0.0
  0
VERTEX
  5
145
330
112
100
AcDbEntity
  8
4_ANYTOOL_CUTTHROUGH_OUTSI
100
AcDbVertex
100
AcDb2dVertex
 10
32529.67369869829
 20
-1492.809265710345
 30
0.0
  0
VERTEX
  5
146
330
112
100
AcDbEntity
  8
4_ANYTOOL_CUTTHROUGH_OUTSI
100
AcDbVertex
100
AcDb2dVertex
 10
32529.67369869829
 20
-1505.309265710343
 30
0.0
  0
VERTEX
  5
147
330
112
100
AcDbEntity
  8
4_ANYTOOL_CUTTHROUGH_OUTSI
100
AcDbVertex
100
AcDb2dVertex
 10
32553.67369869828
 20
-1505.309265710352
 30
0.0
  0
VERTEX
  5
148
330
112
100
AcDbEntity
  8
4_ANYTOOL_CUTTHROUGH_OUTSI
100
AcDbVertex
100
AcDb2dVertex
 10
32553.67369869838
 20
-2014.809265710346
 30
0.0
  0
VERTEX
  5
149
330
112
100
AcDbEntity
  8
4_ANYTOOL_CUTTHROUGH_OUTSI
100
AcDbVertex
100
AcDb2dVertex
 10
32529.67369869839
 20
-2014.809265710342
 30
0.0
  0
VERTEX
  5
14A
330
112
100
AcDbEntity
  8
4_ANYTOOL_CUTTHROUGH_OUTSI
100
AcDbVertex
100
AcDb2dVertex
 10
32529.67369869839
 20
-2027.309265710345
 30
0.0
  0
VERTEX
  5
14B
330
112
100
AcDbEntity
  8
4_ANYTOOL_CUTTHROUGH_OUTSI
100
AcDbVertex
100
AcDb2dVertex
 10
32535.67369869839
 20
-2027.309265710346
 30
0.0
  0
VERTEX
  5
14C
330
112
100
AcDbEntity
  8
4_ANYTOOL_CUTTHROUGH_OUTSI
100
AcDbVertex
100
AcDb2dVertex
 10
32535.67369869837
 20
-2038.809265710343
 30
0.0
  0
VERTEX
  5
14D
330
112
100
AcDbEntity
  8
4_ANYTOOL_CUTTHROUGH_OUTSI
100
AcDbVertex
100
AcDb2dVertex
 10
32529.67369869839
 20
-2038.809265710343
 30
0.0
  0
VERTEX
  5
14E
330
112
100
AcDbEntity
  8
4_ANYTOOL_CUTTHROUGH_OUTSI
100
AcDbVertex
100
AcDb2dVertex
 10
32529.67369869838
 20
-2051.309265710345
 30
0.0
  0
VERTEX
  5
14F
330
112
100
AcDbEntity
  8
4_ANYTOOL_CUTTHROUGH_OUTSI
100
AcDbVertex
100
AcDb2dVertex
 10
32553.67369869846
 20
-2051.309265710347
 30
0.0
  0
VERTEX
  5
150
330
112
100
AcDbEntity
  8
4_ANYTOOL_CUTTHROUGH_OUTSI
100
AcDbVertex
100
AcDb2dVertex
 10
32553.67369869846
 20
-2068.809265710343
 30
0.0
  0
VERTEX
  5
151
330
112
100
AcDbEntity
  8
4_ANYTOOL_CUTTHROUGH_OUTSI
100
AcDbVertex
100
AcDb2dVertex
 10
32529.67369869838
 20
-2068.809265710341
 30
0.0
  0
VERTEX
  5
152
330
112
100
AcDbEntity
  8
4_ANYTOOL_CUTTHROUGH_OUTSI
100
AcDbVertex
100
AcDb2dVertex
 10
32529.67369869839
 20
-2081.309265710345
 30
0.0
  0
VERTEX
  5
153
330
112
100
AcDbEntity
  8
4_ANYTOOL_CUTTHROUGH_OUTSI
100
AcDbVertex
100
AcDb2dVertex
 10
32535.6736986984
 20
-2081.309265710345
 30
0.0
  0
VERTEX
  5
154
330
112
100
AcDbEntity
  8
4_ANYTOOL_CUTTHROUGH_OUTSI
100
AcDbVertex
100
AcDb2dVertex
 10
32535.67369869839
 20
-2092.809265710343
 30
0.0
  0
VERTEX
  5
155
330
112
100
AcDbEntity
  8
4_ANYTOOL_CUTTHROUGH_OUTSI
100
AcDbVertex
100
AcDb2dVertex
 10
32529.67369869839
 20
-2092.809265710341
 30
0.0
  0
VERTEX
  5
156
330
112
100
AcDbEntity
  8
4_ANYTOOL_CUTTHROUGH_OUTSI
100
AcDbVertex
100
AcDb2dVertex
 10
32529.67369869838
 20
-2105.309265710345
 30
0.0
  0
VERTEX
  5
157
330
112
100
AcDbEntity
  8
4_ANYTOOL_CUTTHROUGH_OUTSI
100
AcDbVertex
100
AcDb2dVertex
 10
32553.67369869838
 20
-2105.309265710348
 30
0.0
  0
VERTEX
  5
158
330
112
100
AcDbEntity
  8
4_ANYTOOL_CUTTHROUGH_OUTSI
100
AcDbVertex
100
AcDb2dVertex
 10
32553.67369869839
 20
-2159.809265710347
 30
0.0
  0
VERTEX
  5
159
330
112
100
AcDbEntity
  8
4_ANYTOOL_CUTTHROUGH_OUTSI
100
AcDbVertex
100
AcDb2dVertex
 10
32529.67369869839
 20
-2159.809265710344
 30
0.0
  0
VERTEX
  5
15A
330
112
100
AcDbEntity
  8
4_ANYTOOL_CUTTHROUGH_OUTSI
100
AcDbVertex
100
AcDb2dVertex
 10
32529.6736986984
 20
-2172.309265710347
 30
0.0
  0
VERTEX
  5
15B
330
112
100
AcDbEntity
  8
4_ANYTOOL_CUTTHROUGH_OUTSI
100
AcDbVertex
100
AcDb2dVertex
 10
32535.6736986984
 20
-2172.309265710348
 30
0.0
  0
VERTEX
  5
15C
330
112
100
AcDbEntity
  8
4_ANYTOOL_CUTTHROUGH_OUTSI
100
AcDbVertex
100
AcDb2dVertex
 10
32535.67369869846
 20
-2247.809265710336
 30
0.0
  0
VERTEX
  5
15D
330
112
100
AcDbEntity
  8
4_ANYTOOL_CUTTHROUGH_OUTSI
100
AcDbVertex
100
AcDb2dVertex
 10
32529.67369869846
 20
-2247.809265710336
 30
0.0
  0
VERTEX
  5
15E
330
112
100
AcDbEntity
  8
4_ANYTOOL_CUTTHROUGH_OUTSI
100
AcDbVertex
100
AcDb2dVertex
 10
32529.67369869846
 20
-2260.309265710338
 30
0.0
  0
VERTEX
  5
15F
330
112
100
AcDbEntity
  8
4_ANYTOOL_CUTTHROUGH_OUTSI
100
AcDbVertex
100
AcDb2dVertex
 10
32553.67369869846
 20
-2260.309265710348
 30
0.0
  0
VERTEX
  5
160
330
112
100
AcDbEntity
  8
4_ANYTOOL_CUTTHROUGH_OUTSI
100
AcDbVertex
100
AcDb2dVertex
 10
32553.67369869846
 20
-2359.809265710375
 30
0.0
  0
VERTEX
  5
161
330
112
100
AcDbEntity
  8
4_ANYTOOL_CUTTHROUGH_OUTSI
100
AcDbVertex
100
AcDb2dVertex
 10
32471.17369869841
 20
-2359.809265710088
 30
0.0
  0
VERTEX
  5
162
330
112
100
AcDbEntity
  8
4_ANYTOOL_CUTTHROUGH_OUTSI
100
AcDbVertex
100
AcDb2dVertex
 10
32471.17369869841
 20
-2335.809265710272
 30
0.0
  0
VERTEX
  5
163
330
112
100
AcDbEntity
  8
4_ANYTOOL_CUTTHROUGH_OUTSI
100
AcDbVertex
100
AcDb2dVertex
 10
32458.67369869842
 20
-2335.809265710267
 30
0.0
  0
VERTEX
  5
164
330
112
100
AcDbEntity
  8
4_ANYTOOL_CUTTHROUGH_OUTSI
100
AcDbVertex
100
AcDb2dVertex
 10
32458.67369869837
 20
-2341.809265710243
 30
0.0
  0
VERTEX
  5
165
330
112
100
AcDbEntity
  8
4_ANYTOOL_CUTTHROUGH_OUTSI
100
AcDbVertex
100
AcDb2dVertex
 10
32428.92369869886
 20
-2341.809265710213
 30
0.0
  0
VERTEX
  5
166
330
112
100
AcDbEntity
  8
4_ANYTOOL_CUTTHROUGH_OUTSI
100
AcDbVertex
100
AcDb2dVertex
 10
32428.92369869886
 20
-2323.809265710213
 30
0.0
  0
VERTEX
  5
167
330
112
100
AcDbEntity
  8
4_ANYTOOL_CUTTHROUGH_OUTSI
100
AcDbVertex
100
AcDb2dVertex
 10
32434.92369869886
 20
-2323.809265710213
 30
0.0
  0
VERTEX
  5
168
330
112
100
AcDbEntity
  8
4_ANYTOOL_CUTTHROUGH_OUTSI
100
AcDbVertex
100
AcDb2dVertex
 10
32434.92369869886
 20
-2311.809265710213
 30
0.0
  0
VERTEX
  5
169
330
112
100
AcDbEntity
  8
4_ANYTOOL_CUTTHROUGH_OUTSI
100
AcDbVertex
100
AcDb2dVertex
 10
32386.92369869886
 20
-2311.809265710213
 30
0.0
  0
VERTEX
  5
16A
330
112
100
AcDbEntity
  8
4_ANYTOOL_CUTTHROUGH_OUTSI
100
AcDbVertex
100
AcDb2dVertex
 10
32386.92369869886
 20
-2323.809265710213
 30
0.0
  0
VERTEX
  5
16B
330
112
100
AcDbEntity
  8
4_ANYTOOL_CUTTHROUGH_OUTSI
100
AcDbVertex
100
AcDb2dVertex
 10
32392.92369869886
 20
-2323.809265710213
 30
0.0
  0
VERTEX
  5
16C
330
112
100
AcDbEntity
  8
4_ANYTOOL_CUTTHROUGH_OUTSI
100
AcDbVertex
100
AcDb2dVertex
 10
32392.92369869886
 20
-2341.809265710213
 30
0.0
  0
VERTEX
  5
16D
330
112
100
AcDbEntity
  8
4_ANYTOOL_CUTTHROUGH_OUTSI
100
AcDbVertex
100
AcDb2dVertex
 10
32363.17369869837
 20
-2341.809265710234
 30
0.0
  0
VERTEX
  5
16E
330
112
100
AcDbEntity
  8
4_ANYTOOL_CUTTHROUGH_OUTSI
100
AcDbVertex
100
AcDb2dVertex
 10
32363.17369869841
 20
-2335.809265710266
 30
0.0
  0
VERTEX
  5
16F
330
112
100
AcDbEntity
  8
4_ANYTOOL_CUTTHROUGH_OUTSI
100
AcDbVertex
100
AcDb2dVertex
 10
32350.67369869842
 20
-2335.80926571026
 30
0.0
  0
VERTEX
  5
170
330
112
100
AcDbEntity
  8
4_ANYTOOL_CUTTHROUGH_OUTSI
100
AcDbVertex
100
AcDb2dVertex
 10
32350.67369869842
 20
-2359.809265710081
 30
0.0
  0
VERTEX
  5
171
330
112
100
AcDbEntity
  8
4_ANYTOOL_CUTTHROUGH_OUTSI
100
AcDbVertex
100
AcDb2dVertex
 10
32236.17369869845
 20
-2359.809265710314
 30
0.0
  0
VERTEX
  5
172
330
112
100
AcDbEntity
  8
4_ANYTOOL_CUTTHROUGH_OUTSI
100
AcDbVertex
100
AcDb2dVertex
 10
32236.17369869834
 20
-2105.309265710268
 30
0.0
  0
VERTEX
  5
173
330
112
100
AcDbEntity
  8
4_ANYTOOL_CUTTHROUGH_OUTSI
100
AcDbVertex
100
AcDb2dVertex
 10
32292.17369869835
 20
-2105.309265710272
 30
0.0
  0
VERTEX
  5
174
330
112
100
AcDbEntity
  8
4_ANYTOOL_CUTTHROUGH_OUTSI
100
AcDbVertex
100
AcDb2dVertex
 10
32292.17369869835
 20
-2092.809265710315
 30
0.0
  0
VERTEX
  5
175
330
112
100
AcDbEntity
  8
4_ANYTOOL_CUTTHROUGH_OUTSI
100
AcDbVertex
100
AcDb2dVertex
 10
32286.17369869837
 20
-2092.809265710312
 30
0.0
  0
VERTEX
  5
176
330
112
100
AcDbEntity
  8
4_ANYTOOL_CUTTHROUGH_OUTSI
100
AcDbVertex
100
AcDb2dVertex
 10
32286.17369869836
 20
-2081.30926571035
 30
0.0
  0
VERTEX
  5
177
330
112
100
AcDbEntity
  8
4_ANYTOOL_CUTTHROUGH_OUTSI
100
AcDbVertex
100
AcDb2dVertex
 10
32292.17369869836
 20
-2081.309265710365
 30
0.0
  0
VERTEX
  5
178
330
112
100
AcDbEntity
  8
4_ANYTOOL_CUTTHROUGH_OUTSI
100
AcDbVertex
100
AcDb2dVertex
 10
32292.17369869836
 20
-2068.809265710286
 30
0.0
  0
VERTEX
  5
179
330
112
100
AcDbEntity
  8
4_ANYTOOL_CUTTHROUGH_OUTSI
100
AcDbVertex
100
AcDb2dVertex
 10
32268.17369869836
 20
-2068.809265710277
 30
0.0
  0
VERTEX
  5
17A
330
112
100
AcDbEntity
  8
4_ANYTOOL_CUTTHROUGH_OUTSI
100
AcDbVertex
100
AcDb2dVertex
 10
32268.17369869836
 20
-2051.309265710276
 30
0.0
  0
VERTEX
  5
17B
330
112
100
AcDbEntity
  8
4_ANYTOOL_CUTTHROUGH_OUTSI
100
AcDbVertex
100
AcDb2dVertex
 10
32292.17369869836
 20
-2051.309265710278
 30
0.0
  0
VERTEX
  5
17C
330
112
100
AcDbEntity
  8
4_ANYTOOL_CUTTHROUGH_OUTSI
100
AcDbVertex
100
AcDb2dVertex
 10
32292.17369869836
 20
-2038.80926571028
 30
0.0
  0
VERTEX
  5
17D
330
112
100
AcDbEntity
  8
4_ANYTOOL_CUTTHROUGH_OUTSI
100
AcDbVertex
100
AcDb2dVertex
 10
32286.17369869837
 20
-2038.809265710284
 30
0.0
  0
VERTEX
  5
17E
330
112
100
AcDbEntity
  8
4_ANYTOOL_CUTTHROUGH_OUTSI
100
AcDbVertex
100
AcDb2dVertex
 10
32286.17369869836
 20
-2027.309265710286
 30
0.0
  0
VERTEX
  5
17F
330
112
100
AcDbEntity
  8
4_ANYTOOL_CUTTHROUGH_OUTSI
100
AcDbVertex
100
AcDb2dVertex
 10
32292.17369869835
 20
-2027.30926571029
 30
0.0
  0
VERTEX
  5
180
330
112
100
AcDbEntity
  8
4_ANYTOOL_CUTTHROUGH_OUTSI
100
AcDbVertex
100
AcDb2dVertex
 10
32292.17369869835
 20
-2014.809265710292
 30
0.0
  0
VERTEX
  5
181
330
112
100
AcDbEntity
  8
4_ANYTOOL_CUTTHROUGH_OUTSI
100
AcDbVertex
100
AcDb2dVertex
 10
32236.17369869835
 20
-2014.809265710281
 30
0.0
  0
VERTEX
  5
182
330
112
100
AcDbEntity
  8
4_ANYTOOL_CUTTHROUGH_OUTSI
100
AcDbVertex
100
AcDb2dVertex
 10
32236.17369869825
 20
-1505.309265710283
 30
0.0
  0
VERTEX
  5
183
330
112
100
AcDbEntity
  8
4_ANYTOOL_CUTTHROUGH_OUTSI
100
AcDbVertex
100
AcDb2dVertex
 10
32292.17369869826
 20
-1505.309265710275
 30
0.0
  0
VERTEX
  5
184
330
112
100
AcDbEntity
  8
4_ANYTOOL_CUTTHROUGH_OUTSI
100
AcDbVertex
100
AcDb2dVertex
 10
32292.17369869826
 20
-1492.809265710313
 30
0.0
  0
VERTEX
  5
185
330
112
100
AcDbEntity
  8
4_ANYTOOL_CUTTHROUGH_OUTSI
100
AcDbVertex
100
AcDb2dVertex
 10
32286.17369869826
 20
-1492.80926571031
 30
0.0
  0
VERTEX
  5
186
330
112
100
AcDbEntity
  8
4_ANYTOOL_CUTTHROUGH_OUTSI
100
AcDbVertex
100
AcDb2dVertex
 10
32286.17369869826
 20
-1481.309265710354
 30
0.0
  0
VERTEX
  5
187
330
112
100
AcDbEntity
  8
4_ANYTOOL_CUTTHROUGH_OUTSI
100
AcDbVertex
100
AcDb2dVertex
 10
32292.17369869826
 20
-1481.309265710362
 30
0.0
  0
VERTEX
  5
188
330
112
100
AcDbEntity
  8
4_ANYTOOL_CUTTHROUGH_OUTSI
100
AcDbVertex
100
AcDb2dVertex
 10
32292.17369869828
 20
-1468.809265710283
 30
0.0
  0
VERTEX
  5
189
330
112
100
AcDbEntity
  8
4_ANYTOOL_CUTTHROUGH_OUTSI
100
AcDbVertex
100
AcDb2dVertex
 10
32268.17369869826
 20
-1468.809265710277
 30
0.0
  0
VERTEX
  5
18A
330
112
100
AcDbEntity
  8
4_ANYTOOL_CUTTHROUGH_OUTSI
100
AcDbVertex
100
AcDb2dVertex
 10
32268.17369869827
 20
-1451.309265710272
 30
0.0
  0
VERTEX
  5
18B
330
112
100
AcDbEntity
  8
4_ANYTOOL_CUTTHROUGH_OUTSI
100
AcDbVertex
100
AcDb2dVertex
 10
32292.17369869827
 20
-1451.309265710275
 30
0.0
  0
VERTEX
  5
18C
330
112
100
AcDbEntity
  8
4_ANYTOOL_CUTTHROUGH_OUTSI
100
AcDbVertex
100
AcDb2dVertex
 10
32292.17369869827
 20
-1438.809265710278
 30
0.0
  0
VERTEX
  5
18D
330
112
100
AcDbEntity
  8
4_ANYTOOL_CUTTHROUGH_OUTSI
100
AcDbVertex
100
AcDb2dVertex
 10
32286.17369869828
 20
-1438.809265710281
 30
0.0
  0
VERTEX
  5
18E
330
112
100
AcDbEntity
  8
4_ANYTOOL_CUTTHROUGH_OUTSI
100
AcDbVertex
100
AcDb2dVertex
 10
32286.17369869828
 20
-1427.309265710282
 30
0.0
  0
VERTEX
  5
18F
330
112
100
AcDbEntity
  8
4_ANYTOOL_CUTTHROUGH_OUTSI
100
AcDbVertex
100
AcDb2dVertex
 10
32292.17369869827
 20
-1427.309265710284
 30
0.0
  0
VERTEX
  5
190
330
112
100
AcDbEntity
  8
4_ANYTOOL_CUTTHROUGH_OUTSI
100
AcDbVertex
100
AcDb2dVertex
 10
32292.17369869827
 20
-1414.809265710288
 30
0.0
  0
VERTEX
  5
191
330
112
100
AcDbEntity
  8
4_ANYTOOL_CUTTHROUGH_OUTSI
100
AcDbVertex
100
AcDb2dVertex
 10
32236.17369869825
 20
-1414.809265710296
 30
0.0
  0
VERTEX
  5
192
330
112
100
AcDbEntity
  8
4_ANYTOOL_CUTTHROUGH_OUTSI
100
AcDbVertex
100
AcDb2dVertex
 10
32236.1736986984
 20
-905.3092657102611
 30
0.0
  0
VERTEX
  5
193
330
112
100
AcDbEntity
  8
4_ANYTOOL_CUTTHROUGH_OUTSI
100
AcDbVertex
100
AcDb2dVertex
 10
32292.17369869842
 20
-905.3092657102534
 30
0.0
  0
VERTEX
  5
194
330
112
100
AcDbEntity
  8
4_ANYTOOL_CUTTHROUGH_OUTSI
100
AcDbVertex
100
AcDb2dVertex
 10
32292.1736986984
 20
-892.8092657102916
 30
0.0
  0
VERTEX
  5
195
330
112
100
AcDbEntity
  8
4_ANYTOOL_CUTTHROUGH_OUTSI
100
AcDbVertex
100
AcDb2dVertex
 10
32286.1736986984
 20
-892.8092657102968
 30
0.0
  0
VERTEX
  5
196
330
112
100
AcDbEntity
  8
4_ANYTOOL_CUTTHROUGH_OUTSI
100
AcDbVertex
100
AcDb2dVertex
 10
32286.1736986984
 20
-881.3092657103339
 30
0.0
  0
VERTEX
  5
197
330
112
100
AcDbEntity
  8
4_ANYTOOL_CUTTHROUGH_OUTSI
100
AcDbVertex
100
AcDb2dVertex
 10
32292.1736986984
 20
-881.30926571034
 30
0.0
  0
VERTEX
  5
198
330
112
100
AcDbEntity
  8
4_ANYTOOL_CUTTHROUGH_OUTSI
100
AcDbVertex
100
AcDb2dVertex
 10
32292.1736986984
 20
-868.8092657102679
 30
0.0
  0
VERTEX
  5
199
330
112
100
AcDbEntity
  8
4_ANYTOOL_CUTTHROUGH_OUTSI
100
AcDbVertex
100
AcDb2dVertex
 10
32268.17369869834
 20
-868.8092657102625
 30
0.0
  0
VERTEX
  5
19A
330
112
100
AcDbEntity
  8
4_ANYTOOL_CUTTHROUGH_OUTSI
100
AcDbVertex
100
AcDb2dVertex
 10
32268.17369869834
 20
-851.3092657102588
 30
0.0
  0
VERTEX
  5
19B
330
112
100
AcDbEntity
  8
4_ANYTOOL_CUTTHROUGH_OUTSI
100
AcDbVertex
100
AcDb2dVertex
 10
32292.17369869841
 20
-851.3092657102607
 30
0.0
  0
VERTEX
  5
19C
330
112
100
AcDbEntity
  8
4_ANYTOOL_CUTTHROUGH_OUTSI
100
AcDbVertex
100
AcDb2dVertex
 10
32292.1736986984
 20
-838.8092657102625
 30
0.0
  0
VERTEX
  5
19D
330
112
100
AcDbEntity
  8
4_ANYTOOL_CUTTHROUGH_OUTSI
100
AcDbVertex
100
AcDb2dVertex
 10
32286.17369869842
 20
-838.8092657102625
 30
0.0
  0
VERTEX
  5
19E
330
112
100
AcDbEntity
  8
4_ANYTOOL_CUTTHROUGH_OUTSI
100
AcDbVertex
100
AcDb2dVertex
 10
32286.17369869839
 20
-827.3092657102716
 30
0.0
  0
VERTEX
  5
19F
330
112
100
AcDbEntity
  8
4_ANYTOOL_CUTTHROUGH_OUTSI
100
AcDbVertex
100
AcDb2dVertex
 10
32292.1736986984
 20
-827.3092657102718
 30
0.0
  0
VERTEX
  5
1A0
330
112
100
AcDbEntity
  8
4_ANYTOOL_CUTTHROUGH_OUTSI
100
AcDbVertex
100
AcDb2dVertex
 10
32292.17369869839
 20
-814.8092657102736
 30
0.0
  0
VERTEX
  5
1A1
330
112
100
AcDbEntity
  8
4_ANYTOOL_CUTTHROUGH_OUTSI
100
AcDbVertex
100
AcDb2dVertex
 10
32236.17369869844
 20
-814.8092657102757
 30
0.0
  0
VERTEX
  5
1A2
330
112
100
AcDbEntity
  8
4_ANYTOOL_CUTTHROUGH_OUTSI
100
AcDbVertex
100
AcDb2dVertex
 10
32236.17369869829
 20
-305.3092657102611
 30
0.0
  0
VERTEX
  5
1A3
330
112
100
AcDbEntity
  8
4_ANYTOOL_CUTTHROUGH_OUTSI
100
AcDbVertex
100
AcDb2dVertex
 10
32292.17369869829
 20
-305.3092657102543
 30
0.0
  0
VERTEX
  5
1A4
330
112
100
AcDbEntity
  8
4_ANYTOOL_CUTTHROUGH_OUTSI
100
AcDbVertex
100
AcDb2dVertex
 10
32292.17369869828
 20
-292.8092657102916
 30
0.0
  0
VERTEX
  5
1A5
330
112
100
AcDbEntity
  8
4_ANYTOOL_CUTTHROUGH_OUTSI
100
AcDbVertex
100
AcDb2dVertex
 10
32286.17369869829
 20
-292.809265710297
 30
0.0
  0
VERTEX
  5
1A6
330
112
100
AcDbEntity
  8
4_ANYTOOL_CUTTHROUGH_OUTSI
100
AcDbVertex
100
AcDb2dVertex
 10
32286.17369869829
 20
-281.3092657103352
 30
0.0
  0
VERTEX
  5
1A7
330
112
100
AcDbEntity
  8
4_ANYTOOL_CUTTHROUGH_OUTSI
100
AcDbVertex
100
AcDb2dVertex
 10
32292.17369869828
 20
-281.3092657103409
 30
0.0
  0
VERTEX
  5
1A8
330
112
100
AcDbEntity
  8
4_ANYTOOL_CUTTHROUGH_OUTSI
100
AcDbVertex
100
AcDb2dVertex
 10
32292.17369869828
 20
-268.8092657102679
 30
0.0
  0
VERTEX
  5
1A9
330
112
100
AcDbEntity
  8
4_ANYTOOL_CUTTHROUGH_OUTSI
100
AcDbVertex
100
AcDb2dVertex
 10
32268.17369869829
 20
-268.8092657102645
 30
0.0
  0
VERTEX
  5
1AA
330
112
100
AcDbEntity
  8
4_ANYTOOL_CUTTHROUGH_OUTSI
100
AcDbVertex
100
AcDb2dVertex
 10
32268.17369869829
 20
-251.3092657102593
 30
0.0
  0
VERTEX
  5
1AB
330
112
100
AcDbEntity
  8
4_ANYTOOL_CUTTHROUGH_OUTSI
100
AcDbVertex
100
AcDb2dVertex
 10
32292.17369869829
 20
-251.3092657102609
 30
0.0
  0
VERTEX
  5
1AC
330
112
100
AcDbEntity
  8
4_ANYTOOL_CUTTHROUGH_OUTSI
100
AcDbVertex
100
AcDb2dVertex
 10
32292.17369869828
 20
-238.8092657102636
 30
0.0
  0
VERTEX
  5
1AD
330
112
100
AcDbEntity
  8
4_ANYTOOL_CUTTHROUGH_OUTSI
100
AcDbVertex
100
AcDb2dVertex
 10
32286.17369869829
 20
-238.8092657102634
 30
0.0
  0
VERTEX
  5
1AE
330
112
100
AcDbEntity
  8
4_ANYTOOL_CUTTHROUGH_OUTSI
100
AcDbVertex
100
AcDb2dVertex
 10
32286.17369869827
 20
-227.3092657102716
 30
0.0
  0
VERTEX
  5
1AF
330
112
100
AcDbEntity
  8
4_ANYTOOL_CUTTHROUGH_OUTSI
100
AcDbVertex
100
AcDb2dVertex
 10
32292.17369869828
 20
-227.3092657102716
 30
0.0
  0
VERTEX
  5
1B0
330
112
100
AcDbEntity
  8
4_ANYTOOL_CUTTHROUGH_OUTSI
100
AcDbVertex
100
AcDb2dVertex
 10
32292.17369869827
 20
-214.8092657102752
 30
0.0
  0
VERTEX
  5
1B1
330
112
100
AcDbEntity
  8
4_ANYTOOL_CUTTHROUGH_OUTSI
100
AcDbVertex
100
AcDb2dVertex
 10
32236.17369869832
 20
-214.8092657102757
 30
0.0
  0
VERTEX
  5
1B2
330
112
100
AcDbEntity
  8
4_ANYTOOL_CUTTHROUGH_OUTSI
100
AcDbVertex
100
AcDb2dVertex
 10
32236.17369869822
 20
39.69073428961246
 30
0.0
  0
VERTEX
  5
1B3
330
112
100
AcDbEntity
  8
4_ANYTOOL_CUTTHROUGH_OUTSI
100
AcDbVertex
100
AcDb2dVertex
 10
32350.67369869886
 20
39.6907342889408
 30
0.0
  0
VERTEX
  5
1B4
330
112
100
AcDbEntity
  8
4_ANYTOOL_CUTTHROUGH_OUTSI
100
AcDbVertex
100
AcDb2dVertex
 10
32350.67369869885
 20
15.69073428908132
 30
0.0
  0
VERTEX
  5
1B5
330
112
100
AcDbEntity
  8
4_ANYTOOL_CUTTHROUGH_OUTSI
100
AcDbVertex
100
AcDb2dVertex
 10
32363.17369869885
 20
15.69073428908223
 30
0.0
  0
VERTEX
  5
1B6
330
112
100
AcDbEntity
  8
4_ANYTOOL_CUTTHROUGH_OUTSI
100
AcDbVertex
100
AcDb2dVertex
 10
32363.17369869885
 20
21.69073428911497
 30
0.0
  0
VERTEX
  5
1B7
330
112
100
AcDbEntity
  8
4_ANYTOOL_CUTTHROUGH_OUTSI
100
AcDbVertex
100
AcDb2dVertex
 10
32392.92369869938
 20
21.69073428927254
 30
0.0
  0
VERTEX
  5
1B8
330
112
100
AcDbEntity
  8
4_ANYTOOL_CUTTHROUGH_OUTSI
100
AcDbVertex
100
AcDb2dVertex
 10
32392.92369869945
 20
3.690734289272541
 30
0.0
  0
VERTEX
  5
1B9
330
112
100
AcDbEntity
  8
4_ANYTOOL_CUTTHROUGH_OUTSI
100
AcDbVertex
100
AcDb2dVertex
 10
32386.92369869945
 20
3.690734289248439
 30
0.0
  0
VERTEX
  5
1BA
330
112
100
AcDbEntity
  8
4_ANYTOOL_CUTTHROUGH_OUTSI
100
AcDbVertex
100
AcDb2dVertex
 10
32386.9236986995
 20
-8.30926571075156
 30
0.0
  0
VERTEX
  5
1BB
330
112
100
AcDbEntity
  8
4_ANYTOOL_CUTTHROUGH_OUTSI
100
AcDbVertex
100
AcDb2dVertex
 10
32434.9236986995
 20
-8.309265710558975
 30
0.0
  0
VERTEX
  5
1BC
330
112
100
AcDbEntity
  8
4_ANYTOOL_CUTTHROUGH_OUTSI
100
AcDbVertex
100
AcDb2dVertex
 10
32434.92369869945
 20
3.690734289441025
 30
0.0
  0
VERTEX
  5
1BD
330
112
100
AcDbEntity
  8
4_ANYTOOL_CUTTHROUGH_OUTSI
100
AcDbVertex
100
AcDb2dVertex
 10
32428.92369869945
 20
3.690734289416923
 30
0.0
  0
VERTEX
  5
1BE
330
112
100
AcDbEntity
  8
4_ANYTOOL_CUTTHROUGH_OUTSI
100
AcDbVertex
100
AcDb2dVertex
 10
32428.92369869938
 20
21.69073428941692
 30
0.0
  0
SEQEND
  5
1BF
330
112
100
AcDbEntity
  8
4_ANYTOOL_CUTTHROUGH_OUTSI
  0
POLYLINE
  5
1C1
330
1F
100
AcDbEntity
  8
5_ANYTOOL_HALF_MILL_9MM_IN
100
AcDb2dPolyline
 66
     1
 10
0.0
 20
0.0
 30
0.0
 70
     1
  0
VERTEX
  5
1C2
330
1C1
100
AcDbEntity
  8
5_ANYTOOL_HALF_MILL_9MM_IN
100
AcDbVertex
100
AcDb2dVertex
 10
32844.17369869839
 20
-2075.309265710349
 30
0.0
 42
0.4142135623740547
  0
VERTEX
  5
1C3
330
1C1
100
AcDbEntity
  8
5_ANYTOOL_HALF_MILL_9MM_IN
100
AcDbVertex
100
AcDb2dVertex
 10
32850.1736986984
 20
-2069.309265710349
 30
0.0
  0
VERTEX
  5
1C4
330
1C1
100
AcDbEntity
  8
5_ANYTOOL_HALF_MILL_9MM_IN
100
AcDbVertex
100
AcDb2dVertex
 10
32850.1736986984
 20
-2050.809265710286
 30
0.0
 42
0.4142135623745143
  0
VERTEX
  5
1C5
330
1C1
100
AcDbEntity
  8
5_ANYTOOL_HALF_MILL_9MM_IN
100
AcDbVertex
100
AcDb2dVertex
 10
32844.17369869837
 20
-2044.809265710286
 30
0.0
  0
VERTEX
  5
1C6
330
1C1
100
AcDbEntity
  8
5_ANYTOOL_HALF_MILL_9MM_IN
100
AcDbVertex
100
AcDb2dVertex
 10
32837.67369869837
 20
-2044.809265710312
 30
0.0
 42
0.4142135623719194
  0
VERTEX
  5
1C7
330
1C1
100
AcDbEntity
  8
5_ANYTOOL_HALF_MILL_9MM_IN
100
AcDbVertex
100
AcDb2dVertex
 10
32831.6736986984
 20
-2050.809265710313
 30
0.0
  0
VERTEX
  5
1C8
330
1C1
100
AcDbEntity
  8
5_ANYTOOL_HALF_MILL_9MM_IN
100
AcDbVertex
100
AcDb2dVertex
 10
32831.6736986984
 20
-2069.309265710339
 30
0.0
 42
0.4142135623725419
  0
VERTEX
  5
1C9
330
1C1
100
AcDbEntity
  8
5_ANYTOOL_HALF_MILL_9MM_IN
100
AcDbVertex
100
AcDb2dVertex
 10
32837.6736986984
 20
-2075.309265710338
 30
0.0
  0
SEQEND
  5
1CA
330
1C1
100
AcDbEntity
  8
5_ANYTOOL_HALF_MILL_9MM_IN
  0
POLYLINE
  5
1CB
330
1F
100
AcDbEntity
  8
5_ANYTOOL_HALF_MILL_9MM_IN
100
AcDb2dPolyline
 66
     1
 10
0.0
 20
0.0
 30
0.0
 70
     1
  0
VERTEX
  5
1CC
330
1CB
100
AcDbEntity
  8
5_ANYTOOL_HALF_MILL_9MM_IN
100
AcDbVertex
100
AcDb2dVertex
 10
32569.67369869838
 20
-2044.809265710273
 30
0.0
 42
0.4142135623730508
  0
VERTEX
  5
1CD
330
1CB
100
AcDbEntity
  8
5_ANYTOOL_HALF_MILL_9MM_IN
100
AcDbVertex
100
AcDb2dVertex
 10
32563.67369869838
 20
-2050.809265710272
 30
0.0
  0
VERTEX
  5
1CE
330
1CB
100
AcDbEntity
  8
5_ANYTOOL_HALF_MILL_9MM_IN
100
AcDbVertex
100
AcDb2dVertex
 10
32563.67369869837
 20
-2069.309265710272
 30
0.0
 42
0.4142135623728343
  0
VERTEX
  5
1CF
330
1CB
100
AcDbEntity
  8
5_ANYTOOL_HALF_MILL_9MM_IN
100
AcDbVertex
100
AcDb2dVertex
 10
32569.67369869837
 20
-2075.309265710275
 30
0.0
  0
VERTEX
  5
1D0
330
1CB
100
AcDbEntity
  8
5_ANYTOOL_HALF_MILL_9MM_IN
100
AcDbVertex
100
AcDb2dVertex
 10
32576.17369869837
 20
-2075.309265710281
 30
0.0
 42
0.4142135623731883
  0
VERTEX
  5
1D1
330
1CB
100
AcDbEntity
  8
5_ANYTOOL_HALF_MILL_9MM_IN
100
AcDbVertex
100
AcDb2dVertex
 10
32582.17369869837
 20
-2069.309265710282
 30
0.0
  0
VERTEX
  5
1D2
330
1CB
100
AcDbEntity
  8
5_ANYTOOL_HALF_MILL_9MM_IN
100
AcDbVertex
100
AcDb2dVertex
 10
32582.17369869837
 20
-2050.809265710284
 30
0.0
 42
0.4142135623725938
  0
VERTEX
  5
1D3
330
1CB
100
AcDbEntity
  8
5_ANYTOOL_HALF_MILL_9MM_IN
100
AcDbVertex
100
AcDb2dVertex
 10
32576.17369869839
 20
-2044.809265710283
 30
0.0
  0
SEQEND
  5
1D4
330
1CB
100
AcDbEntity
  8
5_ANYTOOL_HALF_MILL_9MM_IN
  0
POLYLINE
  5
1D5
330
1F
100
AcDbEntity
  8
5_ANYTOOL_HALF_MILL_9MM_IN
100
AcDb2dPolyline
 66
     1
 10
0.0
 20
0.0
 30
0.0
 70
     1
  0
VERTEX
  5
1D6
330
1D5
100
AcDbEntity
  8
5_ANYTOOL_HALF_MILL_9MM_IN
100
AcDbVertex
100
AcDb2dVertex
 10
32548.17369869834
 20
-2075.309265710349
 30
0.0
 42
0.4142135623736221
  0
VERTEX
  5
1D7
330
1D5
100
AcDbEntity
  8
5_ANYTOOL_HALF_MILL_9MM_IN
100
AcDbVertex
100
AcDb2dVertex
 10
32554.17369869835
 20
-2069.309265710349
 30
0.0
  0
VERTEX
  5
1D8
330
1D5
100
AcDbEntity
  8
5_ANYTOOL_HALF_MILL_9MM_IN
100
AcDbVertex
100
AcDb2dVertex
 10
32554.17369869835
 20
-2050.809265710286
 30
0.0
 42
0.4142135623745143
  0
VERTEX
  5
1D9
330
1D5
100
AcDbEntity
  8
5_ANYTOOL_HALF_MILL_9MM_IN
100
AcDbVertex
100
AcDb2dVertex
 10
32548.17369869832
 20
-2044.809265710286
 30
0.0
  0
VERTEX
  5
1DA
330
1D5
100
AcDbEntity
  8
5_ANYTOOL_HALF_MILL_9MM_IN
100
AcDbVertex
100
AcDb2dVertex
 10
32541.67369869832
 20
-2044.809265710312
 30
0.0
 42
0.4142135623718154
  0
VERTEX
  5
1DB
330
1D5
100
AcDbEntity
  8
5_ANYTOOL_HALF_MILL_9MM_IN
100
AcDbVertex
100
AcDb2dVertex
 10
32535.67369869835
 20
-2050.809265710313
 30
0.0
  0
VERTEX
  5
1DC
330
1D5
100
AcDbEntity
  8
5_ANYTOOL_HALF_MILL_9MM_IN
100
AcDbVertex
100
AcDb2dVertex
 10
32535.67369869835
 20
-2069.309265710339
 30
0.0
 42
0.4142135623726675
  0
VERTEX
  5
1DD
330
1D5
100
AcDbEntity
  8
5_ANYTOOL_HALF_MILL_9MM_IN
100
AcDbVertex
100
AcDb2dVertex
 10
32541.67369869835
 20
-2075.309265710338
 30
0.0
  0
SEQEND
  5
1DE
330
1D5
100
AcDbEntity
  8
5_ANYTOOL_HALF_MILL_9MM_IN
  0
POLYLINE
  5
1DF
330
1F
100
AcDbEntity
  8
5_ANYTOOL_HALF_MILL_9MM_IN
100
AcDb2dPolyline
 66
     1
 10
0.0
 20
0.0
 30
0.0
 70
     1
  0
VERTEX
  5
1E0
330
1DF
100
AcDbEntity
  8
5_ANYTOOL_HALF_MILL_9MM_IN
100
AcDbVertex
100
AcDb2dVertex
 10
32273.67369869833
 20
-2044.809265710273
 30
0.0
 42
0.4142135623730508
  0
VERTEX
  5
1E1
330
1DF
100
AcDbEntity
  8
5_ANYTOOL_HALF_MILL_9MM_IN
100
AcDbVertex
100
AcDb2dVertex
 10
32267.67369869833
 20
-2050.809265710272
 30
0.0
  0
VERTEX
  5
1E2
330
1DF
100
AcDbEntity
  8
5_ANYTOOL_HALF_MILL_9MM_IN
100
AcDbVertex
100
AcDb2dVertex
 10
32267.67369869832
 20
-2069.309265710272
 30
0.0
 42
0.4142135623728343
  0
VERTEX
  5
1E3
330
1DF
100
AcDbEntity
  8
5_ANYTOOL_HALF_MILL_9MM_IN
100
AcDbVertex
100
AcDb2dVertex
 10
32273.67369869832
 20
-2075.309265710275
 30
0.0
  0
VERTEX
  5
1E4
330
1DF
100
AcDbEntity
  8
5_ANYTOOL_HALF_MILL_9MM_IN
100
AcDbVertex
100
AcDb2dVertex
 10
32280.17369869832
 20
-2075.309265710281
 30
0.0
 42
0.4142135623731883
  0
VERTEX
  5
1E5
330
1DF
100
AcDbEntity
  8
5_ANYTOOL_HALF_MILL_9MM_IN
100
AcDbVertex
100
AcDb2dVertex
 10
32286.17369869832
 20
-2069.309265710282
 30
0.0
  0
VERTEX
  5
1E6
330
1DF
100
AcDbEntity
  8
5_ANYTOOL_HALF_MILL_9MM_IN
100
AcDbVertex
100
AcDb2dVertex
 10
32286.17369869832
 20
-2050.809265710284
 30
0.0
 42
0.4142135623725938
  0
VERTEX
  5
1E7
330
1DF
100
AcDbEntity
  8
5_ANYTOOL_HALF_MILL_9MM_IN
100
AcDbVertex
100
AcDb2dVertex
 10
32280.17369869833
 20
-2044.809265710283
 30
0.0
  0
SEQEND
  5
1E8
330
1DF
100
AcDbEntity
  8
5_ANYTOOL_HALF_MILL_9MM_IN
  0
POLYLINE
  5
1E9
330
1F
100
AcDbEntity
  8
5_ANYTOOL_HALF_MILL_9MM_IN
100
AcDb2dPolyline
 66
     1
 10
0.0
 20
0.0
 30
0.0
 70
     1
  0
VERTEX
  5
1EA
330
1E9
100
AcDbEntity
  8
5_ANYTOOL_HALF_MILL_9MM_IN
100
AcDbVertex
100
AcDb2dVertex
 10
32844.17369869829
 20
-1475.309265710363
 30
0.0
 42
0.4142135623740782
  0
VERTEX
  5
1EB
330
1E9
100
AcDbEntity
  8
5_ANYTOOL_HALF_MILL_9MM_IN
100
AcDbVertex
100
AcDb2dVertex
 10
32850.1736986983
 20
-1469.309265710363
 30
0.0
  0
VERTEX
  5
1EC
330
1E9
100
AcDbEntity
  8
5_ANYTOOL_HALF_MILL_9MM_IN
100
AcDbVertex
100
AcDb2dVertex
 10
32850.1736986983
 20
-1450.809265710301
 30
0.0
 42
0.4142135623745078
  0
VERTEX
  5
1ED
330
1E9
100
AcDbEntity
  8
5_ANYTOOL_HALF_MILL_9MM_IN
100
AcDbVertex
100
AcDb2dVertex
 10
32844.17369869827
 20
-1444.809265710301
 30
0.0
  0
VERTEX
  5
1EE
330
1E9
100
AcDbEntity
  8
5_ANYTOOL_HALF_MILL_9MM_IN
100
AcDbVertex
100
AcDb2dVertex
 10
32837.67369869827
 20
-1444.809265710327
 30
0.0
 42
0.4142135623719194
  0
VERTEX
  5
1EF
330
1E9
100
AcDbEntity
  8
5_ANYTOOL_HALF_MILL_9MM_IN
100
AcDbVertex
100
AcDb2dVertex
 10
32831.6736986983
 20
-1450.809265710328
 30
0.0
  0
VERTEX
  5
1F0
330
1E9
100
AcDbEntity
  8
5_ANYTOOL_HALF_MILL_9MM_IN
100
AcDbVertex
100
AcDb2dVertex
 10
32831.6736986983
 20
-1469.309265710354
 30
0.0
 42
0.4142135623725478
  0
VERTEX
  5
1F1
330
1E9
100
AcDbEntity
  8
5_ANYTOOL_HALF_MILL_9MM_IN
100
AcDbVertex
100
AcDb2dVertex
 10
32837.67369869829
 20
-1475.309265710353
 30
0.0
  0
SEQEND
  5
1F2
330
1E9
100
AcDbEntity
  8
5_ANYTOOL_HALF_MILL_9MM_IN
  0
POLYLINE
  5
1F3
330
1F
100
AcDbEntity
  8
5_ANYTOOL_HALF_MILL_9MM_IN
100
AcDb2dPolyline
 66
     1
 10
0.0
 20
0.0
 30
0.0
 70
     1
  0
VERTEX
  5
1F4
330
1F3
100
AcDbEntity
  8
5_ANYTOOL_HALF_MILL_9MM_IN
100
AcDbVertex
100
AcDb2dVertex
 10
32569.67369869828
 20
-1444.809265710288
 30
0.0
 42
0.4142135623730666
  0
VERTEX
  5
1F5
330
1F3
100
AcDbEntity
  8
5_ANYTOOL_HALF_MILL_9MM_IN
100
AcDbVertex
100
AcDb2dVertex
 10
32563.67369869828
 20
-1450.809265710286
 30
0.0
  0
VERTEX
  5
1F6
330
1F3
100
AcDbEntity
  8
5_ANYTOOL_HALF_MILL_9MM_IN
100
AcDbVertex
100
AcDb2dVertex
 10
32563.67369869827
 20
-1469.309265710287
 30
0.0
 42
0.4142135623728153
  0
VERTEX
  5
1F7
330
1F3
100
AcDbEntity
  8
5_ANYTOOL_HALF_MILL_9MM_IN
100
AcDbVertex
100
AcDb2dVertex
 10
32569.67369869827
 20
-1475.30926571029
 30
0.0
  0
VERTEX
  5
1F8
330
1F3
100
AcDbEntity
  8
5_ANYTOOL_HALF_MILL_9MM_IN
100
AcDbVertex
100
AcDb2dVertex
 10
32576.17369869827
 20
-1475.309265710296
 30
0.0
 42
0.4142135623731804
  0
VERTEX
  5
1F9
330
1F3
100
AcDbEntity
  8
5_ANYTOOL_HALF_MILL_9MM_IN
100
AcDbVertex
100
AcDb2dVertex
 10
32582.17369869827
 20
-1469.309265710297
 30
0.0
  0
VERTEX
  5
1FA
330
1F3
100
AcDbEntity
  8
5_ANYTOOL_HALF_MILL_9MM_IN
100
AcDbVertex
100
AcDb2dVertex
 10
32582.17369869827
 20
-1450.809265710298
 30
0.0
 42
0.4142135623725874
  0
VERTEX
  5
1FB
330
1F3
100
AcDbEntity
  8
5_ANYTOOL_HALF_MILL_9MM_IN
100
AcDbVertex
100
AcDb2dVertex
 10
32576.17369869828
 20
-1444.809265710297
 30
0.0
  0
SEQEND
  5
1FC
330
1F3
100
AcDbEntity
  8
5_ANYTOOL_HALF_MILL_9MM_IN
  0
POLYLINE
  5
1FD
330
1F
100
AcDbEntity
  8
5_ANYTOOL_HALF_MILL_9MM_IN
100
AcDb2dPolyline
 66
     1
 10
0.0
 20
0.0
 30
0.0
 70
     1
  0
VERTEX
  5
1FE
330
1FD
100
AcDbEntity
  8
5_ANYTOOL_HALF_MILL_9MM_IN
100
AcDbVertex
100
AcDb2dVertex
 10
32548.17369869824
 20
-1475.309265710363
 30
0.0
 42
0.4142135623736377
  0
VERTEX
  5
1FF
330
1FD
100
AcDbEntity
  8
5_ANYTOOL_HALF_MILL_9MM_IN
100
AcDbVertex
100
AcDb2dVertex
 10
32554.17369869825
 20
-1469.309265710363
 30
0.0
  0
VERTEX
  5
200
330
1FD
100
AcDbEntity
  8
5_ANYTOOL_HALF_MILL_9MM_IN
100
AcDbVertex
100
AcDb2dVertex
 10
32554.17369869825
 20
-1450.809265710301
 30
0.0
 42
0.4142135623745078
  0
VERTEX
  5
201
330
1FD
100
AcDbEntity
  8
5_ANYTOOL_HALF_MILL_9MM_IN
100
AcDbVertex
100
AcDb2dVertex
 10
32548.17369869822
 20
-1444.809265710301
 30
0.0
  0
VERTEX
  5
202
330
1FD
100
AcDbEntity
  8
5_ANYTOOL_HALF_MILL_9MM_IN
100
AcDbVertex
100
AcDb2dVertex
 10
32541.67369869822
 20
-1444.809265710327
 30
0.0
 42
0.4142135623718154
  0
VERTEX
  5
203
330
1FD
100
AcDbEntity
  8
5_ANYTOOL_HALF_MILL_9MM_IN
100
AcDbVertex
100
AcDb2dVertex
 10
32535.67369869825
 20
-1450.809265710328
 30
0.0
  0
VERTEX
  5
204
330
1FD
100
AcDbEntity
  8
5_ANYTOOL_HALF_MILL_9MM_IN
100
AcDbVertex
100
AcDb2dVertex
 10
32535.67369869825
 20
-1469.309265710354
 30
0.0
 42
0.4142135623726733
  0
VERTEX
  5
205
330
1FD
100
AcDbEntity
  8
5_ANYTOOL_HALF_MILL_9MM_IN
100
AcDbVertex
100
AcDb2dVertex
 10
32541.67369869824
 20
-1475.309265710353
 30
0.0
  0
SEQEND
  5
206
330
1FD
100
AcDbEntity
  8
5_ANYTOOL_HALF_MILL_9MM_IN
  0
POLYLINE
  5
207
330
1F
100
AcDbEntity
  8
5_ANYTOOL_HALF_MILL_9MM_IN
100
AcDb2dPolyline
 66
     1
 10
0.0
 20
0.0
 30
0.0
 70
     1
  0
VERTEX
  5
208
330
207
100
AcDbEntity
  8
5_ANYTOOL_HALF_MILL_9MM_IN
100
AcDbVertex
100
AcDb2dVertex
 10
32273.67369869823
 20
-1444.809265710288
 30
0.0
 42
0.4142135623730666
  0
VERTEX
  5
209
330
207
100
AcDbEntity
  8
5_ANYTOOL_HALF_MILL_9MM_IN
100
AcDbVertex
100
AcDb2dVertex
 10
32267.67369869823
 20
-1450.809265710286
 30
0.0
  0
VERTEX
  5
20A
330
207
100
AcDbEntity
  8
5_ANYTOOL_HALF_MILL_9MM_IN
100
AcDbVertex
100
AcDb2dVertex
 10
32267.67369869822
 20
-1469.309265710287
 30
0.0
 42
0.4142135623728153
  0
VERTEX
  5
20B
330
207
100
AcDbEntity
  8
5_ANYTOOL_HALF_MILL_9MM_IN
100
AcDbVertex
100
AcDb2dVertex
 10
32273.67369869821
 20
-1475.30926571029
 30
0.0
  0
VERTEX
  5
20C
330
207
100
AcDbEntity
  8
5_ANYTOOL_HALF_MILL_9MM_IN
100
AcDbVertex
100
AcDb2dVertex
 10
32280.17369869822
 20
-1475.309265710296
 30
0.0
 42
0.4142135623731804
  0
VERTEX
  5
20D
330
207
100
AcDbEntity
  8
5_ANYTOOL_HALF_MILL_9MM_IN
100
AcDbVertex
100
AcDb2dVertex
 10
32286.17369869822
 20
-1469.309265710297
 30
0.0
  0
VERTEX
  5
20E
330
207
100
AcDbEntity
  8
5_ANYTOOL_HALF_MILL_9MM_IN
100
AcDbVertex
100
AcDb2dVertex
 10
32286.17369869822
 20
-1450.809265710298
 30
0.0
 42
0.4142135623725874
  0
VERTEX
  5
20F
330
207
100
AcDbEntity
  8
5_ANYTOOL_HALF_MILL_9MM_IN
100
AcDbVertex
100
AcDb2dVertex
 10
32280.17369869823
 20
-1444.809265710297
 30
0.0
  0
SEQEND
  5
210
330
207
100
AcDbEntity
  8
5_ANYTOOL_HALF_MILL_9MM_IN
  0
POLYLINE
  5
211
330
1F
100
AcDbEntity
  8
5_ANYTOOL_HALF_MILL_9MM_IN
100
AcDb2dPolyline
 66
     1
 10
0.0
 20
0.0
 30
0.0
 70
     1
  0
VERTEX
  5
212
330
211
100
AcDbEntity
  8
5_ANYTOOL_HALF_MILL_9MM_IN
100
AcDbVertex
100
AcDb2dVertex
 10
32844.17369869848
 20
-875.3092657103432
 30
0.0
 42
0.4142135623740585
  0
VERTEX
  5
213
330
211
100
AcDbEntity
  8
5_ANYTOOL_HALF_MILL_9MM_IN
100
AcDbVertex
100
AcDb2dVertex
 10
32850.17369869849
 20
-869.3092657103432
 30
0.0
  0
VERTEX
  5
214
330
211
100
AcDbEntity
  8
5_ANYTOOL_HALF_MILL_9MM_IN
100
AcDbVertex
100
AcDb2dVertex
 10
32850.17369869849
 20
-850.8092657102806
 30
0.0
 42
0.4142135623745078
  0
VERTEX
  5
215
330
211
100
AcDbEntity
  8
5_ANYTOOL_HALF_MILL_9MM_IN
100
AcDbVertex
100
AcDb2dVertex
 10
32844.17369869846
 20
-844.8092657102806
 30
0.0
  0
VERTEX
  5
216
330
211
100
AcDbEntity
  8
5_ANYTOOL_HALF_MILL_9MM_IN
100
AcDbVertex
100
AcDb2dVertex
 10
32837.67369869846
 20
-844.8092657103066
 30
0.0
 42
0.4142135623718999
  0
VERTEX
  5
217
330
211
100
AcDbEntity
  8
5_ANYTOOL_HALF_MILL_9MM_IN
100
AcDbVertex
100
AcDb2dVertex
 10
32831.67369869849
 20
-850.809265710308
 30
0.0
  0
VERTEX
  5
218
330
211
100
AcDbEntity
  8
5_ANYTOOL_HALF_MILL_9MM_IN
100
AcDbVertex
100
AcDb2dVertex
 10
32831.67369869849
 20
-869.3092657103338
 30
0.0
 42
0.4142135623725637
  0
VERTEX
  5
219
330
211
100
AcDbEntity
  8
5_ANYTOOL_HALF_MILL_9MM_IN
100
AcDbVertex
100
AcDb2dVertex
 10
32837.67369869848
 20
-875.309265710333
 30
0.0
  0
SEQEND
  5
21A
330
211
100
AcDbEntity
  8
5_ANYTOOL_HALF_MILL_9MM_IN
  0
POLYLINE
  5
21B
330
1F
100
AcDbEntity
  8
5_ANYTOOL_HALF_MILL_9MM_IN
100
AcDb2dPolyline
 66
     1
 10
0.0
 20
0.0
 30
0.0
 70
     1
  0
VERTEX
  5
21C
330
21B
100
AcDbEntity
  8
5_ANYTOOL_HALF_MILL_9MM_IN
100
AcDbVertex
100
AcDb2dVertex
 10
32569.67369869847
 20
-844.8092657102677
 30
0.0
 42
0.4142135623730588
  0
VERTEX
  5
21D
330
21B
100
AcDbEntity
  8
5_ANYTOOL_HALF_MILL_9MM_IN
100
AcDbVertex
100
AcDb2dVertex
 10
32563.67369869847
 20
-850.8092657102663
 30
0.0
  0
VERTEX
  5
21E
330
21B
100
AcDbEntity
  8
5_ANYTOOL_HALF_MILL_9MM_IN
100
AcDbVertex
100
AcDb2dVertex
 10
32563.67369869846
 20
-869.309265710267
 30
0.0
 42
0.4142135623728183
  0
VERTEX
  5
21F
330
21B
100
AcDbEntity
  8
5_ANYTOOL_HALF_MILL_9MM_IN
100
AcDbVertex
100
AcDb2dVertex
 10
32569.67369869845
 20
-875.3092657102698
 30
0.0
  0
VERTEX
  5
220
330
21B
100
AcDbEntity
  8
5_ANYTOOL_HALF_MILL_9MM_IN
100
AcDbVertex
100
AcDb2dVertex
 10
32576.17369869846
 20
-875.3092657102756
 30
0.0
 42
0.4142135623731725
  0
VERTEX
  5
221
330
21B
100
AcDbEntity
  8
5_ANYTOOL_HALF_MILL_9MM_IN
100
AcDbVertex
100
AcDb2dVertex
 10
32582.17369869846
 20
-869.309265710277
 30
0.0
  0
VERTEX
  5
222
330
21B
100
AcDbEntity
  8
5_ANYTOOL_HALF_MILL_9MM_IN
100
AcDbVertex
100
AcDb2dVertex
 10
32582.17369869846
 20
-850.8092657102783
 30
0.0
 42
0.4142135623725841
  0
VERTEX
  5
223
330
21B
100
AcDbEntity
  8
5_ANYTOOL_HALF_MILL_9MM_IN
100
AcDbVertex
100
AcDb2dVertex
 10
32576.17369869847
 20
-844.8092657102775
 30
0.0
  0
SEQEND
  5
224
330
21B
100
AcDbEntity
  8
5_ANYTOOL_HALF_MILL_9MM_IN
  0
POLYLINE
  5
225
330
1F
100
AcDbEntity
  8
5_ANYTOOL_HALF_MILL_9MM_IN
100
AcDb2dPolyline
 66
     1
 10
0.0
 20
0.0
 30
0.0
 70
     1
  0
VERTEX
  5
226
330
225
100
AcDbEntity
  8
5_ANYTOOL_HALF_MILL_9MM_IN
100
AcDbVertex
100
AcDb2dVertex
 10
32548.17369869843
 20
-875.3092657103432
 30
0.0
 42
0.4142135623736377
  0
VERTEX
  5
227
330
225
100
AcDbEntity
  8
5_ANYTOOL_HALF_MILL_9MM_IN
100
AcDbVertex
100
AcDb2dVertex
 10
32554.17369869844
 20
-869.3092657103432
 30
0.0
  0
VERTEX
  5
228
330
225
100
AcDbEntity
  8
5_ANYTOOL_HALF_MILL_9MM_IN
100
AcDbVertex
100
AcDb2dVertex
 10
32554.17369869844
 20
-850.8092657102806
 30
0.0
 42
0.4142135623745078
  0
VERTEX
  5
229
330
225
100
AcDbEntity
  8
5_ANYTOOL_HALF_MILL_9MM_IN
100
AcDbVertex
100
AcDb2dVertex
 10
32548.17369869841
 20
-844.8092657102806
 30
0.0
  0
VERTEX
  5
22A
330
225
100
AcDbEntity
  8
5_ANYTOOL_HALF_MILL_9MM_IN
100
AcDbVertex
100
AcDb2dVertex
 10
32541.67369869841
 20
-844.8092657103066
 30
0.0
 42
0.4142135623717958
  0
VERTEX
  5
22B
330
225
100
AcDbEntity
  8
5_ANYTOOL_HALF_MILL_9MM_IN
100
AcDbVertex
100
AcDb2dVertex
 10
32535.67369869844
 20
-850.809265710308
 30
0.0
  0
VERTEX
  5
22C
330
225
100
AcDbEntity
  8
5_ANYTOOL_HALF_MILL_9MM_IN
100
AcDbVertex
100
AcDb2dVertex
 10
32535.67369869844
 20
-869.3092657103338
 30
0.0
 42
0.4142135623726893
  0
VERTEX
  5
22D
330
225
100
AcDbEntity
  8
5_ANYTOOL_HALF_MILL_9MM_IN
100
AcDbVertex
100
AcDb2dVertex
 10
32541.67369869843
 20
-875.309265710333
 30
0.0
  0
SEQEND
  5
22E
330
225
100
AcDbEntity
  8
5_ANYTOOL_HALF_MILL_9MM_IN
  0
POLYLINE
  5
22F
330
1F
100
AcDbEntity
  8
5_ANYTOOL_HALF_MILL_9MM_IN
100
AcDb2dPolyline
 66
     1
 10
0.0
 20
0.0
 30
0.0
 70
     1
  0
VERTEX
  5
230
330
22F
100
AcDbEntity
  8
5_ANYTOOL_HALF_MILL_9MM_IN
100
AcDbVertex
100
AcDb2dVertex
 10
32273.67369869842
 20
-844.8092657102677
 30
0.0
 42
0.4142135623730588
  0
VERTEX
  5
231
330
22F
100
AcDbEntity
  8
5_ANYTOOL_HALF_MILL_9MM_IN
100
AcDbVertex
100
AcDb2dVertex
 10
32267.67369869842
 20
-850.8092657102663
 30
0.0
  0
VERTEX
  5
232
330
22F
100
AcDbEntity
  8
5_ANYTOOL_HALF_MILL_9MM_IN
100
AcDbVertex
100
AcDb2dVertex
 10
32267.67369869841
 20
-869.309265710267
 30
0.0
 42
0.4142135623728183
  0
VERTEX
  5
233
330
22F
100
AcDbEntity
  8
5_ANYTOOL_HALF_MILL_9MM_IN
100
AcDbVertex
100
AcDb2dVertex
 10
32273.6736986984
 20
-875.3092657102698
 30
0.0
  0
VERTEX
  5
234
330
22F
100
AcDbEntity
  8
5_ANYTOOL_HALF_MILL_9MM_IN
100
AcDbVertex
100
AcDb2dVertex
 10
32280.17369869841
 20
-875.3092657102756
 30
0.0
 42
0.4142135623731725
  0
VERTEX
  5
235
330
22F
100
AcDbEntity
  8
5_ANYTOOL_HALF_MILL_9MM_IN
100
AcDbVertex
100
AcDb2dVertex
 10
32286.17369869841
 20
-869.309265710277
 30
0.0
  0
VERTEX
  5
236
330
22F
100
AcDbEntity
  8
5_ANYTOOL_HALF_MILL_9MM_IN
100
AcDbVertex
100
AcDb2dVertex
 10
32286.17369869841
 20
-850.8092657102783
 30
0.0
 42
0.4142135623725841
  0
VERTEX
  5
237
330
22F
100
AcDbEntity
  8
5_ANYTOOL_HALF_MILL_9MM_IN
100
AcDbVertex
100
AcDb2dVertex
 10
32280.17369869842
 20
-844.8092657102775
 30
0.0
  0
SEQEND
  5
238
330
22F
100
AcDbEntity
  8
5_ANYTOOL_HALF_MILL_9MM_IN
  0
POLYLINE
  5
239
330
1F
100
AcDbEntity
  8
5_ANYTOOL_HALF_MILL_9MM_IN
100
AcDb2dPolyline
 66
     1
 10
0.0
 20
0.0
 30
0.0
 70
     1
  0
VERTEX
  5
23A
330
239
100
AcDbEntity
  8
5_ANYTOOL_HALF_MILL_9MM_IN
100
AcDbVertex
100
AcDb2dVertex
 10
32844.17369869836
 20
-275.3092657103432
 30
0.0
 42
0.4142135623734268
  0
VERTEX
  5
23B
330
239
100
AcDbEntity
  8
5_ANYTOOL_HALF_MILL_9MM_IN
100
AcDbVertex
100
AcDb2dVertex
 10
32850.17369869837
 20
-269.3092657103433
 30
0.0
  0
VERTEX
  5
23C
330
239
100
AcDbEntity
  8
5_ANYTOOL_HALF_MILL_9MM_IN
100
AcDbVertex
100
AcDb2dVertex
 10
32850.17369869837
 20
-250.8092657102806
 30
0.0
 42
0.4142135623745101
  0
VERTEX
  5
23D
330
239
100
AcDbEntity
  8
5_ANYTOOL_HALF_MILL_9MM_IN
100
AcDbVertex
100
AcDb2dVertex
 10
32844.17369869834
 20
-244.8092657102806
 30
0.0
  0
VERTEX
  5
23E
330
239
100
AcDbEntity
  8
5_ANYTOOL_HALF_MILL_9MM_IN
100
AcDbVertex
100
AcDb2dVertex
 10
32837.67369869834
 20
-244.8092657103065
 30
0.0
 42
0.4142135623716967
  0
VERTEX
  5
23F
330
239
100
AcDbEntity
  8
5_ANYTOOL_HALF_MILL_9MM_IN
100
AcDbVertex
100
AcDb2dVertex
 10
32831.67369869837
 20
-250.809265710308
 30
0.0
  0
VERTEX
  5
240
330
239
100
AcDbEntity
  8
5_ANYTOOL_HALF_MILL_9MM_IN
100
AcDbVertex
100
AcDb2dVertex
 10
32831.67369869837
 20
-269.3092657103338
 30
0.0
 42
0.414213562372559
  0
VERTEX
  5
241
330
239
100
AcDbEntity
  8
5_ANYTOOL_HALF_MILL_9MM_IN
100
AcDbVertex
100
AcDb2dVertex
 10
32837.67369869836
 20
-275.309265710333
 30
0.0
  0
SEQEND
  5
242
330
239
100
AcDbEntity
  8
5_ANYTOOL_HALF_MILL_9MM_IN
  0
POLYLINE
  5
243
330
1F
100
AcDbEntity
  8
5_ANYTOOL_HALF_MILL_9MM_IN
100
AcDb2dPolyline
 66
     1
 10
0.0
 20
0.0
 30
0.0
 70
     1
  0
VERTEX
  5
244
330
243
100
AcDbEntity
  8
5_ANYTOOL_HALF_MILL_9MM_IN
100
AcDbVertex
100
AcDb2dVertex
 10
32569.67369869835
 20
-244.8092657102677
 30
0.0
 42
0.4142135623730588
  0
VERTEX
  5
245
330
243
100
AcDbEntity
  8
5_ANYTOOL_HALF_MILL_9MM_IN
100
AcDbVertex
100
AcDb2dVertex
 10
32563.67369869835
 20
-250.8092657102663
 30
0.0
  0
VERTEX
  5
246
330
243
100
AcDbEntity
  8
5_ANYTOOL_HALF_MILL_9MM_IN
100
AcDbVertex
100
AcDb2dVertex
 10
32563.67369869834
 20
-269.309265710267
 30
0.0
 42
0.4142135623728151
  0
VERTEX
  5
247
330
243
100
AcDbEntity
  8
5_ANYTOOL_HALF_MILL_9MM_IN
100
AcDbVertex
100
AcDb2dVertex
 10
32569.67369869833
 20
-275.3092657102697
 30
0.0
  0
VERTEX
  5
248
330
243
100
AcDbEntity
  8
5_ANYTOOL_HALF_MILL_9MM_IN
100
AcDbVertex
100
AcDb2dVertex
 10
32576.17369869833
 20
-275.3092657102756
 30
0.0
 42
0.4142135623731745
  0
VERTEX
  5
249
330
243
100
AcDbEntity
  8
5_ANYTOOL_HALF_MILL_9MM_IN
100
AcDbVertex
100
AcDb2dVertex
 10
32582.17369869834
 20
-269.309265710277
 30
0.0
  0
VERTEX
  5
24A
330
243
100
AcDbEntity
  8
5_ANYTOOL_HALF_MILL_9MM_IN
100
AcDbVertex
100
AcDb2dVertex
 10
32582.17369869834
 20
-250.8092657102783
 30
0.0
 42
0.4142135623725889
  0
VERTEX
  5
24B
330
243
100
AcDbEntity
  8
5_ANYTOOL_HALF_MILL_9MM_IN
100
AcDbVertex
100
AcDb2dVertex
 10
32576.17369869835
 20
-244.8092657102775
 30
0.0
  0
SEQEND
  5
24C
330
243
100
AcDbEntity
  8
5_ANYTOOL_HALF_MILL_9MM_IN
  0
POLYLINE
  5
24D
330
1F
100
AcDbEntity
  8
5_ANYTOOL_HALF_MILL_9MM_IN
100
AcDb2dPolyline
 66
     1
 10
0.0
 20
0.0
 30
0.0
 70
     1
  0
VERTEX
  5
24E
330
24D
100
AcDbEntity
  8
5_ANYTOOL_HALF_MILL_9MM_IN
100
AcDbVertex
100
AcDb2dVertex
 10
32548.17369869831
 20
-275.3092657103432
 30
0.0
 42
0.4142135623736377
  0
VERTEX
  5
24F
330
24D
100
AcDbEntity
  8
5_ANYTOOL_HALF_MILL_9MM_IN
100
AcDbVertex
100
AcDb2dVertex
 10
32554.17369869832
 20
-269.3092657103433
 30
0.0
  0
VERTEX
  5
250
330
24D
100
AcDbEntity
  8
5_ANYTOOL_HALF_MILL_9MM_IN
100
AcDbVertex
100
AcDb2dVertex
 10
32554.17369869832
 20
-250.8092657102806
 30
0.0
 42
0.4142135623745101
  0
VERTEX
  5
251
330
24D
100
AcDbEntity
  8
5_ANYTOOL_HALF_MILL_9MM_IN
100
AcDbVertex
100
AcDb2dVertex
 10
32548.17369869829
 20
-244.8092657102806
 30
0.0
  0
VERTEX
  5
252
330
24D
100
AcDbEntity
  8
5_ANYTOOL_HALF_MILL_9MM_IN
100
AcDbVertex
100
AcDb2dVertex
 10
32541.67369869829
 20
-244.8092657103065
 30
0.0
 42
0.4142135623718007
  0
VERTEX
  5
253
330
24D
100
AcDbEntity
  8
5_ANYTOOL_HALF_MILL_9MM_IN
100
AcDbVertex
100
AcDb2dVertex
 10
32535.67369869832
 20
-250.809265710308
 30
0.0
  0
VERTEX
  5
254
330
24D
100
AcDbEntity
  8
5_ANYTOOL_HALF_MILL_9MM_IN
100
AcDbVertex
100
AcDb2dVertex
 10
32535.67369869832
 20
-269.3092657103338
 30
0.0
 42
0.4142135623726846
  0
VERTEX
  5
255
330
24D
100
AcDbEntity
  8
5_ANYTOOL_HALF_MILL_9MM_IN
100
AcDbVertex
100
AcDb2dVertex
 10
32541.67369869831
 20
-275.309265710333
 30
0.0
  0
SEQEND
  5
256
330
24D
100
AcDbEntity
  8
5_ANYTOOL_HALF_MILL_9MM_IN
  0
POLYLINE
  5
257
330
1F
100
AcDbEntity
  8
5_ANYTOOL_HALF_MILL_9MM_IN
100
AcDb2dPolyline
 66
     1
 10
0.0
 20
0.0
 30
0.0
 70
     1
  0
VERTEX
  5
258
330
257
100
AcDbEntity
  8
5_ANYTOOL_HALF_MILL_9MM_IN
100
AcDbVertex
100
AcDb2dVertex
 10
32273.67369869829
 20
-244.8092657102677
 30
0.0
 42
0.4142135623730588
  0
VERTEX
  5
259
330
257
100
AcDbEntity
  8
5_ANYTOOL_HALF_MILL_9MM_IN
100
AcDbVertex
100
AcDb2dVertex
 10
32267.67369869829
 20
-250.8092657102663
 30
0.0
  0
VERTEX
  5
25A
330
257
100
AcDbEntity
  8
5_ANYTOOL_HALF_MILL_9MM_IN
100
AcDbVertex
100
AcDb2dVertex
 10
32267.67369869829
 20
-269.309265710267
 30
0.0
 42
0.4142135623728151
  0
VERTEX
  5
25B
330
257
100
AcDbEntity
  8
5_ANYTOOL_HALF_MILL_9MM_IN
100
AcDbVertex
100
AcDb2dVertex
 10
32273.67369869828
 20
-275.3092657102697
 30
0.0
  0
VERTEX
  5
25C
330
257
100
AcDbEntity
  8
5_ANYTOOL_HALF_MILL_9MM_IN
100
AcDbVertex
100
AcDb2dVertex
 10
32280.17369869828
 20
-275.3092657102756
 30
0.0
 42
0.4142135623731745
  0
VERTEX
  5
25D
330
257
100
AcDbEntity
  8
5_ANYTOOL_HALF_MILL_9MM_IN
100
AcDbVertex
100
AcDb2dVertex
 10
32286.17369869829
 20
-269.309265710277
 30
0.0
  0
VERTEX
  5
25E
330
257
100
AcDbEntity
  8
5_ANYTOOL_HALF_MILL_9MM_IN
100
AcDbVertex
100
AcDb2dVertex
 10
32286.17369869829
 20
-250.8092657102783
 30
0.0
 42
0.4142135623725889
  0
VERTEX
  5
25F
330
257
100
AcDbEntity
  8
5_ANYTOOL_HALF_MILL_9MM_IN
100
AcDbVertex
100
AcDb2dVertex
 10
32280.1736986983
 20
-244.8092657102775
 30
0.0
  0
SEQEND
  5
260
330
257
100
AcDbEntity
  8
5_ANYTOOL_HALF_MILL_9MM_IN
  0
MTEXT
  5
263
330
1F
100
AcDbEntity
  8
1_ANYTOOL_1MMDEEP_LABELS_S
100
AcDbMText
 10
32721.44783120595
 20
-1157.272477152284
 30
0.0
 40
25.0
 41
485.6756756756757
 71
     5
 72
     1
  1
DOOR-M1/E
  7
MONOTXT_REGULAR
 11
-2.569594183134626E-14
 21
-1.0
 31
0.0
1001
ACAD
1000
ACAD_MTEXT_DEFINED_HEIGHT_BEGIN
1070
    46
1040
10.54054054054054
1000
ACAD_MTEXT_DEFINED_HEIGHT_END
  0
MTEXT
  5
264
330
1F
100
AcDbEntity
  8
1_ANYTOOL_1MMDEEP_LABELS_S
100
AcDbMText
 10
32396.53470132586
 20
-1157.137342017148
 30
0.0
 40
25.0
 41
486.2162162162162
 71
     5
 72
     1
  1
DOOR-M1/D
  7
MONOTXT_REGULAR
 11
9.887108153159630E-14
 21
-1.0
 31
0.0
1001
ACAD
1000
ACAD_MTEXT_DEFINED_HEIGHT_BEGIN
1070
    46
1040
10.54054054054054
1000
ACAD_MTEXT_DEFINED_HEIGHT_END
  0
MTEXT
  5
265
330
1F
100
AcDbEntity
  8
1_ANYTOOL_1MMDEEP_LABELS_S
100
AcDbMText
 10
32041.46025316347
 20
-1750.693245226001
 30
0.0
 40
25.0
 41
486.2162162162162
 71
     5
 72
     1
  1
DOOR-M1/A
  7
MONOTXT_REGULAR
 11
-7.710328832418728E-15
 21
-1.0
 31
0.0
1001
ACAD
1000
ACAD_MTEXT_DEFINED_HEIGHT_BEGIN
1070
    46
1040
10.54054054054054
1000
ACAD_MTEXT_DEFINED_HEIGHT_END
  0
MTEXT
  5
266
330
1F
100
AcDbEntity
  8
1_ANYTOOL_1MMDEEP_LABELS_S
100
AcDbMText
 10
32159.59248950816
 20
-541.9916981442402
 30
0.0
 40
25.0
 41
485.9459459459459
 71
     5
 72
     1
  1
DOOR-M1/C
  7
MONOTXT_REGULAR
 11
1.321777722703510E-13
 21
-1.0
 31
0.0
1001
ACAD
1000
ACAD_MTEXT_DEFINED_HEIGHT_BEGIN
1070
    46
1040
10.54054054054054
1000
ACAD_MTEXT_DEFINED_HEIGHT_END
  0
MTEXT
  5
267
330
1F
100
AcDbEntity
  8
1_ANYTOOL_1MMDEEP_LABELS_S
100
AcDbMText
 10
31746.2547426305
 20
-1761.924130573956
 30
0.0
 40
25.0
 41
486.2162162162162
 71
     5
 72
     1
  1
DOOR-M1/B
  7
MONOTXT_REGULAR
 11
4.358197490526350E-14
 21
-1.0
 31
0.0
1001
ACAD
1000
ACAD_MTEXT_DEFINED_HEIGHT_BEGIN
1070
    46
1040
10.54054054054054
1000
ACAD_MTEXT_DEFINED_HEIGHT_END
  0
MTEXT
  5
268
330
1F
100
AcDbEntity
  8
1_ANYTOOL_1MMDEEP_LABELS_S
100
AcDbMText
 10
31750.25474263047
 20
-541.9241305747081
 30
0.0
 40
25.0
 41
486.2162162162162
 71
     5
 72
     1
  1
DOOR-M1/B
  7
MONOTXT_REGULAR
 11
9.665063548234599E-14
 21
-1.0
 31
0.0
1001
ACAD
1000
ACAD_MTEXT_DEFINED_HEIGHT_BEGIN
1070
    46
1040
10.54054054054054
1000
ACAD_MTEXT_DEFINED_HEIGHT_END
  0
POLYLINE
  5
269
330
1F
100
AcDbEntity
  8
5_ANYTOOL_HALF_MILL_9MM_IN
100
AcDb2dPolyline
 66
     1
 10
0.0
 20
0.0
 30
0.0
 70
     1
  0
VERTEX
  5
26A
330
269
100
AcDbEntity
  8
5_ANYTOOL_HALF_MILL_9MM_IN
100
AcDbVertex
100
AcDb2dVertex
 10
32423.67369869852
 20
-2146.309265712061
 30
0.0
  0
VERTEX
  5
26B
330
269
100
AcDbEntity
  8
5_ANYTOOL_HALF_MILL_9MM_IN
100
AcDbVertex
100
AcDb2dVertex
 10
32423.67369869852
 20
-2152.309265712063
 30
0.0
  0
VERTEX
  5
26C
330
269
100
AcDbEntity
  8
5_ANYTOOL_HALF_MILL_9MM_IN
100
AcDbVertex
100
AcDb2dVertex
 10
32436.17369869852
 20
-2152.309265712063
 30
0.0
  0
VERTEX
  5
26D
330
269
100
AcDbEntity
  8
5_ANYTOOL_HALF_MILL_9MM_IN
100
AcDbVertex
100
AcDb2dVertex
 10
32436.17369869851
 20
-2121.809265712063
 30
0.0
  0
VERTEX
  5
26E
330
269
100
AcDbEntity
  8
5_ANYTOOL_HALF_MILL_9MM_IN
100
AcDbVertex
100
AcDb2dVertex
 10
32423.67369869852
 20
-2121.809265712063
 30
0.0
  0
VERTEX
  5
26F
330
269
100
AcDbEntity
  8
5_ANYTOOL_HALF_MILL_9MM_IN
100
AcDbVertex
100
AcDb2dVertex
 10
32423.67369869852
 20
-2127.809265712063
 30
0.0
  0
VERTEX
  5
270
330
269
100
AcDbEntity
  8
5_ANYTOOL_HALF_MILL_9MM_IN
100
AcDbVertex
100
AcDb2dVertex
 10
32398.17369869851
 20
-2127.809265712066
 30
0.0
  0
VERTEX
  5
271
330
269
100
AcDbEntity
  8
5_ANYTOOL_HALF_MILL_9MM_IN
100
AcDbVertex
100
AcDb2dVertex
 10
32398.17369869851
 20
-2121.809265712066
 30
0.0
  0
VERTEX
  5
272
330
269
100
AcDbEntity
  8
5_ANYTOOL_HALF_MILL_9MM_IN
100
AcDbVertex
100
AcDb2dVertex
 10
32385.67369869851
 20
-2121.809265712066
 30
0.0
  0
VERTEX
  5
273
330
269
100
AcDbEntity
  8
5_ANYTOOL_HALF_MILL_9MM_IN
100
AcDbVertex
100
AcDb2dVertex
 10
32385.67369869852
 20
-2152.309265712066
 30
0.0
  0
VERTEX
  5
274
330
269
100
AcDbEntity
  8
5_ANYTOOL_HALF_MILL_9MM_IN
100
AcDbVertex
100
AcDb2dVertex
 10
32398.17369869851
 20
-2152.309265712066
 30
0.0
  0
VERTEX
  5
275
330
269
100
AcDbEntity
  8
5_ANYTOOL_HALF_MILL_9MM_IN
100
AcDbVertex
100
AcDb2dVertex
 10
32398.17369869851
 20
-2146.309265712066
 30
0.0
  0
SEQEND
  5
276
330
269
100
AcDbEntity
  8
5_ANYTOOL_HALF_MILL_9MM_IN
  0
POLYLINE
  5
277
330
1F
100
AcDbEntity
  8
5_ANYTOOL_HALF_MILL_9MM_IN
100
AcDb2dPolyline
 66
     1
 10
0.0
 20
0.0
 30
0.0
 70
     1
  0
VERTEX
  5
278
330
277
100
AcDbEntity
  8
5_ANYTOOL_HALF_MILL_9MM_IN
100
AcDbVertex
100
AcDb2dVertex
 10
32681.67369869817
 20
-2152.309265712066
 30
0.0
  0
VERTEX
  5
279
330
277
100
AcDbEntity
  8
5_ANYTOOL_HALF_MILL_9MM_IN
100
AcDbVertex
100
AcDb2dVertex
 10
32694.17369869817
 20
-2152.309265712066
 30
0.0
  0
VERTEX
  5
27A
330
277
100
AcDbEntity
  8
5_ANYTOOL_HALF_MILL_9MM_IN
100
AcDbVertex
100
AcDb2dVertex
 10
32694.17369869817
 20
-2146.309265712065
 30
0.0
  0
VERTEX
  5
27B
330
277
100
AcDbEntity
  8
5_ANYTOOL_HALF_MILL_9MM_IN
100
AcDbVertex
100
AcDb2dVertex
 10
32719.67369869818
 20
-2146.309265712068
 30
0.0
  0
VERTEX
  5
27C
330
277
100
AcDbEntity
  8
5_ANYTOOL_HALF_MILL_9MM_IN
100
AcDbVertex
100
AcDb2dVertex
 10
32719.67369869818
 20
-2152.309265712068
 30
0.0
  0
VERTEX
  5
27D
330
277
100
AcDbEntity
  8
5_ANYTOOL_HALF_MILL_9MM_IN
100
AcDbVertex
100
AcDb2dVertex
 10
32732.17369869817
 20
-2152.309265712068
 30
0.0
  0
VERTEX
  5
27E
330
277
100
AcDbEntity
  8
5_ANYTOOL_HALF_MILL_9MM_IN
100
AcDbVertex
100
AcDb2dVertex
 10
32732.17369869818
 20
-2121.809265712068
 30
0.0
  0
VERTEX
  5
27F
330
277
100
AcDbEntity
  8
5_ANYTOOL_HALF_MILL_9MM_IN
100
AcDbVertex
100
AcDb2dVertex
 10
32719.67369869818
 20
-2121.809265712068
 30
0.0
  0
VERTEX
  5
280
330
277
100
AcDbEntity
  8
5_ANYTOOL_HALF_MILL_9MM_IN
100
AcDbVertex
100
AcDb2dVertex
 10
32719.67369869818
 20
-2127.809265712068
 30
0.0
  0
VERTEX
  5
281
330
277
100
AcDbEntity
  8
5_ANYTOOL_HALF_MILL_9MM_IN
100
AcDbVertex
100
AcDb2dVertex
 10
32694.17369869817
 20
-2127.809265712066
 30
0.0
  0
VERTEX
  5
282
330
277
100
AcDbEntity
  8
5_ANYTOOL_HALF_MILL_9MM_IN
100
AcDbVertex
100
AcDb2dVertex
 10
32694.17369869817
 20
-2121.809265712066
 30
0.0
  0
VERTEX
  5
283
330
277
100
AcDbEntity
  8
5_ANYTOOL_HALF_MILL_9MM_IN
100
AcDbVertex
100
AcDb2dVertex
 10
32681.67369869818
 20
-2121.809265712066
 30
0.0
  0
SEQEND
  5
284
330
277
100
AcDbEntity
  8
5_ANYTOOL_HALF_MILL_9MM_IN
  0
POLYLINE
  5
285
330
1F
100
AcDbEntity
  8
5_ANYTOOL_HALF_MILL_9MM_IN
100
AcDb2dPolyline
 66
     1
 10
0.0
 20
0.0
 30
0.0
 70
     1
  0
VERTEX
  5
286
330
285
100
AcDbEntity
  8
5_ANYTOOL_HALF_MILL_9MM_IN
100
AcDbVertex
100
AcDb2dVertex
 10
32849.67369869833
 20
-851.3092657102616
 30
0.0
  0
VERTEX
  5
287
330
285
100
AcDbEntity
  8
5_ANYTOOL_HALF_MILL_9MM_IN
100
AcDbVertex
100
AcDb2dVertex
 10
32849.67369869833
 20
-868.8092657102651
 30
0.0
  0
VERTEX
  5
288
330
285
100
AcDbEntity
  8
5_ANYTOOL_HALF_MILL_9MM_IN
100
AcDbVertex
100
AcDb2dVertex
 10
32832.17369869827
 20
-868.8092657104185
 30
0.0
  0
VERTEX
  5
289
330
285
100
AcDbEntity
  8
5_ANYTOOL_HALF_MILL_9MM_IN
100
AcDbVertex
100
AcDb2dVertex
 10
32832.17369869826
 20
-851.3092657104238
 30
0.0
  0
SEQEND
  5
28A
330
285
100
AcDbEntity
  8
5_ANYTOOL_HALF_MILL_9MM_IN
  0
POLYLINE
  5
28C
330
1F
100
AcDbEntity
  8
3_ANYTOOL_CUTTHROUGH_INSID
100
AcDb2dPolyline
 66
     1
 10
0.0
 20
0.0
 30
0.0
 70
     1
  0
VERTEX
  5
28D
330
28C
100
AcDbEntity
  8
3_ANYTOOL_CUTTHROUGH_INSID
100
AcDbVertex
100
AcDb2dVertex
 10
31816.17769868469
 20
-2255.809265708459
 30
0.0
  0
VERTEX
  5
28E
330
28C
100
AcDbEntity
  8
3_ANYTOOL_CUTTHROUGH_INSID
100
AcDbVertex
100
AcDb2dVertex
 10
31803.67769868469
 20
-2255.809265708459
 30
0.0
  0
VERTEX
  5
28F
330
28C
100
AcDbEntity
  8
3_ANYTOOL_CUTTHROUGH_INSID
100
AcDbVertex
100
AcDb2dVertex
 10
31803.6776986847
 20
-2304.309265708458
 30
0.0
  0
VERTEX
  5
290
330
28C
100
AcDbEntity
  8
3_ANYTOOL_CUTTHROUGH_INSID
100
AcDbVertex
100
AcDb2dVertex
 10
31816.1776986847
 20
-2304.309265708458
 30
0.0
  0
VERTEX
  5
291
330
28C
100
AcDbEntity
  8
3_ANYTOOL_CUTTHROUGH_INSID
100
AcDbVertex
100
AcDb2dVertex
 10
31816.1776986847
 20
-2298.309265708459
 30
0.0
  0
VERTEX
  5
292
330
28C
100
AcDbEntity
  8
3_ANYTOOL_CUTTHROUGH_INSID
100
AcDbVertex
100
AcDb2dVertex
 10
31851.6776986847
 20
-2298.30926570852
 30
0.0
  0
VERTEX
  5
293
330
28C
100
AcDbEntity
  8
3_ANYTOOL_CUTTHROUGH_INSID
100
AcDbVertex
100
AcDb2dVertex
 10
31851.6776986847
 20
-2304.309265708522
 30
0.0
  0
VERTEX
  5
294
330
28C
100
AcDbEntity
  8
3_ANYTOOL_CUTTHROUGH_INSID
100
AcDbVertex
100
AcDb2dVertex
 10
31864.1776986847
 20
-2304.309265708447
 30
0.0
  0
VERTEX
  5
295
330
28C
100
AcDbEntity
  8
3_ANYTOOL_CUTTHROUGH_INSID
100
AcDbVertex
100
AcDb2dVertex
 10
31864.17769868469
 20
-2255.809265708451
 30
0.0
  0
VERTEX
  5
296
330
28C
100
AcDbEntity
  8
3_ANYTOOL_CUTTHROUGH_INSID
100
AcDbVertex
100
AcDb2dVertex
 10
31851.67769868469
 20
-2255.809265708523
 30
0.0
  0
VERTEX
  5
297
330
28C
100
AcDbEntity
  8
3_ANYTOOL_CUTTHROUGH_INSID
100
AcDbVertex
100
AcDb2dVertex
 10
31851.6776986847
 20
-2261.809265708517
 30
0.0
  0
VERTEX
  5
298
330
28C
100
AcDbEntity
  8
3_ANYTOOL_CUTTHROUGH_INSID
100
AcDbVertex
100
AcDb2dVertex
 10
31816.1776986847
 20
-2261.809265708456
 30
0.0
  0
SEQEND
  5
299
330
28C
100
AcDbEntity
  8
3_ANYTOOL_CUTTHROUGH_INSID
  0
POLYLINE
  5
29A
330
1F
100
AcDbEntity
  8
3_ANYTOOL_CUTTHROUGH_INSID
100
AcDb2dPolyline
 66
     1
 10
0.0
 20
0.0
 30
0.0
 70
     1
  0
VERTEX
  5
29B
330
29A
100
AcDbEntity
  8
3_ANYTOOL_CUTTHROUGH_INSID
100
AcDbVertex
100
AcDb2dVertex
 10
31864.17769868466
 20
-1868.309265708464
 30
0.0
  0
VERTEX
  5
29C
330
29A
100
AcDbEntity
  8
3_ANYTOOL_CUTTHROUGH_INSID
100
AcDbVertex
100
AcDb2dVertex
 10
31864.17769868466
 20
-1819.809265708465
 30
0.0
  0
VERTEX
  5
29D
330
29A
100
AcDbEntity
  8
3_ANYTOOL_CUTTHROUGH_INSID
100
AcDbVertex
100
AcDb2dVertex
 10
31851.67769868466
 20
-1819.809265708541
 30
0.0
  0
VERTEX
  5
29E
330
29A
100
AcDbEntity
  8
3_ANYTOOL_CUTTHROUGH_INSID
100
AcDbVertex
100
AcDb2dVertex
 10
31851.67769868466
 20
-1825.809265708538
 30
0.0
  0
VERTEX
  5
29F
330
29A
100
AcDbEntity
  8
3_ANYTOOL_CUTTHROUGH_INSID
100
AcDbVertex
100
AcDb2dVertex
 10
31816.17769868466
 20
-1825.809265708477
 30
0.0
  0
VERTEX
  5
2A0
330
29A
100
AcDbEntity
  8
3_ANYTOOL_CUTTHROUGH_INSID
100
AcDbVertex
100
AcDb2dVertex
 10
31816.17769868466
 20
-1819.809265708477
 30
0.0
  0
VERTEX
  5
2A1
330
29A
100
AcDbEntity
  8
3_ANYTOOL_CUTTHROUGH_INSID
100
AcDbVertex
100
AcDb2dVertex
 10
31803.67769868466
 20
-1819.809265708481
 30
0.0
  0
VERTEX
  5
2A2
330
29A
100
AcDbEntity
  8
3_ANYTOOL_CUTTHROUGH_INSID
100
AcDbVertex
100
AcDb2dVertex
 10
31803.67769868466
 20
-1868.309265708473
 30
0.0
  0
VERTEX
  5
2A3
330
29A
100
AcDbEntity
  8
3_ANYTOOL_CUTTHROUGH_INSID
100
AcDbVertex
100
AcDb2dVertex
 10
31816.17769868466
 20
-1868.309265708476
 30
0.0
  0
VERTEX
  5
2A4
330
29A
100
AcDbEntity
  8
3_ANYTOOL_CUTTHROUGH_INSID
100
AcDbVertex
100
AcDb2dVertex
 10
31816.17769868467
 20
-1862.309265708473
 30
0.0
  0
VERTEX
  5
2A5
330
29A
100
AcDbEntity
  8
3_ANYTOOL_CUTTHROUGH_INSID
100
AcDbVertex
100
AcDb2dVertex
 10
31851.67769868466
 20
-1862.309265708538
 30
0.0
  0
VERTEX
  5
2A6
330
29A
100
AcDbEntity
  8
3_ANYTOOL_CUTTHROUGH_INSID
100
AcDbVertex
100
AcDb2dVertex
 10
31851.67769868466
 20
-1868.30926570854
 30
0.0
  0
SEQEND
  5
2A7
330
29A
100
AcDbEntity
  8
3_ANYTOOL_CUTTHROUGH_INSID
  0
POLYLINE
  5
2A8
330
1F
100
AcDbEntity
  8
3_ANYTOOL_CUTTHROUGH_INSID
100
AcDb2dPolyline
 66
     1
 10
0.0
 20
0.0
 30
0.0
 70
     1
  0
VERTEX
  5
2A9
330
2A8
100
AcDbEntity
  8
3_ANYTOOL_CUTTHROUGH_INSID
100
AcDbVertex
100
AcDb2dVertex
 10
31851.67769868466
 20
-1698.309265709647
 30
0.0
  0
VERTEX
  5
2AA
330
2A8
100
AcDbEntity
  8
3_ANYTOOL_CUTTHROUGH_INSID
100
AcDbVertex
100
AcDb2dVertex
 10
31851.67769868465
 20
-1704.309265709645
 30
0.0
  0
VERTEX
  5
2AB
330
2A8
100
AcDbEntity
  8
3_ANYTOOL_CUTTHROUGH_INSID
100
AcDbVertex
100
AcDb2dVertex
 10
31864.17769868465
 20
-1704.309265709721
 30
0.0
  0
VERTEX
  5
2AC
330
2A8
100
AcDbEntity
  8
3_ANYTOOL_CUTTHROUGH_INSID
100
AcDbVertex
100
AcDb2dVertex
 10
31864.17769868466
 20
-1655.809265709722
 30
0.0
  0
VERTEX
  5
2AD
330
2A8
100
AcDbEntity
  8
3_ANYTOOL_CUTTHROUGH_INSID
100
AcDbVertex
100
AcDb2dVertex
 10
31851.67769868466
 20
-1655.809265709646
 30
0.0
  0
VERTEX
  5
2AE
330
2A8
100
AcDbEntity
  8
3_ANYTOOL_CUTTHROUGH_INSID
100
AcDbVertex
100
AcDb2dVertex
 10
31851.67769868466
 20
-1661.809265709648
 30
0.0
  0
VERTEX
  5
2AF
330
2A8
100
AcDbEntity
  8
3_ANYTOOL_CUTTHROUGH_INSID
100
AcDbVertex
100
AcDb2dVertex
 10
31816.17769868466
 20
-1661.809265709712
 30
0.0
  0
VERTEX
  5
2B0
330
2A8
100
AcDbEntity
  8
3_ANYTOOL_CUTTHROUGH_INSID
100
AcDbVertex
100
AcDb2dVertex
 10
31816.17769868466
 20
-1655.809265709705
 30
0.0
  0
VERTEX
  5
2B1
330
2A8
100
AcDbEntity
  8
3_ANYTOOL_CUTTHROUGH_INSID
100
AcDbVertex
100
AcDb2dVertex
 10
31803.67769868466
 20
-1655.809265709709
 30
0.0
  0
VERTEX
  5
2B2
330
2A8
100
AcDbEntity
  8
3_ANYTOOL_CUTTHROUGH_INSID
100
AcDbVertex
100
AcDb2dVertex
 10
31803.67769868466
 20
-1704.309265709705
 30
0.0
  0
VERTEX
  5
2B3
330
2A8
100
AcDbEntity
  8
3_ANYTOOL_CUTTHROUGH_INSID
100
AcDbVertex
100
AcDb2dVertex
 10
31816.17769868466
 20
-1704.309265709705
 30
0.0
  0
VERTEX
  5
2B4
330
2A8
100
AcDbEntity
  8
3_ANYTOOL_CUTTHROUGH_INSID
100
AcDbVertex
100
AcDb2dVertex
 10
31816.17769868466
 20
-1698.309265709708
 30
0.0
  0
SEQEND
  5
2B5
330
2A8
100
AcDbEntity
  8
3_ANYTOOL_CUTTHROUGH_INSID
  0
POLYLINE
  5
2B6
330
1F
100
AcDbEntity
  8
3_ANYTOOL_CUTTHROUGH_INSID
100
AcDb2dPolyline
 66
     1
 10
0.0
 20
0.0
 30
0.0
 70
     1
  0
VERTEX
  5
2B7
330
2B6
100
AcDbEntity
  8
3_ANYTOOL_CUTTHROUGH_INSID
100
AcDbVertex
100
AcDb2dVertex
 10
31816.1776986847
 20
-1219.809265709727
 30
0.0
  0
VERTEX
  5
2B8
330
2B6
100
AcDbEntity
  8
3_ANYTOOL_CUTTHROUGH_INSID
100
AcDbVertex
100
AcDb2dVertex
 10
31803.6776986847
 20
-1219.809265709727
 30
0.0
  0
VERTEX
  5
2B9
330
2B6
100
AcDbEntity
  8
3_ANYTOOL_CUTTHROUGH_INSID
100
AcDbVertex
100
AcDb2dVertex
 10
31803.6776986847
 20
-1268.309265709726
 30
0.0
  0
VERTEX
  5
2BA
330
2B6
100
AcDbEntity
  8
3_ANYTOOL_CUTTHROUGH_INSID
100
AcDbVertex
100
AcDb2dVertex
 10
31816.1776986847
 20
-1268.309265709726
 30
0.0
  0
VERTEX
  5
2BB
330
2B6
100
AcDbEntity
  8
3_ANYTOOL_CUTTHROUGH_INSID
100
AcDbVertex
100
AcDb2dVertex
 10
31816.1776986847
 20
-1262.309265709726
 30
0.0
  0
VERTEX
  5
2BC
330
2B6
100
AcDbEntity
  8
3_ANYTOOL_CUTTHROUGH_INSID
100
AcDbVertex
100
AcDb2dVertex
 10
31851.6776986847
 20
-1262.309265709665
 30
0.0
  0
VERTEX
  5
2BD
330
2B6
100
AcDbEntity
  8
3_ANYTOOL_CUTTHROUGH_INSID
100
AcDbVertex
100
AcDb2dVertex
 10
31851.6776986847
 20
-1268.309265709663
 30
0.0
  0
VERTEX
  5
2BE
330
2B6
100
AcDbEntity
  8
3_ANYTOOL_CUTTHROUGH_INSID
100
AcDbVertex
100
AcDb2dVertex
 10
31864.1776986847
 20
-1268.309265709731
 30
0.0
  0
VERTEX
  5
2BF
330
2B6
100
AcDbEntity
  8
3_ANYTOOL_CUTTHROUGH_INSID
100
AcDbVertex
100
AcDb2dVertex
 10
31864.1776986847
 20
-1219.809265709739
 30
0.0
  0
VERTEX
  5
2C0
330
2B6
100
AcDbEntity
  8
3_ANYTOOL_CUTTHROUGH_INSID
100
AcDbVertex
100
AcDb2dVertex
 10
31851.6776986847
 20
-1219.809265709663
 30
0.0
  0
VERTEX
  5
2C1
330
2B6
100
AcDbEntity
  8
3_ANYTOOL_CUTTHROUGH_INSID
100
AcDbVertex
100
AcDb2dVertex
 10
31851.6776986847
 20
-1225.809265709665
 30
0.0
  0
VERTEX
  5
2C2
330
2B6
100
AcDbEntity
  8
3_ANYTOOL_CUTTHROUGH_INSID
100
AcDbVertex
100
AcDb2dVertex
 10
31816.1776986847
 20
-1225.809265709722
 30
0.0
  0
SEQEND
  5
2C3
330
2B6
100
AcDbEntity
  8
3_ANYTOOL_CUTTHROUGH_INSID
  0
POLYLINE
  5
2C4
330
1F
100
AcDbEntity
  8
3_ANYTOOL_CUTTHROUGH_INSID
100
AcDb2dPolyline
 66
     1
 10
0.0
 20
0.0
 30
0.0
 70
     1
  0
VERTEX
  5
2C5
330
2C4
100
AcDbEntity
  8
3_ANYTOOL_CUTTHROUGH_INSID
100
AcDbVertex
100
AcDb2dVertex
 10
31816.17769868468
 20
-1035.809265709206
 30
0.0
  0
VERTEX
  5
2C6
330
2C4
100
AcDbEntity
  8
3_ANYTOOL_CUTTHROUGH_INSID
100
AcDbVertex
100
AcDb2dVertex
 10
31803.67769868468
 20
-1035.809265709206
 30
0.0
  0
VERTEX
  5
2C7
330
2C4
100
AcDbEntity
  8
3_ANYTOOL_CUTTHROUGH_INSID
100
AcDbVertex
100
AcDb2dVertex
 10
31803.67769868469
 20
-1084.309265709205
 30
0.0
  0
VERTEX
  5
2C8
330
2C4
100
AcDbEntity
  8
3_ANYTOOL_CUTTHROUGH_INSID
100
AcDbVertex
100
AcDb2dVertex
 10
31816.17769868469
 20
-1084.309265709205
 30
0.0
  0
VERTEX
  5
2C9
330
2C4
100
AcDbEntity
  8
3_ANYTOOL_CUTTHROUGH_INSID
100
AcDbVertex
100
AcDb2dVertex
 10
31816.17769868469
 20
-1078.309265709205
 30
0.0
  0
VERTEX
  5
2CA
330
2C4
100
AcDbEntity
  8
3_ANYTOOL_CUTTHROUGH_INSID
100
AcDbVertex
100
AcDb2dVertex
 10
31851.67769868469
 20
-1078.309265709267
 30
0.0
  0
VERTEX
  5
2CB
330
2C4
100
AcDbEntity
  8
3_ANYTOOL_CUTTHROUGH_INSID
100
AcDbVertex
100
AcDb2dVertex
 10
31851.67769868469
 20
-1084.309265709269
 30
0.0
  0
VERTEX
  5
2CC
330
2C4
100
AcDbEntity
  8
3_ANYTOOL_CUTTHROUGH_INSID
100
AcDbVertex
100
AcDb2dVertex
 10
31864.17769868469
 20
-1084.309265709193
 30
0.0
  0
VERTEX
  5
2CD
330
2C4
100
AcDbEntity
  8
3_ANYTOOL_CUTTHROUGH_INSID
100
AcDbVertex
100
AcDb2dVertex
 10
31864.17769868468
 20
-1035.809265709197
 30
0.0
  0
VERTEX
  5
2CE
330
2C4
100
AcDbEntity
  8
3_ANYTOOL_CUTTHROUGH_INSID
100
AcDbVertex
100
AcDb2dVertex
 10
31851.67769868468
 20
-1035.809265709269
 30
0.0
  0
VERTEX
  5
2CF
330
2C4
100
AcDbEntity
  8
3_ANYTOOL_CUTTHROUGH_INSID
100
AcDbVertex
100
AcDb2dVertex
 10
31851.67769868469
 20
-1041.809265709263
 30
0.0
  0
VERTEX
  5
2D0
330
2C4
100
AcDbEntity
  8
3_ANYTOOL_CUTTHROUGH_INSID
100
AcDbVertex
100
AcDb2dVertex
 10
31816.17769868469
 20
-1041.809265709202
 30
0.0
  0
SEQEND
  5
2D1
330
2C4
100
AcDbEntity
  8
3_ANYTOOL_CUTTHROUGH_INSID
  0
POLYLINE
  5
2D2
330
1F
100
AcDbEntity
  8
3_ANYTOOL_CUTTHROUGH_INSID
100
AcDb2dPolyline
 66
     1
 10
0.0
 20
0.0
 30
0.0
 70
     1
  0
VERTEX
  5
2D3
330
2D2
100
AcDbEntity
  8
3_ANYTOOL_CUTTHROUGH_INSID
100
AcDbVertex
100
AcDb2dVertex
 10
31864.17769868464
 20
-648.3092657092103
 30
0.0
  0
VERTEX
  5
2D4
330
2D2
100
AcDbEntity
  8
3_ANYTOOL_CUTTHROUGH_INSID
100
AcDbVertex
100
AcDb2dVertex
 10
31864.17769868464
 20
-599.809265709211
 30
0.0
  0
VERTEX
  5
2D5
330
2D2
100
AcDbEntity
  8
3_ANYTOOL_CUTTHROUGH_INSID
100
AcDbVertex
100
AcDb2dVertex
 10
31851.67769868464
 20
-599.8092657092867
 30
0.0
  0
VERTEX
  5
2D6
330
2D2
100
AcDbEntity
  8
3_ANYTOOL_CUTTHROUGH_INSID
100
AcDbVertex
100
AcDb2dVertex
 10
31851.67769868464
 20
-605.8092657092847
 30
0.0
  0
VERTEX
  5
2D7
330
2D2
100
AcDbEntity
  8
3_ANYTOOL_CUTTHROUGH_INSID
100
AcDbVertex
100
AcDb2dVertex
 10
31816.17769868464
 20
-605.8092657092235
 30
0.0
  0
VERTEX
  5
2D8
330
2D2
100
AcDbEntity
  8
3_ANYTOOL_CUTTHROUGH_INSID
100
AcDbVertex
100
AcDb2dVertex
 10
31816.17769868464
 20
-599.809265709223
 30
0.0
  0
VERTEX
  5
2D9
330
2D2
100
AcDbEntity
  8
3_ANYTOOL_CUTTHROUGH_INSID
100
AcDbVertex
100
AcDb2dVertex
 10
31803.67769868464
 20
-599.8092657092269
 30
0.0
  0
VERTEX
  5
2DA
330
2D2
100
AcDbEntity
  8
3_ANYTOOL_CUTTHROUGH_INSID
100
AcDbVertex
100
AcDb2dVertex
 10
31803.67769868464
 20
-648.3092657092186
 30
0.0
  0
VERTEX
  5
2DB
330
2D2
100
AcDbEntity
  8
3_ANYTOOL_CUTTHROUGH_INSID
100
AcDbVertex
100
AcDb2dVertex
 10
31816.17769868464
 20
-648.3092657092226
 30
0.0
  0
VERTEX
  5
2DC
330
2D2
100
AcDbEntity
  8
3_ANYTOOL_CUTTHROUGH_INSID
100
AcDbVertex
100
AcDb2dVertex
 10
31816.17769868466
 20
-642.3092657092193
 30
0.0
  0
VERTEX
  5
2DD
330
2D2
100
AcDbEntity
  8
3_ANYTOOL_CUTTHROUGH_INSID
100
AcDbVertex
100
AcDb2dVertex
 10
31851.67769868465
 20
-642.3092657092841
 30
0.0
  0
VERTEX
  5
2DE
330
2D2
100
AcDbEntity
  8
3_ANYTOOL_CUTTHROUGH_INSID
100
AcDbVertex
100
AcDb2dVertex
 10
31851.67769868464
 20
-648.3092657092859
 30
0.0
  0
SEQEND
  5
2DF
330
2D2
100
AcDbEntity
  8
3_ANYTOOL_CUTTHROUGH_INSID
  0
POLYLINE
  5
2E0
330
1F
100
AcDbEntity
  8
3_ANYTOOL_CUTTHROUGH_INSID
100
AcDb2dPolyline
 66
     1
 10
0.0
 20
0.0
 30
0.0
 70
     1
  0
VERTEX
  5
2E1
330
2E0
100
AcDbEntity
  8
3_ANYTOOL_CUTTHROUGH_INSID
100
AcDbVertex
100
AcDb2dVertex
 10
31851.67769868464
 20
-478.3092657103934
 30
0.0
  0
VERTEX
  5
2E2
330
2E0
100
AcDbEntity
  8
3_ANYTOOL_CUTTHROUGH_INSID
100
AcDbVertex
100
AcDb2dVertex
 10
31851.67769868463
 20
-484.3092657103913
 30
0.0
  0
VERTEX
  5
2E3
330
2E0
100
AcDbEntity
  8
3_ANYTOOL_CUTTHROUGH_INSID
100
AcDbVertex
100
AcDb2dVertex
 10
31864.17769868463
 20
-484.3092657104672
 30
0.0
  0
VERTEX
  5
2E4
330
2E0
100
AcDbEntity
  8
3_ANYTOOL_CUTTHROUGH_INSID
100
AcDbVertex
100
AcDb2dVertex
 10
31864.17769868464
 20
-435.809265710468
 30
0.0
  0
VERTEX
  5
2E5
330
2E0
100
AcDbEntity
  8
3_ANYTOOL_CUTTHROUGH_INSID
100
AcDbVertex
100
AcDb2dVertex
 10
31851.67769868464
 20
-435.8092657103921
 30
0.0
  0
VERTEX
  5
2E6
330
2E0
100
AcDbEntity
  8
3_ANYTOOL_CUTTHROUGH_INSID
100
AcDbVertex
100
AcDb2dVertex
 10
31851.67769868465
 20
-441.809265710394
 30
0.0
  0
VERTEX
  5
2E7
330
2E0
100
AcDbEntity
  8
3_ANYTOOL_CUTTHROUGH_INSID
100
AcDbVertex
100
AcDb2dVertex
 10
31816.17769868465
 20
-441.8092657104584
 30
0.0
  0
VERTEX
  5
2E8
330
2E0
100
AcDbEntity
  8
3_ANYTOOL_CUTTHROUGH_INSID
100
AcDbVertex
100
AcDb2dVertex
 10
31816.17769868464
 20
-435.8092657104516
 30
0.0
  0
VERTEX
  5
2E9
330
2E0
100
AcDbEntity
  8
3_ANYTOOL_CUTTHROUGH_INSID
100
AcDbVertex
100
AcDb2dVertex
 10
31803.67769868464
 20
-435.8092657104553
 30
0.0
  0
VERTEX
  5
2EA
330
2E0
100
AcDbEntity
  8
3_ANYTOOL_CUTTHROUGH_INSID
100
AcDbVertex
100
AcDb2dVertex
 10
31803.67769868464
 20
-484.3092657104509
 30
0.0
  0
VERTEX
  5
2EB
330
2E0
100
AcDbEntity
  8
3_ANYTOOL_CUTTHROUGH_INSID
100
AcDbVertex
100
AcDb2dVertex
 10
31816.17769868464
 20
-484.309265710451
 30
0.0
  0
VERTEX
  5
2EC
330
2E0
100
AcDbEntity
  8
3_ANYTOOL_CUTTHROUGH_INSID
100
AcDbVertex
100
AcDb2dVertex
 10
31816.17769868464
 20
-478.3092657104542
 30
0.0
  0
SEQEND
  5
2ED
330
2E0
100
AcDbEntity
  8
3_ANYTOOL_CUTTHROUGH_INSID
  0
POLYLINE
  5
2EE
330
1F
100
AcDbEntity
  8
3_ANYTOOL_CUTTHROUGH_INSID
100
AcDb2dPolyline
 66
     1
 10
0.0
 20
0.0
 30
0.0
 70
     1
  0
VERTEX
  5
2EF
330
2EE
100
AcDbEntity
  8
3_ANYTOOL_CUTTHROUGH_INSID
100
AcDbVertex
100
AcDb2dVertex
 10
31816.17769868469
 20
0.1907342895270858
 30
0.0
  0
VERTEX
  5
2F0
330
2EE
100
AcDbEntity
  8
3_ANYTOOL_CUTTHROUGH_INSID
100
AcDbVertex
100
AcDb2dVertex
 10
31803.67769868469
 20
0.1907342895270858
 30
0.0
  0
VERTEX
  5
2F1
330
2EE
100
AcDbEntity
  8
3_ANYTOOL_CUTTHROUGH_INSID
100
AcDbVertex
100
AcDb2dVertex
 10
31803.67769868468
 20
-48.30926571047212
 30
0.0
  0
VERTEX
  5
2F2
330
2EE
100
AcDbEntity
  8
3_ANYTOOL_CUTTHROUGH_INSID
100
AcDbVertex
100
AcDb2dVertex
 10
31816.17769868468
 20
-48.30926571047218
 30
0.0
  0
VERTEX
  5
2F3
330
2EE
100
AcDbEntity
  8
3_ANYTOOL_CUTTHROUGH_INSID
100
AcDbVertex
100
AcDb2dVertex
 10
31816.17769868469
 20
-42.30926571047186
 30
0.0
  0
VERTEX
  5
2F4
330
2EE
100
AcDbEntity
  8
3_ANYTOOL_CUTTHROUGH_INSID
100
AcDbVertex
100
AcDb2dVertex
 10
31851.67769868469
 20
-42.30926571041098
 30
0.0
  0
VERTEX
  5
2F5
330
2EE
100
AcDbEntity
  8
3_ANYTOOL_CUTTHROUGH_INSID
100
AcDbVertex
100
AcDb2dVertex
 10
31851.67769868468
 20
-48.30926571040907
 30
0.0
  0
VERTEX
  5
2F6
330
2EE
100
AcDbEntity
  8
3_ANYTOOL_CUTTHROUGH_INSID
100
AcDbVertex
100
AcDb2dVertex
 10
31864.17769868468
 20
-48.30926571047735
 30
0.0
  0
VERTEX
  5
2F7
330
2EE
100
AcDbEntity
  8
3_ANYTOOL_CUTTHROUGH_INSID
100
AcDbVertex
100
AcDb2dVertex
 10
31864.17769868469
 20
0.1907342895144293
 30
0.0
  0
VERTEX
  5
2F8
330
2EE
100
AcDbEntity
  8
3_ANYTOOL_CUTTHROUGH_INSID
100
AcDbVertex
100
AcDb2dVertex
 10
31851.67769868469
 20
0.1907342895902193
 30
0.0
  0
VERTEX
  5
2F9
330
2EE
100
AcDbEntity
  8
3_ANYTOOL_CUTTHROUGH_INSID
100
AcDbVertex
100
AcDb2dVertex
 10
31851.67769868469
 20
-5.809265710411583
 30
0.0
  0
VERTEX
  5
2FA
330
2EE
100
AcDbEntity
  8
3_ANYTOOL_CUTTHROUGH_INSID
100
AcDbVertex
100
AcDb2dVertex
 10
31816.17769868469
 20
-5.809265710468748
 30
0.0
  0
SEQEND
  5
2FB
330
2EE
100
AcDbEntity
  8
3_ANYTOOL_CUTTHROUGH_INSID
  0
POLYLINE
  5
2FC
330
1F
100
AcDbEntity
  8
3_ANYTOOL_CUTTHROUGH_INSID
100
AcDb2dPolyline
 66
     1
 10
0.0
 20
0.0
 30
0.0
 70
     1
  0
VERTEX
  5
2FD
330
2FC
100
AcDbEntity
  8
3_ANYTOOL_CUTTHROUGH_INSID
100
AcDbVertex
100
AcDb2dVertex
 10
32096.67369870005
 20
-523.8092657117805
 30
0.0
  0
VERTEX
  5
2FE
330
2FC
100
AcDbEntity
  8
3_ANYTOOL_CUTTHROUGH_INSID
100
AcDbVertex
100
AcDb2dVertex
 10
32067.17369870005
 20
-523.809265710711
 30
0.0
  0
VERTEX
  5
2FF
330
2FC
100
AcDbEntity
  8
3_ANYTOOL_CUTTHROUGH_INSID
100
AcDbVertex
100
AcDb2dVertex
 10
32067.17369870005
 20
-408.3092657095932
 30
0.0
  0
VERTEX
  5
300
330
2FC
100
AcDbEntity
  8
3_ANYTOOL_CUTTHROUGH_INSID
100
AcDbVertex
100
AcDb2dVertex
 10
32073.17369870004
 20
-408.3092657095932
 30
0.0
  0
VERTEX
  5
301
330
2FC
100
AcDbEntity
  8
3_ANYTOOL_CUTTHROUGH_INSID
100
AcDbVertex
100
AcDb2dVertex
 10
32073.17369870004
 20
-395.8092657095933
 30
0.0
  0
VERTEX
  5
302
330
2FC
100
AcDbEntity
  8
3_ANYTOOL_CUTTHROUGH_INSID
100
AcDbVertex
100
AcDb2dVertex
 10
32024.67369869999
 20
-395.8092657095933
 30
0.0
  0
VERTEX
  5
303
330
2FC
100
AcDbEntity
  8
3_ANYTOOL_CUTTHROUGH_INSID
100
AcDbVertex
100
AcDb2dVertex
 10
32024.67369869999
 20
-408.3092657095932
 30
0.0
  0
VERTEX
  5
304
330
2FC
100
AcDbEntity
  8
3_ANYTOOL_CUTTHROUGH_INSID
100
AcDbVertex
100
AcDb2dVertex
 10
32030.67369869999
 20
-408.3092657095932
 30
0.0
  0
VERTEX
  5
305
330
2FC
100
AcDbEntity
  8
3_ANYTOOL_CUTTHROUGH_INSID
100
AcDbVertex
100
AcDb2dVertex
 10
32030.67369869999
 20
-523.809265710711
 30
0.0
  0
VERTEX
  5
306
330
2FC
100
AcDbEntity
  8
3_ANYTOOL_CUTTHROUGH_INSID
100
AcDbVertex
100
AcDb2dVertex
 10
32001.17369869977
 20
-523.8092657117805
 30
0.0
  0
VERTEX
  5
307
330
2FC
100
AcDbEntity
  8
3_ANYTOOL_CUTTHROUGH_INSID
100
AcDbVertex
100
AcDb2dVertex
 10
32001.17369869977
 20
-517.8092657117933
 30
0.0
  0
VERTEX
  5
308
330
2FC
100
AcDbEntity
  8
3_ANYTOOL_CUTTHROUGH_INSID
100
AcDbVertex
100
AcDb2dVertex
 10
31988.67369869977
 20
-517.8092657117933
 30
0.0
  0
VERTEX
  5
309
330
2FC
100
AcDbEntity
  8
3_ANYTOOL_CUTTHROUGH_INSID
100
AcDbVertex
100
AcDb2dVertex
 10
31988.67369869977
 20
-566.3092657118148
 30
0.0
  0
VERTEX
  5
30A
330
2FC
100
AcDbEntity
  8
3_ANYTOOL_CUTTHROUGH_INSID
100
AcDbVertex
100
AcDb2dVertex
 10
32001.17369869977
 20
-566.3092657118148
 30
0.0
  0
VERTEX
  5
30B
330
2FC
100
AcDbEntity
  8
3_ANYTOOL_CUTTHROUGH_INSID
100
AcDbVertex
100
AcDb2dVertex
 10
32001.17369869977
 20
-560.3092657118239
 30
0.0
  0
VERTEX
  5
30C
330
2FC
100
AcDbEntity
  8
3_ANYTOOL_CUTTHROUGH_INSID
100
AcDbVertex
100
AcDb2dVertex
 10
32030.67369869999
 20
-560.3092657128934
 30
0.0
  0
VERTEX
  5
30D
330
2FC
100
AcDbEntity
  8
3_ANYTOOL_CUTTHROUGH_INSID
100
AcDbVertex
100
AcDb2dVertex
 10
32030.6736987
 20
-675.8092657140076
 30
0.0
  0
VERTEX
  5
30E
330
2FC
100
AcDbEntity
  8
3_ANYTOOL_CUTTHROUGH_INSID
100
AcDbVertex
100
AcDb2dVertex
 10
32024.6736987
 20
-675.8092657140076
 30
0.0
  0
VERTEX
  5
30F
330
2FC
100
AcDbEntity
  8
3_ANYTOOL_CUTTHROUGH_INSID
100
AcDbVertex
100
AcDb2dVertex
 10
32024.6736987
 20
-688.3092657140074
 30
0.0
  0
VERTEX
  5
310
330
2FC
100
AcDbEntity
  8
3_ANYTOOL_CUTTHROUGH_INSID
100
AcDbVertex
100
AcDb2dVertex
 10
32073.17369870006
 20
-688.3092657140074
 30
0.0
  0
VERTEX
  5
311
330
2FC
100
AcDbEntity
  8
3_ANYTOOL_CUTTHROUGH_INSID
100
AcDbVertex
100
AcDb2dVertex
 10
32073.17369870006
 20
-675.8092657140076
 30
0.0
  0
VERTEX
  5
312
330
2FC
100
AcDbEntity
  8
3_ANYTOOL_CUTTHROUGH_INSID
100
AcDbVertex
100
AcDb2dVertex
 10
32067.17369870006
 20
-675.8092657140076
 30
0.0
  0
VERTEX
  5
313
330
2FC
100
AcDbEntity
  8
3_ANYTOOL_CUTTHROUGH_INSID
100
AcDbVertex
100
AcDb2dVertex
 10
32067.17369870005
 20
-560.3092657128971
 30
0.0
  0
VERTEX
  5
314
330
2FC
100
AcDbEntity
  8
3_ANYTOOL_CUTTHROUGH_INSID
100
AcDbVertex
100
AcDb2dVertex
 10
32096.67369870005
 20
-560.3092657118274
 30
0.0
  0
VERTEX
  5
315
330
2FC
100
AcDbEntity
  8
3_ANYTOOL_CUTTHROUGH_INSID
100
AcDbVertex
100
AcDb2dVertex
 10
32096.67369870005
 20
-566.3092657118148
 30
0.0
  0
VERTEX
  5
316
330
2FC
100
AcDbEntity
  8
3_ANYTOOL_CUTTHROUGH_INSID
100
AcDbVertex
100
AcDb2dVertex
 10
32109.17369870005
 20
-566.3092657118148
 30
0.0
  0
VERTEX
  5
317
330
2FC
100
AcDbEntity
  8
3_ANYTOOL_CUTTHROUGH_INSID
100
AcDbVertex
100
AcDb2dVertex
 10
32109.17369870005
 20
-517.8092657117895
 30
0.0
  0
VERTEX
  5
318
330
2FC
100
AcDbEntity
  8
3_ANYTOOL_CUTTHROUGH_INSID
100
AcDbVertex
100
AcDb2dVertex
 10
32096.67369870005
 20
-517.8092657117934
 30
0.0
  0
SEQEND
  5
319
330
2FC
100
AcDbEntity
  8
3_ANYTOOL_CUTTHROUGH_INSID
  0
POLYLINE
  5
31A
330
1F
100
AcDbEntity
  8
3_ANYTOOL_CUTTHROUGH_INSID
100
AcDb2dPolyline
 66
     1
 10
0.0
 20
0.0
 30
0.0
 70
     1
  0
VERTEX
  5
31B
330
31A
100
AcDbEntity
  8
3_ANYTOOL_CUTTHROUGH_INSID
100
AcDbVertex
100
AcDb2dVertex
 10
32198.17769868421
 20
-1490.578380358718
 30
0.0
  0
VERTEX
  5
31C
330
31A
100
AcDbEntity
  8
3_ANYTOOL_CUTTHROUGH_INSID
100
AcDbVertex
100
AcDb2dVertex
 10
32198.17769868421
 20
-1503.078380358686
 30
0.0
  0
VERTEX
  5
31D
330
31A
100
AcDbEntity
  8
3_ANYTOOL_CUTTHROUGH_INSID
100
AcDbVertex
100
AcDb2dVertex
 10
32167.67769868459
 20
-1503.078380362041
 30
0.0
  0
VERTEX
  5
31E
330
31A
100
AcDbEntity
  8
3_ANYTOOL_CUTTHROUGH_INSID
100
AcDbVertex
100
AcDb2dVertex
 10
32167.67769868459
 20
-1490.578380362011
 30
0.0
  0
VERTEX
  5
31F
330
31A
100
AcDbEntity
  8
3_ANYTOOL_CUTTHROUGH_INSID
100
AcDbVertex
100
AcDb2dVertex
 10
32173.67769868458
 20
-1490.578380362007
 30
0.0
  0
VERTEX
  5
320
330
31A
100
AcDbEntity
  8
3_ANYTOOL_CUTTHROUGH_INSID
100
AcDbVertex
100
AcDb2dVertex
 10
32173.67769868461
 20
-1411.078380362012
 30
0.0
  0
VERTEX
  5
321
330
31A
100
AcDbEntity
  8
3_ANYTOOL_CUTTHROUGH_INSID
100
AcDbVertex
100
AcDb2dVertex
 10
32167.67769868461
 20
-1411.078380362013
 30
0.0
  0
VERTEX
  5
322
330
31A
100
AcDbEntity
  8
3_ANYTOOL_CUTTHROUGH_INSID
100
AcDbVertex
100
AcDb2dVertex
 10
32167.67769868461
 20
-1398.578380362037
 30
0.0
  0
VERTEX
  5
323
330
31A
100
AcDbEntity
  8
3_ANYTOOL_CUTTHROUGH_INSID
100
AcDbVertex
100
AcDb2dVertex
 10
32198.17769868419
 20
-1398.578380358693
 30
0.0
  0
VERTEX
  5
324
330
31A
100
AcDbEntity
  8
3_ANYTOOL_CUTTHROUGH_INSID
100
AcDbVertex
100
AcDb2dVertex
 10
32198.17769868419
 20
-1411.078380358724
 30
0.0
  0
VERTEX
  5
325
330
31A
100
AcDbEntity
  8
3_ANYTOOL_CUTTHROUGH_INSID
100
AcDbVertex
100
AcDb2dVertex
 10
32192.1776986842
 20
-1411.078380358724
 30
0.0
  0
VERTEX
  5
326
330
31A
100
AcDbEntity
  8
3_ANYTOOL_CUTTHROUGH_INSID
100
AcDbVertex
100
AcDb2dVertex
 10
32192.1776986842
 20
-1490.578380358718
 30
0.0
  0
SEQEND
  5
327
330
31A
100
AcDbEntity
  8
3_ANYTOOL_CUTTHROUGH_INSID
  0
POLYLINE
  5
328
330
1F
100
AcDbEntity
  8
3_ANYTOOL_CUTTHROUGH_INSID
100
AcDb2dPolyline
 66
     1
 10
0.0
 20
0.0
 30
0.0
 70
     1
  0
VERTEX
  5
329
330
328
100
AcDbEntity
  8
3_ANYTOOL_CUTTHROUGH_INSID
100
AcDbVertex
100
AcDb2dVertex
 10
32167.67769868463
 20
-1886.578380360253
 30
0.0
  0
VERTEX
  5
32A
330
328
100
AcDbEntity
  8
3_ANYTOOL_CUTTHROUGH_INSID
100
AcDbVertex
100
AcDb2dVertex
 10
32173.67769868463
 20
-1886.578380360257
 30
0.0
  0
VERTEX
  5
32B
330
328
100
AcDbEntity
  8
3_ANYTOOL_CUTTHROUGH_INSID
100
AcDbVertex
100
AcDb2dVertex
 10
32173.67769868462
 20
-1615.078380362003
 30
0.0
  0
VERTEX
  5
32C
330
328
100
AcDbEntity
  8
3_ANYTOOL_CUTTHROUGH_INSID
100
AcDbVertex
100
AcDb2dVertex
 10
32167.67769868462
 20
-1615.078380362007
 30
0.0
  0
VERTEX
  5
32D
330
328
100
AcDbEntity
  8
3_ANYTOOL_CUTTHROUGH_INSID
100
AcDbVertex
100
AcDb2dVertex
 10
32167.67769868462
 20
-1602.578380362033
 30
0.0
  0
VERTEX
  5
32E
330
328
100
AcDbEntity
  8
3_ANYTOOL_CUTTHROUGH_INSID
100
AcDbVertex
100
AcDb2dVertex
 10
32198.17769867272
 20
-1602.578380359311
 30
0.0
  0
VERTEX
  5
32F
330
328
100
AcDbEntity
  8
3_ANYTOOL_CUTTHROUGH_INSID
100
AcDbVertex
100
AcDb2dVertex
 10
32198.17769867145
 20
-1615.078380359359
 30
0.0
  0
VERTEX
  5
330
330
328
100
AcDbEntity
  8
3_ANYTOOL_CUTTHROUGH_INSID
100
AcDbVertex
100
AcDb2dVertex
 10
32192.17769868299
 20
-1615.07838035874
 30
0.0
  0
VERTEX
  5
331
330
328
100
AcDbEntity
  8
3_ANYTOOL_CUTTHROUGH_INSID
100
AcDbVertex
100
AcDb2dVertex
 10
32192.177698683
 20
-1886.578380363516
 30
0.0
  0
VERTEX
  5
332
330
328
100
AcDbEntity
  8
3_ANYTOOL_CUTTHROUGH_INSID
100
AcDbVertex
100
AcDb2dVertex
 10
32198.17769867147
 20
-1886.578380362898
 30
0.0
  0
VERTEX
  5
333
330
328
100
AcDbEntity
  8
3_ANYTOOL_CUTTHROUGH_INSID
100
AcDbVertex
100
AcDb2dVertex
 10
32198.17769867275
 20
-1899.078380362945
 30
0.0
  0
VERTEX
  5
334
330
328
100
AcDbEntity
  8
3_ANYTOOL_CUTTHROUGH_INSID
100
AcDbVertex
100
AcDb2dVertex
 10
32167.67769868463
 20
-1899.078380360223
 30
0.0
  0
SEQEND
  5
335
330
328
100
AcDbEntity
  8
3_ANYTOOL_CUTTHROUGH_INSID
  0
POLYLINE
  5
336
330
1F
100
AcDbEntity
  8
3_ANYTOOL_CUTTHROUGH_INSID
100
AcDb2dPolyline
 66
     1
 10
0.0
 20
0.0
 30
0.0
 70
     1
  0
VERTEX
  5
337
330
336
100
AcDbEntity
  8
3_ANYTOOL_CUTTHROUGH_INSID
100
AcDbVertex
100
AcDb2dVertex
 10
32167.67769868464
 20
-2090.578380360248
 30
0.0
  0
VERTEX
  5
338
330
336
100
AcDbEntity
  8
3_ANYTOOL_CUTTHROUGH_INSID
100
AcDbVertex
100
AcDb2dVertex
 10
32173.67769868464
 20
-2090.578380360248
 30
0.0
  0
VERTEX
  5
339
330
336
100
AcDbEntity
  8
3_ANYTOOL_CUTTHROUGH_INSID
100
AcDbVertex
100
AcDb2dVertex
 10
32173.67769868462
 20
-2011.078380360257
 30
0.0
  0
VERTEX
  5
33A
330
336
100
AcDbEntity
  8
3_ANYTOOL_CUTTHROUGH_INSID
100
AcDbVertex
100
AcDb2dVertex
 10
32167.67769868462
 20
-2011.07838036025
 30
0.0
  0
VERTEX
  5
33B
330
336
100
AcDbEntity
  8
3_ANYTOOL_CUTTHROUGH_INSID
100
AcDbVertex
100
AcDb2dVertex
 10
32167.67769868461
 20
-1998.578380360219
 30
0.0
  0
VERTEX
  5
33C
330
336
100
AcDbEntity
  8
3_ANYTOOL_CUTTHROUGH_INSID
100
AcDbVertex
100
AcDb2dVertex
 10
32198.17769868423
 20
-1998.578380363574
 30
0.0
  0
VERTEX
  5
33D
330
336
100
AcDbEntity
  8
3_ANYTOOL_CUTTHROUGH_INSID
100
AcDbVertex
100
AcDb2dVertex
 10
32198.17769868424
 20
-2011.078380363539
 30
0.0
  0
VERTEX
  5
33E
330
336
100
AcDbEntity
  8
3_ANYTOOL_CUTTHROUGH_INSID
100
AcDbVertex
100
AcDb2dVertex
 10
32192.17769868423
 20
-2011.078380363539
 30
0.0
  0
VERTEX
  5
33F
330
336
100
AcDbEntity
  8
3_ANYTOOL_CUTTHROUGH_INSID
100
AcDbVertex
100
AcDb2dVertex
 10
32192.17769868423
 20
-2090.578380363536
 30
0.0
  0
VERTEX
  5
340
330
336
100
AcDbEntity
  8
3_ANYTOOL_CUTTHROUGH_INSID
100
AcDbVertex
100
AcDb2dVertex
 10
32198.17769868423
 20
-2090.578380363536
 30
0.0
  0
VERTEX
  5
341
330
336
100
AcDbEntity
  8
3_ANYTOOL_CUTTHROUGH_INSID
100
AcDbVertex
100
AcDb2dVertex
 10
32198.17769868423
 20
-2103.078380363563
 30
0.0
  0
VERTEX
  5
342
330
336
100
AcDbEntity
  8
3_ANYTOOL_CUTTHROUGH_INSID
100
AcDbVertex
100
AcDb2dVertex
 10
32167.67769868464
 20
-2103.078380360224
 30
0.0
  0
SEQEND
  5
343
330
336
100
AcDbEntity
  8
3_ANYTOOL_CUTTHROUGH_INSID
  0
POLYLINE
  5
344
330
1F
100
AcDbEntity
  8
3_ANYTOOL_CUTTHROUGH_INSID
100
AcDb2dPolyline
 66
     1
 10
0.0
 20
0.0
 30
0.0
 70
     1
  0
VERTEX
  5
345
330
344
100
AcDbEntity
  8
3_ANYTOOL_CUTTHROUGH_INSID
100
AcDbVertex
100
AcDb2dVertex
 10
32292.17369869841
 20
-2247.809265710355
 30
0.0
  0
VERTEX
  5
346
330
344
100
AcDbEntity
  8
3_ANYTOOL_CUTTHROUGH_INSID
100
AcDbVertex
100
AcDb2dVertex
 10
32286.1736986984
 20
-2247.809265710352
 30
0.0
  0
VERTEX
  5
347
330
344
100
AcDbEntity
  8
3_ANYTOOL_CUTTHROUGH_INSID
100
AcDbVertex
100
AcDb2dVertex
 10
32286.17369869837
 20
-2172.309265710352
 30
0.0
  0
VERTEX
  5
348
330
344
100
AcDbEntity
  8
3_ANYTOOL_CUTTHROUGH_INSID
100
AcDbVertex
100
AcDb2dVertex
 10
32292.17369869836
 20
-2172.309265710354
 30
0.0
  0
VERTEX
  5
349
330
344
100
AcDbEntity
  8
3_ANYTOOL_CUTTHROUGH_INSID
100
AcDbVertex
100
AcDb2dVertex
 10
32292.17369869835
 20
-2159.809265710358
 30
0.0
  0
VERTEX
  5
34A
330
344
100
AcDbEntity
  8
3_ANYTOOL_CUTTHROUGH_INSID
100
AcDbVertex
100
AcDb2dVertex
 10
32280.17369869835
 20
-2159.809265710345
 30
0.0
  0
VERTEX
  5
34B
330
344
100
AcDbEntity
  8
3_ANYTOOL_CUTTHROUGH_INSID
100
AcDbVertex
100
AcDb2dVertex
 10
32280.17369869835
 20
-2153.809265710346
 30
0.0
  0
VERTEX
  5
34C
330
344
100
AcDbEntity
  8
3_ANYTOOL_CUTTHROUGH_INSID
100
AcDbVertex
100
AcDb2dVertex
 10
32267.67369869835
 20
-2153.809265710344
 30
0.0
  0
VERTEX
  5
34D
330
344
100
AcDbEntity
  8
3_ANYTOOL_CUTTHROUGH_INSID
100
AcDbVertex
100
AcDb2dVertex
 10
32267.67369869841
 20
-2266.309265710341
 30
0.0
  0
VERTEX
  5
34E
330
344
100
AcDbEntity
  8
3_ANYTOOL_CUTTHROUGH_INSID
100
AcDbVertex
100
AcDb2dVertex
 10
32280.17369869841
 20
-2266.30926571035
 30
0.0
  0
VERTEX
  5
34F
330
344
100
AcDbEntity
  8
3_ANYTOOL_CUTTHROUGH_INSID
100
AcDbVertex
100
AcDb2dVertex
 10
32280.17369869841
 20
-2260.309265710345
 30
0.0
  0
VERTEX
  5
350
330
344
100
AcDbEntity
  8
3_ANYTOOL_CUTTHROUGH_INSID
100
AcDbVertex
100
AcDb2dVertex
 10
32292.17369869842
 20
-2260.309265710357
 30
0.0
  0
SEQEND
  5
351
330
344
100
AcDbEntity
  8
3_ANYTOOL_CUTTHROUGH_INSID
  0
POLYLINE
  5
352
330
1F
100
AcDbEntity
  8
3_ANYTOOL_CUTTHROUGH_INSID
100
AcDb2dPolyline
 66
     1
 10
0.0
 20
0.0
 30
0.0
 70
     1
  0
VERTEX
  5
353
330
352
100
AcDbEntity
  8
3_ANYTOOL_CUTTHROUGH_INSID
100
AcDbVertex
100
AcDb2dVertex
 10
32825.67369869828
 20
-2247.809265710356
 30
0.0
  0
VERTEX
  5
354
330
352
100
AcDbEntity
  8
3_ANYTOOL_CUTTHROUGH_INSID
100
AcDbVertex
100
AcDb2dVertex
 10
32831.67369869829
 20
-2247.809265710353
 30
0.0
  0
VERTEX
  5
355
330
352
100
AcDbEntity
  8
3_ANYTOOL_CUTTHROUGH_INSID
100
AcDbVertex
100
AcDb2dVertex
 10
32831.67369869832
 20
-2172.309265710353
 30
0.0
  0
VERTEX
  5
356
330
352
100
AcDbEntity
  8
3_ANYTOOL_CUTTHROUGH_INSID
100
AcDbVertex
100
AcDb2dVertex
 10
32825.67369869833
 20
-2172.309265710355
 30
0.0
  0
VERTEX
  5
357
330
352
100
AcDbEntity
  8
3_ANYTOOL_CUTTHROUGH_INSID
100
AcDbVertex
100
AcDb2dVertex
 10
32825.67369869834
 20
-2159.809265710358
 30
0.0
  0
VERTEX
  5
358
330
352
100
AcDbEntity
  8
3_ANYTOOL_CUTTHROUGH_INSID
100
AcDbVertex
100
AcDb2dVertex
 10
32837.67369869834
 20
-2159.809265710346
 30
0.0
  0
VERTEX
  5
359
330
352
100
AcDbEntity
  8
3_ANYTOOL_CUTTHROUGH_INSID
100
AcDbVertex
100
AcDb2dVertex
 10
32837.67369869834
 20
-2153.809265710347
 30
0.0
  0
VERTEX
  5
35A
330
352
100
AcDbEntity
  8
3_ANYTOOL_CUTTHROUGH_INSID
100
AcDbVertex
100
AcDb2dVertex
 10
32850.17369869835
 20
-2153.809265710344
 30
0.0
  0
VERTEX
  5
35B
330
352
100
AcDbEntity
  8
3_ANYTOOL_CUTTHROUGH_INSID
100
AcDbVertex
100
AcDb2dVertex
 10
32850.17369869829
 20
-2266.309265710342
 30
0.0
  0
VERTEX
  5
35C
330
352
100
AcDbEntity
  8
3_ANYTOOL_CUTTHROUGH_INSID
100
AcDbVertex
100
AcDb2dVertex
 10
32837.67369869829
 20
-2266.309265710351
 30
0.0
  0
VERTEX
  5
35D
330
352
100
AcDbEntity
  8
3_ANYTOOL_CUTTHROUGH_INSID
100
AcDbVertex
100
AcDb2dVertex
 10
32837.67369869829
 20
-2260.309265710346
 30
0.0
  0
VERTEX
  5
35E
330
352
100
AcDbEntity
  8
3_ANYTOOL_CUTTHROUGH_INSID
100
AcDbVertex
100
AcDb2dVertex
 10
32825.67369869828
 20
-2260.309265710358
 30
0.0
  0
SEQEND
  5
35F
330
352
100
AcDbEntity
  8
3_ANYTOOL_CUTTHROUGH_INSID
  0
POLYLINE
  5
360
330
1F
100
AcDbEntity
  8
4_ANYTOOL_CUTTHROUGH_OUTSI
100
AcDb2dPolyline
 66
     1
 10
0.0
 20
0.0
 30
0.0
 70
     1
  0
VERTEX
  5
361
330
360
100
AcDbEntity
  8
4_ANYTOOL_CUTTHROUGH_OUTSI
100
AcDbVertex
100
AcDb2dVertex
 10
31680.1776986848
 20
-1601.809265709493
 30
0.0
  0
VERTEX
  5
362
330
360
100
AcDbEntity
  8
4_ANYTOOL_CUTTHROUGH_OUTSI
100
AcDbVertex
100
AcDb2dVertex
 10
31680.17769868481
 20
-1526.30926570949
 30
0.0
  0
VERTEX
  5
363
330
360
100
AcDbEntity
  8
4_ANYTOOL_CUTTHROUGH_OUTSI
100
AcDbVertex
100
AcDb2dVertex
 10
31686.17769868481
 20
-1526.309265709486
 30
0.0
  0
VERTEX
  5
364
330
360
100
AcDbEntity
  8
4_ANYTOOL_CUTTHROUGH_OUTSI
100
AcDbVertex
100
AcDb2dVertex
 10
31686.17769868481
 20
-1513.809265709491
 30
0.0
  0
VERTEX
  5
365
330
360
100
AcDbEntity
  8
4_ANYTOOL_CUTTHROUGH_OUTSI
100
AcDbVertex
100
AcDb2dVertex
 10
31662.17769868481
 20
-1513.809265709491
 30
0.0
  0
VERTEX
  5
366
330
360
100
AcDbEntity
  8
4_ANYTOOL_CUTTHROUGH_OUTSI
100
AcDbVertex
100
AcDb2dVertex
 10
31662.17769868482
 20
-1410.309265709558
 30
0.0
  0
VERTEX
  5
367
330
360
100
AcDbEntity
  8
4_ANYTOOL_CUTTHROUGH_OUTSI
100
AcDbVertex
100
AcDb2dVertex
 10
31686.17769868482
 20
-1410.309265709561
 30
0.0
  0
VERTEX
  5
368
330
360
100
AcDbEntity
  8
4_ANYTOOL_CUTTHROUGH_OUTSI
100
AcDbVertex
100
AcDb2dVertex
 10
31686.17769868482
 20
-1397.809265709565
 30
0.0
  0
VERTEX
  5
369
330
360
100
AcDbEntity
  8
4_ANYTOOL_CUTTHROUGH_OUTSI
100
AcDbVertex
100
AcDb2dVertex
 10
31680.17769868482
 20
-1397.809265709558
 30
0.0
  0
VERTEX
  5
36A
330
360
100
AcDbEntity
  8
4_ANYTOOL_CUTTHROUGH_OUTSI
100
AcDbVertex
100
AcDb2dVertex
 10
31680.17769868483
 20
-1322.309265709557
 30
0.0
  0
VERTEX
  5
36B
330
360
100
AcDbEntity
  8
4_ANYTOOL_CUTTHROUGH_OUTSI
100
AcDbVertex
100
AcDb2dVertex
 10
31686.17769868483
 20
-1322.309265709561
 30
0.0
  0
VERTEX
  5
36C
330
360
100
AcDbEntity
  8
4_ANYTOOL_CUTTHROUGH_OUTSI
100
AcDbVertex
100
AcDb2dVertex
 10
31686.17769868483
 20
-1309.809265709565
 30
0.0
  0
VERTEX
  5
36D
330
360
100
AcDbEntity
  8
4_ANYTOOL_CUTTHROUGH_OUTSI
100
AcDbVertex
100
AcDb2dVertex
 10
31662.17769868483
 20
-1309.809265709561
 30
0.0
  0
VERTEX
  5
36E
330
360
100
AcDbEntity
  8
4_ANYTOOL_CUTTHROUGH_OUTSI
100
AcDbVertex
100
AcDb2dVertex
 10
31662.1776986848
 20
-1180.309265709537
 30
0.0
  0
VERTEX
  5
36F
330
360
100
AcDbEntity
  8
4_ANYTOOL_CUTTHROUGH_OUTSI
100
AcDbVertex
100
AcDb2dVertex
 10
31681.67769868468
 20
-1180.30926570948
 30
0.0
  0
VERTEX
  5
370
330
360
100
AcDbEntity
  8
4_ANYTOOL_CUTTHROUGH_OUTSI
100
AcDbVertex
100
AcDb2dVertex
 10
31681.67769868468
 20
-1186.309265709479
 30
0.0
  0
VERTEX
  5
371
330
360
100
AcDbEntity
  8
4_ANYTOOL_CUTTHROUGH_OUTSI
100
AcDbVertex
100
AcDb2dVertex
 10
31694.17769868468
 20
-1186.309265709479
 30
0.0
  0
VERTEX
  5
372
330
360
100
AcDbEntity
  8
4_ANYTOOL_CUTTHROUGH_OUTSI
100
AcDbVertex
100
AcDb2dVertex
 10
31694.17769868469
 20
-1162.309265709487
 30
0.0
  0
VERTEX
  5
373
330
360
100
AcDbEntity
  8
4_ANYTOOL_CUTTHROUGH_OUTSI
100
AcDbVertex
100
AcDb2dVertex
 10
31793.67769868472
 20
-1162.309265709654
 30
0.0
  0
VERTEX
  5
374
330
360
100
AcDbEntity
  8
4_ANYTOOL_CUTTHROUGH_OUTSI
100
AcDbVertex
100
AcDb2dVertex
 10
31793.6776986847
 20
-1186.309265709653
 30
0.0
  0
VERTEX
  5
375
330
360
100
AcDbEntity
  8
4_ANYTOOL_CUTTHROUGH_OUTSI
100
AcDbVertex
100
AcDb2dVertex
 10
31806.1776986847
 20
-1186.309265709729
 30
0.0
  0
VERTEX
  5
376
330
360
100
AcDbEntity
  8
4_ANYTOOL_CUTTHROUGH_OUTSI
100
AcDbVertex
100
AcDb2dVertex
 10
31806.1776986847
 20
-1180.309265709727
 30
0.0
  0
VERTEX
  5
377
330
360
100
AcDbEntity
  8
4_ANYTOOL_CUTTHROUGH_OUTSI
100
AcDbVertex
100
AcDb2dVertex
 10
31893.6776986847
 20
-1180.309265709688
 30
0.0
  0
VERTEX
  5
378
330
360
100
AcDbEntity
  8
4_ANYTOOL_CUTTHROUGH_OUTSI
100
AcDbVertex
100
AcDb2dVertex
 10
31893.67769868469
 20
-1361.809265709678
 30
0.0
  0
VERTEX
  5
379
330
360
100
AcDbEntity
  8
4_ANYTOOL_CUTTHROUGH_OUTSI
100
AcDbVertex
100
AcDb2dVertex
 10
31869.67769868475
 20
-1361.809265709674
 30
0.0
  0
VERTEX
  5
37A
330
360
100
AcDbEntity
  8
4_ANYTOOL_CUTTHROUGH_OUTSI
100
AcDbVertex
100
AcDb2dVertex
 10
31869.67769868475
 20
-1374.30926570967
 30
0.0
  0
VERTEX
  5
37B
330
360
100
AcDbEntity
  8
4_ANYTOOL_CUTTHROUGH_OUTSI
100
AcDbVertex
100
AcDb2dVertex
 10
31875.67769868475
 20
-1374.30926570967
 30
0.0
  0
VERTEX
  5
37C
330
360
100
AcDbEntity
  8
4_ANYTOOL_CUTTHROUGH_OUTSI
100
AcDbVertex
100
AcDb2dVertex
 10
31875.67769868474
 20
-1549.809265709658
 30
0.0
  0
VERTEX
  5
37D
330
360
100
AcDbEntity
  8
4_ANYTOOL_CUTTHROUGH_OUTSI
100
AcDbVertex
100
AcDb2dVertex
 10
31869.67769868473
 20
-1549.809265709658
 30
0.0
  0
VERTEX
  5
37E
330
360
100
AcDbEntity
  8
4_ANYTOOL_CUTTHROUGH_OUTSI
100
AcDbVertex
100
AcDb2dVertex
 10
31869.67769868473
 20
-1562.309265709658
 30
0.0
  0
VERTEX
  5
37F
330
360
100
AcDbEntity
  8
4_ANYTOOL_CUTTHROUGH_OUTSI
100
AcDbVertex
100
AcDb2dVertex
 10
31893.67769868466
 20
-1562.309265709665
 30
0.0
  0
VERTEX
  5
380
330
360
100
AcDbEntity
  8
4_ANYTOOL_CUTTHROUGH_OUTSI
100
AcDbVertex
100
AcDb2dVertex
 10
31893.67769868466
 20
-1743.809265709093
 30
0.0
  0
VERTEX
  5
381
330
360
100
AcDbEntity
  8
4_ANYTOOL_CUTTHROUGH_OUTSI
100
AcDbVertex
100
AcDb2dVertex
 10
31876.17769868466
 20
-1743.809265709093
 30
0.0
  0
VERTEX
  5
382
330
360
100
AcDbEntity
  8
4_ANYTOOL_CUTTHROUGH_OUTSI
100
AcDbVertex
100
AcDb2dVertex
 10
31876.17769868466
 20
-1737.809265709093
 30
0.0
  0
VERTEX
  5
383
330
360
100
AcDbEntity
  8
4_ANYTOOL_CUTTHROUGH_OUTSI
100
AcDbVertex
100
AcDb2dVertex
 10
31863.67769868466
 20
-1737.809265709093
 30
0.0
  0
VERTEX
  5
384
330
360
100
AcDbEntity
  8
4_ANYTOOL_CUTTHROUGH_OUTSI
100
AcDbVertex
100
AcDb2dVertex
 10
31863.67769868466
 20
-1786.309265709092
 30
0.0
  0
VERTEX
  5
385
330
360
100
AcDbEntity
  8
4_ANYTOOL_CUTTHROUGH_OUTSI
100
AcDbVertex
100
AcDb2dVertex
 10
31876.17769868466
 20
-1786.309265709093
 30
0.0
  0
VERTEX
  5
386
330
360
100
AcDbEntity
  8
4_ANYTOOL_CUTTHROUGH_OUTSI
100
AcDbVertex
100
AcDb2dVertex
 10
31876.17769868466
 20
-1780.309265709093
 30
0.0
  0
VERTEX
  5
387
330
360
100
AcDbEntity
  8
4_ANYTOOL_CUTTHROUGH_OUTSI
100
AcDbVertex
100
AcDb2dVertex
 10
31893.67769868466
 20
-1780.309265709093
 30
0.0
  0
VERTEX
  5
388
330
360
100
AcDbEntity
  8
4_ANYTOOL_CUTTHROUGH_OUTSI
100
AcDbVertex
100
AcDb2dVertex
 10
31893.67769868467
 20
-1961.809265708521
 30
0.0
  0
VERTEX
  5
389
330
360
100
AcDbEntity
  8
4_ANYTOOL_CUTTHROUGH_OUTSI
100
AcDbVertex
100
AcDb2dVertex
 10
31869.67769868474
 20
-1961.809265708528
 30
0.0
  0
VERTEX
  5
38A
330
360
100
AcDbEntity
  8
4_ANYTOOL_CUTTHROUGH_OUTSI
100
AcDbVertex
100
AcDb2dVertex
 10
31869.67769868474
 20
-1974.309265708528
 30
0.0
  0
VERTEX
  5
38B
330
360
100
AcDbEntity
  8
4_ANYTOOL_CUTTHROUGH_OUTSI
100
AcDbVertex
100
AcDb2dVertex
 10
31875.67769868474
 20
-1974.309265708524
 30
0.0
  0
VERTEX
  5
38C
330
360
100
AcDbEntity
  8
4_ANYTOOL_CUTTHROUGH_OUTSI
100
AcDbVertex
100
AcDb2dVertex
 10
31875.67769868475
 20
-2149.809265708516
 30
0.0
  0
VERTEX
  5
38D
330
360
100
AcDbEntity
  8
4_ANYTOOL_CUTTHROUGH_OUTSI
100
AcDbVertex
100
AcDb2dVertex
 10
31869.67769868475
 20
-2149.809265708516
 30
0.0
  0
VERTEX
  5
38E
330
360
100
AcDbEntity
  8
4_ANYTOOL_CUTTHROUGH_OUTSI
100
AcDbVertex
100
AcDb2dVertex
 10
31869.67769868475
 20
-2162.309265708508
 30
0.0
  0
VERTEX
  5
38F
330
360
100
AcDbEntity
  8
4_ANYTOOL_CUTTHROUGH_OUTSI
100
AcDbVertex
100
AcDb2dVertex
 10
31893.67769868469
 20
-2162.309265708509
 30
0.0
  0
VERTEX
  5
390
330
360
100
AcDbEntity
  8
4_ANYTOOL_CUTTHROUGH_OUTSI
100
AcDbVertex
100
AcDb2dVertex
 10
31893.6776986847
 20
-2343.809265708499
 30
0.0
  0
VERTEX
  5
391
330
360
100
AcDbEntity
  8
4_ANYTOOL_CUTTHROUGH_OUTSI
100
AcDbVertex
100
AcDb2dVertex
 10
31806.17769868471
 20
-2343.809265708454
 30
0.0
  0
VERTEX
  5
392
330
360
100
AcDbEntity
  8
4_ANYTOOL_CUTTHROUGH_OUTSI
100
AcDbVertex
100
AcDb2dVertex
 10
31806.17769868471
 20
-2337.809265708453
 30
0.0
  0
VERTEX
  5
393
330
360
100
AcDbEntity
  8
4_ANYTOOL_CUTTHROUGH_OUTSI
100
AcDbVertex
100
AcDb2dVertex
 10
31793.6776986847
 20
-2337.809265708529
 30
0.0
  0
VERTEX
  5
394
330
360
100
AcDbEntity
  8
4_ANYTOOL_CUTTHROUGH_OUTSI
100
AcDbVertex
100
AcDb2dVertex
 10
31793.67769868471
 20
-2361.809265708527
 30
0.0
  0
VERTEX
  5
395
330
360
100
AcDbEntity
  8
4_ANYTOOL_CUTTHROUGH_OUTSI
100
AcDbVertex
100
AcDb2dVertex
 10
31694.17769868469
 20
-2361.809265708697
 30
0.0
  0
VERTEX
  5
396
330
360
100
AcDbEntity
  8
4_ANYTOOL_CUTTHROUGH_OUTSI
100
AcDbVertex
100
AcDb2dVertex
 10
31694.17769868468
 20
-2337.809265708705
 30
0.0
  0
VERTEX
  5
397
330
360
100
AcDbEntity
  8
4_ANYTOOL_CUTTHROUGH_OUTSI
100
AcDbVertex
100
AcDb2dVertex
 10
31681.67769868468
 20
-2337.809265708705
 30
0.0
  0
VERTEX
  5
398
330
360
100
AcDbEntity
  8
4_ANYTOOL_CUTTHROUGH_OUTSI
100
AcDbVertex
100
AcDb2dVertex
 10
31681.67769868468
 20
-2343.809265708701
 30
0.0
  0
VERTEX
  5
399
330
360
100
AcDbEntity
  8
4_ANYTOOL_CUTTHROUGH_OUTSI
100
AcDbVertex
100
AcDb2dVertex
 10
31662.17769868479
 20
-2343.809265708651
 30
0.0
  0
VERTEX
  5
39A
330
360
100
AcDbEntity
  8
4_ANYTOOL_CUTTHROUGH_OUTSI
100
AcDbVertex
100
AcDb2dVertex
 10
31662.17769868483
 20
-2214.309265708623
 30
0.0
  0
VERTEX
  5
39B
330
360
100
AcDbEntity
  8
4_ANYTOOL_CUTTHROUGH_OUTSI
100
AcDbVertex
100
AcDb2dVertex
 10
31686.17769868483
 20
-2214.309265708619
 30
0.0
  0
VERTEX
  5
39C
330
360
100
AcDbEntity
  8
4_ANYTOOL_CUTTHROUGH_OUTSI
100
AcDbVertex
100
AcDb2dVertex
 10
31686.17769868482
 20
-2201.809265708623
 30
0.0
  0
VERTEX
  5
39D
330
360
100
AcDbEntity
  8
4_ANYTOOL_CUTTHROUGH_OUTSI
100
AcDbVertex
100
AcDb2dVertex
 10
31680.17769868482
 20
-2201.809265708627
 30
0.0
  0
VERTEX
  5
39E
330
360
100
AcDbEntity
  8
4_ANYTOOL_CUTTHROUGH_OUTSI
100
AcDbVertex
100
AcDb2dVertex
 10
31680.17769868482
 20
-2126.309265708626
 30
0.0
  0
VERTEX
  5
39F
330
360
100
AcDbEntity
  8
4_ANYTOOL_CUTTHROUGH_OUTSI
100
AcDbVertex
100
AcDb2dVertex
 10
31686.17769868482
 20
-2126.309265708619
 30
0.0
  0
VERTEX
  5
3A0
330
360
100
AcDbEntity
  8
4_ANYTOOL_CUTTHROUGH_OUTSI
100
AcDbVertex
100
AcDb2dVertex
 10
31686.17769868482
 20
-2113.809265708623
 30
0.0
  0
VERTEX
  5
3A1
330
360
100
AcDbEntity
  8
4_ANYTOOL_CUTTHROUGH_OUTSI
100
AcDbVertex
100
AcDb2dVertex
 10
31662.17769868482
 20
-2113.809265708626
 30
0.0
  0
VERTEX
  5
3A2
330
360
100
AcDbEntity
  8
4_ANYTOOL_CUTTHROUGH_OUTSI
100
AcDbVertex
100
AcDb2dVertex
 10
31662.17769868481
 20
-2010.309265708693
 30
0.0
  0
VERTEX
  5
3A3
330
360
100
AcDbEntity
  8
4_ANYTOOL_CUTTHROUGH_OUTSI
100
AcDbVertex
100
AcDb2dVertex
 10
31686.17769868481
 20
-2010.309265708694
 30
0.0
  0
VERTEX
  5
3A4
330
360
100
AcDbEntity
  8
4_ANYTOOL_CUTTHROUGH_OUTSI
100
AcDbVertex
100
AcDb2dVertex
 10
31686.17769868481
 20
-1997.809265708698
 30
0.0
  0
VERTEX
  5
3A5
330
360
100
AcDbEntity
  8
4_ANYTOOL_CUTTHROUGH_OUTSI
100
AcDbVertex
100
AcDb2dVertex
 10
31680.17769868481
 20
-1997.809265708694
 30
0.0
  0
VERTEX
  5
3A6
330
360
100
AcDbEntity
  8
4_ANYTOOL_CUTTHROUGH_OUTSI
100
AcDbVertex
100
AcDb2dVertex
 10
31680.1776986848
 20
-1922.309265708691
 30
0.0
  0
VERTEX
  5
3A7
330
360
100
AcDbEntity
  8
4_ANYTOOL_CUTTHROUGH_OUTSI
100
AcDbVertex
100
AcDb2dVertex
 10
31686.1776986848
 20
-1922.309265708695
 30
0.0
  0
VERTEX
  5
3A8
330
360
100
AcDbEntity
  8
4_ANYTOOL_CUTTHROUGH_OUTSI
100
AcDbVertex
100
AcDb2dVertex
 10
31686.1776986848
 20
-1909.809265708695
 30
0.0
  0
VERTEX
  5
3A9
330
360
100
AcDbEntity
  8
4_ANYTOOL_CUTTHROUGH_OUTSI
100
AcDbVertex
100
AcDb2dVertex
 10
31662.1776986848
 20
-1909.809265708695
 30
0.0
  0
VERTEX
  5
3AA
330
360
100
AcDbEntity
  8
4_ANYTOOL_CUTTHROUGH_OUTSI
100
AcDbVertex
100
AcDb2dVertex
 10
31662.17769868479
 20
-1614.309265709489
 30
0.0
  0
VERTEX
  5
3AB
330
360
100
AcDbEntity
  8
4_ANYTOOL_CUTTHROUGH_OUTSI
100
AcDbVertex
100
AcDb2dVertex
 10
31686.17769868479
 20
-1614.309265709489
 30
0.0
  0
VERTEX
  5
3AC
330
360
100
AcDbEntity
  8
4_ANYTOOL_CUTTHROUGH_OUTSI
100
AcDbVertex
100
AcDb2dVertex
 10
31686.1776986848
 20
-1601.809265709489
 30
0.0
  0
SEQEND
  5
3AD
330
360
100
AcDbEntity
  8
4_ANYTOOL_CUTTHROUGH_OUTSI
  0
POLYLINE
  5
3AE
330
1F
100
AcDbEntity
  8
4_ANYTOOL_CUTTHROUGH_OUTSI
100
AcDb2dPolyline
 66
     1
 10
0.0
 20
0.0
 30
0.0
 70
     1
  0
VERTEX
  5
3AF
330
3AE
100
AcDbEntity
  8
4_ANYTOOL_CUTTHROUGH_OUTSI
100
AcDbVertex
100
AcDb2dVertex
 10
31680.17769868479
 20
-381.809265710239
 30
0.0
  0
VERTEX
  5
3B0
330
3AE
100
AcDbEntity
  8
4_ANYTOOL_CUTTHROUGH_OUTSI
100
AcDbVertex
100
AcDb2dVertex
 10
31680.17769868479
 20
-306.3092657102365
 30
0.0
  0
VERTEX
  5
3B1
330
3AE
100
AcDbEntity
  8
4_ANYTOOL_CUTTHROUGH_OUTSI
100
AcDbVertex
100
AcDb2dVertex
 10
31686.17769868479
 20
-306.3092657102329
 30
0.0
  0
VERTEX
  5
3B2
330
3AE
100
AcDbEntity
  8
4_ANYTOOL_CUTTHROUGH_OUTSI
100
AcDbVertex
100
AcDb2dVertex
 10
31686.17769868479
 20
-293.8092657102369
 30
0.0
  0
VERTEX
  5
3B3
330
3AE
100
AcDbEntity
  8
4_ANYTOOL_CUTTHROUGH_OUTSI
100
AcDbVertex
100
AcDb2dVertex
 10
31662.17769868479
 20
-293.8092657102368
 30
0.0
  0
VERTEX
  5
3B4
330
3AE
100
AcDbEntity
  8
4_ANYTOOL_CUTTHROUGH_OUTSI
100
AcDbVertex
100
AcDb2dVertex
 10
31662.17769868481
 20
-190.3092657103039
 30
0.0
  0
VERTEX
  5
3B5
330
3AE
100
AcDbEntity
  8
4_ANYTOOL_CUTTHROUGH_OUTSI
100
AcDbVertex
100
AcDb2dVertex
 10
31686.17769868481
 20
-190.3092657103076
 30
0.0
  0
VERTEX
  5
3B6
330
3AE
100
AcDbEntity
  8
4_ANYTOOL_CUTTHROUGH_OUTSI
100
AcDbVertex
100
AcDb2dVertex
 10
31686.17769868481
 20
-177.8092657103117
 30
0.0
  0
VERTEX
  5
3B7
330
3AE
100
AcDbEntity
  8
4_ANYTOOL_CUTTHROUGH_OUTSI
100
AcDbVertex
100
AcDb2dVertex
 10
31680.17769868481
 20
-177.8092657103044
 30
0.0
  0
VERTEX
  5
3B8
330
3AE
100
AcDbEntity
  8
4_ANYTOOL_CUTTHROUGH_OUTSI
100
AcDbVertex
100
AcDb2dVertex
 10
31680.17769868481
 20
-102.3092657103036
 30
0.0
  0
VERTEX
  5
3B9
330
3AE
100
AcDbEntity
  8
4_ANYTOOL_CUTTHROUGH_OUTSI
100
AcDbVertex
100
AcDb2dVertex
 10
31686.17769868481
 20
-102.3092657103073
 30
0.0
  0
VERTEX
  5
3BA
330
3AE
100
AcDbEntity
  8
4_ANYTOOL_CUTTHROUGH_OUTSI
100
AcDbVertex
100
AcDb2dVertex
 10
31686.17769868482
 20
-89.80926571031108
 30
0.0
  0
VERTEX
  5
3BB
330
3AE
100
AcDbEntity
  8
4_ANYTOOL_CUTTHROUGH_OUTSI
100
AcDbVertex
100
AcDb2dVertex
 10
31662.17769868482
 20
-89.80926571030722
 30
0.0
  0
VERTEX
  5
3BC
330
3AE
100
AcDbEntity
  8
4_ANYTOOL_CUTTHROUGH_OUTSI
100
AcDbVertex
100
AcDb2dVertex
 10
31662.17769868478
 20
39.690734289717
 30
0.0
  0
VERTEX
  5
3BD
330
3AE
100
AcDbEntity
  8
4_ANYTOOL_CUTTHROUGH_OUTSI
100
AcDbVertex
100
AcDb2dVertex
 10
31681.67769868467
 20
39.69073428977356
 30
0.0
  0
VERTEX
  5
3BE
330
3AE
100
AcDbEntity
  8
4_ANYTOOL_CUTTHROUGH_OUTSI
100
AcDbVertex
100
AcDb2dVertex
 10
31681.67769868467
 20
33.69073428977435
 30
0.0
  0
VERTEX
  5
3BF
330
3AE
100
AcDbEntity
  8
4_ANYTOOL_CUTTHROUGH_OUTSI
100
AcDbVertex
100
AcDb2dVertex
 10
31694.17769868467
 20
33.69073428977441
 30
0.0
  0
VERTEX
  5
3C0
330
3AE
100
AcDbEntity
  8
4_ANYTOOL_CUTTHROUGH_OUTSI
100
AcDbVertex
100
AcDb2dVertex
 10
31694.17769868467
 20
57.69073428976634
 30
0.0
  0
VERTEX
  5
3C1
330
3AE
100
AcDbEntity
  8
4_ANYTOOL_CUTTHROUGH_OUTSI
100
AcDbVertex
100
AcDb2dVertex
 10
31793.6776986847
 20
57.69073428959933
 30
0.0
  0
VERTEX
  5
3C2
330
3AE
100
AcDbEntity
  8
4_ANYTOOL_CUTTHROUGH_OUTSI
100
AcDbVertex
100
AcDb2dVertex
 10
31793.67769868469
 20
33.69073428960081
 30
0.0
  0
VERTEX
  5
3C3
330
3AE
100
AcDbEntity
  8
4_ANYTOOL_CUTTHROUGH_OUTSI
100
AcDbVertex
100
AcDb2dVertex
 10
31806.17769868469
 20
33.69073428952498
 30
0.0
  0
VERTEX
  5
3C4
330
3AE
100
AcDbEntity
  8
4_ANYTOOL_CUTTHROUGH_OUTSI
100
AcDbVertex
100
AcDb2dVertex
 10
31806.17769868469
 20
39.69073428952663
 30
0.0
  0
VERTEX
  5
3C5
330
3AE
100
AcDbEntity
  8
4_ANYTOOL_CUTTHROUGH_OUTSI
100
AcDbVertex
100
AcDb2dVertex
 10
31893.67769868469
 20
39.69073428956608
 30
0.0
  0
VERTEX
  5
3C6
330
3AE
100
AcDbEntity
  8
4_ANYTOOL_CUTTHROUGH_OUTSI
100
AcDbVertex
100
AcDb2dVertex
 10
31893.67769868467
 20
-141.8092657104237
 30
0.0
  0
VERTEX
  5
3C7
330
3AE
100
AcDbEntity
  8
4_ANYTOOL_CUTTHROUGH_OUTSI
100
AcDbVertex
100
AcDb2dVertex
 10
31869.67769868474
 20
-141.80926571042
 30
0.0
  0
VERTEX
  5
3C8
330
3AE
100
AcDbEntity
  8
4_ANYTOOL_CUTTHROUGH_OUTSI
100
AcDbVertex
100
AcDb2dVertex
 10
31869.67769868474
 20
-154.3092657104162
 30
0.0
  0
VERTEX
  5
3C9
330
3AE
100
AcDbEntity
  8
4_ANYTOOL_CUTTHROUGH_OUTSI
100
AcDbVertex
100
AcDb2dVertex
 10
31875.67769868474
 20
-154.3092657104162
 30
0.0
  0
VERTEX
  5
3CA
330
3AE
100
AcDbEntity
  8
4_ANYTOOL_CUTTHROUGH_OUTSI
100
AcDbVertex
100
AcDb2dVertex
 10
31875.67769868473
 20
-329.8092657104045
 30
0.0
  0
VERTEX
  5
3CB
330
3AE
100
AcDbEntity
  8
4_ANYTOOL_CUTTHROUGH_OUTSI
100
AcDbVertex
100
AcDb2dVertex
 10
31869.67769868471
 20
-329.8092657104044
 30
0.0
  0
VERTEX
  5
3CC
330
3AE
100
AcDbEntity
  8
4_ANYTOOL_CUTTHROUGH_OUTSI
100
AcDbVertex
100
AcDb2dVertex
 10
31869.67769868471
 20
-342.3092657104042
 30
0.0
  0
VERTEX
  5
3CD
330
3AE
100
AcDbEntity
  8
4_ANYTOOL_CUTTHROUGH_OUTSI
100
AcDbVertex
100
AcDb2dVertex
 10
31893.67769868465
 20
-342.3092657104116
 30
0.0
  0
VERTEX
  5
3CE
330
3AE
100
AcDbEntity
  8
4_ANYTOOL_CUTTHROUGH_OUTSI
100
AcDbVertex
100
AcDb2dVertex
 10
31893.67769868465
 20
-523.8092657098395
 30
0.0
  0
VERTEX
  5
3CF
330
3AE
100
AcDbEntity
  8
4_ANYTOOL_CUTTHROUGH_OUTSI
100
AcDbVertex
100
AcDb2dVertex
 10
31876.17769868464
 20
-523.8092657098395
 30
0.0
  0
VERTEX
  5
3D0
330
3AE
100
AcDbEntity
  8
4_ANYTOOL_CUTTHROUGH_OUTSI
100
AcDbVertex
100
AcDb2dVertex
 10
31876.17769868464
 20
-517.8092657098395
 30
0.0
  0
VERTEX
  5
3D1
330
3AE
100
AcDbEntity
  8
4_ANYTOOL_CUTTHROUGH_OUTSI
100
AcDbVertex
100
AcDb2dVertex
 10
31863.67769868464
 20
-517.8092657098395
 30
0.0
  0
VERTEX
  5
3D2
330
3AE
100
AcDbEntity
  8
4_ANYTOOL_CUTTHROUGH_OUTSI
100
AcDbVertex
100
AcDb2dVertex
 10
31863.67769868464
 20
-566.3092657098388
 30
0.0
  0
VERTEX
  5
3D3
330
3AE
100
AcDbEntity
  8
4_ANYTOOL_CUTTHROUGH_OUTSI
100
AcDbVertex
100
AcDb2dVertex
 10
31876.17769868464
 20
-566.3092657098388
 30
0.0
  0
VERTEX
  5
3D4
330
3AE
100
AcDbEntity
  8
4_ANYTOOL_CUTTHROUGH_OUTSI
100
AcDbVertex
100
AcDb2dVertex
 10
31876.17769868464
 20
-560.3092657098389
 30
0.0
  0
VERTEX
  5
3D5
330
3AE
100
AcDbEntity
  8
4_ANYTOOL_CUTTHROUGH_OUTSI
100
AcDbVertex
100
AcDb2dVertex
 10
31893.67769868465
 20
-560.3092657098389
 30
0.0
  0
VERTEX
  5
3D6
330
3AE
100
AcDbEntity
  8
4_ANYTOOL_CUTTHROUGH_OUTSI
100
AcDbVertex
100
AcDb2dVertex
 10
31893.67769868466
 20
-741.8092657092668
 30
0.0
  0
VERTEX
  5
3D7
330
3AE
100
AcDbEntity
  8
4_ANYTOOL_CUTTHROUGH_OUTSI
100
AcDbVertex
100
AcDb2dVertex
 10
31869.67769868472
 20
-741.809265709274
 30
0.0
  0
VERTEX
  5
3D8
330
3AE
100
AcDbEntity
  8
4_ANYTOOL_CUTTHROUGH_OUTSI
100
AcDbVertex
100
AcDb2dVertex
 10
31869.67769868472
 20
-754.3092657092741
 30
0.0
  0
VERTEX
  5
3D9
330
3AE
100
AcDbEntity
  8
4_ANYTOOL_CUTTHROUGH_OUTSI
100
AcDbVertex
100
AcDb2dVertex
 10
31875.67769868473
 20
-754.3092657092702
 30
0.0
  0
VERTEX
  5
3DA
330
3AE
100
AcDbEntity
  8
4_ANYTOOL_CUTTHROUGH_OUTSI
100
AcDbVertex
100
AcDb2dVertex
 10
31875.67769868474
 20
-929.809265709262
 30
0.0
  0
VERTEX
  5
3DB
330
3AE
100
AcDbEntity
  8
4_ANYTOOL_CUTTHROUGH_OUTSI
100
AcDbVertex
100
AcDb2dVertex
 10
31869.67769868474
 20
-929.8092657092619
 30
0.0
  0
VERTEX
  5
3DC
330
3AE
100
AcDbEntity
  8
4_ANYTOOL_CUTTHROUGH_OUTSI
100
AcDbVertex
100
AcDb2dVertex
 10
31869.67769868474
 20
-942.3092657092544
 30
0.0
  0
VERTEX
  5
3DD
330
3AE
100
AcDbEntity
  8
4_ANYTOOL_CUTTHROUGH_OUTSI
100
AcDbVertex
100
AcDb2dVertex
 10
31893.67769868467
 20
-942.3092657092545
 30
0.0
  0
VERTEX
  5
3DE
330
3AE
100
AcDbEntity
  8
4_ANYTOOL_CUTTHROUGH_OUTSI
100
AcDbVertex
100
AcDb2dVertex
 10
31893.67769868469
 20
-1123.809265709245
 30
0.0
  0
VERTEX
  5
3DF
330
3AE
100
AcDbEntity
  8
4_ANYTOOL_CUTTHROUGH_OUTSI
100
AcDbVertex
100
AcDb2dVertex
 10
31806.17769868469
 20
-1123.809265709201
 30
0.0
  0
VERTEX
  5
3E0
330
3AE
100
AcDbEntity
  8
4_ANYTOOL_CUTTHROUGH_OUTSI
100
AcDbVertex
100
AcDb2dVertex
 10
31806.17769868469
 20
-1117.809265709199
 30
0.0
  0
VERTEX
  5
3E1
330
3AE
100
AcDbEntity
  8
4_ANYTOOL_CUTTHROUGH_OUTSI
100
AcDbVertex
100
AcDb2dVertex
 10
31793.67769868469
 20
-1117.809265709275
 30
0.0
  0
VERTEX
  5
3E2
330
3AE
100
AcDbEntity
  8
4_ANYTOOL_CUTTHROUGH_OUTSI
100
AcDbVertex
100
AcDb2dVertex
 10
31793.6776986847
 20
-1141.809265709273
 30
0.0
  0
VERTEX
  5
3E3
330
3AE
100
AcDbEntity
  8
4_ANYTOOL_CUTTHROUGH_OUTSI
100
AcDbVertex
100
AcDb2dVertex
 10
31694.17769868467
 20
-1141.809265709443
 30
0.0
  0
VERTEX
  5
3E4
330
3AE
100
AcDbEntity
  8
4_ANYTOOL_CUTTHROUGH_OUTSI
100
AcDbVertex
100
AcDb2dVertex
 10
31694.17769868466
 20
-1117.809265709451
 30
0.0
  0
VERTEX
  5
3E5
330
3AE
100
AcDbEntity
  8
4_ANYTOOL_CUTTHROUGH_OUTSI
100
AcDbVertex
100
AcDb2dVertex
 10
31681.67769868466
 20
-1117.809265709451
 30
0.0
  0
VERTEX
  5
3E6
330
3AE
100
AcDbEntity
  8
4_ANYTOOL_CUTTHROUGH_OUTSI
100
AcDbVertex
100
AcDb2dVertex
 10
31681.67769868466
 20
-1123.809265709447
 30
0.0
  0
VERTEX
  5
3E7
330
3AE
100
AcDbEntity
  8
4_ANYTOOL_CUTTHROUGH_OUTSI
100
AcDbVertex
100
AcDb2dVertex
 10
31662.17769868478
 20
-1123.809265709397
 30
0.0
  0
VERTEX
  5
3E8
330
3AE
100
AcDbEntity
  8
4_ANYTOOL_CUTTHROUGH_OUTSI
100
AcDbVertex
100
AcDb2dVertex
 10
31662.17769868482
 20
-994.3092657093692
 30
0.0
  0
VERTEX
  5
3E9
330
3AE
100
AcDbEntity
  8
4_ANYTOOL_CUTTHROUGH_OUTSI
100
AcDbVertex
100
AcDb2dVertex
 10
31686.17769868482
 20
-994.3092657093655
 30
0.0
  0
VERTEX
  5
3EA
330
3AE
100
AcDbEntity
  8
4_ANYTOOL_CUTTHROUGH_OUTSI
100
AcDbVertex
100
AcDb2dVertex
 10
31686.17769868481
 20
-981.8092657093694
 30
0.0
  0
VERTEX
  5
3EB
330
3AE
100
AcDbEntity
  8
4_ANYTOOL_CUTTHROUGH_OUTSI
100
AcDbVertex
100
AcDb2dVertex
 10
31680.17769868481
 20
-981.8092657093731
 30
0.0
  0
VERTEX
  5
3EC
330
3AE
100
AcDbEntity
  8
4_ANYTOOL_CUTTHROUGH_OUTSI
100
AcDbVertex
100
AcDb2dVertex
 10
31680.17769868481
 20
-906.3092657093724
 30
0.0
  0
VERTEX
  5
3ED
330
3AE
100
AcDbEntity
  8
4_ANYTOOL_CUTTHROUGH_OUTSI
100
AcDbVertex
100
AcDb2dVertex
 10
31686.17769868481
 20
-906.3092657093649
 30
0.0
  0
VERTEX
  5
3EE
330
3AE
100
AcDbEntity
  8
4_ANYTOOL_CUTTHROUGH_OUTSI
100
AcDbVertex
100
AcDb2dVertex
 10
31686.17769868481
 20
-893.8092657093691
 30
0.0
  0
VERTEX
  5
3EF
330
3AE
100
AcDbEntity
  8
4_ANYTOOL_CUTTHROUGH_OUTSI
100
AcDbVertex
100
AcDb2dVertex
 10
31662.17769868481
 20
-893.8092657093727
 30
0.0
  0
VERTEX
  5
3F0
330
3AE
100
AcDbEntity
  8
4_ANYTOOL_CUTTHROUGH_OUTSI
100
AcDbVertex
100
AcDb2dVertex
 10
31662.17769868479
 20
-790.3092657094397
 30
0.0
  0
VERTEX
  5
3F1
330
3AE
100
AcDbEntity
  8
4_ANYTOOL_CUTTHROUGH_OUTSI
100
AcDbVertex
100
AcDb2dVertex
 10
31686.17769868479
 20
-790.3092657094398
 30
0.0
  0
VERTEX
  5
3F2
330
3AE
100
AcDbEntity
  8
4_ANYTOOL_CUTTHROUGH_OUTSI
100
AcDbVertex
100
AcDb2dVertex
 10
31686.17769868479
 20
-777.8092657094439
 30
0.0
  0
VERTEX
  5
3F3
330
3AE
100
AcDbEntity
  8
4_ANYTOOL_CUTTHROUGH_OUTSI
100
AcDbVertex
100
AcDb2dVertex
 10
31680.17769868479
 20
-777.8092657094402
 30
0.0
  0
VERTEX
  5
3F4
330
3AE
100
AcDbEntity
  8
4_ANYTOOL_CUTTHROUGH_OUTSI
100
AcDbVertex
100
AcDb2dVertex
 10
31680.17769868479
 20
-702.3092657094377
 30
0.0
  0
VERTEX
  5
3F5
330
3AE
100
AcDbEntity
  8
4_ANYTOOL_CUTTHROUGH_OUTSI
100
AcDbVertex
100
AcDb2dVertex
 10
31686.17769868479
 20
-702.3092657094414
 30
0.0
  0
VERTEX
  5
3F6
330
3AE
100
AcDbEntity
  8
4_ANYTOOL_CUTTHROUGH_OUTSI
100
AcDbVertex
100
AcDb2dVertex
 10
31686.17769868479
 20
-689.8092657094414
 30
0.0
  0
VERTEX
  5
3F7
330
3AE
100
AcDbEntity
  8
4_ANYTOOL_CUTTHROUGH_OUTSI
100
AcDbVertex
100
AcDb2dVertex
 10
31662.17769868479
 20
-689.8092657094413
 30
0.0
  0
VERTEX
  5
3F8
330
3AE
100
AcDbEntity
  8
4_ANYTOOL_CUTTHROUGH_OUTSI
100
AcDbVertex
100
AcDb2dVertex
 10
31662.17769868478
 20
-394.3092657102353
 30
0.0
  0
VERTEX
  5
3F9
330
3AE
100
AcDbEntity
  8
4_ANYTOOL_CUTTHROUGH_OUTSI
100
AcDbVertex
100
AcDb2dVertex
 10
31686.17769868478
 20
-394.3092657102354
 30
0.0
  0
VERTEX
  5
3FA
330
3AE
100
AcDbEntity
  8
4_ANYTOOL_CUTTHROUGH_OUTSI
100
AcDbVertex
100
AcDb2dVertex
 10
31686.17769868479
 20
-381.8092657102354
 30
0.0
  0
SEQEND
  5
3FB
330
3AE
100
AcDbEntity
  8
4_ANYTOOL_CUTTHROUGH_OUTSI
  0
POLYLINE
  5
3FC
330
1F
100
AcDbEntity
  8
4_ANYTOOL_CUTTHROUGH_OUTSI
100
AcDb2dPolyline
 66
     1
 10
0.0
 20
0.0
 30
0.0
 70
     1
  0
VERTEX
  5
3FD
330
3FC
100
AcDbEntity
  8
4_ANYTOOL_CUTTHROUGH_OUTSI
100
AcDbVertex
100
AcDb2dVertex
 10
32067.17369870027
 20
-75.8092657096177
 30
0.0
  0
VERTEX
  5
3FE
330
3FC
100
AcDbEntity
  8
4_ANYTOOL_CUTTHROUGH_OUTSI
100
AcDbVertex
100
AcDb2dVertex
 10
32067.17369870026
 20
39.69073428814639
 30
0.0
  0
VERTEX
  5
3FF
330
3FC
100
AcDbEntity
  8
4_ANYTOOL_CUTTHROUGH_OUTSI
100
AcDbVertex
100
AcDb2dVertex
 10
32223.67369869823
 20
39.69073428958959
 30
0.0
  0
VERTEX
  5
400
330
3FC
100
AcDbEntity
  8
4_ANYTOOL_CUTTHROUGH_OUTSI
100
AcDbVertex
100
AcDb2dVertex
 10
32223.67369869831
 20
-1123.809265713201
 30
0.0
  0
VERTEX
  5
401
330
3FC
100
AcDbEntity
  8
4_ANYTOOL_CUTTHROUGH_OUTSI
100
AcDbVertex
100
AcDb2dVertex
 10
32067.17369870033
 20
-1123.809265711751
 30
0.0
  0
VERTEX
  5
402
330
3FC
100
AcDbEntity
  8
4_ANYTOOL_CUTTHROUGH_OUTSI
100
AcDbVertex
100
AcDb2dVertex
 10
32067.17369870032
 20
-1008.309265713983
 30
0.0
  0
VERTEX
  5
403
330
3FC
100
AcDbEntity
  8
4_ANYTOOL_CUTTHROUGH_OUTSI
100
AcDbVertex
100
AcDb2dVertex
 10
32073.17369870032
 20
-1008.309265713983
 30
0.0
  0
VERTEX
  5
404
330
3FC
100
AcDbEntity
  8
4_ANYTOOL_CUTTHROUGH_OUTSI
100
AcDbVertex
100
AcDb2dVertex
 10
32073.17369870032
 20
-995.8092657139832
 30
0.0
  0
VERTEX
  5
405
330
3FC
100
AcDbEntity
  8
4_ANYTOOL_CUTTHROUGH_OUTSI
100
AcDbVertex
100
AcDb2dVertex
 10
32024.6736987003
 20
-995.8092657139832
 30
0.0
  0
VERTEX
  5
406
330
3FC
100
AcDbEntity
  8
4_ANYTOOL_CUTTHROUGH_OUTSI
100
AcDbVertex
100
AcDb2dVertex
 10
32024.6736987003
 20
-1008.309265713983
 30
0.0
  0
VERTEX
  5
407
330
3FC
100
AcDbEntity
  8
4_ANYTOOL_CUTTHROUGH_OUTSI
100
AcDbVertex
100
AcDb2dVertex
 10
32030.6736987003
 20
-1008.309265713983
 30
0.0
  0
VERTEX
  5
408
330
3FC
100
AcDbEntity
  8
4_ANYTOOL_CUTTHROUGH_OUTSI
100
AcDbVertex
100
AcDb2dVertex
 10
32030.67369870031
 20
-1123.809265711751
 30
0.0
  0
VERTEX
  5
409
330
3FC
100
AcDbEntity
  8
4_ANYTOOL_CUTTHROUGH_OUTSI
100
AcDbVertex
100
AcDb2dVertex
 10
31906.1736986997
 20
-1123.809265713201
 30
0.0
  0
VERTEX
  5
40A
330
3FC
100
AcDbEntity
  8
4_ANYTOOL_CUTTHROUGH_OUTSI
100
AcDbVertex
100
AcDb2dVertex
 10
31906.17369869986
 20
-942.3092657107093
 30
0.0
  0
VERTEX
  5
40B
330
3FC
100
AcDbEntity
  8
4_ANYTOOL_CUTTHROUGH_OUTSI
100
AcDbVertex
100
AcDb2dVertex
 10
31930.17369869984
 20
-942.3092657107093
 30
0.0
  0
VERTEX
  5
40C
330
3FC
100
AcDbEntity
  8
4_ANYTOOL_CUTTHROUGH_OUTSI
100
AcDbVertex
100
AcDb2dVertex
 10
31930.17369869984
 20
-929.8092657107022
 30
0.0
  0
VERTEX
  5
40D
330
3FC
100
AcDbEntity
  8
4_ANYTOOL_CUTTHROUGH_OUTSI
100
AcDbVertex
100
AcDb2dVertex
 10
31924.17369869984
 20
-929.8092657107022
 30
0.0
  0
VERTEX
  5
40E
330
3FC
100
AcDbEntity
  8
4_ANYTOOL_CUTTHROUGH_OUTSI
100
AcDbVertex
100
AcDb2dVertex
 10
31924.17369869983
 20
-754.3092657107254
 30
0.0
  0
VERTEX
  5
40F
330
3FC
100
AcDbEntity
  8
4_ANYTOOL_CUTTHROUGH_OUTSI
100
AcDbVertex
100
AcDb2dVertex
 10
31930.17369869983
 20
-754.3092657107254
 30
0.0
  0
VERTEX
  5
410
330
3FC
100
AcDbEntity
  8
4_ANYTOOL_CUTTHROUGH_OUTSI
100
AcDbVertex
100
AcDb2dVertex
 10
31930.17369869983
 20
-741.8092657107254
 30
0.0
  0
VERTEX
  5
411
330
3FC
100
AcDbEntity
  8
4_ANYTOOL_CUTTHROUGH_OUTSI
100
AcDbVertex
100
AcDb2dVertex
 10
31906.17369869984
 20
-741.8092657107254
 30
0.0
  0
VERTEX
  5
412
330
3FC
100
AcDbEntity
  8
4_ANYTOOL_CUTTHROUGH_OUTSI
100
AcDbVertex
100
AcDb2dVertex
 10
31906.17369869982
 20
-342.309265712886
 30
0.0
  0
VERTEX
  5
413
330
3FC
100
AcDbEntity
  8
4_ANYTOOL_CUTTHROUGH_OUTSI
100
AcDbVertex
100
AcDb2dVertex
 10
31930.1736986998
 20
-342.309265712886
 30
0.0
  0
VERTEX
  5
414
330
3FC
100
AcDbEntity
  8
4_ANYTOOL_CUTTHROUGH_OUTSI
100
AcDbVertex
100
AcDb2dVertex
 10
31930.1736986998
 20
-329.8092657128861
 30
0.0
  0
VERTEX
  5
415
330
3FC
100
AcDbEntity
  8
4_ANYTOOL_CUTTHROUGH_OUTSI
100
AcDbVertex
100
AcDb2dVertex
 10
31924.1736986998
 20
-329.8092657128861
 30
0.0
  0
VERTEX
  5
416
330
3FC
100
AcDbEntity
  8
4_ANYTOOL_CUTTHROUGH_OUTSI
100
AcDbVertex
100
AcDb2dVertex
 10
31924.17369869979
 20
-154.3092657128985
 30
0.0
  0
VERTEX
  5
417
330
3FC
100
AcDbEntity
  8
4_ANYTOOL_CUTTHROUGH_OUTSI
100
AcDbVertex
100
AcDb2dVertex
 10
31930.17369869979
 20
-154.3092657129023
 30
0.0
  0
VERTEX
  5
418
330
3FC
100
AcDbEntity
  8
4_ANYTOOL_CUTTHROUGH_OUTSI
100
AcDbVertex
100
AcDb2dVertex
 10
31930.17369869979
 20
-141.8092657129023
 30
0.0
  0
VERTEX
  5
419
330
3FC
100
AcDbEntity
  8
4_ANYTOOL_CUTTHROUGH_OUTSI
100
AcDbVertex
100
AcDb2dVertex
 10
31906.17369869981
 20
-141.809265712902
 30
0.0
  0
VERTEX
  5
41A
330
3FC
100
AcDbEntity
  8
4_ANYTOOL_CUTTHROUGH_OUTSI
100
AcDbVertex
100
AcDb2dVertex
 10
31906.17369869963
 20
39.69073428958545
 30
0.0
  0
VERTEX
  5
41B
330
3FC
100
AcDbEntity
  8
4_ANYTOOL_CUTTHROUGH_OUTSI
100
AcDbVertex
100
AcDb2dVertex
 10
32030.67369870023
 20
39.6907342881471
 30
0.0
  0
VERTEX
  5
41C
330
3FC
100
AcDbEntity
  8
4_ANYTOOL_CUTTHROUGH_OUTSI
100
AcDbVertex
100
AcDb2dVertex
 10
32030.67369870024
 20
-75.80926570961772
 30
0.0
  0
VERTEX
  5
41D
330
3FC
100
AcDbEntity
  8
4_ANYTOOL_CUTTHROUGH_OUTSI
100
AcDbVertex
100
AcDb2dVertex
 10
32024.67369870024
 20
-75.8092657096177
 30
0.0
  0
VERTEX
  5
41E
330
3FC
100
AcDbEntity
  8
4_ANYTOOL_CUTTHROUGH_OUTSI
100
AcDbVertex
100
AcDb2dVertex
 10
32024.67369870024
 20
-88.30926570961759
 30
0.0
  0
VERTEX
  5
41F
330
3FC
100
AcDbEntity
  8
4_ANYTOOL_CUTTHROUGH_OUTSI
100
AcDbVertex
100
AcDb2dVertex
 10
32073.17369870026
 20
-88.30926570961759
 30
0.0
  0
VERTEX
  5
420
330
3FC
100
AcDbEntity
  8
4_ANYTOOL_CUTTHROUGH_OUTSI
100
AcDbVertex
100
AcDb2dVertex
 10
32073.17369870027
 20
-75.8092657096177
 30
0.0
  0
SEQEND
  5
421
330
3FC
100
AcDbEntity
  8
4_ANYTOOL_CUTTHROUGH_OUTSI
  0
POLYLINE
  5
422
330
1F
100
AcDbEntity
  8
4_ANYTOOL_CUTTHROUGH_OUTSI
100
AcDb2dPolyline
 66
     1
 10
0.0
 20
0.0
 30
0.0
 70
     1
  0
VERTEX
  5
423
330
422
100
AcDbEntity
  8
4_ANYTOOL_CUTTHROUGH_OUTSI
100
AcDbVertex
100
AcDb2dVertex
 10
32198.17769868421
 20
-2202.578380363533
 30
0.0
  0
VERTEX
  5
424
330
422
100
AcDbEntity
  8
4_ANYTOOL_CUTTHROUGH_OUTSI
100
AcDbVertex
100
AcDb2dVertex
 10
32198.17769868421
 20
-2215.078380363533
 30
0.0
  0
VERTEX
  5
425
330
422
100
AcDbEntity
  8
4_ANYTOOL_CUTTHROUGH_OUTSI
100
AcDbVertex
100
AcDb2dVertex
 10
32192.17769868425
 20
-2215.078380363533
 30
0.0
  0
VERTEX
  5
426
330
422
100
AcDbEntity
  8
4_ANYTOOL_CUTTHROUGH_OUTSI
100
AcDbVertex
100
AcDb2dVertex
 10
32192.17769869761
 20
-2332.578380353849
 30
0.0
  0
VERTEX
  5
427
330
422
100
AcDbEntity
  8
4_ANYTOOL_CUTTHROUGH_OUTSI
100
AcDbVertex
100
AcDb2dVertex
 10
32223.67369869825
 20
-2332.578380350615
 30
0.0
  0
VERTEX
  5
428
330
422
100
AcDbEntity
  8
4_ANYTOOL_CUTTHROUGH_OUTSI
100
AcDbVertex
100
AcDb2dVertex
 10
32223.67369869818
 20
-1169.078380371644
 30
0.0
  0
VERTEX
  5
429
330
422
100
AcDbEntity
  8
4_ANYTOOL_CUTTHROUGH_OUTSI
100
AcDbVertex
100
AcDb2dVertex
 10
32192.17769869754
 20
-1169.078380368411
 30
0.0
  0
VERTEX
  5
42A
330
422
100
AcDbEntity
  8
4_ANYTOOL_CUTTHROUGH_OUTSI
100
AcDbVertex
100
AcDb2dVertex
 10
32192.1776986842
 20
-1286.578380358724
 30
0.0
  0
VERTEX
  5
42B
330
422
100
AcDbEntity
  8
4_ANYTOOL_CUTTHROUGH_OUTSI
100
AcDbVertex
100
AcDb2dVertex
 10
32198.17769868416
 20
-1286.578380358724
 30
0.0
  0
VERTEX
  5
42C
330
422
100
AcDbEntity
  8
4_ANYTOOL_CUTTHROUGH_OUTSI
100
AcDbVertex
100
AcDb2dVertex
 10
32198.17769868416
 20
-1299.078380358723
 30
0.0
  0
VERTEX
  5
42D
330
422
100
AcDbEntity
  8
4_ANYTOOL_CUTTHROUGH_OUTSI
100
AcDbVertex
100
AcDb2dVertex
 10
32167.67769868456
 20
-1299.07838036205
 30
0.0
  0
VERTEX
  5
42E
330
422
100
AcDbEntity
  8
4_ANYTOOL_CUTTHROUGH_OUTSI
100
AcDbVertex
100
AcDb2dVertex
 10
32167.67769868456
 20
-1286.578380362012
 30
0.0
  0
VERTEX
  5
42F
330
422
100
AcDbEntity
  8
4_ANYTOOL_CUTTHROUGH_OUTSI
100
AcDbVertex
100
AcDb2dVertex
 10
32173.67769868456
 20
-1286.578380362012
 30
0.0
  0
VERTEX
  5
430
330
422
100
AcDbEntity
  8
4_ANYTOOL_CUTTHROUGH_OUTSI
100
AcDbVertex
100
AcDb2dVertex
 10
32173.67769868458
 20
-1169.078380362019
 30
0.0
  0
VERTEX
  5
431
330
422
100
AcDbEntity
  8
4_ANYTOOL_CUTTHROUGH_OUTSI
100
AcDbVertex
100
AcDb2dVertex
 10
32086.17769868459
 20
-1169.07838036202
 30
0.0
  0
VERTEX
  5
432
330
422
100
AcDbEntity
  8
4_ANYTOOL_CUTTHROUGH_OUTSI
100
AcDbVertex
100
AcDb2dVertex
 10
32086.17769868459
 20
-1175.078380362023
 30
0.0
  0
VERTEX
  5
433
330
422
100
AcDbEntity
  8
4_ANYTOOL_CUTTHROUGH_OUTSI
100
AcDbVertex
100
AcDb2dVertex
 10
32073.67769868458
 20
-1175.078380362027
 30
0.0
  0
VERTEX
  5
434
330
422
100
AcDbEntity
  8
4_ANYTOOL_CUTTHROUGH_OUTSI
100
AcDbVertex
100
AcDb2dVertex
 10
32073.67769868458
 20
-1160.078380362024
 30
0.0
  0
VERTEX
  5
435
330
422
100
AcDbEntity
  8
4_ANYTOOL_CUTTHROUGH_OUTSI
100
AcDbVertex
100
AcDb2dVertex
 10
32024.17769868458
 20
-1160.078380362028
 30
0.0
  0
VERTEX
  5
436
330
422
100
AcDbEntity
  8
4_ANYTOOL_CUTTHROUGH_OUTSI
100
AcDbVertex
100
AcDb2dVertex
 10
32024.17769868458
 20
-1175.078380362027
 30
0.0
  0
VERTEX
  5
437
330
422
100
AcDbEntity
  8
4_ANYTOOL_CUTTHROUGH_OUTSI
100
AcDbVertex
100
AcDb2dVertex
 10
32011.67769868458
 20
-1175.078380362028
 30
0.0
  0
VERTEX
  5
438
330
422
100
AcDbEntity
  8
4_ANYTOOL_CUTTHROUGH_OUTSI
100
AcDbVertex
100
AcDb2dVertex
 10
32011.67769868458
 20
-1169.078380362028
 30
0.0
  0
VERTEX
  5
439
330
422
100
AcDbEntity
  8
4_ANYTOOL_CUTTHROUGH_OUTSI
100
AcDbVertex
100
AcDb2dVertex
 10
31924.17769868459
 20
-1169.078380362036
 30
0.0
  0
VERTEX
  5
43A
330
422
100
AcDbEntity
  8
4_ANYTOOL_CUTTHROUGH_OUTSI
100
AcDbVertex
100
AcDb2dVertex
 10
31924.17769868458
 20
-1286.578380362029
 30
0.0
  0
VERTEX
  5
43B
330
422
100
AcDbEntity
  8
4_ANYTOOL_CUTTHROUGH_OUTSI
100
AcDbVertex
100
AcDb2dVertex
 10
31930.17769868457
 20
-1286.578380362029
 30
0.0
  0
VERTEX
  5
43C
330
422
100
AcDbEntity
  8
4_ANYTOOL_CUTTHROUGH_OUTSI
100
AcDbVertex
100
AcDb2dVertex
 10
31930.17769868457
 20
-1299.078380362025
 30
0.0
  0
VERTEX
  5
43D
330
422
100
AcDbEntity
  8
4_ANYTOOL_CUTTHROUGH_OUTSI
100
AcDbVertex
100
AcDb2dVertex
 10
31906.17769868458
 20
-1299.078380362025
 30
0.0
  0
VERTEX
  5
43E
330
422
100
AcDbEntity
  8
4_ANYTOOL_CUTTHROUGH_OUTSI
100
AcDbVertex
100
AcDb2dVertex
 10
31906.17769868462
 20
-1398.578380362022
 30
0.0
  0
VERTEX
  5
43F
330
422
100
AcDbEntity
  8
4_ANYTOOL_CUTTHROUGH_OUTSI
100
AcDbVertex
100
AcDb2dVertex
 10
31930.17769868461
 20
-1398.578380362022
 30
0.0
  0
VERTEX
  5
440
330
422
100
AcDbEntity
  8
4_ANYTOOL_CUTTHROUGH_OUTSI
100
AcDbVertex
100
AcDb2dVertex
 10
31930.17769868461
 20
-1411.078380362022
 30
0.0
  0
VERTEX
  5
441
330
422
100
AcDbEntity
  8
4_ANYTOOL_CUTTHROUGH_OUTSI
100
AcDbVertex
100
AcDb2dVertex
 10
31924.17769868461
 20
-1411.078380362026
 30
0.0
  0
VERTEX
  5
442
330
422
100
AcDbEntity
  8
4_ANYTOOL_CUTTHROUGH_OUTSI
100
AcDbVertex
100
AcDb2dVertex
 10
31924.17769868459
 20
-1490.578380362023
 30
0.0
  0
VERTEX
  5
443
330
422
100
AcDbEntity
  8
4_ANYTOOL_CUTTHROUGH_OUTSI
100
AcDbVertex
100
AcDb2dVertex
 10
31930.17769868459
 20
-1490.57838036202
 30
0.0
  0
VERTEX
  5
444
330
422
100
AcDbEntity
  8
4_ANYTOOL_CUTTHROUGH_OUTSI
100
AcDbVertex
100
AcDb2dVertex
 10
31930.1776986846
 20
-1503.078380362016
 30
0.0
  0
VERTEX
  5
445
330
422
100
AcDbEntity
  8
4_ANYTOOL_CUTTHROUGH_OUTSI
100
AcDbVertex
100
AcDb2dVertex
 10
31906.17769868461
 20
-1503.078380362016
 30
0.0
  0
VERTEX
  5
446
330
422
100
AcDbEntity
  8
4_ANYTOOL_CUTTHROUGH_OUTSI
100
AcDbVertex
100
AcDb2dVertex
 10
31906.17769868463
 20
-1602.578380362017
 30
0.0
  0
VERTEX
  5
447
330
422
100
AcDbEntity
  8
4_ANYTOOL_CUTTHROUGH_OUTSI
100
AcDbVertex
100
AcDb2dVertex
 10
31930.17769868462
 20
-1602.578380362017
 30
0.0
  0
VERTEX
  5
448
330
422
100
AcDbEntity
  8
4_ANYTOOL_CUTTHROUGH_OUTSI
100
AcDbVertex
100
AcDb2dVertex
 10
31930.17769868462
 20
-1615.078380362016
 30
0.0
  0
VERTEX
  5
449
330
422
100
AcDbEntity
  8
4_ANYTOOL_CUTTHROUGH_OUTSI
100
AcDbVertex
100
AcDb2dVertex
 10
31924.17769868462
 20
-1615.07838036202
 30
0.0
  0
VERTEX
  5
44A
330
422
100
AcDbEntity
  8
4_ANYTOOL_CUTTHROUGH_OUTSI
100
AcDbVertex
100
AcDb2dVertex
 10
31924.17769868464
 20
-1886.578380360248
 30
0.0
  0
VERTEX
  5
44B
330
422
100
AcDbEntity
  8
4_ANYTOOL_CUTTHROUGH_OUTSI
100
AcDbVertex
100
AcDb2dVertex
 10
31930.17769868464
 20
-1886.578380360248
 30
0.0
  0
VERTEX
  5
44C
330
422
100
AcDbEntity
  8
4_ANYTOOL_CUTTHROUGH_OUTSI
100
AcDbVertex
100
AcDb2dVertex
 10
31930.17769868465
 20
-1899.078380360251
 30
0.0
  0
VERTEX
  5
44D
330
422
100
AcDbEntity
  8
4_ANYTOOL_CUTTHROUGH_OUTSI
100
AcDbVertex
100
AcDb2dVertex
 10
31906.17769868465
 20
-1899.078380360252
 30
0.0
  0
VERTEX
  5
44E
330
422
100
AcDbEntity
  8
4_ANYTOOL_CUTTHROUGH_OUTSI
100
AcDbVertex
100
AcDb2dVertex
 10
31906.17769868463
 20
-1998.578380360253
 30
0.0
  0
VERTEX
  5
44F
330
422
100
AcDbEntity
  8
4_ANYTOOL_CUTTHROUGH_OUTSI
100
AcDbVertex
100
AcDb2dVertex
 10
31930.17769868462
 20
-1998.578380360252
 30
0.0
  0
VERTEX
  5
450
330
422
100
AcDbEntity
  8
4_ANYTOOL_CUTTHROUGH_OUTSI
100
AcDbVertex
100
AcDb2dVertex
 10
31930.17769868462
 20
-2011.078380360245
 30
0.0
  0
VERTEX
  5
451
330
422
100
AcDbEntity
  8
4_ANYTOOL_CUTTHROUGH_OUTSI
100
AcDbVertex
100
AcDb2dVertex
 10
31924.17769868462
 20
-2011.078380360245
 30
0.0
  0
VERTEX
  5
452
330
422
100
AcDbEntity
  8
4_ANYTOOL_CUTTHROUGH_OUTSI
100
AcDbVertex
100
AcDb2dVertex
 10
31924.17769868465
 20
-2090.578380360243
 30
0.0
  0
VERTEX
  5
453
330
422
100
AcDbEntity
  8
4_ANYTOOL_CUTTHROUGH_OUTSI
100
AcDbVertex
100
AcDb2dVertex
 10
31930.17769868465
 20
-2090.578380360246
 30
0.0
  0
VERTEX
  5
454
330
422
100
AcDbEntity
  8
4_ANYTOOL_CUTTHROUGH_OUTSI
100
AcDbVertex
100
AcDb2dVertex
 10
31930.17769868465
 20
-2103.078380360242
 30
0.0
  0
VERTEX
  5
455
330
422
100
AcDbEntity
  8
4_ANYTOOL_CUTTHROUGH_OUTSI
100
AcDbVertex
100
AcDb2dVertex
 10
31906.17769868466
 20
-2103.078380360243
 30
0.0
  0
VERTEX
  5
456
330
422
100
AcDbEntity
  8
4_ANYTOOL_CUTTHROUGH_OUTSI
100
AcDbVertex
100
AcDb2dVertex
 10
31906.17769868463
 20
-2202.57838036024
 30
0.0
  0
VERTEX
  5
457
330
422
100
AcDbEntity
  8
4_ANYTOOL_CUTTHROUGH_OUTSI
100
AcDbVertex
100
AcDb2dVertex
 10
31930.17769868462
 20
-2202.578380360239
 30
0.0
  0
VERTEX
  5
458
330
422
100
AcDbEntity
  8
4_ANYTOOL_CUTTHROUGH_OUTSI
100
AcDbVertex
100
AcDb2dVertex
 10
31930.17769868462
 20
-2215.078380360239
 30
0.0
  0
VERTEX
  5
459
330
422
100
AcDbEntity
  8
4_ANYTOOL_CUTTHROUGH_OUTSI
100
AcDbVertex
100
AcDb2dVertex
 10
31924.17769868463
 20
-2215.078380360239
 30
0.0
  0
VERTEX
  5
45A
330
422
100
AcDbEntity
  8
4_ANYTOOL_CUTTHROUGH_OUTSI
100
AcDbVertex
100
AcDb2dVertex
 10
31924.17769868466
 20
-2332.578380360236
 30
0.0
  0
VERTEX
  5
45B
330
422
100
AcDbEntity
  8
4_ANYTOOL_CUTTHROUGH_OUTSI
100
AcDbVertex
100
AcDb2dVertex
 10
32011.67769868464
 20
-2332.578380360235
 30
0.0
  0
VERTEX
  5
45C
330
422
100
AcDbEntity
  8
4_ANYTOOL_CUTTHROUGH_OUTSI
100
AcDbVertex
100
AcDb2dVertex
 10
32011.67769868464
 20
-2326.578380360235
 30
0.0
  0
VERTEX
  5
45D
330
422
100
AcDbEntity
  8
4_ANYTOOL_CUTTHROUGH_OUTSI
100
AcDbVertex
100
AcDb2dVertex
 10
32024.17769868464
 20
-2326.578380360235
 30
0.0
  0
VERTEX
  5
45E
330
422
100
AcDbEntity
  8
4_ANYTOOL_CUTTHROUGH_OUTSI
100
AcDbVertex
100
AcDb2dVertex
 10
32024.17769868464
 20
-2341.578380360235
 30
0.0
  0
VERTEX
  5
45F
330
422
100
AcDbEntity
  8
4_ANYTOOL_CUTTHROUGH_OUTSI
100
AcDbVertex
100
AcDb2dVertex
 10
32073.67769868464
 20
-2341.578380360234
 30
0.0
  0
VERTEX
  5
460
330
422
100
AcDbEntity
  8
4_ANYTOOL_CUTTHROUGH_OUTSI
100
AcDbVertex
100
AcDb2dVertex
 10
32073.67769868464
 20
-2326.578380360235
 30
0.0
  0
VERTEX
  5
461
330
422
100
AcDbEntity
  8
4_ANYTOOL_CUTTHROUGH_OUTSI
100
AcDbVertex
100
AcDb2dVertex
 10
32086.17769868465
 20
-2326.578380360242
 30
0.0
  0
VERTEX
  5
462
330
422
100
AcDbEntity
  8
4_ANYTOOL_CUTTHROUGH_OUTSI
100
AcDbVertex
100
AcDb2dVertex
 10
32086.17769868465
 20
-2332.578380360242
 30
0.0
  0
VERTEX
  5
463
330
422
100
AcDbEntity
  8
4_ANYTOOL_CUTTHROUGH_OUTSI
100
AcDbVertex
100
AcDb2dVertex
 10
32173.67769868464
 20
-2332.578380360241
 30
0.0
  0
VERTEX
  5
464
330
422
100
AcDbEntity
  8
4_ANYTOOL_CUTTHROUGH_OUTSI
100
AcDbVertex
100
AcDb2dVertex
 10
32173.67769868461
 20
-2215.078380360244
 30
0.0
  0
VERTEX
  5
465
330
422
100
AcDbEntity
  8
4_ANYTOOL_CUTTHROUGH_OUTSI
100
AcDbVertex
100
AcDb2dVertex
 10
32167.67769868461
 20
-2215.078380360244
 30
0.0
  0
VERTEX
  5
466
330
422
100
AcDbEntity
  8
4_ANYTOOL_CUTTHROUGH_OUTSI
100
AcDbVertex
100
AcDb2dVertex
 10
32167.67769868461
 20
-2202.578380360211
 30
0.0
  0
SEQEND
  5
467
330
422
100
AcDbEntity
  8
4_ANYTOOL_CUTTHROUGH_OUTSI
  0
POLYLINE
  5
468
330
1F
100
AcDbEntity
  8
DONOTCUT
100
AcDb2dPolyline
 66
     1
 10
0.0
 20
0.0
 30
0.0
 70
     1
  0
VERTEX
  5
469
330
468
100
AcDbEntity
  8
DONOTCUT
100
AcDbVertex
100
AcDb2dVertex
 10
30494.94850144174
 20
-3703.170065272592
 30
0.0
  0
VERTEX
  5
46A
330
468
100
AcDbEntity
  8
DONOTCUT
100
AcDbVertex
100
AcDb2dVertex
 10
37668.00800409984
 20
-3703.170065272592
 30
0.0
  0
VERTEX
  5
46B
330
468
100
AcDbEntity
  8
DONOTCUT
100
AcDbVertex
100
AcDb2dVertex
 10
37668.00800409984
 20
1890.26261550051
 30
0.0
  0
VERTEX
  5
46C
330
468
100
AcDbEntity
  8
DONOTCUT
100
AcDbVertex
100
AcDb2dVertex
 10
30494.94850144174
 20
1890.26261550051
 30
0.0
  0
SEQEND
  5
46D
330
468
100
AcDbEntity
  8
DONOTCUT
  0
MTEXT
  5
46E
330
1F
100
AcDbEntity
  8
DONOTCUT
100
AcDbMText
 10
30623.63141070385
 20
1746.289232817941
 30
-0.0000002511302797
 40
150.0
 41
3150.0
 71
     1
 72
     1
  1
CNC CUTTING
  7
ARIAL_REGULAR
1001
ACAD
1000
ACAD_MTEXT_DEFINED_HEIGHT_BEGIN
1070
    46
1040
65.70652173913042
1000
ACAD_MTEXT_DEFINED_HEIGHT_END
  0
POLYLINE
  5
470
330
1F
100
AcDbEntity
  8
0_SHEET_SPRUCEPLY_2440X122
100
AcDb2dPolyline
 66
     1
 10
0.0
 20
0.0
 30
-0.0000002511302797
 70
     1
  0
VERTEX
  5
471
330
470
100
AcDbEntity
  8
0_SHEET_SPRUCEPLY_2440X122
100
AcDbVertex
100
AcDb2dVertex
 10
31661.92369869837
 20
-2375.728448328808
 30
-0.0000002511302797
  0
VERTEX
  5
472
330
470
100
AcDbEntity
  8
0_SHEET_SPRUCEPLY_2440X122
100
AcDbVertex
100
AcDb2dVertex
 10
32881.92369869837
 20
-2375.728448328808
 30
-0.0000002511302797
  0
VERTEX
  5
473
330
470
100
AcDbEntity
  8
0_SHEET_SPRUCEPLY_2440X122
100
AcDbVertex
100
AcDb2dVertex
 10
32881.92369869837
 20
64.27155167119327
 30
-0.0000002511302797
  0
VERTEX
  5
474
330
470
100
AcDbEntity
  8
0_SHEET_SPRUCEPLY_2440X122
100
AcDbVertex
100
AcDb2dVertex
 10
31661.92369869837
 20
64.27155167119327
 30
-0.0000002511302797
  0
SEQEND
  5
475
330
470
100
AcDbEntity
  8
0_SHEET_SPRUCEPLY_2440X122
  0
MTEXT
  5
476
330
1F
100
AcDbEntity
  8
DONOTCUT
100
AcDbMText
 10
31643.62749215044
 20
845.4614209066003
 30
-0.0000002511302797
 40
150.0
 41
4932.065217391304
 71
     1
 72
     1
  1
{\fArial;SKYLARK250 DOOR-M1}\P{\fArial;TOTAL 1 NO. SHEET}
  7
ARIAL_REGULAR
1001
ACAD
1000
ACAD_MTEXT_DEFINED_HEIGHT_BEGIN
1070
    46
1040
305.7065217391304
1000
ACAD_MTEXT_DEFINED_HEIGHT_END
  0
MTEXT
  5
477
330
1F
100
AcDbEntity
  8
DONOTCUT
100
AcDbMText
 10
30623.63141070385
 20
2406.862445551883
 30
-0.0000002511302797
 40
200.0
 41
6576.086956521739
 71
     1
 72
     1
  1
SKYLARK250 DOOR-M1
  7
ARIAL_REGULAR
1001
ACAD
1000
ACAD_MTEXT_DEFINED_HEIGHT_BEGIN
1070
    46
1040
87.60869565217389
1000
ACAD_MTEXT_DEFINED_HEIGHT_END
  0
ENDSEC
  0
SECTION
  2
OBJECTS
  0
DICTIONARY
  5
C
330
0
100
AcDbDictionary
  3
ACAD_GROUP
350
D
  3
ACAD_LAYOUT
350
1A
  3
ACAD_MATERIAL
350
43
  3
ACAD_MLEADERSTYLE
350
5B
  3
ACAD_MLINESTYLE
350
17
  3
ACAD_PLOTSETTINGS
350
19
  3
ACAD_SCALELIST
350
47
  3
ACAD_VISUALSTYLE
350
2A
  3
ACDBHEADERROUNDTRIPXREC
350
478
  3
ACDBVARIABLEDICTIONARY
350
499
  3
DWGPROPS
350
4A0
  0
DICTIONARY
  5
4A1
330
8
100
AcDbDictionary
280
     1
  3
ACAD_XREC_ROUNDTRIP
360
4A2
  0
DICTIONARY
  5
D
102
{ACAD_REACTORS
330
C
102
}
330
C
100
AcDbDictionary
  0
DICTIONARY
  5
1A
102
{ACAD_REACTORS
330
C
102
}
330
C
100
AcDbDictionary
  0
DICTIONARY
  5
43
102
{ACAD_REACTORS
330
C
102
}
330
C
100
AcDbDictionary
  3
BYBLOCK
350
45
  3
BYLAYER
350
44
  3
GLOBAL
350
46
  0
DICTIONARY
  5
5B
102
{ACAD_REACTORS
330
C
102
}
330
C
100
AcDbDictionary
  3
STANDARD
350
5C
  0
DICTIONARY
  5
17
102
{ACAD_REACTORS
330
C
102
}
330
C
100
AcDbDictionary
  3
STANDARD
350
18
  0
DICTIONARY
  5
19
102
{ACAD_REACTORS
330
C
102
}
330
C
100
AcDbDictionary
  0
DICTIONARY
  5
47
102
{ACAD_REACTORS
330
C
102
}
330
C
100
AcDbDictionary
  3
A0
350
48
  3
A1
350
49
  3
A2
350
4A
  3
A3
350
4B
  3
A4
350
4C
  3
A5
350
4D
  3
A6
350
4E
  3
A7
350
4F
  3
A8
350
50
  3
A9
350
51
  3
B1
350
52
  3
B2
350
53
  3
B3
350
54
  3
B4
350
55
  3
B5
350
56
  3
B6
350
57
  3
B7
350
58
  0
DICTIONARY
  5
2A
102
{ACAD_REACTORS
330
C
102
}
330
C
100
AcDbDictionary
  3
2DWIREFRAME
350
2F
  3
BASIC
350
32
  3
BRIGHTEN
350
36
  3
COLORCHANGE
350
3A
  3
CONCEPTUAL
350
34
  3
DIM
350
35
  3
EDGECOLOROFF
350
3D
  3
FACEPATTERN
350
39
  3
FLAT
350
2B
  3
FLATWITHEDGES
350
2C
  3
GOURAUD
350
2D
  3
GOURAUDWITHEDGES
350
2E
  3
HIDDEN
350
31
  3
JITTEROFF
350
3B
  3
LINEPATTERN
350
38
  3
OVERHANGOFF
350
3C
  3
REALISTIC
350
33
  3
SHADED
350
42
  3
SHADED_WITH_EDGES
350
41
  3
SHADES_OF_GRAY
350
3E
  3
SKETCHY
350
3F
  3
THICKEN
350
37
  3
WIREFRAME
350
30
  3
X-RAY
350
40
  0
DICTIONARY
  5
478
102
{ACAD_REACTORS
330
C
102
}
330
C
100
AcDbDictionary
  3
CEPSNID
350
482
  3
CEPSNTYPE
350
481
  3
DIMSTYLEDATA
350
498
  3
FINGERPRINTGUID
350
483
  3
HYPERLINKBASE
350
47B
  3
INSUNITS
350
480
  3
LAYOUTDICT
350
47D
  3
LWETCUNION
350
47F
  3
PLOTSETDICT
350
47E
  3
PSVPSCALE
350
485
  3
PUCSBASE
350
488
  3
PUCSORGBACK
350
48E
  3
PUCSORGBOTTOM
350
48A
  3
PUCSORGFRONT
350
48D
  3
PUCSORGLEFT
350
48B
  3
PUCSORGRIGHT
350
48C
  3
PUCSORGTOP
350
489
  3
PUCSORTHOREF
350
486
  3
PUCSORTHOVIEW
350
487
  3
STYLESHEET
350
47C
  3
TSTACKALIGN
350
479
  3
TSTACKSIZE
350
47A
  3
UCSBASE
350
491
  3
UCSORGBACK
350
497
  3
UCSORGBOTTOM
350
493
  3
UCSORGFRONT
350
496
  3
UCSORGLEFT
350
494
  3
UCSORGRIGHT
350
495
  3
UCSORGTOP
350
492
  3
UCSORTHOREF
350
48F
  3
UCSORTHOVIEW
350
490
  3
VERSIONGUID
350
484
  0
DICTIONARY
  5
499
102
{ACAD_REACTORS
330
C
102
}
330
C
100
AcDbDictionary
  3
CANNOSCALE
350
4A3
  3
CMLEADERSTYLE
350
49B
  3
CTABLESTYLE
350
49A
  3
DIMASSOC
350
49E
  3
HIDETEXT
350
49F
  3
MSLTSCALE
350
4A4
  0
XRECORD
  5
4A0
102
{ACAD_REACTORS
330
C
102
}
330
C
100
AcDbXrecord
  1
DWGPROPS COOKIE
  2

  3

  4

  6

  7

  8
clayt
  9

300
=
301
=
302
=
303
=
304
=
305
=
306
=
307
=
308
=
309
=
 40
0.0
 41
2459604.872206956
 42
2459604.872219676
  1

 90
        0
  0
XRECORD
  5
4A2
102
{ACAD_REACTORS
330
4A1
102
}
330
4A1
100
AcDbXrecord
102
VTR_0.000_0.000_1.000_1.000_VISUALSTYLE
340
2F
102
VTR_0.000_0.000_1.000_1.000_GRIDDISPLAY
 70
     3
102
VTR_0.000_0.000_1.000_1.000_GRIDMAJOR
 70
     5
102
VTR_0.000_0.000_1.000_1.000_DEFAULTLIGHTING
280
     1
102
VTR_0.000_0.000_1.000_1.000_DEFAULTLIGHTINGTYPE
 70
     1
102
VTR_0.000_0.000_1.000_1.000_BRIGHTNESS
141
0.0
102
VTR_0.000_0.000_1.000_1.000_CONTRAST
142
0.0
  0
MATERIAL
  5
45
102
{ACAD_REACTORS
330
43
102
}
102
{ACAD_XDICTIONARY
360
4A7
102
}
330
43
100
AcDbMaterial
  1
BYBLOCK
  0
MATERIAL
  5
44
102
{ACAD_REACTORS
330
43
102
}
102
{ACAD_XDICTIONARY
360
4A5
102
}
330
43
100
AcDbMaterial
  1
BYLAYER
  0
MATERIAL
  5
46
102
{ACAD_REACTORS
330
43
102
}
102
{ACAD_XDICTIONARY
360
4A9
102
}
330
43
100
AcDbMaterial
  1
GLOBAL
  0
ACAD_PROXY_OBJECT
  5
5C
102
{ACAD_REACTORS
330
5B
102
}
330
5B
100
AcDbProxyObject
 90
      499
 91
      505
 93
      610
310
40901902A4063FBFFFFFE056BD1B81E855B9FC0AD7A3703D0AD73F4214DD185B99185C9900AD7A3703D0AC73F90141901A02B5E8DC0F42B1CFC02B5E8DC0F42B1CFE5764000000000000300FC0
340
14
340
0
340
11
340
0
 94
        0
1001
ACAD_MLEADERVER
1070
     2
  0
MLINESTYLE
  5
18
102
{ACAD_REACTORS
330
17
102
}
330
17
100
AcDbMlineStyle
  2
Standard
 70
     0
  3

 62
   256
 51
90.0
 52
90.0
 71
     2
 49
0.5
 62
   256
  6
BYLAYER
 49
-0.5
 62
   256
  6
BYLAYER
  0
ACAD_PROXY_OBJECT
  5
48
102
{ACAD_REACTORS
330
47
102
}
330
47
100
AcDbProxyObject
 90
      499
 91
      503
 93
       41
310
903313A31580
  0
ACAD_PROXY_OBJECT
  5
49
102
{ACAD_REACTORS
330
47
102
}
330
47
100
AcDbProxyObject
 90
      499
 91
      503
 93
      257
310
90E312F31323822203D2031272D3022000000000000200FC000000000000284000
  0
ACAD_PROXY_OBJECT
  5
4A
102
{ACAD_REACTORS
330
47
102
}
330
47
100
AcDbProxyObject
 90
      499
 91
      503
 93
      249
310
90D312F363422203D2031272D3022000000000000240FC000000000000284000
  0
ACAD_PROXY_OBJECT
  5
4B
102
{ACAD_REACTORS
330
47
102
}
330
47
100
AcDbProxyObject
 90
      499
 91
      503
 93
      249
310
90D312F333222203D2031272D3022000000000000280FC000000000000284000
  0
ACAD_PROXY_OBJECT
  5
4C
102
{ACAD_REACTORS
330
47
102
}
330
47
100
AcDbProxyObject
 90
      499
 91
      503
 93
      249
310
90D312F313622203D2031272D30220000000000002C0FC000000000000284000
  0
ACAD_PROXY_OBJECT
  5
4D
102
{ACAD_REACTORS
330
47
102
}
330
47
100
AcDbProxyObject
 90
      499
 91
      503
 93
      249
310
90D332F333222203D2031272D30220000000000002E0FC000000000000284000
  0
ACAD_PROXY_OBJECT
  5
4E
102
{ACAD_REACTORS
330
47
102
}
330
47
100
AcDbProxyObject
 90
      499
 91
      503
 93
      241
310
90C312F3822203D2031272D3022000000000000300FC000000000000284000
  0
ACAD_PROXY_OBJECT
  5
4F
102
{ACAD_REACTORS
330
47
102
}
330
47
100
AcDbProxyObject
 90
      499
 91
      503
 93
      249
310
90D332F313622203D2031272D3022000000000000320FC000000000000284000
  0
ACAD_PROXY_OBJECT
  5
50
102
{ACAD_REACTORS
330
47
102
}
330
47
100
AcDbProxyObject
 90
      499
 91
      503
 93
      241
310
90C312F3422203D2031272D3022000000000000340FC000000000000284000
  0
ACAD_PROXY_OBJECT
  5
51
102
{ACAD_REACTORS
330
47
102
}
330
47
100
AcDbProxyObject
 90
      499
 91
      503
 93
      241
310
90C332F3822203D2031272D3022000000000000360FC000000000000284000
  0
ACAD_PROXY_OBJECT
  5
52
102
{ACAD_REACTORS
330
47
102
}
330
47
100
AcDbProxyObject
 90
      499
 91
      503
 93
      241
310
90C312F3222203D2031272D3022000000000000380FC000000000000284000
  0
ACAD_PROXY_OBJECT
  5
53
102
{ACAD_REACTORS
330
47
102
}
330
47
100
AcDbProxyObject
 90
      499
 91
      503
 93
      241
310
90C332F3422203D2031272D30220000000000003A0FC000000000000284000
  0
ACAD_PROXY_OBJECT
  5
54
102
{ACAD_REACTORS
330
47
102
}
330
47
100
AcDbProxyObject
 90
      499
 91
      503
 93
      161
310
90A3122203D2031272D30224000000000000284000
  0
ACAD_PROXY_OBJECT
  5
55
102
{ACAD_REACTORS
330
47
102
}
330
47
100
AcDbProxyObject
 90
      499
 91
      503
 93
      257
310
90E312D312F3222203D2031272D30220000000000003E0FC000000000000284000
  0
ACAD_PROXY_OBJECT
  5
56
102
{ACAD_REACTORS
330
47
102
}
330
47
100
AcDbProxyObject
 90
      499
 91
      503
 93
      225
310
90A3322203D2031272D302200000000000002100000000000000284000
  0
ACAD_PROXY_OBJECT
  5
57
102
{ACAD_REACTORS
330
47
102
}
330
47
100
AcDbProxyObject
 90
      499
 91
      503
 93
      225
310
90A3622203D2031272D302200000000000006100000000000000284000
  0
ACAD_PROXY_OBJECT
  5
58
102
{ACAD_REACTORS
330
47
102
}
330
47
100
AcDbProxyObject
 90
      499
 91
      503
 93
      249
310
90D31272D3022203D2031272D30220000000000000A100000000000000284000
  0
ACAD_PROXY_OBJECT
  5
2F
102
{ACAD_REACTORS
330
2A
102
}
330
2A
100
AcDbProxyObject
 90
      499
 91
      501
 93
      436
310
42CC9915DA5C99599C985B595049028333333333333E33F0000000000000F90107901411070040501600405405064090741402480A0340
1001
ACAD
1000
AcDbSavedByObjectVersion
1070
     0
  0
ACAD_PROXY_OBJECT
  5
32
102
{ACAD_REACTORS
330
2A
102
}
330
2A
100
AcDbProxyObject
 90
      499
 91
      501
 93
      388
310
4150985CDA58D07406404333333333333E33F0000000000000F90107A41107004050150841D405064090741402480A0350
1001
ACAD
1000
AcDbSavedByObjectVersion
1070
     0
  0
ACAD_PROXY_OBJECT
  5
36
102
{ACAD_REACTORS
330
2A
102
}
330
2A
100
AcDbProxyObject
 90
      499
 91
      501
 93
      428
310
42109C9A59DA1D195B90C409028333333333333E33F0000000000000F9010790141107004050150841D405064090741402480A029950
1001
ACAD
1000
AcDbSavedByObjectVersion
1070
     0
  0
ACAD_PROXY_OBJECT
  5
3A
102
{ACAD_REACTORS
330
2A
102
}
330
2A
100
AcDbProxyObject
 90
      499
 91
      501
 93
      452
310
42D0DBDB1BDC90DA185B99D95104090240C333333333333E33F0000000000000F90108901411070040501508421405064090741402480A0350
1001
ACAD
1000
AcDbSavedByObjectVersion
1070
     0
  0
ACAD_PROXY_OBJECT
  5
34
102
{ACAD_REACTORS
330
2A
102
}
330
2A
100
AcDbProxyObject
 90
      499
 91
      501
 93
      500
310
4290DBDB98D95C1D1D585B10940D028333333333333E33F0000000000000F90107902409070040501000000000018199010841D405064090740C02480A0340
1001
ACAD
1000
AcDbSavedByObjectVersion
1070
     0
  0
ACAD_PROXY_OBJECT
  5
35
102
{ACAD_REACTORS
330
2A
102
}
330
2A
100
AcDbProxyObject
 90
      499
 91
      501
 93
      412
310
40D11A5B50B409028333333333333E33F0000000000000F9010790141107004050150841D405064090741402480A02677FFFFFD0
1001
ACAD
1000
AcDbSavedByObjectVersion
1070
     0
  0
ACAD_PROXY_OBJECT
  5
3D
102
{ACAD_REACTORS
330
2A
102
}
330
2A
100
AcDbProxyObject
 90
      499
 91
      501
 93
      452
310
43115919D950DBDB1BDC93D999916409028333333333333E33F0000000000000F9010790141107004050150841D405064090741402480A0350
1001
ACAD
1000
AcDbSavedByObjectVersion
1070
     0
  0
ACAD_PROXY_OBJECT
  5
39
102
{ACAD_REACTORS
330
2A
102
}
330
2A
100
AcDbProxyObject
 90
      499
 91
      501
 93
      444
310
42D19858D95C185D1D195C9B90F409028333333333333E33F0000000000000F9010790141107004050150841D405064090741402480A0350
1001
ACAD
1000
AcDbSavedByObjectVersion
1070
     0
  0
ACAD_PROXY_OBJECT
  5
2B
102
{ACAD_REACTORS
330
2A
102
}
330
2A
100
AcDbProxyObject
 90
      499
 91
      501
 93
      380
310
41119B185D240901404333333333333E33F0000000000000F9010740A907004050150841D405064090741402480A1B50
1001
ACAD
1000
AcDbSavedByObjectVersion
1070
     0
  0
ACAD_PROXY_OBJECT
  5
2C
102
{ACAD_REACTORS
330
2A
102
}
330
2A
100
AcDbProxyObject
 90
      499
 91
      501
 93
      468
310
43519B185D15DA5D1A115919D95CD0140901404333333333333E33F0000000000000F90107409019070040501600405405064090741402480A1B50
1001
ACAD
1000
AcDbSavedByObjectVersion
1070
     0
  0
ACAD_PROXY_OBJECT
  5
2D
102
{ACAD_REACTORS
330
2A
102
}
330
2A
100
AcDbProxyObject
 90
      499
 91
      501
 93
      404
310
41D1DBDD5C985D5910240902404333333333333E33F0000000000000F9010740A9070040501641D405064090741402480A1B50
1001
ACAD
1000
AcDbSavedByObjectVersion
1070
     0
  0
ACAD_PROXY_OBJECT
  5
2E
102
{ACAD_REACTORS
330
2A
102
}
330
2A
100
AcDbProxyObject
 90
      499
 91
      501
 93
      492
310
4411DBDD5C985D5915DA5D1A115919D95CD0340902404333333333333E33F0000000000000F90107409019070040501600405405064090741402480A1B50
1001
ACAD
1000
AcDbSavedByObjectVersion
1070
     0
  0
ACAD_PROXY_OBJECT
  5
31
102
{ACAD_REACTORS
330
2A
102
}
330
2A
100
AcDbProxyObject
 90
      499
 91
      501
 93
      476
310
41921A5919195B90640502408333333333333E33F0000000000000F901079024090700405020000000000001110200405405064090740C02480A0340
1001
ACAD
1000
AcDbSavedByObjectVersion
1070
     0
  0
ACAD_PROXY_OBJECT
  5
3B
102
{ACAD_REACTORS
330
2A
102
}
330
2A
100
AcDbProxyObject
 90
      499
 91
      501
 93
      428
310
42529A5D1D195C93D999914409028333333333333E33F0000000000000F9010790141107004050150A41D405064090741402480A0350
1001
ACAD
1000
AcDbSavedByObjectVersion
1070
     0
  0
ACAD_PROXY_OBJECT
  5
38
102
{ACAD_REACTORS
330
2A
102
}
330
2A
100
AcDbProxyObject
 90
      499
 91
      501
 93
      444
310
42D31A5B995C185D1D195C9B90E409028333333333333E33F0000000000000F9010790141107004050750841D405064090741402483A0350
1001
ACAD
1000
AcDbSavedByObjectVersion
1070
     0
  0
ACAD_PROXY_OBJECT
  5
3C
102
{ACAD_REACTORS
330
2A
102
}
330
2A
100
AcDbProxyObject
 90
      499
 91
      501
 93
      444
310
42D3DD995C9A185B99D3D999915409028333333333333E33F0000000000000F9010790141107004050150941D405064090741402480A0350
1001
ACAD
1000
AcDbSavedByObjectVersion
1070
     0
  0
ACAD_PROXY_OBJECT
  5
33
102
{ACAD_REACTORS
330
2A
102
}
330
2A
100
AcDbProxyObject
 90
      499
 91
      501
 93
      428
310
425499585B1A5CDD1A58D08409038333333333333E33F0000000000000F9010740A907004050150800405405064090740C02480A1B40
1001
ACAD
1000
AcDbSavedByObjectVersion
1070
     0
  0
ACAD_PROXY_OBJECT
  5
42
102
{ACAD_REACTORS
330
2A
102
}
330
2A
100
AcDbProxyObject
 90
      499
 91
      501
 93
      420
310
4194DA1859195911B40902404333333333333E33F0000000000000F9010740A41107004050150800405405064090840C02480A0B40
1001
ACAD
1000
AcDbSavedByObjectVersion
1070
     0
  0
ACAD_PROXY_OBJECT
  5
41
102
{ACAD_REACTORS
330
2A
102
}
330
2A
100
AcDbProxyObject
 90
      499
 91
      501
 93
      516
310
4454DA18591959081DDA5D1A08195919D95CD1A40902404333333333333E33F0000000000000F901074090142907004050250800405405064090740C02480A0B40
1001
ACAD
1000
AcDbSavedByObjectVersion
1070
     0
  0
ACAD_PROXY_OBJECT
  5
3E
102
{ACAD_REACTORS
330
2A
102
}
330
2A
100
AcDbProxyObject
 90
      499
 91
      501
 93
      532
310
4394DA1859195CC81BD98811DC985E5174090240C333333333333E33F0000000000000F901079024090741D01000000000000111010841D405064090740C02480A0340
1001
ACAD
1000
AcDbSavedByObjectVersion
1070
     0
  0
ACAD_PROXY_OBJECT
  5
3F
102
{ACAD_REACTORS
330
2A
102
}
330
2A
100
AcDbProxyObject
 90
      499
 91
      501
 93
      476
310
41D4DAD95D18DA1E51840502408333333333333E33F0000000000000F901079024090741D01000000000000111010B41D405064090741802480A0340
1001
ACAD
1000
AcDbSavedByObjectVersion
1070
     0
  0
ACAD_PROXY_OBJECT
  5
37
102
{ACAD_REACTORS
330
2A
102
}
330
2A
100
AcDbProxyObject
 90
      499
 91
      501
 93
      412
310
41D51A1A58DAD95B90D409028333333333333E33F0000000000000F9010790141107004050150C41D405064090741402480A0350
1001
ACAD
1000
AcDbSavedByObjectVersion
1070
     0
  0
ACAD_PROXY_OBJECT
  5
30
102
{ACAD_REACTORS
330
2A
102
}
330
2A
100
AcDbProxyObject
 90
      499
 91
      501
 93
      420
310
4255DA5C99599C985B595059028333333333333E33F0000000000000F90107901411070040501600405405064090740C02480A0340
1001
ACAD
1000
AcDbSavedByObjectVersion
1070
     0
  0
ACAD_PROXY_OBJECT
  5
40
102
{ACAD_REACTORS
330
2A
102
}
330
2A
100
AcDbProxyObject
 90
      499
 91
      501
 93
      404
310
41560B54985E51940902404000000000000E03F0000000000000F9010740501907004050150841D405064090740C02480A1B40
1001
ACAD
1000
AcDbSavedByObjectVersion
1070
     0
  0
XRECORD
  5
482
102
{ACAD_REACTORS
330
478
102
}
330
478
100
AcDbXrecord
340
0
  0
XRECORD
  5
481
102
{ACAD_REACTORS
330
478
102
}
330
478
100
AcDbXrecord
 90
        0
  0
XRECORD
  5
498
102
{ACAD_REACTORS
330
478
102
}
330
478
100
AcDbXrecord
1000
DSTYLE
1002
{
1070
   171
 70
     2
1070
   143
 40
25.4
1070
   274
 70
     2
1070
    41
 40
0.18
1070
   141
 40
0.09
1070
   271
 70
     4
1070
    43
 40
0.38
1070
   278
 70
    46
1070
    44
 40
0.18
1070
    42
 40
0.0625
1070
   147
 40
0.09
1070
    77
 70
     0
1070
   272
 70
     4
1070
    73
 70
     1
1070
   279
 70
     2
1070
   172
 70
     0
1070
    74
 70
     1
1070
   283
 70
     1
1070
   340
340
11
1070
   140
 40
0.18
1070
   284
 70
     0
1070
    78
 70
     0
1002
}
  0
XRECORD
  5
483
102
{ACAD_REACTORS
330
478
102
}
330
478
100
AcDbXrecord
  1
{70dfc72d-a057-4f12-a40b-007a7e0fe2b6}
  0
XRECORD
  5
47B
102
{ACAD_REACTORS
330
478
102
}
330
478
100
AcDbXrecord
  1

  0
XRECORD
  5
480
102
{ACAD_REACTORS
330
478
102
}
330
478
100
AcDbXrecord
 90
        4
  0
XRECORD
  5
47D
102
{ACAD_REACTORS
330
478
102
}
330
478
100
AcDbXrecord
340
1A
  0
XRECORD
  5
47F
102
{ACAD_REACTORS
330
478
102
}
330
478
100
AcDbXrecord
 90
    10781
  0
XRECORD
  5
47E
102
{ACAD_REACTORS
330
478
102
}
330
478
100
AcDbXrecord
340
19
  0
XRECORD
  5
485
102
{ACAD_REACTORS
330
478
102
}
330
478
100
AcDbXrecord
 40
0.0
  0
XRECORD
  5
488
102
{ACAD_REACTORS
330
478
102
}
330
478
100
AcDbXrecord
340
0
  0
XRECORD
  5
48E
102
{ACAD_REACTORS
330
478
102
}
330
478
100
AcDbXrecord
 10
0.0
 20
0.0
 30
0.0
  0
XRECORD
  5
48A
102
{ACAD_REACTORS
330
478
102
}
330
478
100
AcDbXrecord
 10
0.0
 20
0.0
 30
0.0
  0
XRECORD
  5
48D
102
{ACAD_REACTORS
330
478
102
}
330
478
100
AcDbXrecord
 10
0.0
 20
0.0
 30
0.0
  0
XRECORD
  5
48B
102
{ACAD_REACTORS
330
478
102
}
330
478
100
AcDbXrecord
 10
0.0
 20
0.0
 30
0.0
  0
XRECORD
  5
48C
102
{ACAD_REACTORS
330
478
102
}
330
478
100
AcDbXrecord
 10
0.0
 20
0.0
 30
0.0
  0
XRECORD
  5
489
102
{ACAD_REACTORS
330
478
102
}
330
478
100
AcDbXrecord
 10
0.0
 20
0.0
 30
0.0
  0
XRECORD
  5
486
102
{ACAD_REACTORS
330
478
102
}
330
478
100
AcDbXrecord
340
0
  0
XRECORD
  5
487
102
{ACAD_REACTORS
330
478
102
}
330
478
100
AcDbXrecord
 70
     0
  0
XRECORD
  5
47C
102
{ACAD_REACTORS
330
478
102
}
330
478
100
AcDbXrecord
  1

  0
XRECORD
  5
479
102
{ACAD_REACTORS
330
478
102
}
330
478
100
AcDbXrecord
 90
        1
  0
XRECORD
  5
47A
102
{ACAD_REACTORS
330
478
102
}
330
478
100
AcDbXrecord
 90
       70
  0
XRECORD
  5
491
102
{ACAD_REACTORS
330
478
102
}
330
478
100
AcDbXrecord
340
0
  0
XRECORD
  5
497
102
{ACAD_REACTORS
330
478
102
}
330
478
100
AcDbXrecord
 10
0.0
 20
0.0
 30
0.0
  0
XRECORD
  5
493
102
{ACAD_REACTORS
330
478
102
}
330
478
100
AcDbXrecord
 10
0.0
 20
0.0
 30
0.0
  0
XRECORD
  5
496
102
{ACAD_REACTORS
330
478
102
}
330
478
100
AcDbXrecord
 10
0.0
 20
0.0
 30
0.0
  0
XRECORD
  5
494
102
{ACAD_REACTORS
330
478
102
}
330
478
100
AcDbXrecord
 10
0.0
 20
0.0
 30
0.0
  0
XRECORD
  5
495
102
{ACAD_REACTORS
330
478
102
}
330
478
100
AcDbXrecord
 10
0.0
 20
0.0
 30
0.0
  0
XRECORD
  5
492
102
{ACAD_REACTORS
330
478
102
}
330
478
100
AcDbXrecord
 10
0.0
 20
0.0
 30
0.0
  0
XRECORD
  5
48F
102
{ACAD_REACTORS
330
478
102
}
330
478
100
AcDbXrecord
340
0
  0
XRECORD
  5
490
102
{ACAD_REACTORS
330
478
102
}
330
478
100
AcDbXrecord
 70
     0
  0
XRECORD
  5
484
102
{ACAD_REACTORS
330
478
102
}
330
478
100
AcDbXrecord
  1
{FAEB1C32-E019-11D5-929B-00C0DF256EC4}
  0
DICTIONARYVAR
  5
4A3
102
{ACAD_REACTORS
330
499
102
}
330
499
100
DictionaryVariables
280
     0
  1
1:1
  0
DICTIONARYVAR
  5
49B
102
{ACAD_REACTORS
330
499
102
}
330
499
100
DictionaryVariables
280
     0
  1
Standard
  0
DICTIONARYVAR
  5
49A
102
{ACAD_REACTORS
330
499
102
}
330
499
100
DictionaryVariables
280
     0
  1
Standard
  0
DICTIONARYVAR
  5
49E
102
{ACAD_REACTORS
330
499
102
}
330
499
100
DictionaryVariables
280
     0
  1
2
  0
DICTIONARYVAR
  5
49F
102
{ACAD_REACTORS
330
499
102
}
330
499
100
DictionaryVariables
280
     0
  1
1
  0
DICTIONARYVAR
  5
4A4
102
{ACAD_REACTORS
330
499
102
}
330
499
100
DictionaryVariables
280
     0
  1
1
  0
DICTIONARY
  5
4A7
330
45
100
AcDbDictionary
280
     1
  3
ACAD_XREC_ROUNDTRIP
360
4A8
  0
DICTIONARY
  5
4A5
330
44
100
AcDbDictionary
280
     1
  3
ACAD_XREC_ROUNDTRIP
360
4A6
  0
DICTIONARY
  5
4A9
330
46
100
AcDbDictionary
280
     1
  3
ACAD_XREC_ROUNDTRIP
360
4AA
  0
XRECORD
  5
4A8
102
{ACAD_REACTORS
330
4A7
102
}
330
4A7
100
AcDbXrecord
102
MATERIAL
148
0.0
149
0.0
149
0.0
 93
        0
 94
      127
282
     0
 72
     1
 77
     1
171
     1
175
     1
179
     1
273
     0
  0
XRECORD
  5
4A6
102
{ACAD_REACTORS
330
4A5
102
}
330
4A5
100
AcDbXrecord
102
MATERIAL
148
0.0
149
0.0
149
0.0
 93
        0
 94
      127
282
     0
 72
     1
 77
     1
171
     1
175
     1
179
     1
273
     0
  0
XRECORD
  5
4AA
102
{ACAD_REACTORS
330
4A9
102
}
330
4A9
100
AcDbXrecord
102
MATERIAL
148
0.0
149
0.0
149
0.0
 93
        0
 94
      127
282
     0
 72
     1
 77
     1
171
     1
175
     1
179
     1
273
     0
  0
ENDSEC
  0
EOF
