<svg id="Layer_1" data-name="Layer 1" xmlns="http://www.w3.org/2000/svg" viewBox="0 0 425.2 425.2"><defs><style>.cls-1,.cls-3{fill:none;stroke:#1d1d1b;stroke-miterlimit:10;}.cls-1{stroke-width:0.5px;}.cls-2{font-size:6px;fill:#1d1d1b;font-family:Monotxt;}.cls-3{stroke-width:0.25px;}</style></defs><g id="POLYLINE"><polygon class="cls-1" points="178.19 392.11 178.19 391.21 180.07 391.21 180.07 394.81 197.25 394.81 197.25 356.63 188.84 356.63 188.84 354.76 189.75 354.76 189.75 353.03 188.84 353.03 188.84 351.16 192.44 351.16 192.44 348.53 188.84 348.53 188.84 346.66 189.75 346.66 189.75 344.93 188.84 344.93 188.84 343.06 197.25 343.06 197.25 266.63 188.84 266.63 188.84 264.76 189.75 264.76 189.75 263.03 188.84 263.03 188.84 261.16 192.44 261.16 192.44 258.53 188.84 258.53 188.84 256.66 189.75 256.66 189.75 254.93 188.84 254.93 188.84 253.06 197.25 253.06 197.25 176.63 188.84 176.63 188.84 174.76 189.75 174.76 189.75 173.03 188.84 173.03 188.84 171.16 192.44 171.16 192.44 168.53 188.84 168.53 188.84 166.66 189.75 166.66 189.75 164.93 188.84 164.93 188.84 163.06 197.25 163.06 197.25 86.63 188.84 86.63 188.84 84.76 189.75 84.76 189.75 83.03 188.84 83.03 188.84 81.16 192.44 81.16 192.44 78.53 188.84 78.53 188.84 76.66 189.75 76.66 189.75 74.93 188.84 74.93 188.84 73.06 197.25 73.06 197.25 34.88 180.07 34.88 180.07 38.48 178.19 38.48 178.19 37.58 173.73 37.58 173.73 40.28 174.63 40.28 174.63 42.08 167.43 42.08 167.43 40.28 168.33 40.28 168.33 37.58 163.87 37.58 163.87 38.48 162 38.48 162 34.88 149.62 34.88 149.62 73.06 153.22 73.06 153.22 74.93 152.32 74.93 152.32 76.66 153.22 76.66 153.22 78.53 149.62 78.53 149.62 81.16 153.22 81.16 153.22 83.03 152.32 83.03 152.32 84.76 153.22 84.76 153.22 86.63 149.62 86.63 149.62 163.06 153.22 163.06 153.22 164.93 152.32 164.93 152.32 166.66 153.22 166.66 153.22 168.53 149.62 168.53 149.62 171.16 153.22 171.16 153.22 173.03 152.32 173.03 152.32 174.76 153.22 174.76 153.22 176.63 149.62 176.63 149.62 253.06 153.22 253.06 153.22 254.93 152.32 254.93 152.32 256.66 153.22 256.66 153.22 258.53 149.62 258.53 149.62 261.16 153.22 261.16 153.22 263.03 152.32 263.03 152.32 264.76 153.22 264.76 153.22 266.63 149.62 266.63 149.62 343.06 153.22 343.06 153.22 344.93 152.32 344.93 152.32 346.66 153.22 346.66 153.22 348.53 149.62 348.53 149.62 351.16 153.22 351.16 153.22 353.03 152.32 353.03 152.32 354.76 153.22 354.76 153.22 356.63 149.62 356.63 149.62 364.81 153.22 364.81 153.22 366.68 152.32 366.68 152.32 378.01 153.22 378.01 153.22 379.88 149.62 379.88 149.62 394.81 162 394.81 162 391.21 163.87 391.21 163.87 392.11 168.33 392.11 168.33 389.41 167.43 389.41 167.43 387.61 174.63 387.61 174.63 389.41 173.73 389.41 173.73 392.11 178.19 392.11"/></g><g id="POLYLINE-2" data-name="POLYLINE"><polygon class="cls-1" points="133.79 37.58 133.79 38.48 135.67 38.48 135.67 34.88 148.04 34.88 148.04 73.06 144.44 73.06 144.44 74.93 145.34 74.93 145.34 76.66 144.44 76.66 144.44 78.53 148.04 78.53 148.04 81.16 144.44 81.16 144.44 83.03 145.34 83.03 145.34 84.76 144.44 84.76 144.44 86.63 148.04 86.63 148.04 163.06 144.44 163.06 144.44 164.93 145.34 164.93 145.34 166.66 144.44 166.66 144.44 168.53 148.04 168.53 148.04 171.16 144.44 171.16 144.44 173.03 145.34 173.03 145.34 174.76 144.44 174.76 144.44 176.63 148.04 176.63 148.04 253.06 144.44 253.06 144.44 254.93 145.34 254.93 145.34 256.66 144.44 256.66 144.44 258.53 148.04 258.53 148.04 261.16 144.44 261.16 144.44 263.03 145.34 263.03 145.34 264.76 144.44 264.76 144.44 266.63 148.04 266.63 148.04 343.06 144.44 343.06 144.44 344.93 145.34 344.93 145.34 346.66 144.44 346.66 144.44 348.53 148.04 348.53 148.04 351.16 144.44 351.16 144.44 353.03 145.34 353.03 145.34 354.76 144.44 354.76 144.44 356.63 148.04 356.63 148.04 364.81 144.44 364.81 144.44 366.68 145.34 366.68 145.34 378.01 144.44 378.01 144.44 379.88 148.04 379.88 148.04 394.81 135.67 394.81 135.67 391.21 133.79 391.21 133.79 392.11 129.33 392.11 129.33 389.41 130.23 389.41 130.23 387.61 123.03 387.61 123.03 389.41 123.93 389.41 123.93 392.11 119.47 392.11 119.47 391.21 117.59 391.21 117.59 394.81 100.42 394.81 100.42 356.63 108.82 356.63 108.82 354.76 107.92 354.76 107.92 353.03 108.82 353.03 108.82 351.16 105.22 351.16 105.22 348.53 108.82 348.53 108.82 346.66 107.92 346.66 107.92 344.93 108.82 344.93 108.82 343.06 100.42 343.06 100.42 266.63 108.82 266.63 108.82 264.76 107.92 264.76 107.92 263.03 108.82 263.03 108.82 261.16 105.22 261.16 105.22 258.53 108.82 258.53 108.82 256.66 107.92 256.66 107.92 254.93 108.82 254.93 108.82 253.06 100.42 253.06 100.42 176.63 108.82 176.63 108.82 174.76 107.92 174.76 107.92 173.03 108.82 173.03 108.82 171.16 105.22 171.16 105.22 168.53 108.82 168.53 108.82 166.66 107.92 166.66 107.92 164.93 108.82 164.93 108.82 163.06 100.42 163.06 100.42 86.63 108.82 86.63 108.82 84.76 107.92 84.76 107.92 83.03 108.82 83.03 108.82 81.16 105.22 81.16 105.22 78.53 108.82 78.53 108.82 76.66 107.92 76.66 107.92 74.93 108.82 74.93 108.82 73.06 100.42 73.06 100.42 34.88 117.59 34.88 117.59 38.48 119.47 38.48 119.47 37.58 123.93 37.58 123.93 40.28 123.03 40.28 123.03 42.08 130.23 42.08 130.23 40.28 129.33 40.28 129.33 37.58 133.79 37.58"/></g><g id="POLYLINE-3" data-name="POLYLINE"><polygon class="cls-1" points="17.02 281.11 17.02 269.78 17.92 269.78 17.92 267.91 14.32 267.91 14.32 252.38 17.92 252.38 17.92 250.51 17.02 250.51 17.02 239.18 17.92 239.18 17.92 237.31 14.32 237.31 14.32 217.88 17.25 217.88 17.25 218.78 19.12 218.78 19.12 215.18 34.05 215.18 34.05 218.78 35.92 218.78 35.92 217.88 49.05 217.88 49.05 245.11 45.45 245.11 45.45 246.98 46.35 246.98 46.35 273.31 45.45 273.31 45.45 275.18 49.05 275.18 49.05 302.41 46.42 302.41 46.42 301.51 44.55 301.51 44.55 308.78 46.42 308.78 46.42 307.88 49.05 307.88 49.05 335.11 45.45 335.11 45.45 336.98 46.35 336.98 46.35 363.31 45.45 363.31 45.45 365.18 49.05 365.18 49.05 392.41 35.92 392.41 35.92 391.51 34.05 391.51 34.05 395.11 19.12 395.11 19.12 391.51 17.25 391.51 17.25 392.41 14.32 392.41 14.32 372.98 17.92 372.98 17.92 371.11 17.02 371.11 17.02 359.78 17.92 359.78 17.92 357.91 14.32 357.91 14.32 342.38 17.92 342.38 17.92 340.51 17.02 340.51 17.02 329.18 17.92 329.18 17.92 327.31 14.32 327.31 14.32 282.98 17.92 282.98 17.92 281.11 17.02 281.11"/></g><g id="POLYLINE-4" data-name="POLYLINE"><polygon class="cls-1" points="17.02 98.11 17.02 86.78 17.92 86.78 17.92 84.91 14.32 84.91 14.32 69.38 17.92 69.38 17.92 67.51 17.02 67.51 17.02 56.18 17.92 56.18 17.92 54.31 14.32 54.31 14.32 34.88 17.25 34.88 17.25 35.78 19.12 35.78 19.12 32.18 34.05 32.18 34.05 35.78 35.92 35.78 35.92 34.88 49.05 34.88 49.05 62.11 45.45 62.11 45.45 63.98 46.35 63.98 46.35 90.31 45.45 90.31 45.45 92.18 49.05 92.18 49.05 119.41 46.42 119.41 46.42 118.51 44.55 118.51 44.55 125.78 46.42 125.78 46.42 124.88 49.05 124.88 49.05 152.11 45.45 152.11 45.45 153.98 46.35 153.98 46.35 180.31 45.45 180.31 45.45 182.18 49.05 182.18 49.05 209.41 35.92 209.41 35.92 208.51 34.05 208.51 34.05 212.11 19.12 212.11 19.12 208.51 17.25 208.51 17.25 209.41 14.32 209.41 14.32 189.98 17.92 189.98 17.92 188.11 17.02 188.11 17.02 176.78 17.92 176.78 17.92 174.91 14.32 174.91 14.32 159.38 17.92 159.38 17.92 157.51 17.02 157.51 17.02 146.18 17.92 146.18 17.92 144.31 14.32 144.31 14.32 99.98 17.92 99.98 17.92 98.11 17.02 98.11"/></g><g id="POLYLINE-5" data-name="POLYLINE"><polygon class="cls-1" points="75.07 52.21 75.07 34.88 98.55 34.88 98.55 209.41 75.07 209.41 75.07 192.08 75.97 192.08 75.97 190.21 68.69 190.21 68.69 192.08 69.59 192.08 69.59 209.41 50.92 209.41 50.92 182.18 54.52 182.18 54.52 180.31 53.62 180.31 53.62 153.98 54.52 153.98 54.52 152.11 50.92 152.11 50.92 92.18 54.52 92.18 54.52 90.31 53.62 90.31 53.62 63.98 54.52 63.98 54.52 62.11 50.92 62.11 50.92 34.88 69.59 34.88 69.59 52.21 68.69 52.21 68.69 54.08 75.97 54.08 75.97 52.21 75.07 52.21"/></g><g id="POLYLINE-6" data-name="POLYLINE"><polygon class="cls-1" points="94.72 371.22 94.72 373.1 93.82 373.1 93.82 390.72 98.55 390.72 98.55 216.2 93.82 216.2 93.82 233.82 94.72 233.82 94.72 235.7 90.15 235.7 90.15 233.82 91.05 233.82 91.05 216.2 77.92 216.2 77.92 217.1 76.05 217.1 76.05 214.85 68.62 214.85 68.62 217.1 66.75 217.1 66.75 216.2 53.62 216.2 53.62 233.82 54.52 233.82 54.52 235.7 50.92 235.7 50.92 250.62 54.52 250.62 54.52 252.5 53.62 252.5 53.62 264.42 54.52 264.42 54.52 266.3 50.92 266.3 50.92 281.22 54.52 281.22 54.52 283.1 53.62 283.1 53.62 323.82 54.52 323.82 54.52 325.7 50.92 325.7 50.92 340.62 54.52 340.62 54.52 342.5 53.62 342.5 53.62 354.42 54.52 354.42 54.52 356.3 50.92 356.3 50.92 371.22 54.52 371.22 54.52 373.1 53.62 373.1 53.62 390.72 66.75 390.72 66.75 389.82 68.62 389.82 68.62 392.07 76.05 392.07 76.05 389.82 77.92 389.82 77.92 390.72 91.05 390.72 91.05 373.1 90.15 373.1 90.15 371.22 94.72 371.22"/></g><g id="MTEXT"><text class="cls-2" transform="translate(171.33 197.41) rotate(90)">DOOR-M1/E</text></g><g id="MTEXT-2" data-name="MTEXT"><text class="cls-2" transform="translate(122.6 197.37) rotate(90)">DOOR-M1/D</text></g><g id="MTEXT-3" data-name="MTEXT"><text class="cls-2" transform="translate(69.34 286.4) rotate(90)">DOOR-M1/A</text></g><g id="MTEXT-4" data-name="MTEXT"><text class="cls-2" transform="translate(87.06 105.11) rotate(90)">DOOR-M1/C</text></g><g id="MTEXT-5" data-name="MTEXT"><text class="cls-2" transform="translate(25.06 288.09) rotate(90)">DOOR-M1/B</text></g><g id="MTEXT-6" data-name="MTEXT"><text class="cls-2" transform="translate(25.66 105.09) rotate(90)">DOOR-M1/B</text></g><g id="POLYLINE-7" data-name="POLYLINE"><polygon class="cls-1" points="37.42 379.21 35.55 379.21 35.55 386.48 37.42 386.48 37.42 385.58 42.75 385.58 42.75 386.48 44.62 386.48 44.62 379.21 42.75 379.21 42.75 380.11 37.42 380.11 37.42 379.21"/></g><g id="POLYLINE-8" data-name="POLYLINE"><polygon class="cls-1" points="44.62 321.08 44.62 313.81 42.75 313.81 42.75 314.71 37.42 314.71 37.42 313.81 35.55 313.81 35.55 321.08 37.42 321.08 37.42 320.18 42.75 320.18 42.75 321.08 44.62 321.08"/></g><g id="POLYLINE-9" data-name="POLYLINE"><polygon class="cls-1" points="42.75 295.58 42.75 296.48 44.62 296.48 44.62 289.21 42.75 289.21 42.75 290.11 37.42 290.11 37.42 289.21 35.55 289.21 35.55 296.48 37.42 296.48 37.42 295.58 42.75 295.58"/></g><g id="POLYLINE-10" data-name="POLYLINE"><polygon class="cls-1" points="37.42 223.81 35.55 223.81 35.55 231.08 37.42 231.08 37.42 230.18 42.75 230.18 42.75 231.08 44.62 231.08 44.62 223.81 42.75 223.81 42.75 224.71 37.42 224.71 37.42 223.81"/></g><g id="POLYLINE-11" data-name="POLYLINE"><polygon class="cls-1" points="37.42 196.21 35.55 196.21 35.55 203.48 37.42 203.48 37.42 202.58 42.75 202.58 42.75 203.48 44.62 203.48 44.62 196.21 42.75 196.21 42.75 197.11 37.42 197.11 37.42 196.21"/></g><g id="POLYLINE-12" data-name="POLYLINE"><polygon class="cls-1" points="44.62 138.08 44.62 130.81 42.75 130.81 42.75 131.71 37.42 131.71 37.42 130.81 35.55 130.81 35.55 138.08 37.42 138.08 37.42 137.18 42.75 137.18 42.75 138.08 44.62 138.08"/></g><g id="POLYLINE-13" data-name="POLYLINE"><polygon class="cls-1" points="42.75 112.58 42.75 113.48 44.62 113.48 44.62 106.21 42.75 106.21 42.75 107.11 37.42 107.11 37.42 106.21 35.55 106.21 35.55 113.48 37.42 113.48 37.42 112.58 42.75 112.58"/></g><g id="POLYLINE-14" data-name="POLYLINE"><polygon class="cls-1" points="37.42 40.81 35.55 40.81 35.55 48.08 37.42 48.08 37.42 47.18 42.75 47.18 42.75 48.08 44.62 48.08 44.62 40.81 42.75 40.81 42.75 41.71 37.42 41.71 37.42 40.81"/></g><g id="POLYLINE-15" data-name="POLYLINE"><polygon class="cls-1" points="79.5 119.41 75.07 119.41 75.07 102.08 75.97 102.08 75.97 100.21 68.69 100.21 68.69 102.08 69.59 102.08 69.59 119.41 65.17 119.41 65.17 118.51 63.3 118.51 63.3 125.78 65.17 125.78 65.17 124.88 69.59 124.88 69.59 142.21 68.69 142.21 68.69 144.08 75.97 144.08 75.97 142.21 75.07 142.21 75.07 124.88 79.5 124.88 79.5 125.78 81.37 125.78 81.37 118.51 79.5 118.51 79.5 119.41"/></g><g id="POLYLINE-16" data-name="POLYLINE"><polygon class="cls-1" points="94.72 264.42 94.72 266.3 90.15 266.3 90.15 264.42 91.05 264.42 91.05 252.5 90.15 252.5 90.15 250.62 94.72 250.62 94.72 252.5 93.82 252.5 93.82 264.42 94.72 264.42"/></g><g id="POLYLINE-17" data-name="POLYLINE"><polygon class="cls-1" points="90.15 323.82 91.05 323.82 91.05 283.1 90.15 283.1 90.15 281.22 94.72 281.22 94.72 283.1 93.82 283.1 93.82 323.82 94.72 323.82 94.72 325.7 90.15 325.7 90.15 323.82"/></g><g id="POLYLINE-18" data-name="POLYLINE"><polygon class="cls-1" points="90.15 354.42 91.05 354.42 91.05 342.5 90.15 342.5 90.15 340.62 94.72 340.62 94.72 342.5 93.82 342.5 93.82 354.42 94.72 354.42 94.72 356.3 90.15 356.3 90.15 354.42"/></g><g id="POLYLINE-19" data-name="POLYLINE"><polygon class="cls-1" points="108.82 378.01 107.92 378.01 107.92 366.68 108.82 366.68 108.82 364.81 107.02 364.81 107.02 363.91 105.14 363.91 105.14 380.78 107.02 380.78 107.02 379.88 108.82 379.88 108.82 378.01"/></g><g id="POLYLINE-20" data-name="POLYLINE"><polygon class="cls-1" points="188.84 378.01 189.75 378.01 189.75 366.68 188.84 366.68 188.84 364.81 190.65 364.81 190.65 363.91 192.52 363.91 192.52 380.78 190.65 380.78 190.65 379.88 188.84 379.88 188.84 378.01"/></g><g id="POLYLINE-21" data-name="POLYLINE"><rect class="cls-3" x="14.28" y="31.19" width="183" height="366"/></g></svg>