<svg id="Layer_1" data-name="Layer 1" xmlns="http://www.w3.org/2000/svg" viewBox="0 0 425.2 425.2"><defs><style>.cls-1{font-size:6px;}.cls-1,.cls-2{fill:#1d1d1b;font-family:Monotxt;}.cls-2{font-size:8.47px;}.cls-3,.cls-4{fill:none;stroke:#1d1d1b;stroke-miterlimit:10;}.cls-3{stroke-width:0.5px;}.cls-4{stroke-width:0.25px;}</style></defs><g id="MTEXT"><text class="cls-1" transform="translate(136.41 169.2)">WALL-M/A</text></g><g id="MTEXT-2" data-name="MTEXT"><text class="cls-1" transform="translate(44.91 168.6)">WALL-M/A</text></g><g id="MTEXT-3" data-name="MTEXT"><text class="cls-1" transform="translate(288.93 275.46) rotate(-90)">WALL-M/B</text></g><g id="MTEXT-4" data-name="MTEXT"><text class="cls-1" transform="translate(288.93 183.21) rotate(-90)">WALL-M/B</text></g><g id="MTEXT-5" data-name="MTEXT"><text class="cls-1" transform="translate(288.93 90.96) rotate(-90)">WALL-M/B</text></g><g id="MTEXT-6" data-name="MTEXT"><text class="cls-2" transform="translate(272.68 314.84)">&lt;PEG</text></g><g id="MTEXT-7" data-name="MTEXT"><text class="cls-2" transform="translate(272.68 325.79)">&lt;PEG</text></g><g id="MTEXT-8" data-name="MTEXT"><text class="cls-2" transform="translate(272.68 336.74)">&lt;PEG</text></g><g id="MTEXT-9" data-name="MTEXT"><text class="cls-2" transform="translate(272.68 347.69)">&lt;PEG</text></g><g id="MTEXT-10" data-name="MTEXT"><text class="cls-2" transform="translate(272.68 358.64)">&lt;PEG</text></g><g id="MTEXT-11" data-name="MTEXT"><text class="cls-2" transform="translate(272.68 369.59)">&lt;PEG</text></g><g id="MTEXT-12" data-name="MTEXT"><text class="cls-2" transform="translate(272.58 380.54)">&lt;PEG</text></g><g id="MTEXT-13" data-name="MTEXT"><text class="cls-2" transform="translate(272.58 391.49)">&lt;PEG</text></g><g id="MTEXT-14" data-name="MTEXT"><text class="cls-1" transform="translate(330.37 242.68) rotate(90)">WALL-M/C</text></g><g id="MTEXT-15" data-name="MTEXT"><text class="cls-1" transform="translate(380.92 240.28) rotate(90)">WALL-M/C</text></g><g id="POLYLINE"><polygon class="cls-3" points="389.31 35.22 389.31 36.12 391.19 36.12 391.19 32.52 408.37 32.52 408.37 70.7 399.96 70.7 399.96 72.57 400.87 72.57 400.87 74.3 399.96 74.3 399.96 76.17 403.56 76.17 403.56 78.8 399.96 78.8 399.96 80.67 400.87 80.67 400.87 82.4 399.96 82.4 399.96 84.27 408.37 84.27 408.37 160.7 399.96 160.7 399.96 162.57 400.87 162.57 400.87 164.3 399.96 164.3 399.96 166.17 403.56 166.17 403.56 168.8 399.96 168.8 399.96 170.67 400.87 170.67 400.87 172.4 399.96 172.4 399.96 174.27 408.37 174.27 408.37 250.7 399.96 250.7 399.96 252.57 400.87 252.57 400.87 254.3 399.96 254.3 399.96 256.17 403.56 256.17 403.56 258.8 399.96 258.8 399.96 260.67 400.87 260.67 400.87 262.4 399.96 262.4 399.96 264.27 408.37 264.27 408.37 340.7 399.96 340.7 399.96 342.57 400.87 342.57 400.87 344.3 399.96 344.3 399.96 346.17 403.56 346.17 403.56 348.8 399.96 348.8 399.96 350.67 400.87 350.67 400.87 352.4 399.96 352.4 399.96 354.27 408.37 354.27 408.37 392.45 391.19 392.45 391.19 388.85 389.31 388.85 389.31 389.75 384.85 389.75 384.85 387.05 385.75 387.05 385.75 385.25 378.55 385.25 378.55 387.05 379.45 387.05 379.45 389.75 374.99 389.75 374.99 388.85 373.12 388.85 373.12 392.45 360.74 392.45 360.74 377.52 364.34 377.52 364.34 375.65 363.44 375.65 363.44 364.32 364.34 364.32 364.34 362.45 360.74 362.45 360.74 354.27 364.34 354.27 364.34 352.4 363.44 352.4 363.44 350.67 364.34 350.67 364.34 348.8 360.74 348.8 360.74 346.17 364.34 346.17 364.34 344.3 363.44 344.3 363.44 342.57 364.34 342.57 364.34 340.7 360.74 340.7 360.74 332.52 364.34 332.52 364.34 330.65 363.44 330.65 363.44 319.32 364.34 319.32 364.34 317.45 360.74 317.45 360.74 287.52 364.34 287.52 364.34 285.65 363.44 285.65 363.44 274.32 364.34 274.32 364.34 272.45 360.74 272.45 360.74 264.27 364.34 264.27 364.34 262.4 363.44 262.4 363.44 260.67 364.34 260.67 364.34 258.8 360.74 258.8 360.74 256.17 364.34 256.17 364.34 254.3 363.44 254.3 363.44 252.57 364.34 252.57 364.34 250.7 360.74 250.7 360.74 242.52 364.34 242.52 364.34 240.65 363.44 240.65 363.44 229.32 364.34 229.32 364.34 227.45 360.74 227.45 360.74 197.52 364.34 197.52 364.34 195.65 363.44 195.65 363.44 184.32 364.34 184.32 364.34 182.45 360.74 182.45 360.74 174.27 364.34 174.27 364.34 172.4 363.44 172.4 363.44 170.67 364.34 170.67 364.34 168.8 360.74 168.8 360.74 166.17 364.34 166.17 364.34 164.3 363.44 164.3 363.44 162.57 364.34 162.57 364.34 160.7 360.74 160.7 360.74 152.52 364.34 152.52 364.34 150.65 363.44 150.65 363.44 139.32 364.34 139.32 364.34 137.45 360.74 137.45 360.74 107.52 364.34 107.52 364.34 105.65 363.44 105.65 363.44 94.32 364.34 94.32 364.34 92.45 360.74 92.45 360.74 84.27 364.34 84.27 364.34 82.4 363.44 82.4 363.44 80.67 364.34 80.67 364.34 78.8 360.74 78.8 360.74 76.17 364.34 76.17 364.34 74.3 363.44 74.3 363.44 72.57 364.34 72.57 364.34 70.7 360.74 70.7 360.74 62.52 364.34 62.52 364.34 60.65 363.44 60.65 363.44 49.32 364.34 49.32 364.34 47.45 360.74 47.45 360.74 32.52 373.12 32.52 373.12 36.12 374.99 36.12 374.99 35.22 379.45 35.22 379.45 37.92 378.55 37.92 378.55 39.72 385.75 39.72 385.75 37.92 384.85 37.92 384.85 35.22 389.31 35.22"/></g><g id="POLYLINE-2" data-name="POLYLINE"><polygon class="cls-3" points="339.37 35.22 339.37 36.12 341.24 36.12 341.24 32.52 358.42 32.52 358.42 70.7 350.01 70.7 350.01 72.57 350.92 72.57 350.92 74.3 350.01 74.3 350.01 76.17 353.62 76.17 353.62 78.8 350.01 78.8 350.01 80.67 350.92 80.67 350.92 82.4 350.01 82.4 350.01 84.27 358.42 84.27 358.42 160.7 350.01 160.7 350.01 162.57 350.92 162.57 350.92 164.3 350.01 164.3 350.01 166.17 353.62 166.17 353.62 168.8 350.01 168.8 350.01 170.67 350.92 170.67 350.92 172.4 350.01 172.4 350.01 174.27 358.42 174.27 358.42 250.7 350.01 250.7 350.01 252.57 350.92 252.57 350.92 254.3 350.01 254.3 350.01 256.17 353.62 256.17 353.62 258.8 350.01 258.8 350.01 260.67 350.92 260.67 350.92 262.4 350.01 262.4 350.01 264.27 358.42 264.27 358.42 340.7 350.01 340.7 350.01 342.57 350.92 342.57 350.92 344.3 350.01 344.3 350.01 346.17 353.62 346.17 353.62 348.8 350.01 348.8 350.01 350.67 350.92 350.67 350.92 352.4 350.01 352.4 350.01 354.27 358.42 354.27 358.42 392.45 341.24 392.45 341.24 388.85 339.37 388.85 339.37 389.75 334.9 389.75 334.9 387.05 335.8 387.05 335.8 385.25 328.6 385.25 328.6 387.05 329.5 387.05 329.5 389.75 325.04 389.75 325.04 388.85 323.17 388.85 323.17 392.45 310.79 392.45 310.79 377.52 314.39 377.52 314.39 375.65 313.49 375.65 313.49 364.32 314.39 364.32 314.39 362.45 310.79 362.45 310.79 354.27 314.39 354.27 314.39 352.4 313.49 352.4 313.49 350.67 314.39 350.67 314.39 348.8 310.79 348.8 310.79 346.17 314.39 346.17 314.39 344.3 313.49 344.3 313.49 342.57 314.39 342.57 314.39 340.7 310.79 340.7 310.79 332.52 314.39 332.52 314.39 330.65 313.49 330.65 313.49 319.32 314.39 319.32 314.39 317.45 310.79 317.45 310.79 287.52 314.39 287.52 314.39 285.65 313.49 285.65 313.49 274.32 314.39 274.32 314.39 272.45 310.79 272.45 310.79 264.27 314.39 264.27 314.39 262.4 313.49 262.4 313.49 260.67 314.39 260.67 314.39 258.8 310.79 258.8 310.79 256.17 314.39 256.17 314.39 254.3 313.49 254.3 313.49 252.57 314.39 252.57 314.39 250.7 310.79 250.7 310.79 242.52 314.39 242.52 314.39 240.65 313.49 240.65 313.49 229.32 314.39 229.32 314.39 227.45 310.79 227.45 310.79 197.52 314.39 197.52 314.39 195.65 313.49 195.65 313.49 184.32 314.39 184.32 314.39 182.45 310.79 182.45 310.79 174.27 314.39 174.27 314.39 172.4 313.49 172.4 313.49 170.67 314.39 170.67 314.39 168.8 310.79 168.8 310.79 166.17 314.39 166.17 314.39 164.3 313.49 164.3 313.49 162.57 314.39 162.57 314.39 160.7 310.79 160.7 310.79 152.52 314.39 152.52 314.39 150.65 313.49 150.65 313.49 139.32 314.39 139.32 314.39 137.45 310.79 137.45 310.79 107.52 314.39 107.52 314.39 105.65 313.49 105.65 313.49 94.32 314.39 94.32 314.39 92.45 310.79 92.45 310.79 84.27 314.39 84.27 314.39 82.4 313.49 82.4 313.49 80.67 314.39 80.67 314.39 78.8 310.79 78.8 310.79 76.17 314.39 76.17 314.39 74.3 313.49 74.3 313.49 72.57 314.39 72.57 314.39 70.7 310.79 70.7 310.79 62.52 314.39 62.52 314.39 60.65 313.49 60.65 313.49 49.32 314.39 49.32 314.39 47.45 310.79 47.45 310.79 32.52 323.17 32.52 323.17 36.12 325.04 36.12 325.04 35.22 329.5 35.22 329.5 37.92 328.6 37.92 328.6 39.72 335.8 39.72 335.8 37.92 334.9 37.92 334.9 35.22 339.37 35.22"/></g><g id="POLYLINE-3" data-name="POLYLINE"><polygon class="cls-3" points="265.64 237.57 265.64 252.5 269.24 252.5 269.24 254.37 268.34 254.37 268.34 266.3 269.24 266.3 269.24 268.17 265.64 268.17 265.64 283.1 269.24 283.1 269.24 284.97 268.34 284.97 268.34 302.6 281.46 302.6 281.46 301.7 283.34 301.7 283.34 305.3 290.76 305.3 290.76 301.7 292.64 301.7 292.64 302.6 305.76 302.6 305.76 284.97 304.87 284.97 304.87 283.1 308.46 283.1 308.46 268.17 304.87 268.17 304.87 266.3 305.76 266.3 305.76 254.37 304.87 254.37 304.87 252.5 308.46 252.5 308.46 237.57 304.87 237.57 304.87 235.7 305.76 235.7 305.76 218.07 292.64 218.07 292.64 218.97 290.76 218.97 290.76 215.37 283.34 215.37 283.34 218.97 281.46 218.97 281.46 218.07 268.34 218.07 268.34 235.7 269.24 235.7 269.24 237.57 265.64 237.57"/></g><g id="POLYLINE-4" data-name="POLYLINE"><polygon class="cls-3" points="265.64 145.32 265.64 160.25 269.24 160.25 269.24 162.12 268.34 162.12 268.34 174.05 269.24 174.05 269.24 175.92 265.64 175.92 265.64 190.85 269.24 190.85 269.24 192.72 268.34 192.72 268.34 210.35 281.46 210.35 281.46 209.45 283.34 209.45 283.34 213.05 290.76 213.05 290.76 209.45 292.64 209.45 292.64 210.35 305.76 210.35 305.76 192.72 304.87 192.72 304.87 190.85 308.46 190.85 308.46 175.92 304.87 175.92 304.87 174.05 305.76 174.05 305.76 162.12 304.87 162.12 304.87 160.25 308.46 160.25 308.46 145.32 304.87 145.32 304.87 143.45 305.76 143.45 305.76 125.82 292.64 125.82 292.64 126.72 290.76 126.72 290.76 123.12 283.34 123.12 283.34 126.72 281.46 126.72 281.46 125.82 268.34 125.82 268.34 143.45 269.24 143.45 269.24 145.32 265.64 145.32"/></g><g id="POLYLINE-5" data-name="POLYLINE"><polygon class="cls-3" points="265.64 53.07 265.64 68 269.24 68 269.24 69.87 268.34 69.87 268.34 81.8 269.24 81.8 269.24 83.67 265.64 83.67 265.64 98.6 269.24 98.6 269.24 100.47 268.34 100.47 268.34 118.1 281.46 118.1 281.46 117.2 283.34 117.2 283.34 120.8 290.76 120.8 290.76 117.2 292.64 117.2 292.64 118.1 305.76 118.1 305.76 100.47 304.87 100.47 304.87 98.6 308.46 98.6 308.46 83.67 304.87 83.67 304.87 81.8 305.76 81.8 305.76 69.87 304.87 69.87 304.87 68 308.46 68 308.46 53.07 304.87 53.07 304.87 51.2 305.76 51.2 305.76 33.57 292.64 33.57 292.64 34.47 290.76 34.47 290.76 30.87 283.34 30.87 283.34 34.47 281.46 34.47 281.46 33.57 268.34 33.57 268.34 51.2 269.24 51.2 269.24 53.07 265.64 53.07"/></g><g id="POLYLINE-6" data-name="POLYLINE"><path class="cls-3" d="M266.74,307.2a.9.9,0,0,0-.9.9v7.2a.91.91,0,0,0,.9.9l42,.07v-9.15Z"/></g><g id="POLYLINE-7" data-name="POLYLINE"><path class="cls-3" d="M266.74,318.15a.9.9,0,0,0-.9.9v7.2a.91.91,0,0,0,.9.9l42,.07v-9.15Z"/></g><g id="POLYLINE-8" data-name="POLYLINE"><path class="cls-3" d="M266.74,329.1a.9.9,0,0,0-.9.9v7.2a.91.91,0,0,0,.9.9l42,.07V329Z"/></g><g id="POLYLINE-9" data-name="POLYLINE"><path class="cls-3" d="M266.74,340.05a.9.9,0,0,0-.9.9v7.2a.91.91,0,0,0,.9.9l42,.07V340Z"/></g><g id="POLYLINE-10" data-name="POLYLINE"><path class="cls-3" d="M266.74,351a.9.9,0,0,0-.9.9v7.2a.91.91,0,0,0,.9.9l42,.07v-9.15Z"/></g><g id="POLYLINE-11" data-name="POLYLINE"><path class="cls-3" d="M266.74,362a.9.9,0,0,0-.9.9v7.2a.91.91,0,0,0,.9.9l42,.07v-9.15Z"/></g><g id="POLYLINE-12" data-name="POLYLINE"><path class="cls-3" d="M266.65,372.9a.9.9,0,0,0-.9.9V381a.9.9,0,0,0,.9.9l42,.07v-9.15Z"/></g><g id="POLYLINE-13" data-name="POLYLINE"><path class="cls-3" d="M266.65,383.85a.9.9,0,0,0-.9.9V392a.9.9,0,0,0,.9.9l42,.07v-9.15Z"/></g><g id="POLYLINE-14" data-name="POLYLINE"><path class="cls-3" d="M259.25,205.52a.86.86,0,0,1-.07.36.89.89,0,0,1-1.18.47l-9.25-4h-5.4l-9.24,4a.86.86,0,0,1-.36.07.9.9,0,0,1-.9-.9v-6.93a3,3,0,0,1,0-6v-6.93a.85.85,0,0,1,.08-.35.89.89,0,0,1,1.18-.47l9.24,4h5.4l9.25-4a.85.85,0,0,1,.35-.08.9.9,0,0,1,.9.9v6.93a3,3,0,0,1,0,6Z"/></g><g id="POLYLINE-15" data-name="POLYLINE"><path class="cls-3" d="M259.25,256.52a.89.89,0,0,1-.07.36.91.91,0,0,1-1.18.47l-9.25-4h-5.4l-9.24,4a.86.86,0,0,1-.36.07.9.9,0,0,1-.9-.9v-6.93a3,3,0,0,1,0-6v-6.93a.94.94,0,0,1,.08-.36.9.9,0,0,1,1.18-.46l9.24,4h5.4l9.25-4a.85.85,0,0,1,.35-.08.9.9,0,0,1,.9.9v6.93a3,3,0,0,1,0,6Z"/></g><g id="POLYLINE-16" data-name="POLYLINE"><path class="cls-3" d="M259.25,282a.89.89,0,0,1-.07.36.91.91,0,0,1-1.18.47l-9.25-4h-5.4l-9.24,4a.86.86,0,0,1-.36.07.9.9,0,0,1-.9-.9v-6.93a3,3,0,1,1,0-6v-6.93a.94.94,0,0,1,.08-.36.9.9,0,0,1,1.18-.46l9.24,4h5.4l9.25-4a.85.85,0,0,1,.35-.08.9.9,0,0,1,.9.9v6.93a3,3,0,0,1,0,6Z"/></g><g id="POLYLINE-17" data-name="POLYLINE"><path class="cls-3" d="M259.25,307.52a.89.89,0,0,1-.07.36.91.91,0,0,1-1.18.47l-9.25-4h-5.4l-9.24,4a.86.86,0,0,1-.36.07.9.9,0,0,1-.9-.9v-6.93a3,3,0,1,1,0-6v-6.93a.94.94,0,0,1,.08-.36.9.9,0,0,1,1.18-.46l9.24,4h5.4l9.25-4a.85.85,0,0,1,.35-.08.9.9,0,0,1,.9.9v6.93a3,3,0,0,1,0,6Z"/></g><g id="POLYLINE-18" data-name="POLYLINE"><path class="cls-3" d="M259.25,333a.89.89,0,0,1-.07.36.91.91,0,0,1-1.18.47l-9.25-4h-5.4l-9.24,4a.86.86,0,0,1-.36.07.9.9,0,0,1-.9-.9v-6.93a3,3,0,1,1,0-6v-6.93a.94.94,0,0,1,.08-.36.9.9,0,0,1,1.18-.46l9.24,4h5.4l9.25-4a.85.85,0,0,1,.35-.08.9.9,0,0,1,.9.9v6.93a3,3,0,0,1,0,6Z"/></g><g id="POLYLINE-19" data-name="POLYLINE"><line class="cls-3" x1="259.25" y1="351.59" x2="259.25" y2="341.23"/></g><g id="POLYLINE-20" data-name="POLYLINE"><path class="cls-3" d="M259.25,358.52a.89.89,0,0,1-.07.36.91.91,0,0,1-1.18.47l-9.25-4h-5.4l-9.24,4a.86.86,0,0,1-.36.07.9.9,0,0,1-.9-.9v-6.93a3,3,0,1,1,0-6v-6.93a.94.94,0,0,1,.08-.36.9.9,0,0,1,1.18-.46l9.24,4h5.4l9.25-4a.85.85,0,0,1,.35-.08.9.9,0,0,1,.9.9v6.93a3,3,0,0,1,0,6Z"/></g><g id="POLYLINE-21" data-name="POLYLINE"><line class="cls-3" x1="259.25" y1="377.09" x2="259.25" y2="366.73"/></g><g id="POLYLINE-22" data-name="POLYLINE"><path class="cls-3" d="M259.25,384a.89.89,0,0,1-.07.36.91.91,0,0,1-1.18.47l-9.25-4h-5.4l-9.24,4a.86.86,0,0,1-.36.07.9.9,0,0,1-.9-.9v-6.93a3,3,0,1,1,0-6v-6.93a.94.94,0,0,1,.08-.36.9.9,0,0,1,1.18-.46l9.24,4h5.4l9.25-4a.85.85,0,0,1,.35-.08.9.9,0,0,1,.9.9v6.93a3,3,0,0,1,0,6Z"/></g><g id="POLYLINE-23" data-name="POLYLINE"><path class="cls-3" d="M259.25,52.52a.86.86,0,0,1-.07.36.89.89,0,0,1-1.18.47l-9.25-4h-5.4l-9.24,4a.86.86,0,0,1-.36.07.9.9,0,0,1-.9-.9V45.59a3,3,0,0,1,0-6V32.66a.85.85,0,0,1,.08-.35.89.89,0,0,1,1.18-.47l9.24,4h5.4l9.25-4a.85.85,0,0,1,.35-.08.9.9,0,0,1,.9.9v6.93a3,3,0,0,1,0,6Z"/></g><g id="POLYLINE-24" data-name="POLYLINE"><path class="cls-3" d="M259.25,78a.86.86,0,0,1-.07.36.89.89,0,0,1-1.18.47l-9.25-4h-5.4l-9.24,4a.86.86,0,0,1-.36.07.9.9,0,0,1-.9-.9V71.09a3,3,0,0,1,0-6V58.16a.85.85,0,0,1,.08-.35.89.89,0,0,1,1.18-.47l9.24,4h5.4l9.25-4a.85.85,0,0,1,.35-.08.9.9,0,0,1,.9.9v6.93a3,3,0,0,1,0,6Z"/></g><g id="POLYLINE-25" data-name="POLYLINE"><path class="cls-3" d="M259.25,103.52a.86.86,0,0,1-.07.36.89.89,0,0,1-1.18.47l-9.25-4h-5.4l-9.24,4a.86.86,0,0,1-.36.07.9.9,0,0,1-.9-.9V96.59a3,3,0,0,1,0-6V83.66a.85.85,0,0,1,.08-.35.89.89,0,0,1,1.18-.47l9.24,4h5.4l9.25-4a.85.85,0,0,1,.35-.08.9.9,0,0,1,.9.9v6.93a3,3,0,0,1,0,6Z"/></g><g id="POLYLINE-26" data-name="POLYLINE"><path class="cls-3" d="M259.25,129a.86.86,0,0,1-.07.36.89.89,0,0,1-1.18.47l-9.25-4h-5.4l-9.24,4a.86.86,0,0,1-.36.07.9.9,0,0,1-.9-.9v-6.93a3,3,0,0,1,0-6v-6.93a.85.85,0,0,1,.08-.35.89.89,0,0,1,1.18-.47l9.24,4h5.4l9.25-4a.85.85,0,0,1,.35-.08.9.9,0,0,1,.9.9v6.93a3,3,0,0,1,0,6Z"/></g><g id="POLYLINE-27" data-name="POLYLINE"><path class="cls-3" d="M259.25,154.52a.86.86,0,0,1-.07.36.89.89,0,0,1-1.18.47l-9.25-4h-5.4l-9.24,4a.86.86,0,0,1-.36.07.9.9,0,0,1-.9-.9v-6.93a3,3,0,0,1,0-6v-6.93a.85.85,0,0,1,.08-.35.89.89,0,0,1,1.18-.47l9.24,4h5.4l9.25-4a.85.85,0,0,1,.35-.08.9.9,0,0,1,.9.9v6.93a3,3,0,0,1,0,6Z"/></g><g id="POLYLINE-28" data-name="POLYLINE"><path class="cls-3" d="M259.25,180a.86.86,0,0,1-.07.36.89.89,0,0,1-1.18.47l-9.25-4h-5.4l-9.24,4a.86.86,0,0,1-.36.07.9.9,0,0,1-.9-.9v-6.93a3,3,0,0,1,0-6v-6.93a.85.85,0,0,1,.08-.35.89.89,0,0,1,1.18-.47l9.24,4h5.4l9.25-4a.85.85,0,0,1,.35-.08.9.9,0,0,1,.9.9v6.93a3,3,0,0,1,0,6Z"/></g><g id="POLYLINE-29" data-name="POLYLINE"><path class="cls-3" d="M259.25,231a.89.89,0,0,1-.07.36.91.91,0,0,1-1.18.47l-9.25-4h-5.4l-9.24,4a.86.86,0,0,1-.36.07.9.9,0,0,1-.9-.9v-6.93a3,3,0,0,1,0-6v-6.93a.94.94,0,0,1,.08-.36.9.9,0,0,1,1.18-.46l9.24,4h5.4l9.25-4a.85.85,0,0,1,.35-.08.9.9,0,0,1,.9.9v6.93a3,3,0,0,1,0,6Z"/></g><g id="POLYLINE-30" data-name="POLYLINE"><path class="cls-3" d="M27,156.25a.93.93,0,0,1,1.31.86V177a1,1,0,0,1-.08.37.94.94,0,0,1-1.23.49l-9.19-4v6.36h.9v1.87h-3.6V197h3.6v1.87h-.9v7.58h.9v1.87h-3.6v7.43h3.6v1.87h-.9v7.58h.9v1.87h-3.6V242h3.6v1.87h-.9v6.36l9.19-4h0a.93.93,0,0,1,1.31.86V267a1,1,0,0,1-.08.37.94.94,0,0,1-1.23.49l-9.19-4v6.36h.9v1.87h-3.6V287h3.6v1.87h-.9v7.58h.9v1.87h-3.6v7.43h3.6v1.87h-.9v7.58h.9v1.87h-3.6V332h3.6v1.87h-.9v6.36l9.19-4h0a.93.93,0,0,1,1.31.86V357a1,1,0,0,1-.08.37.94.94,0,0,1-1.23.49l-9.19-4v6.36h.9v1.87h-3.6V377h3.6v1.87h-.9V392H45v-3.6h1.87v.9H73.2v-.9h1.87V392H102.3V378.87h-.9V377H105V362.07h-3.6V360.2h.9v-6.36l-9.19,4h0a1,1,0,0,1-.38.07.93.93,0,0,1-.93-.93V337.11a1,1,0,0,1,.07-.38.94.94,0,0,1,1.24-.48l9.19,4v-6.36h-.9V332H105V317.07h-3.6V315.2h.9v-7.58h-.9v-1.87H105v-7.43h-3.6v-1.87h.9v-7.58h-.9V287H105V272.07h-3.6V270.2h.9v-6.36l-9.19,4h0a1,1,0,0,1-.38.07.93.93,0,0,1-.93-.93V247.11a1,1,0,0,1,.07-.38.94.94,0,0,1,1.24-.48l9.19,4v-6.36h-.9V242H105V227.07h-3.6V225.2h.9v-7.58h-.9v-1.87H105v-7.43h-3.6v-1.87h.9v-7.58h-.9V197H105V182.07h-3.6V180.2h.9v-6.36l-9.19,4h0a1,1,0,0,1-.38.07.93.93,0,0,1-.93-.93V157.11a1,1,0,0,1,.07-.38.94.94,0,0,1,1.24-.48l9.19,4v-6.36h-.9V152H105V137.07h-3.6V135.2h.9v-7.58h-.9v-1.87H105v-7.43h-3.6v-1.87h.9v-7.58h-.9V107H105V92.07h-3.6V90.2h.9V83.84l-9.19,4h0a1,1,0,0,1-.38.07A.93.93,0,0,1,91.8,87V67.11a1,1,0,0,1,.07-.38.94.94,0,0,1,1.24-.48l9.19,4V63.87h-.9V62H105V47.07h-3.6V45.2h.9V32.07H75.07v3.6H73.2v-.9H46.87v.9H45v-3.6H17.77V45.2h.9v1.87h-3.6V62h3.6v1.87h-.9v6.36l9.19-4h0a.93.93,0,0,1,1.31.86V87a1,1,0,0,1-.08.37.94.94,0,0,1-1.23.49l-9.19-4V90.2h.9v1.87h-3.6V107h3.6v1.87h-.9v7.58h.9v1.87h-3.6v7.43h3.6v1.87h-.9v7.58h.9v1.87h-3.6V152h3.6v1.87h-.9v6.36l9.19-4Z"/></g><g id="POLYLINE-31" data-name="POLYLINE"><path class="cls-3" d="M118.46,156.25a.93.93,0,0,1,1.31.86V177a1,1,0,0,1-.08.37.94.94,0,0,1-1.23.49l-9.19-4v6.36h.9v1.87h-3.6V197h3.6v1.87h-.9v7.58h.9v1.87h-3.6v7.43h3.6v1.87h-.9v7.58h.9v1.87h-3.6V242h3.6v1.87h-.9v6.36l9.19-4h0a.93.93,0,0,1,1.31.86V267a1,1,0,0,1-.08.37.94.94,0,0,1-1.23.49l-9.19-4v6.36h.9v1.87h-3.6V287h3.6v1.87h-.9v7.58h.9v1.87h-3.6v7.43h3.6v1.87h-.9v7.58h.9v1.87h-3.6V332h3.6v1.87h-.9v6.36l9.19-4h0a.93.93,0,0,1,1.31.86V357a1,1,0,0,1-.08.37.94.94,0,0,1-1.23.49l-9.19-4v6.36h.9v1.87h-3.6V377h3.6v1.87h-.9V392H136.5v-3.6h1.87v.9H164.7v-.9h1.87V392H193.8V378.87h-.9V377h3.6V362.07h-3.6V360.2h.9v-6.36l-9.19,4h0a1,1,0,0,1-.38.07.93.93,0,0,1-.93-.93V337.11a1,1,0,0,1,.07-.38.94.94,0,0,1,1.24-.48l9.19,4v-6.36h-.9V332h3.6V317.07h-3.6V315.2h.9v-7.58h-.9v-1.87h3.6v-7.43h-3.6v-1.87h.9v-7.58h-.9V287h3.6V272.07h-3.6V270.2h.9v-6.36l-9.19,4h0a1,1,0,0,1-.38.07.93.93,0,0,1-.93-.93V247.11a1,1,0,0,1,.07-.38.94.94,0,0,1,1.24-.48l9.19,4v-6.36h-.9V242h3.6V227.07h-3.6V225.2h.9v-7.58h-.9v-1.87h3.6v-7.43h-3.6v-1.87h.9v-7.58h-.9V197h3.6V182.07h-3.6V180.2h.9v-6.36l-9.19,4h0a1,1,0,0,1-.38.07.93.93,0,0,1-.93-.93V157.11a1,1,0,0,1,.07-.38.94.94,0,0,1,1.24-.48l9.19,4v-6.36h-.9V152h3.6V137.07h-3.6V135.2h.9v-7.58h-.9v-1.87h3.6v-7.43h-3.6v-1.87h.9v-7.58h-.9V107h3.6V92.07h-3.6V90.2h.9V83.84l-9.19,4h0a1,1,0,0,1-.38.07.93.93,0,0,1-.93-.93V67.11a1,1,0,0,1,.07-.38.94.94,0,0,1,1.24-.48l9.19,4V63.87h-.9V62h3.6V47.07h-3.6V45.2h.9V32.07H166.57v3.6H164.7v-.9H138.37v.9H136.5v-3.6H109.27V45.2h.9v1.87h-3.6V62h3.6v1.87h-.9v6.36l9.19-4h0a.93.93,0,0,1,1.31.86V87a1,1,0,0,1-.08.37.94.94,0,0,1-1.23.49l-9.19-4V90.2h.9v1.87h-3.6V107h3.6v1.87h-.9v7.58h.9v1.87h-3.6v7.43h3.6v1.87h-.9v7.58h.9v1.87h-3.6V152h3.6v1.87h-.9v6.36l9.19-4Z"/></g><g id="POLYLINE-32" data-name="POLYLINE"><polygon class="cls-3" points="247.33 245.19 244.77 245.2 244.77 244.34 243.35 244.34 243.35 248.84 244.77 248.84 244.77 247.98 247.33 247.97 247.33 248.83 248.75 248.83 248.75 244.33 247.33 244.33 247.33 245.19"/></g><g id="POLYLINE-33" data-name="POLYLINE"><polygon class="cls-3" points="247.33 270.69 244.77 270.7 244.77 269.84 243.35 269.84 243.35 274.34 244.77 274.34 244.77 273.48 247.33 273.47 247.33 274.33 248.75 274.33 248.75 269.83 247.33 269.83 247.33 270.69"/></g><g id="POLYLINE-34" data-name="POLYLINE"><polygon class="cls-3" points="247.33 296.19 244.77 296.2 244.77 295.34 243.35 295.34 243.35 299.84 244.77 299.84 244.77 298.98 247.33 298.97 247.33 299.83 248.75 299.83 248.75 295.33 247.33 295.33 247.33 296.19"/></g><g id="POLYLINE-35" data-name="POLYLINE"><polygon class="cls-3" points="247.33 321.69 244.77 321.7 244.77 320.84 243.35 320.84 243.35 325.34 244.77 325.34 244.77 324.48 247.33 324.47 247.33 325.33 248.75 325.33 248.75 320.83 247.33 320.83 247.33 321.69"/></g><g id="POLYLINE-36" data-name="POLYLINE"><polygon class="cls-3" points="247.33 347.19 244.77 347.2 244.77 346.34 243.35 346.34 243.35 350.84 244.77 350.84 244.77 349.98 247.33 349.97 247.33 350.83 248.75 350.83 248.75 346.33 247.33 346.33 247.33 347.19"/></g><g id="POLYLINE-37" data-name="POLYLINE"><polygon class="cls-3" points="247.33 372.69 244.77 372.7 244.77 371.84 243.35 371.84 243.35 376.34 244.77 376.34 244.77 375.48 247.33 375.47 247.33 376.33 248.75 376.33 248.75 371.83 247.33 371.83 247.33 372.69"/></g><g id="POLYLINE-38" data-name="POLYLINE"><polygon class="cls-3" points="247.33 41.2 244.77 41.21 244.77 40.34 243.35 40.34 243.35 44.85 244.77 44.85 244.77 43.98 247.33 43.97 247.33 44.84 248.75 44.84 248.75 40.33 247.33 40.33 247.33 41.2"/></g><g id="POLYLINE-39" data-name="POLYLINE"><polygon class="cls-3" points="247.33 66.7 244.77 66.71 244.77 65.84 243.35 65.84 243.35 70.35 244.77 70.35 244.77 69.48 247.33 69.47 247.33 70.34 248.75 70.34 248.75 65.83 247.33 65.83 247.33 66.7"/></g><g id="POLYLINE-40" data-name="POLYLINE"><polygon class="cls-3" points="247.33 92.2 244.77 92.21 244.77 91.34 243.35 91.34 243.35 95.85 244.77 95.85 244.77 94.98 247.33 94.97 247.33 95.84 248.75 95.84 248.75 91.33 247.33 91.33 247.33 92.2"/></g><g id="POLYLINE-41" data-name="POLYLINE"><polygon class="cls-3" points="247.33 117.7 244.77 117.71 244.77 116.84 243.35 116.84 243.35 121.35 244.77 121.35 244.77 120.48 247.33 120.47 247.33 121.34 248.75 121.34 248.75 116.83 247.33 116.83 247.33 117.7"/></g><g id="POLYLINE-42" data-name="POLYLINE"><polygon class="cls-3" points="247.33 143.2 244.77 143.21 244.77 142.34 243.35 142.34 243.35 146.85 244.77 146.85 244.77 145.98 247.33 145.97 247.33 146.84 248.75 146.84 248.75 142.33 247.33 142.33 247.33 143.2"/></g><g id="POLYLINE-43" data-name="POLYLINE"><polygon class="cls-3" points="247.33 168.7 244.77 168.71 244.77 167.84 243.35 167.84 243.35 172.35 244.77 172.35 244.77 171.48 247.33 171.47 247.33 172.34 248.75 172.34 248.75 167.83 247.33 167.83 247.33 168.7"/></g><g id="POLYLINE-44" data-name="POLYLINE"><polygon class="cls-3" points="247.33 194.2 244.77 194.21 244.77 193.34 243.35 193.34 243.35 197.85 244.77 197.85 244.77 196.98 247.33 196.97 247.33 197.84 248.75 197.84 248.75 193.33 247.33 193.33 247.33 194.2"/></g><g id="POLYLINE-45" data-name="POLYLINE"><polygon class="cls-3" points="247.33 219.69 244.77 219.7 244.77 218.84 243.35 218.84 243.35 223.34 244.77 223.34 244.77 222.48 247.33 222.47 247.33 223.33 248.75 223.33 248.75 218.83 247.33 218.83 247.33 219.69"/></g><g id="POLYLINE-46" data-name="POLYLINE"><polygon class="cls-3" points="67.8 124.29 67.8 119.75 69.67 119.75 69.67 120.65 81 120.65 81 119.75 82.87 119.75 82.87 124.32 81 124.32 81 123.42 69.67 123.42 69.67 124.32 67.8 124.32 67.8 124.29"/></g><g id="POLYLINE-47" data-name="POLYLINE"><polygon class="cls-3" points="82.83 214.32 81 214.32 81 213.42 69.67 213.42 69.67 214.32 67.8 214.32 67.8 209.75 69.67 209.75 69.67 210.65 81 210.65 81 209.75 82.87 209.75 82.87 214.32 82.83 214.32"/></g><g id="POLYLINE-48" data-name="POLYLINE"><polygon class="cls-3" points="82.83 304.32 81 304.32 81 303.42 69.67 303.42 69.67 304.32 67.8 304.32 67.8 299.75 69.67 299.75 69.67 300.65 81 300.65 81 299.75 82.87 299.75 82.87 304.32 82.83 304.32"/></g><g id="POLYLINE-49" data-name="POLYLINE"><polygon class="cls-3" points="37.2 124.29 37.2 119.75 39.07 119.75 39.07 120.65 50.4 120.65 50.4 119.75 52.27 119.75 52.27 124.32 50.4 124.32 50.4 123.42 39.07 123.42 39.07 124.32 37.2 124.32 37.2 124.29"/></g><g id="POLYLINE-50" data-name="POLYLINE"><polygon class="cls-3" points="37.23 299.75 39.07 299.75 39.07 300.65 50.4 300.65 50.4 299.75 52.27 299.75 52.27 304.32 50.4 304.32 50.4 303.42 39.07 303.42 39.07 304.32 37.2 304.32 37.2 299.75 37.23 299.75"/></g><g id="POLYLINE-51" data-name="POLYLINE"><polygon class="cls-3" points="37.23 209.75 39.07 209.75 39.07 210.65 50.4 210.65 50.4 209.75 52.27 209.75 52.27 214.32 50.4 214.32 50.4 213.42 39.07 213.42 39.07 214.32 37.2 214.32 37.2 209.75 37.23 209.75"/></g><g id="POLYLINE-52" data-name="POLYLINE"><polygon class="cls-3" points="30.07 43.7 30.97 43.7 30.97 45.57 23.7 45.57 23.7 43.7 24.59 43.7 24.59 38.37 23.7 38.37 23.7 36.5 30.97 36.5 30.97 38.37 30.07 38.37 30.07 43.7"/></g><g id="POLYLINE-53" data-name="POLYLINE"><polygon class="cls-3" points="89.09 36.5 96.37 36.5 96.37 38.37 95.47 38.37 95.47 43.7 96.37 43.7 96.37 45.57 89.09 45.57 89.09 43.7 90 43.7 90 38.37 89.09 38.37 89.09 36.5"/></g><g id="POLYLINE-54" data-name="POLYLINE"><polygon class="cls-3" points="95.47 380.37 95.47 385.7 96.37 385.7 96.37 387.57 89.09 387.57 89.09 385.7 90 385.7 90 380.37 89.09 380.37 89.09 378.5 96.37 378.5 96.37 380.37 95.47 380.37"/></g><g id="POLYLINE-55" data-name="POLYLINE"><polygon class="cls-3" points="23.7 380.37 23.7 378.5 30.97 378.5 30.97 380.37 30.07 380.37 30.07 385.7 30.97 385.7 30.97 387.57 23.7 387.57 23.7 385.7 24.59 385.7 24.59 380.37 23.7 380.37"/></g><g id="POLYLINE-56" data-name="POLYLINE"><polygon class="cls-3" points="403.64 198.42 401.76 198.42 401.76 197.52 399.96 197.52 399.96 195.65 400.87 195.65 400.87 184.32 399.96 184.32 399.96 182.45 401.76 182.45 401.76 181.55 403.64 181.55 403.64 198.42"/></g><g id="POLYLINE-57" data-name="POLYLINE"><polygon class="cls-3" points="399.96 92.45 399.96 94.32 400.87 94.32 400.87 105.65 399.96 105.65 399.96 107.52 401.76 107.52 401.76 108.42 403.64 108.42 403.64 91.55 401.76 91.55 401.76 92.45 399.96 92.45"/></g><g id="POLYLINE-58" data-name="POLYLINE"><polygon class="cls-3" points="399.96 47.45 399.96 49.32 400.87 49.32 400.87 60.65 399.96 60.65 399.96 62.52 401.76 62.52 401.76 63.42 403.64 63.42 403.64 46.55 401.76 46.55 401.76 47.45 399.96 47.45"/></g><g id="POLYLINE-59" data-name="POLYLINE"><polygon class="cls-3" points="403.64 153.42 403.64 136.55 401.76 136.55 401.76 137.45 399.96 137.45 399.96 139.32 400.87 139.32 400.87 150.65 399.96 150.65 399.96 152.52 401.76 152.52 401.76 153.42 403.64 153.42"/></g><g id="POLYLINE-60" data-name="POLYLINE"><polygon class="cls-3" points="403.64 243.42 403.64 226.55 401.76 226.55 401.76 227.45 399.96 227.45 399.96 229.32 400.87 229.32 400.87 240.65 399.96 240.65 399.96 242.52 401.76 242.52 401.76 243.42 403.64 243.42"/></g><g id="POLYLINE-61" data-name="POLYLINE"><polygon class="cls-3" points="403.64 288.42 403.64 271.55 401.76 271.55 401.76 272.45 399.96 272.45 399.96 274.32 400.87 274.32 400.87 285.65 399.96 285.65 399.96 287.52 401.76 287.52 401.76 288.42 403.64 288.42"/></g><g id="POLYLINE-62" data-name="POLYLINE"><polygon class="cls-3" points="403.64 333.42 403.64 316.55 401.76 316.55 401.76 317.45 399.96 317.45 399.96 319.32 400.87 319.32 400.87 330.65 399.96 330.65 399.96 332.52 401.76 332.52 401.76 333.42 403.64 333.42"/></g><g id="POLYLINE-63" data-name="POLYLINE"><polygon class="cls-3" points="384.06 120.2 384.06 121.1 380.24 121.1 380.24 120.2 378.37 120.2 378.37 124.77 380.24 124.77 380.24 123.87 384.06 123.87 384.06 124.77 385.94 124.77 385.94 120.2 384.06 120.2"/></g><g id="POLYLINE-64" data-name="POLYLINE"><polygon class="cls-3" points="384.06 210.2 384.06 211.1 380.24 211.1 380.24 210.2 378.37 210.2 378.37 214.77 380.24 214.77 380.24 213.87 384.06 213.87 384.06 214.77 385.94 214.77 385.94 210.2 384.06 210.2"/></g><g id="POLYLINE-65" data-name="POLYLINE"><polygon class="cls-3" points="380.24 304.77 380.24 303.87 384.06 303.87 384.06 304.77 385.94 304.77 385.94 300.2 384.06 300.2 384.06 301.1 380.24 301.1 380.24 300.2 378.37 300.2 378.37 304.77 380.24 304.77"/></g><g id="POLYLINE-66" data-name="POLYLINE"><polygon class="cls-3" points="401.76 361.55 401.76 362.45 399.96 362.45 399.96 364.32 400.87 364.32 400.87 375.65 399.96 375.65 399.96 377.52 401.76 377.52 401.76 378.42 403.64 378.42 403.64 361.55 401.76 361.55"/></g><g id="POLYLINE-67" data-name="POLYLINE"><path class="cls-3" d="M362,298.74v7.5a.71.71,0,0,0,1.42,0v-7.5a.71.71,0,1,0-1.42,0Z"/></g><g id="POLYLINE-68" data-name="POLYLINE"><path class="cls-3" d="M362,208.74v7.5a.71.71,0,0,0,1.42,0v-7.5a.71.71,0,1,0-1.42,0Z"/></g><g id="POLYLINE-69" data-name="POLYLINE"><path class="cls-3" d="M362,118.74v7.5a.71.71,0,0,0,1.42,0v-7.5a.71.71,0,1,0-1.42,0Z"/></g><g id="POLYLINE-70" data-name="POLYLINE"><path class="cls-3" d="M400.87,298.74v7.5a.71.71,0,1,0,1.42,0v-7.5a.71.71,0,1,0-1.42,0Z"/></g><g id="POLYLINE-71" data-name="POLYLINE"><path class="cls-3" d="M400.87,208.74v7.5a.71.71,0,1,0,1.42,0v-7.5a.71.71,0,1,0-1.42,0Z"/></g><g id="POLYLINE-72" data-name="POLYLINE"><path class="cls-3" d="M400.87,118.74v7.5a.71.71,0,0,0,1.42,0v-7.5a.71.71,0,1,0-1.42,0Z"/></g><g id="POLYLINE-73" data-name="POLYLINE"><polygon class="cls-3" points="353.69 198.42 351.81 198.42 351.81 197.52 350.01 197.52 350.01 195.65 350.92 195.65 350.92 184.32 350.01 184.32 350.01 182.45 351.81 182.45 351.81 181.55 353.69 181.55 353.69 198.42"/></g><g id="POLYLINE-74" data-name="POLYLINE"><polygon class="cls-3" points="350.01 92.45 350.01 94.32 350.92 94.32 350.92 105.65 350.01 105.65 350.01 107.52 351.81 107.52 351.81 108.42 353.69 108.42 353.69 91.55 351.81 91.55 351.81 92.45 350.01 92.45"/></g><g id="POLYLINE-75" data-name="POLYLINE"><polygon class="cls-3" points="350.01 47.45 350.01 49.32 350.92 49.32 350.92 60.65 350.01 60.65 350.01 62.52 351.81 62.52 351.81 63.42 353.69 63.42 353.69 46.55 351.81 46.55 351.81 47.45 350.01 47.45"/></g><g id="POLYLINE-76" data-name="POLYLINE"><polygon class="cls-3" points="353.69 153.42 353.69 136.55 351.81 136.55 351.81 137.45 350.01 137.45 350.01 139.32 350.92 139.32 350.92 150.65 350.01 150.65 350.01 152.52 351.81 152.52 351.81 153.42 353.69 153.42"/></g><g id="POLYLINE-77" data-name="POLYLINE"><polygon class="cls-3" points="353.69 243.42 353.69 226.55 351.81 226.55 351.81 227.45 350.01 227.45 350.01 229.32 350.92 229.32 350.92 240.65 350.01 240.65 350.01 242.52 351.81 242.52 351.81 243.42 353.69 243.42"/></g><g id="POLYLINE-78" data-name="POLYLINE"><polygon class="cls-3" points="353.69 288.42 353.69 271.55 351.81 271.55 351.81 272.45 350.01 272.45 350.01 274.32 350.92 274.32 350.92 285.65 350.01 285.65 350.01 287.52 351.81 287.52 351.81 288.42 353.69 288.42"/></g><g id="POLYLINE-79" data-name="POLYLINE"><polygon class="cls-3" points="353.69 333.42 353.69 316.55 351.81 316.55 351.81 317.45 350.01 317.45 350.01 319.32 350.92 319.32 350.92 330.65 350.01 330.65 350.01 332.52 351.81 332.52 351.81 333.42 353.69 333.42"/></g><g id="POLYLINE-80" data-name="POLYLINE"><polygon class="cls-3" points="334.12 120.2 334.12 121.1 330.29 121.1 330.29 120.2 328.42 120.2 328.42 124.77 330.29 124.77 330.29 123.87 334.12 123.87 334.12 124.77 335.99 124.77 335.99 120.2 334.12 120.2"/></g><g id="POLYLINE-81" data-name="POLYLINE"><polygon class="cls-3" points="334.12 210.2 334.12 211.1 330.29 211.1 330.29 210.2 328.42 210.2 328.42 214.77 330.29 214.77 330.29 213.87 334.12 213.87 334.12 214.77 335.99 214.77 335.99 210.2 334.12 210.2"/></g><g id="POLYLINE-82" data-name="POLYLINE"><polygon class="cls-3" points="330.29 304.77 330.29 303.87 334.12 303.87 334.12 304.77 335.99 304.77 335.99 300.2 334.12 300.2 334.12 301.1 330.29 301.1 330.29 300.2 328.42 300.2 328.42 304.77 330.29 304.77"/></g><g id="POLYLINE-83" data-name="POLYLINE"><polygon class="cls-3" points="351.81 361.55 351.81 362.45 350.01 362.45 350.01 364.32 350.92 364.32 350.92 375.65 350.01 375.65 350.01 377.52 351.81 377.52 351.81 378.42 353.69 378.42 353.69 361.55 351.81 361.55"/></g><g id="POLYLINE-84" data-name="POLYLINE"><path class="cls-3" d="M312.07,298.74v7.5a.71.71,0,0,0,1.42,0v-7.5a.71.71,0,1,0-1.42,0Z"/></g><g id="POLYLINE-85" data-name="POLYLINE"><path class="cls-3" d="M312.07,208.74v7.5a.71.71,0,1,0,1.42,0v-7.5a.71.71,0,1,0-1.42,0Z"/></g><g id="POLYLINE-86" data-name="POLYLINE"><path class="cls-3" d="M312.07,118.74v7.5a.71.71,0,1,0,1.42,0v-7.5a.71.71,0,1,0-1.42,0Z"/></g><g id="POLYLINE-87" data-name="POLYLINE"><path class="cls-3" d="M350.92,298.74v7.5a.71.71,0,0,0,1.42,0v-7.5a.71.71,0,1,0-1.42,0Z"/></g><g id="POLYLINE-88" data-name="POLYLINE"><path class="cls-3" d="M350.92,208.74v7.5a.71.71,0,0,0,1.42,0v-7.5a.71.71,0,1,0-1.42,0Z"/></g><g id="POLYLINE-89" data-name="POLYLINE"><path class="cls-3" d="M350.92,118.74v7.5a.71.71,0,1,0,1.42,0v-7.5a.71.71,0,1,0-1.42,0Z"/></g><g id="POLYLINE-90" data-name="POLYLINE"><polygon class="cls-3" points="159.29 124.29 159.29 119.75 161.17 119.75 161.17 120.65 172.5 120.65 172.5 119.75 174.37 119.75 174.37 124.32 172.5 124.32 172.5 123.42 161.17 123.42 161.17 124.32 159.29 124.32 159.29 124.29"/></g><g id="POLYLINE-91" data-name="POLYLINE"><polygon class="cls-3" points="174.33 214.32 172.5 214.32 172.5 213.42 161.17 213.42 161.17 214.32 159.29 214.32 159.29 209.75 161.17 209.75 161.17 210.65 172.5 210.65 172.5 209.75 174.37 209.75 174.37 214.32 174.33 214.32"/></g><g id="POLYLINE-92" data-name="POLYLINE"><polygon class="cls-3" points="174.33 304.32 172.5 304.32 172.5 303.42 161.17 303.42 161.17 304.32 159.29 304.32 159.29 299.75 161.17 299.75 161.17 300.65 172.5 300.65 172.5 299.75 174.37 299.75 174.37 304.32 174.33 304.32"/></g><g id="POLYLINE-93" data-name="POLYLINE"><polygon class="cls-3" points="128.69 124.29 128.69 119.75 130.57 119.75 130.57 120.65 141.9 120.65 141.9 119.75 143.77 119.75 143.77 124.32 141.9 124.32 141.9 123.42 130.57 123.42 130.57 124.32 128.69 124.32 128.69 124.29"/></g><g id="POLYLINE-94" data-name="POLYLINE"><polygon class="cls-3" points="128.73 299.75 130.57 299.75 130.57 300.65 141.9 300.65 141.9 299.75 143.77 299.75 143.77 304.32 141.9 304.32 141.9 303.42 130.57 303.42 130.57 304.32 128.69 304.32 128.69 299.75 128.73 299.75"/></g><g id="POLYLINE-95" data-name="POLYLINE"><polygon class="cls-3" points="128.73 209.75 130.57 209.75 130.57 210.65 141.9 210.65 141.9 209.75 143.77 209.75 143.77 214.32 141.9 214.32 141.9 213.42 130.57 213.42 130.57 214.32 128.69 214.32 128.69 209.75 128.73 209.75"/></g><g id="POLYLINE-96" data-name="POLYLINE"><polygon class="cls-3" points="121.57 43.7 122.47 43.7 122.47 45.57 115.19 45.57 115.19 43.7 116.09 43.7 116.09 38.37 115.19 38.37 115.19 36.5 122.47 36.5 122.47 38.37 121.57 38.37 121.57 43.7"/></g><g id="POLYLINE-97" data-name="POLYLINE"><polygon class="cls-3" points="180.59 36.5 187.87 36.5 187.87 38.37 186.97 38.37 186.97 43.7 187.87 43.7 187.87 45.57 180.59 45.57 180.59 43.7 181.5 43.7 181.5 38.37 180.59 38.37 180.59 36.5"/></g><g id="POLYLINE-98" data-name="POLYLINE"><polygon class="cls-3" points="186.97 380.37 186.97 385.7 187.87 385.7 187.87 387.57 180.59 387.57 180.59 385.7 181.5 385.7 181.5 380.37 180.59 380.37 180.59 378.5 187.87 378.5 187.87 380.37 186.97 380.37"/></g><g id="POLYLINE-99" data-name="POLYLINE"><polygon class="cls-3" points="115.19 380.37 115.19 378.5 122.47 378.5 122.47 380.37 121.57 380.37 121.57 385.7 122.47 385.7 122.47 387.57 115.19 387.57 115.19 385.7 116.09 385.7 116.09 380.37 115.19 380.37"/></g><g id="POLYLINE-100" data-name="POLYLINE"><rect class="cls-4" x="14.28" y="29.04" width="183" height="366"/></g><g id="POLYLINE-101" data-name="POLYLINE"><rect class="cls-4" x="227.28" y="29.04" width="183" height="366"/></g></svg>