<svg id="Layer_1" data-name="Layer 1" xmlns="http://www.w3.org/2000/svg" viewBox="0 0 1093.54 425.2"><defs><style>.cls-1,.cls-3{fill:none;stroke:#1d1d1b;stroke-miterlimit:10;}.cls-1{stroke-width:0.5px;}.cls-2{font-size:5.3px;font-family:Monotxt;}.cls-2,.cls-4{fill:#1d1d1b;}.cls-3{stroke-width:0.25px;}.cls-4{font-size:0.15px;font-family:ArialMT, Arial;}</style></defs><g id="POLYLINE"><path class="cls-1" d="M712.48,105.82a.89.89,0,0,1-.07.36.9.9,0,0,1-1.19.47l-9.25-4h-5.41l-9.25,4a.92.92,0,0,1-.36.07.9.9,0,0,1-.9-.9V98.88a3,3,0,1,1,0-6V85.94a.86.86,0,0,1,.07-.36.9.9,0,0,1,1.19-.47l9.25,4H702l9.25-4a.92.92,0,0,1,.36-.07.9.9,0,0,1,.9.9v6.94a3,3,0,1,1,0,6Z"/></g><g id="POLYLINE-2" data-name="POLYLINE"><path class="cls-1" d="M560.63,392.29a.86.86,0,0,1-.07.36.89.89,0,0,1-1.18.47l-9.26-4h-5.41l-9.25,4a.86.86,0,0,1-.36.08.9.9,0,0,1-.9-.91v-6.93a3,3,0,0,1,0-6v-6.94a1.15,1.15,0,0,1,.07-.36.92.92,0,0,1,1.19-.47l9.25,4h5.41l9.26-4a.84.84,0,0,1,.35-.07.9.9,0,0,1,.9.9v6.94a3,3,0,1,1,0,6Z"/></g><g id="POLYLINE-3" data-name="POLYLINE"><path class="cls-1" d="M773.91,392.29a.86.86,0,0,1-.08.36.89.89,0,0,1-1.18.47l-9.26-4H758l-9.26,4a.86.86,0,0,1-.36.08.91.91,0,0,1-.9-.91v-6.93a3,3,0,0,1,0-6v-6.94a.94.94,0,0,1,.08-.36.91.91,0,0,1,1.18-.47l9.26,4h5.4l9.26-4a.86.86,0,0,1,.36-.07.9.9,0,0,1,.9.9v6.94a3,3,0,0,1,0,6Z"/></g><g id="POLYLINE-4" data-name="POLYLINE"><path class="cls-1" d="M962.4,389.78a.86.86,0,0,1-.07.36.9.9,0,0,1-1.19.47l-9.25-4h-5.41l-9.25,4a.89.89,0,0,1-1.26-.83v-6.93a3,3,0,0,1,0-6V369.9a.9.9,0,0,1,1.26-.83l9.25,4h5.41l9.25-4a.92.92,0,0,1,.36-.07.9.9,0,0,1,.9.9v6.94a3,3,0,1,1,0,6Z"/></g><g id="POLYLINE-5" data-name="POLYLINE"><path class="cls-1" d="M922.5,389.78a.86.86,0,0,1-.08.36.89.89,0,0,1-1.18.47l-9.25-4h-5.41l-9.26,4a.85.85,0,0,1-.35.08.91.91,0,0,1-.91-.91v-6.93a3,3,0,0,1,0-6V369.9a.94.94,0,0,1,.08-.36.91.91,0,0,1,1.18-.47l9.26,4H912l9.25-4a.86.86,0,0,1,.36-.07.9.9,0,0,1,.9.9v6.94a3,3,0,0,1,0,6Z"/></g><g id="POLYLINE-6" data-name="POLYLINE"><path class="cls-1" d="M499.21,105.82a.9.9,0,0,1-.08.36.89.89,0,0,1-1.18.47l-9.25-4h-5.41l-9.26,4a.84.84,0,0,1-.35.07.9.9,0,0,1-.91-.9V98.88a3,3,0,0,1,0-6V85.94a.86.86,0,0,1,.08-.36.89.89,0,0,1,1.18-.47l9.26,4h5.41l9.25-4a.86.86,0,0,1,.36-.07.9.9,0,0,1,.9.9v6.94a3,3,0,0,1,0,6Z"/></g><g id="POLYLINE-7" data-name="POLYLINE"><path class="cls-1" d="M346.83,363.39a.93.93,0,0,0,1.23-.49.91.91,0,0,0,.08-.37V342.65a.94.94,0,0,0-.94-.94.8.8,0,0,0-.37.08l-9.2,4v-6.36h.9v-1.88h-3.61V322.59h3.61v-1.88h-.9v-7.58h.9v-1.88h-3.61v-7.44h3.61v-1.87h-.9v-7.59h.9v-1.88h-3.61V277.53h3.61v-1.88h-.9v-6.36l9.2,4h0a.94.94,0,0,0,1.23-.49,1,1,0,0,0,.08-.38V252.53a.93.93,0,0,0-1.31-.86l-9.2,4v-6.37h.9v-1.87h-3.61V232.47h3.61v-1.88h-.9V223h.9v-1.88h-3.61V213.7h3.61v-1.88h-.9v-7.58h.9v-1.88h-3.61v-15h3.61v-1.87h-.9v-6.37l9.2,4h0a.93.93,0,0,0,1.23-.49.91.91,0,0,0,.08-.37V162.42a1,1,0,0,0-1.31-.87l-9.2,4v-6.36h.9V157.3h-3.61V142.36h3.61v-1.88h-.9v-7.59h.9V131h-3.61v-7.44h3.61v-1.87h-.9v-7.59h.9v-1.88h-3.61V97.3h3.61V95.42h-.9V89.06l9.2,4h0a.94.94,0,0,0,1.23-.49,1,1,0,0,0,.08-.38V72.3a.93.93,0,0,0-1.31-.86l-9.2,4V69.06h.9V67.19h-3.61V52.24h3.61V50.36h-.9V42.78h.9V41h12.88a.94.94,0,0,0,.93-.94.9.9,0,0,0-.09-.4l-1.63-4.94h0a.77.77,0,0,1-.08-.37.85.85,0,0,1,.86-.86h9.52a.91.91,0,0,1,.37.08.86.86,0,0,1,.41,1.15h0l-1.63,4.94h0a.93.93,0,0,0,.44,1.25,1,1,0,0,0,.4.09h9.53a.94.94,0,0,0,.93-.94.9.9,0,0,0-.09-.4l-1.63-4.94h0a.77.77,0,0,1-.08-.37.85.85,0,0,1,.86-.86H380a.91.91,0,0,1,.37.08.86.86,0,0,1,.41,1.15h0l-1.63,4.94h0a.93.93,0,0,0,.84,1.34h9.52a.94.94,0,0,0,.94-.94.9.9,0,0,0-.09-.4l-1.63-4.94h0a.78.78,0,0,1-.09-.37.86.86,0,0,1,.87-.86H399a1,1,0,0,1,.37.08.87.87,0,0,1,.41,1.15h0l-1.64,4.94h0A.94.94,0,0,0,399,41h9.52a.94.94,0,0,0,.94-.94.9.9,0,0,0-.09-.4l-1.63-4.94h0a.78.78,0,0,1-.09-.37.86.86,0,0,1,.87-.86H425V40.9h-3.6v1.88h.9v7.58h-.9v1.88H425V67.19h-3.6v1.87h.9v6.37l-9.2-4h0a.94.94,0,0,0-1.24.49.9.9,0,0,0-.07.37V92.18a.94.94,0,0,0,.94.94,1,1,0,0,0,.37-.07l9.2-4v6.36h-.9V97.3H425v14.94h-3.6v1.88h.9v7.59h-.9v1.87H425V131h-3.6v1.87h.9v7.59h-.9v1.88H425V157.3h-3.6v1.88h.9v6.36l-9.2-4h0a1,1,0,0,0-1.24.49,1,1,0,0,0-.07.38V182.3a.94.94,0,0,0,.94.94,1,1,0,0,0,.37-.08l9.2-4v6.37h-.9v1.87H425v15h-3.6v1.88h.9v7.58h-.9v1.88H425v7.43h-3.6V223h.9v7.58h-.9v1.88H425v14.95h-3.6v1.87h.9v6.37l-9.2-4h0a.93.93,0,0,0-1.31.86v19.88a.94.94,0,0,0,.94.94,1,1,0,0,0,.37-.07l9.2-4v6.36h-.9v1.88H425v14.94h-3.6v1.88h.9v7.59h-.9v1.87H425v7.44h-3.6v1.88h.9v7.58h-.9v1.88H425v14.94h-3.6v1.88h.9v6.36l-9.2-4h0a.94.94,0,0,0-1.24.48,1,1,0,0,0-.07.38v19.88a.94.94,0,0,0,.94.94,1,1,0,0,0,.37-.08l9.2-4v6.37h-.9v1.88H425v14.94h-3.6V386h.9v10.14H395V392.5h-1.88v.9H366.76v-.9h-1.87v3.61H337.63V386h.9v-3.38h-3.61V367.65h3.61v-1.88h-.9V359.4l9.2,4Z"/></g><g id="POLYLINE-8" data-name="POLYLINE"><path class="cls-1" d="M960.77,72.57a.93.93,0,0,0-1.23.49,1,1,0,0,0-.08.37V93.32a.94.94,0,0,0,.94.93.9.9,0,0,0,.37-.07l9.2-4v6.36h-.9v1.88h3.61v14.95h-3.61v1.87h.9v7.59h-.9v1.8H956.2a.94.94,0,0,0-.85,1.34l1.63,4.93h0a.85.85,0,0,1,.09.38.87.87,0,0,1-.87.86h-9.52a1,1,0,0,1-.37-.08.88.88,0,0,1-.41-1.16h0l1.64-4.93h0a.94.94,0,0,0-.85-1.34h-9.52a.94.94,0,0,0-.85,1.34l1.63,4.93h0a.85.85,0,0,1,.09.38.87.87,0,0,1-.87.86h-9.52a1,1,0,0,1-.37-.08.88.88,0,0,1-.41-1.16h0l1.64-4.93h0a.94.94,0,0,0-.85-1.34h-9.52a.94.94,0,0,0-.85,1.34l1.63,4.93h0a.85.85,0,0,1,.09.38.87.87,0,0,1-.87.86h-9.52a1,1,0,0,1-.37-.08.88.88,0,0,1-.41-1.16h0l1.64-4.93h0a.94.94,0,0,0-.85-1.34h-9.52a.94.94,0,0,0-.85,1.34l1.63,4.93h0a.85.85,0,0,1,.09.38.87.87,0,0,1-.87.86H882.64v-7.44h3.6v-1.87h-.9v-7.59h.9v-1.87h-3.6V98.43h3.6V96.55h-.9V90.19l9.2,4h0a1,1,0,0,0,1.24-.49,1,1,0,0,0,.07-.37V73.43a.94.94,0,0,0-.93-.94,1,1,0,0,0-.38.08l-9.2,4V70.19h.9V68.32h-3.6V53.37h3.6V51.5h-.9V43.91h.9v-1.8h12.88a.94.94,0,0,0,.94-.94.9.9,0,0,0-.09-.4l-1.63-4.93h0a.91.91,0,0,1-.08-.37.87.87,0,0,1,.86-.86h9.52a1,1,0,0,1,.38.08.86.86,0,0,1,.4,1.15h0l-1.63,4.93h0a.94.94,0,0,0,.45,1.25.9.9,0,0,0,.4.09h9.52a.94.94,0,0,0,.94-.94.9.9,0,0,0-.09-.4l-1.64-4.93h0a.91.91,0,0,1-.08-.37.87.87,0,0,1,.86-.86h9.52a1,1,0,0,1,.38.08.86.86,0,0,1,.4,1.15h0l-1.63,4.93h0a.94.94,0,0,0,.45,1.25.9.9,0,0,0,.4.09h9.52a.94.94,0,0,0,.94-.94.9.9,0,0,0-.09-.4l-1.64-4.93h0a.91.91,0,0,1-.08-.37.87.87,0,0,1,.86-.86h9.52a.91.91,0,0,1,.37.08.85.85,0,0,1,.41,1.15h0l-1.63,4.93h0a.94.94,0,0,0,.45,1.25.9.9,0,0,0,.4.09h9.52a.94.94,0,0,0,.94-.94.9.9,0,0,0-.09-.4l-1.64-4.93h0a.91.91,0,0,1-.08-.37.86.86,0,0,1,.86-.86h16.48V42h-3.61v1.88h.9V51.5h-.9v1.87h3.61V68.32h-3.61v1.87h.9v6.37l-9.2-4Z"/></g><g id="POLYLINE-9" data-name="POLYLINE"><path class="cls-1" d="M254.91,363.39a.94.94,0,0,0,1.24-.49.9.9,0,0,0,.07-.37V342.65a.94.94,0,0,0-.94-.94.83.83,0,0,0-.37.08l-9.2,4v-6.36h.9v-1.88H243V322.59h3.6v-1.88h-.9v-7.58h.9v-1.88H243v-7.44h3.6v-1.87h-.9v-7.59h.9v-1.88H243V277.53h3.6v-1.88h-.9v-6.36l9.2,4h0a1,1,0,0,0,1.24-.49,1,1,0,0,0,.07-.38V252.53a.94.94,0,0,0-.94-.94,1,1,0,0,0-.37.08l-9.2,4v-6.37h.9v-1.87H243V232.47h3.6v-1.88h-.9V223h.9v-1.88H243V213.7h3.6v-1.88h-.9v-7.58h.9v-1.88H243v-15h3.6v-1.87h-.9v-6.37l9.2,4h0a.94.94,0,0,0,1.24-.49.9.9,0,0,0,.07-.37V162.42a.94.94,0,0,0-.94-.94,1,1,0,0,0-.37.07l-9.2,4v-6.36h.9V157.3H243V142.36h3.6v-1.88h-.9v-7.59h.9V131H243v-7.44h3.6v-1.87h-.9v-7.59h.9v-1.88H243V97.3h3.6V95.42h-.9V89.06l9.2,4h0a1,1,0,0,0,1.24-.49,1,1,0,0,0,.07-.38V72.3a.94.94,0,0,0-.94-.94,1,1,0,0,0-.37.08l-9.2,4V69.06h.9V67.19H243V52.24h3.6V50.36h-.9V42.78h.9V41h12.88a.94.94,0,0,0,.94-.94.9.9,0,0,0-.09-.4L258.7,34.7h0a.91.91,0,0,1-.08-.37.86.86,0,0,1,.86-.86H269a.91.91,0,0,1,.37.08.85.85,0,0,1,.41,1.15h0l-1.63,4.94h0a.94.94,0,0,0,.45,1.25.9.9,0,0,0,.4.09h9.52a.94.94,0,0,0,.94-.94.9.9,0,0,0-.09-.4l-1.64-4.93h0a.91.91,0,0,1-.08-.37.85.85,0,0,1,.86-.86H288a.91.91,0,0,1,.37.08.86.86,0,0,1,.41,1.15h0l-1.63,4.94h0a.94.94,0,0,0,.44,1.25A1,1,0,0,0,288,41h9.52a.94.94,0,0,0,.94-.94.9.9,0,0,0-.09-.4l-1.64-4.94h0a.91.91,0,0,1-.08-.37.85.85,0,0,1,.86-.86h9.52a.91.91,0,0,1,.37.08.86.86,0,0,1,.41,1.15h0l-1.63,4.94h0a.94.94,0,0,0,.44,1.25,1,1,0,0,0,.41.09h9.52a.94.94,0,0,0,.94-.94,1.06,1.06,0,0,0-.09-.4l-1.64-4.94h0a.91.91,0,0,1-.08-.37.85.85,0,0,1,.86-.86h16.48V40.9h-3.61v1.88h.9v7.58h-.9v1.88h3.61V67.19h-3.61v1.87h.9v6.37l-9.2-4h0a.93.93,0,0,0-1.23.49.91.91,0,0,0-.08.37V92.18a1,1,0,0,0,1.31.87l9.2-4v6.36h-.9V97.3h3.61v14.94h-3.61v1.88h.9v7.59h-.9v1.87h3.61V131h-3.61v1.87h.9v7.59h-.9v1.88h3.61V157.3h-3.61v1.88h.9v6.36l-9.2-4h0a.94.94,0,0,0-1.23.49,1,1,0,0,0-.08.38V182.3a.93.93,0,0,0,1.31.86l9.2-4v6.37h-.9v1.87h3.61v15h-3.61v1.88h.9v7.58h-.9v1.88h3.61v7.43h-3.61V223h.9v7.58h-.9v1.88h3.61v14.95h-3.61v1.87h.9v6.37l-9.2-4h0a.93.93,0,0,0-1.23.49,1,1,0,0,0-.08.37v19.88a1,1,0,0,0,1.31.87l9.2-4v6.36h-.9v1.88h3.61v14.94h-3.61v1.88h.9v7.59h-.9v1.87h3.61v7.44h-3.61v1.88h.9v7.58h-.9v1.88h3.61v14.94h-3.61v1.88h.9v6.36l-9.2-4h0a.93.93,0,0,0-1.23.48,1,1,0,0,0-.08.38v19.88a.93.93,0,0,0,1.31.86l9.2-4v6.37h-.9v1.88h3.61v14.94h-3.61V386h.9v10.14H303.08V392.5h-1.87v.9H274.85v-.9H273v3.61H245.71V386h.9v-3.38H243V367.65h3.6v-1.88h-.9V359.4l9.2,4Z"/></g><g id="POLYLINE-10" data-name="POLYLINE"><path class="cls-1" d="M102.33,34.74a.8.8,0,0,1-.08-.37.85.85,0,0,1,.86-.86h13.77V50.4H116v1.88h3.61V67.22H116V69.1h.9V95.46H116v1.88h3.61v14.94H116v1.88h.9v26.36H116v1.88h3.61v14.94H116v1.88h.9v26.36H116v1.87h3.61v15H116v1.87h.9v26.36H116v1.88h3.61v14.94H116v1.88h.9v26.36H116v1.88h3.61v14.94H116v1.88h.9v26.36H116v1.88h3.61v14.94H116v1.88h.9v26.36H116v1.87h3.61v14.95H116v1.88h.9v11.64H89.62v-3.61H87.74v.9H61.39v-.9H59.51v3.61H32.25V384.51h.9v-1.88h-3.6V367.68h3.6v-1.87h-.9V339.45h.9v-1.88h-3.6V322.63h3.6v-1.88h-.9V294.39h.9v-1.88h-3.6V277.57h3.6v-1.88h-.9V249.33h.9v-1.88h-3.6V232.51h3.6v-1.88h-.9V204.27h.9V202.4h-3.6v-15h3.6v-1.87h-.9V159.22h.9v-1.88h-3.6V142.4h3.6v-1.88h-.9V114.16h.9v-1.88h-3.6V97.34h3.6V95.46h-.9V69.1h.9V67.22h-3.6V52.28h3.6V50.4h-.9V41H46a.94.94,0,0,0,.94-.94.9.9,0,0,0-.09-.4l-1.64-4.94h0a1,1,0,0,1-.08-.37.85.85,0,0,1,.86-.86h9.52a.77.77,0,0,1,.37.08.86.86,0,0,1,.41,1.15h0l-1.63,4.94h0a1,1,0,0,0,.44,1.25,1.16,1.16,0,0,0,.41.09h9.52a.94.94,0,0,0,.94-.94.9.9,0,0,0-.09-.4l-1.64-4.94h0a1,1,0,0,1-.08-.37.85.85,0,0,1,.86-.86h9.52a.77.77,0,0,1,.37.08.86.86,0,0,1,.41,1.15h0l-1.63,4.94h0a1,1,0,0,0,.44,1.25,1.16,1.16,0,0,0,.41.09h9.52a1,1,0,0,0,.94-.94,1.06,1.06,0,0,0-.09-.4L83.3,34.74h0a1,1,0,0,1-.08-.37.85.85,0,0,1,.86-.86H93.6a.77.77,0,0,1,.37.08.86.86,0,0,1,.41,1.15h0l-1.63,4.94h0a.93.93,0,0,0,.44,1.25,1.16,1.16,0,0,0,.4.09h9.53a.94.94,0,0,0,.93-.94.9.9,0,0,0-.09-.4l-1.63-4.94Z"/></g><g id="POLYLINE-11" data-name="POLYLINE"><path class="cls-1" d="M899,141.72a.94.94,0,0,0,.94-.94.9.9,0,0,0-.09-.4l-1.64-4.93h0a.91.91,0,0,1-.08-.37.85.85,0,0,1,.86-.86h9.52a.91.91,0,0,1,.37.08.86.86,0,0,1,.41,1.15h0l-1.63,4.94h0a1,1,0,0,0,.44,1.25,1,1,0,0,0,.41.09h9.52a.94.94,0,0,0,.94-.94,1.06,1.06,0,0,0-.09-.4l-1.64-4.94h0a.91.91,0,0,1-.08-.37.85.85,0,0,1,.86-.86h9.52a.91.91,0,0,1,.37.08.86.86,0,0,1,.41,1.15h0l-1.63,4.94h0a.93.93,0,0,0,.44,1.25,1,1,0,0,0,.4.09h9.53a.94.94,0,0,0,.93-.94.9.9,0,0,0-.09-.4l-1.63-4.94h0a.77.77,0,0,1-.08-.37.85.85,0,0,1,.86-.86h9.52a.91.91,0,0,1,.37.08.86.86,0,0,1,.41,1.15h0l-1.63,4.93h0a.93.93,0,0,0,.44,1.25,1,1,0,0,0,.4.09h9.53a.94.94,0,0,0,.93-.94.9.9,0,0,0-.09-.4l-1.63-4.94h0a.77.77,0,0,1-.08-.37.85.85,0,0,1,.86-.86h13.76V151.1H969V153h3.6v14.94H969v1.88h.9v26.36H969V198h3.6V213H969v1.88h.9v9.39H956.1a.94.94,0,0,0-.94.94,1,1,0,0,0,.09.4l1.64,4.93h0a1,1,0,0,1,.08.37.86.86,0,0,1-.86.87h-9.52a.78.78,0,0,1-.37-.09.86.86,0,0,1-.41-1.15h0l1.63-4.93h0a.94.94,0,0,0-.44-1.25,1,1,0,0,0-.41-.09h-9.52a.94.94,0,0,0-.94.94,1.16,1.16,0,0,0,.09.4l1.64,4.93h0a1,1,0,0,1,.08.37.86.86,0,0,1-.86.87h-9.52a.78.78,0,0,1-.37-.09.86.86,0,0,1-.41-1.15h0l1.63-4.93h0a.93.93,0,0,0-.44-1.25,1,1,0,0,0-.41-.09H918a.94.94,0,0,0-.93.94,1,1,0,0,0,.09.4l1.63,4.93h0a.8.8,0,0,1,.08.37.86.86,0,0,1-.86.87h-9.52a.78.78,0,0,1-.37-.09.86.86,0,0,1-.41-1.15h0l1.63-4.93h0a.93.93,0,0,0-.44-1.25,1,1,0,0,0-.4-.09H899a.94.94,0,0,0-.93.94,1,1,0,0,0,.09.4l1.63,4.93h0a.8.8,0,0,1,.08.37.86.86,0,0,1-.86.87H885.25v-16.9h.9V213h-3.61V198h3.61v-1.88h-.9V169.8h.9v-1.88h-3.61V153h3.61V151.1h-.9v-9.38Z"/></g><g id="POLYLINE-12" data-name="POLYLINE"><path class="cls-1" d="M194.32,34.74a1,1,0,0,1-.08-.37.86.86,0,0,1,.86-.86h13.77V50.4H208v1.88h3.61V67.22H208V69.1h.9V95.46H208v1.88h3.61v14.94H208v1.88h.9v26.36H208v1.88h3.61v14.94H208v1.88h.9v26.36H208v1.87h3.61v15H208v1.87h.9v26.36H208v1.88h3.61v14.94H208v1.88h.9v26.36H208v1.88h3.61v14.94H208v1.88h.9v26.36H208v1.88h3.61v14.94H208v1.88h.9v26.36H208v1.87h3.61v14.95H208v1.88h.9v11.64H181.62v-3.61h-1.88v.9H153.38v-.9H151.5v3.61H124.24V384.51h.9v-1.88h-3.6V367.68h3.6v-1.87h-.9V339.45h.9v-1.88h-3.6V322.63h3.6v-1.88h-.9V294.39h.9v-1.88h-3.6V277.57h3.6v-1.88h-.9V249.33h.9v-1.88h-3.6V232.51h3.6v-1.88h-.9V204.27h.9V202.4h-3.6v-15h3.6v-1.87h-.9V159.22h.9v-1.88h-3.6V142.4h3.6v-1.88h-.9V114.16h.9v-1.88h-3.6V97.34h3.6V95.46h-.9V69.1h.9V67.22h-3.6V52.28h3.6V50.4h-.9V41H138a.94.94,0,0,0,.94-.94.9.9,0,0,0-.09-.4l-1.63-4.94h0a1,1,0,0,1-.08-.37.86.86,0,0,1,.86-.86h9.53a.83.83,0,0,1,.37.08.87.87,0,0,1,.41,1.15h0l-1.63,4.94h0a1,1,0,0,0,.45,1.25,1.06,1.06,0,0,0,.4.09h9.52a.94.94,0,0,0,.94-.94.9.9,0,0,0-.09-.4l-1.64-4.94h0a1,1,0,0,1-.08-.37.86.86,0,0,1,.86-.86h9.52a.84.84,0,0,1,.38.08.86.86,0,0,1,.4,1.15h0l-1.63,4.94h0a1,1,0,0,0,.45,1.25,1.06,1.06,0,0,0,.4.09h9.52a.94.94,0,0,0,.94-.94.9.9,0,0,0-.09-.4l-1.64-4.94h0a1,1,0,0,1-.08-.37.86.86,0,0,1,.86-.86h9.52a.84.84,0,0,1,.38.08.86.86,0,0,1,.4,1.15h0l-1.63,4.94h0a1,1,0,0,0,.45,1.25,1.06,1.06,0,0,0,.4.09h9.52a.94.94,0,0,0,.94-.94.9.9,0,0,0-.09-.4l-1.64-4.94Z"/></g><g id="POLYLINE-13" data-name="POLYLINE"><polygon class="cls-1" points="886.75 344.5 885.85 344.5 885.85 339.16 886.75 339.16 886.75 337.29 883.14 337.29 883.14 325.35 886.75 325.35 886.75 323.47 885.85 323.47 885.85 318.14 886.75 318.14 886.75 316.26 883.14 316.26 883.14 308.82 886.75 308.82 886.75 306.95 885.85 306.95 885.85 302.82 911.3 302.82 911.3 303.72 913.18 303.72 913.18 300.11 943.14 300.11 943.14 303.72 945.02 303.72 945.02 302.82 970.48 302.82 970.48 306.95 969.58 306.95 969.58 308.82 973.18 308.82 973.18 316.26 969.58 316.26 969.58 318.14 970.48 318.14 970.48 323.47 969.58 323.47 969.58 325.35 973.18 325.35 973.18 337.29 969.58 337.29 969.58 339.16 970.48 339.16 970.48 344.5 969.58 344.5 969.58 346.37 973.18 346.37 973.18 353.81 969.58 353.81 969.58 355.69 970.48 355.69 970.48 359.82 945.02 359.82 945.02 358.92 943.14 358.92 943.14 362.52 913.18 362.52 913.18 358.92 911.3 358.92 911.3 359.82 885.85 359.82 885.85 355.69 886.75 355.69 886.75 353.81 883.14 353.81 883.14 346.37 886.75 346.37 886.75 344.5"/></g><g id="POLYLINE-14" data-name="POLYLINE"><polygon class="cls-1" points="886.75 278.86 885.85 278.86 885.85 273.53 886.75 273.53 886.75 271.65 883.14 271.65 883.14 259.71 886.75 259.71 886.75 257.83 885.85 257.83 885.85 252.5 886.75 252.5 886.75 250.62 883.14 250.62 883.14 243.19 886.75 243.19 886.75 241.31 885.85 241.31 885.85 237.18 911.3 237.18 911.3 238.08 913.18 238.08 913.18 234.48 943.14 234.48 943.14 238.08 945.02 238.08 945.02 237.18 970.48 237.18 970.48 241.31 969.58 241.31 969.58 243.19 973.18 243.19 973.18 250.62 969.58 250.62 969.58 252.5 970.48 252.5 970.48 257.83 969.58 257.83 969.58 259.71 973.18 259.71 973.18 271.65 969.58 271.65 969.58 273.53 970.48 273.53 970.48 278.86 969.58 278.86 969.58 280.74 973.18 280.74 973.18 288.17 969.58 288.17 969.58 290.05 970.48 290.05 970.48 294.18 945.02 294.18 945.02 293.28 943.14 293.28 943.14 296.88 913.18 296.88 913.18 293.28 911.3 293.28 911.3 294.18 885.85 294.18 885.85 290.05 886.75 290.05 886.75 288.17 883.14 288.17 883.14 280.74 886.75 280.74 886.75 278.86"/></g><g id="POLYLINE-15" data-name="POLYLINE"><path class="cls-1" d="M505.64,119.8a.94.94,0,0,0,.77,1.08l.16,0h10.16V360.23h-.9v1.88h3.6v6.23H481.06v-.9h-1.88v7.28h1.88v-.9h38.37v6.23h-3.6v1.88h.9v10.59H510.8v-3.61h-1.88v.91h-3.83v-.91h-1.88v3.61h-30v-3.61h-1.88v.91h-3.83v-.91h-1.87v3.61h-5.94V381.93h.9v-1.88H457V362.11h3.6v-1.88h-.9V329.81h3.61v-1.87h-.9V316.6h.9v-1.88h-3.61v-8.19h3.61v-1.87h-.9v-1.73h.9v-1.88h-3.61v-2.63h3.61v-1.87h-.9v-1.73h.9v-1.88h-3.61v-8.18h3.61v-1.88h-.9V271.54h.9v-1.88h-3.61v-30h3.61v-1.88h-.9V226.48h.9V224.6h-3.61v-8.18h3.61v-1.88h-.9v-1.73h.9v-1.87h-3.61v-2.63h3.61v-1.88h-.9V204.7h.9v-1.87h-3.61v-8.19h3.61v-1.88h-.9V181.42h.9v-1.87h-3.61v-30h3.61v-1.87h-.9V136.37h.9v-1.88h-3.61V126.3h3.61v-1.87h-.9V122.7h.9v-1.8h6.56a.94.94,0,0,0,.94-.94.88.88,0,0,0,0-.16h0l-1.15-6.16a.88.88,0,0,1,.19-.7.89.89,0,0,1,.66-.3h11.39a.86.86,0,0,1,.66.3.84.84,0,0,1,.19.7l-1.15,6.16h0a.94.94,0,0,0,.77,1.08l.16,0h11.39a.94.94,0,0,0,.94-.94.88.88,0,0,0,0-.16h0l-1.15-6.16a.88.88,0,0,1,.19-.7.89.89,0,0,1,.66-.3h11.39a.86.86,0,0,1,.66.3.81.81,0,0,1,.19.7l-1.15,6.16Z"/></g><g id="POLYLINE-16" data-name="POLYLINE"><path class="cls-1" d="M590.35,395.43a.85.85,0,0,0,.85-1l-1.15-6.16h0a.86.86,0,0,1,0-.16.94.94,0,0,1,.94-.94h11.39l.15,0a.93.93,0,0,1,.77,1.08h0l-1.15,6.16h0a.88.88,0,0,0,.19.7.89.89,0,0,0,.66.3h11.39a.86.86,0,0,0,.66-.3.84.84,0,0,0,.19-.7l-1.15-6.16h0a.86.86,0,0,1,0-.16.94.94,0,0,1,.94-.94H626.4l.15,0a.93.93,0,0,1,.77,1.08h0l-1.15,6.16h0a.88.88,0,0,0,.19.7.89.89,0,0,0,.66.3h10.17V32.34H627a.9.9,0,0,0-.66.31.88.88,0,0,0-.19.7l1.15,6.16h0a.88.88,0,0,1,0,.16.94.94,0,0,1-.94.94H615l-.16,0a.94.94,0,0,1-.77-1.08h0l1.15-6.16h0a.84.84,0,0,0-.19-.7.87.87,0,0,0-.66-.31H603a.9.9,0,0,0-.66.31.88.88,0,0,0-.19.7l1.15,6.16h0a.86.86,0,0,1,0,.16.94.94,0,0,1-.93.94H591l-.16,0a.94.94,0,0,1-.77-1.08h0l1.15-6.16h0a.87.87,0,0,0-.85-1H580.19V35h3.6v1.88h-.9v1.73h.9v1.88h-3.6v8.18h3.6v1.88h-.9V61.86h.9v1.88h-3.6v30h3.6v1.88h-.9v11.34h.9v1.87h-3.6V117h3.6v1.88h-.9v1.72h.9v1.88h-3.6v2.63h3.6V127h-.9v1.72h.9v1.88h-3.6v8.19h3.6v1.87h-.9V152h.9v1.88h-3.6v30h3.6v1.88h-.9V197h.9v1.88h-3.6v8.18h3.6V209h-.9v1.73h.9v1.88h-3.6v2.62h3.6v1.88h-.9v1.73h.9v1.88h-3.6v8.18h3.6v1.88h-.9v11.34h.9V244h-3.6v30h3.6v1.88h-.9v11.34h.9V289h-3.6v8.19h3.6v1.88h-.9v1.72h.9v1.88h-3.6v2.63h3.6v1.88h-.9v1.72h.9v1.88h-3.6V319h3.6v1.87h-.9V332.2h.9v1.88h-3.6v30h3.6v1.88h-.9v11.34h.9v1.88h-3.6v8.18h3.6v1.88h-.9v1.73h.9v1.88h-3.6v2.62Z"/></g><g id="POLYLINE-17" data-name="POLYLINE"><path class="cls-1" d="M564.52,360.72a.92.92,0,0,1,0-.16.94.94,0,0,1,.93-.94h10.17V120.29h-.9v-1.88h3.6v-6.23H539.94v.9h-1.88V105.8h1.88v.9h38.37v-6.23h-3.6V98.59h.9V88h-5.94v3.61H567.8V90.7H564v.91h-1.88V88h-30v3.61h-1.88V90.7h-3.83v.91h-1.88V88h-5.93V98.59h.9v1.88h-3.6v17.94h3.6v1.88h-.9v30.42h3.6v1.87h-.9v11.34h.9v1.88h-3.6V174h3.6v1.87h-.9v1.73h.9v1.88h-3.6v2.63h3.6V184h-.9v1.73h.9v1.88h-3.6v8.18h3.6v1.88h-.9V209h.9v1.88h-3.6v30h3.6v1.88h-.9V254h.9v1.88h-3.6v8.18h3.6V266h-.9v1.73h.9v1.87h-3.6v2.63h3.6v1.88h-.9v1.73h.9v1.87h-3.6v8.19h3.6v1.88h-.9V299.1h.9V301h-3.6v30h3.6v1.87h-.9v11.34h.9V346h-3.6v8.19h3.6v1.87h-.9v1.73h.9v1.8h6.56l.16,0a.93.93,0,0,1,.77,1.08h0l-1.15,6.16a.82.82,0,0,0,.19.7.86.86,0,0,0,.66.3h11.39a.85.85,0,0,0,.85-1l-1.15-6.16h0a1,1,0,0,1,0-.16.94.94,0,0,1,.94-.94H552.8l.16,0a.93.93,0,0,1,.77,1.08h0l-1.15,6.16a.85.85,0,0,0,.85,1h11.39a.85.85,0,0,0,.85-1l-1.15-6.16Z"/></g><g id="POLYLINE-18" data-name="POLYLINE"><polygon class="cls-1" points="548.38 78.41 548.38 79.31 573.84 79.31 573.84 66.62 572.94 66.62 572.94 64.75 576.55 64.75 576.55 52.8 572.94 52.8 572.94 50.93 573.84 50.93 573.84 38.24 548.38 38.24 548.38 39.14 546.51 39.14 546.51 35.53 516.54 35.53 516.54 39.14 514.67 39.14 514.67 38.24 489.21 38.24 489.21 50.93 490.11 50.93 490.11 52.8 486.51 52.8 486.51 64.75 490.11 64.75 490.11 66.62 489.21 66.62 489.21 79.31 514.67 79.31 514.67 78.41 516.54 78.41 516.54 82.02 546.51 82.02 546.51 78.41 548.38 78.41"/></g><g id="POLYLINE-19" data-name="POLYLINE"><path class="cls-1" d="M718.92,119.8a.93.93,0,0,0,.77,1.08l.15,0H730V360.23h-.9v1.88h3.61v6.23H694.33v-.9h-1.87v7.28h1.87v-.9h38.38v6.23H729.1v1.88h.9v10.59h-5.93v-3.61h-1.88v.91h-3.83v-.91h-1.87v3.61h-30v-3.61h-1.87v.91h-3.83v-.91h-1.88v3.61H673V381.93h.9v-1.88H670.3V362.11h3.61v-1.88H673V329.81h3.6v-1.87h-.9V316.6h.9v-1.88H673v-8.19h3.6v-1.87h-.9v-1.73h.9v-1.88H673v-2.63h3.6v-1.87h-.9v-1.73h.9v-1.88H673v-8.18h3.6v-1.88h-.9V271.54h.9v-1.88H673v-30h3.6v-1.88h-.9V226.48h.9V224.6H673v-8.18h3.6v-1.88h-.9v-1.73h.9v-1.87H673v-2.63h3.6v-1.88h-.9V204.7h.9v-1.87H673v-8.19h3.6v-1.88h-.9V181.42h.9v-1.87H673v-30h3.6v-1.87h-.9V136.37h.9v-1.88H673V126.3h3.6v-1.87h-.9V122.7h.9v-1.8h6.56a.94.94,0,0,0,.94-.94s0-.11,0-.16h0l-1.16-6.16a.87.87,0,0,1,.86-1h11.38a.87.87,0,0,1,.86,1l-1.16,6.16h0a.94.94,0,0,0,.78,1.08l.15,0H707.2a.94.94,0,0,0,.94-.94s0-.11,0-.16h0L707,113.64a.87.87,0,0,1,.86-1h11.39a.87.87,0,0,1,.85,1l-1.15,6.16Z"/></g><g id="POLYLINE-20" data-name="POLYLINE"><path class="cls-1" d="M803.62,395.43a.87.87,0,0,0,.86-1l-1.16-6.16h0a.86.86,0,0,1,0-.16.94.94,0,0,1,.94-.94h11.39l.15,0a1,1,0,0,1,.78,1.08h0l-1.15,6.16h0a.87.87,0,0,0,.85,1h11.39a.87.87,0,0,0,.86-1l-1.16-6.16h0s0-.11,0-.16a.94.94,0,0,1,.94-.94h11.39l.15,0a.94.94,0,0,1,.78,1.08h0l-1.16,6.16h0a.87.87,0,0,0,.86,1h10.16V32.34H840.3a.87.87,0,0,0-.66.31.85.85,0,0,0-.2.7l1.16,6.16h0c0,.05,0,.11,0,.16a.94.94,0,0,1-.94.94H828.28l-.15,0a.94.94,0,0,1-.78-1.08h0l1.16-6.16h0a.85.85,0,0,0-.2-.7.87.87,0,0,0-.66-.31H816.26a.86.86,0,0,0-.65.31.85.85,0,0,0-.2.7l1.16,6.16h0c0,.05,0,.11,0,.16a.94.94,0,0,1-.94.94H804.25l-.15,0a.94.94,0,0,1-.78-1.08h0l1.16-6.16h0a.85.85,0,0,0-.2-.7.87.87,0,0,0-.66-.31H793.46V35h3.61v1.88h-.91v1.73h.91v1.88h-3.61v8.18h3.61v1.88h-.91V61.86h.91v1.88h-3.61v30h3.61v1.88h-.91v11.34h.91v1.87h-3.61V117h3.61v1.88h-.91v1.72h.91v1.88h-3.61v2.63h3.61V127h-.91v1.72h.91v1.88h-3.61v8.19h3.61v1.87h-.91V152h.91v1.88h-3.61v30h3.61v1.88h-.91V197h.91v1.88h-3.61v8.18h3.61V209h-.91v1.73h.91v1.88h-3.61v2.62h3.61v1.88h-.91v1.73h.91v1.88h-3.61v8.18h3.61v1.88h-.91v11.34h.91V244h-3.61v30h3.61v1.88h-.91v11.34h.91V289h-3.61v8.19h3.61v1.88h-.91v1.72h.91v1.88h-3.61v2.63h3.61v1.88h-.91v1.72h.91v1.88h-3.61V319h3.61v1.87h-.91V332.2h.91v1.88h-3.61v30h3.61v1.88h-.91v11.34h.91v1.88h-3.61v8.18h3.61v1.88h-.91v1.73h.91v1.88h-3.61v2.62Z"/></g><g id="POLYLINE-21" data-name="POLYLINE"><path class="cls-1" d="M777.79,360.72a.92.92,0,0,1,0-.16.94.94,0,0,1,.94-.94h10.16V120.29H788v-1.88h3.6v-6.23H753.21v.9h-1.88V105.8h1.88v.9h38.37v-6.23H788V98.59h.9V88H783v3.61h-1.88V90.7h-3.83v.91h-1.88V88h-30v3.61h-1.88V90.7h-3.83v.91h-1.88V88h-5.93V98.59h.9v1.88h-3.6v17.94h3.6v1.88h-.9v30.42h3.61v1.87h-.9v11.34h.9v1.88h-3.61V174h3.61v1.87h-.9v1.73h.9v1.88h-3.61v2.63h3.61V184h-.9v1.73h.9v1.88h-3.61v8.18h3.61v1.88h-.9V209h.9v1.88h-3.61v30h3.61v1.88h-.9V254h.9v1.88h-3.61v8.18h3.61V266h-.9v1.73h.9v1.87h-3.61v2.63h3.61v1.88h-.9v1.73h.9v1.87h-3.61v8.19h3.61v1.88h-.9V299.1h.9V301h-3.61v30h3.61v1.87h-.9v11.34h.9V346h-3.61v8.19h3.61v1.87h-.9v1.73h.9v1.8H742l.16,0a.93.93,0,0,1,.77,1.08h0l-1.15,6.16a.85.85,0,0,0,.85,1h11.39a.87.87,0,0,0,.66-.3.89.89,0,0,0,.19-.7l-1.15-6.16h0a.92.92,0,0,1,0-.16.94.94,0,0,1,.94-.94h11.39l.15,0a.93.93,0,0,1,.77,1.08h0l-1.15,6.16a.85.85,0,0,0,.85,1h11.39a.87.87,0,0,0,.66-.3.89.89,0,0,0,.19-.7l-1.15-6.16Z"/></g><g id="POLYLINE-22" data-name="POLYLINE"><polygon class="cls-1" points="761.66 78.41 761.66 79.31 787.12 79.31 787.12 66.62 786.21 66.62 786.21 64.75 789.82 64.75 789.82 52.8 786.21 52.8 786.21 50.93 787.12 50.93 787.12 38.24 761.66 38.24 761.66 39.14 759.78 39.14 759.78 35.53 729.82 35.53 729.82 39.14 727.94 39.14 727.94 38.24 702.48 38.24 702.48 50.93 703.38 50.93 703.38 52.8 699.78 52.8 699.78 64.75 703.38 64.75 703.38 66.62 702.48 66.62 702.48 79.31 727.94 79.31 727.94 78.41 729.82 78.41 729.82 82.02 759.78 82.02 759.78 78.41 761.66 78.41"/></g><g id="POLYLINE-23" data-name="POLYLINE"><polygon class="cls-1" points="700.55 94.48 697.98 94.49 697.98 93.62 696.56 93.62 696.56 98.14 697.98 98.14 697.98 97.27 700.55 97.26 700.55 98.12 701.97 98.12 701.97 93.61 700.55 93.61 700.55 94.48"/></g><g id="POLYLINE-24" data-name="POLYLINE"><polygon class="cls-1" points="548.7 380.95 546.14 380.96 546.14 380.1 544.71 380.1 544.71 384.61 546.14 384.61 546.14 383.74 548.7 383.73 548.7 384.6 550.12 384.6 550.12 380.09 548.7 380.09 548.7 380.95"/></g><g id="POLYLINE-25" data-name="POLYLINE"><polygon class="cls-1" points="761.97 380.95 759.41 380.96 759.41 380.1 757.99 380.1 757.99 384.61 759.41 384.61 759.41 383.74 761.97 383.73 761.97 384.6 763.39 384.6 763.39 380.09 761.97 380.09 761.97 380.95"/></g><g id="POLYLINE-26" data-name="POLYLINE"><polygon class="cls-1" points="950.47 378.44 947.9 378.45 947.9 377.59 946.48 377.59 946.48 382.1 947.9 382.1 947.9 381.23 950.47 381.22 950.47 382.09 951.89 382.09 951.89 377.58 950.47 377.58 950.47 378.44"/></g><g id="POLYLINE-27" data-name="POLYLINE"><polygon class="cls-1" points="910.56 378.44 908 378.45 908 377.59 906.58 377.59 906.58 382.1 908 382.1 908 381.23 910.56 381.22 910.56 382.09 911.99 382.09 911.99 377.58 910.56 377.58 910.56 378.44"/></g><g id="POLYLINE-28" data-name="POLYLINE"><polygon class="cls-1" points="487.27 94.48 484.71 94.49 484.71 93.62 483.29 93.62 483.29 98.14 484.71 98.14 484.71 97.27 487.27 97.26 487.27 98.12 488.69 98.12 488.69 93.61 487.27 93.61 487.27 94.48"/></g><g id="POLYLINE-29" data-name="POLYLINE"><path class="cls-1" d="M77.57,296.27h-6a11.3,11.3,0,0,0,0,22.6h6a11.3,11.3,0,0,0,0-22.6Z"/></g><g id="POLYLINE-30" data-name="POLYLINE"><path class="cls-1" d="M77.57,116h-6a11.3,11.3,0,0,0,0,22.6h6a11.3,11.3,0,1,0,0-22.6Z"/></g><g id="POLYLINE-31" data-name="POLYLINE"><path class="cls-1" d="M169.56,296.27h-6a11.3,11.3,0,0,0,0,22.6h6a11.3,11.3,0,0,0,0-22.6Z"/></g><g id="POLYLINE-32" data-name="POLYLINE"><path class="cls-1" d="M169.56,116h-6a11.3,11.3,0,0,0,0,22.6h6a11.3,11.3,0,1,0,0-22.6Z"/></g><g id="POLYLINE-33" data-name="POLYLINE"><polygon class="cls-1" points="503.51 271.54 502.61 271.54 502.61 269.66 507.19 269.66 507.19 271.54 506.29 271.54 506.29 282.88 507.19 282.88 507.19 284.76 502.61 284.76 502.61 282.88 503.51 282.88 503.51 271.54"/></g><g id="POLYLINE-34" data-name="POLYLINE"><polygon class="cls-1" points="476.03 342.43 476.03 340.55 489.92 340.55 489.92 342.43 489.02 342.43 489.02 344.23 487.14 344.23 487.14 343.33 478.81 343.33 478.81 344.23 476.93 344.23 476.93 342.43 476.03 342.43"/></g><g id="POLYLINE-35" data-name="POLYLINE"><polygon class="cls-1" points="502.61 316.6 502.61 314.72 507.19 314.72 507.19 316.6 506.29 316.6 506.29 327.94 507.19 327.94 507.19 329.81 502.61 329.81 502.61 327.94 503.51 327.94 503.51 316.6 502.61 316.6"/></g><g id="POLYLINE-36" data-name="POLYLINE"><polygon class="cls-1" points="502.61 136.37 502.61 134.49 507.19 134.49 507.19 136.37 506.29 136.37 506.29 147.71 507.19 147.71 507.19 149.58 502.61 149.58 502.61 147.71 503.51 147.71 503.51 136.37 502.61 136.37"/></g><g id="POLYLINE-37" data-name="POLYLINE"><polygon class="cls-1" points="507.16 239.7 502.61 239.7 502.61 237.82 503.51 237.82 503.51 226.48 502.61 226.48 502.61 224.6 507.19 224.6 507.19 226.48 506.29 226.48 506.29 237.82 507.19 237.82 507.19 239.7 507.16 239.7"/></g><g id="POLYLINE-38" data-name="POLYLINE"><polygon class="cls-1" points="502.61 194.6 502.61 192.76 503.51 192.76 503.51 181.42 502.61 181.42 502.61 179.55 507.19 179.55 507.19 181.42 506.29 181.42 506.29 192.76 507.19 192.76 507.19 194.64 502.61 194.64 502.61 194.6"/></g><g id="POLYLINE-39" data-name="POLYLINE"><path class="cls-1" d="M461,250.93v7.51a.72.72,0,0,0,1.43,0v-7.51a.72.72,0,1,0-1.43,0Z"/></g><g id="POLYLINE-40" data-name="POLYLINE"><path class="cls-1" d="M461,160.81v7.51a.72.72,0,0,0,1.43,0v-7.51a.72.72,0,0,0-1.43,0Z"/></g><g id="CIRCLE"><circle class="cls-1" cx="482.98" cy="254.68" r="9.8"/></g><g id="POLYLINE-41" data-name="POLYLINE"><path class="cls-1" d="M479.26,317v10.51a3,3,0,0,1-6.08,0V317a3,3,0,0,1,6.08,0Z"/></g><g id="POLYLINE-42" data-name="POLYLINE"><path class="cls-1" d="M482.22,391.24a.71.71,0,0,1-.71-.71v0h0v0h0v0h0v0h0v0h0v0h0v0h0v0h0v0h0v0h0v0h0v0h0v0h0l0,0h12.9v0h.05l0,0h0v0h0v0h0v0h0v0h0v0h0v0h0v0h0v0h0v0h0v0h0v0h0v0a.71.71,0,0,1-.71.71Z"/></g><g id="POLYLINE-43" data-name="POLYLINE"><polygon class="cls-1" points="626.75 377.26 626.75 365.92 627.65 365.92 627.65 364.05 623.07 364.05 623.07 365.92 623.97 365.92 623.97 377.26 623.07 377.26 623.07 379.14 627.65 379.14 627.65 377.26 626.75 377.26"/></g><g id="POLYLINE-44" data-name="POLYLINE"><polygon class="cls-1" points="623.07 48.68 623.07 50.52 623.97 50.52 623.97 61.86 623.07 61.86 623.07 63.73 627.65 63.73 627.65 61.86 626.75 61.86 626.75 50.52 627.65 50.52 627.65 48.64 623.07 48.64 623.07 48.68"/></g><g id="POLYLINE-45" data-name="POLYLINE"><polygon class="cls-1" points="623.11 198.91 627.65 198.91 627.65 197.03 626.75 197.03 626.75 185.69 627.65 185.69 627.65 183.81 623.07 183.81 623.07 185.69 623.97 185.69 623.97 197.03 623.07 197.03 623.07 198.91 623.11 198.91"/></g><g id="POLYLINE-46" data-name="POLYLINE"><polygon class="cls-1" points="627.61 228.87 623.07 228.87 623.07 230.75 623.97 230.75 623.97 242.09 623.07 242.09 623.07 243.97 627.65 243.97 627.65 242.09 626.75 242.09 626.75 230.75 627.65 230.75 627.65 228.87 627.61 228.87"/></g><g id="POLYLINE-47" data-name="POLYLINE"><polygon class="cls-1" points="623.07 93.74 623.07 95.58 623.97 95.58 623.97 106.92 623.07 106.92 623.07 108.79 627.65 108.79 627.65 106.92 626.75 106.92 626.75 95.58 627.65 95.58 627.65 93.7 623.07 93.7 623.07 93.74"/></g><g id="POLYLINE-48" data-name="POLYLINE"><polygon class="cls-1" points="626.75 332.2 626.75 320.86 627.65 320.86 627.65 318.99 623.07 318.99 623.07 320.86 623.97 320.86 623.97 332.2 623.07 332.2 623.07 334.08 627.65 334.08 627.65 332.2 626.75 332.2"/></g><g id="POLYLINE-49" data-name="POLYLINE"><polygon class="cls-1" points="623.11 289.02 627.65 289.02 627.65 287.15 626.75 287.15 626.75 275.81 627.65 275.81 627.65 273.93 623.07 273.93 623.07 275.81 623.97 275.81 623.97 287.15 623.07 287.15 623.07 289.02 623.11 289.02"/></g><g id="POLYLINE-50" data-name="POLYLINE"><polygon class="cls-1" points="623.07 138.79 623.07 140.63 623.97 140.63 623.97 151.97 623.07 151.97 623.07 153.85 627.65 153.85 627.65 151.97 626.75 151.97 626.75 140.63 627.65 140.63 627.65 138.76 623.07 138.76 623.07 138.79"/></g><g id="POLYLINE-51" data-name="POLYLINE"><path class="cls-1" d="M581.46,82.47a.72.72,0,1,0,1.43,0V75a.72.72,0,0,0-1.43,0Z"/></g><g id="POLYLINE-52" data-name="POLYLINE"><path class="cls-1" d="M581.46,172.59a.72.72,0,0,0,1.43,0v-7.51a.72.72,0,1,0-1.43,0Z"/></g><g id="POLYLINE-53" data-name="POLYLINE"><path class="cls-1" d="M581.46,262.7v-7.51a.72.72,0,0,1,1.43,0v7.51a.72.72,0,1,1-1.43,0Z"/></g><g id="POLYLINE-54" data-name="POLYLINE"><path class="cls-1" d="M581.46,352.82v-7.51a.72.72,0,1,1,1.43,0v7.51a.72.72,0,0,1-1.43,0Z"/></g><g id="CIRCLE-2" data-name="CIRCLE"><circle class="cls-1" cx="603.43" cy="349.06" r="9.8"/></g><g id="CIRCLE-3" data-name="CIRCLE"><circle class="cls-1" cx="603.43" cy="78.72" r="9.8"/></g><g id="POLYLINE-55" data-name="POLYLINE"><polygon class="cls-1" points="562.39 208.98 561.49 208.98 561.49 210.86 566.07 210.86 566.07 208.98 565.17 208.98 565.17 197.64 566.07 197.64 566.07 195.76 561.49 195.76 561.49 197.64 562.39 197.64 562.39 208.98"/></g><g id="POLYLINE-56" data-name="POLYLINE"><polygon class="cls-1" points="534.9 138.09 534.9 139.97 548.8 139.97 548.8 138.09 547.9 138.09 547.9 136.29 546.02 136.29 546.02 137.19 537.68 137.19 537.68 136.29 535.81 136.29 535.81 138.09 534.9 138.09"/></g><g id="POLYLINE-57" data-name="POLYLINE"><polygon class="cls-1" points="561.49 163.92 561.49 165.8 566.07 165.8 566.07 163.92 565.17 163.92 565.17 152.58 566.07 152.58 566.07 150.71 561.49 150.71 561.49 152.58 562.39 152.58 562.39 163.92 561.49 163.92"/></g><g id="POLYLINE-58" data-name="POLYLINE"><polygon class="cls-1" points="561.49 344.15 561.49 346.03 566.07 346.03 566.07 344.15 565.17 344.15 565.17 332.81 566.07 332.81 566.07 330.94 561.49 330.94 561.49 332.81 562.39 332.81 562.39 344.15 561.49 344.15"/></g><g id="POLYLINE-59" data-name="POLYLINE"><polygon class="cls-1" points="566.03 240.82 561.49 240.82 561.49 242.7 562.39 242.7 562.39 254.04 561.49 254.04 561.49 255.91 566.07 255.91 566.07 254.04 565.17 254.04 565.17 242.7 566.07 242.7 566.07 240.82 566.03 240.82"/></g><g id="POLYLINE-60" data-name="POLYLINE"><polygon class="cls-1" points="561.49 285.92 561.49 287.76 562.39 287.76 562.39 299.1 561.49 299.1 561.49 300.97 566.07 300.97 566.07 299.1 565.17 299.1 565.17 287.76 566.07 287.76 566.07 285.88 561.49 285.88 561.49 285.92"/></g><g id="POLYLINE-61" data-name="POLYLINE"><path class="cls-1" d="M519.89,229.59v-7.51a.71.71,0,0,1,1.42,0v7.51a.71.71,0,1,1-1.42,0Z"/></g><g id="POLYLINE-62" data-name="POLYLINE"><path class="cls-1" d="M519.89,319.71V312.2a.71.71,0,0,1,1.42,0v7.51a.71.71,0,0,1-1.42,0Z"/></g><g id="CIRCLE-4" data-name="CIRCLE"><circle class="cls-1" cx="541.85" cy="225.84" r="9.8"/></g><g id="POLYLINE-63" data-name="POLYLINE"><path class="cls-1" d="M538.13,163.51V153a3,3,0,1,0-6.08,0v10.51a3,3,0,1,0,6.08,0Z"/></g><g id="POLYLINE-64" data-name="POLYLINE"><path class="cls-1" d="M541.1,89.28a.71.71,0,0,0-.71.71v0h0v0h0v0h0v0h0v0h0v0h0v0h0v0h0v0h0v0h0v0h0v0h0l0,0h0v0h12.89l0,0h0v0h0v0h0v0h0v0h0v0h0v0h0v0h0v0h0v0h0v0h0v0h0v0h0v0a.71.71,0,0,0-.71-.71Z"/></g><g id="POLYLINE-65" data-name="POLYLINE"><path class="cls-1" d="M516.51,54.17h30a4.61,4.61,0,0,1,0,9.21h-30a4.61,4.61,0,1,1,0-9.21Z"/></g><g id="POLYLINE-66" data-name="POLYLINE"><polygon class="cls-1" points="716.79 271.54 715.89 271.54 715.89 269.66 720.47 269.66 720.47 271.54 719.57 271.54 719.57 282.88 720.47 282.88 720.47 284.76 715.89 284.76 715.89 282.88 716.79 282.88 716.79 271.54"/></g><g id="POLYLINE-67" data-name="POLYLINE"><polygon class="cls-1" points="689.3 342.43 689.3 340.55 703.2 340.55 703.2 342.43 702.29 342.43 702.29 344.23 700.42 344.23 700.42 343.33 692.08 343.33 692.08 344.23 690.2 344.23 690.2 342.43 689.3 342.43"/></g><g id="POLYLINE-68" data-name="POLYLINE"><polygon class="cls-1" points="715.89 316.6 715.89 314.72 720.47 314.72 720.47 316.6 719.57 316.6 719.57 327.94 720.47 327.94 720.47 329.81 715.89 329.81 715.89 327.94 716.79 327.94 716.79 316.6 715.89 316.6"/></g><g id="POLYLINE-69" data-name="POLYLINE"><polygon class="cls-1" points="715.89 136.37 715.89 134.49 720.47 134.49 720.47 136.37 719.57 136.37 719.57 147.71 720.47 147.71 720.47 149.58 715.89 149.58 715.89 147.71 716.79 147.71 716.79 136.37 715.89 136.37"/></g><g id="POLYLINE-70" data-name="POLYLINE"><polygon class="cls-1" points="720.43 239.7 715.89 239.7 715.89 237.82 716.79 237.82 716.79 226.48 715.89 226.48 715.89 224.6 720.47 224.6 720.47 226.48 719.57 226.48 719.57 237.82 720.47 237.82 720.47 239.7 720.43 239.7"/></g><g id="POLYLINE-71" data-name="POLYLINE"><polygon class="cls-1" points="715.89 194.6 715.89 192.76 716.79 192.76 716.79 181.42 715.89 181.42 715.89 179.55 720.47 179.55 720.47 181.42 719.57 181.42 719.57 192.76 720.47 192.76 720.47 194.64 715.89 194.64 715.89 194.6"/></g><g id="POLYLINE-72" data-name="POLYLINE"><path class="cls-1" d="M674.28,250.93v7.51a.72.72,0,0,0,1.43,0v-7.51a.72.72,0,1,0-1.43,0Z"/></g><g id="POLYLINE-73" data-name="POLYLINE"><path class="cls-1" d="M674.28,160.81v7.51a.72.72,0,0,0,1.43,0v-7.51a.72.72,0,0,0-1.43,0Z"/></g><g id="CIRCLE-5" data-name="CIRCLE"><circle class="cls-1" cx="696.25" cy="254.68" r="9.8"/></g><g id="POLYLINE-74" data-name="POLYLINE"><path class="cls-1" d="M692.53,317v10.51a3,3,0,0,1-6.08,0V317a3,3,0,0,1,6.08,0Z"/></g><g id="POLYLINE-75" data-name="POLYLINE"><path class="cls-1" d="M695.5,391.24a.71.71,0,0,1-.72-.71v0h0v0h0v0h0v0h0v0h0v0h0v0h0v0h0v0h0v0h0v0h0l0,0h0v0h0l0,0H708v0H708v0h0v0h0v0h0v0h0v0h0v0h0v0h0v0h0v0h0v0h0v0h0v0h0v0a.71.71,0,0,1-.72.71Z"/></g><g id="POLYLINE-76" data-name="POLYLINE"><polygon class="cls-1" points="840.02 377.26 840.02 365.92 840.92 365.92 840.92 364.05 836.34 364.05 836.34 365.92 837.24 365.92 837.24 377.26 836.34 377.26 836.34 379.14 840.92 379.14 840.92 377.26 840.02 377.26"/></g><g id="POLYLINE-77" data-name="POLYLINE"><polygon class="cls-1" points="836.34 48.68 836.34 50.52 837.24 50.52 837.24 61.86 836.34 61.86 836.34 63.73 840.92 63.73 840.92 61.86 840.02 61.86 840.02 50.52 840.92 50.52 840.92 48.64 836.34 48.64 836.34 48.68"/></g><g id="POLYLINE-78" data-name="POLYLINE"><polygon class="cls-1" points="836.38 198.91 840.92 198.91 840.92 197.03 840.02 197.03 840.02 185.69 840.92 185.69 840.92 183.81 836.34 183.81 836.34 185.69 837.24 185.69 837.24 197.03 836.34 197.03 836.34 198.91 836.38 198.91"/></g><g id="POLYLINE-79" data-name="POLYLINE"><polygon class="cls-1" points="840.88 228.87 836.34 228.87 836.34 230.75 837.24 230.75 837.24 242.09 836.34 242.09 836.34 243.97 840.92 243.97 840.92 242.09 840.02 242.09 840.02 230.75 840.92 230.75 840.92 228.87 840.88 228.87"/></g><g id="POLYLINE-80" data-name="POLYLINE"><polygon class="cls-1" points="836.34 93.74 836.34 95.58 837.24 95.58 837.24 106.92 836.34 106.92 836.34 108.79 840.92 108.79 840.92 106.92 840.02 106.92 840.02 95.58 840.92 95.58 840.92 93.7 836.34 93.7 836.34 93.74"/></g><g id="POLYLINE-81" data-name="POLYLINE"><polygon class="cls-1" points="840.02 332.2 840.02 320.86 840.92 320.86 840.92 318.99 836.34 318.99 836.34 320.86 837.24 320.86 837.24 332.2 836.34 332.2 836.34 334.08 840.92 334.08 840.92 332.2 840.02 332.2"/></g><g id="POLYLINE-82" data-name="POLYLINE"><polygon class="cls-1" points="836.38 289.02 840.92 289.02 840.92 287.15 840.02 287.15 840.02 275.81 840.92 275.81 840.92 273.93 836.34 273.93 836.34 275.81 837.24 275.81 837.24 287.15 836.34 287.15 836.34 289.02 836.38 289.02"/></g><g id="POLYLINE-83" data-name="POLYLINE"><polygon class="cls-1" points="836.34 138.79 836.34 140.63 837.24 140.63 837.24 151.97 836.34 151.97 836.34 153.85 840.92 153.85 840.92 151.97 840.02 151.97 840.02 140.63 840.92 140.63 840.92 138.76 836.34 138.76 836.34 138.79"/></g><g id="POLYLINE-84" data-name="POLYLINE"><path class="cls-1" d="M794.74,82.47a.71.71,0,1,0,1.42,0V75a.71.71,0,0,0-1.42,0Z"/></g><g id="POLYLINE-85" data-name="POLYLINE"><path class="cls-1" d="M794.74,172.59a.71.71,0,1,0,1.42,0v-7.51a.71.71,0,1,0-1.42,0Z"/></g><g id="POLYLINE-86" data-name="POLYLINE"><path class="cls-1" d="M794.74,262.7v-7.51a.71.71,0,0,1,1.42,0v7.51a.71.71,0,1,1-1.42,0Z"/></g><g id="POLYLINE-87" data-name="POLYLINE"><path class="cls-1" d="M794.74,352.82v-7.51a.71.71,0,1,1,1.42,0v7.51a.71.71,0,1,1-1.42,0Z"/></g><g id="CIRCLE-6" data-name="CIRCLE"><circle class="cls-1" cx="816.7" cy="349.06" r="9.8"/></g><g id="CIRCLE-7" data-name="CIRCLE"><circle class="cls-1" cx="816.7" cy="78.72" r="9.8"/></g><g id="POLYLINE-88" data-name="POLYLINE"><polygon class="cls-1" points="775.66 208.98 774.76 208.98 774.76 210.86 779.34 210.86 779.34 208.98 778.44 208.98 778.44 197.64 779.34 197.64 779.34 195.76 774.76 195.76 774.76 197.64 775.66 197.64 775.66 208.98"/></g><g id="POLYLINE-89" data-name="POLYLINE"><polygon class="cls-1" points="748.18 138.09 748.18 139.97 762.07 139.97 762.07 138.09 761.17 138.09 761.17 136.29 759.29 136.29 759.29 137.19 750.96 137.19 750.96 136.29 749.08 136.29 749.08 138.09 748.18 138.09"/></g><g id="POLYLINE-90" data-name="POLYLINE"><polygon class="cls-1" points="774.76 163.92 774.76 165.8 779.34 165.8 779.34 163.92 778.44 163.92 778.44 152.58 779.34 152.58 779.34 150.71 774.76 150.71 774.76 152.58 775.66 152.58 775.66 163.92 774.76 163.92"/></g><g id="POLYLINE-91" data-name="POLYLINE"><polygon class="cls-1" points="774.76 344.15 774.76 346.03 779.34 346.03 779.34 344.15 778.44 344.15 778.44 332.81 779.34 332.81 779.34 330.94 774.76 330.94 774.76 332.81 775.66 332.81 775.66 344.15 774.76 344.15"/></g><g id="POLYLINE-92" data-name="POLYLINE"><polygon class="cls-1" points="779.3 240.82 774.76 240.82 774.76 242.7 775.66 242.7 775.66 254.04 774.76 254.04 774.76 255.91 779.34 255.91 779.34 254.04 778.44 254.04 778.44 242.7 779.34 242.7 779.34 240.82 779.3 240.82"/></g><g id="POLYLINE-93" data-name="POLYLINE"><polygon class="cls-1" points="774.76 285.92 774.76 287.76 775.66 287.76 775.66 299.1 774.76 299.1 774.76 300.97 779.34 300.97 779.34 299.1 778.44 299.1 778.44 287.76 779.34 287.76 779.34 285.88 774.76 285.88 774.76 285.92"/></g><g id="POLYLINE-94" data-name="POLYLINE"><path class="cls-1" d="M733.16,229.59v-7.51a.72.72,0,0,1,1.43,0v7.51a.72.72,0,1,1-1.43,0Z"/></g><g id="POLYLINE-95" data-name="POLYLINE"><path class="cls-1" d="M733.16,319.71V312.2a.72.72,0,0,1,1.43,0v7.51a.72.72,0,0,1-1.43,0Z"/></g><g id="CIRCLE-8" data-name="CIRCLE"><circle class="cls-1" cx="755.12" cy="225.84" r="9.8"/></g><g id="POLYLINE-96" data-name="POLYLINE"><path class="cls-1" d="M751.41,163.51V153a3,3,0,1,0-6.09,0v10.51a3,3,0,0,0,6.09,0Z"/></g><g id="POLYLINE-97" data-name="POLYLINE"><path class="cls-1" d="M754.37,89.28a.71.71,0,0,0-.71.71v0h0v0h0v0h0v0h0v0h0v0h0v0h0v0h0v0h0v0h0v0h0v0h0v0h0l0,0h12.88l0,0h0v0h0v0h0v0h0v0h0v0h0v0h0v0h0v0h0v0h0v0h0v0h0v0h0v0a.71.71,0,0,0-.71-.71Z"/></g><g id="POLYLINE-98" data-name="POLYLINE"><path class="cls-1" d="M729.78,54.17h30a4.61,4.61,0,0,1,0,9.21h-30a4.61,4.61,0,0,1,0-9.21Z"/></g><g id="MTEXT"><text class="cls-2" transform="translate(727.78 49.09)">FLOOR-L/E</text></g><g id="MTEXT-2" data-name="MTEXT"><text class="cls-2" transform="translate(819.25 230.93) rotate(-90)">FLOOR-L/H</text></g><g id="MTEXT-3" data-name="MTEXT"><text class="cls-2" transform="translate(757.36 298.6) rotate(-90)">FLOOR-L/I</text></g><g id="MTEXT-4" data-name="MTEXT"><text class="cls-2" transform="translate(700.32 212.32) rotate(-90)">FLOOR-L/G</text></g><g id="MTEXT-5" data-name="MTEXT"><text class="cls-2" transform="translate(514.51 48.49)">FLOOR-L/E</text></g><g id="MTEXT-6" data-name="MTEXT"><text class="cls-2" transform="translate(604.78 230.93) rotate(-90)">FLOOR-L/H</text></g><g id="MTEXT-7" data-name="MTEXT"><text class="cls-2" transform="translate(543.93 296.35) rotate(-90)">FLOOR-L/I</text></g><g id="MTEXT-8" data-name="MTEXT"><text class="cls-2" transform="translate(486.29 221.18) rotate(-90)">FLOOR-L/G</text></g><g id="MTEXT-9" data-name="MTEXT"><text class="cls-2" transform="translate(363.04 217.87)">FLOOR-L/C</text></g><g id="MTEXT-10" data-name="MTEXT"><text class="cls-2" transform="translate(910.62 85.25)">FLOOR-L/D</text></g><g id="MTEXT-11" data-name="MTEXT"><text class="cls-2" transform="translate(271.12 217.87)">FLOOR-L/C</text></g><g id="MTEXT-12" data-name="MTEXT"><text class="cls-2" transform="translate(57.61 218.09)">FLOOR-L/A</text></g><g id="MTEXT-13" data-name="MTEXT"><text class="cls-2" transform="translate(910.53 184.86)">FLOOR-L/B</text></g><g id="MTEXT-14" data-name="MTEXT"><text class="cls-2" transform="translate(149.61 218.09)">FLOOR-L/A</text></g><g id="MTEXT-15" data-name="MTEXT"><text class="cls-2" transform="translate(911.15 333.2)">FLOOR-L/F</text></g><g id="MTEXT-16" data-name="MTEXT"><text class="cls-2" transform="translate(911.15 267.56)">FLOOR-L/F</text></g><g id="POLYLINE-99" data-name="POLYLINE"><rect class="cls-3" x="28.94" y="31.18" width="183.23" height="366.47"/></g><g id="POLYLINE-100" data-name="POLYLINE"><rect class="cls-3" x="242.22" y="31.18" width="183.23" height="366.47"/></g><g id="POLYLINE-101" data-name="POLYLINE"><rect class="cls-3" x="455.49" y="31.18" width="183.23" height="366.47"/></g><g id="POLYLINE-102" data-name="POLYLINE"><rect class="cls-3" x="882.04" y="31.18" width="183.23" height="366.47"/></g><g id="POLYLINE-103" data-name="POLYLINE"><rect class="cls-3" x="668.76" y="31.18" width="183.23" height="366.47"/></g><g id="MTEXT-17" data-name="MTEXT"><text class="cls-4" transform="translate(28.94 19.65)">001 x1</text></g></svg>