<svg id="Layer_1" data-name="Layer 1" xmlns="http://www.w3.org/2000/svg" viewBox="0 0 212.6 425.2"><defs><style>.cls-1{font-size:5.3px;fill:#1d1d1b;font-family:Monotxt;}.cls-2,.cls-3{fill:none;stroke:#1d1d1b;stroke-miterlimit:10;}.cls-2{stroke-width:0.5px;}.cls-3{stroke-width:0.25px;}</style></defs><g id="MTEXT"><text class="cls-1" transform="translate(79.71 244.57) rotate(-90)">COMB-A/END-Y3</text></g><g id="MTEXT-2" data-name="MTEXT"><text class="cls-1" transform="translate(135.84 195.31) rotate(90)">COMB-A/END-Y3</text></g><g id="POLYLINE"><polygon class="cls-2" points="28.68 91.39 34.02 91.39 34.02 90.49 35.9 90.49 35.9 97.78 34.02 97.78 34.02 96.88 28.68 96.88 28.68 97.78 26.8 97.78 26.8 90.49 28.68 90.49 28.68 91.39"/></g><g id="POLYLINE-2" data-name="POLYLINE"><polygon class="cls-2" points="28.68 180.73 28.68 181.63 34.02 181.63 34.02 180.73 35.9 180.73 35.9 188.02 34.02 188.02 34.02 187.12 28.68 187.12 28.68 188.02 26.8 188.02 26.8 180.73 28.68 180.73"/></g><g id="POLYLINE-3" data-name="POLYLINE"><polygon class="cls-2" points="26.8 246.3 28.68 246.3 28.68 247.2 34.02 247.2 34.02 246.3 35.9 246.3 35.9 253.59 34.02 253.59 34.02 252.69 28.68 252.69 28.68 253.59 26.8 253.59 26.8 246.3"/></g><g id="POLYLINE-4" data-name="POLYLINE"><polygon class="cls-2" points="34.02 156.96 34.02 156.06 35.9 156.06 35.9 163.36 34.02 163.36 34.02 162.45 28.68 162.45 28.68 163.36 26.8 163.36 26.8 156.06 28.68 156.06 28.68 156.96 34.02 156.96"/></g><g id="POLYLINE-5" data-name="POLYLINE"><polygon class="cls-2" points="28.68 270.97 28.68 271.87 34.02 271.87 34.02 270.97 35.9 270.97 35.9 278.26 34.02 278.26 34.02 277.36 28.68 277.36 28.68 278.26 26.8 278.26 26.8 270.97 28.68 270.97"/></g><g id="POLYLINE-6" data-name="POLYLINE"><polygon class="cls-2" points="26.8 336.54 28.68 336.54 28.68 337.44 34.02 337.44 34.02 336.54 35.9 336.54 35.9 343.83 34.02 343.83 34.02 342.93 28.68 342.93 28.68 343.83 26.8 343.83 26.8 336.54"/></g><g id="POLYLINE-7" data-name="POLYLINE"><polygon class="cls-2" points="28.68 361.2 28.68 362.11 34.02 362.11 34.02 361.2 35.9 361.2 35.9 368.5 34.02 368.5 34.02 367.6 28.68 367.6 28.68 368.5 26.8 368.5 26.8 361.2 28.68 361.2"/></g><g id="POLYLINE-8" data-name="POLYLINE"><polygon class="cls-2" points="185.21 91.39 179.87 91.39 179.87 90.49 177.99 90.49 177.99 97.78 179.87 97.78 179.87 96.88 185.21 96.88 185.21 97.78 187.09 97.78 187.09 90.49 185.21 90.49 185.21 91.39"/></g><g id="POLYLINE-9" data-name="POLYLINE"><polygon class="cls-2" points="185.21 180.73 185.21 181.63 179.87 181.63 179.87 180.73 177.99 180.73 177.99 188.02 179.87 188.02 179.87 187.12 185.21 187.12 185.21 188.02 187.09 188.02 187.09 180.73 185.21 180.73"/></g><g id="POLYLINE-10" data-name="POLYLINE"><polygon class="cls-2" points="187.09 246.3 185.21 246.3 185.21 247.2 179.87 247.2 179.87 246.3 177.99 246.3 177.99 253.59 179.87 253.59 179.87 252.69 185.21 252.69 185.21 253.59 187.09 253.59 187.09 246.3"/></g><g id="POLYLINE-11" data-name="POLYLINE"><polygon class="cls-2" points="179.87 156.96 179.87 156.06 177.99 156.06 177.99 163.36 179.87 163.36 179.87 162.45 185.21 162.45 185.21 163.36 187.09 163.36 187.09 156.06 185.21 156.06 185.21 156.96 179.87 156.96"/></g><g id="POLYLINE-12" data-name="POLYLINE"><polygon class="cls-2" points="185.21 270.97 185.21 271.87 179.87 271.87 179.87 270.97 177.99 270.97 177.99 278.26 179.87 278.26 179.87 277.36 185.21 277.36 185.21 278.26 187.09 278.26 187.09 270.97 185.21 270.97"/></g><g id="POLYLINE-13" data-name="POLYLINE"><polygon class="cls-2" points="187.09 336.54 185.21 336.54 185.21 337.44 179.87 337.44 179.87 336.54 177.99 336.54 177.99 343.83 179.87 343.83 179.87 342.93 185.21 342.93 185.21 343.83 187.09 343.83 187.09 336.54"/></g><g id="POLYLINE-14" data-name="POLYLINE"><polygon class="cls-2" points="185.21 361.2 185.21 362.11 179.87 362.11 179.87 361.2 177.99 361.2 177.99 368.5 179.87 368.5 179.87 367.6 185.21 367.6 185.21 368.5 187.09 368.5 187.09 361.2 185.21 361.2"/></g><g id="POLYLINE-15" data-name="POLYLINE"><path class="cls-2" d="M25.33,265a1.76,1.76,0,0,0-1.77,1.76v15.34a1.77,1.77,0,0,0,1.77,1.77h15.9V283h1.88v48.8H41.23v-.9H25.33a1.77,1.77,0,0,0-1.77,1.77V348a1.76,1.76,0,0,0,1.77,1.76H58.08v-.9H60v7.3H58.08v-.91H25.33A1.77,1.77,0,0,0,23.56,357v15.34a1.77,1.77,0,0,0,1.77,1.77h15.9v-.9h1.88V397.6h57.08V34H60v3.61H58.08v-.9h-15v16h22v-.9H67v7.29H65.15v-.9h-22V79.06h15v-.9H60v7.29H58.08v-.9H25.33a1.76,1.76,0,0,0-1.77,1.76v15.35a1.76,1.76,0,0,0,1.77,1.76h15.9v-.9h1.88v48.8H41.23v-.9H25.33a1.77,1.77,0,0,0-1.77,1.77v15.34a1.77,1.77,0,0,0,1.77,1.77H58.08v-.91H60v7.3H58.08v-.9H25.33a1.76,1.76,0,0,0-1.77,1.76v15.34a1.77,1.77,0,0,0,1.77,1.77h15.9v-.9h1.88v48.8H41.23v-.9H25.33a1.77,1.77,0,0,0-1.77,1.77v15.34a1.77,1.77,0,0,0,1.77,1.77H58.08v-.91H60v7.3H58.08V265Z"/></g><g id="POLYLINE-16" data-name="POLYLINE"><path class="cls-2" d="M188.56,265a1.76,1.76,0,0,1,1.77,1.76v15.34a1.77,1.77,0,0,1-1.77,1.77H172.65V283h-1.88v48.8h1.88v-.9h15.91a1.77,1.77,0,0,1,1.77,1.77V348a1.76,1.76,0,0,1-1.77,1.76H155.81v-.9h-1.88v7.3h1.88v-.91h32.75a1.77,1.77,0,0,1,1.77,1.77v15.34a1.77,1.77,0,0,1-1.77,1.77H172.65v-.9h-1.88V397.6H113.7V34h40.23v3.61h1.88v-.9h15v16h-22v-.9h-1.88v7.29h1.88v-.9h22V79.06h-15v-.9h-1.88v7.29h1.88v-.9h32.75a1.76,1.76,0,0,1,1.77,1.76v15.35a1.76,1.76,0,0,1-1.77,1.76H172.65v-.9h-1.88v48.8h1.88v-.9h15.91a1.77,1.77,0,0,1,1.77,1.77v15.34a1.77,1.77,0,0,1-1.77,1.77H155.81v-.91h-1.88v7.3h1.88v-.9h32.75a1.76,1.76,0,0,1,1.77,1.76v15.34a1.77,1.77,0,0,1-1.77,1.77H172.65v-.9h-1.88v48.8h1.88v-.9h15.91a1.77,1.77,0,0,1,1.77,1.77v15.34a1.77,1.77,0,0,1-1.77,1.77H155.81v-.91h-1.88v7.3h1.88V265Z"/></g><g id="POLYLINE-17" data-name="POLYLINE"><rect class="cls-3" x="14.56" y="32.55" width="183.49" height="366.97"/></g></svg>