<svg id="Layer_1" data-name="Layer 1" xmlns="http://www.w3.org/2000/svg" viewBox="0 0 425.2 425.2"><defs><style>.cls-1,.cls-2{fill:none;stroke-linecap:round;stroke-linejoin:round;}.cls-1{stroke:#000;stroke-width:0.25px;}.cls-2{stroke:#1d1d1b;}</style></defs><line class="cls-1" x1="244.44" y1="232.91" x2="244.97" y2="233.22"/><line class="cls-1" x1="244.97" y1="233.22" x2="244.97" y2="234.45"/><line class="cls-1" x1="244.97" y1="234.45" x2="240.73" y2="232"/><line class="cls-1" x1="240.73" y1="232" x2="240.73" y2="230.77"/><line class="cls-1" x1="240.73" y1="230.77" x2="241.26" y2="231.08"/><line class="cls-1" x1="241.26" y1="231.08" x2="241.26" y2="208.81"/><line class="cls-1" x1="241.26" y1="208.81" x2="241.18" y2="208.32"/><line class="cls-1" x1="241.18" y1="208.32" x2="240.94" y2="207.76"/><line class="cls-1" x1="240.94" y1="207.76" x2="240.58" y2="207.28"/><line class="cls-1" x1="240.58" y1="207.28" x2="240.19" y2="206.97"/><line class="cls-1" x1="240.19" y1="206.97" x2="231.17" y2="201.76"/><line class="cls-1" x1="231.17" y1="201.76" x2="230.78" y2="201.62"/><line class="cls-1" x1="230.78" y1="201.62" x2="230.42" y2="201.69"/><line class="cls-1" x1="230.42" y1="201.69" x2="230.18" y2="201.97"/><line class="cls-1" x1="230.18" y1="201.97" x2="230.11" y2="202.38"/><line class="cls-1" x1="230.11" y1="213.2" x2="230.64" y2="213.51"/><line class="cls-1" x1="230.64" y1="213.51" x2="230.64" y2="214.73"/><line class="cls-1" x1="230.64" y1="214.73" x2="201.98" y2="198.19"/><line class="cls-1" x1="201.98" y1="198.19" x2="201.98" y2="196.96"/><line class="cls-1" x1="201.98" y1="196.96" x2="202.51" y2="197.27"/><line class="cls-1" x1="202.51" y1="197.27" x2="202.51" y2="186.44"/><line class="cls-1" x1="202.51" y1="186.44" x2="202.44" y2="185.95"/><line class="cls-1" x1="202.44" y1="185.95" x2="202.2" y2="185.4"/><line class="cls-1" x1="202.2" y1="185.4" x2="201.84" y2="184.92"/><line class="cls-1" x1="201.84" y1="184.92" x2="201.45" y2="184.6"/><line class="cls-1" x1="201.45" y1="184.6" x2="192.43" y2="179.4"/><line class="cls-1" x1="192.43" y1="179.4" x2="192.04" y2="179.26"/><line class="cls-1" x1="192.04" y1="179.26" x2="191.68" y2="179.32"/><line class="cls-1" x1="191.68" y1="179.32" x2="191.44" y2="179.6"/><line class="cls-1" x1="191.44" y1="179.6" x2="191.37" y2="180.01"/><line class="cls-1" x1="191.37" y1="202.27" x2="191.9" y2="202.58"/><line class="cls-1" x1="191.9" y1="202.58" x2="191.9" y2="203.81"/><line class="cls-1" x1="191.9" y1="203.81" x2="187.65" y2="201.36"/><line class="cls-1" x1="187.65" y1="201.36" x2="187.65" y2="200.13"/><line class="cls-1" x1="187.65" y1="200.13" x2="188.19" y2="200.44"/><line class="cls-1" x1="188.19" y1="200.44" x2="188.19" y2="178.17"/><line class="cls-1" x1="188.19" y1="178.17" x2="188.11" y2="177.68"/><line class="cls-1" x1="188.11" y1="177.68" x2="187.87" y2="177.12"/><line class="cls-1" x1="187.87" y1="177.12" x2="187.51" y2="176.64"/><line class="cls-1" x1="187.51" y1="176.64" x2="187.12" y2="176.33"/><line class="cls-1" x1="187.12" y1="176.33" x2="178.1" y2="171.12"/><line class="cls-1" x1="178.1" y1="171.12" x2="177.71" y2="170.98"/><line class="cls-1" x1="177.71" y1="170.98" x2="177.35" y2="171.05"/><line class="cls-1" x1="177.35" y1="171.05" x2="177.11" y2="171.33"/><line class="cls-1" x1="177.11" y1="171.33" x2="177.04" y2="171.74"/><line class="cls-1" x1="177.04" y1="182.56" x2="177.57" y2="182.87"/><line class="cls-1" x1="177.57" y1="182.87" x2="177.57" y2="184.09"/><line class="cls-1" x1="177.57" y1="184.09" x2="148.91" y2="167.55"/><line class="cls-1" x1="148.91" y1="167.55" x2="148.91" y2="166.32"/><line class="cls-1" x1="148.91" y1="166.32" x2="149.44" y2="166.63"/><line class="cls-1" x1="149.44" y1="166.63" x2="149.44" y2="155.8"/><line class="cls-1" x1="149.44" y1="155.8" x2="149.37" y2="155.31"/><line class="cls-1" x1="149.37" y1="155.31" x2="149.13" y2="154.76"/><line class="cls-1" x1="149.13" y1="154.76" x2="148.77" y2="154.28"/><line class="cls-1" x1="148.77" y1="154.28" x2="148.38" y2="153.96"/><line class="cls-1" x1="148.38" y1="153.96" x2="139.36" y2="148.76"/><line class="cls-1" x1="139.36" y1="148.76" x2="138.97" y2="148.62"/><line class="cls-1" x1="138.97" y1="148.62" x2="138.61" y2="148.68"/><line class="cls-1" x1="138.61" y1="148.68" x2="138.37" y2="148.96"/><line class="cls-1" x1="138.37" y1="148.96" x2="138.3" y2="149.37"/><line class="cls-1" x1="138.3" y1="171.63" x2="138.83" y2="171.94"/><line class="cls-1" x1="138.83" y1="171.94" x2="138.83" y2="173.17"/><line class="cls-1" x1="138.83" y1="173.17" x2="134.58" y2="170.72"/><line class="cls-1" x1="134.58" y1="170.72" x2="134.58" y2="169.49"/><line class="cls-1" x1="134.58" y1="169.49" x2="135.11" y2="169.8"/><line class="cls-1" x1="135.11" y1="169.8" x2="135.11" y2="159.58"/><line class="cls-1" x1="135.11" y1="159.58" x2="122.82" y2="152.48"/><line class="cls-1" x1="122.82" y1="167.5" x2="123.35" y2="167.8"/><line class="cls-1" x1="123.35" y1="167.8" x2="123.35" y2="169.03"/><line class="cls-1" x1="123.35" y1="169.03" x2="119.1" y2="166.58"/><line class="cls-1" x1="119.1" y1="166.58" x2="119.1" y2="165.35"/><line class="cls-1" x1="119.1" y1="165.35" x2="119.63" y2="165.66"/><line class="cls-1" x1="119.63" y1="150.65" x2="110.17" y2="145.18"/><line class="cls-1" x1="110.17" y1="155.39" x2="110.7" y2="155.7"/><line class="cls-1" x1="110.7" y1="155.7" x2="110.7" y2="156.93"/><line class="cls-1" x1="110.7" y1="156.93" x2="108.58" y2="155.7"/><line class="cls-1" x1="108.58" y1="155.7" x2="108.58" y2="183.07"/><line class="cls-1" x1="108.58" y1="183.07" x2="322.45" y2="306.55"/><line class="cls-1" x1="322.45" y1="306.55" x2="322.45" y2="267.74"/><line class="cls-1" x1="322.45" y1="267.74" x2="308.13" y2="259.47"/><line class="cls-1" x1="308.13" y1="259.47" x2="308.13" y2="258.24"/><line class="cls-1" x1="308.13" y1="258.24" x2="308.66" y2="258.55"/><line class="cls-1" x1="308.66" y1="258.55" x2="308.66" y2="247.73"/><line class="cls-1" x1="308.66" y1="247.73" x2="308.58" y2="247.23"/><line class="cls-1" x1="308.58" y1="247.23" x2="308.35" y2="246.68"/><line class="cls-1" x1="308.35" y1="246.68" x2="307.98" y2="246.2"/><line class="cls-1" x1="307.98" y1="246.2" x2="307.59" y2="245.89"/><line class="cls-1" x1="307.59" y1="245.89" x2="298.57" y2="240.68"/><line class="cls-1" x1="298.57" y1="240.68" x2="298.18" y2="240.54"/><line class="cls-1" x1="298.18" y1="240.54" x2="297.82" y2="240.6"/><line class="cls-1" x1="297.82" y1="240.6" x2="297.59" y2="240.88"/><line class="cls-1" x1="297.59" y1="240.88" x2="297.51" y2="241.29"/><line class="cls-1" x1="297.51" y1="263.56" x2="298.04" y2="263.86"/><line class="cls-1" x1="298.04" y1="263.86" x2="298.04" y2="265.09"/><line class="cls-1" x1="298.04" y1="265.09" x2="293.8" y2="262.64"/><line class="cls-1" x1="293.8" y1="262.64" x2="293.8" y2="261.41"/><line class="cls-1" x1="293.8" y1="261.41" x2="294.33" y2="261.72"/><line class="cls-1" x1="294.33" y1="261.72" x2="294.33" y2="239.45"/><line class="cls-1" x1="294.33" y1="239.45" x2="294.25" y2="238.96"/><line class="cls-1" x1="294.25" y1="238.96" x2="294.02" y2="238.4"/><line class="cls-1" x1="294.02" y1="238.4" x2="293.66" y2="237.92"/><line class="cls-1" x1="293.66" y1="237.92" x2="293.27" y2="237.61"/><line class="cls-1" x1="293.27" y1="237.61" x2="284.24" y2="232.4"/><line class="cls-1" x1="284.24" y1="232.4" x2="283.85" y2="232.26"/><line class="cls-1" x1="283.85" y1="232.26" x2="283.49" y2="232.33"/><line class="cls-1" x1="283.49" y1="232.33" x2="283.25" y2="232.61"/><line class="cls-1" x1="283.25" y1="232.61" x2="283.18" y2="233.02"/><line class="cls-1" x1="283.18" y1="243.84" x2="283.71" y2="244.15"/><line class="cls-1" x1="283.71" y1="244.15" x2="283.71" y2="245.38"/><line class="cls-1" x1="283.71" y1="245.38" x2="255.05" y2="228.83"/><line class="cls-1" x1="255.05" y1="228.83" x2="255.05" y2="227.6"/><line class="cls-1" x1="255.05" y1="227.6" x2="255.58" y2="227.91"/><line class="cls-1" x1="255.58" y1="227.91" x2="255.58" y2="217.08"/><line class="cls-1" x1="255.58" y1="217.08" x2="255.51" y2="216.59"/><line class="cls-1" x1="255.51" y1="216.59" x2="255.27" y2="216.04"/><line class="cls-1" x1="255.27" y1="216.04" x2="254.91" y2="215.56"/><line class="cls-1" x1="254.91" y1="215.56" x2="254.52" y2="215.24"/><line class="cls-1" x1="254.52" y1="215.24" x2="245.5" y2="210.04"/><line class="cls-1" x1="245.5" y1="210.04" x2="245.11" y2="209.9"/><line class="cls-1" x1="245.11" y1="209.9" x2="244.75" y2="209.96"/><line class="cls-1" x1="244.75" y1="209.96" x2="244.51" y2="210.24"/><line class="cls-1" x1="244.51" y1="210.24" x2="244.44" y2="210.65"/><line class="cls-1" x1="194.91" y1="187.97" x2="195.44" y2="188.28"/><line class="cls-1" x1="195.44" y1="188.28" x2="195.44" y2="184.6"/><line class="cls-1" x1="195.44" y1="184.6" x2="194.91" y2="184.3"/><line class="cls-1" x1="194.91" y1="184.3" x2="194.91" y2="183.07"/><line class="cls-1" x1="199.15" y1="186.75" x2="198.62" y2="186.44"/><line class="cls-1" x1="198.62" y1="190.12" x2="199.15" y2="190.43"/><line class="cls-1" x1="199.15" y1="190.43" x2="199.15" y2="191.65"/><line class="cls-1" x1="199.15" y1="191.65" x2="194.91" y2="189.2"/><line class="cls-1" x1="194.91" y1="189.2" x2="194.91" y2="187.97"/><line class="cls-1" x1="234" y1="210.55" x2="234" y2="206.87"/><line class="cls-1" x1="234" y1="206.87" x2="233.47" y2="206.56"/><line class="cls-1" x1="233.47" y1="206.56" x2="233.47" y2="205.34"/><line class="cls-1" x1="237.72" y1="209.02" x2="237.19" y2="208.71"/><line class="cls-1" x1="237.19" y1="212.39" x2="237.72" y2="212.69"/><line class="cls-1" x1="237.72" y1="212.69" x2="237.72" y2="213.92"/><line class="cls-1" x1="237.72" y1="213.92" x2="233.47" y2="211.47"/><line class="cls-1" x1="233.47" y1="211.47" x2="233.47" y2="210.24"/><line class="cls-1" x1="233.47" y1="210.24" x2="234" y2="210.55"/><line class="cls-1" x1="184.64" y1="183.28" x2="180.4" y2="180.83"/><line class="cls-1" x1="180.4" y1="180.83" x2="180.4" y2="179.6"/><line class="cls-1" x1="180.4" y1="179.6" x2="180.93" y2="179.91"/><line class="cls-1" x1="180.93" y1="179.91" x2="180.93" y2="176.23"/><line class="cls-1" x1="180.93" y1="176.23" x2="180.4" y2="175.92"/><line class="cls-1" x1="180.4" y1="175.92" x2="180.4" y2="174.7"/><line class="cls-1" x1="184.64" y1="178.38" x2="184.11" y2="178.07"/><line class="cls-1" x1="184.11" y1="181.75" x2="184.64" y2="182.05"/><line class="cls-1" x1="184.64" y1="182.05" x2="184.64" y2="183.28"/><line class="cls-1" x1="141.84" y1="158.56" x2="141.84" y2="157.33"/><line class="cls-1" x1="141.84" y1="157.33" x2="142.37" y2="157.64"/><line class="cls-1" x1="142.37" y1="157.64" x2="142.37" y2="153.96"/><line class="cls-1" x1="142.37" y1="153.96" x2="141.84" y2="153.66"/><line class="cls-1" x1="141.84" y1="153.66" x2="141.84" y2="152.43"/><line class="cls-1" x1="146.08" y1="156.11" x2="145.55" y2="155.8"/><line class="cls-1" x1="145.55" y1="159.48" x2="146.08" y2="159.79"/><line class="cls-1" x1="146.08" y1="159.79" x2="146.08" y2="161.01"/><line class="cls-1" x1="146.08" y1="161.01" x2="141.84" y2="158.56"/><line class="cls-1" x1="247.98" y1="218.62" x2="248.51" y2="218.92"/><line class="cls-1" x1="248.51" y1="218.92" x2="248.51" y2="215.24"/><line class="cls-1" x1="248.51" y1="215.24" x2="247.98" y2="214.94"/><line class="cls-1" x1="247.98" y1="214.94" x2="247.98" y2="213.71"/><line class="cls-1" x1="252.22" y1="217.39" x2="251.69" y2="217.08"/><line class="cls-1" x1="251.69" y1="220.76" x2="252.22" y2="221.07"/><line class="cls-1" x1="252.22" y1="221.07" x2="252.22" y2="222.29"/><line class="cls-1" x1="252.22" y1="222.29" x2="247.98" y2="219.84"/><line class="cls-1" x1="247.98" y1="219.84" x2="247.98" y2="218.62"/><line class="cls-1" x1="287.07" y1="241.19" x2="287.07" y2="237.51"/><line class="cls-1" x1="287.07" y1="237.51" x2="286.54" y2="237.2"/><line class="cls-1" x1="286.54" y1="237.2" x2="286.54" y2="235.98"/><line class="cls-1" x1="290.79" y1="239.66" x2="290.26" y2="239.35"/><line class="cls-1" x1="290.26" y1="243.03" x2="290.79" y2="243.33"/><line class="cls-1" x1="290.79" y1="243.33" x2="290.79" y2="244.56"/><line class="cls-1" x1="290.79" y1="244.56" x2="286.54" y2="242.11"/><line class="cls-1" x1="286.54" y1="242.11" x2="286.54" y2="240.88"/><line class="cls-1" x1="286.54" y1="240.88" x2="287.07" y2="241.19"/><line class="cls-1" x1="301.05" y1="249.26" x2="301.58" y2="249.56"/><line class="cls-1" x1="301.58" y1="249.56" x2="301.58" y2="245.89"/><line class="cls-1" x1="301.58" y1="245.89" x2="301.05" y2="245.58"/><line class="cls-1" x1="301.05" y1="245.58" x2="301.05" y2="244.36"/><line class="cls-1" x1="305.29" y1="248.03" x2="304.76" y2="247.73"/><line class="cls-1" x1="304.76" y1="251.4" x2="305.29" y2="251.71"/><line class="cls-1" x1="305.29" y1="251.71" x2="305.29" y2="252.93"/><line class="cls-1" x1="305.29" y1="252.93" x2="301.05" y2="250.48"/><line class="cls-1" x1="301.05" y1="250.48" x2="301.05" y2="249.26"/><line class="cls-1" x1="247.09" y1="209.12" x2="246.7" y2="208.98"/><line class="cls-1" x1="246.7" y1="208.98" x2="246.34" y2="209.04"/><line class="cls-1" x1="246.34" y1="209.04" x2="246.19" y2="209.23"/><line class="cls-1" x1="246.7" y1="209.35" x2="247.09" y2="209.12"/><line class="cls-1" x1="246.09" y1="209.42" x2="246.07" y2="209.5"/><line class="cls-1" x1="246.05" y1="209.6" x2="246.03" y2="209.73"/><line class="cls-1" x1="256.11" y1="214.33" x2="247.09" y2="209.12"/><line class="cls-1" x1="254.52" y1="215.24" x2="254.92" y2="215.02"/><line class="cls-1" x1="257.18" y1="216.16" x2="257.1" y2="215.67"/><line class="cls-1" x1="257.1" y1="215.67" x2="256.86" y2="215.12"/><line class="cls-1" x1="256.86" y1="215.12" x2="256.5" y2="214.64"/><line class="cls-1" x1="256.78" y1="216.39" x2="257.18" y2="216.16"/><line class="cls-1" x1="256.5" y1="214.64" x2="256.11" y2="214.33"/><line class="cls-1" x1="257.18" y1="226.99" x2="257.18" y2="216.16"/><line class="cls-1" x1="255.05" y1="228.83" x2="256.64" y2="227.91"/><line class="cls-1" x1="256.64" y1="227.91" x2="256.64" y2="227.3"/><line class="cls-1" x1="283.18" y1="243.23" x2="256.64" y2="227.91"/><line class="cls-1" x1="285.84" y1="231.49" x2="285.45" y2="231.35"/><line class="cls-1" x1="285.45" y1="231.35" x2="285.09" y2="231.41"/><line class="cls-1" x1="285.09" y1="231.41" x2="284.99" y2="231.52"/><line class="cls-1" x1="285.44" y1="231.72" x2="285.84" y2="231.49"/><line class="cls-1" x1="284.83" y1="231.78" x2="284.82" y2="231.87"/><line class="cls-1" x1="284.8" y1="231.97" x2="284.77" y2="232.1"/><line class="cls-1" x1="294.86" y1="236.69" x2="285.84" y2="231.49"/><line class="cls-1" x1="293.27" y1="237.61" x2="293.66" y2="237.38"/><line class="cls-1" x1="295.92" y1="238.53" x2="295.84" y2="238.04"/><line class="cls-1" x1="295.84" y1="238.04" x2="295.61" y2="237.49"/><line class="cls-1" x1="295.61" y1="237.49" x2="295.25" y2="237"/><line class="cls-1" x1="295.52" y1="238.76" x2="295.92" y2="238.53"/><line class="cls-1" x1="295.25" y1="237" x2="294.86" y2="236.69"/><line class="cls-1" x1="295.92" y1="260.8" x2="295.92" y2="238.53"/><line class="cls-1" x1="293.8" y1="262.64" x2="295.39" y2="261.72"/><line class="cls-1" x1="295.39" y1="261.72" x2="295.39" y2="261.1"/><line class="cls-1" x1="297.51" y1="262.94" x2="295.39" y2="261.72"/><line class="cls-1" x1="300.16" y1="239.76" x2="299.77" y2="239.62"/><line class="cls-1" x1="299.77" y1="239.62" x2="299.41" y2="239.68"/><line class="cls-1" x1="299.32" y1="239.79" x2="299.26" y2="239.87"/><line class="cls-1" x1="299.77" y1="239.99" x2="300.16" y2="239.76"/><line class="cls-1" x1="309.19" y1="244.97" x2="300.16" y2="239.76"/><line class="cls-1" x1="307.59" y1="245.89" x2="307.99" y2="245.66"/><line class="cls-1" x1="310.25" y1="246.81" x2="310.17" y2="246.31"/><line class="cls-1" x1="310.17" y1="246.31" x2="309.94" y2="245.76"/><line class="cls-1" x1="309.94" y1="245.76" x2="309.58" y2="245.28"/><line class="cls-1" x1="309.85" y1="247.04" x2="310.25" y2="246.81"/><line class="cls-1" x1="309.58" y1="245.28" x2="309.19" y2="244.97"/><line class="cls-1" x1="310.25" y1="257.63" x2="310.25" y2="246.81"/><line class="cls-1" x1="308.13" y1="259.47" x2="309.72" y2="258.55"/><line class="cls-1" x1="309.72" y1="258.55" x2="309.72" y2="257.94"/><line class="cls-1" x1="322.45" y1="267.74" x2="324.05" y2="266.82"/><line class="cls-1" x1="324.05" y1="266.82" x2="309.72" y2="258.55"/><line class="cls-1" x1="322.45" y1="306.55" x2="324.05" y2="305.64"/><line class="cls-1" x1="324.05" y1="305.64" x2="324.05" y2="266.82"/><line class="cls-1" x1="108.58" y1="155.7" x2="110.17" y2="154.78"/><line class="cls-1" x1="110.17" y1="145.18" x2="111.76" y2="144.26"/><line class="cls-1" x1="119.63" y1="150.65" x2="121.23" y2="149.73"/><line class="cls-1" x1="121.23" y1="149.73" x2="111.76" y2="144.26"/><line class="cls-1" x1="119.63" y1="150.65" x2="119.63" y2="165.57"/><line class="cls-1" x1="119.63" y1="165.57" x2="121.23" y2="164.65"/><line class="cls-1" x1="121.23" y1="164.65" x2="121.23" y2="149.73"/><line class="cls-1" x1="119.63" y1="165.57" x2="119.63" y2="165.66"/><line class="cls-1" x1="121.23" y1="164.74" x2="121.23" y2="164.65"/><line class="cls-1" x1="119.1" y1="166.58" x2="120.7" y2="165.66"/><line class="cls-1" x1="120.7" y1="165.66" x2="120.7" y2="165.05"/><line class="cls-1" x1="122.82" y1="166.88" x2="120.7" y2="165.66"/><line class="cls-1" x1="122.82" y1="152.48" x2="124.41" y2="151.56"/><line class="cls-1" x1="135.11" y1="159.58" x2="136.71" y2="158.66"/><line class="cls-1" x1="136.71" y1="158.66" x2="124.41" y2="151.56"/><line class="cls-1" x1="136.71" y1="168.88" x2="136.71" y2="158.66"/><line class="cls-1" x1="134.58" y1="170.72" x2="136.17" y2="169.8"/><line class="cls-1" x1="136.17" y1="169.8" x2="136.17" y2="169.18"/><line class="cls-1" x1="138.3" y1="171.02" x2="136.17" y2="169.8"/><line class="cls-1" x1="140.95" y1="147.84" x2="140.56" y2="147.7"/><line class="cls-1" x1="140.56" y1="147.7" x2="140.2" y2="147.76"/><line class="cls-1" x1="140.2" y1="147.76" x2="140.04" y2="147.95"/><line class="cls-1" x1="140.55" y1="148.07" x2="140.95" y2="147.84"/><line class="cls-1" x1="139.96" y1="148.04" x2="139.95" y2="148.14"/><line class="cls-1" x1="149.97" y1="153.05" x2="140.95" y2="147.84"/><line class="cls-1" x1="148.38" y1="153.96" x2="148.78" y2="153.73"/><line class="cls-1" x1="151.03" y1="154.88" x2="150.96" y2="154.39"/><line class="cls-1" x1="150.96" y1="154.39" x2="150.72" y2="153.84"/><line class="cls-1" x1="150.72" y1="153.84" x2="150.36" y2="153.36"/><line class="cls-1" x1="150.64" y1="155.11" x2="151.03" y2="154.88"/><line class="cls-1" x1="150.36" y1="153.36" x2="149.97" y2="153.05"/><line class="cls-1" x1="151.03" y1="165.71" x2="151.03" y2="154.88"/><line class="cls-1" x1="148.91" y1="167.55" x2="150.5" y2="166.63"/><line class="cls-1" x1="150.5" y1="166.63" x2="150.5" y2="166.02"/><line class="cls-1" x1="177.04" y1="181.95" x2="150.5" y2="166.63"/><line class="cls-1" x1="179.69" y1="170.21" x2="179.3" y2="170.07"/><line class="cls-1" x1="179.3" y1="170.07" x2="178.94" y2="170.13"/><line class="cls-1" x1="178.94" y1="170.13" x2="178.85" y2="170.24"/><line class="cls-1" x1="178.78" y1="170.32" x2="178.71" y2="170.41"/><line class="cls-1" x1="179.29" y1="170.43" x2="179.69" y2="170.21"/><line class="cls-1" x1="178.71" y1="170.41" x2="178.69" y2="170.5"/><line class="cls-1" x1="188.72" y1="175.41" x2="179.69" y2="170.21"/><line class="cls-1" x1="187.12" y1="176.33" x2="187.52" y2="176.1"/><line class="cls-1" x1="189.78" y1="177.25" x2="189.7" y2="176.76"/><line class="cls-1" x1="189.7" y1="176.76" x2="189.47" y2="176.21"/><line class="cls-1" x1="189.47" y1="176.21" x2="189.11" y2="175.72"/><line class="cls-1" x1="189.38" y1="177.48" x2="189.78" y2="177.25"/><line class="cls-1" x1="189.11" y1="175.72" x2="188.72" y2="175.41"/><line class="cls-1" x1="189.78" y1="199.52" x2="189.78" y2="177.25"/><line class="cls-1" x1="187.65" y1="201.36" x2="189.25" y2="200.44"/><line class="cls-1" x1="189.25" y1="200.44" x2="189.25" y2="199.82"/><line class="cls-1" x1="191.37" y1="201.66" x2="189.25" y2="200.44"/><line class="cls-1" x1="194.02" y1="178.48" x2="193.63" y2="178.34"/><line class="cls-1" x1="193.63" y1="178.34" x2="193.27" y2="178.4"/><line class="cls-1" x1="193.27" y1="178.4" x2="193.18" y2="178.51"/><line class="cls-1" x1="193.62" y1="178.71" x2="194.02" y2="178.48"/><line class="cls-1" x1="193.02" y1="178.78" x2="193" y2="178.86"/><line class="cls-1" x1="192.98" y1="178.96" x2="192.96" y2="179.09"/><line class="cls-1" x1="203.04" y1="183.69" x2="194.02" y2="178.48"/><line class="cls-1" x1="201.45" y1="184.6" x2="201.85" y2="184.38"/><line class="cls-1" x1="204.1" y1="185.52" x2="204.03" y2="185.03"/><line class="cls-1" x1="204.03" y1="185.03" x2="203.79" y2="184.48"/><line class="cls-1" x1="203.79" y1="184.48" x2="203.43" y2="184"/><line class="cls-1" x1="203.71" y1="185.75" x2="204.1" y2="185.52"/><line class="cls-1" x1="203.43" y1="184" x2="203.04" y2="183.69"/><line class="cls-1" x1="204.1" y1="196.35" x2="204.1" y2="185.52"/><line class="cls-1" x1="201.98" y1="198.19" x2="203.57" y2="197.27"/><line class="cls-1" x1="203.57" y1="197.27" x2="203.57" y2="196.66"/><line class="cls-1" x1="230.11" y1="212.59" x2="203.57" y2="197.27"/><line class="cls-1" x1="232.76" y1="200.85" x2="232.37" y2="200.71"/><line class="cls-1" x1="232.37" y1="200.71" x2="232.01" y2="200.77"/><line class="cls-1" x1="232.01" y1="200.77" x2="231.86" y2="200.96"/><line class="cls-1" x1="232.36" y1="201.07" x2="232.76" y2="200.85"/><line class="cls-1" x1="231.72" y1="201.33" x2="231.7" y2="201.46"/><line class="cls-1" x1="241.79" y1="206.05" x2="232.76" y2="200.85"/><line class="cls-1" x1="240.19" y1="206.97" x2="240.59" y2="206.74"/><line class="cls-1" x1="242.85" y1="207.89" x2="242.77" y2="207.4"/><line class="cls-1" x1="242.77" y1="207.4" x2="242.54" y2="206.85"/><line class="cls-1" x1="242.54" y1="206.85" x2="242.18" y2="206.36"/><line class="cls-1" x1="242.45" y1="208.12" x2="242.85" y2="207.89"/><line class="cls-1" x1="242.18" y1="206.36" x2="241.79" y2="206.05"/><line class="cls-1" x1="242.85" y1="230.16" x2="242.85" y2="207.89"/><line class="cls-1" x1="240.73" y1="232" x2="242.32" y2="231.08"/><line class="cls-1" x1="242.32" y1="231.08" x2="242.32" y2="230.46"/><line class="cls-1" x1="244.44" y1="232.3" x2="242.32" y2="231.08"/><line class="cls-1" x1="302.11" y1="244.97" x2="301.05" y2="245.58"/><line class="cls-1" x1="301.58" y1="245.89" x2="302.64" y2="245.27"/><line class="cls-1" x1="303.17" y1="248.64" x2="303.17" y2="245.58"/><line class="cls-1" x1="301.05" y1="250.48" x2="302.64" y2="249.56"/><line class="cls-1" x1="302.64" y1="249.56" x2="302.64" y2="248.95"/><line class="cls-1" x1="304.76" y1="250.79" x2="302.64" y2="249.56"/><line class="cls-1" x1="304.76" y1="247.73" x2="305.29" y2="247.42"/><line class="cls-1" x1="286.54" y1="237.2" x2="287.6" y2="236.59"/><line class="cls-1" x1="287.07" y1="237.51" x2="288.14" y2="236.9"/><line class="cls-1" x1="288.67" y1="240.27" x2="288.67" y2="237.2"/><line class="cls-1" x1="286.54" y1="242.11" x2="288.14" y2="241.19"/><line class="cls-1" x1="288.14" y1="241.19" x2="288.14" y2="240.57"/><line class="cls-1" x1="290.26" y1="242.41" x2="288.14" y2="241.19"/><line class="cls-1" x1="290.26" y1="239.35" x2="290.79" y2="239.04"/><line class="cls-1" x1="249.04" y1="214.33" x2="247.98" y2="214.94"/><line class="cls-1" x1="248.51" y1="215.24" x2="249.57" y2="214.63"/><line class="cls-1" x1="250.1" y1="218" x2="250.1" y2="214.94"/><line class="cls-1" x1="247.98" y1="219.84" x2="249.57" y2="218.92"/><line class="cls-1" x1="249.57" y1="218.92" x2="249.57" y2="218.31"/><line class="cls-1" x1="251.69" y1="220.15" x2="249.57" y2="218.92"/><line class="cls-1" x1="251.69" y1="217.08" x2="252.22" y2="216.78"/><line class="cls-1" x1="143.43" y1="153.35" x2="142.37" y2="153.96"/><line class="cls-1" x1="143.96" y1="156.72" x2="143.96" y2="153.66"/><line class="cls-1" x1="141.84" y1="158.56" x2="143.43" y2="157.64"/><line class="cls-1" x1="143.43" y1="157.64" x2="143.43" y2="157.03"/><line class="cls-1" x1="145.55" y1="158.87" x2="143.43" y2="157.64"/><line class="cls-1" x1="145.55" y1="155.8" x2="146.08" y2="155.5"/><line class="cls-1" x1="141.84" y1="153.66" x2="142.9" y2="153.05"/><line class="cls-1" x1="180.4" y1="180.83" x2="181.99" y2="179.91"/><line class="cls-1" x1="181.99" y1="179.91" x2="181.99" y2="179.29"/><line class="cls-1" x1="184.11" y1="181.13" x2="181.99" y2="179.91"/><line class="cls-1" x1="184.11" y1="178.07" x2="184.64" y2="177.76"/><line class="cls-1" x1="180.4" y1="175.92" x2="181.46" y2="175.31"/><line class="cls-1" x1="180.93" y1="176.23" x2="181.99" y2="175.62"/><line class="cls-1" x1="182.52" y1="178.99" x2="182.52" y2="175.92"/><line class="cls-1" x1="233.47" y1="206.56" x2="234.53" y2="205.95"/><line class="cls-1" x1="234" y1="206.87" x2="235.06" y2="206.26"/><line class="cls-1" x1="235.6" y1="209.63" x2="235.6" y2="206.56"/><line class="cls-1" x1="233.47" y1="211.47" x2="235.06" y2="210.55"/><line class="cls-1" x1="235.06" y1="210.55" x2="235.06" y2="209.93"/><line class="cls-1" x1="237.19" y1="211.77" x2="235.06" y2="210.55"/><line class="cls-1" x1="237.19" y1="208.71" x2="237.72" y2="208.4"/><line class="cls-1" x1="195.97" y1="183.69" x2="194.91" y2="184.3"/><line class="cls-1" x1="195.44" y1="184.6" x2="196.5" y2="183.99"/><line class="cls-1" x1="197.03" y1="187.36" x2="197.03" y2="184.3"/><line class="cls-1" x1="194.91" y1="189.2" x2="196.5" y2="188.28"/><line class="cls-1" x1="196.5" y1="188.28" x2="196.5" y2="187.67"/><line class="cls-1" x1="198.62" y1="189.51" x2="196.5" y2="188.28"/><line class="cls-1" x1="198.62" y1="186.44" x2="199.15" y2="186.14"/><line class="cls-1" x1="230.11" y1="202.38" x2="230.11" y2="212.59"/><line class="cls-1" x1="230.11" y1="212.59" x2="230.11" y2="213.2"/><line class="cls-1" x1="191.37" y1="180.01" x2="191.37" y2="201.66"/><line class="cls-1" x1="191.37" y1="201.66" x2="191.37" y2="202.27"/><line class="cls-1" x1="177.04" y1="171.74" x2="177.04" y2="181.95"/><line class="cls-1" x1="177.04" y1="181.95" x2="177.04" y2="182.56"/><line class="cls-1" x1="138.3" y1="149.37" x2="138.3" y2="171.02"/><line class="cls-1" x1="138.3" y1="171.02" x2="138.3" y2="171.63"/><line class="cls-1" x1="122.82" y1="152.48" x2="122.82" y2="166.88"/><line class="cls-1" x1="122.82" y1="166.88" x2="122.82" y2="167.5"/><line class="cls-1" x1="110.17" y1="145.18" x2="110.17" y2="154.78"/><line class="cls-1" x1="110.17" y1="154.78" x2="110.17" y2="155.39"/><line class="cls-1" x1="297.51" y1="241.29" x2="297.51" y2="262.94"/><line class="cls-1" x1="297.51" y1="262.94" x2="297.51" y2="263.56"/><line class="cls-1" x1="283.18" y1="233.02" x2="283.18" y2="243.23"/><line class="cls-1" x1="283.18" y1="243.23" x2="283.18" y2="243.84"/><line class="cls-1" x1="244.44" y1="210.65" x2="244.44" y2="232.3"/><line class="cls-1" x1="244.44" y1="232.3" x2="244.44" y2="232.91"/><line class="cls-1" x1="194.91" y1="183.07" x2="195.97" y2="183.69"/><line class="cls-1" x1="199.15" y1="185.52" x2="199.15" y2="186.14"/><line class="cls-1" x1="199.15" y1="186.14" x2="199.15" y2="186.75"/><line class="cls-1" x1="198.62" y1="186.44" x2="198.62" y2="189.51"/><line class="cls-1" x1="198.62" y1="189.51" x2="198.62" y2="190.12"/><line class="cls-1" x1="233.47" y1="205.34" x2="234.53" y2="205.95"/><line class="cls-1" x1="237.72" y1="207.79" x2="237.72" y2="208.4"/><line class="cls-1" x1="237.72" y1="208.4" x2="237.72" y2="209.02"/><line class="cls-1" x1="237.19" y1="208.71" x2="237.19" y2="211.77"/><line class="cls-1" x1="237.19" y1="211.77" x2="237.19" y2="212.39"/><line class="cls-1" x1="180.4" y1="174.7" x2="181.46" y2="175.31"/><line class="cls-1" x1="184.64" y1="177.15" x2="184.64" y2="177.76"/><line class="cls-1" x1="184.64" y1="177.76" x2="184.64" y2="178.38"/><line class="cls-1" x1="184.11" y1="178.07" x2="184.11" y2="181.13"/><line class="cls-1" x1="184.11" y1="181.13" x2="184.11" y2="181.75"/><line class="cls-1" x1="146.08" y1="154.88" x2="146.08" y2="155.5"/><line class="cls-1" x1="146.08" y1="155.5" x2="146.08" y2="156.11"/><line class="cls-1" x1="145.55" y1="155.8" x2="145.55" y2="158.87"/><line class="cls-1" x1="145.55" y1="158.87" x2="145.55" y2="159.48"/><line class="cls-1" x1="247.98" y1="213.71" x2="249.04" y2="214.33"/><line class="cls-1" x1="252.22" y1="216.16" x2="252.22" y2="216.78"/><line class="cls-1" x1="252.22" y1="216.78" x2="252.22" y2="217.39"/><line class="cls-1" x1="251.69" y1="217.08" x2="251.69" y2="220.15"/><line class="cls-1" x1="251.69" y1="220.15" x2="251.69" y2="220.76"/><line class="cls-1" x1="288.67" y1="237.2" x2="290.79" y2="238.43"/><line class="cls-1" x1="290.79" y1="238.43" x2="290.79" y2="239.04"/><line class="cls-1" x1="290.79" y1="239.04" x2="290.79" y2="239.66"/><line class="cls-1" x1="290.26" y1="239.35" x2="290.26" y2="242.41"/><line class="cls-1" x1="290.26" y1="242.41" x2="290.26" y2="243.03"/><line class="cls-1" x1="301.05" y1="244.36" x2="302.11" y2="244.97"/><line class="cls-1" x1="305.29" y1="246.81" x2="305.29" y2="247.42"/><line class="cls-1" x1="305.29" y1="247.42" x2="305.29" y2="248.03"/><line class="cls-1" x1="304.76" y1="247.73" x2="304.76" y2="250.79"/><line class="cls-1" x1="304.76" y1="250.79" x2="304.76" y2="251.4"/><line class="cls-1" x1="255.58" y1="227.91" x2="256.64" y2="227.3"/><line class="cls-1" x1="256.64" y1="227.3" x2="257.18" y2="226.99"/><line class="cls-1" x1="294.33" y1="261.72" x2="295.39" y2="261.1"/><line class="cls-1" x1="295.39" y1="261.1" x2="295.92" y2="260.8"/><line class="cls-1" x1="308.66" y1="258.55" x2="309.72" y2="257.94"/><line class="cls-1" x1="309.72" y1="257.94" x2="310.25" y2="257.63"/><line class="cls-1" x1="119.63" y1="165.66" x2="120.7" y2="165.05"/><line class="cls-1" x1="120.7" y1="165.05" x2="121.23" y2="164.74"/><line class="cls-1" x1="135.11" y1="169.8" x2="136.17" y2="169.18"/><line class="cls-1" x1="136.17" y1="169.18" x2="136.71" y2="168.88"/><line class="cls-1" x1="149.44" y1="166.63" x2="150.5" y2="166.02"/><line class="cls-1" x1="150.5" y1="166.02" x2="151.03" y2="165.71"/><line class="cls-1" x1="188.19" y1="200.44" x2="189.25" y2="199.82"/><line class="cls-1" x1="189.25" y1="199.82" x2="189.78" y2="199.52"/><line class="cls-1" x1="202.51" y1="197.27" x2="203.57" y2="196.66"/><line class="cls-1" x1="203.57" y1="196.66" x2="204.1" y2="196.35"/><line class="cls-1" x1="241.26" y1="231.08" x2="242.32" y2="230.46"/><line class="cls-1" x1="242.32" y1="230.46" x2="242.85" y2="230.16"/><line class="cls-1" x1="301.58" y1="249.56" x2="302.64" y2="248.95"/><line class="cls-1" x1="302.64" y1="248.95" x2="303.17" y2="248.64"/><line class="cls-1" x1="287.07" y1="241.19" x2="288.14" y2="240.57"/><line class="cls-1" x1="288.14" y1="240.57" x2="288.67" y2="240.27"/><line class="cls-1" x1="248.51" y1="218.92" x2="249.57" y2="218.31"/><line class="cls-1" x1="249.57" y1="218.31" x2="250.1" y2="218"/><line class="cls-1" x1="142.37" y1="157.64" x2="143.43" y2="157.03"/><line class="cls-1" x1="143.43" y1="157.03" x2="143.96" y2="156.72"/><line class="cls-1" x1="182.52" y1="178.99" x2="181.99" y2="179.29"/><line class="cls-1" x1="181.99" y1="179.29" x2="180.93" y2="179.91"/><line class="cls-1" x1="234" y1="210.55" x2="235.06" y2="209.93"/><line class="cls-1" x1="235.06" y1="209.93" x2="235.6" y2="209.63"/><line class="cls-1" x1="195.44" y1="188.28" x2="196.5" y2="187.67"/><line class="cls-1" x1="196.5" y1="187.67" x2="197.03" y2="187.36"/><line class="cls-1" x1="195.97" y1="183.69" x2="196.5" y2="183.99"/><line class="cls-1" x1="234.53" y1="205.95" x2="235.06" y2="206.26"/><line class="cls-1" x1="181.46" y1="175.31" x2="181.99" y2="175.62"/><line class="cls-1" x1="141.84" y1="152.43" x2="142.9" y2="153.05"/><line class="cls-1" x1="142.9" y1="153.05" x2="143.43" y2="153.35"/><line class="cls-1" x1="143.43" y1="153.35" x2="143.96" y2="153.66"/><line class="cls-1" x1="143.96" y1="153.66" x2="146.08" y2="154.88"/><line class="cls-1" x1="249.04" y1="214.33" x2="249.57" y2="214.63"/><line class="cls-1" x1="288.14" y1="236.9" x2="288.67" y2="237.2"/><line class="cls-1" x1="302.11" y1="244.97" x2="302.64" y2="245.27"/><line class="cls-1" x1="196.5" y1="183.99" x2="197.03" y2="184.3"/><line class="cls-1" x1="197.03" y1="184.3" x2="199.15" y2="185.52"/><line class="cls-1" x1="235.06" y1="206.26" x2="235.6" y2="206.56"/><line class="cls-1" x1="235.6" y1="206.56" x2="237.72" y2="207.79"/><line class="cls-1" x1="181.99" y1="175.62" x2="182.52" y2="175.92"/><line class="cls-1" x1="182.52" y1="175.92" x2="184.64" y2="177.15"/><line class="cls-1" x1="249.57" y1="214.63" x2="250.1" y2="214.94"/><line class="cls-1" x1="250.1" y1="214.94" x2="252.22" y2="216.16"/><line class="cls-1" x1="286.54" y1="235.98" x2="287.6" y2="236.59"/><line class="cls-1" x1="287.6" y1="236.59" x2="288.14" y2="236.9"/><line class="cls-1" x1="302.64" y1="245.27" x2="303.17" y2="245.58"/><line class="cls-1" x1="303.17" y1="245.58" x2="305.29" y2="246.81"/><line class="cls-1" x1="246.34" y1="209.04" x2="244.75" y2="209.96"/><line class="cls-1" x1="245.5" y1="210.04" x2="246.03" y2="209.73"/><line class="cls-1" x1="246.7" y1="209.35" x2="246.03" y2="209.73"/><line class="cls-1" x1="256.78" y1="216.39" x2="255.58" y2="217.08"/><line class="cls-1" x1="256.11" y1="214.33" x2="254.92" y2="215.02"/><line class="cls-1" x1="285.09" y1="231.41" x2="283.49" y2="232.33"/><line class="cls-1" x1="284.24" y1="232.4" x2="284.77" y2="232.1"/><line class="cls-1" x1="285.44" y1="231.72" x2="284.77" y2="232.1"/><line class="cls-1" x1="295.52" y1="238.76" x2="294.33" y2="239.45"/><line class="cls-1" x1="294.86" y1="236.69" x2="293.66" y2="237.38"/><line class="cls-1" x1="299.41" y1="239.68" x2="297.82" y2="240.6"/><line class="cls-1" x1="299.77" y1="239.99" x2="298.57" y2="240.68"/><line class="cls-1" x1="309.85" y1="247.04" x2="308.66" y2="247.73"/><line class="cls-1" x1="309.19" y1="244.97" x2="307.99" y2="245.66"/><line class="cls-1" x1="140.2" y1="147.76" x2="138.61" y2="148.68"/><line class="cls-1" x1="139.36" y1="148.76" x2="140.55" y2="148.07"/><line class="cls-1" x1="150.64" y1="155.11" x2="149.44" y2="155.8"/><line class="cls-1" x1="149.97" y1="153.05" x2="148.78" y2="153.73"/><line class="cls-1" x1="178.94" y1="170.13" x2="177.35" y2="171.05"/><line class="cls-1" x1="178.1" y1="171.12" x2="179.29" y2="170.43"/><line class="cls-1" x1="189.38" y1="177.48" x2="188.19" y2="178.17"/><line class="cls-1" x1="188.72" y1="175.41" x2="187.52" y2="176.1"/><line class="cls-1" x1="193.27" y1="178.4" x2="191.68" y2="179.32"/><line class="cls-1" x1="192.43" y1="179.4" x2="192.96" y2="179.09"/><line class="cls-1" x1="193.62" y1="178.71" x2="192.96" y2="179.09"/><line class="cls-1" x1="203.71" y1="185.75" x2="202.51" y2="186.44"/><line class="cls-1" x1="203.04" y1="183.69" x2="201.85" y2="184.38"/><line class="cls-1" x1="232.01" y1="200.77" x2="230.42" y2="201.69"/><line class="cls-1" x1="232.36" y1="201.07" x2="231.7" y2="201.46"/><line class="cls-1" x1="231.17" y1="201.76" x2="231.7" y2="201.46"/><line class="cls-1" x1="242.45" y1="208.12" x2="241.26" y2="208.81"/><line class="cls-1" x1="241.79" y1="206.05" x2="240.59" y2="206.74"/><polygon class="cls-2" points="324.12 306.13 322.53 307.05 108.65 183.57 108.65 156.2 110.24 155.28 110.24 145.68 111.83 144.76 121.3 150.22 121.3 165.15 121.3 165.24 120.77 165.54 120.77 166.16 122.89 167.38 122.89 152.98 124.48 152.06 136.78 159.16 136.78 169.37 136.25 169.68 136.25 170.29 138.37 171.51 138.37 149.86 138.44 149.46 138.68 149.18 140.27 148.26 140.63 148.19 141.02 148.33 150.05 153.54 150.44 153.85 150.8 154.33 151.03 154.88 151.11 155.38 151.11 166.21 150.58 166.51 150.58 167.13 177.11 182.44 177.11 172.23 177.19 171.82 177.42 171.54 179.01 170.63 179.37 170.56 179.76 170.7 188.79 175.91 189.18 176.22 189.54 176.7 189.77 177.25 189.85 177.75 189.85 200.01 189.32 200.32 189.32 200.93 191.44 202.16 191.44 180.5 191.52 180.1 191.75 179.82 193.34 178.9 193.7 178.83 194.09 178.97 203.12 184.18 203.51 184.49 203.87 184.97 204.1 185.52 204.18 186.02 204.18 196.84 203.65 197.15 203.65 197.76 230.18 213.09 230.18 202.87 230.26 202.46 230.5 202.18 232.09 201.27 232.44 201.2 232.84 201.34 241.86 206.55 242.25 206.86 242.61 207.34 242.85 207.89 242.92 208.39 242.92 230.65 242.39 230.96 242.39 231.57 244.51 232.8 244.51 211.14 244.59 210.74 244.82 210.46 246.42 209.54 246.77 209.47 247.17 209.61 256.19 214.82 256.58 215.13 256.94 215.62 257.18 216.16 257.25 216.66 257.25 227.49 256.72 227.79 256.72 228.41 283.25 243.72 283.25 233.51 283.33 233.1 283.56 232.82 285.16 231.91 285.52 231.84 285.91 231.98 294.93 237.19 295.32 237.5 295.68 237.98 295.92 238.53 295.99 239.03 295.99 261.29 295.46 261.6 295.46 262.21 297.58 263.44 297.58 241.78 297.66 241.38 297.89 241.1 299.49 240.18 299.85 240.11 300.24 240.25 309.26 245.46 309.65 245.77 310.01 246.26 310.25 246.81 310.32 247.3 310.32 258.13 309.79 258.43 309.79 259.05 324.12 267.32 324.12 306.13"/></svg>