<svg id="Layer_1" data-name="Layer 1" xmlns="http://www.w3.org/2000/svg" viewBox="0 0 425.2 425.2"><defs><style>.cls-1,.cls-2{fill:none;stroke:#000;stroke-linecap:round;stroke-linejoin:round;}.cls-1{stroke-width:0.25px;}</style></defs><line class="cls-1" x1="168.3" y1="295.67" x2="159.3" y2="290.48"/><line class="cls-1" x1="255.93" y1="344.61" x2="254.49" y2="345.44"/><line class="cls-1" x1="254.49" y1="345.44" x2="253.06" y2="344.61"/><line class="cls-1" x1="252.94" y1="344.54" x2="252.57" y2="344.33"/><line class="cls-1" x1="250.57" y1="347.7" x2="249.59" y2="348.27"/><line class="cls-1" x1="241.32" y1="353.04" x2="226.45" y2="344.44"/><line class="cls-1" x1="226.45" y1="342.74" x2="212.54" y2="334.72"/><line class="cls-1" x1="212.54" y1="334.15" x2="212.05" y2="333.87"/><line class="cls-1" x1="212.05" y1="333.87" x2="210.09" y2="335"/><line class="cls-1" x1="210.09" y1="335" x2="177.38" y2="316.12"/><line class="cls-1" x1="177.38" y1="314.42" x2="163.47" y2="306.39"/><line class="cls-1" x1="163.47" y1="305.82" x2="162.98" y2="305.54"/><line class="cls-1" x1="162.98" y1="305.54" x2="161.02" y2="306.67"/><line class="cls-1" x1="161.02" y1="306.67" x2="146.14" y2="298.08"/><line class="cls-1" x1="207.88" y1="315.69" x2="205.43" y2="317.11"/><line class="cls-1" x1="205.43" y1="317.11" x2="195.94" y2="311.63"/><line class="cls-1" x1="195.94" y1="311.06" x2="195.45" y2="310.78"/><line class="cls-1" x1="195.45" y1="310.78" x2="193.49" y2="311.91"/><line class="cls-1" x1="202.48" y1="318.81" x2="200.52" y2="319.94"/><line class="cls-1" x1="217.37" y1="324" x2="208.37" y2="318.81"/><line class="cls-1" x1="210.33" y1="315.97" x2="208.37" y2="314.84"/><line class="cls-1" x1="208.37" y1="314.84" x2="207.88" y2="315.12"/><line class="cls-1" x1="170.26" y1="294.54" x2="169.28" y2="293.97"/><line class="cls-1" x1="169.28" y1="293.97" x2="169.28" y2="295.1"/><line class="cls-1" x1="169.28" y1="293.97" x2="168.79" y2="294.26"/><line class="cls-1" x1="168.79" y1="294.26" x2="168.79" y2="295.39"/><line class="cls-1" x1="168.79" y1="294.26" x2="159.3" y2="288.78"/><line class="cls-1" x1="159.3" y1="288.78" x2="159.3" y2="290.48"/><line class="cls-1" x1="172.14" y1="281.37" x2="243.29" y2="322.44"/><line class="cls-1" x1="254.49" y1="343.78" x2="254.49" y2="345.44"/><line class="cls-1" x1="254.45" y1="343.71" x2="253.51" y2="343.17"/><line class="cls-1" x1="241.32" y1="339.25" x2="240.59" y2="339.68"/><line class="cls-1" x1="240.59" y1="339.68" x2="241.32" y2="340.1"/><line class="cls-1" x1="241.32" y1="351.34" x2="241.32" y2="353.04"/><line class="cls-1" x1="241.32" y1="351.34" x2="226.45" y2="342.74"/><line class="cls-1" x1="226.45" y1="342.74" x2="226.45" y2="344.44"/><line class="cls-1" x1="228.41" y1="341.61" x2="227.43" y2="341.05"/><line class="cls-1" x1="227.43" y1="341.05" x2="227.43" y2="342.18"/><line class="cls-1" x1="227.43" y1="341.05" x2="226.94" y2="341.33"/><line class="cls-1" x1="226.94" y1="341.33" x2="226.94" y2="342.46"/><line class="cls-1" x1="226.94" y1="341.33" x2="212.54" y2="333.02"/><line class="cls-1" x1="212.54" y1="333.02" x2="213.03" y2="332.74"/><line class="cls-1" x1="213.03" y1="332.74" x2="212.05" y2="332.17"/><line class="cls-1" x1="212.05" y1="332.17" x2="212.05" y2="333.87"/><line class="cls-1" x1="212.05" y1="332.17" x2="210.09" y2="333.3"/><line class="cls-1" x1="210.09" y1="333.3" x2="210.09" y2="335"/><line class="cls-1" x1="210.09" y1="333.3" x2="177.38" y2="314.42"/><line class="cls-1" x1="177.38" y1="314.42" x2="177.38" y2="316.12"/><line class="cls-1" x1="179.34" y1="313.28" x2="178.36" y2="312.72"/><line class="cls-1" x1="178.36" y1="312.72" x2="178.36" y2="313.85"/><line class="cls-1" x1="178.36" y1="312.72" x2="177.87" y2="313"/><line class="cls-1" x1="177.87" y1="313" x2="177.87" y2="314.14"/><line class="cls-1" x1="177.87" y1="313" x2="163.47" y2="304.69"/><line class="cls-1" x1="163.47" y1="304.69" x2="163.96" y2="304.4"/><line class="cls-1" x1="163.96" y1="304.4" x2="162.98" y2="303.84"/><line class="cls-1" x1="162.98" y1="303.84" x2="162.98" y2="305.54"/><line class="cls-1" x1="162.98" y1="303.84" x2="161.02" y2="304.98"/><line class="cls-1" x1="161.02" y1="304.98" x2="161.02" y2="306.67"/><line class="cls-1" x1="161.02" y1="304.98" x2="146.14" y2="296.38"/><line class="cls-1" x1="146.14" y1="296.38" x2="146.14" y2="298.08"/><line class="cls-1" x1="156.36" y1="290.48" x2="165.85" y2="295.96"/><line class="cls-1" x1="165.85" y1="295.96" x2="165.85" y2="296.52"/><line class="cls-1" x1="165.85" y1="295.96" x2="165.36" y2="296.24"/><line class="cls-1" x1="208.37" y1="314.84" x2="208.37" y2="313.14"/><line class="cls-1" x1="208.37" y1="313.14" x2="207.39" y2="313.71"/><line class="cls-1" x1="207.39" y1="313.71" x2="207.88" y2="313.99"/><line class="cls-1" x1="207.88" y1="313.99" x2="205.43" y2="315.41"/><line class="cls-1" x1="205.43" y1="315.41" x2="205.43" y2="317.11"/><line class="cls-1" x1="205.43" y1="315.41" x2="195.94" y2="309.93"/><line class="cls-1" x1="195.94" y1="309.93" x2="196.43" y2="309.65"/><line class="cls-1" x1="196.43" y1="309.65" x2="195.45" y2="309.08"/><line class="cls-1" x1="195.45" y1="309.08" x2="195.45" y2="310.78"/><line class="cls-1" x1="195.45" y1="309.08" x2="191.52" y2="311.35"/><line class="cls-1" x1="191.52" y1="311.35" x2="192.5" y2="311.91"/><line class="cls-1" x1="192.5" y1="311.91" x2="192.99" y2="311.63"/><line class="cls-1" x1="202.48" y1="317.11" x2="202.48" y2="318.81"/><line class="cls-1" x1="202.48" y1="317.11" x2="200.03" y2="318.52"/><line class="cls-1" x1="200.03" y1="318.52" x2="200.03" y2="319.66"/><line class="cls-1" x1="200.03" y1="318.52" x2="199.54" y2="318.24"/><line class="cls-1" x1="199.54" y1="318.24" x2="199.54" y2="319.38"/><line class="cls-1" x1="199.54" y1="318.24" x2="198.56" y2="318.81"/><line class="cls-1" x1="203.46" y1="320.5" x2="202.97" y2="320.22"/><line class="cls-1" x1="202.97" y1="320.22" x2="202.97" y2="320.79"/><line class="cls-1" x1="202.97" y1="320.22" x2="205.43" y2="318.81"/><line class="cls-1" x1="205.43" y1="318.81" x2="214.91" y2="324.28"/><line class="cls-1" x1="214.91" y1="324.28" x2="214.91" y2="324.85"/><line class="cls-1" x1="214.91" y1="324.28" x2="214.42" y2="324.56"/><line class="cls-1" x1="219.33" y1="322.87" x2="218.35" y2="322.3"/><line class="cls-1" x1="218.35" y1="322.3" x2="218.35" y2="323.44"/><line class="cls-1" x1="218.35" y1="322.3" x2="217.86" y2="322.58"/><line class="cls-1" x1="217.86" y1="322.58" x2="217.86" y2="323.72"/><line class="cls-1" x1="217.86" y1="322.58" x2="208.37" y2="317.11"/><line class="cls-1" x1="208.37" y1="317.11" x2="208.37" y2="318.81"/><line class="cls-1" x1="210.82" y1="315.69" x2="211.31" y2="315.97"/><line class="cls-1" x1="211.31" y1="315.97" x2="212.29" y2="315.41"/><line class="cls-1" x1="212.29" y1="315.41" x2="208.37" y2="313.14"/><line class="cls-1" x1="177.21" y1="113.18" x2="177.7" y2="112.9"/><line class="cls-1" x1="177.7" y1="112.9" x2="168.05" y2="107.33"/><line class="cls-1" x1="168.05" y1="107.33" x2="163.64" y2="109.88"/><line class="cls-1" x1="157.26" y1="125.84" x2="156.77" y2="126.12"/><line class="cls-1" x1="173.94" y1="135.47" x2="173.45" y2="135.75"/><line class="cls-1" x1="206.33" y1="154.17" x2="205.84" y2="154.45"/><line class="cls-1" x1="223.01" y1="163.8" x2="222.52" y2="164.08"/><line class="cls-1" x1="193.9" y1="122.81" x2="194.39" y2="122.53"/><line class="cls-1" x1="194.39" y1="122.53" x2="187.84" y2="118.75"/><line class="cls-1" x1="187.84" y1="118.75" x2="187.36" y2="119.04"/><line class="cls-1" x1="186.37" y1="118.47" x2="186.87" y2="118.19"/><line class="cls-1" x1="226.28" y1="141.51" x2="226.77" y2="141.23"/><line class="cls-1" x1="226.77" y1="141.23" x2="204.53" y2="128.39"/><line class="cls-1" x1="204.53" y1="128.39" x2="204.04" y2="128.67"/><line class="cls-1" x1="203.05" y1="128.1" x2="203.54" y2="127.82"/><line class="cls-1" x1="242.96" y1="151.15" x2="243.45" y2="150.86"/><line class="cls-1" x1="243.45" y1="150.86" x2="236.91" y2="147.09"/><line class="cls-1" x1="236.91" y1="147.09" x2="236.42" y2="147.37"/><line class="cls-1" x1="235.44" y1="146.8" x2="235.93" y2="146.52"/><line class="cls-1" x1="177.7" y1="113.46" x2="177.7" y2="112.9"/><line class="cls-1" x1="156.77" y1="127.82" x2="156.77" y2="126.12"/><line class="cls-1" x1="156.77" y1="127.82" x2="164.95" y2="132.54"/><line class="cls-1" x1="164.95" y1="132.54" x2="164.95" y2="130.84"/><line class="cls-1" x1="173.45" y1="137.45" x2="173.45" y2="135.75"/><line class="cls-1" x1="173.45" y1="137.45" x2="181.63" y2="142.17"/><line class="cls-1" x1="181.63" y1="142.17" x2="181.63" y2="140.48"/><line class="cls-1" x1="205.84" y1="156.15" x2="205.84" y2="154.45"/><line class="cls-1" x1="205.84" y1="156.15" x2="214.01" y2="160.87"/><line class="cls-1" x1="214.01" y1="160.87" x2="214.01" y2="159.17"/><line class="cls-1" x1="222.52" y1="165.78" x2="222.52" y2="164.08"/><line class="cls-1" x1="222.52" y1="165.78" x2="230.69" y2="170.5"/><line class="cls-1" x1="230.69" y1="170.5" x2="230.69" y2="168.8"/><line class="cls-1" x1="243.45" y1="151.43" x2="243.45" y2="150.86"/><line class="cls-1" x1="226.77" y1="141.8" x2="226.77" y2="141.23"/><line class="cls-1" x1="194.39" y1="123.1" x2="194.39" y2="122.53"/><line class="cls-1" x1="156.4" y1="290.45" x2="156.4" y2="288.66"/><line class="cls-1" x1="156.4" y1="288.66" x2="155.91" y2="288.94"/><line class="cls-1" x1="159.75" y1="285.69" x2="159.75" y2="286.72"/><line class="cls-1" x1="159.75" y1="286.72" x2="159.26" y2="287.01"/><line class="cls-1" x1="159.26" y1="287.01" x2="159.26" y2="288.8"/><line class="cls-1" x1="161.75" y1="287.36" x2="161.75" y2="286.8"/><line class="cls-1" x1="161.75" y1="286.8" x2="162.74" y2="286.23"/><line class="cls-1" x1="162.74" y1="286.23" x2="162.74" y2="286.8"/><line class="cls-1" x1="172.14" y1="281.37" x2="172.14" y2="258.98"/><line class="cls-1" x1="172.14" y1="258.98" x2="167.56" y2="261.63"/><line class="cls-1" x1="167.56" y1="261.63" x2="167.56" y2="260.49"/><line class="cls-1" x1="167.56" y1="260.49" x2="168.05" y2="260.21"/><line class="cls-1" x1="168.05" y1="259.08" x2="167.56" y2="259.36"/><line class="cls-1" x1="167.56" y1="258.23" x2="168.05" y2="257.94"/><line class="cls-1" x1="168.05" y1="256.25" x2="167.56" y2="256.53"/><line class="cls-1" x1="167.56" y1="255.39" x2="168.05" y2="255.11"/><line class="cls-1" x1="168.05" y1="253.98" x2="167.56" y2="254.26"/><line class="cls-1" x1="167.56" y1="253.13" x2="172.14" y2="250.49"/><line class="cls-1" x1="172.14" y1="250.49" x2="172.14" y2="202.32"/><line class="cls-1" x1="172.14" y1="202.32" x2="167.56" y2="204.97"/><line class="cls-1" x1="167.56" y1="204.97" x2="167.56" y2="203.83"/><line class="cls-1" x1="167.56" y1="203.83" x2="168.05" y2="203.55"/><line class="cls-1" x1="168.05" y1="202.42" x2="167.56" y2="202.71"/><line class="cls-1" x1="167.56" y1="201.57" x2="168.05" y2="201.29"/><line class="cls-1" x1="168.05" y1="199.59" x2="167.56" y2="199.87"/><line class="cls-1" x1="167.56" y1="198.74" x2="168.05" y2="198.45"/><line class="cls-1" x1="168.05" y1="197.32" x2="167.56" y2="197.61"/><line class="cls-1" x1="167.56" y1="196.47" x2="172.14" y2="193.83"/><line class="cls-1" x1="172.14" y1="193.83" x2="172.14" y2="145.67"/><line class="cls-1" x1="172.14" y1="145.67" x2="167.56" y2="148.31"/><line class="cls-1" x1="167.56" y1="148.31" x2="167.56" y2="147.18"/><line class="cls-1" x1="167.56" y1="147.18" x2="168.05" y2="146.9"/><line class="cls-1" x1="168.05" y1="145.76" x2="167.56" y2="146.05"/><line class="cls-1" x1="167.56" y1="144.91" x2="168.05" y2="144.63"/><line class="cls-1" x1="168.05" y1="142.93" x2="167.56" y2="143.21"/><line class="cls-1" x1="167.56" y1="142.08" x2="168.05" y2="141.8"/><line class="cls-1" x1="168.05" y1="140.66" x2="167.56" y2="140.95"/><line class="cls-1" x1="167.56" y1="139.81" x2="172.14" y2="137.17"/><line class="cls-1" x1="172.14" y1="137.17" x2="172.14" y2="136.7"/><line class="cls-1" x1="172.14" y1="87.78" x2="172.14" y2="84.76"/><line class="cls-1" x1="162.74" y1="90.19" x2="162.74" y2="92.45"/><line class="cls-1" x1="162.74" y1="92.45" x2="161.75" y2="93.02"/><line class="cls-1" x1="161.75" y1="93.02" x2="161.75" y2="92.45"/><line class="cls-1" x1="161.75" y1="92.45" x2="159.26" y2="93.89"/><line class="cls-1" x1="159.26" y1="93.89" x2="159.26" y2="95.69"/><line class="cls-1" x1="159.26" y1="95.69" x2="159.75" y2="95.4"/><line class="cls-1" x1="159.75" y1="95.4" x2="159.75" y2="96.44"/><line class="cls-1" x1="159.75" y1="96.44" x2="155.91" y2="98.67"/><line class="cls-1" x1="155.91" y1="98.67" x2="155.91" y2="97.63"/><line class="cls-1" x1="155.91" y1="97.63" x2="156.4" y2="97.34"/><line class="cls-1" x1="156.4" y1="95.55" x2="153.91" y2="96.99"/><line class="cls-1" x1="153.91" y1="96.99" x2="153.91" y2="97.55"/><line class="cls-1" x1="153.91" y1="97.55" x2="152.92" y2="98.12"/><line class="cls-1" x1="146.14" y1="109.22" x2="146.63" y2="108.93"/><line class="cls-1" x1="148.1" y1="151.05" x2="148.1" y2="152.19"/><line class="cls-1" x1="148.1" y1="152.19" x2="147.61" y2="152.47"/><line class="cls-1" x1="147.61" y1="152.47" x2="147.61" y2="153.6"/><line class="cls-1" x1="147.61" y1="153.6" x2="148.1" y2="153.31"/><line class="cls-1" x1="148.1" y1="153.31" x2="148.1" y2="154.45"/><line class="cls-1" x1="148.1" y1="154.45" x2="147.61" y2="154.73"/><line class="cls-1" x1="147.61" y1="154.73" x2="147.61" y2="156.43"/><line class="cls-1" x1="147.61" y1="156.43" x2="148.1" y2="156.15"/><line class="cls-1" x1="148.1" y1="156.15" x2="148.1" y2="157.28"/><line class="cls-1" x1="148.1" y1="157.28" x2="147.61" y2="157.57"/><line class="cls-1" x1="147.61" y1="157.57" x2="147.61" y2="158.7"/><line class="cls-1" x1="147.61" y1="158.7" x2="148.1" y2="158.41"/><line class="cls-1" x1="148.1" y1="158.41" x2="148.1" y2="159.55"/><line class="cls-1" x1="148.1" y1="159.55" x2="146.14" y2="160.68"/><line class="cls-1" x1="146.14" y1="160.68" x2="146.14" y2="208.84"/><line class="cls-1" x1="148.1" y1="207.71" x2="148.1" y2="208.84"/><line class="cls-1" x1="148.1" y1="208.84" x2="147.61" y2="209.12"/><line class="cls-1" x1="147.61" y1="209.12" x2="147.61" y2="210.26"/><line class="cls-1" x1="147.61" y1="210.26" x2="148.1" y2="209.97"/><line class="cls-1" x1="148.1" y1="209.97" x2="148.1" y2="211.11"/><line class="cls-1" x1="148.1" y1="211.11" x2="147.61" y2="211.39"/><line class="cls-1" x1="147.61" y1="211.39" x2="147.61" y2="213.09"/><line class="cls-1" x1="147.61" y1="213.09" x2="148.1" y2="212.81"/><line class="cls-1" x1="148.1" y1="212.81" x2="148.1" y2="213.94"/><line class="cls-1" x1="148.1" y1="213.94" x2="147.61" y2="214.22"/><line class="cls-1" x1="147.61" y1="214.22" x2="147.61" y2="215.36"/><line class="cls-1" x1="147.61" y1="215.36" x2="148.1" y2="215.07"/><line class="cls-1" x1="148.1" y1="215.07" x2="148.1" y2="216.21"/><line class="cls-1" x1="148.1" y1="216.21" x2="146.14" y2="217.34"/><line class="cls-1" x1="146.14" y1="217.34" x2="146.14" y2="265.5"/><line class="cls-1" x1="148.1" y1="264.37" x2="148.1" y2="265.5"/><line class="cls-1" x1="148.1" y1="265.5" x2="147.61" y2="265.78"/><line class="cls-1" x1="147.61" y1="265.78" x2="147.61" y2="266.92"/><line class="cls-1" x1="147.61" y1="266.92" x2="148.1" y2="266.64"/><line class="cls-1" x1="148.1" y1="266.64" x2="148.1" y2="267.77"/><line class="cls-1" x1="148.1" y1="267.77" x2="147.61" y2="268.05"/><line class="cls-1" x1="147.61" y1="268.05" x2="147.61" y2="269.75"/><line class="cls-1" x1="147.61" y1="269.75" x2="148.1" y2="269.47"/><line class="cls-1" x1="148.1" y1="269.47" x2="148.1" y2="270.6"/><line class="cls-1" x1="148.1" y1="270.6" x2="147.61" y2="270.88"/><line class="cls-1" x1="147.61" y1="270.88" x2="147.61" y2="272.02"/><line class="cls-1" x1="147.61" y1="272.02" x2="148.1" y2="271.74"/><line class="cls-1" x1="148.1" y1="271.74" x2="148.1" y2="272.87"/><line class="cls-1" x1="148.1" y1="272.87" x2="146.14" y2="274"/><line class="cls-1" x1="152.92" y1="292.46" x2="152.92" y2="291.9"/><line class="cls-1" x1="153.91" y1="291.32" x2="153.91" y2="291.9"/><line class="cls-1" x1="168.05" y1="97.69" x2="167.56" y2="97.98"/><line class="cls-1" x1="168.05" y1="106.01" x2="167.56" y2="106.29"/><line class="cls-1" x1="167.56" y1="105.16" x2="168.05" y2="104.87"/><line class="cls-1" x1="168.05" y1="104.87" x2="168.05" y2="97.69"/><line class="cls-1" x1="144.67" y1="151.33" x2="146.14" y2="152.19"/><line class="cls-1" x1="146.14" y1="118.66" x2="144.67" y2="117.81"/><line class="cls-1" x1="144.67" y1="117.81" x2="144.67" y2="151.33"/><line class="cls-1" x1="146.14" y1="109.22" x2="144.67" y2="108.36"/><line class="cls-1" x1="146.14" y1="99.77" x2="144.67" y2="98.92"/><line class="cls-1" x1="144.67" y1="98.92" x2="144.67" y2="108.36"/><line class="cls-1" x1="152.92" y1="95.85" x2="151.45" y2="95"/><line class="cls-1" x1="151.45" y1="95" x2="144.67" y2="98.92"/><line class="cls-1" x1="153.91" y1="97.55" x2="152.92" y2="96.99"/><line class="cls-1" x1="153.91" y1="96.99" x2="152.92" y2="96.42"/><line class="cls-1" x1="157.79" y1="93.04" x2="159.26" y2="93.89"/><line class="cls-1" x1="160.28" y1="91.61" x2="157.79" y2="93.04"/><line class="cls-1" x1="162.74" y1="92.45" x2="161.26" y2="91.61"/><line class="cls-1" x1="161.26" y1="91.61" x2="160.77" y2="91.89"/><line class="cls-1" x1="162.74" y1="90.19" x2="161.26" y2="89.34"/><line class="cls-1" x1="161.26" y1="89.34" x2="161.26" y2="91.61"/><line class="cls-1" x1="172.14" y1="84.76" x2="170.67" y2="83.91"/><line class="cls-1" x1="170.67" y1="83.91" x2="161.26" y2="89.34"/><line class="cls-1" x1="168.05" y1="140.66" x2="167.56" y2="140.38"/><line class="cls-1" x1="167.56" y1="142.36" x2="168.79" y2="141.66"/><line class="cls-1" x1="168.79" y1="141.66" x2="168.05" y2="141.23"/><line class="cls-1" x1="168.05" y1="142.93" x2="167.56" y2="142.64"/><line class="cls-1" x1="168.79" y1="141.66" x2="168.79" y2="143.35"/><line class="cls-1" x1="168.79" y1="143.35" x2="168.05" y2="143.78"/><line class="cls-1" x1="168.05" y1="145.76" x2="167.56" y2="145.48"/><line class="cls-1" x1="172.14" y1="145.67" x2="170.67" y2="144.82"/><line class="cls-1" x1="170.67" y1="144.82" x2="168.05" y2="146.33"/><line class="cls-1" x1="168.05" y1="197.32" x2="167.56" y2="197.04"/><line class="cls-1" x1="167.56" y1="199.02" x2="168.79" y2="198.31"/><line class="cls-1" x1="168.79" y1="198.31" x2="168.05" y2="197.89"/><line class="cls-1" x1="168.05" y1="199.59" x2="167.56" y2="199.3"/><line class="cls-1" x1="168.79" y1="198.31" x2="168.79" y2="200.02"/><line class="cls-1" x1="168.79" y1="200.02" x2="168.05" y2="200.44"/><line class="cls-1" x1="168.05" y1="202.42" x2="167.56" y2="202.14"/><line class="cls-1" x1="172.14" y1="202.32" x2="170.67" y2="201.48"/><line class="cls-1" x1="170.67" y1="201.48" x2="168.05" y2="202.99"/><line class="cls-1" x1="168.05" y1="253.98" x2="167.56" y2="253.7"/><line class="cls-1" x1="167.56" y1="255.68" x2="168.79" y2="254.97"/><line class="cls-1" x1="168.79" y1="254.97" x2="168.05" y2="254.55"/><line class="cls-1" x1="168.05" y1="256.25" x2="167.56" y2="255.96"/><line class="cls-1" x1="168.79" y1="254.97" x2="168.79" y2="256.67"/><line class="cls-1" x1="168.79" y1="256.67" x2="168.05" y2="257.1"/><line class="cls-1" x1="168.05" y1="259.08" x2="167.56" y2="258.8"/><line class="cls-1" x1="172.14" y1="258.98" x2="170.67" y2="258.13"/><line class="cls-1" x1="170.67" y1="258.13" x2="168.05" y2="259.65"/><line class="cls-1" x1="159.26" y1="288.8" x2="157.79" y2="287.95"/><line class="cls-1" x1="152.82" y1="291.27" x2="152.83" y2="291.27"/><line class="cls-1" x1="153.41" y1="291.61" x2="153.91" y2="291.9"/><line class="cls-1" x1="146.14" y1="298.08" x2="144.67" y2="297.23"/><line class="cls-1" x1="146.14" y1="274" x2="144.67" y2="273.15"/><line class="cls-1" x1="144.67" y1="273.15" x2="144.67" y2="297.23"/><line class="cls-1" x1="148.1" y1="272.87" x2="146.63" y2="272.02"/><line class="cls-1" x1="146.63" y1="272.02" x2="144.67" y2="273.15"/><line class="cls-1" x1="146.63" y1="271.45" x2="146.63" y2="272.02"/><line class="cls-1" x1="146.14" y1="270.03" x2="146.14" y2="271.17"/><line class="cls-1" x1="148.1" y1="270.6" x2="146.63" y2="269.75"/><line class="cls-1" x1="146.63" y1="269.75" x2="146.14" y2="270.03"/><line class="cls-1" x1="146.63" y1="269.47" x2="146.63" y2="269.75"/><line class="cls-1" x1="145.4" y1="270.17" x2="144.67" y2="269.75"/><line class="cls-1" x1="147.61" y1="269.75" x2="146.87" y2="269.33"/><line class="cls-1" x1="145.4" y1="270.17" x2="145.4" y2="268.47"/><line class="cls-1" x1="145.4" y1="268.47" x2="144.67" y2="268.05"/><line class="cls-1" x1="144.67" y1="268.05" x2="144.67" y2="269.75"/><line class="cls-1" x1="146.87" y1="267.63" x2="147.61" y2="268.05"/><line class="cls-1" x1="148.1" y1="267.77" x2="146.63" y2="266.92"/><line class="cls-1" x1="146.63" y1="266.92" x2="144.67" y2="268.05"/><line class="cls-1" x1="145.4" y1="268.47" x2="146.87" y2="267.63"/><line class="cls-1" x1="146.63" y1="266.35" x2="146.63" y2="266.92"/><line class="cls-1" x1="147.61" y1="265.78" x2="146.63" y2="265.22"/><line class="cls-1" x1="146.14" y1="265.5" x2="146.14" y2="266.06"/><line class="cls-1" x1="148.1" y1="265.5" x2="147.12" y2="264.94"/><line class="cls-1" x1="146.14" y1="265.5" x2="144.67" y2="264.65"/><line class="cls-1" x1="146.14" y1="217.34" x2="144.67" y2="216.49"/><line class="cls-1" x1="144.67" y1="216.49" x2="144.67" y2="264.65"/><line class="cls-1" x1="148.1" y1="216.21" x2="146.63" y2="215.36"/><line class="cls-1" x1="146.63" y1="215.36" x2="144.67" y2="216.49"/><line class="cls-1" x1="146.63" y1="214.79" x2="146.63" y2="215.36"/><line class="cls-1" x1="146.14" y1="213.38" x2="146.14" y2="214.51"/><line class="cls-1" x1="148.1" y1="213.94" x2="146.63" y2="213.09"/><line class="cls-1" x1="146.63" y1="213.09" x2="146.14" y2="213.38"/><line class="cls-1" x1="146.63" y1="212.81" x2="146.63" y2="213.09"/><line class="cls-1" x1="145.4" y1="213.52" x2="144.67" y2="213.09"/><line class="cls-1" x1="147.61" y1="213.09" x2="146.87" y2="212.67"/><line class="cls-1" x1="145.4" y1="213.52" x2="145.4" y2="211.81"/><line class="cls-1" x1="145.4" y1="211.81" x2="144.67" y2="211.39"/><line class="cls-1" x1="144.67" y1="211.39" x2="144.67" y2="213.09"/><line class="cls-1" x1="146.87" y1="210.97" x2="147.61" y2="211.39"/><line class="cls-1" x1="148.1" y1="211.11" x2="146.63" y2="210.26"/><line class="cls-1" x1="146.63" y1="210.26" x2="144.67" y2="211.39"/><line class="cls-1" x1="145.4" y1="211.81" x2="146.87" y2="210.97"/><line class="cls-1" x1="146.63" y1="209.69" x2="146.63" y2="210.26"/><line class="cls-1" x1="147.61" y1="209.12" x2="146.63" y2="208.56"/><line class="cls-1" x1="146.14" y1="208.84" x2="146.14" y2="209.41"/><line class="cls-1" x1="148.1" y1="208.84" x2="147.12" y2="208.28"/><line class="cls-1" x1="146.14" y1="208.84" x2="144.67" y2="207.99"/><line class="cls-1" x1="146.14" y1="160.68" x2="144.67" y2="159.83"/><line class="cls-1" x1="144.67" y1="159.83" x2="144.67" y2="207.99"/><line class="cls-1" x1="148.1" y1="159.55" x2="146.63" y2="158.7"/><line class="cls-1" x1="146.63" y1="158.7" x2="144.67" y2="159.83"/><line class="cls-1" x1="146.63" y1="158.13" x2="146.63" y2="158.7"/><line class="cls-1" x1="146.14" y1="156.72" x2="146.14" y2="157.85"/><line class="cls-1" x1="148.1" y1="157.28" x2="146.63" y2="156.43"/><line class="cls-1" x1="146.63" y1="156.43" x2="146.14" y2="156.72"/><line class="cls-1" x1="146.63" y1="156.15" x2="146.63" y2="156.43"/><line class="cls-1" x1="145.4" y1="156.86" x2="144.67" y2="156.43"/><line class="cls-1" x1="147.61" y1="156.43" x2="146.87" y2="156"/><line class="cls-1" x1="145.4" y1="156.86" x2="145.4" y2="155.16"/><line class="cls-1" x1="145.4" y1="155.16" x2="144.67" y2="154.73"/><line class="cls-1" x1="144.67" y1="154.73" x2="144.67" y2="156.43"/><line class="cls-1" x1="146.87" y1="154.31" x2="147.61" y2="154.73"/><line class="cls-1" x1="148.1" y1="154.45" x2="146.63" y2="153.6"/><line class="cls-1" x1="146.63" y1="153.6" x2="144.67" y2="154.73"/><line class="cls-1" x1="145.4" y1="155.16" x2="146.87" y2="154.31"/><line class="cls-1" x1="146.63" y1="153.03" x2="146.63" y2="153.6"/><line class="cls-1" x1="147.61" y1="152.47" x2="146.63" y2="151.9"/><line class="cls-1" x1="146.14" y1="152.19" x2="146.14" y2="152.75"/><line class="cls-1" x1="148.1" y1="152.19" x2="147.12" y2="151.62"/><line class="cls-1" x1="168.05" y1="97.69" x2="167.56" y2="97.41"/><line class="cls-1" x1="152.92" y1="95.85" x2="154.93" y2="94.7"/><line class="cls-1" x1="156.4" y1="96.68" x2="158.28" y2="95.59"/><line class="cls-1" x1="158.28" y1="95.59" x2="158.28" y2="95.12"/><line class="cls-1" x1="157.79" y1="94.84" x2="157.79" y2="93.04"/><line class="cls-1" x1="157.79" y1="287.95" x2="157.79" y2="286.82"/><line class="cls-1" x1="146.87" y1="154.31" x2="146.87" y2="156"/><line class="cls-1" x1="146.87" y1="210.97" x2="146.87" y2="212.67"/><line class="cls-1" x1="146.87" y1="267.63" x2="146.87" y2="269.33"/><line class="cls-1" x1="156.4" y1="95.55" x2="154.93" y2="94.7"/><line class="cls-1" x1="159.75" y1="96.44" x2="158.28" y2="95.59"/><line class="cls-1" x1="159.26" y1="287.01" x2="158.36" y2="286.49"/><line class="cls-1" x1="159.75" y1="286.72" x2="158.85" y2="286.2"/><line class="cls-1" x1="156.4" y1="288.66" x2="155.91" y2="288.38"/><line class="cls-1" x1="241.32" y1="328.96" x2="243.29" y2="327.83"/><line class="cls-1" x1="243.29" y1="327.83" x2="243.29" y2="327.26"/><line class="cls-1" x1="242.8" y1="326.97" x2="242.8" y2="326.41"/><line class="cls-1" x1="242.8" y1="323.86" x2="242.8" y2="323.01"/><line class="cls-1" x1="242.8" y1="323.01" x2="243.29" y2="322.73"/><line class="cls-1" x1="242.8" y1="321.87" x2="242.8" y2="321.31"/><line class="cls-1" x1="241.32" y1="320.46" x2="241.32" y2="272.3"/><line class="cls-1" x1="241.32" y1="272.3" x2="243.29" y2="271.17"/><line class="cls-1" x1="243.29" y1="271.17" x2="243.29" y2="270.6"/><line class="cls-1" x1="242.8" y1="270.32" x2="242.8" y2="269.75"/><line class="cls-1" x1="242.8" y1="267.2" x2="242.8" y2="266.35"/><line class="cls-1" x1="242.8" y1="266.35" x2="243.29" y2="266.06"/><line class="cls-1" x1="243.29" y1="266.06" x2="243.29" y2="265.5"/><line class="cls-1" x1="242.8" y1="265.22" x2="242.8" y2="264.65"/><line class="cls-1" x1="241.32" y1="263.8" x2="241.32" y2="215.64"/><line class="cls-1" x1="241.32" y1="215.64" x2="243.29" y2="214.51"/><line class="cls-1" x1="243.29" y1="214.51" x2="243.29" y2="213.94"/><line class="cls-1" x1="242.8" y1="213.66" x2="242.8" y2="213.09"/><line class="cls-1" x1="242.8" y1="210.54" x2="242.8" y2="209.69"/><line class="cls-1" x1="242.8" y1="209.69" x2="243.29" y2="209.41"/><line class="cls-1" x1="243.29" y1="209.41" x2="243.29" y2="208.84"/><line class="cls-1" x1="242.8" y1="208.56" x2="242.8" y2="207.99"/><line class="cls-1" x1="249.59" y1="151.66" x2="251.59" y2="150.51"/><line class="cls-1" x1="253.06" y1="152.49" x2="254.94" y2="151.4"/><line class="cls-1" x1="254.94" y1="151.4" x2="254.94" y2="150.93"/><line class="cls-1" x1="254.45" y1="150.65" x2="254.45" y2="148.86"/><line class="cls-1" x1="254.45" y1="148.86" x2="256.95" y2="147.41"/><line class="cls-1" x1="264.72" y1="202.14" x2="267.34" y2="200.63"/><line class="cls-1" x1="264.72" y1="258.8" x2="267.34" y2="257.29"/><line class="cls-1" x1="264.72" y1="315.46" x2="267.34" y2="313.94"/><line class="cls-1" x1="241.32" y1="207.14" x2="242.8" y2="207.99"/><line class="cls-1" x1="242.8" y1="207.99" x2="242.8" y2="174.47"/><line class="cls-1" x1="242.8" y1="174.47" x2="241.32" y2="173.62"/><line class="cls-1" x1="244.76" y1="172.21" x2="244.27" y2="172.49"/><line class="cls-1" x1="244.27" y1="172.49" x2="244.27" y2="165.31"/><line class="cls-1" x1="244.27" y1="165.31" x2="244.76" y2="165.02"/><line class="cls-1" x1="244.76" y1="165.02" x2="244.27" y2="164.74"/><line class="cls-1" x1="244.76" y1="165.02" x2="244.76" y2="163.89"/><line class="cls-1" x1="242.8" y1="165.02" x2="241.32" y2="164.18"/><line class="cls-1" x1="242.8" y1="165.02" x2="242.8" y2="155.58"/><line class="cls-1" x1="242.8" y1="155.58" x2="241.32" y2="154.73"/><line class="cls-1" x1="242.8" y1="155.58" x2="249.59" y2="151.66"/><line class="cls-1" x1="249.59" y1="151.66" x2="248.12" y2="150.81"/><line class="cls-1" x1="249.59" y1="153.93" x2="250.57" y2="153.36"/><line class="cls-1" x1="250.57" y1="153.36" x2="249.59" y2="152.8"/><line class="cls-1" x1="250.57" y1="153.36" x2="250.57" y2="152.8"/><line class="cls-1" x1="250.57" y1="152.8" x2="249.59" y2="152.23"/><line class="cls-1" x1="254.45" y1="148.86" x2="255.93" y2="149.7"/><line class="cls-1" x1="255.93" y1="149.7" x2="258.42" y2="148.27"/><line class="cls-1" x1="258.42" y1="148.27" x2="258.42" y2="148.83"/><line class="cls-1" x1="258.42" y1="148.83" x2="259.4" y2="148.27"/><line class="cls-1" x1="259.4" y1="148.27" x2="257.93" y2="147.41"/><line class="cls-1" x1="259.4" y1="148.27" x2="259.4" y2="146"/><line class="cls-1" x1="259.4" y1="146" x2="257.93" y2="145.15"/><line class="cls-1" x1="259.4" y1="146" x2="268.81" y2="140.57"/><line class="cls-1" x1="268.81" y1="140.57" x2="267.34" y2="139.72"/><line class="cls-1" x1="268.81" y1="140.57" x2="268.81" y2="192.98"/><line class="cls-1" x1="268.81" y1="192.98" x2="264.23" y2="195.62"/><line class="cls-1" x1="264.23" y1="196.75" x2="264.72" y2="196.47"/><line class="cls-1" x1="264.72" y1="196.47" x2="264.23" y2="196.19"/><line class="cls-1" x1="264.72" y1="196.47" x2="264.72" y2="197.61"/><line class="cls-1" x1="264.72" y1="197.61" x2="264.23" y2="197.89"/><line class="cls-1" x1="265.45" y1="197.47" x2="264.23" y2="198.17"/><line class="cls-1" x1="264.23" y1="199.02" x2="266.19" y2="197.89"/><line class="cls-1" x1="266.19" y1="197.89" x2="265.45" y2="197.47"/><line class="cls-1" x1="266.19" y1="197.89" x2="266.19" y2="199.59"/><line class="cls-1" x1="266.19" y1="199.59" x2="264.23" y2="200.72"/><line class="cls-1" x1="264.23" y1="201.85" x2="264.72" y2="201.57"/><line class="cls-1" x1="264.72" y1="201.57" x2="264.23" y2="201.29"/><line class="cls-1" x1="264.72" y1="202.71" x2="264.23" y2="202.99"/><line class="cls-1" x1="264.23" y1="202.99" x2="264.23" y2="204.12"/><line class="cls-1" x1="264.23" y1="204.12" x2="268.81" y2="201.48"/><line class="cls-1" x1="268.81" y1="201.48" x2="267.34" y2="200.63"/><line class="cls-1" x1="268.81" y1="201.48" x2="268.81" y2="249.64"/><line class="cls-1" x1="268.81" y1="249.64" x2="264.23" y2="252.28"/><line class="cls-1" x1="264.23" y1="253.41" x2="264.72" y2="253.13"/><line class="cls-1" x1="264.72" y1="253.13" x2="264.23" y2="252.84"/><line class="cls-1" x1="264.72" y1="253.13" x2="264.72" y2="254.26"/><line class="cls-1" x1="264.72" y1="254.26" x2="264.23" y2="254.55"/><line class="cls-1" x1="265.45" y1="254.12" x2="264.23" y2="254.83"/><line class="cls-1" x1="264.23" y1="255.68" x2="266.19" y2="254.55"/><line class="cls-1" x1="266.19" y1="254.55" x2="265.45" y2="254.12"/><line class="cls-1" x1="266.19" y1="254.55" x2="266.19" y2="256.25"/><line class="cls-1" x1="266.19" y1="256.25" x2="264.23" y2="257.38"/><line class="cls-1" x1="264.23" y1="258.52" x2="264.72" y2="258.23"/><line class="cls-1" x1="264.72" y1="258.23" x2="264.23" y2="257.94"/><line class="cls-1" x1="264.72" y1="259.36" x2="264.23" y2="259.65"/><line class="cls-1" x1="264.23" y1="259.65" x2="264.23" y2="260.78"/><line class="cls-1" x1="264.23" y1="260.78" x2="268.81" y2="258.13"/><line class="cls-1" x1="268.81" y1="258.13" x2="267.34" y2="257.29"/><line class="cls-1" x1="268.81" y1="258.13" x2="268.81" y2="306.3"/><line class="cls-1" x1="268.81" y1="306.3" x2="264.23" y2="308.94"/><line class="cls-1" x1="264.23" y1="310.08" x2="264.72" y2="309.79"/><line class="cls-1" x1="264.72" y1="309.79" x2="264.23" y2="309.51"/><line class="cls-1" x1="264.72" y1="309.79" x2="264.72" y2="310.92"/><line class="cls-1" x1="264.72" y1="310.92" x2="264.23" y2="311.2"/><line class="cls-1" x1="265.45" y1="310.78" x2="264.23" y2="311.49"/><line class="cls-1" x1="264.23" y1="312.34" x2="266.19" y2="311.2"/><line class="cls-1" x1="266.19" y1="311.2" x2="265.45" y2="310.78"/><line class="cls-1" x1="266.19" y1="311.2" x2="266.19" y2="312.91"/><line class="cls-1" x1="266.19" y1="312.91" x2="264.23" y2="314.04"/><line class="cls-1" x1="264.23" y1="315.17" x2="264.72" y2="314.89"/><line class="cls-1" x1="264.72" y1="314.89" x2="264.23" y2="314.61"/><line class="cls-1" x1="264.72" y1="316.02" x2="264.23" y2="316.3"/><line class="cls-1" x1="264.23" y1="316.3" x2="264.23" y2="317.44"/><line class="cls-1" x1="264.23" y1="317.44" x2="268.81" y2="314.79"/><line class="cls-1" x1="268.81" y1="314.79" x2="267.34" y2="313.94"/><line class="cls-1" x1="268.81" y1="314.79" x2="268.81" y2="338.87"/><line class="cls-1" x1="259.4" y1="344.3" x2="257.93" y2="343.46"/><line class="cls-1" x1="268.81" y1="338.87" x2="259.4" y2="344.3"/><line class="cls-1" x1="259.4" y1="344.3" x2="259.4" y2="342.04"/><line class="cls-1" x1="259.4" y1="342.04" x2="258.42" y2="342.6"/><line class="cls-1" x1="258.42" y1="342.6" x2="258.42" y2="343.17"/><line class="cls-1" x1="250.08" y1="347.42" x2="250.57" y2="347.7"/><line class="cls-1" x1="250.57" y1="347.7" x2="250.57" y2="347.14"/><line class="cls-1" x1="249.59" y1="349.97" x2="242.8" y2="353.89"/><line class="cls-1" x1="242.8" y1="353.89" x2="241.32" y2="353.04"/><line class="cls-1" x1="242.8" y1="353.89" x2="242.8" y2="329.81"/><line class="cls-1" x1="242.8" y1="329.81" x2="241.32" y2="328.96"/><line class="cls-1" x1="242.8" y1="329.81" x2="244.76" y2="328.68"/><line class="cls-1" x1="244.76" y1="328.68" x2="243.29" y2="327.83"/><line class="cls-1" x1="244.76" y1="328.68" x2="244.76" y2="327.54"/><line class="cls-1" x1="244.76" y1="327.54" x2="244.27" y2="327.83"/><line class="cls-1" x1="244.27" y1="327.83" x2="244.27" y2="326.69"/><line class="cls-1" x1="244.27" y1="326.69" x2="244.76" y2="326.41"/><line class="cls-1" x1="244.76" y1="326.41" x2="243.78" y2="325.84"/><line class="cls-1" x1="244.76" y1="326.41" x2="244.76" y2="325.28"/><line class="cls-1" x1="242.8" y1="326.41" x2="242.06" y2="325.99"/><line class="cls-1" x1="242.8" y1="326.41" x2="242.8" y2="324.71"/><line class="cls-1" x1="242.8" y1="324.71" x2="242.06" y2="324.28"/><line class="cls-1" x1="242.06" y1="324.28" x2="242.06" y2="325.99"/><line class="cls-1" x1="242.8" y1="323.01" x2="243.53" y2="323.44"/><line class="cls-1" x1="242.8" y1="324.71" x2="244.76" y2="323.58"/><line class="cls-1" x1="244.76" y1="323.58" x2="243.29" y2="322.73"/><line class="cls-1" x1="244.76" y1="323.58" x2="244.76" y2="322.44"/><line class="cls-1" x1="244.76" y1="322.44" x2="244.27" y2="322.73"/><line class="cls-1" x1="244.27" y1="322.73" x2="244.27" y2="321.59"/><line class="cls-1" x1="244.27" y1="321.59" x2="243.29" y2="321.03"/><line class="cls-1" x1="244.27" y1="321.59" x2="244.76" y2="321.31"/><line class="cls-1" x1="244.76" y1="321.31" x2="243.78" y2="320.75"/><line class="cls-1" x1="244.76" y1="321.31" x2="244.76" y2="320.18"/><line class="cls-1" x1="242.8" y1="321.31" x2="241.32" y2="320.46"/><line class="cls-1" x1="242.8" y1="321.31" x2="242.8" y2="273.15"/><line class="cls-1" x1="242.8" y1="273.15" x2="241.32" y2="272.3"/><line class="cls-1" x1="242.8" y1="273.15" x2="244.76" y2="272.02"/><line class="cls-1" x1="244.76" y1="272.02" x2="243.29" y2="271.17"/><line class="cls-1" x1="244.76" y1="272.02" x2="244.76" y2="270.88"/><line class="cls-1" x1="244.76" y1="270.88" x2="244.27" y2="271.17"/><line class="cls-1" x1="244.27" y1="271.17" x2="244.27" y2="270.03"/><line class="cls-1" x1="244.27" y1="270.03" x2="244.76" y2="269.75"/><line class="cls-1" x1="244.76" y1="269.75" x2="243.78" y2="269.19"/><line class="cls-1" x1="244.76" y1="269.75" x2="244.76" y2="268.61"/><line class="cls-1" x1="242.8" y1="269.75" x2="242.06" y2="269.33"/><line class="cls-1" x1="242.8" y1="269.75" x2="242.8" y2="268.05"/><line class="cls-1" x1="242.8" y1="268.05" x2="242.06" y2="267.63"/><line class="cls-1" x1="242.06" y1="267.63" x2="242.06" y2="269.33"/><line class="cls-1" x1="242.8" y1="266.35" x2="243.53" y2="266.78"/><line class="cls-1" x1="242.8" y1="268.05" x2="244.76" y2="266.92"/><line class="cls-1" x1="244.76" y1="266.92" x2="243.29" y2="266.06"/><line class="cls-1" x1="244.76" y1="266.92" x2="244.76" y2="265.78"/><line class="cls-1" x1="244.76" y1="265.78" x2="244.27" y2="266.06"/><line class="cls-1" x1="244.27" y1="266.06" x2="244.27" y2="264.94"/><line class="cls-1" x1="244.27" y1="264.94" x2="243.29" y2="264.37"/><line class="cls-1" x1="244.27" y1="264.94" x2="244.76" y2="264.65"/><line class="cls-1" x1="244.76" y1="264.65" x2="243.78" y2="264.08"/><line class="cls-1" x1="244.76" y1="264.65" x2="244.76" y2="263.51"/><line class="cls-1" x1="242.8" y1="264.65" x2="241.32" y2="263.8"/><line class="cls-1" x1="242.8" y1="264.65" x2="242.8" y2="216.49"/><line class="cls-1" x1="242.8" y1="216.49" x2="241.32" y2="215.64"/><line class="cls-1" x1="242.8" y1="216.49" x2="244.76" y2="215.36"/><line class="cls-1" x1="244.76" y1="215.36" x2="243.29" y2="214.51"/><line class="cls-1" x1="244.76" y1="215.36" x2="244.76" y2="214.22"/><line class="cls-1" x1="244.76" y1="214.22" x2="244.27" y2="214.51"/><line class="cls-1" x1="244.27" y1="214.51" x2="244.27" y2="213.38"/><line class="cls-1" x1="244.27" y1="213.38" x2="244.76" y2="213.09"/><line class="cls-1" x1="244.76" y1="213.09" x2="243.78" y2="212.52"/><line class="cls-1" x1="244.76" y1="213.09" x2="244.76" y2="211.96"/><line class="cls-1" x1="242.8" y1="213.09" x2="242.06" y2="212.67"/><line class="cls-1" x1="242.8" y1="213.09" x2="242.8" y2="211.39"/><line class="cls-1" x1="242.8" y1="211.39" x2="242.06" y2="210.97"/><line class="cls-1" x1="242.06" y1="210.97" x2="242.06" y2="212.67"/><line class="cls-1" x1="242.8" y1="209.69" x2="243.53" y2="210.12"/><line class="cls-1" x1="242.8" y1="211.39" x2="244.76" y2="210.26"/><line class="cls-1" x1="244.76" y1="210.26" x2="243.29" y2="209.41"/><line class="cls-1" x1="244.76" y1="210.26" x2="244.76" y2="209.12"/><line class="cls-1" x1="244.76" y1="209.12" x2="244.27" y2="209.41"/><line class="cls-1" x1="244.27" y1="209.41" x2="244.27" y2="208.28"/><line class="cls-1" x1="244.27" y1="208.28" x2="243.29" y2="207.71"/><line class="cls-1" x1="244.27" y1="208.28" x2="244.76" y2="207.99"/><line class="cls-1" x1="244.76" y1="207.99" x2="243.78" y2="207.42"/><line class="cls-1" x1="244.76" y1="207.99" x2="244.76" y2="206.86"/><line class="cls-1" x1="264.23" y1="153.79" x2="264.72" y2="153.51"/><line class="cls-1" x1="264.72" y1="153.51" x2="264.23" y2="153.22"/><line class="cls-1" x1="264.72" y1="153.51" x2="264.72" y2="160.68"/><line class="cls-1" x1="264.72" y1="160.68" x2="264.23" y2="160.96"/><line class="cls-1" x1="265.21" y1="161.53" x2="265.21" y2="162.1"/><line class="cls-1" x1="265.21" y1="162.1" x2="266.19" y2="161.53"/><line class="cls-1" x1="266.19" y1="161.53" x2="265.7" y2="161.25"/><line class="cls-1" x1="265.21" y1="151.52" x2="265.21" y2="152.09"/><line class="cls-1" x1="251.59" y1="150.51" x2="253.06" y2="151.35"/><line class="cls-1" x1="253.06" y1="153.15" x2="252.57" y2="153.43"/><line class="cls-1" x1="252.57" y1="153.43" x2="252.57" y2="154.47"/><line class="cls-1" x1="252.57" y1="154.47" x2="256.42" y2="152.25"/><line class="cls-1" x1="256.42" y1="152.25" x2="254.94" y2="151.4"/><line class="cls-1" x1="256.42" y1="152.25" x2="256.42" y2="151.21"/><line class="cls-1" x1="256.42" y1="151.21" x2="255.93" y2="151.5"/><line class="cls-1" x1="255.93" y1="151.5" x2="255.93" y2="149.7"/><line class="cls-1" x1="250.57" y1="152.8" x2="253.06" y2="151.35"/><line class="cls-1" x1="256.42" y1="341.5" x2="256.42" y2="342.54"/><line class="cls-1" x1="256.42" y1="342.54" x2="255.93" y2="342.82"/><line class="cls-1" x1="255.93" y1="342.82" x2="255.93" y2="344.61"/><line class="cls-1" x1="250.57" y1="347.7" x2="253.06" y2="346.26"/><line class="cls-1" x1="255.93" y1="342.82" x2="255.03" y2="342.29"/><line class="cls-1" x1="256.42" y1="342.54" x2="255.52" y2="342.01"/><line class="cls-1" x1="253.06" y1="344.47" x2="252.57" y2="344.19"/><line class="cls-1" x1="206.82" y1="154.45" x2="206.82" y2="155.02"/><line class="cls-1" x1="206.82" y1="155.02" x2="213.03" y2="158.6"/><line class="cls-1" x1="213.03" y1="158.6" x2="213.03" y2="158.04"/><line class="cls-1" x1="214.01" y1="160.87" x2="222.52" y2="165.78"/><line class="cls-1" x1="223.5" y1="164.08" x2="223.5" y2="164.65"/><line class="cls-1" x1="223.5" y1="164.65" x2="229.71" y2="168.24"/><line class="cls-1" x1="229.71" y1="168.24" x2="229.71" y2="167.67"/><line class="cls-1" x1="230.69" y1="170.5" x2="241.32" y2="176.64"/><line class="cls-1" x1="241.32" y1="176.64" x2="241.32" y2="174.76"/><line class="cls-1" x1="241.32" y1="174.76" x2="240.83" y2="174.47"/><line class="cls-1" x1="240.83" y1="174.47" x2="240.83" y2="173.33"/><line class="cls-1" x1="242.8" y1="174.47" x2="242.8" y2="165.02"/><line class="cls-1" x1="240.83" y1="163.89" x2="240.83" y2="162.76"/><line class="cls-1" x1="240.83" y1="162.76" x2="241.32" y2="163.04"/><line class="cls-1" x1="241.32" y1="163.04" x2="241.32" y2="154.73"/><line class="cls-1" x1="241.32" y1="154.73" x2="226.45" y2="146.14"/><line class="cls-1" x1="226.45" y1="148.41" x2="225.46" y2="147.84"/><line class="cls-1" x1="225.46" y1="147.84" x2="225.46" y2="147.27"/><line class="cls-1" x1="225.46" y1="147.27" x2="211.07" y2="138.97"/><line class="cls-1" x1="211.07" y1="138.97" x2="211.07" y2="139.53"/><line class="cls-1" x1="211.07" y1="139.53" x2="210.09" y2="138.97"/><line class="cls-1" x1="210.09" y1="136.7" x2="195.21" y2="128.1"/><line class="cls-1" x1="195.21" y1="129.81" x2="195.7" y2="130.09"/><line class="cls-1" x1="195.7" y1="130.09" x2="195.7" y2="131.22"/><line class="cls-1" x1="195.7" y1="131.22" x2="191.77" y2="128.95"/><line class="cls-1" x1="191.77" y1="128.95" x2="191.77" y2="127.82"/><line class="cls-1" x1="191.77" y1="127.82" x2="192.26" y2="128.1"/><line class="cls-1" x1="192.26" y1="128.1" x2="192.26" y2="126.4"/><line class="cls-1" x1="192.26" y1="126.4" x2="177.38" y2="117.81"/><line class="cls-1" x1="177.38" y1="120.07" x2="176.4" y2="119.51"/><line class="cls-1" x1="176.4" y1="119.51" x2="176.4" y2="118.94"/><line class="cls-1" x1="176.4" y1="118.94" x2="162" y2="110.63"/><line class="cls-1" x1="162" y1="110.63" x2="162" y2="111.2"/><line class="cls-1" x1="162" y1="111.2" x2="161.02" y2="110.63"/><line class="cls-1" x1="161.02" y1="108.36" x2="146.14" y2="99.77"/><line class="cls-1" x1="146.14" y1="99.77" x2="146.14" y2="108.08"/><line class="cls-1" x1="146.14" y1="108.08" x2="146.63" y2="108.36"/><line class="cls-1" x1="144.67" y1="108.36" x2="144.67" y2="117.81"/><line class="cls-1" x1="146.63" y1="120.07" x2="146.14" y2="119.79"/><line class="cls-1" x1="146.14" y1="119.79" x2="146.14" y2="121.68"/><line class="cls-1" x1="146.14" y1="121.68" x2="156.77" y2="127.82"/><line class="cls-1" x1="157.75" y1="126.12" x2="157.75" y2="126.68"/><line class="cls-1" x1="157.75" y1="126.68" x2="163.96" y2="130.27"/><line class="cls-1" x1="163.96" y1="130.27" x2="163.96" y2="129.71"/><line class="cls-1" x1="174.43" y1="135.75" x2="174.43" y2="136.32"/><line class="cls-1" x1="174.43" y1="136.32" x2="180.64" y2="139.91"/><line class="cls-1" x1="180.64" y1="139.91" x2="180.64" y2="139.34"/><line class="cls-1" x1="181.63" y1="142.17" x2="205.84" y2="156.15"/><line class="cls-1" x1="153.33" y1="111.3" x2="153.33" y2="112.43"/><line class="cls-1" x1="153.33" y1="112.43" x2="149.4" y2="110.16"/><line class="cls-1" x1="149.4" y1="110.16" x2="149.4" y2="109.03"/><line class="cls-1" x1="149.4" y1="109.03" x2="149.89" y2="109.31"/><line class="cls-1" x1="149.89" y1="109.31" x2="149.89" y2="105.91"/><line class="cls-1" x1="149.89" y1="105.91" x2="149.4" y2="105.63"/><line class="cls-1" x1="149.4" y1="105.63" x2="149.4" y2="104.5"/><line class="cls-1" x1="153.33" y1="107.89" x2="152.84" y2="107.61"/><line class="cls-1" x1="152.84" y1="111.01" x2="153.33" y2="111.3"/><line class="cls-1" x1="188.99" y1="128.48" x2="188.5" y2="128.19"/><line class="cls-1" x1="188.5" y1="131.6" x2="188.99" y2="131.88"/><line class="cls-1" x1="188.99" y1="131.88" x2="188.99" y2="133.01"/><line class="cls-1" x1="188.99" y1="133.01" x2="185.06" y2="130.74"/><line class="cls-1" x1="185.06" y1="130.74" x2="185.06" y2="129.62"/><line class="cls-1" x1="185.06" y1="129.62" x2="185.56" y2="129.9"/><line class="cls-1" x1="185.56" y1="129.9" x2="185.56" y2="126.5"/><line class="cls-1" x1="185.56" y1="126.5" x2="185.06" y2="126.21"/><line class="cls-1" x1="185.06" y1="126.21" x2="185.06" y2="125.08"/><line class="cls-1" x1="198.97" y1="134.24" x2="198.48" y2="133.96"/><line class="cls-1" x1="198.48" y1="133.96" x2="198.48" y2="132.83"/><line class="cls-1" x1="202.4" y1="136.22" x2="201.91" y2="135.94"/><line class="cls-1" x1="201.91" y1="139.34" x2="202.4" y2="139.62"/><line class="cls-1" x1="202.4" y1="139.62" x2="202.4" y2="140.76"/><line class="cls-1" x1="202.4" y1="140.76" x2="198.48" y2="138.49"/><line class="cls-1" x1="198.48" y1="138.49" x2="198.48" y2="137.36"/><line class="cls-1" x1="198.48" y1="137.36" x2="198.97" y2="137.64"/><line class="cls-1" x1="198.97" y1="137.64" x2="198.97" y2="134.24"/><line class="cls-1" x1="238.06" y1="160.21" x2="238.06" y2="161.34"/><line class="cls-1" x1="238.06" y1="161.34" x2="234.13" y2="159.08"/><line class="cls-1" x1="234.13" y1="159.08" x2="234.13" y2="157.94"/><line class="cls-1" x1="234.13" y1="157.94" x2="234.62" y2="158.23"/><line class="cls-1" x1="234.62" y1="158.23" x2="234.62" y2="154.83"/><line class="cls-1" x1="234.62" y1="154.83" x2="234.13" y2="154.54"/><line class="cls-1" x1="234.13" y1="154.54" x2="234.13" y2="153.41"/><line class="cls-1" x1="238.06" y1="156.81" x2="237.57" y2="156.53"/><line class="cls-1" x1="237.57" y1="159.92" x2="238.06" y2="160.21"/><line class="cls-1" x1="213.03" y1="158.6" x2="213.52" y2="158.32"/><line class="cls-1" x1="230.2" y1="167.95" x2="229.71" y2="168.24"/><line class="cls-1" x1="230.69" y1="168.8" x2="230.69" y2="168.24"/><line class="cls-1" x1="241.32" y1="174.18" x2="240.83" y2="174.47"/><line class="cls-1" x1="244.27" y1="173.62" x2="242.8" y2="174.47"/><line class="cls-1" x1="244.27" y1="164.18" x2="242.8" y2="165.02"/><line class="cls-1" x1="241.32" y1="163.61" x2="240.83" y2="163.89"/><line class="cls-1" x1="242.8" y1="153.88" x2="241.32" y2="154.73"/><line class="cls-1" x1="242.8" y1="153.88" x2="227.92" y2="145.29"/><line class="cls-1" x1="227.92" y1="145.29" x2="226.45" y2="146.14"/><line class="cls-1" x1="226.45" y1="147.27" x2="225.46" y2="147.84"/><line class="cls-1" x1="226.45" y1="146.7" x2="225.46" y2="147.27"/><line class="cls-1" x1="226.45" y1="146.14" x2="212.54" y2="138.11"/><line class="cls-1" x1="212.05" y1="138.4" x2="211.56" y2="138.11"/><line class="cls-1" x1="211.56" y1="138.11" x2="210.09" y2="138.97"/><line class="cls-1" x1="211.56" y1="138.11" x2="211.56" y2="137.54"/><line class="cls-1" x1="211.56" y1="137.54" x2="210.09" y2="138.4"/><line class="cls-1" x1="210.09" y1="138.4" x2="210.09" y2="138.97"/><line class="cls-1" x1="211.56" y1="137.54" x2="211.56" y2="135.85"/><line class="cls-1" x1="211.56" y1="135.85" x2="210.09" y2="136.7"/><line class="cls-1" x1="210.09" y1="136.7" x2="210.09" y2="138.4"/><line class="cls-1" x1="211.56" y1="135.85" x2="196.68" y2="127.25"/><line class="cls-1" x1="196.68" y1="127.25" x2="195.21" y2="128.1"/><line class="cls-1" x1="195.21" y1="129.23" x2="193.24" y2="128.1"/><line class="cls-1" x1="193.24" y1="128.1" x2="191.77" y2="128.95"/><line class="cls-1" x1="193.24" y1="128.1" x2="193.24" y2="127.54"/><line class="cls-1" x1="193.73" y1="127.25" x2="193.73" y2="125.55"/><line class="cls-1" x1="193.73" y1="125.55" x2="192.26" y2="126.4"/><line class="cls-1" x1="193.73" y1="125.55" x2="178.85" y2="116.96"/><line class="cls-1" x1="178.85" y1="116.96" x2="177.38" y2="117.81"/><line class="cls-1" x1="177.38" y1="118.94" x2="176.4" y2="119.51"/><line class="cls-1" x1="177.38" y1="118.38" x2="176.4" y2="118.94"/><line class="cls-1" x1="162.98" y1="110.07" x2="162.49" y2="109.79"/><line class="cls-1" x1="162.49" y1="109.79" x2="161.02" y2="110.63"/><line class="cls-1" x1="162.49" y1="109.79" x2="162.49" y2="109.22"/><line class="cls-1" x1="162.49" y1="109.22" x2="161.02" y2="110.07"/><line class="cls-1" x1="161.02" y1="110.07" x2="161.02" y2="110.63"/><line class="cls-1" x1="162.49" y1="109.22" x2="162.49" y2="107.52"/><line class="cls-1" x1="162.49" y1="107.52" x2="161.02" y2="108.36"/><line class="cls-1" x1="161.02" y1="108.36" x2="161.02" y2="110.07"/><line class="cls-1" x1="162.49" y1="107.52" x2="147.61" y2="98.92"/><line class="cls-1" x1="147.61" y1="98.92" x2="146.14" y2="99.77"/><line class="cls-1" x1="146.63" y1="119.51" x2="146.14" y2="119.79"/><line class="cls-1" x1="156.77" y1="125.55" x2="156.77" y2="126.12"/><line class="cls-1" x1="164.46" y1="129.99" x2="163.96" y2="130.27"/><line class="cls-1" x1="181.14" y1="139.62" x2="180.64" y2="139.91"/><line class="cls-1" x1="181.63" y1="140.48" x2="181.63" y2="139.91"/><line class="cls-1" x1="205.84" y1="153.88" x2="205.84" y2="154.45"/><line class="cls-1" x1="237.57" y1="156.53" x2="238.06" y2="156.25"/><line class="cls-1" x1="237.57" y1="159.36" x2="235.6" y2="158.23"/><line class="cls-1" x1="235.6" y1="158.23" x2="234.13" y2="159.08"/><line class="cls-1" x1="235.6" y1="158.23" x2="235.6" y2="157.66"/><line class="cls-1" x1="236.1" y1="157.37" x2="236.1" y2="154.54"/><line class="cls-1" x1="235.6" y1="154.26" x2="234.62" y2="154.83"/><line class="cls-1" x1="235.11" y1="153.98" x2="234.13" y2="154.54"/><line class="cls-1" x1="200.43" y1="136.79" x2="200.43" y2="133.96"/><line class="cls-1" x1="199.94" y1="133.68" x2="198.97" y2="134.24"/><line class="cls-1" x1="199.45" y1="133.39" x2="198.48" y2="133.96"/><line class="cls-1" x1="202.4" y1="135.66" x2="201.91" y2="135.94"/><line class="cls-1" x1="201.91" y1="138.77" x2="199.94" y2="137.64"/><line class="cls-1" x1="199.94" y1="137.64" x2="198.48" y2="138.49"/><line class="cls-1" x1="199.94" y1="137.64" x2="199.94" y2="137.07"/><line class="cls-1" x1="185.56" y1="126.5" x2="186.54" y2="125.93"/><line class="cls-1" x1="186.05" y1="125.65" x2="185.06" y2="126.21"/><line class="cls-1" x1="188.99" y1="127.91" x2="188.5" y2="128.19"/><line class="cls-1" x1="188.5" y1="131.03" x2="186.54" y2="129.9"/><line class="cls-1" x1="186.54" y1="129.9" x2="185.06" y2="130.74"/><line class="cls-1" x1="186.54" y1="129.9" x2="186.54" y2="129.33"/><line class="cls-1" x1="187.03" y1="129.05" x2="187.03" y2="126.21"/><line class="cls-1" x1="152.84" y1="107.61" x2="153.33" y2="107.33"/><line class="cls-1" x1="152.84" y1="110.44" x2="150.88" y2="109.31"/><line class="cls-1" x1="150.88" y1="109.31" x2="149.4" y2="110.16"/><line class="cls-1" x1="150.88" y1="109.31" x2="150.88" y2="108.75"/><line class="cls-1" x1="151.37" y1="108.46" x2="151.37" y2="105.63"/><line class="cls-1" x1="150.88" y1="105.34" x2="149.89" y2="105.91"/><line class="cls-1" x1="150.39" y1="105.06" x2="149.4" y2="105.63"/><line class="cls-1" x1="228.73" y1="141.8" x2="228.73" y2="142.36"/><line class="cls-1" x1="228.73" y1="142.36" x2="234.95" y2="145.95"/><line class="cls-1" x1="234.95" y1="145.95" x2="234.95" y2="145.38"/><line class="cls-1" x1="244.43" y1="151.43" x2="244.43" y2="150.86"/><line class="cls-1" x1="245.42" y1="151.43" x2="245.42" y2="151.99"/><line class="cls-1" x1="245.42" y1="151.99" x2="245.74" y2="152.19"/><line class="cls-1" x1="264.23" y1="161.53" x2="264.72" y2="161.82"/><line class="cls-1" x1="263.24" y1="142.08" x2="248.36" y2="133.48"/><line class="cls-1" x1="248.36" y1="135.75" x2="247.38" y2="135.19"/><line class="cls-1" x1="247.38" y1="135.19" x2="247.38" y2="134.62"/><line class="cls-1" x1="247.38" y1="134.62" x2="232.98" y2="126.31"/><line class="cls-1" x1="232.98" y1="126.31" x2="232.98" y2="126.87"/><line class="cls-1" x1="232.98" y1="126.87" x2="232" y2="126.31"/><line class="cls-1" x1="232" y1="124.04" x2="217.12" y2="115.45"/><line class="cls-1" x1="217.12" y1="117.15" x2="217.61" y2="117.43"/><line class="cls-1" x1="217.61" y1="117.43" x2="217.61" y2="118.56"/><line class="cls-1" x1="217.61" y1="118.56" x2="213.69" y2="116.3"/><line class="cls-1" x1="213.69" y1="116.3" x2="213.69" y2="115.17"/><line class="cls-1" x1="213.69" y1="115.17" x2="214.18" y2="115.45"/><line class="cls-1" x1="214.18" y1="115.45" x2="214.18" y2="113.75"/><line class="cls-1" x1="214.18" y1="113.75" x2="199.29" y2="105.16"/><line class="cls-1" x1="199.29" y1="107.42" x2="198.31" y2="106.85"/><line class="cls-1" x1="198.31" y1="106.85" x2="198.31" y2="106.29"/><line class="cls-1" x1="198.31" y1="106.29" x2="183.92" y2="97.98"/><line class="cls-1" x1="183.92" y1="97.98" x2="183.92" y2="98.55"/><line class="cls-1" x1="183.92" y1="98.55" x2="182.94" y2="97.98"/><line class="cls-1" x1="182.94" y1="95.71" x2="168.05" y2="87.12"/><line class="cls-1" x1="168.05" y1="87.12" x2="168.05" y2="95.43"/><line class="cls-1" x1="168.05" y1="95.43" x2="168.54" y2="95.71"/><line class="cls-1" x1="168.54" y1="96.85" x2="168.05" y2="96.57"/><line class="cls-1" x1="168.54" y1="107.42" x2="168.05" y2="107.14"/><line class="cls-1" x1="168.05" y1="107.14" x2="168.05" y2="107.33"/><line class="cls-1" x1="178.68" y1="113.46" x2="178.68" y2="112.9"/><line class="cls-1" x1="179.66" y1="113.46" x2="179.66" y2="114.03"/><line class="cls-1" x1="179.66" y1="114.03" x2="185.88" y2="117.62"/><line class="cls-1" x1="185.88" y1="117.62" x2="185.88" y2="117.05"/><line class="cls-1" x1="195.37" y1="123.1" x2="195.37" y2="122.53"/><line class="cls-1" x1="196.35" y1="123.1" x2="196.35" y2="123.66"/><line class="cls-1" x1="196.35" y1="123.66" x2="202.56" y2="127.25"/><line class="cls-1" x1="202.56" y1="127.25" x2="202.56" y2="126.68"/><line class="cls-1" x1="227.76" y1="141.8" x2="227.76" y2="141.23"/><line class="cls-1" x1="175.25" y1="98.64" x2="175.25" y2="99.77"/><line class="cls-1" x1="175.25" y1="99.77" x2="171.32" y2="97.51"/><line class="cls-1" x1="171.32" y1="97.51" x2="171.32" y2="96.37"/><line class="cls-1" x1="171.32" y1="96.37" x2="171.81" y2="96.66"/><line class="cls-1" x1="171.81" y1="96.66" x2="171.81" y2="93.26"/><line class="cls-1" x1="171.81" y1="93.26" x2="171.32" y2="92.98"/><line class="cls-1" x1="171.32" y1="92.98" x2="171.32" y2="91.84"/><line class="cls-1" x1="175.25" y1="95.24" x2="174.76" y2="94.96"/><line class="cls-1" x1="174.76" y1="98.36" x2="175.25" y2="98.64"/><line class="cls-1" x1="210.9" y1="115.83" x2="210.41" y2="115.54"/><line class="cls-1" x1="210.41" y1="118.94" x2="210.9" y2="119.23"/><line class="cls-1" x1="210.9" y1="119.23" x2="210.9" y2="120.36"/><line class="cls-1" x1="210.9" y1="120.36" x2="206.98" y2="118.09"/><line class="cls-1" x1="206.98" y1="118.09" x2="206.98" y2="116.96"/><line class="cls-1" x1="206.98" y1="116.96" x2="207.47" y2="117.24"/><line class="cls-1" x1="207.47" y1="117.24" x2="207.47" y2="113.85"/><line class="cls-1" x1="207.47" y1="113.85" x2="206.98" y2="113.56"/><line class="cls-1" x1="206.98" y1="113.56" x2="206.98" y2="112.43"/><line class="cls-1" x1="220.88" y1="121.58" x2="220.39" y2="121.3"/><line class="cls-1" x1="220.39" y1="121.3" x2="220.39" y2="120.17"/><line class="cls-1" x1="224.32" y1="123.57" x2="223.83" y2="123.29"/><line class="cls-1" x1="223.83" y1="126.68" x2="224.32" y2="126.97"/><line class="cls-1" x1="224.32" y1="126.97" x2="224.32" y2="128.1"/><line class="cls-1" x1="224.32" y1="128.1" x2="220.39" y2="125.84"/><line class="cls-1" x1="220.39" y1="125.84" x2="220.39" y2="124.7"/><line class="cls-1" x1="220.39" y1="124.7" x2="220.88" y2="124.99"/><line class="cls-1" x1="220.88" y1="124.99" x2="220.88" y2="121.58"/><line class="cls-1" x1="257.85" y1="147.46" x2="256.05" y2="146.42"/><line class="cls-1" x1="256.05" y1="146.42" x2="256.05" y2="145.29"/><line class="cls-1" x1="256.05" y1="145.29" x2="256.54" y2="145.58"/><line class="cls-1" x1="256.54" y1="145.58" x2="256.54" y2="142.17"/><line class="cls-1" x1="256.54" y1="142.17" x2="256.05" y2="141.89"/><line class="cls-1" x1="256.05" y1="141.89" x2="256.05" y2="140.76"/><line class="cls-1" x1="259.81" y1="144.06" x2="259.48" y2="143.87"/><line class="cls-1" x1="259.48" y1="143.87" x2="259.48" y2="144.25"/><line class="cls-1" x1="234.95" y1="145.95" x2="235.44" y2="145.67"/><line class="cls-1" x1="266.19" y1="160.96" x2="266.19" y2="151.52"/><line class="cls-1" x1="266.19" y1="151.52" x2="265.7" y2="151.24"/><line class="cls-1" x1="264.72" y1="141.23" x2="263.24" y2="142.08"/><line class="cls-1" x1="264.72" y1="141.23" x2="249.83" y2="132.64"/><line class="cls-1" x1="249.83" y1="132.64" x2="248.36" y2="133.48"/><line class="cls-1" x1="248.36" y1="134.62" x2="247.38" y2="135.19"/><line class="cls-1" x1="248.36" y1="134.05" x2="247.38" y2="134.62"/><line class="cls-1" x1="248.36" y1="133.48" x2="234.46" y2="125.46"/><line class="cls-1" x1="233.97" y1="125.74" x2="233.48" y2="125.46"/><line class="cls-1" x1="233.48" y1="125.46" x2="232" y2="126.31"/><line class="cls-1" x1="233.48" y1="125.46" x2="233.48" y2="124.89"/><line class="cls-1" x1="233.48" y1="124.89" x2="232" y2="125.74"/><line class="cls-1" x1="232" y1="125.74" x2="232" y2="126.31"/><line class="cls-1" x1="233.48" y1="124.89" x2="233.48" y2="123.19"/><line class="cls-1" x1="233.48" y1="123.19" x2="232" y2="124.04"/><line class="cls-1" x1="232" y1="124.04" x2="232" y2="125.74"/><line class="cls-1" x1="233.48" y1="123.19" x2="218.59" y2="114.6"/><line class="cls-1" x1="218.59" y1="114.6" x2="217.12" y2="115.45"/><line class="cls-1" x1="217.12" y1="116.58" x2="215.16" y2="115.45"/><line class="cls-1" x1="215.16" y1="115.45" x2="213.69" y2="116.3"/><line class="cls-1" x1="215.16" y1="115.45" x2="215.16" y2="114.88"/><line class="cls-1" x1="215.65" y1="114.6" x2="215.65" y2="112.9"/><line class="cls-1" x1="215.65" y1="112.9" x2="214.18" y2="113.75"/><line class="cls-1" x1="215.65" y1="112.9" x2="200.76" y2="104.3"/><line class="cls-1" x1="200.76" y1="104.3" x2="199.29" y2="105.16"/><line class="cls-1" x1="199.29" y1="106.29" x2="198.31" y2="106.85"/><line class="cls-1" x1="199.29" y1="105.72" x2="198.31" y2="106.29"/><line class="cls-1" x1="199.29" y1="105.16" x2="185.39" y2="97.13"/><line class="cls-1" x1="184.9" y1="97.41" x2="184.41" y2="97.13"/><line class="cls-1" x1="184.41" y1="97.13" x2="182.94" y2="97.98"/><line class="cls-1" x1="184.41" y1="97.13" x2="184.41" y2="96.57"/><line class="cls-1" x1="184.41" y1="96.57" x2="182.94" y2="97.41"/><line class="cls-1" x1="182.94" y1="97.41" x2="182.94" y2="97.98"/><line class="cls-1" x1="184.41" y1="96.57" x2="184.41" y2="94.86"/><line class="cls-1" x1="184.41" y1="94.86" x2="182.94" y2="95.71"/><line class="cls-1" x1="182.94" y1="95.71" x2="182.94" y2="97.41"/><line class="cls-1" x1="169.52" y1="86.27" x2="168.05" y2="87.12"/><line class="cls-1" x1="168.54" y1="106.85" x2="168.05" y2="107.14"/><line class="cls-1" x1="179.17" y1="113.18" x2="178.68" y2="113.46"/><line class="cls-1" x1="186.37" y1="117.34" x2="185.88" y2="117.62"/><line class="cls-1" x1="203.05" y1="126.97" x2="202.56" y2="127.25"/><line class="cls-1" x1="203.54" y1="127.82" x2="203.54" y2="127.25"/><line class="cls-1" x1="203.54" y1="128.39" x2="203.54" y2="127.82"/><line class="cls-1" x1="228.24" y1="141.51" x2="227.76" y2="141.8"/><line class="cls-1" x1="259.48" y1="143.87" x2="259.97" y2="143.59"/><line class="cls-1" x1="257.93" y1="145.81" x2="257.52" y2="145.58"/><line class="cls-1" x1="257.52" y1="145.58" x2="256.05" y2="146.42"/><line class="cls-1" x1="257.52" y1="145.58" x2="257.52" y2="145.01"/><line class="cls-1" x1="258.01" y1="144.72" x2="258.01" y2="141.89"/><line class="cls-1" x1="257.52" y1="141.61" x2="256.54" y2="142.17"/><line class="cls-1" x1="257.03" y1="141.32" x2="256.05" y2="141.89"/><line class="cls-1" x1="222.35" y1="124.13" x2="222.35" y2="121.3"/><line class="cls-1" x1="221.86" y1="121.02" x2="220.88" y2="121.58"/><line class="cls-1" x1="221.37" y1="120.74" x2="220.39" y2="121.3"/><line class="cls-1" x1="224.32" y1="123.01" x2="223.83" y2="123.29"/><line class="cls-1" x1="223.83" y1="126.12" x2="221.86" y2="124.99"/><line class="cls-1" x1="221.86" y1="124.99" x2="220.39" y2="125.84"/><line class="cls-1" x1="221.86" y1="124.99" x2="221.86" y2="124.42"/><line class="cls-1" x1="207.47" y1="113.85" x2="208.45" y2="113.28"/><line class="cls-1" x1="207.96" y1="112.99" x2="206.98" y2="113.56"/><line class="cls-1" x1="210.9" y1="115.26" x2="210.41" y2="115.54"/><line class="cls-1" x1="210.41" y1="118.38" x2="208.45" y2="117.24"/><line class="cls-1" x1="208.45" y1="117.24" x2="206.98" y2="118.09"/><line class="cls-1" x1="208.45" y1="117.24" x2="208.45" y2="116.68"/><line class="cls-1" x1="208.94" y1="116.4" x2="208.94" y2="113.56"/><line class="cls-1" x1="174.76" y1="94.96" x2="175.25" y2="94.67"/><line class="cls-1" x1="174.76" y1="97.79" x2="172.8" y2="96.66"/><line class="cls-1" x1="172.8" y1="96.66" x2="171.32" y2="97.51"/><line class="cls-1" x1="172.8" y1="96.66" x2="172.8" y2="96.09"/><line class="cls-1" x1="173.29" y1="95.81" x2="173.29" y2="92.98"/><line class="cls-1" x1="172.8" y1="92.69" x2="171.81" y2="93.26"/><line class="cls-1" x1="172.3" y1="92.4" x2="171.32" y2="92.98"/><line class="cls-1" x1="159.3" y1="288.78" x2="161.75" y2="287.36"/><line class="cls-1" x1="227.43" y1="342.18" x2="228.41" y2="341.61"/><line class="cls-1" x1="212.54" y1="333.02" x2="212.54" y2="334.15"/><line class="cls-1" x1="212.54" y1="334.15" x2="212.54" y2="334.72"/><line class="cls-1" x1="178.36" y1="313.85" x2="179.34" y2="313.28"/><line class="cls-1" x1="163.47" y1="304.69" x2="163.47" y2="305.82"/><line class="cls-1" x1="163.47" y1="305.82" x2="163.47" y2="306.39"/><line class="cls-1" x1="146.14" y1="296.38" x2="152.92" y2="292.46"/><line class="cls-1" x1="165.36" y1="296.24" x2="165.85" y2="296.52"/><line class="cls-1" x1="165.85" y1="296.52" x2="166.34" y2="296.81"/><line class="cls-1" x1="166.34" y1="296.81" x2="168.3" y2="295.67"/><line class="cls-1" x1="207.88" y1="313.99" x2="207.88" y2="315.12"/><line class="cls-1" x1="207.88" y1="315.12" x2="207.88" y2="315.69"/><line class="cls-1" x1="195.94" y1="309.93" x2="195.94" y2="311.06"/><line class="cls-1" x1="195.94" y1="311.06" x2="195.94" y2="311.63"/><line class="cls-1" x1="192.99" y1="311.63" x2="193.49" y2="311.91"/><line class="cls-1" x1="193.49" y1="311.91" x2="202.48" y2="317.11"/><line class="cls-1" x1="200.52" y1="319.94" x2="202.48" y2="321.07"/><line class="cls-1" x1="202.48" y1="321.07" x2="202.97" y2="320.79"/><line class="cls-1" x1="202.97" y1="320.79" x2="203.46" y2="320.5"/><line class="cls-1" x1="214.42" y1="324.56" x2="214.91" y2="324.85"/><line class="cls-1" x1="214.91" y1="324.85" x2="215.4" y2="325.13"/><line class="cls-1" x1="215.4" y1="325.13" x2="217.37" y2="324"/><line class="cls-1" x1="208.37" y1="317.11" x2="210.33" y2="315.97"/><line class="cls-1" x1="210.33" y1="315.97" x2="210.82" y2="315.69"/><line class="cls-1" x1="178.68" y1="113.46" x2="178.19" y2="113.75"/><line class="cls-1" x1="178.19" y1="113.75" x2="177.7" y2="113.46"/><line class="cls-1" x1="177.7" y1="113.46" x2="177.21" y2="113.18"/><line class="cls-1" x1="156.77" y1="126.12" x2="157.75" y2="126.68"/><line class="cls-1" x1="173.45" y1="135.75" x2="174.43" y2="136.32"/><line class="cls-1" x1="205.84" y1="154.45" x2="206.82" y2="155.02"/><line class="cls-1" x1="222.52" y1="164.08" x2="223.5" y2="164.65"/><line class="cls-1" x1="244.27" y1="173.24" x2="244.43" y2="173.14"/><line class="cls-1" x1="244.43" y1="173.14" x2="244.76" y2="172.96"/><line class="cls-1" x1="195.86" y1="122.81" x2="195.37" y2="123.1"/><line class="cls-1" x1="195.37" y1="123.1" x2="194.88" y2="123.38"/><line class="cls-1" x1="194.88" y1="123.38" x2="194.39" y2="123.1"/><line class="cls-1" x1="194.39" y1="123.1" x2="193.9" y2="122.81"/><line class="cls-1" x1="187.36" y1="119.04" x2="186.87" y2="118.75"/><line class="cls-1" x1="186.87" y1="118.75" x2="186.37" y2="118.47"/><line class="cls-1" x1="204.04" y1="128.67" x2="203.54" y2="128.39"/><line class="cls-1" x1="203.54" y1="128.39" x2="203.05" y2="128.1"/><line class="cls-1" x1="227.76" y1="141.8" x2="227.26" y2="142.08"/><line class="cls-1" x1="227.26" y1="142.08" x2="226.77" y2="141.8"/><line class="cls-1" x1="226.77" y1="141.8" x2="226.28" y2="141.51"/><line class="cls-1" x1="236.42" y1="147.37" x2="235.93" y2="147.09"/><line class="cls-1" x1="235.93" y1="147.09" x2="235.44" y2="146.8"/><line class="cls-1" x1="244.93" y1="151.15" x2="244.43" y2="151.43"/><line class="cls-1" x1="244.43" y1="151.43" x2="243.94" y2="151.71"/><line class="cls-1" x1="243.94" y1="151.71" x2="243.45" y2="151.43"/><line class="cls-1" x1="243.45" y1="151.43" x2="242.96" y2="151.15"/><line class="cls-1" x1="155.91" y1="288.94" x2="155.91" y2="288.38"/><line class="cls-1" x1="155.91" y1="288.38" x2="155.91" y2="287.9"/><line class="cls-1" x1="155.91" y1="287.9" x2="157.79" y2="286.82"/><line class="cls-1" x1="159.26" y1="288.8" x2="159.3" y2="288.78"/><line class="cls-1" x1="168.05" y1="260.21" x2="168.05" y2="259.65"/><line class="cls-1" x1="168.05" y1="259.65" x2="168.05" y2="259.08"/><line class="cls-1" x1="167.56" y1="259.36" x2="167.56" y2="258.8"/><line class="cls-1" x1="167.56" y1="258.8" x2="167.56" y2="258.23"/><line class="cls-1" x1="168.05" y1="257.94" x2="168.05" y2="257.1"/><line class="cls-1" x1="168.05" y1="257.1" x2="168.05" y2="256.25"/><line class="cls-1" x1="167.56" y1="255.68" x2="167.56" y2="255.39"/><line class="cls-1" x1="168.05" y1="255.11" x2="168.05" y2="254.55"/><line class="cls-1" x1="168.05" y1="254.55" x2="168.05" y2="253.98"/><line class="cls-1" x1="167.56" y1="254.26" x2="167.56" y2="253.7"/><line class="cls-1" x1="167.56" y1="253.7" x2="167.56" y2="253.13"/><line class="cls-1" x1="168.05" y1="203.55" x2="168.05" y2="202.99"/><line class="cls-1" x1="168.05" y1="202.99" x2="168.05" y2="202.42"/><line class="cls-1" x1="167.56" y1="202.71" x2="167.56" y2="202.14"/><line class="cls-1" x1="167.56" y1="202.14" x2="167.56" y2="201.57"/><line class="cls-1" x1="168.05" y1="201.29" x2="168.05" y2="200.44"/><line class="cls-1" x1="168.05" y1="200.44" x2="168.05" y2="199.59"/><line class="cls-1" x1="167.56" y1="199.02" x2="167.56" y2="198.74"/><line class="cls-1" x1="168.05" y1="198.45" x2="168.05" y2="197.89"/><line class="cls-1" x1="168.05" y1="197.89" x2="168.05" y2="197.32"/><line class="cls-1" x1="167.56" y1="197.61" x2="167.56" y2="197.04"/><line class="cls-1" x1="167.56" y1="197.04" x2="167.56" y2="196.47"/><line class="cls-1" x1="168.05" y1="146.9" x2="168.05" y2="146.33"/><line class="cls-1" x1="168.05" y1="146.33" x2="168.05" y2="145.76"/><line class="cls-1" x1="167.56" y1="146.05" x2="167.56" y2="145.48"/><line class="cls-1" x1="167.56" y1="145.48" x2="167.56" y2="144.91"/><line class="cls-1" x1="168.05" y1="144.63" x2="168.05" y2="143.78"/><line class="cls-1" x1="168.05" y1="143.78" x2="168.05" y2="142.93"/><line class="cls-1" x1="167.56" y1="142.36" x2="167.56" y2="142.08"/><line class="cls-1" x1="168.05" y1="141.8" x2="168.05" y2="141.23"/><line class="cls-1" x1="168.05" y1="141.23" x2="168.05" y2="140.66"/><line class="cls-1" x1="167.56" y1="140.95" x2="167.56" y2="140.38"/><line class="cls-1" x1="167.56" y1="140.38" x2="167.56" y2="139.81"/><line class="cls-1" x1="168.05" y1="87.12" x2="162.74" y2="90.19"/><line class="cls-1" x1="156.4" y1="97.34" x2="156.4" y2="96.68"/><line class="cls-1" x1="156.4" y1="96.68" x2="156.4" y2="95.55"/><line class="cls-1" x1="152.92" y1="98.12" x2="152.92" y2="96.99"/><line class="cls-1" x1="152.92" y1="95.85" x2="147.61" y2="98.92"/><line class="cls-1" x1="146.14" y1="108.08" x2="146.14" y2="109.22"/><line class="cls-1" x1="146.14" y1="118.66" x2="146.14" y2="119.79"/><line class="cls-1" x1="146.14" y1="152.19" x2="146.63" y2="151.9"/><line class="cls-1" x1="146.14" y1="208.84" x2="146.63" y2="208.56"/><line class="cls-1" x1="146.14" y1="265.5" x2="146.63" y2="265.22"/><line class="cls-1" x1="146.14" y1="274" x2="146.14" y2="296.38"/><line class="cls-1" x1="152.92" y1="291.9" x2="153.41" y2="291.61"/><line class="cls-1" x1="153.41" y1="291.61" x2="153.91" y2="291.32"/><line class="cls-1" x1="153.91" y1="291.9" x2="156.36" y2="290.48"/><line class="cls-1" x1="156.36" y1="290.48" x2="156.4" y2="290.45"/><line class="cls-1" x1="167.56" y1="97.98" x2="167.56" y2="97.41"/><line class="cls-1" x1="167.56" y1="97.41" x2="167.56" y2="96.85"/><line class="cls-1" x1="167.56" y1="96.85" x2="168.05" y2="96.57"/><line class="cls-1" x1="168.05" y1="96.57" x2="168.54" y2="96.28"/><line class="cls-1" x1="167.56" y1="106.29" x2="167.56" y2="105.72"/><line class="cls-1" x1="167.56" y1="105.72" x2="167.56" y2="105.16"/><line class="cls-1" x1="161.75" y1="92.45" x2="160.77" y2="91.89"/><line class="cls-1" x1="160.77" y1="91.89" x2="160.28" y2="91.61"/><line class="cls-1" x1="147.61" y1="272.02" x2="146.63" y2="271.45"/><line class="cls-1" x1="146.63" y1="271.45" x2="146.14" y2="271.17"/><line class="cls-1" x1="146.87" y1="269.33" x2="146.63" y2="269.47"/><line class="cls-1" x1="146.63" y1="269.47" x2="145.4" y2="270.17"/><line class="cls-1" x1="146.63" y1="266.35" x2="146.14" y2="266.06"/><line class="cls-1" x1="147.61" y1="215.36" x2="146.63" y2="214.79"/><line class="cls-1" x1="146.63" y1="214.79" x2="146.14" y2="214.51"/><line class="cls-1" x1="146.87" y1="212.67" x2="146.63" y2="212.81"/><line class="cls-1" x1="146.63" y1="212.81" x2="145.4" y2="213.52"/><line class="cls-1" x1="146.63" y1="209.69" x2="146.14" y2="209.41"/><line class="cls-1" x1="147.61" y1="158.7" x2="146.63" y2="158.13"/><line class="cls-1" x1="146.63" y1="158.13" x2="146.14" y2="157.85"/><line class="cls-1" x1="146.87" y1="156" x2="146.63" y2="156.15"/><line class="cls-1" x1="146.63" y1="156.15" x2="145.4" y2="156.86"/><line class="cls-1" x1="146.63" y1="153.03" x2="146.14" y2="152.75"/><line class="cls-1" x1="157.79" y1="94.84" x2="158.28" y2="95.12"/><line class="cls-1" x1="158.28" y1="95.12" x2="159.26" y2="95.69"/><line class="cls-1" x1="243.29" y1="322.73" x2="243.29" y2="322.44"/><line class="cls-1" x1="243.29" y1="322.44" x2="243.29" y2="322.16"/><line class="cls-1" x1="241.32" y1="207.14" x2="241.32" y2="176.64"/><line class="cls-1" x1="257.44" y1="147.7" x2="257.85" y2="147.46"/><line class="cls-1" x1="257.85" y1="147.46" x2="257.93" y2="147.41"/><line class="cls-1" x1="257.93" y1="147.41" x2="257.93" y2="145.81"/><line class="cls-1" x1="257.93" y1="145.81" x2="257.93" y2="145.15"/><line class="cls-1" x1="254.45" y1="343.76" x2="254.45" y2="343.71"/><line class="cls-1" x1="254.45" y1="343.71" x2="254.45" y2="342.63"/><line class="cls-1" x1="244.27" y1="173.62" x2="244.76" y2="173.33"/><line class="cls-1" x1="244.76" y1="173.33" x2="244.43" y2="173.14"/><line class="cls-1" x1="244.43" y1="173.14" x2="244.27" y2="173.05"/><line class="cls-1" x1="244.76" y1="173.33" x2="244.76" y2="172.96"/><line class="cls-1" x1="244.76" y1="172.96" x2="244.76" y2="172.21"/><line class="cls-1" x1="244.76" y1="163.89" x2="244.27" y2="164.18"/><line class="cls-1" x1="249.59" y1="152.8" x2="249.59" y2="153.93"/><line class="cls-1" x1="258.42" y1="148.27" x2="257.44" y2="147.7"/><line class="cls-1" x1="257.44" y1="147.7" x2="256.95" y2="147.41"/><line class="cls-1" x1="264.23" y1="195.62" x2="264.23" y2="196.19"/><line class="cls-1" x1="264.23" y1="196.19" x2="264.23" y2="196.75"/><line class="cls-1" x1="264.23" y1="197.89" x2="264.23" y2="198.17"/><line class="cls-1" x1="264.23" y1="198.17" x2="264.23" y2="199.02"/><line class="cls-1" x1="264.23" y1="200.72" x2="264.23" y2="201.29"/><line class="cls-1" x1="264.23" y1="201.29" x2="264.23" y2="201.85"/><line class="cls-1" x1="264.72" y1="201.57" x2="264.72" y2="202.14"/><line class="cls-1" x1="264.72" y1="202.14" x2="264.72" y2="202.71"/><line class="cls-1" x1="264.23" y1="252.28" x2="264.23" y2="252.84"/><line class="cls-1" x1="264.23" y1="252.84" x2="264.23" y2="253.41"/><line class="cls-1" x1="264.23" y1="254.55" x2="264.23" y2="254.83"/><line class="cls-1" x1="264.23" y1="254.83" x2="264.23" y2="255.68"/><line class="cls-1" x1="264.23" y1="257.38" x2="264.23" y2="257.94"/><line class="cls-1" x1="264.23" y1="257.94" x2="264.23" y2="258.52"/><line class="cls-1" x1="264.72" y1="258.23" x2="264.72" y2="258.8"/><line class="cls-1" x1="264.72" y1="258.8" x2="264.72" y2="259.36"/><line class="cls-1" x1="264.23" y1="308.94" x2="264.23" y2="309.51"/><line class="cls-1" x1="264.23" y1="309.51" x2="264.23" y2="310.08"/><line class="cls-1" x1="264.23" y1="311.2" x2="264.23" y2="311.49"/><line class="cls-1" x1="264.23" y1="311.49" x2="264.23" y2="312.34"/><line class="cls-1" x1="264.23" y1="314.04" x2="264.23" y2="314.61"/><line class="cls-1" x1="264.23" y1="314.61" x2="264.23" y2="315.17"/><line class="cls-1" x1="264.72" y1="314.89" x2="264.72" y2="315.46"/><line class="cls-1" x1="264.72" y1="315.46" x2="264.72" y2="316.02"/><line class="cls-1" x1="250.57" y1="347.14" x2="250.08" y2="347.42"/><line class="cls-1" x1="250.08" y1="347.42" x2="249.59" y2="347.7"/><line class="cls-1" x1="249.59" y1="347.7" x2="249.59" y2="348.27"/><line class="cls-1" x1="249.59" y1="348.27" x2="249.59" y2="349.97"/><line class="cls-1" x1="244.27" y1="327.83" x2="243.29" y2="327.26"/><line class="cls-1" x1="243.29" y1="327.26" x2="242.8" y2="326.97"/><line class="cls-1" x1="243.29" y1="326.13" x2="242.8" y2="326.41"/><line class="cls-1" x1="243.53" y1="323.44" x2="242.8" y2="323.86"/><line class="cls-1" x1="242.8" y1="323.86" x2="242.06" y2="324.28"/><line class="cls-1" x1="243.29" y1="322.16" x2="242.8" y2="321.87"/><line class="cls-1" x1="243.29" y1="321.03" x2="242.8" y2="321.31"/><line class="cls-1" x1="244.27" y1="271.17" x2="243.29" y2="270.6"/><line class="cls-1" x1="243.29" y1="270.6" x2="242.8" y2="270.32"/><line class="cls-1" x1="243.29" y1="269.47" x2="242.8" y2="269.75"/><line class="cls-1" x1="243.53" y1="266.78" x2="242.8" y2="267.2"/><line class="cls-1" x1="242.8" y1="267.2" x2="242.06" y2="267.63"/><line class="cls-1" x1="243.29" y1="265.5" x2="242.8" y2="265.22"/><line class="cls-1" x1="243.29" y1="264.37" x2="242.8" y2="264.65"/><line class="cls-1" x1="244.27" y1="214.51" x2="243.29" y2="213.94"/><line class="cls-1" x1="243.29" y1="213.94" x2="242.8" y2="213.66"/><line class="cls-1" x1="243.29" y1="212.81" x2="242.8" y2="213.09"/><line class="cls-1" x1="243.53" y1="210.12" x2="242.8" y2="210.54"/><line class="cls-1" x1="242.8" y1="210.54" x2="242.06" y2="210.97"/><line class="cls-1" x1="243.29" y1="208.84" x2="242.8" y2="208.56"/><line class="cls-1" x1="243.29" y1="207.71" x2="242.8" y2="207.99"/><line class="cls-1" x1="265.21" y1="152.09" x2="264.72" y2="152.37"/><line class="cls-1" x1="264.72" y1="152.37" x2="264.23" y2="152.66"/><line class="cls-1" x1="264.23" y1="152.66" x2="264.23" y2="153.22"/><line class="cls-1" x1="264.23" y1="153.22" x2="264.23" y2="153.79"/><line class="cls-1" x1="264.23" y1="160.96" x2="264.23" y2="161.53"/><line class="cls-1" x1="264.23" y1="161.53" x2="264.23" y2="162.1"/><line class="cls-1" x1="264.23" y1="162.1" x2="264.72" y2="161.82"/><line class="cls-1" x1="264.72" y1="161.82" x2="265.21" y2="161.53"/><line class="cls-1" x1="266.19" y1="161.53" x2="266.19" y2="160.96"/><line class="cls-1" x1="266.19" y1="150.96" x2="265.7" y2="151.24"/><line class="cls-1" x1="265.7" y1="151.24" x2="265.21" y2="151.52"/><line class="cls-1" x1="253.06" y1="151.35" x2="253.06" y2="152.49"/><line class="cls-1" x1="253.06" y1="152.49" x2="253.06" y2="153.15"/><line class="cls-1" x1="255.93" y1="151.5" x2="254.94" y2="150.93"/><line class="cls-1" x1="254.94" y1="150.93" x2="254.45" y2="150.65"/><line class="cls-1" x1="253.06" y1="346.26" x2="253.06" y2="344.61"/><line class="cls-1" x1="253.06" y1="344.61" x2="253.06" y2="344.47"/><line class="cls-1" x1="253.06" y1="344.47" x2="252.94" y2="344.54"/><line class="cls-1" x1="252.94" y1="344.54" x2="252.57" y2="344.75"/><line class="cls-1" x1="252.57" y1="344.75" x2="252.57" y2="344.33"/><line class="cls-1" x1="252.57" y1="343.71" x2="253.51" y2="343.17"/><line class="cls-1" x1="255.93" y1="344.61" x2="257.93" y2="343.46"/><line class="cls-1" x1="257.93" y1="343.46" x2="258.42" y2="343.17"/><line class="cls-1" x1="254.45" y1="343.76" x2="254.49" y2="343.78"/><line class="cls-1" x1="254.49" y1="343.78" x2="255.93" y2="344.61"/><line class="cls-1" x1="213.03" y1="158.04" x2="213.52" y2="158.32"/><line class="cls-1" x1="213.52" y1="158.32" x2="214.01" y2="158.6"/><line class="cls-1" x1="214.01" y1="158.6" x2="214.01" y2="159.17"/><line class="cls-1" x1="222.52" y1="164.08" x2="222.52" y2="163.51"/><line class="cls-1" x1="222.52" y1="163.51" x2="223.01" y2="163.8"/><line class="cls-1" x1="223.01" y1="163.8" x2="223.5" y2="164.08"/><line class="cls-1" x1="229.71" y1="167.67" x2="230.2" y2="167.95"/><line class="cls-1" x1="230.2" y1="167.95" x2="230.69" y2="168.24"/><line class="cls-1" x1="240.83" y1="173.33" x2="241.32" y2="173.62"/><line class="cls-1" x1="241.32" y1="164.18" x2="240.83" y2="163.89"/><line class="cls-1" x1="195.21" y1="128.1" x2="195.21" y2="129.23"/><line class="cls-1" x1="195.21" y1="129.23" x2="195.21" y2="129.81"/><line class="cls-1" x1="146.63" y1="108.36" x2="146.63" y2="108.93"/><line class="cls-1" x1="146.63" y1="108.93" x2="146.63" y2="109.5"/><line class="cls-1" x1="146.63" y1="109.5" x2="146.14" y2="109.22"/><line class="cls-1" x1="146.14" y1="118.66" x2="146.63" y2="118.94"/><line class="cls-1" x1="146.63" y1="118.94" x2="146.63" y2="119.51"/><line class="cls-1" x1="146.63" y1="119.51" x2="146.63" y2="120.07"/><line class="cls-1" x1="156.77" y1="125.55" x2="157.26" y2="125.84"/><line class="cls-1" x1="157.26" y1="125.84" x2="157.75" y2="126.12"/><line class="cls-1" x1="163.96" y1="129.71" x2="164.46" y2="129.99"/><line class="cls-1" x1="164.46" y1="129.99" x2="164.95" y2="130.27"/><line class="cls-1" x1="164.95" y1="130.27" x2="164.95" y2="130.84"/><line class="cls-1" x1="164.95" y1="132.54" x2="172.14" y2="136.7"/><line class="cls-1" x1="172.14" y1="136.7" x2="173.45" y2="137.45"/><line class="cls-1" x1="173.45" y1="135.75" x2="173.45" y2="135.19"/><line class="cls-1" x1="173.45" y1="135.19" x2="173.94" y2="135.47"/><line class="cls-1" x1="173.94" y1="135.47" x2="174.43" y2="135.75"/><line class="cls-1" x1="180.64" y1="139.34" x2="181.14" y2="139.62"/><line class="cls-1" x1="181.14" y1="139.62" x2="181.63" y2="139.91"/><line class="cls-1" x1="205.84" y1="153.88" x2="206.33" y2="154.17"/><line class="cls-1" x1="206.33" y1="154.17" x2="206.82" y2="154.45"/><line class="cls-1" x1="151.37" y1="105.63" x2="153.33" y2="106.76"/><line class="cls-1" x1="153.33" y1="106.76" x2="153.33" y2="107.33"/><line class="cls-1" x1="153.33" y1="107.33" x2="153.33" y2="107.89"/><line class="cls-1" x1="152.84" y1="107.61" x2="152.84" y2="110.44"/><line class="cls-1" x1="152.84" y1="110.44" x2="152.84" y2="111.01"/><line class="cls-1" x1="188.99" y1="127.35" x2="188.99" y2="127.91"/><line class="cls-1" x1="188.99" y1="127.91" x2="188.99" y2="128.48"/><line class="cls-1" x1="188.5" y1="128.19" x2="188.5" y2="131.03"/><line class="cls-1" x1="188.5" y1="131.03" x2="188.5" y2="131.6"/><line class="cls-1" x1="200.43" y1="133.96" x2="202.4" y2="135.09"/><line class="cls-1" x1="202.4" y1="135.09" x2="202.4" y2="135.66"/><line class="cls-1" x1="202.4" y1="135.66" x2="202.4" y2="136.22"/><line class="cls-1" x1="201.91" y1="135.94" x2="201.91" y2="138.77"/><line class="cls-1" x1="201.91" y1="138.77" x2="201.91" y2="139.34"/><line class="cls-1" x1="236.1" y1="154.54" x2="238.06" y2="155.68"/><line class="cls-1" x1="238.06" y1="155.68" x2="238.06" y2="156.25"/><line class="cls-1" x1="238.06" y1="156.25" x2="238.06" y2="156.81"/><line class="cls-1" x1="237.57" y1="156.53" x2="237.57" y2="159.36"/><line class="cls-1" x1="237.57" y1="159.36" x2="237.57" y2="159.92"/><line class="cls-1" x1="244.27" y1="173.62" x2="244.27" y2="173.24"/><line class="cls-1" x1="212.54" y1="138.11" x2="212.05" y2="138.4"/><line class="cls-1" x1="212.05" y1="138.4" x2="211.07" y2="138.97"/><line class="cls-1" x1="193.73" y1="127.25" x2="193.24" y2="127.54"/><line class="cls-1" x1="193.24" y1="127.54" x2="192.26" y2="128.1"/><line class="cls-1" x1="177.38" y1="117.81" x2="163.64" y2="109.88"/><line class="cls-1" x1="163.64" y1="109.88" x2="163.47" y2="109.79"/><line class="cls-1" x1="163.47" y1="109.79" x2="162.98" y2="110.07"/><line class="cls-1" x1="162.98" y1="110.07" x2="162" y2="110.63"/><line class="cls-1" x1="236.1" y1="157.37" x2="235.6" y2="157.66"/><line class="cls-1" x1="235.6" y1="157.66" x2="234.62" y2="158.23"/><line class="cls-1" x1="200.43" y1="136.79" x2="199.94" y2="137.07"/><line class="cls-1" x1="199.94" y1="137.07" x2="198.97" y2="137.64"/><line class="cls-1" x1="187.03" y1="129.05" x2="186.54" y2="129.33"/><line class="cls-1" x1="186.54" y1="129.33" x2="185.56" y2="129.9"/><line class="cls-1" x1="151.37" y1="108.46" x2="150.88" y2="108.75"/><line class="cls-1" x1="150.88" y1="108.75" x2="149.89" y2="109.31"/><line class="cls-1" x1="234.95" y1="145.38" x2="235.44" y2="145.67"/><line class="cls-1" x1="235.44" y1="145.67" x2="235.93" y2="145.95"/><line class="cls-1" x1="235.93" y1="145.95" x2="235.93" y2="146.52"/><line class="cls-1" x1="235.93" y1="146.52" x2="235.93" y2="147.09"/><line class="cls-1" x1="244.43" y1="150.86" x2="244.93" y2="151.15"/><line class="cls-1" x1="244.93" y1="151.15" x2="245.42" y2="151.43"/><line class="cls-1" x1="264.72" y1="161.82" x2="264.72" y2="160.68"/><line class="cls-1" x1="217.12" y1="115.45" x2="217.12" y2="116.58"/><line class="cls-1" x1="217.12" y1="116.58" x2="217.12" y2="117.15"/><line class="cls-1" x1="168.54" y1="95.71" x2="168.54" y2="96.28"/><line class="cls-1" x1="168.54" y1="96.28" x2="168.54" y2="96.85"/><line class="cls-1" x1="167.56" y1="105.72" x2="168.05" y2="106.01"/><line class="cls-1" x1="168.05" y1="106.01" x2="168.54" y2="106.29"/><line class="cls-1" x1="168.54" y1="106.29" x2="168.54" y2="106.85"/><line class="cls-1" x1="168.54" y1="106.85" x2="168.54" y2="107.42"/><line class="cls-1" x1="178.68" y1="112.9" x2="179.17" y2="113.18"/><line class="cls-1" x1="179.17" y1="113.18" x2="179.66" y2="113.46"/><line class="cls-1" x1="185.88" y1="117.05" x2="186.37" y2="117.34"/><line class="cls-1" x1="186.37" y1="117.34" x2="186.87" y2="117.62"/><line class="cls-1" x1="186.87" y1="117.62" x2="186.87" y2="118.19"/><line class="cls-1" x1="186.87" y1="118.19" x2="186.87" y2="118.75"/><line class="cls-1" x1="195.37" y1="122.53" x2="195.86" y2="122.81"/><line class="cls-1" x1="195.86" y1="122.81" x2="196.35" y2="123.1"/><line class="cls-1" x1="202.56" y1="126.68" x2="203.05" y2="126.97"/><line class="cls-1" x1="203.05" y1="126.97" x2="203.54" y2="127.25"/><line class="cls-1" x1="227.76" y1="141.23" x2="228.24" y2="141.51"/><line class="cls-1" x1="228.24" y1="141.51" x2="228.73" y2="141.8"/><line class="cls-1" x1="173.29" y1="92.98" x2="175.25" y2="94.11"/><line class="cls-1" x1="175.25" y1="94.11" x2="175.25" y2="94.67"/><line class="cls-1" x1="175.25" y1="94.67" x2="175.25" y2="95.24"/><line class="cls-1" x1="174.76" y1="94.96" x2="174.76" y2="97.79"/><line class="cls-1" x1="174.76" y1="97.79" x2="174.76" y2="98.36"/><line class="cls-1" x1="210.9" y1="114.69" x2="210.9" y2="115.26"/><line class="cls-1" x1="210.9" y1="115.26" x2="210.9" y2="115.83"/><line class="cls-1" x1="210.41" y1="115.54" x2="210.41" y2="118.38"/><line class="cls-1" x1="210.41" y1="118.38" x2="210.41" y2="118.94"/><line class="cls-1" x1="222.35" y1="121.3" x2="224.32" y2="122.44"/><line class="cls-1" x1="224.32" y1="122.44" x2="224.32" y2="123.01"/><line class="cls-1" x1="224.32" y1="123.01" x2="224.32" y2="123.57"/><line class="cls-1" x1="223.83" y1="123.29" x2="223.83" y2="126.12"/><line class="cls-1" x1="223.83" y1="126.12" x2="223.83" y2="126.68"/><line class="cls-1" x1="258.01" y1="141.89" x2="259.97" y2="143.03"/><line class="cls-1" x1="259.97" y1="143.03" x2="259.97" y2="143.59"/><line class="cls-1" x1="259.97" y1="143.59" x2="259.97" y2="143.97"/><line class="cls-1" x1="266.19" y1="151.52" x2="265.21" y2="152.09"/><line class="cls-1" x1="234.46" y1="125.46" x2="233.97" y2="125.74"/><line class="cls-1" x1="233.97" y1="125.74" x2="232.98" y2="126.31"/><line class="cls-1" x1="215.65" y1="114.6" x2="215.16" y2="114.88"/><line class="cls-1" x1="215.16" y1="114.88" x2="214.18" y2="115.45"/><line class="cls-1" x1="185.39" y1="97.13" x2="184.9" y2="97.41"/><line class="cls-1" x1="184.9" y1="97.41" x2="183.92" y2="97.98"/><line class="cls-1" x1="184.41" y1="94.86" x2="172.14" y2="87.78"/><line class="cls-1" x1="172.14" y1="87.78" x2="169.52" y2="86.27"/><line class="cls-1" x1="258.01" y1="144.72" x2="257.52" y2="145.01"/><line class="cls-1" x1="257.52" y1="145.01" x2="256.54" y2="145.58"/><line class="cls-1" x1="222.35" y1="124.13" x2="221.86" y2="124.42"/><line class="cls-1" x1="221.86" y1="124.42" x2="220.88" y2="124.99"/><line class="cls-1" x1="208.94" y1="116.4" x2="208.45" y2="116.68"/><line class="cls-1" x1="208.45" y1="116.68" x2="207.47" y2="117.24"/><line class="cls-1" x1="173.29" y1="95.81" x2="172.8" y2="96.09"/><line class="cls-1" x1="172.8" y1="96.09" x2="171.81" y2="96.66"/><line class="cls-1" x1="161.75" y1="287.36" x2="162.74" y2="286.8"/><line class="cls-1" x1="162.74" y1="286.8" x2="172.14" y2="281.37"/><line class="cls-1" x1="226.45" y1="342.74" x2="226.94" y2="342.46"/><line class="cls-1" x1="226.94" y1="342.46" x2="227.43" y2="342.18"/><line class="cls-1" x1="177.38" y1="314.42" x2="177.87" y2="314.14"/><line class="cls-1" x1="177.87" y1="314.14" x2="178.36" y2="313.85"/><line class="cls-1" x1="152.92" y1="292.46" x2="153.91" y2="291.9"/><line class="cls-1" x1="169.28" y1="295.1" x2="170.26" y2="294.54"/><line class="cls-1" x1="200.03" y1="319.66" x2="200.52" y2="319.94"/><line class="cls-1" x1="218.35" y1="323.44" x2="219.33" y2="322.87"/><line class="cls-1" x1="163.96" y1="130.27" x2="164.95" y2="130.84"/><line class="cls-1" x1="180.64" y1="139.91" x2="181.63" y2="140.48"/><line class="cls-1" x1="213.03" y1="158.6" x2="214.01" y2="159.17"/><line class="cls-1" x1="229.71" y1="168.24" x2="230.69" y2="168.8"/><line class="cls-1" x1="157.79" y1="286.82" x2="158.36" y2="286.49"/><line class="cls-1" x1="167.56" y1="256.53" x2="167.56" y2="255.96"/><line class="cls-1" x1="167.56" y1="255.96" x2="167.56" y2="255.68"/><line class="cls-1" x1="167.56" y1="199.87" x2="167.56" y2="199.3"/><line class="cls-1" x1="167.56" y1="199.3" x2="167.56" y2="199.02"/><line class="cls-1" x1="167.56" y1="143.21" x2="167.56" y2="142.64"/><line class="cls-1" x1="167.56" y1="142.64" x2="167.56" y2="142.36"/><line class="cls-1" x1="172.14" y1="84.76" x2="169.52" y2="86.27"/><line class="cls-1" x1="152.92" y1="96.99" x2="152.92" y2="96.42"/><line class="cls-1" x1="152.92" y1="96.42" x2="152.92" y2="95.85"/><line class="cls-1" x1="146.14" y1="121.68" x2="146.14" y2="152.19"/><line class="cls-1" x1="146.63" y1="151.9" x2="147.12" y2="151.62"/><line class="cls-1" x1="147.12" y1="151.62" x2="148.1" y2="151.05"/><line class="cls-1" x1="146.63" y1="208.56" x2="147.12" y2="208.28"/><line class="cls-1" x1="147.12" y1="208.28" x2="148.1" y2="207.71"/><line class="cls-1" x1="146.63" y1="265.22" x2="147.12" y2="264.94"/><line class="cls-1" x1="147.12" y1="264.94" x2="148.1" y2="264.37"/><line class="cls-1" x1="241.32" y1="339.25" x2="241.32" y2="328.96"/><line class="cls-1" x1="241.32" y1="164.18" x2="241.32" y2="163.61"/><line class="cls-1" x1="241.32" y1="163.61" x2="241.32" y2="163.04"/><line class="cls-1" x1="242.8" y1="153.88" x2="245.74" y2="152.19"/><line class="cls-1" x1="245.74" y1="152.19" x2="248.12" y2="150.81"/><line class="cls-1" x1="264.72" y1="141.23" x2="267.34" y2="139.72"/><line class="cls-1" x1="249.59" y1="151.66" x2="249.59" y2="152.23"/><line class="cls-1" x1="249.59" y1="152.23" x2="249.59" y2="152.8"/><line class="cls-1" x1="244.76" y1="325.28" x2="243.78" y2="325.84"/><line class="cls-1" x1="243.78" y1="325.84" x2="243.29" y2="326.13"/><line class="cls-1" x1="244.76" y1="320.18" x2="243.78" y2="320.75"/><line class="cls-1" x1="243.78" y1="320.75" x2="243.29" y2="321.03"/><line class="cls-1" x1="244.76" y1="268.61" x2="243.78" y2="269.19"/><line class="cls-1" x1="243.78" y1="269.19" x2="243.29" y2="269.47"/><line class="cls-1" x1="244.76" y1="263.51" x2="243.78" y2="264.08"/><line class="cls-1" x1="243.78" y1="264.08" x2="243.29" y2="264.37"/><line class="cls-1" x1="244.76" y1="211.96" x2="243.78" y2="212.52"/><line class="cls-1" x1="243.78" y1="212.52" x2="243.29" y2="212.81"/><line class="cls-1" x1="244.76" y1="206.86" x2="243.78" y2="207.42"/><line class="cls-1" x1="243.78" y1="207.42" x2="243.29" y2="207.71"/><line class="cls-1" x1="266.19" y1="151.52" x2="266.19" y2="150.96"/><line class="cls-1" x1="252.57" y1="344.33" x2="252.57" y2="344.19"/><line class="cls-1" x1="252.57" y1="344.19" x2="252.57" y2="343.71"/><line class="cls-1" x1="253.51" y1="343.17" x2="254.45" y2="342.63"/><line class="cls-1" x1="150.88" y1="105.34" x2="151.37" y2="105.63"/><line class="cls-1" x1="185.06" y1="125.08" x2="186.05" y2="125.65"/><line class="cls-1" x1="186.05" y1="125.65" x2="186.54" y2="125.93"/><line class="cls-1" x1="186.54" y1="125.93" x2="187.03" y2="126.21"/><line class="cls-1" x1="187.03" y1="126.21" x2="188.99" y2="127.35"/><line class="cls-1" x1="199.94" y1="133.68" x2="200.43" y2="133.96"/><line class="cls-1" x1="235.6" y1="154.26" x2="236.1" y2="154.54"/><line class="cls-1" x1="244.27" y1="173.24" x2="244.27" y2="173.05"/><line class="cls-1" x1="226.45" y1="147.27" x2="226.45" y2="146.7"/><line class="cls-1" x1="226.45" y1="146.7" x2="226.45" y2="146.14"/><line class="cls-1" x1="177.38" y1="118.94" x2="177.38" y2="118.38"/><line class="cls-1" x1="177.38" y1="118.38" x2="177.38" y2="117.81"/><line class="cls-1" x1="264.72" y1="153.51" x2="264.72" y2="152.37"/><line class="cls-1" x1="172.8" y1="92.69" x2="173.29" y2="92.98"/><line class="cls-1" x1="206.98" y1="112.43" x2="207.96" y2="112.99"/><line class="cls-1" x1="207.96" y1="112.99" x2="208.45" y2="113.28"/><line class="cls-1" x1="208.45" y1="113.28" x2="208.94" y2="113.56"/><line class="cls-1" x1="208.94" y1="113.56" x2="210.9" y2="114.69"/><line class="cls-1" x1="221.86" y1="121.02" x2="222.35" y2="121.3"/><line class="cls-1" x1="257.52" y1="141.61" x2="258.01" y2="141.89"/><line class="cls-1" x1="266.19" y1="160.96" x2="265.7" y2="161.25"/><line class="cls-1" x1="265.7" y1="161.25" x2="265.21" y2="161.53"/><line class="cls-1" x1="248.36" y1="134.62" x2="248.36" y2="134.05"/><line class="cls-1" x1="248.36" y1="134.05" x2="248.36" y2="133.48"/><line class="cls-1" x1="199.29" y1="106.29" x2="199.29" y2="105.72"/><line class="cls-1" x1="199.29" y1="105.72" x2="199.29" y2="105.16"/><line class="cls-1" x1="168.3" y1="295.67" x2="168.79" y2="295.39"/><line class="cls-1" x1="168.79" y1="295.39" x2="169.28" y2="295.1"/><line class="cls-1" x1="198.56" y1="318.81" x2="199.54" y2="319.38"/><line class="cls-1" x1="199.54" y1="319.38" x2="200.03" y2="319.66"/><line class="cls-1" x1="217.37" y1="324" x2="217.86" y2="323.72"/><line class="cls-1" x1="217.86" y1="323.72" x2="218.35" y2="323.44"/><line class="cls-1" x1="158.36" y1="286.49" x2="158.85" y2="286.2"/><line class="cls-1" x1="158.85" y1="286.2" x2="159.75" y2="285.69"/><line class="cls-1" x1="241.32" y1="351.34" x2="241.32" y2="340.1"/><line class="cls-1" x1="241.32" y1="340.1" x2="241.32" y2="339.25"/><line class="cls-1" x1="241.32" y1="174.76" x2="241.32" y2="174.18"/><line class="cls-1" x1="241.32" y1="174.18" x2="241.32" y2="173.62"/><line class="cls-1" x1="257.93" y1="145.15" x2="259.48" y2="144.25"/><line class="cls-1" x1="259.48" y1="144.25" x2="259.81" y2="144.06"/><line class="cls-1" x1="259.81" y1="144.06" x2="259.97" y2="143.97"/><line class="cls-1" x1="259.97" y1="143.97" x2="263.24" y2="142.08"/><line class="cls-1" x1="254.45" y1="342.63" x2="255.03" y2="342.29"/><line class="cls-1" x1="149.4" y1="104.5" x2="150.39" y2="105.06"/><line class="cls-1" x1="150.39" y1="105.06" x2="150.88" y2="105.34"/><line class="cls-1" x1="198.48" y1="132.83" x2="199.45" y2="133.39"/><line class="cls-1" x1="199.45" y1="133.39" x2="199.94" y2="133.68"/><line class="cls-1" x1="234.13" y1="153.41" x2="235.11" y2="153.98"/><line class="cls-1" x1="235.11" y1="153.98" x2="235.6" y2="154.26"/><line class="cls-1" x1="244.27" y1="173.05" x2="244.27" y2="172.49"/><line class="cls-1" x1="171.32" y1="91.84" x2="172.3" y2="92.4"/><line class="cls-1" x1="172.3" y1="92.4" x2="172.8" y2="92.69"/><line class="cls-1" x1="220.39" y1="120.17" x2="221.37" y2="120.74"/><line class="cls-1" x1="221.37" y1="120.74" x2="221.86" y2="121.02"/><line class="cls-1" x1="256.05" y1="140.76" x2="257.03" y2="141.32"/><line class="cls-1" x1="257.03" y1="141.32" x2="257.52" y2="141.61"/><line class="cls-1" x1="255.03" y1="342.29" x2="255.52" y2="342.01"/><line class="cls-1" x1="255.52" y1="342.01" x2="256.42" y2="341.5"/><line class="cls-1" x1="244.27" y1="165.31" x2="244.27" y2="164.74"/><line class="cls-1" x1="244.27" y1="164.74" x2="244.27" y2="164.18"/><line class="cls-1" x1="147.61" y1="270.88" x2="146.14" y2="270.03"/><line class="cls-1" x1="147.61" y1="266.92" x2="146.63" y2="266.35"/><line class="cls-1" x1="147.61" y1="214.22" x2="146.14" y2="213.38"/><line class="cls-1" x1="147.61" y1="210.26" x2="146.63" y2="209.69"/><line class="cls-1" x1="147.61" y1="157.57" x2="146.14" y2="156.72"/><line class="cls-1" x1="147.61" y1="153.6" x2="146.63" y2="153.03"/><line class="cls-1" x1="244.27" y1="326.69" x2="243.29" y2="326.13"/><line class="cls-1" x1="244.27" y1="322.73" x2="243.29" y2="322.16"/><line class="cls-1" x1="244.27" y1="270.03" x2="243.29" y2="269.47"/><line class="cls-1" x1="244.27" y1="266.06" x2="243.29" y2="265.5"/><line class="cls-1" x1="244.27" y1="213.38" x2="243.29" y2="212.81"/><line class="cls-1" x1="244.27" y1="209.41" x2="243.29" y2="208.84"/><line class="cls-1" x1="226.45" y1="148.41" x2="226.45" y2="147.27"/><line class="cls-1" x1="177.38" y1="120.07" x2="177.38" y2="118.94"/><line class="cls-1" x1="248.36" y1="135.75" x2="248.36" y2="134.62"/><line class="cls-1" x1="199.29" y1="107.42" x2="199.29" y2="106.29"/><path class="cls-2" d="M203.06-1362.81v3.31l12.27,7.08v2.26l.49.29.49-.29,13.9,8,1.47-.85,14.65,8.45,2.86-1.65,1.47.85v52.69l-4.58,2.65v.56l.49.28v.57l1.48.86v1.69l-2,1.14v.56l.49.28v.57l2.62-1.51,1.47.85V-1226l-4.58,2.65v.56l.49.28v.57l1.48.85v1.7l-2,1.13v.57l.49.28v.57l2.62-1.51,1.47.85v48.16l-4.58,2.64v.57l.49.28v.57l1.48.85v1.7l-2,1.13v.57l.49.29v.56l2.62-1.51,1.47.85v24.08l-9.41,5.43-1.47-.85-2,1.16-1.47-.85V-1133l-1.88,1.09v.47l.5.29v1.79l-2.5,1.44-.49-.29-.49.29v2.26l-6.79,3.92-1.47-.84-14.88-8.6v-2.27l-.49-.28-.49.28-13.91-8-1.47.85-14.88-8.6-1.47-.84v-24.08l2-1.14v-.57l-.49-.28v-.56l-1.47-.86v-1.69l2-1.14v-.56l-.49-.29v-.56l-1.47-.86v-48.15l2-1.14v-.56l-.49-.29v-.56l-1.47-.86v-1.69l2-1.14v-.56l-.49-.28v-.57l-1.47-.85v-48.16l2-1.14v-.56l-.49-.28v-.58l-1.47-.84v-1.71l2-1.12v-.57l-.49-.28v-.58l-1.47-.84v-52.7l6.78-3.91,1.48.85,2-1.16,1.47.85v1.13l1.88-1.08v-.47l-.49-.29v-1.79l2.49-1.44.49.28.5-.28v-2.27l9.4-5.43-9.4,5.43m39.75,558.32v1.68l-1.46.85v.56l-.49.28v.56l1.95,1.12v47.72l-1.46.84v.56l-.49.28v.56l1.95,1.13v1.68l-1.46.84v.56l-.49.29v.56l1.95,1.12V-691l-1.46.84v.56l-.49.28v.56l1.95,1.13v1.68l-1.46.84v.56l-.49.28v.57l1.95,1.12v23.86l-1.46.84-2,1.13-2,1.14-2,1.13-2,1.14-1.46-.85-.13.08-.62.36-.62.35-.62.36-1.46-.84V-655l-1.86,1.07v.47l.49.28v1.78l-.62.35-.62.36-.62.36-.61.35-.49-.28-.24.14-.25.14v2.25l-1.68,1-1.68,1-1.68,1-1.68,1-1.46-.84-1.32-.76-1.31-.76-1.32-.76-1.32-.76V-650l-.24-.14-.24-.14-.49.28-.62-.35-.61-.36-.62-.36-.62-.35v-1.78l.49-.28v-.47l-1-.55-.91-.52v1.12l-1.46.84-.61-.36-.62-.35-.62-.36-.13-.08-.29.17-.29.17-.3.17-.29.17-.29.17-2-1.14-2-1.13-2-1.14-2-1.13-1.46-.84v-23.86l1.95-1.13v-.56l-.49-.28v-.56l-1.46-.84v-1.68l1.95-1.13v-.56l-.49-.28v-.56L180.4-691v-47.72l1.95-1.12v-.56l-.49-.29v-.56l-1.46-.84v-1.68l1.95-1.13v-.56l-.49-.28v-.56l-1.46-.84v-47.72l1.95-1.12v-.56l-.49-.28v-.56l-1.46-.85v-1.68l1.95-1.12v-.57l-.49-.28v-.56l-1.46-.84v-51.93l6.73-3.88,1.46.84,2-1.14,1.46.84v1.12l1.86-1.08V-859l-.48-.28V-861l2.47-1.43.48.28.49-.28v-2.24l9.32-5.38,1.46.84,7.86,4.54v2.24l.48.28.49-.28,2.47,1.43v1.78l-.49.28v.46l1.87,1.08v-1.12l1.46-.84,2,1.14,1.46-.84,6.73,3.88v51.93l-1.46.84v.56l-.49.28v.57Zm-90.29,607v-24.08l2-1.13v-.57l-.49-.28v-.57l-1.47-.85V-222l2-1.13v-.57l-.49-.28v-.57l-1.47-.85v-48.16l2-1.13v-.57l-.49-.28v-1.13l.49-.28v-.29l-1.22.71-.74-.42v-1.71l2-1.13v-.57l-.49-.28v-.57l-1.47-.84v-48.17l2-1.13V-332l-.49-.28v-1.13l.49-.28v-.29l-1.22.71-.74-.42v-1.7l2-1.14v-.57l-.49-.28v-.56l-1.47-.85v-52.42l6.78-3.91,1.48.85,2-1.16,1.48.85v1.13l1.88-1.09V-395l-.49-.28V-397l2.49-1.44.49.28.49-.28v-2.27l9.4-5.43,1.47.85v3l12.27,7.08V-393l.49.28.5-.28,13.9,8,1.47-.85,14.88,8.59,2.62-1.51,1.48.85,1.46.85v3l12.27,7.09v2.26l.49.29.49-.29,13.91,8,1.47-.85,14.88,8.59,2.62-1.51,1.47.85v52.41l-4.58,2.64v.57l.49.28v1.14l-.49.28v.28l1.23-.7.73.42v1.7l-2,1.13v.57l.49.28v.57l2.62-1.51,1.47.85v48.16l-4.58,2.64v.57l.49.28v1.14l-.49.28v.28l1.23-.7.73.42v1.7l-2,1.13v.57l.49.28v.57l2.62-1.51,1.47.85v48.16l-4.58,2.64v.57l.49.28v.57l1.47.85v1.7l-2,1.13v.57l.49.28v.57l2.62-1.51,1.47.84v24.08l-9.4,5.43-1.47-.84-2,1.15-1.47-.84v-1.14l-1.88,1.09v.47l.49.28v1.79l-2.49,1.44-.49-.28-.49.28v2.27l-6.8,3.92-1.47-.85-14.88-8.59v-2.27l-.49-.28-.49.28-13.91-8-1.46.84-14.89-8.59-1.47-.85-1.48-.85L174.36-174v-2.27l-.49-.28-.49.28-13.91-8-1.47.85L143.12-192ZM268.72,193l-4.57,2.64v.57l.49.28v1.14l-.49.28v.28l1.22-.7.74.42v1.7l-2,1.13v.57l.49.28v.57l2.61-1.51,1.47.85v48.16l-4.57,2.64v.56l.49.29v1.13l-.49.29v.28l1.22-.71.74.43v1.7l-2,1.13v.56l.49.29v.57l2.61-1.51,1.47.84V306.3l-4.57,2.64v.57l.49.28v1.13l-.49.28v.29l1.22-.71.74.42v1.71l-2,1.13v.57l.49.28v.57l2.61-1.52,1.47.85v24.08l-9.4,5.43-1.47-.84-2,1.15-1.44.83-1.43-.83v1.65l-2.5,1.44-1,.57V350l-6.78,3.92-1.48-.85-14.88-8.6v-1.7l-13.9-8v-.57l-.49-.28L210,335l-32.71-18.88v-1.7l-13.9-8v-.57l-.49-.28-2,1.13-14.89-8.59-1.46-.85V273.15l1.95-1.13v-.57l-.49-.28V270l.49-.28v-.28l-1.22.7-.73-.42v-1.7l1.95-1.13v-.57l-.49-.28v-.57l-1.46-.85V216.49l1.95-1.13v-.57l-.49-.28v-1.13l.49-.29v-.28l-1.22.71-.73-.43v-1.7l1.95-1.13v-.57l-.49-.28v-.57l-1.46-.85V159.83l1.95-1.13v-.57l-.49-.28v-1.13l.49-.29v-.28l-1.22.71-.73-.43v-1.7l1.95-1.13V153l-.49-.28v-.56l-1.46-.86V98.92L151.37,95l1.47.85,2-1.15,1.47.85v1.13l1.88-1.09v-.47l-.5-.28V93l2.5-1.43.49.28.49-.28V89.34l9.41-5.43,1.47.85v3l12.27,7.08v2.27l.49.28.49-.28,13.9,8,1.47-.86,14.89,8.6v1.7l-.49.28v.57l2,1.13v-1.13l1.47-.85,14.89,8.59v2.27l.49.29.49-.29,13.9,8,1.47-.84,14.89,8.59,2.61-1.51,1.47.85Z"/><polygon class="cls-2" points="241.24 176.64 230.61 170.5 222.44 165.78 213.93 160.87 205.75 156.15 181.55 142.17 173.37 137.45 172.06 136.7 172.06 137.17 167.48 139.81 167.48 140.38 167.97 140.66 167.97 141.23 168.7 141.66 168.7 143.35 167.97 143.78 167.97 144.63 167.48 144.91 167.48 145.47 167.97 145.76 167.97 146.33 170.59 144.82 172.06 145.67 172.06 193.83 167.48 196.47 167.48 197.04 167.97 197.32 167.97 197.89 168.7 198.31 168.7 200.01 167.97 200.44 167.97 201.29 167.48 201.57 167.48 202.14 167.97 202.42 167.97 202.99 170.59 201.48 172.06 202.32 172.06 250.49 167.48 253.13 167.48 253.7 167.97 253.98 167.97 254.55 168.7 254.97 168.7 256.67 167.97 257.1 167.97 257.94 167.48 258.23 167.48 258.8 167.97 259.08 167.97 259.65 170.59 258.13 172.06 258.99 172.06 281.37 243.21 322.44 243.21 322.16 242.72 321.87 242.72 321.31 241.24 320.46 241.24 272.3 243.21 271.17 243.21 270.6 242.72 270.32 242.72 269.75 241.98 269.33 241.98 267.63 242.72 267.2 242.72 266.35 243.21 266.06 243.21 265.5 242.72 265.22 242.72 264.65 241.24 263.8 241.24 215.64 243.21 214.51 243.21 213.94 242.72 213.66 242.72 213.09 241.98 212.67 241.98 210.97 242.72 210.54 242.72 209.69 243.21 209.41 243.21 208.84 242.72 208.56 242.72 208 241.24 207.14 241.24 176.64"/></svg>