<svg id="Layer_1" data-name="Layer 1" xmlns="http://www.w3.org/2000/svg" viewBox="0 0 212.6 425.2"><defs><style>.cls-1{font-size:6px;fill:#1d1d1b;font-family:Monotxt;}.cls-2,.cls-3{fill:none;stroke:#1d1d1b;stroke-miterlimit:10;}.cls-2{stroke-width:0.5px;}.cls-3{stroke-width:0.25px;}</style></defs><g id="MTEXT"><text class="cls-1" transform="translate(171.27 196.75) rotate(90)">DOOR-S1/D</text></g><g id="MTEXT-2" data-name="MTEXT"><text class="cls-1" transform="translate(125.17 230.83) rotate(-90)">DOOR-S1/E</text></g><g id="MTEXT-3" data-name="MTEXT"><text class="cls-1" transform="translate(110.3 39.82)">&lt;PEG</text></g><g id="MTEXT-4" data-name="MTEXT"><text class="cls-1" transform="translate(110.1 72.68)">&lt;PEG</text></g><g id="MTEXT-5" data-name="MTEXT"><text class="cls-1" transform="translate(110.1 61.73)">&lt;PEG</text></g><g id="MTEXT-6" data-name="MTEXT"><text class="cls-1" transform="translate(110.2 50.77)">&lt;PEG</text></g><g id="MTEXT-7" data-name="MTEXT"><text class="cls-1" transform="translate(158.17 39.82)">&lt;PEG</text></g><g id="MTEXT-8" data-name="MTEXT"><text class="cls-1" transform="translate(157.97 72.68)">&lt;PEG</text></g><g id="MTEXT-9" data-name="MTEXT"><text class="cls-1" transform="translate(157.97 61.73)">&lt;PEG</text></g><g id="MTEXT-10" data-name="MTEXT"><text class="cls-1" transform="translate(158.07 50.77)">&lt;PEG</text></g><g id="MTEXT-11" data-name="MTEXT"><text class="cls-1" transform="translate(23.22 104.75) rotate(90)">DOOR-S1/A</text></g><g id="MTEXT-12" data-name="MTEXT"><text class="cls-1" transform="translate(87.06 103.78) rotate(90)">DOOR-S1/C</text></g><g id="MTEXT-13" data-name="MTEXT"><text class="cls-1" transform="translate(70.01 285.14) rotate(90)">DOOR-S1/B</text></g><g id="MTEXT-14" data-name="MTEXT"><text class="cls-1" transform="translate(23.22 286.83) rotate(90)">DOOR-S1/A</text></g><g id="POLYLINE"><polygon class="cls-2" points="168.2 79.83 168.2 80.73 166.33 80.73 166.33 77.13 149.15 77.13 149.15 160.33 157.55 160.33 157.55 162.21 156.65 162.21 156.65 163.94 157.55 163.94 157.55 165.81 153.95 165.81 153.95 168.44 157.55 168.44 157.55 170.31 156.65 170.31 156.65 172.04 157.55 172.04 157.55 173.91 149.15 173.91 149.15 250.37 157.55 250.37 157.55 252.24 156.65 252.24 156.65 253.97 157.55 253.97 157.55 255.84 153.95 255.84 153.95 258.47 157.55 258.47 157.55 260.35 156.65 260.35 156.65 262.07 157.55 262.07 157.55 263.95 149.15 263.95 149.15 340.4 157.55 340.4 157.55 342.27 156.65 342.27 156.65 344 157.55 344 157.55 345.88 153.95 345.88 153.95 348.5 157.55 348.5 157.55 350.38 156.65 350.38 156.65 352.1 157.55 352.1 157.55 353.98 149.15 353.98 149.15 392.17 166.33 392.17 166.33 388.57 168.2 388.57 168.2 389.47 172.67 389.47 172.67 386.77 171.77 386.77 171.77 384.96 178.97 384.96 178.97 386.77 178.07 386.77 178.07 389.47 182.53 389.47 182.53 388.57 184.41 388.57 184.41 392.17 196.79 392.17 196.79 353.98 193.19 353.98 193.19 352.1 194.09 352.1 194.09 350.38 193.19 350.38 193.19 348.5 196.79 348.5 196.79 345.88 193.19 345.88 193.19 344 194.09 344 194.09 342.27 193.19 342.27 193.19 340.4 196.79 340.4 196.79 263.95 193.19 263.95 193.19 262.07 194.09 262.07 194.09 260.35 193.19 260.35 193.19 258.47 196.79 258.47 196.79 255.84 193.19 255.84 193.19 253.97 194.09 253.97 194.09 252.24 193.19 252.24 193.19 250.37 196.79 250.37 196.79 173.91 193.19 173.91 193.19 172.04 194.09 172.04 194.09 170.31 193.19 170.31 193.19 168.44 196.79 168.44 196.79 165.81 193.19 165.81 193.19 163.94 194.09 163.94 194.09 162.21 193.19 162.21 193.19 160.33 196.79 160.33 196.79 107.14 193.19 107.14 193.19 105.26 194.09 105.26 194.09 93.94 193.19 93.94 193.19 92.06 196.79 92.06 196.79 77.13 184.41 77.13 184.41 80.73 182.53 80.73 182.53 79.83 178.07 79.83 178.07 82.53 178.97 82.53 178.97 84.33 171.77 84.33 171.77 82.53 172.67 82.53 172.67 79.83 168.2 79.83"/></g><g id="POLYLINE-2" data-name="POLYLINE"><polygon class="cls-2" points="113.88 79.83 118.35 79.83 118.35 82.53 117.45 82.53 117.45 84.33 124.65 84.33 124.65 82.53 123.75 82.53 123.75 79.83 128.21 79.83 128.21 80.73 130.09 80.73 130.09 77.13 147.27 77.13 147.27 160.33 138.87 160.33 138.87 162.21 139.77 162.21 139.77 163.94 138.87 163.94 138.87 165.81 142.47 165.81 142.47 168.44 138.87 168.44 138.87 170.31 139.77 170.31 139.77 172.04 138.87 172.04 138.87 173.91 147.27 173.91 147.27 250.37 138.87 250.37 138.87 252.24 139.77 252.24 139.77 253.97 138.87 253.97 138.87 255.84 142.47 255.84 142.47 258.47 138.87 258.47 138.87 260.35 139.77 260.35 139.77 262.07 138.87 262.07 138.87 263.95 147.27 263.95 147.27 340.4 138.87 340.4 138.87 342.27 139.77 342.27 139.77 344 138.87 344 138.87 345.88 142.47 345.88 142.47 348.5 138.87 348.5 138.87 350.38 139.77 350.38 139.77 352.1 138.87 352.1 138.87 353.98 147.27 353.98 147.27 392.17 130.09 392.17 130.09 388.57 128.21 388.57 128.21 389.47 123.75 389.47 123.75 386.77 124.65 386.77 124.65 384.96 117.45 384.96 117.45 386.77 118.35 386.77 118.35 389.47 113.88 389.47 113.88 388.57 112.01 388.57 112.01 392.17 99.63 392.17 99.63 353.98 103.23 353.98 103.23 352.1 102.33 352.1 102.33 350.38 103.23 350.38 103.23 348.5 99.63 348.5 99.63 345.88 103.23 345.88 103.23 344 102.33 344 102.33 342.27 103.23 342.27 103.23 340.4 99.63 340.4 99.63 263.95 103.23 263.95 103.23 262.07 102.33 262.07 102.33 260.35 103.23 260.35 103.23 258.47 99.63 258.47 99.63 255.84 103.23 255.84 103.23 253.97 102.33 253.97 102.33 252.24 103.23 252.24 103.23 250.37 99.63 250.37 99.63 173.91 103.23 173.91 103.23 172.04 102.33 172.04 102.33 170.31 103.23 170.31 103.23 168.44 99.63 168.44 99.63 165.81 103.23 165.81 103.23 163.94 102.33 163.94 102.33 162.21 103.23 162.21 103.23 160.33 99.63 160.33 99.63 107.14 103.23 107.14 103.23 105.26 102.33 105.26 102.33 93.94 103.23 93.94 103.23 92.06 99.63 92.06 99.63 77.13 112.01 77.13 112.01 80.73 113.88 80.73 113.88 79.83"/></g><g id="POLYLINE-3" data-name="POLYLINE"><path class="cls-2" d="M104.37,32.17a.9.9,0,0,0-.9.9v7.21a.9.9,0,0,0,.9.9l42,.07V32.1Z"/></g><g id="POLYLINE-4" data-name="POLYLINE"><path class="cls-2" d="M104.17,65a.9.9,0,0,0-.9.9v7.2a.9.9,0,0,0,.9.9l42,.07V65Z"/></g><g id="POLYLINE-5" data-name="POLYLINE"><path class="cls-2" d="M104.17,54.08a.9.9,0,0,0-.9.9v7.2a.9.9,0,0,0,.9.9l42,.08V54Z"/></g><g id="POLYLINE-6" data-name="POLYLINE"><path class="cls-2" d="M104.27,43.13a.9.9,0,0,0-.9.9v7.2a.9.9,0,0,0,.9.9l42,.08V43.05Z"/></g><g id="POLYLINE-7" data-name="POLYLINE"><path class="cls-2" d="M152.23,32.17a.91.91,0,0,0-.9.9v7.21a.91.91,0,0,0,.9.9l42,.07V32.1Z"/></g><g id="POLYLINE-8" data-name="POLYLINE"><path class="cls-2" d="M152,65a.9.9,0,0,0-.9.9v7.2a.9.9,0,0,0,.9.9l42,.07V65Z"/></g><g id="POLYLINE-9" data-name="POLYLINE"><path class="cls-2" d="M152,54.08a.9.9,0,0,0-.9.9v7.2a.9.9,0,0,0,.9.9l42,.08V54Z"/></g><g id="POLYLINE-10" data-name="POLYLINE"><path class="cls-2" d="M152.14,43.13a.9.9,0,0,0-.9.9v7.2a.9.9,0,0,0,.9.9l42,.08V43.05Z"/></g><g id="POLYLINE-11" data-name="POLYLINE"><polygon class="cls-2" points="16.5 97.76 16.5 86.43 17.4 86.43 17.4 84.56 13.8 84.56 13.8 69.03 17.4 69.03 17.4 67.15 16.5 67.15 16.5 55.82 17.4 55.82 17.4 53.95 13.8 53.95 13.8 34.51 16.72 34.51 16.72 35.41 18.6 35.41 18.6 31.81 33.53 31.81 33.53 35.41 35.41 35.41 35.41 34.51 48.54 34.51 48.54 61.75 44.93 61.75 44.93 63.62 45.84 63.62 45.84 89.96 44.93 89.96 44.93 91.83 48.54 91.83 48.54 119.07 45.91 119.07 45.91 118.17 44.03 118.17 44.03 125.45 45.91 125.45 45.91 124.55 48.54 124.55 48.54 151.78 44.93 151.78 44.93 153.66 45.84 153.66 45.84 179.99 44.93 179.99 44.93 181.87 48.54 181.87 48.54 209.1 35.41 209.1 35.41 208.2 33.53 208.2 33.53 211.8 18.6 211.8 18.6 208.2 16.72 208.2 16.72 209.1 13.8 209.1 13.8 189.67 17.4 189.67 17.4 187.79 16.5 187.79 16.5 176.47 17.4 176.47 17.4 174.59 13.8 174.59 13.8 159.06 17.4 159.06 17.4 157.18 16.5 157.18 16.5 145.85 17.4 145.85 17.4 143.98 13.8 143.98 13.8 99.64 17.4 99.64 17.4 97.76 16.5 97.76"/></g><g id="POLYLINE-12" data-name="POLYLINE"><polygon class="cls-2" points="16.5 279.84 16.5 268.51 17.4 268.51 17.4 266.64 13.8 266.64 13.8 251.1 17.4 251.1 17.4 249.23 16.5 249.23 16.5 237.9 17.4 237.9 17.4 236.03 13.8 236.03 13.8 216.59 16.72 216.59 16.72 217.49 18.6 217.49 18.6 213.89 33.53 213.89 33.53 217.49 35.41 217.49 35.41 216.59 48.54 216.59 48.54 243.83 44.93 243.83 44.93 245.7 45.84 245.7 45.84 272.04 44.93 272.04 44.93 273.91 48.54 273.91 48.54 301.15 45.91 301.15 45.91 300.25 44.03 300.25 44.03 307.52 45.91 307.52 45.91 306.63 48.54 306.63 48.54 333.86 44.93 333.86 44.93 335.74 45.84 335.74 45.84 362.07 44.93 362.07 44.93 363.95 48.54 363.95 48.54 391.18 35.41 391.18 35.41 390.28 33.53 390.28 33.53 393.88 18.6 393.88 18.6 390.28 16.72 390.28 16.72 391.18 13.8 391.18 13.8 371.75 17.4 371.75 17.4 369.87 16.5 369.87 16.5 358.54 17.4 358.54 17.4 356.67 13.8 356.67 13.8 341.14 17.4 341.14 17.4 339.26 16.5 339.26 16.5 327.93 17.4 327.93 17.4 326.06 13.8 326.06 13.8 281.72 17.4 281.72 17.4 279.84 16.5 279.84"/></g><g id="POLYLINE-13" data-name="POLYLINE"><polygon class="cls-2" points="94.23 369.99 94.23 371.86 93.33 371.86 93.33 389.5 98.05 389.5 98.05 214.91 93.33 214.91 93.33 232.54 94.23 232.54 94.23 234.41 89.65 234.41 89.65 232.54 90.55 232.54 90.55 214.91 77.42 214.91 77.42 215.81 75.55 215.81 75.55 213.56 68.12 213.56 68.12 215.81 66.24 215.81 66.24 214.91 53.11 214.91 53.11 232.54 54.01 232.54 54.01 234.41 50.41 234.41 50.41 249.34 54.01 249.34 54.01 251.22 53.11 251.22 53.11 263.15 54.01 263.15 54.01 265.02 50.41 265.02 50.41 279.96 54.01 279.96 54.01 281.83 53.11 281.83 53.11 322.57 54.01 322.57 54.01 324.45 50.41 324.45 50.41 339.38 54.01 339.38 54.01 341.25 53.11 341.25 53.11 353.18 54.01 353.18 54.01 355.06 50.41 355.06 50.41 369.99 54.01 369.99 54.01 371.86 53.11 371.86 53.11 389.5 66.24 389.5 66.24 388.6 68.12 388.6 68.12 390.85 75.55 390.85 75.55 388.6 77.42 388.6 77.42 389.5 90.55 389.5 90.55 371.86 89.65 371.86 89.65 369.99 94.23 369.99"/></g><g id="POLYLINE-14" data-name="POLYLINE"><polygon class="cls-2" points="74.57 50.86 74.57 33.53 98.05 33.53 98.05 208.11 74.57 208.11 74.57 190.78 75.47 190.78 75.47 188.91 68.19 188.91 68.19 190.78 69.09 190.78 69.09 208.11 50.41 208.11 50.41 180.88 54.01 180.88 54.01 179 53.11 179 53.11 152.67 54.01 152.67 54.01 150.79 50.41 150.79 50.41 90.85 54.01 90.85 54.01 88.97 53.11 88.97 53.11 62.64 54.01 62.64 54.01 60.76 50.41 60.76 50.41 33.53 69.09 33.53 69.09 50.86 68.19 50.86 68.19 52.73 75.47 52.73 75.47 50.86 74.57 50.86"/></g><g id="POLYLINE-15" data-name="POLYLINE"><polygon class="cls-2" points="36.91 195.9 35.03 195.9 35.03 203.18 36.91 203.18 36.91 202.27 42.23 202.27 42.23 203.18 44.11 203.18 44.11 195.9 42.23 195.9 42.23 196.8 36.91 196.8 36.91 195.9"/></g><g id="POLYLINE-16" data-name="POLYLINE"><polygon class="cls-2" points="44.11 137.75 44.11 130.47 42.23 130.47 42.23 131.37 36.91 131.37 36.91 130.47 35.03 130.47 35.03 137.75 36.91 137.75 36.91 136.85 42.23 136.85 42.23 137.75 44.11 137.75"/></g><g id="POLYLINE-17" data-name="POLYLINE"><polygon class="cls-2" points="42.23 112.24 42.23 113.14 44.11 113.14 44.11 105.86 42.23 105.86 42.23 106.77 36.91 106.77 36.91 105.86 35.03 105.86 35.03 113.14 36.91 113.14 36.91 112.24 42.23 112.24"/></g><g id="POLYLINE-18" data-name="POLYLINE"><polygon class="cls-2" points="36.91 40.44 35.03 40.44 35.03 47.72 36.91 47.72 36.91 46.82 42.23 46.82 42.23 47.72 44.11 47.72 44.11 40.44 42.23 40.44 42.23 41.34 36.91 41.34 36.91 40.44"/></g><g id="POLYLINE-19" data-name="POLYLINE"><polygon class="cls-2" points="36.91 377.98 35.03 377.98 35.03 385.25 36.91 385.25 36.91 384.35 42.23 384.35 42.23 385.25 44.11 385.25 44.11 377.98 42.23 377.98 42.23 378.88 36.91 378.88 36.91 377.98"/></g><g id="POLYLINE-20" data-name="POLYLINE"><polygon class="cls-2" points="44.11 319.83 44.11 312.55 42.23 312.55 42.23 313.45 36.91 313.45 36.91 312.55 35.03 312.55 35.03 319.83 36.91 319.83 36.91 318.93 42.23 318.93 42.23 319.83 44.11 319.83"/></g><g id="POLYLINE-21" data-name="POLYLINE"><polygon class="cls-2" points="42.23 294.32 42.23 295.22 44.11 295.22 44.11 287.94 42.23 287.94 42.23 288.84 36.91 288.84 36.91 287.94 35.03 287.94 35.03 295.22 36.91 295.22 36.91 294.32 42.23 294.32"/></g><g id="POLYLINE-22" data-name="POLYLINE"><polygon class="cls-2" points="36.91 222.52 35.03 222.52 35.03 229.8 36.91 229.8 36.91 228.9 42.23 228.9 42.23 229.8 44.11 229.8 44.11 222.52 42.23 222.52 42.23 223.42 36.91 223.42 36.91 222.52"/></g><g id="POLYLINE-23" data-name="POLYLINE"><polygon class="cls-2" points="94.23 263.15 94.23 265.02 89.65 265.02 89.65 263.15 90.55 263.15 90.55 251.22 89.65 251.22 89.65 249.34 94.23 249.34 94.23 251.22 93.33 251.22 93.33 263.15 94.23 263.15"/></g><g id="POLYLINE-24" data-name="POLYLINE"><polygon class="cls-2" points="89.65 322.57 90.55 322.57 90.55 281.83 89.65 281.83 89.65 279.96 94.23 279.96 94.23 281.83 93.33 281.83 93.33 322.57 94.23 322.57 94.23 324.45 89.65 324.45 89.65 322.57"/></g><g id="POLYLINE-25" data-name="POLYLINE"><polygon class="cls-2" points="89.65 353.18 90.55 353.18 90.55 341.25 89.65 341.25 89.65 339.38 94.23 339.38 94.23 341.25 93.33 341.25 93.33 353.18 94.23 353.18 94.23 355.06 89.65 355.06 89.65 353.18"/></g><g id="POLYLINE-26" data-name="POLYLINE"><polygon class="cls-2" points="79 118.08 74.57 118.08 74.57 100.75 75.47 100.75 75.47 98.88 68.19 98.88 68.19 100.75 69.09 100.75 69.09 118.08 64.67 118.08 64.67 117.18 62.79 117.18 62.79 124.46 64.67 124.46 64.67 123.56 69.09 123.56 69.09 140.89 68.19 140.89 68.19 142.77 75.47 142.77 75.47 140.89 74.57 140.89 74.57 123.56 79 123.56 79 124.46 80.87 124.46 80.87 117.18 79 117.18 79 118.08"/></g><g id="POLYLINE-27" data-name="POLYLINE"><polygon class="cls-2" points="138.87 93.94 139.77 93.94 139.77 105.26 138.87 105.26 138.87 107.14 140.67 107.14 140.67 108.04 142.54 108.04 142.54 91.16 140.67 91.16 140.67 92.06 138.87 92.06 138.87 93.94"/></g><g id="POLYLINE-28" data-name="POLYLINE"><polygon class="cls-2" points="157.55 93.94 156.65 93.94 156.65 105.26 157.55 105.26 157.55 107.14 155.75 107.14 155.75 108.04 153.87 108.04 153.87 91.16 155.75 91.16 155.75 92.06 157.55 92.06 157.55 93.94"/></g><g id="POLYLINE-29" data-name="POLYLINE"><rect class="cls-3" x="13.76" y="29.84" width="183.07" height="366.13"/></g></svg>