<svg id="Layer_1" data-name="Layer 1" xmlns="http://www.w3.org/2000/svg" viewBox="0 0 425.2 425.2"><defs><style>.cls-1,.cls-4{fill:none;stroke:#1d1d1b;stroke-miterlimit:10;}.cls-1{stroke-width:0.5px;}.cls-2{font-size:6px;}.cls-2,.cls-3{fill:#1d1d1b;font-family:Monotxt;}.cls-3{font-size:8.47px;}.cls-4{stroke-width:0.25px;}</style></defs><g id="POLYLINE"><polygon class="cls-1" points="34.68 256.1 39.14 256.1 39.14 258.8 38.24 258.8 38.24 260.6 45.44 260.6 45.44 258.8 44.54 258.8 44.54 256.1 49.01 256.1 49.01 257 50.88 257 50.88 253.4 63.26 253.4 63.26 268.32 59.66 268.32 59.66 270.2 60.56 270.2 60.56 363.13 49.23 363.13 49.23 362.23 47.36 362.23 47.36 365.82 36.33 365.82 36.33 362.23 34.76 362.23 34.76 363.13 23.13 363.13 23.13 270.2 24.03 270.2 24.03 268.32 19.46 268.32 19.46 270.2 20.36 270.2 20.36 363.13 15.63 363.13 15.63 253.4 32.81 253.4 32.81 257 34.68 257 34.68 256.1"/></g><g id="POLYLINE-2" data-name="POLYLINE"><polygon class="cls-1" points="34.68 170.16 39.14 170.16 39.14 167.46 38.24 167.46 38.24 165.66 45.44 165.66 45.44 167.46 44.54 167.46 44.54 170.16 49.01 170.16 49.01 169.26 50.88 169.26 50.88 172.86 63.26 172.86 63.26 157.93 59.66 157.93 59.66 156.06 60.56 156.06 60.56 63.13 49.23 63.13 49.23 64.03 47.36 64.03 47.36 60.43 36.33 60.43 36.33 64.03 34.76 64.03 34.76 63.13 23.13 63.13 23.13 156.06 24.03 156.06 24.03 157.93 19.46 157.93 19.46 156.06 20.36 156.06 20.36 63.13 15.63 63.13 15.63 172.86 32.81 172.86 32.81 169.26 34.68 169.26 34.68 170.16"/></g><g id="POLYLINE-3" data-name="POLYLINE"><polygon class="cls-1" points="15.63 251.07 15.63 219.05 20.36 219.05 20.36 244.78 19.46 244.78 19.46 246.65 24.03 246.65 24.03 244.78 23.13 244.78 23.13 219.05 34.76 219.05 34.76 219.95 36.33 219.95 36.33 216.35 47.36 216.35 47.36 219.95 49.23 219.95 49.23 219.05 60.56 219.05 60.56 244.78 59.66 244.78 59.66 246.65 63.26 246.65 63.26 251.07 50.88 251.07 50.88 247.47 49.01 247.47 49.01 248.38 44.54 248.38 44.54 245.68 45.44 245.68 45.44 243.88 38.24 243.88 38.24 245.68 39.14 245.68 39.14 248.38 34.68 248.38 34.68 247.47 32.81 247.47 32.81 251.07 15.63 251.07"/></g><g id="POLYLINE-4" data-name="POLYLINE"><polygon class="cls-1" points="15.63 175.18 15.63 207.21 20.36 207.21 20.36 181.48 19.46 181.48 19.46 179.61 24.03 179.61 24.03 181.48 23.13 181.48 23.13 207.21 34.76 207.21 34.76 206.31 36.33 206.31 36.33 209.91 47.36 209.91 47.36 206.31 49.23 206.31 49.23 207.21 60.56 207.21 60.56 181.48 59.66 181.48 59.66 179.61 63.26 179.61 63.26 175.18 50.88 175.18 50.88 178.78 49.01 178.78 49.01 177.88 44.54 177.88 44.54 180.58 45.44 180.58 45.44 182.38 38.24 182.38 38.24 180.58 39.14 180.58 39.14 177.88 34.68 177.88 34.68 178.78 32.81 178.78 32.81 175.18 15.63 175.18"/></g><g id="POLYLINE-5" data-name="POLYLINE"><polygon class="cls-1" points="181.91 389.63 177.44 389.63 177.44 386.93 178.34 386.93 178.34 385.13 171.14 385.13 171.14 386.93 172.04 386.93 172.04 389.63 167.58 389.63 167.58 388.73 165.71 388.73 165.71 392.33 148.53 392.33 148.53 354.15 156.93 354.15 156.93 352.28 156.03 352.28 156.03 350.55 156.93 350.55 156.93 348.68 153.33 348.68 153.33 346.05 156.93 346.05 156.93 344.18 156.03 344.18 156.03 342.45 156.93 342.45 156.93 340.58 148.53 340.58 148.53 264.15 156.93 264.15 156.93 262.28 156.03 262.28 156.03 260.55 156.93 260.55 156.93 258.68 153.33 258.68 153.33 256.05 156.93 256.05 156.93 254.18 156.03 254.18 156.03 252.45 156.93 252.45 156.93 250.58 148.53 250.58 148.53 174.15 156.93 174.15 156.93 172.28 156.03 172.28 156.03 170.55 156.93 170.55 156.93 168.68 153.33 168.68 153.33 166.05 156.93 166.05 156.93 164.18 156.03 164.18 156.03 162.45 156.93 162.45 156.93 160.58 148.53 160.58 148.53 84.15 156.93 84.15 156.93 82.28 156.03 82.28 156.03 80.55 156.93 80.55 156.93 78.68 153.33 78.68 153.33 76.05 156.93 76.05 156.93 74.18 156.03 74.18 156.03 72.45 156.93 72.45 156.93 70.58 156.89 70.58 148.53 70.58 148.53 32.4 165.71 32.4 165.71 36 167.58 36 167.58 35.1 172.04 35.1 172.04 37.8 171.14 37.8 171.14 39.6 178.34 39.6 178.34 37.8 177.44 37.8 177.44 35.1 181.91 35.1 181.91 36 183.78 36 183.78 32.4 196.16 32.4 196.16 47.33 192.56 47.33 192.56 49.2 193.46 49.2 193.46 60.53 192.56 60.53 192.56 62.4 196.16 62.4 196.16 70.58 192.56 70.58 192.56 72.45 193.46 72.45 193.46 74.18 192.56 74.18 192.56 76.05 196.16 76.05 196.16 78.68 192.56 78.68 192.56 80.55 193.46 80.55 193.46 82.28 192.56 82.28 192.56 84.15 196.16 84.15 196.16 160.58 192.56 160.58 192.56 162.45 193.46 162.45 193.46 164.18 192.56 164.18 192.56 166.05 196.16 166.05 196.16 168.68 192.56 168.68 192.56 170.55 193.46 170.55 193.46 172.28 192.56 172.28 192.56 174.15 196.16 174.15 196.16 250.58 192.56 250.58 192.56 252.45 193.46 252.45 193.46 254.18 192.56 254.18 192.56 256.05 196.16 256.05 196.16 258.68 192.56 258.68 192.56 260.55 193.46 260.55 193.46 262.28 192.56 262.28 192.56 264.15 196.16 264.15 196.16 279.83 192.56 279.83 192.56 281.7 193.46 281.7 193.46 285.53 192.56 285.53 192.56 287.4 196.16 287.4 196.16 317.33 192.56 317.33 192.56 319.2 193.46 319.2 193.46 330.53 192.56 330.53 192.56 332.4 196.16 332.4 196.16 340.58 192.56 340.58 192.56 342.45 193.46 342.45 193.46 344.18 192.56 344.18 192.56 346.05 196.16 346.05 196.16 348.68 192.56 348.68 192.56 350.55 193.46 350.55 193.46 352.28 192.56 352.28 192.56 354.15 196.16 354.15 196.16 362.33 192.56 362.33 192.56 364.2 193.46 364.2 193.46 375.53 192.56 375.53 192.56 377.4 196.16 377.4 196.16 392.33 183.78 392.33 183.78 388.73 181.91 388.73 181.91 389.63"/></g><g id="POLYLINE-6" data-name="POLYLINE"><polygon class="cls-1" points="132.41 389.63 132.41 388.73 134.28 388.73 134.28 392.33 146.66 392.33 146.66 377.4 143.06 377.4 143.06 375.53 143.96 375.53 143.96 364.2 143.06 364.2 143.06 362.33 146.66 362.33 146.66 354.15 143.06 354.15 143.06 352.28 143.96 352.28 143.96 350.55 143.06 350.55 143.06 348.68 146.66 348.68 146.66 346.05 143.06 346.05 143.06 344.18 143.96 344.18 143.96 342.45 143.06 342.45 143.06 340.58 146.66 340.58 146.66 264.15 143.06 264.15 143.06 262.28 143.96 262.28 143.96 260.55 143.06 260.55 143.06 258.68 146.66 258.68 146.66 256.05 143.06 256.05 143.06 254.18 143.96 254.18 143.96 252.45 143.06 252.45 143.06 250.58 146.66 250.58 146.66 174.15 143.06 174.15 143.06 172.28 143.96 172.28 143.96 170.55 143.06 170.55 143.06 168.68 146.66 168.68 146.66 166.05 143.06 166.05 143.06 164.18 143.96 164.18 143.96 162.45 143.06 162.45 143.06 160.58 146.66 160.58 146.66 144.9 143.06 144.9 143.06 143.03 143.96 143.03 143.96 139.2 143.06 139.2 143.06 137.33 146.66 137.33 146.66 107.4 143.06 107.4 143.06 105.53 143.96 105.53 143.96 94.2 143.06 94.2 143.06 92.33 146.66 92.33 146.66 84.15 143.06 84.15 143.06 82.28 143.96 82.28 143.96 80.55 143.06 80.55 143.06 78.68 146.66 78.68 146.66 76.05 143.06 76.05 143.06 74.18 143.96 74.18 143.96 72.45 143.06 72.45 143.06 70.58 146.66 70.58 146.66 62.4 143.06 62.4 143.06 60.53 143.96 60.53 143.96 49.2 143.06 49.2 143.06 47.33 146.66 47.33 146.66 32.4 134.28 32.4 134.28 36 132.41 36 132.41 35.1 127.94 35.1 127.94 37.8 128.84 37.8 128.84 39.6 121.64 39.6 121.64 37.8 122.54 37.8 122.54 35.1 118.08 35.1 118.08 36 116.21 36 116.21 32.4 99.03 32.4 99.03 70.58 107.43 70.58 107.43 72.45 106.53 72.45 106.53 74.18 107.43 74.18 107.43 76.05 103.83 76.05 103.83 78.68 107.43 78.68 107.43 80.55 106.53 80.55 106.53 82.28 107.43 82.28 107.43 84.15 99.03 84.15 99.03 160.58 107.43 160.58 107.43 162.45 106.53 162.45 106.53 164.18 107.43 164.18 107.43 166.05 103.83 166.05 103.83 168.68 107.43 168.68 107.43 170.55 106.53 170.55 106.53 172.28 107.43 172.28 107.43 174.15 99.03 174.15 99.03 250.58 107.43 250.58 107.43 252.45 106.53 252.45 106.53 254.18 107.43 254.18 107.43 256.05 103.83 256.05 103.83 258.68 107.43 258.68 107.43 260.55 106.53 260.55 106.53 262.28 107.43 262.28 107.43 264.15 99.03 264.15 99.03 340.58 107.43 340.58 107.43 342.45 106.53 342.45 106.53 344.18 107.43 344.18 107.43 346.05 103.83 346.05 103.83 348.68 107.43 348.68 107.43 350.55 106.53 350.55 106.53 352.28 107.43 352.28 107.43 354.15 107.39 354.15 99.03 354.15 99.03 392.33 116.21 392.33 116.21 388.73 118.08 388.73 118.08 389.63 122.54 389.63 122.54 386.93 121.64 386.93 121.64 385.13 128.84 385.13 128.84 386.93 127.94 386.93 127.94 389.63 132.41 389.63"/></g><g id="POLYLINE-7" data-name="POLYLINE"><path class="cls-1" d="M321.55,385.09a.9.9,0,0,0-.9.9v7.2a.9.9,0,0,0,.9.9l42,.08V385Z"/></g><g id="POLYLINE-8" data-name="POLYLINE"><path class="cls-1" d="M326.8,382.71a.94.94,0,0,1-.36.08.9.9,0,0,1-.9-.9V375a3,3,0,0,1,0-6V362a.86.86,0,0,1,.07-.36.9.9,0,0,1,1.19-.47l9.24,4h5.4v13.5H336l-9.24,4Z"/></g><g id="POLYLINE-9" data-name="POLYLINE"><path class="cls-1" d="M357.88,382.71a.89.89,0,0,0,1.18-.47.85.85,0,0,0,.08-.35V375a3,3,0,0,0,0-6V362a.9.9,0,0,0-.9-.9.86.86,0,0,0-.36.07l-9.24,4h-5.4v13.5h5.4l9.24,4Z"/></g><g id="POLYLINE-10" data-name="POLYLINE"><path class="cls-1" d="M403.63,382.71a.89.89,0,0,0,1.18-.47.85.85,0,0,0,.08-.35V375a3,3,0,0,0,0-6V362a.9.9,0,0,0-.9-.9.86.86,0,0,0-.36.07l-9.24,4H389v13.5h5.4l9.24,4Z"/></g><g id="POLYLINE-11" data-name="POLYLINE"><path class="cls-1" d="M372.55,382.71a.94.94,0,0,1-.36.08.9.9,0,0,1-.9-.9V375a3,3,0,0,1,0-6V362a.86.86,0,0,1,.07-.36.9.9,0,0,1,1.19-.47l9.24,4h5.4v13.5h-5.4l-9.24,4Z"/></g><g id="POLYLINE-12" data-name="POLYLINE"><path class="cls-1" d="M367.3,385.09a.9.9,0,0,0-.9.9v7.2a.9.9,0,0,0,.9.9l42,.08V385Z"/></g><g id="POLYLINE-13" data-name="POLYLINE"><path class="cls-1" d="M312.28,382.71a.89.89,0,0,0,1.18-.47.85.85,0,0,0,.08-.35V375a3,3,0,0,0,0-6V362a.9.9,0,0,0-.9-.9.86.86,0,0,0-.36.07l-9.24,4h-5.4v13.5H303l9.24,4Z"/></g><g id="POLYLINE-14" data-name="POLYLINE"><path class="cls-1" d="M281.2,382.71a.94.94,0,0,1-.36.08.9.9,0,0,1-.9-.9V375a3,3,0,0,1,0-6V362a.86.86,0,0,1,.07-.36.9.9,0,0,1,1.19-.47l9.24,4h5.4v13.5h-5.4l-9.24,4Z"/></g><g id="POLYLINE-15" data-name="POLYLINE"><path class="cls-1" d="M276,385.09a.9.9,0,0,0-.9.9v7.2a.9.9,0,0,0,.9.9l42,.08V385Z"/></g><g id="POLYLINE-16" data-name="POLYLINE"><path class="cls-1" d="M266.38,382.71a.89.89,0,0,0,1.18-.47.85.85,0,0,0,.08-.35V375a3,3,0,0,0,0-6V362a.9.9,0,0,0-.9-.9.86.86,0,0,0-.36.07l-9.24,4h-5.4v13.5h5.4l9.24,4Z"/></g><g id="POLYLINE-17" data-name="POLYLINE"><path class="cls-1" d="M235.3,382.71a.94.94,0,0,1-.36.08.9.9,0,0,1-.9-.9V375a3,3,0,0,1,0-6V362a.86.86,0,0,1,.07-.36.9.9,0,0,1,1.19-.47l9.24,4h5.4v13.5h-5.4l-9.24,4Z"/></g><g id="POLYLINE-18" data-name="POLYLINE"><path class="cls-1" d="M230.05,385.09a.9.9,0,0,0-.9.9v7.2a.9.9,0,0,0,.9.9l42,.08V385Z"/></g><g id="POLYLINE-19" data-name="POLYLINE"><path class="cls-1" d="M17.05,45.94a.9.9,0,0,0-.9.9V54a.9.9,0,0,0,.9.9l42,.08V45.87Z"/></g><g id="POLYLINE-20" data-name="POLYLINE"><path class="cls-1" d="M17.05,35a.9.9,0,0,0-.9.9v7.2a.9.9,0,0,0,.9.9l42,.08V34.92Z"/></g><g id="POLYLINE-21" data-name="POLYLINE"><path class="cls-1" d="M17.05,381.34a.9.9,0,0,0-.9.9v7.2a.9.9,0,0,0,.9.9l42,.08v-9.15Z"/></g><g id="POLYLINE-22" data-name="POLYLINE"><path class="cls-1" d="M17.05,370.39a.9.9,0,0,0-.9.9v7.2a.9.9,0,0,0,.9.9l42,.08v-9.15Z"/></g><g id="POLYLINE-23" data-name="POLYLINE"><path class="cls-1" d="M231.37,83.43v6.35h.9v1.88h-3.6v14.92h3.6v1.88h-.9V116h.9v1.88h-3.6v7.42h3.6v1.88h-.9v7.57h.9v1.88h-3.6v7.42H250.8v-3.6h1.87v.9H264v-.9h1.87v3.6H281.4v-3.6h1.87v.9H294.6v-.9h1.87v3.6H340.8v-3.6h1.87v.9H354v-.9h1.87v3.6H371.4v-3.6h1.87v.9H384.6v-.9h1.87v3.6H408.6v-7.42H405v-1.88h.9v-7.57H405v-1.88h3.6v-7.42H405V116h.9v-7.57H405v-1.88h3.6V91.66H405V89.78h.9V83.43l-9.19,4h0a1,1,0,0,1-.38.07.92.92,0,0,1-.93-.93V66.69a.9.9,0,0,1,.07-.37.94.94,0,0,1,1.24-.49l9.19,4V63.46H405V61.58h3.6V46.66H405V44.78h.9V31.66H378.67v3.6H376.8v-.9H350.47v.9H348.6v-3.6H321.37V44.78h.9v1.88H315V44.78h.9V31.66H288.67v3.6H286.8v-.9H260.47v.9H258.6v-3.6H231.37V44.78h.9v1.88h-3.6V61.58h3.6v1.88h-.9v6.35l9.19-4h0a.93.93,0,0,1,1.31.86V86.55a1,1,0,0,1-.08.37.94.94,0,0,1-1.23.49Z"/></g><g id="POLYLINE-24" data-name="POLYLINE"><path class="cls-1" d="M405.9,207.06v-6.35H405v-1.88h3.6V183.91H405V182h.9v-7.57H405v-1.88h3.6v-7.42H405v-1.88h.9v-7.57H405v-1.88h3.6v-7.42H386.47V150H384.6v-.9H373.27v.9H371.4v-3.6H355.87V150H354v-.9H342.67v.9H340.8v-3.6H296.47V150H294.6v-.9H283.27v.9H281.4v-3.6H265.87V150H264v-.9H252.67v.9H250.8v-3.6H228.67v7.42h3.6v1.88h-.9v7.57h.9v1.88h-3.6v7.42h3.6v1.88h-.9V182h.9v1.88h-3.6v14.92h3.6v1.88h-.9v6.35l9.19-4h0a.93.93,0,0,1,1.31.86V223.8a1,1,0,0,1-.08.37.94.94,0,0,1-1.23.49l-9.19-4V227h.9v1.88h-3.6v14.92h3.6v1.88h-.9v13.12H258.6v-3.6h1.87v.9H286.8v-.9h1.87v3.6H315.9V245.71H315v-1.88h7.27v1.88h-.9v13.12H348.6v-3.6h1.87v.9H376.8v-.9h1.87v3.6H405.9V245.71H405v-1.88h3.6V228.91H405V227h.9v-6.35l-9.19,4h0a1,1,0,0,1-.38.07.92.92,0,0,1-.93-.93V203.94a.9.9,0,0,1,.07-.37.94.94,0,0,1,1.24-.49Z"/></g><g id="POLYLINE-25" data-name="POLYLINE"><polygon class="cls-1" points="94.46 238.7 93.56 238.7 93.56 236.82 97.16 236.82 97.16 217.4 94.23 217.4 94.23 218.3 92.36 218.3 92.36 214.7 77.43 214.7 77.43 218.3 75.56 218.3 75.56 217.4 62.43 217.4 62.43 244.63 66.03 244.63 66.03 246.5 65.13 246.5 65.13 272.82 66.03 272.82 66.03 274.7 62.43 274.7 62.43 301.93 65.06 301.93 65.06 301.02 66.93 301.02 66.93 308.3 65.06 308.3 65.06 307.4 62.43 307.4 62.43 334.63 66.03 334.63 66.03 336.5 65.13 336.5 65.13 362.82 66.03 362.82 66.03 364.7 62.43 364.7 62.43 391.93 75.56 391.93 75.56 391.02 77.43 391.02 77.43 394.63 92.36 394.63 92.36 391.02 94.23 391.02 94.23 391.93 97.16 391.93 97.16 372.5 93.56 372.5 93.56 370.63 94.46 370.63 94.46 359.3 93.56 359.3 93.56 357.43 97.16 357.43 97.16 341.9 93.56 341.9 93.56 340.02 94.46 340.02 94.46 328.7 93.56 328.7 93.56 326.82 97.16 326.82 97.16 282.5 93.56 282.5 93.56 280.63 94.46 280.63 94.46 269.3 93.56 269.3 93.56 267.43 97.16 267.43 97.16 251.9 93.56 251.9 93.56 250.03 94.46 250.03 94.46 238.7"/></g><g id="POLYLINE-26" data-name="POLYLINE"><polygon class="cls-1" points="94.46 55.63 93.56 55.63 93.56 53.76 97.16 53.76 97.16 34.33 94.23 34.33 94.23 35.23 92.36 35.23 92.36 31.63 77.43 31.63 77.43 35.23 75.56 35.23 75.56 34.33 62.43 34.33 62.43 61.56 66.03 61.56 66.03 63.43 65.13 63.43 65.13 89.76 66.03 89.76 66.03 91.63 62.43 91.63 62.43 118.86 65.06 118.86 65.06 117.96 66.93 117.96 66.93 125.23 65.06 125.23 65.06 124.33 62.43 124.33 62.43 151.56 66.03 151.56 66.03 153.43 65.13 153.43 65.13 179.76 66.03 179.76 66.03 181.63 62.43 181.63 62.43 208.86 75.56 208.86 75.56 207.96 77.43 207.96 77.43 211.56 92.36 211.56 92.36 207.96 94.23 207.96 94.23 208.86 97.16 208.86 97.16 189.43 93.56 189.43 93.56 187.56 94.46 187.56 94.46 176.23 93.56 176.23 93.56 174.36 97.16 174.36 97.16 158.83 93.56 158.83 93.56 156.96 94.46 156.96 94.46 145.63 93.56 145.63 93.56 143.76 97.16 143.76 97.16 99.43 93.56 99.43 93.56 97.56 94.46 97.56 94.46 86.23 93.56 86.23 93.56 84.36 97.16 84.36 97.16 68.83 93.56 68.83 93.56 66.96 94.46 66.96 94.46 55.63"/></g><g id="POLYLINE-27" data-name="POLYLINE"><polygon class="cls-1" points="388.42 264.98 386.55 264.98 386.55 269.56 388.42 269.56 388.42 268.65 406.05 268.65 406.05 281.78 405.14 281.78 405.14 283.65 407.39 283.65 407.39 291.08 405.14 291.08 405.14 292.95 406.05 292.95 406.05 306.08 388.42 306.08 388.42 305.18 386.55 305.18 386.55 308.78 371.62 308.78 371.62 305.18 369.75 305.18 369.75 306.08 357.82 306.08 357.82 305.18 355.94 305.18 355.94 308.78 341.02 308.78 341.02 305.18 339.14 305.18 339.14 306.08 298.42 306.08 298.42 305.18 296.55 305.18 296.55 308.78 281.62 308.78 281.62 305.18 279.75 305.18 279.75 306.08 267.82 306.08 267.82 305.18 265.94 305.18 265.94 308.78 251.02 308.78 251.02 305.18 249.15 305.18 249.15 306.08 231.52 306.08 231.52 292.95 232.42 292.95 232.42 291.08 230.17 291.08 230.17 283.65 232.42 283.65 232.42 281.78 231.52 281.78 231.52 268.65 249.15 268.65 249.15 269.56 251.02 269.56 251.02 264.98 249.15 264.98 249.15 265.88 231.52 265.88 231.52 261.16 406.05 261.16 406.05 265.88 388.42 265.88 388.42 264.98"/></g><g id="POLYLINE-28" data-name="POLYLINE"><polygon class="cls-1" points="388.42 314.93 386.55 314.93 386.55 319.5 388.42 319.5 388.42 318.6 406.05 318.6 406.05 331.73 405.14 331.73 405.14 333.6 407.39 333.6 407.39 341.03 405.14 341.03 405.14 342.9 406.05 342.9 406.05 356.03 388.42 356.03 388.42 355.13 386.55 355.13 386.55 358.73 371.62 358.73 371.62 355.13 369.75 355.13 369.75 356.03 357.82 356.03 357.82 355.13 355.94 355.13 355.94 358.73 341.02 358.73 341.02 355.13 339.14 355.13 339.14 356.03 298.42 356.03 298.42 355.13 296.55 355.13 296.55 358.73 281.62 358.73 281.62 355.13 279.75 355.13 279.75 356.03 267.82 356.03 267.82 355.13 265.94 355.13 265.94 358.73 251.02 358.73 251.02 355.13 249.15 355.13 249.15 356.03 231.52 356.03 231.52 342.9 232.42 342.9 232.42 341.03 230.17 341.03 230.17 333.6 232.42 333.6 232.42 331.73 231.52 331.73 231.52 318.6 249.15 318.6 249.15 319.5 251.02 319.5 251.02 314.93 249.15 314.93 249.15 315.83 231.52 315.83 231.52 311.11 406.05 311.11 406.05 315.83 388.42 315.83 388.42 314.93"/></g><g id="MTEXT"><text class="cls-2" transform="translate(53.71 234.16) rotate(180)">WINDOW</text><text class="cls-2" transform="translate(51.81 227.87) rotate(180)">-M1/E</text></g><g id="MTEXT-2" data-name="MTEXT"><text class="cls-3" transform="translate(327.48 392.73)">&lt;PEG</text></g><g id="MTEXT-3" data-name="MTEXT"><text class="cls-3" transform="translate(373.23 392.73)">&lt;PEG</text></g><g id="MTEXT-4" data-name="MTEXT"><text class="cls-3" transform="translate(281.88 392.73)">&lt;PEG</text></g><g id="MTEXT-5" data-name="MTEXT"><text class="cls-3" transform="translate(235.98 392.73)">&lt;PEG</text></g><g id="MTEXT-6" data-name="MTEXT"><text class="cls-3" transform="translate(22.98 53.58)">&lt;PEG</text></g><g id="MTEXT-7" data-name="MTEXT"><text class="cls-3" transform="translate(22.98 42.63)">&lt;PEG</text></g><g id="MTEXT-8" data-name="MTEXT"><text class="cls-3" transform="translate(22.98 388.98)">&lt;PEG</text></g><g id="MTEXT-9" data-name="MTEXT"><text class="cls-3" transform="translate(22.98 378.03)">&lt;PEG</text></g><g id="MTEXT-10" data-name="MTEXT"><text class="cls-2" transform="translate(85.39 325.46) rotate(-90)">WINDOW-M1/D</text></g><g id="MTEXT-11" data-name="MTEXT"><text class="cls-2" transform="translate(297.84 90.24)">WINDOW-M1/A</text></g><g id="MTEXT-12" data-name="MTEXT"><text class="cls-2" transform="translate(297.84 204)">WINDOW-M1/A</text></g><g id="MTEXT-13" data-name="MTEXT"><text class="cls-2" transform="translate(297.99 350.98)">WINDOW-M1/B</text></g><g id="MTEXT-14" data-name="MTEXT"><text class="cls-2" transform="translate(297.99 300.28)">WINDOW-M1/B</text></g><g id="MTEXT-15" data-name="MTEXT"><text class="cls-2" transform="translate(27.91 190.06)">WINDOW</text><text class="cls-2" transform="translate(29.8 196.35)">-M1/E</text></g><g id="MTEXT-16" data-name="MTEXT"><text class="cls-2" transform="translate(174.27 232.72) rotate(-90)">WINDOW-M1/F</text></g><g id="MTEXT-17" data-name="MTEXT"><text class="cls-2" transform="translate(124.79 233.56) rotate(-90)">WINDOW-M1/G</text></g><g id="MTEXT-18" data-name="MTEXT"><text class="cls-2" transform="translate(85.69 142.39) rotate(-90)">WINDOW-M1/D</text></g><g id="MTEXT-19" data-name="MTEXT"><text class="cls-2" transform="translate(37.28 287.62) rotate(90)">WINDOW-M1/C</text></g><g id="MTEXT-20" data-name="MTEXT"><text class="cls-2" transform="translate(37.28 97.08) rotate(90)">WINDOW-M1/C</text></g><g id="POLYLINE-29" data-name="POLYLINE"><polygon class="cls-1" points="346.01 370.56 347.22 370.57 347.22 369.7 348.64 369.7 348.64 374.21 347.22 374.21 347.22 373.34 346.01 373.33 346.01 374.2 344.59 374.2 344.59 369.69 346.01 369.69 346.01 370.56"/></g><g id="POLYLINE-30" data-name="POLYLINE"><polygon class="cls-1" points="338.67 370.56 337.46 370.57 337.46 369.7 336.04 369.7 336.04 374.21 337.46 374.21 337.46 373.34 338.67 373.33 338.67 374.2 340.09 374.2 340.09 369.69 338.67 369.69 338.67 370.56"/></g><g id="POLYLINE-31" data-name="POLYLINE"><polygon class="cls-1" points="384.42 370.56 383.21 370.57 383.21 369.7 381.79 369.7 381.79 374.21 383.21 374.21 383.21 373.34 384.42 373.33 384.42 374.2 385.84 374.2 385.84 369.69 384.42 369.69 384.42 370.56"/></g><g id="POLYLINE-32" data-name="POLYLINE"><polygon class="cls-1" points="391.76 370.56 392.97 370.57 392.97 369.7 394.39 369.7 394.39 374.21 392.97 374.21 392.97 373.34 391.76 373.33 391.76 374.2 390.34 374.2 390.34 369.69 391.76 369.69 391.76 370.56"/></g><g id="POLYLINE-33" data-name="POLYLINE"><polygon class="cls-1" points="293.07 370.56 291.86 370.57 291.86 369.7 290.44 369.7 290.44 374.21 291.86 374.21 291.86 373.34 293.07 373.33 293.07 374.2 294.49 374.2 294.49 369.69 293.07 369.69 293.07 370.56"/></g><g id="POLYLINE-34" data-name="POLYLINE"><polygon class="cls-1" points="300.41 370.56 301.62 370.57 301.62 369.7 303.04 369.7 303.04 374.21 301.62 374.21 301.62 373.34 300.41 373.33 300.41 374.2 298.99 374.2 298.99 369.69 300.41 369.69 300.41 370.56"/></g><g id="POLYLINE-35" data-name="POLYLINE"><polygon class="cls-1" points="247.17 370.56 245.96 370.57 245.96 369.7 244.54 369.7 244.54 374.21 245.96 374.21 245.96 373.34 247.17 373.33 247.17 374.2 248.59 374.2 248.59 369.69 247.17 369.69 247.17 370.56"/></g><g id="POLYLINE-36" data-name="POLYLINE"><polygon class="cls-1" points="254.51 370.56 255.72 370.57 255.72 369.7 257.14 369.7 257.14 374.21 255.72 374.21 255.72 373.34 254.51 373.33 254.51 374.2 253.09 374.2 253.09 369.69 254.51 369.69 254.51 370.56"/></g><g id="POLYLINE-37" data-name="POLYLINE"><polygon class="cls-1" points="392.69 43.28 393.6 43.28 393.6 37.96 392.69 37.96 392.69 36.08 399.97 36.08 399.97 37.96 399.07 37.96 399.07 43.28 399.97 43.28 399.97 45.16 392.69 45.16 392.69 43.28"/></g><g id="POLYLINE-38" data-name="POLYLINE"><polygon class="cls-1" points="309.07 43.28 309.97 43.28 309.97 45.16 302.69 45.16 302.69 43.28 303.6 43.28 303.6 37.96 302.69 37.96 302.69 36.08 309.97 36.08 309.97 37.96 309.07 37.96 309.07 43.28"/></g><g id="POLYLINE-39" data-name="POLYLINE"><polygon class="cls-1" points="237.29 43.28 238.19 43.28 238.19 37.96 237.29 37.96 237.29 36.08 244.57 36.08 244.57 37.96 243.67 37.96 243.67 43.28 244.57 43.28 244.57 45.16 237.29 45.16 237.29 43.28"/></g><g id="POLYLINE-40" data-name="POLYLINE"><polygon class="cls-1" points="334.57 43.28 334.57 45.16 327.3 45.16 327.3 43.28 328.19 43.28 328.19 37.96 327.3 37.96 327.3 36.08 334.57 36.08 334.57 37.96 333.67 37.96 333.67 43.28 334.57 43.28"/></g><g id="POLYLINE-41" data-name="POLYLINE"><polygon class="cls-1" points="302.69 247.21 302.69 245.33 309.97 245.33 309.97 247.21 309.07 247.21 309.07 252.53 309.97 252.53 309.97 254.41 302.69 254.41 302.69 252.53 303.6 252.53 303.6 247.21 302.69 247.21"/></g><g id="POLYLINE-42" data-name="POLYLINE"><polygon class="cls-1" points="399.97 247.21 399.07 247.21 399.07 252.53 399.97 252.53 399.97 254.41 392.69 254.41 392.69 252.53 393.6 252.53 393.6 247.21 392.69 247.21 392.69 245.33 399.97 245.33 399.97 247.21"/></g><g id="POLYLINE-43" data-name="POLYLINE"><polygon class="cls-1" points="328.19 247.21 327.3 247.21 327.3 245.33 334.57 245.33 334.57 247.21 333.67 247.21 333.67 252.53 334.57 252.53 334.57 254.41 327.3 254.41 327.3 252.53 328.19 252.53 328.19 247.21"/></g><g id="POLYLINE-44" data-name="POLYLINE"><polygon class="cls-1" points="244.57 247.21 243.67 247.21 243.67 252.53 244.57 252.53 244.57 254.41 237.29 254.41 237.29 252.53 238.19 252.53 238.19 247.21 237.29 247.21 237.29 245.33 244.57 245.33 244.57 247.21"/></g><g id="POLYLINE-45" data-name="POLYLINE"><polygon class="cls-1" points="105.63 62.4 105.63 63.3 103.76 63.3 103.76 46.43 105.63 46.43 105.63 47.33 107.43 47.33 107.43 49.2 106.53 49.2 106.53 60.53 107.43 60.53 107.43 62.4 105.63 62.4"/></g><g id="POLYLINE-46" data-name="POLYLINE"><polygon class="cls-1" points="105.63 92.33 107.43 92.33 107.43 94.2 106.53 94.2 106.53 105.53 107.43 105.53 107.43 107.4 105.63 107.4 105.63 108.3 103.76 108.3 103.76 91.43 105.63 91.43 105.63 92.33"/></g><g id="POLYLINE-47" data-name="POLYLINE"><polygon class="cls-1" points="105.63 137.33 107.43 137.33 107.43 139.2 106.53 139.2 106.53 143.03 107.43 143.03 107.43 144.9 105.63 144.9 105.63 145.8 103.76 145.8 103.76 136.43 105.63 136.43 105.63 137.33"/></g><g id="POLYLINE-48" data-name="POLYLINE"><polygon class="cls-1" points="107.43 377.4 105.63 377.4 105.63 378.3 103.76 378.3 103.76 361.43 105.63 361.43 105.63 362.33 107.43 362.33 107.43 364.2 106.53 364.2 106.53 375.53 107.43 375.53 107.43 377.4"/></g><g id="POLYLINE-49" data-name="POLYLINE"><path class="cls-1" d="M105.11,126.12v-7.5a.71.71,0,1,1,1.42,0v7.5a.71.71,0,1,1-1.42,0Z"/></g><g id="POLYLINE-50" data-name="POLYLINE"><path class="cls-1" d="M145.38,126.12a.71.71,0,0,1-1.42,0v-7.5a.71.71,0,1,1,1.42,0Z"/></g><g id="POLYLINE-51" data-name="POLYLINE"><polygon class="cls-1" points="74.06 320.6 74.06 319.7 68.73 319.7 68.73 320.6 66.86 320.6 66.86 313.32 68.73 313.32 68.73 314.23 74.06 314.23 74.06 313.32 75.93 313.32 75.93 320.6 74.06 320.6"/></g><g id="POLYLINE-52" data-name="POLYLINE"><polygon class="cls-1" points="68.73 379.63 74.06 379.63 74.06 378.73 75.93 378.73 75.93 386 74.06 386 74.06 385.1 68.73 385.1 68.73 386 66.86 386 66.86 378.73 68.73 378.73 68.73 379.63"/></g><g id="POLYLINE-53" data-name="POLYLINE"><polygon class="cls-1" points="74.06 289.63 74.06 288.73 75.93 288.73 75.93 296 74.06 296 74.06 295.1 68.73 295.1 68.73 296 66.86 296 66.86 288.73 68.73 288.73 68.73 289.63 74.06 289.63"/></g><g id="POLYLINE-54" data-name="POLYLINE"><polygon class="cls-1" points="68.73 230.6 66.86 230.6 66.86 223.32 68.73 223.32 68.73 224.22 74.06 224.22 74.06 223.32 75.93 223.32 75.93 230.6 74.06 230.6 74.06 229.7 68.73 229.7 68.73 230.6"/></g><g id="POLYLINE-55" data-name="POLYLINE"><polygon class="cls-1" points="74.06 137.53 74.06 136.63 68.73 136.63 68.73 137.53 66.86 137.53 66.86 130.26 68.73 130.26 68.73 131.16 74.06 131.16 74.06 130.26 75.93 130.26 75.93 137.53 74.06 137.53"/></g><g id="POLYLINE-56" data-name="POLYLINE"><polygon class="cls-1" points="68.73 196.56 74.06 196.56 74.06 195.66 75.93 195.66 75.93 202.93 74.06 202.93 74.06 202.03 68.73 202.03 68.73 202.93 66.86 202.93 66.86 195.66 68.73 195.66 68.73 196.56"/></g><g id="POLYLINE-57" data-name="POLYLINE"><polygon class="cls-1" points="74.06 106.56 74.06 105.66 75.93 105.66 75.93 112.93 74.06 112.93 74.06 112.03 68.73 112.03 68.73 112.93 66.86 112.93 66.86 105.66 68.73 105.66 68.73 106.56 74.06 106.56"/></g><g id="POLYLINE-58" data-name="POLYLINE"><polygon class="cls-1" points="68.73 47.53 66.86 47.53 66.86 40.26 68.73 40.26 68.73 41.16 74.06 41.16 74.06 40.26 75.93 40.26 75.93 47.53 74.06 47.53 74.06 46.63 68.73 46.63 68.73 47.53"/></g><g id="POLYLINE-59" data-name="POLYLINE"><polygon class="cls-1" points="155.13 362.33 155.13 361.43 153.26 361.43 153.26 378.3 155.13 378.3 155.13 377.4 156.93 377.4 156.93 375.53 156.03 375.53 156.03 364.2 156.93 364.2 156.93 362.33 155.13 362.33"/></g><g id="POLYLINE-60" data-name="POLYLINE"><polygon class="cls-1" points="155.13 332.4 156.93 332.4 156.93 330.53 156.03 330.53 156.03 319.2 156.93 319.2 156.93 317.33 155.13 317.33 155.13 316.43 153.26 316.43 153.26 333.3 155.13 333.3 155.13 332.4"/></g><g id="POLYLINE-61" data-name="POLYLINE"><polygon class="cls-1" points="155.13 287.4 156.93 287.4 156.93 285.53 156.03 285.53 156.03 281.7 156.93 281.7 156.93 279.83 155.13 279.83 155.13 278.93 153.26 278.93 153.26 288.3 155.13 288.3 155.13 287.4"/></g><g id="POLYLINE-62" data-name="POLYLINE"><polygon class="cls-1" points="156.93 47.33 155.13 47.33 155.13 46.43 153.26 46.43 153.26 63.3 155.13 63.3 155.13 62.4 156.93 62.4 156.93 60.53 156.03 60.53 156.03 49.2 156.93 49.2 156.93 47.33"/></g><g id="POLYLINE-63" data-name="POLYLINE"><path class="cls-1" d="M154.61,298.62v7.5a.71.71,0,0,0,1.42,0v-7.5a.71.71,0,1,0-1.42,0Z"/></g><g id="POLYLINE-64" data-name="POLYLINE"><path class="cls-1" d="M194.88,298.62a.71.71,0,1,0-1.42,0v7.5a.71.71,0,1,0,1.42,0Z"/></g><g id="POLYLINE-65" data-name="POLYLINE"><polygon class="cls-1" points="339.14 269.56 341.02 269.56 341.02 264.98 339.14 264.98 339.14 265.88 298.42 265.88 298.42 264.98 296.55 264.98 296.55 269.56 298.42 269.56 298.42 268.65 339.14 268.65 339.14 269.56"/></g><g id="POLYLINE-66" data-name="POLYLINE"><polygon class="cls-1" points="355.94 269.56 357.82 269.56 357.82 268.65 369.75 268.65 369.75 269.56 371.62 269.56 371.62 264.98 369.75 264.98 369.75 265.88 357.82 265.88 357.82 264.98 355.94 264.98 355.94 269.56"/></g><g id="POLYLINE-67" data-name="POLYLINE"><polygon class="cls-1" points="265.94 264.98 265.94 269.56 267.82 269.56 267.82 268.65 279.75 268.65 279.75 269.56 281.62 269.56 281.62 264.98 279.75 264.98 279.75 265.88 267.82 265.88 267.82 264.98 265.94 264.98"/></g><g id="POLYLINE-68" data-name="POLYLINE"><polygon class="cls-1" points="315.14 283.65 316.05 283.65 316.05 291.08 315.14 291.08 315.14 292.95 322.42 292.95 322.42 291.08 321.52 291.08 321.52 283.65 322.42 283.65 322.42 281.78 315.14 281.78 315.14 283.65"/></g><g id="POLYLINE-69" data-name="POLYLINE"><polygon class="cls-1" points="339.14 319.5 341.02 319.5 341.02 314.93 339.14 314.93 339.14 315.83 298.42 315.83 298.42 314.93 296.55 314.93 296.55 319.5 298.42 319.5 298.42 318.6 339.14 318.6 339.14 319.5"/></g><g id="POLYLINE-70" data-name="POLYLINE"><polygon class="cls-1" points="355.94 319.5 357.82 319.5 357.82 318.6 369.75 318.6 369.75 319.5 371.62 319.5 371.62 314.93 369.75 314.93 369.75 315.83 357.82 315.83 357.82 314.93 355.94 314.93 355.94 319.5"/></g><g id="POLYLINE-71" data-name="POLYLINE"><polygon class="cls-1" points="265.94 314.93 265.94 319.5 267.82 319.5 267.82 318.6 279.75 318.6 279.75 319.5 281.62 319.5 281.62 314.93 279.75 314.93 279.75 315.83 267.82 315.83 267.82 314.93 265.94 314.93"/></g><g id="POLYLINE-72" data-name="POLYLINE"><polygon class="cls-1" points="315.14 333.6 316.05 333.6 316.05 341.03 315.14 341.03 315.14 342.9 322.42 342.9 322.42 341.03 321.52 341.03 321.52 333.6 322.42 333.6 322.42 331.73 315.14 331.73 315.14 333.6"/></g><g id="POLYLINE-73" data-name="POLYLINE"><rect class="cls-4" x="14.28" y="30.13" width="183" height="366"/></g><g id="POLYLINE-74" data-name="POLYLINE"><rect class="cls-4" x="227.28" y="30.13" width="183" height="366"/></g></svg>