<svg id="Layer_1" data-name="Layer 1" xmlns="http://www.w3.org/2000/svg" viewBox="0 0 442.72 425.2"><defs><style>.cls-1,.cls-4{fill:none;stroke:#1d1d1b;stroke-miterlimit:10;}.cls-1{stroke-width:0.5px;}.cls-2{font-size:8.47px;}.cls-2,.cls-3{fill:#1d1d1b;font-family:Monotxt;}.cls-3{font-size:6px;}.cls-4{stroke-width:0.25px;}</style></defs><g id="POLYLINE"><path class="cls-1" d="M245.47,371.25a.9.9,0,0,0-.9.9v7.21a.9.9,0,0,0,.9.9l42.07.08v-9.16Z"/></g><g id="POLYLINE-2" data-name="POLYLINE"><path class="cls-1" d="M245.47,382.22a.9.9,0,0,0-.9.9v7.2a.9.9,0,0,0,.9.91l42.07.07v-9.16Z"/></g><g id="POLYLINE-3" data-name="POLYLINE"><path class="cls-1" d="M245.47,349.33a.9.9,0,0,0-.9.9v7.21a.9.9,0,0,0,.9.9l42.07.07v-9.16Z"/></g><g id="POLYLINE-4" data-name="POLYLINE"><path class="cls-1" d="M245.47,360.29a.9.9,0,0,0-.9.9v7.21a.9.9,0,0,0,.9.9l42.07.08v-9.16Z"/></g><g id="POLYLINE-5" data-name="POLYLINE"><path class="cls-1" d="M245.55,327.41a.9.9,0,0,0-.9.9v7.21a.9.9,0,0,0,.9.9l42.06.07v-9.16Z"/></g><g id="POLYLINE-6" data-name="POLYLINE"><path class="cls-1" d="M245.55,338.37a.9.9,0,0,0-.9.9v7.21a.9.9,0,0,0,.9.9l42.06.07v-9.16Z"/></g><g id="POLYLINE-7" data-name="POLYLINE"><path class="cls-1" d="M245.55,283.56a.9.9,0,0,0-.9.9v7.21a.9.9,0,0,0,.9.9l42.06.07v-9.16Z"/></g><g id="POLYLINE-8" data-name="POLYLINE"><path class="cls-1" d="M245.55,294.52a.9.9,0,0,0-.9.9v7.21a.9.9,0,0,0,.9.9l42.06.08v-9.16Z"/></g><g id="POLYLINE-9" data-name="POLYLINE"><path class="cls-1" d="M245.55,305.48a.9.9,0,0,0-.9.9v7.21a.9.9,0,0,0,.9.9l42.06.08v-9.16Z"/></g><g id="POLYLINE-10" data-name="POLYLINE"><path class="cls-1" d="M245.55,316.44a.9.9,0,0,0-.9.91v7.2a.9.9,0,0,0,.9.9l42.06.08v-9.16Z"/></g><g id="POLYLINE-11" data-name="POLYLINE"><path class="cls-1" d="M245.55,261.63a.9.9,0,0,0-.9.91v7.2a.9.9,0,0,0,.9.9l42.06.08v-9.16Z"/></g><g id="POLYLINE-12" data-name="POLYLINE"><path class="cls-1" d="M245.55,272.6a.9.9,0,0,0-.9.9v7.21a.9.9,0,0,0,.9.9l42.06.07v-9.16Z"/></g><g id="POLYLINE-13" data-name="POLYLINE"><path class="cls-1" d="M322.84,283.85a.94.94,0,0,1-.08.36.9.9,0,0,1-1.18.46l-9.26-4h-5.4l-9.25,4a.94.94,0,0,1-.36.08.9.9,0,0,1-.9-.9v-6.94a3,3,0,1,1,0-6V264a.86.86,0,0,1,.07-.36.9.9,0,0,1,1.19-.47l9.25,4h5.4l9.26-4a.86.86,0,0,1,.36-.07.9.9,0,0,1,.9.9v6.93a3,3,0,0,1,0,6Z"/></g><g id="POLYLINE-14" data-name="POLYLINE"><path class="cls-1" d="M322.84,309.38a.85.85,0,0,1-.08.35.89.89,0,0,1-1.18.47l-9.26-4h-5.4l-9.25,4a.94.94,0,0,1-.36.08.9.9,0,0,1-.9-.9v-6.94a3,3,0,1,1,0-6V289.5a.86.86,0,0,1,.07-.36.9.9,0,0,1,1.19-.47l9.25,4h5.4l9.26-4a.86.86,0,0,1,.36-.08.91.91,0,0,1,.9.91v6.93a3,3,0,0,1,0,6Z"/></g><g id="POLYLINE-15" data-name="POLYLINE"><path class="cls-1" d="M322.84,334.9a.86.86,0,0,1-.08.36.89.89,0,0,1-1.18.47l-9.26-4h-5.4l-9.25,4a.92.92,0,0,1-.36.07.9.9,0,0,1-.9-.9V328a3,3,0,1,1,0-6V315a.84.84,0,0,1,.07-.35.9.9,0,0,1,1.19-.47l9.25,4h5.4l9.26-4a.86.86,0,0,1,.36-.08.91.91,0,0,1,.9.9V322a3,3,0,0,1,0,6Z"/></g><g id="POLYLINE-16" data-name="POLYLINE"><path class="cls-1" d="M322.84,360.43a.91.91,0,0,1-1.26.83l-9.26-4h-5.4l-9.25,4a.92.92,0,0,1-.36.07.9.9,0,0,1-.9-.9v-6.94a3,3,0,1,1,0-6v-6.94a.9.9,0,0,1,1.26-.83l9.25,4h5.4l9.26-4a1,1,0,0,1,.36-.07.9.9,0,0,1,.9.9v6.94a3,3,0,0,1,0,6Z"/></g><g id="POLYLINE-17" data-name="POLYLINE"><path class="cls-1" d="M322.84,386a.94.94,0,0,1-.08.36.91.91,0,0,1-1.18.47l-9.26-4h-5.4l-9.25,4a1.15,1.15,0,0,1-.36.07.9.9,0,0,1-.9-.9V379a3,3,0,1,1,0-6v-6.94a.89.89,0,0,1,.07-.36.9.9,0,0,1,1.19-.47l9.25,4h5.4l9.26-4a.86.86,0,0,1,.36-.07.9.9,0,0,1,.9.9V373a3,3,0,0,1,0,6Z"/></g><g id="POLYLINE-18" data-name="POLYLINE"><path class="cls-1" d="M361.46,283.85a.92.92,0,0,1-.07.36.91.91,0,0,1-1.19.46l-9.25-4h-5.4l-9.26,4a.85.85,0,0,1-.35.08.9.9,0,0,1-.9-.9v-6.94a3,3,0,1,1,0-6V264a.86.86,0,0,1,.07-.36.89.89,0,0,1,1.18-.47l9.26,4H351l9.25-4a.92.92,0,0,1,.36-.07.9.9,0,0,1,.9.9v6.93a3,3,0,1,1,0,6Z"/></g><g id="POLYLINE-19" data-name="POLYLINE"><path class="cls-1" d="M361.46,309.38a.84.84,0,0,1-.07.35.9.9,0,0,1-1.19.47l-9.25-4h-5.4l-9.26,4a.85.85,0,0,1-.35.08.9.9,0,0,1-.9-.9v-6.94a3,3,0,1,1,0-6V289.5a.86.86,0,0,1,.07-.36.89.89,0,0,1,1.18-.47l9.26,4H351l9.25-4a.94.94,0,0,1,.36-.08.9.9,0,0,1,.9.91v6.93a3,3,0,1,1,0,6Z"/></g><g id="POLYLINE-20" data-name="POLYLINE"><path class="cls-1" d="M361.46,334.9a.86.86,0,0,1-.07.36.9.9,0,0,1-1.19.47l-9.25-4h-5.4l-9.26,4a.84.84,0,0,1-.35.07.9.9,0,0,1-.9-.9V328a3,3,0,1,1,0-6V315a.84.84,0,0,1,.07-.35.89.89,0,0,1,1.18-.47l9.26,4H351l9.25-4a.94.94,0,0,1,.36-.08.9.9,0,0,1,.9.9V322a3,3,0,1,1,0,6Z"/></g><g id="POLYLINE-21" data-name="POLYLINE"><path class="cls-1" d="M361.46,360.43a.89.89,0,0,1-.07.36.9.9,0,0,1-1.19.47l-9.25-4h-5.4l-9.26,4a.84.84,0,0,1-.35.07.9.9,0,0,1-.9-.9v-6.94a3,3,0,1,1,0-6v-6.94a.92.92,0,0,1,.07-.36.91.91,0,0,1,1.18-.47l9.26,4H351l9.25-4a1.15,1.15,0,0,1,.36-.07.9.9,0,0,1,.9.9v6.94a3,3,0,1,1,0,6Z"/></g><g id="POLYLINE-22" data-name="POLYLINE"><path class="cls-1" d="M361.46,386a.9.9,0,0,1-1.26.83l-9.25-4h-5.4l-9.26,4a1,1,0,0,1-.35.07.9.9,0,0,1-.9-.9V379a3,3,0,1,1,0-6v-6.94a.89.89,0,0,1,1.25-.83l9.26,4H351l9.25-4a.92.92,0,0,1,.36-.07.9.9,0,0,1,.9.9V373a3,3,0,1,1,0,6Z"/></g><g id="POLYLINE-23" data-name="POLYLINE"><path class="cls-1" d="M314.48,107.88v7.59h-.9v1.87h3.61v7.44h-3.61v1.87h.9v7.59h-.9v1.87h3.61v7.44H297.27a.87.87,0,0,1-.66-.31.85.85,0,0,1-.2-.7l1.16-6.91a.94.94,0,0,0-.78-1.08H285.25a.94.94,0,0,0-.94.93.78.78,0,0,0,0,.16l1.15,6.91a.88.88,0,0,1-.19.7.9.9,0,0,1-.66.31H269.51v-7.44h3.6v-1.87h-.9v-7.59h.9v-1.87h-3.6v-7.44h3.6v-1.87h-.9v-7.59h.9V106h-3.6V91.06h3.6V89.19h-.9V81.6h.9V79.73h-3.6V72.29h3.6V70.42h-.9V62.83h.9V61h-3.6V46h3.6V44.14h-.9V31h9.69v3.6h1.88v-.9h14.34v.9H300V31h14.49V44.14h-.9V46h3.61V61h-3.61v1.87h.9V69.2l-9.2-4a.93.93,0,0,0-1.23.49.91.91,0,0,0-.08.37V86a.94.94,0,0,0,.94.94.91.91,0,0,0,.37-.08l9.2-4v6.37h-.9v1.87h3.61V106h-3.61v1.88Z"/></g><g id="POLYLINE-24" data-name="POLYLINE"><path class="cls-1" d="M167.65,40.06a.94.94,0,0,0,.93-1.09l-1.16-6.92s0-.09,0-.14a.87.87,0,0,1,.87-.86h11.53a.87.87,0,0,1,.71,1L179.36,39a1,1,0,0,0,.77,1.08h20.08v7.43h-3.6v1.88h.9v6.36l-9.2-4a1,1,0,0,0-1.24.49,1,1,0,0,0-.07.38V72.49a.94.94,0,0,0,.94.93,1,1,0,0,0,.37-.07l9.2-4v6.36h-.9V77.6h3.6V92.54h-3.6v1.88h.9V102h-.9v1.88h3.6v7.43h-3.6v1.88h.9v7.58h-.9v1.88h3.6v14.94h-3.6v1.88h.9v6.36l-9.2-4a1,1,0,0,0-1.24.49,1,1,0,0,0-.07.37v19.88a.94.94,0,0,0,.94.94.83.83,0,0,0,.37-.08l9.2-4v6.36h-.9v1.88h3.6v14.94h-3.6v1.88h.9v7.58h-.9V194h3.6v7.43h-3.6v1.88h.9v7.58h-.9v1.88h3.6v14.94h-3.6v1.87h.9v6.37l-9.2-4a.93.93,0,0,0-1.31.86v19.88a.94.94,0,0,0,.94.94,1,1,0,0,0,.37-.08l9.2-4v6.36h-.9v1.88h3.6v14.94h-3.6v1.87h.9v7.59h-.9v1.87h3.6v7.44h-3.6v1.87h.9V301h-.9v1.87h3.6v15h-3.6v1.87h.9V326l-9.2-4a.94.94,0,0,0-1.24.49.9.9,0,0,0-.07.37v19.88a.94.94,0,0,0,.94.94,1,1,0,0,0,.37-.08l9.2-4V346h-.9v1.87h3.6v14.94h-3.6v1.88h.9v13.14H183v-3.6h-1.88v.9H166.8v-.9h-1.88v3.6h-9.68V364.71h.9v-1.88h-3.61V347.89h3.61V346h-.9v-7.59h.9v-1.87h-3.61v-7.44h3.61v-1.87h-.9v-7.59h.9v-1.87h-3.61v-15h3.61V301h-.9v-7.59h.9v-1.87h-3.61v-7.44h3.61V282.2h-.9v-7.59h.9v-1.87h-3.61V257.8h3.61v-1.88h-.9v-7.58h.9v-1.88h-3.61V239h3.61v-1.88h-.9v-7.59h.9v-1.87h-3.61V212.75h3.61v-1.88h-.9v-7.58h.9v-1.88h-3.61V194h3.61V192.1h-.9v-7.58h.9v-1.88h-3.61V167.7h3.61v-1.88h-.9v-7.58h.9v-1.88h-3.61v-7.43h3.61v-1.88h-.9v-7.58h.9v-1.88h-3.61V122.65h3.61v-1.88h-.9v-7.58h.9v-1.88h-3.61v-7.43h3.61V102h-.9V94.42h.9V92.54h-3.61V77.6h3.61V75.72h-.9V68.14h.9V66.26h-3.61V58.83h3.61V57h-.9V49.37h.9V47.49h-3.61V40.06Z"/></g><g id="POLYLINE-25" data-name="POLYLINE"><path class="cls-1" d="M297.27,258a.88.88,0,0,1-.86-1l1.16-6.91a1,1,0,0,0-.78-1.08H285.25a.94.94,0,0,0-.94.94.77.77,0,0,0,0,.15l1.15,6.91a.87.87,0,0,1-.85,1H272.21v-5.63h.9v-1.88h-3.6v-30h3.6v-1.87h-.9V207.29h.9v-1.88h-3.6v-8.18h3.6v-1.88h-.9v-1.72h.9v-1.88h-3.6v-2.63h3.6v-1.88h-.9v-1.72h.9v-1.88h-3.6v-8.18h3.6v-1.88h-.9V162.24h.9v-1.88h-3.6V145.42H281.9V149h1.88v-.9h14.34v.9H300v-3.61h14.49v13.14h-.9v1.88h3.61v14.94h-3.61v1.88h.9v7.58h-.9v1.88h3.61v7.43h-3.61V196h.9v7.58h-.9v1.88h3.61v14.94h-3.61v1.88h.9v7.58h-.9v1.88h3.61v7.43h-3.61v1.88h.9v7.58h-.9v1.88h3.61V258Z"/></g><g id="POLYLINE-26" data-name="POLYLINE"><path class="cls-1" d="M321.77,47.89h.9v1.88h-3.61V57.2h3.61v1.88h-.9v7.58h.9v1.88h-3.61V83.48h3.61v1.88h-.9v6.36l9.2-4h0a.9.9,0,0,1,.37-.07.94.94,0,0,1,.94.93v19.88a1,1,0,0,1-.08.38.94.94,0,0,1-1.23.49l-9.2-4v6.36h.9v1.88h-3.61v14.94h3.61v1.88h-.9v13.14h14.49v-3.61h1.88v.9h14.34v-.9h1.87v3.61h12.39v-15h-3.6v-1.87h.9V115.39h-.9v-1.88h3.6V83.56h-3.6V81.68h.9V70.34h-.9V68.46h3.6V38.51h-3.6V36.63h.9V31H351.62a.85.85,0,0,0-.85,1l1.15,6.92a.77.77,0,0,1,0,.15A.94.94,0,0,1,351,40H339.46a1,1,0,0,1-.78-1.08L339.84,32a.87.87,0,0,0-.86-1H319.06v7.43h3.61v1.88h-.9v7.58Z"/></g><g id="POLYLINE-27" data-name="POLYLINE"><path class="cls-1" d="M56.13,297.28H57v1.88h-3.6v7.43H57v1.88h-.9v7.58H57v1.88h-3.6v14.94H57v1.88h-.9v6.36l9.2-4h0a1,1,0,0,1,.37-.08.94.94,0,0,1,.94.94v19.88a1,1,0,0,1-.07.38.94.94,0,0,1-1.24.48l-9.2-4v6.36H57V363h-3.6v7.43H73.5a1,1,0,0,1,.78,1.08l-1.16,6.91a.86.86,0,0,0,.71,1H85.36a.87.87,0,0,0,.87-.86.77.77,0,0,0,0-.15l-1.15-6.91a.76.76,0,0,1,0-.15.94.94,0,0,1,.94-.94H98.4v-5.63h-.9V362.9h3.6v-30H97.5v-1.87h.9V319.73h-.9v-1.88h3.6v-30H97.5V286h.9V274.68h-.9V272.8h3.6v-30H97.5V241h.9V229.63h-.9v-1.87h3.6v-30H97.5v-1.88h.9V184.58h-.9v-1.87h3.6v-30H97.5v-1.88h.9V139.53h-.9v-1.87h3.6v-30H97.5v-1.88h.9V94.49h-.9V92.61h3.6v-30H97.5V60.77h.9V49.44h-.9V47.56h3.6V32.62H88.72v3.6H86.84v-.9H72.5v.9H70.62v-3.6H56.13V45.76H57v1.87h-3.6V62.58H57v1.87h-.9v6.36l9.2-4h0a1,1,0,0,1,.37-.08.94.94,0,0,1,.94.94V87.57a.93.93,0,0,1-1.31.86l-9.2-4v6.37H57v1.87h-3.6v14.94H57v1.88h-.9v7.58H57V119h-3.6v7.43H57v1.88h-.9v7.59H57v1.87h-3.6v14.94H57v1.88h-.9v6.36l9.2-4h0a.83.83,0,0,1,.37-.08.94.94,0,0,1,.94.94v19.88a.94.94,0,0,1-.07.37,1,1,0,0,1-1.24.49l-9.2-4v6.36H57v1.88h-3.6v14.94H57v1.88h-.9v7.58H57v1.88h-3.6v7.43H57v1.88h-.9V226H57v1.88h-3.6v14.94H57v1.88h-.9V251l9.2-4h0a1,1,0,0,1,.37-.07.94.94,0,0,1,.94.94v19.88a1,1,0,0,1-.07.37,1,1,0,0,1-1.24.49l-9.2-4V271H57v1.88h-3.6v14.94H57v1.88h-.9v7.58Z"/></g><g id="POLYLINE-28" data-name="POLYLINE"><path class="cls-1" d="M346.82,145.42a.85.85,0,0,0-.66.31.88.88,0,0,0-.19.7l1.15,6.91a.76.76,0,0,1,0,.15.94.94,0,0,1-.94.94H334.65a1,1,0,0,1-.77-1.08l1.15-6.91a.88.88,0,0,0-.19-.7.85.85,0,0,0-.66-.31H321.77v5.63h.9v1.88h-3.61v30h3.61v1.88h-.9V196.1h.9V198h-3.61v8.18h3.61V208h-.9v1.73h.9v1.87h-3.61v2.63h3.61v1.88h-.9v1.73h.9v1.87h-3.61v8.19h3.61v1.87h-.9v11.34h.9V243h-3.61V258h12.39v-3.6h1.88v.9h14.34v-.9h1.88V258h17.19V243h-3.6v-1.88h.9V229.81h-.9v-1.87h3.6V198h-3.6V196.1h.9V184.77h-.9v-1.88h3.6v-30h-3.6v-1.88h.9v-5.63Z"/></g><g id="POLYLINE-29" data-name="POLYLINE"><path class="cls-1" d="M401.18,368.84a.94.94,0,0,0-.93,1.09l1.15,6.92a.59.59,0,0,1,0,.14.87.87,0,0,1-.87.86H389a.86.86,0,0,1-.71-1l1.15-6.92a.94.94,0,0,0-.77-1.08H368.62v-7.43h3.6v-1.88h-.9V352h.9v-1.88h-3.6v-7.43h3.6v-1.88h-.9v-7.58h.9V331.3h-3.6V316.36h3.6v-1.88h-.9V306.9h.9V305h-3.6v-7.43h3.6v-1.88h-.9v-7.58h.9v-1.88h-3.6V271.31h3.6v-1.88h-.9v-7.58h.9V260h-3.6v-7.43h3.6v-1.88h-.9v-7.58h.9V241.2h-3.6V226.26h3.6v-1.88h-.9V216.8h.9v-1.88h-3.6v-7.43h3.6v-1.88h-.9V198h.9v-1.88h-3.6V181.21h3.6v-1.87h-.9v-7.59h.9v-1.88h-3.6v-7.43h3.6v-1.88h-.9V153h.9V151.1h-3.6V136.16h3.6v-1.87h-.9V126.7h.9v-1.87h-3.6v-7.44h3.6v-1.87h-.9v-7.59h.9v-1.87h-3.6v-15h3.6V89.24h-.9V81.65h.9V79.78h-3.6V72.34h3.6V70.47h-.9V62.88h.9V61h-3.6V46.07h3.6V44.19h-.9V31.05h14.49v3.6h1.88v-.9H402v.9h1.88v-3.6h12.38V46h-3.6v1.88h.9V59.2h-.9v1.88h3.6v8.19h-3.6v1.87h.9v1.73h-.9v1.88h3.6v2.62h-3.6v1.88h.9V81h-.9v1.88h3.6V91h-3.6v1.88h.9v11.33h-.9v1.88h3.6v30h-3.6V138h.9V149.3h-.9v1.88h3.6v8.18h-3.6v1.88h.9V163h-.9v1.87h3.6v2.63h-3.6v1.88h.9v1.73h-.9V173h3.6v8.19h-3.6V183h.9v11.34h-.9v1.88h3.6v30h-3.6v1.87h.9V239.4h-.9v1.88h3.6v8.18h-3.6v1.88h.9v1.73h-.9v1.87h3.6v2.63h-3.6v1.88h.9v1.72h-.9v1.88h3.6v8.19h-3.6v1.87h.9v11.34h-.9v1.88h3.6v29.95h-3.6v1.88h.9V329.5h-.9v1.88h3.6v8.18h-3.6v1.88h.9v1.72h-.9V345h3.6v2.63h-3.6v1.88h.9v1.72h-.9v1.88h3.6v8.18h-3.6v1.88h.9v5.63Z"/></g><g id="POLYLINE-30" data-name="POLYLINE"><path class="cls-1" d="M135.54,40.61a.94.94,0,0,1-.72-.33,1,1,0,0,1-.21-.76l1.16-6.91a.87.87,0,0,0-.71-1H123.53a.87.87,0,0,0-.87.87.78.78,0,0,0,0,.14l1.15,6.91a.76.76,0,0,1,0,.15.94.94,0,0,1-.94.94H105.68v5.63h.91v1.88H103v30h3.61V80h-.91V91.29h.91v1.88H103v30h3.61V125h-.91v11.34h.91v1.88H103v30h3.61v1.87h-.91v11.34h.91v1.88H103v30h3.61v1.87h-.91v11.34h.91v1.88H103v29.95h3.61v1.88h-.91v11.34h.91v1.88H103v29.95h3.61v1.88h-.91v11.34h.91v1.87H103v30h3.61v1.88h-.91v11.34h.91v1.87H103v15h17.2V374.8h1.87v.9h14.34v-.9h1.88v3.61h12.39v-15h-3.61v-1.87h.9V350.25h-.9v-1.88h3.61v-8.18h-3.61v-1.88h.9v-1.73h-.9v-1.87h3.61v-2.63h-3.61V330.2h.9v-1.72h-.9V326.6h3.61v-8.19h-3.61v-1.87h.9V305.2h-.9v-1.88h3.61V273.37h-3.61v-1.88h.9V260.15h-.9v-1.88h3.61v-8.18h-3.61v-1.88h.9v-1.72h-.9v-1.88h3.61V242h-3.61V240.1h.9v-1.72h-.9V236.5h3.61v-8.18h-3.61v-1.88h.9V215.1h-.9v-1.87h3.61v-30h-3.61v-1.88h.9V170.05h-.9v-1.87h3.61V160h-3.61v-1.87h.9v-1.73h-.9v-1.88h3.61v-2.63h-3.61V150h.9v-1.73h-.9V146.4h3.61v-8.18h-3.61v-1.88h.9V125h-.9v-1.87h3.61v-30h-3.61V91.29h.9V80h-.9V78.08h3.61V69.89h-3.61V68h.9V66.29h-.9V64.41h3.61V61.79h-3.61V59.91h.9V58.18h-.9V56.3h3.61V48.12h-3.61V46.24h.9V40.61Z"/></g><g id="MTEXT"><text class="cls-2" transform="translate(251.41 378.91)">&lt;PEG</text></g><g id="MTEXT-2" data-name="MTEXT"><text class="cls-2" transform="translate(251.41 389.87)">&lt;PEG</text></g><g id="MTEXT-3" data-name="MTEXT"><text class="cls-2" transform="translate(251.41 356.98)">&lt;PEG</text></g><g id="MTEXT-4" data-name="MTEXT"><text class="cls-2" transform="translate(251.41 367.94)">&lt;PEG</text></g><g id="MTEXT-5" data-name="MTEXT"><text class="cls-2" transform="translate(251.48 335.06)">&lt;PEG</text></g><g id="MTEXT-6" data-name="MTEXT"><text class="cls-2" transform="translate(251.48 346.02)">&lt;PEG</text></g><g id="MTEXT-7" data-name="MTEXT"><text class="cls-2" transform="translate(251.48 291.21)">&lt;PEG</text></g><g id="MTEXT-8" data-name="MTEXT"><text class="cls-2" transform="translate(251.48 302.17)">&lt;PEG</text></g><g id="MTEXT-9" data-name="MTEXT"><text class="cls-2" transform="translate(251.48 313.13)">&lt;PEG</text></g><g id="MTEXT-10" data-name="MTEXT"><text class="cls-2" transform="translate(251.48 324.1)">&lt;PEG</text></g><g id="MTEXT-11" data-name="MTEXT"><text class="cls-2" transform="translate(251.48 269.29)">&lt;PEG</text></g><g id="MTEXT-12" data-name="MTEXT"><text class="cls-2" transform="translate(251.48 280.25)">&lt;PEG</text></g><g id="MTEXT-13" data-name="MTEXT"><text class="cls-3" transform="translate(291.38 180.52) rotate(90)">CORNER-XL/F</text></g><g id="MTEXT-14" data-name="MTEXT"><text class="cls-3" transform="translate(341.26 181.42) rotate(90)">CORNER-XL/G</text></g><g id="MTEXT-15" data-name="MTEXT"><text class="cls-3" transform="translate(394.39 222.51) rotate(-90)">CORNER-XL/E</text></g><g id="MTEXT-16" data-name="MTEXT"><text class="cls-3" transform="translate(128.5 228.66) rotate(-90)">CORNER-XL/H</text></g><g id="MTEXT-17" data-name="MTEXT"><text class="cls-3" transform="translate(80.35 235.19) rotate(-90)">CORNER-XL/D</text></g><g id="MTEXT-18" data-name="MTEXT"><text class="cls-3" transform="translate(348.82 108.08) rotate(-90)">CORNER-XL/C</text></g><g id="MTEXT-19" data-name="MTEXT"><text class="cls-3" transform="translate(290.82 108.01) rotate(-90)">CORNER-XL/B</text></g><g id="MTEXT-20" data-name="MTEXT"><text class="cls-3" transform="translate(177.39 228.48) rotate(-90)">CORNER-XL/A</text></g><g id="POLYLINE-31" data-name="POLYLINE"><polygon class="cls-1" points="310.9 272.51 308.34 272.52 308.34 271.65 306.92 271.65 306.92 276.16 308.34 276.16 308.34 275.3 310.9 275.29 310.9 276.15 312.32 276.15 312.32 271.64 310.9 271.64 310.9 272.51"/></g><g id="POLYLINE-32" data-name="POLYLINE"><polygon class="cls-1" points="310.9 298.04 308.34 298.05 308.34 297.18 306.92 297.18 306.92 301.69 308.34 301.69 308.34 300.82 310.9 300.81 310.9 301.68 312.32 301.68 312.32 297.17 310.9 297.17 310.9 298.04"/></g><g id="POLYLINE-33" data-name="POLYLINE"><polygon class="cls-1" points="310.9 323.56 308.34 323.57 308.34 322.71 306.92 322.71 306.92 327.22 308.34 327.22 308.34 326.35 310.9 326.34 310.9 327.21 312.32 327.21 312.32 322.7 310.9 322.7 310.9 323.56"/></g><g id="POLYLINE-34" data-name="POLYLINE"><polygon class="cls-1" points="310.9 349.09 308.34 349.1 308.34 348.24 306.92 348.24 306.92 352.75 308.34 352.75 308.34 351.88 310.9 351.87 310.9 352.74 312.32 352.74 312.32 348.23 310.9 348.23 310.9 349.09"/></g><g id="POLYLINE-35" data-name="POLYLINE"><polygon class="cls-1" points="310.9 374.62 308.34 374.63 308.34 373.76 306.92 373.76 306.92 378.27 308.34 378.27 308.34 377.41 310.9 377.4 310.9 378.26 312.32 378.26 312.32 373.75 310.9 373.75 310.9 374.62"/></g><g id="POLYLINE-36" data-name="POLYLINE"><polygon class="cls-1" points="349.53 272.51 346.97 272.52 346.97 271.65 345.55 271.65 345.55 276.16 346.97 276.16 346.97 275.3 349.53 275.29 349.53 276.15 350.95 276.15 350.95 271.64 349.53 271.64 349.53 272.51"/></g><g id="POLYLINE-37" data-name="POLYLINE"><polygon class="cls-1" points="349.53 298.04 346.97 298.05 346.97 297.18 345.55 297.18 345.55 301.69 346.97 301.69 346.97 300.82 349.53 300.81 349.53 301.68 350.95 301.68 350.95 297.17 349.53 297.17 349.53 298.04"/></g><g id="POLYLINE-38" data-name="POLYLINE"><polygon class="cls-1" points="349.53 323.56 346.97 323.57 346.97 322.71 345.55 322.71 345.55 327.22 346.97 327.22 346.97 326.35 349.53 326.34 349.53 327.21 350.95 327.21 350.95 322.7 349.53 322.7 349.53 323.56"/></g><g id="POLYLINE-39" data-name="POLYLINE"><polygon class="cls-1" points="349.53 349.09 346.97 349.1 346.97 348.24 345.55 348.24 345.55 352.75 346.97 352.75 346.97 351.88 349.53 351.87 349.53 352.74 350.95 352.74 350.95 348.23 349.53 348.23 349.53 349.09"/></g><g id="POLYLINE-40" data-name="POLYLINE"><polygon class="cls-1" points="349.53 374.62 346.97 374.63 346.97 373.76 345.55 373.76 345.55 378.27 346.97 378.27 346.97 377.41 349.53 377.4 349.53 378.26 350.95 378.26 350.95 373.75 349.53 373.75 349.53 374.62"/></g><g id="POLYLINE-41" data-name="POLYLINE"><path class="cls-1" d="M272.21,231.73v7.51a.71.71,0,0,1-1.42,0v-7.51a.71.71,0,0,1,1.42,0Z"/></g><g id="POLYLINE-42" data-name="POLYLINE"><path class="cls-1" d="M364,57.24V49.73a.71.71,0,0,1,1.42,0v7.51a.71.71,0,1,1-1.42,0Z"/></g><g id="POLYLINE-43" data-name="POLYLINE"><path class="cls-1" d="M364,102.29V94.78a.71.71,0,0,1,1.42,0v7.51a.71.71,0,0,1-1.42,0Z"/></g><g id="POLYLINE-44" data-name="POLYLINE"><path class="cls-1" d="M98.4,351.68v-7.51a.72.72,0,0,1,1.43,0v7.51a.72.72,0,0,1-1.43,0Z"/></g><g id="POLYLINE-45" data-name="POLYLINE"><path class="cls-1" d="M98.4,306.63v-7.51a.72.72,0,0,1,1.43,0v7.51a.72.72,0,0,1-1.43,0Z"/></g><g id="POLYLINE-46" data-name="POLYLINE"><path class="cls-1" d="M98.4,261.58v-7.51a.72.72,0,0,1,1.43,0v7.51a.72.72,0,0,1-1.43,0Z"/></g><g id="POLYLINE-47" data-name="POLYLINE"><path class="cls-1" d="M98.4,216.53V209a.72.72,0,0,1,1.43,0v7.51a.72.72,0,0,1-1.43,0Z"/></g><g id="POLYLINE-48" data-name="POLYLINE"><path class="cls-1" d="M98.4,171.48V164a.72.72,0,0,1,1.43,0v7.51a.72.72,0,0,1-1.43,0Z"/></g><g id="POLYLINE-49" data-name="POLYLINE"><path class="cls-1" d="M98.4,126.43v-7.51a.72.72,0,0,1,1.43,0v7.51a.72.72,0,1,1-1.43,0Z"/></g><g id="POLYLINE-50" data-name="POLYLINE"><path class="cls-1" d="M98.4,81.38v-7.5a.72.72,0,1,1,1.43,0v7.5a.72.72,0,1,1-1.43,0Z"/></g><g id="POLYLINE-51" data-name="POLYLINE"><path class="cls-1" d="M321.77,171.66v-7.5a.72.72,0,1,0-1.43,0v7.5a.72.72,0,1,0,1.43,0Z"/></g><g id="POLYLINE-52" data-name="POLYLINE"><path class="cls-1" d="M364,216.71V209.2a.71.71,0,0,1,1.42,0v7.51a.71.71,0,1,1-1.42,0Z"/></g><g id="POLYLINE-53" data-name="POLYLINE"><path class="cls-1" d="M364,171.66v-7.5a.71.71,0,1,1,1.42,0v7.5a.71.71,0,1,1-1.42,0Z"/></g><g id="POLYLINE-54" data-name="POLYLINE"><path class="cls-1" d="M413.59,305.06a.72.72,0,0,0,1.43,0v-7.51a.72.72,0,0,0-1.43,0Z"/></g><g id="POLYLINE-55" data-name="POLYLINE"><path class="cls-1" d="M413.59,215a.72.72,0,0,0,1.43,0v-7.51a.72.72,0,0,0-1.43,0Z"/></g><g id="POLYLINE-56" data-name="POLYLINE"><path class="cls-1" d="M413.59,124.86v-7.5a.72.72,0,1,1,1.43,0v7.5a.72.72,0,1,1-1.43,0Z"/></g><g id="POLYLINE-57" data-name="POLYLINE"><path class="cls-1" d="M105.68,329.64v7.51a.71.71,0,1,1-1.42,0v-7.51a.71.71,0,1,1,1.42,0Z"/></g><g id="POLYLINE-58" data-name="POLYLINE"><path class="cls-1" d="M105.68,284.59v7.51a.71.71,0,1,1-1.42,0v-7.51a.71.71,0,1,1,1.42,0Z"/></g><g id="POLYLINE-59" data-name="POLYLINE"><path class="cls-1" d="M105.68,239.54v7.51a.71.71,0,1,1-1.42,0v-7.51a.71.71,0,1,1,1.42,0Z"/></g><g id="POLYLINE-60" data-name="POLYLINE"><path class="cls-1" d="M105.68,194.49V202a.71.71,0,0,1-1.42,0v-7.51a.71.71,0,0,1,1.42,0Z"/></g><g id="POLYLINE-61" data-name="POLYLINE"><path class="cls-1" d="M105.68,149.44V157a.71.71,0,0,1-1.42,0v-7.51a.71.71,0,1,1,1.42,0Z"/></g><g id="POLYLINE-62" data-name="POLYLINE"><path class="cls-1" d="M105.68,104.39v7.51a.71.71,0,1,1-1.42,0v-7.51a.71.71,0,1,1,1.42,0Z"/></g><g id="POLYLINE-63" data-name="POLYLINE"><path class="cls-1" d="M105.68,59.35v7.5a.71.71,0,1,1-1.42,0v-7.5a.71.71,0,1,1,1.42,0Z"/></g><g id="POLYLINE-64" data-name="POLYLINE"><path class="cls-1" d="M148,284.59v7.51a.72.72,0,0,0,1.43,0v-7.51a.72.72,0,0,0-1.43,0Z"/></g><g id="POLYLINE-65" data-name="POLYLINE"><path class="cls-1" d="M148,194.49V202a.72.72,0,0,0,1.43,0v-7.51a.72.72,0,0,0-1.43,0Z"/></g><g id="POLYLINE-66" data-name="POLYLINE"><path class="cls-1" d="M148,104.39v7.51a.72.72,0,1,0,1.43,0v-7.51a.72.72,0,0,0-1.43,0Z"/></g><g id="POLYLINE-67" data-name="POLYLINE"><rect class="cls-4" x="235.7" y="29.21" width="183.2" height="366.4"/></g><g id="POLYLINE-68" data-name="POLYLINE"><rect class="cls-4" x="18.85" y="29.21" width="183.2" height="366.4"/></g></svg>