<svg id="Layer_1" data-name="Layer 1" xmlns="http://www.w3.org/2000/svg" viewBox="0 0 425.2 425.2"><defs><style>.cls-1,.cls-2{fill:none;stroke-linecap:round;stroke-linejoin:round;}.cls-1{stroke:#000;stroke-width:0.25px;}.cls-2{stroke:#1d1d1b;}</style></defs><line class="cls-1" x1="220.67" y1="207.32" x2="220.71" y2="207.29"/><line class="cls-1" x1="220.86" y1="207.1" x2="221.22" y2="207.03"/><line class="cls-1" x1="221.22" y1="207.03" x2="221.61" y2="207.17"/><line class="cls-1" x1="221.61" y1="207.17" x2="230.64" y2="212.38"/><line class="cls-1" x1="230.64" y1="212.38" x2="231.03" y2="212.7"/><line class="cls-1" x1="231.03" y1="212.7" x2="231.39" y2="213.18"/><line class="cls-1" x1="231.39" y1="213.18" x2="231.62" y2="213.73"/><line class="cls-1" x1="231.62" y1="213.73" x2="231.7" y2="214.22"/><line class="cls-1" x1="231.7" y1="214.22" x2="231.7" y2="236.49"/><line class="cls-1" x1="231.17" y1="236.79" x2="231.17" y2="237.41"/><line class="cls-1" x1="231.17" y1="237.41" x2="233.29" y2="238.63"/><line class="cls-1" x1="234.88" y1="216.06" x2="234.92" y2="215.83"/><line class="cls-1" x1="234.96" y1="215.65" x2="235.03" y2="215.56"/><line class="cls-1" x1="235.19" y1="215.37" x2="235.55" y2="215.31"/><line class="cls-1" x1="235.55" y1="215.31" x2="235.94" y2="215.45"/><line class="cls-1" x1="235.94" y1="215.45" x2="244.96" y2="220.66"/><line class="cls-1" x1="244.96" y1="220.66" x2="245.36" y2="220.97"/><line class="cls-1" x1="245.36" y1="220.97" x2="245.72" y2="221.45"/><line class="cls-1" x1="245.72" y1="221.45" x2="245.95" y2="222"/><line class="cls-1" x1="245.95" y1="222" x2="246.03" y2="222.49"/><line class="cls-1" x1="246.03" y1="222.49" x2="246.03" y2="233.32"/><line class="cls-1" x1="245.5" y1="233.63" x2="245.5" y2="234.24"/><line class="cls-1" x1="245.5" y1="234.24" x2="259.82" y2="242.51"/><line class="cls-1" x1="259.82" y1="242.51" x2="259.82" y2="281.32"/><line class="cls-1" x1="153.68" y1="181.23" x2="163.15" y2="186.7"/><line class="cls-1" x1="162.62" y1="202.02" x2="162.62" y2="202.63"/><line class="cls-1" x1="162.62" y1="202.63" x2="164.74" y2="203.85"/><line class="cls-1" x1="166.33" y1="188.54" x2="178.63" y2="195.63"/><line class="cls-1" x1="178.63" y1="195.63" x2="178.63" y2="205.85"/><line class="cls-1" x1="178.09" y1="206.15" x2="178.09" y2="206.77"/><line class="cls-1" x1="178.09" y1="206.77" x2="180.22" y2="207.99"/><line class="cls-1" x1="181.93" y1="184.96" x2="181.96" y2="184.92"/><line class="cls-1" x1="182.12" y1="184.73" x2="182.48" y2="184.67"/><line class="cls-1" x1="182.48" y1="184.67" x2="182.87" y2="184.81"/><line class="cls-1" x1="182.87" y1="184.81" x2="191.89" y2="190.02"/><line class="cls-1" x1="191.89" y1="190.02" x2="192.28" y2="190.33"/><line class="cls-1" x1="192.28" y1="190.33" x2="192.64" y2="190.81"/><line class="cls-1" x1="192.64" y1="190.81" x2="192.88" y2="191.36"/><line class="cls-1" x1="192.88" y1="191.36" x2="192.95" y2="191.85"/><line class="cls-1" x1="192.95" y1="191.85" x2="192.95" y2="202.68"/><line class="cls-1" x1="192.42" y1="202.99" x2="192.42" y2="203.6"/><line class="cls-1" x1="192.42" y1="203.6" x2="218.96" y2="218.92"/><line class="cls-1" x1="238.42" y1="224.64" x2="238.42" y2="225.25"/><line class="cls-1" x1="238.42" y1="225.25" x2="240.54" y2="226.48"/><line class="cls-1" x1="238.95" y1="221.27" x2="238.95" y2="224.33"/><line class="cls-1" x1="223.91" y1="216.88" x2="226.04" y2="218.1"/><line class="cls-1" x1="224.44" y1="212.9" x2="224.44" y2="215.96"/><line class="cls-1" x1="223.91" y1="216.27" x2="223.91" y2="216.88"/><line class="cls-1" x1="185.35" y1="194" x2="185.35" y2="194.61"/><line class="cls-1" x1="185.35" y1="194.61" x2="187.47" y2="195.84"/><line class="cls-1" x1="185.88" y1="190.63" x2="185.88" y2="193.69"/><line class="cls-1" x1="220.02" y1="208.09" x2="220.42" y2="207.86"/><line class="cls-1" x1="218.96" y1="208.71" x2="219.03" y2="208.3"/><line class="cls-1" x1="219.63" y1="207.95" x2="220.02" y2="208.09"/><line class="cls-1" x1="219.27" y1="208.02" x2="219.63" y2="207.95"/><line class="cls-1" x1="219.03" y1="208.3" x2="219.27" y2="208.02"/><line class="cls-1" x1="230.24" y1="212.61" x2="230.64" y2="212.38"/><line class="cls-1" x1="220.02" y1="208.09" x2="229.04" y2="213.3"/><line class="cls-1" x1="230.1" y1="215.14" x2="230.5" y2="214.91"/><line class="cls-1" x1="229.04" y1="213.3" x2="229.43" y2="213.62"/><line class="cls-1" x1="230.03" y1="214.65" x2="230.1" y2="215.14"/><line class="cls-1" x1="229.79" y1="214.1" x2="230.03" y2="214.65"/><line class="cls-1" x1="229.43" y1="213.62" x2="229.79" y2="214.1"/><line class="cls-1" x1="230.1" y1="215.14" x2="230.1" y2="237.41"/><line class="cls-1" x1="230.1" y1="237.41" x2="229.57" y2="237.1"/><line class="cls-1" x1="229.57" y1="237.1" x2="229.57" y2="238.33"/><line class="cls-1" x1="229.57" y1="238.33" x2="231.17" y2="237.41"/><line class="cls-1" x1="229.57" y1="238.33" x2="233.82" y2="240.78"/><line class="cls-1" x1="233.82" y1="240.78" x2="233.82" y2="239.55"/><line class="cls-1" x1="233.82" y1="239.55" x2="233.29" y2="239.25"/><line class="cls-1" x1="234.35" y1="216.37" x2="234.75" y2="216.14"/><line class="cls-1" x1="233.29" y1="216.98" x2="233.36" y2="216.57"/><line class="cls-1" x1="233.96" y1="216.23" x2="234.35" y2="216.37"/><line class="cls-1" x1="233.6" y1="216.29" x2="233.96" y2="216.23"/><line class="cls-1" x1="233.36" y1="216.57" x2="233.6" y2="216.29"/><line class="cls-1" x1="244.57" y1="220.89" x2="244.96" y2="220.66"/><line class="cls-1" x1="234.35" y1="216.37" x2="243.37" y2="221.58"/><line class="cls-1" x1="244.43" y1="223.41" x2="244.83" y2="223.18"/><line class="cls-1" x1="243.37" y1="221.58" x2="243.76" y2="221.89"/><line class="cls-1" x1="244.36" y1="222.92" x2="244.43" y2="223.41"/><line class="cls-1" x1="244.12" y1="222.37" x2="244.36" y2="222.92"/><line class="cls-1" x1="243.76" y1="221.89" x2="244.12" y2="222.37"/><line class="cls-1" x1="244.43" y1="223.41" x2="244.43" y2="234.24"/><line class="cls-1" x1="244.43" y1="234.24" x2="243.9" y2="233.94"/><line class="cls-1" x1="243.9" y1="233.94" x2="243.9" y2="235.16"/><line class="cls-1" x1="243.9" y1="235.16" x2="245.5" y2="234.24"/><line class="cls-1" x1="243.9" y1="235.16" x2="258.23" y2="243.43"/><line class="cls-1" x1="258.23" y1="243.43" x2="259.82" y2="242.51"/><line class="cls-1" x1="258.23" y1="243.43" x2="258.23" y2="282.24"/><line class="cls-1" x1="258.23" y1="282.24" x2="259.82" y2="281.32"/><line class="cls-1" x1="258.23" y1="282.24" x2="150.5" y2="220.04"/><line class="cls-1" x1="150.5" y1="220.04" x2="150.5" y2="192.67"/><line class="cls-1" x1="150.5" y1="192.67" x2="152.09" y2="191.75"/><line class="cls-1" x1="150.5" y1="192.67" x2="152.62" y2="193.9"/><line class="cls-1" x1="152.62" y1="193.9" x2="152.62" y2="192.67"/><line class="cls-1" x1="152.62" y1="192.67" x2="152.09" y2="192.37"/><line class="cls-1" x1="152.09" y1="182.15" x2="153.68" y2="181.23"/><line class="cls-1" x1="152.09" y1="182.15" x2="161.55" y2="187.62"/><line class="cls-1" x1="161.55" y1="187.62" x2="163.15" y2="186.7"/><line class="cls-1" x1="161.55" y1="187.62" x2="161.55" y2="202.54"/><line class="cls-1" x1="161.55" y1="202.54" x2="163.15" y2="201.62"/><line class="cls-1" x1="163.15" y1="201.62" x2="163.15" y2="186.7"/><line class="cls-1" x1="161.55" y1="202.54" x2="161.55" y2="202.63"/><line class="cls-1" x1="163.15" y1="201.71" x2="163.15" y2="201.62"/><line class="cls-1" x1="161.55" y1="202.63" x2="161.02" y2="202.32"/><line class="cls-1" x1="161.02" y1="202.32" x2="161.02" y2="203.55"/><line class="cls-1" x1="161.02" y1="203.55" x2="162.62" y2="202.63"/><line class="cls-1" x1="161.02" y1="203.55" x2="165.27" y2="206"/><line class="cls-1" x1="165.27" y1="206" x2="165.27" y2="204.77"/><line class="cls-1" x1="165.27" y1="204.77" x2="164.74" y2="204.47"/><line class="cls-1" x1="164.74" y1="189.45" x2="166.33" y2="188.54"/><line class="cls-1" x1="164.74" y1="189.45" x2="177.03" y2="196.55"/><line class="cls-1" x1="177.03" y1="196.55" x2="178.63" y2="195.63"/><line class="cls-1" x1="177.03" y1="196.55" x2="177.03" y2="206.77"/><line class="cls-1" x1="177.03" y1="206.77" x2="176.5" y2="206.46"/><line class="cls-1" x1="176.5" y1="206.46" x2="176.5" y2="207.68"/><line class="cls-1" x1="176.5" y1="207.68" x2="178.09" y2="206.77"/><line class="cls-1" x1="176.5" y1="207.68" x2="180.75" y2="210.14"/><line class="cls-1" x1="180.75" y1="210.14" x2="180.75" y2="208.91"/><line class="cls-1" x1="180.75" y1="208.91" x2="180.22" y2="208.6"/><line class="cls-1" x1="180.22" y1="186.34" x2="180.29" y2="185.93"/><line class="cls-1" x1="180.89" y1="185.59" x2="181.28" y2="185.73"/><line class="cls-1" x1="180.53" y1="185.65" x2="180.89" y2="185.59"/><line class="cls-1" x1="181.41" y1="185.65" x2="181.28" y2="185.73"/><line class="cls-1" x1="180.29" y1="185.93" x2="180.53" y2="185.65"/><line class="cls-1" x1="191.5" y1="190.25" x2="191.89" y2="190.02"/><line class="cls-1" x1="181.28" y1="185.73" x2="190.3" y2="190.94"/><line class="cls-1" x1="191.36" y1="192.77" x2="191.76" y2="192.54"/><line class="cls-1" x1="190.3" y1="190.94" x2="190.69" y2="191.25"/><line class="cls-1" x1="191.29" y1="192.28" x2="191.36" y2="192.77"/><line class="cls-1" x1="191.05" y1="191.73" x2="191.29" y2="192.28"/><line class="cls-1" x1="190.69" y1="191.25" x2="191.05" y2="191.73"/><line class="cls-1" x1="191.36" y1="192.77" x2="191.36" y2="203.6"/><line class="cls-1" x1="191.36" y1="203.6" x2="190.83" y2="203.29"/><line class="cls-1" x1="190.83" y1="203.29" x2="190.83" y2="204.52"/><line class="cls-1" x1="190.83" y1="204.52" x2="192.42" y2="203.6"/><line class="cls-1" x1="190.83" y1="204.52" x2="219.49" y2="221.07"/><line class="cls-1" x1="219.49" y1="221.07" x2="219.49" y2="219.84"/><line class="cls-1" x1="219.49" y1="219.84" x2="218.96" y2="219.53"/><line class="cls-1" x1="185.35" y1="190.32" x2="184.29" y2="190.94"/><line class="cls-1" x1="184.29" y1="190.94" x2="184.29" y2="194.61"/><line class="cls-1" x1="184.29" y1="194.61" x2="183.76" y2="194.31"/><line class="cls-1" x1="183.76" y1="194.31" x2="183.76" y2="195.53"/><line class="cls-1" x1="183.76" y1="195.53" x2="185.35" y2="194.61"/><line class="cls-1" x1="183.76" y1="195.53" x2="188" y2="197.98"/><line class="cls-1" x1="188" y1="197.98" x2="188" y2="196.76"/><line class="cls-1" x1="188" y1="196.76" x2="187.47" y2="196.45"/><line class="cls-1" x1="187.47" y1="192.77" x2="188" y2="192.47"/><line class="cls-1" x1="187.47" y1="192.77" x2="188" y2="193.08"/><line class="cls-1" x1="183.76" y1="189.4" x2="183.76" y2="190.63"/><line class="cls-1" x1="183.76" y1="190.63" x2="184.82" y2="190.02"/><line class="cls-1" x1="183.76" y1="190.63" x2="184.29" y2="190.94"/><line class="cls-1" x1="222.85" y1="216.88" x2="222.32" y2="216.57"/><line class="cls-1" x1="222.32" y1="216.57" x2="222.32" y2="217.8"/><line class="cls-1" x1="222.32" y1="217.8" x2="223.91" y2="216.88"/><line class="cls-1" x1="222.32" y1="217.8" x2="226.57" y2="220.25"/><line class="cls-1" x1="226.57" y1="220.25" x2="226.57" y2="219.02"/><line class="cls-1" x1="226.57" y1="219.02" x2="226.04" y2="218.72"/><line class="cls-1" x1="226.04" y1="215.04" x2="226.57" y2="214.73"/><line class="cls-1" x1="226.04" y1="215.04" x2="226.57" y2="215.35"/><line class="cls-1" x1="222.32" y1="211.67" x2="222.32" y2="212.9"/><line class="cls-1" x1="222.32" y1="212.9" x2="223.38" y2="212.28"/><line class="cls-1" x1="222.32" y1="212.9" x2="222.85" y2="213.2"/><line class="cls-1" x1="222.85" y1="213.2" x2="223.91" y2="212.59"/><line class="cls-1" x1="222.85" y1="213.2" x2="222.85" y2="216.88"/><line class="cls-1" x1="237.89" y1="220.66" x2="236.83" y2="221.27"/><line class="cls-1" x1="236.83" y1="221.27" x2="237.36" y2="221.58"/><line class="cls-1" x1="237.36" y1="221.58" x2="238.42" y2="220.96"/><line class="cls-1" x1="237.36" y1="221.58" x2="237.36" y2="225.25"/><line class="cls-1" x1="237.36" y1="225.25" x2="236.83" y2="224.95"/><line class="cls-1" x1="236.83" y1="224.95" x2="236.83" y2="226.17"/><line class="cls-1" x1="236.83" y1="226.17" x2="238.42" y2="225.25"/><line class="cls-1" x1="236.83" y1="226.17" x2="241.07" y2="228.62"/><line class="cls-1" x1="241.07" y1="228.62" x2="241.07" y2="227.4"/><line class="cls-1" x1="241.07" y1="227.4" x2="240.54" y2="227.09"/><line class="cls-1" x1="240.54" y1="223.41" x2="241.07" y2="223.11"/><line class="cls-1" x1="240.54" y1="223.41" x2="241.07" y2="223.72"/><line class="cls-1" x1="236.83" y1="220.04" x2="236.83" y2="221.27"/><line class="cls-1" x1="230.1" y1="237.41" x2="231.17" y2="236.79"/><line class="cls-1" x1="231.17" y1="236.79" x2="231.7" y2="236.49"/><line class="cls-1" x1="233.29" y1="239.25" x2="233.29" y2="238.63"/><line class="cls-1" x1="233.29" y1="238.63" x2="233.29" y2="216.98"/><line class="cls-1" x1="234.75" y1="216.14" x2="234.88" y2="216.06"/><line class="cls-1" x1="244.43" y1="234.24" x2="245.5" y2="233.63"/><line class="cls-1" x1="245.5" y1="233.63" x2="246.03" y2="233.32"/><line class="cls-1" x1="152.09" y1="192.37" x2="152.09" y2="191.75"/><line class="cls-1" x1="152.09" y1="191.75" x2="152.09" y2="182.15"/><line class="cls-1" x1="161.55" y1="202.63" x2="162.62" y2="202.02"/><line class="cls-1" x1="162.62" y1="202.02" x2="163.15" y2="201.71"/><line class="cls-1" x1="164.74" y1="204.47" x2="164.74" y2="203.85"/><line class="cls-1" x1="164.74" y1="203.85" x2="164.74" y2="189.45"/><line class="cls-1" x1="177.03" y1="206.77" x2="178.09" y2="206.15"/><line class="cls-1" x1="178.09" y1="206.15" x2="178.63" y2="205.85"/><line class="cls-1" x1="180.22" y1="208.6" x2="180.22" y2="207.99"/><line class="cls-1" x1="180.22" y1="207.99" x2="180.22" y2="186.34"/><line class="cls-1" x1="181.41" y1="185.65" x2="181.68" y2="185.5"/><line class="cls-1" x1="191.36" y1="203.6" x2="192.42" y2="202.99"/><line class="cls-1" x1="192.42" y1="202.99" x2="192.95" y2="202.68"/><line class="cls-1" x1="218.96" y1="219.53" x2="218.96" y2="218.92"/><line class="cls-1" x1="218.96" y1="218.92" x2="218.96" y2="208.71"/><line class="cls-1" x1="184.29" y1="194.61" x2="185.35" y2="194"/><line class="cls-1" x1="185.35" y1="194" x2="185.88" y2="193.69"/><line class="cls-1" x1="187.47" y1="196.45" x2="187.47" y2="195.84"/><line class="cls-1" x1="187.47" y1="195.84" x2="187.47" y2="192.77"/><line class="cls-1" x1="188" y1="193.08" x2="188" y2="192.47"/><line class="cls-1" x1="188" y1="192.47" x2="188" y2="191.85"/><line class="cls-1" x1="188" y1="191.85" x2="185.88" y2="190.63"/><line class="cls-1" x1="224.44" y1="215.96" x2="223.91" y2="216.27"/><line class="cls-1" x1="223.91" y1="216.27" x2="222.85" y2="216.88"/><line class="cls-1" x1="226.04" y1="218.72" x2="226.04" y2="218.1"/><line class="cls-1" x1="226.04" y1="218.1" x2="226.04" y2="215.04"/><line class="cls-1" x1="226.57" y1="215.35" x2="226.57" y2="214.73"/><line class="cls-1" x1="226.57" y1="214.73" x2="226.57" y2="214.12"/><line class="cls-1" x1="226.57" y1="214.12" x2="224.44" y2="212.9"/><line class="cls-1" x1="237.36" y1="225.25" x2="238.42" y2="224.64"/><line class="cls-1" x1="238.42" y1="224.64" x2="238.95" y2="224.33"/><line class="cls-1" x1="240.54" y1="227.09" x2="240.54" y2="226.48"/><line class="cls-1" x1="240.54" y1="226.48" x2="240.54" y2="223.41"/><line class="cls-1" x1="241.07" y1="223.72" x2="241.07" y2="223.11"/><line class="cls-1" x1="241.07" y1="223.11" x2="241.07" y2="222.49"/><line class="cls-1" x1="241.07" y1="222.49" x2="238.95" y2="221.27"/><line class="cls-1" x1="185.88" y1="190.63" x2="185.35" y2="190.32"/><line class="cls-1" x1="224.44" y1="212.9" x2="223.91" y2="212.59"/><line class="cls-1" x1="238.95" y1="221.27" x2="238.42" y2="220.96"/><line class="cls-1" x1="185.35" y1="190.32" x2="184.82" y2="190.02"/><line class="cls-1" x1="184.82" y1="190.02" x2="183.76" y2="189.4"/><line class="cls-1" x1="223.91" y1="212.59" x2="223.38" y2="212.28"/><line class="cls-1" x1="223.38" y1="212.28" x2="222.32" y2="211.67"/><line class="cls-1" x1="238.42" y1="220.96" x2="237.89" y2="220.66"/><line class="cls-1" x1="237.89" y1="220.66" x2="236.83" y2="220.04"/><line class="cls-1" x1="219.27" y1="208.02" x2="220.86" y2="207.1"/><line class="cls-1" x1="220.42" y1="207.86" x2="221.61" y2="207.17"/><line class="cls-1" x1="230.5" y1="214.91" x2="231.7" y2="214.22"/><line class="cls-1" x1="229.04" y1="213.3" x2="230.24" y2="212.61"/><line class="cls-1" x1="233.6" y1="216.29" x2="235.19" y2="215.37"/><line class="cls-1" x1="234.88" y1="216.06" x2="235.94" y2="215.45"/><line class="cls-1" x1="244.83" y1="223.18" x2="246.03" y2="222.49"/><line class="cls-1" x1="243.37" y1="221.58" x2="244.57" y2="220.89"/><line class="cls-1" x1="180.53" y1="185.65" x2="182.12" y2="184.73"/><line class="cls-1" x1="181.68" y1="185.5" x2="182.87" y2="184.81"/><line class="cls-1" x1="191.76" y1="192.54" x2="192.95" y2="191.85"/><line class="cls-1" x1="190.3" y1="190.94" x2="191.5" y2="190.25"/><polygon class="cls-2" points="164.81 204.35 164.81 189.95 166.4 189.03 178.7 196.13 178.7 206.34 178.17 206.65 178.17 207.26 180.29 208.49 180.29 186.84 180.37 186.43 180.6 186.15 182.19 185.23 182.55 185.16 182.94 185.3 191.97 190.51 192.36 190.82 192.72 191.3 192.95 191.86 193.03 192.35 193.03 203.18 192.5 203.48 192.5 204.09 219.03 219.42 219.03 209.2 219.11 208.79 219.34 208.51 220.94 207.59 221.29 207.53 221.69 207.67 230.71 212.88 231.1 213.19 231.46 213.67 231.69 214.22 231.77 214.72 231.77 236.98 231.24 237.29 231.24 237.9 233.36 239.13 233.36 217.48 233.44 217.07 233.67 216.79 235.26 215.87 235.62 215.8 236.01 215.94 245.04 221.15 245.43 221.46 245.79 221.94 246.02 222.5 246.1 222.99 246.1 233.82 245.57 234.12 245.57 234.74 259.9 243.01 259.9 281.82 258.31 282.74 150.57 220.54 150.57 193.17 152.16 192.25 152.16 182.65 153.75 181.73 163.22 187.19 163.22 202.12 163.22 202.2 162.69 202.51 162.69 203.12 164.81 204.35"/></svg>