<svg id="Layer_1" data-name="Layer 1" xmlns="http://www.w3.org/2000/svg" viewBox="0 0 212.6 425.2"><defs><style>.cls-1{font-size:5.3px;fill:#1d1d1b;font-family:Monotxt;}.cls-2,.cls-3{fill:none;stroke:#1d1d1b;stroke-miterlimit:10;}.cls-2{stroke-width:0.25px;}.cls-3{stroke-width:0.5px;}</style></defs><g id="MTEXT"><text class="cls-1" transform="translate(137.94 263.13) rotate(90)">COMB-A/END-Y1</text></g><g id="MTEXT-2" data-name="MTEXT"><text class="cls-1" transform="translate(73.61 338.58) rotate(-90)">COMB-A/END-Y1</text></g><g id="POLYLINE"><rect class="cls-2" x="14.56" y="30.03" width="183.49" height="366.97"/></g><g id="POLYLINE-2" data-name="POLYLINE"><polygon class="cls-3" points="185.23 335.55 179.89 335.55 179.89 336.45 178.01 336.45 178.01 329.16 179.89 329.16 179.89 330.06 185.23 330.06 185.23 329.16 187.11 329.16 187.11 336.45 185.23 336.45 185.23 335.55"/></g><g id="POLYLINE-3" data-name="POLYLINE"><polygon class="cls-3" points="179.89 269.98 179.89 270.88 178.01 270.88 178.01 263.58 179.89 263.58 179.89 264.49 185.23 264.49 185.23 263.58 187.11 263.58 187.11 270.88 185.23 270.88 185.23 269.98 179.89 269.98"/></g><g id="POLYLINE-4" data-name="POLYLINE"><polygon class="cls-3" points="185.23 246.21 185.23 245.31 179.89 245.31 179.89 246.21 178.01 246.21 178.01 238.92 179.89 238.92 179.89 239.82 185.23 239.82 185.23 238.92 187.11 238.92 187.11 246.21 185.23 246.21"/></g><g id="POLYLINE-5" data-name="POLYLINE"><polygon class="cls-3" points="26.33 335.55 31.67 335.55 31.67 336.45 33.55 336.45 33.55 329.16 31.67 329.16 31.67 330.06 26.33 330.06 26.33 329.16 24.45 329.16 24.45 336.45 26.33 336.45 26.33 335.55"/></g><g id="POLYLINE-6" data-name="POLYLINE"><polygon class="cls-3" points="31.67 269.98 31.67 270.88 33.55 270.88 33.55 263.58 31.67 263.58 31.67 264.49 26.33 264.49 26.33 263.58 24.45 263.58 24.45 270.88 26.33 270.88 26.33 269.98 31.67 269.98"/></g><g id="POLYLINE-7" data-name="POLYLINE"><polygon class="cls-3" points="26.33 246.21 26.33 245.31 31.67 245.31 31.67 246.21 33.55 246.21 33.55 238.92 31.67 238.92 31.67 239.82 26.33 239.82 26.33 238.92 24.45 238.92 24.45 246.21 26.33 246.21"/></g><g id="POLYLINE-8" data-name="POLYLINE"><path class="cls-3" d="M188.57,276.48a1.72,1.72,0,0,0,1.73-1.73V259.41a1.73,1.73,0,0,0-1.73-1.73H155.86v.9h-2v-7.37h2v.91h32.71a1.73,1.73,0,0,0,1.73-1.73V235.05a1.72,1.72,0,0,0-1.73-1.73H172.7v.9h-1.95V209.85h-57v183h40.16v-3.61h2v.9h14.89V374.24h-22v.9h-1.95v-7.37h1.95v.91h22V347.92H155.86v.9h-2v-7.37h2v.91h32.71a1.73,1.73,0,0,0,1.73-1.73V325.29a1.72,1.72,0,0,0-1.73-1.73H172.7v.9h-1.95V275.58h1.95v.9Z"/></g><g id="POLYLINE-9" data-name="POLYLINE"><path class="cls-3" d="M23,276.48a1.73,1.73,0,0,1-1.73-1.73V259.41A1.74,1.74,0,0,1,23,257.68H55.7v.9h1.95v-7.37H55.7v.91H23a1.74,1.74,0,0,1-1.73-1.73V235.05A1.73,1.73,0,0,1,23,233.32H38.85v.9h2V209.85h57v183H57.65v-3.61H55.7v.9H40.81V374.24H62.76v.9h2v-7.37h-2v.91H40.81V347.92H55.7v.9h1.95v-7.37H55.7v.91H23a1.74,1.74,0,0,1-1.73-1.73V325.29A1.73,1.73,0,0,1,23,323.56H38.85v.9h2V275.58h-2v.9Z"/></g></svg>