  0
SECTION
  2
HEADER
  9
$ACADVER
  1
AC1009
  9
$INSBASE
 10
0.000000
 20
0.000000
 30
0.000000
  9
$EXTMIN
 10
0.000000
 20
0.000000
 30
0.000000
  9
$EXTMAX
 10
247.500000
 20
785.500000
 30
0.000000
  0
ENDSEC
  0
SECTION
  2
TABLES
  0
TABLE
  2
LTYPE
 70
1
  0
LTYPE
  2
CONTINUOUS
 70
0
  3
Solid line
 72
65
 73
0
 40
0.000000
  0
ENDTAB
  0
TABLE
  2
LAYER
 70
3
  0
LAYER
  2
0
 70
0
 62
7
  6
CONTINUOUS
  0
LAYER
  2
1_ANYTOOL_1MMDEEP_LABELS_S
 70
0
 62
2
  6
CONTINUOUS
  0
LAYER
  2
4_ANYTOOL_CUTTHROUGH_OUTSI
 70
0
 62
5
  6
CONTINUOUS
  0
ENDTAB
  0
ENDSEC
  0
SECTION
  2
ENTITIES
  0
POLYLINE
  8
1_ANYTOOL_1MMDEEP_LABELS_S
 66
1
 10
0.000000
 20
0.000000
 30
0.000000
 70
1
  0
VERTEX
  8
1_ANYTOOL_1MMDEEP_LABELS_S
 10
121.934388
 20
463.506732
 30
0.000000
  0
VERTEX
  8
1_ANYTOOL_1MMDEEP_LABELS_S
 10
151.934388
 20
463.506732
 30
0.000000
  0
VERTEX
  8
1_ANYTOOL_1MMDEEP_LABELS_S
 10
151.848674
 20
472.035304
 30
0.000000
 42
0.046402
  0
VERTEX
  8
1_ANYTOOL_1MMDEEP_LABELS_S
 10
151.540498
 20
474.941678
 30
0.000000
 42
0.074650
  0
VERTEX
  8
1_ANYTOOL_1MMDEEP_LABELS_S
 10
150.552245
 20
477.671018
 30
0.000000
 42
0.077785
  0
VERTEX
  8
1_ANYTOOL_1MMDEEP_LABELS_S
 10
148.963222
 20
479.754003
 30
0.000000
 42
0.069150
  0
VERTEX
  8
1_ANYTOOL_1MMDEEP_LABELS_S
 10
146.834388
 20
481.292447
 30
0.000000
 42
0.029998
  0
VERTEX
  8
1_ANYTOOL_1MMDEEP_LABELS_S
 10
144.339072
 20
482.429973
 30
0.000000
 42
0.031416
  0
VERTEX
  8
1_ANYTOOL_1MMDEEP_LABELS_S
 10
141.723674
 20
483.253161
 30
0.000000
 42
0.031395
  0
VERTEX
  8
1_ANYTOOL_1MMDEEP_LABELS_S
 10
139.006351
 20
483.745805
 30
0.000000
 42
0.029153
  0
VERTEX
  8
1_ANYTOOL_1MMDEEP_LABELS_S
 10
136.248674
 20
483.906732
 30
0.000000
 42
0.032750
  0
VERTEX
  8
1_ANYTOOL_1MMDEEP_LABELS_S
 10
133.923251
 20
483.754252
 30
0.000000
 42
0.035889
  0
VERTEX
  8
1_ANYTOOL_1MMDEEP_LABELS_S
 10
131.641531
 20
483.285304
 30
0.000000
 42
0.035920
  0
VERTEX
  8
1_ANYTOOL_1MMDEEP_LABELS_S
 10
129.466163
 20
482.500445
 30
0.000000
 42
0.033706
  0
VERTEX
  8
1_ANYTOOL_1MMDEEP_LABELS_S
 10
127.420102
 20
481.421018
 30
0.000000
 42
0.042675
  0
VERTEX
  8
1_ANYTOOL_1MMDEEP_LABELS_S
 10
125.330350
 20
479.862535
 30
0.000000
 42
0.065683
  0
VERTEX
  8
1_ANYTOOL_1MMDEEP_LABELS_S
 10
123.632602
 20
477.901375
 30
0.000000
 42
0.068103
  0
VERTEX
  8
1_ANYTOOL_1MMDEEP_LABELS_S
 10
122.628695
 20
475.803649
 30
0.000000
 42
0.065471
  0
VERTEX
  8
1_ANYTOOL_1MMDEEP_LABELS_S
 10
122.212959
 20
473.513875
 30
0.000000
 42
0.005437
  0
VERTEX
  8
1_ANYTOOL_1MMDEEP_LABELS_S
 10
122.022905
 20
468.511754
 30
0.000000
 42
0.004710
  0
SEQEND
  8
1_ANYTOOL_1MMDEEP_LABELS_S
  0
LINE
  8
1_ANYTOOL_1MMDEEP_LABELS_S
 10
122.405817
 20
460.078161
 30
0.000000
 11
153.177245
 21
442.892447
 31
0.000000
  0
POLYLINE
  8
1_ANYTOOL_1MMDEEP_LABELS_S
 66
1
 10
0.000000
 20
0.000000
 30
0.000000
 70
0
  0
VERTEX
  8
1_ANYTOOL_1MMDEEP_LABELS_S
 10
121.934388
 20
422.835304
 30
0.000000
  0
VERTEX
  8
1_ANYTOOL_1MMDEEP_LABELS_S
 10
151.934388
 20
422.835304
 30
0.000000
  0
VERTEX
  8
1_ANYTOOL_1MMDEEP_LABELS_S
 10
151.934388
 20
439.935304
 30
0.000000
  0
SEQEND
  8
1_ANYTOOL_1MMDEEP_LABELS_S
  0
LINE
  8
1_ANYTOOL_1MMDEEP_LABELS_S
 10
138.048674
 20
417.692447
 30
0.000000
 11
138.134388
 21
408.906732
 31
0.000000
  0
LINE
  8
1_ANYTOOL_1MMDEEP_LABELS_S
 10
135.862959
 20
401.192447
 30
0.000000
 11
135.862959
 21
386.535304
 31
0.000000
  0
POLYLINE
  8
1_ANYTOOL_1MMDEEP_LABELS_S
 66
1
 10
0.000000
 20
0.000000
 30
0.000000
 70
0
  0
VERTEX
  8
1_ANYTOOL_1MMDEEP_LABELS_S
 10
151.934388
 20
405.478161
 30
0.000000
  0
VERTEX
  8
1_ANYTOOL_1MMDEEP_LABELS_S
 10
151.934388
 20
386.535304
 30
0.000000
  0
VERTEX
  8
1_ANYTOOL_1MMDEEP_LABELS_S
 10
121.934388
 20
386.535304
 30
0.000000
  0
VERTEX
  8
1_ANYTOOL_1MMDEEP_LABELS_S
 10
121.934388
 20
404.363875
 30
0.000000
  0
SEQEND
  8
1_ANYTOOL_1MMDEEP_LABELS_S
  0
POLYLINE
  8
4_ANYTOOL_CUTTHROUGH_OUTSI
 66
1
 10
0.000000
 20
0.000000
 30
0.000000
 70
1
  0
VERTEX
  8
4_ANYTOOL_CUTTHROUGH_OUTSI
 10
229.500000
 20
764.000000
 30
0.000000
  0
VERTEX
  8
4_ANYTOOL_CUTTHROUGH_OUTSI
 10
229.500000
 20
785.500000
 30
0.000000
  0
VERTEX
  8
4_ANYTOOL_CUTTHROUGH_OUTSI
 10
140.000000
 20
785.500000
 30
0.000000
  0
VERTEX
  8
4_ANYTOOL_CUTTHROUGH_OUTSI
 10
140.000000
 20
761.750000
 30
0.000000
 42
-0.414214
  0
VERTEX
  8
4_ANYTOOL_CUTTHROUGH_OUTSI
 10
139.750000
 20
761.500000
 30
0.000000
  0
VERTEX
  8
4_ANYTOOL_CUTTHROUGH_OUTSI
 10
127.750000
 20
761.500000
 30
0.000000
 42
-0.414214
  0
VERTEX
  8
4_ANYTOOL_CUTTHROUGH_OUTSI
 10
127.500000
 20
761.750000
 30
0.000000
  0
VERTEX
  8
4_ANYTOOL_CUTTHROUGH_OUTSI
 10
127.500000
 20
767.500000
 30
0.000000
  0
VERTEX
  8
4_ANYTOOL_CUTTHROUGH_OUTSI
 10
92.000000
 20
767.500000
 30
0.000000
  0
VERTEX
  8
4_ANYTOOL_CUTTHROUGH_OUTSI
 10
92.000000
 20
761.750000
 30
0.000000
 42
-0.414214
  0
VERTEX
  8
4_ANYTOOL_CUTTHROUGH_OUTSI
 10
91.750000
 20
761.500000
 30
0.000000
  0
VERTEX
  8
4_ANYTOOL_CUTTHROUGH_OUTSI
 10
79.750000
 20
761.500000
 30
0.000000
 42
-0.414214
  0
VERTEX
  8
4_ANYTOOL_CUTTHROUGH_OUTSI
 10
79.500000
 20
761.750000
 30
0.000000
  0
VERTEX
  8
4_ANYTOOL_CUTTHROUGH_OUTSI
 10
79.500000
 20
785.500000
 30
0.000000
  0
VERTEX
  8
4_ANYTOOL_CUTTHROUGH_OUTSI
 10
20.000000
 20
785.500000
 30
0.000000
  0
VERTEX
  8
4_ANYTOOL_CUTTHROUGH_OUTSI
 10
20.000000
 20
761.750000
 30
0.000000
 42
-0.414214
  0
VERTEX
  8
4_ANYTOOL_CUTTHROUGH_OUTSI
 10
19.750000
 20
761.500000
 30
0.000000
  0
VERTEX
  8
4_ANYTOOL_CUTTHROUGH_OUTSI
 10
0.000000
 20
761.500000
 30
0.000000
  0
VERTEX
  8
4_ANYTOOL_CUTTHROUGH_OUTSI
 10
0.000000
 20
618.000000
 30
0.000000
  0
VERTEX
  8
4_ANYTOOL_CUTTHROUGH_OUTSI
 10
127.500000
 20
618.000000
 30
0.000000
  0
VERTEX
  8
4_ANYTOOL_CUTTHROUGH_OUTSI
 10
127.500000
 20
623.750000
 30
0.000000
 42
-0.414214
  0
VERTEX
  8
4_ANYTOOL_CUTTHROUGH_OUTSI
 10
127.750000
 20
624.000000
 30
0.000000
  0
VERTEX
  8
4_ANYTOOL_CUTTHROUGH_OUTSI
 10
139.750000
 20
624.000000
 30
0.000000
 42
-0.414214
  0
VERTEX
  8
4_ANYTOOL_CUTTHROUGH_OUTSI
 10
140.000000
 20
623.750000
 30
0.000000
  0
VERTEX
  8
4_ANYTOOL_CUTTHROUGH_OUTSI
 10
140.000000
 20
593.750000
 30
0.000000
 42
-0.414214
  0
VERTEX
  8
4_ANYTOOL_CUTTHROUGH_OUTSI
 10
139.750000
 20
593.500000
 30
0.000000
  0
VERTEX
  8
4_ANYTOOL_CUTTHROUGH_OUTSI
 10
127.750000
 20
593.500000
 30
0.000000
 42
-0.414214
  0
VERTEX
  8
4_ANYTOOL_CUTTHROUGH_OUTSI
 10
127.500000
 20
593.750000
 30
0.000000
  0
VERTEX
  8
4_ANYTOOL_CUTTHROUGH_OUTSI
 10
127.500000
 20
599.500000
 30
0.000000
  0
VERTEX
  8
4_ANYTOOL_CUTTHROUGH_OUTSI
 10
80.000000
 20
599.500000
 30
0.000000
  0
VERTEX
  8
4_ANYTOOL_CUTTHROUGH_OUTSI
 10
80.000000
 20
24.000000
 30
0.000000
  0
VERTEX
  8
4_ANYTOOL_CUTTHROUGH_OUTSI
 10
91.759751
 20
24.000000
 30
0.000000
 42
-0.414214
  0
VERTEX
  8
4_ANYTOOL_CUTTHROUGH_OUTSI
 10
92.009751
 20
23.750000
 30
0.000000
  0
VERTEX
  8
4_ANYTOOL_CUTTHROUGH_OUTSI
 10
92.009751
 20
0.000000
 30
0.000000
  0
VERTEX
  8
4_ANYTOOL_CUTTHROUGH_OUTSI
 10
161.509751
 20
0.000000
 30
0.000000
  0
VERTEX
  8
4_ANYTOOL_CUTTHROUGH_OUTSI
 10
161.509751
 20
23.750000
 30
0.000000
 42
-0.414214
  0
VERTEX
  8
4_ANYTOOL_CUTTHROUGH_OUTSI
 10
161.759751
 20
24.000000
 30
0.000000
  0
VERTEX
  8
4_ANYTOOL_CUTTHROUGH_OUTSI
 10
173.759751
 20
24.000000
 30
0.000000
 42
-0.414193
  0
VERTEX
  8
4_ANYTOOL_CUTTHROUGH_OUTSI
 10
174.009751
 20
23.750017
 30
0.000000
  0
VERTEX
  8
4_ANYTOOL_CUTTHROUGH_OUTSI
 10
174.010145
 20
17.997414
 30
0.000000
  0
VERTEX
  8
4_ANYTOOL_CUTTHROUGH_OUTSI
 10
211.509751
 20
17.999983
 30
0.000000
  0
VERTEX
  8
4_ANYTOOL_CUTTHROUGH_OUTSI
 10
211.509751
 20
587.499344
 30
0.000000
  0
VERTEX
  8
4_ANYTOOL_CUTTHROUGH_OUTSI
 10
205.759751
 20
587.499344
 30
0.000000
 42
-0.414214
  0
VERTEX
  8
4_ANYTOOL_CUTTHROUGH_OUTSI
 10
205.509751
 20
587.749344
 30
0.000000
  0
VERTEX
  8
4_ANYTOOL_CUTTHROUGH_OUTSI
 10
205.509751
 20
599.749344
 30
0.000000
 42
-0.414214
  0
VERTEX
  8
4_ANYTOOL_CUTTHROUGH_OUTSI
 10
205.759751
 20
599.999344
 30
0.000000
  0
VERTEX
  8
4_ANYTOOL_CUTTHROUGH_OUTSI
 10
229.500000
 20
599.999344
 30
0.000000
  0
VERTEX
  8
4_ANYTOOL_CUTTHROUGH_OUTSI
 10
229.500000
 20
634.500000
 30
0.000000
  0
VERTEX
  8
4_ANYTOOL_CUTTHROUGH_OUTSI
 10
223.750000
 20
634.500000
 30
0.000000
 42
-0.414214
  0
VERTEX
  8
4_ANYTOOL_CUTTHROUGH_OUTSI
 10
223.500000
 20
634.750000
 30
0.000000
  0
VERTEX
  8
4_ANYTOOL_CUTTHROUGH_OUTSI
 10
223.500000
 20
646.750000
 30
0.000000
 42
-0.414214
  0
VERTEX
  8
4_ANYTOOL_CUTTHROUGH_OUTSI
 10
223.750000
 20
647.000000
 30
0.000000
  0
VERTEX
  8
4_ANYTOOL_CUTTHROUGH_OUTSI
 10
247.500000
 20
647.000000
 30
0.000000
  0
VERTEX
  8
4_ANYTOOL_CUTTHROUGH_OUTSI
 10
247.500000
 20
681.500000
 30
0.000000
  0
VERTEX
  8
4_ANYTOOL_CUTTHROUGH_OUTSI
 10
223.750000
 20
681.500000
 30
0.000000
 42
-0.414214
  0
VERTEX
  8
4_ANYTOOL_CUTTHROUGH_OUTSI
 10
223.500000
 20
681.750000
 30
0.000000
  0
VERTEX
  8
4_ANYTOOL_CUTTHROUGH_OUTSI
 10
223.500000
 20
693.750000
 30
0.000000
 42
-0.414214
  0
VERTEX
  8
4_ANYTOOL_CUTTHROUGH_OUTSI
 10
223.750000
 20
694.000000
 30
0.000000
  0
VERTEX
  8
4_ANYTOOL_CUTTHROUGH_OUTSI
 10
229.500000
 20
694.000000
 30
0.000000
  0
VERTEX
  8
4_ANYTOOL_CUTTHROUGH_OUTSI
 10
229.500000
 20
707.411000
 30
0.000000
  0
VERTEX
  8
4_ANYTOOL_CUTTHROUGH_OUTSI
 10
223.750000
 20
707.411000
 30
0.000000
 42
-0.414214
  0
VERTEX
  8
4_ANYTOOL_CUTTHROUGH_OUTSI
 10
223.500000
 20
707.661000
 30
0.000000
  0
VERTEX
  8
4_ANYTOOL_CUTTHROUGH_OUTSI
 10
223.500000
 20
719.661000
 30
0.000000
 42
-0.414214
  0
VERTEX
  8
4_ANYTOOL_CUTTHROUGH_OUTSI
 10
223.750000
 20
719.911000
 30
0.000000
  0
VERTEX
  8
4_ANYTOOL_CUTTHROUGH_OUTSI
 10
247.500000
 20
719.911000
 30
0.000000
  0
VERTEX
  8
4_ANYTOOL_CUTTHROUGH_OUTSI
 10
247.500000
 20
751.500000
 30
0.000000
  0
VERTEX
  8
4_ANYTOOL_CUTTHROUGH_OUTSI
 10
223.750000
 20
751.500000
 30
0.000000
 42
-0.414214
  0
VERTEX
  8
4_ANYTOOL_CUTTHROUGH_OUTSI
 10
223.500000
 20
751.750000
 30
0.000000
  0
VERTEX
  8
4_ANYTOOL_CUTTHROUGH_OUTSI
 10
223.500000
 20
763.750000
 30
0.000000
 42
-0.414214
  0
VERTEX
  8
4_ANYTOOL_CUTTHROUGH_OUTSI
 10
223.750000
 20
764.000000
 30
0.000000
  0
SEQEND
  8
4_ANYTOOL_CUTTHROUGH_OUTSI
  0
ENDSEC
  0
EOF
