<svg id="Layer_1" data-name="Layer 1" xmlns="http://www.w3.org/2000/svg" viewBox="0 0 212.6 425.2"><defs><style>.cls-1,.cls-2{fill:none;stroke:#1d1d1b;stroke-miterlimit:10;}.cls-1{stroke-width:0.25px;}.cls-2{stroke-width:0.5px;}.cls-3{font-size:5.3px;fill:#1d1d1b;font-family:Monotxt;}</style></defs><g id="POLYLINE"><rect class="cls-1" x="15.09" y="29.55" width="183.36" height="366.73"/></g><g id="POLYLINE-2" data-name="POLYLINE"><polygon class="cls-2" points="187.97 359.87 193.3 359.87 193.3 358.97 195.18 358.97 195.18 366.26 193.3 366.26 193.3 365.36 187.97 365.36 187.97 366.26 186.09 366.26 186.09 358.97 187.97 358.97 187.97 359.87"/></g><g id="POLYLINE-3" data-name="POLYLINE"><polygon class="cls-2" points="112.82 359.87 118.15 359.87 118.15 358.97 120.03 358.97 120.03 366.26 118.15 366.26 118.15 365.36 112.82 365.36 112.82 366.26 110.94 366.26 110.94 358.97 112.82 358.97 112.82 359.87"/></g><g id="POLYLINE-4" data-name="POLYLINE"><polygon class="cls-2" points="187.97 334.32 187.97 335.22 193.3 335.22 193.3 334.32 195.18 334.32 195.18 341.61 193.3 341.61 193.3 340.71 187.97 340.71 187.97 341.61 186.09 341.61 186.09 334.32 187.97 334.32"/></g><g id="POLYLINE-5" data-name="POLYLINE"><polygon class="cls-2" points="112.82 334.32 112.82 335.22 118.15 335.22 118.15 334.32 120.03 334.32 120.03 341.61 118.15 341.61 118.15 340.71 112.82 340.71 112.82 341.61 110.94 341.61 110.94 334.32 112.82 334.32"/></g><g id="POLYLINE-6" data-name="POLYLINE"><polygon class="cls-2" points="187.97 269.69 193.3 269.69 193.3 268.79 195.18 268.79 195.18 276.08 193.3 276.08 193.3 275.18 187.97 275.18 187.97 276.08 186.09 276.08 186.09 268.79 187.97 268.79 187.97 269.69"/></g><g id="POLYLINE-7" data-name="POLYLINE"><polygon class="cls-2" points="112.82 269.69 118.15 269.69 118.15 268.79 120.03 268.79 120.03 276.08 118.15 276.08 118.15 275.18 112.82 275.18 112.82 276.08 110.94 276.08 110.94 268.79 112.82 268.79 112.82 269.69"/></g><g id="POLYLINE-8" data-name="POLYLINE"><polygon class="cls-2" points="195.18 251.43 193.3 251.43 193.3 250.53 187.97 250.53 187.97 251.43 186.09 251.43 186.09 244.14 187.97 244.14 187.97 245.04 193.3 245.04 193.3 244.14 195.18 244.14 195.18 251.43"/></g><g id="POLYLINE-9" data-name="POLYLINE"><polygon class="cls-2" points="118.15 244.14 120.03 244.14 120.03 251.43 118.15 251.43 118.15 250.53 112.82 250.53 112.82 251.43 110.94 251.43 110.94 244.14 112.82 244.14 112.82 245.04 118.15 245.04 118.15 244.14"/></g><g id="POLYLINE-10" data-name="POLYLINE"><polygon class="cls-2" points="112.82 179.51 118.15 179.51 118.15 178.61 120.03 178.61 120.03 185.9 118.15 185.9 118.15 185 112.82 185 112.82 185.9 110.94 185.9 110.94 178.61 112.82 178.61 112.82 179.51"/></g><g id="POLYLINE-11" data-name="POLYLINE"><polygon class="cls-2" points="193.3 185 187.97 185 187.97 185.9 186.09 185.9 186.09 178.61 187.97 178.61 187.97 179.51 193.3 179.51 193.3 178.61 195.18 178.61 195.18 185.9 193.3 185.9 193.3 185"/></g><g id="POLYLINE-12" data-name="POLYLINE"><polygon class="cls-2" points="25.57 359.87 20.23 359.87 20.23 358.97 18.36 358.97 18.36 366.26 20.23 366.26 20.23 365.36 25.57 365.36 25.57 366.26 27.45 366.26 27.45 358.97 25.57 358.97 25.57 359.87"/></g><g id="POLYLINE-13" data-name="POLYLINE"><polygon class="cls-2" points="100.72 359.87 95.38 359.87 95.38 358.97 93.5 358.97 93.5 366.26 95.38 366.26 95.38 365.36 100.72 365.36 100.72 366.26 102.6 366.26 102.6 358.97 100.72 358.97 100.72 359.87"/></g><g id="POLYLINE-14" data-name="POLYLINE"><polygon class="cls-2" points="25.57 334.32 25.57 335.22 20.23 335.22 20.23 334.32 18.36 334.32 18.36 341.61 20.23 341.61 20.23 340.71 25.57 340.71 25.57 341.61 27.45 341.61 27.45 334.32 25.57 334.32"/></g><g id="POLYLINE-15" data-name="POLYLINE"><polygon class="cls-2" points="100.72 334.32 100.72 335.22 95.38 335.22 95.38 334.32 93.5 334.32 93.5 341.61 95.38 341.61 95.38 340.71 100.72 340.71 100.72 341.61 102.6 341.61 102.6 334.32 100.72 334.32"/></g><g id="POLYLINE-16" data-name="POLYLINE"><polygon class="cls-2" points="25.57 269.69 20.23 269.69 20.23 268.79 18.36 268.79 18.36 276.08 20.23 276.08 20.23 275.18 25.57 275.18 25.57 276.08 27.45 276.08 27.45 268.79 25.57 268.79 25.57 269.69"/></g><g id="POLYLINE-17" data-name="POLYLINE"><polygon class="cls-2" points="100.72 269.69 95.38 269.69 95.38 268.79 93.5 268.79 93.5 276.08 95.38 276.08 95.38 275.18 100.72 275.18 100.72 276.08 102.6 276.08 102.6 268.79 100.72 268.79 100.72 269.69"/></g><g id="POLYLINE-18" data-name="POLYLINE"><polygon class="cls-2" points="18.36 251.43 20.23 251.43 20.23 250.53 25.57 250.53 25.57 251.43 27.45 251.43 27.45 244.14 25.57 244.14 25.57 245.04 20.23 245.04 20.23 244.14 18.36 244.14 18.36 251.43"/></g><g id="POLYLINE-19" data-name="POLYLINE"><polygon class="cls-2" points="95.38 244.14 93.5 244.14 93.5 251.43 95.38 251.43 95.38 250.53 100.72 250.53 100.72 251.43 102.6 251.43 102.6 244.14 100.72 244.14 100.72 245.04 95.38 245.04 95.38 244.14"/></g><g id="POLYLINE-20" data-name="POLYLINE"><polygon class="cls-2" points="100.72 179.51 95.38 179.51 95.38 178.61 93.5 178.61 93.5 185.9 95.38 185.9 95.38 185 100.72 185 100.72 185.9 102.6 185.9 102.6 178.61 100.72 178.61 100.72 179.51"/></g><g id="POLYLINE-21" data-name="POLYLINE"><polygon class="cls-2" points="20.23 185 25.57 185 25.57 185.9 27.45 185.9 27.45 178.61 25.57 178.61 25.57 179.51 20.23 179.51 20.23 178.61 18.36 178.61 18.36 185.9 20.23 185.9 20.23 185"/></g><g id="POLYLINE-22" data-name="POLYLINE"><path class="cls-2" d="M104.06,146.41a1.72,1.72,0,0,1,1.73,1.73v17.28a1.73,1.73,0,0,1-1.73,1.73H98.13v-.9h-2v7.36h2v-.9h5.93a1.72,1.72,0,0,1,1.73,1.73V255.6a1.73,1.73,0,0,1-1.73,1.73H98.13v-.9h-2v7.36h2v-.9h5.93a1.72,1.72,0,0,1,1.73,1.73v81.16a1.73,1.73,0,0,1-1.73,1.73H98.13v-.9h-2V354h2v-.9h5.93a1.72,1.72,0,0,1,1.73,1.73v40.5H34.7V371h-2v.91H16.89a1.74,1.74,0,0,1-1.73-1.73V354.8a1.73,1.73,0,0,1,1.73-1.73H49.58v.9h2v-7.36h-2v.9H16.89a1.74,1.74,0,0,1-1.73-1.73V330.45a1.73,1.73,0,0,1,1.73-1.73H32.75v.9h2V280.77h-2v.91H16.89A1.74,1.74,0,0,1,15.16,280V264.62a1.73,1.73,0,0,1,1.73-1.73H49.58v.9h2v-7.36h-2v.9H16.89a1.74,1.74,0,0,1-1.73-1.73V240.27a1.73,1.73,0,0,1,1.73-1.73H32.75v.9h2V190.6h-2v.9H16.89a1.74,1.74,0,0,1-1.73-1.73V174.44a1.73,1.73,0,0,1,1.73-1.73H49.58v.9h2v-7.36h-2v.9H36.43a1.73,1.73,0,0,1-1.73-1.73V126.64a1.72,1.72,0,0,1,1.73-1.72H49.58v.9h2v-3.61H96.17v3.61h2v-.9h5.93a1.72,1.72,0,0,1,1.73,1.72v12.48a1.73,1.73,0,0,1-1.73,1.73H73.48v-.91h-2v7.37h2v-.9Z"/></g><g id="POLYLINE-23" data-name="POLYLINE"><path class="cls-2" d="M109.47,146.41a1.72,1.72,0,0,0-1.72,1.73v17.28a1.73,1.73,0,0,0,1.72,1.73h5.94v-.9h2v7.36h-2v-.9h-5.94a1.72,1.72,0,0,0-1.72,1.73V255.6a1.73,1.73,0,0,0,1.72,1.73h5.94v-.9h2v7.36h-2v-.9h-5.94a1.72,1.72,0,0,0-1.72,1.73v81.16a1.73,1.73,0,0,0,1.72,1.73h5.94v-.9h2V354h-2v-.9h-5.94a1.72,1.72,0,0,0-1.72,1.73v40.5h71.09V371h1.95v.91h15.86a1.74,1.74,0,0,0,1.73-1.73V354.8a1.73,1.73,0,0,0-1.73-1.73H164v.9h-2v-7.36h2v.9h32.69a1.74,1.74,0,0,0,1.73-1.73V330.45a1.73,1.73,0,0,0-1.73-1.73H180.79v.9h-1.95V280.77h1.95v.91h15.86a1.74,1.74,0,0,0,1.73-1.73V264.62a1.73,1.73,0,0,0-1.73-1.73H164v.9h-2v-7.36h2v.9h32.69a1.74,1.74,0,0,0,1.73-1.73V240.27a1.73,1.73,0,0,0-1.73-1.73H180.79v.9h-1.95V190.6h1.95v.9h15.86a1.74,1.74,0,0,0,1.73-1.73V174.44a1.73,1.73,0,0,0-1.73-1.73H164v.9h-2v-7.36h2v.9h13.15a1.74,1.74,0,0,0,1.73-1.73V126.64a1.73,1.73,0,0,0-1.73-1.72H164v.9h-2v-3.61H117.36v3.61h-2v-.9h-5.94a1.72,1.72,0,0,0-1.72,1.72v12.48a1.73,1.73,0,0,0,1.72,1.73h30.59v-.91H142v7.37h-1.95v-.9Z"/></g><g id="MTEXT"><text class="cls-3" transform="translate(75.98 298.08) rotate(-90)">COMB-B/END-X2</text></g><g id="MTEXT-2" data-name="MTEXT"><text class="cls-3" transform="translate(140.31 216.62) rotate(90)">COMB-B/END-X2</text></g></svg>