<svg id="Layer_1" data-name="Layer 1" xmlns="http://www.w3.org/2000/svg" viewBox="0 0 425.2 425.2"><defs><style>.cls-1,.cls-2{fill:none;stroke-linecap:round;stroke-linejoin:round;}.cls-1{stroke:#000;stroke-width:0.25px;}.cls-2{stroke:#1d1d1b;}</style></defs><line class="cls-1" x1="170.53" y1="212.79" x2="170.53" y2="216.88"/><line class="cls-1" x1="170.53" y1="216.88" x2="170.6" y2="217.37"/><line class="cls-1" x1="170.6" y1="217.37" x2="170.84" y2="217.92"/><line class="cls-1" x1="170.84" y1="217.92" x2="171.2" y2="218.41"/><line class="cls-1" x1="171.2" y1="218.41" x2="171.59" y2="218.72"/><line class="cls-1" x1="171.59" y1="218.72" x2="219.35" y2="246.29"/><line class="cls-1" x1="219.35" y1="246.29" x2="219.74" y2="246.43"/><line class="cls-1" x1="219.74" y1="246.43" x2="220.1" y2="246.37"/><line class="cls-1" x1="220.1" y1="246.37" x2="220.34" y2="246.09"/><line class="cls-1" x1="220.34" y1="246.09" x2="220.41" y2="245.68"/><line class="cls-1" x1="220.41" y1="245.68" x2="220.41" y2="241.59"/><line class="cls-1" x1="223.6" y1="243.43" x2="223.6" y2="247.52"/><line class="cls-1" x1="223.6" y1="247.52" x2="223.67" y2="248.01"/><line class="cls-1" x1="223.67" y1="248.01" x2="223.91" y2="248.57"/><line class="cls-1" x1="223.91" y1="248.57" x2="224.27" y2="249.05"/><line class="cls-1" x1="224.27" y1="249.05" x2="224.66" y2="249.36"/><line class="cls-1" x1="224.66" y1="249.36" x2="272.42" y2="276.93"/><line class="cls-1" x1="272.42" y1="276.93" x2="272.81" y2="277.07"/><line class="cls-1" x1="272.81" y1="277.07" x2="273.17" y2="277.01"/><line class="cls-1" x1="273.17" y1="277.01" x2="273.41" y2="276.73"/><line class="cls-1" x1="273.41" y1="276.73" x2="273.48" y2="276.32"/><line class="cls-1" x1="273.48" y1="276.32" x2="273.48" y2="272.24"/><line class="cls-1" x1="276.67" y1="274.07" x2="276.67" y2="278.16"/><line class="cls-1" x1="276.67" y1="278.16" x2="276.74" y2="278.65"/><line class="cls-1" x1="276.74" y1="278.65" x2="276.98" y2="279.21"/><line class="cls-1" x1="276.98" y1="279.21" x2="277.34" y2="279.69"/><line class="cls-1" x1="277.34" y1="279.69" x2="277.73" y2="280"/><line class="cls-1" x1="277.73" y1="280" x2="301.61" y2="293.79"/><line class="cls-1" x1="287.81" y1="236.18" x2="287.81" y2="225.36"/><line class="cls-1" x1="287.81" y1="225.36" x2="287.74" y2="224.86"/><line class="cls-1" x1="287.74" y1="224.86" x2="287.5" y2="224.31"/><line class="cls-1" x1="287.5" y1="224.31" x2="287.14" y2="223.83"/><line class="cls-1" x1="287.14" y1="223.83" x2="286.75" y2="223.52"/><line class="cls-1" x1="286.75" y1="223.52" x2="277.73" y2="218.31"/><line class="cls-1" x1="277.73" y1="218.31" x2="277.34" y2="218.17"/><line class="cls-1" x1="277.34" y1="218.17" x2="276.98" y2="218.23"/><line class="cls-1" x1="276.98" y1="218.23" x2="276.74" y2="218.51"/><line class="cls-1" x1="276.74" y1="218.51" x2="276.67" y2="218.92"/><line class="cls-1" x1="273.48" y1="239.35" x2="273.48" y2="217.08"/><line class="cls-1" x1="273.48" y1="217.08" x2="273.41" y2="216.59"/><line class="cls-1" x1="273.41" y1="216.59" x2="273.17" y2="216.04"/><line class="cls-1" x1="273.17" y1="216.04" x2="272.81" y2="215.55"/><line class="cls-1" x1="272.81" y1="215.55" x2="272.42" y2="215.24"/><line class="cls-1" x1="272.42" y1="215.24" x2="263.4" y2="210.03"/><line class="cls-1" x1="263.4" y1="210.03" x2="263.01" y2="209.9"/><line class="cls-1" x1="263.01" y1="209.9" x2="262.65" y2="209.96"/><line class="cls-1" x1="262.65" y1="209.96" x2="262.41" y2="210.24"/><line class="cls-1" x1="262.41" y1="210.24" x2="262.34" y2="210.65"/><line class="cls-1" x1="234.74" y1="205.54" x2="234.74" y2="194.72"/><line class="cls-1" x1="234.74" y1="194.72" x2="234.67" y2="194.22"/><line class="cls-1" x1="234.67" y1="194.22" x2="234.43" y2="193.67"/><line class="cls-1" x1="234.43" y1="193.67" x2="234.07" y2="193.19"/><line class="cls-1" x1="234.07" y1="193.19" x2="233.68" y2="192.88"/><line class="cls-1" x1="233.68" y1="192.88" x2="224.66" y2="187.67"/><line class="cls-1" x1="224.66" y1="187.67" x2="224.27" y2="187.53"/><line class="cls-1" x1="224.27" y1="187.53" x2="223.91" y2="187.59"/><line class="cls-1" x1="223.91" y1="187.59" x2="223.67" y2="187.87"/><line class="cls-1" x1="223.67" y1="187.87" x2="223.6" y2="188.28"/><line class="cls-1" x1="220.41" y1="208.71" x2="220.41" y2="186.44"/><line class="cls-1" x1="220.41" y1="186.44" x2="220.34" y2="185.95"/><line class="cls-1" x1="220.34" y1="185.95" x2="220.1" y2="185.4"/><line class="cls-1" x1="220.1" y1="185.4" x2="219.74" y2="184.91"/><line class="cls-1" x1="219.74" y1="184.91" x2="219.35" y2="184.6"/><line class="cls-1" x1="219.35" y1="184.6" x2="210.33" y2="179.39"/><line class="cls-1" x1="210.33" y1="179.39" x2="209.94" y2="179.26"/><line class="cls-1" x1="209.94" y1="179.26" x2="209.58" y2="179.32"/><line class="cls-1" x1="209.58" y1="179.32" x2="209.34" y2="179.6"/><line class="cls-1" x1="209.34" y1="179.6" x2="209.27" y2="180.01"/><line class="cls-1" x1="181.67" y1="174.9" x2="181.67" y2="164.07"/><line class="cls-1" x1="181.67" y1="164.07" x2="181.6" y2="163.58"/><line class="cls-1" x1="181.6" y1="163.58" x2="181.36" y2="163.03"/><line class="cls-1" x1="181.36" y1="163.03" x2="181" y2="162.55"/><line class="cls-1" x1="181" y1="162.55" x2="180.61" y2="162.24"/><line class="cls-1" x1="180.61" y1="162.24" x2="171.59" y2="157.03"/><line class="cls-1" x1="171.59" y1="157.03" x2="171.2" y2="156.89"/><line class="cls-1" x1="171.2" y1="156.89" x2="170.84" y2="156.95"/><line class="cls-1" x1="170.84" y1="156.95" x2="170.6" y2="157.23"/><line class="cls-1" x1="170.6" y1="157.23" x2="170.53" y2="157.64"/><line class="cls-1" x1="167.34" y1="178.07" x2="167.34" y2="169.08"/><line class="cls-1" x1="167.34" y1="169.08" x2="167.27" y2="168.58"/><line class="cls-1" x1="167.27" y1="168.58" x2="167.03" y2="168.03"/><line class="cls-1" x1="167.03" y1="168.03" x2="166.67" y2="167.55"/><line class="cls-1" x1="166.67" y1="167.55" x2="166.28" y2="167.24"/><line class="cls-1" x1="166.28" y1="167.24" x2="143.46" y2="154.07"/><line class="cls-1" x1="143.46" y1="154.07" x2="143.07" y2="153.93"/><line class="cls-1" x1="143.07" y1="153.93" x2="142.71" y2="153.99"/><line class="cls-1" x1="142.71" y1="153.99" x2="142.47" y2="154.27"/><line class="cls-1" x1="142.47" y1="154.27" x2="142.4" y2="154.68"/><line class="cls-1" x1="142.4" y1="196.55" x2="142.4" y2="200.64"/><line class="cls-1" x1="142.4" y1="200.64" x2="142.47" y2="201.13"/><line class="cls-1" x1="142.47" y1="201.13" x2="142.71" y2="201.69"/><line class="cls-1" x1="142.71" y1="201.69" x2="143.07" y2="202.17"/><line class="cls-1" x1="143.07" y1="202.17" x2="143.46" y2="202.48"/><line class="cls-1" x1="143.46" y1="202.48" x2="150.8" y2="206.72"/><line class="cls-1" x1="150.8" y1="206.72" x2="151.19" y2="206.86"/><line class="cls-1" x1="151.19" y1="206.86" x2="151.55" y2="206.79"/><line class="cls-1" x1="151.55" y1="206.79" x2="151.79" y2="206.51"/><line class="cls-1" x1="151.79" y1="206.51" x2="151.86" y2="206.1"/><line class="cls-1" x1="151.86" y1="206.1" x2="151.86" y2="185.27"/><line class="cls-1" x1="155.05" y1="207.94" x2="155.12" y2="208.44"/><line class="cls-1" x1="155.12" y1="208.44" x2="155.36" y2="208.99"/><line class="cls-1" x1="155.36" y1="208.99" x2="155.72" y2="209.47"/><line class="cls-1" x1="155.72" y1="209.47" x2="156.11" y2="209.78"/><line class="cls-1" x1="156.11" y1="209.78" x2="166.28" y2="215.65"/><line class="cls-1" x1="166.28" y1="215.65" x2="166.67" y2="215.79"/><line class="cls-1" x1="166.67" y1="215.79" x2="167.03" y2="215.73"/><line class="cls-1" x1="167.03" y1="215.73" x2="167.27" y2="215.45"/><line class="cls-1" x1="167.27" y1="215.45" x2="167.34" y2="215.04"/><line class="cls-1" x1="167.34" y1="215.04" x2="167.34" y2="210.95"/><line class="cls-1" x1="227.13" y1="192.57" x2="227.13" y2="191.34"/><line class="cls-1" x1="231.38" y1="195.02" x2="230.85" y2="194.72"/><line class="cls-1" x1="230.85" y1="198.39" x2="231.38" y2="198.7"/><line class="cls-1" x1="231.38" y1="198.7" x2="231.38" y2="199.92"/><line class="cls-1" x1="231.38" y1="199.92" x2="227.13" y2="197.47"/><line class="cls-1" x1="227.13" y1="197.47" x2="227.13" y2="196.25"/><line class="cls-1" x1="227.13" y1="196.25" x2="227.67" y2="196.55"/><line class="cls-1" x1="227.67" y1="196.55" x2="227.67" y2="192.88"/><line class="cls-1" x1="227.67" y1="192.88" x2="227.13" y2="192.57"/><line class="cls-1" x1="266.23" y1="266.21" x2="265.7" y2="265.9"/><line class="cls-1" x1="265.7" y1="265.9" x2="265.7" y2="264.68"/><line class="cls-1" x1="269.95" y1="268.36" x2="269.42" y2="268.05"/><line class="cls-1" x1="269.42" y1="271.73" x2="269.95" y2="272.03"/><line class="cls-1" x1="269.95" y1="272.03" x2="269.95" y2="273.26"/><line class="cls-1" x1="269.95" y1="273.26" x2="265.7" y2="270.81"/><line class="cls-1" x1="265.7" y1="270.81" x2="265.7" y2="269.58"/><line class="cls-1" x1="265.7" y1="269.58" x2="266.23" y2="269.89"/><line class="cls-1" x1="266.23" y1="269.89" x2="266.23" y2="266.21"/><line class="cls-1" x1="227.13" y1="243.64" x2="227.13" y2="242.41"/><line class="cls-1" x1="231.38" y1="246.09" x2="230.85" y2="245.78"/><line class="cls-1" x1="230.85" y1="249.46" x2="231.38" y2="249.77"/><line class="cls-1" x1="231.38" y1="249.77" x2="231.38" y2="250.99"/><line class="cls-1" x1="231.38" y1="250.99" x2="227.13" y2="248.54"/><line class="cls-1" x1="227.13" y1="248.54" x2="227.13" y2="247.32"/><line class="cls-1" x1="227.13" y1="247.32" x2="227.67" y2="247.62"/><line class="cls-1" x1="227.67" y1="247.62" x2="227.67" y2="243.95"/><line class="cls-1" x1="227.67" y1="243.95" x2="227.13" y2="243.64"/><line class="cls-1" x1="266.23" y1="215.14" x2="265.7" y2="214.83"/><line class="cls-1" x1="265.7" y1="214.83" x2="265.7" y2="213.61"/><line class="cls-1" x1="269.95" y1="217.29" x2="269.42" y2="216.98"/><line class="cls-1" x1="269.42" y1="220.66" x2="269.95" y2="220.96"/><line class="cls-1" x1="269.95" y1="220.96" x2="269.95" y2="222.19"/><line class="cls-1" x1="269.95" y1="222.19" x2="265.7" y2="219.74"/><line class="cls-1" x1="265.7" y1="219.74" x2="265.7" y2="218.51"/><line class="cls-1" x1="265.7" y1="218.51" x2="266.23" y2="218.82"/><line class="cls-1" x1="266.23" y1="218.82" x2="266.23" y2="215.14"/><line class="cls-1" x1="280.21" y1="274.28" x2="280.21" y2="273.05"/><line class="cls-1" x1="284.45" y1="276.73" x2="283.92" y2="276.42"/><line class="cls-1" x1="283.92" y1="280.1" x2="284.45" y2="280.41"/><line class="cls-1" x1="284.45" y1="280.41" x2="284.45" y2="281.63"/><line class="cls-1" x1="284.45" y1="281.63" x2="280.21" y2="279.18"/><line class="cls-1" x1="280.21" y1="279.18" x2="280.21" y2="277.96"/><line class="cls-1" x1="280.21" y1="277.96" x2="280.74" y2="278.26"/><line class="cls-1" x1="280.74" y1="278.26" x2="280.74" y2="274.59"/><line class="cls-1" x1="280.74" y1="274.59" x2="280.21" y2="274.28"/><line class="cls-1" x1="280.21" y1="223.21" x2="280.21" y2="221.99"/><line class="cls-1" x1="284.45" y1="225.66" x2="283.92" y2="225.36"/><line class="cls-1" x1="283.92" y1="229.03" x2="284.45" y2="229.34"/><line class="cls-1" x1="284.45" y1="229.34" x2="284.45" y2="230.56"/><line class="cls-1" x1="284.45" y1="230.56" x2="280.21" y2="228.11"/><line class="cls-1" x1="280.21" y1="228.11" x2="280.21" y2="226.89"/><line class="cls-1" x1="280.21" y1="226.89" x2="280.74" y2="227.19"/><line class="cls-1" x1="280.74" y1="227.19" x2="280.74" y2="223.52"/><line class="cls-1" x1="280.74" y1="223.52" x2="280.21" y2="223.21"/><line class="cls-1" x1="178.31" y1="168.06" x2="178.31" y2="169.28"/><line class="cls-1" x1="178.31" y1="169.28" x2="174.06" y2="166.83"/><line class="cls-1" x1="174.06" y1="166.83" x2="174.06" y2="165.61"/><line class="cls-1" x1="174.06" y1="165.61" x2="174.59" y2="165.91"/><line class="cls-1" x1="174.59" y1="165.91" x2="174.59" y2="162.24"/><line class="cls-1" x1="174.59" y1="162.24" x2="174.06" y2="161.93"/><line class="cls-1" x1="174.06" y1="161.93" x2="174.06" y2="160.7"/><line class="cls-1" x1="178.31" y1="164.38" x2="177.78" y2="164.07"/><line class="cls-1" x1="177.78" y1="167.75" x2="178.31" y2="168.06"/><line class="cls-1" x1="216.34" y1="190.02" x2="216.88" y2="190.32"/><line class="cls-1" x1="216.88" y1="190.32" x2="216.88" y2="191.55"/><line class="cls-1" x1="216.88" y1="191.55" x2="212.63" y2="189.1"/><line class="cls-1" x1="212.63" y1="189.1" x2="212.63" y2="187.87"/><line class="cls-1" x1="212.63" y1="187.87" x2="213.16" y2="188.18"/><line class="cls-1" x1="213.16" y1="188.18" x2="213.16" y2="184.5"/><line class="cls-1" x1="213.16" y1="184.5" x2="212.63" y2="184.19"/><line class="cls-1" x1="212.63" y1="184.19" x2="212.63" y2="182.97"/><line class="cls-1" x1="216.88" y1="186.65" x2="216.34" y2="186.34"/><line class="cls-1" x1="174.06" y1="213" x2="174.06" y2="211.77"/><line class="cls-1" x1="178.31" y1="215.45" x2="177.78" y2="215.14"/><line class="cls-1" x1="177.78" y1="218.82" x2="178.31" y2="219.13"/><line class="cls-1" x1="178.31" y1="219.13" x2="178.31" y2="220.35"/><line class="cls-1" x1="178.31" y1="220.35" x2="174.06" y2="217.9"/><line class="cls-1" x1="174.06" y1="217.9" x2="174.06" y2="216.67"/><line class="cls-1" x1="174.06" y1="216.67" x2="174.59" y2="216.98"/><line class="cls-1" x1="174.59" y1="216.98" x2="174.59" y2="213.3"/><line class="cls-1" x1="174.59" y1="213.3" x2="174.06" y2="213"/><line class="cls-1" x1="216.88" y1="237.71" x2="216.34" y2="237.41"/><line class="cls-1" x1="216.34" y1="241.08" x2="216.88" y2="241.39"/><line class="cls-1" x1="216.88" y1="241.39" x2="216.88" y2="242.62"/><line class="cls-1" x1="216.88" y1="242.62" x2="212.63" y2="240.16"/><line class="cls-1" x1="212.63" y1="240.16" x2="212.63" y2="238.94"/><line class="cls-1" x1="212.63" y1="238.94" x2="213.16" y2="239.24"/><line class="cls-1" x1="213.16" y1="239.24" x2="213.16" y2="235.57"/><line class="cls-1" x1="213.16" y1="235.57" x2="212.63" y2="235.26"/><line class="cls-1" x1="212.63" y1="235.26" x2="212.63" y2="234.04"/><line class="cls-1" x1="168.93" y1="214.12" x2="168.93" y2="210.65"/><line class="cls-1" x1="168.62" y1="214.81" x2="168.86" y2="214.53"/><line class="cls-1" x1="168.86" y1="214.53" x2="168.93" y2="214.12"/><line class="cls-1" x1="222" y1="244.76" x2="222" y2="241.29"/><line class="cls-1" x1="221.93" y1="245.17" x2="222" y2="244.76"/><line class="cls-1" x1="221.34" y1="245.51" x2="221.55" y2="245.48"/><line class="cls-1" x1="221.69" y1="245.45" x2="221.93" y2="245.17"/><line class="cls-1" x1="275.08" y1="275.4" x2="275.08" y2="271.93"/><line class="cls-1" x1="275" y1="275.81" x2="275.08" y2="275.4"/><line class="cls-1" x1="274.41" y1="276.15" x2="274.76" y2="276.09"/><line class="cls-1" x1="274.76" y1="276.09" x2="275" y2="275.81"/><line class="cls-1" x1="303.2" y1="292.87" x2="301.61" y2="293.79"/><line class="cls-1" x1="303.2" y1="292.87" x2="303.2" y2="244.46"/><line class="cls-1" x1="303.2" y1="244.46" x2="301.61" y2="245.38"/><line class="cls-1" x1="303.2" y1="244.46" x2="288.88" y2="236.18"/><line class="cls-1" x1="288.88" y1="236.18" x2="288.88" y2="235.57"/><line class="cls-1" x1="278.41" y1="217.5" x2="278.38" y2="217.54"/><line class="cls-1" x1="279.32" y1="217.39" x2="278.93" y2="217.25"/><line class="cls-1" x1="278.93" y1="217.25" x2="278.57" y2="217.31"/><line class="cls-1" x1="288.74" y1="222.91" x2="288.34" y2="222.6"/><line class="cls-1" x1="289.33" y1="223.94" x2="289.1" y2="223.39"/><line class="cls-1" x1="289.1" y1="223.39" x2="288.74" y2="222.91"/><line class="cls-1" x1="289.41" y1="235.26" x2="289.41" y2="224.44"/><line class="cls-1" x1="278.33" y1="217.59" x2="278.32" y2="217.69"/><line class="cls-1" x1="278.3" y1="217.77" x2="278.28" y2="217.88"/><line class="cls-1" x1="288.34" y1="222.6" x2="279.32" y2="217.39"/><line class="cls-1" x1="289.41" y1="224.44" x2="289.33" y2="223.94"/><line class="cls-1" x1="276.67" y1="240.57" x2="274.54" y2="239.35"/><line class="cls-1" x1="274.54" y1="239.35" x2="274.54" y2="238.73"/><line class="cls-1" x1="264.05" y1="209.27" x2="264.01" y2="209.32"/><line class="cls-1" x1="264.99" y1="209.12" x2="264.6" y2="208.98"/><line class="cls-1" x1="264.6" y1="208.98" x2="264.24" y2="209.04"/><line class="cls-1" x1="274.4" y1="214.64" x2="274.01" y2="214.32"/><line class="cls-1" x1="274.76" y1="215.12" x2="274.4" y2="214.64"/><line class="cls-1" x1="275" y1="215.67" x2="274.76" y2="215.12"/><line class="cls-1" x1="275.08" y1="216.16" x2="275" y2="215.67"/><line class="cls-1" x1="263.97" y1="209.5" x2="263.95" y2="209.6"/><line class="cls-1" x1="274.01" y1="214.32" x2="264.99" y2="209.12"/><line class="cls-1" x1="275.08" y1="238.43" x2="275.08" y2="216.16"/><line class="cls-1" x1="262.34" y1="220.86" x2="235.8" y2="205.54"/><line class="cls-1" x1="235.8" y1="205.54" x2="235.8" y2="204.93"/><line class="cls-1" x1="225.31" y1="186.9" x2="225.26" y2="186.95"/><line class="cls-1" x1="226.25" y1="186.75" x2="225.86" y2="186.61"/><line class="cls-1" x1="225.86" y1="186.61" x2="225.5" y2="186.67"/><line class="cls-1" x1="235.66" y1="192.27" x2="235.27" y2="191.96"/><line class="cls-1" x1="236.02" y1="192.75" x2="235.66" y2="192.27"/><line class="cls-1" x1="236.26" y1="193.3" x2="236.02" y2="192.75"/><line class="cls-1" x1="236.34" y1="193.79" x2="236.26" y2="193.3"/><line class="cls-1" x1="236.34" y1="204.62" x2="236.34" y2="193.79"/><line class="cls-1" x1="225.23" y1="187.13" x2="225.21" y2="187.24"/><line class="cls-1" x1="235.27" y1="191.96" x2="226.25" y2="186.75"/><line class="cls-1" x1="223.6" y1="209.93" x2="221.47" y2="208.71"/><line class="cls-1" x1="221.47" y1="208.71" x2="221.47" y2="208.09"/><line class="cls-1" x1="211.17" y1="178.4" x2="210.94" y2="178.68"/><line class="cls-1" x1="211.92" y1="178.48" x2="211.53" y2="178.34"/><line class="cls-1" x1="211.53" y1="178.34" x2="211.17" y2="178.4"/><line class="cls-1" x1="221.33" y1="184" x2="220.94" y2="183.68"/><line class="cls-1" x1="221.69" y1="184.48" x2="221.33" y2="184"/><line class="cls-1" x1="221.93" y1="185.03" x2="221.69" y2="184.48"/><line class="cls-1" x1="222" y1="185.52" x2="221.93" y2="185.03"/><line class="cls-1" x1="210.92" y1="178.77" x2="210.9" y2="178.86"/><line class="cls-1" x1="220.94" y1="183.68" x2="211.92" y2="178.48"/><line class="cls-1" x1="222" y1="207.79" x2="222" y2="185.52"/><line class="cls-1" x1="209.27" y1="190.22" x2="182.73" y2="174.9"/><line class="cls-1" x1="182.73" y1="174.9" x2="182.73" y2="174.29"/><line class="cls-1" x1="172.43" y1="156.03" x2="172.27" y2="156.22"/><line class="cls-1" x1="172.24" y1="156.26" x2="172.19" y2="156.31"/><line class="cls-1" x1="172.79" y1="155.97" x2="172.43" y2="156.03"/><line class="cls-1" x1="172.16" y1="156.49" x2="172.14" y2="156.6"/><line class="cls-1" x1="182.59" y1="161.63" x2="182.2" y2="161.32"/><line class="cls-1" x1="182.95" y1="162.11" x2="182.59" y2="161.63"/><line class="cls-1" x1="182.2" y1="161.32" x2="173.18" y2="156.11"/><line class="cls-1" x1="183.26" y1="163.15" x2="183.19" y2="162.66"/><line class="cls-1" x1="183.26" y1="173.98" x2="183.26" y2="163.15"/><line class="cls-1" x1="173.18" y1="156.11" x2="172.79" y2="155.97"/><line class="cls-1" x1="183.19" y1="162.66" x2="182.95" y2="162.11"/><line class="cls-1" x1="170.53" y1="179.29" x2="168.4" y2="178.07"/><line class="cls-1" x1="168.4" y1="178.07" x2="168.4" y2="177.45"/><line class="cls-1" x1="144.3" y1="153.07" x2="144.11" y2="153.3"/><line class="cls-1" x1="144.66" y1="153.01" x2="144.3" y2="153.07"/><line class="cls-1" x1="144.05" y1="153.45" x2="144.03" y2="153.53"/><line class="cls-1" x1="168.26" y1="166.63" x2="167.87" y2="166.32"/><line class="cls-1" x1="168.62" y1="167.11" x2="168.26" y2="166.63"/><line class="cls-1" x1="167.87" y1="166.32" x2="145.05" y2="153.15"/><line class="cls-1" x1="168.93" y1="168.16" x2="168.86" y2="167.66"/><line class="cls-1" x1="168.93" y1="177.15" x2="168.93" y2="168.16"/><line class="cls-1" x1="145.05" y1="153.15" x2="144.66" y2="153.01"/><line class="cls-1" x1="168.86" y1="167.66" x2="168.62" y2="167.11"/><line class="cls-1" x1="153.45" y1="205.18" x2="153.45" y2="184.96"/><line class="cls-1" x1="153.14" y1="205.87" x2="153.38" y2="205.59"/><line class="cls-1" x1="152.78" y1="205.94" x2="153" y2="205.9"/><line class="cls-1" x1="153.38" y1="205.59" x2="153.45" y2="205.18"/><line class="cls-1" x1="212.63" y1="235.26" x2="213.69" y2="234.65"/><line class="cls-1" x1="216.88" y1="237.1" x2="216.34" y2="237.41"/><line class="cls-1" x1="216.34" y1="240.47" x2="214.22" y2="239.24"/><line class="cls-1" x1="214.22" y1="239.24" x2="212.63" y2="240.16"/><line class="cls-1" x1="214.22" y1="239.24" x2="214.22" y2="238.63"/><line class="cls-1" x1="214.75" y1="238.33" x2="214.75" y2="235.26"/><line class="cls-1" x1="214.22" y1="234.96" x2="213.16" y2="235.57"/><line class="cls-1" x1="176.19" y1="216.06" x2="176.19" y2="213"/><line class="cls-1" x1="175.66" y1="212.69" x2="174.59" y2="213.3"/><line class="cls-1" x1="175.12" y1="212.38" x2="174.06" y2="213"/><line class="cls-1" x1="178.31" y1="214.83" x2="177.78" y2="215.14"/><line class="cls-1" x1="177.78" y1="218.2" x2="175.66" y2="216.98"/><line class="cls-1" x1="175.66" y1="216.98" x2="174.06" y2="217.9"/><line class="cls-1" x1="175.66" y1="216.98" x2="175.66" y2="216.37"/><line class="cls-1" x1="216.88" y1="186.03" x2="216.34" y2="186.34"/><line class="cls-1" x1="216.34" y1="189.4" x2="214.22" y2="188.18"/><line class="cls-1" x1="214.22" y1="188.18" x2="212.63" y2="189.1"/><line class="cls-1" x1="214.22" y1="188.18" x2="214.22" y2="187.56"/><line class="cls-1" x1="214.75" y1="187.26" x2="214.75" y2="184.19"/><line class="cls-1" x1="214.22" y1="183.89" x2="213.16" y2="184.5"/><line class="cls-1" x1="213.69" y1="183.58" x2="212.63" y2="184.19"/><line class="cls-1" x1="177.78" y1="164.07" x2="178.31" y2="163.77"/><line class="cls-1" x1="177.78" y1="167.14" x2="175.66" y2="165.91"/><line class="cls-1" x1="175.66" y1="165.91" x2="174.06" y2="166.83"/><line class="cls-1" x1="175.66" y1="165.91" x2="175.66" y2="165.3"/><line class="cls-1" x1="176.19" y1="164.99" x2="176.19" y2="161.93"/><line class="cls-1" x1="175.66" y1="161.62" x2="174.59" y2="162.24"/><line class="cls-1" x1="175.12" y1="161.32" x2="174.06" y2="161.93"/><line class="cls-1" x1="282.33" y1="226.28" x2="282.33" y2="223.21"/><line class="cls-1" x1="281.8" y1="222.9" x2="280.74" y2="223.52"/><line class="cls-1" x1="281.27" y1="222.6" x2="280.21" y2="223.21"/><line class="cls-1" x1="284.45" y1="225.05" x2="283.92" y2="225.36"/><line class="cls-1" x1="283.92" y1="228.42" x2="281.8" y2="227.19"/><line class="cls-1" x1="281.8" y1="227.19" x2="280.21" y2="228.11"/><line class="cls-1" x1="281.8" y1="227.19" x2="281.8" y2="226.58"/><line class="cls-1" x1="282.33" y1="277.34" x2="282.33" y2="274.28"/><line class="cls-1" x1="281.8" y1="273.97" x2="280.74" y2="274.59"/><line class="cls-1" x1="281.27" y1="273.67" x2="280.21" y2="274.28"/><line class="cls-1" x1="284.45" y1="276.12" x2="283.92" y2="276.42"/><line class="cls-1" x1="283.92" y1="279.49" x2="281.8" y2="278.26"/><line class="cls-1" x1="281.8" y1="278.26" x2="280.21" y2="279.18"/><line class="cls-1" x1="281.8" y1="278.26" x2="281.8" y2="277.65"/><line class="cls-1" x1="267.82" y1="217.9" x2="267.82" y2="214.83"/><line class="cls-1" x1="267.29" y1="214.53" x2="266.23" y2="215.14"/><line class="cls-1" x1="266.76" y1="214.22" x2="265.7" y2="214.83"/><line class="cls-1" x1="269.95" y1="216.67" x2="269.42" y2="216.98"/><line class="cls-1" x1="269.42" y1="220.05" x2="267.29" y2="218.82"/><line class="cls-1" x1="267.29" y1="218.82" x2="265.7" y2="219.74"/><line class="cls-1" x1="267.29" y1="218.82" x2="267.29" y2="218.2"/><line class="cls-1" x1="229.26" y1="246.7" x2="229.26" y2="243.64"/><line class="cls-1" x1="228.73" y1="243.33" x2="227.67" y2="243.95"/><line class="cls-1" x1="228.2" y1="243.03" x2="227.13" y2="243.64"/><line class="cls-1" x1="231.38" y1="245.48" x2="230.85" y2="245.78"/><line class="cls-1" x1="230.85" y1="248.85" x2="228.73" y2="247.62"/><line class="cls-1" x1="228.73" y1="247.62" x2="227.13" y2="248.54"/><line class="cls-1" x1="228.73" y1="247.62" x2="228.73" y2="247.01"/><line class="cls-1" x1="267.82" y1="268.97" x2="267.82" y2="265.9"/><line class="cls-1" x1="267.29" y1="265.6" x2="266.23" y2="266.21"/><line class="cls-1" x1="266.76" y1="265.29" x2="265.7" y2="265.9"/><line class="cls-1" x1="269.95" y1="267.74" x2="269.42" y2="268.05"/><line class="cls-1" x1="269.42" y1="271.11" x2="267.29" y2="269.89"/><line class="cls-1" x1="267.29" y1="269.89" x2="265.7" y2="270.81"/><line class="cls-1" x1="267.29" y1="269.89" x2="267.29" y2="269.27"/><line class="cls-1" x1="229.26" y1="195.64" x2="229.26" y2="192.57"/><line class="cls-1" x1="228.73" y1="192.26" x2="227.67" y2="192.88"/><line class="cls-1" x1="228.2" y1="191.96" x2="227.13" y2="192.57"/><line class="cls-1" x1="231.38" y1="194.41" x2="230.85" y2="194.72"/><line class="cls-1" x1="230.85" y1="197.78" x2="228.73" y2="196.55"/><line class="cls-1" x1="228.73" y1="196.55" x2="227.13" y2="197.47"/><line class="cls-1" x1="228.73" y1="196.55" x2="228.73" y2="195.94"/><line class="cls-1" x1="171.06" y1="211.87" x2="171.06" y2="212.49"/><line class="cls-1" x1="224.13" y1="242.51" x2="224.13" y2="243.13"/><line class="cls-1" x1="277.2" y1="273.16" x2="277.2" y2="273.77"/><line class="cls-1" x1="276.67" y1="218.92" x2="276.67" y2="240.57"/><line class="cls-1" x1="276.67" y1="240.57" x2="276.67" y2="241.19"/><line class="cls-1" x1="262.34" y1="210.65" x2="262.34" y2="220.86"/><line class="cls-1" x1="262.34" y1="220.86" x2="262.34" y2="221.48"/><line class="cls-1" x1="223.6" y1="188.28" x2="223.6" y2="209.93"/><line class="cls-1" x1="223.6" y1="209.93" x2="223.6" y2="210.55"/><line class="cls-1" x1="209.27" y1="180.01" x2="209.27" y2="190.22"/><line class="cls-1" x1="209.27" y1="190.22" x2="209.27" y2="190.83"/><line class="cls-1" x1="170.53" y1="157.64" x2="170.53" y2="179.29"/><line class="cls-1" x1="170.53" y1="179.29" x2="170.53" y2="179.91"/><line class="cls-1" x1="142.4" y1="154.68" x2="142.4" y2="163.05"/><line class="cls-1" x1="142.4" y1="163.05" x2="142.4" y2="163.67"/><line class="cls-1" x1="142.93" y1="195.64" x2="142.93" y2="196.25"/><line class="cls-1" x1="155.58" y1="186.19" x2="155.58" y2="186.8"/><line class="cls-1" x1="229.26" y1="192.57" x2="231.38" y2="193.79"/><line class="cls-1" x1="231.38" y1="193.79" x2="231.38" y2="194.41"/><line class="cls-1" x1="231.38" y1="194.41" x2="231.38" y2="195.02"/><line class="cls-1" x1="230.85" y1="194.72" x2="230.85" y2="197.78"/><line class="cls-1" x1="230.85" y1="197.78" x2="230.85" y2="198.39"/><line class="cls-1" x1="267.82" y1="265.9" x2="269.95" y2="267.13"/><line class="cls-1" x1="269.95" y1="267.13" x2="269.95" y2="267.74"/><line class="cls-1" x1="269.95" y1="267.74" x2="269.95" y2="268.36"/><line class="cls-1" x1="269.42" y1="268.05" x2="269.42" y2="271.11"/><line class="cls-1" x1="269.42" y1="271.11" x2="269.42" y2="271.73"/><line class="cls-1" x1="229.26" y1="243.64" x2="231.38" y2="244.86"/><line class="cls-1" x1="231.38" y1="244.86" x2="231.38" y2="245.48"/><line class="cls-1" x1="231.38" y1="245.48" x2="231.38" y2="246.09"/><line class="cls-1" x1="230.85" y1="245.78" x2="230.85" y2="248.85"/><line class="cls-1" x1="230.85" y1="248.85" x2="230.85" y2="249.46"/><line class="cls-1" x1="267.82" y1="214.83" x2="269.95" y2="216.06"/><line class="cls-1" x1="269.95" y1="216.06" x2="269.95" y2="216.67"/><line class="cls-1" x1="269.95" y1="216.67" x2="269.95" y2="217.29"/><line class="cls-1" x1="269.42" y1="216.98" x2="269.42" y2="220.05"/><line class="cls-1" x1="269.42" y1="220.05" x2="269.42" y2="220.66"/><line class="cls-1" x1="282.33" y1="274.28" x2="284.45" y2="275.5"/><line class="cls-1" x1="284.45" y1="275.5" x2="284.45" y2="276.12"/><line class="cls-1" x1="284.45" y1="276.12" x2="284.45" y2="276.73"/><line class="cls-1" x1="283.92" y1="276.42" x2="283.92" y2="279.49"/><line class="cls-1" x1="283.92" y1="279.49" x2="283.92" y2="280.1"/><line class="cls-1" x1="282.33" y1="223.21" x2="284.45" y2="224.44"/><line class="cls-1" x1="284.45" y1="224.44" x2="284.45" y2="225.05"/><line class="cls-1" x1="284.45" y1="225.05" x2="284.45" y2="225.66"/><line class="cls-1" x1="283.92" y1="225.36" x2="283.92" y2="228.42"/><line class="cls-1" x1="283.92" y1="228.42" x2="283.92" y2="229.03"/><line class="cls-1" x1="176.19" y1="161.93" x2="178.31" y2="163.15"/><line class="cls-1" x1="178.31" y1="163.15" x2="178.31" y2="163.77"/><line class="cls-1" x1="178.31" y1="163.77" x2="178.31" y2="164.38"/><line class="cls-1" x1="177.78" y1="164.07" x2="177.78" y2="167.14"/><line class="cls-1" x1="177.78" y1="167.14" x2="177.78" y2="167.75"/><line class="cls-1" x1="216.34" y1="186.34" x2="216.34" y2="189.4"/><line class="cls-1" x1="216.34" y1="189.4" x2="216.34" y2="190.02"/><line class="cls-1" x1="214.75" y1="184.19" x2="216.88" y2="185.42"/><line class="cls-1" x1="216.88" y1="185.42" x2="216.88" y2="186.03"/><line class="cls-1" x1="216.88" y1="186.03" x2="216.88" y2="186.65"/><line class="cls-1" x1="176.19" y1="213" x2="178.31" y2="214.22"/><line class="cls-1" x1="178.31" y1="214.22" x2="178.31" y2="214.83"/><line class="cls-1" x1="178.31" y1="214.83" x2="178.31" y2="215.45"/><line class="cls-1" x1="177.78" y1="215.14" x2="177.78" y2="218.2"/><line class="cls-1" x1="177.78" y1="218.2" x2="177.78" y2="218.82"/><line class="cls-1" x1="216.88" y1="236.49" x2="216.88" y2="237.1"/><line class="cls-1" x1="216.88" y1="237.1" x2="216.88" y2="237.71"/><line class="cls-1" x1="216.34" y1="237.41" x2="216.34" y2="240.47"/><line class="cls-1" x1="216.34" y1="240.47" x2="216.34" y2="241.08"/><line class="cls-1" x1="214.75" y1="235.26" x2="216.88" y2="236.49"/><line class="cls-1" x1="214.75" y1="238.33" x2="214.22" y2="238.63"/><line class="cls-1" x1="214.22" y1="238.63" x2="213.16" y2="239.24"/><line class="cls-1" x1="174.59" y1="216.98" x2="175.66" y2="216.37"/><line class="cls-1" x1="175.66" y1="216.37" x2="176.19" y2="216.06"/><line class="cls-1" x1="214.75" y1="187.26" x2="214.22" y2="187.56"/><line class="cls-1" x1="214.22" y1="187.56" x2="213.16" y2="188.18"/><line class="cls-1" x1="176.19" y1="164.99" x2="175.66" y2="165.3"/><line class="cls-1" x1="175.66" y1="165.3" x2="174.59" y2="165.91"/><line class="cls-1" x1="280.74" y1="227.19" x2="281.8" y2="226.58"/><line class="cls-1" x1="281.8" y1="226.58" x2="282.33" y2="226.28"/><line class="cls-1" x1="280.74" y1="278.26" x2="281.8" y2="277.65"/><line class="cls-1" x1="281.8" y1="277.65" x2="282.33" y2="277.34"/><line class="cls-1" x1="267.82" y1="217.9" x2="267.29" y2="218.2"/><line class="cls-1" x1="267.29" y1="218.2" x2="266.23" y2="218.82"/><line class="cls-1" x1="227.67" y1="247.62" x2="228.73" y2="247.01"/><line class="cls-1" x1="228.73" y1="247.01" x2="229.26" y2="246.7"/><line class="cls-1" x1="267.82" y1="268.97" x2="267.29" y2="269.27"/><line class="cls-1" x1="267.29" y1="269.27" x2="266.23" y2="269.89"/><line class="cls-1" x1="227.67" y1="196.55" x2="228.73" y2="195.94"/><line class="cls-1" x1="228.73" y1="195.94" x2="229.26" y2="195.64"/><line class="cls-1" x1="168.4" y1="210.34" x2="168.93" y2="210.65"/><line class="cls-1" x1="221.47" y1="240.98" x2="222" y2="241.29"/><line class="cls-1" x1="272.95" y1="270.7" x2="274.01" y2="271.32"/><line class="cls-1" x1="274.01" y1="271.32" x2="274.54" y2="271.62"/><line class="cls-1" x1="274.54" y1="271.62" x2="275.08" y2="271.93"/><line class="cls-1" x1="152.92" y1="184.65" x2="153.45" y2="184.96"/><line class="cls-1" x1="228.73" y1="192.26" x2="229.26" y2="192.57"/><line class="cls-1" x1="267.29" y1="265.6" x2="267.82" y2="265.9"/><line class="cls-1" x1="228.73" y1="243.33" x2="229.26" y2="243.64"/><line class="cls-1" x1="267.29" y1="214.53" x2="267.82" y2="214.83"/><line class="cls-1" x1="281.8" y1="273.97" x2="282.33" y2="274.28"/><line class="cls-1" x1="281.8" y1="222.9" x2="282.33" y2="223.21"/><line class="cls-1" x1="175.66" y1="161.62" x2="176.19" y2="161.93"/><line class="cls-1" x1="214.22" y1="183.89" x2="214.75" y2="184.19"/><line class="cls-1" x1="175.66" y1="212.69" x2="176.19" y2="213"/><line class="cls-1" x1="214.22" y1="234.96" x2="214.75" y2="235.26"/><line class="cls-1" x1="166.81" y1="209.42" x2="167.87" y2="210.03"/><line class="cls-1" x1="167.87" y1="210.03" x2="168.4" y2="210.34"/><line class="cls-1" x1="219.88" y1="240.06" x2="220.94" y2="240.67"/><line class="cls-1" x1="220.94" y1="240.67" x2="221.47" y2="240.98"/><line class="cls-1" x1="151.33" y1="183.73" x2="152.39" y2="184.35"/><line class="cls-1" x1="152.39" y1="184.35" x2="152.92" y2="184.65"/><line class="cls-1" x1="227.13" y1="191.34" x2="228.2" y2="191.96"/><line class="cls-1" x1="228.2" y1="191.96" x2="228.73" y2="192.26"/><line class="cls-1" x1="265.7" y1="264.68" x2="266.76" y2="265.29"/><line class="cls-1" x1="266.76" y1="265.29" x2="267.29" y2="265.6"/><line class="cls-1" x1="227.13" y1="242.41" x2="228.2" y2="243.03"/><line class="cls-1" x1="228.2" y1="243.03" x2="228.73" y2="243.33"/><line class="cls-1" x1="265.7" y1="213.61" x2="266.76" y2="214.22"/><line class="cls-1" x1="266.76" y1="214.22" x2="267.29" y2="214.53"/><line class="cls-1" x1="280.21" y1="273.05" x2="281.27" y2="273.67"/><line class="cls-1" x1="281.27" y1="273.67" x2="281.8" y2="273.97"/><line class="cls-1" x1="280.21" y1="221.99" x2="281.27" y2="222.6"/><line class="cls-1" x1="281.27" y1="222.6" x2="281.8" y2="222.9"/><line class="cls-1" x1="174.06" y1="160.7" x2="175.12" y2="161.32"/><line class="cls-1" x1="175.12" y1="161.32" x2="175.66" y2="161.62"/><line class="cls-1" x1="212.63" y1="182.97" x2="213.69" y2="183.58"/><line class="cls-1" x1="213.69" y1="183.58" x2="214.22" y2="183.89"/><line class="cls-1" x1="174.06" y1="211.77" x2="175.12" y2="212.38"/><line class="cls-1" x1="175.12" y1="212.38" x2="175.66" y2="212.69"/><line class="cls-1" x1="212.63" y1="234.04" x2="213.69" y2="234.65"/><line class="cls-1" x1="213.69" y1="234.65" x2="214.22" y2="234.96"/><line class="cls-1" x1="166.81" y1="210.65" x2="167.34" y2="210.95"/><line class="cls-1" x1="166.81" y1="210.65" x2="166.81" y2="209.42"/><line class="cls-1" x1="171.06" y1="211.87" x2="168.93" y2="210.65"/><line class="cls-1" x1="171.06" y1="213.1" x2="171.06" y2="212.49"/><line class="cls-1" x1="171.06" y1="213.1" x2="170.53" y2="212.79"/><line class="cls-1" x1="220.41" y1="241.59" x2="219.88" y2="241.29"/><line class="cls-1" x1="219.88" y1="241.29" x2="219.88" y2="240.06"/><line class="cls-1" x1="224.13" y1="242.51" x2="222" y2="241.29"/><line class="cls-1" x1="224.13" y1="243.74" x2="224.13" y2="243.13"/><line class="cls-1" x1="224.13" y1="243.74" x2="223.6" y2="243.43"/><line class="cls-1" x1="273.48" y1="272.24" x2="272.95" y2="271.93"/><line class="cls-1" x1="272.95" y1="271.93" x2="272.95" y2="270.7"/><line class="cls-1" x1="277.2" y1="273.16" x2="275.08" y2="271.93"/><line class="cls-1" x1="277.2" y1="274.38" x2="277.2" y2="273.77"/><line class="cls-1" x1="277.2" y1="274.38" x2="276.67" y2="274.07"/><line class="cls-1" x1="301.61" y1="293.79" x2="301.61" y2="245.38"/><line class="cls-1" x1="301.61" y1="245.38" x2="287.28" y2="237.1"/><line class="cls-1" x1="287.28" y1="237.1" x2="287.28" y2="235.88"/><line class="cls-1" x1="287.28" y1="235.88" x2="287.81" y2="236.18"/><line class="cls-1" x1="276.67" y1="241.19" x2="277.2" y2="241.49"/><line class="cls-1" x1="277.2" y1="241.49" x2="277.2" y2="242.72"/><line class="cls-1" x1="277.2" y1="242.72" x2="272.95" y2="240.27"/><line class="cls-1" x1="272.95" y1="240.27" x2="272.95" y2="239.04"/><line class="cls-1" x1="272.95" y1="239.04" x2="273.48" y2="239.35"/><line class="cls-1" x1="262.34" y1="221.48" x2="262.87" y2="221.78"/><line class="cls-1" x1="262.87" y1="221.78" x2="262.87" y2="223.01"/><line class="cls-1" x1="262.87" y1="223.01" x2="234.21" y2="206.46"/><line class="cls-1" x1="234.21" y1="206.46" x2="234.21" y2="205.24"/><line class="cls-1" x1="234.21" y1="205.24" x2="234.74" y2="205.54"/><line class="cls-1" x1="223.6" y1="210.55" x2="224.13" y2="210.85"/><line class="cls-1" x1="224.13" y1="210.85" x2="224.13" y2="212.08"/><line class="cls-1" x1="224.13" y1="212.08" x2="219.88" y2="209.63"/><line class="cls-1" x1="219.88" y1="209.63" x2="219.88" y2="208.4"/><line class="cls-1" x1="219.88" y1="208.4" x2="220.41" y2="208.71"/><line class="cls-1" x1="209.27" y1="190.83" x2="209.8" y2="191.14"/><line class="cls-1" x1="209.8" y1="191.14" x2="209.8" y2="192.36"/><line class="cls-1" x1="209.8" y1="192.36" x2="181.14" y2="175.82"/><line class="cls-1" x1="181.14" y1="175.82" x2="181.14" y2="174.59"/><line class="cls-1" x1="181.14" y1="174.59" x2="181.67" y2="174.9"/><line class="cls-1" x1="170.53" y1="179.91" x2="171.06" y2="180.21"/><line class="cls-1" x1="171.06" y1="180.21" x2="171.06" y2="181.44"/><line class="cls-1" x1="171.06" y1="181.44" x2="166.81" y2="178.99"/><line class="cls-1" x1="166.81" y1="178.99" x2="166.81" y2="177.76"/><line class="cls-1" x1="166.81" y1="177.76" x2="167.34" y2="178.07"/><line class="cls-1" x1="142.4" y1="163.67" x2="142.93" y2="163.97"/><line class="cls-1" x1="142.93" y1="163.97" x2="142.93" y2="165.2"/><line class="cls-1" x1="142.93" y1="165.2" x2="140.81" y2="163.97"/><line class="cls-1" x1="140.81" y1="163.97" x2="140.81" y2="194.41"/><line class="cls-1" x1="140.81" y1="194.41" x2="142.93" y2="195.64"/><line class="cls-1" x1="142.93" y1="196.86" x2="142.93" y2="196.25"/><line class="cls-1" x1="142.93" y1="196.86" x2="142.4" y2="196.55"/><line class="cls-1" x1="151.86" y1="185.27" x2="151.33" y2="184.96"/><line class="cls-1" x1="151.33" y1="184.96" x2="151.33" y2="183.73"/><line class="cls-1" x1="155.58" y1="186.19" x2="153.45" y2="184.96"/><line class="cls-1" x1="155.58" y1="187.41" x2="155.58" y2="186.8"/><line class="cls-1" x1="155.58" y1="187.41" x2="155.05" y2="187.11"/><line class="cls-1" x1="155.05" y1="187.11" x2="155.05" y2="207.94"/><line class="cls-1" x1="167.34" y1="210.95" x2="168.4" y2="210.34"/><line class="cls-1" x1="167.03" y1="215.73" x2="168.62" y2="214.81"/><line class="cls-1" x1="166.81" y1="210.65" x2="167.87" y2="210.03"/><line class="cls-1" x1="170.53" y1="212.79" x2="171.06" y2="212.49"/><line class="cls-1" x1="221.69" y1="245.45" x2="220.1" y2="246.37"/><line class="cls-1" x1="221.47" y1="240.98" x2="220.41" y2="241.59"/><line class="cls-1" x1="219.88" y1="241.29" x2="220.94" y2="240.67"/><line class="cls-1" x1="223.6" y1="243.43" x2="224.13" y2="243.13"/><line class="cls-1" x1="274.76" y1="276.09" x2="273.17" y2="277.01"/><line class="cls-1" x1="274.54" y1="271.62" x2="273.48" y2="272.24"/><line class="cls-1" x1="272.95" y1="271.93" x2="274.01" y2="271.32"/><line class="cls-1" x1="276.67" y1="274.07" x2="277.2" y2="273.77"/><line class="cls-1" x1="288.88" y1="236.18" x2="287.28" y2="237.1"/><line class="cls-1" x1="278.57" y1="217.31" x2="276.98" y2="218.23"/><line class="cls-1" x1="288.88" y1="235.57" x2="287.81" y2="236.18"/><line class="cls-1" x1="289.41" y1="235.26" x2="288.88" y2="235.57"/><line class="cls-1" x1="274.54" y1="239.35" x2="272.95" y2="240.27"/><line class="cls-1" x1="264.24" y1="209.04" x2="262.65" y2="209.96"/><line class="cls-1" x1="274.54" y1="238.73" x2="273.48" y2="239.35"/><line class="cls-1" x1="274.54" y1="238.73" x2="275.08" y2="238.43"/><line class="cls-1" x1="235.8" y1="205.54" x2="234.21" y2="206.46"/><line class="cls-1" x1="225.5" y1="186.67" x2="223.91" y2="187.59"/><line class="cls-1" x1="235.8" y1="204.93" x2="234.74" y2="205.54"/><line class="cls-1" x1="235.8" y1="204.93" x2="236.34" y2="204.62"/><line class="cls-1" x1="221.47" y1="208.71" x2="219.88" y2="209.63"/><line class="cls-1" x1="211.17" y1="178.4" x2="209.58" y2="179.32"/><line class="cls-1" x1="221.47" y1="208.09" x2="220.41" y2="208.71"/><line class="cls-1" x1="221.47" y1="208.09" x2="222" y2="207.79"/><line class="cls-1" x1="182.73" y1="174.9" x2="181.14" y2="175.82"/><line class="cls-1" x1="172.43" y1="156.03" x2="170.84" y2="156.95"/><line class="cls-1" x1="182.73" y1="174.29" x2="181.67" y2="174.9"/><line class="cls-1" x1="182.73" y1="174.29" x2="183.26" y2="173.98"/><line class="cls-1" x1="168.4" y1="178.07" x2="166.81" y2="178.99"/><line class="cls-1" x1="144.3" y1="153.07" x2="142.71" y2="153.99"/><line class="cls-1" x1="168.4" y1="177.45" x2="167.34" y2="178.07"/><line class="cls-1" x1="168.4" y1="177.45" x2="168.93" y2="177.15"/><line class="cls-1" x1="142.4" y1="163.05" x2="140.81" y2="163.97"/><line class="cls-1" x1="142.4" y1="196.55" x2="142.93" y2="196.25"/><line class="cls-1" x1="153.14" y1="205.87" x2="151.55" y2="206.79"/><line class="cls-1" x1="151.86" y1="185.27" x2="152.92" y2="184.65"/><line class="cls-1" x1="151.33" y1="184.96" x2="152.39" y2="184.35"/><line class="cls-1" x1="155.05" y1="187.11" x2="155.58" y2="186.8"/><polygon class="cls-2" points="140.88 164.47 142.47 163.55 142.47 155.17 142.55 154.77 142.78 154.49 144.37 153.57 144.73 153.5 145.13 153.64 167.95 166.82 168.34 167.13 168.7 167.61 168.93 168.16 169.01 168.66 169.01 177.64 168.48 177.95 168.48 178.56 170.6 179.79 170.6 158.13 170.67 157.73 170.91 157.45 172.5 156.53 172.86 156.46 173.25 156.6 182.28 161.81 182.66 162.12 183.03 162.6 183.26 163.16 183.34 163.65 183.34 174.48 182.81 174.78 182.81 175.4 209.34 190.72 209.34 180.5 209.41 180.09 209.65 179.82 211.24 178.9 211.6 178.83 211.99 178.97 221.02 184.18 221.41 184.49 221.77 184.97 222 185.52 222.08 186.02 222.08 208.28 221.55 208.59 221.55 209.2 223.67 210.43 223.67 188.78 223.74 188.37 223.98 188.09 225.57 187.17 225.93 187.1 226.32 187.24 235.34 192.45 235.74 192.76 236.09 193.25 236.33 193.8 236.41 194.29 236.41 205.12 235.88 205.42 235.88 206.04 262.41 221.35 262.41 211.14 262.49 210.73 262.72 210.46 264.32 209.54 264.68 209.47 265.07 209.61 274.09 214.82 274.48 215.13 274.84 215.61 275.07 216.16 275.15 216.66 275.15 238.92 274.62 239.23 274.62 239.84 276.74 241.07 276.74 219.41 276.81 219.01 277.05 218.73 278.64 217.81 279 217.75 279.39 217.88 288.42 223.09 288.81 223.41 289.17 223.89 289.4 224.44 289.48 224.93 289.48 235.76 288.95 236.06 288.95 236.68 303.28 244.95 303.28 293.36 301.69 294.28 277.8 280.49 277.41 280.18 277.05 279.7 276.81 279.15 276.74 278.65 276.74 274.57 277.27 274.26 277.27 273.65 275.15 272.43 275.15 275.9 275.07 276.31 274.84 276.58 273.25 277.5 272.89 277.57 272.49 277.43 224.73 249.85 224.34 249.54 223.98 249.06 223.74 248.51 223.67 248.01 223.67 243.93 224.2 243.62 224.2 243.01 222.08 241.78 222.08 245.25 222 245.66 221.77 245.94 220.17 246.86 219.81 246.93 219.42 246.79 171.66 219.21 171.27 218.9 170.91 218.42 170.67 217.87 170.6 217.37 170.6 213.29 171.13 212.98 171.13 212.37 169.01 211.14 169.01 214.62 168.93 215.03 168.7 215.3 167.1 216.22 166.74 216.29 166.35 216.15 156.18 210.27 155.79 209.96 155.43 209.48 155.19 208.93 155.12 208.44 155.12 187.6 155.65 187.29 155.65 186.68 153.53 185.46 153.53 205.68 153.45 206.09 153.22 206.37 151.62 207.29 151.26 207.35 150.87 207.21 143.53 202.97 143.14 202.66 142.78 202.18 142.55 201.63 142.47 201.13 142.47 197.05 143 196.74 143 196.13 140.88 194.9 140.88 164.47"/></svg>