<svg xmlns="http://www.w3.org/2000/svg" xmlns:xlink="http://www.w3.org/1999/xlink" width="500" height="500" viewBox = " 0 0 500 500" preserveAspectRatio="xMinYMin meet">
<rect id="background" x="0" y="0" width="500" height="500" style="fill:none; stroke:none;" />
<polyline id="57903d7f-f91f-4187-9208-b5939c7d1df6" points="295.6085 253.3477 335.4893 276.3729 335.4893 286.6185 "  class="cls-30449002" >  </polyline>
<polyline id="ce9f27f3-b115-418d-88ea-6feaf4aa58d5" points="331.6709 315.3198 184.4511 230.3224 164.5107 218.8098 164.5107 215.8704 163.2382 216.6052 161.9654 217.3402 156.1671 213.9926 156.1669 188.4756 157.4397 187.7407 158.7124 187.0059 159.9852 186.271 164.5107 188.8838 164.5107 182.0675 165.7835 181.3326 167.0563 180.5978 168.3291 179.8629 188.2695 191.3755 208.2099 202.8881 208.2099 205.8275 209.4827 205.0927 210.7555 204.3578 250.6365 227.3831 250.6365 230.3225 251.9093 229.5876 253.182 228.8528 293.0629 251.878 293.0629 254.8174 294.3357 254.0825 295.6085 253.3477 335.4893 276.3729 335.4893 286.6185 335.065 286.8635 335.065 287.3534 343.8331 292.4157 343.8331 317.9325 342.5603 318.6674 341.2876 319.4022 340.0148 320.1371 334.2165 316.7894 334.2165 313.8501 331.6709 315.3198 "  class="cls-30449002" >  </polyline>
<polyline id="5d2f90a3-8944-4c42-af86-ec61fb38556d" points="163.2382 216.6051 163.2382 216.6054 "  class="cls-30449002" >  </polyline>
<polyline id="b4f86ebe-13df-41b8-ae6d-559bd09c4a67" points="188.2695 191.3755 208.2099 202.8881 "  class="cls-30449002" >  </polyline>
<polyline id="45568914-0983-44e1-9799-c60d09f0ad0e" points="184.4512 193.5801 185.724 192.8453 "  class="cls-1008689814" >  </polyline>
<polyline id="6a1d535d-7e72-4c75-89e3-01f5de8bd9bf" points="184.4512 230.3224 164.5108 218.8098 "  class="cls-1008689814" >  </polyline>
<polyline id="7bcedcee-3cb3-4c63-b0d0-da4cf1cef3fb" points="164.5108 209.7862 164.9351 209.5412 "  class="cls-1008689814" >  </polyline>
<polyline id="9fe23dff-0ade-4b2f-82fb-0e81840d31aa" points="164.5108 209.7862 164.9351 210.0311 "  class="cls-1008689814" >  </polyline>
<polyline id="5821caa7-d3e5-42ba-a09c-2e1ed42a5ea7" points="161.5409 207.0917 161.5409 208.0715 "  class="cls-1008689814" >  </polyline>
<polyline id="929952f6-e649-44a3-be1b-dacd0c6ff4e1" points="161.5409 208.0715 162.3897 207.5815 "  class="cls-1008689814" >  </polyline>
<polyline id="4cc15597-2cfc-465a-a11f-d851bcfd7ca3" points="161.5409 208.0715 161.9652 208.3165 "  class="cls-1008689814" >  </polyline>
<polyline id="950274ba-2e50-49c2-9931-7ca5cfd4bef5" points="161.9652 208.3165 162.8143 207.8262 "  class="cls-1008689814" >  </polyline>
<polyline id="68f55e0f-f854-4a7c-b3c7-41b68a494d6c" points="161.9652 217.3401 163.238 216.6053 "  class="cls-1008689814" >  </polyline>
<polyline id="7e570f21-7207-4541-ba13-4a33652bf3d0" points="161.9652 217.3401 156.167 213.9925 "  class="cls-1008689814" >  </polyline>
<polyline id="95da5308-87c0-4e96-8a88-9b1c035a2765" points="156.167 213.9925 156.1669 188.4756 "  class="cls-1008689814" >  </polyline>
<polyline id="993d37ac-cdee-4cff-9870-bc398ac917c2" points="156.1669 188.4756 157.4397 187.7408 "  class="cls-1008689814" >  </polyline>
<polyline id="4d95c576-c66f-4420-af69-7133043fa258" points="164.9351 193.5379 164.9351 192.5581 "  class="cls-1008689814" >  </polyline>
<polyline id="73788347-3f02-4bdd-8821-e5005167e81b" points="164.9351 192.5581 164.5108 192.3131 "  class="cls-1008689814" >  </polyline>
<polyline id="bfcad5f1-b9d9-4f9a-b3e2-0dfe8b41f875" points="164.5108 182.0675 165.7836 181.3327 "  class="cls-1008689814" >  </polyline>
<polyline id="1944c7d8-6221-4eba-9161-3888c91a48f0" points="158.7125 187.0059 159.9853 186.2711 "  class="cls-1008689814" >  </polyline>
<polyline id="9886088c-4436-4444-b998-6b9db730bcc9" points="167.0564 180.5978 168.3292 179.863 "  class="cls-1008689814" >  </polyline>
<polyline id="6ddca5e7-e521-4151-8490-ec77353bc532" points="168.3292 179.863 188.2696 191.3756 "  class="cls-1008689814" >  </polyline>
<polyline id="d5fa634b-e46a-4b79-8322-22d10d62e9a4" points="164.5108 208.8064 164.5108 209.7862 "  class="cls-1008689814" >  </polyline>
<polyline id="18a875cb-7f0e-40a7-b090-06bf1ce06f64" points="186.9968 192.1104 188.2696 191.3756 "  class="cls-1008689814" >  </polyline>
<polyline id="c2edf37f-4410-4e8a-af9c-bc072294ef2c" points="206.9372 203.623 208.21 202.8882 "  class="cls-1008689814" >  </polyline>
<polyline id="8c132768-d2c7-4977-ac07-3225fef0556b" points="188.2696 191.3756 208.21 202.8882 "  class="cls-1008689814" >  </polyline>
<polyline id="386ec4ea-5b05-42fe-aea3-57de8ef9c3cf" points="208.21 202.8882 208.21 205.8275 "  class="cls-1008689814" >  </polyline>
<polyline id="f480816e-08ca-4d82-9524-3b08eefcb627" points="206.5129 214.6035 206.9372 214.3585 "  class="cls-1008689814" >  </polyline>
<polyline id="f3fce9ee-5d85-4a89-94fd-7bdeb4a2af07" points="209.4828 205.0927 210.7556 204.3579 "  class="cls-1008689814" >  </polyline>
<polyline id="8cfc30d4-6359-4f62-b979-6212a6a4ee20" points="249.3636 228.1179 250.6364 227.3831 "  class="cls-1008689814" >  </polyline>
<polyline id="d30a7441-36a9-4e20-9ad2-88c4e2dddcf5" points="210.7556 204.3579 216.5538 207.7055 250.6364 227.3831 "  class="cls-1008689814" >  </polyline>
<polyline id="46a800ce-f8e1-4957-9ef7-ca05d83f8248" points="250.6364 227.3831 250.6364 230.3224 "  class="cls-1008689814" >  </polyline>
<polyline id="133df6e0-457e-4dbb-98d2-7034c0459b57" points="248.9393 239.0984 249.364 238.8532 "  class="cls-1008689814" >  </polyline>
<polyline id="8b6056c1-7e45-4fc9-a322-22711f4a3488" points="251.9092 229.5876 253.182 228.8528 "  class="cls-1008689814" >  </polyline>
<polyline id="f15e1556-738a-447f-b6fd-2bb57b4af935" points="291.79 252.6128 293.0628 251.878 "  class="cls-1008689814" >  </polyline>
<polyline id="b584fd8a-e7b1-4233-9a1f-6d3d55d4cb5b" points="253.182 228.8528 293.0628 251.878 "  class="cls-1008689814" >  </polyline>
<polyline id="9cfa085a-7c04-40a7-9bfb-1ad3309116ed" points="293.0628 251.878 293.0628 254.8173 "  class="cls-1008689814" >  </polyline>
<polyline id="14d0353f-b3d5-4e92-9fd1-14ec7e90cf08" points="291.3657 263.5933 291.79 263.3483 "  class="cls-1008689814" >  </polyline>
<polyline id="270428c7-e609-4d43-9f6d-b9ffa827188a" points="294.3356 254.0825 295.6084 253.3476 "  class="cls-1008689814" >  </polyline>
<polyline id="b936800b-d532-4d12-ae27-c758b646b569" points="334.2164 277.1077 335.4892 276.3729 "  class="cls-1008689814" >  </polyline>
<polyline id="49a10003-4cc3-4e92-8675-9697aef61b09" points="295.6084 253.3476 335.4892 276.3729 "  class="cls-1008689814" >  </polyline>
<polyline id="d3dac5ae-5576-44b2-8fe2-afb950af5622" points="335.4892 276.3729 335.4892 286.6185 "  class="cls-1008689814" >  </polyline>
<polyline id="6bd07942-45eb-4b9a-8e3c-f81895ae3ba7" points="333.7922 288.0882 335.0649 287.3533 "  class="cls-1008689814" >  </polyline>
<polyline id="7e0f11a0-6fc6-4064-8d97-478f66976950" points="342.5603 293.1505 343.8331 292.4156 "  class="cls-1008689814" >  </polyline>
<polyline id="68e7258a-41b0-4edd-84e0-debba4ee6c94" points="335.0649 287.3533 343.8331 292.4156 "  class="cls-1008689814" >  </polyline>
<polyline id="69417181-fa65-488f-810e-d7b65e8378a7" points="342.5603 318.6673 343.8331 317.9325 "  class="cls-1008689814" >  </polyline>
<polyline id="ac97f776-9d8f-482c-a28a-9a3a40780303" points="343.8331 292.4156 343.8331 317.9325 "  class="cls-1008689814" >  </polyline>
<polyline id="f4dcc561-d854-4568-a9bf-fa04fad2eced" points="335.0649 286.8634 335.0649 287.3533 "  class="cls-1008689814" >  </polyline>
<polyline id="49cf2344-911a-4d0c-ad1a-26470083333b" points="159.9853 186.2711 164.5109 188.8839 "  class="cls-1008689814" >  </polyline>
<polyline id="594b3b38-02b3-452b-8332-2730b608c443" points="293.0628 254.8173 294.3356 254.0825 "  class="cls-1008689814" >  </polyline>
<polyline id="ae8d7239-f547-4a9d-baa1-2a0f7e24547f" points="290.093 264.3281 291.3657 263.5933 "  class="cls-1008689814" >  </polyline>
<polyline id="50ec3325-8b87-4fd4-8b5e-234c173b7da6" points="290.5172 253.3476 291.79 252.6128 "  class="cls-1008689814" >  </polyline>
<polyline id="bcc3d401-41dd-49eb-b752-d453e0806dd1" points="250.6364 230.3224 251.9092 229.5876 "  class="cls-1008689814" >  </polyline>
<polyline id="33515ed4-6ae9-47f1-ac24-1089cda96aa3" points="247.6665 239.8332 248.9393 239.0984 "  class="cls-1008689814" >  </polyline>
<polyline id="18ecfad2-86a9-4f48-9e81-42af4778beca" points="247.6665 239.8332 247.6665 239.3433 "  class="cls-1008689814" >  </polyline>
<polyline id="3ee0bcf9-6545-4a6d-9ddc-9d3ed101ade2" points="248.0908 228.8528 249.3636 228.1179 "  class="cls-1008689814" >  </polyline>
<polyline id="27b85e19-dbbe-4dff-a849-6af37cc167c1" points="208.21 205.8275 209.4828 205.0927 "  class="cls-1008689814" >  </polyline>
<polyline id="5df0e629-0eb7-4704-bc46-2604e9b31cf3" points="205.2401 215.3383 206.5129 214.6035 "  class="cls-1008689814" >  </polyline>
<polyline id="78063cdd-4628-46d6-9c6f-ab17ea186282" points="205.2401 215.3383 205.2401 214.8482 "  class="cls-1008689814" >  </polyline>
<polyline id="f2a74bce-f682-4ce3-b9c2-c33c0bb7c68b" points="206.5129 214.6035 206.5129 214.1136 "  class="cls-1008689814" >  </polyline>
<polyline id="d1b7c46d-09c9-4c6d-8058-808bd8a7a948" points="205.6644 204.3579 206.9372 203.623 "  class="cls-1008689814" >  </polyline>
<polyline id="076539ec-ef1f-42ff-89c4-0485854b76c7" points="165.7836 181.3327 167.0564 180.5978 "  class="cls-1008689814" >  </polyline>
<polyline id="3808c840-5840-4a81-a4a4-b46aab221cc8" points="157.4397 187.7408 158.7125 187.0059 "  class="cls-1008689814" >  </polyline>
<polyline id="d8c5351c-13b5-4a82-83cb-d57faec81dd0" points="163.238 216.6053 164.5108 215.8704 "  class="cls-1008689814" >  </polyline>
<polyline id="41fa1b03-a25a-4a17-a167-896b08acb2d5" points="299.1086 278.8835 299.1086 280.3532 "  class="cls-1008689814" >  </polyline>
<polyline id="d9ce2df8-7bcf-4575-a666-eeaf8c9a54b8" points="319.049 290.3961 319.049 291.8658 "  class="cls-1008689814" >  </polyline>
<polyline id="0d0f8af7-50b8-4575-b113-594d7284a9ab" points="319.049 298.5611 319.049 300.0308 "  class="cls-1008689814" >  </polyline>
<polyline id="ca56629d-3226-4389-8ddf-343e9ca242f1" points="304.4119 291.5801 304.4119 293.0498 "  class="cls-1008689814" >  </polyline>
<polyline id="7d5fef1b-a235-4519-aea8-a019adc9c2a9" points="299.1086 288.5182 299.1086 289.9879 "  class="cls-1008689814" >  </polyline>
<polyline id="41fe1059-1b0d-42e8-9bd0-3329968631b0" points="304.4119 293.0498 299.1086 289.9879 "  class="cls-1008689814" >  </polyline>
<polyline id="b6c8371c-5682-4c97-a774-90a9bd40c2d9" points="313.0032 266.3299 314.276 265.5951 "  class="cls-1008689814" >  </polyline>
<polyline id="95f3ac60-c131-43de-a75a-4b3569eff333" points="332.9436 314.5849 334.2164 313.85 "  class="cls-1008689814" >  </polyline>
<polyline id="ab893ebf-06c2-4341-acbf-c9b9f7f6b87a" points="341.2875 319.4022 342.5602 318.6673 "  class="cls-1008689814" >  </polyline>
<polyline id="f4dea23a-819e-41ca-b238-52e3d8a3225d" points="341.2875 293.8853 342.5603 293.1505 "  class="cls-1008689814" >  </polyline>
<polyline id="0fac3cbd-c075-46a3-9bea-3c21ff9042a2" points="341.2875 293.8853 332.5194 288.823 "  class="cls-1008689814" >  </polyline>
<polyline id="37adb533-afc4-4919-9287-3e9f7c958fdf" points="332.5194 288.823 333.7922 288.0882 "  class="cls-1008689814" >  </polyline>
<polyline id="3f96f4ed-3947-4864-a410-c4534097f67a" points="342.5603 293.1505 333.7922 288.0882 "  class="cls-1008689814" >  </polyline>
<polyline id="6600b61d-eeb2-452e-b040-68fdc07c2ca5" points="332.5194 288.823 332.5194 288.3331 "  class="cls-1008689814" >  </polyline>
<polyline id="4ac37223-2461-4ca5-9769-cdad20890d65" points="333.7922 288.0882 333.7922 287.5983 "  class="cls-1008689814" >  </polyline>
<polyline id="993b2b7b-4cb9-41fa-a7a9-80532e98a298" points="332.9436 277.8425 334.2164 277.1077 "  class="cls-1008689814" >  </polyline>
<polyline id="dc7792f5-7aa1-4436-9d27-4679fa5fa4c7" points="248.9393 238.6085 248.9393 239.0984 "  class="cls-1008689814" >  </polyline>
<polyline id="b058e80b-3984-4646-9aed-0068124abd49" points="291.3657 263.1033 291.3657 263.5933 "  class="cls-1008689814" >  </polyline>
<polyline id="c412ab2e-b117-4dbe-9a73-aea236ad3176" points="291.3657 263.5933 291.7906 263.8386 "  class="cls-1008689814" >  </polyline>
<polyline id="9a6fbca4-6da2-43d3-84f1-91aa7d923f3d" points="197.0731 229.608 197.0731 231.0777 "  class="cls-1008689814" >  </polyline>
<polyline id="6fbfbf3f-7c89-47f1-8da0-d5c3ded3f859" points="191.7698 226.5461 191.7698 228.0158 "  class="cls-1008689814" >  </polyline>
<polyline id="57eea141-75cd-4cbb-8a3f-fd611b530f1c" points="197.0731 231.0777 191.7698 228.0158 "  class="cls-1008689814" >  </polyline>
<polyline id="22ea1153-58df-49d3-b17d-921b5913e20e" points="191.7698 225.0764 191.7698 226.5461 "  class="cls-1008689814" >  </polyline>
<polyline id="df68aa47-ace8-4055-afa4-b1463b02c81f" points="197.0731 219.9733 197.0731 221.443 "  class="cls-1008689814" >  </polyline>
<polyline id="6b9f0050-58f7-48af-9f51-69537b2b6d95" points="191.7698 216.9115 191.7698 218.3812 "  class="cls-1008689814" >  </polyline>
<polyline id="4b1702ba-0f01-4a11-a82c-aa21775c7bd2" points="197.0731 221.443 197.0731 222.9127 "  class="cls-1008689814" >  </polyline>
<polyline id="5f992b09-d4c1-4efa-89c7-c40b42510213" points="191.7698 218.3812 191.7698 219.8508 "  class="cls-1008689814" >  </polyline>
<polyline id="4be42754-367b-48a5-9b16-09451a16aebf" points="197.0731 222.9127 191.7698 219.8508 "  class="cls-1008689814" >  </polyline>
<polyline id="767680e7-a99c-430a-ab20-942a3e7c5694" points="304.4119 283.4151 304.4119 284.8848 "  class="cls-1008689814" >  </polyline>
<polyline id="7a74481e-4a95-4398-96b4-4d4b8937b591" points="299.1086 280.3532 299.1086 281.8229 "  class="cls-1008689814" >  </polyline>
<polyline id="6a81a040-7ab7-4187-9209-c7be41844dea" points="304.4119 284.8848 299.1086 281.8229 "  class="cls-1008689814" >  </polyline>
<polyline id="f5dff0a6-88b9-49bf-90b6-054714ecfefb" points="324.3523 294.9277 324.3523 296.3974 "  class="cls-1008689814" >  </polyline>
<polyline id="1f2d36e4-9950-4a00-a8b4-3540fa3949b4" points="319.049 291.8658 319.049 293.3355 "  class="cls-1008689814" >  </polyline>
<polyline id="f813bcbb-dd8e-49fb-a33e-9ce2bb9348b3" points="324.3523 296.3974 319.049 293.3355 "  class="cls-1008689814" >  </polyline>
<polyline id="4b219c53-63c2-4246-99e2-01c529e573c2" points="319.049 300.0308 319.049 301.5005 "  class="cls-1008689814" >  </polyline>
<polyline id="d634dbbc-d8b7-467d-8c43-d88bdb40ba70" points="324.3523 304.5624 319.049 301.5005 "  class="cls-1008689814" >  </polyline>
<polyline id="407be7a5-6721-4a2a-8c05-43d95b5a8e82" points="299.1086 287.0485 299.1086 288.5182 "  class="cls-1008689814" >  </polyline>
<polyline id="ca91465e-8212-4579-91f2-12665d29319d" points="177.1326 209.9304 177.1326 211.4001 "  class="cls-1008689814" >  </polyline>
<polyline id="2e2da451-6e06-4d5c-8852-a8c103121fad" points="171.8293 206.8685 171.8293 208.3382 "  class="cls-1008689814" >  </polyline>
<polyline id="a943c793-f9a5-429e-a664-e2462e12eafc" points="177.1326 211.4001 171.8293 208.3382 "  class="cls-1008689814" >  </polyline>
<polyline id="98ec4649-21b7-489d-b027-902425ee23c3" points="177.1326 218.0954 177.1326 219.5651 "  class="cls-1008689814" >  </polyline>
<polyline id="0c7a85f8-9766-4bf8-8099-a5c83ddabee1" points="171.8293 215.0335 171.8293 216.5032 "  class="cls-1008689814" >  </polyline>
<polyline id="ce41b0ad-827d-4eed-a6be-59217872df6a" points="177.1326 219.5651 171.8293 216.5032 "  class="cls-1008689814" >  </polyline>
<polyline id="df4e7678-1043-46e8-be4e-4f6d92e10db0" points="177.1326 216.6257 177.1326 218.0954 "  class="cls-1008689814" >  </polyline>
<polyline id="10700c0c-ed07-448d-be7e-68db035292e1" points="171.8293 213.5638 171.8293 215.0335 "  class="cls-1008689814" >  </polyline>
<polyline id="5c3543c6-2b2e-4f9b-b4af-55e2d5720d27" points="177.1326 208.4607 177.1326 209.9304 "  class="cls-1008689814" >  </polyline>
<polyline id="85b2cc5f-84d6-4286-b2a9-f3f563d5327b" points="171.8293 205.3989 171.8293 206.8685 "  class="cls-1008689814" >  </polyline>
<polyline id="df27bbb1-af52-424d-80c4-72415b2ef511" points="204.3916 205.0927 205.6644 204.3579 "  class="cls-1008689814" >  </polyline>
<polyline id="0039cf4e-f2e0-43ce-8cc3-9a1c54b6f277" points="204.3916 215.3383 203.9673 215.0934 "  class="cls-1008689814" >  </polyline>
<polyline id="387a35d5-12f7-4966-9035-7cd28ab28275" points="203.9673 215.0934 203.9673 216.0732 "  class="cls-1008689814" >  </polyline>
<polyline id="9dec427c-9c4f-4af9-8178-1e4377dad9bc" points="203.9673 216.0732 205.2401 215.3383 "  class="cls-1008689814" >  </polyline>
<polyline id="5f6f7478-75b0-4b0f-a0ba-be1e502bd4fc" points="203.9673 216.0732 207.3615 218.0328 "  class="cls-1008689814" >  </polyline>
<polyline id="4e4ed42b-3c43-4610-8501-99f94bf57f53" points="207.3615 218.0328 207.3615 217.053 "  class="cls-1008689814" >  </polyline>
<polyline id="1a173298-8523-42ea-8ca6-668e5bd12234" points="207.3615 217.053 206.9372 216.808 "  class="cls-1008689814" >  </polyline>
<polyline id="b9659a65-28c1-4149-a268-0e02c32a5d86" points="206.9372 206.5624 208.21 205.8275 "  class="cls-1008689814" >  </polyline>
<polyline id="666f9b31-8418-4c27-8877-bde656bc1ec2" points="246.818 229.5876 248.0908 228.8528 "  class="cls-1008689814" >  </polyline>
<polyline id="054de651-a3a1-44ef-aaef-401a427aa915" points="246.818 239.8332 246.3938 239.5883 "  class="cls-1008689814" >  </polyline>
<polyline id="c9572eda-86b7-4cbe-8620-7c43460c1992" points="246.3938 239.5883 246.3938 240.5681 "  class="cls-1008689814" >  </polyline>
<polyline id="a807aaa0-76b5-482e-a71e-1e2c86298c10" points="246.3938 240.5681 247.6665 239.8332 "  class="cls-1008689814" >  </polyline>
<polyline id="e77916b2-409f-4688-9392-0b2c0e0a941e" points="246.3938 240.5681 249.7879 242.5277 "  class="cls-1008689814" >  </polyline>
<polyline id="7ea36fee-b837-4791-85a5-b9d67cf20301" points="249.7879 242.5277 249.7879 241.5479 "  class="cls-1008689814" >  </polyline>
<polyline id="a9aece77-5a74-4ee6-9edb-306b56580d3f" points="249.7879 241.5479 249.3636 241.3029 "  class="cls-1008689814" >  </polyline>
<polyline id="adccb84e-436f-4e7d-90e7-fe231f11f7cf" points="249.3636 231.0573 250.6364 230.3224 "  class="cls-1008689814" >  </polyline>
<polyline id="063fd8ce-974d-423d-92f9-9ba5e3950c9c" points="289.2444 254.0825 290.5172 253.3476 "  class="cls-1008689814" >  </polyline>
<polyline id="6d1e1171-af62-47bd-a666-ce12901a7dba" points="289.2444 264.3281 288.8202 264.0832 "  class="cls-1008689814" >  </polyline>
<polyline id="93fca7db-a898-4965-aa91-85f46cb98be6" points="288.8202 264.0832 288.8202 265.063 "  class="cls-1008689814" >  </polyline>
<polyline id="99df29ee-656f-40fb-ae42-e37ac5373b09" points="288.8202 265.063 290.093 264.3281 "  class="cls-1008689814" >  </polyline>
<polyline id="96052613-d019-441a-acfc-179adefbfebf" points="288.8202 265.063 292.2143 267.0226 "  class="cls-1008689814" >  </polyline>
<polyline id="e6f71f78-b96c-4d4c-b193-a5e5c1fbcd47" points="292.2143 267.0226 292.2143 266.0428 "  class="cls-1008689814" >  </polyline>
<polyline id="2f4392ba-1d9a-4576-a283-f56bcd2c0b2a" points="292.2143 266.0428 291.79 265.7978 "  class="cls-1008689814" >  </polyline>
<polyline id="c0afec6b-5398-49d6-9aeb-80f2e349361e" points="291.79 255.5522 293.0628 254.8173 "  class="cls-1008689814" >  </polyline>
<polyline id="5aba7b27-78c2-4d12-905e-0a66fe433d57" points="331.6708 278.5774 332.9436 277.8425 "  class="cls-1008689814" >  </polyline>
<polyline id="8bc16533-ff08-4365-9e70-ce4d7bcf7608" points="331.6708 288.823 331.2466 288.5781 "  class="cls-1008689814" >  </polyline>
<polyline id="a90eec9c-79f9-445d-8abb-a46b9a3e7c6a" points="331.2466 288.5781 331.2466 289.5579 "  class="cls-1008689814" >  </polyline>
<polyline id="083ab66b-fb89-4b25-a50c-05e14105c1fe" points="331.2466 289.5579 332.5194 288.823 "  class="cls-1008689814" >  </polyline>
<polyline id="5d0c721a-a3ca-4314-afc2-8654b343c797" points="331.2466 289.5579 340.0147 294.6202 "  class="cls-1008689814" >  </polyline>
<polyline id="202439ab-88d2-467f-b284-f10956508c2c" points="340.0147 294.6202 341.2875 293.8853 "  class="cls-1008689814" >  </polyline>
<polyline id="f0721b71-8b41-490d-8468-cc6be16d4ae3" points="340.0147 320.137 341.2875 319.4022 "  class="cls-1008689814" >  </polyline>
<polyline id="1cb76716-d0b4-4bcd-bcb5-69b519ae6107" points="340.0147 320.137 334.2164 316.7894 "  class="cls-1008689814" >  </polyline>
<polyline id="c6e8574b-a1f9-4acb-94fa-a483ee59efe7" points="334.2164 307.7658 334.6407 308.0107 "  class="cls-1008689814" >  </polyline>
<polyline id="e43906de-dd38-405f-9ccf-ba1458f69532" points="331.2466 305.0713 331.2466 306.0511 "  class="cls-1008689814" >  </polyline>
<polyline id="deacf1bd-8f3f-4713-bfa1-e42faf805508" points="331.2466 306.0511 332.0951 305.5612 "  class="cls-1008689814" >  </polyline>
<polyline id="55d46030-0572-4da8-9e2d-ba0acc119c01" points="331.2466 306.0511 331.6708 306.2961 "  class="cls-1008689814" >  </polyline>
<polyline id="d8ee9fb8-570a-4773-837b-b3c97a952857" points="331.6708 306.2961 332.5195 305.8061 "  class="cls-1008689814" >  </polyline>
<polyline id="5699cfdb-1353-4279-9db1-2f51992b79a0" points="331.6708 315.3197 332.9436 314.5849 "  class="cls-1008689814" >  </polyline>
<polyline id="ed233ec8-a497-4572-bca4-3894d71b5392" points="331.6708 315.3197 184.4512 230.3224 "  class="cls-1008689814" >  </polyline>
<polyline id="38a8e5c9-0fde-4c97-a463-971150445b7a" points="290.093 263.8379 290.093 264.3281 "  class="cls-1008689814" >  </polyline>
<polyline id="a833c8cc-d4c5-409d-a160-ab120ce3ae00" points="197.0731 229.608 197.0731 228.1383 "  class="cls-1008689814" >  </polyline>
<polyline id="227c48fb-d80d-4a66-8b1f-e9d9dc00e358" points="304.4119 283.4151 304.4119 281.9454 "  class="cls-1008689814" >  </polyline>
<polyline id="bb802f1f-529d-4e0e-909e-3896e871c8d2" points="324.3523 303.0927 324.3523 301.623 "  class="cls-1008689814" >  </polyline>
<polyline id="2057c7ca-2bbd-46bd-bdc9-73be9e7511be" points="324.3523 294.9277 324.3523 293.458 "  class="cls-1008689814" >  </polyline>
<polyline id="93e4a4e8-6574-4216-8c5e-c28d2033af99" points="334.2164 307.7658 334.6413 307.5205 "  class="cls-1008689814" >  </polyline>
<polyline id="2c35c98d-ae21-4d02-a624-f8add77a738a" points="291.7901 265.308 290.093 264.3281 "  class="cls-1008689814" >  </polyline>
<polyline id="11d0d201-3f35-4495-a9b4-0ab063cb849d" points="249.3636 240.813 247.6665 239.8332 "  class="cls-1008689814" >  </polyline>
<polyline id="2515d2b6-0ad7-4494-a062-12997d4566d0" points="206.9373 216.3182 205.2401 215.3383 "  class="cls-1008689814" >  </polyline>
<polyline id="011b078e-2b51-49e7-b51e-9b6723cf2f3d" points="291.79 255.5522 291.79 252.6128 "  class="cls-1008689814" >  </polyline>
<polyline id="014742d9-a7c9-4afd-aed9-42a8c27d24ad" points="249.3636 239.3433 248.9393 239.0984 "  class="cls-1008689814" >  </polyline>
<polyline id="cd91e2b6-910b-47f7-849e-ac8960b5c8d9" points="249.3636 231.0573 249.3636 228.1179 "  class="cls-1008689814" >  </polyline>
<polyline id="4ebaadc5-5a00-4257-9259-6f5e06134e62" points="206.9372 214.8484 206.5129 214.6035 "  class="cls-1008689814" >  </polyline>
<polyline id="eeaf5853-53d0-4309-8c8b-dd0ef52bcd56" points="206.9372 206.5624 206.9372 203.623 "  class="cls-1008689814" >  </polyline>
<polyline id="737f1fb7-d109-42d2-8781-5e59eb9c3f02" points="334.2164 307.7658 334.2164 306.786 "  class="cls-1008689814" >  </polyline>
<polyline id="985f4cd9-300f-44d0-83f5-0c93a4290b28" points="164.5108 218.8098 164.5108 209.7862 "  class="cls-1008689814" >  </polyline>
<polyline id="5947784b-19d3-401c-a1f6-3eb2562ae6d2" points="164.9351 210.0311 164.9351 209.0513 "  class="cls-1008689814" >  </polyline>
<polyline id="4620ca64-ada9-4b6f-b504-b6447c385819" points="164.9351 209.0513 161.5409 207.0917 "  class="cls-1008689814" >  </polyline>
<polyline id="00b25f3f-11d7-4679-8858-8ca43825438f" points="161.9652 208.3165 161.9652 217.3401 "  class="cls-1008689814" >  </polyline>
<polyline id="a3aabbdd-000e-4f37-a34e-a8fb961aa79a" points="163.238 208.0715 163.238 216.6053 "  class="cls-1008689814" >  </polyline>
<polyline id="bfab3f67-cc4e-48ec-bbb2-af7d4b704540" points="156.1669 188.4756 164.9351 193.5379 "  class="cls-1008689814" >  </polyline>
<polyline id="8e859bd9-4c80-4c48-994d-c1aeeb0cf694" points="157.4397 187.7408 164.5108 191.8232 "  class="cls-1008689814" >  </polyline>
<polyline id="d8fb66aa-6483-4fa3-9521-2b3130e468c4" points="164.5108 192.3131 164.5108 182.0675 "  class="cls-1008689814" >  </polyline>
<polyline id="4e62419e-1807-4a7e-9af2-417b01c3d403" points="164.5108 182.0675 184.4512 193.5801 "  class="cls-1008689814" >  </polyline>
<polyline id="42ca904d-2440-4b2e-9366-ff6561e1d2c8" points="177.1326 208.4607 171.8293 205.3989 "  class="cls-1008689814" >  </polyline>
<polyline id="44bb2c36-1323-4cae-a8b7-290ae4dc866d" points="158.7125 187.0059 164.5113 190.3538 "  class="cls-1008689814" >  </polyline>
<polyline id="7bfd247a-d866-46b6-bf80-df166d53861f" points="167.0564 180.5978 186.9968 192.1104 "  class="cls-1008689814" >  </polyline>
<polyline id="981eac1a-ecf3-4377-87ac-6f1028bdd9bf" points="251.9092 229.5876 291.79 252.6128 "  class="cls-1008689814" >  </polyline>
<polyline id="48935d05-a0fc-4d24-be57-1b6e146b228c" points="294.3356 254.0825 334.2164 277.1077 "  class="cls-1008689814" >  </polyline>
<polyline id="2b37e19b-030e-4915-b886-88daa16a904f" points="334.2164 287.3533 335.4892 286.6185 "  class="cls-1008689814" >  </polyline>
<polyline id="ea195441-dac5-4ccd-8f65-48dbc1eba5f7" points="342.5603 293.1505 342.5603 318.6673 "  class="cls-1008689814" >  </polyline>
<polyline id="724072c2-777c-4bfd-92e8-d6fc51ad0d0f" points="313.0032 266.3299 293.0628 254.8173 "  class="cls-1008689814" >  </polyline>
<polyline id="cd3b5765-15c2-44ab-ae22-952d102cadbd" points="290.5172 263.5933 291.79 262.8584 "  class="cls-1008689814" >  </polyline>
<polyline id="3d84c5d0-b642-4ccf-9231-c2f5b9a6bda3" points="290.5172 263.5933 290.5172 253.3476 "  class="cls-1008689814" >  </polyline>
<polyline id="922cf99b-90da-4d5d-bf7d-8ee91b737366" points="248.0908 239.0984 249.3636 238.3635 "  class="cls-1008689814" >  </polyline>
<polyline id="e1bc43f3-e933-42cf-bc22-dbe17b2aa2c1" points="248.0908 239.0984 248.0908 228.8528 "  class="cls-1008689814" >  </polyline>
<polyline id="c3aa6602-0a42-42bc-b7cf-cf09b0ccec17" points="248.0908 228.8528 208.21 205.8275 "  class="cls-1008689814" >  </polyline>
<polyline id="4824b486-9a20-4bf0-8709-e48227378597" points="249.3636 228.1179 209.4828 205.0927 "  class="cls-1008689814" >  </polyline>
<polyline id="04f5ee25-7b52-42ac-93f3-0c067a9d564b" points="205.6644 214.6035 206.9372 213.8687 "  class="cls-1008689814" >  </polyline>
<polyline id="b37c03e0-df9b-48f0-a5d9-0699cd85ea02" points="205.6644 214.6035 205.6644 204.3579 "  class="cls-1008689814" >  </polyline>
<polyline id="33bc35b2-762d-47fe-9a19-3c30723141e0" points="205.6644 204.3579 165.7836 181.3327 "  class="cls-1008689814" >  </polyline>
<polyline id="adf9a263-4d27-4a9a-a2fa-486b1b8ce15f" points="206.9372 203.623 186.9968 192.1104 "  class="cls-1008689814" >  </polyline>
<polyline id="2c866082-2ec9-4217-bfcc-f247306d718e" points="304.4119 283.4151 299.1086 280.3532 "  class="cls-1008689814" >  </polyline>
<polyline id="476c3bc2-6d23-4c09-9519-f7a9a46cb3e9" points="324.3523 303.0927 319.049 300.0308 "  class="cls-1008689814" >  </polyline>
<polyline id="ef6f9639-3567-47cf-a0d7-a57e826afde0" points="304.4119 291.5801 299.1086 288.5182 "  class="cls-1008689814" >  </polyline>
<polyline id="a9e03fa9-4bb3-4773-9b9a-b582a63eed07" points="332.9436 314.5849 332.9436 306.0511 "  class="cls-1008689814" >  </polyline>
<polyline id="2c22ed9e-66c4-4e3b-8239-8541bea0f8f3" points="332.9436 288.0882 334.2164 287.3533 "  class="cls-1008689814" >  </polyline>
<polyline id="f94cebc0-524a-4043-89f1-404852f29e87" points="332.9436 288.0882 332.9436 277.8425 "  class="cls-1008689814" >  </polyline>
<polyline id="45e866f5-3f0c-4dd1-b317-f9f58e8e272f" points="334.2164 287.3533 334.2164 277.1077 "  class="cls-1008689814" >  </polyline>
<polyline id="4f1a6fac-00a3-4411-8c4d-e68a23d46f9b" points="197.0731 229.608 191.7698 226.5461 "  class="cls-1008689814" >  </polyline>
<polyline id="7ecf770c-c9d5-4e35-a65f-e85e1bb10ac9" points="197.0731 219.9733 191.7698 216.9115 "  class="cls-1008689814" >  </polyline>
<polyline id="1ab87cec-4c55-4f52-b8a5-16636fee7536" points="197.0731 221.443 191.7698 218.3812 "  class="cls-1008689814" >  </polyline>
<polyline id="a67d3a91-755b-493e-a451-40ba3ebf13a4" points="324.3523 294.9277 319.049 291.8658 "  class="cls-1008689814" >  </polyline>
<polyline id="1c0ad8ec-9527-4a77-842b-8d8302a62e72" points="324.3523 303.0927 324.3523 304.5624 "  class="cls-1008689814" >  </polyline>
<polyline id="a108ebd4-b10c-4c57-b88c-3d451563944c" points="304.4119 290.1104 304.4119 291.5801 "  class="cls-1008689814" >  </polyline>
<polyline id="fc135239-c3b4-4579-b1df-5a3e8e1ee799" points="304.4119 290.1104 299.1086 287.0485 "  class="cls-1008689814" >  </polyline>
<polyline id="3a6c9097-ba22-4687-8aa4-445a5f1417a4" points="177.1326 216.6257 171.8293 213.5638 "  class="cls-1008689814" >  </polyline>
<polyline id="6ac45fb2-9c6e-47f1-b928-fc0bd80c7558" points="177.1326 218.0954 171.8293 215.0335 "  class="cls-1008689814" >  </polyline>
<polyline id="0bec4602-a6f1-4423-a248-383ca49b45c4" points="177.1326 209.9304 171.8293 206.8685 "  class="cls-1008689814" >  </polyline>
<polyline id="dde9f33d-f097-4f51-8368-69667def9c3c" points="184.4512 230.3224 184.4512 193.5801 "  class="cls-1008689814" >  </polyline>
<polyline id="c2806231-ef9c-4228-90d8-018af779fe29" points="184.4512 193.5801 204.3916 205.0927 "  class="cls-1008689814" >  </polyline>
<polyline id="d5075d65-4275-4089-badb-f7171e4b9323" points="204.3916 205.0927 204.3916 215.3383 "  class="cls-1008689814" >  </polyline>
<polyline id="f8f17f2b-f1b0-4689-ae26-a8008ea6e432" points="204.3916 215.3383 205.6644 214.6035 "  class="cls-1008689814" >  </polyline>
<polyline id="70cccb9c-82f9-400a-85e3-6d24d8b45ca7" points="206.9372 216.808 206.9372 206.5624 "  class="cls-1008689814" >  </polyline>
<polyline id="78cef2e3-b180-4038-9b68-e3115f77f484" points="206.9372 206.5624 212.7355 209.91 246.818 229.5876 "  class="cls-1008689814" >  </polyline>
<polyline id="0c06c94c-52e1-4360-9903-cf559cd41b15" points="246.818 229.5876 246.818 239.8332 "  class="cls-1008689814" >  </polyline>
<polyline id="eef551d7-0cba-4afd-b2b0-4dc2179eec22" points="246.818 239.8332 248.0908 239.0984 "  class="cls-1008689814" >  </polyline>
<polyline id="3bcc23d7-4b34-4227-bc7d-cd8b554f307c" points="249.3636 241.3029 249.3636 231.0573 "  class="cls-1008689814" >  </polyline>
<polyline id="2d2d91c4-8ee6-4cdc-8db6-c30ea5a65bb1" points="249.3636 231.0573 289.2444 254.0825 "  class="cls-1008689814" >  </polyline>
<polyline id="fc1ae390-217d-4dea-9528-9aef48220377" points="250.6364 230.3224 290.5172 253.3476 "  class="cls-1008689814" >  </polyline>
<polyline id="5732cc76-fe45-4de8-8963-fcf2868aa6fc" points="289.2444 254.0825 289.2444 264.3281 "  class="cls-1008689814" >  </polyline>
<polyline id="f1f89837-43cb-4f66-a5b2-eadb6365078e" points="289.2444 264.3281 290.5172 263.5933 "  class="cls-1008689814" >  </polyline>
<polyline id="e1ed8ffe-8c80-4a38-9c74-48ec7c043e2b" points="291.79 265.7978 291.79 255.5522 "  class="cls-1008689814" >  </polyline>
<polyline id="788a0572-aa27-4b27-87a1-46004e442ca4" points="291.79 255.5522 331.6708 278.5774 "  class="cls-1008689814" >  </polyline>
<polyline id="29063419-1030-4fc9-9bd2-c39d06410ec5" points="313.0032 266.3299 332.9436 277.8425 "  class="cls-1008689814" >  </polyline>
<polyline id="97104020-74fb-442a-b1bf-bff9ba217588" points="331.6708 278.5774 331.6708 288.823 "  class="cls-1008689814" >  </polyline>
<polyline id="8de7b5a0-c8b8-4939-91a0-a8062806c04f" points="331.6708 288.823 332.9436 288.0882 "  class="cls-1008689814" >  </polyline>
<polyline id="01aefcb4-d5d5-4c09-923c-f0c0843b4a79" points="340.0147 294.6202 340.0147 320.137 "  class="cls-1008689814" >  </polyline>
<polyline id="4b9c0632-b1eb-4a28-b46c-5c26f06b8dbe" points="341.2875 293.8853 341.2875 319.4022 "  class="cls-1008689814" >  </polyline>
<polyline id="28f2f118-de6e-4c39-806e-2b5156ed2c15" points="334.2164 316.7894 334.2164 307.7658 "  class="cls-1008689814" >  </polyline>
<polyline id="5e677a71-a5c1-4e07-9675-d0cf82c06496" points="334.6407 308.0107 334.6407 307.0309 "  class="cls-1008689814" >  </polyline>
<polyline id="c5e70368-a6ec-4be1-ba4f-40e43d828448" points="334.6407 307.0309 331.2466 305.0713 "  class="cls-1008689814" >  </polyline>
<polyline id="2448f78f-04d6-4adf-8957-76b7f8ead5ef" points="331.6708 306.2961 331.6708 315.3197 "  class="cls-1008689814" >  </polyline>
<polyline id="4bd4ac84-bcc4-4620-b384-847be1cd6ee6" points="197.0731 228.1383 191.7698 225.0764 "  class="cls-1008689814" >  </polyline>
<polyline id="3a674a5e-ffbb-431a-a485-1f08e2d9c884" points="304.4119 281.9454 299.1086 278.8835 "  class="cls-1008689814" >  </polyline>
<polyline id="1ed7991a-70d7-4d06-b658-9692ce32bc47" points="324.3523 301.623 319.049 298.5611 "  class="cls-1008689814" >  </polyline>
<polyline id="03a0bde3-4657-4211-a154-b012804d03a9" points="324.3523 293.458 319.049 290.3961 "  class="cls-1008689814" >  </polyline>
<defs>
<style> .cls-30449002{stroke:#000000 ; stroke-opacity:1; stroke-width:1; stroke-linecap:round; stroke-linejoin:round; fill:none; } </style>
<style> .cls-1008689814{stroke:#000000 ; stroke-opacity:1; stroke-width:0.3; stroke-linecap:round; stroke-linejoin:round; fill:none; } </style>
</defs>
</svg>