<svg id="Layer_1" data-name="Layer 1" xmlns="http://www.w3.org/2000/svg" viewBox="0 0 212.6 425.2"><defs><style>.cls-1,.cls-3{fill:none;stroke:#1d1d1b;stroke-miterlimit:10;}.cls-1{stroke-width:0.5px;}.cls-2{font-size:5.3px;fill:#1d1d1b;font-family:Monotxt;}.cls-3{stroke-width:0.25px;}</style></defs><g id="POLYLINE"><path class="cls-1" d="M187.72,276.71a1.77,1.77,0,0,1-1.77,1.77H170.06v-.91h-1.88v48.76h1.88v-.9H186a1.77,1.77,0,0,1,1.77,1.77v15.32a1.77,1.77,0,0,1-1.77,1.77H170.06v-.9h-1.88v7.28h1.88v-.9H186a1.77,1.77,0,0,1,1.77,1.77v15.32a1.77,1.77,0,0,1-1.77,1.77H170.06v-.9h-1.88v24.34H115.82V351.54h0a1.76,1.76,0,0,1,1.76-1.77h6v.9h1.87v-7.28h-1.87v.9h-6a1.76,1.76,0,0,1-1.76-1.77V261.38a1.76,1.76,0,0,1,1.76-1.76h6v.9h1.87v-7.29h-1.87v.91h-6a1.77,1.77,0,0,1-1.76-1.77V213.6a1.76,1.76,0,0,1,1.76-1.76h10.48v.9h1.88v-3.61h38.24v3.61h1.88v-.9h13.19A1.76,1.76,0,0,1,185,213.6v12.47a1.76,1.76,0,0,1-1.76,1.77H151.88v-.9H150v7.29h1.88v-.91h31.37a1.76,1.76,0,0,1,1.76,1.77v17.28a1.77,1.77,0,0,1-1.76,1.77H170.06v-.91h-1.88v7.29h1.88v-.9H186a1.77,1.77,0,0,1,1.77,1.76Z"/></g><g id="POLYLINE-2" data-name="POLYLINE"><path class="cls-1" d="M27.85,276.71a1.76,1.76,0,0,0,1.76,1.77H45.5v-.91h1.88v48.76H45.5v-.9H29.61a1.76,1.76,0,0,0-1.76,1.77v15.32a1.76,1.76,0,0,0,1.76,1.77H45.5v-.9h1.88v7.28H45.5v-.9H29.61a1.76,1.76,0,0,0-1.76,1.77v15.32a1.76,1.76,0,0,0,1.76,1.77H45.5v-.9h1.88v24.34H99.74V351.54h0A1.76,1.76,0,0,0,98,349.77H92v.9H90.13v-7.28H92v.9h6a1.76,1.76,0,0,0,1.76-1.77V261.38A1.76,1.76,0,0,0,98,259.62H92v.9H90.13v-7.29H92v.91h6a1.77,1.77,0,0,0,1.76-1.77V213.6A1.76,1.76,0,0,0,98,211.84H87.5v.9H85.62v-3.61H47.38v3.61H45.5v-.9H32.32a1.76,1.76,0,0,0-1.77,1.76v12.47a1.77,1.77,0,0,0,1.77,1.77H63.68v-.9h1.88v7.29H63.68v-.91H32.32a1.77,1.77,0,0,0-1.77,1.77v17.28a1.77,1.77,0,0,0,1.77,1.77H45.5v-.91h1.88v7.29H45.5v-.9H29.61a1.76,1.76,0,0,0-1.76,1.76Z"/></g><g id="POLYLINE-3" data-name="POLYLINE"><polygon class="cls-1" points="120.93 331.97 120.93 331.06 119.05 331.06 119.05 338.35 120.93 338.35 120.93 337.45 126.26 337.45 126.26 338.35 128.14 338.35 128.14 331.06 126.26 331.06 126.26 331.97 120.93 331.97"/></g><g id="POLYLINE-4" data-name="POLYLINE"><polygon class="cls-1" points="126.26 272.84 128.14 272.84 128.14 265.55 126.26 265.55 126.26 266.46 120.93 266.46 120.93 265.55 119.05 265.55 119.05 272.84 120.93 272.84 120.93 271.94 126.26 271.94 126.26 272.84"/></g><g id="POLYLINE-5" data-name="POLYLINE"><polygon class="cls-1" points="126.26 362.99 128.14 362.99 128.14 355.71 126.26 355.71 126.26 356.61 120.93 356.61 120.93 355.71 119.05 355.71 119.05 362.99 120.93 362.99 120.93 362.09 126.26 362.09 126.26 362.99"/></g><g id="POLYLINE-6" data-name="POLYLINE"><polygon class="cls-1" points="177.27 338.35 177.27 337.45 182.61 337.45 182.61 338.35 184.49 338.35 184.49 331.06 182.61 331.06 182.61 331.97 177.27 331.97 177.27 331.06 175.39 331.06 175.39 338.35 177.27 338.35"/></g><g id="POLYLINE-7" data-name="POLYLINE"><polygon class="cls-1" points="175.39 272.84 177.27 272.84 177.27 271.94 182.61 271.94 182.61 272.84 184.49 272.84 184.49 265.55 182.61 265.55 182.61 266.46 177.27 266.46 177.27 265.55 175.39 265.55 175.39 272.84"/></g><g id="POLYLINE-8" data-name="POLYLINE"><polygon class="cls-1" points="175.39 362.99 177.27 362.99 177.27 362.09 182.61 362.09 182.61 362.99 184.49 362.99 184.49 355.71 182.61 355.71 182.61 356.61 177.27 356.61 177.27 355.71 175.39 355.71 175.39 362.99"/></g><g id="POLYLINE-9" data-name="POLYLINE"><polygon class="cls-1" points="94.63 331.97 94.63 331.06 96.51 331.06 96.51 338.35 94.63 338.35 94.63 337.45 89.3 337.45 89.3 338.35 87.42 338.35 87.42 331.06 89.3 331.06 89.3 331.97 94.63 331.97"/></g><g id="POLYLINE-10" data-name="POLYLINE"><polygon class="cls-1" points="89.3 272.84 87.42 272.84 87.42 265.55 89.3 265.55 89.3 266.46 94.63 266.46 94.63 265.55 96.51 265.55 96.51 272.84 94.63 272.84 94.63 271.94 89.3 271.94 89.3 272.84"/></g><g id="POLYLINE-11" data-name="POLYLINE"><polygon class="cls-1" points="89.3 362.99 87.42 362.99 87.42 355.71 89.3 355.71 89.3 356.61 94.63 356.61 94.63 355.71 96.51 355.71 96.51 362.99 94.63 362.99 94.63 362.09 89.3 362.09 89.3 362.99"/></g><g id="POLYLINE-12" data-name="POLYLINE"><polygon class="cls-1" points="38.29 338.35 38.29 337.45 32.95 337.45 32.95 338.35 31.08 338.35 31.08 331.06 32.95 331.06 32.95 331.97 38.29 331.97 38.29 331.06 40.17 331.06 40.17 338.35 38.29 338.35"/></g><g id="POLYLINE-13" data-name="POLYLINE"><polygon class="cls-1" points="40.17 272.84 38.29 272.84 38.29 271.94 32.95 271.94 32.95 272.84 31.08 272.84 31.08 265.55 32.95 265.55 32.95 266.46 38.29 266.46 38.29 265.55 40.17 265.55 40.17 272.84"/></g><g id="POLYLINE-14" data-name="POLYLINE"><polygon class="cls-1" points="40.17 362.99 38.29 362.99 38.29 362.09 32.95 362.09 32.95 362.99 31.08 362.99 31.08 355.71 32.95 355.71 32.95 356.61 38.29 356.61 38.29 355.71 40.17 355.71 40.17 362.99"/></g><g id="MTEXT"><text class="cls-2" transform="translate(69.48 323.8) rotate(-90)">COMB-G/END-Y1</text></g><g id="MTEXT-2" data-name="MTEXT"><text class="cls-2" transform="translate(145.86 275.87) rotate(90)">COMB-G/END-Y1</text></g><g id="POLYLINE-15" data-name="POLYLINE"><rect class="cls-3" x="16.12" y="31.16" width="183.31" height="366.62"/></g></svg>