<svg id="Layer_1" data-name="Layer 1" xmlns="http://www.w3.org/2000/svg" viewBox="0 0 425.2 425.2"><defs><style>.cls-1,.cls-2{fill:none;stroke-linecap:round;stroke-linejoin:round;}.cls-1{stroke:#000;stroke-width:0.25px;}.cls-2{stroke:#1d1d1b;}</style></defs><line class="cls-1" x1="198.39" y1="190.61" x2="198.39" y2="179.78"/><line class="cls-1" x1="198.39" y1="179.78" x2="198.31" y2="179.29"/><line class="cls-1" x1="198.31" y1="179.29" x2="198.08" y2="178.73"/><line class="cls-1" x1="198.08" y1="178.73" x2="197.72" y2="178.25"/><line class="cls-1" x1="197.72" y1="178.25" x2="197.33" y2="177.94"/><line class="cls-1" x1="197.33" y1="177.94" x2="188.3" y2="172.73"/><line class="cls-1" x1="188.3" y1="172.73" x2="187.91" y2="172.59"/><line class="cls-1" x1="187.91" y1="172.59" x2="187.55" y2="172.66"/><line class="cls-1" x1="187.33" y1="172.92" x2="187.32" y2="172.94"/><line class="cls-1" x1="185.65" y1="184.48" x2="183.53" y2="183.25"/><line class="cls-1" x1="184.06" y1="182.34" x2="184.06" y2="173.35"/><line class="cls-1" x1="184.06" y1="173.35" x2="183.98" y2="172.85"/><line class="cls-1" x1="183.98" y1="172.85" x2="183.75" y2="172.3"/><line class="cls-1" x1="183.75" y1="172.3" x2="183.39" y2="171.82"/><line class="cls-1" x1="183.39" y1="171.82" x2="183" y2="171.51"/><line class="cls-1" x1="183" y1="171.51" x2="172.83" y2="165.64"/><line class="cls-1" x1="172.83" y1="165.64" x2="172.44" y2="165.5"/><line class="cls-1" x1="172.44" y1="165.5" x2="172.08" y2="165.56"/><line class="cls-1" x1="172.08" y1="165.56" x2="171.92" y2="165.75"/><line class="cls-1" x1="171.89" y1="165.78" x2="171.84" y2="165.84"/><line class="cls-1" x1="171.82" y1="165.93" x2="171.81" y2="166.02"/><line class="cls-1" x1="171.79" y1="166.12" x2="171.77" y2="166.25"/><line class="cls-1" x1="170.17" y1="187.9" x2="168.05" y2="186.68"/><line class="cls-1" x1="168.58" y1="185.76" x2="168.58" y2="164.41"/><line class="cls-1" x1="168.58" y1="164.41" x2="168.51" y2="163.92"/><line class="cls-1" x1="168.51" y1="163.92" x2="168.27" y2="163.36"/><line class="cls-1" x1="168.27" y1="163.36" x2="167.91" y2="162.88"/><line class="cls-1" x1="167.91" y1="162.88" x2="167.52" y2="162.57"/><line class="cls-1" x1="167.52" y1="162.57" x2="160.18" y2="158.33"/><line class="cls-1" x1="160.18" y1="158.33" x2="159.79" y2="158.19"/><line class="cls-1" x1="159.79" y1="158.19" x2="159.43" y2="158.26"/><line class="cls-1" x1="159.27" y1="158.45" x2="159.24" y2="158.48"/><line class="cls-1" x1="159.17" y1="158.63" x2="159.16" y2="158.71"/><line class="cls-1" x1="159.14" y1="158.82" x2="159.12" y2="158.95"/><line class="cls-1" x1="183.51" y1="218.71" x2="183.75" y2="218.67"/><line class="cls-1" x1="183.75" y1="218.67" x2="183.98" y2="218.39"/><line class="cls-1" x1="183.98" y1="218.39" x2="184.06" y2="217.98"/><line class="cls-1" x1="184.06" y1="217.98" x2="184.06" y2="214.51"/><line class="cls-1" x1="236.58" y1="249.35" x2="236.82" y2="249.31"/><line class="cls-1" x1="236.82" y1="249.31" x2="237.06" y2="249.03"/><line class="cls-1" x1="237.06" y1="249.03" x2="237.13" y2="248.62"/><line class="cls-1" x1="237.13" y1="248.62" x2="237.13" y2="245.15"/><line class="cls-1" x1="251.2" y1="221.1" x2="251.46" y2="221.25"/><line class="cls-1" x1="251.46" y1="221.25" x2="251.46" y2="210.42"/><line class="cls-1" x1="251.46" y1="210.42" x2="251.39" y2="209.93"/><line class="cls-1" x1="251.39" y1="209.93" x2="251.15" y2="209.38"/><line class="cls-1" x1="251.15" y1="209.38" x2="250.79" y2="208.9"/><line class="cls-1" x1="250.79" y1="208.9" x2="250.4" y2="208.58"/><line class="cls-1" x1="250.4" y1="208.58" x2="241.38" y2="203.37"/><line class="cls-1" x1="241.38" y1="203.37" x2="240.99" y2="203.23"/><line class="cls-1" x1="240.99" y1="203.23" x2="240.63" y2="203.3"/><line class="cls-1" x1="238.72" y1="215.12" x2="236.6" y2="213.89"/><line class="cls-1" x1="237.13" y1="212.98" x2="237.13" y2="202.15"/><line class="cls-1" x1="237.13" y1="202.15" x2="237.06" y2="201.65"/><line class="cls-1" x1="237.06" y1="201.65" x2="236.82" y2="201.1"/><line class="cls-1" x1="236.82" y1="201.1" x2="236.46" y2="200.62"/><line class="cls-1" x1="236.46" y1="200.62" x2="236.07" y2="200.31"/><line class="cls-1" x1="236.07" y1="200.31" x2="227.05" y2="195.1"/><line class="cls-1" x1="227.05" y1="195.1" x2="226.66" y2="194.96"/><line class="cls-1" x1="226.66" y1="194.96" x2="226.3" y2="195.03"/><line class="cls-1" x1="245.98" y1="214.4" x2="243.85" y2="213.18"/><line class="cls-1" x1="243.85" y1="213.18" x2="243.85" y2="212.57"/><line class="cls-1" x1="244.38" y1="212.26" x2="244.38" y2="209.2"/><line class="cls-1" x1="192.91" y1="183.76" x2="190.78" y2="182.54"/><line class="cls-1" x1="190.78" y1="182.54" x2="190.78" y2="181.93"/><line class="cls-1" x1="191.31" y1="181.62" x2="191.31" y2="178.55"/><line class="cls-1" x1="231.47" y1="206.03" x2="229.35" y2="204.81"/><line class="cls-1" x1="229.35" y1="204.81" x2="229.35" y2="204.19"/><line class="cls-1" x1="229.88" y1="203.89" x2="229.88" y2="200.82"/><line class="cls-1" x1="245.98" y1="252.71" x2="243.85" y2="251.48"/><line class="cls-1" x1="243.85" y1="251.48" x2="243.85" y2="250.87"/><line class="cls-1" x1="244.38" y1="250.56" x2="244.38" y2="247.5"/><line class="cls-1" x1="192.91" y1="222.06" x2="190.78" y2="220.84"/><line class="cls-1" x1="190.78" y1="220.84" x2="190.78" y2="220.23"/><line class="cls-1" x1="191.31" y1="219.92" x2="191.31" y2="216.86"/><line class="cls-1" x1="231.47" y1="244.33" x2="229.35" y2="243.1"/><line class="cls-1" x1="229.35" y1="243.1" x2="229.35" y2="242.49"/><line class="cls-1" x1="229.88" y1="242.19" x2="229.88" y2="239.12"/><line class="cls-1" x1="196.8" y1="191.53" x2="196.8" y2="180.7"/><line class="cls-1" x1="196.8" y1="180.7" x2="196.72" y2="180.21"/><line class="cls-1" x1="196.49" y1="179.66" x2="196.13" y2="179.17"/><line class="cls-1" x1="196.13" y1="179.17" x2="195.74" y2="178.86"/><line class="cls-1" x1="195.74" y1="178.86" x2="197.33" y2="177.94"/><line class="cls-1" x1="196.72" y1="180.21" x2="196.49" y2="179.66"/><line class="cls-1" x1="196.27" y1="191.22" x2="196.8" y2="191.53"/><line class="cls-1" x1="196.27" y1="192.45" x2="196.27" y2="191.22"/><line class="cls-1" x1="224.92" y1="208.99" x2="196.27" y2="192.45"/><line class="cls-1" x1="224.92" y1="207.77" x2="224.92" y2="208.99"/><line class="cls-1" x1="224.39" y1="207.46" x2="224.92" y2="207.77"/><line class="cls-1" x1="235.54" y1="213.89" x2="235.54" y2="203.07"/><line class="cls-1" x1="235.54" y1="203.07" x2="235.46" y2="202.57"/><line class="cls-1" x1="234.48" y1="201.23" x2="225.46" y2="196.02"/><line class="cls-1" x1="224.7" y1="195.95" x2="224.47" y2="196.22"/><line class="cls-1" x1="224.47" y1="196.22" x2="224.39" y2="196.63"/><line class="cls-1" x1="235.23" y1="202.02" x2="234.87" y2="201.54"/><line class="cls-1" x1="234.87" y1="201.54" x2="234.48" y2="201.23"/><line class="cls-1" x1="235.46" y1="202.57" x2="235.23" y2="202.02"/><line class="cls-1" x1="225.46" y1="196.02" x2="225.06" y2="195.88"/><line class="cls-1" x1="225.06" y1="195.88" x2="224.7" y2="195.95"/><line class="cls-1" x1="235.01" y1="213.59" x2="235.54" y2="213.89"/><line class="cls-1" x1="235.01" y1="214.81" x2="235.01" y2="213.59"/><line class="cls-1" x1="239.25" y1="217.26" x2="235.01" y2="214.81"/><line class="cls-1" x1="239.25" y1="216.04" x2="239.25" y2="217.26"/><line class="cls-1" x1="238.72" y1="215.73" x2="239.25" y2="216.04"/><line class="cls-1" x1="249.87" y1="222.17" x2="249.87" y2="211.34"/><line class="cls-1" x1="249.87" y1="211.34" x2="249.79" y2="210.85"/><line class="cls-1" x1="248.81" y1="209.5" x2="239.78" y2="204.29"/><line class="cls-1" x1="239.03" y1="204.22" x2="238.8" y2="204.5"/><line class="cls-1" x1="238.8" y1="204.5" x2="238.72" y2="204.91"/><line class="cls-1" x1="249.56" y1="210.3" x2="249.2" y2="209.81"/><line class="cls-1" x1="249.2" y1="209.81" x2="248.81" y2="209.5"/><line class="cls-1" x1="249.79" y1="210.85" x2="249.56" y2="210.3"/><line class="cls-1" x1="239.78" y1="204.29" x2="239.39" y2="204.16"/><line class="cls-1" x1="239.39" y1="204.16" x2="239.03" y2="204.22"/><line class="cls-1" x1="249.34" y1="221.86" x2="249.87" y2="222.17"/><line class="cls-1" x1="249.34" y1="223.09" x2="249.34" y2="221.86"/><line class="cls-1" x1="265.26" y1="230.44" x2="263.67" y2="231.36"/><line class="cls-1" x1="263.67" y1="231.36" x2="249.34" y2="223.09"/><line class="cls-1" x1="265.26" y1="266.09" x2="263.67" y2="267"/><line class="cls-1" x1="263.67" y1="267" x2="263.67" y2="231.36"/><line class="cls-1" x1="238.72" y1="247.29" x2="238.72" y2="251.38"/><line class="cls-1" x1="238.8" y1="251.87" x2="239.03" y2="252.42"/><line class="cls-1" x1="239.39" y1="252.91" x2="239.78" y2="253.22"/><line class="cls-1" x1="239.78" y1="253.22" x2="263.67" y2="267"/><line class="cls-1" x1="238.72" y1="251.38" x2="238.8" y2="251.87"/><line class="cls-1" x1="239.03" y1="252.42" x2="239.39" y2="252.91"/><line class="cls-1" x1="239.25" y1="247.6" x2="238.72" y2="247.29"/><line class="cls-1" x1="235.01" y1="245.15" x2="235.01" y2="243.92"/><line class="cls-1" x1="235.54" y1="245.45" x2="235.01" y2="245.15"/><line class="cls-1" x1="185.65" y1="216.65" x2="185.65" y2="220.74"/><line class="cls-1" x1="186.71" y1="222.57" x2="234.48" y2="250.15"/><line class="cls-1" x1="185.65" y1="220.74" x2="185.73" y2="221.23"/><line class="cls-1" x1="185.96" y1="221.78" x2="186.32" y2="222.26"/><line class="cls-1" x1="186.32" y1="222.26" x2="186.71" y2="222.57"/><line class="cls-1" x1="185.73" y1="221.23" x2="185.96" y2="221.78"/><line class="cls-1" x1="234.48" y1="250.15" x2="234.87" y2="250.29"/><line class="cls-1" x1="234.87" y1="250.29" x2="235.23" y2="250.23"/><line class="cls-1" x1="235.23" y1="250.23" x2="235.46" y2="249.95"/><line class="cls-1" x1="235.46" y1="249.95" x2="235.54" y2="249.54"/><line class="cls-1" x1="235.54" y1="249.54" x2="235.54" y2="245.45"/><line class="cls-1" x1="186.18" y1="216.96" x2="185.65" y2="216.65"/><line class="cls-1" x1="181.94" y1="214.51" x2="181.94" y2="213.28"/><line class="cls-1" x1="182.47" y1="214.81" x2="181.94" y2="214.51"/><line class="cls-1" x1="157.52" y1="197.35" x2="157.52" y2="204.5"/><line class="cls-1" x1="158.59" y1="206.34" x2="181.41" y2="219.51"/><line class="cls-1" x1="182.47" y1="218.9" x2="182.47" y2="214.81"/><line class="cls-1" x1="157.52" y1="204.5" x2="157.6" y2="204.99"/><line class="cls-1" x1="157.83" y1="205.55" x2="158.19" y2="206.03"/><line class="cls-1" x1="158.19" y1="206.03" x2="158.59" y2="206.34"/><line class="cls-1" x1="157.6" y1="204.99" x2="157.83" y2="205.55"/><line class="cls-1" x1="181.41" y1="219.51" x2="181.8" y2="219.65"/><line class="cls-1" x1="181.8" y1="219.65" x2="182.16" y2="219.59"/><line class="cls-1" x1="182.16" y1="219.59" x2="182.39" y2="219.31"/><line class="cls-1" x1="182.39" y1="219.31" x2="182.47" y2="218.9"/><line class="cls-1" x1="158.05" y1="197.65" x2="157.52" y2="197.35"/><line class="cls-1" x1="155.93" y1="195.2" x2="158.05" y2="196.43"/><line class="cls-1" x1="157.52" y1="168.24" x2="155.93" y2="169.16"/><line class="cls-1" x1="155.93" y1="169.16" x2="155.93" y2="195.2"/><line class="cls-1" x1="158.05" y1="170.38" x2="155.93" y2="169.16"/><line class="cls-1" x1="158.05" y1="169.16" x2="158.05" y2="170.38"/><line class="cls-1" x1="157.52" y1="168.85" x2="158.05" y2="169.16"/><line class="cls-1" x1="166.99" y1="165.33" x2="166.91" y2="164.83"/><line class="cls-1" x1="165.93" y1="163.49" x2="158.59" y2="159.25"/><line class="cls-1" x1="166.99" y1="186.68" x2="166.99" y2="165.33"/><line class="cls-1" x1="166.91" y1="164.83" x2="166.68" y2="164.28"/><line class="cls-1" x1="166.32" y1="163.8" x2="165.93" y2="163.49"/><line class="cls-1" x1="166.68" y1="164.28" x2="166.32" y2="163.8"/><line class="cls-1" x1="158.59" y1="159.25" x2="158.19" y2="159.11"/><line class="cls-1" x1="158.19" y1="159.11" x2="157.83" y2="159.18"/><line class="cls-1" x1="157.83" y1="159.18" x2="157.6" y2="159.46"/><line class="cls-1" x1="157.6" y1="159.46" x2="157.52" y2="159.87"/><line class="cls-1" x1="166.46" y1="186.37" x2="166.99" y2="186.68"/><line class="cls-1" x1="166.46" y1="187.59" x2="166.46" y2="186.37"/><line class="cls-1" x1="170.7" y1="190.05" x2="166.46" y2="187.59"/><line class="cls-1" x1="170.7" y1="188.82" x2="170.7" y2="190.05"/><line class="cls-1" x1="170.17" y1="188.51" x2="170.7" y2="188.82"/><line class="cls-1" x1="182.47" y1="174.26" x2="182.39" y2="173.77"/><line class="cls-1" x1="181.41" y1="172.43" x2="171.23" y2="166.55"/><line class="cls-1" x1="182.47" y1="183.25" x2="182.47" y2="174.26"/><line class="cls-1" x1="182.39" y1="173.77" x2="182.16" y2="173.22"/><line class="cls-1" x1="181.8" y1="172.74" x2="181.41" y2="172.43"/><line class="cls-1" x1="182.16" y1="173.22" x2="181.8" y2="172.74"/><line class="cls-1" x1="171.23" y1="166.55" x2="170.84" y2="166.41"/><line class="cls-1" x1="170.84" y1="166.41" x2="170.48" y2="166.48"/><line class="cls-1" x1="170.48" y1="166.48" x2="170.25" y2="166.76"/><line class="cls-1" x1="170.25" y1="166.76" x2="170.17" y2="167.17"/><line class="cls-1" x1="181.94" y1="182.95" x2="182.47" y2="183.25"/><line class="cls-1" x1="181.94" y1="184.17" x2="181.94" y2="182.95"/><line class="cls-1" x1="186.18" y1="186.62" x2="181.94" y2="184.17"/><line class="cls-1" x1="186.18" y1="185.4" x2="186.18" y2="186.62"/><line class="cls-1" x1="185.65" y1="185.09" x2="186.18" y2="185.4"/><line class="cls-1" x1="186.71" y1="173.65" x2="186.32" y2="173.51"/><line class="cls-1" x1="195.74" y1="178.86" x2="186.71" y2="173.65"/><line class="cls-1" x1="186.32" y1="173.51" x2="185.96" y2="173.58"/><line class="cls-1" x1="185.96" y1="173.58" x2="185.73" y2="173.86"/><line class="cls-1" x1="185.73" y1="173.86" x2="185.65" y2="174.26"/><line class="cls-1" x1="227.75" y1="242.8" x2="228.29" y2="243.1"/><line class="cls-1" x1="229.35" y1="243.1" x2="227.75" y2="244.02"/><line class="cls-1" x1="227.75" y1="244.02" x2="227.75" y2="242.8"/><line class="cls-1" x1="232" y1="246.47" x2="227.75" y2="244.02"/><line class="cls-1" x1="232" y1="245.25" x2="232" y2="246.47"/><line class="cls-1" x1="231.47" y1="244.94" x2="232" y2="245.25"/><line class="cls-1" x1="232" y1="240.96" x2="231.47" y2="241.27"/><line class="cls-1" x1="232" y1="241.57" x2="231.47" y2="241.27"/><line class="cls-1" x1="228.82" y1="238.51" x2="227.75" y2="239.12"/><line class="cls-1" x1="227.75" y1="239.12" x2="227.75" y2="237.9"/><line class="cls-1" x1="229.35" y1="238.82" x2="228.29" y2="239.43"/><line class="cls-1" x1="228.29" y1="239.43" x2="227.75" y2="239.12"/><line class="cls-1" x1="228.29" y1="243.1" x2="228.29" y2="239.43"/><line class="cls-1" x1="190.25" y1="216.24" x2="189.19" y2="216.86"/><line class="cls-1" x1="189.19" y1="216.86" x2="189.19" y2="215.63"/><line class="cls-1" x1="190.78" y1="216.55" x2="189.72" y2="217.16"/><line class="cls-1" x1="189.72" y1="217.16" x2="189.19" y2="216.86"/><line class="cls-1" x1="189.72" y1="220.84" x2="189.72" y2="217.16"/><line class="cls-1" x1="189.19" y1="220.53" x2="189.72" y2="220.84"/><line class="cls-1" x1="190.78" y1="220.84" x2="189.19" y2="221.76"/><line class="cls-1" x1="189.19" y1="221.76" x2="189.19" y2="220.53"/><line class="cls-1" x1="193.44" y1="224.21" x2="189.19" y2="221.76"/><line class="cls-1" x1="193.44" y1="222.98" x2="193.44" y2="224.21"/><line class="cls-1" x1="192.91" y1="222.68" x2="193.44" y2="222.98"/><line class="cls-1" x1="193.44" y1="218.69" x2="192.91" y2="219"/><line class="cls-1" x1="193.44" y1="219.31" x2="192.91" y2="219"/><line class="cls-1" x1="243.32" y1="246.88" x2="242.26" y2="247.5"/><line class="cls-1" x1="242.26" y1="247.5" x2="242.26" y2="246.27"/><line class="cls-1" x1="243.85" y1="247.19" x2="242.79" y2="247.8"/><line class="cls-1" x1="242.79" y1="247.8" x2="242.26" y2="247.5"/><line class="cls-1" x1="242.79" y1="251.48" x2="242.79" y2="247.8"/><line class="cls-1" x1="242.26" y1="251.17" x2="242.79" y2="251.48"/><line class="cls-1" x1="243.85" y1="251.48" x2="242.26" y2="252.4"/><line class="cls-1" x1="242.26" y1="252.4" x2="242.26" y2="251.17"/><line class="cls-1" x1="246.51" y1="254.85" x2="242.26" y2="252.4"/><line class="cls-1" x1="246.51" y1="253.63" x2="246.51" y2="254.85"/><line class="cls-1" x1="245.98" y1="253.32" x2="246.51" y2="253.63"/><line class="cls-1" x1="246.51" y1="249.33" x2="245.98" y2="249.64"/><line class="cls-1" x1="246.51" y1="249.95" x2="245.98" y2="249.64"/><line class="cls-1" x1="231.47" y1="206.64" x2="232" y2="206.95"/><line class="cls-1" x1="232" y1="202.66" x2="231.47" y2="202.96"/><line class="cls-1" x1="232" y1="203.27" x2="231.47" y2="202.96"/><line class="cls-1" x1="228.82" y1="200.21" x2="227.75" y2="200.82"/><line class="cls-1" x1="227.75" y1="200.82" x2="227.75" y2="199.59"/><line class="cls-1" x1="229.35" y1="200.51" x2="228.29" y2="201.13"/><line class="cls-1" x1="228.29" y1="201.13" x2="227.75" y2="200.82"/><line class="cls-1" x1="228.29" y1="204.81" x2="228.29" y2="201.13"/><line class="cls-1" x1="227.75" y1="204.5" x2="228.29" y2="204.81"/><line class="cls-1" x1="229.35" y1="204.81" x2="227.75" y2="205.72"/><line class="cls-1" x1="227.75" y1="205.72" x2="227.75" y2="204.5"/><line class="cls-1" x1="232" y1="208.18" x2="227.75" y2="205.72"/><line class="cls-1" x1="232" y1="206.95" x2="232" y2="208.18"/><line class="cls-1" x1="193.44" y1="184.68" x2="193.44" y2="185.91"/><line class="cls-1" x1="192.91" y1="184.38" x2="193.44" y2="184.68"/><line class="cls-1" x1="193.44" y1="180.39" x2="192.91" y2="180.7"/><line class="cls-1" x1="193.44" y1="181.01" x2="192.91" y2="180.7"/><line class="cls-1" x1="190.25" y1="177.94" x2="189.19" y2="178.55"/><line class="cls-1" x1="189.19" y1="178.55" x2="189.19" y2="177.33"/><line class="cls-1" x1="190.78" y1="178.25" x2="189.72" y2="178.86"/><line class="cls-1" x1="189.72" y1="178.86" x2="189.19" y2="178.55"/><line class="cls-1" x1="189.72" y1="182.54" x2="189.72" y2="178.86"/><line class="cls-1" x1="189.19" y1="182.23" x2="189.72" y2="182.54"/><line class="cls-1" x1="190.78" y1="182.54" x2="189.19" y2="183.46"/><line class="cls-1" x1="189.19" y1="183.46" x2="189.19" y2="182.23"/><line class="cls-1" x1="193.44" y1="185.91" x2="189.19" y2="183.46"/><line class="cls-1" x1="246.51" y1="215.32" x2="246.51" y2="216.55"/><line class="cls-1" x1="245.98" y1="215.02" x2="246.51" y2="215.32"/><line class="cls-1" x1="246.51" y1="211.03" x2="245.98" y2="211.34"/><line class="cls-1" x1="246.51" y1="211.65" x2="245.98" y2="211.34"/><line class="cls-1" x1="243.32" y1="208.58" x2="242.26" y2="209.2"/><line class="cls-1" x1="242.26" y1="209.2" x2="242.26" y2="207.97"/><line class="cls-1" x1="243.85" y1="208.89" x2="242.79" y2="209.5"/><line class="cls-1" x1="242.79" y1="209.5" x2="242.26" y2="209.2"/><line class="cls-1" x1="242.79" y1="213.18" x2="242.79" y2="209.5"/><line class="cls-1" x1="242.26" y1="212.87" x2="242.79" y2="213.18"/><line class="cls-1" x1="243.85" y1="213.18" x2="242.26" y2="214.1"/><line class="cls-1" x1="242.26" y1="214.1" x2="242.26" y2="212.87"/><line class="cls-1" x1="246.51" y1="216.55" x2="242.26" y2="214.1"/><line class="cls-1" x1="224.39" y1="196.63" x2="224.39" y2="206.85"/><line class="cls-1" x1="224.39" y1="206.85" x2="224.39" y2="207.46"/><line class="cls-1" x1="238.72" y1="204.91" x2="238.72" y2="215.12"/><line class="cls-1" x1="238.72" y1="215.12" x2="238.72" y2="215.73"/><line class="cls-1" x1="239.25" y1="246.37" x2="239.25" y2="246.99"/><line class="cls-1" x1="239.25" y1="246.99" x2="239.25" y2="247.6"/><line class="cls-1" x1="235.01" y1="243.92" x2="236.07" y2="244.53"/><line class="cls-1" x1="186.18" y1="215.73" x2="186.18" y2="216.35"/><line class="cls-1" x1="186.18" y1="216.35" x2="186.18" y2="216.96"/><line class="cls-1" x1="181.94" y1="213.28" x2="183" y2="213.89"/><line class="cls-1" x1="158.05" y1="196.43" x2="158.05" y2="197.04"/><line class="cls-1" x1="158.05" y1="197.04" x2="158.05" y2="197.65"/><line class="cls-1" x1="157.52" y1="159.87" x2="157.52" y2="168.24"/><line class="cls-1" x1="157.52" y1="168.24" x2="157.52" y2="168.85"/><line class="cls-1" x1="170.17" y1="167.17" x2="170.17" y2="187.9"/><line class="cls-1" x1="170.17" y1="187.9" x2="170.17" y2="188.51"/><line class="cls-1" x1="185.65" y1="174.26" x2="185.65" y2="184.48"/><line class="cls-1" x1="185.65" y1="184.48" x2="185.65" y2="185.09"/><line class="cls-1" x1="228.29" y1="243.1" x2="229.35" y2="242.49"/><line class="cls-1" x1="229.35" y1="242.49" x2="229.88" y2="242.19"/><line class="cls-1" x1="231.47" y1="241.27" x2="231.47" y2="244.33"/><line class="cls-1" x1="231.47" y1="244.33" x2="231.47" y2="244.94"/><line class="cls-1" x1="232" y1="240.35" x2="232" y2="240.96"/><line class="cls-1" x1="232" y1="240.96" x2="232" y2="241.57"/><line class="cls-1" x1="227.75" y1="237.9" x2="228.82" y2="238.51"/><line class="cls-1" x1="193.44" y1="218.08" x2="193.44" y2="218.69"/><line class="cls-1" x1="193.44" y1="218.69" x2="193.44" y2="219.31"/><line class="cls-1" x1="191.31" y1="216.86" x2="193.44" y2="218.08"/><line class="cls-1" x1="191.31" y1="219.92" x2="190.78" y2="220.23"/><line class="cls-1" x1="190.78" y1="220.23" x2="189.72" y2="220.84"/><line class="cls-1" x1="192.91" y1="219" x2="192.91" y2="222.06"/><line class="cls-1" x1="192.91" y1="222.06" x2="192.91" y2="222.68"/><line class="cls-1" x1="246.51" y1="248.72" x2="246.51" y2="249.33"/><line class="cls-1" x1="246.51" y1="249.33" x2="246.51" y2="249.95"/><line class="cls-1" x1="244.38" y1="247.5" x2="246.51" y2="248.72"/><line class="cls-1" x1="244.38" y1="250.56" x2="243.85" y2="250.87"/><line class="cls-1" x1="243.85" y1="250.87" x2="242.79" y2="251.48"/><line class="cls-1" x1="245.98" y1="249.64" x2="245.98" y2="252.71"/><line class="cls-1" x1="245.98" y1="252.71" x2="245.98" y2="253.32"/><line class="cls-1" x1="231.47" y1="202.96" x2="231.47" y2="206.03"/><line class="cls-1" x1="231.47" y1="206.03" x2="231.47" y2="206.64"/><line class="cls-1" x1="232" y1="202.05" x2="232" y2="202.66"/><line class="cls-1" x1="232" y1="202.66" x2="232" y2="203.27"/><line class="cls-1" x1="229.88" y1="200.82" x2="232" y2="202.05"/><line class="cls-1" x1="229.88" y1="203.89" x2="229.35" y2="204.19"/><line class="cls-1" x1="229.35" y1="204.19" x2="228.29" y2="204.81"/><line class="cls-1" x1="192.91" y1="180.7" x2="192.91" y2="183.76"/><line class="cls-1" x1="192.91" y1="183.76" x2="192.91" y2="184.38"/><line class="cls-1" x1="193.44" y1="179.78" x2="193.44" y2="180.39"/><line class="cls-1" x1="193.44" y1="180.39" x2="193.44" y2="181.01"/><line class="cls-1" x1="191.31" y1="178.55" x2="193.44" y2="179.78"/><line class="cls-1" x1="191.31" y1="181.62" x2="190.78" y2="181.93"/><line class="cls-1" x1="190.78" y1="181.93" x2="189.72" y2="182.54"/><line class="cls-1" x1="245.98" y1="211.34" x2="245.98" y2="214.4"/><line class="cls-1" x1="245.98" y1="214.4" x2="245.98" y2="215.02"/><line class="cls-1" x1="246.51" y1="210.42" x2="246.51" y2="211.03"/><line class="cls-1" x1="246.51" y1="211.03" x2="246.51" y2="211.65"/><line class="cls-1" x1="244.38" y1="209.2" x2="246.51" y2="210.42"/><line class="cls-1" x1="244.38" y1="212.26" x2="243.85" y2="212.57"/><line class="cls-1" x1="243.85" y1="212.57" x2="242.79" y2="213.18"/><line class="cls-1" x1="236.07" y1="244.53" x2="236.6" y2="244.84"/><line class="cls-1" x1="183" y1="213.89" x2="183.53" y2="214.2"/><line class="cls-1" x1="228.82" y1="238.51" x2="229.35" y2="238.82"/><line class="cls-1" x1="190.78" y1="216.55" x2="191.31" y2="216.86"/><line class="cls-1" x1="243.85" y1="247.19" x2="244.38" y2="247.5"/><line class="cls-1" x1="229.35" y1="200.51" x2="229.88" y2="200.82"/><line class="cls-1" x1="190.78" y1="178.25" x2="191.31" y2="178.55"/><line class="cls-1" x1="243.85" y1="208.89" x2="244.38" y2="209.2"/><line class="cls-1" x1="236.6" y1="244.84" x2="237.13" y2="245.15"/><line class="cls-1" x1="237.13" y1="245.15" x2="239.25" y2="246.37"/><line class="cls-1" x1="183.53" y1="214.2" x2="184.06" y2="214.51"/><line class="cls-1" x1="184.06" y1="214.51" x2="186.18" y2="215.73"/><line class="cls-1" x1="229.35" y1="238.82" x2="229.88" y2="239.12"/><line class="cls-1" x1="229.88" y1="239.12" x2="232" y2="240.35"/><line class="cls-1" x1="189.19" y1="215.63" x2="190.25" y2="216.24"/><line class="cls-1" x1="190.25" y1="216.24" x2="190.78" y2="216.55"/><line class="cls-1" x1="242.26" y1="246.27" x2="243.32" y2="246.88"/><line class="cls-1" x1="243.32" y1="246.88" x2="243.85" y2="247.19"/><line class="cls-1" x1="227.75" y1="199.59" x2="228.82" y2="200.21"/><line class="cls-1" x1="228.82" y1="200.21" x2="229.35" y2="200.51"/><line class="cls-1" x1="189.19" y1="177.33" x2="190.25" y2="177.94"/><line class="cls-1" x1="190.25" y1="177.94" x2="190.78" y2="178.25"/><line class="cls-1" x1="242.26" y1="207.97" x2="243.32" y2="208.58"/><line class="cls-1" x1="243.32" y1="208.58" x2="243.85" y2="208.89"/><line class="cls-1" x1="183.53" y1="183.25" x2="183.53" y2="182.64"/><line class="cls-1" x1="168.05" y1="186.68" x2="168.05" y2="186.06"/><line class="cls-1" x1="265.26" y1="266.09" x2="265.26" y2="230.44"/><line class="cls-1" x1="265.26" y1="230.44" x2="250.93" y2="222.17"/><line class="cls-1" x1="250.93" y1="222.17" x2="250.93" y2="221.55"/><line class="cls-1" x1="236.6" y1="213.89" x2="236.6" y2="213.28"/><line class="cls-1" x1="224.39" y1="206.85" x2="197.86" y2="191.53"/><line class="cls-1" x1="197.86" y1="191.53" x2="197.86" y2="190.91"/><line class="cls-1" x1="198.39" y1="190.61" x2="197.86" y2="190.91"/><line class="cls-1" x1="196.8" y1="191.53" x2="197.86" y2="190.91"/><line class="cls-1" x1="196.27" y1="192.45" x2="197.86" y2="191.53"/><line class="cls-1" x1="237.13" y1="212.98" x2="236.6" y2="213.28"/><line class="cls-1" x1="235.54" y1="213.89" x2="236.6" y2="213.28"/><line class="cls-1" x1="226.3" y1="195.03" x2="224.7" y2="195.95"/><line class="cls-1" x1="235.01" y1="214.81" x2="236.6" y2="213.89"/><line class="cls-1" x1="251.46" y1="221.25" x2="250.93" y2="221.55"/><line class="cls-1" x1="249.87" y1="222.17" x2="250.93" y2="221.55"/><line class="cls-1" x1="240.63" y1="203.3" x2="239.03" y2="204.22"/><line class="cls-1" x1="249.34" y1="223.09" x2="250.93" y2="222.17"/><line class="cls-1" x1="238.72" y1="247.29" x2="239.25" y2="246.99"/><line class="cls-1" x1="235.01" y1="245.15" x2="236.07" y2="244.53"/><line class="cls-1" x1="235.23" y1="250.23" x2="236.82" y2="249.31"/><line class="cls-1" x1="186.18" y1="216.35" x2="185.65" y2="216.65"/><line class="cls-1" x1="236.6" y1="244.84" x2="235.54" y2="245.45"/><line class="cls-1" x1="181.94" y1="214.51" x2="183" y2="213.89"/><line class="cls-1" x1="182.16" y1="219.59" x2="183.75" y2="218.67"/><line class="cls-1" x1="158.05" y1="197.04" x2="157.52" y2="197.35"/><line class="cls-1" x1="183.53" y1="214.2" x2="182.47" y2="214.81"/><line class="cls-1" x1="157.83" y1="159.18" x2="159.43" y2="158.26"/><line class="cls-1" x1="168.58" y1="185.76" x2="168.05" y2="186.06"/><line class="cls-1" x1="166.99" y1="186.68" x2="168.05" y2="186.06"/><line class="cls-1" x1="166.46" y1="187.59" x2="168.05" y2="186.68"/><line class="cls-1" x1="170.48" y1="166.48" x2="172.08" y2="165.56"/><line class="cls-1" x1="184.06" y1="182.34" x2="183.53" y2="182.64"/><line class="cls-1" x1="182.47" y1="183.25" x2="183.53" y2="182.64"/><line class="cls-1" x1="181.94" y1="184.17" x2="183.53" y2="183.25"/><line class="cls-1" x1="187.55" y1="172.66" x2="185.96" y2="173.58"/><polygon class="cls-2" points="237.2 245.64 237.2 249.12 237.13 249.53 236.89 249.8 235.3 250.72 234.94 250.79 234.55 250.65 186.78 223.07 186.39 222.76 186.03 222.28 185.8 221.73 185.72 221.23 185.72 217.15 186.25 216.84 186.25 216.23 184.13 215 184.13 218.47 184.06 218.88 183.82 219.16 182.23 220.08 181.87 220.15 181.48 220.01 158.66 206.83 158.27 206.52 157.91 206.04 157.67 205.49 157.6 204.99 157.6 197.84 158.13 197.54 158.13 196.92 156 195.7 156 169.65 157.6 168.73 157.6 160.36 157.67 159.95 157.91 159.67 159.5 158.75 159.86 158.69 160.25 158.83 167.59 163.07 167.98 163.38 168.34 163.86 168.58 164.41 168.65 164.9 168.65 186.25 168.12 186.56 168.12 187.17 170.25 188.4 170.25 167.66 170.32 167.25 170.56 166.98 172.15 166.06 172.51 165.99 172.9 166.13 183.07 172 183.46 172.31 183.82 172.79 184.06 173.35 184.13 173.84 184.13 182.83 183.6 183.13 183.6 183.75 185.72 184.97 185.72 174.76 185.8 174.35 186.03 174.07 187.63 173.15 187.99 173.09 188.38 173.23 197.4 178.44 197.79 178.75 198.15 179.23 198.39 179.78 198.46 180.28 198.46 191.1 197.93 191.41 197.93 192.02 224.47 207.34 224.47 197.13 224.54 196.72 224.78 196.44 226.37 195.52 226.73 195.46 227.12 195.6 236.14 200.81 236.53 201.12 236.89 201.6 237.13 202.15 237.2 202.64 237.2 213.47 236.67 213.78 236.67 214.39 238.79 215.61 238.79 205.4 238.87 204.99 239.11 204.72 240.7 203.79 241.06 203.73 241.45 203.87 250.47 209.08 250.86 209.39 251.22 209.87 251.46 210.42 251.53 210.92 251.53 221.74 251 222.05 251 222.66 265.33 230.94 265.33 266.58 263.74 267.5 239.86 253.71 239.47 253.4 239.11 252.92 238.87 252.37 238.79 251.87 238.79 247.79 239.32 247.48 239.32 246.87 237.2 245.64"/></svg>