<svg id="Layer_1" data-name="Layer 1" xmlns="http://www.w3.org/2000/svg" viewBox="0 0 425.2 425.2"><defs><style>.cls-1,.cls-2{fill:none;stroke-linecap:round;stroke-linejoin:round;}.cls-1{stroke:#000;stroke-width:0.25px;}.cls-2{stroke:#1d1d1b;}</style></defs><line class="cls-1" x1="160.43" y1="164.99" x2="160.49" y2="164.92"/><line class="cls-1" x1="160.58" y1="164.81" x2="160.94" y2="164.74"/><line class="cls-1" x1="160.94" y1="164.74" x2="161.34" y2="164.88"/><line class="cls-1" x1="161.34" y1="164.88" x2="170.36" y2="170.09"/><line class="cls-1" x1="170.36" y1="170.09" x2="170.75" y2="170.4"/><line class="cls-1" x1="170.75" y1="170.4" x2="171.11" y2="170.88"/><line class="cls-1" x1="171.11" y1="170.88" x2="171.34" y2="171.43"/><line class="cls-1" x1="171.34" y1="171.43" x2="171.42" y2="171.93"/><line class="cls-1" x1="170.89" y1="183.06" x2="170.89" y2="183.67"/><line class="cls-1" x1="199.17" y1="187.36" x2="199.23" y2="187.29"/><line class="cls-1" x1="199.33" y1="187.17" x2="199.69" y2="187.11"/><line class="cls-1" x1="199.69" y1="187.11" x2="200.08" y2="187.25"/><line class="cls-1" x1="200.08" y1="187.25" x2="209.1" y2="192.46"/><line class="cls-1" x1="209.1" y1="192.46" x2="209.49" y2="192.77"/><line class="cls-1" x1="209.49" y1="192.77" x2="209.85" y2="193.25"/><line class="cls-1" x1="209.85" y1="193.25" x2="210.09" y2="193.8"/><line class="cls-1" x1="210.09" y1="193.8" x2="210.16" y2="194.3"/><line class="cls-1" x1="210.16" y1="194.3" x2="210.16" y2="216.56"/><line class="cls-1" x1="209.63" y1="216.87" x2="209.63" y2="217.48"/><line class="cls-1" x1="213.34" y1="196.13" x2="213.39" y2="195.9"/><line class="cls-1" x1="213.42" y1="195.73" x2="213.56" y2="195.56"/><line class="cls-1" x1="213.66" y1="195.45" x2="214.02" y2="195.38"/><line class="cls-1" x1="214.02" y1="195.38" x2="214.41" y2="195.52"/><line class="cls-1" x1="214.41" y1="195.52" x2="223.43" y2="200.73"/><line class="cls-1" x1="223.43" y1="200.73" x2="223.82" y2="201.04"/><line class="cls-1" x1="223.82" y1="201.04" x2="224.18" y2="201.52"/><line class="cls-1" x1="224.18" y1="201.52" x2="224.41" y2="202.07"/><line class="cls-1" x1="224.41" y1="202.07" x2="224.49" y2="202.57"/><line class="cls-1" x1="224.49" y1="202.57" x2="224.49" y2="213.4"/><line class="cls-1" x1="224.21" y1="213.24" x2="223.98" y2="213.1"/><line class="cls-1" x1="223.96" y1="213.7" x2="223.96" y2="214.31"/><line class="cls-1" x1="252.09" y1="218.5" x2="252.13" y2="218.27"/><line class="cls-1" x1="252.16" y1="218.09" x2="252.3" y2="217.93"/><line class="cls-1" x1="252.4" y1="217.81" x2="252.76" y2="217.75"/><line class="cls-1" x1="252.76" y1="217.75" x2="253.15" y2="217.89"/><line class="cls-1" x1="253.15" y1="217.89" x2="262.17" y2="223.1"/><line class="cls-1" x1="262.17" y1="223.1" x2="262.56" y2="223.41"/><line class="cls-1" x1="262.56" y1="223.41" x2="262.92" y2="223.89"/><line class="cls-1" x1="262.92" y1="223.89" x2="263.16" y2="224.44"/><line class="cls-1" x1="263.16" y1="224.44" x2="263.23" y2="224.94"/><line class="cls-1" x1="263.23" y1="224.94" x2="263.23" y2="247.2"/><line class="cls-1" x1="262.96" y1="247.04" x2="262.72" y2="246.91"/><line class="cls-1" x1="262.7" y1="247.51" x2="262.7" y2="248.12"/><line class="cls-1" x1="266.46" y1="226.54" x2="266.49" y2="226.37"/><line class="cls-1" x1="266.49" y1="226.37" x2="266.57" y2="226.27"/><line class="cls-1" x1="266.63" y1="226.2" x2="266.73" y2="226.09"/><line class="cls-1" x1="266.73" y1="226.09" x2="267.09" y2="226.02"/><line class="cls-1" x1="267.09" y1="226.02" x2="267.48" y2="226.16"/><line class="cls-1" x1="267.48" y1="226.16" x2="276.5" y2="231.37"/><line class="cls-1" x1="276.5" y1="231.37" x2="276.89" y2="231.68"/><line class="cls-1" x1="276.89" y1="231.68" x2="277.25" y2="232.16"/><line class="cls-1" x1="277.25" y1="232.16" x2="277.49" y2="232.71"/><line class="cls-1" x1="277.49" y1="232.71" x2="277.56" y2="233.21"/><line class="cls-1" x1="277.56" y1="233.21" x2="277.56" y2="244.04"/><line class="cls-1" x1="277.03" y1="244.34" x2="277.03" y2="244.95"/><line class="cls-1" x1="156.56" y1="186.23" x2="156.56" y2="186.84"/><line class="cls-1" x1="255.98" y1="223.61" x2="255.98" y2="226.67"/><line class="cls-1" x1="255.45" y1="226.98" x2="255.45" y2="227.59"/><line class="cls-1" x1="255.45" y1="227.59" x2="257.57" y2="228.82"/><line class="cls-1" x1="217.41" y1="201.34" x2="217.41" y2="204.41"/><line class="cls-1" x1="216.88" y1="204.71" x2="216.88" y2="205.33"/><line class="cls-1" x1="216.88" y1="205.33" x2="219.01" y2="206.55"/><line class="cls-1" x1="164.34" y1="170.7" x2="164.34" y2="173.77"/><line class="cls-1" x1="163.81" y1="174.07" x2="163.81" y2="174.69"/><line class="cls-1" x1="163.81" y1="174.69" x2="165.93" y2="175.91"/><line class="cls-1" x1="202.91" y1="192.97" x2="202.91" y2="196.03"/><line class="cls-1" x1="202.38" y1="196.34" x2="202.38" y2="196.95"/><line class="cls-1" x1="202.38" y1="196.95" x2="204.5" y2="198.18"/><line class="cls-1" x1="269.95" y1="235.35" x2="269.95" y2="235.97"/><line class="cls-1" x1="269.95" y1="235.97" x2="272.08" y2="237.19"/><line class="cls-1" x1="270.48" y1="231.98" x2="270.48" y2="235.05"/><line class="cls-1" x1="158.99" y1="165.73" x2="159.35" y2="165.66"/><line class="cls-1" x1="169.83" y1="172.85" x2="171.42" y2="171.93"/><line class="cls-1" x1="168.76" y1="171.01" x2="169.15" y2="171.32"/><line class="cls-1" x1="169.75" y1="172.35" x2="169.83" y2="172.85"/><line class="cls-1" x1="158.68" y1="166.41" x2="158.76" y2="166"/><line class="cls-1" x1="158.76" y1="166" x2="158.99" y2="165.73"/><line class="cls-1" x1="159.35" y1="165.66" x2="159.74" y2="165.8"/><line class="cls-1" x1="159.74" y1="165.8" x2="168.76" y2="171.01"/><line class="cls-1" x1="169.15" y1="171.32" x2="169.51" y2="171.8"/><line class="cls-1" x1="169.51" y1="171.8" x2="169.75" y2="172.35"/><line class="cls-1" x1="159.21" y1="188.99" x2="158.68" y2="188.68"/><line class="cls-1" x1="159.21" y1="190.21" x2="159.21" y2="188.99"/><line class="cls-1" x1="154.97" y1="187.76" x2="159.21" y2="190.21"/><line class="cls-1" x1="154.97" y1="186.53" x2="154.97" y2="187.76"/><line class="cls-1" x1="155.5" y1="186.84" x2="154.97" y2="186.53"/><line class="cls-1" x1="157.09" y1="175.71" x2="155.5" y2="176.63"/><line class="cls-1" x1="155.5" y1="176.63" x2="155.5" y2="186.84"/><line class="cls-1" x1="132.15" y1="161.3" x2="130.55" y2="162.22"/><line class="cls-1" x1="130.55" y1="162.22" x2="155.5" y2="176.63"/><line class="cls-1" x1="131.09" y1="172.74" x2="130.55" y2="172.44"/><line class="cls-1" x1="131.09" y1="173.97" x2="131.09" y2="172.74"/><line class="cls-1" x1="128.96" y1="172.74" x2="131.09" y2="173.97"/><line class="cls-1" x1="128.96" y1="200.12" x2="128.96" y2="172.74"/><line class="cls-1" x1="141.61" y1="205.58" x2="140.02" y2="206.5"/><line class="cls-1" x1="140.02" y1="206.5" x2="128.96" y2="200.12"/><line class="cls-1" x1="140.02" y1="185.15" x2="140.02" y2="206.5"/><line class="cls-1" x1="139.49" y1="184.85" x2="140.02" y2="185.15"/><line class="cls-1" x1="139.49" y1="183.62" x2="139.49" y2="184.85"/><line class="cls-1" x1="143.2" y1="186.99" x2="143.73" y2="187.3"/><line class="cls-1" x1="143.2" y1="208.34" x2="143.2" y2="186.99"/><line class="cls-1" x1="291.36" y1="292.04" x2="289.77" y2="292.96"/><line class="cls-1" x1="289.77" y1="292.96" x2="143.2" y2="208.34"/><line class="cls-1" x1="291.36" y1="253.23" x2="289.77" y2="254.15"/><line class="cls-1" x1="289.77" y1="254.15" x2="289.77" y2="292.96"/><line class="cls-1" x1="275.44" y1="245.87" x2="289.77" y2="254.15"/><line class="cls-1" x1="275.44" y1="244.65" x2="275.44" y2="245.87"/><line class="cls-1" x1="275.97" y1="244.95" x2="275.44" y2="244.65"/><line class="cls-1" x1="264.82" y1="227.69" x2="264.9" y2="227.29"/><line class="cls-1" x1="265.88" y1="227.08" x2="274.91" y2="232.29"/><line class="cls-1" x1="275.9" y1="233.63" x2="275.97" y2="234.13"/><line class="cls-1" x1="275.97" y1="234.13" x2="275.97" y2="244.95"/><line class="cls-1" x1="264.9" y1="227.29" x2="265.13" y2="227.01"/><line class="cls-1" x1="265.49" y1="226.94" x2="265.88" y2="227.08"/><line class="cls-1" x1="265.13" y1="227.01" x2="265.49" y2="226.94"/><line class="cls-1" x1="274.91" y1="232.29" x2="275.3" y2="232.6"/><line class="cls-1" x1="275.66" y1="233.08" x2="275.9" y2="233.63"/><line class="cls-1" x1="275.3" y1="232.6" x2="275.66" y2="233.08"/><line class="cls-1" x1="265.35" y1="250.27" x2="264.82" y2="249.96"/><line class="cls-1" x1="265.35" y1="251.49" x2="265.35" y2="250.27"/><line class="cls-1" x1="261.11" y1="249.04" x2="265.35" y2="251.49"/><line class="cls-1" x1="261.11" y1="247.81" x2="261.11" y2="249.04"/><line class="cls-1" x1="261.64" y1="248.12" x2="261.11" y2="247.81"/><line class="cls-1" x1="251.17" y1="218.67" x2="251.56" y2="218.81"/><line class="cls-1" x1="261.33" y1="224.81" x2="261.56" y2="225.36"/><line class="cls-1" x1="250.57" y1="219.01" x2="250.81" y2="218.73"/><line class="cls-1" x1="250.81" y1="218.73" x2="251.17" y2="218.67"/><line class="cls-1" x1="250.5" y1="219.42" x2="250.57" y2="219.01"/><line class="cls-1" x1="260.58" y1="224.02" x2="260.97" y2="224.33"/><line class="cls-1" x1="260.97" y1="224.33" x2="261.33" y2="224.81"/><line class="cls-1" x1="251.56" y1="218.81" x2="260.58" y2="224.02"/><line class="cls-1" x1="261.64" y1="225.85" x2="261.64" y2="248.12"/><line class="cls-1" x1="261.56" y1="225.36" x2="261.64" y2="225.85"/><line class="cls-1" x1="251.03" y1="230.55" x2="250.5" y2="230.25"/><line class="cls-1" x1="251.03" y1="231.78" x2="251.03" y2="230.55"/><line class="cls-1" x1="222.37" y1="215.23" x2="251.03" y2="231.78"/><line class="cls-1" x1="222.37" y1="214.01" x2="222.37" y2="215.23"/><line class="cls-1" x1="222.9" y1="214.31" x2="222.37" y2="214.01"/><line class="cls-1" x1="211.75" y1="197.05" x2="211.83" y2="196.65"/><line class="cls-1" x1="212.81" y1="196.44" x2="221.84" y2="201.65"/><line class="cls-1" x1="222.82" y1="202.99" x2="222.9" y2="203.49"/><line class="cls-1" x1="222.9" y1="203.49" x2="222.9" y2="214.31"/><line class="cls-1" x1="211.83" y1="196.65" x2="212.06" y2="196.37"/><line class="cls-1" x1="212.42" y1="196.3" x2="212.81" y2="196.44"/><line class="cls-1" x1="212.06" y1="196.37" x2="212.42" y2="196.3"/><line class="cls-1" x1="221.84" y1="201.65" x2="222.23" y2="201.96"/><line class="cls-1" x1="222.59" y1="202.44" x2="222.82" y2="202.99"/><line class="cls-1" x1="222.23" y1="201.96" x2="222.59" y2="202.44"/><line class="cls-1" x1="212.28" y1="219.63" x2="211.75" y2="219.32"/><line class="cls-1" x1="212.28" y1="220.85" x2="212.28" y2="219.63"/><line class="cls-1" x1="208.04" y1="218.4" x2="212.28" y2="220.85"/><line class="cls-1" x1="208.04" y1="217.17" x2="208.04" y2="218.4"/><line class="cls-1" x1="208.57" y1="217.48" x2="208.04" y2="217.17"/><line class="cls-1" x1="197.42" y1="188.78" x2="197.5" y2="188.37"/><line class="cls-1" x1="198.48" y1="188.17" x2="207.51" y2="193.38"/><line class="cls-1" x1="208.49" y1="194.72" x2="208.57" y2="195.21"/><line class="cls-1" x1="208.57" y1="195.21" x2="208.57" y2="217.48"/><line class="cls-1" x1="197.5" y1="188.37" x2="197.73" y2="188.09"/><line class="cls-1" x1="198.09" y1="188.03" x2="198.48" y2="188.17"/><line class="cls-1" x1="197.73" y1="188.09" x2="198.09" y2="188.03"/><line class="cls-1" x1="207.51" y1="193.38" x2="207.9" y2="193.69"/><line class="cls-1" x1="208.26" y1="194.17" x2="208.49" y2="194.72"/><line class="cls-1" x1="207.9" y1="193.69" x2="208.26" y2="194.17"/><line class="cls-1" x1="197.95" y1="199.91" x2="197.42" y2="199.61"/><line class="cls-1" x1="197.95" y1="201.14" x2="197.95" y2="199.91"/><line class="cls-1" x1="169.3" y1="184.59" x2="197.95" y2="201.14"/><line class="cls-1" x1="169.3" y1="183.37" x2="169.3" y2="184.59"/><line class="cls-1" x1="169.83" y1="183.67" x2="169.3" y2="183.37"/><line class="cls-1" x1="268.89" y1="232.29" x2="269.95" y2="231.68"/><line class="cls-1" x1="269.42" y1="231.37" x2="268.36" y2="231.98"/><line class="cls-1" x1="268.36" y1="231.98" x2="268.89" y2="232.29"/><line class="cls-1" x1="268.36" y1="230.76" x2="268.36" y2="231.98"/><line class="cls-1" x1="272.61" y1="233.82" x2="272.08" y2="234.13"/><line class="cls-1" x1="272.08" y1="234.13" x2="272.61" y2="234.43"/><line class="cls-1" x1="272.61" y1="238.11" x2="272.08" y2="237.81"/><line class="cls-1" x1="272.61" y1="239.34" x2="272.61" y2="238.11"/><line class="cls-1" x1="269.95" y1="235.97" x2="268.36" y2="236.89"/><line class="cls-1" x1="268.36" y1="236.89" x2="272.61" y2="239.34"/><line class="cls-1" x1="268.36" y1="235.66" x2="268.36" y2="236.89"/><line class="cls-1" x1="268.89" y1="235.97" x2="268.36" y2="235.66"/><line class="cls-1" x1="268.89" y1="232.29" x2="268.89" y2="235.97"/><line class="cls-1" x1="200.79" y1="192.97" x2="201.85" y2="192.36"/><line class="cls-1" x1="200.79" y1="191.74" x2="200.79" y2="192.97"/><line class="cls-1" x1="205.03" y1="194.81" x2="204.5" y2="195.11"/><line class="cls-1" x1="204.5" y1="195.11" x2="205.03" y2="195.42"/><line class="cls-1" x1="205.03" y1="199.1" x2="204.5" y2="198.79"/><line class="cls-1" x1="205.03" y1="200.32" x2="205.03" y2="199.1"/><line class="cls-1" x1="202.38" y1="196.95" x2="200.79" y2="197.87"/><line class="cls-1" x1="200.79" y1="197.87" x2="205.03" y2="200.32"/><line class="cls-1" x1="200.79" y1="196.64" x2="200.79" y2="197.87"/><line class="cls-1" x1="201.32" y1="196.95" x2="200.79" y2="196.64"/><line class="cls-1" x1="202.38" y1="192.66" x2="201.32" y2="193.27"/><line class="cls-1" x1="201.32" y1="193.27" x2="201.32" y2="196.95"/><line class="cls-1" x1="200.79" y1="192.97" x2="201.32" y2="193.27"/><line class="cls-1" x1="166.46" y1="172.54" x2="165.93" y2="172.85"/><line class="cls-1" x1="165.93" y1="172.85" x2="166.46" y2="173.15"/><line class="cls-1" x1="166.46" y1="176.83" x2="165.93" y2="176.52"/><line class="cls-1" x1="166.46" y1="178.06" x2="166.46" y2="176.83"/><line class="cls-1" x1="163.81" y1="174.69" x2="162.22" y2="175.6"/><line class="cls-1" x1="162.22" y1="175.6" x2="166.46" y2="178.06"/><line class="cls-1" x1="162.22" y1="174.38" x2="162.22" y2="175.6"/><line class="cls-1" x1="162.75" y1="174.69" x2="162.22" y2="174.38"/><line class="cls-1" x1="163.81" y1="170.4" x2="162.75" y2="171.01"/><line class="cls-1" x1="162.75" y1="171.01" x2="162.75" y2="174.69"/><line class="cls-1" x1="163.28" y1="170.09" x2="162.22" y2="170.7"/><line class="cls-1" x1="162.22" y1="170.7" x2="162.75" y2="171.01"/><line class="cls-1" x1="162.22" y1="169.48" x2="162.22" y2="170.7"/><line class="cls-1" x1="215.29" y1="206.24" x2="216.88" y2="205.33"/><line class="cls-1" x1="215.29" y1="205.02" x2="215.29" y2="206.24"/><line class="cls-1" x1="215.82" y1="205.33" x2="215.29" y2="205.02"/><line class="cls-1" x1="216.88" y1="201.04" x2="215.82" y2="201.65"/><line class="cls-1" x1="215.82" y1="201.65" x2="215.82" y2="205.33"/><line class="cls-1" x1="216.35" y1="200.73" x2="215.29" y2="201.34"/><line class="cls-1" x1="215.29" y1="201.34" x2="215.82" y2="201.65"/><line class="cls-1" x1="215.29" y1="200.12" x2="215.29" y2="201.34"/><line class="cls-1" x1="219.54" y1="203.18" x2="219.01" y2="203.49"/><line class="cls-1" x1="219.01" y1="203.49" x2="219.54" y2="203.79"/><line class="cls-1" x1="219.54" y1="207.47" x2="219.01" y2="207.16"/><line class="cls-1" x1="219.54" y1="208.7" x2="219.54" y2="207.47"/><line class="cls-1" x1="215.29" y1="206.24" x2="219.54" y2="208.7"/><line class="cls-1" x1="257.57" y1="225.75" x2="258.1" y2="225.45"/><line class="cls-1" x1="258.1" y1="229.74" x2="257.57" y2="229.43"/><line class="cls-1" x1="258.1" y1="230.96" x2="258.1" y2="229.74"/><line class="cls-1" x1="255.45" y1="227.59" x2="253.86" y2="228.51"/><line class="cls-1" x1="253.86" y1="228.51" x2="258.1" y2="230.96"/><line class="cls-1" x1="253.86" y1="227.28" x2="253.86" y2="228.51"/><line class="cls-1" x1="254.39" y1="227.59" x2="253.86" y2="227.28"/><line class="cls-1" x1="255.45" y1="223.3" x2="254.39" y2="223.91"/><line class="cls-1" x1="254.39" y1="223.91" x2="254.39" y2="227.59"/><line class="cls-1" x1="254.92" y1="223" x2="253.86" y2="223.61"/><line class="cls-1" x1="253.86" y1="223.61" x2="254.39" y2="223.91"/><line class="cls-1" x1="253.86" y1="222.38" x2="253.86" y2="223.61"/><line class="cls-1" x1="257.57" y1="225.75" x2="258.1" y2="226.06"/><line class="cls-1" x1="158.68" y1="188.68" x2="158.68" y2="188.07"/><line class="cls-1" x1="158.68" y1="188.07" x2="158.68" y2="166.41"/><line class="cls-1" x1="130.55" y1="172.44" x2="130.55" y2="171.83"/><line class="cls-1" x1="130.55" y1="171.83" x2="130.55" y2="162.22"/><line class="cls-1" x1="143.73" y1="186.07" x2="141.61" y2="184.85"/><line class="cls-1" x1="143.73" y1="187.3" x2="143.73" y2="186.68"/><line class="cls-1" x1="143.73" y1="186.68" x2="143.73" y2="186.07"/><line class="cls-1" x1="264.82" y1="249.96" x2="264.82" y2="249.35"/><line class="cls-1" x1="264.82" y1="249.35" x2="264.82" y2="227.69"/><line class="cls-1" x1="250.5" y1="230.25" x2="250.5" y2="229.63"/><line class="cls-1" x1="250.5" y1="229.63" x2="250.5" y2="219.42"/><line class="cls-1" x1="211.75" y1="219.32" x2="211.75" y2="218.71"/><line class="cls-1" x1="211.75" y1="218.71" x2="211.75" y2="197.05"/><line class="cls-1" x1="197.42" y1="199.61" x2="197.42" y2="198.99"/><line class="cls-1" x1="197.42" y1="198.99" x2="197.42" y2="188.78"/><line class="cls-1" x1="272.61" y1="233.21" x2="270.48" y2="231.98"/><line class="cls-1" x1="272.61" y1="234.43" x2="272.61" y2="233.82"/><line class="cls-1" x1="272.61" y1="233.82" x2="272.61" y2="233.21"/><line class="cls-1" x1="272.08" y1="237.81" x2="272.08" y2="237.19"/><line class="cls-1" x1="272.08" y1="237.19" x2="272.08" y2="234.13"/><line class="cls-1" x1="270.48" y1="235.05" x2="269.95" y2="235.35"/><line class="cls-1" x1="269.95" y1="235.35" x2="268.89" y2="235.97"/><line class="cls-1" x1="205.03" y1="194.19" x2="202.91" y2="192.97"/><line class="cls-1" x1="205.03" y1="195.42" x2="205.03" y2="194.81"/><line class="cls-1" x1="205.03" y1="194.81" x2="205.03" y2="194.19"/><line class="cls-1" x1="204.5" y1="198.79" x2="204.5" y2="198.18"/><line class="cls-1" x1="204.5" y1="198.18" x2="204.5" y2="195.11"/><line class="cls-1" x1="202.91" y1="196.03" x2="202.38" y2="196.34"/><line class="cls-1" x1="202.38" y1="196.34" x2="201.32" y2="196.95"/><line class="cls-1" x1="166.46" y1="171.93" x2="164.34" y2="170.7"/><line class="cls-1" x1="166.46" y1="173.15" x2="166.46" y2="172.54"/><line class="cls-1" x1="166.46" y1="172.54" x2="166.46" y2="171.93"/><line class="cls-1" x1="165.93" y1="176.52" x2="165.93" y2="175.91"/><line class="cls-1" x1="165.93" y1="175.91" x2="165.93" y2="172.85"/><line class="cls-1" x1="164.34" y1="173.77" x2="163.81" y2="174.07"/><line class="cls-1" x1="163.81" y1="174.07" x2="162.75" y2="174.69"/><line class="cls-1" x1="217.41" y1="204.41" x2="216.88" y2="204.71"/><line class="cls-1" x1="216.88" y1="204.71" x2="215.82" y2="205.33"/><line class="cls-1" x1="219.54" y1="202.57" x2="217.41" y2="201.34"/><line class="cls-1" x1="219.54" y1="203.79" x2="219.54" y2="203.18"/><line class="cls-1" x1="219.54" y1="203.18" x2="219.54" y2="202.57"/><line class="cls-1" x1="219.01" y1="207.16" x2="219.01" y2="206.55"/><line class="cls-1" x1="219.01" y1="206.55" x2="219.01" y2="203.49"/><line class="cls-1" x1="257.57" y1="229.43" x2="257.57" y2="228.82"/><line class="cls-1" x1="257.57" y1="228.82" x2="257.57" y2="225.75"/><line class="cls-1" x1="255.98" y1="226.67" x2="255.45" y2="226.98"/><line class="cls-1" x1="255.45" y1="226.98" x2="254.39" y2="227.59"/><line class="cls-1" x1="258.1" y1="224.83" x2="255.98" y2="223.61"/><line class="cls-1" x1="258.1" y1="226.06" x2="258.1" y2="225.45"/><line class="cls-1" x1="258.1" y1="225.45" x2="258.1" y2="224.83"/><line class="cls-1" x1="141.61" y1="184.85" x2="141.08" y2="184.54"/><line class="cls-1" x1="270.48" y1="231.98" x2="269.95" y2="231.68"/><line class="cls-1" x1="202.91" y1="192.97" x2="202.38" y2="192.66"/><line class="cls-1" x1="164.34" y1="170.7" x2="163.81" y2="170.4"/><line class="cls-1" x1="217.41" y1="201.34" x2="216.88" y2="201.04"/><line class="cls-1" x1="255.98" y1="223.61" x2="255.45" y2="223.3"/><line class="cls-1" x1="141.08" y1="184.54" x2="140.55" y2="184.23"/><line class="cls-1" x1="140.55" y1="184.23" x2="139.49" y2="183.62"/><line class="cls-1" x1="269.95" y1="231.68" x2="269.42" y2="231.37"/><line class="cls-1" x1="269.42" y1="231.37" x2="268.36" y2="230.76"/><line class="cls-1" x1="202.38" y1="192.66" x2="201.85" y2="192.36"/><line class="cls-1" x1="201.85" y1="192.36" x2="200.79" y2="191.74"/><line class="cls-1" x1="163.81" y1="170.4" x2="163.28" y2="170.09"/><line class="cls-1" x1="163.28" y1="170.09" x2="162.22" y2="169.48"/><line class="cls-1" x1="216.88" y1="201.04" x2="216.35" y2="200.73"/><line class="cls-1" x1="216.35" y1="200.73" x2="215.29" y2="200.12"/><line class="cls-1" x1="255.45" y1="223.3" x2="254.92" y2="223"/><line class="cls-1" x1="254.92" y1="223" x2="253.86" y2="222.38"/><line class="cls-1" x1="171.42" y1="171.93" x2="171.42" y2="182.75"/><line class="cls-1" x1="170.89" y1="183.67" x2="197.42" y2="198.99"/><line class="cls-1" x1="209.63" y1="217.48" x2="211.75" y2="218.71"/><line class="cls-1" x1="223.96" y1="214.31" x2="250.5" y2="229.63"/><line class="cls-1" x1="262.7" y1="248.12" x2="264.82" y2="249.35"/><line class="cls-1" x1="277.03" y1="244.95" x2="291.36" y2="253.23"/><line class="cls-1" x1="291.36" y1="253.23" x2="291.36" y2="292.04"/><line class="cls-1" x1="141.61" y1="184.85" x2="141.61" y2="205.58"/><line class="cls-1" x1="132.15" y1="161.3" x2="157.09" y2="175.71"/><line class="cls-1" x1="157.09" y1="175.71" x2="157.09" y2="185.92"/><line class="cls-1" x1="156.56" y1="186.84" x2="158.68" y2="188.07"/><line class="cls-1" x1="158.99" y1="165.73" x2="160.58" y2="164.81"/><line class="cls-1" x1="154.97" y1="187.76" x2="156.56" y2="186.84"/><line class="cls-1" x1="157.09" y1="185.92" x2="156.56" y2="186.23"/><line class="cls-1" x1="155.5" y1="186.84" x2="156.56" y2="186.23"/><line class="cls-1" x1="128.96" y1="172.74" x2="130.55" y2="171.83"/><line class="cls-1" x1="140.02" y1="185.15" x2="141.08" y2="184.54"/><line class="cls-1" x1="139.49" y1="184.85" x2="140.55" y2="184.23"/><line class="cls-1" x1="143.73" y1="186.68" x2="143.2" y2="186.99"/><line class="cls-1" x1="275.44" y1="245.87" x2="277.03" y2="244.95"/><line class="cls-1" x1="277.56" y1="244.04" x2="277.03" y2="244.34"/><line class="cls-1" x1="265.13" y1="227.01" x2="266.73" y2="226.09"/><line class="cls-1" x1="275.97" y1="244.95" x2="277.03" y2="244.34"/><line class="cls-1" x1="261.11" y1="249.04" x2="262.7" y2="248.12"/><line class="cls-1" x1="263.23" y1="247.2" x2="262.7" y2="247.51"/><line class="cls-1" x1="250.81" y1="218.73" x2="252.4" y2="217.81"/><line class="cls-1" x1="261.64" y1="248.12" x2="262.7" y2="247.51"/><line class="cls-1" x1="222.37" y1="215.23" x2="223.96" y2="214.31"/><line class="cls-1" x1="224.49" y1="213.4" x2="223.96" y2="213.7"/><line class="cls-1" x1="212.06" y1="196.37" x2="213.66" y2="195.45"/><line class="cls-1" x1="222.9" y1="214.31" x2="223.96" y2="213.7"/><line class="cls-1" x1="208.04" y1="218.4" x2="209.63" y2="217.48"/><line class="cls-1" x1="210.16" y1="216.56" x2="209.63" y2="216.87"/><line class="cls-1" x1="197.73" y1="188.09" x2="199.33" y2="187.17"/><line class="cls-1" x1="208.57" y1="217.48" x2="209.63" y2="216.87"/><line class="cls-1" x1="169.3" y1="184.59" x2="170.89" y2="183.67"/><line class="cls-1" x1="171.42" y1="182.75" x2="170.89" y2="183.06"/><line class="cls-1" x1="169.83" y1="183.67" x2="170.89" y2="183.06"/><line class="cls-1" x1="169.83" y1="172.85" x2="169.83" y2="183.67"/><polygon class="cls-2" points="129.03 173.24 130.63 172.32 130.63 162.72 132.22 161.8 157.16 176.2 157.16 186.41 156.63 186.72 156.63 187.34 158.75 188.56 158.75 166.91 158.83 166.5 159.07 166.22 160.66 165.3 161.02 165.24 161.41 165.38 170.43 170.58 170.82 170.9 171.18 171.38 171.42 171.93 171.49 172.42 171.49 183.25 170.96 183.56 170.96 184.17 197.5 199.49 197.5 189.28 197.57 188.87 197.81 188.59 199.4 187.67 199.76 187.6 200.15 187.74 209.17 192.95 209.56 193.26 209.92 193.74 210.16 194.3 210.23 194.79 210.23 217.06 209.7 217.36 209.7 217.98 211.83 219.2 211.83 197.55 211.9 197.14 212.14 196.86 213.73 195.94 214.09 195.88 214.48 196.02 223.5 201.22 223.89 201.54 224.25 202.02 224.49 202.57 224.56 203.06 224.56 213.89 224.03 214.19 224.03 214.81 250.57 230.13 250.57 219.92 250.64 219.51 250.88 219.23 252.47 218.31 252.83 218.24 253.22 218.38 262.24 223.59 262.63 223.9 262.99 224.38 263.23 224.94 263.3 225.43 263.3 247.7 262.77 248 262.77 248.62 264.9 249.84 264.9 228.19 264.97 227.78 265.21 227.5 266.8 226.58 267.16 226.52 267.55 226.66 276.57 231.87 276.96 232.18 277.32 232.66 277.56 233.21 277.63 233.71 277.63 244.53 277.1 244.84 277.1 245.45 291.43 253.72 291.43 292.53 289.84 293.45 143.27 208.84 143.27 187.49 143.81 187.18 143.81 186.57 141.68 185.34 141.68 206.08 140.09 207 129.03 200.61 129.03 173.24"/></svg>