<svg id="Layer_1" data-name="Layer 1" xmlns="http://www.w3.org/2000/svg" viewBox="0 0 212.6 425.2"><defs><style>.cls-1{font-size:5.3px;fill:#1d1d1b;font-family:Monotxt;}.cls-2,.cls-3{fill:none;stroke:#1d1d1b;stroke-miterlimit:10;}.cls-2{stroke-width:0.25px;}.cls-3{stroke-width:0.5px;}</style></defs><g id="MTEXT"><text class="cls-1" transform="translate(129.96 218.2) rotate(90)">COMB-A/END-X1</text></g><g id="MTEXT-2" data-name="MTEXT"><text class="cls-1" transform="translate(81.24 296.94) rotate(-90)">COMB-A/END-X2</text></g><g id="POLYLINE"><rect class="cls-2" x="14.56" y="34.26" width="183.49" height="366.97"/></g><g id="POLYLINE-2" data-name="POLYLINE"><polygon class="cls-3" points="29.18 161.19 34.52 161.19 34.52 162.09 36.4 162.09 36.4 154.79 34.52 154.79 34.52 155.7 29.18 155.7 29.18 154.79 27.3 154.79 27.3 162.09 29.18 162.09 29.18 161.19"/></g><g id="POLYLINE-3" data-name="POLYLINE"><polygon class="cls-3" points="29.18 180.36 34.52 180.36 34.52 179.46 36.4 179.46 36.4 186.75 34.52 186.75 34.52 185.85 29.18 185.85 29.18 186.75 27.3 186.75 27.3 179.46 29.18 179.46 29.18 180.36"/></g><g id="POLYLINE-4" data-name="POLYLINE"><polygon class="cls-3" points="36.4 252.33 34.52 252.33 34.52 251.43 29.18 251.43 29.18 252.33 27.3 252.33 27.3 245.03 29.18 245.03 29.18 245.94 34.52 245.94 34.52 245.03 36.4 245.03 36.4 252.33"/></g><g id="POLYLINE-5" data-name="POLYLINE"><polygon class="cls-3" points="29.18 276.99 27.3 276.99 27.3 269.7 29.18 269.7 29.18 270.6 34.52 270.6 34.52 269.7 36.4 269.7 36.4 276.99 34.52 276.99 34.52 276.09 29.18 276.09 29.18 276.99"/></g><g id="POLYLINE-6" data-name="POLYLINE"><polygon class="cls-3" points="27.3 342.57 27.3 335.27 29.18 335.27 29.18 336.18 34.52 336.18 34.52 335.27 36.4 335.27 36.4 342.57 34.52 342.57 34.52 341.67 29.18 341.67 29.18 342.57 27.3 342.57"/></g><g id="POLYLINE-7" data-name="POLYLINE"><polygon class="cls-3" points="183.42 161.19 178.08 161.19 178.08 162.09 176.2 162.09 176.2 154.79 178.08 154.79 178.08 155.7 183.42 155.7 183.42 154.79 185.3 154.79 185.3 162.09 183.42 162.09 183.42 161.19"/></g><g id="POLYLINE-8" data-name="POLYLINE"><polygon class="cls-3" points="183.42 180.36 178.08 180.36 178.08 179.46 176.2 179.46 176.2 186.75 178.08 186.75 178.08 185.85 183.42 185.85 183.42 186.75 185.3 186.75 185.3 179.46 183.42 179.46 183.42 180.36"/></g><g id="POLYLINE-9" data-name="POLYLINE"><polygon class="cls-3" points="176.2 252.33 178.08 252.33 178.08 251.43 183.42 251.43 183.42 252.33 185.3 252.33 185.3 245.03 183.42 245.03 183.42 245.94 178.08 245.94 178.08 245.03 176.2 245.03 176.2 252.33"/></g><g id="POLYLINE-10" data-name="POLYLINE"><polygon class="cls-3" points="183.42 276.99 185.3 276.99 185.3 269.7 183.42 269.7 183.42 270.6 178.08 270.6 178.08 269.7 176.2 269.7 176.2 276.99 178.08 276.99 178.08 276.09 183.42 276.09 183.42 276.99"/></g><g id="POLYLINE-11" data-name="POLYLINE"><polygon class="cls-3" points="185.3 342.57 185.3 335.27 183.42 335.27 183.42 336.18 178.08 336.18 178.08 335.27 176.2 335.27 176.2 342.57 178.08 342.57 178.08 341.67 183.42 341.67 183.42 342.57 185.3 342.57"/></g><g id="POLYLINE-12" data-name="POLYLINE"><path class="cls-3" d="M25.83,329.67a1.73,1.73,0,0,0-1.73,1.73v15.34a1.73,1.73,0,0,0,1.73,1.73H58.54v-.9h2v7.37h-2V354H43.65V396.3H58.54v-.91h2V399h40.15V380.35H69.37v.91h-2v-7.37h2v.9h31.28V125.73h-57v24.36H41.7v-.9H25.83a1.74,1.74,0,0,0-1.73,1.73v15.34A1.73,1.73,0,0,0,25.83,168H58.54v-.9h2v7.37h-2v-.9H25.83a1.73,1.73,0,0,0-1.73,1.73v15.34a1.74,1.74,0,0,0,1.73,1.73H41.7v-.91h1.95v48.88H41.7v-.9H25.83a1.74,1.74,0,0,0-1.73,1.73V256.5a1.73,1.73,0,0,0,1.73,1.73H58.54v-.9h2v7.37h-2v-.9H25.83a1.73,1.73,0,0,0-1.73,1.73v15.34a1.74,1.74,0,0,0,1.73,1.73H41.7v-.91h1.95v48.88H41.7v-.9Z"/></g><g id="POLYLINE-13" data-name="POLYLINE"><path class="cls-3" d="M186.77,329.67a1.73,1.73,0,0,1,1.73,1.73v15.34a1.73,1.73,0,0,1-1.73,1.73H154.06v-.9h-2v7.37h2V354H169V396.3H154.06v-.91h-2V399H111.94V380.35h31.29v.91h2v-7.37h-2v.9H111.94V125.73h57v24.36h2v-.9h15.87a1.74,1.74,0,0,1,1.73,1.73v15.34a1.73,1.73,0,0,1-1.73,1.73H154.06v-.9h-2v7.37h2v-.9h32.71a1.73,1.73,0,0,1,1.73,1.73v15.34a1.74,1.74,0,0,1-1.73,1.73H170.9v-.91h-2v48.88h2v-.9h15.87a1.74,1.74,0,0,1,1.73,1.73V256.5a1.73,1.73,0,0,1-1.73,1.73H154.06v-.9h-2v7.37h2v-.9h32.71a1.73,1.73,0,0,1,1.73,1.73v15.34a1.74,1.74,0,0,1-1.73,1.73H170.9v-.91h-2v48.88h2v-.9Z"/></g></svg>