<svg id="Layer_1" data-name="Layer 1" xmlns="http://www.w3.org/2000/svg" viewBox="0 0 500 500"><defs><style>.cls-1,.cls-2{fill:none;}.cls-2{stroke:#1d1d1b;stroke-linecap:round;stroke-linejoin:round;stroke-width:0.71px;}</style></defs><rect id="background" class="cls-1" width="500" height="500"/><g id="POLYLINE"><polygon class="cls-2" points="337.7 292.4 338.54 292.88 338.66 292.94 338.78 292.99 338.91 293.04 341.96 293.89 345 294.73 348.05 295.58 351.09 296.43 351.29 296.56 351.43 296.72 351.52 296.89 351.56 297.07 351.56 297.72 351.56 298.37 351.56 299.66 351.56 300.31 351.56 300.96 351.52 301.13 351.43 301.31 351.29 301.46 351.09 301.6 350.25 302.09 349.41 302.57 349.02 302.8 349.08 302.88 349.28 303.37 349.35 303.87 349.35 305.78 349.33 306.1 349.25 306.43 349.11 306.74 348.92 307.05 348.68 307.33 348.4 307.6 348.09 307.85 347.73 308.08 347.39 308.26 346.96 308.45 346.51 308.61 346.03 308.74 345.52 308.86 344.98 308.94 344.43 308.99 343.86 309.01 343.29 309 342.74 308.95 342.19 308.88 341.66 308.77 341.16 308.63 340.7 308.47 340.28 308.29 339.88 308.08 339.04 308.56 338.2 309.05 337.36 309.53 336.52 310.02 336.3 310.12 336.03 310.21 335.73 310.26 335.41 310.29 335.09 310.27 334.78 310.21 334.51 310.13 334.27 310.02 332.81 308.26 331.34 306.5 329.88 304.74 328.41 302.99 328.33 302.91 328.24 302.84 328.14 302.77 327.3 302.29 326.45 301.8 325.61 301.32 324.77 300.83 324.77 300.18 324.77 299.54 324.77 298.89 324.77 298.24 324.77 297.6 324.77 296.95 327.37 295.45 329.98 293.94 332.58 292.44 335.18 290.94 336.02 291.43 336.86 291.91 337.7 292.4"/></g><g id="POLYLINE-2" data-name="POLYLINE"><polygon class="cls-2" points="274.68 268.02 277.28 266.52 279.88 265.02 282.48 263.52 285.08 262.02 285.2 262.08 285.32 262.13 285.45 262.18 288.5 263.02 291.54 263.87 294.59 264.71 297.63 265.56 297.83 265.7 297.98 265.86 298.07 266.03 298.1 266.21 298.1 266.86 298.1 267.5 298.1 268.8 298.1 269.44 298.1 270.09 298.06 270.27 297.97 270.44 297.83 270.6 297.63 270.74 296.79 271.22 295.95 271.71 295.57 271.93 295.63 272.03 295.77 272.35 295.86 272.67 295.89 273 295.89 274.98 295.86 275.31 295.77 275.63 295.62 275.94 295.43 276.23 295.19 276.51 294.91 276.77 294.58 277.01 294.27 277.21 293.87 277.42 293.45 277.6 292.98 277.76 292.48 277.9 291.95 278.01 291.41 278.09 290.85 278.14 290.29 278.15 289.72 278.13 289.17 278.08 288.63 277.99 288.12 277.88 287.63 277.74 287.19 277.58 286.76 277.39 286.42 277.21 285.58 277.7 284.74 278.18 283.9 278.67 283.06 279.15 282.82 279.26 282.55 279.35 282.24 279.4 281.92 279.42 281.6 279.4 281.3 279.34 281.03 279.26 280.81 279.15 279.35 277.39 277.88 275.64 276.42 273.88 274.95 272.12 274.87 272.05 274.78 271.98 274.68 271.91 274.68 271.42 274.68 270.94 274.68 270.45 274.68 269.97 274.68 269.48 274.68 269 274.68 268.51 274.68 268.02"/></g><g id="POLYLINE-3" data-name="POLYLINE"><polygon class="cls-2" points="221.97 229.48 222.07 229.42 224.03 228.28 224.87 227.8 225.72 227.31 226.56 226.83 227.4 226.34 227.63 226.23 227.91 226.15 228.21 226.09 228.52 226.07 228.82 226.09 229.12 226.14 229.4 226.23 229.64 226.34 231.1 228.1 232.57 229.86 234.04 231.62 235.5 233.38 235.58 233.45 235.67 233.52 235.78 233.59 237.28 232.72 238.78 231.85 240.28 230.99 241.78 230.12 243.28 230.98 244.77 231.84 246.27 232.71 247.76 233.57 247.76 234.54 247.76 235.51 247.76 236.48 247.76 237.46 246.36 238.26 245.52 238.75 245.67 238.84 246.84 239.51 249.54 240.27 252.25 241.02 254.96 241.77 257.67 242.53 257.86 242.66 258.01 242.82 258.1 243 258.13 243.17 258.13 243.66 258.13 244.14 258.13 244.63 258.13 245.11 258.13 245.6 258.13 246.09 258.13 246.57 258.13 247.06 258.1 247.23 258.01 247.41 257.86 247.57 257.67 247.7 256.83 248.19 255.99 248.67 255.6 248.9 255.67 249 255.81 249.31 255.9 249.64 255.93 249.97 255.93 251.88 255.83 252.53 255.5 253.15 254.98 253.7 254.3 254.18 253.53 254.55 252.61 254.84 251.56 255.04 250.44 255.11 249.31 255.06 248.24 254.87 247.28 254.57 246.46 254.18 245.62 254.66 244.77 255.15 243.93 255.63 243.09 256.12 242.79 256.25 242.41 256.35 241.99 256.39 241.56 256.36 241.17 256.26 240.85 256.12 239.55 254.55 238.24 252.99 236.94 251.43 235.64 249.87 234.47 249.19 233.29 248.51 232.12 247.84 230.95 247.16 229.55 247.97 228.15 248.78 226.74 249.59 225.34 250.4 223.85 249.54 222.35 248.67 220.86 247.81 219.36 246.95 219.36 245.98 219.36 245.01 219.36 244.03 219.36 243.06 220.86 242.2 220.89 242.18 218.91 241.63 215.87 240.78 212.82 239.94 212.59 239.76 212.42 239.54 212.36 239.3 212.36 238 212.36 236.71 212.36 235.41 212.41 235.17 212.57 234.94 212.82 234.76 213.66 234.27 214.5 233.79 214.56 233.75 214.56 232.49 214.59 232.16 214.68 231.84 214.82 231.52 215.02 231.22 215.26 230.94 215.54 230.68 215.85 230.44 216.19 230.23 216.55 230.03 216.97 229.85 217.42 229.69 217.91 229.55 218.43 229.44 218.97 229.36 219.54 229.31 220.11 229.29 220.68 229.31 221.25 229.36 221.79 229.44 221.97 229.48"/></g><g id="POLYLINE-4" data-name="POLYLINE"><polygon class="cls-2" points="173.23 197.38 176.28 198.23 179.32 199.08 182.37 199.92 185.41 200.77 185.61 200.91 185.75 201.06 185.85 201.24 185.88 201.43 185.88 202.07 185.88 202.72 185.88 204.02 185.88 204.66 185.88 205.31 185.84 205.5 185.74 205.67 185.59 205.82 185.41 205.95 184.57 206.43 183.73 206.92 183.34 207.15 183.44 207.3 183.63 207.82 183.67 208.35 183.67 210.1 183.65 210.46 183.56 210.81 183.4 211.16 183.18 211.48 182.9 211.78 182.59 212.06 182.21 212.32 181.83 212.54 181.38 212.75 180.88 212.94 180.33 213.09 179.75 213.22 179.15 213.3 178.54 213.35 177.91 213.36 177.29 213.32 176.68 213.25 176.1 213.14 175.56 213 175.06 212.83 174.58 212.62 174.2 212.42 173.36 212.91 172.52 213.39 171.68 213.88 170.84 214.36 170.6 214.48 170.32 214.56 170.02 214.61 169.72 214.63 169.41 214.61 169.11 214.56 168.83 214.48 168.59 214.36 167.13 212.6 165.66 210.85 164.2 209.09 162.73 207.33 162.61 207.22 162.46 207.12 162.28 207.03 162.09 206.96 159.04 206.12 156 205.27 152.95 204.42 149.91 203.57 149.71 203.44 149.57 203.28 149.47 203.1 149.44 202.93 149.44 202.28 149.44 201.63 149.44 200.34 149.44 199.69 149.44 199.04 149.47 198.87 149.57 198.69 149.72 198.53 149.91 198.4 150.75 197.91 151.59 197.43 151.65 197.39 151.65 196 151.77 195.47 152.03 194.97 152.43 194.49 152.96 194.06 153.61 193.69 154.36 193.38 155.18 193.15 156.06 193 156.97 192.93 157.88 192.95 158.78 193.06 159.05 193.12 161.12 191.92 161.96 191.44 162.8 190.95 163.64 190.47 164.48 189.98 164.72 189.87 164.99 189.78 165.3 189.73 165.62 189.71 165.94 189.74 166.24 189.79 166.51 189.88 166.73 189.98 168.19 191.74 169.66 193.5 171.13 195.26 172.59 197.01 172.71 197.13 172.87 197.23 173.04 197.31 173.23 197.38"/></g><g id="POLYLINE-5" data-name="POLYLINE"><line class="cls-2" x1="338.54" y1="292.88" x2="335.18" y2="290.94"/></g><g id="POLYLINE-6" data-name="POLYLINE"><line class="cls-2" x1="324.77" y1="300.83" x2="324.77" y2="296.95"/></g><g id="POLYLINE-7" data-name="POLYLINE"><line class="cls-2" x1="335.18" y1="290.94" x2="324.77" y2="296.95"/></g><g id="POLYLINE-8" data-name="POLYLINE"><line class="cls-2" x1="324.77" y1="300.83" x2="328.14" y2="302.77"/></g><g id="POLYLINE-9" data-name="POLYLINE"><line class="cls-2" x1="324.77" y1="296.95" x2="328.14" y2="298.89"/></g><g id="POLYLINE-10" data-name="POLYLINE"><polyline class="cls-2" points="328.13 302.77 328.18 302.8 328.21 302.82 328.25 302.85 328.27 302.86 328.29 302.87 328.3 302.89 328.32 302.9 328.33 302.92 328.35 302.93 328.37 302.94 328.38 302.96 328.39 302.97 328.41 302.99"/></g><g id="POLYLINE-11" data-name="POLYLINE"><line class="cls-2" x1="328.41" y1="302.99" x2="328.41" y2="299.1"/></g><g id="POLYLINE-12" data-name="POLYLINE"><polyline class="cls-2" points="328.13 298.89 328.18 298.91 328.21 298.94 328.25 298.96 328.27 298.98 328.29 298.99 328.3 299 328.32 299.02 328.33 299.03 328.35 299.05 328.37 299.06 328.38 299.07 328.39 299.09 328.41 299.1"/></g><g id="POLYLINE-13" data-name="POLYLINE"><line class="cls-2" x1="328.41" y1="302.99" x2="334.27" y2="310.02"/></g><g id="POLYLINE-14" data-name="POLYLINE"><line class="cls-2" x1="334.27" y1="310.02" x2="334.27" y2="306.13"/></g><g id="POLYLINE-15" data-name="POLYLINE"><line class="cls-2" x1="328.41" y1="299.1" x2="334.27" y2="306.13"/></g><g id="POLYLINE-16" data-name="POLYLINE"><polyline class="cls-2" points="334.27 310.02 334.3 310.03 334.32 310.05 334.35 310.06 334.38 310.07 334.41 310.09 334.44 310.1 334.47 310.11 334.5 310.13 334.56 310.15 334.63 310.17 334.69 310.19 334.76 310.21 334.84 310.23 334.91 310.24 334.99 310.25 335.07 310.27 335.15 310.27 335.23 310.28 335.31 310.28 335.39 310.29 335.48 310.28 335.56 310.28 335.64 310.27 335.72 310.27 335.8 310.25 335.88 310.24 335.95 310.23 336.02 310.21 336.1 310.19 336.16 310.17 336.23 310.15 336.29 310.13 336.32 310.11 336.35 310.1 336.38 310.09 336.41 310.07 336.44 310.06 336.46 310.05 336.49 310.03 336.52 310.02"/></g><g id="POLYLINE-17" data-name="POLYLINE"><polyline class="cls-2" points="334.27 306.13 334.3 306.15 334.32 306.16 334.35 306.18 334.38 306.19 334.41 306.2 334.44 306.22 334.47 306.23 334.5 306.24 334.56 306.26 334.63 306.29 334.69 306.31 334.76 306.33 334.84 306.34 334.91 306.36 334.99 306.37 335.07 306.38 335.15 306.39 335.23 306.4 335.31 306.4 335.39 306.4 335.48 306.4 335.56 306.4 335.64 306.39 335.72 306.38 335.8 306.37 335.88 306.36 335.95 306.34 336.02 306.33 336.1 306.31 336.16 306.29 336.23 306.26 336.29 306.24 336.32 306.23 336.35 306.22 336.38 306.2 336.41 306.19 336.44 306.18 336.46 306.16 336.49 306.15 336.52 306.13"/></g><g id="POLYLINE-18" data-name="POLYLINE"><line class="cls-2" x1="336.52" y1="310.02" x2="339.88" y2="308.08"/></g><g id="POLYLINE-19" data-name="POLYLINE"><line class="cls-2" x1="339.88" y1="308.08" x2="339.88" y2="306.13"/></g><g id="POLYLINE-20" data-name="POLYLINE"><line class="cls-2" x1="336.52" y1="306.13" x2="339.88" y2="304.19"/></g><g id="POLYLINE-21" data-name="POLYLINE"><polyline class="cls-2" points="339.88 308.08 339.97 308.13 340.06 308.17 340.15 308.22 340.25 308.27 340.35 308.32 340.45 308.36 340.55 308.41 340.66 308.45 340.88 308.53 341.11 308.61 341.35 308.68 341.6 308.75 341.86 308.81 342.12 308.86 342.39 308.91 342.67 308.95 342.95 308.98 343.23 309 343.52 309.01 343.8 309.01 344.09 309.01 344.38 309 344.66 308.98 344.94 308.95 345.22 308.91 345.49 308.86 345.75 308.81 346.01 308.75 346.26 308.68 346.5 308.61 346.73 308.53 346.95 308.45 347.05 308.41 347.16 308.36 347.26 308.32 347.36 308.27 347.45 308.22 347.55 308.17 347.64 308.13 347.73 308.08 347.81 308.02 347.9 307.97 347.98 307.92 348.06 307.86 348.14 307.81 348.22 307.75 348.3 307.69 348.38 307.63 348.45 307.56 348.52 307.5 348.59 307.43 348.65 307.37 348.72 307.3 348.78 307.23 348.84 307.15 348.9 307.08 348.95 307.01 349 306.94 349.02 306.9 349.05 306.86 349.07 306.82 349.09 306.78 349.11 306.74 349.13 306.7 349.15 306.67 349.17 306.63 349.19 306.59 349.2 306.55 349.22 306.51 349.23 306.47 349.25 306.43 349.26 306.39 349.27 306.35 349.29 306.31 349.3 306.26 349.31 306.22 349.31 306.18 349.32 306.14 349.33 306.1 349.34 306.06 349.34 306.02 349.35 305.98 349.35 305.94 349.35 305.89 349.35 305.85 349.35 305.81"/></g><g id="POLYLINE-22" data-name="POLYLINE"><polyline class="cls-2" points="351.09 301.6 351.12 301.59 351.14 301.57 351.17 301.56 351.19 301.54 351.22 301.52 351.24 301.5 351.26 301.48 351.29 301.47 351.31 301.45 351.33 301.43 351.35 301.41 351.37 301.39 351.38 301.37 351.4 301.35 351.42 301.33 351.43 301.31 351.45 301.29 351.46 301.26 351.47 301.25 351.48 301.24 351.48 301.23 351.49 301.22 351.49 301.21 351.5 301.2 351.5 301.19 351.51 301.18 351.51 301.17 351.52 301.15 351.52 301.14 351.52 301.13 351.53 301.12 351.53 301.11 351.54 301.1 351.54 301.09 351.54 301.08 351.54 301.07 351.55 301.06 351.55 301.04 351.55 301.03 351.55 301.02 351.55 301.01 351.55 301 351.55 300.99 351.55 300.98 351.55 300.97 351.56 300.96"/></g><g id="POLYLINE-23" data-name="POLYLINE"><polyline class="cls-2" points="351.09 297.72 351.12 297.7 351.14 297.69 351.17 297.67 351.19 297.65 351.22 297.64 351.24 297.62 351.26 297.6 351.29 297.58 351.31 297.56 351.33 297.54 351.35 297.52 351.37 297.5 351.38 297.48 351.4 297.46 351.42 297.44 351.43 297.42 351.45 297.4 351.46 297.38 351.47 297.37 351.48 297.36 351.48 297.35 351.49 297.34 351.49 297.33 351.5 297.31 351.5 297.3 351.51 297.29 351.51 297.28 351.52 297.27 351.52 297.26 351.52 297.25 351.53 297.24 351.53 297.23 351.54 297.22 351.54 297.2 351.54 297.19 351.54 297.18 351.55 297.17 351.55 297.16 351.55 297.15 351.55 297.14 351.55 297.13 351.55 297.12 351.55 297.11 351.55 297.09 351.55 297.08 351.56 297.07"/></g><g id="POLYLINE-24" data-name="POLYLINE"><line class="cls-2" x1="351.09" y1="296.42" x2="338.91" y2="293.04"/></g><g id="POLYLINE-25" data-name="POLYLINE"><polyline class="cls-2" points="338.91 293.04 338.86 293.02 338.81 293 338.76 292.99 338.72 292.97 338.67 292.95 338.63 292.93 338.58 292.9 338.54 292.88"/></g><g id="POLYLINE-26" data-name="POLYLINE"><line class="cls-2" x1="347.73" y1="301.6" x2="339.88" y2="306.13"/></g><g id="POLYLINE-27" data-name="POLYLINE"><line class="cls-2" x1="347.73" y1="299.66" x2="339.88" y2="304.19"/></g><g id="POLYLINE-28" data-name="POLYLINE"><line class="cls-2" x1="351.55" y1="297.07" x2="351.55" y2="300.96"/></g><g id="POLYLINE-29" data-name="POLYLINE"><polyline class="cls-2" points="351.56 297.07 351.55 297.06 351.55 297.05 351.55 297.04 351.55 297.03 351.55 297.02 351.55 297.01 351.55 297 351.55 296.98 351.55 296.97 351.54 296.96 351.54 296.95 351.54 296.94 351.54 296.93 351.53 296.92 351.53 296.91 351.52 296.89 351.52 296.88 351.52 296.87 351.51 296.86 351.51 296.85 351.5 296.84 351.5 296.83 351.49 296.82 351.49 296.81 351.48 296.8 351.48 296.79 351.47 296.77 351.46 296.76 351.45 296.74 351.43 296.72 351.42 296.7 351.4 296.68 351.38 296.66 351.37 296.64 351.35 296.62 351.33 296.6 351.31 296.58 351.29 296.56 351.26 296.54 351.24 296.52 351.22 296.51 351.19 296.49 351.17 296.47 351.14 296.46 351.12 296.44 351.09 296.43"/></g><g id="POLYLINE-30" data-name="POLYLINE"><line class="cls-2" x1="349.35" y1="303.87" x2="349.35" y2="305.81"/></g><g id="POLYLINE-31" data-name="POLYLINE"><line class="cls-2" x1="349.03" y1="302.79" x2="351.09" y2="301.6"/></g><g id="POLYLINE-32" data-name="POLYLINE"><line class="cls-2" x1="347.73" y1="299.66" x2="351.09" y2="297.72"/></g><g id="POLYLINE-33" data-name="POLYLINE"><polyline class="cls-2" points="339.88 306.13 340.02 306.21 340.16 306.29 340.31 306.36 340.47 306.43 340.63 306.5 340.8 306.56 340.98 306.63 341.15 306.68 341.34 306.74 341.53 306.79 341.72 306.84 341.91 306.88 342.11 306.92 342.31 306.95 342.51 306.99 342.72 307.01 342.93 307.03 343.14 307.05 343.35 307.06 343.55 307.07 343.76 307.07 343.97 307.07 344.18 307.06 344.38 307.06 344.59 307.04 344.79 307.02 344.99 307 345.18 306.97 345.37 306.94 345.56 306.91 345.75 306.87 345.93 306.83 346.1 306.78 346.28 306.74 346.46 306.68 346.63 306.63 346.8 306.56 346.97 306.5 347.13 306.43 347.3 306.36 347.45 306.28 347.61 306.2 347.76 306.12 347.9 306.03 347.97 305.99 348.04 305.94 348.11 305.89 348.17 305.85 348.23 305.8 348.3 305.75 348.36 305.7 348.42 305.65 348.48 305.6 348.53 305.55 348.58 305.49 348.64 305.44 348.69 305.39 348.74 305.33 348.78 305.28 348.83 305.23 348.87 305.17 348.91 305.12 348.95 305.06 348.99 305 349.03 304.95 349.06 304.89 349.09 304.83 349.12 304.78 349.15 304.72 349.18 304.66 349.2 304.61 349.23 304.55 349.25 304.49 349.26 304.44 349.28 304.38 349.3 304.32 349.31 304.26 349.32 304.21 349.33 304.15 349.34 304.09 349.35 304.04 349.35 303.98 349.35 303.92 349.35 303.87"/></g><g id="POLYLINE-34" data-name="POLYLINE"><polyline class="cls-2" points="349.35 303.87 349.35 303.83 349.35 303.79 349.35 303.75 349.35 303.71 349.34 303.68 349.34 303.64 349.33 303.6 349.33 303.56 349.32 303.52 349.31 303.48 349.3 303.44 349.29 303.4 349.28 303.37 349.27 303.33 349.26 303.29 349.25 303.25 349.23 303.21 349.22 303.17 349.2 303.13 349.19 303.1 349.17 303.06 349.15 303.02 349.13 302.98 349.12 302.94 349.1 302.9 349.07 302.87 349.05 302.83 349.03 302.79 348.98 302.72 348.93 302.64 348.88 302.57 348.82 302.5 348.76 302.43 348.69 302.36 348.63 302.29 348.56 302.22 348.49 302.15 348.41 302.08 348.33 302.02 348.25 301.95 348.17 301.89 348.09 301.83 348 301.77 347.91 301.71 347.82 301.66 347.73 301.6"/></g><g id="POLYLINE-35" data-name="POLYLINE"><line class="cls-2" x1="274.68" y1="268.03" x2="285.08" y2="262.02"/></g><g id="POLYLINE-36" data-name="POLYLINE"><line class="cls-2" x1="274.68" y1="268.03" x2="274.68" y2="271.91"/></g><g id="POLYLINE-37" data-name="POLYLINE"><polyline class="cls-2" points="285.08 262.02 285.13 262.04 285.17 262.06 285.21 262.08 285.26 262.1 285.31 262.12 285.35 262.14 285.4 262.16 285.45 262.18"/></g><g id="POLYLINE-38" data-name="POLYLINE"><line class="cls-2" x1="285.45" y1="262.17" x2="297.63" y2="265.56"/></g><g id="POLYLINE-39" data-name="POLYLINE"><polyline class="cls-2" points="297.63 265.56 297.66 265.58 297.68 265.59 297.71 265.61 297.73 265.63 297.76 265.64 297.78 265.66 297.81 265.68 297.83 265.7 297.85 265.72 297.87 265.74 297.89 265.75 297.91 265.77 297.93 265.8 297.94 265.82 297.96 265.84 297.98 265.86 297.99 265.88 298 265.9 298.01 265.91 298.02 265.92 298.02 265.93 298.03 265.94 298.03 265.95 298.04 265.96 298.04 265.98 298.05 265.99 298.05 266 298.06 266.01 298.06 266.02 298.07 266.03 298.07 266.04 298.07 266.05 298.08 266.06 298.08 266.07 298.08 266.09 298.08 266.1 298.09 266.11 298.09 266.12 298.09 266.13 298.09 266.14 298.09 266.15 298.09 266.16 298.1 266.18 298.1 266.19 298.1 266.2 298.1 266.21"/></g><g id="POLYLINE-40" data-name="POLYLINE"><line class="cls-2" x1="297.63" y1="270.74" x2="295.57" y2="271.93"/></g><g id="POLYLINE-41" data-name="POLYLINE"><line class="cls-2" x1="286.42" y1="273.33" x2="283.06" y2="275.27"/></g><g id="POLYLINE-42" data-name="POLYLINE"><line class="cls-2" x1="286.42" y1="277.21" x2="283.06" y2="279.15"/></g><g id="POLYLINE-43" data-name="POLYLINE"><polyline class="cls-2" points="283.06 275.27 283.03 275.28 283.01 275.3 282.98 275.31 282.95 275.32 282.92 275.34 282.89 275.35 282.87 275.36 282.83 275.38 282.77 275.4 282.7 275.42 282.64 275.44 282.57 275.46 282.49 275.48 282.42 275.49 282.34 275.51 282.26 275.52 282.18 275.53 282.1 275.53 282.02 275.54 281.94 275.54 281.85 275.54 281.77 275.53 281.69 275.53 281.61 275.52 281.53 275.51 281.45 275.49 281.38 275.48 281.31 275.46 281.24 275.44 281.17 275.42 281.1 275.4 281.04 275.38 281.01 275.36 280.98 275.35 280.95 275.34 280.92 275.32 280.89 275.31 280.87 275.3 280.84 275.28 280.81 275.27"/></g><g id="POLYLINE-44" data-name="POLYLINE"><line class="cls-2" x1="280.81" y1="275.27" x2="280.81" y2="279.15"/></g><g id="POLYLINE-45" data-name="POLYLINE"><polyline class="cls-2" points="283.06 279.15 283.03 279.17 283.01 279.18 282.98 279.19 282.95 279.21 282.92 279.22 282.89 279.24 282.87 279.25 282.83 279.26 282.77 279.28 282.7 279.31 282.64 279.33 282.57 279.35 282.49 279.36 282.42 279.38 282.34 279.39 282.26 279.4 282.18 279.41 282.1 279.42 282.02 279.42 281.94 279.42 281.85 279.42 281.77 279.42 281.69 279.41 281.61 279.4 281.53 279.39 281.45 279.38 281.38 279.36 281.31 279.35 281.24 279.33 281.17 279.31 281.1 279.28 281.04 279.26 281.01 279.25 280.98 279.24 280.95 279.22 280.92 279.21 280.89 279.19 280.87 279.18 280.84 279.17 280.81 279.15"/></g><g id="POLYLINE-46" data-name="POLYLINE"><line class="cls-2" x1="280.81" y1="279.15" x2="274.95" y2="272.12"/></g><g id="POLYLINE-47" data-name="POLYLINE"><polyline class="cls-2" points="274.95 268.24 274.94 268.22 274.92 268.21 274.91 268.19 274.89 268.18 274.88 268.17 274.86 268.15 274.84 268.14 274.83 268.13 274.81 268.11 274.79 268.1 274.75 268.07 274.72 268.05 274.68 268.02"/></g><g id="POLYLINE-48" data-name="POLYLINE"><polyline class="cls-2" points="274.95 272.12 274.94 272.11 274.92 272.09 274.91 272.08 274.89 272.06 274.88 272.05 274.86 272.04 274.84 272.02 274.83 272.01 274.81 272 274.79 271.98 274.75 271.96 274.72 271.93 274.68 271.91"/></g><g id="POLYLINE-49" data-name="POLYLINE"><line class="cls-2" x1="286.42" y1="275.27" x2="294.27" y2="270.74"/></g><g id="POLYLINE-50" data-name="POLYLINE"><line class="cls-2" x1="286.42" y1="273.33" x2="294.27" y2="268.8"/></g><g id="POLYLINE-51" data-name="POLYLINE"><line class="cls-2" x1="286.42" y1="275.27" x2="286.42" y2="277.21"/></g><g id="POLYLINE-52" data-name="POLYLINE"><line class="cls-2" x1="298.1" y1="266.21" x2="298.1" y2="270.09"/></g><g id="POLYLINE-53" data-name="POLYLINE"><polyline class="cls-2" points="298.1 266.21 298.1 266.22 298.1 266.23 298.1 266.24 298.09 266.25 298.09 266.26 298.09 266.27 298.09 266.29 298.09 266.3 298.09 266.31 298.08 266.32 298.08 266.33 298.08 266.34 298.08 266.35 298.07 266.36 298.07 266.37 298.07 266.38 298.06 266.39 298.06 266.41 298.05 266.42 298.05 266.43 298.04 266.44 298.04 266.45 298.03 266.46 298.03 266.47 298.02 266.48 298.02 266.49 298.01 266.5 298 266.51 297.99 266.54 297.98 266.56 297.96 266.58 297.94 266.6 297.93 266.62 297.91 266.64 297.89 266.66 297.87 266.68 297.85 266.7 297.83 266.72 297.81 266.74 297.78 266.75 297.76 266.77 297.73 266.79 297.71 266.81 297.68 266.82 297.66 266.84 297.63 266.86"/></g><g id="POLYLINE-54" data-name="POLYLINE"><polyline class="cls-2" points="298.1 270.09 298.1 270.1 298.1 270.11 298.1 270.12 298.09 270.13 298.09 270.15 298.09 270.16 298.09 270.17 298.09 270.18 298.09 270.19 298.08 270.2 298.08 270.21 298.08 270.22 298.08 270.24 298.07 270.25 298.07 270.26 298.07 270.27 298.06 270.28 298.06 270.29 298.05 270.3 298.05 270.31 298.04 270.32 298.04 270.33 298.03 270.35 298.03 270.36 298.02 270.37 298.02 270.38 298.01 270.39 298 270.4 297.99 270.42 297.98 270.44 297.96 270.46 297.94 270.48 297.93 270.5 297.91 270.52 297.89 270.54 297.87 270.56 297.85 270.58 297.83 270.6 297.81 270.62 297.78 270.64 297.76 270.66 297.73 270.67 297.71 270.69 297.68 270.71 297.66 270.72 297.63 270.74"/></g><g id="POLYLINE-55" data-name="POLYLINE"><line class="cls-2" x1="295.89" y1="273" x2="295.89" y2="274.95"/></g><g id="POLYLINE-56" data-name="POLYLINE"><polyline class="cls-2" points="295.89 274.95 295.89 274.99 295.89 275.03 295.89 275.07 295.89 275.11 295.88 275.15 295.88 275.19 295.87 275.24 295.86 275.28 295.86 275.32 295.85 275.36 295.84 275.4 295.83 275.44 295.81 275.48 295.8 275.52 295.79 275.56 295.78 275.6 295.76 275.64 295.75 275.68 295.73 275.72 295.71 275.76 295.69 275.8 295.67 275.84 295.65 275.88 295.63 275.92 295.61 275.96 295.59 275.99 295.56 276.03 295.54 276.07 295.49 276.14 295.44 276.22 295.38 276.29 295.32 276.36 295.26 276.43 295.2 276.5 295.13 276.57 295.06 276.63 294.99 276.7 294.92 276.76 294.84 276.82 294.76 276.88 294.69 276.94 294.61 277 294.52 277.05 294.44 277.11 294.35 277.16 294.27 277.21 294.18 277.26 294.09 277.31 294 277.36 293.9 277.41 293.8 277.45 293.7 277.5 293.6 277.54 293.49 277.59 293.27 277.67 293.04 277.75 292.8 277.82 292.55 277.89 292.29 277.95 292.03 278 291.76 278.04 291.48 278.08 291.2 278.11 290.92 278.13 290.63 278.14 290.34 278.15 290.06 278.14 289.77 278.13 289.49 278.11 289.21 278.08 288.93 278.04 288.66 278 288.4 277.95 288.14 277.89 287.89 277.82 287.65 277.75 287.42 277.67 287.2 277.59 287.09 277.54 286.99 277.5 286.89 277.45 286.79 277.41 286.69 277.36 286.6 277.31 286.51 277.26 286.42 277.21"/></g><g id="POLYLINE-57" data-name="POLYLINE"><line class="cls-2" x1="297.63" y1="266.85" x2="294.27" y2="268.8"/></g><g id="POLYLINE-58" data-name="POLYLINE"><line class="cls-2" x1="280.81" y1="275.27" x2="274.95" y2="268.24"/></g><g id="POLYLINE-59" data-name="POLYLINE"><line class="cls-2" x1="274.95" y1="268.24" x2="274.95" y2="272.12"/></g><g id="POLYLINE-60" data-name="POLYLINE"><polyline class="cls-2" points="294.27 270.74 294.35 270.79 294.44 270.84 294.52 270.9 294.61 270.95 294.69 271.01 294.76 271.07 294.84 271.13 294.92 271.19 294.99 271.25 295.06 271.32 295.13 271.38 295.2 271.45 295.26 271.52 295.32 271.59 295.38 271.66 295.44 271.73 295.49 271.81 295.54 271.88 295.56 271.92 295.59 271.95 295.61 271.99 295.63 272.03 295.65 272.07 295.67 272.11 295.69 272.15 295.71 272.19 295.73 272.23 295.75 272.27 295.76 272.31 295.78 272.35 295.79 272.39 295.8 272.43 295.81 272.47 295.83 272.51 295.84 272.55 295.85 272.59 295.86 272.63 295.86 272.67 295.87 272.71 295.88 272.75 295.88 272.8 295.89 272.84 295.89 272.88 295.89 272.92 295.89 272.96 295.89 273"/></g><g id="POLYLINE-61" data-name="POLYLINE"><polyline class="cls-2" points="295.89 273 295.89 273.05 295.89 273.09 295.89 273.13 295.89 273.17 295.88 273.21 295.88 273.25 295.87 273.29 295.86 273.33 295.86 273.38 295.85 273.42 295.84 273.46 295.83 273.5 295.81 273.54 295.8 273.58 295.79 273.62 295.78 273.66 295.76 273.7 295.75 273.74 295.73 273.78 295.71 273.82 295.69 273.86 295.67 273.9 295.65 273.94 295.63 273.98 295.61 274.01 295.59 274.05 295.56 274.09 295.54 274.13 295.49 274.2 295.44 274.28 295.38 274.35 295.32 274.42 295.26 274.49 295.2 274.56 295.13 274.63 295.06 274.69 294.99 274.76 294.92 274.82 294.84 274.88 294.76 274.94 294.69 275 294.61 275.06 294.52 275.11 294.44 275.17 294.35 275.22 294.27 275.27 294.18 275.32 294.09 275.37 294 275.42 293.9 275.46 293.8 275.51 293.7 275.56 293.6 275.6 293.49 275.64 293.27 275.73 293.04 275.81 292.8 275.88 292.55 275.94 292.29 276 292.03 276.06 291.76 276.1 291.48 276.14 291.2 276.17 290.92 276.19 290.63 276.2 290.34 276.21 290.06 276.2 289.77 276.19 289.49 276.17 289.21 276.14 288.93 276.1 288.66 276.06 288.4 276 288.14 275.94 287.89 275.88 287.65 275.81 287.42 275.73 287.2 275.64 287.09 275.6 286.99 275.56 286.89 275.51 286.79 275.46 286.69 275.42 286.6 275.37 286.51 275.32 286.42 275.27"/></g><g id="POLYLINE-62" data-name="POLYLINE"><polyline class="cls-2" points="212.82 234.76 212.8 234.77 212.77 234.79 212.75 234.8 212.73 234.82 212.7 234.84 212.68 234.85 212.66 234.87 212.64 234.89 212.62 234.9 212.6 234.92 212.58 234.94 212.56 234.96 212.54 234.98 212.52 235 212.5 235.02 212.49 235.04 212.47 235.06 212.46 235.08 212.45 235.09 212.45 235.11 212.44 235.12 212.43 235.13 212.43 235.14 212.42 235.15 212.42 235.16 212.41 235.17 212.41 235.18 212.4 235.19 212.4 235.21 212.39 235.22 212.39 235.23 212.38 235.24 212.38 235.25 212.38 235.26 212.37 235.28 212.37 235.29 212.37 235.3 212.37 235.31 212.37 235.32 212.36 235.33 212.36 235.35 212.36 235.36 212.36 235.37 212.36 235.38 212.36 235.39 212.36 235.41"/></g><g id="POLYLINE-63" data-name="POLYLINE"><line class="cls-2" x1="225" y1="239.44" x2="225" y2="239.81"/></g><g id="POLYLINE-64" data-name="POLYLINE"><line class="cls-2" x1="212.82" y1="239.94" x2="220.9" y2="242.18"/></g><g id="POLYLINE-65" data-name="POLYLINE"><polyline class="cls-2" points="225 239.44 225.05 239.45 225.1 239.47 225.15 239.49 225.2 239.51 225.24 239.53 225.29 239.55 225.33 239.57 225.37 239.6"/></g><g id="POLYLINE-66" data-name="POLYLINE"><line class="cls-2" x1="219.36" y1="243.06" x2="219.36" y2="246.95"/></g><g id="POLYLINE-67" data-name="POLYLINE"><line class="cls-2" x1="225.34" y1="246.52" x2="225.34" y2="250.4"/></g><g id="POLYLINE-68" data-name="POLYLINE"><line class="cls-2" x1="219.36" y1="246.95" x2="225.34" y2="250.4"/></g><g id="POLYLINE-69" data-name="POLYLINE"><line class="cls-2" x1="225.34" y1="246.52" x2="230.95" y2="243.28"/></g><g id="POLYLINE-70" data-name="POLYLINE"><line class="cls-2" x1="230.95" y1="243.28" x2="230.95" y2="247.16"/></g><g id="POLYLINE-71" data-name="POLYLINE"><line class="cls-2" x1="225.34" y1="250.4" x2="230.95" y2="247.16"/></g><g id="POLYLINE-72" data-name="POLYLINE"><line class="cls-2" x1="230.95" y1="243.28" x2="235.64" y2="245.98"/></g><g id="POLYLINE-73" data-name="POLYLINE"><line class="cls-2" x1="235.64" y1="245.98" x2="235.64" y2="249.87"/></g><g id="POLYLINE-74" data-name="POLYLINE"><line class="cls-2" x1="230.95" y1="247.16" x2="235.64" y2="249.87"/></g><g id="POLYLINE-75" data-name="POLYLINE"><line class="cls-2" x1="235.64" y1="245.98" x2="240.85" y2="252.23"/></g><g id="POLYLINE-76" data-name="POLYLINE"><line class="cls-2" x1="240.85" y1="252.23" x2="240.85" y2="256.12"/></g><g id="POLYLINE-77" data-name="POLYLINE"><line class="cls-2" x1="235.64" y1="249.87" x2="240.85" y2="256.12"/></g><g id="POLYLINE-78" data-name="POLYLINE"><polyline class="cls-2" points="240.85 252.23 240.88 252.25 240.9 252.26 240.93 252.28 240.96 252.29 240.98 252.3 241.01 252.32 241.04 252.33 241.07 252.34 241.14 252.37 241.2 252.39 241.27 252.41 241.34 252.43 241.41 252.44 241.49 252.46 241.57 252.47 241.65 252.48 241.73 252.49 241.81 252.5 241.89 252.5 241.97 252.5 242.05 252.5 242.13 252.5 242.22 252.49 242.3 252.48 242.38 252.47 242.45 252.46 242.53 252.44 242.6 252.43 242.67 252.41 242.74 252.39 242.81 252.37 242.87 252.34 242.9 252.33 242.93 252.32 242.96 252.3 242.99 252.29 243.01 252.28 243.04 252.26 243.07 252.25 243.09 252.23"/></g><g id="POLYLINE-79" data-name="POLYLINE"><polyline class="cls-2" points="240.85 256.12 240.88 256.13 240.9 256.15 240.93 256.16 240.96 256.17 240.98 256.19 241.01 256.2 241.04 256.21 241.07 256.23 241.14 256.25 241.2 256.27 241.27 256.29 241.34 256.31 241.41 256.33 241.49 256.34 241.57 256.36 241.65 256.37 241.73 256.38 241.81 256.38 241.89 256.38 241.97 256.39 242.05 256.38 242.13 256.38 242.22 256.38 242.3 256.37 242.38 256.36 242.45 256.34 242.53 256.33 242.6 256.31 242.67 256.29 242.74 256.27 242.81 256.25 242.87 256.23 242.9 256.21 242.93 256.2 242.96 256.19 242.99 256.17 243.01 256.16 243.04 256.15 243.07 256.13 243.09 256.12"/></g><g id="POLYLINE-80" data-name="POLYLINE"><line class="cls-2" x1="243.09" y1="252.23" x2="246.46" y2="250.29"/></g><g id="POLYLINE-81" data-name="POLYLINE"><line class="cls-2" x1="243.09" y1="256.12" x2="246.46" y2="254.18"/></g><g id="POLYLINE-82" data-name="POLYLINE"><polyline class="cls-2" points="246.46 254.18 246.54 254.23 246.63 254.28 246.73 254.32 246.82 254.37 246.92 254.42 247.03 254.46 247.13 254.51 247.24 254.55 247.46 254.63 247.69 254.71 247.93 254.78 248.18 254.85 248.43 254.91 248.7 254.96 248.97 255.01 249.24 255.05 249.52 255.08 249.81 255.1 250.09 255.11 250.38 255.11 250.67 255.11 250.95 255.1 251.24 255.08 251.52 255.05 251.79 255.01 252.06 254.96 252.33 254.91 252.58 254.85 252.83 254.78 253.07 254.71 253.3 254.63 253.52 254.55 253.63 254.51 253.74 254.46 253.84 254.42 253.94 254.37 254.03 254.32 254.13 254.28 254.22 254.23 254.3 254.18 254.39 254.13 254.47 254.07 254.56 254.02 254.64 253.96 254.72 253.91 254.8 253.85 254.88 253.79 254.95 253.73 255.03 253.66 255.1 253.6 255.16 253.53 255.23 253.47 255.3 253.4 255.36 253.33 255.42 253.25 255.47 253.18 255.53 253.11 255.58 253.03 255.6 253 255.62 252.96 255.65 252.92 255.67 252.88 255.69 252.84 255.71 252.81 255.73 252.77 255.75 252.73 255.76 252.69 255.78 252.65 255.8 252.61 255.81 252.57 255.82 252.53 255.84 252.49 255.85 252.45 255.86 252.41 255.87 252.36 255.88 252.32 255.89 252.28 255.9 252.24 255.91 252.2 255.91 252.16 255.92 252.12 255.92 252.08 255.93 252.03 255.93 251.99 255.93 251.95 255.93 251.91"/></g><g id="POLYLINE-83" data-name="POLYLINE"><polyline class="cls-2" points="257.67 243.82 257.69 243.8 257.72 243.79 257.75 243.77 257.77 243.75 257.79 243.74 257.82 243.72 257.84 243.7 257.86 243.68 257.88 243.66 257.9 243.64 257.92 243.63 257.94 243.6 257.96 243.59 257.98 243.56 258 243.54 258.01 243.52 258.02 243.5 258.04 243.48 258.05 243.47 258.05 243.46 258.06 243.45 258.06 243.44 258.07 243.43 258.07 243.41 258.08 243.4 258.08 243.39 258.09 243.38 258.09 243.37 258.1 243.36 258.1 243.35 258.11 243.34 258.11 243.33 258.11 243.32 258.12 243.31 258.12 243.29 258.12 243.28 258.12 243.27 258.12 243.26 258.13 243.25 258.13 243.24 258.13 243.23 258.13 243.22 258.13 243.21 258.13 243.19 258.13 243.18 258.13 243.17"/></g><g id="POLYLINE-84" data-name="POLYLINE"><polyline class="cls-2" points="257.67 247.7 257.69 247.69 257.72 247.67 257.75 247.66 257.77 247.64 257.79 247.62 257.82 247.6 257.84 247.59 257.86 247.57 257.88 247.55 257.9 247.53 257.92 247.51 257.94 247.49 257.96 247.47 257.98 247.45 258 247.43 258.01 247.41 258.02 247.38 258.04 247.36 258.05 247.35 258.05 247.34 258.06 247.33 258.06 247.32 258.07 247.31 258.07 247.3 258.08 247.29 258.08 247.28 258.09 247.27 258.09 247.25 258.1 247.24 258.1 247.23 258.11 247.22 258.11 247.21 258.11 247.2 258.12 247.19 258.12 247.18 258.12 247.17 258.12 247.16 258.12 247.14 258.13 247.13 258.13 247.12 258.13 247.11 258.13 247.1 258.13 247.09 258.13 247.08 258.13 247.07 258.13 247.06"/></g><g id="POLYLINE-85" data-name="POLYLINE"><line class="cls-2" x1="257.67" y1="242.53" x2="246.84" y2="239.51"/></g><g id="POLYLINE-86" data-name="POLYLINE"><line class="cls-2" x1="247.76" y1="233.57" x2="247.76" y2="237.45"/></g><g id="POLYLINE-87" data-name="POLYLINE"><line class="cls-2" x1="247.76" y1="233.57" x2="241.78" y2="230.12"/></g><g id="POLYLINE-88" data-name="POLYLINE"><line class="cls-2" x1="241.78" y1="230.12" x2="235.78" y2="233.59"/></g><g id="POLYLINE-89" data-name="POLYLINE"><polyline class="cls-2" points="235.78 233.59 235.74 233.56 235.7 233.54 235.66 233.51 235.65 233.5 235.63 233.49 235.61 233.47 235.59 233.46 235.58 233.45 235.56 233.43 235.55 233.42 235.53 233.4 235.52 233.39 235.5 233.38"/></g><g id="POLYLINE-90" data-name="POLYLINE"><line class="cls-2" x1="235.5" y1="233.38" x2="229.64" y2="226.34"/></g><g id="POLYLINE-91" data-name="POLYLINE"><polyline class="cls-2" points="229.64 226.34 229.61 226.33 229.58 226.31 229.56 226.3 229.53 226.28 229.5 226.27 229.47 226.26 229.43 226.24 229.4 226.23 229.37 226.22 229.34 226.21 229.27 226.18 229.2 226.16 229.13 226.15 229.05 226.13 228.98 226.11 228.9 226.1 228.82 226.09 228.75 226.09 228.67 226.08 228.59 226.08 228.52 226.07 228.44 226.08 228.37 226.08 228.29 226.09 228.21 226.09 228.14 226.1 228.06 226.11 227.99 226.13 227.91 226.15 227.84 226.16 227.77 226.18 227.7 226.21 227.67 226.22 227.63 226.23 227.6 226.24 227.57 226.26 227.54 226.27 227.51 226.28 227.48 226.3 227.45 226.31 227.42 226.33 227.4 226.34"/></g><g id="POLYLINE-92" data-name="POLYLINE"><line class="cls-2" x1="227.4" y1="226.34" x2="224.03" y2="228.29"/></g><g id="POLYLINE-93" data-name="POLYLINE"><line class="cls-2" x1="254.3" y1="247.7" x2="246.46" y2="252.23"/></g><g id="POLYLINE-94" data-name="POLYLINE"><line class="cls-2" x1="254.3" y1="245.76" x2="246.46" y2="250.29"/></g><g id="POLYLINE-95" data-name="POLYLINE"><line class="cls-2" x1="246.46" y1="252.23" x2="246.46" y2="254.18"/></g><g id="POLYLINE-96" data-name="POLYLINE"><line class="cls-2" x1="212.36" y1="239.29" x2="212.36" y2="235.41"/></g><g id="POLYLINE-97" data-name="POLYLINE"><polyline class="cls-2" points="212.36 239.29 212.36 239.3 212.36 239.31 212.36 239.32 212.36 239.34 212.36 239.35 212.36 239.36 212.37 239.37 212.37 239.38 212.37 239.4 212.37 239.41 212.37 239.42 212.38 239.43 212.38 239.44 212.38 239.45 212.39 239.47 212.39 239.48 212.4 239.49 212.4 239.5 212.41 239.51 212.41 239.52 212.42 239.53 212.42 239.54 212.43 239.56 212.43 239.57 212.44 239.58 212.45 239.59 212.45 239.6 212.46 239.61 212.47 239.63 212.49 239.65 212.5 239.67 212.52 239.69 212.54 239.71 212.56 239.73 212.58 239.75 212.6 239.77 212.62 239.79 212.64 239.81 212.66 239.82 212.68 239.84 212.7 239.86 212.73 239.88 212.75 239.89 212.77 239.91 212.8 239.92 212.82 239.94"/></g><g id="POLYLINE-98" data-name="POLYLINE"><polyline class="cls-2" points="212.36 235.41 212.36 235.42 212.36 235.43 212.36 235.44 212.36 235.45 212.36 235.46 212.36 235.48 212.37 235.49 212.37 235.5 212.37 235.51 212.37 235.52 212.37 235.53 212.38 235.55 212.38 235.56 212.38 235.57 212.39 235.58 212.39 235.59 212.4 235.6 212.4 235.62 212.41 235.63 212.41 235.64 212.42 235.65 212.42 235.66 212.43 235.67 212.43 235.68 212.44 235.69 212.45 235.71 212.45 235.72 212.46 235.73 212.47 235.75 212.49 235.77 212.5 235.79 212.52 235.81 212.54 235.83 212.56 235.85 212.58 235.87 212.6 235.89 212.62 235.91 212.64 235.92 212.66 235.94 212.68 235.96 212.7 235.97 212.73 235.99 212.75 236.01 212.77 236.02 212.8 236.04 212.82 236.05"/></g><g id="POLYLINE-99" data-name="POLYLINE"><line class="cls-2" x1="255.93" y1="249.97" x2="255.93" y2="251.91"/></g><g id="POLYLINE-100" data-name="POLYLINE"><line class="cls-2" x1="258.13" y1="243.17" x2="258.13" y2="247.06"/></g><g id="POLYLINE-101" data-name="POLYLINE"><polyline class="cls-2" points="258.13 243.17 258.13 243.16 258.13 243.15 258.13 243.14 258.13 243.13 258.13 243.12 258.13 243.11 258.13 243.09 258.12 243.08 258.12 243.07 258.12 243.06 258.12 243.05 258.12 243.04 258.11 243.03 258.11 243.02 258.11 243.01 258.1 243 258.1 242.98 258.09 242.97 258.09 242.96 258.08 242.95 258.08 242.94 258.07 242.93 258.07 242.92 258.06 242.91 258.06 242.9 258.05 242.89 258.05 242.88 258.04 242.87 258.02 242.84 258.01 242.82 258 242.8 257.98 242.78 257.96 242.76 257.94 242.74 257.92 242.72 257.9 242.7 257.88 242.68 257.86 242.66 257.84 242.64 257.82 242.63 257.79 242.61 257.77 242.59 257.75 242.57 257.72 242.56 257.69 242.54 257.67 242.53"/></g><g id="POLYLINE-102" data-name="POLYLINE"><line class="cls-2" x1="255.61" y1="248.89" x2="257.67" y2="247.7"/></g><g id="POLYLINE-103" data-name="POLYLINE"><line class="cls-2" x1="245.52" y1="238.75" x2="247.76" y2="237.45"/></g><g id="POLYLINE-104" data-name="POLYLINE"><polyline class="cls-2" points="221.97 229.47 221.79 229.44 221.59 229.41 221.4 229.38 221.2 229.35 221 229.33 220.81 229.31 220.6 229.3 220.4 229.29 220.2 229.29 219.99 229.29 219.79 229.29 219.59 229.3 219.38 229.32 219.19 229.33 218.99 229.35 218.79 229.38 218.6 229.41 218.41 229.44 218.22 229.48 218.03 229.52 217.85 229.56 217.68 229.61 217.51 229.66 217.34 229.72 217.18 229.77 217.02 229.83 216.87 229.89 216.72 229.96 216.58 230.02 216.44 230.09 216.31 230.16 216.19 230.23 216.1 230.28 216.01 230.33 215.93 230.38 215.85 230.44 215.77 230.5 215.69 230.56 215.61 230.62 215.54 230.68 215.46 230.74 215.39 230.81 215.32 230.87 215.26 230.94 215.19 231.01 215.13 231.08 215.07 231.15 215.02 231.22 214.96 231.29 214.91 231.37 214.89 231.41 214.87 231.44 214.84 231.48 214.82 231.52 214.8 231.56 214.78 231.6 214.76 231.64 214.74 231.68 214.73 231.72 214.71 231.76 214.69 231.8 214.68 231.84 214.66 231.88 214.65 231.92 214.64 231.96 214.63 232 214.62 232.04 214.61 232.08 214.6 232.12 214.59 232.16 214.58 232.2 214.58 232.24 214.57 232.28 214.57 232.33 214.56 232.37 214.56 232.41 214.56 232.45 214.56 232.49"/></g><g id="POLYLINE-105" data-name="POLYLINE"><line class="cls-2" x1="214.56" y1="233.75" x2="214.56" y2="232.49"/></g><g id="POLYLINE-106" data-name="POLYLINE"><line class="cls-2" x1="216.19" y1="232.82" x2="212.82" y2="234.76"/></g><g id="POLYLINE-107" data-name="POLYLINE"><line class="cls-2" x1="212.82" y1="236.05" x2="212.82" y2="239.94"/></g><g id="POLYLINE-108" data-name="POLYLINE"><line class="cls-2" x1="212.82" y1="236.05" x2="225" y2="239.44"/></g><g id="POLYLINE-109" data-name="POLYLINE"><line class="cls-2" x1="225.37" y1="239.6" x2="219.36" y2="243.06"/></g><g id="POLYLINE-110" data-name="POLYLINE"><line class="cls-2" x1="219.36" y1="243.06" x2="225.34" y2="246.52"/></g><g id="POLYLINE-111" data-name="POLYLINE"><line class="cls-2" x1="254.3" y1="245.76" x2="257.67" y2="243.82"/></g><g id="POLYLINE-112" data-name="POLYLINE"><line class="cls-2" x1="246.84" y1="239.51" x2="242.15" y2="236.81"/></g><g id="POLYLINE-113" data-name="POLYLINE"><line class="cls-2" x1="242.15" y1="236.81" x2="247.76" y2="233.57"/></g><g id="POLYLINE-114" data-name="POLYLINE"><line class="cls-2" x1="216.19" y1="232.82" x2="224.03" y2="228.29"/></g><g id="POLYLINE-115" data-name="POLYLINE"><polyline class="cls-2" points="246.46 252.23 246.54 252.28 246.63 252.33 246.73 252.38 246.82 252.43 246.92 252.47 247.03 252.52 247.13 252.56 247.24 252.61 247.46 252.69 247.69 252.77 247.93 252.84 248.18 252.91 248.43 252.97 248.7 253.02 248.97 253.07 249.24 253.1 249.52 253.13 249.81 253.16 250.09 253.17 250.38 253.17 250.67 253.17 250.95 253.16 251.24 253.13 251.52 253.1 251.79 253.07 252.06 253.02 252.33 252.97 252.58 252.91 252.83 252.84 253.07 252.77 253.3 252.69 253.52 252.61 253.63 252.56 253.74 252.52 253.84 252.47 253.94 252.43 254.03 252.38 254.13 252.33 254.22 252.28 254.3 252.23 254.39 252.18 254.47 252.13 254.56 252.08 254.64 252.02 254.72 251.96 254.8 251.91 254.88 251.85 254.95 251.78 255.03 251.72 255.1 251.66 255.16 251.59 255.23 251.52 255.3 251.46 255.36 251.38 255.42 251.31 255.47 251.24 255.53 251.17 255.58 251.09 255.6 251.06 255.62 251.02 255.65 250.98 255.67 250.94 255.69 250.9 255.71 250.86 255.73 250.82 255.75 250.78 255.76 250.75 255.78 250.71 255.8 250.66 255.81 250.63 255.82 250.59 255.84 250.54 255.85 250.5 255.86 250.46 255.87 250.42 255.88 250.38 255.89 250.34 255.9 250.3 255.91 250.26 255.91 250.22 255.92 250.18 255.92 250.13 255.93 250.09 255.93 250.05 255.93 250.01 255.93 249.97"/></g><g id="POLYLINE-116" data-name="POLYLINE"><polyline class="cls-2" points="255.93 249.97 255.93 249.93 255.93 249.89 255.93 249.84 255.92 249.8 255.92 249.76 255.91 249.72 255.91 249.68 255.9 249.64 255.89 249.6 255.88 249.56 255.87 249.51 255.86 249.47 255.85 249.43 255.84 249.39 255.82 249.35 255.81 249.31 255.8 249.27 255.78 249.23 255.76 249.19 255.75 249.15 255.73 249.11 255.71 249.07 255.69 249.04 255.67 249 255.65 248.96 255.62 248.92 255.6 248.88 255.58 248.84 255.53 248.77 255.47 248.7 255.42 248.62 255.36 248.55 255.3 248.48 255.23 248.41 255.16 248.35 255.1 248.28 255.03 248.22 254.95 248.15 254.88 248.09 254.8 248.03 254.72 247.97 254.64 247.92 254.56 247.86 254.47 247.81 254.39 247.75 254.3 247.7"/></g><g id="POLYLINE-117" data-name="POLYLINE"><polyline class="cls-2" points="214.56 232.49 214.56 232.53 214.56 232.56 214.56 232.6 214.57 232.63 214.57 232.66 214.57 232.7 214.58 232.73 214.58 232.77 214.59 232.8 214.59 232.84 214.6 232.87 214.61 232.91 214.62 232.94 214.62 232.97 214.63 233.01 214.64 233.04 214.66 233.11 214.69 233.18 214.72 233.24 214.74 233.31 214.78 233.38 214.81 233.44 214.84 233.5 214.88 233.57"/></g><g id="POLYLINE-118" data-name="POLYLINE"><line class="cls-2" x1="173.23" y1="197.38" x2="185.41" y2="200.77"/></g><g id="POLYLINE-119" data-name="POLYLINE"><polyline class="cls-2" points="185.41 200.77 185.44 200.78 185.46 200.8 185.49 200.81 185.51 200.83 185.53 200.85 185.55 200.86 185.58 200.88 185.6 200.9 185.62 200.92 185.64 200.94 185.66 200.95 185.68 200.97 185.69 200.99 185.71 201.01 185.73 201.03 185.75 201.05 185.76 201.07 185.78 201.1 185.78 201.11 185.79 201.12 185.79 201.13 185.8 201.14 185.81 201.15 185.81 201.16 185.82 201.17 185.82 201.19 185.83 201.2 185.83 201.21 185.84 201.22 185.84 201.23 185.85 201.24 185.85 201.25 185.85 201.26 185.86 201.28 185.86 201.29 185.86 201.3 185.87 201.31 185.87 201.32 185.87 201.34 185.87 201.35 185.87 201.36 185.87 201.37 185.88 201.38 185.88 201.39 185.88 201.41 185.88 201.42"/></g><g id="POLYLINE-120" data-name="POLYLINE"><line class="cls-2" x1="185.41" y1="205.95" x2="183.35" y2="207.14"/></g><g id="POLYLINE-121" data-name="POLYLINE"><line class="cls-2" x1="174.2" y1="212.42" x2="174.2" y2="210.48"/></g><g id="POLYLINE-122" data-name="POLYLINE"><line class="cls-2" x1="174.2" y1="212.42" x2="170.84" y2="214.36"/></g><g id="POLYLINE-123" data-name="POLYLINE"><line class="cls-2" x1="174.2" y1="208.54" x2="170.84" y2="210.48"/></g><g id="POLYLINE-124" data-name="POLYLINE"><polyline class="cls-2" points="170.84 214.36 170.81 214.38 170.78 214.39 170.75 214.41 170.72 214.42 170.69 214.44 170.66 214.45 170.63 214.46 170.6 214.48 170.57 214.49 170.53 214.5 170.47 214.52 170.4 214.54 170.32 214.56 170.25 214.58 170.18 214.59 170.1 214.6 170.02 214.61 169.95 214.62 169.87 214.63 169.79 214.63 169.72 214.63 169.64 214.63 169.56 214.63 169.49 214.62 169.41 214.61 169.33 214.6 169.26 214.59 169.18 214.58 169.11 214.56 169.04 214.54 168.97 214.52 168.9 214.5 168.87 214.49 168.83 214.48 168.8 214.46 168.77 214.45 168.74 214.44 168.71 214.42 168.68 214.41 168.65 214.39 168.62 214.38 168.59 214.36"/></g><g id="POLYLINE-125" data-name="POLYLINE"><line class="cls-2" x1="168.6" y1="214.36" x2="168.6" y2="210.48"/></g><g id="POLYLINE-126" data-name="POLYLINE"><polyline class="cls-2" points="170.84 210.48 170.81 210.5 170.78 210.51 170.75 210.53 170.72 210.54 170.69 210.55 170.66 210.57 170.63 210.58 170.6 210.59 170.57 210.6 170.53 210.62 170.47 210.64 170.4 210.66 170.32 210.68 170.25 210.69 170.18 210.71 170.1 210.72 170.02 210.73 169.95 210.74 169.87 210.74 169.79 210.75 169.72 210.75 169.64 210.75 169.56 210.74 169.49 210.74 169.41 210.73 169.33 210.72 169.26 210.71 169.18 210.69 169.11 210.68 169.04 210.66 168.97 210.64 168.9 210.62 168.87 210.6 168.83 210.59 168.8 210.58 168.77 210.57 168.74 210.55 168.71 210.54 168.68 210.53 168.65 210.51 168.62 210.5 168.59 210.48"/></g><g id="POLYLINE-127" data-name="POLYLINE"><line class="cls-2" x1="168.6" y1="214.36" x2="162.73" y2="207.33"/></g><g id="POLYLINE-128" data-name="POLYLINE"><line class="cls-2" x1="162.73" y1="207.33" x2="162.73" y2="203.45"/></g><g id="POLYLINE-129" data-name="POLYLINE"><line class="cls-2" x1="168.6" y1="210.48" x2="162.73" y2="203.45"/></g><g id="POLYLINE-130" data-name="POLYLINE"><polyline class="cls-2" points="162.73 207.33 162.72 207.32 162.7 207.3 162.69 207.29 162.67 207.28 162.66 207.26 162.64 207.25 162.63 207.23 162.61 207.22 162.59 207.21 162.57 207.19 162.54 207.17 162.5 207.14 162.46 207.12 162.41 207.1 162.37 207.07 162.33 207.05 162.28 207.03 162.24 207.01 162.19 206.99 162.14 206.98 162.09 206.96"/></g><g id="POLYLINE-131" data-name="POLYLINE"><line class="cls-2" x1="162.09" y1="206.96" x2="162.09" y2="203.08"/></g><g id="POLYLINE-132" data-name="POLYLINE"><polyline class="cls-2" points="162.73 203.45 162.72 203.43 162.7 203.42 162.69 203.41 162.67 203.39 162.66 203.38 162.64 203.36 162.63 203.35 162.61 203.34 162.59 203.32 162.57 203.31 162.54 203.28 162.5 203.26 162.46 203.24 162.41 203.21 162.37 203.19 162.33 203.17 162.28 203.15 162.24 203.13 162.19 203.11 162.14 203.09 162.09 203.08"/></g><g id="POLYLINE-133" data-name="POLYLINE"><line class="cls-2" x1="162.09" y1="206.96" x2="149.91" y2="203.58"/></g><g id="POLYLINE-134" data-name="POLYLINE"><polyline class="cls-2" points="149.91 203.57 149.88 203.56 149.86 203.54 149.83 203.53 149.81 203.51 149.78 203.49 149.76 203.47 149.74 203.46 149.71 203.44 149.69 203.42 149.67 203.4 149.65 203.38 149.63 203.36 149.62 203.34 149.6 203.32 149.58 203.3 149.57 203.28 149.55 203.26 149.54 203.24 149.53 203.22 149.53 203.21 149.52 203.2 149.51 203.19 149.51 203.18 149.5 203.17 149.5 203.16 149.49 203.15 149.49 203.14 149.48 203.13 149.48 203.12 149.47 203.1 149.47 203.09 149.47 203.08 149.47 203.07 149.46 203.06 149.46 203.05 149.46 203.04 149.46 203.03 149.45 203.02 149.45 203 149.45 202.99 149.45 202.98 149.45 202.97 149.45 202.96 149.45 202.95 149.45 202.94 149.45 202.93"/></g><g id="POLYLINE-135" data-name="POLYLINE"><polyline class="cls-2" points="149.91 199.69 149.88 199.68 149.86 199.66 149.83 199.64 149.81 199.63 149.78 199.61 149.76 199.59 149.74 199.57 149.71 199.55 149.69 199.53 149.67 199.52 149.65 199.5 149.63 199.48 149.62 199.46 149.6 199.44 149.58 199.42 149.57 199.4 149.55 199.37 149.54 199.35 149.53 199.34 149.53 199.33 149.52 199.32 149.51 199.31 149.51 199.3 149.5 199.29 149.5 199.28 149.49 199.26 149.49 199.25 149.48 199.24 149.48 199.23 149.47 199.22 149.47 199.21 149.47 199.2 149.47 199.19 149.46 199.18 149.46 199.17 149.46 199.16 149.46 199.14 149.45 199.13 149.45 199.12 149.45 199.11 149.45 199.1 149.45 199.09 149.45 199.08 149.45 199.07 149.45 199.06 149.45 199.04"/></g><g id="POLYLINE-136" data-name="POLYLINE"><line class="cls-2" x1="161.12" y1="191.92" x2="164.48" y2="189.98"/></g><g id="POLYLINE-137" data-name="POLYLINE"><polyline class="cls-2" points="164.48 189.98 164.51 189.97 164.53 189.95 164.56 189.94 164.59 189.93 164.62 189.91 164.65 189.9 164.68 189.89 164.71 189.88 164.77 189.85 164.84 189.83 164.91 189.81 164.98 189.79 165.05 189.77 165.13 189.76 165.2 189.75 165.28 189.73 165.36 189.72 165.44 189.72 165.52 189.72 165.6 189.71 165.69 189.72 165.77 189.72 165.85 189.72 165.93 189.73 166.01 189.75 166.09 189.76 166.16 189.77 166.24 189.79 166.31 189.81 166.38 189.83 166.44 189.85 166.5 189.88 166.53 189.89 166.56 189.9 166.59 189.91 166.62 189.93 166.65 189.94 166.68 189.95 166.7 189.97 166.73 189.98"/></g><g id="POLYLINE-138" data-name="POLYLINE"><line class="cls-2" x1="166.73" y1="189.98" x2="172.59" y2="197.01"/></g><g id="POLYLINE-139" data-name="POLYLINE"><polyline class="cls-2" points="172.59 197.01 172.6 197.03 172.62 197.04 172.63 197.06 172.65 197.07 172.66 197.09 172.68 197.1 172.7 197.11 172.71 197.13 172.73 197.14 172.75 197.15 172.79 197.18 172.82 197.2 172.87 197.23 172.91 197.25 172.95 197.27 172.99 197.29 173.04 197.31 173.09 197.33 173.13 197.35 173.18 197.37 173.23 197.38"/></g><g id="POLYLINE-140" data-name="POLYLINE"><line class="cls-2" x1="174.2" y1="210.48" x2="182.05" y2="205.95"/></g><g id="POLYLINE-141" data-name="POLYLINE"><line class="cls-2" x1="174.2" y1="208.54" x2="182.05" y2="204.01"/></g><g id="POLYLINE-142" data-name="POLYLINE"><line class="cls-2" x1="185.88" y1="201.42" x2="185.88" y2="205.3"/></g><g id="POLYLINE-143" data-name="POLYLINE"><polyline class="cls-2" points="185.88 201.42 185.88 201.43 185.88 201.44 185.88 201.45 185.87 201.47 185.87 201.48 185.87 201.49 185.87 201.5 185.87 201.51 185.87 201.52 185.86 201.54 185.86 201.55 185.86 201.56 185.85 201.57 185.85 201.58 185.85 201.59 185.84 201.6 185.84 201.62 185.83 201.63 185.83 201.64 185.82 201.65 185.82 201.66 185.81 201.67 185.81 201.68 185.8 201.69 185.79 201.71 185.79 201.72 185.78 201.73 185.78 201.74 185.76 201.76 185.75 201.78 185.73 201.8 185.71 201.82 185.69 201.84 185.68 201.86 185.66 201.88 185.64 201.9 185.62 201.92 185.6 201.94 185.58 201.95 185.55 201.97 185.53 201.99 185.51 202 185.49 202.02 185.46 202.03 185.44 202.05 185.41 202.06"/></g><g id="POLYLINE-144" data-name="POLYLINE"><polyline class="cls-2" points="185.88 205.3 185.88 205.31 185.88 205.32 185.88 205.34 185.87 205.35 185.87 205.36 185.87 205.37 185.87 205.38 185.87 205.4 185.87 205.41 185.86 205.42 185.86 205.43 185.86 205.44 185.85 205.45 185.85 205.47 185.85 205.48 185.84 205.49 185.84 205.5 185.83 205.51 185.83 205.52 185.82 205.53 185.82 205.55 185.81 205.56 185.81 205.57 185.8 205.58 185.79 205.59 185.79 205.6 185.78 205.61 185.78 205.62 185.76 205.64 185.75 205.66 185.73 205.69 185.71 205.71 185.69 205.73 185.68 205.75 185.66 205.76 185.64 205.78 185.62 205.8 185.6 205.82 185.58 205.84 185.55 205.85 185.53 205.87 185.51 205.89 185.49 205.9 185.46 205.92 185.44 205.93 185.41 205.95"/></g><g id="POLYLINE-145" data-name="POLYLINE"><line class="cls-2" x1="149.45" y1="202.93" x2="149.45" y2="199.04"/></g><g id="POLYLINE-146" data-name="POLYLINE"><polyline class="cls-2" points="149.45 199.04 149.45 199.03 149.45 199.02 149.45 199.01 149.45 199 149.45 198.99 149.45 198.98 149.45 198.97 149.45 198.96 149.46 198.94 149.46 198.93 149.46 198.92 149.46 198.91 149.47 198.9 149.47 198.89 149.47 198.88 149.47 198.87 149.48 198.86 149.48 198.84 149.49 198.83 149.49 198.82 149.5 198.81 149.5 198.8 149.51 198.79 149.51 198.78 149.52 198.77 149.53 198.76 149.53 198.75 149.54 198.74 149.55 198.72 149.57 198.69 149.58 198.67 149.6 198.65 149.62 198.63 149.63 198.61 149.65 198.59 149.67 198.57 149.69 198.55 149.71 198.53 149.74 198.52 149.76 198.5 149.78 198.48 149.81 198.46 149.83 198.44 149.86 198.43 149.88 198.41 149.91 198.4"/></g><g id="POLYLINE-147" data-name="POLYLINE"><line class="cls-2" x1="183.67" y1="208.21" x2="183.67" y2="210.16"/></g><g id="POLYLINE-148" data-name="POLYLINE"><polyline class="cls-2" points="183.67 210.16 183.67 210.2 183.67 210.24 183.67 210.28 183.67 210.32 183.66 210.36 183.66 210.4 183.65 210.45 183.64 210.49 183.64 210.53 183.63 210.57 183.62 210.61 183.61 210.65 183.6 210.69 183.58 210.73 183.57 210.77 183.56 210.81 183.54 210.85 183.53 210.89 183.51 210.93 183.49 210.97 183.47 211.01 183.45 211.05 183.43 211.09 183.41 211.13 183.39 211.17 183.37 211.2 183.34 211.24 183.32 211.28 183.27 211.35 183.22 211.43 183.16 211.5 183.1 211.57 183.04 211.64 182.98 211.71 182.91 211.78 182.84 211.84 182.77 211.91 182.7 211.97 182.62 212.03 182.54 212.09 182.47 212.15 182.38 212.21 182.3 212.26 182.22 212.32 182.13 212.37 182.05 212.42 181.96 212.47 181.87 212.52 181.78 212.57 181.68 212.62 181.58 212.66 181.48 212.71 181.38 212.75 181.27 212.8 181.05 212.88 180.82 212.96 180.58 213.03 180.33 213.1 180.07 213.16 179.81 213.21 179.54 213.25 179.26 213.29 178.98 213.32 178.7 213.34 178.41 213.35 178.13 213.36 177.84 213.35 177.55 213.34 177.27 213.32 176.99 213.29 176.71 213.25 176.44 213.21 176.18 213.16 175.92 213.1 175.67 213.03 175.43 212.96 175.2 212.88 174.98 212.8 174.87 212.75 174.77 212.71 174.67 212.66 174.57 212.62 174.47 212.57 174.38 212.52 174.29 212.47 174.2 212.42"/></g><g id="POLYLINE-149" data-name="POLYLINE"><polyline class="cls-2" points="151.65 196.13 151.65 196.08 151.65 196.02 151.66 195.96 151.66 195.91 151.67 195.85 151.68 195.79 151.69 195.74 151.7 195.68 151.72 195.62 151.74 195.56 151.75 195.51 151.78 195.45 151.8 195.39 151.82 195.34 151.85 195.28 151.88 195.22 151.91 195.16 151.94 195.11 151.97 195.05 152.01 195 152.05 194.94 152.09 194.88 152.13 194.83 152.17 194.77 152.22 194.72 152.26 194.66 152.31 194.61 152.36 194.56 152.41 194.51 152.47 194.45 152.53 194.4 152.58 194.35 152.64 194.3 152.7 194.25 152.77 194.2 152.83 194.16 152.9 194.11 152.96 194.06 153.03 194.01 153.1 193.97 153.25 193.88 153.39 193.8 153.55 193.72 153.71 193.64 153.87 193.57 154.03 193.5 154.2 193.44 154.37 193.37 154.54 193.32 154.72 193.26 154.9 193.22 155.07 193.17 155.3 193.12 155.53 193.08 155.76 193.04 156.01 193 156.25 192.97 156.5 192.95 156.76 192.94 157.02 192.93 157.27 192.93 157.53 192.93 157.79 192.95 158.05 192.97 158.31 192.99 158.56 193.03 158.81 193.07 159.06 193.11"/></g><g id="POLYLINE-150" data-name="POLYLINE"><line class="cls-2" x1="151.65" y1="197.39" x2="151.65" y2="196.13"/></g><g id="POLYLINE-151" data-name="POLYLINE"><line class="cls-2" x1="185.41" y1="202.06" x2="182.05" y2="204.01"/></g><g id="POLYLINE-152" data-name="POLYLINE"><line class="cls-2" x1="149.91" y1="203.58" x2="149.91" y2="199.69"/></g><g id="POLYLINE-153" data-name="POLYLINE"><line class="cls-2" x1="162.09" y1="203.08" x2="149.91" y2="199.69"/></g><g id="POLYLINE-154" data-name="POLYLINE"><line class="cls-2" x1="149.91" y1="198.4" x2="153.27" y2="196.46"/></g><g id="POLYLINE-155" data-name="POLYLINE"><polyline class="cls-2" points="182.05 205.95 182.14 206 182.23 206.06 182.32 206.12 182.41 206.18 182.49 206.24 182.57 206.3 182.66 206.36 182.73 206.43 182.81 206.5 182.88 206.56 182.95 206.63 183.01 206.7 183.08 206.77 183.14 206.84 183.2 206.91 183.25 206.99 183.3 207.06 183.35 207.14 183.37 207.17 183.4 207.21 183.42 207.25 183.44 207.29 183.46 207.33 183.47 207.36 183.49 207.4 183.51 207.44 183.53 207.48 183.54 207.52 183.56 207.56 183.57 207.59 183.58 207.63 183.59 207.67 183.6 207.71 183.62 207.75 183.63 207.79 183.63 207.83 183.64 207.87 183.65 207.91 183.65 207.94 183.66 207.98 183.66 208.02 183.67 208.06 183.67 208.1 183.67 208.14 183.67 208.18 183.67 208.21"/></g><g id="POLYLINE-156" data-name="POLYLINE"><polyline class="cls-2" points="151.97 197.21 151.93 197.14 151.89 197.08 151.86 197.01 151.83 196.94 151.8 196.88 151.77 196.81 151.75 196.74 151.74 196.71 151.73 196.67 151.72 196.64 151.71 196.6 151.7 196.57 151.69 196.54 151.69 196.5 151.68 196.47 151.67 196.44 151.67 196.4 151.66 196.37 151.66 196.33 151.66 196.3 151.65 196.27 151.65 196.23 151.65 196.2 151.65 196.16 151.65 196.13"/></g><g id="POLYLINE-157" data-name="POLYLINE"><line class="cls-2" x1="153.27" y1="196.46" x2="161.12" y2="191.92"/></g><g id="POLYLINE-158" data-name="POLYLINE"><polyline class="cls-2" points="183.67 208.21 183.67 208.27 183.67 208.33 183.67 208.38 183.66 208.44 183.65 208.5 183.64 208.55 183.63 208.61 183.62 208.67 183.6 208.72 183.59 208.78 183.57 208.84 183.55 208.9 183.52 208.95 183.5 209.01 183.47 209.07 183.44 209.12 183.41 209.18 183.38 209.24 183.35 209.29 183.31 209.35 183.28 209.41 183.24 209.46 183.19 209.52 183.15 209.57 183.1 209.63 183.06 209.68 183.01 209.73 182.96 209.79 182.91 209.84 182.85 209.89 182.8 209.94 182.74 209.99 182.68 210.04 182.62 210.09 182.56 210.14 182.49 210.19 182.43 210.24 182.36 210.28 182.29 210.33 182.22 210.38 182.08 210.46 181.93 210.55 181.78 210.63 181.62 210.7 181.46 210.78 181.29 210.85 181.12 210.91 180.95 210.97 180.78 211.03 180.6 211.08 180.43 211.13 180.25 211.17 180.07 211.22 179.88 211.25 179.69 211.29 179.5 211.32 179.31 211.34 179.11 211.37 178.91 211.39 178.71 211.4 178.5 211.41 178.29 211.42 178.08 211.42 177.88 211.41 177.67 211.41 177.46 211.4 177.25 211.38 177.04 211.36 176.84 211.33 176.63 211.3 176.43 211.26 176.23 211.23 176.04 211.18 175.85 211.14 175.66 211.09 175.48 211.03 175.3 210.97 175.13 210.91 174.96 210.84 174.79 210.78 174.64 210.71 174.49 210.63 174.34 210.56 174.2 210.48"/></g></svg>