<svg id="Layer_1" data-name="Layer 1" xmlns="http://www.w3.org/2000/svg" viewBox="0 0 425.2 425.2"><defs><style>.cls-1,.cls-2{fill:none;stroke-linecap:round;stroke-linejoin:round;}.cls-1{stroke:#000;stroke-width:0.25px;}.cls-2{stroke:#1d1d1b;}</style></defs><line class="cls-1" x1="197.59" y1="238.42" x2="197.59" y2="241.89"/><line class="cls-1" x1="197.59" y1="241.89" x2="197.52" y2="242.3"/><line class="cls-1" x1="197.52" y1="242.3" x2="197.28" y2="242.58"/><line class="cls-1" x1="197.28" y1="242.58" x2="196.92" y2="242.64"/><line class="cls-1" x1="182.11" y1="212.73" x2="182.11" y2="232.96"/><line class="cls-1" x1="182.11" y1="232.96" x2="182.04" y2="233.36"/><line class="cls-1" x1="182.04" y1="233.36" x2="181.8" y2="233.64"/><line class="cls-1" x1="181.56" y1="233.69" x2="181.44" y2="233.71"/><line class="cls-1" x1="181.28" y1="233.65" x2="181.17" y2="233.61"/><line class="cls-1" x1="172.65" y1="181.53" x2="172.69" y2="181.3"/><line class="cls-1" x1="172.73" y1="181.12" x2="172.96" y2="180.84"/><line class="cls-1" x1="172.96" y1="180.84" x2="173.32" y2="180.78"/><line class="cls-1" x1="173.32" y1="180.78" x2="173.71" y2="180.92"/><line class="cls-1" x1="173.71" y1="180.92" x2="196.53" y2="194.09"/><line class="cls-1" x1="196.53" y1="194.09" x2="196.92" y2="194.4"/><line class="cls-1" x1="196.92" y1="194.4" x2="197.28" y2="194.88"/><line class="cls-1" x1="197.28" y1="194.88" x2="197.52" y2="195.44"/><line class="cls-1" x1="197.52" y1="195.44" x2="197.59" y2="195.93"/><line class="cls-1" x1="197.59" y1="195.93" x2="197.59" y2="204.92"/><line class="cls-1" x1="197.06" y1="205.23" x2="197.06" y2="205.84"/><line class="cls-1" x1="200.85" y1="184.08" x2="200.93" y2="183.99"/><line class="cls-1" x1="200.99" y1="183.92" x2="201.09" y2="183.81"/><line class="cls-1" x1="201.09" y1="183.81" x2="201.45" y2="183.74"/><line class="cls-1" x1="201.45" y1="183.74" x2="201.84" y2="183.88"/><line class="cls-1" x1="201.84" y1="183.88" x2="210.86" y2="189.09"/><line class="cls-1" x1="210.86" y1="189.09" x2="211.25" y2="189.4"/><line class="cls-1" x1="211.25" y1="189.4" x2="211.61" y2="189.88"/><line class="cls-1" x1="211.61" y1="189.88" x2="211.85" y2="190.43"/><line class="cls-1" x1="211.85" y1="190.43" x2="211.92" y2="190.93"/><line class="cls-1" x1="211.92" y1="190.93" x2="211.92" y2="201.75"/><line class="cls-1" x1="211.39" y1="202.06" x2="211.39" y2="202.67"/><line class="cls-1" x1="239.59" y1="206.45" x2="239.73" y2="206.29"/><line class="cls-1" x1="239.83" y1="206.17" x2="240.19" y2="206.11"/><line class="cls-1" x1="240.19" y1="206.11" x2="240.58" y2="206.25"/><line class="cls-1" x1="240.58" y1="206.25" x2="249.6" y2="211.46"/><line class="cls-1" x1="249.6" y1="211.46" x2="249.99" y2="211.77"/><line class="cls-1" x1="249.99" y1="211.77" x2="250.35" y2="212.25"/><line class="cls-1" x1="250.35" y1="212.25" x2="250.59" y2="212.8"/><line class="cls-1" x1="250.59" y1="212.8" x2="250.66" y2="213.29"/><line class="cls-1" x1="250.66" y1="213.29" x2="250.66" y2="235.56"/><line class="cls-1" x1="250.13" y1="235.87" x2="250.13" y2="236.48"/><line class="cls-1" x1="253.92" y1="214.72" x2="254" y2="214.63"/><line class="cls-1" x1="254.06" y1="214.56" x2="254.16" y2="214.45"/><line class="cls-1" x1="254.16" y1="214.45" x2="254.52" y2="214.38"/><line class="cls-1" x1="254.52" y1="214.38" x2="254.91" y2="214.52"/><line class="cls-1" x1="254.91" y1="214.52" x2="263.93" y2="219.73"/><line class="cls-1" x1="263.93" y1="219.73" x2="264.32" y2="220.04"/><line class="cls-1" x1="264.32" y1="220.04" x2="264.68" y2="220.52"/><line class="cls-1" x1="264.68" y1="220.52" x2="264.92" y2="221.07"/><line class="cls-1" x1="264.92" y1="221.07" x2="264.99" y2="221.57"/><line class="cls-1" x1="264.99" y1="221.57" x2="264.99" y2="232.39"/><line class="cls-1" x1="264.46" y1="232.7" x2="264.46" y2="233.31"/><line class="cls-1" x1="250.66" y1="269.06" x2="250.66" y2="272.53"/><line class="cls-1" x1="250.66" y1="272.53" x2="250.59" y2="272.94"/><line class="cls-1" x1="250.59" y1="272.94" x2="250.35" y2="273.22"/><line class="cls-1" x1="250.35" y1="273.22" x2="250.11" y2="273.26"/><line class="cls-1" x1="250.07" y1="273.27" x2="249.99" y2="273.28"/><line class="cls-1" x1="257.92" y1="220.34" x2="257.92" y2="223.41"/><line class="cls-1" x1="257.39" y1="223.71" x2="257.39" y2="224.32"/><line class="cls-1" x1="257.39" y1="224.32" x2="259.51" y2="225.55"/><line class="cls-1" x1="257.92" y1="271.41" x2="257.92" y2="274.47"/><line class="cls-1" x1="257.39" y1="274.78" x2="257.39" y2="275.39"/><line class="cls-1" x1="257.39" y1="275.39" x2="259.51" y2="276.62"/><line class="cls-1" x1="204.85" y1="189.7" x2="204.85" y2="192.77"/><line class="cls-1" x1="204.32" y1="193.07" x2="204.32" y2="193.68"/><line class="cls-1" x1="204.32" y1="193.68" x2="206.44" y2="194.91"/><line class="cls-1" x1="243.41" y1="211.97" x2="243.41" y2="215.03"/><line class="cls-1" x1="242.88" y1="215.34" x2="242.88" y2="215.95"/><line class="cls-1" x1="242.88" y1="215.95" x2="245" y2="217.18"/><line class="cls-1" x1="204.85" y1="240.77" x2="204.85" y2="243.83"/><line class="cls-1" x1="204.32" y1="244.14" x2="204.32" y2="244.75"/><line class="cls-1" x1="204.32" y1="244.75" x2="206.44" y2="245.98"/><line class="cls-1" x1="243.41" y1="263.03" x2="243.41" y2="266.1"/><line class="cls-1" x1="242.88" y1="266.4" x2="242.88" y2="267.02"/><line class="cls-1" x1="242.88" y1="267.02" x2="245" y2="268.24"/><line class="cls-1" x1="196.26" y1="238.57" x2="196" y2="238.73"/><line class="cls-1" x1="195.69" y1="243.5" x2="195.33" y2="243.56"/><line class="cls-1" x1="196" y1="242.81" x2="195.92" y2="243.22"/><line class="cls-1" x1="195.33" y1="243.56" x2="194.94" y2="243.42"/><line class="cls-1" x1="184.38" y1="237.24" x2="184.02" y2="236.76"/><line class="cls-1" x1="196" y1="238.73" x2="196" y2="242.81"/><line class="cls-1" x1="195.92" y1="243.22" x2="195.69" y2="243.5"/><line class="cls-1" x1="194.94" y1="243.42" x2="184.77" y2="237.55"/><line class="cls-1" x1="184.77" y1="237.55" x2="184.38" y2="237.24"/><line class="cls-1" x1="183.78" y1="236.21" x2="183.71" y2="235.71"/><line class="cls-1" x1="184.02" y1="236.76" x2="183.78" y2="236.21"/><line class="cls-1" x1="195.47" y1="238.42" x2="196" y2="238.73"/><line class="cls-1" x1="195.47" y1="237.19" x2="195.47" y2="238.42"/><line class="cls-1" x1="199.19" y1="240.56" x2="199.72" y2="240.87"/><line class="cls-1" x1="249.07" y1="269.37" x2="249.07" y2="273.45"/><line class="cls-1" x1="249.34" y1="269.21" x2="249.07" y2="269.37"/><line class="cls-1" x1="248.01" y1="274.06" x2="200.25" y2="246.49"/><line class="cls-1" x1="249.07" y1="273.45" x2="249" y2="273.86"/><line class="cls-1" x1="248.76" y1="274.14" x2="248.4" y2="274.2"/><line class="cls-1" x1="248.4" y1="274.2" x2="248.01" y2="274.06"/><line class="cls-1" x1="249" y1="273.86" x2="248.76" y2="274.14"/><line class="cls-1" x1="200.25" y1="246.49" x2="199.86" y2="246.18"/><line class="cls-1" x1="199.86" y1="246.18" x2="199.5" y2="245.7"/><line class="cls-1" x1="199.5" y1="245.7" x2="199.26" y2="245.14"/><line class="cls-1" x1="199.26" y1="245.14" x2="199.19" y2="244.65"/><line class="cls-1" x1="199.19" y1="244.65" x2="199.19" y2="240.56"/><line class="cls-1" x1="248.54" y1="269.06" x2="249.07" y2="269.37"/><line class="cls-1" x1="248.54" y1="267.83" x2="248.54" y2="269.06"/><line class="cls-1" x1="252.26" y1="271.2" x2="252.79" y2="271.51"/><line class="cls-1" x1="278.79" y1="290" x2="277.2" y2="290.92"/><line class="cls-1" x1="252.93" y1="276.82" x2="252.57" y2="276.34"/><line class="cls-1" x1="252.33" y1="275.78" x2="252.26" y2="275.29"/><line class="cls-1" x1="277.2" y1="290.92" x2="253.32" y2="277.13"/><line class="cls-1" x1="253.32" y1="277.13" x2="252.93" y2="276.82"/><line class="cls-1" x1="252.57" y1="276.34" x2="252.33" y2="275.78"/><line class="cls-1" x1="252.26" y1="275.29" x2="252.26" y2="271.2"/><line class="cls-1" x1="278.79" y1="241.59" x2="277.2" y2="242.51"/><line class="cls-1" x1="277.2" y1="242.51" x2="277.2" y2="290.92"/><line class="cls-1" x1="262.87" y1="234.23" x2="277.2" y2="242.51"/><line class="cls-1" x1="262.87" y1="233.01" x2="262.87" y2="234.23"/><line class="cls-1" x1="263.4" y1="233.31" x2="262.87" y2="233.01"/><line class="cls-1" x1="252.26" y1="216.05" x2="252.33" y2="215.64"/><line class="cls-1" x1="253.32" y1="215.44" x2="262.34" y2="220.65"/><line class="cls-1" x1="263.33" y1="221.99" x2="263.4" y2="222.49"/><line class="cls-1" x1="263.4" y1="222.49" x2="263.4" y2="233.31"/><line class="cls-1" x1="252.33" y1="215.64" x2="252.57" y2="215.37"/><line class="cls-1" x1="252.93" y1="215.3" x2="253.32" y2="215.44"/><line class="cls-1" x1="252.57" y1="215.37" x2="252.93" y2="215.3"/><line class="cls-1" x1="262.34" y1="220.65" x2="262.73" y2="220.96"/><line class="cls-1" x1="263.09" y1="221.44" x2="263.33" y2="221.99"/><line class="cls-1" x1="262.73" y1="220.96" x2="263.09" y2="221.44"/><line class="cls-1" x1="252.79" y1="238.62" x2="252.26" y2="238.32"/><line class="cls-1" x1="252.79" y1="239.85" x2="252.79" y2="238.62"/><line class="cls-1" x1="248.54" y1="237.4" x2="252.79" y2="239.85"/><line class="cls-1" x1="248.54" y1="236.17" x2="248.54" y2="237.4"/><line class="cls-1" x1="249.07" y1="236.48" x2="248.54" y2="236.17"/><line class="cls-1" x1="237.93" y1="207.78" x2="238" y2="207.37"/><line class="cls-1" x1="238.99" y1="207.17" x2="248.01" y2="212.38"/><line class="cls-1" x1="249" y1="213.72" x2="249.07" y2="214.21"/><line class="cls-1" x1="249.07" y1="214.21" x2="249.07" y2="236.48"/><line class="cls-1" x1="238" y1="207.37" x2="238.24" y2="207.09"/><line class="cls-1" x1="238.6" y1="207.03" x2="238.99" y2="207.17"/><line class="cls-1" x1="238.24" y1="207.09" x2="238.6" y2="207.03"/><line class="cls-1" x1="248.01" y1="212.38" x2="248.4" y2="212.69"/><line class="cls-1" x1="248.76" y1="213.17" x2="249" y2="213.72"/><line class="cls-1" x1="248.4" y1="212.69" x2="248.76" y2="213.17"/><line class="cls-1" x1="238.46" y1="218.91" x2="237.93" y2="218.61"/><line class="cls-1" x1="238.46" y1="220.14" x2="238.46" y2="218.91"/><line class="cls-1" x1="209.8" y1="203.59" x2="238.46" y2="220.14"/><line class="cls-1" x1="209.8" y1="202.37" x2="209.8" y2="203.59"/><line class="cls-1" x1="210.33" y1="202.67" x2="209.8" y2="202.37"/><line class="cls-1" x1="199.19" y1="185.41" x2="199.26" y2="185"/><line class="cls-1" x1="200.25" y1="184.8" x2="209.27" y2="190.01"/><line class="cls-1" x1="210.33" y1="191.85" x2="210.33" y2="202.67"/><line class="cls-1" x1="199.26" y1="185" x2="199.5" y2="184.73"/><line class="cls-1" x1="199.86" y1="184.66" x2="200.25" y2="184.8"/><line class="cls-1" x1="199.5" y1="184.73" x2="199.86" y2="184.66"/><line class="cls-1" x1="209.27" y1="190.01" x2="209.66" y2="190.32"/><line class="cls-1" x1="209.66" y1="190.32" x2="210.02" y2="190.8"/><line class="cls-1" x1="210.02" y1="190.8" x2="210.25" y2="191.35"/><line class="cls-1" x1="210.25" y1="191.35" x2="210.33" y2="191.85"/><line class="cls-1" x1="199.72" y1="207.98" x2="199.19" y2="207.68"/><line class="cls-1" x1="199.72" y1="209.21" x2="199.72" y2="207.98"/><line class="cls-1" x1="195.47" y1="206.76" x2="199.72" y2="209.21"/><line class="cls-1" x1="195.47" y1="205.53" x2="195.47" y2="206.76"/><line class="cls-1" x1="196" y1="205.84" x2="195.47" y2="205.53"/><line class="cls-1" x1="171.06" y1="182.45" x2="171.13" y2="182.04"/><line class="cls-1" x1="172.12" y1="181.84" x2="194.94" y2="195.01"/><line class="cls-1" x1="196" y1="196.85" x2="196" y2="205.84"/><line class="cls-1" x1="171.13" y1="182.04" x2="171.37" y2="181.76"/><line class="cls-1" x1="171.73" y1="181.7" x2="172.12" y2="181.84"/><line class="cls-1" x1="171.37" y1="181.76" x2="171.73" y2="181.7"/><line class="cls-1" x1="194.94" y1="195.01" x2="195.33" y2="195.32"/><line class="cls-1" x1="195.33" y1="195.32" x2="195.69" y2="195.8"/><line class="cls-1" x1="195.69" y1="195.8" x2="195.92" y2="196.36"/><line class="cls-1" x1="195.92" y1="196.36" x2="196" y2="196.85"/><line class="cls-1" x1="171.59" y1="191.74" x2="171.06" y2="191.44"/><line class="cls-1" x1="171.59" y1="192.97" x2="171.59" y2="191.74"/><line class="cls-1" x1="171.06" y1="190.83" x2="169.46" y2="191.74"/><line class="cls-1" x1="169.46" y1="191.74" x2="171.59" y2="192.97"/><line class="cls-1" x1="169.46" y1="222.18" x2="169.46" y2="191.74"/><line class="cls-1" x1="171.59" y1="223.41" x2="169.46" y2="222.18"/><line class="cls-1" x1="171.06" y1="224.32" x2="171.59" y2="224.63"/><line class="cls-1" x1="180.79" y1="212.89" x2="180.52" y2="213.04"/><line class="cls-1" x1="179.85" y1="234.63" x2="179.46" y2="234.49"/><line class="cls-1" x1="171.37" y1="229.46" x2="171.13" y2="228.91"/><line class="cls-1" x1="171.06" y1="228.41" x2="171.06" y2="224.32"/><line class="cls-1" x1="180.52" y1="213.04" x2="180.52" y2="233.88"/><line class="cls-1" x1="180.45" y1="234.28" x2="180.21" y2="234.56"/><line class="cls-1" x1="180.21" y1="234.56" x2="179.85" y2="234.63"/><line class="cls-1" x1="180.52" y1="233.88" x2="180.45" y2="234.28"/><line class="cls-1" x1="172.12" y1="230.25" x2="171.73" y2="229.94"/><line class="cls-1" x1="171.73" y1="229.94" x2="171.37" y2="229.46"/><line class="cls-1" x1="179.46" y1="234.49" x2="172.12" y2="230.25"/><line class="cls-1" x1="171.13" y1="228.91" x2="171.06" y2="228.41"/><line class="cls-1" x1="179.99" y1="212.73" x2="180.52" y2="213.04"/><line class="cls-1" x1="179.99" y1="211.51" x2="179.99" y2="212.73"/><line class="cls-1" x1="183.71" y1="214.88" x2="184.24" y2="215.18"/><line class="cls-1" x1="241.29" y1="263.03" x2="242.35" y2="262.42"/><line class="cls-1" x1="241.29" y1="261.81" x2="241.29" y2="263.03"/><line class="cls-1" x1="245.53" y1="264.87" x2="245" y2="265.18"/><line class="cls-1" x1="245" y1="265.18" x2="245.53" y2="265.49"/><line class="cls-1" x1="245.53" y1="269.16" x2="245" y2="268.86"/><line class="cls-1" x1="245.53" y1="270.39" x2="245.53" y2="269.16"/><line class="cls-1" x1="242.88" y1="267.02" x2="241.29" y2="267.94"/><line class="cls-1" x1="241.29" y1="267.94" x2="245.53" y2="270.39"/><line class="cls-1" x1="241.29" y1="266.71" x2="241.29" y2="267.94"/><line class="cls-1" x1="241.82" y1="267.02" x2="241.29" y2="266.71"/><line class="cls-1" x1="242.88" y1="262.73" x2="241.82" y2="263.34"/><line class="cls-1" x1="241.82" y1="263.34" x2="241.82" y2="267.02"/><line class="cls-1" x1="241.29" y1="263.03" x2="241.82" y2="263.34"/><line class="cls-1" x1="204.32" y1="240.46" x2="203.25" y2="241.08"/><line class="cls-1" x1="203.25" y1="241.08" x2="203.25" y2="244.75"/><line class="cls-1" x1="203.78" y1="240.16" x2="202.72" y2="240.77"/><line class="cls-1" x1="202.72" y1="240.77" x2="203.25" y2="241.08"/><line class="cls-1" x1="202.72" y1="239.54" x2="202.72" y2="240.77"/><line class="cls-1" x1="206.97" y1="242.61" x2="206.44" y2="242.91"/><line class="cls-1" x1="206.44" y1="242.91" x2="206.97" y2="243.22"/><line class="cls-1" x1="206.97" y1="246.9" x2="206.44" y2="246.59"/><line class="cls-1" x1="206.97" y1="248.12" x2="206.97" y2="246.9"/><line class="cls-1" x1="204.32" y1="244.75" x2="202.72" y2="245.67"/><line class="cls-1" x1="202.72" y1="245.67" x2="206.97" y2="248.12"/><line class="cls-1" x1="202.72" y1="244.45" x2="202.72" y2="245.67"/><line class="cls-1" x1="203.25" y1="244.75" x2="202.72" y2="244.45"/><line class="cls-1" x1="245.53" y1="213.81" x2="245" y2="214.11"/><line class="cls-1" x1="245" y1="214.11" x2="245.53" y2="214.42"/><line class="cls-1" x1="245.53" y1="218.09" x2="245" y2="217.79"/><line class="cls-1" x1="245.53" y1="219.32" x2="245.53" y2="218.09"/><line class="cls-1" x1="242.88" y1="215.95" x2="241.29" y2="216.87"/><line class="cls-1" x1="241.29" y1="216.87" x2="245.53" y2="219.32"/><line class="cls-1" x1="241.29" y1="215.64" x2="241.29" y2="216.87"/><line class="cls-1" x1="241.82" y1="215.95" x2="241.29" y2="215.64"/><line class="cls-1" x1="242.88" y1="211.66" x2="241.82" y2="212.27"/><line class="cls-1" x1="241.82" y1="212.27" x2="241.82" y2="215.95"/><line class="cls-1" x1="242.35" y1="211.35" x2="241.29" y2="211.97"/><line class="cls-1" x1="241.29" y1="211.97" x2="241.82" y2="212.27"/><line class="cls-1" x1="241.29" y1="210.74" x2="241.29" y2="211.97"/><line class="cls-1" x1="206.44" y1="191.85" x2="206.97" y2="191.54"/><line class="cls-1" x1="206.97" y1="195.83" x2="206.44" y2="195.52"/><line class="cls-1" x1="206.97" y1="197.05" x2="206.97" y2="195.83"/><line class="cls-1" x1="204.32" y1="193.68" x2="202.72" y2="194.6"/><line class="cls-1" x1="202.72" y1="194.6" x2="206.97" y2="197.05"/><line class="cls-1" x1="202.72" y1="193.38" x2="202.72" y2="194.6"/><line class="cls-1" x1="203.25" y1="193.68" x2="202.72" y2="193.38"/><line class="cls-1" x1="204.32" y1="189.39" x2="203.25" y2="190.01"/><line class="cls-1" x1="203.25" y1="190.01" x2="203.25" y2="193.68"/><line class="cls-1" x1="203.78" y1="189.09" x2="202.72" y2="189.7"/><line class="cls-1" x1="202.72" y1="189.7" x2="203.25" y2="190.01"/><line class="cls-1" x1="202.72" y1="188.48" x2="202.72" y2="189.7"/><line class="cls-1" x1="206.44" y1="191.85" x2="206.97" y2="192.15"/><line class="cls-1" x1="257.39" y1="271.1" x2="256.32" y2="271.72"/><line class="cls-1" x1="256.32" y1="271.72" x2="256.32" y2="275.39"/><line class="cls-1" x1="256.86" y1="270.8" x2="255.79" y2="271.41"/><line class="cls-1" x1="255.79" y1="271.41" x2="256.32" y2="271.72"/><line class="cls-1" x1="255.79" y1="270.18" x2="255.79" y2="271.41"/><line class="cls-1" x1="260.04" y1="273.25" x2="259.51" y2="273.55"/><line class="cls-1" x1="259.51" y1="273.55" x2="260.04" y2="273.86"/><line class="cls-1" x1="260.04" y1="277.54" x2="259.51" y2="277.23"/><line class="cls-1" x1="260.04" y1="278.76" x2="260.04" y2="277.54"/><line class="cls-1" x1="257.39" y1="275.39" x2="255.79" y2="276.31"/><line class="cls-1" x1="255.79" y1="276.31" x2="260.04" y2="278.76"/><line class="cls-1" x1="255.79" y1="275.09" x2="255.79" y2="276.31"/><line class="cls-1" x1="256.32" y1="275.39" x2="255.79" y2="275.09"/><line class="cls-1" x1="257.39" y1="220.03" x2="256.32" y2="220.65"/><line class="cls-1" x1="256.32" y1="220.65" x2="256.32" y2="224.32"/><line class="cls-1" x1="256.86" y1="219.73" x2="255.79" y2="220.34"/><line class="cls-1" x1="255.79" y1="220.34" x2="256.32" y2="220.65"/><line class="cls-1" x1="255.79" y1="219.12" x2="255.79" y2="220.34"/><line class="cls-1" x1="260.04" y1="222.18" x2="259.51" y2="222.49"/><line class="cls-1" x1="259.51" y1="222.49" x2="260.04" y2="222.79"/><line class="cls-1" x1="260.04" y1="226.47" x2="259.51" y2="226.16"/><line class="cls-1" x1="260.04" y1="227.7" x2="260.04" y2="226.47"/><line class="cls-1" x1="257.39" y1="224.32" x2="255.79" y2="225.24"/><line class="cls-1" x1="255.79" y1="225.24" x2="260.04" y2="227.7"/><line class="cls-1" x1="255.79" y1="224.02" x2="255.79" y2="225.24"/><line class="cls-1" x1="256.32" y1="224.32" x2="255.79" y2="224.02"/><line class="cls-1" x1="199.72" y1="239.65" x2="197.59" y2="238.42"/><line class="cls-1" x1="199.72" y1="240.87" x2="199.72" y2="240.26"/><line class="cls-1" x1="199.72" y1="240.26" x2="199.72" y2="239.65"/><line class="cls-1" x1="252.79" y1="270.29" x2="250.66" y2="269.06"/><line class="cls-1" x1="252.79" y1="271.51" x2="252.79" y2="270.9"/><line class="cls-1" x1="252.79" y1="270.9" x2="252.79" y2="270.29"/><line class="cls-1" x1="252.26" y1="238.32" x2="252.26" y2="237.71"/><line class="cls-1" x1="252.26" y1="237.71" x2="252.26" y2="216.05"/><line class="cls-1" x1="237.93" y1="218.61" x2="237.93" y2="217.99"/><line class="cls-1" x1="237.93" y1="217.99" x2="237.93" y2="207.78"/><line class="cls-1" x1="199.19" y1="207.68" x2="199.19" y2="207.07"/><line class="cls-1" x1="199.19" y1="207.07" x2="199.19" y2="185.41"/><line class="cls-1" x1="171.06" y1="191.44" x2="171.06" y2="190.83"/><line class="cls-1" x1="171.06" y1="190.83" x2="171.06" y2="182.45"/><line class="cls-1" x1="171.59" y1="224.63" x2="171.59" y2="224.02"/><line class="cls-1" x1="171.59" y1="224.02" x2="171.59" y2="223.41"/><line class="cls-1" x1="184.24" y1="213.96" x2="182.11" y2="212.73"/><line class="cls-1" x1="184.24" y1="215.18" x2="184.24" y2="214.57"/><line class="cls-1" x1="184.24" y1="214.57" x2="184.24" y2="213.96"/><line class="cls-1" x1="245.53" y1="264.26" x2="243.41" y2="263.03"/><line class="cls-1" x1="245.53" y1="265.49" x2="245.53" y2="264.87"/><line class="cls-1" x1="245.53" y1="264.87" x2="245.53" y2="264.26"/><line class="cls-1" x1="245" y1="268.86" x2="245" y2="268.24"/><line class="cls-1" x1="245" y1="268.24" x2="245" y2="265.18"/><line class="cls-1" x1="243.41" y1="266.1" x2="242.88" y2="266.4"/><line class="cls-1" x1="242.88" y1="266.4" x2="241.82" y2="267.02"/><line class="cls-1" x1="203.25" y1="244.75" x2="204.32" y2="244.14"/><line class="cls-1" x1="204.32" y1="244.14" x2="204.85" y2="243.83"/><line class="cls-1" x1="206.97" y1="241.99" x2="204.85" y2="240.77"/><line class="cls-1" x1="206.97" y1="243.22" x2="206.97" y2="242.61"/><line class="cls-1" x1="206.97" y1="242.61" x2="206.97" y2="241.99"/><line class="cls-1" x1="206.44" y1="246.59" x2="206.44" y2="245.98"/><line class="cls-1" x1="206.44" y1="245.98" x2="206.44" y2="242.91"/><line class="cls-1" x1="245.53" y1="214.42" x2="245.53" y2="213.81"/><line class="cls-1" x1="245.53" y1="213.81" x2="245.53" y2="213.19"/><line class="cls-1" x1="245" y1="217.79" x2="245" y2="217.18"/><line class="cls-1" x1="245" y1="217.18" x2="245" y2="214.11"/><line class="cls-1" x1="243.41" y1="215.03" x2="242.88" y2="215.34"/><line class="cls-1" x1="242.88" y1="215.34" x2="241.82" y2="215.95"/><line class="cls-1" x1="245.53" y1="213.19" x2="243.41" y2="211.97"/><line class="cls-1" x1="206.44" y1="195.52" x2="206.44" y2="194.91"/><line class="cls-1" x1="206.44" y1="194.91" x2="206.44" y2="191.85"/><line class="cls-1" x1="204.85" y1="192.77" x2="204.32" y2="193.07"/><line class="cls-1" x1="204.32" y1="193.07" x2="203.25" y2="193.68"/><line class="cls-1" x1="206.97" y1="190.93" x2="204.85" y2="189.7"/><line class="cls-1" x1="206.97" y1="192.15" x2="206.97" y2="191.54"/><line class="cls-1" x1="206.97" y1="191.54" x2="206.97" y2="190.93"/><line class="cls-1" x1="256.32" y1="275.39" x2="257.39" y2="274.78"/><line class="cls-1" x1="257.39" y1="274.78" x2="257.92" y2="274.47"/><line class="cls-1" x1="260.04" y1="272.63" x2="257.92" y2="271.41"/><line class="cls-1" x1="260.04" y1="273.86" x2="260.04" y2="273.25"/><line class="cls-1" x1="260.04" y1="273.25" x2="260.04" y2="272.63"/><line class="cls-1" x1="259.51" y1="277.23" x2="259.51" y2="276.62"/><line class="cls-1" x1="259.51" y1="276.62" x2="259.51" y2="273.55"/><line class="cls-1" x1="256.32" y1="224.32" x2="257.39" y2="223.71"/><line class="cls-1" x1="257.39" y1="223.71" x2="257.92" y2="223.41"/><line class="cls-1" x1="260.04" y1="221.57" x2="257.92" y2="220.34"/><line class="cls-1" x1="260.04" y1="222.79" x2="260.04" y2="222.18"/><line class="cls-1" x1="260.04" y1="222.18" x2="260.04" y2="221.57"/><line class="cls-1" x1="259.51" y1="226.16" x2="259.51" y2="225.55"/><line class="cls-1" x1="259.51" y1="225.55" x2="259.51" y2="222.49"/><line class="cls-1" x1="197.59" y1="238.42" x2="197.06" y2="238.11"/><line class="cls-1" x1="249.6" y1="268.45" x2="248.54" y2="267.83"/><line class="cls-1" x1="182.11" y1="212.73" x2="181.58" y2="212.43"/><line class="cls-1" x1="242.35" y1="262.42" x2="241.29" y2="261.81"/><line class="cls-1" x1="204.85" y1="240.77" x2="204.32" y2="240.46"/><line class="cls-1" x1="243.41" y1="211.97" x2="242.88" y2="211.66"/><line class="cls-1" x1="204.85" y1="189.7" x2="204.32" y2="189.39"/><line class="cls-1" x1="257.92" y1="271.41" x2="257.39" y2="271.1"/><line class="cls-1" x1="257.92" y1="220.34" x2="257.39" y2="220.03"/><line class="cls-1" x1="197.06" y1="238.11" x2="196.53" y2="237.81"/><line class="cls-1" x1="196.53" y1="237.81" x2="195.47" y2="237.19"/><line class="cls-1" x1="250.66" y1="269.06" x2="250.13" y2="268.75"/><line class="cls-1" x1="250.13" y1="268.75" x2="249.6" y2="268.45"/><line class="cls-1" x1="181.58" y1="212.43" x2="181.05" y2="212.12"/><line class="cls-1" x1="181.05" y1="212.12" x2="179.99" y2="211.51"/><line class="cls-1" x1="243.41" y1="263.03" x2="242.88" y2="262.73"/><line class="cls-1" x1="242.88" y1="262.73" x2="242.35" y2="262.42"/><line class="cls-1" x1="204.32" y1="240.46" x2="203.78" y2="240.16"/><line class="cls-1" x1="203.78" y1="240.16" x2="202.72" y2="239.54"/><line class="cls-1" x1="242.88" y1="211.66" x2="242.35" y2="211.35"/><line class="cls-1" x1="242.35" y1="211.35" x2="241.29" y2="210.74"/><line class="cls-1" x1="204.32" y1="189.39" x2="203.78" y2="189.09"/><line class="cls-1" x1="203.78" y1="189.09" x2="202.72" y2="188.48"/><line class="cls-1" x1="257.39" y1="271.1" x2="256.86" y2="270.8"/><line class="cls-1" x1="256.86" y1="270.8" x2="255.79" y2="270.18"/><line class="cls-1" x1="257.39" y1="220.03" x2="256.86" y2="219.73"/><line class="cls-1" x1="256.86" y1="219.73" x2="255.79" y2="219.12"/><line class="cls-1" x1="197.06" y1="205.84" x2="199.19" y2="207.07"/><line class="cls-1" x1="211.39" y1="202.67" x2="237.93" y2="217.99"/><line class="cls-1" x1="250.13" y1="236.48" x2="252.26" y2="237.71"/><line class="cls-1" x1="264.46" y1="233.31" x2="278.79" y2="241.59"/><line class="cls-1" x1="278.79" y1="241.59" x2="278.79" y2="290"/><line class="cls-1" x1="197.28" y1="242.58" x2="195.69" y2="243.5"/><line class="cls-1" x1="196.26" y1="238.57" x2="197.06" y2="238.11"/><line class="cls-1" x1="195.47" y1="238.42" x2="196.53" y2="237.81"/><line class="cls-1" x1="248.76" y1="274.14" x2="250.35" y2="273.22"/><line class="cls-1" x1="249.34" y1="269.21" x2="250.13" y2="268.75"/><line class="cls-1" x1="199.72" y1="240.26" x2="199.19" y2="240.56"/><line class="cls-1" x1="248.54" y1="269.06" x2="249.6" y2="268.45"/><line class="cls-1" x1="252.79" y1="270.9" x2="252.26" y2="271.2"/><line class="cls-1" x1="262.87" y1="234.23" x2="264.46" y2="233.31"/><line class="cls-1" x1="264.99" y1="232.39" x2="264.46" y2="232.7"/><line class="cls-1" x1="252.57" y1="215.37" x2="254.16" y2="214.45"/><line class="cls-1" x1="263.4" y1="233.31" x2="264.46" y2="232.7"/><line class="cls-1" x1="248.54" y1="237.4" x2="250.13" y2="236.48"/><line class="cls-1" x1="250.66" y1="235.56" x2="250.13" y2="235.87"/><line class="cls-1" x1="238.24" y1="207.09" x2="239.83" y2="206.17"/><line class="cls-1" x1="249.07" y1="236.48" x2="250.13" y2="235.87"/><line class="cls-1" x1="209.8" y1="203.59" x2="211.39" y2="202.67"/><line class="cls-1" x1="211.92" y1="201.75" x2="211.39" y2="202.06"/><line class="cls-1" x1="199.5" y1="184.73" x2="201.09" y2="183.81"/><line class="cls-1" x1="210.33" y1="202.67" x2="211.39" y2="202.06"/><line class="cls-1" x1="195.47" y1="206.76" x2="197.06" y2="205.84"/><line class="cls-1" x1="197.59" y1="204.92" x2="197.06" y2="205.23"/><line class="cls-1" x1="171.37" y1="181.76" x2="172.96" y2="180.84"/><line class="cls-1" x1="196" y1="205.84" x2="197.06" y2="205.23"/><line class="cls-1" x1="180.21" y1="234.56" x2="181.8" y2="233.64"/><line class="cls-1" x1="171.59" y1="224.02" x2="171.06" y2="224.32"/><line class="cls-1" x1="181.58" y1="212.43" x2="180.79" y2="212.89"/><line class="cls-1" x1="179.99" y1="212.73" x2="181.05" y2="212.12"/><line class="cls-1" x1="184.24" y1="214.57" x2="183.71" y2="214.88"/><line class="cls-1" x1="183.71" y1="235.71" x2="183.71" y2="214.88"/><polygon class="cls-2" points="169.54 192.24 171.13 191.32 171.13 182.94 171.21 182.54 171.44 182.26 173.03 181.34 173.39 181.27 173.78 181.41 196.6 194.59 197 194.9 197.35 195.38 197.59 195.93 197.66 196.43 197.66 205.41 197.13 205.72 197.13 206.33 199.26 207.56 199.26 185.91 199.33 185.5 199.57 185.22 201.16 184.3 201.52 184.24 201.91 184.38 210.93 189.58 211.32 189.9 211.68 190.38 211.92 190.93 211.99 191.42 211.99 202.25 211.46 202.56 211.46 203.17 238 218.49 238 208.27 238.07 207.87 238.31 207.59 239.9 206.67 240.26 206.6 240.65 206.74 249.68 211.95 250.06 212.26 250.43 212.74 250.66 213.3 250.74 213.79 250.74 236.06 250.21 236.36 250.21 236.97 252.33 238.2 252.33 216.55 252.4 216.14 252.64 215.86 254.23 214.94 254.59 214.88 254.98 215.02 264 220.22 264.39 220.54 264.75 221.02 264.99 221.57 265.06 222.06 265.06 232.89 264.53 233.2 264.53 233.81 278.86 242.08 278.86 290.49 277.27 291.41 253.39 277.63 253 277.31 252.64 276.83 252.4 276.28 252.33 275.79 252.33 271.7 252.86 271.39 252.86 270.78 250.74 269.56 250.74 273.03 250.66 273.44 250.43 273.71 248.83 274.63 248.47 274.7 248.08 274.56 200.32 246.99 199.93 246.67 199.57 246.19 199.33 245.64 199.26 245.14 199.26 241.06 199.79 240.75 199.79 240.14 197.66 238.92 197.66 242.39 197.59 242.8 197.35 243.07 195.76 243.99 195.4 244.06 195.01 243.92 184.84 238.05 184.45 237.74 184.09 237.26 183.85 236.7 183.78 236.21 183.78 215.37 184.31 215.07 184.31 214.45 182.19 213.23 182.19 233.45 182.11 233.86 181.88 234.14 180.28 235.06 179.92 235.12 179.53 234.98 172.19 230.75 171.8 230.43 171.44 229.95 171.21 229.4 171.13 228.91 171.13 224.82 171.66 224.51 171.66 223.9 169.54 222.68 169.54 192.24"/></svg>