<svg id="Layer_1" data-name="Layer 1" xmlns="http://www.w3.org/2000/svg" viewBox="0 0 212.6 425.2"><defs><style>.cls-1,.cls-2{fill:none;stroke:#1d1d1b;stroke-miterlimit:10;}.cls-1{stroke-width:0.25px;}.cls-2{stroke-width:0.5px;}.cls-3{font-size:5.3px;fill:#1d1d1b;font-family:Monotxt;}</style></defs><g id="POLYLINE"><rect class="cls-1" x="15.09" y="26.69" width="183.36" height="366.73"/></g><g id="POLYLINE-2" data-name="POLYLINE"><polygon class="cls-2" points="25.57 357.91 20.23 357.91 20.23 357.01 18.36 357.01 18.36 364.3 20.23 364.3 20.23 363.4 25.57 363.4 25.57 364.3 27.45 364.3 27.45 357.01 25.57 357.01 25.57 357.91"/></g><g id="POLYLINE-3" data-name="POLYLINE"><polygon class="cls-2" points="100.72 357.91 95.38 357.91 95.38 357.01 93.5 357.01 93.5 364.3 95.38 364.3 95.38 363.4 100.72 363.4 100.72 364.3 102.6 364.3 102.6 357.01 100.72 357.01 100.72 357.91"/></g><g id="POLYLINE-4" data-name="POLYLINE"><polygon class="cls-2" points="18.36 339.65 20.23 339.65 20.23 338.75 25.57 338.75 25.57 339.65 27.45 339.65 27.45 332.36 25.57 332.36 25.57 333.26 20.23 333.26 20.23 332.36 18.36 332.36 18.36 339.65"/></g><g id="POLYLINE-5" data-name="POLYLINE"><polygon class="cls-2" points="95.38 332.36 93.5 332.36 93.5 339.65 95.38 339.65 95.38 338.75 100.72 338.75 100.72 339.65 102.6 339.65 102.6 332.36 100.72 332.36 100.72 333.26 95.38 333.26 95.38 332.36"/></g><g id="POLYLINE-6" data-name="POLYLINE"><polygon class="cls-2" points="100.72 267.73 95.38 267.73 95.38 266.83 93.5 266.83 93.5 274.12 95.38 274.12 95.38 273.22 100.72 273.22 100.72 274.12 102.6 274.12 102.6 266.83 100.72 266.83 100.72 267.73"/></g><g id="POLYLINE-7" data-name="POLYLINE"><polygon class="cls-2" points="20.23 273.22 25.57 273.22 25.57 274.12 27.45 274.12 27.45 266.83 25.57 266.83 25.57 267.73 20.23 267.73 20.23 266.83 18.36 266.83 18.36 274.12 20.23 274.12 20.23 273.22"/></g><g id="POLYLINE-8" data-name="POLYLINE"><polygon class="cls-2" points="187.97 357.91 193.3 357.91 193.3 357.01 195.18 357.01 195.18 364.3 193.3 364.3 193.3 363.4 187.97 363.4 187.97 364.3 186.09 364.3 186.09 357.01 187.97 357.01 187.97 357.91"/></g><g id="POLYLINE-9" data-name="POLYLINE"><polygon class="cls-2" points="112.82 357.91 118.15 357.91 118.15 357.01 120.03 357.01 120.03 364.3 118.15 364.3 118.15 363.4 112.82 363.4 112.82 364.3 110.94 364.3 110.94 357.01 112.82 357.01 112.82 357.91"/></g><g id="POLYLINE-10" data-name="POLYLINE"><polygon class="cls-2" points="195.18 339.65 193.3 339.65 193.3 338.75 187.97 338.75 187.97 339.65 186.09 339.65 186.09 332.36 187.97 332.36 187.97 333.26 193.3 333.26 193.3 332.36 195.18 332.36 195.18 339.65"/></g><g id="POLYLINE-11" data-name="POLYLINE"><polygon class="cls-2" points="118.15 332.36 120.03 332.36 120.03 339.65 118.15 339.65 118.15 338.75 112.82 338.75 112.82 339.65 110.94 339.65 110.94 332.36 112.82 332.36 112.82 333.26 118.15 333.26 118.15 332.36"/></g><g id="POLYLINE-12" data-name="POLYLINE"><polygon class="cls-2" points="112.82 267.73 118.15 267.73 118.15 266.83 120.03 266.83 120.03 274.12 118.15 274.12 118.15 273.22 112.82 273.22 112.82 274.12 110.94 274.12 110.94 266.83 112.82 266.83 112.82 267.73"/></g><g id="POLYLINE-13" data-name="POLYLINE"><polygon class="cls-2" points="193.3 273.22 187.97 273.22 187.97 274.12 186.09 274.12 186.09 266.83 187.97 266.83 187.97 267.73 193.3 267.73 193.3 266.83 195.18 266.83 195.18 274.12 193.3 274.12 193.3 273.22"/></g><g id="POLYLINE-14" data-name="POLYLINE"><path class="cls-2" d="M104.06,234.63a1.72,1.72,0,0,1,1.73,1.73v17.28a1.72,1.72,0,0,1-1.73,1.73H98.13v-.9h-2v7.36h2v-.9h5.93a1.72,1.72,0,0,1,1.73,1.73v81.16a1.73,1.73,0,0,1-1.73,1.73H98.13v-.9h-2V352h2v-.9h5.93a1.72,1.72,0,0,1,1.73,1.73v40.5H34.7V369h-2v.9H16.89a1.74,1.74,0,0,1-1.73-1.73V352.84a1.73,1.73,0,0,1,1.73-1.73H49.58v.9h2v-7.36h-2v.9H16.89a1.74,1.74,0,0,1-1.73-1.73V328.49a1.73,1.73,0,0,1,1.73-1.73H32.75v.9h2V278.82h-2v.9H16.89A1.74,1.74,0,0,1,15.16,278V262.66a1.73,1.73,0,0,1,1.73-1.73H49.58v.9h2v-7.36h-2v.9H36.43a1.72,1.72,0,0,1-1.73-1.73V214.86a1.72,1.72,0,0,1,1.73-1.72H49.58v.9h2v-3.61H96.17V214h2v-.9h5.93a1.72,1.72,0,0,1,1.73,1.72v12.48a1.73,1.73,0,0,1-1.73,1.73H73.48v-.91h-2v7.37h2v-.9Z"/></g><g id="POLYLINE-15" data-name="POLYLINE"><path class="cls-2" d="M109.47,234.63a1.72,1.72,0,0,0-1.72,1.73v17.28a1.72,1.72,0,0,0,1.72,1.73h5.94v-.9h2v7.36h-2v-.9h-5.94a1.72,1.72,0,0,0-1.72,1.73v81.16a1.73,1.73,0,0,0,1.72,1.73h5.94v-.9h2V352h-2v-.9h-5.94a1.72,1.72,0,0,0-1.72,1.73v40.5h71.09V369h1.95v.9h15.86a1.74,1.74,0,0,0,1.73-1.73V352.84a1.73,1.73,0,0,0-1.73-1.73H164v.9h-2v-7.36h2v.9h32.69a1.74,1.74,0,0,0,1.73-1.73V328.49a1.73,1.73,0,0,0-1.73-1.73H180.79v.9h-1.95V278.82h1.95v.9h15.86a1.74,1.74,0,0,0,1.73-1.73V262.66a1.73,1.73,0,0,0-1.73-1.73H164v.9h-2v-7.36h2v.9h13.15a1.73,1.73,0,0,0,1.73-1.73V214.86a1.73,1.73,0,0,0-1.73-1.72H164v.9h-2v-3.61H117.36V214h-2v-.9h-5.94a1.72,1.72,0,0,0-1.72,1.72v12.48a1.73,1.73,0,0,0,1.72,1.73h30.59v-.91H142v7.37h-1.95v-.9Z"/></g><g id="MTEXT"><text class="cls-3" transform="translate(137.98 271.98) rotate(90)">COMB-B/END-X1</text></g><g id="MTEXT-2" data-name="MTEXT"><text class="cls-3" transform="translate(75.54 351.44) rotate(-90)">COMB-B/END-X1</text></g></svg>