  0
SECTION
  2
HEADER
  9
$ACADVER
  1
AC1009
  9
$INSBASE
 10
0.000000
 20
0.000000
 30
0.000000
  9
$EXTMIN
 10
0.000000
 20
0.000000
 30
0.000000
  9
$EXTMAX
 10
806.879616
 20
185.500000
 30
0.000000
  0
ENDSEC
  0
SECTION
  2
TABLES
  0
TABLE
  2
LTYPE
 70
1
  0
LTYPE
  2
CONTINUOUS
 70
0
  3
Solid line
 72
65
 73
0
 40
0.000000
  0
ENDTAB
  0
TABLE
  2
LAYER
 70
4
  0
LAYER
  2
0
 70
0
 62
7
  6
CONTINUOUS
  0
LAYER
  2
1_ANYTOOL_1MMDEEP_LABELS_S
 70
0
 62
2
  6
CONTINUOUS
  0
LAYER
  2
5_ANYTOOL_HALF_MILL_9MM_IN
 70
0
 62
3
  6
CONTINUOUS
  0
LAYER
  2
4_ANYTOOL_CUTTHROUGH_OUTSI
 70
0
 62
5
  6
CONTINUOUS
  0
ENDTAB
  0
ENDSEC
  0
SECTION
  2
ENTITIES
  0
LINE
  8
1_ANYTOOL_1MMDEEP_LABELS_S
 10
485.204742
 20
89.473801
 30
0.000000
 11
470.719028
 21
89.473801
 31
0.000000
  0
POLYLINE
  8
1_ANYTOOL_1MMDEEP_LABELS_S
 66
1
 10
0.000000
 20
0.000000
 30
0.000000
 70
0
  0
VERTEX
  8
1_ANYTOOL_1MMDEEP_LABELS_S
 10
488.376171
 20
103.445230
 30
0.000000
  0
VERTEX
  8
1_ANYTOOL_1MMDEEP_LABELS_S
 10
470.719028
 20
103.445230
 30
0.000000
  0
VERTEX
  8
1_ANYTOOL_1MMDEEP_LABELS_S
 10
470.719028
 20
73.445230
 30
0.000000
  0
SEQEND
  8
1_ANYTOOL_1MMDEEP_LABELS_S
  0
LINE
  8
1_ANYTOOL_1MMDEEP_LABELS_S
 10
467.119028
 20
102.973801
 30
0.000000
 11
449.933314
 21
72.202373
 31
0.000000
  0
POLYLINE
  8
1_ANYTOOL_1MMDEEP_LABELS_S
 66
1
 10
0.000000
 20
0.000000
 30
0.000000
 70
0
  0
VERTEX
  8
1_ANYTOOL_1MMDEEP_LABELS_S
 10
445.904742
 20
73.488087
 30
0.000000
  0
VERTEX
  8
1_ANYTOOL_1MMDEEP_LABELS_S
 10
427.604742
 20
73.530944
 30
0.000000
 42
-0.034491
  0
VERTEX
  8
1_ANYTOOL_1MMDEEP_LABELS_S
 10
428.267520
 20
75.278276
 30
0.000000
 42
-0.037732
  0
VERTEX
  8
1_ANYTOOL_1MMDEEP_LABELS_S
 10
429.174385
 20
76.911301
 30
0.000000
 42
-0.037744
  0
VERTEX
  8
1_ANYTOOL_1MMDEEP_LABELS_S
 10
430.313679
 20
78.385937
 30
0.000000
 42
-0.034820
  0
VERTEX
  8
1_ANYTOOL_1MMDEEP_LABELS_S
 10
431.654742
 20
79.680944
 30
0.000000
 42
-0.008590
  0
VERTEX
  8
1_ANYTOOL_1MMDEEP_LABELS_S
 10
434.613967
 20
82.079527
 30
0.000000
 42
-0.008791
  0
VERTEX
  8
1_ANYTOOL_1MMDEEP_LABELS_S
 10
437.654742
 20
84.373801
 30
0.000000
 42
0.020588
  0
VERTEX
  8
1_ANYTOOL_1MMDEEP_LABELS_S
 10
440.474031
 20
86.607244
 30
0.000000
 42
0.025206
  0
VERTEX
  8
1_ANYTOOL_1MMDEEP_LABELS_S
 10
443.076171
 20
89.088087
 30
0.000000
 42
0.046908
  0
VERTEX
  8
1_ANYTOOL_1MMDEEP_LABELS_S
 10
444.096766
 20
90.389329
 30
0.000000
 42
0.051091
  0
VERTEX
  8
1_ANYTOOL_1MMDEEP_LABELS_S
 10
444.844028
 20
91.863087
 30
0.000000
 42
0.050722
  0
VERTEX
  8
1_ANYTOOL_1MMDEEP_LABELS_S
 10
445.292761
 20
93.511261
 30
0.000000
 42
0.041139
  0
VERTEX
  8
1_ANYTOOL_1MMDEEP_LABELS_S
 10
445.433314
 20
95.216658
 30
0.000000
 42
0.039396
  0
VERTEX
  8
1_ANYTOOL_1MMDEEP_LABELS_S
 10
445.290669
 20
97.024244
 30
0.000000
 42
0.058519
  0
VERTEX
  8
1_ANYTOOL_1MMDEEP_LABELS_S
 10
444.801171
 20
98.763087
 30
0.000000
 42
0.060358
  0
VERTEX
  8
1_ANYTOOL_1MMDEEP_LABELS_S
 10
444.010613
 20
100.170203
 30
0.000000
 42
0.061397
  0
VERTEX
  8
1_ANYTOOL_1MMDEEP_LABELS_S
 10
442.904742
 20
101.345230
 30
0.000000
 42
0.048006
  0
VERTEX
  8
1_ANYTOOL_1MMDEEP_LABELS_S
 10
441.548785
 20
102.267189
 30
0.000000
 42
0.045901
  0
VERTEX
  8
1_ANYTOOL_1MMDEEP_LABELS_S
 10
440.044028
 20
102.920230
 30
0.000000
 42
0.045216
  0
VERTEX
  8
1_ANYTOOL_1MMDEEP_LABELS_S
 10
438.303967
 20
103.322789
 30
0.000000
 42
0.034258
  0
VERTEX
  8
1_ANYTOOL_1MMDEEP_LABELS_S
 10
436.519028
 20
103.445230
 30
0.000000
 42
0.055622
  0
VERTEX
  8
1_ANYTOOL_1MMDEEP_LABELS_S
 10
433.884457
 20
103.151242
 30
0.000000
 42
0.079896
  0
VERTEX
  8
1_ANYTOOL_1MMDEEP_LABELS_S
 10
431.440456
 20
102.170230
 30
0.000000
 42
0.080617
  0
VERTEX
  8
1_ANYTOOL_1MMDEEP_LABELS_S
 10
429.471069
 20
100.504530
 30
0.000000
 42
0.060287
  0
VERTEX
  8
1_ANYTOOL_1MMDEEP_LABELS_S
 10
428.033314
 20
98.345230
 30
0.000000
  0
SEQEND
  8
1_ANYTOOL_1MMDEEP_LABELS_S
  0
LINE
  8
1_ANYTOOL_1MMDEEP_LABELS_S
 10
423.319028
 20
87.330944
 30
0.000000
 11
414.533314
 21
87.245230
 31
0.000000
  0
POLYLINE
  8
1_ANYTOOL_1MMDEEP_LABELS_S
 66
1
 10
0.000000
 20
0.000000
 30
0.000000
 70
0
  0
VERTEX
  8
1_ANYTOOL_1MMDEEP_LABELS_S
 10
409.604742
 20
73.488087
 30
0.000000
  0
VERTEX
  8
1_ANYTOOL_1MMDEEP_LABELS_S
 10
391.304742
 20
73.530944
 30
0.000000
 42
-0.034491
  0
VERTEX
  8
1_ANYTOOL_1MMDEEP_LABELS_S
 10
391.967520
 20
75.278276
 30
0.000000
 42
-0.037732
  0
VERTEX
  8
1_ANYTOOL_1MMDEEP_LABELS_S
 10
392.874385
 20
76.911301
 30
0.000000
 42
-0.037744
  0
VERTEX
  8
1_ANYTOOL_1MMDEEP_LABELS_S
 10
394.013679
 20
78.385937
 30
0.000000
 42
-0.034820
  0
VERTEX
  8
1_ANYTOOL_1MMDEEP_LABELS_S
 10
395.354742
 20
79.680944
 30
0.000000
 42
-0.008590
  0
VERTEX
  8
1_ANYTOOL_1MMDEEP_LABELS_S
 10
398.313967
 20
82.079527
 30
0.000000
 42
-0.008791
  0
VERTEX
  8
1_ANYTOOL_1MMDEEP_LABELS_S
 10
401.354742
 20
84.373801
 30
0.000000
 42
0.020588
  0
VERTEX
  8
1_ANYTOOL_1MMDEEP_LABELS_S
 10
404.174031
 20
86.607244
 30
0.000000
 42
0.025206
  0
VERTEX
  8
1_ANYTOOL_1MMDEEP_LABELS_S
 10
406.776171
 20
89.088087
 30
0.000000
 42
0.046908
  0
VERTEX
  8
1_ANYTOOL_1MMDEEP_LABELS_S
 10
407.796766
 20
90.389329
 30
0.000000
 42
0.051091
  0
VERTEX
  8
1_ANYTOOL_1MMDEEP_LABELS_S
 10
408.544028
 20
91.863087
 30
0.000000
 42
0.050722
  0
VERTEX
  8
1_ANYTOOL_1MMDEEP_LABELS_S
 10
408.992761
 20
93.511261
 30
0.000000
 42
0.041139
  0
VERTEX
  8
1_ANYTOOL_1MMDEEP_LABELS_S
 10
409.133314
 20
95.216658
 30
0.000000
 42
0.039396
  0
VERTEX
  8
1_ANYTOOL_1MMDEEP_LABELS_S
 10
408.990669
 20
97.024244
 30
0.000000
 42
0.058519
  0
VERTEX
  8
1_ANYTOOL_1MMDEEP_LABELS_S
 10
408.501171
 20
98.763087
 30
0.000000
 42
0.060358
  0
VERTEX
  8
1_ANYTOOL_1MMDEEP_LABELS_S
 10
407.710613
 20
100.170203
 30
0.000000
 42
0.061397
  0
VERTEX
  8
1_ANYTOOL_1MMDEEP_LABELS_S
 10
406.604742
 20
101.345230
 30
0.000000
 42
0.048006
  0
VERTEX
  8
1_ANYTOOL_1MMDEEP_LABELS_S
 10
405.248785
 20
102.267189
 30
0.000000
 42
0.045901
  0
VERTEX
  8
1_ANYTOOL_1MMDEEP_LABELS_S
 10
403.744028
 20
102.920230
 30
0.000000
 42
0.045216
  0
VERTEX
  8
1_ANYTOOL_1MMDEEP_LABELS_S
 10
402.003967
 20
103.322789
 30
0.000000
 42
0.034258
  0
VERTEX
  8
1_ANYTOOL_1MMDEEP_LABELS_S
 10
400.219028
 20
103.445230
 30
0.000000
 42
0.055622
  0
VERTEX
  8
1_ANYTOOL_1MMDEEP_LABELS_S
 10
397.584457
 20
103.151242
 30
0.000000
 42
0.079896
  0
VERTEX
  8
1_ANYTOOL_1MMDEEP_LABELS_S
 10
395.140456
 20
102.170230
 30
0.000000
 42
0.080617
  0
VERTEX
  8
1_ANYTOOL_1MMDEEP_LABELS_S
 10
393.171069
 20
100.504530
 30
0.000000
 42
0.060287
  0
VERTEX
  8
1_ANYTOOL_1MMDEEP_LABELS_S
 10
391.733314
 20
98.345230
 30
0.000000
  0
SEQEND
  8
1_ANYTOOL_1MMDEEP_LABELS_S
  0
LINE
  8
1_ANYTOOL_1MMDEEP_LABELS_S
 10
363.404742
 20
82.102373
 30
0.000000
 11
385.176171
 21
82.102373
 31
0.000000
  0
POLYLINE
  8
1_ANYTOOL_1MMDEEP_LABELS_S
 66
1
 10
0.000000
 20
0.000000
 30
0.000000
 70
0
  0
VERTEX
  8
1_ANYTOOL_1MMDEEP_LABELS_S
 10
379.390456
 20
73.445230
 30
0.000000
  0
VERTEX
  8
1_ANYTOOL_1MMDEEP_LABELS_S
 10
379.433314
 20
103.488087
 30
0.000000
  0
VERTEX
  8
1_ANYTOOL_1MMDEEP_LABELS_S
 10
363.404742
 20
82.102373
 30
0.000000
  0
SEQEND
  8
1_ANYTOOL_1MMDEEP_LABELS_S
  0
LINE
  8
1_ANYTOOL_1MMDEEP_LABELS_S
 10
359.119028
 20
87.330944
 30
0.000000
 11
350.333314
 21
87.245230
 31
0.000000
  0
POLYLINE
  8
1_ANYTOOL_1MMDEEP_LABELS_S
 66
1
 10
0.000000
 20
0.000000
 30
0.000000
 70
0
  0
VERTEX
  8
1_ANYTOOL_1MMDEEP_LABELS_S
 10
346.304742
 20
98.859515
 30
0.000000
 42
0.071867
  0
VERTEX
  8
1_ANYTOOL_1MMDEEP_LABELS_S
 10
346.111629
 20
100.196122
 30
0.000000
 42
0.100684
  0
VERTEX
  8
1_ANYTOOL_1MMDEEP_LABELS_S
 10
345.485099
 20
101.377373
 30
0.000000
 42
0.047558
  0
VERTEX
  8
1_ANYTOOL_1MMDEEP_LABELS_S
 10
345.010546
 20
101.853823
 30
0.000000
 42
0.038563
  0
VERTEX
  8
1_ANYTOOL_1MMDEEP_LABELS_S
 10
344.460546
 20
102.242551
 30
0.000000
 42
0.037928
  0
VERTEX
  8
1_ANYTOOL_1MMDEEP_LABELS_S
 10
343.763358
 20
102.590019
 30
0.000000
 42
0.026634
  0
VERTEX
  8
1_ANYTOOL_1MMDEEP_LABELS_S
 10
343.026171
 20
102.845230
 30
0.000000
 42
0.028461
  0
VERTEX
  8
1_ANYTOOL_1MMDEEP_LABELS_S
 10
340.002837
 20
103.531212
 30
0.000000
 42
0.041577
  0
VERTEX
  8
1_ANYTOOL_1MMDEEP_LABELS_S
 10
336.919028
 20
103.788087
 30
0.000000
 42
0.036938
  0
VERTEX
  8
1_ANYTOOL_1MMDEEP_LABELS_S
 10
335.416668
 20
103.676947
 30
0.000000
 42
0.041531
  0
VERTEX
  8
1_ANYTOOL_1MMDEEP_LABELS_S
 10
333.951171
 20
103.332730
 30
0.000000
 42
0.041583
  0
VERTEX
  8
1_ANYTOOL_1MMDEEP_LABELS_S
 10
332.573794
 20
102.755521
 30
0.000000
 42
0.038125
  0
VERTEX
  8
1_ANYTOOL_1MMDEEP_LABELS_S
 10
331.304742
 20
101.966658
 30
0.000000
 42
0.057611
  0
VERTEX
  8
1_ANYTOOL_1MMDEEP_LABELS_S
 10
330.234589
 20
100.974754
 30
0.000000
 42
0.065808
  0
VERTEX
  8
1_ANYTOOL_1MMDEEP_LABELS_S
 10
329.440456
 20
99.754158
 30
0.000000
 42
0.064690
  0
VERTEX
  8
1_ANYTOOL_1MMDEEP_LABELS_S
 10
328.962960
 20
98.294604
 30
0.000000
 42
0.046778
  0
VERTEX
  8
1_ANYTOOL_1MMDEEP_LABELS_S
 10
328.819028
 20
96.759515
 30
0.000000
 42
0.052235
  0
VERTEX
  8
1_ANYTOOL_1MMDEEP_LABELS_S
 10
328.981384
 20
95.209673
 30
0.000000
 42
0.075448
  0
VERTEX
  8
1_ANYTOOL_1MMDEEP_LABELS_S
 10
329.526171
 20
93.759515
 30
0.000000
 42
0.076671
  0
VERTEX
  8
1_ANYTOOL_1MMDEEP_LABELS_S
 10
330.442263
 20
92.586463
 30
0.000000
 42
0.061023
  0
VERTEX
  8
1_ANYTOOL_1MMDEEP_LABELS_S
 10
331.647599
 20
91.702373
 30
0.000000
 42
0.021951
  0
VERTEX
  8
1_ANYTOOL_1MMDEEP_LABELS_S
 10
334.676453
 20
90.175027
 30
0.000000
 42
0.018213
  0
VERTEX
  8
1_ANYTOOL_1MMDEEP_LABELS_S
 10
337.819028
 20
88.895230
 30
0.000000
 42
-0.024050
  0
VERTEX
  8
1_ANYTOOL_1MMDEEP_LABELS_S
 10
340.920512
 20
87.589768
 30
0.000000
 42
-0.029810
  0
VERTEX
  8
1_ANYTOOL_1MMDEEP_LABELS_S
 10
343.861885
 20
85.959515
 30
0.000000
 42
-0.068439
  0
VERTEX
  8
1_ANYTOOL_1MMDEEP_LABELS_S
 10
345.003187
 20
84.993585
 30
0.000000
 42
-0.079282
  0
VERTEX
  8
1_ANYTOOL_1MMDEEP_LABELS_S
 10
345.811885
 20
83.741658
 30
0.000000
 42
-0.076308
  0
VERTEX
  8
1_ANYTOOL_1MMDEEP_LABELS_S
 10
346.236885
 20
82.162976
 30
0.000000
 42
-0.047772
  0
VERTEX
  8
1_ANYTOOL_1MMDEEP_LABELS_S
 10
346.261885
 20
80.516658
 30
0.000000
 42
-0.046243
  0
VERTEX
  8
1_ANYTOOL_1MMDEEP_LABELS_S
 10
345.968650
 20
78.835699
 30
0.000000
 42
-0.063590
  0
VERTEX
  8
1_ANYTOOL_1MMDEEP_LABELS_S
 10
345.319028
 20
77.264873
 30
0.000000
 42
-0.064671
  0
VERTEX
  8
1_ANYTOOL_1MMDEEP_LABELS_S
 10
344.346204
 20
75.980684
 30
0.000000
 42
-0.057073
  0
VERTEX
  8
1_ANYTOOL_1MMDEEP_LABELS_S
 10
343.090456
 20
74.966658
 30
0.000000
 42
-0.067522
  0
VERTEX
  8
1_ANYTOOL_1MMDEEP_LABELS_S
 10
340.122148
 20
73.603748
 30
0.000000
 42
-0.070793
  0
VERTEX
  8
1_ANYTOOL_1MMDEEP_LABELS_S
 10
336.897599
 20
73.102373
 30
0.000000
 42
-0.064027
  0
VERTEX
  8
1_ANYTOOL_1MMDEEP_LABELS_S
 10
333.758584
 20
73.464888
 30
0.000000
 42
-0.070447
  0
VERTEX
  8
1_ANYTOOL_1MMDEEP_LABELS_S
 10
330.833314
 20
74.645230
 30
0.000000
 42
-0.054374
  0
VERTEX
  8
1_ANYTOOL_1MMDEEP_LABELS_S
 10
329.674896
 20
75.494862
 30
0.000000
 42
-0.074742
  0
VERTEX
  8
1_ANYTOOL_1MMDEEP_LABELS_S
 10
328.776171
 20
76.605944
 30
0.000000
 42
-0.075199
  0
VERTEX
  8
1_ANYTOOL_1MMDEEP_LABELS_S
 10
328.253163
 20
77.912322
 30
0.000000
 42
-0.057737
  0
VERTEX
  8
1_ANYTOOL_1MMDEEP_LABELS_S
 10
328.090456
 20
79.316658
 30
0.000000
  0
SEQEND
  8
1_ANYTOOL_1MMDEEP_LABELS_S
  0
LINE
  8
1_ANYTOOL_1MMDEEP_LABELS_S
 10
324.061885
 20
87.330944
 30
0.000000
 11
315.276171
 21
87.245230
 31
0.000000
  0
POLYLINE
  8
1_ANYTOOL_1MMDEEP_LABELS_S
 66
1
 10
0.000000
 20
0.000000
 30
0.000000
 70
0
  0
VERTEX
  8
1_ANYTOOL_1MMDEEP_LABELS_S
 10
301.176171
 20
87.245230
 30
0.000000
  0
VERTEX
  8
1_ANYTOOL_1MMDEEP_LABELS_S
 10
310.947599
 20
87.202373
 30
0.000000
 42
-0.031732
  0
VERTEX
  8
1_ANYTOOL_1MMDEEP_LABELS_S
 10
310.679489
 20
84.194971
 30
0.000000
 42
-0.048764
  0
VERTEX
  8
1_ANYTOOL_1MMDEEP_LABELS_S
 10
309.935099
 20
81.277373
 30
0.000000
 42
-0.050291
  0
VERTEX
  8
1_ANYTOOL_1MMDEEP_LABELS_S
 10
308.825387
 20
78.966865
 30
0.000000
 42
-0.060119
  0
VERTEX
  8
1_ANYTOOL_1MMDEEP_LABELS_S
 10
307.240456
 20
76.959515
 30
0.000000
 42
-0.036578
  0
VERTEX
  8
1_ANYTOOL_1MMDEEP_LABELS_S
 10
305.508437
 20
75.473099
 30
0.000000
 42
-0.050793
  0
VERTEX
  8
1_ANYTOOL_1MMDEEP_LABELS_S
 10
303.549385
 20
74.313087
 30
0.000000
 42
-0.051881
  0
VERTEX
  8
1_ANYTOOL_1MMDEEP_LABELS_S
 10
301.596368
 20
73.645342
 30
0.000000
 42
-0.053919
  0
VERTEX
  8
1_ANYTOOL_1MMDEEP_LABELS_S
 10
299.547599
 20
73.402373
 30
0.000000
 42
-0.055881
  0
VERTEX
  8
1_ANYTOOL_1MMDEEP_LABELS_S
 10
297.512452
 20
73.609317
 30
0.000000
 42
-0.055271
  0
VERTEX
  8
1_ANYTOOL_1MMDEEP_LABELS_S
 10
295.572599
 20
74.259515
 30
0.000000
 42
-0.054030
  0
VERTEX
  8
1_ANYTOOL_1MMDEEP_LABELS_S
 10
293.646623
 20
75.418709
 30
0.000000
 42
-0.038531
  0
VERTEX
  8
1_ANYTOOL_1MMDEEP_LABELS_S
 10
291.961885
 20
76.916658
 30
0.000000
 42
-0.067281
  0
VERTEX
  8
1_ANYTOOL_1MMDEEP_LABELS_S
 10
290.414172
 20
79.027672
 30
0.000000
 42
-0.049165
  0
VERTEX
  8
1_ANYTOOL_1MMDEEP_LABELS_S
 10
289.390456
 20
81.448801
 30
0.000000
 42
-0.047412
  0
VERTEX
  8
1_ANYTOOL_1MMDEEP_LABELS_S
 10
288.717530
 20
84.652720
 30
0.000000
 42
-0.028075
  0
VERTEX
  8
1_ANYTOOL_1MMDEEP_LABELS_S
 10
288.533314
 20
87.930944
 30
0.000000
 42
-0.031090
  0
VERTEX
  8
1_ANYTOOL_1MMDEEP_LABELS_S
 10
288.700840
 20
90.622524
 30
0.000000
 42
-0.031496
  0
VERTEX
  8
1_ANYTOOL_1MMDEEP_LABELS_S
 10
289.202956
 20
93.272015
 30
0.000000
 42
-0.031425
  0
VERTEX
  8
1_ANYTOOL_1MMDEEP_LABELS_S
 10
290.053829
 20
95.900260
 30
0.000000
 42
-0.028240
  0
VERTEX
  8
1_ANYTOOL_1MMDEEP_LABELS_S
 10
291.211885
 20
98.409515
 30
0.000000
 42
-0.064555
  0
VERTEX
  8
1_ANYTOOL_1MMDEEP_LABELS_S
 10
292.740688
 20
100.561040
 30
0.000000
 42
-0.078906
  0
VERTEX
  8
1_ANYTOOL_1MMDEEP_LABELS_S
 10
294.806528
 20
102.186301
 30
0.000000
 42
-0.076878
  0
VERTEX
  8
1_ANYTOOL_1MMDEEP_LABELS_S
 10
297.430129
 20
103.160851
 30
0.000000
 42
-0.050594
  0
VERTEX
  8
1_ANYTOOL_1MMDEEP_LABELS_S
 10
300.233314
 20
103.445230
 30
0.000000
 42
-0.039946
  0
VERTEX
  8
1_ANYTOOL_1MMDEEP_LABELS_S
 10
301.892875
 20
103.312433
 30
0.000000
 42
-0.052714
  0
VERTEX
  8
1_ANYTOOL_1MMDEEP_LABELS_S
 10
303.495814
 20
102.877373
 30
0.000000
 42
-0.053511
  0
VERTEX
  8
1_ANYTOOL_1MMDEEP_LABELS_S
 10
304.879011
 20
102.162038
 30
0.000000
 42
-0.051530
  0
VERTEX
  8
1_ANYTOOL_1MMDEEP_LABELS_S
 10
306.083314
 20
101.173801
 30
0.000000
 42
-0.040443
  0
VERTEX
  8
1_ANYTOOL_1MMDEEP_LABELS_S
 10
308.123537
 20
98.750659
 30
0.000000
 42
-0.040350
  0
VERTEX
  8
1_ANYTOOL_1MMDEEP_LABELS_S
 10
309.747599
 20
96.030944
 30
0.000000
  0
SEQEND
  8
1_ANYTOOL_1MMDEEP_LABELS_S
  0
POLYLINE
  8
5_ANYTOOL_HALF_MILL_9MM_IN
 66
1
 10
0.000000
 20
0.000000
 30
0.000000
 70
1
  0
VERTEX
  8
5_ANYTOOL_HALF_MILL_9MM_IN
 10
628.662133
 20
129.750000
 30
0.000000
 42
1.000000
  0
VERTEX
  8
5_ANYTOOL_HALF_MILL_9MM_IN
 10
671.162133
 20
129.750000
 30
0.000000
  0
VERTEX
  8
5_ANYTOOL_HALF_MILL_9MM_IN
 10
671.162133
 20
136.000000
 30
0.000000
  0
VERTEX
  8
5_ANYTOOL_HALF_MILL_9MM_IN
 10
628.662133
 20
136.000000
 30
0.000000
  0
SEQEND
  8
5_ANYTOOL_HALF_MILL_9MM_IN
  0
POLYLINE
  8
5_ANYTOOL_HALF_MILL_9MM_IN
 66
1
 10
0.000000
 20
0.000000
 30
0.000000
 70
1
  0
VERTEX
  8
5_ANYTOOL_HALF_MILL_9MM_IN
 10
433.756133
 20
129.750000
 30
0.000000
 42
1.000000
  0
VERTEX
  8
5_ANYTOOL_HALF_MILL_9MM_IN
 10
476.256133
 20
129.750000
 30
0.000000
  0
VERTEX
  8
5_ANYTOOL_HALF_MILL_9MM_IN
 10
476.256133
 20
136.000000
 30
0.000000
  0
VERTEX
  8
5_ANYTOOL_HALF_MILL_9MM_IN
 10
433.756133
 20
136.000000
 30
0.000000
  0
SEQEND
  8
5_ANYTOOL_HALF_MILL_9MM_IN
  0
POLYLINE
  8
4_ANYTOOL_CUTTHROUGH_OUTSI
 66
1
 10
0.000000
 20
0.000000
 30
0.000000
 70
1
  0
VERTEX
  8
4_ANYTOOL_CUTTHROUGH_OUTSI
 10
695.162133
 20
135.750000
 30
0.000000
 42
-0.414214
  0
VERTEX
  8
4_ANYTOOL_CUTTHROUGH_OUTSI
 10
688.912133
 20
129.500000
 30
0.000000
  0
VERTEX
  8
4_ANYTOOL_CUTTHROUGH_OUTSI
 10
610.912133
 20
129.500000
 30
0.000000
 42
-0.414214
  0
VERTEX
  8
4_ANYTOOL_CUTTHROUGH_OUTSI
 10
604.662133
 20
135.750000
 30
0.000000
 42
-0.084368
  0
VERTEX
  8
4_ANYTOOL_CUTTHROUGH_OUTSI
 10
604.676168
 20
135.832588
 30
0.000000
  0
VERTEX
  8
4_ANYTOOL_CUTTHROUGH_OUTSI
 10
621.575281
 20
184.116195
 30
0.000000
 42
0.061178
  0
VERTEX
  8
4_ANYTOOL_CUTTHROUGH_OUTSI
 10
621.806695
 20
185.500000
 30
0.000000
  0
VERTEX
  8
4_ANYTOOL_CUTTHROUGH_OUTSI
 10
583.596133
 20
185.500000
 30
0.000000
  0
VERTEX
  8
4_ANYTOOL_CUTTHROUGH_OUTSI
 10
583.596133
 20
161.750000
 30
0.000000
 42
-0.414214
  0
VERTEX
  8
4_ANYTOOL_CUTTHROUGH_OUTSI
 10
583.346133
 20
161.500000
 30
0.000000
  0
VERTEX
  8
4_ANYTOOL_CUTTHROUGH_OUTSI
 10
571.346133
 20
161.500000
 30
0.000000
 42
-0.414214
  0
VERTEX
  8
4_ANYTOOL_CUTTHROUGH_OUTSI
 10
571.096133
 20
161.750000
 30
0.000000
  0
VERTEX
  8
4_ANYTOOL_CUTTHROUGH_OUTSI
 10
571.096133
 20
167.500000
 30
0.000000
  0
VERTEX
  8
4_ANYTOOL_CUTTHROUGH_OUTSI
 10
535.596133
 20
167.500000
 30
0.000000
  0
VERTEX
  8
4_ANYTOOL_CUTTHROUGH_OUTSI
 10
535.596133
 20
161.750000
 30
0.000000
 42
-0.414214
  0
VERTEX
  8
4_ANYTOOL_CUTTHROUGH_OUTSI
 10
535.346133
 20
161.500000
 30
0.000000
  0
VERTEX
  8
4_ANYTOOL_CUTTHROUGH_OUTSI
 10
523.346133
 20
161.500000
 30
0.000000
 42
-0.414214
  0
VERTEX
  8
4_ANYTOOL_CUTTHROUGH_OUTSI
 10
523.096133
 20
161.750000
 30
0.000000
  0
VERTEX
  8
4_ANYTOOL_CUTTHROUGH_OUTSI
 10
523.096133
 20
185.500000
 30
0.000000
  0
VERTEX
  8
4_ANYTOOL_CUTTHROUGH_OUTSI
 10
483.111570
 20
185.500000
 30
0.000000
 42
0.061784
  0
VERTEX
  8
4_ANYTOOL_CUTTHROUGH_OUTSI
 10
483.346564
 20
184.105130
 30
0.000000
  0
VERTEX
  8
4_ANYTOOL_CUTTHROUGH_OUTSI
 10
500.242097
 20
135.832588
 30
0.000000
 42
-0.084368
  0
VERTEX
  8
4_ANYTOOL_CUTTHROUGH_OUTSI
 10
500.256133
 20
135.750000
 30
0.000000
 42
-0.414214
  0
VERTEX
  8
4_ANYTOOL_CUTTHROUGH_OUTSI
 10
494.006133
 20
129.500000
 30
0.000000
  0
VERTEX
  8
4_ANYTOOL_CUTTHROUGH_OUTSI
 10
416.006133
 20
129.500000
 30
0.000000
 42
-0.414214
  0
VERTEX
  8
4_ANYTOOL_CUTTHROUGH_OUTSI
 10
409.756133
 20
135.750000
 30
0.000000
 42
-0.084368
  0
VERTEX
  8
4_ANYTOOL_CUTTHROUGH_OUTSI
 10
409.770168
 20
135.832588
 30
0.000000
  0
VERTEX
  8
4_ANYTOOL_CUTTHROUGH_OUTSI
 10
426.669281
 20
184.116195
 30
0.000000
 42
0.061178
  0
VERTEX
  8
4_ANYTOOL_CUTTHROUGH_OUTSI
 10
426.900695
 20
185.500000
 30
0.000000
  0
VERTEX
  8
4_ANYTOOL_CUTTHROUGH_OUTSI
 10
283.595793
 20
185.500000
 30
0.000000
  0
VERTEX
  8
4_ANYTOOL_CUTTHROUGH_OUTSI
 10
283.595793
 20
161.750000
 30
0.000000
 42
-0.414214
  0
VERTEX
  8
4_ANYTOOL_CUTTHROUGH_OUTSI
 10
283.345793
 20
161.500000
 30
0.000000
  0
VERTEX
  8
4_ANYTOOL_CUTTHROUGH_OUTSI
 10
271.345793
 20
161.500000
 30
0.000000
 42
-0.414214
  0
VERTEX
  8
4_ANYTOOL_CUTTHROUGH_OUTSI
 10
271.095793
 20
161.750000
 30
0.000000
  0
VERTEX
  8
4_ANYTOOL_CUTTHROUGH_OUTSI
 10
271.095793
 20
167.500000
 30
0.000000
  0
VERTEX
  8
4_ANYTOOL_CUTTHROUGH_OUTSI
 10
235.595793
 20
167.500000
 30
0.000000
  0
VERTEX
  8
4_ANYTOOL_CUTTHROUGH_OUTSI
 10
235.595793
 20
161.750000
 30
0.000000
 42
-0.414214
  0
VERTEX
  8
4_ANYTOOL_CUTTHROUGH_OUTSI
 10
235.345793
 20
161.500000
 30
0.000000
  0
VERTEX
  8
4_ANYTOOL_CUTTHROUGH_OUTSI
 10
223.345793
 20
161.500000
 30
0.000000
 42
-0.414214
  0
VERTEX
  8
4_ANYTOOL_CUTTHROUGH_OUTSI
 10
223.095793
 20
161.750000
 30
0.000000
  0
VERTEX
  8
4_ANYTOOL_CUTTHROUGH_OUTSI
 10
223.095793
 20
185.500000
 30
0.000000
  0
VERTEX
  8
4_ANYTOOL_CUTTHROUGH_OUTSI
 10
0.000000
 20
185.500000
 30
0.000000
  0
VERTEX
  8
4_ANYTOOL_CUTTHROUGH_OUTSI
 10
0.006223
 20
112.940625
 30
0.000000
  0
VERTEX
  8
4_ANYTOOL_CUTTHROUGH_OUTSI
 10
28.756244
 20
112.940625
 30
0.000000
 42
-0.414366
  0
VERTEX
  8
4_ANYTOOL_CUTTHROUGH_OUTSI
 10
29.006244
 20
112.690495
 30
0.000000
  0
VERTEX
  8
4_ANYTOOL_CUTTHROUGH_OUTSI
 10
28.999979
 20
100.690475
 30
0.000000
 42
-0.414061
  0
VERTEX
  8
4_ANYTOOL_CUTTHROUGH_OUTSI
 10
28.749979
 20
100.440605
 30
0.000000
  0
VERTEX
  8
4_ANYTOOL_CUTTHROUGH_OUTSI
 10
23.006244
 20
100.440605
 30
0.000000
  0
VERTEX
  8
4_ANYTOOL_CUTTHROUGH_OUTSI
 10
23.006244
 20
84.940605
 30
0.000000
  0
VERTEX
  8
4_ANYTOOL_CUTTHROUGH_OUTSI
 10
28.749979
 20
84.940605
 30
0.000000
 42
-0.414061
  0
VERTEX
  8
4_ANYTOOL_CUTTHROUGH_OUTSI
 10
28.999979
 20
84.690736
 30
0.000000
  0
VERTEX
  8
4_ANYTOOL_CUTTHROUGH_OUTSI
 10
29.006244
 20
72.690716
 30
0.000000
 42
-0.414366
  0
VERTEX
  8
4_ANYTOOL_CUTTHROUGH_OUTSI
 10
28.756244
 20
72.440586
 30
0.000000
  0
VERTEX
  8
4_ANYTOOL_CUTTHROUGH_OUTSI
 10
0.006222
 20
72.440586
 30
0.000000
  0
VERTEX
  8
4_ANYTOOL_CUTTHROUGH_OUTSI
 10
0.000000
 20
0.000000
 30
0.000000
  0
VERTEX
  8
4_ANYTOOL_CUTTHROUGH_OUTSI
 10
84.499979
 20
0.000000
 30
0.000000
  0
VERTEX
  8
4_ANYTOOL_CUTTHROUGH_OUTSI
 10
84.499979
 20
23.750000
 30
0.000000
 42
-0.414214
  0
VERTEX
  8
4_ANYTOOL_CUTTHROUGH_OUTSI
 10
84.749979
 20
24.000000
 30
0.000000
  0
VERTEX
  8
4_ANYTOOL_CUTTHROUGH_OUTSI
 10
96.749979
 20
24.000000
 30
0.000000
 42
-0.414214
  0
VERTEX
  8
4_ANYTOOL_CUTTHROUGH_OUTSI
 10
96.999979
 20
23.750000
 30
0.000000
  0
VERTEX
  8
4_ANYTOOL_CUTTHROUGH_OUTSI
 10
96.999979
 20
18.000000
 30
0.000000
  0
VERTEX
  8
4_ANYTOOL_CUTTHROUGH_OUTSI
 10
278.736797
 20
18.000000
 30
0.000000
  0
VERTEX
  8
4_ANYTOOL_CUTTHROUGH_OUTSI
 10
278.736797
 20
23.750000
 30
0.000000
 42
-0.414214
  0
VERTEX
  8
4_ANYTOOL_CUTTHROUGH_OUTSI
 10
278.986797
 20
24.000000
 30
0.000000
  0
VERTEX
  8
4_ANYTOOL_CUTTHROUGH_OUTSI
 10
290.986797
 20
24.000000
 30
0.000000
 42
-0.414214
  0
VERTEX
  8
4_ANYTOOL_CUTTHROUGH_OUTSI
 10
291.236797
 20
23.750000
 30
0.000000
  0
VERTEX
  8
4_ANYTOOL_CUTTHROUGH_OUTSI
 10
291.236797
 20
0.000000
 30
0.000000
  0
VERTEX
  8
4_ANYTOOL_CUTTHROUGH_OUTSI
 10
350.736797
 20
0.000000
 30
0.000000
  0
VERTEX
  8
4_ANYTOOL_CUTTHROUGH_OUTSI
 10
350.736797
 20
23.750000
 30
0.000000
 42
-0.414214
  0
VERTEX
  8
4_ANYTOOL_CUTTHROUGH_OUTSI
 10
350.986797
 20
24.000000
 30
0.000000
  0
VERTEX
  8
4_ANYTOOL_CUTTHROUGH_OUTSI
 10
362.986797
 20
24.000000
 30
0.000000
 42
-0.414214
  0
VERTEX
  8
4_ANYTOOL_CUTTHROUGH_OUTSI
 10
363.236797
 20
23.750000
 30
0.000000
  0
VERTEX
  8
4_ANYTOOL_CUTTHROUGH_OUTSI
 10
363.236797
 20
18.000000
 30
0.000000
  0
VERTEX
  8
4_ANYTOOL_CUTTHROUGH_OUTSI
 10
473.642797
 20
18.000000
 30
0.000000
  0
VERTEX
  8
4_ANYTOOL_CUTTHROUGH_OUTSI
 10
473.642797
 20
23.750000
 30
0.000000
 42
-0.414214
  0
VERTEX
  8
4_ANYTOOL_CUTTHROUGH_OUTSI
 10
473.892797
 20
24.000000
 30
0.000000
  0
VERTEX
  8
4_ANYTOOL_CUTTHROUGH_OUTSI
 10
485.892797
 20
24.000000
 30
0.000000
 42
-0.414214
  0
VERTEX
  8
4_ANYTOOL_CUTTHROUGH_OUTSI
 10
486.142797
 20
23.750000
 30
0.000000
  0
VERTEX
  8
4_ANYTOOL_CUTTHROUGH_OUTSI
 10
486.142797
 20
0.000000
 30
0.000000
  0
VERTEX
  8
4_ANYTOOL_CUTTHROUGH_OUTSI
 10
545.642797
 20
0.000000
 30
0.000000
  0
VERTEX
  8
4_ANYTOOL_CUTTHROUGH_OUTSI
 10
545.642797
 20
23.750000
 30
0.000000
 42
-0.414214
  0
VERTEX
  8
4_ANYTOOL_CUTTHROUGH_OUTSI
 10
545.892797
 20
24.000000
 30
0.000000
  0
VERTEX
  8
4_ANYTOOL_CUTTHROUGH_OUTSI
 10
557.892797
 20
24.000000
 30
0.000000
 42
-0.414214
  0
VERTEX
  8
4_ANYTOOL_CUTTHROUGH_OUTSI
 10
558.142797
 20
23.750000
 30
0.000000
  0
VERTEX
  8
4_ANYTOOL_CUTTHROUGH_OUTSI
 10
558.142797
 20
18.000000
 30
0.000000
  0
VERTEX
  8
4_ANYTOOL_CUTTHROUGH_OUTSI
 10
739.879616
 20
18.000000
 30
0.000000
  0
VERTEX
  8
4_ANYTOOL_CUTTHROUGH_OUTSI
 10
739.879616
 20
23.750000
 30
0.000000
 42
-0.414214
  0
VERTEX
  8
4_ANYTOOL_CUTTHROUGH_OUTSI
 10
740.129616
 20
24.000000
 30
0.000000
  0
VERTEX
  8
4_ANYTOOL_CUTTHROUGH_OUTSI
 10
752.129616
 20
24.000000
 30
0.000000
 42
-0.414214
  0
VERTEX
  8
4_ANYTOOL_CUTTHROUGH_OUTSI
 10
752.379616
 20
23.750000
 30
0.000000
  0
VERTEX
  8
4_ANYTOOL_CUTTHROUGH_OUTSI
 10
752.379616
 20
0.000000
 30
0.000000
  0
VERTEX
  8
4_ANYTOOL_CUTTHROUGH_OUTSI
 10
806.879616
 20
0.000000
 30
0.000000
  0
VERTEX
  8
4_ANYTOOL_CUTTHROUGH_OUTSI
 10
806.879616
 20
72.440586
 30
0.000000
  0
VERTEX
  8
4_ANYTOOL_CUTTHROUGH_OUTSI
 10
775.123351
 20
72.440586
 30
0.000000
 42
-0.414366
  0
VERTEX
  8
4_ANYTOOL_CUTTHROUGH_OUTSI
 10
774.873351
 20
72.690716
 30
0.000000
  0
VERTEX
  8
4_ANYTOOL_CUTTHROUGH_OUTSI
 10
774.879616
 20
84.690736
 30
0.000000
 42
-0.414061
  0
VERTEX
  8
4_ANYTOOL_CUTTHROUGH_OUTSI
 10
775.129616
 20
84.940605
 30
0.000000
  0
VERTEX
  8
4_ANYTOOL_CUTTHROUGH_OUTSI
 10
780.873351
 20
84.940605
 30
0.000000
  0
VERTEX
  8
4_ANYTOOL_CUTTHROUGH_OUTSI
 10
780.873351
 20
100.440605
 30
0.000000
  0
VERTEX
  8
4_ANYTOOL_CUTTHROUGH_OUTSI
 10
775.129616
 20
100.440605
 30
0.000000
 42
-0.414061
  0
VERTEX
  8
4_ANYTOOL_CUTTHROUGH_OUTSI
 10
774.879616
 20
100.690475
 30
0.000000
  0
VERTEX
  8
4_ANYTOOL_CUTTHROUGH_OUTSI
 10
774.873351
 20
112.690495
 30
0.000000
 42
-0.414366
  0
VERTEX
  8
4_ANYTOOL_CUTTHROUGH_OUTSI
 10
775.123351
 20
112.940625
 30
0.000000
  0
VERTEX
  8
4_ANYTOOL_CUTTHROUGH_OUTSI
 10
806.879616
 20
112.940625
 30
0.000000
  0
VERTEX
  8
4_ANYTOOL_CUTTHROUGH_OUTSI
 10
806.879616
 20
185.500000
 30
0.000000
  0
VERTEX
  8
4_ANYTOOL_CUTTHROUGH_OUTSI
 10
776.548865
 20
185.500000
 30
0.000000
  0
VERTEX
  8
4_ANYTOOL_CUTTHROUGH_OUTSI
 10
776.548865
 20
161.750000
 30
0.000000
 42
-0.414214
  0
VERTEX
  8
4_ANYTOOL_CUTTHROUGH_OUTSI
 10
776.298865
 20
161.500000
 30
0.000000
  0
VERTEX
  8
4_ANYTOOL_CUTTHROUGH_OUTSI
 10
764.298865
 20
161.500000
 30
0.000000
 42
-0.414214
  0
VERTEX
  8
4_ANYTOOL_CUTTHROUGH_OUTSI
 10
764.048865
 20
161.750000
 30
0.000000
  0
VERTEX
  8
4_ANYTOOL_CUTTHROUGH_OUTSI
 10
764.048865
 20
167.500000
 30
0.000000
  0
VERTEX
  8
4_ANYTOOL_CUTTHROUGH_OUTSI
 10
728.548865
 20
167.500000
 30
0.000000
  0
VERTEX
  8
4_ANYTOOL_CUTTHROUGH_OUTSI
 10
728.548865
 20
161.750000
 30
0.000000
 42
-0.414214
  0
VERTEX
  8
4_ANYTOOL_CUTTHROUGH_OUTSI
 10
728.298865
 20
161.500000
 30
0.000000
  0
VERTEX
  8
4_ANYTOOL_CUTTHROUGH_OUTSI
 10
716.298865
 20
161.500000
 30
0.000000
 42
-0.414214
  0
VERTEX
  8
4_ANYTOOL_CUTTHROUGH_OUTSI
 10
716.048865
 20
161.750000
 30
0.000000
  0
VERTEX
  8
4_ANYTOOL_CUTTHROUGH_OUTSI
 10
716.048865
 20
185.500000
 30
0.000000
  0
VERTEX
  8
4_ANYTOOL_CUTTHROUGH_OUTSI
 10
678.017570
 20
185.500000
 30
0.000000
 42
0.061784
  0
VERTEX
  8
4_ANYTOOL_CUTTHROUGH_OUTSI
 10
678.252564
 20
184.105130
 30
0.000000
  0
VERTEX
  8
4_ANYTOOL_CUTTHROUGH_OUTSI
 10
695.148097
 20
135.832588
 30
0.000000
 42
-0.084368
  0
SEQEND
  8
4_ANYTOOL_CUTTHROUGH_OUTSI
  0
ENDSEC
  0
EOF
