<svg id="Layer_1" data-name="Layer 1" xmlns="http://www.w3.org/2000/svg" viewBox="0 0 500 500"><defs><style>.cls-1,.cls-2{fill:none;stroke:#000;stroke-linecap:round;stroke-linejoin:round;}.cls-2{stroke-width:0.3px;}</style></defs><polygon class="cls-1" points="377.3 156.7 377.1 156.8 377.3 156.9 377.3 156.7"/><polygon class="cls-1" points="98 318.1 98 318 97.9 318.1 98 318.1"/><polygon class="cls-1" points="130.8 347.7 129.8 347.1 122.8 351.2 122.8 353.3 122.8 356.7 122.8 360.1 122.8 363.5 122.3 363.7 121.9 363.9 121.5 364.2 79.1 339.7 79.1 336.3 79.1 332.9 79.1 329.5 79.1 326.1 79.1 322.7 79.1 319.3 79.1 316.6 79.1 314 79.1 311.3 79.1 308.7 79.9 308.2 80.7 307.7 81.6 307.2 82.4 306.8 82.6 306.9 82.8 307 83 306.9 83.2 306.8 83.2 306.3 83.2 305.8 83.2 305.3 83.2 304.8 84.3 304.2 85.4 303.6 86.4 303 87.5 302.3 87.8 302.5 88.1 302.7 88.4 302.9 88.7 303.1 89 303 89.6 302.6 90.2 302.2 90.9 301.9 91.1 302 91.3 302.1 91.5 302 91.7 301.9 91.7 301.4 91.7 300.9 91.7 300.4 91.7 299.9 92.8 299.3 93.8 298.7 94.9 298.1 96 297.5 96.2 297.6 96.5 297.7 96.7 297.9 97 298 97.2 298.2 99.2 297.1 101.5 295.7 103.9 294.3 106.3 293 108.6 291.6 112.2 289.6 113.9 288.6 113.9 288.6 114 288.6 114 288.6 114.6 289.3 114.7 289.5 117.8 287.8 117.8 287.6 117.8 287.4 117.8 287.2 117.8 287 117.8 286.8 117.8 286.7 117.8 286.5 117.8 286.3 118.5 285.9 119.2 285.5 119.9 285.1 120.6 284.7 120.6 284.7 120.6 284.7 121.7 284.1 122.8 283.4 123.8 282.8 124.9 282.2 125.6 281.8 126.3 281.4 127 281 127.7 280.6 127.7 280.6 127.8 280.7 127.8 280.7 128.3 281.4 128.5 281.6 131.6 279.8 131.6 279.6 131.6 279.3 131.6 279.1 131.6 278.8 131.6 278.6 131.6 278.3 136.9 275.3 136.9 275.3 136.9 275.3 138.7 274.3 140.4 273.2 142.2 272.2 144 271.2 145.7 270.2 147.5 269.2 149.3 268.1 151 267.1 156.3 264.1 156.4 264.1 156.4 264.1 156.4 264.2 157 264.8 157.2 265 160.3 263.3 160.3 263.1 160.3 262.9 160.3 262.7 160.3 262.5 160.3 262.3 160.3 262.2 160.3 262 160.3 261.8 161 261.4 161.7 261 162.4 260.6 163.1 260.2 163.1 260.2 163.1 260.2 164.1 259.6 165.2 259 166.2 258.3 167.3 257.7 168 257.3 168.7 256.9 169.4 256.5 170.1 256.1 170.1 256.1 170.2 256.2 170.2 256.2 170.8 256.9 171 257.1 174 255.3 174 255.1 174 254.8 174 254.6 174 254.3 174 254.1 174 253.8 179.3 250.8 179.3 250.8 179.3 250.8 181.7 249.4 184 248.1 186.4 246.7 188.7 245.3 191.1 244 193.5 242.6 198.7 239.6 198.8 239.6 198.8 239.6 198.8 239.7 199.4 240.3 199.6 240.6 202.7 238.8 202.7 238.6 202.7 238.4 202.7 238.2 202.7 238 202.7 237.9 202.7 237.7 202.7 237.5 202.7 237.3 203.4 236.9 204.1 236.5 204.8 236.1 205.5 235.7 205.5 235.7 205.5 235.7 206.5 235.1 207.6 234.5 208.7 233.9 209.7 233.2 210.4 232.8 211.1 232.4 211.8 232 212.5 231.6 212.6 231.6 212.6 231.7 212.6 231.7 213.2 232.4 213.4 232.6 216.5 230.8 216.5 230.6 216.5 230.3 216.5 230.1 216.5 229.8 216.5 229.6 216.5 229.3 218.2 228.3 221.7 226.3 221.7 226.3 221.7 226.3 224.1 224.9 226.5 223.6 228.8 222.2 231.2 220.9 233.5 219.5 235.9 218.1 239.4 216.1 241.2 215.1 241.2 215.1 241.2 215.1 241.3 215.2 241.8 215.8 242 216.1 245.1 214.3 245.1 214.1 245.1 213.9 245.1 213.7 245.1 213.5 245.1 213.4 245.1 213.2 245.1 213 245.1 212.8 245.8 212.4 246.5 212 247.2 211.6 247.9 211.2 249 210.6 250 210 251.1 209.4 252.1 208.7 252.8 208.3 253.5 207.9 254.2 207.5 254.9 207.1 255 207.2 255 207.2 255 207.2 255.6 207.9 255.8 208.1 258.9 206.3 258.9 206.1 258.9 205.8 258.9 205.6 258.9 205.3 258.9 205.1 258.9 204.9 264.2 201.8 266.5 200.4 268.9 199.1 271.2 197.7 273.6 196.4 275.9 195 278.3 193.6 283.6 190.6 283.6 190.6 283.7 190.6 283.7 190.7 284.2 191.3 284.4 191.6 287.5 189.8 287.5 189.6 287.5 189.4 287.5 189.2 287.5 189.1 287.5 188.9 287.5 188.7 287.5 188.5 287.5 188.3 288.2 187.9 288.9 187.5 289.6 187.1 290.3 186.7 291.4 186.1 292.4 185.5 293.5 184.9 294.6 184.3 295.3 183.8 296 183.4 296.7 183 297.4 182.6 297.4 182.7 297.4 182.7 297.5 182.7 298 183.4 298.2 183.6 301.3 181.8 301.3 181.6 301.3 181.3 301.3 181.1 301.3 180.9 301.3 180.6 301.3 180.4 306.6 177.3 308.4 176.3 310.1 175.3 311.9 174.3 313.7 173.2 315.4 172.2 317.2 171.2 319 170.2 320.7 169.2 326 166.1 326 166.1 326.1 166.2 326.1 166.2 326.7 166.8 326.9 167.1 329.9 165.3 329.9 165.1 329.9 164.9 329.9 164.7 329.9 164.6 329.9 164.4 329.9 164.2 329.9 164 329.9 163.8 330.6 163.4 331.3 163 332 162.6 332.7 162.2 333.8 161.6 334.9 161 335.9 160.4 337 159.8 337.7 159.4 338.4 159 339.1 158.5 339.8 158.1 339.8 158.2 339.9 158.2 339.9 158.2 340.4 158.9 340.6 159.1 343.7 157.3 343.7 157.1 343.7 156.9 343.7 156.6 343.7 156.4 343.7 156.1 343.7 155.9 345.5 154.9 349 152.8 351.4 151.5 353.7 150.1 356.1 148.7 358.5 147.4 360.8 146 361 146.1 361.2 146.3 361.5 146.1 361.7 146 361.7 145.5 361.7 145 361.7 144.5 361.7 144 362.7 143.4 363.8 142.8 364.8 142.2 365.9 141.6 366.2 141.8 366.5 142 366.9 142.1 367.2 142.3 367.4 142.2 368 141.8 368.7 141.5 369.3 141.1 369.5 141.2 369.7 141.4 369.9 141.2 370.1 141.1 370.1 140.6 370.1 140.1 370.1 139.6 370.1 139.1 371.2 138.5 372.3 137.9 373.3 137.3 374.4 136.7 374.7 136.9 375 137.1 375.3 137.2 375.7 137.4 376.1 137.2 376.9 136.7 377.7 136.2 378.6 135.8 379 136 379.4 136.3 379.8 136.5 380.9 137.1 381.9 137.7 383 138.3 384 138.9 384 139 384 139 384 139 383.7 139.9 383.4 140.7 383.1 141.5 382.8 142.3 382.8 142.4 382.8 142.5 382.9 142.6 382.9 142.7 383 142.8 383.1 142.9 383.2 143 383.2 143 384.5 143.8 384.5 144.1 384.6 144.5 384.7 144.6 384.9 144.7 385.9 145.3 386.8 145.8 387.2 145.7 387.5 145.5 387.6 145.6 387.6 145.5 387.3 144.4 387 143.2 386.7 142.1 386.7 142 386.7 142 386.7 141.9 386.9 141.8 387 141.7 387.2 141.6 387.3 141.6 387.5 141.5 387.6 141.4 387.8 141.3 388 141.2 390.4 142.6 392.9 144 395.3 145.4 397.8 146.9 397.8 146.9 397.8 147 397.8 147 397.5 147.8 397.2 148.6 396.9 149.4 396.6 150.3 396.6 150.3 396.6 150.5 396.7 150.6 396.7 150.7 396.8 150.8 396.9 150.9 396.9 150.9 397 151 398.3 151.7 398.3 152.1 398.4 152.4 398.4 152.5 400.6 153.8 400.9 153.6 401.3 153.4 401.4 153.5 401.4 153.5 401.1 152.3 400.8 151.2 400.5 150 400.5 150 400.5 149.9 400.5 149.9 400.6 149.8 400.8 149.7 400.9 149.6 401.1 149.5 401.3 149.4 401.4 149.3 401.6 149.2 401.7 149.1 404.2 150.6 406.7 152 409.1 153.4 411.6 154.8 411.6 154.9 411.6 154.9 411.6 155 411.3 155.8 411 156.6 410.7 157.4 410.4 158.2 410.4 158.3 410.4 158.4 410.4 158.5 410.5 158.6 410.6 158.7 410.6 158.8 410.7 158.9 410.8 158.9 411.4 159.3 412.1 159.7 412.1 160 412.2 160.4 412.2 160.5 412.4 160.6 413.4 161.2 413.8 161.4 415 160.8 414.9 160.3 414.6 159.1 414.3 158 414.3 157.9 414.3 157.9 414.3 157.8 414.4 157.7 414.6 157.6 414.7 157.6 414.9 157.5 415 157.4 415.2 157.3 415.4 157.2 415.5 157.1 416.6 157.7 417.6 158.3 418.7 158.9 419.7 159.5 421 160.3 421 170.9 421 174.3 421 177.7 421 181.1 421 184.5 421 187.9 421 191.3 420.6 191.5 420.1 191.8 419.7 192 409.1 185.9 401.6 190.2 401.6 190.7 402 190.9 402 202.2 387.9 210.4 366.7 222.6 356.1 228.7 186.4 326.7 175.8 332.8 154.6 345.1 140.4 353.3 139.2 352.5 139.2 344.4 132.1 348.4 130.8 347.7"/><path class="cls-2" d="M83.3,315.2a.8.8,0,0,0,.4.7"/><path class="cls-2" d="M84.6,314.5a1,1,0,0,0,.4.7"/><line class="cls-2" x1="83.3" y1="315.2" x2="84.6" y2="314.5"/><path class="cls-2" d="M83.7,315.9l1.3.8"/><path class="cls-2" d="M85,315.2l4.4,2.5"/><path class="cls-2" d="M89.3,319.1h.3"/><path class="cls-2" d="M88.5,314.3v-.2"/><line class="cls-2" x1="88.5" y1="314.1" x2="89.7" y2="313.4"/><path class="cls-2" d="M98.3,319.8h0"/><path class="cls-2" d="M99.6,319.1h0"/><path class="cls-2" d="M97.1,323.2a1,1,0,0,0,.4.7"/><path class="cls-2" d="M98.4,322.4a1.2,1.2,0,0,0,.4.8"/><path class="cls-2" d="M79.1,339.7V319.3"/><path class="cls-2" d="M80.8,319.3l-.5-.3"/><path class="cls-2" d="M80.3,317.7l.5.3"/><path class="cls-2" d="M80.8,317l-.5-.2"/><path class="cls-2" d="M80.8,311.9l-.5-.2"/><line class="cls-2" x1="80.3" y1="309.4" x2="81.6" y2="308.7"/><line class="cls-2" x1="84.5" y1="311.8" x2="85.8" y2="311.1"/><path class="cls-2" d="M81.6,308.7l4.2,2.4"/><path class="cls-2" d="M84.5,311.8v.2"/><line class="cls-2" x1="84.5" y1="312" x2="85.8" y2="311.2"/><path class="cls-2" d="M85.8,311.1h0"/><path class="cls-2" d="M84.5,312l-1.2,3.2"/><path class="cls-2" d="M85.8,311.2l-1.2,3.3"/><path class="cls-2" d="M85.6,316.3a3.1,3.1,0,0,0,.7,1.8,2.3,2.3,0,0,0,1.5,1"/><line class="cls-2" x1="88" y1="318.4" x2="88.6" y2="318"/><line class="cls-2" x1="88.6" y1="318" x2="85.6" y2="316.3"/><line class="cls-2" x1="85.6" y1="316.3" x2="85" y2="316.7"/><path class="cls-2" d="M80.3,312.7l.5.2"/><path class="cls-2" d="M117.2,334.8a.4.4,0,0,1-.1.3"/><path class="cls-2" d="M111.3,331.9a1.2,1.2,0,0,1-.4-.8"/><line class="cls-2" x1="110.9" y1="331.1" x2="112.1" y2="330.4"/><path class="cls-2" d="M112.6,331.1a.8.8,0,0,1-.5-.7"/><path class="cls-2" d="M110.9,331.1l1.2-3.2"/><path class="cls-2" d="M112.1,327.9v-.2"/><path class="cls-2" d="M113.3,327.1c.1,0,.1,0,.1-.1"/><path class="cls-2" d="M102.2,322.1h.1"/><path class="cls-2" d="M103.5,326.8c0,.1-.1.3-.2.3"/><line class="cls-2" x1="121.5" y1="364.2" x2="122.8" y2="363.5"/><line class="cls-2" x1="119.8" y1="342.8" x2="120.2" y2="342.6"/><path class="cls-2" d="M119.8,342.8v-1"/><path class="cls-2" d="M119.8,341.8l.4.3"/><path class="cls-2" d="M120.2,340.8l-.4-.3"/><path class="cls-2" d="M119.8,339.5l.4.3"/><line class="cls-2" x1="119.8" y1="335.5" x2="120.2" y2="335.2"/><path class="cls-2" d="M122.8,335.7l-.4-.2"/><path class="cls-2" d="M119.8,335.5v-1"/><path class="cls-2" d="M119.8,334.5l.4.2"/><path class="cls-2" d="M121.5,331.7l-4.2-2.4"/><path class="cls-2" d="M116,330v.2"/><line class="cls-2" x1="101.8" y1="326.4" x2="102.4" y2="326"/><path class="cls-2" d="M112.6,332.6a3.2,3.2,0,0,0,.7,1.9,2.7,2.7,0,0,0,.8.7c.3.1.7.3,1,.1"/><line class="cls-2" x1="112.6" y1="332.6" x2="113.2" y2="332.2"/><line class="cls-2" x1="113.2" y1="332.2" x2="116.2" y2="333.9"/><line class="cls-2" x1="116.2" y1="333.9" x2="115.5" y2="334.3"/><path class="cls-2" d="M112.6,332.6l-1.3-.7"/><line class="cls-2" x1="122.1" y1="340.1" x2="122.8" y2="339.8"/><line class="cls-2" x1="122.1" y1="336.1" x2="122.8" y2="335.7"/><path class="cls-2" d="M120.2,335.7l-.4-.2"/><line class="cls-2" x1="79.1" y1="339.7" x2="121.5" y2="364.2"/><path class="cls-2" d="M89.6,319.2c0-.1.1-.2.1-.3"/><path class="cls-2" d="M87.5,319.4a1.7,1.7,0,0,1-1-.1,2.3,2.3,0,0,1-.7-.7,2.7,2.7,0,0,1-.8-1.9"/><path class="cls-2" d="M117.1,335.1h-.3"/><path class="cls-2" d="M103.3,327.1H103"/><line class="cls-2" x1="80.8" y1="312.4" x2="80.3" y2="312.7"/><path class="cls-2" d="M115.4,335a2.3,2.3,0,0,1-1.6-1,3.9,3.9,0,0,1-.6-1.8"/><path class="cls-2" d="M190.4,299.3s.2-.1.3,0"/><path class="cls-2" d="M186.8,307.3a.8.8,0,0,0-.4.7"/><path class="cls-2" d="M355.7,205.3l-3.6.6"/><path class="cls-2" d="M355.7,217.1l-3.6.7"/><path class="cls-2" d="M352.1,217.8a.8.8,0,0,0-.4.7"/><path class="cls-2" d="M355.7,221.6h.3"/><line class="cls-2" x1="356.1" y1="189.6" x2="356.1" y2="204.6"/><line class="cls-2" x1="356.1" y1="228.7" x2="186.4" y2="326.7"/><path class="cls-2" d="M186.5,302.8h.3"/><path class="cls-2" d="M190.7,299.3h0"/><path class="cls-2" d="M186.5,314.7h.3"/><path class="cls-2" d="M190.7,311.1v.3"/><path class="cls-2" d="M144,271.2l-7.1,4.1"/><line class="cls-2" x1="108.6" y1="291.6" x2="109.9" y2="292.3"/><path class="cls-2" d="M108.6,291.6l-11.4,6.6"/><path class="cls-2" d="M98.1,299.2v.5"/><path class="cls-2" d="M98.1,299.7l-.9.4"/><line class="cls-2" x1="96" y1="297.5" x2="97.2" y2="298.2"/><path class="cls-2" d="M96,297.5l-4.3,2.4"/><line class="cls-2" x1="91.7" y1="299.9" x2="93" y2="300.6"/><path class="cls-2" d="M91.7,299.9v2"/><line class="cls-2" x1="91.7" y1="301.9" x2="93" y2="302.6"/><path class="cls-2" d="M93,300.6v2"/><path class="cls-2" d="M91.7,301.9l-.4.2"/><path class="cls-2" d="M93,302.6l-.9.5"/><path class="cls-2" d="M92.1,303.1v-.5"/><path class="cls-2" d="M90.9,301.9l-2.2,1.2"/><path class="cls-2" d="M89.6,304.1v.5"/><path class="cls-2" d="M89.6,304.6l-.9.4"/><line class="cls-2" x1="87.5" y1="302.4" x2="88.7" y2="303.1"/><path class="cls-2" d="M87.5,302.4l-4.3,2.4"/><line class="cls-2" x1="83.2" y1="304.8" x2="84.5" y2="305.5"/><path class="cls-2" d="M83.2,304.8v2"/><line class="cls-2" x1="83.2" y1="306.8" x2="84.5" y2="307.5"/><path class="cls-2" d="M84.5,305.5v2"/><path class="cls-2" d="M83.2,306.8l-.4.2"/><path class="cls-2" d="M84.5,307.5l-.8.5"/><path class="cls-2" d="M83.7,308v-.5"/><path class="cls-2" d="M82.4,306.8l-3.3,1.9"/><line class="cls-2" x1="79.1" y1="308.7" x2="80.3" y2="309.4"/><path class="cls-2" d="M79.1,308.7v10.6"/><line class="cls-2" x1="79.1" y1="319.3" x2="80.3" y2="320"/><line class="cls-2" x1="99.3" y1="309.2" x2="98.9" y2="309"/><line class="cls-2" x1="98.9" y1="313.2" x2="99.3" y2="313"/><line class="cls-2" x1="99.3" y1="309.2" x2="98.9" y2="309.5"/><path class="cls-2" d="M120.6,284.7l4.3-2.5"/><line class="cls-2" x1="124.9" y1="282.2" x2="126.2" y2="283"/><line class="cls-2" x1="97.2" y1="298.7" x2="98.1" y2="299.2"/><line class="cls-2" x1="97.2" y1="299.2" x2="98.1" y2="299.7"/><line class="cls-2" x1="88.7" y1="303.6" x2="89.6" y2="304.1"/><line class="cls-2" x1="88.7" y1="304.1" x2="89.6" y2="304.6"/><line class="cls-2" x1="98.9" y1="317.5" x2="99.3" y2="317.7"/><line class="cls-2" x1="98.4" y1="317.7" x2="99.3" y2="318.2"/><path class="cls-2" d="M98,318h0"/><path class="cls-2" d="M80.3,320l.5-.2"/><path class="cls-2" d="M80.3,320l.5.3"/><line class="cls-2" x1="80.3" y1="317.7" x2="80.8" y2="317.5"/><path class="cls-2" d="M80.3,316.8v.9"/><path class="cls-2" d="M104.7,300.2h0"/><path class="cls-2" d="M103.5,300.9h0"/><path class="cls-2" d="M103.5,303.5a1,1,0,0,0,.5.8"/><path class="cls-2" d="M108.2,308.2c.1,0,.2.1.3,0"/><line class="cls-2" x1="108.7" y1="302.4" x2="107.4" y2="303.2"/><path class="cls-2" d="M107.4,303.3h0"/><line class="cls-2" x1="118.5" y1="308.1" x2="117.3" y2="308.8"/><path class="cls-2" d="M118.5,308.1h0"/><line class="cls-2" x1="118.5" y1="308.2" x2="117.2" y2="309"/><path class="cls-2" d="M117.3,308.8c0,.1-.1.1-.1.2"/><path class="cls-2" d="M118.5,308.2l-1.2,3.3"/><path class="cls-2" d="M122,316.1h.3"/><path class="cls-2" d="M121.2,311.3v-.2"/><line class="cls-2" x1="132.3" y1="316.1" x2="131" y2="316.8"/><path class="cls-2" d="M132.3,316.1h0"/><line class="cls-2" x1="132.3" y1="316.2" x2="131" y2="316.9"/><path class="cls-2" d="M131,316.8h0"/><path class="cls-2" d="M132.3,316.2l-1.2,3.2"/><line class="cls-2" x1="131.1" y1="319.4" x2="129.8" y2="320.2"/><path class="cls-2" d="M131,316.9l-1.2,3.3"/><path class="cls-2" d="M131.1,319.4a1.2,1.2,0,0,0,.4.8"/><path class="cls-2" d="M129.8,320.2a.8.8,0,0,0,.4.7"/><path class="cls-2" d="M131.5,320.2l1.3.7"/><path class="cls-2" d="M135,319.2h0"/><path class="cls-2" d="M136.2,318.3l4.2,2.5"/><line class="cls-2" x1="141.7" y1="331.3" x2="140.9" y2="331.8"/><path class="cls-2" d="M130.8,347.7l-1-.6"/><path class="cls-2" d="M99.3,315l.4.2"/><path class="cls-2" d="M99.7,307.5l-.4-.2"/><line class="cls-2" x1="100.6" y1="297.7" x2="99.3" y2="298.5"/><path class="cls-2" d="M132.8,320.9a1.9,1.9,0,0,0,.1.8"/><line class="cls-2" x1="132.8" y1="320.9" x2="132.2" y2="321.3"/><line class="cls-2" x1="108.2" y1="306.7" x2="107.6" y2="307.1"/><line class="cls-2" x1="104.6" y1="305.4" x2="105.2" y2="305"/><path class="cls-2" d="M108.2,306.7h.1"/><line class="cls-2" x1="122" y1="314.7" x2="121.3" y2="315"/><line class="cls-2" x1="118.4" y1="313.3" x2="119" y2="313"/><path class="cls-2" d="M122,314.7a.1.1,0,0,1,.1.1"/><path class="cls-2" d="M108.5,308.2c.1,0,.1-.2.1-.3"/><path class="cls-2" d="M122.3,316.2a.4.4,0,0,0,.1-.3"/><path class="cls-2" d="M105.4,305.8a1.9,1.9,0,0,1-.2-.8"/><path class="cls-2" d="M119.2,313.8a3.1,3.1,0,0,1-.2-.8"/><line class="cls-2" x1="351.2" y1="190.4" x2="351.2" y2="190.9"/><line class="cls-2" x1="351.2" y1="190.9" x2="350.8" y2="190.6"/><line class="cls-2" x1="354.8" y1="188.8" x2="354.8" y2="188.3"/><polyline class="cls-2" points="355.7 187.8 355.7 188.3 355.7 188.3"/><line class="cls-2" x1="390.2" y1="160.3" x2="388.9" y2="159.5"/><line class="cls-2" x1="361.8" y1="184.8" x2="361.4" y2="184.5"/><polyline class="cls-2" points="366.3 181.7 366.3 182.2 366.3 182.2"/><line class="cls-2" x1="372.4" y1="178.2" x2="372.4" y2="178.6"/><line class="cls-2" x1="376.1" y1="176.6" x2="376.1" y2="176.1"/><polyline class="cls-2" points="376.9 175.6 376.9 176.1 376.9 176.1"/><line class="cls-2" x1="372.4" y1="178.6" x2="372" y2="178.4"/><path class="cls-2" d="M116.9,333.6l-4.3-2.5"/><path class="cls-2" d="M99.3,298.5l-1.2.7"/><line class="cls-2" x1="99.3" y1="314" x2="98.9" y2="314.2"/><path class="cls-2" d="M99.3,308.3l.4.2"/><line class="cls-2" x1="350.4" y1="191.4" x2="350.4" y2="190.9"/><line class="cls-2" x1="151" y1="267.1" x2="152.3" y2="267.9"/><path class="cls-2" d="M151,267.1l-7,4.1"/><line class="cls-2" x1="167.3" y1="257.7" x2="168.6" y2="258.5"/><path class="cls-2" d="M167.3,257.7l-4.2,2.5"/><line class="cls-2" x1="163.1" y1="260.2" x2="164.3" y2="260.9"/><line class="cls-2" x1="209.7" y1="233.2" x2="211" y2="234"/><path class="cls-2" d="M209.7,233.2l-4.2,2.5"/><line class="cls-2" x1="205.5" y1="235.7" x2="206.8" y2="236.4"/><path class="cls-2" d="M179.3,250.8l14.2-8.2"/><line class="cls-2" x1="194.7" y1="243.4" x2="193.5" y2="242.6"/><path class="cls-2" d="M221.7,226.3l14.2-8.2"/><line class="cls-2" x1="237.2" y1="218.9" x2="235.9" y2="218.1"/><line class="cls-2" x1="252.1" y1="208.7" x2="253.4" y2="209.5"/><path class="cls-2" d="M252.1,208.7l-4.2,2.5"/><line class="cls-2" x1="247.9" y1="211.2" x2="249.2" y2="211.9"/><line class="cls-2" x1="294.6" y1="184.3" x2="295.8" y2="185"/><path class="cls-2" d="M294.6,184.3l-4.3,2.4"/><line class="cls-2" x1="290.3" y1="186.7" x2="291.6" y2="187.4"/><path class="cls-2" d="M264.2,201.8l14.1-8.2"/><line class="cls-2" x1="279.6" y1="194.4" x2="278.3" y2="193.6"/><path class="cls-2" d="M306.6,177.3l7.1-4.1"/><line class="cls-2" x1="119.8" y1="340.5" x2="120.2" y2="340.3"/><path class="cls-2" d="M140.4,337.7l-.4-.2"/><path class="cls-2" d="M237.2,218.9v.5"/><path class="cls-2" d="M265.4,202.5l.9-.4"/><path class="cls-2" d="M279.6,194.4v.5"/><path class="cls-2" d="M307.9,178.1l.8-.5"/><line class="cls-2" x1="345.1" y1="194.4" x2="345.1" y2="194.4"/><path class="cls-2" d="M321.6,170.6l-.4-.2"/><line class="cls-2" x1="317.5" y1="172.5" x2="317.5" y2="172.9"/><path class="cls-2" d="M317.5,172.5l.5.2"/><path class="cls-2" d="M317.1,173.2l-.4-.3"/><path class="cls-2" d="M312.7,175.7l-.4-.2"/><line class="cls-2" x1="308.7" y1="177.6" x2="308.7" y2="178.1"/><path class="cls-2" d="M308.7,177.6l.4.2"/><path class="cls-2" d="M313.2,175a.5.5,0,0,0,.4.2"/><path class="cls-2" d="M351.6,153.3l-.5-.2"/><line class="cls-2" x1="351.1" y1="153.1" x2="351.1" y2="153.6"/><line class="cls-2" x1="351.1" y1="153.1" x2="357.4" y2="149.5"/><path class="cls-2" d="M365.2,156l.4-.3"/><line class="cls-2" x1="378.1" y1="162.9" x2="378.1" y2="163.4"/><line class="cls-2" x1="343.7" y1="155.9" x2="343.7" y2="157.3"/><path class="cls-2" d="M343.7,155.9h.2"/><path class="cls-2" d="M343.7,157.3h.2"/><line class="cls-2" x1="348.5" y1="157.2" x2="348.5" y2="157.7"/><path class="cls-2" d="M348.5,157.2c.1.1.2.1.2.3"/><path class="cls-2" d="M343,160.9h-.9"/><path class="cls-2" d="M339.9,158.2h-.1"/><path class="cls-2" d="M339.8,158.1l-2.8,1.7"/><path class="cls-2" d="M337.8,161.2l-.4-.2"/><line class="cls-2" x1="334.9" y1="162.5" x2="334.9" y2="162.9"/><path class="cls-2" d="M334.9,162.5l.4.2"/><path class="cls-2" d="M332.7,162.2l-2.8,1.6"/><line class="cls-2" x1="329.9" y1="163.8" x2="329.9" y2="165.3"/><path class="cls-2" d="M329.9,163.8h.2"/><path class="cls-2" d="M329.9,165.3h.2"/><line class="cls-2" x1="334.7" y1="165.2" x2="334.7" y2="165.7"/><path class="cls-2" d="M334.7,165.2a.2.2,0,0,1,.2.2"/><path class="cls-2" d="M329.2,168.8a.8.8,0,0,1-.9,0"/><path class="cls-2" d="M326.1,166.2H326"/><path class="cls-2" d="M347.2,158.4a1.1,1.1,0,0,1,.6.9"/><line class="cls-2" x1="347.2" y1="159.2" x2="347.2" y2="158.4"/><path class="cls-2" d="M344.2,160.2l-1.2.7"/><line class="cls-2" x1="333.4" y1="167.1" x2="333.4" y2="166.4"/><path class="cls-2" d="M330.5,168.1l-1.3.7"/><line class="cls-2" x1="301.3" y1="180.4" x2="301.3" y2="181.8"/><path class="cls-2" d="M301.3,180.4h.1"/><path class="cls-2" d="M301.3,181.8h.1"/><line class="cls-2" x1="306.1" y1="181.7" x2="306.1" y2="182.2"/><path class="cls-2" d="M306.1,181.7c0,.1.1.1.1.2"/><path class="cls-2" d="M300.5,185.4h-.8"/><path class="cls-2" d="M297.5,182.7h-.1"/><path class="cls-2" d="M297.4,182.6l-2.8,1.7"/><path class="cls-2" d="M295.4,185.7l-.4-.2"/><line class="cls-2" x1="292.4" y1="186.9" x2="292.4" y2="187.4"/><path class="cls-2" d="M292.4,186.9l.5.3"/><path class="cls-2" d="M292,187.7l-.4-.3"/><path class="cls-2" d="M290.3,186.7l-2.8,1.6"/><line class="cls-2" x1="287.5" y1="188.3" x2="287.5" y2="189.8"/><path class="cls-2" d="M287.5,188.3h.2"/><path class="cls-2" d="M287.5,189.8h.2"/><line class="cls-2" x1="292.3" y1="189.7" x2="292.3" y2="190.2"/><path class="cls-2" d="M292.3,189.7c.1,0,.1.1.1.2"/><path class="cls-2" d="M286.8,193.3a.7.7,0,0,1-.9,0"/><path class="cls-2" d="M283.7,190.7h-.1"/><path class="cls-2" d="M304.8,182.9a1.1,1.1,0,0,1,.6.9"/><line class="cls-2" x1="304.8" y1="183.7" x2="304.8" y2="182.9"/><path class="cls-2" d="M301.8,184.6l-1.3.8"/><line class="cls-2" x1="291" y1="191.6" x2="291" y2="190.9"/><path class="cls-2" d="M288,192.6l-1.2.7"/><path class="cls-2" d="M279.2,195.1l-.5-.2"/><line class="cls-2" x1="275.1" y1="196.9" x2="275.1" y2="197.4"/><path class="cls-2" d="M275.1,196.9l.4.3"/><path class="cls-2" d="M274.7,197.7l-.4-.3"/><path class="cls-2" d="M270.3,200.2l-.4-.2"/><line class="cls-2" x1="266.3" y1="202.1" x2="266.3" y2="202.5"/><path class="cls-2" d="M266.3,202.1l.4.2"/><path class="cls-2" d="M270.7,199.5l.5.2"/><path class="cls-2" d="M230.6,223.9l-.7.2"/><path class="cls-2" d="M236.8,228.1a.3.3,0,0,0-.3.3"/><path class="cls-2" d="M243.8,232.1a.3.3,0,0,0-.3.3"/><path class="cls-2" d="M250.7,236.1h-.1"/><path class="cls-2" d="M236.7,219.6l-.4-.2"/><line class="cls-2" x1="232.7" y1="221.4" x2="232.7" y2="221.9"/><path class="cls-2" d="M232.7,221.4l.4.3"/><path class="cls-2" d="M232.3,222.2l-.4-.3"/><line class="cls-2" x1="258.9" y1="204.9" x2="258.9" y2="206.3"/><path class="cls-2" d="M258.9,204.9h.1"/><path class="cls-2" d="M258.9,206.3h.1"/><line class="cls-2" x1="263.6" y1="206.2" x2="263.6" y2="206.7"/><path class="cls-2" d="M263.6,206.2l.2.2"/><path class="cls-2" d="M258.1,209.9h-.8"/><path class="cls-2" d="M255,207.2h-.1"/><path class="cls-2" d="M254.9,207.1l-2.8,1.6"/><path class="cls-2" d="M253,210.2l-.4-.2"/><line class="cls-2" x1="250" y1="211.4" x2="250" y2="211.9"/><path class="cls-2" d="M250,211.4l.4.3"/><path class="cls-2" d="M249.6,212.2l-.4-.3"/><path class="cls-2" d="M247.9,211.2l-2.8,1.6"/><line class="cls-2" x1="245.1" y1="212.8" x2="245.1" y2="214.3"/><path class="cls-2" d="M245.1,212.8h.1"/><path class="cls-2" d="M245.1,214.3h.1"/><line class="cls-2" x1="249.9" y1="214.2" x2="249.9" y2="214.6"/><path class="cls-2" d="M249.9,214.2v.2"/><path class="cls-2" d="M244.3,217.8a.6.6,0,0,1-.8,0"/><path class="cls-2" d="M241.3,215.2h-.1"/><path class="cls-2" d="M262.4,207.4a1.1,1.1,0,0,1,.6.9"/><line class="cls-2" x1="262.4" y1="208.2" x2="262.4" y2="207.4"/><path class="cls-2" d="M259.4,209.1l-1.3.8"/><line class="cls-2" x1="248.6" y1="216.1" x2="248.6" y2="215.4"/><path class="cls-2" d="M245.6,217.1l-1.3.7"/><line class="cls-2" x1="306.6" y1="177.3" x2="301.3" y2="180.4"/><path class="cls-2" d="M349,152.8l-5.3,3.1"/><line class="cls-2" x1="264.2" y1="201.8" x2="258.9" y2="204.9"/><path class="cls-2" d="M241.2,215.1l-5.3,3"/><line class="cls-2" x1="283.6" y1="190.6" x2="278.3" y2="193.6"/><line class="cls-2" x1="326" y1="166.1" x2="320.7" y2="169.2"/><path class="cls-2" d="M348.7,157.5a.2.2,0,0,1-.2.2"/><path class="cls-2" d="M334.9,165.4l-.2.3"/><path class="cls-2" d="M306.2,181.9c0,.2-.1.2-.1.3"/><path class="cls-2" d="M292.4,189.9a.4.4,0,0,1-.1.3"/><path class="cls-2" d="M230.9,223.6a.3.3,0,0,1-.3.3"/><path class="cls-2" d="M247,231a.3.3,0,0,1-.3.3"/><path class="cls-2" d="M253.9,235a.3.3,0,0,1-.3.3"/><path class="cls-2" d="M263.8,206.4c0,.2-.1.2-.2.3"/><path class="cls-2" d="M250,214.4v.2"/><line class="cls-2" x1="313.2" y1="175.5" x2="313.2" y2="175"/><line class="cls-2" x1="345" y1="160.4" x2="347.2" y2="159.2"/><line class="cls-2" x1="331.2" y1="168.4" x2="333.4" y2="167.1"/><line class="cls-2" x1="302.6" y1="184.9" x2="304.8" y2="183.7"/><line class="cls-2" x1="288.8" y1="192.9" x2="291" y2="191.6"/><line class="cls-2" x1="270.7" y1="200" x2="270.7" y2="199.5"/><line class="cls-2" x1="260.2" y1="209.4" x2="262.4" y2="208.2"/><line class="cls-2" x1="246.4" y1="217.4" x2="248.6" y2="216.1"/><path class="cls-2" d="M382.8,142.3a.8.8,0,0,0,.4.7"/><path class="cls-2" d="M381.5,143a1,1,0,0,0,.5.8"/><line class="cls-2" x1="382.8" y1="142.3" x2="381.5" y2="143"/><path class="cls-2" d="M383.2,143l1.3.8"/><path class="cls-2" d="M387.5,146.9h.3"/><line class="cls-2" x1="388" y1="141.2" x2="386.7" y2="141.9"/><path class="cls-2" d="M386.7,142.1v-.2"/><path class="cls-2" d="M388,141.2l9.8,5.7"/><line class="cls-2" x1="397.8" y1="146.9" x2="396.5" y2="147.6"/><path class="cls-2" d="M397.8,146.9h0"/><line class="cls-2" x1="397.8" y1="147" x2="396.5" y2="147.7"/><path class="cls-2" d="M396.5,147.6h0"/><path class="cls-2" d="M397.8,147l-1.2,3.3"/><line class="cls-2" x1="396.6" y1="150.3" x2="395.3" y2="151"/><path class="cls-2" d="M396.5,147.7l-1.2,3.3"/><path class="cls-2" d="M396.6,150.3a1,1,0,0,0,.4.7"/><path class="cls-2" d="M395.3,151a.8.8,0,0,0,.4.7"/><path class="cls-2" d="M397,151l1.3.7"/><path class="cls-2" d="M379,147.1l-.4-.2"/><path class="cls-2" d="M378.6,145.6l.4.2"/><path class="cls-2" d="M379,139.8l-.4-.3"/><line class="cls-2" x1="379.8" y1="136.5" x2="378.6" y2="137.2"/><path class="cls-2" d="M378.6,139.5v-2.3"/><path class="cls-2" d="M379.8,136.5l4.2,2.4"/><line class="cls-2" x1="384" y1="138.9" x2="382.8" y2="139.6"/><path class="cls-2" d="M384,138.9h0"/><line class="cls-2" x1="384" y1="139" x2="382.7" y2="139.8"/><path class="cls-2" d="M382.8,139.6c0,.1-.1.1-.1.2"/><path class="cls-2" d="M384,139l-1.2,3.3"/><path class="cls-2" d="M382.7,139.8l-1.2,3.2"/><path class="cls-2" d="M398.3,151.7a1.9,1.9,0,0,0,.1.8"/><line class="cls-2" x1="398.3" y1="151.7" x2="397.7" y2="152.1"/><line class="cls-2" x1="387.5" y1="145.5" x2="386.8" y2="145.8"/><line class="cls-2" x1="383.9" y1="144.1" x2="384.5" y2="143.8"/><path class="cls-2" d="M387.5,145.5h.1"/><path class="cls-2" d="M410.8,158.9a.8.8,0,0,1-.4-.7"/><line class="cls-2" x1="410.4" y1="158.2" x2="409.1" y2="158.9"/><path class="cls-2" d="M409.5,159.7a1.2,1.2,0,0,1-.4-.8"/><path class="cls-2" d="M410.4,158.2l1.2-3.2"/><line class="cls-2" x1="411.6" y1="155" x2="410.3" y2="155.7"/><path class="cls-2" d="M409.1,158.9l1.2-3.2"/><path class="cls-2" d="M411.6,155v-.2"/><line class="cls-2" x1="411.6" y1="154.8" x2="410.3" y2="155.6"/><path class="cls-2" d="M410.3,155.7h0"/><path class="cls-2" d="M411.6,154.8l-9.9-5.7"/><line class="cls-2" x1="401.7" y1="149.1" x2="400.5" y2="149.9"/><path class="cls-2" d="M400.5,149.9h0"/><path class="cls-2" d="M401.7,154.7c0,.1,0,.2-.1.2"/><line class="cls-2" x1="421" y1="191.3" x2="419.7" y2="192"/><path class="cls-2" d="M421,191.3V170.9"/><path class="cls-2" d="M419.7,159.5l-4.2-2.4"/><line class="cls-2" x1="415.5" y1="157.1" x2="414.3" y2="157.8"/><path class="cls-2" d="M414.3,157.8v.2"/><line class="cls-2" x1="401.3" y1="153.4" x2="400.6" y2="153.8"/><path class="cls-2" d="M412.1,159.7a2.2,2.2,0,0,0,.1.8"/><line class="cls-2" x1="412.1" y1="159.7" x2="411.4" y2="160"/><path class="cls-2" d="M412.1,159.7l-1.3-.8"/><line class="cls-2" x1="420.3" y1="163.9" x2="420.3" y2="168"/><line class="cls-2" x1="420.3" y1="168" x2="419.7" y2="168.3"/><line class="cls-2" x1="420.3" y1="163.9" x2="419.7" y2="164.3"/><path class="cls-2" d="M387.8,147a.4.4,0,0,0,.1-.3"/><path class="cls-2" d="M401.6,154.9h-.3"/><path class="cls-2" d="M401.4,153.5h-.1"/><path class="cls-2" d="M384.7,144.6a3.1,3.1,0,0,1-.2-.8"/><path class="cls-2" d="M414.3,158c.2.9.4,1.8.7,2.8"/><path class="cls-2" d="M352.1,225.1h-.3"/><path class="cls-2" d="M355.7,217.1a.8.8,0,0,0,.4-.7"/><path class="cls-2" d="M356.1,210c0-.1,0-.2-.1-.2"/><path class="cls-2" d="M352.1,213.3h-.3"/><path class="cls-2" d="M351.7,206.7a1.2,1.2,0,0,1,.4-.8"/><line class="cls-2" x1="398.5" y1="165.1" x2="397.2" y2="164.3"/><line class="cls-2" x1="402" y1="202.2" x2="402" y2="190.9"/><line class="cls-2" x1="402" y1="190.9" x2="401.6" y2="190.7"/><line class="cls-2" x1="402" y1="190.9" x2="401.6" y2="191.2"/><polyline class="cls-2" points="419.7 179.8 419.7 174.2 419.7 172.6"/><line class="cls-2" x1="419.7" y1="172.6" x2="419.3" y2="172.3"/><line class="cls-2" x1="419.7" y1="172.6" x2="419.3" y2="172.8"/><line class="cls-2" x1="421" y1="170.9" x2="421" y2="160.3"/><line class="cls-2" x1="421" y1="160.3" x2="419.7" y2="159.5"/><line class="cls-2" x1="417.7" y1="162.2" x2="416.8" y2="161.7"/><line class="cls-2" x1="417.7" y1="162.2" x2="417.7" y2="162.7"/><line class="cls-2" x1="417.7" y1="162.7" x2="416.8" y2="162.2"/><line class="cls-2" x1="417.7" y1="162.7" x2="416.8" y2="163.2"/><line class="cls-2" x1="412.6" y1="163.6" x2="411.3" y2="162.9"/><polyline class="cls-2" points="412.6 163.6 412.6 165.1 412.6 165.6"/><line class="cls-2" x1="412.6" y1="165.6" x2="411.3" y2="164.9"/><polyline class="cls-2" points="411.3 162.9 411.3 164.4 411.3 164.9"/><line class="cls-2" x1="412.6" y1="165.6" x2="411.7" y2="166.1"/><line class="cls-2" x1="411.3" y1="164.9" x2="410.9" y2="165.1"/><line class="cls-2" x1="411.7" y1="166.1" x2="411.7" y2="165.6"/><line class="cls-2" x1="409.2" y1="167.1" x2="408.3" y2="166.6"/><line class="cls-2" x1="410.5" y1="164.9" x2="408.3" y2="166.1"/><line class="cls-2" x1="409.2" y1="167.1" x2="409.2" y2="167.6"/><line class="cls-2" x1="409.2" y1="167.6" x2="408.3" y2="167.1"/><line class="cls-2" x1="409.2" y1="167.6" x2="408.3" y2="168"/><line class="cls-2" x1="408.3" y1="166.1" x2="407.1" y2="165.4"/><line class="cls-2" x1="404.1" y1="168.5" x2="402.8" y2="167.8"/><line class="cls-2" x1="407.1" y1="165.4" x2="402.8" y2="167.8"/><polyline class="cls-2" points="404.1 168.5 404.1 170 404.1 170.5"/><line class="cls-2" x1="404.1" y1="170.5" x2="402.8" y2="169.8"/><polyline class="cls-2" points="402.8 167.8 402.8 169.3 402.8 169.8"/><line class="cls-2" x1="404.1" y1="170.5" x2="403.2" y2="171"/><line class="cls-2" x1="402.8" y1="169.8" x2="402.4" y2="170"/><line class="cls-2" x1="403.2" y1="171" x2="403.2" y2="170.5"/><path class="cls-2" d="M420.3,168a.6.6,0,0,1-.1.4c-.1.1-.3.2-.4.1"/><path class="cls-2" d="M388.6,187.3h-.2"/><line class="cls-2" x1="401.6" y1="180.7" x2="401.6" y2="181.2"/><line class="cls-2" x1="402.5" y1="180.7" x2="402.5" y2="181.7"/><line class="cls-2" x1="402.5" y1="181.7" x2="402" y2="181.5"/><line class="cls-2" x1="402" y1="185.7" x2="402.5" y2="185.5"/><line class="cls-2" x1="402.5" y1="185.5" x2="402.5" y2="186.5"/><line class="cls-2" x1="402.5" y1="186.5" x2="402" y2="186.2"/><line class="cls-2" x1="402.5" y1="186.5" x2="402" y2="186.7"/><line class="cls-2" x1="401.6" y1="186.9" x2="401.6" y2="187.4"/><line class="cls-2" x1="401.6" y1="187.4" x2="401.2" y2="187.2"/><line class="cls-2" x1="401.6" y1="187.4" x2="400.8" y2="187.9"/><path class="cls-2" d="M356.1,228.7,402,202.2"/><path class="cls-2" d="M351.8,225.1c-.1,0-.1-.1-.1-.2"/><path class="cls-2" d="M351.8,213.3a.4.4,0,0,1-.1-.3"/><path class="cls-2" d="M420.3,163.7v.2"/><line class="cls-2" x1="409.1" y1="185.9" x2="419.7" y2="192"/><path class="cls-2" d="M419.7,172.6v-1"/><line class="cls-2" x1="420" y1="163.7" x2="420.3" y2="163.9"/><line class="cls-2" x1="379" y1="145.3" x2="378.6" y2="145.6"/><path class="cls-2" d="M186.4,319.8a1.3,1.3,0,0,1,.4-.7"/><path class="cls-2" d="M186.8,319.1l3.6-.6"/><path class="cls-2" d="M190.4,318.5a1,1,0,0,0,.4-.7"/><path class="cls-2" d="M190.8,299.6c0-.1,0-.2-.1-.2"/><line class="cls-2" x1="144" y1="320.2" x2="144" y2="312"/><line class="cls-2" x1="144" y1="312" x2="142.7" y2="311.3"/><line class="cls-2" x1="142.7" y1="319.5" x2="142.7" y2="311.3"/><line class="cls-2" x1="144" y1="320.2" x2="142.7" y2="319.5"/><line class="cls-2" x1="140.4" y1="353.3" x2="139.2" y2="352.5"/><line class="cls-2" x1="140.4" y1="342" x2="139.6" y2="341.5"/><line class="cls-2" x1="140.4" y1="342" x2="140.9" y2="341.7"/><line class="cls-2" x1="140.9" y1="341.7" x2="140" y2="341.3"/><line class="cls-2" x1="140.9" y1="341.7" x2="140.9" y2="340.8"/><line class="cls-2" x1="122.8" y1="344" x2="123.2" y2="343.8"/><line class="cls-2" x1="123.2" y1="343.8" x2="122.8" y2="343.5"/><line class="cls-2" x1="121.5" y1="343.8" x2="120.2" y2="343"/><line class="cls-2" x1="121.5" y1="333.2" x2="120.2" y2="332.4"/><line class="cls-2" x1="125.7" y1="331.3" x2="124.4" y2="330.5"/><polyline class="cls-2" points="125.7 331.3 125.7 330.8 125.7 329.3"/><line class="cls-2" x1="125.7" y1="329.3" x2="124.4" y2="328.6"/><polyline class="cls-2" points="124.4 330.5 124.4 330 124.4 328.6"/><line class="cls-2" x1="129.9" y1="326.8" x2="128.6" y2="326.1"/><line class="cls-2" x1="124.4" y1="328.6" x2="128.6" y2="326.1"/><line class="cls-2" x1="129.9" y1="328.8" x2="130.7" y2="328.3"/><line class="cls-2" x1="130.7" y1="328.3" x2="129.9" y2="327.8"/><line class="cls-2" x1="130.7" y1="328.3" x2="130.7" y2="327.8"/><line class="cls-2" x1="130.7" y1="327.8" x2="129.9" y2="327.3"/><line class="cls-2" x1="133.3" y1="326.4" x2="133.3" y2="326.8"/><line class="cls-2" x1="133.3" y1="326.8" x2="134.1" y2="326.4"/><line class="cls-2" x1="134.1" y1="326.4" x2="132.9" y2="325.6"/><polyline class="cls-2" points="134.1 326.4 134.1 325.9 134.1 324.4"/><line class="cls-2" x1="134.1" y1="324.4" x2="132.9" y2="323.7"/><polyline class="cls-2" points="132.9 325.6 132.9 325.1 132.9 323.7"/><line class="cls-2" x1="138.4" y1="321.9" x2="137.1" y2="321.2"/><line class="cls-2" x1="139.2" y1="323.4" x2="139.2" y2="322.9"/><path class="cls-2" d="M122.8,335.7v-.2"/><path class="cls-2" d="M122.1,340.1a.4.4,0,0,0,.1.3"/><path class="cls-2" d="M122.8,339.8v-4.1"/><path class="cls-2" d="M152.6,325a3.7,3.7,0,0,0,1.3-1.5,1.8,1.8,0,0,0,.1-1,1.1,1.1,0,0,0-.4-.9"/><path class="cls-2" d="M151.4,324.2a3.1,3.1,0,0,0,1.4-2.6"/><path class="cls-2" d="M152.6,321.7l-4.2,2.5"/><path class="cls-2" d="M148.4,327.4l4.2-2.4"/><path class="cls-2" d="M147.1,326.7l4.3-2.5"/><line class="cls-2" x1="140.9" y1="331.3" x2="140.9" y2="331.8"/><line class="cls-2" x1="140" y1="333.3" x2="140.4" y2="333"/><line class="cls-2" x1="140.4" y1="333" x2="140" y2="332.8"/><line class="cls-2" x1="140.4" y1="336.8" x2="140" y2="337"/><line class="cls-2" x1="140.9" y1="337.5" x2="140.9" y2="338"/><line class="cls-2" x1="140.9" y1="338" x2="141.7" y2="337.5"/><line class="cls-2" x1="141.7" y1="337.5" x2="141.3" y2="337.3"/><line class="cls-2" x1="141.7" y1="337.5" x2="141.7" y2="337"/><path class="cls-2" d="M186.4,326.7l-46,26.6"/><path class="cls-2" d="M122.2,340.4a.5.5,0,0,0,.4-.2.8.8,0,0,0,.2-.4"/><path class="cls-2" d="M147.4,327.5a.9.9,0,0,0,1-.1"/><line class="cls-2" x1="124" y1="330.8" x2="124.4" y2="330.5"/><line class="cls-2" x1="129.9" y1="326.8" x2="132" y2="325.6"/><line class="cls-2" x1="132.4" y1="325.9" x2="132.9" y2="325.6"/><path class="cls-2" d="M147,326.8a.1.1,0,0,1,.1-.1"/><path class="cls-2" d="M363.8,150.6h0"/><line class="cls-2" x1="363.8" y1="150.7" x2="365.1" y2="150"/><path class="cls-2" d="M365.1,149.9h0"/><line class="cls-2" x1="363.8" y1="150.6" x2="365.1" y2="149.9"/><path class="cls-2" d="M363.8,150.7l-.8,2.1"/><path class="cls-2" d="M365.1,150l-1.2,3.2"/><path class="cls-2" d="M367.8,153h-.1"/><line class="cls-2" x1="367.7" y1="152.9" x2="369" y2="152.1"/><path class="cls-2" d="M377.6,158.5v.2"/><path class="cls-2" d="M378.9,157.8h-.1"/><path class="cls-2" d="M381.5,161v-.2"/><line class="cls-2" x1="381.5" y1="160.8" x2="382.8" y2="160.1"/><line class="cls-2" x1="391.4" y1="166.5" x2="392.6" y2="165.8"/><path class="cls-2" d="M382.8,160.1l2.6,1.5"/><path class="cls-2" d="M391.4,166.5h-.1"/><line class="cls-2" x1="391.3" y1="166.6" x2="392.6" y2="165.9"/><path class="cls-2" d="M392.6,165.8h0"/><path class="cls-2" d="M391.3,166.6a5.8,5.8,0,0,1-.5,1.4"/><path class="cls-2" d="M392.6,165.9l-.5,1.4"/><line class="cls-2" x1="359.6" y1="148.2" x2="360.9" y2="147.4"/><path class="cls-2" d="M360.9,147.4l4.2,2.5"/><path class="cls-2" d="M377.3,156.9v-.2"/><path class="cls-2" d="M398.5,169.2l2.3,1.3"/><path class="cls-2" d="M398.5,170.6l1,.6"/><path class="cls-2" d="M359.6,150.8v-2.6"/><path class="cls-2" d="M355.7,188.3l-.4-.2"/><line class="cls-2" x1="380.2" y1="162.7" x2="381.8" y2="163.6"/><path class="cls-2" d="M366.3,182.2l-.4-.3"/><path class="cls-2" d="M376.9,176.1l-.4-.3"/><path class="cls-2" d="M419.7,164.3c0-.2.1-.3.2-.5s.2-.2.4-.1"/><path class="cls-2" d="M419.8,168.5c-.1,0-.1-.1-.1-.2"/><line class="cls-2" x1="140" y1="338" x2="140.4" y2="337.7"/><path class="cls-2" d="M120.2,343l-.4-.2"/><path class="cls-2" d="M141.3,331l.4.3"/><path class="cls-2" d="M287.5,189.8l-3.1,1.8"/><path class="cls-2" d="M301.3,181.8l-3.1,1.8"/><path class="cls-2" d="M258.9,206.3l-3.1,1.8"/><path class="cls-2" d="M242,216.1l3.1-1.8"/><polyline class="cls-2" points="361 185.3 361 185.3 361 184.8"/><polyline class="cls-2" points="371.6 179.1 371.6 179.1 371.6 178.6"/><path class="cls-2" d="M231.9,221.9l.8-.5"/><path class="cls-2" d="M253.4,210v-.5"/><path class="cls-2" d="M250,211.4l-.8.5"/><path class="cls-2" d="M295.8,185.5V185"/><path class="cls-2" d="M292.4,186.9l-.8.5"/><path class="cls-2" d="M274.3,197.4l.8-.5"/><path class="cls-2" d="M242.8,217.1l4-2.3"/><path class="cls-2" d="M289.2,190.3l-3.9,2.3"/><path class="cls-2" d="M303,182.3l-4,2.3"/><path class="cls-2" d="M260.6,206.8l-4,2.3"/><line class="cls-2" x1="141.7" y1="331.3" x2="141.7" y2="330.8"/><path class="cls-2" d="M390.2,164.3l2.4,1.5"/><path class="cls-2" d="M382.2,163.4c-.2-.8-.5-1.6-.7-2.4"/><path class="cls-2" d="M295.8,185l.5.2"/><path class="cls-2" d="M279.6,194.4l.4.2"/><path class="cls-2" d="M237.2,218.9l.4.2"/><path class="cls-2" d="M253.4,209.5l.4.2"/><path class="cls-2" d="M390.2,165.8l1.2.7"/><path class="cls-2" d="M186.4,314.4a.4.4,0,0,0,.1.3"/><path class="cls-2" d="M356.1,204.6a1,1,0,0,1-.4.7"/><path class="cls-2" d="M356,221.6a.4.4,0,0,1,.1.3"/><path class="cls-2" d="M121.9,285.4l.9-.5"/><path class="cls-2" d="M140.4,332v1"/><path class="cls-2" d="M180.6,251.5l.8-.5"/><path class="cls-2" d="M194.7,243.4v.5"/><path class="cls-2" d="M223,227l.9-.5"/><path class="cls-2" d="M378.1,162.9l-.5.3"/><path class="cls-2" d="M323.9,206.7l-.4-.3"/><path class="cls-2" d="M334.5,200.6l-.4-.3"/><path class="cls-2" d="M313.3,212.8l-.5-.2"/><path class="cls-2" d="M270.8,237.3a.5.5,0,0,0-.4-.2"/><path class="cls-2" d="M292.1,225.1l-.5-.3"/><line class="cls-2" x1="170.9" y1="295" x2="170.5" y2="294.7"/><line class="cls-2" x1="132.1" y1="348.4" x2="130.8" y2="347.7"/><line class="cls-2" x1="163.9" y1="298.5" x2="163.9" y2="299"/><line class="cls-2" x1="160.3" y1="301.1" x2="159.9" y2="300.9"/><line class="cls-2" x1="160.3" y1="301.1" x2="160.3" y2="300.6"/><line class="cls-2" x1="153.3" y1="304.7" x2="153.3" y2="305.1"/><polyline class="cls-2" points="132.1 348.4 133.4 347.7 139.2 344.4"/><line class="cls-2" x1="126.5" y1="312.1" x2="125.7" y2="311.6"/><line class="cls-2" x1="125.7" y1="311.6" x2="126.1" y2="311.3"/><line class="cls-2" x1="125.7" y1="311.6" x2="125.7" y2="311.1"/><line class="cls-2" x1="110.7" y1="302.9" x2="111.1" y2="302.7"/><line class="cls-2" x1="110.7" y1="302.9" x2="111.5" y2="303.4"/><line class="cls-2" x1="111.5" y1="301.5" x2="112.8" y2="300.7"/><line class="cls-2" x1="170.9" y1="295" x2="170.9" y2="294.5"/><line class="cls-2" x1="337" y1="159.8" x2="338.3" y2="160.5"/><path class="cls-2" d="M337,159.8l-4.3,2.4"/><path class="cls-2" d="M313.7,173.2l7-4"/><line class="cls-2" x1="320.7" y1="169.2" x2="322" y2="169.9"/><path class="cls-2" d="M349,152.8l11.8-6.8"/><path class="cls-2" d="M362.1,146.7v.5"/><line class="cls-2" x1="361.7" y1="146" x2="362.9" y2="146.7"/><path class="cls-2" d="M362.1,147.2l.8-.5"/><path class="cls-2" d="M361.7,146v-2"/><line class="cls-2" x1="361.7" y1="144" x2="362.9" y2="144.8"/><path class="cls-2" d="M362.9,146.7v-1.9"/><path class="cls-2" d="M361.7,144l4.2-2.4"/><line class="cls-2" x1="365.9" y1="141.6" x2="367.2" y2="142.3"/><path class="cls-2" d="M367.2,144.3l.8-.5"/><path class="cls-2" d="M368,143.8v-.5"/><path class="cls-2" d="M370.6,141.8v.5"/><line class="cls-2" x1="370.1" y1="141.1" x2="371.4" y2="141.8"/><path class="cls-2" d="M370.6,142.3l.8-.5"/><path class="cls-2" d="M370.1,141.1v-2"/><line class="cls-2" x1="370.1" y1="139.1" x2="371.4" y2="139.9"/><path class="cls-2" d="M371.4,141.8v-1.9"/><path class="cls-2" d="M370.1,139.1l4.3-2.4"/><line class="cls-2" x1="374.4" y1="136.7" x2="375.7" y2="137.4"/><path class="cls-2" d="M375.7,139.4l.8-.5"/><path class="cls-2" d="M376.5,138.9v-.5"/><line class="cls-2" x1="378.6" y1="135.8" x2="379.8" y2="136.5"/><path class="cls-2" d="M378.1,149.1l.5-.3"/><path class="cls-2" d="M378.6,148.8V156"/><path class="cls-2" d="M378.7,144.8h.2"/><path class="cls-2" d="M361.2,146.2l.5-.2"/><line class="cls-2" x1="367.2" y1="143.3" x2="368" y2="143.8"/><line class="cls-2" x1="367.2" y1="142.8" x2="368" y2="143.3"/><path class="cls-2" d="M367.2,142.3l2.1-1.2"/><path class="cls-2" d="M369.7,141.4l.4-.3"/><line class="cls-2" x1="375.7" y1="138.4" x2="376.5" y2="138.9"/><line class="cls-2" x1="375.7" y1="137.9" x2="376.5" y2="138.4"/><path class="cls-2" d="M375.7,137.4l2.9-1.6"/><line class="cls-2" x1="378.1" y1="148.6" x2="378.6" y2="148.8"/><path class="cls-2" d="M181.9,251.3l-.5-.3"/><line class="cls-2" x1="181.4" y1="251" x2="181.4" y2="251.5"/><path class="cls-2" d="M185,249l.5.2"/><path class="cls-2" d="M190.7,246.2l-.4-.3"/><line class="cls-2" x1="190.3" y1="245.9" x2="190.3" y2="246.4"/><path class="cls-2" d="M193.9,243.9l.4.2"/><line class="cls-2" x1="185.9" y1="248.5" x2="185.9" y2="249"/><path class="cls-2" d="M189.4,246.4l.5.3"/><path class="cls-2" d="M139.4,275.8l-.4-.3"/><line class="cls-2" x1="139" y1="275.5" x2="139" y2="276"/><path class="cls-2" d="M142.6,273.4l.4.3"/><path class="cls-2" d="M143.9,273.2l-.4-.2"/><path class="cls-2" d="M148.3,270.7l-.4-.3"/><line class="cls-2" x1="147.9" y1="270.4" x2="147.9" y2="270.9"/><path class="cls-2" d="M151.5,268.3l.4.3"/><line class="cls-2" x1="143.5" y1="273" x2="143.5" y2="273.4"/><path class="cls-2" d="M147,270.9l.4.3"/><line class="cls-2" x1="174" y1="253.8" x2="174" y2="255.3"/><path class="cls-2" d="M156.3,264.1h.1"/><path class="cls-2" d="M158.6,266.8h.9"/><path class="cls-2" d="M159.5,266.8l1.3-.7"/><path class="cls-2" d="M165,263.6a.2.2,0,0,0,.2-.2"/><line class="cls-2" x1="165" y1="263.1" x2="165" y2="263.6"/><path class="cls-2" d="M160.4,261.9h-.1"/><line class="cls-2" x1="160.3" y1="261.8" x2="160.3" y2="263.3"/><path class="cls-2" d="M160.4,263.3h-.1"/><path class="cls-2" d="M160.3,261.8l2.8-1.6"/><path class="cls-2" d="M165.6,260.7l-.4-.3"/><line class="cls-2" x1="165.2" y1="260.4" x2="165.2" y2="260.9"/><path class="cls-2" d="M167.7,259a.5.5,0,0,1,.4.2"/><path class="cls-2" d="M167.3,257.7l2.8-1.6"/><path class="cls-2" d="M170.1,256.1h.1"/><path class="cls-2" d="M172.4,258.9a1.4,1.4,0,0,0,.9,0"/><path class="cls-2" d="M173.3,258.9l1.2-.8"/><path class="cls-2" d="M178.8,255.7l.2-.3"/><line class="cls-2" x1="178.8" y1="255.2" x2="178.8" y2="255.7"/><path class="cls-2" d="M174.2,253.9H174"/><path class="cls-2" d="M174.2,255.4H174"/><line class="cls-2" x1="163.7" y1="264.4" x2="163.7" y2="265.1"/><line class="cls-2" x1="163.7" y1="265.1" x2="161.5" y2="266.4"/><line class="cls-2" x1="177.5" y1="256.4" x2="177.5" y2="257.1"/><line class="cls-2" x1="177.5" y1="257.1" x2="175.3" y2="258.4"/><line class="cls-2" x1="131.6" y1="278.3" x2="131.6" y2="279.8"/><path class="cls-2" d="M113.9,288.6h.1"/><path class="cls-2" d="M116.2,291.3h.9"/><path class="cls-2" d="M117.1,291.3l1.2-.7"/><path class="cls-2" d="M122.6,288.1a.2.2,0,0,0,.2-.2"/><line class="cls-2" x1="122.6" y1="287.6" x2="122.6" y2="288.1"/><path class="cls-2" d="M118,286.4h-.2"/><line class="cls-2" x1="117.8" y1="286.3" x2="117.8" y2="287.8"/><path class="cls-2" d="M118,287.8h-.2"/><path class="cls-2" d="M117.8,286.3l2.8-1.6"/><path class="cls-2" d="M123.2,285.2l-.4-.3"/><line class="cls-2" x1="122.8" y1="284.9" x2="122.8" y2="285.4"/><path class="cls-2" d="M125.3,283.4l.4.3"/><path class="cls-2" d="M124.9,282.2l2.8-1.6"/><path class="cls-2" d="M127.7,280.6h.1"/><path class="cls-2" d="M130,283.3a.6.6,0,0,0,.8,0"/><path class="cls-2" d="M130.8,283.3l1.3-.7"/><path class="cls-2" d="M136.4,280.2c0-.1.1-.2.1-.3"/><line class="cls-2" x1="136.4" y1="279.7" x2="136.4" y2="280.2"/><path class="cls-2" d="M131.8,278.4h-.2"/><path class="cls-2" d="M131.8,279.9h-.2"/><line class="cls-2" x1="121.3" y1="288.9" x2="121.3" y2="289.6"/><line class="cls-2" x1="121.3" y1="289.6" x2="119.1" y2="290.9"/><line class="cls-2" x1="135.1" y1="280.9" x2="135.1" y2="281.6"/><line class="cls-2" x1="135.1" y1="281.6" x2="132.9" y2="282.9"/><path class="cls-2" d="M109.5,293.1l-.5-.3"/><line class="cls-2" x1="102.8" y1="296.4" x2="102.8" y2="297.9"/><line class="cls-2" x1="113.2" y1="300.5" x2="113.2" y2="301"/><path class="cls-2" d="M113.2,300.5l.9.5"/><path class="cls-2" d="M114.1,301l-.5.2"/><line class="cls-2" x1="125.7" y1="309.6" x2="125.7" y2="311.1"/><line class="cls-2" x1="134.4" y1="314.6" x2="134.4" y2="316.1"/><line class="cls-2" x1="216.5" y1="229.3" x2="216.5" y2="230.8"/><path class="cls-2" d="M198.7,239.6h.1"/><path class="cls-2" d="M201.1,242.3a.6.6,0,0,0,.8,0"/><path class="cls-2" d="M201.9,242.3l1.3-.7"/><path class="cls-2" d="M207.4,239.1l.2-.2"/><line class="cls-2" x1="207.4" y1="238.6" x2="207.4" y2="239.1"/><path class="cls-2" d="M202.8,237.4h-.1"/><line class="cls-2" x1="202.7" y1="237.3" x2="202.7" y2="238.8"/><path class="cls-2" d="M202.8,238.8h-.1"/><path class="cls-2" d="M202.7,237.3l2.8-1.6"/><path class="cls-2" d="M208,236.2l-.4-.3"/><line class="cls-2" x1="207.6" y1="235.9" x2="207.6" y2="236.4"/><path class="cls-2" d="M210.1,234.5l.5.2"/><path class="cls-2" d="M209.7,233.2l2.8-1.6"/><path class="cls-2" d="M212.5,231.6h.1"/><path class="cls-2" d="M214.8,234.4h.9"/><path class="cls-2" d="M215.7,234.4l1.3-.8"/><path class="cls-2" d="M221.2,231.2l.2-.3"/><line class="cls-2" x1="221.2" y1="230.7" x2="221.2" y2="231.2"/><path class="cls-2" d="M216.6,229.4h-.1"/><path class="cls-2" d="M216.6,230.9h-.1"/><line class="cls-2" x1="206.2" y1="239.9" x2="206.2" y2="240.6"/><line class="cls-2" x1="206.2" y1="240.6" x2="204" y2="241.9"/><line class="cls-2" x1="219.9" y1="231.9" x2="219.9" y2="232.6"/><line class="cls-2" x1="219.9" y1="232.6" x2="217.7" y2="233.9"/><path class="cls-2" d="M230.8,223.3v.3"/><path class="cls-2" d="M233.2,226.6a.9.9,0,0,0,1-.1"/><path class="cls-2" d="M234.2,226.5a18.3,18.3,0,0,1,1.3-1.6"/><path class="cls-2" d="M235.5,224.9a.6.6,0,0,1,.9-.1"/><path class="cls-2" d="M236.4,224.8l3.5,2"/><path class="cls-2" d="M239.9,226.8c.1,0,.1.1.1.2"/><path class="cls-2" d="M240.1,230.6a1.1,1.1,0,0,0,1-.1"/><path class="cls-2" d="M241.1,230.5l1.3-1.6"/><path class="cls-2" d="M242.4,228.9a.8.8,0,0,1,1-.1"/><path class="cls-2" d="M243.4,228.8l3.4,2"/><path class="cls-2" d="M246.8,230.8l.2.2"/><path class="cls-2" d="M249.3,232.9a.8.8,0,0,1,1-.1"/><path class="cls-2" d="M224.3,226.8l-.4-.3"/><line class="cls-2" x1="223.9" y1="226.5" x2="223.9" y2="227"/><path class="cls-2" d="M227.5,224.5l.4.2"/><path class="cls-2" d="M228.7,224.2l-.4-.2"/><line class="cls-2" x1="228.3" y1="224" x2="228.3" y2="224.5"/><line class="cls-2" x1="193.5" y1="242.6" x2="198.7" y2="239.6"/><line class="cls-2" x1="151" y1="267.1" x2="156.3" y2="264.1"/><line class="cls-2" x1="131.6" y1="278.3" x2="136.9" y2="275.3"/><path class="cls-2" d="M108.6,291.6l5.3-3"/><path class="cls-2" d="M216.5,229.3l5.2-3"/><line class="cls-2" x1="174" y1="253.8" x2="179.3" y2="250.8"/><path class="cls-2" d="M165.2,263.4l-.2-.3"/><path class="cls-2" d="M179,255.4a.2.2,0,0,0-.2-.2"/><path class="cls-2" d="M178.1,257.3a1.1,1.1,0,0,0-.6-.9"/><path class="cls-2" d="M122.8,287.9l-.2-.3"/><path class="cls-2" d="M136.5,279.9v-.2"/><path class="cls-2" d="M135.7,281.8a1.1,1.1,0,0,0-.6-.9"/><path class="cls-2" d="M207.6,238.9l-.2-.3"/><path class="cls-2" d="M221.4,230.9a.2.2,0,0,0-.2-.2"/><path class="cls-2" d="M220.6,232.8c0-.4-.4-.7-.7-.9"/><path class="cls-2" d="M240,227l-.2.3"/><path class="cls-2" d="M236.5,228.4l.2.2"/><path class="cls-2" d="M243.5,232.4v.2"/><polyline class="cls-2" points="175.4 292.4 175.4 292.4 175.4 291.9"/><polyline class="cls-2" points="164.8 298.5 164.8 298.5 164.8 298"/><polyline class="cls-2" points="154.2 304.7 154.2 304.7 154.2 304.2"/><line class="cls-2" x1="126.5" y1="311.6" x2="126.5" y2="312.1"/><path class="cls-2" d="M112.8,300.7l.4-.2"/><path class="cls-2" d="M175,292.2l.4.2"/><path class="cls-2" d="M164.4,298.3a.5.5,0,0,0,.4.2"/><path class="cls-2" d="M153.8,304.4l.4.3"/><line class="cls-2" x1="340.6" y1="197" x2="340.2" y2="196.8"/><line class="cls-2" x1="344.2" y1="194.9" x2="344.2" y2="194.4"/><line class="cls-2" x1="345.1" y1="193.9" x2="345.1" y2="194.4"/><line class="cls-2" x1="181.5" y1="288.9" x2="181.1" y2="288.6"/><line class="cls-2" x1="181.5" y1="288.9" x2="181.5" y2="288.4"/><line class="cls-2" x1="206.4" y1="274" x2="206.4" y2="274.5"/><line class="cls-2" x1="202.8" y1="276.6" x2="202.3" y2="276.4"/><line class="cls-2" x1="202.8" y1="276.6" x2="202.8" y2="276.1"/><line class="cls-2" x1="195.8" y1="280.2" x2="195.8" y2="280.7"/><line class="cls-2" x1="192.2" y1="282.7" x2="191.7" y2="282.5"/><line class="cls-2" x1="217" y1="267.9" x2="217" y2="268.4"/><line class="cls-2" x1="213.4" y1="270.5" x2="212.9" y2="270.2"/><line class="cls-2" x1="213.4" y1="270.5" x2="213.4" y2="270"/><line class="cls-2" x1="227.6" y1="261.8" x2="227.6" y2="262.3"/><line class="cls-2" x1="224" y1="264.4" x2="224" y2="263.9"/><line class="cls-2" x1="248.8" y1="249.5" x2="248.8" y2="250"/><line class="cls-2" x1="245.2" y1="252.1" x2="244.8" y2="251.9"/><line class="cls-2" x1="245.2" y1="252.1" x2="245.2" y2="251.6"/><line class="cls-2" x1="238.2" y1="255.7" x2="238.2" y2="256.2"/><line class="cls-2" x1="234.6" y1="258.2" x2="234.2" y2="258"/><line class="cls-2" x1="259.4" y1="243.4" x2="259.4" y2="243.9"/><line class="cls-2" x1="255.8" y1="246" x2="255.8" y2="245.5"/><line class="cls-2" x1="270" y1="237.3" x2="270" y2="237.8"/><line class="cls-2" x1="266.4" y1="239.9" x2="266" y2="239.6"/><line class="cls-2" x1="266.4" y1="239.9" x2="266.4" y2="239.4"/><line class="cls-2" x1="291.2" y1="225.1" x2="291.2" y2="225.5"/><line class="cls-2" x1="287.6" y1="227.6" x2="287.2" y2="227.4"/><line class="cls-2" x1="287.6" y1="227.6" x2="287.6" y2="227.1"/><line class="cls-2" x1="280.6" y1="231.2" x2="280.6" y2="231.7"/><line class="cls-2" x1="277" y1="233.8" x2="276.6" y2="233.5"/><line class="cls-2" x1="301.8" y1="218.9" x2="301.8" y2="219.4"/><line class="cls-2" x1="298.2" y1="221.5" x2="297.8" y2="221.3"/><line class="cls-2" x1="298.2" y1="221.5" x2="298.2" y2="221"/><line class="cls-2" x1="312.4" y1="212.8" x2="312.4" y2="213.3"/><line class="cls-2" x1="308.8" y1="215.4" x2="308.4" y2="215.1"/><line class="cls-2" x1="330" y1="203.1" x2="329.6" y2="202.9"/><line class="cls-2" x1="330" y1="203.1" x2="330" y2="202.6"/><line class="cls-2" x1="323" y1="206.7" x2="323" y2="207.2"/><path class="cls-2" d="M228,261.5l.4.3"/><path class="cls-2" d="M217.4,267.7l.4.2"/><path class="cls-2" d="M185.6,286l.4.3"/><path class="cls-2" d="M206.8,273.8l.4.2"/><path class="cls-2" d="M196.2,279.9l.4.3"/><path class="cls-2" d="M249.2,249.3l.4.2"/><path class="cls-2" d="M238.6,255.4l.4.3"/><path class="cls-2" d="M259.8,243.2l.4.2"/><polyline class="cls-2" points="186 286.3 186 286.3 186 285.8"/><polyline class="cls-2" points="207.2 274 207.2 274 207.2 273.6"/><polyline class="cls-2" points="196.6 280.2 196.6 280.2 196.6 279.7"/><polyline class="cls-2" points="217.8 267.9 217.8 267.9 217.8 267.4"/><polyline class="cls-2" points="228.4 261.8 228.4 261.8 228.4 261.3"/><polyline class="cls-2" points="249.6 249.5 249.6 249.5 249.6 249.1"/><polyline class="cls-2" points="260.2 243.4 260.2 243.4 260.2 242.9"/><line class="cls-2" x1="174.5" y1="292.4" x2="174.5" y2="292.9"/><line class="cls-2" x1="170.1" y1="295" x2="170.1" y2="295.5"/><line class="cls-2" x1="134.4" y1="316.1" x2="134.4" y2="322.6"/><line class="cls-2" x1="148.9" y1="307.2" x2="148.9" y2="307.7"/><line class="cls-2" x1="110.7" y1="302.4" x2="110.7" y2="302.9"/><path class="cls-2" d="M322,169.9v.5"/><path class="cls-2" d="M350.3,153.6l.8-.5"/><path class="cls-2" d="M376.5,138.4l2.1-1.2"/><path class="cls-2" d="M195.2,243.6l-.5-.2"/><path class="cls-2" d="M152.7,268.1a.5.5,0,0,0-.4-.2"/><path class="cls-2" d="M169,258.7l-.4-.2"/><path class="cls-2" d="M211.4,234.2l-.4-.2"/><line class="cls-2" x1="180.7" y1="288.9" x2="180.7" y2="289.3"/><line class="cls-2" x1="201.9" y1="276.6" x2="201.9" y2="277.1"/><line class="cls-2" x1="212.5" y1="270.5" x2="212.5" y2="271"/><line class="cls-2" x1="224" y1="264.4" x2="223.5" y2="264.1"/><line class="cls-2" x1="244.3" y1="252.1" x2="244.3" y2="252.6"/><line class="cls-2" x1="233.7" y1="258.2" x2="233.7" y2="258.7"/><line class="cls-2" x1="255.8" y1="246" x2="255.4" y2="245.8"/><line class="cls-2" x1="254.9" y1="246" x2="254.9" y2="246.5"/><line class="cls-2" x1="265.5" y1="239.9" x2="265.5" y2="240.4"/><polyline class="cls-2" points="276.1 233.8 276.1 234.2 276.1 234.2"/><polyline class="cls-2" points="297.4 221.5 297.4 222 297.4 222"/><polyline class="cls-2" points="308 215.4 308 215.9 308 215.9"/><polyline class="cls-2" points="329.2 203.1 329.2 203.6 329.2 203.6"/><line class="cls-2" x1="319.4" y1="209.3" x2="319" y2="209"/><path class="cls-2" d="M131.6,279.8l-3.1,1.8"/><path class="cls-2" d="M114.7,289.5l3.1-1.7"/><path class="cls-2" d="M160.3,263.3l-3.1,1.7"/><path class="cls-2" d="M202.7,238.8l-3.1,1.8"/><path class="cls-2" d="M171,257.1l3-1.8"/><line class="cls-2" x1="213.4" y1="232.6" x2="216.5" y2="230.8"/><path class="cls-2" d="M239.8,227.3h-.1"/><path class="cls-2" d="M139,275.5l-.8.5"/><path class="cls-2" d="M109.9,292.8v-.5"/><path class="cls-2" d="M102.8,296.4l-2.2,1.3"/><path class="cls-2" d="M133.3,280.3l-3.9,2.3"/><path class="cls-2" d="M115.6,290.5l3.9-2.2"/><path class="cls-2" d="M152.3,268.3v-.4"/><path class="cls-2" d="M147.9,270.4l-.9.5"/><path class="cls-2" d="M168.6,259v-.5"/><path class="cls-2" d="M165.2,260.4l-.9.5"/><path class="cls-2" d="M211,234.5V234"/><path class="cls-2" d="M207.6,235.9l-.8.5"/><path class="cls-2" d="M189.4,246.4l.9-.5"/><path class="cls-2" d="M162,263.8l-4,2.2"/><path class="cls-2" d="M204.4,239.3l-4,2.2"/><path class="cls-2" d="M171.8,258.1l3.9-2.3"/><line class="cls-2" x1="214.2" y1="233.6" x2="218.2" y2="231.3"/><path class="cls-2" d="M322,169.9l.4.2"/><path class="cls-2" d="M364.8,155.2l-.4.3"/><path class="cls-2" d="M338.3,160.5l.4.2"/><line class="cls-2" x1="327.1" y1="204.8" x2="327.1" y2="204.8"/><path class="cls-2" d="M378.6,147.8l.4.3"/><path class="cls-2" d="M378.6,140.5l.4.2"/><path class="cls-2" d="M368.5,155.9c-.2-1-.5-1.9-.7-2.9"/><path class="cls-2" d="M329.9,165.3l-3,1.8"/><path class="cls-2" d="M343.7,157.3l-3.1,1.8"/><path class="cls-2" d="M164.3,260.9l.5.3"/><path class="cls-2" d="M206.8,236.4l.4.3"/><path class="cls-2" d="M250.6,236.1l-.2.3"/><line class="cls-2" x1="248.4" y1="250.3" x2="248.4" y2="250.3"/><polyline class="cls-2" points="270.8 237.3 270.8 237.3 270.8 236.8"/><polyline class="cls-2" points="292.1 225.1 292.1 225.1 292.1 224.6"/><line class="cls-2" x1="281.5" y1="231.2" x2="281.5" y2="230.7"/><polyline class="cls-2" points="302.7 218.9 302.7 218.9 302.7 218.4"/><polyline class="cls-2" points="313.3 212.8 313.3 212.8 313.3 212.3"/><line class="cls-2" x1="308.8" y1="215.4" x2="308.8" y2="214.9"/><polyline class="cls-2" points="334.5 200.6 334.5 200.6 334.5 200.1"/><polyline class="cls-2" points="323.9 206.7 323.9 206.7 323.9 206.2"/><line class="cls-2" x1="239" y1="255.7" x2="239" y2="255.2"/><line class="cls-2" x1="130.8" y1="346.6" x2="130.8" y2="347.7"/><line class="cls-2" x1="135.6" y1="321.7" x2="135.6" y2="322.1"/><line class="cls-2" x1="102.8" y1="299" x2="102.8" y2="297.9"/><line class="cls-2" x1="364.8" y1="155.7" x2="364.8" y2="155.2"/><path class="cls-2" d="M338.3,161v-.5"/><path class="cls-2" d="M334.9,162.5l-.9.4"/><path class="cls-2" d="M316.7,172.9l.8-.4"/><path class="cls-2" d="M357.4,149.5l2.2-1.3"/><path class="cls-2" d="M331.6,165.8l-3.9,2.3"/><path class="cls-2" d="M345.4,157.8l-3.9,2.3"/><path class="cls-2" d="M109.9,292.3l.4.3"/><polyline class="cls-2" points="339.8 197.5 339.8 197.5 339.8 197"/><path class="cls-2" d="M186.3,248.7l-.4-.2"/><path class="cls-2" d="M126.6,283.2l-.4-.2"/><line class="cls-2" x1="340.6" y1="196.5" x2="340.6" y2="197"/><line class="cls-2" x1="223.1" y1="264.4" x2="223.1" y2="264.9"/><line class="cls-2" x1="286.8" y1="227.6" x2="286.8" y2="228.1"/><line class="cls-2" x1="318.6" y1="209.3" x2="318.6" y2="209.7"/><path class="cls-2" d="M89.7,318.9l-1.2-4.6"/><path class="cls-2" d="M88.5,314.1l9.8,5.7"/><line class="cls-2" x1="98.3" y1="319.8" x2="99.6" y2="319.1"/><path class="cls-2" d="M89.7,313.4l9.9,5.7"/><line class="cls-2" x1="98.3" y1="319.9" x2="99.6" y2="319.2"/><path class="cls-2" d="M98.3,319.9l-1.2,3.3"/><line class="cls-2" x1="97.1" y1="323.2" x2="98.4" y2="322.4"/><path class="cls-2" d="M99.6,319.2l-1.2,3.2"/><path class="cls-2" d="M97.5,323.9l1.3.7"/><path class="cls-2" d="M80.8,320.3v-1"/><path class="cls-2" d="M80.3,319v-1.3"/><path class="cls-2" d="M80.8,318v-1"/><path class="cls-2" d="M80.8,312.9v-1"/><path class="cls-2" d="M80.3,311.7v-2.3"/><path class="cls-2" d="M80.3,309.4l4.2,2.4"/><path class="cls-2" d="M98.8,324.6a3.4,3.4,0,0,0,1.5,2.6"/><path class="cls-2" d="M99.4,324.3a3.2,3.2,0,0,0,1.5,2.5"/><line class="cls-2" x1="98.8" y1="324.6" x2="99.4" y2="324.3"/><path class="cls-2" d="M88,318.4a1.1,1.1,0,0,1-.5,1"/><path class="cls-2" d="M88,318.4l1.3.7"/><line class="cls-2" x1="80.3" y1="316.8" x2="80.3" y2="312.7"/><path class="cls-2" d="M116.8,335l-1.3-.7"/><line class="cls-2" x1="112.1" y1="327.9" x2="113.3" y2="327.1"/><path class="cls-2" d="M112.1,330.4l1.2-3.3"/><line class="cls-2" x1="112.1" y1="327.7" x2="113.4" y2="327"/><path class="cls-2" d="M112.1,327.7l-9.9-5.6"/><line class="cls-2" x1="102.2" y1="322.1" x2="103.5" y2="321.3"/><path class="cls-2" d="M113.4,327l-9.9-5.7"/><path class="cls-2" d="M102.3,322.2l1.2,4.6"/><path class="cls-2" d="M103,327.1l-1.2-.7"/><path class="cls-2" d="M121.5,364.2V343.8"/><path class="cls-2" d="M122.8,363.5V343"/><path class="cls-2" d="M119.8,340.5v-1"/><path class="cls-2" d="M120.2,332.4,116,330"/><line class="cls-2" x1="116" y1="330" x2="117.3" y2="329.3"/><path class="cls-2" d="M116,330.2l1.2,4.6"/><path class="cls-2" d="M101.8,326.4a1,1,0,0,1-.5.9"/><line class="cls-2" x1="98.8" y1="323.2" x2="103.2" y2="325.7"/><line class="cls-2" x1="99.4" y1="324.3" x2="102.4" y2="326"/><path class="cls-2" d="M101.6,327a.8.8,0,0,1-.7-.2"/><path class="cls-2" d="M101.3,327.3a.9.9,0,0,1-1-.1"/><path class="cls-2" d="M115.1,335.3a1.2,1.2,0,0,0,.4-1"/><path class="cls-2" d="M186.8,302.8l3.6-3.5"/><path class="cls-2" d="M190.8,299.6v6.3"/><path class="cls-2" d="M186.4,308v6.4"/><path class="cls-2" d="M186.8,314.6l3.6-3.4"/><path class="cls-2" d="M190.4,311.2h.3"/><path class="cls-2" d="M351.7,206.7V213"/><path class="cls-2" d="M356.1,221.9v6.8"/><line class="cls-2" x1="356.1" y1="189.6" x2="354.8" y2="188.8"/><polyline class="cls-2" points="186.4 287.5 324.3 207.9 356.1 189.6"/><polyline class="cls-2" points="185.1 286.8 323 207.2 354.8 188.8"/><path class="cls-2" d="M143.5,273l-.9.4"/><path class="cls-2" d="M109.9,292.3l-.9.5"/><path class="cls-2" d="M97.2,300.1v-1.9"/><path class="cls-2" d="M97.2,298.2,93,300.6"/><line class="cls-2" x1="90.9" y1="301.9" x2="92.1" y2="302.6"/><path class="cls-2" d="M92.1,302.6l-2.5,1.5"/><path class="cls-2" d="M88.7,305v-1.9"/><path class="cls-2" d="M88.7,303.1l-4.2,2.4"/><line class="cls-2" x1="82.4" y1="306.8" x2="83.7" y2="307.5"/><path class="cls-2" d="M83.7,307.5l-2.1,1.2"/><path class="cls-2" d="M80.3,311.7v1"/><path class="cls-2" d="M80.3,319v1"/><path class="cls-2" d="M97.9,318.1l1.4-.9"/><line class="cls-2" x1="98.9" y1="314.2" x2="98.9" y2="313.2"/><line class="cls-2" x1="99.3" y1="313" x2="99.3" y2="309.2"/><line class="cls-2" x1="98.9" y1="309.5" x2="98.9" y2="308.5"/><line class="cls-2" x1="98.9" y1="308.5" x2="99.7" y2="308"/><path class="cls-2" d="M125.3,283.4l.9-.4"/><path class="cls-2" d="M126.2,283v.4"/><line class="cls-2" x1="104.7" y1="300.3" x2="103.5" y2="301"/><line class="cls-2" x1="104.7" y1="300.2" x2="103.5" y2="300.9"/><path class="cls-2" d="M104.7,300.3l-1.2,3.2"/><line class="cls-2" x1="103.5" y1="303.5" x2="102.3" y2="304.3"/><path class="cls-2" d="M103.5,301l-1.2,3.3"/><path class="cls-2" d="M102.3,304.3a1,1,0,0,0,.4.7"/><path class="cls-2" d="M104,304.3l1.2.7"/><path class="cls-2" d="M102.7,305l5.5,3.2"/><path class="cls-2" d="M108.6,307.9l-1.2-4.6"/><path class="cls-2" d="M108.7,302.4l9.8,5.7"/><path class="cls-2" d="M107.4,303.2l9.9,5.6"/><line class="cls-2" x1="117.3" y1="311.5" x2="116" y2="312.2"/><path class="cls-2" d="M117.2,309l-1.2,3.2"/><path class="cls-2" d="M117.3,311.5a.8.8,0,0,0,.4.7"/><path class="cls-2" d="M116,312.2a1,1,0,0,0,.5.8"/><path class="cls-2" d="M117.7,312.2l1.3.8"/><path class="cls-2" d="M116.5,313l5.5,3.1"/><path class="cls-2" d="M122.4,315.9l-1.2-4.6"/><line class="cls-2" x1="122.5" y1="310.4" x2="121.2" y2="311.1"/><path class="cls-2" d="M122.5,310.4l9.8,5.7"/><path class="cls-2" d="M121.2,311.1l9.8,5.7"/><path class="cls-2" d="M130.2,320.9l3.7,2.1"/><path class="cls-2" d="M135.7,322c-.2-.9-.5-1.8-.7-2.8"/><line class="cls-2" x1="136.2" y1="318.3" x2="135" y2="319.1"/><path class="cls-2" d="M135,319.1l4.2,2.4"/><path class="cls-2" d="M141.7,331.3V337"/><line class="cls-2" x1="141.7" y1="337" x2="140.4" y2="337.7"/><path class="cls-2" d="M140.4,336.8v.9"/><line class="cls-2" x1="99.7" y1="314.7" x2="99.3" y2="315"/><path class="cls-2" d="M99.3,323.5v-3.6"/><path class="cls-2" d="M99.3,318.9V315"/><path class="cls-2" d="M99.7,315.2v-1"/><path class="cls-2" d="M99.7,314.2l-.8-.5"/><path class="cls-2" d="M99.7,308.5v-1"/><path class="cls-2" d="M99.3,307.3v-8.8"/><path class="cls-2" d="M100.6,297.7l4.1,2.5"/><path class="cls-2" d="M99.3,298.5l4.2,2.4"/><line class="cls-2" x1="134.6" y1="322.7" x2="132.2" y2="321.3"/><line class="cls-2" x1="107.6" y1="307.1" x2="104.6" y2="305.4"/><line class="cls-2" x1="121.3" y1="315" x2="118.4" y2="313.3"/><line class="cls-2" x1="350.4" y1="190.9" x2="351.2" y2="190.4"/><line class="cls-2" x1="354.8" y1="188.3" x2="355.7" y2="187.8"/><line class="cls-2" x1="390.2" y1="160.3" x2="390.2" y2="168.4"/><line class="cls-2" x1="392.4" y1="183.3" x2="392.4" y2="185.1"/><line class="cls-2" x1="361" y1="184.8" x2="361.8" y2="184.3"/><line class="cls-2" x1="361.8" y1="184.3" x2="361.8" y2="184.8"/><line class="cls-2" x1="365.4" y1="182.7" x2="365.4" y2="182.2"/><line class="cls-2" x1="365.4" y1="182.2" x2="366.3" y2="181.7"/><line class="cls-2" x1="371.6" y1="178.6" x2="372.4" y2="178.2"/><line class="cls-2" x1="376.1" y1="176.1" x2="376.9" y2="175.6"/><polyline class="cls-2" points="390.2 160.3 379.6 166.4 347.7 184.7"/><polyline class="cls-2" points="388.9 159.5 378.3 165.6 346.5 184"/><line class="cls-2" x1="144" y1="271.2" x2="145.2" y2="271.9"/><path class="cls-2" d="M152.3,267.9l-.8.4"/><path class="cls-2" d="M168.6,258.5l-.9.5"/><path class="cls-2" d="M211,234l-.9.5"/><path class="cls-2" d="M185,249l.9-.5"/><path class="cls-2" d="M193.9,243.9l.8-.5"/><path class="cls-2" d="M227.5,224.5l.8-.5"/><path class="cls-2" d="M236.3,219.4l.9-.5"/><path class="cls-2" d="M253.4,209.5l-.8.5"/><path class="cls-2" d="M295.8,185l-.8.5"/><path class="cls-2" d="M269.9,200l.8-.5"/><path class="cls-2" d="M278.7,194.9l.9-.5"/><line class="cls-2" x1="313.7" y1="173.2" x2="314.9" y2="174"/><path class="cls-2" d="M312.3,175.5l.9-.5"/><path class="cls-2" d="M345.1,194.4a.5.5,0,0,1-.4-.2"/><path class="cls-2" d="M322.4,170.1l-.8.5"/><path class="cls-2" d="M321.2,170.4l-3.7,2.1"/><path class="cls-2" d="M318,172.7l-.9.5"/><path class="cls-2" d="M313.6,175.2l-.9.5"/><path class="cls-2" d="M312.3,175.5l-3.6,2.1"/><path class="cls-2" d="M309.1,177.8l-.8.5"/><path class="cls-2" d="M308.3,178.3l-1.7-1"/><line class="cls-2" x1="316.7" y1="172.9" x2="313.2" y2="175"/><path class="cls-2" d="M349,152.8l1.7,1"/><line class="cls-2" x1="350.7" y1="153.8" x2="351.6" y2="153.3"/><line class="cls-2" x1="357.4" y1="149.5" x2="366" y2="154.5"/><path class="cls-2" d="M364.4,155.5l.8.5"/><line class="cls-2" x1="365.6" y1="155.7" x2="378.1" y2="162.9"/><path class="cls-2" d="M377.6,163.2l.9.4"/><path class="cls-2" d="M378.5,163.6l1.7-.9"/><line class="cls-2" x1="343.9" y1="155.9" x2="343.9" y2="157.4"/><path class="cls-2" d="M343.9,155.9l4.6,1.3"/><path class="cls-2" d="M343.9,157.4l3.4,1"/><path class="cls-2" d="M348.5,157.7l-1.3.7"/><path class="cls-2" d="M342.1,160.9l-2.2-2.7"/><path class="cls-2" d="M338.7,160.7l-.9.5"/><path class="cls-2" d="M337.4,161l-2.5,1.5"/><path class="cls-2" d="M335.3,162.7l-.9.5"/><path class="cls-2" d="M334.4,163.2l-1.7-1"/><line class="cls-2" x1="330.1" y1="163.9" x2="330.1" y2="165.4"/><path class="cls-2" d="M330.1,163.9l4.6,1.3"/><path class="cls-2" d="M330.1,165.4l3.5.9"/><path class="cls-2" d="M334.7,165.7l-1.3.7"/><path class="cls-2" d="M328.3,168.8l-2.2-2.6"/><path class="cls-2" d="M347.2,159.2a.8.8,0,0,1,.5.5"/><path class="cls-2" d="M333.4,166.4a1.1,1.1,0,0,1,.6.9"/><path class="cls-2" d="M333.4,167.1c.2.2.4.3.5.5"/><line class="cls-2" x1="301.4" y1="180.4" x2="301.4" y2="181.9"/><path class="cls-2" d="M301.4,180.4l4.7,1.3"/><path class="cls-2" d="M301.4,181.9l3.5,1"/><path class="cls-2" d="M306.1,182.2l-1.3.7"/><path class="cls-2" d="M299.7,185.4l-2.2-2.7"/><path class="cls-2" d="M296.3,185.2l-.9.5"/><path class="cls-2" d="M295,185.5l-2.6,1.4"/><path class="cls-2" d="M292.9,187.2l-.9.5"/><line class="cls-2" x1="287.7" y1="188.4" x2="287.7" y2="189.8"/><path class="cls-2" d="M287.7,188.4l4.6,1.3"/><path class="cls-2" d="M287.7,189.8l3.4,1"/><path class="cls-2" d="M292.3,190.2l-1.3.7"/><path class="cls-2" d="M285.9,193.3l-2.2-2.6"/><path class="cls-2" d="M304.8,183.7a.8.8,0,0,1,.5.5"/><path class="cls-2" d="M291,190.9c.3.2.6.5.6.8"/><path class="cls-2" d="M291,191.6l.5.5"/><path class="cls-2" d="M302.7,218.9l-.5-.2"/><path class="cls-2" d="M280,194.6l-.8.5"/><path class="cls-2" d="M278.7,194.9l-3.6,2"/><path class="cls-2" d="M275.5,197.2l-.8.5"/><path class="cls-2" d="M271.2,199.7l-.9.5"/><path class="cls-2" d="M269.9,200l-3.6,2.1"/><path class="cls-2" d="M266.7,202.3l-.8.5"/><path class="cls-2" d="M265.9,202.8l-1.7-1"/><line class="cls-2" x1="274.3" y1="197.4" x2="270.7" y2="199.5"/><path class="cls-2" d="M229.9,224.1a.3.3,0,0,0-.3.3"/><path class="cls-2" d="M239.7,227.3l-2.9.8"/><path class="cls-2" d="M246.7,231.3l-2.9.8"/><path class="cls-2" d="M253.6,235.3l-2.9.8"/><path class="cls-2" d="M237.6,219.1l-.9.5"/><path class="cls-2" d="M236.3,219.4l-3.6,2"/><path class="cls-2" d="M233.1,221.7l-.8.5"/><line class="cls-2" x1="231.9" y1="221.9" x2="230.1" y2="223"/><path class="cls-2" d="M281.5,231.2l-.5-.3"/><line class="cls-2" x1="259" y1="204.9" x2="259" y2="206.4"/><path class="cls-2" d="M259,204.9l4.6,1.3"/><path class="cls-2" d="M259,206.4l3.5.9"/><path class="cls-2" d="M263.6,206.7l-1.2.7"/><path class="cls-2" d="M257.3,209.9l-2.3-2.7"/><path class="cls-2" d="M253.8,209.7l-.8.5"/><path class="cls-2" d="M252.6,210l-2.6,1.4"/><path class="cls-2" d="M250.4,211.7l-.8.5"/><line class="cls-2" x1="245.2" y1="212.9" x2="245.2" y2="214.3"/><path class="cls-2" d="M245.2,212.9l4.7,1.3"/><path class="cls-2" d="M245.2,214.3l3.5,1"/><path class="cls-2" d="M249.9,214.6l-1.3.8"/><path class="cls-2" d="M243.5,217.8l-2.2-2.6"/><path class="cls-2" d="M262.4,208.2l.5.4"/><path class="cls-2" d="M248.6,215.4a.9.9,0,0,1,.6.8"/><path class="cls-2" d="M248.6,216.1a1.2,1.2,0,0,1,.5.5"/><path class="cls-2" d="M347.8,159.3c0,.4-.3.6-.5.8l-1,.4a3.7,3.7,0,0,1-2.1-.3"/><path class="cls-2" d="M334,167.3a1,1,0,0,1-.5.8,1.9,1.9,0,0,1-1,.3,3.3,3.3,0,0,1-2-.3"/><path class="cls-2" d="M305.4,183.8c0,.4-.3.6-.6.8l-1,.4a2.9,2.9,0,0,1-2-.4"/><path class="cls-2" d="M291.6,191.7a1.1,1.1,0,0,1-.6.9l-.9.3a3.7,3.7,0,0,1-2.1-.3"/><path class="cls-2" d="M263,208.3c0,.4-.3.6-.6.8a1.7,1.7,0,0,1-1,.3,2.4,2.4,0,0,1-2-.3"/><path class="cls-2" d="M249.2,216.2a1.1,1.1,0,0,1-.6.9,1.7,1.7,0,0,1-1,.3,3.5,3.5,0,0,1-2-.3"/><path class="cls-2" d="M382,143.8l5.5,3.1"/><path class="cls-2" d="M387.9,146.7l-1.2-4.6"/><path class="cls-2" d="M386.7,141.9l9.8,5.7"/><path class="cls-2" d="M379,148.1v-1"/><path class="cls-2" d="M378.6,146.9v-1.3"/><path class="cls-2" d="M379,145.8v-1"/><path class="cls-2" d="M379,144.8l-.4-.2"/><path class="cls-2" d="M379,140.7v-.9"/><path class="cls-2" d="M378.6,137.2l4.2,2.4"/><line class="cls-2" x1="386.8" y1="145.8" x2="383.9" y2="144.1"/><line class="cls-2" x1="379" y1="140" x2="378.9" y2="140"/><path class="cls-2" d="M413.2,161.8l-3.7-2.1"/><path class="cls-2" d="M410.3,155.6l-9.8-5.7"/><path class="cls-2" d="M400.5,150l1.2,4.7"/><path class="cls-2" d="M419.7,192V179.8"/><path class="cls-2" d="M418.4,160.3l-4.1-2.5"/><line class="cls-2" x1="411.4" y1="160" x2="413.8" y2="161.4"/><line class="cls-2" x1="395.7" y1="151.7" x2="401.3" y2="154.9"/><line class="cls-2" x1="397.7" y1="152.1" x2="400.6" y2="153.8"/><path class="cls-2" d="M355.7,221.6l-3.6,3.5"/><path class="cls-2" d="M351.7,224.9v-6.4"/><path class="cls-2" d="M356.1,216.4V210"/><path class="cls-2" d="M355.7,209.8l-3.6,3.5"/><line class="cls-2" x1="398.5" y1="173.2" x2="398.5" y2="165.1"/><line class="cls-2" x1="401.6" y1="191.2" x2="401.6" y2="190.2"/><polyline class="cls-2" points="401.6 190.2 402 190 408.3 186.3 419.7 179.8"/><line class="cls-2" x1="419.3" y1="172.8" x2="419.3" y2="171.8"/><line class="cls-2" x1="419.3" y1="171.8" x2="421" y2="170.9"/><line class="cls-2" x1="421" y1="160.3" x2="417.7" y2="162.2"/><line class="cls-2" x1="419.7" y1="159.5" x2="416.8" y2="161.2"/><polyline class="cls-2" points="416.8 163.2 416.8 162.7 416.8 161.2"/><line class="cls-2" x1="416.8" y1="161.2" x2="415.5" y2="160.5"/><line class="cls-2" x1="416.8" y1="161.2" x2="412.6" y2="163.6"/><line class="cls-2" x1="415.5" y1="160.5" x2="411.3" y2="162.9"/><line class="cls-2" x1="411.7" y1="165.6" x2="410.5" y2="164.9"/><line class="cls-2" x1="411.7" y1="165.6" x2="409.2" y2="167.1"/><polyline class="cls-2" points="408.3 168 408.3 167.6 408.3 166.1"/><line class="cls-2" x1="408.3" y1="166.1" x2="404.1" y2="168.5"/><line class="cls-2" x1="403.2" y1="170.5" x2="402" y2="169.8"/><line class="cls-2" x1="403.2" y1="170.5" x2="398.5" y2="173.2"/><line class="cls-2" x1="402" y1="169.8" x2="398.5" y2="171.8"/><path class="cls-2" d="M419.7,168.3v-4"/><path class="cls-2" d="M389.8,188a.9.9,0,0,1-1,.1"/><path class="cls-2" d="M389.8,184.8l4.3-2.5"/><path class="cls-2" d="M394.1,182.3c.3-.1.7-.3,1-.1"/><path class="cls-2" d="M394.1,185.6l-4.3,2.4"/><path class="cls-2" d="M392.8,184.8l-4.2,2.5"/><line class="cls-2" x1="401.6" y1="181.2" x2="401.2" y2="181"/><line class="cls-2" x1="401.6" y1="181.2" x2="402.5" y2="180.7"/><line class="cls-2" x1="402.5" y1="181.7" x2="402" y2="182"/><line class="cls-2" x1="400.8" y1="187.9" x2="400.8" y2="181.2"/><line class="cls-2" x1="400.8" y1="181.2" x2="401.6" y2="180.7"/><path class="cls-2" d="M356.1,189.6l42.4-24.5"/><path class="cls-2" d="M354.8,188.8l42.4-24.5"/><path class="cls-2" d="M356,209.8c-.1-.1-.3,0-.3,0"/><path class="cls-2" d="M388.8,188.1c-.3-.1-.4-.5-.4-.8a3,3,0,0,1,.2-1,3,3,0,0,1,1.2-1.5"/><path class="cls-2" d="M394.2,182.2a2.9,2.9,0,0,1-1.4,2.6"/><path class="cls-2" d="M395.1,182.2a1.1,1.1,0,0,1,.4.9,4.4,4.4,0,0,1-.2,1,3.5,3.5,0,0,1-1.2,1.5"/><line class="cls-2" x1="186.4" y1="302.6" x2="186.4" y2="287.5"/><line class="cls-2" x1="186.4" y1="287.5" x2="185.1" y2="286.8"/><path class="cls-2" d="M186.4,326.7v-6.9"/><path class="cls-2" d="M190.8,317.8v-6.4"/><path class="cls-2" d="M186.8,307.3l3.6-.6"/><path class="cls-2" d="M190.4,306.7a1.2,1.2,0,0,0,.4-.8"/><line class="cls-2" x1="140.4" y1="353.3" x2="140.4" y2="342"/><line class="cls-2" x1="139.2" y1="352.5" x2="139.2" y2="341.7"/><polyline class="cls-2" points="140.9 340.8 140.4 341 134.1 344.6 122.8 351.2"/><line class="cls-2" x1="123.2" y1="343.8" x2="123.2" y2="342.8"/><line class="cls-2" x1="123.2" y1="342.8" x2="121.5" y2="343.8"/><line class="cls-2" x1="121.5" y1="343.8" x2="121.5" y2="333.2"/><line class="cls-2" x1="120.2" y1="343" x2="120.2" y2="332.4"/><line class="cls-2" x1="121.5" y1="333.2" x2="124.8" y2="331.3"/><line class="cls-2" x1="124.8" y1="331.3" x2="123.5" y2="330.5"/><line class="cls-2" x1="120.2" y1="332.4" x2="123.5" y2="330.5"/><line class="cls-2" x1="124.8" y1="331.3" x2="124.8" y2="331.7"/><line class="cls-2" x1="124.8" y1="331.7" x2="125.7" y2="331.3"/><line class="cls-2" x1="125.7" y1="329.3" x2="129.9" y2="326.8"/><polyline class="cls-2" points="129.9 326.8 129.9 328.3 129.9 328.8"/><line class="cls-2" x1="130.7" y1="327.8" x2="133.3" y2="326.4"/><line class="cls-2" x1="133.3" y1="326.4" x2="132" y2="325.6"/><line class="cls-2" x1="134.1" y1="324.4" x2="138.4" y2="321.9"/><line class="cls-2" x1="132.9" y1="323.7" x2="137.1" y2="321.2"/><polyline class="cls-2" points="138.4 321.9 138.4 323.4 138.4 323.9"/><line class="cls-2" x1="138.4" y1="323.9" x2="139.2" y2="323.4"/><line class="cls-2" x1="139.2" y1="323.4" x2="138.4" y2="322.9"/><line class="cls-2" x1="139.2" y1="322.9" x2="138.4" y2="322.4"/><line class="cls-2" x1="139.2" y1="322.9" x2="144" y2="320.2"/><line class="cls-2" x1="138.4" y1="321.9" x2="142.7" y2="319.5"/><path class="cls-2" d="M122.1,336.1v4"/><path class="cls-2" d="M148.4,324.2a2.6,2.6,0,0,0-1.2,1.5,1.6,1.6,0,0,0-.2,1c0,.3.1.7.4.8"/><line class="cls-2" x1="140.9" y1="331.8" x2="140" y2="332.3"/><line class="cls-2" x1="140" y1="332.3" x2="140" y2="333.3"/><line class="cls-2" x1="140.4" y1="333" x2="140.4" y2="336.8"/><line class="cls-2" x1="140" y1="337" x2="140" y2="338"/><line class="cls-2" x1="141.7" y1="330.8" x2="140.9" y2="331.3"/><path class="cls-2" d="M186.4,287.5,144,312"/><path class="cls-2" d="M185.1,286.8l-42.4,24.5"/><path class="cls-2" d="M186.5,302.8c-.1,0-.1-.2-.1-.2"/><path class="cls-2" d="M122.7,335.5c-.2-.1-.3.1-.4.2a.5.5,0,0,0-.2.4"/><path class="cls-2" d="M153.6,321.6c-.3-.2-.7,0-1,.1"/><path class="cls-2" d="M367.7,152.9l9.9,5.6"/><line class="cls-2" x1="377.6" y1="158.5" x2="378.9" y2="157.8"/><path class="cls-2" d="M369,152.1l9.9,5.7"/><line class="cls-2" x1="377.6" y1="158.7" x2="378.8" y2="157.9"/><path class="cls-2" d="M377.6,158.7l-.8,2"/><path class="cls-2" d="M378.8,157.9l-1.2,3.3"/><path class="cls-2" d="M381.5,160.8l2.6,1.5"/><line class="cls-2" x1="400.8" y1="181.7" x2="401.6" y2="181.2"/><line class="cls-2" x1="400.8" y1="187.4" x2="402" y2="186.7"/><path class="cls-2" d="M402,181v5.7"/><path class="cls-2" d="M359.6,148.2l4.2,2.4"/><line class="cls-2" x1="178" y1="282.7" x2="176.8" y2="282"/><path class="cls-2" d="M178,282.7v8.2"/><line class="cls-2" x1="175.4" y1="291.9" x2="174.5" y2="292.4"/><line class="cls-2" x1="170.9" y1="294.5" x2="170.1" y2="295"/><line class="cls-2" x1="132.1" y1="345.8" x2="132.1" y2="348.4"/><line class="cls-2" x1="135.6" y1="307.2" x2="134.4" y2="306.5"/><line class="cls-2" x1="135.6" y1="307.2" x2="135.6" y2="318.7"/><line class="cls-2" x1="134.4" y1="306.5" x2="134.4" y2="314.6"/><line class="cls-2" x1="164.8" y1="298" x2="163.9" y2="298.5"/><line class="cls-2" x1="160.3" y1="300.6" x2="159.5" y2="301.1"/><polyline class="cls-2" points="159.5 301.1 159.5 301.6 159.5 301.6"/><line class="cls-2" x1="154.2" y1="304.2" x2="153.3" y2="304.7"/><line class="cls-2" x1="149.7" y1="307.2" x2="149.3" y2="307"/><line class="cls-2" x1="149.7" y1="307.2" x2="149.7" y2="306.7"/><line class="cls-2" x1="149.7" y1="306.7" x2="148.9" y2="307.2"/><polyline class="cls-2" points="135.6 307.2 146.2 301.1 178 282.7"/><polyline class="cls-2" points="134.4 306.5 145 300.3 176.8 282"/><line class="cls-2" x1="111.5" y1="303.4" x2="111.5" y2="301.5"/><line class="cls-2" x1="125.7" y1="309.6" x2="111.5" y2="301.5"/><line class="cls-2" x1="126.9" y1="308.9" x2="112.8" y2="300.7"/><line class="cls-2" x1="366" y1="154.5" x2="364.8" y2="155.2"/><line class="cls-2" x1="380.2" y1="162.7" x2="366" y2="154.5"/><line class="cls-2" x1="378.9" y1="163.4" x2="378.1" y2="162.9"/><line class="cls-2" x1="365.6" y1="155.7" x2="364.8" y2="155.2"/><path class="cls-2" d="M338.3,160.5l-.9.5"/><path class="cls-2" d="M321.2,170.4l.8-.5"/><line class="cls-2" x1="360.8" y1="146" x2="362.1" y2="146.7"/><path class="cls-2" d="M360.9,147.4l1.2-.7"/><path class="cls-2" d="M362.9,144.8l4.3-2.5"/><path class="cls-2" d="M367.2,142.3v2"/><line class="cls-2" x1="369.3" y1="141.1" x2="370.6" y2="141.8"/><path class="cls-2" d="M368,143.3l2.6-1.5"/><path class="cls-2" d="M371.4,139.9l4.3-2.5"/><path class="cls-2" d="M375.7,137.4v2"/><path class="cls-2" d="M379,147.6l-.9.5"/><path class="cls-2" d="M378.1,148.1v1"/><path class="cls-2" d="M378.6,156l-1.4.8"/><path class="cls-2" d="M378.6,144.6v.2"/><line class="cls-2" x1="378.6" y1="140.5" x2="378.6" y2="144.6"/><path class="cls-2" d="M379,139.9c-.2,0-.4.4-.4.6"/><path class="cls-2" d="M179.3,250.8a9.5,9.5,0,0,1,1.7,1"/><path class="cls-2" d="M181,251.8l.9-.5"/><path class="cls-2" d="M181.4,251l3.6-2"/><path class="cls-2" d="M185.5,249.2l.8-.5"/><path class="cls-2" d="M189.9,246.7l.8-.5"/><path class="cls-2" d="M190.3,245.9l3.6-2"/><path class="cls-2" d="M194.3,244.1l.9-.5"/><line class="cls-2" x1="185.9" y1="248.5" x2="189.4" y2="246.4"/><path class="cls-2" d="M136.9,275.3l1.7,1"/><path class="cls-2" d="M138.6,276.3l.8-.5"/><path class="cls-2" d="M139,275.5l3.6-2.1"/><path class="cls-2" d="M143,273.7l.9-.5"/><path class="cls-2" d="M147.4,271.2l.9-.5"/><path class="cls-2" d="M147.9,270.4l3.6-2.1"/><path class="cls-2" d="M151.9,268.6l.8-.5"/><line class="cls-2" x1="143.5" y1="273" x2="147" y2="270.9"/><path class="cls-2" d="M156.4,264.2a27.5,27.5,0,0,1,2.2,2.6"/><path class="cls-2" d="M165,263.1l-4.6-1.2"/><line class="cls-2" x1="160.4" y1="261.9" x2="160.4" y2="263.3"/><path class="cls-2" d="M163.9,264.3l-3.5-1"/><path class="cls-2" d="M164.8,261.2l.8-.5"/><path class="cls-2" d="M165.2,260.4l2.5-1.4"/><path class="cls-2" d="M168.1,259.2l.9-.5"/><path class="cls-2" d="M170.2,256.2l2.2,2.7"/><path class="cls-2" d="M178.8,255.2l-4.6-1.3"/><line class="cls-2" x1="174.2" y1="253.9" x2="174.2" y2="255.4"/><path class="cls-2" d="M177.6,256.3l-3.4-.9"/><path class="cls-2" d="M160.8,266.1a3.5,3.5,0,0,0,2,.3l1-.4a.8.8,0,0,0,.5-.8"/><path class="cls-2" d="M163.7,264.4l1.3-.8"/><path class="cls-2" d="M174.5,258.1a3,3,0,0,0,2.1.3,1.9,1.9,0,0,0,1-.3c.2-.2.5-.5.5-.8"/><path class="cls-2" d="M177.5,256.4l1.3-.7"/><path class="cls-2" d="M114,288.6l2.2,2.7"/><path class="cls-2" d="M122.6,287.6l-4.6-1.2"/><line class="cls-2" x1="118" y1="286.4" x2="118" y2="287.8"/><path class="cls-2" d="M121.4,288.8l-3.4-1"/><path class="cls-2" d="M120.6,284.7a9.5,9.5,0,0,1,1.7,1"/><path class="cls-2" d="M122.3,285.7l.9-.5"/><path class="cls-2" d="M122.8,284.9l2.5-1.5"/><path class="cls-2" d="M125.7,283.7l.9-.5"/><path class="cls-2" d="M127.8,280.7l2.2,2.6"/><path class="cls-2" d="M136.4,279.7l-4.6-1.3"/><line class="cls-2" x1="131.8" y1="278.4" x2="131.8" y2="279.9"/><path class="cls-2" d="M135.2,280.8l-3.4-.9"/><path class="cls-2" d="M118.3,290.6a3.7,3.7,0,0,0,2.1.3l1-.4a1,1,0,0,0,.5-.8"/><path class="cls-2" d="M121.3,288.9l1.3-.8"/><path class="cls-2" d="M132.1,282.6a3,3,0,0,0,2.1.3,1.6,1.6,0,0,0,.9-.3c.3-.2.6-.5.6-.8"/><path class="cls-2" d="M135.1,280.9l1.3-.7"/><line class="cls-2" x1="110.3" y1="292.6" x2="109.5" y2="293.1"/><line class="cls-2" x1="109" y1="292.8" x2="102.8" y2="296.4"/><line class="cls-2" x1="102.8" y1="296.4" x2="111.5" y2="301.5"/><line class="cls-2" x1="102.8" y1="297.9" x2="111.5" y2="302.9"/><path class="cls-2" d="M126.1,308.4l.4-.3"/><line class="cls-2" x1="126.5" y1="308.1" x2="126.5" y2="308.6"/><path class="cls-2" d="M126.5,308.1l.9.5"/><path class="cls-2" d="M127.4,308.6l-1.7,1"/><line class="cls-2" x1="125.7" y1="309.6" x2="134.4" y2="314.6"/><line class="cls-2" x1="125.7" y1="311.1" x2="134.4" y2="316.1"/><path class="cls-2" d="M198.8,239.7l2.3,2.6"/><path class="cls-2" d="M207.4,238.6l-4.6-1.2"/><line class="cls-2" x1="202.8" y1="237.4" x2="202.8" y2="238.8"/><path class="cls-2" d="M206.3,239.8l-3.5-1"/><path class="cls-2" d="M207.2,236.7l.8-.5"/><path class="cls-2" d="M207.6,235.9l2.5-1.4"/><path class="cls-2" d="M210.6,234.7l.8-.5"/><path class="cls-2" d="M212.6,231.7l2.2,2.7"/><path class="cls-2" d="M221.2,230.7l-4.6-1.3"/><line class="cls-2" x1="216.6" y1="229.4" x2="216.6" y2="230.9"/><path class="cls-2" d="M220.1,231.8l-3.5-.9"/><path class="cls-2" d="M203.2,241.6a3.5,3.5,0,0,0,2,.3l1-.3a1.1,1.1,0,0,0,.6-.9"/><path class="cls-2" d="M206.2,239.9l1.2-.8"/><path class="cls-2" d="M217,233.6a2.8,2.8,0,0,0,2,.3,1.7,1.7,0,0,0,1-.3c.3-.2.6-.5.6-.8"/><path class="cls-2" d="M219.9,231.9l1.3-.7"/><path class="cls-2" d="M229.8,224.6l3.4,2"/><path class="cls-2" d="M236.7,228.6l3.4,2"/><path class="cls-2" d="M243.6,232.6l3.5,2"/><path class="cls-2" d="M247.1,234.6c.2.1.7.2.9-.1"/><path class="cls-2" d="M248,234.5a18.3,18.3,0,0,0,1.3-1.6"/><path class="cls-2" d="M250.3,232.8l3.4,2"/><path class="cls-2" d="M253.7,234.8a.2.2,0,0,1,.2.2"/><path class="cls-2" d="M250.6,236.6,253,238"/><path class="cls-2" d="M221.7,226.3l1.7,1"/><path class="cls-2" d="M223.4,227.3l.9-.5"/><path class="cls-2" d="M223.9,226.5l3.6-2"/><path class="cls-2" d="M227.9,224.7l.8-.5"/><line class="cls-2" x1="228.3" y1="224" x2="230.1" y2="223"/><path class="cls-2" d="M230.1,223l.7.3"/><line class="cls-2" x1="164.3" y1="265.2" x2="164.3" y2="265.5"/><path class="cls-2" d="M164.3,265.2a.9.9,0,0,0-.6-.8"/><path class="cls-2" d="M164.2,265.6a1.2,1.2,0,0,0-.5-.5"/><path class="cls-2" d="M178,257.6c-.1-.2-.3-.3-.5-.5"/><path class="cls-2" d="M121.9,289.7a.9.9,0,0,0-.6-.8"/><path class="cls-2" d="M121.8,290.1a1.2,1.2,0,0,0-.5-.5"/><path class="cls-2" d="M135.6,282.1c-.1-.2-.3-.3-.5-.5"/><path class="cls-2" d="M206.8,240.7a.9.9,0,0,0-.6-.8"/><path class="cls-2" d="M206.7,241.1c-.2-.2-.3-.4-.5-.5"/><path class="cls-2" d="M220.5,233.1l-.6-.5"/><path class="cls-2" d="M229.6,224.4l.2.2"/><path class="cls-2" d="M250.4,236.4l.2.2"/><path class="cls-2" d="M347.7,192.9v-8.2"/><line class="cls-2" x1="347.7" y1="184.7" x2="346.5" y2="184"/><line class="cls-2" x1="339.8" y1="197" x2="340.6" y2="196.5"/><line class="cls-2" x1="344.2" y1="194.4" x2="345.1" y2="193.9"/><line class="cls-2" x1="186" y1="285.8" x2="185.2" y2="286.3"/><line class="cls-2" x1="185.2" y1="286.3" x2="185.2" y2="286.8"/><line class="cls-2" x1="181.5" y1="288.4" x2="180.7" y2="288.9"/><line class="cls-2" x1="207.2" y1="273.5" x2="206.4" y2="274"/><line class="cls-2" x1="202.8" y1="276.1" x2="201.9" y2="276.6"/><line class="cls-2" x1="196.6" y1="279.7" x2="195.8" y2="280.2"/><line class="cls-2" x1="192.2" y1="282.7" x2="192.2" y2="282.2"/><line class="cls-2" x1="192.2" y1="282.2" x2="191.3" y2="282.7"/><polyline class="cls-2" points="191.3 282.7 191.3 283.2 191.3 283.2"/><line class="cls-2" x1="217.8" y1="267.4" x2="217" y2="267.9"/><line class="cls-2" x1="213.4" y1="270" x2="212.5" y2="270.5"/><line class="cls-2" x1="228.4" y1="261.3" x2="227.6" y2="261.8"/><line class="cls-2" x1="224" y1="263.9" x2="223.1" y2="264.4"/><line class="cls-2" x1="249.6" y1="249.1" x2="248.8" y2="249.5"/><line class="cls-2" x1="245.2" y1="251.6" x2="244.3" y2="252.1"/><line class="cls-2" x1="239" y1="255.2" x2="238.2" y2="255.7"/><line class="cls-2" x1="234.6" y1="258.2" x2="234.6" y2="257.8"/><line class="cls-2" x1="234.6" y1="257.8" x2="233.7" y2="258.2"/><line class="cls-2" x1="260.2" y1="242.9" x2="259.4" y2="243.4"/><line class="cls-2" x1="255.8" y1="245.5" x2="254.9" y2="246"/><line class="cls-2" x1="270.8" y1="236.8" x2="270" y2="237.3"/><line class="cls-2" x1="266.4" y1="239.4" x2="265.5" y2="239.9"/><line class="cls-2" x1="292.1" y1="224.6" x2="291.2" y2="225.1"/><line class="cls-2" x1="287.6" y1="227.1" x2="286.8" y2="227.6"/><line class="cls-2" x1="281.5" y1="230.7" x2="280.6" y2="231.2"/><line class="cls-2" x1="277" y1="233.8" x2="277" y2="233.3"/><line class="cls-2" x1="277" y1="233.3" x2="276.1" y2="233.8"/><line class="cls-2" x1="302.7" y1="218.4" x2="301.8" y2="218.9"/><line class="cls-2" x1="298.2" y1="221" x2="297.4" y2="221.5"/><line class="cls-2" x1="313.3" y1="212.3" x2="312.4" y2="212.8"/><line class="cls-2" x1="308.8" y1="214.9" x2="308" y2="215.4"/><line class="cls-2" x1="334.5" y1="200.1" x2="333.6" y2="200.6"/><line class="cls-2" x1="333.6" y1="200.6" x2="333.6" y2="201.1"/><line class="cls-2" x1="330" y1="202.6" x2="329.2" y2="203.1"/><line class="cls-2" x1="323.9" y1="206.2" x2="323" y2="206.7"/><line class="cls-2" x1="319.4" y1="209.3" x2="319.4" y2="208.8"/><line class="cls-2" x1="319.4" y1="208.8" x2="318.6" y2="209.3"/><polyline class="cls-2" points="178 282.7 209.9 264.3 252.3 239.9 294.7 215.4 315.9 203.1 347.7 184.7"/><polyline class="cls-2" points="176.8 282 208.6 263.6 251 239.1 293.4 214.6 314.6 202.4 346.5 184"/></svg>