<svg id="Layer_1" data-name="Layer 1" xmlns="http://www.w3.org/2000/svg" viewBox="0 0 500 500"><defs><style>.cls-1,.cls-2{fill:none;stroke:#000;stroke-linecap:round;stroke-linejoin:round;}.cls-2{stroke-width:0.3px;}</style></defs><polygon class="cls-1" points="419.5 132.3 419.7 132.4 419.7 132.2 419.5 132.3"/><polygon class="cls-1" points="55.5 342.6 55.5 342.5 55.4 342.6 55.5 342.6"/><polygon class="cls-1" points="334.8 241 207.6 314.5 154.5 345.1 112.1 369.6 98 377.7 96.7 377 96.7 368.8 89.6 372.9 88.3 372.2 87.4 371.6 80.3 375.7 80.3 377.7 80.3 381.1 80.3 384.5 80.3 388 79.9 388.2 79.4 388.4 79 388.7 36.6 364.2 36.6 360.8 36.6 357.4 36.6 354 36.6 350.6 36.6 347.2 36.6 343.8 36.6 343.8 36.6 341.1 36.6 338.5 36.6 335.8 36.6 333.2 37.4 332.7 38.3 332.2 39.1 331.7 39.9 331.3 40.1 331.4 40.3 331.5 40.6 331.4 40.8 331.3 40.8 330.8 40.8 330.3 40.8 329.8 40.8 329.3 41.8 328.7 42.9 328.1 43.9 327.5 45 326.8 45.3 327 45.6 327.2 46 327.4 46.3 327.6 46.5 327.5 47.1 327.1 47.8 326.7 48.4 326.4 48.6 326.5 48.8 326.6 49 326.5 49.2 326.4 49.2 325.9 49.2 325.4 49.2 324.9 49.2 324.4 50.3 323.8 51.4 323.2 52.4 322.6 53.5 321.9 53.7 322.1 54 322.2 54.3 322.4 54.5 322.5 54.8 322.7 56.7 321.6 59.1 320.2 61.4 318.8 63.8 317.5 66.1 316.1 69.7 314.1 71.4 313.1 71.5 313.1 71.5 313.1 71.5 313.1 72.1 313.8 72.3 314 75.4 312.3 75.4 312.1 75.4 311.9 75.4 311.7 75.4 311.5 75.4 311.3 75.4 311.2 75.4 311 75.4 310.8 76.1 310.4 76.8 310 77.5 309.6 78.2 309.2 79.2 308.6 80.3 307.9 81.3 307.3 82.4 306.7 83.1 306.3 83.8 305.9 84.5 305.5 85.2 305.1 85.2 305.1 85.3 305.2 85.3 305.2 85.9 305.8 86.1 306.1 89.1 304.3 89.1 304.1 89.1 303.8 89.1 303.6 89.1 303.3 89.1 303.1 89.1 302.8 94.4 299.8 96.8 298.4 99.1 297.1 101.5 295.7 103.9 294.3 106.2 293 108.6 291.6 113.8 288.6 113.9 288.6 113.9 288.6 114 288.6 114.5 289.3 114.7 289.5 117.8 287.8 117.8 287.6 117.8 287.4 117.8 287.2 117.8 287 117.8 286.8 117.8 286.7 117.8 286.5 117.8 286.3 118.5 285.9 119.2 285.5 119.9 285.1 120.6 284.7 121.6 284.1 122.7 283.4 123.8 282.8 124.8 282.2 125.5 281.8 126.2 281.4 126.9 281 127.6 280.6 127.7 280.6 127.7 280.7 127.7 280.7 128.3 281.4 128.5 281.6 131.6 279.8 131.6 279.6 131.6 279.3 131.6 279.1 131.6 278.8 131.6 278.6 131.6 278.3 136.8 275.3 139.2 273.9 141.6 272.6 143.9 271.2 146.3 269.8 148.6 268.5 151 267.1 156.3 264.1 156.3 264.1 156.3 264.1 156.4 264.2 156.9 264.8 157.1 265 157.2 265 160.2 263.3 160.2 263.1 160.2 262.9 160.2 262.7 160.2 262.5 160.2 262.3 160.2 262.2 160.2 262 160.2 261.8 160.9 261.4 161.6 261 162.3 260.6 163 260.2 163.5 259.9 164.1 259.6 164.6 259.3 165.1 259 167.3 257.7 168 257.3 168.7 256.9 169.4 256.5 170.1 256.1 170.1 256.1 170.1 256.2 170.2 256.2 170.7 256.9 170.9 257.1 173.1 255.9 174 255.3 174 255.1 174 254.8 174 254.6 174 254.3 174 254.1 174 253.8 179.3 250.8 181.6 249.4 184 248.1 186.3 246.7 188.7 245.3 191.1 244 193.4 242.6 198.7 239.6 198.7 239.6 198.8 239.6 198.8 239.7 199.4 240.3 199.5 240.6 202.6 238.8 202.6 238.6 202.6 238.4 202.6 238.2 202.6 238 202.6 237.9 202.6 237.7 202.6 237.5 202.6 237.3 203.3 236.9 204 236.5 204.7 236.1 205.4 235.7 206.5 235.1 207.6 234.5 208.6 233.9 209.7 233.2 210.4 232.8 211.1 232.4 211.8 232 212.5 231.6 212.5 231.6 212.6 231.7 212.6 231.7 213.1 232.4 213.3 232.6 216.4 230.8 216.4 230.6 216.4 230.3 216.4 230.1 216.4 229.8 216.4 229.6 216.4 229.3 218.2 228.3 221.7 226.3 224.1 224.9 226.4 223.6 228.8 222.2 231.1 220.9 233.5 219.5 235.8 218.1 239.4 216.1 241.1 215.1 241.2 215.1 241.2 215.1 241.2 215.2 241.8 215.8 242 216.1 245.1 214.3 245.1 214.1 245.1 213.9 245.1 213.7 245.1 213.5 245.1 213.4 245.1 213.2 245.1 213 245.1 212.8 245.8 212.4 246.5 212 247.2 211.6 247.9 211.2 248.9 210.6 250 210 251 209.4 252.1 208.7 252.8 208.3 253.5 207.9 254.2 207.5 254.9 207.1 254.9 207.2 255 207.2 255 207.2 255.6 207.9 255.8 208.1 258.8 206.3 258.8 206.1 258.8 205.8 258.8 205.6 258.8 205.3 258.8 205.1 258.8 204.9 264.1 201.8 266.5 200.4 268.8 199.1 271.2 197.7 273.5 196.4 275.9 195 278.3 193.6 283.5 190.6 283.6 190.6 283.6 190.6 283.6 190.7 284.2 191.3 284.4 191.6 284.5 191.5 287.5 189.8 287.5 189.6 287.5 189.4 287.5 189.2 287.5 189.1 287.5 188.9 287.5 188.7 287.5 188.5 287.5 188.3 288.2 187.9 288.9 187.5 289.6 187.1 290.3 186.7 292.4 185.5 292.9 185.2 293.5 184.9 294 184.6 294.5 184.3 295.2 183.8 295.9 183.4 296.6 183 297.3 182.6 297.4 182.7 297.4 182.7 297.4 182.7 298 183.4 298.2 183.6 300.3 182.4 301.3 181.8 301.3 181.6 301.3 181.3 301.3 181.1 301.3 180.9 301.3 180.6 301.3 180.4 306.5 177.3 308.9 176 311.3 174.6 313.6 173.2 316 171.9 318.3 170.5 320.7 169.2 326 166.1 326 166.1 326 166.2 326.1 166.2 326.6 166.8 326.8 167.1 329.9 165.3 329.9 165.1 329.9 164.9 329.9 164.7 329.9 164.6 329.9 164.4 329.9 164.2 329.9 164 329.9 163.8 330.6 163.4 331.3 163 332 162.6 332.7 162.2 333.8 161.6 334.8 161 335.9 160.4 336.9 159.8 337.6 159.4 338.3 159 339 158.5 339.7 158.1 339.8 158.2 339.8 158.2 339.8 158.2 340.4 158.9 340.6 159.1 343.7 157.3 343.7 157.1 343.7 156.9 343.7 156.6 343.7 156.4 343.7 156.1 343.7 155.9 349 152.8 351.3 151.5 353.7 150.1 356 148.7 358.4 147.4 360.7 146 363.1 144.7 368.4 141.6 368.4 141.6 368.5 141.7 368.5 141.7 369 142.4 369.2 142.6 372.3 140.8 372.3 140.6 372.3 140.4 372.3 140.3 372.3 140.1 372.3 139.9 372.3 139.7 372.3 139.5 372.3 139.3 373 138.9 373.7 138.5 374.4 138.1 375.1 137.7 376.2 137.1 377.2 136.5 378.3 135.9 379.4 135.3 380.1 134.9 380.8 134.5 381.5 134.1 382.2 133.7 382.2 133.7 382.2 133.7 382.3 133.7 382.8 134.4 383 134.6 386.1 132.8 386.1 132.6 386.1 132.4 386.1 132.1 386.1 131.9 386.1 131.6 386.1 131.4 387.9 130.4 391.4 128.3 393.7 127 396.1 125.6 398.5 124.2 400.8 122.9 403.2 121.5 403.4 121.6 403.6 121.8 403.8 121.6 404 121.5 404 121 404 120.5 404 120 404 119.6 405.1 118.9 406.2 118.3 407.2 117.7 408.3 117.1 408.6 117.3 408.9 117.5 409.2 117.7 409.6 117.8 409.8 117.7 410.4 117.3 411 117 411.7 116.6 411.9 116.7 412.1 116.9 412.3 116.7 412.5 116.6 412.5 116.1 412.5 115.6 412.5 115.1 412.5 114.7 413.6 114 414.6 113.4 415.7 112.8 416.8 112.2 417.1 112.4 417.4 112.6 417.7 112.8 418 112.9 418.4 112.7 419.3 112.2 420.1 111.7 420.9 111.3 421.4 111.5 421.8 111.8 422.2 112 422.2 112 422.2 112 423.3 112.6 424.3 113.2 425.4 113.8 426.4 114.4 426.4 114.5 426.4 114.5 426.4 114.5 426.1 115.4 425.8 116.2 425.5 117 425.2 117.8 425.2 117.9 425.2 118 425.3 118.1 425.3 118.2 425.4 118.3 425.5 118.4 425.5 118.5 425.6 118.5 426.9 119.3 426.9 119.6 427 120 427 120.1 427.2 120.2 428.2 120.8 429.2 121.4 429.5 121.2 429.9 121 430 121.1 430 121.1 429.7 119.9 429.4 118.7 429.1 117.6 429.1 117.5 429.1 117.5 429.1 117.4 429.2 117.3 429.4 117.2 429.5 117.2 429.7 117.1 429.9 117 430 116.9 430.2 116.8 430.3 116.7 432.8 118.1 435.3 119.5 437.7 121 440.2 122.4 440.2 122.4 440.2 122.5 440.2 122.5 439.9 123.3 439.6 124.1 439.3 124.9 439 125.8 439 125.9 439 126 439 126.1 439.1 126.2 439.2 126.3 439.2 126.4 439.3 126.4 439.4 126.5 440.7 127.2 440.7 127.6 440.8 127.9 440.8 128 443 129.3 443.3 129.1 443.6 128.9 443.8 129 443.8 129 443.5 127.8 443.2 126.7 442.9 125.5 442.9 125.5 442.8 125.4 442.8 125.4 443 125.3 443.2 125.2 443.3 125.1 443.5 125 443.6 124.9 443.8 124.8 444 124.7 444.1 124.7 446.6 126.1 449 127.5 451.5 128.9 454 130.3 454 130.4 454 130.4 453.9 130.5 453.6 131.3 453.3 132.1 453 132.9 452.7 133.7 452.8 133.8 452.8 133.9 452.8 134 452.9 134.1 452.9 134.2 453 134.3 453.1 134.4 453.2 134.4 453.8 134.8 454.4 135.2 454.5 135.6 454.6 135.9 454.6 136 454.8 136.1 455.8 136.7 456.2 136.9 457.4 136.3 457.2 135.8 456.9 134.6 456.6 133.5 456.6 133.4 456.6 133.4 456.6 133.3 456.8 133.2 456.9 133.2 457.1 133.1 457.3 133 457.4 132.9 457.6 132.8 457.7 132.7 457.9 132.6 458.9 133.2 460 133.8 461 134.4 462.1 135 463.4 135.8 463.4 146.4 463.4 146.4 463.4 149.8 463.4 153.2 463.4 156.6 463.4 160 463.4 163.4 463.4 166.8 462.9 167 462.5 167.3 462.1 167.5 451.5 161.4 444 165.7 444 166.2 444.4 166.5 444.4 177.7 430.3 185.9 387.9 210.4 334.8 241"/><line class="cls-2" x1="319.4" y1="208.8" x2="319.4" y2="209.3"/><line class="cls-2" x1="323.8" y1="206.2" x2="323.8" y2="206.7"/><line class="cls-2" x1="216.9" y1="267.9" x2="216.9" y2="268.4"/><line class="cls-2" x1="227.5" y1="261.8" x2="227.5" y2="262.3"/><line class="cls-2" x1="223.9" y1="264.4" x2="223.5" y2="264.1"/><line class="cls-2" x1="223.9" y1="264.4" x2="223.9" y2="263.9"/><line class="cls-2" x1="206.3" y1="274" x2="206.3" y2="274.5"/><line class="cls-2" x1="202.7" y1="276.6" x2="202.3" y2="276.4"/><line class="cls-2" x1="202.7" y1="276.6" x2="202.7" y2="276.1"/><line class="cls-2" x1="248.7" y1="249.5" x2="248.7" y2="250"/><line class="cls-2" x1="245.1" y1="252.1" x2="244.7" y2="251.9"/><line class="cls-2" x1="245.1" y1="252.1" x2="245.1" y2="251.6"/><line class="cls-2" x1="238.1" y1="255.7" x2="238.1" y2="256.2"/><line class="cls-2" x1="259.3" y1="243.4" x2="259.3" y2="243.9"/><line class="cls-2" x1="270" y1="237.3" x2="270" y2="237.8"/><line class="cls-2" x1="266.3" y1="239.9" x2="265.9" y2="239.6"/><line class="cls-2" x1="291.2" y1="225.1" x2="291.2" y2="225.5"/><line class="cls-2" x1="287.6" y1="227.6" x2="287.6" y2="227.1"/><line class="cls-2" x1="280.6" y1="231.2" x2="280.6" y2="231.7"/><line class="cls-2" x1="277" y1="233.8" x2="276.5" y2="233.5"/><line class="cls-2" x1="301.8" y1="218.9" x2="301.8" y2="219.4"/><line class="cls-2" x1="298.2" y1="221.5" x2="297.7" y2="221.3"/><line class="cls-2" x1="298.2" y1="221.5" x2="298.2" y2="221"/><line class="cls-2" x1="308.8" y1="215.4" x2="308.8" y2="214.9"/><line class="cls-2" x1="290.3" y1="186.7" x2="292.4" y2="185.5"/><line class="cls-2" x1="292.4" y1="185.5" x2="293.7" y2="186.2"/><path class="cls-2" d="M264.1,201.8l14.2-8.2"/><line class="cls-2" x1="279.5" y1="194.4" x2="278.3" y2="193.6"/><path class="cls-2" d="M221.7,226.3l14.1-8.2"/><line class="cls-2" x1="237.1" y1="218.9" x2="235.8" y2="218.1"/><line class="cls-2" x1="209.7" y1="233.2" x2="210.9" y2="234"/><path class="cls-2" d="M209.7,233.2l-4.3,2.5"/><line class="cls-2" x1="205.4" y1="235.7" x2="206.7" y2="236.4"/><path class="cls-2" d="M179.3,250.8l14.1-8.2"/><line class="cls-2" x1="194.7" y1="243.4" x2="193.4" y2="242.6"/><line class="cls-2" x1="167.3" y1="257.7" x2="168.5" y2="258.5"/><line class="cls-2" x1="167.3" y1="257.7" x2="165.1" y2="259"/><line class="cls-2" x1="252.1" y1="208.7" x2="253.4" y2="209.5"/><path class="cls-2" d="M252.1,208.7l-4.2,2.5"/><line class="cls-2" x1="247.9" y1="211.2" x2="249.1" y2="211.9"/><line class="cls-2" x1="266.3" y1="239.9" x2="266.3" y2="239.4"/><path class="cls-2" d="M223,227l.8-.5"/><path class="cls-2" d="M180.5,251.5l.9-.5"/><path class="cls-2" d="M194.7,243.4v.5"/><path class="cls-2" d="M139.4,275.8l-.4-.3"/><line class="cls-2" x1="139" y1="275.5" x2="139" y2="276"/><path class="cls-2" d="M142.6,273.4l.4.3"/><path class="cls-2" d="M148.2,270.7l-.4-.3"/><line class="cls-2" x1="147.8" y1="270.4" x2="147.8" y2="270.9"/><path class="cls-2" d="M151.4,268.3l.4.3"/><line class="cls-2" x1="143.4" y1="273" x2="143.4" y2="273.4"/><path class="cls-2" d="M147,270.9l.4.3"/><path class="cls-2" d="M97,300.3l-.5-.3"/><line class="cls-2" x1="96.5" y1="300" x2="96.5" y2="300.5"/><path class="cls-2" d="M100.2,297.9l.4.3"/><path class="cls-2" d="M101.4,297.7l-.4-.2"/><path class="cls-2" d="M105.8,295.2l-.4-.3"/><line class="cls-2" x1="105.4" y1="294.9" x2="105.4" y2="295.4"/><path class="cls-2" d="M109,292.8l.4.3"/><line class="cls-2" x1="101" y1="297.5" x2="101" y2="297.9"/><path class="cls-2" d="M104.5,295.4l.5.3"/><line class="cls-2" x1="131.6" y1="278.3" x2="131.6" y2="279.8"/><path class="cls-2" d="M113.8,288.6h.2"/><path class="cls-2" d="M116.2,291.3h.8"/><path class="cls-2" d="M117,291.3l1.3-.7"/><path class="cls-2" d="M122.5,288.1a.2.2,0,0,0,.2-.2"/><line class="cls-2" x1="122.5" y1="287.6" x2="122.5" y2="288.1"/><path class="cls-2" d="M117.9,286.4h-.1"/><line class="cls-2" x1="117.8" y1="286.3" x2="117.8" y2="287.8"/><path class="cls-2" d="M117.9,287.8h-.1"/><path class="cls-2" d="M117.8,286.3l2.8-1.6"/><path class="cls-2" d="M123.1,285.2l-.4-.3"/><line class="cls-2" x1="122.7" y1="284.9" x2="122.7" y2="285.4"/><path class="cls-2" d="M125.3,283.4l.4.3"/><path class="cls-2" d="M124.8,282.2l2.8-1.6"/><path class="cls-2" d="M127.6,280.6h.1"/><path class="cls-2" d="M130,283.3a.6.6,0,0,0,.8,0"/><path class="cls-2" d="M130.8,283.3l1.3-.7"/><path class="cls-2" d="M136.3,280.2c.1-.1.2-.2.2-.3"/><line class="cls-2" x1="136.3" y1="279.7" x2="136.3" y2="280.2"/><path class="cls-2" d="M131.7,278.4h-.1"/><path class="cls-2" d="M131.7,279.9h-.1"/><line class="cls-2" x1="121.3" y1="288.9" x2="121.3" y2="289.6"/><line class="cls-2" x1="121.3" y1="289.6" x2="119.1" y2="290.9"/><line class="cls-2" x1="135" y1="280.9" x2="135" y2="281.6"/><line class="cls-2" x1="135" y1="281.6" x2="132.9" y2="282.9"/><line class="cls-2" x1="89.1" y1="302.8" x2="89.1" y2="304.3"/><line class="cls-2" x1="117" y1="326.1" x2="117" y2="326.1"/><path class="cls-2" d="M71.4,313.1h.1"/><path class="cls-2" d="M73.8,315.8h.8"/><path class="cls-2" d="M74.6,315.8l1.3-.7"/><path class="cls-2" d="M80.1,312.6a.2.2,0,0,0,.2-.2"/><line class="cls-2" x1="80.1" y1="312.1" x2="80.1" y2="312.6"/><path class="cls-2" d="M75.5,310.8h-.1"/><line class="cls-2" x1="75.4" y1="310.8" x2="75.4" y2="312.3"/><path class="cls-2" d="M75.5,312.3h-.1"/><path class="cls-2" d="M75.4,310.8l2.8-1.6"/><path class="cls-2" d="M80.7,309.7l-.4-.3"/><line class="cls-2" x1="80.3" y1="309.4" x2="80.3" y2="309.9"/><path class="cls-2" d="M82.8,307.9l.5.3"/><path class="cls-2" d="M82.4,306.7l2.8-1.6"/><path class="cls-2" d="M85.2,305.1h.1"/><path class="cls-2" d="M87.5,307.8a.7.7,0,0,0,.9,0"/><path class="cls-2" d="M88.4,307.8l1.3-.7"/><path class="cls-2" d="M93.9,304.7c.1-.1.2-.2.2-.3"/><line class="cls-2" x1="93.9" y1="304.2" x2="93.9" y2="304.7"/><path class="cls-2" d="M89.3,302.9h-.2"/><path class="cls-2" d="M89.3,304.4h-.2"/><line class="cls-2" x1="78.8" y1="313.3" x2="78.8" y2="314.1"/><line class="cls-2" x1="78.8" y1="314.1" x2="76.7" y2="315.3"/><line class="cls-2" x1="92.6" y1="305.4" x2="92.6" y2="306.1"/><line class="cls-2" x1="92.6" y1="306.1" x2="90.4" y2="307.4"/><path class="cls-2" d="M67,317.6l-.4-.3"/><line class="cls-2" x1="60.3" y1="320.9" x2="60.3" y2="322.4"/><line class="cls-2" x1="70.7" y1="325" x2="70.7" y2="325.5"/><path class="cls-2" d="M70.7,325l.9.5"/><path class="cls-2" d="M71.6,325.5l-.4.2"/><path class="cls-2" d="M156.3,264.1h.1"/><path class="cls-2" d="M158.6,266.8h.8"/><path class="cls-2" d="M159.4,266.8l1.3-.7"/><line class="cls-2" x1="165" y1="263.1" x2="165" y2="263.6"/><path class="cls-2" d="M160.4,261.9h-.2"/><line class="cls-2" x1="160.2" y1="261.8" x2="160.2" y2="263.3"/><path class="cls-2" d="M160.4,263.3h-.2"/><path class="cls-2" d="M160.2,261.8l2.8-1.6"/><path class="cls-2" d="M165.6,260.7l-.5-.3"/><line class="cls-2" x1="165.1" y1="260.4" x2="165.1" y2="260.9"/><path class="cls-2" d="M167.7,259l.4.2"/><path class="cls-2" d="M167.3,257.7l2.8-1.6"/><path class="cls-2" d="M170.1,256.1h.1"/><path class="cls-2" d="M172.4,258.9a1.1,1.1,0,0,0,.8,0"/><path class="cls-2" d="M173.2,258.9l1.3-.8"/><path class="cls-2" d="M178.7,255.7l.2-.3"/><line class="cls-2" x1="178.7" y1="255.2" x2="178.7" y2="255.7"/><path class="cls-2" d="M174.1,253.9H174"/><path class="cls-2" d="M174.1,255.4H174"/><line class="cls-2" x1="177.5" y1="256.4" x2="177.5" y2="257.1"/><line class="cls-2" x1="177.5" y1="257.1" x2="175.3" y2="258.4"/><path class="cls-2" d="M230.7,223.3l.2.3"/><path class="cls-2" d="M230.5,223.9l-.6.2"/><path class="cls-2" d="M233.2,226.6a1,1,0,0,0,.9-.1"/><path class="cls-2" d="M234.1,226.5a18.3,18.3,0,0,0,1.3-1.6"/><path class="cls-2" d="M235.4,224.9a.8.8,0,0,1,1-.1"/><path class="cls-2" d="M236.4,224.8l3.4,2"/><path class="cls-2" d="M239.8,226.8l.2.2"/><path class="cls-2" d="M236.8,228.1a.3.3,0,0,0-.3.3"/><path class="cls-2" d="M240.1,230.6a1,1,0,0,0,.9-.1"/><path class="cls-2" d="M241,230.5l1.4-1.6"/><path class="cls-2" d="M242.4,228.9a.6.6,0,0,1,.9-.1"/><path class="cls-2" d="M243.3,228.8l3.5,2"/><path class="cls-2" d="M246.8,230.8v.2"/><path class="cls-2" d="M243.7,232.1a.3.3,0,0,0-.3.3"/><path class="cls-2" d="M249.3,232.9a.6.6,0,0,1,.9-.1"/><path class="cls-2" d="M250.7,236.1c-.2,0-.4.1-.4.3"/><path class="cls-2" d="M224.2,226.8l-.4-.3"/><line class="cls-2" x1="223.8" y1="226.5" x2="223.8" y2="227"/><path class="cls-2" d="M227.4,224.5l.4.2"/><line class="cls-2" x1="228.3" y1="224" x2="228.3" y2="224.5"/><path class="cls-2" d="M181.8,251.3l-.4-.3"/><line class="cls-2" x1="181.4" y1="251" x2="181.4" y2="251.5"/><path class="cls-2" d="M185,249l.4.2"/><path class="cls-2" d="M186.3,248.7l-.5-.2"/><line class="cls-2" x1="190.2" y1="245.9" x2="190.2" y2="246.4"/><path class="cls-2" d="M193.8,243.9l.5.2"/><line class="cls-2" x1="185.8" y1="248.5" x2="185.8" y2="249"/><path class="cls-2" d="M189.4,246.4l.4.3"/><line class="cls-2" x1="239" y1="255.7" x2="239" y2="255.7"/><path class="cls-2" d="M198.7,239.6h.1"/><path class="cls-2" d="M201,242.3a.7.7,0,0,0,.9,0"/><path class="cls-2" d="M201.9,242.3l1.2-.7"/><line class="cls-2" x1="207.4" y1="238.6" x2="207.4" y2="239.1"/><path class="cls-2" d="M202.8,237.4h-.2"/><path class="cls-2" d="M202.6,237.3l2.8-1.6"/><path class="cls-2" d="M208,236.2l-.4-.3"/><line class="cls-2" x1="207.6" y1="235.9" x2="207.6" y2="236.4"/><path class="cls-2" d="M210.1,234.5l.4.2"/><path class="cls-2" d="M209.7,233.2l2.8-1.6"/><path class="cls-2" d="M212.5,231.6h.1"/><path class="cls-2" d="M214.8,234.4h.8"/><path class="cls-2" d="M215.6,234.4l1.3-.8"/><path class="cls-2" d="M221.2,231.2v-.3"/><line class="cls-2" x1="221.2" y1="230.7" x2="221.2" y2="231.2"/><path class="cls-2" d="M216.6,229.4h-.2"/><path class="cls-2" d="M216.6,230.9h-.2"/><line class="cls-2" x1="206.1" y1="239.9" x2="206.1" y2="240.6"/><line class="cls-2" x1="206.1" y1="240.6" x2="203.9" y2="241.9"/><line class="cls-2" x1="219.9" y1="231.9" x2="219.9" y2="232.6"/><line class="cls-2" x1="219.9" y1="232.6" x2="217.7" y2="233.9"/><line class="cls-2" x1="151" y1="267.1" x2="156.3" y2="264.1"/><line class="cls-2" x1="108.6" y1="291.6" x2="113.8" y2="288.6"/><line class="cls-2" x1="89.1" y1="302.8" x2="94.4" y2="299.8"/><path class="cls-2" d="M66.1,316.1l5.3-3"/><path class="cls-2" d="M216.4,229.3l5.3-3"/><line class="cls-2" x1="193.4" y1="242.6" x2="198.7" y2="239.6"/><line class="cls-2" x1="174" y1="253.8" x2="179.3" y2="250.8"/><line class="cls-2" x1="131.6" y1="278.3" x2="136.8" y2="275.3"/><path class="cls-2" d="M122.7,287.9l-.2-.3"/><path class="cls-2" d="M136.5,279.9l-.2-.2"/><path class="cls-2" d="M135.7,281.8c0-.4-.4-.7-.7-.9"/><path class="cls-2" d="M80.3,312.4l-.2-.3"/><path class="cls-2" d="M94.1,304.4l-.2-.2"/><path class="cls-2" d="M93.2,306.2c0-.3-.3-.6-.6-.8"/><path class="cls-2" d="M178.9,255.4a.2.2,0,0,0-.2-.2"/><line class="cls-2" x1="164.3" y1="265.2" x2="164.3" y2="265.5"/><line class="cls-2" x1="178.1" y1="257.3" x2="178.1" y2="257.5"/><path class="cls-2" d="M178.1,257.3a1.1,1.1,0,0,0-.6-.9"/><path class="cls-2" d="M236.5,228.4l.2.2"/><path class="cls-2" d="M246.9,231l-.2.3"/><path class="cls-2" d="M243.4,232.4l.2.2"/><path class="cls-2" d="M207.6,238.9l-.2-.3"/><path class="cls-2" d="M221.3,230.9v-.2"/><path class="cls-2" d="M220.5,232.8a1.1,1.1,0,0,0-.6-.9"/><path class="cls-2" d="M168.9,258.7l-.4-.2"/><path class="cls-2" d="M195.1,243.6l-.4-.2"/><path class="cls-2" d="M211.4,234.2l-.5-.2"/><polyline class="cls-2" points="217.8 267.9 217.8 267.9 217.8 267.4"/><polyline class="cls-2" points="228.4 261.8 228.4 261.8 228.4 261.3"/><polyline class="cls-2" points="239 255.7 239 255.7 239 255.2"/><polyline class="cls-2" points="260.2 243.4 260.2 243.4 260.2 242.9"/><line class="cls-2" x1="221.7" y1="226.3" x2="221.7" y2="226.3"/><line class="cls-2" x1="179.3" y1="250.8" x2="179.3" y2="250.8"/><path class="cls-2" d="M210.9,234.5V234"/><path class="cls-2" d="M189.4,246.4l.8-.5"/><line class="cls-2" x1="168.5" y1="259" x2="168.5" y2="258.5"/><path class="cls-2" d="M204.3,239.3l-3.9,2.2"/><polyline class="cls-2" points="171.7 258.1 174.3 256.6 175.7 255.8"/><line class="cls-2" x1="214.2" y1="233.6" x2="218.1" y2="231.3"/><path class="cls-2" d="M206.7,236.4l.4.3"/><path class="cls-2" d="M259.8,243.2l.4.2"/><path class="cls-2" d="M228,261.5l.4.3"/><path class="cls-2" d="M217.3,267.7l.5.2"/><path class="cls-2" d="M249.2,249.3l.4.2"/><line class="cls-2" x1="223.1" y1="264.4" x2="223.1" y2="264.9"/><line class="cls-2" x1="201.9" y1="276.6" x2="201.9" y2="277.1"/><line class="cls-2" x1="234.5" y1="258.2" x2="234.1" y2="258"/><line class="cls-2" x1="233.7" y1="258.2" x2="233.7" y2="258.7"/><line class="cls-2" x1="254.9" y1="246" x2="254.9" y2="246.5"/><line class="cls-2" x1="265.5" y1="239.9" x2="265.5" y2="240.4"/><line class="cls-2" x1="286.7" y1="227.6" x2="286.7" y2="228.1"/><line class="cls-2" x1="297.3" y1="221.5" x2="297.3" y2="222"/><line class="cls-2" x1="307.9" y1="215.4" x2="307.9" y2="215.9"/><line class="cls-2" x1="291.6" y1="187.4" x2="292.4" y2="186.9"/><path class="cls-2" d="M265.4,202.5l.8-.4"/><path class="cls-2" d="M237.1,218.9v.5"/><path class="cls-2" d="M364,146.1l-.5-.2"/><line class="cls-2" x1="359.9" y1="148" x2="359.9" y2="148.5"/><path class="cls-2" d="M359.9,148a.5.5,0,0,1,.4.2"/><path class="cls-2" d="M359.5,148.7l-.4-.2"/><path class="cls-2" d="M355.1,151.2l-.4-.2"/><line class="cls-2" x1="351.1" y1="153.1" x2="351.1" y2="153.6"/><path class="cls-2" d="M351.1,153.1l.4.2"/><path class="cls-2" d="M355.5,150.5l.5.2"/><path class="cls-2" d="M393.9,128.8l-.4-.2"/><line class="cls-2" x1="393.5" y1="128.6" x2="393.5" y2="129.1"/><line class="cls-2" x1="393.5" y1="128.6" x2="399.7" y2="125"/><line class="cls-2" x1="420.4" y1="138.4" x2="420.4" y2="138.9"/><path class="cls-2" d="M420.4,138.4l-.4.3"/><line class="cls-2" x1="422.6" y1="138.2" x2="424.2" y2="139.1"/><line class="cls-2" x1="386.1" y1="131.4" x2="386.1" y2="132.8"/><path class="cls-2" d="M386.1,131.4h.1"/><path class="cls-2" d="M386.1,132.8h.1"/><line class="cls-2" x1="390.9" y1="132.7" x2="390.9" y2="133.2"/><path class="cls-2" d="M390.9,132.7c0,.1.1.2.1.3"/><path class="cls-2" d="M385.3,136.4h-.8"/><path class="cls-2" d="M382.3,133.7h-.1"/><path class="cls-2" d="M382.2,133.7l-2.8,1.6"/><line class="cls-2" x1="379.4" y1="135.3" x2="379.4" y2="135.3"/><path class="cls-2" d="M380.2,136.7l-.4-.2"/><line class="cls-2" x1="377.2" y1="138" x2="377.2" y2="138.5"/><path class="cls-2" d="M377.2,138l.5.2"/><path class="cls-2" d="M376.8,138.7l-.4-.2"/><path class="cls-2" d="M375.1,137.7l-2.8,1.6"/><line class="cls-2" x1="372.3" y1="139.3" x2="372.3" y2="140.8"/><path class="cls-2" d="M372.3,139.3h.2"/><path class="cls-2" d="M372.3,140.8h.2"/><line class="cls-2" x1="377.1" y1="140.7" x2="377.1" y2="141.2"/><path class="cls-2" d="M377.1,140.7c.1,0,.1.1.1.2"/><path class="cls-2" d="M371.6,144.3a.7.7,0,0,1-.9,0"/><path class="cls-2" d="M368.5,141.7h-.1"/><path class="cls-2" d="M389.6,133.9a1.1,1.1,0,0,1,.6.9"/><line class="cls-2" x1="389.6" y1="134.7" x2="389.6" y2="133.9"/><path class="cls-2" d="M386.6,135.7l-1.3.7"/><line class="cls-2" x1="375.8" y1="142.6" x2="375.8" y2="141.9"/><path class="cls-2" d="M372.8,143.6l-1.2.7"/><line class="cls-2" x1="343.7" y1="155.9" x2="343.7" y2="157.3"/><path class="cls-2" d="M343.7,155.9h.1"/><path class="cls-2" d="M343.7,157.3h.1"/><line class="cls-2" x1="348.4" y1="157.2" x2="348.4" y2="157.7"/><path class="cls-2" d="M348.4,157.2c.1.1.2.1.2.3"/><path class="cls-2" d="M342.9,160.9h-.8"/><path class="cls-2" d="M339.8,158.2h-.1"/><path class="cls-2" d="M339.7,158.1l-2.8,1.7"/><path class="cls-2" d="M337.8,161.2l-.4-.2"/><line class="cls-2" x1="334.8" y1="162.5" x2="334.8" y2="162.9"/><path class="cls-2" d="M334.8,162.5l.4.2"/><path class="cls-2" d="M334.4,163.2l-.4-.3"/><path class="cls-2" d="M332.7,162.2l-2.8,1.6"/><line class="cls-2" x1="329.9" y1="163.8" x2="329.9" y2="165.3"/><path class="cls-2" d="M329.9,163.8h.1"/><path class="cls-2" d="M329.9,165.3h.1"/><line class="cls-2" x1="334.6" y1="165.2" x2="334.6" y2="165.7"/><path class="cls-2" d="M334.6,165.2l.2.2"/><path class="cls-2" d="M329.1,168.8a.6.6,0,0,1-.8,0"/><path class="cls-2" d="M326.1,166.2H326"/><path class="cls-2" d="M347.2,158.4a1.1,1.1,0,0,1,.6.9"/><line class="cls-2" x1="347.2" y1="159.2" x2="347.2" y2="158.4"/><path class="cls-2" d="M344.2,160.2l-1.3.7"/><line class="cls-2" x1="333.4" y1="167.1" x2="333.4" y2="166.4"/><path class="cls-2" d="M330.4,168.1l-1.3.7"/><path class="cls-2" d="M321.5,170.6l-.4-.2"/><line class="cls-2" x1="317.5" y1="172.5" x2="317.5" y2="172.9"/><path class="cls-2" d="M317.5,172.5l.4.2"/><path class="cls-2" d="M317.1,173.2l-.4-.3"/><path class="cls-2" d="M312.7,175.7l-.4-.2"/><line class="cls-2" x1="308.7" y1="177.6" x2="308.7" y2="178.1"/><path class="cls-2" d="M308.7,177.6l.4.2"/><path class="cls-2" d="M308.2,178.3l-.4-.2"/><path class="cls-2" d="M313.1,175l.4.2"/><line class="cls-2" x1="301.3" y1="180.4" x2="301.3" y2="181.8"/><path class="cls-2" d="M301.3,180.4h.1"/><path class="cls-2" d="M301.3,181.8h.1"/><line class="cls-2" x1="306" y1="181.7" x2="306" y2="182.2"/><path class="cls-2" d="M306,181.7l.2.2"/><path class="cls-2" d="M300.5,185.4h-.9"/><path class="cls-2" d="M297.4,182.7h-.1"/><path class="cls-2" d="M297.3,182.6l-2.8,1.7"/><path class="cls-2" d="M295.4,185.7l-.5-.2"/><line class="cls-2" x1="292.4" y1="186.9" x2="292.4" y2="187.4"/><path class="cls-2" d="M292.4,186.9l.4.3"/><path class="cls-2" d="M290.3,186.7l-2.8,1.6"/><line class="cls-2" x1="287.5" y1="188.3" x2="287.5" y2="189.8"/><path class="cls-2" d="M287.5,188.3h.1"/><path class="cls-2" d="M287.5,189.8h.1"/><line class="cls-2" x1="292.2" y1="189.7" x2="292.2" y2="190.1"/><path class="cls-2" d="M286.7,193.3a.6.6,0,0,1-.8,0"/><path class="cls-2" d="M283.6,190.7h-.1"/><path class="cls-2" d="M304.7,182.9a1.1,1.1,0,0,1,.6.9"/><line class="cls-2" x1="304.7" y1="183.7" x2="304.7" y2="182.9"/><path class="cls-2" d="M301.8,184.6l-1.3.8"/><path class="cls-2" d="M291,190.9c.2.2.6.5.6.8"/><line class="cls-2" x1="291" y1="191.6" x2="291" y2="190.9"/><path class="cls-2" d="M288,192.6l-1.3.7"/><path class="cls-2" d="M236.7,219.6l-.4-.2"/><line class="cls-2" x1="232.7" y1="221.4" x2="232.7" y2="221.9"/><path class="cls-2" d="M232.7,221.4l.4.3"/><path class="cls-2" d="M232.2,222.2l-.4-.3"/><path class="cls-2" d="M279.1,195.1l-.4-.2"/><line class="cls-2" x1="275.1" y1="196.9" x2="275.1" y2="197.4"/><path class="cls-2" d="M275.1,196.9l.4.3"/><path class="cls-2" d="M274.7,197.7l-.5-.3"/><path class="cls-2" d="M270.3,200.2l-.5-.2"/><line class="cls-2" x1="266.2" y1="202.1" x2="266.2" y2="202.5"/><path class="cls-2" d="M266.2,202.1l.5.2"/><path class="cls-2" d="M270.7,199.5l.4.2"/><line class="cls-2" x1="258.8" y1="204.9" x2="258.8" y2="206.3"/><path class="cls-2" d="M258.8,204.9h.2"/><path class="cls-2" d="M258.8,206.3h.2"/><line class="cls-2" x1="263.6" y1="206.2" x2="263.6" y2="206.7"/><path class="cls-2" d="M263.6,206.2l.2.2"/><path class="cls-2" d="M258.1,209.9h-.9"/><path class="cls-2" d="M255,207.2h-.1"/><path class="cls-2" d="M254.9,207.1l-2.8,1.6"/><path class="cls-2" d="M252.9,210.2l-.4-.2"/><line class="cls-2" x1="250" y1="211.4" x2="250" y2="211.9"/><path class="cls-2" d="M250,211.4l.4.3"/><path class="cls-2" d="M249.6,212.2l-.5-.3"/><path class="cls-2" d="M247.9,211.2l-2.8,1.6"/><line class="cls-2" x1="245.1" y1="212.8" x2="245.1" y2="214.3"/><path class="cls-2" d="M245.1,212.8h.1"/><path class="cls-2" d="M245.1,214.3h.1"/><line class="cls-2" x1="249.8" y1="214.2" x2="249.8" y2="214.6"/><path class="cls-2" d="M249.8,214.2a.2.2,0,0,1,.2.2"/><path class="cls-2" d="M244.3,217.8a.7.7,0,0,1-.9,0"/><path class="cls-2" d="M241.2,215.2h-.1"/><path class="cls-2" d="M262.3,207.4a1.1,1.1,0,0,1,.6.9"/><line class="cls-2" x1="262.3" y1="208.2" x2="262.3" y2="207.4"/><path class="cls-2" d="M259.3,209.1l-1.2.8"/><line class="cls-2" x1="248.5" y1="216.1" x2="248.5" y2="215.4"/><path class="cls-2" d="M245.6,217.1l-1.3.7"/><line class="cls-2" x1="349" y1="152.8" x2="343.7" y2="155.9"/><path class="cls-2" d="M391.4,128.3l-5.3,3.1"/><line class="cls-2" x1="306.5" y1="177.3" x2="301.3" y2="180.4"/><path class="cls-2" d="M241.1,215.1l-5.3,3"/><line class="cls-2" x1="264.1" y1="201.8" x2="258.8" y2="204.9"/><line class="cls-2" x1="326" y1="166.1" x2="320.7" y2="169.2"/><line class="cls-2" x1="368.4" y1="141.6" x2="363.1" y2="144.7"/><line class="cls-2" x1="283.5" y1="190.6" x2="278.3" y2="193.6"/><path class="cls-2" d="M391,133v.2"/><path class="cls-2" d="M377.2,140.9a.4.4,0,0,1-.1.3"/><path class="cls-2" d="M348.6,157.5l-.2.2"/><path class="cls-2" d="M306.2,181.9c0,.2-.1.2-.2.3"/><path class="cls-2" d="M230.9,223.6c0,.2-.2.3-.4.3"/><path class="cls-2" d="M240,227a.3.3,0,0,1-.3.3"/><path class="cls-2" d="M253.9,235c0,.2-.2.3-.4.3"/><path class="cls-2" d="M263.8,206.4c0,.2-.1.2-.2.3"/><path class="cls-2" d="M250,214.4l-.2.2"/><line class="cls-2" x1="262.9" y1="208.3" x2="262.9" y2="208.5"/><line class="cls-2" x1="355.5" y1="151" x2="355.5" y2="150.5"/><line class="cls-2" x1="387.4" y1="135.9" x2="389.6" y2="134.7"/><line class="cls-2" x1="373.6" y1="143.9" x2="375.8" y2="142.6"/><line class="cls-2" x1="345" y1="160.4" x2="347.2" y2="159.2"/><line class="cls-2" x1="331.2" y1="168.4" x2="333.4" y2="167.1"/><line class="cls-2" x1="302.5" y1="184.9" x2="304.7" y2="183.7"/><line class="cls-2" x1="288.8" y1="192.9" x2="291" y2="191.6"/><line class="cls-2" x1="270.7" y1="200" x2="270.7" y2="199.5"/><line class="cls-2" x1="260.1" y1="209.4" x2="262.3" y2="208.2"/><line class="cls-2" x1="246.3" y1="217.4" x2="248.5" y2="216.1"/><path class="cls-2" d="M207.6,307.6a.7.7,0,0,1,.4-.7"/><path class="cls-2" d="M208,306.9l3.5-.6"/><line class="cls-2" x1="101.5" y1="344.7" x2="101.5" y2="336.5"/><line class="cls-2" x1="101.5" y1="336.5" x2="100.2" y2="335.8"/><line class="cls-2" x1="100.2" y1="343.9" x2="100.2" y2="335.8"/><line class="cls-2" x1="101.5" y1="344.7" x2="100.2" y2="343.9"/><line class="cls-2" x1="98" y1="377.7" x2="96.7" y2="377"/><line class="cls-2" x1="98" y1="366.5" x2="97.1" y2="366"/><line class="cls-2" x1="98" y1="366.5" x2="98.4" y2="366.2"/><line class="cls-2" x1="98.4" y1="366.2" x2="97.5" y2="365.7"/><line class="cls-2" x1="98.4" y1="366.2" x2="98.4" y2="365.3"/><line class="cls-2" x1="80.3" y1="368.5" x2="80.7" y2="368.3"/><line class="cls-2" x1="80.7" y1="368.3" x2="80.3" y2="368"/><line class="cls-2" x1="79" y1="368.3" x2="77.7" y2="367.5"/><line class="cls-2" x1="79" y1="357.7" x2="77.7" y2="356.9"/><line class="cls-2" x1="83.2" y1="355.7" x2="81.9" y2="355"/><polyline class="cls-2" points="83.2 355.7 83.2 355.3 83.2 353.8"/><line class="cls-2" x1="83.2" y1="353.8" x2="81.9" y2="353"/><polyline class="cls-2" points="81.9 355 81.9 354.5 81.9 353"/><line class="cls-2" x1="87.4" y1="351.3" x2="86.2" y2="350.6"/><line class="cls-2" x1="81.9" y1="353" x2="86.2" y2="350.6"/><line class="cls-2" x1="87.4" y1="353.3" x2="88.3" y2="352.8"/><line class="cls-2" x1="88.3" y1="352.8" x2="87.4" y2="352.3"/><line class="cls-2" x1="88.3" y1="352.8" x2="88.3" y2="352.3"/><line class="cls-2" x1="88.3" y1="352.3" x2="87.4" y2="351.8"/><line class="cls-2" x1="90.8" y1="350.8" x2="90.8" y2="351.3"/><line class="cls-2" x1="90.8" y1="351.3" x2="91.7" y2="350.8"/><line class="cls-2" x1="91.7" y1="350.8" x2="90.4" y2="350.1"/><polyline class="cls-2" points="91.7 350.8 91.7 350.4 91.7 348.9"/><line class="cls-2" x1="91.7" y1="348.9" x2="90.4" y2="348.2"/><polyline class="cls-2" points="90.4 350.1 90.4 349.6 90.4 348.1"/><line class="cls-2" x1="95.9" y1="346.4" x2="94.6" y2="345.7"/><line class="cls-2" x1="96.8" y1="347.9" x2="96.8" y2="347.4"/><path class="cls-2" d="M80.3,360.2c0-.1,0-.2-.1-.2"/><path class="cls-2" d="M79.7,364.6v.2"/><path class="cls-2" d="M110.2,349.5a3.3,3.3,0,0,0,1.2-1.6,2.9,2.9,0,0,0,.2-.9,1.1,1.1,0,0,0-.4-.9"/><path class="cls-2" d="M108.9,348.7a2.9,2.9,0,0,0,1.4-2.6"/><path class="cls-2" d="M110.2,346.2l-4.3,2.5"/><path class="cls-2" d="M105.9,351.9l4.3-2.4"/><path class="cls-2" d="M104.6,351.2l4.3-2.5"/><line class="cls-2" x1="98.4" y1="355.8" x2="98.4" y2="356.3"/><line class="cls-2" x1="97.5" y1="357.7" x2="98" y2="357.5"/><line class="cls-2" x1="98" y1="357.5" x2="97.5" y2="357.3"/><line class="cls-2" x1="98" y1="361.3" x2="97.5" y2="361.5"/><line class="cls-2" x1="98.4" y1="362" x2="98.4" y2="362.5"/><line class="cls-2" x1="98.4" y1="362.5" x2="99.2" y2="362"/><line class="cls-2" x1="99.2" y1="362" x2="98.8" y2="361.7"/><line class="cls-2" x1="99.2" y1="362" x2="99.2" y2="361.5"/><polyline class="cls-2" points="207.6 314.5 154.5 345.1 112.1 369.6 98 377.7"/><path class="cls-2" d="M79.7,364.8c.2.1.4,0,.4-.1a.8.8,0,0,0,.2-.4"/><path class="cls-2" d="M104.9,352a.9.9,0,0,0,1-.1"/><line class="cls-2" x1="81.5" y1="355.3" x2="81.9" y2="355"/><line class="cls-2" x1="87.4" y1="351.3" x2="89.5" y2="350.1"/><line class="cls-2" x1="90" y1="350.4" x2="90.4" y2="350.1"/><path class="cls-2" d="M104.5,351.3h.1"/><path class="cls-2" d="M330.9,237.4h-.3"/><path class="cls-2" d="M330.4,230.7a.9.9,0,0,1,.5-.7"/><path class="cls-2" d="M334.8,222.3a.4.4,0,0,0-.1-.3"/><path class="cls-2" d="M330.9,225.5h-.3"/><path class="cls-2" d="M330.4,218.9a.8.8,0,0,1,.5-.7"/><line class="cls-2" x1="440.9" y1="140.6" x2="439.6" y2="139.8"/><line class="cls-2" x1="444.4" y1="177.7" x2="444.4" y2="166.5"/><line class="cls-2" x1="444.4" y1="166.5" x2="444" y2="166.2"/><line class="cls-2" x1="444.4" y1="166.5" x2="444" y2="166.7"/><polyline class="cls-2" points="462.1 155.3 462.1 149.7 462.1 148.1"/><line class="cls-2" x1="462.1" y1="148.1" x2="461.7" y2="147.8"/><line class="cls-2" x1="462.1" y1="148.1" x2="461.7" y2="148.3"/><line class="cls-2" x1="463.4" y1="146.4" x2="463.4" y2="135.8"/><line class="cls-2" x1="463.4" y1="135.8" x2="462.1" y2="135"/><line class="cls-2" x1="460" y1="137.7" x2="459.2" y2="137.2"/><line class="cls-2" x1="460" y1="137.7" x2="460" y2="138.2"/><line class="cls-2" x1="460" y1="138.2" x2="459.2" y2="137.7"/><line class="cls-2" x1="460" y1="138.2" x2="459.2" y2="138.7"/><line class="cls-2" x1="454.9" y1="139.1" x2="453.7" y2="138.4"/><polyline class="cls-2" points="454.9 139.1 454.9 140.6 454.9 141.1"/><line class="cls-2" x1="454.9" y1="141.1" x2="453.7" y2="140.4"/><polyline class="cls-2" points="453.7 138.4 453.7 139.9 453.7 140.4"/><line class="cls-2" x1="454.9" y1="141.1" x2="454.1" y2="141.6"/><line class="cls-2" x1="453.7" y1="140.4" x2="453.3" y2="140.6"/><line class="cls-2" x1="454.1" y1="141.6" x2="454.1" y2="141.1"/><line class="cls-2" x1="451.6" y1="142.6" x2="450.7" y2="142.1"/><line class="cls-2" x1="452.8" y1="140.4" x2="450.7" y2="141.6"/><line class="cls-2" x1="451.6" y1="142.6" x2="451.6" y2="143.1"/><line class="cls-2" x1="451.6" y1="143.1" x2="450.7" y2="142.6"/><line class="cls-2" x1="451.6" y1="143.1" x2="450.7" y2="143.6"/><line class="cls-2" x1="450.7" y1="141.6" x2="449.4" y2="140.9"/><line class="cls-2" x1="446.5" y1="144" x2="445.2" y2="143.3"/><line class="cls-2" x1="449.4" y1="140.9" x2="445.2" y2="143.3"/><polyline class="cls-2" points="446.5 144 446.5 145.5 446.5 146"/><line class="cls-2" x1="446.5" y1="146" x2="445.2" y2="145.3"/><polyline class="cls-2" points="445.2 143.3 445.2 144.8 445.2 145.3"/><line class="cls-2" x1="446.5" y1="146" x2="445.6" y2="146.5"/><line class="cls-2" x1="445.2" y1="145.3" x2="444.8" y2="145.5"/><line class="cls-2" x1="445.6" y1="146.5" x2="445.6" y2="146"/><path class="cls-2" d="M462.7,143.5a.6.6,0,0,1-.1.4c-.1.1-.3.2-.4.1"/><path class="cls-2" d="M430.9,162.8h-.1"/><line class="cls-2" x1="444" y1="156.3" x2="444" y2="156.7"/><line class="cls-2" x1="444" y1="156.7" x2="443.6" y2="156.5"/><line class="cls-2" x1="444.8" y1="156.3" x2="444.8" y2="157.2"/><line class="cls-2" x1="444.8" y1="157.2" x2="444.4" y2="157"/><line class="cls-2" x1="444.4" y1="161.2" x2="444.8" y2="161"/><line class="cls-2" x1="444.8" y1="161" x2="444.8" y2="162"/><line class="cls-2" x1="444.8" y1="162" x2="444.4" y2="161.7"/><line class="cls-2" x1="444.8" y1="162" x2="444.4" y2="162.2"/><line class="cls-2" x1="444" y1="162.5" x2="444" y2="162.9"/><line class="cls-2" x1="444" y1="162.9" x2="443.6" y2="162.7"/><line class="cls-2" x1="444" y1="162.9" x2="443.1" y2="163.4"/><polyline class="cls-2" points="334.8 241 387.9 210.4 430.3 185.9 444.4 177.7"/><path class="cls-2" d="M334.7,233.9h-.3"/><path class="cls-2" d="M462.6,139.2c.1,0,.1.1.1.2"/><path class="cls-2" d="M334.4,217.6l-3.5.6"/><path class="cls-2" d="M334.8,228.7a1,1,0,0,1-.4.7"/><path class="cls-2" d="M334.4,229.4l-3.5.6"/><path class="cls-2" d="M334.4,233.9h0"/><line class="cls-2" x1="334.8" y1="201.8" x2="334.8" y2="216.8"/><path class="cls-2" d="M211.5,287.1h.3"/><path class="cls-2" d="M208,295a.9.9,0,0,0-.4.8"/><path class="cls-2" d="M211.9,305.5a1.2,1.2,0,0,1-.4.8"/><line class="cls-2" x1="334.8" y1="241" x2="207.6" y2="314.5"/><path class="cls-2" d="M207.7,290.6h.3"/><path class="cls-2" d="M211.8,287a.4.4,0,0,1,.1.3"/><path class="cls-2" d="M207.7,302.4c.1.1.2,0,.3,0"/><path class="cls-2" d="M211.8,298.9c.1,0,.1.2.1.3"/><path class="cls-2" d="M40.8,339.7a.8.8,0,0,0,.5.7"/><path class="cls-2" d="M42.1,339a1,1,0,0,0,.4.7"/><line class="cls-2" x1="40.8" y1="339.7" x2="42.1" y2="339"/><path class="cls-2" d="M41.3,340.4l1.2.8"/><path class="cls-2" d="M46.8,343.6h.3"/><path class="cls-2" d="M46,338.7h0"/><line class="cls-2" x1="46" y1="338.6" x2="47.3" y2="337.9"/><path class="cls-2" d="M55.8,344.3h0"/><path class="cls-2" d="M57.1,343.5v.2"/><path class="cls-2" d="M54.6,347.7a1,1,0,0,0,.4.7"/><path class="cls-2" d="M55.9,346.9a1.2,1.2,0,0,0,.4.8"/><path class="cls-2" d="M36.6,364.2V343.8"/><path class="cls-2" d="M38.3,343.8l-.4-.3"/><line class="cls-2" x1="37.9" y1="342.2" x2="38.3" y2="342"/><path class="cls-2" d="M37.9,342.2l.4.3"/><path class="cls-2" d="M38.3,341.5l-.4-.2"/><path class="cls-2" d="M38.3,336.4l-.4-.2"/><line class="cls-2" x1="37.9" y1="333.9" x2="39.1" y2="333.2"/><line class="cls-2" x1="42.1" y1="336.3" x2="43.3" y2="335.6"/><path class="cls-2" d="M39.1,333.2l4.2,2.4"/><path class="cls-2" d="M42.1,336.3c0,.1-.1.1-.1.2"/><line class="cls-2" x1="42" y1="336.5" x2="43.3" y2="335.7"/><path class="cls-2" d="M43.3,335.6h0"/><path class="cls-2" d="M42,336.5l-1.2,3.2"/><path class="cls-2" d="M43.3,335.7,42.1,339"/><path class="cls-2" d="M43.2,340.8a3.9,3.9,0,0,0,.6,1.8,2.3,2.3,0,0,0,1.5,1"/><line class="cls-2" x1="45.5" y1="342.9" x2="46.1" y2="342.5"/><line class="cls-2" x1="46.1" y1="342.5" x2="43.2" y2="340.8"/><line class="cls-2" x1="43.2" y1="340.8" x2="42.5" y2="341.2"/><path class="cls-2" d="M37.9,337.2l.4.2"/><path class="cls-2" d="M74.8,359.3l-.2.3"/><path class="cls-2" d="M68.8,356.4a1.2,1.2,0,0,1-.4-.8"/><line class="cls-2" x1="68.4" y1="355.6" x2="69.7" y2="354.9"/><path class="cls-2" d="M70.1,355.6a.8.8,0,0,1-.4-.7"/><path class="cls-2" d="M68.4,355.6l1.2-3.2"/><path class="cls-2" d="M69.6,352.4v-.2"/><path class="cls-2" d="M70.9,351.6h0"/><path class="cls-2" d="M59.8,346.6h0"/><path class="cls-2" d="M61,351.3c0,.1,0,.3-.1.3"/><line class="cls-2" x1="79" y1="388.7" x2="80.3" y2="388"/><line class="cls-2" x1="77.3" y1="367.3" x2="77.7" y2="367.1"/><path class="cls-2" d="M77.3,367.3v-1"/><path class="cls-2" d="M77.3,366.3l.4.3"/><path class="cls-2" d="M77.7,365.3l-.4-.3"/><line class="cls-2" x1="77.3" y1="365" x2="77.7" y2="364.8"/><path class="cls-2" d="M80.3,364.3v-4.1"/><line class="cls-2" x1="77.3" y1="359.9" x2="77.7" y2="359.7"/><path class="cls-2" d="M80.3,360.2,80,360"/><path class="cls-2" d="M77.3,359.9V359"/><path class="cls-2" d="M77.3,359a.5.5,0,0,1,.4.2"/><path class="cls-2" d="M73.6,354.5v.2"/><line class="cls-2" x1="59.3" y1="350.8" x2="59.9" y2="350.5"/><path class="cls-2" d="M70.1,357.1a3.2,3.2,0,0,0,.7,1.9l.8.7a1.7,1.7,0,0,0,1,.1"/><line class="cls-2" x1="70.1" y1="357.1" x2="70.7" y2="356.7"/><line class="cls-2" x1="70.7" y1="356.7" x2="73.7" y2="358.4"/><line class="cls-2" x1="73.7" y1="358.4" x2="73.1" y2="358.8"/><path class="cls-2" d="M70.1,357.1l-1.3-.7"/><line class="cls-2" x1="79.7" y1="364.6" x2="80.3" y2="364.3"/><line class="cls-2" x1="79.7" y1="360.6" x2="80.3" y2="360.2"/><path class="cls-2" d="M77.7,360.2l-.4-.3"/><line class="cls-2" x1="36.6" y1="364.2" x2="79" y2="388.7"/><path class="cls-2" d="M47.1,343.7a.4.4,0,0,0,.1-.3"/><path class="cls-2" d="M45.1,343.9a1.7,1.7,0,0,1-1-.1,2.7,2.7,0,0,1-.8-.7,3.3,3.3,0,0,1-.8-1.9"/><path class="cls-2" d="M74.6,359.6h-.3"/><path class="cls-2" d="M60.9,351.6h-.3"/><line class="cls-2" x1="38.3" y1="336.9" x2="37.9" y2="337.2"/><path class="cls-2" d="M74.5,358.1l-4.4-2.5"/><path class="cls-2" d="M72.9,359.5a2.3,2.3,0,0,1-1.5-1,3.1,3.1,0,0,1-.7-1.8"/><path class="cls-2" d="M77.7,367.5l-.4-.2"/><line class="cls-2" x1="79.7" y1="360.6" x2="79.7" y2="360.6"/><path class="cls-2" d="M334.8,216.8a1.2,1.2,0,0,1-.4.8"/><path class="cls-2" d="M334.7,233.9c.1,0,.1.1.1.2"/><line class="cls-2" x1="80.3" y1="367.5" x2="80.3" y2="367.5"/><path class="cls-2" d="M323.8,206.7l-.4-.3"/><path class="cls-2" d="M302.6,218.9l-.4-.2"/><path class="cls-2" d="M313.2,212.8l-.4-.2"/><path class="cls-2" d="M281.4,231.2l-.4-.3"/><path class="cls-2" d="M292,225.1l-.4-.3"/><line class="cls-2" x1="213.3" y1="270.5" x2="213.3" y2="270"/><line class="cls-2" x1="255.7" y1="246" x2="255.7" y2="245.5"/><line class="cls-2" x1="270.8" y1="237.3" x2="270.8" y2="236.8"/><line class="cls-2" x1="292" y1="225.1" x2="292" y2="224.6"/><line class="cls-2" x1="281.4" y1="231.2" x2="281.4" y2="230.7"/><line class="cls-2" x1="313.2" y1="212.8" x2="313.2" y2="212.3"/><path class="cls-2" d="M258.8,206.3l-3.1,1.8"/><polyline class="cls-2" points="284.4 191.6 284.5 191.5 287.5 189.8"/><line class="cls-2" x1="242" y1="216.1" x2="245.1" y2="214.3"/><line class="cls-2" x1="105.1" y1="332.9" x2="105.1" y2="332.9"/><line class="cls-2" x1="249.6" y1="249.5" x2="249.6" y2="249.1"/><path class="cls-2" d="M207.6,235.9l-.9.5"/><line class="cls-2" x1="318.5" y1="209.7" x2="318.5" y2="209.3"/><path class="cls-2" d="M274.2,197.4l.9-.5"/><path class="cls-2" d="M231.8,221.9l.9-.5"/><path class="cls-2" d="M253.4,210v-.5"/><path class="cls-2" d="M250,211.4l-.9.5"/><polyline class="cls-2" points="285.2 192.6 285.8 192.3 289.2 190.3"/><line class="cls-2" x1="242.8" y1="217.1" x2="246.7" y2="214.8"/><path class="cls-2" d="M260.5,206.8l-3.9,2.3"/><path class="cls-2" d="M246.7,231.3h-.1"/><path class="cls-2" d="M237.1,218.9l.4.2"/><path class="cls-2" d="M279.5,194.4l.5.2"/><path class="cls-2" d="M253.4,209.5l.4.2"/><line class="cls-2" x1="319.4" y1="209.3" x2="318.9" y2="209"/><line class="cls-2" x1="212.5" y1="270.5" x2="212.5" y2="271"/><line class="cls-2" x1="244.3" y1="252.1" x2="244.3" y2="252.6"/><line class="cls-2" x1="255.7" y1="246" x2="255.3" y2="245.8"/><line class="cls-2" x1="287.6" y1="227.6" x2="287.1" y2="227.4"/><line class="cls-2" x1="276.1" y1="233.8" x2="276.1" y2="234.2"/><line class="cls-2" x1="312.4" y1="212.8" x2="312.4" y2="213.3"/><line class="cls-2" x1="308.8" y1="215.4" x2="308.3" y2="215.1"/><path class="cls-2" d="M279.5,194.4v.5"/><path class="cls-2" d="M143.8,273.2l-.4-.2"/><path class="cls-2" d="M152.7,268.1l-.4-.2"/><path class="cls-2" d="M110.3,292.6l-.5-.3"/><path class="cls-2" d="M126.5,283.2l-.4-.2"/><path class="cls-2" d="M84.1,307.7l-.4-.2"/><path class="cls-2" d="M228.7,224.2l-.4-.2"/><path class="cls-2" d="M190.7,246.2l-.5-.3"/><path class="cls-2" d="M207.4,239.1l.2-.2"/><path class="cls-2" d="M387.5,169.9l-.5-.2"/><path class="cls-2" d="M398.1,163.8l-.5-.2"/><path class="cls-2" d="M408.7,157.7l-.5-.2"/><path class="cls-2" d="M419.3,151.6l-.4-.3"/><path class="cls-2" d="M366.2,182.2l-.4-.3"/><path class="cls-2" d="M376.9,176.1l-.5-.3"/><path class="cls-2" d="M345,194.4l-.4-.2"/><path class="cls-2" d="M355.6,188.3l-.4-.2"/><path class="cls-2" d="M334.4,200.6l-.4-.3"/><line class="cls-2" x1="97.5" y1="362.5" x2="98" y2="362.2"/><path class="cls-2" d="M77.3,364l.4.3"/><line class="cls-2" x1="432.5" y1="135.8" x2="431.3" y2="135"/><line class="cls-2" x1="418.4" y1="151.6" x2="418.4" y2="152.1"/><line class="cls-2" x1="414.8" y1="154.1" x2="414.4" y2="153.9"/><line class="cls-2" x1="414.8" y1="154.1" x2="414.8" y2="153.7"/><line class="cls-2" x1="404.2" y1="160.3" x2="403.8" y2="160"/><line class="cls-2" x1="393.6" y1="165.9" x2="393.6" y2="166.4"/><line class="cls-2" x1="393.6" y1="166.4" x2="393.2" y2="166.2"/><line class="cls-2" x1="397.2" y1="164.3" x2="397.2" y2="163.8"/><line class="cls-2" x1="398.1" y1="163.3" x2="398.1" y2="163.8"/><line class="cls-2" x1="383" y1="172" x2="383" y2="172.5"/><line class="cls-2" x1="386.6" y1="170.4" x2="386.6" y2="169.9"/><line class="cls-2" x1="387.5" y1="169.5" x2="387.5" y2="169.9"/><line class="cls-2" x1="351.2" y1="190.4" x2="351.2" y2="190.9"/><line class="cls-2" x1="354.8" y1="188.8" x2="354.8" y2="188.3"/><line class="cls-2" x1="355.6" y1="187.8" x2="355.6" y2="188.3"/><line class="cls-2" x1="340.6" y1="197" x2="340.2" y2="196.8"/><line class="cls-2" x1="345" y1="193.9" x2="345" y2="194.4"/><line class="cls-2" x1="376" y1="176.1" x2="376" y2="176.6"/><line class="cls-2" x1="372.4" y1="178.6" x2="372" y2="178.4"/><line class="cls-2" x1="365.4" y1="182.2" x2="365.4" y2="182.7"/><line class="cls-2" x1="361.8" y1="184.8" x2="361.4" y2="184.5"/><line class="cls-2" x1="330" y1="202.6" x2="330" y2="203.1"/><line class="cls-2" x1="330" y1="203.1" x2="329.6" y2="202.9"/><line class="cls-2" x1="333.6" y1="201.1" x2="333.6" y2="200.6"/><line class="cls-2" x1="334.4" y1="200.1" x2="334.4" y2="200.6"/><path class="cls-2" d="M406.2,126.1h0"/><line class="cls-2" x1="406.2" y1="126.2" x2="407.4" y2="125.5"/><path class="cls-2" d="M407.5,125.4h-.1"/><line class="cls-2" x1="406.2" y1="126.1" x2="407.5" y2="125.4"/><path class="cls-2" d="M406.2,126.2l-.8,2.1"/><path class="cls-2" d="M407.4,125.5l-1.2,3.2"/><path class="cls-2" d="M410.1,128.5h0"/><line class="cls-2" x1="410.1" y1="128.4" x2="411.4" y2="127.6"/><path class="cls-2" d="M420,134.1h-.1"/><path class="cls-2" d="M421.2,133.3h0"/><path class="cls-2" d="M423.9,136.5v-.2"/><line class="cls-2" x1="423.9" y1="136.3" x2="425.2" y2="135.6"/><line class="cls-2" x1="433.7" y1="142" x2="435" y2="141.3"/><path class="cls-2" d="M425.2,135.6l2.5,1.5"/><path class="cls-2" d="M433.7,142h0"/><line class="cls-2" x1="433.7" y1="142.1" x2="435" y2="141.4"/><path class="cls-2" d="M435,141.3h0"/><path class="cls-2" d="M433.7,142.1a5.8,5.8,0,0,1-.5,1.4"/><path class="cls-2" d="M435,141.4l-.5,1.4"/><line class="cls-2" x1="402" y1="123.7" x2="403.3" y2="122.9"/><path class="cls-2" d="M403.3,122.9l4.2,2.5"/><path class="cls-2" d="M410.9,131.4c-.3-.9-.5-1.9-.8-2.9"/><path class="cls-2" d="M425.2,117.8a.8.8,0,0,0,.4.7"/><path class="cls-2" d="M423.9,118.5a1.2,1.2,0,0,0,.4.8"/><line class="cls-2" x1="425.2" y1="117.8" x2="423.9" y2="118.5"/><path class="cls-2" d="M425.6,118.5l1.3.8"/><path class="cls-2" d="M429.9,122.5h.3"/><line class="cls-2" x1="430.3" y1="116.7" x2="429.1" y2="117.4"/><path class="cls-2" d="M429.1,117.6v-.2"/><path class="cls-2" d="M430.3,116.7l9.9,5.7"/><line class="cls-2" x1="440.2" y1="122.4" x2="438.9" y2="123.1"/><path class="cls-2" d="M440.2,122.4h0"/><line class="cls-2" x1="440.2" y1="122.5" x2="438.9" y2="123.2"/><path class="cls-2" d="M438.9,123.1h0"/><path class="cls-2" d="M440.2,122.5l-1.2,3.3"/><line class="cls-2" x1="439" y1="125.8" x2="437.7" y2="126.5"/><path class="cls-2" d="M438.9,123.2l-1.2,3.3"/><path class="cls-2" d="M439,125.8a1,1,0,0,0,.4.7"/><path class="cls-2" d="M437.7,126.5a.8.8,0,0,0,.4.7"/><path class="cls-2" d="M439.4,126.5l1.3.7"/><path class="cls-2" d="M421.4,122.6l-.5-.2"/><path class="cls-2" d="M420.9,121.1l.5.2"/><path class="cls-2" d="M421.4,115.3l-.5-.3"/><path class="cls-2" d="M420.9,115v-2.3"/><path class="cls-2" d="M422.2,112l4.2,2.4"/><line class="cls-2" x1="426.4" y1="114.4" x2="425.1" y2="115.2"/><path class="cls-2" d="M426.4,114.4v.2"/><line class="cls-2" x1="426.4" y1="114.6" x2="425.1" y2="115.3"/><path class="cls-2" d="M425.1,115.2h0"/><path class="cls-2" d="M426.4,114.6l-1.2,3.2"/><path class="cls-2" d="M425.1,115.3l-1.2,3.2"/><path class="cls-2" d="M440.7,127.2a1.9,1.9,0,0,0,.1.8"/><line class="cls-2" x1="440.7" y1="127.2" x2="440" y2="127.6"/><line class="cls-2" x1="429.9" y1="121" x2="429.2" y2="121.4"/><line class="cls-2" x1="426.2" y1="119.6" x2="426.9" y2="119.3"/><path class="cls-2" d="M429.9,121h.1"/><path class="cls-2" d="M453.2,134.4a.8.8,0,0,1-.5-.7"/><line class="cls-2" x1="452.7" y1="133.7" x2="451.5" y2="134.4"/><path class="cls-2" d="M451.9,135.2a1.2,1.2,0,0,1-.4-.8"/><path class="cls-2" d="M452.7,133.7l1.2-3.2"/><line class="cls-2" x1="453.9" y1="130.5" x2="452.7" y2="131.2"/><path class="cls-2" d="M451.5,134.4l1.2-3.2"/><path class="cls-2" d="M453.9,130.5v-.2"/><line class="cls-2" x1="454" y1="130.3" x2="452.7" y2="131.1"/><path class="cls-2" d="M452.7,131.2h0"/><path class="cls-2" d="M454,130.3l-9.9-5.6"/><line class="cls-2" x1="444.1" y1="124.7" x2="442.8" y2="125.4"/><path class="cls-2" d="M442.8,125.4h.1"/><path class="cls-2" d="M444.1,130.2a.2.2,0,0,1-.2.2"/><line class="cls-2" x1="463.4" y1="166.8" x2="462.1" y2="167.5"/><path class="cls-2" d="M463.4,166.8V146.4"/><path class="cls-2" d="M462.1,135l-4.2-2.4"/><line class="cls-2" x1="457.9" y1="132.6" x2="456.6" y2="133.3"/><path class="cls-2" d="M456.6,133.3v.2"/><line class="cls-2" x1="443.6" y1="128.9" x2="443" y2="129.3"/><path class="cls-2" d="M454.4,135.2a2.4,2.4,0,0,0,.2.8"/><line class="cls-2" x1="454.4" y1="135.2" x2="453.8" y2="135.6"/><path class="cls-2" d="M454.4,135.2l-1.2-.8"/><line class="cls-2" x1="462.7" y1="139.4" x2="462.7" y2="143.5"/><line class="cls-2" x1="462.7" y1="143.5" x2="462.1" y2="143.8"/><line class="cls-2" x1="462.7" y1="139.4" x2="462.1" y2="139.8"/><path class="cls-2" d="M430.2,122.5a.4.4,0,0,0,.1-.3"/><path class="cls-2" d="M443.9,130.4h-.3"/><path class="cls-2" d="M443.8,129h-.2"/><path class="cls-2" d="M427,120.1a2.2,2.2,0,0,1-.1-.8"/><path class="cls-2" d="M419.7,132.4v-.2"/><path class="cls-2" d="M432.5,139.8l2.5,1.5"/><path class="cls-2" d="M424.5,138.9l-.6-2.4"/><path class="cls-2" d="M432.5,141.3l1.2.7"/><line class="cls-2" x1="336.9" y1="159.8" x2="338.2" y2="160.5"/><path class="cls-2" d="M336.9,159.8l-4.2,2.4"/><line class="cls-2" x1="332.7" y1="162.2" x2="334" y2="162.9"/><path class="cls-2" d="M349,152.8l14.1-8.1"/><line class="cls-2" x1="364.4" y1="145.4" x2="363.1" y2="144.7"/><line class="cls-2" x1="379.4" y1="135.3" x2="380.6" y2="136"/><line class="cls-2" x1="375.1" y1="137.7" x2="376.4" y2="138.5"/><path class="cls-2" d="M391.4,128.3l11.8-6.8"/><path class="cls-2" d="M404.5,122.2v.5"/><line class="cls-2" x1="404" y1="121.5" x2="405.3" y2="122.2"/><path class="cls-2" d="M404.5,122.7l.8-.5"/><path class="cls-2" d="M404,121.5v-1.9"/><line class="cls-2" x1="404" y1="119.6" x2="405.3" y2="120.3"/><path class="cls-2" d="M405.3,122.2v-1.9"/><path class="cls-2" d="M404,119.6l4.3-2.5"/><line class="cls-2" x1="408.3" y1="117.1" x2="409.6" y2="117.8"/><path class="cls-2" d="M409.6,119.8l.8-.5"/><path class="cls-2" d="M410.4,119.3v-.5"/><path class="cls-2" d="M412.9,117.3v.5"/><line class="cls-2" x1="412.5" y1="116.6" x2="413.8" y2="117.3"/><path class="cls-2" d="M412.9,117.8l.9-.5"/><path class="cls-2" d="M412.5,116.6v-1.9"/><line class="cls-2" x1="412.5" y1="114.7" x2="413.8" y2="115.4"/><path class="cls-2" d="M413.8,117.3v-1.9"/><path class="cls-2" d="M412.5,114.7l4.3-2.5"/><line class="cls-2" x1="416.8" y1="112.2" x2="418" y2="112.9"/><path class="cls-2" d="M418,114.9l.9-.5"/><path class="cls-2" d="M418.9,114.4v-.5"/><line class="cls-2" x1="420.9" y1="111.3" x2="422.2" y2="112"/><path class="cls-2" d="M420.5,124.6l.4-.3"/><path class="cls-2" d="M420.9,124.3v7.2"/><path class="cls-2" d="M420.9,120.1c0,.1.1.1.1.2"/><path class="cls-2" d="M292.4,185.5l2.1-1.2"/><line class="cls-2" x1="294.5" y1="184.3" x2="295.8" y2="185"/><path class="cls-2" d="M320.7,169.2l-14.2,8.1"/><line class="cls-2" x1="322" y1="169.9" x2="320.7" y2="169.2"/><line class="cls-2" x1="307.8" y1="178.1" x2="306.5" y2="177.3"/><path class="cls-2" d="M421,120.3h.3"/><path class="cls-2" d="M403.6,121.8l.4-.3"/><line class="cls-2" x1="409.6" y1="118.8" x2="410.4" y2="119.3"/><line class="cls-2" x1="409.6" y1="118.3" x2="410.4" y2="118.8"/><path class="cls-2" d="M409.6,117.8l2.1-1.2"/><path class="cls-2" d="M412.1,116.9l.4-.3"/><line class="cls-2" x1="418" y1="113.9" x2="418.9" y2="114.4"/><line class="cls-2" x1="418" y1="113.4" x2="418.9" y2="113.9"/><path class="cls-2" d="M418,112.9l2.9-1.6"/><line class="cls-2" x1="420.5" y1="124.1" x2="420.9" y2="124.3"/><path class="cls-2" d="M392.7,129.1l.8-.5"/><path class="cls-2" d="M418.9,113.9l2-1.2"/><path class="cls-2" d="M420.9,123.3l.5.3"/><path class="cls-2" d="M420.9,116l.5.2"/><line class="cls-2" x1="421.4" y1="115.5" x2="421.3" y2="115.5"/><line class="cls-2" x1="340.6" y1="196.5" x2="340.6" y2="197"/><line class="cls-2" x1="372.4" y1="178.6" x2="372.4" y2="178.2"/><line class="cls-2" x1="89.6" y1="372.9" x2="88.3" y2="372.2"/><line class="cls-2" x1="107.3" y1="331.7" x2="106.8" y2="331.5"/><line class="cls-2" x1="110.9" y1="329.6" x2="110.9" y2="329.1"/><polyline class="cls-2" points="111.7 328.7 111.7 329.1 111.7 329.1"/><line class="cls-2" x1="117.9" y1="325.1" x2="117.9" y2="325.6"/><line class="cls-2" x1="117.9" y1="325.6" x2="117.4" y2="325.4"/><line class="cls-2" x1="121.5" y1="323.5" x2="121.5" y2="323"/><polyline class="cls-2" points="122.3 322.5 122.3 323 122.3 323"/><line class="cls-2" x1="132.1" y1="316.9" x2="132.1" y2="317.4"/><line class="cls-2" x1="128.5" y1="319.5" x2="128.5" y2="319"/><line class="cls-2" x1="142.7" y1="310.8" x2="142.7" y2="311.3"/><line class="cls-2" x1="139.1" y1="313.4" x2="138.7" y2="313.1"/><line class="cls-2" x1="139.1" y1="313.4" x2="139.1" y2="312.9"/><line class="cls-2" x1="174.5" y1="292.4" x2="174.5" y2="292.9"/><line class="cls-2" x1="185.1" y1="286.3" x2="185.1" y2="286.8"/><line class="cls-2" x1="181.5" y1="288.9" x2="181.1" y2="288.6"/><line class="cls-2" x1="181.5" y1="288.9" x2="181.5" y2="288.4"/><line class="cls-2" x1="149.7" y1="307.2" x2="149.3" y2="307"/><line class="cls-2" x1="153.3" y1="305.1" x2="153.3" y2="304.7"/><polyline class="cls-2" points="154.1 304.2 154.1 304.7 154.1 304.7"/><line class="cls-2" x1="160.3" y1="300.6" x2="160.3" y2="301.1"/><line class="cls-2" x1="160.3" y1="301.1" x2="159.9" y2="300.9"/><line class="cls-2" x1="163.9" y1="299" x2="163.9" y2="298.5"/><line class="cls-2" x1="164.7" y1="298" x2="164.7" y2="298.5"/><line class="cls-2" x1="195.7" y1="280.2" x2="195.7" y2="280.7"/><path class="cls-2" d="M62.3,324.6v.2"/><path class="cls-2" d="M61,325.4h0"/><path class="cls-2" d="M61.1,328a1.2,1.2,0,0,0,.4.8"/><path class="cls-2" d="M65.7,332.7c.1,0,.2.1.3,0"/><line class="cls-2" x1="66.2" y1="326.9" x2="64.9" y2="327.7"/><path class="cls-2" d="M65,327.8a.1.1,0,0,1-.1-.1"/><line class="cls-2" x1="76.1" y1="332.6" x2="74.8" y2="333.3"/><path class="cls-2" d="M76.1,332.6H76"/><line class="cls-2" x1="76" y1="332.7" x2="74.8" y2="333.5"/><path class="cls-2" d="M74.8,333.3v.2"/><path class="cls-2" d="M76,332.7,74.8,336"/><path class="cls-2" d="M79.5,340.6h.3"/><path class="cls-2" d="M78.7,335.8v-.2"/><line class="cls-2" x1="89.8" y1="340.6" x2="88.6" y2="341.3"/><path class="cls-2" d="M89.8,340.6h0"/><line class="cls-2" x1="89.8" y1="340.7" x2="88.5" y2="341.4"/><path class="cls-2" d="M88.6,341.3h-.1"/><path class="cls-2" d="M89.8,340.7l-1.2,3.2"/><line class="cls-2" x1="88.6" y1="343.9" x2="87.4" y2="344.7"/><path class="cls-2" d="M88.5,341.4c-.4,1.1-.8,2.2-1.1,3.3"/><path class="cls-2" d="M88.6,343.9a1.2,1.2,0,0,0,.4.8"/><path class="cls-2" d="M87.4,344.7c0,.2.1.6.4.7"/><path class="cls-2" d="M89,344.7l1.3.7"/><path class="cls-2" d="M92.5,343.7h0"/><path class="cls-2" d="M93.8,342.8l4.2,2.5"/><line class="cls-2" x1="99.2" y1="355.8" x2="98.4" y2="356.3"/><path class="cls-2" d="M88.3,372.2l-.9-.6"/><path class="cls-2" d="M56.8,339.5a.5.5,0,0,1,.4.2"/><path class="cls-2" d="M57.2,332l-.4-.2"/><line class="cls-2" x1="58.1" y1="322.2" x2="56.8" y2="323"/><path class="cls-2" d="M90.3,345.4a1.9,1.9,0,0,0,.2.8"/><line class="cls-2" x1="90.3" y1="345.4" x2="89.7" y2="345.8"/><line class="cls-2" x1="65.7" y1="331.2" x2="65.1" y2="331.6"/><line class="cls-2" x1="62.1" y1="329.9" x2="62.8" y2="329.5"/><path class="cls-2" d="M65.7,331.2h.2"/><line class="cls-2" x1="79.5" y1="339.2" x2="78.9" y2="339.5"/><line class="cls-2" x1="75.9" y1="337.8" x2="76.5" y2="337.5"/><path class="cls-2" d="M79.5,339.2h.1"/><path class="cls-2" d="M66,332.7c.1,0,.2-.2.2-.3"/><path class="cls-2" d="M79.8,340.7a.4.4,0,0,0,.1-.3"/><path class="cls-2" d="M62.9,330.3a2.2,2.2,0,0,1-.1-.8"/><path class="cls-2" d="M76.7,338.3a3.1,3.1,0,0,1-.2-.8"/><line class="cls-2" x1="84" y1="336.1" x2="84" y2="336.6"/><line class="cls-2" x1="84" y1="336.6" x2="83.2" y2="336.1"/><line class="cls-2" x1="83.2" y1="336.1" x2="83.6" y2="335.8"/><line class="cls-2" x1="83.2" y1="336.1" x2="83.2" y2="335.6"/><line class="cls-2" x1="68.2" y1="326.9" x2="68.2" y2="327.4"/><line class="cls-2" x1="68.2" y1="327.4" x2="68.6" y2="327.2"/><line class="cls-2" x1="68.2" y1="327.4" x2="69" y2="327.9"/><line class="cls-2" x1="69" y1="325.9" x2="70.3" y2="325.2"/><line class="cls-2" x1="60.3" y1="323.5" x2="60.3" y2="322.4"/><line class="cls-2" x1="93.2" y1="346.2" x2="93.2" y2="346.6"/><line class="cls-2" x1="192.1" y1="282.7" x2="192.1" y2="282.2"/><line class="cls-2" x1="66.1" y1="316.1" x2="67.4" y2="316.8"/><path class="cls-2" d="M66.1,316.1l-11.3,6.6"/><path class="cls-2" d="M55.6,323.7v.4"/><path class="cls-2" d="M55.6,324.1l-.8.5"/><line class="cls-2" x1="53.5" y1="321.9" x2="54.8" y2="322.7"/><path class="cls-2" d="M53.5,321.9l-4.3,2.5"/><line class="cls-2" x1="49.2" y1="324.4" x2="50.5" y2="325.1"/><path class="cls-2" d="M49.2,324.4v2"/><line class="cls-2" x1="49.2" y1="326.4" x2="50.5" y2="327.1"/><path class="cls-2" d="M50.5,325.1v2"/><path class="cls-2" d="M49.2,326.4l-.4.2"/><path class="cls-2" d="M50.5,327.1l-.8.5"/><path class="cls-2" d="M49.7,327.6v-.5"/><path class="cls-2" d="M48.4,326.4l-2.1,1.2"/><path class="cls-2" d="M47.1,328.6v.4"/><path class="cls-2" d="M47.1,329l-.8.5"/><line class="cls-2" x1="45" y1="326.8" x2="46.3" y2="327.6"/><path class="cls-2" d="M45,326.8l-4.2,2.5"/><line class="cls-2" x1="40.8" y1="329.3" x2="42" y2="330"/><path class="cls-2" d="M40.8,329.3v2"/><line class="cls-2" x1="40.8" y1="331.3" x2="42" y2="332"/><path class="cls-2" d="M42,330v2"/><path class="cls-2" d="M40.8,331.3l-.5.2"/><path class="cls-2" d="M42,332l-.8.5"/><path class="cls-2" d="M41.2,332.5V332"/><path class="cls-2" d="M39.9,331.3l-3.3,1.9"/><line class="cls-2" x1="36.6" y1="333.2" x2="37.9" y2="333.9"/><path class="cls-2" d="M36.6,333.2v10.6"/><line class="cls-2" x1="36.6" y1="343.8" x2="37.9" y2="344.5"/><line class="cls-2" x1="56.8" y1="333.7" x2="56.4" y2="333.5"/><line class="cls-2" x1="56.4" y1="337.7" x2="56.8" y2="337.5"/><line class="cls-2" x1="56.8" y1="333.7" x2="56.4" y2="334"/><path class="cls-2" d="M78.2,309.2l4.2-2.5"/><line class="cls-2" x1="82.4" y1="306.7" x2="83.7" y2="307.5"/><path class="cls-2" d="M108.6,291.6l-14.2,8.2"/><line class="cls-2" x1="109.8" y1="292.3" x2="108.6" y2="291.6"/><line class="cls-2" x1="95.7" y1="300.5" x2="94.4" y2="299.8"/><line class="cls-2" x1="165.1" y1="259" x2="166.4" y2="259.7"/><path class="cls-2" d="M165.1,259l-2.1,1.2"/><line class="cls-2" x1="163" y1="260.2" x2="164.3" y2="260.9"/><line class="cls-2" x1="120.6" y1="284.7" x2="121.9" y2="285.4"/><path class="cls-2" d="M120.6,284.7l4.2-2.5"/><path class="cls-2" d="M136.8,275.3l14.2-8.2"/><line class="cls-2" x1="152.3" y1="267.9" x2="151" y2="267.1"/><line class="cls-2" x1="54.8" y1="323.2" x2="55.6" y2="323.7"/><line class="cls-2" x1="54.8" y1="323.7" x2="55.6" y2="324.1"/><line class="cls-2" x1="46.3" y1="328.1" x2="47.1" y2="328.6"/><line class="cls-2" x1="46.3" y1="328.6" x2="47.1" y2="329"/><line class="cls-2" x1="56.4" y1="342" x2="56.8" y2="342.2"/><line class="cls-2" x1="56" y1="342.2" x2="56.8" y2="342.7"/><path class="cls-2" d="M55.5,342.5h0"/><path class="cls-2" d="M56.8,332.8l.4.2"/><path class="cls-2" d="M56.8,323l-1.2.7"/><line class="cls-2" x1="56.8" y1="338.5" x2="56.4" y2="338.7"/><line class="cls-2" x1="414" y1="154.1" x2="414" y2="154.6"/><line class="cls-2" x1="403.4" y1="160.3" x2="403.4" y2="160.8"/><line class="cls-2" x1="396.8" y1="164.6" x2="396.8" y2="164.6"/><line class="cls-2" x1="360.9" y1="184.8" x2="360.9" y2="185.3"/><line class="cls-2" x1="422.2" y1="112" x2="420.9" y2="112.7"/><path class="cls-2" d="M456.6,133.5c.3.9.5,1.9.8,2.8"/><path class="cls-2" d="M350.2,153.6l.9-.5"/><path class="cls-2" d="M364.4,145.4v.5"/><path class="cls-2" d="M295.8,185v.5"/><line class="cls-2" x1="128.5" y1="319.5" x2="128" y2="319.2"/><line class="cls-2" x1="127.6" y1="319.5" x2="127.6" y2="320"/><line class="cls-2" x1="138.2" y1="313.4" x2="138.2" y2="313.8"/><line class="cls-2" x1="170" y1="295" x2="170" y2="295.5"/><line class="cls-2" x1="191.3" y1="282.7" x2="191.3" y2="283.2"/><path class="cls-2" d="M98,362.2l-.5-.2"/><path class="cls-2" d="M37.9,344.5l.4-.2"/><path class="cls-2" d="M79.4,309.9l.9-.5"/><path class="cls-2" d="M121.9,285.4l.8-.5"/><path class="cls-2" d="M126.1,283v.4"/><path class="cls-2" d="M138.1,276l.9-.5"/><path class="cls-2" d="M152.3,267.9v.4"/><path class="cls-2" d="M95.7,300.5l.4.3"/><path class="cls-2" d="M121.9,285.4l.4.3"/><path class="cls-2" d="M70.3,325.2l.4-.2"/><path class="cls-2" d="M164.3,260.9l.4.3"/><line class="cls-2" x1="207.2" y1="274" x2="207.2" y2="273.5"/><line class="cls-2" x1="99.2" y1="355.8" x2="99.2" y2="355.3"/><line class="cls-2" x1="302.6" y1="218.9" x2="302.6" y2="218.4"/><path class="cls-2" d="M185.5,286l.5.3"/><path class="cls-2" d="M174.9,292.2l.4.2"/><path class="cls-2" d="M143.1,310.5l.4.3"/><path class="cls-2" d="M132.5,316.7l.4.2"/><path class="cls-2" d="M164.3,298.3l.4.2"/><path class="cls-2" d="M153.7,304.4l.4.3"/><path class="cls-2" d="M121.9,322.8l.4.2"/><path class="cls-2" d="M111.3,328.9l.4.2"/><path class="cls-2" d="M67.4,316.8l.4.3"/><path class="cls-2" d="M196.1,279.9l.5.3"/><path class="cls-2" d="M364.4,145.4l.4.2"/><path class="cls-2" d="M407.2,130.7l-.5.3"/><path class="cls-2" d="M380.6,136l.5.2"/><path class="cls-2" d="M338.2,160.5l.4.2"/><path class="cls-2" d="M322,169.9l.4.2"/><path class="cls-2" d="M295.8,185l.4.2"/><path class="cls-2" d="M37.9,344.5l.4.3"/><line class="cls-2" x1="419.3" y1="151.6" x2="419.3" y2="151.1"/><line class="cls-2" x1="376.9" y1="176.1" x2="376.9" y2="175.6"/><line class="cls-2" x1="366.2" y1="182.2" x2="366.2" y2="181.7"/><path class="cls-2" d="M440.9,144.7l2.2,1.3"/><line class="cls-2" x1="451.5" y1="161.4" x2="462.1" y2="167.5"/><path class="cls-2" d="M292.4,189.9h0"/><line class="cls-2" x1="329.9" y1="165.3" x2="326.8" y2="167.1"/><path class="cls-2" d="M386.1,132.8l-3.1,1.8"/><line class="cls-2" x1="343.7" y1="157.3" x2="340.6" y2="159.1"/><line class="cls-2" x1="369.2" y1="142.6" x2="372.3" y2="140.8"/><path class="cls-2" d="M298.2,183.6l3.1-1.8"/><path class="cls-2" d="M399.7,125l2.3-1.3"/><polyline class="cls-2" points="132.9 316.9 132.9 316.9 132.9 316.4"/><polyline class="cls-2" points="143.5 310.8 143.5 310.8 143.5 310.3"/><polyline class="cls-2" points="175.3 292.4 175.3 292.4 175.3 291.9"/><line class="cls-2" x1="170.9" y1="295" x2="170.5" y2="294.7"/><line class="cls-2" x1="170.9" y1="295" x2="170.9" y2="294.5"/><polyline class="cls-2" points="186 286.3 186 286.3 186 285.8"/><polyline class="cls-2" points="196.6 280.2 196.6 280.2 196.6 279.7"/><line class="cls-2" x1="96.7" y1="368.8" x2="89.6" y2="372.9"/><path class="cls-2" d="M98.8,355.5l.4.3"/><line class="cls-2" x1="124.8" y1="282.2" x2="126.1" y2="283"/><line class="cls-2" x1="89.1" y1="304.3" x2="86.1" y2="306.1"/><path class="cls-2" d="M160.2,263.3a30.7,30.7,0,0,1-3.1,1.7"/><path class="cls-2" d="M72.3,314a30.7,30.7,0,0,1,3.1-1.7"/><line class="cls-2" x1="128.5" y1="281.6" x2="131.6" y2="279.8"/><line class="cls-2" x1="114.7" y1="289.5" x2="117.8" y2="287.8"/><path class="cls-2" d="M161.9,263.8,158,266"/><line class="cls-2" x1="408.7" y1="157.7" x2="408.7" y2="157.2"/><line class="cls-2" x1="392.8" y1="166.9" x2="392.8" y2="166.4"/><line class="cls-2" x1="382.2" y1="173" x2="382.2" y2="172.5"/><line class="cls-2" x1="350.3" y1="191.4" x2="350.3" y2="190.9"/><line class="cls-2" x1="339.7" y1="197.5" x2="339.7" y2="197"/><path class="cls-2" d="M440.9,146.1l1,.6"/><path class="cls-2" d="M402,126.3v-2.6"/><path class="cls-2" d="M462.1,148.1v-1"/><line class="cls-2" x1="460.8" y1="135.8" x2="460.8" y2="135.8"/><line class="cls-2" x1="462.4" y1="139.2" x2="462.7" y2="139.4"/><path class="cls-2" d="M338.2,161v-.5"/><path class="cls-2" d="M334.8,162.5l-.8.4"/><path class="cls-2" d="M359.1,148.5l.8-.5"/><path class="cls-2" d="M380.6,136.5V136"/><path class="cls-2" d="M377.2,138l-.8.5"/><path class="cls-2" d="M322,170.4v-.5"/><path class="cls-2" d="M308.7,177.6l-.9.5"/><path class="cls-2" d="M317.5,172.5l-.8.4"/><line class="cls-2" x1="331.6" y1="165.8" x2="327.6" y2="168.1"/><line class="cls-2" x1="370.1" y1="143.6" x2="374" y2="141.3"/><path class="cls-2" d="M387.8,133.3c-1.3.8-2.6,1.6-4,2.3"/><path class="cls-2" d="M299,184.6l4-2.3"/><line class="cls-2" x1="345.4" y1="157.8" x2="341.4" y2="160.1"/><line class="cls-2" x1="88.3" y1="371.1" x2="88.3" y2="372.2"/><line class="cls-2" x1="106.4" y1="332.2" x2="106.4" y2="331.7"/><line class="cls-2" x1="159.4" y1="301.6" x2="159.4" y2="301.1"/><path class="cls-2" d="M56.8,347.9v-3.5"/><line class="cls-2" x1="162.1" y1="266" x2="162.1" y2="263.8"/><path class="cls-2" d="M67.4,317.3v-.5"/><path class="cls-2" d="M60.3,320.9l-2.2,1.3"/><path class="cls-2" d="M37.9,341.3v.9"/><path class="cls-2" d="M109.8,292.8v-.5"/><path class="cls-2" d="M96.5,300l-.8.5"/><path class="cls-2" d="M105.4,294.9l-.9.5"/><path class="cls-2" d="M165.1,260.4l-.8.5"/><path class="cls-2" d="M147,270.9l.8-.5"/><path class="cls-2" d="M73.1,315l4-2.3"/><line class="cls-2" x1="90.8" y1="304.8" x2="86.9" y2="307.1"/><line class="cls-2" x1="129.3" y1="282.6" x2="133.3" y2="280.3"/><line class="cls-2" x1="115.5" y1="290.5" x2="119.5" y2="288.3"/><path class="cls-2" d="M407.6,131.5l.4-.3"/><line class="cls-2" x1="313.1" y1="175.5" x2="313.1" y2="175"/><line class="cls-2" x1="351.2" y1="190.9" x2="350.8" y2="190.6"/><line class="cls-2" x1="371.6" y1="178.6" x2="371.6" y2="179.1"/><line class="cls-2" x1="407.2" y1="131.2" x2="407.2" y2="130.7"/><line class="cls-2" x1="180.7" y1="288.9" x2="180.7" y2="289.3"/><line class="cls-2" x1="192.1" y1="282.7" x2="191.7" y2="282.5"/><path class="cls-2" d="M83.7,307.5v.4"/><path class="cls-2" d="M326.5,205.2V197"/><line class="cls-2" x1="326.5" y1="197" x2="325.2" y2="196.3"/><line class="cls-2" x1="318.5" y1="209.3" x2="319.4" y2="208.8"/><line class="cls-2" x1="323" y1="207.2" x2="323" y2="206.7"/><line class="cls-2" x1="323" y1="206.7" x2="323.8" y2="206.2"/><line class="cls-2" x1="217.8" y1="267.4" x2="216.9" y2="267.9"/><line class="cls-2" x1="213.3" y1="270.5" x2="212.9" y2="270.2"/><line class="cls-2" x1="213.3" y1="270" x2="212.5" y2="270.5"/><line class="cls-2" x1="228.4" y1="261.3" x2="227.5" y2="261.8"/><line class="cls-2" x1="223.9" y1="263.9" x2="223.1" y2="264.4"/><line class="cls-2" x1="207.2" y1="273.5" x2="206.3" y2="274"/><line class="cls-2" x1="202.7" y1="276.1" x2="201.9" y2="276.6"/><line class="cls-2" x1="249.6" y1="249.1" x2="248.7" y2="249.5"/><line class="cls-2" x1="245.1" y1="251.6" x2="244.3" y2="252.1"/><line class="cls-2" x1="239" y1="255.2" x2="238.1" y2="255.7"/><line class="cls-2" x1="234.5" y1="258.2" x2="234.5" y2="257.8"/><line class="cls-2" x1="234.5" y1="257.8" x2="233.7" y2="258.2"/><line class="cls-2" x1="260.2" y1="242.9" x2="259.3" y2="243.4"/><line class="cls-2" x1="255.7" y1="245.5" x2="254.9" y2="246"/><line class="cls-2" x1="270.8" y1="236.8" x2="270" y2="237.3"/><line class="cls-2" x1="266.3" y1="239.4" x2="265.5" y2="239.9"/><line class="cls-2" x1="292" y1="224.6" x2="291.2" y2="225.1"/><line class="cls-2" x1="287.6" y1="227.1" x2="286.7" y2="227.6"/><line class="cls-2" x1="281.4" y1="230.7" x2="280.6" y2="231.2"/><line class="cls-2" x1="277" y1="233.8" x2="277" y2="233.3"/><line class="cls-2" x1="277" y1="233.3" x2="276.1" y2="233.8"/><line class="cls-2" x1="302.6" y1="218.4" x2="301.8" y2="218.9"/><line class="cls-2" x1="298.2" y1="221" x2="297.3" y2="221.5"/><line class="cls-2" x1="313.2" y1="212.3" x2="312.4" y2="212.8"/><line class="cls-2" x1="308.8" y1="214.9" x2="307.9" y2="215.4"/><path class="cls-2" d="M199.2,270.5,326.5,197"/><path class="cls-2" d="M197.9,269.7l127.3-73.4"/><path class="cls-2" d="M269.8,200l.9-.5"/><path class="cls-2" d="M278.7,194.9l.8-.5"/><path class="cls-2" d="M227.4,224.5l.9-.5"/><path class="cls-2" d="M236.3,219.4l.8-.5"/><path class="cls-2" d="M210.9,234l-.8.5"/><path class="cls-2" d="M185,249l.8-.5"/><path class="cls-2" d="M193.8,243.9l.9-.5"/><line class="cls-2" x1="168.5" y1="258.5" x2="167.7" y2="259"/><path class="cls-2" d="M253.4,209.5l-.9.5"/><path class="cls-2" d="M202.6,238.8l-3.1,1.8"/><polyline class="cls-2" points="170.9 257.1 173.1 255.9 174 255.3"/><line class="cls-2" x1="213.3" y1="232.6" x2="216.4" y2="230.8"/><path class="cls-2" d="M136.8,275.3a9.5,9.5,0,0,1,1.7,1"/><path class="cls-2" d="M138.5,276.3l.9-.5"/><path class="cls-2" d="M139,275.5l3.6-2.1"/><path class="cls-2" d="M143,273.7l.8-.5"/><path class="cls-2" d="M147.4,271.2l.8-.5"/><path class="cls-2" d="M147.8,270.4l3.6-2.1"/><path class="cls-2" d="M151.8,268.6l.9-.5"/><line class="cls-2" x1="143.4" y1="273" x2="147" y2="270.9"/><path class="cls-2" d="M96.1,300.8l.9-.5"/><path class="cls-2" d="M96.5,300l3.7-2.1"/><path class="cls-2" d="M100.6,298.2l.8-.5"/><path class="cls-2" d="M105,295.7l.8-.5"/><path class="cls-2" d="M105.4,294.9l3.6-2.1"/><path class="cls-2" d="M109.4,293.1l.9-.5"/><line class="cls-2" x1="101" y1="297.5" x2="104.5" y2="295.4"/><path class="cls-2" d="M114,288.6l2.2,2.7"/><path class="cls-2" d="M122.5,287.6l-4.6-1.2"/><line class="cls-2" x1="117.9" y1="286.4" x2="117.9" y2="287.8"/><path class="cls-2" d="M121.4,288.8l-3.5-1"/><path class="cls-2" d="M122.3,285.7l.8-.5"/><path class="cls-2" d="M122.7,284.9l2.6-1.5"/><path class="cls-2" d="M125.7,283.7l.8-.5"/><path class="cls-2" d="M127.7,280.7l2.3,2.6"/><path class="cls-2" d="M136.3,279.7l-4.6-1.3"/><line class="cls-2" x1="131.7" y1="278.4" x2="131.7" y2="279.9"/><path class="cls-2" d="M135.2,280.8l-3.5-.9"/><path class="cls-2" d="M118.3,290.6a3.5,3.5,0,0,0,2,.3l1-.4a.9.9,0,0,0,.6-.8"/><path class="cls-2" d="M121.3,288.9l1.2-.8"/><path class="cls-2" d="M132.1,282.6a2.8,2.8,0,0,0,2,.3,1.7,1.7,0,0,0,1-.3c.3-.2.6-.5.6-.8"/><path class="cls-2" d="M135,280.9l1.3-.7"/><path class="cls-2" d="M71.5,313.1l2.3,2.7"/><path class="cls-2" d="M80.1,312.1l-4.6-1.3"/><line class="cls-2" x1="75.5" y1="310.8" x2="75.5" y2="312.3"/><path class="cls-2" d="M79,313.3l-3.5-1"/><path class="cls-2" d="M78.2,309.2l1.7.9"/><path class="cls-2" d="M79.9,310.1l.8-.4"/><path class="cls-2" d="M80.3,309.4l2.5-1.5"/><path class="cls-2" d="M83.3,308.2l.8-.5"/><path class="cls-2" d="M85.3,305.2l2.2,2.6"/><path class="cls-2" d="M93.9,304.2l-4.6-1.3"/><line class="cls-2" x1="89.3" y1="302.9" x2="89.3" y2="304.4"/><path class="cls-2" d="M92.7,305.3l-3.4-.9"/><path class="cls-2" d="M75.9,315.1a3.5,3.5,0,0,0,2,.3l1-.4a.9.9,0,0,0,.6-.8"/><path class="cls-2" d="M78.8,313.3l1.3-.7"/><path class="cls-2" d="M89.7,307.1a3.3,3.3,0,0,0,2,.3,1.9,1.9,0,0,0,1-.3,1.1,1.1,0,0,0,.5-.9"/><path class="cls-2" d="M92.6,305.4l1.3-.7"/><line class="cls-2" x1="67.8" y1="317.1" x2="67" y2="317.6"/><line class="cls-2" x1="66.6" y1="317.3" x2="60.3" y2="320.9"/><line class="cls-2" x1="60.3" y1="320.9" x2="69" y2="325.9"/><line class="cls-2" x1="60.3" y1="322.4" x2="69" y2="327.4"/><path class="cls-2" d="M83.6,332.9l.4-.3"/><line class="cls-2" x1="84" y1="332.6" x2="84" y2="333.1"/><path class="cls-2" d="M84,332.6l.9.5"/><path class="cls-2" d="M84.9,333.1l-1.7,1"/><line class="cls-2" x1="83.2" y1="334.1" x2="83.2" y2="335.6"/><line class="cls-2" x1="83.2" y1="334.1" x2="91.9" y2="339.1"/><line class="cls-2" x1="83.2" y1="335.6" x2="91.9" y2="340.6"/><line class="cls-2" x1="174" y1="253.8" x2="174" y2="255.3"/><path class="cls-2" d="M206.7,273.8l.5.2"/><path class="cls-2" d="M156.4,264.2l2.2,2.6"/><path class="cls-2" d="M165,263.6a.3.3,0,0,0,.1-.2"/><path class="cls-2" d="M165,263.1l-4.6-1.2"/><line class="cls-2" x1="160.4" y1="261.9" x2="160.4" y2="263.3"/><path class="cls-2" d="M163.8,264.3l-3.4-1"/><path class="cls-2" d="M164.7,261.2l.9-.5"/><path class="cls-2" d="M165.1,260.4l2.6-1.4"/><path class="cls-2" d="M168.1,259.2l.8-.5"/><path class="cls-2" d="M170.2,256.2l2.2,2.7"/><path class="cls-2" d="M178.7,255.2l-4.6-1.3"/><line class="cls-2" x1="174.1" y1="253.9" x2="174.1" y2="255.4"/><path class="cls-2" d="M177.6,256.3l-3.5-.9"/><path class="cls-2" d="M160.7,266.1a3.7,3.7,0,0,0,2.1.3l.9-.4a.9.9,0,0,0,.6-.8"/><line class="cls-2" x1="163.7" y1="264.4" x2="163.7" y2="265.1"/><line class="cls-2" x1="163.7" y1="265.1" x2="161.5" y2="266.4"/><path class="cls-2" d="M163.7,264.4l1.3-.8"/><path class="cls-2" d="M174.5,258.1a2.8,2.8,0,0,0,2,.3,1.7,1.7,0,0,0,1-.3c.3-.2.6-.5.6-.8"/><path class="cls-2" d="M177.5,256.4l1.2-.7"/><path class="cls-2" d="M229.9,224.1a.3.3,0,0,0-.3.3"/><path class="cls-2" d="M229.7,224.6l3.5,2"/><path class="cls-2" d="M236.7,228.6l3.4,2"/><path class="cls-2" d="M246.6,231.3l-2.9.8"/><path class="cls-2" d="M243.6,232.6l3.4,2"/><path class="cls-2" d="M247,234.6c.3.1.8.2,1-.1"/><path class="cls-2" d="M248,234.5l1.3-1.6"/><path class="cls-2" d="M250.2,232.8l3.5,2"/><path class="cls-2" d="M253.7,234.8a.2.2,0,0,1,.2.2"/><path class="cls-2" d="M250.5,236.6l2.4,1.4"/><path class="cls-2" d="M221.7,226.3l1.7,1"/><path class="cls-2" d="M223.4,227.3l.8-.5"/><path class="cls-2" d="M223.8,226.5l3.6-2"/><path class="cls-2" d="M227.8,224.7l.9-.5"/><line class="cls-2" x1="228.3" y1="224" x2="230" y2="223"/><path class="cls-2" d="M179.3,250.8l1.7,1"/><path class="cls-2" d="M181,251.8l.8-.5"/><path class="cls-2" d="M181.4,251l3.6-2"/><path class="cls-2" d="M185.4,249.2l.9-.5"/><path class="cls-2" d="M189.8,246.7l.9-.5"/><path class="cls-2" d="M190.2,245.9l3.6-2"/><path class="cls-2" d="M194.3,244.1l.8-.5"/><line class="cls-2" x1="185.8" y1="248.5" x2="189.4" y2="246.4"/><line class="cls-2" x1="216.4" y1="229.3" x2="216.4" y2="230.8"/><path class="cls-2" d="M238.6,255.4l.4.3"/><path class="cls-2" d="M198.8,239.7l2.2,2.6"/><path class="cls-2" d="M207.4,238.6l-4.6-1.2"/><line class="cls-2" x1="202.8" y1="237.4" x2="202.8" y2="238.8"/><path class="cls-2" d="M206.2,239.8l-3.4-1"/><line class="cls-2" x1="202.6" y1="237.3" x2="202.6" y2="238.8"/><path class="cls-2" d="M202.8,238.8h-.2"/><path class="cls-2" d="M207.1,236.7l.9-.5"/><path class="cls-2" d="M207.6,235.9l2.5-1.4"/><path class="cls-2" d="M210.5,234.7l.9-.5"/><path class="cls-2" d="M212.6,231.7l2.2,2.7"/><path class="cls-2" d="M221.2,230.7l-4.6-1.3"/><line class="cls-2" x1="216.6" y1="229.4" x2="216.6" y2="230.9"/><path class="cls-2" d="M220,231.8l-3.4-.9"/><path class="cls-2" d="M203.1,241.6a3.7,3.7,0,0,0,2.1.3l1-.3a1.3,1.3,0,0,0,.5-.9"/><path class="cls-2" d="M206.1,239.9l1.3-.8"/><path class="cls-2" d="M216.9,233.6a3,3,0,0,0,2.1.3,1.6,1.6,0,0,0,.9-.3c.3-.2.6-.5.6-.8"/><path class="cls-2" d="M219.9,231.9l1.3-.7"/><path class="cls-2" d="M121.9,289.7a.9.9,0,0,0-.6-.8"/><path class="cls-2" d="M121.8,290.1a1.2,1.2,0,0,0-.5-.5"/><path class="cls-2" d="M135.6,282.1l-.6-.5"/><path class="cls-2" d="M79.5,314.2c0-.4-.4-.7-.7-.9"/><path class="cls-2" d="M79.4,314.6a1,1,0,0,0-.6-.5"/><path class="cls-2" d="M93.1,306.6c-.1-.2-.3-.3-.5-.5"/><path class="cls-2" d="M165.1,263.4v-.3"/><path class="cls-2" d="M164.3,265.2a.9.9,0,0,0-.6-.8"/><path class="cls-2" d="M164.2,265.6a1.2,1.2,0,0,0-.5-.5"/><path class="cls-2" d="M178,257.6c-.1-.2-.3-.3-.5-.5"/><path class="cls-2" d="M229.6,224.4c0,.1,0,.2.1.2"/><path class="cls-2" d="M250.3,236.4l.2.2"/><path class="cls-2" d="M206.7,240.7a.9.9,0,0,0-.6-.8"/><path class="cls-2" d="M206.6,241.1a1.2,1.2,0,0,0-.5-.5"/><path class="cls-2" d="M220.4,233.1l-.5-.5"/><path class="cls-2" d="M364.8,145.6l-.8.5"/><path class="cls-2" d="M363.5,145.9l-3.6,2.1"/><path class="cls-2" d="M360.3,148.2l-.8.5"/><path class="cls-2" d="M356,150.7l-.9.5"/><path class="cls-2" d="M354.7,151l-3.6,2.1"/><path class="cls-2" d="M351.5,153.3l-.8.5"/><path class="cls-2" d="M350.7,153.8l-1.7-1"/><line class="cls-2" x1="359.1" y1="148.5" x2="355.5" y2="150.5"/><path class="cls-2" d="M391.4,128.3l1.7,1"/><line class="cls-2" x1="393.1" y1="129.3" x2="393.9" y2="128.8"/><line class="cls-2" x1="399.7" y1="125" x2="408.4" y2="130"/><path class="cls-2" d="M406.7,131l.9.5"/><line class="cls-2" x1="408" y1="131.2" x2="420.4" y2="138.4"/><path class="cls-2" d="M420,138.7l.9.4"/><path class="cls-2" d="M420.9,139.1l1.7-.9"/><line class="cls-2" x1="386.2" y1="131.4" x2="386.2" y2="132.9"/><path class="cls-2" d="M386.2,131.4l4.7,1.3"/><path class="cls-2" d="M386.2,132.9l3.5,1"/><path class="cls-2" d="M390.9,133.2l-1.3.7"/><path class="cls-2" d="M384.5,136.4l-2.2-2.7"/><path class="cls-2" d="M381.1,136.2l-.9.5"/><path class="cls-2" d="M379.8,136.5l-2.6,1.5"/><path class="cls-2" d="M377.7,138.2l-.9.5"/><line class="cls-2" x1="372.5" y1="139.4" x2="372.5" y2="140.9"/><path class="cls-2" d="M372.5,139.4l4.6,1.3"/><path class="cls-2" d="M372.5,140.9l3.4.9"/><path class="cls-2" d="M377.1,141.2l-1.3.7"/><path class="cls-2" d="M370.7,144.3l-2.2-2.6"/><path class="cls-2" d="M389.6,134.7a.8.8,0,0,1,.5.5"/><path class="cls-2" d="M375.8,141.9a1.1,1.1,0,0,1,.6.9"/><path class="cls-2" d="M375.8,142.6l.5.5"/><line class="cls-2" x1="343.8" y1="155.9" x2="343.8" y2="157.4"/><path class="cls-2" d="M343.8,155.9l4.6,1.3"/><path class="cls-2" d="M343.8,157.4l3.5,1"/><path class="cls-2" d="M348.4,157.7l-1.2.7"/><path class="cls-2" d="M342.1,160.9l-2.3-2.7"/><path class="cls-2" d="M338.6,160.7l-.8.5"/><path class="cls-2" d="M337.4,161l-2.6,1.5"/><path class="cls-2" d="M335.2,162.7l-.8.5"/><line class="cls-2" x1="330" y1="163.9" x2="330" y2="165.4"/><path class="cls-2" d="M330,163.9l4.6,1.3"/><path class="cls-2" d="M330,165.4l3.5.9"/><path class="cls-2" d="M334.6,165.7l-1.2.7"/><path class="cls-2" d="M328.3,168.8l-2.2-2.6"/><path class="cls-2" d="M347.2,159.2l.5.5"/><path class="cls-2" d="M333.4,166.4a1.1,1.1,0,0,1,.6.9"/><path class="cls-2" d="M333.4,167.1c.2.2.4.3.5.5"/><path class="cls-2" d="M322.4,170.1l-.9.5"/><path class="cls-2" d="M321.1,170.4l-3.6,2.1"/><path class="cls-2" d="M317.9,172.7l-.8.5"/><path class="cls-2" d="M313.5,175.2l-.8.5"/><path class="cls-2" d="M312.3,175.5l-3.6,2.1"/><path class="cls-2" d="M309.1,177.8l-.9.5"/><line class="cls-2" x1="316.7" y1="172.9" x2="313.1" y2="175"/><line class="cls-2" x1="301.4" y1="180.4" x2="301.4" y2="181.9"/><path class="cls-2" d="M301.4,180.4l4.6,1.3"/><path class="cls-2" d="M301.4,181.9l3.5,1"/><path class="cls-2" d="M306,182.2l-1.3.7"/><path class="cls-2" d="M299.6,185.4l-2.2-2.7"/><path class="cls-2" d="M296.2,185.2l-.8.5"/><path class="cls-2" d="M294.9,185.5l-2.5,1.4"/><path class="cls-2" d="M292.8,187.2l-.8.5"/><path class="cls-2" d="M292,187.7l-1.7-1"/><line class="cls-2" x1="287.6" y1="188.4" x2="287.6" y2="189.8"/><path class="cls-2" d="M287.6,188.4l4.6,1.3"/><path class="cls-2" d="M287.6,189.8l3.5,1"/><path class="cls-2" d="M292.2,189.7a.2.2,0,0,1,.2.2"/><path class="cls-2" d="M292.2,190.2l-1.2.7"/><path class="cls-2" d="M285.9,193.3l-2.3-2.6"/><path class="cls-2" d="M304.7,183.7a1,1,0,0,1,.6.5"/><path class="cls-2" d="M291,191.6l.5.5"/><path class="cls-2" d="M239.7,227.3l-2.9.8"/><path class="cls-2" d="M253.5,235.3l-2.8.8"/><path class="cls-2" d="M270.8,237.3l-.4-.2"/><path class="cls-2" d="M237.5,219.1l-.8.5"/><path class="cls-2" d="M236.3,219.4l-3.6,2"/><path class="cls-2" d="M233.1,221.7l-.9.5"/><line class="cls-2" x1="231.8" y1="221.9" x2="230" y2="223"/><path class="cls-2" d="M230,223l.7.3"/><path class="cls-2" d="M280,194.6l-.9.5"/><path class="cls-2" d="M278.7,194.9l-3.6,2"/><path class="cls-2" d="M275.5,197.2l-.8.5"/><path class="cls-2" d="M271.1,199.7l-.8.5"/><path class="cls-2" d="M269.8,200l-3.6,2.1"/><path class="cls-2" d="M266.7,202.3l-.9.5"/><path class="cls-2" d="M265.8,202.8l-1.7-1"/><line class="cls-2" x1="274.2" y1="197.4" x2="270.7" y2="199.5"/><line class="cls-2" x1="259" y1="204.9" x2="259" y2="206.4"/><path class="cls-2" d="M259,204.9l4.6,1.3"/><path class="cls-2" d="M259,206.4l3.4.9"/><path class="cls-2" d="M263.6,206.7l-1.3.7"/><path class="cls-2" d="M257.2,209.9l-2.2-2.7"/><path class="cls-2" d="M253.8,209.7l-.9.5"/><path class="cls-2" d="M252.5,210l-2.5,1.4"/><path class="cls-2" d="M250.4,211.7l-.8.5"/><line class="cls-2" x1="245.2" y1="212.9" x2="245.2" y2="214.3"/><path class="cls-2" d="M245.2,212.9l4.6,1.3"/><path class="cls-2" d="M245.2,214.3l3.5,1"/><path class="cls-2" d="M249.8,214.6l-1.3.8"/><path class="cls-2" d="M243.4,217.8l-2.2-2.6"/><path class="cls-2" d="M262.3,208.2a1,1,0,0,1,.5.4"/><path class="cls-2" d="M248.5,215.4a.9.9,0,0,1,.6.8"/><path class="cls-2" d="M248.5,216.1l.5.5"/><path class="cls-2" d="M390.2,134.8a.9.9,0,0,1-.6.8l-1,.4a3.5,3.5,0,0,1-2-.3"/><path class="cls-2" d="M376.4,142.8c0,.3-.3.6-.6.8a1.6,1.6,0,0,1-.9.3,3,3,0,0,1-2.1-.3"/><path class="cls-2" d="M334.8,165.4l-.2.3"/><path class="cls-2" d="M347.8,159.3c0,.4-.3.6-.6.8l-1,.4a3.5,3.5,0,0,1-2-.3"/><path class="cls-2" d="M334,167.3c0,.3-.3.6-.6.8a1.7,1.7,0,0,1-1,.3,3.5,3.5,0,0,1-2-.3"/><path class="cls-2" d="M292.4,189.9l-.2.3"/><path class="cls-2" d="M305.3,183.8a.9.9,0,0,1-.5.8l-1,.4a2.9,2.9,0,0,1-2-.4"/><path class="cls-2" d="M291.6,191.7a1.1,1.1,0,0,1-.6.9,1.7,1.7,0,0,1-1,.3,3.5,3.5,0,0,1-2-.3"/><path class="cls-2" d="M262.9,208.3c0,.4-.3.6-.5.8a1.9,1.9,0,0,1-1,.3,2.6,2.6,0,0,1-2.1-.3"/><line class="cls-2" x1="249.1" y1="216.2" x2="249.1" y2="216.5"/><path class="cls-2" d="M249.1,216.2a1.1,1.1,0,0,1-.5.9,3.8,3.8,0,0,1-1,.3,3.3,3.3,0,0,1-2-.3"/><line class="cls-2" x1="207.6" y1="290.3" x2="207.6" y2="275.3"/><line class="cls-2" x1="207.6" y1="275.3" x2="206.3" y2="274.6"/><path class="cls-2" d="M207.6,314.5v-6.9"/><path class="cls-2" d="M208,295l3.5-.6"/><line class="cls-2" x1="98" y1="377.7" x2="98" y2="366.5"/><line class="cls-2" x1="96.7" y1="377" x2="96.7" y2="366.2"/><polyline class="cls-2" points="98.4 365.3 98 365.5 91.7 369.1 80.3 375.7"/><line class="cls-2" x1="80.7" y1="368.3" x2="80.7" y2="367.3"/><line class="cls-2" x1="80.7" y1="367.3" x2="79" y2="368.3"/><line class="cls-2" x1="79" y1="368.3" x2="79" y2="357.7"/><line class="cls-2" x1="77.7" y1="367.5" x2="77.7" y2="356.9"/><line class="cls-2" x1="79" y1="357.7" x2="82.3" y2="355.7"/><line class="cls-2" x1="82.3" y1="355.7" x2="81.1" y2="355"/><line class="cls-2" x1="77.7" y1="356.9" x2="81.1" y2="355"/><line class="cls-2" x1="82.3" y1="355.7" x2="82.3" y2="356.2"/><line class="cls-2" x1="82.3" y1="356.2" x2="83.2" y2="355.7"/><line class="cls-2" x1="83.2" y1="353.8" x2="87.4" y2="351.3"/><polyline class="cls-2" points="87.4 351.3 87.4 352.8 87.4 353.3"/><line class="cls-2" x1="88.3" y1="352.3" x2="90.8" y2="350.8"/><line class="cls-2" x1="90.8" y1="350.8" x2="89.5" y2="350.1"/><line class="cls-2" x1="91.7" y1="348.9" x2="95.9" y2="346.4"/><line class="cls-2" x1="90.4" y1="348.2" x2="94.6" y2="345.7"/><polyline class="cls-2" points="95.9 346.4 95.9 347.9 95.9 348.4"/><line class="cls-2" x1="95.9" y1="348.4" x2="96.8" y2="347.9"/><line class="cls-2" x1="96.8" y1="347.9" x2="95.9" y2="347.4"/><line class="cls-2" x1="96.8" y1="347.4" x2="95.9" y2="346.9"/><line class="cls-2" x1="96.8" y1="347.4" x2="101.5" y2="344.7"/><line class="cls-2" x1="95.9" y1="346.4" x2="100.2" y2="343.9"/><path class="cls-2" d="M79.7,360.6v4"/><path class="cls-2" d="M105.9,348.7a3,3,0,0,0-1.2,1.5,3,3,0,0,0-.2,1,.9.9,0,0,0,.4.8"/><line class="cls-2" x1="98.4" y1="356.3" x2="97.5" y2="356.8"/><line class="cls-2" x1="97.5" y1="356.8" x2="97.5" y2="357.7"/><line class="cls-2" x1="98" y1="357.5" x2="98" y2="361.3"/><line class="cls-2" x1="97.5" y1="361.5" x2="97.5" y2="362.5"/><line class="cls-2" x1="99.2" y1="355.3" x2="98.4" y2="355.8"/><path class="cls-2" d="M101.5,336.5l106.1-61.2"/><path class="cls-2" d="M100.2,335.8l106.1-61.2"/><path class="cls-2" d="M207.7,290.6a.4.4,0,0,1-.1-.3"/><path class="cls-2" d="M80.2,360c-.1-.1-.3.1-.4.1a.9.9,0,0,0-.1.5"/><path class="cls-2" d="M111.2,346.1a.9.9,0,0,0-1,.1"/><path class="cls-2" d="M334.4,233.9l-3.5,3.5"/><path class="cls-2" d="M330.4,237.1v-6.4"/><path class="cls-2" d="M334.8,228.7v-6.4"/><path class="cls-2" d="M334.4,222l-3.5,3.5"/><path class="cls-2" d="M330.4,225.3v-6.4"/><line class="cls-2" x1="440.9" y1="148.7" x2="440.9" y2="140.6"/><line class="cls-2" x1="444" y1="166.7" x2="444" y2="165.7"/><polyline class="cls-2" points="444 165.7 444.4 165.5 450.7 161.8 462.1 155.3"/><line class="cls-2" x1="461.7" y1="148.3" x2="461.7" y2="147.4"/><line class="cls-2" x1="461.7" y1="147.4" x2="463.4" y2="146.4"/><line class="cls-2" x1="463.4" y1="135.8" x2="460" y2="137.7"/><line class="cls-2" x1="462.1" y1="135" x2="459.2" y2="136.7"/><polyline class="cls-2" points="459.2 138.7 459.2 138.2 459.2 136.7"/><line class="cls-2" x1="459.2" y1="136.7" x2="457.9" y2="136"/><line class="cls-2" x1="459.2" y1="136.7" x2="454.9" y2="139.1"/><line class="cls-2" x1="457.9" y1="136" x2="453.7" y2="138.4"/><line class="cls-2" x1="454.1" y1="141.1" x2="452.8" y2="140.4"/><line class="cls-2" x1="454.1" y1="141.1" x2="451.6" y2="142.6"/><polyline class="cls-2" points="450.7 143.6 450.7 143.1 450.7 141.6"/><line class="cls-2" x1="450.7" y1="141.6" x2="446.5" y2="144"/><line class="cls-2" x1="445.6" y1="146" x2="444.3" y2="145.3"/><line class="cls-2" x1="445.6" y1="146" x2="440.9" y2="148.7"/><line class="cls-2" x1="444.3" y1="145.3" x2="440.9" y2="147.3"/><path class="cls-2" d="M462.1,139.8c0-.2.1-.3.1-.5s.3-.2.4-.1"/><path class="cls-2" d="M462.1,143.8v-4"/><path class="cls-2" d="M432.2,163.5a.9.9,0,0,1-1,.1"/><path class="cls-2" d="M432.2,160.3l4.3-2.5"/><path class="cls-2" d="M436.5,157.8a1.1,1.1,0,0,1,1-.1"/><path class="cls-2" d="M436.5,161.1l-4.3,2.4"/><path class="cls-2" d="M435.2,160.4l-4.3,2.4"/><line class="cls-2" x1="444" y1="156.7" x2="444.8" y2="156.3"/><line class="cls-2" x1="444.8" y1="157.2" x2="444.4" y2="157.5"/><line class="cls-2" x1="443.1" y1="163.4" x2="443.1" y2="156.7"/><line class="cls-2" x1="443.1" y1="156.7" x2="444" y2="156.3"/><path class="cls-2" d="M440.9,140.6,334.8,201.8"/><path class="cls-2" d="M439.6,139.8q-53,30.8-106.1,61.3"/><path class="cls-2" d="M330.6,237.4l-.2-.3"/><path class="cls-2" d="M334.7,222h-.3"/><path class="cls-2" d="M330.6,225.5l-.2-.2"/><path class="cls-2" d="M462.2,144c-.1,0-.1-.1-.1-.2"/><path class="cls-2" d="M431.2,163.6c-.3-.1-.4-.5-.4-.8a3,3,0,0,1,.2-1,3,3,0,0,1,1.2-1.5"/><path class="cls-2" d="M436.6,157.8a3.1,3.1,0,0,1-1.4,2.6"/><path class="cls-2" d="M437.5,157.7a1.1,1.1,0,0,1,.4.9,4.4,4.4,0,0,1-.2,1,3.5,3.5,0,0,1-1.2,1.5"/><path class="cls-2" d="M334.8,234.1V241"/><line class="cls-2" x1="334.8" y1="201.8" x2="333.5" y2="201.1"/><path class="cls-2" d="M208,290.5l3.5-3.4"/><path class="cls-2" d="M211.9,287.3v6.4"/><path class="cls-2" d="M211.9,293.7a.8.8,0,0,1-.4.7"/><path class="cls-2" d="M207.6,295.8v6.3"/><path class="cls-2" d="M207.6,302.1c0,.1,0,.3.1.3"/><path class="cls-2" d="M208,302.4l3.5-3.5"/><path class="cls-2" d="M211.5,298.9h.3"/><path class="cls-2" d="M211.9,299.2v6.3"/><polyline class="cls-2" points="334.8 201.8 303 220.2 260.6 244.7 207.6 275.3"/><polyline class="cls-2" points="333.5 201.1 301.7 219.4 259.3 243.9 206.3 274.6"/><path class="cls-2" d="M42.5,339.7l4.4,2.5"/><path class="cls-2" d="M47.2,343.4,46,338.7"/><path class="cls-2" d="M46,338.6l9.8,5.7"/><line class="cls-2" x1="55.8" y1="344.3" x2="57.1" y2="343.5"/><path class="cls-2" d="M47.3,337.9l9.8,5.6"/><line class="cls-2" x1="55.8" y1="344.4" x2="57.1" y2="343.7"/><path class="cls-2" d="M55.8,344.4l-1.2,3.3"/><line class="cls-2" x1="54.6" y1="347.7" x2="55.9" y2="346.9"/><path class="cls-2" d="M57.1,343.7l-1.2,3.2"/><path class="cls-2" d="M55,348.4l1.3.7"/><path class="cls-2" d="M38.3,344.8v-1"/><path class="cls-2" d="M37.9,343.5v-1.3"/><path class="cls-2" d="M38.3,342.5v-1"/><path class="cls-2" d="M38.3,337.4v-1"/><path class="cls-2" d="M37.9,336.2v-2.3"/><path class="cls-2" d="M37.9,333.9l4.2,2.4"/><path class="cls-2" d="M56.3,349.1a3.4,3.4,0,0,0,1.5,2.6"/><path class="cls-2" d="M57,348.8a3.1,3.1,0,0,0,1.4,2.5"/><line class="cls-2" x1="56.3" y1="349.1" x2="57" y2="348.8"/><path class="cls-2" d="M45.5,342.9a1.3,1.3,0,0,1-.4,1"/><path class="cls-2" d="M45.5,342.9l1.3.7"/><line class="cls-2" x1="37.9" y1="341.3" x2="37.9" y2="337.2"/><path class="cls-2" d="M74.3,359.5l-1.2-.7"/><line class="cls-2" x1="69.6" y1="352.4" x2="70.9" y2="351.6"/><path class="cls-2" d="M69.7,354.9l1.2-3.3"/><line class="cls-2" x1="69.6" y1="352.2" x2="70.9" y2="351.5"/><path class="cls-2" d="M69.6,352.2l-9.8-5.6"/><line class="cls-2" x1="59.8" y1="346.6" x2="61" y2="345.8"/><path class="cls-2" d="M70.9,351.5,61,345.8"/><path class="cls-2" d="M59.8,346.7l1.2,4.6"/><path class="cls-2" d="M60.6,351.6l-1.3-.8"/><path class="cls-2" d="M79,388.7V368.3"/><path class="cls-2" d="M80.3,388V367.5"/><path class="cls-2" d="M77.3,365v-1"/><path class="cls-2" d="M77.7,356.9l-4.1-2.4"/><line class="cls-2" x1="73.6" y1="354.5" x2="74.8" y2="353.8"/><path class="cls-2" d="M79,356.2l-4.2-2.4"/><path class="cls-2" d="M73.6,354.7l1.2,4.6"/><path class="cls-2" d="M59.3,350.8a1.2,1.2,0,0,1-.4,1"/><line class="cls-2" x1="56.3" y1="347.7" x2="60.7" y2="350.2"/><line class="cls-2" x1="57" y1="348.8" x2="59.9" y2="350.5"/><path class="cls-2" d="M59.1,351.5a1.1,1.1,0,0,1-.7-.2"/><path class="cls-2" d="M58.9,351.8a1.1,1.1,0,0,1-1.1-.1"/><path class="cls-2" d="M72.6,359.8a1.1,1.1,0,0,0,.5-1"/><line class="cls-2" x1="432.5" y1="135.8" x2="432.5" y2="143.9"/><line class="cls-2" x1="434.8" y1="158.8" x2="434.8" y2="160.6"/><line class="cls-2" x1="419.3" y1="151.1" x2="418.4" y2="151.6"/><line class="cls-2" x1="414.8" y1="153.7" x2="414" y2="154.1"/><line class="cls-2" x1="408.7" y1="157.2" x2="407.8" y2="157.7"/><line class="cls-2" x1="407.8" y1="157.7" x2="407.8" y2="158.2"/><line class="cls-2" x1="404.2" y1="160.3" x2="404.2" y2="159.8"/><line class="cls-2" x1="404.2" y1="159.8" x2="403.4" y2="160.3"/><line class="cls-2" x1="392.8" y1="166.4" x2="393.6" y2="165.9"/><line class="cls-2" x1="397.2" y1="163.8" x2="398.1" y2="163.3"/><line class="cls-2" x1="382.2" y1="172.5" x2="383" y2="172"/><line class="cls-2" x1="383" y1="172.5" x2="382.6" y2="172.3"/><line class="cls-2" x1="386.6" y1="169.9" x2="387.5" y2="169.5"/><line class="cls-2" x1="350.3" y1="190.9" x2="351.2" y2="190.4"/><line class="cls-2" x1="354.8" y1="188.3" x2="355.6" y2="187.8"/><line class="cls-2" x1="339.7" y1="197" x2="340.6" y2="196.5"/><line class="cls-2" x1="344.2" y1="194.9" x2="344.2" y2="194.4"/><line class="cls-2" x1="344.2" y1="194.4" x2="345" y2="193.9"/><line class="cls-2" x1="376.9" y1="175.6" x2="376" y2="176.1"/><line class="cls-2" x1="372.4" y1="178.2" x2="371.6" y2="178.6"/><polyline class="cls-2" points="365 182.9 365 182.9 365 182.9"/><line class="cls-2" x1="366.2" y1="181.7" x2="365.4" y2="182.2"/><line class="cls-2" x1="361.8" y1="184.8" x2="361.8" y2="184.3"/><line class="cls-2" x1="361.8" y1="184.3" x2="360.9" y2="184.8"/><line class="cls-2" x1="329.1" y1="203.6" x2="329.1" y2="203.1"/><line class="cls-2" x1="329.1" y1="203.1" x2="330" y2="202.6"/><line class="cls-2" x1="333.6" y1="200.6" x2="334.4" y2="200.1"/><path class="cls-2" d="M432.5,135.8,326.5,197"/><path class="cls-2" d="M431.3,135,325.2,196.3"/><path class="cls-2" d="M410.1,128.4l9.9,5.7"/><line class="cls-2" x1="420" y1="134.1" x2="421.2" y2="133.3"/><path class="cls-2" d="M411.4,127.6l9.8,5.7"/><line class="cls-2" x1="419.9" y1="134.2" x2="421.2" y2="133.4"/><path class="cls-2" d="M419.9,134.2c-.2.7-.5,1.3-.7,2"/><path class="cls-2" d="M421.2,133.4l-1.2,3.3"/><path class="cls-2" d="M423.9,136.3l2.6,1.5"/><line class="cls-2" x1="443.1" y1="157.2" x2="444" y2="156.7"/><line class="cls-2" x1="443.1" y1="162.9" x2="444.4" y2="162.2"/><path class="cls-2" d="M444.4,156.5v5.7"/><path class="cls-2" d="M402,123.7l4.2,2.4"/><line class="cls-2" x1="408.4" y1="130" x2="407.2" y2="130.7"/><line class="cls-2" x1="422.6" y1="138.2" x2="408.4" y2="130"/><line class="cls-2" x1="421.3" y1="138.9" x2="420.4" y2="138.4"/><line class="cls-2" x1="408" y1="131.2" x2="407.2" y2="130.7"/><path class="cls-2" d="M424.3,119.3l5.6,3.2"/><path class="cls-2" d="M430.3,122.2l-1.2-4.6"/><path class="cls-2" d="M429.1,117.4l9.8,5.7"/><path class="cls-2" d="M421.4,123.6v-1"/><line class="cls-2" x1="421.4" y1="120.8" x2="420.9" y2="121.1"/><path class="cls-2" d="M420.9,122.4v-1.3"/><path class="cls-2" d="M421.4,121.3v-1"/><path class="cls-2" d="M421.4,120.3l-.5-.2"/><path class="cls-2" d="M421.4,116.2v-.9"/><path class="cls-2" d="M420.9,112.7l4.2,2.5"/><line class="cls-2" x1="429.2" y1="121.4" x2="426.2" y2="119.6"/><path class="cls-2" d="M455.6,137.3l-3.7-2.1"/><path class="cls-2" d="M452.7,131.1l-9.9-5.7"/><path class="cls-2" d="M442.9,125.5l1.2,4.7"/><path class="cls-2" d="M462.1,167.5V155.3"/><path class="cls-2" d="M460.8,135.8l-4.2-2.5"/><line class="cls-2" x1="453.8" y1="135.6" x2="456.2" y2="136.9"/><line class="cls-2" x1="438.1" y1="127.2" x2="443.6" y2="130.4"/><line class="cls-2" x1="440" y1="127.6" x2="443" y2="129.3"/><path class="cls-2" d="M338.2,160.5l-.8.5"/><path class="cls-2" d="M354.7,151l.8-.5"/><path class="cls-2" d="M363.5,145.9l.9-.5"/><path class="cls-2" d="M379.4,135.3l-4.3,2.4"/><path class="cls-2" d="M380.6,136l-.8.5"/><line class="cls-2" x1="403.2" y1="121.5" x2="404.5" y2="122.2"/><path class="cls-2" d="M403.3,122.9l1.2-.7"/><path class="cls-2" d="M405.3,120.3l4.3-2.5"/><path class="cls-2" d="M409.6,117.8v2"/><line class="cls-2" x1="411.7" y1="116.6" x2="412.9" y2="117.3"/><path class="cls-2" d="M410.4,118.8l2.5-1.5"/><path class="cls-2" d="M413.8,115.4l4.2-2.5"/><path class="cls-2" d="M418,112.9v2"/><path class="cls-2" d="M421.4,123.1l-.9.5"/><path class="cls-2" d="M420.5,123.6v1"/><path class="cls-2" d="M420.9,131.5l-1.4.8"/><line class="cls-2" x1="420.9" y1="116" x2="420.9" y2="120.1"/><path class="cls-2" d="M294.9,185.5l.9-.5"/><path class="cls-2" d="M322,169.9l-.9.5"/><path class="cls-2" d="M313.1,175l-.8.5"/><path class="cls-2" d="M421.4,115.4a.7.7,0,0,0-.5.6"/><line class="cls-2" x1="89.6" y1="370.3" x2="89.6" y2="372.9"/><line class="cls-2" x1="93.2" y1="331.7" x2="91.9" y2="331"/><line class="cls-2" x1="93.2" y1="331.7" x2="93.2" y2="343.2"/><line class="cls-2" x1="91.9" y1="331" x2="91.9" y2="347"/><line class="cls-2" x1="106.4" y1="331.7" x2="107.3" y2="331.2"/><line class="cls-2" x1="107.3" y1="331.2" x2="107.3" y2="331.7"/><line class="cls-2" x1="110.9" y1="329.1" x2="111.7" y2="328.7"/><polyline class="cls-2" points="117 326.1 117 326.1 117 325.6"/><line class="cls-2" x1="117" y1="325.6" x2="117.9" y2="325.1"/><line class="cls-2" x1="121.5" y1="323" x2="122.3" y2="322.5"/><line class="cls-2" x1="132.9" y1="316.4" x2="132.1" y2="316.9"/><line class="cls-2" x1="128.5" y1="319" x2="127.6" y2="319.5"/><line class="cls-2" x1="143.5" y1="310.3" x2="142.7" y2="310.8"/><line class="cls-2" x1="139.1" y1="312.9" x2="138.2" y2="313.4"/><line class="cls-2" x1="175.3" y1="291.9" x2="174.5" y2="292.4"/><line class="cls-2" x1="170.9" y1="294.5" x2="170" y2="295"/><line class="cls-2" x1="186" y1="285.8" x2="185.1" y2="286.3"/><line class="cls-2" x1="181.5" y1="288.4" x2="180.7" y2="288.9"/><polyline class="cls-2" points="148.8 307.7 148.8 307.7 148.8 307.2"/><line class="cls-2" x1="148.8" y1="307.2" x2="149.7" y2="306.7"/><line class="cls-2" x1="149.7" y1="306.7" x2="149.7" y2="307.2"/><line class="cls-2" x1="153.3" y1="304.7" x2="154.1" y2="304.2"/><line class="cls-2" x1="159.4" y1="301.1" x2="160.3" y2="300.6"/><line class="cls-2" x1="163.9" y1="298.5" x2="164.7" y2="298"/><line class="cls-2" x1="199.2" y1="270.5" x2="197.9" y2="269.7"/><path class="cls-2" d="M199.2,270.5v8.1"/><line class="cls-2" x1="196.6" y1="279.7" x2="195.7" y2="280.2"/><line class="cls-2" x1="192.1" y1="282.2" x2="191.3" y2="282.7"/><path class="cls-2" d="M93.2,331.7l106-61.2"/><path class="cls-2" d="M91.9,331l106-61.3"/><line class="cls-2" x1="62.3" y1="324.8" x2="61" y2="325.5"/><line class="cls-2" x1="62.3" y1="324.6" x2="61" y2="325.4"/><path class="cls-2" d="M62.3,324.8,61.1,328"/><line class="cls-2" x1="61.1" y1="328" x2="59.8" y2="328.8"/><path class="cls-2" d="M61,325.5l-1.2,3.3"/><path class="cls-2" d="M59.8,328.8a1,1,0,0,0,.4.7"/><path class="cls-2" d="M61.5,328.8l1.3.7"/><path class="cls-2" d="M60.2,329.5l5.5,3.2"/><path class="cls-2" d="M66.2,332.4,65,327.8"/><path class="cls-2" d="M66.2,326.9l9.9,5.7"/><path class="cls-2" d="M64.9,327.7l9.9,5.6"/><line class="cls-2" x1="74.8" y1="336" x2="73.6" y2="336.7"/><path class="cls-2" d="M74.8,333.5l-1.2,3.2"/><path class="cls-2" d="M74.8,336a.8.8,0,0,0,.5.7"/><path class="cls-2" d="M73.6,336.7a1.2,1.2,0,0,0,.4.8"/><path class="cls-2" d="M75.3,336.7l1.2.8"/><path class="cls-2" d="M74,337.5l5.5,3.1"/><path class="cls-2" d="M79.9,340.4l-1.2-4.6"/><line class="cls-2" x1="80" y1="334.9" x2="78.7" y2="335.6"/><path class="cls-2" d="M80,334.9l9.8,5.7"/><path class="cls-2" d="M78.7,335.6l9.9,5.7"/><path class="cls-2" d="M87.8,345.4l3.7,2.1"/><path class="cls-2" d="M93.2,346.5a28.6,28.6,0,0,0-.7-2.8"/><line class="cls-2" x1="93.8" y1="342.8" x2="92.5" y2="343.6"/><path class="cls-2" d="M92.5,343.6l4.2,2.4"/><path class="cls-2" d="M99.2,355.8v5.7"/><line class="cls-2" x1="99.2" y1="361.5" x2="98" y2="362.2"/><path class="cls-2" d="M98,356.5v1"/><path class="cls-2" d="M98,361.3v.9"/><line class="cls-2" x1="57.2" y1="339.2" x2="56.8" y2="339.5"/><path class="cls-2" d="M56.8,343.4v-3.9"/><path class="cls-2" d="M57.2,339.7v-1"/><path class="cls-2" d="M57.2,338.7l-.8-.5"/><path class="cls-2" d="M57.2,333v-1"/><path class="cls-2" d="M56.8,331.8V323"/><path class="cls-2" d="M58.1,322.2l4.2,2.4"/><path class="cls-2" d="M56.8,323l4.2,2.4"/><line class="cls-2" x1="92.1" y1="347.2" x2="89.7" y2="345.8"/><line class="cls-2" x1="65.1" y1="331.6" x2="62.1" y2="329.9"/><line class="cls-2" x1="78.9" y1="339.5" x2="75.9" y2="337.8"/><line class="cls-2" x1="69" y1="327.9" x2="69" y2="325.9"/><line class="cls-2" x1="83.2" y1="334.1" x2="69" y2="325.9"/><line class="cls-2" x1="84.5" y1="333.4" x2="70.3" y2="325.2"/><line class="cls-2" x1="162.6" y1="264" x2="163.7" y2="264.6"/><path class="cls-2" d="M67.4,316.8l-.8.5"/><path class="cls-2" d="M54.8,324.6v-1.9"/><path class="cls-2" d="M54.8,322.7l-4.3,2.4"/><line class="cls-2" x1="48.4" y1="326.4" x2="49.7" y2="327.1"/><path class="cls-2" d="M49.7,327.1l-2.6,1.5"/><path class="cls-2" d="M46.3,329.5v-1.9"/><path class="cls-2" d="M46.3,327.6,42,330"/><line class="cls-2" x1="39.9" y1="331.3" x2="41.2" y2="332"/><path class="cls-2" d="M41.2,332l-2.1,1.2"/><path class="cls-2" d="M37.9,336.2v1"/><path class="cls-2" d="M37.9,343.5v1"/><path class="cls-2" d="M55.4,342.6l1.4-.9"/><line class="cls-2" x1="56.4" y1="338.7" x2="56.4" y2="337.7"/><line class="cls-2" x1="56.8" y1="337.5" x2="56.8" y2="333.7"/><line class="cls-2" x1="56.4" y1="334" x2="56.4" y2="333"/><line class="cls-2" x1="56.4" y1="333" x2="57.2" y2="332.5"/><path class="cls-2" d="M82.8,307.9l.9-.4"/><path class="cls-2" d="M109.8,292.3l-.8.5"/><path class="cls-2" d="M101,297.5l-.8.4"/><path class="cls-2" d="M125.3,283.4l.8-.4"/><path class="cls-2" d="M142.6,273.4l.8-.4"/><path class="cls-2" d="M151.4,268.3l.9-.4"/></svg>