<svg id="Layer_1" data-name="Layer 1" xmlns="http://www.w3.org/2000/svg" viewBox="0 0 425.2 425.2"><defs><style>.cls-1,.cls-2{fill:none;stroke-linecap:round;stroke-linejoin:round;}.cls-1{stroke:#000;stroke-width:0.25px;}.cls-2{stroke:#1d1d1b;}</style></defs><line class="cls-1" x1="241.66" y1="232.9" x2="241.66" y2="210.63"/><line class="cls-1" x1="241.66" y1="210.63" x2="241.58" y2="210.14"/><line class="cls-1" x1="241.58" y1="210.14" x2="241.35" y2="209.58"/><line class="cls-1" x1="241.35" y1="209.58" x2="240.99" y2="209.1"/><line class="cls-1" x1="240.99" y1="209.1" x2="240.6" y2="208.79"/><line class="cls-1" x1="240.6" y1="208.79" x2="231.58" y2="203.58"/><line class="cls-1" x1="231.58" y1="203.58" x2="231.19" y2="203.44"/><line class="cls-1" x1="231.19" y1="203.44" x2="230.83" y2="203.51"/><line class="cls-1" x1="230.83" y1="203.51" x2="230.59" y2="203.79"/><line class="cls-1" x1="230.59" y1="203.79" x2="230.52" y2="204.2"/><line class="cls-1" x1="202.92" y1="199.09" x2="202.92" y2="188.26"/><line class="cls-1" x1="202.92" y1="188.26" x2="202.84" y2="187.77"/><line class="cls-1" x1="202.84" y1="187.77" x2="202.61" y2="187.22"/><line class="cls-1" x1="202.61" y1="187.22" x2="202.25" y2="186.73"/><line class="cls-1" x1="202.25" y1="186.73" x2="201.86" y2="186.42"/><line class="cls-1" x1="201.86" y1="186.42" x2="192.83" y2="181.21"/><line class="cls-1" x1="192.83" y1="181.21" x2="192.44" y2="181.08"/><line class="cls-1" x1="192.44" y1="181.08" x2="192.08" y2="181.14"/><line class="cls-1" x1="192.08" y1="181.14" x2="191.85" y2="181.42"/><line class="cls-1" x1="191.85" y1="181.42" x2="191.77" y2="181.83"/><line class="cls-1" x1="188.59" y1="202.26" x2="188.59" y2="179.99"/><line class="cls-1" x1="188.59" y1="179.99" x2="188.51" y2="179.5"/><line class="cls-1" x1="188.51" y1="179.5" x2="188.28" y2="178.94"/><line class="cls-1" x1="188.28" y1="178.94" x2="187.92" y2="178.46"/><line class="cls-1" x1="187.92" y1="178.46" x2="187.53" y2="178.15"/><line class="cls-1" x1="187.53" y1="178.15" x2="178.51" y2="172.94"/><line class="cls-1" x1="178.51" y1="172.94" x2="178.12" y2="172.8"/><line class="cls-1" x1="178.12" y1="172.8" x2="177.76" y2="172.87"/><line class="cls-1" x1="177.76" y1="172.87" x2="177.52" y2="173.15"/><line class="cls-1" x1="177.52" y1="173.15" x2="177.45" y2="173.56"/><line class="cls-1" x1="149.85" y1="168.45" x2="149.85" y2="157.62"/><line class="cls-1" x1="149.85" y1="157.62" x2="149.77" y2="157.13"/><line class="cls-1" x1="149.77" y1="157.13" x2="149.54" y2="156.58"/><line class="cls-1" x1="149.54" y1="156.58" x2="149.18" y2="156.09"/><line class="cls-1" x1="149.18" y1="156.09" x2="148.79" y2="155.78"/><line class="cls-1" x1="148.79" y1="155.78" x2="139.76" y2="150.57"/><line class="cls-1" x1="139.76" y1="150.57" x2="139.37" y2="150.44"/><line class="cls-1" x1="139.37" y1="150.44" x2="139.01" y2="150.5"/><line class="cls-1" x1="139.01" y1="150.5" x2="138.78" y2="150.78"/><line class="cls-1" x1="138.78" y1="150.78" x2="138.7" y2="151.19"/><line class="cls-1" x1="135.52" y1="171.62" x2="135.52" y2="162.63"/><line class="cls-1" x1="135.52" y1="162.63" x2="135.44" y2="162.13"/><line class="cls-1" x1="135.44" y1="162.13" x2="135.21" y2="161.58"/><line class="cls-1" x1="135.21" y1="161.58" x2="134.85" y2="161.1"/><line class="cls-1" x1="134.85" y1="161.1" x2="134.46" y2="160.79"/><line class="cls-1" x1="134.46" y1="160.79" x2="124.29" y2="154.92"/><line class="cls-1" x1="124.29" y1="154.92" x2="123.89" y2="154.78"/><line class="cls-1" x1="123.89" y1="154.78" x2="123.54" y2="154.84"/><line class="cls-1" x1="123.54" y1="154.84" x2="123.3" y2="155.12"/><line class="cls-1" x1="123.3" y1="155.12" x2="123.22" y2="155.53"/><line class="cls-1" x1="120.04" y1="176.36" x2="120.04" y2="153.69"/><line class="cls-1" x1="120.04" y1="153.69" x2="119.96" y2="153.2"/><line class="cls-1" x1="119.96" y1="153.2" x2="119.73" y2="152.64"/><line class="cls-1" x1="119.73" y1="152.64" x2="119.37" y2="152.16"/><line class="cls-1" x1="119.37" y1="152.16" x2="118.98" y2="151.85"/><line class="cls-1" x1="118.98" y1="151.85" x2="111.64" y2="147.61"/><line class="cls-1" x1="111.64" y1="147.61" x2="111.25" y2="147.47"/><line class="cls-1" x1="111.25" y1="147.47" x2="110.89" y2="147.54"/><line class="cls-1" x1="110.89" y1="147.54" x2="110.65" y2="147.82"/><line class="cls-1" x1="110.65" y1="147.82" x2="110.57" y2="148.23"/><line class="cls-1" x1="110.57" y1="190.1" x2="110.57" y2="194.19"/><line class="cls-1" x1="110.57" y1="194.19" x2="110.65" y2="194.68"/><line class="cls-1" x1="110.65" y1="194.68" x2="110.89" y2="195.23"/><line class="cls-1" x1="110.89" y1="195.23" x2="111.25" y2="195.71"/><line class="cls-1" x1="111.25" y1="195.71" x2="111.64" y2="196.03"/><line class="cls-1" x1="111.64" y1="196.03" x2="134.46" y2="209.2"/><line class="cls-1" x1="134.46" y1="209.2" x2="134.85" y2="209.34"/><line class="cls-1" x1="134.85" y1="209.34" x2="135.21" y2="209.27"/><line class="cls-1" x1="135.21" y1="209.27" x2="135.44" y2="208.99"/><line class="cls-1" x1="135.44" y1="208.99" x2="135.52" y2="208.59"/><line class="cls-1" x1="135.52" y1="208.59" x2="135.52" y2="204.5"/><line class="cls-1" x1="134.99" y1="202.97" x2="136.05" y2="203.58"/><line class="cls-1" x1="138.7" y1="206.34" x2="138.7" y2="210.43"/><line class="cls-1" x1="138.7" y1="210.43" x2="138.78" y2="210.92"/><line class="cls-1" x1="138.78" y1="210.92" x2="139.01" y2="211.47"/><line class="cls-1" x1="139.01" y1="211.47" x2="139.37" y2="211.95"/><line class="cls-1" x1="139.37" y1="211.95" x2="139.76" y2="212.26"/><line class="cls-1" x1="139.76" y1="212.26" x2="187.53" y2="239.84"/><line class="cls-1" x1="187.53" y1="239.84" x2="187.92" y2="239.98"/><line class="cls-1" x1="187.92" y1="239.98" x2="188.28" y2="239.91"/><line class="cls-1" x1="188.28" y1="239.91" x2="188.51" y2="239.63"/><line class="cls-1" x1="188.51" y1="239.63" x2="188.59" y2="239.23"/><line class="cls-1" x1="188.59" y1="239.23" x2="188.59" y2="235.14"/><line class="cls-1" x1="188.06" y1="233.61" x2="189.12" y2="234.22"/><line class="cls-1" x1="191.77" y1="236.98" x2="191.77" y2="241.07"/><line class="cls-1" x1="191.77" y1="241.07" x2="191.85" y2="241.56"/><line class="cls-1" x1="191.85" y1="241.56" x2="192.08" y2="242.11"/><line class="cls-1" x1="192.08" y1="242.11" x2="192.44" y2="242.59"/><line class="cls-1" x1="192.44" y1="242.59" x2="192.83" y2="242.91"/><line class="cls-1" x1="192.83" y1="242.91" x2="240.6" y2="270.48"/><line class="cls-1" x1="240.6" y1="270.48" x2="240.99" y2="270.62"/><line class="cls-1" x1="240.99" y1="270.62" x2="241.35" y2="270.56"/><line class="cls-1" x1="241.35" y1="270.56" x2="241.58" y2="270.28"/><line class="cls-1" x1="241.58" y1="270.28" x2="241.66" y2="269.87"/><line class="cls-1" x1="241.66" y1="269.87" x2="241.66" y2="265.78"/><line class="cls-1" x1="241.13" y1="264.25" x2="242.19" y2="264.86"/><line class="cls-1" x1="244.84" y1="267.62" x2="244.84" y2="271.71"/><line class="cls-1" x1="244.84" y1="271.71" x2="244.92" y2="272.2"/><line class="cls-1" x1="244.92" y1="272.2" x2="245.15" y2="272.75"/><line class="cls-1" x1="245.15" y1="272.75" x2="245.51" y2="273.23"/><line class="cls-1" x1="245.51" y1="273.23" x2="245.91" y2="273.55"/><line class="cls-1" x1="245.91" y1="273.55" x2="293.67" y2="301.12"/><line class="cls-1" x1="293.67" y1="301.12" x2="294.06" y2="301.26"/><line class="cls-1" x1="294.06" y1="301.26" x2="294.42" y2="301.2"/><line class="cls-1" x1="294.42" y1="301.2" x2="294.66" y2="300.92"/><line class="cls-1" x1="294.66" y1="300.92" x2="294.73" y2="300.51"/><line class="cls-1" x1="294.73" y1="300.51" x2="294.73" y2="296.42"/><line class="cls-1" x1="294.2" y1="294.89" x2="295.26" y2="295.51"/><line class="cls-1" x1="297.92" y1="298.26" x2="297.92" y2="302.35"/><line class="cls-1" x1="297.92" y1="302.35" x2="297.99" y2="302.84"/><line class="cls-1" x1="297.99" y1="302.84" x2="298.23" y2="303.39"/><line class="cls-1" x1="298.23" y1="303.39" x2="298.59" y2="303.87"/><line class="cls-1" x1="298.59" y1="303.87" x2="298.98" y2="304.19"/><line class="cls-1" x1="298.98" y1="304.19" x2="322.86" y2="317.98"/><line class="cls-1" x1="309.06" y1="260.37" x2="309.06" y2="249.54"/><line class="cls-1" x1="309.06" y1="249.54" x2="308.99" y2="249.05"/><line class="cls-1" x1="308.99" y1="249.05" x2="308.75" y2="248.5"/><line class="cls-1" x1="308.75" y1="248.5" x2="308.39" y2="248.02"/><line class="cls-1" x1="308.39" y1="248.02" x2="308" y2="247.71"/><line class="cls-1" x1="308" y1="247.71" x2="298.98" y2="242.49"/><line class="cls-1" x1="298.98" y1="242.49" x2="298.59" y2="242.36"/><line class="cls-1" x1="298.59" y1="242.36" x2="298.23" y2="242.42"/><line class="cls-1" x1="298.23" y1="242.42" x2="297.99" y2="242.7"/><line class="cls-1" x1="297.99" y1="242.7" x2="297.92" y2="243.11"/><line class="cls-1" x1="294.73" y1="263.54" x2="294.73" y2="241.27"/><line class="cls-1" x1="294.73" y1="241.27" x2="294.66" y2="240.78"/><line class="cls-1" x1="294.66" y1="240.78" x2="294.42" y2="240.22"/><line class="cls-1" x1="294.42" y1="240.22" x2="294.06" y2="239.74"/><line class="cls-1" x1="294.06" y1="239.74" x2="293.67" y2="239.43"/><line class="cls-1" x1="293.67" y1="239.43" x2="284.65" y2="234.22"/><line class="cls-1" x1="284.65" y1="234.22" x2="284.26" y2="234.08"/><line class="cls-1" x1="284.26" y1="234.08" x2="283.9" y2="234.15"/><line class="cls-1" x1="283.9" y1="234.15" x2="283.66" y2="234.43"/><line class="cls-1" x1="283.66" y1="234.43" x2="283.59" y2="234.84"/><line class="cls-1" x1="255.99" y1="229.73" x2="255.99" y2="218.9"/><line class="cls-1" x1="255.99" y1="218.9" x2="255.92" y2="218.41"/><line class="cls-1" x1="255.92" y1="218.41" x2="255.68" y2="217.86"/><line class="cls-1" x1="255.68" y1="217.86" x2="255.32" y2="217.37"/><line class="cls-1" x1="255.32" y1="217.37" x2="254.93" y2="217.06"/><line class="cls-1" x1="254.93" y1="217.06" x2="245.91" y2="211.85"/><line class="cls-1" x1="245.91" y1="211.85" x2="245.51" y2="211.72"/><line class="cls-1" x1="245.51" y1="211.72" x2="245.15" y2="211.78"/><line class="cls-1" x1="245.15" y1="211.78" x2="244.92" y2="212.06"/><line class="cls-1" x1="244.92" y1="212.06" x2="244.84" y2="212.47"/><line class="cls-1" x1="195.31" y1="237.18" x2="195.31" y2="235.96"/><line class="cls-1" x1="199.56" y1="239.64" x2="199.03" y2="239.33"/><line class="cls-1" x1="199.03" y1="243.01" x2="199.56" y2="243.31"/><line class="cls-1" x1="199.56" y1="243.31" x2="199.56" y2="244.54"/><line class="cls-1" x1="199.56" y1="244.54" x2="195.31" y2="242.09"/><line class="cls-1" x1="195.31" y1="242.09" x2="195.31" y2="240.86"/><line class="cls-1" x1="195.31" y1="240.86" x2="195.84" y2="241.17"/><line class="cls-1" x1="195.84" y1="241.17" x2="195.84" y2="237.49"/><line class="cls-1" x1="195.84" y1="237.49" x2="195.31" y2="237.18"/><line class="cls-1" x1="238.12" y1="266.8" x2="233.88" y2="264.35"/><line class="cls-1" x1="233.88" y1="264.35" x2="233.88" y2="263.13"/><line class="cls-1" x1="233.88" y1="263.13" x2="234.41" y2="263.43"/><line class="cls-1" x1="234.41" y1="263.43" x2="234.41" y2="259.76"/><line class="cls-1" x1="234.41" y1="259.76" x2="233.88" y2="259.45"/><line class="cls-1" x1="233.88" y1="259.45" x2="233.88" y2="258.22"/><line class="cls-1" x1="238.12" y1="261.9" x2="237.59" y2="261.59"/><line class="cls-1" x1="237.59" y1="265.27" x2="238.12" y2="265.58"/><line class="cls-1" x1="238.12" y1="265.58" x2="238.12" y2="266.8"/><line class="cls-1" x1="199.03" y1="191.94" x2="199.56" y2="192.24"/><line class="cls-1" x1="199.56" y1="192.24" x2="199.56" y2="193.47"/><line class="cls-1" x1="199.56" y1="193.47" x2="195.31" y2="191.02"/><line class="cls-1" x1="195.31" y1="191.02" x2="195.31" y2="189.79"/><line class="cls-1" x1="195.31" y1="189.79" x2="195.84" y2="190.1"/><line class="cls-1" x1="195.84" y1="190.1" x2="195.84" y2="186.42"/><line class="cls-1" x1="195.84" y1="186.42" x2="195.31" y2="186.12"/><line class="cls-1" x1="195.31" y1="186.12" x2="195.31" y2="184.89"/><line class="cls-1" x1="199.56" y1="188.57" x2="199.03" y2="188.26"/><line class="cls-1" x1="238.12" y1="210.83" x2="237.59" y2="210.53"/><line class="cls-1" x1="237.59" y1="214.2" x2="238.12" y2="214.51"/><line class="cls-1" x1="238.12" y1="214.51" x2="238.12" y2="215.74"/><line class="cls-1" x1="238.12" y1="215.74" x2="233.88" y2="213.28"/><line class="cls-1" x1="233.88" y1="213.28" x2="233.88" y2="212.06"/><line class="cls-1" x1="233.88" y1="212.06" x2="234.41" y2="212.37"/><line class="cls-1" x1="234.41" y1="212.37" x2="234.41" y2="208.69"/><line class="cls-1" x1="234.41" y1="208.69" x2="233.88" y2="208.38"/><line class="cls-1" x1="233.88" y1="208.38" x2="233.88" y2="207.16"/><line class="cls-1" x1="142.24" y1="206.54" x2="142.24" y2="205.32"/><line class="cls-1" x1="146.48" y1="209" x2="145.95" y2="208.69"/><line class="cls-1" x1="145.95" y1="212.37" x2="146.48" y2="212.67"/><line class="cls-1" x1="146.48" y1="212.67" x2="146.48" y2="213.9"/><line class="cls-1" x1="146.48" y1="213.9" x2="142.24" y2="211.45"/><line class="cls-1" x1="142.24" y1="211.45" x2="142.24" y2="210.22"/><line class="cls-1" x1="142.24" y1="210.22" x2="142.77" y2="210.53"/><line class="cls-1" x1="142.77" y1="210.53" x2="142.77" y2="206.85"/><line class="cls-1" x1="142.77" y1="206.85" x2="142.24" y2="206.54"/><line class="cls-1" x1="185.05" y1="236.16" x2="180.81" y2="233.71"/><line class="cls-1" x1="180.81" y1="233.71" x2="180.81" y2="232.49"/><line class="cls-1" x1="180.81" y1="232.49" x2="181.34" y2="232.79"/><line class="cls-1" x1="181.34" y1="232.79" x2="181.34" y2="229.12"/><line class="cls-1" x1="181.34" y1="229.12" x2="180.81" y2="228.81"/><line class="cls-1" x1="180.81" y1="228.81" x2="180.81" y2="227.58"/><line class="cls-1" x1="185.05" y1="231.26" x2="184.52" y2="230.95"/><line class="cls-1" x1="184.52" y1="234.63" x2="185.05" y2="234.94"/><line class="cls-1" x1="185.05" y1="234.94" x2="185.05" y2="236.16"/><line class="cls-1" x1="145.95" y1="161.3" x2="146.48" y2="161.6"/><line class="cls-1" x1="146.48" y1="161.6" x2="146.48" y2="162.83"/><line class="cls-1" x1="146.48" y1="162.83" x2="142.24" y2="160.38"/><line class="cls-1" x1="142.24" y1="160.38" x2="142.24" y2="159.15"/><line class="cls-1" x1="142.24" y1="159.15" x2="142.77" y2="159.46"/><line class="cls-1" x1="142.77" y1="159.46" x2="142.77" y2="155.78"/><line class="cls-1" x1="142.77" y1="155.78" x2="142.24" y2="155.48"/><line class="cls-1" x1="142.24" y1="155.48" x2="142.24" y2="154.25"/><line class="cls-1" x1="146.48" y1="157.93" x2="145.95" y2="157.62"/><line class="cls-1" x1="185.05" y1="180.19" x2="184.52" y2="179.89"/><line class="cls-1" x1="184.52" y1="183.56" x2="185.05" y2="183.87"/><line class="cls-1" x1="185.05" y1="183.87" x2="185.05" y2="185.1"/><line class="cls-1" x1="185.05" y1="185.1" x2="180.81" y2="182.64"/><line class="cls-1" x1="180.81" y1="182.64" x2="180.81" y2="181.42"/><line class="cls-1" x1="180.81" y1="181.42" x2="181.34" y2="181.73"/><line class="cls-1" x1="181.34" y1="181.73" x2="181.34" y2="178.05"/><line class="cls-1" x1="181.34" y1="178.05" x2="180.81" y2="177.74"/><line class="cls-1" x1="180.81" y1="177.74" x2="180.81" y2="176.52"/><line class="cls-1" x1="305.7" y1="305.82" x2="301.45" y2="303.37"/><line class="cls-1" x1="301.45" y1="303.37" x2="301.45" y2="302.14"/><line class="cls-1" x1="301.45" y1="302.14" x2="301.99" y2="302.45"/><line class="cls-1" x1="301.99" y1="302.45" x2="301.99" y2="298.77"/><line class="cls-1" x1="301.99" y1="298.77" x2="301.45" y2="298.47"/><line class="cls-1" x1="301.45" y1="298.47" x2="301.45" y2="297.24"/><line class="cls-1" x1="305.7" y1="300.92" x2="305.17" y2="300.61"/><line class="cls-1" x1="305.17" y1="304.29" x2="305.7" y2="304.59"/><line class="cls-1" x1="305.7" y1="304.59" x2="305.7" y2="305.82"/><line class="cls-1" x1="301.99" y1="247.71" x2="301.45" y2="247.4"/><line class="cls-1" x1="301.45" y1="247.4" x2="301.45" y2="246.17"/><line class="cls-1" x1="305.7" y1="249.85" x2="305.17" y2="249.54"/><line class="cls-1" x1="305.17" y1="253.22" x2="305.7" y2="253.53"/><line class="cls-1" x1="305.7" y1="253.53" x2="305.7" y2="254.75"/><line class="cls-1" x1="305.7" y1="254.75" x2="301.45" y2="252.3"/><line class="cls-1" x1="301.45" y1="252.3" x2="301.45" y2="251.08"/><line class="cls-1" x1="301.45" y1="251.08" x2="301.99" y2="251.38"/><line class="cls-1" x1="301.99" y1="251.38" x2="301.99" y2="247.71"/><line class="cls-1" x1="248.38" y1="267.83" x2="248.38" y2="266.6"/><line class="cls-1" x1="252.63" y1="270.28" x2="252.1" y2="269.97"/><line class="cls-1" x1="252.1" y1="273.65" x2="252.63" y2="273.95"/><line class="cls-1" x1="252.63" y1="273.95" x2="252.63" y2="275.18"/><line class="cls-1" x1="252.63" y1="275.18" x2="248.38" y2="272.73"/><line class="cls-1" x1="248.38" y1="272.73" x2="248.38" y2="271.5"/><line class="cls-1" x1="248.38" y1="271.5" x2="248.91" y2="271.81"/><line class="cls-1" x1="248.91" y1="271.81" x2="248.91" y2="268.13"/><line class="cls-1" x1="248.91" y1="268.13" x2="248.38" y2="267.83"/><line class="cls-1" x1="291.19" y1="297.45" x2="286.95" y2="294.99"/><line class="cls-1" x1="286.95" y1="294.99" x2="286.95" y2="293.77"/><line class="cls-1" x1="286.95" y1="293.77" x2="287.48" y2="294.08"/><line class="cls-1" x1="287.48" y1="294.08" x2="287.48" y2="290.4"/><line class="cls-1" x1="287.48" y1="290.4" x2="286.95" y2="290.09"/><line class="cls-1" x1="286.95" y1="290.09" x2="286.95" y2="288.86"/><line class="cls-1" x1="291.19" y1="292.54" x2="290.66" y2="292.24"/><line class="cls-1" x1="290.66" y1="295.91" x2="291.19" y2="296.22"/><line class="cls-1" x1="291.19" y1="296.22" x2="291.19" y2="297.45"/><line class="cls-1" x1="252.1" y1="222.58" x2="252.63" y2="222.89"/><line class="cls-1" x1="252.63" y1="222.89" x2="252.63" y2="224.11"/><line class="cls-1" x1="252.63" y1="224.11" x2="248.38" y2="221.66"/><line class="cls-1" x1="248.38" y1="221.66" x2="248.38" y2="220.44"/><line class="cls-1" x1="248.38" y1="220.44" x2="248.91" y2="220.74"/><line class="cls-1" x1="248.91" y1="220.74" x2="248.91" y2="217.06"/><line class="cls-1" x1="248.91" y1="217.06" x2="248.38" y2="216.76"/><line class="cls-1" x1="248.38" y1="216.76" x2="248.38" y2="215.53"/><line class="cls-1" x1="252.63" y1="219.21" x2="252.1" y2="218.9"/><line class="cls-1" x1="291.19" y1="241.47" x2="290.66" y2="241.17"/><line class="cls-1" x1="290.66" y1="244.85" x2="291.19" y2="245.15"/><line class="cls-1" x1="291.19" y1="245.15" x2="291.19" y2="246.38"/><line class="cls-1" x1="291.19" y1="246.38" x2="286.95" y2="243.93"/><line class="cls-1" x1="286.95" y1="243.93" x2="286.95" y2="242.7"/><line class="cls-1" x1="286.95" y1="242.7" x2="287.48" y2="243.01"/><line class="cls-1" x1="287.48" y1="243.01" x2="287.48" y2="239.33"/><line class="cls-1" x1="287.48" y1="239.33" x2="286.95" y2="239.02"/><line class="cls-1" x1="286.95" y1="239.02" x2="286.95" y2="237.8"/><line class="cls-1" x1="241.39" y1="233.66" x2="241.13" y2="233.81"/><line class="cls-1" x1="257.58" y1="217.98" x2="257.51" y2="217.49"/><line class="cls-1" x1="256.52" y1="216.14" x2="247.5" y2="210.94"/><line class="cls-1" x1="257.58" y1="228.81" x2="257.58" y2="217.98"/><line class="cls-1" x1="257.51" y1="217.49" x2="257.27" y2="216.94"/><line class="cls-1" x1="256.91" y1="216.46" x2="256.52" y2="216.14"/><line class="cls-1" x1="257.27" y1="216.94" x2="256.91" y2="216.46"/><line class="cls-1" x1="247.5" y1="210.94" x2="247.11" y2="210.8"/><line class="cls-1" x1="247.11" y1="210.8" x2="246.75" y2="210.86"/><line class="cls-1" x1="246.75" y1="210.86" x2="246.59" y2="211.05"/><line class="cls-1" x1="257.05" y1="229.73" x2="257.05" y2="229.12"/><line class="cls-1" x1="283.59" y1="245.05" x2="257.05" y2="229.73"/><line class="cls-1" x1="296.32" y1="240.35" x2="296.25" y2="239.86"/><line class="cls-1" x1="295.26" y1="238.51" x2="286.24" y2="233.3"/><line class="cls-1" x1="296.32" y1="262.62" x2="296.32" y2="240.35"/><line class="cls-1" x1="296.25" y1="239.86" x2="296.01" y2="239.3"/><line class="cls-1" x1="295.65" y1="238.82" x2="295.26" y2="238.51"/><line class="cls-1" x1="296.01" y1="239.3" x2="295.65" y2="238.82"/><line class="cls-1" x1="286.24" y1="233.3" x2="285.85" y2="233.16"/><line class="cls-1" x1="285.49" y1="233.23" x2="285.39" y2="233.34"/><line class="cls-1" x1="285.33" y1="233.42" x2="285.25" y2="233.51"/><line class="cls-1" x1="285.85" y1="233.16" x2="285.49" y2="233.23"/><line class="cls-1" x1="295.79" y1="263.54" x2="295.79" y2="262.92"/><line class="cls-1" x1="297.92" y1="264.76" x2="295.79" y2="263.54"/><line class="cls-1" x1="310.65" y1="248.62" x2="310.58" y2="248.13"/><line class="cls-1" x1="309.59" y1="246.79" x2="300.57" y2="241.58"/><line class="cls-1" x1="310.65" y1="259.45" x2="310.65" y2="248.62"/><line class="cls-1" x1="310.58" y1="248.13" x2="310.34" y2="247.58"/><line class="cls-1" x1="309.98" y1="247.1" x2="309.59" y2="246.79"/><line class="cls-1" x1="310.34" y1="247.58" x2="309.98" y2="247.1"/><line class="cls-1" x1="300.57" y1="241.58" x2="300.18" y2="241.44"/><line class="cls-1" x1="300.18" y1="241.44" x2="299.82" y2="241.5"/><line class="cls-1" x1="299.82" y1="241.5" x2="299.66" y2="241.69"/><line class="cls-1" x1="299.58" y1="241.78" x2="299.55" y2="241.96"/><line class="cls-1" x1="310.12" y1="260.37" x2="310.12" y2="259.76"/><line class="cls-1" x1="322.86" y1="269.56" x2="324.45" y2="268.64"/><line class="cls-1" x1="324.45" y1="268.64" x2="310.12" y2="260.37"/><line class="cls-1" x1="322.86" y1="317.98" x2="324.45" y2="317.06"/><line class="cls-1" x1="324.45" y1="317.06" x2="324.45" y2="268.64"/><line class="cls-1" x1="294.73" y1="296.42" x2="295" y2="296.27"/><line class="cls-1" x1="295.26" y1="300.2" x2="295.38" y2="300.25"/><line class="cls-1" x1="295.77" y1="300.32" x2="296.01" y2="300.28"/><line class="cls-1" x1="296.01" y1="300.28" x2="296.25" y2="300"/><line class="cls-1" x1="296.25" y1="300" x2="296.32" y2="299.59"/><line class="cls-1" x1="296.32" y1="299.59" x2="296.32" y2="296.12"/><line class="cls-1" x1="241.66" y1="265.78" x2="241.92" y2="265.63"/><line class="cls-1" x1="242.49" y1="269.67" x2="242.58" y2="269.7"/><line class="cls-1" x1="242.7" y1="269.68" x2="242.94" y2="269.64"/><line class="cls-1" x1="242.94" y1="269.64" x2="243.18" y2="269.36"/><line class="cls-1" x1="243.18" y1="269.36" x2="243.25" y2="268.95"/><line class="cls-1" x1="243.25" y1="268.95" x2="243.25" y2="265.48"/><line class="cls-1" x1="188.59" y1="235.14" x2="188.85" y2="234.99"/><line class="cls-1" x1="189.51" y1="239.06" x2="189.58" y2="239.05"/><line class="cls-1" x1="189.63" y1="239.04" x2="189.87" y2="239"/><line class="cls-1" x1="189.87" y1="239" x2="190.11" y2="238.72"/><line class="cls-1" x1="190.11" y1="238.72" x2="190.18" y2="238.31"/><line class="cls-1" x1="190.18" y1="238.31" x2="190.18" y2="234.84"/><line class="cls-1" x1="139.71" y1="205.14" x2="139.72" y2="205.14"/><line class="cls-1" x1="135.52" y1="204.5" x2="135.78" y2="204.35"/><line class="cls-1" x1="136.44" y1="208.42" x2="136.51" y2="208.41"/><line class="cls-1" x1="136.8" y1="208.36" x2="137.04" y2="208.08"/><line class="cls-1" x1="137.04" y1="208.08" x2="137.11" y2="207.67"/><line class="cls-1" x1="137.11" y1="207.67" x2="137.11" y2="204.2"/><line class="cls-1" x1="121.63" y1="152.77" x2="121.56" y2="152.28"/><line class="cls-1" x1="120.57" y1="150.93" x2="113.23" y2="146.69"/><line class="cls-1" x1="112.21" y1="147.07" x2="112.17" y2="147.31"/><line class="cls-1" x1="121.63" y1="175.44" x2="121.63" y2="152.77"/><line class="cls-1" x1="121.56" y1="152.28" x2="121.32" y2="151.72"/><line class="cls-1" x1="120.96" y1="151.24" x2="120.57" y2="150.93"/><line class="cls-1" x1="121.32" y1="151.72" x2="120.96" y2="151.24"/><line class="cls-1" x1="113.23" y1="146.69" x2="112.84" y2="146.55"/><line class="cls-1" x1="112.48" y1="146.62" x2="112.24" y2="146.9"/><line class="cls-1" x1="112.84" y1="146.55" x2="112.48" y2="146.62"/><line class="cls-1" x1="121.1" y1="176.36" x2="121.1" y2="175.75"/><line class="cls-1" x1="123.22" y1="177.59" x2="121.1" y2="176.36"/><line class="cls-1" x1="137.11" y1="161.71" x2="137.04" y2="161.21"/><line class="cls-1" x1="136.05" y1="159.87" x2="125.88" y2="154"/><line class="cls-1" x1="137.11" y1="170.7" x2="137.11" y2="161.71"/><line class="cls-1" x1="137.04" y1="161.21" x2="136.8" y2="160.66"/><line class="cls-1" x1="136.44" y1="160.18" x2="136.05" y2="159.87"/><line class="cls-1" x1="136.8" y1="160.66" x2="136.44" y2="160.18"/><line class="cls-1" x1="125.88" y1="154" x2="125.49" y2="153.86"/><line class="cls-1" x1="125.13" y1="153.92" x2="125.03" y2="154.03"/><line class="cls-1" x1="124.97" y1="154.11" x2="124.89" y2="154.2"/><line class="cls-1" x1="125.49" y1="153.86" x2="125.13" y2="153.92"/><line class="cls-1" x1="136.58" y1="171.62" x2="136.58" y2="171"/><line class="cls-1" x1="138.7" y1="172.84" x2="136.58" y2="171.62"/><line class="cls-1" x1="151.44" y1="156.7" x2="151.37" y2="156.21"/><line class="cls-1" x1="150.38" y1="154.86" x2="141.36" y2="149.66"/><line class="cls-1" x1="151.44" y1="167.53" x2="151.44" y2="156.7"/><line class="cls-1" x1="151.37" y1="156.21" x2="151.13" y2="155.66"/><line class="cls-1" x1="150.77" y1="155.18" x2="150.38" y2="154.86"/><line class="cls-1" x1="151.13" y1="155.66" x2="150.77" y2="155.18"/><line class="cls-1" x1="141.36" y1="149.66" x2="140.96" y2="149.52"/><line class="cls-1" x1="140.96" y1="149.52" x2="140.6" y2="149.58"/><line class="cls-1" x1="140.6" y1="149.58" x2="140.51" y2="149.69"/><line class="cls-1" x1="140.45" y1="149.77" x2="140.37" y2="149.86"/><line class="cls-1" x1="150.91" y1="168.45" x2="150.91" y2="167.83"/><line class="cls-1" x1="177.45" y1="183.77" x2="150.91" y2="168.45"/><line class="cls-1" x1="190.18" y1="179.07" x2="190.11" y2="178.58"/><line class="cls-1" x1="189.12" y1="177.23" x2="180.1" y2="172.02"/><line class="cls-1" x1="190.18" y1="201.34" x2="190.18" y2="179.07"/><line class="cls-1" x1="190.11" y1="178.58" x2="189.87" y2="178.02"/><line class="cls-1" x1="189.51" y1="177.54" x2="189.12" y2="177.23"/><line class="cls-1" x1="189.87" y1="178.02" x2="189.51" y2="177.54"/><line class="cls-1" x1="180.1" y1="172.02" x2="179.71" y2="171.88"/><line class="cls-1" x1="179.25" y1="172.06" x2="179.11" y2="172.23"/><line class="cls-1" x1="179.71" y1="171.88" x2="179.35" y2="171.95"/><line class="cls-1" x1="189.65" y1="202.26" x2="189.65" y2="201.64"/><line class="cls-1" x1="191.77" y1="203.48" x2="189.65" y2="202.26"/><line class="cls-1" x1="204.51" y1="187.34" x2="204.44" y2="186.85"/><line class="cls-1" x1="203.45" y1="185.5" x2="194.43" y2="180.3"/><line class="cls-1" x1="204.51" y1="198.17" x2="204.51" y2="187.34"/><line class="cls-1" x1="204.44" y1="186.85" x2="204.2" y2="186.3"/><line class="cls-1" x1="203.84" y1="185.82" x2="203.45" y2="185.5"/><line class="cls-1" x1="204.2" y1="186.3" x2="203.84" y2="185.82"/><line class="cls-1" x1="194.43" y1="180.3" x2="194.03" y2="180.16"/><line class="cls-1" x1="194.03" y1="180.16" x2="193.68" y2="180.22"/><line class="cls-1" x1="193.68" y1="180.22" x2="193.58" y2="180.33"/><line class="cls-1" x1="193.52" y1="180.41" x2="193.44" y2="180.5"/><line class="cls-1" x1="203.98" y1="199.09" x2="203.98" y2="198.48"/><line class="cls-1" x1="230.52" y1="214.41" x2="203.98" y2="199.09"/><line class="cls-1" x1="243.25" y1="209.71" x2="243.18" y2="209.22"/><line class="cls-1" x1="242.19" y1="207.87" x2="233.17" y2="202.66"/><line class="cls-1" x1="243.25" y1="231.98" x2="243.25" y2="209.71"/><line class="cls-1" x1="243.18" y1="209.22" x2="242.94" y2="208.66"/><line class="cls-1" x1="242.58" y1="208.18" x2="242.19" y2="207.87"/><line class="cls-1" x1="242.94" y1="208.66" x2="242.58" y2="208.18"/><line class="cls-1" x1="233.17" y1="202.66" x2="232.78" y2="202.52"/><line class="cls-1" x1="232.42" y1="202.59" x2="232.32" y2="202.7"/><line class="cls-1" x1="232.26" y1="202.78" x2="232.18" y2="202.87"/><line class="cls-1" x1="232.78" y1="202.52" x2="232.42" y2="202.59"/><line class="cls-1" x1="290.66" y1="241.17" x2="291.19" y2="240.86"/><line class="cls-1" x1="286.95" y1="239.02" x2="288.01" y2="238.41"/><line class="cls-1" x1="287.48" y1="239.33" x2="288.54" y2="238.72"/><line class="cls-1" x1="289.07" y1="242.09" x2="289.07" y2="239.02"/><line class="cls-1" x1="286.95" y1="243.93" x2="288.54" y2="243.01"/><line class="cls-1" x1="288.54" y1="243.01" x2="288.54" y2="242.39"/><line class="cls-1" x1="290.66" y1="244.23" x2="288.54" y2="243.01"/><line class="cls-1" x1="252.1" y1="218.9" x2="252.63" y2="218.6"/><line class="cls-1" x1="248.38" y1="216.76" x2="249.45" y2="216.14"/><line class="cls-1" x1="248.91" y1="217.06" x2="249.98" y2="216.45"/><line class="cls-1" x1="250.51" y1="219.82" x2="250.51" y2="216.76"/><line class="cls-1" x1="248.38" y1="221.66" x2="249.98" y2="220.74"/><line class="cls-1" x1="249.98" y1="220.74" x2="249.98" y2="220.13"/><line class="cls-1" x1="252.1" y1="221.97" x2="249.98" y2="220.74"/><line class="cls-1" x1="286.95" y1="294.99" x2="288.54" y2="294.08"/><line class="cls-1" x1="288.54" y1="294.08" x2="288.54" y2="293.46"/><line class="cls-1" x1="290.66" y1="295.3" x2="288.54" y2="294.08"/><line class="cls-1" x1="290.66" y1="292.24" x2="291.19" y2="291.93"/><line class="cls-1" x1="286.95" y1="290.09" x2="288.01" y2="289.48"/><line class="cls-1" x1="287.48" y1="290.4" x2="288.54" y2="289.78"/><line class="cls-1" x1="289.07" y1="293.16" x2="289.07" y2="290.09"/><line class="cls-1" x1="248.38" y1="267.83" x2="249.45" y2="267.21"/><line class="cls-1" x1="248.91" y1="268.13" x2="249.98" y2="267.52"/><line class="cls-1" x1="250.51" y1="270.89" x2="250.51" y2="267.83"/><line class="cls-1" x1="248.38" y1="272.73" x2="249.98" y2="271.81"/><line class="cls-1" x1="249.98" y1="271.81" x2="249.98" y2="271.2"/><line class="cls-1" x1="252.1" y1="273.04" x2="249.98" y2="271.81"/><line class="cls-1" x1="252.1" y1="269.97" x2="252.63" y2="269.67"/><line class="cls-1" x1="301.45" y1="252.3" x2="303.05" y2="251.38"/><line class="cls-1" x1="303.05" y1="251.38" x2="303.05" y2="250.77"/><line class="cls-1" x1="305.17" y1="252.61" x2="303.05" y2="251.38"/><line class="cls-1" x1="305.17" y1="249.54" x2="305.7" y2="249.24"/><line class="cls-1" x1="301.45" y1="247.4" x2="302.52" y2="246.79"/><line class="cls-1" x1="301.99" y1="247.71" x2="303.05" y2="247.09"/><line class="cls-1" x1="303.58" y1="250.46" x2="303.58" y2="247.4"/><line class="cls-1" x1="305.17" y1="300.61" x2="305.7" y2="300.31"/><line class="cls-1" x1="301.45" y1="298.47" x2="302.52" y2="297.85"/><line class="cls-1" x1="301.99" y1="298.77" x2="303.05" y2="298.16"/><line class="cls-1" x1="303.58" y1="301.53" x2="303.58" y2="298.47"/><line class="cls-1" x1="301.45" y1="303.37" x2="303.05" y2="302.45"/><line class="cls-1" x1="303.05" y1="302.45" x2="303.05" y2="301.84"/><line class="cls-1" x1="305.17" y1="303.68" x2="303.05" y2="302.45"/><line class="cls-1" x1="184.52" y1="179.89" x2="185.05" y2="179.58"/><line class="cls-1" x1="180.81" y1="177.74" x2="181.87" y2="177.13"/><line class="cls-1" x1="181.34" y1="178.05" x2="182.4" y2="177.44"/><line class="cls-1" x1="182.93" y1="180.81" x2="182.93" y2="177.74"/><line class="cls-1" x1="180.81" y1="182.64" x2="182.4" y2="181.73"/><line class="cls-1" x1="182.4" y1="181.73" x2="182.4" y2="181.11"/><line class="cls-1" x1="184.52" y1="182.95" x2="182.4" y2="181.73"/><line class="cls-1" x1="145.95" y1="157.62" x2="146.48" y2="157.32"/><line class="cls-1" x1="142.24" y1="155.48" x2="143.3" y2="154.86"/><line class="cls-1" x1="142.77" y1="155.78" x2="143.83" y2="155.17"/><line class="cls-1" x1="144.36" y1="158.54" x2="144.36" y2="155.48"/><line class="cls-1" x1="142.24" y1="160.38" x2="143.83" y2="159.46"/><line class="cls-1" x1="143.83" y1="159.46" x2="143.83" y2="158.85"/><line class="cls-1" x1="145.95" y1="160.69" x2="143.83" y2="159.46"/><line class="cls-1" x1="180.81" y1="233.71" x2="182.4" y2="232.79"/><line class="cls-1" x1="182.4" y1="232.79" x2="182.4" y2="232.18"/><line class="cls-1" x1="184.52" y1="234.02" x2="182.4" y2="232.79"/><line class="cls-1" x1="184.52" y1="230.95" x2="185.05" y2="230.65"/><line class="cls-1" x1="180.81" y1="228.81" x2="181.87" y2="228.2"/><line class="cls-1" x1="181.34" y1="229.12" x2="182.4" y2="228.5"/><line class="cls-1" x1="182.93" y1="231.87" x2="182.93" y2="228.81"/><line class="cls-1" x1="142.24" y1="206.54" x2="143.3" y2="205.93"/><line class="cls-1" x1="142.77" y1="206.85" x2="143.83" y2="206.24"/><line class="cls-1" x1="144.36" y1="209.61" x2="144.36" y2="206.54"/><line class="cls-1" x1="142.24" y1="211.45" x2="143.83" y2="210.53"/><line class="cls-1" x1="143.83" y1="210.53" x2="143.83" y2="209.91"/><line class="cls-1" x1="145.95" y1="211.75" x2="143.83" y2="210.53"/><line class="cls-1" x1="145.95" y1="208.69" x2="146.48" y2="208.38"/><line class="cls-1" x1="237.59" y1="210.53" x2="238.12" y2="210.22"/><line class="cls-1" x1="233.88" y1="208.38" x2="234.94" y2="207.77"/><line class="cls-1" x1="234.41" y1="208.69" x2="235.47" y2="208.08"/><line class="cls-1" x1="236" y1="211.45" x2="236" y2="208.38"/><line class="cls-1" x1="233.88" y1="213.28" x2="235.47" y2="212.37"/><line class="cls-1" x1="235.47" y1="212.37" x2="235.47" y2="211.75"/><line class="cls-1" x1="237.59" y1="213.59" x2="235.47" y2="212.37"/><line class="cls-1" x1="199.03" y1="188.26" x2="199.56" y2="187.96"/><line class="cls-1" x1="195.31" y1="186.12" x2="196.37" y2="185.5"/><line class="cls-1" x1="195.84" y1="186.42" x2="196.9" y2="185.81"/><line class="cls-1" x1="197.44" y1="189.18" x2="197.44" y2="186.12"/><line class="cls-1" x1="195.31" y1="191.02" x2="196.9" y2="190.1"/><line class="cls-1" x1="196.9" y1="190.1" x2="196.9" y2="189.49"/><line class="cls-1" x1="199.03" y1="191.33" x2="196.9" y2="190.1"/><line class="cls-1" x1="233.88" y1="264.35" x2="235.47" y2="263.43"/><line class="cls-1" x1="235.47" y1="263.43" x2="235.47" y2="262.82"/><line class="cls-1" x1="237.59" y1="264.66" x2="235.47" y2="263.43"/><line class="cls-1" x1="237.59" y1="261.59" x2="238.12" y2="261.29"/><line class="cls-1" x1="233.88" y1="259.45" x2="234.94" y2="258.84"/><line class="cls-1" x1="234.41" y1="259.76" x2="235.47" y2="259.14"/><line class="cls-1" x1="236" y1="262.51" x2="236" y2="259.45"/><line class="cls-1" x1="195.31" y1="237.18" x2="196.37" y2="236.57"/><line class="cls-1" x1="195.84" y1="237.49" x2="196.9" y2="236.88"/><line class="cls-1" x1="197.44" y1="240.25" x2="197.44" y2="237.18"/><line class="cls-1" x1="195.31" y1="242.09" x2="196.9" y2="241.17"/><line class="cls-1" x1="196.9" y1="241.17" x2="196.9" y2="240.55"/><line class="cls-1" x1="199.03" y1="242.39" x2="196.9" y2="241.17"/><line class="cls-1" x1="199.03" y1="239.33" x2="199.56" y2="239.02"/><line class="cls-1" x1="230.52" y1="204.2" x2="230.52" y2="214.41"/><line class="cls-1" x1="230.52" y1="214.41" x2="230.52" y2="215.02"/><line class="cls-1" x1="191.77" y1="181.83" x2="191.77" y2="203.48"/><line class="cls-1" x1="191.77" y1="203.48" x2="191.77" y2="204.09"/><line class="cls-1" x1="177.45" y1="173.56" x2="177.45" y2="183.77"/><line class="cls-1" x1="177.45" y1="183.77" x2="177.45" y2="184.38"/><line class="cls-1" x1="138.7" y1="151.19" x2="138.7" y2="172.84"/><line class="cls-1" x1="138.7" y1="172.84" x2="138.7" y2="173.45"/><line class="cls-1" x1="123.22" y1="155.53" x2="123.22" y2="177.59"/><line class="cls-1" x1="123.22" y1="177.59" x2="123.22" y2="178.2"/><line class="cls-1" x1="110.57" y1="148.23" x2="110.57" y2="156.6"/><line class="cls-1" x1="110.57" y1="156.6" x2="110.57" y2="157.21"/><line class="cls-1" x1="111.11" y1="189.79" x2="111.11" y2="190.41"/><line class="cls-1" x1="137.11" y1="204.2" x2="139.23" y2="205.42"/><line class="cls-1" x1="139.23" y1="206.03" x2="139.23" y2="206.65"/><line class="cls-1" x1="189.12" y1="234.22" x2="189.65" y2="234.53"/><line class="cls-1" x1="192.3" y1="236.67" x2="192.3" y2="237.29"/><line class="cls-1" x1="245.38" y1="267.31" x2="245.38" y2="267.93"/><line class="cls-1" x1="295.26" y1="295.51" x2="295.79" y2="295.81"/><line class="cls-1" x1="298.45" y1="297.96" x2="298.45" y2="298.57"/><line class="cls-1" x1="297.92" y1="243.11" x2="297.92" y2="264.76"/><line class="cls-1" x1="297.92" y1="264.76" x2="297.92" y2="265.37"/><line class="cls-1" x1="283.59" y1="234.84" x2="283.59" y2="245.05"/><line class="cls-1" x1="283.59" y1="245.05" x2="283.59" y2="245.66"/><line class="cls-1" x1="244.84" y1="212.47" x2="244.84" y2="234.12"/><line class="cls-1" x1="244.84" y1="234.12" x2="244.84" y2="234.73"/><line class="cls-1" x1="197.44" y1="237.18" x2="199.56" y2="238.41"/><line class="cls-1" x1="199.56" y1="238.41" x2="199.56" y2="239.02"/><line class="cls-1" x1="199.56" y1="239.02" x2="199.56" y2="239.64"/><line class="cls-1" x1="199.03" y1="239.33" x2="199.03" y2="242.39"/><line class="cls-1" x1="199.03" y1="242.39" x2="199.03" y2="243.01"/><line class="cls-1" x1="233.88" y1="258.22" x2="234.94" y2="258.84"/><line class="cls-1" x1="238.12" y1="260.68" x2="238.12" y2="261.29"/><line class="cls-1" x1="238.12" y1="261.29" x2="238.12" y2="261.9"/><line class="cls-1" x1="237.59" y1="261.59" x2="237.59" y2="264.66"/><line class="cls-1" x1="237.59" y1="264.66" x2="237.59" y2="265.27"/><line class="cls-1" x1="199.03" y1="188.26" x2="199.03" y2="191.33"/><line class="cls-1" x1="199.03" y1="191.33" x2="199.03" y2="191.94"/><line class="cls-1" x1="197.44" y1="186.12" x2="199.56" y2="187.34"/><line class="cls-1" x1="199.56" y1="187.34" x2="199.56" y2="187.96"/><line class="cls-1" x1="199.56" y1="187.96" x2="199.56" y2="188.57"/><line class="cls-1" x1="237.59" y1="210.53" x2="237.59" y2="213.59"/><line class="cls-1" x1="237.59" y1="213.59" x2="237.59" y2="214.2"/><line class="cls-1" x1="236" y1="208.38" x2="238.12" y2="209.61"/><line class="cls-1" x1="238.12" y1="209.61" x2="238.12" y2="210.22"/><line class="cls-1" x1="238.12" y1="210.22" x2="238.12" y2="210.83"/><line class="cls-1" x1="144.36" y1="206.54" x2="146.48" y2="207.77"/><line class="cls-1" x1="146.48" y1="207.77" x2="146.48" y2="208.38"/><line class="cls-1" x1="146.48" y1="208.38" x2="146.48" y2="209"/><line class="cls-1" x1="145.95" y1="208.69" x2="145.95" y2="211.75"/><line class="cls-1" x1="145.95" y1="211.75" x2="145.95" y2="212.37"/><line class="cls-1" x1="180.81" y1="227.58" x2="181.87" y2="228.2"/><line class="cls-1" x1="185.05" y1="230.04" x2="185.05" y2="230.65"/><line class="cls-1" x1="185.05" y1="230.65" x2="185.05" y2="231.26"/><line class="cls-1" x1="184.52" y1="230.95" x2="184.52" y2="234.02"/><line class="cls-1" x1="184.52" y1="234.02" x2="184.52" y2="234.63"/><line class="cls-1" x1="145.95" y1="157.62" x2="145.95" y2="160.69"/><line class="cls-1" x1="145.95" y1="160.69" x2="145.95" y2="161.3"/><line class="cls-1" x1="146.48" y1="156.7" x2="146.48" y2="157.32"/><line class="cls-1" x1="146.48" y1="157.32" x2="146.48" y2="157.93"/><line class="cls-1" x1="184.52" y1="179.89" x2="184.52" y2="182.95"/><line class="cls-1" x1="184.52" y1="182.95" x2="184.52" y2="183.56"/><line class="cls-1" x1="180.81" y1="176.52" x2="181.87" y2="177.13"/><line class="cls-1" x1="185.05" y1="178.97" x2="185.05" y2="179.58"/><line class="cls-1" x1="185.05" y1="179.58" x2="185.05" y2="180.19"/><line class="cls-1" x1="301.45" y1="297.24" x2="302.52" y2="297.85"/><line class="cls-1" x1="305.7" y1="299.69" x2="305.7" y2="300.31"/><line class="cls-1" x1="305.7" y1="300.31" x2="305.7" y2="300.92"/><line class="cls-1" x1="305.17" y1="300.61" x2="305.17" y2="303.68"/><line class="cls-1" x1="305.17" y1="303.68" x2="305.17" y2="304.29"/><line class="cls-1" x1="301.45" y1="246.17" x2="302.52" y2="246.79"/><line class="cls-1" x1="305.7" y1="248.62" x2="305.7" y2="249.24"/><line class="cls-1" x1="305.7" y1="249.24" x2="305.7" y2="249.85"/><line class="cls-1" x1="305.17" y1="249.54" x2="305.17" y2="252.61"/><line class="cls-1" x1="305.17" y1="252.61" x2="305.17" y2="253.22"/><line class="cls-1" x1="250.51" y1="267.83" x2="252.63" y2="269.05"/><line class="cls-1" x1="252.63" y1="269.05" x2="252.63" y2="269.67"/><line class="cls-1" x1="252.63" y1="269.67" x2="252.63" y2="270.28"/><line class="cls-1" x1="252.1" y1="269.97" x2="252.1" y2="273.04"/><line class="cls-1" x1="252.1" y1="273.04" x2="252.1" y2="273.65"/><line class="cls-1" x1="286.95" y1="288.86" x2="288.01" y2="289.48"/><line class="cls-1" x1="291.19" y1="291.32" x2="291.19" y2="291.93"/><line class="cls-1" x1="291.19" y1="291.93" x2="291.19" y2="292.54"/><line class="cls-1" x1="290.66" y1="292.24" x2="290.66" y2="295.3"/><line class="cls-1" x1="290.66" y1="295.3" x2="290.66" y2="295.91"/><line class="cls-1" x1="252.1" y1="218.9" x2="252.1" y2="221.97"/><line class="cls-1" x1="252.1" y1="221.97" x2="252.1" y2="222.58"/><line class="cls-1" x1="248.38" y1="215.53" x2="249.45" y2="216.14"/><line class="cls-1" x1="252.63" y1="217.98" x2="252.63" y2="218.6"/><line class="cls-1" x1="252.63" y1="218.6" x2="252.63" y2="219.21"/><line class="cls-1" x1="290.66" y1="241.17" x2="290.66" y2="244.23"/><line class="cls-1" x1="290.66" y1="244.23" x2="290.66" y2="244.85"/><line class="cls-1" x1="286.95" y1="237.8" x2="288.01" y2="238.41"/><line class="cls-1" x1="291.19" y1="240.25" x2="291.19" y2="240.86"/><line class="cls-1" x1="291.19" y1="240.86" x2="291.19" y2="241.47"/><line class="cls-1" x1="243.25" y1="265.48" x2="242.72" y2="265.17"/><line class="cls-1" x1="242.72" y1="265.17" x2="242.19" y2="264.86"/><line class="cls-1" x1="287.48" y1="243.01" x2="288.54" y2="242.39"/><line class="cls-1" x1="288.54" y1="242.39" x2="289.07" y2="242.09"/><line class="cls-1" x1="248.91" y1="220.74" x2="249.98" y2="220.13"/><line class="cls-1" x1="249.98" y1="220.13" x2="250.51" y2="219.82"/><line class="cls-1" x1="289.07" y1="293.16" x2="288.54" y2="293.46"/><line class="cls-1" x1="288.54" y1="293.46" x2="287.48" y2="294.08"/><line class="cls-1" x1="248.91" y1="271.81" x2="249.98" y2="271.2"/><line class="cls-1" x1="249.98" y1="271.2" x2="250.51" y2="270.89"/><line class="cls-1" x1="301.99" y1="251.38" x2="303.05" y2="250.77"/><line class="cls-1" x1="303.05" y1="250.77" x2="303.58" y2="250.46"/><line class="cls-1" x1="301.99" y1="302.45" x2="303.05" y2="301.84"/><line class="cls-1" x1="303.05" y1="301.84" x2="303.58" y2="301.53"/><line class="cls-1" x1="181.34" y1="181.73" x2="182.4" y2="181.11"/><line class="cls-1" x1="182.4" y1="181.11" x2="182.93" y2="180.81"/><line class="cls-1" x1="142.77" y1="159.46" x2="143.83" y2="158.85"/><line class="cls-1" x1="143.83" y1="158.85" x2="144.36" y2="158.54"/><line class="cls-1" x1="182.93" y1="231.87" x2="182.4" y2="232.18"/><line class="cls-1" x1="182.4" y1="232.18" x2="181.34" y2="232.79"/><line class="cls-1" x1="142.77" y1="210.53" x2="143.83" y2="209.91"/><line class="cls-1" x1="143.83" y1="209.91" x2="144.36" y2="209.61"/><line class="cls-1" x1="234.41" y1="212.37" x2="235.47" y2="211.75"/><line class="cls-1" x1="235.47" y1="211.75" x2="236" y2="211.45"/><line class="cls-1" x1="195.84" y1="190.1" x2="196.9" y2="189.49"/><line class="cls-1" x1="196.9" y1="189.49" x2="197.44" y2="189.18"/><line class="cls-1" x1="236" y1="262.51" x2="235.47" y2="262.82"/><line class="cls-1" x1="235.47" y1="262.82" x2="234.41" y2="263.43"/><line class="cls-1" x1="195.84" y1="241.17" x2="196.9" y2="240.55"/><line class="cls-1" x1="196.9" y1="240.55" x2="197.44" y2="240.25"/><line class="cls-1" x1="136.05" y1="203.58" x2="136.58" y2="203.89"/><line class="cls-1" x1="136.58" y1="203.89" x2="137.11" y2="204.2"/><line class="cls-1" x1="189.65" y1="234.53" x2="190.18" y2="234.84"/><line class="cls-1" x1="190.18" y1="234.84" x2="192.3" y2="236.06"/><line class="cls-1" x1="295.79" y1="295.81" x2="296.32" y2="296.12"/><line class="cls-1" x1="296.32" y1="296.12" x2="298.45" y2="297.34"/><line class="cls-1" x1="195.31" y1="235.96" x2="196.37" y2="236.57"/><line class="cls-1" x1="234.94" y1="258.84" x2="235.47" y2="259.14"/><line class="cls-1" x1="195.31" y1="184.89" x2="196.37" y2="185.5"/><line class="cls-1" x1="235.47" y1="208.08" x2="236" y2="208.38"/><line class="cls-1" x1="142.24" y1="205.32" x2="143.3" y2="205.93"/><line class="cls-1" x1="181.87" y1="228.2" x2="182.4" y2="228.5"/><line class="cls-1" x1="142.24" y1="154.25" x2="143.3" y2="154.86"/><line class="cls-1" x1="143.3" y1="154.86" x2="143.83" y2="155.17"/><line class="cls-1" x1="143.83" y1="155.17" x2="144.36" y2="155.48"/><line class="cls-1" x1="144.36" y1="155.48" x2="146.48" y2="156.7"/><line class="cls-1" x1="181.87" y1="177.13" x2="182.4" y2="177.44"/><line class="cls-1" x1="302.52" y1="297.85" x2="303.05" y2="298.16"/><line class="cls-1" x1="302.52" y1="246.79" x2="303.05" y2="247.09"/><line class="cls-1" x1="248.38" y1="266.6" x2="249.45" y2="267.21"/><line class="cls-1" x1="288.01" y1="289.48" x2="288.54" y2="289.78"/><line class="cls-1" x1="249.45" y1="216.14" x2="249.98" y2="216.45"/><line class="cls-1" x1="288.01" y1="238.41" x2="288.54" y2="238.72"/><line class="cls-1" x1="196.37" y1="236.57" x2="196.9" y2="236.88"/><line class="cls-1" x1="196.9" y1="236.88" x2="197.44" y2="237.18"/><line class="cls-1" x1="235.47" y1="259.14" x2="236" y2="259.45"/><line class="cls-1" x1="236" y1="259.45" x2="238.12" y2="260.68"/><line class="cls-1" x1="196.37" y1="185.5" x2="196.9" y2="185.81"/><line class="cls-1" x1="196.9" y1="185.81" x2="197.44" y2="186.12"/><line class="cls-1" x1="233.88" y1="207.16" x2="234.94" y2="207.77"/><line class="cls-1" x1="234.94" y1="207.77" x2="235.47" y2="208.08"/><line class="cls-1" x1="143.3" y1="205.93" x2="143.83" y2="206.24"/><line class="cls-1" x1="143.83" y1="206.24" x2="144.36" y2="206.54"/><line class="cls-1" x1="182.4" y1="228.5" x2="182.93" y2="228.81"/><line class="cls-1" x1="182.93" y1="228.81" x2="185.05" y2="230.04"/><line class="cls-1" x1="182.4" y1="177.44" x2="182.93" y2="177.74"/><line class="cls-1" x1="182.93" y1="177.74" x2="185.05" y2="178.97"/><line class="cls-1" x1="303.05" y1="298.16" x2="303.58" y2="298.47"/><line class="cls-1" x1="303.58" y1="298.47" x2="305.7" y2="299.69"/><line class="cls-1" x1="303.05" y1="247.09" x2="303.58" y2="247.4"/><line class="cls-1" x1="303.58" y1="247.4" x2="305.7" y2="248.62"/><line class="cls-1" x1="249.45" y1="267.21" x2="249.98" y2="267.52"/><line class="cls-1" x1="249.98" y1="267.52" x2="250.51" y2="267.83"/><line class="cls-1" x1="288.54" y1="289.78" x2="289.07" y2="290.09"/><line class="cls-1" x1="289.07" y1="290.09" x2="291.19" y2="291.32"/><line class="cls-1" x1="249.98" y1="216.45" x2="250.51" y2="216.76"/><line class="cls-1" x1="250.51" y1="216.76" x2="252.63" y2="217.98"/><line class="cls-1" x1="288.54" y1="238.72" x2="289.07" y2="239.02"/><line class="cls-1" x1="289.07" y1="239.02" x2="291.19" y2="240.25"/><line class="cls-1" x1="245.38" y1="236.27" x2="245.38" y2="235.04"/><line class="cls-1" x1="241.13" y1="233.81" x2="241.13" y2="232.59"/><line class="cls-1" x1="241.13" y1="232.59" x2="241.66" y2="232.9"/><line class="cls-1" x1="230.52" y1="215.02" x2="231.05" y2="215.33"/><line class="cls-1" x1="231.05" y1="215.33" x2="231.05" y2="216.55"/><line class="cls-1" x1="231.05" y1="216.55" x2="202.39" y2="200.01"/><line class="cls-1" x1="202.39" y1="200.01" x2="202.39" y2="198.78"/><line class="cls-1" x1="202.39" y1="198.78" x2="202.92" y2="199.09"/><line class="cls-1" x1="191.77" y1="204.09" x2="192.3" y2="204.4"/><line class="cls-1" x1="192.3" y1="204.4" x2="192.3" y2="205.63"/><line class="cls-1" x1="192.3" y1="205.63" x2="188.06" y2="203.17"/><line class="cls-1" x1="188.06" y1="203.17" x2="188.06" y2="201.95"/><line class="cls-1" x1="188.06" y1="201.95" x2="188.59" y2="202.26"/><line class="cls-1" x1="177.45" y1="184.38" x2="177.98" y2="184.69"/><line class="cls-1" x1="177.98" y1="184.69" x2="177.98" y2="185.91"/><line class="cls-1" x1="177.98" y1="185.91" x2="149.32" y2="169.37"/><line class="cls-1" x1="149.32" y1="169.37" x2="149.32" y2="168.14"/><line class="cls-1" x1="149.32" y1="168.14" x2="149.85" y2="168.45"/><line class="cls-1" x1="138.7" y1="173.45" x2="139.23" y2="173.76"/><line class="cls-1" x1="139.23" y1="173.76" x2="139.23" y2="174.99"/><line class="cls-1" x1="139.23" y1="174.99" x2="134.99" y2="172.53"/><line class="cls-1" x1="134.99" y1="172.53" x2="134.99" y2="171.31"/><line class="cls-1" x1="134.99" y1="171.31" x2="135.52" y2="171.62"/><line class="cls-1" x1="123.22" y1="178.2" x2="123.76" y2="178.51"/><line class="cls-1" x1="123.76" y1="178.51" x2="123.76" y2="179.73"/><line class="cls-1" x1="123.76" y1="179.73" x2="119.51" y2="177.28"/><line class="cls-1" x1="119.51" y1="177.28" x2="119.51" y2="176.06"/><line class="cls-1" x1="119.51" y1="176.06" x2="120.04" y2="176.36"/><line class="cls-1" x1="110.57" y1="157.21" x2="111.11" y2="157.52"/><line class="cls-1" x1="111.11" y1="157.52" x2="111.11" y2="158.74"/><line class="cls-1" x1="111.11" y1="158.74" x2="108.98" y2="157.52"/><line class="cls-1" x1="108.98" y1="157.52" x2="108.98" y2="187.96"/><line class="cls-1" x1="108.98" y1="187.96" x2="111.11" y2="189.18"/><line class="cls-1" x1="111.11" y1="189.18" x2="111.11" y2="189.79"/><line class="cls-1" x1="111.11" y1="190.41" x2="110.57" y2="190.1"/><line class="cls-1" x1="135.52" y1="204.5" x2="134.99" y2="204.2"/><line class="cls-1" x1="134.99" y1="204.2" x2="134.99" y2="202.97"/><line class="cls-1" x1="139.23" y1="205.42" x2="139.23" y2="206.03"/><line class="cls-1" x1="139.23" y1="206.65" x2="138.7" y2="206.34"/><line class="cls-1" x1="188.59" y1="235.14" x2="188.06" y2="234.84"/><line class="cls-1" x1="188.06" y1="234.84" x2="188.06" y2="233.61"/><line class="cls-1" x1="192.3" y1="236.06" x2="192.3" y2="236.67"/><line class="cls-1" x1="192.3" y1="237.29" x2="191.77" y2="236.98"/><line class="cls-1" x1="241.66" y1="265.78" x2="241.13" y2="265.48"/><line class="cls-1" x1="241.13" y1="265.48" x2="241.13" y2="264.25"/><line class="cls-1" x1="245.38" y1="266.7" x2="245.38" y2="267.31"/><line class="cls-1" x1="245.38" y1="267.93" x2="244.84" y2="267.62"/><line class="cls-1" x1="294.73" y1="296.42" x2="294.2" y2="296.12"/><line class="cls-1" x1="294.2" y1="296.12" x2="294.2" y2="294.89"/><line class="cls-1" x1="298.45" y1="297.34" x2="298.45" y2="297.96"/><line class="cls-1" x1="298.45" y1="298.57" x2="297.92" y2="298.26"/><line class="cls-1" x1="322.86" y1="317.98" x2="322.86" y2="269.56"/><line class="cls-1" x1="322.86" y1="269.56" x2="308.53" y2="261.29"/><line class="cls-1" x1="308.53" y1="261.29" x2="308.53" y2="260.06"/><line class="cls-1" x1="308.53" y1="260.06" x2="309.06" y2="260.37"/><line class="cls-1" x1="297.92" y1="265.37" x2="298.45" y2="265.68"/><line class="cls-1" x1="298.45" y1="265.68" x2="298.45" y2="266.91"/><line class="cls-1" x1="298.45" y1="266.91" x2="294.2" y2="264.45"/><line class="cls-1" x1="294.2" y1="264.45" x2="294.2" y2="263.23"/><line class="cls-1" x1="294.2" y1="263.23" x2="294.73" y2="263.54"/><line class="cls-1" x1="283.59" y1="245.66" x2="284.12" y2="245.97"/><line class="cls-1" x1="284.12" y1="245.97" x2="284.12" y2="247.2"/><line class="cls-1" x1="284.12" y1="247.2" x2="255.46" y2="230.65"/><line class="cls-1" x1="255.46" y1="230.65" x2="255.46" y2="229.42"/><line class="cls-1" x1="255.46" y1="229.42" x2="255.99" y2="229.73"/><line class="cls-1" x1="244.84" y1="234.73" x2="245.38" y2="235.04"/><line class="cls-1" x1="244.84" y1="234.12" x2="242.72" y2="232.9"/><line class="cls-1" x1="242.72" y1="232.9" x2="241.39" y2="233.66"/><line class="cls-1" x1="241.13" y1="233.81" x2="245.38" y2="236.27"/><line class="cls-1" x1="246.75" y1="210.86" x2="245.15" y2="211.78"/><line class="cls-1" x1="257.05" y1="229.12" x2="255.99" y2="229.73"/><line class="cls-1" x1="257.05" y1="229.12" x2="257.58" y2="228.81"/><line class="cls-1" x1="257.05" y1="229.73" x2="255.46" y2="230.65"/><line class="cls-1" x1="285.49" y1="233.23" x2="283.9" y2="234.15"/><line class="cls-1" x1="295.79" y1="262.92" x2="294.73" y2="263.54"/><line class="cls-1" x1="295.79" y1="262.92" x2="296.32" y2="262.62"/><line class="cls-1" x1="295.79" y1="263.54" x2="294.2" y2="264.45"/><line class="cls-1" x1="299.82" y1="241.5" x2="298.23" y2="242.42"/><line class="cls-1" x1="310.12" y1="259.76" x2="309.06" y2="260.37"/><line class="cls-1" x1="310.12" y1="259.76" x2="310.65" y2="259.45"/><line class="cls-1" x1="310.12" y1="260.37" x2="308.53" y2="261.29"/><line class="cls-1" x1="298.45" y1="297.96" x2="297.92" y2="298.26"/><line class="cls-1" x1="295.26" y1="295.51" x2="294.2" y2="296.12"/><line class="cls-1" x1="296.01" y1="300.28" x2="294.42" y2="301.2"/><line class="cls-1" x1="245.38" y1="267.31" x2="244.84" y2="267.62"/><line class="cls-1" x1="295.79" y1="295.81" x2="295" y2="296.27"/><line class="cls-1" x1="243.25" y1="265.48" x2="245.38" y2="266.7"/><line class="cls-1" x1="242.19" y1="264.86" x2="241.13" y2="265.48"/><line class="cls-1" x1="242.94" y1="269.64" x2="241.35" y2="270.56"/><line class="cls-1" x1="192.3" y1="236.67" x2="191.77" y2="236.98"/><line class="cls-1" x1="242.72" y1="265.17" x2="241.92" y2="265.63"/><line class="cls-1" x1="189.12" y1="234.22" x2="188.06" y2="234.84"/><line class="cls-1" x1="189.87" y1="239" x2="188.28" y2="239.91"/><line class="cls-1" x1="139.23" y1="206.03" x2="138.7" y2="206.34"/><line class="cls-1" x1="188.85" y1="234.99" x2="189.65" y2="234.53"/><line class="cls-1" x1="136.05" y1="203.58" x2="134.99" y2="204.2"/><line class="cls-1" x1="136.8" y1="208.36" x2="135.21" y2="209.27"/><line class="cls-1" x1="111.11" y1="189.79" x2="110.57" y2="190.1"/><line class="cls-1" x1="135.78" y1="204.35" x2="136.58" y2="203.89"/><line class="cls-1" x1="110.57" y1="156.6" x2="108.98" y2="157.52"/><line class="cls-1" x1="112.48" y1="146.62" x2="110.89" y2="147.54"/><line class="cls-1" x1="121.1" y1="175.75" x2="121.63" y2="175.44"/><line class="cls-1" x1="121.1" y1="175.75" x2="120.04" y2="176.36"/><line class="cls-1" x1="121.1" y1="176.36" x2="119.51" y2="177.28"/><line class="cls-1" x1="125.13" y1="153.92" x2="123.54" y2="154.84"/><line class="cls-1" x1="136.58" y1="171" x2="135.52" y2="171.62"/><line class="cls-1" x1="136.58" y1="171" x2="137.11" y2="170.7"/><line class="cls-1" x1="136.58" y1="171.62" x2="134.99" y2="172.53"/><line class="cls-1" x1="140.6" y1="149.58" x2="139.01" y2="150.5"/><line class="cls-1" x1="150.91" y1="167.83" x2="149.85" y2="168.45"/><line class="cls-1" x1="150.91" y1="167.83" x2="151.44" y2="167.53"/><line class="cls-1" x1="150.91" y1="168.45" x2="149.32" y2="169.37"/><line class="cls-1" x1="179.35" y1="171.95" x2="177.76" y2="172.87"/><line class="cls-1" x1="189.65" y1="201.64" x2="188.59" y2="202.26"/><line class="cls-1" x1="189.65" y1="201.64" x2="190.18" y2="201.34"/><line class="cls-1" x1="189.65" y1="202.26" x2="188.06" y2="203.17"/><line class="cls-1" x1="193.68" y1="180.22" x2="192.08" y2="181.14"/><line class="cls-1" x1="203.98" y1="198.48" x2="202.92" y2="199.09"/><line class="cls-1" x1="203.98" y1="198.48" x2="204.51" y2="198.17"/><line class="cls-1" x1="203.98" y1="199.09" x2="202.39" y2="200.01"/><line class="cls-1" x1="232.42" y1="202.59" x2="230.83" y2="203.51"/><line class="cls-1" x1="242.72" y1="232.28" x2="241.66" y2="232.9"/><line class="cls-1" x1="242.72" y1="232.28" x2="243.25" y2="231.98"/><line class="cls-1" x1="242.72" y1="232.9" x2="242.72" y2="232.28"/><polygon class="cls-2" points="324.52 317.55 322.93 318.47 299.05 304.68 298.66 304.37 298.3 303.89 298.06 303.34 297.99 302.84 297.99 298.76 298.52 298.45 298.52 297.84 296.39 296.61 296.39 300.09 296.32 300.49 296.08 300.77 294.49 301.69 294.13 301.76 293.74 301.62 245.98 274.04 245.59 273.73 245.23 273.25 244.99 272.7 244.92 272.2 244.92 268.12 245.45 267.81 245.45 267.2 243.32 265.97 243.32 269.44 243.25 269.85 243.01 270.13 241.42 271.05 241.06 271.12 240.67 270.98 192.91 243.4 192.52 243.09 192.16 242.61 191.92 242.06 191.85 241.56 191.85 237.48 192.38 237.17 192.38 236.56 190.25 235.33 190.25 238.8 190.18 239.21 189.94 239.49 188.35 240.41 187.99 240.47 187.6 240.34 139.84 212.76 139.44 212.45 139.09 211.97 138.85 211.41 138.77 210.92 138.77 206.84 139.31 206.53 139.31 205.92 137.18 204.69 137.18 208.16 137.11 208.57 136.87 208.85 135.28 209.77 134.92 209.83 134.53 209.69 111.71 196.52 111.32 196.21 110.96 195.73 110.72 195.18 110.65 194.68 110.65 190.59 111.18 190.29 111.18 189.68 109.06 188.45 109.06 158.01 110.65 157.1 110.65 148.72 110.72 148.31 110.96 148.03 112.55 147.11 112.91 147.05 113.3 147.19 120.64 151.43 121.03 151.74 121.39 152.22 121.63 152.77 121.7 153.27 121.7 175.94 121.17 176.25 121.17 176.86 123.3 178.08 123.3 156.02 123.37 155.61 123.61 155.34 125.2 154.42 125.56 154.35 125.95 154.49 136.12 160.36 136.51 160.67 136.87 161.16 137.11 161.71 137.18 162.2 137.18 171.19 136.65 171.5 136.65 172.11 138.77 173.34 138.77 151.68 138.85 151.27 139.09 151 140.68 150.07 141.04 150.01 141.43 150.15 150.45 155.36 150.84 155.67 151.2 156.15 151.44 156.7 151.51 157.2 151.51 168.03 150.98 168.33 150.98 168.94 177.52 184.26 177.52 174.05 177.59 173.64 177.83 173.36 179.42 172.44 179.78 172.38 180.17 172.52 189.19 177.73 189.58 178.04 189.94 178.52 190.18 179.07 190.25 179.57 190.25 201.83 189.72 202.14 189.72 202.75 191.85 203.98 191.85 182.32 191.92 181.91 192.16 181.64 193.75 180.72 194.11 180.65 194.5 180.79 203.52 186 203.91 186.31 204.27 186.79 204.51 187.34 204.58 187.84 204.58 198.67 204.05 198.97 204.05 199.58 230.59 214.91 230.59 204.69 230.66 204.28 230.9 204 232.49 203.08 232.85 203.02 233.24 203.16 242.26 208.37 242.66 208.68 243.01 209.16 243.25 209.71 243.32 210.21 243.32 232.47 242.79 232.78 242.79 233.39 244.92 234.62 244.92 212.97 244.99 212.55 245.23 212.28 246.82 211.36 247.18 211.29 247.57 211.43 256.59 216.64 256.98 216.95 257.34 217.43 257.58 217.99 257.65 218.48 257.65 229.31 257.12 229.61 257.12 230.22 283.66 245.54 283.66 235.33 283.73 234.92 283.97 234.64 285.56 233.72 285.92 233.66 286.31 233.8 295.33 239.01 295.73 239.32 296.08 239.8 296.32 240.35 296.39 240.85 296.39 263.11 295.87 263.42 295.87 264.03 297.99 265.26 297.99 243.6 298.06 243.19 298.3 242.92 299.89 242 300.25 241.93 300.64 242.07 309.66 247.28 310.05 247.59 310.41 248.07 310.65 248.63 310.73 249.12 310.73 259.95 310.19 260.25 310.19 260.86 324.52 269.14 324.52 317.55"/></svg>