<svg id="Layer_1" data-name="Layer 1" xmlns="http://www.w3.org/2000/svg" viewBox="0 0 212.6 425.2"><defs><style>.cls-1{font-size:5.3px;fill:#1d1d1b;font-family:Monotxt;}.cls-2,.cls-3{fill:none;stroke:#1d1d1b;stroke-miterlimit:10;}.cls-2{stroke-width:0.5px;}.cls-3{stroke-width:0.25px;}</style></defs><g id="MTEXT"><text class="cls-1" transform="translate(144.85 193.15) rotate(90)">COMB-B/END-Y3</text></g><g id="MTEXT-2" data-name="MTEXT"><text class="cls-1" transform="translate(73.49 242.42) rotate(-90)">COMB-B/END-Y3</text></g><g id="POLYLINE"><polygon class="cls-2" points="119.11 185.92 120.99 185.92 120.99 178.62 119.11 178.62 119.11 179.52 113.77 179.52 113.77 178.62 111.88 178.62 111.88 185.92 113.77 185.92 113.77 185.02 119.11 185.02 119.11 185.92"/></g><g id="POLYLINE-2" data-name="POLYLINE"><polygon class="cls-2" points="113.77 245.12 113.77 244.22 111.88 244.22 111.88 251.52 113.77 251.52 113.77 250.61 119.11 250.61 119.11 251.52 120.99 251.52 120.99 244.22 119.11 244.22 119.11 245.12 113.77 245.12"/></g><g id="POLYLINE-3" data-name="POLYLINE"><polygon class="cls-2" points="187.11 185.92 188.99 185.92 188.99 185.02 194.33 185.02 194.33 185.92 196.21 185.92 196.21 178.62 194.33 178.62 194.33 179.52 188.99 179.52 188.99 178.62 187.11 178.62 187.11 185.92"/></g><g id="POLYLINE-4" data-name="POLYLINE"><polygon class="cls-2" points="188.99 251.52 188.99 250.61 194.33 250.61 194.33 251.52 196.21 251.52 196.21 244.22 194.33 244.22 194.33 245.12 188.99 245.12 188.99 244.22 187.11 244.22 187.11 251.52 188.99 251.52"/></g><g id="POLYLINE-5" data-name="POLYLINE"><polygon class="cls-2" points="119.11 95.65 120.99 95.65 120.99 88.35 119.11 88.35 119.11 89.25 113.77 89.25 113.77 88.35 111.88 88.35 111.88 95.65 113.77 95.65 113.77 94.74 119.11 94.74 119.11 95.65"/></g><g id="POLYLINE-6" data-name="POLYLINE"><polygon class="cls-2" points="113.77 154.85 113.77 153.95 111.88 153.95 111.88 161.24 113.77 161.24 113.77 160.34 119.11 160.34 119.11 161.24 120.99 161.24 120.99 153.95 119.11 153.95 119.11 154.85 113.77 154.85"/></g><g id="POLYLINE-7" data-name="POLYLINE"><polygon class="cls-2" points="187.11 95.65 188.99 95.65 188.99 94.74 194.33 94.74 194.33 95.65 196.21 95.65 196.21 88.35 194.33 88.35 194.33 89.25 188.99 89.25 188.99 88.35 187.11 88.35 187.11 95.65"/></g><g id="POLYLINE-8" data-name="POLYLINE"><polygon class="cls-2" points="188.99 161.24 188.99 160.34 194.33 160.34 194.33 161.24 196.21 161.24 196.21 153.95 194.33 153.95 194.33 154.85 188.99 154.85 188.99 153.95 187.11 153.95 187.11 161.24 188.99 161.24"/></g><g id="POLYLINE-9" data-name="POLYLINE"><polygon class="cls-2" points="113.77 365.56 113.77 366.46 111.88 366.46 111.88 359.17 113.77 359.17 113.77 360.07 119.11 360.07 119.11 359.17 120.99 359.17 120.99 366.46 119.11 366.46 119.11 365.56 113.77 365.56"/></g><g id="POLYLINE-10" data-name="POLYLINE"><polygon class="cls-2" points="188.99 359.17 188.99 360.07 194.33 360.07 194.33 359.17 196.21 359.17 196.21 366.46 194.33 366.46 194.33 365.56 188.99 365.56 188.99 366.46 187.11 366.46 187.11 359.17 188.99 359.17"/></g><g id="POLYLINE-11" data-name="POLYLINE"><polygon class="cls-2" points="119.11 276.19 120.99 276.19 120.99 268.89 119.11 268.89 119.11 269.8 113.77 269.8 113.77 268.89 111.88 268.89 111.88 276.19 113.77 276.19 113.77 275.29 119.11 275.29 119.11 276.19"/></g><g id="POLYLINE-12" data-name="POLYLINE"><polygon class="cls-2" points="113.77 335.39 113.77 334.49 111.88 334.49 111.88 341.79 113.77 341.79 113.77 340.89 119.11 340.89 119.11 341.79 120.99 341.79 120.99 334.49 119.11 334.49 119.11 335.39 113.77 335.39"/></g><g id="POLYLINE-13" data-name="POLYLINE"><polygon class="cls-2" points="187.11 276.19 188.99 276.19 188.99 275.29 194.33 275.29 194.33 276.19 196.21 276.19 196.21 268.89 194.33 268.89 194.33 269.8 188.99 269.8 188.99 268.89 187.11 268.89 187.11 276.19"/></g><g id="POLYLINE-14" data-name="POLYLINE"><polygon class="cls-2" points="188.99 341.79 188.99 340.89 194.33 340.89 194.33 341.79 196.21 341.79 196.21 334.49 194.33 334.49 194.33 335.39 188.99 335.39 188.99 334.49 187.11 334.49 187.11 341.79 188.99 341.79"/></g><g id="POLYLINE-15" data-name="POLYLINE"><polygon class="cls-2" points="96.31 185.92 94.43 185.92 94.43 178.62 96.31 178.62 96.31 179.52 101.65 179.52 101.65 178.62 103.53 178.62 103.53 185.92 101.65 185.92 101.65 185.02 96.31 185.02 96.31 185.92"/></g><g id="POLYLINE-16" data-name="POLYLINE"><polygon class="cls-2" points="101.65 245.12 101.65 244.22 103.53 244.22 103.53 251.52 101.65 251.52 101.65 250.61 96.31 250.61 96.31 251.52 94.43 251.52 94.43 244.22 96.31 244.22 96.31 245.12 101.65 245.12"/></g><g id="POLYLINE-17" data-name="POLYLINE"><polygon class="cls-2" points="28.31 185.92 26.43 185.92 26.43 185.02 21.09 185.02 21.09 185.92 19.2 185.92 19.2 178.62 21.09 178.62 21.09 179.52 26.43 179.52 26.43 178.62 28.31 178.62 28.31 185.92"/></g><g id="POLYLINE-18" data-name="POLYLINE"><polygon class="cls-2" points="26.43 251.52 26.43 250.61 21.09 250.61 21.09 251.52 19.2 251.52 19.2 244.22 21.09 244.22 21.09 245.12 26.43 245.12 26.43 244.22 28.31 244.22 28.31 251.52 26.43 251.52"/></g><g id="POLYLINE-19" data-name="POLYLINE"><polygon class="cls-2" points="96.31 95.65 94.43 95.65 94.43 88.35 96.31 88.35 96.31 89.25 101.65 89.25 101.65 88.35 103.53 88.35 103.53 95.65 101.65 95.65 101.65 94.74 96.31 94.74 96.31 95.65"/></g><g id="POLYLINE-20" data-name="POLYLINE"><polygon class="cls-2" points="101.65 154.85 101.65 153.95 103.53 153.95 103.53 161.24 101.65 161.24 101.65 160.34 96.31 160.34 96.31 161.24 94.43 161.24 94.43 153.95 96.31 153.95 96.31 154.85 101.65 154.85"/></g><g id="POLYLINE-21" data-name="POLYLINE"><polygon class="cls-2" points="28.31 95.65 26.43 95.65 26.43 94.74 21.09 94.74 21.09 95.65 19.2 95.65 19.2 88.35 21.09 88.35 21.09 89.25 26.43 89.25 26.43 88.35 28.31 88.35 28.31 95.65"/></g><g id="POLYLINE-22" data-name="POLYLINE"><polygon class="cls-2" points="26.43 161.24 26.43 160.34 21.09 160.34 21.09 161.24 19.2 161.24 19.2 153.95 21.09 153.95 21.09 154.85 26.43 154.85 26.43 153.95 28.31 153.95 28.31 161.24 26.43 161.24"/></g><g id="POLYLINE-23" data-name="POLYLINE"><polygon class="cls-2" points="101.65 365.56 101.65 366.46 103.53 366.46 103.53 359.17 101.65 359.17 101.65 360.07 96.31 360.07 96.31 359.17 94.43 359.17 94.43 366.46 96.31 366.46 96.31 365.56 101.65 365.56"/></g><g id="POLYLINE-24" data-name="POLYLINE"><polygon class="cls-2" points="26.43 359.17 26.43 360.07 21.09 360.07 21.09 359.17 19.2 359.17 19.2 366.46 21.09 366.46 21.09 365.56 26.43 365.56 26.43 366.46 28.31 366.46 28.31 359.17 26.43 359.17"/></g><g id="POLYLINE-25" data-name="POLYLINE"><polygon class="cls-2" points="96.31 276.19 94.43 276.19 94.43 268.89 96.31 268.89 96.31 269.8 101.65 269.8 101.65 268.89 103.53 268.89 103.53 276.19 101.65 276.19 101.65 275.29 96.31 275.29 96.31 276.19"/></g><g id="POLYLINE-26" data-name="POLYLINE"><polygon class="cls-2" points="101.65 335.39 101.65 334.49 103.53 334.49 103.53 341.79 101.65 341.79 101.65 340.89 96.31 340.89 96.31 341.79 94.43 341.79 94.43 334.49 96.31 334.49 96.31 335.39 101.65 335.39"/></g><g id="POLYLINE-27" data-name="POLYLINE"><polygon class="cls-2" points="28.31 276.19 26.43 276.19 26.43 275.29 21.09 275.29 21.09 276.19 19.2 276.19 19.2 268.89 21.09 268.89 21.09 269.8 26.43 269.8 26.43 268.89 28.31 268.89 28.31 276.19"/></g><g id="POLYLINE-28" data-name="POLYLINE"><polygon class="cls-2" points="26.43 341.79 26.43 340.89 21.09 340.89 21.09 341.79 19.2 341.79 19.2 334.49 21.09 334.49 21.09 335.39 26.43 335.39 26.43 334.49 28.31 334.49 28.31 341.79 26.43 341.79"/></g><g id="POLYLINE-29" data-name="POLYLINE"><path class="cls-2" d="M163,256.59v7.26h1.88V263h32.76a1.77,1.77,0,0,1,1.77,1.77v15.35a1.76,1.76,0,0,1-1.77,1.76H181.77v-.9h-1.88v48.82h1.88v-.9h15.91a1.77,1.77,0,0,1,1.77,1.77V346a1.77,1.77,0,0,1-1.77,1.77H164.92v-.9H163v7.3h1.88v-.91h32.76a1.77,1.77,0,0,1,1.77,1.77v15.35a1.77,1.77,0,0,1-1.77,1.77H181.77v-.91h-1.88v24.38H108.65V355h0a1.77,1.77,0,0,1,1.77-1.77h6v.91h1.88v-7.3H116.4v.9h-6a1.77,1.77,0,0,1-1.77-1.77V264.72a1.77,1.77,0,0,1,1.77-1.77h6v.9h1.88v-7.29H116.4v.9h-6a1.77,1.77,0,0,1-1.77-1.77V174.45a1.77,1.77,0,0,1,1.77-1.77h6v.9h1.88v-7.3H116.4v.91h-6a1.77,1.77,0,0,1-1.77-1.77V84.17a1.76,1.76,0,0,1,1.77-1.76h6v.9h1.88V76H116.4v.91h-6a1.77,1.77,0,0,1-1.77-1.77V36.33a1.77,1.77,0,0,1,1.77-1.77h6v.91h1.88V31.85H163v3.62h1.88v-.91h13.2a1.77,1.77,0,0,1,1.77,1.77V48.82a1.77,1.77,0,0,1-1.77,1.77H144.76v-.91h-1.88V57h1.88v-.9h33.36a1.76,1.76,0,0,1,1.77,1.76V75.15a1.77,1.77,0,0,1-1.77,1.77h-13.2V76H163v7.3h1.88v-.9h32.76a1.76,1.76,0,0,1,1.77,1.76V99.52a1.77,1.77,0,0,1-1.77,1.77H181.77v-.9h-1.88v48.82h1.88v-.9h15.91a1.76,1.76,0,0,1,1.77,1.76v15.35a1.77,1.77,0,0,1-1.77,1.77H164.92v-.91H163v7.3h1.88v-.9h32.76a1.77,1.77,0,0,1,1.77,1.77v15.34a1.77,1.77,0,0,1-1.77,1.77H181.77v-.9h-1.88v48.82h1.88v-.9h15.91a1.77,1.77,0,0,1,1.77,1.77v15.34a1.77,1.77,0,0,1-1.77,1.77H164.92v-.9H163v0Z"/></g><g id="POLYLINE-30" data-name="POLYLINE"><path class="cls-2" d="M52.38,256.59v7.26H50.5V263H17.74A1.77,1.77,0,0,0,16,264.72v15.35a1.76,1.76,0,0,0,1.77,1.76H33.65v-.9h1.88v48.82H33.65v-.9H17.74A1.77,1.77,0,0,0,16,330.62V346a1.77,1.77,0,0,0,1.77,1.77H50.5v-.9h1.88v7.3H50.5v-.91H17.74A1.77,1.77,0,0,0,16,355v15.35a1.77,1.77,0,0,0,1.77,1.77H33.65v-.91h1.88v24.38h71.24V355h0a1.77,1.77,0,0,0-1.77-1.77H99v.91H97.14v-7.3H99v.9h6a1.77,1.77,0,0,0,1.77-1.77V264.72A1.77,1.77,0,0,0,105,263H99v.9H97.14v-7.29H99v.9h6a1.77,1.77,0,0,0,1.77-1.77V174.45a1.77,1.77,0,0,0-1.77-1.77H99v.9H97.14v-7.3H99v.91h6a1.77,1.77,0,0,0,1.77-1.77V84.17A1.76,1.76,0,0,0,105,82.41H99v.9H97.14V76H99v.91h6a1.77,1.77,0,0,0,1.77-1.77V36.33A1.77,1.77,0,0,0,105,34.56H99v.91H97.14V31.85H52.38v3.62H50.5v-.91H37.3a1.77,1.77,0,0,0-1.77,1.77V48.82a1.77,1.77,0,0,0,1.77,1.77H70.66v-.91h1.88V57H70.66v-.9H37.3a1.76,1.76,0,0,0-1.77,1.76V75.15a1.77,1.77,0,0,0,1.77,1.77H50.5V76h1.88v7.3H50.5v-.9H17.74A1.76,1.76,0,0,0,16,84.17V99.52a1.77,1.77,0,0,0,1.77,1.77H33.65v-.9h1.88v48.82H33.65v-.9H17.74A1.76,1.76,0,0,0,16,150.07v15.35a1.77,1.77,0,0,0,1.77,1.77H50.5v-.91h1.88v7.3H50.5v-.9H17.74A1.77,1.77,0,0,0,16,174.45v15.34a1.77,1.77,0,0,0,1.77,1.77H33.65v-.9h1.88v48.82H33.65v-.9H17.74A1.77,1.77,0,0,0,16,240.35v15.34a1.77,1.77,0,0,0,1.77,1.77H50.5v-.9h1.88v0Z"/></g><g id="POLYLINE-31" data-name="POLYLINE"><rect class="cls-3" x="15.93" y="30.13" width="183.55" height="367.11"/></g></svg>