<svg id="Layer_1" data-name="Layer 1" xmlns="http://www.w3.org/2000/svg" viewBox="0 0 868.12 425.2"><defs><style>.cls-1,.cls-3{fill:none;stroke:#1d1d1b;stroke-miterlimit:10;}.cls-1{stroke-width:0.5px;}.cls-2{font-size:5.3px;fill:#1d1d1b;font-family:Monotxt;}.cls-3{stroke-width:0.25px;}</style></defs><g id="POLYLINE"><path class="cls-1" d="M763,265.72a.86.86,0,0,1-.07.36.89.89,0,0,1-1.18.47l-9.25-4h-5.4l-9.24,4a.92.92,0,0,1-.36.07.9.9,0,0,1-.9-.9v-6.93a3,3,0,1,1,0-6v-6.93a1.15,1.15,0,0,1,.07-.36.91.91,0,0,1,1.19-.46l9.24,4h5.4l9.25-4a.85.85,0,0,1,.35-.08.9.9,0,0,1,.9.9v6.93a3,3,0,0,1,0,6Z"/></g><g id="POLYLINE-2" data-name="POLYLINE"><path class="cls-1" d="M763,291.23a.92.92,0,0,1-.07.36.9.9,0,0,1-1.18.46l-9.25-4h-5.4l-9.24,4a.94.94,0,0,1-.36.08.9.9,0,0,1-.9-.9V284.3a3,3,0,0,1,0-6v-6.93a1,1,0,0,1,.07-.36.9.9,0,0,1,1.19-.47l9.24,4h5.4l9.25-4a.84.84,0,0,1,.35-.07.9.9,0,0,1,.9.9v6.93a3,3,0,0,1,0,6Z"/></g><g id="POLYLINE-3" data-name="POLYLINE"><path class="cls-1" d="M763,316.73a.89.89,0,0,1-1.25.83l-9.25-4h-5.4l-9.24,4a.92.92,0,0,1-.36.07.9.9,0,0,1-.9-.9V309.8a3,3,0,0,1,0-6v-6.93a1.15,1.15,0,0,1,.07-.36.92.92,0,0,1,1.19-.47l9.24,4h5.4l9.25-4a1,1,0,0,1,.35-.07.9.9,0,0,1,.9.9v6.93a3,3,0,0,1,0,6Z"/></g><g id="POLYLINE-4" data-name="POLYLINE"><path class="cls-1" d="M763,342.24a.84.84,0,0,1-.07.35.89.89,0,0,1-1.18.47l-9.25-4h-5.4l-9.24,4a.94.94,0,0,1-.36.08.9.9,0,0,1-.9-.9v-6.93a3,3,0,0,1,0-6v-6.93a1,1,0,0,1,.07-.35.9.9,0,0,1,1.19-.47l9.24,4h5.4l9.25-4a.85.85,0,0,1,.35-.08.9.9,0,0,1,.9.9v6.93a3,3,0,0,1,0,6Z"/></g><g id="POLYLINE-5" data-name="POLYLINE"><path class="cls-1" d="M763,393.24a.86.86,0,0,1-.07.36.89.89,0,0,1-1.18.47l-9.25-4h-5.4l-9.24,4a.92.92,0,0,1-.36.07.9.9,0,0,1-.9-.9v-6.93a3,3,0,0,1,0-6v-6.93a1.15,1.15,0,0,1,.07-.36.91.91,0,0,1,1.19-.46l9.24,4h5.4l9.25-4a.85.85,0,0,1,.35-.08.9.9,0,0,1,.9.9v6.93a3,3,0,0,1,0,6Z"/></g><g id="POLYLINE-6" data-name="POLYLINE"><line class="cls-1" x1="762.96" y1="80.27" x2="762.96" y2="69.91"/></g><g id="POLYLINE-7" data-name="POLYLINE"><path class="cls-1" d="M763,87.2a.89.89,0,0,1-.07.36.91.91,0,0,1-1.18.47l-9.25-4h-5.4l-9.24,4a.92.92,0,0,1-.36.07.9.9,0,0,1-.9-.9V80.27a3,3,0,0,1,0-6V67.34a1.1,1.1,0,0,1,.07-.36.92.92,0,0,1,1.19-.47l9.24,4h5.4l9.25-4a.84.84,0,0,1,.35-.07.9.9,0,0,1,.9.9v6.93a3,3,0,0,1,0,6Z"/></g><g id="POLYLINE-8" data-name="POLYLINE"><path class="cls-1" d="M763,112.7a.86.86,0,0,1-.07.36.89.89,0,0,1-1.18.47l-9.25-4h-5.4l-9.24,4a.92.92,0,0,1-.36.07.9.9,0,0,1-.9-.9v-6.93a3,3,0,0,1,0-6V92.84a1,1,0,0,1,.07-.35.9.9,0,0,1,1.19-.47l9.24,4h5.4l9.25-4a.85.85,0,0,1,.35-.08.9.9,0,0,1,.9.9v6.93a3,3,0,0,1,0,6Z"/></g><g id="POLYLINE-9" data-name="POLYLINE"><path class="cls-1" d="M763,138.21a.92.92,0,0,1-.07.36.9.9,0,0,1-1.18.46l-9.25-4h-5.4l-9.24,4a.94.94,0,0,1-.36.08.9.9,0,0,1-.9-.9v-6.93a3,3,0,0,1,0-6v-6.93a1,1,0,0,1,.07-.36.9.9,0,0,1,1.19-.47l9.24,4h5.4l9.25-4a.84.84,0,0,1,.35-.07.9.9,0,0,1,.9.9v6.93a3,3,0,0,1,0,6Z"/></g><g id="POLYLINE-10" data-name="POLYLINE"><path class="cls-1" d="M763,163.71a.86.86,0,0,1-.07.36.89.89,0,0,1-1.18.47l-9.25-4h-5.4l-9.24,4a.92.92,0,0,1-.36.07.9.9,0,0,1-.9-.9v-6.93a3,3,0,0,1,0-6v-6.93a1.15,1.15,0,0,1,.07-.36.92.92,0,0,1,1.19-.47l9.24,4h5.4l9.25-4a1,1,0,0,1,.35-.07.9.9,0,0,1,.9.9v6.93a3,3,0,0,1,0,6Z"/></g><g id="POLYLINE-11" data-name="POLYLINE"><path class="cls-1" d="M763,189.22a.84.84,0,0,1-.07.35.89.89,0,0,1-1.18.47l-9.25-4h-5.4l-9.24,4a.94.94,0,0,1-.36.08.9.9,0,0,1-.9-.9v-6.93a3,3,0,0,1,0-6v-6.93a1,1,0,0,1,.07-.35.9.9,0,0,1,1.19-.47l9.24,4h5.4l9.25-4a.85.85,0,0,1,.35-.08.9.9,0,0,1,.9.9v6.93a3,3,0,0,1,0,6Z"/></g><g id="POLYLINE-12" data-name="POLYLINE"><path class="cls-1" d="M763,214.72a.92.92,0,0,1-.07.36.91.91,0,0,1-1.18.47l-9.25-4h-5.4l-9.24,4a1.15,1.15,0,0,1-.36.07.9.9,0,0,1-.9-.9v-6.93a3,3,0,0,1,0-6v-6.93a1.1,1.1,0,0,1,.07-.36.9.9,0,0,1,1.19-.47l9.24,4h5.4l9.25-4a.84.84,0,0,1,.35-.07.9.9,0,0,1,.9.9v6.93a3,3,0,0,1,0,6Z"/></g><g id="POLYLINE-13" data-name="POLYLINE"><path class="cls-1" d="M763,240.22a.89.89,0,0,1-.07.36.91.91,0,0,1-1.18.47l-9.25-4h-5.4l-9.24,4a.92.92,0,0,1-.36.07.9.9,0,0,1-.9-.9v-6.93a3,3,0,0,1,0-6v-6.93a1.1,1.1,0,0,1,.07-.36.91.91,0,0,1,1.19-.47l9.24,4h5.4l9.25-4a.84.84,0,0,1,.35-.07.9.9,0,0,1,.9.9v6.93a3,3,0,0,1,0,6Z"/></g><g id="POLYLINE-14" data-name="POLYLINE"><path class="cls-1" d="M763,367.74a.92.92,0,0,1-.07.36.9.9,0,0,1-1.18.46l-9.25-4h-5.4l-9.24,4a.94.94,0,0,1-.36.08.9.9,0,0,1-.9-.9v-6.93a3,3,0,0,1,0-6v-6.93a1,1,0,0,1,.07-.36.9.9,0,0,1,1.19-.47l9.24,4h5.4l9.25-4a.84.84,0,0,1,.35-.07.9.9,0,0,1,.9.9v6.93a3,3,0,0,1,0,6Z"/></g><g id="POLYLINE-15" data-name="POLYLINE"><path class="cls-1" d="M763,61.7a.84.84,0,0,1-.07.35.89.89,0,0,1-1.18.47l-9.25-4h-5.4l-9.24,4a.94.94,0,0,1-.36.08.9.9,0,0,1-.9-.9V54.77a3,3,0,0,1,0-6V41.84a1,1,0,0,1,.07-.36.9.9,0,0,1,1.19-.47l9.24,4h5.4l9.25-4a.84.84,0,0,1,.35-.07.9.9,0,0,1,.9.9v6.93a3,3,0,0,1,0,6Z"/></g><g id="POLYLINE-16" data-name="POLYLINE"><line class="cls-1" x1="762.96" y1="54.77" x2="762.96" y2="44.4"/></g><g id="POLYLINE-17" data-name="POLYLINE"><path class="cls-1" d="M586.54,276.14a15.79,15.79,0,0,0,0-31.58V232.18h.9v-1.87h-3.6V215.38h1.27v6a.72.72,0,0,0,1.43,0v-6h9.67V219h1.88v-.9h4.42v17.33h-.9v1.87h7.28v-1.87H608V218.08h4.42v.9h1.88v-3.61h17.18v29.94h-3.6v1.87h.9v6.36l-9.19-4a.94.94,0,0,0-1.24.48,1,1,0,0,0-.07.38v19.86a.93.93,0,0,0,.93.94,1,1,0,0,0,.38-.08l9.19-4v6.35h-.9v1.88h3.6v59.93h-3.6v1.88h.9v6.35l-9.19-4a.93.93,0,0,0-1.31.86v19.86a.93.93,0,0,0,.93.94,1,1,0,0,0,.38-.08l9.19-4v6.36h-.9v1.87h3.6V394h-3.6v1.88h.9V398H614.3v-6.3h-1.88v.9H608V375.3h.9v-1.87h-7.28v1.87h.9v17.33H598.1v-.9h-1.88V398h-9.67v-.82h.9v-1.88h-3.6V380.4h3.6v-1.87h-.9V366.15a15.79,15.79,0,0,0,0-31.58V322.19h.9v-1.87h-3.6V290.39h3.6v-1.88h-.9Z"/></g><g id="POLYLINE-18" data-name="POLYLINE"><path class="cls-1" d="M73.77,276.15a15.79,15.79,0,0,1,0-31.58V232.19h-.9v-1.87h3.6V215.39H75.2v6a.72.72,0,0,1-1.43,0v-6H64.1V219H62.22v-.9H57.79v17.33h.9v1.87H51.42v-1.87h.9V218.09H47.89v.9H46v-3.61H28.84v29.94h3.6v1.87h-.9v6.36l9.19-4a1,1,0,0,1,.37-.08.94.94,0,0,1,.94.94v19.86a.8.8,0,0,1-.08.37.93.93,0,0,1-1.23.49l-9.19-4v6.35h.9v1.88h-3.6v59.93h3.6v1.88h-.9v6.35l9.19-4a1,1,0,0,1,.37-.08.94.94,0,0,1,.94.94V360.3a.77.77,0,0,1-.08.37.92.92,0,0,1-1.23.49l-9.19-4v6.35h.9v1.88h-3.6V394h3.6v1.87h-.9V398H46v-6.3h1.87v.9h4.43V375.31h-.9v-1.87h7.27v1.87h-.9v17.33h4.43v-.9h1.87V398h9.68v-.83h-.9v-1.87h3.6V380.41h-3.6v-1.87h.9V366.16a15.79,15.79,0,0,1,0-31.58V322.2h-.9v-1.87h3.6V290.4h-3.6v-1.88h.9Z"/></g><g id="POLYLINE-19" data-name="POLYLINE"><path class="cls-1" d="M165.26,384.3a.9.9,0,0,1-.07-.37.94.94,0,0,1,.93-.94H186a1,1,0,0,1,.37.08,1,1,0,0,1,.49,1.23l-4,9.2h4.87v-.91h1.87v3.61h14.93v-5.93h-3.6v-1.88h.9v-5.32h-.9v-1.88h3.6V368.07h-.9v-1.88h3.6V336.26h-3.6v-1.87h.9V321.26h-3.6v-1.88h.9v-5.32h-.9v-1.88h3.6V300.26h-3.6v-1.88h.9v-7.2h2.7V278.05h-.9v-1.87h3.6V246.25h-3.6v-1.88h.9V231.25h-3.6v-1.88h.9V218h-.9v-1.87h3.6V200.79h-.9v-1.87h3.6V181h-3.6v-1.88h.9V168.54H147.6v10.57h.9V181h-3.6v6.23h38.33v-.9h1.87v7.27h-1.87v-.9H144.9v6.23h3.6v1.87h-.9v43.58h.9v1.88h-3.6v29.93h3.6v1.87h-.9v56.34h.9v1.87h-3.6v29.93h3.6v1.88h-.9V396.2h14.93v-3.61h1.87v.91h4.85l-4-9.2Z"/></g><g id="POLYLINE-20" data-name="POLYLINE"><polygon class="cls-1" points="139.87 169.67 122.69 169.67 122.69 173.27 120.82 173.27 120.82 172.37 107.39 172.37 107.39 173.27 105.52 173.27 105.52 169.67 85.64 169.67 85.64 170.5 86.54 170.5 86.54 172.37 85.6 172.37 82.94 172.37 82.94 175.25 82.94 178.3 86.54 178.3 86.54 180.17 85.64 180.18 85.64 249.11 86.54 249.11 86.54 250.99 82.94 250.99 82.94 254.04 82.94 256.91 85.6 256.91 86.54 256.91 86.54 258.79 85.64 258.79 85.64 260.51 86.54 260.51 86.54 262.39 85.6 262.39 82.94 262.39 82.94 265.26 82.94 268.31 86.54 268.31 86.54 270.19 85.64 270.19 85.64 339.12 86.54 339.12 86.54 341 82.94 341 82.94 344.05 82.94 346.92 85.6 346.92 86.54 346.92 86.54 348.8 85.64 348.8 85.64 365.08 86.54 365.08 86.54 366.95 82.94 366.95 82.94 373.18 121.27 373.18 121.27 372.28 123.14 372.28 123.14 379.55 121.27 379.55 121.27 378.65 82.94 378.65 82.94 384.88 86.54 384.88 86.54 386.75 85.64 386.75 85.64 397.33 142.57 397.33 142.57 386.75 141.67 386.75 141.67 384.88 145.27 384.88 145.27 366.95 141.67 366.95 141.67 365.08 142.57 365.08 142.57 348.35 138.97 348.35 138.97 346.47 139.87 346.47 139.87 321.5 138.97 321.5 138.97 319.62 142.57 319.62 142.57 311.44 138.97 311.44 138.97 309.57 139.87 309.57 139.87 307.84 138.97 307.84 138.97 305.97 142.57 305.97 142.57 303.34 138.97 303.34 138.97 301.47 139.87 301.47 139.87 299.74 138.97 299.74 138.97 297.87 142.57 297.87 142.57 289.69 138.97 289.69 138.97 287.81 139.87 287.81 139.87 231.48 138.97 231.48 138.97 229.61 142.57 229.61 142.57 221.43 138.97 221.43 138.97 219.56 139.87 219.56 139.87 217.83 138.97 217.83 138.97 215.96 142.57 215.96 142.57 213.33 138.97 213.33 138.97 211.45 139.87 211.45 139.87 209.73 138.97 209.73 138.97 207.85 142.57 207.85 142.57 199.68 138.97 199.68 138.97 197.8 139.87 197.8 139.87 169.67"/></g><g id="POLYLINE-21" data-name="POLYLINE"><polygon class="cls-1" points="32.79 191.2 32.79 209.28 45.47 209.28 45.47 208.38 47.34 208.38 47.34 211.98 53.57 211.98 53.57 173.65 52.67 173.65 52.67 171.77 59.95 171.77 59.95 173.65 59.05 173.65 59.05 211.98 65.27 211.98 65.27 208.38 67.15 208.38 67.15 209.28 75.02 209.28 75.02 196.15 74.12 196.15 74.12 194.28 77.72 194.28 77.72 167.35 74.12 167.35 74.12 165.47 75.02 165.47 75.02 152.34 67.15 152.34 67.15 153.24 65.27 153.24 65.27 149.64 47.34 149.64 47.34 153.24 45.47 153.24 45.47 152.34 32.79 152.34 32.79 170.42 33.69 170.42 33.69 172.3 30.09 172.3 30.09 189.32 33.69 189.32 33.69 191.2 32.79 191.2"/></g><g id="POLYLINE-22" data-name="POLYLINE"><polygon class="cls-1" points="63.15 94.23 63.15 95.13 61.27 95.13 61.27 91.53 58.64 91.53 58.64 95.13 56.76 95.13 56.76 94.23 55.03 94.23 55.03 95.13 53.16 95.13 53.16 91.53 46.48 91.53 46.48 95.13 44.6 95.13 44.6 94.23 31.47 94.23 31.47 102.1 32.37 102.1 32.37 103.98 28.77 103.98 28.77 110.21 67.1 110.21 67.1 109.31 68.98 109.31 68.98 116.58 67.1 116.58 67.1 115.68 28.77 115.68 28.77 121.91 32.37 121.91 32.37 123.78 31.47 123.78 31.47 136.46 34.13 136.46 49.55 136.46 49.55 135.56 51.43 135.56 51.43 139.16 68.45 139.16 68.45 135.56 70.33 135.56 70.33 136.46 85.71 136.46 85.71 123.78 84.81 123.78 84.81 121.91 91.11 121.91 91.11 103.98 84.81 103.98 84.81 102.1 85.71 102.1 85.71 94.23 75.28 94.23 75.28 95.13 73.4 95.13 73.4 91.53 66.74 91.53 66.74 95.13 64.86 95.13 64.86 94.23 63.15 94.23"/></g><g id="POLYLINE-23" data-name="POLYLINE"><polygon class="cls-1" points="61.81 41.89 61.81 42.79 59.93 42.79 59.93 39.19 57.3 39.19 57.3 42.79 55.42 42.79 55.42 41.89 53.7 41.89 53.7 42.79 51.82 42.79 51.82 39.19 45.14 39.19 45.14 42.79 43.26 42.79 43.26 41.89 30.13 41.89 30.13 49.76 31.03 49.76 31.03 51.64 27.43 51.64 27.43 57.87 65.76 57.87 65.76 56.97 67.64 56.97 67.64 64.24 65.76 64.24 65.76 63.34 27.43 63.34 27.43 69.57 31.03 69.57 31.03 71.44 30.13 71.44 30.13 84.12 32.79 84.11 48.21 84.11 48.21 83.22 50.09 83.22 50.09 86.82 67.11 86.82 67.11 83.22 68.99 83.22 68.99 84.12 84.37 84.12 84.37 71.44 83.47 71.44 83.47 69.57 89.77 69.57 89.77 51.64 83.47 51.64 83.47 49.76 84.37 49.76 84.37 41.89 73.94 41.89 73.94 42.79 72.06 42.79 72.06 39.19 65.4 39.19 65.4 42.79 63.52 42.79 63.52 41.89 61.81 41.89"/></g><g id="POLYLINE-24" data-name="POLYLINE"><polygon class="cls-1" points="154.82 134.53 153.93 134.53 153.93 132.66 157.53 132.66 157.53 130.02 153.93 130.02 153.93 128.15 154.82 128.15 154.82 126.42 153.93 126.42 153.93 124.55 157.53 124.55 157.53 117.86 153.93 117.86 153.93 115.98 154.82 115.98 154.82 102.86 146.95 102.86 146.95 103.76 145.07 103.76 145.07 100.16 138.85 100.16 138.85 138.49 139.75 138.49 139.75 140.36 132.47 140.36 132.47 138.49 133.37 138.49 133.37 100.16 127.15 100.16 127.15 103.76 125.27 103.76 125.27 102.86 112.6 102.86 112.6 105.52 112.6 120.94 113.5 120.94 113.5 122.81 109.89 122.81 109.89 139.84 113.49 139.84 113.49 141.71 112.59 141.71 112.59 157.09 125.27 157.09 125.27 156.19 127.15 156.19 127.15 162.49 145.07 162.49 145.07 156.19 146.95 156.19 146.95 157.09 154.82 157.09 154.82 146.66 153.93 146.66 153.93 144.79 157.53 144.79 157.53 138.12 153.93 138.12 153.93 136.25 154.82 136.25 154.82 134.53"/></g><g id="POLYLINE-25" data-name="POLYLINE"><polygon class="cls-1" points="204.78 134.53 203.88 134.53 203.88 132.66 207.48 132.66 207.48 130.02 203.88 130.02 203.88 128.15 204.78 128.15 204.78 126.42 203.88 126.42 203.88 124.55 207.48 124.55 207.48 117.86 203.88 117.86 203.88 115.98 204.78 115.98 204.78 102.86 196.91 102.86 196.91 103.76 195.03 103.76 195.03 100.16 188.81 100.16 188.81 138.49 189.71 138.49 189.71 140.36 182.43 140.36 182.43 138.49 183.33 138.49 183.33 100.16 177.1 100.16 177.1 103.76 175.23 103.76 175.23 102.86 162.55 102.86 162.56 105.52 162.56 120.94 163.46 120.94 163.46 122.81 159.85 122.81 159.85 139.84 163.45 139.84 163.45 141.71 162.55 141.71 162.55 157.09 175.23 157.09 175.23 156.19 177.1 156.19 177.1 162.49 195.03 162.49 195.03 156.19 196.91 156.19 196.91 157.09 204.78 157.09 204.78 146.66 203.88 146.66 203.88 144.79 207.48 144.79 207.48 138.12 203.88 138.12 203.88 136.25 204.78 136.25 204.78 134.53"/></g><g id="POLYLINE-26" data-name="POLYLINE"><polygon class="cls-1" points="204.78 69.87 203.88 69.87 203.88 68 207.48 68 207.48 65.36 203.88 65.36 203.88 63.49 204.78 63.49 204.78 61.76 203.88 61.76 203.88 59.89 207.48 59.89 207.48 53.2 203.88 53.2 203.88 51.33 204.78 51.33 204.78 38.2 196.91 38.2 196.91 39.1 195.03 39.1 195.03 35.5 188.81 35.5 188.81 73.83 189.71 73.83 189.71 75.7 182.43 75.7 182.43 73.83 183.33 73.83 183.33 35.5 177.1 35.5 177.1 39.1 175.23 39.1 175.23 38.2 162.55 38.2 162.56 40.86 162.56 56.28 163.46 56.28 163.46 58.15 159.85 58.15 159.85 75.18 163.45 75.18 163.45 77.06 162.55 77.06 162.55 92.43 175.23 92.43 175.23 91.53 177.1 91.53 177.1 97.83 195.03 97.83 195.03 91.53 196.91 91.53 196.91 92.43 204.78 92.43 204.78 82 203.88 82 203.88 80.13 207.48 80.13 207.48 73.46 203.88 73.46 203.88 71.59 204.78 71.59 204.78 69.87"/></g><g id="POLYLINE-27" data-name="POLYLINE"><polygon class="cls-1" points="154.82 69.87 153.93 69.87 153.93 68 157.53 68 157.53 65.36 153.93 65.36 153.93 63.49 154.82 63.49 154.82 61.76 153.93 61.76 153.93 59.89 157.53 59.89 157.53 53.2 153.93 53.2 153.93 51.33 154.82 51.33 154.82 38.2 146.95 38.2 146.95 39.1 145.07 39.1 145.07 35.5 138.85 35.5 138.85 73.83 139.75 73.83 139.75 75.7 132.47 75.7 132.47 73.83 133.37 73.83 133.37 35.5 127.15 35.5 127.15 39.1 125.27 39.1 125.27 38.2 112.6 38.2 112.6 40.86 112.6 56.28 113.5 56.28 113.5 58.15 109.89 58.15 109.89 75.18 113.49 75.18 113.49 77.06 112.59 77.06 112.59 92.43 125.27 92.43 125.27 91.53 127.15 91.53 127.15 97.83 145.07 97.83 145.07 91.53 146.95 91.53 146.95 92.43 154.82 92.43 154.82 82 153.93 82 153.93 80.13 157.53 80.13 157.53 73.46 153.93 73.46 153.93 71.59 154.82 71.59 154.82 69.87"/></g><g id="POLYLINE-28" data-name="POLYLINE"><path class="cls-1" d="M495.05,384.3a.93.93,0,0,0-.48-1.23,1,1,0,0,0-.38-.08H474.33a.94.94,0,0,0-.94.94.91.91,0,0,0,.08.37l4,9.2h-4.86v-.91h-1.88v3.61H455.79v-5.93h3.6v-1.88h-.9v-5.32h.9v-1.88h-3.6V368.07h.9v-1.88h-3.6V336.26h3.6v-1.87h-.9V321.26h3.6v-1.88h-.9v-5.32h.9v-1.88h-3.6V300.26h3.6v-1.88h-.9v-7.2h-2.7V278.05h.9v-1.87h-3.6V246.25h3.6v-1.88h-.9V231.25h3.6v-1.88h-.9V218h.9v-1.87h-3.6V200.79h.9v-1.87h-3.6V181h3.6v-1.88h-.9V168.54h56.93v10.57h-.9V181h3.6v6.23H477.09v-.9h-1.88v7.27h1.88v-.9h38.33v6.23h-3.6v1.87h.9v43.58h-.9v1.88h3.6v29.93h-3.6v1.87h.9v56.34h-.9v1.87h3.6v29.93h-3.6v1.88h.9V396.2H497.79v-3.61h-1.87v.91h-4.85l4-9.2Z"/></g><g id="POLYLINE-29" data-name="POLYLINE"><polygon class="cls-1" points="574.68 397.03 557.5 397.03 557.5 393.43 555.63 393.43 555.63 394.33 542.2 394.33 542.2 393.43 540.32 393.43 540.32 397.03 520.45 397.03 520.44 396.2 521.35 396.2 521.35 394.33 520.41 394.33 517.75 394.33 517.75 391.45 517.75 388.4 521.34 388.4 521.35 386.53 520.45 386.52 520.45 317.59 521.35 317.59 521.34 315.71 517.75 315.71 517.75 312.66 517.75 309.79 520.41 309.79 521.35 309.79 521.35 307.91 520.44 307.91 520.44 306.19 521.35 306.19 521.35 304.31 520.41 304.31 517.75 304.31 517.75 301.44 517.75 298.39 521.34 298.39 521.35 296.51 520.45 296.51 520.45 227.58 521.35 227.58 521.34 225.7 517.75 225.7 517.75 222.65 517.75 219.78 520.41 219.78 521.35 219.78 521.35 217.9 520.44 217.9 520.45 201.62 521.35 201.62 521.35 199.75 517.74 199.75 517.74 193.52 556.08 193.52 556.08 194.42 557.95 194.42 557.95 187.15 556.08 187.15 556.08 188.05 517.74 188.05 517.74 181.82 521.35 181.82 521.35 179.94 520.45 179.94 520.45 169.37 577.38 169.37 577.38 179.94 576.48 179.94 576.48 181.82 580.08 181.82 580.08 199.75 576.48 199.75 576.48 201.62 577.38 201.62 577.38 218.35 573.78 218.35 573.78 220.23 574.68 220.23 574.68 245.21 573.78 245.21 573.78 247.08 577.38 247.08 577.38 255.26 573.78 255.26 573.78 257.13 574.68 257.13 574.68 258.86 573.78 258.86 573.78 260.73 577.38 260.73 577.38 263.36 573.78 263.36 573.78 265.23 574.68 265.23 574.68 266.96 573.78 266.96 573.78 268.83 577.38 268.83 577.38 277.01 573.78 277.01 573.78 278.88 574.68 278.88 574.68 335.22 573.78 335.22 573.78 337.09 577.38 337.09 577.38 345.27 573.78 345.27 573.78 347.14 574.68 347.14 574.68 348.87 573.78 348.87 573.78 350.75 577.38 350.75 577.38 353.37 573.78 353.37 573.78 355.25 574.68 355.25 574.68 356.97 573.78 356.97 573.78 358.85 577.38 358.85 577.38 367.02 573.78 367.02 573.78 368.9 574.68 368.9 574.68 397.03"/></g><g id="POLYLINE-30" data-name="POLYLINE"><path class="cls-1" d="M308.07,155.78V143.4h.9v-1.87h-3.6V111.6H309v-1.88h-.9V97.35h0a15.79,15.79,0,0,0,0-31.58V53.39h.9V51.51h-3.6V36.59h1.28v6h0a.71.71,0,0,0,1.42,0v-6h9.68v3.6h1.87v-.9h4.43V56.61h-.9v1.88h7.28V56.61h-.9V39.29H334v.9h1.88V36.58H353V66.52h-3.6v1.87h.9v6.36l-9.19-4h0a1,1,0,0,0-1.23.49,1,1,0,0,0-.08.37V91.49a.94.94,0,0,0,.94.93.9.9,0,0,0,.37-.07l9.19-4v6.36h-.9V96.6H353v59.93h-3.6v1.87h.9v6.36l-9.19-4h0a.93.93,0,0,0-1.23.49.91.91,0,0,0-.08.37V181.5a.94.94,0,0,0,.94.94.91.91,0,0,0,.37-.08l9.19-4v6.35h-.9v1.88H353v59.93h-3.6v1.88h.9v6.35l-9.19-4h0a.93.93,0,0,0-1.23.49,1,1,0,0,0-.08.37v19.86a.94.94,0,0,0,.94.94.91.91,0,0,0,.37-.08l9.19-4v6.36h-.9v1.87H353v59.94h-3.6v1.87h.9v6.36l-9.19-4h0a1,1,0,0,0-1.23.49,1,1,0,0,0-.08.37v19.87a.94.94,0,0,0,.94.93.9.9,0,0,0,.37-.07l9.19-4v6.36h-.9v1.87H353v29.91l-17.17,0V393H334v.9h-4.42V376.54h.9v-1.88h-7.28v1.88h.9v17.32h-4.43V393h-1.87v3.6h-9.68v-6h0a.71.71,0,0,0-1.42,0v6h-1.28V381.64H309v-1.88h-.9V367.38h0a15.79,15.79,0,0,0,0-31.57V323.43h.9v-1.88h-3.6V291.62H309v-1.87h-.9V277.37h0a15.79,15.79,0,0,0,0-31.58V233.42h.9v-1.88h-3.6V201.61H309v-1.87h-.9V187.36h0a15.79,15.79,0,0,0,0-31.58Z"/></g><g id="POLYLINE-31" data-name="POLYLINE"><polygon class="cls-1" points="301.3 357.24 301.3 365.41 297.7 365.41 297.7 367.29 298.6 367.29 298.6 395.42 281.42 395.42 281.42 391.82 279.55 391.82 279.55 392.72 266.12 392.72 266.12 391.82 264.25 391.82 264.25 395.42 244.37 395.42 244.37 394.59 245.27 394.59 245.27 392.72 244.33 392.72 241.67 392.72 241.67 386.79 245.27 386.79 245.27 384.92 244.37 384.92 244.37 315.98 245.27 315.98 245.27 314.11 241.67 314.11 241.67 308.18 244.33 308.18 245.27 308.18 245.27 306.31 244.37 306.31 244.37 304.58 245.27 304.58 245.27 302.7 244.33 302.7 241.67 302.7 241.67 296.78 245.27 296.78 245.27 294.9 244.37 294.9 244.37 225.97 245.27 225.97 245.27 224.09 241.67 224.09 241.67 218.17 244.33 218.17 245.27 218.17 245.27 216.29 244.37 216.29 244.37 214.57 245.27 214.57 245.27 212.69 244.33 212.69 241.67 212.69 241.67 206.77 245.27 206.77 245.27 204.89 244.37 204.89 244.37 135.96 245.27 135.96 245.27 134.08 241.67 134.08 241.67 128.15 244.33 128.15 245.27 128.15 245.27 126.28 244.37 126.28 244.37 124.55 245.27 124.55 245.27 122.68 244.33 122.68 241.67 122.68 241.67 116.75 245.27 116.75 245.27 114.88 244.37 114.88 244.37 45.94 245.27 45.94 245.27 44.07 241.67 44.07 241.67 38.14 244.33 38.14 245.27 38.14 245.27 36.27 244.37 36.27 244.37 35.44 264.25 35.44 264.25 39.04 266.12 39.04 266.12 38.14 279.55 38.14 279.55 39.04 281.42 39.04 281.42 35.44 298.6 35.44 298.6 63.57 297.7 63.57 297.7 65.44 301.3 65.44 301.3 73.62 297.7 73.62 297.7 75.5 298.6 75.5 298.6 77.22 297.7 77.22 297.7 79.1 301.3 79.1 301.3 81.72 297.7 81.72 297.7 83.6 298.6 83.6 298.6 85.32 297.7 85.32 297.7 87.2 301.3 87.2 301.3 95.37 297.7 95.37 297.7 97.25 298.6 97.25 298.6 153.58 297.7 153.58 297.7 155.46 301.3 155.46 301.3 163.63 297.7 163.63 297.7 165.51 298.6 165.51 298.6 167.24 297.7 167.24 297.7 169.11 301.3 169.11 301.3 171.74 297.7 171.74 297.7 173.61 298.6 173.61 298.6 175.34 297.7 175.34 297.7 177.21 301.3 177.21 301.3 185.39 297.7 185.39 297.7 187.26 298.6 187.26 298.6 243.6 297.7 243.6 297.7 245.47 301.3 245.47 301.3 253.65 297.7 253.65 297.7 255.52 298.6 255.52 298.6 257.25 297.7 257.25 297.7 259.12 301.3 259.12 301.3 261.75 297.7 261.75 297.7 263.62 298.6 263.62 298.6 265.35 297.7 265.35 297.7 267.23 301.3 267.23 301.3 275.4 297.7 275.4 297.7 277.28 298.6 277.28 298.6 333.61 297.7 333.61 297.7 335.49 301.3 335.49 301.3 343.66 297.7 343.66 297.7 345.54 298.6 345.54 298.6 347.26 297.7 347.26 297.7 349.14 301.3 349.14 301.3 351.76 297.7 351.76 297.7 353.64 298.6 353.64 298.6 355.36 297.7 355.36 297.7 357.24 301.3 357.24"/></g><g id="POLYLINE-32" data-name="POLYLINE"><path class="cls-1" d="M378.21,46.82a1,1,0,0,0,.49,1.24,1,1,0,0,0,.38.07h19.86a.93.93,0,0,0,.93-.93,1,1,0,0,0-.07-.38l-4-9.19h4.85v.9h1.88v-3.6h14.92V63.06h-.9v1.88h3.6V94.87h-3.6v1.87h.9v56.34h-.9V155h3.6v29.93h-3.6v1.88h.9v56.33h-.9V245h3.6v29.93h-3.6v1.88h.9V333.1h-.9V335h3.6v29.93h-3.6v1.87h.9v28.13H402.54v-3.6h-1.88v.9h-4.85l4-9.19h0a.94.94,0,0,0-.49-1.23,1,1,0,0,0-.37-.08H379.08a.94.94,0,0,0-.94.94,1,1,0,0,0,.07.37l4,9.19h-4.87v-.9h-1.87v3.6H360.53V389h3.6v-1.87h-.9v-5.33h.9v-1.87h-3.6V366.78h.9v-1.87h-3.6V335h3.6V333.1h-.9V320h3.6V318.1h-.9v-5.33h.9V310.9h-3.6V299h3.6V297.1h-.9v-5.33h.9V289.9h-3.6V276.77h.9v-1.88h-3.6V245h3.6v-1.87h-.9V230h3.6v-1.87h-.9v-5.33h.9v-1.87h-3.6V209h3.6v-1.88h-.9v-5.32h.9v-1.88h-3.6V186.76h.9v-1.88h-3.6V155h3.6v-1.87h-.9V140h3.6v-1.88h-.9v-5.32h.9v-1.88h-3.6V119h3.6v-1.88h-.9v-5.33h.9v-1.87h-3.6V96.74h.9V94.87h-3.6V64.94h3.6V63.06h-.9V49.94h3.6V48.06h-.9V42.73h.9V40.86h-3.6V34.93h14.93v3.6h1.87v-.9h4.87l-4,9.19Z"/></g><g id="POLYLINE-33" data-name="POLYLINE"><polygon class="cls-1" points="694.71 352.88 694.71 353.78 696.59 353.78 696.59 350.18 699.22 350.18 699.22 353.78 701.1 353.78 701.1 352.88 702.82 352.88 702.82 353.78 704.7 353.78 704.7 350.18 711.38 350.18 711.38 353.78 713.26 353.78 713.26 352.88 726.38 352.88 726.38 360.75 725.49 360.75 725.49 362.63 729.09 362.63 729.09 368.86 690.75 368.86 690.75 367.95 688.88 367.95 688.88 375.23 690.75 375.23 690.75 374.33 729.09 374.33 729.09 380.56 725.49 380.56 725.49 382.43 726.38 382.43 726.39 395.11 723.72 395.1 708.31 395.1 708.31 394.2 706.43 394.2 706.43 397.81 689.4 397.81 689.4 394.21 687.53 394.21 687.53 395.11 672.15 395.11 672.15 382.43 673.05 382.43 673.05 380.56 666.75 380.56 666.75 362.63 673.05 362.63 673.05 360.75 672.15 360.75 672.15 352.88 682.58 352.88 682.58 353.78 684.45 353.78 684.45 350.18 691.12 350.18 691.12 353.78 693 353.78 693 352.88 694.71 352.88"/></g><g id="POLYLINE-34" data-name="POLYLINE"><polygon class="cls-1" points="694.71 303.41 694.71 304.31 696.59 304.31 696.59 300.71 699.22 300.71 699.22 304.31 701.1 304.31 701.1 303.41 702.82 303.41 702.82 304.31 704.7 304.31 704.7 300.71 711.38 300.71 711.38 304.31 713.26 304.31 713.26 303.41 726.38 303.41 726.38 311.28 725.49 311.28 725.49 313.16 729.09 313.16 729.09 319.38 690.75 319.38 690.75 318.49 688.88 318.49 688.88 325.76 690.75 325.76 690.75 324.86 729.09 324.86 729.09 331.09 725.49 331.09 725.49 332.96 726.38 332.96 726.39 345.64 723.72 345.63 708.31 345.63 708.31 344.74 706.43 344.74 706.43 348.34 689.4 348.34 689.4 344.74 687.53 344.74 687.53 345.64 672.15 345.64 672.15 332.96 673.05 332.96 673.05 331.09 666.75 331.09 666.75 313.16 673.05 313.16 673.05 311.28 672.15 311.28 672.15 303.41 682.58 303.41 682.58 304.31 684.45 304.31 684.45 300.71 691.12 300.71 691.12 304.31 693 304.31 693 303.41 694.71 303.41"/></g><g id="POLYLINE-35" data-name="POLYLINE"><polygon class="cls-1" points="694.71 253.94 694.71 254.84 696.59 254.84 696.59 251.24 699.22 251.24 699.22 254.84 701.1 254.84 701.1 253.94 702.82 253.94 702.82 254.84 704.7 254.84 704.7 251.24 711.38 251.24 711.38 254.84 713.26 254.84 713.26 253.94 726.38 253.94 726.38 261.81 725.49 261.81 725.49 263.69 729.09 263.69 729.09 269.92 690.75 269.92 690.75 269.01 688.88 269.01 688.88 276.29 690.75 276.29 690.75 275.39 729.09 275.39 729.09 281.62 725.49 281.62 725.49 283.49 726.38 283.49 726.39 296.17 723.72 296.17 708.31 296.17 708.31 295.26 706.43 295.26 706.43 298.87 689.4 298.87 689.4 295.27 687.53 295.27 687.53 296.17 672.15 296.17 672.15 283.49 673.05 283.49 673.05 281.62 666.75 281.62 666.75 263.69 673.05 263.69 673.05 261.81 672.15 261.81 672.15 253.94 682.58 253.94 682.58 254.84 684.45 254.84 684.45 251.24 691.12 251.24 691.12 254.84 693 254.84 693 253.94 694.71 253.94"/></g><g id="POLYLINE-36" data-name="POLYLINE"><polygon class="cls-1" points="694.71 204.47 694.71 205.37 696.59 205.37 696.59 201.77 699.22 201.77 699.22 205.37 701.1 205.37 701.1 204.47 702.82 204.47 702.82 205.37 704.7 205.37 704.7 201.77 711.38 201.77 711.38 205.37 713.26 205.37 713.26 204.47 726.38 204.47 726.38 212.34 725.49 212.34 725.49 214.22 729.09 214.22 729.09 220.44 690.75 220.44 690.75 219.54 688.88 219.54 688.88 226.82 690.75 226.82 690.75 225.92 729.09 225.92 729.09 232.15 725.49 232.15 725.49 234.02 726.38 234.02 726.39 246.7 723.72 246.69 708.31 246.69 708.31 245.79 706.43 245.79 706.43 249.4 689.4 249.4 689.4 245.8 687.53 245.8 687.53 246.7 672.15 246.7 672.15 234.02 673.05 234.02 673.05 232.15 666.75 232.15 666.75 214.22 673.05 214.22 673.05 212.34 672.15 212.34 672.15 204.47 682.58 204.47 682.58 205.37 684.45 205.37 684.45 201.77 691.12 201.77 691.12 205.37 693 205.37 693 204.47 694.71 204.47"/></g><g id="POLYLINE-37" data-name="POLYLINE"><polygon class="cls-1" points="694.71 155 694.71 155.9 696.59 155.9 696.59 152.3 699.22 152.3 699.22 155.9 701.1 155.9 701.1 155 702.82 155 702.82 155.9 704.7 155.9 704.7 152.3 711.38 152.3 711.38 155.9 713.26 155.9 713.26 155 726.38 155 726.38 162.87 725.49 162.87 725.49 164.75 729.09 164.75 729.09 170.98 690.75 170.98 690.75 170.08 688.88 170.08 688.88 177.35 690.75 177.35 690.75 176.45 729.09 176.45 729.09 182.68 725.49 182.68 725.49 184.55 726.38 184.55 726.39 197.23 723.72 197.22 708.31 197.22 708.31 196.32 706.43 196.32 706.43 199.93 689.4 199.93 689.4 196.33 687.53 196.33 687.53 197.23 672.15 197.23 672.15 184.55 673.05 184.55 673.05 182.68 666.75 182.68 666.75 164.75 673.05 164.75 673.05 162.87 672.15 162.87 672.15 155 682.58 155 682.58 155.9 684.45 155.9 684.45 152.3 691.12 152.3 691.12 155.9 693 155.9 693 155 694.71 155"/></g><g id="POLYLINE-38" data-name="POLYLINE"><polygon class="cls-1" points="694.71 105.53 694.71 106.43 696.59 106.43 696.59 102.83 699.22 102.83 699.22 106.43 701.1 106.43 701.1 105.53 702.82 105.53 702.82 106.43 704.7 106.43 704.7 102.83 711.38 102.83 711.38 106.43 713.26 106.43 713.26 105.53 726.38 105.53 726.38 113.41 725.49 113.41 725.49 115.28 729.09 115.28 729.09 121.51 690.75 121.51 690.75 120.61 688.88 120.61 688.88 127.88 690.75 127.88 690.75 126.98 729.09 126.98 729.09 133.21 725.49 133.21 725.49 135.08 726.38 135.08 726.39 147.76 723.72 147.76 708.31 147.76 708.31 146.86 706.43 146.86 706.43 150.46 689.4 150.46 689.4 146.86 687.53 146.86 687.53 147.76 672.15 147.76 672.15 135.08 673.05 135.08 673.05 133.21 666.75 133.21 666.75 115.28 673.05 115.28 673.05 113.41 672.15 113.41 672.15 105.53 682.58 105.53 682.58 106.43 684.45 106.43 684.45 102.83 691.12 102.83 691.12 106.43 693 106.43 693 105.53 694.71 105.53"/></g><g id="POLYLINE-39" data-name="POLYLINE"><polygon class="cls-1" points="597.17 94.23 597.17 95.13 599.05 95.13 599.05 91.53 601.68 91.53 601.68 95.13 603.56 95.13 603.56 94.23 605.28 94.23 605.28 95.13 607.16 95.13 607.16 91.53 613.84 91.53 613.84 95.13 615.72 95.13 615.72 94.23 628.84 94.23 628.84 102.1 627.94 102.1 627.94 103.98 631.54 103.98 631.54 110.21 593.21 110.21 593.21 109.31 591.34 109.31 591.34 116.58 593.21 116.58 593.21 115.68 631.54 115.68 631.54 121.91 627.94 121.91 627.94 123.78 628.84 123.78 628.85 136.46 626.18 136.46 610.77 136.46 610.77 135.56 608.89 135.56 608.89 139.16 591.86 139.16 591.86 135.56 589.99 135.56 589.99 136.46 574.61 136.46 574.61 123.78 575.51 123.78 575.51 121.91 569.21 121.91 569.21 103.98 575.51 103.98 575.51 102.1 574.61 102.1 574.61 94.23 585.04 94.23 585.04 95.13 586.91 95.13 586.91 91.53 593.58 91.53 593.58 95.13 595.46 95.13 595.46 94.23 597.17 94.23"/></g><g id="POLYLINE-40" data-name="POLYLINE"><polygon class="cls-1" points="598.51 41.89 598.51 42.79 600.39 42.79 600.39 39.19 603.02 39.19 603.02 42.79 604.9 42.79 604.9 41.89 606.62 41.89 606.62 42.79 608.5 42.79 608.5 39.19 615.18 39.19 615.18 42.79 617.06 42.79 617.06 41.89 630.18 41.89 630.18 49.76 629.28 49.76 629.28 51.64 632.88 51.64 632.88 57.87 594.55 57.87 594.55 56.97 592.68 56.97 592.68 64.24 594.55 64.24 594.55 63.34 632.88 63.34 632.88 69.57 629.28 69.57 629.28 71.44 630.18 71.44 630.19 84.12 627.52 84.11 612.11 84.11 612.11 83.22 610.23 83.22 610.23 86.82 593.2 86.82 593.2 83.22 591.33 83.22 591.33 84.12 575.95 84.12 575.95 71.44 576.85 71.44 576.85 69.57 570.55 69.57 570.55 51.64 576.85 51.64 576.85 49.76 575.95 49.76 575.95 41.89 586.38 41.89 586.38 42.79 588.25 42.79 588.25 39.19 594.92 39.19 594.92 42.79 596.79 42.79 596.79 41.89 598.51 41.89"/></g><g id="POLYLINE-41" data-name="POLYLINE"><polygon class="cls-1" points="505.49 134.53 506.39 134.53 506.39 132.66 502.79 132.66 502.79 130.02 506.39 130.02 506.39 128.15 505.49 128.15 505.49 126.42 506.39 126.42 506.39 124.55 502.79 124.55 502.79 117.86 506.39 117.86 506.39 115.98 505.49 115.98 505.49 102.86 513.37 102.86 513.37 103.76 515.24 103.76 515.24 100.16 521.47 100.16 521.47 138.49 520.57 138.49 520.57 140.36 527.85 140.36 527.85 138.49 526.95 138.49 526.95 100.16 533.17 100.16 533.17 103.76 535.05 103.76 535.05 102.86 547.72 102.86 547.72 105.52 547.72 120.94 546.82 120.94 546.82 122.81 550.42 122.81 550.42 139.84 546.82 139.84 546.82 141.71 547.72 141.71 547.72 157.09 535.05 157.09 535.05 156.19 533.17 156.19 533.17 162.49 515.24 162.49 515.24 156.19 513.37 156.19 513.37 157.09 505.49 157.09 505.49 146.66 506.39 146.66 506.39 144.79 502.79 144.79 502.79 138.12 506.39 138.12 506.39 136.25 505.49 136.25 505.49 134.53"/></g><g id="POLYLINE-42" data-name="POLYLINE"><polygon class="cls-1" points="505.49 69.87 506.39 69.87 506.39 68 502.79 68 502.79 65.36 506.39 65.36 506.39 63.49 505.49 63.49 505.49 61.76 506.39 61.76 506.39 59.89 502.79 59.89 502.79 53.2 506.39 53.2 506.39 51.33 505.49 51.33 505.49 38.2 513.37 38.2 513.37 39.1 515.24 39.1 515.24 35.5 521.47 35.5 521.47 73.83 520.57 73.83 520.57 75.7 527.85 75.7 527.85 73.83 526.95 73.83 526.95 35.5 533.17 35.5 533.17 39.1 535.05 39.1 535.05 38.2 547.72 38.2 547.72 40.86 547.72 56.28 546.82 56.28 546.82 58.15 550.42 58.15 550.42 75.18 546.82 75.18 546.82 77.06 547.72 77.06 547.72 92.43 535.05 92.43 535.05 91.53 533.17 91.53 533.17 97.83 515.24 97.83 515.24 91.53 513.37 91.53 513.37 92.43 505.49 92.43 505.49 82 506.39 82 506.39 80.13 502.79 80.13 502.79 73.46 506.39 73.46 506.39 71.59 505.49 71.59 505.49 69.87"/></g><g id="POLYLINE-43" data-name="POLYLINE"><polygon class="cls-1" points="455.54 134.53 456.44 134.53 456.44 132.66 452.83 132.66 452.83 130.02 456.44 130.02 456.44 128.15 455.54 128.15 455.54 126.42 456.44 126.42 456.44 124.55 452.83 124.55 452.83 117.86 456.44 117.86 456.44 115.98 455.54 115.98 455.54 102.86 463.41 102.86 463.41 103.76 465.29 103.76 465.29 100.16 471.51 100.16 471.51 138.49 470.61 138.49 470.61 140.36 477.89 140.36 477.89 138.49 476.99 138.49 476.99 100.16 483.21 100.16 483.21 103.76 485.09 103.76 485.09 102.86 497.76 102.86 497.76 105.52 497.76 120.94 496.86 120.94 496.86 122.81 500.47 122.81 500.47 139.84 496.87 139.84 496.87 141.71 497.77 141.71 497.77 157.09 485.09 157.09 485.09 156.19 483.21 156.19 483.21 162.49 465.29 162.49 465.29 156.19 463.41 156.19 463.41 157.09 455.54 157.09 455.54 146.66 456.44 146.66 456.44 144.79 452.83 144.79 452.83 138.12 456.44 138.12 456.44 136.25 455.54 136.25 455.54 134.53"/></g><g id="POLYLINE-44" data-name="POLYLINE"><polygon class="cls-1" points="455.54 69.87 456.44 69.87 456.44 68 452.83 68 452.83 65.36 456.44 65.36 456.44 63.49 455.54 63.49 455.54 61.76 456.44 61.76 456.44 59.89 452.83 59.89 452.83 53.2 456.44 53.2 456.44 51.33 455.54 51.33 455.54 38.2 463.41 38.2 463.41 39.1 465.29 39.1 465.29 35.5 471.51 35.5 471.51 73.83 470.61 73.83 470.61 75.7 477.89 75.7 477.89 73.83 476.99 73.83 476.99 35.5 483.21 35.5 483.21 39.1 485.09 39.1 485.09 38.2 497.76 38.2 497.76 40.86 497.76 56.28 496.86 56.28 496.86 58.15 500.47 58.15 500.47 75.18 496.87 75.18 496.87 77.06 497.77 77.06 497.77 92.43 485.09 92.43 485.09 91.53 483.21 91.53 483.21 97.83 465.29 97.83 465.29 91.53 463.41 91.53 463.41 92.43 455.54 92.43 455.54 82 456.44 82 456.44 80.13 452.83 80.13 452.83 73.46 456.44 73.46 456.44 71.59 455.54 71.59 455.54 69.87"/></g><g id="POLYLINE-45" data-name="POLYLINE"><polygon class="cls-1" points="586.93 191.2 586.93 209.28 599.6 209.28 599.6 208.38 601.48 208.38 601.48 211.98 607.71 211.98 607.71 173.65 606.8 173.65 606.8 171.77 614.08 171.77 614.08 173.65 613.18 173.65 613.18 211.98 619.41 211.98 619.41 208.38 621.28 208.38 621.28 209.28 629.16 209.28 629.16 196.15 628.26 196.15 628.26 194.28 631.86 194.28 631.86 167.35 628.26 167.35 628.26 165.47 629.16 165.47 629.16 152.34 621.28 152.34 621.28 153.24 619.41 153.24 619.41 149.64 601.48 149.64 601.48 153.24 599.6 153.24 599.6 152.34 586.93 152.34 586.93 170.42 587.83 170.42 587.83 172.3 584.23 172.3 584.23 189.32 587.83 189.32 587.83 191.2 586.93 191.2"/></g><g id="POLYLINE-46" data-name="POLYLINE"><polygon class="cls-1" points="751.04 254.4 748.48 254.41 748.48 253.54 747.06 253.54 747.06 258.05 748.48 258.05 748.48 257.18 751.04 257.17 751.04 258.04 752.46 258.04 752.46 253.53 751.04 253.53 751.04 254.4"/></g><g id="POLYLINE-47" data-name="POLYLINE"><polygon class="cls-1" points="751.04 279.9 748.48 279.91 748.48 279.04 747.06 279.04 747.06 283.55 748.48 283.55 748.48 282.69 751.04 282.67 751.04 283.54 752.46 283.54 752.46 279.03 751.04 279.03 751.04 279.9"/></g><g id="POLYLINE-48" data-name="POLYLINE"><polygon class="cls-1" points="751.04 305.4 748.48 305.41 748.48 304.55 747.06 304.55 747.06 309.05 748.48 309.05 748.48 308.19 751.04 308.18 751.04 309.04 752.46 309.04 752.46 304.54 751.04 304.54 751.04 305.4"/></g><g id="POLYLINE-49" data-name="POLYLINE"><polygon class="cls-1" points="751.04 330.91 748.48 330.92 748.48 330.05 747.06 330.05 747.06 334.56 748.48 334.56 748.48 333.69 751.04 333.68 751.04 334.55 752.46 334.55 752.46 330.04 751.04 330.04 751.04 330.91"/></g><g id="POLYLINE-50" data-name="POLYLINE"><polygon class="cls-1" points="751.04 356.41 748.48 356.42 748.48 355.56 747.06 355.56 747.06 360.06 748.48 360.06 748.48 359.2 751.04 359.19 751.04 360.05 752.46 360.05 752.46 355.55 751.04 355.55 751.04 356.41"/></g><g id="POLYLINE-51" data-name="POLYLINE"><polygon class="cls-1" points="751.04 381.91 748.48 381.92 748.48 381.06 747.06 381.06 747.06 385.56 748.48 385.56 748.48 384.7 751.04 384.69 751.04 385.55 752.46 385.55 752.46 381.05 751.04 381.05 751.04 381.91"/></g><g id="POLYLINE-52" data-name="POLYLINE"><polygon class="cls-1" points="751.04 75.87 748.48 75.88 748.48 75.02 747.06 75.02 747.06 79.52 748.48 79.52 748.48 78.66 751.04 78.65 751.04 79.51 752.46 79.51 752.46 75.01 751.04 75.01 751.04 75.87"/></g><g id="POLYLINE-53" data-name="POLYLINE"><polygon class="cls-1" points="751.04 101.38 748.48 101.39 748.48 100.52 747.06 100.52 747.06 105.03 748.48 105.03 748.48 104.16 751.04 104.15 751.04 105.02 752.46 105.02 752.46 100.51 751.04 100.51 751.04 101.38"/></g><g id="POLYLINE-54" data-name="POLYLINE"><polygon class="cls-1" points="751.04 126.88 748.48 126.89 748.48 126.03 747.06 126.03 747.06 130.53 748.48 130.53 748.48 129.66 751.04 129.66 751.04 130.52 752.46 130.52 752.46 126.01 751.04 126.01 751.04 126.88"/></g><g id="POLYLINE-55" data-name="POLYLINE"><polygon class="cls-1" points="751.04 152.38 748.48 152.39 748.48 151.53 747.06 151.53 747.06 156.03 748.48 156.03 748.48 155.17 751.04 155.16 751.04 156.02 752.46 156.02 752.46 151.52 751.04 151.52 751.04 152.38"/></g><g id="POLYLINE-56" data-name="POLYLINE"><polygon class="cls-1" points="751.04 177.89 748.48 177.9 748.48 177.03 747.06 177.03 747.06 181.54 748.48 181.54 748.48 180.67 751.04 180.66 751.04 181.53 752.46 181.53 752.46 177.02 751.04 177.02 751.04 177.89"/></g><g id="POLYLINE-57" data-name="POLYLINE"><polygon class="cls-1" points="751.04 203.39 748.48 203.4 748.48 202.54 747.06 202.54 747.06 207.04 748.48 207.04 748.48 206.18 751.04 206.17 751.04 207.03 752.46 207.03 752.46 202.53 751.04 202.53 751.04 203.39"/></g><g id="POLYLINE-58" data-name="POLYLINE"><polygon class="cls-1" points="751.04 228.89 748.48 228.9 748.48 228.04 747.06 228.04 747.06 232.54 748.48 232.54 748.48 231.68 751.04 231.67 751.04 232.53 752.46 232.53 752.46 228.03 751.04 228.03 751.04 228.89"/></g><g id="POLYLINE-59" data-name="POLYLINE"><polygon class="cls-1" points="751.04 50.37 748.48 50.38 748.48 49.51 747.06 49.51 747.06 54.02 748.48 54.02 748.48 53.15 751.04 53.14 751.04 54.01 752.46 54.01 752.46 49.5 751.04 49.5 751.04 50.37"/></g><g id="POLYLINE-60" data-name="POLYLINE"><polygon class="cls-1" points="162.53 219.84 162.53 212.57 164.4 212.57 164.4 213.47 187.73 213.47 187.73 212.57 189.6 212.57 189.6 219.84 187.73 219.84 187.73 218.94 164.4 218.94 164.4 219.84 162.53 219.84"/></g><g id="POLYLINE-61" data-name="POLYLINE"><polygon class="cls-1" points="187.73 303.48 187.73 302.58 189.6 302.58 189.6 309.86 187.73 309.86 187.73 308.96 164.4 308.96 164.4 309.86 162.53 309.86 162.53 302.58 164.4 302.58 164.4 303.48 187.73 303.48"/></g><g id="POLYLINE-62" data-name="POLYLINE"><path class="cls-1" d="M189.57,169.81a.72.72,0,0,1,0,1.43h-27a.72.72,0,0,1,0-1.43Z"/></g><g id="POLYLINE-63" data-name="POLYLINE"><polygon class="cls-1" points="120.82 256.91 120.82 256.01 122.69 256.01 122.69 263.29 120.82 263.29 120.82 262.39 107.39 262.39 107.39 263.29 105.52 263.29 105.52 256.01 107.39 256.01 107.39 256.91 120.82 256.91"/></g><g id="POLYLINE-64" data-name="POLYLINE"><polygon class="cls-1" points="107.39 346.02 107.39 346.92 120.82 346.92 120.82 346.02 122.69 346.02 122.69 353.3 120.82 353.3 120.82 352.4 107.39 352.4 107.39 353.3 105.52 353.3 105.52 346.02 107.39 346.02"/></g><g id="POLYLINE-65" data-name="POLYLINE"><path class="cls-1" d="M122.66,396.06H105.55a.72.72,0,0,1,0-1.43h17.11a.72.72,0,0,1,0,1.43Z"/></g><g id="POLYLINE-66" data-name="POLYLINE"><polygon class="cls-1" points="58.7 285.3 57.8 285.3 57.8 302.63 62.22 302.63 62.22 301.73 64.09 301.73 64.09 309 62.22 309 62.22 308.1 57.8 308.1 57.8 325.43 58.7 325.43 58.7 327.3 51.42 327.3 51.42 325.43 52.32 325.43 52.32 308.1 47.89 308.1 47.89 309 46.02 309 46.02 301.73 47.89 301.73 47.89 302.63 52.32 302.63 52.32 285.3 51.42 285.3 51.42 283.42 58.7 283.42 58.7 285.3"/></g><g id="POLYLINE-67" data-name="POLYLINE"><path class="cls-1" d="M73.77,311.36v-12a.72.72,0,0,1,1.43,0v12a.72.72,0,1,1-1.43,0Z"/></g><g id="POLYLINE-68" data-name="POLYLINE"><polygon class="cls-1" points="601.62 285.29 602.52 285.29 602.52 302.62 598.1 302.62 598.1 301.72 596.22 301.72 596.22 308.99 598.1 308.99 598.1 308.09 602.52 308.09 602.52 325.42 601.62 325.42 601.62 327.3 608.9 327.3 608.9 325.42 608 325.42 608 308.09 612.42 308.09 612.42 308.99 614.3 308.99 614.3 301.72 612.42 301.72 612.42 302.62 608 302.62 608 285.29 608.9 285.29 608.9 283.41 601.62 283.41 601.62 285.29"/></g><g id="POLYLINE-69" data-name="POLYLINE"><path class="cls-1" d="M586.55,311.36v-12a.72.72,0,0,0-1.43,0v12a.72.72,0,0,0,1.43,0Z"/></g><g id="POLYLINE-70" data-name="POLYLINE"><polygon class="cls-1" points="497.79 219.84 497.79 212.57 495.92 212.57 495.92 213.47 472.59 213.47 472.59 212.57 470.71 212.57 470.71 219.84 472.59 219.84 472.59 218.94 495.92 218.94 495.92 219.84 497.79 219.84"/></g><g id="POLYLINE-71" data-name="POLYLINE"><polygon class="cls-1" points="472.59 303.48 472.59 302.58 470.71 302.58 470.71 309.86 472.59 309.86 472.59 308.96 495.92 308.96 495.92 309.86 497.79 309.86 497.79 302.58 495.92 302.58 495.92 303.48 472.59 303.48"/></g><g id="POLYLINE-72" data-name="POLYLINE"><path class="cls-1" d="M470.75,169.81a.72.72,0,0,0,0,1.43h27a.72.72,0,1,0,0-1.43Z"/></g><g id="POLYLINE-73" data-name="POLYLINE"><polygon class="cls-1" points="555.63 309.79 555.63 310.69 557.5 310.69 557.5 303.41 555.63 303.41 555.63 304.31 542.2 304.31 542.2 303.41 540.32 303.41 540.32 310.69 542.2 310.69 542.2 309.79 555.63 309.79"/></g><g id="POLYLINE-74" data-name="POLYLINE"><polygon class="cls-1" points="542.2 220.68 542.2 219.78 555.63 219.78 555.63 220.68 557.5 220.68 557.5 213.4 555.63 213.4 555.63 214.3 542.2 214.3 542.2 213.4 540.32 213.4 540.32 220.68 542.2 220.68"/></g><g id="POLYLINE-75" data-name="POLYLINE"><path class="cls-1" d="M557.46,170.64h-17.1a.72.72,0,0,0,0,1.43h17.1a.72.72,0,1,0,0-1.43Z"/></g><g id="POLYLINE-76" data-name="POLYLINE"><polygon class="cls-1" points="330.43 236.64 329.53 236.64 329.53 219.31 333.95 219.31 333.95 220.21 335.83 220.21 335.83 212.94 333.95 212.94 333.95 213.84 329.53 213.84 329.53 196.51 330.43 196.51 330.43 194.63 323.15 194.63 323.15 196.51 324.05 196.51 324.05 213.84 319.63 213.84 319.63 212.94 317.75 212.94 317.75 220.21 319.63 220.21 319.63 219.31 324.05 219.31 324.05 236.64 323.15 236.64 323.15 238.52 330.43 238.52 330.43 236.64"/></g><g id="POLYLINE-77" data-name="POLYLINE"><polygon class="cls-1" points="330.43 146.63 329.53 146.63 329.53 129.3 333.95 129.3 333.95 130.2 335.83 130.2 335.83 122.92 333.95 122.92 333.95 123.82 329.53 123.82 329.53 106.5 330.43 106.5 330.43 104.62 323.15 104.62 323.15 106.5 324.05 106.5 324.05 123.82 319.63 123.82 319.63 122.92 317.75 122.92 317.75 130.2 319.63 130.2 319.63 129.3 324.05 129.3 324.05 146.63 323.15 146.63 323.15 148.5 330.43 148.5 330.43 146.63"/></g><g id="POLYLINE-78" data-name="POLYLINE"><polygon class="cls-1" points="330.43 326.65 329.53 326.65 329.53 309.33 333.95 309.33 333.95 310.23 335.83 310.23 335.83 302.95 333.95 302.95 333.95 303.85 329.53 303.85 329.53 286.52 330.43 286.52 330.43 284.65 323.15 284.65 323.15 286.52 324.05 286.52 324.05 303.85 319.63 303.85 319.63 302.95 317.75 302.95 317.75 310.23 319.63 310.23 319.63 309.33 324.05 309.33 324.05 326.65 323.15 326.65 323.15 328.53 330.43 328.53 330.43 326.65"/></g><g id="POLYLINE-79" data-name="POLYLINE"><path class="cls-1" d="M306.65,300.59v12a.71.71,0,1,0,1.42,0v-12a.71.71,0,1,0-1.42,0Z"/></g><g id="POLYLINE-80" data-name="POLYLINE"><path class="cls-1" d="M306.65,210.57v12a.71.71,0,0,0,1.42,0v-12a.71.71,0,0,0-1.42,0Z"/></g><g id="POLYLINE-81" data-name="POLYLINE"><path class="cls-1" d="M306.65,120.56v12a.71.71,0,1,0,1.42,0v-12a.71.71,0,0,0-1.42,0Z"/></g><g id="POLYLINE-82" data-name="POLYLINE"><polygon class="cls-1" points="279.55 308.18 279.55 309.08 281.42 309.08 281.42 301.81 279.55 301.81 279.55 302.7 266.12 302.7 266.12 301.81 264.25 301.81 264.25 309.08 266.12 309.08 266.12 308.18 279.55 308.18"/></g><g id="POLYLINE-83" data-name="POLYLINE"><polygon class="cls-1" points="266.12 218.17 279.55 218.17 279.55 219.07 281.42 219.07 281.42 211.79 279.55 211.79 279.55 212.69 266.12 212.69 266.12 211.79 264.25 211.79 264.25 219.07 266.12 219.07 266.12 218.17"/></g><g id="POLYLINE-84" data-name="POLYLINE"><polygon class="cls-1" points="266.12 128.15 279.55 128.15 279.55 129.05 281.42 129.05 281.42 121.78 279.55 121.78 279.55 122.68 266.12 122.68 266.12 121.78 264.25 121.78 264.25 129.05 266.12 129.05 266.12 128.15"/></g><g id="POLYLINE-85" data-name="POLYLINE"><polygon class="cls-1" points="400.66 212.18 377.33 212.18 377.33 211.28 375.46 211.28 375.46 218.56 377.33 218.56 377.33 217.66 400.66 217.66 400.66 218.56 402.54 218.56 402.54 211.28 400.66 211.28 400.66 212.18"/></g><g id="POLYLINE-86" data-name="POLYLINE"><polygon class="cls-1" points="400.66 308.57 402.54 308.57 402.54 301.3 400.66 301.3 400.66 302.2 377.33 302.2 377.33 301.3 375.46 301.3 375.46 308.57 377.33 308.57 377.33 307.67 400.66 307.67 400.66 308.57"/></g><g id="POLYLINE-87" data-name="POLYLINE"><polygon class="cls-1" points="375.46 128.55 377.33 128.55 377.33 127.65 400.66 127.65 400.66 128.55 402.54 128.55 402.54 121.27 400.66 121.27 400.66 122.17 377.33 122.17 377.33 121.27 375.46 121.27 375.46 128.55"/></g><g id="MTEXT"><text class="cls-2" transform="translate(586.08 76.4) rotate(-90)">END-M/A</text></g><g id="MTEXT-2" data-name="MTEXT"><text class="cls-2" transform="translate(585.33 128.75) rotate(-90)">END-M/A</text></g><g id="MTEXT-3" data-name="MTEXT"><text class="cls-2" transform="translate(486.2 281.79) rotate(-90)">END-M3/C</text></g><g id="MTEXT-4" data-name="MTEXT"><text class="cls-2" transform="translate(546.24 243.9) rotate(90)">END-M3/D</text></g><g id="MTEXT-5" data-name="MTEXT"><text class="cls-2" transform="translate(619.85 291.2) rotate(90)">END-M3/E</text></g><g id="MTEXT-6" data-name="MTEXT"><text class="cls-2" transform="translate(594.93 163.84)">END-M/B</text></g><g id="MTEXT-7" data-name="MTEXT"><text class="cls-2" transform="translate(682.13 140.05) rotate(-90)">END-M/A</text></g><g id="MTEXT-8" data-name="MTEXT"><text class="cls-2" transform="translate(681.98 387.39) rotate(-90)">END-M/A</text></g><g id="MTEXT-9" data-name="MTEXT"><text class="cls-2" transform="translate(682.73 337.92) rotate(-90)">END-M/A</text></g><g id="MTEXT-10" data-name="MTEXT"><text class="cls-2" transform="translate(682.87 288.46) rotate(-90)">END-M/A</text></g><g id="MTEXT-11" data-name="MTEXT"><text class="cls-2" transform="translate(683.92 238.99) rotate(-90)">END-M/A</text></g><g id="MTEXT-12" data-name="MTEXT"><text class="cls-2" transform="translate(682.73 189.52) rotate(-90)">END-M/A</text></g><g id="MTEXT-13" data-name="MTEXT"><text class="cls-2" transform="translate(387.41 244.5) rotate(90)">END-M2/B</text></g><g id="MTEXT-14" data-name="MTEXT"><text class="cls-2" transform="translate(540.01 146.37) rotate(180)">END-M/A</text></g><g id="MTEXT-15" data-name="MTEXT"><text class="cls-2" transform="translate(490.05 146.52) rotate(180)">END-M/A</text></g><g id="MTEXT-16" data-name="MTEXT"><text class="cls-2" transform="translate(342.24 201.45) rotate(90)">END-M2/D</text></g><g id="MTEXT-17" data-name="MTEXT"><text class="cls-2" transform="translate(269.69 245.33) rotate(90)">END-M2/C</text></g><g id="MTEXT-18" data-name="MTEXT"><text class="cls-2" transform="translate(111.43 291.05) rotate(90)">END-M1/D</text></g><g id="MTEXT-19" data-name="MTEXT"><text class="cls-2" transform="translate(174.11 255.47) rotate(90)">END-M1/C</text></g><g id="MTEXT-20" data-name="MTEXT"><text class="cls-2" transform="translate(39.83 321.37) rotate(-90)">END-M1/E</text></g><g id="MTEXT-21" data-name="MTEXT"><text class="cls-2" transform="translate(146.78 81.26) rotate(180)">END-M/A</text></g><g id="MTEXT-22" data-name="MTEXT"><text class="cls-2" transform="translate(196.74 81.41) rotate(180)">END-M/A</text></g><g id="MTEXT-23" data-name="MTEXT"><text class="cls-2" transform="translate(196.74 146.82) rotate(180)">END-M/A</text></g><g id="MTEXT-24" data-name="MTEXT"><text class="cls-2" transform="translate(40.79 164.44)">END-M/B</text></g><g id="MTEXT-25" data-name="MTEXT"><text class="cls-2" transform="translate(74.08 102.28) rotate(90)">END-M/A</text></g><g id="MTEXT-26" data-name="MTEXT"><text class="cls-2" transform="translate(73.5 49.94) rotate(90)">END-M/A</text></g><g id="MTEXT-27" data-name="MTEXT"><text class="cls-2" transform="translate(146.78 146.67) rotate(180)">END-M/A</text></g><g id="MTEXT-28" data-name="MTEXT"><text class="cls-2" transform="translate(513.54 68.81)">END-M/A</text></g><g id="MTEXT-29" data-name="MTEXT"><text class="cls-2" transform="translate(463.58 68.81)">END-M/A</text></g><g id="POLYLINE-88" data-name="POLYLINE"><rect class="cls-3" x="25.61" y="33.56" width="183.03" height="366.05"/></g><g id="POLYLINE-89" data-name="POLYLINE"><rect class="cls-3" x="238.65" y="33.56" width="183.03" height="366.05"/></g><g id="POLYLINE-90" data-name="POLYLINE"><rect class="cls-3" x="451.68" y="33.56" width="183.03" height="366.05"/></g><g id="POLYLINE-91" data-name="POLYLINE"><rect class="cls-3" x="664.71" y="33.56" width="183.03" height="366.05"/></g></svg>