<svg id="Layer_1" data-name="Layer 1" xmlns="http://www.w3.org/2000/svg" viewBox="0 0 425.2 425.2"><defs><style>.cls-1,.cls-2{fill:none;stroke-linecap:round;stroke-linejoin:round;}.cls-1{stroke:#000;stroke-width:0.25px;}.cls-2{stroke:#1d1d1b;}</style></defs><line class="cls-1" x1="186.52" y1="175.29" x2="186.52" y2="164.46"/><line class="cls-1" x1="186.52" y1="164.46" x2="186.44" y2="163.97"/><line class="cls-1" x1="186.44" y1="163.97" x2="186.21" y2="163.41"/><line class="cls-1" x1="186.21" y1="163.41" x2="185.85" y2="162.93"/><line class="cls-1" x1="185.85" y1="162.93" x2="185.46" y2="162.62"/><line class="cls-1" x1="185.46" y1="162.62" x2="176.43" y2="157.41"/><line class="cls-1" x1="176.43" y1="157.41" x2="176.04" y2="157.27"/><line class="cls-1" x1="176.04" y1="157.27" x2="175.68" y2="157.34"/><line class="cls-1" x1="175.68" y1="157.34" x2="175.47" y2="157.59"/><line class="cls-1" x1="175.46" y1="157.6" x2="175.45" y2="157.62"/><line class="cls-1" x1="173.78" y1="169.16" x2="171.66" y2="167.93"/><line class="cls-1" x1="172.19" y1="167.02" x2="172.19" y2="158.03"/><line class="cls-1" x1="172.19" y1="158.03" x2="172.12" y2="157.53"/><line class="cls-1" x1="172.12" y1="157.53" x2="171.88" y2="156.98"/><line class="cls-1" x1="171.88" y1="156.98" x2="171.52" y2="156.5"/><line class="cls-1" x1="171.52" y1="156.5" x2="171.13" y2="156.19"/><line class="cls-1" x1="171.13" y1="156.19" x2="160.95" y2="150.32"/><line class="cls-1" x1="160.95" y1="150.32" x2="160.56" y2="150.18"/><line class="cls-1" x1="160.56" y1="150.18" x2="160.2" y2="150.24"/><line class="cls-1" x1="160.05" y1="150.43" x2="160.01" y2="150.46"/><line class="cls-1" x1="159.97" y1="150.52" x2="159.95" y2="150.61"/><line class="cls-1" x1="158.3" y1="172.58" x2="156.18" y2="171.36"/><line class="cls-1" x1="156.71" y1="170.44" x2="156.71" y2="149.09"/><line class="cls-1" x1="156.71" y1="149.09" x2="156.63" y2="148.6"/><line class="cls-1" x1="156.63" y1="148.6" x2="156.4" y2="148.04"/><line class="cls-1" x1="156.4" y1="148.04" x2="156.04" y2="147.56"/><line class="cls-1" x1="156.04" y1="147.56" x2="155.65" y2="147.25"/><line class="cls-1" x1="155.65" y1="147.25" x2="148.31" y2="143.01"/><line class="cls-1" x1="148.31" y1="143.01" x2="147.92" y2="142.87"/><line class="cls-1" x1="147.92" y1="142.87" x2="147.56" y2="142.94"/><line class="cls-1" x1="147.56" y1="142.94" x2="147.4" y2="143.13"/><line class="cls-1" x1="147.37" y1="143.16" x2="147.32" y2="143.22"/><line class="cls-1" x1="171.35" y1="203.35" x2="171.52" y2="203.41"/><line class="cls-1" x1="171.64" y1="203.39" x2="171.88" y2="203.35"/><line class="cls-1" x1="171.88" y1="203.35" x2="172.12" y2="203.07"/><line class="cls-1" x1="172.12" y1="203.07" x2="172.19" y2="202.66"/><line class="cls-1" x1="172.19" y1="202.66" x2="172.19" y2="199.19"/><line class="cls-1" x1="224.71" y1="234.03" x2="224.95" y2="233.99"/><line class="cls-1" x1="224.95" y1="233.99" x2="225.19" y2="233.71"/><line class="cls-1" x1="225.19" y1="233.71" x2="225.26" y2="233.3"/><line class="cls-1" x1="225.26" y1="233.3" x2="225.26" y2="229.83"/><line class="cls-1" x1="277.78" y1="264.67" x2="278.02" y2="264.63"/><line class="cls-1" x1="278.02" y1="264.63" x2="278.26" y2="264.35"/><line class="cls-1" x1="278.26" y1="264.35" x2="278.33" y2="263.94"/><line class="cls-1" x1="278.33" y1="263.94" x2="278.33" y2="260.47"/><line class="cls-1" x1="292.66" y1="236.57" x2="292.66" y2="225.74"/><line class="cls-1" x1="292.66" y1="225.74" x2="292.59" y2="225.25"/><line class="cls-1" x1="292.59" y1="225.25" x2="292.35" y2="224.7"/><line class="cls-1" x1="292.35" y1="224.7" x2="291.99" y2="224.22"/><line class="cls-1" x1="291.99" y1="224.22" x2="291.6" y2="223.9"/><line class="cls-1" x1="291.6" y1="223.9" x2="282.58" y2="218.7"/><line class="cls-1" x1="282.58" y1="218.7" x2="282.19" y2="218.56"/><line class="cls-1" x1="282.19" y1="218.56" x2="281.83" y2="218.62"/><line class="cls-1" x1="279.92" y1="230.44" x2="277.8" y2="229.21"/><line class="cls-1" x1="278.33" y1="228.3" x2="278.33" y2="217.47"/><line class="cls-1" x1="278.33" y1="217.47" x2="278.26" y2="216.98"/><line class="cls-1" x1="278.26" y1="216.98" x2="278.02" y2="216.42"/><line class="cls-1" x1="278.02" y1="216.42" x2="277.66" y2="215.94"/><line class="cls-1" x1="277.66" y1="215.94" x2="277.27" y2="215.63"/><line class="cls-1" x1="277.27" y1="215.63" x2="268.25" y2="210.42"/><line class="cls-1" x1="268.25" y1="210.42" x2="267.86" y2="210.28"/><line class="cls-1" x1="267.86" y1="210.28" x2="267.5" y2="210.35"/><line class="cls-1" x1="239.59" y1="205.93" x2="239.59" y2="195.1"/><line class="cls-1" x1="239.59" y1="195.1" x2="239.51" y2="194.61"/><line class="cls-1" x1="239.51" y1="194.61" x2="239.28" y2="194.06"/><line class="cls-1" x1="239.28" y1="194.06" x2="238.92" y2="193.58"/><line class="cls-1" x1="238.92" y1="193.58" x2="238.53" y2="193.26"/><line class="cls-1" x1="238.53" y1="193.26" x2="229.51" y2="188.05"/><line class="cls-1" x1="229.51" y1="188.05" x2="229.11" y2="187.91"/><line class="cls-1" x1="229.11" y1="187.91" x2="228.75" y2="187.98"/><line class="cls-1" x1="226.85" y1="199.8" x2="224.73" y2="198.57"/><line class="cls-1" x1="225.26" y1="197.66" x2="225.26" y2="186.83"/><line class="cls-1" x1="225.26" y1="186.83" x2="225.19" y2="186.33"/><line class="cls-1" x1="225.19" y1="186.33" x2="224.95" y2="185.78"/><line class="cls-1" x1="224.95" y1="185.78" x2="224.59" y2="185.3"/><line class="cls-1" x1="224.59" y1="185.3" x2="224.2" y2="184.99"/><line class="cls-1" x1="224.2" y1="184.99" x2="215.18" y2="179.78"/><line class="cls-1" x1="215.18" y1="179.78" x2="214.78" y2="179.64"/><line class="cls-1" x1="214.78" y1="179.64" x2="214.42" y2="179.71"/><line class="cls-1" x1="287.18" y1="229.73" x2="285.05" y2="228.5"/><line class="cls-1" x1="285.05" y1="228.5" x2="285.05" y2="227.89"/><line class="cls-1" x1="285.58" y1="227.58" x2="285.58" y2="224.52"/><line class="cls-1" x1="234.1" y1="199.09" x2="231.98" y2="197.86"/><line class="cls-1" x1="231.98" y1="197.86" x2="231.98" y2="197.25"/><line class="cls-1" x1="232.51" y1="196.94" x2="232.51" y2="193.88"/><line class="cls-1" x1="272.67" y1="221.35" x2="270.55" y2="220.13"/><line class="cls-1" x1="270.55" y1="220.13" x2="270.55" y2="219.51"/><line class="cls-1" x1="271.08" y1="219.21" x2="271.08" y2="216.14"/><line class="cls-1" x1="181.03" y1="168.44" x2="178.91" y2="167.22"/><line class="cls-1" x1="178.91" y1="167.22" x2="178.91" y2="166.6"/><line class="cls-1" x1="179.44" y1="166.3" x2="179.44" y2="163.23"/><line class="cls-1" x1="219.6" y1="190.71" x2="217.48" y2="189.48"/><line class="cls-1" x1="217.48" y1="189.48" x2="217.48" y2="188.87"/><line class="cls-1" x1="218.01" y1="188.56" x2="218.01" y2="185.5"/><line class="cls-1" x1="287.18" y1="268.03" x2="285.05" y2="266.8"/><line class="cls-1" x1="285.05" y1="266.8" x2="285.05" y2="266.19"/><line class="cls-1" x1="285.58" y1="265.88" x2="285.58" y2="262.82"/><line class="cls-1" x1="234.1" y1="237.38" x2="231.98" y2="236.16"/><line class="cls-1" x1="231.98" y1="236.16" x2="231.98" y2="235.55"/><line class="cls-1" x1="232.51" y1="235.24" x2="232.51" y2="232.18"/><line class="cls-1" x1="272.67" y1="259.65" x2="270.55" y2="258.42"/><line class="cls-1" x1="270.55" y1="258.42" x2="270.55" y2="257.81"/><line class="cls-1" x1="271.08" y1="257.51" x2="271.08" y2="254.44"/><line class="cls-1" x1="181.03" y1="206.74" x2="178.91" y2="205.52"/><line class="cls-1" x1="178.91" y1="205.52" x2="178.91" y2="204.91"/><line class="cls-1" x1="179.44" y1="204.6" x2="179.44" y2="201.54"/><line class="cls-1" x1="219.6" y1="229.01" x2="217.48" y2="227.78"/><line class="cls-1" x1="217.48" y1="227.78" x2="217.48" y2="227.17"/><line class="cls-1" x1="218.01" y1="226.87" x2="218.01" y2="223.8"/><line class="cls-1" x1="184.93" y1="176.21" x2="184.93" y2="165.38"/><line class="cls-1" x1="184.93" y1="165.38" x2="184.85" y2="164.88"/><line class="cls-1" x1="184.61" y1="164.33" x2="184.25" y2="163.85"/><line class="cls-1" x1="184.25" y1="163.85" x2="183.86" y2="163.54"/><line class="cls-1" x1="183.86" y1="163.54" x2="185.46" y2="162.62"/><line class="cls-1" x1="184.85" y1="164.88" x2="184.61" y2="164.33"/><line class="cls-1" x1="184.39" y1="175.9" x2="184.93" y2="176.21"/><line class="cls-1" x1="184.39" y1="177.13" x2="184.39" y2="175.9"/><line class="cls-1" x1="213.05" y1="193.67" x2="184.39" y2="177.13"/><line class="cls-1" x1="213.05" y1="192.45" x2="213.05" y2="193.67"/><line class="cls-1" x1="212.52" y1="192.14" x2="213.05" y2="192.45"/><line class="cls-1" x1="223.67" y1="198.57" x2="223.67" y2="187.75"/><line class="cls-1" x1="223.67" y1="187.75" x2="223.59" y2="187.25"/><line class="cls-1" x1="222.61" y1="185.91" x2="213.58" y2="180.7"/><line class="cls-1" x1="212.83" y1="180.63" x2="212.6" y2="180.9"/><line class="cls-1" x1="212.6" y1="180.9" x2="212.52" y2="181.31"/><line class="cls-1" x1="223.36" y1="186.7" x2="223" y2="186.22"/><line class="cls-1" x1="223" y1="186.22" x2="222.61" y2="185.91"/><line class="cls-1" x1="223.59" y1="187.25" x2="223.36" y2="186.7"/><line class="cls-1" x1="213.58" y1="180.7" x2="213.19" y2="180.56"/><line class="cls-1" x1="213.19" y1="180.56" x2="212.83" y2="180.63"/><line class="cls-1" x1="223.14" y1="198.27" x2="223.67" y2="198.57"/><line class="cls-1" x1="223.14" y1="199.49" x2="223.14" y2="198.27"/><line class="cls-1" x1="227.38" y1="201.94" x2="223.14" y2="199.49"/><line class="cls-1" x1="227.38" y1="200.72" x2="227.38" y2="201.94"/><line class="cls-1" x1="226.85" y1="200.41" x2="227.38" y2="200.72"/><line class="cls-1" x1="238" y1="206.85" x2="238" y2="196.02"/><line class="cls-1" x1="238" y1="196.02" x2="237.92" y2="195.53"/><line class="cls-1" x1="236.93" y1="194.18" x2="227.91" y2="188.97"/><line class="cls-1" x1="227.16" y1="188.9" x2="226.93" y2="189.18"/><line class="cls-1" x1="226.93" y1="189.18" x2="226.85" y2="189.58"/><line class="cls-1" x1="237.69" y1="194.98" x2="237.33" y2="194.49"/><line class="cls-1" x1="237.33" y1="194.49" x2="236.93" y2="194.18"/><line class="cls-1" x1="237.92" y1="195.53" x2="237.69" y2="194.98"/><line class="cls-1" x1="227.91" y1="188.97" x2="227.52" y2="188.83"/><line class="cls-1" x1="227.52" y1="188.83" x2="227.16" y2="188.9"/><line class="cls-1" x1="237.47" y1="206.54" x2="238" y2="206.85"/><line class="cls-1" x1="237.47" y1="207.77" x2="237.47" y2="206.54"/><line class="cls-1" x1="266.13" y1="224.31" x2="237.47" y2="207.77"/><line class="cls-1" x1="266.13" y1="223.09" x2="266.13" y2="224.31"/><line class="cls-1" x1="265.6" y1="222.78" x2="266.13" y2="223.09"/><line class="cls-1" x1="276.74" y1="229.21" x2="276.74" y2="218.39"/><line class="cls-1" x1="276.74" y1="218.39" x2="276.66" y2="217.89"/><line class="cls-1" x1="275.68" y1="216.55" x2="266.66" y2="211.34"/><line class="cls-1" x1="265.91" y1="211.27" x2="265.67" y2="211.54"/><line class="cls-1" x1="265.67" y1="211.54" x2="265.6" y2="211.95"/><line class="cls-1" x1="276.43" y1="217.34" x2="276.07" y2="216.86"/><line class="cls-1" x1="276.07" y1="216.86" x2="275.68" y2="216.55"/><line class="cls-1" x1="276.66" y1="217.89" x2="276.43" y2="217.34"/><line class="cls-1" x1="266.66" y1="211.34" x2="266.27" y2="211.2"/><line class="cls-1" x1="266.27" y1="211.2" x2="265.91" y2="211.27"/><line class="cls-1" x1="276.21" y1="228.91" x2="276.74" y2="229.21"/><line class="cls-1" x1="276.21" y1="230.13" x2="276.21" y2="228.91"/><line class="cls-1" x1="280.45" y1="232.58" x2="276.21" y2="230.13"/><line class="cls-1" x1="280.45" y1="231.36" x2="280.45" y2="232.58"/><line class="cls-1" x1="279.92" y1="231.05" x2="280.45" y2="231.36"/><line class="cls-1" x1="291.07" y1="237.49" x2="291.07" y2="226.66"/><line class="cls-1" x1="291.07" y1="226.66" x2="290.99" y2="226.17"/><line class="cls-1" x1="290.01" y1="224.82" x2="280.98" y2="219.61"/><line class="cls-1" x1="280.23" y1="219.54" x2="280" y2="219.82"/><line class="cls-1" x1="280" y1="219.82" x2="279.92" y2="220.23"/><line class="cls-1" x1="290.76" y1="225.62" x2="290.4" y2="225.13"/><line class="cls-1" x1="290.4" y1="225.13" x2="290.01" y2="224.82"/><line class="cls-1" x1="290.99" y1="226.17" x2="290.76" y2="225.62"/><line class="cls-1" x1="280.98" y1="219.61" x2="280.59" y2="219.48"/><line class="cls-1" x1="280.59" y1="219.48" x2="280.23" y2="219.54"/><line class="cls-1" x1="290.54" y1="237.18" x2="291.07" y2="237.49"/><line class="cls-1" x1="290.54" y1="238.41" x2="290.54" y2="237.18"/><line class="cls-1" x1="306.46" y1="245.76" x2="304.87" y2="246.68"/><line class="cls-1" x1="304.87" y1="246.68" x2="290.54" y2="238.41"/><line class="cls-1" x1="306.46" y1="281.41" x2="304.87" y2="282.32"/><line class="cls-1" x1="279.92" y1="262.61" x2="279.92" y2="266.7"/><line class="cls-1" x1="280" y1="267.19" x2="280.23" y2="267.75"/><line class="cls-1" x1="280.59" y1="268.23" x2="280.98" y2="268.54"/><line class="cls-1" x1="280.98" y1="268.54" x2="304.87" y2="282.32"/><line class="cls-1" x1="279.92" y1="266.7" x2="280" y2="267.19"/><line class="cls-1" x1="280.23" y1="267.75" x2="280.59" y2="268.23"/><line class="cls-1" x1="280.45" y1="262.92" x2="279.92" y2="262.61"/><line class="cls-1" x1="276.21" y1="260.47" x2="276.21" y2="259.24"/><line class="cls-1" x1="276.74" y1="260.77" x2="276.21" y2="260.47"/><line class="cls-1" x1="226.85" y1="231.97" x2="226.85" y2="236.06"/><line class="cls-1" x1="227.91" y1="237.9" x2="275.68" y2="265.47"/><line class="cls-1" x1="226.85" y1="236.06" x2="226.93" y2="236.55"/><line class="cls-1" x1="227.16" y1="237.1" x2="227.52" y2="237.58"/><line class="cls-1" x1="227.52" y1="237.58" x2="227.91" y2="237.9"/><line class="cls-1" x1="226.93" y1="236.55" x2="227.16" y2="237.1"/><line class="cls-1" x1="275.68" y1="265.47" x2="276.07" y2="265.61"/><line class="cls-1" x1="276.07" y1="265.61" x2="276.43" y2="265.55"/><line class="cls-1" x1="276.43" y1="265.55" x2="276.66" y2="265.27"/><line class="cls-1" x1="276.66" y1="265.27" x2="276.74" y2="264.86"/><line class="cls-1" x1="276.74" y1="264.86" x2="276.74" y2="260.77"/><line class="cls-1" x1="227.38" y1="232.28" x2="226.85" y2="231.97"/><line class="cls-1" x1="223.14" y1="229.83" x2="223.14" y2="228.6"/><line class="cls-1" x1="223.67" y1="230.13" x2="223.14" y2="229.83"/><line class="cls-1" x1="173.78" y1="201.33" x2="173.78" y2="205.42"/><line class="cls-1" x1="174.84" y1="207.26" x2="222.61" y2="234.83"/><line class="cls-1" x1="173.78" y1="205.42" x2="173.86" y2="205.91"/><line class="cls-1" x1="174.09" y1="206.46" x2="174.45" y2="206.94"/><line class="cls-1" x1="174.45" y1="206.94" x2="174.84" y2="207.26"/><line class="cls-1" x1="173.86" y1="205.91" x2="174.09" y2="206.46"/><line class="cls-1" x1="222.61" y1="234.83" x2="223" y2="234.97"/><line class="cls-1" x1="223" y1="234.97" x2="223.36" y2="234.91"/><line class="cls-1" x1="223.36" y1="234.91" x2="223.59" y2="234.63"/><line class="cls-1" x1="223.59" y1="234.63" x2="223.67" y2="234.22"/><line class="cls-1" x1="223.67" y1="234.22" x2="223.67" y2="230.13"/><line class="cls-1" x1="174.31" y1="201.64" x2="173.78" y2="201.33"/><line class="cls-1" x1="170.07" y1="199.19" x2="170.07" y2="197.96"/><line class="cls-1" x1="170.6" y1="199.49" x2="170.07" y2="199.19"/><line class="cls-1" x1="145.65" y1="182.03" x2="145.65" y2="189.18"/><line class="cls-1" x1="146.72" y1="191.01" x2="169.54" y2="204.19"/><line class="cls-1" x1="145.65" y1="189.18" x2="145.73" y2="189.67"/><line class="cls-1" x1="145.97" y1="190.22" x2="146.33" y2="190.7"/><line class="cls-1" x1="146.33" y1="190.7" x2="146.72" y2="191.01"/><line class="cls-1" x1="145.73" y1="189.67" x2="145.97" y2="190.22"/><line class="cls-1" x1="169.54" y1="204.19" x2="169.93" y2="204.33"/><line class="cls-1" x1="169.93" y1="204.33" x2="170.29" y2="204.27"/><line class="cls-1" x1="170.29" y1="204.27" x2="170.52" y2="203.99"/><line class="cls-1" x1="170.52" y1="203.99" x2="170.6" y2="203.58"/><line class="cls-1" x1="170.6" y1="203.58" x2="170.6" y2="199.49"/><line class="cls-1" x1="146.19" y1="182.33" x2="145.65" y2="182.03"/><line class="cls-1" x1="144.06" y1="179.88" x2="146.19" y2="181.11"/><line class="cls-1" x1="145.65" y1="152.92" x2="144.06" y2="153.84"/><line class="cls-1" x1="144.06" y1="153.84" x2="144.06" y2="179.88"/><line class="cls-1" x1="146.19" y1="155.06" x2="144.06" y2="153.84"/><line class="cls-1" x1="146.19" y1="153.84" x2="146.19" y2="155.06"/><line class="cls-1" x1="145.65" y1="153.53" x2="146.19" y2="153.84"/><line class="cls-1" x1="155.12" y1="150.01" x2="155.04" y2="149.51"/><line class="cls-1" x1="154.06" y1="148.17" x2="146.72" y2="143.93"/><line class="cls-1" x1="155.12" y1="171.36" x2="155.12" y2="150.01"/><line class="cls-1" x1="155.04" y1="149.51" x2="154.81" y2="148.96"/><line class="cls-1" x1="154.45" y1="148.48" x2="154.06" y2="148.17"/><line class="cls-1" x1="154.81" y1="148.96" x2="154.45" y2="148.48"/><line class="cls-1" x1="146.72" y1="143.93" x2="146.33" y2="143.79"/><line class="cls-1" x1="146.33" y1="143.79" x2="145.97" y2="143.86"/><line class="cls-1" x1="145.97" y1="143.86" x2="145.73" y2="144.14"/><line class="cls-1" x1="145.73" y1="144.14" x2="145.65" y2="144.55"/><line class="cls-1" x1="154.59" y1="171.05" x2="155.12" y2="171.36"/><line class="cls-1" x1="154.59" y1="172.27" x2="154.59" y2="171.05"/><line class="cls-1" x1="158.83" y1="174.73" x2="154.59" y2="172.27"/><line class="cls-1" x1="158.83" y1="173.5" x2="158.83" y2="174.73"/><line class="cls-1" x1="158.3" y1="173.19" x2="158.83" y2="173.5"/><line class="cls-1" x1="170.6" y1="158.94" x2="170.52" y2="158.45"/><line class="cls-1" x1="169.54" y1="157.11" x2="159.36" y2="151.23"/><line class="cls-1" x1="170.6" y1="167.93" x2="170.6" y2="158.94"/><line class="cls-1" x1="170.52" y1="158.45" x2="170.29" y2="157.9"/><line class="cls-1" x1="169.93" y1="157.42" x2="169.54" y2="157.11"/><line class="cls-1" x1="170.29" y1="157.9" x2="169.93" y2="157.42"/><line class="cls-1" x1="159.36" y1="151.23" x2="158.97" y2="151.09"/><line class="cls-1" x1="158.97" y1="151.09" x2="158.61" y2="151.16"/><line class="cls-1" x1="158.61" y1="151.16" x2="158.38" y2="151.44"/><line class="cls-1" x1="158.38" y1="151.44" x2="158.3" y2="151.85"/><line class="cls-1" x1="170.07" y1="167.63" x2="170.6" y2="167.93"/><line class="cls-1" x1="170.07" y1="168.85" x2="170.07" y2="167.63"/><line class="cls-1" x1="174.31" y1="171.3" x2="170.07" y2="168.85"/><line class="cls-1" x1="174.31" y1="170.08" x2="174.31" y2="171.3"/><line class="cls-1" x1="173.78" y1="169.77" x2="174.31" y2="170.08"/><line class="cls-1" x1="174.84" y1="158.33" x2="174.45" y2="158.19"/><line class="cls-1" x1="183.86" y1="163.54" x2="174.84" y2="158.33"/><line class="cls-1" x1="174.45" y1="158.19" x2="174.09" y2="158.26"/><line class="cls-1" x1="174.09" y1="158.26" x2="173.86" y2="158.54"/><line class="cls-1" x1="173.86" y1="158.54" x2="173.78" y2="158.94"/><line class="cls-1" x1="215.89" y1="227.48" x2="216.42" y2="227.78"/><line class="cls-1" x1="217.48" y1="227.78" x2="215.89" y2="228.7"/><line class="cls-1" x1="215.89" y1="228.7" x2="215.89" y2="227.48"/><line class="cls-1" x1="220.13" y1="231.15" x2="215.89" y2="228.7"/><line class="cls-1" x1="220.13" y1="229.93" x2="220.13" y2="231.15"/><line class="cls-1" x1="219.6" y1="229.62" x2="220.13" y2="229.93"/><line class="cls-1" x1="220.13" y1="225.64" x2="219.6" y2="225.95"/><line class="cls-1" x1="220.13" y1="226.25" x2="219.6" y2="225.95"/><line class="cls-1" x1="216.95" y1="223.19" x2="215.89" y2="223.8"/><line class="cls-1" x1="215.89" y1="223.8" x2="215.89" y2="222.58"/><line class="cls-1" x1="217.48" y1="223.5" x2="216.42" y2="224.11"/><line class="cls-1" x1="216.42" y1="224.11" x2="215.89" y2="223.8"/><line class="cls-1" x1="216.42" y1="227.78" x2="216.42" y2="224.11"/><line class="cls-1" x1="178.38" y1="200.92" x2="177.32" y2="201.54"/><line class="cls-1" x1="177.32" y1="201.54" x2="177.32" y2="200.31"/><line class="cls-1" x1="178.91" y1="201.23" x2="177.85" y2="201.84"/><line class="cls-1" x1="177.85" y1="201.84" x2="177.32" y2="201.54"/><line class="cls-1" x1="177.85" y1="205.52" x2="177.85" y2="201.84"/><line class="cls-1" x1="177.32" y1="205.21" x2="177.85" y2="205.52"/><line class="cls-1" x1="178.91" y1="205.52" x2="177.32" y2="206.44"/><line class="cls-1" x1="177.32" y1="206.44" x2="177.32" y2="205.21"/><line class="cls-1" x1="181.56" y1="208.89" x2="177.32" y2="206.44"/><line class="cls-1" x1="181.56" y1="207.66" x2="181.56" y2="208.89"/><line class="cls-1" x1="181.03" y1="207.36" x2="181.56" y2="207.66"/><line class="cls-1" x1="181.56" y1="203.37" x2="181.03" y2="203.68"/><line class="cls-1" x1="181.56" y1="203.99" x2="181.03" y2="203.68"/><line class="cls-1" x1="268.96" y1="258.12" x2="269.49" y2="258.42"/><line class="cls-1" x1="270.55" y1="258.42" x2="268.96" y2="259.34"/><line class="cls-1" x1="268.96" y1="259.34" x2="268.96" y2="258.12"/><line class="cls-1" x1="273.2" y1="261.79" x2="268.96" y2="259.34"/><line class="cls-1" x1="273.2" y1="260.57" x2="273.2" y2="261.79"/><line class="cls-1" x1="272.67" y1="260.26" x2="273.2" y2="260.57"/><line class="cls-1" x1="273.2" y1="256.28" x2="272.67" y2="256.59"/><line class="cls-1" x1="273.2" y1="256.89" x2="272.67" y2="256.59"/><line class="cls-1" x1="270.02" y1="253.83" x2="268.96" y2="254.44"/><line class="cls-1" x1="268.96" y1="254.44" x2="268.96" y2="253.22"/><line class="cls-1" x1="270.55" y1="254.14" x2="269.49" y2="254.75"/><line class="cls-1" x1="269.49" y1="254.75" x2="268.96" y2="254.44"/><line class="cls-1" x1="269.49" y1="258.42" x2="269.49" y2="254.75"/><line class="cls-1" x1="231.45" y1="231.56" x2="230.39" y2="232.18"/><line class="cls-1" x1="230.39" y1="232.18" x2="230.39" y2="230.95"/><line class="cls-1" x1="231.98" y1="231.87" x2="230.92" y2="232.48"/><line class="cls-1" x1="230.92" y1="232.48" x2="230.39" y2="232.18"/><line class="cls-1" x1="230.92" y1="236.16" x2="230.92" y2="232.48"/><line class="cls-1" x1="230.39" y1="235.85" x2="230.92" y2="236.16"/><line class="cls-1" x1="231.98" y1="236.16" x2="230.39" y2="237.08"/><line class="cls-1" x1="230.39" y1="237.08" x2="230.39" y2="235.85"/><line class="cls-1" x1="234.64" y1="239.53" x2="230.39" y2="237.08"/><line class="cls-1" x1="234.64" y1="238.3" x2="234.64" y2="239.53"/><line class="cls-1" x1="234.1" y1="238" x2="234.64" y2="238.3"/><line class="cls-1" x1="234.64" y1="234.01" x2="234.1" y2="234.32"/><line class="cls-1" x1="234.64" y1="234.63" x2="234.1" y2="234.32"/><line class="cls-1" x1="287.71" y1="264.65" x2="287.18" y2="264.96"/><line class="cls-1" x1="287.71" y1="265.27" x2="287.18" y2="264.96"/><line class="cls-1" x1="284.52" y1="262.2" x2="283.46" y2="262.82"/><line class="cls-1" x1="283.46" y1="262.82" x2="283.46" y2="261.59"/><line class="cls-1" x1="285.05" y1="262.51" x2="283.99" y2="263.12"/><line class="cls-1" x1="283.99" y1="263.12" x2="283.46" y2="262.82"/><line class="cls-1" x1="283.99" y1="266.8" x2="283.99" y2="263.12"/><line class="cls-1" x1="283.46" y1="266.5" x2="283.99" y2="266.8"/><line class="cls-1" x1="285.05" y1="266.8" x2="283.46" y2="267.72"/><line class="cls-1" x1="283.46" y1="267.72" x2="283.46" y2="266.5"/><line class="cls-1" x1="287.71" y1="270.17" x2="283.46" y2="267.72"/><line class="cls-1" x1="287.71" y1="268.95" x2="287.71" y2="270.17"/><line class="cls-1" x1="287.18" y1="268.64" x2="287.71" y2="268.95"/><line class="cls-1" x1="219.6" y1="191.32" x2="220.13" y2="191.63"/><line class="cls-1" x1="220.13" y1="187.34" x2="219.6" y2="187.64"/><line class="cls-1" x1="220.13" y1="187.95" x2="219.6" y2="187.64"/><line class="cls-1" x1="216.95" y1="184.89" x2="215.89" y2="185.5"/><line class="cls-1" x1="215.89" y1="185.5" x2="215.89" y2="184.27"/><line class="cls-1" x1="217.48" y1="185.19" x2="216.42" y2="185.81"/><line class="cls-1" x1="216.42" y1="185.81" x2="215.89" y2="185.5"/><line class="cls-1" x1="216.42" y1="189.48" x2="216.42" y2="185.81"/><line class="cls-1" x1="215.89" y1="189.18" x2="216.42" y2="189.48"/><line class="cls-1" x1="217.48" y1="189.48" x2="215.89" y2="190.4"/><line class="cls-1" x1="215.89" y1="190.4" x2="215.89" y2="189.18"/><line class="cls-1" x1="220.13" y1="192.86" x2="215.89" y2="190.4"/><line class="cls-1" x1="220.13" y1="191.63" x2="220.13" y2="192.86"/><line class="cls-1" x1="181.56" y1="169.36" x2="181.56" y2="170.59"/><line class="cls-1" x1="181.03" y1="169.06" x2="181.56" y2="169.36"/><line class="cls-1" x1="181.56" y1="165.07" x2="181.03" y2="165.38"/><line class="cls-1" x1="181.56" y1="165.69" x2="181.03" y2="165.38"/><line class="cls-1" x1="178.38" y1="162.62" x2="177.32" y2="163.23"/><line class="cls-1" x1="177.32" y1="163.23" x2="177.32" y2="162.01"/><line class="cls-1" x1="178.91" y1="162.93" x2="177.85" y2="163.54"/><line class="cls-1" x1="177.85" y1="163.54" x2="177.32" y2="163.23"/><line class="cls-1" x1="177.85" y1="167.22" x2="177.85" y2="163.54"/><line class="cls-1" x1="177.32" y1="166.91" x2="177.85" y2="167.22"/><line class="cls-1" x1="178.91" y1="167.22" x2="177.32" y2="168.14"/><line class="cls-1" x1="177.32" y1="168.14" x2="177.32" y2="166.91"/><line class="cls-1" x1="181.56" y1="170.59" x2="177.32" y2="168.14"/><line class="cls-1" x1="272.67" y1="221.96" x2="273.2" y2="222.27"/><line class="cls-1" x1="273.2" y1="217.98" x2="272.67" y2="218.29"/><line class="cls-1" x1="273.2" y1="218.59" x2="272.67" y2="218.29"/><line class="cls-1" x1="270.02" y1="215.53" x2="268.96" y2="216.14"/><line class="cls-1" x1="268.96" y1="216.14" x2="268.96" y2="214.91"/><line class="cls-1" x1="270.55" y1="215.84" x2="269.49" y2="216.45"/><line class="cls-1" x1="269.49" y1="216.45" x2="268.96" y2="216.14"/><line class="cls-1" x1="269.49" y1="220.13" x2="269.49" y2="216.45"/><line class="cls-1" x1="268.96" y1="219.82" x2="269.49" y2="220.13"/><line class="cls-1" x1="270.55" y1="220.13" x2="268.96" y2="221.04"/><line class="cls-1" x1="268.96" y1="221.04" x2="268.96" y2="219.82"/><line class="cls-1" x1="273.2" y1="223.5" x2="268.96" y2="221.04"/><line class="cls-1" x1="273.2" y1="222.27" x2="273.2" y2="223.5"/><line class="cls-1" x1="234.64" y1="200" x2="234.64" y2="201.23"/><line class="cls-1" x1="234.1" y1="199.7" x2="234.64" y2="200"/><line class="cls-1" x1="234.64" y1="195.71" x2="234.1" y2="196.02"/><line class="cls-1" x1="234.64" y1="196.33" x2="234.1" y2="196.02"/><line class="cls-1" x1="231.45" y1="193.26" x2="230.39" y2="193.88"/><line class="cls-1" x1="230.39" y1="193.88" x2="230.39" y2="192.65"/><line class="cls-1" x1="231.98" y1="193.57" x2="230.92" y2="194.18"/><line class="cls-1" x1="230.92" y1="194.18" x2="230.39" y2="193.88"/><line class="cls-1" x1="230.92" y1="197.86" x2="230.92" y2="194.18"/><line class="cls-1" x1="230.39" y1="197.55" x2="230.92" y2="197.86"/><line class="cls-1" x1="231.98" y1="197.86" x2="230.39" y2="198.78"/><line class="cls-1" x1="230.39" y1="198.78" x2="230.39" y2="197.55"/><line class="cls-1" x1="234.64" y1="201.23" x2="230.39" y2="198.78"/><line class="cls-1" x1="285.05" y1="228.5" x2="283.46" y2="229.42"/><line class="cls-1" x1="283.46" y1="229.42" x2="283.46" y2="228.19"/><line class="cls-1" x1="287.71" y1="231.87" x2="283.46" y2="229.42"/><line class="cls-1" x1="287.71" y1="230.64" x2="287.71" y2="231.87"/><line class="cls-1" x1="287.18" y1="230.34" x2="287.71" y2="230.64"/><line class="cls-1" x1="287.71" y1="226.35" x2="287.18" y2="226.66"/><line class="cls-1" x1="287.71" y1="226.97" x2="287.18" y2="226.66"/><line class="cls-1" x1="284.52" y1="223.9" x2="283.46" y2="224.52"/><line class="cls-1" x1="283.46" y1="224.52" x2="283.46" y2="223.29"/><line class="cls-1" x1="285.05" y1="224.21" x2="283.99" y2="224.82"/><line class="cls-1" x1="283.99" y1="224.82" x2="283.46" y2="224.52"/><line class="cls-1" x1="283.99" y1="228.5" x2="283.99" y2="224.82"/><line class="cls-1" x1="283.46" y1="228.19" x2="283.99" y2="228.5"/><line class="cls-1" x1="212.52" y1="181.31" x2="212.52" y2="191.53"/><line class="cls-1" x1="212.52" y1="191.53" x2="212.52" y2="192.14"/><line class="cls-1" x1="226.85" y1="189.58" x2="226.85" y2="199.8"/><line class="cls-1" x1="226.85" y1="199.8" x2="226.85" y2="200.41"/><line class="cls-1" x1="265.6" y1="211.95" x2="265.6" y2="222.17"/><line class="cls-1" x1="265.6" y1="222.17" x2="265.6" y2="222.78"/><line class="cls-1" x1="279.92" y1="220.23" x2="279.92" y2="230.44"/><line class="cls-1" x1="279.92" y1="230.44" x2="279.92" y2="231.05"/><line class="cls-1" x1="280.45" y1="261.69" x2="280.45" y2="262.31"/><line class="cls-1" x1="280.45" y1="262.31" x2="280.45" y2="262.92"/><line class="cls-1" x1="276.21" y1="259.24" x2="277.27" y2="259.85"/><line class="cls-1" x1="227.38" y1="231.05" x2="227.38" y2="231.67"/><line class="cls-1" x1="227.38" y1="231.67" x2="227.38" y2="232.28"/><line class="cls-1" x1="223.14" y1="228.6" x2="224.2" y2="229.21"/><line class="cls-1" x1="174.31" y1="200.41" x2="174.31" y2="201.03"/><line class="cls-1" x1="174.31" y1="201.03" x2="174.31" y2="201.64"/><line class="cls-1" x1="170.07" y1="197.96" x2="171.13" y2="198.57"/><line class="cls-1" x1="146.19" y1="181.11" x2="146.19" y2="181.72"/><line class="cls-1" x1="146.19" y1="181.72" x2="146.19" y2="182.33"/><line class="cls-1" x1="145.65" y1="144.55" x2="145.65" y2="152.92"/><line class="cls-1" x1="145.65" y1="152.92" x2="145.65" y2="153.53"/><line class="cls-1" x1="158.3" y1="151.85" x2="158.3" y2="172.58"/><line class="cls-1" x1="158.3" y1="172.58" x2="158.3" y2="173.19"/><line class="cls-1" x1="173.78" y1="158.94" x2="173.78" y2="169.16"/><line class="cls-1" x1="173.78" y1="169.16" x2="173.78" y2="169.77"/><line class="cls-1" x1="216.42" y1="227.78" x2="217.48" y2="227.17"/><line class="cls-1" x1="217.48" y1="227.17" x2="218.01" y2="226.87"/><line class="cls-1" x1="219.6" y1="225.95" x2="219.6" y2="229.01"/><line class="cls-1" x1="219.6" y1="229.01" x2="219.6" y2="229.62"/><line class="cls-1" x1="220.13" y1="225.03" x2="220.13" y2="225.64"/><line class="cls-1" x1="220.13" y1="225.64" x2="220.13" y2="226.25"/><line class="cls-1" x1="218.01" y1="223.8" x2="220.13" y2="225.03"/><line class="cls-1" x1="181.56" y1="202.76" x2="181.56" y2="203.37"/><line class="cls-1" x1="181.56" y1="203.37" x2="181.56" y2="203.99"/><line class="cls-1" x1="179.44" y1="201.54" x2="181.56" y2="202.76"/><line class="cls-1" x1="179.44" y1="204.6" x2="178.91" y2="204.91"/><line class="cls-1" x1="178.91" y1="204.91" x2="177.85" y2="205.52"/><line class="cls-1" x1="181.03" y1="203.68" x2="181.03" y2="206.74"/><line class="cls-1" x1="181.03" y1="206.74" x2="181.03" y2="207.36"/><line class="cls-1" x1="269.49" y1="258.42" x2="270.55" y2="257.81"/><line class="cls-1" x1="270.55" y1="257.81" x2="271.08" y2="257.51"/><line class="cls-1" x1="272.67" y1="256.59" x2="272.67" y2="259.65"/><line class="cls-1" x1="272.67" y1="259.65" x2="272.67" y2="260.26"/><line class="cls-1" x1="273.2" y1="255.67" x2="273.2" y2="256.28"/><line class="cls-1" x1="273.2" y1="256.28" x2="273.2" y2="256.89"/><line class="cls-1" x1="268.96" y1="253.22" x2="270.02" y2="253.83"/><line class="cls-1" x1="234.64" y1="233.4" x2="234.64" y2="234.01"/><line class="cls-1" x1="234.64" y1="234.01" x2="234.64" y2="234.63"/><line class="cls-1" x1="232.51" y1="232.18" x2="234.64" y2="233.4"/><line class="cls-1" x1="232.51" y1="235.24" x2="231.98" y2="235.55"/><line class="cls-1" x1="231.98" y1="235.55" x2="230.92" y2="236.16"/><line class="cls-1" x1="234.1" y1="234.32" x2="234.1" y2="237.38"/><line class="cls-1" x1="234.1" y1="237.38" x2="234.1" y2="238"/><line class="cls-1" x1="287.18" y1="264.96" x2="287.18" y2="268.03"/><line class="cls-1" x1="287.18" y1="268.03" x2="287.18" y2="268.64"/><line class="cls-1" x1="287.71" y1="264.04" x2="287.71" y2="264.65"/><line class="cls-1" x1="287.71" y1="264.65" x2="287.71" y2="265.27"/><line class="cls-1" x1="285.58" y1="262.82" x2="287.71" y2="264.04"/><line class="cls-1" x1="285.58" y1="265.88" x2="285.05" y2="266.19"/><line class="cls-1" x1="285.05" y1="266.19" x2="283.99" y2="266.8"/><line class="cls-1" x1="219.6" y1="187.64" x2="219.6" y2="190.71"/><line class="cls-1" x1="219.6" y1="190.71" x2="219.6" y2="191.32"/><line class="cls-1" x1="220.13" y1="186.73" x2="220.13" y2="187.34"/><line class="cls-1" x1="220.13" y1="187.34" x2="220.13" y2="187.95"/><line class="cls-1" x1="218.01" y1="185.5" x2="220.13" y2="186.73"/><line class="cls-1" x1="218.01" y1="188.56" x2="217.48" y2="188.87"/><line class="cls-1" x1="217.48" y1="188.87" x2="216.42" y2="189.48"/><line class="cls-1" x1="181.03" y1="165.38" x2="181.03" y2="168.44"/><line class="cls-1" x1="181.03" y1="168.44" x2="181.03" y2="169.06"/><line class="cls-1" x1="181.56" y1="164.46" x2="181.56" y2="165.07"/><line class="cls-1" x1="181.56" y1="165.07" x2="181.56" y2="165.69"/><line class="cls-1" x1="179.44" y1="163.23" x2="181.56" y2="164.46"/><line class="cls-1" x1="179.44" y1="166.3" x2="178.91" y2="166.6"/><line class="cls-1" x1="178.91" y1="166.6" x2="177.85" y2="167.22"/><line class="cls-1" x1="272.67" y1="218.29" x2="272.67" y2="221.35"/><line class="cls-1" x1="272.67" y1="221.35" x2="272.67" y2="221.96"/><line class="cls-1" x1="273.2" y1="217.37" x2="273.2" y2="217.98"/><line class="cls-1" x1="273.2" y1="217.98" x2="273.2" y2="218.59"/><line class="cls-1" x1="271.08" y1="216.14" x2="273.2" y2="217.37"/><line class="cls-1" x1="271.08" y1="219.21" x2="270.55" y2="219.51"/><line class="cls-1" x1="270.55" y1="219.51" x2="269.49" y2="220.13"/><line class="cls-1" x1="234.1" y1="196.02" x2="234.1" y2="199.09"/><line class="cls-1" x1="234.1" y1="199.09" x2="234.1" y2="199.7"/><line class="cls-1" x1="234.64" y1="195.1" x2="234.64" y2="195.71"/><line class="cls-1" x1="234.64" y1="195.71" x2="234.64" y2="196.33"/><line class="cls-1" x1="232.51" y1="193.88" x2="234.64" y2="195.1"/><line class="cls-1" x1="232.51" y1="196.94" x2="231.98" y2="197.25"/><line class="cls-1" x1="231.98" y1="197.25" x2="230.92" y2="197.86"/><line class="cls-1" x1="287.18" y1="226.66" x2="287.18" y2="229.73"/><line class="cls-1" x1="287.18" y1="229.73" x2="287.18" y2="230.34"/><line class="cls-1" x1="287.71" y1="225.74" x2="287.71" y2="226.35"/><line class="cls-1" x1="287.71" y1="226.35" x2="287.71" y2="226.97"/><line class="cls-1" x1="285.58" y1="224.52" x2="287.71" y2="225.74"/><line class="cls-1" x1="285.58" y1="227.58" x2="285.05" y2="227.89"/><line class="cls-1" x1="285.05" y1="227.89" x2="283.99" y2="228.5"/><line class="cls-1" x1="277.27" y1="259.85" x2="277.8" y2="260.16"/><line class="cls-1" x1="224.2" y1="229.21" x2="224.73" y2="229.52"/><line class="cls-1" x1="171.13" y1="198.57" x2="171.66" y2="198.88"/><line class="cls-1" x1="215.89" y1="222.58" x2="216.95" y2="223.19"/><line class="cls-1" x1="178.91" y1="201.23" x2="179.44" y2="201.54"/><line class="cls-1" x1="270.02" y1="253.83" x2="270.55" y2="254.14"/><line class="cls-1" x1="231.98" y1="231.87" x2="232.51" y2="232.18"/><line class="cls-1" x1="285.05" y1="262.51" x2="285.58" y2="262.82"/><line class="cls-1" x1="217.48" y1="185.19" x2="218.01" y2="185.5"/><line class="cls-1" x1="178.91" y1="162.93" x2="179.44" y2="163.23"/><line class="cls-1" x1="270.55" y1="215.84" x2="271.08" y2="216.14"/><line class="cls-1" x1="231.98" y1="193.57" x2="232.51" y2="193.88"/><line class="cls-1" x1="285.05" y1="224.21" x2="285.58" y2="224.52"/><line class="cls-1" x1="277.8" y1="260.16" x2="278.33" y2="260.47"/><line class="cls-1" x1="278.33" y1="260.47" x2="280.45" y2="261.69"/><line class="cls-1" x1="224.73" y1="229.52" x2="225.26" y2="229.83"/><line class="cls-1" x1="225.26" y1="229.83" x2="227.38" y2="231.05"/><line class="cls-1" x1="171.66" y1="198.88" x2="172.19" y2="199.19"/><line class="cls-1" x1="172.19" y1="199.19" x2="174.31" y2="200.41"/><line class="cls-1" x1="216.95" y1="223.19" x2="217.48" y2="223.5"/><line class="cls-1" x1="217.48" y1="223.5" x2="218.01" y2="223.8"/><line class="cls-1" x1="177.32" y1="200.31" x2="178.38" y2="200.92"/><line class="cls-1" x1="178.38" y1="200.92" x2="178.91" y2="201.23"/><line class="cls-1" x1="270.55" y1="254.14" x2="271.08" y2="254.44"/><line class="cls-1" x1="271.08" y1="254.44" x2="273.2" y2="255.67"/><line class="cls-1" x1="230.39" y1="230.95" x2="231.45" y2="231.56"/><line class="cls-1" x1="231.45" y1="231.56" x2="231.98" y2="231.87"/><line class="cls-1" x1="283.46" y1="261.59" x2="284.52" y2="262.2"/><line class="cls-1" x1="284.52" y1="262.2" x2="285.05" y2="262.51"/><line class="cls-1" x1="215.89" y1="184.27" x2="216.95" y2="184.89"/><line class="cls-1" x1="216.95" y1="184.89" x2="217.48" y2="185.19"/><line class="cls-1" x1="177.32" y1="162.01" x2="178.38" y2="162.62"/><line class="cls-1" x1="178.38" y1="162.62" x2="178.91" y2="162.93"/><line class="cls-1" x1="268.96" y1="214.91" x2="270.02" y2="215.53"/><line class="cls-1" x1="270.02" y1="215.53" x2="270.55" y2="215.84"/><line class="cls-1" x1="230.39" y1="192.65" x2="231.45" y2="193.26"/><line class="cls-1" x1="231.45" y1="193.26" x2="231.98" y2="193.57"/><line class="cls-1" x1="283.46" y1="223.29" x2="284.52" y2="223.9"/><line class="cls-1" x1="284.52" y1="223.9" x2="285.05" y2="224.21"/><line class="cls-1" x1="171.66" y1="167.93" x2="171.66" y2="167.32"/><line class="cls-1" x1="156.18" y1="171.36" x2="156.18" y2="170.74"/><line class="cls-1" x1="306.46" y1="245.76" x2="292.13" y2="237.49"/><line class="cls-1" x1="292.13" y1="237.49" x2="292.13" y2="236.87"/><line class="cls-1" x1="277.8" y1="229.21" x2="277.8" y2="228.6"/><line class="cls-1" x1="265.6" y1="222.17" x2="239.06" y2="206.85"/><line class="cls-1" x1="239.06" y1="206.85" x2="239.06" y2="206.23"/><line class="cls-1" x1="224.73" y1="198.57" x2="224.73" y2="197.96"/><line class="cls-1" x1="212.52" y1="191.53" x2="185.99" y2="176.21"/><line class="cls-1" x1="185.99" y1="176.21" x2="185.99" y2="175.59"/><line class="cls-1" x1="186.52" y1="175.29" x2="185.99" y2="175.59"/><line class="cls-1" x1="184.93" y1="176.21" x2="185.99" y2="175.59"/><line class="cls-1" x1="184.39" y1="177.13" x2="185.99" y2="176.21"/><line class="cls-1" x1="225.26" y1="197.66" x2="224.73" y2="197.96"/><line class="cls-1" x1="223.67" y1="198.57" x2="224.73" y2="197.96"/><line class="cls-1" x1="214.42" y1="179.71" x2="212.83" y2="180.63"/><line class="cls-1" x1="223.14" y1="199.49" x2="224.73" y2="198.57"/><line class="cls-1" x1="239.59" y1="205.93" x2="239.06" y2="206.23"/><line class="cls-1" x1="238" y1="206.85" x2="239.06" y2="206.23"/><line class="cls-1" x1="228.75" y1="187.98" x2="227.16" y2="188.9"/><line class="cls-1" x1="237.47" y1="207.77" x2="239.06" y2="206.85"/><line class="cls-1" x1="278.33" y1="228.3" x2="277.8" y2="228.6"/><line class="cls-1" x1="276.74" y1="229.21" x2="277.8" y2="228.6"/><line class="cls-1" x1="267.5" y1="210.35" x2="265.91" y2="211.27"/><line class="cls-1" x1="276.21" y1="230.13" x2="277.8" y2="229.21"/><line class="cls-1" x1="292.66" y1="236.57" x2="292.13" y2="236.87"/><line class="cls-1" x1="291.07" y1="237.49" x2="292.13" y2="236.87"/><line class="cls-1" x1="281.83" y1="218.62" x2="280.23" y2="219.54"/><line class="cls-1" x1="290.54" y1="238.41" x2="292.13" y2="237.49"/><line class="cls-1" x1="306.46" y1="245.76" x2="306.46" y2="281.41"/><line class="cls-1" x1="304.87" y1="246.68" x2="304.87" y2="282.32"/><line class="cls-1" x1="279.92" y1="262.61" x2="280.45" y2="262.31"/><line class="cls-1" x1="276.21" y1="260.47" x2="277.27" y2="259.85"/><line class="cls-1" x1="276.43" y1="265.55" x2="278.02" y2="264.63"/><line class="cls-1" x1="227.38" y1="231.67" x2="226.85" y2="231.97"/><line class="cls-1" x1="277.8" y1="260.16" x2="276.74" y2="260.77"/><line class="cls-1" x1="223.14" y1="229.83" x2="224.2" y2="229.21"/><line class="cls-1" x1="223.36" y1="234.91" x2="224.95" y2="233.99"/><line class="cls-1" x1="174.31" y1="201.03" x2="173.78" y2="201.33"/><line class="cls-1" x1="224.73" y1="229.52" x2="223.67" y2="230.13"/><line class="cls-1" x1="170.07" y1="199.19" x2="171.13" y2="198.57"/><line class="cls-1" x1="170.29" y1="204.27" x2="171.88" y2="203.35"/><line class="cls-1" x1="146.19" y1="181.72" x2="145.65" y2="182.03"/><line class="cls-1" x1="171.66" y1="198.88" x2="170.6" y2="199.49"/><line class="cls-1" x1="145.97" y1="143.86" x2="147.56" y2="142.94"/><line class="cls-1" x1="156.71" y1="170.44" x2="156.18" y2="170.74"/><line class="cls-1" x1="155.12" y1="171.36" x2="156.18" y2="170.74"/><line class="cls-1" x1="154.59" y1="172.27" x2="156.18" y2="171.36"/><line class="cls-1" x1="158.61" y1="151.16" x2="160.2" y2="150.24"/><line class="cls-1" x1="172.19" y1="167.02" x2="171.66" y2="167.32"/><line class="cls-1" x1="170.6" y1="167.93" x2="171.66" y2="167.32"/><line class="cls-1" x1="170.07" y1="168.85" x2="171.66" y2="167.93"/><line class="cls-1" x1="175.68" y1="157.34" x2="174.09" y2="158.26"/><polygon class="cls-2" points="144.13 154.33 145.72 153.41 145.72 145.04 145.8 144.63 146.04 144.35 147.63 143.43 147.99 143.37 148.38 143.51 155.72 147.75 156.11 148.06 156.47 148.54 156.71 149.09 156.78 149.58 156.78 170.93 156.25 171.24 156.25 171.85 158.37 173.08 158.37 152.34 158.45 151.93 158.68 151.65 160.28 150.74 160.64 150.67 161.03 150.81 171.2 156.68 171.59 156.99 171.95 157.47 172.19 158.03 172.26 158.52 172.26 167.51 171.73 167.81 171.73 168.43 173.85 169.65 173.85 159.44 173.93 159.03 174.16 158.75 175.76 157.83 176.12 157.77 176.51 157.91 185.53 163.12 185.92 163.43 186.28 163.91 186.52 164.46 186.59 164.96 186.59 175.78 186.06 176.09 186.06 176.7 212.59 192.02 212.59 181.81 212.67 181.4 212.91 181.12 214.5 180.2 214.86 180.14 215.25 180.28 224.27 185.48 224.66 185.8 225.02 186.28 225.26 186.83 225.33 187.32 225.33 198.15 224.8 198.46 224.8 199.07 226.92 200.29 226.92 190.08 227 189.67 227.24 189.4 228.83 188.47 229.19 188.41 229.58 188.55 238.6 193.76 238.99 194.07 239.35 194.55 239.59 195.1 239.66 195.59 239.66 206.42 239.13 206.73 239.13 207.34 265.67 222.66 265.67 212.45 265.74 212.04 265.98 211.76 267.57 210.84 267.93 210.78 268.32 210.92 277.34 216.13 277.73 216.44 278.09 216.92 278.33 217.47 278.4 217.97 278.4 228.79 277.87 229.1 277.87 229.71 280 230.93 280 220.72 280.07 220.31 280.31 220.03 281.9 219.12 282.26 219.05 282.65 219.19 291.67 224.4 292.06 224.71 292.42 225.19 292.66 225.74 292.73 226.24 292.73 237.06 292.2 237.37 292.2 237.98 306.53 246.26 306.53 281.9 304.94 282.82 281.06 269.03 280.67 268.72 280.31 268.24 280.07 267.69 280 267.19 280 263.11 280.53 262.8 280.53 262.19 278.4 260.96 278.4 264.44 278.33 264.85 278.09 265.12 276.5 266.04 276.14 266.11 275.75 265.97 227.99 238.39 227.6 238.08 227.24 237.6 227 237.05 226.92 236.55 226.92 232.47 227.46 232.16 227.46 231.55 225.33 230.32 225.33 233.79 225.26 234.2 225.02 234.48 223.43 235.4 223.07 235.47 222.68 235.33 174.92 207.75 174.52 207.44 174.16 206.96 173.93 206.41 173.85 205.91 173.85 201.83 174.38 201.52 174.38 200.91 172.26 199.68 172.26 203.15 172.19 203.56 171.95 203.84 170.36 204.76 170 204.83 169.61 204.69 146.79 191.51 146.4 191.2 146.04 190.72 145.8 190.17 145.72 189.67 145.72 182.52 146.26 182.22 146.26 181.6 144.13 180.38 144.13 154.33"/></svg>