<svg id="Layer_1" data-name="Layer 1" xmlns="http://www.w3.org/2000/svg" viewBox="0 0 212.6 425.2"><defs><style>.cls-1,.cls-3{fill:none;stroke:#1d1d1b;stroke-miterlimit:10;}.cls-1{stroke-width:0.5px;}.cls-2{font-size:5.3px;fill:#1d1d1b;font-family:Monotxt;}.cls-3{stroke-width:0.25px;}</style></defs><g id="POLYLINE"><path class="cls-1" d="M27.66,189.1a1.76,1.76,0,0,0,1.76,1.77H45.31V190h1.88v48.75H45.31v-.9H29.42a1.76,1.76,0,0,0-1.76,1.77v15.32a1.76,1.76,0,0,0,1.76,1.77H45.31v-.9h1.88v7.29H45.31v-.91H29.42a1.76,1.76,0,0,0-1.76,1.77v15.33A1.76,1.76,0,0,0,29.42,281H45.31v-.9h1.88v48.76H45.31V328H29.42a1.76,1.76,0,0,0-1.76,1.76v15.33a1.76,1.76,0,0,0,1.76,1.76H45.31v-.9h1.88v7.29H45.31v-.9H29.42a1.76,1.76,0,0,0-1.76,1.76v15.33a1.76,1.76,0,0,0,1.76,1.76H45.31v-.9h1.88v24.34H99.55V354.08a1.76,1.76,0,0,0-1.76-1.76h-6v.9H89.94v-7.29h1.87v.9h6a1.76,1.76,0,0,0,1.76-1.76V263.93a1.76,1.76,0,0,0-1.76-1.77h-6v.91H89.94v-7.29h1.87v.9h6a1.76,1.76,0,0,0,1.76-1.77V173.78A1.76,1.76,0,0,0,97.79,172h-6v.9H89.94v-7.28h1.87v.9h6a1.76,1.76,0,0,0,1.76-1.77V126a1.76,1.76,0,0,0-1.76-1.77H87.31v.9H85.43v-3.6H47.19v3.6H45.31v-.9H32.13A1.77,1.77,0,0,0,30.36,126v12.47a1.76,1.76,0,0,0,1.77,1.76H63.49v-.9h1.88v7.29H63.49v-.9H32.13a1.76,1.76,0,0,0-1.77,1.76v17.28a1.77,1.77,0,0,0,1.77,1.77H45.31v-.9h1.88v7.28H45.31V172H29.42a1.76,1.76,0,0,0-1.76,1.77Z"/></g><g id="POLYLINE-2" data-name="POLYLINE"><path class="cls-1" d="M187.91,189.1a1.77,1.77,0,0,1-1.77,1.77H170.25V190h-1.88v48.75h1.88v-.9h15.89a1.77,1.77,0,0,1,1.77,1.77v15.32a1.77,1.77,0,0,1-1.77,1.77H170.25v-.9h-1.88v7.29h1.88v-.91h15.89a1.77,1.77,0,0,1,1.77,1.77v15.33a1.77,1.77,0,0,1-1.77,1.76H170.25v-.9h-1.88v48.76h1.88V328h15.89a1.77,1.77,0,0,1,1.77,1.76v15.33a1.77,1.77,0,0,1-1.77,1.76H170.25v-.9h-1.88v7.29h1.88v-.9h15.89a1.77,1.77,0,0,1,1.77,1.76v15.33a1.77,1.77,0,0,1-1.77,1.76H170.25v-.9h-1.88v24.34H116V354.08a1.76,1.76,0,0,1,1.76-1.76h6v.9h1.87v-7.29h-1.87v.9h-6a1.76,1.76,0,0,1-1.76-1.76V263.93a1.76,1.76,0,0,1,1.76-1.77h6v.91h1.87v-7.29h-1.87v.9h-6a1.76,1.76,0,0,1-1.76-1.77V173.78a1.76,1.76,0,0,1,1.76-1.77h6v.9h1.87v-7.28h-1.87v.9h-6a1.76,1.76,0,0,1-1.76-1.77V126a1.76,1.76,0,0,1,1.76-1.77h10.48v.9h1.88v-3.6h38.24v3.6h1.88v-.9h13.19A1.76,1.76,0,0,1,185.2,126v12.47a1.76,1.76,0,0,1-1.76,1.76H152.07v-.9h-1.88v7.29h1.88v-.9h31.37a1.76,1.76,0,0,1,1.76,1.76v17.28a1.76,1.76,0,0,1-1.76,1.77H170.25v-.9h-1.88v7.28h1.88V172h15.89a1.77,1.77,0,0,1,1.77,1.77Z"/></g><g id="POLYLINE-3" data-name="POLYLINE"><polygon class="cls-1" points="94.44 244.36 94.44 243.46 96.32 243.46 96.32 250.75 94.44 250.75 94.44 249.84 89.11 249.84 89.11 250.75 87.23 250.75 87.23 243.46 89.11 243.46 89.11 244.36 94.44 244.36"/></g><g id="POLYLINE-4" data-name="POLYLINE"><polygon class="cls-1" points="89.11 185.23 87.23 185.23 87.23 177.95 89.11 177.95 89.11 178.85 94.44 178.85 94.44 177.95 96.32 177.95 96.32 185.23 94.44 185.23 94.44 184.33 89.11 184.33 89.11 185.23"/></g><g id="POLYLINE-5" data-name="POLYLINE"><polygon class="cls-1" points="94.44 334.51 94.44 333.61 96.32 333.61 96.32 340.9 94.44 340.9 94.44 340 89.11 340 89.11 340.9 87.23 340.9 87.23 333.61 89.11 333.61 89.11 334.51 94.44 334.51"/></g><g id="POLYLINE-6" data-name="POLYLINE"><polygon class="cls-1" points="89.11 275.39 87.23 275.39 87.23 268.1 89.11 268.1 89.11 269 94.44 269 94.44 268.1 96.32 268.1 96.32 275.39 94.44 275.39 94.44 274.49 89.11 274.49 89.11 275.39"/></g><g id="POLYLINE-7" data-name="POLYLINE"><polygon class="cls-1" points="94.44 364.64 89.11 364.64 89.11 365.54 87.23 365.54 87.23 358.25 89.11 358.25 89.11 359.15 94.44 359.15 94.44 358.25 96.32 358.25 96.32 365.54 94.44 365.54 94.44 364.64"/></g><g id="POLYLINE-8" data-name="POLYLINE"><polygon class="cls-1" points="38.1 250.75 38.1 249.84 32.76 249.84 32.76 250.75 30.89 250.75 30.89 243.46 32.76 243.46 32.76 244.36 38.1 244.36 38.1 243.46 39.98 243.46 39.98 250.75 38.1 250.75"/></g><g id="POLYLINE-9" data-name="POLYLINE"><polygon class="cls-1" points="39.98 185.23 38.1 185.23 38.1 184.33 32.76 184.33 32.76 185.23 30.89 185.23 30.89 177.95 32.76 177.95 32.76 178.85 38.1 178.85 38.1 177.95 39.98 177.95 39.98 185.23"/></g><g id="POLYLINE-10" data-name="POLYLINE"><polygon class="cls-1" points="38.1 340.9 38.1 340 32.76 340 32.76 340.9 30.89 340.9 30.89 333.61 32.76 333.61 32.76 334.51 38.1 334.51 38.1 333.61 39.98 333.61 39.98 340.9 38.1 340.9"/></g><g id="POLYLINE-11" data-name="POLYLINE"><polygon class="cls-1" points="39.98 275.39 38.1 275.39 38.1 274.49 32.76 274.49 32.76 275.39 30.89 275.39 30.89 268.1 32.76 268.1 32.76 269 38.1 269 38.1 268.1 39.98 268.1 39.98 275.39"/></g><g id="POLYLINE-12" data-name="POLYLINE"><polygon class="cls-1" points="38.1 358.25 39.98 358.25 39.98 365.54 38.1 365.54 38.1 364.64 32.76 364.64 32.76 365.54 30.89 365.54 30.89 358.25 32.76 358.25 32.76 359.15 38.1 359.15 38.1 358.25"/></g><g id="POLYLINE-13" data-name="POLYLINE"><polygon class="cls-1" points="121.12 244.36 121.12 243.46 119.24 243.46 119.24 250.75 121.12 250.75 121.12 249.84 126.45 249.84 126.45 250.75 128.33 250.75 128.33 243.46 126.45 243.46 126.45 244.36 121.12 244.36"/></g><g id="POLYLINE-14" data-name="POLYLINE"><polygon class="cls-1" points="126.45 185.23 128.33 185.23 128.33 177.95 126.45 177.95 126.45 178.85 121.12 178.85 121.12 177.95 119.24 177.95 119.24 185.23 121.12 185.23 121.12 184.33 126.45 184.33 126.45 185.23"/></g><g id="POLYLINE-15" data-name="POLYLINE"><polygon class="cls-1" points="121.12 334.51 121.12 333.61 119.24 333.61 119.24 340.9 121.12 340.9 121.12 340 126.45 340 126.45 340.9 128.33 340.9 128.33 333.61 126.45 333.61 126.45 334.51 121.12 334.51"/></g><g id="POLYLINE-16" data-name="POLYLINE"><polygon class="cls-1" points="126.45 275.39 128.33 275.39 128.33 268.1 126.45 268.1 126.45 269 121.12 269 121.12 268.1 119.24 268.1 119.24 275.39 121.12 275.39 121.12 274.49 126.45 274.49 126.45 275.39"/></g><g id="POLYLINE-17" data-name="POLYLINE"><polygon class="cls-1" points="121.12 364.64 126.45 364.64 126.45 365.54 128.33 365.54 128.33 358.25 126.45 358.25 126.45 359.15 121.12 359.15 121.12 358.25 119.24 358.25 119.24 365.54 121.12 365.54 121.12 364.64"/></g><g id="POLYLINE-18" data-name="POLYLINE"><polygon class="cls-1" points="177.46 250.75 177.46 249.84 182.8 249.84 182.8 250.75 184.68 250.75 184.68 243.46 182.8 243.46 182.8 244.36 177.46 244.36 177.46 243.46 175.58 243.46 175.58 250.75 177.46 250.75"/></g><g id="POLYLINE-19" data-name="POLYLINE"><polygon class="cls-1" points="175.58 185.23 177.46 185.23 177.46 184.33 182.8 184.33 182.8 185.23 184.68 185.23 184.68 177.95 182.8 177.95 182.8 178.85 177.46 178.85 177.46 177.95 175.58 177.95 175.58 185.23"/></g><g id="POLYLINE-20" data-name="POLYLINE"><polygon class="cls-1" points="177.46 340.9 177.46 340 182.8 340 182.8 340.9 184.68 340.9 184.68 333.61 182.8 333.61 182.8 334.51 177.46 334.51 177.46 333.61 175.58 333.61 175.58 340.9 177.46 340.9"/></g><g id="POLYLINE-21" data-name="POLYLINE"><polygon class="cls-1" points="175.58 275.39 177.46 275.39 177.46 274.49 182.8 274.49 182.8 275.39 184.68 275.39 184.68 268.1 182.8 268.1 182.8 269 177.46 269 177.46 268.1 175.58 268.1 175.58 275.39"/></g><g id="POLYLINE-22" data-name="POLYLINE"><polygon class="cls-1" points="177.46 358.25 175.58 358.25 175.58 365.54 177.46 365.54 177.46 364.64 182.8 364.64 182.8 365.54 184.68 365.54 184.68 358.25 182.8 358.25 182.8 359.15 177.46 359.15 177.46 358.25"/></g><g id="MTEXT"><text class="cls-2" transform="translate(69.79 281.93) rotate(-90)">COMB-G/END-Y2</text></g><g id="MTEXT-2" data-name="MTEXT"><text class="cls-2" transform="translate(146.05 232.7) rotate(90)">COMB-G/END-Y2</text></g><g id="POLYLINE-23" data-name="POLYLINE"><rect class="cls-3" x="16.12" y="30.39" width="183.31" height="366.62"/></g></svg>