<svg id="Layer_1" data-name="Layer 1" xmlns="http://www.w3.org/2000/svg" viewBox="0 0 643.16 425.2"><defs><style>.cls-1,.cls-4{fill:none;stroke:#1d1d1b;stroke-miterlimit:10;}.cls-1{stroke-width:0.5px;}.cls-2{font-size:8.47px;}.cls-2,.cls-3{fill:#1d1d1b;font-family:Monotxt;}.cls-3{font-size:6px;}.cls-4{stroke-width:0.25px;}</style></defs><g id="POLYLINE"><polygon class="cls-1" points="514.89 43.71 512.34 43.72 512.34 42.85 510.91 42.85 510.91 47.36 512.34 47.36 512.34 46.49 514.89 46.48 514.89 47.35 516.31 47.35 516.31 42.84 514.89 42.84 514.89 43.71"/></g><g id="POLYLINE-2" data-name="POLYLINE"><polygon class="cls-1" points="468.81 43.71 466.25 43.72 466.25 42.85 464.83 42.85 464.83 47.36 466.25 47.36 466.25 46.49 468.81 46.48 468.81 47.35 470.23 47.35 470.23 42.84 468.81 42.84 468.81 43.71"/></g><g id="POLYLINE-3" data-name="POLYLINE"><polygon class="cls-1" points="289.71 151.01 289.71 155.58 291.59 155.58 291.59 154.68 295.41 154.68 295.41 155.58 297.29 155.58 297.29 151.01 295.41 151.01 295.41 151.91 291.59 151.91 291.59 151.01 289.71 151.01"/></g><g id="POLYLINE-4" data-name="POLYLINE"><polygon class="cls-1" points="273.89 139.23 273.89 138.33 275.69 138.33 275.69 136.46 274.79 136.46 274.79 125.13 275.69 125.13 275.69 123.26 273.89 123.26 273.89 122.36 272.01 122.36 272.01 139.23 273.89 139.23"/></g><g id="POLYLINE-5" data-name="POLYLINE"><polygon class="cls-1" points="273.89 213.26 273.89 212.36 272.01 212.36 272.01 229.23 273.89 229.23 273.89 228.33 275.69 228.33 275.69 226.46 274.79 226.46 274.79 215.13 275.69 215.13 275.69 213.26 273.89 213.26"/></g><g id="POLYLINE-6" data-name="POLYLINE"><polygon class="cls-1" points="272.01 167.36 272.01 184.23 273.89 184.23 273.89 183.33 275.69 183.33 275.69 181.46 274.79 181.46 274.79 170.13 275.69 170.13 275.69 168.26 273.89 168.26 273.89 167.36 272.01 167.36"/></g><g id="POLYLINE-7" data-name="POLYLINE"><path class="cls-1" d="M274.79,157.05v-7.5a.72.72,0,1,0-1.43,0v7.5a.72.72,0,0,0,1.43,0Z"/></g><g id="POLYLINE-8" data-name="POLYLINE"><path class="cls-1" d="M313.64,157.05v-7.5a.72.72,0,1,0-1.43,0v7.5a.72.72,0,0,0,1.43,0Z"/></g><g id="POLYLINE-9" data-name="POLYLINE"><polygon class="cls-1" points="323.39 287.29 321.51 287.29 321.51 270.41 323.39 270.41 323.39 271.31 325.19 271.31 325.19 273.19 324.29 273.19 324.29 284.51 325.19 284.51 325.19 286.39 323.39 286.39 323.39 287.29"/></g><g id="POLYLINE-10" data-name="POLYLINE"><polygon class="cls-1" points="323.39 377.29 323.39 376.39 325.19 376.39 325.19 374.51 324.29 374.51 324.29 363.19 325.19 363.19 325.19 361.31 323.39 361.31 323.39 360.41 321.51 360.41 321.51 377.29 323.39 377.29"/></g><g id="POLYLINE-11" data-name="POLYLINE"><polygon class="cls-1" points="323.39 316.31 323.39 315.41 321.51 315.41 321.51 332.29 323.39 332.29 323.39 331.39 325.19 331.39 325.19 329.51 324.29 329.51 324.29 318.19 325.19 318.19 325.19 316.31 323.39 316.31"/></g><g id="POLYLINE-12" data-name="POLYLINE"><polygon class="cls-1" points="323.39 226.31 323.39 225.41 321.51 225.41 321.51 242.29 323.39 242.29 323.39 241.39 325.19 241.39 325.19 239.51 324.29 239.51 324.29 228.19 325.19 228.19 325.19 226.31 323.39 226.31"/></g><g id="POLYLINE-13" data-name="POLYLINE"><polygon class="cls-1" points="323.39 181.31 323.39 180.41 321.51 180.41 321.51 197.29 323.39 197.29 323.39 196.39 325.19 196.39 325.19 194.51 324.29 194.51 324.29 183.19 325.19 183.19 325.19 181.31 323.39 181.31"/></g><g id="POLYLINE-14" data-name="POLYLINE"><polygon class="cls-1" points="323.39 136.31 323.39 135.41 321.51 135.41 321.51 152.29 323.39 152.29 323.39 151.39 325.19 151.39 325.19 149.51 324.29 149.51 324.29 138.19 325.19 138.19 325.19 136.31 323.39 136.31"/></g><g id="POLYLINE-15" data-name="POLYLINE"><polygon class="cls-1" points="339.21 344.06 339.21 348.64 341.09 348.64 341.09 347.74 344.91 347.74 344.91 348.64 346.79 348.64 346.79 344.06 344.91 344.06 344.91 344.96 341.09 344.96 341.09 344.06 339.21 344.06"/></g><g id="POLYLINE-16" data-name="POLYLINE"><polygon class="cls-1" points="339.21 254.06 339.21 258.64 341.09 258.64 341.09 257.74 344.91 257.74 344.91 258.64 346.79 258.64 346.79 254.06 344.91 254.06 344.91 254.96 341.09 254.96 341.09 254.06 339.21 254.06"/></g><g id="POLYLINE-17" data-name="POLYLINE"><polygon class="cls-1" points="346.79 168.64 346.79 164.06 344.91 164.06 344.91 164.96 341.09 164.96 341.09 164.06 339.21 164.06 339.21 168.64 341.09 168.64 341.09 167.74 344.91 167.74 344.91 168.64 346.79 168.64"/></g><g id="POLYLINE-18" data-name="POLYLINE"><polygon class="cls-1" points="321.51 90.41 321.51 107.29 323.39 107.29 323.39 106.39 325.19 106.39 325.19 104.51 324.29 104.51 324.29 93.19 325.19 93.19 325.19 91.31 323.39 91.31 323.39 90.41 321.51 90.41"/></g><g id="POLYLINE-19" data-name="POLYLINE"><path class="cls-1" d="M363.14,170.1v-7.5a.72.72,0,0,0-1.43,0v7.5a.72.72,0,0,0,1.43,0Z"/></g><g id="POLYLINE-20" data-name="POLYLINE"><path class="cls-1" d="M363.14,260.1v-7.5a.72.72,0,0,0-1.43,0v7.5a.72.72,0,0,0,1.43,0Z"/></g><g id="POLYLINE-21" data-name="POLYLINE"><path class="cls-1" d="M363.14,350.1v-7.5a.72.72,0,0,0-1.43,0v7.5a.72.72,0,0,0,1.43,0Z"/></g><g id="POLYLINE-22" data-name="POLYLINE"><path class="cls-1" d="M324.29,170.1v-7.5a.72.72,0,0,0-1.43,0v7.5a.72.72,0,0,0,1.43,0Z"/></g><g id="POLYLINE-23" data-name="POLYLINE"><path class="cls-1" d="M324.29,260.1v-7.5a.72.72,0,0,0-1.43,0v7.5a.72.72,0,0,0,1.43,0Z"/></g><g id="POLYLINE-24" data-name="POLYLINE"><path class="cls-1" d="M324.29,350.1v-7.5a.72.72,0,0,0-1.43,0v7.5a.72.72,0,0,0,1.43,0Z"/></g><g id="POLYLINE-25" data-name="POLYLINE"><polygon class="cls-1" points="372.89 287.29 371.01 287.29 371.01 270.41 372.89 270.41 372.89 271.31 374.69 271.31 374.69 273.19 373.79 273.19 373.79 284.51 374.69 284.51 374.69 286.39 372.89 286.39 372.89 287.29"/></g><g id="POLYLINE-26" data-name="POLYLINE"><polygon class="cls-1" points="372.89 377.29 372.89 376.39 374.69 376.39 374.69 374.51 373.79 374.51 373.79 363.19 374.69 363.19 374.69 361.31 372.89 361.31 372.89 360.41 371.01 360.41 371.01 377.29 372.89 377.29"/></g><g id="POLYLINE-27" data-name="POLYLINE"><polygon class="cls-1" points="372.89 316.31 372.89 315.41 371.01 315.41 371.01 332.29 372.89 332.29 372.89 331.39 374.69 331.39 374.69 329.51 373.79 329.51 373.79 318.19 374.69 318.19 374.69 316.31 372.89 316.31"/></g><g id="POLYLINE-28" data-name="POLYLINE"><polygon class="cls-1" points="372.89 226.31 372.89 225.41 371.01 225.41 371.01 242.29 372.89 242.29 372.89 241.39 374.69 241.39 374.69 239.51 373.79 239.51 373.79 228.19 374.69 228.19 374.69 226.31 372.89 226.31"/></g><g id="POLYLINE-29" data-name="POLYLINE"><polygon class="cls-1" points="372.89 181.31 372.89 180.41 371.01 180.41 371.01 197.29 372.89 197.29 372.89 196.39 374.69 196.39 374.69 194.51 373.79 194.51 373.79 183.19 374.69 183.19 374.69 181.31 372.89 181.31"/></g><g id="POLYLINE-30" data-name="POLYLINE"><polygon class="cls-1" points="372.89 136.31 372.89 135.41 371.01 135.41 371.01 152.29 372.89 152.29 372.89 151.39 374.69 151.39 374.69 149.51 373.79 149.51 373.79 138.19 374.69 138.19 374.69 136.31 372.89 136.31"/></g><g id="POLYLINE-31" data-name="POLYLINE"><polygon class="cls-1" points="388.71 344.06 388.71 348.64 390.59 348.64 390.59 347.74 394.41 347.74 394.41 348.64 396.29 348.64 396.29 344.06 394.41 344.06 394.41 344.96 390.59 344.96 390.59 344.06 388.71 344.06"/></g><g id="POLYLINE-32" data-name="POLYLINE"><polygon class="cls-1" points="388.71 254.06 388.71 258.64 390.59 258.64 390.59 257.74 394.41 257.74 394.41 258.64 396.29 258.64 396.29 254.06 394.41 254.06 394.41 254.96 390.59 254.96 390.59 254.06 388.71 254.06"/></g><g id="POLYLINE-33" data-name="POLYLINE"><polygon class="cls-1" points="396.29 168.64 396.29 164.06 394.41 164.06 394.41 164.96 390.59 164.96 390.59 164.06 388.71 164.06 388.71 168.64 390.59 168.64 390.59 167.74 394.41 167.74 394.41 168.64 396.29 168.64"/></g><g id="POLYLINE-34" data-name="POLYLINE"><polygon class="cls-1" points="371.01 90.41 371.01 107.29 372.89 107.29 372.89 106.39 374.69 106.39 374.69 104.51 373.79 104.51 373.79 93.19 374.69 93.19 374.69 91.31 372.89 91.31 372.89 90.41 371.01 90.41"/></g><g id="POLYLINE-35" data-name="POLYLINE"><path class="cls-1" d="M412.64,170.1v-7.5a.72.72,0,0,0-1.43,0v7.5a.72.72,0,0,0,1.43,0Z"/></g><g id="POLYLINE-36" data-name="POLYLINE"><path class="cls-1" d="M412.64,260.1v-7.5a.72.72,0,0,0-1.43,0v7.5a.72.72,0,0,0,1.43,0Z"/></g><g id="POLYLINE-37" data-name="POLYLINE"><path class="cls-1" d="M412.64,350.1v-7.5a.72.72,0,0,0-1.43,0v7.5a.72.72,0,0,0,1.43,0Z"/></g><g id="POLYLINE-38" data-name="POLYLINE"><path class="cls-1" d="M373.79,170.1v-7.5a.72.72,0,0,0-1.43,0v7.5a.72.72,0,0,0,1.43,0Z"/></g><g id="POLYLINE-39" data-name="POLYLINE"><path class="cls-1" d="M373.79,260.1v-7.5a.72.72,0,0,0-1.43,0v7.5a.72.72,0,0,0,1.43,0Z"/></g><g id="POLYLINE-40" data-name="POLYLINE"><path class="cls-1" d="M373.79,350.1v-7.5a.72.72,0,0,0-1.43,0v7.5a.72.72,0,0,0,1.43,0Z"/></g><g id="POLYLINE-41" data-name="POLYLINE"><polygon class="cls-1" points="289.71 297.26 289.71 301.83 291.59 301.83 291.59 300.93 295.41 300.93 295.41 301.83 297.29 301.83 297.29 297.26 295.41 297.26 295.41 298.16 291.59 298.16 291.59 297.26 289.71 297.26"/></g><g id="POLYLINE-42" data-name="POLYLINE"><polygon class="cls-1" points="273.89 285.48 273.89 284.58 275.69 284.58 275.69 282.71 274.79 282.71 274.79 271.38 275.69 271.38 275.69 269.51 273.89 269.51 273.89 268.61 272.01 268.61 272.01 285.48 273.89 285.48"/></g><g id="POLYLINE-43" data-name="POLYLINE"><polygon class="cls-1" points="273.89 359.51 273.89 358.61 272.01 358.61 272.01 375.48 273.89 375.48 273.89 374.58 275.69 374.58 275.69 372.71 274.79 372.71 274.79 361.38 275.69 361.38 275.69 359.51 273.89 359.51"/></g><g id="POLYLINE-44" data-name="POLYLINE"><polygon class="cls-1" points="272.01 313.61 272.01 330.48 273.89 330.48 273.89 329.58 275.69 329.58 275.69 327.71 274.79 327.71 274.79 316.38 275.69 316.38 275.69 314.51 273.89 314.51 273.89 313.61 272.01 313.61"/></g><g id="POLYLINE-45" data-name="POLYLINE"><path class="cls-1" d="M274.79,303.3v-7.5a.72.72,0,1,0-1.43,0v7.5a.72.72,0,0,0,1.43,0Z"/></g><g id="POLYLINE-46" data-name="POLYLINE"><path class="cls-1" d="M313.64,303.3v-7.5a.72.72,0,1,0-1.43,0v7.5a.72.72,0,0,0,1.43,0Z"/></g><g id="POLYLINE-47" data-name="POLYLINE"><polygon class="cls-1" points="250.42 219.69 247.87 219.7 247.87 218.84 246.44 218.84 246.44 223.34 247.87 223.34 247.87 222.48 250.42 222.47 250.42 223.33 251.84 223.33 251.84 218.83 250.42 218.83 250.42 219.69"/></g><g id="POLYLINE-48" data-name="POLYLINE"><polygon class="cls-1" points="250.42 194.2 247.87 194.21 247.87 193.34 246.44 193.34 246.44 197.85 247.87 197.85 247.87 196.98 250.42 196.97 250.42 197.84 251.84 197.84 251.84 193.33 250.42 193.33 250.42 194.2"/></g><g id="POLYLINE-49" data-name="POLYLINE"><polygon class="cls-1" points="250.42 168.7 247.87 168.71 247.87 167.84 246.44 167.84 246.44 172.35 247.87 172.35 247.87 171.48 250.42 171.47 250.42 172.34 251.84 172.34 251.84 167.83 250.42 167.83 250.42 168.7"/></g><g id="POLYLINE-50" data-name="POLYLINE"><polygon class="cls-1" points="250.42 143.2 247.87 143.21 247.87 142.34 246.44 142.34 246.44 146.85 247.87 146.85 247.87 145.98 250.42 145.97 250.42 146.84 251.84 146.84 251.84 142.33 250.42 142.33 250.42 143.2"/></g><g id="POLYLINE-51" data-name="POLYLINE"><polygon class="cls-1" points="250.42 117.7 247.87 117.71 247.87 116.84 246.44 116.84 246.44 121.35 247.87 121.35 247.87 120.48 250.42 120.47 250.42 121.34 251.84 121.34 251.84 116.83 250.42 116.83 250.42 117.7"/></g><g id="POLYLINE-52" data-name="POLYLINE"><polygon class="cls-1" points="250.42 92.2 247.87 92.21 247.87 91.34 246.44 91.34 246.44 95.85 247.87 95.85 247.87 94.98 250.42 94.97 250.42 95.84 251.84 95.84 251.84 91.33 250.42 91.33 250.42 92.2"/></g><g id="POLYLINE-53" data-name="POLYLINE"><polygon class="cls-1" points="250.42 372.69 247.87 372.7 247.87 371.84 246.44 371.84 246.44 376.34 247.87 376.34 247.87 375.48 250.42 375.47 250.42 376.33 251.84 376.33 251.84 371.83 250.42 371.83 250.42 372.69"/></g><g id="POLYLINE-54" data-name="POLYLINE"><polygon class="cls-1" points="250.42 347.19 247.87 347.2 247.87 346.34 246.44 346.34 246.44 350.84 247.87 350.84 247.87 349.98 250.42 349.97 250.42 350.83 251.84 350.83 251.84 346.33 250.42 346.33 250.42 347.19"/></g><g id="POLYLINE-55" data-name="POLYLINE"><polygon class="cls-1" points="250.42 321.69 247.87 321.7 247.87 320.84 246.44 320.84 246.44 325.34 247.87 325.34 247.87 324.48 250.42 324.47 250.42 325.33 251.84 325.33 251.84 320.83 250.42 320.83 250.42 321.69"/></g><g id="POLYLINE-56" data-name="POLYLINE"><polygon class="cls-1" points="250.42 296.19 247.87 296.2 247.87 295.34 246.44 295.34 246.44 299.84 247.87 299.84 247.87 298.98 250.42 298.97 250.42 299.83 251.84 299.83 251.84 295.33 250.42 295.33 250.42 296.19"/></g><g id="POLYLINE-57" data-name="POLYLINE"><polygon class="cls-1" points="250.42 270.69 247.87 270.7 247.87 269.84 246.44 269.84 246.44 274.34 247.87 274.34 247.87 273.48 250.42 273.47 250.42 274.33 251.84 274.33 251.84 269.83 250.42 269.83 250.42 270.69"/></g><g id="POLYLINE-58" data-name="POLYLINE"><polygon class="cls-1" points="250.42 245.19 247.87 245.2 247.87 244.34 246.44 244.34 246.44 248.84 247.87 248.84 247.87 247.98 250.42 247.97 250.42 248.83 251.84 248.83 251.84 244.33 250.42 244.33 250.42 245.19"/></g><g id="POLYLINE-59" data-name="POLYLINE"><polygon class="cls-1" points="100.86 382.23 100.86 380.36 93.59 380.36 93.59 382.23 94.49 382.23 94.49 387.56 93.59 387.56 93.59 389.43 100.86 389.43 100.86 387.56 99.96 387.56 99.96 382.23 100.86 382.23"/></g><g id="POLYLINE-60" data-name="POLYLINE"><polygon class="cls-1" points="29.09 382.23 29.09 387.56 28.19 387.56 28.19 389.43 35.46 389.43 35.46 387.56 34.56 387.56 34.56 382.23 35.46 382.23 35.46 380.36 28.19 380.36 28.19 382.23 29.09 382.23"/></g><g id="POLYLINE-61" data-name="POLYLINE"><polygon class="cls-1" points="87.33 211.6 85.49 211.6 85.49 212.5 74.16 212.5 74.16 211.6 72.29 211.6 72.29 216.18 74.16 216.18 74.16 215.28 85.49 215.28 85.49 216.18 87.36 216.18 87.36 211.6 87.33 211.6"/></g><g id="POLYLINE-62" data-name="POLYLINE"><polygon class="cls-1" points="87.33 301.61 85.49 301.61 85.49 302.5 74.16 302.5 74.16 301.61 72.29 301.61 72.29 306.18 74.16 306.18 74.16 305.28 85.49 305.28 85.49 306.18 87.36 306.18 87.36 301.61 87.33 301.61"/></g><g id="POLYLINE-63" data-name="POLYLINE"><polygon class="cls-1" points="87.36 126.14 87.36 121.61 85.49 121.61 85.49 122.5 74.16 122.5 74.16 121.61 72.29 121.61 72.29 126.18 74.16 126.18 74.16 125.28 85.49 125.28 85.49 126.18 87.36 126.18 87.36 126.14"/></g><g id="POLYLINE-64" data-name="POLYLINE"><polygon class="cls-1" points="41.73 306.18 43.56 306.18 43.56 305.28 54.89 305.28 54.89 306.18 56.76 306.18 56.76 301.61 54.89 301.61 54.89 302.5 43.56 302.5 43.56 301.61 41.69 301.61 41.69 306.18 41.73 306.18"/></g><g id="POLYLINE-65" data-name="POLYLINE"><polygon class="cls-1" points="41.73 216.18 43.56 216.18 43.56 215.28 54.89 215.28 54.89 216.18 56.76 216.18 56.76 211.6 54.89 211.6 54.89 212.5 43.56 212.5 43.56 211.6 41.69 211.6 41.69 216.18 41.73 216.18"/></g><g id="POLYLINE-66" data-name="POLYLINE"><polygon class="cls-1" points="56.76 126.14 56.76 121.61 54.89 121.61 54.89 122.5 43.56 122.5 43.56 121.61 41.69 121.61 41.69 126.18 43.56 126.18 43.56 125.28 54.89 125.28 54.89 126.18 56.76 126.18 56.76 126.14"/></g><g id="POLYLINE-67" data-name="POLYLINE"><polygon class="cls-1" points="192.59 382.23 192.59 380.36 185.31 380.36 185.31 382.23 186.21 382.23 186.21 387.56 185.31 387.56 185.31 389.43 192.59 389.43 192.59 387.56 191.69 387.56 191.69 382.23 192.59 382.23"/></g><g id="POLYLINE-68" data-name="POLYLINE"><polygon class="cls-1" points="120.81 382.23 120.81 387.56 119.91 387.56 119.91 389.43 127.19 389.43 127.19 387.56 126.29 387.56 126.29 382.23 127.19 382.23 127.19 380.36 119.91 380.36 119.91 382.23 120.81 382.23"/></g><g id="POLYLINE-69" data-name="POLYLINE"><polygon class="cls-1" points="179.05 211.6 177.21 211.6 177.21 212.5 165.89 212.5 165.89 211.6 164.01 211.6 164.01 216.18 165.89 216.18 165.89 215.28 177.21 215.28 177.21 216.18 179.09 216.18 179.09 211.6 179.05 211.6"/></g><g id="POLYLINE-70" data-name="POLYLINE"><polygon class="cls-1" points="179.05 301.61 177.21 301.61 177.21 302.5 165.89 302.5 165.89 301.61 164.01 301.61 164.01 306.18 165.89 306.18 165.89 305.28 177.21 305.28 177.21 306.18 179.09 306.18 179.09 301.61 179.05 301.61"/></g><g id="POLYLINE-71" data-name="POLYLINE"><polygon class="cls-1" points="179.09 126.14 179.09 121.61 177.21 121.61 177.21 122.5 165.89 122.5 165.89 121.61 164.01 121.61 164.01 126.18 165.89 126.18 165.89 125.28 177.21 125.28 177.21 126.18 179.09 126.18 179.09 126.14"/></g><g id="POLYLINE-72" data-name="POLYLINE"><polygon class="cls-1" points="133.45 306.18 135.29 306.18 135.29 305.28 146.61 305.28 146.61 306.18 148.49 306.18 148.49 301.61 146.61 301.61 146.61 302.5 135.29 302.5 135.29 301.61 133.41 301.61 133.41 306.18 133.45 306.18"/></g><g id="POLYLINE-73" data-name="POLYLINE"><polygon class="cls-1" points="133.45 216.18 135.29 216.18 135.29 215.28 146.61 215.28 146.61 216.18 148.49 216.18 148.49 211.6 146.61 211.6 146.61 212.5 135.29 212.5 135.29 211.6 133.41 211.6 133.41 216.18 133.45 216.18"/></g><g id="POLYLINE-74" data-name="POLYLINE"><polygon class="cls-1" points="148.49 126.14 148.49 121.61 146.61 121.61 146.61 122.5 135.29 122.5 135.29 121.61 133.41 121.61 133.41 126.18 135.29 126.18 135.29 125.28 146.61 125.28 146.61 126.18 148.49 126.18 148.49 126.14"/></g><g id="POLYLINE-75" data-name="POLYLINE"><polygon class="cls-1" points="482.84 345.77 482.84 341.23 480.96 341.23 480.96 342.13 469.64 342.13 469.64 341.23 467.76 341.23 467.76 345.81 469.64 345.81 469.64 344.9 480.96 344.9 480.96 345.81 482.84 345.81 482.84 345.77"/></g><g id="POLYLINE-76" data-name="POLYLINE"><polygon class="cls-1" points="513.44 345.77 513.44 341.23 511.56 341.23 511.56 342.13 500.24 342.13 500.24 341.23 498.36 341.23 498.36 345.81 500.24 345.81 500.24 344.9 511.56 344.9 511.56 345.81 513.44 345.81 513.44 345.77"/></g><g id="POLYLINE-77" data-name="POLYLINE"><polygon class="cls-1" points="520.56 265.18 519.66 265.18 519.66 267.06 526.94 267.06 526.94 265.18 526.04 265.18 526.04 259.86 526.94 259.86 526.94 257.98 519.66 257.98 519.66 259.86 520.56 259.86 520.56 265.18"/></g><g id="POLYLINE-78" data-name="POLYLINE"><polygon class="cls-1" points="461.54 257.98 454.26 257.98 454.26 259.86 455.16 259.86 455.16 265.18 454.26 265.18 454.26 267.06 461.54 267.06 461.54 265.18 460.64 265.18 460.64 259.86 461.54 259.86 461.54 257.98"/></g><g id="POLYLINE-79" data-name="POLYLINE"><polygon class="cls-1" points="482.84 203.7 482.84 199.16 480.96 199.16 480.96 200.06 469.64 200.06 469.64 199.16 467.76 199.16 467.76 203.74 469.64 203.74 469.64 202.84 480.96 202.84 480.96 203.74 482.84 203.74 482.84 203.7"/></g><g id="POLYLINE-80" data-name="POLYLINE"><polygon class="cls-1" points="513.44 203.7 513.44 199.16 511.56 199.16 511.56 200.06 500.24 200.06 500.24 199.16 498.36 199.16 498.36 203.74 500.24 203.74 500.24 202.84 511.56 202.84 511.56 203.74 513.44 203.74 513.44 203.7"/></g><g id="POLYLINE-81" data-name="POLYLINE"><polygon class="cls-1" points="520.56 123.11 519.66 123.11 519.66 124.99 526.94 124.99 526.94 123.11 526.04 123.11 526.04 117.79 526.94 117.79 526.94 115.91 519.66 115.91 519.66 117.79 520.56 117.79 520.56 123.11"/></g><g id="POLYLINE-82" data-name="POLYLINE"><polygon class="cls-1" points="461.54 115.91 454.26 115.91 454.26 117.79 455.16 117.79 455.16 123.11 454.26 123.11 454.26 124.99 461.54 124.99 461.54 123.11 460.64 123.11 460.64 117.79 461.54 117.79 461.54 115.91"/></g><g id="POLYLINE-83" data-name="POLYLINE"><path class="cls-1" d="M526.81,55a.86.86,0,0,1-.07.36.89.89,0,0,1-1.18.47l-9.25-4h-5.4l-9.24,4a.86.86,0,0,1-.36.07.9.9,0,0,1-.9-.9V48.1a3,3,0,1,1,0-6V35.17a.85.85,0,0,1,.08-.35.89.89,0,0,1,1.18-.47l9.24,4h5.4l9.25-4a.85.85,0,0,1,.35-.08.9.9,0,0,1,.9.9V42.1a3,3,0,0,1,0,6Z"/></g><g id="POLYLINE-84" data-name="POLYLINE"><path class="cls-1" d="M480.73,55a.86.86,0,0,1-.07.36.9.9,0,0,1-1.19.47l-9.24-4h-5.4l-9.24,4a.91.91,0,0,1-1.26-.83V48.1a3,3,0,0,1,0-6V35.17a.85.85,0,0,1,.08-.35.89.89,0,0,1,1.18-.47l9.24,4h5.4l9.24-4a.94.94,0,0,1,.36-.08.9.9,0,0,1,.9.9V42.1a3,3,0,0,1,0,6Z"/></g><g id="POLYLINE-85" data-name="POLYLINE"><path class="cls-1" d="M447.27,74.61a.9.9,0,0,0-.9.9v7.2a.9.9,0,0,0,.9.9l42,.07V74.53Z"/></g><g id="POLYLINE-86" data-name="POLYLINE"><path class="cls-1" d="M447.27,63.66a.9.9,0,0,0-.9.9v7.2a.9.9,0,0,0,.9.9l42,.07V63.58Z"/></g><g id="POLYLINE-87" data-name="POLYLINE"><path class="cls-1" d="M447.27,96.51a.9.9,0,0,0-.9.9v7.2a.9.9,0,0,0,.9.9l42,.07V96.43Z"/></g><g id="POLYLINE-88" data-name="POLYLINE"><path class="cls-1" d="M447.27,85.56a.9.9,0,0,0-.9.9v7.2a.9.9,0,0,0,.9.9l42,.07V85.48Z"/></g><g id="POLYLINE-89" data-name="POLYLINE"><path class="cls-1" d="M493.12,74.61a.9.9,0,0,0-.9.9v7.2a.91.91,0,0,0,.9.9l42,.07V74.53Z"/></g><g id="POLYLINE-90" data-name="POLYLINE"><path class="cls-1" d="M493.12,63.66a.9.9,0,0,0-.9.9v7.2a.91.91,0,0,0,.9.9l42,.07V63.58Z"/></g><g id="POLYLINE-91" data-name="POLYLINE"><path class="cls-1" d="M493.12,96.51a.9.9,0,0,0-.9.9v7.2a.91.91,0,0,0,.9.9l42,.07V96.43Z"/></g><g id="POLYLINE-92" data-name="POLYLINE"><path class="cls-1" d="M493.12,85.56a.9.9,0,0,0-.9.9v7.2a.91.91,0,0,0,.9.9l42,.07V85.48Z"/></g><g id="POLYLINE-93" data-name="POLYLINE"><path class="cls-1" d="M287.19,101.58h.14a.87.87,0,0,1,.71,1l-1.15,6.9a.94.94,0,0,0,.77,1.08h11.53a.94.94,0,0,0,.94-.93.78.78,0,0,0,0-.16l-1.15-6.9s0-.1,0-.14a.87.87,0,0,1,.86-.87h11.5v1.8h.9v1.73h-.9V107h3.6v2.63h-3.6v1.87h.9v1.73h-.9v1.87h3.6v8.18h-3.6v1.87h.9v11.33h-.9v1.87h3.6v29.93h-3.6v1.87h.9v11.33h-.9v1.87h3.6v8.18h-3.6v1.87h.9v1.73h-.9V197h3.6v2.63h-3.6v1.87h.9v1.73h-.9v1.87h3.6v8.18h-3.6v1.87h.9v11.33h-.9v1.87h3.6v14.93H302.54v-3.6h-1.88v.9H286.34v-.9h-1.88v3.6H267.29V205.08h8.4v-1.87h-.9v-1.73h.9v-1.87h-3.6V197h3.6v-1.87h-.9v-1.73h.9v-1.87h-8.4V115.08h8.4v-1.87h-.9v-1.73h.9v-1.87h-3.6V107h3.6v-1.87h-.9v-1.73h.9v-1.8Z"/></g><g id="POLYLINE-94" data-name="POLYLINE"><path class="cls-1" d="M349.31,384.56a.94.94,0,0,0-.93.94.76.76,0,0,0,0,.15l1.15,6.91a.61.61,0,0,1,0,.14.85.85,0,0,1-.86.86H337.17a.86.86,0,0,1-.71-1l1.15-6.91a.94.94,0,0,0-.77-1.08h-20V308.14h8.4v-1.88h-.9v-1.72h.9v-1.88h-3.6V300h3.6v-1.88h-.9v-1.72h.9v-1.88h-8.4V218.14h8.4v-1.88h-.9v-1.72h.9v-1.88h-3.6V210h3.6v-1.88h-.9v-1.72h.9v-1.88h-8.4V128.14h8.4v-1.88h-.9v-1.72h.9v-1.88h-3.6V120h3.6v-1.88h-.9v-1.72h.9v-1.88h-8.4V76.39H334V80h1.88v-.9h14.32V80H352v-3.6h12.37V91.31h-3.6v1.88h.9v11.32h-.9v1.88h3.6v8.17h-3.6v1.88h.9v1.72h-.9V120h3.6v2.62h-3.6v1.88h.9v1.72h-.9v1.88h3.6v8.17h-3.6v1.88h.9v11.32h-.9v1.88h3.6v29.92h-3.6v1.88h.9v11.32h-.9v1.88h3.6v8.17h-3.6v1.88h.9v1.72h-.9V210h3.6v2.62h-3.6v1.88h.9v1.72h-.9v1.88h3.6v8.17h-3.6v1.88h.9v11.32h-.9v1.88h3.6v29.92h-3.6v1.88h.9v11.32h-.9v1.88h3.6v8.17h-3.6v1.88h.9v1.72h-.9V300h3.6v2.62h-3.6v1.88h.9v1.72h-.9v1.88h3.6v8.17h-3.6v1.88h.9v11.32h-.9v1.88h3.6v29.92h-3.6v1.88h.9v11.32h-.9v1.88h3.6v8.17Z"/></g><g id="POLYLINE-95" data-name="POLYLINE"><path class="cls-1" d="M398.81,384.56a.94.94,0,0,0-.93.94.76.76,0,0,0,0,.15l1.15,6.91a.61.61,0,0,1,0,.14.85.85,0,0,1-.86.86H386.67a.86.86,0,0,1-.71-1l1.15-6.91a.94.94,0,0,0-.77-1.08h-20V308.14h8.4v-1.88h-.9v-1.72h.9v-1.88h-3.6V300h3.6v-1.88h-.9v-1.72h.9v-1.88h-8.4V218.14h8.4v-1.88h-.9v-1.72h.9v-1.88h-3.6V210h3.6v-1.88h-.9v-1.72h.9v-1.88h-8.4V128.14h8.4v-1.88h-.9v-1.72h.9v-1.88h-3.6V120h3.6v-1.88h-.9v-1.72h.9v-1.88h-8.4V76.39h17.17V80h1.88v-.9h14.32V80h1.88v-3.6h12.37V91.31h-3.6v1.88h.9v11.32h-.9v1.88h3.6v8.17h-3.6v1.88h.9v1.72h-.9V120h3.6v2.62h-3.6v1.88h.9v1.72h-.9v1.88h3.6v8.17h-3.6v1.88h.9v11.32h-.9v1.88h3.6v29.92h-3.6v1.88h.9v11.32h-.9v1.88h3.6v8.17h-3.6v1.88h.9v1.72h-.9V210h3.6v2.62h-3.6v1.88h.9v1.72h-.9v1.88h3.6v8.17h-3.6v1.88h.9v11.32h-.9v1.88h3.6v29.92h-3.6v1.88h.9v11.32h-.9v1.88h3.6v8.17h-3.6v1.88h.9v1.72h-.9V300h3.6v2.62h-3.6v1.88h.9v1.72h-.9v1.88h3.6v8.17h-3.6v1.88h.9v11.32h-.9v1.88h3.6v29.92h-3.6v1.88h.9v11.32h-.9v1.88h3.6v8.17Z"/></g><g id="POLYLINE-96" data-name="POLYLINE"><path class="cls-1" d="M287.19,247.83l.14,0a.85.85,0,0,1,.71,1l-1.15,6.9a.93.93,0,0,0,.77,1.08h11.53a.94.94,0,0,0,.94-.93.78.78,0,0,0,0-.16l-1.15-6.9c0-.05,0-.1,0-.14a.87.87,0,0,1,.86-.87h11.5v1.8h.9v1.73h-.9v1.87h3.6v2.63h-3.6v1.87h.9v1.73h-.9v1.87h3.6v8.18h-3.6v1.87h.9v11.33h-.9v1.87h3.6v29.93h-3.6v1.87h.9v11.33h-.9v1.87h3.6v8.18h-3.6v1.87h.9v1.73h-.9v1.87h3.6v2.63h-3.6v1.87h.9v1.73h-.9v1.87h3.6v8.18h-3.6v1.87h.9v11.33h-.9v1.87h3.6v14.93H302.54v-3.6h-1.88v.9H286.34v-.9h-1.88v3.6H267.29V351.33h8.4v-1.87h-.9v-1.73h.9v-1.87h-3.6v-2.63h3.6v-1.87h-.9v-1.73h.9v-1.87h-8.4V261.33h8.4v-1.87h-.9v-1.73h.9v-1.87h-3.6v-2.63h3.6v-1.87h-.9v-1.73h.9v-1.8Z"/></g><g id="POLYLINE-97" data-name="POLYLINE"><path class="cls-1" d="M262.34,231a.89.89,0,0,1-.07.36.91.91,0,0,1-1.18.47l-9.25-4h-5.4l-9.24,4a.86.86,0,0,1-.36.07.9.9,0,0,1-.9-.9v-6.93a3,3,0,0,1,0-6v-6.93a.94.94,0,0,1,.08-.36.9.9,0,0,1,1.18-.46l9.24,4h5.4l9.25-4a.85.85,0,0,1,.35-.08.9.9,0,0,1,.9.9v6.93a3,3,0,0,1,0,6Z"/></g><g id="POLYLINE-98" data-name="POLYLINE"><path class="cls-1" d="M262.34,180a.86.86,0,0,1-.07.36.89.89,0,0,1-1.18.47l-9.25-4h-5.4l-9.24,4a.86.86,0,0,1-.36.07.9.9,0,0,1-.9-.9v-6.93a3,3,0,0,1,0-6v-6.93a.85.85,0,0,1,.08-.35.89.89,0,0,1,1.18-.47l9.24,4h5.4l9.25-4a.85.85,0,0,1,.35-.08.9.9,0,0,1,.9.9v6.93a3,3,0,0,1,0,6Z"/></g><g id="POLYLINE-99" data-name="POLYLINE"><path class="cls-1" d="M262.34,154.52a.86.86,0,0,1-.07.36.89.89,0,0,1-1.18.47l-9.25-4h-5.4l-9.24,4a.86.86,0,0,1-.36.07.9.9,0,0,1-.9-.9v-6.93a3,3,0,0,1,0-6v-6.93a.85.85,0,0,1,.08-.35.89.89,0,0,1,1.18-.47l9.24,4h5.4l9.25-4a.85.85,0,0,1,.35-.08.9.9,0,0,1,.9.9v6.93a3,3,0,0,1,0,6Z"/></g><g id="POLYLINE-100" data-name="POLYLINE"><path class="cls-1" d="M262.34,129a.86.86,0,0,1-.07.36.89.89,0,0,1-1.18.47l-9.25-4h-5.4l-9.24,4a.86.86,0,0,1-.36.07.9.9,0,0,1-.9-.9v-6.93a3,3,0,0,1,0-6v-6.93a.85.85,0,0,1,.08-.35.89.89,0,0,1,1.18-.47l9.24,4h5.4l9.25-4a.85.85,0,0,1,.35-.08.9.9,0,0,1,.9.9v6.93a3,3,0,0,1,0,6Z"/></g><g id="POLYLINE-101" data-name="POLYLINE"><path class="cls-1" d="M262.34,103.52a.86.86,0,0,1-.07.36.89.89,0,0,1-1.18.47l-9.25-4h-5.4l-9.24,4a.86.86,0,0,1-.36.07.9.9,0,0,1-.9-.9V96.59a3,3,0,0,1,0-6V83.66a.85.85,0,0,1,.08-.35.89.89,0,0,1,1.18-.47l9.24,4h5.4l9.25-4a.85.85,0,0,1,.35-.08.9.9,0,0,1,.9.9v6.93a3,3,0,0,1,0,6Z"/></g><g id="POLYLINE-102" data-name="POLYLINE"><path class="cls-1" d="M262.34,384a.89.89,0,0,1-.07.36.91.91,0,0,1-1.18.47l-9.25-4h-5.4l-9.24,4a.86.86,0,0,1-.36.07.9.9,0,0,1-.9-.9v-6.93a3,3,0,0,1,0-6v-6.93a.94.94,0,0,1,.08-.36.9.9,0,0,1,1.18-.46l9.24,4h5.4l9.25-4a.85.85,0,0,1,.35-.08.9.9,0,0,1,.9.9v6.93a3,3,0,0,1,0,6Z"/></g><g id="POLYLINE-103" data-name="POLYLINE"><path class="cls-1" d="M262.34,358.52a.89.89,0,0,1-.07.36.91.91,0,0,1-1.18.47l-9.25-4h-5.4l-9.24,4a.86.86,0,0,1-.36.07.9.9,0,0,1-.9-.9v-6.93a3,3,0,0,1,0-6v-6.93a.94.94,0,0,1,.08-.36.9.9,0,0,1,1.18-.46l9.24,4h5.4l9.25-4a.85.85,0,0,1,.35-.08.9.9,0,0,1,.9.9v6.93a3,3,0,0,1,0,6Z"/></g><g id="POLYLINE-104" data-name="POLYLINE"><path class="cls-1" d="M262.34,333a.89.89,0,0,1-.07.36.91.91,0,0,1-1.18.47l-9.25-4h-5.4l-9.24,4a.86.86,0,0,1-.36.07.9.9,0,0,1-.9-.9v-6.93a3,3,0,0,1,0-6v-6.93a.94.94,0,0,1,.08-.36.9.9,0,0,1,1.18-.46l9.24,4h5.4l9.25-4a.85.85,0,0,1,.35-.08.9.9,0,0,1,.9.9v6.93a3,3,0,0,1,0,6Z"/></g><g id="POLYLINE-105" data-name="POLYLINE"><path class="cls-1" d="M262.34,307.52a.89.89,0,0,1-.07.36.91.91,0,0,1-1.18.47l-9.25-4h-5.4l-9.24,4a.86.86,0,0,1-.36.07.9.9,0,0,1-.9-.9v-6.93a3,3,0,0,1,0-6v-6.93a.94.94,0,0,1,.08-.36.9.9,0,0,1,1.18-.46l9.24,4h5.4l9.25-4a.85.85,0,0,1,.35-.08.9.9,0,0,1,.9.9v6.93a3,3,0,0,1,0,6Z"/></g><g id="POLYLINE-106" data-name="POLYLINE"><path class="cls-1" d="M262.34,282a.89.89,0,0,1-.07.36.91.91,0,0,1-1.18.47l-9.25-4h-5.4l-9.24,4a.86.86,0,0,1-.36.07.9.9,0,0,1-.9-.9v-6.93a3,3,0,0,1,0-6v-6.93a.94.94,0,0,1,.08-.36.9.9,0,0,1,1.18-.46l9.24,4h5.4l9.25-4a.85.85,0,0,1,.35-.08.9.9,0,0,1,.9.9v6.93a3,3,0,0,1,0,6Z"/></g><g id="POLYLINE-107" data-name="POLYLINE"><path class="cls-1" d="M262.34,256.52a.89.89,0,0,1-.07.36.91.91,0,0,1-1.18.47l-9.25-4h-5.4l-9.24,4a.86.86,0,0,1-.36.07.9.9,0,0,1-.9-.9v-6.93a3,3,0,0,1,0-6v-6.93a.94.94,0,0,1,.08-.36.9.9,0,0,1,1.18-.46l9.24,4h5.4l9.25-4a.85.85,0,0,1,.35-.08.9.9,0,0,1,.9.9v6.93a3,3,0,0,1,0,6Z"/></g><g id="POLYLINE-108" data-name="POLYLINE"><path class="cls-1" d="M262.34,205.52a.86.86,0,0,1-.07.36.89.89,0,0,1-1.18.47l-9.25-4h-5.4l-9.24,4a.86.86,0,0,1-.36.07.9.9,0,0,1-.9-.9v-6.93a3,3,0,0,1,0-6v-6.93a.85.85,0,0,1,.08-.35.89.89,0,0,1,1.18-.47l9.24,4h5.4l9.25-4a.85.85,0,0,1,.35-.08.9.9,0,0,1,.9.9v6.93a3,3,0,0,1,0,6Z"/></g><g id="POLYLINE-109" data-name="POLYLINE"><path class="cls-1" d="M41.62,80.59,40,77.16a.78.78,0,0,1-.09-.37.87.87,0,0,1,.87-.86h9.51a1,1,0,0,1,.37.08.86.86,0,0,1,.4,1.15l-1.63,3.43a.94.94,0,0,0,.45,1.25.9.9,0,0,0,.4.09h9.51a.92.92,0,0,0,.84-1.34L59,77.16a.91.91,0,0,1-.08-.37.87.87,0,0,1,.86-.86h9.51a.91.91,0,0,1,.37.08.87.87,0,0,1,.41,1.15l-1.63,3.43a.93.93,0,0,0,.84,1.34h9.51a.94.94,0,0,0,.85-1.34L78,77.16a.78.78,0,0,1-.09-.37.87.87,0,0,1,.87-.86h9.51a1,1,0,0,1,.37.08.86.86,0,0,1,.4,1.15l-1.63,3.43a.94.94,0,0,0,.45,1.25.9.9,0,0,0,.4.09h8v6.89h0a.94.94,0,0,0,.94.94,1,1,0,0,0,.37-.08l9.19-4v6.36h-.9v1.87h3.6v14.93h-3.6v1.87h.9v7.58h-.9v1.87h3.6v7.43h-3.6v1.87h.9v7.58h-.9v1.87h3.6v14.93h-3.6v1.87h.9v6.36l-9.19-4h0a.94.94,0,0,0-1.23.49,1,1,0,0,0-.08.37v19.86a.94.94,0,0,0,.94.94,1,1,0,0,0,.37-.08l9.19-4v6.36h-.9v1.87h3.6v14.93h-3.6v1.87h.9v7.58h-.9v1.87h3.6v7.43h-3.6v1.87h.9v7.58h-.9v1.87h3.6v14.93h-3.6v1.87h.9v6.36l-9.19-4h0a.94.94,0,0,0-1.23.49,1,1,0,0,0-.08.37v19.86a.94.94,0,0,0,.94.94,1,1,0,0,0,.37-.08l9.19-4v6.36h-.9v1.87h3.6v14.93h-3.6v1.87h.9v7.58h-.9v1.87h3.6v7.43h-3.6v1.87h.9v7.58h-.9v1.87h3.6v14.93h-3.6v1.87h.9v6.36l-9.19-4h0a.94.94,0,0,0-1.23.49,1,1,0,0,0-.08.37v19.86a.94.94,0,0,0,.94.94,1,1,0,0,0,.37-.08l9.19-4v6.36h-.9v1.87h3.6v14.93h-3.6v1.87h.9v13.13H79.56v-3.6H77.69v.9H51.36v-.9H49.49v3.6H22.26V380.73h.9v-1.87h-3.6V363.93h3.6v-1.87h-.9V355.7l9.19,4h0a.94.94,0,0,0,1.24-.49.9.9,0,0,0,.07-.37V339a.93.93,0,0,0-.93-.93,1,1,0,0,0-.38.07l-9.19,4v-6.36h.9v-1.87h-3.6V318.93h3.6v-1.87h-.9v-7.58h.9v-1.87h-3.6v-7.43h3.6v-1.87h-.9v-7.58h.9v-1.87h-3.6V273.93h3.6v-1.87h-.9V265.7l9.19,4h0a.94.94,0,0,0,1.24-.49.9.9,0,0,0,.07-.37V249a.93.93,0,0,0-.93-.93,1,1,0,0,0-.38.07l-9.19,4v-6.36h.9v-1.87h-3.6V228.93h3.6v-1.87h-.9v-7.58h.9v-1.87h-3.6v-7.43h3.6v-1.87h-.9v-7.58h.9v-1.87h-3.6V183.93h3.6v-1.87h-.9V175.7l9.19,4h0a.94.94,0,0,0,1.24-.49.9.9,0,0,0,.07-.37V159a.93.93,0,0,0-.93-.93,1,1,0,0,0-.38.07l-9.19,4v-6.36h.9v-1.87h-3.6V138.93h3.6v-1.87h-.9v-7.58h.9v-1.87h-3.6v-7.43h3.6v-1.87h-.9v-7.58h.9v-1.87h-3.6V93.93h3.6V92.06h-.9V85.7l9.19,4h0a.94.94,0,0,0,1.24-.49.9.9,0,0,0,.07-.37V81.93h8a.94.94,0,0,0,.85-1.34Z"/></g><g id="POLYLINE-110" data-name="POLYLINE"><path class="cls-1" d="M133.34,80.59l-1.63-3.43a.91.91,0,0,1-.08-.37.87.87,0,0,1,.86-.86H142a.91.91,0,0,1,.37.08.87.87,0,0,1,.41,1.15l-1.63,3.43a.93.93,0,0,0,.84,1.34h9.51a.94.94,0,0,0,.85-1.34l-1.63-3.43a.78.78,0,0,1-.09-.37.87.87,0,0,1,.87-.86H161a1,1,0,0,1,.37.08.86.86,0,0,1,.4,1.15l-1.63,3.43a.94.94,0,0,0,.45,1.25.9.9,0,0,0,.4.09h9.51a.92.92,0,0,0,.84-1.34l-1.63-3.43a.91.91,0,0,1-.08-.37.87.87,0,0,1,.86-.86H180a.91.91,0,0,1,.37.08.87.87,0,0,1,.41,1.15l-1.63,3.43a.93.93,0,0,0,.84,1.34h8v6.89h0a.94.94,0,0,0,.94.94.91.91,0,0,0,.37-.08l9.19-4v6.36h-.9v1.87h3.6v14.93h-3.6v1.87h.9v7.58h-.9v1.87h3.6v7.43h-3.6v1.87h.9v7.58h-.9v1.87h3.6v14.93h-3.6v1.87h.9v6.36l-9.19-4h0a1,1,0,0,0-1.23.49,1,1,0,0,0-.08.37v19.86a.94.94,0,0,0,.94.94.91.91,0,0,0,.37-.08l9.19-4v6.36h-.9v1.87h3.6v14.93h-3.6v1.87h.9v7.58h-.9v1.87h3.6v7.43h-3.6v1.87h.9v7.58h-.9v1.87h3.6v14.93h-3.6v1.87h.9v6.36l-9.19-4h0a1,1,0,0,0-1.23.49,1,1,0,0,0-.08.37v19.86a.94.94,0,0,0,.94.94.91.91,0,0,0,.37-.08l9.19-4v6.36h-.9v1.87h3.6v14.93h-3.6v1.87h.9v7.58h-.9v1.87h3.6v7.43h-3.6v1.87h.9v7.58h-.9v1.87h3.6v14.93h-3.6v1.87h.9v6.36l-9.19-4h0a1,1,0,0,0-1.23.49,1,1,0,0,0-.08.37v19.86a.94.94,0,0,0,.94.94.91.91,0,0,0,.37-.08l9.19-4v6.36h-.9v1.87h3.6v14.93h-3.6v1.87h.9v13.13H171.29v-3.6h-1.88v.9H143.09v-.9h-1.88v3.6H114V380.73h.9v-1.87h-3.6V363.93h3.6v-1.87H114V355.7l9.19,4h0a.93.93,0,0,0,1.23-.49.91.91,0,0,0,.08-.37V339a1,1,0,0,0-1.31-.86l-9.19,4v-6.36h.9v-1.87h-3.6V318.93h3.6v-1.87H114v-7.58h.9v-1.87h-3.6v-7.43h3.6v-1.87H114v-7.58h.9v-1.87h-3.6V273.93h3.6v-1.87H114V265.7l9.19,4h0a.93.93,0,0,0,1.23-.49.91.91,0,0,0,.08-.37V249a1,1,0,0,0-1.31-.86l-9.19,4v-6.36h.9v-1.87h-3.6V228.93h3.6v-1.87H114v-7.58h.9v-1.87h-3.6v-7.43h3.6v-1.87H114v-7.58h.9v-1.87h-3.6V183.93h3.6v-1.87H114V175.7l9.19,4h0a.93.93,0,0,0,1.23-.49.91.91,0,0,0,.08-.37V159a1,1,0,0,0-1.31-.86l-9.19,4v-6.36h.9v-1.87h-3.6V138.93h3.6v-1.87H114v-7.58h.9v-1.87h-3.6v-7.43h3.6v-1.87H114v-7.58h.9v-1.87h-3.6V93.93h3.6V92.06H114V85.7l9.19,4h0a.93.93,0,0,0,1.23-.49.91.91,0,0,0,.08-.37V81.93h8a.92.92,0,0,0,.84-1.34Z"/></g><g id="POLYLINE-111" data-name="POLYLINE"><path class="cls-1" d="M467.63,390.25a.91.91,0,0,1,.08.37.87.87,0,0,1-.86.86h-8V378.59h0a.93.93,0,0,0-1.31-.86l-9.19,4v-6.36h.9v-1.87h-3.6V358.55h3.6v-1.87h-.9V349.1h.9v-1.87h-3.6V339.8h3.6v-1.87h-.9v-7.58h.9v-1.87h-3.6V313.55h3.6v-1.87h-.9v-6.36l9.19,4h0a.94.94,0,0,0,1.23-.49,1,1,0,0,0,.08-.37V288.59a.93.93,0,0,0-1.31-.86l-9.19,4v-6.36h.9v-1.87h-3.6V268.55h3.6v-1.87h-.9V253.55h27.22v3.6h1.88v-.9h26.32v.9h1.88v-3.6h27.22v13.13H532v1.87h3.6v14.93H532v1.87h.9v6.36l-9.19-4h0a.93.93,0,0,0-1.23.49.91.91,0,0,0-.08.37v19.86a.94.94,0,0,0,.94.93.9.9,0,0,0,.37-.07l9.19-4v6.36H532v1.87h3.6v14.93H532v1.87h.9v7.58H532v1.87h3.6v7.43H532v1.87h.9v7.58H532v1.87h3.6v14.93H532v1.87h.9v6.36l-9.19-4h0a.93.93,0,0,0-1.23.49.91.91,0,0,0-.08.37v12.89h-8a1,1,0,0,1-.37-.08.86.86,0,0,1-.4-1.15l1.63-3.43a.94.94,0,0,0-.45-1.25.9.9,0,0,0-.4-.09h-9.51a.92.92,0,0,0-.84,1.34l1.63,3.43a.91.91,0,0,1,.08.37.87.87,0,0,1-.86.86h-9.51a.91.91,0,0,1-.37-.08.87.87,0,0,1-.41-1.15l1.63-3.43a.93.93,0,0,0-.84-1.34h-9.51a.94.94,0,0,0-.85,1.34l1.63,3.43a.78.78,0,0,1,.09.37.87.87,0,0,1-.87.86h-9.51a1,1,0,0,1-.37-.08.86.86,0,0,1-.4-1.15l1.63-3.43a.94.94,0,0,0-.45-1.25.9.9,0,0,0-.4-.09h-9.51a.92.92,0,0,0-.84,1.34Z"/></g><g id="POLYLINE-112" data-name="POLYLINE"><polygon class="cls-1" points="300.7 31.23 285.78 31.23 285.78 34.83 283.9 34.83 283.9 33.93 271.98 33.93 271.98 34.83 270.1 34.83 270.1 31.23 255.18 31.23 255.18 34.83 253.3 34.83 253.3 33.93 235.68 33.93 235.68 47.05 236.58 47.05 236.58 48.93 232.98 48.93 232.98 56.35 236.58 56.35 236.58 58.23 235.68 58.23 235.68 71.36 253.3 71.36 253.3 70.45 255.18 70.45 255.18 74.06 270.1 74.06 270.1 70.45 271.98 70.45 271.98 71.36 283.9 71.36 283.9 70.45 285.78 70.45 285.78 74.06 300.7 74.06 300.7 70.45 302.58 70.45 302.58 71.36 320.2 71.36 320.2 58.23 319.3 58.23 319.3 56.35 322.9 56.35 322.9 48.93 319.3 48.93 319.3 47.05 320.2 47.05 320.2 33.93 302.58 33.93 302.58 34.83 300.7 34.83 300.7 31.23"/></g><g id="POLYLINE-113" data-name="POLYLINE"><polygon class="cls-1" points="178.9 31.23 163.98 31.23 163.98 34.83 162.1 34.83 162.1 33.93 150.18 33.93 150.18 34.83 148.3 34.83 148.3 31.23 133.38 31.23 133.38 34.83 131.5 34.83 131.5 33.93 113.88 33.93 113.88 47.05 114.78 47.05 114.78 48.93 111.18 48.93 111.18 56.35 114.78 56.35 114.78 58.23 113.88 58.23 113.88 71.36 131.5 71.36 131.5 70.45 133.38 70.45 133.38 74.06 148.3 74.06 148.3 70.45 150.18 70.45 150.18 71.36 162.1 71.36 162.1 70.45 163.98 70.45 163.98 74.06 178.9 74.06 178.9 70.45 180.78 70.45 180.78 71.36 198.4 71.36 198.4 58.23 197.5 58.23 197.5 56.35 201.1 56.35 201.1 48.93 197.5 48.93 197.5 47.05 198.4 47.05 198.4 33.93 180.78 33.93 180.78 34.83 178.9 34.83 178.9 31.23"/></g><g id="POLYLINE-114" data-name="POLYLINE"><path class="cls-1" d="M467.63,248.18a1,1,0,0,1,.08.37.86.86,0,0,1-.86.86h-8V236.52h0a.93.93,0,0,0-1.31-.86l-9.19,4v-6.35h.9v-1.88h-3.6V216.49h3.6v-1.88h-.9V207h.9v-1.88h-3.6v-7.42h3.6v-1.88h-.9v-7.57h.9v-1.88h-3.6V171.49h3.6v-1.88h-.9v-6.35l9.19,4h0a.93.93,0,0,0,1.23-.49,1,1,0,0,0,.08-.37V146.52a.93.93,0,0,0-1.31-.86l-9.19,4v-6.35h.9v-1.88h-3.6V126.49h3.6v-1.88h-.9V111.49h27.22v3.6h1.88v-.9h26.32v.9h1.88v-3.6h27.22v13.12H532v1.88h3.6v14.92H532v1.88h.9v6.35l-9.19-4h0a.93.93,0,0,0-1.23.49,1,1,0,0,0-.08.37v19.86a.94.94,0,0,0,.94.94.91.91,0,0,0,.37-.08l9.19-4v6.35H532v1.88h3.6v14.92H532v1.88h.9v7.57H532v1.88h3.6v7.42H532V207h.9v7.57H532v1.88h3.6v14.92H532v1.88h.9v6.35l-9.19-4h0a.93.93,0,0,0-1.23.49,1,1,0,0,0-.08.37v12.89h-8a1,1,0,0,1-.37-.08.86.86,0,0,1-.4-1.15l1.63-3.43a1,1,0,0,0-.45-1.25.9.9,0,0,0-.4-.09h-9.51a.94.94,0,0,0-.94.94.91.91,0,0,0,.1.4l1.63,3.43a1,1,0,0,1,.08.37.86.86,0,0,1-.86.86h-9.51a.91.91,0,0,1-.37-.08.87.87,0,0,1-.41-1.15l1.63-3.43a.93.93,0,0,0-.84-1.34h-9.51a.94.94,0,0,0-.94.94.9.9,0,0,0,.09.4l1.63,3.43a.81.81,0,0,1,.09.37.86.86,0,0,1-.87.86h-9.51a1,1,0,0,1-.37-.08.86.86,0,0,1-.4-1.15l1.63-3.43a1,1,0,0,0-.45-1.25.9.9,0,0,0-.4-.09h-9.51a.94.94,0,0,0-.94.94.91.91,0,0,0,.1.4Z"/></g><g id="POLYLINE-115" data-name="POLYLINE"><polygon class="cls-1" points="392.43 31.23 377.5 31.23 377.5 34.83 375.63 34.83 375.63 33.93 363.7 33.93 363.7 34.83 361.82 34.83 361.82 31.23 346.9 31.23 346.9 34.83 345.02 34.83 345.02 33.93 327.4 33.93 327.4 47.05 328.3 47.05 328.3 48.93 324.7 48.93 324.7 56.35 328.3 56.35 328.3 58.23 327.4 58.23 327.4 71.36 345.02 71.36 345.02 70.45 346.9 70.45 346.9 74.06 361.82 74.06 361.82 70.45 363.7 70.45 363.7 71.36 375.63 71.36 375.63 70.45 377.5 70.45 377.5 74.06 392.43 74.06 392.43 70.45 394.3 70.45 394.3 71.36 411.93 71.36 411.93 58.23 411.02 58.23 411.02 56.35 414.63 56.35 414.63 48.93 411.02 48.93 411.02 47.05 411.93 47.05 411.93 33.93 394.3 33.93 394.3 34.83 392.43 34.83 392.43 31.23"/></g><g id="POLYLINE-116" data-name="POLYLINE"><polygon class="cls-1" points="87.1 31.23 72.18 31.23 72.18 34.83 70.3 34.83 70.3 33.93 58.38 33.93 58.38 34.83 56.5 34.83 56.5 31.23 41.58 31.23 41.58 34.83 39.7 34.83 39.7 33.93 22.08 33.93 22.08 47.05 22.98 47.05 22.98 48.93 19.38 48.93 19.38 56.35 22.98 56.35 22.98 58.23 22.08 58.23 22.08 71.36 39.7 71.36 39.7 70.45 41.58 70.45 41.58 74.06 56.5 74.06 56.5 70.45 58.38 70.45 58.38 71.36 70.3 71.36 70.3 70.45 72.18 70.45 72.18 74.06 87.1 74.06 87.1 70.45 88.98 70.45 88.98 71.36 106.6 71.36 106.6 58.23 105.7 58.23 105.7 56.35 109.3 56.35 109.3 48.93 105.7 48.93 105.7 47.05 106.6 47.05 106.6 33.93 88.98 33.93 88.98 34.83 87.1 34.83 87.1 31.23"/></g><g id="MTEXT"><text class="cls-2" transform="translate(453.2 82.25)">&lt;PEG</text></g><g id="MTEXT-2" data-name="MTEXT"><text class="cls-2" transform="translate(453.2 71.3)">&lt;PEG</text></g><g id="MTEXT-3" data-name="MTEXT"><text class="cls-2" transform="translate(453.2 104.15)">&lt;PEG</text></g><g id="MTEXT-4" data-name="MTEXT"><text class="cls-2" transform="translate(453.2 93.2)">&lt;PEG</text></g><g id="MTEXT-5" data-name="MTEXT"><text class="cls-2" transform="translate(499.05 82.25)">&lt;PEG</text></g><g id="MTEXT-6" data-name="MTEXT"><text class="cls-2" transform="translate(499.05 71.3)">&lt;PEG</text></g><g id="MTEXT-7" data-name="MTEXT"><text class="cls-2" transform="translate(499.05 104.15)">&lt;PEG</text></g><g id="MTEXT-8" data-name="MTEXT"><text class="cls-2" transform="translate(499.05 93.2)">&lt;PEG</text></g><g id="MTEXT-9" data-name="MTEXT"><text class="cls-3" transform="translate(393.97 233) rotate(-90)">WALL-XL/E</text></g><g id="MTEXT-10" data-name="MTEXT"><text class="cls-3" transform="translate(345.4 231.17) rotate(-90)">WALL-XL/E</text></g><g id="MTEXT-11" data-name="MTEXT"><text class="cls-3" transform="translate(295.93 360.07) rotate(-90)">WALL-XL/D</text></g><g id="MTEXT-12" data-name="MTEXT"><text class="cls-3" transform="translate(295.39 210.88) rotate(-90)">WALL-XL/D</text></g><g id="MTEXT-13" data-name="MTEXT"><text class="cls-3" transform="translate(47.51 259.07)">WALL-XL/A</text></g><g id="MTEXT-14" data-name="MTEXT"><text class="cls-3" transform="translate(139.24 259.07)">WALL-XL/A</text></g><g id="MTEXT-15" data-name="MTEXT"><text class="cls-3" transform="translate(473.59 323.31)">WALL-XL/B</text></g><g id="MTEXT-16" data-name="MTEXT"><text class="cls-3" transform="translate(260.93 54.52)">WALL-XL/C</text></g><g id="MTEXT-17" data-name="MTEXT"><text class="cls-3" transform="translate(139.13 54.52)">WALL-XL/C</text></g><g id="MTEXT-18" data-name="MTEXT"><text class="cls-3" transform="translate(473.59 181.24)">WALL-XL/B</text></g><g id="MTEXT-19" data-name="MTEXT"><text class="cls-3" transform="translate(352.65 54.52)">WALL-XL/C</text></g><g id="MTEXT-20" data-name="MTEXT"><text class="cls-3" transform="translate(47.33 54.52)">WALL-XL/C</text></g><g id="POLYLINE-117" data-name="POLYLINE"><rect class="cls-4" x="18.85" y="29.04" width="183" height="366"/></g><g id="POLYLINE-118" data-name="POLYLINE"><rect class="cls-4" x="444.85" y="29.04" width="183" height="366"/></g><g id="POLYLINE-119" data-name="POLYLINE"><rect class="cls-4" x="231.85" y="29.04" width="183" height="366"/></g></svg>