  0
SECTION
  2
HEADER
  9
$ACADVER
  1
AC1009
  9
$INSBASE
 10
0.000000
 20
0.000000
 30
0.000000
  9
$EXTMIN
 10
0.000000
 20
0.000000
 30
0.000000
  9
$EXTMAX
 10
2099.500000
 20
185.500000
 30
0.000000
  0
ENDSEC
  0
SECTION
  2
TABLES
  0
TABLE
  2
LTYPE
 70
1
  0
LTYPE
  2
CONTINUOUS
 70
0
  3
Solid line
 72
65
 73
0
 40
0.000000
  0
ENDTAB
  0
TABLE
  2
LAYER
 70
5
  0
LAYER
  2
0
 70
0
 62
7
  6
CONTINUOUS
  0
LAYER
  2
1_ANYTOOL_1MMDEEP_LABELS_S
 70
0
 62
2
  6
CONTINUOUS
  0
LAYER
  2
5_ANYTOOL_HALF_MILL_9MM_IN
 70
0
 62
3
  6
CONTINUOUS
  0
LAYER
  2
3_ANYTOOL_CUTTHROUGH_INSID
 70
0
 62
4
  6
CONTINUOUS
  0
LAYER
  2
4_ANYTOOL_CUTTHROUGH_OUTSI
 70
0
 62
5
  6
CONTINUOUS
  0
ENDTAB
  0
ENDSEC
  0
SECTION
  2
ENTITIES
  0
LINE
  8
1_ANYTOOL_1MMDEEP_LABELS_S
 10
1101.532504
 20
88.549722
 30
0.000000
 11
1086.875361
 21
88.549722
 31
0.000000
  0
POLYLINE
  8
1_ANYTOOL_1MMDEEP_LABELS_S
 66
1
 10
0.000000
 20
0.000000
 30
0.000000
 70
0
  0
VERTEX
  8
1_ANYTOOL_1MMDEEP_LABELS_S
 10
1105.818218
 20
72.478294
 30
0.000000
  0
VERTEX
  8
1_ANYTOOL_1MMDEEP_LABELS_S
 10
1086.875361
 20
72.478294
 30
0.000000
  0
VERTEX
  8
1_ANYTOOL_1MMDEEP_LABELS_S
 10
1086.875361
 20
102.478294
 30
0.000000
  0
VERTEX
  8
1_ANYTOOL_1MMDEEP_LABELS_S
 10
1104.703932
 20
102.478294
 30
0.000000
  0
SEQEND
  8
1_ANYTOOL_1MMDEEP_LABELS_S
  0
LINE
  8
1_ANYTOOL_1MMDEEP_LABELS_S
 10
1083.446789
 20
102.006865
 30
0.000000
 11
1066.261075
 21
71.235436
 31
0.000000
  0
POLYLINE
  8
1_ANYTOOL_1MMDEEP_LABELS_S
 66
1
 10
0.000000
 20
0.000000
 30
0.000000
 70
0
  0
VERTEX
  8
1_ANYTOOL_1MMDEEP_LABELS_S
 10
1060.732504
 20
72.478294
 30
0.000000
  0
VERTEX
  8
1_ANYTOOL_1MMDEEP_LABELS_S
 10
1060.732504
 20
102.521151
 30
0.000000
 42
-0.057478
  0
VERTEX
  8
1_ANYTOOL_1MMDEEP_LABELS_S
 10
1060.468480
 20
101.428183
 30
0.000000
 42
-0.075801
  0
VERTEX
  8
1_ANYTOOL_1MMDEEP_LABELS_S
 10
1059.928932
 20
100.447936
 30
0.000000
 42
-0.075474
  0
VERTEX
  8
1_ANYTOOL_1MMDEEP_LABELS_S
 10
1059.113480
 20
99.664062
 30
0.000000
 42
-0.055107
  0
VERTEX
  8
1_ANYTOOL_1MMDEEP_LABELS_S
 10
1058.118218
 20
99.114008
 30
0.000000
 42
-0.039607
  0
VERTEX
  8
1_ANYTOOL_1MMDEEP_LABELS_S
 10
1055.975977
 20
98.414496
 30
0.000000
 42
-0.059180
  0
VERTEX
  8
1_ANYTOOL_1MMDEEP_LABELS_S
 10
1053.746789
 20
98.149722
 30
0.000000
  0
SEQEND
  8
1_ANYTOOL_1MMDEEP_LABELS_S
  0
LINE
  8
1_ANYTOOL_1MMDEEP_LABELS_S
 10
1048.603932
 20
86.364008
 30
0.000000
 11
1039.818218
 21
86.278294
 31
0.000000
  0
POLYLINE
  8
1_ANYTOOL_1MMDEEP_LABELS_S
 66
1
 10
0.000000
 20
0.000000
 30
0.000000
 70
0
  0
VERTEX
  8
1_ANYTOOL_1MMDEEP_LABELS_S
 10
1035.789646
 20
97.892579
 30
0.000000
 42
0.071867
  0
VERTEX
  8
1_ANYTOOL_1MMDEEP_LABELS_S
 10
1035.596533
 20
99.229186
 30
0.000000
 42
0.100684
  0
VERTEX
  8
1_ANYTOOL_1MMDEEP_LABELS_S
 10
1034.970004
 20
100.410436
 30
0.000000
 42
0.047558
  0
VERTEX
  8
1_ANYTOOL_1MMDEEP_LABELS_S
 10
1034.495450
 20
100.886887
 30
0.000000
 42
0.038563
  0
VERTEX
  8
1_ANYTOOL_1MMDEEP_LABELS_S
 10
1033.945450
 20
101.275615
 30
0.000000
 42
0.037928
  0
VERTEX
  8
1_ANYTOOL_1MMDEEP_LABELS_S
 10
1033.248262
 20
101.623083
 30
0.000000
 42
0.026634
  0
VERTEX
  8
1_ANYTOOL_1MMDEEP_LABELS_S
 10
1032.511075
 20
101.878294
 30
0.000000
 42
0.028461
  0
VERTEX
  8
1_ANYTOOL_1MMDEEP_LABELS_S
 10
1029.487742
 20
102.564276
 30
0.000000
 42
0.041577
  0
VERTEX
  8
1_ANYTOOL_1MMDEEP_LABELS_S
 10
1026.403932
 20
102.821151
 30
0.000000
 42
0.036938
  0
VERTEX
  8
1_ANYTOOL_1MMDEEP_LABELS_S
 10
1024.901572
 20
102.710011
 30
0.000000
 42
0.041531
  0
VERTEX
  8
1_ANYTOOL_1MMDEEP_LABELS_S
 10
1023.436075
 20
102.365794
 30
0.000000
 42
0.041583
  0
VERTEX
  8
1_ANYTOOL_1MMDEEP_LABELS_S
 10
1022.058698
 20
101.788585
 30
0.000000
 42
0.038125
  0
VERTEX
  8
1_ANYTOOL_1MMDEEP_LABELS_S
 10
1020.789646
 20
100.999722
 30
0.000000
 42
0.057611
  0
VERTEX
  8
1_ANYTOOL_1MMDEEP_LABELS_S
 10
1019.719494
 20
100.007818
 30
0.000000
 42
0.065808
  0
VERTEX
  8
1_ANYTOOL_1MMDEEP_LABELS_S
 10
1018.925361
 20
98.787222
 30
0.000000
 42
0.064690
  0
VERTEX
  8
1_ANYTOOL_1MMDEEP_LABELS_S
 10
1018.447865
 20
97.327667
 30
0.000000
 42
0.046778
  0
VERTEX
  8
1_ANYTOOL_1MMDEEP_LABELS_S
 10
1018.303932
 20
95.792579
 30
0.000000
 42
0.052235
  0
VERTEX
  8
1_ANYTOOL_1MMDEEP_LABELS_S
 10
1018.466288
 20
94.242737
 30
0.000000
 42
0.075448
  0
VERTEX
  8
1_ANYTOOL_1MMDEEP_LABELS_S
 10
1019.011075
 20
92.792579
 30
0.000000
 42
0.076671
  0
VERTEX
  8
1_ANYTOOL_1MMDEEP_LABELS_S
 10
1019.927167
 20
91.619527
 30
0.000000
 42
0.061023
  0
VERTEX
  8
1_ANYTOOL_1MMDEEP_LABELS_S
 10
1021.132504
 20
90.735436
 30
0.000000
 42
0.021951
  0
VERTEX
  8
1_ANYTOOL_1MMDEEP_LABELS_S
 10
1024.161358
 20
89.208091
 30
0.000000
 42
0.018213
  0
VERTEX
  8
1_ANYTOOL_1MMDEEP_LABELS_S
 10
1027.303932
 20
87.928294
 30
0.000000
 42
-0.024050
  0
VERTEX
  8
1_ANYTOOL_1MMDEEP_LABELS_S
 10
1030.405417
 20
86.622831
 30
0.000000
 42
-0.029810
  0
VERTEX
  8
1_ANYTOOL_1MMDEEP_LABELS_S
 10
1033.346789
 20
84.992579
 30
0.000000
 42
-0.068439
  0
VERTEX
  8
1_ANYTOOL_1MMDEEP_LABELS_S
 10
1034.488091
 20
84.026649
 30
0.000000
 42
-0.079282
  0
VERTEX
  8
1_ANYTOOL_1MMDEEP_LABELS_S
 10
1035.296789
 20
82.774722
 30
0.000000
 42
-0.076308
  0
VERTEX
  8
1_ANYTOOL_1MMDEEP_LABELS_S
 10
1035.721789
 20
81.196040
 30
0.000000
 42
-0.047772
  0
VERTEX
  8
1_ANYTOOL_1MMDEEP_LABELS_S
 10
1035.746789
 20
79.549722
 30
0.000000
 42
-0.046243
  0
VERTEX
  8
1_ANYTOOL_1MMDEEP_LABELS_S
 10
1035.453555
 20
77.868763
 30
0.000000
 42
-0.063590
  0
VERTEX
  8
1_ANYTOOL_1MMDEEP_LABELS_S
 10
1034.803932
 20
76.297936
 30
0.000000
 42
-0.064671
  0
VERTEX
  8
1_ANYTOOL_1MMDEEP_LABELS_S
 10
1033.831108
 20
75.013748
 30
0.000000
 42
-0.057073
  0
VERTEX
  8
1_ANYTOOL_1MMDEEP_LABELS_S
 10
1032.575361
 20
73.999722
 30
0.000000
 42
-0.067522
  0
VERTEX
  8
1_ANYTOOL_1MMDEEP_LABELS_S
 10
1029.607052
 20
72.636812
 30
0.000000
 42
-0.070793
  0
VERTEX
  8
1_ANYTOOL_1MMDEEP_LABELS_S
 10
1026.382504
 20
72.135436
 30
0.000000
 42
-0.064027
  0
VERTEX
  8
1_ANYTOOL_1MMDEEP_LABELS_S
 10
1023.243488
 20
72.497952
 30
0.000000
 42
-0.070447
  0
VERTEX
  8
1_ANYTOOL_1MMDEEP_LABELS_S
 10
1020.318218
 20
73.678294
 30
0.000000
 42
-0.054374
  0
VERTEX
  8
1_ANYTOOL_1MMDEEP_LABELS_S
 10
1019.159801
 20
74.527926
 30
0.000000
 42
-0.074742
  0
VERTEX
  8
1_ANYTOOL_1MMDEEP_LABELS_S
 10
1018.261075
 20
75.639008
 30
0.000000
 42
-0.075199
  0
VERTEX
  8
1_ANYTOOL_1MMDEEP_LABELS_S
 10
1017.738068
 20
76.945386
 30
0.000000
 42
-0.057737
  0
VERTEX
  8
1_ANYTOOL_1MMDEEP_LABELS_S
 10
1017.575361
 20
78.349722
 30
0.000000
  0
SEQEND
  8
1_ANYTOOL_1MMDEEP_LABELS_S
  0
LINE
  8
1_ANYTOOL_1MMDEEP_LABELS_S
 10
1013.546789
 20
86.364008
 30
0.000000
 11
1004.761075
 21
86.278294
 31
0.000000
  0
POLYLINE
  8
1_ANYTOOL_1MMDEEP_LABELS_S
 66
1
 10
0.000000
 20
0.000000
 30
0.000000
 70
0
  0
VERTEX
  8
1_ANYTOOL_1MMDEEP_LABELS_S
 10
1000.903932
 20
94.978294
 30
0.000000
 42
0.059291
  0
VERTEX
  8
1_ANYTOOL_1MMDEEP_LABELS_S
 10
999.367771
 20
97.907710
 30
0.000000
 42
0.066881
  0
VERTEX
  8
1_ANYTOOL_1MMDEEP_LABELS_S
 10
997.153932
 20
100.356865
 30
0.000000
 42
0.045290
  0
VERTEX
  8
1_ANYTOOL_1MMDEEP_LABELS_S
 10
995.836946
 20
101.280742
 30
0.000000
 42
0.046757
  0
VERTEX
  8
1_ANYTOOL_1MMDEEP_LABELS_S
 10
994.373575
 20
101.947936
 30
0.000000
 42
0.046330
  0
VERTEX
  8
1_ANYTOOL_1MMDEEP_LABELS_S
 10
992.733663
 20
102.352268
 30
0.000000
 42
0.037303
  0
VERTEX
  8
1_ANYTOOL_1MMDEEP_LABELS_S
 10
991.046789
 20
102.478294
 30
0.000000
 42
0.054828
  0
VERTEX
  8
1_ANYTOOL_1MMDEEP_LABELS_S
 10
988.541149
 20
102.202708
 30
0.000000
 42
0.073548
  0
VERTEX
  8
1_ANYTOOL_1MMDEEP_LABELS_S
 10
986.198575
 20
101.305079
 30
0.000000
 42
0.073729
  0
VERTEX
  8
1_ANYTOOL_1MMDEEP_LABELS_S
 10
984.229253
 20
99.776846
 30
0.000000
 42
0.056205
  0
VERTEX
  8
1_ANYTOOL_1MMDEEP_LABELS_S
 10
982.711075
 20
97.785436
 30
0.000000
 42
0.033355
  0
VERTEX
  8
1_ANYTOOL_1MMDEEP_LABELS_S
 10
981.489906
 20
95.395561
 30
0.000000
 42
0.034965
  0
VERTEX
  8
1_ANYTOOL_1MMDEEP_LABELS_S
 10
980.605718
 20
92.862222
 30
0.000000
 42
0.034911
  0
VERTEX
  8
1_ANYTOOL_1MMDEEP_LABELS_S
 10
980.075690
 20
90.194215
 30
0.000000
 42
0.031589
  0
VERTEX
  8
1_ANYTOOL_1MMDEEP_LABELS_S
 10
979.903932
 20
87.478294
 30
0.000000
 42
0.032085
  0
VERTEX
  8
1_ANYTOOL_1MMDEEP_LABELS_S
 10
980.078435
 20
84.761665
 30
0.000000
 42
0.035383
  0
VERTEX
  8
1_ANYTOOL_1MMDEEP_LABELS_S
 10
980.616432
 20
82.094365
 30
0.000000
 42
0.035431
  0
VERTEX
  8
1_ANYTOOL_1MMDEEP_LABELS_S
 10
981.514921
 20
79.559208
 30
0.000000
 42
0.033598
  0
VERTEX
  8
1_ANYTOOL_1MMDEEP_LABELS_S
 10
982.753932
 20
77.171151
 30
0.000000
 42
0.058628
  0
VERTEX
  8
1_ANYTOOL_1MMDEEP_LABELS_S
 10
984.316133
 20
75.170266
 30
0.000000
 42
0.073381
  0
VERTEX
  8
1_ANYTOOL_1MMDEEP_LABELS_S
 10
986.337861
 20
73.651508
 30
0.000000
 42
0.072539
  0
VERTEX
  8
1_ANYTOOL_1MMDEEP_LABELS_S
 10
988.783834
 20
72.750454
 30
0.000000
 42
0.052080
  0
VERTEX
  8
1_ANYTOOL_1MMDEEP_LABELS_S
 10
991.389646
 20
72.478294
 30
0.000000
 42
0.033243
  0
VERTEX
  8
1_ANYTOOL_1MMDEEP_LABELS_S
 10
992.831021
 20
72.574230
 30
0.000000
 42
0.042283
  0
VERTEX
  8
1_ANYTOOL_1MMDEEP_LABELS_S
 10
994.239646
 20
72.885436
 30
0.000000
 42
0.042766
  0
VERTEX
  8
1_ANYTOOL_1MMDEEP_LABELS_S
 10
995.482343
 20
73.392526
 30
0.000000
 42
0.044269
  0
VERTEX
  8
1_ANYTOOL_1MMDEEP_LABELS_S
 10
996.618218
 20
74.106865
 30
0.000000
 42
0.055485
  0
VERTEX
  8
1_ANYTOOL_1MMDEEP_LABELS_S
 10
998.630013
 20
76.021766
 30
0.000000
 42
0.045948
  0
VERTEX
  8
1_ANYTOOL_1MMDEEP_LABELS_S
 10
1000.218218
 20
78.306865
 30
0.000000
  0
SEQEND
  8
1_ANYTOOL_1MMDEEP_LABELS_S
  0
POLYLINE
  8
5_ANYTOOL_HALF_MILL_9MM_IN
 66
1
 10
0.000000
 20
0.000000
 30
0.000000
 70
1
  0
VERTEX
  8
5_ANYTOOL_HALF_MILL_9MM_IN
 10
1882.953002
 20
129.740000
 30
0.000000
 42
0.999765
  0
VERTEX
  8
5_ANYTOOL_HALF_MILL_9MM_IN
 10
1925.453000
 20
129.750000
 30
0.000000
  0
VERTEX
  8
5_ANYTOOL_HALF_MILL_9MM_IN
 10
1925.453000
 20
136.000000
 30
0.000000
  0
VERTEX
  8
5_ANYTOOL_HALF_MILL_9MM_IN
 10
1882.953000
 20
136.000000
 30
0.000000
  0
SEQEND
  8
5_ANYTOOL_HALF_MILL_9MM_IN
  0
POLYLINE
  8
5_ANYTOOL_HALF_MILL_9MM_IN
 66
1
 10
0.000000
 20
0.000000
 30
0.000000
 70
1
  0
VERTEX
  8
5_ANYTOOL_HALF_MILL_9MM_IN
 10
1674.047002
 20
129.740000
 30
0.000000
 42
0.999765
  0
VERTEX
  8
5_ANYTOOL_HALF_MILL_9MM_IN
 10
1716.547000
 20
129.750000
 30
0.000000
  0
VERTEX
  8
5_ANYTOOL_HALF_MILL_9MM_IN
 10
1716.547000
 20
136.000000
 30
0.000000
  0
VERTEX
  8
5_ANYTOOL_HALF_MILL_9MM_IN
 10
1674.047000
 20
136.000000
 30
0.000000
  0
SEQEND
  8
5_ANYTOOL_HALF_MILL_9MM_IN
  0
POLYLINE
  8
5_ANYTOOL_HALF_MILL_9MM_IN
 66
1
 10
0.000000
 20
0.000000
 30
0.000000
 70
1
  0
VERTEX
  8
5_ANYTOOL_HALF_MILL_9MM_IN
 10
682.953000
 20
130.000000
 30
0.000000
  0
VERTEX
  8
5_ANYTOOL_HALF_MILL_9MM_IN
 10
682.953000
 20
129.750000
 30
0.000000
 42
1.000000
  0
VERTEX
  8
5_ANYTOOL_HALF_MILL_9MM_IN
 10
725.453000
 20
129.750000
 30
0.000000
  0
VERTEX
  8
5_ANYTOOL_HALF_MILL_9MM_IN
 10
725.453000
 20
136.000000
 30
0.000000
  0
VERTEX
  8
5_ANYTOOL_HALF_MILL_9MM_IN
 10
682.953000
 20
136.000000
 30
0.000000
  0
SEQEND
  8
5_ANYTOOL_HALF_MILL_9MM_IN
  0
POLYLINE
  8
5_ANYTOOL_HALF_MILL_9MM_IN
 66
1
 10
0.000000
 20
0.000000
 30
0.000000
 70
1
  0
VERTEX
  8
5_ANYTOOL_HALF_MILL_9MM_IN
 10
474.047002
 20
129.740000
 30
0.000000
 42
0.999765
  0
VERTEX
  8
5_ANYTOOL_HALF_MILL_9MM_IN
 10
516.547000
 20
129.750000
 30
0.000000
  0
VERTEX
  8
5_ANYTOOL_HALF_MILL_9MM_IN
 10
516.547000
 20
136.000000
 30
0.000000
  0
VERTEX
  8
5_ANYTOOL_HALF_MILL_9MM_IN
 10
474.047000
 20
136.000000
 30
0.000000
  0
SEQEND
  8
5_ANYTOOL_HALF_MILL_9MM_IN
  0
POLYLINE
  8
5_ANYTOOL_HALF_MILL_9MM_IN
 66
1
 10
0.000000
 20
0.000000
 30
0.000000
 70
1
  0
VERTEX
  8
5_ANYTOOL_HALF_MILL_9MM_IN
 10
1282.953002
 20
129.740000
 30
0.000000
 42
0.999765
  0
VERTEX
  8
5_ANYTOOL_HALF_MILL_9MM_IN
 10
1325.453000
 20
129.750000
 30
0.000000
  0
VERTEX
  8
5_ANYTOOL_HALF_MILL_9MM_IN
 10
1325.453000
 20
136.000000
 30
0.000000
  0
VERTEX
  8
5_ANYTOOL_HALF_MILL_9MM_IN
 10
1282.953000
 20
136.000000
 30
0.000000
  0
SEQEND
  8
5_ANYTOOL_HALF_MILL_9MM_IN
  0
POLYLINE
  8
5_ANYTOOL_HALF_MILL_9MM_IN
 66
1
 10
0.000000
 20
0.000000
 30
0.000000
 70
1
  0
VERTEX
  8
5_ANYTOOL_HALF_MILL_9MM_IN
 10
1074.047000
 20
130.000000
 30
0.000000
  0
VERTEX
  8
5_ANYTOOL_HALF_MILL_9MM_IN
 10
1074.047000
 20
129.750000
 30
0.000000
 42
1.000000
  0
VERTEX
  8
5_ANYTOOL_HALF_MILL_9MM_IN
 10
1116.547000
 20
129.750000
 30
0.000000
  0
VERTEX
  8
5_ANYTOOL_HALF_MILL_9MM_IN
 10
1116.547000
 20
136.000000
 30
0.000000
  0
VERTEX
  8
5_ANYTOOL_HALF_MILL_9MM_IN
 10
1074.047000
 20
136.000000
 30
0.000000
  0
SEQEND
  8
5_ANYTOOL_HALF_MILL_9MM_IN
  0
POLYLINE
  8
3_ANYTOOL_CUTTHROUGH_INSID
 66
1
 10
0.000000
 20
0.000000
 30
0.000000
 70
1
  0
VERTEX
  8
3_ANYTOOL_CUTTHROUGH_INSID
 10
2034.750000
 20
8.500000
 30
0.000000
  0
VERTEX
  8
3_ANYTOOL_CUTTHROUGH_INSID
 10
2060.490349
 20
8.500000
 30
0.000000
 42
0.122630
  0
VERTEX
  8
3_ANYTOOL_CUTTHROUGH_INSID
 10
2062.145440
 20
8.912125
 30
0.000000
 42
0.106401
  0
VERTEX
  8
3_ANYTOOL_CUTTHROUGH_INSID
 10
2063.459615
 20
10.019238
 30
0.000000
 42
0.091270
  0
VERTEX
  8
3_ANYTOOL_CUTTHROUGH_INSID
 10
2064.246664
 20
11.543392
 30
0.000000
 42
0.148392
  0
VERTEX
  8
3_ANYTOOL_CUTTHROUGH_INSID
 10
2064.246664
 20
14.956608
 30
0.000000
 42
0.091270
  0
VERTEX
  8
3_ANYTOOL_CUTTHROUGH_INSID
 10
2063.459615
 20
16.480762
 30
0.000000
 42
0.106401
  0
VERTEX
  8
3_ANYTOOL_CUTTHROUGH_INSID
 10
2062.145440
 20
17.587875
 30
0.000000
 42
0.122630
  0
VERTEX
  8
3_ANYTOOL_CUTTHROUGH_INSID
 10
2060.490349
 20
18.000000
 30
0.000000
  0
VERTEX
  8
3_ANYTOOL_CUTTHROUGH_INSID
 10
2034.750000
 20
18.000000
 30
0.000000
 42
1.000000
  0
SEQEND
  8
3_ANYTOOL_CUTTHROUGH_INSID
  0
POLYLINE
  8
3_ANYTOOL_CUTTHROUGH_INSID
 66
1
 10
0.000000
 20
0.000000
 30
0.000000
 70
1
  0
VERTEX
  8
3_ANYTOOL_CUTTHROUGH_INSID
 10
290.500000
 20
105.544253
 30
0.000000
  0
VERTEX
  8
3_ANYTOOL_CUTTHROUGH_INSID
 10
290.500000
 20
80.044253
 30
0.000000
  0
VERTEX
  8
3_ANYTOOL_CUTTHROUGH_INSID
 10
284.500000
 20
80.044253
 30
0.000000
  0
VERTEX
  8
3_ANYTOOL_CUTTHROUGH_INSID
 10
284.500000
 20
67.544253
 30
0.000000
  0
VERTEX
  8
3_ANYTOOL_CUTTHROUGH_INSID
 10
315.000000
 20
67.544253
 30
0.000000
  0
VERTEX
  8
3_ANYTOOL_CUTTHROUGH_INSID
 10
315.000000
 20
80.044253
 30
0.000000
  0
VERTEX
  8
3_ANYTOOL_CUTTHROUGH_INSID
 10
309.000000
 20
80.044253
 30
0.000000
  0
VERTEX
  8
3_ANYTOOL_CUTTHROUGH_INSID
 10
309.000000
 20
105.544253
 30
0.000000
  0
VERTEX
  8
3_ANYTOOL_CUTTHROUGH_INSID
 10
315.000000
 20
105.544253
 30
0.000000
  0
VERTEX
  8
3_ANYTOOL_CUTTHROUGH_INSID
 10
315.000000
 20
118.044253
 30
0.000000
  0
VERTEX
  8
3_ANYTOOL_CUTTHROUGH_INSID
 10
284.500000
 20
118.044253
 30
0.000000
  0
VERTEX
  8
3_ANYTOOL_CUTTHROUGH_INSID
 10
284.500000
 20
105.544253
 30
0.000000
  0
SEQEND
  8
3_ANYTOOL_CUTTHROUGH_INSID
  0
POLYLINE
  8
3_ANYTOOL_CUTTHROUGH_INSID
 66
1
 10
0.000000
 20
0.000000
 30
0.000000
 70
1
  0
VERTEX
  8
3_ANYTOOL_CUTTHROUGH_INSID
 10
274.750000
 20
8.500000
 30
0.000000
  0
VERTEX
  8
3_ANYTOOL_CUTTHROUGH_INSID
 10
324.750000
 20
8.500000
 30
0.000000
 42
1.000000
  0
VERTEX
  8
3_ANYTOOL_CUTTHROUGH_INSID
 10
324.750000
 20
18.000000
 30
0.000000
  0
VERTEX
  8
3_ANYTOOL_CUTTHROUGH_INSID
 10
274.750000
 20
18.000000
 30
0.000000
 42
1.000000
  0
SEQEND
  8
3_ANYTOOL_CUTTHROUGH_INSID
  0
POLYLINE
  8
3_ANYTOOL_CUTTHROUGH_INSID
 66
1
 10
0.000000
 20
0.000000
 30
0.000000
 70
1
  0
VERTEX
  8
3_ANYTOOL_CUTTHROUGH_INSID
 10
1490.500000
 20
105.544253
 30
0.000000
  0
VERTEX
  8
3_ANYTOOL_CUTTHROUGH_INSID
 10
1490.500000
 20
80.044253
 30
0.000000
  0
VERTEX
  8
3_ANYTOOL_CUTTHROUGH_INSID
 10
1484.500000
 20
80.044253
 30
0.000000
  0
VERTEX
  8
3_ANYTOOL_CUTTHROUGH_INSID
 10
1484.500000
 20
67.544253
 30
0.000000
  0
VERTEX
  8
3_ANYTOOL_CUTTHROUGH_INSID
 10
1515.000000
 20
67.544253
 30
0.000000
  0
VERTEX
  8
3_ANYTOOL_CUTTHROUGH_INSID
 10
1515.000000
 20
80.044253
 30
0.000000
  0
VERTEX
  8
3_ANYTOOL_CUTTHROUGH_INSID
 10
1509.000000
 20
80.044253
 30
0.000000
  0
VERTEX
  8
3_ANYTOOL_CUTTHROUGH_INSID
 10
1509.000000
 20
105.544253
 30
0.000000
  0
VERTEX
  8
3_ANYTOOL_CUTTHROUGH_INSID
 10
1515.000000
 20
105.544253
 30
0.000000
  0
VERTEX
  8
3_ANYTOOL_CUTTHROUGH_INSID
 10
1515.000000
 20
118.044253
 30
0.000000
  0
VERTEX
  8
3_ANYTOOL_CUTTHROUGH_INSID
 10
1484.500000
 20
118.044253
 30
0.000000
  0
VERTEX
  8
3_ANYTOOL_CUTTHROUGH_INSID
 10
1484.500000
 20
105.544253
 30
0.000000
  0
SEQEND
  8
3_ANYTOOL_CUTTHROUGH_INSID
  0
POLYLINE
  8
3_ANYTOOL_CUTTHROUGH_INSID
 66
1
 10
0.000000
 20
0.000000
 30
0.000000
 70
1
  0
VERTEX
  8
3_ANYTOOL_CUTTHROUGH_INSID
 10
1474.750000
 20
8.500000
 30
0.000000
  0
VERTEX
  8
3_ANYTOOL_CUTTHROUGH_INSID
 10
1524.750000
 20
8.500000
 30
0.000000
 42
1.000000
  0
VERTEX
  8
3_ANYTOOL_CUTTHROUGH_INSID
 10
1524.750000
 20
18.000000
 30
0.000000
  0
VERTEX
  8
3_ANYTOOL_CUTTHROUGH_INSID
 10
1474.750000
 20
18.000000
 30
0.000000
 42
1.000000
  0
SEQEND
  8
3_ANYTOOL_CUTTHROUGH_INSID
  0
POLYLINE
  8
3_ANYTOOL_CUTTHROUGH_INSID
 66
1
 10
0.000000
 20
0.000000
 30
0.000000
 70
1
  0
VERTEX
  8
3_ANYTOOL_CUTTHROUGH_INSID
 10
890.500000
 20
105.544253
 30
0.000000
  0
VERTEX
  8
3_ANYTOOL_CUTTHROUGH_INSID
 10
890.500000
 20
80.044253
 30
0.000000
  0
VERTEX
  8
3_ANYTOOL_CUTTHROUGH_INSID
 10
884.500000
 20
80.044253
 30
0.000000
  0
VERTEX
  8
3_ANYTOOL_CUTTHROUGH_INSID
 10
884.500000
 20
67.544253
 30
0.000000
  0
VERTEX
  8
3_ANYTOOL_CUTTHROUGH_INSID
 10
915.000000
 20
67.544253
 30
0.000000
  0
VERTEX
  8
3_ANYTOOL_CUTTHROUGH_INSID
 10
915.000000
 20
80.044253
 30
0.000000
  0
VERTEX
  8
3_ANYTOOL_CUTTHROUGH_INSID
 10
909.000000
 20
80.044253
 30
0.000000
  0
VERTEX
  8
3_ANYTOOL_CUTTHROUGH_INSID
 10
909.000000
 20
105.544253
 30
0.000000
  0
VERTEX
  8
3_ANYTOOL_CUTTHROUGH_INSID
 10
915.000000
 20
105.544253
 30
0.000000
  0
VERTEX
  8
3_ANYTOOL_CUTTHROUGH_INSID
 10
915.000000
 20
118.044253
 30
0.000000
  0
VERTEX
  8
3_ANYTOOL_CUTTHROUGH_INSID
 10
884.500000
 20
118.044253
 30
0.000000
  0
VERTEX
  8
3_ANYTOOL_CUTTHROUGH_INSID
 10
884.500000
 20
105.544253
 30
0.000000
  0
SEQEND
  8
3_ANYTOOL_CUTTHROUGH_INSID
  0
POLYLINE
  8
3_ANYTOOL_CUTTHROUGH_INSID
 66
1
 10
0.000000
 20
0.000000
 30
0.000000
 70
1
  0
VERTEX
  8
3_ANYTOOL_CUTTHROUGH_INSID
 10
874.750000
 20
8.500000
 30
0.000000
  0
VERTEX
  8
3_ANYTOOL_CUTTHROUGH_INSID
 10
924.750000
 20
8.500000
 30
0.000000
 42
1.000000
  0
VERTEX
  8
3_ANYTOOL_CUTTHROUGH_INSID
 10
924.750000
 20
18.000000
 30
0.000000
  0
VERTEX
  8
3_ANYTOOL_CUTTHROUGH_INSID
 10
874.750000
 20
18.000000
 30
0.000000
 42
1.000000
  0
SEQEND
  8
3_ANYTOOL_CUTTHROUGH_INSID
  0
POLYLINE
  8
3_ANYTOOL_CUTTHROUGH_INSID
 66
1
 10
0.000000
 20
0.000000
 30
0.000000
 70
1
  0
VERTEX
  8
3_ANYTOOL_CUTTHROUGH_INSID
 10
64.750000
 20
8.500000
 30
0.000000
 42
1.000000
  0
VERTEX
  8
3_ANYTOOL_CUTTHROUGH_INSID
 10
64.750000
 20
18.000000
 30
0.000000
  0
VERTEX
  8
3_ANYTOOL_CUTTHROUGH_INSID
 10
39.009651
 20
18.000000
 30
0.000000
 42
0.122630
  0
VERTEX
  8
3_ANYTOOL_CUTTHROUGH_INSID
 10
37.354560
 20
17.587875
 30
0.000000
 42
0.106401
  0
VERTEX
  8
3_ANYTOOL_CUTTHROUGH_INSID
 10
36.040385
 20
16.480762
 30
0.000000
 42
0.091270
  0
VERTEX
  8
3_ANYTOOL_CUTTHROUGH_INSID
 10
35.253336
 20
14.956608
 30
0.000000
 42
0.148392
  0
VERTEX
  8
3_ANYTOOL_CUTTHROUGH_INSID
 10
35.253336
 20
11.543392
 30
0.000000
 42
0.091270
  0
VERTEX
  8
3_ANYTOOL_CUTTHROUGH_INSID
 10
36.040385
 20
10.019238
 30
0.000000
 42
0.106401
  0
VERTEX
  8
3_ANYTOOL_CUTTHROUGH_INSID
 10
37.354560
 20
8.912125
 30
0.000000
 42
0.122630
  0
VERTEX
  8
3_ANYTOOL_CUTTHROUGH_INSID
 10
39.009651
 20
8.500000
 30
0.000000
  0
SEQEND
  8
3_ANYTOOL_CUTTHROUGH_INSID
  0
POLYLINE
  8
4_ANYTOOL_CUTTHROUGH_OUTSI
 66
1
 10
0.000000
 20
0.000000
 30
0.000000
 70
1
  0
VERTEX
  8
4_ANYTOOL_CUTTHROUGH_OUTSI
 10
0.000000
 20
33.500000
 30
0.000000
  0
VERTEX
  8
4_ANYTOOL_CUTTHROUGH_OUTSI
 10
0.000000
 20
0.000000
 30
0.000000
  0
VERTEX
  8
4_ANYTOOL_CUTTHROUGH_OUTSI
 10
99.500000
 20
0.000000
 30
0.000000
  0
VERTEX
  8
4_ANYTOOL_CUTTHROUGH_OUTSI
 10
99.500000
 20
23.750000
 30
0.000000
 42
-0.414214
  0
VERTEX
  8
4_ANYTOOL_CUTTHROUGH_OUTSI
 10
99.750000
 20
24.000000
 30
0.000000
  0
VERTEX
  8
4_ANYTOOL_CUTTHROUGH_OUTSI
 10
111.750000
 20
24.000000
 30
0.000000
 42
-0.414214
  0
VERTEX
  8
4_ANYTOOL_CUTTHROUGH_OUTSI
 10
112.000000
 20
23.750000
 30
0.000000
  0
VERTEX
  8
4_ANYTOOL_CUTTHROUGH_OUTSI
 10
112.000000
 20
18.000000
 30
0.000000
  0
VERTEX
  8
4_ANYTOOL_CUTTHROUGH_OUTSI
 10
137.500000
 20
18.000000
 30
0.000000
  0
VERTEX
  8
4_ANYTOOL_CUTTHROUGH_OUTSI
 10
137.500000
 20
23.750000
 30
0.000000
 42
-0.414214
  0
VERTEX
  8
4_ANYTOOL_CUTTHROUGH_OUTSI
 10
137.750000
 20
24.000000
 30
0.000000
  0
VERTEX
  8
4_ANYTOOL_CUTTHROUGH_OUTSI
 10
149.750000
 20
24.000000
 30
0.000000
  0
VERTEX
  8
4_ANYTOOL_CUTTHROUGH_OUTSI
 10
161.750000
 20
24.000000
 30
0.000000
 42
-0.414214
  0
VERTEX
  8
4_ANYTOOL_CUTTHROUGH_OUTSI
 10
162.000000
 20
23.750000
 30
0.000000
  0
VERTEX
  8
4_ANYTOOL_CUTTHROUGH_OUTSI
 10
162.000000
 20
18.000000
 30
0.000000
  0
VERTEX
  8
4_ANYTOOL_CUTTHROUGH_OUTSI
 10
187.500000
 20
18.000000
 30
0.000000
  0
VERTEX
  8
4_ANYTOOL_CUTTHROUGH_OUTSI
 10
187.500000
 20
23.750000
 30
0.000000
 42
-0.414214
  0
VERTEX
  8
4_ANYTOOL_CUTTHROUGH_OUTSI
 10
187.750000
 20
24.000000
 30
0.000000
  0
VERTEX
  8
4_ANYTOOL_CUTTHROUGH_OUTSI
 10
199.750000
 20
24.000000
 30
0.000000
 42
-0.414214
  0
VERTEX
  8
4_ANYTOOL_CUTTHROUGH_OUTSI
 10
200.000000
 20
23.750000
 30
0.000000
  0
VERTEX
  8
4_ANYTOOL_CUTTHROUGH_OUTSI
 10
200.000000
 20
0.000000
 30
0.000000
  0
VERTEX
  8
4_ANYTOOL_CUTTHROUGH_OUTSI
 10
399.500000
 20
0.000000
 30
0.000000
  0
VERTEX
  8
4_ANYTOOL_CUTTHROUGH_OUTSI
 10
399.500000
 20
23.750000
 30
0.000000
 42
-0.414214
  0
VERTEX
  8
4_ANYTOOL_CUTTHROUGH_OUTSI
 10
399.750000
 20
24.000000
 30
0.000000
  0
VERTEX
  8
4_ANYTOOL_CUTTHROUGH_OUTSI
 10
411.750000
 20
24.000000
 30
0.000000
 42
-0.414214
  0
VERTEX
  8
4_ANYTOOL_CUTTHROUGH_OUTSI
 10
412.000000
 20
23.750000
 30
0.000000
  0
VERTEX
  8
4_ANYTOOL_CUTTHROUGH_OUTSI
 10
412.000000
 20
18.000000
 30
0.000000
  0
VERTEX
  8
4_ANYTOOL_CUTTHROUGH_OUTSI
 10
437.500000
 20
18.000000
 30
0.000000
  0
VERTEX
  8
4_ANYTOOL_CUTTHROUGH_OUTSI
 10
437.500000
 20
23.750000
 30
0.000000
 42
-0.414214
  0
VERTEX
  8
4_ANYTOOL_CUTTHROUGH_OUTSI
 10
437.750000
 20
24.000000
 30
0.000000
  0
VERTEX
  8
4_ANYTOOL_CUTTHROUGH_OUTSI
 10
449.750000
 20
24.000000
 30
0.000000
 42
-0.414214
  0
VERTEX
  8
4_ANYTOOL_CUTTHROUGH_OUTSI
 10
450.000000
 20
23.750000
 30
0.000000
  0
VERTEX
  8
4_ANYTOOL_CUTTHROUGH_OUTSI
 10
450.000000
 20
0.000000
 30
0.000000
  0
VERTEX
  8
4_ANYTOOL_CUTTHROUGH_OUTSI
 10
574.500000
 20
0.000000
 30
0.000000
  0
VERTEX
  8
4_ANYTOOL_CUTTHROUGH_OUTSI
 10
574.500000
 20
23.750000
 30
0.000000
 42
-0.414214
  0
VERTEX
  8
4_ANYTOOL_CUTTHROUGH_OUTSI
 10
574.750000
 20
24.000000
 30
0.000000
  0
VERTEX
  8
4_ANYTOOL_CUTTHROUGH_OUTSI
 10
586.750000
 20
24.000000
 30
0.000000
 42
-0.414214
  0
VERTEX
  8
4_ANYTOOL_CUTTHROUGH_OUTSI
 10
587.000000
 20
23.750000
 30
0.000000
  0
VERTEX
  8
4_ANYTOOL_CUTTHROUGH_OUTSI
 10
587.000000
 20
18.000000
 30
0.000000
  0
VERTEX
  8
4_ANYTOOL_CUTTHROUGH_OUTSI
 10
612.500000
 20
18.000000
 30
0.000000
  0
VERTEX
  8
4_ANYTOOL_CUTTHROUGH_OUTSI
 10
612.500000
 20
23.750000
 30
0.000000
 42
-0.414214
  0
VERTEX
  8
4_ANYTOOL_CUTTHROUGH_OUTSI
 10
612.750000
 20
24.000000
 30
0.000000
  0
VERTEX
  8
4_ANYTOOL_CUTTHROUGH_OUTSI
 10
624.750000
 20
24.000000
 30
0.000000
 42
-0.414214
  0
VERTEX
  8
4_ANYTOOL_CUTTHROUGH_OUTSI
 10
625.000000
 20
23.750000
 30
0.000000
  0
VERTEX
  8
4_ANYTOOL_CUTTHROUGH_OUTSI
 10
625.000000
 20
0.000000
 30
0.000000
  0
VERTEX
  8
4_ANYTOOL_CUTTHROUGH_OUTSI
 10
749.500000
 20
0.000000
 30
0.000000
  0
VERTEX
  8
4_ANYTOOL_CUTTHROUGH_OUTSI
 10
749.500000
 20
23.750000
 30
0.000000
 42
-0.414214
  0
VERTEX
  8
4_ANYTOOL_CUTTHROUGH_OUTSI
 10
749.750000
 20
24.000000
 30
0.000000
  0
VERTEX
  8
4_ANYTOOL_CUTTHROUGH_OUTSI
 10
761.750000
 20
24.000000
 30
0.000000
 42
-0.414214
  0
VERTEX
  8
4_ANYTOOL_CUTTHROUGH_OUTSI
 10
762.000000
 20
23.750000
 30
0.000000
  0
VERTEX
  8
4_ANYTOOL_CUTTHROUGH_OUTSI
 10
762.000000
 20
18.000000
 30
0.000000
  0
VERTEX
  8
4_ANYTOOL_CUTTHROUGH_OUTSI
 10
787.500000
 20
18.000000
 30
0.000000
  0
VERTEX
  8
4_ANYTOOL_CUTTHROUGH_OUTSI
 10
787.500000
 20
23.750000
 30
0.000000
 42
-0.414214
  0
VERTEX
  8
4_ANYTOOL_CUTTHROUGH_OUTSI
 10
787.750000
 20
24.000000
 30
0.000000
  0
VERTEX
  8
4_ANYTOOL_CUTTHROUGH_OUTSI
 10
799.750000
 20
24.000000
 30
0.000000
 42
-0.414214
  0
VERTEX
  8
4_ANYTOOL_CUTTHROUGH_OUTSI
 10
800.000000
 20
23.750000
 30
0.000000
  0
VERTEX
  8
4_ANYTOOL_CUTTHROUGH_OUTSI
 10
800.000000
 20
0.000000
 30
0.000000
  0
VERTEX
  8
4_ANYTOOL_CUTTHROUGH_OUTSI
 10
999.500000
 20
0.000000
 30
0.000000
  0
VERTEX
  8
4_ANYTOOL_CUTTHROUGH_OUTSI
 10
999.500000
 20
23.750000
 30
0.000000
 42
-0.414214
  0
VERTEX
  8
4_ANYTOOL_CUTTHROUGH_OUTSI
 10
999.750000
 20
24.000000
 30
0.000000
  0
VERTEX
  8
4_ANYTOOL_CUTTHROUGH_OUTSI
 10
1011.750000
 20
24.000000
 30
0.000000
 42
-0.414214
  0
VERTEX
  8
4_ANYTOOL_CUTTHROUGH_OUTSI
 10
1012.000000
 20
23.750000
 30
0.000000
  0
VERTEX
  8
4_ANYTOOL_CUTTHROUGH_OUTSI
 10
1012.000000
 20
18.000000
 30
0.000000
  0
VERTEX
  8
4_ANYTOOL_CUTTHROUGH_OUTSI
 10
1037.500000
 20
18.000000
 30
0.000000
  0
VERTEX
  8
4_ANYTOOL_CUTTHROUGH_OUTSI
 10
1037.500000
 20
23.750000
 30
0.000000
 42
-0.414214
  0
VERTEX
  8
4_ANYTOOL_CUTTHROUGH_OUTSI
 10
1037.750000
 20
24.000000
 30
0.000000
  0
VERTEX
  8
4_ANYTOOL_CUTTHROUGH_OUTSI
 10
1049.750000
 20
24.000000
 30
0.000000
 42
-0.414214
  0
VERTEX
  8
4_ANYTOOL_CUTTHROUGH_OUTSI
 10
1050.000000
 20
23.750000
 30
0.000000
  0
VERTEX
  8
4_ANYTOOL_CUTTHROUGH_OUTSI
 10
1050.000000
 20
0.000000
 30
0.000000
  0
VERTEX
  8
4_ANYTOOL_CUTTHROUGH_OUTSI
 10
1174.500000
 20
0.000000
 30
0.000000
  0
VERTEX
  8
4_ANYTOOL_CUTTHROUGH_OUTSI
 10
1174.500000
 20
23.750000
 30
0.000000
 42
-0.414214
  0
VERTEX
  8
4_ANYTOOL_CUTTHROUGH_OUTSI
 10
1174.750000
 20
24.000000
 30
0.000000
  0
VERTEX
  8
4_ANYTOOL_CUTTHROUGH_OUTSI
 10
1186.750000
 20
24.000000
 30
0.000000
 42
-0.414214
  0
VERTEX
  8
4_ANYTOOL_CUTTHROUGH_OUTSI
 10
1187.000000
 20
23.750000
 30
0.000000
  0
VERTEX
  8
4_ANYTOOL_CUTTHROUGH_OUTSI
 10
1187.000000
 20
18.000000
 30
0.000000
  0
VERTEX
  8
4_ANYTOOL_CUTTHROUGH_OUTSI
 10
1212.500000
 20
18.000000
 30
0.000000
  0
VERTEX
  8
4_ANYTOOL_CUTTHROUGH_OUTSI
 10
1212.500000
 20
23.750000
 30
0.000000
 42
-0.414214
  0
VERTEX
  8
4_ANYTOOL_CUTTHROUGH_OUTSI
 10
1212.750000
 20
24.000000
 30
0.000000
  0
VERTEX
  8
4_ANYTOOL_CUTTHROUGH_OUTSI
 10
1224.750000
 20
24.000000
 30
0.000000
 42
-0.414214
  0
VERTEX
  8
4_ANYTOOL_CUTTHROUGH_OUTSI
 10
1225.000000
 20
23.750000
 30
0.000000
  0
VERTEX
  8
4_ANYTOOL_CUTTHROUGH_OUTSI
 10
1225.000000
 20
0.000000
 30
0.000000
  0
VERTEX
  8
4_ANYTOOL_CUTTHROUGH_OUTSI
 10
1349.500000
 20
0.000000
 30
0.000000
  0
VERTEX
  8
4_ANYTOOL_CUTTHROUGH_OUTSI
 10
1349.500000
 20
23.750000
 30
0.000000
 42
-0.414214
  0
VERTEX
  8
4_ANYTOOL_CUTTHROUGH_OUTSI
 10
1349.750000
 20
24.000000
 30
0.000000
  0
VERTEX
  8
4_ANYTOOL_CUTTHROUGH_OUTSI
 10
1361.750000
 20
24.000000
 30
0.000000
 42
-0.414214
  0
VERTEX
  8
4_ANYTOOL_CUTTHROUGH_OUTSI
 10
1362.000000
 20
23.750000
 30
0.000000
  0
VERTEX
  8
4_ANYTOOL_CUTTHROUGH_OUTSI
 10
1362.000000
 20
18.000000
 30
0.000000
  0
VERTEX
  8
4_ANYTOOL_CUTTHROUGH_OUTSI
 10
1387.500000
 20
18.000000
 30
0.000000
  0
VERTEX
  8
4_ANYTOOL_CUTTHROUGH_OUTSI
 10
1387.500000
 20
23.750000
 30
0.000000
 42
-0.414214
  0
VERTEX
  8
4_ANYTOOL_CUTTHROUGH_OUTSI
 10
1387.750000
 20
24.000000
 30
0.000000
  0
VERTEX
  8
4_ANYTOOL_CUTTHROUGH_OUTSI
 10
1399.750000
 20
24.000000
 30
0.000000
 42
-0.414214
  0
VERTEX
  8
4_ANYTOOL_CUTTHROUGH_OUTSI
 10
1400.000000
 20
23.750000
 30
0.000000
  0
VERTEX
  8
4_ANYTOOL_CUTTHROUGH_OUTSI
 10
1400.000000
 20
0.000000
 30
0.000000
  0
VERTEX
  8
4_ANYTOOL_CUTTHROUGH_OUTSI
 10
1599.500000
 20
0.000000
 30
0.000000
  0
VERTEX
  8
4_ANYTOOL_CUTTHROUGH_OUTSI
 10
1599.500000
 20
23.750000
 30
0.000000
 42
-0.414214
  0
VERTEX
  8
4_ANYTOOL_CUTTHROUGH_OUTSI
 10
1599.750000
 20
24.000000
 30
0.000000
  0
VERTEX
  8
4_ANYTOOL_CUTTHROUGH_OUTSI
 10
1611.750000
 20
24.000000
 30
0.000000
 42
-0.414214
  0
VERTEX
  8
4_ANYTOOL_CUTTHROUGH_OUTSI
 10
1612.000000
 20
23.750000
 30
0.000000
  0
VERTEX
  8
4_ANYTOOL_CUTTHROUGH_OUTSI
 10
1612.000000
 20
18.000000
 30
0.000000
  0
VERTEX
  8
4_ANYTOOL_CUTTHROUGH_OUTSI
 10
1637.500000
 20
18.000000
 30
0.000000
  0
VERTEX
  8
4_ANYTOOL_CUTTHROUGH_OUTSI
 10
1637.500000
 20
23.750000
 30
0.000000
 42
-0.414214
  0
VERTEX
  8
4_ANYTOOL_CUTTHROUGH_OUTSI
 10
1637.750000
 20
24.000000
 30
0.000000
  0
VERTEX
  8
4_ANYTOOL_CUTTHROUGH_OUTSI
 10
1649.750000
 20
24.000000
 30
0.000000
 42
-0.414214
  0
VERTEX
  8
4_ANYTOOL_CUTTHROUGH_OUTSI
 10
1650.000000
 20
23.750000
 30
0.000000
  0
VERTEX
  8
4_ANYTOOL_CUTTHROUGH_OUTSI
 10
1650.000000
 20
0.000000
 30
0.000000
  0
VERTEX
  8
4_ANYTOOL_CUTTHROUGH_OUTSI
 10
1774.500000
 20
0.000000
 30
0.000000
  0
VERTEX
  8
4_ANYTOOL_CUTTHROUGH_OUTSI
 10
1774.500000
 20
23.750000
 30
0.000000
 42
-0.414214
  0
VERTEX
  8
4_ANYTOOL_CUTTHROUGH_OUTSI
 10
1774.750000
 20
24.000000
 30
0.000000
  0
VERTEX
  8
4_ANYTOOL_CUTTHROUGH_OUTSI
 10
1786.750000
 20
24.000000
 30
0.000000
 42
-0.414214
  0
VERTEX
  8
4_ANYTOOL_CUTTHROUGH_OUTSI
 10
1787.000000
 20
23.750000
 30
0.000000
  0
VERTEX
  8
4_ANYTOOL_CUTTHROUGH_OUTSI
 10
1787.000000
 20
18.000000
 30
0.000000
  0
VERTEX
  8
4_ANYTOOL_CUTTHROUGH_OUTSI
 10
1812.500000
 20
18.000000
 30
0.000000
  0
VERTEX
  8
4_ANYTOOL_CUTTHROUGH_OUTSI
 10
1812.500000
 20
23.750000
 30
0.000000
 42
-0.414214
  0
VERTEX
  8
4_ANYTOOL_CUTTHROUGH_OUTSI
 10
1812.750000
 20
24.000000
 30
0.000000
  0
VERTEX
  8
4_ANYTOOL_CUTTHROUGH_OUTSI
 10
1824.750000
 20
24.000000
 30
0.000000
 42
-0.414214
  0
VERTEX
  8
4_ANYTOOL_CUTTHROUGH_OUTSI
 10
1825.000000
 20
23.750000
 30
0.000000
  0
VERTEX
  8
4_ANYTOOL_CUTTHROUGH_OUTSI
 10
1825.000000
 20
0.000000
 30
0.000000
  0
VERTEX
  8
4_ANYTOOL_CUTTHROUGH_OUTSI
 10
1949.500000
 20
0.000000
 30
0.000000
  0
VERTEX
  8
4_ANYTOOL_CUTTHROUGH_OUTSI
 10
1949.500000
 20
23.750000
 30
0.000000
 42
-0.414214
  0
VERTEX
  8
4_ANYTOOL_CUTTHROUGH_OUTSI
 10
1949.750000
 20
24.000000
 30
0.000000
  0
VERTEX
  8
4_ANYTOOL_CUTTHROUGH_OUTSI
 10
1961.750000
 20
24.000000
 30
0.000000
 42
-0.414214
  0
VERTEX
  8
4_ANYTOOL_CUTTHROUGH_OUTSI
 10
1962.000000
 20
23.750000
 30
0.000000
  0
VERTEX
  8
4_ANYTOOL_CUTTHROUGH_OUTSI
 10
1962.000000
 20
18.000000
 30
0.000000
  0
VERTEX
  8
4_ANYTOOL_CUTTHROUGH_OUTSI
 10
1987.500000
 20
18.000000
 30
0.000000
  0
VERTEX
  8
4_ANYTOOL_CUTTHROUGH_OUTSI
 10
1987.500000
 20
23.750000
 30
0.000000
 42
-0.414214
  0
VERTEX
  8
4_ANYTOOL_CUTTHROUGH_OUTSI
 10
1987.750000
 20
24.000000
 30
0.000000
  0
VERTEX
  8
4_ANYTOOL_CUTTHROUGH_OUTSI
 10
1999.750000
 20
24.000000
 30
0.000000
 42
-0.414214
  0
VERTEX
  8
4_ANYTOOL_CUTTHROUGH_OUTSI
 10
2000.000000
 20
23.750000
 30
0.000000
  0
VERTEX
  8
4_ANYTOOL_CUTTHROUGH_OUTSI
 10
2000.000000
 20
0.000000
 30
0.000000
  0
VERTEX
  8
4_ANYTOOL_CUTTHROUGH_OUTSI
 10
2099.500000
 20
0.000000
 30
0.000000
  0
VERTEX
  8
4_ANYTOOL_CUTTHROUGH_OUTSI
 10
2099.500000
 20
33.500000
 30
0.000000
  0
VERTEX
  8
4_ANYTOOL_CUTTHROUGH_OUTSI
 10
2075.750000
 20
33.500000
 30
0.000000
 42
-0.414214
  0
VERTEX
  8
4_ANYTOOL_CUTTHROUGH_OUTSI
 10
2075.500000
 20
33.750000
 30
0.000000
  0
VERTEX
  8
4_ANYTOOL_CUTTHROUGH_OUTSI
 10
2075.500000
 20
45.750000
 30
0.000000
 42
-0.414214
  0
VERTEX
  8
4_ANYTOOL_CUTTHROUGH_OUTSI
 10
2075.750000
 20
46.000000
 30
0.000000
  0
VERTEX
  8
4_ANYTOOL_CUTTHROUGH_OUTSI
 10
2081.500000
 20
46.000000
 30
0.000000
  0
VERTEX
  8
4_ANYTOOL_CUTTHROUGH_OUTSI
 10
2081.500000
 20
53.589000
 30
0.000000
  0
VERTEX
  8
4_ANYTOOL_CUTTHROUGH_OUTSI
 10
2075.750000
 20
53.589000
 30
0.000000
 42
-0.414214
  0
VERTEX
  8
4_ANYTOOL_CUTTHROUGH_OUTSI
 10
2075.500000
 20
53.839000
 30
0.000000
  0
VERTEX
  8
4_ANYTOOL_CUTTHROUGH_OUTSI
 10
2075.500000
 20
65.839000
 30
0.000000
 42
-0.414214
  0
VERTEX
  8
4_ANYTOOL_CUTTHROUGH_OUTSI
 10
2075.750000
 20
66.089000
 30
0.000000
  0
VERTEX
  8
4_ANYTOOL_CUTTHROUGH_OUTSI
 10
2099.500000
 20
66.089000
 30
0.000000
  0
VERTEX
  8
4_ANYTOOL_CUTTHROUGH_OUTSI
 10
2099.500000
 20
103.500000
 30
0.000000
  0
VERTEX
  8
4_ANYTOOL_CUTTHROUGH_OUTSI
 10
2075.750000
 20
103.500000
 30
0.000000
 42
-0.414214
  0
VERTEX
  8
4_ANYTOOL_CUTTHROUGH_OUTSI
 10
2075.500000
 20
103.750000
 30
0.000000
  0
VERTEX
  8
4_ANYTOOL_CUTTHROUGH_OUTSI
 10
2075.500000
 20
115.750000
 30
0.000000
 42
-0.414214
  0
VERTEX
  8
4_ANYTOOL_CUTTHROUGH_OUTSI
 10
2075.750000
 20
116.000000
 30
0.000000
  0
VERTEX
  8
4_ANYTOOL_CUTTHROUGH_OUTSI
 10
2081.500000
 20
116.000000
 30
0.000000
  0
VERTEX
  8
4_ANYTOOL_CUTTHROUGH_OUTSI
 10
2081.500000
 20
126.500000
 30
0.000000
  0
VERTEX
  8
4_ANYTOOL_CUTTHROUGH_OUTSI
 10
2075.750000
 20
126.500000
 30
0.000000
 42
-0.414214
  0
VERTEX
  8
4_ANYTOOL_CUTTHROUGH_OUTSI
 10
2075.500000
 20
126.750000
 30
0.000000
  0
VERTEX
  8
4_ANYTOOL_CUTTHROUGH_OUTSI
 10
2075.500000
 20
138.750000
 30
0.000000
 42
-0.414214
  0
VERTEX
  8
4_ANYTOOL_CUTTHROUGH_OUTSI
 10
2075.750000
 20
139.000000
 30
0.000000
  0
VERTEX
  8
4_ANYTOOL_CUTTHROUGH_OUTSI
 10
2099.500000
 20
139.000000
 30
0.000000
  0
VERTEX
  8
4_ANYTOOL_CUTTHROUGH_OUTSI
 10
2099.500000
 20
167.500000
 30
0.000000
  0
VERTEX
  8
4_ANYTOOL_CUTTHROUGH_OUTSI
 10
2037.000000
 20
167.500000
 30
0.000000
  0
VERTEX
  8
4_ANYTOOL_CUTTHROUGH_OUTSI
 10
2037.000000
 20
161.750000
 30
0.000000
 42
-0.414214
  0
VERTEX
  8
4_ANYTOOL_CUTTHROUGH_OUTSI
 10
2036.750000
 20
161.500000
 30
0.000000
  0
VERTEX
  8
4_ANYTOOL_CUTTHROUGH_OUTSI
 10
2024.750000
 20
161.500000
 30
0.000000
 42
-0.414214
  0
VERTEX
  8
4_ANYTOOL_CUTTHROUGH_OUTSI
 10
2024.500000
 20
161.750000
 30
0.000000
  0
VERTEX
  8
4_ANYTOOL_CUTTHROUGH_OUTSI
 10
2024.500000
 20
185.500000
 30
0.000000
  0
VERTEX
  8
4_ANYTOOL_CUTTHROUGH_OUTSI
 10
1949.750000
 20
185.500000
 30
0.000000
  0
VERTEX
  8
4_ANYTOOL_CUTTHROUGH_OUTSI
 10
1932.308521
 20
185.500000
 30
0.000000
 42
0.061410
  0
VERTEX
  8
4_ANYTOOL_CUTTHROUGH_OUTSI
 10
1932.543431
 20
184.105130
 30
0.000000
  0
VERTEX
  8
4_ANYTOOL_CUTTHROUGH_OUTSI
 10
1949.438965
 20
135.832588
 30
0.000000
 42
-0.084368
  0
VERTEX
  8
4_ANYTOOL_CUTTHROUGH_OUTSI
 10
1949.453000
 20
135.750000
 30
0.000000
 42
-0.414214
  0
VERTEX
  8
4_ANYTOOL_CUTTHROUGH_OUTSI
 10
1943.203000
 20
129.500000
 30
0.000000
  0
VERTEX
  8
4_ANYTOOL_CUTTHROUGH_OUTSI
 10
1865.203000
 20
129.500000
 30
0.000000
 42
-0.414214
  0
VERTEX
  8
4_ANYTOOL_CUTTHROUGH_OUTSI
 10
1858.953000
 20
135.750000
 30
0.000000
 42
-0.084368
  0
VERTEX
  8
4_ANYTOOL_CUTTHROUGH_OUTSI
 10
1858.967035
 20
135.832588
 30
0.000000
  0
VERTEX
  8
4_ANYTOOL_CUTTHROUGH_OUTSI
 10
1875.866148
 20
184.116195
 30
0.000000
 42
0.061178
  0
VERTEX
  8
4_ANYTOOL_CUTTHROUGH_OUTSI
 10
1876.097563
 20
185.500000
 30
0.000000
  0
VERTEX
  8
4_ANYTOOL_CUTTHROUGH_OUTSI
 10
1825.000000
 20
185.500000
 30
0.000000
  0
VERTEX
  8
4_ANYTOOL_CUTTHROUGH_OUTSI
 10
1825.000000
 20
161.750000
 30
0.000000
 42
-0.414214
  0
VERTEX
  8
4_ANYTOOL_CUTTHROUGH_OUTSI
 10
1824.750000
 20
161.500000
 30
0.000000
  0
VERTEX
  8
4_ANYTOOL_CUTTHROUGH_OUTSI
 10
1812.750000
 20
161.500000
 30
0.000000
 42
-0.414214
  0
VERTEX
  8
4_ANYTOOL_CUTTHROUGH_OUTSI
 10
1812.500000
 20
161.750000
 30
0.000000
  0
VERTEX
  8
4_ANYTOOL_CUTTHROUGH_OUTSI
 10
1812.500000
 20
167.500000
 30
0.000000
  0
VERTEX
  8
4_ANYTOOL_CUTTHROUGH_OUTSI
 10
1787.000000
 20
167.500000
 30
0.000000
  0
VERTEX
  8
4_ANYTOOL_CUTTHROUGH_OUTSI
 10
1787.000000
 20
161.750000
 30
0.000000
 42
-0.414214
  0
VERTEX
  8
4_ANYTOOL_CUTTHROUGH_OUTSI
 10
1786.750000
 20
161.500000
 30
0.000000
  0
VERTEX
  8
4_ANYTOOL_CUTTHROUGH_OUTSI
 10
1774.750000
 20
161.500000
 30
0.000000
 42
-0.414214
  0
VERTEX
  8
4_ANYTOOL_CUTTHROUGH_OUTSI
 10
1774.500000
 20
161.750000
 30
0.000000
  0
VERTEX
  8
4_ANYTOOL_CUTTHROUGH_OUTSI
 10
1774.500000
 20
185.500000
 30
0.000000
  0
VERTEX
  8
4_ANYTOOL_CUTTHROUGH_OUTSI
 10
1723.402521
 20
185.500000
 30
0.000000
 42
0.061410
  0
VERTEX
  8
4_ANYTOOL_CUTTHROUGH_OUTSI
 10
1723.637431
 20
184.105130
 30
0.000000
  0
VERTEX
  8
4_ANYTOOL_CUTTHROUGH_OUTSI
 10
1740.532965
 20
135.832588
 30
0.000000
 42
-0.084368
  0
VERTEX
  8
4_ANYTOOL_CUTTHROUGH_OUTSI
 10
1740.547000
 20
135.750000
 30
0.000000
 42
-0.414214
  0
VERTEX
  8
4_ANYTOOL_CUTTHROUGH_OUTSI
 10
1734.297000
 20
129.500000
 30
0.000000
  0
VERTEX
  8
4_ANYTOOL_CUTTHROUGH_OUTSI
 10
1656.297000
 20
129.500000
 30
0.000000
 42
-0.414214
  0
VERTEX
  8
4_ANYTOOL_CUTTHROUGH_OUTSI
 10
1650.047000
 20
135.750000
 30
0.000000
 42
-0.084368
  0
VERTEX
  8
4_ANYTOOL_CUTTHROUGH_OUTSI
 10
1650.061035
 20
135.832588
 30
0.000000
  0
VERTEX
  8
4_ANYTOOL_CUTTHROUGH_OUTSI
 10
1666.960148
 20
184.116195
 30
0.000000
 42
0.061178
  0
VERTEX
  8
4_ANYTOOL_CUTTHROUGH_OUTSI
 10
1667.191563
 20
185.500000
 30
0.000000
  0
VERTEX
  8
4_ANYTOOL_CUTTHROUGH_OUTSI
 10
1620.000000
 20
185.500000
 30
0.000000
  0
VERTEX
  8
4_ANYTOOL_CUTTHROUGH_OUTSI
 10
1620.000000
 20
161.750000
 30
0.000000
 42
-0.414214
  0
VERTEX
  8
4_ANYTOOL_CUTTHROUGH_OUTSI
 10
1619.750000
 20
161.500000
 30
0.000000
  0
VERTEX
  8
4_ANYTOOL_CUTTHROUGH_OUTSI
 10
1607.750000
 20
161.500000
 30
0.000000
 42
-0.414214
  0
VERTEX
  8
4_ANYTOOL_CUTTHROUGH_OUTSI
 10
1607.500000
 20
161.750000
 30
0.000000
  0
VERTEX
  8
4_ANYTOOL_CUTTHROUGH_OUTSI
 10
1607.500000
 20
167.500000
 30
0.000000
  0
VERTEX
  8
4_ANYTOOL_CUTTHROUGH_OUTSI
 10
1549.500000
 20
167.500000
 30
0.000000
  0
VERTEX
  8
4_ANYTOOL_CUTTHROUGH_OUTSI
 10
1549.500000
 20
161.750000
 30
0.000000
 42
-0.414214
  0
VERTEX
  8
4_ANYTOOL_CUTTHROUGH_OUTSI
 10
1549.250000
 20
161.500000
 30
0.000000
  0
VERTEX
  8
4_ANYTOOL_CUTTHROUGH_OUTSI
 10
1537.250000
 20
161.500000
 30
0.000000
 42
-0.414214
  0
VERTEX
  8
4_ANYTOOL_CUTTHROUGH_OUTSI
 10
1537.000000
 20
161.750000
 30
0.000000
  0
VERTEX
  8
4_ANYTOOL_CUTTHROUGH_OUTSI
 10
1537.000000
 20
185.500000
 30
0.000000
  0
VERTEX
  8
4_ANYTOOL_CUTTHROUGH_OUTSI
 10
1462.500000
 20
185.500000
 30
0.000000
  0
VERTEX
  8
4_ANYTOOL_CUTTHROUGH_OUTSI
 10
1462.500000
 20
161.750000
 30
0.000000
 42
-0.414214
  0
VERTEX
  8
4_ANYTOOL_CUTTHROUGH_OUTSI
 10
1462.250000
 20
161.500000
 30
0.000000
  0
VERTEX
  8
4_ANYTOOL_CUTTHROUGH_OUTSI
 10
1450.250000
 20
161.500000
 30
0.000000
 42
-0.414214
  0
VERTEX
  8
4_ANYTOOL_CUTTHROUGH_OUTSI
 10
1450.000000
 20
161.750000
 30
0.000000
  0
VERTEX
  8
4_ANYTOOL_CUTTHROUGH_OUTSI
 10
1450.000000
 20
167.500000
 30
0.000000
  0
VERTEX
  8
4_ANYTOOL_CUTTHROUGH_OUTSI
 10
1392.000000
 20
167.500000
 30
0.000000
  0
VERTEX
  8
4_ANYTOOL_CUTTHROUGH_OUTSI
 10
1392.000000
 20
161.750000
 30
0.000000
 42
-0.414214
  0
VERTEX
  8
4_ANYTOOL_CUTTHROUGH_OUTSI
 10
1391.750000
 20
161.500000
 30
0.000000
  0
VERTEX
  8
4_ANYTOOL_CUTTHROUGH_OUTSI
 10
1379.750000
 20
161.500000
 30
0.000000
 42
-0.414214
  0
VERTEX
  8
4_ANYTOOL_CUTTHROUGH_OUTSI
 10
1379.500000
 20
161.750000
 30
0.000000
  0
VERTEX
  8
4_ANYTOOL_CUTTHROUGH_OUTSI
 10
1379.500000
 20
185.500000
 30
0.000000
  0
VERTEX
  8
4_ANYTOOL_CUTTHROUGH_OUTSI
 10
1332.308521
 20
185.500000
 30
0.000000
 42
0.061410
  0
VERTEX
  8
4_ANYTOOL_CUTTHROUGH_OUTSI
 10
1332.543431
 20
184.105130
 30
0.000000
  0
VERTEX
  8
4_ANYTOOL_CUTTHROUGH_OUTSI
 10
1349.438965
 20
135.832588
 30
0.000000
 42
-0.084368
  0
VERTEX
  8
4_ANYTOOL_CUTTHROUGH_OUTSI
 10
1349.453000
 20
135.750000
 30
0.000000
 42
-0.414214
  0
VERTEX
  8
4_ANYTOOL_CUTTHROUGH_OUTSI
 10
1343.203000
 20
129.500000
 30
0.000000
  0
VERTEX
  8
4_ANYTOOL_CUTTHROUGH_OUTSI
 10
1265.203000
 20
129.500000
 30
0.000000
 42
-0.414214
  0
VERTEX
  8
4_ANYTOOL_CUTTHROUGH_OUTSI
 10
1258.953000
 20
135.750000
 30
0.000000
 42
-0.084368
  0
VERTEX
  8
4_ANYTOOL_CUTTHROUGH_OUTSI
 10
1258.967035
 20
135.832588
 30
0.000000
  0
VERTEX
  8
4_ANYTOOL_CUTTHROUGH_OUTSI
 10
1275.866148
 20
184.116195
 30
0.000000
 42
0.061178
  0
VERTEX
  8
4_ANYTOOL_CUTTHROUGH_OUTSI
 10
1276.097563
 20
185.500000
 30
0.000000
  0
VERTEX
  8
4_ANYTOOL_CUTTHROUGH_OUTSI
 10
1225.000000
 20
185.500000
 30
0.000000
  0
VERTEX
  8
4_ANYTOOL_CUTTHROUGH_OUTSI
 10
1225.000000
 20
161.750000
 30
0.000000
 42
-0.414214
  0
VERTEX
  8
4_ANYTOOL_CUTTHROUGH_OUTSI
 10
1224.750000
 20
161.500000
 30
0.000000
  0
VERTEX
  8
4_ANYTOOL_CUTTHROUGH_OUTSI
 10
1212.750000
 20
161.500000
 30
0.000000
 42
-0.414214
  0
VERTEX
  8
4_ANYTOOL_CUTTHROUGH_OUTSI
 10
1212.500000
 20
161.750000
 30
0.000000
  0
VERTEX
  8
4_ANYTOOL_CUTTHROUGH_OUTSI
 10
1212.500000
 20
167.500000
 30
0.000000
  0
VERTEX
  8
4_ANYTOOL_CUTTHROUGH_OUTSI
 10
1187.000000
 20
167.500000
 30
0.000000
  0
VERTEX
  8
4_ANYTOOL_CUTTHROUGH_OUTSI
 10
1187.000000
 20
161.750000
 30
0.000000
 42
-0.414214
  0
VERTEX
  8
4_ANYTOOL_CUTTHROUGH_OUTSI
 10
1186.750000
 20
161.500000
 30
0.000000
  0
VERTEX
  8
4_ANYTOOL_CUTTHROUGH_OUTSI
 10
1174.750000
 20
161.500000
 30
0.000000
 42
-0.414214
  0
VERTEX
  8
4_ANYTOOL_CUTTHROUGH_OUTSI
 10
1174.500000
 20
161.750000
 30
0.000000
  0
VERTEX
  8
4_ANYTOOL_CUTTHROUGH_OUTSI
 10
1174.500000
 20
185.500000
 30
0.000000
  0
VERTEX
  8
4_ANYTOOL_CUTTHROUGH_OUTSI
 10
1123.402521
 20
185.500000
 30
0.000000
 42
0.061410
  0
VERTEX
  8
4_ANYTOOL_CUTTHROUGH_OUTSI
 10
1123.637431
 20
184.105130
 30
0.000000
  0
VERTEX
  8
4_ANYTOOL_CUTTHROUGH_OUTSI
 10
1140.532965
 20
135.832588
 30
0.000000
 42
-0.084368
  0
VERTEX
  8
4_ANYTOOL_CUTTHROUGH_OUTSI
 10
1140.547000
 20
135.750000
 30
0.000000
 42
-0.414214
  0
VERTEX
  8
4_ANYTOOL_CUTTHROUGH_OUTSI
 10
1134.297000
 20
129.500000
 30
0.000000
  0
VERTEX
  8
4_ANYTOOL_CUTTHROUGH_OUTSI
 10
1056.297000
 20
129.500000
 30
0.000000
 42
-0.414214
  0
VERTEX
  8
4_ANYTOOL_CUTTHROUGH_OUTSI
 10
1050.047000
 20
135.750000
 30
0.000000
 42
-0.084368
  0
VERTEX
  8
4_ANYTOOL_CUTTHROUGH_OUTSI
 10
1050.061035
 20
135.832588
 30
0.000000
  0
VERTEX
  8
4_ANYTOOL_CUTTHROUGH_OUTSI
 10
1066.960148
 20
184.116195
 30
0.000000
 42
0.061178
  0
VERTEX
  8
4_ANYTOOL_CUTTHROUGH_OUTSI
 10
1067.191563
 20
185.500000
 30
0.000000
  0
VERTEX
  8
4_ANYTOOL_CUTTHROUGH_OUTSI
 10
1020.000000
 20
185.500000
 30
0.000000
  0
VERTEX
  8
4_ANYTOOL_CUTTHROUGH_OUTSI
 10
1020.000000
 20
161.750000
 30
0.000000
 42
-0.414214
  0
VERTEX
  8
4_ANYTOOL_CUTTHROUGH_OUTSI
 10
1019.750000
 20
161.500000
 30
0.000000
  0
VERTEX
  8
4_ANYTOOL_CUTTHROUGH_OUTSI
 10
1007.750000
 20
161.500000
 30
0.000000
 42
-0.414214
  0
VERTEX
  8
4_ANYTOOL_CUTTHROUGH_OUTSI
 10
1007.500000
 20
161.750000
 30
0.000000
  0
VERTEX
  8
4_ANYTOOL_CUTTHROUGH_OUTSI
 10
1007.500000
 20
167.500000
 30
0.000000
  0
VERTEX
  8
4_ANYTOOL_CUTTHROUGH_OUTSI
 10
949.500000
 20
167.500000
 30
0.000000
  0
VERTEX
  8
4_ANYTOOL_CUTTHROUGH_OUTSI
 10
949.500000
 20
161.750000
 30
0.000000
 42
-0.414214
  0
VERTEX
  8
4_ANYTOOL_CUTTHROUGH_OUTSI
 10
949.250000
 20
161.500000
 30
0.000000
  0
VERTEX
  8
4_ANYTOOL_CUTTHROUGH_OUTSI
 10
937.250000
 20
161.500000
 30
0.000000
 42
-0.414214
  0
VERTEX
  8
4_ANYTOOL_CUTTHROUGH_OUTSI
 10
937.000000
 20
161.750000
 30
0.000000
  0
VERTEX
  8
4_ANYTOOL_CUTTHROUGH_OUTSI
 10
937.000000
 20
185.500000
 30
0.000000
  0
VERTEX
  8
4_ANYTOOL_CUTTHROUGH_OUTSI
 10
862.500000
 20
185.500000
 30
0.000000
  0
VERTEX
  8
4_ANYTOOL_CUTTHROUGH_OUTSI
 10
862.500000
 20
161.750000
 30
0.000000
 42
-0.414214
  0
VERTEX
  8
4_ANYTOOL_CUTTHROUGH_OUTSI
 10
862.250000
 20
161.500000
 30
0.000000
  0
VERTEX
  8
4_ANYTOOL_CUTTHROUGH_OUTSI
 10
850.250000
 20
161.500000
 30
0.000000
 42
-0.414214
  0
VERTEX
  8
4_ANYTOOL_CUTTHROUGH_OUTSI
 10
850.000000
 20
161.750000
 30
0.000000
  0
VERTEX
  8
4_ANYTOOL_CUTTHROUGH_OUTSI
 10
850.000000
 20
167.500000
 30
0.000000
  0
VERTEX
  8
4_ANYTOOL_CUTTHROUGH_OUTSI
 10
792.000000
 20
167.500000
 30
0.000000
  0
VERTEX
  8
4_ANYTOOL_CUTTHROUGH_OUTSI
 10
792.000000
 20
161.750000
 30
0.000000
 42
-0.414214
  0
VERTEX
  8
4_ANYTOOL_CUTTHROUGH_OUTSI
 10
791.750000
 20
161.500000
 30
0.000000
  0
VERTEX
  8
4_ANYTOOL_CUTTHROUGH_OUTSI
 10
779.750000
 20
161.500000
 30
0.000000
 42
-0.414214
  0
VERTEX
  8
4_ANYTOOL_CUTTHROUGH_OUTSI
 10
779.500000
 20
161.750000
 30
0.000000
  0
VERTEX
  8
4_ANYTOOL_CUTTHROUGH_OUTSI
 10
779.500000
 20
185.500000
 30
0.000000
  0
VERTEX
  8
4_ANYTOOL_CUTTHROUGH_OUTSI
 10
732.308521
 20
185.500000
 30
0.000000
 42
0.061410
  0
VERTEX
  8
4_ANYTOOL_CUTTHROUGH_OUTSI
 10
732.543431
 20
184.105130
 30
0.000000
  0
VERTEX
  8
4_ANYTOOL_CUTTHROUGH_OUTSI
 10
749.438965
 20
135.832588
 30
0.000000
 42
-0.084368
  0
VERTEX
  8
4_ANYTOOL_CUTTHROUGH_OUTSI
 10
749.453000
 20
135.750000
 30
0.000000
 42
-0.414214
  0
VERTEX
  8
4_ANYTOOL_CUTTHROUGH_OUTSI
 10
743.203000
 20
129.500000
 30
0.000000
  0
VERTEX
  8
4_ANYTOOL_CUTTHROUGH_OUTSI
 10
665.203000
 20
129.500000
 30
0.000000
 42
-0.414214
  0
VERTEX
  8
4_ANYTOOL_CUTTHROUGH_OUTSI
 10
658.953000
 20
135.750000
 30
0.000000
 42
-0.084368
  0
VERTEX
  8
4_ANYTOOL_CUTTHROUGH_OUTSI
 10
658.967035
 20
135.832588
 30
0.000000
  0
VERTEX
  8
4_ANYTOOL_CUTTHROUGH_OUTSI
 10
675.866148
 20
184.116195
 30
0.000000
 42
0.061178
  0
VERTEX
  8
4_ANYTOOL_CUTTHROUGH_OUTSI
 10
676.097563
 20
185.500000
 30
0.000000
  0
VERTEX
  8
4_ANYTOOL_CUTTHROUGH_OUTSI
 10
625.000000
 20
185.500000
 30
0.000000
  0
VERTEX
  8
4_ANYTOOL_CUTTHROUGH_OUTSI
 10
625.000000
 20
161.750000
 30
0.000000
 42
-0.414214
  0
VERTEX
  8
4_ANYTOOL_CUTTHROUGH_OUTSI
 10
624.750000
 20
161.500000
 30
0.000000
  0
VERTEX
  8
4_ANYTOOL_CUTTHROUGH_OUTSI
 10
612.750000
 20
161.500000
 30
0.000000
 42
-0.414214
  0
VERTEX
  8
4_ANYTOOL_CUTTHROUGH_OUTSI
 10
612.500000
 20
161.750000
 30
0.000000
  0
VERTEX
  8
4_ANYTOOL_CUTTHROUGH_OUTSI
 10
612.500000
 20
167.500000
 30
0.000000
  0
VERTEX
  8
4_ANYTOOL_CUTTHROUGH_OUTSI
 10
587.000000
 20
167.500000
 30
0.000000
  0
VERTEX
  8
4_ANYTOOL_CUTTHROUGH_OUTSI
 10
587.000000
 20
161.750000
 30
0.000000
 42
-0.414214
  0
VERTEX
  8
4_ANYTOOL_CUTTHROUGH_OUTSI
 10
586.750000
 20
161.500000
 30
0.000000
  0
VERTEX
  8
4_ANYTOOL_CUTTHROUGH_OUTSI
 10
574.750000
 20
161.500000
 30
0.000000
 42
-0.414214
  0
VERTEX
  8
4_ANYTOOL_CUTTHROUGH_OUTSI
 10
574.500000
 20
161.750000
 30
0.000000
  0
VERTEX
  8
4_ANYTOOL_CUTTHROUGH_OUTSI
 10
574.500000
 20
185.500000
 30
0.000000
  0
VERTEX
  8
4_ANYTOOL_CUTTHROUGH_OUTSI
 10
523.402521
 20
185.500000
 30
0.000000
 42
0.061410
  0
VERTEX
  8
4_ANYTOOL_CUTTHROUGH_OUTSI
 10
523.637431
 20
184.105130
 30
0.000000
  0
VERTEX
  8
4_ANYTOOL_CUTTHROUGH_OUTSI
 10
540.532965
 20
135.832588
 30
0.000000
 42
-0.084368
  0
VERTEX
  8
4_ANYTOOL_CUTTHROUGH_OUTSI
 10
540.547000
 20
135.750000
 30
0.000000
 42
-0.414214
  0
VERTEX
  8
4_ANYTOOL_CUTTHROUGH_OUTSI
 10
534.297000
 20
129.500000
 30
0.000000
  0
VERTEX
  8
4_ANYTOOL_CUTTHROUGH_OUTSI
 10
456.297000
 20
129.500000
 30
0.000000
 42
-0.414214
  0
VERTEX
  8
4_ANYTOOL_CUTTHROUGH_OUTSI
 10
450.047000
 20
135.750000
 30
0.000000
 42
-0.084368
  0
VERTEX
  8
4_ANYTOOL_CUTTHROUGH_OUTSI
 10
450.061035
 20
135.832588
 30
0.000000
  0
VERTEX
  8
4_ANYTOOL_CUTTHROUGH_OUTSI
 10
466.960148
 20
184.116195
 30
0.000000
 42
0.061178
  0
VERTEX
  8
4_ANYTOOL_CUTTHROUGH_OUTSI
 10
467.191563
 20
185.500000
 30
0.000000
  0
VERTEX
  8
4_ANYTOOL_CUTTHROUGH_OUTSI
 10
449.750000
 20
185.500000
 30
0.000000
  0
VERTEX
  8
4_ANYTOOL_CUTTHROUGH_OUTSI
 10
420.000000
 20
185.500000
 30
0.000000
  0
VERTEX
  8
4_ANYTOOL_CUTTHROUGH_OUTSI
 10
420.000000
 20
161.750000
 30
0.000000
 42
-0.414214
  0
VERTEX
  8
4_ANYTOOL_CUTTHROUGH_OUTSI
 10
419.750000
 20
161.500000
 30
0.000000
  0
VERTEX
  8
4_ANYTOOL_CUTTHROUGH_OUTSI
 10
407.750000
 20
161.500000
 30
0.000000
 42
-0.414214
  0
VERTEX
  8
4_ANYTOOL_CUTTHROUGH_OUTSI
 10
407.500000
 20
161.750000
 30
0.000000
  0
VERTEX
  8
4_ANYTOOL_CUTTHROUGH_OUTSI
 10
407.500000
 20
167.500000
 30
0.000000
  0
VERTEX
  8
4_ANYTOOL_CUTTHROUGH_OUTSI
 10
349.500000
 20
167.500000
 30
0.000000
  0
VERTEX
  8
4_ANYTOOL_CUTTHROUGH_OUTSI
 10
349.500000
 20
161.750000
 30
0.000000
 42
-0.414214
  0
VERTEX
  8
4_ANYTOOL_CUTTHROUGH_OUTSI
 10
349.250000
 20
161.500000
 30
0.000000
  0
VERTEX
  8
4_ANYTOOL_CUTTHROUGH_OUTSI
 10
337.250000
 20
161.500000
 30
0.000000
 42
-0.414214
  0
VERTEX
  8
4_ANYTOOL_CUTTHROUGH_OUTSI
 10
337.000000
 20
161.750000
 30
0.000000
  0
VERTEX
  8
4_ANYTOOL_CUTTHROUGH_OUTSI
 10
337.000000
 20
185.500000
 30
0.000000
  0
VERTEX
  8
4_ANYTOOL_CUTTHROUGH_OUTSI
 10
262.500000
 20
185.500000
 30
0.000000
  0
VERTEX
  8
4_ANYTOOL_CUTTHROUGH_OUTSI
 10
262.500000
 20
161.750000
 30
0.000000
 42
-0.414214
  0
VERTEX
  8
4_ANYTOOL_CUTTHROUGH_OUTSI
 10
262.250000
 20
161.500000
 30
0.000000
  0
VERTEX
  8
4_ANYTOOL_CUTTHROUGH_OUTSI
 10
250.250000
 20
161.500000
 30
0.000000
 42
-0.414214
  0
VERTEX
  8
4_ANYTOOL_CUTTHROUGH_OUTSI
 10
250.000000
 20
161.750000
 30
0.000000
  0
VERTEX
  8
4_ANYTOOL_CUTTHROUGH_OUTSI
 10
250.000000
 20
167.500000
 30
0.000000
  0
VERTEX
  8
4_ANYTOOL_CUTTHROUGH_OUTSI
 10
192.000000
 20
167.500000
 30
0.000000
  0
VERTEX
  8
4_ANYTOOL_CUTTHROUGH_OUTSI
 10
192.000000
 20
161.750000
 30
0.000000
 42
-0.414214
  0
VERTEX
  8
4_ANYTOOL_CUTTHROUGH_OUTSI
 10
191.750000
 20
161.500000
 30
0.000000
  0
VERTEX
  8
4_ANYTOOL_CUTTHROUGH_OUTSI
 10
179.750000
 20
161.500000
 30
0.000000
 42
-0.414214
  0
VERTEX
  8
4_ANYTOOL_CUTTHROUGH_OUTSI
 10
179.500000
 20
161.750000
 30
0.000000
  0
VERTEX
  8
4_ANYTOOL_CUTTHROUGH_OUTSI
 10
179.500000
 20
185.500000
 30
0.000000
  0
VERTEX
  8
4_ANYTOOL_CUTTHROUGH_OUTSI
 10
149.750000
 20
185.500000
 30
0.000000
  0
VERTEX
  8
4_ANYTOOL_CUTTHROUGH_OUTSI
 10
75.000000
 20
185.500000
 30
0.000000
  0
VERTEX
  8
4_ANYTOOL_CUTTHROUGH_OUTSI
 10
75.000000
 20
161.750000
 30
0.000000
 42
-0.414214
  0
VERTEX
  8
4_ANYTOOL_CUTTHROUGH_OUTSI
 10
74.750000
 20
161.500000
 30
0.000000
  0
VERTEX
  8
4_ANYTOOL_CUTTHROUGH_OUTSI
 10
62.750000
 20
161.500000
 30
0.000000
 42
-0.414214
  0
VERTEX
  8
4_ANYTOOL_CUTTHROUGH_OUTSI
 10
62.500000
 20
161.750000
 30
0.000000
  0
VERTEX
  8
4_ANYTOOL_CUTTHROUGH_OUTSI
 10
62.500000
 20
167.500000
 30
0.000000
  0
VERTEX
  8
4_ANYTOOL_CUTTHROUGH_OUTSI
 10
0.000000
 20
167.500000
 30
0.000000
  0
VERTEX
  8
4_ANYTOOL_CUTTHROUGH_OUTSI
 10
0.000000
 20
139.000000
 30
0.000000
  0
VERTEX
  8
4_ANYTOOL_CUTTHROUGH_OUTSI
 10
23.750000
 20
139.000000
 30
0.000000
 42
-0.414214
  0
VERTEX
  8
4_ANYTOOL_CUTTHROUGH_OUTSI
 10
24.000000
 20
138.750000
 30
0.000000
  0
VERTEX
  8
4_ANYTOOL_CUTTHROUGH_OUTSI
 10
24.000000
 20
126.750000
 30
0.000000
 42
-0.414214
  0
VERTEX
  8
4_ANYTOOL_CUTTHROUGH_OUTSI
 10
23.750000
 20
126.500000
 30
0.000000
  0
VERTEX
  8
4_ANYTOOL_CUTTHROUGH_OUTSI
 10
18.000000
 20
126.500000
 30
0.000000
  0
VERTEX
  8
4_ANYTOOL_CUTTHROUGH_OUTSI
 10
18.000000
 20
116.000000
 30
0.000000
  0
VERTEX
  8
4_ANYTOOL_CUTTHROUGH_OUTSI
 10
23.750000
 20
116.000000
 30
0.000000
 42
-0.414214
  0
VERTEX
  8
4_ANYTOOL_CUTTHROUGH_OUTSI
 10
24.000000
 20
115.750000
 30
0.000000
  0
VERTEX
  8
4_ANYTOOL_CUTTHROUGH_OUTSI
 10
24.000000
 20
103.750000
 30
0.000000
 42
-0.414214
  0
VERTEX
  8
4_ANYTOOL_CUTTHROUGH_OUTSI
 10
23.750000
 20
103.500000
 30
0.000000
  0
VERTEX
  8
4_ANYTOOL_CUTTHROUGH_OUTSI
 10
0.000000
 20
103.500000
 30
0.000000
  0
VERTEX
  8
4_ANYTOOL_CUTTHROUGH_OUTSI
 10
0.000000
 20
66.089000
 30
0.000000
  0
VERTEX
  8
4_ANYTOOL_CUTTHROUGH_OUTSI
 10
23.750000
 20
66.089000
 30
0.000000
 42
-0.414214
  0
VERTEX
  8
4_ANYTOOL_CUTTHROUGH_OUTSI
 10
24.000000
 20
65.839000
 30
0.000000
  0
VERTEX
  8
4_ANYTOOL_CUTTHROUGH_OUTSI
 10
24.000000
 20
53.839000
 30
0.000000
 42
-0.414214
  0
VERTEX
  8
4_ANYTOOL_CUTTHROUGH_OUTSI
 10
23.750000
 20
53.589000
 30
0.000000
  0
VERTEX
  8
4_ANYTOOL_CUTTHROUGH_OUTSI
 10
18.000000
 20
53.589000
 30
0.000000
  0
VERTEX
  8
4_ANYTOOL_CUTTHROUGH_OUTSI
 10
18.000000
 20
46.000000
 30
0.000000
  0
VERTEX
  8
4_ANYTOOL_CUTTHROUGH_OUTSI
 10
23.750000
 20
46.000000
 30
0.000000
 42
-0.414214
  0
VERTEX
  8
4_ANYTOOL_CUTTHROUGH_OUTSI
 10
24.000000
 20
45.750000
 30
0.000000
  0
VERTEX
  8
4_ANYTOOL_CUTTHROUGH_OUTSI
 10
24.000000
 20
33.750000
 30
0.000000
 42
-0.414214
  0
VERTEX
  8
4_ANYTOOL_CUTTHROUGH_OUTSI
 10
23.750000
 20
33.500000
 30
0.000000
  0
SEQEND
  8
4_ANYTOOL_CUTTHROUGH_OUTSI
  0
ENDSEC
  0
EOF
