<svg id="Layer_1" data-name="Layer 1" xmlns="http://www.w3.org/2000/svg" viewBox="0 0 1091.73 425.2"><defs><style>.cls-1{font-size:5.3px;fill:#1d1d1b;font-family:Monotxt;}.cls-2,.cls-3{fill:none;stroke:#1d1d1b;stroke-miterlimit:10;}.cls-2{stroke-width:0.5px;}.cls-3{stroke-width:0.25px;}</style></defs><g id="MTEXT"><text class="cls-1" transform="translate(1031.79 269.98) rotate(-90)">VERGE-G1/C</text></g><g id="MTEXT-2" data-name="MTEXT"><text class="cls-1" transform="translate(966.17 158.31) rotate(90)">VERGE-G1/D</text></g><g id="MTEXT-3" data-name="MTEXT"><text class="cls-1" transform="translate(903.21 136.68) rotate(90)">VERGE-G1/E</text></g><g id="MTEXT-4" data-name="MTEXT"><text class="cls-1" transform="translate(805.2 41.36)">VERGE-G/A</text></g><g id="MTEXT-5" data-name="MTEXT"><text class="cls-1" transform="translate(755.66 41.52)">VERGE-G/A</text></g><g id="MTEXT-6" data-name="MTEXT"><text class="cls-1" transform="translate(680.01 39.25) rotate(90)">VERGE-G/A</text></g><g id="MTEXT-7" data-name="MTEXT"><text class="cls-1" transform="translate(679.75 88.79) rotate(90)">VERGE-G/A</text></g><g id="MTEXT-8" data-name="MTEXT"><text class="cls-1" transform="translate(689.53 250.41) rotate(90)">VERGE-G2/D</text></g><g id="MTEXT-9" data-name="MTEXT"><text class="cls-1" transform="translate(817.43 220.96) rotate(-90)">VERGE-G2/C</text></g><g id="MTEXT-10" data-name="MTEXT"><text class="cls-1" transform="translate(751.16 228.89) rotate(-90)">VERGE-G2/B</text></g><g id="MTEXT-11" data-name="MTEXT"><text class="cls-1" transform="matrix(0, 1, 1, 0, 893.73, 347.35)">VERGE-G1/B</text></g><g id="MTEXT-12" data-name="MTEXT"><text class="cls-1" transform="translate(519.25 239.73) rotate(90)">VERGE-G/A</text></g><g id="MTEXT-13" data-name="MTEXT"><text class="cls-1" transform="translate(618.73 215.09) rotate(90)">VERGE-G/A</text></g><g id="MTEXT-14" data-name="MTEXT"><text class="cls-1" transform="translate(618.51 165.55) rotate(90)">VERGE-G/A</text></g><g id="MTEXT-15" data-name="MTEXT"><text class="cls-1" transform="translate(511.28 171.46)">VERGE-G/A</text></g><g id="MTEXT-16" data-name="MTEXT"><text class="cls-1" transform="translate(461.74 171.05)">VERGE-G/A</text></g><g id="MTEXT-17" data-name="MTEXT"><text class="cls-1" transform="translate(180.85 136.68) rotate(90)">VERGE-G1/E</text></g><g id="MTEXT-18" data-name="MTEXT"><text class="cls-1" transform="translate(194.09 347.35) rotate(90)">VERGE-G1/B</text></g><g id="MTEXT-19" data-name="MTEXT"><text class="cls-1" transform="translate(404.31 88.79) rotate(90)">VERGE-G/A</text></g><g id="MTEXT-20" data-name="MTEXT"><text class="cls-1" transform="translate(404.06 39.25) rotate(90)">VERGE-G/A</text></g><g id="MTEXT-21" data-name="MTEXT"><text class="cls-1" transform="translate(248.56 41.36)">VERGE-G/A</text></g><g id="MTEXT-22" data-name="MTEXT"><text class="cls-1" transform="translate(298.1 41.52)">VERGE-G/A</text></g><g id="MTEXT-23" data-name="MTEXT"><text class="cls-1" transform="translate(519.25 113.43) rotate(90)">VERGE-G/A</text></g><g id="MTEXT-24" data-name="MTEXT"><text class="cls-1" transform="translate(618.73 88.79) rotate(90)">VERGE-G/A</text></g><g id="MTEXT-25" data-name="MTEXT"><text class="cls-1" transform="translate(618.51 39.25) rotate(90)">VERGE-G/A</text></g><g id="MTEXT-26" data-name="MTEXT"><text class="cls-1" transform="translate(511.28 45.16)">VERGE-G/A</text></g><g id="MTEXT-27" data-name="MTEXT"><text class="cls-1" transform="translate(461.74 44.76)">VERGE-G/A</text></g><g id="MTEXT-28" data-name="MTEXT"><text class="cls-1" transform="translate(394.53 250.41) rotate(90)">VERGE-G2/D</text></g><g id="MTEXT-29" data-name="MTEXT"><text class="cls-1" transform="translate(340.41 228.89) rotate(-90)">VERGE-G2/B</text></g><g id="MTEXT-30" data-name="MTEXT"><text class="cls-1" transform="translate(273.98 220.96) rotate(-90)">VERGE-G2/C</text></g><g id="MTEXT-31" data-name="MTEXT"><text class="cls-1" transform="translate(117.9 158.31) rotate(90)">VERGE-G1/D</text></g><g id="MTEXT-32" data-name="MTEXT"><text class="cls-1" transform="translate(59.78 269.98) rotate(-90)">VERGE-G1/C</text></g><g id="POLYLINE"><path class="cls-2" d="M712.84,353.34h-.9v-1.88h3.6V328.27h-2.65l-9.25,4a.91.91,0,0,1-.37.08.94.94,0,0,1-.94-.94V311.54a1,1,0,0,1,.08-.38.93.93,0,0,1,1.23-.48l9.25,4h2.65V291.49h-3.6v-1.88h.9V263.26h-.9v-1.87h3.6v-23.2h-2.65l-9.25,4a.9.9,0,0,1-.37.07.94.94,0,0,1-.94-.93V221.46a.91.91,0,0,1,.08-.37.93.93,0,0,1,1.23-.49l9.25,4h2.65V201.41h-3.6v-1.88h.9V173.19h-.9v-1.88h3.6V141.36H698.35V145h-1.87v-.9H682.14v.9h-1.88v-3.61H667.88V156.3h3.6v1.87h-.9v56.38h.9v1.87h-3.6v30h3.6v1.88h-.9v56.37h.9v1.88h-3.6v29.95h3.6v1.88h-.9v41.26h42.26Z"/></g><g id="POLYLINE-2" data-name="POLYLINE"><path class="cls-2" d="M1037.73,70.42l3.62-3.26.6.67,1.4-1.26-2.41-2.67,18.39-16.57v16.8h-3.6V66h.9v5.33h-.9v1.88h3.6V85.15h-3.6V87h.9v5.33h-.9v1.88h3.6v60h-3.6v1.88h.9v5.33h-.9v1.88h3.6v11.93h-3.6v1.88h.9v7.2h2.7v60h-3.6v1.88h.9v5.33h-.9v1.87h3.6V265.3h-3.6v1.87h.9v5.33h-.9v1.88h3.6v60h-3.6v1.87h.9v11.34h-.9v1.87h3.6v4.45l-41.47,37.34-7.08-7.86.67-.61-1.23-1.36,0,0-2.68,2.41-4.17-4.63,27.05-24.36.61.67,1.39-1.26-4.87-5.41-1.39,1.26.6.67-27.06,24.36-4.17-4.63,2.68-2.41-1.25-1.4-.67.6L986,355.81l16.39-14.76V297.28h.9v-1.87h-3.6v-30h3.6v-1.88h-.9V176.07h.9V174.2h-3.6V144.25h3.6v-1.88h-.9V98.63L1020.8,82l2.41,2.68,1.4-1.26-.61-.67,3.61-3.25L1030.8,89a.94.94,0,0,0,1.19.59,1.09,1.09,0,0,0,.33-.19l14.77-13.3a1,1,0,0,0,.07-1.33,1,1,0,0,0-.31-.22Z"/></g><g id="POLYLINE-3" data-name="POLYLINE"><path class="cls-2" d="M920.74,254.85a.8.8,0,0,1-.37.08.94.94,0,0,1-.94-.94V234.12a.91.91,0,0,1,.08-.37.93.93,0,0,1,1.23-.49l9.24,4h2.66V214.07H929v-1.88h.9V185.84H929V184h3.6v-23.2H930l-9.24,4a.93.93,0,0,1-1.31-.86V144a1,1,0,0,1,.08-.37.93.93,0,0,1,1.23-.49l9.24,4h2.66V124H929v-1.88h.9V95.77H929V93.89h3.6V70.7H930l-9.24,4a.93.93,0,0,1-1.31-.86V54a1,1,0,0,1,.08-.38.94.94,0,0,1,1.23-.49l9.24,4h2.66V33.91H929V32h.9v0H887.68v15h.9v1.88H885V78.88h3.6v1.87h-.9v56.38h.9V139H885V169h3.6v1.88h-.9V227.2h.9v1.88H885V259h3.6v1.88h-.9v56.37h.9v1.88H885v14.93h3.6V336h-.9v2.63h9.68V335h1.88v.9h14.33V335h1.88v3.61h14.49V336H929v-1.88h3.6V304.14H929v-1.87h.9V275.92H929V274h3.6V250.85H930Z"/></g><g id="POLYLINE-4" data-name="POLYLINE"><polygon class="cls-2" points="842.34 134.35 841.43 134.35 841.43 136.22 845.04 136.22 845.04 166.18 841.43 166.18 841.43 168.05 842.34 168.05 842.34 193.05 841.43 193.05 841.43 194.93 845.04 194.93 845.04 197.55 841.43 197.55 841.43 199.43 842.34 199.43 842.34 224.43 841.43 224.43 841.43 226.3 845.04 226.3 845.04 256.25 841.43 256.25 841.43 258.13 842.34 258.13 842.34 283.12 841.43 283.12 841.43 285 845.04 285 845.04 287.63 841.43 287.63 841.43 289.5 842.34 289.5 842.34 314.5 841.43 314.5 841.43 316.38 845.04 316.38 845.04 346.33 841.43 346.33 841.43 347.69 822.9 364.37 820.49 361.7 819.1 362.95 819.7 363.62 809.72 372.61 809.12 371.94 807.72 373.2 810.13 375.88 788.06 395.75 788.06 153.43 810.18 133.51 812.59 136.19 813.99 134.93 813.38 134.26 823.37 125.27 823.97 125.94 825.37 124.69 822.96 122.01 842.34 104.56 842.34 134.35"/></g><g id="POLYLINE-5" data-name="POLYLINE"><polygon class="cls-2" points="918.06 345 936.15 345 936.15 357.69 935.25 357.69 935.25 359.56 938.86 359.56 938.86 365.79 902.45 365.79 902.45 364.89 900.58 364.89 900.58 372.17 902.45 372.17 902.45 371.27 938.86 371.27 938.86 377.5 935.25 377.5 935.25 379.38 936.15 379.38 936.15 387.26 923.02 387.26 923.02 386.36 921.14 386.36 921.14 389.96 894.19 389.96 894.19 386.36 892.32 386.36 892.32 387.26 883.08 387.26 883.08 379.38 883.98 379.38 883.98 377.5 880.38 377.5 880.38 359.56 883.98 359.56 883.98 357.69 883.08 357.69 883.08 345 897.27 345 897.27 345.9 899.15 345.9 899.15 342.3 916.19 342.3 916.19 345.9 918.06 345.9 918.06 345"/></g><g id="POLYLINE-6" data-name="POLYLINE"><polygon class="cls-2" points="995.5 86.38 1011.89 71.63 1001.6 60.19 1000.93 60.79 999.67 59.4 1002.35 56.99 998.18 52.36 971.13 76.72 971.73 77.39 970.33 78.64 965.46 73.23 966.86 71.98 967.46 72.65 994.51 48.29 990.34 43.66 987.67 46.07 986.41 44.67 987.08 44.07 980 36.2 938.53 73.54 938.53 77.99 942.13 77.99 942.13 79.87 941.23 79.87 941.23 106.22 942.13 106.22 942.13 108.09 938.53 108.09 938.53 138.04 942.13 138.04 942.13 139.92 941.24 139.92 941.24 164.91 942.13 164.91 942.13 166.79 938.53 166.79 938.53 169.42 942.13 169.42 942.13 171.29 941.24 171.29 941.24 196.29 942.14 196.29 942.14 198.17 938.53 198.17 938.53 228.12 942.14 228.12 942.14 230 941.24 230 941.24 254.99 942.14 254.99 942.14 256.87 938.53 256.87 938.53 259.5 942.14 259.5 942.14 261.37 941.24 261.37 941.24 286.37 942.14 286.37 942.14 288.24 938.53 288.25 938.53 318.19 942.14 318.19 942.14 320.07 941.24 320.07 941.24 345.07 942.14 345.07 942.14 346.94 938.53 346.94 938.53 349.57 942.14 349.57 942.14 351.45 941.24 351.45 941.24 376.44 942.14 376.44 942.14 376.86 960.62 360.22 958.2 357.54 959.6 356.29 960.2 356.95 970.19 347.96 969.58 347.3 970.98 346.04 973.39 348.72 995.51 328.8 995.5 86.38"/></g><g id="POLYLINE-7" data-name="POLYLINE"><polygon class="cls-2" points="670.38 34.89 687.28 34.89 687.28 35.79 689.15 35.79 689.15 32.18 695.83 32.18 695.83 35.79 697.7 35.79 697.7 34.89 699.42 34.89 699.42 35.79 701.3 35.79 701.3 32.18 703.93 32.18 703.93 35.79 705.81 35.79 705.81 34.89 707.54 34.89 707.54 35.79 709.41 35.79 709.41 32.18 716.1 32.18 716.1 35.79 717.98 35.79 717.98 34.89 743.41 34.89 743.41 42.77 742.51 42.77 742.51 44.64 746.11 44.64 746.11 50.88 695.46 50.88 695.46 49.97 693.58 49.97 693.58 57.26 695.46 57.26 695.46 56.35 746.11 56.35 746.11 62.58 742.51 62.58 742.51 64.46 743.41 64.46 743.41 77.14 740.75 77.14 713.02 77.14 713.02 76.24 711.15 76.24 711.15 79.85 694.11 79.85 694.11 76.25 692.23 76.25 692.23 77.15 670.38 77.15 670.38 34.89"/></g><g id="POLYLINE-8" data-name="POLYLINE"><polygon class="cls-2" points="670.39 84.43 687.29 84.43 687.29 85.33 689.17 85.33 689.17 81.73 695.84 81.73 695.84 85.33 697.72 85.33 697.72 84.43 699.43 84.43 699.43 85.33 701.31 85.33 701.31 81.73 703.95 81.73 703.95 85.33 705.82 85.33 705.82 84.43 707.55 84.43 707.55 85.33 709.43 85.33 709.43 81.73 716.12 81.73 716.12 85.33 717.99 85.33 717.99 84.43 743.42 84.43 743.42 92.31 742.52 92.31 742.52 94.19 746.12 94.19 746.12 100.42 695.47 100.42 695.47 99.52 693.6 99.52 693.6 106.8 695.47 106.8 695.47 105.9 746.12 105.9 746.12 112.13 742.52 112.13 742.52 114 743.42 114 743.42 126.69 740.76 126.69 713.04 126.69 713.04 125.78 711.16 125.78 711.16 129.39 694.12 129.39 694.12 125.79 692.25 125.79 692.25 126.69 670.39 126.69 670.39 84.43"/></g><g id="POLYLINE-9" data-name="POLYLINE"><polygon class="cls-2" points="794.08 29.67 794.08 46.57 793.18 46.57 793.18 48.45 796.78 48.45 796.78 55.12 793.18 55.12 793.18 57 794.08 57 794.08 58.71 793.18 58.71 793.18 60.59 796.78 60.59 796.78 63.23 793.18 63.23 793.18 65.1 794.08 65.1 794.08 66.83 793.18 66.83 793.18 68.71 796.78 68.71 796.78 75.39 793.18 75.39 793.18 77.27 794.08 77.27 794.08 102.7 786.2 102.7 786.2 101.8 784.32 101.8 784.32 105.4 778.09 105.4 778.09 54.75 778.99 54.75 778.99 52.88 771.71 52.88 771.71 54.75 772.61 54.75 772.61 105.4 766.38 105.4 766.38 101.8 764.51 101.8 764.51 102.7 751.82 102.7 751.82 100.04 751.82 72.32 752.73 72.32 752.73 70.44 749.12 70.44 749.12 53.4 752.72 53.4 752.72 51.52 751.82 51.52 751.82 29.67 794.08 29.67"/></g><g id="POLYLINE-10" data-name="POLYLINE"><polygon class="cls-2" points="843.62 29.66 843.62 46.56 842.72 46.56 842.72 48.43 846.33 48.43 846.33 55.11 842.72 55.11 842.72 56.98 843.62 56.98 843.62 58.7 842.72 58.7 842.72 60.58 846.33 60.58 846.33 63.21 842.72 63.21 842.72 65.09 843.62 65.09 843.62 66.82 842.72 66.82 842.72 68.69 846.33 68.69 846.33 75.38 842.72 75.38 842.72 77.26 843.62 77.26 843.62 102.69 835.74 102.69 835.74 101.79 833.86 101.79 833.86 105.39 827.63 105.39 827.63 54.74 828.53 54.74 828.53 52.86 821.25 52.86 821.25 54.74 822.15 54.74 822.15 105.39 815.92 105.39 815.92 101.79 814.05 101.79 814.05 102.69 801.36 102.69 801.37 100.02 801.37 72.3 802.27 72.3 802.27 70.43 798.66 70.43 798.66 53.39 802.26 53.39 802.26 51.51 801.36 51.51 801.36 29.66 843.62 29.66"/></g><g id="POLYLINE-11" data-name="POLYLINE"><path class="cls-2" d="M766,129.48a1,1,0,0,1,.3.23.92.92,0,0,1-.07,1.32l-14.77,13.3a.78.78,0,0,1-.33.19.92.92,0,0,1-1.18-.59l-3.2-9.5-3.6,3.25.6.67-1.39,1.25-2.41-2.68-18.45,16.61v43.74h.9v1.87h-3.6v30h3.6V231h-.9v87.51h.9v1.87h-3.6V350.3h3.6v1.88h-.9v43.67l18.4-16.56-2.42-2.68,1.4-1.25,0,0,.58.64,3.61-3.24-9.12-4.17h0a1,1,0,0,1-.31-.22,1,1,0,0,1,.07-1.33l14.77-13.3a1.09,1.09,0,0,1,.33-.19.94.94,0,0,1,1.19.59l3.19,9.5,3.62-3.26-.6-.67,1.39-1.25,2.41,2.68,18.45-16.61V301.47h-3.61v-1.88h.9v-5.33h-.9v-1.87h3.61V280.45h-3.61v-1.88h.9v-5.33h-.9v-1.87h3.61v-60h-3.61v-1.87h.9v-5.33h-.9v-1.88h3.61V190.37h-3.61V188.5h.9v-5.33h-.9v-1.88h3.61v-60h-3.61v-1.88h.9V104.66l-15.69,14.13,2.41,2.68-1.39,1.26-.6-.67-3.62,3.25,9.12,4.17Z"/></g><g id="POLYLINE-12" data-name="POLYLINE"><polygon class="cls-2" points="630.62 161.18 613.72 161.18 613.72 162.08 611.85 162.08 611.85 158.48 605.17 158.48 605.17 162.08 603.3 162.08 603.3 161.18 601.58 161.18 601.58 162.08 599.71 162.08 599.71 158.48 597.07 158.48 597.07 162.08 595.19 162.08 595.19 161.18 593.47 161.18 593.47 162.08 591.59 162.08 591.59 158.48 584.9 158.48 584.9 162.08 583.02 162.08 583.02 161.18 557.59 161.18 557.59 169.06 558.5 169.06 558.5 170.94 554.89 170.94 554.89 177.17 605.54 177.17 605.54 176.27 607.42 176.27 607.42 183.55 605.54 183.55 605.54 182.65 554.89 182.65 554.89 188.88 558.5 188.88 558.5 190.76 557.59 190.76 557.59 203.44 560.26 203.44 587.98 203.44 587.98 202.54 589.85 202.54 589.85 206.14 606.89 206.14 606.89 202.54 608.77 202.54 608.77 203.44 630.62 203.44 630.62 161.18"/></g><g id="POLYLINE-13" data-name="POLYLINE"><polygon class="cls-2" points="630.61 210.72 613.71 210.72 613.71 211.62 611.83 211.62 611.83 208.02 605.16 208.02 605.16 211.62 603.28 211.62 603.28 210.72 601.57 210.72 601.57 211.62 599.69 211.62 599.69 208.02 597.05 208.02 597.05 211.62 595.18 211.62 595.18 210.72 593.45 210.72 593.45 211.62 591.58 211.62 591.58 208.02 584.88 208.02 584.88 211.62 583.01 211.62 583.01 210.72 557.58 210.72 557.58 218.6 558.48 218.6 558.48 220.48 554.88 220.48 554.88 226.71 605.53 226.71 605.53 225.81 607.4 225.81 607.4 233.09 605.53 233.09 605.53 232.19 554.88 232.19 554.88 238.42 558.48 238.42 558.48 240.3 557.58 240.3 557.58 252.98 560.24 252.98 587.96 252.98 587.96 252.08 589.84 252.08 589.84 255.69 606.88 255.69 606.88 252.08 608.76 252.08 608.76 252.98 630.61 252.98 630.61 210.72"/></g><g id="POLYLINE-14" data-name="POLYLINE"><polygon class="cls-2" points="457.38 157.76 457.38 174.65 458.28 174.65 458.28 176.53 454.68 176.53 454.68 183.2 458.28 183.2 458.28 185.08 457.38 185.08 457.38 186.79 458.28 186.79 458.28 188.67 454.68 188.67 454.68 191.31 458.28 191.31 458.28 193.19 457.38 193.19 457.38 194.91 458.28 194.91 458.28 196.79 454.68 196.79 454.68 203.48 458.28 203.48 458.28 205.35 457.38 205.35 457.38 230.78 465.26 230.78 465.26 229.88 467.14 229.88 467.14 233.49 473.37 233.49 473.37 182.84 472.47 182.84 472.47 180.96 479.75 180.96 479.75 182.84 478.85 182.84 478.85 233.49 485.08 233.49 485.08 229.88 486.95 229.88 486.95 230.78 499.64 230.78 499.64 228.12 499.64 200.4 498.74 200.4 498.74 198.52 502.34 198.52 502.34 181.48 498.74 181.48 498.74 179.61 499.64 179.61 499.64 157.76 457.38 157.76"/></g><g id="POLYLINE-15" data-name="POLYLINE"><polygon class="cls-2" points="506.92 157.77 506.92 174.67 507.82 174.67 507.82 176.54 504.22 176.54 504.22 183.22 507.82 183.22 507.82 185.09 506.92 185.09 506.92 186.81 507.82 186.81 507.82 188.69 504.22 188.69 504.22 191.32 507.82 191.32 507.82 193.2 506.92 193.2 506.92 194.93 507.82 194.93 507.82 196.8 504.22 196.8 504.22 203.49 507.82 203.49 507.82 205.37 506.92 205.37 506.92 230.8 514.8 230.8 514.8 229.9 516.68 229.9 516.68 233.5 522.91 233.5 522.91 182.85 522.01 182.85 522.01 180.97 529.29 180.97 529.29 182.85 528.39 182.85 528.39 233.5 534.62 233.5 534.62 229.9 536.5 229.9 536.5 230.8 549.18 230.8 549.18 228.13 549.18 200.41 548.28 200.41 548.28 198.54 551.88 198.54 551.88 181.5 548.28 181.5 548.28 179.62 549.18 179.62 549.18 157.77 506.92 157.77"/></g><g id="POLYLINE-16" data-name="POLYLINE"><polygon class="cls-2" points="532.72 235.36 515.83 235.36 515.83 236.26 513.95 236.26 513.95 232.66 507.28 232.66 507.28 236.26 505.4 236.26 505.4 235.36 503.69 235.36 503.69 236.26 501.81 236.26 501.81 232.66 499.17 232.66 499.17 236.26 497.3 236.26 497.3 235.36 495.57 235.36 495.57 236.26 493.69 236.26 493.69 232.66 487 232.66 487 236.26 485.13 236.26 485.13 235.36 459.7 235.36 459.7 243.24 460.6 243.24 460.6 245.12 457 245.12 457 251.35 507.64 251.35 507.64 250.45 509.52 250.45 509.52 257.73 507.64 257.73 507.64 256.83 457 256.83 457 263.06 460.6 263.06 460.6 264.94 459.7 264.94 459.7 277.62 462.36 277.62 490.08 277.62 490.08 276.72 491.96 276.72 491.96 280.32 509 280.32 509 276.72 510.87 276.72 510.87 277.62 532.72 277.62 532.72 235.36"/></g><g id="POLYLINE-17" data-name="POLYLINE"><path class="cls-2" d="M375,353.34h.9v-1.88h-3.6V328.27h2.65l9.25,4a.93.93,0,0,0,1.23-.49.91.91,0,0,0,.08-.37V311.54a.94.94,0,0,0-.94-.94.8.8,0,0,0-.37.08l-9.25,4h-2.65V291.49h3.6v-1.88H375V263.26h.9v-1.87h-3.6v-23.2h2.65l9.25,4a.94.94,0,0,0,1.23-.49,1,1,0,0,0,.08-.37V221.46a.93.93,0,0,0-1.31-.86l-9.25,4h-2.65V201.41h3.6v-1.88H375V173.19h.9v-1.88h-3.6V141.36h17.19V145h1.87v-.9h14.34v.9h1.88v-3.61h12.38V156.3h-3.6v1.87h.9v56.38h-.9v1.87h3.6v30h-3.6v1.88h.9v56.37h-.9v1.88h3.6v29.95h-3.6v1.88h.9v41.26H375Z"/></g><g id="POLYLINE-18" data-name="POLYLINE"><path class="cls-2" d="M50.09,70.42l-3.62-3.26-.6.67-1.4-1.26,2.41-2.67L28.49,47.33v16.8h3.6V66h-.9v5.33h.9v1.88h-3.6V85.15h3.6V87h-.9v5.33h.9v1.88h-3.6v60h3.6v1.88h-.9v5.33h.9v1.88h-3.6v11.93h3.6v1.88h-.9v7.2h-2.7v60h3.6v1.88h-.9v5.33h.9v1.87h-3.6V265.3h3.6v1.87h-.9v5.33h.9v1.88h-3.6v60h3.6v1.87h-.9v11.34h.9v1.87h-3.6v4.45L70,391.23,77,383.37l-.67-.61,1.23-1.36,0,0,2.68,2.41,4.17-4.63-27-24.36-.61.67-1.39-1.26,4.87-5.41,1.4,1.26-.61.67,27.06,24.36,4.17-4.63L89.63,368l1.25-1.4.67.6,10.3-11.43L85.46,341.05V297.28h-.9v-1.87h3.61v-30H84.56v-1.88h.9V176.07h-.9V174.2h3.61V144.25H84.56v-1.88h.9V98.63L67,82l-2.41,2.68-1.4-1.26.61-.67-3.61-3.25L57,89a1.09,1.09,0,0,1-.19.33,1,1,0,0,1-1.33.07L40.73,76.14a1,1,0,0,1-.22-.31A.93.93,0,0,1,41,74.59Z"/></g><g id="POLYLINE-19" data-name="POLYLINE"><path class="cls-2" d="M167.08,254.85a.93.93,0,0,0,1.23-.48,1,1,0,0,0,.08-.38V234.12a.93.93,0,0,0-1.31-.86l-9.24,4h-2.66V214.07h3.6v-1.88h-.9V185.84h.9V184h-3.6v-23.2h2.66l9.24,4a.93.93,0,0,0,1.23-.49,1,1,0,0,0,.08-.37V144a.93.93,0,0,0-1.31-.86l-9.24,4h-2.66V124h3.6v-1.88h-.9V95.77h.9V93.89h-3.6V70.7h2.66l9.24,4a.92.92,0,0,0,1.23-.49.91.91,0,0,0,.08-.37V54a1,1,0,0,0-1.31-.87l-9.24,4h-2.66V33.91h3.6V32h-.9v0h42.26v15h-.9v1.88h3.61V78.88h-3.61v1.87h.9v56.38h-.9V139h3.61V169h-3.61v1.88h.9V227.2h-.9v1.88h3.61V259h-3.61v1.88h.9v56.37h-.9v1.88h3.61v14.93h-3.61V336h.9v2.63h-9.68V335h-1.88v.9H174.25V335h-1.88v3.61H157.88V336h.9v-1.88h-3.6V304.14h3.6v-1.87h-.9V275.92h.9V274h-3.6V250.85h2.66Z"/></g><g id="POLYLINE-20" data-name="POLYLINE"><polygon class="cls-2" points="245.49 134.35 246.39 134.35 246.39 136.22 242.78 136.22 242.78 166.18 246.39 166.18 246.39 168.05 245.49 168.05 245.49 193.05 246.39 193.05 246.39 194.93 242.78 194.93 242.78 197.55 246.39 197.55 246.39 199.43 245.49 199.43 245.49 224.43 246.39 224.43 246.39 226.3 242.78 226.3 242.78 256.25 246.39 256.25 246.39 258.13 245.49 258.13 245.49 283.12 246.39 283.12 246.39 285 242.78 285 242.78 287.63 246.39 287.63 246.39 289.5 245.49 289.5 245.49 314.5 246.39 314.5 246.39 316.38 242.78 316.38 242.78 346.33 246.39 346.33 246.39 347.69 264.92 364.37 267.33 361.7 268.72 362.95 268.12 363.62 278.1 372.61 278.71 371.94 280.1 373.2 277.69 375.88 299.76 395.75 299.76 153.43 277.64 133.51 275.23 136.19 273.83 134.93 274.44 134.26 264.45 125.27 263.85 125.94 262.45 124.69 264.87 122.01 245.49 104.56 245.49 134.35"/></g><g id="POLYLINE-21" data-name="POLYLINE"><polygon class="cls-2" points="169.76 345 151.67 345 151.67 357.69 152.57 357.69 152.57 359.56 148.96 359.56 148.96 365.79 185.37 365.79 185.37 364.89 187.25 364.89 187.25 372.17 185.37 372.17 185.37 371.27 148.96 371.27 148.96 377.5 152.57 377.5 152.57 379.38 151.67 379.38 151.67 387.26 164.8 387.26 164.8 386.36 166.68 386.36 166.68 389.96 193.63 389.96 193.63 386.36 195.5 386.36 195.5 387.26 204.74 387.26 204.74 379.38 203.84 379.38 203.84 377.5 207.44 377.5 207.44 359.56 203.84 359.56 203.84 357.69 204.74 357.69 204.74 345 190.55 345 190.55 345.9 188.67 345.9 188.67 342.3 171.63 342.3 171.63 345.9 169.76 345.9 169.76 345"/></g><g id="POLYLINE-22" data-name="POLYLINE"><polygon class="cls-2" points="92.31 86.38 75.93 71.63 86.22 60.19 86.89 60.79 88.15 59.4 85.47 56.99 89.64 52.36 116.7 76.72 116.09 77.39 117.49 78.64 122.36 73.23 120.97 71.98 120.36 72.65 93.31 48.29 97.48 43.66 100.16 46.07 101.41 44.67 100.74 44.07 107.82 36.2 149.29 73.54 149.29 77.99 145.69 77.99 145.69 79.87 146.59 79.87 146.59 106.22 145.69 106.22 145.69 108.09 149.29 108.09 149.29 138.04 145.69 138.04 145.69 139.92 146.59 139.92 146.59 164.91 145.69 164.91 145.69 166.79 149.29 166.79 149.29 169.42 145.69 169.42 145.69 171.29 146.59 171.29 146.59 196.29 145.69 196.29 145.69 198.17 149.29 198.17 149.29 228.12 145.69 228.12 145.69 230 146.59 230 146.59 254.99 145.69 254.99 145.69 256.87 149.29 256.87 149.29 259.5 145.69 259.5 145.69 261.37 146.59 261.37 146.59 286.37 145.69 286.37 145.69 288.24 149.29 288.25 149.29 318.19 145.69 318.19 145.69 320.07 146.59 320.07 146.59 345.07 145.69 345.07 145.69 346.94 149.29 346.94 149.29 349.57 145.69 349.57 145.69 351.45 146.59 351.45 146.59 376.44 145.69 376.44 145.69 376.86 127.21 360.22 129.62 357.54 128.22 356.29 127.62 356.95 117.64 347.96 118.24 347.3 116.84 346.04 114.43 348.72 92.31 328.8 92.31 86.38"/></g><g id="POLYLINE-23" data-name="POLYLINE"><polygon class="cls-2" points="417.44 34.89 400.54 34.89 400.54 35.79 398.67 35.79 398.67 32.18 391.99 32.18 391.99 35.79 390.12 35.79 390.12 34.89 388.4 34.89 388.4 35.79 386.52 35.79 386.52 32.18 383.89 32.18 383.89 35.79 382.01 35.79 382.01 34.89 380.29 34.89 380.29 35.79 378.41 35.79 378.41 32.18 371.72 32.18 371.72 35.79 369.84 35.79 369.84 34.89 344.41 34.89 344.41 42.77 345.31 42.77 345.31 44.64 341.71 44.64 341.71 50.88 392.36 50.88 392.36 49.97 394.24 49.97 394.24 57.26 392.36 57.26 392.36 56.35 341.71 56.35 341.71 62.58 345.31 62.58 345.31 64.46 344.41 64.46 344.41 77.14 347.08 77.14 374.8 77.14 374.8 76.24 376.67 76.24 376.67 79.85 393.71 79.85 393.71 76.25 395.59 76.25 395.59 77.15 417.44 77.15 417.44 34.89"/></g><g id="POLYLINE-24" data-name="POLYLINE"><polygon class="cls-2" points="417.43 84.43 400.53 84.43 400.53 85.33 398.65 85.33 398.65 81.73 391.98 81.73 391.98 85.33 390.1 85.33 390.1 84.43 388.39 84.43 388.39 85.33 386.51 85.33 386.51 81.73 383.87 81.73 383.87 85.33 382 85.33 382 84.43 380.27 84.43 380.27 85.33 378.39 85.33 378.39 81.73 371.7 81.73 371.7 85.33 369.83 85.33 369.83 84.43 344.4 84.43 344.4 92.31 345.3 92.31 345.3 94.19 341.7 94.19 341.7 100.42 392.35 100.42 392.35 99.52 394.22 99.52 394.22 106.8 392.35 106.8 392.35 105.9 341.7 105.9 341.7 112.13 345.3 112.13 345.3 114 344.4 114 344.4 126.69 347.06 126.69 374.78 126.69 374.78 125.78 376.66 125.78 376.66 129.39 393.7 129.39 393.7 125.79 395.57 125.79 395.57 126.69 417.43 126.69 417.43 84.43"/></g><g id="POLYLINE-25" data-name="POLYLINE"><polygon class="cls-2" points="293.74 29.67 293.74 46.57 294.64 46.57 294.64 48.45 291.04 48.45 291.04 55.12 294.64 55.12 294.64 57 293.74 57 293.74 58.71 294.64 58.71 294.64 60.59 291.04 60.59 291.04 63.23 294.64 63.23 294.64 65.1 293.74 65.1 293.74 66.83 294.64 66.83 294.64 68.71 291.04 68.71 291.04 75.39 294.64 75.39 294.64 77.27 293.74 77.27 293.74 102.7 301.62 102.7 301.62 101.8 303.5 101.8 303.5 105.4 309.73 105.4 309.73 54.75 308.83 54.75 308.83 52.88 316.11 52.88 316.11 54.75 315.21 54.75 315.21 105.4 321.44 105.4 321.44 101.8 323.31 101.8 323.31 102.7 336 102.7 336 100.04 336 72.32 335.1 72.32 335.1 70.44 338.7 70.44 338.7 53.4 335.1 53.4 335.1 51.52 336 51.52 336 29.67 293.74 29.67"/></g><g id="POLYLINE-26" data-name="POLYLINE"><polygon class="cls-2" points="244.2 29.66 244.2 46.56 245.1 46.56 245.1 48.43 241.5 48.43 241.5 55.11 245.1 55.11 245.1 56.98 244.2 56.98 244.2 58.7 245.1 58.7 245.1 60.58 241.5 60.58 241.5 63.21 245.1 63.21 245.1 65.09 244.2 65.09 244.2 66.82 245.1 66.82 245.1 68.69 241.5 68.69 241.5 75.38 245.1 75.38 245.1 77.26 244.2 77.26 244.2 102.69 252.08 102.69 252.08 101.79 253.96 101.79 253.96 105.39 260.19 105.39 260.19 54.74 259.29 54.74 259.29 52.86 266.57 52.86 266.57 54.74 265.67 54.74 265.67 105.39 271.9 105.39 271.9 101.79 273.77 101.79 273.77 102.69 286.46 102.69 286.45 100.02 286.45 72.3 285.55 72.3 285.55 70.43 289.16 70.43 289.16 53.39 285.56 53.39 285.56 51.51 286.46 51.51 286.46 29.66 244.2 29.66"/></g><g id="POLYLINE-27" data-name="POLYLINE"><path class="cls-2" d="M321.86,129.48a.94.94,0,0,0-.47,1.25,1,1,0,0,0,.23.3l14.77,13.3a.92.92,0,0,0,1.32-.07.91.91,0,0,0,.2-.33l3.19-9.5,3.6,3.25-.6.67,1.39,1.25,2.41-2.68,18.45,16.61v43.74h-.9v1.87h3.6v30h-3.6V231h.9v87.51h-.9v1.87h3.6V350.3h-3.6v1.88h.9v43.67L348,379.29l2.41-2.68-1.4-1.25,0,0-.58.64-3.61-3.24,9.12-4.17h0a.93.93,0,0,0,.46-1.24,1,1,0,0,0-.22-.31l-14.77-13.3a1,1,0,0,0-1.33.07,1.09,1.09,0,0,0-.19.33l-3.19,9.5L331,360.4l.6-.67-1.39-1.25-2.41,2.68-18.45-16.61V301.47H313v-1.88h-.9v-5.33h.9v-1.87h-3.61V280.45H313v-1.88h-.9v-5.33h.9v-1.87h-3.61v-60H313v-1.87h-.9v-5.33h.9v-1.88h-3.61V190.37H313V188.5h-.9v-5.33h.9v-1.88h-3.61v-60H313v-1.88h-.9V104.66l15.69,14.13-2.41,2.68,1.39,1.26.6-.67,3.62,3.25-9.11,4.17Z"/></g><g id="POLYLINE-28" data-name="POLYLINE"><polygon class="cls-2" points="630.62 34.89 613.72 34.89 613.72 35.79 611.85 35.79 611.85 32.18 605.17 32.18 605.17 35.79 603.3 35.79 603.3 34.89 601.58 34.89 601.58 35.79 599.71 35.79 599.71 32.18 597.07 32.18 597.07 35.79 595.19 35.79 595.19 34.89 593.47 34.89 593.47 35.79 591.59 35.79 591.59 32.18 584.9 32.18 584.9 35.79 583.02 35.79 583.02 34.89 557.59 34.89 557.59 42.77 558.5 42.77 558.5 44.64 554.89 44.64 554.89 50.88 605.54 50.88 605.54 49.97 607.42 49.97 607.42 57.26 605.54 57.26 605.54 56.35 554.89 56.35 554.89 62.58 558.5 62.58 558.5 64.46 557.59 64.46 557.59 77.14 560.26 77.14 587.98 77.14 587.98 76.24 589.85 76.24 589.85 79.85 606.89 79.85 606.89 76.25 608.77 76.25 608.77 77.15 630.62 77.15 630.62 34.89"/></g><g id="POLYLINE-29" data-name="POLYLINE"><polygon class="cls-2" points="630.61 84.43 613.71 84.43 613.71 85.33 611.83 85.33 611.83 81.73 605.16 81.73 605.16 85.33 603.28 85.33 603.28 84.43 601.57 84.43 601.57 85.33 599.69 85.33 599.69 81.73 597.05 81.73 597.05 85.33 595.18 85.33 595.18 84.43 593.45 84.43 593.45 85.33 591.58 85.33 591.58 81.73 584.88 81.73 584.88 85.33 583.01 85.33 583.01 84.43 557.58 84.43 557.58 92.31 558.48 92.31 558.48 94.19 554.88 94.19 554.88 100.42 605.53 100.42 605.53 99.52 607.4 99.52 607.4 106.8 605.53 106.8 605.53 105.9 554.88 105.9 554.88 112.13 558.48 112.13 558.48 114 557.58 114 557.58 126.69 560.24 126.69 587.96 126.69 587.96 125.78 589.84 125.78 589.84 129.39 606.88 129.39 606.88 125.79 608.76 125.79 608.76 126.69 630.61 126.69 630.61 84.43"/></g><g id="POLYLINE-30" data-name="POLYLINE"><polygon class="cls-2" points="457.38 31.46 457.38 48.36 458.28 48.36 458.28 50.23 454.68 50.23 454.68 56.91 458.28 56.91 458.28 58.78 457.38 58.78 457.38 60.5 458.28 60.5 458.28 62.38 454.68 62.38 454.68 65.01 458.28 65.01 458.28 66.89 457.38 66.89 457.38 68.62 458.28 68.62 458.28 70.49 454.68 70.49 454.68 77.18 458.28 77.18 458.28 79.06 457.38 79.06 457.38 104.49 465.26 104.49 465.26 103.59 467.14 103.59 467.14 107.19 473.37 107.19 473.37 56.54 472.47 56.54 472.47 54.66 479.75 54.66 479.75 56.54 478.85 56.54 478.85 107.19 485.08 107.19 485.08 103.59 486.95 103.59 486.95 104.49 499.64 104.49 499.64 101.83 499.64 74.11 498.74 74.11 498.74 72.23 502.34 72.23 502.34 55.19 498.74 55.19 498.74 53.31 499.64 53.31 499.64 31.46 457.38 31.46"/></g><g id="POLYLINE-31" data-name="POLYLINE"><polygon class="cls-2" points="506.92 31.48 506.92 48.37 507.82 48.37 507.82 50.25 504.22 50.25 504.22 56.92 507.82 56.92 507.82 58.8 506.92 58.8 506.92 60.51 507.82 60.51 507.82 62.39 504.22 62.39 504.22 65.03 507.82 65.03 507.82 66.9 506.92 66.9 506.92 68.63 507.82 68.63 507.82 70.51 504.22 70.51 504.22 77.2 507.82 77.2 507.82 79.07 506.92 79.07 506.92 104.5 514.8 104.5 514.8 103.6 516.68 103.6 516.68 107.2 522.91 107.2 522.91 56.55 522.01 56.55 522.01 54.68 529.29 54.68 529.29 56.55 528.39 56.55 528.39 107.2 534.62 107.2 534.62 103.6 536.5 103.6 536.5 104.5 549.18 104.5 549.18 101.84 549.18 74.12 548.28 74.12 548.28 72.24 551.88 72.24 551.88 55.2 548.28 55.2 548.28 53.33 549.18 53.33 549.18 31.48 506.92 31.48"/></g><g id="POLYLINE-32" data-name="POLYLINE"><polygon class="cls-2" points="532.72 109.07 515.83 109.07 515.83 109.97 513.95 109.97 513.95 106.36 507.28 106.36 507.28 109.97 505.4 109.97 505.4 109.07 503.69 109.07 503.69 109.97 501.81 109.97 501.81 106.36 499.17 106.36 499.17 109.97 497.3 109.97 497.3 109.07 495.57 109.07 495.57 109.97 493.69 109.97 493.69 106.36 487 106.36 487 109.97 485.13 109.97 485.13 109.07 459.7 109.07 459.7 116.95 460.6 116.95 460.6 118.83 457 118.83 457 125.06 507.64 125.06 507.64 124.16 509.52 124.16 509.52 131.44 507.64 131.44 507.64 130.54 457 130.54 457 136.77 460.6 136.77 460.6 138.64 459.7 138.64 459.7 151.33 462.36 151.32 490.08 151.32 490.08 150.42 491.96 150.42 491.96 154.03 509 154.03 509 150.43 510.87 150.43 510.87 151.33 532.72 151.33 532.72 109.07"/></g><g id="POLYLINE-33" data-name="POLYLINE"><polygon class="cls-2" points="813.39 255.47 823.38 246.48 823.98 247.15 825.37 245.89 820.5 240.48 819.11 241.74 819.71 242.41 809.72 251.4 809.12 250.73 807.73 251.98 812.6 257.39 813.99 256.14 813.39 255.47"/></g><g id="POLYLINE-34" data-name="POLYLINE"><polygon class="cls-2" points="970.18 226.76 960.19 235.75 959.59 235.08 958.2 236.34 963.07 241.75 964.46 240.49 963.86 239.82 973.85 230.83 974.45 231.5 975.84 230.25 970.97 224.84 969.58 226.09 970.18 226.76"/></g><g id="POLYLINE-35" data-name="POLYLINE"><polygon class="cls-2" points="970.18 105.55 960.19 114.54 959.59 113.87 958.2 115.13 963.07 120.54 964.46 119.28 963.86 118.61 973.85 109.62 974.45 110.29 975.84 109.04 970.97 103.63 969.58 104.88 970.18 105.55"/></g><g id="POLYLINE-36" data-name="POLYLINE"><path class="cls-2" d="M953.32,61.94,966,50.49a.72.72,0,1,1,1,1.06L954.28,63a.72.72,0,0,1-1-1.06Z"/></g><g id="POLYLINE-37" data-name="POLYLINE"><polygon class="cls-2" points="910.05 82.22 910.05 80.35 902.76 80.35 902.76 82.22 903.67 82.22 903.67 122.38 902.76 122.38 902.76 124.26 910.05 124.26 910.05 122.38 909.15 122.38 909.15 82.22 910.05 82.22"/></g><g id="POLYLINE-38" data-name="POLYLINE"><polygon class="cls-2" points="910.05 203.43 910.05 201.56 902.76 201.56 902.76 203.43 903.67 203.43 903.67 243.59 902.76 243.59 902.76 245.47 910.05 245.47 910.05 243.59 909.15 243.59 909.15 203.43 910.05 203.43"/></g><g id="POLYLINE-39" data-name="POLYLINE"><path class="cls-2" d="M886.25,69.92a.72.72,0,0,0,1.43,0v-12a.72.72,0,0,0-1.43,0Z"/></g><g id="POLYLINE-40" data-name="POLYLINE"><path class="cls-2" d="M887.68,160V148a.72.72,0,0,0-1.43,0v12a.72.72,0,1,0,1.43,0Z"/></g><g id="POLYLINE-41" data-name="POLYLINE"><path class="cls-2" d="M887.68,250.06v-12a.72.72,0,0,0-1.43,0v12a.72.72,0,0,0,1.43,0Z"/></g><g id="POLYLINE-42" data-name="POLYLINE"><polygon class="cls-2" points="1023.21 327.12 1024.61 325.87 1024 325.2 1041.35 309.58 1041.95 310.25 1043.35 308.99 1038.48 303.58 1037.08 304.84 1037.68 305.51 1020.34 321.13 1019.73 320.46 1018.34 321.71 1023.21 327.12"/></g><g id="POLYLINE-43" data-name="POLYLINE"><polygon class="cls-2" points="1023.21 205.91 1024.61 204.66 1024 203.99 1041.35 188.37 1041.95 189.04 1043.35 187.78 1038.48 182.37 1037.08 183.63 1037.68 184.3 1020.34 199.92 1019.73 199.25 1018.34 200.5 1023.21 205.91"/></g><g id="POLYLINE-44" data-name="POLYLINE"><path class="cls-2" d="M1048.22,362.18l-20.08,18.08a.71.71,0,1,1-1-1.06l20.08-18.08a.71.71,0,0,1,1,1.06Z"/></g><g id="POLYLINE-45" data-name="POLYLINE"><polygon class="cls-2" points="685.71 185.57 692.95 185.57 692.95 187.45 692.05 187.45 692.05 227.61 692.95 227.61 692.95 229.49 685.67 229.49 685.67 227.61 686.57 227.61 686.57 187.45 685.67 187.45 685.67 185.57 685.71 185.57"/></g><g id="POLYLINE-46" data-name="POLYLINE"><polygon class="cls-2" points="685.71 306.78 692.95 306.78 692.95 308.66 692.05 308.66 692.05 348.82 692.95 348.82 692.95 350.7 685.67 350.7 685.67 348.82 686.57 348.82 686.57 308.66 685.67 308.66 685.67 306.78 685.71 306.78"/></g><g id="POLYLINE-47" data-name="POLYLINE"><polygon class="cls-2" points="670.58 237.4 670.58 237.42 670.58 237.44 670.58 237.45 670.58 237.47 670.58 237.48 670.57 237.5 670.57 237.52 670.57 237.53 670.57 237.55 670.56 237.57 670.56 237.58 670.55 237.6 670.55 237.62 670.54 237.63 670.54 237.65 670.53 237.66 670.52 237.68 670.52 237.7 670.51 237.71 670.5 237.73 670.49 237.75 670.48 237.76 670.47 237.78 670.46 237.79 670.45 237.81 670.44 237.82 670.43 237.84 670.42 237.85 670.41 237.87 670.4 237.88 670.38 237.89 670.37 237.91 670.36 237.92 670.34 237.93 670.33 237.94 670.32 237.96 670.3 237.97 670.29 237.98 670.27 237.99 670.26 238 670.24 238.01 670.23 238.02 670.21 238.03 670.19 238.04 670.18 238.04 670.16 238.05 670.15 238.06 670.13 238.07 670.11 238.07 670.1 238.08 670.08 238.08 670.06 238.09 670.05 238.09 670.03 238.1 670.01 238.1 670 238.1 669.98 238.11 669.96 238.11 669.95 238.11 669.93 238.11 669.91 238.11 669.9 238.12 669.88 238.12 669.87 238.12 669.85 238.12 669.84 238.12 669.82 238.11 669.8 238.11 669.79 238.11 669.77 238.11 669.75 238.11 669.74 238.1 669.72 238.1 669.7 238.1 669.69 238.09 669.67 238.09 669.65 238.08 669.64 238.08 669.62 238.07 669.6 238.07 669.59 238.06 669.57 238.05 669.55 238.04 669.54 238.04 669.52 238.03 669.51 238.02 669.49 238.01 669.48 238 669.46 237.99 669.45 237.98 669.43 237.97 669.42 237.96 669.4 237.94 669.39 237.93 669.38 237.92 669.36 237.91 669.35 237.89 669.34 237.88 669.33 237.87 669.31 237.85 669.3 237.84 669.29 237.82 669.28 237.81 669.27 237.79 669.26 237.78 669.25 237.76 669.24 237.75 669.23 237.73 669.23 237.71 669.22 237.7 669.21 237.68 669.2 237.66 669.2 237.65 669.19 237.63 669.19 237.62 669.18 237.6 669.18 237.58 669.17 237.57 669.17 237.55 669.17 237.53 669.16 237.52 669.16 237.5 669.16 237.48 669.16 237.47 669.15 237.45 669.15 237.44 669.15 237.42 669.15 237.4 669.15 225.39 669.15 225.38 669.15 225.36 669.15 225.34 669.16 225.33 669.16 225.31 669.16 225.3 669.16 225.28 669.17 225.26 669.17 225.25 669.17 225.23 669.18 225.21 669.18 225.2 669.19 225.18 669.19 225.16 669.2 225.15 669.2 225.13 669.21 225.11 669.22 225.1 669.23 225.08 669.23 225.06 669.24 225.05 669.25 225.03 669.26 225.02 669.27 225 669.28 224.99 669.29 224.97 669.3 224.96 669.31 224.94 669.33 224.93 669.34 224.91 669.35 224.9 669.36 224.89 669.38 224.88 669.39 224.86 669.4 224.85 669.42 224.84 669.43 224.83 669.45 224.82 669.46 224.81 669.48 224.8 669.49 224.79 669.51 224.78 669.52 224.77 669.54 224.76 669.55 224.75 669.57 224.74 669.59 224.74 669.6 224.73 669.62 224.72 669.64 224.72 669.65 224.71 669.67 224.71 669.69 224.7 669.7 224.7 669.72 224.69 669.74 224.69 669.75 224.69 669.77 224.69 669.79 224.68 669.8 224.68 669.82 224.68 669.84 224.68 669.85 224.68 669.87 224.68 669.88 224.68 669.9 224.68 669.91 224.68 669.93 224.68 669.95 224.68 669.96 224.69 669.98 224.69 670 224.69 670.01 224.69 670.03 224.7 670.05 224.7 670.06 224.71 670.08 224.71 670.1 224.72 670.11 224.72 670.13 224.73 670.15 224.74 670.16 224.74 670.18 224.75 670.19 224.76 670.21 224.77 670.23 224.78 670.24 224.79 670.26 224.8 670.27 224.81 670.29 224.82 670.3 224.83 670.32 224.84 670.33 224.85 670.34 224.86 670.36 224.88 670.37 224.89 670.38 224.9 670.4 224.91 670.41 224.93 670.42 224.94 670.43 224.96 670.44 224.97 670.45 224.99 670.46 225 670.47 225.02 670.48 225.03 670.49 225.05 670.5 225.06 670.51 225.08 670.52 225.1 670.52 225.11 670.53 225.13 670.54 225.15 670.54 225.16 670.55 225.18 670.55 225.2 670.56 225.21 670.56 225.23 670.57 225.25 670.57 225.26 670.57 225.28 670.57 225.3 670.58 225.31 670.58 225.33 670.58 225.34 670.58 225.36 670.58 225.38 670.58 225.39 670.58 237.4"/></g><g id="POLYLINE-48" data-name="POLYLINE"><polygon class="cls-2" points="670.58 327.48 670.58 327.5 670.58 327.51 670.58 327.53 670.58 327.54 670.58 327.56 670.57 327.58 670.57 327.59 670.57 327.61 670.57 327.63 670.56 327.64 670.56 327.66 670.55 327.68 670.55 327.69 670.54 327.71 670.54 327.73 670.53 327.74 670.52 327.76 670.52 327.77 670.51 327.79 670.5 327.81 670.49 327.82 670.48 327.84 670.47 327.85 670.46 327.87 670.45 327.88 670.44 327.9 670.43 327.91 670.42 327.93 670.41 327.94 670.4 327.96 670.38 327.97 670.37 327.98 670.36 328 670.34 328.01 670.33 328.02 670.32 328.03 670.3 328.04 670.29 328.06 670.27 328.07 670.26 328.08 670.24 328.09 670.23 328.1 670.21 328.1 670.19 328.11 670.18 328.12 670.16 328.13 670.15 328.13 670.13 328.14 670.11 328.15 670.1 328.15 670.08 328.16 670.06 328.17 670.05 328.17 670.03 328.17 670.01 328.18 670 328.18 669.98 328.18 669.96 328.19 669.95 328.19 669.93 328.19 669.91 328.19 669.9 328.19 669.88 328.19 669.87 328.19 669.85 328.19 669.84 328.19 669.82 328.19 669.8 328.19 669.79 328.19 669.77 328.19 669.75 328.18 669.74 328.18 669.72 328.18 669.7 328.17 669.69 328.17 669.67 328.17 669.65 328.16 669.64 328.15 669.62 328.15 669.6 328.14 669.59 328.13 669.57 328.13 669.55 328.12 669.54 328.11 669.52 328.1 669.51 328.1 669.49 328.09 669.48 328.08 669.46 328.07 669.45 328.06 669.43 328.04 669.42 328.03 669.4 328.02 669.39 328.01 669.38 328 669.36 327.98 669.35 327.97 669.34 327.96 669.33 327.94 669.31 327.93 669.3 327.91 669.29 327.9 669.28 327.88 669.27 327.87 669.26 327.85 669.25 327.84 669.24 327.82 669.23 327.81 669.23 327.79 669.22 327.77 669.21 327.76 669.2 327.74 669.2 327.73 669.19 327.71 669.19 327.69 669.18 327.68 669.18 327.66 669.17 327.64 669.17 327.63 669.17 327.61 669.16 327.59 669.16 327.58 669.16 327.56 669.16 327.54 669.15 327.53 669.15 327.51 669.15 327.5 669.15 327.48 669.15 315.47 669.15 315.45 669.15 315.44 669.15 315.42 669.16 315.4 669.16 315.39 669.16 315.37 669.16 315.36 669.17 315.34 669.17 315.32 669.17 315.31 669.18 315.29 669.18 315.27 669.19 315.26 669.19 315.24 669.2 315.22 669.2 315.21 669.21 315.19 669.22 315.17 669.23 315.16 669.23 315.14 669.24 315.13 669.25 315.11 669.26 315.09 669.27 315.08 669.28 315.06 669.29 315.05 669.3 315.03 669.31 315.02 669.33 315 669.34 314.99 669.35 314.98 669.36 314.96 669.38 314.95 669.39 314.94 669.4 314.93 669.42 314.92 669.43 314.9 669.45 314.89 669.46 314.88 669.48 314.87 669.49 314.86 669.51 314.85 669.52 314.84 669.54 314.84 669.55 314.83 669.57 314.82 669.59 314.81 669.6 314.81 669.62 314.8 669.64 314.79 669.65 314.79 669.67 314.78 669.69 314.78 669.7 314.77 669.72 314.77 669.74 314.77 669.75 314.76 669.77 314.76 669.79 314.76 669.8 314.76 669.82 314.76 669.84 314.76 669.85 314.76 669.87 314.76 669.88 314.76 669.9 314.76 669.91 314.76 669.93 314.76 669.95 314.76 669.96 314.76 669.98 314.76 670 314.77 670.01 314.77 670.03 314.77 670.05 314.78 670.06 314.78 670.08 314.79 670.1 314.79 670.11 314.8 670.13 314.81 670.15 314.81 670.16 314.82 670.18 314.83 670.19 314.84 670.21 314.84 670.23 314.85 670.24 314.86 670.26 314.87 670.27 314.88 670.29 314.89 670.3 314.9 670.32 314.92 670.33 314.93 670.34 314.94 670.36 314.95 670.37 314.96 670.38 314.98 670.4 314.99 670.41 315 670.42 315.02 670.43 315.03 670.44 315.05 670.45 315.06 670.46 315.08 670.47 315.09 670.48 315.11 670.49 315.13 670.5 315.14 670.51 315.16 670.52 315.17 670.52 315.19 670.53 315.21 670.54 315.22 670.54 315.24 670.55 315.26 670.55 315.27 670.56 315.29 670.56 315.31 670.57 315.32 670.57 315.34 670.57 315.36 670.57 315.37 670.58 315.39 670.58 315.4 670.58 315.42 670.58 315.44 670.58 315.45 670.58 315.47 670.58 327.48"/></g><g id="POLYLINE-49" data-name="POLYLINE"><polygon class="cls-2" points="742.33 260.81 737.46 255.4 738.85 254.15 739.45 254.82 756.8 239.19 756.2 238.53 757.59 237.27 762.46 242.68 761.07 243.94 760.47 243.27 743.12 258.89 743.72 259.56 742.33 260.81"/></g><g id="POLYLINE-50" data-name="POLYLINE"><polygon class="cls-2" points="274.43 255.47 264.44 246.48 263.84 247.15 262.45 245.89 267.32 240.48 268.71 241.74 268.11 242.41 278.1 251.4 278.7 250.73 280.09 251.98 275.22 257.39 273.83 256.14 274.43 255.47"/></g><g id="POLYLINE-51" data-name="POLYLINE"><polygon class="cls-2" points="117.64 226.76 127.63 235.75 128.23 235.08 129.63 236.34 124.75 241.75 123.36 240.49 123.96 239.82 113.98 230.83 113.37 231.5 111.98 230.25 116.85 224.84 118.25 226.09 117.64 226.76"/></g><g id="POLYLINE-52" data-name="POLYLINE"><polygon class="cls-2" points="117.64 105.55 127.63 114.54 128.23 113.87 129.63 115.13 124.75 120.54 123.36 119.28 123.96 118.61 113.98 109.62 113.37 110.29 111.98 109.04 116.85 103.63 118.25 104.88 117.64 105.55"/></g><g id="POLYLINE-53" data-name="POLYLINE"><path class="cls-2" d="M134.5,61.94,121.78,50.49a.72.72,0,0,0-1,0,.71.71,0,0,0,.06,1L133.54,63a.72.72,0,0,0,1-1.06Z"/></g><g id="POLYLINE-54" data-name="POLYLINE"><polygon class="cls-2" points="177.77 82.22 177.77 80.35 185.06 80.35 185.06 82.22 184.16 82.22 184.16 122.38 185.06 122.38 185.06 124.26 177.77 124.26 177.77 122.38 178.68 122.38 178.68 82.22 177.77 82.22"/></g><g id="POLYLINE-55" data-name="POLYLINE"><polygon class="cls-2" points="177.77 203.43 177.77 201.56 185.06 201.56 185.06 203.43 184.16 203.43 184.16 243.59 185.06 243.59 185.06 245.47 177.77 245.47 177.77 243.59 178.68 243.59 178.68 203.43 177.77 203.43"/></g><g id="POLYLINE-56" data-name="POLYLINE"><path class="cls-2" d="M201.57,69.92a.72.72,0,0,1-1.43,0v-12a.72.72,0,0,1,1.43,0Z"/></g><g id="POLYLINE-57" data-name="POLYLINE"><path class="cls-2" d="M200.14,160V148a.72.72,0,0,1,1.43,0v12a.72.72,0,1,1-1.43,0Z"/></g><g id="POLYLINE-58" data-name="POLYLINE"><path class="cls-2" d="M200.14,250.06v-12a.72.72,0,0,1,1.43,0v12a.72.72,0,0,1-1.43,0Z"/></g><g id="POLYLINE-59" data-name="POLYLINE"><polygon class="cls-2" points="64.61 327.12 63.22 325.87 63.82 325.2 46.47 309.58 45.87 310.25 44.47 308.99 49.34 303.58 50.74 304.84 50.14 305.51 67.48 321.13 68.09 320.46 69.48 321.71 64.61 327.12"/></g><g id="POLYLINE-60" data-name="POLYLINE"><polygon class="cls-2" points="64.61 205.91 63.22 204.66 63.82 203.99 46.47 188.37 45.87 189.04 44.47 187.78 49.34 182.37 50.74 183.63 50.14 184.3 67.48 199.92 68.09 199.25 69.48 200.5 64.61 205.91"/></g><g id="POLYLINE-61" data-name="POLYLINE"><path class="cls-2" d="M39.6,362.18l20.08,18.08a.71.71,0,0,0,1-.05.72.72,0,0,0,0-1L40.55,361.12a.71.71,0,0,0-.95,1.06Z"/></g><g id="POLYLINE-62" data-name="POLYLINE"><polygon class="cls-2" points="402.12 185.57 394.87 185.57 394.87 187.45 395.77 187.45 395.77 227.61 394.87 227.61 394.87 229.49 402.15 229.49 402.15 227.61 401.25 227.61 401.25 187.45 402.15 187.45 402.15 185.57 402.12 185.57"/></g><g id="POLYLINE-63" data-name="POLYLINE"><polygon class="cls-2" points="402.12 306.78 394.87 306.78 394.87 308.66 395.77 308.66 395.77 348.82 394.87 348.82 394.87 350.7 402.15 350.7 402.15 348.82 401.25 348.82 401.25 308.66 402.15 308.66 402.15 306.78 402.12 306.78"/></g><g id="POLYLINE-64" data-name="POLYLINE"><polygon class="cls-2" points="417.24 237.4 417.24 237.42 417.24 237.44 417.24 237.45 417.24 237.47 417.25 237.48 417.25 237.5 417.25 237.52 417.25 237.53 417.26 237.55 417.26 237.57 417.26 237.58 417.27 237.6 417.27 237.62 417.28 237.63 417.29 237.65 417.29 237.66 417.3 237.68 417.31 237.7 417.31 237.71 417.32 237.73 417.33 237.75 417.34 237.76 417.35 237.78 417.36 237.79 417.37 237.81 417.38 237.82 417.39 237.84 417.4 237.85 417.41 237.87 417.42 237.88 417.44 237.89 417.45 237.91 417.46 237.92 417.48 237.93 417.49 237.94 417.5 237.96 417.52 237.97 417.53 237.98 417.55 237.99 417.56 238 417.58 238.01 417.6 238.02 417.61 238.03 417.63 238.04 417.64 238.04 417.66 238.05 417.68 238.06 417.69 238.07 417.71 238.07 417.73 238.08 417.74 238.08 417.76 238.09 417.77 238.09 417.79 238.1 417.81 238.1 417.82 238.1 417.84 238.11 417.86 238.11 417.87 238.11 417.89 238.11 417.91 238.11 417.92 238.12 417.94 238.12 417.95 238.12 417.97 238.12 417.99 238.12 418 238.11 418.02 238.11 418.03 238.11 418.05 238.11 418.07 238.11 418.08 238.1 418.1 238.1 418.12 238.1 418.13 238.09 418.15 238.09 418.17 238.08 418.18 238.08 418.2 238.07 418.22 238.07 418.23 238.06 418.25 238.05 418.27 238.04 418.28 238.04 418.3 238.03 418.31 238.02 418.33 238.01 418.34 238 418.36 237.99 418.37 237.98 418.39 237.97 418.4 237.96 418.42 237.94 418.43 237.93 418.44 237.92 418.46 237.91 418.47 237.89 418.48 237.88 418.5 237.87 418.51 237.85 418.52 237.84 418.53 237.82 418.54 237.81 418.55 237.79 418.56 237.78 418.57 237.76 418.58 237.75 418.59 237.73 418.6 237.71 418.6 237.7 418.61 237.68 418.62 237.66 418.62 237.65 418.63 237.63 418.63 237.62 418.64 237.6 418.64 237.58 418.65 237.57 418.65 237.55 418.65 237.53 418.66 237.52 418.66 237.5 418.66 237.48 418.66 237.47 418.67 237.45 418.67 237.44 418.67 237.42 418.67 237.4 418.67 225.39 418.67 225.38 418.67 225.36 418.67 225.34 418.66 225.33 418.66 225.31 418.66 225.3 418.66 225.28 418.65 225.26 418.65 225.25 418.65 225.23 418.64 225.21 418.64 225.2 418.63 225.18 418.63 225.16 418.62 225.15 418.62 225.13 418.61 225.11 418.6 225.1 418.6 225.08 418.59 225.06 418.58 225.05 418.57 225.03 418.56 225.02 418.55 225 418.54 224.99 418.53 224.97 418.52 224.96 418.51 224.94 418.5 224.93 418.48 224.91 418.47 224.9 418.46 224.89 418.44 224.88 418.43 224.86 418.42 224.85 418.4 224.84 418.39 224.83 418.37 224.82 418.36 224.81 418.34 224.8 418.33 224.79 418.31 224.78 418.3 224.77 418.28 224.76 418.27 224.75 418.25 224.74 418.23 224.74 418.22 224.73 418.2 224.72 418.18 224.72 418.17 224.71 418.15 224.71 418.13 224.7 418.12 224.7 418.1 224.69 418.08 224.69 418.07 224.69 418.05 224.69 418.03 224.68 418.02 224.68 418 224.68 417.99 224.68 417.97 224.68 417.95 224.68 417.94 224.68 417.92 224.68 417.91 224.68 417.89 224.68 417.87 224.68 417.86 224.69 417.84 224.69 417.82 224.69 417.81 224.69 417.79 224.7 417.77 224.7 417.76 224.71 417.74 224.71 417.73 224.72 417.71 224.72 417.69 224.73 417.68 224.74 417.66 224.74 417.64 224.75 417.63 224.76 417.61 224.77 417.6 224.78 417.58 224.79 417.56 224.8 417.55 224.81 417.53 224.82 417.52 224.83 417.5 224.84 417.49 224.85 417.48 224.86 417.46 224.88 417.45 224.89 417.44 224.9 417.42 224.91 417.41 224.93 417.4 224.94 417.39 224.96 417.38 224.97 417.37 224.99 417.36 225 417.35 225.02 417.34 225.03 417.33 225.05 417.32 225.06 417.31 225.08 417.31 225.1 417.3 225.11 417.29 225.13 417.29 225.15 417.28 225.16 417.27 225.18 417.27 225.2 417.26 225.21 417.26 225.23 417.26 225.25 417.25 225.26 417.25 225.28 417.25 225.3 417.25 225.31 417.24 225.33 417.24 225.34 417.24 225.36 417.24 225.38 417.24 225.39 417.24 237.4"/></g><g id="POLYLINE-65" data-name="POLYLINE"><polygon class="cls-2" points="417.24 327.48 417.24 327.5 417.24 327.51 417.24 327.53 417.24 327.54 417.25 327.56 417.25 327.58 417.25 327.59 417.25 327.61 417.26 327.63 417.26 327.64 417.26 327.66 417.27 327.68 417.27 327.69 417.28 327.71 417.29 327.73 417.29 327.74 417.3 327.76 417.31 327.77 417.31 327.79 417.32 327.81 417.33 327.82 417.34 327.84 417.35 327.85 417.36 327.87 417.37 327.88 417.38 327.9 417.39 327.91 417.4 327.93 417.41 327.94 417.42 327.96 417.44 327.97 417.45 327.98 417.46 328 417.48 328.01 417.49 328.02 417.5 328.03 417.52 328.04 417.53 328.06 417.55 328.07 417.56 328.08 417.58 328.09 417.6 328.1 417.61 328.1 417.63 328.11 417.64 328.12 417.66 328.13 417.68 328.13 417.69 328.14 417.71 328.15 417.73 328.15 417.74 328.16 417.76 328.17 417.77 328.17 417.79 328.17 417.81 328.18 417.82 328.18 417.84 328.18 417.86 328.19 417.87 328.19 417.89 328.19 417.91 328.19 417.92 328.19 417.94 328.19 417.95 328.19 417.97 328.19 417.99 328.19 418 328.19 418.02 328.19 418.03 328.19 418.05 328.19 418.07 328.18 418.08 328.18 418.1 328.18 418.12 328.17 418.13 328.17 418.15 328.17 418.17 328.16 418.18 328.15 418.2 328.15 418.22 328.14 418.23 328.13 418.25 328.13 418.27 328.12 418.28 328.11 418.3 328.1 418.31 328.1 418.33 328.09 418.34 328.08 418.36 328.07 418.37 328.06 418.39 328.04 418.4 328.03 418.42 328.02 418.43 328.01 418.44 328 418.46 327.98 418.47 327.97 418.48 327.96 418.5 327.94 418.51 327.93 418.52 327.91 418.53 327.9 418.54 327.88 418.55 327.87 418.56 327.85 418.57 327.84 418.58 327.82 418.59 327.81 418.6 327.79 418.6 327.77 418.61 327.76 418.62 327.74 418.62 327.73 418.63 327.71 418.63 327.69 418.64 327.68 418.64 327.66 418.65 327.64 418.65 327.63 418.65 327.61 418.66 327.59 418.66 327.58 418.66 327.56 418.66 327.54 418.67 327.53 418.67 327.51 418.67 327.5 418.67 327.48 418.67 315.47 418.67 315.45 418.67 315.44 418.67 315.42 418.66 315.4 418.66 315.39 418.66 315.37 418.66 315.36 418.65 315.34 418.65 315.32 418.65 315.31 418.64 315.29 418.64 315.27 418.63 315.26 418.63 315.24 418.62 315.22 418.62 315.21 418.61 315.19 418.6 315.17 418.6 315.16 418.59 315.14 418.58 315.13 418.57 315.11 418.56 315.09 418.55 315.08 418.54 315.06 418.53 315.05 418.52 315.03 418.51 315.02 418.5 315 418.48 314.99 418.47 314.98 418.46 314.96 418.44 314.95 418.43 314.94 418.42 314.93 418.4 314.92 418.39 314.9 418.37 314.89 418.36 314.88 418.34 314.87 418.33 314.86 418.31 314.85 418.3 314.84 418.28 314.84 418.27 314.83 418.25 314.82 418.23 314.81 418.22 314.81 418.2 314.8 418.18 314.79 418.17 314.79 418.15 314.78 418.13 314.78 418.12 314.77 418.1 314.77 418.08 314.77 418.07 314.76 418.05 314.76 418.03 314.76 418.02 314.76 418 314.76 417.99 314.76 417.97 314.76 417.95 314.76 417.94 314.76 417.92 314.76 417.91 314.76 417.89 314.76 417.87 314.76 417.86 314.76 417.84 314.76 417.82 314.77 417.81 314.77 417.79 314.77 417.77 314.78 417.76 314.78 417.74 314.79 417.73 314.79 417.71 314.8 417.69 314.81 417.68 314.81 417.66 314.82 417.64 314.83 417.63 314.84 417.61 314.84 417.6 314.85 417.58 314.86 417.56 314.87 417.55 314.88 417.53 314.89 417.52 314.9 417.5 314.92 417.49 314.93 417.48 314.94 417.46 314.95 417.45 314.96 417.44 314.98 417.42 314.99 417.41 315 417.4 315.02 417.39 315.03 417.38 315.05 417.37 315.06 417.36 315.08 417.35 315.09 417.34 315.11 417.33 315.13 417.32 315.14 417.31 315.16 417.31 315.17 417.3 315.19 417.29 315.21 417.29 315.22 417.28 315.24 417.27 315.26 417.27 315.27 417.26 315.29 417.26 315.31 417.26 315.32 417.25 315.34 417.25 315.36 417.25 315.37 417.25 315.39 417.24 315.4 417.24 315.42 417.24 315.44 417.24 315.45 417.24 315.47 417.24 327.48"/></g><g id="POLYLINE-66" data-name="POLYLINE"><polygon class="cls-2" points="345.49 260.81 350.37 255.4 348.97 254.15 348.37 254.82 331.02 239.19 331.62 238.53 330.23 237.27 325.36 242.68 326.75 243.94 327.35 243.27 344.7 258.89 344.1 259.56 345.49 260.81"/></g><g id="POLYLINE-67" data-name="POLYLINE"><rect class="cls-3" x="878.69" y="29.62" width="183.16" height="366.31"/></g><g id="POLYLINE-68" data-name="POLYLINE"><rect class="cls-3" x="665.51" y="29.62" width="183.16" height="366.31"/></g><g id="POLYLINE-69" data-name="POLYLINE"><rect class="cls-3" x="25.97" y="29.62" width="183.16" height="366.31"/></g><g id="POLYLINE-70" data-name="POLYLINE"><rect class="cls-3" x="239.15" y="29.62" width="183.16" height="366.31"/></g><g id="POLYLINE-71" data-name="POLYLINE"><rect class="cls-3" x="452.33" y="29.62" width="183.16" height="366.31"/></g><g id="POLYLINE-72" data-name="POLYLINE"><path class="cls-2" d="M78.39,57.28a.94.94,0,0,1-.08.36.9.9,0,0,1-1.18.46l-9.26-4h-5.4l-9.26,4a.86.86,0,0,1-.36.08.91.91,0,0,1-.9-.9V50.34a3,3,0,0,1,0-6V37.39A.94.94,0,0,1,52,37a.9.9,0,0,1,1.18-.46l9.26,4h5.4l9.26-4a.86.86,0,0,1,.36-.08.91.91,0,0,1,.9.9v6.94a3,3,0,0,1,0,6Z"/></g><g id="POLYLINE-73" data-name="POLYLINE"><polygon class="cls-2" points="66.45 45.94 63.89 45.95 63.89 45.08 62.47 45.08 62.47 49.59 63.89 49.59 63.89 48.72 66.45 48.71 66.45 49.58 67.87 49.58 67.87 45.07 66.45 45.07 66.45 45.94"/></g><g id="POLYLINE-74" data-name="POLYLINE"><path class="cls-2" d="M128.35,388.85a.94.94,0,0,1-.08.36.9.9,0,0,1-1.18.46l-9.26-4h-5.4l-9.26,4a.86.86,0,0,1-.36.08.91.91,0,0,1-.9-.9v-6.94a3,3,0,0,1,0-6V369a.94.94,0,0,1,.08-.36.89.89,0,0,1,1.18-.46l9.26,4h5.4l9.26-4a.85.85,0,0,1,.35-.08.91.91,0,0,1,.91.9v6.94a3,3,0,0,1,0,6Z"/></g><g id="POLYLINE-75" data-name="POLYLINE"><polygon class="cls-2" points="116.41 377.5 113.85 377.52 113.85 376.65 112.43 376.65 112.43 381.16 113.85 381.16 113.85 380.29 116.41 380.28 116.41 381.15 117.83 381.15 117.83 376.64 116.41 376.64 116.41 377.5"/></g><g id="POLYLINE-76" data-name="POLYLINE"><path class="cls-2" d="M336.21,391.1a.86.86,0,0,1-.08.36.89.89,0,0,1-1.18.47l-9.25-4h-5.41l-9.26,4a.84.84,0,0,1-.35.07.9.9,0,0,1-.91-.9v-6.94a3,3,0,0,1,0-6v-6.94a.91.91,0,0,1,1.26-.83l9.26,4h5.41l9.25-4a.86.86,0,0,1,.36-.07.9.9,0,0,1,.9.9v6.94a3,3,0,0,1,0,6Z"/></g><g id="POLYLINE-77" data-name="POLYLINE"><polygon class="cls-2" points="324.27 379.76 321.71 379.77 321.71 378.9 320.29 378.9 320.29 383.42 321.71 383.42 321.71 382.55 324.27 382.54 324.27 383.4 325.69 383.4 325.69 378.89 324.27 378.89 324.27 379.76"/></g><g id="POLYLINE-78" data-name="POLYLINE"><path class="cls-2" d="M580.51,152.71a.84.84,0,0,1-.07.35.9.9,0,0,1-1.19.47l-9.25-4h-5.41l-9.25,4a.94.94,0,0,1-.36.08.9.9,0,0,1-.9-.9v-6.94a3,3,0,1,1,0-6v-6.94a.92.92,0,0,1,.07-.36.91.91,0,0,1,1.19-.46l9.25,4H570l9.25-4a.94.94,0,0,1,.36-.08.9.9,0,0,1,.9.9v6.94a3,3,0,1,1,0,6Z"/></g><g id="POLYLINE-79" data-name="POLYLINE"><polygon class="cls-2" points="568.58 141.36 566.01 141.38 566.01 140.51 564.59 140.51 564.59 145.02 566.01 145.02 566.01 144.15 568.58 144.14 568.58 145.01 570 145.01 570 140.5 568.58 140.5 568.58 141.36"/></g><g id="POLYLINE-80" data-name="POLYLINE"><path class="cls-2" d="M627.6,152.71a.84.84,0,0,1-.07.35.9.9,0,0,1-1.19.47l-9.25-4h-5.41l-9.25,4a.89.89,0,0,1-1.26-.82v-6.94a3,3,0,1,1,0-6v-6.94a.92.92,0,0,1,.07-.36.91.91,0,0,1,1.19-.46l9.25,4h5.41l9.25-4a.94.94,0,0,1,.36-.08.9.9,0,0,1,.9.9v6.94a3,3,0,1,1,0,6Z"/></g><g id="POLYLINE-81" data-name="POLYLINE"><polygon class="cls-2" points="615.67 141.36 613.1 141.38 613.1 140.51 611.68 140.51 611.68 145.02 613.1 145.02 613.1 144.15 615.67 144.14 615.67 145.01 617.09 145.01 617.09 140.5 615.67 140.5 615.67 141.36"/></g><g id="POLYLINE-82" data-name="POLYLINE"><path class="cls-2" d="M580.51,279.93a.84.84,0,0,1-.07.35.9.9,0,0,1-1.19.47l-9.25-4h-5.41l-9.25,4a.94.94,0,0,1-.36.08.9.9,0,0,1-.9-.9V273a3,3,0,1,1,0-6V260a.92.92,0,0,1,.07-.36.91.91,0,0,1,1.19-.46l9.25,4H570l9.25-4a.94.94,0,0,1,.36-.08.9.9,0,0,1,.9.9V267a3,3,0,1,1,0,6Z"/></g><g id="POLYLINE-83" data-name="POLYLINE"><polygon class="cls-2" points="568.58 268.58 566.01 268.6 566.01 267.73 564.59 267.73 564.59 272.24 566.01 272.24 566.01 271.37 568.58 271.36 568.58 272.23 570 272.23 570 267.72 568.58 267.72 568.58 268.58"/></g><g id="POLYLINE-84" data-name="POLYLINE"><path class="cls-2" d="M624.9,279.93a.85.85,0,0,1-.08.35.89.89,0,0,1-1.18.47l-9.25-4H609l-9.26,4a.85.85,0,0,1-.35.08.9.9,0,0,1-.9-.9V273a3,3,0,1,1,0-6V260a.92.92,0,0,1,.07-.36.9.9,0,0,1,1.18-.46l9.26,4h5.41l9.25-4a.86.86,0,0,1,.36-.08.9.9,0,0,1,.9.9V267a3,3,0,0,1,0,6Z"/></g><g id="POLYLINE-85" data-name="POLYLINE"><polygon class="cls-2" points="612.96 268.58 610.4 268.6 610.4 267.73 608.98 267.73 608.98 272.24 610.4 272.24 610.4 271.37 612.96 271.36 612.96 272.23 614.39 272.23 614.39 267.72 612.96 267.72 612.96 268.58"/></g><g id="POLYLINE-86" data-name="POLYLINE"><path class="cls-2" d="M779.4,390.39a.94.94,0,0,1-.08.36.9.9,0,0,1-1.18.46l-9.26-4h-5.4l-9.26,4a.86.86,0,0,1-.36.08.9.9,0,0,1-.9-.9v-6.94a3,3,0,0,1,0-6V370.5a.85.85,0,0,1,.08-.35.89.89,0,0,1,1.18-.47l9.26,4h5.4l9.26-4a.86.86,0,0,1,.36-.08.91.91,0,0,1,.9.9v6.94a3,3,0,0,1,0,6Z"/></g><g id="POLYLINE-87" data-name="POLYLINE"><polygon class="cls-2" points="767.46 379.05 764.9 379.06 764.9 378.19 763.48 378.19 763.48 382.7 764.9 382.7 764.9 381.83 767.46 381.82 767.46 382.69 768.88 382.69 768.88 378.18 767.46 378.18 767.46 379.05"/></g><g id="POLYLINE-88" data-name="POLYLINE"><path class="cls-2" d="M987.63,388.85a.92.92,0,0,1-.07.36.91.91,0,0,1-1.19.46l-9.25-4h-5.41l-9.25,4a.89.89,0,0,1-1.26-.82v-6.94a3,3,0,0,1,0-6V369a.92.92,0,0,1,.07-.36.91.91,0,0,1,1.19-.46l9.25,4h5.41l9.25-4a.94.94,0,0,1,.36-.08.9.9,0,0,1,.9.9v6.94a3,3,0,1,1,0,6Z"/></g><g id="POLYLINE-89" data-name="POLYLINE"><polygon class="cls-2" points="975.7 377.5 973.13 377.52 973.13 376.65 971.71 376.65 971.71 381.16 973.13 381.16 973.13 380.29 975.7 380.28 975.7 381.15 977.12 381.15 977.12 376.64 975.7 376.64 975.7 377.5"/></g><g id="POLYLINE-90" data-name="POLYLINE"><path class="cls-2" d="M1040.17,57.28a.94.94,0,0,1-.08.36.9.9,0,0,1-1.18.46l-9.26-4h-5.4l-9.26,4a.86.86,0,0,1-.36.08.91.91,0,0,1-.9-.9V50.34a3,3,0,0,1,0-6V37.39a.94.94,0,0,1,.08-.36.9.9,0,0,1,1.18-.46l9.26,4h5.4l9.26-4a.86.86,0,0,1,.36-.08.91.91,0,0,1,.9.9v6.94a3,3,0,0,1,0,6Z"/></g><g id="POLYLINE-91" data-name="POLYLINE"><polygon class="cls-2" points="1028.23 45.94 1025.67 45.95 1025.67 45.08 1024.25 45.08 1024.25 49.59 1025.67 49.59 1025.67 48.72 1028.23 48.71 1028.23 49.58 1029.65 49.58 1029.65 45.07 1028.23 45.07 1028.23 45.94"/></g></svg>