<svg id="Layer_1" data-name="Layer 1" xmlns="http://www.w3.org/2000/svg" viewBox="0 0 665.92 425.2"><defs><style>.cls-1,.cls-3{fill:none;stroke:#1d1d1b;stroke-miterlimit:10;}.cls-1{stroke-width:0.5px;}.cls-2{font-size:5.3px;fill:#1d1d1b;font-family:Monotxt;}.cls-3{stroke-width:0.25px;}</style></defs><g id="POLYLINE"><path class="cls-1" d="M77.2,88.34l-14.76,16.4L51,94.42l.61-.67-1.4-1.25-2.41,2.68L43.14,91,67.53,63.91l.68.6,1.25-1.4L64,58.24l-1.25,1.39.67.61L39.06,87.33l-4.64-4.18,2.42-2.68-1.4-1.25-.6.67L27,72.79l4-4.41,2.68,2.42,1.25-1.4-.67-.6L36.77,66l.67.6,1.26-1.4L36,62.74,56.09,40.45l2.68,2.41L60,41.47l-.68-.61L61.92,38l.67.61,1.26-1.4-2.68-2.41,3.18-3.54H83.84v3.61h1.88V34H97.07v.91H99V31.27h8.2v3.61H109V34h1.73v.91h1.87V31.27h2.64v3.61h1.87V34h1.73v.91h1.88V31.27H129v3.61h1.88V34h11.35v.91h1.88V31.27h30v3.61h1.88V34h11.35v.91h1.88V31.27h8.19v3.61h1.88V34H201v.91h1.88V31.27h2.63v3.61h1.88V34h1.73v7.55h0a.71.71,0,0,1,0,.14.86.86,0,0,1-1,.71l-7.82-1.3a.94.94,0,0,0-1.08.77.76.76,0,0,0,0,.15V53.54a.94.94,0,0,0,.94.94h.15l7.82-1.3h.15a.86.86,0,0,1,.86.86V65.57a.61.61,0,0,1,0,.14.86.86,0,0,1-1,.71l-7.82-1.3a1,1,0,0,0-1.08.77.86.86,0,0,0,0,.16V77.6a.94.94,0,0,0,.94.94h.15l7.82-1.31h.15a.87.87,0,0,1,.86.87V88.32H77.21v0Z"/></g><g id="POLYLINE-2" data-name="POLYLINE"><path class="cls-1" d="M545.43,110.89a.86.86,0,0,1-.08.36.89.89,0,0,1-1.18.47l-9.27-4h-5.41l-9.26,4a.94.94,0,0,1-.36.08.9.9,0,0,1-.9-.91V104a3,3,0,1,1,0-6V91a.89.89,0,0,1,.07-.36.9.9,0,0,1,1.19-.47l9.26,4h5.41l9.27-4a.86.86,0,0,1,.36-.07.9.9,0,0,1,.9.9v6.94a3,3,0,1,1,0,6Z"/></g><g id="POLYLINE-3" data-name="POLYLINE"><path class="cls-1" d="M504.18,87.71l-14.76,16.4L478,93.8l.61-.67-1.4-1.26-2.41,2.68-4.64-4.17,24.39-27.09.68.6,1.25-1.4L491,57.61,489.77,59l.67.6L466,86.71l-4.64-4.18,2.42-2.68-1.4-1.26-.6.67-7.88-7.09,4-4.41,2.68,2.41,1.25-1.39-.67-.61,2.57-2.85.67.61,1.26-1.4L463,62.12l20.07-22.29,2.68,2.41,1.26-1.4-.68-.6,2.57-2.85.67.61,1.26-1.4-2.68-2.42,3.18-3.53h19.49v3.6h1.88v-.9h11.35v.9h1.88v-3.6h8.2v3.6H536v-.9h1.73v.9h1.87v-3.6h2.64v3.6h1.87v-.9h1.73v.9h1.88v-3.6h8.2v3.6h1.88v-.9h11.35v.9H571v-3.6h30v3.6h1.88v-.9h11.35v.9h1.88v-3.6h8.19v3.6h1.88v-.9h1.73v.9h1.88v-3.6h2.63v3.6h1.88v-.9h1.73v7.54h0a.76.76,0,0,1,0,.15.86.86,0,0,1-1,.71l-7.82-1.31a1,1,0,0,0-1.08.78.76.76,0,0,0,0,.15V52.92a.94.94,0,0,0,.94.94h.15l7.82-1.31h.15a.87.87,0,0,1,.86.87V65a.66.66,0,0,1,0,.14.86.86,0,0,1-1,.71l-7.82-1.3a.94.94,0,0,0-1.08.77.81.81,0,0,0,0,.16V77a.94.94,0,0,0,.94.94l.15,0,7.82-1.3h.15a.87.87,0,0,1,.86.86V87.7H504.18Z"/></g><g id="POLYLINE-4" data-name="POLYLINE"><path class="cls-1" d="M278.51,128.76a.94.94,0,0,1-.08.36.91.91,0,0,1-1.18.47l-9.27-4h-5.41l-9.26,4a1.15,1.15,0,0,1-.36.07.9.9,0,0,1-.9-.9v-6.95a3,3,0,1,1,0-6v-7a.92.92,0,0,1,.07-.36.91.91,0,0,1,1.19-.46l9.26,4H268l9.27-4a.85.85,0,0,1,.35-.08.91.91,0,0,1,.91.9v7a3,3,0,0,1,0,6Z"/></g><g id="POLYLINE-5" data-name="POLYLINE"><path class="cls-1" d="M318.45,128.76a.9.9,0,0,1-1.26.83l-9.26-4h-5.42l-9.26,4a1,1,0,0,1-.36.07.9.9,0,0,1-.9-.9v-6.95a3,3,0,1,1,0-6v-7a.94.94,0,0,1,.08-.36.89.89,0,0,1,1.18-.46l9.26,4h5.42l9.26-4a.89.89,0,0,1,1.26.82v7a3,3,0,1,1,0,6Z"/></g><g id="POLYLINE-6" data-name="POLYLINE"><polygon class="cls-1" points="243.25 104.83 327.97 104.83 327.97 100.69 327.07 100.69 327.07 98.81 330.68 98.81 330.68 89.87 327.07 89.87 327.07 87.99 327.97 87.99 327.97 83.1 327.07 83.1 327.07 81.22 330.68 81.22 330.68 73.78 327.07 73.78 327.07 71.9 327.97 71.9 327.97 52.13 327.07 52.13 327.07 50.25 330.68 50.25 330.68 41.31 327.07 41.31 327.07 39.43 327.97 39.43 327.97 35.29 243.25 35.29 243.25 39.43 244.15 39.43 244.15 41.31 240.54 41.31 240.54 50.25 244.15 50.25 244.15 52.13 243.25 52.13 243.25 56.87 244.15 56.87 244.15 58.75 240.54 58.75 240.54 66.19 244.15 66.19 244.15 68.07 243.25 68.07 243.25 87.99 244.15 87.99 244.15 89.87 240.54 89.87 240.54 98.81 244.15 98.81 244.15 100.69 243.25 100.69 243.25 104.83"/></g><g id="POLYLINE-7" data-name="POLYLINE"><path class="cls-1" d="M199.79,113.19a1.15,1.15,0,0,1-.07.36.91.91,0,0,1-1.19.46l-9.26-4h-5.42l-9.26,4a.89.89,0,0,1-1.26-.82v-7a3,3,0,1,1,0-6v-7a.92.92,0,0,1,.07-.36.91.91,0,0,1,1.19-.46l9.26,4h5.42l9.26-4a.86.86,0,0,1,.36-.08.9.9,0,0,1,.9.9v7a3,3,0,1,1,0,6Z"/></g><g id="POLYLINE-8" data-name="POLYLINE"><path class="cls-1" d="M159.84,113.19a.92.92,0,0,1-.07.36.91.91,0,0,1-1.19.46l-9.26-4h-5.41l-9.27,4a.85.85,0,0,1-.35.08.9.9,0,0,1-.91-.9v-7a3,3,0,0,1,0-6v-7a.94.94,0,0,1,.08-.36.9.9,0,0,1,1.18-.46l9.27,4h5.41l9.26-4a.94.94,0,0,1,.36-.08.9.9,0,0,1,.9.9v7a3,3,0,1,1,0,6Z"/></g><g id="POLYLINE-9" data-name="POLYLINE"><path class="cls-1" d="M119.9,113.19a1.15,1.15,0,0,1-.07.36.91.91,0,0,1-1.19.46l-9.26-4H104l-9.26,4a.89.89,0,0,1-1.26-.82v-7a3,3,0,1,1,0-6v-7a.92.92,0,0,1,.07-.36.91.91,0,0,1,1.19-.46l9.26,4h5.42l9.26-4a.86.86,0,0,1,.36-.08.9.9,0,0,1,.9.9v7a3,3,0,1,1,0,6Z"/></g><g id="POLYLINE-10" data-name="POLYLINE"><path class="cls-1" d="M414.31,162.4h4.33v16.49h-.91v1.88h3.61v15h-3.61v1.88h.91V224h-.91v1.88h3.61v15h-3.61v1.88h.91V269.1h-.91V271h3.61v15h-3.61v1.88h.91V314.2h-.91v1.88h3.61v15h-3.61v1.88h.91V359.3h-.91v1.88h3.61v15h-3.61V378h.91v16.61H333.92V378h.9v-1.88h-3.61v-15h3.61V359.3h-.9V332.92h.9V331h-3.61v-15h3.61V314.2h-.9V287.81h.9v-1.88h-3.61V271h3.61V269.1h-.9V242.71h.9v-1.88h-3.61v-15h3.61V224h-.9V197.61h.9v-1.88h-3.61v-15h3.61v-1.88h-.9v-9.83h4.32a1,1,0,0,0,.87-1.31l-1.79-4.15a.94.94,0,0,1-.07-.34.87.87,0,0,1,.87-.86h9.65a.83.83,0,0,1,.34.07.86.86,0,0,1,.45,1.13l-1.78,4.15a.94.94,0,0,0,.49,1.23,1,1,0,0,0,.37.08h9.64a1,1,0,0,0,.87-1.31l-1.78-4.15a.77.77,0,0,1-.07-.34.86.86,0,0,1,.86-.86h9.65a.8.8,0,0,1,.34.07.86.86,0,0,1,.45,1.13l-1.78,4.15a.94.94,0,0,0,.49,1.23,1,1,0,0,0,.37.08h9.65a1,1,0,0,0,.87-1.31l-1.79-4.15a.94.94,0,0,1-.07-.34.87.87,0,0,1,.87-.86h9.65a.8.8,0,0,1,.34.07.86.86,0,0,1,.45,1.13l-1.78,4.15a.94.94,0,0,0,.49,1.23,1,1,0,0,0,.37.08h9.65a1,1,0,0,0,.87-1.31l-1.79-4.15a.94.94,0,0,1-.07-.34.87.87,0,0,1,.87-.86h9.65a.83.83,0,0,1,.34.07.86.86,0,0,1,.45,1.13l-1.78,4.15a.93.93,0,0,0,.49,1.23,1,1,0,0,0,.37.08h9.65a.93.93,0,0,0,.86-1.31l-1.78-4.15a.94.94,0,0,1-.07-.34A.87.87,0,0,1,414.31,162.4Z"/></g><g id="POLYLINE-11" data-name="POLYLINE"><path class="cls-1" d="M324.1,135.78h4.33v16.49h-.9v1.88h3.6v15h-3.6V171h.9v26.39h-.9v1.88h3.6v15h-3.6v1.88h.9v26.38h-.9v1.88h3.6v15h-3.6v1.88h.9v26.38h-.9v1.88h3.6v15h-3.6v1.88h.9v26.39h-.9v1.88h3.6v15h-3.6v1.88h.9v26.38h-.9v1.88h3.6v15H241v-15h3.61v-1.88h-.9V351.41h.9v-1.88H241v-15h3.61v-1.88h-.9V306.3h.9v-1.88H241v-15h3.61v-1.88h-.9V261.2h.9v-1.88H241v-15h3.61v-1.88h-.9V216.1h.9v-1.88H241v-15h3.61v-1.88h-.9V171h.9v-1.88H241v-15h3.61v-1.88h-.9v-9.83H248a1,1,0,0,0,.94-.94,1,1,0,0,0-.08-.37L247.12,137a.8.8,0,0,1-.07-.34.86.86,0,0,1,.86-.87h9.65a1,1,0,0,1,.34.07.87.87,0,0,1,.45,1.14l-1.78,4.14a1,1,0,0,0,.49,1.24,1,1,0,0,0,.38.07h9.64a.94.94,0,0,0,.94-.94,1,1,0,0,0-.08-.37L266.16,137a.8.8,0,0,1-.07-.34.87.87,0,0,1,.86-.87h9.65a.94.94,0,0,1,.34.07.88.88,0,0,1,.46,1.14l-1.79,4.14a1,1,0,0,0,.5,1.24.9.9,0,0,0,.37.07h9.65a.94.94,0,0,0,.94-.94,1,1,0,0,0-.08-.37L285.21,137a.8.8,0,0,1-.07-.34.86.86,0,0,1,.86-.87h9.65a1,1,0,0,1,.34.07.88.88,0,0,1,.46,1.14l-1.79,4.14a1,1,0,0,0,.5,1.24.9.9,0,0,0,.37.07h9.65a.94.94,0,0,0,.93-.94,1,1,0,0,0-.07-.37L304.26,137a.8.8,0,0,1-.07-.34.86.86,0,0,1,.86-.87h9.65a1,1,0,0,1,.34.07.87.87,0,0,1,.45,1.14l-1.78,4.14a1,1,0,0,0,.49,1.24,1,1,0,0,0,.38.07h9.64a.94.94,0,0,0,.94-.94,1,1,0,0,0-.07-.37L323.31,137a.8.8,0,0,1-.07-.34A.86.86,0,0,1,324.1,135.78Z"/></g><g id="POLYLINE-12" data-name="POLYLINE"><path class="cls-1" d="M501.83,383.48a.94.94,0,0,0-.94.94.77.77,0,0,0,0,.15l1.3,7.82a.76.76,0,0,1,0,.15.86.86,0,0,1-.86.86h-11.7a.86.86,0,0,1-.71-1l1.31-7.82a1,1,0,0,0-.78-1.08h-11.7a.94.94,0,0,0-.94.94.76.76,0,0,0,0,.15l1.31,7.82c0,.05,0,.1,0,.15a.87.87,0,0,1-.87.86H465.61a.86.86,0,0,1-.71-1l1.3-7.82a.94.94,0,0,0-.77-1.08h-6.8v-1.81H455v-8.19h3.6V371.6h-.9V360.25h.9v-1.88H455v-30h3.6V326.5h-.9V315.15h.9v-1.88H455v-8.2h3.6v-1.88h-.9v-1.73h.9v-1.87H455V297h3.6v-1.87h-.9v-1.73h.9v-1.88H455v-8.2h3.6v-1.88h-.9V270h.9v-1.88H455v-30h3.6v-1.88h-.9V224.94h.9v-1.88H455v-8.19h3.6V213h-.9v-1.73h.9v-1.88H455v-2.63h3.6v-1.88h-.9v-1.73h.9v-1.88H455v-8.19h3.6v-1.88h-.9V179.84h.9V178H455V148h3.6v-1.88h-.9V134.73h.9v-1.88H455v-8.19h3.6v-1.81h6.64a.94.94,0,0,0,.94-.93.81.81,0,0,0,0-.16l-1.3-7.82a.71.71,0,0,1,0-.14.86.86,0,0,1,.86-.87h11.69a.88.88,0,0,1,.72,1l-1.31,7.82a.94.94,0,0,0,.77,1.08h11.71a.94.94,0,0,0,.94-.93.81.81,0,0,0,0-.16L489,113.94s0-.1,0-.14a.87.87,0,0,1,.87-.87H501.5a.87.87,0,0,1,.71,1l-1.3,7.82a.93.93,0,0,0,.77,1.08h10.4V383.48Z"/></g><g id="POLYLINE-13" data-name="POLYLINE"><path class="cls-1" d="M617.83,136.62a7.48,7.48,0,0,0-11.12-10,7.55,7.55,0,0,1-11.25-10.08l-20-18v19h3.6v1.88h-.9v11.35h.9v1.88h-3.6v8.2h3.6v1.87h-.9v1.73h.9v1.88h-3.6V149h3.6v1.88h-.9v1.73h.9v1.88h-3.6v8.2h3.6v1.87h-.9v11.36h.9v1.87h-3.6v30h3.6v1.88h-.9V221h.9v1.88h-3.6v8.19h3.6V233h-.9v1.73h.9v1.88h-3.6v2.63h3.6v1.88h-.9v1.73h7.55a.87.87,0,0,0,.86-.87.71.71,0,0,0,0-.14L585.3,234s0-.1,0-.15a.94.94,0,0,1,.94-.94h11.71a.94.94,0,0,1,.77,1.08l-1.3,7.82a.87.87,0,0,0,.71,1h11.69a.86.86,0,0,0,.86-.87.71.71,0,0,0,0-.14l-1.3-7.82a.76.76,0,0,1,0-.15.94.94,0,0,1,.94-.94H622a.93.93,0,0,1,.77,1.08l-1.3,7.82a.87.87,0,0,0,.71,1h10.39v-92.9L617.8,136.65l0,0Z"/></g><g id="POLYLINE-14" data-name="POLYLINE"><polygon class="cls-1" points="334.59 62.45 333.69 62.45 333.69 32.76 359.18 32.76 359.18 33.66 361.06 33.66 361.06 30.05 391.05 30.05 391.05 33.66 392.93 33.66 392.93 32.76 418.41 32.76 418.41 62.45 417.51 62.45 417.51 64.33 421.12 64.33 421.12 71.77 417.51 71.77 417.51 73.65 418.41 73.65 418.41 88.48 392.93 88.48 392.93 87.58 391.05 87.58 391.05 91.19 361.06 91.19 361.06 87.58 359.18 87.58 359.18 88.48 333.69 88.48 333.69 73.65 334.59 73.65 334.59 71.77 330.99 71.77 330.99 64.33 334.59 64.33 334.59 62.45"/></g><g id="POLYLINE-15" data-name="POLYLINE"><polygon class="cls-1" points="418.41 99.87 418.41 102.81 417.51 102.81 417.51 104.69 421.12 104.69 421.12 112.13 417.51 112.13 417.51 114.01 418.41 114.01 418.41 119.35 417.51 119.35 417.51 121.22 421.12 121.22 421.12 133.18 417.51 133.18 417.51 135.06 418.41 135.06 418.41 140.39 417.51 140.39 417.51 142.27 421.12 142.27 421.12 149.72 417.51 149.72 417.51 151.59 418.41 151.59 418.41 155.73 392.93 155.73 392.93 154.83 391.05 154.83 391.05 158.44 361.06 158.44 361.06 154.83 359.18 154.83 359.18 155.73 333.69 155.73 333.69 151.59 334.59 151.59 334.59 149.72 330.99 149.72 330.99 142.27 334.59 142.27 334.59 140.39 333.69 140.39 333.69 135.06 334.59 135.06 334.59 133.18 330.99 133.18 330.99 121.22 334.59 121.22 334.59 119.35 333.69 119.35 333.69 114.01 334.59 114.01 334.59 112.13 330.99 112.13 330.99 104.69 334.59 104.69 334.59 102.81 333.69 102.81 333.69 99.87 418.41 99.87"/></g><g id="POLYLINE-16" data-name="POLYLINE"><path class="cls-1" d="M38.53,155.3a1,1,0,0,1,1.31.87v19.9a.91.91,0,0,1-.08.37.93.93,0,0,1-1.23.49l-9.21-4v6.37h.9v1.88H26.61v15h3.61V198h-.9v7.59h.9v1.88H26.61v7.44h3.61v1.88h-.9v7.59h.9v1.88H26.61v15h3.61v1.88h-.9v6.37l9.21-4h0a.93.93,0,0,1,1.31.86v19.91a1,1,0,0,1-.08.37.93.93,0,0,1-1.23.49l-9.21-4v6.37h.9v1.88H26.61v15h3.61v1.88h-.9v7.59h.9v1.88H26.61v7.44h3.61V307h-.9v7.59h.9v1.88H26.61v15h3.61v1.88h-.9v6.37l9.21-4h0a.93.93,0,0,1,1.31.86v19.9a1,1,0,0,1-.08.38.94.94,0,0,1-1.23.49l-9.21-4v6.37h.9v1.87H26.61v15h3.61V380h-.9V393.1H114V380h-.91v-3.39h3.61v-15h-3.61v-1.87H114v-6.37l-9.21,4h0a1,1,0,0,1-.38.07.94.94,0,0,1-.94-.94v-19.9a.95.95,0,0,1,1.32-.86l9.21,4v-6.37h-.91v-1.88h3.61v-15h-3.61v-1.88H114V307h-.91v-1.88h3.61v-7.44h-3.61v-1.88H114v-7.59h-.91v-1.88h3.61v-15h-3.61v-1.88H114v-6.37l-9.21,4h0a1,1,0,0,1-.38.08.94.94,0,0,1-.94-.94V246.37a1,1,0,0,1,.08-.37,1,1,0,0,1,1.24-.49l9.21,4v-6.37h-.91v-1.88h3.61v-15h-3.61v-1.88H114v-7.59h-.91v-1.88h3.61V207.5h-3.61v-1.88H114V198h-.91v-1.88h3.61v-15h-3.61v-1.88H114v-6.37l-9.21,4h0a1,1,0,0,1-.38.08.94.94,0,0,1-.94-.94v-19.9a1,1,0,0,1,.08-.38,1,1,0,0,1,1.24-.49l9.21,4v-6.37h-.91v-1.88h3.61v-15h-3.61v-1.88H114v-7.59h-.91v-1.88h3.61v-6.69H100.25a.86.86,0,0,0-.87.86.78.78,0,0,0,.09.37l1.63,3.44a.91.91,0,0,1,.1.4,1,1,0,0,1-.94.94H90.73a1,1,0,0,1-.41-.09.93.93,0,0,1-.44-1.25l1.63-3.44a.86.86,0,0,0-.41-1.15.77.77,0,0,0-.37-.08H81.2a.85.85,0,0,0-.86.86.77.77,0,0,0,.08.37l1.64,3.44a.9.9,0,0,1,.09.4.94.94,0,0,1-.94.94H71.68a1,1,0,0,1-.41-.09.93.93,0,0,1-.44-1.25l1.63-3.44a.85.85,0,0,0-.41-1.15.77.77,0,0,0-.37-.08H62.15a.85.85,0,0,0-.86.86.91.91,0,0,0,.08.37L63,122.72a.9.9,0,0,1,.09.4.94.94,0,0,1-.94.94H52.63a1,1,0,0,1-.41-.09,1,1,0,0,1-.44-1.25l1.63-3.44a.86.86,0,0,0-.4-1.15.84.84,0,0,0-.38-.08H43.1a.86.86,0,0,0-.86.86.91.91,0,0,0,.08.37L44,122.72a.9.9,0,0,1,.09.4.94.94,0,0,1-.94.94H29.32v10.15h.9v1.88H26.61v15h3.61v1.88h-.9v6.37l9.21-4Z"/></g><g id="POLYLINE-17" data-name="POLYLINE"><path class="cls-1" d="M622.31,393.15h-.14a.86.86,0,0,1-.71-1l1.3-7.83a.94.94,0,0,0-.77-1.08h-11.7a.94.94,0,0,0-.94.94.76.76,0,0,0,0,.15l1.3,7.83a.61.61,0,0,1,0,.14.85.85,0,0,1-.86.86H598.12a.86.86,0,0,1-.71-1l1.3-7.83a1,1,0,0,0-.77-1.08H586.23a.94.94,0,0,0-.94.94c0,.05,0,.1,0,.15l1.31,7.83a.61.61,0,0,1,0,.14.86.86,0,0,1-.86.86h-7.55v-1.73h.9v-1.88h-3.6v-2.63h3.6V385h-.9V383.3h.9v-1.87h-3.6v-8.2h3.6v-1.88h-.9V360h.9v-1.88h-3.6v-30h3.6v-1.88h-.9V314.9h.9V313h-3.6v-8.2h3.6V303h-.9v-1.73h.9v-1.88h-3.6v-2.63h3.6v-1.88h-.9V293.1h.9v-1.88h-3.6V283h3.6v-1.87h-.9V269.79h.9v-1.88h-3.6v-19l20,18,0,0h0a7.48,7.48,0,1,1,11.12,10A7.55,7.55,0,0,0,617.86,287l14.7,13.24v92.9Z"/></g><g id="POLYLINE-18" data-name="POLYLINE"><path class="cls-1" d="M562,383.48a.94.94,0,0,0-.94.94c0,.05,0,.1,0,.15l1.31,7.82a.76.76,0,0,1,0,.15.87.87,0,0,1-.86.86H549.8a.86.86,0,0,1-.71-1l1.31-7.82a1,1,0,0,0-.78-1.08h-11.7a.94.94,0,0,0-.94.94.76.76,0,0,0,0,.15l1.3,7.82a.77.77,0,0,1,0,.15.87.87,0,0,1-.87.86H525.75a.86.86,0,0,1-.71-1l1.3-7.82a.94.94,0,0,0-.77-1.08h-6.8v-1.81h-3.61v-8.19h3.61V371.6h-.9V360.25h.9v-1.88h-3.61v-30h3.61V326.5h-.9V315.15h.9v-1.88h-3.61v-8.2h3.61v-1.88h-.9v-1.73h.9v-1.87h-3.61V297h3.61v-1.87h-.9v-1.73h.9v-1.88h-3.61v-8.2h3.61v-1.88h-.9V270h.9v-1.88h-3.61v-30h3.61v-1.88h-.9V224.94h.9v-1.88h-3.61v-8.19h3.61V213h-.9v-1.73h.9v-1.88h-3.61v-2.63h3.61v-1.88h-.9v-1.73h.9v-1.88h-3.61v-8.19h3.61v-1.88h-.9V179.84h.9V178h-3.61V148h3.61v-1.88h-.9V134.73h.9v-1.88h-3.61v-8.19h3.61v-1.81h6.64a.94.94,0,0,0,.94-.93.81.81,0,0,0,0-.16l-1.3-7.82a.78.78,0,0,1,0-.14.87.87,0,0,1,.87-.87h11.69a.87.87,0,0,1,.71,1l-1.3,7.82a.93.93,0,0,0,.77,1.08h11.71a.94.94,0,0,0,.94-.93c0-.06,0-.11,0-.16l-1.31-7.82a.71.71,0,0,1,0-.14.87.87,0,0,1,.86-.87h11.7a.87.87,0,0,1,.71,1L561,121.76a1,1,0,0,0,.78,1.08h10.4V383.48Z"/></g><g id="POLYLINE-19" data-name="POLYLINE"><path class="cls-1" d="M130.54,155.3a1,1,0,0,1,1.31.87v19.9a.77.77,0,0,1-.08.37.92.92,0,0,1-1.23.49l-9.21-4v6.37h.9v1.88h-3.61v15h3.61V198h-.9v7.59h.9v1.88h-3.61v7.44h3.61v1.88h-.9v7.59h.9v1.88h-3.61v15h3.61v1.88h-.9v6.37l9.21-4h0a.93.93,0,0,1,1.31.86v19.91a.8.8,0,0,1-.08.37.92.92,0,0,1-1.23.49l-9.21-4v6.37h.9v1.88h-3.61v15h3.61v1.88h-.9v7.59h.9v1.88h-3.61v7.44h3.61V307h-.9v7.59h.9v1.88h-3.61v15h3.61v1.88h-.9v6.37l9.21-4h0a.93.93,0,0,1,1.31.86v19.9a.84.84,0,0,1-.08.38.94.94,0,0,1-1.23.49l-9.21-4v6.37h.9v1.87h-3.61v15h3.61V380h-.9V393.1h84.72V380h-.9v-3.39h3.6v-15h-3.6v-1.87h.9v-6.37l-9.21,4h0a1,1,0,0,1-.38.07.94.94,0,0,1-.94-.94v-19.9a.95.95,0,0,1,1.32-.86l9.21,4v-6.37h-.9v-1.88h3.6v-15h-3.6v-1.88h.9V307h-.9v-1.88h3.6v-7.44h-3.6v-1.88h.9v-7.59h-.9v-1.88h3.6v-15h-3.6v-1.88h.9v-6.37l-9.21,4h0a1,1,0,0,1-.38.08.94.94,0,0,1-.94-.94V246.37a1,1,0,0,1,.08-.37,1,1,0,0,1,1.24-.49l9.21,4v-6.37h-.9v-1.88h3.6v-15h-3.6v-1.88h.9v-7.59h-.9v-1.88h3.6V207.5h-3.6v-1.88h.9V198h-.9v-1.88h3.6v-15h-3.6v-1.88h.9v-6.37l-9.21,4h0a1,1,0,0,1-.38.08.94.94,0,0,1-.94-.94v-19.9a1,1,0,0,1,.08-.38,1,1,0,0,1,1.24-.49l9.21,4v-6.37h-.9v-1.88h3.6v-15h-3.6v-1.88h.9v-7.59h-.9v-1.88h3.6v-6.69H192.26a.85.85,0,0,0-.86.86.77.77,0,0,0,.08.37l1.64,3.44a.9.9,0,0,1,.09.4.94.94,0,0,1-.94.94h-9.53a1,1,0,0,1-.41-.09.93.93,0,0,1-.44-1.25l1.63-3.44a.85.85,0,0,0-.41-1.15.77.77,0,0,0-.37-.08h-9.53a.85.85,0,0,0-.86.86.91.91,0,0,0,.08.37l1.64,3.44a.9.9,0,0,1,.09.4.94.94,0,0,1-.94.94h-9.53a1,1,0,0,1-.41-.09,1,1,0,0,1-.44-1.25l1.63-3.44a.86.86,0,0,0-.4-1.15.84.84,0,0,0-.38-.08h-9.53a.86.86,0,0,0-.86.86.91.91,0,0,0,.08.37l1.64,3.44a.9.9,0,0,1,.09.4.94.94,0,0,1-.94.94h-9.53a1,1,0,0,1-.41-.09,1,1,0,0,1-.44-1.25l1.64-3.44a.87.87,0,0,0-.41-1.15.83.83,0,0,0-.37-.08h-9.54a.86.86,0,0,0-.86.86.91.91,0,0,0,.08.37l1.64,3.44a.9.9,0,0,1,.09.4.94.94,0,0,1-.94.94H121.33v10.15h.9v1.88h-3.61v15h3.61v1.88h-.9v6.37l9.21-4Z"/></g><g id="POLYLINE-20" data-name="POLYLINE"><polygon class="cls-1" points="533.48 99.54 530.91 99.55 530.91 98.68 529.49 98.68 529.49 103.2 530.91 103.2 530.91 102.33 533.48 102.32 533.48 103.19 534.9 103.19 534.9 98.67 533.48 98.67 533.48 99.54"/></g><g id="POLYLINE-21" data-name="POLYLINE"><path class="cls-1" d="M513.12,50.19a3,3,0,1,1,0-6.09h10.52a3,3,0,0,1,0,6.09Z"/></g><g id="POLYLINE-22" data-name="POLYLINE"><path class="cls-1" d="M470,56.3l8-8.94a.71.71,0,0,1,1-.06v0h.06v0h0v0h0v0h0v0h0v0h0v0h0v0h0v.08h0v.1h0v.1h0V48h0v0h0v0h0v0h0v0h0v0h0v0h0v0h0L471,57.25h0v0h-1v0h0A.7.7,0,0,1,470,56.3Z"/></g><g id="POLYLINE-23" data-name="POLYLINE"><path class="cls-1" d="M589.79,31.92h-7.51a.72.72,0,1,0,0,1.43h7.51a.72.72,0,1,0,0-1.43Z"/></g><g id="POLYLINE-24" data-name="POLYLINE"><polygon class="cls-1" points="499.57 85.76 500.85 84.34 501.53 84.95 502.78 83.54 499.37 80.48 498.1 81.86 498.78 82.48 496.22 85.33 495.53 84.71 494.29 86.12 497.7 89.19 498.97 87.8 498.28 87.19 499.57 85.76"/></g><g id="POLYLINE-25" data-name="POLYLINE"><polygon class="cls-1" points="602.91 78.15 601.03 78.15 601.03 73.57 602.91 73.57 602.91 74.47 614.26 74.47 614.26 73.57 616.14 73.57 616.14 78.15 614.26 78.15 614.26 77.25 602.91 77.25 602.91 78.15"/></g><g id="POLYLINE-26" data-name="POLYLINE"><polygon class="cls-1" points="557.81 74.47 569.16 74.47 569.16 73.57 571.04 73.57 571.04 78.15 569.16 78.15 569.16 77.25 557.81 77.25 557.81 78.15 555.93 78.15 555.93 73.57 557.81 73.57 557.81 74.47"/></g><g id="POLYLINE-27" data-name="POLYLINE"><polygon class="cls-1" points="524.05 74.47 524.05 73.57 525.93 73.57 525.93 78.15 524.05 78.15 524.05 77.25 512.7 77.25 512.7 78.15 510.82 78.15 510.82 73.57 512.7 73.57 512.7 74.47 524.05 74.47"/></g><g id="POLYLINE-28" data-name="POLYLINE"><polygon class="cls-1" points="266.56 117.4 263.99 117.42 263.99 116.55 262.57 116.55 262.57 121.06 263.99 121.06 263.99 120.2 266.56 120.19 266.56 121.05 267.98 121.05 267.98 116.54 266.56 116.54 266.56 117.4"/></g><g id="POLYLINE-29" data-name="POLYLINE"><polygon class="cls-1" points="306.5 117.4 303.94 117.42 303.94 116.55 302.51 116.55 302.51 121.06 303.94 121.06 303.94 120.2 306.5 120.19 306.5 121.05 307.93 121.05 307.93 116.54 306.5 116.54 306.5 117.4"/></g><g id="POLYLINE-30" data-name="POLYLINE"><polygon class="cls-1" points="187.84 101.83 185.28 101.84 185.28 100.98 183.85 100.98 183.85 105.49 185.28 105.49 185.28 104.63 187.84 104.61 187.84 105.48 189.27 105.48 189.27 100.97 187.84 100.97 187.84 101.83"/></g><g id="POLYLINE-31" data-name="POLYLINE"><polygon class="cls-1" points="147.9 101.83 145.33 101.84 145.33 100.98 143.91 100.98 143.91 105.49 145.33 105.49 145.33 104.63 147.9 104.61 147.9 105.48 149.32 105.48 149.32 100.97 147.9 100.97 147.9 101.83"/></g><g id="POLYLINE-32" data-name="POLYLINE"><polygon class="cls-1" points="107.95 101.83 105.39 101.84 105.39 100.98 103.96 100.98 103.96 105.49 105.39 105.49 105.39 104.63 107.95 104.61 107.95 105.48 109.38 105.48 109.38 100.97 107.95 100.97 107.95 101.83"/></g><g id="POLYLINE-33" data-name="POLYLINE"><path class="cls-1" d="M86.14,50.81a3,3,0,1,1,0-6.09H96.66a3,3,0,0,1,0,6.09Z"/></g><g id="POLYLINE-34" data-name="POLYLINE"><path class="cls-1" d="M43,56.92,51,48a.71.71,0,0,1,1,0h.06v0h0v0h0v0h0v0h0v0h0v0h0v0h0v.1h0v.1h0v.1h0v.06h0v0h0v0h0v0h0v0h0v0h0v0h0v0L44,57.87v0H43A.71.71,0,0,1,43,56.92Z"/></g><g id="POLYLINE-35" data-name="POLYLINE"><path class="cls-1" d="M162.81,32.55h-7.52a.71.71,0,1,0,0,1.42h7.52a.71.71,0,1,0,0-1.42Z"/></g><g id="POLYLINE-36" data-name="POLYLINE"><polygon class="cls-1" points="72.59 86.38 73.87 84.96 74.55 85.58 75.8 84.17 72.39 81.1 71.12 82.48 71.8 83.1 69.24 85.95 68.55 85.33 67.31 86.74 70.72 89.81 71.99 88.42 71.3 87.81 72.59 86.38"/></g><g id="POLYLINE-37" data-name="POLYLINE"><polygon class="cls-1" points="175.93 78.78 174.05 78.78 174.05 74.19 175.93 74.19 175.93 75.09 187.28 75.09 187.28 74.19 189.16 74.19 189.16 78.78 187.28 78.78 187.28 77.88 175.93 77.88 175.93 78.78"/></g><g id="POLYLINE-38" data-name="POLYLINE"><polygon class="cls-1" points="130.83 75.09 142.18 75.09 142.18 74.19 144.06 74.19 144.06 78.78 142.18 78.78 142.18 77.88 130.83 77.88 130.83 78.78 128.95 78.78 128.95 74.19 130.83 74.19 130.83 75.09"/></g><g id="POLYLINE-39" data-name="POLYLINE"><polygon class="cls-1" points="97.07 75.09 97.07 74.19 98.95 74.19 98.95 78.78 97.07 78.78 97.07 77.88 85.72 77.88 85.72 78.78 83.84 78.78 83.84 74.19 85.72 74.19 85.72 75.09 97.07 75.09"/></g><g id="POLYLINE-40" data-name="POLYLINE"><polygon class="cls-1" points="497.95 179.84 498.85 179.84 498.85 191.19 497.95 191.19 497.95 193.07 502.54 193.07 502.54 191.19 501.63 191.19 501.63 179.84 502.54 179.84 502.54 177.96 497.95 177.96 497.95 179.84"/></g><g id="POLYLINE-41" data-name="POLYLINE"><polygon class="cls-1" points="502.54 328.34 502.54 326.5 501.63 326.5 501.63 315.15 502.54 315.15 502.54 313.27 497.95 313.27 497.95 315.15 498.85 315.15 498.85 326.5 497.95 326.5 497.95 328.38 502.54 328.38 502.54 328.34"/></g><g id="POLYLINE-42" data-name="POLYLINE"><polygon class="cls-1" points="501.63 360.25 502.54 360.25 502.54 358.37 497.95 358.37 497.95 360.25 498.85 360.25 498.85 371.6 497.95 371.6 497.95 373.48 502.54 373.48 502.54 371.6 501.63 371.6 501.63 360.25"/></g><g id="POLYLINE-43" data-name="POLYLINE"><polygon class="cls-1" points="497.95 134.73 498.85 134.73 498.85 146.08 497.95 146.08 497.95 147.96 502.54 147.96 502.54 146.08 501.63 146.08 501.63 134.73 502.54 134.73 502.54 132.85 497.95 132.85 497.95 134.73"/></g><g id="POLYLINE-44" data-name="POLYLINE"><polygon class="cls-1" points="497.95 268.2 497.95 270.04 498.85 270.04 498.85 281.39 497.95 281.39 497.95 283.27 502.54 283.27 502.54 281.39 501.63 281.39 501.63 270.04 502.54 270.04 502.54 268.16 497.95 268.16 497.95 268.2"/></g><g id="POLYLINE-45" data-name="POLYLINE"><polygon class="cls-1" points="502.54 238.13 502.54 236.29 501.63 236.29 501.63 224.94 502.54 224.94 502.54 223.06 497.95 223.06 497.95 224.94 498.85 224.94 498.85 236.29 497.95 236.29 497.95 238.17 502.54 238.17 502.54 238.13"/></g><g id="POLYLINE-46" data-name="POLYLINE"><path class="cls-1" d="M456.3,249.41v7.52a.72.72,0,0,0,1.43,0v-7.52a.72.72,0,1,0-1.43,0Z"/></g><g id="POLYLINE-47" data-name="POLYLINE"><path class="cls-1" d="M456.3,159.2v7.52a.72.72,0,0,0,1.43,0V159.2a.72.72,0,0,0-1.43,0Z"/></g><g id="POLYLINE-48" data-name="POLYLINE"><path class="cls-1" d="M456.3,339.61v7.52a.72.72,0,1,0,1.43,0v-7.52a.72.72,0,0,0-1.43,0Z"/></g><g id="POLYLINE-49" data-name="POLYLINE"><polygon class="cls-1" points="619.33 164.58 619.33 175.94 618.43 175.94 618.43 177.81 623.02 177.81 623.02 175.94 622.11 175.94 622.11 164.58 623.02 164.58 623.02 162.71 618.43 162.71 618.43 164.58 619.33 164.58"/></g><g id="POLYLINE-50" data-name="POLYLINE"><polygon class="cls-1" points="623.02 209.69 623.02 207.81 618.43 207.81 618.43 209.69 619.33 209.69 619.33 221.04 618.43 221.04 618.43 222.92 623.02 222.92 623.02 221.04 622.11 221.04 622.11 209.69 623.02 209.69"/></g><g id="POLYLINE-51" data-name="POLYLINE"><polygon class="cls-1" points="609.01 132.38 611.86 134.94 611.26 135.61 612.66 136.87 615.72 133.46 614.33 132.21 613.72 132.88 610.88 130.31 611.48 129.64 610.08 128.38 607.01 131.79 608.41 133.05 609.01 132.38"/></g><g id="POLYLINE-52" data-name="POLYLINE"><path class="cls-1" d="M576.78,196.57v-7.52a.72.72,0,0,1,1.43,0v7.52a.72.72,0,0,1-1.43,0Z"/></g><g id="POLYLINE-53" data-name="POLYLINE"><polygon class="cls-1" points="583.51 109.42 590.22 115.45 590.23 115.46 590.24 115.47 590.25 115.48 590.27 115.49 590.28 115.5 590.29 115.51 590.31 115.52 590.32 115.53 590.34 115.54 590.35 115.55 590.37 115.55 590.38 115.56 590.4 115.57 590.41 115.58 590.43 115.58 590.45 115.59 590.46 115.6 590.48 115.6 590.5 115.61 590.51 115.61 590.53 115.61 590.55 115.62 590.57 115.62 590.59 115.63 590.6 115.63 590.62 115.63 590.64 115.63 590.66 115.63 590.68 115.63 590.7 115.63 590.71 115.63 590.73 115.63 590.75 115.63 590.77 115.63 590.79 115.63 590.8 115.63 590.82 115.62 590.84 115.62 590.86 115.61 590.88 115.61 590.89 115.61 590.91 115.6 590.93 115.59 590.95 115.59 590.96 115.58 590.98 115.58 591 115.57 591.01 115.56 591.03 115.55 591.04 115.54 591.06 115.53 591.07 115.53 591.09 115.52 591.1 115.51 591.12 115.5 591.13 115.49 591.14 115.48 591.15 115.47 591.17 115.45 591.18 115.44 591.19 115.43 591.2 115.42 591.21 115.41 591.23 115.4 591.24 115.39 591.25 115.37 591.26 115.36 591.27 115.35 591.27 115.33 591.28 115.32 591.29 115.31 591.3 115.29 591.31 115.28 591.32 115.26 591.33 115.25 591.34 115.23 591.34 115.22 591.35 115.2 591.36 115.19 591.36 115.17 591.37 115.15 591.38 115.14 591.38 115.12 591.38 115.1 591.39 115.08 591.39 115.07 591.4 115.05 591.4 115.03 591.4 115.01 591.4 114.99 591.41 114.97 591.41 114.96 591.41 114.94 591.41 114.92 591.41 114.9 591.41 114.88 591.41 114.86 591.4 114.85 591.4 114.83 591.4 114.81 591.4 114.79 591.39 114.77 591.39 114.76 591.38 114.74 591.38 114.72 591.37 114.7 591.37 114.69 591.36 114.67 591.36 114.65 591.35 114.64 591.34 114.62 591.33 114.6 591.33 114.59 591.32 114.57 591.31 114.56 591.3 114.54 591.29 114.53 591.28 114.51 591.27 114.5 591.26 114.49 591.25 114.47 591.24 114.46 591.23 114.45 591.22 114.44 591.21 114.42 591.2 114.41 591.18 114.4 591.17 114.39 584.47 108.35 584.46 108.34 584.44 108.33 584.43 108.32 584.42 108.31 584.4 108.3 584.39 108.29 584.38 108.28 584.36 108.28 584.35 108.27 584.33 108.26 584.32 108.25 584.3 108.24 584.29 108.23 584.27 108.23 584.26 108.22 584.24 108.22 584.22 108.21 584.21 108.2 584.19 108.2 584.17 108.19 584.15 108.19 584.14 108.19 584.12 108.18 584.1 108.18 584.08 108.18 584.06 108.17 584.04 108.17 584.03 108.17 584.01 108.17 583.99 108.17 583.97 108.17 583.95 108.17 583.93 108.17 583.92 108.17 583.9 108.18 583.88 108.18 583.86 108.18 583.84 108.19 583.83 108.19 583.81 108.19 583.79 108.2 583.77 108.2 583.75 108.21 583.74 108.22 583.72 108.22 583.71 108.23 583.69 108.24 583.67 108.25 583.66 108.25 583.64 108.26 583.63 108.27 583.61 108.28 583.6 108.29 583.58 108.3 583.57 108.31 583.55 108.32 583.54 108.33 583.53 108.34 583.52 108.35 583.5 108.36 583.49 108.37 583.48 108.38 583.47 108.39 583.46 108.41 583.45 108.42 583.44 108.43 583.43 108.44 583.42 108.46 583.41 108.47 583.4 108.48 583.39 108.5 583.38 108.51 583.37 108.53 583.36 108.54 583.36 108.56 583.35 108.57 583.34 108.59 583.33 108.6 583.33 108.62 583.32 108.64 583.32 108.65 583.31 108.67 583.3 108.69 583.3 108.7 583.29 108.72 583.29 108.74 583.29 108.76 583.28 108.78 583.28 108.79 583.28 108.81 583.28 108.83 583.28 108.85 583.28 108.87 583.28 108.89 583.28 108.9 583.28 108.92 583.28 108.94 583.28 108.96 583.28 108.98 583.28 109 583.29 109.01 583.29 109.03 583.29 109.05 583.3 109.07 583.3 109.08 583.31 109.1 583.32 109.12 583.32 109.14 583.33 109.15 583.34 109.17 583.34 109.19 583.35 109.2 583.36 109.22 583.37 109.23 583.38 109.25 583.38 109.26 583.39 109.28 583.4 109.29 583.41 109.31 583.42 109.32 583.43 109.33 583.45 109.34 583.46 109.36 583.47 109.37 583.48 109.38 583.49 109.39 583.5 109.4 583.51 109.42"/></g><g id="POLYLINE-54" data-name="POLYLINE"><polygon class="cls-1" points="619.59 141.9 626.3 147.94 626.31 147.95 626.32 147.96 626.33 147.97 626.35 147.98 626.36 147.99 626.37 148 626.39 148.01 626.4 148.01 626.41 148.02 626.43 148.03 626.45 148.04 626.46 148.05 626.48 148.06 626.49 148.06 626.51 148.07 626.52 148.08 626.54 148.08 626.56 148.09 626.58 148.09 626.59 148.1 626.61 148.1 626.63 148.1 626.65 148.11 626.66 148.11 626.68 148.12 626.7 148.12 626.72 148.12 626.74 148.12 626.76 148.12 626.77 148.12 626.79 148.12 626.81 148.12 626.83 148.12 626.85 148.12 626.87 148.11 626.88 148.11 626.9 148.11 626.92 148.1 626.94 148.1 626.96 148.1 626.97 148.09 626.99 148.09 627.01 148.08 627.03 148.07 627.04 148.07 627.06 148.06 627.08 148.05 627.09 148.05 627.11 148.04 627.12 148.03 627.14 148.02 627.15 148.01 627.17 148 627.18 147.99 627.2 147.98 627.21 147.97 627.22 147.96 627.24 147.95 627.25 147.94 627.26 147.93 627.27 147.92 627.28 147.91 627.29 147.9 627.3 147.88 627.32 147.87 627.33 147.86 627.34 147.85 627.35 147.84 627.36 147.82 627.36 147.81 627.37 147.79 627.38 147.78 627.39 147.76 627.4 147.75 627.41 147.74 627.41 147.72 627.42 147.7 627.43 147.69 627.44 147.67 627.44 147.66 627.45 147.64 627.46 147.62 627.46 147.6 627.47 147.59 627.47 147.57 627.47 147.55 627.48 147.53 627.48 147.52 627.48 147.5 627.48 147.48 627.49 147.46 627.49 147.44 627.49 147.43 627.49 147.41 627.49 147.39 627.49 147.37 627.49 147.35 627.48 147.33 627.48 147.31 627.48 147.3 627.48 147.28 627.47 147.26 627.47 147.24 627.46 147.22 627.46 147.21 627.45 147.19 627.45 147.17 627.44 147.16 627.43 147.14 627.43 147.12 627.42 147.1 627.41 147.09 627.4 147.07 627.4 147.06 627.39 147.04 627.38 147.03 627.37 147.01 627.36 147 627.35 146.99 627.34 146.97 627.33 146.96 627.32 146.95 627.31 146.93 627.3 146.92 627.29 146.91 627.27 146.9 627.26 146.89 627.25 146.88 620.55 140.84 620.54 140.83 620.52 140.82 620.51 140.81 620.5 140.8 620.49 140.79 620.47 140.78 620.46 140.77 620.44 140.76 620.43 140.75 620.41 140.75 620.4 140.74 620.38 140.73 620.37 140.72 620.35 140.71 620.34 140.71 620.32 140.7 620.3 140.69 620.28 140.69 620.27 140.68 620.25 140.68 620.23 140.68 620.22 140.67 620.2 140.67 620.18 140.66 620.16 140.66 620.14 140.66 620.12 140.66 620.11 140.66 620.09 140.66 620.07 140.66 620.05 140.66 620.03 140.66 620.01 140.66 620 140.66 619.98 140.66 619.96 140.66 619.94 140.67 619.92 140.67 619.9 140.68 619.89 140.68 619.87 140.69 619.85 140.69 619.84 140.7 619.82 140.7 619.8 140.71 619.78 140.72 619.77 140.72 619.75 140.73 619.74 140.74 619.72 140.75 619.71 140.76 619.69 140.76 619.68 140.77 619.66 140.78 619.65 140.79 619.63 140.8 619.62 140.81 619.61 140.82 619.6 140.84 619.58 140.85 619.57 140.86 619.56 140.87 619.55 140.88 619.54 140.89 619.53 140.91 619.52 140.92 619.51 140.93 619.5 140.94 619.49 140.96 619.48 140.97 619.47 140.98 619.46 141 619.45 141.01 619.44 141.03 619.44 141.04 619.43 141.06 619.42 141.07 619.41 141.09 619.41 141.1 619.4 141.12 619.39 141.14 619.39 141.16 619.38 141.17 619.38 141.19 619.37 141.21 619.37 141.22 619.37 141.24 619.36 141.26 619.36 141.28 619.36 141.3 619.36 141.32 619.36 141.33 619.36 141.35 619.36 141.37 619.36 141.39 619.36 141.41 619.36 141.43 619.36 141.44 619.36 141.46 619.36 141.48 619.37 141.5 619.37 141.52 619.38 141.53 619.38 141.55 619.38 141.57 619.39 141.59 619.39 141.6 619.4 141.62 619.41 141.64 619.41 141.66 619.42 141.67 619.43 141.69 619.44 141.7 619.45 141.72 619.46 141.73 619.46 141.75 619.47 141.76 619.48 141.78 619.49 141.79 619.5 141.81 619.51 141.82 619.52 141.83 619.53 141.84 619.55 141.86 619.56 141.87 619.57 141.88 619.58 141.89 619.59 141.9"/></g><g id="POLYLINE-55" data-name="POLYLINE"><polygon class="cls-1" points="406.08 38.42 405.18 38.42 405.18 36.54 412.47 36.54 412.47 38.42 411.57 38.42 411.57 43.76 412.47 43.76 412.47 45.63 405.18 45.63 405.18 43.76 406.08 43.76 406.08 38.42"/></g><g id="POLYLINE-56" data-name="POLYLINE"><polygon class="cls-1" points="339.63 36.54 339.63 38.42 340.53 38.42 340.53 43.76 339.63 43.76 339.63 45.63 346.92 45.63 346.92 43.76 346.02 43.76 346.02 38.42 346.92 38.42 346.92 36.54 339.63 36.54"/></g><g id="POLYLINE-57" data-name="POLYLINE"><polygon class="cls-1" points="405.18 105.67 405.18 103.78 412.47 103.78 412.47 105.67 411.57 105.67 411.57 111 412.47 111 412.47 112.88 405.18 112.88 405.18 111 406.08 111 406.08 105.67 405.18 105.67"/></g><g id="POLYLINE-58" data-name="POLYLINE"><polygon class="cls-1" points="340.53 111 339.63 111 339.63 112.88 346.92 112.88 346.92 111 346.02 111 346.02 105.67 346.92 105.67 346.92 103.78 339.63 103.78 339.63 105.67 340.53 105.67 340.53 111"/></g><g id="POLYLINE-59" data-name="POLYLINE"><polygon class="cls-1" points="622.98 358.12 618.43 358.12 618.43 360 619.33 360 619.33 371.35 618.43 371.35 618.43 373.23 623.02 373.23 623.02 371.35 622.11 371.35 622.11 360 623.02 360 623.02 358.12 622.98 358.12"/></g><g id="POLYLINE-60" data-name="POLYLINE"><polygon class="cls-1" points="619.33 326.25 618.43 326.25 618.43 328.13 623.02 328.13 623.02 326.25 622.11 326.25 622.11 314.9 623.02 314.9 623.02 313.02 618.43 313.02 618.43 314.9 619.33 314.9 619.33 326.25"/></g><g id="POLYLINE-61" data-name="POLYLINE"><polygon class="cls-1" points="597.83 272.62 597.23 273.29 595.83 272.04 598.9 268.63 600.3 269.88 599.69 270.56 602.54 273.12 603.15 272.45 604.54 273.71 601.47 277.12 600.08 275.86 600.68 275.19 597.83 272.62"/></g><g id="POLYLINE-62" data-name="POLYLINE"><polygon class="cls-1" points="619.59 292.21 626.3 298.25 626.31 298.26 626.32 298.27 626.33 298.28 626.35 298.29 626.36 298.3 626.37 298.31 626.39 298.32 626.4 298.33 626.41 298.34 626.43 298.35 626.45 298.35 626.46 298.36 626.48 298.37 626.49 298.38 626.51 298.38 626.52 298.39 626.54 298.39 626.56 298.4 626.58 298.41 626.59 298.41 626.61 298.42 626.63 298.42 626.65 298.42 626.66 298.43 626.68 298.43 626.7 298.43 626.72 298.43 626.74 298.43 626.76 298.43 626.77 298.43 626.79 298.43 626.81 298.43 626.83 298.43 626.85 298.43 626.87 298.43 626.88 298.43 626.9 298.42 626.92 298.42 626.94 298.41 626.96 298.41 626.97 298.4 626.99 298.4 627.01 298.39 627.03 298.39 627.04 298.38 627.06 298.37 627.08 298.37 627.09 298.36 627.11 298.35 627.12 298.34 627.14 298.33 627.15 298.32 627.17 298.32 627.18 298.31 627.2 298.3 627.21 298.29 627.22 298.28 627.24 298.26 627.25 298.25 627.26 298.24 627.27 298.23 627.28 298.22 627.29 298.21 627.3 298.2 627.32 298.19 627.33 298.17 627.34 298.16 627.35 298.15 627.36 298.13 627.36 298.12 627.37 298.11 627.38 298.09 627.39 298.08 627.4 298.06 627.41 298.05 627.41 298.03 627.42 298.02 627.43 298 627.44 297.99 627.44 297.97 627.45 297.95 627.46 297.94 627.46 297.92 627.47 297.9 627.47 297.88 627.47 297.87 627.48 297.85 627.48 297.83 627.48 297.81 627.48 297.79 627.49 297.77 627.49 297.76 627.49 297.74 627.49 297.72 627.49 297.7 627.49 297.68 627.49 297.66 627.48 297.65 627.48 297.63 627.48 297.61 627.48 297.59 627.47 297.57 627.47 297.56 627.46 297.54 627.46 297.52 627.45 297.5 627.45 297.49 627.44 297.47 627.43 297.45 627.43 297.44 627.42 297.42 627.41 297.4 627.4 297.39 627.4 297.37 627.39 297.36 627.38 297.34 627.37 297.33 627.36 297.31 627.35 297.3 627.34 297.29 627.33 297.27 627.32 297.26 627.31 297.25 627.3 297.23 627.29 297.22 627.27 297.21 627.26 297.2 627.25 297.19 620.55 291.15 620.54 291.14 620.52 291.13 620.51 291.12 620.5 291.11 620.49 291.1 620.47 291.09 620.46 291.08 620.44 291.07 620.43 291.07 620.41 291.06 620.4 291.05 620.38 291.04 620.37 291.04 620.35 291.03 620.34 291.02 620.32 291.01 620.3 291.01 620.28 291 620.27 291 620.25 290.99 620.23 290.99 620.22 290.99 620.2 290.98 620.18 290.98 620.16 290.98 620.14 290.97 620.12 290.97 620.11 290.97 620.09 290.97 620.07 290.97 620.05 290.97 620.03 290.97 620.01 290.97 620 290.97 619.98 290.98 619.96 290.98 619.94 290.98 619.92 290.99 619.9 290.99 619.89 290.99 619.87 291 619.85 291 619.84 291.01 619.82 291.02 619.8 291.02 619.78 291.03 619.77 291.04 619.75 291.04 619.74 291.05 619.72 291.06 619.71 291.07 619.69 291.08 619.68 291.09 619.66 291.1 619.65 291.11 619.63 291.12 619.62 291.13 619.61 291.14 619.6 291.15 619.58 291.16 619.57 291.17 619.56 291.18 619.55 291.19 619.54 291.21 619.53 291.22 619.52 291.23 619.51 291.24 619.5 291.26 619.49 291.27 619.48 291.28 619.47 291.3 619.46 291.31 619.45 291.32 619.44 291.34 619.44 291.36 619.43 291.37 619.42 291.39 619.41 291.4 619.41 291.42 619.4 291.44 619.39 291.45 619.39 291.47 619.38 291.49 619.38 291.5 619.37 291.52 619.37 291.54 619.37 291.56 619.36 291.57 619.36 291.59 619.36 291.61 619.36 291.63 619.36 291.65 619.36 291.67 619.36 291.68 619.36 291.7 619.36 291.72 619.36 291.74 619.36 291.76 619.36 291.78 619.36 291.8 619.37 291.81 619.37 291.83 619.38 291.85 619.38 291.87 619.38 291.88 619.39 291.9 619.39 291.92 619.4 291.94 619.41 291.95 619.41 291.97 619.42 291.99 619.43 292 619.44 292.02 619.45 292.03 619.46 292.05 619.46 292.06 619.47 292.08 619.48 292.09 619.49 292.11 619.5 292.12 619.51 292.13 619.52 292.14 619.53 292.16 619.55 292.17 619.56 292.18 619.57 292.19 619.58 292.2 619.59 292.21"/></g><g id="POLYLINE-63" data-name="POLYLINE"><polygon class="cls-1" points="583.51 259.73 590.22 265.76 590.23 265.77 590.24 265.79 590.25 265.8 590.27 265.81 590.28 265.81 590.29 265.82 590.31 265.83 590.32 265.84 590.34 265.85 590.35 265.86 590.37 265.87 590.38 265.88 590.4 265.88 590.41 265.89 590.43 265.9 590.45 265.9 590.46 265.91 590.48 265.92 590.5 265.92 590.51 265.92 590.53 265.93 590.55 265.93 590.57 265.94 590.59 265.94 590.6 265.94 590.62 265.94 590.64 265.95 590.66 265.95 590.68 265.95 590.7 265.95 590.71 265.95 590.73 265.95 590.75 265.95 590.77 265.94 590.79 265.94 590.8 265.94 590.82 265.94 590.84 265.93 590.86 265.93 590.88 265.92 590.89 265.92 590.91 265.91 590.93 265.91 590.95 265.9 590.96 265.89 590.98 265.89 591 265.88 591.01 265.87 591.03 265.87 591.04 265.86 591.06 265.85 591.07 265.84 591.09 265.83 591.1 265.82 591.12 265.81 591.13 265.8 591.14 265.79 591.15 265.78 591.17 265.77 591.18 265.76 591.19 265.75 591.2 265.74 591.21 265.72 591.23 265.71 591.24 265.7 591.25 265.69 591.26 265.68 591.27 265.66 591.27 265.65 591.28 265.63 591.29 265.62 591.3 265.61 591.31 265.59 591.32 265.58 591.33 265.56 591.34 265.55 591.34 265.53 591.35 265.51 591.36 265.5 591.36 265.48 591.37 265.47 591.38 265.45 591.38 265.43 591.38 265.41 591.39 265.4 591.39 265.38 591.4 265.36 591.4 265.34 591.4 265.32 591.4 265.31 591.41 265.29 591.41 265.27 591.41 265.25 591.41 265.23 591.41 265.21 591.41 265.2 591.41 265.18 591.4 265.16 591.4 265.14 591.4 265.12 591.4 265.11 591.39 265.09 591.39 265.07 591.38 265.05 591.38 265.03 591.37 265.02 591.37 265 591.36 264.98 591.36 264.96 591.35 264.95 591.34 264.93 591.33 264.92 591.33 264.9 591.32 264.88 591.31 264.87 591.3 264.86 591.29 264.84 591.28 264.83 591.27 264.81 591.26 264.8 591.25 264.79 591.24 264.77 591.23 264.76 591.22 264.75 591.21 264.74 591.2 264.73 591.18 264.71 591.17 264.7 584.47 258.67 584.46 258.66 584.44 258.65 584.43 258.64 584.42 258.63 584.4 258.62 584.39 258.61 584.38 258.6 584.36 258.59 584.35 258.58 584.33 258.57 584.32 258.56 584.3 258.56 584.29 258.55 584.27 258.54 584.26 258.54 584.24 258.53 584.22 258.52 584.21 258.52 584.19 258.51 584.17 258.51 584.15 258.5 584.14 258.5 584.12 258.5 584.1 258.49 584.08 258.49 584.06 258.49 584.04 258.49 584.03 258.49 584.01 258.48 583.99 258.48 583.97 258.48 583.95 258.49 583.93 258.49 583.92 258.49 583.9 258.49 583.88 258.49 583.86 258.5 583.84 258.5 583.83 258.5 583.81 258.51 583.79 258.51 583.77 258.52 583.75 258.52 583.74 258.53 583.72 258.54 583.71 258.54 583.69 258.55 583.67 258.56 583.66 258.57 583.64 258.57 583.63 258.58 583.61 258.59 583.6 258.6 583.58 258.61 583.57 258.62 583.55 258.63 583.54 258.64 583.53 258.65 583.52 258.66 583.5 258.67 583.49 258.69 583.48 258.7 583.47 258.71 583.46 258.72 583.45 258.73 583.44 258.74 583.43 258.76 583.42 258.77 583.41 258.78 583.4 258.8 583.39 258.81 583.38 258.82 583.37 258.84 583.36 258.85 583.36 258.87 583.35 258.88 583.34 258.9 583.33 258.92 583.33 258.93 583.32 258.95 583.32 258.97 583.31 258.98 583.3 259 583.3 259.02 583.29 259.04 583.29 259.05 583.29 259.07 583.28 259.09 583.28 259.11 583.28 259.13 583.28 259.14 583.28 259.16 583.28 259.18 583.28 259.2 583.28 259.22 583.28 259.24 583.28 259.25 583.28 259.27 583.28 259.29 583.28 259.31 583.29 259.33 583.29 259.35 583.29 259.36 583.3 259.38 583.3 259.4 583.31 259.42 583.32 259.43 583.32 259.45 583.33 259.47 583.34 259.48 583.34 259.5 583.35 259.51 583.36 259.53 583.37 259.55 583.38 259.56 583.38 259.58 583.39 259.59 583.4 259.61 583.41 259.62 583.42 259.63 583.43 259.65 583.45 259.66 583.46 259.67 583.47 259.68 583.48 259.69 583.49 259.71 583.5 259.72 583.51 259.73"/></g><g id="POLYLINE-64" data-name="POLYLINE"><polygon class="cls-1" points="558.09 179.84 558.99 179.84 558.99 191.19 558.09 191.19 558.09 193.07 562.67 193.07 562.67 191.19 561.77 191.19 561.77 179.84 562.67 179.84 562.67 177.96 558.09 177.96 558.09 179.84"/></g><g id="POLYLINE-65" data-name="POLYLINE"><polygon class="cls-1" points="562.67 328.34 562.67 326.5 561.77 326.5 561.77 315.15 562.67 315.15 562.67 313.27 558.09 313.27 558.09 315.15 558.99 315.15 558.99 326.5 558.09 326.5 558.09 328.38 562.67 328.38 562.67 328.34"/></g><g id="POLYLINE-66" data-name="POLYLINE"><polygon class="cls-1" points="561.77 360.25 562.67 360.25 562.67 358.37 558.09 358.37 558.09 360.25 558.99 360.25 558.99 371.6 558.09 371.6 558.09 373.48 562.67 373.48 562.67 371.6 561.77 371.6 561.77 360.25"/></g><g id="POLYLINE-67" data-name="POLYLINE"><polygon class="cls-1" points="558.09 134.73 558.99 134.73 558.99 146.08 558.09 146.08 558.09 147.96 562.67 147.96 562.67 146.08 561.77 146.08 561.77 134.73 562.67 134.73 562.67 132.85 558.09 132.85 558.09 134.73"/></g><g id="POLYLINE-68" data-name="POLYLINE"><polygon class="cls-1" points="558.09 268.2 558.09 270.04 558.99 270.04 558.99 281.39 558.09 281.39 558.09 283.27 562.67 283.27 562.67 281.39 561.77 281.39 561.77 270.04 562.67 270.04 562.67 268.16 558.09 268.16 558.09 268.2"/></g><g id="POLYLINE-69" data-name="POLYLINE"><polygon class="cls-1" points="562.67 238.13 562.67 236.29 561.77 236.29 561.77 224.94 562.67 224.94 562.67 223.06 558.09 223.06 558.09 224.94 558.99 224.94 558.99 236.29 558.09 236.29 558.09 238.17 562.67 238.17 562.67 238.13"/></g><g id="POLYLINE-70" data-name="POLYLINE"><path class="cls-1" d="M516.44,249.41v7.52a.72.72,0,0,0,1.43,0v-7.52a.72.72,0,1,0-1.43,0Z"/></g><g id="POLYLINE-71" data-name="POLYLINE"><path class="cls-1" d="M516.44,159.2v7.52a.72.72,0,0,0,1.43,0V159.2a.72.72,0,0,0-1.43,0Z"/></g><g id="POLYLINE-72" data-name="POLYLINE"><path class="cls-1" d="M516.44,339.61v7.52a.72.72,0,1,0,1.43,0v-7.52a.72.72,0,0,0-1.43,0Z"/></g><g id="MTEXT"><text class="cls-2" transform="translate(534.81 63.39)">ROOF-G/C</text></g><g id="MTEXT-2" data-name="MTEXT"><text class="cls-2" transform="translate(300.77 67.72) rotate(180)">ROOF-G/G</text></g><g id="MTEXT-3" data-name="MTEXT"><text class="cls-2" transform="translate(107.83 64.02)">ROOF-G/C</text></g><g id="MTEXT-4" data-name="MTEXT"><text class="cls-2" transform="translate(361.23 130.13)">ROOF-G/I</text></g><g id="MTEXT-5" data-name="MTEXT"><text class="cls-2" transform="translate(360.89 62.55)">ROOF-G/H</text></g><g id="MTEXT-6" data-name="MTEXT"><text class="cls-2" transform="translate(604.75 203.72) rotate(-90)">ROOF-G/E2</text></g><g id="MTEXT-7" data-name="MTEXT"><text class="cls-2" transform="translate(482.44 268.32) rotate(-90)">ROOF-G/D</text></g><g id="MTEXT-8" data-name="MTEXT"><text class="cls-2" transform="translate(543.26 268.32) rotate(-90)">ROOF-G/D</text></g><g id="MTEXT-9" data-name="MTEXT"><text class="cls-2" transform="translate(604.45 358.73) rotate(-90)">ROOF-G/E2</text></g><g id="MTEXT-10" data-name="MTEXT"><text class="cls-2" transform="translate(361.11 282)">ROOF-G/A</text></g><g id="MTEXT-11" data-name="MTEXT"><text class="cls-2" transform="translate(270.91 268.9)">ROOF-G/B</text></g><g id="MTEXT-12" data-name="MTEXT"><text class="cls-2" transform="translate(55.09 258.84)">ROOF-G1/I</text></g><g id="MTEXT-13" data-name="MTEXT"><text class="cls-2" transform="translate(146.78 258.84)">ROOF-G1/F</text></g><g id="POLYLINE-73" data-name="POLYLINE"><rect class="cls-3" x="239.46" y="29.33" width="183.42" height="366.84"/></g><g id="POLYLINE-74" data-name="POLYLINE"><rect class="cls-3" x="25.97" y="29.33" width="183.42" height="366.84"/></g><g id="POLYLINE-75" data-name="POLYLINE"><rect class="cls-3" x="452.95" y="29.33" width="183.42" height="366.84"/></g></svg>