<svg xmlns="http://www.w3.org/2000/svg" xmlns:xlink="http://www.w3.org/1999/xlink" width="500" height="500" viewBox = " 0 0 500 500" preserveAspectRatio="xMinYMin meet">
<rect id="background" x="0" y="0" width="500" height="500" style="fill:none; stroke:none;" />
<polyline id="4feb9506-f107-416e-a673-d34acf4a85c8" points="271.2132 271.495 269.9404 272.2298 268.6676 272.9646 228.7868 249.9394 228.7868 247.0001 227.514 247.7349 226.2412 248.4698 220.443 245.1221 220.4429 223.6877 221.7157 222.9529 222.9885 222.218 279.5571 254.8779 279.5571 276.3123 278.2843 277.0471 277.0115 277.782 271.2132 274.4343 271.2132 271.495 "  class="cls-30449002" >  </polyline>
<polyline id="cdb7244d-6ff6-4cae-ad21-d512b0bb0c55" points="228.7868 240.9158 229.2111 240.6708 229.2111 240.1809 228.7868 239.936 228.7868 240.9158 "  class="cls-30449002" >  </polyline>
<polyline id="7c062b69-1305-4ab9-b26b-1ba078ef945b" points="271.2132 265.4107 271.6375 265.1657 271.6375 264.6758 271.2132 264.4309 271.2132 265.4107 "  class="cls-30449002" >  </polyline>
<polyline id="cf061dfa-a3fc-4373-b2e5-f04ecb5f4063" points="268.6676 272.9646 228.7868 249.9394 "  class="cls-1008689814" >  </polyline>
<polyline id="14070956-4be4-4e70-97b8-27f34adc857d" points="268.6676 272.9646 269.9404 272.2298 "  class="cls-1008689814" >  </polyline>
<polyline id="e9f50c39-5889-43ce-ba31-1a61697a4706" points="228.7868 240.9158 229.2111 240.6708 "  class="cls-1008689814" >  </polyline>
<polyline id="21c317f1-7644-4645-a29f-f3c67d81ef7e" points="228.7868 240.9158 229.2111 241.1607 "  class="cls-1008689814" >  </polyline>
<polyline id="0fff7edf-7055-4530-8419-5b11a496f567" points="225.8169 238.2214 225.8169 239.2012 "  class="cls-1008689814" >  </polyline>
<polyline id="dcb8ecf5-eaf6-4c99-932a-cc7daa337a51" points="225.8169 239.2012 226.6662 238.7108 "  class="cls-1008689814" >  </polyline>
<polyline id="5178adbf-90d4-46f8-9c9e-11acedbe9942" points="225.8169 239.2012 226.2412 239.4461 "  class="cls-1008689814" >  </polyline>
<polyline id="b0bb2f32-8883-49a8-8c99-53d1bb6acb95" points="226.2412 239.4461 227.0898 238.9562 "  class="cls-1008689814" >  </polyline>
<polyline id="48fd6975-ed68-4b41-b57c-594281d5d37a" points="226.2412 248.4698 227.514 247.7349 "  class="cls-1008689814" >  </polyline>
<polyline id="c3c6becd-cc84-489a-bdc5-2010e500df9c" points="226.2412 248.4698 220.443 245.1221 "  class="cls-1008689814" >  </polyline>
<polyline id="c52f5a8b-e01b-4c02-9862-936eeed59dc4" points="220.443 245.1221 220.4429 223.6877 "  class="cls-1008689814" >  </polyline>
<polyline id="ed6ab530-de58-4ac1-8fd7-4b3615b7d725" points="220.4429 223.6877 221.7157 222.9529 "  class="cls-1008689814" >  </polyline>
<polyline id="52362a9e-5302-4d2b-9076-4fa006918c62" points="277.0115 256.3476 278.2843 255.6127 "  class="cls-1008689814" >  </polyline>
<polyline id="39e9f009-6d48-41c9-ae93-fe07f190cf90" points="277.0115 277.782 278.2843 277.0471 "  class="cls-1008689814" >  </polyline>
<polyline id="cd2c22d0-68f0-47cf-b546-9a32f8ebf54b" points="277.0115 277.782 271.2132 274.4343 "  class="cls-1008689814" >  </polyline>
<polyline id="d4526fee-b5b0-42ba-8e1c-808c1733c395" points="271.2132 265.4107 271.6379 265.1655 "  class="cls-1008689814" >  </polyline>
<polyline id="b97266e6-fb98-40ff-9030-35aff6e008ab" points="271.2132 265.4107 271.6375 265.6556 "  class="cls-1008689814" >  </polyline>
<polyline id="4e039c26-1e14-4e6b-bb09-e38b64386000" points="268.2434 262.7163 268.2434 263.696 "  class="cls-1008689814" >  </polyline>
<polyline id="aa791a31-9250-4700-b548-c94adaf2d565" points="268.2434 263.696 269.0922 263.206 "  class="cls-1008689814" >  </polyline>
<polyline id="f6b9c6e0-4842-4c04-9cfa-a9b6cf86b2cf" points="268.2434 263.696 268.6676 263.941 "  class="cls-1008689814" >  </polyline>
<polyline id="ec18146c-cb70-4879-8ead-5ce7af68f255" points="268.6676 263.941 269.5166 263.4509 "  class="cls-1008689814" >  </polyline>
<polyline id="7297cfa2-ec73-436e-bfcf-8da6e9352cdc" points="269.9404 272.2298 271.2132 271.495 "  class="cls-1008689814" >  </polyline>
<polyline id="bf06d992-e4a3-475b-90cc-53554c77fe4f" points="227.514 247.7349 228.7868 247.0001 "  class="cls-1008689814" >  </polyline>
<polyline id="6f088062-2e75-4d4d-a9bf-9d087aa566b7" points="221.7157 222.9529 222.9885 222.218 "  class="cls-1008689814" >  </polyline>
<polyline id="4af00694-a53a-40e8-98e3-27c06bfe5d97" points="278.2843 255.6127 279.5571 254.8779 "  class="cls-1008689814" >  </polyline>
<polyline id="2699aaaf-2fd2-4dea-a49c-03b3909c0afd" points="222.9885 222.218 279.5571 254.8779 "  class="cls-1008689814" >  </polyline>
<polyline id="cb5554c7-ef31-44b9-8baa-0611c09ad0a5" points="278.2843 277.0471 279.5571 276.3123 "  class="cls-1008689814" >  </polyline>
<polyline id="5660ac72-252a-4b4a-b985-e1e967117167" points="279.5571 254.8779 279.5571 276.3123 "  class="cls-1008689814" >  </polyline>
<polyline id="a64cbdfd-8cd1-48a0-9c85-69eea8d6426b" points="228.7868 239.936 228.7868 240.9158 "  class="cls-1008689814" >  </polyline>
<polyline id="85626b70-1126-49c8-9929-a8fbc137bd25" points="271.2132 264.4308 271.2132 265.4107 "  class="cls-1008689814" >  </polyline>
<polyline id="1fa959e1-1da0-44e7-9f9a-c5b6884d0c34" points="228.7868 249.9394 228.7868 240.9158 "  class="cls-1008689814" >  </polyline>
<polyline id="4f4feb5d-9211-4b47-995b-9102364138a3" points="229.2111 241.1607 229.2111 240.1809 "  class="cls-1008689814" >  </polyline>
<polyline id="d0aaa2e5-e4fd-4fe6-9c32-0f4c67a7bec5" points="229.2111 240.1809 225.8169 238.2214 "  class="cls-1008689814" >  </polyline>
<polyline id="c632123f-d39c-4477-931c-c4c26b49d8fd" points="226.2412 239.4461 226.2412 248.4698 "  class="cls-1008689814" >  </polyline>
<polyline id="bdb1a00b-648e-408b-b5bd-def65fb7b01b" points="220.4429 223.6877 277.0115 256.3476 "  class="cls-1008689814" >  </polyline>
<polyline id="6d6d7a6e-ce46-4f32-86f9-c4a836f68b95" points="277.0115 256.3476 277.0115 277.782 "  class="cls-1008689814" >  </polyline>
<polyline id="4cb6f923-d89b-4fc0-93e3-f7e1d93bd0a8" points="278.2843 255.6127 278.2843 277.0471 "  class="cls-1008689814" >  </polyline>
<polyline id="52726de6-2a4c-4fc8-9077-ab4b6b9d5a2e" points="271.2132 274.4343 271.2132 265.4107 "  class="cls-1008689814" >  </polyline>
<polyline id="45bf3fb0-9662-4798-8dad-90d216b9f583" points="271.6375 265.6556 271.6375 264.6758 "  class="cls-1008689814" >  </polyline>
<polyline id="3b720377-6898-4186-882a-6e7438633270" points="271.6375 264.6758 268.2434 262.7163 "  class="cls-1008689814" >  </polyline>
<polyline id="2f83d1e6-41a8-4bcd-9e0d-3b1d4cade3e1" points="268.6676 263.941 268.6676 272.9646 "  class="cls-1008689814" >  </polyline>
<polyline id="1fc9549a-dc4a-4fba-b82d-98a6a4db2172" points="269.9404 263.696 269.9404 272.2298 "  class="cls-1008689814" >  </polyline>
<polyline id="ddff1814-7977-4185-ab2c-7916878ea53c" points="227.514 239.2008 227.514 247.7349 "  class="cls-1008689814" >  </polyline>
<polyline id="cf3ff21d-6188-4bbb-8c4f-ba13e90c3c7d" points="221.7157 222.9529 278.2843 255.6127 "  class="cls-1008689814" >  </polyline>
<defs>
<style> .cls-30449002{stroke:#000000 ; stroke-opacity:1; stroke-width:1; stroke-linecap:round; stroke-linejoin:round; fill:none; } </style>
<style> .cls-1008689814{stroke:#000000 ; stroke-opacity:1; stroke-width:0.3; stroke-linecap:round; stroke-linejoin:round; fill:none; } </style>
</defs>
</svg>