<svg xmlns="http://www.w3.org/2000/svg" xmlns:xlink="http://www.w3.org/1999/xlink" width="203.3333" height="406.6667" viewBox = " 0 0 203.3333 406.6667" preserveAspectRatio="xMinYMin meet">
<rect id="background" x="0" y="0" width="203.3333" height="406.6667" style="fill:none; stroke:none;" />
<polyline id="c666dba5-e442-427b-aa18-57b4e4858c74" points="29.7143 288.5994 48.0541 288.5994 48.054 382.5348 29.7143 382.5348 29.7143 381.5346 27.6305 381.5346 27.6305 389.6196 29.7143 389.6196 29.7143 388.6194 48.0541 388.6193 48.054 402.2054 4.3759 402.2054 4.3759 268.9288 48.0541 268.9288 48.0541 282.5148 29.7143 282.5148 29.7143 281.5146 27.6305 281.5146 27.6305 289.5996 29.7143 289.5996 29.7143 288.5994 "  class="cls-1059021462" >  </polyline>
<polyline id="8e1655ce-7177-4d90-8ae3-12e14360e2cf" points="29.7143 148.4047 48.0541 148.4047 48.054 242.3401 29.7143 242.3401 29.7143 241.3399 27.6305 241.3399 27.6305 249.4249 29.7143 249.4249 29.7143 248.4247 48.0541 248.4246 48.054 262.0107 4.3759 262.0107 4.3759 128.7341 48.0541 128.7341 48.0541 142.3201 29.7143 142.3201 29.7143 141.3199 27.6305 141.3199 27.6305 149.4049 29.7143 149.4049 29.7143 148.4047 "  class="cls-1059021462" >  </polyline>
<polyline id="659afbed-d9d0-4a0c-8466-8087a9eef189" points="0 406.748 203.374 406.748 203.374 0 0 0 0 406.748 "  class="cls-1008689814" >  </polyline>
<defs>
<style> .cls-1059021462{stroke:#000000 ; stroke-opacity:1; stroke-width:0.5; stroke-linecap:round; stroke-linejoin:round; fill:none; } </style>
<style> .cls-1008689814{stroke:#000000 ; stroke-opacity:1; stroke-width:0.3; stroke-linecap:round; stroke-linejoin:round; fill:none; } </style>
</defs>
</svg>