<svg xmlns="http://www.w3.org/2000/svg" xmlns:xlink="http://www.w3.org/1999/xlink" width="500" height="500" viewBox = " 0 0 500 500" preserveAspectRatio="xMinYMin meet">
<rect id="background" x="0" y="0" width="500" height="500" style="fill:none; stroke:none;" />
<polyline id="4733fd44-498a-41e3-b06e-37a575be1b21" points="312.3668 296.7247 311.094 297.4595 186.3604 225.4445 186.3604 222.5052 185.0876 223.24 183.8148 223.9749 178.0166 220.6272 178.0165 199.1928 179.2893 198.458 180.5621 197.7231 186.3604 201.0708 186.3604 200.9497 187.6332 200.2148 188.906 199.48 228.7868 222.5052 228.7868 224.5859 228.3625 224.8308 228.3625 225.3207 228.7868 225.5657 228.7868 225.4446 230.0596 224.7097 231.3324 223.9749 271.2132 247.0001 271.2132 249.0808 270.7889 249.3257 270.7889 249.8156 271.2132 250.0606 271.2132 249.9395 272.486 249.2046 273.7588 248.4698 313.6396 271.495 313.6396 273.5757 313.2153 273.8206 313.2153 274.3105 321.9835 279.3728 321.9835 300.8072 320.7107 301.542 319.4379 302.2769 313.6396 298.9292 313.6396 295.9898 312.3668 296.7247 "  class="cls-30449002" >  </polyline>
<polyline id="1e3e79aa-6991-49e1-bcfa-bb6719cf80d6" points="186.7847 216.1759 186.7847 215.6861 186.3604 215.4411 186.3604 216.4209 186.7847 216.1759 "  class="cls-30449002" >  </polyline>
<polyline id="1a80a127-9b1f-4788-84de-fb771c024811" points="313.6396 289.9056 314.0639 289.6606 314.0639 289.1707 313.6396 288.9258 313.6396 289.9056 "  class="cls-30449002" >  </polyline>
<polyline id="e23a4145-2c95-44c0-a5a5-951746286aa6" points="311.094 297.4595 186.3604 225.4445 "  class="cls-1008689814" >  </polyline>
<polyline id="b072e5c0-1222-4430-94ab-e4daa5470ca5" points="311.094 297.4595 312.3668 296.7247 "  class="cls-1008689814" >  </polyline>
<polyline id="1a7599f1-ee2a-4d52-83c8-20d398e5bbc3" points="186.3604 216.4209 186.7847 216.1759 "  class="cls-1008689814" >  </polyline>
<polyline id="a6fe7ae4-1dad-430a-a0ad-8a79a1d60f88" points="186.3604 216.4209 186.7847 216.6658 "  class="cls-1008689814" >  </polyline>
<polyline id="d7362134-8bae-454f-89a9-49d2aed45a11" points="183.3905 213.7265 183.3905 214.7063 "  class="cls-1008689814" >  </polyline>
<polyline id="07688e50-d4fe-4b79-9741-544677725743" points="183.3905 214.7063 184.2397 214.216 "  class="cls-1008689814" >  </polyline>
<polyline id="4d26147e-1558-4d52-83c6-87c78c8cc31c" points="183.3905 214.7063 183.8148 214.9512 "  class="cls-1008689814" >  </polyline>
<polyline id="89b49595-2068-47ae-b4af-3d542ab9d87c" points="183.8148 214.9512 184.6641 214.4609 "  class="cls-1008689814" >  </polyline>
<polyline id="744b8d65-bbfe-4568-85b5-dccddab0afd6" points="183.8148 223.9749 185.0876 223.24 "  class="cls-1008689814" >  </polyline>
<polyline id="88c4a7ac-cef5-4e91-ad70-0cba7b858d4e" points="183.8148 223.9749 178.0166 220.6272 "  class="cls-1008689814" >  </polyline>
<polyline id="19d8a495-1a1e-4668-a3d2-98f3b16f5694" points="178.0166 220.6272 178.0165 199.1928 "  class="cls-1008689814" >  </polyline>
<polyline id="28bee195-69e9-4442-b4cf-e190eeea889c" points="178.0165 199.1928 179.2893 198.458 "  class="cls-1008689814" >  </polyline>
<polyline id="a27b5e62-c1ba-4273-add3-55f73643a151" points="186.7847 204.2551 186.7847 203.2753 "  class="cls-1008689814" >  </polyline>
<polyline id="9326e22a-fc68-476d-8101-47b00300bd04" points="186.7847 203.2753 186.3604 203.0304 "  class="cls-1008689814" >  </polyline>
<polyline id="b6dce8ef-eb9f-4ea7-a4c2-1fd527a57186" points="186.3604 200.9497 187.6332 200.2148 "  class="cls-1008689814" >  </polyline>
<polyline id="75fdafe9-5e66-4743-a7fd-c8d201168882" points="226.2412 223.9749 227.514 223.24 "  class="cls-1008689814" >  </polyline>
<polyline id="89526fd6-89c1-42f6-af77-375cb441264d" points="226.2412 226.0556 225.8169 225.8106 "  class="cls-1008689814" >  </polyline>
<polyline id="8b5179ef-1ccd-4ae8-8a13-a6808e90821c" points="225.8169 225.8106 225.8169 226.7904 "  class="cls-1008689814" >  </polyline>
<polyline id="e7c237f1-a604-40a6-8f01-e0194b291926" points="225.8169 226.7904 227.0897 226.0556 "  class="cls-1008689814" >  </polyline>
<polyline id="806dd16b-afa6-49d1-846a-74360af1efdb" points="225.8169 226.7904 229.2111 228.75 "  class="cls-1008689814" >  </polyline>
<polyline id="30a9a748-b925-4aa3-9880-23abff297706" points="227.0897 226.0556 228.7872 227.0356 "  class="cls-1008689814" >  </polyline>
<polyline id="892ec460-66b5-4770-b49d-613f40723c01" points="229.2111 228.75 229.2111 227.7702 "  class="cls-1008689814" >  </polyline>
<polyline id="e377edc6-1811-49cf-9fa7-0fca15d07f7c" points="229.2111 227.7702 228.7868 227.5252 "  class="cls-1008689814" >  </polyline>
<polyline id="fe1b8990-63ae-4881-b885-5ec2dc8b2456" points="228.7868 225.4446 230.0596 224.7097 "  class="cls-1008689814" >  </polyline>
<polyline id="69c6b829-db9f-478d-a25b-315972d2c256" points="268.6676 248.4698 269.9404 247.7349 "  class="cls-1008689814" >  </polyline>
<polyline id="3b5719d2-20b9-4861-951b-8a1b593fa6b9" points="268.6676 250.5505 268.2434 250.3055 "  class="cls-1008689814" >  </polyline>
<polyline id="717fa934-cac0-4e69-8f48-3b024dbeb601" points="268.2434 250.3055 268.2434 251.2853 "  class="cls-1008689814" >  </polyline>
<polyline id="c7695127-d85a-4b87-bee1-3367cc97a7d2" points="268.2434 251.2853 269.5161 250.5505 "  class="cls-1008689814" >  </polyline>
<polyline id="1bc25431-8d9d-4758-8187-35fdfe6e51e7" points="268.2434 251.2853 271.6375 253.2449 "  class="cls-1008689814" >  </polyline>
<polyline id="8c36ff92-29d4-4e88-b524-ca85cd5d76da" points="269.5161 250.5505 271.2132 251.5302 "  class="cls-1008689814" >  </polyline>
<polyline id="a524b6c1-6859-47ad-9946-af08b57f0ba9" points="271.6375 253.2449 271.6375 252.2651 "  class="cls-1008689814" >  </polyline>
<polyline id="460033d1-5fba-4175-b41c-ee2065e0a729" points="271.6375 252.2651 271.2132 252.0201 "  class="cls-1008689814" >  </polyline>
<polyline id="f49774c4-2c5a-4942-9806-65124fe29af0" points="271.2132 249.9395 272.486 249.2046 "  class="cls-1008689814" >  </polyline>
<polyline id="d8081d3d-318b-46e1-99e7-ba45e7d96962" points="311.094 272.9647 312.3668 272.2298 "  class="cls-1008689814" >  </polyline>
<polyline id="c05d8615-d1b6-4c53-8e1e-13921cf3e76f" points="311.094 275.0454 310.6698 274.8004 "  class="cls-1008689814" >  </polyline>
<polyline id="c07d8b44-9dd4-4680-b57d-6994cd20d0af" points="310.6698 274.8004 310.6698 275.7802 "  class="cls-1008689814" >  </polyline>
<polyline id="b105b267-0215-4700-bae9-9e0ef0b89b94" points="310.6698 275.7802 311.9426 275.0454 "  class="cls-1008689814" >  </polyline>
<polyline id="a6fb6671-eb14-4f2c-a1d6-05ca62c4a2d3" points="310.6698 275.7802 319.4379 280.8425 "  class="cls-1008689814" >  </polyline>
<polyline id="e71765d5-2f11-4066-bad4-e22e753e3daa" points="319.4379 280.8425 320.7107 280.1076 "  class="cls-1008689814" >  </polyline>
<polyline id="c9c799dc-8932-450a-94e6-3244a86f9ea5" points="319.4379 302.2769 320.7107 301.542 "  class="cls-1008689814" >  </polyline>
<polyline id="fb15d99d-676c-4a2f-8178-ea16c1e4b582" points="319.4379 302.2769 313.6396 298.9292 "  class="cls-1008689814" >  </polyline>
<polyline id="6f72c5ac-a3c2-4d2e-96e7-366dbce55354" points="313.6396 289.9056 314.0642 289.6604 "  class="cls-1008689814" >  </polyline>
<polyline id="5dd32d21-4d03-42d5-b474-ff172733203a" points="313.6396 289.9056 314.0639 290.1505 "  class="cls-1008689814" >  </polyline>
<polyline id="c3b8a880-87b4-43bc-aa03-dd9bea644e31" points="310.6698 287.2111 310.6698 288.1909 "  class="cls-1008689814" >  </polyline>
<polyline id="1e9eb692-ff1c-448f-98ad-aad42cafdbbb" points="310.6698 288.1909 311.5185 287.7009 "  class="cls-1008689814" >  </polyline>
<polyline id="834e8dbb-dec2-43ca-9e21-6bfba6216763" points="310.6698 288.1909 311.094 288.4359 "  class="cls-1008689814" >  </polyline>
<polyline id="629b77ef-bdd9-440c-b3b2-811b495a66d5" points="311.094 288.4359 311.9429 287.9458 "  class="cls-1008689814" >  </polyline>
<polyline id="f9abd523-de0f-4ee9-908b-a3413843cc71" points="269.5161 250.0606 269.5161 250.5505 "  class="cls-1008689814" >  </polyline>
<polyline id="7cece030-c774-49c8-97e1-fb4bf5e47e1d" points="312.3668 296.7247 313.6396 295.9898 "  class="cls-1008689814" >  </polyline>
<polyline id="ff0f3ebe-99e1-4149-a79b-0ea315367a7e" points="185.0876 223.24 186.3604 222.5052 "  class="cls-1008689814" >  </polyline>
<polyline id="72fe731e-8c6c-4213-aa0f-a7d60ea04b82" points="179.2893 198.458 180.5621 197.7231 "  class="cls-1008689814" >  </polyline>
<polyline id="fff77701-4a35-4b27-b491-8135da05485f" points="180.5621 197.7231 186.3611 201.0712 "  class="cls-1008689814" >  </polyline>
<polyline id="11cace9e-a6c3-4c6f-975f-4956ddb78194" points="187.6332 200.2148 188.906 199.48 "  class="cls-1008689814" >  </polyline>
<polyline id="1cca9d79-c84e-410f-ad26-4ba5897acf6d" points="227.514 223.24 228.7868 222.5052 "  class="cls-1008689814" >  </polyline>
<polyline id="ac9a90b7-5d4c-4283-8a53-4fa84278631a" points="188.906 199.48 228.7868 222.5052 "  class="cls-1008689814" >  </polyline>
<polyline id="9d7902dc-9b6e-4755-a531-b8a4704af02b" points="228.7868 222.5052 228.7868 224.5859 "  class="cls-1008689814" >  </polyline>
<polyline id="ef0f21b9-098a-4cad-ab04-a4af672ae9b7" points="227.0897 226.0556 228.3625 225.3207 "  class="cls-1008689814" >  </polyline>
<polyline id="d7fa0d42-f99b-4538-b657-bfb86769d042" points="228.3625 225.3207 228.7868 225.5657 "  class="cls-1008689814" >  </polyline>
<polyline id="be6cba54-25ae-491b-9b56-01e7b1760f25" points="230.0596 224.7097 231.3324 223.9749 "  class="cls-1008689814" >  </polyline>
<polyline id="f80ab64e-7d0d-46bf-9125-25e9c36a3a27" points="269.9404 247.7349 271.2132 247.0001 "  class="cls-1008689814" >  </polyline>
<polyline id="9456f6ed-8805-4474-bc9a-b6c29c8fda7b" points="231.3324 223.9749 271.2132 247.0001 "  class="cls-1008689814" >  </polyline>
<polyline id="20549a14-d75b-458a-8d4b-198752ca0e5f" points="271.2132 247.0001 271.2132 249.0808 "  class="cls-1008689814" >  </polyline>
<polyline id="30c09886-0034-4ad0-9de5-b7082e40f964" points="269.5161 250.5505 270.7889 249.8156 "  class="cls-1008689814" >  </polyline>
<polyline id="8952d97c-c985-4d1a-b40f-b996a75c9074" points="270.7889 249.8156 271.2132 250.0606 "  class="cls-1008689814" >  </polyline>
<polyline id="e74f28e1-6099-48e8-9e27-fe39e0c9ba81" points="272.486 249.2046 273.7588 248.4698 "  class="cls-1008689814" >  </polyline>
<polyline id="51a84d34-479e-4ad8-92be-41ac61f83c6c" points="312.3668 272.2298 313.6396 271.495 "  class="cls-1008689814" >  </polyline>
<polyline id="1e7c5968-4f58-463c-a781-60e1865c30fa" points="273.7588 248.4698 313.6396 271.495 "  class="cls-1008689814" >  </polyline>
<polyline id="663abb37-b29c-4df6-a068-f28c0b9cb3d2" points="313.6396 271.495 313.6396 273.5757 "  class="cls-1008689814" >  </polyline>
<polyline id="bc29096d-aafc-4a9c-9364-1f5a41942bb6" points="311.9426 275.0454 313.2153 274.3105 "  class="cls-1008689814" >  </polyline>
<polyline id="8686d9f2-c0fe-4486-b3c4-6d05d734d994" points="311.9426 275.0454 320.7107 280.1076 "  class="cls-1008689814" >  </polyline>
<polyline id="64744065-4b52-45bc-9d45-b518ce0db2de" points="320.7107 280.1076 321.9835 279.3728 "  class="cls-1008689814" >  </polyline>
<polyline id="8fffb301-1242-4482-8a1a-33b97ebd13f0" points="313.2153 274.3105 321.9835 279.3728 "  class="cls-1008689814" >  </polyline>
<polyline id="2672b682-6019-4924-8ca2-bc22f34af9f2" points="320.7107 301.542 321.9835 300.8072 "  class="cls-1008689814" >  </polyline>
<polyline id="facf224d-b250-48b2-a550-05989b68dd54" points="321.9835 279.3728 321.9835 300.8072 "  class="cls-1008689814" >  </polyline>
<polyline id="212bf307-2a61-4340-9821-a5f504d89305" points="228.3625 224.8308 228.3625 225.3207 "  class="cls-1008689814" >  </polyline>
<polyline id="afe99891-3abd-470f-8e7a-a308a31062c6" points="270.7889 249.3257 270.7889 249.8156 "  class="cls-1008689814" >  </polyline>
<polyline id="7a49e5fb-aa38-4e89-a6f4-4318ffb0a3f8" points="313.2153 273.82 313.2153 274.3105 "  class="cls-1008689814" >  </polyline>
<polyline id="a4908ee1-7eca-4504-914e-917b9041c854" points="227.0897 225.5657 227.0897 226.0556 "  class="cls-1008689814" >  </polyline>
<polyline id="88546dca-0fb2-4533-9ea7-ef5e65cccb2d" points="311.9426 274.5549 311.9426 275.0454 "  class="cls-1008689814" >  </polyline>
<polyline id="3193fa2e-ba73-421d-811c-051f8a7035c0" points="186.3604 215.4411 186.3604 216.4209 "  class="cls-1008689814" >  </polyline>
<polyline id="c31cc792-f365-4612-b34e-00563a3914d4" points="313.6396 288.9258 313.6396 289.9056 "  class="cls-1008689814" >  </polyline>
<polyline id="64dd8a8a-bc11-4be2-8310-7f4d58db97e0" points="186.3604 225.4445 186.3604 216.4209 "  class="cls-1008689814" >  </polyline>
<polyline id="0276b058-aa31-4052-9594-2d58629f45c7" points="186.7847 216.6658 186.7847 215.686 "  class="cls-1008689814" >  </polyline>
<polyline id="817e9866-7e8c-4f6d-a77f-10ccd8897a27" points="186.7847 215.686 183.3905 213.7265 "  class="cls-1008689814" >  </polyline>
<polyline id="b3595d72-2048-4114-9fb0-26b1f268dacf" points="183.8148 214.9512 183.8148 223.9749 "  class="cls-1008689814" >  </polyline>
<polyline id="652c65d3-b1c6-4820-98ca-9c8a3c51a2f0" points="178.0165 199.1928 186.7847 204.2551 "  class="cls-1008689814" >  </polyline>
<polyline id="5732bb7a-ceea-4a5b-b3d1-401a480abcf5" points="186.3604 203.0304 186.3604 200.9497 "  class="cls-1008689814" >  </polyline>
<polyline id="7c2f056b-eb34-4420-acd2-c6c61c2839e6" points="186.3604 200.9497 226.2412 223.9749 "  class="cls-1008689814" >  </polyline>
<polyline id="aef04df2-5b30-4642-bbf1-00ca8402f3a4" points="187.6332 200.2148 227.514 223.24 "  class="cls-1008689814" >  </polyline>
<polyline id="c4fbf012-bbb3-4cd1-9cd1-04906709f8dc" points="226.2412 223.9749 226.2412 226.0556 "  class="cls-1008689814" >  </polyline>
<polyline id="10f16932-0a33-48fe-b2a6-cff6fac7f69e" points="226.2412 226.0556 227.514 225.3207 "  class="cls-1008689814" >  </polyline>
<polyline id="d0c05b9d-4732-447a-86f6-5f0972343809" points="227.514 223.24 227.514 225.3207 "  class="cls-1008689814" >  </polyline>
<polyline id="f4f2527f-532f-4307-bdd3-9ccc1b0d3b17" points="228.7868 227.5252 228.7868 225.4446 "  class="cls-1008689814" >  </polyline>
<polyline id="76433142-0a6b-4e6b-9278-5eafe025fb67" points="228.7868 225.4446 268.6676 248.4698 "  class="cls-1008689814" >  </polyline>
<polyline id="61145211-632f-4689-95c0-f9aed38a40b9" points="268.6676 248.4698 268.6676 250.5505 "  class="cls-1008689814" >  </polyline>
<polyline id="3eaacd33-560f-4161-87a6-4b01670e3579" points="268.6676 250.5505 269.9404 249.8156 "  class="cls-1008689814" >  </polyline>
<polyline id="83db8bb6-4636-4e82-b36c-60d16ed671a2" points="269.9404 247.7349 269.9404 249.8156 "  class="cls-1008689814" >  </polyline>
<polyline id="53b41da1-11fb-4fd6-99c8-e12f455ae8ac" points="271.2132 252.0201 271.2132 249.9395 "  class="cls-1008689814" >  </polyline>
<polyline id="c2cb7d30-f3aa-40a1-be99-fbeeda38c636" points="271.2132 249.9395 311.094 272.9647 "  class="cls-1008689814" >  </polyline>
<polyline id="723fc6dd-1c9e-4686-b0d6-0643bea58787" points="272.486 249.2046 312.3668 272.2298 "  class="cls-1008689814" >  </polyline>
<polyline id="84027bc4-da60-4b08-bbb7-8b087854cd9e" points="311.094 272.9647 311.094 275.0454 "  class="cls-1008689814" >  </polyline>
<polyline id="d652e535-5d97-4731-b037-414f4cbbf56c" points="311.094 275.0454 312.3668 274.3105 "  class="cls-1008689814" >  </polyline>
<polyline id="4f6ee635-ed75-4467-8280-ec6c669c14a0" points="312.3668 272.2298 312.3668 274.3105 "  class="cls-1008689814" >  </polyline>
<polyline id="599c2771-538e-4a52-9195-c15ee92e6f73" points="319.4379 280.8425 319.4379 302.2769 "  class="cls-1008689814" >  </polyline>
<polyline id="84190086-a3f6-40d8-92fc-94fd05ad38f4" points="320.7107 280.1076 320.7107 301.542 "  class="cls-1008689814" >  </polyline>
<polyline id="bb19aee9-9e11-4b4d-a7af-f534bc604d43" points="313.6396 298.9292 313.6396 289.9056 "  class="cls-1008689814" >  </polyline>
<polyline id="3a2bd560-eb68-45df-8515-d61c384c43b8" points="314.0639 290.1505 314.0639 289.1707 "  class="cls-1008689814" >  </polyline>
<polyline id="8436b69c-4f15-4ed3-aa47-ea3c92b5c812" points="314.0639 289.1707 310.6698 287.2111 "  class="cls-1008689814" >  </polyline>
<polyline id="a343d81d-a5cf-4b8a-86e2-8d6d94c0b09f" points="311.094 288.4359 311.094 297.4595 "  class="cls-1008689814" >  </polyline>
<polyline id="8622dbf2-5f9b-459e-af8a-90f54cfd2153" points="185.0876 214.7061 185.0876 223.24 "  class="cls-1008689814" >  </polyline>
<polyline id="00ddb7f3-6e5c-4408-a89e-e5eaee7b882e" points="179.2893 198.458 186.3604 202.5405 "  class="cls-1008689814" >  </polyline>
<polyline id="1d2a6c77-0c4f-4aae-ac86-5bf41b94dddc" points="227.514 225.3207 228.7868 224.5859 "  class="cls-1008689814" >  </polyline>
<polyline id="2b32a256-f422-426a-be2d-45ddcd134d13" points="230.0596 224.7097 269.9404 247.7349 "  class="cls-1008689814" >  </polyline>
<polyline id="044cd7f0-69dc-4457-8653-01b6361bc8f6" points="269.9404 249.8156 271.2132 249.0808 "  class="cls-1008689814" >  </polyline>
<polyline id="0d3058e8-ebe1-4841-955e-6ba83d2ae2eb" points="312.3668 274.3105 313.6396 273.5757 "  class="cls-1008689814" >  </polyline>
<polyline id="89f28fa6-c5d0-4aff-91fd-685c2a48dbf8" points="312.3668 288.1909 312.3668 296.7247 "  class="cls-1008689814" >  </polyline>
<defs>
<style> .cls-30449002{stroke:#000000 ; stroke-opacity:1; stroke-width:1; stroke-linecap:round; stroke-linejoin:round; fill:none; } </style>
<style> .cls-1008689814{stroke:#000000 ; stroke-opacity:1; stroke-width:0.3; stroke-linecap:round; stroke-linejoin:round; fill:none; } </style>
</defs>
</svg>