<svg xmlns="http://www.w3.org/2000/svg" xmlns:xlink="http://www.w3.org/1999/xlink" width="203.3333" height="406.6667" viewBox = " 0 0 203.3333 406.6667" preserveAspectRatio="xMinYMin meet">
<rect id="background" x="0" y="0" width="203.3333" height="406.6667" style="fill:none; stroke:none;" />
<polyline id="557bdaf4-bda4-4910-bb4c-50bcaac531b7" points="90.0864 89.0595 108.4261 89.0595 108.4261 383.0349 90.0864 383.0349 90.0864 382.0347 88.0026 382.0347 88.0026 390.1197 90.0864 390.1197 90.0864 389.1195 108.4261 389.1194 108.4261 402.7055 64.748 402.7055 64.748 382.0347 62.6642 382.0347 62.6642 383.0349 58.4995 383.0349 58.4995 289.0995 62.6642 289.0995 62.6642 290.0997 64.748 290.0997 64.748 282.0147 62.6642 282.0147 62.6642 283.0149 58.4995 283.0149 58.4995 189.0795 62.6642 189.0795 62.6642 190.0797 64.748 190.0797 64.748 181.9947 62.6642 181.9947 62.6642 182.9949 58.4995 182.9949 58.4995 89.0595 62.6642 89.0595 62.6642 90.0597 64.748 90.0597 64.748 69.3889 108.4261 69.3889 108.4261 82.9749 90.0864 82.9749 90.0864 81.9747 88.0026 81.9747 88.0026 90.0597 90.0864 90.0597 90.0864 89.0595 "  class="cls-1059021462" >  </polyline>
<polyline id="b97986d8-3d29-4448-9b78-8a5d3f7e763d" points="36.0489 89.0595 54.3887 89.0595 54.3886 383.0349 36.0489 383.0349 36.0489 382.0347 33.9651 382.0347 33.9651 390.1197 36.0489 390.1197 36.0489 389.1195 54.3887 389.1194 54.3886 402.7055 10.7105 402.7055 10.7105 382.0347 8.6267 382.0347 8.6267 383.0349 4.4621 383.0349 4.4621 289.0995 8.6267 289.0995 8.6267 290.0997 10.7105 290.0997 10.7105 282.0147 8.6267 282.0147 8.6267 283.0149 4.4621 283.0149 4.4621 189.0795 8.6267 189.0795 8.6267 190.0797 10.7105 190.0797 10.7105 181.9947 8.6267 181.9947 8.6267 182.9949 4.4621 182.9949 4.4621 89.0595 8.6267 89.0595 8.6267 90.0597 10.7105 90.0597 10.7105 69.3889 54.3887 69.3889 54.3887 82.9749 36.0489 82.9749 36.0489 81.9747 33.9651 81.9747 33.9651 90.0597 36.0489 90.0597 36.0489 89.0595 "  class="cls-1059021462" >  </polyline>
<polyline id="8fbaeb45-19e9-418e-936b-86c711df1379" points="0 406.748 203.374 406.748 203.374 0 0 0 0 406.748 "  class="cls-1008689814" >  </polyline>
<defs>
<style> .cls-1059021462{stroke:#000000 ; stroke-opacity:1; stroke-width:0.5; stroke-linecap:round; stroke-linejoin:round; fill:none; } </style>
<style> .cls-1008689814{stroke:#000000 ; stroke-opacity:1; stroke-width:0.3; stroke-linecap:round; stroke-linejoin:round; fill:none; } </style>
</defs>
</svg>