<svg xmlns="http://www.w3.org/2000/svg" xmlns:xlink="http://www.w3.org/1999/xlink" width="500" height="500" viewBox = " 0 0 500 500" preserveAspectRatio="xMinYMin meet">
<rect id="background" x="0" y="0" width="500" height="500" style="fill:none; stroke:none;" />
<polyline id="e7234be8-d0d3-481b-b0b7-53a6a41e1204" points="314.9124 268.0854 334.8528 279.598 334.8528 288.2107 334.4285 288.4556 334.4285 288.9455 343.1967 294.0078 343.1967 315.4422 341.9239 316.177 340.6511 316.9119 334.8528 313.5642 334.8528 310.6249 333.58 311.3597 332.3072 312.0946 185.0876 227.0973 165.1472 215.5846 165.1472 212.6453 163.8744 213.3801 163.8744 213.3801 162.6016 214.115 156.8034 210.7673 156.8033 189.3329 158.0761 188.5981 159.3489 187.8632 165.1472 191.2109 165.1472 184.5578 166.42 183.823 167.6928 183.0881 207.5736 206.1133 207.5736 209.0527 208.8464 208.3179 210.1192 207.583 250 230.6082 250 233.5476 251.2728 232.8128 252.5456 232.0779 292.4264 255.1031 292.4264 258.0425 293.6992 257.3077 294.972 256.5728 314.9124 268.0854 "  class="cls-30449002" >  </polyline>
<polyline id="0bee5518-5f65-48e7-93c8-8b6c08eb0592" points="207.5736 214.726 207.1493 214.9709 207.1493 215.4608 207.5736 215.7058 207.5736 214.726 "  class="cls-30449002" >  </polyline>
<polyline id="09d1cf33-3e88-493b-a13e-d9f416896f06" points="250 239.2209 249.5757 239.4658 249.5757 239.9557 250 240.2007 250 239.2209 "  class="cls-30449002" >  </polyline>
<polyline id="b9ce2af6-44f6-4f52-87fd-a7422ad712dd" points="292.4264 263.7158 292.0021 263.9607 292.0021 264.4506 292.4264 264.6956 292.4264 263.7158 "  class="cls-30449002" >  </polyline>
<polyline id="20865780-ddb6-4bfd-96d2-41dbd95f80d7" points="165.1472 206.561 165.5715 206.3161 165.5715 205.8262 165.1472 205.5812 165.1472 206.561 "  class="cls-30449002" >  </polyline>
<polyline id="423db8fa-cf4e-4cb9-866c-7b333bd277e8" points="334.8528 304.5406 335.2771 304.2956 335.2771 303.8057 334.8528 303.5608 334.8528 304.5406 "  class="cls-30449002" >  </polyline>
<polyline id="168bae5d-bf38-4ca1-9896-5071e82eed65" points="313.6396 268.8203 314.9124 268.0854 "  class="cls-1008689814" >  </polyline>
<polyline id="3aa024b6-9e68-48cd-a749-fcd143409305" points="333.58 280.3329 334.8528 279.598 "  class="cls-1008689814" >  </polyline>
<polyline id="e8b0bdef-870f-4940-beea-cc72bb01238c" points="314.9124 268.0854 334.8528 279.598 "  class="cls-1008689814" >  </polyline>
<polyline id="85fc7f80-fc6c-485e-a8af-87f224cfd743" points="334.8528 279.598 334.8528 288.2107 "  class="cls-1008689814" >  </polyline>
<polyline id="e307fda5-10f8-44d4-8332-6bb6f3b8e03c" points="333.1558 289.6804 334.4285 288.9455 "  class="cls-1008689814" >  </polyline>
<polyline id="57755534-0dd8-407b-8c9b-1b15c3542b08" points="333.1558 289.6804 341.9239 294.7426 "  class="cls-1008689814" >  </polyline>
<polyline id="2215079a-60ba-4834-837f-98e26cd92b29" points="341.9239 294.7426 343.1967 294.0078 "  class="cls-1008689814" >  </polyline>
<polyline id="895b8184-a5f3-44aa-97e8-be4a3f0d3c05" points="334.4285 288.9455 343.1967 294.0078 "  class="cls-1008689814" >  </polyline>
<polyline id="3c69831f-25ec-42f5-9cee-15874ddef083" points="341.9239 316.177 343.1966 315.4422 "  class="cls-1008689814" >  </polyline>
<polyline id="ce58f74a-507b-4976-8dea-e80fe9479234" points="343.1967 294.0078 343.1966 315.4422 "  class="cls-1008689814" >  </polyline>
<polyline id="c4eeddb9-c237-4aca-9da7-e64b9502d7af" points="333.58 311.3597 334.8528 310.6249 "  class="cls-1008689814" >  </polyline>
<polyline id="81e0ac56-e32b-4c45-b965-8d4d86a5e9c5" points="334.4285 288.4556 334.4285 288.9455 "  class="cls-1008689814" >  </polyline>
<polyline id="7c880843-be0e-44f9-885d-ccb8354b313c" points="192.4062 215.156 192.4062 216.6257 "  class="cls-1008689814" >  </polyline>
<polyline id="f338dcb3-5639-4368-9d3e-41604e505a84" points="197.7095 219.6875 192.4062 216.6257 "  class="cls-1008689814" >  </polyline>
<polyline id="f5906c77-a402-4296-8d7d-261147f3352e" points="299.745 283.8234 299.745 285.293 "  class="cls-1008689814" >  </polyline>
<polyline id="8d2302e5-1a4f-4ab2-bba5-c054d2e0a978" points="299.745 277.1281 299.745 278.5978 "  class="cls-1008689814" >  </polyline>
<polyline id="33558c79-76f7-4b22-9d6a-63f6f73b893a" points="305.0483 281.6596 299.745 278.5978 "  class="cls-1008689814" >  </polyline>
<polyline id="37660a15-3498-4e04-8780-0bde50363d0d" points="177.769 213.4005 177.769 214.8702 "  class="cls-1008689814" >  </polyline>
<polyline id="34363e3b-1e70-4a05-8309-66c6fe20bef8" points="172.4657 210.3387 172.4657 211.8084 "  class="cls-1008689814" >  </polyline>
<polyline id="4efb7394-9b2c-453b-91c1-43f52fede6ce" points="172.4657 211.8084 172.4657 213.278 "  class="cls-1008689814" >  </polyline>
<polyline id="b7289a7b-dd89-4f8e-ad9d-cbf1be01003a" points="177.769 216.3399 172.4657 213.278 "  class="cls-1008689814" >  </polyline>
<polyline id="c83b4f80-c305-468f-a8d3-92178b6816f9" points="319.6854 295.336 319.6854 296.8056 "  class="cls-1008689814" >  </polyline>
<polyline id="4ba49ba6-edbd-49ab-92e7-b4971f7a4bf5" points="319.6854 296.8056 319.6854 298.2753 "  class="cls-1008689814" >  </polyline>
<polyline id="3f52ae6d-be9b-430d-a733-57d9ec68e6b1" points="324.9887 301.3372 319.6854 298.2753 "  class="cls-1008689814" >  </polyline>
<polyline id="f9f6eb93-e0c4-417f-a1ec-829d942c29fb" points="172.4657 202.1737 172.4657 203.6434 "  class="cls-1008689814" >  </polyline>
<polyline id="706d9b0b-2d37-4f3f-9044-b624914f2bc7" points="172.4657 203.6434 172.4657 205.1131 "  class="cls-1008689814" >  </polyline>
<polyline id="d1d0a5ab-c8f3-46a6-a72d-aefe8d85421b" points="177.769 208.1749 172.4657 205.1131 "  class="cls-1008689814" >  </polyline>
<polyline id="3497152b-e876-43b2-9ffb-a4f0d429a81b" points="197.7095 226.3828 197.7095 227.8525 "  class="cls-1008689814" >  </polyline>
<polyline id="49e796ad-b257-4ef5-90a4-aec830ec9502" points="192.4062 223.321 192.4062 224.7906 "  class="cls-1008689814" >  </polyline>
<polyline id="19973cf8-2818-4356-99f8-eeed923c80e5" points="197.7095 227.8525 192.4062 224.7906 "  class="cls-1008689814" >  </polyline>
<polyline id="d455a43e-fe6d-4b10-986e-6d5beeeca7d3" points="299.745 285.293 299.745 286.7627 "  class="cls-1008689814" >  </polyline>
<polyline id="1ef7c0e8-19d9-412f-9dfb-c393cbcc1411" points="305.0483 289.8246 299.745 286.7627 "  class="cls-1008689814" >  </polyline>
<polyline id="160eac21-d903-41a8-a71d-78bceb9b762b" points="185.0876 196.0704 186.3604 195.3356 "  class="cls-1008689814" >  </polyline>
<polyline id="29212731-76a3-463c-b6e5-d45ce7978fb0" points="205.028 207.583 206.3008 206.8482 "  class="cls-1008689814" >  </polyline>
<polyline id="5346adf3-988b-420d-bb04-6ae20292f81b" points="205.028 216.1957 204.6037 215.9507 "  class="cls-1008689814" >  </polyline>
<polyline id="f53619ae-43c6-47e3-affc-510602d8fce3" points="204.6037 215.9507 204.6037 216.9305 "  class="cls-1008689814" >  </polyline>
<polyline id="c518031c-2dc0-42d4-899a-ca6cb9e9819e" points="204.6037 216.9305 205.8765 216.1957 "  class="cls-1008689814" >  </polyline>
<polyline id="f8ebec48-b1e4-4b31-99b2-805258fd2b96" points="204.6037 216.9305 207.9979 218.8901 "  class="cls-1008689814" >  </polyline>
<polyline id="ce64ccf7-d24e-4a8b-b03b-131797d94ec9" points="207.9979 218.8901 207.9979 217.9103 "  class="cls-1008689814" >  </polyline>
<polyline id="19df0713-465e-4ec0-ab8b-1d658b243eeb" points="207.9979 217.9103 207.5736 217.6654 "  class="cls-1008689814" >  </polyline>
<polyline id="10f15a35-cba3-4706-8d64-ceb574c9c917" points="207.5736 209.0527 208.8464 208.3179 "  class="cls-1008689814" >  </polyline>
<polyline id="4cfe11ff-eae0-4aec-803e-ea7ee91849a5" points="247.4544 232.0779 248.7272 231.3431 "  class="cls-1008689814" >  </polyline>
<polyline id="a1e3e25b-3c6c-42bb-a62d-a3ec20754ff0" points="247.4544 240.6906 247.0302 240.4456 "  class="cls-1008689814" >  </polyline>
<polyline id="9750cc3d-4736-4685-807f-6fcd0e433458" points="247.0302 240.4456 247.0302 241.4254 "  class="cls-1008689814" >  </polyline>
<polyline id="ff627286-726e-451a-850f-f1385aad5eea" points="247.0302 241.4254 248.3029 240.6906 "  class="cls-1008689814" >  </polyline>
<polyline id="3dfb7869-9f34-474b-a722-418d805ec362" points="247.0302 241.4254 250.4243 243.385 "  class="cls-1008689814" >  </polyline>
<polyline id="b10417de-7cbe-489b-a869-18d3f30a03ac" points="250.4243 243.385 250.4243 242.4052 "  class="cls-1008689814" >  </polyline>
<polyline id="6f9b80db-4008-43f4-b6a9-db44007dcae9" points="250.4243 242.4052 250 242.1603 "  class="cls-1008689814" >  </polyline>
<polyline id="cccf7afc-2123-4807-bad7-9bd9d93e2d27" points="250 233.5476 251.2728 232.8128 "  class="cls-1008689814" >  </polyline>
<polyline id="d65202c2-cc24-4f87-8fc5-0cd6db14a775" points="289.8808 256.5728 291.1536 255.838 "  class="cls-1008689814" >  </polyline>
<polyline id="365ca4a7-04da-45c2-aea0-a39ab9bbe7b7" points="289.8808 265.1855 289.4566 264.9405 "  class="cls-1008689814" >  </polyline>
<polyline id="cbb19d6e-d5de-414f-bea5-050647b92484" points="289.4566 264.9405 289.4566 265.9203 "  class="cls-1008689814" >  </polyline>
<polyline id="9c9fb90d-9b76-4630-a7fc-8bc383c71657" points="289.4566 265.9203 290.7294 265.1855 "  class="cls-1008689814" >  </polyline>
<polyline id="1d08f616-b7f7-4b54-85f2-01b6227809c1" points="289.4566 265.9203 292.8507 267.8799 "  class="cls-1008689814" >  </polyline>
<polyline id="2441886a-8046-4154-a82f-9900afdb3e33" points="292.8507 267.8799 292.8507 266.9001 "  class="cls-1008689814" >  </polyline>
<polyline id="a92ab090-c661-43fe-8374-0d1571294551" points="292.8507 266.9001 292.4264 266.6552 "  class="cls-1008689814" >  </polyline>
<polyline id="ab741d76-5dcb-4734-856d-f95398db1da5" points="292.4264 258.0425 293.6992 257.3077 "  class="cls-1008689814" >  </polyline>
<polyline id="25ec81de-5b78-4407-964f-a4350371aa4d" points="332.3072 281.0677 333.58 280.3329 "  class="cls-1008689814" >  </polyline>
<polyline id="b4bfb5c3-5d4c-40cc-a667-7f4951d273a5" points="332.3072 289.6804 331.883 289.4354 "  class="cls-1008689814" >  </polyline>
<polyline id="7d5cd879-8320-4a21-9f6e-b6117fb14fc8" points="331.883 289.4354 331.883 290.4152 "  class="cls-1008689814" >  </polyline>
<polyline id="dbfe19d4-ebec-4630-94e0-94914c4f1689" points="331.883 290.4152 333.1558 289.6804 "  class="cls-1008689814" >  </polyline>
<polyline id="c9d9b4fd-c038-49d6-b9ce-63a19cdf3434" points="331.883 290.4152 340.6511 295.4775 "  class="cls-1008689814" >  </polyline>
<polyline id="d3fbf426-47ed-468a-878c-46c0ddefb737" points="340.6511 295.4775 341.9239 294.7426 "  class="cls-1008689814" >  </polyline>
<polyline id="096cf9e9-a268-43ba-b5ea-2155efa025cc" points="340.6511 316.9119 341.9239 316.177 "  class="cls-1008689814" >  </polyline>
<polyline id="3559643d-7cb4-4634-af6b-a9a868929032" points="340.6511 316.9119 334.8528 313.5642 "  class="cls-1008689814" >  </polyline>
<polyline id="e5248eda-778e-463e-b4ce-e07d31060a24" points="334.8528 304.5406 335.2771 304.7855 "  class="cls-1008689814" >  </polyline>
<polyline id="e894fdfe-a309-46af-a69a-a36b2c96789b" points="331.883 301.8462 331.883 302.826 "  class="cls-1008689814" >  </polyline>
<polyline id="976114d8-6db4-447f-a90f-8f5db2fdb695" points="331.883 302.826 332.7315 302.336 "  class="cls-1008689814" >  </polyline>
<polyline id="460d1d84-b66a-42c0-b33c-24635b894c59" points="331.883 302.826 332.3072 303.0709 "  class="cls-1008689814" >  </polyline>
<polyline id="415a147b-ec1a-4ee9-ad6a-d06b5ba2c795" points="332.3072 303.0709 333.1559 302.5809 "  class="cls-1008689814" >  </polyline>
<polyline id="fe14c194-679a-47fb-bb62-3923fad64e44" points="332.3072 312.0946 333.58 311.3597 "  class="cls-1008689814" >  </polyline>
<polyline id="e3db48b9-7868-4e71-aca4-cd4a75676623" points="332.3072 312.0946 185.0876 227.0973 "  class="cls-1008689814" >  </polyline>
<polyline id="f00110e7-b9be-48ea-ba33-31abd897edce" points="248.3029 240.2007 248.3029 240.6906 "  class="cls-1008689814" >  </polyline>
<polyline id="d053ab4b-cdb8-468d-b3a3-d781c97fa62b" points="333.1558 289.1904 333.1558 289.6804 "  class="cls-1008689814" >  </polyline>
<polyline id="cf474ee6-4717-48e9-b564-789bebe01d8f" points="334.8528 303.5608 334.8528 304.5406 "  class="cls-1008689814" >  </polyline>
<polyline id="a6e048d7-6c76-40e3-99c9-bf3ab93bc633" points="197.7095 226.3828 197.7095 224.9131 "  class="cls-1008689814" >  </polyline>
<polyline id="85759d99-9302-4819-8e45-e2777f71a05e" points="334.8528 304.5406 335.2777 304.2953 "  class="cls-1008689814" >  </polyline>
<polyline id="b2a85bc8-1419-48dd-abc0-8c19230ae24a" points="185.0876 227.0973 165.1472 215.5846 "  class="cls-1008689814" >  </polyline>
<polyline id="a6fab74f-8b12-4121-be71-5c21d2416193" points="165.1472 206.561 165.5715 206.3161 "  class="cls-1008689814" >  </polyline>
<polyline id="c8e358d4-7893-479a-8a53-2ec894acccc4" points="165.1472 206.561 165.5715 206.806 "  class="cls-1008689814" >  </polyline>
<polyline id="357010ce-6bfc-4c2f-89af-3ebe252dc3af" points="162.1773 203.8666 162.1773 204.8464 "  class="cls-1008689814" >  </polyline>
<polyline id="ac8b2d52-9c15-4998-ac28-41c632bb84c8" points="162.1773 204.8464 163.026 204.3564 "  class="cls-1008689814" >  </polyline>
<polyline id="2af50496-f6cd-4731-b824-98dd2bb5f0f6" points="162.1773 204.8464 162.6016 205.0913 "  class="cls-1008689814" >  </polyline>
<polyline id="0c3f7f2a-0760-4d6c-970e-5f62dc2c8324" points="162.6016 205.0913 163.4503 204.6013 "  class="cls-1008689814" >  </polyline>
<polyline id="980e495d-97a8-47ea-8935-bdf6f4447cbb" points="162.6016 214.115 163.8744 213.3801 "  class="cls-1008689814" >  </polyline>
<polyline id="9ff72bd8-fee0-473c-9f63-719fb172162e" points="162.6016 214.115 156.8034 210.7673 "  class="cls-1008689814" >  </polyline>
<polyline id="e7052ea0-75fd-4b5e-8db4-4c02592a9ee6" points="156.8034 210.7673 156.8033 189.3329 "  class="cls-1008689814" >  </polyline>
<polyline id="4db62b5f-82ef-4d2a-95d2-c4016585f703" points="156.8033 189.3329 158.0761 188.5981 "  class="cls-1008689814" >  </polyline>
<polyline id="6181b8e1-ef36-476e-9585-69f5633a94be" points="165.5715 194.3952 165.5715 193.4154 "  class="cls-1008689814" >  </polyline>
<polyline id="3b1fa98b-233d-460d-ab1c-c3cd23a27bdb" points="165.5715 193.4154 165.1472 193.1705 "  class="cls-1008689814" >  </polyline>
<polyline id="6f7e0c40-a9ce-4ca0-8879-e380f3989f52" points="165.1472 184.5578 166.42 183.823 "  class="cls-1008689814" >  </polyline>
<polyline id="26b45a07-e5ce-48f3-9e69-793f28824470" points="192.4062 213.6863 192.4062 215.156 "  class="cls-1008689814" >  </polyline>
<polyline id="9ce3bff8-d82f-4cd3-ae84-ef3f34d4439c" points="192.4062 221.8513 192.4062 223.321 "  class="cls-1008689814" >  </polyline>
<polyline id="64cae8cf-a5a6-4e26-9010-1bc8bbaf43bc" points="319.6854 288.6407 319.6854 290.1104 "  class="cls-1008689814" >  </polyline>
<polyline id="3dd30820-66f6-4fa2-a80a-5a7e56d82837" points="324.9887 293.1722 319.6854 290.1104 "  class="cls-1008689814" >  </polyline>
<polyline id="ef67fd57-1f83-40b3-b288-e3168e4f86bb" points="319.6854 287.171 319.6854 288.6407 "  class="cls-1008689814" >  </polyline>
<polyline id="e1e79f10-cdf1-4571-bfcf-d2287a03dd3a" points="299.745 275.6584 299.745 277.1281 "  class="cls-1008689814" >  </polyline>
<polyline id="c30a4f88-5b7a-473e-8970-9b11608be19b" points="163.8744 213.3801 165.1472 212.6453 "  class="cls-1008689814" >  </polyline>
<polyline id="0879f698-bb79-4793-925f-3c2c55d2911f" points="158.0761 188.5981 159.3489 187.8632 "  class="cls-1008689814" >  </polyline>
<polyline id="595f6423-1662-410e-ba96-e427f1ac4e03" points="159.3489 187.8632 165.1472 191.2109 "  class="cls-1008689814" >  </polyline>
<polyline id="e895b7af-79a6-4bb9-abfa-9b573a24ee2e" points="166.42 183.823 167.6928 183.0881 "  class="cls-1008689814" >  </polyline>
<polyline id="af93c554-5a13-4470-8dba-c80cbc4419d1" points="206.3008 206.8482 207.5736 206.1133 "  class="cls-1008689814" >  </polyline>
<polyline id="15f9903c-adec-4e88-90ce-e4c6c16ffaa3" points="167.6928 183.0881 207.5736 206.1133 "  class="cls-1008689814" >  </polyline>
<polyline id="49d32839-c90d-4adc-bc73-d954d357066e" points="207.5736 206.1133 207.5736 209.0527 "  class="cls-1008689814" >  </polyline>
<polyline id="811ddd43-d935-4b62-9a82-f7271613d405" points="205.8765 216.1957 207.1493 215.4608 "  class="cls-1008689814" >  </polyline>
<polyline id="bc776d8f-0436-4633-8042-aa6eb07d8229" points="205.8765 216.1957 207.5737 217.1755 "  class="cls-1008689814" >  </polyline>
<polyline id="fd7d5989-11a3-48ba-9240-51efb495188a" points="207.1493 215.4608 207.5742 215.7061 "  class="cls-1008689814" >  </polyline>
<polyline id="d9c4b21d-b64a-499c-ac24-ae02adb919a4" points="208.8464 208.3179 210.1192 207.583 "  class="cls-1008689814" >  </polyline>
<polyline id="bbb73410-7173-49ad-b4b9-4885fcb52299" points="248.7272 231.3431 250 230.6082 "  class="cls-1008689814" >  </polyline>
<polyline id="79b52ae6-226d-4cff-b29f-182f7807115c" points="210.1192 207.583 250 230.6082 "  class="cls-1008689814" >  </polyline>
<polyline id="90381cfd-1bfa-4c8e-834c-09bff9005e1d" points="250 230.6082 250 233.5476 "  class="cls-1008689814" >  </polyline>
<polyline id="ef1062db-6dc4-4dea-8714-cce522a739ea" points="248.3029 240.6906 249.5757 239.9557 "  class="cls-1008689814" >  </polyline>
<polyline id="83d08aba-0df8-4898-b45c-f98f09905246" points="249.5757 239.9557 250 240.2007 "  class="cls-1008689814" >  </polyline>
<polyline id="e7151073-a06a-4fb1-9ef8-05d8cf5e98a7" points="251.2728 232.8128 252.5456 232.0779 "  class="cls-1008689814" >  </polyline>
<polyline id="60d711a3-31f2-4b07-b253-c6a9a8e8f461" points="291.1536 255.838 292.4264 255.1031 "  class="cls-1008689814" >  </polyline>
<polyline id="80a0af7e-6932-4d29-8a5d-efbfb26a4694" points="252.5456 232.0779 286.6281 251.7555 292.4264 255.1031 "  class="cls-1008689814" >  </polyline>
<polyline id="9628b8aa-979c-4baf-a1e6-09a3ab598fc7" points="292.4264 255.1031 292.4264 258.0425 "  class="cls-1008689814" >  </polyline>
<polyline id="db529e8d-fdec-46ef-a712-a24f667ba89a" points="290.7294 265.1855 292.0021 264.4506 "  class="cls-1008689814" >  </polyline>
<polyline id="a0008b93-6e05-4280-9fd0-42fe6cffedf7" points="290.7294 265.1855 292.4264 266.1653 "  class="cls-1008689814" >  </polyline>
<polyline id="a0a63442-b07f-4d0a-85e1-49936dce150d" points="292.0021 264.4506 292.4264 264.6956 "  class="cls-1008689814" >  </polyline>
<polyline id="9ea5d295-8710-486b-8a99-50e8350ffa3a" points="293.6992 257.3077 294.972 256.5728 "  class="cls-1008689814" >  </polyline>
<polyline id="edfeebfd-3aad-4556-b37b-c6fd56fbb445" points="294.972 256.5728 314.9124 268.0854 "  class="cls-1008689814" >  </polyline>
<polyline id="c2f5ee78-a572-4d46-807d-3a640a82e882" points="207.1493 214.9709 207.1493 215.4608 "  class="cls-1008689814" >  </polyline>
<polyline id="ede331aa-e48a-4821-98fe-5fc031c03453" points="249.5757 239.4658 249.5757 239.9557 "  class="cls-1008689814" >  </polyline>
<polyline id="a9544b76-9ff3-4ccc-810b-c321872f2fca" points="292.0021 263.9599 292.0021 264.4506 "  class="cls-1008689814" >  </polyline>
<polyline id="e3bfdb48-eb67-4124-bead-fba903d31d67" points="165.1472 205.5812 165.1472 206.561 "  class="cls-1008689814" >  </polyline>
<polyline id="feadf639-acf9-4857-824c-fed27322484d" points="186.3604 195.3356 206.3008 206.8482 "  class="cls-1008689814" >  </polyline>
<polyline id="7f40a5b4-fec1-4d03-8850-2402e3238f64" points="177.769 216.3399 177.769 214.8702 "  class="cls-1008689814" >  </polyline>
<polyline id="5ee900f9-4411-4ec9-a9f5-735f77dc148e" points="205.8765 215.7056 205.8765 216.1957 "  class="cls-1008689814" >  </polyline>
<polyline id="2fa109ce-357f-409f-959f-0512b833df12" points="290.7294 264.6956 290.7294 265.1855 "  class="cls-1008689814" >  </polyline>
<polyline id="d0ed8a9c-f0e7-4c82-9078-8ed5a0ccb8be" points="333.58 280.3329 333.58 288.9455 "  class="cls-1008689814" >  </polyline>
<polyline id="13121d54-4f3e-4071-b4cd-e78d6bf64767" points="333.58 288.9455 334.8528 288.2107 "  class="cls-1008689814" >  </polyline>
<polyline id="37601eed-82bd-4f6e-8073-482010673cef" points="333.58 302.826 333.58 311.3597 "  class="cls-1008689814" >  </polyline>
<polyline id="f00ef69c-bd97-4790-a4b0-ff6be09e4357" points="305.0483 286.8852 299.745 283.8234 "  class="cls-1008689814" >  </polyline>
<polyline id="44a65d2e-ad66-4f06-be5c-b1948af7e622" points="177.769 213.4005 172.4657 210.3387 "  class="cls-1008689814" >  </polyline>
<polyline id="cddd7ef3-7781-44b4-89e2-077e78039979" points="177.769 214.8702 172.4657 211.8084 "  class="cls-1008689814" >  </polyline>
<polyline id="9cee0fac-690d-4210-998b-a5cde7c830c5" points="324.9887 298.3978 319.6854 295.336 "  class="cls-1008689814" >  </polyline>
<polyline id="7ddd14ef-51ac-4197-991b-8b9604f8e978" points="324.9887 299.8675 319.6854 296.8056 "  class="cls-1008689814" >  </polyline>
<polyline id="34d4c197-a51c-401c-975c-e16ff27c2fa9" points="177.769 206.7052 172.4657 203.6434 "  class="cls-1008689814" >  </polyline>
<polyline id="3475df16-3347-4171-8e36-1a6cfb45ef57" points="197.7095 226.3828 192.4062 223.321 "  class="cls-1008689814" >  </polyline>
<polyline id="07027785-c188-41ac-af77-bbdfdfe68df2" points="305.0483 288.3549 299.745 285.293 "  class="cls-1008689814" >  </polyline>
<polyline id="4255cb1d-6cf2-4fa0-a35d-029031df123f" points="185.0876 227.0973 185.0876 196.0704 "  class="cls-1008689814" >  </polyline>
<polyline id="b9d062ca-9139-4e4f-8eb4-ccd78aec015a" points="185.0876 196.0704 205.028 207.583 "  class="cls-1008689814" >  </polyline>
<polyline id="d8638819-df63-4acc-8783-b70941475b9b" points="205.028 207.583 205.028 216.1957 "  class="cls-1008689814" >  </polyline>
<polyline id="aae320e8-decf-46bd-bb34-1e7fdbcd8d05" points="205.028 216.1957 206.3008 215.4608 "  class="cls-1008689814" >  </polyline>
<polyline id="192f1391-39d3-47b4-89d4-8922e8a142ff" points="207.5736 217.6654 207.5736 209.0527 "  class="cls-1008689814" >  </polyline>
<polyline id="d1db67ba-edf6-4dfe-982c-eeffd1bf9943" points="207.5736 209.0527 213.3719 212.4003 247.4544 232.0779 "  class="cls-1008689814" >  </polyline>
<polyline id="54214520-e2a3-4827-ae96-30df60a47ec4" points="208.8464 208.3179 214.6447 211.6655 248.7272 231.3431 "  class="cls-1008689814" >  </polyline>
<polyline id="468911fa-458a-49d7-a047-08f605e857bb" points="247.4544 232.0779 247.4544 240.6906 "  class="cls-1008689814" >  </polyline>
<polyline id="10311156-65e8-44a2-acd6-3e5866de72d4" points="247.4544 240.6906 248.7272 239.9557 "  class="cls-1008689814" >  </polyline>
<polyline id="885e0027-b3c0-4036-9b91-9417904fa1fd" points="248.7272 231.3431 248.7272 239.9557 "  class="cls-1008689814" >  </polyline>
<polyline id="cf2caddc-6693-4af5-8b08-8ac4b97d6fcc" points="250 242.1603 250 233.5476 "  class="cls-1008689814" >  </polyline>
<polyline id="1ec0aa73-d5a9-495b-ae38-e25ee8d2a3df" points="250 233.5476 289.8808 256.5728 "  class="cls-1008689814" >  </polyline>
<polyline id="971eeba5-cbd7-41fb-bea3-d7f5b2116c2d" points="251.2728 232.8128 291.1536 255.838 "  class="cls-1008689814" >  </polyline>
<polyline id="42572471-6a4d-420d-a05e-6682f9f90620" points="289.8808 256.5728 289.8808 265.1855 "  class="cls-1008689814" >  </polyline>
<polyline id="13aa617b-a286-47e6-b688-cc7011785c9a" points="289.8808 265.1855 291.1536 264.4506 "  class="cls-1008689814" >  </polyline>
<polyline id="5e6a5716-240a-4beb-bf11-ca0aaf7efa33" points="292.4264 266.6552 292.4264 258.0425 "  class="cls-1008689814" >  </polyline>
<polyline id="36d099d5-eea4-4899-841f-79f28c94560f" points="292.4264 258.0425 332.3072 281.0677 "  class="cls-1008689814" >  </polyline>
<polyline id="e869e88e-8be3-4dc1-9645-a2a51aa68f76" points="293.6992 257.3077 333.58 280.3329 "  class="cls-1008689814" >  </polyline>
<polyline id="67028db6-e9fe-483b-b923-cf21e51e8951" points="332.3072 281.0677 332.3072 289.6804 "  class="cls-1008689814" >  </polyline>
<polyline id="173b7d3c-2a18-4365-92d1-c6103a5462bd" points="332.3072 289.6804 333.58 288.9455 "  class="cls-1008689814" >  </polyline>
<polyline id="24b4bdf7-4ee8-4ef0-a5dc-6f4c53a78bec" points="340.6511 295.4775 340.6511 316.9119 "  class="cls-1008689814" >  </polyline>
<polyline id="c681b36c-0f50-42d3-9176-68c2c3455942" points="341.9239 294.7426 341.9239 316.177 "  class="cls-1008689814" >  </polyline>
<polyline id="4f23acf7-a393-4b76-8f65-5ac6b8a35d1a" points="334.8528 313.5642 334.8528 304.5406 "  class="cls-1008689814" >  </polyline>
<polyline id="8e398974-22a2-4d34-8589-0dcfbef2d121" points="335.2771 304.7855 335.2771 303.8058 "  class="cls-1008689814" >  </polyline>
<polyline id="67bdbed9-761b-4264-bd12-03d1846e7938" points="335.2771 303.8058 331.883 301.8462 "  class="cls-1008689814" >  </polyline>
<polyline id="07004d5c-6c3a-4066-8f86-d67109253c02" points="332.3072 303.0709 332.3072 312.0946 "  class="cls-1008689814" >  </polyline>
<polyline id="4caadab1-f08a-49e2-8476-7bb2d70524e6" points="324.9887 293.1722 324.9887 290.2328 "  class="cls-1008689814" >  </polyline>
<polyline id="aa03eac2-a222-410f-aef0-4059792e15ed" points="324.9887 301.3372 324.9887 298.3978 "  class="cls-1008689814" >  </polyline>
<polyline id="3ffa26d7-6c81-40a1-b34a-179d4cded825" points="305.0483 281.6596 305.0483 278.7202 "  class="cls-1008689814" >  </polyline>
<polyline id="ee2d6004-7c14-40cf-87e4-fcad0a8b7bed" points="305.0483 289.8246 305.0483 286.8852 "  class="cls-1008689814" >  </polyline>
<polyline id="794c8a11-cfd2-4eda-89ff-554307b41849" points="197.7095 219.6875 197.7095 216.7482 "  class="cls-1008689814" >  </polyline>
<polyline id="cb0a8bfe-dfb1-46b5-978c-767896aa656d" points="197.7095 224.9131 192.4062 221.8513 "  class="cls-1008689814" >  </polyline>
<polyline id="0d5c1a31-bbfc-4596-86cc-1d364312ffea" points="165.1472 215.5846 165.1472 206.561 "  class="cls-1008689814" >  </polyline>
<polyline id="85fa2ff5-8afc-44d0-9474-e34cb830a8ab" points="165.5715 206.806 165.5715 205.8262 "  class="cls-1008689814" >  </polyline>
<polyline id="a49b4729-0b0c-4f64-910c-ddac1e442c16" points="165.5715 205.8262 162.1773 203.8666 "  class="cls-1008689814" >  </polyline>
<polyline id="a4556527-7aaa-4e20-b093-2f4a3094d2fe" points="162.6016 205.0913 162.6016 214.115 "  class="cls-1008689814" >  </polyline>
<polyline id="3f437848-a52d-45df-adc0-747a9cbc27ee" points="156.8033 189.3329 165.5715 194.3952 "  class="cls-1008689814" >  </polyline>
<polyline id="3880e54b-d756-4389-9891-2f1f3772e387" points="165.1472 193.1705 165.1472 184.5578 "  class="cls-1008689814" >  </polyline>
<polyline id="7442a064-4d93-47bb-92fc-15e0f818bf06" points="165.1472 184.5578 185.0876 196.0704 "  class="cls-1008689814" >  </polyline>
<polyline id="31fe6e7c-9818-4eb7-88f8-7b10fdd93803" points="166.42 183.823 186.3604 195.3356 "  class="cls-1008689814" >  </polyline>
<polyline id="c9d7e6e2-65fd-41b4-9239-c130b30a29a0" points="177.769 208.1749 177.769 205.2356 "  class="cls-1008689814" >  </polyline>
<polyline id="1f9ef3b7-7ef3-4c12-8951-dcf7f4ce0567" points="177.769 205.2356 172.4657 202.1737 "  class="cls-1008689814" >  </polyline>
<polyline id="e7983683-ef98-47be-af39-71d2082041cb" points="197.7095 216.7482 192.4062 213.6863 "  class="cls-1008689814" >  </polyline>
<polyline id="c23c8ef9-9384-4780-8a1c-bf8716d27eb6" points="197.7095 218.2179 192.4062 215.156 "  class="cls-1008689814" >  </polyline>
<polyline id="bda124e6-9610-4e21-9e0c-f426d41340c2" points="324.9887 290.2328 319.6854 287.171 "  class="cls-1008689814" >  </polyline>
<polyline id="ad4ee810-792d-4871-a7d8-63c29ad08d07" points="324.9887 291.7025 319.6854 288.6407 "  class="cls-1008689814" >  </polyline>
<polyline id="d1102cf0-64bb-4642-94c6-7263f93fc8ea" points="305.0483 278.7202 299.745 275.6584 "  class="cls-1008689814" >  </polyline>
<polyline id="90cfbe00-6a4d-49f3-ac14-bc5de8e529b9" points="305.0483 280.1899 299.745 277.1281 "  class="cls-1008689814" >  </polyline>
<polyline id="04815aa4-c7a1-4b5c-81c5-e96ce374607b" points="163.8744 204.8464 163.8744 213.3801 "  class="cls-1008689814" >  </polyline>
<polyline id="6c52d080-0eb7-4676-80b8-6f295963ea96" points="158.0761 188.5981 165.1473 192.6806 "  class="cls-1008689814" >  </polyline>
<polyline id="53894695-9eea-422e-bb7a-8910015fe289" points="206.3008 206.8482 206.3008 215.4608 "  class="cls-1008689814" >  </polyline>
<polyline id="72e56e28-f051-4818-8010-13a9251f5cab" points="206.3008 215.4608 207.5736 214.726 "  class="cls-1008689814" >  </polyline>
<polyline id="76e5bca4-0d92-4676-b21d-fab289ac3eb0" points="248.7272 239.9557 250 239.2209 "  class="cls-1008689814" >  </polyline>
<polyline id="9058a75e-69d1-438e-92cc-54c9395ba737" points="248.3029 240.6906 250.0008 241.6708 "  class="cls-1008689814" >  </polyline>
<polyline id="1c144520-544d-4d44-b346-73af09470d2e" points="291.1536 255.838 291.1536 264.4506 "  class="cls-1008689814" >  </polyline>
<polyline id="31d730f1-f9bb-439c-add0-8cc96dda10b2" points="291.1536 264.4506 292.4264 263.7158 "  class="cls-1008689814" >  </polyline>
<defs>
<style> .cls-30449002{stroke:#000000 ; stroke-opacity:1; stroke-width:1; stroke-linecap:round; stroke-linejoin:round; fill:none; } </style>
<style> .cls-1008689814{stroke:#000000 ; stroke-opacity:1; stroke-width:0.3; stroke-linecap:round; stroke-linejoin:round; fill:none; } </style>
</defs>
</svg>