<svg xmlns="http://www.w3.org/2000/svg" xmlns:xlink="http://www.w3.org/1999/xlink" width="203.3333" height="406.6667" viewBox = " 0 0 203.3333 406.6667" preserveAspectRatio="xMinYMin meet">
<rect id="background" x="0" y="0" width="203.3333" height="406.6667" style="fill:none; stroke:none;" />
<polyline id="62f2df77-e168-4c3e-8c33-537e151f17ad" points="68.163 235.3537 62.2451 235.3537 62.2451 222.9345 68.163 222.9345 68.163 235.3537 "  class="cls-1059021462" >  </polyline>
<polyline id="3c604983-05fa-4377-8246-24257c2cc162" points="68.163 251.3569 62.2451 251.3569 62.2451 238.9377 68.163 238.9377 68.163 251.3569 "  class="cls-1059021462" >  </polyline>
<polyline id="56ade710-b174-40ed-a03e-a8f790a05896" points="59.828 251.3569 53.9101 251.3569 53.9101 238.9377 59.828 238.9377 59.828 251.3569 "  class="cls-1059021462" >  </polyline>
<polyline id="b2edd0a9-61d0-4c93-bfb5-bdac69691318" points="59.828 235.3537 53.9101 235.3537 53.9101 222.9345 59.828 222.9345 59.828 235.3537 "  class="cls-1059021462" >  </polyline>
<polyline id="7f20e50e-7cc0-42f3-be1b-c2cdab7c1368" points="51.493 235.3537 45.5751 235.3537 45.5751 222.9345 51.493 222.9345 51.493 235.3537 "  class="cls-1059021462" >  </polyline>
<polyline id="9f4f53b3-4806-4af1-b43b-58d8c2cd8a2b" points="51.493 251.3569 45.5751 251.3569 45.5751 238.9377 51.493 238.9377 51.493 251.3569 "  class="cls-1059021462" >  </polyline>
<polyline id="f5daf8cb-7665-46e3-8ec6-099b35980bc3" points="43.158 235.3537 37.2401 235.3537 37.2401 222.9345 43.158 222.9345 43.158 235.3537 "  class="cls-1059021462" >  </polyline>
<polyline id="56a108fe-975a-4e5c-8b68-c4c2009e5fbf" points="43.158 251.3569 37.2401 251.3569 37.2401 238.9377 43.158 238.9377 43.158 251.3569 "  class="cls-1059021462" >  </polyline>
<polyline id="d35947a3-0fb3-40c5-bd3d-689492d42558" points="34.823 251.3569 28.9051 251.3569 28.9051 238.9377 34.823 238.9377 34.823 251.3569 "  class="cls-1059021462" >  </polyline>
<polyline id="a8842a31-8d69-4aa9-9eec-e580d76274ab" points="34.823 235.3537 28.9051 235.3537 28.9051 222.9345 34.823 222.9345 34.823 235.3537 "  class="cls-1059021462" >  </polyline>
<polyline id="62e1dfd7-0c4a-4419-81b8-d2aa0a52cb76" points="26.488 235.3537 20.5701 235.3537 20.5701 222.9345 26.488 222.9345 26.488 235.3537 "  class="cls-1059021462" >  </polyline>
<polyline id="15c75803-cafd-48e6-a47e-3aa659f63d9a" points="26.488 251.3569 20.5701 251.3569 20.5701 238.9377 26.488 238.9377 26.488 251.3569 "  class="cls-1059021462" >  </polyline>
<polyline id="9b3f905f-a543-4838-ae6d-35233c4454ce" points="18.153 251.3569 12.2351 251.3569 12.2351 238.9377 18.153 238.9377 18.153 251.3569 "  class="cls-1059021462" >  </polyline>
<polyline id="dded6718-71f9-45c4-8a43-ec4520e388f0" points="18.153 235.3537 12.2351 235.3537 12.2351 222.9345 18.153 222.9345 18.153 235.3537 "  class="cls-1059021462" >  </polyline>
<polyline id="cf9ae01a-72f1-4e24-8360-ef79ddb8b645" points="9.818 235.3537 3.9001 235.3537 3.9001 222.9345 9.818 222.9345 9.818 235.3537 "  class="cls-1059021462" >  </polyline>
<polyline id="5f4112e3-4082-412d-8438-b51f393aab68" points="9.818 251.3569 3.9001 251.3569 3.9001 238.9377 9.818 238.9377 9.818 251.3569 "  class="cls-1059021462" >  </polyline>
<polyline id="ec0a8265-92a6-4ecc-887a-b62e5c930969" points="3.9001 259.1352 67.1627 259.1352 67.1627 306.0612 48.823 306.0612 48.823 305.061 46.7392 305.061 46.7392 313.146 48.823 313.146 48.823 312.1458 67.1627 312.1457 67.1627 325.7317 23.4846 325.7318 23.4846 305.061 21.4008 305.061 21.4008 306.0612 3.9001 306.0612 3.9001 259.1352 "  class="cls-1059021462" >  </polyline>
<polyline id="38275b42-68a3-4a69-835f-353f395bda26" points="200.8561 51.0935 200.8561 398.0795 137.5935 398.0795 137.5935 351.1535 155.0941 351.1535 155.0941 352.1537 157.1779 352.1537 157.1779 344.0687 155.0941 344.0687 155.0941 345.0689 137.5935 345.0689 137.5935 251.1335 155.0941 251.1335 155.0941 252.1337 157.1779 252.1337 157.1779 244.0487 155.0941 244.0487 155.0941 245.0489 137.5935 245.0489 137.5935 151.1135 155.0941 151.1135 155.0941 152.1137 157.1779 152.1137 157.1779 144.0287 155.0941 144.0287 155.0941 145.0289 137.5935 145.0289 137.5935 51.0935 155.0941 51.0935 155.0941 52.0937 157.1779 52.0937 157.1779 31.4229 200.8561 31.4229 200.8561 45.0089 182.5163 45.0089 182.5163 44.0087 180.4325 44.0087 180.4325 52.0937 182.5163 52.0937 182.5163 51.0935 200.8561 51.0935 "  class="cls-1059021462" >  </polyline>
<polyline id="2d5c5d65-ea3d-4c67-b7e2-fbf4ac70aca9" points="134.6762 51.0935 134.6762 398.0795 71.4136 398.0795 71.4136 351.1535 88.9142 351.1535 88.9142 352.1537 90.998 352.1537 90.998 344.0687 88.9142 344.0687 88.9142 345.0689 71.4136 345.0689 71.4136 251.1335 88.9142 251.1335 88.9142 252.1337 90.998 252.1337 90.998 244.0487 88.9142 244.0487 88.9142 245.0489 71.4136 245.0489 71.4136 151.1135 88.9142 151.1135 88.9142 152.1137 90.998 152.1137 90.998 144.0287 88.9142 144.0287 88.9142 145.0289 71.4136 145.0289 71.4136 51.0935 88.9142 51.0935 88.9142 52.0937 90.998 52.0937 90.998 31.4229 134.6762 31.4229 134.6762 45.0089 116.3364 45.0089 116.3364 44.0087 114.2526 44.0087 114.2526 52.0937 116.3364 52.0937 116.3364 51.0935 134.6762 51.0935 "  class="cls-1059021462" >  </polyline>
<polyline id="b17f950b-396e-4bcb-85cc-754c3d3d9a7a" points="3.9001 331.483 67.1627 331.483 67.1627 378.409 48.823 378.409 48.823 377.4088 46.7392 377.4088 46.7392 385.4938 48.823 385.4938 48.823 384.4936 67.1627 384.4935 67.1627 398.0795 23.4846 398.0796 23.4846 377.4088 21.4008 377.4088 21.4008 378.409 3.9001 378.409 3.9001 331.483 "  class="cls-1059021462" >  </polyline>
<polyline id="2c2fe420-fe3b-4c63-8743-7647c86c7ce6" points="47.8255 276.3053 47.8255 288.8911 53.9101 288.8911 53.9101 276.3053 47.8255 276.3053 "  class="cls-1059021462" >  </polyline>
<polyline id="10688b0f-35cc-4970-b203-dfb5683073ab" points="31.1555 276.3053 31.1555 288.8911 37.2401 288.8911 37.2401 276.3053 31.1555 276.3053 "  class="cls-1059021462" >  </polyline>
<polyline id="cc512ea4-8cf5-4d0c-95b7-bc5e9fb9f23a" points="187.6034 368.3236 181.5189 368.3236 181.5189 380.9094 187.6034 380.9094 187.6034 368.3236 "  class="cls-1059021462" >  </polyline>
<polyline id="1f589664-1038-4bcf-8b4f-22dd4d4b0076" points="170.9334 368.3236 164.8489 368.3236 164.8489 380.9094 170.9334 380.9094 170.9334 368.3236 "  class="cls-1059021462" >  </polyline>
<polyline id="52095428-c2d5-4a2e-b5a2-0a11f207a62a" points="181.5189 115.273 181.5189 127.8588 187.6034 127.8588 187.6034 115.273 181.5189 115.273 "  class="cls-1059021462" >  </polyline>
<polyline id="68d3712a-f563-40a1-abb8-864c4b4b24f6" points="164.8489 115.273 164.8489 127.8588 170.9334 127.8588 170.9334 115.273 164.8489 115.273 "  class="cls-1059021462" >  </polyline>
<polyline id="4047438c-ede2-46a1-87a7-225a1b36b61b" points="187.6034 68.2636 181.5189 68.2636 181.5189 80.8494 187.6034 80.8494 187.6034 68.2636 "  class="cls-1059021462" >  </polyline>
<polyline id="3f02ef50-aa8a-434c-aeb8-927dee71a79a" points="170.9334 68.2636 164.8489 68.2636 164.8489 80.8494 170.9334 80.8494 170.9334 68.2636 "  class="cls-1059021462" >  </polyline>
<polyline id="49dff908-30f2-4c23-882d-339e87c0914e" points="121.4235 368.3236 115.339 368.3236 115.339 380.9094 121.4235 380.9094 121.4235 368.3236 "  class="cls-1059021462" >  </polyline>
<polyline id="2173dc36-6a43-459c-b372-a44984410510" points="104.7535 368.3236 98.669 368.3236 98.669 380.9094 104.7535 380.9094 104.7535 368.3236 "  class="cls-1059021462" >  </polyline>
<polyline id="2acfe0fc-a0e4-4064-bcea-60991fdcca77" points="115.339 115.273 115.339 127.8588 121.4235 127.8588 121.4235 115.273 115.339 115.273 "  class="cls-1059021462" >  </polyline>
<polyline id="43ed263d-d4dc-422c-adef-dc0931e56fba" points="98.669 115.273 98.669 127.8588 104.7535 127.8588 104.7535 115.273 98.669 115.273 "  class="cls-1059021462" >  </polyline>
<polyline id="1bb2d208-64bf-436f-a60f-9073aab61b49" points="121.4235 68.2636 115.339 68.2636 115.339 80.8494 121.4235 80.8494 121.4235 68.2636 "  class="cls-1059021462" >  </polyline>
<polyline id="4e424b27-f129-4767-965e-62e84d33d448" points="104.7535 68.2636 98.669 68.2636 98.669 80.8494 104.7535 80.8494 104.7535 68.2636 "  class="cls-1059021462" >  </polyline>
<polyline id="521d6946-fee7-4770-a6df-181039d51a88" points="47.8255 348.6531 47.8255 361.2389 53.9101 361.2389 53.9101 348.6531 47.8255 348.6531 "  class="cls-1059021462" >  </polyline>
<polyline id="f3e74836-beb5-4f7a-942b-07f2fdf5e381" points="31.1555 348.6531 31.1555 361.2389 37.2401 361.2389 37.2401 348.6531 31.1555 348.6531 "  class="cls-1059021462" >  </polyline>
<polyline id="2ae2b9b4-c90f-49f8-8ba9-b98980465087" points="0 406.748 203.374 406.748 203.374 0 0 0 0 406.748 "  class="cls-1008689814" >  </polyline>
<defs>
<style> .cls-1059021462{stroke:#000000 ; stroke-opacity:1; stroke-width:0.5; stroke-linecap:round; stroke-linejoin:round; fill:none; } </style>
<style> .cls-1008689814{stroke:#000000 ; stroke-opacity:1; stroke-width:0.3; stroke-linecap:round; stroke-linejoin:round; fill:none; } </style>
</defs>
</svg>