  0
SECTION
  2
HEADER
  9
$ACADVER
  1
AC1009
  9
$INSBASE
 10
0.000000
 20
0.000000
 30
0.000000
  9
$EXTMIN
 10
0.000000
 20
0.000000
 30
0.000000
  9
$EXTMAX
 10
1199.500000
 20
271.499983
 30
0.000000
  0
ENDSEC
  0
SECTION
  2
TABLES
  0
TABLE
  2
LTYPE
 70
1
  0
LTYPE
  2
CONTINUOUS
 70
0
  3
Solid line
 72
65
 73
0
 40
0.000000
  0
ENDTAB
  0
TABLE
  2
LAYER
 70
3
  0
LAYER
  2
0
 70
0
 62
7
  6
CONTINUOUS
  0
LAYER
  2
1_ANYTOOL_1MMDEEP_LABELS_S
 70
0
 62
2
  6
CONTINUOUS
  0
LAYER
  2
4_ANYTOOL_CUTTHROUGH_OUTSI
 70
0
 62
5
  6
CONTINUOUS
  0
ENDTAB
  0
ENDSEC
  0
SECTION
  2
ENTITIES
  0
LINE
  8
1_ANYTOOL_1MMDEEP_LABELS_S
 10
683.128571
 20
151.635014
 30
0.000000
 11
683.128571
 21
121.635014
 31
0.000000
  0
LINE
  8
1_ANYTOOL_1MMDEEP_LABELS_S
 10
679.614286
 20
151.163585
 30
0.000000
 11
662.428571
 21
120.392156
 31
0.000000
  0
POLYLINE
  8
1_ANYTOOL_1MMDEEP_LABELS_S
 66
1
 10
0.000000
 20
0.000000
 30
0.000000
 70
0
  0
VERTEX
  8
1_ANYTOOL_1MMDEEP_LABELS_S
 10
658.400000
 20
121.677871
 30
0.000000
  0
VERTEX
  8
1_ANYTOOL_1MMDEEP_LABELS_S
 10
640.100000
 20
121.720728
 30
0.000000
 42
-0.034491
  0
VERTEX
  8
1_ANYTOOL_1MMDEEP_LABELS_S
 10
640.762778
 20
123.468060
 30
0.000000
 42
-0.037732
  0
VERTEX
  8
1_ANYTOOL_1MMDEEP_LABELS_S
 10
641.669643
 20
125.101085
 30
0.000000
 42
-0.037744
  0
VERTEX
  8
1_ANYTOOL_1MMDEEP_LABELS_S
 10
642.808937
 20
126.575721
 30
0.000000
 42
-0.034820
  0
VERTEX
  8
1_ANYTOOL_1MMDEEP_LABELS_S
 10
644.150000
 20
127.870728
 30
0.000000
 42
-0.008590
  0
VERTEX
  8
1_ANYTOOL_1MMDEEP_LABELS_S
 10
647.109225
 20
130.269311
 30
0.000000
 42
-0.008791
  0
VERTEX
  8
1_ANYTOOL_1MMDEEP_LABELS_S
 10
650.150000
 20
132.563585
 30
0.000000
 42
0.020588
  0
VERTEX
  8
1_ANYTOOL_1MMDEEP_LABELS_S
 10
652.969289
 20
134.797028
 30
0.000000
 42
0.025206
  0
VERTEX
  8
1_ANYTOOL_1MMDEEP_LABELS_S
 10
655.571429
 20
137.277871
 30
0.000000
 42
0.046908
  0
VERTEX
  8
1_ANYTOOL_1MMDEEP_LABELS_S
 10
656.592024
 20
138.579113
 30
0.000000
 42
0.051091
  0
VERTEX
  8
1_ANYTOOL_1MMDEEP_LABELS_S
 10
657.339286
 20
140.052871
 30
0.000000
 42
0.050722
  0
VERTEX
  8
1_ANYTOOL_1MMDEEP_LABELS_S
 10
657.788019
 20
141.701045
 30
0.000000
 42
0.041139
  0
VERTEX
  8
1_ANYTOOL_1MMDEEP_LABELS_S
 10
657.928571
 20
143.406442
 30
0.000000
 42
0.039396
  0
VERTEX
  8
1_ANYTOOL_1MMDEEP_LABELS_S
 10
657.785927
 20
145.214028
 30
0.000000
 42
0.058519
  0
VERTEX
  8
1_ANYTOOL_1MMDEEP_LABELS_S
 10
657.296429
 20
146.952871
 30
0.000000
 42
0.060358
  0
VERTEX
  8
1_ANYTOOL_1MMDEEP_LABELS_S
 10
656.505871
 20
148.359987
 30
0.000000
 42
0.061397
  0
VERTEX
  8
1_ANYTOOL_1MMDEEP_LABELS_S
 10
655.400000
 20
149.535014
 30
0.000000
 42
0.048006
  0
VERTEX
  8
1_ANYTOOL_1MMDEEP_LABELS_S
 10
654.044043
 20
150.456973
 30
0.000000
 42
0.045901
  0
VERTEX
  8
1_ANYTOOL_1MMDEEP_LABELS_S
 10
652.539286
 20
151.110014
 30
0.000000
 42
0.045216
  0
VERTEX
  8
1_ANYTOOL_1MMDEEP_LABELS_S
 10
650.799225
 20
151.512573
 30
0.000000
 42
0.034258
  0
VERTEX
  8
1_ANYTOOL_1MMDEEP_LABELS_S
 10
649.014286
 20
151.635014
 30
0.000000
 42
0.055622
  0
VERTEX
  8
1_ANYTOOL_1MMDEEP_LABELS_S
 10
646.379715
 20
151.341026
 30
0.000000
 42
0.079896
  0
VERTEX
  8
1_ANYTOOL_1MMDEEP_LABELS_S
 10
643.935714
 20
150.360014
 30
0.000000
 42
0.080617
  0
VERTEX
  8
1_ANYTOOL_1MMDEEP_LABELS_S
 10
641.966327
 20
148.694313
 30
0.000000
 42
0.060287
  0
VERTEX
  8
1_ANYTOOL_1MMDEEP_LABELS_S
 10
640.528571
 20
146.535014
 30
0.000000
  0
SEQEND
  8
1_ANYTOOL_1MMDEEP_LABELS_S
  0
LINE
  8
1_ANYTOOL_1MMDEEP_LABELS_S
 10
635.814286
 20
135.520728
 30
0.000000
 11
627.028571
 21
135.435014
 31
0.000000
  0
POLYLINE
  8
1_ANYTOOL_1MMDEEP_LABELS_S
 66
1
 10
0.000000
 20
0.000000
 30
0.000000
 70
0
  0
VERTEX
  8
1_ANYTOOL_1MMDEEP_LABELS_S
 10
623.000000
 20
147.049299
 30
0.000000
 42
0.071867
  0
VERTEX
  8
1_ANYTOOL_1MMDEEP_LABELS_S
 10
622.806886
 20
148.385906
 30
0.000000
 42
0.100684
  0
VERTEX
  8
1_ANYTOOL_1MMDEEP_LABELS_S
 10
622.180357
 20
149.567156
 30
0.000000
 42
0.047558
  0
VERTEX
  8
1_ANYTOOL_1MMDEEP_LABELS_S
 10
621.705804
 20
150.043607
 30
0.000000
 42
0.038563
  0
VERTEX
  8
1_ANYTOOL_1MMDEEP_LABELS_S
 10
621.155804
 20
150.432335
 30
0.000000
 42
0.037928
  0
VERTEX
  8
1_ANYTOOL_1MMDEEP_LABELS_S
 10
620.458616
 20
150.779803
 30
0.000000
 42
0.026634
  0
VERTEX
  8
1_ANYTOOL_1MMDEEP_LABELS_S
 10
619.721429
 20
151.035014
 30
0.000000
 42
0.028461
  0
VERTEX
  8
1_ANYTOOL_1MMDEEP_LABELS_S
 10
616.698095
 20
151.720996
 30
0.000000
 42
0.041577
  0
VERTEX
  8
1_ANYTOOL_1MMDEEP_LABELS_S
 10
613.614286
 20
151.977871
 30
0.000000
 42
0.036938
  0
VERTEX
  8
1_ANYTOOL_1MMDEEP_LABELS_S
 10
612.111926
 20
151.866731
 30
0.000000
 42
0.041531
  0
VERTEX
  8
1_ANYTOOL_1MMDEEP_LABELS_S
 10
610.646429
 20
151.522514
 30
0.000000
 42
0.041583
  0
VERTEX
  8
1_ANYTOOL_1MMDEEP_LABELS_S
 10
609.269052
 20
150.945305
 30
0.000000
 42
0.038125
  0
VERTEX
  8
1_ANYTOOL_1MMDEEP_LABELS_S
 10
608.000000
 20
150.156442
 30
0.000000
 42
0.057611
  0
VERTEX
  8
1_ANYTOOL_1MMDEEP_LABELS_S
 10
606.929847
 20
149.164538
 30
0.000000
 42
0.065808
  0
VERTEX
  8
1_ANYTOOL_1MMDEEP_LABELS_S
 10
606.135714
 20
147.943942
 30
0.000000
 42
0.064690
  0
VERTEX
  8
1_ANYTOOL_1MMDEEP_LABELS_S
 10
605.658218
 20
146.484387
 30
0.000000
 42
0.046778
  0
VERTEX
  8
1_ANYTOOL_1MMDEEP_LABELS_S
 10
605.514286
 20
144.949299
 30
0.000000
 42
0.052235
  0
VERTEX
  8
1_ANYTOOL_1MMDEEP_LABELS_S
 10
605.676642
 20
143.399457
 30
0.000000
 42
0.075448
  0
VERTEX
  8
1_ANYTOOL_1MMDEEP_LABELS_S
 10
606.221429
 20
141.949299
 30
0.000000
 42
0.076671
  0
VERTEX
  8
1_ANYTOOL_1MMDEEP_LABELS_S
 10
607.137520
 20
140.776247
 30
0.000000
 42
0.061023
  0
VERTEX
  8
1_ANYTOOL_1MMDEEP_LABELS_S
 10
608.342857
 20
139.892156
 30
0.000000
 42
0.021951
  0
VERTEX
  8
1_ANYTOOL_1MMDEEP_LABELS_S
 10
611.371711
 20
138.364811
 30
0.000000
 42
0.018213
  0
VERTEX
  8
1_ANYTOOL_1MMDEEP_LABELS_S
 10
614.514286
 20
137.085014
 30
0.000000
 42
-0.024050
  0
VERTEX
  8
1_ANYTOOL_1MMDEEP_LABELS_S
 10
617.615770
 20
135.779551
 30
0.000000
 42
-0.029810
  0
VERTEX
  8
1_ANYTOOL_1MMDEEP_LABELS_S
 10
620.557143
 20
134.149299
 30
0.000000
 42
-0.068439
  0
VERTEX
  8
1_ANYTOOL_1MMDEEP_LABELS_S
 10
621.698445
 20
133.183369
 30
0.000000
 42
-0.079282
  0
VERTEX
  8
1_ANYTOOL_1MMDEEP_LABELS_S
 10
622.507143
 20
131.931442
 30
0.000000
 42
-0.076308
  0
VERTEX
  8
1_ANYTOOL_1MMDEEP_LABELS_S
 10
622.932143
 20
130.352760
 30
0.000000
 42
-0.047772
  0
VERTEX
  8
1_ANYTOOL_1MMDEEP_LABELS_S
 10
622.957143
 20
128.706442
 30
0.000000
 42
-0.046243
  0
VERTEX
  8
1_ANYTOOL_1MMDEEP_LABELS_S
 10
622.663908
 20
127.025483
 30
0.000000
 42
-0.063590
  0
VERTEX
  8
1_ANYTOOL_1MMDEEP_LABELS_S
 10
622.014286
 20
125.454656
 30
0.000000
 42
-0.064671
  0
VERTEX
  8
1_ANYTOOL_1MMDEEP_LABELS_S
 10
621.041462
 20
124.170468
 30
0.000000
 42
-0.057073
  0
VERTEX
  8
1_ANYTOOL_1MMDEEP_LABELS_S
 10
619.785714
 20
123.156442
 30
0.000000
 42
-0.067522
  0
VERTEX
  8
1_ANYTOOL_1MMDEEP_LABELS_S
 10
616.817406
 20
121.793532
 30
0.000000
 42
-0.070793
  0
VERTEX
  8
1_ANYTOOL_1MMDEEP_LABELS_S
 10
613.592857
 20
121.292156
 30
0.000000
 42
-0.064027
  0
VERTEX
  8
1_ANYTOOL_1MMDEEP_LABELS_S
 10
610.453842
 20
121.654672
 30
0.000000
 42
-0.070447
  0
VERTEX
  8
1_ANYTOOL_1MMDEEP_LABELS_S
 10
607.528571
 20
122.835014
 30
0.000000
 42
-0.054374
  0
VERTEX
  8
1_ANYTOOL_1MMDEEP_LABELS_S
 10
606.370154
 20
123.684646
 30
0.000000
 42
-0.074742
  0
VERTEX
  8
1_ANYTOOL_1MMDEEP_LABELS_S
 10
605.471429
 20
124.795728
 30
0.000000
 42
-0.075199
  0
VERTEX
  8
1_ANYTOOL_1MMDEEP_LABELS_S
 10
604.948421
 20
126.102106
 30
0.000000
 42
-0.057737
  0
VERTEX
  8
1_ANYTOOL_1MMDEEP_LABELS_S
 10
604.785714
 20
127.506442
 30
0.000000
  0
SEQEND
  8
1_ANYTOOL_1MMDEEP_LABELS_S
  0
LINE
  8
1_ANYTOOL_1MMDEEP_LABELS_S
 10
600.757143
 20
135.520728
 30
0.000000
 11
591.971429
 21
135.435014
 31
0.000000
  0
POLYLINE
  8
1_ANYTOOL_1MMDEEP_LABELS_S
 66
1
 10
0.000000
 20
0.000000
 30
0.000000
 70
1
  0
VERTEX
  8
1_ANYTOOL_1MMDEEP_LABELS_S
 10
576.800000
 20
151.977871
 30
0.000000
 42
-0.064784
  0
VERTEX
  8
1_ANYTOOL_1MMDEEP_LABELS_S
 10
579.473955
 20
151.629949
 30
0.000000
 42
-0.088904
  0
VERTEX
  8
1_ANYTOOL_1MMDEEP_LABELS_S
 10
581.900000
 20
150.499299
 30
0.000000
 42
-0.054190
  0
VERTEX
  8
1_ANYTOOL_1MMDEEP_LABELS_S
 10
583.822565
 20
148.807169
 30
0.000000
 42
-0.051179
  0
VERTEX
  8
1_ANYTOOL_1MMDEEP_LABELS_S
 10
585.350000
 20
146.749299
 30
0.000000
 42
-0.041653
  0
VERTEX
  8
1_ANYTOOL_1MMDEEP_LABELS_S
 10
586.532200
 20
144.320527
 30
0.000000
 42
-0.036749
  0
VERTEX
  8
1_ANYTOOL_1MMDEEP_LABELS_S
 10
587.321429
 20
141.735014
 30
0.000000
 42
-0.024892
  0
VERTEX
  8
1_ANYTOOL_1MMDEEP_LABELS_S
 10
587.779208
 20
139.115751
 30
0.000000
 42
-0.030823
  0
VERTEX
  8
1_ANYTOOL_1MMDEEP_LABELS_S
 10
587.942857
 20
136.463585
 30
0.000000
 42
-0.034269
  0
VERTEX
  8
1_ANYTOOL_1MMDEEP_LABELS_S
 10
587.766337
 20
133.891088
 30
0.000000
 42
-0.031918
  0
VERTEX
  8
1_ANYTOOL_1MMDEEP_LABELS_S
 10
587.251786
 20
131.363585
 30
0.000000
 42
-0.031725
  0
VERTEX
  8
1_ANYTOOL_1MMDEEP_LABELS_S
 10
586.363599
 20
128.754188
 30
0.000000
 42
-0.026303
  0
VERTEX
  8
1_ANYTOOL_1MMDEEP_LABELS_S
 10
585.178571
 20
126.263585
 30
0.000000
 42
-0.058719
  0
VERTEX
  8
1_ANYTOOL_1MMDEEP_LABELS_S
 10
583.654791
 20
124.101838
 30
0.000000
 42
-0.077745
  0
VERTEX
  8
1_ANYTOOL_1MMDEEP_LABELS_S
 10
581.616071
 20
122.438585
 30
0.000000
 42
-0.077243
  0
VERTEX
  8
1_ANYTOOL_1MMDEEP_LABELS_S
 10
579.129083
 20
121.459747
 30
0.000000
 42
-0.055252
  0
VERTEX
  8
1_ANYTOOL_1MMDEEP_LABELS_S
 10
576.457143
 20
121.163585
 30
0.000000
 42
-0.054051
  0
VERTEX
  8
1_ANYTOOL_1MMDEEP_LABELS_S
 10
573.703218
 20
121.462164
 30
0.000000
 42
-0.077615
  0
VERTEX
  8
1_ANYTOOL_1MMDEEP_LABELS_S
 10
571.137500
 20
122.460014
 30
0.000000
 42
-0.078558
  0
VERTEX
  8
1_ANYTOOL_1MMDEEP_LABELS_S
 10
569.062427
 20
124.147087
 30
0.000000
 42
-0.060481
  0
VERTEX
  8
1_ANYTOOL_1MMDEEP_LABELS_S
 10
567.521429
 20
126.349299
 30
0.000000
 42
-0.026290
  0
VERTEX
  8
1_ANYTOOL_1MMDEEP_LABELS_S
 10
566.334768
 20
128.888519
 30
0.000000
 42
-0.031299
  0
VERTEX
  8
1_ANYTOOL_1MMDEEP_LABELS_S
 10
565.448214
 20
131.545728
 30
0.000000
 42
-0.031469
  0
VERTEX
  8
1_ANYTOOL_1MMDEEP_LABELS_S
 10
564.933176
 20
134.132544
 30
0.000000
 42
-0.033416
  0
VERTEX
  8
1_ANYTOOL_1MMDEEP_LABELS_S
 10
564.757143
 20
136.763585
 30
0.000000
 42
-0.032847
  0
VERTEX
  8
1_ANYTOOL_1MMDEEP_LABELS_S
 10
564.935821
 20
139.480534
 30
0.000000
 42
-0.035049
  0
VERTEX
  8
1_ANYTOOL_1MMDEEP_LABELS_S
 10
565.480357
 20
142.147514
 30
0.000000
 42
-0.035030
  0
VERTEX
  8
1_ANYTOOL_1MMDEEP_LABELS_S
 10
566.396331
 20
144.724553
 30
0.000000
 42
-0.032231
  0
VERTEX
  8
1_ANYTOOL_1MMDEEP_LABELS_S
 10
567.650000
 20
147.156442
 30
0.000000
 42
-0.062518
  0
VERTEX
  8
1_ANYTOOL_1MMDEEP_LABELS_S
 10
569.271889
 20
149.223537
 30
0.000000
 42
-0.074052
  0
VERTEX
  8
1_ANYTOOL_1MMDEEP_LABELS_S
 10
571.383929
 20
150.772514
 30
0.000000
 42
-0.072322
  0
VERTEX
  8
1_ANYTOOL_1MMDEEP_LABELS_S
 10
574.010782
 20
151.703405
 30
0.000000
 42
-0.049083
  0
SEQEND
  8
1_ANYTOOL_1MMDEEP_LABELS_S
  0
LINE
  8
1_ANYTOOL_1MMDEEP_LABELS_S
 10
560.728571
 20
135.520728
 30
0.000000
 11
551.942857
 21
135.435014
 31
0.000000
  0
POLYLINE
  8
1_ANYTOOL_1MMDEEP_LABELS_S
 66
1
 10
0.000000
 20
0.000000
 30
0.000000
 70
0
  0
VERTEX
  8
1_ANYTOOL_1MMDEEP_LABELS_S
 10
516.371429
 20
151.635014
 30
0.000000
  0
VERTEX
  8
1_ANYTOOL_1MMDEEP_LABELS_S
 10
524.085714
 20
121.635014
 30
0.000000
  0
VERTEX
  8
1_ANYTOOL_1MMDEEP_LABELS_S
 10
532.528571
 20
150.735014
 30
0.000000
  0
VERTEX
  8
1_ANYTOOL_1MMDEEP_LABELS_S
 10
541.014286
 20
121.635014
 30
0.000000
  0
VERTEX
  8
1_ANYTOOL_1MMDEEP_LABELS_S
 10
548.514286
 20
151.635014
 30
0.000000
  0
SEQEND
  8
1_ANYTOOL_1MMDEEP_LABELS_S
  0
POLYLINE
  8
4_ANYTOOL_CUTTHROUGH_OUTSI
 66
1
 10
0.000000
 20
0.000000
 30
0.000000
 70
1
  0
VERTEX
  8
4_ANYTOOL_CUTTHROUGH_OUTSI
 10
1199.500000
 20
75.500000
 30
0.000000
  0
VERTEX
  8
4_ANYTOOL_CUTTHROUGH_OUTSI
 10
1157.750000
 20
75.500000
 30
0.000000
 42
-0.414214
  0
VERTEX
  8
4_ANYTOOL_CUTTHROUGH_OUTSI
 10
1157.500000
 20
75.750000
 30
0.000000
  0
VERTEX
  8
4_ANYTOOL_CUTTHROUGH_OUTSI
 10
1157.500000
 20
87.750000
 30
0.000000
 42
-0.414214
  0
VERTEX
  8
4_ANYTOOL_CUTTHROUGH_OUTSI
 10
1157.750000
 20
88.000000
 30
0.000000
  0
VERTEX
  8
4_ANYTOOL_CUTTHROUGH_OUTSI
 10
1163.500000
 20
88.000000
 30
0.000000
  0
VERTEX
  8
4_ANYTOOL_CUTTHROUGH_OUTSI
 10
1163.500000
 20
119.499667
 30
0.000000
  0
VERTEX
  8
4_ANYTOOL_CUTTHROUGH_OUTSI
 10
1157.750000
 20
119.499667
 30
0.000000
 42
-0.414214
  0
VERTEX
  8
4_ANYTOOL_CUTTHROUGH_OUTSI
 10
1157.500000
 20
119.749667
 30
0.000000
  0
VERTEX
  8
4_ANYTOOL_CUTTHROUGH_OUTSI
 10
1157.500000
 20
131.749667
 30
0.000000
 42
-0.414214
  0
VERTEX
  8
4_ANYTOOL_CUTTHROUGH_OUTSI
 10
1157.750000
 20
131.999667
 30
0.000000
  0
VERTEX
  8
4_ANYTOOL_CUTTHROUGH_OUTSI
 10
1199.499762
 20
131.999617
 30
0.000000
  0
VERTEX
  8
4_ANYTOOL_CUTTHROUGH_OUTSI
 10
1199.499993
 20
271.499983
 30
0.000000
  0
VERTEX
  8
4_ANYTOOL_CUTTHROUGH_OUTSI
 10
0.000007
 20
271.499983
 30
0.000000
  0
VERTEX
  8
4_ANYTOOL_CUTTHROUGH_OUTSI
 10
0.000238
 20
131.999617
 30
0.000000
  0
VERTEX
  8
4_ANYTOOL_CUTTHROUGH_OUTSI
 10
41.750000
 20
131.999667
 30
0.000000
 42
-0.414214
  0
VERTEX
  8
4_ANYTOOL_CUTTHROUGH_OUTSI
 10
42.000000
 20
131.749667
 30
0.000000
  0
VERTEX
  8
4_ANYTOOL_CUTTHROUGH_OUTSI
 10
42.000000
 20
119.749667
 30
0.000000
 42
-0.414214
  0
VERTEX
  8
4_ANYTOOL_CUTTHROUGH_OUTSI
 10
41.750000
 20
119.499667
 30
0.000000
  0
VERTEX
  8
4_ANYTOOL_CUTTHROUGH_OUTSI
 10
36.000000
 20
119.499667
 30
0.000000
  0
VERTEX
  8
4_ANYTOOL_CUTTHROUGH_OUTSI
 10
36.000000
 20
88.000000
 30
0.000000
  0
VERTEX
  8
4_ANYTOOL_CUTTHROUGH_OUTSI
 10
41.750000
 20
88.000000
 30
0.000000
 42
-0.414214
  0
VERTEX
  8
4_ANYTOOL_CUTTHROUGH_OUTSI
 10
42.000000
 20
87.750000
 30
0.000000
  0
VERTEX
  8
4_ANYTOOL_CUTTHROUGH_OUTSI
 10
42.000000
 20
75.750000
 30
0.000000
 42
-0.414214
  0
VERTEX
  8
4_ANYTOOL_CUTTHROUGH_OUTSI
 10
41.750000
 20
75.500000
 30
0.000000
  0
VERTEX
  8
4_ANYTOOL_CUTTHROUGH_OUTSI
 10
0.000000
 20
75.500000
 30
0.000000
  0
VERTEX
  8
4_ANYTOOL_CUTTHROUGH_OUTSI
 10
0.000000
 20
0.000000
 30
0.000000
  0
VERTEX
  8
4_ANYTOOL_CUTTHROUGH_OUTSI
 10
1199.500000
 20
0.000000
 30
0.000000
  0
SEQEND
  8
4_ANYTOOL_CUTTHROUGH_OUTSI
  0
ENDSEC
  0
EOF
