  0
SECTION
  2
HEADER
  9
$ACADVER
  1
AC1009
  9
$INSBASE
 10
0.000000
 20
0.000000
 30
0.000000
  9
$EXTMIN
 10
0.000000
 20
0.000000
 30
0.000000
  9
$EXTMAX
 10
2399.500000
 20
185.588506
 30
0.000000
  0
ENDSEC
  0
SECTION
  2
TABLES
  0
TABLE
  2
LTYPE
 70
1
  0
LTYPE
  2
CONTINUOUS
 70
0
  3
Solid line
 72
65
 73
0
 40
0.000000
  0
ENDTAB
  0
TABLE
  2
LAYER
 70
4
  0
LAYER
  2
0
 70
0
 62
7
  6
CONTINUOUS
  0
LAYER
  2
1_ANYTOOL_1MMDEEP_LABELS_S
 70
0
 62
2
  6
CONTINUOUS
  0
LAYER
  2
3_ANYTOOL_CUTTHROUGH_INSID
 70
0
 62
4
  6
CONTINUOUS
  0
LAYER
  2
4_ANYTOOL_CUTTHROUGH_OUTSI
 70
0
 62
5
  6
CONTINUOUS
  0
ENDTAB
  0
ENDSEC
  0
SECTION
  2
ENTITIES
  0
POLYLINE
  8
1_ANYTOOL_1MMDEEP_LABELS_S
 66
1
 10
0.000000
 20
0.000000
 30
0.000000
 70
0
  0
VERTEX
  8
1_ANYTOOL_1MMDEEP_LABELS_S
 10
1297.828572
 20
135.744253
 30
0.000000
 42
0.059291
  0
VERTEX
  8
1_ANYTOOL_1MMDEEP_LABELS_S
 10
1296.292411
 20
138.673670
 30
0.000000
 42
0.066881
  0
VERTEX
  8
1_ANYTOOL_1MMDEEP_LABELS_S
 10
1294.078572
 20
141.122825
 30
0.000000
 42
0.045290
  0
VERTEX
  8
1_ANYTOOL_1MMDEEP_LABELS_S
 10
1292.761586
 20
142.046702
 30
0.000000
 42
0.046757
  0
VERTEX
  8
1_ANYTOOL_1MMDEEP_LABELS_S
 10
1291.298215
 20
142.713896
 30
0.000000
 42
0.046330
  0
VERTEX
  8
1_ANYTOOL_1MMDEEP_LABELS_S
 10
1289.658302
 20
143.118228
 30
0.000000
 42
0.037303
  0
VERTEX
  8
1_ANYTOOL_1MMDEEP_LABELS_S
 10
1287.971429
 20
143.244253
 30
0.000000
 42
0.054828
  0
VERTEX
  8
1_ANYTOOL_1MMDEEP_LABELS_S
 10
1285.465788
 20
142.968668
 30
0.000000
 42
0.073548
  0
VERTEX
  8
1_ANYTOOL_1MMDEEP_LABELS_S
 10
1283.123215
 20
142.071039
 30
0.000000
 42
0.073729
  0
VERTEX
  8
1_ANYTOOL_1MMDEEP_LABELS_S
 10
1281.153892
 20
140.542806
 30
0.000000
 42
0.056205
  0
VERTEX
  8
1_ANYTOOL_1MMDEEP_LABELS_S
 10
1279.635715
 20
138.551396
 30
0.000000
 42
0.033355
  0
VERTEX
  8
1_ANYTOOL_1MMDEEP_LABELS_S
 10
1278.414545
 20
136.161520
 30
0.000000
 42
0.034965
  0
VERTEX
  8
1_ANYTOOL_1MMDEEP_LABELS_S
 10
1277.530357
 20
133.628182
 30
0.000000
 42
0.034911
  0
VERTEX
  8
1_ANYTOOL_1MMDEEP_LABELS_S
 10
1277.000330
 20
130.960175
 30
0.000000
 42
0.031589
  0
VERTEX
  8
1_ANYTOOL_1MMDEEP_LABELS_S
 10
1276.828572
 20
128.244253
 30
0.000000
 42
0.032085
  0
VERTEX
  8
1_ANYTOOL_1MMDEEP_LABELS_S
 10
1277.003075
 20
125.527625
 30
0.000000
 42
0.035383
  0
VERTEX
  8
1_ANYTOOL_1MMDEEP_LABELS_S
 10
1277.541072
 20
122.860325
 30
0.000000
 42
0.035431
  0
VERTEX
  8
1_ANYTOOL_1MMDEEP_LABELS_S
 10
1278.439560
 20
120.325168
 30
0.000000
 42
0.033598
  0
VERTEX
  8
1_ANYTOOL_1MMDEEP_LABELS_S
 10
1279.678572
 20
117.937110
 30
0.000000
 42
0.058628
  0
VERTEX
  8
1_ANYTOOL_1MMDEEP_LABELS_S
 10
1281.240773
 20
115.936225
 30
0.000000
 42
0.073381
  0
VERTEX
  8
1_ANYTOOL_1MMDEEP_LABELS_S
 10
1283.262500
 20
114.417468
 30
0.000000
 42
0.072539
  0
VERTEX
  8
1_ANYTOOL_1MMDEEP_LABELS_S
 10
1285.708473
 20
113.516414
 30
0.000000
 42
0.052080
  0
VERTEX
  8
1_ANYTOOL_1MMDEEP_LABELS_S
 10
1288.314286
 20
113.244253
 30
0.000000
 42
0.033243
  0
VERTEX
  8
1_ANYTOOL_1MMDEEP_LABELS_S
 10
1289.755661
 20
113.340190
 30
0.000000
 42
0.042283
  0
VERTEX
  8
1_ANYTOOL_1MMDEEP_LABELS_S
 10
1291.164286
 20
113.651396
 30
0.000000
 42
0.042766
  0
VERTEX
  8
1_ANYTOOL_1MMDEEP_LABELS_S
 10
1292.406983
 20
114.158485
 30
0.000000
 42
0.044269
  0
VERTEX
  8
1_ANYTOOL_1MMDEEP_LABELS_S
 10
1293.542857
 20
114.872825
 30
0.000000
 42
0.055485
  0
VERTEX
  8
1_ANYTOOL_1MMDEEP_LABELS_S
 10
1295.554652
 20
116.787726
 30
0.000000
 42
0.045948
  0
VERTEX
  8
1_ANYTOOL_1MMDEEP_LABELS_S
 10
1297.142857
 20
119.072825
 30
0.000000
  0
SEQEND
  8
1_ANYTOOL_1MMDEEP_LABELS_S
  0
LINE
  8
1_ANYTOOL_1MMDEEP_LABELS_S
 10
1274.214286
 20
142.772825
 30
0.000000
 11
1257.028572
 21
112.001396
 31
0.000000
  0
POLYLINE
  8
1_ANYTOOL_1MMDEEP_LABELS_S
 66
1
 10
0.000000
 20
0.000000
 30
0.000000
 70
0
  0
VERTEX
  8
1_ANYTOOL_1MMDEEP_LABELS_S
 10
1233.842857
 20
118.001396
 30
0.000000
 42
0.051644
  0
VERTEX
  8
1_ANYTOOL_1MMDEEP_LABELS_S
 10
1235.577895
 20
115.981484
 30
0.000000
 42
0.067529
  0
VERTEX
  8
1_ANYTOOL_1MMDEEP_LABELS_S
 10
1237.732143
 20
114.433539
 30
0.000000
 42
0.067834
  0
VERTEX
  8
1_ANYTOOL_1MMDEEP_LABELS_S
 10
1240.188901
 20
113.529068
 30
0.000000
 42
0.054378
  0
VERTEX
  8
1_ANYTOOL_1MMDEEP_LABELS_S
 10
1242.800000
 20
113.244253
 30
0.000000
 42
0.039344
  0
VERTEX
  8
1_ANYTOOL_1MMDEEP_LABELS_S
 10
1245.783253
 20
113.479361
 30
0.000000
 42
0.059901
  0
VERTEX
  8
1_ANYTOOL_1MMDEEP_LABELS_S
 10
1248.650000
 20
114.294253
 30
0.000000
 42
0.055966
  0
VERTEX
  8
1_ANYTOOL_1MMDEEP_LABELS_S
 10
1249.864807
 20
114.971256
 30
0.000000
 42
0.047768
  0
VERTEX
  8
1_ANYTOOL_1MMDEEP_LABELS_S
 10
1250.916072
 20
115.885325
 30
0.000000
 42
0.046557
  0
VERTEX
  8
1_ANYTOOL_1MMDEEP_LABELS_S
 10
1251.911486
 20
117.150613
 30
0.000000
 42
0.031515
  0
VERTEX
  8
1_ANYTOOL_1MMDEEP_LABELS_S
 10
1252.700000
 20
118.558539
 30
0.000000
 42
0.047557
  0
VERTEX
  8
1_ANYTOOL_1MMDEEP_LABELS_S
 10
1253.388292
 20
120.437920
 30
0.000000
 42
0.064093
  0
VERTEX
  8
1_ANYTOOL_1MMDEEP_LABELS_S
 10
1253.642857
 20
122.415682
 30
0.000000
 42
0.035335
  0
VERTEX
  8
1_ANYTOOL_1MMDEEP_LABELS_S
 10
1253.501539
 20
124.412861
 30
0.000000
 42
0.045148
  0
VERTEX
  8
1_ANYTOOL_1MMDEEP_LABELS_S
 10
1253.042857
 20
126.358539
 30
0.000000
 42
0.045692
  0
VERTEX
  8
1_ANYTOOL_1MMDEEP_LABELS_S
 10
1252.292731
 20
128.070029
 30
0.000000
 42
0.046166
  0
VERTEX
  8
1_ANYTOOL_1MMDEEP_LABELS_S
 10
1251.242857
 20
129.615682
 30
0.000000
 42
0.060461
  0
VERTEX
  8
1_ANYTOOL_1MMDEEP_LABELS_S
 10
1249.907950
 20
130.887236
 30
0.000000
 42
0.060801
  0
VERTEX
  8
1_ANYTOOL_1MMDEEP_LABELS_S
 10
1248.307143
 20
131.801396
 30
0.000000
 42
0.059081
  0
VERTEX
  8
1_ANYTOOL_1MMDEEP_LABELS_S
 10
1246.343651
 20
132.364718
 30
0.000000
 42
0.040364
  0
VERTEX
  8
1_ANYTOOL_1MMDEEP_LABELS_S
 10
1244.300000
 20
132.529968
 30
0.000000
 42
0.051634
  0
VERTEX
  8
1_ANYTOOL_1MMDEEP_LABELS_S
 10
1241.719408
 20
132.262764
 30
0.000000
 42
0.068321
  0
VERTEX
  8
1_ANYTOOL_1MMDEEP_LABELS_S
 10
1239.285715
 20
131.394253
 30
0.000000
 42
0.044671
  0
VERTEX
  8
1_ANYTOOL_1MMDEEP_LABELS_S
 10
1237.043930
 20
129.962100
 30
0.000000
 42
0.031916
  0
VERTEX
  8
1_ANYTOOL_1MMDEEP_LABELS_S
 10
1235.042857
 20
128.201396
 30
0.000000
  0
VERTEX
  8
1_ANYTOOL_1MMDEEP_LABELS_S
 10
1235.771429
 20
143.244253
 30
0.000000
  0
VERTEX
  8
1_ANYTOOL_1MMDEEP_LABELS_S
 10
1251.971429
 20
143.244253
 30
0.000000
  0
SEQEND
  8
1_ANYTOOL_1MMDEEP_LABELS_S
  0
LINE
  8
1_ANYTOOL_1MMDEEP_LABELS_S
 10
1229.557143
 20
127.129968
 30
0.000000
 11
1220.771429
 21
127.044253
 31
0.000000
  0
POLYLINE
  8
1_ANYTOOL_1MMDEEP_LABELS_S
 66
1
 10
0.000000
 20
0.000000
 30
0.000000
 70
0
  0
VERTEX
  8
1_ANYTOOL_1MMDEEP_LABELS_S
 10
1191.200000
 20
113.244253
 30
0.000000
  0
VERTEX
  8
1_ANYTOOL_1MMDEEP_LABELS_S
 10
1191.200000
 20
143.244253
 30
0.000000
  0
VERTEX
  8
1_ANYTOOL_1MMDEEP_LABELS_S
 10
1203.200000
 20
114.872825
 30
0.000000
  0
VERTEX
  8
1_ANYTOOL_1MMDEEP_LABELS_S
 10
1215.200000
 20
143.115682
 30
0.000000
  0
VERTEX
  8
1_ANYTOOL_1MMDEEP_LABELS_S
 10
1215.200000
 20
113.244253
 30
0.000000
  0
SEQEND
  8
1_ANYTOOL_1MMDEEP_LABELS_S
  0
LINE
  8
1_ANYTOOL_1MMDEEP_LABELS_S
 10
1186.057143
 20
127.129968
 30
0.000000
 11
1177.271429
 21
127.044253
 31
0.000000
  0
POLYLINE
  8
1_ANYTOOL_1MMDEEP_LABELS_S
 66
1
 10
0.000000
 20
0.000000
 30
0.000000
 70
1
  0
VERTEX
  8
1_ANYTOOL_1MMDEEP_LABELS_S
 10
1162.100000
 20
143.587110
 30
0.000000
 42
-0.064784
  0
VERTEX
  8
1_ANYTOOL_1MMDEEP_LABELS_S
 10
1164.773955
 20
143.239189
 30
0.000000
 42
-0.088904
  0
VERTEX
  8
1_ANYTOOL_1MMDEEP_LABELS_S
 10
1167.200000
 20
142.108539
 30
0.000000
 42
-0.054190
  0
VERTEX
  8
1_ANYTOOL_1MMDEEP_LABELS_S
 10
1169.122565
 20
140.416409
 30
0.000000
 42
-0.051179
  0
VERTEX
  8
1_ANYTOOL_1MMDEEP_LABELS_S
 10
1170.650000
 20
138.358539
 30
0.000000
 42
-0.041653
  0
VERTEX
  8
1_ANYTOOL_1MMDEEP_LABELS_S
 10
1171.832200
 20
135.929766
 30
0.000000
 42
-0.036749
  0
VERTEX
  8
1_ANYTOOL_1MMDEEP_LABELS_S
 10
1172.621429
 20
133.344253
 30
0.000000
 42
-0.024892
  0
VERTEX
  8
1_ANYTOOL_1MMDEEP_LABELS_S
 10
1173.079208
 20
130.724990
 30
0.000000
 42
-0.030823
  0
VERTEX
  8
1_ANYTOOL_1MMDEEP_LABELS_S
 10
1173.242857
 20
128.072825
 30
0.000000
 42
-0.034269
  0
VERTEX
  8
1_ANYTOOL_1MMDEEP_LABELS_S
 10
1173.066338
 20
125.500328
 30
0.000000
 42
-0.031918
  0
VERTEX
  8
1_ANYTOOL_1MMDEEP_LABELS_S
 10
1172.551786
 20
122.972825
 30
0.000000
 42
-0.031725
  0
VERTEX
  8
1_ANYTOOL_1MMDEEP_LABELS_S
 10
1171.663599
 20
120.363428
 30
0.000000
 42
-0.026303
  0
VERTEX
  8
1_ANYTOOL_1MMDEEP_LABELS_S
 10
1170.478572
 20
117.872825
 30
0.000000
 42
-0.058719
  0
VERTEX
  8
1_ANYTOOL_1MMDEEP_LABELS_S
 10
1168.954791
 20
115.711077
 30
0.000000
 42
-0.077745
  0
VERTEX
  8
1_ANYTOOL_1MMDEEP_LABELS_S
 10
1166.916072
 20
114.047825
 30
0.000000
 42
-0.077243
  0
VERTEX
  8
1_ANYTOOL_1MMDEEP_LABELS_S
 10
1164.429083
 20
113.068987
 30
0.000000
 42
-0.055252
  0
VERTEX
  8
1_ANYTOOL_1MMDEEP_LABELS_S
 10
1161.757143
 20
112.772825
 30
0.000000
 42
-0.054051
  0
VERTEX
  8
1_ANYTOOL_1MMDEEP_LABELS_S
 10
1159.003218
 20
113.071404
 30
0.000000
 42
-0.077615
  0
VERTEX
  8
1_ANYTOOL_1MMDEEP_LABELS_S
 10
1156.437500
 20
114.069253
 30
0.000000
 42
-0.078558
  0
VERTEX
  8
1_ANYTOOL_1MMDEEP_LABELS_S
 10
1154.362427
 20
115.756327
 30
0.000000
 42
-0.060481
  0
VERTEX
  8
1_ANYTOOL_1MMDEEP_LABELS_S
 10
1152.821429
 20
117.958539
 30
0.000000
 42
-0.026290
  0
VERTEX
  8
1_ANYTOOL_1MMDEEP_LABELS_S
 10
1151.634768
 20
120.497758
 30
0.000000
 42
-0.031299
  0
VERTEX
  8
1_ANYTOOL_1MMDEEP_LABELS_S
 10
1150.748215
 20
123.154968
 30
0.000000
 42
-0.031469
  0
VERTEX
  8
1_ANYTOOL_1MMDEEP_LABELS_S
 10
1150.233176
 20
125.741783
 30
0.000000
 42
-0.033416
  0
VERTEX
  8
1_ANYTOOL_1MMDEEP_LABELS_S
 10
1150.057143
 20
128.372825
 30
0.000000
 42
-0.032847
  0
VERTEX
  8
1_ANYTOOL_1MMDEEP_LABELS_S
 10
1150.235821
 20
131.089773
 30
0.000000
 42
-0.035049
  0
VERTEX
  8
1_ANYTOOL_1MMDEEP_LABELS_S
 10
1150.780357
 20
133.756753
 30
0.000000
 42
-0.035030
  0
VERTEX
  8
1_ANYTOOL_1MMDEEP_LABELS_S
 10
1151.696331
 20
136.333792
 30
0.000000
 42
-0.032231
  0
VERTEX
  8
1_ANYTOOL_1MMDEEP_LABELS_S
 10
1152.950000
 20
138.765682
 30
0.000000
 42
-0.062518
  0
VERTEX
  8
1_ANYTOOL_1MMDEEP_LABELS_S
 10
1154.571889
 20
140.832776
 30
0.000000
 42
-0.074052
  0
VERTEX
  8
1_ANYTOOL_1MMDEEP_LABELS_S
 10
1156.683929
 20
142.381753
 30
0.000000
 42
-0.072322
  0
VERTEX
  8
1_ANYTOOL_1MMDEEP_LABELS_S
 10
1159.310782
 20
143.312644
 30
0.000000
 42
-0.049083
  0
SEQEND
  8
1_ANYTOOL_1MMDEEP_LABELS_S
  0
LINE
  8
1_ANYTOOL_1MMDEEP_LABELS_S
 10
1146.028572
 20
127.129968
 30
0.000000
 11
1137.242857
 21
127.044253
 31
0.000000
  0
POLYLINE
  8
1_ANYTOOL_1MMDEEP_LABELS_S
 66
1
 10
0.000000
 20
0.000000
 30
0.000000
 70
0
  0
VERTEX
  8
1_ANYTOOL_1MMDEEP_LABELS_S
 10
1101.671429
 20
143.244253
 30
0.000000
  0
VERTEX
  8
1_ANYTOOL_1MMDEEP_LABELS_S
 10
1109.385715
 20
113.244253
 30
0.000000
  0
VERTEX
  8
1_ANYTOOL_1MMDEEP_LABELS_S
 10
1117.828572
 20
142.344253
 30
0.000000
  0
VERTEX
  8
1_ANYTOOL_1MMDEEP_LABELS_S
 10
1126.314286
 20
113.244253
 30
0.000000
  0
VERTEX
  8
1_ANYTOOL_1MMDEEP_LABELS_S
 10
1133.814286
 20
143.244253
 30
0.000000
  0
SEQEND
  8
1_ANYTOOL_1MMDEEP_LABELS_S
  0
POLYLINE
  8
3_ANYTOOL_CUTTHROUGH_INSID
 66
1
 10
0.000000
 20
0.000000
 30
0.000000
 70
1
  0
VERTEX
  8
3_ANYTOOL_CUTTHROUGH_INSID
 10
619.750000
 20
167.588506
 30
0.000000
 42
1.000000
  0
VERTEX
  8
3_ANYTOOL_CUTTHROUGH_INSID
 10
619.750000
 20
177.088506
 30
0.000000
  0
VERTEX
  8
3_ANYTOOL_CUTTHROUGH_INSID
 10
579.750000
 20
177.088506
 30
0.000000
 42
1.000000
  0
VERTEX
  8
3_ANYTOOL_CUTTHROUGH_INSID
 10
579.750000
 20
167.588506
 30
0.000000
  0
SEQEND
  8
3_ANYTOOL_CUTTHROUGH_INSID
  0
POLYLINE
  8
3_ANYTOOL_CUTTHROUGH_INSID
 66
1
 10
0.000000
 20
0.000000
 30
0.000000
 70
1
  0
VERTEX
  8
3_ANYTOOL_CUTTHROUGH_INSID
 10
1023.750000
 20
167.544253
 30
0.000000
 42
1.000000
  0
VERTEX
  8
3_ANYTOOL_CUTTHROUGH_INSID
 10
1023.750000
 20
177.044253
 30
0.000000
  0
VERTEX
  8
3_ANYTOOL_CUTTHROUGH_INSID
 10
983.750000
 20
177.044253
 30
0.000000
 42
1.000000
  0
VERTEX
  8
3_ANYTOOL_CUTTHROUGH_INSID
 10
983.750000
 20
167.544253
 30
0.000000
  0
SEQEND
  8
3_ANYTOOL_CUTTHROUGH_INSID
  0
POLYLINE
  8
3_ANYTOOL_CUTTHROUGH_INSID
 66
1
 10
0.000000
 20
0.000000
 30
0.000000
 70
1
  0
VERTEX
  8
3_ANYTOOL_CUTTHROUGH_INSID
 10
815.750000
 20
167.544253
 30
0.000000
 42
1.000000
  0
VERTEX
  8
3_ANYTOOL_CUTTHROUGH_INSID
 10
815.750000
 20
177.044253
 30
0.000000
  0
VERTEX
  8
3_ANYTOOL_CUTTHROUGH_INSID
 10
775.750000
 20
177.044253
 30
0.000000
 42
1.000000
  0
VERTEX
  8
3_ANYTOOL_CUTTHROUGH_INSID
 10
775.750000
 20
167.544253
 30
0.000000
  0
SEQEND
  8
3_ANYTOOL_CUTTHROUGH_INSID
  0
POLYLINE
  8
3_ANYTOOL_CUTTHROUGH_INSID
 66
1
 10
0.000000
 20
0.000000
 30
0.000000
 70
1
  0
VERTEX
  8
3_ANYTOOL_CUTTHROUGH_INSID
 10
423.750000
 20
167.544253
 30
0.000000
 42
1.000000
  0
VERTEX
  8
3_ANYTOOL_CUTTHROUGH_INSID
 10
423.750000
 20
177.044253
 30
0.000000
  0
VERTEX
  8
3_ANYTOOL_CUTTHROUGH_INSID
 10
383.750000
 20
177.044253
 30
0.000000
 42
1.000000
  0
VERTEX
  8
3_ANYTOOL_CUTTHROUGH_INSID
 10
383.750000
 20
167.544253
 30
0.000000
  0
SEQEND
  8
3_ANYTOOL_CUTTHROUGH_INSID
  0
POLYLINE
  8
3_ANYTOOL_CUTTHROUGH_INSID
 66
1
 10
0.000000
 20
0.000000
 30
0.000000
 70
1
  0
VERTEX
  8
3_ANYTOOL_CUTTHROUGH_INSID
 10
215.750000
 20
167.544253
 30
0.000000
 42
1.000000
  0
VERTEX
  8
3_ANYTOOL_CUTTHROUGH_INSID
 10
215.750000
 20
177.044253
 30
0.000000
  0
VERTEX
  8
3_ANYTOOL_CUTTHROUGH_INSID
 10
175.750000
 20
177.044253
 30
0.000000
 42
1.000000
  0
VERTEX
  8
3_ANYTOOL_CUTTHROUGH_INSID
 10
175.750000
 20
167.544253
 30
0.000000
  0
SEQEND
  8
3_ANYTOOL_CUTTHROUGH_INSID
  0
POLYLINE
  8
3_ANYTOOL_CUTTHROUGH_INSID
 66
1
 10
0.000000
 20
0.000000
 30
0.000000
 70
1
  0
VERTEX
  8
3_ANYTOOL_CUTTHROUGH_INSID
 10
1779.750000
 20
167.588506
 30
0.000000
  0
VERTEX
  8
3_ANYTOOL_CUTTHROUGH_INSID
 10
1819.750000
 20
167.588506
 30
0.000000
 42
1.000000
  0
VERTEX
  8
3_ANYTOOL_CUTTHROUGH_INSID
 10
1819.750000
 20
177.088506
 30
0.000000
  0
VERTEX
  8
3_ANYTOOL_CUTTHROUGH_INSID
 10
1779.750000
 20
177.088506
 30
0.000000
 42
1.000000
  0
SEQEND
  8
3_ANYTOOL_CUTTHROUGH_INSID
  0
POLYLINE
  8
3_ANYTOOL_CUTTHROUGH_INSID
 66
1
 10
0.000000
 20
0.000000
 30
0.000000
 70
1
  0
VERTEX
  8
3_ANYTOOL_CUTTHROUGH_INSID
 10
1375.750000
 20
167.544253
 30
0.000000
  0
VERTEX
  8
3_ANYTOOL_CUTTHROUGH_INSID
 10
1415.750000
 20
167.544253
 30
0.000000
 42
1.000000
  0
VERTEX
  8
3_ANYTOOL_CUTTHROUGH_INSID
 10
1415.750000
 20
177.044253
 30
0.000000
  0
VERTEX
  8
3_ANYTOOL_CUTTHROUGH_INSID
 10
1375.750000
 20
177.044253
 30
0.000000
 42
1.000000
  0
SEQEND
  8
3_ANYTOOL_CUTTHROUGH_INSID
  0
POLYLINE
  8
3_ANYTOOL_CUTTHROUGH_INSID
 66
1
 10
0.000000
 20
0.000000
 30
0.000000
 70
1
  0
VERTEX
  8
3_ANYTOOL_CUTTHROUGH_INSID
 10
1583.750000
 20
167.544253
 30
0.000000
  0
VERTEX
  8
3_ANYTOOL_CUTTHROUGH_INSID
 10
1623.750000
 20
167.544253
 30
0.000000
 42
1.000000
  0
VERTEX
  8
3_ANYTOOL_CUTTHROUGH_INSID
 10
1623.750000
 20
177.044253
 30
0.000000
  0
VERTEX
  8
3_ANYTOOL_CUTTHROUGH_INSID
 10
1583.750000
 20
177.044253
 30
0.000000
 42
1.000000
  0
SEQEND
  8
3_ANYTOOL_CUTTHROUGH_INSID
  0
POLYLINE
  8
3_ANYTOOL_CUTTHROUGH_INSID
 66
1
 10
0.000000
 20
0.000000
 30
0.000000
 70
1
  0
VERTEX
  8
3_ANYTOOL_CUTTHROUGH_INSID
 10
1975.750000
 20
167.544253
 30
0.000000
  0
VERTEX
  8
3_ANYTOOL_CUTTHROUGH_INSID
 10
2015.750000
 20
167.544253
 30
0.000000
 42
1.000000
  0
VERTEX
  8
3_ANYTOOL_CUTTHROUGH_INSID
 10
2015.750000
 20
177.044253
 30
0.000000
  0
VERTEX
  8
3_ANYTOOL_CUTTHROUGH_INSID
 10
1975.750000
 20
177.044253
 30
0.000000
 42
1.000000
  0
SEQEND
  8
3_ANYTOOL_CUTTHROUGH_INSID
  0
POLYLINE
  8
3_ANYTOOL_CUTTHROUGH_INSID
 66
1
 10
0.000000
 20
0.000000
 30
0.000000
 70
1
  0
VERTEX
  8
3_ANYTOOL_CUTTHROUGH_INSID
 10
2183.750000
 20
167.544253
 30
0.000000
  0
VERTEX
  8
3_ANYTOOL_CUTTHROUGH_INSID
 10
2223.750000
 20
167.544253
 30
0.000000
 42
1.000000
  0
VERTEX
  8
3_ANYTOOL_CUTTHROUGH_INSID
 10
2223.750000
 20
177.044253
 30
0.000000
  0
VERTEX
  8
3_ANYTOOL_CUTTHROUGH_INSID
 10
2183.750000
 20
177.044253
 30
0.000000
 42
1.000000
  0
SEQEND
  8
3_ANYTOOL_CUTTHROUGH_INSID
  0
POLYLINE
  8
3_ANYTOOL_CUTTHROUGH_INSID
 66
1
 10
0.000000
 20
0.000000
 30
0.000000
 70
1
  0
VERTEX
  8
3_ANYTOOL_CUTTHROUGH_INSID
 10
1179.750000
 20
167.544253
 30
0.000000
  0
VERTEX
  8
3_ANYTOOL_CUTTHROUGH_INSID
 10
1219.750000
 20
167.544253
 30
0.000000
 42
1.000000
  0
VERTEX
  8
3_ANYTOOL_CUTTHROUGH_INSID
 10
1219.750000
 20
177.044253
 30
0.000000
  0
VERTEX
  8
3_ANYTOOL_CUTTHROUGH_INSID
 10
1179.750000
 20
177.044253
 30
0.000000
 42
1.000000
  0
SEQEND
  8
3_ANYTOOL_CUTTHROUGH_INSID
  0
POLYLINE
  8
3_ANYTOOL_CUTTHROUGH_INSID
 66
1
 10
0.000000
 20
0.000000
 30
0.000000
 70
1
  0
VERTEX
  8
3_ANYTOOL_CUTTHROUGH_INSID
 10
619.750000
 20
18.000000
 30
0.000000
  0
VERTEX
  8
3_ANYTOOL_CUTTHROUGH_INSID
 10
579.750000
 20
18.000000
 30
0.000000
 42
1.000000
  0
VERTEX
  8
3_ANYTOOL_CUTTHROUGH_INSID
 10
579.750000
 20
8.500000
 30
0.000000
  0
VERTEX
  8
3_ANYTOOL_CUTTHROUGH_INSID
 10
619.750000
 20
8.500000
 30
0.000000
 42
1.000000
  0
SEQEND
  8
3_ANYTOOL_CUTTHROUGH_INSID
  0
POLYLINE
  8
3_ANYTOOL_CUTTHROUGH_INSID
 66
1
 10
0.000000
 20
0.000000
 30
0.000000
 70
1
  0
VERTEX
  8
3_ANYTOOL_CUTTHROUGH_INSID
 10
1023.750000
 20
18.044253
 30
0.000000
  0
VERTEX
  8
3_ANYTOOL_CUTTHROUGH_INSID
 10
983.750000
 20
18.044253
 30
0.000000
 42
1.000000
  0
VERTEX
  8
3_ANYTOOL_CUTTHROUGH_INSID
 10
983.750000
 20
8.544253
 30
0.000000
  0
VERTEX
  8
3_ANYTOOL_CUTTHROUGH_INSID
 10
1023.750000
 20
8.544253
 30
0.000000
 42
1.000000
  0
SEQEND
  8
3_ANYTOOL_CUTTHROUGH_INSID
  0
POLYLINE
  8
3_ANYTOOL_CUTTHROUGH_INSID
 66
1
 10
0.000000
 20
0.000000
 30
0.000000
 70
1
  0
VERTEX
  8
3_ANYTOOL_CUTTHROUGH_INSID
 10
815.750000
 20
18.044253
 30
0.000000
  0
VERTEX
  8
3_ANYTOOL_CUTTHROUGH_INSID
 10
775.750000
 20
18.044253
 30
0.000000
 42
1.000000
  0
VERTEX
  8
3_ANYTOOL_CUTTHROUGH_INSID
 10
775.750000
 20
8.544253
 30
0.000000
  0
VERTEX
  8
3_ANYTOOL_CUTTHROUGH_INSID
 10
815.750000
 20
8.544253
 30
0.000000
 42
1.000000
  0
SEQEND
  8
3_ANYTOOL_CUTTHROUGH_INSID
  0
POLYLINE
  8
3_ANYTOOL_CUTTHROUGH_INSID
 66
1
 10
0.000000
 20
0.000000
 30
0.000000
 70
1
  0
VERTEX
  8
3_ANYTOOL_CUTTHROUGH_INSID
 10
423.750000
 20
18.044253
 30
0.000000
  0
VERTEX
  8
3_ANYTOOL_CUTTHROUGH_INSID
 10
383.750000
 20
18.044253
 30
0.000000
 42
1.000000
  0
VERTEX
  8
3_ANYTOOL_CUTTHROUGH_INSID
 10
383.750000
 20
8.544253
 30
0.000000
  0
VERTEX
  8
3_ANYTOOL_CUTTHROUGH_INSID
 10
423.750000
 20
8.544253
 30
0.000000
 42
1.000000
  0
SEQEND
  8
3_ANYTOOL_CUTTHROUGH_INSID
  0
POLYLINE
  8
3_ANYTOOL_CUTTHROUGH_INSID
 66
1
 10
0.000000
 20
0.000000
 30
0.000000
 70
1
  0
VERTEX
  8
3_ANYTOOL_CUTTHROUGH_INSID
 10
215.750000
 20
18.044253
 30
0.000000
  0
VERTEX
  8
3_ANYTOOL_CUTTHROUGH_INSID
 10
175.750000
 20
18.044253
 30
0.000000
 42
1.000000
  0
VERTEX
  8
3_ANYTOOL_CUTTHROUGH_INSID
 10
175.750000
 20
8.544253
 30
0.000000
  0
VERTEX
  8
3_ANYTOOL_CUTTHROUGH_INSID
 10
215.750000
 20
8.544253
 30
0.000000
 42
1.000000
  0
SEQEND
  8
3_ANYTOOL_CUTTHROUGH_INSID
  0
POLYLINE
  8
3_ANYTOOL_CUTTHROUGH_INSID
 66
1
 10
0.000000
 20
0.000000
 30
0.000000
 70
1
  0
VERTEX
  8
3_ANYTOOL_CUTTHROUGH_INSID
 10
1779.750000
 20
18.000000
 30
0.000000
 42
1.000000
  0
VERTEX
  8
3_ANYTOOL_CUTTHROUGH_INSID
 10
1779.750000
 20
8.500000
 30
0.000000
  0
VERTEX
  8
3_ANYTOOL_CUTTHROUGH_INSID
 10
1819.750000
 20
8.500000
 30
0.000000
 42
1.000000
  0
VERTEX
  8
3_ANYTOOL_CUTTHROUGH_INSID
 10
1819.750000
 20
18.000000
 30
0.000000
  0
SEQEND
  8
3_ANYTOOL_CUTTHROUGH_INSID
  0
POLYLINE
  8
3_ANYTOOL_CUTTHROUGH_INSID
 66
1
 10
0.000000
 20
0.000000
 30
0.000000
 70
1
  0
VERTEX
  8
3_ANYTOOL_CUTTHROUGH_INSID
 10
1375.750000
 20
18.044253
 30
0.000000
 42
1.000000
  0
VERTEX
  8
3_ANYTOOL_CUTTHROUGH_INSID
 10
1375.750000
 20
8.544253
 30
0.000000
  0
VERTEX
  8
3_ANYTOOL_CUTTHROUGH_INSID
 10
1415.750000
 20
8.544253
 30
0.000000
 42
1.000000
  0
VERTEX
  8
3_ANYTOOL_CUTTHROUGH_INSID
 10
1415.750000
 20
18.044253
 30
0.000000
  0
SEQEND
  8
3_ANYTOOL_CUTTHROUGH_INSID
  0
POLYLINE
  8
3_ANYTOOL_CUTTHROUGH_INSID
 66
1
 10
0.000000
 20
0.000000
 30
0.000000
 70
1
  0
VERTEX
  8
3_ANYTOOL_CUTTHROUGH_INSID
 10
1583.750000
 20
18.044253
 30
0.000000
 42
1.000000
  0
VERTEX
  8
3_ANYTOOL_CUTTHROUGH_INSID
 10
1583.750000
 20
8.544253
 30
0.000000
  0
VERTEX
  8
3_ANYTOOL_CUTTHROUGH_INSID
 10
1623.750000
 20
8.544253
 30
0.000000
 42
1.000000
  0
VERTEX
  8
3_ANYTOOL_CUTTHROUGH_INSID
 10
1623.750000
 20
18.044253
 30
0.000000
  0
SEQEND
  8
3_ANYTOOL_CUTTHROUGH_INSID
  0
POLYLINE
  8
3_ANYTOOL_CUTTHROUGH_INSID
 66
1
 10
0.000000
 20
0.000000
 30
0.000000
 70
1
  0
VERTEX
  8
3_ANYTOOL_CUTTHROUGH_INSID
 10
1975.750000
 20
18.044253
 30
0.000000
 42
1.000000
  0
VERTEX
  8
3_ANYTOOL_CUTTHROUGH_INSID
 10
1975.750000
 20
8.544253
 30
0.000000
  0
VERTEX
  8
3_ANYTOOL_CUTTHROUGH_INSID
 10
2015.750000
 20
8.544253
 30
0.000000
 42
1.000000
  0
VERTEX
  8
3_ANYTOOL_CUTTHROUGH_INSID
 10
2015.750000
 20
18.044253
 30
0.000000
  0
SEQEND
  8
3_ANYTOOL_CUTTHROUGH_INSID
  0
POLYLINE
  8
3_ANYTOOL_CUTTHROUGH_INSID
 66
1
 10
0.000000
 20
0.000000
 30
0.000000
 70
1
  0
VERTEX
  8
3_ANYTOOL_CUTTHROUGH_INSID
 10
2183.750000
 20
18.044253
 30
0.000000
 42
1.000000
  0
VERTEX
  8
3_ANYTOOL_CUTTHROUGH_INSID
 10
2183.750000
 20
8.544253
 30
0.000000
  0
VERTEX
  8
3_ANYTOOL_CUTTHROUGH_INSID
 10
2223.750000
 20
8.544253
 30
0.000000
 42
1.000000
  0
VERTEX
  8
3_ANYTOOL_CUTTHROUGH_INSID
 10
2223.750000
 20
18.044253
 30
0.000000
  0
SEQEND
  8
3_ANYTOOL_CUTTHROUGH_INSID
  0
POLYLINE
  8
3_ANYTOOL_CUTTHROUGH_INSID
 66
1
 10
0.000000
 20
0.000000
 30
0.000000
 70
1
  0
VERTEX
  8
3_ANYTOOL_CUTTHROUGH_INSID
 10
1179.750000
 20
18.044253
 30
0.000000
 42
1.000000
  0
VERTEX
  8
3_ANYTOOL_CUTTHROUGH_INSID
 10
1179.750000
 20
8.544253
 30
0.000000
  0
VERTEX
  8
3_ANYTOOL_CUTTHROUGH_INSID
 10
1219.750000
 20
8.544253
 30
0.000000
 42
1.000000
  0
VERTEX
  8
3_ANYTOOL_CUTTHROUGH_INSID
 10
1219.750000
 20
18.044253
 30
0.000000
  0
SEQEND
  8
3_ANYTOOL_CUTTHROUGH_INSID
  0
POLYLINE
  8
3_ANYTOOL_CUTTHROUGH_INSID
 66
1
 10
0.000000
 20
0.000000
 30
0.000000
 70
1
  0
VERTEX
  8
3_ANYTOOL_CUTTHROUGH_INSID
 10
197.500000
 20
102.000253
 30
0.000000
  0
VERTEX
  8
3_ANYTOOL_CUTTHROUGH_INSID
 10
162.000000
 20
102.000253
 30
0.000000
  0
VERTEX
  8
3_ANYTOOL_CUTTHROUGH_INSID
 10
162.000000
 20
108.000253
 30
0.000000
  0
VERTEX
  8
3_ANYTOOL_CUTTHROUGH_INSID
 10
149.500000
 20
108.000253
 30
0.000000
  0
VERTEX
  8
3_ANYTOOL_CUTTHROUGH_INSID
 10
149.500000
 20
59.500253
 30
0.000000
  0
VERTEX
  8
3_ANYTOOL_CUTTHROUGH_INSID
 10
162.000000
 20
59.500253
 30
0.000000
  0
VERTEX
  8
3_ANYTOOL_CUTTHROUGH_INSID
 10
162.000000
 20
65.500253
 30
0.000000
  0
VERTEX
  8
3_ANYTOOL_CUTTHROUGH_INSID
 10
197.500000
 20
65.500253
 30
0.000000
  0
VERTEX
  8
3_ANYTOOL_CUTTHROUGH_INSID
 10
197.500000
 20
59.500253
 30
0.000000
  0
VERTEX
  8
3_ANYTOOL_CUTTHROUGH_INSID
 10
210.000000
 20
59.500253
 30
0.000000
  0
VERTEX
  8
3_ANYTOOL_CUTTHROUGH_INSID
 10
210.000000
 20
108.000253
 30
0.000000
  0
VERTEX
  8
3_ANYTOOL_CUTTHROUGH_INSID
 10
197.500000
 20
108.000253
 30
0.000000
  0
SEQEND
  8
3_ANYTOOL_CUTTHROUGH_INSID
  0
POLYLINE
  8
3_ANYTOOL_CUTTHROUGH_INSID
 66
1
 10
0.000000
 20
0.000000
 30
0.000000
 70
1
  0
VERTEX
  8
3_ANYTOOL_CUTTHROUGH_INSID
 10
317.500000
 20
102.000253
 30
0.000000
  0
VERTEX
  8
3_ANYTOOL_CUTTHROUGH_INSID
 10
282.000000
 20
102.000253
 30
0.000000
  0
VERTEX
  8
3_ANYTOOL_CUTTHROUGH_INSID
 10
282.000000
 20
108.000253
 30
0.000000
  0
VERTEX
  8
3_ANYTOOL_CUTTHROUGH_INSID
 10
269.500000
 20
108.000253
 30
0.000000
  0
VERTEX
  8
3_ANYTOOL_CUTTHROUGH_INSID
 10
269.500000
 20
59.500253
 30
0.000000
  0
VERTEX
  8
3_ANYTOOL_CUTTHROUGH_INSID
 10
282.000000
 20
59.500253
 30
0.000000
  0
VERTEX
  8
3_ANYTOOL_CUTTHROUGH_INSID
 10
282.000000
 20
65.500253
 30
0.000000
  0
VERTEX
  8
3_ANYTOOL_CUTTHROUGH_INSID
 10
317.500000
 20
65.500253
 30
0.000000
  0
VERTEX
  8
3_ANYTOOL_CUTTHROUGH_INSID
 10
317.500000
 20
59.500253
 30
0.000000
  0
VERTEX
  8
3_ANYTOOL_CUTTHROUGH_INSID
 10
330.000000
 20
59.500253
 30
0.000000
  0
VERTEX
  8
3_ANYTOOL_CUTTHROUGH_INSID
 10
330.000000
 20
108.000253
 30
0.000000
  0
VERTEX
  8
3_ANYTOOL_CUTTHROUGH_INSID
 10
317.500000
 20
108.000253
 30
0.000000
  0
SEQEND
  8
3_ANYTOOL_CUTTHROUGH_INSID
  0
POLYLINE
  8
3_ANYTOOL_CUTTHROUGH_INSID
 66
1
 10
0.000000
 20
0.000000
 30
0.000000
 70
1
  0
VERTEX
  8
3_ANYTOOL_CUTTHROUGH_INSID
 10
437.500000
 20
102.000253
 30
0.000000
  0
VERTEX
  8
3_ANYTOOL_CUTTHROUGH_INSID
 10
402.000000
 20
102.000253
 30
0.000000
  0
VERTEX
  8
3_ANYTOOL_CUTTHROUGH_INSID
 10
402.000000
 20
108.000253
 30
0.000000
  0
VERTEX
  8
3_ANYTOOL_CUTTHROUGH_INSID
 10
389.500000
 20
108.000253
 30
0.000000
  0
VERTEX
  8
3_ANYTOOL_CUTTHROUGH_INSID
 10
389.500000
 20
59.500253
 30
0.000000
  0
VERTEX
  8
3_ANYTOOL_CUTTHROUGH_INSID
 10
402.000000
 20
59.500253
 30
0.000000
  0
VERTEX
  8
3_ANYTOOL_CUTTHROUGH_INSID
 10
402.000000
 20
65.500253
 30
0.000000
  0
VERTEX
  8
3_ANYTOOL_CUTTHROUGH_INSID
 10
437.500000
 20
65.500253
 30
0.000000
  0
VERTEX
  8
3_ANYTOOL_CUTTHROUGH_INSID
 10
437.500000
 20
59.500253
 30
0.000000
  0
VERTEX
  8
3_ANYTOOL_CUTTHROUGH_INSID
 10
450.000000
 20
59.500253
 30
0.000000
  0
VERTEX
  8
3_ANYTOOL_CUTTHROUGH_INSID
 10
450.000000
 20
108.000253
 30
0.000000
  0
VERTEX
  8
3_ANYTOOL_CUTTHROUGH_INSID
 10
437.500000
 20
108.000253
 30
0.000000
  0
SEQEND
  8
3_ANYTOOL_CUTTHROUGH_INSID
  0
POLYLINE
  8
3_ANYTOOL_CUTTHROUGH_INSID
 66
1
 10
0.000000
 20
0.000000
 30
0.000000
 70
1
  0
VERTEX
  8
3_ANYTOOL_CUTTHROUGH_INSID
 10
557.500000
 20
102.000253
 30
0.000000
  0
VERTEX
  8
3_ANYTOOL_CUTTHROUGH_INSID
 10
522.000000
 20
102.000253
 30
0.000000
  0
VERTEX
  8
3_ANYTOOL_CUTTHROUGH_INSID
 10
522.000000
 20
108.000253
 30
0.000000
  0
VERTEX
  8
3_ANYTOOL_CUTTHROUGH_INSID
 10
509.500000
 20
108.000253
 30
0.000000
  0
VERTEX
  8
3_ANYTOOL_CUTTHROUGH_INSID
 10
509.500000
 20
59.500253
 30
0.000000
  0
VERTEX
  8
3_ANYTOOL_CUTTHROUGH_INSID
 10
522.000000
 20
59.500253
 30
0.000000
  0
VERTEX
  8
3_ANYTOOL_CUTTHROUGH_INSID
 10
522.000000
 20
65.500253
 30
0.000000
  0
VERTEX
  8
3_ANYTOOL_CUTTHROUGH_INSID
 10
557.500000
 20
65.500253
 30
0.000000
  0
VERTEX
  8
3_ANYTOOL_CUTTHROUGH_INSID
 10
557.500000
 20
59.500253
 30
0.000000
  0
VERTEX
  8
3_ANYTOOL_CUTTHROUGH_INSID
 10
570.000000
 20
59.500253
 30
0.000000
  0
VERTEX
  8
3_ANYTOOL_CUTTHROUGH_INSID
 10
570.000000
 20
108.000253
 30
0.000000
  0
VERTEX
  8
3_ANYTOOL_CUTTHROUGH_INSID
 10
557.500000
 20
108.000253
 30
0.000000
  0
SEQEND
  8
3_ANYTOOL_CUTTHROUGH_INSID
  0
POLYLINE
  8
3_ANYTOOL_CUTTHROUGH_INSID
 66
1
 10
0.000000
 20
0.000000
 30
0.000000
 70
1
  0
VERTEX
  8
3_ANYTOOL_CUTTHROUGH_INSID
 10
677.500000
 20
102.000253
 30
0.000000
  0
VERTEX
  8
3_ANYTOOL_CUTTHROUGH_INSID
 10
642.000000
 20
102.000253
 30
0.000000
  0
VERTEX
  8
3_ANYTOOL_CUTTHROUGH_INSID
 10
642.000000
 20
108.000253
 30
0.000000
  0
VERTEX
  8
3_ANYTOOL_CUTTHROUGH_INSID
 10
629.500000
 20
108.000253
 30
0.000000
  0
VERTEX
  8
3_ANYTOOL_CUTTHROUGH_INSID
 10
629.500000
 20
59.500253
 30
0.000000
  0
VERTEX
  8
3_ANYTOOL_CUTTHROUGH_INSID
 10
642.000000
 20
59.500253
 30
0.000000
  0
VERTEX
  8
3_ANYTOOL_CUTTHROUGH_INSID
 10
642.000000
 20
65.500253
 30
0.000000
  0
VERTEX
  8
3_ANYTOOL_CUTTHROUGH_INSID
 10
677.500000
 20
65.500253
 30
0.000000
  0
VERTEX
  8
3_ANYTOOL_CUTTHROUGH_INSID
 10
677.500000
 20
59.500253
 30
0.000000
  0
VERTEX
  8
3_ANYTOOL_CUTTHROUGH_INSID
 10
690.000000
 20
59.500253
 30
0.000000
  0
VERTEX
  8
3_ANYTOOL_CUTTHROUGH_INSID
 10
690.000000
 20
108.000253
 30
0.000000
  0
VERTEX
  8
3_ANYTOOL_CUTTHROUGH_INSID
 10
677.500000
 20
108.000253
 30
0.000000
  0
SEQEND
  8
3_ANYTOOL_CUTTHROUGH_INSID
  0
POLYLINE
  8
3_ANYTOOL_CUTTHROUGH_INSID
 66
1
 10
0.000000
 20
0.000000
 30
0.000000
 70
1
  0
VERTEX
  8
3_ANYTOOL_CUTTHROUGH_INSID
 10
797.500000
 20
102.000253
 30
0.000000
  0
VERTEX
  8
3_ANYTOOL_CUTTHROUGH_INSID
 10
762.000000
 20
102.000253
 30
0.000000
  0
VERTEX
  8
3_ANYTOOL_CUTTHROUGH_INSID
 10
762.000000
 20
108.000253
 30
0.000000
  0
VERTEX
  8
3_ANYTOOL_CUTTHROUGH_INSID
 10
749.500000
 20
108.000253
 30
0.000000
  0
VERTEX
  8
3_ANYTOOL_CUTTHROUGH_INSID
 10
749.500000
 20
59.500253
 30
0.000000
  0
VERTEX
  8
3_ANYTOOL_CUTTHROUGH_INSID
 10
762.000000
 20
59.500253
 30
0.000000
  0
VERTEX
  8
3_ANYTOOL_CUTTHROUGH_INSID
 10
762.000000
 20
65.500253
 30
0.000000
  0
VERTEX
  8
3_ANYTOOL_CUTTHROUGH_INSID
 10
797.500000
 20
65.500253
 30
0.000000
  0
VERTEX
  8
3_ANYTOOL_CUTTHROUGH_INSID
 10
797.500000
 20
59.500253
 30
0.000000
  0
VERTEX
  8
3_ANYTOOL_CUTTHROUGH_INSID
 10
810.000000
 20
59.500253
 30
0.000000
  0
VERTEX
  8
3_ANYTOOL_CUTTHROUGH_INSID
 10
810.000000
 20
108.000253
 30
0.000000
  0
VERTEX
  8
3_ANYTOOL_CUTTHROUGH_INSID
 10
797.500000
 20
108.000253
 30
0.000000
  0
SEQEND
  8
3_ANYTOOL_CUTTHROUGH_INSID
  0
POLYLINE
  8
3_ANYTOOL_CUTTHROUGH_INSID
 66
1
 10
0.000000
 20
0.000000
 30
0.000000
 70
1
  0
VERTEX
  8
3_ANYTOOL_CUTTHROUGH_INSID
 10
917.500000
 20
102.000253
 30
0.000000
  0
VERTEX
  8
3_ANYTOOL_CUTTHROUGH_INSID
 10
882.000000
 20
102.000253
 30
0.000000
  0
VERTEX
  8
3_ANYTOOL_CUTTHROUGH_INSID
 10
882.000000
 20
108.000253
 30
0.000000
  0
VERTEX
  8
3_ANYTOOL_CUTTHROUGH_INSID
 10
869.500000
 20
108.000253
 30
0.000000
  0
VERTEX
  8
3_ANYTOOL_CUTTHROUGH_INSID
 10
869.500000
 20
59.500253
 30
0.000000
  0
VERTEX
  8
3_ANYTOOL_CUTTHROUGH_INSID
 10
882.000000
 20
59.500253
 30
0.000000
  0
VERTEX
  8
3_ANYTOOL_CUTTHROUGH_INSID
 10
882.000000
 20
65.500253
 30
0.000000
  0
VERTEX
  8
3_ANYTOOL_CUTTHROUGH_INSID
 10
917.500000
 20
65.500253
 30
0.000000
  0
VERTEX
  8
3_ANYTOOL_CUTTHROUGH_INSID
 10
917.500000
 20
59.500253
 30
0.000000
  0
VERTEX
  8
3_ANYTOOL_CUTTHROUGH_INSID
 10
930.000000
 20
59.500253
 30
0.000000
  0
VERTEX
  8
3_ANYTOOL_CUTTHROUGH_INSID
 10
930.000000
 20
108.000253
 30
0.000000
  0
VERTEX
  8
3_ANYTOOL_CUTTHROUGH_INSID
 10
917.500000
 20
108.000253
 30
0.000000
  0
SEQEND
  8
3_ANYTOOL_CUTTHROUGH_INSID
  0
POLYLINE
  8
3_ANYTOOL_CUTTHROUGH_INSID
 66
1
 10
0.000000
 20
0.000000
 30
0.000000
 70
1
  0
VERTEX
  8
3_ANYTOOL_CUTTHROUGH_INSID
 10
1037.500000
 20
102.000253
 30
0.000000
  0
VERTEX
  8
3_ANYTOOL_CUTTHROUGH_INSID
 10
1002.000000
 20
102.000253
 30
0.000000
  0
VERTEX
  8
3_ANYTOOL_CUTTHROUGH_INSID
 10
1002.000000
 20
108.000253
 30
0.000000
  0
VERTEX
  8
3_ANYTOOL_CUTTHROUGH_INSID
 10
989.500000
 20
108.000253
 30
0.000000
  0
VERTEX
  8
3_ANYTOOL_CUTTHROUGH_INSID
 10
989.500000
 20
59.500253
 30
0.000000
  0
VERTEX
  8
3_ANYTOOL_CUTTHROUGH_INSID
 10
1002.000000
 20
59.500253
 30
0.000000
  0
VERTEX
  8
3_ANYTOOL_CUTTHROUGH_INSID
 10
1002.000000
 20
65.500253
 30
0.000000
  0
VERTEX
  8
3_ANYTOOL_CUTTHROUGH_INSID
 10
1037.500000
 20
65.500253
 30
0.000000
  0
VERTEX
  8
3_ANYTOOL_CUTTHROUGH_INSID
 10
1037.500000
 20
59.500253
 30
0.000000
  0
VERTEX
  8
3_ANYTOOL_CUTTHROUGH_INSID
 10
1050.000000
 20
59.500253
 30
0.000000
  0
VERTEX
  8
3_ANYTOOL_CUTTHROUGH_INSID
 10
1050.000000
 20
108.000253
 30
0.000000
  0
VERTEX
  8
3_ANYTOOL_CUTTHROUGH_INSID
 10
1037.500000
 20
108.000253
 30
0.000000
  0
SEQEND
  8
3_ANYTOOL_CUTTHROUGH_INSID
  0
POLYLINE
  8
3_ANYTOOL_CUTTHROUGH_INSID
 66
1
 10
0.000000
 20
0.000000
 30
0.000000
 70
1
  0
VERTEX
  8
3_ANYTOOL_CUTTHROUGH_INSID
 10
2202.000000
 20
102.000253
 30
0.000000
  0
VERTEX
  8
3_ANYTOOL_CUTTHROUGH_INSID
 10
2202.000000
 20
108.000253
 30
0.000000
  0
VERTEX
  8
3_ANYTOOL_CUTTHROUGH_INSID
 10
2189.500000
 20
108.000253
 30
0.000000
  0
VERTEX
  8
3_ANYTOOL_CUTTHROUGH_INSID
 10
2189.500000
 20
59.500253
 30
0.000000
  0
VERTEX
  8
3_ANYTOOL_CUTTHROUGH_INSID
 10
2202.000000
 20
59.500253
 30
0.000000
  0
VERTEX
  8
3_ANYTOOL_CUTTHROUGH_INSID
 10
2202.000000
 20
65.500253
 30
0.000000
  0
VERTEX
  8
3_ANYTOOL_CUTTHROUGH_INSID
 10
2237.500000
 20
65.500253
 30
0.000000
  0
VERTEX
  8
3_ANYTOOL_CUTTHROUGH_INSID
 10
2237.500000
 20
59.500253
 30
0.000000
  0
VERTEX
  8
3_ANYTOOL_CUTTHROUGH_INSID
 10
2250.000000
 20
59.500253
 30
0.000000
  0
VERTEX
  8
3_ANYTOOL_CUTTHROUGH_INSID
 10
2250.000000
 20
108.000253
 30
0.000000
  0
VERTEX
  8
3_ANYTOOL_CUTTHROUGH_INSID
 10
2237.500000
 20
108.000253
 30
0.000000
  0
VERTEX
  8
3_ANYTOOL_CUTTHROUGH_INSID
 10
2237.500000
 20
102.000253
 30
0.000000
  0
SEQEND
  8
3_ANYTOOL_CUTTHROUGH_INSID
  0
POLYLINE
  8
3_ANYTOOL_CUTTHROUGH_INSID
 66
1
 10
0.000000
 20
0.000000
 30
0.000000
 70
1
  0
VERTEX
  8
3_ANYTOOL_CUTTHROUGH_INSID
 10
2082.000000
 20
102.000253
 30
0.000000
  0
VERTEX
  8
3_ANYTOOL_CUTTHROUGH_INSID
 10
2082.000000
 20
108.000253
 30
0.000000
  0
VERTEX
  8
3_ANYTOOL_CUTTHROUGH_INSID
 10
2069.500000
 20
108.000253
 30
0.000000
  0
VERTEX
  8
3_ANYTOOL_CUTTHROUGH_INSID
 10
2069.500000
 20
59.500253
 30
0.000000
  0
VERTEX
  8
3_ANYTOOL_CUTTHROUGH_INSID
 10
2082.000000
 20
59.500253
 30
0.000000
  0
VERTEX
  8
3_ANYTOOL_CUTTHROUGH_INSID
 10
2082.000000
 20
65.500253
 30
0.000000
  0
VERTEX
  8
3_ANYTOOL_CUTTHROUGH_INSID
 10
2117.500000
 20
65.500253
 30
0.000000
  0
VERTEX
  8
3_ANYTOOL_CUTTHROUGH_INSID
 10
2117.500000
 20
59.500253
 30
0.000000
  0
VERTEX
  8
3_ANYTOOL_CUTTHROUGH_INSID
 10
2130.000000
 20
59.500253
 30
0.000000
  0
VERTEX
  8
3_ANYTOOL_CUTTHROUGH_INSID
 10
2130.000000
 20
108.000253
 30
0.000000
  0
VERTEX
  8
3_ANYTOOL_CUTTHROUGH_INSID
 10
2117.500000
 20
108.000253
 30
0.000000
  0
VERTEX
  8
3_ANYTOOL_CUTTHROUGH_INSID
 10
2117.500000
 20
102.000253
 30
0.000000
  0
SEQEND
  8
3_ANYTOOL_CUTTHROUGH_INSID
  0
POLYLINE
  8
3_ANYTOOL_CUTTHROUGH_INSID
 66
1
 10
0.000000
 20
0.000000
 30
0.000000
 70
1
  0
VERTEX
  8
3_ANYTOOL_CUTTHROUGH_INSID
 10
1962.000000
 20
102.000253
 30
0.000000
  0
VERTEX
  8
3_ANYTOOL_CUTTHROUGH_INSID
 10
1962.000000
 20
108.000253
 30
0.000000
  0
VERTEX
  8
3_ANYTOOL_CUTTHROUGH_INSID
 10
1949.500000
 20
108.000253
 30
0.000000
  0
VERTEX
  8
3_ANYTOOL_CUTTHROUGH_INSID
 10
1949.500000
 20
59.500253
 30
0.000000
  0
VERTEX
  8
3_ANYTOOL_CUTTHROUGH_INSID
 10
1962.000000
 20
59.500253
 30
0.000000
  0
VERTEX
  8
3_ANYTOOL_CUTTHROUGH_INSID
 10
1962.000000
 20
65.500253
 30
0.000000
  0
VERTEX
  8
3_ANYTOOL_CUTTHROUGH_INSID
 10
1997.500000
 20
65.500253
 30
0.000000
  0
VERTEX
  8
3_ANYTOOL_CUTTHROUGH_INSID
 10
1997.500000
 20
59.500253
 30
0.000000
  0
VERTEX
  8
3_ANYTOOL_CUTTHROUGH_INSID
 10
2010.000000
 20
59.500253
 30
0.000000
  0
VERTEX
  8
3_ANYTOOL_CUTTHROUGH_INSID
 10
2010.000000
 20
108.000253
 30
0.000000
  0
VERTEX
  8
3_ANYTOOL_CUTTHROUGH_INSID
 10
1997.500000
 20
108.000253
 30
0.000000
  0
VERTEX
  8
3_ANYTOOL_CUTTHROUGH_INSID
 10
1997.500000
 20
102.000253
 30
0.000000
  0
SEQEND
  8
3_ANYTOOL_CUTTHROUGH_INSID
  0
POLYLINE
  8
3_ANYTOOL_CUTTHROUGH_INSID
 66
1
 10
0.000000
 20
0.000000
 30
0.000000
 70
1
  0
VERTEX
  8
3_ANYTOOL_CUTTHROUGH_INSID
 10
1842.000000
 20
102.000253
 30
0.000000
  0
VERTEX
  8
3_ANYTOOL_CUTTHROUGH_INSID
 10
1842.000000
 20
108.000253
 30
0.000000
  0
VERTEX
  8
3_ANYTOOL_CUTTHROUGH_INSID
 10
1829.500000
 20
108.000253
 30
0.000000
  0
VERTEX
  8
3_ANYTOOL_CUTTHROUGH_INSID
 10
1829.500000
 20
59.500253
 30
0.000000
  0
VERTEX
  8
3_ANYTOOL_CUTTHROUGH_INSID
 10
1842.000000
 20
59.500253
 30
0.000000
  0
VERTEX
  8
3_ANYTOOL_CUTTHROUGH_INSID
 10
1842.000000
 20
65.500253
 30
0.000000
  0
VERTEX
  8
3_ANYTOOL_CUTTHROUGH_INSID
 10
1877.500000
 20
65.500253
 30
0.000000
  0
VERTEX
  8
3_ANYTOOL_CUTTHROUGH_INSID
 10
1877.500000
 20
59.500253
 30
0.000000
  0
VERTEX
  8
3_ANYTOOL_CUTTHROUGH_INSID
 10
1890.000000
 20
59.500253
 30
0.000000
  0
VERTEX
  8
3_ANYTOOL_CUTTHROUGH_INSID
 10
1890.000000
 20
108.000253
 30
0.000000
  0
VERTEX
  8
3_ANYTOOL_CUTTHROUGH_INSID
 10
1877.500000
 20
108.000253
 30
0.000000
  0
VERTEX
  8
3_ANYTOOL_CUTTHROUGH_INSID
 10
1877.500000
 20
102.000253
 30
0.000000
  0
SEQEND
  8
3_ANYTOOL_CUTTHROUGH_INSID
  0
POLYLINE
  8
3_ANYTOOL_CUTTHROUGH_INSID
 66
1
 10
0.000000
 20
0.000000
 30
0.000000
 70
1
  0
VERTEX
  8
3_ANYTOOL_CUTTHROUGH_INSID
 10
1722.000000
 20
102.000253
 30
0.000000
  0
VERTEX
  8
3_ANYTOOL_CUTTHROUGH_INSID
 10
1722.000000
 20
108.000253
 30
0.000000
  0
VERTEX
  8
3_ANYTOOL_CUTTHROUGH_INSID
 10
1709.500000
 20
108.000253
 30
0.000000
  0
VERTEX
  8
3_ANYTOOL_CUTTHROUGH_INSID
 10
1709.500000
 20
59.500253
 30
0.000000
  0
VERTEX
  8
3_ANYTOOL_CUTTHROUGH_INSID
 10
1722.000000
 20
59.500253
 30
0.000000
  0
VERTEX
  8
3_ANYTOOL_CUTTHROUGH_INSID
 10
1722.000000
 20
65.500253
 30
0.000000
  0
VERTEX
  8
3_ANYTOOL_CUTTHROUGH_INSID
 10
1757.500000
 20
65.500253
 30
0.000000
  0
VERTEX
  8
3_ANYTOOL_CUTTHROUGH_INSID
 10
1757.500000
 20
59.500253
 30
0.000000
  0
VERTEX
  8
3_ANYTOOL_CUTTHROUGH_INSID
 10
1770.000000
 20
59.500253
 30
0.000000
  0
VERTEX
  8
3_ANYTOOL_CUTTHROUGH_INSID
 10
1770.000000
 20
108.000253
 30
0.000000
  0
VERTEX
  8
3_ANYTOOL_CUTTHROUGH_INSID
 10
1757.500000
 20
108.000253
 30
0.000000
  0
VERTEX
  8
3_ANYTOOL_CUTTHROUGH_INSID
 10
1757.500000
 20
102.000253
 30
0.000000
  0
SEQEND
  8
3_ANYTOOL_CUTTHROUGH_INSID
  0
POLYLINE
  8
3_ANYTOOL_CUTTHROUGH_INSID
 66
1
 10
0.000000
 20
0.000000
 30
0.000000
 70
1
  0
VERTEX
  8
3_ANYTOOL_CUTTHROUGH_INSID
 10
1602.000000
 20
102.000253
 30
0.000000
  0
VERTEX
  8
3_ANYTOOL_CUTTHROUGH_INSID
 10
1602.000000
 20
108.000253
 30
0.000000
  0
VERTEX
  8
3_ANYTOOL_CUTTHROUGH_INSID
 10
1589.500000
 20
108.000253
 30
0.000000
  0
VERTEX
  8
3_ANYTOOL_CUTTHROUGH_INSID
 10
1589.500000
 20
59.500253
 30
0.000000
  0
VERTEX
  8
3_ANYTOOL_CUTTHROUGH_INSID
 10
1602.000000
 20
59.500253
 30
0.000000
  0
VERTEX
  8
3_ANYTOOL_CUTTHROUGH_INSID
 10
1602.000000
 20
65.500253
 30
0.000000
  0
VERTEX
  8
3_ANYTOOL_CUTTHROUGH_INSID
 10
1637.500000
 20
65.500253
 30
0.000000
  0
VERTEX
  8
3_ANYTOOL_CUTTHROUGH_INSID
 10
1637.500000
 20
59.500253
 30
0.000000
  0
VERTEX
  8
3_ANYTOOL_CUTTHROUGH_INSID
 10
1650.000000
 20
59.500253
 30
0.000000
  0
VERTEX
  8
3_ANYTOOL_CUTTHROUGH_INSID
 10
1650.000000
 20
108.000253
 30
0.000000
  0
VERTEX
  8
3_ANYTOOL_CUTTHROUGH_INSID
 10
1637.500000
 20
108.000253
 30
0.000000
  0
VERTEX
  8
3_ANYTOOL_CUTTHROUGH_INSID
 10
1637.500000
 20
102.000253
 30
0.000000
  0
SEQEND
  8
3_ANYTOOL_CUTTHROUGH_INSID
  0
POLYLINE
  8
3_ANYTOOL_CUTTHROUGH_INSID
 66
1
 10
0.000000
 20
0.000000
 30
0.000000
 70
1
  0
VERTEX
  8
3_ANYTOOL_CUTTHROUGH_INSID
 10
1482.000000
 20
102.000253
 30
0.000000
  0
VERTEX
  8
3_ANYTOOL_CUTTHROUGH_INSID
 10
1482.000000
 20
108.000253
 30
0.000000
  0
VERTEX
  8
3_ANYTOOL_CUTTHROUGH_INSID
 10
1469.500000
 20
108.000253
 30
0.000000
  0
VERTEX
  8
3_ANYTOOL_CUTTHROUGH_INSID
 10
1469.500000
 20
59.500253
 30
0.000000
  0
VERTEX
  8
3_ANYTOOL_CUTTHROUGH_INSID
 10
1482.000000
 20
59.500253
 30
0.000000
  0
VERTEX
  8
3_ANYTOOL_CUTTHROUGH_INSID
 10
1482.000000
 20
65.500253
 30
0.000000
  0
VERTEX
  8
3_ANYTOOL_CUTTHROUGH_INSID
 10
1517.500000
 20
65.500253
 30
0.000000
  0
VERTEX
  8
3_ANYTOOL_CUTTHROUGH_INSID
 10
1517.500000
 20
59.500253
 30
0.000000
  0
VERTEX
  8
3_ANYTOOL_CUTTHROUGH_INSID
 10
1530.000000
 20
59.500253
 30
0.000000
  0
VERTEX
  8
3_ANYTOOL_CUTTHROUGH_INSID
 10
1530.000000
 20
108.000253
 30
0.000000
  0
VERTEX
  8
3_ANYTOOL_CUTTHROUGH_INSID
 10
1517.500000
 20
108.000253
 30
0.000000
  0
VERTEX
  8
3_ANYTOOL_CUTTHROUGH_INSID
 10
1517.500000
 20
102.000253
 30
0.000000
  0
SEQEND
  8
3_ANYTOOL_CUTTHROUGH_INSID
  0
POLYLINE
  8
3_ANYTOOL_CUTTHROUGH_INSID
 66
1
 10
0.000000
 20
0.000000
 30
0.000000
 70
1
  0
VERTEX
  8
3_ANYTOOL_CUTTHROUGH_INSID
 10
1362.000000
 20
102.000253
 30
0.000000
  0
VERTEX
  8
3_ANYTOOL_CUTTHROUGH_INSID
 10
1362.000000
 20
108.000253
 30
0.000000
  0
VERTEX
  8
3_ANYTOOL_CUTTHROUGH_INSID
 10
1349.500000
 20
108.000253
 30
0.000000
  0
VERTEX
  8
3_ANYTOOL_CUTTHROUGH_INSID
 10
1349.500000
 20
59.500253
 30
0.000000
  0
VERTEX
  8
3_ANYTOOL_CUTTHROUGH_INSID
 10
1362.000000
 20
59.500253
 30
0.000000
  0
VERTEX
  8
3_ANYTOOL_CUTTHROUGH_INSID
 10
1362.000000
 20
65.500253
 30
0.000000
  0
VERTEX
  8
3_ANYTOOL_CUTTHROUGH_INSID
 10
1397.500000
 20
65.500253
 30
0.000000
  0
VERTEX
  8
3_ANYTOOL_CUTTHROUGH_INSID
 10
1397.500000
 20
59.500253
 30
0.000000
  0
VERTEX
  8
3_ANYTOOL_CUTTHROUGH_INSID
 10
1410.000000
 20
59.500253
 30
0.000000
  0
VERTEX
  8
3_ANYTOOL_CUTTHROUGH_INSID
 10
1410.000000
 20
108.000253
 30
0.000000
  0
VERTEX
  8
3_ANYTOOL_CUTTHROUGH_INSID
 10
1397.500000
 20
108.000253
 30
0.000000
  0
VERTEX
  8
3_ANYTOOL_CUTTHROUGH_INSID
 10
1397.500000
 20
102.000253
 30
0.000000
  0
SEQEND
  8
3_ANYTOOL_CUTTHROUGH_INSID
  0
POLYLINE
  8
3_ANYTOOL_CUTTHROUGH_INSID
 66
1
 10
0.000000
 20
0.000000
 30
0.000000
 70
1
  0
VERTEX
  8
3_ANYTOOL_CUTTHROUGH_INSID
 10
1157.500000
 20
102.000253
 30
0.000000
  0
VERTEX
  8
3_ANYTOOL_CUTTHROUGH_INSID
 10
1122.000000
 20
102.000253
 30
0.000000
  0
VERTEX
  8
3_ANYTOOL_CUTTHROUGH_INSID
 10
1122.000000
 20
108.000253
 30
0.000000
  0
VERTEX
  8
3_ANYTOOL_CUTTHROUGH_INSID
 10
1109.500000
 20
108.000253
 30
0.000000
  0
VERTEX
  8
3_ANYTOOL_CUTTHROUGH_INSID
 10
1109.500000
 20
59.500253
 30
0.000000
  0
VERTEX
  8
3_ANYTOOL_CUTTHROUGH_INSID
 10
1122.000000
 20
59.500253
 30
0.000000
  0
VERTEX
  8
3_ANYTOOL_CUTTHROUGH_INSID
 10
1122.000000
 20
65.500253
 30
0.000000
  0
VERTEX
  8
3_ANYTOOL_CUTTHROUGH_INSID
 10
1157.500000
 20
65.500253
 30
0.000000
  0
VERTEX
  8
3_ANYTOOL_CUTTHROUGH_INSID
 10
1157.500000
 20
59.500253
 30
0.000000
  0
VERTEX
  8
3_ANYTOOL_CUTTHROUGH_INSID
 10
1170.000000
 20
59.500253
 30
0.000000
  0
VERTEX
  8
3_ANYTOOL_CUTTHROUGH_INSID
 10
1170.000000
 20
108.000253
 30
0.000000
  0
VERTEX
  8
3_ANYTOOL_CUTTHROUGH_INSID
 10
1157.500000
 20
108.000253
 30
0.000000
  0
SEQEND
  8
3_ANYTOOL_CUTTHROUGH_INSID
  0
POLYLINE
  8
3_ANYTOOL_CUTTHROUGH_INSID
 66
1
 10
0.000000
 20
0.000000
 30
0.000000
 70
1
  0
VERTEX
  8
3_ANYTOOL_CUTTHROUGH_INSID
 10
1242.000000
 20
102.000253
 30
0.000000
  0
VERTEX
  8
3_ANYTOOL_CUTTHROUGH_INSID
 10
1242.000000
 20
108.000253
 30
0.000000
  0
VERTEX
  8
3_ANYTOOL_CUTTHROUGH_INSID
 10
1229.500000
 20
108.000253
 30
0.000000
  0
VERTEX
  8
3_ANYTOOL_CUTTHROUGH_INSID
 10
1229.500000
 20
59.500253
 30
0.000000
  0
VERTEX
  8
3_ANYTOOL_CUTTHROUGH_INSID
 10
1242.000000
 20
59.500253
 30
0.000000
  0
VERTEX
  8
3_ANYTOOL_CUTTHROUGH_INSID
 10
1242.000000
 20
65.500253
 30
0.000000
  0
VERTEX
  8
3_ANYTOOL_CUTTHROUGH_INSID
 10
1277.500000
 20
65.500253
 30
0.000000
  0
VERTEX
  8
3_ANYTOOL_CUTTHROUGH_INSID
 10
1277.500000
 20
59.500253
 30
0.000000
  0
VERTEX
  8
3_ANYTOOL_CUTTHROUGH_INSID
 10
1290.000000
 20
59.500253
 30
0.000000
  0
VERTEX
  8
3_ANYTOOL_CUTTHROUGH_INSID
 10
1290.000000
 20
108.000253
 30
0.000000
  0
VERTEX
  8
3_ANYTOOL_CUTTHROUGH_INSID
 10
1277.500000
 20
108.000253
 30
0.000000
  0
VERTEX
  8
3_ANYTOOL_CUTTHROUGH_INSID
 10
1277.500000
 20
102.000253
 30
0.000000
  0
SEQEND
  8
3_ANYTOOL_CUTTHROUGH_INSID
  0
POLYLINE
  8
4_ANYTOOL_CUTTHROUGH_OUTSI
 66
1
 10
0.000000
 20
0.000000
 30
0.000000
 70
1
  0
VERTEX
  8
4_ANYTOOL_CUTTHROUGH_OUTSI
 10
1133.500000
 20
167.544253
 30
0.000000
  0
VERTEX
  8
4_ANYTOOL_CUTTHROUGH_OUTSI
 10
1070.000000
 20
167.544253
 30
0.000000
  0
VERTEX
  8
4_ANYTOOL_CUTTHROUGH_OUTSI
 10
1070.000000
 20
161.794253
 30
0.000000
 42
-0.414214
  0
VERTEX
  8
4_ANYTOOL_CUTTHROUGH_OUTSI
 10
1069.750000
 20
161.544253
 30
0.000000
  0
VERTEX
  8
4_ANYTOOL_CUTTHROUGH_OUTSI
 10
1057.750000
 20
161.544253
 30
0.000000
 42
-0.414214
  0
VERTEX
  8
4_ANYTOOL_CUTTHROUGH_OUTSI
 10
1057.500000
 20
161.794253
 30
0.000000
  0
VERTEX
  8
4_ANYTOOL_CUTTHROUGH_OUTSI
 10
1057.500000
 20
185.544253
 30
0.000000
  0
VERTEX
  8
4_ANYTOOL_CUTTHROUGH_OUTSI
 10
950.000000
 20
185.544253
 30
0.000000
  0
VERTEX
  8
4_ANYTOOL_CUTTHROUGH_OUTSI
 10
950.000000
 20
161.794253
 30
0.000000
 42
-0.414214
  0
VERTEX
  8
4_ANYTOOL_CUTTHROUGH_OUTSI
 10
949.750000
 20
161.544253
 30
0.000000
  0
VERTEX
  8
4_ANYTOOL_CUTTHROUGH_OUTSI
 10
937.750000
 20
161.544253
 30
0.000000
 42
-0.414214
  0
VERTEX
  8
4_ANYTOOL_CUTTHROUGH_OUTSI
 10
937.500000
 20
161.794253
 30
0.000000
  0
VERTEX
  8
4_ANYTOOL_CUTTHROUGH_OUTSI
 10
937.500000
 20
167.544253
 30
0.000000
  0
VERTEX
  8
4_ANYTOOL_CUTTHROUGH_OUTSI
 10
862.000000
 20
167.544253
 30
0.000000
  0
VERTEX
  8
4_ANYTOOL_CUTTHROUGH_OUTSI
 10
862.000000
 20
161.794253
 30
0.000000
 42
-0.414214
  0
VERTEX
  8
4_ANYTOOL_CUTTHROUGH_OUTSI
 10
861.750000
 20
161.544253
 30
0.000000
  0
VERTEX
  8
4_ANYTOOL_CUTTHROUGH_OUTSI
 10
849.750000
 20
161.544253
 30
0.000000
 42
-0.414214
  0
VERTEX
  8
4_ANYTOOL_CUTTHROUGH_OUTSI
 10
849.500000
 20
161.794253
 30
0.000000
  0
VERTEX
  8
4_ANYTOOL_CUTTHROUGH_OUTSI
 10
849.500000
 20
185.544253
 30
0.000000
  0
VERTEX
  8
4_ANYTOOL_CUTTHROUGH_OUTSI
 10
742.000000
 20
185.544253
 30
0.000000
  0
VERTEX
  8
4_ANYTOOL_CUTTHROUGH_OUTSI
 10
742.000000
 20
161.794253
 30
0.000000
 42
-0.414214
  0
VERTEX
  8
4_ANYTOOL_CUTTHROUGH_OUTSI
 10
741.750000
 20
161.544253
 30
0.000000
  0
VERTEX
  8
4_ANYTOOL_CUTTHROUGH_OUTSI
 10
729.750000
 20
161.544253
 30
0.000000
 42
-0.414214
  0
VERTEX
  8
4_ANYTOOL_CUTTHROUGH_OUTSI
 10
729.500000
 20
161.794253
 30
0.000000
  0
VERTEX
  8
4_ANYTOOL_CUTTHROUGH_OUTSI
 10
729.500000
 20
167.544426
 30
0.000000
  0
VERTEX
  8
4_ANYTOOL_CUTTHROUGH_OUTSI
 10
666.000000
 20
167.588333
 30
0.000000
  0
VERTEX
  8
4_ANYTOOL_CUTTHROUGH_OUTSI
 10
666.000000
 20
161.838506
 30
0.000000
 42
-0.414214
  0
VERTEX
  8
4_ANYTOOL_CUTTHROUGH_OUTSI
 10
665.750000
 20
161.588506
 30
0.000000
  0
VERTEX
  8
4_ANYTOOL_CUTTHROUGH_OUTSI
 10
653.750000
 20
161.588506
 30
0.000000
 42
-0.414214
  0
VERTEX
  8
4_ANYTOOL_CUTTHROUGH_OUTSI
 10
653.500000
 20
161.838506
 30
0.000000
  0
VERTEX
  8
4_ANYTOOL_CUTTHROUGH_OUTSI
 10
653.500000
 20
185.588506
 30
0.000000
  0
VERTEX
  8
4_ANYTOOL_CUTTHROUGH_OUTSI
 10
546.000000
 20
185.588506
 30
0.000000
  0
VERTEX
  8
4_ANYTOOL_CUTTHROUGH_OUTSI
 10
546.000000
 20
161.838506
 30
0.000000
 42
-0.414214
  0
VERTEX
  8
4_ANYTOOL_CUTTHROUGH_OUTSI
 10
545.750000
 20
161.588506
 30
0.000000
  0
VERTEX
  8
4_ANYTOOL_CUTTHROUGH_OUTSI
 10
533.750000
 20
161.588506
 30
0.000000
 42
-0.414214
  0
VERTEX
  8
4_ANYTOOL_CUTTHROUGH_OUTSI
 10
533.500000
 20
161.838506
 30
0.000000
  0
VERTEX
  8
4_ANYTOOL_CUTTHROUGH_OUTSI
 10
533.500000
 20
167.588333
 30
0.000000
  0
VERTEX
  8
4_ANYTOOL_CUTTHROUGH_OUTSI
 10
470.000000
 20
167.544426
 30
0.000000
  0
VERTEX
  8
4_ANYTOOL_CUTTHROUGH_OUTSI
 10
470.000000
 20
161.794253
 30
0.000000
 42
-0.414214
  0
VERTEX
  8
4_ANYTOOL_CUTTHROUGH_OUTSI
 10
469.750000
 20
161.544253
 30
0.000000
  0
VERTEX
  8
4_ANYTOOL_CUTTHROUGH_OUTSI
 10
457.750000
 20
161.544253
 30
0.000000
 42
-0.414214
  0
VERTEX
  8
4_ANYTOOL_CUTTHROUGH_OUTSI
 10
457.500000
 20
161.794253
 30
0.000000
  0
VERTEX
  8
4_ANYTOOL_CUTTHROUGH_OUTSI
 10
457.500000
 20
185.544253
 30
0.000000
  0
VERTEX
  8
4_ANYTOOL_CUTTHROUGH_OUTSI
 10
350.000000
 20
185.544253
 30
0.000000
  0
VERTEX
  8
4_ANYTOOL_CUTTHROUGH_OUTSI
 10
350.000000
 20
161.794253
 30
0.000000
 42
-0.414214
  0
VERTEX
  8
4_ANYTOOL_CUTTHROUGH_OUTSI
 10
349.750000
 20
161.544253
 30
0.000000
  0
VERTEX
  8
4_ANYTOOL_CUTTHROUGH_OUTSI
 10
337.750000
 20
161.544253
 30
0.000000
 42
-0.414214
  0
VERTEX
  8
4_ANYTOOL_CUTTHROUGH_OUTSI
 10
337.500000
 20
161.794253
 30
0.000000
  0
VERTEX
  8
4_ANYTOOL_CUTTHROUGH_OUTSI
 10
337.500000
 20
167.544253
 30
0.000000
  0
VERTEX
  8
4_ANYTOOL_CUTTHROUGH_OUTSI
 10
262.000000
 20
167.544253
 30
0.000000
  0
VERTEX
  8
4_ANYTOOL_CUTTHROUGH_OUTSI
 10
262.000000
 20
161.794253
 30
0.000000
 42
-0.414214
  0
VERTEX
  8
4_ANYTOOL_CUTTHROUGH_OUTSI
 10
261.750000
 20
161.544253
 30
0.000000
  0
VERTEX
  8
4_ANYTOOL_CUTTHROUGH_OUTSI
 10
249.750000
 20
161.544253
 30
0.000000
 42
-0.414214
  0
VERTEX
  8
4_ANYTOOL_CUTTHROUGH_OUTSI
 10
249.500000
 20
161.794253
 30
0.000000
  0
VERTEX
  8
4_ANYTOOL_CUTTHROUGH_OUTSI
 10
249.500000
 20
185.544253
 30
0.000000
  0
VERTEX
  8
4_ANYTOOL_CUTTHROUGH_OUTSI
 10
142.000000
 20
185.544253
 30
0.000000
  0
VERTEX
  8
4_ANYTOOL_CUTTHROUGH_OUTSI
 10
142.000000
 20
161.794253
 30
0.000000
 42
-0.414214
  0
VERTEX
  8
4_ANYTOOL_CUTTHROUGH_OUTSI
 10
141.750000
 20
161.544253
 30
0.000000
  0
VERTEX
  8
4_ANYTOOL_CUTTHROUGH_OUTSI
 10
129.750000
 20
161.544253
 30
0.000000
 42
-0.414214
  0
VERTEX
  8
4_ANYTOOL_CUTTHROUGH_OUTSI
 10
129.500000
 20
161.794253
 30
0.000000
  0
VERTEX
  8
4_ANYTOOL_CUTTHROUGH_OUTSI
 10
129.500000
 20
167.544253
 30
0.000000
  0
VERTEX
  8
4_ANYTOOL_CUTTHROUGH_OUTSI
 10
36.000000
 20
167.544253
 30
0.000000
  0
VERTEX
  8
4_ANYTOOL_CUTTHROUGH_OUTSI
 10
36.000000
 20
142.044253
 30
0.000000
  0
VERTEX
  8
4_ANYTOOL_CUTTHROUGH_OUTSI
 10
41.750000
 20
142.044253
 30
0.000000
 42
-0.414214
  0
VERTEX
  8
4_ANYTOOL_CUTTHROUGH_OUTSI
 10
42.000000
 20
141.794253
 30
0.000000
  0
VERTEX
  8
4_ANYTOOL_CUTTHROUGH_OUTSI
 10
42.000000
 20
129.794253
 30
0.000000
 42
-0.414214
  0
VERTEX
  8
4_ANYTOOL_CUTTHROUGH_OUTSI
 10
41.750000
 20
129.544253
 30
0.000000
  0
VERTEX
  8
4_ANYTOOL_CUTTHROUGH_OUTSI
 10
0.000000
 20
129.544253
 30
0.000000
  0
VERTEX
  8
4_ANYTOOL_CUTTHROUGH_OUTSI
 10
0.000000
 20
56.044253
 30
0.000000
  0
VERTEX
  8
4_ANYTOOL_CUTTHROUGH_OUTSI
 10
41.750000
 20
56.044253
 30
0.000000
 42
-0.414214
  0
VERTEX
  8
4_ANYTOOL_CUTTHROUGH_OUTSI
 10
42.000000
 20
55.794253
 30
0.000000
  0
VERTEX
  8
4_ANYTOOL_CUTTHROUGH_OUTSI
 10
42.000000
 20
43.794253
 30
0.000000
 42
-0.414214
  0
VERTEX
  8
4_ANYTOOL_CUTTHROUGH_OUTSI
 10
41.750000
 20
43.544253
 30
0.000000
  0
VERTEX
  8
4_ANYTOOL_CUTTHROUGH_OUTSI
 10
36.000000
 20
43.544253
 30
0.000000
  0
VERTEX
  8
4_ANYTOOL_CUTTHROUGH_OUTSI
 10
36.000000
 20
18.044253
 30
0.000000
  0
VERTEX
  8
4_ANYTOOL_CUTTHROUGH_OUTSI
 10
129.500000
 20
18.044253
 30
0.000000
  0
VERTEX
  8
4_ANYTOOL_CUTTHROUGH_OUTSI
 10
129.500000
 20
23.794253
 30
0.000000
 42
-0.414214
  0
VERTEX
  8
4_ANYTOOL_CUTTHROUGH_OUTSI
 10
129.750000
 20
24.044253
 30
0.000000
  0
VERTEX
  8
4_ANYTOOL_CUTTHROUGH_OUTSI
 10
141.750000
 20
24.044253
 30
0.000000
 42
-0.414214
  0
VERTEX
  8
4_ANYTOOL_CUTTHROUGH_OUTSI
 10
142.000000
 20
23.794253
 30
0.000000
  0
VERTEX
  8
4_ANYTOOL_CUTTHROUGH_OUTSI
 10
142.000000
 20
0.044253
 30
0.000000
  0
VERTEX
  8
4_ANYTOOL_CUTTHROUGH_OUTSI
 10
249.500000
 20
0.044253
 30
0.000000
  0
VERTEX
  8
4_ANYTOOL_CUTTHROUGH_OUTSI
 10
249.500000
 20
23.794253
 30
0.000000
 42
-0.414214
  0
VERTEX
  8
4_ANYTOOL_CUTTHROUGH_OUTSI
 10
249.750000
 20
24.044253
 30
0.000000
  0
VERTEX
  8
4_ANYTOOL_CUTTHROUGH_OUTSI
 10
261.750000
 20
24.044253
 30
0.000000
 42
-0.414214
  0
VERTEX
  8
4_ANYTOOL_CUTTHROUGH_OUTSI
 10
262.000000
 20
23.794253
 30
0.000000
  0
VERTEX
  8
4_ANYTOOL_CUTTHROUGH_OUTSI
 10
262.000000
 20
18.044253
 30
0.000000
  0
VERTEX
  8
4_ANYTOOL_CUTTHROUGH_OUTSI
 10
337.500000
 20
18.044253
 30
0.000000
  0
VERTEX
  8
4_ANYTOOL_CUTTHROUGH_OUTSI
 10
337.500000
 20
23.794253
 30
0.000000
 42
-0.414214
  0
VERTEX
  8
4_ANYTOOL_CUTTHROUGH_OUTSI
 10
337.750000
 20
24.044253
 30
0.000000
  0
VERTEX
  8
4_ANYTOOL_CUTTHROUGH_OUTSI
 10
349.750000
 20
24.044253
 30
0.000000
 42
-0.414214
  0
VERTEX
  8
4_ANYTOOL_CUTTHROUGH_OUTSI
 10
350.000000
 20
23.794253
 30
0.000000
  0
VERTEX
  8
4_ANYTOOL_CUTTHROUGH_OUTSI
 10
350.000000
 20
0.044253
 30
0.000000
  0
VERTEX
  8
4_ANYTOOL_CUTTHROUGH_OUTSI
 10
457.500000
 20
0.044253
 30
0.000000
  0
VERTEX
  8
4_ANYTOOL_CUTTHROUGH_OUTSI
 10
457.500000
 20
23.794253
 30
0.000000
 42
-0.414214
  0
VERTEX
  8
4_ANYTOOL_CUTTHROUGH_OUTSI
 10
457.750000
 20
24.044253
 30
0.000000
  0
VERTEX
  8
4_ANYTOOL_CUTTHROUGH_OUTSI
 10
469.750000
 20
24.044253
 30
0.000000
 42
-0.414214
  0
VERTEX
  8
4_ANYTOOL_CUTTHROUGH_OUTSI
 10
470.000000
 20
23.794253
 30
0.000000
  0
VERTEX
  8
4_ANYTOOL_CUTTHROUGH_OUTSI
 10
470.000000
 20
18.044080
 30
0.000000
  0
VERTEX
  8
4_ANYTOOL_CUTTHROUGH_OUTSI
 10
533.500000
 20
18.000173
 30
0.000000
  0
VERTEX
  8
4_ANYTOOL_CUTTHROUGH_OUTSI
 10
533.500000
 20
23.750000
 30
0.000000
 42
-0.414214
  0
VERTEX
  8
4_ANYTOOL_CUTTHROUGH_OUTSI
 10
533.750000
 20
24.000000
 30
0.000000
  0
VERTEX
  8
4_ANYTOOL_CUTTHROUGH_OUTSI
 10
545.750000
 20
24.000000
 30
0.000000
 42
-0.414214
  0
VERTEX
  8
4_ANYTOOL_CUTTHROUGH_OUTSI
 10
546.000000
 20
23.750000
 30
0.000000
  0
VERTEX
  8
4_ANYTOOL_CUTTHROUGH_OUTSI
 10
546.000000
 20
0.000000
 30
0.000000
  0
VERTEX
  8
4_ANYTOOL_CUTTHROUGH_OUTSI
 10
653.500000
 20
0.000000
 30
0.000000
  0
VERTEX
  8
4_ANYTOOL_CUTTHROUGH_OUTSI
 10
653.500000
 20
23.750000
 30
0.000000
 42
-0.414214
  0
VERTEX
  8
4_ANYTOOL_CUTTHROUGH_OUTSI
 10
653.750000
 20
24.000000
 30
0.000000
  0
VERTEX
  8
4_ANYTOOL_CUTTHROUGH_OUTSI
 10
665.750000
 20
24.000000
 30
0.000000
 42
-0.414214
  0
VERTEX
  8
4_ANYTOOL_CUTTHROUGH_OUTSI
 10
666.000000
 20
23.750000
 30
0.000000
  0
VERTEX
  8
4_ANYTOOL_CUTTHROUGH_OUTSI
 10
666.000000
 20
18.000173
 30
0.000000
  0
VERTEX
  8
4_ANYTOOL_CUTTHROUGH_OUTSI
 10
729.500000
 20
18.044080
 30
0.000000
  0
VERTEX
  8
4_ANYTOOL_CUTTHROUGH_OUTSI
 10
729.500000
 20
23.794253
 30
0.000000
 42
-0.414214
  0
VERTEX
  8
4_ANYTOOL_CUTTHROUGH_OUTSI
 10
729.750000
 20
24.044253
 30
0.000000
  0
VERTEX
  8
4_ANYTOOL_CUTTHROUGH_OUTSI
 10
741.750000
 20
24.044253
 30
0.000000
 42
-0.414214
  0
VERTEX
  8
4_ANYTOOL_CUTTHROUGH_OUTSI
 10
742.000000
 20
23.794253
 30
0.000000
  0
VERTEX
  8
4_ANYTOOL_CUTTHROUGH_OUTSI
 10
742.000000
 20
0.044253
 30
0.000000
  0
VERTEX
  8
4_ANYTOOL_CUTTHROUGH_OUTSI
 10
849.500000
 20
0.044253
 30
0.000000
  0
VERTEX
  8
4_ANYTOOL_CUTTHROUGH_OUTSI
 10
849.500000
 20
23.794253
 30
0.000000
 42
-0.414214
  0
VERTEX
  8
4_ANYTOOL_CUTTHROUGH_OUTSI
 10
849.750000
 20
24.044253
 30
0.000000
  0
VERTEX
  8
4_ANYTOOL_CUTTHROUGH_OUTSI
 10
861.750000
 20
24.044253
 30
0.000000
 42
-0.414214
  0
VERTEX
  8
4_ANYTOOL_CUTTHROUGH_OUTSI
 10
862.000000
 20
23.794253
 30
0.000000
  0
VERTEX
  8
4_ANYTOOL_CUTTHROUGH_OUTSI
 10
862.000000
 20
18.044253
 30
0.000000
  0
VERTEX
  8
4_ANYTOOL_CUTTHROUGH_OUTSI
 10
937.500000
 20
18.044253
 30
0.000000
  0
VERTEX
  8
4_ANYTOOL_CUTTHROUGH_OUTSI
 10
937.500000
 20
23.794253
 30
0.000000
 42
-0.414214
  0
VERTEX
  8
4_ANYTOOL_CUTTHROUGH_OUTSI
 10
937.750000
 20
24.044253
 30
0.000000
  0
VERTEX
  8
4_ANYTOOL_CUTTHROUGH_OUTSI
 10
949.750000
 20
24.044253
 30
0.000000
 42
-0.414214
  0
VERTEX
  8
4_ANYTOOL_CUTTHROUGH_OUTSI
 10
950.000000
 20
23.794253
 30
0.000000
  0
VERTEX
  8
4_ANYTOOL_CUTTHROUGH_OUTSI
 10
950.000000
 20
0.044253
 30
0.000000
  0
VERTEX
  8
4_ANYTOOL_CUTTHROUGH_OUTSI
 10
1057.500000
 20
0.044253
 30
0.000000
  0
VERTEX
  8
4_ANYTOOL_CUTTHROUGH_OUTSI
 10
1057.500000
 20
23.794253
 30
0.000000
 42
-0.414214
  0
VERTEX
  8
4_ANYTOOL_CUTTHROUGH_OUTSI
 10
1057.750000
 20
24.044253
 30
0.000000
  0
VERTEX
  8
4_ANYTOOL_CUTTHROUGH_OUTSI
 10
1069.750000
 20
24.044253
 30
0.000000
 42
-0.414214
  0
VERTEX
  8
4_ANYTOOL_CUTTHROUGH_OUTSI
 10
1070.000000
 20
23.794253
 30
0.000000
  0
VERTEX
  8
4_ANYTOOL_CUTTHROUGH_OUTSI
 10
1070.000000
 20
18.044253
 30
0.000000
  0
VERTEX
  8
4_ANYTOOL_CUTTHROUGH_OUTSI
 10
1133.500000
 20
18.044253
 30
0.000000
  0
VERTEX
  8
4_ANYTOOL_CUTTHROUGH_OUTSI
 10
1133.500000
 20
23.794253
 30
0.000000
 42
-0.414214
  0
VERTEX
  8
4_ANYTOOL_CUTTHROUGH_OUTSI
 10
1133.750000
 20
24.044253
 30
0.000000
  0
VERTEX
  8
4_ANYTOOL_CUTTHROUGH_OUTSI
 10
1145.750000
 20
24.044253
 30
0.000000
 42
-0.414214
  0
VERTEX
  8
4_ANYTOOL_CUTTHROUGH_OUTSI
 10
1146.000000
 20
23.794253
 30
0.000000
  0
VERTEX
  8
4_ANYTOOL_CUTTHROUGH_OUTSI
 10
1146.000000
 20
0.044253
 30
0.000000
  0
VERTEX
  8
4_ANYTOOL_CUTTHROUGH_OUTSI
 10
1253.500000
 20
0.044253
 30
0.000000
  0
VERTEX
  8
4_ANYTOOL_CUTTHROUGH_OUTSI
 10
1253.500000
 20
23.794253
 30
0.000000
 42
-0.414214
  0
VERTEX
  8
4_ANYTOOL_CUTTHROUGH_OUTSI
 10
1253.750000
 20
24.044253
 30
0.000000
  0
VERTEX
  8
4_ANYTOOL_CUTTHROUGH_OUTSI
 10
1265.750000
 20
24.044253
 30
0.000000
 42
-0.414214
  0
VERTEX
  8
4_ANYTOOL_CUTTHROUGH_OUTSI
 10
1266.000000
 20
23.794253
 30
0.000000
  0
VERTEX
  8
4_ANYTOOL_CUTTHROUGH_OUTSI
 10
1266.000000
 20
18.044253
 30
0.000000
  0
VERTEX
  8
4_ANYTOOL_CUTTHROUGH_OUTSI
 10
1329.500000
 20
18.044253
 30
0.000000
  0
VERTEX
  8
4_ANYTOOL_CUTTHROUGH_OUTSI
 10
1329.500000
 20
23.794253
 30
0.000000
 42
-0.414214
  0
VERTEX
  8
4_ANYTOOL_CUTTHROUGH_OUTSI
 10
1329.750000
 20
24.044253
 30
0.000000
  0
VERTEX
  8
4_ANYTOOL_CUTTHROUGH_OUTSI
 10
1341.750000
 20
24.044253
 30
0.000000
 42
-0.414214
  0
VERTEX
  8
4_ANYTOOL_CUTTHROUGH_OUTSI
 10
1342.000000
 20
23.794253
 30
0.000000
  0
VERTEX
  8
4_ANYTOOL_CUTTHROUGH_OUTSI
 10
1342.000000
 20
0.044253
 30
0.000000
  0
VERTEX
  8
4_ANYTOOL_CUTTHROUGH_OUTSI
 10
1449.500000
 20
0.044253
 30
0.000000
  0
VERTEX
  8
4_ANYTOOL_CUTTHROUGH_OUTSI
 10
1449.500000
 20
23.794253
 30
0.000000
 42
-0.414214
  0
VERTEX
  8
4_ANYTOOL_CUTTHROUGH_OUTSI
 10
1449.750000
 20
24.044253
 30
0.000000
  0
VERTEX
  8
4_ANYTOOL_CUTTHROUGH_OUTSI
 10
1461.750000
 20
24.044253
 30
0.000000
 42
-0.414214
  0
VERTEX
  8
4_ANYTOOL_CUTTHROUGH_OUTSI
 10
1462.000000
 20
23.794253
 30
0.000000
  0
VERTEX
  8
4_ANYTOOL_CUTTHROUGH_OUTSI
 10
1462.000000
 20
18.044253
 30
0.000000
  0
VERTEX
  8
4_ANYTOOL_CUTTHROUGH_OUTSI
 10
1537.500000
 20
18.044253
 30
0.000000
  0
VERTEX
  8
4_ANYTOOL_CUTTHROUGH_OUTSI
 10
1537.500000
 20
23.794253
 30
0.000000
 42
-0.414214
  0
VERTEX
  8
4_ANYTOOL_CUTTHROUGH_OUTSI
 10
1537.750000
 20
24.044253
 30
0.000000
  0
VERTEX
  8
4_ANYTOOL_CUTTHROUGH_OUTSI
 10
1549.750000
 20
24.044253
 30
0.000000
 42
-0.414214
  0
VERTEX
  8
4_ANYTOOL_CUTTHROUGH_OUTSI
 10
1550.000000
 20
23.794253
 30
0.000000
  0
VERTEX
  8
4_ANYTOOL_CUTTHROUGH_OUTSI
 10
1550.000000
 20
0.044253
 30
0.000000
  0
VERTEX
  8
4_ANYTOOL_CUTTHROUGH_OUTSI
 10
1657.500000
 20
0.044253
 30
0.000000
  0
VERTEX
  8
4_ANYTOOL_CUTTHROUGH_OUTSI
 10
1657.500000
 20
23.794253
 30
0.000000
 42
-0.414214
  0
VERTEX
  8
4_ANYTOOL_CUTTHROUGH_OUTSI
 10
1657.750000
 20
24.044253
 30
0.000000
  0
VERTEX
  8
4_ANYTOOL_CUTTHROUGH_OUTSI
 10
1669.750000
 20
24.044253
 30
0.000000
 42
-0.414214
  0
VERTEX
  8
4_ANYTOOL_CUTTHROUGH_OUTSI
 10
1670.000000
 20
23.794253
 30
0.000000
  0
VERTEX
  8
4_ANYTOOL_CUTTHROUGH_OUTSI
 10
1670.000000
 20
18.044080
 30
0.000000
  0
VERTEX
  8
4_ANYTOOL_CUTTHROUGH_OUTSI
 10
1733.500000
 20
18.000173
 30
0.000000
  0
VERTEX
  8
4_ANYTOOL_CUTTHROUGH_OUTSI
 10
1733.500000
 20
23.750000
 30
0.000000
 42
-0.414214
  0
VERTEX
  8
4_ANYTOOL_CUTTHROUGH_OUTSI
 10
1733.750000
 20
24.000000
 30
0.000000
  0
VERTEX
  8
4_ANYTOOL_CUTTHROUGH_OUTSI
 10
1745.750000
 20
24.000000
 30
0.000000
 42
-0.414214
  0
VERTEX
  8
4_ANYTOOL_CUTTHROUGH_OUTSI
 10
1746.000000
 20
23.750000
 30
0.000000
  0
VERTEX
  8
4_ANYTOOL_CUTTHROUGH_OUTSI
 10
1746.000000
 20
0.000000
 30
0.000000
  0
VERTEX
  8
4_ANYTOOL_CUTTHROUGH_OUTSI
 10
1853.500000
 20
0.000000
 30
0.000000
  0
VERTEX
  8
4_ANYTOOL_CUTTHROUGH_OUTSI
 10
1853.500000
 20
23.750000
 30
0.000000
 42
-0.414214
  0
VERTEX
  8
4_ANYTOOL_CUTTHROUGH_OUTSI
 10
1853.750000
 20
24.000000
 30
0.000000
  0
VERTEX
  8
4_ANYTOOL_CUTTHROUGH_OUTSI
 10
1865.750000
 20
24.000000
 30
0.000000
 42
-0.414214
  0
VERTEX
  8
4_ANYTOOL_CUTTHROUGH_OUTSI
 10
1866.000000
 20
23.750000
 30
0.000000
  0
VERTEX
  8
4_ANYTOOL_CUTTHROUGH_OUTSI
 10
1866.000000
 20
18.000173
 30
0.000000
  0
VERTEX
  8
4_ANYTOOL_CUTTHROUGH_OUTSI
 10
1929.500000
 20
18.044080
 30
0.000000
  0
VERTEX
  8
4_ANYTOOL_CUTTHROUGH_OUTSI
 10
1929.500000
 20
23.794253
 30
0.000000
 42
-0.414214
  0
VERTEX
  8
4_ANYTOOL_CUTTHROUGH_OUTSI
 10
1929.750000
 20
24.044253
 30
0.000000
  0
VERTEX
  8
4_ANYTOOL_CUTTHROUGH_OUTSI
 10
1941.750000
 20
24.044253
 30
0.000000
 42
-0.414214
  0
VERTEX
  8
4_ANYTOOL_CUTTHROUGH_OUTSI
 10
1942.000000
 20
23.794253
 30
0.000000
  0
VERTEX
  8
4_ANYTOOL_CUTTHROUGH_OUTSI
 10
1942.000000
 20
0.044253
 30
0.000000
  0
VERTEX
  8
4_ANYTOOL_CUTTHROUGH_OUTSI
 10
2049.500000
 20
0.044253
 30
0.000000
  0
VERTEX
  8
4_ANYTOOL_CUTTHROUGH_OUTSI
 10
2049.500000
 20
23.794253
 30
0.000000
 42
-0.414214
  0
VERTEX
  8
4_ANYTOOL_CUTTHROUGH_OUTSI
 10
2049.750000
 20
24.044253
 30
0.000000
  0
VERTEX
  8
4_ANYTOOL_CUTTHROUGH_OUTSI
 10
2061.750000
 20
24.044253
 30
0.000000
 42
-0.414214
  0
VERTEX
  8
4_ANYTOOL_CUTTHROUGH_OUTSI
 10
2062.000000
 20
23.794253
 30
0.000000
  0
VERTEX
  8
4_ANYTOOL_CUTTHROUGH_OUTSI
 10
2062.000000
 20
18.044253
 30
0.000000
  0
VERTEX
  8
4_ANYTOOL_CUTTHROUGH_OUTSI
 10
2137.500000
 20
18.044253
 30
0.000000
  0
VERTEX
  8
4_ANYTOOL_CUTTHROUGH_OUTSI
 10
2137.500000
 20
23.794253
 30
0.000000
 42
-0.414214
  0
VERTEX
  8
4_ANYTOOL_CUTTHROUGH_OUTSI
 10
2137.750000
 20
24.044253
 30
0.000000
  0
VERTEX
  8
4_ANYTOOL_CUTTHROUGH_OUTSI
 10
2149.750000
 20
24.044253
 30
0.000000
 42
-0.414214
  0
VERTEX
  8
4_ANYTOOL_CUTTHROUGH_OUTSI
 10
2150.000000
 20
23.794253
 30
0.000000
  0
VERTEX
  8
4_ANYTOOL_CUTTHROUGH_OUTSI
 10
2150.000000
 20
0.044253
 30
0.000000
  0
VERTEX
  8
4_ANYTOOL_CUTTHROUGH_OUTSI
 10
2257.500000
 20
0.044253
 30
0.000000
  0
VERTEX
  8
4_ANYTOOL_CUTTHROUGH_OUTSI
 10
2257.500000
 20
23.794253
 30
0.000000
 42
-0.414214
  0
VERTEX
  8
4_ANYTOOL_CUTTHROUGH_OUTSI
 10
2257.750000
 20
24.044253
 30
0.000000
  0
VERTEX
  8
4_ANYTOOL_CUTTHROUGH_OUTSI
 10
2269.750000
 20
24.044253
 30
0.000000
 42
-0.414214
  0
VERTEX
  8
4_ANYTOOL_CUTTHROUGH_OUTSI
 10
2270.000000
 20
23.794253
 30
0.000000
  0
VERTEX
  8
4_ANYTOOL_CUTTHROUGH_OUTSI
 10
2270.000000
 20
18.044253
 30
0.000000
  0
VERTEX
  8
4_ANYTOOL_CUTTHROUGH_OUTSI
 10
2363.500000
 20
18.044253
 30
0.000000
  0
VERTEX
  8
4_ANYTOOL_CUTTHROUGH_OUTSI
 10
2363.500000
 20
43.544253
 30
0.000000
  0
VERTEX
  8
4_ANYTOOL_CUTTHROUGH_OUTSI
 10
2357.750000
 20
43.544253
 30
0.000000
 42
-0.414214
  0
VERTEX
  8
4_ANYTOOL_CUTTHROUGH_OUTSI
 10
2357.500000
 20
43.794253
 30
0.000000
  0
VERTEX
  8
4_ANYTOOL_CUTTHROUGH_OUTSI
 10
2357.500000
 20
55.794253
 30
0.000000
 42
-0.414214
  0
VERTEX
  8
4_ANYTOOL_CUTTHROUGH_OUTSI
 10
2357.750000
 20
56.044253
 30
0.000000
  0
VERTEX
  8
4_ANYTOOL_CUTTHROUGH_OUTSI
 10
2399.500000
 20
56.044253
 30
0.000000
  0
VERTEX
  8
4_ANYTOOL_CUTTHROUGH_OUTSI
 10
2399.500000
 20
129.544253
 30
0.000000
  0
VERTEX
  8
4_ANYTOOL_CUTTHROUGH_OUTSI
 10
2357.750000
 20
129.544253
 30
0.000000
 42
-0.414214
  0
VERTEX
  8
4_ANYTOOL_CUTTHROUGH_OUTSI
 10
2357.500000
 20
129.794253
 30
0.000000
  0
VERTEX
  8
4_ANYTOOL_CUTTHROUGH_OUTSI
 10
2357.500000
 20
141.794253
 30
0.000000
 42
-0.414214
  0
VERTEX
  8
4_ANYTOOL_CUTTHROUGH_OUTSI
 10
2357.750000
 20
142.044253
 30
0.000000
  0
VERTEX
  8
4_ANYTOOL_CUTTHROUGH_OUTSI
 10
2363.500000
 20
142.044253
 30
0.000000
  0
VERTEX
  8
4_ANYTOOL_CUTTHROUGH_OUTSI
 10
2363.500000
 20
167.544253
 30
0.000000
  0
VERTEX
  8
4_ANYTOOL_CUTTHROUGH_OUTSI
 10
2270.000000
 20
167.544253
 30
0.000000
  0
VERTEX
  8
4_ANYTOOL_CUTTHROUGH_OUTSI
 10
2270.000000
 20
161.794253
 30
0.000000
 42
-0.414214
  0
VERTEX
  8
4_ANYTOOL_CUTTHROUGH_OUTSI
 10
2269.750000
 20
161.544253
 30
0.000000
  0
VERTEX
  8
4_ANYTOOL_CUTTHROUGH_OUTSI
 10
2257.750000
 20
161.544253
 30
0.000000
 42
-0.414214
  0
VERTEX
  8
4_ANYTOOL_CUTTHROUGH_OUTSI
 10
2257.500000
 20
161.794253
 30
0.000000
  0
VERTEX
  8
4_ANYTOOL_CUTTHROUGH_OUTSI
 10
2257.500000
 20
185.544253
 30
0.000000
  0
VERTEX
  8
4_ANYTOOL_CUTTHROUGH_OUTSI
 10
2150.000000
 20
185.544253
 30
0.000000
  0
VERTEX
  8
4_ANYTOOL_CUTTHROUGH_OUTSI
 10
2150.000000
 20
161.794253
 30
0.000000
 42
-0.414214
  0
VERTEX
  8
4_ANYTOOL_CUTTHROUGH_OUTSI
 10
2149.750000
 20
161.544253
 30
0.000000
  0
VERTEX
  8
4_ANYTOOL_CUTTHROUGH_OUTSI
 10
2137.750000
 20
161.544253
 30
0.000000
 42
-0.414214
  0
VERTEX
  8
4_ANYTOOL_CUTTHROUGH_OUTSI
 10
2137.500000
 20
161.794253
 30
0.000000
  0
VERTEX
  8
4_ANYTOOL_CUTTHROUGH_OUTSI
 10
2137.500000
 20
167.544253
 30
0.000000
  0
VERTEX
  8
4_ANYTOOL_CUTTHROUGH_OUTSI
 10
2062.000000
 20
167.544253
 30
0.000000
  0
VERTEX
  8
4_ANYTOOL_CUTTHROUGH_OUTSI
 10
2062.000000
 20
161.794253
 30
0.000000
 42
-0.414214
  0
VERTEX
  8
4_ANYTOOL_CUTTHROUGH_OUTSI
 10
2061.750000
 20
161.544253
 30
0.000000
  0
VERTEX
  8
4_ANYTOOL_CUTTHROUGH_OUTSI
 10
2049.750000
 20
161.544253
 30
0.000000
 42
-0.414214
  0
VERTEX
  8
4_ANYTOOL_CUTTHROUGH_OUTSI
 10
2049.500000
 20
161.794253
 30
0.000000
  0
VERTEX
  8
4_ANYTOOL_CUTTHROUGH_OUTSI
 10
2049.500000
 20
185.544253
 30
0.000000
  0
VERTEX
  8
4_ANYTOOL_CUTTHROUGH_OUTSI
 10
1942.000000
 20
185.544253
 30
0.000000
  0
VERTEX
  8
4_ANYTOOL_CUTTHROUGH_OUTSI
 10
1942.000000
 20
161.794253
 30
0.000000
 42
-0.414214
  0
VERTEX
  8
4_ANYTOOL_CUTTHROUGH_OUTSI
 10
1941.750000
 20
161.544253
 30
0.000000
  0
VERTEX
  8
4_ANYTOOL_CUTTHROUGH_OUTSI
 10
1929.750000
 20
161.544253
 30
0.000000
 42
-0.414214
  0
VERTEX
  8
4_ANYTOOL_CUTTHROUGH_OUTSI
 10
1929.500000
 20
161.794253
 30
0.000000
  0
VERTEX
  8
4_ANYTOOL_CUTTHROUGH_OUTSI
 10
1929.500000
 20
167.544426
 30
0.000000
  0
VERTEX
  8
4_ANYTOOL_CUTTHROUGH_OUTSI
 10
1866.000000
 20
167.588333
 30
0.000000
  0
VERTEX
  8
4_ANYTOOL_CUTTHROUGH_OUTSI
 10
1866.000000
 20
161.838506
 30
0.000000
 42
-0.414214
  0
VERTEX
  8
4_ANYTOOL_CUTTHROUGH_OUTSI
 10
1865.750000
 20
161.588506
 30
0.000000
  0
VERTEX
  8
4_ANYTOOL_CUTTHROUGH_OUTSI
 10
1853.750000
 20
161.588506
 30
0.000000
 42
-0.414214
  0
VERTEX
  8
4_ANYTOOL_CUTTHROUGH_OUTSI
 10
1853.500000
 20
161.838506
 30
0.000000
  0
VERTEX
  8
4_ANYTOOL_CUTTHROUGH_OUTSI
 10
1853.500000
 20
185.588506
 30
0.000000
  0
VERTEX
  8
4_ANYTOOL_CUTTHROUGH_OUTSI
 10
1746.000000
 20
185.588506
 30
0.000000
  0
VERTEX
  8
4_ANYTOOL_CUTTHROUGH_OUTSI
 10
1746.000000
 20
161.838506
 30
0.000000
 42
-0.414214
  0
VERTEX
  8
4_ANYTOOL_CUTTHROUGH_OUTSI
 10
1745.750000
 20
161.588506
 30
0.000000
  0
VERTEX
  8
4_ANYTOOL_CUTTHROUGH_OUTSI
 10
1733.750000
 20
161.588506
 30
0.000000
 42
-0.414214
  0
VERTEX
  8
4_ANYTOOL_CUTTHROUGH_OUTSI
 10
1733.500000
 20
161.838506
 30
0.000000
  0
VERTEX
  8
4_ANYTOOL_CUTTHROUGH_OUTSI
 10
1733.500000
 20
167.588333
 30
0.000000
  0
VERTEX
  8
4_ANYTOOL_CUTTHROUGH_OUTSI
 10
1670.000000
 20
167.544426
 30
0.000000
  0
VERTEX
  8
4_ANYTOOL_CUTTHROUGH_OUTSI
 10
1670.000000
 20
161.794253
 30
0.000000
 42
-0.414214
  0
VERTEX
  8
4_ANYTOOL_CUTTHROUGH_OUTSI
 10
1669.750000
 20
161.544253
 30
0.000000
  0
VERTEX
  8
4_ANYTOOL_CUTTHROUGH_OUTSI
 10
1657.750000
 20
161.544253
 30
0.000000
 42
-0.414214
  0
VERTEX
  8
4_ANYTOOL_CUTTHROUGH_OUTSI
 10
1657.500000
 20
161.794253
 30
0.000000
  0
VERTEX
  8
4_ANYTOOL_CUTTHROUGH_OUTSI
 10
1657.500000
 20
185.544253
 30
0.000000
  0
VERTEX
  8
4_ANYTOOL_CUTTHROUGH_OUTSI
 10
1550.000000
 20
185.544253
 30
0.000000
  0
VERTEX
  8
4_ANYTOOL_CUTTHROUGH_OUTSI
 10
1550.000000
 20
161.794253
 30
0.000000
 42
-0.414214
  0
VERTEX
  8
4_ANYTOOL_CUTTHROUGH_OUTSI
 10
1549.750000
 20
161.544253
 30
0.000000
  0
VERTEX
  8
4_ANYTOOL_CUTTHROUGH_OUTSI
 10
1537.750000
 20
161.544253
 30
0.000000
 42
-0.414214
  0
VERTEX
  8
4_ANYTOOL_CUTTHROUGH_OUTSI
 10
1537.500000
 20
161.794253
 30
0.000000
  0
VERTEX
  8
4_ANYTOOL_CUTTHROUGH_OUTSI
 10
1537.500000
 20
167.544253
 30
0.000000
  0
VERTEX
  8
4_ANYTOOL_CUTTHROUGH_OUTSI
 10
1462.000000
 20
167.544253
 30
0.000000
  0
VERTEX
  8
4_ANYTOOL_CUTTHROUGH_OUTSI
 10
1462.000000
 20
161.794253
 30
0.000000
 42
-0.414214
  0
VERTEX
  8
4_ANYTOOL_CUTTHROUGH_OUTSI
 10
1461.750000
 20
161.544253
 30
0.000000
  0
VERTEX
  8
4_ANYTOOL_CUTTHROUGH_OUTSI
 10
1449.750000
 20
161.544253
 30
0.000000
 42
-0.414214
  0
VERTEX
  8
4_ANYTOOL_CUTTHROUGH_OUTSI
 10
1449.500000
 20
161.794253
 30
0.000000
  0
VERTEX
  8
4_ANYTOOL_CUTTHROUGH_OUTSI
 10
1449.500000
 20
185.544253
 30
0.000000
  0
VERTEX
  8
4_ANYTOOL_CUTTHROUGH_OUTSI
 10
1342.000000
 20
185.544253
 30
0.000000
  0
VERTEX
  8
4_ANYTOOL_CUTTHROUGH_OUTSI
 10
1342.000000
 20
161.794253
 30
0.000000
 42
-0.414214
  0
VERTEX
  8
4_ANYTOOL_CUTTHROUGH_OUTSI
 10
1341.750000
 20
161.544253
 30
0.000000
  0
VERTEX
  8
4_ANYTOOL_CUTTHROUGH_OUTSI
 10
1329.750000
 20
161.544253
 30
0.000000
 42
-0.414214
  0
VERTEX
  8
4_ANYTOOL_CUTTHROUGH_OUTSI
 10
1329.500000
 20
161.794253
 30
0.000000
  0
VERTEX
  8
4_ANYTOOL_CUTTHROUGH_OUTSI
 10
1329.500000
 20
167.544253
 30
0.000000
  0
VERTEX
  8
4_ANYTOOL_CUTTHROUGH_OUTSI
 10
1266.000000
 20
167.544253
 30
0.000000
  0
VERTEX
  8
4_ANYTOOL_CUTTHROUGH_OUTSI
 10
1266.000000
 20
161.794253
 30
0.000000
 42
-0.414214
  0
VERTEX
  8
4_ANYTOOL_CUTTHROUGH_OUTSI
 10
1265.750000
 20
161.544253
 30
0.000000
  0
VERTEX
  8
4_ANYTOOL_CUTTHROUGH_OUTSI
 10
1253.750000
 20
161.544253
 30
0.000000
 42
-0.414214
  0
VERTEX
  8
4_ANYTOOL_CUTTHROUGH_OUTSI
 10
1253.500000
 20
161.794253
 30
0.000000
  0
VERTEX
  8
4_ANYTOOL_CUTTHROUGH_OUTSI
 10
1253.500000
 20
185.544253
 30
0.000000
  0
VERTEX
  8
4_ANYTOOL_CUTTHROUGH_OUTSI
 10
1146.000000
 20
185.544253
 30
0.000000
  0
VERTEX
  8
4_ANYTOOL_CUTTHROUGH_OUTSI
 10
1146.000000
 20
161.794253
 30
0.000000
 42
-0.414214
  0
VERTEX
  8
4_ANYTOOL_CUTTHROUGH_OUTSI
 10
1145.750000
 20
161.544253
 30
0.000000
  0
VERTEX
  8
4_ANYTOOL_CUTTHROUGH_OUTSI
 10
1133.750000
 20
161.544253
 30
0.000000
 42
-0.414214
  0
VERTEX
  8
4_ANYTOOL_CUTTHROUGH_OUTSI
 10
1133.500000
 20
161.794253
 30
0.000000
  0
SEQEND
  8
4_ANYTOOL_CUTTHROUGH_OUTSI
  0
ENDSEC
  0
EOF
