<svg id="Layer_1" data-name="Layer 1" xmlns="http://www.w3.org/2000/svg" viewBox="0 0 442.17 425.2"><defs><style>.cls-1{font-size:6px;}.cls-1,.cls-2{fill:#1d1d1b;font-family:Monotxt;}.cls-2{font-size:8.47px;}.cls-3,.cls-4{fill:none;stroke:#1d1d1b;stroke-miterlimit:10;}.cls-3{stroke-width:0.5px;}.cls-4{stroke-width:0.25px;}</style></defs><g id="MTEXT"><text class="cls-1" transform="translate(142.32 332) rotate(90)">DOOR-XL1/H</text></g><g id="MTEXT-2" data-name="MTEXT"><text class="cls-1" transform="translate(181.63 281.47) rotate(-90)">DOOR-XL1/F</text></g><g id="MTEXT-3" data-name="MTEXT"><text class="cls-1" transform="translate(44.17 239.63) rotate(-90)">DOOR-XL1/G</text></g><g id="MTEXT-4" data-name="MTEXT"><text class="cls-1" transform="translate(95.8 239.03) rotate(-90)">DOOR-XL1/E</text></g><g id="MTEXT-5" data-name="MTEXT"><text class="cls-1" transform="translate(327.56 61.78)">DOOR-XL1/C</text></g><g id="MTEXT-6" data-name="MTEXT"><text class="cls-2" transform="translate(246.78 43.31)">&lt;PEG</text></g><g id="MTEXT-7" data-name="MTEXT"><text class="cls-2" transform="translate(246.78 54.27)">&lt;PEG</text></g><g id="MTEXT-8" data-name="MTEXT"><text class="cls-1" transform="translate(397.33 108.35) rotate(90)">DOOR-XL1/D</text></g><g id="MTEXT-9" data-name="MTEXT"><text class="cls-1" transform="translate(326.79 146.27) rotate(-90)">DOOR-XL1/D</text></g><g id="MTEXT-10" data-name="MTEXT"><text class="cls-1" transform="translate(260.55 133.78) rotate(-90)">DOOR-XL1/C</text></g><g id="MTEXT-11" data-name="MTEXT"><text class="cls-1" transform="translate(158.47 144.58) rotate(-90)">DOOR-XL1/B</text></g><g id="MTEXT-12" data-name="MTEXT"><text class="cls-1" transform="translate(304.04 231)">DOOR-XL1/A</text></g><g id="MTEXT-13" data-name="MTEXT"><text class="cls-1" transform="translate(304.91 345.39)">DOOR-XL1/A</text></g><g id="POLYLINE"><polygon class="cls-3" points="308.26 44.76 306.38 44.76 306.38 40.18 308.26 40.18 308.26 41.08 401.26 41.08 401.26 36.35 291.45 36.35 291.45 54.21 295.05 54.21 295.05 56.09 294.15 56.09 294.15 70.43 295.05 70.43 295.05 72.31 291.45 72.31 291.45 84.01 306.38 84.01 306.38 80.41 308.26 80.41 308.26 81.31 401.26 81.31 401.26 69.98 400.36 69.98 400.36 68.1 403.96 68.1 403.96 57.07 400.36 57.07 400.36 55.49 401.26 55.49 401.26 43.86 308.26 43.86 308.26 44.76"/></g><g id="POLYLINE-2" data-name="POLYLINE"><path class="cls-3" d="M240.85,35.66a.9.9,0,0,0-.9.9v7.2a.9.9,0,0,0,.9.9l42,.08V35.58Z"/></g><g id="POLYLINE-3" data-name="POLYLINE"><path class="cls-3" d="M240.85,46.61a.9.9,0,0,0-.9.91v7.2a.9.9,0,0,0,.9.9l42,.08V46.54Z"/></g><g id="POLYLINE-4" data-name="POLYLINE"><path class="cls-3" d="M196.34,57.91a.86.86,0,0,1-.08.36.89.89,0,0,1-1.18.47l-9.25-4h-5.41l-9.25,4a.86.86,0,0,1-.36.07.9.9,0,0,1-.9-.9V51a3,3,0,0,1,0-6V38a.86.86,0,0,1,.08-.36.89.89,0,0,1,1.18-.47l9.25,4h5.41l9.25-4a.86.86,0,0,1,.36-.07.9.9,0,0,1,.9.9V45a3,3,0,0,1,0,6Z"/></g><g id="POLYLINE-5" data-name="POLYLINE"><path class="cls-3" d="M196.34,90.09a.91.91,0,0,1-1.26.83l-9.25-4h-5.41l-9.25,4a.86.86,0,0,1-.36.07.9.9,0,0,1-.9-.9V83.16a3,3,0,0,1,0-6V70.22a.86.86,0,0,1,.08-.36.89.89,0,0,1,1.18-.47l9.25,4h5.41l9.25-4a.86.86,0,0,1,.36-.07.9.9,0,0,1,.9.9v6.93a3,3,0,0,1,0,6Z"/></g><g id="POLYLINE-6" data-name="POLYLINE"><path class="cls-3" d="M196.34,210.35a.94.94,0,0,1-.08.36.9.9,0,0,1-1.18.46l-9.25-4h-5.41l-9.25,4a.86.86,0,0,1-.36.08.91.91,0,0,1-.9-.9v-6.94a3,3,0,0,1,0-6v-6.94a.94.94,0,0,1,.08-.36.9.9,0,0,1,1.18-.46l9.25,4h5.41l9.25-4a.86.86,0,0,1,.36-.08.9.9,0,0,1,.9.9v6.94a3,3,0,0,1,0,6Z"/></g><g id="POLYLINE-7" data-name="POLYLINE"><path class="cls-3" d="M196.34,180.18a.94.94,0,0,1-.08.36.9.9,0,0,1-1.18.46l-9.25-4h-5.41l-9.25,4a.86.86,0,0,1-.36.08.91.91,0,0,1-.9-.9v-6.94a3,3,0,1,1,0-6V160.3a.94.94,0,0,1,.08-.36.9.9,0,0,1,1.18-.46l9.25,4h5.41l9.25-4a.86.86,0,0,1,.36-.08.9.9,0,0,1,.9.9v6.94a3,3,0,1,1,0,6Z"/></g><g id="POLYLINE-8" data-name="POLYLINE"><path class="cls-3" d="M196.34,134.71a.94.94,0,0,1-.08.36.91.91,0,0,1-1.18.47l-9.25-4h-5.41l-9.25,4a1,1,0,0,1-.36.07.9.9,0,0,1-.9-.9v-6.94a3,3,0,0,1,0-6v-6.94a.85.85,0,0,1,.08-.35.89.89,0,0,1,1.18-.47l9.25,4h5.41l9.25-4a.86.86,0,0,1,.36-.08.91.91,0,0,1,.9.9v6.94a3,3,0,0,1,0,6Z"/></g><g id="POLYLINE-9" data-name="POLYLINE"><path class="cls-3" d="M128.44,293.78a.94.94,0,0,1-.36.08.9.9,0,0,1-.9-.9V286a3,3,0,1,1,0-6v-6.94a.92.92,0,0,1,.07-.36.91.91,0,0,1,1.19-.46l9.25,4h5.4v13.52h-5.4l-9.25,4Z"/></g><g id="POLYLINE-10" data-name="POLYLINE"><path class="cls-3" d="M128.44,241.51a.92.92,0,0,1-.36.07.9.9,0,0,1-.9-.9v-6.93a3,3,0,1,1,0-6v-6.93a.86.86,0,0,1,.07-.36.9.9,0,0,1,1.19-.47l9.25,4h5.4V237.5h-5.4l-9.25,4Z"/></g><g id="POLYLINE-11" data-name="POLYLINE"><path class="cls-3" d="M128.44,267.71a.94.94,0,0,1-.36.08.9.9,0,0,1-.9-.9V260a3,3,0,1,1,0-6V247a.89.89,0,0,1,.07-.36.92.92,0,0,1,1.19-.47l9.25,4h5.4V263.7h-5.4l-9.25,4Z"/></g><g id="POLYLINE-12" data-name="POLYLINE"><path class="cls-3" d="M178.93,368a.85.85,0,0,1-.35.08.9.9,0,0,1-.9-.9v-6.94a3,3,0,1,1,0-6v-6.94a.92.92,0,0,1,.07-.36.91.91,0,0,1,1.18-.47l9.25,4h5.41V364h-5.41l-9.25,4Z"/></g><g id="POLYLINE-13" data-name="POLYLINE"><path class="cls-3" d="M178.93,341.84a.84.84,0,0,1-.35.07.9.9,0,0,1-.9-.9v-6.93a3,3,0,1,1,0-6v-6.93a.89.89,0,0,1,1.25-.83l9.25,4h5.41v13.51h-5.41l-9.25,4Z"/></g><g id="POLYLINE-14" data-name="POLYLINE"><path class="cls-3" d="M178.93,394.12a1,1,0,0,1-.35.07.9.9,0,0,1-.9-.9v-6.94a3,3,0,1,1,0-6v-6.94a.84.84,0,0,1,.07-.35.89.89,0,0,1,1.18-.47l9.25,4h5.41v13.51h-5.41l-9.25,4Z"/></g><g id="POLYLINE-15" data-name="POLYLINE"><polygon class="cls-3" points="376.64 83.19 376.64 86.79 378.52 86.79 378.52 85.89 382.95 85.89 382.95 103.23 382.05 103.23 382.05 105.11 389.33 105.11 389.33 103.23 388.43 103.23 388.43 85.89 392.86 85.89 392.86 86.79 394.74 86.79 394.74 83.19 411.93 83.19 411.93 170.49 388.43 170.49 388.43 153.15 389.33 153.15 389.33 151.27 382.05 151.27 382.05 153.15 382.95 153.15 382.95 170.49 364.26 170.49 364.26 143.24 367.86 143.24 367.86 141.36 366.96 141.36 366.96 115.02 367.86 115.02 367.86 113.14 364.26 113.14 364.26 83.19 376.64 83.19"/></g><g id="POLYLINE-16" data-name="POLYLINE"><path class="cls-3" d="M115.55,37.47v3.71a.72.72,0,0,1-1.43,0V37.47H101.71a.85.85,0,0,0-.86.86.66.66,0,0,0,0,.14L102,45.38a.81.81,0,0,1,0,.16.94.94,0,0,1-.94.93H89.54a.94.94,0,0,1-.77-1.08l1.15-6.91a.85.85,0,0,0-.7-1H76.66v3.71h0a.71.71,0,0,1-1.42,0V37.47H69.16v38.2h8.4v1.88h-.9v1.73h.9v1.87H74v2.63h3.6v1.88h-.9v1.72h.9v1.88h-8.4v76.49h8.4v1.88h-.9v1.72h.9v1.88H74v2.63h3.6v1.87h-.9v1.73h.9v1.88h-8.4v76.48h8.4v1.88h-.9v1.73h.9v1.87H74v2.63h3.6v1.88h-.9v1.72h.9v1.88h-8.4V345.9h8.4v1.88h-.9v1.72h.9v1.88H74V354h3.6v1.87h-.9v1.73h.9v1.88h-8.4v38.2H86.35v-3.6h1.87v.9h14.34v-.9h1.88v3.6h12.38v-38.2h-3.6v-1.88h.9v-1.73h-.9V354h3.6v-2.63h-3.6V349.5h.9v-1.72h-.9V345.9h3.6V269.41h-3.6v-1.88h.9v-1.72h-.9v-1.88h3.6V261.3h-3.6v-1.87h.9V257.7h-.9v-1.88h3.6V179.34h-3.6v-1.88h.9v-1.73h-.9v-1.87h3.6v-2.63h-3.6v-1.88h.9v-1.72h-.9v-1.88h3.6V89.26h-3.6V87.38h.9V85.66h-.9V83.78h3.6V81.15h-3.6V79.28h.9V77.55h-.9V75.67h3.6V60h-3.6V58.11h.9V54.28h-.9V52.4h3.6V37.47Z"/></g><g id="POLYLINE-17" data-name="POLYLINE"><path class="cls-3" d="M410.32,224.18v6.36h-.9v1.87H413v14.94h-3.6v1.88h.9v7.58h-.9v1.88H413v7.43h-3.6V268h.9v7.59h-.9v1.87H413v7.43H390.88v-3.6H389v.9H377.67v-.9h-1.88v3.6H360.25v-3.6h-1.87v.9H347v-.9h-1.88v3.6H300.8v-3.6h-1.87v.9H287.59v-.9h-1.88v3.6H270.18v-3.6H268.3v.9H257v-.9h-1.87v3.6H232.94v-7.43h3.61v-1.87h-.9V268h.9v-1.87h-3.61v-7.43h3.61v-1.88h-.9v-7.58h.9v-1.88h-3.61V232.41h3.61v-1.87h-.9v-6.36l9.19,4h0a.94.94,0,0,0,1.24-.49.91.91,0,0,0,.08-.37V207.43a.94.94,0,0,0-.94-.94.84.84,0,0,0-.38.08l-9.19,4v-6.36h.9v-1.88h-3.61V187.38h3.61V185.5h-.9V172.36h27.24V176h1.88v-.9h26.35v.9H293v-3.61h27.24V185.5h-.9v1.88h7.28V185.5h-.9V172.36H353V176h1.88v-.9h26.34v.9h1.88v-3.61h27.25V185.5h-.9v1.88H413v14.93h-3.6v1.88h.9v6.36l-9.2-4h0a.93.93,0,0,0-1.23.48,1,1,0,0,0-.08.38V227.3a.93.93,0,0,0,1.31.86Z"/></g><g id="POLYLINE-18" data-name="POLYLINE"><polygon class="cls-3" points="123.22 195.32 123.22 193.44 127.8 193.44 127.8 195.32 126.89 195.32 126.89 212.96 140.03 212.96 140.03 212.06 141.91 212.06 141.91 214.31 149.34 214.31 149.34 212.06 151.22 212.06 151.22 212.96 164.35 212.96 164.35 195.32 163.45 195.32 163.45 193.44 167.05 193.44 167.05 178.5 163.45 178.5 163.45 176.63 164.35 176.63 164.35 164.69 163.45 164.69 163.45 162.82 167.05 162.82 167.05 147.88 163.45 147.88 163.45 146 164.35 146 164.35 105.24 163.45 105.24 163.45 103.37 167.05 103.37 167.05 88.43 163.45 88.43 163.45 86.55 164.35 86.55 164.35 74.62 163.45 74.62 163.45 72.74 167.05 72.74 167.05 57.8 163.45 57.8 163.45 55.93 164.35 55.93 164.35 38.29 151.22 38.29 151.22 39.19 149.34 39.19 149.34 36.94 141.91 36.94 141.91 39.19 140.03 39.19 140.03 38.29 126.89 38.29 126.89 55.93 127.8 55.93 127.8 57.8 123.22 57.8 123.22 55.93 124.12 55.93 124.12 38.29 119.39 38.29 119.39 212.96 124.12 212.96 124.12 195.32 123.22 195.32"/></g><g id="POLYLINE-19" data-name="POLYLINE"><polygon class="cls-3" points="346.88 83.19 346.88 86.79 345 86.79 345 85.89 340.57 85.89 340.57 103.23 341.47 103.23 341.47 105.11 334.19 105.11 334.19 103.23 335.09 103.23 335.09 85.89 330.66 85.89 330.66 86.79 328.79 86.79 328.79 83.19 311.6 83.19 311.6 170.49 335.09 170.49 335.09 153.15 334.19 153.15 334.19 151.27 341.47 151.27 341.47 153.15 340.57 153.15 340.57 170.49 359.26 170.49 359.26 143.24 355.66 143.24 355.66 141.36 356.56 141.36 356.56 115.02 355.66 115.02 355.66 113.14 359.26 113.14 359.26 83.19 346.88 83.19"/></g><g id="POLYLINE-20" data-name="POLYLINE"><path class="cls-3" d="M159.4,302.1a.72.72,0,0,1,1.43,0v3.72H173.4a.94.94,0,0,1,.77,1.08L173,313.82a.85.85,0,0,0,.71,1h11.52a.85.85,0,0,0,.86-.86.66.66,0,0,0,0-.14L185,306.91a.76.76,0,0,1,0-.15.94.94,0,0,1,.94-.94h12.41V302.1h0a.71.71,0,0,1,1.42,0v3.72H201V290.88h-3.6V289h.9V277.67h-.9v-1.88H201v-8.18h-3.6v-1.88h.9V264h-.9v-1.88H201V259.5h-3.6v-1.87h.9V255.9h-.9V254H201v-8.18h-3.6V244h.9V232.63h-.9v-1.88H201V215.82H188.6v3.6h-1.87v-.9H172.39v.9h-1.88v-3.6H153.32V254h8.41v1.88h-.9v1.73h.9v1.87h-3.6v2.63h3.6V264h-.9v1.72h.9v1.88h-8.41v38.21h6.08V302.1Z"/></g><g id="POLYLINE-21" data-name="POLYLINE"><path class="cls-3" d="M124.78,311.41a.71.71,0,1,0,1.42,0v-3.72h12.41a.94.94,0,0,0,.94-.93.81.81,0,0,0,0-.16l-1.15-6.91a.66.66,0,0,1,0-.14.85.85,0,0,1,.86-.86h11.53a.87.87,0,0,1,.71,1l-1.16,6.91a1,1,0,0,0,.78,1.08h12.56v3.72h0a.72.72,0,0,0,1.43,0v-3.72h1.27v14.94h-3.6v1.88h.9v11.33h-.9v1.88h3.6v8.18h-3.6v1.88h.9v1.72h-.9v1.88h3.6V354h-3.6v1.87h.9v1.73h-.9v1.88h3.6v8.18h-3.6v1.88h.9v11.33h-.9v1.88h3.6v14.93H154v-3.6H152.1v.9H137.76v-.9h-1.87v3.6H118.7v-38.2h8.41v-1.88h-.91v-1.73h.91V354H123.5v-2.63h3.61V349.5h-.91v-1.72h.91V345.9H118.7V307.69h6.08v3.72Z"/></g><g id="POLYLINE-22" data-name="POLYLINE"><path class="cls-3" d="M236.52,338.57v6.36h.9v1.88h-3.61v14.94h3.61v1.88h-.9v7.58h.9v1.87h-3.61v7.43h3.61v1.88h-.9V390h.9v1.88h-3.61v7.43H256v-3.6h1.87v.9h11.34v-.9H271v3.6h15.54v-3.6h1.88v.9h11.33v-.9h1.88v3.6H346v-3.6h1.88v.9h11.33v-.9h1.88v3.6h15.54v-3.6h1.87v.9h11.34v-.9h1.88v3.6h22.14v-7.43h-3.6V390h.9v-7.58h-.9v-1.88h3.6v-7.43h-3.6v-1.87h.9v-7.58h-.9v-1.88h3.6V346.81h-3.6v-1.88h.9v-6.36l-9.2,4h0a.93.93,0,0,1-1.31-.86V321.82a.8.8,0,0,1,.08-.37A.93.93,0,0,1,402,321l9.2,4v-6.36h-.9v-1.88h3.6V301.77h-3.6V299.9h.9V286.76H383.94v3.6h-1.88v-.9H355.72v.9h-1.88v-3.6H326.59V299.9h.9v1.87h-7.28V299.9h.9V286.76H293.86v3.6H292v-.9H265.64v.9h-1.88v-3.6H236.52V299.9h.9v1.87h-3.61v14.94h3.61v1.88h-.9V325l9.19-4h0a1,1,0,0,1,.38-.08.94.94,0,0,1,.93.94V341.7a.93.93,0,0,1-1.31.86Z"/></g><g id="POLYLINE-23" data-name="POLYLINE"><polygon class="cls-3" points="243.51 153.07 243.51 154.94 238.93 154.94 238.93 153.07 239.83 153.07 239.83 60.06 235.1 60.06 235.1 169.88 252.97 169.88 252.97 166.28 254.84 166.28 254.84 167.18 269.18 167.18 269.18 166.28 271.06 166.28 271.06 169.88 282.77 169.88 282.77 154.94 279.17 154.94 279.17 153.07 280.07 153.07 280.07 60.06 268.73 60.06 268.73 60.96 266.86 60.96 266.86 57.36 255.82 57.36 255.82 60.96 254.24 60.96 254.24 60.06 242.61 60.06 242.61 153.07 243.51 153.07"/></g><g id="POLYLINE-24" data-name="POLYLINE"><path class="cls-3" d="M20.89,37.47v3.71a.72.72,0,0,0,1.43,0V37.47H34.87a.86.86,0,0,1,.71,1l-1.15,6.91a.93.93,0,0,0,.77,1.08H46.74a.94.94,0,0,0,.94-.93.78.78,0,0,0,0-.16l-1.15-6.91a.66.66,0,0,1,0-.14.86.86,0,0,1,.86-.86H59.77v3.71h0a.72.72,0,0,0,1.43,0V37.47h6.08v38.2H58.87v1.88h.9v1.73h-.9v1.87h3.61v2.63H58.87v1.88h.9v1.72h-.9v1.88h8.41v76.49H58.87v1.88h.9v1.72h-.9v1.88h3.61v2.63H58.87v1.87h.9v1.73h-.9v1.88h8.41v76.48H58.87v1.88h.9v1.73h-.9v1.87h3.61v2.63H58.87v1.88h.9v1.72h-.9v1.88h8.41V345.9H58.87v1.88h.9v1.72h-.9v1.88h3.61V354H58.87v1.87h.9v1.73h-.9v1.88h8.41v38.2H50.09v-3.6H48.21v.9H33.88v-.9H32v3.6H19.61v-38.2h3.61v-1.88h-.9v-1.73h.9V354H19.61v-2.63h3.61V349.5h-.9v-1.72h.9V345.9H19.61V269.41h3.61v-1.88h-.9v-1.72h.9v-1.88H19.61V261.3h3.61v-1.87h-.9V257.7h.9v-1.88H19.61V179.34h3.61v-1.88h-.9v-1.73h.9v-1.87H19.61v-2.63h3.61v-1.88h-.9v-1.72h.9v-1.88H19.61V89.26h3.61V87.38h-.9V85.66h.9V83.78H19.61V81.15h3.61V79.28h-.9V77.55h.9V75.67H19.61V60h3.61V58.11h-.9V54.28h.9V52.4H19.61V37.47Z"/></g><g id="POLYLINE-25" data-name="POLYLINE"><polygon class="cls-3" points="184.41 46.58 181.84 46.59 181.84 45.72 180.42 45.72 180.42 50.23 181.84 50.23 181.84 49.36 184.41 49.35 184.41 50.22 185.83 50.22 185.83 45.71 184.41 45.71 184.41 46.58"/></g><g id="POLYLINE-26" data-name="POLYLINE"><polygon class="cls-3" points="184.41 78.75 181.84 78.77 181.84 77.9 180.42 77.9 180.42 82.41 181.84 82.41 181.84 81.54 184.41 81.53 184.41 82.4 185.83 82.4 185.83 77.89 184.41 77.89 184.41 78.75"/></g><g id="POLYLINE-27" data-name="POLYLINE"><polygon class="cls-3" points="184.41 199.01 181.84 199.02 181.84 198.16 180.42 198.16 180.42 202.66 181.84 202.66 181.84 201.8 184.41 201.79 184.41 202.65 185.83 202.65 185.83 198.14 184.41 198.14 184.41 199.01"/></g><g id="POLYLINE-28" data-name="POLYLINE"><polygon class="cls-3" points="184.41 168.84 181.84 168.85 181.84 167.99 180.42 167.99 180.42 172.49 181.84 172.49 181.84 171.63 184.41 171.62 184.41 172.48 185.83 172.48 185.83 167.97 184.41 167.97 184.41 168.84"/></g><g id="POLYLINE-29" data-name="POLYLINE"><polygon class="cls-3" points="184.41 123.37 181.84 123.38 181.84 122.52 180.42 122.52 180.42 127.03 181.84 127.03 181.84 126.16 184.41 126.15 184.41 127.02 185.83 127.02 185.83 122.51 184.41 122.51 184.41 123.37"/></g><g id="POLYLINE-30" data-name="POLYLINE"><polygon class="cls-3" points="140.32 281.62 139.11 281.63 139.11 280.77 137.69 280.77 137.69 285.27 139.11 285.27 139.11 284.41 140.32 284.4 140.32 285.26 141.74 285.26 141.74 280.76 140.32 280.76 140.32 281.62"/></g><g id="POLYLINE-31" data-name="POLYLINE"><polygon class="cls-3" points="140.32 229.35 139.11 229.36 139.11 228.49 137.69 228.49 137.69 233 139.11 233 139.11 232.13 140.32 232.12 140.32 232.99 141.74 232.99 141.74 228.48 140.32 228.48 140.32 229.35"/></g><g id="POLYLINE-32" data-name="POLYLINE"><polygon class="cls-3" points="140.32 255.55 139.11 255.56 139.11 254.69 137.69 254.69 137.69 259.2 139.11 259.2 139.11 258.34 140.32 258.33 140.32 259.19 141.74 259.19 141.74 254.68 140.32 254.68 140.32 255.55"/></g><g id="POLYLINE-33" data-name="POLYLINE"><polygon class="cls-3" points="190.82 355.88 189.61 355.89 189.61 355.02 188.19 355.02 188.19 359.53 189.61 359.53 189.61 358.67 190.82 358.66 190.82 359.52 192.24 359.52 192.24 355.01 190.82 355.01 190.82 355.88"/></g><g id="POLYLINE-34" data-name="POLYLINE"><polygon class="cls-3" points="190.82 329.68 189.61 329.69 189.61 328.82 188.19 328.82 188.19 333.33 189.61 333.33 189.61 332.46 190.82 332.45 190.82 333.32 192.24 333.32 192.24 328.81 190.82 328.81 190.82 329.68"/></g><g id="POLYLINE-35" data-name="POLYLINE"><polygon class="cls-3" points="190.82 381.95 189.61 381.96 189.61 381.1 188.19 381.1 188.19 385.61 189.61 385.61 189.61 384.74 190.82 384.73 190.82 385.6 192.24 385.6 192.24 381.09 190.82 381.09 190.82 381.95"/></g><g id="POLYLINE-36" data-name="POLYLINE"><polygon class="cls-3" points="75.76 51.5 75.76 52.4 77.56 52.4 77.56 54.28 76.66 54.28 76.66 58.11 77.56 58.11 77.56 59.98 75.76 59.98 75.76 60.88 73.89 60.88 73.89 51.5 75.76 51.5"/></g><g id="POLYLINE-37" data-name="POLYLINE"><polygon class="cls-3" points="248.86 184 247.96 184 247.96 178.67 248.86 178.67 248.86 176.79 241.58 176.79 241.58 178.67 242.48 178.67 242.48 184 241.58 184 241.58 185.88 248.86 185.88 248.86 184"/></g><g id="POLYLINE-38" data-name="POLYLINE"><polygon class="cls-3" points="332.55 184 331.65 184 331.65 185.88 338.93 185.88 338.93 184 338.03 184 338.03 178.67 338.93 178.67 338.93 176.79 331.65 176.79 331.65 178.67 332.55 178.67 332.55 184"/></g><g id="POLYLINE-39" data-name="POLYLINE"><polygon class="cls-3" points="404.39 184 403.49 184 403.49 178.67 404.39 178.67 404.39 176.79 397.11 176.79 397.11 178.67 398.01 178.67 398.01 184 397.11 184 397.11 185.88 404.39 185.88 404.39 184"/></g><g id="POLYLINE-40" data-name="POLYLINE"><polygon class="cls-3" points="307.03 184 307.03 185.88 314.31 185.88 314.31 184 313.41 184 313.41 178.67 314.31 178.67 314.31 176.79 307.03 176.79 307.03 178.67 307.93 178.67 307.93 184 307.03 184"/></g><g id="POLYLINE-41" data-name="POLYLINE"><polygon class="cls-3" points="127.8 146 127.8 147.88 123.22 147.88 123.22 146 124.12 146 124.12 105.24 123.22 105.24 123.22 103.37 127.8 103.37 127.8 105.24 126.89 105.24 126.89 146 127.8 146"/></g><g id="POLYLINE-42" data-name="POLYLINE"><polygon class="cls-3" points="127.8 162.82 127.8 164.69 126.89 164.69 126.89 176.63 127.8 176.63 127.8 178.5 123.22 178.5 123.22 176.63 124.12 176.63 124.12 164.69 123.22 164.69 123.22 162.82 127.8 162.82"/></g><g id="POLYLINE-43" data-name="POLYLINE"><polygon class="cls-3" points="123.22 72.74 127.8 72.74 127.8 74.62 126.89 74.62 126.89 86.55 127.8 86.55 127.8 88.43 123.22 88.43 123.22 86.55 124.12 86.55 124.12 74.62 123.22 74.62 123.22 72.74"/></g><g id="POLYLINE-44" data-name="POLYLINE"><polygon class="cls-3" points="141.91 121.98 141.91 122.88 149.34 122.88 149.34 121.98 151.22 121.98 151.22 129.26 149.34 129.26 149.34 128.36 141.91 128.36 141.91 129.26 140.03 129.26 140.03 121.98 141.91 121.98"/></g><g id="POLYLINE-45" data-name="POLYLINE"><polygon class="cls-3" points="159.93 275.79 161.73 275.79 161.73 277.67 160.83 277.67 160.83 289 161.73 289 161.73 290.88 159.93 290.88 159.93 291.78 158.05 291.78 158.05 274.89 159.93 274.89 159.93 275.79"/></g><g id="POLYLINE-46" data-name="POLYLINE"><polygon class="cls-3" points="159.93 245.84 159.93 246.74 158.05 246.74 158.05 229.85 159.93 229.85 159.93 230.75 161.73 230.75 161.73 232.63 160.83 232.63 160.83 243.97 161.73 243.97 161.73 245.84 159.93 245.84"/></g><g id="POLYLINE-47" data-name="POLYLINE"><polygon class="cls-3" points="125.3 367.67 125.3 366.77 123.43 366.77 123.43 383.66 125.3 383.66 125.3 382.76 127.11 382.76 127.11 380.88 126.2 380.88 126.2 369.55 127.11 369.55 127.11 367.67 125.3 367.67"/></g><g id="POLYLINE-48" data-name="POLYLINE"><polygon class="cls-3" points="125.3 337.72 127.11 337.72 127.11 335.84 126.2 335.84 126.2 324.51 127.11 324.51 127.11 322.63 125.3 322.63 125.3 321.73 123.43 321.73 123.43 338.62 125.3 338.62 125.3 337.72"/></g><g id="POLYLINE-49" data-name="POLYLINE"><polygon class="cls-3" points="397.98 298.39 398.88 298.39 398.88 293.07 397.98 293.07 397.98 291.19 405.26 291.19 405.26 293.07 404.36 293.07 404.36 298.39 405.26 298.39 405.26 300.27 397.98 300.27 397.98 298.39"/></g><g id="POLYLINE-50" data-name="POLYLINE"><polygon class="cls-3" points="314.28 298.39 315.18 298.39 315.18 300.27 307.9 300.27 307.9 298.39 308.8 298.39 308.8 293.07 307.9 293.07 307.9 291.19 315.18 291.19 315.18 293.07 314.28 293.07 314.28 298.39"/></g><g id="POLYLINE-51" data-name="POLYLINE"><polygon class="cls-3" points="242.44 298.39 243.35 298.39 243.35 293.07 242.44 293.07 242.44 291.19 249.73 291.19 249.73 293.07 248.82 293.07 248.82 298.39 249.73 298.39 249.73 300.27 242.44 300.27 242.44 298.39"/></g><g id="POLYLINE-52" data-name="POLYLINE"><polygon class="cls-3" points="339.8 298.39 339.8 300.27 332.52 300.27 332.52 298.39 333.42 298.39 333.42 293.07 332.52 293.07 332.52 291.19 339.8 291.19 339.8 293.07 338.9 293.07 338.9 298.39 339.8 298.39"/></g><g id="POLYLINE-53" data-name="POLYLINE"><polygon class="cls-3" points="60.67 51.5 60.67 52.4 58.87 52.4 58.87 54.28 59.77 54.28 59.77 58.11 58.87 58.11 58.87 59.98 60.67 59.98 60.67 60.88 62.55 60.88 62.55 51.5 60.67 51.5"/></g><g id="POLYLINE-54" data-name="POLYLINE"><rect class="cls-4" x="18.59" y="33.91" width="183.15" height="366.31"/></g><g id="POLYLINE-55" data-name="POLYLINE"><rect class="cls-4" x="231.77" y="33.91" width="183.15" height="366.31"/></g></svg>