<svg id="Layer_1" data-name="Layer 1" xmlns="http://www.w3.org/2000/svg" viewBox="0 0 425.2 425.2"><defs><style>.cls-1,.cls-3{fill:none;stroke:#1d1d1b;stroke-miterlimit:10;}.cls-1{stroke-width:0.5px;}.cls-2{font-size:6px;fill:#1d1d1b;font-family:Monotxt;}.cls-3{stroke-width:0.25px;}</style></defs><g id="POLYLINE"><polygon class="cls-1" points="34.07 354.11 38.54 354.11 38.54 351.4 37.64 351.4 37.64 349.6 44.84 349.6 44.84 351.4 43.94 351.4 43.94 354.11 48.4 354.11 48.4 353.2 50.28 353.2 50.28 356.81 62.66 356.81 62.66 341.88 59.06 341.88 59.06 340 59.96 340 59.96 247.04 48.63 247.04 48.63 247.94 46.75 247.94 46.75 244.34 35.72 244.34 35.72 247.94 34.15 247.94 34.15 247.04 22.52 247.04 22.52 340 23.42 340 23.42 341.88 18.84 341.88 18.84 340 19.74 340 19.74 247.04 15.02 247.04 15.02 356.81 32.2 356.81 32.2 353.2 34.07 353.2 34.07 354.11"/></g><g id="POLYLINE-2" data-name="POLYLINE"><polygon class="cls-1" points="34.07 171.87 38.54 171.87 38.54 169.16 37.64 169.16 37.64 167.36 44.84 167.36 44.84 169.16 43.94 169.16 43.94 171.87 48.4 171.87 48.4 170.97 50.28 170.97 50.28 174.57 62.66 174.57 62.66 159.63 59.06 159.63 59.06 157.76 59.96 157.76 59.96 64.8 48.63 64.8 48.63 65.7 46.75 65.7 46.75 62.1 35.72 62.1 35.72 65.7 34.15 65.7 34.15 64.8 22.52 64.8 22.52 157.76 23.42 157.76 23.42 159.63 18.84 159.63 18.84 157.76 19.74 157.76 19.74 64.8 15.02 64.8 15.02 174.57 32.2 174.57 32.2 170.97 34.07 170.97 34.07 171.87"/></g><g id="POLYLINE-3" data-name="POLYLINE"><polygon class="cls-1" points="15.02 359 15.02 391.04 19.74 391.04 19.74 365.3 18.84 365.3 18.84 363.43 23.42 363.43 23.42 365.3 22.52 365.3 22.52 391.04 34.15 391.04 34.15 390.14 35.72 390.14 35.72 393.74 46.75 393.74 46.75 390.14 48.63 390.14 48.63 391.04 59.96 391.04 59.96 365.3 59.06 365.3 59.06 363.43 62.66 363.43 62.66 359 50.28 359 50.28 362.6 48.4 362.6 48.4 361.7 43.94 361.7 43.94 364.4 44.84 364.4 44.84 366.2 37.64 366.2 37.64 364.4 38.54 364.4 38.54 361.7 34.07 361.7 34.07 362.6 32.2 362.6 32.2 359 15.02 359"/></g><g id="POLYLINE-4" data-name="POLYLINE"><polygon class="cls-1" points="15.02 176.76 15.02 208.8 19.74 208.8 19.74 183.06 18.84 183.06 18.84 181.19 23.42 181.19 23.42 183.06 22.52 183.06 22.52 208.8 34.15 208.8 34.15 207.9 35.72 207.9 35.72 211.5 46.75 211.5 46.75 207.9 48.63 207.9 48.63 208.8 59.96 208.8 59.96 183.06 59.06 183.06 59.06 181.19 62.66 181.19 62.66 176.76 50.28 176.76 50.28 180.36 48.4 180.36 48.4 179.46 43.94 179.46 43.94 182.16 44.84 182.16 44.84 183.96 37.64 183.96 37.64 182.16 38.54 182.16 38.54 179.46 34.07 179.46 34.07 180.36 32.2 180.36 32.2 176.76 15.02 176.76"/></g><g id="POLYLINE-5" data-name="POLYLINE"><polygon class="cls-1" points="176.55 81.78 172.09 81.78 172.09 84.48 172.99 84.48 172.99 86.28 165.78 86.28 165.78 84.48 166.68 84.48 166.68 81.78 162.22 81.78 162.22 82.68 160.34 82.68 160.34 79.08 147.97 79.08 147.97 94.01 151.57 94.01 151.57 95.88 150.67 95.88 150.67 107.21 151.57 107.21 151.57 109.09 147.97 109.09 147.97 162.28 151.57 162.28 151.57 164.16 150.67 164.16 150.67 165.88 151.57 165.88 151.57 167.76 147.97 167.76 147.97 170.38 151.57 170.38 151.57 172.26 150.67 172.26 150.67 173.99 151.57 173.99 151.57 175.86 147.97 175.86 147.97 252.31 151.57 252.31 151.57 254.19 150.67 254.19 150.67 255.91 151.57 255.91 151.57 257.79 147.97 257.79 147.97 260.42 151.57 260.42 151.57 262.29 150.67 262.29 150.67 264.02 151.57 264.02 151.57 265.89 147.97 265.89 147.97 281.57 151.57 281.57 151.57 283.45 150.67 283.45 150.67 287.28 151.57 287.28 151.57 289.15 147.97 289.15 147.97 319.09 151.57 319.09 151.57 320.96 150.67 320.96 150.67 332.29 151.57 332.29 151.57 334.17 147.97 334.17 147.97 342.35 151.57 342.35 151.57 344.22 150.67 344.22 150.67 345.95 151.57 345.95 151.57 347.82 147.97 347.82 147.97 350.45 151.57 350.45 151.57 352.32 150.67 352.32 150.67 354.05 151.57 354.05 151.57 355.93 147.97 355.93 147.97 364.1 151.57 364.1 151.57 365.98 150.67 365.98 150.67 377.31 151.57 377.31 151.57 379.18 147.97 379.18 147.97 394.12 160.34 394.12 160.34 390.51 162.22 390.51 162.22 391.41 166.68 391.41 166.68 388.71 165.78 388.71 165.78 386.91 172.99 386.91 172.99 388.71 172.09 388.71 172.09 391.41 176.55 391.41 176.55 390.51 178.43 390.51 178.43 394.12 195.61 394.12 195.61 355.93 187.2 355.93 187.2 354.05 188.1 354.05 188.1 352.32 187.2 352.32 187.2 350.45 190.81 350.45 190.81 347.82 187.2 347.82 187.2 345.95 188.1 345.95 188.1 344.22 187.2 344.22 187.2 342.35 195.61 342.35 195.61 265.89 187.2 265.89 187.2 264.02 188.1 264.02 188.1 262.29 187.2 262.29 187.2 260.42 190.81 260.42 190.81 257.79 187.2 257.79 187.2 255.91 188.1 255.91 188.1 254.19 187.2 254.19 187.2 252.31 195.61 252.31 195.61 175.86 187.2 175.86 187.2 173.99 188.1 173.99 188.1 172.26 187.2 172.26 187.2 170.38 190.81 170.38 190.81 167.76 187.2 167.76 187.2 165.88 188.1 165.88 188.1 164.16 187.2 164.16 187.2 162.28 195.61 162.28 195.61 79.08 178.43 79.08 178.43 82.68 176.55 82.68 176.55 81.78"/></g><g id="POLYLINE-6" data-name="POLYLINE"><polygon class="cls-1" points="117.58 391.41 117.58 390.51 115.7 390.51 115.7 394.12 98.52 394.12 98.52 355.93 106.92 355.93 106.92 354.05 106.02 354.05 106.02 352.32 106.92 352.32 106.92 350.45 103.32 350.45 103.32 347.82 106.92 347.82 106.92 345.95 106.02 345.95 106.02 344.22 106.92 344.22 106.92 342.35 98.52 342.35 98.52 265.89 106.92 265.89 106.92 264.02 106.02 264.02 106.02 262.29 106.92 262.29 106.92 260.42 103.32 260.42 103.32 257.79 106.92 257.79 106.92 255.91 106.02 255.91 106.02 254.19 106.92 254.19 106.92 252.31 98.52 252.31 98.52 175.86 106.92 175.86 106.92 173.99 106.02 173.99 106.02 172.26 106.92 172.26 106.92 170.38 103.32 170.38 103.32 167.76 106.92 167.76 106.92 165.88 106.02 165.88 106.02 164.16 106.92 164.16 106.92 162.28 98.52 162.28 98.52 79.08 115.7 79.08 115.7 82.68 117.58 82.68 117.58 81.78 122.04 81.78 122.04 84.48 121.14 84.48 121.14 86.28 128.34 86.28 128.34 84.48 127.44 84.48 127.44 81.78 131.91 81.78 131.91 82.68 133.78 82.68 133.78 79.08 146.16 79.08 146.16 94.01 142.56 94.01 142.56 95.88 143.46 95.88 143.46 107.21 142.56 107.21 142.56 109.09 146.16 109.09 146.16 162.28 142.56 162.28 142.56 164.16 143.46 164.16 143.46 165.88 142.56 165.88 142.56 167.76 146.16 167.76 146.16 170.38 142.56 170.38 142.56 172.26 143.46 172.26 143.46 173.99 142.56 173.99 142.56 175.86 146.16 175.86 146.16 252.31 142.56 252.31 142.56 254.19 143.46 254.19 143.46 255.91 142.56 255.91 142.56 257.79 146.16 257.79 146.16 260.42 142.56 260.42 142.56 262.29 143.46 262.29 143.46 264.02 142.56 264.02 142.56 265.89 146.16 265.89 146.16 281.57 142.56 281.57 142.56 283.45 143.46 283.45 143.46 287.28 142.56 287.28 142.56 289.15 146.16 289.15 146.16 319.09 142.56 319.09 142.56 320.96 143.46 320.96 143.46 332.29 142.56 332.29 142.56 334.17 146.16 334.17 146.16 342.35 142.56 342.35 142.56 344.22 143.46 344.22 143.46 345.95 142.56 345.95 142.56 347.82 146.16 347.82 146.16 350.45 142.56 350.45 142.56 352.32 143.46 352.32 143.46 354.05 142.56 354.05 142.56 355.93 146.16 355.93 146.16 364.1 142.56 364.1 142.56 365.98 143.46 365.98 143.46 377.31 142.56 377.31 142.56 379.18 146.16 379.18 146.16 394.12 133.78 394.12 133.78 390.51 131.91 390.51 131.91 391.41 127.44 391.41 127.44 388.71 128.34 388.71 128.34 386.91 121.14 386.91 121.14 388.71 122.04 388.71 122.04 391.41 117.58 391.41"/></g><g id="POLYLINE-7" data-name="POLYLINE"><path class="cls-1" d="M104.27,34.12a.9.9,0,0,0-.9.9v7.2a.9.9,0,0,0,.9.9l42,.08V34.05Z"/></g><g id="POLYLINE-8" data-name="POLYLINE"><path class="cls-1" d="M104.08,67a.9.9,0,0,0-.9.9v7.21a.9.9,0,0,0,.9.9l42,.07V66.91Z"/></g><g id="POLYLINE-9" data-name="POLYLINE"><path class="cls-1" d="M104.08,56a.9.9,0,0,0-.9.9v7.2a.9.9,0,0,0,.9.9l42,.08V56Z"/></g><g id="POLYLINE-10" data-name="POLYLINE"><path class="cls-1" d="M104.18,45.07a.9.9,0,0,0-.9.9v7.21a.9.9,0,0,0,.9.9l42,.07V45Z"/></g><g id="POLYLINE-11" data-name="POLYLINE"><path class="cls-1" d="M321.05,386.87a.9.9,0,0,0-.9.9V395a.9.9,0,0,0,.9.9l42,.07V386.8Z"/></g><g id="POLYLINE-12" data-name="POLYLINE"><path class="cls-1" d="M326.29,384.5a1,1,0,0,1-.35.07.9.9,0,0,1-.91-.9v-6.93a3,3,0,0,1,0-6V363.8a.85.85,0,0,1,.08-.35.89.89,0,0,1,1.18-.47l9.25,4h5.4v13.51h-5.4l-9.25,4Z"/></g><g id="POLYLINE-13" data-name="POLYLINE"><path class="cls-1" d="M357.39,384.5a.91.91,0,0,0,1.18-.47.94.94,0,0,0,.08-.36v-6.93a3,3,0,0,0,0-6V363.8a.91.91,0,0,0-.9-.9.86.86,0,0,0-.36.08l-9.25,4h-5.4v13.51h5.4l9.25,4Z"/></g><g id="POLYLINE-14" data-name="POLYLINE"><path class="cls-1" d="M403.16,384.5a.91.91,0,0,0,1.18-.47.92.92,0,0,0,.07-.36v-6.93a3,3,0,1,0,0-6V363.8a.9.9,0,0,0-.9-.9.85.85,0,0,0-.35.08l-9.25,4h-5.4v13.51h5.4l9.25,4Z"/></g><g id="POLYLINE-15" data-name="POLYLINE"><path class="cls-1" d="M372.06,384.5a1.1,1.1,0,0,1-.36.07.9.9,0,0,1-.9-.9v-6.93a3,3,0,1,1,0-6V363.8a.85.85,0,0,1,.08-.35.89.89,0,0,1,1.18-.47l9.25,4h5.4v13.51h-5.4l-9.25,4Z"/></g><g id="POLYLINE-16" data-name="POLYLINE"><path class="cls-1" d="M366.81,386.87a.91.91,0,0,0-.9.9V395a.91.91,0,0,0,.9.9l42,.07V386.8Z"/></g><g id="POLYLINE-17" data-name="POLYLINE"><path class="cls-1" d="M311.77,384.5a.9.9,0,0,0,1.26-.83v-6.93a3,3,0,0,0,0-6V363.8a.9.9,0,0,0-.9-.9.94.94,0,0,0-.36.08l-9.24,4h-5.41v13.51h5.41l9.24,4Z"/></g><g id="POLYLINE-18" data-name="POLYLINE"><path class="cls-1" d="M280.68,384.5a1.15,1.15,0,0,1-.36.07.9.9,0,0,1-.9-.9v-6.93a3,3,0,0,1,0-6V363.8a.84.84,0,0,1,.07-.35.9.9,0,0,1,1.19-.47l9.24,4h5.4v13.51h-5.4l-9.24,4Z"/></g><g id="POLYLINE-19" data-name="POLYLINE"><path class="cls-1" d="M275.43,386.87a.9.9,0,0,0-.9.9V395a.9.9,0,0,0,.9.9l42,.07V386.8Z"/></g><g id="POLYLINE-20" data-name="POLYLINE"><path class="cls-1" d="M265.86,384.5A.91.91,0,0,0,267,384a.92.92,0,0,0,.07-.36v-6.93a3,3,0,0,0,0-6V363.8a.9.9,0,0,0-.9-.9.85.85,0,0,0-.35.08l-9.25,4h-5.4v13.51h5.4l9.25,4Z"/></g><g id="POLYLINE-21" data-name="POLYLINE"><path class="cls-1" d="M234.76,384.5a1,1,0,0,1-.36.07.9.9,0,0,1-.9-.9v-6.93a3,3,0,0,1,0-6V363.8a.85.85,0,0,1,.08-.35.89.89,0,0,1,1.18-.47l9.25,4h5.4v13.51H244l-9.25,4Z"/></g><g id="POLYLINE-22" data-name="POLYLINE"><path class="cls-1" d="M229.51,386.87a.91.91,0,0,0-.9.9V395a.91.91,0,0,0,.9.9l42,.07V386.8Z"/></g><g id="POLYLINE-23" data-name="POLYLINE"><path class="cls-1" d="M152.14,34.12a.9.9,0,0,0-.9.9v7.2a.9.9,0,0,0,.9.9l42,.08V34.05Z"/></g><g id="POLYLINE-24" data-name="POLYLINE"><path class="cls-1" d="M152,67a.9.9,0,0,0-.9.9v7.21a.9.9,0,0,0,.9.9l42,.07V66.91Z"/></g><g id="POLYLINE-25" data-name="POLYLINE"><path class="cls-1" d="M152,56a.9.9,0,0,0-.9.9v7.2a.9.9,0,0,0,.9.9l42,.08V56Z"/></g><g id="POLYLINE-26" data-name="POLYLINE"><path class="cls-1" d="M152,45.07a.91.91,0,0,0-.9.9v7.21a.91.91,0,0,0,.9.9l42,.07V45Z"/></g><g id="POLYLINE-27" data-name="POLYLINE"><path class="cls-1" d="M17.34,217.78a.9.9,0,0,0-.9.9v7.2a.9.9,0,0,0,.9.9l42,.08V217.7Z"/></g><g id="POLYLINE-28" data-name="POLYLINE"><path class="cls-1" d="M17.34,228.73a.9.9,0,0,0-.9.9v7.2a.9.9,0,0,0,.9.9l42,.08v-9.15Z"/></g><g id="POLYLINE-29" data-name="POLYLINE"><path class="cls-1" d="M17.34,36.66a.9.9,0,0,0-.9.9v7.2a.9.9,0,0,0,.9.9l42,.08V36.59Z"/></g><g id="POLYLINE-30" data-name="POLYLINE"><path class="cls-1" d="M17.34,47.62a.9.9,0,0,0-.9.9v7.2a.9.9,0,0,0,.9.9l42,.07V47.54Z"/></g><g id="POLYLINE-31" data-name="POLYLINE"><polygon class="cls-1" points="387.94 316.69 386.06 316.69 386.06 321.26 387.94 321.26 387.94 320.36 405.57 320.36 405.57 333.49 404.67 333.49 404.67 335.37 406.92 335.37 406.92 342.8 404.67 342.8 404.67 344.67 405.57 344.67 405.57 357.8 387.94 357.8 387.94 356.9 386.06 356.9 386.06 360.5 371.13 360.5 371.13 356.9 369.26 356.9 369.26 357.8 357.33 357.8 357.33 356.9 355.45 356.9 355.45 360.5 340.52 360.5 340.52 356.9 338.65 356.9 338.65 357.8 297.91 357.8 297.91 356.9 296.03 356.9 296.03 360.5 281.1 360.5 281.1 356.9 279.23 356.9 279.23 357.8 267.3 357.8 267.3 356.9 265.42 356.9 265.42 360.5 250.49 360.5 250.49 356.9 248.62 356.9 248.62 357.8 230.98 357.8 230.98 344.67 231.88 344.67 231.88 342.8 229.63 342.8 229.63 335.37 231.88 335.37 231.88 333.49 230.98 333.49 230.98 320.36 248.62 320.36 248.62 321.26 250.49 321.26 250.49 316.69 248.62 316.69 248.62 317.59 230.98 317.59 230.98 312.86 405.57 312.86 405.57 317.59 387.94 317.59 387.94 316.69"/></g><g id="POLYLINE-32" data-name="POLYLINE"><path class="cls-1" d="M405.72,94V87.63h-.9V85.76h3.6V70.83h-3.6V69h.9V61.37h-.9V59.5h3.6V52.07h-3.6V50.19h.9V42.62h-.9V40.74h3.6V33.31H386.29v3.6h-1.88V36H373.09v.9h-1.88v-3.6H355.68v3.6H353.8V36H342.47v.9H340.6v-3.6H296.26v3.6h-1.88V36H283.05v.9h-1.87v-3.6H265.65v3.6h-1.88V36H252.44v.9h-1.87v-3.6H228.43v7.43H232v1.88h-.9v7.57h.9v1.88h-3.6V59.5H232v1.87h-.9V69h.9v1.88h-3.6V85.76H232v1.87h-.9V94l9.2-4h0a.77.77,0,0,1,.37-.08.94.94,0,0,1,.94.94v19.86a.91.91,0,0,1-.08.37.93.93,0,0,1-1.23.49l-9.2-4V114h.9v1.87h-3.6v14.93H232v1.88h-.9v13.13h27.24v-3.6h1.87v.9h26.34v-.9h1.87v3.6h27.24V132.65h-.9v-1.88h7.28v1.88h-.9v13.13H348.4v-3.6h1.88v.9h26.33v-.9h1.88v3.6h27.23V132.65h-.9v-1.88h3.6V115.84h-3.6V114h.9v-6.36l-9.19,4h0a1,1,0,0,1-.37.08.94.94,0,0,1-.94-.94V90.87a.84.84,0,0,1,.08-.38.93.93,0,0,1,1.23-.48Z"/></g><g id="POLYLINE-33" data-name="POLYLINE"><polygon class="cls-1" points="93.87 239.54 92.97 239.54 92.97 237.66 96.57 237.66 96.57 218.23 93.64 218.23 93.64 219.13 91.77 219.13 91.77 215.53 76.84 215.53 76.84 219.13 74.96 219.13 74.96 218.23 61.83 218.23 61.83 245.47 65.44 245.47 65.44 247.34 64.53 247.34 64.53 273.68 65.44 273.68 65.44 275.55 61.83 275.55 61.83 302.79 64.46 302.79 64.46 301.89 66.33 301.89 66.33 309.17 64.46 309.17 64.46 308.26 61.83 308.26 61.83 335.5 65.44 335.5 65.44 337.38 64.53 337.38 64.53 363.71 65.44 363.71 65.44 365.58 61.83 365.58 61.83 392.82 74.96 392.82 74.96 391.92 76.84 391.92 76.84 395.52 91.77 395.52 91.77 391.92 93.64 391.92 93.64 392.82 96.57 392.82 96.57 373.39 92.97 373.39 92.97 371.51 93.87 371.51 93.87 360.18 92.97 360.18 92.97 358.31 96.57 358.31 96.57 342.78 92.97 342.78 92.97 340.9 93.87 340.9 93.87 329.57 92.97 329.57 92.97 327.7 96.57 327.7 96.57 283.36 92.97 283.36 92.97 281.48 93.87 281.48 93.87 270.15 92.97 270.15 92.97 268.27 96.57 268.27 96.57 252.74 92.97 252.74 92.97 250.87 93.87 250.87 93.87 239.54"/></g><g id="POLYLINE-34" data-name="POLYLINE"><polygon class="cls-1" points="93.87 57.3 92.97 57.3 92.97 55.42 96.57 55.42 96.57 35.99 93.64 35.99 93.64 36.89 91.77 36.89 91.77 33.29 76.84 33.29 76.84 36.89 74.96 36.89 74.96 35.99 61.83 35.99 61.83 63.23 65.44 63.23 65.44 65.1 64.53 65.1 64.53 91.44 65.44 91.44 65.44 93.31 61.83 93.31 61.83 120.55 64.46 120.55 64.46 119.65 66.33 119.65 66.33 126.92 64.46 126.92 64.46 126.02 61.83 126.02 61.83 153.26 65.44 153.26 65.44 155.13 64.53 155.13 64.53 181.47 65.44 181.47 65.44 183.34 61.83 183.34 61.83 210.58 74.96 210.58 74.96 209.68 76.84 209.68 76.84 213.28 91.77 213.28 91.77 209.68 93.64 209.68 93.64 210.58 96.57 210.58 96.57 191.15 92.97 191.15 92.97 189.27 93.87 189.27 93.87 177.94 92.97 177.94 92.97 176.07 96.57 176.07 96.57 160.54 92.97 160.54 92.97 158.66 93.87 158.66 93.87 147.33 92.97 147.33 92.97 145.46 96.57 145.46 96.57 101.11 92.97 101.11 92.97 99.24 93.87 99.24 93.87 87.91 92.97 87.91 92.97 86.03 96.57 86.03 96.57 70.5 92.97 70.5 92.97 68.63 93.87 68.63 93.87 57.3"/></g><g id="POLYLINE-35" data-name="POLYLINE"><polygon class="cls-1" points="387.94 266.72 386.06 266.72 386.06 271.3 387.94 271.3 387.94 270.4 405.57 270.4 405.57 283.53 404.67 283.53 404.67 285.4 406.92 285.4 406.92 292.83 404.67 292.83 404.67 294.71 405.57 294.71 405.57 307.83 387.94 307.83 387.94 306.94 386.06 306.94 386.06 310.54 371.13 310.54 371.13 306.94 369.26 306.94 369.26 307.83 357.33 307.83 357.33 306.94 355.45 306.94 355.45 310.54 340.52 310.54 340.52 306.94 338.65 306.94 338.65 307.83 297.91 307.83 297.91 306.94 296.03 306.94 296.03 310.54 281.1 310.54 281.1 306.94 279.23 306.94 279.23 307.83 267.3 307.83 267.3 306.94 265.42 306.94 265.42 310.54 250.49 310.54 250.49 306.94 248.62 306.94 248.62 307.83 230.98 307.83 230.98 294.71 231.88 294.71 231.88 292.83 229.63 292.83 229.63 285.4 231.88 285.4 231.88 283.53 230.98 283.53 230.98 270.4 248.62 270.4 248.62 271.3 250.49 271.3 250.49 266.72 248.62 266.72 248.62 267.62 230.98 267.62 230.98 262.89 405.57 262.89 405.57 267.62 387.94 267.62 387.94 266.72"/></g><g id="POLYLINE-36" data-name="POLYLINE"><path class="cls-1" d="M405.72,208.78v-6.36h-.9v-1.87h3.6V185.62h-3.6v-1.88h.9v-7.58h-.9v-1.87h3.6v-7.43h-3.6V165h.9v-7.57h-.9v-1.88h3.6V148.1H386.29v3.6h-1.88v-.9H373.09v.9h-1.88v-3.6H355.68v3.6H353.8v-.9H342.47v.9H340.6v-3.6H296.26v3.6h-1.88v-.9H283.05v.9h-1.87v-3.6H265.65v3.6h-1.88v-.9H252.44v.9h-1.87v-3.6H228.43v7.43H232v1.88h-.9V165h.9v1.88h-3.6v7.43H232v1.87h-.9v7.58h.9v1.88h-3.6v14.93H232v1.87h-.9v6.36l9.2-4h0a.91.91,0,0,1,.37-.08.94.94,0,0,1,.94.94v19.86a1,1,0,0,1-.08.38.93.93,0,0,1-1.23.48l-9.2-4v6.36h.9v1.87h-3.6v14.93H232v1.88h-.9v13.13h27.24V257h1.87v.9h26.34V257h1.87v3.6h27.24V247.44h-.9v-1.88h7.28v1.88h-.9v13.13H348.4V257h1.88v.9h26.33V257h1.88v3.6h27.23V247.44h-.9v-1.88h3.6V230.63h-3.6v-1.87h.9V222.4l-9.19,4h0a1,1,0,0,1-.37.08.94.94,0,0,1-.94-.94V205.66a.84.84,0,0,1,.08-.38.93.93,0,0,1,1.23-.48Z"/></g><g id="MTEXT"><text class="cls-2" transform="translate(29.51 374.02)">WINDOW</text><text class="cls-2" transform="translate(31.4 380.31)">-S1/E</text></g><g id="MTEXT-2" data-name="MTEXT"><text class="cls-2" transform="translate(110.21 41.77)">&lt;PEG</text></g><g id="MTEXT-3" data-name="MTEXT"><text class="cls-2" transform="translate(110.01 74.63)">&lt;PEG</text></g><g id="MTEXT-4" data-name="MTEXT"><text class="cls-2" transform="translate(110.01 63.67)">&lt;PEG</text></g><g id="MTEXT-5" data-name="MTEXT"><text class="cls-2" transform="translate(110.11 52.72)">&lt;PEG</text></g><g id="MTEXT-6" data-name="MTEXT"><text class="cls-2" transform="translate(326.98 394.52)">&lt;PEG</text></g><g id="MTEXT-7" data-name="MTEXT"><text class="cls-2" transform="translate(372.75 394.52)">&lt;PEG</text></g><g id="MTEXT-8" data-name="MTEXT"><text class="cls-2" transform="translate(281.36 394.52)">&lt;PEG</text></g><g id="MTEXT-9" data-name="MTEXT"><text class="cls-2" transform="translate(235.45 394.52)">&lt;PEG</text></g><g id="MTEXT-10" data-name="MTEXT"><text class="cls-2" transform="translate(158.07 41.77)">&lt;PEG</text></g><g id="MTEXT-11" data-name="MTEXT"><text class="cls-2" transform="translate(157.88 74.63)">&lt;PEG</text></g><g id="MTEXT-12" data-name="MTEXT"><text class="cls-2" transform="translate(157.88 63.67)">&lt;PEG</text></g><g id="MTEXT-13" data-name="MTEXT"><text class="cls-2" transform="translate(157.98 52.72)">&lt;PEG</text></g><g id="MTEXT-14" data-name="MTEXT"><text class="cls-2" transform="translate(23.27 225.42)">&lt;PEG</text></g><g id="MTEXT-15" data-name="MTEXT"><text class="cls-2" transform="translate(23.27 236.38)">&lt;PEG</text></g><g id="MTEXT-16" data-name="MTEXT"><text class="cls-2" transform="translate(23.27 44.31)">&lt;PEG</text></g><g id="MTEXT-17" data-name="MTEXT"><text class="cls-2" transform="translate(23.27 55.26)">&lt;PEG</text></g><g id="MTEXT-18" data-name="MTEXT"><text class="cls-2" transform="translate(297.48 352.18)">WINDOW-S1/B</text></g><g id="MTEXT-19" data-name="MTEXT"><text class="cls-2" transform="translate(297.63 90.93)">WINDOW-S1/A</text></g><g id="MTEXT-20" data-name="MTEXT"><text class="cls-2" transform="translate(40.43 322.57) rotate(-90)">WINDOW-S1/C</text></g><g id="MTEXT-21" data-name="MTEXT"><text class="cls-2" transform="translate(86.6 326.33) rotate(-90)">WINDOW-S1/D</text></g><g id="MTEXT-22" data-name="MTEXT"><text class="cls-2" transform="translate(29.51 191.78)">WINDOW</text><text class="cls-2" transform="translate(31.4 198.07)">-S1/E</text></g><g id="MTEXT-23" data-name="MTEXT"><text class="cls-2" transform="translate(40.43 140.33) rotate(-90)">WINDOW-S1/C</text></g><g id="MTEXT-24" data-name="MTEXT"><text class="cls-2" transform="translate(297.48 302.22)">WINDOW-S1/B</text></g><g id="MTEXT-25" data-name="MTEXT"><text class="cls-2" transform="translate(86.6 144.09) rotate(-90)">WINDOW-S1/D</text></g><g id="MTEXT-26" data-name="MTEXT"><text class="cls-2" transform="translate(297.63 205.72)">WINDOW-S1/A</text></g><g id="MTEXT-27" data-name="MTEXT"><text class="cls-2" transform="translate(120.46 194.99) rotate(90)">WINDOW-S1/G</text></g><g id="MTEXT-28" data-name="MTEXT"><text class="cls-2" transform="translate(169.89 194.77) rotate(90)">WINDOW-S1/F</text></g><g id="POLYLINE-37" data-name="POLYLINE"><polygon class="cls-1" points="68.14 198.27 73.46 198.27 73.46 197.37 75.34 197.37 75.34 204.65 73.46 204.65 73.46 203.75 68.14 203.75 68.14 204.65 66.26 204.65 66.26 197.37 68.14 197.37 68.14 198.27"/></g><g id="POLYLINE-38" data-name="POLYLINE"><polygon class="cls-1" points="345.51 372.34 346.72 372.35 346.72 371.48 348.14 371.48 348.14 375.99 346.72 375.99 346.72 375.12 345.51 375.11 345.51 375.98 344.09 375.98 344.09 371.47 345.51 371.47 345.51 372.34"/></g><g id="POLYLINE-39" data-name="POLYLINE"><polygon class="cls-1" points="338.17 372.34 336.96 372.35 336.96 371.48 335.54 371.48 335.54 375.99 336.96 375.99 336.96 375.12 338.17 375.11 338.17 375.98 339.59 375.98 339.59 371.47 338.17 371.47 338.17 372.34"/></g><g id="POLYLINE-40" data-name="POLYLINE"><polygon class="cls-1" points="383.94 372.34 382.73 372.35 382.73 371.48 381.31 371.48 381.31 375.99 382.73 375.99 382.73 375.12 383.94 375.11 383.94 375.98 385.36 375.98 385.36 371.47 383.94 371.47 383.94 372.34"/></g><g id="POLYLINE-41" data-name="POLYLINE"><polygon class="cls-1" points="391.28 372.34 392.49 372.35 392.49 371.48 393.91 371.48 393.91 375.99 392.49 375.99 392.49 375.12 391.28 375.11 391.28 375.98 389.86 375.98 389.86 371.47 391.28 371.47 391.28 372.34"/></g><g id="POLYLINE-42" data-name="POLYLINE"><polygon class="cls-1" points="292.55 372.34 291.34 372.35 291.34 371.48 289.92 371.48 289.92 375.99 291.34 375.99 291.34 375.12 292.55 375.11 292.55 375.98 293.97 375.98 293.97 371.47 292.55 371.47 292.55 372.34"/></g><g id="POLYLINE-43" data-name="POLYLINE"><polygon class="cls-1" points="299.9 372.34 301.11 372.35 301.11 371.48 302.53 371.48 302.53 375.99 301.11 375.99 301.11 375.12 299.9 375.11 299.9 375.98 298.48 375.98 298.48 371.47 299.9 371.47 299.9 372.34"/></g><g id="POLYLINE-44" data-name="POLYLINE"><polygon class="cls-1" points="246.64 372.34 245.43 372.35 245.43 371.48 244 371.48 244 375.99 245.43 375.99 245.43 375.12 246.64 375.11 246.64 375.98 248.06 375.98 248.06 371.47 246.64 371.47 246.64 372.34"/></g><g id="POLYLINE-45" data-name="POLYLINE"><polygon class="cls-1" points="253.98 372.34 255.19 372.35 255.19 371.48 256.61 371.48 256.61 375.99 255.19 375.99 255.19 375.12 253.98 375.11 253.98 375.98 252.56 375.98 252.56 371.47 253.98 371.47 253.98 372.34"/></g><g id="POLYLINE-46" data-name="POLYLINE"><polygon class="cls-1" points="338.65 321.26 340.52 321.26 340.52 316.69 338.65 316.69 338.65 317.59 297.91 317.59 297.91 316.69 296.03 316.69 296.03 321.26 297.91 321.26 297.91 320.36 338.65 320.36 338.65 321.26"/></g><g id="POLYLINE-47" data-name="POLYLINE"><polygon class="cls-1" points="355.45 321.26 357.33 321.26 357.33 320.36 369.26 320.36 369.26 321.26 371.13 321.26 371.13 316.69 369.26 316.69 369.26 317.59 357.33 317.59 357.33 316.69 355.45 316.69 355.45 321.26"/></g><g id="POLYLINE-48" data-name="POLYLINE"><polygon class="cls-1" points="265.42 316.69 265.42 321.26 267.3 321.26 267.3 320.36 279.23 320.36 279.23 321.26 281.1 321.26 281.1 316.69 279.23 316.69 279.23 317.59 267.3 317.59 267.3 316.69 265.42 316.69"/></g><g id="POLYLINE-49" data-name="POLYLINE"><polygon class="cls-1" points="314.64 335.37 315.54 335.37 315.54 342.8 314.64 342.8 314.64 344.67 321.92 344.67 321.92 342.8 321.02 342.8 321.02 335.37 321.92 335.37 321.92 333.49 314.64 333.49 314.64 335.37"/></g><g id="POLYLINE-50" data-name="POLYLINE"><polygon class="cls-1" points="244.34 134.15 243.44 134.15 243.44 139.47 244.34 139.47 244.34 141.35 237.06 141.35 237.06 139.47 237.96 139.47 237.96 134.15 237.06 134.15 237.06 132.27 244.34 132.27 244.34 134.15"/></g><g id="POLYLINE-51" data-name="POLYLINE"><polygon class="cls-1" points="327.99 134.15 327.09 134.15 327.09 132.27 334.37 132.27 334.37 134.15 333.47 134.15 333.47 139.47 334.37 139.47 334.37 141.35 327.09 141.35 327.09 139.47 327.99 139.47 327.99 134.15"/></g><g id="POLYLINE-52" data-name="POLYLINE"><polygon class="cls-1" points="399.8 134.15 398.89 134.15 398.89 139.47 399.8 139.47 399.8 141.35 392.52 141.35 392.52 139.47 393.42 139.47 393.42 134.15 392.52 134.15 392.52 132.27 399.8 132.27 399.8 134.15"/></g><g id="POLYLINE-53" data-name="POLYLINE"><polygon class="cls-1" points="302.49 134.15 302.49 132.27 309.76 132.27 309.76 134.15 308.86 134.15 308.86 139.47 309.76 139.47 309.76 141.35 302.49 141.35 302.49 139.47 303.38 139.47 303.38 134.15 302.49 134.15"/></g><g id="POLYLINE-54" data-name="POLYLINE"><polygon class="cls-1" points="73.46 321.47 73.46 320.57 68.14 320.57 68.14 321.47 66.26 321.47 66.26 314.19 68.14 314.19 68.14 315.09 73.46 315.09 73.46 314.19 75.34 314.19 75.34 321.47 73.46 321.47"/></g><g id="POLYLINE-55" data-name="POLYLINE"><polygon class="cls-1" points="68.14 380.51 73.46 380.51 73.46 379.62 75.34 379.62 75.34 386.89 73.46 386.89 73.46 385.99 68.14 385.99 68.14 386.89 66.26 386.89 66.26 379.62 68.14 379.62 68.14 380.51"/></g><g id="POLYLINE-56" data-name="POLYLINE"><polygon class="cls-1" points="73.46 290.48 73.46 289.58 75.34 289.58 75.34 296.86 73.46 296.86 73.46 295.96 68.14 295.96 68.14 296.86 66.26 296.86 66.26 289.58 68.14 289.58 68.14 290.48 73.46 290.48"/></g><g id="POLYLINE-57" data-name="POLYLINE"><polygon class="cls-1" points="68.14 231.44 66.26 231.44 66.26 224.16 68.14 224.16 68.14 225.06 73.46 225.06 73.46 224.16 75.34 224.16 75.34 231.44 73.46 231.44 73.46 230.54 68.14 230.54 68.14 231.44"/></g><g id="POLYLINE-58" data-name="POLYLINE"><polygon class="cls-1" points="189 93.11 190.88 93.11 190.88 109.99 189 109.99 189 109.09 187.2 109.09 187.2 107.21 188.1 107.21 188.1 95.88 187.2 95.88 187.2 94.01 189 94.01 189 93.11"/></g><g id="POLYLINE-59" data-name="POLYLINE"><polygon class="cls-1" points="190.88 363.2 190.88 380.08 189 380.08 189 379.18 187.2 379.18 187.2 377.31 188.1 377.31 188.1 365.98 187.2 365.98 187.2 364.1 189 364.1 189 363.2 190.88 363.2"/></g><g id="POLYLINE-60" data-name="POLYLINE"><polygon class="cls-1" points="187.2 332.29 188.1 332.29 188.1 320.96 187.2 320.96 187.2 319.09 189 319.09 189 318.19 190.88 318.19 190.88 335.07 189 335.07 189 334.17 187.2 334.17 187.2 332.29"/></g><g id="POLYLINE-61" data-name="POLYLINE"><polygon class="cls-1" points="187.2 287.28 188.1 287.28 188.1 283.45 187.2 283.45 187.2 281.57 189 281.57 189 280.67 190.88 280.67 190.88 290.05 189 290.05 189 289.15 187.2 289.15 187.2 287.28"/></g><g id="POLYLINE-62" data-name="POLYLINE"><path class="cls-1" d="M189.53,300.37v7.5a.72.72,0,0,1-1.43,0v-7.5a.72.72,0,0,1,1.43,0Z"/></g><g id="POLYLINE-63" data-name="POLYLINE"><path class="cls-1" d="M149.24,300.37a.72.72,0,0,1,1.43,0v7.5a.72.72,0,0,1-1.43,0Z"/></g><g id="POLYLINE-64" data-name="POLYLINE"><polygon class="cls-1" points="105.12 93.11 103.25 93.11 103.25 109.99 105.12 109.99 105.12 109.09 106.92 109.09 106.92 107.21 106.02 107.21 106.02 95.88 106.92 95.88 106.92 94.01 105.12 94.01 105.12 93.11"/></g><g id="POLYLINE-65" data-name="POLYLINE"><polygon class="cls-1" points="103.25 363.2 103.25 380.08 105.12 380.08 105.12 379.18 106.92 379.18 106.92 377.31 106.02 377.31 106.02 365.98 106.92 365.98 106.92 364.1 105.12 364.1 105.12 363.2 103.25 363.2"/></g><g id="POLYLINE-66" data-name="POLYLINE"><polygon class="cls-1" points="106.92 332.29 106.02 332.29 106.02 320.96 106.92 320.96 106.92 319.09 105.12 319.09 105.12 318.19 103.25 318.19 103.25 335.07 105.12 335.07 105.12 334.17 106.92 334.17 106.92 332.29"/></g><g id="POLYLINE-67" data-name="POLYLINE"><polygon class="cls-1" points="106.92 287.28 106.02 287.28 106.02 283.45 106.92 283.45 106.92 281.57 105.12 281.57 105.12 280.67 103.25 280.67 103.25 290.05 105.12 290.05 105.12 289.15 106.92 289.15 106.92 287.28"/></g><g id="POLYLINE-68" data-name="POLYLINE"><path class="cls-1" d="M104.6,300.37v7.5a.71.71,0,0,0,1.42,0v-7.5a.71.71,0,0,0-1.42,0Z"/></g><g id="POLYLINE-69" data-name="POLYLINE"><path class="cls-1" d="M144.89,300.37a.72.72,0,0,0-1.43,0v7.5a.72.72,0,0,0,1.43,0Z"/></g><g id="POLYLINE-70" data-name="POLYLINE"><polygon class="cls-1" points="73.46 139.23 73.46 138.33 68.14 138.33 68.14 139.23 66.26 139.23 66.26 131.95 68.14 131.95 68.14 132.85 73.46 132.85 73.46 131.95 75.34 131.95 75.34 139.23 73.46 139.23"/></g><g id="POLYLINE-71" data-name="POLYLINE"><polygon class="cls-1" points="73.46 108.24 73.46 107.34 75.34 107.34 75.34 114.62 73.46 114.62 73.46 113.72 68.14 113.72 68.14 114.62 66.26 114.62 66.26 107.34 68.14 107.34 68.14 108.24 73.46 108.24"/></g><g id="POLYLINE-72" data-name="POLYLINE"><polygon class="cls-1" points="68.14 49.2 66.26 49.2 66.26 41.92 68.14 41.92 68.14 42.82 73.46 42.82 73.46 41.92 75.34 41.92 75.34 49.2 73.46 49.2 73.46 48.3 68.14 48.3 68.14 49.2"/></g><g id="POLYLINE-73" data-name="POLYLINE"><polygon class="cls-1" points="338.65 271.3 340.52 271.3 340.52 266.72 338.65 266.72 338.65 267.62 297.91 267.62 297.91 266.72 296.03 266.72 296.03 271.3 297.91 271.3 297.91 270.4 338.65 270.4 338.65 271.3"/></g><g id="POLYLINE-74" data-name="POLYLINE"><polygon class="cls-1" points="355.45 271.3 357.33 271.3 357.33 270.4 369.26 270.4 369.26 271.3 371.13 271.3 371.13 266.72 369.26 266.72 369.26 267.62 357.33 267.62 357.33 266.72 355.45 266.72 355.45 271.3"/></g><g id="POLYLINE-75" data-name="POLYLINE"><polygon class="cls-1" points="265.42 266.72 265.42 271.3 267.3 271.3 267.3 270.4 279.23 270.4 279.23 271.3 281.1 271.3 281.1 266.72 279.23 266.72 279.23 267.62 267.3 267.62 267.3 266.72 265.42 266.72"/></g><g id="POLYLINE-76" data-name="POLYLINE"><polygon class="cls-1" points="314.64 285.4 315.54 285.4 315.54 292.83 314.64 292.83 314.64 294.71 321.92 294.71 321.92 292.83 321.02 292.83 321.02 285.4 321.92 285.4 321.92 283.53 314.64 283.53 314.64 285.4"/></g><g id="POLYLINE-77" data-name="POLYLINE"><polygon class="cls-1" points="244.34 248.94 243.44 248.94 243.44 254.27 244.34 254.27 244.34 256.14 237.06 256.14 237.06 254.27 237.96 254.27 237.96 248.94 237.06 248.94 237.06 247.06 244.34 247.06 244.34 248.94"/></g><g id="POLYLINE-78" data-name="POLYLINE"><polygon class="cls-1" points="327.99 248.94 327.09 248.94 327.09 247.06 334.37 247.06 334.37 248.94 333.47 248.94 333.47 254.27 334.37 254.27 334.37 256.14 327.09 256.14 327.09 254.27 327.99 254.27 327.99 248.94"/></g><g id="POLYLINE-79" data-name="POLYLINE"><polygon class="cls-1" points="399.8 248.94 398.89 248.94 398.89 254.27 399.8 254.27 399.8 256.14 392.52 256.14 392.52 254.27 393.42 254.27 393.42 248.94 392.52 248.94 392.52 247.06 399.8 247.06 399.8 248.94"/></g><g id="POLYLINE-80" data-name="POLYLINE"><polygon class="cls-1" points="302.49 248.94 302.49 247.06 309.76 247.06 309.76 248.94 308.86 248.94 308.86 254.27 309.76 254.27 309.76 256.14 302.49 256.14 302.49 254.27 303.38 254.27 303.38 248.94 302.49 248.94"/></g><g id="POLYLINE-81" data-name="POLYLINE"><rect class="cls-3" x="13.67" y="31.78" width="183.07" height="366.13"/></g><g id="POLYLINE-82" data-name="POLYLINE"><rect class="cls-3" x="226.74" y="31.78" width="183.07" height="366.13"/></g></svg>