<svg id="Layer_1" data-name="Layer 1" xmlns="http://www.w3.org/2000/svg" viewBox="0 0 867.39 425.2"><defs><style>.cls-1,.cls-3{fill:none;stroke:#1d1d1b;stroke-miterlimit:10;}.cls-1{stroke-width:0.5px;}.cls-2{font-size:5.3px;fill:#1d1d1b;font-family:Monotxt;}.cls-3{stroke-width:0.25px;}</style></defs><g id="POLYLINE"><path class="cls-1" d="M825.17,388a.9.9,0,0,1-.08.36.91.91,0,0,1-1.18.47l-9.24-4h-5.4l-9.25,4a.84.84,0,0,1-.35.07.9.9,0,0,1-.9-.9v-6.93a3,3,0,0,1,0-6v-6.93a.92.92,0,0,1,.07-.36.9.9,0,0,1,1.18-.46l9.25,4h5.4l9.24-4a.86.86,0,0,1,.36-.08.91.91,0,0,1,.9.9v6.93a3,3,0,0,1,0,6Z"/></g><g id="POLYLINE-2" data-name="POLYLINE"><path class="cls-1" d="M612.17,388a.9.9,0,0,1-.08.36.91.91,0,0,1-1.18.47l-9.24-4h-5.4l-9.25,4a.84.84,0,0,1-.35.07.9.9,0,0,1-.9-.9v-6.93a3,3,0,0,1,0-6v-6.93a.92.92,0,0,1,.07-.36.9.9,0,0,1,1.18-.46l9.25,4h5.4l9.24-4a.86.86,0,0,1,.36-.08.91.91,0,0,1,.9.9v6.93a3,3,0,0,1,0,6Z"/></g><g id="POLYLINE-3" data-name="POLYLINE"><path class="cls-1" d="M755.3,189a.89.89,0,0,1-.07.36.9.9,0,0,1-1.19.47l-9.24-4h-5.4l-9.24,4a.86.86,0,0,1-.36.07.9.9,0,0,1-.9-.9v-6.93a3,3,0,0,1,0-6v-6.93a.85.85,0,0,1,.08-.35.89.89,0,0,1,1.18-.47l9.24,4h5.4l9.24-4a.94.94,0,0,1,.36-.08.9.9,0,0,1,.9.9v6.93a3,3,0,0,1,0,6Z"/></g><g id="POLYLINE-4" data-name="POLYLINE"><path class="cls-1" d="M755.3,162.21a.86.86,0,0,1-.07.36A.9.9,0,0,1,754,163l-9.24-4h-5.4l-9.24,4a.86.86,0,0,1-.36.07.9.9,0,0,1-.9-.9v-6.93a3,3,0,0,1,0-6v-6.93A.85.85,0,0,1,729,142a.89.89,0,0,1,1.18-.47l9.24,4h5.4l9.24-4a.94.94,0,0,1,.36-.08.9.9,0,0,1,.9.9v6.93a3,3,0,0,1,0,6Z"/></g><g id="POLYLINE-5" data-name="POLYLINE"><path class="cls-1" d="M795.16,162.21a.86.86,0,0,1-.08.36.89.89,0,0,1-1.18.47l-9.24-4h-5.4L770,163a.84.84,0,0,1-.35.07.9.9,0,0,1-.9-.9v-6.93a3,3,0,0,1,0-6v-6.93a.84.84,0,0,1,.07-.35.89.89,0,0,1,1.18-.47l9.25,4h5.4l9.24-4a.86.86,0,0,1,.36-.08.91.91,0,0,1,.9.9v6.93a3,3,0,0,1,0,6Z"/></g><g id="POLYLINE-6" data-name="POLYLINE"><path class="cls-1" d="M835,162.21a1,1,0,0,1-.07.36.9.9,0,0,1-1.19.47l-9.24-4h-5.4l-9.24,4a.92.92,0,0,1-.36.07.9.9,0,0,1-.9-.9v-6.93a3,3,0,0,1,0-6v-6.93a.84.84,0,0,1,.07-.35.9.9,0,0,1,1.19-.47l9.24,4h5.4l9.24-4a.89.89,0,0,1,1.26.82v6.93a3,3,0,0,1,0,6Z"/></g><g id="POLYLINE-7" data-name="POLYLINE"><path class="cls-1" d="M755.3,135.42a.86.86,0,0,1-.07.36.9.9,0,0,1-1.19.47l-9.24-4h-5.4l-9.24,4a.86.86,0,0,1-.36.07.9.9,0,0,1-.9-.9V128.5a3,3,0,0,1,0-6v-6.93a.86.86,0,0,1,.08-.36.89.89,0,0,1,1.18-.47l9.24,4h5.4l9.24-4a.92.92,0,0,1,.36-.07.9.9,0,0,1,.9.9v6.93a3,3,0,0,1,0,6Z"/></g><g id="POLYLINE-8" data-name="POLYLINE"><path class="cls-1" d="M795.16,135.42a.86.86,0,0,1-.08.36.89.89,0,0,1-1.18.47l-9.24-4h-5.4l-9.25,4a.84.84,0,0,1-.35.07.9.9,0,0,1-.9-.9V128.5a3,3,0,0,1,0-6v-6.93a.86.86,0,0,1,.07-.36.89.89,0,0,1,1.18-.47l9.25,4h5.4l9.24-4a.86.86,0,0,1,.36-.07.9.9,0,0,1,.9.9v6.93a3,3,0,0,1,0,6Z"/></g><g id="POLYLINE-9" data-name="POLYLINE"><path class="cls-1" d="M835,135.42a1,1,0,0,1-.07.36.9.9,0,0,1-1.19.47l-9.24-4h-5.4l-9.24,4a.92.92,0,0,1-.36.07.9.9,0,0,1-.9-.9V128.5a3,3,0,0,1,0-6v-6.93a.86.86,0,0,1,.07-.36.9.9,0,0,1,1.19-.47l9.24,4h5.4l9.24-4a.91.91,0,0,1,1.26.83v6.93a3,3,0,0,1,0,6Z"/></g><g id="POLYLINE-10" data-name="POLYLINE"><path class="cls-1" d="M542.3,189a.89.89,0,0,1-.07.36.9.9,0,0,1-1.19.47l-9.24-4h-5.4l-9.24,4a.86.86,0,0,1-.36.07.9.9,0,0,1-.9-.9v-6.93a3,3,0,0,1,0-6v-6.93a.85.85,0,0,1,.08-.35.89.89,0,0,1,1.18-.47l9.24,4h5.4l9.24-4a.94.94,0,0,1,.36-.08.9.9,0,0,1,.9.9v6.93a3,3,0,0,1,0,6Z"/></g><g id="POLYLINE-11" data-name="POLYLINE"><path class="cls-1" d="M542.3,162.21a.86.86,0,0,1-.07.36A.9.9,0,0,1,541,163l-9.24-4h-5.4l-9.24,4a.86.86,0,0,1-.36.07.9.9,0,0,1-.9-.9v-6.93a3,3,0,0,1,0-6v-6.93A.85.85,0,0,1,516,142a.89.89,0,0,1,1.18-.47l9.24,4h5.4l9.24-4a.94.94,0,0,1,.36-.08.9.9,0,0,1,.9.9v6.93a3,3,0,0,1,0,6Z"/></g><g id="POLYLINE-12" data-name="POLYLINE"><path class="cls-1" d="M582.16,162.21a.86.86,0,0,1-.08.36.89.89,0,0,1-1.18.47l-9.24-4h-5.4L557,163a.84.84,0,0,1-.35.07.9.9,0,0,1-.9-.9v-6.93a3,3,0,0,1,0-6v-6.93a.84.84,0,0,1,.07-.35.89.89,0,0,1,1.18-.47l9.25,4h5.4l9.24-4a.86.86,0,0,1,.36-.08.91.91,0,0,1,.9.9v6.93a3,3,0,0,1,0,6Z"/></g><g id="POLYLINE-13" data-name="POLYLINE"><path class="cls-1" d="M622,162.21a1,1,0,0,1-.07.36.9.9,0,0,1-1.19.47l-9.24-4h-5.4l-9.24,4a.92.92,0,0,1-.36.07.9.9,0,0,1-.9-.9v-6.93a3,3,0,0,1,0-6v-6.93a.84.84,0,0,1,.07-.35.9.9,0,0,1,1.19-.47l9.24,4h5.4l9.24-4a.89.89,0,0,1,1.26.82v6.93a3,3,0,0,1,0,6Z"/></g><g id="POLYLINE-14" data-name="POLYLINE"><path class="cls-1" d="M542.3,135.42a.86.86,0,0,1-.07.36.9.9,0,0,1-1.19.47l-9.24-4h-5.4l-9.24,4a.86.86,0,0,1-.36.07.9.9,0,0,1-.9-.9V128.5a3,3,0,0,1,0-6v-6.93a.86.86,0,0,1,.08-.36.89.89,0,0,1,1.18-.47l9.24,4h5.4l9.24-4a.92.92,0,0,1,.36-.07.9.9,0,0,1,.9.9v6.93a3,3,0,0,1,0,6Z"/></g><g id="POLYLINE-15" data-name="POLYLINE"><path class="cls-1" d="M582.16,135.42a.86.86,0,0,1-.08.36.89.89,0,0,1-1.18.47l-9.24-4h-5.4l-9.25,4a.84.84,0,0,1-.35.07.9.9,0,0,1-.9-.9V128.5a3,3,0,0,1,0-6v-6.93a.86.86,0,0,1,.07-.36.89.89,0,0,1,1.18-.47l9.25,4h5.4l9.24-4a.86.86,0,0,1,.36-.07.9.9,0,0,1,.9.9v6.93a3,3,0,0,1,0,6Z"/></g><g id="POLYLINE-16" data-name="POLYLINE"><path class="cls-1" d="M622,135.42a1,1,0,0,1-.07.36.9.9,0,0,1-1.19.47l-9.24-4h-5.4l-9.24,4a.92.92,0,0,1-.36.07.9.9,0,0,1-.9-.9V128.5a3,3,0,0,1,0-6v-6.93a.86.86,0,0,1,.07-.36.9.9,0,0,1,1.19-.47l9.24,4h5.4l9.24-4a.91.91,0,0,1,1.26.83v6.93a3,3,0,0,1,0,6Z"/></g><g id="POLYLINE-17" data-name="POLYLINE"><path class="cls-1" d="M246.51,337.76a.91.91,0,0,1,.37-.08.94.94,0,0,1,.94.94v19.86a.94.94,0,0,1-1.31.86l-9.19-4v6.35h.9v1.88h-3.6v14.92h3.6v3.38h-.9V392h27.22v-3.6h1.88v.9h26.32v-.9h1.88V392h27.22V381.89h-.9v-3.38h3.6V363.59h-3.6v-1.88h.9v-6.35l-9.19,4h0a.93.93,0,0,1-1.31-.86V338.62a.91.91,0,0,1,.08-.37.93.93,0,0,1,1.23-.49l9.19,4v-6.35h-.9v-1.88h3.6V318.59h-3.6v-1.88h.9v-7.57h-.9v-1.88h3.6v-7.42h-3.6V298h.9v-7.57h-.9v-1.88h3.6V273.59h-3.6v-1.88h.9v-6.35l-9.19,4h0a.93.93,0,0,1-1.31-.86V248.62a.91.91,0,0,1,.08-.37.93.93,0,0,1,1.23-.49l9.19,4v-6.35h-.9v-1.88h3.6V228.59h-3.6v-1.88h.9v-7.57h-.9v-1.88h3.6v-7.42h-3.6V208h.9v-7.57h-.9v-1.88h3.6V183.59h-3.6v-1.88h.9v-6.35l-9.19,4h0a.93.93,0,0,1-1.31-.86V158.62a.91.91,0,0,1,.08-.37.93.93,0,0,1,1.23-.49l9.19,4v-6.35h-.9v-1.88h3.6V138.59h-3.6v-1.88h.9v-7.57h-.9v-1.88h3.6v-6.67H308.09a.86.86,0,0,0-.87.86.81.81,0,0,0,.09.37l1.63,3.43a.9.9,0,0,1,.09.4.94.94,0,0,1-.94.94h-9.51a.93.93,0,0,1-.84-1.34l1.63-3.43a.87.87,0,0,0-.41-1.15,1,1,0,0,0-.37-.08h-9.51a.85.85,0,0,0-.86.86,1,1,0,0,0,.08.37l1.63,3.43a.9.9,0,0,1,.09.4.93.93,0,0,1-.93.94h-9.51a.9.9,0,0,1-.4-.09,1,1,0,0,1-.45-1.25l1.63-3.43a.86.86,0,0,0-.4-1.15,1,1,0,0,0-.38-.08h-9.5a.86.86,0,0,0-.87.86.81.81,0,0,0,.09.37l1.63,3.43a.9.9,0,0,1,.09.4.94.94,0,0,1-.94.94h-9.51a.93.93,0,0,1-.84-1.34l1.63-3.43a.87.87,0,0,0-.41-1.15,1,1,0,0,0-.37-.08h-9.51a.85.85,0,0,0-.86.86,1,1,0,0,0,.08.37l1.63,3.43a.9.9,0,0,1,.09.4.93.93,0,0,1-.93.94H237.32v10.12h.9v1.88h-3.6v14.92h3.6v1.88h-.9v6.35l9.19-4h0a.91.91,0,0,1,.37-.08.94.94,0,0,1,.94.94v19.86a.94.94,0,0,1-1.31.86l-9.19-4v6.35h.9v1.88h-3.6v14.92h3.6v1.88h-.9V208h.9v1.88h-3.6v7.42h3.6v1.88h-.9v7.57h.9v1.88h-3.6v14.92h3.6v1.88h-.9v6.35l9.19-4h0a.91.91,0,0,1,.37-.08.94.94,0,0,1,.94.94v19.86a.94.94,0,0,1-1.31.86l-9.19-4v6.35h.9v1.88h-3.6v14.92h3.6v1.88h-.9V298h.9v1.88h-3.6v7.42h3.6v1.88h-.9v7.57h.9v1.88h-3.6v14.92h3.6v1.88h-.9v6.35l9.19-4Z"/></g><g id="POLYLINE-18" data-name="POLYLINE"><path class="cls-1" d="M338,337.76a.91.91,0,0,1,.37-.08.94.94,0,0,1,.94.94v19.86a.94.94,0,0,1-1.31.86l-9.19-4v6.35h.9v1.88h-3.6v14.92h3.6v3.38h-.9V392H356v-3.6h1.88v.9h26.32v-.9h1.88V392h27.22V381.89h-.9v-3.38H416V363.59h-3.6v-1.88h.9v-6.35l-9.19,4h0a.93.93,0,0,1-1.31-.86V338.62a.91.91,0,0,1,.08-.37.93.93,0,0,1,1.23-.49l9.19,4v-6.35h-.9v-1.88H416V318.59h-3.6v-1.88h.9v-7.57h-.9v-1.88H416v-7.42h-3.6V298h.9v-7.57h-.9v-1.88H416V273.59h-3.6v-1.88h.9v-6.35l-9.19,4h0a.93.93,0,0,1-1.31-.86V248.62a.91.91,0,0,1,.08-.37.93.93,0,0,1,1.23-.49l9.19,4v-6.35h-.9v-1.88H416V228.59h-3.6v-1.88h.9v-7.57h-.9v-1.88H416v-7.42h-3.6V208h.9v-7.57h-.9v-1.88H416V183.59h-3.6v-1.88h.9v-6.35l-9.19,4h0a.93.93,0,0,1-1.31-.86V158.62a.91.91,0,0,1,.08-.37.93.93,0,0,1,1.23-.49l9.19,4v-6.35h-.9v-1.88H416V138.59h-3.6v-1.88h.9v-7.57h-.9v-1.88H416v-6.67H399.59a.86.86,0,0,0-.87.86.81.81,0,0,0,.09.37l1.63,3.43a.9.9,0,0,1,.09.4.94.94,0,0,1-.94.94h-9.51a.93.93,0,0,1-.84-1.34l1.63-3.43a.87.87,0,0,0-.41-1.15,1,1,0,0,0-.37-.08h-9.51a.85.85,0,0,0-.86.86,1,1,0,0,0,.08.37l1.63,3.43a.9.9,0,0,1,.09.4.93.93,0,0,1-.93.94h-9.51a.9.9,0,0,1-.4-.09,1,1,0,0,1-.45-1.25l1.63-3.43a.86.86,0,0,0-.4-1.15,1,1,0,0,0-.38-.08h-9.5a.86.86,0,0,0-.87.86.81.81,0,0,0,.09.37l1.63,3.43a.9.9,0,0,1,.09.4.94.94,0,0,1-.94.94h-9.51a.93.93,0,0,1-.84-1.34l1.63-3.43a.87.87,0,0,0-.41-1.15,1,1,0,0,0-.37-.08h-9.51a.85.85,0,0,0-.86.86,1,1,0,0,0,.08.37l1.63,3.43a.9.9,0,0,1,.09.4.93.93,0,0,1-.93.94H328.82v10.12h.9v1.88h-3.6v14.92h3.6v1.88h-.9v6.35l9.19-4h0a.91.91,0,0,1,.37-.08.94.94,0,0,1,.94.94v19.86a.94.94,0,0,1-1.31.86l-9.19-4v6.35h.9v1.88h-3.6v14.92h3.6v1.88h-.9V208h.9v1.88h-3.6v7.42h3.6v1.88h-.9v7.57h.9v1.88h-3.6v14.92h3.6v1.88h-.9v6.35l9.19-4h0a.91.91,0,0,1,.37-.08.94.94,0,0,1,.94.94v19.86a.94.94,0,0,1-1.31.86l-9.19-4v6.35h.9v1.88h-3.6v14.92h3.6v1.88h-.9V298h.9v1.88h-3.6v7.42h3.6v1.88h-.9v7.57h.9v1.88h-3.6v14.92h3.6v1.88h-.9v6.35l9.19-4Z"/></g><g id="POLYLINE-19" data-name="POLYLINE"><path class="cls-1" d="M556.57,202.18a.86.86,0,0,0-.87.86.68.68,0,0,0,0,.14L557,211c0,.05,0,.11,0,.16a.94.94,0,0,1-.94.94H544.57l-.16,0a.94.94,0,0,1-.77-1.08l1.3-7.8a.86.86,0,0,0-.71-1H532.57a.86.86,0,0,0-.87.86.68.68,0,0,0,0,.14L533,211c0,.05,0,.11,0,.16a.94.94,0,0,1-.94.94H520.57l-.16,0a.94.94,0,0,1-.77-1.08l1.3-7.8a.86.86,0,0,0-.71-1H509.87V357.5h.9v1.88h-3.6v6.22h38.32v-.9h1.88V372h-1.88v-.9H507.17v6.22h3.6v1.88h-.9v10.57h5.92v-3.6h1.88v.9h3.82v-.9h1.88v3.6h29.92v-3.6h1.88v.9H559v-.9h1.88v3.6h5.92V379.18h-.9V377.3h3.6V359.38h-3.6V357.5h.9V327.13h-3.6v-1.88h.9V313.93h-.9v-1.88h3.6v-8.17h-3.6V302h.9v-1.72h-.9V298.4h3.6v-2.62h-3.6V293.9h.9v-1.72h-.9V290.3h3.6v-8.17h-3.6v-1.88h.9V268.93h-.9v-1.88h3.6V237.13h-3.6v-1.88h.9V223.93h-.9v-1.88h3.6v-8.17h-3.6V212h.9v-1.72h-.9V208.4h3.6v-2.62h-3.6V203.9h.9v-1.72Z"/></g><g id="POLYLINE-20" data-name="POLYLINE"><path class="cls-1" d="M458.59,124.33a.94.94,0,0,0,.94-.94s0-.11,0-.16l-1.3-7.8a.68.68,0,0,1,0-.14.86.86,0,0,1,.87-.86h11.66a.86.86,0,0,1,.71,1l-1.3,7.8a.94.94,0,0,0,.77,1.08l.16,0h11.52a.94.94,0,0,0,.94-.94s0-.11,0-.16l-1.3-7.8a.68.68,0,0,1,0-.14.86.86,0,0,1,.87-.86h11.66a.86.86,0,0,1,.71,1l-1.3,7.8a.94.94,0,0,0,.77,1.08l.16,0h6.62v1.8h3.6v8.17h-3.6v1.88h.9V147.5h-.9v1.88h3.6V179.3h-3.6v1.88h.9V192.5h-.9v1.88h3.6v8.17h-3.6v1.88h.9v1.72h-.9V208h3.6v2.62h-3.6v1.88h.9v1.72h-.9v1.88h3.6v8.17h-3.6v1.88h.9V237.5h-.9v1.88h3.6V269.3h-3.6v1.88h.9V282.5h-.9v1.88h3.6v8.17h-3.6v1.88h.9v1.72h-.9V298h3.6v2.62h-3.6v1.88h.9v1.72h-.9v1.88h3.6v8.17h-3.6v1.88h.9V327.5h-.9v1.88h3.6V359.3h-3.6v1.88h.9V372.5h-.9v1.88h3.6v8.17h-3.6v1.8h-6.62a.94.94,0,0,0-.94.94.76.76,0,0,0,0,.15l1.3,7.81a.61.61,0,0,1,0,.14.86.86,0,0,1-.86.86H482.92a.85.85,0,0,1-.7-1l1.3-7.81a1,1,0,0,0-.77-1.08H471.07a.94.94,0,0,0-.94.94.76.76,0,0,0,0,.15l1.3,7.81a.61.61,0,0,1,0,.14.86.86,0,0,1-.86.86H458.92a.85.85,0,0,1-.7-1l1.3-7.81a1,1,0,0,0-.77-1.08H448.37v-260Z"/></g><g id="POLYLINE-21" data-name="POLYLINE"><path class="cls-1" d="M615.37,355.57h-.15a.85.85,0,0,1-.7-1l1.3-7.8a.93.93,0,0,0-.77-1.08l-.16,0H603.37a.94.94,0,0,0-.94.94.92.92,0,0,0,0,.16l1.3,7.8a.66.66,0,0,1,0,.14.85.85,0,0,1-.86.86H591.22a.85.85,0,0,1-.7-1l1.3-7.8a.93.93,0,0,0-.77-1.08l-.16,0H579.37a.94.94,0,0,0-.94.94.92.92,0,0,0,0,.16l1.3,7.8a.66.66,0,0,1,0,.14.85.85,0,0,1-.86.86H568.67V200.25h.9v-1.88H566v-6.22h38.32v.9h1.88v-7.28h-1.88v.9H566v-6.22h3.6v-1.88h-.9V168h5.92v3.6h1.88v-.9h3.82v.9h1.88V168h29.92v3.6H614v-.9h3.82v.9h1.88V168h5.92v10.57h-.9v1.88h3.6v17.92h-3.6v1.88h.9v30.37H622v1.88h.9v11.32H622v1.88h3.6v8.17H622v1.88h.9v1.72H622v1.88h3.6V262H622v1.88h.9v1.72H622v1.88h3.6v8.17H622v1.88h.9v11.32H622v1.88h3.6v29.92H622v1.88h.9v11.32H622v1.88h3.6v8.17H622v1.88h.9v1.72H622v1.88h3.6V352H622v1.88h.9v1.72Z"/></g><g id="POLYLINE-22" data-name="POLYLINE"><path class="cls-1" d="M196,123h4.32v16.45h-.9v1.88H203v14.92h-3.6v1.88h.9v26.32h-.9v1.88H203v14.92h-3.6v1.88h.9v26.32h-.9v1.88H203v14.92h-3.6v1.88h.9v26.32h-.9v1.88H203v14.92h-3.6v1.88h.9v26.32h-.9v1.88H203v14.92h-3.6v1.88h.9v26.32h-.9v1.88H203v14.92h-3.6v1.88h.9v11.62H173.12v-3.6h-1.88v.9H144.92v-.9H143v3.6H115.82V383.13h.9v-1.88h-3.6V366.33h3.6v-1.88h-.9V338.13h.9v-1.88h-3.6V321.33h3.6v-1.88h-.9V293.13h.9v-1.88h-3.6V276.33h3.6v-1.88h-.9V248.13h.9v-1.88h-3.6V231.33h3.6v-1.88h-.9V203.13h.9v-1.88h-3.6V186.33h3.6v-1.88h-.9V158.13h.9v-1.88h-3.6V141.33h3.6v-1.88h-.9v-9.8h4.31a.94.94,0,0,0,.94-.94.91.91,0,0,0-.08-.37l-1.77-4.14a.77.77,0,0,1-.07-.34A.86.86,0,0,1,120,123h9.63a.83.83,0,0,1,.34.07.87.87,0,0,1,.45,1.13l-1.78,4.14a.94.94,0,0,0,.86,1.31h9.62a.94.94,0,0,0,.94-.94.91.91,0,0,0-.08-.37l-1.78-4.14a.94.94,0,0,1-.07-.34A.87.87,0,0,1,139,123h9.62a.77.77,0,0,1,.34.07.87.87,0,0,1,.46,1.13l-1.78,4.14a.93.93,0,0,0,.49,1.23,1,1,0,0,0,.37.08h9.63a.94.94,0,0,0,.93-.94.9.9,0,0,0-.07-.37l-1.78-4.14a.77.77,0,0,1-.07-.34A.87.87,0,0,1,158,123h9.63a.8.8,0,0,1,.34.07.86.86,0,0,1,.45,1.13l-1.78,4.14a1,1,0,0,0,.49,1.23,1,1,0,0,0,.37.08h9.63a.94.94,0,0,0,.94-.94.91.91,0,0,0-.08-.37l-1.78-4.14a.94.94,0,0,1-.07-.34A.87.87,0,0,1,177,123h9.62a.77.77,0,0,1,.34.07.87.87,0,0,1,.46,1.13l-1.78,4.14a.93.93,0,0,0,.49,1.23,1,1,0,0,0,.37.08h9.63a.94.94,0,0,0,.93-.94.9.9,0,0,0-.07-.37l-1.78-4.14a.77.77,0,0,1-.07-.34A.87.87,0,0,1,196,123Z"/></g><g id="POLYLINE-23" data-name="POLYLINE"><path class="cls-1" d="M104.52,123h4.32v16.45h-.9v1.88h3.6v14.92h-3.6v1.88h.9v26.32h-.9v1.88h3.6v14.92h-3.6v1.88h.9v26.32h-.9v1.88h3.6v14.92h-3.6v1.88h.9v26.32h-.9v1.88h3.6v14.92h-3.6v1.88h.9v26.32h-.9v1.88h3.6v14.92h-3.6v1.88h.9v26.32h-.9v1.88h3.6v14.92h-3.6v1.88h.9v11.62H81.62v-3.6H79.74v.9H53.42v-.9H51.54v3.6H24.32V383.13h.9v-1.88h-3.6V366.33h3.6v-1.88h-.9V338.13h.9v-1.88h-3.6V321.33h3.6v-1.88h-.9V293.13h.9v-1.88h-3.6V276.33h3.6v-1.88h-.9V248.13h.9v-1.88h-3.6V231.33h3.6v-1.88h-.9V203.13h.9v-1.88h-3.6V186.33h3.6v-1.88h-.9V158.13h.9v-1.88h-3.6V141.33h3.6v-1.88h-.9v-9.8h4.31a.94.94,0,0,0,.94-.94.91.91,0,0,0-.08-.37l-1.77-4.14a.77.77,0,0,1-.07-.34.86.86,0,0,1,.86-.86h9.63a.83.83,0,0,1,.34.07.87.87,0,0,1,.45,1.13l-1.78,4.14a.94.94,0,0,0,.86,1.31h9.62a.94.94,0,0,0,.94-.94.91.91,0,0,0-.08-.37l-1.78-4.14a.94.94,0,0,1-.07-.34.87.87,0,0,1,.87-.86h9.62a.77.77,0,0,1,.34.07.87.87,0,0,1,.46,1.13l-1.78,4.14a.93.93,0,0,0,.49,1.23,1,1,0,0,0,.37.08h9.63a.94.94,0,0,0,.93-.94.9.9,0,0,0-.07-.37l-1.78-4.14a.77.77,0,0,1-.07-.34.87.87,0,0,1,.86-.86h9.63a.8.8,0,0,1,.34.07.86.86,0,0,1,.45,1.13l-1.78,4.14a1,1,0,0,0,.49,1.23,1,1,0,0,0,.37.08h9.63a.94.94,0,0,0,.94-.94.91.91,0,0,0-.08-.37l-1.78-4.14a.94.94,0,0,1-.07-.34.87.87,0,0,1,.87-.86h9.62a.77.77,0,0,1,.34.07.87.87,0,0,1,.46,1.13l-1.78,4.14a.93.93,0,0,0,.49,1.23,1,1,0,0,0,.37.08h9.63a.94.94,0,0,0,.93-.94.9.9,0,0,0-.07-.37l-1.78-4.14a.77.77,0,0,1-.07-.34A.87.87,0,0,1,104.52,123Z"/></g><g id="POLYLINE-24" data-name="POLYLINE"><path class="cls-1" d="M769.57,202.18a.86.86,0,0,0-.87.86.68.68,0,0,0,0,.14L770,211c0,.05,0,.11,0,.16a.94.94,0,0,1-.94.94H757.57l-.16,0a.94.94,0,0,1-.77-1.08l1.3-7.8a.86.86,0,0,0-.71-1H745.57a.86.86,0,0,0-.87.86.68.68,0,0,0,0,.14L746,211c0,.05,0,.11,0,.16a.94.94,0,0,1-.94.94H733.57l-.16,0a.94.94,0,0,1-.77-1.08l1.3-7.8a.86.86,0,0,0-.71-1H722.87V357.5h.9v1.88h-3.6v6.22h38.32v-.9h1.88V372h-1.88v-.9H720.17v6.22h3.6v1.88h-.9v10.57h5.92v-3.6h1.88v.9h3.82v-.9h1.88v3.6h29.92v-3.6h1.88v.9H772v-.9h1.88v3.6h5.92V379.18h-.9V377.3h3.6V359.38h-3.6V357.5h.9V327.13h-3.6v-1.88h.9V313.93h-.9v-1.88h3.6v-8.17h-3.6V302h.9v-1.72h-.9V298.4h3.6v-2.62h-3.6V293.9h.9v-1.72h-.9V290.3h3.6v-8.17h-3.6v-1.88h.9V268.93h-.9v-1.88h3.6V237.13h-3.6v-1.88h.9V223.93h-.9v-1.88h3.6v-8.17h-3.6V212h.9v-1.72h-.9V208.4h3.6v-2.62h-3.6V203.9h.9v-1.72Z"/></g><g id="POLYLINE-25" data-name="POLYLINE"><path class="cls-1" d="M671.59,124.33a.94.94,0,0,0,.94-.94s0-.11,0-.16l-1.3-7.8a.68.68,0,0,1,0-.14.86.86,0,0,1,.87-.86h11.66a.86.86,0,0,1,.71,1l-1.3,7.8a.94.94,0,0,0,.77,1.08l.16,0h11.52a.94.94,0,0,0,.94-.94s0-.11,0-.16l-1.3-7.8a.68.68,0,0,1,0-.14.86.86,0,0,1,.87-.86h11.66a.86.86,0,0,1,.71,1l-1.3,7.8a.94.94,0,0,0,.77,1.08l.16,0h6.62v1.8h3.6v8.17h-3.6v1.88h.9V147.5h-.9v1.88h3.6V179.3h-3.6v1.88h.9V192.5h-.9v1.88h3.6v8.17h-3.6v1.88h.9v1.72h-.9V208h3.6v2.62h-3.6v1.88h.9v1.72h-.9v1.88h3.6v8.17h-3.6v1.88h.9V237.5h-.9v1.88h3.6V269.3h-3.6v1.88h.9V282.5h-.9v1.88h3.6v8.17h-3.6v1.88h.9v1.72h-.9V298h3.6v2.62h-3.6v1.88h.9v1.72h-.9v1.88h3.6v8.17h-3.6v1.88h.9V327.5h-.9v1.88h3.6V359.3h-3.6v1.88h.9V372.5h-.9v1.88h3.6v8.17h-3.6v1.8h-6.62a.94.94,0,0,0-.94.94.76.76,0,0,0,0,.15l1.3,7.81a.61.61,0,0,1,0,.14.86.86,0,0,1-.86.86H695.92a.85.85,0,0,1-.7-1l1.3-7.81a1,1,0,0,0-.77-1.08H684.07a.94.94,0,0,0-.94.94.76.76,0,0,0,0,.15l1.3,7.81a.61.61,0,0,1,0,.14.86.86,0,0,1-.86.86H671.92a.85.85,0,0,1-.7-1l1.3-7.81a1,1,0,0,0-.77-1.08H661.37v-260Z"/></g><g id="POLYLINE-26" data-name="POLYLINE"><path class="cls-1" d="M828.37,355.57h-.15a.85.85,0,0,1-.7-1l1.3-7.8a.93.93,0,0,0-.77-1.08l-.16,0H816.37a.94.94,0,0,0-.94.94.92.92,0,0,0,0,.16l1.3,7.8a.66.66,0,0,1,0,.14.85.85,0,0,1-.86.86H804.22a.85.85,0,0,1-.7-1l1.3-7.8a.93.93,0,0,0-.77-1.08l-.16,0H792.37a.94.94,0,0,0-.94.94.92.92,0,0,0,0,.16l1.3,7.8a.66.66,0,0,1,0,.14.85.85,0,0,1-.86.86H781.67V200.25h.9v-1.88H779v-6.22h38.32v.9h1.88v-7.28h-1.88v.9H779v-6.22h3.6v-1.88h-.9V168h5.92v3.6h1.88v-.9h3.82v.9h1.88V168h29.92v3.6H827v-.9h3.82v.9h1.88V168h5.92v10.57h-.9v1.88h3.6v17.92h-3.6v1.88h.9v30.37H835v1.88h.9v11.32H835v1.88h3.6v8.17H835v1.88h.9v1.72H835v1.88h3.6V262H835v1.88h.9v1.72H835v1.88h3.6v8.17H835v1.88h.9v11.32H835v1.88h3.6v29.92H835v1.88h.9v11.32H835v1.88h3.6v8.17H835v1.88h.9v1.72H835v1.88h3.6V352H835v1.88h.9v1.72Z"/></g><g id="POLYLINE-27" data-name="POLYLINE"><polygon class="cls-1" points="262.59 100.71 262.59 101.61 237.17 101.61 237.17 88.94 238.07 88.94 238.07 87.06 234.47 87.06 234.47 75.14 238.07 75.14 238.07 73.26 237.17 73.26 237.17 60.59 262.59 60.59 262.59 61.49 264.47 61.49 264.47 57.89 294.39 57.89 294.39 61.49 296.27 61.49 296.27 60.59 321.69 60.59 321.69 73.26 320.79 73.26 320.79 75.14 324.39 75.14 324.39 87.06 320.79 87.06 320.79 88.94 321.69 88.94 321.69 101.61 296.27 101.61 296.27 100.71 294.39 100.71 294.39 104.31 264.47 104.31 264.47 100.71 262.59 100.71"/></g><g id="POLYLINE-28" data-name="POLYLINE"><polygon class="cls-1" points="49.59 100.71 49.59 101.61 24.17 101.61 24.17 88.94 25.07 88.94 25.07 87.06 21.47 87.06 21.47 75.14 25.07 75.14 25.07 73.26 24.17 73.26 24.17 60.59 49.59 60.59 49.59 61.49 51.47 61.49 51.47 57.89 81.39 57.89 81.39 61.49 83.27 61.49 83.27 60.59 108.69 60.59 108.69 73.26 107.79 73.26 107.79 75.14 111.39 75.14 111.39 87.06 107.79 87.06 107.79 88.94 108.69 88.94 108.69 101.61 83.27 101.61 83.27 100.71 81.39 100.71 81.39 104.31 51.47 104.31 51.47 100.71 49.59 100.71"/></g><g id="POLYLINE-29" data-name="POLYLINE"><polygon class="cls-1" points="412.59 100.23 413.49 100.23 413.49 94.9 412.59 94.9 412.59 93.03 416.19 93.03 416.19 81.1 412.59 81.1 412.59 79.23 413.49 79.23 413.49 73.9 412.59 73.9 412.59 72.03 416.19 72.03 416.19 64.6 412.59 64.6 412.59 62.73 413.49 62.73 413.49 58.6 388.07 58.6 388.07 59.5 386.19 59.5 386.19 55.9 356.27 55.9 356.27 59.5 354.39 59.5 354.39 58.6 328.97 58.6 328.97 62.73 329.87 62.73 329.87 64.6 326.27 64.6 326.27 72.03 329.87 72.03 329.87 73.9 328.97 73.9 328.97 79.23 329.87 79.23 329.87 81.1 326.27 81.1 326.27 93.03 329.87 93.03 329.87 94.9 328.97 94.9 328.97 100.23 329.87 100.23 329.87 102.1 326.27 102.1 326.27 109.53 329.87 109.53 329.87 111.4 328.97 111.4 328.97 115.53 354.39 115.53 354.39 114.63 356.27 114.63 356.27 118.23 386.19 118.23 386.19 114.63 388.07 114.63 388.07 115.53 413.49 115.53 413.49 111.4 412.59 111.4 412.59 109.53 416.19 109.53 416.19 102.1 412.59 102.1 412.59 100.23"/></g><g id="POLYLINE-30" data-name="POLYLINE"><polygon class="cls-1" points="199.59 100.23 200.49 100.23 200.49 94.9 199.59 94.9 199.59 93.03 203.19 93.03 203.19 81.1 199.59 81.1 199.59 79.23 200.49 79.23 200.49 73.9 199.59 73.9 199.59 72.03 203.19 72.03 203.19 64.6 199.59 64.6 199.59 62.73 200.49 62.73 200.49 58.6 175.07 58.6 175.07 59.5 173.19 59.5 173.19 55.9 143.27 55.9 143.27 59.5 141.39 59.5 141.39 58.6 115.97 58.6 115.97 62.73 116.87 62.73 116.87 64.6 113.27 64.6 113.27 72.03 116.87 72.03 116.87 73.9 115.97 73.9 115.97 79.23 116.87 79.23 116.87 81.1 113.27 81.1 113.27 93.03 116.87 93.03 116.87 94.9 115.97 94.9 115.97 100.23 116.87 100.23 116.87 102.1 113.27 102.1 113.27 109.53 116.87 109.53 116.87 111.4 115.97 111.4 115.97 115.53 141.39 115.53 141.39 114.63 143.27 114.63 143.27 118.23 173.19 118.23 173.19 114.63 175.07 114.63 175.07 115.53 200.49 115.53 200.49 111.4 199.59 111.4 199.59 109.53 203.19 109.53 203.19 102.1 199.59 102.1 199.59 100.23"/></g><g id="POLYLINE-31" data-name="POLYLINE"><polygon class="cls-1" points="813.25 376.67 810.69 376.68 810.69 375.82 809.27 375.82 809.27 380.32 810.69 380.32 810.69 379.46 813.25 379.45 813.25 380.31 814.67 380.31 814.67 375.81 813.25 375.81 813.25 376.67"/></g><g id="POLYLINE-32" data-name="POLYLINE"><polygon class="cls-1" points="600.25 376.67 597.69 376.68 597.69 375.82 596.27 375.82 596.27 380.32 597.69 380.32 597.69 379.46 600.25 379.45 600.25 380.31 601.67 380.31 601.67 375.81 600.25 375.81 600.25 376.67"/></g><g id="POLYLINE-33" data-name="POLYLINE"><polygon class="cls-1" points="743.38 177.67 740.82 177.69 740.82 176.82 739.4 176.82 739.4 181.32 740.82 181.32 740.82 180.46 743.38 180.45 743.38 181.31 744.8 181.31 744.8 176.81 743.38 176.81 743.38 177.67"/></g><g id="POLYLINE-34" data-name="POLYLINE"><polygon class="cls-1" points="743.38 150.89 740.82 150.9 740.82 150.03 739.4 150.03 739.4 154.54 740.82 154.54 740.82 153.67 743.38 153.66 743.38 154.53 744.8 154.53 744.8 150.02 743.38 150.02 743.38 150.89"/></g><g id="POLYLINE-35" data-name="POLYLINE"><polygon class="cls-1" points="783.24 150.89 780.68 150.9 780.68 150.03 779.26 150.03 779.26 154.54 780.68 154.54 780.68 153.67 783.24 153.66 783.24 154.53 784.66 154.53 784.66 150.02 783.24 150.02 783.24 150.89"/></g><g id="POLYLINE-36" data-name="POLYLINE"><polygon class="cls-1" points="823.09 150.89 820.53 150.9 820.53 150.03 819.11 150.03 819.11 154.54 820.53 154.54 820.53 153.67 823.09 153.66 823.09 154.53 824.51 154.53 824.51 150.02 823.09 150.02 823.09 150.89"/></g><g id="POLYLINE-37" data-name="POLYLINE"><polygon class="cls-1" points="743.38 124.1 740.82 124.11 740.82 123.24 739.4 123.24 739.4 127.75 740.82 127.75 740.82 126.88 743.38 126.87 743.38 127.74 744.8 127.74 744.8 123.23 743.38 123.23 743.38 124.1"/></g><g id="POLYLINE-38" data-name="POLYLINE"><polygon class="cls-1" points="783.24 124.1 780.68 124.11 780.68 123.24 779.26 123.24 779.26 127.75 780.68 127.75 780.68 126.88 783.24 126.87 783.24 127.74 784.66 127.74 784.66 123.23 783.24 123.23 783.24 124.1"/></g><g id="POLYLINE-39" data-name="POLYLINE"><polygon class="cls-1" points="823.09 124.1 820.53 124.11 820.53 123.24 819.11 123.24 819.11 127.75 820.53 127.75 820.53 126.88 823.09 126.87 823.09 127.74 824.51 127.74 824.51 123.23 823.09 123.23 823.09 124.1"/></g><g id="POLYLINE-40" data-name="POLYLINE"><polygon class="cls-1" points="530.38 177.67 527.82 177.69 527.82 176.82 526.4 176.82 526.4 181.32 527.82 181.32 527.82 180.46 530.38 180.45 530.38 181.31 531.8 181.31 531.8 176.81 530.38 176.81 530.38 177.67"/></g><g id="POLYLINE-41" data-name="POLYLINE"><polygon class="cls-1" points="530.38 150.89 527.82 150.9 527.82 150.03 526.4 150.03 526.4 154.54 527.82 154.54 527.82 153.67 530.38 153.66 530.38 154.53 531.8 154.53 531.8 150.02 530.38 150.02 530.38 150.89"/></g><g id="POLYLINE-42" data-name="POLYLINE"><polygon class="cls-1" points="570.24 150.89 567.68 150.9 567.68 150.03 566.26 150.03 566.26 154.54 567.68 154.54 567.68 153.67 570.24 153.66 570.24 154.53 571.66 154.53 571.66 150.02 570.24 150.02 570.24 150.89"/></g><g id="POLYLINE-43" data-name="POLYLINE"><polygon class="cls-1" points="610.09 150.89 607.53 150.9 607.53 150.03 606.11 150.03 606.11 154.54 607.53 154.54 607.53 153.67 610.09 153.66 610.09 154.53 611.51 154.53 611.51 150.02 610.09 150.02 610.09 150.89"/></g><g id="POLYLINE-44" data-name="POLYLINE"><polygon class="cls-1" points="530.38 124.1 527.82 124.11 527.82 123.24 526.4 123.24 526.4 127.75 527.82 127.75 527.82 126.88 530.38 126.87 530.38 127.74 531.8 127.74 531.8 123.23 530.38 123.23 530.38 124.1"/></g><g id="POLYLINE-45" data-name="POLYLINE"><polygon class="cls-1" points="570.24 124.1 567.68 124.11 567.68 123.24 566.26 123.24 566.26 127.75 567.68 127.75 567.68 126.88 570.24 126.87 570.24 127.74 571.66 127.74 571.66 123.23 570.24 123.23 570.24 124.1"/></g><g id="POLYLINE-46" data-name="POLYLINE"><polygon class="cls-1" points="610.09 124.1 607.53 124.11 607.53 123.24 606.11 123.24 606.11 127.75 607.53 127.75 607.53 126.88 610.09 126.87 610.09 127.74 611.51 127.74 611.51 123.23 610.09 123.23 610.09 124.1"/></g><g id="POLYLINE-47" data-name="POLYLINE"><polygon class="cls-1" points="519.43 237.13 523.97 237.13 523.97 235.25 523.07 235.25 523.07 223.93 523.97 223.93 523.97 222.05 519.39 222.05 519.39 223.93 520.29 223.93 520.29 235.25 519.39 235.25 519.39 237.13 519.43 237.13"/></g><g id="POLYLINE-48" data-name="POLYLINE"><polygon class="cls-1" points="523.07 268.93 523.97 268.93 523.97 267.05 519.39 267.05 519.39 268.93 520.29 268.93 520.29 280.25 519.39 280.25 519.39 282.13 523.97 282.13 523.97 280.25 523.07 280.25 523.07 268.93"/></g><g id="POLYLINE-49" data-name="POLYLINE"><polygon class="cls-1" points="550.52 339.73 550.52 337.85 536.64 337.85 536.64 339.73 537.54 339.73 537.54 341.52 539.42 341.52 539.42 340.63 547.74 340.63 547.74 341.52 549.62 341.52 549.62 339.73 550.52 339.73"/></g><g id="POLYLINE-50" data-name="POLYLINE"><polygon class="cls-1" points="523.97 313.93 523.97 312.05 519.39 312.05 519.39 313.93 520.29 313.93 520.29 325.25 519.39 325.25 519.39 327.13 523.97 327.13 523.97 325.25 523.07 325.25 523.07 313.93 523.97 313.93"/></g><g id="POLYLINE-51" data-name="POLYLINE"><path class="cls-1" d="M565.52,248.34v7.5a.72.72,0,0,1-1.43,0v-7.5a.72.72,0,0,1,1.43,0Z"/></g><g id="POLYLINE-52" data-name="POLYLINE"><path class="cls-1" d="M547.29,324.84a3,3,0,1,0,6.08,0v-10.5a3,3,0,1,0-6.08,0Z"/></g><g id="CIRCLE"><circle class="cls-1" cx="543.58" cy="252.09" r="9.79"/></g><g id="POLYLINE-53" data-name="POLYLINE"><path class="cls-1" d="M532.33,388.47h12a.71.71,0,0,0,.71-.71h0v0h0v0h0v0h0v0h0v0h0v0h0v0h0v0h0v0h0v0h0v0h0l0,0h0v0h-13v0h0v0h0l0,0h0v0h0v0h0v0h0v0h0v0h0v0h0v0h0v0h0v0h0v0h0A.71.71,0,0,0,532.33,388.47Z"/></g><g id="POLYLINE-54" data-name="POLYLINE"><polygon class="cls-1" points="458.79 136.18 458.79 147.5 457.89 147.5 457.89 149.38 462.47 149.38 462.47 147.5 461.57 147.5 461.57 136.18 462.47 136.18 462.47 134.3 457.89 134.3 457.89 136.18 458.79 136.18"/></g><g id="POLYLINE-55" data-name="POLYLINE"><polygon class="cls-1" points="462.47 329.34 462.47 327.5 461.57 327.5 461.57 316.18 462.47 316.18 462.47 314.3 457.89 314.3 457.89 316.18 458.79 316.18 458.79 327.5 457.89 327.5 457.89 329.38 462.47 329.38 462.47 329.34"/></g><g id="POLYLINE-56" data-name="POLYLINE"><polygon class="cls-1" points="462.43 179.3 457.89 179.3 457.89 181.18 458.79 181.18 458.79 192.5 457.89 192.5 457.89 194.38 462.47 194.38 462.47 192.5 461.57 192.5 461.57 181.18 462.47 181.18 462.47 179.3 462.43 179.3"/></g><g id="POLYLINE-57" data-name="POLYLINE"><polygon class="cls-1" points="462.47 374.34 462.47 372.5 461.57 372.5 461.57 361.18 462.47 361.18 462.47 359.3 457.89 359.3 457.89 361.18 458.79 361.18 458.79 372.5 457.89 372.5 457.89 374.38 462.47 374.38 462.47 374.34"/></g><g id="POLYLINE-58" data-name="POLYLINE"><polygon class="cls-1" points="457.93 239.38 462.47 239.38 462.47 237.5 461.57 237.5 461.57 226.18 462.47 226.18 462.47 224.3 457.89 224.3 457.89 226.18 458.79 226.18 458.79 237.5 457.89 237.5 457.89 239.38 457.93 239.38"/></g><g id="POLYLINE-59" data-name="POLYLINE"><polygon class="cls-1" points="462.43 269.3 457.89 269.3 457.89 271.18 458.79 271.18 458.79 282.5 457.89 282.5 457.89 284.38 462.47 284.38 462.47 282.5 461.57 282.5 461.57 271.18 462.47 271.18 462.47 269.3 462.43 269.3"/></g><g id="POLYLINE-60" data-name="POLYLINE"><path class="cls-1" d="M504,348.09v-7.5a.72.72,0,0,0-1.43,0v7.5a.72.72,0,0,0,1.43,0Z"/></g><g id="POLYLINE-61" data-name="POLYLINE"><path class="cls-1" d="M504,258.09v-7.5a.72.72,0,0,0-1.43,0v7.5a.72.72,0,0,0,1.43,0Z"/></g><g id="POLYLINE-62" data-name="POLYLINE"><path class="cls-1" d="M504,168.09v-7.5a.72.72,0,0,0-1.43,0v7.5a.72.72,0,0,0,1.43,0Z"/></g><g id="CIRCLE-2" data-name="CIRCLE"><circle class="cls-1" cx="482.08" cy="344.34" r="9.79"/></g><g id="CIRCLE-3" data-name="CIRCLE"><circle class="cls-1" cx="482.08" cy="164.34" r="9.79"/></g><g id="POLYLINE-63" data-name="POLYLINE"><polygon class="cls-1" points="578.23 320.62 582.77 320.62 582.77 322.5 581.87 322.5 581.87 333.82 582.77 333.82 582.77 335.7 578.19 335.7 578.19 333.82 579.09 333.82 579.09 322.5 578.19 322.5 578.19 320.62 578.23 320.62"/></g><g id="POLYLINE-64" data-name="POLYLINE"><polygon class="cls-1" points="581.87 288.82 582.77 288.82 582.77 290.7 578.19 290.7 578.19 288.82 579.09 288.82 579.09 277.5 578.19 277.5 578.19 275.62 582.77 275.62 582.77 277.5 581.87 277.5 581.87 288.82"/></g><g id="POLYLINE-65" data-name="POLYLINE"><polygon class="cls-1" points="609.32 218.02 609.32 219.9 595.44 219.9 595.44 218.02 596.34 218.02 596.34 216.22 598.22 216.22 598.22 217.12 606.54 217.12 606.54 216.22 608.42 216.22 608.42 218.02 609.32 218.02"/></g><g id="POLYLINE-66" data-name="POLYLINE"><polygon class="cls-1" points="582.77 243.82 582.77 245.7 578.19 245.7 578.19 243.82 579.09 243.82 579.09 232.5 578.19 232.5 578.19 230.62 582.77 230.62 582.77 232.5 581.87 232.5 581.87 243.82 582.77 243.82"/></g><g id="POLYLINE-67" data-name="POLYLINE"><path class="cls-1" d="M624.32,309.41v-7.5a.72.72,0,0,0-1.43,0v7.5a.72.72,0,0,0,1.43,0Z"/></g><g id="POLYLINE-68" data-name="POLYLINE"><path class="cls-1" d="M606.09,232.91a3,3,0,1,1,6.08,0v10.5a3,3,0,0,1-6.08,0Z"/></g><g id="CIRCLE-4" data-name="CIRCLE"><circle class="cls-1" cx="602.38" cy="305.66" r="9.79"/></g><g id="POLYLINE-69" data-name="POLYLINE"><path class="cls-1" d="M591.13,169.27h12a.71.71,0,0,1,.71.72h0v0h0v0h0v0h0v0h0v0h0v0h0v0h0v0h0v0h0v0h0v0h0l0,0h0v0h-13v0h0v0h0l0,0h0v0h0v0h0v0h0v0h0v0h0v0h0v0h0v0h0v0h0v0h0A.71.71,0,0,1,591.13,169.27Z"/></g><g id="POLYLINE-70" data-name="POLYLINE"><path class="cls-1" d="M161.08,295h-6a11.29,11.29,0,0,0,0,22.58h6a11.29,11.29,0,1,0,0-22.58Z"/></g><g id="POLYLINE-71" data-name="POLYLINE"><path class="cls-1" d="M161.08,205h-6a11.29,11.29,0,0,0,0,22.58h6a11.29,11.29,0,0,0,0-22.58Z"/></g><g id="POLYLINE-72" data-name="POLYLINE"><path class="cls-1" d="M69.58,295h-6a11.29,11.29,0,0,0,0,22.58h6a11.29,11.29,0,1,0,0-22.58Z"/></g><g id="POLYLINE-73" data-name="POLYLINE"><path class="cls-1" d="M69.58,205h-6a11.29,11.29,0,1,0,0,22.58h6a11.29,11.29,0,0,0,0-22.58Z"/></g><g id="POLYLINE-74" data-name="POLYLINE"><polygon class="cls-1" points="732.43 237.13 736.97 237.13 736.97 235.25 736.07 235.25 736.07 223.93 736.97 223.93 736.97 222.05 732.39 222.05 732.39 223.93 733.29 223.93 733.29 235.25 732.39 235.25 732.39 237.13 732.43 237.13"/></g><g id="POLYLINE-75" data-name="POLYLINE"><polygon class="cls-1" points="736.07 268.93 736.97 268.93 736.97 267.05 732.39 267.05 732.39 268.93 733.29 268.93 733.29 280.25 732.39 280.25 732.39 282.13 736.97 282.13 736.97 280.25 736.07 280.25 736.07 268.93"/></g><g id="POLYLINE-76" data-name="POLYLINE"><polygon class="cls-1" points="763.52 339.73 763.52 337.85 749.64 337.85 749.64 339.73 750.54 339.73 750.54 341.52 752.42 341.52 752.42 340.63 760.74 340.63 760.74 341.52 762.62 341.52 762.62 339.73 763.52 339.73"/></g><g id="POLYLINE-77" data-name="POLYLINE"><polygon class="cls-1" points="736.97 313.93 736.97 312.05 732.39 312.05 732.39 313.93 733.29 313.93 733.29 325.25 732.39 325.25 732.39 327.13 736.97 327.13 736.97 325.25 736.07 325.25 736.07 313.93 736.97 313.93"/></g><g id="POLYLINE-78" data-name="POLYLINE"><path class="cls-1" d="M778.52,248.34v7.5a.72.72,0,0,1-1.43,0v-7.5a.72.72,0,0,1,1.43,0Z"/></g><g id="POLYLINE-79" data-name="POLYLINE"><path class="cls-1" d="M760.29,324.84a3,3,0,1,0,6.08,0v-10.5a3,3,0,0,0-6.08,0Z"/></g><g id="CIRCLE-5" data-name="CIRCLE"><circle class="cls-1" cx="756.58" cy="252.09" r="9.79"/></g><g id="POLYLINE-80" data-name="POLYLINE"><path class="cls-1" d="M745.33,388.47h12a.71.71,0,0,0,.71-.71h0v0h0v0h0v0h0v0h0v0h0v0h0v0h0v0h0v0h0v0h0v0h0l0,0h0v0h-13v0h0v0h0l0,0h0v0h0v0h0v0h0v0h0v0h0v0h0v0h0v0h0v0h0v0h0A.71.71,0,0,0,745.33,388.47Z"/></g><g id="POLYLINE-81" data-name="POLYLINE"><polygon class="cls-1" points="671.79 136.18 671.79 147.5 670.89 147.5 670.89 149.38 675.47 149.38 675.47 147.5 674.57 147.5 674.57 136.18 675.47 136.18 675.47 134.3 670.89 134.3 670.89 136.18 671.79 136.18"/></g><g id="POLYLINE-82" data-name="POLYLINE"><polygon class="cls-1" points="675.47 329.34 675.47 327.5 674.57 327.5 674.57 316.18 675.47 316.18 675.47 314.3 670.89 314.3 670.89 316.18 671.79 316.18 671.79 327.5 670.89 327.5 670.89 329.38 675.47 329.38 675.47 329.34"/></g><g id="POLYLINE-83" data-name="POLYLINE"><polygon class="cls-1" points="675.43 179.3 670.89 179.3 670.89 181.18 671.79 181.18 671.79 192.5 670.89 192.5 670.89 194.38 675.47 194.38 675.47 192.5 674.57 192.5 674.57 181.18 675.47 181.18 675.47 179.3 675.43 179.3"/></g><g id="POLYLINE-84" data-name="POLYLINE"><polygon class="cls-1" points="675.47 374.34 675.47 372.5 674.57 372.5 674.57 361.18 675.47 361.18 675.47 359.3 670.89 359.3 670.89 361.18 671.79 361.18 671.79 372.5 670.89 372.5 670.89 374.38 675.47 374.38 675.47 374.34"/></g><g id="POLYLINE-85" data-name="POLYLINE"><polygon class="cls-1" points="670.93 239.38 675.47 239.38 675.47 237.5 674.57 237.5 674.57 226.18 675.47 226.18 675.47 224.3 670.89 224.3 670.89 226.18 671.79 226.18 671.79 237.5 670.89 237.5 670.89 239.38 670.93 239.38"/></g><g id="POLYLINE-86" data-name="POLYLINE"><polygon class="cls-1" points="675.43 269.3 670.89 269.3 670.89 271.18 671.79 271.18 671.79 282.5 670.89 282.5 670.89 284.38 675.47 284.38 675.47 282.5 674.57 282.5 674.57 271.18 675.47 271.18 675.47 269.3 675.43 269.3"/></g><g id="POLYLINE-87" data-name="POLYLINE"><path class="cls-1" d="M717,348.09v-7.5a.72.72,0,0,0-1.43,0v7.5a.72.72,0,0,0,1.43,0Z"/></g><g id="POLYLINE-88" data-name="POLYLINE"><path class="cls-1" d="M717,258.09v-7.5a.72.72,0,0,0-1.43,0v7.5a.72.72,0,0,0,1.43,0Z"/></g><g id="POLYLINE-89" data-name="POLYLINE"><path class="cls-1" d="M717,168.09v-7.5a.72.72,0,0,0-1.43,0v7.5a.72.72,0,0,0,1.43,0Z"/></g><g id="CIRCLE-6" data-name="CIRCLE"><circle class="cls-1" cx="695.08" cy="344.34" r="9.79"/></g><g id="CIRCLE-7" data-name="CIRCLE"><circle class="cls-1" cx="695.08" cy="164.34" r="9.79"/></g><g id="POLYLINE-90" data-name="POLYLINE"><polygon class="cls-1" points="791.23 320.62 795.77 320.62 795.77 322.5 794.87 322.5 794.87 333.82 795.77 333.82 795.77 335.7 791.19 335.7 791.19 333.82 792.09 333.82 792.09 322.5 791.19 322.5 791.19 320.62 791.23 320.62"/></g><g id="POLYLINE-91" data-name="POLYLINE"><polygon class="cls-1" points="794.87 288.82 795.77 288.82 795.77 290.7 791.19 290.7 791.19 288.82 792.09 288.82 792.09 277.5 791.19 277.5 791.19 275.62 795.77 275.62 795.77 277.5 794.87 277.5 794.87 288.82"/></g><g id="POLYLINE-92" data-name="POLYLINE"><polygon class="cls-1" points="822.32 218.02 822.32 219.9 808.44 219.9 808.44 218.02 809.34 218.02 809.34 216.22 811.22 216.22 811.22 217.12 819.54 217.12 819.54 216.22 821.42 216.22 821.42 218.02 822.32 218.02"/></g><g id="POLYLINE-93" data-name="POLYLINE"><polygon class="cls-1" points="795.77 243.82 795.77 245.7 791.19 245.7 791.19 243.82 792.09 243.82 792.09 232.5 791.19 232.5 791.19 230.62 795.77 230.62 795.77 232.5 794.87 232.5 794.87 243.82 795.77 243.82"/></g><g id="POLYLINE-94" data-name="POLYLINE"><path class="cls-1" d="M837.32,309.41v-7.5a.72.72,0,0,0-1.43,0v7.5a.72.72,0,0,0,1.43,0Z"/></g><g id="POLYLINE-95" data-name="POLYLINE"><path class="cls-1" d="M819.09,232.91a3,3,0,1,1,6.08,0v10.5a3,3,0,1,1-6.08,0Z"/></g><g id="CIRCLE-8" data-name="CIRCLE"><circle class="cls-1" cx="815.38" cy="305.66" r="9.79"/></g><g id="POLYLINE-96" data-name="POLYLINE"><path class="cls-1" d="M804.13,169.27h12a.71.71,0,0,1,.71.72h0v0h0v0h0v0h0v0h0v0h0v0h0v0h0v0h0v0h0v0h0v0h0l0,0h0v0h-13v0h0v0h0l0,0h0v0h0v0h0v0h0v0h0v0h0v0h0v0h0v0h0v0h0v0h0A.71.71,0,0,1,804.13,169.27Z"/></g><g id="POLYLINE-97" data-name="POLYLINE"><path class="cls-1" d="M294.43,76.51h-30a4.6,4.6,0,1,0,0,9.19h30a4.6,4.6,0,0,0,0-9.19Z"/></g><g id="POLYLINE-98" data-name="POLYLINE"><path class="cls-1" d="M81.43,76.51h-30a4.6,4.6,0,1,0,0,9.19h30a4.6,4.6,0,0,0,0-9.19Z"/></g><g id="MTEXT"><text class="cls-2" transform="translate(806.32 243.52) rotate(90)">FLOOR-S/G</text></g><g id="MTEXT-2" data-name="MTEXT"><text class="cls-2" transform="translate(749.15 272.45) rotate(90)">FLOOR-S/E</text></g><g id="MTEXT-3" data-name="MTEXT"><text class="cls-2" transform="translate(691.51 237.37) rotate(90)">FLOOR-S/F</text></g><g id="MTEXT-4" data-name="MTEXT"><text class="cls-2" transform="translate(594.96 251.02) rotate(90)">FLOOR-S/G</text></g><g id="MTEXT-5" data-name="MTEXT"><text class="cls-2" transform="translate(537.35 272.45) rotate(90)">FLOOR-S/E</text></g><g id="MTEXT-6" data-name="MTEXT"><text class="cls-2" transform="translate(482.41 271.31) rotate(-90)">FLOOR-S/F</text></g><g id="MTEXT-7" data-name="MTEXT"><text class="cls-2" transform="translate(262.42 71.58)">FLOOR-S/C</text></g><g id="MTEXT-8" data-name="MTEXT"><text class="cls-2" transform="translate(49.42 70.38)">FLOOR-S/C</text></g><g id="MTEXT-9" data-name="MTEXT"><text class="cls-2" transform="translate(262.69 259.01)">FLOOR-S/B</text></g><g id="MTEXT-10" data-name="MTEXT"><text class="cls-2" transform="translate(354.19 259.01)">FLOOR-S/B</text></g><g id="MTEXT-11" data-name="MTEXT"><text class="cls-2" transform="translate(141.06 261.92)">FLOOR-S/A</text></g><g id="MTEXT-12" data-name="MTEXT"><text class="cls-2" transform="translate(49.56 261.92)">FLOOR-S/A</text></g><g id="MTEXT-13" data-name="MTEXT"><text class="cls-2" transform="translate(354.21 88.94)">FLOOR-S/D</text></g><g id="MTEXT-14" data-name="MTEXT"><text class="cls-2" transform="translate(141.21 88.94)">FLOOR-S/D</text></g><g id="POLYLINE-99" data-name="POLYLINE"><rect class="cls-3" x="233.83" y="31.17" width="183" height="366"/></g><g id="POLYLINE-100" data-name="POLYLINE"><rect class="cls-3" x="659.83" y="31.17" width="183" height="366"/></g><g id="POLYLINE-101" data-name="POLYLINE"><rect class="cls-3" x="446.83" y="31.17" width="183" height="366"/></g><g id="POLYLINE-102" data-name="POLYLINE"><rect class="cls-3" x="20.83" y="31.17" width="183" height="366"/></g></svg>