<svg id="Layer_1" data-name="Layer 1" xmlns="http://www.w3.org/2000/svg" viewBox="0 0 212.6 425.2"><defs><style>.cls-1,.cls-3{fill:none;stroke:#1d1d1b;stroke-miterlimit:10;}.cls-1{stroke-width:0.5px;}.cls-2{font-size:5.3px;fill:#1d1d1b;font-family:Monotxt;}.cls-3{stroke-width:0.25px;}</style></defs><g id="POLYLINE"><polyline class="cls-1" points="181.24 375.52 181.24 375.52 181.24 375.52"/></g><g id="POLYLINE-2" data-name="POLYLINE"><path class="cls-1" d="M108.64,341.45,121.45,353l.6-.67,1.37,1.23,0,0L121,356.25l28.42,25.59,2.42-2.68,1.39,1.25-.6.67,7.79,7h0a1.77,1.77,0,0,0,2.49-.13l8.34-9.27a1.75,1.75,0,0,0-.13-2.49L148.4,355.72l-.6.67-1.4-1.26,4.88-5.41,1.39,1.25-.6.67,22.75,20.49h0a1.78,1.78,0,0,0,2.5-.13l11.56-12.84h0a1.78,1.78,0,0,0-.13-2.5l-22.4-20.16-.6.67-1.4-1.26,4.85-5.39,0,0,1.39,1.25-.6.67,9.77,8.8V227.29l-13.44-12.1-.6.67-1.4-1.26,4.88-5.42,1.39,1.26-.6.67,9.77,8.8V163L105.94,96.5V128h3.61v1.88h-.91v25.93l19.58,17.62.6-.67,1.37,1.23,0,0-4.88,5.41-1.4-1.25.61-.67-15.91-14.32v40.45h.91v1.87h-3.61v43.8h3.61v1.88h-.91v25.93l19.58,17.62.6-.67,1.4,1.26-4.88,5.42L124,299.55l0,0,.61-.67-15.91-14.32v56.91Z"/></g><g id="POLYLINE-3" data-name="POLYLINE"><polyline class="cls-1" points="97.78 375.52 97.78 375.52 97.78 375.52"/></g><g id="POLYLINE-4" data-name="POLYLINE"><path class="cls-1" d="M25.19,341.45,38,353l.6-.67L40,353.54l0,0-2.42,2.68L66,381.84l2.41-2.68,1.4,1.25-.6.67,7.78,7h0a1.78,1.78,0,0,0,2.5-.13l8.34-9.27a1.76,1.76,0,0,0-.13-2.49L65,355.72l-.6.67L63,355.13l4.88-5.41L69.22,351l-.6.67,22.75,20.49h0a1.77,1.77,0,0,0,2.49-.13h0l11.57-12.84h0a1.78,1.78,0,0,0-.13-2.5L82.9,336.5l-.6.67-1.4-1.26,4.85-5.39,0,0,1.39,1.25-.6.67,9.77,8.8V227.29L82.9,215.19l-.6.67-1.4-1.26,4.88-5.42,1.39,1.26-.6.67,9.77,8.8V163L22.49,96.5V128h3.6v1.88h-.9v25.93l19.58,17.62.6-.67L46.74,174l0,0-4.87,5.41-1.4-1.25.61-.67L25.19,163.23v40.45h.9v1.87h-3.6v43.8h3.6v1.88h-.9v25.93l19.58,17.62.6-.67,1.39,1.26-4.87,5.42-1.37-1.24,0,0,.61-.67L25.19,284.54v56.91Z"/></g><g id="MTEXT"><text class="cls-2" transform="translate(145.33 274.78) rotate(-90)">COMB-G/END-X1</text></g><g id="MTEXT-2" data-name="MTEXT"><text class="cls-2" transform="translate(61.88 274.78) rotate(-90)">COMB-G/END-X1</text></g><g id="POLYLINE-5" data-name="POLYLINE"><polygon class="cls-1" points="174.68 183.32 169.35 183.32 169.35 184.22 167.47 184.22 167.47 176.93 169.35 176.93 169.35 177.84 174.68 177.84 174.68 176.93 176.56 176.93 176.56 184.22 174.68 184.22 174.68 183.32"/></g><g id="POLYLINE-6" data-name="POLYLINE"><polygon class="cls-1" points="174.68 239.12 169.35 239.12 169.35 240.02 167.47 240.02 167.47 232.74 169.35 232.74 169.35 233.64 174.68 233.64 174.68 232.74 176.56 232.74 176.56 240.02 174.68 240.02 174.68 239.12"/></g><g id="POLYLINE-7" data-name="POLYLINE"><polygon class="cls-1" points="174.68 304.63 169.35 304.63 169.35 305.53 167.47 305.53 167.47 298.25 169.35 298.25 169.35 299.15 174.68 299.15 174.68 298.25 176.56 298.25 176.56 305.53 174.68 305.53 174.68 304.63"/></g><g id="POLYLINE-8" data-name="POLYLINE"><polygon class="cls-1" points="91.23 183.32 85.9 183.32 85.9 184.22 84.02 184.22 84.02 176.93 85.9 176.93 85.9 177.84 91.23 177.84 91.23 176.93 93.11 176.93 93.11 184.22 91.23 184.22 91.23 183.32"/></g><g id="POLYLINE-9" data-name="POLYLINE"><polygon class="cls-1" points="91.23 239.12 85.9 239.12 85.9 240.02 84.02 240.02 84.02 232.74 85.9 232.74 85.9 233.64 91.23 233.64 91.23 232.74 93.11 232.74 93.11 240.02 91.23 240.02 91.23 239.12"/></g><g id="POLYLINE-10" data-name="POLYLINE"><polygon class="cls-1" points="91.23 304.63 85.9 304.63 85.9 305.53 84.02 305.53 84.02 298.25 85.9 298.25 85.9 299.15 91.23 299.15 91.23 298.25 93.11 298.25 93.11 305.53 91.23 305.53 91.23 304.63"/></g><g id="POLYLINE-11" data-name="POLYLINE"><rect class="cls-3" x="15.88" y="26.69" width="183.31" height="366.62"/></g></svg>