<svg id="Layer_1" data-name="Layer 1" xmlns="http://www.w3.org/2000/svg" viewBox="0 0 425.2 425.2"><defs><style>.cls-1,.cls-2{fill:none;stroke-linecap:round;stroke-linejoin:round;}.cls-1{stroke:#000;stroke-width:0.25px;}.cls-2{stroke:#1d1d1b;}</style></defs><line class="cls-1" x1="188.95" y1="175.5" x2="188.95" y2="157.56"/><line class="cls-1" x1="190.54" y1="156.64" x2="190.54" y2="174.58"/><line class="cls-1" x1="188.42" y1="175.2" x2="188.95" y2="175.5"/><line class="cls-1" x1="188.42" y1="176.42" x2="188.42" y2="175.2"/><line class="cls-1" x1="192.67" y1="178.87" x2="188.42" y2="176.42"/><line class="cls-1" x1="190.01" y1="175.5" x2="192.14" y2="176.73"/><line class="cls-1" x1="192.67" y1="177.65" x2="192.67" y2="178.87"/><line class="cls-1" x1="192.14" y1="177.34" x2="192.67" y2="177.65"/><line class="cls-1" x1="232.53" y1="222.06" x2="230.93" y2="222.97"/><line class="cls-1" x1="230.66" y1="225" x2="230.57" y2="225.06"/><line class="cls-1" x1="242.02" y1="261.32" x2="242.02" y2="243.38"/><line class="cls-1" x1="243.61" y1="242.46" x2="243.61" y2="260.4"/><line class="cls-1" x1="241.49" y1="262.24" x2="241.49" y2="261.63"/><line class="cls-1" x1="241.49" y1="261.32" x2="241.76" y2="261.17"/><line class="cls-1" x1="241.49" y1="261.63" x2="241.49" y2="261.32"/><line class="cls-1" x1="241.49" y1="261.32" x2="241.49" y2="261.02"/><line class="cls-1" x1="243.08" y1="261.32" x2="245.21" y2="262.55"/><line class="cls-1" x1="245.21" y1="263.16" x2="245.74" y2="263.47"/><line class="cls-1" x1="271.74" y1="287.95" x2="270.15" y2="288.87"/><line class="cls-1" x1="270.65" y1="299.71" x2="270.44" y2="299.83"/><line class="cls-1" x1="269.62" y1="300.31" x2="270.15" y2="300.61"/><line class="cls-1" x1="271.74" y1="299.69" x2="271.5" y2="299.56"/><line class="cls-1" x1="271.15" y1="299.42" x2="270.94" y2="299.54"/><line class="cls-1" x1="271.21" y1="300" x2="271.21" y2="300.31"/><line class="cls-1" x1="271.21" y1="300.31" x2="269.62" y2="301.23"/><line class="cls-1" x1="269.62" y1="301.23" x2="269.62" y2="300.31"/><line class="cls-1" x1="269.62" y1="301.53" x2="269.62" y2="301.23"/><line class="cls-1" x1="271.21" y1="300.31" x2="271.21" y2="300.61"/><line class="cls-1" x1="271.74" y1="328.8" x2="271.74" y2="302.76"/><line class="cls-1" x1="269.62" y1="328.8" x2="269.62" y2="327.58"/><line class="cls-1" x1="270.15" y1="329.11" x2="269.62" y2="328.8"/><line class="cls-1" x1="260.69" y1="330.79" x2="260.76" y2="331.29"/><line class="cls-1" x1="261.75" y1="332.63" x2="269.09" y2="336.87"/><line class="cls-1" x1="270.9" y1="336.03" x2="270.68" y2="335.95"/><line class="cls-1" x1="271.29" y1="336.05" x2="271.19" y2="336.07"/><line class="cls-1" x1="271.67" y1="335.75" x2="271.43" y2="336.03"/><line class="cls-1" x1="271.74" y1="335.34" x2="271.67" y2="335.75"/><line class="cls-1" x1="270.15" y1="336.26" x2="270.15" y2="329.11"/><line class="cls-1" x1="260.69" y1="309.96" x2="260.69" y2="330.79"/><line class="cls-1" x1="260.76" y1="331.29" x2="261" y2="331.84"/><line class="cls-1" x1="261.36" y1="332.32" x2="261.75" y2="332.63"/><line class="cls-1" x1="261" y1="331.84" x2="261.36" y2="332.32"/><line class="cls-1" x1="271.74" y1="328.8" x2="271.74" y2="335.34"/><line class="cls-1" x1="269.09" y1="336.87" x2="269.48" y2="337.01"/><line class="cls-1" x1="269.48" y1="337.01" x2="269.84" y2="336.95"/><line class="cls-1" x1="269.84" y1="336.95" x2="270.07" y2="336.67"/><line class="cls-1" x1="270.07" y1="336.67" x2="270.15" y2="336.26"/><line class="cls-1" x1="261.22" y1="310.27" x2="260.69" y2="309.96"/><line class="cls-1" x1="256.97" y1="307.81" x2="256.97" y2="306.89"/><line class="cls-1" x1="256.97" y1="306.89" x2="257.24" y2="306.74"/><line class="cls-1" x1="256.97" y1="306.89" x2="256.97" y2="306.59"/><line class="cls-1" x1="257.5" y1="308.12" x2="256.97" y2="307.81"/><line class="cls-1" x1="245.21" y1="301.35" x2="245.21" y2="323.08"/><line class="cls-1" x1="245.74" y1="301.65" x2="245.21" y2="301.35"/><line class="cls-1" x1="241.49" y1="297.98" x2="242.55" y2="298.59"/><line class="cls-1" x1="241.49" y1="299.2" x2="241.49" y2="297.98"/><line class="cls-1" x1="242.02" y1="308.53" x2="242.02" y2="299.51"/><line class="cls-1" x1="243.61" y1="299.2" x2="243.61" y2="307.61"/><line class="cls-1" x1="192.67" y1="215.22" x2="192.14" y2="215.53"/><line class="cls-1" x1="192.14" y1="215.53" x2="192.14" y2="227.86"/><line class="cls-1" x1="192.67" y1="215.83" x2="192.14" y2="215.53"/><line class="cls-1" x1="188.42" y1="213.38" x2="188.42" y2="212.16"/><line class="cls-1" x1="188.95" y1="213.69" x2="188.42" y2="213.38"/><line class="cls-1" x1="188.95" y1="222.71" x2="188.95" y2="213.69"/><line class="cls-1" x1="190.54" y1="213.38" x2="190.54" y2="221.79"/><line class="cls-1" x1="230.86" y1="279.2" x2="230.11" y2="279.64"/><line class="cls-1" x1="230.5" y1="280.28" x2="230.11" y2="279.64"/><line class="cls-1" x1="231.21" y1="279.77" x2="230.5" y2="280.28"/><line class="cls-1" x1="228.1" y1="274.74" x2="227.34" y2="275.17"/><line class="cls-1" x1="227.34" y1="275.17" x2="228.05" y2="274.67"/><line class="cls-1" x1="228.49" y1="275.38" x2="227.74" y2="275.81"/><line class="cls-1" x1="227.74" y1="275.81" x2="227.34" y2="275.17"/><line class="cls-1" x1="228.54" y1="275.45" x2="227.2" y2="276.39"/><line class="cls-1" x1="225.61" y1="277.31" x2="227.74" y2="275.81"/><line class="cls-1" x1="225.26" y1="276.74" x2="224.5" y2="277.18"/><line class="cls-1" x1="224.5" y1="277.18" x2="225.21" y2="276.68"/><line class="cls-1" x1="226.45" y1="276.83" x2="228.77" y2="280.58"/><line class="cls-1" x1="227.66" y1="282.28" x2="224.5" y2="277.18"/><line class="cls-1" x1="228.37" y1="281.78" x2="227.66" y2="282.28"/><line class="cls-1" x1="227.97" y1="281.14" x2="228.37" y2="281.78"/><line class="cls-1" x1="202.2" y1="232.86" x2="201.45" y2="233.29"/><line class="cls-1" x1="201.84" y1="233.93" x2="201.45" y2="233.29"/><line class="cls-1" x1="202.55" y1="233.43" x2="201.84" y2="233.93"/><line class="cls-1" x1="199.44" y1="228.4" x2="198.69" y2="228.83"/><line class="cls-1" x1="198.69" y1="228.83" x2="199.4" y2="228.33"/><line class="cls-1" x1="199.83" y1="229.03" x2="199.08" y2="229.47"/><line class="cls-1" x1="199.08" y1="229.47" x2="198.69" y2="228.83"/><line class="cls-1" x1="199.88" y1="229.11" x2="198.54" y2="230.05"/><line class="cls-1" x1="196.95" y1="230.97" x2="199.08" y2="229.47"/><line class="cls-1" x1="196.6" y1="230.4" x2="195.84" y2="230.83"/><line class="cls-1" x1="195.84" y1="230.83" x2="196.56" y2="230.33"/><line class="cls-1" x1="197.79" y1="230.48" x2="200.11" y2="234.24"/><line class="cls-1" x1="199" y1="235.93" x2="195.84" y2="230.83"/><line class="cls-1" x1="199.71" y1="235.43" x2="199" y2="235.93"/><line class="cls-1" x1="199.32" y1="234.8" x2="199.71" y2="235.43"/><line class="cls-1" x1="177.79" y1="193.39" x2="177.03" y2="193.82"/><line class="cls-1" x1="177.43" y1="194.46" x2="177.03" y2="193.82"/><line class="cls-1" x1="178.14" y1="193.96" x2="177.43" y2="194.46"/><line class="cls-1" x1="175.03" y1="188.92" x2="174.27" y2="189.35"/><line class="cls-1" x1="174.27" y1="189.35" x2="174.98" y2="188.85"/><line class="cls-1" x1="175.42" y1="189.56" x2="174.67" y2="189.99"/><line class="cls-1" x1="174.67" y1="189.99" x2="174.27" y2="189.35"/><line class="cls-1" x1="175.47" y1="189.63" x2="174.13" y2="190.58"/><line class="cls-1" x1="172.54" y1="191.49" x2="174.67" y2="189.99"/><line class="cls-1" x1="173.38" y1="191.01" x2="175.7" y2="194.76"/><line class="cls-1" x1="174.59" y1="196.46" x2="171.43" y2="191.36"/><line class="cls-1" x1="175.3" y1="195.96" x2="174.59" y2="196.46"/><line class="cls-1" x1="174.9" y1="195.32" x2="175.3" y2="195.96"/><line class="cls-1" x1="164.01" y1="182.37" x2="164.01" y2="114.75"/><line class="cls-1" x1="257.5" y1="308.12" x2="257.5" y2="330.18"/><line class="cls-1" x1="171.64" y1="191.22" x2="171.65" y2="191.23"/><line class="cls-1" x1="164.01" y1="114.75" x2="165.6" y2="113.84"/><line class="cls-1" x1="259.09" y1="329.26" x2="259.09" y2="307.81"/><line class="cls-1" x1="245.21" y1="323.08" x2="257.5" y2="330.18"/><line class="cls-1" x1="190.01" y1="174.89" x2="188.95" y2="175.5"/><line class="cls-1" x1="192.14" y1="162.71" x2="192.14" y2="176.73"/><line class="cls-1" x1="192.14" y1="176.73" x2="192.14" y2="177.34"/><line class="cls-1" x1="211.83" y1="191.89" x2="211.74" y2="191.94"/><line class="cls-1" x1="243.08" y1="260.71" x2="242.02" y2="261.32"/><line class="cls-1" x1="241.49" y1="261.02" x2="241.76" y2="261.17"/><line class="cls-1" x1="241.76" y1="261.17" x2="242.02" y2="261.32"/><line class="cls-1" x1="241.49" y1="261.63" x2="242.02" y2="261.32"/><line class="cls-1" x1="245.21" y1="248.53" x2="245.21" y2="262.55"/><line class="cls-1" x1="245.21" y1="262.55" x2="245.21" y2="263.16"/><line class="cls-1" x1="270.68" y1="328.19" x2="271.21" y2="328.5"/><line class="cls-1" x1="271.21" y1="328.5" x2="271.74" y2="328.8"/><line class="cls-1" x1="261.22" y1="309.65" x2="261.22" y2="310.27"/><line class="cls-1" x1="256.97" y1="306.59" x2="257.24" y2="306.74"/><line class="cls-1" x1="257.24" y1="306.74" x2="258.03" y2="307.2"/><line class="cls-1" x1="258.03" y1="307.2" x2="258.56" y2="307.51"/><line class="cls-1" x1="258.56" y1="307.51" x2="259.09" y2="307.81"/><line class="cls-1" x1="245.74" y1="300.43" x2="245.74" y2="301.04"/><line class="cls-1" x1="245.74" y1="301.04" x2="245.74" y2="301.65"/><line class="cls-1" x1="242.55" y1="298.59" x2="243.08" y2="298.89"/><line class="cls-1" x1="243.08" y1="298.89" x2="243.61" y2="299.2"/><line class="cls-1" x1="192.67" y1="214.61" x2="192.67" y2="215.22"/><line class="cls-1" x1="192.67" y1="215.22" x2="192.67" y2="215.83"/><line class="cls-1" x1="188.42" y1="212.16" x2="189.48" y2="212.77"/><line class="cls-1" x1="230.11" y1="279.64" x2="228.77" y2="280.58"/><line class="cls-1" x1="228.77" y1="280.58" x2="227.97" y2="281.14"/><line class="cls-1" x1="228.05" y1="274.67" x2="228.1" y2="274.74"/><line class="cls-1" x1="227.2" y1="276.39" x2="226.45" y2="276.83"/><line class="cls-1" x1="226.45" y1="276.83" x2="225.61" y2="277.31"/><line class="cls-1" x1="225.21" y1="276.68" x2="225.26" y2="276.74"/><line class="cls-1" x1="225.26" y1="276.74" x2="225.61" y2="277.31"/><line class="cls-1" x1="201.45" y1="233.29" x2="200.11" y2="234.24"/><line class="cls-1" x1="200.11" y1="234.24" x2="199.32" y2="234.8"/><line class="cls-1" x1="202.2" y1="232.86" x2="202.55" y2="233.43"/><line class="cls-1" x1="198.54" y1="230.05" x2="197.79" y2="230.48"/><line class="cls-1" x1="197.79" y1="230.48" x2="196.95" y2="230.97"/><line class="cls-1" x1="196.56" y1="230.33" x2="196.6" y2="230.4"/><line class="cls-1" x1="196.6" y1="230.4" x2="196.95" y2="230.97"/><line class="cls-1" x1="177.03" y1="193.82" x2="175.7" y2="194.76"/><line class="cls-1" x1="175.7" y1="194.76" x2="174.9" y2="195.32"/><line class="cls-1" x1="177.79" y1="193.39" x2="178.14" y2="193.96"/><line class="cls-1" x1="174.13" y1="190.58" x2="173.38" y2="191.01"/><line class="cls-1" x1="173.38" y1="191.01" x2="172.54" y2="191.49"/><line class="cls-1" x1="172.14" y1="190.86" x2="172.18" y2="190.92"/><line class="cls-1" x1="172.18" y1="190.92" x2="172.54" y2="191.49"/><line class="cls-1" x1="172.18" y1="190.92" x2="171.65" y2="191.23"/><line class="cls-1" x1="171.65" y1="191.23" x2="171.43" y2="191.36"/><line class="cls-1" x1="171.43" y1="191.36" x2="171.64" y2="191.22"/><line class="cls-1" x1="171.64" y1="191.22" x2="172.14" y2="190.86"/><line class="cls-1" x1="189.48" y1="212.77" x2="190.01" y2="213.08"/><line class="cls-1" x1="228.1" y1="274.74" x2="228.49" y2="275.38"/><line class="cls-1" x1="199.4" y1="228.33" x2="199.44" y2="228.4"/><line class="cls-1" x1="174.98" y1="188.85" x2="175.03" y2="188.92"/><line class="cls-1" x1="190.01" y1="213.08" x2="190.54" y2="213.38"/><line class="cls-1" x1="190.54" y1="213.38" x2="192.67" y2="214.61"/><line class="cls-1" x1="228.49" y1="275.38" x2="228.54" y2="275.45"/><line class="cls-1" x1="199.44" y1="228.4" x2="199.83" y2="229.03"/><line class="cls-1" x1="175.03" y1="188.92" x2="175.42" y2="189.56"/><line class="cls-1" x1="228.54" y1="275.45" x2="230.86" y2="279.2"/><line class="cls-1" x1="230.86" y1="279.2" x2="231.21" y2="279.77"/><line class="cls-1" x1="199.83" y1="229.03" x2="199.88" y2="229.11"/><line class="cls-1" x1="199.88" y1="229.11" x2="202.2" y2="232.86"/><line class="cls-1" x1="175.42" y1="189.56" x2="175.47" y2="189.63"/><line class="cls-1" x1="175.47" y1="189.63" x2="177.79" y2="193.39"/><line class="cls-1" x1="177.86" y1="137.16" x2="176.44" y2="138.16"/><line class="cls-1" x1="177.86" y1="137.16" x2="179.45" y2="136.24"/><line class="cls-1" x1="178.03" y1="137.24" x2="179.45" y2="136.24"/><line class="cls-1" x1="176.44" y1="138.16" x2="177.23" y2="139.43"/><line class="cls-1" x1="176.44" y1="138.16" x2="178.03" y2="137.24"/><line class="cls-1" x1="178.8" y1="138.48" x2="178.03" y2="137.24"/><line class="cls-1" x1="179.18" y1="138.26" x2="178.8" y2="138.48"/><line class="cls-1" x1="177.58" y1="139.18" x2="177.23" y2="139.43"/><line class="cls-1" x1="177.58" y1="139.18" x2="178.8" y2="138.48"/><line class="cls-1" x1="190.54" y1="156.64" x2="179.18" y2="138.26"/><line class="cls-1" x1="177.58" y1="139.18" x2="188.95" y2="157.56"/><line class="cls-1" x1="190.54" y1="174.58" x2="190.01" y2="174.89"/><line class="cls-1" x1="188.95" y1="157.56" x2="190.54" y2="156.64"/><line class="cls-1" x1="188.42" y1="176.42" x2="190.01" y2="175.5"/><line class="cls-1" x1="192.14" y1="162.71" x2="193.73" y2="161.79"/><line class="cls-1" x1="192.14" y1="162.71" x2="209.88" y2="191.41"/><line class="cls-1" x1="211.48" y1="190.49" x2="193.73" y2="161.79"/><line class="cls-1" x1="209.88" y1="191.41" x2="209.53" y2="191.66"/><line class="cls-1" x1="209.88" y1="191.41" x2="211.48" y2="190.49"/><line class="cls-1" x1="211.12" y1="190.74" x2="211.48" y2="190.49"/><line class="cls-1" x1="209.53" y1="191.66" x2="210.32" y2="192.94"/><line class="cls-1" x1="209.53" y1="191.66" x2="211.12" y2="190.74"/><line class="cls-1" x1="211.83" y1="191.89" x2="211.12" y2="190.74"/><line class="cls-1" x1="210.32" y1="192.94" x2="211.74" y2="191.94"/><line class="cls-1" x1="213.33" y1="191.02" x2="211.83" y2="191.89"/><line class="cls-1" x1="232.53" y1="222.06" x2="213.33" y2="191.02"/><line class="cls-1" x1="211.74" y1="191.94" x2="230.93" y2="222.97"/><line class="cls-1" x1="230.93" y1="222.97" x2="229.51" y2="223.98"/><line class="cls-1" x1="231.11" y1="223.06" x2="232.53" y2="222.06"/><line class="cls-1" x1="229.51" y1="223.98" x2="230.3" y2="225.25"/><line class="cls-1" x1="229.51" y1="223.98" x2="231.11" y2="223.06"/><line class="cls-1" x1="231.87" y1="224.3" x2="231.11" y2="223.06"/><line class="cls-1" x1="230.3" y1="225.25" x2="230.57" y2="225.06"/><line class="cls-1" x1="232.25" y1="224.08" x2="231.87" y2="224.3"/><line class="cls-1" x1="230.66" y1="225" x2="231.87" y2="224.3"/><line class="cls-1" x1="243.61" y1="242.46" x2="232.25" y2="224.08"/><line class="cls-1" x1="230.66" y1="225" x2="242.02" y2="243.38"/><line class="cls-1" x1="243.61" y1="260.4" x2="243.08" y2="260.71"/><line class="cls-1" x1="242.02" y1="243.38" x2="243.61" y2="242.46"/><line class="cls-1" x1="241.49" y1="262.24" x2="245.74" y2="264.69"/><line class="cls-1" x1="241.49" y1="262.24" x2="243.08" y2="261.32"/><line class="cls-1" x1="245.74" y1="264.69" x2="245.74" y2="263.47"/><line class="cls-1" x1="245.21" y1="248.53" x2="246.8" y2="247.61"/><line class="cls-1" x1="271.74" y1="287.95" x2="246.8" y2="247.61"/><line class="cls-1" x1="245.21" y1="248.53" x2="270.15" y2="288.87"/><line class="cls-1" x1="271.21" y1="300" x2="271.74" y2="299.69"/><line class="cls-1" x1="270.15" y1="300.61" x2="270.15" y2="294.78"/><line class="cls-1" x1="270.15" y1="294.78" x2="270.15" y2="288.87"/><line class="cls-1" x1="271.74" y1="287.95" x2="271.74" y2="299.69"/><line class="cls-1" x1="271.21" y1="300" x2="270.15" y2="300.61"/><line class="cls-1" x1="269.62" y1="301.53" x2="271.74" y2="302.76"/><line class="cls-1" x1="269.62" y1="301.53" x2="271.21" y2="300.61"/><line class="cls-1" x1="271.74" y1="302.76" x2="273.33" y2="301.84"/><line class="cls-1" x1="269.62" y1="327.58" x2="270.68" y2="328.19"/><line class="cls-1" x1="271.74" y1="328.8" x2="273.33" y2="327.88"/><line class="cls-1" x1="269.62" y1="328.8" x2="270.68" y2="328.19"/><line class="cls-1" x1="269.84" y1="336.95" x2="271.43" y2="336.03"/><line class="cls-1" x1="261.22" y1="309.65" x2="260.69" y2="309.96"/><line class="cls-1" x1="270.15" y1="329.11" x2="271.21" y2="328.5"/><line class="cls-1" x1="261.22" y1="309.04" x2="261.22" y2="309.65"/><line class="cls-1" x1="259.09" y1="307.81" x2="261.22" y2="309.04"/><line class="cls-1" x1="256.97" y1="307.81" x2="258.03" y2="307.2"/><line class="cls-1" x1="245.74" y1="301.04" x2="245.21" y2="301.35"/><line class="cls-1" x1="243.61" y1="299.2" x2="245.74" y2="300.43"/><line class="cls-1" x1="242.55" y1="298.59" x2="241.49" y2="299.2"/><line class="cls-1" x1="242.02" y1="299.51" x2="241.49" y2="299.2"/><line class="cls-1" x1="242.02" y1="308.53" x2="243.61" y2="307.61"/><line class="cls-1" x1="242.02" y1="299.51" x2="243.08" y2="298.89"/><line class="cls-1" x1="242.02" y1="308.53" x2="192.14" y2="227.86"/><line class="cls-1" x1="189.48" y1="212.77" x2="188.42" y2="213.38"/><line class="cls-1" x1="188.95" y1="222.71" x2="190.54" y2="221.79"/><line class="cls-1" x1="188.95" y1="213.69" x2="190.01" y2="213.08"/><line class="cls-1" x1="164.01" y1="182.37" x2="188.95" y2="222.71"/><line class="cls-1" x1="177.86" y1="137.16" x2="164.01" y2="114.75"/><line class="cls-1" x1="273.33" y1="327.88" x2="273.33" y2="301.84"/><line class="cls-1" x1="273.33" y1="301.84" x2="271.21" y2="300.61"/><line class="cls-1" x1="271.24" y1="299.4" x2="271.46" y2="299.53"/><line class="cls-1" x1="243.08" y1="261.32" x2="243.08" y2="260.71"/><line class="cls-1" x1="190.01" y1="175.5" x2="190.01" y2="174.89"/><line class="cls-1" x1="165.6" y1="113.84" x2="179.45" y2="136.24"/><line class="cls-1" x1="257.5" y1="308.12" x2="258.56" y2="307.51"/><line class="cls-1" x1="257.5" y1="330.18" x2="259.09" y2="329.26"/><polygon class="cls-2" points="164.08 115.25 165.67 114.33 179.53 136.73 178.1 137.73 178.87 138.98 179.25 138.76 190.62 157.14 190.62 175.08 190.09 175.39 190.09 176 192.21 177.22 192.21 163.21 193.8 162.29 211.55 190.99 211.19 191.24 211.9 192.38 213.4 191.51 232.6 222.55 231.18 223.55 231.94 224.79 232.32 224.58 243.69 242.96 243.69 260.9 243.16 261.2 243.16 261.82 245.28 263.04 245.28 249.03 246.87 248.11 271.81 288.44 271.81 300.19 271.29 300.5 271.28 300.8 271.29 301.11 273.41 302.33 273.41 328.38 271.81 329.3 271.81 335.83 271.74 336.24 271.5 336.52 269.91 337.44 269.55 337.51 269.16 337.37 261.82 333.13 261.43 332.82 261.07 332.34 260.83 331.78 260.76 331.29 260.76 310.45 261.29 310.15 261.29 309.54 259.17 308.31 259.17 329.76 257.57 330.68 245.28 323.58 245.28 301.84 245.81 301.54 245.81 300.92 243.69 299.7 243.69 308.1 242.09 309.02 192.21 228.35 192.21 216.02 192.74 215.72 192.74 215.1 190.62 213.88 190.62 222.28 189.02 223.2 164.08 182.87 164.08 115.25"/></svg>