<svg id="Layer_1" data-name="Layer 1" xmlns="http://www.w3.org/2000/svg" viewBox="0 0 212.6 425.2"><defs><style>.cls-1{font-size:5.3px;fill:#1d1d1b;font-family:Monotxt;}.cls-2,.cls-3{fill:none;stroke:#1d1d1b;stroke-miterlimit:10;}.cls-2{stroke-width:0.25px;}.cls-3{stroke-width:0.5px;}</style></defs><g id="MTEXT"><text class="cls-1" transform="translate(139.14 273.05) rotate(90)">COMB-A/END-X1</text></g><g id="MTEXT-2" data-name="MTEXT"><text class="cls-1" transform="translate(84.1 351.2) rotate(-90)">COMB-A/END-X1</text></g><g id="POLYLINE"><rect class="cls-2" x="15.4" y="31.06" width="183.49" height="366.97"/></g><g id="POLYLINE-2" data-name="POLYLINE"><polygon class="cls-3" points="28.83 362.5 34.17 362.5 34.17 361.6 36.05 361.6 36.05 368.89 34.17 368.89 34.17 367.99 28.83 367.99 28.83 368.89 26.95 368.89 26.95 361.6 28.83 361.6 28.83 362.5"/></g><g id="POLYLINE-3" data-name="POLYLINE"><polygon class="cls-3" points="28.83 336.93 26.95 336.93 26.95 344.23 28.83 344.23 28.83 343.32 34.17 343.32 34.17 344.23 36.05 344.23 36.05 336.93 34.17 336.93 34.17 337.83 28.83 337.83 28.83 336.93"/></g><g id="POLYLINE-4" data-name="POLYLINE"><polygon class="cls-3" points="26.95 271.36 26.95 278.65 28.83 278.65 28.83 277.75 34.17 277.75 34.17 278.65 36.05 278.65 36.05 271.36 34.17 271.36 34.17 272.26 28.83 272.26 28.83 271.36 26.95 271.36"/></g><g id="POLYLINE-5" data-name="POLYLINE"><polygon class="cls-3" points="191.26 271.36 191.26 278.65 189.38 278.65 189.38 277.75 184.04 277.75 184.04 278.65 182.16 278.65 182.16 271.36 184.04 271.36 184.04 272.26 189.38 272.26 189.38 271.36 191.26 271.36"/></g><g id="POLYLINE-6" data-name="POLYLINE"><polygon class="cls-3" points="189.38 336.93 191.26 336.93 191.26 344.23 189.38 344.23 189.38 343.32 184.04 343.32 184.04 344.23 182.16 344.23 182.16 336.93 184.04 336.93 184.04 337.83 189.38 337.83 189.38 336.93"/></g><g id="POLYLINE-7" data-name="POLYLINE"><polygon class="cls-3" points="189.38 362.5 184.04 362.5 184.04 361.6 182.16 361.6 182.16 368.89 184.04 368.89 184.04 367.99 189.38 367.99 189.38 368.89 191.26 368.89 191.26 361.6 189.38 361.6 189.38 362.5"/></g><g id="POLYLINE-8" data-name="POLYLINE"><path class="cls-3" d="M25.48,284.26a1.73,1.73,0,0,1-1.73-1.73V267.19a1.72,1.72,0,0,1,1.73-1.73H58.19v.9h2V259h-2v.9H43.3V217.63H58.19v.9h2v-3.61H100.3v18.65H69v-.9h-2V240h2v-.9H100.3V398h-57V373.59H41.35v.9H25.48a1.72,1.72,0,0,1-1.73-1.72V357.42a1.73,1.73,0,0,1,1.73-1.73H58.19v.91h2v-7.37h-2v.9H25.48a1.72,1.72,0,0,1-1.73-1.73V333.06a1.72,1.72,0,0,1,1.73-1.73H41.35v.9H43.3V283.35H41.35v.91Z"/></g><g id="POLYLINE-9" data-name="POLYLINE"><path class="cls-3" d="M192.72,284.26a1.73,1.73,0,0,0,1.73-1.73V267.19a1.72,1.72,0,0,0-1.73-1.73H160v.9h-1.95V259H160v.9H174.9V217.63H160v.9h-1.95v-3.61H117.9v18.65h31.28v-.9h2V240h-2v-.9H117.9V398h57V373.59h2v.9h15.86a1.72,1.72,0,0,0,1.73-1.72V357.42a1.73,1.73,0,0,0-1.73-1.73H160v.91h-1.95v-7.37H160v.9h32.71a1.72,1.72,0,0,0,1.73-1.73V333.06a1.72,1.72,0,0,0-1.73-1.73H176.86v.9h-2V283.35h2v.91Z"/></g></svg>