<svg id="Layer_1" data-name="Layer 1" xmlns="http://www.w3.org/2000/svg" viewBox="0 0 425.2 425.2"><defs><style>.cls-1,.cls-2{fill:none;stroke-linecap:round;stroke-linejoin:round;}.cls-1{stroke:#000;stroke-width:0.25px;}.cls-2{stroke:#1d1d1b;}</style></defs><line class="cls-1" x1="174.54" y1="180.07" x2="174.58" y2="179.84"/><line class="cls-1" x1="174.61" y1="179.67" x2="174.69" y2="179.57"/><line class="cls-1" x1="174.76" y1="179.5" x2="174.85" y2="179.39"/><line class="cls-1" x1="174.85" y1="179.39" x2="175.21" y2="179.32"/><line class="cls-1" x1="175.21" y1="179.32" x2="175.6" y2="179.46"/><line class="cls-1" x1="175.6" y1="179.46" x2="184.63" y2="184.67"/><line class="cls-1" x1="184.63" y1="184.67" x2="185.02" y2="184.98"/><line class="cls-1" x1="185.02" y1="184.98" x2="185.38" y2="185.46"/><line class="cls-1" x1="185.38" y1="185.46" x2="185.61" y2="186.01"/><line class="cls-1" x1="185.61" y1="186.01" x2="185.69" y2="186.51"/><line class="cls-1" x1="185.16" y1="197.64" x2="185.16" y2="198.25"/><line class="cls-1" x1="213.28" y1="202.44" x2="213.33" y2="202.21"/><line class="cls-1" x1="213.36" y1="202.03" x2="213.5" y2="201.86"/><line class="cls-1" x1="213.59" y1="201.75" x2="213.95" y2="201.69"/><line class="cls-1" x1="213.95" y1="201.69" x2="214.35" y2="201.83"/><line class="cls-1" x1="214.35" y1="201.83" x2="223.37" y2="207.04"/><line class="cls-1" x1="223.37" y1="207.04" x2="223.76" y2="207.35"/><line class="cls-1" x1="223.76" y1="207.35" x2="224.12" y2="207.83"/><line class="cls-1" x1="224.12" y1="207.83" x2="224.35" y2="208.38"/><line class="cls-1" x1="224.35" y1="208.38" x2="224.43" y2="208.88"/><line class="cls-1" x1="224.43" y1="208.88" x2="224.43" y2="231.14"/><line class="cls-1" x1="223.9" y1="231.45" x2="223.9" y2="232.06"/><line class="cls-1" x1="227.65" y1="210.48" x2="227.69" y2="210.31"/><line class="cls-1" x1="227.76" y1="210.21" x2="227.92" y2="210.03"/><line class="cls-1" x1="227.92" y1="210.03" x2="228.28" y2="209.96"/><line class="cls-1" x1="228.28" y1="209.96" x2="228.68" y2="210.1"/><line class="cls-1" x1="228.68" y1="210.1" x2="237.7" y2="215.31"/><line class="cls-1" x1="237.7" y1="215.31" x2="238.09" y2="215.62"/><line class="cls-1" x1="238.09" y1="215.62" x2="238.45" y2="216.1"/><line class="cls-1" x1="238.45" y1="216.1" x2="238.68" y2="216.65"/><line class="cls-1" x1="238.68" y1="216.65" x2="238.76" y2="217.15"/><line class="cls-1" x1="238.76" y1="217.15" x2="238.76" y2="227.98"/><line class="cls-1" x1="238.23" y1="228.28" x2="238.23" y2="228.89"/><line class="cls-1" x1="170.83" y1="200.81" x2="170.83" y2="201.42"/><line class="cls-1" x1="178.61" y1="185.28" x2="178.61" y2="188.35"/><line class="cls-1" x1="178.08" y1="188.65" x2="178.08" y2="189.27"/><line class="cls-1" x1="178.08" y1="189.27" x2="180.2" y2="190.49"/><line class="cls-1" x1="217.18" y1="207.55" x2="217.18" y2="210.61"/><line class="cls-1" x1="216.64" y1="210.92" x2="216.64" y2="211.53"/><line class="cls-1" x1="216.64" y1="211.53" x2="218.77" y2="212.76"/><line class="cls-1" x1="231.15" y1="219.29" x2="231.15" y2="219.91"/><line class="cls-1" x1="231.15" y1="219.91" x2="233.27" y2="221.13"/><line class="cls-1" x1="231.68" y1="215.92" x2="231.68" y2="218.99"/><line class="cls-1" x1="173.26" y1="180.31" x2="173.62" y2="180.24"/><line class="cls-1" x1="184.1" y1="187.43" x2="185.69" y2="186.51"/><line class="cls-1" x1="183.03" y1="185.59" x2="183.42" y2="185.9"/><line class="cls-1" x1="184.02" y1="186.93" x2="184.1" y2="187.43"/><line class="cls-1" x1="172.95" y1="180.99" x2="173.02" y2="180.58"/><line class="cls-1" x1="173.02" y1="180.58" x2="173.26" y2="180.31"/><line class="cls-1" x1="173.62" y1="180.24" x2="174.01" y2="180.38"/><line class="cls-1" x1="174.01" y1="180.38" x2="183.03" y2="185.59"/><line class="cls-1" x1="183.42" y1="185.9" x2="183.78" y2="186.38"/><line class="cls-1" x1="183.78" y1="186.38" x2="184.02" y2="186.93"/><line class="cls-1" x1="173.48" y1="203.57" x2="172.95" y2="203.26"/><line class="cls-1" x1="173.48" y1="204.79" x2="173.48" y2="203.57"/><line class="cls-1" x1="169.23" y1="202.34" x2="173.48" y2="204.79"/><line class="cls-1" x1="169.23" y1="201.11" x2="169.23" y2="202.34"/><line class="cls-1" x1="169.77" y1="201.42" x2="169.23" y2="201.11"/><line class="cls-1" x1="171.36" y1="190.29" x2="169.77" y2="191.21"/><line class="cls-1" x1="169.77" y1="191.21" x2="169.77" y2="201.42"/><line class="cls-1" x1="146.41" y1="175.88" x2="144.82" y2="176.8"/><line class="cls-1" x1="144.82" y1="176.8" x2="169.77" y2="191.21"/><line class="cls-1" x1="145.35" y1="187.32" x2="144.82" y2="187.02"/><line class="cls-1" x1="145.35" y1="188.55" x2="145.35" y2="187.32"/><line class="cls-1" x1="144.82" y1="186.41" x2="143.23" y2="187.32"/><line class="cls-1" x1="143.23" y1="187.32" x2="145.35" y2="188.55"/><line class="cls-1" x1="143.23" y1="214.7" x2="143.23" y2="187.32"/><line class="cls-1" x1="155.88" y1="220.16" x2="154.29" y2="221.08"/><line class="cls-1" x1="154.29" y1="221.08" x2="143.23" y2="214.7"/><line class="cls-1" x1="154.29" y1="199.73" x2="154.29" y2="221.08"/><line class="cls-1" x1="153.75" y1="199.43" x2="154.29" y2="199.73"/><line class="cls-1" x1="153.75" y1="198.2" x2="153.75" y2="199.43"/><line class="cls-1" x1="157.47" y1="201.57" x2="158" y2="201.88"/><line class="cls-1" x1="157.47" y1="222.92" x2="157.47" y2="201.57"/><line class="cls-1" x1="252.56" y1="275.98" x2="250.96" y2="276.9"/><line class="cls-1" x1="250.96" y1="276.9" x2="157.47" y2="222.92"/><line class="cls-1" x1="252.56" y1="237.17" x2="250.96" y2="238.09"/><line class="cls-1" x1="250.96" y1="238.09" x2="250.96" y2="276.9"/><line class="cls-1" x1="236.64" y1="229.81" x2="250.96" y2="238.09"/><line class="cls-1" x1="236.64" y1="228.59" x2="236.64" y2="229.81"/><line class="cls-1" x1="237.17" y1="228.89" x2="236.64" y2="228.59"/><line class="cls-1" x1="226.02" y1="211.63" x2="226.09" y2="211.22"/><line class="cls-1" x1="227.08" y1="211.02" x2="236.1" y2="216.23"/><line class="cls-1" x1="237.09" y1="217.57" x2="237.17" y2="218.07"/><line class="cls-1" x1="237.17" y1="218.07" x2="237.17" y2="228.89"/><line class="cls-1" x1="226.09" y1="211.22" x2="226.33" y2="210.95"/><line class="cls-1" x1="226.69" y1="210.88" x2="227.08" y2="211.02"/><line class="cls-1" x1="226.33" y1="210.95" x2="226.69" y2="210.88"/><line class="cls-1" x1="236.1" y1="216.23" x2="236.5" y2="216.54"/><line class="cls-1" x1="236.86" y1="217.02" x2="237.09" y2="217.57"/><line class="cls-1" x1="236.5" y1="216.54" x2="236.86" y2="217.02"/><line class="cls-1" x1="226.55" y1="234.21" x2="226.02" y2="233.9"/><line class="cls-1" x1="226.55" y1="235.43" x2="226.55" y2="234.21"/><line class="cls-1" x1="222.31" y1="232.98" x2="226.55" y2="235.43"/><line class="cls-1" x1="222.31" y1="231.75" x2="222.31" y2="232.98"/><line class="cls-1" x1="222.84" y1="232.06" x2="222.31" y2="231.75"/><line class="cls-1" x1="211.69" y1="203.36" x2="211.77" y2="202.95"/><line class="cls-1" x1="212.75" y1="202.75" x2="221.77" y2="207.96"/><line class="cls-1" x1="211.77" y1="202.95" x2="212" y2="202.67"/><line class="cls-1" x1="212.36" y1="202.61" x2="212.75" y2="202.75"/><line class="cls-1" x1="212" y1="202.67" x2="212.36" y2="202.61"/><line class="cls-1" x1="221.77" y1="207.96" x2="222.16" y2="208.27"/><line class="cls-1" x1="222.16" y1="208.27" x2="222.52" y2="208.75"/><line class="cls-1" x1="222.52" y1="208.75" x2="222.76" y2="209.3"/><line class="cls-1" x1="222.84" y1="209.79" x2="222.84" y2="232.06"/><line class="cls-1" x1="222.76" y1="209.3" x2="222.84" y2="209.79"/><line class="cls-1" x1="212.22" y1="214.49" x2="211.69" y2="214.19"/><line class="cls-1" x1="212.22" y1="215.72" x2="212.22" y2="214.49"/><line class="cls-1" x1="183.56" y1="199.17" x2="212.22" y2="215.72"/><line class="cls-1" x1="183.56" y1="197.95" x2="183.56" y2="199.17"/><line class="cls-1" x1="184.1" y1="198.25" x2="183.56" y2="197.95"/><line class="cls-1" x1="230.09" y1="216.23" x2="231.15" y2="215.62"/><line class="cls-1" x1="230.62" y1="215.31" x2="229.56" y2="215.92"/><line class="cls-1" x1="229.56" y1="215.92" x2="230.09" y2="216.23"/><line class="cls-1" x1="229.56" y1="214.7" x2="229.56" y2="215.92"/><line class="cls-1" x1="233.81" y1="217.76" x2="233.27" y2="218.07"/><line class="cls-1" x1="233.27" y1="218.07" x2="233.81" y2="218.37"/><line class="cls-1" x1="233.81" y1="222.05" x2="233.27" y2="221.74"/><line class="cls-1" x1="233.81" y1="223.28" x2="233.81" y2="222.05"/><line class="cls-1" x1="231.15" y1="219.91" x2="229.56" y2="220.82"/><line class="cls-1" x1="229.56" y1="220.82" x2="233.81" y2="223.28"/><line class="cls-1" x1="229.56" y1="219.6" x2="229.56" y2="220.82"/><line class="cls-1" x1="230.09" y1="219.91" x2="229.56" y2="219.6"/><line class="cls-1" x1="230.09" y1="216.23" x2="230.09" y2="219.91"/><line class="cls-1" x1="215.05" y1="207.55" x2="216.11" y2="206.94"/><line class="cls-1" x1="215.05" y1="206.32" x2="215.05" y2="207.55"/><line class="cls-1" x1="219.3" y1="209.39" x2="218.77" y2="209.69"/><line class="cls-1" x1="218.77" y1="209.69" x2="219.3" y2="210"/><line class="cls-1" x1="219.3" y1="213.68" x2="218.77" y2="213.37"/><line class="cls-1" x1="219.3" y1="214.9" x2="219.3" y2="213.68"/><line class="cls-1" x1="216.64" y1="211.53" x2="215.05" y2="212.45"/><line class="cls-1" x1="215.05" y1="212.45" x2="219.3" y2="214.9"/><line class="cls-1" x1="215.05" y1="211.22" x2="215.05" y2="212.45"/><line class="cls-1" x1="215.58" y1="211.53" x2="215.05" y2="211.22"/><line class="cls-1" x1="216.64" y1="207.24" x2="215.58" y2="207.85"/><line class="cls-1" x1="215.58" y1="207.85" x2="215.58" y2="211.53"/><line class="cls-1" x1="215.05" y1="207.55" x2="215.58" y2="207.85"/><line class="cls-1" x1="180.73" y1="187.12" x2="180.2" y2="187.43"/><line class="cls-1" x1="180.2" y1="187.43" x2="180.73" y2="187.73"/><line class="cls-1" x1="180.73" y1="191.41" x2="180.2" y2="191.1"/><line class="cls-1" x1="180.73" y1="192.64" x2="180.73" y2="191.41"/><line class="cls-1" x1="178.08" y1="189.27" x2="176.49" y2="190.18"/><line class="cls-1" x1="176.49" y1="190.18" x2="180.73" y2="192.64"/><line class="cls-1" x1="176.49" y1="188.96" x2="176.49" y2="190.18"/><line class="cls-1" x1="177.02" y1="189.27" x2="176.49" y2="188.96"/><line class="cls-1" x1="178.08" y1="184.98" x2="177.02" y2="185.59"/><line class="cls-1" x1="177.02" y1="185.59" x2="177.02" y2="189.27"/><line class="cls-1" x1="177.55" y1="184.67" x2="176.49" y2="185.28"/><line class="cls-1" x1="176.49" y1="185.28" x2="177.02" y2="185.59"/><line class="cls-1" x1="176.49" y1="184.06" x2="176.49" y2="185.28"/><line class="cls-1" x1="172.95" y1="203.26" x2="172.95" y2="202.64"/><line class="cls-1" x1="172.95" y1="202.64" x2="172.95" y2="180.99"/><line class="cls-1" x1="144.82" y1="187.02" x2="144.82" y2="186.41"/><line class="cls-1" x1="144.82" y1="186.41" x2="144.82" y2="176.8"/><line class="cls-1" x1="158" y1="200.65" x2="155.88" y2="199.43"/><line class="cls-1" x1="158" y1="201.88" x2="158" y2="201.26"/><line class="cls-1" x1="158" y1="201.26" x2="158" y2="200.65"/><line class="cls-1" x1="226.02" y1="233.9" x2="226.02" y2="233.29"/><line class="cls-1" x1="226.02" y1="233.29" x2="226.02" y2="211.63"/><line class="cls-1" x1="211.69" y1="214.19" x2="211.69" y2="213.57"/><line class="cls-1" x1="211.69" y1="213.57" x2="211.69" y2="203.36"/><line class="cls-1" x1="233.81" y1="218.37" x2="233.81" y2="217.76"/><line class="cls-1" x1="233.81" y1="217.76" x2="233.81" y2="217.15"/><line class="cls-1" x1="233.27" y1="221.74" x2="233.27" y2="221.13"/><line class="cls-1" x1="233.27" y1="221.13" x2="233.27" y2="218.07"/><line class="cls-1" x1="231.68" y1="218.99" x2="231.15" y2="219.29"/><line class="cls-1" x1="231.15" y1="219.29" x2="230.09" y2="219.91"/><line class="cls-1" x1="219.3" y1="208.77" x2="217.18" y2="207.55"/><line class="cls-1" x1="219.3" y1="210" x2="219.3" y2="209.39"/><line class="cls-1" x1="219.3" y1="209.39" x2="219.3" y2="208.77"/><line class="cls-1" x1="218.77" y1="213.37" x2="218.77" y2="212.76"/><line class="cls-1" x1="218.77" y1="212.76" x2="218.77" y2="209.69"/><line class="cls-1" x1="217.18" y1="210.61" x2="216.64" y2="210.92"/><line class="cls-1" x1="216.64" y1="210.92" x2="215.58" y2="211.53"/><line class="cls-1" x1="180.73" y1="186.51" x2="178.61" y2="185.28"/><line class="cls-1" x1="180.73" y1="187.73" x2="180.73" y2="187.12"/><line class="cls-1" x1="180.73" y1="187.12" x2="180.73" y2="186.51"/><line class="cls-1" x1="180.2" y1="191.1" x2="180.2" y2="190.49"/><line class="cls-1" x1="180.2" y1="190.49" x2="180.2" y2="187.43"/><line class="cls-1" x1="178.61" y1="188.35" x2="178.08" y2="188.65"/><line class="cls-1" x1="178.08" y1="188.65" x2="177.02" y2="189.27"/><line class="cls-1" x1="155.88" y1="199.43" x2="155.35" y2="199.12"/><line class="cls-1" x1="233.81" y1="217.15" x2="231.68" y2="215.92"/><line class="cls-1" x1="231.68" y1="215.92" x2="231.15" y2="215.62"/><line class="cls-1" x1="231.15" y1="215.62" x2="230.62" y2="215.31"/><line class="cls-1" x1="230.62" y1="215.31" x2="229.56" y2="214.7"/><line class="cls-1" x1="217.18" y1="207.55" x2="216.64" y2="207.24"/><line class="cls-1" x1="178.61" y1="185.28" x2="178.08" y2="184.98"/><line class="cls-1" x1="155.35" y1="199.12" x2="154.82" y2="198.81"/><line class="cls-1" x1="154.82" y1="198.81" x2="153.75" y2="198.2"/><line class="cls-1" x1="216.64" y1="207.24" x2="216.11" y2="206.94"/><line class="cls-1" x1="216.11" y1="206.94" x2="215.05" y2="206.32"/><line class="cls-1" x1="178.08" y1="184.98" x2="177.55" y2="184.67"/><line class="cls-1" x1="177.55" y1="184.67" x2="176.49" y2="184.06"/><line class="cls-1" x1="185.69" y1="186.51" x2="185.69" y2="197.33"/><line class="cls-1" x1="185.16" y1="198.25" x2="211.69" y2="213.57"/><line class="cls-1" x1="223.9" y1="232.06" x2="226.02" y2="233.29"/><line class="cls-1" x1="238.23" y1="228.89" x2="252.56" y2="237.17"/><line class="cls-1" x1="252.56" y1="237.17" x2="252.56" y2="275.98"/><line class="cls-1" x1="155.88" y1="199.43" x2="155.88" y2="220.16"/><line class="cls-1" x1="146.41" y1="175.88" x2="171.36" y2="190.29"/><line class="cls-1" x1="171.36" y1="190.29" x2="171.36" y2="200.5"/><line class="cls-1" x1="170.83" y1="201.42" x2="172.95" y2="202.64"/><line class="cls-1" x1="173.26" y1="180.31" x2="174.85" y2="179.39"/><line class="cls-1" x1="169.23" y1="202.34" x2="170.83" y2="201.42"/><line class="cls-1" x1="171.36" y1="200.5" x2="170.83" y2="200.81"/><line class="cls-1" x1="169.77" y1="201.42" x2="170.83" y2="200.81"/><line class="cls-1" x1="154.29" y1="199.73" x2="155.35" y2="199.12"/><line class="cls-1" x1="153.75" y1="199.43" x2="154.82" y2="198.81"/><line class="cls-1" x1="158" y1="201.26" x2="157.47" y2="201.57"/><line class="cls-1" x1="236.64" y1="229.81" x2="238.23" y2="228.89"/><line class="cls-1" x1="238.76" y1="227.98" x2="238.23" y2="228.28"/><line class="cls-1" x1="226.33" y1="210.95" x2="227.92" y2="210.03"/><line class="cls-1" x1="237.17" y1="228.89" x2="238.23" y2="228.28"/><line class="cls-1" x1="222.31" y1="232.98" x2="223.9" y2="232.06"/><line class="cls-1" x1="224.43" y1="231.14" x2="223.9" y2="231.45"/><line class="cls-1" x1="212" y1="202.67" x2="213.59" y2="201.75"/><line class="cls-1" x1="222.84" y1="232.06" x2="223.9" y2="231.45"/><line class="cls-1" x1="183.56" y1="199.17" x2="185.16" y2="198.25"/><line class="cls-1" x1="185.69" y1="197.33" x2="185.16" y2="197.64"/><line class="cls-1" x1="184.1" y1="198.25" x2="185.16" y2="197.64"/><line class="cls-1" x1="184.1" y1="187.43" x2="184.1" y2="198.25"/><path class="cls-2" d="M3358.54,115.25l1.59-.92,13.86,22.4-1.43,1,.77,1.25.38-.22,11.37,18.38v17.94l-.53.31V176l2.12,1.22v-14l1.59-.92L3406,191l-.36.25.71,1.14,1.5-.87,19.2,31-1.42,1,.77,1.24.37-.21L3438.15,243V260.9l-.53.3v.62l2.12,1.22V249l1.59-.92,24.94,40.33v11.75l-.53.31v.61l2.13,1.22v26.05l-1.6.92v6.53l-.07.41-.24.28-1.59.92-.36.07-.39-.14-7.34-4.24-.39-.31-.36-.48-.24-.56-.07-.49V310.45l.53-.3v-.62l-2.12-1.22v21.45l-1.6.92-12.29-7.1V301.84l.53-.31v-.61l-2.12-1.22v8.4l-1.6.92-49.88-80.67V216l.53-.3v-.62l-2.12-1.22v8.4l-1.6.92-24.94-40.33ZM3340,580.14l1.59-.92v-14l1.59-.92,17.75,28.7-.36.25.6,1,.11.18,1.51-.87,19.19,31-1.42,1,.39.64.2.32.18.28.37-.21L3393.07,645V662.9l-.53.3v.62l2.12,1.22V651l1.59-.92,17.75,28.7-.26.18-.09.07.19.32.51.82,1.51-.87,19.19,31-1.42,1,.59,1,.18.28.37-.22,11.37,18.39v17.94l-.53.3v.62l2.12,1.22v-14l1.59-.92,17.75,28.71-.17.12-.09.06-.09.07.7,1.14,1.51-.87,5.34,8.64v67.62l-1.6.91L3447.73,802V789.66l.53-.31v-.61l-2.12-1.23v8.41l-1.59.92-49.89-80.67V703.84l.53-.3v-.62l-2.12-1.22v8.4l-1.59.92-49.89-80.67V618l.53-.3v-.62l-2.12-1.22Zm91.66,646.63v3.47l-.07.41-.24.28-1.59.92-.36.07-.39-.14-47.77-27.58-.39-.31-.36-.48-.23-.55-.08-.5v-4.08l.53-.31v-.61l-2.12-1.23v3.47l-.07.41-.24.28-1.59.92-.36.07-.39-.14L3353.12,1188l-.39-.31-.36-.48-.24-.55-.07-.5V1179l.53-.3v-.62l-2.13-1.22v-26l1.6-.92v-8.37l.07-.41.24-.28,1.59-.92.36-.06.39.14,7.34,4.24.39.31.36.48.24.55.07.49v21.35l-.53.31v.61l2.13,1.23v-20.74l.07-.41.24-.27,1.59-.92.36-.07.39.14,10.17,5.87.39.31.36.48.24.56.07.49v9l-.53.3v.62l2.12,1.22v-10.21l.08-.41.23-.28,1.6-.92.36-.06.39.14,9,5.21.39.31.36.48.24.55.07.49v10.83l-.53.31v.61l26.54,15.32v-10.21l.07-.41.24-.28,1.59-.92.36-.06.39.14,9,5.2.39.32.36.48.24.55.07.49v10.83l-.53.31v.61l2.12,1.22v-10.21l.08-.41.24-.28,1.59-.92.36-.06.39.14,9,5.21.39.31.36.48.24.55.07.5v10.82l-.53.31v.61l14.33,8.27v35.65l-1.59.92-23.88-13.79-.39-.31-.36-.48-.24-.55-.08-.5v-4.08l.53-.31V1228Zm-93.07,405,1.6-.92v-8.37l.07-.41.24-.28,1.59-.92.36-.06.39.14,7.34,4.24.39.31.36.48.24.55.07.49v21.35l-.53.31v.61l2.12,1.23v-20.74l.08-.41.23-.28,1.6-.91.36-.07.39.14,10.17,5.87.39.31.36.48.24.56.07.49v9l-.53.3v.62l2.12,1.22v-10.21l.08-.41.23-.28,1.6-.92.36-.06.39.14,9,5.21.39.31.36.48.24.55.07.49v10.83l-.53.31v.61l26.53,15.32v-10.21l.08-.41.24-.28,1.59-.92.36-.06.39.14,9,5.2.39.32.36.48.24.55.07.49v10.83l-.53.31v.61l2.12,1.22v-10.21l.08-.41.24-.28,1.59-.92.36-.06.39.14,9,5.21.39.31.36.48.24.55.07.5v10.82l-.53.31v.61l26.54,15.32v-10.21l.07-.41.24-.28,1.59-.92.36-.06.39.14,9,5.2.39.32.36.48.24.55.07.5v10.82l-.53.31v.61l2.13,1.22v-10.21l.07-.41.24-.27,1.59-.92.36-.07.39.14,9,5.21.39.31.36.48.24.55.07.5v10.82l-.53.31v.61l14.33,8.28v35.64l-1.59.92-23.88-13.79-.39-.31-.36-.48-.24-.55-.07-.5v-4.08l.53-.31v-.61l-2.13-1.23v3.47l-.07.41-.24.28-1.59.92-.36.07-.39-.14-47.76-27.58-.39-.31-.36-.48-.24-.55-.08-.5v-4.08l.54-.31V1709l-2.13-1.23v3.47l-.07.41-.24.28-1.59.92-.36.07-.39-.14-47.76-27.58-.4-.31-.36-.48-.23-.55-.08-.5v-4.08l.53-.31v-.61l-2.12-1.23v3.47l-.07.41-.24.28-1.59.92-.36.07-.39-.14L3341.25,1669l-.39-.31-.36-.48-.24-.55-.07-.5V1660l.53-.3v-.62l-2.13-1.22ZM2056.84,192.24l1.6-.92V183l.07-.41.24-.28,1.59-.92.36-.07.39.14,22.82,13.18.39.31.36.48.24.55.07.5v9l-.53.3v.61l2.12,1.23V185.91l.08-.41.23-.28,1.6-.92.36-.06.39.14,9,5.2.39.32.36.48.23.55.08.49v10.83l-.53.3v.62l26.53,15.32V208.27l.08-.4.24-.28,1.59-.92.36-.07.39.14,9,5.21.39.31.36.48.24.56.07.49v22.27l-.53.3V237l2.12,1.23V216.55l.08-.41.23-.28,1.6-.92.36-.06.39.14,9,5.2.39.32.36.48.24.55.07.49v10.83l-.53.31v.61l14.33,8.27v48.41l-1.59.92-23.88-13.78-.4-.32-.36-.48-.23-.55-.08-.5V271.7l.53-.31v-.61l-2.12-1.22V273l-.07.41-.24.27-1.59.92-.36.07-.39-.14L2087.62,247l-.39-.31-.36-.48-.23-.55-.08-.5v-4.08l.53-.31v-.61l-2.12-1.22v3.47l-.07.41-.24.27-1.59.92-.36.07-.39-.14-10.18-5.87-.39-.31-.36-.48-.23-.56-.08-.49V215.37l.53-.3v-.62l-2.12-1.22v20.22l-.07.41-.24.28-1.59.92-.36.06-.39-.14-7.34-4.23-.39-.32-.36-.48-.24-.55-.07-.49v-4.09l.53-.31v-.61l-2.13-1.22Zm-28.66,462.44,1.6-.92v-8.37l.07-.41.24-.28,1.59-.92.36-.07.39.14L2055.25,657l.39.31.36.48.24.55.07.5v9l-.53.3v.61l2.12,1.23V648.35l.08-.41.23-.28,1.6-.92.36-.06.39.14,9,5.2.39.32.36.48.24.55.07.49v10.83l-.53.31v.61l26.54,15.32V670.71l.07-.4.24-.28,1.59-.92.36-.07.39.14,9,5.21.39.31.36.48.24.56.07.49V698.5l-.53.3v.61l2.12,1.23V679l.08-.41.24-.28,1.59-.92.36-.06.39.14,9,5.21.39.31.36.48.24.55.07.49v10.83l-.53.31v.61l26.54,15.32V701.35l.07-.4.24-.28,1.59-.92.36-.07.39.14,9,5.21.39.32.36.47.24.56.07.49v22.27l-.53.3v.61l2.13,1.23V709.63l.07-.41.24-.28L2166,708l.36-.06.39.14,9,5.21.39.31.36.48.24.55.07.49V726l-.53.31v.61l14.33,8.27v48.42l-1.59.91-23.88-13.78-.39-.32-.36-.48-.24-.55-.07-.49v-4.09l.53-.3v-.62l-2.13-1.22v3.47l-.07.41-.24.28-1.59.92-.36.06-.39-.14L2112,740.07l-.39-.32-.36-.48-.24-.55-.08-.49v-4.09l.53-.3v-.62l-2.12-1.22v3.47l-.07.41-.24.28-1.59.92-.36.06-.39-.14L2059,709.43l-.39-.32-.36-.48-.23-.55-.08-.49V703.5l.53-.31v-.61l-2.12-1.23v3.48l-.07.41-.24.27-1.59.92-.36.07-.39-.14-10.17-5.87-.39-.31-.36-.49-.24-.55-.07-.49V677.81l.53-.3v-.62l-2.13-1.22v20.22l-.07.41-.24.28-1.59.92-.36.06-.39-.14-7.34-4.23-.39-.32-.36-.48-.24-.55-.07-.49v-4.09l.53-.3v-.62l-2.13-1.22ZM1993,1126.54l1.59-.92v-8.37l.07-.41.24-.28,1.59-.92.36-.06.39.14,22.82,13.17.39.31.36.48.24.56.07.49v9l-.53.31v.61l2.13,1.22v-21.65l.07-.41.24-.28,1.59-.91.36-.07.39.14,9,5.21.39.31.36.48.24.55.08.5v10.82l-.54.31v.61l26.54,15.32v-10.21l.07-.41.24-.28,1.59-.92.36-.06.39.14,9,5.21.4.31.36.48.23.55.08.49v22.27l-.53.31v.61l2.12,1.22v-21.65l.07-.41.24-.28,1.59-.91.36-.07.39.14,9,5.21.39.31.36.48.23.55.08.5v10.82l-.53.31v.61l26.53,15.32v-10.21l.08-.41.23-.28,1.59-.92.36-.06.39.14,9,5.21.39.31.36.48.23.55.08.49V1201l-.53.31v.61l2.12,1.22v-21.65l.07-.41.24-.28,1.59-.91.36-.07.39.14,9,5.21.39.31.36.48.23.55.08.5v10.82l-.53.31v.61l26.53,15.32v-10.21l.08-.41.23-.28,1.59-.92.36-.06.39.14,9,5.21.39.31.36.48.23.55.08.5v22.26l-.53.31v.61l2.12,1.22v-21.65l.08-.4.23-.28,1.59-.92.36-.07.39.14,9,5.21.39.31.36.48.23.55.08.5v10.82l-.53.31v.61l14.33,8.28v48.41l-1.6.92L2183,1273.21l-.39-.31-.36-.48-.23-.55-.08-.5v-4.08l.53-.31v-.61l-2.12-1.23v3.47l-.08.41-.23.28-1.6.92-.36.07-.39-.14L2130,1242.57l-.39-.31-.36-.48-.24-.55-.07-.5v-4.08l.53-.31v-.61l-2.12-1.23V1238l-.08.41-.23.28-1.6.92-.36.07-.39-.14-47.76-27.58-.39-.31-.36-.48-.24-.55-.07-.5V1206l.53-.3v-.61l-2.12-1.23v3.47l-.08.41-.23.28-1.6.92-.36.06-.39-.13-47.76-27.58-.39-.31-.36-.48-.24-.56-.07-.49v-4.09l.53-.3v-.61l-2.13-1.23v3.47l-.07.41-.24.28-1.59.92-.36.06-.39-.14-10.17-5.87-.39-.31-.36-.48-.24-.55-.07-.5v-20.83l.53-.31v-.61l-2.13-1.23v20.23l-.07.4-.24.28-1.59.92-.36.07-.39-.14-7.34-4.24-.39-.31-.36-.48-.24-.55-.07-.5v-4.09l.53-.3v-.61L1993,1157ZM164.81,2159.78v-14.4l1.59-.92,12.3,7.1v10.21l-.53.3v.62l2.12,1.22v-21.65l.07-.41.24-.28,1.59-.92.36-.06.39.14,9,5.21.39.31.36.48.23.55.08.5v10.82l-.53.31v.61L219,2174.84v-10.21l.08-.41.23-.28,1.6-.92.36-.06.39.14,9,5.21.39.31.36.48.23.55.08.5v22.26l-.53.31v.61l2.12,1.23V2172.9l.08-.41.23-.27,1.59-.92.36-.07.39.14,9,5.21.39.31.36.48.23.55.08.5v10.82l-.53.31v.61l14.33,8.28v38.81l-1.6.92L150.57,2176v-27.38l1.59-.91v-9.61l1.59-.92,9.47,5.47v15l-.53.31v.61Zm-9.19,445.48v15l-.53.31v.61l2.12,1.23V2608l1.59-.92,12.3,7.1v10.21l-.53.31v.61l2.12,1.22V2604.9l.07-.41.24-.28,1.59-.92.36-.06.39.14,9,5.21.39.31.36.48.23.55.08.5v10.82l-.53.31v.61l26.53,15.32v-10.21l.08-.41.23-.28,1.59-.92.36-.06.39.14,9,5.21.39.31.36.48.23.55.08.49v22.27l-.53.31v.61l2.12,1.22v-21.65l.08-.41.23-.28,1.59-.92.36-.06.39.14,9,5.21.39.31.36.48.23.55.08.5v10.82l-.53.31v.61l26.53,15.32v-10.21l.08-.41.23-.28,1.6-.92.35-.06.4.14,9,5.21.39.31.36.48.24.55.07.5v22.26l-.53.31v.61l2.12,1.22v-21.65l.08-.4.23-.29,1.6-.92.36-.06.39.14,9,5.21.39.31.36.48.23.55.08.5v10.82l-.53.31v.61l14.33,8.28v38.81l-1.59.92L143,2638.6v-27.37l1.59-.92v-9.6l1.59-.92ZM109.6,1668v-38.81l1.59-.92,12.2,7v-10.21l.08-.41.23-.28,1.6-.92.36-.06.39.14,9,5.2.39.32.36.48.24.55.07.49v22.27l-.53.3v.62l2.12,1.22v-21.65l.08-.41.23-.28,1.6-.92.36-.06.39.14,9,5.21.39.31.36.48.23.55.08.49v10.83l-.53.31v.61l26.53,15.32V1655.7l.08-.41.23-.28,1.6-.92.36-.06.39.14,9,5.2.39.32.36.48.24.55.07.49v22.27l-.53.3v.62l2.12,1.22V1664l.08-.41.23-.28,1.6-.92.36-.06.39.14,9,5.21.39.31.36.48.24.55.07.5v10.82l-.53.31v.61l26.54,15.32v-10.21l.07-.41.24-.28,1.59-.92.36-.06.39.14,9,5.2.39.32.36.48.24.55.07.49v22.27l-.53.3v.62l2.12,1.22v-21.65l.08-.41.24-.27,1.59-.93.36-.06.39.14,9,5.21.39.31.36.48.24.55.07.5V1711l-.53.31v.61l26.54,15.32V1717l.07-.41.24-.28,1.59-.92.36-.06.39.14,9,5.21.39.31.36.48.24.55.07.5v22.26l-.53.31v.61l2.13,1.23v-21.66l.07-.41.24-.27,1.59-.92.36-.07.39.14,9,5.21.39.31.36.48.24.55.07.5v10.83l-.53.3v.61l14.33,8.28v38.81l-1.59.92ZM143.3,187.82l1.59-.92v-9.6l1.6-.92,24.94,14.4V201l-.53.31v.61l2.12,1.23V181.49l.08-.41.23-.28,1.59-.92.36-.06.39.14,9,5.2.39.32.36.48.24.55.07.49v10.83l-.53.3v.62l26.53,15.32V203.86l.08-.41.23-.28,1.6-.92.36-.07.39.14,9,5.21.39.31.36.48.24.56.07.49v22.27l-.53.3v.62l2.12,1.22V212.13l.08-.41.23-.28,1.6-.92.36-.06.39.14,9,5.2.39.32.36.48.24.55.07.49v10.83l-.53.31v.61l14.33,8.27v38.81l-1.59.92-93.5-54V202.07l.53-.31v-.61L156,199.92v20.74l-1.59.91-11.06-6.38ZM129,663.45l1.59-.92v-9.6l1.59-.92,24.94,14.4v10.22l-.53.31v.61l2.12,1.22V657.12l.08-.41.24-.28,1.59-.92.36-.06.39.14,9,5.21.39.31.36.48.24.55.07.5v10.82l-.53.31v.61l26.53,15.32V679.49l.08-.41.24-.28,1.59-.92.36-.06.39.14,9,5.2.39.32.36.48.24.55.07.49v22.27l-.53.31v.61l2.13,1.22V687.76l.07-.41.24-.28,1.59-.92.36-.06.39.14,9,5.21.39.31.36.48.24.55.07.5V704.1l-.53.31V705l26.54,15.32V710.13l.07-.41.24-.28,1.59-.92.36-.06.39.14,9,5.2.39.32.36.48.24.55.07.49v22.27l-.53.31v.61l2.13,1.22V718.4L265,718l.24-.28,1.59-.92.36-.06.39.14,9,5.21.39.31.36.48.24.55.07.5v10.82l-.53.31v.61l14.33,8.27v38.82l-1.59.92L143.27,699.05V677.7l.54-.31v-.61l-2.13-1.23v20.74l-1.59.92L129,690.82Zm-25,465.88,1.59-.92v-9.6l1.59-.92,24.95,14.4v10.22l-.54.3v.62l2.13,1.22V1123l.07-.41.24-.28,1.59-.92.36-.06.39.14,9,5.2.39.32.36.48.24.55.07.49v10.83l-.53.31v.61l26.54,15.32v-10.21l.07-.41.24-.28,1.59-.92.36-.07.39.14,9,5.21.4.31.35.48.24.56.08.49v22.27l-.53.3v.62l2.12,1.22v-21.65l.07-.41.24-.28,1.59-.92.36-.06.39.14,9,5.21.39.31.36.48.24.55.07.5V1170l-.53.31v.61l26.54,15.32V1176l.07-.41.24-.28,1.59-.92.36-.07.39.14,9,5.21.39.32.36.48.23.55.08.49v22.27l-.53.31v.61l2.12,1.22v-21.65l.07-.41.24-.28,1.59-.92.36-.06.39.14,9,5.21.39.31.36.48.24.55.08.5v10.82l-.54.31v.61l26.54,15.32v-10.21l.08-.41.23-.28,1.59-.92.36-.06.39.14,9,5.2.39.32.36.48.23.55.08.49v22.27l-.53.31v.61l2.12,1.22v-21.65l.07-.41.24-.28,1.59-.92.36-.06.39.14,9,5.21.39.31.36.48.23.55.08.5v10.82l-.53.31v.61l14.32,8.27v38.82l-1.59.92L118.31,1164.93v-21.35l.53-.31v-.61l-2.12-1.23v20.74l-1.6.92-11.05-6.39ZM324.12,3237.9l-1.59.92L108.65,3115.34V3088l1.59-.92v-9.6l1.59-.91,9.47,5.46v15l-.53.31v.61l2.12,1.23v-14.4l1.59-.92,12.3,7.1v10.21l-.53.31v.61l2.12,1.22v-21.65l.08-.41.23-.28,1.59-.91.36-.07.39.14,9,5.21.39.31.36.48.23.55.08.5V3098l-.53.31v.61l26.53,15.32V3104l.08-.41.23-.28,1.59-.92.36-.06.39.14,9,5.21.39.31.36.48.23.55.08.49v22.27l-.53.31v.61l2.12,1.22v-21.65l.08-.41.23-.28,1.59-.91.36-.07.39.14,9,5.21.39.31.36.48.23.55.08.5v10.82l-.53.31v.61l26.53,15.32v-10.21l.08-.41.23-.28,1.59-.92.36-.06.4.14,9,5.21.39.31.36.48.24.55.07.49v22.27l-.53.31v.61l2.12,1.22v-21.65l.08-.41.23-.28,1.6-.91.35-.07.4.14,9,5.21.39.31.36.48.23.55.08.5v10.82l-.53.31v.61l26.54,15.32v-10.21l.07-.41.24-.28,1.59-.92.36-.06.39.14,9,5.21.39.31.36.48.24.55.07.49v22.27l-.53.31v.61l2.12,1.22v-21.65l.08-.41.23-.27,1.6-.92.36-.07.39.14,9,5.21.39.31.36.48.24.55.07.5v10.82l-.53.31v.61l14.33,8.28ZM1993,1608l1.59-.92,12.21,7v-10.21l.07-.41.24-.28,1.59-.92.36-.06.39.14,9,5.21.39.31.36.48.24.55.07.5v22.26l-.53.31v.61l2.13,1.22v-21.65l.07-.4.24-.28,1.59-.92.36-.07.39.14,9,5.21.39.31.36.48.24.55.07.5v10.82l-.53.31v.61l26.54,15.32v-10.21l.07-.41.24-.28,1.59-.92.36-.06.39.14,9,5.21.39.31.36.48.24.55.08.5v22.26l-.54.31v.61l2.13,1.23v-21.66l.07-.4.24-.28,1.59-.92.36-.07.39.14,9,5.21.39.31.36.48.24.55.08.5v10.83l-.53.3v.62l26.53,15.31v-10.21l.07-.41.24-.28,1.59-.92.36-.06.39.14,9,5.21.4.31.36.48.23.55.08.5v22.26l-.53.31v.61l2.12,1.23v-21.66l.07-.4.24-.28,1.59-.92.36-.07.39.14,9,5.21.4.31.36.48.23.55.08.5v10.83l-.53.3v.62l26.53,15.31v-10.21l.08-.41.23-.28,1.59-.92.36-.06.39.14,9,5.21.39.31.36.48.23.55.08.5v22.26l-.53.31v.61l2.12,1.23v-21.66l.07-.4.24-.28,1.59-.92.36-.07.39.14,9,5.21.39.31.36.48.23.56.08.49v10.83l-.53.3v.62l14.33,8.27V1778l-1.6.92-23.88-13.79-.39-.31-.36-.48-.24-.55-.07-.5v-4.08l.53-.31v-.61l-2.12-1.23v3.48l-.08.4-.23.28-1.6.92-.36.07-.39-.14-47.76-27.58-.39-.31-.36-.48-.24-.55-.07-.5v-4.08l.53-.31v-.61l-2.12-1.23v3.47l-.08.41-.23.28-1.6.92-.36.07-.39-.14-47.76-27.58-.39-.31-.36-.48-.24-.56-.07-.49v-4.08l.53-.31V1697l-2.12-1.23v3.47l-.08.41-.24.28-1.59.92-.36.06-.39-.13-47.76-27.58-.39-.31-.36-.48-.24-.56-.07-.49v-4.08l.53-.31v-.61l-2.13-1.23v3.47l-.07.41-.24.28-1.59.92-.36.06-.39-.13L1993,1656.37Zm152.47,1107.33v3.47l-.08.41-.23.28-1.59.92-.36.06-.39-.14-47.77-27.57-.39-.31-.36-.48-.24-.56-.07-.49v-4.09l.53-.3v-.62l-2.12-1.22v3.47l-.08.41-.23.28-1.6.92-.35.06-.4-.14L2042,2662.07l-.39-.32-.36-.48-.24-.55-.07-.49v-4.09l.53-.3v-.62l-2.12-1.22v3.47l-.08.41-.23.28-1.6.92-.36.06-.39-.14-22.82-13.17-.39-.31-.36-.48-.23-.56-.08-.49v-4.09l.53-.3V2639l-2.12-1.23v-30.44l1.59-.92V2598l.08-.41.23-.28,1.59-.92.36-.06.4.14,7.34,4.23.39.32.36.48.23.55.08.49v22.68l-.53.3v.62l2.12,1.22v-22.06l.07-.41.24-.28,1.59-.92.36-.06.39.14,10.18,5.87.39.31.36.48.23.55.08.5v9l-.53.3v.62l2.12,1.22V2601l.07-.41.24-.28,1.3-.31.06-.33.23-.28.36-.06.39.14,9,5.21.39.31.36.48.23.55.08.49v10.83l-.53.31v.61l26.53,15.32v-10.21l.08-.41.23-.28,1.59-.92.36-.06.4.14,9,5.2.39.32.36.48.23.55.08.49v22.27l-.53.3v.62l2.12,1.22v-21.65l.07-.41.24-.28,1.59-.92.36-.06.39.14,9,5.21.39.31.36.48.23.55.08.49V2648l-.53.31v.61l26.53,15.32V2654l.08-.41.23-.28,1.6-.92.36-.06.39.14,9,5.2.39.32.36.48.23.55.08.49v22.27l-.53.3v.62l2.12,1.22v-21.65l.08-.41.23-.28,1.59-.92.37-.06.39.14,9,5.21.39.31.36.48.23.55.08.5v10.82l-.53.31v.61l14.33,8.27v48.42l-1.6.92-23.88-13.79-.39-.31-.36-.48-.23-.56-.08-.49v-4.08l.53-.31v-.61Zm-84.11-556.75v-22.06l.08-.41.23-.28,1.6-.92.36-.07.39.14,10.17,5.88.39.31.36.48.23.55.08.49v9l-.53.31v.61l2.12,1.23v-21.65l.08-.41.23-.28,1.3-.32.06-.32.24-.28.36-.07.39.14,9,5.21.39.31.36.48.23.56.08.49v10.83l-.53.3v.62l26.53,15.32v-10.22l.08-.41.23-.27,1.6-.92.36-.07.39.14,9,5.21.39.31.36.48.24.55.07.5v22.26l-.53.31v.61l2.13,1.23v-21.65l.08-.41.24-.28,1.59-.92.36-.07.39.14,9,5.21.39.31.36.48.24.56.07.49v10.83l-.53.3v.62l14.33,8.27v48.41l-1.59.92L2131,2223.84l-.39-.31-.36-.48-.24-.55-.08-.49v-4.09l.54-.31V2217l-2.13-1.23v3.48l-.07.41-.24.27-1.59.92-.36.07-.39-.14-47.77-27.58-.39-.31-.36-.48-.23-.55-.08-.5v-4.08l.53-.31v-.61l-2.12-1.23v3.48l-.08.4-.23.28-1.59.92-.36.07-.39-.14L2049.81,2177l-.4-.31-.36-.48-.23-.55-.08-.49V2171l.53-.31v-.61l-2.12-1.23v-30.43l1.59-.92v-8.38l.08-.4.23-.28,1.6-.92.36-.07.39.14,7.34,4.24.39.31.36.48.24.55.07.5v22.67l-.53.31v.61Zm150.43,1090.79-1.59.92-23.88-13.79-.4-.31-.35-.48-.24-.56-.08-.49v-4.08l.53-.31v-.61l-2.12-1.23v3.47l-.07.41-.24.28-1.59.92-.36.06-.39-.14-47.77-27.57-.39-.31-.36-.48-.23-.56-.08-.49v-4.08l.53-.31V3199l-2.12-1.23v3.47l-.07.41-.24.28-1.59.92-.36.06-.39-.14-47.77-27.57-.39-.31-.36-.48-.23-.56-.08-.49v-4.09l.53-.3v-.62l-2.12-1.22v3.47l-.07.41-.24.28-1.59.92-.36.06-.4-.14-47.76-27.57-.39-.32-.36-.48-.24-.55-.07-.49v-4.09l.53-.3v-.62l-2.12-1.22v3.47l-.08.41-.23.28-1.6.92-.36.06-.39-.14L1999,3128.29l-.39-.31-.36-.48-.23-.56-.08-.49v-4.09l.53-.3v-.62l-2.12-1.22v-30.44l1.59-.92v-8.37l.08-.41.23-.28,1.6-.92.36-.06.39.14,7.34,4.23.39.32.36.48.24.55.07.49v22.68l-.53.3v.62l2.12,1.22v-22.06l.08-.41.23-.28,1.59-.92.36-.06.4.14,10.17,5.87.39.31.36.48.23.56.08.49v9l-.53.3v.62l2.12,1.22v-21.65l.07-.41.24-.28,1.59-.92.36-.06.4.14,9,5.21.39.31.36.48.23.55.08.49v10.83l-.53.31v.61l26.53,15.32v-10.21l.08-.41.23-.28,1.6-.92.35-.06.4.14,9,5.2.39.32.36.48.24.55.07.49v22.27l-.53.3v.62l2.12,1.22v-21.65l.08-.41.23-.28,1.6-.92.35-.06.4.14,9,5.21.39.31.36.48.23.55.08.49v10.83l-.53.31v.61l26.53,15.32v-10.21l.08-.41.23-.28,1.6-.92.36-.06.39.14,9,5.2.39.32.36.48.24.55.07.49v22.27l-.53.3v.62l2.12,1.22v-21.65l.08-.41.23-.28,1.6-.92.36-.06.39.14,9,5.21.39.31.36.48.23.55.08.49v10.83l-.53.31v.61l26.53,15.32V3167.1l.08-.41.23-.28,1.6-.92.36-.06.39.14,9,5.2.39.32.36.48.24.55.07.5v22.26l-.53.3v.62l2.12,1.23v-21.66l.08-.41.24-.27,1.59-.93.36-.06.39.14,9,5.21.39.31.36.48.24.55.07.5v10.82l-.53.31v.61l14.33,8.28ZM3516.08,2246.69l-1.6.92-23.88-13.78-.39-.32-.36-.48-.23-.55-.08-.5v-4.08l.53-.31V2227l-2.12-1.23v3.48l-.08.41-.23.27-1.59.92-.36.07-.39-.14-47.77-27.58-.39-.31-.36-.48-.23-.55-.08-.5v-4.08l.53-.31v-.61l-2.12-1.23v3.48l-.08.41-.23.27-1.6.92-.36.07-.39-.14-47.76-27.58-.39-.31-.36-.48-.24-.55-.07-.5v-4.08l.53-.31v-.61l-2.12-1.23V2168l-.08.41-.24.27-1.59.92-.36.07-.39-.14-47.76-27.58-.39-.31-.36-.48-.24-.55-.07-.5V2136l.53-.31v-.61l-2.13-1.23v3.48l-.07.41-.24.27-1.59.92-.36.07-.39-.14-23.88-13.79v-35.64l1.59-.92,12.21,7v-10.21l.07-.41.24-.28,1.59-.92.36-.06.39.14,9,5.21.39.31.36.48.24.55.07.5v10.82l-.53.31v.61l2.13,1.22v-10.21l.07-.41.24-.27,1.59-.92.36-.07.39.14,9,5.21.39.31.36.48.24.55.08.5v10.82l-.54.31v.61l26.54,15.32V2116l.07-.41.24-.28,1.59-.92.36-.06.39.14,9,5.21.39.31.36.48.24.55.08.5v10.82l-.54.31v.61l2.13,1.23v-10.22l.07-.41.24-.27,1.59-.92.36-.07.39.14,9,5.21.4.31.35.48.24.55.08.5v10.82l-.53.31v.61l26.53,15.32V2146.6l.08-.41.23-.28,1.59-.92.36-.06.39.14,9,5.21.39.31.36.48.23.55.08.5v10.82l-.53.31v.61l2.12,1.23v-10.22l.08-.41.23-.27,1.59-.92.36-.07.39.14,9,5.21.39.31.36.48.23.56.08.49v10.83l-.53.3v.61l26.53,15.33v-10.22l.08-.41.23-.28,1.59-.92.36-.06.39.14,9,5.21.39.31.36.48.23.55.08.5v10.82l-.53.31v.61l2.12,1.23v-10.21l.08-.41.23-.28,1.59-.92.36-.07.39.14,9,5.21.39.31.36.48.23.56.08.49v10.83l-.53.3v.61l14.33,8.28Z"/></svg>