<svg id="Layer_1" data-name="Layer 1" xmlns="http://www.w3.org/2000/svg" viewBox="0 0 425.2 425.2"><defs><style>.cls-1,.cls-2{fill:none;stroke-linecap:round;stroke-linejoin:round;}.cls-1{stroke:#000;stroke-width:0.25px;}.cls-2{stroke:#1d1d1b;}</style></defs><line class="cls-1" x1="213.07" y1="187.92" x2="213.26" y2="187.7"/><line class="cls-1" x1="213.26" y1="187.7" x2="213.62" y2="187.63"/><line class="cls-1" x1="213.62" y1="187.63" x2="214.01" y2="187.77"/><line class="cls-1" x1="214.01" y1="187.77" x2="223.03" y2="192.98"/><line class="cls-1" x1="223.03" y1="192.98" x2="223.43" y2="193.29"/><line class="cls-1" x1="223.43" y1="193.29" x2="223.79" y2="193.77"/><line class="cls-1" x1="223.79" y1="193.77" x2="224.02" y2="194.32"/><line class="cls-1" x1="224.02" y1="194.32" x2="224.1" y2="194.82"/><line class="cls-1" x1="224.1" y1="194.82" x2="224.1" y2="217.08"/><line class="cls-1" x1="223.57" y1="217.39" x2="223.57" y2="218"/><line class="cls-1" x1="223.57" y1="218" x2="225.69" y2="219.23"/><line class="cls-1" x1="227.35" y1="196.25" x2="227.59" y2="195.97"/><line class="cls-1" x1="227.59" y1="195.97" x2="227.95" y2="195.9"/><line class="cls-1" x1="227.95" y1="195.9" x2="228.34" y2="196.04"/><line class="cls-1" x1="228.34" y1="196.04" x2="237.36" y2="201.25"/><line class="cls-1" x1="237.36" y1="201.25" x2="237.75" y2="201.57"/><line class="cls-1" x1="237.75" y1="201.57" x2="238.11" y2="202.05"/><line class="cls-1" x1="238.11" y1="202.05" x2="238.35" y2="202.6"/><line class="cls-1" x1="238.35" y1="202.6" x2="238.43" y2="203.09"/><line class="cls-1" x1="238.43" y1="203.09" x2="238.43" y2="213.92"/><line class="cls-1" x1="237.89" y1="214.22" x2="237.89" y2="214.84"/><line class="cls-1" x1="237.89" y1="214.84" x2="264.43" y2="230.16"/><line class="cls-1" x1="266.1" y1="218.62" x2="266.17" y2="218.52"/><line class="cls-1" x1="266.33" y1="218.34" x2="266.69" y2="218.27"/><line class="cls-1" x1="266.69" y1="218.27" x2="267.08" y2="218.41"/><line class="cls-1" x1="267.08" y1="218.41" x2="276.11" y2="223.62"/><line class="cls-1" x1="276.11" y1="223.62" x2="276.5" y2="223.93"/><line class="cls-1" x1="276.5" y1="223.93" x2="276.86" y2="224.42"/><line class="cls-1" x1="276.86" y1="224.42" x2="277.09" y2="224.97"/><line class="cls-1" x1="277.09" y1="224.97" x2="277.17" y2="225.46"/><line class="cls-1" x1="277.17" y1="225.46" x2="277.17" y2="247.72"/><line class="cls-1" x1="276.64" y1="248.03" x2="276.64" y2="248.64"/><line class="cls-1" x1="276.64" y1="248.64" x2="278.76" y2="249.87"/><line class="cls-1" x1="280.43" y1="226.89" x2="280.47" y2="226.84"/><line class="cls-1" x1="280.51" y1="226.8" x2="280.66" y2="226.61"/><line class="cls-1" x1="280.66" y1="226.61" x2="281.02" y2="226.55"/><line class="cls-1" x1="281.02" y1="226.55" x2="281.41" y2="226.69"/><line class="cls-1" x1="281.41" y1="226.69" x2="290.43" y2="231.89"/><line class="cls-1" x1="290.43" y1="231.89" x2="290.83" y2="232.21"/><line class="cls-1" x1="290.83" y1="232.21" x2="291.18" y2="232.69"/><line class="cls-1" x1="291.18" y1="232.69" x2="291.42" y2="233.24"/><line class="cls-1" x1="291.42" y1="233.24" x2="291.5" y2="233.73"/><line class="cls-1" x1="291.5" y1="233.73" x2="291.5" y2="244.56"/><line class="cls-1" x1="290.97" y1="244.86" x2="290.97" y2="245.48"/><line class="cls-1" x1="290.97" y1="245.48" x2="305.3" y2="253.75"/><line class="cls-1" x1="305.3" y1="253.75" x2="305.3" y2="292.56"/><line class="cls-1" x1="146.08" y1="161.83" x2="155.55" y2="167.29"/><line class="cls-1" x1="155.01" y1="182.61" x2="155.01" y2="183.23"/><line class="cls-1" x1="155.01" y1="183.23" x2="157.14" y2="184.45"/><line class="cls-1" x1="158.73" y1="169.13" x2="171.02" y2="176.23"/><line class="cls-1" x1="171.02" y1="176.23" x2="171.02" y2="186.44"/><line class="cls-1" x1="170.49" y1="186.75" x2="170.49" y2="187.36"/><line class="cls-1" x1="170.49" y1="187.36" x2="172.62" y2="188.59"/><line class="cls-1" x1="174.21" y1="166.02" x2="174.25" y2="165.78"/><line class="cls-1" x1="174.28" y1="165.61" x2="174.36" y2="165.52"/><line class="cls-1" x1="174.52" y1="165.33" x2="174.88" y2="165.26"/><line class="cls-1" x1="174.88" y1="165.26" x2="175.27" y2="165.4"/><line class="cls-1" x1="175.27" y1="165.4" x2="184.29" y2="170.61"/><line class="cls-1" x1="184.29" y1="170.61" x2="184.68" y2="170.92"/><line class="cls-1" x1="184.68" y1="170.92" x2="185.04" y2="171.4"/><line class="cls-1" x1="185.04" y1="171.4" x2="185.28" y2="171.96"/><line class="cls-1" x1="185.28" y1="171.96" x2="185.35" y2="172.45"/><line class="cls-1" x1="185.35" y1="172.45" x2="185.35" y2="183.28"/><line class="cls-1" x1="184.82" y1="183.58" x2="184.82" y2="184.2"/><line class="cls-1" x1="184.82" y1="184.2" x2="211.36" y2="199.52"/><line class="cls-1" x1="230.82" y1="205.24" x2="230.82" y2="205.85"/><line class="cls-1" x1="230.82" y1="205.85" x2="232.94" y2="207.08"/><line class="cls-1" x1="231.35" y1="201.87" x2="231.35" y2="204.93"/><line class="cls-1" x1="269.91" y1="224.13" x2="269.91" y2="227.2"/><line class="cls-1" x1="269.38" y1="227.5" x2="269.38" y2="228.12"/><line class="cls-1" x1="269.38" y1="228.12" x2="271.51" y2="229.34"/><line class="cls-1" x1="283.89" y1="235.88" x2="283.89" y2="236.49"/><line class="cls-1" x1="283.89" y1="236.49" x2="286.01" y2="237.72"/><line class="cls-1" x1="284.42" y1="232.51" x2="284.42" y2="235.57"/><line class="cls-1" x1="216.31" y1="197.47" x2="218.43" y2="198.7"/><line class="cls-1" x1="216.84" y1="193.49" x2="216.84" y2="196.55"/><line class="cls-1" x1="216.31" y1="196.86" x2="216.31" y2="197.47"/><line class="cls-1" x1="177.75" y1="174.6" x2="177.75" y2="175.21"/><line class="cls-1" x1="177.75" y1="175.21" x2="179.87" y2="176.44"/><line class="cls-1" x1="178.28" y1="171.23" x2="178.28" y2="174.29"/><line class="cls-1" x1="212.42" y1="188.69" x2="212.82" y2="188.46"/><line class="cls-1" x1="211.36" y1="189.3" x2="211.43" y2="188.9"/><line class="cls-1" x1="212.03" y1="188.55" x2="212.42" y2="188.69"/><line class="cls-1" x1="211.67" y1="188.62" x2="212.03" y2="188.55"/><line class="cls-1" x1="211.43" y1="188.9" x2="211.67" y2="188.62"/><line class="cls-1" x1="222.64" y1="193.21" x2="223.03" y2="192.98"/><line class="cls-1" x1="212.42" y1="188.69" x2="221.44" y2="193.9"/><line class="cls-1" x1="222.5" y1="195.74" x2="222.9" y2="195.51"/><line class="cls-1" x1="221.44" y1="193.9" x2="221.83" y2="194.21"/><line class="cls-1" x1="222.43" y1="195.24" x2="222.5" y2="195.74"/><line class="cls-1" x1="222.19" y1="194.69" x2="222.43" y2="195.24"/><line class="cls-1" x1="221.83" y1="194.21" x2="222.19" y2="194.69"/><line class="cls-1" x1="222.5" y1="195.74" x2="222.5" y2="218"/><line class="cls-1" x1="222.5" y1="218" x2="221.97" y2="217.7"/><line class="cls-1" x1="221.97" y1="217.7" x2="221.97" y2="218.92"/><line class="cls-1" x1="221.97" y1="218.92" x2="223.57" y2="218"/><line class="cls-1" x1="221.97" y1="218.92" x2="226.22" y2="221.37"/><line class="cls-1" x1="226.22" y1="221.37" x2="226.22" y2="220.15"/><line class="cls-1" x1="226.22" y1="220.15" x2="225.69" y2="219.84"/><line class="cls-1" x1="226.75" y1="196.96" x2="227.15" y2="196.73"/><line class="cls-1" x1="225.69" y1="197.58" x2="225.76" y2="197.17"/><line class="cls-1" x1="226.36" y1="196.82" x2="226.75" y2="196.96"/><line class="cls-1" x1="226" y1="196.89" x2="226.36" y2="196.82"/><line class="cls-1" x1="225.76" y1="197.17" x2="226" y2="196.89"/><line class="cls-1" x1="236.97" y1="201.48" x2="237.36" y2="201.25"/><line class="cls-1" x1="226.75" y1="196.96" x2="235.77" y2="202.17"/><line class="cls-1" x1="236.83" y1="204.01" x2="237.23" y2="203.78"/><line class="cls-1" x1="235.77" y1="202.17" x2="236.16" y2="202.49"/><line class="cls-1" x1="236.76" y1="203.52" x2="236.83" y2="204.01"/><line class="cls-1" x1="236.52" y1="202.97" x2="236.76" y2="203.52"/><line class="cls-1" x1="236.16" y1="202.49" x2="236.52" y2="202.97"/><line class="cls-1" x1="236.83" y1="204.01" x2="236.83" y2="214.84"/><line class="cls-1" x1="236.83" y1="214.84" x2="236.3" y2="214.53"/><line class="cls-1" x1="236.3" y1="214.53" x2="236.3" y2="215.76"/><line class="cls-1" x1="236.3" y1="215.76" x2="237.89" y2="214.84"/><line class="cls-1" x1="236.3" y1="215.76" x2="264.96" y2="232.3"/><line class="cls-1" x1="264.96" y1="232.3" x2="264.96" y2="231.08"/><line class="cls-1" x1="264.96" y1="231.08" x2="264.43" y2="230.77"/><line class="cls-1" x1="265.49" y1="219.33" x2="265.89" y2="219.1"/><line class="cls-1" x1="264.43" y1="219.94" x2="264.5" y2="219.54"/><line class="cls-1" x1="265.1" y1="219.19" x2="265.49" y2="219.33"/><line class="cls-1" x1="264.74" y1="219.26" x2="265.1" y2="219.19"/><line class="cls-1" x1="264.5" y1="219.54" x2="264.74" y2="219.26"/><line class="cls-1" x1="275.71" y1="223.85" x2="276.11" y2="223.62"/><line class="cls-1" x1="265.49" y1="219.33" x2="274.51" y2="224.54"/><line class="cls-1" x1="275.58" y1="226.38" x2="275.97" y2="226.15"/><line class="cls-1" x1="274.51" y1="224.54" x2="274.9" y2="224.85"/><line class="cls-1" x1="275.5" y1="225.89" x2="275.58" y2="226.38"/><line class="cls-1" x1="275.27" y1="225.33" x2="275.5" y2="225.89"/><line class="cls-1" x1="274.9" y1="224.85" x2="275.27" y2="225.33"/><line class="cls-1" x1="275.58" y1="226.38" x2="275.58" y2="248.64"/><line class="cls-1" x1="275.58" y1="248.64" x2="275.04" y2="248.34"/><line class="cls-1" x1="275.04" y1="248.34" x2="275.04" y2="249.57"/><line class="cls-1" x1="275.04" y1="249.57" x2="276.64" y2="248.64"/><line class="cls-1" x1="275.04" y1="249.57" x2="279.29" y2="252.02"/><line class="cls-1" x1="279.29" y1="252.02" x2="279.29" y2="250.79"/><line class="cls-1" x1="279.29" y1="250.79" x2="278.76" y2="250.48"/><line class="cls-1" x1="279.82" y1="227.61" x2="280.22" y2="227.38"/><line class="cls-1" x1="278.76" y1="228.22" x2="278.83" y2="227.81"/><line class="cls-1" x1="279.43" y1="227.47" x2="279.82" y2="227.61"/><line class="cls-1" x1="279.07" y1="227.53" x2="279.43" y2="227.47"/><line class="cls-1" x1="278.83" y1="227.81" x2="279.07" y2="227.53"/><line class="cls-1" x1="290.04" y1="232.12" x2="290.43" y2="231.89"/><line class="cls-1" x1="279.82" y1="227.61" x2="288.84" y2="232.81"/><line class="cls-1" x1="289.9" y1="234.65" x2="290.3" y2="234.42"/><line class="cls-1" x1="288.84" y1="232.81" x2="289.23" y2="233.13"/><line class="cls-1" x1="289.83" y1="234.16" x2="289.9" y2="234.65"/><line class="cls-1" x1="289.59" y1="233.61" x2="289.83" y2="234.16"/><line class="cls-1" x1="289.23" y1="233.13" x2="289.59" y2="233.61"/><line class="cls-1" x1="289.9" y1="234.65" x2="289.9" y2="245.48"/><line class="cls-1" x1="289.9" y1="245.48" x2="289.37" y2="245.17"/><line class="cls-1" x1="289.37" y1="245.17" x2="289.37" y2="246.4"/><line class="cls-1" x1="289.37" y1="246.4" x2="290.97" y2="245.48"/><line class="cls-1" x1="289.37" y1="246.4" x2="303.7" y2="254.67"/><line class="cls-1" x1="303.7" y1="254.67" x2="305.3" y2="253.75"/><line class="cls-1" x1="303.7" y1="254.67" x2="303.7" y2="293.48"/><line class="cls-1" x1="303.7" y1="293.48" x2="305.3" y2="292.56"/><line class="cls-1" x1="303.7" y1="293.48" x2="142.9" y2="200.64"/><line class="cls-1" x1="142.9" y1="200.64" x2="142.9" y2="173.27"/><line class="cls-1" x1="142.9" y1="173.27" x2="144.49" y2="172.35"/><line class="cls-1" x1="142.9" y1="173.27" x2="145.02" y2="174.49"/><line class="cls-1" x1="145.02" y1="174.49" x2="145.02" y2="173.27"/><line class="cls-1" x1="145.02" y1="173.27" x2="144.49" y2="172.96"/><line class="cls-1" x1="144.49" y1="162.75" x2="146.08" y2="161.83"/><line class="cls-1" x1="144.49" y1="162.75" x2="153.95" y2="168.21"/><line class="cls-1" x1="153.95" y1="168.21" x2="155.55" y2="167.29"/><line class="cls-1" x1="153.95" y1="168.21" x2="153.95" y2="183.14"/><line class="cls-1" x1="153.95" y1="183.14" x2="155.55" y2="182.22"/><line class="cls-1" x1="155.55" y1="182.22" x2="155.55" y2="167.29"/><line class="cls-1" x1="153.95" y1="183.14" x2="153.95" y2="183.23"/><line class="cls-1" x1="155.55" y1="182.31" x2="155.55" y2="182.22"/><line class="cls-1" x1="153.95" y1="183.23" x2="153.42" y2="182.92"/><line class="cls-1" x1="153.42" y1="182.92" x2="153.42" y2="184.15"/><line class="cls-1" x1="153.42" y1="184.15" x2="155.01" y2="183.23"/><line class="cls-1" x1="153.42" y1="184.15" x2="157.67" y2="186.6"/><line class="cls-1" x1="157.67" y1="186.6" x2="157.67" y2="185.37"/><line class="cls-1" x1="157.67" y1="185.37" x2="157.14" y2="185.07"/><line class="cls-1" x1="157.14" y1="170.05" x2="158.73" y2="169.13"/><line class="cls-1" x1="157.14" y1="170.05" x2="169.43" y2="177.15"/><line class="cls-1" x1="169.43" y1="177.15" x2="171.02" y2="176.23"/><line class="cls-1" x1="169.43" y1="177.15" x2="169.43" y2="187.36"/><line class="cls-1" x1="169.43" y1="187.36" x2="168.9" y2="187.06"/><line class="cls-1" x1="168.9" y1="187.06" x2="168.9" y2="188.28"/><line class="cls-1" x1="168.9" y1="188.28" x2="170.49" y2="187.36"/><line class="cls-1" x1="168.9" y1="188.28" x2="173.15" y2="190.73"/><line class="cls-1" x1="173.15" y1="190.73" x2="173.15" y2="189.51"/><line class="cls-1" x1="173.15" y1="189.51" x2="172.62" y2="189.2"/><line class="cls-1" x1="172.62" y1="166.94" x2="172.69" y2="166.53"/><line class="cls-1" x1="173.29" y1="166.18" x2="173.68" y2="166.32"/><line class="cls-1" x1="172.93" y1="166.25" x2="173.29" y2="166.18"/><line class="cls-1" x1="173.81" y1="166.25" x2="173.68" y2="166.32"/><line class="cls-1" x1="172.69" y1="166.53" x2="172.93" y2="166.25"/><line class="cls-1" x1="183.89" y1="170.84" x2="184.29" y2="170.61"/><line class="cls-1" x1="173.68" y1="166.32" x2="182.7" y2="171.53"/><line class="cls-1" x1="183.76" y1="173.37" x2="184.16" y2="173.14"/><line class="cls-1" x1="182.7" y1="171.53" x2="183.09" y2="171.84"/><line class="cls-1" x1="183.69" y1="172.88" x2="183.76" y2="173.37"/><line class="cls-1" x1="183.45" y1="172.32" x2="183.69" y2="172.88"/><line class="cls-1" x1="183.09" y1="171.84" x2="183.45" y2="172.32"/><line class="cls-1" x1="183.76" y1="173.37" x2="183.76" y2="184.2"/><line class="cls-1" x1="183.76" y1="184.2" x2="183.23" y2="183.89"/><line class="cls-1" x1="183.23" y1="183.89" x2="183.23" y2="185.12"/><line class="cls-1" x1="183.23" y1="185.12" x2="184.82" y2="184.2"/><line class="cls-1" x1="183.23" y1="185.12" x2="211.89" y2="201.66"/><line class="cls-1" x1="211.89" y1="201.66" x2="211.89" y2="200.44"/><line class="cls-1" x1="211.89" y1="200.44" x2="211.36" y2="200.13"/><line class="cls-1" x1="177.75" y1="170.92" x2="176.69" y2="171.53"/><line class="cls-1" x1="176.69" y1="171.53" x2="176.69" y2="175.21"/><line class="cls-1" x1="176.69" y1="175.21" x2="176.15" y2="174.9"/><line class="cls-1" x1="176.15" y1="174.9" x2="176.15" y2="176.13"/><line class="cls-1" x1="176.15" y1="176.13" x2="177.75" y2="175.21"/><line class="cls-1" x1="176.15" y1="176.13" x2="180.4" y2="178.58"/><line class="cls-1" x1="180.4" y1="178.58" x2="180.4" y2="177.36"/><line class="cls-1" x1="180.4" y1="177.36" x2="179.87" y2="177.05"/><line class="cls-1" x1="179.87" y1="173.37" x2="180.4" y2="173.06"/><line class="cls-1" x1="179.87" y1="173.37" x2="180.4" y2="173.68"/><line class="cls-1" x1="176.15" y1="170" x2="176.15" y2="171.23"/><line class="cls-1" x1="176.15" y1="171.23" x2="177.22" y2="170.61"/><line class="cls-1" x1="176.15" y1="171.23" x2="176.69" y2="171.53"/><line class="cls-1" x1="215.25" y1="197.47" x2="214.72" y2="197.17"/><line class="cls-1" x1="214.72" y1="197.17" x2="214.72" y2="198.39"/><line class="cls-1" x1="214.72" y1="198.39" x2="216.31" y2="197.47"/><line class="cls-1" x1="214.72" y1="198.39" x2="218.97" y2="200.85"/><line class="cls-1" x1="218.97" y1="200.85" x2="218.97" y2="199.62"/><line class="cls-1" x1="218.97" y1="199.62" x2="218.43" y2="199.31"/><line class="cls-1" x1="218.43" y1="195.64" x2="218.97" y2="195.33"/><line class="cls-1" x1="218.43" y1="195.64" x2="218.97" y2="195.94"/><line class="cls-1" x1="214.72" y1="192.27" x2="214.72" y2="193.49"/><line class="cls-1" x1="214.72" y1="193.49" x2="215.78" y2="192.88"/><line class="cls-1" x1="214.72" y1="193.49" x2="215.25" y2="193.8"/><line class="cls-1" x1="215.25" y1="193.8" x2="216.31" y2="193.18"/><line class="cls-1" x1="215.25" y1="193.8" x2="215.25" y2="197.47"/><line class="cls-1" x1="283.36" y1="231.89" x2="282.3" y2="232.51"/><line class="cls-1" x1="282.3" y1="232.51" x2="282.83" y2="232.81"/><line class="cls-1" x1="282.83" y1="232.81" x2="283.89" y2="232.2"/><line class="cls-1" x1="282.83" y1="232.81" x2="282.83" y2="236.49"/><line class="cls-1" x1="282.83" y1="236.49" x2="282.3" y2="236.18"/><line class="cls-1" x1="282.3" y1="236.18" x2="282.3" y2="237.41"/><line class="cls-1" x1="282.3" y1="237.41" x2="283.89" y2="236.49"/><line class="cls-1" x1="282.3" y1="237.41" x2="286.54" y2="239.86"/><line class="cls-1" x1="286.54" y1="239.86" x2="286.54" y2="238.64"/><line class="cls-1" x1="286.54" y1="238.64" x2="286.01" y2="238.33"/><line class="cls-1" x1="286.01" y1="234.65" x2="286.54" y2="234.35"/><line class="cls-1" x1="286.01" y1="234.65" x2="286.54" y2="234.96"/><line class="cls-1" x1="282.3" y1="231.28" x2="282.3" y2="232.51"/><line class="cls-1" x1="267.79" y1="222.91" x2="267.79" y2="224.13"/><line class="cls-1" x1="267.79" y1="224.13" x2="268.85" y2="223.52"/><line class="cls-1" x1="267.79" y1="224.13" x2="268.32" y2="224.44"/><line class="cls-1" x1="268.32" y1="224.44" x2="269.38" y2="223.82"/><line class="cls-1" x1="268.32" y1="224.44" x2="268.32" y2="228.12"/><line class="cls-1" x1="268.32" y1="228.12" x2="267.79" y2="227.81"/><line class="cls-1" x1="267.79" y1="227.81" x2="267.79" y2="229.04"/><line class="cls-1" x1="267.79" y1="229.04" x2="269.38" y2="228.12"/><line class="cls-1" x1="267.79" y1="229.04" x2="272.04" y2="231.49"/><line class="cls-1" x1="272.04" y1="231.49" x2="272.04" y2="230.26"/><line class="cls-1" x1="272.04" y1="230.26" x2="271.51" y2="229.95"/><line class="cls-1" x1="271.51" y1="226.28" x2="272.04" y2="225.97"/><line class="cls-1" x1="271.51" y1="226.28" x2="272.04" y2="226.58"/><line class="cls-1" x1="230.29" y1="201.25" x2="229.23" y2="201.87"/><line class="cls-1" x1="229.23" y1="201.87" x2="229.76" y2="202.17"/><line class="cls-1" x1="229.76" y1="202.17" x2="230.82" y2="201.56"/><line class="cls-1" x1="229.76" y1="202.17" x2="229.76" y2="205.85"/><line class="cls-1" x1="229.76" y1="205.85" x2="229.23" y2="205.54"/><line class="cls-1" x1="229.23" y1="205.54" x2="229.23" y2="206.77"/><line class="cls-1" x1="229.23" y1="206.77" x2="230.82" y2="205.85"/><line class="cls-1" x1="229.23" y1="206.77" x2="233.47" y2="209.22"/><line class="cls-1" x1="233.47" y1="209.22" x2="233.47" y2="208"/><line class="cls-1" x1="233.47" y1="208" x2="232.94" y2="207.69"/><line class="cls-1" x1="232.94" y1="204.01" x2="233.47" y2="203.71"/><line class="cls-1" x1="232.94" y1="204.01" x2="233.47" y2="204.32"/><line class="cls-1" x1="229.23" y1="200.64" x2="229.23" y2="201.87"/><line class="cls-1" x1="222.5" y1="218" x2="223.57" y2="217.39"/><line class="cls-1" x1="223.57" y1="217.39" x2="224.1" y2="217.08"/><line class="cls-1" x1="225.69" y1="219.84" x2="225.69" y2="219.23"/><line class="cls-1" x1="225.69" y1="219.23" x2="225.69" y2="197.58"/><line class="cls-1" x1="236.83" y1="214.84" x2="237.89" y2="214.22"/><line class="cls-1" x1="237.89" y1="214.22" x2="238.43" y2="213.92"/><line class="cls-1" x1="264.43" y1="230.77" x2="264.43" y2="230.16"/><line class="cls-1" x1="264.43" y1="230.16" x2="264.43" y2="219.94"/><line class="cls-1" x1="275.58" y1="248.64" x2="276.64" y2="248.03"/><line class="cls-1" x1="276.64" y1="248.03" x2="277.17" y2="247.72"/><line class="cls-1" x1="278.76" y1="250.48" x2="278.76" y2="249.87"/><line class="cls-1" x1="278.76" y1="249.87" x2="278.76" y2="228.22"/><line class="cls-1" x1="289.9" y1="245.48" x2="290.97" y2="244.86"/><line class="cls-1" x1="290.97" y1="244.86" x2="291.5" y2="244.56"/><line class="cls-1" x1="144.49" y1="172.96" x2="144.49" y2="172.35"/><line class="cls-1" x1="144.49" y1="172.35" x2="144.49" y2="162.75"/><line class="cls-1" x1="153.95" y1="183.23" x2="155.01" y2="182.61"/><line class="cls-1" x1="155.01" y1="182.61" x2="155.55" y2="182.31"/><line class="cls-1" x1="157.14" y1="185.07" x2="157.14" y2="184.45"/><line class="cls-1" x1="157.14" y1="184.45" x2="157.14" y2="170.05"/><line class="cls-1" x1="169.43" y1="187.36" x2="170.49" y2="186.75"/><line class="cls-1" x1="170.49" y1="186.75" x2="171.02" y2="186.44"/><line class="cls-1" x1="172.62" y1="189.2" x2="172.62" y2="188.59"/><line class="cls-1" x1="172.62" y1="188.59" x2="172.62" y2="166.94"/><line class="cls-1" x1="174.08" y1="166.09" x2="174.21" y2="166.02"/><line class="cls-1" x1="173.81" y1="166.25" x2="174.08" y2="166.09"/><line class="cls-1" x1="183.76" y1="184.2" x2="184.82" y2="183.58"/><line class="cls-1" x1="184.82" y1="183.58" x2="185.35" y2="183.28"/><line class="cls-1" x1="211.36" y1="200.13" x2="211.36" y2="199.52"/><line class="cls-1" x1="211.36" y1="199.52" x2="211.36" y2="189.3"/><line class="cls-1" x1="176.69" y1="175.21" x2="177.75" y2="174.6"/><line class="cls-1" x1="177.75" y1="174.6" x2="178.28" y2="174.29"/><line class="cls-1" x1="179.87" y1="177.05" x2="179.87" y2="176.44"/><line class="cls-1" x1="179.87" y1="176.44" x2="179.87" y2="173.37"/><line class="cls-1" x1="180.4" y1="173.68" x2="180.4" y2="173.06"/><line class="cls-1" x1="180.4" y1="173.06" x2="180.4" y2="172.45"/><line class="cls-1" x1="216.84" y1="196.55" x2="216.31" y2="196.86"/><line class="cls-1" x1="216.31" y1="196.86" x2="215.25" y2="197.47"/><line class="cls-1" x1="218.43" y1="199.31" x2="218.43" y2="198.7"/><line class="cls-1" x1="218.43" y1="198.7" x2="218.43" y2="195.64"/><line class="cls-1" x1="218.97" y1="195.94" x2="218.97" y2="195.33"/><line class="cls-1" x1="218.97" y1="195.33" x2="218.97" y2="194.72"/><line class="cls-1" x1="282.83" y1="236.49" x2="283.89" y2="235.88"/><line class="cls-1" x1="283.89" y1="235.88" x2="284.42" y2="235.57"/><line class="cls-1" x1="286.01" y1="238.33" x2="286.01" y2="237.72"/><line class="cls-1" x1="286.01" y1="237.72" x2="286.01" y2="234.65"/><line class="cls-1" x1="286.54" y1="234.96" x2="286.54" y2="234.35"/><line class="cls-1" x1="286.54" y1="234.35" x2="286.54" y2="233.73"/><line class="cls-1" x1="283.36" y1="231.89" x2="282.3" y2="231.28"/><line class="cls-1" x1="268.32" y1="228.12" x2="269.38" y2="227.5"/><line class="cls-1" x1="269.38" y1="227.5" x2="269.91" y2="227.2"/><line class="cls-1" x1="271.51" y1="229.95" x2="271.51" y2="229.34"/><line class="cls-1" x1="271.51" y1="229.34" x2="271.51" y2="226.28"/><line class="cls-1" x1="272.04" y1="226.58" x2="272.04" y2="225.97"/><line class="cls-1" x1="272.04" y1="225.97" x2="272.04" y2="225.36"/><line class="cls-1" x1="272.04" y1="225.36" x2="269.91" y2="224.13"/><line class="cls-1" x1="229.76" y1="205.85" x2="230.82" y2="205.24"/><line class="cls-1" x1="230.82" y1="205.24" x2="231.35" y2="204.93"/><line class="cls-1" x1="232.94" y1="207.69" x2="232.94" y2="207.08"/><line class="cls-1" x1="232.94" y1="207.08" x2="232.94" y2="204.01"/><line class="cls-1" x1="233.47" y1="204.32" x2="233.47" y2="203.71"/><line class="cls-1" x1="233.47" y1="203.71" x2="233.47" y2="203.09"/><line class="cls-1" x1="230.29" y1="201.25" x2="229.23" y2="200.64"/><line class="cls-1" x1="180.4" y1="172.45" x2="178.28" y2="171.23"/><line class="cls-1" x1="178.28" y1="171.23" x2="177.75" y2="170.92"/><line class="cls-1" x1="177.75" y1="170.92" x2="177.22" y2="170.61"/><line class="cls-1" x1="177.22" y1="170.61" x2="176.15" y2="170"/><line class="cls-1" x1="218.97" y1="194.72" x2="216.84" y2="193.49"/><line class="cls-1" x1="216.84" y1="193.49" x2="216.31" y2="193.18"/><line class="cls-1" x1="216.31" y1="193.18" x2="215.78" y2="192.88"/><line class="cls-1" x1="215.78" y1="192.88" x2="214.72" y2="192.27"/><line class="cls-1" x1="283.89" y1="232.2" x2="283.36" y2="231.89"/><line class="cls-1" x1="269.91" y1="224.13" x2="269.38" y2="223.82"/><line class="cls-1" x1="230.82" y1="201.56" x2="230.29" y2="201.25"/><line class="cls-1" x1="286.54" y1="233.73" x2="284.42" y2="232.51"/><line class="cls-1" x1="284.42" y1="232.51" x2="283.89" y2="232.2"/><line class="cls-1" x1="269.38" y1="223.82" x2="268.85" y2="223.52"/><line class="cls-1" x1="268.85" y1="223.52" x2="267.79" y2="222.91"/><line class="cls-1" x1="233.47" y1="203.09" x2="231.35" y2="201.87"/><line class="cls-1" x1="231.35" y1="201.87" x2="230.82" y2="201.56"/><line class="cls-1" x1="211.67" y1="188.62" x2="213.26" y2="187.7"/><line class="cls-1" x1="212.82" y1="188.46" x2="214.01" y2="187.77"/><line class="cls-1" x1="222.9" y1="195.51" x2="224.1" y2="194.82"/><line class="cls-1" x1="221.44" y1="193.9" x2="222.64" y2="193.21"/><line class="cls-1" x1="226" y1="196.89" x2="227.59" y2="195.97"/><line class="cls-1" x1="227.15" y1="196.73" x2="228.34" y2="196.04"/><line class="cls-1" x1="237.23" y1="203.78" x2="238.43" y2="203.09"/><line class="cls-1" x1="235.77" y1="202.17" x2="236.97" y2="201.48"/><line class="cls-1" x1="264.74" y1="219.26" x2="266.33" y2="218.34"/><line class="cls-1" x1="265.89" y1="219.1" x2="267.08" y2="218.41"/><line class="cls-1" x1="275.97" y1="226.15" x2="277.17" y2="225.46"/><line class="cls-1" x1="274.51" y1="224.54" x2="275.71" y2="223.85"/><line class="cls-1" x1="279.07" y1="227.53" x2="280.66" y2="226.61"/><line class="cls-1" x1="280.22" y1="227.38" x2="281.41" y2="226.69"/><line class="cls-1" x1="290.3" y1="234.42" x2="291.5" y2="233.73"/><line class="cls-1" x1="288.84" y1="232.81" x2="290.04" y2="232.12"/><line class="cls-1" x1="172.93" y1="166.25" x2="174.52" y2="165.33"/><line class="cls-1" x1="174.21" y1="166.02" x2="175.27" y2="165.4"/><line class="cls-1" x1="184.16" y1="173.14" x2="185.35" y2="172.45"/><line class="cls-1" x1="182.7" y1="171.53" x2="183.89" y2="170.84"/><polygon class="cls-2" points="155.62 167.79 155.62 182.72 155.62 182.8 155.09 183.11 155.09 183.72 157.21 184.95 157.21 170.55 158.8 169.63 171.1 176.72 171.1 186.94 170.57 187.25 170.57 187.86 172.69 189.08 172.69 167.43 172.76 167.02 173 166.74 174.59 165.82 174.95 165.76 175.34 165.9 184.37 171.11 184.76 171.42 185.12 171.9 185.35 172.45 185.43 172.95 185.43 183.77 184.9 184.08 184.9 184.69 211.43 200.01 211.43 189.8 211.51 189.39 211.74 189.11 213.33 188.19 213.69 188.13 214.09 188.27 223.11 193.48 223.5 193.79 223.86 194.27 224.09 194.82 224.17 195.31 224.17 217.58 223.64 217.89 223.64 218.5 225.76 219.72 225.76 198.07 225.84 197.66 226.07 197.38 227.66 196.47 228.02 196.4 228.41 196.54 237.44 201.75 237.83 202.06 238.19 202.54 238.42 203.09 238.5 203.59 238.5 214.41 237.97 214.72 237.97 215.33 264.5 230.65 264.5 220.44 264.58 220.03 264.81 219.75 266.41 218.83 266.76 218.77 267.16 218.91 276.18 224.12 276.57 224.43 276.93 224.91 277.17 225.46 277.24 225.96 277.24 248.22 276.71 248.53 276.71 249.14 278.83 250.37 278.83 228.71 278.9 228.31 279.14 228.03 280.74 227.1 281.1 227.04 281.49 227.18 290.51 232.39 290.9 232.7 291.26 233.18 291.49 233.73 291.57 234.23 291.57 245.05 291.04 245.36 291.04 245.97 305.37 254.25 305.37 293.06 303.77 293.98 142.97 201.13 142.97 173.76 144.56 172.84 144.56 163.24 146.15 162.32 155.62 167.79"/></svg>