<svg id="Layer_1" data-name="Layer 1" xmlns="http://www.w3.org/2000/svg" viewBox="0 0 212.6 425.2"><defs><style>.cls-1{font-size:5.3px;fill:#1d1d1b;font-family:Monotxt;}.cls-2,.cls-3{fill:none;stroke:#1d1d1b;stroke-miterlimit:10;}.cls-2{stroke-width:0.25px;}.cls-3{stroke-width:0.5px;}</style></defs><g id="MTEXT"><text class="cls-1" transform="translate(82.1 290.67) rotate(-90)">COMB-A/END-Y2</text></g><g id="MTEXT-2" data-name="MTEXT"><text class="cls-1" transform="translate(130.32 209.8) rotate(90)">COMB-A/END-Y2</text></g><g id="POLYLINE"><rect class="cls-2" x="14.56" y="31.85" width="183.49" height="366.97"/></g><g id="POLYLINE-2" data-name="POLYLINE"><polygon class="cls-3" points="28.8 337.91 34.14 337.91 34.14 338.81 36.02 338.81 36.02 331.52 34.14 331.52 34.14 332.42 28.8 332.42 28.8 331.52 26.92 331.52 26.92 338.81 28.8 338.81 28.8 337.91"/></g><g id="POLYLINE-3" data-name="POLYLINE"><polygon class="cls-3" points="34.14 272.34 34.14 273.24 36.02 273.24 36.02 265.95 34.14 265.95 34.14 266.85 28.8 266.85 28.8 265.95 26.92 265.95 26.92 273.24 28.8 273.24 28.8 272.34 34.14 272.34"/></g><g id="POLYLINE-4" data-name="POLYLINE"><polygon class="cls-3" points="28.8 248.58 28.8 247.67 34.14 247.67 34.14 248.58 36.02 248.58 36.02 241.28 34.14 241.28 34.14 242.18 28.8 242.18 28.8 241.28 26.92 241.28 26.92 248.58 28.8 248.58"/></g><g id="POLYLINE-5" data-name="POLYLINE"><polygon class="cls-3" points="26.92 183 28.8 183 28.8 182.1 34.14 182.1 34.14 183 36.02 183 36.02 175.71 34.14 175.71 34.14 176.61 28.8 176.61 28.8 175.71 26.92 175.71 26.92 183"/></g><g id="POLYLINE-6" data-name="POLYLINE"><polygon class="cls-3" points="28.8 158.34 28.8 157.43 34.14 157.43 34.14 158.34 36.02 158.34 36.02 151.04 34.14 151.04 34.14 151.94 28.8 151.94 28.8 151.04 26.92 151.04 26.92 158.34 28.8 158.34"/></g><g id="POLYLINE-7" data-name="POLYLINE"><polygon class="cls-3" points="183.79 337.91 178.46 337.91 178.46 338.81 176.58 338.81 176.58 331.52 178.46 331.52 178.46 332.42 183.79 332.42 183.79 331.52 185.68 331.52 185.68 338.81 183.79 338.81 183.79 337.91"/></g><g id="POLYLINE-8" data-name="POLYLINE"><polygon class="cls-3" points="178.46 272.34 178.46 273.24 176.58 273.24 176.58 265.95 178.46 265.95 178.46 266.85 183.79 266.85 183.79 265.95 185.68 265.95 185.68 273.24 183.79 273.24 183.79 272.34 178.46 272.34"/></g><g id="POLYLINE-9" data-name="POLYLINE"><polygon class="cls-3" points="183.79 248.58 183.79 247.67 178.46 247.67 178.46 248.58 176.58 248.58 176.58 241.28 178.46 241.28 178.46 242.18 183.79 242.18 183.79 241.28 185.68 241.28 185.68 248.58 183.79 248.58"/></g><g id="POLYLINE-10" data-name="POLYLINE"><polygon class="cls-3" points="185.68 183 183.79 183 183.79 182.1 178.46 182.1 178.46 183 176.58 183 176.58 175.71 178.46 175.71 178.46 176.61 183.79 176.61 183.79 175.71 185.68 175.71 185.68 183"/></g><g id="POLYLINE-11" data-name="POLYLINE"><polygon class="cls-3" points="183.79 158.34 183.79 157.43 178.46 157.43 178.46 158.34 176.58 158.34 176.58 151.04 178.46 151.04 178.46 151.94 183.79 151.94 183.79 151.04 185.68 151.04 185.68 158.34 183.79 158.34"/></g><g id="POLYLINE-12" data-name="POLYLINE"><path class="cls-3" d="M25.46,278.84a1.72,1.72,0,0,1-1.73-1.73V261.77A1.73,1.73,0,0,1,25.46,260H58.17V261h1.95v-7.37H58.17v.9H25.46a1.73,1.73,0,0,1-1.73-1.73V237.41a1.72,1.72,0,0,1,1.73-1.73H41.32v.9h2V187.7h-2v.9H25.46a1.72,1.72,0,0,1-1.73-1.73V171.53a1.73,1.73,0,0,1,1.73-1.73H58.17v.91h1.95v-7.37H58.17v.9H25.46a1.72,1.72,0,0,1-1.73-1.73V147.17a1.72,1.72,0,0,1,1.73-1.73H41.32v.9h2V122h57V395.25H60.12v-3.61H58.17v.9H43.28V376.6h22v.9h2v-7.37h-2V371h-22V350.28H58.17v.9h1.95v-7.36H58.17v.9H25.46A1.73,1.73,0,0,1,23.73,343V327.65a1.72,1.72,0,0,1,1.73-1.73H41.32v.9h2V277.94h-2v.9Z"/></g><g id="POLYLINE-13" data-name="POLYLINE"><path class="cls-3" d="M187.14,278.84a1.72,1.72,0,0,0,1.73-1.73V261.77a1.73,1.73,0,0,0-1.73-1.73H154.43V261h-2v-7.37h2v.9h32.71a1.73,1.73,0,0,0,1.73-1.73V237.41a1.72,1.72,0,0,0-1.73-1.73H171.27v.9h-2V187.7h2v.9h15.87a1.72,1.72,0,0,0,1.73-1.73V171.53a1.73,1.73,0,0,0-1.73-1.73H154.43v.91h-2v-7.37h2v.9h32.71a1.72,1.72,0,0,0,1.73-1.73V147.17a1.72,1.72,0,0,0-1.73-1.73H171.27v.9h-2V122h-57V395.25h40.15v-3.61h2v.9h14.89V376.6h-22v.9h-2v-7.37h2V371h22V350.28H154.43v.9h-2v-7.36h2v.9h32.71a1.73,1.73,0,0,0,1.73-1.73V327.65a1.72,1.72,0,0,0-1.73-1.73H171.27v.9h-2V277.94h2v.9Z"/></g></svg>