  0
SECTION
  2
HEADER
  9
$ACADVER
  1
AC1009
  9
$INSBASE
 10
0.000000
 20
0.000000
 30
0.000000
  9
$EXTMIN
 10
0.000000
 20
0.000000
 30
0.000000
  9
$EXTMAX
 10
1588.363376
 20
442.047669
 30
0.000000
  0
ENDSEC
  0
SECTION
  2
TABLES
  0
TABLE
  2
LTYPE
 70
1
  0
LTYPE
  2
CONTINUOUS
 70
0
  3
Solid line
 72
65
 73
0
 40
0.000000
  0
ENDTAB
  0
TABLE
  2
LAYER
 70
5
  0
LAYER
  2
0
 70
0
 62
7
  6
CONTINUOUS
  0
LAYER
  2
1_ANYTOOL_1MMDEEP_LABELS_S
 70
0
 62
2
  6
CONTINUOUS
  0
LAYER
  2
5_ANYTOOL_HALF_MILL_9MM_IN
 70
0
 62
3
  6
CONTINUOUS
  0
LAYER
  2
3_ANYTOOL_CUTTHROUGH_INSID
 70
0
 62
4
  6
CONTINUOUS
  0
LAYER
  2
4_ANYTOOL_CUTTHROUGH_OUTSI
 70
0
 62
5
  6
CONTINUOUS
  0
ENDTAB
  0
ENDSEC
  0
SECTION
  2
ENTITIES
  0
POLYLINE
  8
1_ANYTOOL_1MMDEEP_LABELS_S
 66
1
 10
0.000000
 20
0.000000
 30
0.000000
 70
1
  0
VERTEX
  8
1_ANYTOOL_1MMDEEP_LABELS_S
 10
861.495160
 20
269.569356
 30
0.000000
  0
VERTEX
  8
1_ANYTOOL_1MMDEEP_LABELS_S
 10
861.495160
 20
239.569356
 30
0.000000
  0
VERTEX
  8
1_ANYTOOL_1MMDEEP_LABELS_S
 10
870.023732
 20
239.655070
 30
0.000000
 42
0.046402
  0
VERTEX
  8
1_ANYTOOL_1MMDEEP_LABELS_S
 10
872.930106
 20
239.963246
 30
0.000000
 42
0.074650
  0
VERTEX
  8
1_ANYTOOL_1MMDEEP_LABELS_S
 10
875.659446
 20
240.951499
 30
0.000000
 42
0.077785
  0
VERTEX
  8
1_ANYTOOL_1MMDEEP_LABELS_S
 10
877.742431
 20
242.540521
 30
0.000000
 42
0.069150
  0
VERTEX
  8
1_ANYTOOL_1MMDEEP_LABELS_S
 10
879.280875
 20
244.669356
 30
0.000000
 42
0.029998
  0
VERTEX
  8
1_ANYTOOL_1MMDEEP_LABELS_S
 10
880.418401
 20
247.164672
 30
0.000000
 42
0.031416
  0
VERTEX
  8
1_ANYTOOL_1MMDEEP_LABELS_S
 10
881.241589
 20
249.780070
 30
0.000000
 42
0.031395
  0
VERTEX
  8
1_ANYTOOL_1MMDEEP_LABELS_S
 10
881.734233
 20
252.497393
 30
0.000000
 42
0.029153
  0
VERTEX
  8
1_ANYTOOL_1MMDEEP_LABELS_S
 10
881.895160
 20
255.255070
 30
0.000000
 42
0.032750
  0
VERTEX
  8
1_ANYTOOL_1MMDEEP_LABELS_S
 10
881.742680
 20
257.580492
 30
0.000000
 42
0.035889
  0
VERTEX
  8
1_ANYTOOL_1MMDEEP_LABELS_S
 10
881.273732
 20
259.862213
 30
0.000000
 42
0.035920
  0
VERTEX
  8
1_ANYTOOL_1MMDEEP_LABELS_S
 10
880.488873
 20
262.037581
 30
0.000000
 42
0.033706
  0
VERTEX
  8
1_ANYTOOL_1MMDEEP_LABELS_S
 10
879.409446
 20
264.083642
 30
0.000000
 42
0.042675
  0
VERTEX
  8
1_ANYTOOL_1MMDEEP_LABELS_S
 10
877.850963
 20
266.173393
 30
0.000000
 42
0.065683
  0
VERTEX
  8
1_ANYTOOL_1MMDEEP_LABELS_S
 10
875.889803
 20
267.871142
 30
0.000000
 42
0.068103
  0
VERTEX
  8
1_ANYTOOL_1MMDEEP_LABELS_S
 10
873.792077
 20
268.875049
 30
0.000000
 42
0.065471
  0
VERTEX
  8
1_ANYTOOL_1MMDEEP_LABELS_S
 10
871.502303
 20
269.290784
 30
0.000000
 42
0.005437
  0
VERTEX
  8
1_ANYTOOL_1MMDEEP_LABELS_S
 10
866.500182
 20
269.480839
 30
0.000000
 42
0.004710
  0
SEQEND
  8
1_ANYTOOL_1MMDEEP_LABELS_S
  0
LINE
  8
1_ANYTOOL_1MMDEEP_LABELS_S
 10
858.066589
 20
269.097927
 30
0.000000
 11
840.880875
 21
238.326499
 31
0.000000
  0
POLYLINE
  8
1_ANYTOOL_1MMDEEP_LABELS_S
 66
1
 10
0.000000
 20
0.000000
 30
0.000000
 70
0
  0
VERTEX
  8
1_ANYTOOL_1MMDEEP_LABELS_S
 10
836.852303
 20
239.612213
 30
0.000000
  0
VERTEX
  8
1_ANYTOOL_1MMDEEP_LABELS_S
 10
818.552303
 20
239.655070
 30
0.000000
 42
-0.034491
  0
VERTEX
  8
1_ANYTOOL_1MMDEEP_LABELS_S
 10
819.215081
 20
241.402402
 30
0.000000
 42
-0.037732
  0
VERTEX
  8
1_ANYTOOL_1MMDEEP_LABELS_S
 10
820.121946
 20
243.035427
 30
0.000000
 42
-0.037744
  0
VERTEX
  8
1_ANYTOOL_1MMDEEP_LABELS_S
 10
821.261240
 20
244.510063
 30
0.000000
 42
-0.034820
  0
VERTEX
  8
1_ANYTOOL_1MMDEEP_LABELS_S
 10
822.602303
 20
245.805070
 30
0.000000
 42
-0.008590
  0
VERTEX
  8
1_ANYTOOL_1MMDEEP_LABELS_S
 10
825.561528
 20
248.203653
 30
0.000000
 42
-0.008791
  0
VERTEX
  8
1_ANYTOOL_1MMDEEP_LABELS_S
 10
828.602303
 20
250.497927
 30
0.000000
 42
0.020588
  0
VERTEX
  8
1_ANYTOOL_1MMDEEP_LABELS_S
 10
831.421592
 20
252.731370
 30
0.000000
 42
0.025206
  0
VERTEX
  8
1_ANYTOOL_1MMDEEP_LABELS_S
 10
834.023732
 20
255.212213
 30
0.000000
 42
0.046908
  0
VERTEX
  8
1_ANYTOOL_1MMDEEP_LABELS_S
 10
835.044327
 20
256.513455
 30
0.000000
 42
0.051091
  0
VERTEX
  8
1_ANYTOOL_1MMDEEP_LABELS_S
 10
835.791589
 20
257.987213
 30
0.000000
 42
0.050722
  0
VERTEX
  8
1_ANYTOOL_1MMDEEP_LABELS_S
 10
836.240322
 20
259.635388
 30
0.000000
 42
0.041139
  0
VERTEX
  8
1_ANYTOOL_1MMDEEP_LABELS_S
 10
836.380875
 20
261.340784
 30
0.000000
 42
0.039396
  0
VERTEX
  8
1_ANYTOOL_1MMDEEP_LABELS_S
 10
836.238230
 20
263.148370
 30
0.000000
 42
0.058519
  0
VERTEX
  8
1_ANYTOOL_1MMDEEP_LABELS_S
 10
835.748732
 20
264.887213
 30
0.000000
 42
0.060358
  0
VERTEX
  8
1_ANYTOOL_1MMDEEP_LABELS_S
 10
834.958174
 20
266.294329
 30
0.000000
 42
0.061397
  0
VERTEX
  8
1_ANYTOOL_1MMDEEP_LABELS_S
 10
833.852303
 20
267.469356
 30
0.000000
 42
0.048006
  0
VERTEX
  8
1_ANYTOOL_1MMDEEP_LABELS_S
 10
832.496346
 20
268.391315
 30
0.000000
 42
0.045901
  0
VERTEX
  8
1_ANYTOOL_1MMDEEP_LABELS_S
 10
830.991589
 20
269.044356
 30
0.000000
 42
0.045216
  0
VERTEX
  8
1_ANYTOOL_1MMDEEP_LABELS_S
 10
829.251528
 20
269.446915
 30
0.000000
 42
0.034258
  0
VERTEX
  8
1_ANYTOOL_1MMDEEP_LABELS_S
 10
827.466589
 20
269.569356
 30
0.000000
 42
0.055622
  0
VERTEX
  8
1_ANYTOOL_1MMDEEP_LABELS_S
 10
824.832018
 20
269.275369
 30
0.000000
 42
0.079896
  0
VERTEX
  8
1_ANYTOOL_1MMDEEP_LABELS_S
 10
822.388018
 20
268.294356
 30
0.000000
 42
0.080617
  0
VERTEX
  8
1_ANYTOOL_1MMDEEP_LABELS_S
 10
820.418630
 20
266.628656
 30
0.000000
 42
0.060287
  0
VERTEX
  8
1_ANYTOOL_1MMDEEP_LABELS_S
 10
818.980875
 20
264.469356
 30
0.000000
  0
SEQEND
  8
1_ANYTOOL_1MMDEEP_LABELS_S
  0
LINE
  8
1_ANYTOOL_1MMDEEP_LABELS_S
 10
814.266589
 20
253.455070
 30
0.000000
 11
805.480875
 21
253.369356
 31
0.000000
  0
POLYLINE
  8
1_ANYTOOL_1MMDEEP_LABELS_S
 66
1
 10
0.000000
 20
0.000000
 30
0.000000
 70
0
  0
VERTEX
  8
1_ANYTOOL_1MMDEEP_LABELS_S
 10
801.452303
 20
264.983642
 30
0.000000
 42
0.071867
  0
VERTEX
  8
1_ANYTOOL_1MMDEEP_LABELS_S
 10
801.259190
 20
266.320248
 30
0.000000
 42
0.100684
  0
VERTEX
  8
1_ANYTOOL_1MMDEEP_LABELS_S
 10
800.632660
 20
267.501499
 30
0.000000
 42
0.047558
  0
VERTEX
  8
1_ANYTOOL_1MMDEEP_LABELS_S
 10
800.158107
 20
267.977949
 30
0.000000
 42
0.038563
  0
VERTEX
  8
1_ANYTOOL_1MMDEEP_LABELS_S
 10
799.608107
 20
268.366677
 30
0.000000
 42
0.037928
  0
VERTEX
  8
1_ANYTOOL_1MMDEEP_LABELS_S
 10
798.910919
 20
268.714145
 30
0.000000
 42
0.026634
  0
VERTEX
  8
1_ANYTOOL_1MMDEEP_LABELS_S
 10
798.173732
 20
268.969356
 30
0.000000
 42
0.028461
  0
VERTEX
  8
1_ANYTOOL_1MMDEEP_LABELS_S
 10
795.150399
 20
269.655339
 30
0.000000
 42
0.041577
  0
VERTEX
  8
1_ANYTOOL_1MMDEEP_LABELS_S
 10
792.066589
 20
269.912213
 30
0.000000
 42
0.036938
  0
VERTEX
  8
1_ANYTOOL_1MMDEEP_LABELS_S
 10
790.564229
 20
269.801073
 30
0.000000
 42
0.041531
  0
VERTEX
  8
1_ANYTOOL_1MMDEEP_LABELS_S
 10
789.098732
 20
269.456856
 30
0.000000
 42
0.041583
  0
VERTEX
  8
1_ANYTOOL_1MMDEEP_LABELS_S
 10
787.721355
 20
268.879647
 30
0.000000
 42
0.038125
  0
VERTEX
  8
1_ANYTOOL_1MMDEEP_LABELS_S
 10
786.452303
 20
268.090784
 30
0.000000
 42
0.057611
  0
VERTEX
  8
1_ANYTOOL_1MMDEEP_LABELS_S
 10
785.382151
 20
267.098880
 30
0.000000
 42
0.065808
  0
VERTEX
  8
1_ANYTOOL_1MMDEEP_LABELS_S
 10
784.588018
 20
265.878284
 30
0.000000
 42
0.064690
  0
VERTEX
  8
1_ANYTOOL_1MMDEEP_LABELS_S
 10
784.110521
 20
264.418730
 30
0.000000
 42
0.046778
  0
VERTEX
  8
1_ANYTOOL_1MMDEEP_LABELS_S
 10
783.966589
 20
262.883642
 30
0.000000
 42
0.052235
  0
VERTEX
  8
1_ANYTOOL_1MMDEEP_LABELS_S
 10
784.128945
 20
261.333799
 30
0.000000
 42
0.075448
  0
VERTEX
  8
1_ANYTOOL_1MMDEEP_LABELS_S
 10
784.673732
 20
259.883642
 30
0.000000
 42
0.076671
  0
VERTEX
  8
1_ANYTOOL_1MMDEEP_LABELS_S
 10
785.589824
 20
258.710589
 30
0.000000
 42
0.061023
  0
VERTEX
  8
1_ANYTOOL_1MMDEEP_LABELS_S
 10
786.795160
 20
257.826499
 30
0.000000
 42
0.021951
  0
VERTEX
  8
1_ANYTOOL_1MMDEEP_LABELS_S
 10
789.824014
 20
256.299153
 30
0.000000
 42
0.018213
  0
VERTEX
  8
1_ANYTOOL_1MMDEEP_LABELS_S
 10
792.966589
 20
255.019356
 30
0.000000
 42
-0.024050
  0
VERTEX
  8
1_ANYTOOL_1MMDEEP_LABELS_S
 10
796.068073
 20
253.713894
 30
0.000000
 42
-0.029810
  0
VERTEX
  8
1_ANYTOOL_1MMDEEP_LABELS_S
 10
799.009446
 20
252.083642
 30
0.000000
 42
-0.068439
  0
VERTEX
  8
1_ANYTOOL_1MMDEEP_LABELS_S
 10
800.150748
 20
251.117711
 30
0.000000
 42
-0.079282
  0
VERTEX
  8
1_ANYTOOL_1MMDEEP_LABELS_S
 10
800.959446
 20
249.865784
 30
0.000000
 42
-0.076308
  0
VERTEX
  8
1_ANYTOOL_1MMDEEP_LABELS_S
 10
801.384446
 20
248.287102
 30
0.000000
 42
-0.047772
  0
VERTEX
  8
1_ANYTOOL_1MMDEEP_LABELS_S
 10
801.409446
 20
246.640784
 30
0.000000
 42
-0.046243
  0
VERTEX
  8
1_ANYTOOL_1MMDEEP_LABELS_S
 10
801.116212
 20
244.959825
 30
0.000000
 42
-0.063590
  0
VERTEX
  8
1_ANYTOOL_1MMDEEP_LABELS_S
 10
800.466589
 20
243.388999
 30
0.000000
 42
-0.064671
  0
VERTEX
  8
1_ANYTOOL_1MMDEEP_LABELS_S
 10
799.493765
 20
242.104810
 30
0.000000
 42
-0.057073
  0
VERTEX
  8
1_ANYTOOL_1MMDEEP_LABELS_S
 10
798.238018
 20
241.090784
 30
0.000000
 42
-0.067522
  0
VERTEX
  8
1_ANYTOOL_1MMDEEP_LABELS_S
 10
795.269709
 20
239.727874
 30
0.000000
 42
-0.070793
  0
VERTEX
  8
1_ANYTOOL_1MMDEEP_LABELS_S
 10
792.045160
 20
239.226499
 30
0.000000
 42
-0.064027
  0
VERTEX
  8
1_ANYTOOL_1MMDEEP_LABELS_S
 10
788.906145
 20
239.589014
 30
0.000000
 42
-0.070447
  0
VERTEX
  8
1_ANYTOOL_1MMDEEP_LABELS_S
 10
785.980875
 20
240.769356
 30
0.000000
 42
-0.054374
  0
VERTEX
  8
1_ANYTOOL_1MMDEEP_LABELS_S
 10
784.822457
 20
241.618989
 30
0.000000
 42
-0.074742
  0
VERTEX
  8
1_ANYTOOL_1MMDEEP_LABELS_S
 10
783.923732
 20
242.730070
 30
0.000000
 42
-0.075199
  0
VERTEX
  8
1_ANYTOOL_1MMDEEP_LABELS_S
 10
783.400725
 20
244.036449
 30
0.000000
 42
-0.057737
  0
VERTEX
  8
1_ANYTOOL_1MMDEEP_LABELS_S
 10
783.238018
 20
245.440784
 30
0.000000
  0
SEQEND
  8
1_ANYTOOL_1MMDEEP_LABELS_S
  0
LINE
  8
1_ANYTOOL_1MMDEEP_LABELS_S
 10
779.209446
 20
253.455070
 30
0.000000
 11
770.423732
 21
253.369356
 31
0.000000
  0
POLYLINE
  8
1_ANYTOOL_1MMDEEP_LABELS_S
 66
1
 10
0.000000
 20
0.000000
 30
0.000000
 70
0
  0
VERTEX
  8
1_ANYTOOL_1MMDEEP_LABELS_S
 10
746.080875
 20
269.569356
 30
0.000000
  0
VERTEX
  8
1_ANYTOOL_1MMDEEP_LABELS_S
 10
756.452303
 20
239.569356
 30
0.000000
  0
VERTEX
  8
1_ANYTOOL_1MMDEEP_LABELS_S
 10
766.995160
 20
269.569356
 30
0.000000
  0
SEQEND
  8
1_ANYTOOL_1MMDEEP_LABELS_S
  0
POLYLINE
  8
5_ANYTOOL_HALF_MILL_9MM_IN
 66
1
 10
0.000000
 20
0.000000
 30
0.000000
 70
1
  0
VERTEX
  8
5_ANYTOOL_HALF_MILL_9MM_IN
 10
1318.449950
 20
73.796044
 30
0.000000
 42
0.997832
  0
VERTEX
  8
5_ANYTOOL_HALF_MILL_9MM_IN
 10
1275.950051
 20
73.796044
 30
0.000000
 42
0.000542
  0
VERTEX
  8
5_ANYTOOL_HALF_MILL_9MM_IN
 10
1275.949914
 20
73.670773
 30
0.000000
 42
0.000542
  0
VERTEX
  8
5_ANYTOOL_HALF_MILL_9MM_IN
 10
1275.950050
 20
73.545502
 30
0.000000
  0
VERTEX
  8
5_ANYTOOL_HALF_MILL_9MM_IN
 10
1275.950050
 20
67.545502
 30
0.000000
  0
VERTEX
  8
5_ANYTOOL_HALF_MILL_9MM_IN
 10
1318.449951
 20
67.545502
 30
0.000000
  0
SEQEND
  8
5_ANYTOOL_HALF_MILL_9MM_IN
  0
POLYLINE
  8
5_ANYTOOL_HALF_MILL_9MM_IN
 66
1
 10
0.000000
 20
0.000000
 30
0.000000
 70
1
  0
VERTEX
  8
5_ANYTOOL_HALF_MILL_9MM_IN
 10
1123.550001
 20
73.749933
 30
0.000000
 42
1.000000
  0
VERTEX
  8
5_ANYTOOL_HALF_MILL_9MM_IN
 10
1081.050001
 20
73.749933
 30
0.000000
  0
VERTEX
  8
5_ANYTOOL_HALF_MILL_9MM_IN
 10
1081.050001
 20
67.499933
 30
0.000000
  0
VERTEX
  8
5_ANYTOOL_HALF_MILL_9MM_IN
 10
1123.550001
 20
67.499933
 30
0.000000
  0
SEQEND
  8
5_ANYTOOL_HALF_MILL_9MM_IN
  0
POLYLINE
  8
5_ANYTOOL_HALF_MILL_9MM_IN
 66
1
 10
0.000000
 20
0.000000
 30
0.000000
 70
1
  0
VERTEX
  8
5_ANYTOOL_HALF_MILL_9MM_IN
 10
928.650001
 20
73.749933
 30
0.000000
 42
1.000000
  0
VERTEX
  8
5_ANYTOOL_HALF_MILL_9MM_IN
 10
886.150001
 20
73.749933
 30
0.000000
  0
VERTEX
  8
5_ANYTOOL_HALF_MILL_9MM_IN
 10
886.150001
 20
67.499933
 30
0.000000
  0
VERTEX
  8
5_ANYTOOL_HALF_MILL_9MM_IN
 10
928.650001
 20
67.499933
 30
0.000000
  0
SEQEND
  8
5_ANYTOOL_HALF_MILL_9MM_IN
  0
POLYLINE
  8
5_ANYTOOL_HALF_MILL_9MM_IN
 66
1
 10
0.000000
 20
0.000000
 30
0.000000
 70
1
  0
VERTEX
  8
5_ANYTOOL_HALF_MILL_9MM_IN
 10
118.450000
 20
73.749933
 30
0.000000
 42
1.000000
  0
VERTEX
  8
5_ANYTOOL_HALF_MILL_9MM_IN
 10
75.950000
 20
73.749933
 30
0.000000
  0
VERTEX
  8
5_ANYTOOL_HALF_MILL_9MM_IN
 10
75.950000
 20
67.499933
 30
0.000000
  0
VERTEX
  8
5_ANYTOOL_HALF_MILL_9MM_IN
 10
118.450000
 20
67.499933
 30
0.000000
  0
SEQEND
  8
5_ANYTOOL_HALF_MILL_9MM_IN
  0
POLYLINE
  8
5_ANYTOOL_HALF_MILL_9MM_IN
 66
1
 10
0.000000
 20
0.000000
 30
0.000000
 70
1
  0
VERTEX
  8
5_ANYTOOL_HALF_MILL_9MM_IN
 10
328.650000
 20
73.749933
 30
0.000000
 42
1.000000
  0
VERTEX
  8
5_ANYTOOL_HALF_MILL_9MM_IN
 10
286.150000
 20
73.749933
 30
0.000000
  0
VERTEX
  8
5_ANYTOOL_HALF_MILL_9MM_IN
 10
286.150000
 20
67.499933
 30
0.000000
  0
VERTEX
  8
5_ANYTOOL_HALF_MILL_9MM_IN
 10
328.650000
 20
67.499933
 30
0.000000
  0
SEQEND
  8
5_ANYTOOL_HALF_MILL_9MM_IN
  0
POLYLINE
  8
5_ANYTOOL_HALF_MILL_9MM_IN
 66
1
 10
0.000000
 20
0.000000
 30
0.000000
 70
1
  0
VERTEX
  8
5_ANYTOOL_HALF_MILL_9MM_IN
 10
523.550000
 20
73.749933
 30
0.000000
 42
1.000000
  0
VERTEX
  8
5_ANYTOOL_HALF_MILL_9MM_IN
 10
481.050000
 20
73.749933
 30
0.000000
  0
VERTEX
  8
5_ANYTOOL_HALF_MILL_9MM_IN
 10
481.050000
 20
67.499933
 30
0.000000
  0
VERTEX
  8
5_ANYTOOL_HALF_MILL_9MM_IN
 10
523.550000
 20
67.499933
 30
0.000000
  0
SEQEND
  8
5_ANYTOOL_HALF_MILL_9MM_IN
  0
POLYLINE
  8
5_ANYTOOL_HALF_MILL_9MM_IN
 66
1
 10
0.000000
 20
0.000000
 30
0.000000
 70
1
  0
VERTEX
  8
5_ANYTOOL_HALF_MILL_9MM_IN
 10
718.450000
 20
73.749933
 30
0.000000
 42
1.000000
  0
VERTEX
  8
5_ANYTOOL_HALF_MILL_9MM_IN
 10
675.950000
 20
73.749933
 30
0.000000
  0
VERTEX
  8
5_ANYTOOL_HALF_MILL_9MM_IN
 10
675.950000
 20
67.499933
 30
0.000000
  0
VERTEX
  8
5_ANYTOOL_HALF_MILL_9MM_IN
 10
718.450000
 20
67.499933
 30
0.000000
  0
SEQEND
  8
5_ANYTOOL_HALF_MILL_9MM_IN
  0
POLYLINE
  8
3_ANYTOOL_CUTTHROUGH_INSID
 66
1
 10
0.000000
 20
0.000000
 30
0.000000
 70
1
  0
VERTEX
  8
3_ANYTOOL_CUTTHROUGH_INSID
 10
202.300000
 20
196.956388
 30
0.000000
  0
VERTEX
  8
3_ANYTOOL_CUTTHROUGH_INSID
 10
208.550000
 20
196.956388
 30
0.000000
  0
VERTEX
  8
3_ANYTOOL_CUTTHROUGH_INSID
 10
208.550000
 20
209.456388
 30
0.000000
  0
VERTEX
  8
3_ANYTOOL_CUTTHROUGH_INSID
 10
202.550000
 20
209.456388
 30
0.000000
  0
VERTEX
  8
3_ANYTOOL_CUTTHROUGH_INSID
 10
202.550000
 20
219.956388
 30
0.000000
  0
VERTEX
  8
3_ANYTOOL_CUTTHROUGH_INSID
 10
208.550000
 20
219.956388
 30
0.000000
  0
VERTEX
  8
3_ANYTOOL_CUTTHROUGH_INSID
 10
208.550000
 20
232.456388
 30
0.000000
  0
VERTEX
  8
3_ANYTOOL_CUTTHROUGH_INSID
 10
202.300000
 20
232.456388
 30
0.000000
  0
VERTEX
  8
3_ANYTOOL_CUTTHROUGH_INSID
 10
178.050000
 20
232.456388
 30
0.000000
  0
VERTEX
  8
3_ANYTOOL_CUTTHROUGH_INSID
 10
178.050000
 20
219.956388
 30
0.000000
  0
VERTEX
  8
3_ANYTOOL_CUTTHROUGH_INSID
 10
184.050000
 20
219.956388
 30
0.000000
  0
VERTEX
  8
3_ANYTOOL_CUTTHROUGH_INSID
 10
184.050000
 20
209.456388
 30
0.000000
  0
VERTEX
  8
3_ANYTOOL_CUTTHROUGH_INSID
 10
178.050000
 20
209.456388
 30
0.000000
  0
VERTEX
  8
3_ANYTOOL_CUTTHROUGH_INSID
 10
178.050000
 20
196.956388
 30
0.000000
  0
SEQEND
  8
3_ANYTOOL_CUTTHROUGH_INSID
  0
POLYLINE
  8
3_ANYTOOL_CUTTHROUGH_INSID
 66
1
 10
0.000000
 20
0.000000
 30
0.000000
 70
1
  0
VERTEX
  8
3_ANYTOOL_CUTTHROUGH_INSID
 10
802.300001
 20
196.956388
 30
0.000000
  0
VERTEX
  8
3_ANYTOOL_CUTTHROUGH_INSID
 10
808.550001
 20
196.956388
 30
0.000000
  0
VERTEX
  8
3_ANYTOOL_CUTTHROUGH_INSID
 10
808.550001
 20
209.456388
 30
0.000000
  0
VERTEX
  8
3_ANYTOOL_CUTTHROUGH_INSID
 10
802.550001
 20
209.456388
 30
0.000000
  0
VERTEX
  8
3_ANYTOOL_CUTTHROUGH_INSID
 10
802.550001
 20
219.956388
 30
0.000000
  0
VERTEX
  8
3_ANYTOOL_CUTTHROUGH_INSID
 10
808.550001
 20
219.956388
 30
0.000000
  0
VERTEX
  8
3_ANYTOOL_CUTTHROUGH_INSID
 10
808.550001
 20
232.456388
 30
0.000000
  0
VERTEX
  8
3_ANYTOOL_CUTTHROUGH_INSID
 10
778.050001
 20
232.456388
 30
0.000000
  0
VERTEX
  8
3_ANYTOOL_CUTTHROUGH_INSID
 10
778.050001
 20
219.956388
 30
0.000000
  0
VERTEX
  8
3_ANYTOOL_CUTTHROUGH_INSID
 10
784.050001
 20
219.956388
 30
0.000000
  0
VERTEX
  8
3_ANYTOOL_CUTTHROUGH_INSID
 10
784.050001
 20
209.456388
 30
0.000000
  0
VERTEX
  8
3_ANYTOOL_CUTTHROUGH_INSID
 10
778.050001
 20
209.456388
 30
0.000000
  0
VERTEX
  8
3_ANYTOOL_CUTTHROUGH_INSID
 10
778.050001
 20
196.956388
 30
0.000000
  0
SEQEND
  8
3_ANYTOOL_CUTTHROUGH_INSID
  0
POLYLINE
  8
4_ANYTOOL_CUTTHROUGH_OUTSI
 66
1
 10
0.000000
 20
0.000000
 30
0.000000
 70
1
  0
VERTEX
  8
4_ANYTOOL_CUTTHROUGH_OUTSI
 10
1452.075137
 20
424.268669
 30
0.000000
  0
VERTEX
  8
4_ANYTOOL_CUTTHROUGH_OUTSI
 10
1452.175474
 20
418.519439
 30
0.000000
 42
-0.414214
  0
VERTEX
  8
4_ANYTOOL_CUTTHROUGH_OUTSI
 10
1451.929874
 20
418.265115
 30
0.000000
  0
VERTEX
  8
4_ANYTOOL_CUTTHROUGH_OUTSI
 10
1439.931701
 20
418.055720
 30
0.000000
 42
-0.414214
  0
VERTEX
  8
4_ANYTOOL_CUTTHROUGH_OUTSI
 10
1439.677377
 20
418.301320
 30
0.000000
  0
VERTEX
  8
4_ANYTOOL_CUTTHROUGH_OUTSI
 10
1439.262951
 20
442.047669
 30
0.000000
  0
VERTEX
  8
4_ANYTOOL_CUTTHROUGH_OUTSI
 10
1364.774298
 20
440.747465
 30
0.000000
  0
VERTEX
  8
4_ANYTOOL_CUTTHROUGH_OUTSI
 10
1365.188726
 20
417.000993
 30
0.000000
 42
-0.414214
  0
VERTEX
  8
4_ANYTOOL_CUTTHROUGH_OUTSI
 10
1364.943126
 20
416.746669
 30
0.000000
  0
VERTEX
  8
4_ANYTOOL_CUTTHROUGH_OUTSI
 10
1352.944953
 20
416.537275
 30
0.000000
 42
-0.414214
  0
VERTEX
  8
4_ANYTOOL_CUTTHROUGH_OUTSI
 10
1352.690629
 20
416.782874
 30
0.000000
  0
VERTEX
  8
4_ANYTOOL_CUTTHROUGH_OUTSI
 10
1352.590294
 20
422.531997
 30
0.000000
  0
VERTEX
  8
4_ANYTOOL_CUTTHROUGH_OUTSI
 10
852.075137
 20
413.794055
 30
0.000000
  0
VERTEX
  8
4_ANYTOOL_CUTTHROUGH_OUTSI
 10
852.175474
 20
408.044825
 30
0.000000
 42
-0.414214
  0
VERTEX
  8
4_ANYTOOL_CUTTHROUGH_OUTSI
 10
851.929874
 20
407.790500
 30
0.000000
  0
VERTEX
  8
4_ANYTOOL_CUTTHROUGH_OUTSI
 10
839.931701
 20
407.581106
 30
0.000000
 42
-0.414214
  0
VERTEX
  8
4_ANYTOOL_CUTTHROUGH_OUTSI
 10
839.677377
 20
407.826706
 30
0.000000
  0
VERTEX
  8
4_ANYTOOL_CUTTHROUGH_OUTSI
 10
839.262951
 20
431.573055
 30
0.000000
  0
VERTEX
  8
4_ANYTOOL_CUTTHROUGH_OUTSI
 10
802.018625
 20
430.922965
 30
0.000000
  0
VERTEX
  8
4_ANYTOOL_CUTTHROUGH_OUTSI
 10
764.774298
 20
430.272850
 30
0.000000
  0
VERTEX
  8
4_ANYTOOL_CUTTHROUGH_OUTSI
 10
765.188726
 20
406.526379
 30
0.000000
 42
-0.414214
  0
VERTEX
  8
4_ANYTOOL_CUTTHROUGH_OUTSI
 10
764.943126
 20
406.272055
 30
0.000000
  0
VERTEX
  8
4_ANYTOOL_CUTTHROUGH_OUTSI
 10
752.944953
 20
406.062660
 30
0.000000
 42
-0.414214
  0
VERTEX
  8
4_ANYTOOL_CUTTHROUGH_OUTSI
 10
752.690629
 20
406.308260
 30
0.000000
  0
VERTEX
  8
4_ANYTOOL_CUTTHROUGH_OUTSI
 10
752.590294
 20
412.057383
 30
0.000000
  0
VERTEX
  8
4_ANYTOOL_CUTTHROUGH_OUTSI
 10
252.075137
 20
403.319440
 30
0.000000
  0
VERTEX
  8
4_ANYTOOL_CUTTHROUGH_OUTSI
 10
252.175474
 20
397.570211
 30
0.000000
 42
-0.414214
  0
VERTEX
  8
4_ANYTOOL_CUTTHROUGH_OUTSI
 10
251.929874
 20
397.315886
 30
0.000000
  0
VERTEX
  8
4_ANYTOOL_CUTTHROUGH_OUTSI
 10
239.931701
 20
397.106492
 30
0.000000
 42
-0.414214
  0
VERTEX
  8
4_ANYTOOL_CUTTHROUGH_OUTSI
 10
239.677377
 20
397.352091
 30
0.000000
  0
VERTEX
  8
4_ANYTOOL_CUTTHROUGH_OUTSI
 10
239.262951
 20
421.098440
 30
0.000000
  0
VERTEX
  8
4_ANYTOOL_CUTTHROUGH_OUTSI
 10
202.018625
 20
420.448351
 30
0.000000
  0
VERTEX
  8
4_ANYTOOL_CUTTHROUGH_OUTSI
 10
164.774298
 20
419.798236
 30
0.000000
  0
VERTEX
  8
4_ANYTOOL_CUTTHROUGH_OUTSI
 10
165.188726
 20
396.051765
 30
0.000000
 42
-0.414214
  0
VERTEX
  8
4_ANYTOOL_CUTTHROUGH_OUTSI
 10
164.943126
 20
395.797440
 30
0.000000
  0
VERTEX
  8
4_ANYTOOL_CUTTHROUGH_OUTSI
 10
152.944953
 20
395.588046
 30
0.000000
 42
-0.414214
  0
VERTEX
  8
4_ANYTOOL_CUTTHROUGH_OUTSI
 10
152.690629
 20
395.833646
 30
0.000000
  0
VERTEX
  8
4_ANYTOOL_CUTTHROUGH_OUTSI
 10
152.590294
 20
401.582769
 30
0.000000
  0
VERTEX
  8
4_ANYTOOL_CUTTHROUGH_OUTSI
 10
0.284730
 20
398.923834
 30
0.000000
  0
VERTEX
  8
4_ANYTOOL_CUTTHROUGH_OUTSI
 10
0.000000
 20
297.788799
 30
0.000000
 42
0.237079
  0
VERTEX
  8
4_ANYTOOL_CUTTHROUGH_OUTSI
 10
2.317650
 20
293.175966
 30
0.000000
 42
0.237104
  0
VERTEX
  8
4_ANYTOOL_CUTTHROUGH_OUTSI
 10
7.402166
 20
292.281878
 30
0.000000
  0
VERTEX
  8
4_ANYTOOL_CUTTHROUGH_OUTSI
 10
37.163053
 20
303.276927
 30
0.000000
 42
-0.015611
  0
VERTEX
  8
4_ANYTOOL_CUTTHROUGH_OUTSI
 10
37.177854
 20
303.281876
 30
0.000000
 42
-0.237077
  0
VERTEX
  8
4_ANYTOOL_CUTTHROUGH_OUTSI
 10
42.704448
 20
302.309792
 30
0.000000
 42
-0.237079
  0
VERTEX
  8
4_ANYTOOL_CUTTHROUGH_OUTSI
 10
45.223632
 20
297.295463
 30
0.000000
  0
VERTEX
  8
4_ANYTOOL_CUTTHROUGH_OUTSI
 10
45.224088
 20
248.789378
 30
0.000000
 42
-0.237079
  0
VERTEX
  8
4_ANYTOOL_CUTTHROUGH_OUTSI
 10
42.704904
 20
243.775046
 30
0.000000
 42
-0.237079
  0
VERTEX
  8
4_ANYTOOL_CUTTHROUGH_OUTSI
 10
37.178164
 20
242.802963
 30
0.000000
 42
-0.015604
  0
VERTEX
  8
4_ANYTOOL_CUTTHROUGH_OUTSI
 10
37.163368
 20
242.807909
 30
0.000000
  0
VERTEX
  8
4_ANYTOOL_CUTTHROUGH_OUTSI
 10
7.387383
 20
253.807440
 30
0.000000
 42
0.236338
  0
VERTEX
  8
4_ANYTOOL_CUTTHROUGH_OUTSI
 10
2.317650
 20
252.908420
 30
0.000000
 42
0.237079
  0
VERTEX
  8
4_ANYTOOL_CUTTHROUGH_OUTSI
 10
0.000000
 20
248.295235
 30
0.000000
  0
VERTEX
  8
4_ANYTOOL_CUTTHROUGH_OUTSI
 10
0.000000
 20
199.789235
 30
0.000000
 42
0.237079
  0
VERTEX
  8
4_ANYTOOL_CUTTHROUGH_OUTSI
 10
2.317650
 20
195.176051
 30
0.000000
 42
0.237104
  0
VERTEX
  8
4_ANYTOOL_CUTTHROUGH_OUTSI
 10
7.402166
 20
194.281962
 30
0.000000
  0
VERTEX
  8
4_ANYTOOL_CUTTHROUGH_OUTSI
 10
37.163053
 20
205.277012
 30
0.000000
 42
-0.015611
  0
VERTEX
  8
4_ANYTOOL_CUTTHROUGH_OUTSI
 10
37.177854
 20
205.281961
 30
0.000000
 42
-0.237077
  0
VERTEX
  8
4_ANYTOOL_CUTTHROUGH_OUTSI
 10
42.704448
 20
204.309877
 30
0.000000
 42
-0.237079
  0
VERTEX
  8
4_ANYTOOL_CUTTHROUGH_OUTSI
 10
45.223632
 20
199.295547
 30
0.000000
  0
VERTEX
  8
4_ANYTOOL_CUTTHROUGH_OUTSI
 10
45.224088
 20
150.789463
 30
0.000000
 42
-0.237079
  0
VERTEX
  8
4_ANYTOOL_CUTTHROUGH_OUTSI
 10
42.704904
 20
145.775131
 30
0.000000
 42
-0.237079
  0
VERTEX
  8
4_ANYTOOL_CUTTHROUGH_OUTSI
 10
37.178164
 20
144.803047
 30
0.000000
 42
-0.015604
  0
VERTEX
  8
4_ANYTOOL_CUTTHROUGH_OUTSI
 10
37.163368
 20
144.807994
 30
0.000000
  0
VERTEX
  8
4_ANYTOOL_CUTTHROUGH_OUTSI
 10
7.387383
 20
155.807524
 30
0.000000
 42
0.236338
  0
VERTEX
  8
4_ANYTOOL_CUTTHROUGH_OUTSI
 10
2.317650
 20
154.908504
 30
0.000000
 42
0.237079
  0
VERTEX
  8
4_ANYTOOL_CUTTHROUGH_OUTSI
 10
0.000000
 20
150.295320
 30
0.000000
  0
VERTEX
  8
4_ANYTOOL_CUTTHROUGH_OUTSI
 10
0.000000
 20
17.999933
 30
0.000000
  0
VERTEX
  8
4_ANYTOOL_CUTTHROUGH_OUTSI
 10
69.094479
 20
17.999933
 30
0.000000
 42
0.061410
  0
VERTEX
  8
4_ANYTOOL_CUTTHROUGH_OUTSI
 10
68.859569
 20
19.394803
 30
0.000000
  0
VERTEX
  8
4_ANYTOOL_CUTTHROUGH_OUTSI
 10
51.964036
 20
67.667345
 30
0.000000
 42
-0.084368
  0
VERTEX
  8
4_ANYTOOL_CUTTHROUGH_OUTSI
 10
51.950000
 20
67.749933
 30
0.000000
 42
-0.414214
  0
VERTEX
  8
4_ANYTOOL_CUTTHROUGH_OUTSI
 10
58.200000
 20
73.999933
 30
0.000000
  0
VERTEX
  8
4_ANYTOOL_CUTTHROUGH_OUTSI
 10
136.200000
 20
73.999933
 30
0.000000
 42
-0.414214
  0
VERTEX
  8
4_ANYTOOL_CUTTHROUGH_OUTSI
 10
142.450000
 20
67.749933
 30
0.000000
 42
-0.084368
  0
VERTEX
  8
4_ANYTOOL_CUTTHROUGH_OUTSI
 10
142.435965
 20
67.667345
 30
0.000000
  0
VERTEX
  8
4_ANYTOOL_CUTTHROUGH_OUTSI
 10
125.536852
 20
19.383738
 30
0.000000
 42
0.060798
  0
VERTEX
  8
4_ANYTOOL_CUTTHROUGH_OUTSI
 10
125.305523
 20
17.999967
 30
0.000000
  0
VERTEX
  8
4_ANYTOOL_CUTTHROUGH_OUTSI
 10
137.704833
 20
18.000000
 30
0.000000
 42
-0.317837
  0
VERTEX
  8
4_ANYTOOL_CUTTHROUGH_OUTSI
 10
143.597389
 20
13.833333
 30
0.000000
 42
0.317837
  0
VERTEX
  8
4_ANYTOOL_CUTTHROUGH_OUTSI
 10
154.675396
 20
6.000000
 30
0.000000
 42
0.317837
  0
VERTEX
  8
4_ANYTOOL_CUTTHROUGH_OUTSI
 10
165.753402
 20
13.833333
 30
0.000000
 42
-0.317837
  0
VERTEX
  8
4_ANYTOOL_CUTTHROUGH_OUTSI
 10
171.645959
 20
18.000000
 30
0.000000
  0
VERTEX
  8
4_ANYTOOL_CUTTHROUGH_OUTSI
 10
184.300198
 20
17.999966
 30
0.000000
  0
VERTEX
  8
4_ANYTOOL_CUTTHROUGH_OUTSI
 10
202.300001
 20
17.999933
 30
0.000000
  0
VERTEX
  8
4_ANYTOOL_CUTTHROUGH_OUTSI
 10
220.300395
 20
17.999966
 30
0.000000
  0
VERTEX
  8
4_ANYTOOL_CUTTHROUGH_OUTSI
 10
232.955228
 20
18.000000
 30
0.000000
 42
-0.317837
  0
VERTEX
  8
4_ANYTOOL_CUTTHROUGH_OUTSI
 10
238.847785
 20
13.833333
 30
0.000000
 42
0.707107
  0
VERTEX
  8
4_ANYTOOL_CUTTHROUGH_OUTSI
 10
261.003797
 20
13.833333
 30
0.000000
 42
-0.317837
  0
VERTEX
  8
4_ANYTOOL_CUTTHROUGH_OUTSI
 10
266.896354
 20
18.000000
 30
0.000000
  0
VERTEX
  8
4_ANYTOOL_CUTTHROUGH_OUTSI
 10
279.294692
 20
17.999967
 30
0.000000
 42
0.061333
  0
VERTEX
  8
4_ANYTOOL_CUTTHROUGH_OUTSI
 10
279.059569
 20
19.394803
 30
0.000000
  0
VERTEX
  8
4_ANYTOOL_CUTTHROUGH_OUTSI
 10
262.164036
 20
67.667345
 30
0.000000
 42
-0.084368
  0
VERTEX
  8
4_ANYTOOL_CUTTHROUGH_OUTSI
 10
262.150000
 20
67.749933
 30
0.000000
 42
-0.414214
  0
VERTEX
  8
4_ANYTOOL_CUTTHROUGH_OUTSI
 10
268.400000
 20
73.999933
 30
0.000000
  0
VERTEX
  8
4_ANYTOOL_CUTTHROUGH_OUTSI
 10
346.400000
 20
73.999933
 30
0.000000
 42
-0.414214
  0
VERTEX
  8
4_ANYTOOL_CUTTHROUGH_OUTSI
 10
352.650000
 20
67.749933
 30
0.000000
 42
-0.084368
  0
VERTEX
  8
4_ANYTOOL_CUTTHROUGH_OUTSI
 10
352.635965
 20
67.667345
 30
0.000000
  0
VERTEX
  8
4_ANYTOOL_CUTTHROUGH_OUTSI
 10
335.736852
 20
19.383738
 30
0.000000
 42
0.060800
  0
VERTEX
  8
4_ANYTOOL_CUTTHROUGH_OUTSI
 10
335.505522
 20
17.999933
 30
0.000000
  0
VERTEX
  8
4_ANYTOOL_CUTTHROUGH_OUTSI
 10
474.194479
 20
17.999933
 30
0.000000
 42
0.061410
  0
VERTEX
  8
4_ANYTOOL_CUTTHROUGH_OUTSI
 10
473.959569
 20
19.394803
 30
0.000000
  0
VERTEX
  8
4_ANYTOOL_CUTTHROUGH_OUTSI
 10
457.064036
 20
67.667345
 30
0.000000
 42
-0.084368
  0
VERTEX
  8
4_ANYTOOL_CUTTHROUGH_OUTSI
 10
457.050000
 20
67.749933
 30
0.000000
 42
-0.414214
  0
VERTEX
  8
4_ANYTOOL_CUTTHROUGH_OUTSI
 10
463.300000
 20
73.999933
 30
0.000000
  0
VERTEX
  8
4_ANYTOOL_CUTTHROUGH_OUTSI
 10
541.300000
 20
73.999933
 30
0.000000
 42
-0.414214
  0
VERTEX
  8
4_ANYTOOL_CUTTHROUGH_OUTSI
 10
547.550000
 20
67.749933
 30
0.000000
 42
-0.084368
  0
VERTEX
  8
4_ANYTOOL_CUTTHROUGH_OUTSI
 10
547.535965
 20
67.667345
 30
0.000000
  0
VERTEX
  8
4_ANYTOOL_CUTTHROUGH_OUTSI
 10
530.636852
 20
19.383738
 30
0.000000
 42
0.060800
  0
VERTEX
  8
4_ANYTOOL_CUTTHROUGH_OUTSI
 10
530.405522
 20
17.999933
 30
0.000000
  0
VERTEX
  8
4_ANYTOOL_CUTTHROUGH_OUTSI
 10
669.094479
 20
17.999933
 30
0.000000
 42
0.061410
  0
VERTEX
  8
4_ANYTOOL_CUTTHROUGH_OUTSI
 10
668.859569
 20
19.394803
 30
0.000000
  0
VERTEX
  8
4_ANYTOOL_CUTTHROUGH_OUTSI
 10
651.964036
 20
67.667345
 30
0.000000
 42
-0.084368
  0
VERTEX
  8
4_ANYTOOL_CUTTHROUGH_OUTSI
 10
651.950000
 20
67.749933
 30
0.000000
 42
-0.414214
  0
VERTEX
  8
4_ANYTOOL_CUTTHROUGH_OUTSI
 10
658.200000
 20
73.999933
 30
0.000000
  0
VERTEX
  8
4_ANYTOOL_CUTTHROUGH_OUTSI
 10
736.200000
 20
73.999933
 30
0.000000
 42
-0.414214
  0
VERTEX
  8
4_ANYTOOL_CUTTHROUGH_OUTSI
 10
742.450000
 20
67.749933
 30
0.000000
 42
-0.084368
  0
VERTEX
  8
4_ANYTOOL_CUTTHROUGH_OUTSI
 10
742.435965
 20
67.667345
 30
0.000000
  0
VERTEX
  8
4_ANYTOOL_CUTTHROUGH_OUTSI
 10
725.536852
 20
19.383738
 30
0.000000
 42
0.060898
  0
VERTEX
  8
4_ANYTOOL_CUTTHROUGH_OUTSI
 10
725.305809
 20
17.999967
 30
0.000000
  0
VERTEX
  8
4_ANYTOOL_CUTTHROUGH_OUTSI
 10
737.705228
 20
18.000000
 30
0.000000
 42
-0.317837
  0
VERTEX
  8
4_ANYTOOL_CUTTHROUGH_OUTSI
 10
743.597785
 20
13.833333
 30
0.000000
 42
0.317837
  0
VERTEX
  8
4_ANYTOOL_CUTTHROUGH_OUTSI
 10
754.675791
 20
6.000000
 30
0.000000
 42
0.317837
  0
VERTEX
  8
4_ANYTOOL_CUTTHROUGH_OUTSI
 10
765.753797
 20
13.833333
 30
0.000000
 42
-0.317837
  0
VERTEX
  8
4_ANYTOOL_CUTTHROUGH_OUTSI
 10
771.646354
 20
18.000000
 30
0.000000
  0
VERTEX
  8
4_ANYTOOL_CUTTHROUGH_OUTSI
 10
784.300001
 20
17.999966
 30
0.000000
  0
VERTEX
  8
4_ANYTOOL_CUTTHROUGH_OUTSI
 10
802.300001
 20
17.999933
 30
0.000000
  0
VERTEX
  8
4_ANYTOOL_CUTTHROUGH_OUTSI
 10
820.300395
 20
17.999966
 30
0.000000
  0
VERTEX
  8
4_ANYTOOL_CUTTHROUGH_OUTSI
 10
832.955228
 20
18.000000
 30
0.000000
 42
-0.317837
  0
VERTEX
  8
4_ANYTOOL_CUTTHROUGH_OUTSI
 10
838.847785
 20
13.833333
 30
0.000000
 42
0.707107
  0
VERTEX
  8
4_ANYTOOL_CUTTHROUGH_OUTSI
 10
861.003797
 20
13.833333
 30
0.000000
 42
-0.317837
  0
VERTEX
  8
4_ANYTOOL_CUTTHROUGH_OUTSI
 10
866.896354
 20
18.000000
 30
0.000000
  0
VERTEX
  8
4_ANYTOOL_CUTTHROUGH_OUTSI
 10
879.294692
 20
17.999967
 30
0.000000
 42
0.061333
  0
VERTEX
  8
4_ANYTOOL_CUTTHROUGH_OUTSI
 10
879.059569
 20
19.394803
 30
0.000000
  0
VERTEX
  8
4_ANYTOOL_CUTTHROUGH_OUTSI
 10
862.164036
 20
67.667345
 30
0.000000
 42
-0.084368
  0
VERTEX
  8
4_ANYTOOL_CUTTHROUGH_OUTSI
 10
862.150001
 20
67.749933
 30
0.000000
 42
-0.414214
  0
VERTEX
  8
4_ANYTOOL_CUTTHROUGH_OUTSI
 10
868.400001
 20
73.999933
 30
0.000000
  0
VERTEX
  8
4_ANYTOOL_CUTTHROUGH_OUTSI
 10
928.400001
 20
73.999933
 30
0.000000
  0
VERTEX
  8
4_ANYTOOL_CUTTHROUGH_OUTSI
 10
946.400001
 20
73.999933
 30
0.000000
 42
-0.414214
  0
VERTEX
  8
4_ANYTOOL_CUTTHROUGH_OUTSI
 10
952.650001
 20
67.749933
 30
0.000000
 42
-0.084368
  0
VERTEX
  8
4_ANYTOOL_CUTTHROUGH_OUTSI
 10
952.635965
 20
67.667345
 30
0.000000
  0
VERTEX
  8
4_ANYTOOL_CUTTHROUGH_OUTSI
 10
935.736852
 20
19.383738
 30
0.000000
 42
0.060800
  0
VERTEX
  8
4_ANYTOOL_CUTTHROUGH_OUTSI
 10
935.505522
 20
17.999933
 30
0.000000
  0
VERTEX
  8
4_ANYTOOL_CUTTHROUGH_OUTSI
 10
1074.194480
 20
17.999933
 30
0.000000
 42
0.061410
  0
VERTEX
  8
4_ANYTOOL_CUTTHROUGH_OUTSI
 10
1073.959569
 20
19.394803
 30
0.000000
  0
VERTEX
  8
4_ANYTOOL_CUTTHROUGH_OUTSI
 10
1057.064036
 20
67.667345
 30
0.000000
 42
-0.084368
  0
VERTEX
  8
4_ANYTOOL_CUTTHROUGH_OUTSI
 10
1057.050001
 20
67.749933
 30
0.000000
 42
-0.414214
  0
VERTEX
  8
4_ANYTOOL_CUTTHROUGH_OUTSI
 10
1063.300001
 20
73.999933
 30
0.000000
  0
VERTEX
  8
4_ANYTOOL_CUTTHROUGH_OUTSI
 10
1141.300001
 20
73.999933
 30
0.000000
 42
-0.414214
  0
VERTEX
  8
4_ANYTOOL_CUTTHROUGH_OUTSI
 10
1147.550001
 20
67.749933
 30
0.000000
 42
-0.084368
  0
VERTEX
  8
4_ANYTOOL_CUTTHROUGH_OUTSI
 10
1147.535965
 20
67.667345
 30
0.000000
  0
VERTEX
  8
4_ANYTOOL_CUTTHROUGH_OUTSI
 10
1130.636852
 20
19.383738
 30
0.000000
 42
0.060891
  0
VERTEX
  8
4_ANYTOOL_CUTTHROUGH_OUTSI
 10
1130.405798
 20
18.000016
 30
0.000000
  0
VERTEX
  8
4_ANYTOOL_CUTTHROUGH_OUTSI
 10
1269.094491
 20
18.045418
 30
0.000000
 42
0.061472
  0
VERTEX
  8
4_ANYTOOL_CUTTHROUGH_OUTSI
 10
1268.859742
 20
19.440372
 30
0.000000
  0
VERTEX
  8
4_ANYTOOL_CUTTHROUGH_OUTSI
 10
1251.964209
 20
67.712914
 30
0.000000
 42
-0.084368
  0
VERTEX
  8
4_ANYTOOL_CUTTHROUGH_OUTSI
 10
1251.950174
 20
67.795502
 30
0.000000
 42
-0.414214
  0
VERTEX
  8
4_ANYTOOL_CUTTHROUGH_OUTSI
 10
1258.200174
 20
74.045502
 30
0.000000
  0
VERTEX
  8
4_ANYTOOL_CUTTHROUGH_OUTSI
 10
1336.200174
 20
74.045502
 30
0.000000
 42
-0.414214
  0
VERTEX
  8
4_ANYTOOL_CUTTHROUGH_OUTSI
 10
1342.450174
 20
67.795502
 30
0.000000
 42
-0.084368
  0
VERTEX
  8
4_ANYTOOL_CUTTHROUGH_OUTSI
 10
1342.436138
 20
67.712914
 30
0.000000
  0
VERTEX
  8
4_ANYTOOL_CUTTHROUGH_OUTSI
 10
1325.537025
 20
19.429307
 30
0.000000
 42
0.060840
  0
VERTEX
  8
4_ANYTOOL_CUTTHROUGH_OUTSI
 10
1325.305654
 20
18.044585
 30
0.000000
  0
VERTEX
  8
4_ANYTOOL_CUTTHROUGH_OUTSI
 10
1337.705678
 20
17.999999
 30
0.000000
 42
-0.317837
  0
VERTEX
  8
4_ANYTOOL_CUTTHROUGH_OUTSI
 10
1343.597785
 20
13.833333
 30
0.000000
 42
0.317837
  0
VERTEX
  8
4_ANYTOOL_CUTTHROUGH_OUTSI
 10
1354.675791
 20
6.000000
 30
0.000000
 42
0.317837
  0
VERTEX
  8
4_ANYTOOL_CUTTHROUGH_OUTSI
 10
1365.753797
 20
13.833333
 30
0.000000
 42
-0.317837
  0
VERTEX
  8
4_ANYTOOL_CUTTHROUGH_OUTSI
 10
1371.646354
 20
18.000000
 30
0.000000
  0
VERTEX
  8
4_ANYTOOL_CUTTHROUGH_OUTSI
 10
1437.050791
 20
18.000000
 30
0.000000
  0
VERTEX
  8
4_ANYTOOL_CUTTHROUGH_OUTSI
 10
1437.050791
 20
23.750000
 30
0.000000
 42
-0.414214
  0
VERTEX
  8
4_ANYTOOL_CUTTHROUGH_OUTSI
 10
1437.300791
 20
24.000000
 30
0.000000
  0
VERTEX
  8
4_ANYTOOL_CUTTHROUGH_OUTSI
 10
1449.300791
 20
24.000000
 30
0.000000
 42
-0.414214
  0
VERTEX
  8
4_ANYTOOL_CUTTHROUGH_OUTSI
 10
1449.550791
 20
23.750000
 30
0.000000
  0
VERTEX
  8
4_ANYTOOL_CUTTHROUGH_OUTSI
 10
1449.550791
 20
0.000000
 30
0.000000
  0
VERTEX
  8
4_ANYTOOL_CUTTHROUGH_OUTSI
 10
1484.050791
 20
0.000000
 30
0.000000
  0
VERTEX
  8
4_ANYTOOL_CUTTHROUGH_OUTSI
 10
1484.050791
 20
23.750000
 30
0.000000
 42
-0.414214
  0
VERTEX
  8
4_ANYTOOL_CUTTHROUGH_OUTSI
 10
1484.300791
 20
24.000000
 30
0.000000
  0
VERTEX
  8
4_ANYTOOL_CUTTHROUGH_OUTSI
 10
1496.300791
 20
24.000000
 30
0.000000
 42
-0.414214
  0
VERTEX
  8
4_ANYTOOL_CUTTHROUGH_OUTSI
 10
1496.550791
 20
23.750000
 30
0.000000
  0
VERTEX
  8
4_ANYTOOL_CUTTHROUGH_OUTSI
 10
1496.550791
 20
18.000000
 30
0.000000
  0
VERTEX
  8
4_ANYTOOL_CUTTHROUGH_OUTSI
 10
1509.962791
 20
18.000000
 30
0.000000
  0
VERTEX
  8
4_ANYTOOL_CUTTHROUGH_OUTSI
 10
1509.962791
 20
23.750000
 30
0.000000
 42
-0.414214
  0
VERTEX
  8
4_ANYTOOL_CUTTHROUGH_OUTSI
 10
1510.212791
 20
24.000000
 30
0.000000
  0
VERTEX
  8
4_ANYTOOL_CUTTHROUGH_OUTSI
 10
1522.212791
 20
24.000000
 30
0.000000
 42
-0.414214
  0
VERTEX
  8
4_ANYTOOL_CUTTHROUGH_OUTSI
 10
1522.462791
 20
23.750000
 30
0.000000
  0
VERTEX
  8
4_ANYTOOL_CUTTHROUGH_OUTSI
 10
1522.462791
 20
0.000000
 30
0.000000
  0
VERTEX
  8
4_ANYTOOL_CUTTHROUGH_OUTSI
 10
1554.050791
 20
0.000000
 30
0.000000
  0
VERTEX
  8
4_ANYTOOL_CUTTHROUGH_OUTSI
 10
1554.050791
 20
23.750000
 30
0.000000
 42
-0.414214
  0
VERTEX
  8
4_ANYTOOL_CUTTHROUGH_OUTSI
 10
1554.300791
 20
24.000000
 30
0.000000
  0
VERTEX
  8
4_ANYTOOL_CUTTHROUGH_OUTSI
 10
1566.300791
 20
24.000000
 30
0.000000
 42
-0.414214
  0
VERTEX
  8
4_ANYTOOL_CUTTHROUGH_OUTSI
 10
1566.550791
 20
23.750000
 30
0.000000
  0
VERTEX
  8
4_ANYTOOL_CUTTHROUGH_OUTSI
 10
1566.550791
 20
18.000000
 30
0.000000
  0
VERTEX
  8
4_ANYTOOL_CUTTHROUGH_OUTSI
 10
1588.050525
 20
17.999967
 30
0.000000
  0
VERTEX
  8
4_ANYTOOL_CUTTHROUGH_OUTSI
 10
1588.153708
 20
216.956388
 30
0.000000
  0
VERTEX
  8
4_ANYTOOL_CUTTHROUGH_OUTSI
 10
1564.403838
 20
216.956388
 30
0.000000
 42
-0.414214
  0
VERTEX
  8
4_ANYTOOL_CUTTHROUGH_OUTSI
 10
1564.153838
 20
217.206388
 30
0.000000
  0
VERTEX
  8
4_ANYTOOL_CUTTHROUGH_OUTSI
 10
1564.153838
 20
229.206388
 30
0.000000
 42
-0.414214
  0
VERTEX
  8
4_ANYTOOL_CUTTHROUGH_OUTSI
 10
1564.403838
 20
229.456388
 30
0.000000
  0
VERTEX
  8
4_ANYTOOL_CUTTHROUGH_OUTSI
 10
1570.153838
 20
229.456388
 30
0.000000
  0
VERTEX
  8
4_ANYTOOL_CUTTHROUGH_OUTSI
 10
1570.153838
 20
239.956388
 30
0.000000
  0
VERTEX
  8
4_ANYTOOL_CUTTHROUGH_OUTSI
 10
1564.403838
 20
239.956388
 30
0.000000
 42
-0.414214
  0
VERTEX
  8
4_ANYTOOL_CUTTHROUGH_OUTSI
 10
1564.153838
 20
240.206388
 30
0.000000
  0
VERTEX
  8
4_ANYTOOL_CUTTHROUGH_OUTSI
 10
1564.153838
 20
252.206388
 30
0.000000
 42
-0.414214
  0
VERTEX
  8
4_ANYTOOL_CUTTHROUGH_OUTSI
 10
1564.403838
 20
252.456388
 30
0.000000
  0
VERTEX
  8
4_ANYTOOL_CUTTHROUGH_OUTSI
 10
1588.192970
 20
252.456388
 30
0.000000
  0
VERTEX
  8
4_ANYTOOL_CUTTHROUGH_OUTSI
 10
1588.363376
 20
426.648031
 30
0.000000
  0
SEQEND
  8
4_ANYTOOL_CUTTHROUGH_OUTSI
  0
ENDSEC
  0
EOF
