<svg id="Layer_1" data-name="Layer 1" xmlns="http://www.w3.org/2000/svg" viewBox="0 0 425.2 425.2"><defs><style>.cls-1,.cls-2{fill:none;stroke-linecap:round;stroke-linejoin:round;}.cls-1{stroke:#000;stroke-width:0.25px;}.cls-2{stroke:#1d1d1b;}</style></defs><line class="cls-1" x1="279.73" y1="350.7" x2="279.73" y2="283.08"/><line class="cls-1" x1="272.19" y1="274.17" x2="272.27" y2="274.1"/><line class="cls-1" x1="272.27" y1="274.1" x2="272.36" y2="274.04"/><line class="cls-1" x1="253.2" y1="260.15" x2="251.08" y2="258.93"/><line class="cls-1" x1="251.08" y1="258.93" x2="251.08" y2="258.62"/><line class="cls-1" x1="251.08" y1="258.62" x2="251.08" y2="258.32"/><line class="cls-1" x1="251.61" y1="258.01" x2="251.61" y2="240.07"/><line class="cls-1" x1="239.86" y1="221.9" x2="239.69" y2="221.62"/><line class="cls-1" x1="219.31" y1="188.67" x2="219.11" y2="188.35"/><line class="cls-1" x1="219.11" y1="188.35" x2="219.2" y2="188.29"/><line class="cls-1" x1="200.13" y1="174.33" x2="198.01" y2="173.11"/><line class="cls-1" x1="198.01" y1="173.11" x2="198.01" y2="172.8"/><line class="cls-1" x1="198.01" y1="172.8" x2="198.01" y2="172.5"/><line class="cls-1" x1="198.54" y1="172.19" x2="198.54" y2="154.25"/><line class="cls-1" x1="186.79" y1="136.09" x2="186.62" y2="135.8"/><line class="cls-1" x1="186.62" y1="135.8" x2="186.42" y2="135.48"/><line class="cls-1" x1="166.75" y1="103.67" x2="166.64" y2="103.49"/><line class="cls-1" x1="154.41" y1="148.04" x2="154.42" y2="148.05"/><line class="cls-1" x1="179.63" y1="188.82" x2="179.64" y2="188.84"/><line class="cls-1" x1="204.04" y1="228.3" x2="204.05" y2="228.32"/><line class="cls-1" x1="207.48" y1="233.85" x2="207.48" y2="233.87"/><line class="cls-1" x1="232.7" y1="274.64" x2="232.71" y2="274.66"/><line class="cls-1" x1="251.61" y1="305.21" x2="251.61" y2="296.81"/><line class="cls-1" x1="257.11" y1="314.11" x2="257.12" y2="314.13"/><line class="cls-1" x1="155.03" y1="146.02" x2="152.71" y2="142.27"/><line class="cls-1" x1="153.46" y1="141.84" x2="154.8" y2="140.9"/><line class="cls-1" x1="183.69" y1="192.37" x2="181.37" y2="188.61"/><line class="cls-1" x1="182.12" y1="188.18" x2="183.46" y2="187.24"/><line class="cls-1" x1="208.1" y1="231.84" x2="205.78" y2="228.09"/><line class="cls-1" x1="206.53" y1="227.65" x2="207.87" y2="226.71"/><line class="cls-1" x1="236.76" y1="278.19" x2="234.44" y2="274.43"/><line class="cls-1" x1="235.19" y1="274" x2="236.53" y2="273.06"/><line class="cls-1" x1="261.17" y1="317.66" x2="258.85" y2="313.91"/><line class="cls-1" x1="259.6" y1="313.47" x2="260.94" y2="312.53"/><line class="cls-1" x1="147.06" y1="74.5" x2="148.65" y2="73.58"/><line class="cls-1" x1="166.64" y1="103.49" x2="165.04" y2="104.41"/><line class="cls-1" x1="165.24" y1="104.72" x2="165.04" y2="104.41"/><line class="cls-1" x1="184.83" y1="136.4" x2="186.42" y2="135.48"/><line class="cls-1" x1="186.62" y1="135.8" x2="185.02" y2="136.72"/><line class="cls-1" x1="185.02" y1="136.72" x2="184.83" y2="136.4"/><line class="cls-1" x1="185.22" y1="137.04" x2="185.02" y2="136.72"/><line class="cls-1" x1="196.94" y1="173.11" x2="196.94" y2="155.17"/><line class="cls-1" x1="198.01" y1="172.8" x2="196.41" y2="173.72"/><line class="cls-1" x1="196.41" y1="174.03" x2="196.41" y2="173.72"/><line class="cls-1" x1="219.2" y1="188.29" x2="217.61" y2="189.21"/><line class="cls-1" x1="217.52" y1="189.27" x2="217.61" y2="189.21"/><line class="cls-1" x1="217.72" y1="189.59" x2="219.31" y2="188.67"/><line class="cls-1" x1="217.72" y1="189.59" x2="217.52" y2="189.27"/><line class="cls-1" x1="239.69" y1="221.62" x2="238.09" y2="222.54"/><line class="cls-1" x1="238.29" y1="222.86" x2="238.09" y2="222.54"/><line class="cls-1" x1="250.01" y1="258.93" x2="250.01" y2="240.99"/><line class="cls-1" x1="249.48" y1="259.23" x2="250.01" y2="258.93"/><line class="cls-1" x1="251.08" y1="258.62" x2="249.48" y2="259.54"/><line class="cls-1" x1="249.48" y1="259.54" x2="249.48" y2="259.23"/><line class="cls-1" x1="249.48" y1="259.85" x2="249.48" y2="259.54"/><line class="cls-1" x1="270.77" y1="274.96" x2="272.36" y2="274.04"/><line class="cls-1" x1="272.27" y1="274.1" x2="270.68" y2="275.02"/><line class="cls-1" x1="270.68" y1="275.02" x2="270.77" y2="274.96"/><line class="cls-1" x1="270.59" y1="275.09" x2="270.68" y2="275.02"/><line class="cls-1" x1="278.14" y1="351.62" x2="279.73" y2="350.7"/><line class="cls-1" x1="253.73" y1="298.64" x2="253.2" y2="298.95"/><line class="cls-1" x1="253.2" y1="298.95" x2="253.2" y2="311.28"/><line class="cls-1" x1="249.48" y1="296.81" x2="249.48" y2="296.19"/><line class="cls-1" x1="249.48" y1="296.19" x2="250.01" y2="295.89"/><line class="cls-1" x1="249.48" y1="295.89" x2="249.75" y2="295.73"/><line class="cls-1" x1="249.48" y1="296.19" x2="249.48" y2="295.89"/><line class="cls-1" x1="249.48" y1="295.89" x2="249.48" y2="295.58"/><line class="cls-1" x1="250.01" y1="297.11" x2="249.48" y2="296.81"/><line class="cls-1" x1="250.01" y1="306.13" x2="250.01" y2="297.11"/><line class="cls-1" x1="200.66" y1="212.83" x2="200.13" y2="213.13"/><line class="cls-1" x1="200.13" y1="213.13" x2="200.13" y2="225.46"/><line class="cls-1" x1="196.41" y1="210.99" x2="196.41" y2="210.38"/><line class="cls-1" x1="196.41" y1="210.38" x2="196.94" y2="210.07"/><line class="cls-1" x1="196.41" y1="210.07" x2="196.68" y2="209.92"/><line class="cls-1" x1="196.41" y1="210.38" x2="196.41" y2="210.07"/><line class="cls-1" x1="196.41" y1="210.07" x2="196.41" y2="209.76"/><line class="cls-1" x1="198.01" y1="210.68" x2="196.94" y2="211.3"/><line class="cls-1" x1="147.59" y1="127.01" x2="147.06" y2="127.31"/><line class="cls-1" x1="147.06" y1="127.31" x2="147.06" y2="139.64"/><line class="cls-1" x1="145.46" y1="89.43" x2="145.46" y2="125.17"/><line class="cls-1" x1="263.26" y1="316.28" x2="262.51" y2="316.72"/><line class="cls-1" x1="262.9" y1="317.36" x2="262.51" y2="316.72"/><line class="cls-1" x1="263.61" y1="316.85" x2="262.9" y2="317.36"/><line class="cls-1" x1="260.5" y1="311.82" x2="259.75" y2="312.25"/><line class="cls-1" x1="259.75" y1="312.25" x2="260.46" y2="311.75"/><line class="cls-1" x1="260.89" y1="312.46" x2="260.14" y2="312.89"/><line class="cls-1" x1="260.14" y1="312.89" x2="259.75" y2="312.25"/><line class="cls-1" x1="258.01" y1="314.39" x2="260.14" y2="312.89"/><line class="cls-1" x1="260.06" y1="319.36" x2="256.91" y2="314.26"/><line class="cls-1" x1="260.77" y1="318.86" x2="260.06" y2="319.36"/><line class="cls-1" x1="260.38" y1="318.22" x2="260.77" y2="318.86"/><line class="cls-1" x1="238.85" y1="276.81" x2="238.1" y2="277.24"/><line class="cls-1" x1="238.49" y1="277.88" x2="238.1" y2="277.24"/><line class="cls-1" x1="239.2" y1="277.38" x2="238.49" y2="277.88"/><line class="cls-1" x1="236.09" y1="272.34" x2="235.34" y2="272.78"/><line class="cls-1" x1="235.34" y1="272.78" x2="236.05" y2="272.28"/><line class="cls-1" x1="236.48" y1="272.98" x2="235.73" y2="273.42"/><line class="cls-1" x1="235.73" y1="273.42" x2="235.34" y2="272.78"/><line class="cls-1" x1="233.6" y1="274.92" x2="235.73" y2="273.42"/><line class="cls-1" x1="235.65" y1="279.88" x2="232.5" y2="274.78"/><line class="cls-1" x1="236.36" y1="279.38" x2="235.65" y2="279.88"/><line class="cls-1" x1="235.97" y1="278.75" x2="236.36" y2="279.38"/><line class="cls-1" x1="210.19" y1="230.47" x2="209.44" y2="230.9"/><line class="cls-1" x1="209.83" y1="231.54" x2="209.44" y2="230.9"/><line class="cls-1" x1="210.54" y1="231.04" x2="209.83" y2="231.54"/><line class="cls-1" x1="207.43" y1="226" x2="206.68" y2="226.43"/><line class="cls-1" x1="206.68" y1="226.43" x2="207.39" y2="225.93"/><line class="cls-1" x1="207.82" y1="226.64" x2="207.07" y2="227.07"/><line class="cls-1" x1="207.07" y1="227.07" x2="206.68" y2="226.43"/><line class="cls-1" x1="204.94" y1="228.58" x2="207.07" y2="227.07"/><line class="cls-1" x1="206.99" y1="233.54" x2="203.84" y2="228.44"/><line class="cls-1" x1="207.7" y1="233.04" x2="206.99" y2="233.54"/><line class="cls-1" x1="207.31" y1="232.4" x2="207.7" y2="233.04"/><line class="cls-1" x1="185.78" y1="190.99" x2="185.03" y2="191.42"/><line class="cls-1" x1="185.42" y1="192.06" x2="185.03" y2="191.42"/><line class="cls-1" x1="186.13" y1="191.56" x2="185.42" y2="192.06"/><line class="cls-1" x1="183.02" y1="186.53" x2="182.27" y2="186.96"/><line class="cls-1" x1="182.27" y1="186.96" x2="182.98" y2="186.46"/><line class="cls-1" x1="183.41" y1="187.16" x2="182.66" y2="187.6"/><line class="cls-1" x1="182.66" y1="187.6" x2="182.27" y2="186.96"/><line class="cls-1" x1="180.53" y1="189.1" x2="182.66" y2="187.6"/><line class="cls-1" x1="182.58" y1="194.06" x2="179.43" y2="188.96"/><line class="cls-1" x1="183.29" y1="193.56" x2="182.58" y2="194.06"/><line class="cls-1" x1="182.9" y1="192.93" x2="183.29" y2="193.56"/><line class="cls-1" x1="157.12" y1="144.65" x2="156.37" y2="145.08"/><line class="cls-1" x1="156.76" y1="145.72" x2="156.37" y2="145.08"/><line class="cls-1" x1="157.47" y1="145.22" x2="156.76" y2="145.72"/><line class="cls-1" x1="154.36" y1="140.18" x2="153.61" y2="140.62"/><line class="cls-1" x1="153.61" y1="140.62" x2="154.32" y2="140.12"/><line class="cls-1" x1="154.75" y1="140.82" x2="154" y2="141.25"/><line class="cls-1" x1="154" y1="141.25" x2="153.61" y2="140.62"/><line class="cls-1" x1="151.87" y1="142.76" x2="154" y2="141.25"/><line class="cls-1" x1="151.52" y1="142.19" x2="150.77" y2="142.62"/><line class="cls-1" x1="150.77" y1="142.62" x2="151.48" y2="142.12"/><line class="cls-1" x1="153.92" y1="147.72" x2="150.77" y2="142.62"/><line class="cls-1" x1="154.63" y1="147.22" x2="153.92" y2="147.72"/><line class="cls-1" x1="154.24" y1="146.58" x2="154.63" y2="147.22"/><line class="cls-1" x1="278.14" y1="284" x2="278.14" y2="351.62"/><line class="cls-1" x1="168.25" y1="102.8" x2="166.75" y2="103.67"/><line class="cls-1" x1="166.75" y1="103.67" x2="166.66" y2="103.72"/><line class="cls-1" x1="198.01" y1="172.5" x2="196.94" y2="173.11"/><line class="cls-1" x1="200.13" y1="160.32" x2="200.13" y2="174.33"/><line class="cls-1" x1="200.13" y1="174.33" x2="200.13" y2="174.95"/><line class="cls-1" x1="219.82" y1="189.49" x2="219.73" y2="189.54"/><line class="cls-1" x1="251.08" y1="258.32" x2="250.01" y2="258.93"/><line class="cls-1" x1="253.2" y1="246.14" x2="253.2" y2="260.15"/><line class="cls-1" x1="253.2" y1="260.15" x2="253.2" y2="260.77"/><line class="cls-1" x1="272.89" y1="275.31" x2="272.8" y2="275.36"/><line class="cls-1" x1="196.94" y1="210.07" x2="197.48" y2="210.38"/><line class="cls-1" x1="197.48" y1="210.38" x2="198.01" y2="210.68"/><line class="cls-1" x1="198.01" y1="210.68" x2="198.54" y2="210.99"/><line class="cls-1" x1="147.59" y1="126.39" x2="147.59" y2="127.01"/><line class="cls-1" x1="147.06" y1="88.52" x2="147.06" y2="89.13"/><line class="cls-1" x1="262.51" y1="316.72" x2="261.17" y2="317.66"/><line class="cls-1" x1="261.17" y1="317.66" x2="260.38" y2="318.22"/><line class="cls-1" x1="263.26" y1="316.28" x2="263.61" y2="316.85"/><line class="cls-1" x1="259.6" y1="313.47" x2="258.85" y2="313.91"/><line class="cls-1" x1="258.85" y1="313.91" x2="258.01" y2="314.39"/><line class="cls-1" x1="257.62" y1="313.76" x2="257.66" y2="313.82"/><line class="cls-1" x1="257.66" y1="313.82" x2="258.01" y2="314.39"/><line class="cls-1" x1="257.66" y1="313.82" x2="257.12" y2="314.13"/><line class="cls-1" x1="257.12" y1="314.13" x2="256.91" y2="314.26"/><line class="cls-1" x1="256.91" y1="314.26" x2="257.11" y2="314.11"/><line class="cls-1" x1="257.11" y1="314.11" x2="257.62" y2="313.76"/><line class="cls-1" x1="238.1" y1="277.24" x2="236.76" y2="278.19"/><line class="cls-1" x1="236.76" y1="278.19" x2="235.97" y2="278.75"/><line class="cls-1" x1="238.85" y1="276.81" x2="239.2" y2="277.38"/><line class="cls-1" x1="235.19" y1="274" x2="234.44" y2="274.43"/><line class="cls-1" x1="234.44" y1="274.43" x2="233.6" y2="274.92"/><line class="cls-1" x1="233.21" y1="274.28" x2="233.25" y2="274.35"/><line class="cls-1" x1="233.25" y1="274.35" x2="233.6" y2="274.92"/><line class="cls-1" x1="233.25" y1="274.35" x2="232.71" y2="274.66"/><line class="cls-1" x1="232.71" y1="274.66" x2="232.5" y2="274.78"/><line class="cls-1" x1="232.5" y1="274.78" x2="232.7" y2="274.64"/><line class="cls-1" x1="232.7" y1="274.64" x2="233.21" y2="274.28"/><line class="cls-1" x1="209.44" y1="230.9" x2="208.1" y2="231.84"/><line class="cls-1" x1="208.1" y1="231.84" x2="207.31" y2="232.4"/><line class="cls-1" x1="210.19" y1="230.47" x2="210.54" y2="231.04"/><line class="cls-1" x1="206.53" y1="227.65" x2="205.78" y2="228.09"/><line class="cls-1" x1="205.78" y1="228.09" x2="204.94" y2="228.58"/><line class="cls-1" x1="204.55" y1="227.94" x2="204.59" y2="228"/><line class="cls-1" x1="204.59" y1="228" x2="204.94" y2="228.58"/><line class="cls-1" x1="204.59" y1="228" x2="204.05" y2="228.32"/><line class="cls-1" x1="204.05" y1="228.32" x2="203.84" y2="228.44"/><line class="cls-1" x1="203.84" y1="228.44" x2="204.04" y2="228.3"/><line class="cls-1" x1="204.04" y1="228.3" x2="204.55" y2="227.94"/><line class="cls-1" x1="185.03" y1="191.42" x2="183.69" y2="192.37"/><line class="cls-1" x1="183.69" y1="192.37" x2="182.9" y2="192.93"/><line class="cls-1" x1="185.78" y1="190.99" x2="186.13" y2="191.56"/><line class="cls-1" x1="182.12" y1="188.18" x2="181.37" y2="188.61"/><line class="cls-1" x1="181.37" y1="188.61" x2="180.53" y2="189.1"/><line class="cls-1" x1="180.14" y1="188.46" x2="180.18" y2="188.53"/><line class="cls-1" x1="180.18" y1="188.53" x2="180.53" y2="189.1"/><line class="cls-1" x1="180.18" y1="188.53" x2="179.64" y2="188.84"/><line class="cls-1" x1="179.64" y1="188.84" x2="179.43" y2="188.96"/><line class="cls-1" x1="179.43" y1="188.96" x2="179.63" y2="188.82"/><line class="cls-1" x1="179.63" y1="188.82" x2="180.14" y2="188.46"/><line class="cls-1" x1="156.37" y1="145.08" x2="155.03" y2="146.02"/><line class="cls-1" x1="155.03" y1="146.02" x2="154.24" y2="146.58"/><line class="cls-1" x1="157.12" y1="144.65" x2="157.47" y2="145.22"/><line class="cls-1" x1="153.46" y1="141.84" x2="152.71" y2="142.27"/><line class="cls-1" x1="152.71" y1="142.27" x2="151.87" y2="142.76"/><line class="cls-1" x1="151.48" y1="142.12" x2="151.52" y2="142.19"/><line class="cls-1" x1="151.52" y1="142.19" x2="151.87" y2="142.76"/><line class="cls-1" x1="196.41" y1="209.76" x2="196.68" y2="209.92"/><line class="cls-1" x1="196.68" y1="209.92" x2="196.94" y2="210.07"/><line class="cls-1" x1="260.94" y1="312.53" x2="263.26" y2="316.28"/><line class="cls-1" x1="236.53" y1="273.06" x2="238.85" y2="276.81"/><line class="cls-1" x1="207.87" y1="226.71" x2="210.19" y2="230.47"/><line class="cls-1" x1="183.46" y1="187.24" x2="185.78" y2="190.99"/><line class="cls-1" x1="154.8" y1="140.9" x2="157.12" y2="144.65"/><line class="cls-1" x1="250.01" y1="295.89" x2="250.55" y2="296.19"/><line class="cls-1" x1="250.55" y1="296.19" x2="251.08" y2="296.5"/><line class="cls-1" x1="251.08" y1="296.5" x2="251.61" y2="296.81"/><line class="cls-1" x1="260.46" y1="311.75" x2="260.5" y2="311.82"/><line class="cls-1" x1="236.05" y1="272.28" x2="236.09" y2="272.34"/><line class="cls-1" x1="207.82" y1="226.64" x2="207.87" y2="226.71"/><line class="cls-1" x1="182.98" y1="186.46" x2="183.02" y2="186.53"/><line class="cls-1" x1="154.75" y1="140.82" x2="154.8" y2="140.9"/><line class="cls-1" x1="249.48" y1="295.58" x2="249.75" y2="295.73"/><line class="cls-1" x1="249.75" y1="295.73" x2="250.01" y2="295.89"/><line class="cls-1" x1="260.5" y1="311.82" x2="260.89" y2="312.46"/><line class="cls-1" x1="260.89" y1="312.46" x2="260.94" y2="312.53"/><line class="cls-1" x1="236.09" y1="272.34" x2="236.48" y2="272.98"/><line class="cls-1" x1="236.48" y1="272.98" x2="236.53" y2="273.06"/><line class="cls-1" x1="207.39" y1="225.93" x2="207.43" y2="226"/><line class="cls-1" x1="207.43" y1="226" x2="207.82" y2="226.64"/><line class="cls-1" x1="183.02" y1="186.53" x2="183.41" y2="187.16"/><line class="cls-1" x1="183.41" y1="187.16" x2="183.46" y2="187.24"/><line class="cls-1" x1="154.32" y1="140.12" x2="154.36" y2="140.18"/><line class="cls-1" x1="154.36" y1="140.18" x2="154.75" y2="140.82"/><line class="cls-1" x1="274.39" y1="274.44" x2="279.73" y2="283.08"/><line class="cls-1" x1="272.19" y1="274.17" x2="272.89" y2="275.31"/><line class="cls-1" x1="272.36" y1="274.04" x2="272.54" y2="273.92"/><line class="cls-1" x1="254.79" y1="245.22" x2="272.54" y2="273.92"/><line class="cls-1" x1="240.24" y1="221.69" x2="251.61" y2="240.07"/><line class="cls-1" x1="239.09" y1="220.66" x2="239.69" y2="221.62"/><line class="cls-1" x1="240.52" y1="219.66" x2="239.09" y2="220.66"/><line class="cls-1" x1="221.32" y1="188.62" x2="240.52" y2="219.66"/><line class="cls-1" x1="219.31" y1="188.67" x2="219.82" y2="189.49"/><line class="cls-1" x1="219.47" y1="188.1" x2="219.2" y2="188.29"/><line class="cls-1" x1="201.72" y1="159.4" x2="219.47" y2="188.1"/><line class="cls-1" x1="187.17" y1="135.87" x2="198.54" y2="154.25"/><line class="cls-1" x1="186.42" y1="135.48" x2="186.02" y2="134.85"/><line class="cls-1" x1="187.44" y1="133.84" x2="186.02" y2="134.85"/><line class="cls-1" x1="168.25" y1="102.8" x2="187.44" y2="133.84"/><line class="cls-1" x1="166.04" y1="102.53" x2="166.64" y2="103.49"/><line class="cls-1" x1="166.4" y1="102.28" x2="166.04" y2="102.53"/><line class="cls-1" x1="148.65" y1="73.58" x2="166.4" y2="102.28"/><line class="cls-1" x1="198.54" y1="219.39" x2="198.54" y2="210.99"/><line class="cls-1" x1="147.06" y1="74.5" x2="164.8" y2="103.2"/><line class="cls-1" x1="164.8" y1="103.2" x2="164.45" y2="103.45"/><line class="cls-1" x1="164.8" y1="103.2" x2="166.4" y2="102.28"/><line class="cls-1" x1="164.45" y1="103.45" x2="166.04" y2="102.53"/><line class="cls-1" x1="164.45" y1="103.45" x2="165.04" y2="104.41"/><line class="cls-1" x1="166.66" y1="103.72" x2="185.85" y2="134.76"/><line class="cls-1" x1="185.85" y1="134.76" x2="184.43" y2="135.76"/><line class="cls-1" x1="185.85" y1="134.76" x2="187.44" y2="133.84"/><line class="cls-1" x1="184.43" y1="135.76" x2="186.02" y2="134.85"/><line class="cls-1" x1="184.83" y1="136.4" x2="184.43" y2="135.76"/><line class="cls-1" x1="187.17" y1="135.87" x2="186.79" y2="136.09"/><line class="cls-1" x1="185.22" y1="137.04" x2="185.58" y2="136.79"/><line class="cls-1" x1="185.58" y1="136.79" x2="186.79" y2="136.09"/><line class="cls-1" x1="185.58" y1="136.79" x2="196.94" y2="155.17"/><line class="cls-1" x1="198.54" y1="172.19" x2="198.01" y2="172.5"/><line class="cls-1" x1="196.94" y1="155.17" x2="198.54" y2="154.25"/><line class="cls-1" x1="196.94" y1="173.11" x2="196.41" y2="172.8"/><line class="cls-1" x1="196.41" y1="174.03" x2="198.01" y2="173.11"/><line class="cls-1" x1="200.66" y1="175.25" x2="200.66" y2="176.48"/><line class="cls-1" x1="200.66" y1="175.25" x2="200.13" y2="174.95"/><line class="cls-1" x1="200.13" y1="160.32" x2="201.72" y2="159.4"/><line class="cls-1" x1="200.13" y1="160.32" x2="217.88" y2="189.02"/><line class="cls-1" x1="217.88" y1="189.02" x2="219.47" y2="188.1"/><line class="cls-1" x1="217.88" y1="189.02" x2="217.61" y2="189.21"/><line class="cls-1" x1="217.72" y1="189.59" x2="218.31" y2="190.54"/><line class="cls-1" x1="217.52" y1="189.27" x2="219.11" y2="188.35"/><line class="cls-1" x1="218.31" y1="190.54" x2="219.73" y2="189.54"/><line class="cls-1" x1="219.73" y1="189.54" x2="238.92" y2="220.58"/><line class="cls-1" x1="221.32" y1="188.62" x2="219.82" y2="189.49"/><line class="cls-1" x1="238.92" y1="220.58" x2="237.5" y2="221.58"/><line class="cls-1" x1="238.92" y1="220.58" x2="240.52" y2="219.66"/><line class="cls-1" x1="237.5" y1="221.58" x2="239.09" y2="220.66"/><line class="cls-1" x1="237.5" y1="221.58" x2="238.09" y2="222.54"/><line class="cls-1" x1="240.24" y1="221.69" x2="239.86" y2="221.9"/><line class="cls-1" x1="238.29" y1="222.86" x2="238.65" y2="222.61"/><line class="cls-1" x1="238.65" y1="222.61" x2="239.86" y2="221.9"/><line class="cls-1" x1="238.65" y1="222.61" x2="250.01" y2="240.99"/><line class="cls-1" x1="251.61" y1="258.01" x2="251.08" y2="258.32"/><line class="cls-1" x1="250.01" y1="240.99" x2="251.61" y2="240.07"/><line class="cls-1" x1="253.73" y1="262.3" x2="251.61" y2="261.07"/><line class="cls-1" x1="249.48" y1="259.85" x2="251.08" y2="258.93"/><line class="cls-1" x1="253.73" y1="262.3" x2="253.73" y2="261.07"/><line class="cls-1" x1="253.2" y1="246.14" x2="254.79" y2="245.22"/><line class="cls-1" x1="253.2" y1="246.14" x2="270.95" y2="274.84"/><line class="cls-1" x1="270.95" y1="274.84" x2="272.54" y2="273.92"/><line class="cls-1" x1="270.77" y1="274.96" x2="270.95" y2="274.84"/><line class="cls-1" x1="270.59" y1="275.09" x2="271.38" y2="276.36"/><line class="cls-1" x1="270.59" y1="275.09" x2="272.19" y2="274.17"/><line class="cls-1" x1="271.38" y1="276.36" x2="272.8" y2="275.36"/><line class="cls-1" x1="278.14" y1="284" x2="279.73" y2="283.08"/><line class="cls-1" x1="272.8" y1="275.36" x2="278.14" y2="284"/><line class="cls-1" x1="274.39" y1="274.44" x2="272.89" y2="275.31"/><line class="cls-1" x1="278.14" y1="351.62" x2="253.2" y2="311.28"/><line class="cls-1" x1="253.73" y1="299.26" x2="253.46" y2="299.1"/><line class="cls-1" x1="253.73" y1="298.64" x2="253.73" y2="298.03"/><line class="cls-1" x1="253.73" y1="298.03" x2="251.61" y2="296.81"/><line class="cls-1" x1="250.55" y1="296.19" x2="249.48" y2="296.81"/><line class="cls-1" x1="250.01" y1="306.13" x2="251.61" y2="305.21"/><line class="cls-1" x1="250.01" y1="297.11" x2="251.08" y2="296.5"/><line class="cls-1" x1="250.01" y1="306.13" x2="200.13" y2="225.46"/><line class="cls-1" x1="200.66" y1="212.83" x2="200.66" y2="212.21"/><line class="cls-1" x1="197.48" y1="210.38" x2="196.41" y2="210.99"/><line class="cls-1" x1="196.94" y1="211.3" x2="196.41" y2="210.99"/><line class="cls-1" x1="196.94" y1="211.3" x2="196.94" y2="220.31"/><line class="cls-1" x1="198.54" y1="219.39" x2="196.94" y2="220.31"/><line class="cls-1" x1="196.94" y1="220.31" x2="147.06" y2="139.64"/><line class="cls-1" x1="147.06" y1="127.31" x2="147.59" y2="127.62"/><line class="cls-1" x1="147.59" y1="126.39" x2="145.46" y2="125.17"/><line class="cls-1" x1="147.06" y1="88.52" x2="145.46" y2="89.43"/><line class="cls-1" x1="147.59" y1="89.43" x2="147.59" y2="90.66"/><line class="cls-1" x1="147.59" y1="89.43" x2="147.06" y2="89.13"/><line class="cls-1" x1="147.06" y1="88.52" x2="147.06" y2="74.5"/><line class="cls-1" x1="253.2" y1="298.95" x2="253.46" y2="299.1"/><line class="cls-1" x1="253.73" y1="299.26" x2="253.73" y2="298.64"/><line class="cls-1" x1="200.13" y1="213.13" x2="200.66" y2="213.44"/><line class="cls-1" x1="200.66" y1="213.44" x2="200.66" y2="212.83"/><line class="cls-1" x1="200.66" y1="212.21" x2="198.54" y2="210.99"/><line class="cls-1" x1="147.59" y1="127.62" x2="147.59" y2="127.01"/><line class="cls-1" x1="145.46" y1="89.43" x2="147.59" y2="90.66"/><line class="cls-1" x1="165.24" y1="104.72" x2="166.66" y2="103.72"/><line class="cls-1" x1="196.41" y1="172.8" x2="196.41" y2="173.72"/><line class="cls-1" x1="196.41" y1="174.03" x2="200.66" y2="176.48"/><line class="cls-1" x1="250.01" y1="258.93" x2="249.48" y2="258.62"/><line class="cls-1" x1="249.48" y1="258.62" x2="249.48" y2="259.23"/><line class="cls-1" x1="249.48" y1="259.85" x2="251.61" y2="261.07"/><line class="cls-1" x1="253.73" y1="261.07" x2="253.2" y2="260.77"/><polygon class="cls-2" points="145.53 89.93 147.13 89.01 147.13 75 148.72 74.08 166.47 102.78 166.12 103.03 166.71 103.98 166.82 104.17 168.32 103.3 187.52 134.34 186.1 135.34 186.49 135.98 186.69 136.3 186.87 136.58 187.24 136.37 198.61 154.75 198.61 172.68 198.08 172.99 198.08 173.3 198.08 173.6 200.2 174.83 200.2 160.81 201.79 159.89 219.54 188.59 219.28 188.78 219.19 188.84 219.38 189.16 219.89 189.99 221.4 189.12 240.59 220.16 239.17 221.16 239.76 222.11 239.94 222.4 240.31 222.18 251.68 240.56 251.68 258.5 251.15 258.81 251.15 259.12 251.15 259.42 253.27 260.65 253.27 246.63 254.86 245.71 272.61 274.41 272.44 274.54 272.35 274.6 272.26 274.66 272.96 275.81 274.47 274.94 279.81 283.57 279.81 351.19 278.21 352.11 253.27 311.78 253.27 299.45 253.8 299.14 253.8 298.53 251.68 297.3 251.68 305.71 250.09 306.63 200.2 225.96 200.2 213.63 200.73 213.32 200.73 212.71 198.61 211.48 198.61 219.89 197.02 220.81 147.13 140.14 147.13 127.81 147.66 127.5 147.66 126.89 145.53 125.66 145.53 89.93"/></svg>