<svg id="Layer_1" data-name="Layer 1" xmlns="http://www.w3.org/2000/svg" viewBox="0 0 212.6 425.2"><defs><style>.cls-1{font-size:5.3px;fill:#1d1d1b;font-family:Monotxt;}.cls-2,.cls-3{fill:none;stroke:#1d1d1b;stroke-miterlimit:10;}.cls-2{stroke-width:0.5px;}.cls-3{stroke-width:0.25px;}</style></defs><g id="MTEXT"><text class="cls-1" transform="translate(152.12 232.57) rotate(-90)">COMB-G/MID-X1</text></g><g id="MTEXT-2" data-name="MTEXT"><text class="cls-1" transform="translate(63.87 184.64) rotate(90)">COMB-G/MID-X1</text></g><g id="POLYLINE"><polygon class="cls-2" points="35.24 104.69 40.58 104.69 40.58 105.59 42.45 105.59 42.45 98.31 40.58 98.31 40.58 99.21 35.24 99.21 35.24 98.31 33.36 98.31 33.36 105.59 35.24 105.59 35.24 104.69"/></g><g id="POLYLINE-2" data-name="POLYLINE"><polygon class="cls-2" points="35.24 170.2 40.58 170.2 40.58 171.1 42.45 171.1 42.45 163.82 40.58 163.82 40.58 164.72 35.24 164.72 35.24 163.82 33.36 163.82 33.36 171.1 35.24 171.1 35.24 170.2"/></g><g id="POLYLINE-3" data-name="POLYLINE"><polygon class="cls-2" points="35.24 226 40.58 226 40.58 226.91 42.45 226.91 42.45 219.62 40.58 219.62 40.58 220.52 35.24 220.52 35.24 219.62 33.36 219.62 33.36 226.91 35.24 226.91 35.24 226"/></g><g id="POLYLINE-4" data-name="POLYLINE"><polygon class="cls-2" points="35.24 291.52 40.58 291.52 40.58 292.42 42.45 292.42 42.45 285.13 40.58 285.13 40.58 286.03 35.24 286.03 35.24 285.13 33.36 285.13 33.36 292.42 35.24 292.42 35.24 291.52"/></g><g id="POLYLINE-5" data-name="POLYLINE"><polygon class="cls-2" points="35.24 347.32 40.58 347.32 40.58 348.22 42.45 348.22 42.45 340.93 40.58 340.93 40.58 341.83 35.24 341.83 35.24 340.93 33.36 340.93 33.36 348.22 35.24 348.22 35.24 347.32"/></g><g id="POLYLINE-6" data-name="POLYLINE"><polygon class="cls-2" points="184.21 104.69 178.87 104.69 178.87 105.59 177 105.59 177 98.31 178.87 98.31 178.87 99.21 184.21 99.21 184.21 98.31 186.09 98.31 186.09 105.59 184.21 105.59 184.21 104.69"/></g><g id="POLYLINE-7" data-name="POLYLINE"><polygon class="cls-2" points="184.21 170.2 178.87 170.2 178.87 171.1 177 171.1 177 163.82 178.87 163.82 178.87 164.72 184.21 164.72 184.21 163.82 186.09 163.82 186.09 171.1 184.21 171.1 184.21 170.2"/></g><g id="POLYLINE-8" data-name="POLYLINE"><polygon class="cls-2" points="184.21 226 178.87 226 178.87 226.91 177 226.91 177 219.62 178.87 219.62 178.87 220.52 184.21 220.52 184.21 219.62 186.09 219.62 186.09 226.91 184.21 226.91 184.21 226"/></g><g id="POLYLINE-9" data-name="POLYLINE"><polygon class="cls-2" points="184.21 291.52 178.87 291.52 178.87 292.42 177 292.42 177 285.13 178.87 285.13 178.87 286.03 184.21 286.03 184.21 285.13 186.09 285.13 186.09 292.42 184.21 292.42 184.21 291.52"/></g><g id="POLYLINE-10" data-name="POLYLINE"><polygon class="cls-2" points="184.21 347.32 178.87 347.32 178.87 348.22 177 348.22 177 340.93 178.87 340.93 178.87 341.83 184.21 341.83 184.21 340.93 186.09 340.93 186.09 348.22 184.21 348.22 184.21 347.32"/></g><g id="POLYLINE-11" data-name="POLYLINE"><polygon class="cls-2" points="101.28 28.8 101.28 69.25 100.38 69.25 100.38 71.13 103.98 71.13 103.98 114.92 100.38 114.92 100.38 116.8 101.28 116.8 101.28 142.73 81.71 160.35 81.1 159.69 79.71 160.94 84.58 166.36 85.98 165.1 85.38 164.43 101.28 150.11 101.28 190.56 100.38 190.56 100.38 192.44 103.98 192.44 103.98 236.24 100.38 236.24 100.38 238.12 101.28 238.12 101.28 264.04 81.71 281.67 81.1 281 79.71 282.25 84.58 287.67 85.98 286.41 85.38 285.74 101.28 271.42 101.28 311.87 100.38 311.87 100.38 313.75 103.98 313.75 103.98 325.9 30.13 392.4 30.13 335.48 43.57 323.38 44.18 324.05 45.57 322.8 40.7 317.38 39.3 318.64 39.9 319.31 30.13 328.1 30.13 214.17 43.57 202.07 44.18 202.74 45.57 201.48 40.7 196.07 39.3 197.32 39.9 197.99 30.13 206.79 30.13 92.86 43.57 80.75 44.17 81.42 45.57 80.17 43.16 77.49 82.17 42.36 84.58 45.04 85.98 43.78 85.37 43.12 101.28 28.8"/></g><g id="POLYLINE-12" data-name="POLYLINE"><polygon class="cls-2" points="118.17 28.8 118.17 69.25 119.07 69.25 119.07 71.13 115.47 71.13 115.47 114.92 119.07 114.92 119.07 116.8 118.17 116.8 118.17 142.73 137.75 160.35 138.35 159.69 139.74 160.94 134.87 166.36 133.47 165.1 134.07 164.43 118.17 150.11 118.17 190.56 119.07 190.56 119.07 192.44 115.47 192.44 115.47 236.24 119.07 236.24 119.07 238.12 118.17 238.12 118.17 264.04 137.75 281.67 138.35 281 139.74 282.25 134.87 287.67 133.47 286.41 134.07 285.74 118.17 271.42 118.17 311.87 119.07 311.87 119.07 313.75 115.47 313.75 115.47 325.9 189.32 392.4 189.32 335.48 175.88 323.38 175.28 324.05 173.88 322.8 178.75 317.38 180.15 318.64 179.55 319.31 189.32 328.1 189.32 214.17 175.88 202.07 175.28 202.74 173.88 201.48 178.75 196.07 180.15 197.32 179.55 197.99 189.32 206.79 189.32 92.86 175.88 80.75 175.28 81.42 173.88 80.17 176.29 77.49 137.28 42.36 134.87 45.04 133.47 43.78 134.08 43.12 118.17 28.8"/></g><g id="POLYLINE-13" data-name="POLYLINE"><rect class="cls-3" x="15.88" y="28.03" width="183.31" height="366.62"/></g></svg>