<svg id="Layer_1" data-name="Layer 1" xmlns="http://www.w3.org/2000/svg" viewBox="0 0 642.58 425.2"><defs><style>.cls-1{font-size:6px;fill:#1d1d1b;font-family:Monotxt;}.cls-2,.cls-3{fill:none;stroke:#1d1d1b;stroke-miterlimit:10;}.cls-2{stroke-width:0.5px;}.cls-3{stroke-width:0.25px;}</style></defs><g id="MTEXT"><text class="cls-1" transform="translate(514.03 79.63)">WINDOW-XL1/B</text></g><g id="MTEXT-2" data-name="MTEXT"><text class="cls-1" transform="translate(498.76 112.18)">&lt;PEG</text></g><g id="MTEXT-3" data-name="MTEXT"><text class="cls-1" transform="translate(498.76 101.21)">&lt;PEG</text></g><g id="MTEXT-4" data-name="MTEXT"><text class="cls-1" transform="translate(453.28 112.18)">&lt;PEG</text></g><g id="MTEXT-5" data-name="MTEXT"><text class="cls-1" transform="translate(453.28 101.21)">&lt;PEG</text></g><g id="MTEXT-6" data-name="MTEXT"><text class="cls-1" transform="translate(589.2 112.18)">&lt;PEG</text></g><g id="MTEXT-7" data-name="MTEXT"><text class="cls-1" transform="translate(589.2 101.21)">&lt;PEG</text></g><g id="MTEXT-8" data-name="MTEXT"><text class="cls-1" transform="translate(543.73 112.18)">&lt;PEG</text></g><g id="MTEXT-9" data-name="MTEXT"><text class="cls-1" transform="translate(543.73 101.21)">&lt;PEG</text></g><g id="MTEXT-10" data-name="MTEXT"><text class="cls-1" transform="translate(570.54 195.96) rotate(-90)">WINDOW-XL1/C</text></g><g id="MTEXT-11" data-name="MTEXT"><text class="cls-1" transform="translate(516.28 148.07) rotate(90)">WINDOW-XL1/C</text></g><g id="MTEXT-12" data-name="MTEXT"><text class="cls-1" transform="translate(75 63.85) rotate(90)">WINDOW-XL1/C</text></g><g id="MTEXT-13" data-name="MTEXT"><text class="cls-1" transform="translate(514.03 270.62)">WINDOW-XL1/B</text></g><g id="MTEXT-14" data-name="MTEXT"><text class="cls-1" transform="translate(472.55 195.96) rotate(-90)">WINDOW-XL1/C</text></g><g id="MTEXT-15" data-name="MTEXT"><text class="cls-1" transform="translate(300.75 112.8)">WINDOW-XL1/A</text></g><g id="MTEXT-16" data-name="MTEXT"><text class="cls-1" transform="translate(300.75 227.22)">WINDOW-XL1/A</text></g><g id="MTEXT-17" data-name="MTEXT"><text class="cls-1" transform="translate(514.13 338.86)">WINDOW-XL1/A</text></g><g id="MTEXT-18" data-name="MTEXT"><text class="cls-1" transform="translate(300.75 340.66)">WINDOW-XL1/A</text></g><g id="MTEXT-19" data-name="MTEXT"><text class="cls-1" transform="translate(331.71 39.44)">&lt;PEG</text></g><g id="MTEXT-20" data-name="MTEXT"><text class="cls-1" transform="translate(331.71 50.41)">&lt;PEG</text></g><g id="MTEXT-21" data-name="MTEXT"><text class="cls-1" transform="translate(377.19 39.44)">&lt;PEG</text></g><g id="MTEXT-22" data-name="MTEXT"><text class="cls-1" transform="translate(377.19 50.41)">&lt;PEG</text></g><g id="MTEXT-23" data-name="MTEXT"><text class="cls-1" transform="translate(241.26 39.44)">&lt;PEG</text></g><g id="MTEXT-24" data-name="MTEXT"><text class="cls-1" transform="translate(241.26 50.41)">&lt;PEG</text></g><g id="MTEXT-25" data-name="MTEXT"><text class="cls-1" transform="translate(286.74 39.44)">&lt;PEG</text></g><g id="MTEXT-26" data-name="MTEXT"><text class="cls-1" transform="translate(286.74 50.41)">&lt;PEG</text></g><g id="MTEXT-27" data-name="MTEXT"><text class="cls-1" transform="translate(178.45 233.79) rotate(-90)">WINDOW-XL1/E</text></g><g id="MTEXT-28" data-name="MTEXT"><text class="cls-1" transform="translate(124.96 188.38) rotate(90)">WINDOW-XL1/G</text></g><g id="MTEXT-29" data-name="MTEXT"><text class="cls-1" transform="translate(79.34 367.24) rotate(-90)">WINDOW-XL1/F</text></g><g id="MTEXT-30" data-name="MTEXT"><text class="cls-1" transform="translate(75.61 213.17) rotate(90)">WINDOW-XL1/D</text></g><g id="POLYLINE"><polygon class="cls-2" points="516.38 48.92 514.5 48.92 514.5 44.34 516.38 44.34 516.38 45.24 557.17 45.24 557.17 44.34 559.05 44.34 559.05 48.92 557.17 48.92 557.17 48.02 516.38 48.02 516.38 48.92"/></g><g id="POLYLINE-2" data-name="POLYLINE"><polygon class="cls-2" points="499.55 48.92 497.67 48.92 497.67 48.02 485.72 48.02 485.72 48.92 483.84 48.92 483.84 44.34 485.72 44.34 485.72 45.24 497.67 45.24 497.67 44.34 499.55 44.34 499.55 48.92"/></g><g id="POLYLINE-3" data-name="POLYLINE"><polygon class="cls-2" points="589.71 44.34 589.71 48.92 587.83 48.92 587.83 48.02 575.88 48.02 575.88 48.92 574 48.92 574 44.34 575.88 44.34 575.88 45.24 587.83 45.24 587.83 44.34 589.71 44.34"/></g><g id="POLYLINE-4" data-name="POLYLINE"><polygon class="cls-2" points="540.42 63.05 539.52 63.05 539.52 70.48 540.42 70.48 540.42 72.36 533.13 72.36 533.13 70.48 534.03 70.48 534.03 63.05 533.13 63.05 533.13 61.17 540.42 61.17 540.42 63.05"/></g><g id="POLYLINE-5" data-name="POLYLINE"><polygon class="cls-2" points="605.44 215.6 606.65 215.59 606.65 216.45 608.08 216.45 608.08 211.94 606.65 211.94 606.65 212.81 605.44 212.82 605.44 211.95 604.02 211.95 604.02 216.46 605.44 216.46 605.44 215.6"/></g><g id="POLYLINE-6" data-name="POLYLINE"><polygon class="cls-2" points="77.12 164.86 74.56 164.87 74.56 164.01 73.14 164.01 73.14 168.52 74.56 168.52 74.56 167.65 77.12 167.64 77.12 168.51 78.55 168.51 78.55 164 77.12 164 77.12 164.86"/></g><g id="POLYLINE-7" data-name="POLYLINE"><polygon class="cls-2" points="37.03 49.69 34.47 49.7 34.47 48.83 33.05 48.83 33.05 53.35 34.47 53.35 34.47 52.48 37.03 52.47 37.03 53.34 38.46 53.34 38.46 48.82 37.03 48.82 37.03 49.69"/></g><g id="POLYLINE-8" data-name="POLYLINE"><polygon class="cls-2" points="37.03 75.23 34.47 75.25 34.47 74.38 33.05 74.38 33.05 78.89 34.47 78.89 34.47 78.03 37.03 78.02 37.03 78.88 38.46 78.88 38.46 74.37 37.03 74.37 37.03 75.23"/></g><g id="POLYLINE-9" data-name="POLYLINE"><polygon class="cls-2" points="37.03 100.78 34.47 100.79 34.47 99.92 33.05 99.92 33.05 104.44 34.47 104.44 34.47 103.57 37.03 103.56 37.03 104.43 38.46 104.43 38.46 99.91 37.03 99.91 37.03 100.78"/></g><g id="POLYLINE-10" data-name="POLYLINE"><polygon class="cls-2" points="37.03 126.33 34.47 126.34 34.47 125.47 33.05 125.47 33.05 129.98 34.47 129.98 34.47 129.12 37.03 129.1 37.03 129.97 38.46 129.97 38.46 125.46 37.03 125.46 37.03 126.33"/></g><g id="POLYLINE-11" data-name="POLYLINE"><polygon class="cls-2" points="37.03 150.89 34.47 150.9 34.47 150.03 33.05 150.03 33.05 154.55 34.47 154.55 34.47 153.68 37.03 153.67 37.03 154.54 38.46 154.54 38.46 150.03 37.03 150.03 37.03 150.89"/></g><g id="POLYLINE-12" data-name="POLYLINE"><polygon class="cls-2" points="38.69 174.51 37.48 174.52 37.48 173.66 36.05 173.66 36.05 178.17 37.48 178.17 37.48 177.3 38.69 177.29 38.69 178.16 40.11 178.16 40.11 173.65 38.69 173.65 38.69 174.51"/></g><g id="POLYLINE-13" data-name="POLYLINE"><polygon class="cls-2" points="615.82 189.83 614.61 189.84 614.61 188.97 613.19 188.97 613.19 193.49 614.61 193.49 614.61 192.62 615.82 192.61 615.82 193.47 617.24 193.47 617.24 188.96 615.82 188.96 615.82 189.83"/></g><g id="POLYLINE-14" data-name="POLYLINE"><polygon class="cls-2" points="605.74 171.45 606.95 171.44 606.95 172.31 608.37 172.31 608.37 167.8 606.95 167.8 606.95 168.66 605.74 168.67 605.74 167.81 604.32 167.81 604.32 172.32 605.74 172.32 605.74 171.45"/></g><g id="POLYLINE-15" data-name="POLYLINE"><polygon class="cls-2" points="605.27 130.09 606.48 130.08 606.48 130.94 607.9 130.94 607.9 126.43 606.48 126.43 606.48 127.3 605.27 127.31 605.27 126.44 603.84 126.44 603.84 130.95 605.27 130.95 605.27 130.09"/></g><g id="POLYLINE-16" data-name="POLYLINE"><polygon class="cls-2" points="615.81 147.54 614.6 147.55 614.6 146.69 613.18 146.69 613.18 151.2 614.6 151.2 614.6 150.33 615.81 150.32 615.81 151.19 617.23 151.19 617.23 146.68 615.81 146.68 615.81 147.54"/></g><g id="POLYLINE-17" data-name="POLYLINE"><polygon class="cls-2" points="38.63 199.36 37.42 199.37 37.42 198.5 36 198.5 36 203.01 37.42 203.01 37.42 202.15 38.63 202.14 38.63 203 40.05 203 40.05 198.49 38.63 198.49 38.63 199.36"/></g><g id="POLYLINE-18" data-name="POLYLINE"><polygon class="cls-2" points="38.63 251.81 37.42 251.82 37.42 250.96 36 250.96 36 255.47 37.42 255.47 37.42 254.6 38.63 254.59 38.63 255.46 40.05 255.46 40.05 250.94 38.63 250.94 38.63 251.81"/></g><g id="POLYLINE-19" data-name="POLYLINE"><polygon class="cls-2" points="38.63 225.58 37.42 225.59 37.42 224.73 36 224.73 36 229.24 37.42 229.24 37.42 228.37 38.63 228.36 38.63 229.23 40.05 229.23 40.05 224.72 38.63 224.72 38.63 225.58"/></g><g id="POLYLINE-20" data-name="POLYLINE"><polygon class="cls-2" points="38.63 304.13 37.42 304.15 37.42 303.28 36 303.28 36 307.79 37.42 307.79 37.42 306.93 38.63 306.92 38.63 307.78 40.05 307.78 40.05 303.27 38.63 303.27 38.63 304.13"/></g><g id="POLYLINE-21" data-name="POLYLINE"><polygon class="cls-2" points="38.63 277.91 37.42 277.92 37.42 277.05 36 277.05 36 281.57 37.42 281.57 37.42 280.7 38.63 280.69 38.63 281.56 40.05 281.56 40.05 277.04 38.63 277.04 38.63 277.91"/></g><g id="POLYLINE-22" data-name="POLYLINE"><polygon class="cls-2" points="38.63 356.46 37.42 356.47 37.42 355.6 36 355.6 36 360.12 37.42 360.12 37.42 359.25 38.63 359.24 38.63 360.11 40.05 360.11 40.05 355.59 38.63 355.59 38.63 356.46"/></g><g id="POLYLINE-23" data-name="POLYLINE"><polygon class="cls-2" points="38.63 330.23 37.42 330.24 37.42 329.38 36 329.38 36 333.89 37.42 333.89 37.42 333.02 38.63 333.01 38.63 333.88 40.05 333.88 40.05 329.37 38.63 329.37 38.63 330.23"/></g><g id="POLYLINE-24" data-name="POLYLINE"><polygon class="cls-2" points="38.63 382.56 37.42 382.57 37.42 381.7 36 381.7 36 386.21 37.42 386.21 37.42 385.35 38.63 385.34 38.63 386.2 40.05 386.2 40.05 381.69 38.63 381.69 38.63 382.56"/></g><g id="POLYLINE-25" data-name="POLYLINE"><polygon class="cls-2" points="516.38 239.91 514.5 239.91 514.5 235.33 516.38 235.33 516.38 236.23 557.17 236.23 557.17 235.33 559.05 235.33 559.05 239.91 557.17 239.91 557.17 239.01 516.38 239.01 516.38 239.91"/></g><g id="POLYLINE-26" data-name="POLYLINE"><polygon class="cls-2" points="499.55 239.91 497.67 239.91 497.67 239.01 485.72 239.01 485.72 239.91 483.84 239.91 483.84 235.33 485.72 235.33 485.72 236.23 497.67 236.23 497.67 235.33 499.55 235.33 499.55 239.91"/></g><g id="POLYLINE-27" data-name="POLYLINE"><polygon class="cls-2" points="589.71 235.33 589.71 239.91 587.83 239.91 587.83 239.01 575.88 239.01 575.88 239.91 574 239.91 574 235.33 575.88 235.33 575.88 236.23 587.83 236.23 587.83 235.33 589.71 235.33"/></g><g id="POLYLINE-28" data-name="POLYLINE"><polygon class="cls-2" points="540.42 254.04 539.52 254.04 539.52 261.48 540.42 261.48 540.42 263.36 533.13 263.36 533.13 261.48 534.03 261.48 534.03 254.04 533.13 254.04 533.13 252.16 540.42 252.16 540.42 254.04"/></g><g id="POLYLINE-29" data-name="POLYLINE"><polygon class="cls-2" points="520.88 382.14 520.88 380.26 528.17 380.26 528.17 382.14 527.27 382.14 527.27 387.48 528.17 387.48 528.17 389.36 520.88 389.36 520.88 387.48 521.79 387.48 521.79 382.14 520.88 382.14"/></g><g id="POLYLINE-30" data-name="POLYLINE"><polygon class="cls-2" points="618.33 382.14 617.43 382.14 617.43 387.48 618.33 387.48 618.33 389.36 611.04 389.36 611.04 387.48 611.95 387.48 611.95 382.14 611.04 382.14 611.04 380.26 618.33 380.26 618.33 382.14"/></g><g id="POLYLINE-31" data-name="POLYLINE"><polygon class="cls-2" points="546.43 382.14 545.53 382.14 545.53 380.26 552.82 380.26 552.82 382.14 551.91 382.14 551.91 387.48 552.82 387.48 552.82 389.36 545.53 389.36 545.53 387.48 546.43 387.48 546.43 382.14"/></g><g id="POLYLINE-32" data-name="POLYLINE"><polygon class="cls-2" points="462.66 382.14 461.75 382.14 461.75 387.48 462.66 387.48 462.66 389.36 455.37 389.36 455.37 387.48 456.27 387.48 456.27 382.14 455.37 382.14 455.37 380.26 462.66 380.26 462.66 382.14"/></g><g id="POLYLINE-33" data-name="POLYLINE"><polygon class="cls-2" points="249.28 383.94 248.38 383.94 248.38 389.28 249.28 389.28 249.28 391.16 241.99 391.16 241.99 389.28 242.89 389.28 242.89 383.94 241.99 383.94 241.99 382.07 249.28 382.07 249.28 383.94"/></g><g id="POLYLINE-34" data-name="POLYLINE"><polygon class="cls-2" points="333.05 383.94 332.15 383.94 332.15 382.07 339.44 382.07 339.44 383.94 338.54 383.94 338.54 389.28 339.44 389.28 339.44 391.16 332.15 391.16 332.15 389.28 333.05 389.28 333.05 383.94"/></g><g id="POLYLINE-35" data-name="POLYLINE"><polygon class="cls-2" points="404.95 383.94 404.05 383.94 404.05 389.28 404.95 389.28 404.95 391.16 397.67 391.16 397.67 389.28 398.57 389.28 398.57 383.94 397.67 383.94 397.67 382.07 404.95 382.07 404.95 383.94"/></g><g id="POLYLINE-36" data-name="POLYLINE"><polygon class="cls-2" points="307.5 383.94 307.5 382.07 314.79 382.07 314.79 383.94 313.89 383.94 313.89 389.28 314.79 389.28 314.79 391.16 307.5 391.16 307.5 389.28 308.41 389.28 308.41 383.94 307.5 383.94"/></g><g id="POLYLINE-37" data-name="POLYLINE"><polygon class="cls-2" points="339.44 180.18 339.44 182.06 332.15 182.06 332.15 180.18 333.05 180.18 333.05 174.85 332.15 174.85 332.15 172.97 339.44 172.97 339.44 174.85 338.54 174.85 338.54 180.18 339.44 180.18"/></g><g id="POLYLINE-38" data-name="POLYLINE"><polygon class="cls-2" points="241.99 180.18 242.89 180.18 242.89 174.85 241.99 174.85 241.99 172.97 249.28 172.97 249.28 174.85 248.38 174.85 248.38 180.18 249.28 180.18 249.28 182.06 241.99 182.06 241.99 180.18"/></g><g id="POLYLINE-39" data-name="POLYLINE"><polygon class="cls-2" points="313.89 180.18 314.79 180.18 314.79 182.06 307.5 182.06 307.5 180.18 308.41 180.18 308.41 174.85 307.5 174.85 307.5 172.97 314.79 172.97 314.79 174.85 313.89 174.85 313.89 180.18"/></g><g id="POLYLINE-40" data-name="POLYLINE"><polygon class="cls-2" points="397.67 180.18 398.57 180.18 398.57 174.85 397.67 174.85 397.67 172.97 404.95 172.97 404.95 174.85 404.05 174.85 404.05 180.18 404.95 180.18 404.95 182.06 397.67 182.06 397.67 180.18"/></g><g id="POLYLINE-41" data-name="POLYLINE"><polygon class="cls-2" points="339.44 65.75 339.44 67.63 332.15 67.63 332.15 65.75 333.05 65.75 333.05 60.42 332.15 60.42 332.15 58.54 339.44 58.54 339.44 60.42 338.54 60.42 338.54 65.75 339.44 65.75"/></g><g id="POLYLINE-42" data-name="POLYLINE"><polygon class="cls-2" points="241.99 65.75 242.89 65.75 242.89 60.42 241.99 60.42 241.99 58.54 249.28 58.54 249.28 60.42 248.38 60.42 248.38 65.75 249.28 65.75 249.28 67.63 241.99 67.63 241.99 65.75"/></g><g id="POLYLINE-43" data-name="POLYLINE"><polygon class="cls-2" points="313.89 65.75 314.79 65.75 314.79 67.63 307.5 67.63 307.5 65.75 308.41 65.75 308.41 60.42 307.5 60.42 307.5 58.54 314.79 58.54 314.79 60.42 313.89 60.42 313.89 65.75"/></g><g id="POLYLINE-44" data-name="POLYLINE"><polygon class="cls-2" points="397.67 65.75 398.57 65.75 398.57 60.42 397.67 60.42 397.67 58.54 404.95 58.54 404.95 60.42 404.05 60.42 404.05 65.75 404.95 65.75 404.95 67.63 397.67 67.63 397.67 65.75"/></g><g id="POLYLINE-45" data-name="POLYLINE"><polygon class="cls-2" points="94.58 361.28 94.58 360.38 96.45 360.38 96.45 377.29 94.58 377.29 94.58 376.38 92.77 376.38 92.77 374.51 93.67 374.51 93.67 363.16 92.77 363.16 92.77 361.28 94.58 361.28"/></g><g id="POLYLINE-46" data-name="POLYLINE"><polygon class="cls-2" points="94.58 331.31 92.77 331.31 92.77 329.43 93.67 329.43 93.67 318.08 92.77 318.08 92.77 316.2 94.58 316.2 94.58 315.3 96.45 315.3 96.45 332.21 94.58 332.21 94.58 331.31"/></g><g id="POLYLINE-47" data-name="POLYLINE"><polygon class="cls-2" points="144.16 91.1 142.36 91.1 142.36 92.98 143.26 92.98 143.26 104.32 142.36 104.32 142.36 106.2 144.16 106.2 144.16 107.1 146.04 107.1 146.04 90.2 144.16 90.2 144.16 91.1"/></g><g id="POLYLINE-48" data-name="POLYLINE"><polygon class="cls-2" points="144.16 61.12 144.16 62.02 146.04 62.02 146.04 45.12 144.16 45.12 144.16 46.02 142.36 46.02 142.36 47.9 143.26 47.9 143.26 59.24 142.36 59.24 142.36 61.12 144.16 61.12"/></g><g id="POLYLINE-49" data-name="POLYLINE"><polygon class="cls-2" points="144.16 136.18 142.36 136.18 142.36 138.06 143.26 138.06 143.26 141.89 142.36 141.89 142.36 143.77 144.16 143.77 144.16 144.67 146.04 144.67 146.04 135.28 144.16 135.28 144.16 136.18"/></g><g id="POLYLINE-50" data-name="POLYLINE"><polygon class="cls-2" points="144.16 376.68 142.36 376.68 142.36 374.8 143.26 374.8 143.26 370.97 142.36 370.97 142.36 369.09 144.16 369.09 144.16 368.19 146.04 368.19 146.04 377.58 144.16 377.58 144.16 376.68"/></g><g id="POLYLINE-51" data-name="POLYLINE"><path class="cls-2" d="M144.69,125v-7.52a.72.72,0,0,0-1.43,0V125a.72.72,0,0,0,1.43,0Z"/></g><g id="POLYLINE-52" data-name="POLYLINE"><path class="cls-2" d="M104.34,125a.72.72,0,0,0,1.43,0v-7.52a.72.72,0,0,0-1.43,0Z"/></g><g id="POLYLINE-53" data-name="POLYLINE"><polygon class="cls-2" points="159.27 91.1 161.07 91.1 161.07 92.98 160.17 92.98 160.17 104.32 161.07 104.32 161.07 106.2 159.27 106.2 159.27 107.1 157.39 107.1 157.39 90.2 159.27 90.2 159.27 91.1"/></g><g id="POLYLINE-54" data-name="POLYLINE"><polygon class="cls-2" points="159.27 61.12 159.27 62.02 157.39 62.02 157.39 45.12 159.27 45.12 159.27 46.02 161.07 46.02 161.07 47.9 160.17 47.9 160.17 59.24 161.07 59.24 161.07 61.12 159.27 61.12"/></g><g id="POLYLINE-55" data-name="POLYLINE"><polygon class="cls-2" points="159.27 136.18 161.07 136.18 161.07 138.06 160.17 138.06 160.17 141.89 161.07 141.89 161.07 143.77 159.27 143.77 159.27 144.67 157.39 144.67 157.39 135.28 159.27 135.28 159.27 136.18"/></g><g id="POLYLINE-56" data-name="POLYLINE"><polygon class="cls-2" points="159.27 376.68 161.07 376.68 161.07 374.8 160.17 374.8 160.17 370.97 161.07 370.97 161.07 369.09 159.27 369.09 159.27 368.19 157.39 368.19 157.39 377.58 159.27 377.58 159.27 376.68"/></g><g id="POLYLINE-57" data-name="POLYLINE"><path class="cls-2" d="M158.74,125v-7.52a.72.72,0,0,1,1.43,0V125a.72.72,0,0,1-1.43,0Z"/></g><g id="POLYLINE-58" data-name="POLYLINE"><path class="cls-2" d="M199.09,125a.72.72,0,0,1-1.43,0v-7.52a.72.72,0,0,1,1.43,0Z"/></g><g id="POLYLINE-59" data-name="POLYLINE"><polygon class="cls-2" points="94.58 249.15 92.77 249.15 92.77 251.03 93.67 251.03 93.67 262.38 92.77 262.38 92.77 264.25 94.58 264.25 94.58 265.15 96.45 265.15 96.45 248.25 94.58 248.25 94.58 249.15"/></g><g id="POLYLINE-60" data-name="POLYLINE"><polygon class="cls-2" points="94.58 219.17 94.58 220.07 96.45 220.07 96.45 203.17 94.58 203.17 94.58 204.07 92.77 204.07 92.77 205.95 93.67 205.95 93.67 217.29 92.77 217.29 92.77 219.17 94.58 219.17"/></g><g id="POLYLINE-61" data-name="POLYLINE"><polygon class="cls-2" points="467.01 44.34 468.89 44.34 468.89 48.92 467.01 48.92 467.01 48.02 449.36 48.02 449.36 61.17 450.26 61.17 450.26 63.05 448 63.05 448 70.48 450.26 70.48 450.26 72.36 449.36 72.36 449.36 85.51 467.01 85.51 467.01 84.61 468.89 84.61 468.89 88.22 483.84 88.22 483.84 84.61 485.72 84.61 485.72 85.51 497.67 85.51 497.67 84.61 499.55 84.61 499.55 88.22 514.5 88.22 514.5 84.61 516.38 84.61 516.38 85.51 557.17 85.51 557.17 84.61 559.05 84.61 559.05 88.22 574 88.22 574 84.61 575.88 84.61 575.88 85.51 587.83 85.51 587.83 84.61 589.71 84.61 589.71 88.22 604.66 88.22 604.66 84.61 606.54 84.61 606.54 85.51 624.19 85.51 624.19 72.36 623.29 72.36 623.29 70.48 625.55 70.48 625.55 63.05 623.29 63.05 623.29 61.17 624.19 61.17 624.19 48.02 606.54 48.02 606.54 48.92 604.66 48.92 604.66 44.34 606.54 44.34 606.54 45.24 624.19 45.24 624.19 40.51 449.36 40.51 449.36 45.24 467.01 45.24 467.01 44.34"/></g><g id="POLYLINE-62" data-name="POLYLINE"><path class="cls-2" d="M617.34,203.42a.86.86,0,0,1,.36-.07.9.9,0,0,1,.9.9v6.94a3,3,0,0,1,0,6v6.94a.86.86,0,0,1-.08.36.89.89,0,0,1-1.18.47l-9.26-4h-5.41V207.43h5.41l9.26-4Z"/></g><g id="POLYLINE-63" data-name="POLYLINE"><path class="cls-2" d="M89.06,176.21a.89.89,0,0,1-.07.36.9.9,0,0,1-1.19.47l-9.26-4h-5.4l-9.26,4a.92.92,0,0,1-.36.07.9.9,0,0,1-.9-.9v-6.94a3,3,0,1,1,0-6v-6.94a.86.86,0,0,1,.07-.36.9.9,0,0,1,1.19-.47l9.26,4h5.4l9.26-4a.94.94,0,0,1,.36-.08.9.9,0,0,1,.9.91v6.94a3,3,0,1,1,0,6Z"/></g><g id="POLYLINE-64" data-name="POLYLINE"><path class="cls-2" d="M49,61a.92.92,0,0,1-.07.36.91.91,0,0,1-1.19.46l-9.25-4H33.05l-9.26,4a.94.94,0,0,1-.36.08.9.9,0,0,1-.9-.9V54.1a3,3,0,1,1,0-6V41.14a.92.92,0,0,1,.07-.36.91.91,0,0,1,1.19-.46l9.26,4h5.41l9.25-4a.94.94,0,0,1,.36-.08.9.9,0,0,1,.9.9v6.94a3,3,0,0,1,0,6Z"/></g><g id="POLYLINE-65" data-name="POLYLINE"><path class="cls-2" d="M49,86.58a.86.86,0,0,1-.07.36.9.9,0,0,1-1.19.47l-9.25-4H33.05l-9.26,4a.92.92,0,0,1-.36.07.9.9,0,0,1-.9-.9V79.64a3,3,0,1,1,0-6V66.69a.86.86,0,0,1,.07-.36.9.9,0,0,1,1.19-.47l9.26,4h5.41l9.25-4a.92.92,0,0,1,.36-.07.9.9,0,0,1,.9.9v6.94a3,3,0,1,1,0,6Z"/></g><g id="POLYLINE-66" data-name="POLYLINE"><path class="cls-2" d="M49,112.13a.92.92,0,0,1-.07.36.91.91,0,0,1-1.19.46l-9.25-4H33.05l-9.26,4a.94.94,0,0,1-.36.08.9.9,0,0,1-.9-.9v-6.94a3,3,0,1,1,0-6v-7a.84.84,0,0,1,.07-.35.9.9,0,0,1,1.19-.47l9.26,4h5.41l9.25-4a.94.94,0,0,1,.36-.08.9.9,0,0,1,.9.9v7a3,3,0,1,1,0,6Z"/></g><g id="POLYLINE-67" data-name="POLYLINE"><path class="cls-2" d="M49,137.67a.86.86,0,0,1-.07.36.9.9,0,0,1-1.19.47l-9.25-4H33.05l-9.26,4a.92.92,0,0,1-.36.07.9.9,0,0,1-.9-.9v-6.94a3,3,0,1,1,0-6v-6.94a.89.89,0,0,1,.07-.36.9.9,0,0,1,1.19-.47l9.26,4h5.41l9.25-4a.92.92,0,0,1,.36-.07.9.9,0,0,1,.9.9v6.94a3,3,0,1,1,0,6Z"/></g><g id="POLYLINE-68" data-name="POLYLINE"><path class="cls-2" d="M49,162.24a.9.9,0,0,1-1.26.83l-9.25-4H33.05l-9.26,4a1.15,1.15,0,0,1-.36.07.9.9,0,0,1-.9-.9V155.3a3,3,0,1,1,0-6v-6.95a.84.84,0,0,1,.07-.35.9.9,0,0,1,1.19-.47l9.26,4h5.41l9.25-4a.94.94,0,0,1,.36-.08.9.9,0,0,1,.9.9v6.95a3,3,0,1,1,0,6Z"/></g><g id="POLYLINE-69" data-name="POLYLINE"><path class="cls-2" d="M26.79,186.69a.84.84,0,0,1-.35.07.9.9,0,0,1-.91-.9v-6.94a3,3,0,0,1,0-6V166a.86.86,0,0,1,.08-.36.89.89,0,0,1,1.18-.47l9.26,4h5.41v13.52H36.05l-9.26,4Z"/></g><g id="POLYLINE-70" data-name="POLYLINE"><path class="cls-2" d="M603.93,202a.89.89,0,0,1-1.26-.83v-6.94a3,3,0,1,1,0-6v-6.94a.9.9,0,0,1,1.26-.83l9.26,4h5.41V198h-5.41l-9.26,4Z"/></g><g id="POLYLINE-71" data-name="POLYLINE"><path class="cls-2" d="M617.63,159.28a.91.91,0,0,1,1.26.83v6.94a3,3,0,1,1,0,6V180a.89.89,0,0,1-.07.36.9.9,0,0,1-1.19.47l-9.26-4H603V163.29h5.41l9.26-4Z"/></g><g id="POLYLINE-72" data-name="POLYLINE"><path class="cls-2" d="M617.16,117.91a.86.86,0,0,1,.36-.07.9.9,0,0,1,.9.9v6.94a3,3,0,0,1,0,6v6.94a.86.86,0,0,1-.08.36.89.89,0,0,1-1.18.47l-9.26-4h-5.41V121.92h5.41l9.26-4Z"/></g><g id="POLYLINE-73" data-name="POLYLINE"><path class="cls-2" d="M603.92,159.72a.92.92,0,0,1-.36.07.9.9,0,0,1-.9-.9V152a3,3,0,1,1,0-6V139a.86.86,0,0,1,.07-.36.9.9,0,0,1,1.19-.47l9.26,4h5.41V155.7h-5.41l-9.26,4Z"/></g><g id="POLYLINE-74" data-name="POLYLINE"><path class="cls-2" d="M492.81,104.52a.9.9,0,0,0-.9.9v7.22a.91.91,0,0,0,.9.9l42.1.07v-9.16Z"/></g><g id="POLYLINE-75" data-name="POLYLINE"><path class="cls-2" d="M492.81,93.55a.9.9,0,0,0-.9.9v7.22a.91.91,0,0,0,.9.9l42.1.07V93.48Z"/></g><g id="POLYLINE-76" data-name="POLYLINE"><path class="cls-2" d="M447.34,104.52a.9.9,0,0,0-.9.9v7.22a.9.9,0,0,0,.9.9l42.09.07v-9.16Z"/></g><g id="POLYLINE-77" data-name="POLYLINE"><path class="cls-2" d="M447.34,93.55a.9.9,0,0,0-.9.9v7.22a.9.9,0,0,0,.9.9l42.09.07V93.48Z"/></g><g id="POLYLINE-78" data-name="POLYLINE"><path class="cls-2" d="M583.26,104.52a.9.9,0,0,0-.9.9v7.22a.9.9,0,0,0,.9.9l42.1.07v-9.16Z"/></g><g id="POLYLINE-79" data-name="POLYLINE"><path class="cls-2" d="M583.26,93.55a.9.9,0,0,0-.9.9v7.22a.9.9,0,0,0,.9.9l42.1.07V93.48Z"/></g><g id="POLYLINE-80" data-name="POLYLINE"><path class="cls-2" d="M537.78,104.52a.9.9,0,0,0-.9.9v7.22a.91.91,0,0,0,.9.9l42.1.07v-9.16Z"/></g><g id="POLYLINE-81" data-name="POLYLINE"><path class="cls-2" d="M537.78,93.55a.9.9,0,0,0-.9.9v7.22a.91.91,0,0,0,.9.9l42.1.07V93.48Z"/></g><g id="POLYLINE-82" data-name="POLYLINE"><polygon class="cls-2" points="553.49 211.5 553.49 213.38 548.9 213.38 548.9 211.5 549.8 211.5 549.8 118.41 545.07 118.41 545.07 228.33 562.95 228.33 562.95 224.72 564.83 224.72 564.83 225.62 579.18 225.62 579.18 224.72 581.06 224.72 581.06 228.33 592.78 228.33 592.78 213.38 589.17 213.38 589.17 211.5 590.08 211.5 590.08 118.41 578.73 118.41 578.73 119.31 576.85 119.31 576.85 115.7 565.81 115.7 565.81 119.31 564.23 119.31 564.23 118.41 552.58 118.41 552.58 211.5 553.49 211.5"/></g><g id="POLYLINE-83" data-name="POLYLINE"><polygon class="cls-2" points="533.34 132.53 533.34 130.65 537.92 130.65 537.92 132.53 537.02 132.53 537.02 225.62 541.75 225.62 541.75 115.7 523.87 115.7 523.87 119.31 521.99 119.31 521.99 118.41 507.64 118.41 507.64 119.31 505.76 119.31 505.76 115.7 494.04 115.7 494.04 130.65 497.65 130.65 497.65 132.53 496.75 132.53 496.75 225.62 508.09 225.62 508.09 224.72 509.97 224.72 509.97 228.33 521.01 228.33 521.01 224.72 522.59 224.72 522.59 225.62 534.24 225.62 534.24 132.53 533.34 132.53"/></g><g id="POLYLINE-84" data-name="POLYLINE"><path class="cls-2" d="M26.74,211.53a.94.94,0,0,1-.36.08.9.9,0,0,1-.9-.91v-6.94a3,3,0,1,1,0-6v-6.94a.9.9,0,0,1,1.26-.83L36,194h5.41v13.52H36l-9.26,4Z"/></g><g id="POLYLINE-85" data-name="POLYLINE"><path class="cls-2" d="M26.74,264a1.15,1.15,0,0,1-.36.07.9.9,0,0,1-.9-.9v-6.94a3,3,0,1,1,0-6v-7a.84.84,0,0,1,.07-.35.9.9,0,0,1,1.19-.47l9.26,4h5.41V260H36l-9.26,4Z"/></g><g id="POLYLINE-86" data-name="POLYLINE"><path class="cls-2" d="M26.74,237.76a.92.92,0,0,1-.36.07.9.9,0,0,1-.9-.9V230a3,3,0,1,1,0-6V217a.86.86,0,0,1,.07-.36.9.9,0,0,1,1.19-.47l9.26,4h5.41v13.53H36l-9.26,4Z"/></g><g id="POLYLINE-87" data-name="POLYLINE"><path class="cls-2" d="M26.74,316.31a.92.92,0,0,1-.36.07.9.9,0,0,1-.9-.9v-6.94a3,3,0,1,1,0-6v-6.94a.89.89,0,0,1,.07-.36.9.9,0,0,1,1.19-.47l9.26,4h5.41V312.3H36l-9.26,4Z"/></g><g id="POLYLINE-88" data-name="POLYLINE"><path class="cls-2" d="M26.74,290.08a.94.94,0,0,1-.36.08.9.9,0,0,1-.9-.9v-6.95a3,3,0,1,1,0-6v-6.94a.9.9,0,0,1,1.26-.83l9.26,4h5.41v13.52H36l-9.26,4Z"/></g><g id="POLYLINE-89" data-name="POLYLINE"><path class="cls-2" d="M26.74,368.63a.94.94,0,0,1-.36.08.9.9,0,0,1-.9-.9v-6.94a3,3,0,1,1,0-6v-6.95a.84.84,0,0,1,.07-.35.9.9,0,0,1,1.19-.47l9.26,4h5.41v13.52H36l-9.26,4Z"/></g><g id="POLYLINE-90" data-name="POLYLINE"><path class="cls-2" d="M26.74,342.41a.92.92,0,0,1-.36.07.9.9,0,0,1-.9-.9v-6.94a3,3,0,1,1,0-6v-6.94a.86.86,0,0,1,.07-.36.9.9,0,0,1,1.19-.47l9.26,4h5.41V338.4H36l-9.26,4Z"/></g><g id="POLYLINE-91" data-name="POLYLINE"><path class="cls-2" d="M26.74,394.73a.94.94,0,0,1-.36.08.9.9,0,0,1-.9-.9v-7a3,3,0,1,1,0-6V374a.9.9,0,0,1,1.26-.83l9.26,4h5.41v13.52H36l-9.26,4Z"/></g><g id="POLYLINE-92" data-name="POLYLINE"><polygon class="cls-2" points="92.05 48.31 92.05 46.43 96.63 46.43 96.63 48.31 95.73 48.31 95.73 141.4 100.47 141.4 100.47 31.48 82.58 31.48 82.58 35.08 80.71 35.08 80.71 34.18 66.36 34.18 66.36 35.08 64.48 35.08 64.48 31.48 52.76 31.48 52.76 46.43 56.36 46.43 56.36 48.31 55.46 48.31 55.46 141.4 66.81 141.4 66.81 140.5 68.68 140.5 68.68 144.1 79.73 144.1 79.73 140.5 81.31 140.5 81.31 141.4 92.95 141.4 92.95 48.31 92.05 48.31"/></g><g id="POLYLINE-93" data-name="POLYLINE"><polygon class="cls-2" points="455.5 211.5 455.5 213.38 450.91 213.38 450.91 211.5 451.81 211.5 451.81 118.41 447.08 118.41 447.08 228.33 464.96 228.33 464.96 224.72 466.84 224.72 466.84 225.62 481.19 225.62 481.19 224.72 483.07 224.72 483.07 228.33 494.79 228.33 494.79 213.38 491.19 213.38 491.19 211.5 492.09 211.5 492.09 118.41 480.74 118.41 480.74 119.31 478.86 119.31 478.86 115.7 467.82 115.7 467.82 119.31 466.24 119.31 466.24 118.41 454.6 118.41 454.6 211.5 455.5 211.5"/></g><g id="POLYLINE-94" data-name="POLYLINE"><polygon class="cls-2" points="467.01 235.33 468.89 235.33 468.89 239.91 467.01 239.91 467.01 239.01 449.36 239.01 449.36 252.16 450.26 252.16 450.26 254.04 448 254.04 448 261.48 450.26 261.48 450.26 263.36 449.36 263.36 449.36 276.5 467.01 276.5 467.01 275.6 468.89 275.6 468.89 279.21 483.84 279.21 483.84 275.6 485.72 275.6 485.72 276.5 497.67 276.5 497.67 275.6 499.55 275.6 499.55 279.21 514.5 279.21 514.5 275.6 516.38 275.6 516.38 276.5 557.17 276.5 557.17 275.6 559.05 275.6 559.05 279.21 574 279.21 574 275.6 575.88 275.6 575.88 276.5 587.83 276.5 587.83 275.6 589.71 275.6 589.71 279.21 604.66 279.21 604.66 275.6 606.54 275.6 606.54 276.5 624.19 276.5 624.19 263.36 623.29 263.36 623.29 261.48 625.55 261.48 625.55 254.04 623.29 254.04 623.29 252.16 624.19 252.16 624.19 239.01 606.54 239.01 606.54 239.91 604.66 239.91 604.66 235.33 606.54 235.33 606.54 236.23 624.19 236.23 624.19 231.5 449.36 231.5 449.36 236.23 467.01 236.23 467.01 235.33"/></g><g id="POLYLINE-95" data-name="POLYLINE"><path class="cls-2" d="M624.27,341.93v-6.37h-.9v-1.88H627V318.73h-3.6v-1.88h.9v-7.59h-.9v-1.88H627V300h-3.6v-1.88h.9v-7.59h-.9V288.6H627v-7.44H604.81v3.61h-1.88v-.9H591.59v.9h-1.88v-3.61H574.15v3.61h-1.87v-.9H560.93v.9h-1.88v-3.61h-44.4v3.61h-1.88v-.9H501.43v.9h-1.88v-3.61H484v3.61h-1.87v-.9H470.77v.9h-1.88v-3.61H446.73v7.44h3.6v1.88h-.9v7.59h.9V300h-3.6v7.43h3.6v1.88h-.9v7.59h.9v1.88h-3.6v14.95h3.6v1.88h-.9v6.37l9.21-4h0a.93.93,0,0,1,1.31.86v19.89a.84.84,0,0,1-.08.38.93.93,0,0,1-1.23.48l-9.21-4v6.37h.9v1.88h-3.6v14.95h3.6v1.88h-.9v13.15h27.28v-3.61h1.87v.9H505v-.9h1.87v3.61h27.28V380.64h-.9v-1.88h7.28v1.88h-.9v13.15h27.28v-3.61h1.88v.9h26.37v-.9H597v3.61h27.27V380.64h-.9v-1.88H627V363.81h-3.6v-1.88h.9v-6.37l-9.21,4h0a.77.77,0,0,1-.37.08.94.94,0,0,1-.94-.94V338.8a1,1,0,0,1,.08-.38.93.93,0,0,1,1.23-.48Z"/></g><g id="POLYLINE-96" data-name="POLYLINE"><path class="cls-2" d="M410.89,343.73v-6.37H410v-1.88h3.6v-15H410v-1.88h.9v-7.59H410v-1.87h3.6v-7.44H410v-1.88h.9v-7.59H410V290.4h3.6V283H391.43v3.61h-1.88v-.9H378.21v.9h-1.88V283H360.77v3.61H358.9v-.9H347.55v.9h-1.88V283h-44.4v3.61h-1.88v-.9H288.05v.9h-1.88V283H270.61v3.61h-1.87v-.9H257.39v.9h-1.88V283H233.35v7.44H237v1.88h-.9v7.59h.9v1.88h-3.6v7.44H237v1.87h-.9v7.59h.9v1.88h-3.6v15H237v1.88h-.9v6.37l9.21-4h0a.93.93,0,0,1,1.31.86v19.89a.84.84,0,0,1-.08.38.94.94,0,0,1-1.23.49l-9.21-4v6.36h.9v1.88h-3.6v14.95H237v1.88h-.9v13.15h27.28V392h1.87v.91h26.38V392h1.88v3.61h27.27V382.44h-.9v-1.88h7.29v1.88h-.91v13.15h27.28V392h1.88v.91h26.37V392h1.88v3.61h27.27V382.44H410v-1.88h3.6V365.61H410v-1.88h.9v-6.36l-9.21,4h0a.9.9,0,0,1-.37.07.94.94,0,0,1-.94-.94V340.6a.91.91,0,0,1,.08-.37.93.93,0,0,1,1.23-.49Z"/></g><g id="POLYLINE-97" data-name="POLYLINE"><path class="cls-2" d="M325.77,31.78a.9.9,0,0,0-.9.91V39.9a.9.9,0,0,0,.9.9l42.1.08V31.71Z"/></g><g id="POLYLINE-98" data-name="POLYLINE"><path class="cls-2" d="M325.77,42.75a.9.9,0,0,0-.9.91v7.21a.9.9,0,0,0,.9.9l42.1.08V42.68Z"/></g><g id="POLYLINE-99" data-name="POLYLINE"><path class="cls-2" d="M371.24,31.78a.91.91,0,0,0-.9.91V39.9a.9.9,0,0,0,.9.9l42.1.08V31.71Z"/></g><g id="POLYLINE-100" data-name="POLYLINE"><path class="cls-2" d="M371.24,42.75a.91.91,0,0,0-.9.91v7.21a.9.9,0,0,0,.9.9l42.1.08V42.68Z"/></g><g id="POLYLINE-101" data-name="POLYLINE"><path class="cls-2" d="M235.32,31.78a.9.9,0,0,0-.9.91V39.9a.9.9,0,0,0,.9.9l42.1.08V31.71Z"/></g><g id="POLYLINE-102" data-name="POLYLINE"><path class="cls-2" d="M235.32,42.75a.9.9,0,0,0-.9.91v7.21a.9.9,0,0,0,.9.9l42.1.08V42.68Z"/></g><g id="POLYLINE-103" data-name="POLYLINE"><path class="cls-2" d="M280.8,31.78a.9.9,0,0,0-.9.91V39.9a.9.9,0,0,0,.9.9l42.09.08V31.71Z"/></g><g id="POLYLINE-104" data-name="POLYLINE"><path class="cls-2" d="M280.8,42.75a.9.9,0,0,0-.9.91v7.21a.9.9,0,0,0,.9.9l42.09.08V42.68Z"/></g><g id="POLYLINE-105" data-name="POLYLINE"><path class="cls-2" d="M236.05,220.4v6.36h.9v1.88h-3.6v15H237v1.88h-.9v7.59h.9v1.88h-3.6v7.44H237v1.88h-.9v7.58h.9v1.88h-3.6v7.44h22.16v-3.61h1.88v.91h11.35v-.91h1.87v3.61h15.56v-3.61h1.88v.91h11.34v-.91h1.88v3.61h44.4v-3.61h1.88v.91H358.9v-.91h1.87v3.61h15.56v-3.61h1.88v.91h11.34v-.91h1.88v3.61h22.16v-7.44H410v-1.88h.9v-7.58H410v-1.88h3.6v-7.44H410v-1.88h.9v-7.59H410v-1.88h3.6v-15H410v-1.88h.9V220.4l-9.21,4h0a.9.9,0,0,1-.37.07.94.94,0,0,1-.94-.93v-19.9a1,1,0,0,1,.08-.37.93.93,0,0,1,1.23-.49l9.21,4v-6.37H410v-1.88h3.6V183.56H410v-1.88h.9V168.54H383.62v3.6h-1.88v-.9H355.37v.9h-1.88v-3.6H326.21v13.14h.91v1.88h-7.29v-1.88h.9V168.54H293.46v3.6h-1.88v-.9H265.2v.9h-1.87v-3.6H236.05v13.14h.9v1.88h-3.6v14.95H237v1.88h-.9v6.37l9.21-4h0a.93.93,0,0,1,1.31.86v19.9a.83.83,0,0,1-.08.37.94.94,0,0,1-1.23.49Z"/></g><g id="POLYLINE-106" data-name="POLYLINE"><path class="cls-2" d="M236.05,106v6.37h.9v1.87h-3.6v15H237V131h-.9v7.59h.9v1.88h-3.6V148H237v1.88h-.9v7.59h.9v1.87h-3.6v7.44h22.16v-3.6h1.88v.9h11.35v-.9h1.87v3.6h15.56v-3.6h1.88v.9h11.34v-.9h1.88v3.6h44.4v-3.6h1.88v.9H358.9v-.9h1.87v3.6h15.56v-3.6h1.88v.9h11.34v-.9h1.88v3.6h22.16v-7.44H410v-1.87h.9v-7.59H410V148h3.6v-7.44H410v-1.88h.9V131H410v-1.87h3.6v-15H410v-1.87h.9V106l-9.21,4h0a.91.91,0,0,1-.37.08.94.94,0,0,1-.94-.94V89.2a1,1,0,0,1,.08-.37.93.93,0,0,1,1.23-.49l9.21,4V86H410V84.09h3.6v-15H410V67.26h.9V54.11H383.62v3.6h-1.88v-.9H355.37v.9h-1.88v-3.6H326.21V67.26h.91v1.87h-7.29V67.26h.9V54.11H293.46v3.6h-1.88v-.9H265.2v.9h-1.87v-3.6H236.05V67.26h.9v1.87h-3.6v15H237V86h-.9v6.37l9.21-4h0a.93.93,0,0,1,1.31.86v19.9a.8.8,0,0,1-.08.37.93.93,0,0,1-1.23.49Z"/></g><g id="POLYLINE-107" data-name="POLYLINE"><path class="cls-2" d="M199.09,387.91a.72.72,0,0,0-1.43,0v3.72H185.09a.87.87,0,0,1-.71-1l1.16-6.92a.94.94,0,0,0-.77-1.08H173.22a.94.94,0,0,0-.94.94.76.76,0,0,0,0,.15l1.15,6.92a.61.61,0,0,1,0,.14.85.85,0,0,1-.86.86H160.17v-3.72a.72.72,0,0,0-1.43,0v3.72h-6.09V353.39h8.42v-1.88h-.9v-1.73h.9V347.9h-3.61v-2.63h3.61V343.4h-.9v-1.73h.9v-1.88h-8.42V263.23h8.42v-1.88h-.9v-1.73h.9v-1.88h-3.61v-2.63h3.61v-1.87h-.9v-1.73h.9v-1.88h-8.42V173.07h8.42v-1.88h-.9v-1.73h.9v-1.88h-3.61V165h3.61v-1.87h-.9v-1.73h.9v-1.88h-8.42V82.91h8.42V81h-.9V79.3h.9V77.42h-3.61V74.79h3.61V72.91h-.9V71.19h.9V69.31h-8.42V31.07h17.21v3.6h1.88v-.9h14.35v.9H188v-3.6h12.39V46h-3.6V47.9h.9V59.24h-.9v1.88h3.6v8.19h-3.6v1.88h.9v1.72h-.9v1.88h3.6v2.63h-3.6V79.3h.9V81h-.9v1.88h3.6V91.1h-3.6V93h.9v11.34h-.9v1.88h3.6v30h-3.6v1.88h.9v3.83h-.9v1.88h3.6v15.7h-3.6v1.88h.9v1.73h-.9V165h3.6v2.63h-3.6v1.88h.9v1.73h-.9v1.88h3.6v76.56h-3.6v1.88h.9v1.73h-.9v1.87h3.6v2.63h-3.6v1.88h.9v1.73h-.9v1.88h3.6v76.56h-3.6v1.88h.9v1.73h-.9v1.87h3.6v2.63h-3.6v1.88h.9v1.73h-.9v1.88h3.6v15.7h-3.6V371h.9v3.83h-.9v1.88h3.6v14.95h-1.27Z"/></g><g id="POLYLINE-108" data-name="POLYLINE"><path class="cls-2" d="M104.34,387.91a.72.72,0,0,1,1.43,0v3.72h12.42a.86.86,0,0,0,.87-.86.59.59,0,0,0,0-.14l-1.15-6.92a.76.76,0,0,1,0-.15.94.94,0,0,1,.94-.94h11.55a.93.93,0,0,1,.77,1.08L130,390.63a.86.86,0,0,0,.71,1h12.56v-3.72a.72.72,0,0,1,1.43,0v3.72h6.09V353.39h-8.42v-1.88h.9v-1.73h-.9V347.9H146v-2.63h-3.61V343.4h.9v-1.73h-.9v-1.88h8.42V263.23h-8.42v-1.88h.9v-1.73h-.9v-1.88H146v-2.63h-3.61v-1.87h.9v-1.73h-.9v-1.88h8.42V173.07h-8.42v-1.88h.9v-1.73h-.9v-1.88H146V165h-3.61v-1.87h.9v-1.73h-.9v-1.88h8.42V82.91h-8.42V81h.9V79.3h-.9V77.42H146V74.79h-3.61V72.91h.9V71.19h-.9V69.31h8.42V31.07H133.57v3.6h-1.88v-.9H117.34v.9h-1.88v-3.6H103.07V46h3.6V47.9h-.9V59.24h.9v1.88h-3.6v8.19h3.6v1.88h-.9v1.72h.9v1.88h-3.6v2.63h3.6V79.3h-.9V81h.9v1.88h-3.6V91.1h3.6V93h-.9v11.34h.9v1.88h-3.6v30h3.6v1.88h-.9v3.83h.9v1.88h-3.6v15.7h3.6v1.88h-.9v1.73h.9V165h-3.6v2.63h3.6v1.88h-.9v1.73h.9v1.88h-3.6v76.56h3.6v1.88h-.9v1.73h.9v1.87h-3.6v2.63h3.6v1.88h-.9v1.73h.9v1.88h-3.6v76.56h3.6v1.88h-.9v1.73h.9v1.87h-3.6v2.63h3.6v1.88h-.9v1.73h.9v1.88h-3.6v15.7h3.6V371h-.9v3.83h.9v1.88h-3.6v14.95h1.27Z"/></g><g id="POLYLINE-109" data-name="POLYLINE"><path class="cls-2" d="M95.1,305a.72.72,0,0,1-1.43,0v-3.72H81.1a.94.94,0,0,1-.77-1.08l1.15-6.92a.86.86,0,0,0-.71-1H69.23a.85.85,0,0,0-.86.86.66.66,0,0,0,0,.14l1.15,6.92a.76.76,0,0,1,0,.15.94.94,0,0,1-.94.94H56.18V305h0a.72.72,0,0,1-1.43,0v-3.72H53.48V316.2h3.6v1.88h-.9v11.35h.9v1.87h-3.6v8.19h3.6v1.88h-.9v1.73h.9V345h-3.6v2.63h3.6v1.88h-.9v1.73h.9v1.87h-3.6v8.19h3.6v1.88h-.9v11.35h.9v1.88h-3.6v14.95H65.87v-3.61h1.88v.9H82.1v-.9H84v3.61h17.21V353.09H92.77v-1.87h.9v-1.73h-.9v-1.88h3.61V345H92.77V343.1h.9v-1.73h-.9v-1.88h8.42V301.25H95.1V305Z"/></g><g id="POLYLINE-110" data-name="POLYLINE"><path class="cls-2" d="M95.1,275.49a.72.72,0,1,0-1.43,0v3.72H81.25a.94.94,0,0,0-.94.93.78.78,0,0,0,0,.16l1.15,6.92a.61.61,0,0,1,0,.14.87.87,0,0,1-.86.86H69.09a.86.86,0,0,1-.71-1l1.15-6.92a.93.93,0,0,0-.77-1.08H56.18v-3.72h0a.72.72,0,1,0-1.43,0v3.72H53.48v-15h3.6v-1.87h-.9V251h.9v-1.88h-3.6V241h3.6v-1.88h-.9v-1.72h.9v-1.88h-3.6v-2.63h3.6V231h-.9v-1.73h.9v-1.88h-3.6v-8.19h3.6V217.3h-.9V206h.9v-1.88h-3.6V189.12H65.87v3.61h1.88v-.91H82.1v.91H84v-3.61h17.21v38.24H92.77v1.88h.9V231h-.9v1.88h3.61v2.63H92.77v1.88h.9v1.72h-.9V241h8.42v38.25H95.1v-3.72Z"/></g><g id="POLYLINE-111" data-name="POLYLINE"><rect class="cls-3" x="444.7" y="29.99" width="183.33" height="366.65"/></g><g id="POLYLINE-112" data-name="POLYLINE"><rect class="cls-3" x="231.32" y="29.99" width="183.33" height="366.65"/></g><g id="POLYLINE-113" data-name="POLYLINE"><rect class="cls-3" x="17.94" y="29.99" width="183.33" height="366.65"/></g></svg>