  0
SECTION
  2
HEADER
  9
$ACADVER
  1
AC1009
  9
$INSBASE
 10
0.000000
 20
0.000000
 30
0.000000
  9
$EXTMIN
 10
0.000000
 20
0.000000
 30
0.000000
  9
$EXTMAX
 10
1937.563864
 20
599.500000
 30
0.000000
  0
ENDSEC
  0
SECTION
  2
TABLES
  0
TABLE
  2
LTYPE
 70
1
  0
LTYPE
  2
CONTINUOUS
 70
0
  3
Solid line
 72
65
 73
0
 40
0.000000
  0
ENDTAB
  0
TABLE
  2
LAYER
 70
3
  0
LAYER
  2
0
 70
0
 62
7
  6
CONTINUOUS
  0
LAYER
  2
1_ANYTOOL_1MMDEEP_LABELS_S
 70
0
 62
2
  6
CONTINUOUS
  0
LAYER
  2
4_ANYTOOL_CUTTHROUGH_OUTSI
 70
0
 62
5
  6
CONTINUOUS
  0
ENDTAB
  0
ENDSEC
  0
SECTION
  2
ENTITIES
  0
POLYLINE
  8
1_ANYTOOL_1MMDEEP_LABELS_S
 66
1
 10
0.000000
 20
0.000000
 30
0.000000
 70
0
  0
VERTEX
  8
1_ANYTOOL_1MMDEEP_LABELS_S
 10
1058.790335
 20
301.528571
 30
0.000000
  0
VERTEX
  8
1_ANYTOOL_1MMDEEP_LABELS_S
 10
1069.333192
 20
301.657143
 30
0.000000
 42
0.046847
  0
VERTEX
  8
1_ANYTOOL_1MMDEEP_LABELS_S
 10
1072.281894
 20
302.133591
 30
0.000000
 42
0.060102
  0
VERTEX
  8
1_ANYTOOL_1MMDEEP_LABELS_S
 10
1075.054621
 20
303.221429
 30
0.000000
 42
0.086388
  0
VERTEX
  8
1_ANYTOOL_1MMDEEP_LABELS_S
 10
1076.161323
 20
304.091555
 30
0.000000
 42
0.076384
  0
VERTEX
  8
1_ANYTOOL_1MMDEEP_LABELS_S
 10
1076.934978
 20
305.273214
 30
0.000000
 42
0.070405
  0
VERTEX
  8
1_ANYTOOL_1MMDEEP_LABELS_S
 10
1077.432447
 20
306.960964
 30
0.000000
 42
0.036531
  0
VERTEX
  8
1_ANYTOOL_1MMDEEP_LABELS_S
 10
1077.561764
 20
308.728571
 30
0.000000
 42
0.031885
  0
VERTEX
  8
1_ANYTOOL_1MMDEEP_LABELS_S
 10
1077.470143
 20
310.163829
 30
0.000000
 42
0.051083
  0
VERTEX
  8
1_ANYTOOL_1MMDEEP_LABELS_S
 10
1077.143906
 20
311.559821
 30
0.000000
 42
0.053001
  0
VERTEX
  8
1_ANYTOOL_1MMDEEP_LABELS_S
 10
1076.635619
 20
312.646380
 30
0.000000
 42
0.064647
  0
VERTEX
  8
1_ANYTOOL_1MMDEEP_LABELS_S
 10
1075.890335
 20
313.582143
 30
0.000000
 42
0.064346
  0
VERTEX
  8
1_ANYTOOL_1MMDEEP_LABELS_S
 10
1074.917044
 20
314.307708
 30
0.000000
 42
0.050037
  0
VERTEX
  8
1_ANYTOOL_1MMDEEP_LABELS_S
 10
1073.801049
 20
314.795536
 30
0.000000
 42
0.048317
  0
VERTEX
  8
1_ANYTOOL_1MMDEEP_LABELS_S
 10
1072.356493
 20
315.111818
 30
0.000000
 42
0.029756
  0
VERTEX
  8
1_ANYTOOL_1MMDEEP_LABELS_S
 10
1070.876049
 20
315.200000
 30
0.000000
  0
VERTEX
  8
1_ANYTOOL_1MMDEEP_LABELS_S
 10
1058.790335
 20
315.200000
 30
0.000000
  0
SEQEND
  8
1_ANYTOOL_1MMDEEP_LABELS_S
  0
POLYLINE
  8
1_ANYTOOL_1MMDEEP_LABELS_S
 66
1
 10
0.000000
 20
0.000000
 30
0.000000
 70
0
  0
VERTEX
  8
1_ANYTOOL_1MMDEEP_LABELS_S
 10
1058.790335
 20
315.200000
 30
0.000000
  0
VERTEX
  8
1_ANYTOOL_1MMDEEP_LABELS_S
 10
1058.790335
 20
285.200000
 30
0.000000
  0
VERTEX
  8
1_ANYTOOL_1MMDEEP_LABELS_S
 10
1068.476049
 20
285.200000
 30
0.000000
  0
VERTEX
  8
1_ANYTOOL_1MMDEEP_LABELS_S
 10
1071.004621
 20
285.114286
 30
0.000000
 42
0.048381
  0
VERTEX
  8
1_ANYTOOL_1MMDEEP_LABELS_S
 10
1072.683515
 20
285.218201
 30
0.000000
 42
0.066146
  0
VERTEX
  8
1_ANYTOOL_1MMDEEP_LABELS_S
 10
1074.288549
 20
285.698214
 30
0.000000
 42
0.067079
  0
VERTEX
  8
1_ANYTOOL_1MMDEEP_LABELS_S
 10
1075.652313
 20
286.546885
 30
0.000000
 42
0.057042
  0
VERTEX
  8
1_ANYTOOL_1MMDEEP_LABELS_S
 10
1076.768906
 20
287.707143
 30
0.000000
 42
0.037099
  0
VERTEX
  8
1_ANYTOOL_1MMDEEP_LABELS_S
 10
1077.663578
 20
289.078384
 30
0.000000
 42
0.042913
  0
VERTEX
  8
1_ANYTOOL_1MMDEEP_LABELS_S
 10
1078.327835
 20
290.573214
 30
0.000000
 42
0.043052
  0
VERTEX
  8
1_ANYTOOL_1MMDEEP_LABELS_S
 10
1078.718995
 20
292.128862
 30
0.000000
 42
0.040094
  0
VERTEX
  8
1_ANYTOOL_1MMDEEP_LABELS_S
 10
1078.847478
 20
293.728571
 30
0.000000
 42
0.045096
  0
VERTEX
  8
1_ANYTOOL_1MMDEEP_LABELS_S
 10
1078.685107
 20
295.525188
 30
0.000000
 42
0.070597
  0
VERTEX
  8
1_ANYTOOL_1MMDEEP_LABELS_S
 10
1078.118906
 20
297.226786
 30
0.000000
 42
0.073303
  0
VERTEX
  8
1_ANYTOOL_1MMDEEP_LABELS_S
 10
1077.192928
 20
298.555824
 30
0.000000
 42
0.067093
  0
VERTEX
  8
1_ANYTOOL_1MMDEEP_LABELS_S
 10
1075.933192
 20
299.578571
 30
0.000000
 42
0.063103
  0
VERTEX
  8
1_ANYTOOL_1MMDEEP_LABELS_S
 10
1072.758682
 20
301.003517
 30
0.000000
 42
0.053716
  0
VERTEX
  8
1_ANYTOOL_1MMDEEP_LABELS_S
 10
1069.333192
 20
301.657143
 30
0.000000
  0
SEQEND
  8
1_ANYTOOL_1MMDEEP_LABELS_S
  0
LINE
  8
1_ANYTOOL_1MMDEEP_LABELS_S
 10
1055.361764
 20
314.728571
 30
0.000000
 11
1038.176049
 21
283.957143
 31
0.000000
  0
POLYLINE
  8
1_ANYTOOL_1MMDEEP_LABELS_S
 66
1
 10
0.000000
 20
0.000000
 30
0.000000
 70
0
  0
VERTEX
  8
1_ANYTOOL_1MMDEEP_LABELS_S
 10
1034.147478
 20
285.242857
 30
0.000000
  0
VERTEX
  8
1_ANYTOOL_1MMDEEP_LABELS_S
 10
1015.847478
 20
285.285714
 30
0.000000
 42
-0.034491
  0
VERTEX
  8
1_ANYTOOL_1MMDEEP_LABELS_S
 10
1016.510256
 20
287.033046
 30
0.000000
 42
-0.037732
  0
VERTEX
  8
1_ANYTOOL_1MMDEEP_LABELS_S
 10
1017.417121
 20
288.666071
 30
0.000000
 42
-0.037744
  0
VERTEX
  8
1_ANYTOOL_1MMDEEP_LABELS_S
 10
1018.556415
 20
290.140708
 30
0.000000
 42
-0.034820
  0
VERTEX
  8
1_ANYTOOL_1MMDEEP_LABELS_S
 10
1019.897478
 20
291.435714
 30
0.000000
 42
-0.008590
  0
VERTEX
  8
1_ANYTOOL_1MMDEEP_LABELS_S
 10
1022.856703
 20
293.834297
 30
0.000000
 42
-0.008791
  0
VERTEX
  8
1_ANYTOOL_1MMDEEP_LABELS_S
 10
1025.897478
 20
296.128571
 30
0.000000
 42
0.020588
  0
VERTEX
  8
1_ANYTOOL_1MMDEEP_LABELS_S
 10
1028.716766
 20
298.362014
 30
0.000000
 42
0.025206
  0
VERTEX
  8
1_ANYTOOL_1MMDEEP_LABELS_S
 10
1031.318906
 20
300.842857
 30
0.000000
 42
0.046908
  0
VERTEX
  8
1_ANYTOOL_1MMDEEP_LABELS_S
 10
1032.339501
 20
302.144099
 30
0.000000
 42
0.051091
  0
VERTEX
  8
1_ANYTOOL_1MMDEEP_LABELS_S
 10
1033.086764
 20
303.617857
 30
0.000000
 42
0.050722
  0
VERTEX
  8
1_ANYTOOL_1MMDEEP_LABELS_S
 10
1033.535496
 20
305.266032
 30
0.000000
 42
0.041139
  0
VERTEX
  8
1_ANYTOOL_1MMDEEP_LABELS_S
 10
1033.676049
 20
306.971429
 30
0.000000
 42
0.039396
  0
VERTEX
  8
1_ANYTOOL_1MMDEEP_LABELS_S
 10
1033.533404
 20
308.779014
 30
0.000000
 42
0.058519
  0
VERTEX
  8
1_ANYTOOL_1MMDEEP_LABELS_S
 10
1033.043906
 20
310.517857
 30
0.000000
 42
0.060358
  0
VERTEX
  8
1_ANYTOOL_1MMDEEP_LABELS_S
 10
1032.253349
 20
311.924973
 30
0.000000
 42
0.061397
  0
VERTEX
  8
1_ANYTOOL_1MMDEEP_LABELS_S
 10
1031.147478
 20
313.100000
 30
0.000000
 42
0.048006
  0
VERTEX
  8
1_ANYTOOL_1MMDEEP_LABELS_S
 10
1029.791521
 20
314.021960
 30
0.000000
 42
0.045901
  0
VERTEX
  8
1_ANYTOOL_1MMDEEP_LABELS_S
 10
1028.286764
 20
314.675000
 30
0.000000
 42
0.045216
  0
VERTEX
  8
1_ANYTOOL_1MMDEEP_LABELS_S
 10
1026.546702
 20
315.077560
 30
0.000000
 42
0.034258
  0
VERTEX
  8
1_ANYTOOL_1MMDEEP_LABELS_S
 10
1024.761764
 20
315.200000
 30
0.000000
 42
0.055622
  0
VERTEX
  8
1_ANYTOOL_1MMDEEP_LABELS_S
 10
1022.127193
 20
314.906013
 30
0.000000
 42
0.079896
  0
VERTEX
  8
1_ANYTOOL_1MMDEEP_LABELS_S
 10
1019.683192
 20
313.925000
 30
0.000000
 42
0.080617
  0
VERTEX
  8
1_ANYTOOL_1MMDEEP_LABELS_S
 10
1017.713805
 20
312.259300
 30
0.000000
 42
0.060287
  0
VERTEX
  8
1_ANYTOOL_1MMDEEP_LABELS_S
 10
1016.276049
 20
310.100000
 30
0.000000
  0
SEQEND
  8
1_ANYTOOL_1MMDEEP_LABELS_S
  0
LINE
  8
1_ANYTOOL_1MMDEEP_LABELS_S
 10
987.947478
 20
293.857143
 30
0.000000
 11
1009.718906
 21
293.857143
 31
0.000000
  0
POLYLINE
  8
1_ANYTOOL_1MMDEEP_LABELS_S
 66
1
 10
0.000000
 20
0.000000
 30
0.000000
 70
0
  0
VERTEX
  8
1_ANYTOOL_1MMDEEP_LABELS_S
 10
1003.933192
 20
285.200000
 30
0.000000
  0
VERTEX
  8
1_ANYTOOL_1MMDEEP_LABELS_S
 10
1003.976049
 20
315.242857
 30
0.000000
  0
VERTEX
  8
1_ANYTOOL_1MMDEEP_LABELS_S
 10
987.947478
 20
293.857143
 30
0.000000
  0
SEQEND
  8
1_ANYTOOL_1MMDEEP_LABELS_S
  0
LINE
  8
1_ANYTOOL_1MMDEEP_LABELS_S
 10
983.661764
 20
299.085714
 30
0.000000
 11
974.876049
 21
299.000000
 31
0.000000
  0
POLYLINE
  8
1_ANYTOOL_1MMDEEP_LABELS_S
 66
1
 10
0.000000
 20
0.000000
 30
0.000000
 70
0
  0
VERTEX
  8
1_ANYTOOL_1MMDEEP_LABELS_S
 10
970.847478
 20
310.614286
 30
0.000000
 42
0.071867
  0
VERTEX
  8
1_ANYTOOL_1MMDEEP_LABELS_S
 10
970.654364
 20
311.950892
 30
0.000000
 42
0.100684
  0
VERTEX
  8
1_ANYTOOL_1MMDEEP_LABELS_S
 10
970.027835
 20
313.132143
 30
0.000000
 42
0.047558
  0
VERTEX
  8
1_ANYTOOL_1MMDEEP_LABELS_S
 10
969.553281
 20
313.608593
 30
0.000000
 42
0.038563
  0
VERTEX
  8
1_ANYTOOL_1MMDEEP_LABELS_S
 10
969.003281
 20
313.997321
 30
0.000000
 42
0.037928
  0
VERTEX
  8
1_ANYTOOL_1MMDEEP_LABELS_S
 10
968.306094
 20
314.344790
 30
0.000000
 42
0.026634
  0
VERTEX
  8
1_ANYTOOL_1MMDEEP_LABELS_S
 10
967.568906
 20
314.600000
 30
0.000000
 42
0.028461
  0
VERTEX
  8
1_ANYTOOL_1MMDEEP_LABELS_S
 10
964.545573
 20
315.285983
 30
0.000000
 42
0.041577
  0
VERTEX
  8
1_ANYTOOL_1MMDEEP_LABELS_S
 10
961.461764
 20
315.542857
 30
0.000000
 42
0.036938
  0
VERTEX
  8
1_ANYTOOL_1MMDEEP_LABELS_S
 10
959.959404
 20
315.431717
 30
0.000000
 42
0.041531
  0
VERTEX
  8
1_ANYTOOL_1MMDEEP_LABELS_S
 10
958.493906
 20
315.087500
 30
0.000000
 42
0.041583
  0
VERTEX
  8
1_ANYTOOL_1MMDEEP_LABELS_S
 10
957.116530
 20
314.510291
 30
0.000000
 42
0.038125
  0
VERTEX
  8
1_ANYTOOL_1MMDEEP_LABELS_S
 10
955.847478
 20
313.721429
 30
0.000000
 42
0.057611
  0
VERTEX
  8
1_ANYTOOL_1MMDEEP_LABELS_S
 10
954.777325
 20
312.729524
 30
0.000000
 42
0.065808
  0
VERTEX
  8
1_ANYTOOL_1MMDEEP_LABELS_S
 10
953.983192
 20
311.508929
 30
0.000000
 42
0.064690
  0
VERTEX
  8
1_ANYTOOL_1MMDEEP_LABELS_S
 10
953.505696
 20
310.049374
 30
0.000000
 42
0.046778
  0
VERTEX
  8
1_ANYTOOL_1MMDEEP_LABELS_S
 10
953.361764
 20
308.514286
 30
0.000000
 42
0.052235
  0
VERTEX
  8
1_ANYTOOL_1MMDEEP_LABELS_S
 10
953.524119
 20
306.964443
 30
0.000000
 42
0.075448
  0
VERTEX
  8
1_ANYTOOL_1MMDEEP_LABELS_S
 10
954.068906
 20
305.514286
 30
0.000000
 42
0.076671
  0
VERTEX
  8
1_ANYTOOL_1MMDEEP_LABELS_S
 10
954.984998
 20
304.341233
 30
0.000000
 42
0.061023
  0
VERTEX
  8
1_ANYTOOL_1MMDEEP_LABELS_S
 10
956.190335
 20
303.457143
 30
0.000000
 42
0.021951
  0
VERTEX
  8
1_ANYTOOL_1MMDEEP_LABELS_S
 10
959.219189
 20
301.929797
 30
0.000000
 42
0.018213
  0
VERTEX
  8
1_ANYTOOL_1MMDEEP_LABELS_S
 10
962.361764
 20
300.650000
 30
0.000000
 42
-0.024050
  0
VERTEX
  8
1_ANYTOOL_1MMDEEP_LABELS_S
 10
965.463248
 20
299.344538
 30
0.000000
 42
-0.029810
  0
VERTEX
  8
1_ANYTOOL_1MMDEEP_LABELS_S
 10
968.404621
 20
297.714286
 30
0.000000
 42
-0.068439
  0
VERTEX
  8
1_ANYTOOL_1MMDEEP_LABELS_S
 10
969.545923
 20
296.748355
 30
0.000000
 42
-0.079282
  0
VERTEX
  8
1_ANYTOOL_1MMDEEP_LABELS_S
 10
970.354621
 20
295.496429
 30
0.000000
 42
-0.076308
  0
VERTEX
  8
1_ANYTOOL_1MMDEEP_LABELS_S
 10
970.779620
 20
293.917747
 30
0.000000
 42
-0.047772
  0
VERTEX
  8
1_ANYTOOL_1MMDEEP_LABELS_S
 10
970.804621
 20
292.271429
 30
0.000000
 42
-0.046243
  0
VERTEX
  8
1_ANYTOOL_1MMDEEP_LABELS_S
 10
970.511386
 20
290.590469
 30
0.000000
 42
-0.063590
  0
VERTEX
  8
1_ANYTOOL_1MMDEEP_LABELS_S
 10
969.861764
 20
289.019643
 30
0.000000
 42
-0.064671
  0
VERTEX
  8
1_ANYTOOL_1MMDEEP_LABELS_S
 10
968.888940
 20
287.735454
 30
0.000000
 42
-0.057073
  0
VERTEX
  8
1_ANYTOOL_1MMDEEP_LABELS_S
 10
967.633192
 20
286.721429
 30
0.000000
 42
-0.067522
  0
VERTEX
  8
1_ANYTOOL_1MMDEEP_LABELS_S
 10
964.664884
 20
285.358518
 30
0.000000
 42
-0.070793
  0
VERTEX
  8
1_ANYTOOL_1MMDEEP_LABELS_S
 10
961.440335
 20
284.857143
 30
0.000000
 42
-0.064027
  0
VERTEX
  8
1_ANYTOOL_1MMDEEP_LABELS_S
 10
958.301320
 20
285.219658
 30
0.000000
 42
-0.070447
  0
VERTEX
  8
1_ANYTOOL_1MMDEEP_LABELS_S
 10
955.376049
 20
286.400000
 30
0.000000
 42
-0.054374
  0
VERTEX
  8
1_ANYTOOL_1MMDEEP_LABELS_S
 10
954.217632
 20
287.249633
 30
0.000000
 42
-0.074742
  0
VERTEX
  8
1_ANYTOOL_1MMDEEP_LABELS_S
 10
953.318906
 20
288.360714
 30
0.000000
 42
-0.075199
  0
VERTEX
  8
1_ANYTOOL_1MMDEEP_LABELS_S
 10
952.795899
 20
289.667093
 30
0.000000
 42
-0.057737
  0
VERTEX
  8
1_ANYTOOL_1MMDEEP_LABELS_S
 10
952.633192
 20
291.071429
 30
0.000000
  0
SEQEND
  8
1_ANYTOOL_1MMDEEP_LABELS_S
  0
LINE
  8
1_ANYTOOL_1MMDEEP_LABELS_S
 10
948.218906
 20
315.200000
 30
0.000000
 11
929.318906
 21
285.200000
 31
0.000000
  0
LINE
  8
1_ANYTOOL_1MMDEEP_LABELS_S
 10
949.461764
 20
285.200000
 30
0.000000
 11
930.518906
 21
315.200000
 31
0.000000
  0
LINE
  8
1_ANYTOOL_1MMDEEP_LABELS_S
 10
925.504621
 20
315.200000
 30
0.000000
 11
906.604621
 21
285.200000
 31
0.000000
  0
LINE
  8
1_ANYTOOL_1MMDEEP_LABELS_S
 10
926.747478
 20
285.200000
 30
0.000000
 11
907.804621
 21
315.200000
 31
0.000000
  0
LINE
  8
1_ANYTOOL_1MMDEEP_LABELS_S
 10
903.176049
 20
299.085714
 30
0.000000
 11
894.390335
 21
299.000000
 31
0.000000
  0
POLYLINE
  8
1_ANYTOOL_1MMDEEP_LABELS_S
 66
1
 10
0.000000
 20
0.000000
 30
0.000000
 70
0
  0
VERTEX
  8
1_ANYTOOL_1MMDEEP_LABELS_S
 10
871.718906
 20
285.200000
 30
0.000000
  0
VERTEX
  8
1_ANYTOOL_1MMDEEP_LABELS_S
 10
871.718906
 20
315.200000
 30
0.000000
  0
VERTEX
  8
1_ANYTOOL_1MMDEEP_LABELS_S
 10
883.076049
 20
315.200000
 30
0.000000
 42
-0.030274
  0
VERTEX
  8
1_ANYTOOL_1MMDEEP_LABELS_S
 10
884.841862
 20
315.092984
 30
0.000000
 42
-0.049000
  0
VERTEX
  8
1_ANYTOOL_1MMDEEP_LABELS_S
 10
886.563549
 20
314.709821
 30
0.000000
 42
-0.050774
  0
VERTEX
  8
1_ANYTOOL_1MMDEEP_LABELS_S
 10
887.896072
 20
314.117365
 30
0.000000
 42
-0.064450
  0
VERTEX
  8
1_ANYTOOL_1MMDEEP_LABELS_S
 10
889.054621
 20
313.239286
 30
0.000000
 42
-0.064600
  0
VERTEX
  8
1_ANYTOOL_1MMDEEP_LABELS_S
 10
889.944532
 20
312.103255
 30
0.000000
 42
-0.052254
  0
VERTEX
  8
1_ANYTOOL_1MMDEEP_LABELS_S
 10
890.549264
 20
310.788393
 30
0.000000
 42
-0.050381
  0
VERTEX
  8
1_ANYTOOL_1MMDEEP_LABELS_S
 10
890.938399
 20
309.095844
 30
0.000000
 42
-0.031337
  0
VERTEX
  8
1_ANYTOOL_1MMDEEP_LABELS_S
 10
891.047478
 20
307.357143
 30
0.000000
 42
-0.040022
  0
VERTEX
  8
1_ANYTOOL_1MMDEEP_LABELS_S
 10
890.937317
 20
305.983086
 30
0.000000
 42
-0.042626
  0
VERTEX
  8
1_ANYTOOL_1MMDEEP_LABELS_S
 10
890.602835
 20
304.646429
 30
0.000000
 42
-0.042470
  0
VERTEX
  8
1_ANYTOOL_1MMDEEP_LABELS_S
 10
890.034150
 20
303.356709
 30
0.000000
 42
-0.036572
  0
VERTEX
  8
1_ANYTOOL_1MMDEEP_LABELS_S
 10
889.268906
 20
302.171429
 30
0.000000
 42
-0.051097
  0
VERTEX
  8
1_ANYTOOL_1MMDEEP_LABELS_S
 10
888.327129
 20
301.157473
 30
0.000000
 42
-0.061981
  0
VERTEX
  8
1_ANYTOOL_1MMDEEP_LABELS_S
 10
887.184978
 20
300.382143
 30
0.000000
 42
-0.061813
  0
VERTEX
  8
1_ANYTOOL_1MMDEEP_LABELS_S
 10
885.875976
 20
299.905643
 30
0.000000
 42
-0.049309
  0
VERTEX
  8
1_ANYTOOL_1MMDEEP_LABELS_S
 10
884.490335
 20
299.728571
 30
0.000000
 42
-0.003273
  0
VERTEX
  8
1_ANYTOOL_1MMDEEP_LABELS_S
 10
883.622684
 20
299.690880
 30
0.000000
 42
-0.003121
  0
VERTEX
  8
1_ANYTOOL_1MMDEEP_LABELS_S
 10
882.754621
 20
299.664286
 30
0.000000
 42
-0.003882
  0
VERTEX
  8
1_ANYTOOL_1MMDEEP_LABELS_S
 10
881.736839
 20
299.647366
 30
0.000000
 42
-0.002215
  0
VERTEX
  8
1_ANYTOOL_1MMDEEP_LABELS_S
 10
880.718906
 20
299.642857
 30
0.000000
  0
VERTEX
  8
1_ANYTOOL_1MMDEEP_LABELS_S
 10
871.761764
 20
299.642857
 30
0.000000
  0
SEQEND
  8
1_ANYTOOL_1MMDEEP_LABELS_S
  0
LINE
  8
1_ANYTOOL_1MMDEEP_LABELS_S
 10
880.718906
 20
299.642857
 30
0.000000
 11
891.176049
 21
285.157143
 31
0.000000
  0
POLYLINE
  8
4_ANYTOOL_CUTTHROUGH_OUTSI
 66
1
 10
0.000000
 20
0.000000
 30
0.000000
 70
1
  0
VERTEX
  8
4_ANYTOOL_CUTTHROUGH_OUTSI
 10
661.949922
 20
0.000000
 30
0.000000
  0
VERTEX
  8
4_ANYTOOL_CUTTHROUGH_OUTSI
 10
699.199922
 20
0.000000
 30
0.000000
  0
VERTEX
  8
4_ANYTOOL_CUTTHROUGH_OUTSI
 10
699.199922
 20
23.750000
 30
0.000000
 42
-0.414214
  0
VERTEX
  8
4_ANYTOOL_CUTTHROUGH_OUTSI
 10
699.449922
 20
24.000000
 30
0.000000
  0
VERTEX
  8
4_ANYTOOL_CUTTHROUGH_OUTSI
 10
711.449922
 20
24.000000
 30
0.000000
 42
-0.414214
  0
VERTEX
  8
4_ANYTOOL_CUTTHROUGH_OUTSI
 10
711.699922
 20
23.750000
 30
0.000000
  0
VERTEX
  8
4_ANYTOOL_CUTTHROUGH_OUTSI
 10
711.699922
 20
18.000000
 30
0.000000
  0
VERTEX
  8
4_ANYTOOL_CUTTHROUGH_OUTSI
 10
762.199922
 20
18.000000
 30
0.000000
  0
VERTEX
  8
4_ANYTOOL_CUTTHROUGH_OUTSI
 10
762.199922
 20
23.750000
 30
0.000000
 42
-0.414214
  0
VERTEX
  8
4_ANYTOOL_CUTTHROUGH_OUTSI
 10
762.449922
 20
24.000000
 30
0.000000
  0
VERTEX
  8
4_ANYTOOL_CUTTHROUGH_OUTSI
 10
774.449922
 20
24.000000
 30
0.000000
 42
-0.414214
  0
VERTEX
  8
4_ANYTOOL_CUTTHROUGH_OUTSI
 10
774.699922
 20
23.750000
 30
0.000000
  0
VERTEX
  8
4_ANYTOOL_CUTTHROUGH_OUTSI
 10
774.699922
 20
0.000000
 30
0.000000
  0
VERTEX
  8
4_ANYTOOL_CUTTHROUGH_OUTSI
 10
849.199922
 20
0.000000
 30
0.000000
  0
VERTEX
  8
4_ANYTOOL_CUTTHROUGH_OUTSI
 10
849.199922
 20
23.750000
 30
0.000000
 42
-0.414214
  0
VERTEX
  8
4_ANYTOOL_CUTTHROUGH_OUTSI
 10
849.449922
 20
24.000000
 30
0.000000
  0
VERTEX
  8
4_ANYTOOL_CUTTHROUGH_OUTSI
 10
861.449922
 20
24.000000
 30
0.000000
 42
-0.414214
  0
VERTEX
  8
4_ANYTOOL_CUTTHROUGH_OUTSI
 10
861.699922
 20
23.750000
 30
0.000000
  0
VERTEX
  8
4_ANYTOOL_CUTTHROUGH_OUTSI
 10
861.699922
 20
18.000000
 30
0.000000
  0
VERTEX
  8
4_ANYTOOL_CUTTHROUGH_OUTSI
 10
912.199922
 20
18.000000
 30
0.000000
  0
VERTEX
  8
4_ANYTOOL_CUTTHROUGH_OUTSI
 10
912.199922
 20
23.750000
 30
0.000000
 42
-0.414214
  0
VERTEX
  8
4_ANYTOOL_CUTTHROUGH_OUTSI
 10
912.449922
 20
24.000000
 30
0.000000
  0
VERTEX
  8
4_ANYTOOL_CUTTHROUGH_OUTSI
 10
924.449922
 20
24.000000
 30
0.000000
 42
-0.414214
  0
VERTEX
  8
4_ANYTOOL_CUTTHROUGH_OUTSI
 10
924.699922
 20
23.750000
 30
0.000000
  0
VERTEX
  8
4_ANYTOOL_CUTTHROUGH_OUTSI
 10
924.699922
 20
0.000000
 30
0.000000
  0
VERTEX
  8
4_ANYTOOL_CUTTHROUGH_OUTSI
 10
999.199922
 20
0.000000
 30
0.000000
  0
VERTEX
  8
4_ANYTOOL_CUTTHROUGH_OUTSI
 10
999.199922
 20
23.750000
 30
0.000000
 42
-0.414214
  0
VERTEX
  8
4_ANYTOOL_CUTTHROUGH_OUTSI
 10
999.449922
 20
24.000000
 30
0.000000
  0
VERTEX
  8
4_ANYTOOL_CUTTHROUGH_OUTSI
 10
1011.449922
 20
24.000000
 30
0.000000
 42
-0.414214
  0
VERTEX
  8
4_ANYTOOL_CUTTHROUGH_OUTSI
 10
1011.699922
 20
23.750000
 30
0.000000
  0
VERTEX
  8
4_ANYTOOL_CUTTHROUGH_OUTSI
 10
1011.699922
 20
18.000000
 30
0.000000
  0
VERTEX
  8
4_ANYTOOL_CUTTHROUGH_OUTSI
 10
1062.199922
 20
18.000000
 30
0.000000
  0
VERTEX
  8
4_ANYTOOL_CUTTHROUGH_OUTSI
 10
1062.199922
 20
23.750000
 30
0.000000
 42
-0.414214
  0
VERTEX
  8
4_ANYTOOL_CUTTHROUGH_OUTSI
 10
1062.449922
 20
24.000000
 30
0.000000
  0
VERTEX
  8
4_ANYTOOL_CUTTHROUGH_OUTSI
 10
1074.449922
 20
24.000000
 30
0.000000
 42
-0.414214
  0
VERTEX
  8
4_ANYTOOL_CUTTHROUGH_OUTSI
 10
1074.699922
 20
23.750000
 30
0.000000
  0
VERTEX
  8
4_ANYTOOL_CUTTHROUGH_OUTSI
 10
1074.699922
 20
0.000000
 30
0.000000
  0
VERTEX
  8
4_ANYTOOL_CUTTHROUGH_OUTSI
 10
1149.199922
 20
0.000000
 30
0.000000
  0
VERTEX
  8
4_ANYTOOL_CUTTHROUGH_OUTSI
 10
1149.199922
 20
23.750000
 30
0.000000
 42
-0.414214
  0
VERTEX
  8
4_ANYTOOL_CUTTHROUGH_OUTSI
 10
1149.449922
 20
24.000000
 30
0.000000
  0
VERTEX
  8
4_ANYTOOL_CUTTHROUGH_OUTSI
 10
1161.449922
 20
24.000000
 30
0.000000
 42
-0.414214
  0
VERTEX
  8
4_ANYTOOL_CUTTHROUGH_OUTSI
 10
1161.699922
 20
23.750000
 30
0.000000
  0
VERTEX
  8
4_ANYTOOL_CUTTHROUGH_OUTSI
 10
1161.699922
 20
18.000000
 30
0.000000
  0
VERTEX
  8
4_ANYTOOL_CUTTHROUGH_OUTSI
 10
1212.199922
 20
18.000000
 30
0.000000
  0
VERTEX
  8
4_ANYTOOL_CUTTHROUGH_OUTSI
 10
1212.199922
 20
23.750000
 30
0.000000
 42
-0.414214
  0
VERTEX
  8
4_ANYTOOL_CUTTHROUGH_OUTSI
 10
1212.449922
 20
24.000000
 30
0.000000
  0
VERTEX
  8
4_ANYTOOL_CUTTHROUGH_OUTSI
 10
1224.449922
 20
24.000000
 30
0.000000
 42
-0.414214
  0
VERTEX
  8
4_ANYTOOL_CUTTHROUGH_OUTSI
 10
1224.699922
 20
23.750000
 30
0.000000
  0
VERTEX
  8
4_ANYTOOL_CUTTHROUGH_OUTSI
 10
1224.699922
 20
0.000000
 30
0.000000
  0
VERTEX
  8
4_ANYTOOL_CUTTHROUGH_OUTSI
 10
1299.199922
 20
0.000000
 30
0.000000
  0
VERTEX
  8
4_ANYTOOL_CUTTHROUGH_OUTSI
 10
1299.199922
 20
23.750000
 30
0.000000
 42
-0.414214
  0
VERTEX
  8
4_ANYTOOL_CUTTHROUGH_OUTSI
 10
1299.449922
 20
24.000000
 30
0.000000
  0
VERTEX
  8
4_ANYTOOL_CUTTHROUGH_OUTSI
 10
1311.449922
 20
24.000000
 30
0.000000
 42
-0.414214
  0
VERTEX
  8
4_ANYTOOL_CUTTHROUGH_OUTSI
 10
1311.699922
 20
23.750000
 30
0.000000
  0
VERTEX
  8
4_ANYTOOL_CUTTHROUGH_OUTSI
 10
1311.699922
 20
18.000000
 30
0.000000
  0
VERTEX
  8
4_ANYTOOL_CUTTHROUGH_OUTSI
 10
1362.199922
 20
18.000000
 30
0.000000
  0
VERTEX
  8
4_ANYTOOL_CUTTHROUGH_OUTSI
 10
1362.199922
 20
23.750000
 30
0.000000
 42
-0.414214
  0
VERTEX
  8
4_ANYTOOL_CUTTHROUGH_OUTSI
 10
1362.449922
 20
24.000000
 30
0.000000
  0
VERTEX
  8
4_ANYTOOL_CUTTHROUGH_OUTSI
 10
1374.449922
 20
24.000000
 30
0.000000
 42
-0.414214
  0
VERTEX
  8
4_ANYTOOL_CUTTHROUGH_OUTSI
 10
1374.699922
 20
23.750000
 30
0.000000
  0
VERTEX
  8
4_ANYTOOL_CUTTHROUGH_OUTSI
 10
1374.699922
 20
0.000000
 30
0.000000
  0
VERTEX
  8
4_ANYTOOL_CUTTHROUGH_OUTSI
 10
1449.199922
 20
0.000000
 30
0.000000
  0
VERTEX
  8
4_ANYTOOL_CUTTHROUGH_OUTSI
 10
1449.199922
 20
23.750000
 30
0.000000
 42
-0.414214
  0
VERTEX
  8
4_ANYTOOL_CUTTHROUGH_OUTSI
 10
1449.449922
 20
24.000000
 30
0.000000
  0
VERTEX
  8
4_ANYTOOL_CUTTHROUGH_OUTSI
 10
1461.449922
 20
24.000000
 30
0.000000
 42
-0.414214
  0
VERTEX
  8
4_ANYTOOL_CUTTHROUGH_OUTSI
 10
1461.699922
 20
23.750000
 30
0.000000
  0
VERTEX
  8
4_ANYTOOL_CUTTHROUGH_OUTSI
 10
1461.699922
 20
18.000000
 30
0.000000
  0
VERTEX
  8
4_ANYTOOL_CUTTHROUGH_OUTSI
 10
1512.199922
 20
18.000000
 30
0.000000
  0
VERTEX
  8
4_ANYTOOL_CUTTHROUGH_OUTSI
 10
1512.199922
 20
23.750000
 30
0.000000
 42
-0.414214
  0
VERTEX
  8
4_ANYTOOL_CUTTHROUGH_OUTSI
 10
1512.449922
 20
24.000000
 30
0.000000
  0
VERTEX
  8
4_ANYTOOL_CUTTHROUGH_OUTSI
 10
1524.449922
 20
24.000000
 30
0.000000
 42
-0.414214
  0
VERTEX
  8
4_ANYTOOL_CUTTHROUGH_OUTSI
 10
1524.699922
 20
23.750000
 30
0.000000
  0
VERTEX
  8
4_ANYTOOL_CUTTHROUGH_OUTSI
 10
1524.699922
 20
0.000000
 30
0.000000
  0
VERTEX
  8
4_ANYTOOL_CUTTHROUGH_OUTSI
 10
1599.199922
 20
0.000000
 30
0.000000
  0
VERTEX
  8
4_ANYTOOL_CUTTHROUGH_OUTSI
 10
1599.199922
 20
23.750000
 30
0.000000
 42
-0.414214
  0
VERTEX
  8
4_ANYTOOL_CUTTHROUGH_OUTSI
 10
1599.449922
 20
24.000000
 30
0.000000
  0
VERTEX
  8
4_ANYTOOL_CUTTHROUGH_OUTSI
 10
1611.449922
 20
24.000000
 30
0.000000
 42
-0.414214
  0
VERTEX
  8
4_ANYTOOL_CUTTHROUGH_OUTSI
 10
1611.699922
 20
23.750000
 30
0.000000
  0
VERTEX
  8
4_ANYTOOL_CUTTHROUGH_OUTSI
 10
1611.699922
 20
18.000000
 30
0.000000
  0
VERTEX
  8
4_ANYTOOL_CUTTHROUGH_OUTSI
 10
1662.199922
 20
18.000000
 30
0.000000
  0
VERTEX
  8
4_ANYTOOL_CUTTHROUGH_OUTSI
 10
1662.199922
 20
23.750000
 30
0.000000
 42
-0.414214
  0
VERTEX
  8
4_ANYTOOL_CUTTHROUGH_OUTSI
 10
1662.449922
 20
24.000000
 30
0.000000
  0
VERTEX
  8
4_ANYTOOL_CUTTHROUGH_OUTSI
 10
1674.449922
 20
24.000000
 30
0.000000
 42
-0.414214
  0
VERTEX
  8
4_ANYTOOL_CUTTHROUGH_OUTSI
 10
1674.699922
 20
23.750000
 30
0.000000
  0
VERTEX
  8
4_ANYTOOL_CUTTHROUGH_OUTSI
 10
1674.699922
 20
0.000000
 30
0.000000
  0
VERTEX
  8
4_ANYTOOL_CUTTHROUGH_OUTSI
 10
1749.199922
 20
0.000000
 30
0.000000
  0
VERTEX
  8
4_ANYTOOL_CUTTHROUGH_OUTSI
 10
1749.199922
 20
23.750000
 30
0.000000
 42
-0.414214
  0
VERTEX
  8
4_ANYTOOL_CUTTHROUGH_OUTSI
 10
1749.449922
 20
24.000000
 30
0.000000
  0
VERTEX
  8
4_ANYTOOL_CUTTHROUGH_OUTSI
 10
1761.449922
 20
24.000000
 30
0.000000
 42
-0.414214
  0
VERTEX
  8
4_ANYTOOL_CUTTHROUGH_OUTSI
 10
1761.699922
 20
23.750000
 30
0.000000
  0
VERTEX
  8
4_ANYTOOL_CUTTHROUGH_OUTSI
 10
1761.699922
 20
18.000000
 30
0.000000
  0
VERTEX
  8
4_ANYTOOL_CUTTHROUGH_OUTSI
 10
1812.199922
 20
18.000000
 30
0.000000
  0
VERTEX
  8
4_ANYTOOL_CUTTHROUGH_OUTSI
 10
1812.199922
 20
23.750000
 30
0.000000
 42
-0.414214
  0
VERTEX
  8
4_ANYTOOL_CUTTHROUGH_OUTSI
 10
1812.449922
 20
24.000000
 30
0.000000
  0
VERTEX
  8
4_ANYTOOL_CUTTHROUGH_OUTSI
 10
1824.449922
 20
24.000000
 30
0.000000
 42
-0.414214
  0
VERTEX
  8
4_ANYTOOL_CUTTHROUGH_OUTSI
 10
1824.699922
 20
23.750000
 30
0.000000
  0
VERTEX
  8
4_ANYTOOL_CUTTHROUGH_OUTSI
 10
1824.699922
 20
0.000000
 30
0.000000
  0
VERTEX
  8
4_ANYTOOL_CUTTHROUGH_OUTSI
 10
1899.199922
 20
0.000000
 30
0.000000
  0
VERTEX
  8
4_ANYTOOL_CUTTHROUGH_OUTSI
 10
1899.199922
 20
23.750000
 30
0.000000
 42
-0.414214
  0
VERTEX
  8
4_ANYTOOL_CUTTHROUGH_OUTSI
 10
1899.449922
 20
24.000000
 30
0.000000
  0
VERTEX
  8
4_ANYTOOL_CUTTHROUGH_OUTSI
 10
1911.449922
 20
24.000000
 30
0.000000
 42
-0.414214
  0
VERTEX
  8
4_ANYTOOL_CUTTHROUGH_OUTSI
 10
1911.699922
 20
23.750000
 30
0.000000
  0
VERTEX
  8
4_ANYTOOL_CUTTHROUGH_OUTSI
 10
1911.699922
 20
18.000000
 30
0.000000
  0
VERTEX
  8
4_ANYTOOL_CUTTHROUGH_OUTSI
 10
1937.563864
 20
18.000000
 30
0.000000
  0
VERTEX
  8
4_ANYTOOL_CUTTHROUGH_OUTSI
 10
1937.563864
 20
581.500000
 30
0.000000
  0
VERTEX
  8
4_ANYTOOL_CUTTHROUGH_OUTSI
 10
1911.699922
 20
581.500000
 30
0.000000
  0
VERTEX
  8
4_ANYTOOL_CUTTHROUGH_OUTSI
 10
1911.699922
 20
575.750000
 30
0.000000
 42
-0.414214
  0
VERTEX
  8
4_ANYTOOL_CUTTHROUGH_OUTSI
 10
1911.449922
 20
575.500000
 30
0.000000
  0
VERTEX
  8
4_ANYTOOL_CUTTHROUGH_OUTSI
 10
1899.449922
 20
575.500000
 30
0.000000
 42
-0.414214
  0
VERTEX
  8
4_ANYTOOL_CUTTHROUGH_OUTSI
 10
1899.199922
 20
575.750000
 30
0.000000
  0
VERTEX
  8
4_ANYTOOL_CUTTHROUGH_OUTSI
 10
1899.199922
 20
599.500000
 30
0.000000
  0
VERTEX
  8
4_ANYTOOL_CUTTHROUGH_OUTSI
 10
1824.699922
 20
599.500000
 30
0.000000
  0
VERTEX
  8
4_ANYTOOL_CUTTHROUGH_OUTSI
 10
1824.699922
 20
575.750000
 30
0.000000
 42
-0.414214
  0
VERTEX
  8
4_ANYTOOL_CUTTHROUGH_OUTSI
 10
1824.449922
 20
575.500000
 30
0.000000
  0
VERTEX
  8
4_ANYTOOL_CUTTHROUGH_OUTSI
 10
1812.449922
 20
575.500000
 30
0.000000
 42
-0.414214
  0
VERTEX
  8
4_ANYTOOL_CUTTHROUGH_OUTSI
 10
1812.199922
 20
575.750000
 30
0.000000
  0
VERTEX
  8
4_ANYTOOL_CUTTHROUGH_OUTSI
 10
1812.199922
 20
581.500000
 30
0.000000
  0
VERTEX
  8
4_ANYTOOL_CUTTHROUGH_OUTSI
 10
1761.699922
 20
581.500000
 30
0.000000
  0
VERTEX
  8
4_ANYTOOL_CUTTHROUGH_OUTSI
 10
1761.699922
 20
575.750000
 30
0.000000
 42
-0.414214
  0
VERTEX
  8
4_ANYTOOL_CUTTHROUGH_OUTSI
 10
1761.449922
 20
575.500000
 30
0.000000
  0
VERTEX
  8
4_ANYTOOL_CUTTHROUGH_OUTSI
 10
1749.449922
 20
575.500000
 30
0.000000
 42
-0.414214
  0
VERTEX
  8
4_ANYTOOL_CUTTHROUGH_OUTSI
 10
1749.199922
 20
575.750000
 30
0.000000
  0
VERTEX
  8
4_ANYTOOL_CUTTHROUGH_OUTSI
 10
1749.199922
 20
599.500000
 30
0.000000
  0
VERTEX
  8
4_ANYTOOL_CUTTHROUGH_OUTSI
 10
1674.699922
 20
599.500000
 30
0.000000
  0
VERTEX
  8
4_ANYTOOL_CUTTHROUGH_OUTSI
 10
1674.699922
 20
575.750000
 30
0.000000
 42
-0.414214
  0
VERTEX
  8
4_ANYTOOL_CUTTHROUGH_OUTSI
 10
1674.449922
 20
575.500000
 30
0.000000
  0
VERTEX
  8
4_ANYTOOL_CUTTHROUGH_OUTSI
 10
1662.449922
 20
575.500000
 30
0.000000
 42
-0.414214
  0
VERTEX
  8
4_ANYTOOL_CUTTHROUGH_OUTSI
 10
1662.199922
 20
575.750000
 30
0.000000
  0
VERTEX
  8
4_ANYTOOL_CUTTHROUGH_OUTSI
 10
1662.199922
 20
581.500000
 30
0.000000
  0
VERTEX
  8
4_ANYTOOL_CUTTHROUGH_OUTSI
 10
1611.699922
 20
581.500000
 30
0.000000
  0
VERTEX
  8
4_ANYTOOL_CUTTHROUGH_OUTSI
 10
1611.699922
 20
575.750000
 30
0.000000
 42
-0.414214
  0
VERTEX
  8
4_ANYTOOL_CUTTHROUGH_OUTSI
 10
1611.449922
 20
575.500000
 30
0.000000
  0
VERTEX
  8
4_ANYTOOL_CUTTHROUGH_OUTSI
 10
1599.449922
 20
575.500000
 30
0.000000
 42
-0.414214
  0
VERTEX
  8
4_ANYTOOL_CUTTHROUGH_OUTSI
 10
1599.199922
 20
575.750000
 30
0.000000
  0
VERTEX
  8
4_ANYTOOL_CUTTHROUGH_OUTSI
 10
1599.199922
 20
599.500000
 30
0.000000
  0
VERTEX
  8
4_ANYTOOL_CUTTHROUGH_OUTSI
 10
1524.699922
 20
599.500000
 30
0.000000
  0
VERTEX
  8
4_ANYTOOL_CUTTHROUGH_OUTSI
 10
1524.699922
 20
575.750000
 30
0.000000
 42
-0.414214
  0
VERTEX
  8
4_ANYTOOL_CUTTHROUGH_OUTSI
 10
1524.449922
 20
575.500000
 30
0.000000
  0
VERTEX
  8
4_ANYTOOL_CUTTHROUGH_OUTSI
 10
1512.449922
 20
575.500000
 30
0.000000
 42
-0.414214
  0
VERTEX
  8
4_ANYTOOL_CUTTHROUGH_OUTSI
 10
1512.199922
 20
575.750000
 30
0.000000
  0
VERTEX
  8
4_ANYTOOL_CUTTHROUGH_OUTSI
 10
1512.199922
 20
581.500000
 30
0.000000
  0
VERTEX
  8
4_ANYTOOL_CUTTHROUGH_OUTSI
 10
1461.699922
 20
581.500000
 30
0.000000
  0
VERTEX
  8
4_ANYTOOL_CUTTHROUGH_OUTSI
 10
1461.699922
 20
575.750000
 30
0.000000
 42
-0.414214
  0
VERTEX
  8
4_ANYTOOL_CUTTHROUGH_OUTSI
 10
1461.449922
 20
575.500000
 30
0.000000
  0
VERTEX
  8
4_ANYTOOL_CUTTHROUGH_OUTSI
 10
1449.449922
 20
575.500000
 30
0.000000
 42
-0.414214
  0
VERTEX
  8
4_ANYTOOL_CUTTHROUGH_OUTSI
 10
1449.199922
 20
575.750000
 30
0.000000
  0
VERTEX
  8
4_ANYTOOL_CUTTHROUGH_OUTSI
 10
1449.199922
 20
599.500000
 30
0.000000
  0
VERTEX
  8
4_ANYTOOL_CUTTHROUGH_OUTSI
 10
1374.699922
 20
599.500000
 30
0.000000
  0
VERTEX
  8
4_ANYTOOL_CUTTHROUGH_OUTSI
 10
1374.699922
 20
575.750000
 30
0.000000
 42
-0.414214
  0
VERTEX
  8
4_ANYTOOL_CUTTHROUGH_OUTSI
 10
1374.449922
 20
575.500000
 30
0.000000
  0
VERTEX
  8
4_ANYTOOL_CUTTHROUGH_OUTSI
 10
1362.449922
 20
575.500000
 30
0.000000
 42
-0.414214
  0
VERTEX
  8
4_ANYTOOL_CUTTHROUGH_OUTSI
 10
1362.199922
 20
575.750000
 30
0.000000
  0
VERTEX
  8
4_ANYTOOL_CUTTHROUGH_OUTSI
 10
1362.199922
 20
581.500000
 30
0.000000
  0
VERTEX
  8
4_ANYTOOL_CUTTHROUGH_OUTSI
 10
1311.699922
 20
581.500000
 30
0.000000
  0
VERTEX
  8
4_ANYTOOL_CUTTHROUGH_OUTSI
 10
1311.699922
 20
575.750000
 30
0.000000
 42
-0.414214
  0
VERTEX
  8
4_ANYTOOL_CUTTHROUGH_OUTSI
 10
1311.449922
 20
575.500000
 30
0.000000
  0
VERTEX
  8
4_ANYTOOL_CUTTHROUGH_OUTSI
 10
1299.449922
 20
575.500000
 30
0.000000
 42
-0.414214
  0
VERTEX
  8
4_ANYTOOL_CUTTHROUGH_OUTSI
 10
1299.199922
 20
575.750000
 30
0.000000
  0
VERTEX
  8
4_ANYTOOL_CUTTHROUGH_OUTSI
 10
1299.199922
 20
599.500000
 30
0.000000
  0
VERTEX
  8
4_ANYTOOL_CUTTHROUGH_OUTSI
 10
1224.699922
 20
599.500000
 30
0.000000
  0
VERTEX
  8
4_ANYTOOL_CUTTHROUGH_OUTSI
 10
1224.699922
 20
575.750000
 30
0.000000
 42
-0.414214
  0
VERTEX
  8
4_ANYTOOL_CUTTHROUGH_OUTSI
 10
1224.449922
 20
575.500000
 30
0.000000
  0
VERTEX
  8
4_ANYTOOL_CUTTHROUGH_OUTSI
 10
1212.449922
 20
575.500000
 30
0.000000
 42
-0.414214
  0
VERTEX
  8
4_ANYTOOL_CUTTHROUGH_OUTSI
 10
1212.199922
 20
575.750000
 30
0.000000
  0
VERTEX
  8
4_ANYTOOL_CUTTHROUGH_OUTSI
 10
1212.199922
 20
581.500000
 30
0.000000
  0
VERTEX
  8
4_ANYTOOL_CUTTHROUGH_OUTSI
 10
1161.699922
 20
581.500000
 30
0.000000
  0
VERTEX
  8
4_ANYTOOL_CUTTHROUGH_OUTSI
 10
1161.699922
 20
575.750000
 30
0.000000
 42
-0.414214
  0
VERTEX
  8
4_ANYTOOL_CUTTHROUGH_OUTSI
 10
1161.449922
 20
575.500000
 30
0.000000
  0
VERTEX
  8
4_ANYTOOL_CUTTHROUGH_OUTSI
 10
1149.449922
 20
575.500000
 30
0.000000
 42
-0.414214
  0
VERTEX
  8
4_ANYTOOL_CUTTHROUGH_OUTSI
 10
1149.199922
 20
575.750000
 30
0.000000
  0
VERTEX
  8
4_ANYTOOL_CUTTHROUGH_OUTSI
 10
1149.199922
 20
599.500000
 30
0.000000
  0
VERTEX
  8
4_ANYTOOL_CUTTHROUGH_OUTSI
 10
1074.699922
 20
599.500000
 30
0.000000
  0
VERTEX
  8
4_ANYTOOL_CUTTHROUGH_OUTSI
 10
1074.699922
 20
575.750000
 30
0.000000
 42
-0.414214
  0
VERTEX
  8
4_ANYTOOL_CUTTHROUGH_OUTSI
 10
1074.449922
 20
575.500000
 30
0.000000
  0
VERTEX
  8
4_ANYTOOL_CUTTHROUGH_OUTSI
 10
1062.449922
 20
575.500000
 30
0.000000
 42
-0.414214
  0
VERTEX
  8
4_ANYTOOL_CUTTHROUGH_OUTSI
 10
1062.199922
 20
575.750000
 30
0.000000
  0
VERTEX
  8
4_ANYTOOL_CUTTHROUGH_OUTSI
 10
1062.199922
 20
581.500000
 30
0.000000
  0
VERTEX
  8
4_ANYTOOL_CUTTHROUGH_OUTSI
 10
1011.699922
 20
581.500000
 30
0.000000
  0
VERTEX
  8
4_ANYTOOL_CUTTHROUGH_OUTSI
 10
1011.699922
 20
575.750000
 30
0.000000
 42
-0.414214
  0
VERTEX
  8
4_ANYTOOL_CUTTHROUGH_OUTSI
 10
1011.449922
 20
575.500000
 30
0.000000
  0
VERTEX
  8
4_ANYTOOL_CUTTHROUGH_OUTSI
 10
999.449922
 20
575.500000
 30
0.000000
 42
-0.414214
  0
VERTEX
  8
4_ANYTOOL_CUTTHROUGH_OUTSI
 10
999.199922
 20
575.750000
 30
0.000000
  0
VERTEX
  8
4_ANYTOOL_CUTTHROUGH_OUTSI
 10
999.199922
 20
599.500000
 30
0.000000
  0
VERTEX
  8
4_ANYTOOL_CUTTHROUGH_OUTSI
 10
924.699922
 20
599.500000
 30
0.000000
  0
VERTEX
  8
4_ANYTOOL_CUTTHROUGH_OUTSI
 10
924.699922
 20
575.750000
 30
0.000000
 42
-0.414214
  0
VERTEX
  8
4_ANYTOOL_CUTTHROUGH_OUTSI
 10
924.449922
 20
575.500000
 30
0.000000
  0
VERTEX
  8
4_ANYTOOL_CUTTHROUGH_OUTSI
 10
912.449922
 20
575.500000
 30
0.000000
 42
-0.414214
  0
VERTEX
  8
4_ANYTOOL_CUTTHROUGH_OUTSI
 10
912.199922
 20
575.750000
 30
0.000000
  0
VERTEX
  8
4_ANYTOOL_CUTTHROUGH_OUTSI
 10
912.199922
 20
581.500000
 30
0.000000
  0
VERTEX
  8
4_ANYTOOL_CUTTHROUGH_OUTSI
 10
861.699922
 20
581.500000
 30
0.000000
  0
VERTEX
  8
4_ANYTOOL_CUTTHROUGH_OUTSI
 10
861.699922
 20
575.750000
 30
0.000000
 42
-0.414214
  0
VERTEX
  8
4_ANYTOOL_CUTTHROUGH_OUTSI
 10
861.449922
 20
575.500000
 30
0.000000
  0
VERTEX
  8
4_ANYTOOL_CUTTHROUGH_OUTSI
 10
849.449922
 20
575.500000
 30
0.000000
 42
-0.414214
  0
VERTEX
  8
4_ANYTOOL_CUTTHROUGH_OUTSI
 10
849.199922
 20
575.750000
 30
0.000000
  0
VERTEX
  8
4_ANYTOOL_CUTTHROUGH_OUTSI
 10
849.199922
 20
599.500000
 30
0.000000
  0
VERTEX
  8
4_ANYTOOL_CUTTHROUGH_OUTSI
 10
774.699922
 20
599.500000
 30
0.000000
  0
VERTEX
  8
4_ANYTOOL_CUTTHROUGH_OUTSI
 10
774.699922
 20
575.750000
 30
0.000000
 42
-0.414214
  0
VERTEX
  8
4_ANYTOOL_CUTTHROUGH_OUTSI
 10
774.449922
 20
575.500000
 30
0.000000
  0
VERTEX
  8
4_ANYTOOL_CUTTHROUGH_OUTSI
 10
762.449922
 20
575.500000
 30
0.000000
 42
-0.414214
  0
VERTEX
  8
4_ANYTOOL_CUTTHROUGH_OUTSI
 10
762.199922
 20
575.750000
 30
0.000000
  0
VERTEX
  8
4_ANYTOOL_CUTTHROUGH_OUTSI
 10
762.199922
 20
581.500000
 30
0.000000
  0
VERTEX
  8
4_ANYTOOL_CUTTHROUGH_OUTSI
 10
711.699922
 20
581.500000
 30
0.000000
  0
VERTEX
  8
4_ANYTOOL_CUTTHROUGH_OUTSI
 10
711.699922
 20
575.750000
 30
0.000000
 42
-0.414214
  0
VERTEX
  8
4_ANYTOOL_CUTTHROUGH_OUTSI
 10
711.449922
 20
575.500000
 30
0.000000
  0
VERTEX
  8
4_ANYTOOL_CUTTHROUGH_OUTSI
 10
699.449922
 20
575.500000
 30
0.000000
 42
-0.414214
  0
VERTEX
  8
4_ANYTOOL_CUTTHROUGH_OUTSI
 10
699.199922
 20
575.750000
 30
0.000000
  0
VERTEX
  8
4_ANYTOOL_CUTTHROUGH_OUTSI
 10
699.199922
 20
599.500000
 30
0.000000
  0
VERTEX
  8
4_ANYTOOL_CUTTHROUGH_OUTSI
 10
624.699922
 20
599.500000
 30
0.000000
  0
VERTEX
  8
4_ANYTOOL_CUTTHROUGH_OUTSI
 10
624.699922
 20
575.750000
 30
0.000000
 42
-0.414214
  0
VERTEX
  8
4_ANYTOOL_CUTTHROUGH_OUTSI
 10
624.449922
 20
575.500000
 30
0.000000
  0
VERTEX
  8
4_ANYTOOL_CUTTHROUGH_OUTSI
 10
612.449922
 20
575.500000
 30
0.000000
 42
-0.414214
  0
VERTEX
  8
4_ANYTOOL_CUTTHROUGH_OUTSI
 10
612.199922
 20
575.750000
 30
0.000000
  0
VERTEX
  8
4_ANYTOOL_CUTTHROUGH_OUTSI
 10
612.199922
 20
581.500000
 30
0.000000
  0
VERTEX
  8
4_ANYTOOL_CUTTHROUGH_OUTSI
 10
411.699922
 20
581.500000
 30
0.000000
  0
VERTEX
  8
4_ANYTOOL_CUTTHROUGH_OUTSI
 10
411.699922
 20
575.750000
 30
0.000000
 42
-0.414214
  0
VERTEX
  8
4_ANYTOOL_CUTTHROUGH_OUTSI
 10
411.449922
 20
575.500000
 30
0.000000
  0
VERTEX
  8
4_ANYTOOL_CUTTHROUGH_OUTSI
 10
399.449922
 20
575.500000
 30
0.000000
 42
-0.414214
  0
VERTEX
  8
4_ANYTOOL_CUTTHROUGH_OUTSI
 10
399.199922
 20
575.750000
 30
0.000000
  0
VERTEX
  8
4_ANYTOOL_CUTTHROUGH_OUTSI
 10
399.199922
 20
599.500000
 30
0.000000
  0
VERTEX
  8
4_ANYTOOL_CUTTHROUGH_OUTSI
 10
324.699922
 20
599.500000
 30
0.000000
  0
VERTEX
  8
4_ANYTOOL_CUTTHROUGH_OUTSI
 10
324.699922
 20
575.750000
 30
0.000000
 42
-0.414214
  0
VERTEX
  8
4_ANYTOOL_CUTTHROUGH_OUTSI
 10
324.449922
 20
575.500000
 30
0.000000
  0
VERTEX
  8
4_ANYTOOL_CUTTHROUGH_OUTSI
 10
312.449922
 20
575.500000
 30
0.000000
 42
-0.414214
  0
VERTEX
  8
4_ANYTOOL_CUTTHROUGH_OUTSI
 10
312.199922
 20
575.750000
 30
0.000000
  0
VERTEX
  8
4_ANYTOOL_CUTTHROUGH_OUTSI
 10
312.199922
 20
581.500000
 30
0.000000
  0
VERTEX
  8
4_ANYTOOL_CUTTHROUGH_OUTSI
 10
261.699922
 20
581.500000
 30
0.000000
  0
VERTEX
  8
4_ANYTOOL_CUTTHROUGH_OUTSI
 10
261.699922
 20
575.750000
 30
0.000000
 42
-0.414214
  0
VERTEX
  8
4_ANYTOOL_CUTTHROUGH_OUTSI
 10
261.449922
 20
575.500000
 30
0.000000
  0
VERTEX
  8
4_ANYTOOL_CUTTHROUGH_OUTSI
 10
249.449922
 20
575.500000
 30
0.000000
 42
-0.414214
  0
VERTEX
  8
4_ANYTOOL_CUTTHROUGH_OUTSI
 10
249.199922
 20
575.750000
 30
0.000000
  0
VERTEX
  8
4_ANYTOOL_CUTTHROUGH_OUTSI
 10
249.199922
 20
599.500000
 30
0.000000
  0
VERTEX
  8
4_ANYTOOL_CUTTHROUGH_OUTSI
 10
174.699922
 20
599.500000
 30
0.000000
  0
VERTEX
  8
4_ANYTOOL_CUTTHROUGH_OUTSI
 10
174.699922
 20
575.750000
 30
0.000000
 42
-0.414214
  0
VERTEX
  8
4_ANYTOOL_CUTTHROUGH_OUTSI
 10
174.449922
 20
575.500000
 30
0.000000
  0
VERTEX
  8
4_ANYTOOL_CUTTHROUGH_OUTSI
 10
162.449922
 20
575.500000
 30
0.000000
 42
-0.414214
  0
VERTEX
  8
4_ANYTOOL_CUTTHROUGH_OUTSI
 10
162.199922
 20
575.750000
 30
0.000000
  0
VERTEX
  8
4_ANYTOOL_CUTTHROUGH_OUTSI
 10
162.199922
 20
581.500000
 30
0.000000
  0
VERTEX
  8
4_ANYTOOL_CUTTHROUGH_OUTSI
 10
111.699922
 20
581.500000
 30
0.000000
  0
VERTEX
  8
4_ANYTOOL_CUTTHROUGH_OUTSI
 10
111.699922
 20
575.750000
 30
0.000000
 42
-0.414214
  0
VERTEX
  8
4_ANYTOOL_CUTTHROUGH_OUTSI
 10
111.449922
 20
575.500000
 30
0.000000
  0
VERTEX
  8
4_ANYTOOL_CUTTHROUGH_OUTSI
 10
99.449922
 20
575.500000
 30
0.000000
 42
-0.414214
  0
VERTEX
  8
4_ANYTOOL_CUTTHROUGH_OUTSI
 10
99.199922
 20
575.750000
 30
0.000000
  0
VERTEX
  8
4_ANYTOOL_CUTTHROUGH_OUTSI
 10
99.199922
 20
599.500000
 30
0.000000
  0
VERTEX
  8
4_ANYTOOL_CUTTHROUGH_OUTSI
 10
24.699922
 20
599.500000
 30
0.000000
  0
VERTEX
  8
4_ANYTOOL_CUTTHROUGH_OUTSI
 10
24.699922
 20
575.750000
 30
0.000000
 42
-0.414214
  0
VERTEX
  8
4_ANYTOOL_CUTTHROUGH_OUTSI
 10
24.449922
 20
575.500000
 30
0.000000
  0
VERTEX
  8
4_ANYTOOL_CUTTHROUGH_OUTSI
 10
18.000000
 20
575.500000
 30
0.000000
  0
VERTEX
  8
4_ANYTOOL_CUTTHROUGH_OUTSI
 10
18.000000
 20
412.000000
 30
0.000000
  0
VERTEX
  8
4_ANYTOOL_CUTTHROUGH_OUTSI
 10
23.750000
 20
412.000000
 30
0.000000
 42
-0.414214
  0
VERTEX
  8
4_ANYTOOL_CUTTHROUGH_OUTSI
 10
24.000000
 20
411.750000
 30
0.000000
  0
VERTEX
  8
4_ANYTOOL_CUTTHROUGH_OUTSI
 10
24.000000
 20
399.750000
 30
0.000000
 42
-0.414214
  0
VERTEX
  8
4_ANYTOOL_CUTTHROUGH_OUTSI
 10
23.750000
 20
399.500000
 30
0.000000
  0
VERTEX
  8
4_ANYTOOL_CUTTHROUGH_OUTSI
 10
0.000000
 20
399.500000
 30
0.000000
  0
VERTEX
  8
4_ANYTOOL_CUTTHROUGH_OUTSI
 10
0.000000
 20
200.000000
 30
0.000000
  0
VERTEX
  8
4_ANYTOOL_CUTTHROUGH_OUTSI
 10
23.750000
 20
200.000000
 30
0.000000
 42
-0.414214
  0
VERTEX
  8
4_ANYTOOL_CUTTHROUGH_OUTSI
 10
24.000000
 20
199.750000
 30
0.000000
  0
VERTEX
  8
4_ANYTOOL_CUTTHROUGH_OUTSI
 10
24.000000
 20
187.750000
 30
0.000000
 42
-0.414214
  0
VERTEX
  8
4_ANYTOOL_CUTTHROUGH_OUTSI
 10
23.750000
 20
187.500000
 30
0.000000
  0
VERTEX
  8
4_ANYTOOL_CUTTHROUGH_OUTSI
 10
18.000000
 20
187.500000
 30
0.000000
  0
VERTEX
  8
4_ANYTOOL_CUTTHROUGH_OUTSI
 10
18.000000
 20
24.000000
 30
0.000000
  0
VERTEX
  8
4_ANYTOOL_CUTTHROUGH_OUTSI
 10
24.449922
 20
24.000000
 30
0.000000
 42
-0.414214
  0
VERTEX
  8
4_ANYTOOL_CUTTHROUGH_OUTSI
 10
24.699922
 20
23.750000
 30
0.000000
  0
VERTEX
  8
4_ANYTOOL_CUTTHROUGH_OUTSI
 10
24.699922
 20
0.000000
 30
0.000000
  0
VERTEX
  8
4_ANYTOOL_CUTTHROUGH_OUTSI
 10
99.199922
 20
0.000000
 30
0.000000
  0
VERTEX
  8
4_ANYTOOL_CUTTHROUGH_OUTSI
 10
99.199922
 20
23.750000
 30
0.000000
 42
-0.414214
  0
VERTEX
  8
4_ANYTOOL_CUTTHROUGH_OUTSI
 10
99.449922
 20
24.000000
 30
0.000000
  0
VERTEX
  8
4_ANYTOOL_CUTTHROUGH_OUTSI
 10
111.449922
 20
24.000000
 30
0.000000
 42
-0.414214
  0
VERTEX
  8
4_ANYTOOL_CUTTHROUGH_OUTSI
 10
111.699922
 20
23.750000
 30
0.000000
  0
VERTEX
  8
4_ANYTOOL_CUTTHROUGH_OUTSI
 10
111.699922
 20
18.000000
 30
0.000000
  0
VERTEX
  8
4_ANYTOOL_CUTTHROUGH_OUTSI
 10
162.199922
 20
18.000000
 30
0.000000
  0
VERTEX
  8
4_ANYTOOL_CUTTHROUGH_OUTSI
 10
162.199922
 20
23.750000
 30
0.000000
 42
-0.414214
  0
VERTEX
  8
4_ANYTOOL_CUTTHROUGH_OUTSI
 10
162.449922
 20
24.000000
 30
0.000000
  0
VERTEX
  8
4_ANYTOOL_CUTTHROUGH_OUTSI
 10
174.449922
 20
24.000000
 30
0.000000
 42
-0.414214
  0
VERTEX
  8
4_ANYTOOL_CUTTHROUGH_OUTSI
 10
174.699922
 20
23.750000
 30
0.000000
  0
VERTEX
  8
4_ANYTOOL_CUTTHROUGH_OUTSI
 10
174.699922
 20
0.000000
 30
0.000000
  0
VERTEX
  8
4_ANYTOOL_CUTTHROUGH_OUTSI
 10
249.199922
 20
0.000000
 30
0.000000
  0
VERTEX
  8
4_ANYTOOL_CUTTHROUGH_OUTSI
 10
249.199922
 20
23.750000
 30
0.000000
 42
-0.414214
  0
VERTEX
  8
4_ANYTOOL_CUTTHROUGH_OUTSI
 10
249.449922
 20
24.000000
 30
0.000000
  0
VERTEX
  8
4_ANYTOOL_CUTTHROUGH_OUTSI
 10
261.449922
 20
24.000000
 30
0.000000
 42
-0.414214
  0
VERTEX
  8
4_ANYTOOL_CUTTHROUGH_OUTSI
 10
261.699922
 20
23.750000
 30
0.000000
  0
VERTEX
  8
4_ANYTOOL_CUTTHROUGH_OUTSI
 10
261.699922
 20
18.000000
 30
0.000000
  0
VERTEX
  8
4_ANYTOOL_CUTTHROUGH_OUTSI
 10
312.199922
 20
18.000000
 30
0.000000
  0
VERTEX
  8
4_ANYTOOL_CUTTHROUGH_OUTSI
 10
312.199922
 20
23.750000
 30
0.000000
 42
-0.414214
  0
VERTEX
  8
4_ANYTOOL_CUTTHROUGH_OUTSI
 10
312.449922
 20
24.000000
 30
0.000000
  0
VERTEX
  8
4_ANYTOOL_CUTTHROUGH_OUTSI
 10
324.449922
 20
24.000000
 30
0.000000
 42
-0.414214
  0
VERTEX
  8
4_ANYTOOL_CUTTHROUGH_OUTSI
 10
324.699922
 20
23.750000
 30
0.000000
  0
VERTEX
  8
4_ANYTOOL_CUTTHROUGH_OUTSI
 10
324.699922
 20
0.000000
 30
0.000000
  0
VERTEX
  8
4_ANYTOOL_CUTTHROUGH_OUTSI
 10
399.199922
 20
0.000000
 30
0.000000
  0
VERTEX
  8
4_ANYTOOL_CUTTHROUGH_OUTSI
 10
399.199922
 20
23.750000
 30
0.000000
 42
-0.414214
  0
VERTEX
  8
4_ANYTOOL_CUTTHROUGH_OUTSI
 10
399.449922
 20
24.000000
 30
0.000000
  0
VERTEX
  8
4_ANYTOOL_CUTTHROUGH_OUTSI
 10
411.449922
 20
24.000000
 30
0.000000
 42
-0.414214
  0
VERTEX
  8
4_ANYTOOL_CUTTHROUGH_OUTSI
 10
411.699922
 20
23.750000
 30
0.000000
  0
VERTEX
  8
4_ANYTOOL_CUTTHROUGH_OUTSI
 10
411.699922
 20
18.000000
 30
0.000000
  0
VERTEX
  8
4_ANYTOOL_CUTTHROUGH_OUTSI
 10
612.199922
 20
18.000000
 30
0.000000
  0
VERTEX
  8
4_ANYTOOL_CUTTHROUGH_OUTSI
 10
612.199922
 20
23.750000
 30
0.000000
 42
-0.414214
  0
VERTEX
  8
4_ANYTOOL_CUTTHROUGH_OUTSI
 10
612.449922
 20
24.000000
 30
0.000000
  0
VERTEX
  8
4_ANYTOOL_CUTTHROUGH_OUTSI
 10
624.449922
 20
24.000000
 30
0.000000
 42
-0.414214
  0
VERTEX
  8
4_ANYTOOL_CUTTHROUGH_OUTSI
 10
624.699922
 20
23.750000
 30
0.000000
  0
VERTEX
  8
4_ANYTOOL_CUTTHROUGH_OUTSI
 10
624.699922
 20
0.000000
 30
0.000000
  0
SEQEND
  8
4_ANYTOOL_CUTTHROUGH_OUTSI
  0
ENDSEC
  0
EOF
