  0
SECTION
  2
HEADER
  9
$ACADVER
  1
AC1009
  9
$INSBASE
 10
0.000000
 20
0.000000
 30
0.000000
  9
$EXTMIN
 10
7.833333
 20
-6.499773
 30
0.000000
  9
$EXTMAX
 10
378.499448
 20
605.998396
 30
0.000000
  0
ENDSEC
  0
SECTION
  2
TABLES
  0
TABLE
  2
LTYPE
 70
1
  0
LTYPE
  2
CONTINUOUS
 70
0
  3
Solid line
 72
65
 73
0
 40
0.000000
  0
ENDTAB
  0
TABLE
  2
LAYER
 70
4
  0
LAYER
  2
0
 70
0
 62
7
  6
CONTINUOUS
  0
LAYER
  2
1_ANYTOOL_1MMDEEP_LABELS_S
 70
0
 62
2
  6
CONTINUOUS
  0
LAYER
  2
5_ANYTOOL_HALF_MILL_9MM_IN
 70
0
 62
3
  6
CONTINUOUS
  0
LAYER
  2
4_ANYTOOL_CUTTHROUGH_OUTSI
 70
0
 62
5
  6
CONTINUOUS
  0
ENDTAB
  0
ENDSEC
  0
SECTION
  2
ENTITIES
  0
POLYLINE
  8
1_ANYTOOL_1MMDEEP_LABELS_S
 66
1
 10
0.000000
 20
0.000000
 30
0.000000
 70
0
  0
VERTEX
  8
1_ANYTOOL_1MMDEEP_LABELS_S
 10
192.248506
 20
403.377880
 30
0.000000
 42
0.059291
  0
VERTEX
  8
1_ANYTOOL_1MMDEEP_LABELS_S
 10
189.319089
 20
401.841720
 30
0.000000
 42
0.066881
  0
VERTEX
  8
1_ANYTOOL_1MMDEEP_LABELS_S
 10
186.869934
 20
399.627880
 30
0.000000
 42
0.045290
  0
VERTEX
  8
1_ANYTOOL_1MMDEEP_LABELS_S
 10
185.946057
 20
398.310895
 30
0.000000
 42
0.046757
  0
VERTEX
  8
1_ANYTOOL_1MMDEEP_LABELS_S
 10
185.278863
 20
396.847523
 30
0.000000
 42
0.046330
  0
VERTEX
  8
1_ANYTOOL_1MMDEEP_LABELS_S
 10
184.874531
 20
395.207611
 30
0.000000
 42
0.037303
  0
VERTEX
  8
1_ANYTOOL_1MMDEEP_LABELS_S
 10
184.748506
 20
393.520738
 30
0.000000
 42
0.054828
  0
VERTEX
  8
1_ANYTOOL_1MMDEEP_LABELS_S
 10
185.024091
 20
391.015097
 30
0.000000
 42
0.073548
  0
VERTEX
  8
1_ANYTOOL_1MMDEEP_LABELS_S
 10
185.921720
 20
388.672523
 30
0.000000
 42
0.073729
  0
VERTEX
  8
1_ANYTOOL_1MMDEEP_LABELS_S
 10
187.449953
 20
386.703201
 30
0.000000
 42
0.056205
  0
VERTEX
  8
1_ANYTOOL_1MMDEEP_LABELS_S
 10
189.441363
 20
385.185023
 30
0.000000
 42
0.033355
  0
VERTEX
  8
1_ANYTOOL_1MMDEEP_LABELS_S
 10
191.831239
 20
383.963854
 30
0.000000
 42
0.034965
  0
VERTEX
  8
1_ANYTOOL_1MMDEEP_LABELS_S
 10
194.364577
 20
383.079666
 30
0.000000
 42
0.034911
  0
VERTEX
  8
1_ANYTOOL_1MMDEEP_LABELS_S
 10
197.032584
 20
382.549639
 30
0.000000
 42
0.031589
  0
VERTEX
  8
1_ANYTOOL_1MMDEEP_LABELS_S
 10
199.748506
 20
382.377880
 30
0.000000
 42
0.032085
  0
VERTEX
  8
1_ANYTOOL_1MMDEEP_LABELS_S
 10
202.465135
 20
382.552384
 30
0.000000
 42
0.035383
  0
VERTEX
  8
1_ANYTOOL_1MMDEEP_LABELS_S
 10
205.132434
 20
383.090380
 30
0.000000
 42
0.035431
  0
VERTEX
  8
1_ANYTOOL_1MMDEEP_LABELS_S
 10
207.667592
 20
383.988869
 30
0.000000
 42
0.033598
  0
VERTEX
  8
1_ANYTOOL_1MMDEEP_LABELS_S
 10
210.055649
 20
385.227880
 30
0.000000
 42
0.058628
  0
VERTEX
  8
1_ANYTOOL_1MMDEEP_LABELS_S
 10
212.056534
 20
386.790082
 30
0.000000
 42
0.073381
  0
VERTEX
  8
1_ANYTOOL_1MMDEEP_LABELS_S
 10
213.575292
 20
388.811809
 30
0.000000
 42
0.072539
  0
VERTEX
  8
1_ANYTOOL_1MMDEEP_LABELS_S
 10
214.476346
 20
391.257782
 30
0.000000
 42
0.052080
  0
VERTEX
  8
1_ANYTOOL_1MMDEEP_LABELS_S
 10
214.748506
 20
393.863595
 30
0.000000
 42
0.033243
  0
VERTEX
  8
1_ANYTOOL_1MMDEEP_LABELS_S
 10
214.652569
 20
395.304970
 30
0.000000
 42
0.042283
  0
VERTEX
  8
1_ANYTOOL_1MMDEEP_LABELS_S
 10
214.341363
 20
396.713595
 30
0.000000
 42
0.042766
  0
VERTEX
  8
1_ANYTOOL_1MMDEEP_LABELS_S
 10
213.834274
 20
397.956291
 30
0.000000
 42
0.044269
  0
VERTEX
  8
1_ANYTOOL_1MMDEEP_LABELS_S
 10
213.119934
 20
399.092166
 30
0.000000
 42
0.055485
  0
VERTEX
  8
1_ANYTOOL_1MMDEEP_LABELS_S
 10
211.205033
 20
401.103961
 30
0.000000
 42
0.045948
  0
VERTEX
  8
1_ANYTOOL_1MMDEEP_LABELS_S
 10
208.919934
 20
402.692166
 30
0.000000
  0
SEQEND
  8
1_ANYTOOL_1MMDEEP_LABELS_S
  0
LINE
  8
1_ANYTOOL_1MMDEEP_LABELS_S
 10
185.219934
 20
379.763595
 30
0.000000
 11
215.991363
 21
362.577880
 31
0.000000
  0
POLYLINE
  8
1_ANYTOOL_1MMDEEP_LABELS_S
 66
1
 10
0.000000
 20
0.000000
 30
0.000000
 70
0
  0
VERTEX
  8
1_ANYTOOL_1MMDEEP_LABELS_S
 10
214.705649
 20
358.549309
 30
0.000000
  0
VERTEX
  8
1_ANYTOOL_1MMDEEP_LABELS_S
 10
214.662792
 20
340.249309
 30
0.000000
 42
-0.034491
  0
VERTEX
  8
1_ANYTOOL_1MMDEEP_LABELS_S
 10
212.915460
 20
340.912087
 30
0.000000
 42
-0.037732
  0
VERTEX
  8
1_ANYTOOL_1MMDEEP_LABELS_S
 10
211.282434
 20
341.818952
 30
0.000000
 42
-0.037744
  0
VERTEX
  8
1_ANYTOOL_1MMDEEP_LABELS_S
 10
209.807798
 20
342.958246
 30
0.000000
 42
-0.034820
  0
VERTEX
  8
1_ANYTOOL_1MMDEEP_LABELS_S
 10
208.512792
 20
344.299309
 30
0.000000
 42
-0.008590
  0
VERTEX
  8
1_ANYTOOL_1MMDEEP_LABELS_S
 10
206.114209
 20
347.258534
 30
0.000000
 42
-0.008791
  0
VERTEX
  8
1_ANYTOOL_1MMDEEP_LABELS_S
 10
203.819934
 20
350.299309
 30
0.000000
 42
0.020588
  0
VERTEX
  8
1_ANYTOOL_1MMDEEP_LABELS_S
 10
201.586492
 20
353.118598
 30
0.000000
 42
0.025206
  0
VERTEX
  8
1_ANYTOOL_1MMDEEP_LABELS_S
 10
199.105649
 20
355.720738
 30
0.000000
 42
0.046908
  0
VERTEX
  8
1_ANYTOOL_1MMDEEP_LABELS_S
 10
197.804407
 20
356.741333
 30
0.000000
 42
0.051091
  0
VERTEX
  8
1_ANYTOOL_1MMDEEP_LABELS_S
 10
196.330649
 20
357.488595
 30
0.000000
 42
0.050722
  0
VERTEX
  8
1_ANYTOOL_1MMDEEP_LABELS_S
 10
194.682474
 20
357.937328
 30
0.000000
 42
0.041139
  0
VERTEX
  8
1_ANYTOOL_1MMDEEP_LABELS_S
 10
192.977077
 20
358.077880
 30
0.000000
 42
0.039396
  0
VERTEX
  8
1_ANYTOOL_1MMDEEP_LABELS_S
 10
191.169491
 20
357.935236
 30
0.000000
 42
0.058519
  0
VERTEX
  8
1_ANYTOOL_1MMDEEP_LABELS_S
 10
189.430649
 20
357.445738
 30
0.000000
 42
0.060358
  0
VERTEX
  8
1_ANYTOOL_1MMDEEP_LABELS_S
 10
188.023533
 20
356.655180
 30
0.000000
 42
0.061397
  0
VERTEX
  8
1_ANYTOOL_1MMDEEP_LABELS_S
 10
186.848506
 20
355.549309
 30
0.000000
 42
0.048006
  0
VERTEX
  8
1_ANYTOOL_1MMDEEP_LABELS_S
 10
185.926546
 20
354.193352
 30
0.000000
 42
0.045901
  0
VERTEX
  8
1_ANYTOOL_1MMDEEP_LABELS_S
 10
185.273506
 20
352.688595
 30
0.000000
 42
0.045216
  0
VERTEX
  8
1_ANYTOOL_1MMDEEP_LABELS_S
 10
184.870946
 20
350.948534
 30
0.000000
 42
0.034258
  0
VERTEX
  8
1_ANYTOOL_1MMDEEP_LABELS_S
 10
184.748506
 20
349.163595
 30
0.000000
 42
0.055622
  0
VERTEX
  8
1_ANYTOOL_1MMDEEP_LABELS_S
 10
185.042493
 20
346.529024
 30
0.000000
 42
0.079896
  0
VERTEX
  8
1_ANYTOOL_1MMDEEP_LABELS_S
 10
186.023506
 20
344.085023
 30
0.000000
 42
0.080617
  0
VERTEX
  8
1_ANYTOOL_1MMDEEP_LABELS_S
 10
187.689206
 20
342.115636
 30
0.000000
 42
0.060287
  0
VERTEX
  8
1_ANYTOOL_1MMDEEP_LABELS_S
 10
189.848506
 20
340.677880
 30
0.000000
  0
SEQEND
  8
1_ANYTOOL_1MMDEEP_LABELS_S
  0
LINE
  8
1_ANYTOOL_1MMDEEP_LABELS_S
 10
206.091363
 20
312.349309
 30
0.000000
 11
206.091363
 21
334.120738
 31
0.000000
  0
POLYLINE
  8
1_ANYTOOL_1MMDEEP_LABELS_S
 66
1
 10
0.000000
 20
0.000000
 30
0.000000
 70
0
  0
VERTEX
  8
1_ANYTOOL_1MMDEEP_LABELS_S
 10
214.748506
 20
328.335023
 30
0.000000
  0
VERTEX
  8
1_ANYTOOL_1MMDEEP_LABELS_S
 10
184.705649
 20
328.377880
 30
0.000000
  0
VERTEX
  8
1_ANYTOOL_1MMDEEP_LABELS_S
 10
206.091363
 20
312.349309
 30
0.000000
  0
SEQEND
  8
1_ANYTOOL_1MMDEEP_LABELS_S
  0
LINE
  8
1_ANYTOOL_1MMDEEP_LABELS_S
 10
200.862792
 20
308.063595
 30
0.000000
 11
200.948506
 21
299.277880
 31
0.000000
  0
POLYLINE
  8
1_ANYTOOL_1MMDEEP_LABELS_S
 66
1
 10
0.000000
 20
0.000000
 30
0.000000
 70
0
  0
VERTEX
  8
1_ANYTOOL_1MMDEEP_LABELS_S
 10
189.334220
 20
295.249309
 30
0.000000
 42
0.071867
  0
VERTEX
  8
1_ANYTOOL_1MMDEEP_LABELS_S
 10
187.997613
 20
295.056195
 30
0.000000
 42
0.100684
  0
VERTEX
  8
1_ANYTOOL_1MMDEEP_LABELS_S
 10
186.816363
 20
294.429666
 30
0.000000
 42
0.047558
  0
VERTEX
  8
1_ANYTOOL_1MMDEEP_LABELS_S
 10
186.339913
 20
293.955113
 30
0.000000
 42
0.038563
  0
VERTEX
  8
1_ANYTOOL_1MMDEEP_LABELS_S
 10
185.951184
 20
293.405113
 30
0.000000
 42
0.037928
  0
VERTEX
  8
1_ANYTOOL_1MMDEEP_LABELS_S
 10
185.603716
 20
292.707925
 30
0.000000
 42
0.026634
  0
VERTEX
  8
1_ANYTOOL_1MMDEEP_LABELS_S
 10
185.348506
 20
291.970738
 30
0.000000
 42
0.028461
  0
VERTEX
  8
1_ANYTOOL_1MMDEEP_LABELS_S
 10
184.662523
 20
288.947404
 30
0.000000
 42
0.041577
  0
VERTEX
  8
1_ANYTOOL_1MMDEEP_LABELS_S
 10
184.405649
 20
285.863595
 30
0.000000
 42
0.036938
  0
VERTEX
  8
1_ANYTOOL_1MMDEEP_LABELS_S
 10
184.516788
 20
284.361235
 30
0.000000
 42
0.041531
  0
VERTEX
  8
1_ANYTOOL_1MMDEEP_LABELS_S
 10
184.861006
 20
282.895738
 30
0.000000
 42
0.041583
  0
VERTEX
  8
1_ANYTOOL_1MMDEEP_LABELS_S
 10
185.438214
 20
281.518361
 30
0.000000
 42
0.038125
  0
VERTEX
  8
1_ANYTOOL_1MMDEEP_LABELS_S
 10
186.227077
 20
280.249309
 30
0.000000
 42
0.057611
  0
VERTEX
  8
1_ANYTOOL_1MMDEEP_LABELS_S
 10
187.218981
 20
279.179156
 30
0.000000
 42
0.065808
  0
VERTEX
  8
1_ANYTOOL_1MMDEEP_LABELS_S
 10
188.439577
 20
278.385023
 30
0.000000
 42
0.064690
  0
VERTEX
  8
1_ANYTOOL_1MMDEEP_LABELS_S
 10
189.899132
 20
277.907527
 30
0.000000
 42
0.046778
  0
VERTEX
  8
1_ANYTOOL_1MMDEEP_LABELS_S
 10
191.434220
 20
277.763595
 30
0.000000
 42
0.052235
  0
VERTEX
  8
1_ANYTOOL_1MMDEEP_LABELS_S
 10
192.984062
 20
277.925951
 30
0.000000
 42
0.075448
  0
VERTEX
  8
1_ANYTOOL_1MMDEEP_LABELS_S
 10
194.434220
 20
278.470738
 30
0.000000
 42
0.076671
  0
VERTEX
  8
1_ANYTOOL_1MMDEEP_LABELS_S
 10
195.607273
 20
279.386829
 30
0.000000
 42
0.061023
  0
VERTEX
  8
1_ANYTOOL_1MMDEEP_LABELS_S
 10
196.491363
 20
280.592166
 30
0.000000
 42
0.021951
  0
VERTEX
  8
1_ANYTOOL_1MMDEEP_LABELS_S
 10
198.018709
 20
283.621020
 30
0.000000
 42
0.018213
  0
VERTEX
  8
1_ANYTOOL_1MMDEEP_LABELS_S
 10
199.298506
 20
286.763595
 30
0.000000
 42
-0.024050
  0
VERTEX
  8
1_ANYTOOL_1MMDEEP_LABELS_S
 10
200.603968
 20
289.865079
 30
0.000000
 42
-0.029810
  0
VERTEX
  8
1_ANYTOOL_1MMDEEP_LABELS_S
 10
202.234220
 20
292.806452
 30
0.000000
 42
-0.068439
  0
VERTEX
  8
1_ANYTOOL_1MMDEEP_LABELS_S
 10
203.200151
 20
293.947754
 30
0.000000
 42
-0.079282
  0
VERTEX
  8
1_ANYTOOL_1MMDEEP_LABELS_S
 10
204.452077
 20
294.756452
 30
0.000000
 42
-0.076308
  0
VERTEX
  8
1_ANYTOOL_1MMDEEP_LABELS_S
 10
206.030759
 20
295.181452
 30
0.000000
 42
-0.047772
  0
VERTEX
  8
1_ANYTOOL_1MMDEEP_LABELS_S
 10
207.677077
 20
295.206452
 30
0.000000
 42
-0.046243
  0
VERTEX
  8
1_ANYTOOL_1MMDEEP_LABELS_S
 10
209.358037
 20
294.913217
 30
0.000000
 42
-0.063590
  0
VERTEX
  8
1_ANYTOOL_1MMDEEP_LABELS_S
 10
210.928863
 20
294.263595
 30
0.000000
 42
-0.064671
  0
VERTEX
  8
1_ANYTOOL_1MMDEEP_LABELS_S
 10
212.213052
 20
293.290771
 30
0.000000
 42
-0.057073
  0
VERTEX
  8
1_ANYTOOL_1MMDEEP_LABELS_S
 10
213.227077
 20
292.035023
 30
0.000000
 42
-0.067522
  0
VERTEX
  8
1_ANYTOOL_1MMDEEP_LABELS_S
 10
214.589988
 20
289.066715
 30
0.000000
 42
-0.070793
  0
VERTEX
  8
1_ANYTOOL_1MMDEEP_LABELS_S
 10
215.091363
 20
285.842166
 30
0.000000
 42
-0.064027
  0
VERTEX
  8
1_ANYTOOL_1MMDEEP_LABELS_S
 10
214.728848
 20
282.703151
 30
0.000000
 42
-0.070447
  0
VERTEX
  8
1_ANYTOOL_1MMDEEP_LABELS_S
 10
213.548506
 20
279.777880
 30
0.000000
 42
-0.054374
  0
VERTEX
  8
1_ANYTOOL_1MMDEEP_LABELS_S
 10
212.698873
 20
278.619463
 30
0.000000
 42
-0.074742
  0
VERTEX
  8
1_ANYTOOL_1MMDEEP_LABELS_S
 10
211.587792
 20
277.720738
 30
0.000000
 42
-0.075199
  0
VERTEX
  8
1_ANYTOOL_1MMDEEP_LABELS_S
 10
210.281413
 20
277.197730
 30
0.000000
 42
-0.057737
  0
VERTEX
  8
1_ANYTOOL_1MMDEEP_LABELS_S
 10
208.877077
 20
277.035023
 30
0.000000
  0
SEQEND
  8
1_ANYTOOL_1MMDEEP_LABELS_S
  0
LINE
  8
1_ANYTOOL_1MMDEEP_LABELS_S
 10
184.748506
 20
272.620738
 30
0.000000
 11
214.748506
 21
253.720738
 31
0.000000
  0
LINE
  8
1_ANYTOOL_1MMDEEP_LABELS_S
 10
214.748506
 20
273.863595
 30
0.000000
 11
184.748506
 21
254.920738
 31
0.000000
  0
LINE
  8
1_ANYTOOL_1MMDEEP_LABELS_S
 10
184.748506
 20
249.906452
 30
0.000000
 11
214.748506
 21
231.006452
 31
0.000000
  0
LINE
  8
1_ANYTOOL_1MMDEEP_LABELS_S
 10
214.748506
 20
251.149309
 30
0.000000
 11
184.748506
 21
232.206452
 31
0.000000
  0
LINE
  8
1_ANYTOOL_1MMDEEP_LABELS_S
 10
200.862792
 20
227.577880
 30
0.000000
 11
200.948506
 21
218.792166
 31
0.000000
  0
POLYLINE
  8
1_ANYTOOL_1MMDEEP_LABELS_S
 66
1
 10
0.000000
 20
0.000000
 30
0.000000
 70
0
  0
VERTEX
  8
1_ANYTOOL_1MMDEEP_LABELS_S
 10
214.748506
 20
196.120738
 30
0.000000
  0
VERTEX
  8
1_ANYTOOL_1MMDEEP_LABELS_S
 10
184.748506
 20
196.120738
 30
0.000000
  0
VERTEX
  8
1_ANYTOOL_1MMDEEP_LABELS_S
 10
184.748506
 20
207.477880
 30
0.000000
 42
-0.030274
  0
VERTEX
  8
1_ANYTOOL_1MMDEEP_LABELS_S
 10
184.855521
 20
209.243693
 30
0.000000
 42
-0.049000
  0
VERTEX
  8
1_ANYTOOL_1MMDEEP_LABELS_S
 10
185.238684
 20
210.965380
 30
0.000000
 42
-0.050774
  0
VERTEX
  8
1_ANYTOOL_1MMDEEP_LABELS_S
 10
185.831140
 20
212.297903
 30
0.000000
 42
-0.064450
  0
VERTEX
  8
1_ANYTOOL_1MMDEEP_LABELS_S
 10
186.709220
 20
213.456452
 30
0.000000
 42
-0.064600
  0
VERTEX
  8
1_ANYTOOL_1MMDEEP_LABELS_S
 10
187.845251
 20
214.346363
 30
0.000000
 42
-0.052254
  0
VERTEX
  8
1_ANYTOOL_1MMDEEP_LABELS_S
 10
189.160113
 20
214.951095
 30
0.000000
 42
-0.050381
  0
VERTEX
  8
1_ANYTOOL_1MMDEEP_LABELS_S
 10
190.852662
 20
215.340230
 30
0.000000
 42
-0.031337
  0
VERTEX
  8
1_ANYTOOL_1MMDEEP_LABELS_S
 10
192.591363
 20
215.449309
 30
0.000000
 42
-0.040022
  0
VERTEX
  8
1_ANYTOOL_1MMDEEP_LABELS_S
 10
193.965420
 20
215.339148
 30
0.000000
 42
-0.042626
  0
VERTEX
  8
1_ANYTOOL_1MMDEEP_LABELS_S
 10
195.302077
 20
215.004666
 30
0.000000
 42
-0.042470
  0
VERTEX
  8
1_ANYTOOL_1MMDEEP_LABELS_S
 10
196.591797
 20
214.435981
 30
0.000000
 42
-0.036572
  0
VERTEX
  8
1_ANYTOOL_1MMDEEP_LABELS_S
 10
197.777077
 20
213.670738
 30
0.000000
 42
-0.051097
  0
VERTEX
  8
1_ANYTOOL_1MMDEEP_LABELS_S
 10
198.791032
 20
212.728960
 30
0.000000
 42
-0.061981
  0
VERTEX
  8
1_ANYTOOL_1MMDEEP_LABELS_S
 10
199.566363
 20
211.586809
 30
0.000000
 42
-0.061813
  0
VERTEX
  8
1_ANYTOOL_1MMDEEP_LABELS_S
 10
200.042863
 20
210.277807
 30
0.000000
 42
-0.049309
  0
VERTEX
  8
1_ANYTOOL_1MMDEEP_LABELS_S
 10
200.219934
 20
208.892166
 30
0.000000
 42
-0.003273
  0
VERTEX
  8
1_ANYTOOL_1MMDEEP_LABELS_S
 10
200.257626
 20
208.024515
 30
0.000000
 42
-0.003121
  0
VERTEX
  8
1_ANYTOOL_1MMDEEP_LABELS_S
 10
200.284220
 20
207.156452
 30
0.000000
 42
-0.003882
  0
VERTEX
  8
1_ANYTOOL_1MMDEEP_LABELS_S
 10
200.301140
 20
206.138670
 30
0.000000
 42
-0.002215
  0
VERTEX
  8
1_ANYTOOL_1MMDEEP_LABELS_S
 10
200.305649
 20
205.120738
 30
0.000000
  0
VERTEX
  8
1_ANYTOOL_1MMDEEP_LABELS_S
 10
200.305649
 20
196.163595
 30
0.000000
  0
SEQEND
  8
1_ANYTOOL_1MMDEEP_LABELS_S
  0
LINE
  8
1_ANYTOOL_1MMDEEP_LABELS_S
 10
200.305649
 20
205.120738
 30
0.000000
 11
214.791363
 21
215.577880
 31
0.000000
  0
POLYLINE
  8
5_ANYTOOL_HALF_MILL_9MM_IN
 66
1
 10
0.000000
 20
0.000000
 30
0.000000
 70
1
  0
VERTEX
  8
5_ANYTOOL_HALF_MILL_9MM_IN
 10
156.659036
 20
55.760227
 30
0.000000
 42
0.999765
  0
VERTEX
  8
5_ANYTOOL_HALF_MILL_9MM_IN
 10
114.159039
 20
55.750227
 30
0.000000
  0
VERTEX
  8
5_ANYTOOL_HALF_MILL_9MM_IN
 10
114.159039
 20
49.500227
 30
0.000000
  0
VERTEX
  8
5_ANYTOOL_HALF_MILL_9MM_IN
 10
156.659039
 20
49.500227
 30
0.000000
  0
SEQEND
  8
5_ANYTOOL_HALF_MILL_9MM_IN
  0
POLYLINE
  8
5_ANYTOOL_HALF_MILL_9MM_IN
 66
1
 10
0.000000
 20
0.000000
 30
0.000000
 70
1
  0
VERTEX
  8
5_ANYTOOL_HALF_MILL_9MM_IN
 10
114.159039
 20
543.748396
 30
0.000000
 42
1.000000
  0
VERTEX
  8
5_ANYTOOL_HALF_MILL_9MM_IN
 10
156.659039
 20
543.748396
 30
0.000000
  0
VERTEX
  8
5_ANYTOOL_HALF_MILL_9MM_IN
 10
156.659039
 20
549.998396
 30
0.000000
  0
VERTEX
  8
5_ANYTOOL_HALF_MILL_9MM_IN
 10
114.159039
 20
549.998396
 30
0.000000
  0
SEQEND
  8
5_ANYTOOL_HALF_MILL_9MM_IN
  0
POLYLINE
  8
5_ANYTOOL_HALF_MILL_9MM_IN
 66
1
 10
0.000000
 20
0.000000
 30
0.000000
 70
1
  0
VERTEX
  8
5_ANYTOOL_HALF_MILL_9MM_IN
 10
240.318073
 20
18.000227
 30
0.000000
  0
VERTEX
  8
5_ANYTOOL_HALF_MILL_9MM_IN
 10
219.818073
 20
18.000227
 30
0.000000
  0
VERTEX
  8
5_ANYTOOL_HALF_MILL_9MM_IN
 10
213.818073
 20
18.000227
 30
0.000000
  0
VERTEX
  8
5_ANYTOOL_HALF_MILL_9MM_IN
 10
213.818073
 20
-6.499773
 30
0.000000
  0
VERTEX
  8
5_ANYTOOL_HALF_MILL_9MM_IN
 10
220.078073
 20
-6.499773
 30
0.000000
  0
VERTEX
  8
5_ANYTOOL_HALF_MILL_9MM_IN
 10
246.318073
 20
-6.499773
 30
0.000000
  0
VERTEX
  8
5_ANYTOOL_HALF_MILL_9MM_IN
 10
246.318073
 20
-0.239773
 30
0.000000
  0
VERTEX
  8
5_ANYTOOL_HALF_MILL_9MM_IN
 10
246.318073
 20
18.000227
 30
0.000000
  0
SEQEND
  8
5_ANYTOOL_HALF_MILL_9MM_IN
  0
POLYLINE
  8
5_ANYTOOL_HALF_MILL_9MM_IN
 66
1
 10
0.000000
 20
0.000000
 30
0.000000
 70
1
  0
VERTEX
  8
5_ANYTOOL_HALF_MILL_9MM_IN
 10
219.818073
 20
581.498396
 30
0.000000
  0
VERTEX
  8
5_ANYTOOL_HALF_MILL_9MM_IN
 10
240.318073
 20
581.498396
 30
0.000000
  0
VERTEX
  8
5_ANYTOOL_HALF_MILL_9MM_IN
 10
246.318073
 20
581.498396
 30
0.000000
  0
VERTEX
  8
5_ANYTOOL_HALF_MILL_9MM_IN
 10
246.318073
 20
605.998396
 30
0.000000
  0
VERTEX
  8
5_ANYTOOL_HALF_MILL_9MM_IN
 10
240.058073
 20
605.998396
 30
0.000000
  0
VERTEX
  8
5_ANYTOOL_HALF_MILL_9MM_IN
 10
213.818073
 20
605.998396
 30
0.000000
  0
VERTEX
  8
5_ANYTOOL_HALF_MILL_9MM_IN
 10
213.818073
 20
599.738396
 30
0.000000
  0
VERTEX
  8
5_ANYTOOL_HALF_MILL_9MM_IN
 10
213.818073
 20
581.498396
 30
0.000000
  0
SEQEND
  8
5_ANYTOOL_HALF_MILL_9MM_IN
  0
POLYLINE
  8
5_ANYTOOL_HALF_MILL_9MM_IN
 66
1
 10
0.000000
 20
0.000000
 30
0.000000
 70
1
  0
VERTEX
  8
5_ANYTOOL_HALF_MILL_9MM_IN
 10
30.500000
 20
581.498396
 30
0.000000
  0
VERTEX
  8
5_ANYTOOL_HALF_MILL_9MM_IN
 10
51.000000
 20
581.498396
 30
0.000000
  0
VERTEX
  8
5_ANYTOOL_HALF_MILL_9MM_IN
 10
57.000000
 20
581.498396
 30
0.000000
  0
VERTEX
  8
5_ANYTOOL_HALF_MILL_9MM_IN
 10
57.000000
 20
605.998396
 30
0.000000
  0
VERTEX
  8
5_ANYTOOL_HALF_MILL_9MM_IN
 10
50.740000
 20
605.998396
 30
0.000000
  0
VERTEX
  8
5_ANYTOOL_HALF_MILL_9MM_IN
 10
24.500000
 20
605.998396
 30
0.000000
  0
VERTEX
  8
5_ANYTOOL_HALF_MILL_9MM_IN
 10
24.500000
 20
599.738396
 30
0.000000
  0
VERTEX
  8
5_ANYTOOL_HALF_MILL_9MM_IN
 10
24.500000
 20
581.498396
 30
0.000000
  0
SEQEND
  8
5_ANYTOOL_HALF_MILL_9MM_IN
  0
POLYLINE
  8
5_ANYTOOL_HALF_MILL_9MM_IN
 66
1
 10
0.000000
 20
0.000000
 30
0.000000
 70
1
  0
VERTEX
  8
5_ANYTOOL_HALF_MILL_9MM_IN
 10
51.000000
 20
18.000227
 30
0.000000
  0
VERTEX
  8
5_ANYTOOL_HALF_MILL_9MM_IN
 10
30.500000
 20
18.000227
 30
0.000000
  0
VERTEX
  8
5_ANYTOOL_HALF_MILL_9MM_IN
 10
24.500000
 20
18.000227
 30
0.000000
  0
VERTEX
  8
5_ANYTOOL_HALF_MILL_9MM_IN
 10
24.500000
 20
-6.499773
 30
0.000000
  0
VERTEX
  8
5_ANYTOOL_HALF_MILL_9MM_IN
 10
30.760000
 20
-6.499773
 30
0.000000
  0
VERTEX
  8
5_ANYTOOL_HALF_MILL_9MM_IN
 10
57.000000
 20
-6.499773
 30
0.000000
  0
VERTEX
  8
5_ANYTOOL_HALF_MILL_9MM_IN
 10
57.000000
 20
-0.239773
 30
0.000000
  0
VERTEX
  8
5_ANYTOOL_HALF_MILL_9MM_IN
 10
57.000000
 20
18.000227
 30
0.000000
  0
SEQEND
  8
5_ANYTOOL_HALF_MILL_9MM_IN
  0
POLYLINE
  8
5_ANYTOOL_HALF_MILL_9MM_IN
 66
1
 10
0.000000
 20
0.000000
 30
0.000000
 70
1
  0
VERTEX
  8
5_ANYTOOL_HALF_MILL_9MM_IN
 10
67.750000
 20
473.399309
 30
0.000000
 42
1.000000
  0
VERTEX
  8
5_ANYTOOL_HALF_MILL_9MM_IN
 10
67.750000
 20
515.899309
 30
0.000000
  0
VERTEX
  8
5_ANYTOOL_HALF_MILL_9MM_IN
 10
61.500000
 20
515.899309
 30
0.000000
  0
VERTEX
  8
5_ANYTOOL_HALF_MILL_9MM_IN
 10
61.500000
 20
473.399309
 30
0.000000
  0
SEQEND
  8
5_ANYTOOL_HALF_MILL_9MM_IN
  0
POLYLINE
  8
5_ANYTOOL_HALF_MILL_9MM_IN
 66
1
 10
0.000000
 20
0.000000
 30
0.000000
 70
1
  0
VERTEX
  8
5_ANYTOOL_HALF_MILL_9MM_IN
 10
67.750000
 20
278.499311
 30
0.000000
 42
1.000000
  0
VERTEX
  8
5_ANYTOOL_HALF_MILL_9MM_IN
 10
67.750000
 20
320.999311
 30
0.000000
  0
VERTEX
  8
5_ANYTOOL_HALF_MILL_9MM_IN
 10
61.500000
 20
320.999311
 30
0.000000
  0
VERTEX
  8
5_ANYTOOL_HALF_MILL_9MM_IN
 10
61.500000
 20
278.499311
 30
0.000000
  0
SEQEND
  8
5_ANYTOOL_HALF_MILL_9MM_IN
  0
POLYLINE
  8
5_ANYTOOL_HALF_MILL_9MM_IN
 66
1
 10
0.000000
 20
0.000000
 30
0.000000
 70
1
  0
VERTEX
  8
5_ANYTOOL_HALF_MILL_9MM_IN
 10
67.750000
 20
83.599313
 30
0.000000
 42
1.000000
  0
VERTEX
  8
5_ANYTOOL_HALF_MILL_9MM_IN
 10
67.750000
 20
126.099313
 30
0.000000
  0
VERTEX
  8
5_ANYTOOL_HALF_MILL_9MM_IN
 10
61.500000
 20
126.099313
 30
0.000000
  0
VERTEX
  8
5_ANYTOOL_HALF_MILL_9MM_IN
 10
61.500000
 20
83.599313
 30
0.000000
  0
SEQEND
  8
5_ANYTOOL_HALF_MILL_9MM_IN
  0
POLYLINE
  8
4_ANYTOOL_CUTTHROUGH_OUTSI
 66
1
 10
0.000000
 20
0.000000
 30
0.000000
 70
1
  0
VERTEX
  8
4_ANYTOOL_CUTTHROUGH_OUTSI
 10
61.750000
 20
539.899311
 30
0.000000
 42
-0.414214
  0
VERTEX
  8
4_ANYTOOL_CUTTHROUGH_OUTSI
 10
68.000000
 20
533.649311
 30
0.000000
  0
VERTEX
  8
4_ANYTOOL_CUTTHROUGH_OUTSI
 10
68.000000
 20
455.649311
 30
0.000000
 42
-0.414214
  0
VERTEX
  8
4_ANYTOOL_CUTTHROUGH_OUTSI
 10
61.750000
 20
449.399311
 30
0.000000
 42
-0.084368
  0
VERTEX
  8
4_ANYTOOL_CUTTHROUGH_OUTSI
 10
61.667412
 20
449.413347
 30
0.000000
  0
VERTEX
  8
4_ANYTOOL_CUTTHROUGH_OUTSI
 10
13.383805
 20
466.312460
 30
0.000000
 42
0.061178
  0
VERTEX
  8
4_ANYTOOL_CUTTHROUGH_OUTSI
 10
12.000000
 20
466.543874
 30
0.000000
  0
VERTEX
  8
4_ANYTOOL_CUTTHROUGH_OUTSI
 10
12.000000
 20
327.854748
 30
0.000000
 42
0.061784
  0
VERTEX
  8
4_ANYTOOL_CUTTHROUGH_OUTSI
 10
13.394870
 20
328.089743
 30
0.000000
  0
VERTEX
  8
4_ANYTOOL_CUTTHROUGH_OUTSI
 10
61.667412
 20
344.985276
 30
0.000000
 42
-0.084368
  0
VERTEX
  8
4_ANYTOOL_CUTTHROUGH_OUTSI
 10
61.750000
 20
344.999311
 30
0.000000
 42
-0.414214
  0
VERTEX
  8
4_ANYTOOL_CUTTHROUGH_OUTSI
 10
68.000000
 20
338.749311
 30
0.000000
  0
VERTEX
  8
4_ANYTOOL_CUTTHROUGH_OUTSI
 10
68.000000
 20
260.749311
 30
0.000000
 42
-0.414214
  0
VERTEX
  8
4_ANYTOOL_CUTTHROUGH_OUTSI
 10
61.750000
 20
254.499311
 30
0.000000
 42
-0.084368
  0
VERTEX
  8
4_ANYTOOL_CUTTHROUGH_OUTSI
 10
61.667412
 20
254.513347
 30
0.000000
  0
VERTEX
  8
4_ANYTOOL_CUTTHROUGH_OUTSI
 10
13.383805
 20
271.412460
 30
0.000000
 42
0.061178
  0
VERTEX
  8
4_ANYTOOL_CUTTHROUGH_OUTSI
 10
12.000000
 20
271.643874
 30
0.000000
  0
VERTEX
  8
4_ANYTOOL_CUTTHROUGH_OUTSI
 10
12.000000
 20
132.954748
 30
0.000000
 42
0.061784
  0
VERTEX
  8
4_ANYTOOL_CUTTHROUGH_OUTSI
 10
13.394870
 20
133.189743
 30
0.000000
  0
VERTEX
  8
4_ANYTOOL_CUTTHROUGH_OUTSI
 10
61.667412
 20
150.085276
 30
0.000000
 42
-0.084368
  0
VERTEX
  8
4_ANYTOOL_CUTTHROUGH_OUTSI
 10
61.750000
 20
150.099311
 30
0.000000
 42
-0.414214
  0
VERTEX
  8
4_ANYTOOL_CUTTHROUGH_OUTSI
 10
68.000000
 20
143.849311
 30
0.000000
  0
VERTEX
  8
4_ANYTOOL_CUTTHROUGH_OUTSI
 10
68.000000
 20
65.849311
 30
0.000000
 42
-0.414214
  0
VERTEX
  8
4_ANYTOOL_CUTTHROUGH_OUTSI
 10
61.750000
 20
59.599311
 30
0.000000
 42
-0.084368
  0
VERTEX
  8
4_ANYTOOL_CUTTHROUGH_OUTSI
 10
61.667412
 20
59.613347
 30
0.000000
  0
VERTEX
  8
4_ANYTOOL_CUTTHROUGH_OUTSI
 10
13.383805
 20
76.512460
 30
0.000000
 42
0.061178
  0
VERTEX
  8
4_ANYTOOL_CUTTHROUGH_OUTSI
 10
12.000000
 20
76.743874
 30
0.000000
  0
VERTEX
  8
4_ANYTOOL_CUTTHROUGH_OUTSI
 10
12.000000
 20
64.344874
 30
0.000000
 42
-0.317837
  0
VERTEX
  8
4_ANYTOOL_CUTTHROUGH_OUTSI
 10
7.833333
 20
58.452317
 30
0.000000
 42
0.707107
  0
VERTEX
  8
4_ANYTOOL_CUTTHROUGH_OUTSI
 10
7.833333
 20
36.296305
 30
0.000000
 42
-0.317837
  0
VERTEX
  8
4_ANYTOOL_CUTTHROUGH_OUTSI
 10
12.000000
 20
30.403748
 30
0.000000
  0
VERTEX
  8
4_ANYTOOL_CUTTHROUGH_OUTSI
 10
12.000000
 20
18.000227
 30
0.000000
  0
VERTEX
  8
4_ANYTOOL_CUTTHROUGH_OUTSI
 10
18.500000
 20
18.000227
 30
0.000000
  0
VERTEX
  8
4_ANYTOOL_CUTTHROUGH_OUTSI
 10
18.500000
 20
23.750227
 30
0.000000
 42
-0.414214
  0
VERTEX
  8
4_ANYTOOL_CUTTHROUGH_OUTSI
 10
18.750000
 20
24.000227
 30
0.000000
  0
VERTEX
  8
4_ANYTOOL_CUTTHROUGH_OUTSI
 10
30.750000
 20
24.000227
 30
0.000000
 42
-0.414214
  0
VERTEX
  8
4_ANYTOOL_CUTTHROUGH_OUTSI
 10
31.000000
 20
23.750227
 30
0.000000
  0
VERTEX
  8
4_ANYTOOL_CUTTHROUGH_OUTSI
 10
31.000000
 20
0.000227
 30
0.000000
  0
VERTEX
  8
4_ANYTOOL_CUTTHROUGH_OUTSI
 10
50.500000
 20
0.000227
 30
0.000000
  0
VERTEX
  8
4_ANYTOOL_CUTTHROUGH_OUTSI
 10
50.500000
 20
23.750227
 30
0.000000
 42
-0.414214
  0
VERTEX
  8
4_ANYTOOL_CUTTHROUGH_OUTSI
 10
50.750000
 20
24.000227
 30
0.000000
  0
VERTEX
  8
4_ANYTOOL_CUTTHROUGH_OUTSI
 10
62.750000
 20
24.000227
 30
0.000000
 42
-0.414214
  0
VERTEX
  8
4_ANYTOOL_CUTTHROUGH_OUTSI
 10
63.000000
 20
23.750227
 30
0.000000
  0
VERTEX
  8
4_ANYTOOL_CUTTHROUGH_OUTSI
 10
63.000000
 20
18.000227
 30
0.000000
  0
VERTEX
  8
4_ANYTOOL_CUTTHROUGH_OUTSI
 10
69.500000
 20
18.000227
 30
0.000000
  0
VERTEX
  8
4_ANYTOOL_CUTTHROUGH_OUTSI
 10
69.500000
 20
23.750227
 30
0.000000
 42
-0.414214
  0
VERTEX
  8
4_ANYTOOL_CUTTHROUGH_OUTSI
 10
69.750000
 20
24.000227
 30
0.000000
  0
VERTEX
  8
4_ANYTOOL_CUTTHROUGH_OUTSI
 10
81.750000
 20
24.000227
 30
0.000000
 42
-0.414214
  0
VERTEX
  8
4_ANYTOOL_CUTTHROUGH_OUTSI
 10
82.000000
 20
23.750227
 30
0.000000
  0
VERTEX
  8
4_ANYTOOL_CUTTHROUGH_OUTSI
 10
82.000000
 20
0.000227
 30
0.000000
  0
VERTEX
  8
4_ANYTOOL_CUTTHROUGH_OUTSI
 10
107.303601
 20
0.000227
 30
0.000000
 42
0.061784
  0
VERTEX
  8
4_ANYTOOL_CUTTHROUGH_OUTSI
 10
107.068607
 20
1.395097
 30
0.000000
  0
VERTEX
  8
4_ANYTOOL_CUTTHROUGH_OUTSI
 10
90.173074
 20
49.667639
 30
0.000000
 42
-0.084368
  0
VERTEX
  8
4_ANYTOOL_CUTTHROUGH_OUTSI
 10
90.159039
 20
49.750227
 30
0.000000
 42
-0.414214
  0
VERTEX
  8
4_ANYTOOL_CUTTHROUGH_OUTSI
 10
96.409039
 20
56.000227
 30
0.000000
  0
VERTEX
  8
4_ANYTOOL_CUTTHROUGH_OUTSI
 10
174.409039
 20
56.000227
 30
0.000000
 42
-0.414214
  0
VERTEX
  8
4_ANYTOOL_CUTTHROUGH_OUTSI
 10
180.659039
 20
49.750227
 30
0.000000
 42
-0.084368
  0
VERTEX
  8
4_ANYTOOL_CUTTHROUGH_OUTSI
 10
180.645003
 20
49.667639
 30
0.000000
  0
VERTEX
  8
4_ANYTOOL_CUTTHROUGH_OUTSI
 10
163.745890
 20
1.384032
 30
0.000000
 42
0.061178
  0
VERTEX
  8
4_ANYTOOL_CUTTHROUGH_OUTSI
 10
163.514476
 20
0.000224
 30
0.000000
  0
VERTEX
  8
4_ANYTOOL_CUTTHROUGH_OUTSI
 10
188.818077
 20
0.000000
 30
0.000000
  0
VERTEX
  8
4_ANYTOOL_CUTTHROUGH_OUTSI
 10
188.818077
 20
23.749311
 30
0.000000
 42
-0.414214
  0
VERTEX
  8
4_ANYTOOL_CUTTHROUGH_OUTSI
 10
189.068077
 20
23.999311
 30
0.000000
  0
VERTEX
  8
4_ANYTOOL_CUTTHROUGH_OUTSI
 10
201.068077
 20
23.999311
 30
0.000000
 42
-0.414214
  0
VERTEX
  8
4_ANYTOOL_CUTTHROUGH_OUTSI
 10
201.318077
 20
23.749311
 30
0.000000
  0
VERTEX
  8
4_ANYTOOL_CUTTHROUGH_OUTSI
 10
201.318075
 20
17.999785
 30
0.000000
  0
VERTEX
  8
4_ANYTOOL_CUTTHROUGH_OUTSI
 10
207.818073
 20
18.000210
 30
0.000000
  0
VERTEX
  8
4_ANYTOOL_CUTTHROUGH_OUTSI
 10
207.818073
 20
23.750227
 30
0.000000
 42
-0.414214
  0
VERTEX
  8
4_ANYTOOL_CUTTHROUGH_OUTSI
 10
208.068073
 20
24.000227
 30
0.000000
  0
VERTEX
  8
4_ANYTOOL_CUTTHROUGH_OUTSI
 10
220.068073
 20
24.000227
 30
0.000000
 42
-0.414214
  0
VERTEX
  8
4_ANYTOOL_CUTTHROUGH_OUTSI
 10
220.318073
 20
23.750227
 30
0.000000
  0
VERTEX
  8
4_ANYTOOL_CUTTHROUGH_OUTSI
 10
220.318073
 20
0.000227
 30
0.000000
  0
VERTEX
  8
4_ANYTOOL_CUTTHROUGH_OUTSI
 10
239.818073
 20
0.000227
 30
0.000000
  0
VERTEX
  8
4_ANYTOOL_CUTTHROUGH_OUTSI
 10
239.818073
 20
23.750227
 30
0.000000
 42
-0.414214
  0
VERTEX
  8
4_ANYTOOL_CUTTHROUGH_OUTSI
 10
240.068073
 20
24.000227
 30
0.000000
  0
VERTEX
  8
4_ANYTOOL_CUTTHROUGH_OUTSI
 10
252.068073
 20
24.000227
 30
0.000000
 42
-0.414214
  0
VERTEX
  8
4_ANYTOOL_CUTTHROUGH_OUTSI
 10
252.318073
 20
23.750227
 30
0.000000
  0
VERTEX
  8
4_ANYTOOL_CUTTHROUGH_OUTSI
 10
252.318073
 20
18.000226
 30
0.000000
  0
VERTEX
  8
4_ANYTOOL_CUTTHROUGH_OUTSI
 10
360.499998
 20
17.999770
 30
0.000000
  0
VERTEX
  8
4_ANYTOOL_CUTTHROUGH_OUTSI
 10
360.499906
 20
187.499311
 30
0.000000
  0
VERTEX
  8
4_ANYTOOL_CUTTHROUGH_OUTSI
 10
354.749906
 20
187.499311
 30
0.000000
 42
-0.414214
  0
VERTEX
  8
4_ANYTOOL_CUTTHROUGH_OUTSI
 10
354.499906
 20
187.749311
 30
0.000000
  0
VERTEX
  8
4_ANYTOOL_CUTTHROUGH_OUTSI
 10
354.499906
 20
199.749311
 30
0.000000
 42
-0.414214
  0
VERTEX
  8
4_ANYTOOL_CUTTHROUGH_OUTSI
 10
354.749906
 20
199.999311
 30
0.000000
  0
VERTEX
  8
4_ANYTOOL_CUTTHROUGH_OUTSI
 10
378.499448
 20
199.999311
 30
0.000000
  0
VERTEX
  8
4_ANYTOOL_CUTTHROUGH_OUTSI
 10
378.499448
 20
399.499311
 30
0.000000
  0
VERTEX
  8
4_ANYTOOL_CUTTHROUGH_OUTSI
 10
354.749906
 20
399.499311
 30
0.000000
 42
-0.414214
  0
VERTEX
  8
4_ANYTOOL_CUTTHROUGH_OUTSI
 10
354.499906
 20
399.749311
 30
0.000000
  0
VERTEX
  8
4_ANYTOOL_CUTTHROUGH_OUTSI
 10
354.499906
 20
411.749311
 30
0.000000
 42
-0.414214
  0
VERTEX
  8
4_ANYTOOL_CUTTHROUGH_OUTSI
 10
354.749906
 20
411.999311
 30
0.000000
  0
VERTEX
  8
4_ANYTOOL_CUTTHROUGH_OUTSI
 10
360.499906
 20
411.999311
 30
0.000000
  0
VERTEX
  8
4_ANYTOOL_CUTTHROUGH_OUTSI
 10
360.499998
 20
581.498852
 30
0.000000
  0
VERTEX
  8
4_ANYTOOL_CUTTHROUGH_OUTSI
 10
252.318073
 20
581.498397
 30
0.000000
  0
VERTEX
  8
4_ANYTOOL_CUTTHROUGH_OUTSI
 10
252.318073
 20
575.748396
 30
0.000000
 42
-0.414214
  0
VERTEX
  8
4_ANYTOOL_CUTTHROUGH_OUTSI
 10
252.068073
 20
575.498396
 30
0.000000
  0
VERTEX
  8
4_ANYTOOL_CUTTHROUGH_OUTSI
 10
240.068073
 20
575.498396
 30
0.000000
 42
-0.414214
  0
VERTEX
  8
4_ANYTOOL_CUTTHROUGH_OUTSI
 10
239.818073
 20
575.748396
 30
0.000000
  0
VERTEX
  8
4_ANYTOOL_CUTTHROUGH_OUTSI
 10
239.818073
 20
599.498396
 30
0.000000
  0
VERTEX
  8
4_ANYTOOL_CUTTHROUGH_OUTSI
 10
220.318073
 20
599.498396
 30
0.000000
  0
VERTEX
  8
4_ANYTOOL_CUTTHROUGH_OUTSI
 10
220.318073
 20
575.748396
 30
0.000000
 42
-0.414214
  0
VERTEX
  8
4_ANYTOOL_CUTTHROUGH_OUTSI
 10
220.068073
 20
575.498396
 30
0.000000
  0
VERTEX
  8
4_ANYTOOL_CUTTHROUGH_OUTSI
 10
208.068073
 20
575.498396
 30
0.000000
 42
-0.414214
  0
VERTEX
  8
4_ANYTOOL_CUTTHROUGH_OUTSI
 10
207.818073
 20
575.748396
 30
0.000000
  0
VERTEX
  8
4_ANYTOOL_CUTTHROUGH_OUTSI
 10
207.818073
 20
581.498409
 30
0.000000
  0
VERTEX
  8
4_ANYTOOL_CUTTHROUGH_OUTSI
 10
201.318075
 20
581.498747
 30
0.000000
  0
VERTEX
  8
4_ANYTOOL_CUTTHROUGH_OUTSI
 10
201.318077
 20
575.749123
 30
0.000000
 42
-0.414214
  0
VERTEX
  8
4_ANYTOOL_CUTTHROUGH_OUTSI
 10
201.068077
 20
575.499123
 30
0.000000
  0
VERTEX
  8
4_ANYTOOL_CUTTHROUGH_OUTSI
 10
189.068077
 20
575.499123
 30
0.000000
 42
-0.414214
  0
VERTEX
  8
4_ANYTOOL_CUTTHROUGH_OUTSI
 10
188.818077
 20
575.749123
 30
0.000000
  0
VERTEX
  8
4_ANYTOOL_CUTTHROUGH_OUTSI
 10
188.818077
 20
599.498529
 30
0.000000
  0
VERTEX
  8
4_ANYTOOL_CUTTHROUGH_OUTSI
 10
163.514476
 20
599.498397
 30
0.000000
 42
0.061784
  0
VERTEX
  8
4_ANYTOOL_CUTTHROUGH_OUTSI
 10
163.749470
 20
598.103525
 30
0.000000
  0
VERTEX
  8
4_ANYTOOL_CUTTHROUGH_OUTSI
 10
180.645003
 20
549.830983
 30
0.000000
 42
-0.084368
  0
VERTEX
  8
4_ANYTOOL_CUTTHROUGH_OUTSI
 10
180.659039
 20
549.748396
 30
0.000000
 42
-0.414214
  0
VERTEX
  8
4_ANYTOOL_CUTTHROUGH_OUTSI
 10
174.409039
 20
543.498396
 30
0.000000
  0
VERTEX
  8
4_ANYTOOL_CUTTHROUGH_OUTSI
 10
96.409039
 20
543.498396
 30
0.000000
 42
-0.414214
  0
VERTEX
  8
4_ANYTOOL_CUTTHROUGH_OUTSI
 10
90.159039
 20
549.748396
 30
0.000000
 42
-0.084368
  0
VERTEX
  8
4_ANYTOOL_CUTTHROUGH_OUTSI
 10
90.173074
 20
549.830983
 30
0.000000
  0
VERTEX
  8
4_ANYTOOL_CUTTHROUGH_OUTSI
 10
107.072187
 20
598.114590
 30
0.000000
 42
0.061178
  0
VERTEX
  8
4_ANYTOOL_CUTTHROUGH_OUTSI
 10
107.303601
 20
599.498396
 30
0.000000
  0
VERTEX
  8
4_ANYTOOL_CUTTHROUGH_OUTSI
 10
82.000000
 20
599.498396
 30
0.000000
  0
VERTEX
  8
4_ANYTOOL_CUTTHROUGH_OUTSI
 10
82.000000
 20
575.748396
 30
0.000000
 42
-0.414214
  0
VERTEX
  8
4_ANYTOOL_CUTTHROUGH_OUTSI
 10
81.750000
 20
575.498396
 30
0.000000
  0
VERTEX
  8
4_ANYTOOL_CUTTHROUGH_OUTSI
 10
69.750000
 20
575.498396
 30
0.000000
 42
-0.414214
  0
VERTEX
  8
4_ANYTOOL_CUTTHROUGH_OUTSI
 10
69.500000
 20
575.748396
 30
0.000000
  0
VERTEX
  8
4_ANYTOOL_CUTTHROUGH_OUTSI
 10
69.500000
 20
581.498396
 30
0.000000
  0
VERTEX
  8
4_ANYTOOL_CUTTHROUGH_OUTSI
 10
63.000000
 20
581.498396
 30
0.000000
  0
VERTEX
  8
4_ANYTOOL_CUTTHROUGH_OUTSI
 10
63.000000
 20
575.748396
 30
0.000000
 42
-0.414214
  0
VERTEX
  8
4_ANYTOOL_CUTTHROUGH_OUTSI
 10
62.750000
 20
575.498396
 30
0.000000
  0
VERTEX
  8
4_ANYTOOL_CUTTHROUGH_OUTSI
 10
50.750000
 20
575.498396
 30
0.000000
 42
-0.414214
  0
VERTEX
  8
4_ANYTOOL_CUTTHROUGH_OUTSI
 10
50.500000
 20
575.748396
 30
0.000000
  0
VERTEX
  8
4_ANYTOOL_CUTTHROUGH_OUTSI
 10
50.500000
 20
599.498396
 30
0.000000
  0
VERTEX
  8
4_ANYTOOL_CUTTHROUGH_OUTSI
 10
31.000000
 20
599.498396
 30
0.000000
  0
VERTEX
  8
4_ANYTOOL_CUTTHROUGH_OUTSI
 10
31.000000
 20
575.748396
 30
0.000000
 42
-0.414214
  0
VERTEX
  8
4_ANYTOOL_CUTTHROUGH_OUTSI
 10
30.750000
 20
575.498396
 30
0.000000
  0
VERTEX
  8
4_ANYTOOL_CUTTHROUGH_OUTSI
 10
18.750000
 20
575.498396
 30
0.000000
 42
-0.414214
  0
VERTEX
  8
4_ANYTOOL_CUTTHROUGH_OUTSI
 10
18.500000
 20
575.748396
 30
0.000000
  0
VERTEX
  8
4_ANYTOOL_CUTTHROUGH_OUTSI
 10
18.500000
 20
581.498396
 30
0.000000
  0
VERTEX
  8
4_ANYTOOL_CUTTHROUGH_OUTSI
 10
12.000000
 20
581.498396
 30
0.000000
  0
VERTEX
  8
4_ANYTOOL_CUTTHROUGH_OUTSI
 10
12.000000
 20
569.094874
 30
0.000000
 42
-0.317837
  0
VERTEX
  8
4_ANYTOOL_CUTTHROUGH_OUTSI
 10
7.833333
 20
563.202317
 30
0.000000
 42
0.707107
  0
VERTEX
  8
4_ANYTOOL_CUTTHROUGH_OUTSI
 10
7.833333
 20
541.046305
 30
0.000000
 42
-0.317837
  0
VERTEX
  8
4_ANYTOOL_CUTTHROUGH_OUTSI
 10
12.000000
 20
535.153748
 30
0.000000
  0
VERTEX
  8
4_ANYTOOL_CUTTHROUGH_OUTSI
 10
12.000000
 20
522.754748
 30
0.000000
 42
0.061784
  0
VERTEX
  8
4_ANYTOOL_CUTTHROUGH_OUTSI
 10
13.394870
 20
522.989743
 30
0.000000
  0
VERTEX
  8
4_ANYTOOL_CUTTHROUGH_OUTSI
 10
61.667412
 20
539.885276
 30
0.000000
 42
-0.084368
  0
SEQEND
  8
4_ANYTOOL_CUTTHROUGH_OUTSI
  0
ENDSEC
  0
EOF
